700 238 1 0         
16 Autodesk AutoCAD 20 ASM 229.2.0.65535 NT 24 Tue Mar  5 22:04:05 2024 
1 9.999999999999999547e-07 1.000000000000000036e-10 
body $1 -1 $-1 $2 $-1 $3 #
DXID-attrib $-1 -1 $-1 $-1 $0 @18 ASM_BODY_FROM_STEP @83 39F7C373E8387214E1F66801FE4923A9469C61EC|:|B8A4396250C5687B1D31E70758B30729E1AC4426 #
lump $-1 -1 $-1 $-1 $4 $0 #
transform $-1 -1 1 0 0 0 1 0 0 0 1 0 0 0 1 no_rotate no_reflect no_shear #
shell $-1 -1 $-1 $-1 $-1 $5 $-1 $2 #
face $6 -1 $-1 $7 $8 $4 $-1 $9 forward single #
color-adesk-attrib $-1 -1 $10 $-1 $5 250 #
face $11 -1 $-1 $12 $13 $4 $-1 $14 forward single #
loop $-1 -1 $-1 $-1 $15 $5 #
cone-surface $-1 -1 $-1 192.0000000000000284 -24.00000000000000355 -61.00000000000000711 0 -1 0 3.000000000000000444 0 0 1 I I 0 1 3.000000000000000444 forward I I I I #
DXID-attrib $-1 -1 $-1 $6 $5 @18 ASM_FACE_FROM_STEP @7 12.2-17 #
color-adesk-attrib $-1 -1 $16 $-1 $7 250 #
face $17 -1 $-1 $18 $19 $4 $-1 $20 reversed single #
loop $-1 -1 $-1 $-1 $21 $7 #
plane-surface $-1 -1 $-1 192.0000000000000284 -26 -61.00000000000000711 0 -1 0 1 0 0 forward_v I I I I #
coedge $-1 -1 $-1 $22 $23 $24 $25 reversed $8 $-1 #
DXID-attrib $-1 -1 $-1 $11 $7 @18 ASM_FACE_FROM_STEP @8 12.2-139 #
color-adesk-attrib $-1 -1 $26 $-1 $12 250 #
face $27 -1 $-1 $28 $29 $4 $-1 $30 reversed single #
loop $-1 -1 $-1 $-1 $31 $12 #
plane-surface $-1 -1 $-1 192.0000000000000284 -26 -64 0 0 1 1 0 0 forward_v I I I I #
coedge $-1 -1 $-1 $24 $32 $33 $34 forward $13 $-1 #
coedge $-1 -1 $-1 $35 $15 $36 $37 forward $8 $-1 #
coedge $-1 -1 $-1 $15 $35 $31 $38 reversed $8 $-1 #
coedge $-1 -1 $-1 $39 $21 $15 $25 forward $13 $-1 #
edge $40 -1 $-1 $41 1.570796326794896558 $42 4.712388980384689674 $15 $43 forward @7 unknown #
DXID-attrib $-1 -1 $-1 $17 $12 @18 ASM_FACE_FROM_STEP @8 12.2-221 #
color-adesk-attrib $-1 -1 $44 $-1 $18 250 #
face $45 -1 $-1 $46 $47 $4 $-1 $48 forward single #
loop $-1 -1 $-1 $-1 $49 $18 #
plane-surface $-1 -1 $-1 192.0000000000000284 -24.00000000000000355 -61.00000000000000711 0 -1 0 1 0 0 forward_v I I I I #
coedge $-1 -1 $-1 $50 $51 $23 $38 forward $19 $-1 #
coedge $-1 -1 $-1 $21 $39 $52 $53 reversed $13 $-1 #
coedge $-1 -1 $-1 $54 $55 $21 $34 reversed $56 $-1 #
edge $57 -1 $-1 $58 4.000000000000003553 $41 5.999999999999996447 $21 $59 forward @2 g2 #
coedge $-1 -1 $-1 $23 $22 $60 $61 forward $8 $-1 #
coedge $-1 -1 $-1 $62 $63 $22 $37 reversed $47 $-1 #
edge $64 -1 $-1 $41 0 $65 1.999999999999997335 $22 $66 forward @14 tangent_not_g2 #
edge $67 -1 $-1 $42 0 $68 1.999999999999997335 $23 $69 forward @14 tangent_not_g2 #
coedge $-1 -1 $-1 $32 $24 $70 $71 forward $13 $-1 #
color-adesk-attrib $-1 -1 $72 $-1 $25 250 #
vertex $-1 -1 $-1 $25 $73 #
vertex $-1 -1 $-1 $25 $74 #
ellipse-curve $-1 -1 $-1 192.0000000000000284 -26 -61.00000000000000711 0 -1 0 3.000000000000000444 0 0 1 F 1.570796326794896558 F 4.712388980384689674 #
DXID-attrib $-1 -1 $-1 $27 $18 @18 ASM_FACE_FROM_STEP @8 12.2-302 #
color-adesk-attrib $-1 -1 $75 $-1 $28 250 #
face $76 -1 $-1 $77 $56 $4 $-1 $78 reversed single #
loop $-1 -1 $-1 $-1 $36 $28 #
plane-surface $-1 -1 $-1 192.0000000000000284 -26 -58.00000000000000711 0 0 1 1 0 0 forward_v I I I I #
coedge $-1 -1 $-1 $79 $60 $80 $81 reversed $29 $-1 #
coedge $-1 -1 $-1 $82 $31 $83 $84 forward $19 $-1 #
coedge $-1 -1 $-1 $31 $82 $85 $86 reversed $19 $-1 #
coedge $-1 -1 $-1 $87 $88 $32 $53 forward $89 $-1 #
edge $90 -1 $-1 $58 1.570796326794896558 $91 4.712388980384689674 $32 $92 forward @7 unknown #
coedge $-1 -1 $-1 $93 $33 $94 $95 reversed $56 $-1 #
coedge $-1 -1 $-1 $33 $96 $62 $97 reversed $56 $-1 #
loop $-1 -1 $-1 $-1 $96 $46 #
color-adesk-attrib $-1 -1 $98 $-1 $34 250 #
vertex $-1 -1 $-1 $34 $99 #
straight-curve $-1 -1 $-1 192.0000000000000284 -26 -64 0 0 1 F 4.000000000000003553 F 5.999999999999996447 #
coedge $-1 -1 $-1 $49 $100 $35 $61 reversed $29 $-1 #
edge $101 -1 $-1 $65 1.570796326794896558 $68 4.712388980384689674 $35 $102 forward @7 unknown #
coedge $-1 -1 $-1 $103 $36 $55 $97 forward $47 $-1 #
coedge $-1 -1 $-1 $36 $103 $104 $105 reversed $47 $-1 #
color-adesk-attrib $-1 -1 $106 $-1 $37 250 #
vertex $-1 -1 $-1 $37 $107 #
straight-curve $-1 -1 $-1 192.0000000000000284 -26 -58.00000000000000711 0 1 0 F 0 F 1.999999999999997335 #
color-adesk-attrib $-1 -1 $108 $-1 $38 250 #
vertex $-1 -1 $-1 $61 $109 #
straight-curve $-1 -1 $-1 192.0000000000000284 -26 -64 0 1 0 F 0 F 1.999999999999997335 #
coedge $-1 -1 $-1 $85 $93 $39 $71 reversed $56 $-1 #
edge $110 -1 $-1 $42 0 $91 2.000000000000001776 $39 $111 forward @2 g2 #
DXID-attrib $-1 -1 $-1 $40 $25 @18 ASM_EDGE_FROM_STEP @2 21 #
point $-1 -1 $-1 192.0000000000000284 -26 -58.00000000000000711 #
point $-1 -1 $-1 192.0000000000000284 -26 -64 #
DXID-attrib $-1 -1 $-1 $45 $28 @18 ASM_FACE_FROM_STEP @8 12.2-374 #
color-adesk-attrib $-1 -1 $112 $-1 $46 250 #
face $113 -1 $-1 $114 $89 $4 $-1 $115 reversed single #
plane-surface $-1 -1 $-1 192.0000000000000284 -26 -64 0 1 0 0 0 1 forward_v I I I I #
coedge $-1 -1 $-1 $100 $49 $116 $117 forward $29 $-1 #
coedge $-1 -1 $-1 $104 $118 $49 $81 forward $119 $-1 #
edge $120 -1 $-1 $121 4.000000000000003553 $65 5.999999999999996447 $49 $122 forward @2 g2 #
coedge $-1 -1 $-1 $51 $50 $123 $124 reversed $19 $-1 #
coedge $-1 -1 $-1 $125 $126 $50 $84 reversed $119 $-1 #
edge $127 -1 $-1 $68 0 $128 6.999999999999992895 $50 $129 forward @7 unknown #
coedge $-1 -1 $-1 $96 $70 $51 $86 forward $56 $-1 #
edge $130 -1 $-1 $42 0 $131 6.999999999999992895 $51 $132 forward @7 unknown #
coedge $-1 -1 $-1 $116 $52 $133 $134 reversed $89 $-1 #
coedge $-1 -1 $-1 $52 $116 $135 $136 forward $89 $-1 #
loop $-1 -1 $-1 $-1 $52 $77 #
color-adesk-attrib $-1 -1 $137 $-1 $53 250 #
vertex $-1 -1 $-1 $71 $138 #
ellipse-curve $-1 -1 $-1 192.0000000000000284 -26 -61.00000000000000711 0 -1 0 1 0 0 1 F 1.570796326794896558 F 4.712388980384689674 #
coedge $-1 -1 $-1 $70 $54 $139 $140 reversed $56 $-1 #
coedge $-1 -1 $-1 $135 $141 $54 $95 forward $142 $-1 #
edge $143 -1 $-1 $144 0 $58 1.570796326794896558 $54 $145 forward @7 unknown #
coedge $-1 -1 $-1 $55 $85 $146 $147 forward $56 $-1 #
edge $148 -1 $-1 $41 0 $149 6.999999999999992895 $62 $150 forward @7 unknown #
DXID-attrib $-1 -1 $-1 $57 $34 @18 ASM_EDGE_FROM_STEP @3 143 #
point $-1 -1 $-1 192.0000000000000284 -26 -60 #
coedge $-1 -1 $-1 $60 $79 $125 $151 reversed $29 $-1 #
color-adesk-attrib $-1 -1 $152 $-1 $61 250 #
ellipse-curve $-1 -1 $-1 192.0000000000000284 -24.00000000000000355 -61.00000000000000711 0 -1 0 3.000000000000000444 0 0 1 F 1.570796326794896558 F 4.712388980384689674 #
coedge $-1 -1 $-1 $63 $62 $153 $154 forward $47 $-1 #
coedge $-1 -1 $-1 $126 $80 $63 $105 forward $119 $-1 #
edge $155 -1 $-1 $65 0 $156 6.999999999999992895 $63 $157 forward @7 unknown #
DXID-attrib $-1 -1 $-1 $64 $37 @18 ASM_EDGE_FROM_STEP @2 57 #
point $-1 -1 $-1 192.0000000000000284 -24.00000000000000355 -58.00000000000000711 #
DXID-attrib $-1 -1 $-1 $67 $38 @18 ASM_EDGE_FROM_STEP @3 114 #
point $-1 -1 $-1 192.0000000000000284 -24.00000000000000355 -64 #
color-adesk-attrib $-1 -1 $158 $-1 $71 250 #
straight-curve $-1 -1 $-1 192.0000000000000284 -26 -64 0 0 1 F 0 F 2.000000000000001776 #
DXID-attrib $-1 -1 $-1 $76 $46 @18 ASM_FACE_FROM_STEP @8 12.2-445 #
color-adesk-attrib $-1 -1 $159 $-1 $77 250 #
face $160 -1 $-1 $161 $119 $4 $-1 $162 forward single #
cone-surface $-1 -1 $-1 192.0000000000000284 -24.00000000000000355 -61.00000000000000711 0 -1 0 1 0 0 1 I I 0 1 1 forward I I I I #
coedge $-1 -1 $-1 $88 $87 $79 $117 reversed $89 $-1 #
edge $163 -1 $-1 $121 1.570796326794896558 $164 4.712388980384689674 $79 $165 forward @7 unknown #
coedge $-1 -1 $-1 $80 $166 $167 $168 forward $119 $-1 #
loop $-1 -1 $-1 $-1 $126 $114 #
color-adesk-attrib $-1 -1 $169 $-1 $81 250 #
vertex $-1 -1 $-1 $81 $170 #
straight-curve $-1 -1 $-1 192.0000000000000284 -24.00000000000000355 -64 0 0 1 F 4.000000000000003553 F 5.999999999999996447 #
coedge $-1 -1 $-1 $171 $146 $82 $124 forward $172 $-1 #
edge $173 -1 $-1 $131 0 $128 1.999999999999997335 $82 $174 forward @7 unknown #
coedge $-1 -1 $-1 $166 $83 $100 $151 forward $119 $-1 #
coedge $-1 -1 $-1 $83 $104 $171 $175 reversed $119 $-1 #
color-adesk-attrib $-1 -1 $176 $-1 $84 250 #
vertex $-1 -1 $-1 $84 $177 #
straight-curve $-1 -1 $-1 192.0000000000000284 -24.00000000000000355 -64 1 0 0 F 0 F 6.999999999999992895 #
color-adesk-attrib $-1 -1 $178 $-1 $86 250 #
vertex $-1 -1 $-1 $124 $179 #
straight-curve $-1 -1 $-1 192.0000000000000284 -26 -64 1 0 0 F 0 F 6.999999999999992895 #
coedge $-1 -1 $-1 $139 $180 $87 $134 forward $181 $-1 #
edge $182 -1 $-1 $164 0 $91 1.999999999999997335 $87 $183 forward @2 g2 #
coedge $-1 -1 $-1 $167 $94 $88 $136 reversed $142 $-1 #
edge $184 -1 $-1 $121 0 $58 1.999999999999997335 $88 $185 forward @2 g2 #
DXID-attrib $-1 -1 $-1 $90 $53 @18 ASM_EDGE_FROM_STEP @3 195 #
point $-1 -1 $-1 192.0000000000000284 -26 -62 #
coedge $-1 -1 $-1 $186 $133 $93 $140 forward $181 $-1 #
edge $187 -1 $-1 $91 -1.570796326794896558 $144 0 $93 $188 forward @7 unknown #
coedge $-1 -1 $-1 $94 $167 $186 $189 forward $142 $-1 #
loop $-1 -1 $-1 $-1 $94 $190 #
color-adesk-attrib $-1 -1 $191 $-1 $95 250 #
vertex $-1 -1 $-1 $95 $192 #
ellipse-curve $-1 -1 $-1 192.0000000000000284 -26 -61.00000000000000711 0 -1 -2.200000000000000003e-16 1 0 0 1 F 0 F 1.570796326794896558 #
coedge $-1 -1 $-1 $123 $153 $96 $147 reversed $172 $-1 #
edge $193 -1 $-1 $131 0 $149 5.999999999999996447 $96 $194 forward @7 unknown #
color-adesk-attrib $-1 -1 $195 $-1 $97 250 #
vertex $-1 -1 $-1 $97 $196 #
straight-curve $-1 -1 $-1 192.0000000000000284 -26 -58.00000000000000711 1 0 0 F 0 F 6.999999999999992895 #
edge $197 -1 $-1 $68 0 $164 2.000000000000001776 $100 $198 forward @2 g2 #
DXID-attrib $-1 -1 $-1 $101 $61 @18 ASM_EDGE_FROM_STEP @2 85 #
coedge $-1 -1 $-1 $146 $171 $103 $154 reversed $172 $-1 #
edge $199 -1 $-1 $149 0 $156 1.999999999999997335 $103 $200 forward @7 unknown #
color-adesk-attrib $-1 -1 $201 $-1 $105 250 #
vertex $-1 -1 $-1 $154 $202 #
straight-curve $-1 -1 $-1 192.0000000000000284 -24.00000000000000355 -58.00000000000000711 1 0 0 F 0 F 6.999999999999992895 #
DXID-attrib $-1 -1 $-1 $110 $71 @18 ASM_EDGE_FROM_STEP @3 172 #
DXID-attrib $-1 -1 $-1 $113 $77 @18 ASM_FACE_FROM_STEP @8 12.2-537 #
color-adesk-attrib $-1 -1 $203 $-1 $114 250 #
face $204 -1 $-1 $190 $172 $4 $-1 $205 forward single #
plane-surface $-1 -1 $-1 192.0000000000000284 -24.00000000000000355 -64 0 1 0 0 0 1 forward_v I I I I #
color-adesk-attrib $-1 -1 $206 $-1 $117 250 #
vertex $-1 -1 $-1 $117 $207 #
ellipse-curve $-1 -1 $-1 192.0000000000000284 -24.00000000000000355 -61.00000000000000711 0 -1 0 1 0 0 1 F 1.570796326794896558 F 4.712388980384689674 #
coedge $-1 -1 $-1 $118 $125 $180 $208 forward $119 $-1 #
coedge $-1 -1 $-1 $141 $135 $118 $168 reversed $142 $-1 #
edge $209 -1 $-1 $210 0 $121 1.570796326794896558 $118 $211 forward @7 unknown #
DXID-attrib $-1 -1 $-1 $120 $81 @18 ASM_EDGE_FROM_STEP @3 306 #
point $-1 -1 $-1 192.0000000000000284 -24.00000000000000355 -60 #
coedge $-1 -1 $-1 $153 $123 $126 $175 forward $172 $-1 #
loop $-1 -1 $-1 $-1 $146 $161 #
color-adesk-attrib $-1 -1 $212 $-1 $124 250 #
straight-curve $-1 -1 $-1 199.0000000000000284 -26 -64 0 1 0 F 0 F 1.999999999999997335 #
edge $213 -1 $-1 $128 0 $156 5.999999999999996447 $126 $214 forward @7 unknown #
DXID-attrib $-1 -1 $-1 $127 $84 @18 ASM_EDGE_FROM_STEP @3 277 #
point $-1 -1 $-1 199.0000000000000284 -24.00000000000000355 -64 #
DXID-attrib $-1 -1 $-1 $130 $86 @18 ASM_EDGE_FROM_STEP @3 226 #
point $-1 -1 $-1 199.0000000000000284 -26 -64 #
coedge $-1 -1 $-1 $133 $186 $166 $208 reversed $181 $-1 #
loop $-1 -1 $-1 $-1 $186 $215 #
color-adesk-attrib $-1 -1 $216 $-1 $134 250 #
straight-curve $-1 -1 $-1 192.0000000000000284 -24.00000000000000355 -62 0 -1 2.200000000000000003e-16 F 0 F 1.999999999999997335 #
color-adesk-attrib $-1 -1 $217 $-1 $136 250 #
straight-curve $-1 -1 $-1 192.0000000000000284 -24.00000000000000355 -60 0 -1 2.200000000000000003e-16 F 0 F 1.999999999999997335 #
coedge $-1 -1 $-1 $180 $139 $141 $189 reversed $181 $-1 #
color-adesk-attrib $-1 -1 $218 $-1 $140 250 #
ellipse-curve $-1 -1 $-1 192.0000000000000284 -26 -61.00000000000000711 0 -1 -2.200000000000000003e-16 1 0 0 1 F -1.570796326794896558 F 0 #
edge $219 -1 $-1 $210 5.000000000000001776 $144 6.999999999999999112 $141 $220 forward @2 g2 #
face $221 -1 $-1 $215 $142 $4 $-1 $222 reversed single #
DXID-attrib $-1 -1 $-1 $143 $95 @18 ASM_EDGE_FROM_STEP @3 505 #
point $-1 -1 $-1 193 -26 -61.00000000000000711 #
color-adesk-attrib $-1 -1 $223 $-1 $147 250 #
straight-curve $-1 -1 $-1 199.0000000000000284 -26 -64 0 0 1 F 0 F 5.999999999999996447 #
DXID-attrib $-1 -1 $-1 $148 $97 @18 ASM_EDGE_FROM_STEP @3 379 #
point $-1 -1 $-1 199.0000000000000284 -26 -58.00000000000000711 #
color-adesk-attrib $-1 -1 $224 $-1 $151 250 #
straight-curve $-1 -1 $-1 192.0000000000000284 -24.00000000000000355 -64 0 0 1 F 0 F 2.000000000000001776 #
color-adesk-attrib $-1 -1 $225 $-1 $154 250 #
straight-curve $-1 -1 $-1 199.0000000000000284 -26 -58.00000000000000711 0 1 0 F 0 F 1.999999999999997335 #
DXID-attrib $-1 -1 $-1 $155 $105 @18 ASM_EDGE_FROM_STEP @3 425 #
point $-1 -1 $-1 199.0000000000000284 -24.00000000000000355 -58.00000000000000711 #
DXID-attrib $-1 -1 $-1 $160 $114 @18 ASM_FACE_FROM_STEP @8 12.2-584 #
color-adesk-attrib $-1 -1 $226 $-1 $161 250 #
plane-surface $-1 -1 $-1 199.0000000000000284 -26 -64 1 0 0 0 0 1 forward_v I I I I #
DXID-attrib $-1 -1 $-1 $163 $117 @18 ASM_EDGE_FROM_STEP @3 353 #
point $-1 -1 $-1 192.0000000000000284 -24.00000000000000355 -62 #
edge $227 -1 $-1 $164 -1.570796326794896558 $210 0 $166 $228 forward @7 unknown #
color-adesk-attrib $-1 -1 $229 $-1 $168 250 #
vertex $-1 -1 $-1 $208 $230 #
ellipse-curve $-1 -1 $-1 192.0000000000000284 -24.00000000000000355 -61.00000000000000711 0 -1 -2.200000000000000003e-16 1 0 0 1 F 0 F 1.570796326794896558 #
DXID-attrib $-1 -1 $-1 $173 $124 @18 ASM_EDGE_FROM_STEP @3 249 #
color-adesk-attrib $-1 -1 $231 $-1 $175 250 #
straight-curve $-1 -1 $-1 199.0000000000000284 -24.00000000000000355 -64 0 0 1 F 0 F 5.999999999999996447 #
face $232 -1 $-1 $-1 $181 $4 $-1 $233 reversed single #
DXID-attrib $-1 -1 $-1 $182 $134 @18 ASM_EDGE_FROM_STEP @3 564 #
DXID-attrib $-1 -1 $-1 $184 $136 @18 ASM_EDGE_FROM_STEP @3 542 #
DXID-attrib $-1 -1 $-1 $187 $140 @18 ASM_EDGE_FROM_STEP @3 472 #
color-adesk-attrib $-1 -1 $234 $-1 $189 250 #
straight-curve $-1 -1 $-1 193 -19 -61.00000000000000711 0 -1 0 F 5.000000000000001776 F 6.999999999999999112 #
color-adesk-attrib $-1 -1 $235 $-1 $190 250 #
cone-surface $-1 -1 $-1 192.0000000000000284 -19 -61.00000000000000711 0 -1 0 1 0 0 1 I I 0 1 1 forward I I I I #
DXID-attrib $-1 -1 $-1 $193 $147 @18 ASM_EDGE_FROM_STEP @3 449 #
DXID-attrib $-1 -1 $-1 $197 $151 @18 ASM_EDGE_FROM_STEP @3 330 #
DXID-attrib $-1 -1 $-1 $199 $154 @18 ASM_EDGE_FROM_STEP @3 402 #
DXID-attrib $-1 -1 $-1 $204 $161 @18 ASM_FACE_FROM_STEP @8 12.2-666 #
color-adesk-attrib $-1 -1 $236 $-1 $208 250 #
ellipse-curve $-1 -1 $-1 192.0000000000000284 -24.00000000000000355 -61.00000000000000711 0 -1 -2.200000000000000003e-16 1 0 0 1 F -1.570796326794896558 F 0 #
DXID-attrib $-1 -1 $-1 $209 $168 @18 ASM_EDGE_FROM_STEP @3 639 #
point $-1 -1 $-1 193 -24.00000000000000355 -61.00000000000000711 #
DXID-attrib $-1 -1 $-1 $213 $175 @18 ASM_EDGE_FROM_STEP @3 588 #
color-adesk-attrib $-1 -1 $237 $-1 $215 250 #
cone-surface $-1 -1 $-1 192.0000000000000284 -19 -61.00000000000000711 0 -1 0 1 0 0 1 I I 0 1 1 forward I I I I #
DXID-attrib $-1 -1 $-1 $219 $189 @18 ASM_EDGE_FROM_STEP @3 678 #
DXID-attrib $-1 -1 $-1 $221 $190 @18 ASM_FACE_FROM_STEP @8 12.2-673 #
DXID-attrib $-1 -1 $-1 $227 $208 @18 ASM_EDGE_FROM_STEP @3 611 #
DXID-attrib $-1 -1 $-1 $232 $215 @18 ASM_FACE_FROM_STEP @8 12.2-700 #
