700 294 1 0         
5 ZWCAD 12 ACIS 28.0 NT 24 Mon May 13 10:32:15 2024 
1 9.9999999999999995e-07 1e-10 
body $1 -1 $-1 $2 $-1 $-1 #
DXID-attrib $-1 -1 $-1 $-1 $0 @18 ASM_BODY_FROM_STEP @83 1441666688F68C892A80513FD3C73AFFCAD778BB|:|2622946BA12427F152C169C98E09FB520F88E08F #
lump $-1 -1 $-1 $-1 $3 $0 #
shell $-1 -1 $-1 $-1 $-1 $4 $-1 $2 #
face $5 -1 $-1 $6 $7 $3 $-1 $8 forward single #
truecolor-adesk-attrib $-1 -1 $9 $-1 $4 -1025450021 #
face $10 -1 $-1 $11 $12 $3 $-1 $13 reversed single #
loop $-1 -1 $-1 $-1 $14 $4 #
cone-surface $-1 -1 $-1 31.671598369427038 -19.322878876040736 0 1 0 0 0 7.499650789316255 0.072374293143866411 1 I I 0 1 7.5000000000000009 forward I I I I #
fmesh-eye-attrib $-1 -1 $15 $5 $4 #
truecolor-adesk-attrib $-1 -1 $16 $-1 $6 -1025450021 #
face $17 -1 $-1 $18 $19 $3 $-1 $20 reversed single #
loop $-1 -1 $-1 $-1 $21 $6 #
plane-surface $-1 -1 $-1 41.772582243353561 -27.716334140654823 -11.081512023226891 1 0 0 0 0.99995343857550067 0.0096499057525155207 forward_v I I I I #
coedge $-1 -1 $-1 $22 $23 $24 $25 reversed $7 $-1 #
DXID-attrib $-1 -1 $-1 $9 $4 @18 ASM_FACE_FROM_STEP @22 2- Pump Assembly-17070 #
fmesh-eye-attrib $-1 -1 $26 $10 $6 #
truecolor-adesk-attrib $-1 -1 $27 $-1 $11 -1025450021 #
face $28 -1 $-1 $29 $30 $3 $-1 $31 reversed single #
loop $-1 -1 $-1 $-1 $32 $11 #
spline-surface $-1 -1 $-1 forward { sumsur 
	intcurve forward { exactcur full nubs 2 open 2 
	0 2 0.93925222375681705 2 
	41.772582243353561 -27.748850630253568 -7.7120515933986873 
	41.772582243353561 -18.462909058104866 -7.6224389599122189 
	32.862429597386281 -11.62403774758724 -7.5564414233728261 
	0 
	null_surface 
	null_surface 
	nullbs 
	nullbs 
	I I 
	0 
	0 
	0 
	F 1 F 0 } F 0 F 0.93925222375681705 
	straight 41.772582243353561 -27.748850630253568 -7.7120515933986873 0 -0.09649905752515521 9.9995343857550072 I I 
	41.772582243353561 -27.748850630253568 -7.7120515933986873 
	none F 0 F 0.93925222375681705 F 0 F 1.8309891826379405 OPEN OPEN NON_SINGULAR NON_SINGULAR 
	0 
	0 
	0 
	0 
	0 
	0 
	} F 0 F 0.93064426432335345 F 0.0080296158529784833 F 1.5179798333011509 #
coedge $-1 -1 $-1 $33 $34 $35 $36 reversed $12 $-1 #
coedge $-1 -1 $-1 $37 $14 $38 $39 forward $7 $-1 #
coedge $-1 -1 $-1 $14 $37 $40 $41 reversed $7 $-1 #
coedge $-1 -1 $-1 $42 $43 $14 $25 forward $19 $44 #
edge $45 -1 $-1 $46 -2.4794915738161252 $47 -1.0000000178478352e-06 $14 $48 forward @7 unknown #
DXID-attrib $-1 -1 $-1 $16 $6 @18 ASM_FACE_FROM_STEP @22 2- Pump Assembly-16817 #
fmesh-eye-attrib $-1 -1 $49 $17 $11 #
truecolor-adesk-attrib $-1 -1 $50 $-1 $18 -1025450021 #
face $51 -1 $-1 $52 $53 $3 $-1 $54 forward single #
loop $-1 -1 $-1 $-1 $40 $18 #
cone-surface $-1 -1 $-1 31.671598369427038 -27.133096772752435 -1.7321941016769349 1 0 0 0 0.49997671928774912 0.0048249528762577482 1 I I 0 1 0.49999999999999878 forward I I I I #
coedge $-1 -1 $-1 $55 $56 $57 $58 forward $19 $59 #
coedge $-1 -1 $-1 $57 $21 $60 $61 reversed $12 $-1 #
coedge $-1 -1 $-1 $21 $57 $62 $63 reversed $12 $-1 #
coedge $-1 -1 $-1 $64 $65 $21 $36 forward $66 $-1 #
edge $67 -1 $-1 $68 -0.0028820133494958473 $69 0.0028819569357947795 $21 $70 forward @7 unknown #
coedge $-1 -1 $-1 $23 $22 $71 $72 forward $7 $-1 #
coedge $-1 -1 $-1 $73 $74 $22 $39 reversed $53 $-1 #
edge $75 -1 $-1 $46 0.0013534005029832675 $76 0.0022534005029832692 $22 $77 forward @7 unknown #
coedge $-1 -1 $-1 $78 $79 $23 $41 forward $30 $-1 #
edge $80 -1 $-1 $47 0.010065482847134474 $81 0.010965482847134476 $23 $82 forward @7 unknown #
coedge $-1 -1 $-1 $56 $24 $79 $83 forward $19 $84 #
coedge $-1 -1 $-1 $24 $85 $73 $86 forward $19 $87 #
pcurve $-1 -1 $-1 2 $88 0 0 #
truecolor-adesk-attrib $-1 -1 $89 $-1 $25 -1025450021 #
vertex $-1 -1 $-1 $25 $90 #
vertex $-1 -1 $-1 $25 $91 #
intcurve-curve $-1 -1 $-1 forward { surfintcur full nubs 3 open 10 
	-2.4794926659044521 3 -2.2667332419189599 2 -2.0001012991138052 2 -1.6054169972879766 2 -1.2170759947320313 2 
	-0.88110026573857714 2 -0.59049524255127106 2 -0.30907222865783612 2 -0.15271463571300509 2 0 3 
	33.024998872418884 -11.82322818323042 0.07238429270072351 
	33.024997758356051 -11.816960703645641 -0.5769818315840044 
	33.133906170447858 -11.894701536448151 -1.2066448698661913 
	33.573054590272555 -12.231192243782683 -2.5613994626731547 
	33.943064081146687 -12.524952107784976 -3.2444862329008037 
	34.983089390299753 -13.41357754779969 -4.732920975704463 
	35.76080334585901 -14.126435101308314 -5.5095095688862497 
	37.337876950668175 -15.829798886941248 -6.7172014723718512 
	38.133012576590389 -16.815290848112962 -7.1529590340720901 
	39.439306858892827 -18.823287610820209 -7.5432562379299268 
	39.973194293958237 -19.821312109780756 -7.5552481343044819 
	40.768945620696883 -21.719595488121264 -7.1633729403208397 
	41.044729608634782 -22.58160678574502 -6.8213358965347384 
	41.434908742052144 -24.152204290867218 -5.8113317484304279 
	41.548257567301853 -24.834659137796034 -5.1715239474822692 
	41.658478952875235 -25.691074504631636 -3.9957471030781808 
	41.684371226872251 -25.952945879536568 -3.5444927508873647 
	41.720277487248147 -26.374234657855368 -2.6052078756997017 
	41.730589200908973 -26.534748532970589 -2.1208546790773286 
	41.737081344096829 -26.644960319267973 -1.6239222083423097 
	0.00085718762654736057 
	cone 31.671598369427038 -19.322878876040736 0 1 0 0 0 7.499650789316255 0.072374293143866411 1 I I 0 1 7.5000000000000009 forward I I I I 
	spline forward { ref 0 } I I I I 
	nullbs 
	nubs 3 open 10 
	-2.4794926659044521 3 -2.2667332419189599 3 -2.0001012991138052 3 -1.6054169972879766 3 -1.2170759947320313 3 
	-0.88110026573857714 3 -0.59049524255127106 3 -0.30907222865783612 3 -0.15271463571300509 3 0 3 
	0.93064426410288137 0.76303926760117136 
	0.93064432336474523 0.69809963065514546 
	0.92489306485875311 0.63521127779869491 
	0.91434066571825823 0.57523261441104812 
	0.90111630821916355 0.50006683680960495 
	0.88078850319501745 0.43204481583629739 
	0.85655357793221476 0.37238208072562734 
	0.82067961453338711 0.2840657870946644 
	0.77344993249884275 0.20709844450423318 
	0.7186939802741622 0.14705603016404037 
	0.66481805644220415 0.087978607340571835 
	0.60372582833218225 0.04535587057434589 
	0.5394539986816298 0.025470029439367603 
	0.48384880974081834 0.0082656654190891958 
	0.42595823852008008 0.0080296158529784833 
	0.36866152136148628 0.030023415135947799 
	0.31910224555214928 0.049047136193872132 
	0.27184745503945396 0.084081080777250766 
	0.2289953086400347 0.13615948204640038 
	0.1874971264707801 0.18659240465444968 
	0.15172382055419978 0.25122876820832474 
	0.12326827107761168 0.32734018640431767 
	0.10745847229631289 0.3696274108217536 
	0.094076438903614168 0.41500344834500169 
	0.083278364814791506 0.46272470117072545 
	0.072731873788555057 0.50933410212012487 
	0.064707964533617573 0.55792206094156604 
	0.059286981138994485 0.60771934756175483 
	
	I I 
	0 
	0 
	0 
	} F -2.4794915738161252 F -1.0000000178478352e-06 #
DXID-attrib $-1 -1 $-1 $27 $11 @18 ASM_FACE_FROM_STEP @21 2- Pump Assembly-7977 #
fmesh-eye-attrib $-1 -1 $92 $28 $18 #
truecolor-adesk-attrib $-1 -1 $93 $-1 $29 -1025450021 #
face $94 -1 $-1 $95 $96 $3 $-1 $97 reversed single #
loop $-1 -1 $-1 $-1 $38 $29 #
cone-surface $-1 -1 $-1 31.671598369427038 -19.322878876040736 0 1 0 0 0 7.499650789316255 0.072374293143866411 1 I I 0 1 7.5000000000000009 forward I I I I #
coedge $-1 -1 $-1 $85 $32 $98 $99 reversed $19 $100 #
coedge $-1 -1 $-1 $32 $42 $101 $102 reversed $19 $103 #
coedge $-1 -1 $-1 $34 $33 $32 $58 reversed $12 $-1 #
edge $104 -1 $-1 $105 0.0090822700986010821 $106 0.013009384101556005 $57 $107 forward @7 unknown #
pcurve $-1 -1 $-1 0 forward { exppc nubs 1 open 2 
	0.0090822700986010821 1 0.013009384101556005 1 
	0 0.57126527745902556 
	0 0.9639766777545179 
	2.2648549702353192e-15 
	spline reversed { ref 0 } I I I I 
	} 0 0 #
coedge $-1 -1 $-1 $108 $98 $33 $61 forward $109 $-1 #
edge $110 -1 $-1 $106 0.0066705387301269842 $68 0.0079928887344635196 $33 $111 forward @7 unknown #
coedge $-1 -1 $-1 $101 $112 $34 $63 forward $113 $-1 #
edge $114 -1 $-1 $69 -0.0088975317678817306 $105 -0.0077081954349318997 $34 $115 forward @7 unknown #
coedge $-1 -1 $-1 $116 $35 $112 $117 forward $66 $-1 #
coedge $-1 -1 $-1 $35 $116 $108 $118 reversed $66 $-1 #
loop $-1 -1 $-1 $-1 $65 $119 #
truecolor-adesk-attrib $-1 -1 $120 $-1 $36 -1025450021 #
vertex $-1 -1 $-1 $36 $121 #
vertex $-1 -1 $-1 $36 $122 #
straight-curve $-1 -1 $-1 41.772582243353561 -28.669623431970628 0.10086177917561495 0 -10.790485018862093 -999.94178102180445 F -0.0028820133494958473 F 0.0028819569357947795 #
coedge $-1 -1 $-1 $123 $124 $37 $72 reversed $125 $126 #
edge $127 -1 $-1 $76 -2.4794915738160648 $81 -1.0000000170682585e-06 $37 $128 forward @7 unknown #
coedge $-1 -1 $-1 $129 $38 $43 $86 reversed $53 $-1 #
coedge $-1 -1 $-1 $38 $129 $123 $130 forward $53 $-1 #
truecolor-adesk-attrib $-1 -1 $131 $-1 $39 -1025450021 #
vertex $-1 -1 $-1 $39 $132 #
straight-curve $-1 -1 $-1 31.671598369427038 -11.82322808672448 0.072374293143866411 1000 0 0 F 0.0013534005029832675 F 0.0022534005029832692 #
coedge $-1 -1 $-1 $133 $40 $124 $134 forward $30 $-1 #
coedge $-1 -1 $-1 $40 $133 $42 $83 reversed $30 $-1 #
truecolor-adesk-attrib $-1 -1 $135 $-1 $41 -1025450021 #
vertex $-1 -1 $-1 $72 $136 #
straight-curve $-1 -1 $-1 31.671598369427038 -26.644958154207952 -1.6239319703221231 1000 0 0 F 0.010065482847134474 F 0.010965482847134476 #
edge $137 -1 $-1 $47 1.0000002533195192e-06 $138 0.1575870119060514 $42 $139 forward @7 unknown #
pcurve $-1 -1 $-1 1 $140 0 0 #
coedge $-1 -1 $-1 $43 $55 $141 $142 reversed $19 $143 #
edge $144 -1 $-1 $145 -2.270617413741399 $46 -1.0000001629487742e-06 $43 $146 forward @7 unknown #
pcurve $-1 -1 $-1 1 $147 0 0 #
intcurve-curve $-1 -1 $-1 forward { ref 2 } I I #
DXID-attrib $-1 -1 $-1 $45 $25 @18 ASM_EDGE_FROM_STEP @5 15457 #
point $-1 -1 $-1 33.024998872410308 -11.823228086724699 0.072374293166406353 #
point $-1 -1 $-1 41.737081216561513 -26.644958154207952 -1.6239319703221231 #
DXID-attrib $-1 -1 $-1 $50 $18 @18 ASM_FACE_FROM_STEP @22 2- Pump Assembly-15797 #
fmesh-eye-attrib $-1 -1 $148 $51 $29 #
truecolor-adesk-attrib $-1 -1 $149 $-1 $52 -1025450021 #
face $150 -1 $-1 $119 $109 $3 $-1 $151 reversed single #
loop $-1 -1 $-1 $-1 $152 $52 #
cone-surface $-1 -1 $-1 31.671598369427038 -27.165071650189919 1.5811427807387839 1 0 0 0 0.49997671928774995 0.0048249528762577569 1 I I 0 1 0.49999999999999961 forward I I I I #
coedge $-1 -1 $-1 $60 $153 $55 $99 forward $109 $-1 #
edge $154 -1 $-1 $155 2.1684043449710089e-19 $106 0.00030984328015283455 $55 $156 forward @7 unknown #
pcurve $-1 -1 $-1 -1 $157 0 0 #
coedge $-1 -1 $-1 $158 $62 $56 $102 forward $113 $-1 #
edge $159 -1 $-1 $105 0 $138 0.00024236895238745261 $56 $160 forward @7 unknown #
pcurve $-1 -1 $-1 -1 $161 0 0 #
truecolor-adesk-attrib $-1 -1 $162 $-1 $58 -1025450021 #
vertex $-1 -1 $-1 $58 $163 #
vertex $-1 -1 $-1 $61 $164 #
straight-curve $-1 -1 $-1 41.772582243353561 -27.716334140654823 -11.081512023226891 0 -9.6499057525155205 999.95343857550063 F 0.0090822700986010821 F 0.013009384101556005 #
coedge $-1 -1 $-1 $165 $60 $65 $118 forward $109 $-1 #
loop $-1 -1 $-1 $-1 $166 $95 #
truecolor-adesk-attrib $-1 -1 $167 $-1 $61 -1025450021 #
straight-curve $-1 -1 $-1 41.772582243353561 -23.823197935373155 -3.3968611808066673 0 -602.451420844003 798.15555220961937 F 0.0066705387301269842 F 0.0079928887344635196 #
coedge $-1 -1 $-1 $62 $168 $64 $117 reversed $113 $-1 #
loop $-1 -1 $-1 $-1 $169 $170 #
truecolor-adesk-attrib $-1 -1 $171 $-1 $63 -1025450021 #
straight-curve $-1 -1 $-1 41.772582243353561 -21.992099204286554 3.0637679335899191 0 753.98684891932885 656.88951251843048 F -0.0088975317678817306 F -0.0077081954349318997 #
coedge $-1 -1 $-1 $65 $64 $172 $173 forward $66 $-1 #
edge $174 -1 $-1 $69 0.010100983873926519 $175 0.01100098387392652 $64 $176 forward @7 unknown #
edge $177 -1 $-1 $68 0.010100983873926519 $178 0.01100098387392652 $108 $179 forward @7 unknown #
face $180 -1 $-1 $170 $66 $3 $-1 $181 reversed single #
DXID-attrib $-1 -1 $-1 $67 $36 @18 ASM_EDGE_FROM_STEP @5 21200 #
point $-1 -1 $-1 41.772582243353561 -28.638525110098733 2.982707340799108 #
point $-1 -1 $-1 41.772582243353561 -28.700721145111324 -2.7809273720311589 #
coedge $-1 -1 $-1 $182 $71 $74 $130 reversed $125 $183 #
coedge $-1 -1 $-1 $71 $184 $78 $134 reversed $125 $185 #
loop $-1 -1 $-1 $-1 $186 $187 #
pcurve $-1 -1 $-1 -2 $188 0 0 #
truecolor-adesk-attrib $-1 -1 $189 $-1 $72 -1025450021 #
intcurve-curve $-1 -1 $-1 forward { surfintcur full nubs 3 open 10 
	-2.4794926659043925 3 -2.2667332419189061 2 -2.0001012991137714 2 -1.6054169972879584 2 -1.2170759947320149 2 
	-0.88110026573856415 2 -0.59049524255126018 2 -0.30907222865782819 2 -0.15271463571300045 2 0 3 
	33.92499887241889 -11.823228183230423 0.072384292700827843 
	33.924997758356042 -11.816960703645636 -0.5769818315838916 
	34.033906170447828 -11.894701536448128 -1.2066448698660703 
	34.473054590272525 -12.231192243782658 -2.5613994626730938 
	34.843064081146665 -12.524952107784959 -3.2444862329007607 
	35.88308939029973 -13.413577547799669 -4.732920975704439 
	36.660803345858987 -14.126435101308292 -5.5095095688862221 
	38.237876950668131 -15.829798886941196 -6.7172014723718227 
	39.033012576590352 -16.815290848112912 -7.1529590340720697 
	40.339306858892797 -18.823287610820159 -7.5432562379299224 
	40.873194293958214 -19.82131210978071 -7.5552481343044873 
	41.668945620696874 -21.719595488121229 -7.1633729403208548 
	41.944729608634773 -22.581606785744981 -6.8213358965347561 
	42.334908742052129 -24.152204290867171 -5.8113317484304634 
	42.448257567301845 -24.834659137795992 -5.1715239474823198 
	42.558478952875234 -25.691074504631615 -3.9957471030782217 
	42.58437122687225 -25.95294587953655 -3.5444927508874038 
	42.620277487248146 -26.374234657855368 -2.6052078756997066 
	42.630589200908972 -26.534748532970589 -2.1208546790773166 
	42.637081344096828 -26.644960319267973 -1.623922208342313 
	0.00085718762654571313 
	cone 31.671598369427038 -19.322878876040736 0 1 0 0 0 7.499650789316255 0.072374293143866411 1 I I 0 1 7.5000000000000009 forward I I I I 
	spline forward { sumsur 
	intcurve forward { exactcur full nubs 2 open 2 
	0 2 0.93925222375681705 2 
	42.67258224335356 -27.748850630253568 -7.7120515933986855 
	42.67258224335356 -18.462909058104866 -7.6224389599122171 
	33.762429597386287 -11.62403774758724 -7.5564414233728243 
	0 
	null_surface 
	null_surface 
	nullbs 
	nullbs 
	I I 
	0 
	0 
	0 
	F 1 F 0 } F 0 F 0.93925222375681705 
	straight 42.67258224335356 -27.748850630253568 -7.7120515933986855 0 -0.09649905752515521 9.9995343857550072 I I 
	42.67258224335356 -27.748850630253568 -7.7120515933986855 
	none F 0 F 0.93925222375681705 F 0 F 1.8309891826379405 OPEN OPEN NON_SINGULAR NON_SINGULAR 
	0 
	0 
	0 
	0 
	0 
	0 
	} I I I I 
	nullbs 
	nubs 3 open 10 
	-2.4794926659043925 3 -2.2667332419189061 3 -2.0001012991137714 3 -1.6054169972879584 3 -1.2170759947320149 3 
	-0.88110026573856415 3 -0.59049524255126018 3 -0.30907222865782819 3 -0.15271463571300045 3 0 3 
	0.93064426410288126 0.76303926760118124 
	0.93064432336474578 0.69809963065515623 
	0.92489306485875489 0.63521127779870667 
	0.91434066571825967 0.57523261441105566 
	0.90111630821916533 0.50006683680961073 
	0.88078850319501867 0.4320448158363015 
	0.85655357793221654 0.37238208072563184 
	0.82067961453338845 0.28406578709466646 
	0.77344993249884419 0.2070984445042357 
	0.71869398027416553 0.14705603016404395 
	0.66481805644220748 0.087978607340574402 
	0.60372582833218547 0.0453558705743475 
	0.53945399868163268 0.02547002943936838 
	0.48384880974082134 0.0082656654190893589 
	0.42595823852008274 0.0080296158529778658 
	0.36866152136148872 0.030023415135946668 
	0.31910224555215128 0.049047136193870619 
	0.27184745503945612 0.084081080777248754 
	0.22899530864003689 0.13615948204639758 
	0.18749712647078248 0.18659240465444593 
	0.15172382055420208 0.25122876820831952 
	0.12326827107761319 0.32734018640431345 
	0.10745847229631413 0.36962741082174949 
	0.094076438903615028 0.41500344834499764 
	0.083278364814791853 0.46272470117072334 
	0.072731873788554988 0.5093341021201242 
	0.064707964533617351 0.55792206094156704 
	0.059286981138994416 0.60771934756175428 
	
	I I 
	0 
	0 
	0 
	} F -2.4794915738160648 F -1.0000000170682585e-06 #
coedge $-1 -1 $-1 $74 $73 $190 $191 forward $53 $-1 #
edge $192 -1 $-1 $193 -2.2706174137415593 $76 -1.0000001621514856e-06 $74 $194 forward @7 unknown #
DXID-attrib $-1 -1 $-1 $75 $39 @18 ASM_EDGE_FROM_STEP @4 4149 #
point $-1 -1 $-1 33.924998872410313 -11.823228086724701 0.072374293166503498 #
coedge $-1 -1 $-1 $79 $78 $158 $195 reversed $30 $-1 #
edge $196 -1 $-1 $81 1.0000002533682553e-06 $197 0.15758701190599869 $78 $198 forward @7 unknown #
DXID-attrib $-1 -1 $-1 $80 $41 @18 ASM_EDGE_FROM_STEP @3 832 #
point $-1 -1 $-1 42.637081216561512 -26.644958154207956 -1.6239319703221242 #
truecolor-adesk-attrib $-1 -1 $199 $-1 $83 -1025450021 #
vertex $-1 -1 $-1 $83 $200 #
intcurve-curve $-1 -1 $-1 forward { surfintcur full nubs 3 open 10 
	0 3 0.0099848691312989981 2 0.020302671375378747 2 0.038844961744321074 2 0.058747385851154771 2 
	0.078732959570554151 2 0.098661346720300816 2 0.11869162960449192 2 0.13830483776078145 2 0.15758801190571911 3 
	41.737081089031591 -26.644955989239023 -1.6239417323222087 
	41.737505525901263 -26.652161308230639 -1.5914508955950613 
	41.738125929348811 -26.662591719724738 -1.5597640551398835 
	41.739735490699204 -26.690038927506553 -1.4979251664009428 
	41.740731718797768 -26.707190119203709 -1.4680254094304099 
	41.743902243925383 -26.763353865615343 -1.3899862252876158 
	41.746353872633968 -26.808413657379944 -1.3469740054791097 
	41.751696090601961 -26.915692967042386 -1.277079568112548 
	41.754544998096407 -26.977878229962347 -1.2522964950582014 
	41.759808192704021 -27.10856682000037 -1.2283790698414883 
	41.762164955488394 -27.17579666965473 -1.2295897333682992 
	41.766047158472603 -27.305665700872137 -1.2582436229437592 
	41.767540207820375 -27.367020261145814 -1.2853257903843873 
	41.769761504029304 -27.475848907496683 -1.3620891324935787 
	41.770472117593236 -27.522150279879192 -1.4111099292067413 
	41.771399569015003 -27.592031559231465 -1.5232614946037222 
	41.771625042873531 -27.615389654105826 -1.584994327823958 
	41.771838139875683 -27.636840592085818 -1.7128620913339638 
	41.771830071338258 -27.635152048628257 -1.777713932663203 
	41.771702840479023 -27.6212332259609 -1.8404659957633358 
	2.8612620638193889e-06 
	spline forward { ref 0 } I I I I 
	cone 31.671598369427038 -27.133096772752435 -1.7321941016769349 1 0 0 0 0.49997671928774912 0.0048249528762577482 1 I I 0 1 0.49999999999999878 forward I I I I 
	nubs 3 open 10 
	0 3 0.0099848691312989981 3 0.020302671375378747 3 0.038844961744321074 3 0.058747385851154771 3 
	0.078732959570554151 3 0.098661346720300816 3 0.11869162960449192 3 0.13830483776078145 3 0.15758801190571911 3 
	0.059287194119804591 0.60771739107623413 
	0.05893278774113523 0.61097327653190336 
	0.05841217686132405 0.61415187828776596 
	0.057733412830575821 0.61720600388726721 
	0.057032016252657573 0.62036196552781153 
	0.056165448936671414 0.62336835274567926 
	0.055147934089774454 0.6261775861692902 
	0.053319341595021122 0.63122610528435863 
	0.051027643658748303 0.63557060926856235 
	0.048391759933570928 0.63899146505901694 
	0.045562526071358835 0.64266325108950551 
	0.04239039320179859 0.64520145119405892 
	0.039062222928649588 0.64645769918590701 
	0.035720148014172497 0.64771919561047098 
	0.032287065012162192 0.64766301106610358 
	0.028964674279146344 0.64629108167700267 
	0.025651790209873793 0.644923077916291 
	0.022515186739134645 0.64227419384307072 
	0.01973644639392183 0.63849836783548908 
	0.016943498085657201 0.63470323567125331 
	0.014568283253471962 0.6298460646357199 
	0.012748612741786281 0.62421382703769701 
	0.010966831789020951 0.61869886506564775 
	0.0097523742679837561 0.61254840952189904 
	0.0091724365214489473 0.60611151174902878 
	0.0086022574630032073 0.59978292849440118 
	0.008656109398808582 0.5932964168923659 
	0.0093311162546355457 0.58700807123220489 
	
	nullbs 
	I I 
	0 
	0 
	0 
	} F 1.0000002533195192e-06 F 0.1575870119060514 #
intcurve-curve $-1 -1 $-1 forward { ref 7 } I I #
coedge $-1 -1 $-1 $201 $190 $85 $142 forward $96 $-1 #
edge $202 -1 $-1 $145 -0.15758714033608723 $155 -1.0000004830610068e-06 $85 $203 forward @7 unknown #
pcurve $-1 -1 $-1 -1 $204 0 0 #
truecolor-adesk-attrib $-1 -1 $205 $-1 $86 -1025450021 #
vertex $-1 -1 $-1 $142 $206 #
intcurve-curve $-1 -1 $-1 reversed { surfintcur full nubs 3 open 10 
	0 3 0.19519298792185649 2 0.4399836772841611 2 0.80169608784057278 2 1.1570363428577117 2 
	1.4645170517458881 2 1.7305858503712905 2 1.9882961510960004 2 2.1311099914051876 2 2.2706183294799351 3 
	33.024998872418884 -11.823227990232304 0.072364293631950322 
	33.024997756221936 -11.829505769206905 0.72297730019621287 
	33.134325927997679 -11.919715474621459 1.3521609506320336 
	33.575175714493668 -12.283700267438146 2.7029130892183257 
	33.946752356957404 -12.59192900957348 3.38157180205615 
	34.989532273121178 -13.511934439399415 4.8532833003995677 
	35.768268079789095 -14.241073607364564 5.6155827496112947 
	37.345416429888161 -15.969159248823857 6.7877339061605619 
	38.139566722947649 -16.962726714508818 7.202863574981488 
	39.444110599232431 -18.977403080645971 7.5518432755869052 
	39.977120259687467 -19.975083222665777 7.5434731814030229 
	40.771526678254304 -21.864634081776011 7.1132045089971099 
	41.046761219884168 -22.719488630298482 6.7537247609308926 
	41.436064119471183 -24.269250911225075 5.7120500971219466 
	41.549076597471895 -24.938602639665774 5.0584650260076742 
	41.658825591588673 -25.770200276130694 3.8665979860218775 
	41.684583556821529 -26.022315791870895 3.4113588065386282 
	41.720326443243088 -26.423929466773586 2.4662843546337196 
	41.730604907601332 -26.574578962109616 1.980071274178981 
	41.737081344096829 -26.674936578066792 1.4823115549975805 
	0.00085540671425955251 
	spline forward { ref 0 } I I I I 
	cone 31.671598369427038 -19.322878876040736 0 1 0 0 0 7.499650789316255 0.072374293143866411 1 I I 0 1 7.5000000000000009 forward I I I I 
	nubs 3 open 10 
	0 3 0.19519298792185649 3 0.4399836772841611 3 0.80169608784057278 3 1.1570363428577117 3 
	1.4645170517458881 3 1.7305858503712905 3 1.9882961510960004 3 2.1311099914051876 3 2.2706183294799351 3 
	0.93064426410288137 0.76303726760117119 
	0.93064432347826798 0.82810159690830309 
	0.9248710245027012 0.89110408389870266 
	0.91428122335808304 0.95118146467596376 
	0.90100059914099484 1.0265242503575629 
	0.8805838939767584 1.0946843995408859 
	0.85625048116342006 1.1544396986207681 
	0.82029446735952138 1.2427364934458083 
	0.77297823800087384 1.3196665014172893 
	0.7181343104255361 1.3796333304438073 
	0.66425654830843384 1.4385437457266939 
	0.60318487630727369 1.4810135629461756 
	0.53894381688979087 1.5007638566480688 
	0.4833551628869891 1.5178540518130237 
	0.42549596486688118 1.5179798333011509 
	0.36824197766256006 1.4958916691175697 
	0.31869903349851508 1.47677836822329 
	0.27147143787713862 1.4416569937881183 
	0.22865602975685062 1.3895042547742311 
	0.18718565908830295 1.3389898835878196 
	0.151448449471556 1.2742803377710601 
	0.12303497299808316 1.1981116386143893 
	0.1072892395900653 1.1559016671567901 
	0.093960039072564006 1.1106231579634978 
	0.083202075018859636 1.0630144478252315 
	0.072693109760654046 1.0165076665854538 
	0.064694849339451646 0.96803399776050936 
	0.059286981138994443 0.91835718763608098 
	
	nullbs 
	I I 
	0 
	0 
	0 
	} F -2.270617413741399 F -1.0000001629487742e-06 #
intcurve-curve $-1 -1 $-1 reversed { ref 8 } I I #
DXID-attrib $-1 -1 $-1 $93 $29 @18 ASM_FACE_FROM_STEP @22 2- Pump Assembly-18569 #
fmesh-eye-attrib $-1 -1 $207 $94 $52 #
truecolor-adesk-attrib $-1 -1 $208 $-1 $95 -1025450021 #
plane-surface $-1 -1 $-1 31.671598369427038 -23.823197935373155 -3.3968611808066673 0 -0.7981555522096192 -0.60245142084400294 0 0.60245142084400294 -0.7981555522096192 forward_v I I I I #
coedge $-1 -1 $-1 $190 $201 $182 $209 reversed $96 $-1 #
coedge $-1 -1 $-1 $98 $166 $201 $210 reversed $109 $-1 #
truecolor-adesk-attrib $-1 -1 $211 $-1 $99 -1025450021 #
vertex $-1 -1 $-1 $99 $212 #
intcurve-curve $-1 -1 $-1 forward { parcur summary 2 2.1684043449710089e-19 0.00030984328015283455 4.3705533501633939e-10 OPEN 
	spline forward { ref 0 } I I I I 
	null_surface 
	nubs 3 open 2 
	2.1684043449710089e-19 3 0.00030984328015283455 3 
	0.0093310112447850986 0.93906748564839848 
	0.0062166298317489523 0.94737044901098655 
	0.0031062781861232757 0.95567358027785154 
	0 0.9639766777545179 
	
	nullbs 
	I I 
	0 
	0 
	0 
	surf1 } F 2.1684043449710089e-19 F 0.00030984328015283455 #
intcurve-curve $-1 -1 $-1 forward { ref 9 } I I #
coedge $-1 -1 $-1 $169 $101 $133 $195 forward $113 $-1 #
truecolor-adesk-attrib $-1 -1 $213 $-1 $102 -1025450021 #
intcurve-curve $-1 -1 $-1 forward { parcur summary 2 0 0.00024236895238745261 1.0247876940337942e-09 OPEN 
	spline forward { ref 0 } I I I I 
	null_surface 
	nubs 3 open 2 
	0 3 0.00024236895238745261 3 
	0 0.57126527745902556 
	0.003106286121694351 0.57651323603248228 
	0.00621665378301447 0.58176122950806475 
	0.0093310112447850934 0.58700904954943645 
	
	nullbs 
	I I 
	0 
	0 
	0 
	surf1 } F 0 F 0.00024236895238745261 #
intcurve-curve $-1 -1 $-1 forward { ref 10 } I I #
DXID-attrib $-1 -1 $-1 $104 $58 @18 ASM_EDGE_FROM_STEP @5 17156 #
point $-1 -1 $-1 41.772582243353561 -27.803977191125213 -1.9996648080592869 #
point $-1 -1 $-1 41.772582243353561 -27.841873471133109 1.9272663428734875 #
coedge $-1 -1 $-1 $166 $108 $214 $215 forward $109 $-1 #
coedge $-1 -1 $-1 $153 $165 $216 $217 reversed $109 $-1 #
DXID-attrib $-1 -1 $-1 $110 $61 @18 ASM_EDGE_FROM_STEP @4 5168 #
coedge $-1 -1 $-1 $112 $169 $218 $219 forward $113 $-1 #
coedge $-1 -1 $-1 $168 $158 $184 $220 reversed $113 $-1 #
face $221 -1 $-1 $187 $113 $3 $-1 $222 reversed single #
DXID-attrib $-1 -1 $-1 $114 $63 @18 ASM_EDGE_FROM_STEP @4 1291 #
coedge $-1 -1 $-1 $218 $214 $116 $173 reversed $223 $-1 #
edge $224 -1 $-1 $175 -0.0028819569357947791 $178 0.0028820133494958469 $116 $225 forward @7 unknown #
truecolor-adesk-attrib $-1 -1 $226 $-1 $117 -1025450021 #
vertex $-1 -1 $-1 $117 $227 #
straight-curve $-1 -1 $-1 31.671598369427038 -28.700721145111324 -2.7809273720311589 1000 0 0 F 0.010100983873926519 F 0.01100098387392652 #
truecolor-adesk-attrib $-1 -1 $228 $-1 $118 -1025450021 #
vertex $-1 -1 $-1 $118 $229 #
straight-curve $-1 -1 $-1 31.671598369427038 -28.638525110098733 2.982707340799108 1000 0 0 F 0.010100983873926519 F 0.01100098387392652 #
truecolor-adesk-attrib $-1 -1 $230 $-1 $119 -1025450021 #
plane-surface $-1 -1 $-1 31.671598369427038 -28.669623431970628 0.10086177917561495 0 0.99994178102180409 -0.010790485018862093 0 0.010790485018862095 0.9999417810218042 forward_v I I I I #
coedge $-1 -1 $-1 $216 $123 $152 $209 forward $125 $231 #
pcurve $-1 -1 $-1 -2 $232 0 0 #
coedge $-1 -1 $-1 $124 $186 $169 $220 forward $125 $233 #
pcurve $-1 -1 $-1 -2 $234 0 0 #
coedge $-1 -1 $-1 $184 $216 $235 $236 reversed $125 $237 #
face $238 -1 $-1 $239 $125 $3 $-1 $240 forward single #
intcurve-curve $-1 -1 $-1 forward { ref 4 } I I #
DXID-attrib $-1 -1 $-1 $127 $72 @18 ASM_EDGE_FROM_STEP @4 8925 #
coedge $-1 -1 $-1 $141 $152 $129 $191 reversed $96 $-1 #
edge $241 -1 $-1 $145 0.010065482847134474 $193 0.010965482847134476 $129 $242 forward @7 unknown #
truecolor-adesk-attrib $-1 -1 $243 $-1 $130 -1025450021 #
vertex $-1 -1 $-1 $191 $244 #
intcurve-curve $-1 -1 $-1 forward { surfintcur full nubs 3 open 10 
	-2.270618329480095 3 -2.1311099914053329 2 -1.9882961510961334 2 -1.7305858503713958 2 -1.4645170517459647 2 
	-1.1570363428577508 2 -0.80169608784056412 2 -0.43998367728414611 2 -0.19519298792185444 2 0 3 
	42.637081344096828 -26.674936578066792 1.4823115549975827 
	42.630604907601331 -26.574578962109623 1.9800712741789441 
	42.620326443243094 -26.423929466773597 2.4662843546336912 
	42.584583556821528 -26.022315791870906 3.411358806538606 
	42.558825591588672 -25.770200276130716 3.8665979860218407 
	42.449076597471901 -24.93860263966582 5.0584650260076227 
	42.336064119471189 -24.269250911225125 5.7120500971219066 
	41.946761219884181 -22.719488630298528 6.7537247609308713 
	41.671526678254317 -21.864634081776057 7.113204508997093 
	40.877120259687487 -19.97508322266583 7.5434731814030211 
	40.344110599232458 -18.977403080646013 7.5518432755869007 
	39.039566722947704 -16.962726714508889 7.2028635749815049 
	38.245416429888223 -15.969159248823935 6.787733906160601 
	36.668268079789236 -14.241073607364715 5.6155827496114092 
	35.889532273121283 -13.511934439399512 4.8532833003997133 
	34.846752356957424 -12.591929009573496 3.3815718020561913 
	34.475175714493702 -12.283700267438176 2.7029130892183941 
	34.034325927997699 -11.919715474621478 1.3521609506321228 
	33.924997756221948 -11.829505769206921 0.72297730019631135 
	33.92499887241889 -11.823227990232308 0.072364293632055751 
	0.00085540671425965182 
	cone 31.671598369427038 -19.322878876040736 0 1 0 0 0 7.499650789316255 0.072374293143866411 1 I I 0 1 7.5000000000000009 forward I I I I 
	spline forward { ref 5 } I I I I 
	nullbs 
	nubs 3 open 10 
	-2.270618329480095 3 -2.1311099914053329 3 -1.9882961510961334 3 -1.7305858503713958 3 -1.4645170517459647 3 
	-1.1570363428577508 3 -0.80169608784056412 3 -0.43998367728414611 3 -0.19519298792185444 3 0 3 
	0.05928698113899452 0.91835718763608121 
	0.064694849339451299 0.96803399776050569 
	0.072693109760653449 1.0165076665854509 
	0.083202075018859109 1.0630144478252292 
	0.093960039072563353 1.1106231579634953 
	0.10728923959006416 1.1559016671567863 
	0.12303497299808136 1.1981116386143844 
	0.15144844947155359 1.274280337771055 
	0.18718565908830032 1.3389898835878156 
	0.22865602975684796 1.389504254774228 
	0.2714714378771359 1.4416569937881161 
	0.31869903349851259 1.4767783682232882 
	0.36824197766255701 1.4958916691175685 
	0.42549596486687835 1.5179798333011507 
	0.48335516288698666 1.5178540518130232 
	0.5389438168897871 1.5007638566480694 
	0.60318487630726925 1.4810135629461774 
	0.66425654830842884 1.4385437457266979 
	0.71813431042553211 1.3796333304438115 
	0.77297823800086429 1.3196665014173006 
	0.82029446735951494 1.2427364934458229 
	0.85625048116341784 1.1544396986207739 
	0.88058389397675729 1.0946843995408899 
	0.90100059914099284 1.0265242503575698 
	0.91428122335808126 0.95118146467597309 
	0.92487102450270009 0.89110408389871143 
	0.9306443234782672 0.82810159690831242 
	0.93064426410288126 0.76303726760118118 
	
	I I 
	0 
	0 
	0 
	} F -2.2706174137415593 F -1.0000001621514856e-06 #
edge $245 -1 $-1 $138 0.010100104490844992 $197 0.011000104490844993 $133 $246 forward @7 unknown #
truecolor-adesk-attrib $-1 -1 $247 $-1 $134 -1025450021 #
vertex $-1 -1 $-1 $134 $248 #
intcurve-curve $-1 -1 $-1 reversed { surfintcur full nubs 3 open 10 
	-0.15758801190566685 3 -0.13830483776074023 2 -0.11869162960445849 2 -0.098661346720273782 2 -0.078732959570532446 2 
	-0.058747385851135356 2 -0.038844961744304594 2 -0.02030267137537127 2 -0.0099848691312971818 2 0 3 
	42.671702840479021 -27.6212332259609 -1.8404659957633402 
	42.671830071338256 -27.635152048628257 -1.7777139326631994 
	42.671838139875689 -27.636840592085818 -1.7128620913339514 
	42.671625042873529 -27.615389654105819 -1.5849943278239411 
	42.671399569015009 -27.592031559231458 -1.5232614946037113 
	42.670472117593235 -27.522150279879185 -1.4111099292067346 
	42.669761504029303 -27.47584890749668 -1.3620891324935736 
	42.667540207820373 -27.367020261145807 -1.2853257903843835 
	42.666047158472601 -27.305665700872126 -1.2582436229437584 
	42.662164955488393 -27.175796669654723 -1.2295897333683004 
	42.65980819270402 -27.108566820000359 -1.2283790698414936 
	42.654544998096405 -26.977878229962354 -1.2522964950582045 
	42.651696090601966 -26.9156929670424 -1.2770795681125391 
	42.646353872633966 -26.808413657379944 -1.3469740054791086 
	42.643902243925389 -26.763353865615343 -1.3899862252876147 
	42.640731718797774 -26.707190119203709 -1.468025409430409 
	42.639735490699209 -26.690038927506553 -1.4979251664009421 
	42.63812592934881 -26.66259171972473 -1.5597640551398952 
	42.637505525901261 -26.652161308230639 -1.5914508955950684 
	42.637081089031589 -26.644955989239023 -1.6239417323222098 
	2.8612620642250228e-06 
	cone 31.671598369427038 -27.133096772752435 -1.7321941016769349 1 0 0 0 0.49997671928774912 0.0048249528762577482 1 I I 0 1 0.49999999999999878 forward I I I I 
	spline forward { ref 5 } I I I I 
	nullbs 
	nubs 3 open 10 
	-0.15758801190566685 3 -0.13830483776074023 3 -0.11869162960445849 3 -0.098661346720273782 3 -0.078732959570532446 3 
	-0.058747385851135356 3 -0.038844961744304594 3 -0.02030267137537127 3 -0.0099848691312971818 3 0 3 
	0.0093311162546354919 0.58700807123220455 
	0.0086561093988084155 0.59329641689236645 
	0.0086022574630032021 0.59978292849440229 
	0.0091724365214489682 0.60611151174902955 
	0.0097523742679839071 0.61254840952190071 
	0.010966831789021249 0.61869886506564875 
	0.012748612741786503 0.62421382703769757 
	0.014568283253472246 0.62984606463572046 
	0.016943498085657555 0.63470323567125375 
	0.01973644639392216 0.6384983678354893 
	0.022515186739135096 0.64227419384307094 
	0.025651790209874351 0.64492307791629122 
	0.028964674279146573 0.64629108167700267 
	0.032287065012162594 0.64766301106610358 
	0.035720148014173135 0.64771919561047031 
	0.039062222928649824 0.64645769918590645 
	0.04239039320179832 0.64520145119405847 
	0.045562526071358134 0.64266325108950628 
	0.048391759933570984 0.63899146505901672 
	0.051027643658748172 0.63557060926856235 
	0.053319341595021115 0.63122610528435863 
	0.055147934089774482 0.62617758616929009 
	0.0561654489366714 0.62336835274567926 
	0.057032016252657615 0.62036196552781153 
	0.057733412830575877 0.6172060038872671 
	0.058412176861324362 0.61415187828776474 
	0.058932787741135299 0.61097327653190248 
	0.059287194119804591 0.6077173910762339 
	
	I I 
	0 
	0 
	0 
	} F 1.0000002533682553e-06 F 0.15758701190599869 #
DXID-attrib $-1 -1 $-1 $137 $83 @18 ASM_EDGE_FROM_STEP @5 19268 #
point $-1 -1 $-1 41.771702860272036 -27.621235391296914 -1.840456233031744 #
coedge $-1 -1 $-1 $152 $141 $153 $210 forward $96 $-1 #
truecolor-adesk-attrib $-1 -1 $249 $-1 $142 -1025450021 #
intcurve-curve $-1 -1 $-1 reversed { surfintcur full nubs 3 open 10 
	0 3 0.019283189860379302 2 0.038896414001086191 2 0.058926713209601245 2 0.078855116600628633 2 
	0.098840706607918855 2 0.11874314693487921 2 0.13728545241546108 2 0.14760326306836286 2 0.15758814033715554 3 
	41.771702840479023 -27.655206722051609 1.6799740072369591 
	41.771830071338258 -27.667911905859768 1.6169650130205007 
	41.771838139875683 -27.668348564804887 1.5520926627334402 
	41.771625042873531 -27.644433913048871 1.4246626932730984 
	41.771399569015003 -27.619888791847863 1.3633921430977975 
	41.770472117593236 -27.547856123990488 1.2526100976831753 
	41.769761504029304 -27.500617326753648 1.2044919968217096 
	41.767540207820375 -27.390327499746483 1.129843225786493 
	41.766047158472603 -27.328461709839672 1.1039501784790289 
	41.762164955488394 -27.198063876688998 1.07780795656205 
	41.759808192704021 -27.130823183523475 1.0778949815221692 
	41.754544998096407 -27.000620513412009 1.1043301000383661 
	41.751696090601961 -26.938925118327848 1.1303086654308365 
	41.746353872633968 -26.833014675167576 1.2022604596130051 
	41.743902243925383 -26.788793364482753 1.246134273762689 
	41.740731718797768 -26.734146149499622 1.3252428230304416 
	41.739735490699204 -26.717575184868622 1.3554680107838366 
	41.738125929348811 -26.691326512218421 1.4178250838356736 
	41.737505525901263 -26.68150956487171 1.4497073184932261 
	41.737081089031591 -26.674932625635861 1.482331158906155 
	2.8612620636035992e-06 
	spline forward { ref 0 } I I I I 
	cone 31.671598369427038 -27.165071650189919 1.5811427807387839 1 0 0 0 0.49997671928774995 0.0048249528762577569 1 I I 0 1 0.49999999999999961 forward I I I I 
	nubs 3 open 10 
	0 3 0.019283189860379302 3 0.038896414001086191 3 0.058926713209601245 3 0.078855116600628633 3 
	0.098840706607918855 3 0.11874314693487921 3 0.13728545241546108 3 0.14760326306836286 3 0.15758814033715554 3 
	0.0093311162546356012 0.93906846396563004 
	0.0086561093988085855 0.93278011830546859 
	0.0086022574630032888 0.92629360670343319 
	0.0091724365214490462 0.91996502344880571 
	0.0097523742679839903 0.91352812567593422 
	0.01096683178902127 0.9073776701321864 
	0.012748612741786441 0.90186270816013769 
	0.014568283253471781 0.89623047056211591 
	0.016943498085657194 0.89137329952658162 
	0.019736446393922115 0.88757816736234552 
	0.022515186739135218 0.88380234135476354 
	0.025651790209874653 0.88115345728154326 
	0.028964674279146709 0.87978545352083193 
	0.032287065012162733 0.87841352413173102 
	0.035720148014173218 0.87835733958736417 
	0.039062222928649984 0.87961883601192814 
	0.042390393201798882 0.88087508400377623 
	0.045562526071358966 0.88341328410832953 
	0.048391759933571192 0.88708507013881832 
	0.051027643658748414 0.8905059259292728 
	0.053319341595021365 0.89485042991347652 
	0.055147934089774718 0.89989894902854517 
	0.056165448936671213 0.90270818245215489 
	0.057032016252657698 0.90571456967002295 
	0.057733412830576057 0.90887053131056783 
	0.058412176861324813 0.91192465691007141 
	0.058932787741135501 0.91510325866593334 
	0.059287194119804723 0.91835914412160136 
	
	nullbs 
	I I 
	0 
	0 
	0 
	} F -0.15758714033608723 F -1.0000004830610068e-06 #
intcurve-curve $-1 -1 $-1 reversed { ref 13 } I I #
DXID-attrib $-1 -1 $-1 $144 $86 @18 ASM_EDGE_FROM_STEP @5 16312 #
point $-1 -1 $-1 41.737081216561513 -26.674934601805596 1.4823213569426117 #
DXID-attrib $-1 -1 $-1 $149 $52 @18 ASM_FACE_FROM_STEP @21 2- Pump Assembly-7068 #
fmesh-eye-attrib $-1 -1 $250 $150 $95 #
edge $251 -1 $-1 $193 -0.1575871403360756 $252 -1.0000004828237408e-06 $152 $253 forward @7 unknown #
edge $254 -1 $-1 $155 0.010100104490844992 $252 0.011000104490844993 $201 $255 forward @7 unknown #
DXID-attrib $-1 -1 $-1 $154 $99 @18 ASM_EDGE_FROM_STEP @4 8144 #
point $-1 -1 $-1 41.771702860272036 -27.655208698574242 1.6799642045349574 #
DXID-attrib $-1 -1 $-1 $159 $102 @18 ASM_EDGE_FROM_STEP @4 8243 #
coedge $-1 -1 $-1 $172 $235 $165 $215 reversed $223 $-1 #
edge $256 -1 $-1 $178 -0.0079928887344635196 $257 -0.0066705387301269842 $165 $258 forward @7 unknown #
coedge $-1 -1 $-1 $186 $182 $166 $217 forward $125 $259 #
edge $260 -1 $-1 $252 2.7769223741930576e-18 $257 0.00030984328015283731 $166 $261 forward @7 unknown #
coedge $-1 -1 $-1 $235 $172 $168 $219 reversed $223 $-1 #
edge $262 -1 $-1 $263 0.0077081954349318979 $175 0.0088975317678817306 $168 $264 forward @7 unknown #
edge $265 -1 $-1 $263 2.0456777604032179e-18 $197 0.00024236895238745679 $169 $266 forward @7 unknown #
truecolor-adesk-attrib $-1 -1 $267 $-1 $170 -1025450021 #
plane-surface $-1 -1 $-1 31.671598369427038 -21.992099204286554 3.0637679335899191 0 -0.65688951251843042 0.75398684891932888 0 -0.75398684891932888 -0.65688951251843042 forward_v I I I I #
loop $-1 -1 $-1 $-1 $235 $239 #
truecolor-adesk-attrib $-1 -1 $268 $-1 $173 -1025450021 #
straight-curve $-1 -1 $-1 42.67258224335356 -28.669623431970628 0.10086177917561495 0 10.790485018862094 999.94178102180422 F -0.0028819569357947791 F 0.0028820133494958469 #
DXID-attrib $-1 -1 $-1 $174 $117 @18 ASM_EDGE_FROM_STEP @4 4509 #
point $-1 -1 $-1 42.67258224335356 -28.700721145111324 -2.7809273720311589 #
DXID-attrib $-1 -1 $-1 $177 $118 @18 ASM_EDGE_FROM_STEP @4 1314 #
point $-1 -1 $-1 42.67258224335356 -28.638525110098733 2.982707340799108 #
fmesh-eye-attrib $-1 -1 $269 $180 $119 #
pcurve $-1 -1 $-1 2 $270 0 0 #
intcurve-curve $-1 -1 $-1 forward { ref 11 } I I #
pcurve $-1 -1 $-1 1 $271 0 0 #
intcurve-curve $-1 -1 $-1 reversed { ref 12 } I I #
coedge $-1 -1 $-1 $214 $218 $186 $236 forward $223 $-1 #
edge $272 -1 $-1 $263 0.0090822700986010821 $257 0.013009384101556005 $186 $273 forward @7 unknown #
pcurve $-1 -1 $-1 0 forward { exppc nubs 1 open 2 
	-0.013009384101556005 1 -0.0090822700986010821 1 
	0 0.96397667775451779 
	0 0.57126527745902544 
	1.1324274851176596e-15 
	spline forward { ref 5 } I I I I 
	} 0 0 #
truecolor-adesk-attrib $-1 -1 $274 $-1 $187 -1025450021 #
face $275 -1 $-1 $-1 $223 $3 $-1 $276 forward single #
spline-surface $-1 -1 $-1 forward { ref 5 } F 0 F 0.93064426432335279 F 0.0080296158529778658 F 1.5179798333011507 #
truecolor-adesk-attrib $-1 -1 $277 $-1 $191 -1025450021 #
straight-curve $-1 -1 $-1 31.671598369427038 -26.674934601805592 1.4823213569426112 1000 0 0 F 0.010065482847134474 F 0.010965482847134476 #
DXID-attrib $-1 -1 $-1 $192 $130 @18 ASM_EDGE_FROM_STEP @5 11911 #
point $-1 -1 $-1 42.637081216561512 -26.674934601805596 1.4823213569426117 #
truecolor-adesk-attrib $-1 -1 $278 $-1 $195 -1025450021 #
straight-curve $-1 -1 $-1 31.671598369427038 -27.62123539129691 -1.8404562330317431 1000 0 0 F 0.010100104490844992 F 0.011000104490844993 #
DXID-attrib $-1 -1 $-1 $196 $134 @18 ASM_EDGE_FROM_STEP @5 19051 #
point $-1 -1 $-1 42.671702860272035 -27.62123539129691 -1.8404562330317431 #
DXID-attrib $-1 -1 $-1 $202 $142 @18 ASM_EDGE_FROM_STEP @4 7883 #
DXID-attrib $-1 -1 $-1 $208 $95 @18 ASM_FACE_FROM_STEP @21 2- Pump Assembly-8216 #
truecolor-adesk-attrib $-1 -1 $279 $-1 $209 -1025450021 #
vertex $-1 -1 $-1 $209 $280 #
intcurve-curve $-1 -1 $-1 forward { surfintcur full nubs 3 open 10 
	-0.15758814033714386 3 -0.14760326306836075 2 -0.13728545241546719 2 -0.11874314693488372 2 -0.098840706607925155 2 
	-0.078855116600634892 2 -0.058926713209605838 2 -0.038896414001087808 2 -0.019283189860379257 2 0 3 
	42.637081089031589 -26.674932625635861 1.482331158906155 
	42.637505525901261 -26.68150956487171 1.4497073184932343 
	42.63812592934881 -26.691326512218414 1.4178250838356887 
	42.639735490699209 -26.717575184868629 1.3554680107838182 
	42.640731718797774 -26.734146149499647 1.3252428230304096 
	42.643902243925382 -26.788793364482753 1.2461342737626955 
	42.646353872633966 -26.833014675167561 1.2022604596130124 
	42.651696090601959 -26.938925118327855 1.1303086654308301 
	42.654544998096405 -27.000620513412013 1.104330100038365 
	42.65980819270402 -27.130823183523482 1.077894981522169 
	42.662164955488393 -27.198063876689005 1.0778079565620513 
	42.666047158472601 -27.328461709839679 1.1039501784790309 
	42.667540207820373 -27.390327499746483 1.1298432257864959 
	42.669761504029303 -27.500617326753648 1.2044919968217094 
	42.670472117593235 -27.547856123990485 1.2526100976831744 
	42.671399569015009 -27.61988879184786 1.3633921430977929 
	42.671625042873529 -27.644433913048871 1.4246626932730881 
	42.671838139875689 -27.668348564804887 1.5520926627334402 
	42.671830071338256 -27.667911905859768 1.6169650130205007 
	42.671702840479021 -27.655206722051609 1.6799740072369591 
	2.8612620639138894e-06 
	cone 31.671598369427038 -27.165071650189919 1.5811427807387839 1 0 0 0 0.49997671928774995 0.0048249528762577569 1 I I 0 1 0.49999999999999961 forward I I I I 
	spline forward { ref 5 } I I I I 
	nullbs 
	nubs 3 open 10 
	-0.15758814033714386 3 -0.14760326306836075 3 -0.13728545241546719 3 -0.11874314693488372 3 -0.098840706607925155 3 
	-0.078855116600634892 3 -0.058926713209605838 3 -0.038896414001087808 3 -0.019283189860379257 3 0 3 
	0.059287194119804709 0.91835914412160113 
	0.058932787741135577 0.91510325866593389 
	0.058412176861325167 0.91192465691007285 
	0.057733412830576113 0.90887053131056783 
	0.057032016252657323 0.90571456967002095 
	0.056165448936670012 0.90270818245215168 
	0.055147934089774565 0.89989894902854484 
	0.053319341595021497 0.89485042991347707 
	0.051027643658749108 0.89050592592927336 
	0.048391759933571116 0.88708507013881799 
	0.045562526071358557 0.88341328410832876 
	0.04239039320179859 0.88087508400377601 
	0.03906222292864988 0.87961883601192803 
	0.035720148014172996 0.87835733958736406 
	0.032287065012162573 0.87841352413173102 
	0.028964674279146597 0.87978545352083193 
	0.025651790209874323 0.88115345728154337 
	0.022515186739135089 0.88380234135476377 
	0.019736446393922177 0.8875781673623454 
	0.016943498085657267 0.8913732995265814 
	0.014568283253471875 0.89623047056211547 
	0.012748612741786524 0.90186270816013725 
	0.010966831789021457 0.90737767013218562 
	0.0097523742679841291 0.91352812567593311 
	0.0091724365214491 0.91996502344880537 
	0.0086022574630033079 0.92629360670343308 
	0.008656109398808589 0.93278011830546836 
	0.0093311162546356047 0.93906846396562982 
	
	I I 
	0 
	0 
	0 
	} F -0.1575871403360756 F -1.0000004828237408e-06 #
truecolor-adesk-attrib $-1 -1 $281 $-1 $210 -1025450021 #
straight-curve $-1 -1 $-1 31.671598369427038 -27.655208698574242 1.6799642045349574 1000 0 0 F 0.010100104490844992 F 0.011000104490844993 #
truecolor-adesk-attrib $-1 -1 $282 $-1 $215 -1025450021 #
vertex $-1 -1 $-1 $217 $283 #
straight-curve $-1 -1 $-1 42.67258224335356 -23.823197935373155 -3.3968611808066673 0 602.451420844003 -798.15555220961926 F -0.0079928887344635196 F -0.0066705387301269842 #
pcurve $-1 -1 $-1 1 $284 0 0 #
truecolor-adesk-attrib $-1 -1 $285 $-1 $217 -1025450021 #
intcurve-curve $-1 -1 $-1 forward { parcur summary 2 2.7769223741930576e-18 0.00030984328015283731 4.370552451687266e-10 OPEN 
	spline forward { ref 5 } I I I I 
	null_surface 
	nubs 3 open 2 
	2.7769223741930576e-18 3 0.00030984328015283731 3 
	0.0093310112447850986 0.93906748564839826 
	0.0062166298317489523 0.9473704490109861 
	0.0031062781861232766 0.95567358027785121 
	0 0.96397667775451779 
	
	nullbs 
	I I 
	0 
	0 
	0 
	surf1 } F 2.7769223741930576e-18 F 0.00030984328015283731 #
truecolor-adesk-attrib $-1 -1 $286 $-1 $219 -1025450021 #
vertex $-1 -1 $-1 $220 $287 #
straight-curve $-1 -1 $-1 42.67258224335356 -21.992099204286554 3.0637679335899191 0 -753.98684891932874 -656.88951251843048 F 0.0077081954349318979 F 0.0088975317678817306 #
truecolor-adesk-attrib $-1 -1 $288 $-1 $220 -1025450021 #
intcurve-curve $-1 -1 $-1 forward { parcur summary 2 2.0456777604032179e-18 0.00024236895238745679 1.0247877837868415e-09 OPEN 
	spline forward { ref 5 } I I I I 
	null_surface 
	nubs 3 open 2 
	2.0456777604032179e-18 3 0.00024236895238745679 3 
	0 0.57126527745902544 
	0.0031062861216943523 0.57651323603248195 
	0.0062166537830149766 0.58176122950806342 
	0.0093310112447853207 0.58700904954943645 
	
	nullbs 
	I I 
	0 
	0 
	0 
	surf1 } F 2.0456777604032179e-18 F 0.00024236895238745679 #
fmesh-eye-attrib $-1 -1 $289 $221 $170 #
DXID-attrib $-1 -1 $-1 $224 $173 @18 ASM_EDGE_FROM_STEP @5 18203 #
DXID-attrib $-1 -1 $-1 $230 $119 @18 ASM_FACE_FROM_STEP @22 2- Pump Assembly-11221 #
intcurve-curve $-1 -1 $-1 forward { ref 15 } I I #
intcurve-curve $-1 -1 $-1 forward { ref 17 } I I #
truecolor-adesk-attrib $-1 -1 $290 $-1 $236 -1025450021 #
straight-curve $-1 -1 $-1 42.67258224335356 -27.716334140654823 -11.081512023226891 0 -9.6499057525155205 999.95343857550063 F 0.0090822700986010821 F 0.013009384101556005 #
fmesh-eye-attrib $-1 -1 $291 $238 $187 #
truecolor-adesk-attrib $-1 -1 $292 $-1 $239 -1025450021 #
plane-surface $-1 -1 $-1 42.67258224335356 -19.322878876040736 0 1 0 0 0 0.99995343857550067 0.0096499057525155207 forward_v I I I I #
DXID-attrib $-1 -1 $-1 $241 $191 @18 ASM_EDGE_FROM_STEP @4 3066 #
DXID-attrib $-1 -1 $-1 $245 $195 @18 ASM_EDGE_FROM_STEP @4 6046 #
DXID-attrib $-1 -1 $-1 $251 $209 @18 ASM_EDGE_FROM_STEP @5 15899 #
point $-1 -1 $-1 42.671702860272035 -27.655208698574242 1.6799642045349574 #
DXID-attrib $-1 -1 $-1 $254 $210 @18 ASM_EDGE_FROM_STEP @5 10316 #
DXID-attrib $-1 -1 $-1 $256 $215 @18 ASM_EDGE_FROM_STEP @5 18817 #
point $-1 -1 $-1 42.67258224335356 -27.841873471133109 1.9272663428734875 #
intcurve-curve $-1 -1 $-1 forward { ref 16 } I I #
DXID-attrib $-1 -1 $-1 $260 $217 @18 ASM_EDGE_FROM_STEP @4 9835 #
DXID-attrib $-1 -1 $-1 $262 $219 @18 ASM_EDGE_FROM_STEP @5 12183 #
point $-1 -1 $-1 42.67258224335356 -27.803977191125213 -1.999664808059286 #
DXID-attrib $-1 -1 $-1 $265 $220 @18 ASM_EDGE_FROM_STEP @5 21435 #
DXID-attrib $-1 -1 $-1 $267 $170 @18 ASM_FACE_FROM_STEP @22 2- Pump Assembly-11469 #
DXID-attrib $-1 -1 $-1 $272 $236 @18 ASM_EDGE_FROM_STEP @4 8887 #
DXID-attrib $-1 -1 $-1 $274 $187 @18 ASM_FACE_FROM_STEP @21 2- Pump Assembly-3636 #
fmesh-eye-attrib $-1 -1 $293 $275 $239 #
DXID-attrib $-1 -1 $-1 $292 $239 @18 ASM_FACE_FROM_STEP @22 2- Pump Assembly-13277 #
