700 294 1 0         
5 ZWCAD 12 ACIS 28.0 NT 24 Mon May 13 10:32:23 2024 
1 9.9999999999999995e-07 1e-10 
body $1 -1 $-1 $2 $-1 $-1 #
DXID-attrib $-1 -1 $-1 $-1 $0 @18 ASM_BODY_FROM_STEP @83 12B642AD70C9D508DD546503E336F182BA4A5B55|:|2622946BA12427F152C169C98E09FB520F88E08F #
lump $-1 -1 $-1 $-1 $3 $0 #
shell $-1 -1 $-1 $-1 $-1 $4 $-1 $2 #
face $5 -1 $-1 $6 $7 $3 $-1 $8 forward single #
truecolor-adesk-attrib $-1 -1 $9 $-1 $4 -1025450021 #
face $10 -1 $-1 $11 $12 $3 $-1 $13 reversed single #
loop $-1 -1 $-1 $-1 $14 $4 #
cone-surface $-1 -1 $-1 12.518032927101775 -29.733099451737864 58.998983873926399 0 0 0.99999999999999989 -7.4999805287237935 0.017090019425387667 0 1 I I 0 1 7.5000000000000009 forward I I I I #
fmesh-eye-attrib $-1 -1 $15 $5 $4 #
truecolor-adesk-attrib $-1 -1 $16 $-1 $6 -1025450021 #
face $17 -1 $-1 $18 $19 $3 $-1 $20 reversed single #
loop $-1 -1 $-1 $-1 $21 $6 #
plane-surface $-1 -1 $-1 21.043076221479311 -18.752496698291736 59.100000000000001 0 0 0.99999999999999989 -0.99999740382983915 0.0022786692567183559 0 forward_v I I I I #
coedge $-1 -1 $-1 $22 $23 $24 $25 reversed $7 $-1 #
DXID-attrib $-1 -1 $-1 $9 $4 @18 ASM_FACE_FROM_STEP @21 2- Pump Assembly-3136 #
fmesh-eye-attrib $-1 -1 $26 $10 $6 #
truecolor-adesk-attrib $-1 -1 $27 $-1 $11 -1025450021 #
face $28 -1 $-1 $29 $30 $3 $-1 $31 reversed single #
loop $-1 -1 $-1 $-1 $32 $11 #
spline-surface $-1 -1 $-1 forward { sumsur 
	intcurve forward { exactcur full nubs 2 open 2 
	0 2 0.94240800156393956 2 
	21.035413077388569 -22.115478918429051 59.100000000000001 
	11.71786217620166 -22.094247246521576 59.100000000000001 
	4.8639612171785664 -22.078629432571155 59.011172393763253 
	0 
	null_surface 
	null_surface 
	nullbs 
	nullbs 
	I I 
	0 
	0 
	0 
	F 1 F 0 } F 0 F 0.94240800156393956 
	straight 21.035413077388569 -22.115478918429051 59.100000000000001 -0.022786692567183558 -9.9999740382983919 0 I I 
	21.035413077388569 -22.115478918429051 59.100000000000001 
	none F 0 F 0.94240800156393956 F 0 F 1.8284909033660175 OPEN OPEN NON_SINGULAR NON_SINGULAR 
	0 
	0 
	0 
	0 
	0 
	0 
	} F 0 F 0.93064426410334478 F 0.0074314190999397785 F 1.5139366940585059 #
coedge $-1 -1 $-1 $33 $34 $35 $36 reversed $12 $-1 #
coedge $-1 -1 $-1 $37 $14 $38 $39 forward $7 $-1 #
coedge $-1 -1 $-1 $14 $37 $40 $41 reversed $7 $-1 #
coedge $-1 -1 $-1 $42 $43 $14 $25 forward $19 $44 #
edge $45 -1 $-1 $46 -2.2055091349288882 $47 -1.0000000285906937e-06 $14 $48 forward @7 unknown #
DXID-attrib $-1 -1 $-1 $16 $6 @18 ASM_FACE_FROM_STEP @22 2- Pump Assembly-13769 #
fmesh-eye-attrib $-1 -1 $49 $17 $11 #
truecolor-adesk-attrib $-1 -1 $50 $-1 $18 -1025450021 #
face $51 -1 $-1 $52 $53 $3 $-1 $54 forward single #
loop $-1 -1 $-1 $-1 $40 $18 #
cone-surface $-1 -1 $-1 20.348357534885039 -28.094192335167818 58.998983873926399 0 0 0.99999999999999989 -0.49999870191491835 0.0011393346283591751 0 1 I I 0 1 0.49999999999999878 forward I I I I #
coedge $-1 -1 $-1 $55 $56 $57 $58 forward $19 $59 #
coedge $-1 -1 $-1 $57 $21 $60 $61 reversed $12 $-1 #
coedge $-1 -1 $-1 $21 $57 $62 $63 reversed $12 $-1 #
coedge $-1 -1 $-1 $64 $65 $21 $36 forward $66 $-1 #
edge $67 -1 $-1 $68 -0.0028820133494958473 $69 0.0028819569357947791 $21 $70 forward @7 unknown #
coedge $-1 -1 $-1 $23 $22 $71 $72 forward $7 $-1 #
coedge $-1 -1 $-1 $73 $74 $22 $39 reversed $53 $-1 #
edge $75 -1 $-1 $46 1.4392284670628198e-05 $76 0.0009143922846706282 $22 $77 forward @7 unknown #
coedge $-1 -1 $-1 $78 $79 $23 $41 forward $30 $-1 #
edge $80 -1 $-1 $47 0.000100664573515135 $81 0.0010006645735151352 $23 $82 forward @7 unknown #
tcoedge-coedge $-1 -1 $-1 $56 $24 $79 $83 forward $19 $84 6.5052130349130276e-19 0.001562907761733583 #
tcoedge-coedge $-1 -1 $-1 $24 $85 $73 $86 forward $19 $87 0 0.021895467804082594 #
pcurve $-1 -1 $-1 2 $88 0 0 #
truecolor-adesk-attrib $-1 -1 $89 $-1 $25 -1025450021 #
tvertex-vertex $-1 -1 $-1 $25 $90 3.802513963070026e-12 #
tvertex-vertex $-1 -1 $-1 $25 $91 3.6637359812630166e-15 #
intcurve-curve $-1 -1 $-1 forward { surfintcur full nubs 3 open 10 
	-2.2055101349293205 3 -2.0811017433197065 2 -1.9481274529176029 2 -1.691946969625034 2 -1.3932069077665328 2 
	-1.1031978393674764 2 -0.80526579946949695 2 -0.53342693448438905 2 -0.25499878496417955 2 0 3 
	5.0180523755979465 -29.716019432290331 59.013376158597111 
	5.0189967742018382 -29.301326042519051 59.01337615155218 
	5.0543337298986657 -28.887425139635546 59.013816569663014 
	5.1978413951768161 -28.041572514562333 59.015602075152458 
	5.3105771065759022 -27.612004082569619 59.017003739333092 
	5.7495717485020954 -26.391374569528672 59.022324010334223 
	6.1736811844194044 -25.64306624865803 59.027337407466568 
	7.3453466399271292 -24.211787284578527 59.039879439701132 
	8.1232926064901143 -23.574542615514034 59.047522437494415 
	9.856852349537089 -22.654782517097303 59.062018887993929 
	10.790375862428878 -22.37105677166436 59.068740285350437 
	12.739897445377434 -22.170890516847098 59.080348058946974 
	13.738177535816028 -22.266674886730257 59.085073757987416 
	15.556112453393212 -22.816370949298012 59.091919125770552 
	16.368790520306675 -23.233658395753107 59.094194074301406 
	17.823300657411167 -24.351139803122813 59.097406445589016 
	18.447957487989001 -25.048299304468884 59.098296963369791 
	19.370526860028349 -26.568321474908284 59.099337262316354 
	19.684832354791311 -27.364665566961527 59.099541091744008 
	19.858964295525936 -28.196633817860501 59.099648448704563 
	9.7162769964514766e-06 
	cone 12.518032927101775 -29.733099451737864 58.998983873926399 0 0 0.99999999999999989 -7.4999805287237935 0.017090019425387667 0 1 I I 0 1 7.5000000000000009 forward I I I I 
	spline forward { ref 0 } I I I I 
	nullbs 
	nubs 3 open 10 
	-2.2055101349293205 3 -2.0811017433197065 3 -1.9481274529176029 3 -1.691946969625034 3 -1.3932069077665328 3 
	-1.1031978393674764 3 -0.80526579946949695 3 -0.53342693448438905 3 -0.25499878496417955 3 0 3 
	0.93064426410288137 0.7637019048969732 
	0.93064430194651904 0.72223245838409889 
	0.92828722226744853 0.68083442342800837 
	0.92361589688492896 0.63993362429240253 
	0.91862293644278248 0.5962166798679247 
	0.91100524171657293 0.5532342594519577 
	0.90091749830654533 0.5114912434976896 
	0.88148304241061504 0.43107159268461293 
	0.85308960609628037 0.35614431435781091 
	0.81769034008876806 0.28994587416123146 
	0.77641015050948436 0.21274980572897206 
	0.72642159319698052 0.14884823610634304 
	0.67167382551699717 0.10197792293990063 
	0.61852611910284949 0.056477444120925716 
	0.56192169996613195 0.027892224104737625 
	0.50527144034328808 0.017799684368362656 
	0.44707351052214278 0.0074314190999397785 
	0.38994972255475596 0.016782356205835579 
	0.33682315404612434 0.0453091671428269 
	0.28834946155945756 0.071337572511420061 
	0.24401223581960971 0.11288102636933908 
	0.20538484381994143 0.16792214501077002 
	0.16582113656325992 0.22429744223582088 
	0.13290197815086613 0.29387087274437484 
	0.10769651483547452 0.37310019431436636 
	0.08461205828551803 0.44566247211816884 
	0.068339529332131957 0.5252250547522026 
	0.059286981130333524 0.60838198493898887 
	
	I I 
	0 
	0 
	0 
	} F -2.2055091349288882 F -1.0000000285906937e-06 #
DXID-attrib $-1 -1 $-1 $27 $11 @18 ASM_FACE_FROM_STEP @21 2- Pump Assembly-3988 #
fmesh-eye-attrib $-1 -1 $92 $28 $18 #
truecolor-adesk-attrib $-1 -1 $93 $-1 $29 -1025450021 #
face $94 -1 $-1 $95 $96 $3 $-1 $97 reversed single #
loop $-1 -1 $-1 $-1 $38 $29 #
cone-surface $-1 -1 $-1 12.518032927101775 -29.733099451737864 58.998983873926399 0 0 0.99999999999999989 -7.4999805287237935 0.017090019425387667 0 1 I I 0 1 7.5000000000000009 forward I I I I #
tcoedge-coedge $-1 -1 $-1 $85 $32 $98 $99 reversed $19 $100 -0.030984203236018387 0 #
tcoedge-coedge $-1 -1 $-1 $32 $42 $101 $102 reversed $19 $103 -0.024236735721341274 0 #
coedge $-1 -1 $-1 $34 $33 $32 $58 reversed $12 $-1 #
edge $104 -1 $-1 $105 0.0090822700986010804 $106 0.013009384101556004 $57 $107 forward @7 unknown #
pcurve $-1 -1 $-1 0 forward { exppc nubs 1 open 2 
	0.0090822700986010804 1 0.013009384101556004 1 
	0 0.57192791475670091 
	0 0.96463931505219314 
	2.2648549702353192e-15 
	spline reversed { ref 0 } I I I I 
	} 0 0 #
coedge $-1 -1 $-1 $108 $98 $33 $61 forward $109 $-1 #
edge $110 -1 $-1 $106 0.0066705387301269816 $68 0.0079928887344635196 $33 $111 forward @7 unknown #
coedge $-1 -1 $-1 $101 $112 $34 $63 forward $113 $-1 #
edge $114 -1 $-1 $69 -0.0088975317678817306 $105 -0.0077081954349319005 $34 $115 forward @7 unknown #
coedge $-1 -1 $-1 $116 $35 $112 $117 forward $66 $-1 #
coedge $-1 -1 $-1 $35 $116 $108 $118 reversed $66 $-1 #
loop $-1 -1 $-1 $-1 $65 $119 #
truecolor-adesk-attrib $-1 -1 $120 $-1 $36 -1025450021 #
vertex $-1 -1 $-1 $36 $121 #
vertex $-1 -1 $-1 $36 $122 #
straight-curve $-1 -1 $-1 21.8629093715723 -29.945446172652993 59.100000000000001 22.717466711048608 999.74192505177666 0 F -0.0028820133494958473 F 0.0028819569357947791 #
coedge $-1 -1 $-1 $123 $124 $37 $72 reversed $125 $126 #
edge $127 -1 $-1 $76 -2.2055091349289073 $81 -1.0000000283246068e-06 $37 $128 forward @7 unknown #
tcoedge-coedge $-1 -1 $-1 $129 $38 $43 $86 reversed $53 $130 -0.021895467804082594 0 #
tcoedge-coedge $-1 -1 $-1 $38 $129 $123 $131 forward $53 $132 0 0.021895467804082594 #
truecolor-adesk-attrib $-1 -1 $133 $-1 $39 -1025450021 #
tvertex-vertex $-1 -1 $-1 $39 $134 3.8059834105599564e-12 #
straight-curve $-1 -1 $-1 5.0180523983779786 -29.716009432312475 58.998983873926399 0 0 999.99999999999989 F 1.4392284670628198e-05 F 0.0009143922846706282 #
coedge $-1 -1 $-1 $135 $40 $124 $136 forward $30 $-1 #
tcoedge-coedge $-1 -1 $-1 $40 $135 $42 $83 reversed $30 $137 -0.001562907761733583 -6.5052130349130276e-19 #
truecolor-adesk-attrib $-1 -1 $138 $-1 $41 -1025450021 #
vertex $-1 -1 $-1 $72 $139 #
straight-curve $-1 -1 $-1 19.858962246898585 -28.196624029953451 58.998983873926399 0 0 999.99999999999989 F 0.000100664573515135 F 0.0010006645735151352 #
tedge-edge $140 -1 $-1 $47 6.5052130349130276e-19 $141 0.001562907761733583 $42 $142 forward @7 unknown 0.00058485155530230214 #
pcurve $-1 -1 $-1 0 forward { exppc nubs 3 open 5 
	6.5052130349130276e-19 3 0.00039072694043339624 3 0.00078145388086679182 3 0.0011721808213001875 3 0.001562907761733583 3 
	0.059287087631744922 0.6083810066176395 
	0.05788001285813317 0.62130634460251977 
	0.053776976629100616 0.63282312978423938 
	0.048170901474274698 0.63993754772716016 
	0.04256482631944878 0.64705196567008094 
	0.035460459482321446 0.64964164575686745 
	0.028954211304225343 0.64694939395138129 
	0.022447963126129244 0.64425714214589513 
	0.016552176597604711 0.63638176868473806 
	0.012894941068127969 0.62532409077100559 
	0.0092377055386512266 0.61426641285727313 
	0.0079437099021883242 0.60059702491356681 
	0.0093310112447849095 0.58767168684711224 
	0.00059654816030233003 
	spline reversed { ref 0 } I I I I 
	} 0 0 #
tcoedge-coedge $-1 -1 $-1 $43 $55 $143 $144 reversed $19 $145 -0.0015629077617335962 -1.9394798072244321e-18 #
tedge-edge $146 -1 $-1 $147 0 $46 0.021895467804082594 $43 $148 forward @7 unknown 0.00018665503561991561 #
pcurve $-1 -1 $-1 0 forward { exppc nubs 3 open 23 
	0 3 0.001368466737755166 3 0.0020527001066327484 3 0.0027369334755103308 3 0.0041054002132654959 3 
	0.0047896335821430783 3 0.0054738669510206606 3 0.0068423336887758228 3 0.0082108004265309866 3 0.0095792671642861513 3 
	0.010263500533163732 3 0.010947733902041314 3 0.012316200639796476 3 0.013000434008674054 3 0.013684667377551635 3 
	0.015053134115306796 3 0.016421600853061952 3 0.017105834221939533 3 0.017790067590817114 3 0.019158534328572275 3 
	0.019842767697449856 3 0.020527001066327433 3 0.021895467804082594 3 
	0.059287087631745186 0.91902080317554657 
	0.064215171107703209 0.96428999976625906 
	0.071210867838448044 1.0079726933488762 
	0.080224828608271431 1.0501350072844242 
	0.084731808993183111 1.071216164252198 
	0.08974689412306612 1.0919147347517866 
	0.095285148545672438 1.1122243267221676 
	0.10082340296827876 1.1325339186925487 
	0.10692079653381434 1.1525547499454507 
	0.11346783521669412 1.1718758021029281 
	0.1265619125824537 1.210517906417883 
	0.14140525945242885 1.2463757111082852 
	0.15802279483057494 1.2795214381726601 
	0.16633156251964798 1.2960943017048476 
	0.17508671170289281 1.3119848686213309 
	0.18430930919785882 1.3271760740556124 
	0.19353190669282483 1.342367279489894 
	0.20323568589047258 1.3568602679960773 
	0.21321910939755201 1.3703522298421844 
	0.2331859564117108 1.3973361535343987 
	0.25445078342770538 1.4206706589474614 
	0.27707898036662393 1.4403925463995351 
	0.29970717730554253 1.4601144338516088 
	0.32392811963725515 1.4762727718922131 
	0.34870631118830864 1.4881224319004092 
	0.37348450273936212 1.499972091908605 
	0.39896980061123966 1.5077229022891148 
	0.42521783529490309 1.5113503903193486 
	0.43834185263673475 1.5131641343344655 
	0.45172636255785487 1.5139366940585059 
	0.4651271821006282 1.5136378105485688 
	0.47852800164340159 1.5133389270386313 
	0.49191900385657583 1.5119825245764968 
	0.50530242551616267 1.5095966034083954 
	0.53206926883533634 1.5048247610721925 
	0.55880829873646187 1.4959604441534573 
	0.58550827486646706 1.4829122969825663 
	0.5988582629314696 1.4763882233971208 
	0.61222245304854184 1.4687835891923975 
	0.62529827517189629 1.4602748435671464 
	0.63837409729525074 1.4517660979418954 
	0.65122975213518897 1.4423251180039491 
	0.66386217987981988 1.4319691428531118 
	0.68912703536908149 1.411257192551437 
	0.71350747674529591 1.3869088427234055 
	0.73688318728547508 1.3587819715588987 
	0.76025889782565415 1.3306551003943921 
	0.78200809495529378 1.2994711557608836 
	0.80192612989541057 1.2655735637603529 
	0.81188514736546913 1.2486247677600875 
	0.82139775802034398 1.2309758176629695 
	0.83044239600250014 1.212616492502645 
	0.83948703398465629 1.1942571673423206 
	0.84810156922237123 1.1750916281953905 
	0.85611659724618339 1.1554309317159825 
	0.87214665329380736 1.1161095387571662 
	0.88570591212373795 1.0751175260571335 
	0.89676044779328334 1.0325050011558508 
	0.90228771562805599 1.0111987387052095 
	0.90718536104869529 0.98948476942340879 
	0.91142794361173529 0.96735377382352672 
	0.91567052617477529 0.94522277822364476 
	0.91925972891579799 0.92260582436160654 
	0.92210751029190896 0.90002250194332323 
	0.9278030730441309 0.85485585710675616 
	0.93064426410332179 0.80941402158979181 
	0.93064426410333767 0.76370090489697318 
	0.000190384362839766 
	spline reversed { ref 0 } I I I I 
	} 0 0 #
intcurve-curve $-1 -1 $-1 forward { ref 2 } I I #
DXID-attrib $-1 -1 $-1 $45 $25 @18 ASM_EDGE_FROM_STEP @5 13783 #
point $-1 -1 $-1 5.0180523983779715 -29.716009432316277 59.013376158597026 #
point $-1 -1 $-1 19.858962246898585 -28.196624029953451 59.099648447441531 #
DXID-attrib $-1 -1 $-1 $50 $18 @18 ASM_FACE_FROM_STEP @22 2- Pump Assembly-14934 #
fmesh-eye-attrib $-1 -1 $149 $51 $29 #
truecolor-adesk-attrib $-1 -1 $150 $-1 $52 -1025450021 #
face $151 -1 $-1 $119 $109 $3 $-1 $152 reversed single #
loop $-1 -1 $-1 $-1 $153 $52 #
cone-surface $-1 -1 $-1 20.340807184438859 -31.407674896065281 58.998983873926399 0 0 0.99999999999999989 -0.49999870191491919 0.0011393346283591771 0 1 I I 0 1 0.49999999999999961 forward I I I I #
tcoedge-coedge $-1 -1 $-1 $60 $154 $55 $99 forward $109 $155 0 0.030984203236018387 #
tedge-edge $156 -1 $-1 $157 0 $106 0.030984203236018387 $55 $158 forward @7 unknown 2.1798987563569425e-06 #
pcurve $-1 -1 $-1 0 forward { exppc nubs 3 open 2 
	-0.030984203236018387 3 0 3 
	0 0.96463931505219325 
	0.0031062656753750618 0.95633625101682007 
	0.0062165920840814657 0.9480331869814469 
	0.009331011244784174 0.93973012294607383 
	1.2145690124200945e-10 
	spline reversed { ref 0 } I I I I 
	} 0 0 #
tcoedge-coedge $-1 -1 $-1 $159 $62 $56 $102 forward $113 $160 0 0.024236735721341274 #
tedge-edge $161 -1 $-1 $105 0 $141 0.024236735721341274 $56 $162 forward @7 unknown 2.1798987557576959e-06 #
pcurve $-1 -1 $-1 0 forward { exppc nubs 3 open 2 
	-0.024236735721341274 3 0 3 
	0.0093310112447842 0.58767168684711191 
	0.0062165920840814917 0.58242376281697483 
	0.0031062656753750605 0.57717583878683787 
	0 0.57192791475670079 
	1.2145690124200945e-10 
	spline reversed { ref 0 } I I I I 
	} 0 0 #
truecolor-adesk-attrib $-1 -1 $163 $-1 $58 -1025450021 #
tvertex-vertex $-1 -1 $-1 $58 $164 2.0947646133377081e-15 #
tvertex-vertex $-1 -1 $-1 $61 $165 2.2204460492503131e-15 #
straight-curve $-1 -1 $-1 21.043076221479311 -18.752496698291736 59.100000000000001 -2.2786692567183557 -999.99740382983919 0 F 0.0090822700986010804 F 0.013009384101556004 #
coedge $-1 -1 $-1 $166 $60 $65 $118 forward $109 $-1 #
loop $-1 -1 $-1 $-1 $98 $95 #
truecolor-adesk-attrib $-1 -1 $167 $-1 $61 -1025450021 #
straight-curve $-1 -1 $-1 17.05855107274607 -26.390161748678345 59.100000000000001 592.88780488902148 -805.28507425251451 0 F 0.0066705387301269816 F 0.0079928887344635196 #
coedge $-1 -1 $-1 $62 $168 $64 $117 reversed $113 $-1 #
loop $-1 -1 $-1 $-1 $112 $169 #
truecolor-adesk-attrib $-1 -1 $170 $-1 $63 -1025450021 #
straight-curve $-1 -1 $-1 15.150517366093286 -32.82848905404677 59.100000000000001 -761.76887512751603 -647.84888738575341 0 F -0.0088975317678817306 F -0.0077081954349319005 #
coedge $-1 -1 $-1 $65 $64 $171 $172 forward $66 $-1 #
edge $173 -1 $-1 $69 0.00010101612607360408 $174 0.0010010161260736042 $64 $175 forward @7 unknown #
edge $176 -1 $-1 $68 0.00010101612607360408 $177 0.0010010161260736042 $108 $178 forward @7 unknown #
face $179 -1 $-1 $169 $66 $3 $-1 $180 reversed single #
DXID-attrib $-1 -1 $-1 $67 $36 @18 ASM_EDGE_FROM_STEP @5 12800 #
point $-1 -1 $-1 21.797437329244332 -32.826715746702888 59.100000000000001 #
point $-1 -1 $-1 21.928380132323895 -27.064232997745197 59.100000000000001 #
tcoedge-coedge $-1 -1 $-1 $181 $71 $74 $131 reversed $125 $182 -0.021895467804082594 0 #
coedge $-1 -1 $-1 $71 $183 $78 $136 reversed $125 $184 #
loop $-1 -1 $-1 $-1 $185 $186 #
pcurve $-1 -1 $-1 -2 $187 0 0 #
truecolor-adesk-attrib $-1 -1 $188 $-1 $72 -1025450021 #
intcurve-curve $-1 -1 $-1 forward { surfintcur full nubs 3 open 10 
	-2.2055101349293396 3 -2.081101743319723 2 -1.9481274529176149 2 -1.6919469696250409 2 -1.3932069077665417 2 
	-1.1031978393674864 2 -0.80526579946950161 2 -0.53342693448439071 2 -0.25499878496418038 2 0 3 
	5.0180523755979465 -29.716019432290338 59.91337615859711 
	5.0189967742018382 -29.301326042519051 59.913376151552178 
	5.0543337298986657 -28.887425139635539 59.913816569663013 
	5.1978413951768161 -28.04157251456234 59.915602075152457 
	5.3105771065759022 -27.612004082569626 59.91700373933309 
	5.7495717485020954 -26.391374569528672 59.922324010334222 
	6.1736811844194044 -25.643066248658023 59.927337407466567 
	7.3453466399271328 -24.211787284578524 59.93987943970113 
	8.1232926064901001 -23.574542615514034 59.947522437494413 
	9.8568523495371139 -22.654782517097285 59.962018887993928 
	10.790375862428899 -22.371056771664357 59.968740285350435 
	12.739897445377455 -22.170890516847095 59.980348058946973 
	13.738177535816046 -22.266674886730261 59.985073757987415 
	15.556112453393212 -22.816370949298015 59.991919125770551 
	16.368790520306689 -23.23365839575311 59.994194074301411 
	17.823300657411167 -24.35113980312282 59.997406445589014 
	18.447957487989001 -25.048299304468888 59.998296963369789 
	19.370526860028349 -26.568321474908281 59.999337262316352 
	19.684832354791311 -27.36466556696152 59.999541091744007 
	19.858964295525936 -28.196633817860494 59.999648448704562 
	9.7162769946585095e-06 
	cone 12.518032927101775 -29.733099451737864 58.998983873926399 0 0 0.99999999999999989 -7.4999805287237935 0.017090019425387667 0 1 I I 0 1 7.5000000000000009 forward I I I I 
	spline forward { sumsur 
	intcurve forward { exactcur full nubs 2 open 2 
	0 2 0.94240800156393956 2 
	21.035413077388569 -22.115478918429051 60 
	11.71786217620166 -22.094247246521576 60 
	4.8639612171785664 -22.078629432571155 59.911172393763252 
	0 
	null_surface 
	null_surface 
	nullbs 
	nullbs 
	I I 
	0 
	0 
	0 
	F 1 F 0 } F 0 F 0.94240800156393956 
	straight 21.035413077388569 -22.115478918429051 60 -0.022786692567183558 -9.9999740382983919 0 I I 
	21.035413077388569 -22.115478918429051 60 
	none F 0 F 0.94240800156393956 F 0 F 1.8284909033660175 OPEN OPEN NON_SINGULAR NON_SINGULAR 
	0 
	0 
	0 
	0 
	0 
	0 
	} I I I I 
	nullbs 
	nubs 3 open 10 
	-2.2055101349293396 3 -2.081101743319723 3 -1.9481274529176149 3 -1.6919469696250409 3 -1.3932069077665417 3 
	-1.1031978393674864 3 -0.80526579946950161 3 -0.53342693448439071 3 -0.25499878496418038 3 0 3 
	0.93064426410288137 0.76370190489697354 
	0.93064430194651904 0.72223245838409889 
	0.92828722226744842 0.68083442342800815 
	0.92361589688492896 0.63993362429240286 
	0.91862293644278248 0.59621667986792515 
	0.91100524171657316 0.55323425945195837 
	0.90091749830654533 0.5114912434976896 
	0.88148304241061504 0.43107159268461281 
	0.85308960609628026 0.35614431435781063 
	0.8176903400887674 0.28994587416123035 
	0.77641015050948414 0.21274980572897201 
	0.72642159319698107 0.14884823610634285 
	0.67167382551699661 0.10197792293989963 
	0.61852611910284772 0.056477444120923807 
	0.56192169996613073 0.027892224104737108 
	0.50527144034328741 0.017799684368362434 
	0.44707351052214145 0.0074314190999396398 
	0.38994972255475491 0.016782356205836024 
	0.33682315404612367 0.045309167142827352 
	0.28834946155945756 0.071337572511420352 
	0.24401223581960935 0.1128810263693393 
	0.20538484381994096 0.1679221450107706 
	0.16582113656325961 0.22429744223582138 
	0.13290197815086602 0.29387087274437512 
	0.10769651483547449 0.37310019431436636 
	0.084612058285518071 0.44566247211816862 
	0.068339529332132068 0.52522505475220205 
	0.059286981130333594 0.60838198493898854 
	
	I I 
	0 
	0 
	0 
	} F -2.2055091349289073 F -1.0000000283246068e-06 #
coedge $-1 -1 $-1 $74 $73 $189 $190 forward $53 $-1 #
pcurve $-1 -1 $-1 -1 $148 0 0 #
tedge-edge $191 -1 $-1 $192 0 $76 0.021895467804082594 $74 $193 forward @7 unknown 0.00018665503562053046 #
pcurve $-1 -1 $-1 1 $193 0 0 #
DXID-attrib $-1 -1 $-1 $75 $39 @18 ASM_EDGE_FROM_STEP @4 8445 #
point $-1 -1 $-1 5.0180523983779715 -29.716009432316284 59.913376158597025 #
coedge $-1 -1 $-1 $79 $78 $159 $194 reversed $30 $-1 #
edge $195 -1 $-1 $81 1.0000002501148058e-06 $196 0.15753272815697633 $78 $197 forward @7 unknown #
pcurve $-1 -1 $-1 -1 $142 0 0 #
DXID-attrib $-1 -1 $-1 $80 $41 @18 ASM_EDGE_FROM_STEP @5 21332 #
point $-1 -1 $-1 19.858962246898585 -28.196624029953448 59.99964844744153 #
truecolor-adesk-attrib $-1 -1 $198 $-1 $83 -1025450021 #
tvertex-vertex $-1 -1 $-1 $83 $199 2.1335066633694113e-14 #
intcurve-curve $-1 -1 $-1 forward { parcur summary 5 6.5052130349130276e-19 0.00039072694043339624 0.00078145388086679182 0.0011721808213001875 0.001562907761733583 0.0005873497782494649 OPEN 
	cone 20.348357534885039 -28.094192335167818 58.998983873926399 0 0 0.99999999999999989 -0.49999870191491835 0.0011393346283591751 0 1 I I 0 1 0.49999999999999878 forward I I I I 
	null_surface 
	nubs 3 open 5 
	6.5052130349130276e-19 3 0.00039072694043339624 2 0.00078145388086679182 2 0.0011721808213001875 2 0.001562907761733583 3 
	0.20132914703027049 0.20860280580887472 
	0.20136252095747009 0.47283785937628986 
	0.20146005286146235 0.73309483126837471 
	0.20167612745534574 1.2549417551530262 
	0.2017891903729393 1.5178867121472404 
	0.20193992130363764 2.0395599990629911 
	0.20198012390664538 2.3000994327775346 
	0.20201785785996956 2.8280290341864136 
	0.20202001458968993 3.0859604041636044 
	0.2020148357849163 3.350195459398658 
	
	nullbs 
	I I 
	0 
	3 0.00039072694043339624 0.00078145388086679182 0.0011721808213001875 
	0 
	surf1 } F 6.5052130349130276e-19 F 0.001562907761733583 #
tcoedge-coedge $-1 -1 $-1 $200 $189 $85 $144 forward $96 $201 1.9394798072244321e-18 0.0015629077617335962 #
tedge-edge $202 -1 $-1 $147 1.9394798072244321e-18 $157 0.0015629077617335962 $85 $203 forward @7 unknown 0.00058485155529973214 #
pcurve $-1 -1 $-1 0 forward { exppc nubs 3 open 5 
	-0.0015629077617335962 3 -0.0011721808213001977 3 -0.00078145388086679909 3 -0.00039072694043340052 3 -1.9394798072244321e-18 3 
	0.0093310112447849165 0.93973012294607328 
	0.0079437099021883485 0.9268047848796187 
	0.0092377055386513428 0.91313539693591228 
	0.012894941068128128 0.90207771902217981 
	0.016552176597604915 0.89102004110844735 
	0.022447963126129566 0.88314466764729038 
	0.028954211304225631 0.88045241584180434 
	0.035460459482321696 0.87776016403631829 
	0.042564826319449189 0.88034984412310502 
	0.048170901474275163 0.88746426206602602 
	0.053776976629101136 0.89457868000894702 
	0.057880012858133371 0.90609546519066642 
	0.059287087631745089 0.91902080317554669 
	0.00059654816030276273 
	spline reversed { ref 0 } I I I I 
	} 0 0 #
truecolor-adesk-attrib $-1 -1 $204 $-1 $86 -1025450021 #
tvertex-vertex $-1 -1 $-1 $144 $205 4.7050408237086153e-15 #
intcurve-curve $-1 -1 $-1 forward { parcur summary 23 0 0.001368466737755166 0.0020527001066327484 0.0027369334755103308 0.0041054002132654959 0.0047896335821430783 0.0054738669510206606 0.0068423336887758228 0.0082108004265309866 0.0095792671642861513 0.010263500533163732 0.010947733902041314 0.012316200639796476 0.013000434008674054 0.013684667377551635 0.015053134115306796 0.016421600853061952 0.017105834221939533 0.017790067590817114 0.019158534328572275 0.019842767697449856 0.020527001066327433 0.021895467804082594 0.00017836329569555673 OPEN 
	cone 12.518032927101775 -29.733099451737864 58.998983873926399 0 0 0.99999999999999989 -7.4999805287237935 0.017090019425387667 0 1 I I 0 1 7.5000000000000009 forward I I I I 
	null_surface 
	nubs 3 open 23 
	0 3 0.001368466737755166 2 0.0020527001066327484 2 0.0027369334755103308 2 0.0041054002132654959 2 
	0.0047896335821430783 2 0.0054738669510206606 2 0.0068423336887758228 2 0.0082108004265309866 2 0.0095792671642861513 2 
	0.010263500533163732 2 0.010947733902041314 2 0.012316200639796476 2 0.013000434008674054 2 0.013684667377551635 2 
	0.015053134115306796 2 0.016421600853061952 2 0.017105834221939533 2 0.017790067590817114 2 0.019158534328572275 2 
	0.019842767697449856 2 0.020527001066327433 2 0.021895467804082594 3 
	0.013421943135351312 2.9329898477809242 
	0.013414150633145362 2.871293415547878 
	0.013402276265039498 2.810555475839374 
	0.013373345862140005 2.7193146705326399 
	0.013361815120855674 2.6888812912318372 
	0.013333665867800102 2.6277172142176743 
	0.013316936414539753 2.5968251380642684 
	0.013257496566257444 2.5047032188396221 
	0.013205850344901919 2.4440717512591479 
	0.013100795431054725 2.3527533426561411 
	0.013061147075153729 2.3222537582594436 
	0.01297047589189983 2.2608714845260884 
	0.012919327209344279 2.2299621158598035 
	0.012749007214331511 2.1381784507766293 
	0.012612236487442158 2.077603353802449 
	0.012277793351038511 1.955637947806727 
	0.012077719611089497 1.8937313348339961 
	0.011616828671531019 1.7716953959384381 
	0.011355303471716814 1.7111271191724788 
	0.010908786178061883 1.6194183886333029 
	0.010750016782606859 1.5885485202163439 
	0.010417531951475469 1.5271015850148775 
	0.010244227688975018 1.4965810372385211 
	0.0097031264105500985 1.4052313508361429 
	0.009314095911004551 1.3446203935697048 
	0.0086886727925593581 1.2525960060836927 
	0.00847273987010368 1.22167452978085 
	0.0080366008015930537 1.1604608286934037 
	0.0078153637856746179 1.1300136230766851 
	0.0071443603150297208 1.0387626225634266 
	0.0066871034216756838 0.97805876616344867 
	0.0057682796440119413 0.85482635648898064 
	0.0053189703386795802 0.79390331664711966 
	0.0046799556003214718 0.70267225703616687 
	0.0044725333443698294 0.67225250904880185 
	0.0040718793670651374 0.61113744517707724 
	0.0038777766537508858 0.58029428311980435 
	0.0033287442491701973 0.48807255920305337 
	0.0030090935389409279 0.42741918654174704 
	0.0026124987798032216 0.33612939297351357 
	0.0024941502484336162 0.30564979101247025 
	0.0022878872156129786 0.24432988871146824 
	0.0021999286823194035 0.21339930255005099 
	0.0019898179576058697 0.12153579918590726 
	0.0019189712894175368 0.060950822257598541 
	0.0019189712894170927 5.0700184791215485e-13 
	
	nullbs 
	I I 
	0 
	21 0.001368466737755166 0.0020527001066327484 0.0027369334755103308 0.0041054002132654959 0.0047896335821430783 0.0054738669510206606 0.0068423336887758228 0.0082108004265309866 0.0095792671642861513 0.010263500533163732 0.010947733902041314 0.012316200639796476 0.013000434008674054 0.013684667377551635 0.015053134115306796 0.016421600853061952 0.017105834221939533 0.017790067590817114 0.019158534328572275 0.019842767697449856 0.020527001066327433 
	0 
	surf1 } F 0 F 0.021895467804082594 #
DXID-attrib $-1 -1 $-1 $93 $29 @18 ASM_FACE_FROM_STEP @21 2- Pump Assembly-7889 #
fmesh-eye-attrib $-1 -1 $206 $94 $52 #
truecolor-adesk-attrib $-1 -1 $207 $-1 $95 -1025450021 #
plane-surface $-1 -1 $-1 17.05855107274607 -26.390161748678345 58.998983873926399 0.80528507425251439 0.59288780488902149 0 -0.59288780488902149 0.80528507425251439 0 forward_v I I I I #
coedge $-1 -1 $-1 $189 $200 $181 $208 reversed $96 $-1 #
coedge $-1 -1 $-1 $98 $209 $200 $210 reversed $109 $-1 #
pcurve $-1 -1 $-1 0 forward { exppc nubs 1 open 2 
	0 1 0.030984203236018387 1 
	-6.360696697889173 0.10100741789245782 
	-6.6705387301269852 0.101016126073604 
	0 
	plane 17.05855107274607 -26.390161748678345 58.998983873926399 -0.80528507425251439 -0.59288780488902149 0 -0.59288780488902149 0.80528507425251439 0 reverse_v I I I I 
	} 0 0 #
truecolor-adesk-attrib $-1 -1 $211 $-1 $99 -1025450021 #
tvertex-vertex $-1 -1 $-1 $99 $212 1.7763915335309635e-14 #
straight-curve $-1 -1 $-1 20.829730575522433 -31.512335861335742 59.099991291818853 5.9288780465482489 -8.0528507393449065 0.00028105228589691471 F 0 F 0.030984203236018387 #
coedge $-1 -1 $-1 $213 $101 $135 $194 forward $113 $-1 #
pcurve $-1 -1 $-1 0 forward { exppc nubs 1 open 2 
	0 1 0.024236735721341274 1 
	7.7081954349318984 0.101016126073604 
	7.4658280778749262 0.10100741789245782 
	0 
	plane 15.150517366093286 -32.82848905404677 58.998983873926399 -0.64784888738575341 0.76176887512751623 0 0.76176887512751623 0.64784888738575341 0 reverse_v I I I I 
	} 0 0 #
truecolor-adesk-attrib $-1 -1 $214 $-1 $102 -1025450021 #
straight-curve $-1 -1 $-1 21.022380731824413 -27.834743217774196 59.100000000000001 -7.6176887463578069 -6.4784888696762772 -0.0003592967818067058 F 0 F 0.024236735721341274 #
DXID-attrib $-1 -1 $-1 $104 $58 @18 ASM_EDGE_FROM_STEP @4 7789 #
point $-1 -1 $-1 21.022380731824413 -27.834743217774196 59.100000000000001 #
point $-1 -1 $-1 21.013432137878254 -31.761847025272928 59.100000000000001 #
coedge $-1 -1 $-1 $209 $108 $215 $216 forward $109 $-1 #
DXID-attrib $-1 -1 $-1 $110 $61 @18 ASM_EDGE_FROM_STEP @4 6576 #
coedge $-1 -1 $-1 $112 $213 $217 $218 forward $113 $-1 #
face $219 -1 $-1 $186 $113 $3 $-1 $220 reversed single #
DXID-attrib $-1 -1 $-1 $114 $63 @18 ASM_EDGE_FROM_STEP @4 6376 #
coedge $-1 -1 $-1 $217 $215 $116 $172 reversed $221 $-1 #
edge $222 -1 $-1 $174 -0.0028819569357947791 $177 0.0028820133494958469 $116 $223 forward @7 unknown #
truecolor-adesk-attrib $-1 -1 $224 $-1 $117 -1025450021 #
vertex $-1 -1 $-1 $117 $225 #
straight-curve $-1 -1 $-1 21.928380132323895 -27.064232997745197 58.998983873926399 0 0 999.99999999999989 F 0.00010101612607360408 F 0.0010010161260736042 #
truecolor-adesk-attrib $-1 -1 $226 $-1 $118 -1025450021 #
vertex $-1 -1 $-1 $118 $227 #
straight-curve $-1 -1 $-1 21.797437329244332 -32.826715746702888 58.998983873926399 0 0 999.99999999999989 F 0.00010101612607360408 F 0.0010010161260736042 #
truecolor-adesk-attrib $-1 -1 $228 $-1 $119 -1025450021 #
plane-surface $-1 -1 $-1 21.8629093715723 -29.945446172652993 58.998983873926399 -0.99974192505177673 0.022717466711048611 0 -0.022717466711048614 -0.99974192505177684 0 forward_v I I I I #
coedge $-1 -1 $-1 $229 $123 $153 $208 forward $125 $230 #
pcurve $-1 -1 $-1 0 forward { exppc nubs 3 open 23 
	-0.021895467804082594 3 -0.020527001066327433 3 -0.019842767697449852 3 -0.019158534328572271 3 -0.017790067590817114 3 
	-0.017105834221939533 3 -0.016421600853061949 3 -0.015053134115306788 3 -0.013684667377551626 3 -0.013000434008674046 3 
	-0.012316200639796463 3 -0.010947733902041302 3 -0.010263500533163722 3 -0.0095792671642861392 3 -0.0082108004265309745 3 
	-0.0068423336887758115 3 -0.0054738669510206485 3 -0.004789633582143067 3 -0.0041054002132654855 3 -0.0027369334755103225 3 
	-0.0020527001066327414 3 -0.0013684667377551606 3 0 3 
	0.93064426410333756 0.76370090489697351 
	0.93064426410332168 0.80941402158979214 
	0.9278030730441309 0.85485585710675649 
	0.92210751029190896 0.90002250194332345 
	0.91925972891579799 0.92260582436160687 
	0.91567052617477518 0.94522277822364509 
	0.91142794361173518 0.96735377382352705 
	0.90718536104869518 0.98948476942340902 
	0.90228771562805588 1.0111987387052099 
	0.89676044779328312 1.0325050011558512 
	0.88570591212373795 1.0751175260571335 
	0.87214665329380758 1.116109538757166 
	0.8561165972461835 1.1554309317159821 
	0.84810156922237145 1.1750916281953903 
	0.83948703398465618 1.194257167342321 
	0.83044239600250014 1.2126164925026455 
	0.82139775802034398 1.2309758176629697 
	0.81188514736546913 1.2486247677600872 
	0.80192612989541068 1.2655735637603527 
	0.78200809495529389 1.2994711557608833 
	0.76025889782565415 1.3306551003943921 
	0.73688318728547508 1.3587819715588987 
	0.71350747674529602 1.3869088427234053 
	0.68912703536908149 1.4112571925514372 
	0.66386217987981977 1.4319691428531121 
	0.65122975213518897 1.4423251180039494 
	0.63837409729525108 1.4517660979418952 
	0.62529827517189673 1.4602748435671464 
	0.61222245304854217 1.4687835891923973 
	0.59885826293146982 1.4763882233971208 
	0.58550827486646717 1.4829122969825663 
	0.55880829873646209 1.4959604441534573 
	0.53206926883533645 1.5048247610721925 
	0.50530242551616267 1.5095966034083954 
	0.49191900385657589 1.5119825245764968 
	0.47852800164340159 1.5133389270386315 
	0.46512718210062831 1.5136378105485688 
	0.45172636255785492 1.5139366940585062 
	0.43834185263673475 1.5131641343344655 
	0.42521783529490309 1.5113503903193486 
	0.39896980061123966 1.5077229022891148 
	0.37348450273936218 1.4999720919086048 
	0.34870631118830875 1.4881224319004089 
	0.32392811963725537 1.4762727718922131 
	0.29970717730554258 1.460114433851609 
	0.27707898036662404 1.4403925463995353 
	0.25445078342770544 1.4206706589474616 
	0.23318595641171092 1.3973361535343989 
	0.2132191093975522 1.3703522298421849 
	0.20323568589047283 1.3568602679960777 
	0.19353190669282486 1.3423672794898944 
	0.18430930919785884 1.3271760740556129 
	0.17508671170289283 1.3119848686213313 
	0.16633156251964823 1.2960943017048479 
	0.15802279483057513 1.2795214381726603 
	0.14140525945242896 1.2463757111082852 
	0.12656191258245372 1.2105179064178833 
	0.11346783521669421 1.1718758021029285 
	0.10692079653381445 1.1525547499454512 
	0.10082340296827891 1.1325339186925492 
	0.095285148545672577 1.1122243267221681 
	0.089746894123066245 1.091914734751787 
	0.084731808993183222 1.0712161642521982 
	0.080224828608271556 1.0501350072844244 
	0.071210867838448225 1.0079726933488766 
	0.064215171107703251 0.96428999976625973 
	0.059287087631745179 0.91902080317554691 
	0.00019038436283749498 
	spline forward { ref 9 } I I I I 
	} 0 0 #
coedge $-1 -1 $-1 $124 $185 $213 $231 reversed $125 $232 #
pcurve $-1 -1 $-1 -2 $233 0 0 #
coedge $-1 -1 $-1 $183 $229 $234 $235 reversed $125 $236 #
face $237 -1 $-1 $238 $125 $3 $-1 $239 forward single #
intcurve-curve $-1 -1 $-1 forward { ref 8 } I I #
DXID-attrib $-1 -1 $-1 $127 $72 @18 ASM_EDGE_FROM_STEP @4 5394 #
coedge $-1 -1 $-1 $143 $153 $129 $190 reversed $96 $-1 #
edge $240 -1 $-1 $147 0.00010066457351513486 $192 0.0010006645735151352 $129 $241 forward @7 unknown #
truecolor-adesk-attrib $-1 -1 $242 $-1 $131 -1025450021 #
tvertex-vertex $-1 -1 $-1 $190 $243 3.6758342129348423e-15 #
intcurve-curve $-1 -1 $-1 forward { parcur summary 23 0 0.0013684667377551606 0.0020527001066327414 0.0027369334755103225 0.0041054002132654855 0.004789633582143067 0.0054738669510206485 0.0068423336887758115 0.0082108004265309745 0.0095792671642861392 0.010263500533163722 0.010947733902041302 0.012316200639796463 0.013000434008674046 0.013684667377551626 0.015053134115306788 0.016421600853061949 0.017105834221939533 0.017790067590817114 0.019158534328572271 0.019842767697449852 0.020527001066327433 0.021895467804082594 0.00017836329569698444 OPEN 
	cone 12.518032927101775 -29.733099451737864 58.998983873926399 0 0 0.99999999999999989 -7.4999805287237935 0.017090019425387667 0 1 I I 0 1 7.5000000000000009 forward I I I I 
	null_surface 
	nubs 3 open 23 
	0 3 0.0013684667377551606 2 0.0020527001066327414 2 0.0027369334755103225 2 0.0041054002132654855 2 
	0.004789633582143067 2 0.0054738669510206485 2 0.0068423336887758115 2 0.0082108004265309745 2 0.0095792671642861392 2 
	0.010263500533163722 2 0.010947733902041302 2 0.012316200639796463 2 0.013000434008674046 2 0.013684667377551626 2 
	0.015053134115306788 2 0.016421600853061949 2 0.017105834221939533 2 0.017790067590817114 2 0.019158534328572271 2 
	0.019842767697449852 2 0.020527001066327433 2 0.021895467804082594 3 
	0.13342194313535136 2.9329898477809238 
	0.13341415063314543 2.8712934155478771 
	0.13340227626503945 2.8105554758393736 
	0.13337334586213997 2.7193146705326394 
	0.13336181512085571 2.6888812912318367 
	0.1333336658678001 2.6277172142176739 
	0.13331693641453973 2.596825138064268 
	0.13325749656625743 2.5047032188396221 
	0.13320585034490195 2.4440717512591474 
	0.13310079543105471 2.3527533426561402 
	0.13306114707515376 2.3222537582594431 
	0.13297047589189981 2.260871484526088 
	0.13291932720934427 2.2299621158598026 
	0.13274900721433153 2.1381784507766284 
	0.13261223648744211 2.077603353802449 
	0.13227779335103848 1.955637947806727 
	0.13207771961108947 1.8937313348339957 
	0.13161682867153099 1.7716953959384378 
	0.13135530347171681 1.7111271191724786 
	0.13090878617806187 1.6194183886333027 
	0.13075001678260689 1.5885485202163439 
	0.13041753195147548 1.5271015850148775 
	0.13024422768897503 1.4965810372385209 
	0.12970312641055012 1.4052313508361427 
	0.12931409591100451 1.3446203935697041 
	0.12868867279255938 1.252596006083692 
	0.12847273987010369 1.2216745297808493 
	0.1280366008015931 1.1604608286934031 
	0.1278153637856746 1.1300136230766848 
	0.12714436031502968 1.0387626225634263 
	0.12668710342167563 0.97805876616344833 
	0.12576827964401197 0.85482635648898064 
	0.12531897033867961 0.79390331664711955 
	0.12467995560032151 0.70267225703616698 
	0.12447253334436979 0.67225250904880196 
	0.12407187936706508 0.61113744517707758 
	0.12387777665375088 0.58029428311980424 
	0.1233287442491702 0.48807255920305315 
	0.12300909353894091 0.42741918654174704 
	0.12261249877980321 0.33612939297351424 
	0.1224941502484336 0.30564979101247058 
	0.12228788721561296 0.2443298887114686 
	0.12219992868231942 0.21339930255005152 
	0.12198981795760586 0.12153579918590771 
	0.12191897128941748 0.06095082225759902 
	0.12191897128941707 5.0746444083908194e-13 
	
	nullbs 
	I I 
	0 
	21 0.0013684667377551606 0.0020527001066327414 0.0027369334755103225 0.0041054002132654855 0.004789633582143067 0.0054738669510206485 0.0068423336887758115 0.0082108004265309745 0.0095792671642861392 0.010263500533163722 0.010947733902041302 0.012316200639796463 0.013000434008674046 0.013684667377551626 0.015053134115306788 0.016421600853061949 0.017105834221939533 0.017790067590817114 0.019158534328572271 0.019842767697449852 0.020527001066327433 
	0 
	surf1 } F 0 F 0.021895467804082594 #
edge $244 -1 $-1 $141 0.00010100741789245791 $196 0.0010010074187654259 $135 $245 forward @7 unknown #
truecolor-adesk-attrib $-1 -1 $246 $-1 $136 -1025450021 #
vertex $-1 -1 $-1 $136 $247 #
intcurve-curve $-1 -1 $-1 reversed { surfintcur full nubs 3 open 10 
	-0.15753459872724737 3 -0.13820241413761358 2 -0.11859985287797023 2 -0.098567119651069901 2 -0.07870718499776555 2 
	-0.058825926901105073 2 -0.038808801378078302 2 -0.020304879283369416 2 -0.0099914136079083948 2 0 3 
	20.837748990400002 -27.991742331415033 59.999991291452197 
	20.85095287295718 -28.054815704439999 59.999992554688795 
	20.851839636806517 -28.119850977858796 59.999992632432779 
	20.828720554999478 -28.247557679997314 59.999990507822218 
	20.804589014392405 -28.308953591386473 59.999988269096882 
	20.733304674881708 -28.420190347179769 59.999979068433866 
	20.686375246380095 -28.468629287201473 59.999972017879934 
	20.576742949326501 -28.54388391115625 59.999950022741267 
	20.515263354549631 -28.57013861173035 59.99993527943866 
	20.385584033345467 -28.59718936735662 59.999897003715247 
	20.318661781434741 -28.597690089385491 59.999873801750248 
	20.188077737938571 -28.572483507024401 59.999821683132822 
	20.125752700402742 -28.546850203721583 59.999793282435697 
	20.019036163336779 -28.475442678076043 59.999740234050847 
	19.97456075430803 -28.431950172665623 59.999715993468229 
	19.91937068728194 -28.353329647019848 59.99968462052955 
	19.902573206851102 -28.323229875212697 59.999674753158168 
	19.875844737994697 -28.261048142847812 59.999658802383848 
	19.865782462534469 -28.22921271648601 59.999652652304967 
	19.858960198362581 -28.19661424202728 59.999648446178547 
	2.7383306076805622e-07 
	cone 20.348357534885039 -28.094192335167818 58.998983873926399 0 0 0.99999999999999989 -0.49999870191491835 0.0011393346283591751 0 1 I I 0 1 0.49999999999999878 forward I I I I 
	spline forward { ref 9 } I I I I 
	nullbs 
	nubs 3 open 10 
	-0.15753459872724737 3 -0.13820241413761358 3 -0.11859985287797023 3 -0.098567119651069901 3 -0.07870718499776555 3 
	-0.058825926901105073 3 -0.038808801378078302 3 -0.020304879283369416 3 -0.0099914136079083948 3 0 3 
	0.0093312076823414067 0.58766985682844319 
	0.0086544287687846336 0.59397416902789368 
	0.0086019804476793731 0.60047747742135726 
	0.0091766755844477303 0.60682106978199946 
	0.0097594083103788466 0.61325338255447182 
	0.010975839062706404 0.61939845653393444 
	0.012758793415243115 0.62490794952081818 
	0.014580874133523629 0.63053834657760199 
	0.016958468142987425 0.63539292166879602 
	0.019753742372236979 0.63918448654638116 
	0.02252490509387781 0.64294334610137649 
	0.025651667697272063 0.64558281850887267 
	0.028954211307317269 0.64694939395266071 
	0.032260300830419558 0.64831743667690944 
	0.035677138221738909 0.64838275811760271 
	0.039005676875252582 0.64714155133335483 
	0.042356962579190076 0.64589186221008466 
	0.045551615813437099 0.64334274034933991 
	0.048398958553729332 0.63964475656372555 
	0.051031055164338771 0.6362263234926141 
	0.053319250754602435 0.63188721871768994 
	0.055145476508325908 0.62684700735383536 
	0.056163353503822754 0.62403776255523957 
	0.057030134220625327 0.6210316207791623 
	0.057731705136207366 0.61787632325997577 
	0.058411368540676481 0.6148195542201359 
	0.058932526623591747 0.61163831270874847 
	0.059287194128463991 0.60838002829435722 
	
	I I 
	0 
	0 
	0 
	} F 1.0000002501148058e-06 F 0.15753272815697633 #
DXID-attrib $-1 -1 $-1 $140 $83 @18 ASM_EDGE_FROM_STEP @4 9870 #
point $-1 -1 $-1 20.837752822871508 -27.991760640382189 59.099991291818853 #
coedge $-1 -1 $-1 $153 $143 $154 $210 forward $96 $-1 #
pcurve $-1 -1 $-1 1 $203 0 0 #
truecolor-adesk-attrib $-1 -1 $248 $-1 $144 -1025450021 #
intcurve-curve $-1 -1 $-1 forward { parcur summary 5 1.9394798072244321e-18 0.00039072694043340052 0.00078145388086679909 0.0011721808213001977 0.0015629077617335962 0.00058734977774554237 OPEN 
	cone 20.340807184438859 -31.407674896065281 58.998983873926399 0 0 0.99999999999999989 -0.49999870191491919 0.0011393346283591771 0 1 I I 0 1 0.49999999999999961 forward I I I I 
	null_surface 
	nubs 3 open 5 
	1.9394798072244321e-18 3 0.00039072694043340052 2 0.00078145388086679909 2 0.0011721808213001977 2 0.0015629077617335962 3 
	0.20132914703026988 -0.20860280580886992 
	0.20136252095746948 -0.47283785937628425 
	0.20146005286146257 -0.7330948312683585 
	0.20167612745534541 -1.2549417551530186 
	0.20178919037293924 -1.5178867121472395 
	0.20193992130363758 -2.0395599990629867 
	0.2019801239066456 -2.3000994327775279 
	0.20201785785996923 -2.8280290341864065 
	0.2020200145896896 -3.0859604041636013 
	0.20201483578491597 -3.3501954593986549 
	
	nullbs 
	I I 
	0 
	3 0.00039072694043340052 0.00078145388086679909 0.0011721808213001977 
	0 
	surf1 } F 1.9394798072244321e-18 F 0.0015629077617335962 #
DXID-attrib $-1 -1 $-1 $146 $86 @18 ASM_EDGE_FROM_STEP @3 568 #
point $-1 -1 $-1 19.851883793355285 -31.303013930794815 59.099648447441531 #
DXID-attrib $-1 -1 $-1 $150 $52 @18 ASM_FACE_FROM_STEP @22 2- Pump Assembly-19029 #
fmesh-eye-attrib $-1 -1 $249 $151 $95 #
edge $250 -1 $-1 $192 -0.15753359874289213 $251 -1.8705664322775915e-06 $153 $252 forward @7 unknown #
coedge $-1 -1 $-1 $154 $166 $229 $253 forward $109 $-1 #
edge $254 -1 $-1 $157 0.00010100741789245791 $251 0.0010010074187654231 $200 $255 forward @7 unknown #
DXID-attrib $-1 -1 $-1 $156 $99 @18 ASM_EDGE_FROM_STEP @5 17119 #
point $-1 -1 $-1 20.829730575522433 -31.512335861335742 59.099991291818853 #
coedge $-1 -1 $-1 $168 $159 $183 $231 forward $113 $-1 #
DXID-attrib $-1 -1 $-1 $161 $102 @18 ASM_EDGE_FROM_STEP @5 12008 #
coedge $-1 -1 $-1 $171 $234 $166 $216 reversed $221 $-1 #
edge $256 -1 $-1 $177 -0.0079928887344635196 $257 -0.0066705387301269842 $166 $258 forward @7 unknown #
coedge $-1 -1 $-1 $234 $171 $168 $218 reversed $221 $-1 #
edge $259 -1 $-1 $260 0.0077081954349319049 $174 0.0088975317678817306 $168 $261 forward @7 unknown #
truecolor-adesk-attrib $-1 -1 $262 $-1 $169 -1025450021 #
plane-surface $-1 -1 $-1 15.150517366093286 -32.82848905404677 58.998983873926399 0.64784888738575341 -0.76176887512751623 0 0.76176887512751623 0.64784888738575341 0 forward_v I I I I #
loop $-1 -1 $-1 $-1 $234 $238 #
truecolor-adesk-attrib $-1 -1 $263 $-1 $172 -1025450021 #
straight-curve $-1 -1 $-1 21.8629093715723 -29.945446172652993 60 -22.717466711048612 -999.74192505177666 0 F -0.0028819569357947791 F 0.0028820133494958469 #
DXID-attrib $-1 -1 $-1 $173 $117 @18 ASM_EDGE_FROM_STEP @4 3322 #
point $-1 -1 $-1 21.928380132323895 -27.064232997745197 60 #
DXID-attrib $-1 -1 $-1 $176 $118 @18 ASM_EDGE_FROM_STEP @5 22314 #
point $-1 -1 $-1 21.797437329244332 -32.826715746702888 60 #
fmesh-eye-attrib $-1 -1 $264 $179 $119 #
coedge $-1 -1 $-1 $185 $181 $209 $253 reversed $125 $265 #
pcurve $-1 -1 $-1 2 $266 0 0 #
edge $267 -1 $-1 $196 1.8705325130468492e-06 $260 0.024238593000850663 $213 $268 forward @7 unknown #
pcurve $-1 -1 $-1 -2 $269 0 0 #
intcurve-curve $-1 -1 $-1 reversed { ref 18 } I I #
coedge $-1 -1 $-1 $215 $217 $185 $235 forward $221 $-1 #
edge $270 -1 $-1 $260 0.0090822700986010804 $257 0.013009384101556005 $185 $271 forward @7 unknown #
pcurve $-1 -1 $-1 0 forward { exppc nubs 1 open 2 
	-0.013009384101556005 1 -0.0090822700986010804 1 
	0 0.96463931505219336 
	0 0.57192791475670091 
	1.1324274851176596e-15 
	spline forward { ref 9 } I I I I 
	} 0 0 #
truecolor-adesk-attrib $-1 -1 $272 $-1 $186 -1025450021 #
face $273 -1 $-1 $-1 $221 $3 $-1 $274 forward single #
spline-surface $-1 -1 $-1 forward { ref 9 } F 0 F 0.93064426410334478 F 0.0074314190999396398 F 1.5139366940585062 #
truecolor-adesk-attrib $-1 -1 $275 $-1 $190 -1025450021 #
straight-curve $-1 -1 $-1 19.851883793355285 -31.303013930794819 58.998983873926399 0 0 999.99999999999989 F 0.00010066457351513486 F 0.0010006645735151352 #
DXID-attrib $-1 -1 $-1 $191 $131 @18 ASM_EDGE_FROM_STEP @4 3767 #
point $-1 -1 $-1 19.851883793355285 -31.303013930794819 59.99964844744153 #
truecolor-adesk-attrib $-1 -1 $276 $-1 $194 -1025450021 #
straight-curve $-1 -1 $-1 20.837752822871479 -27.991760640382189 58.998983873926399 0 0 999.99999999999989 F 0.00010100741789245791 F 0.0010010074187654259 #
DXID-attrib $-1 -1 $-1 $195 $136 @18 ASM_EDGE_FROM_STEP @4 2527 #
point $-1 -1 $-1 20.837752822964262 -27.991760640268911 59.999991292691824 #
DXID-attrib $-1 -1 $-1 $202 $144 @18 ASM_EDGE_FROM_STEP @4 7003 #
DXID-attrib $-1 -1 $-1 $207 $95 @18 ASM_FACE_FROM_STEP @21 2- Pump Assembly-8650 #
truecolor-adesk-attrib $-1 -1 $277 $-1 $208 -1025450021 #
vertex $-1 -1 $-1 $208 $278 #
intcurve-curve $-1 -1 $-1 forward { surfintcur full nubs 3 open 10 
	-0.15753459874314218 3 -0.14754318513281997 2 -0.13722971945477755 2 -0.11872579735483427 2 -0.098708671829835448 2 
	-0.078827413731200946 2 -0.058967479075867898 2 -0.038934745846866764 2 -0.019332184585231019 2 0 3 
	19.851881700233776 -31.303023709283494 59.999648446178547 
	19.858852455457139 -31.270456664631055 59.999652652304967 
	19.869059710863851 -31.238667425941664 59.999658802383848 
	19.896071284627695 -31.17660814966937 59.999674753158168 
	19.913005765119323 -31.146585242040295 59.999684620529557 
	19.968553558448235 -31.068217051997493 59.999715993468243 
	20.013226715182256 -31.024927687206635 59.999740234050861 
	20.120267571472553 -30.954007245233548 59.999793282435718 
	20.182708781123736 -30.928658243688417 59.999821683132843 
	20.313406343181256 -30.904047037251264 59.999873801750269 
	20.380325618172591 -30.904852740652871 59.999897003715269 
	20.509880313566299 -30.932494206412695 59.999935279438674 
	20.571239618647397 -30.959028816945782 59.999950022741274 
	20.680527817291249 -31.034782289612682 59.999972017879941 
	20.727236006366667 -31.083434599354845 59.999979068433873 
	20.798012663364133 -31.19499506602304 59.999988269096882 
	20.821864152140321 -31.256500315153012 59.999990507822218 
	20.844400992682495 -31.384311052290261 59.999992632432779 
	20.843217851051392 -31.449341609044971 59.999992554688795 
	20.829726659650788 -31.512354152646942 59.999991291452197 
	2.7383306287949803e-07 
	cone 20.340807184438859 -31.407674896065281 58.998983873926399 0 0 0.99999999999999989 -0.49999870191491919 0.0011393346283591771 0 1 I I 0 1 0.49999999999999961 forward I I I I 
	spline forward { ref 9 } I I I I 
	nullbs 
	nubs 3 open 10 
	-0.15753459874314218 3 -0.14754318513281997 3 -0.13722971945477755 3 -0.11872579735483427 3 -0.098708671829835448 3 
	-0.078827413731200946 3 -0.058967479075867898 3 -0.038934745846866764 3 -0.019332184585231019 3 0 3 
	0.059287194128464095 0.91902178149882896 
	0.058932526623542224 0.91576349708398175 
	0.058411368540531035 0.91258225557216066 
	0.057731705135921962 0.90952548653192589 
	0.057030134220189342 0.90637018901230415 
	0.056163353503188997 0.90336404723584696 
	0.055145476507456034 0.9005548024369493 
	0.05331925075324942 0.89551459107238895 
	0.051031055162359437 0.89117548629707377 
	0.048398958551052661 0.88775705322598364 
	0.045551615810531007 0.88405906944107415 
	0.042356962576130787 0.88150994758111489 
	0.039005676872123786 0.88026025845866407 
	0.035677138218538504 0.87901905167522898 
	0.032260300827232712 0.87908437311675425 
	0.02895421130422577 0.88045241584180411 
	0.025651667694266359 0.8818189912863964 
	0.022524905091037481 0.88445846369465853 
	0.019753742369632916 0.88821732325033664 
	0.016958468140614087 0.89200888812862089 
	0.014580874131451076 0.89686346322042143 
	0.012758793413524766 0.90249386027767786 
	0.01097583906134041 0.90800335326500636 
	0.0097594083094056407 0.91414842724477396 
	0.0091766755838857215 0.92058074001739176 
	0.0086019804477121854 0.92692433237608796 
	0.0086544287690074172 0.93342764076736606 
	0.0093312076823415073 0.93973195296474243 
	
	I I 
	0 
	0 
	0 
	} F -0.15753359874289213 F -1.8705664322775915e-06 #
edge $279 -1 $-1 $257 0 $251 0.030984186619028881 $209 $280 forward @7 unknown #
truecolor-adesk-attrib $-1 -1 $281 $-1 $210 -1025450021 #
straight-curve $-1 -1 $-1 20.829730575522419 -31.512335861335742 58.998983873926399 0 0 999.99999999999989 F 0.00010100741789245791 F 0.0010010074187654231 #
truecolor-adesk-attrib $-1 -1 $282 $-1 $216 -1025450021 #
vertex $-1 -1 $-1 $216 $283 #
straight-curve $-1 -1 $-1 17.05855107274607 -26.390161748678345 60 -592.88780488902148 805.28507425251451 0 F -0.0079928887344635196 F -0.0066705387301269842 #
truecolor-adesk-attrib $-1 -1 $284 $-1 $218 -1025450021 #
vertex $-1 -1 $-1 $231 $285 #
straight-curve $-1 -1 $-1 15.150517366093286 -32.82848905404677 60 761.76887512751603 647.84888738575341 0 F 0.0077081954349319049 F 0.0088975317678817306 #
fmesh-eye-attrib $-1 -1 $286 $219 $169 #
DXID-attrib $-1 -1 $-1 $222 $172 @18 ASM_EDGE_FROM_STEP @4 2014 #
DXID-attrib $-1 -1 $-1 $228 $119 @18 ASM_FACE_FROM_STEP @21 2- Pump Assembly-4660 #
pcurve $-1 -1 $-1 -2 $287 0 0 #
intcurve-curve $-1 -1 $-1 forward { ref 21 } I I #
truecolor-adesk-attrib $-1 -1 $288 $-1 $231 -1025450021 #
intcurve-curve $-1 -1 $-1 reversed { exactcur full nubs 3 open 3 
	-0.024238593000850663 3 -0.012120231804189498 2 0 3 
	21.022380731824413 -27.834743217774196 60 
	20.991609430287539 -27.860912774072666 60 
	20.960838079250124 -27.887082372666768 59.999999276217601 
	20.899290726007465 -27.939425525060749 59.999996375173026 
	20.868514625113221 -27.96559916279103 59.999994197681865 
	20.837738574033693 -27.991772758353939 59.999991290472913 
	0 
	plane 15.150517366093286 -32.82848905404677 58.998983873926399 0.64784888738575341 -0.76176887512751623 0 0.76176887512751623 0.64784888738575341 0 forward_v I I I I 
	spline forward { ref 9 } I I I I 
	nullbs 
	nubs 3 open 3 
	-0.024238593000850663 3 -0.012120231804189498 3 0 3 
	0 0.57192791475670068 
	0.0015531319987214275 0.57455187535436592 
	0.0031072816833640059 0.57717584019286272 
	0.0046624480549822336 0.5797998008019063 
	0.0062178544843009493 0.5824241664492541 
	0.0077742829029517502 0.58504853628265563 
	0.0093317323198117749 0.58767290188797938 
	
	I I 
	0 
	0 
	1 -0.012120231804189498 
	F 1 F 0 } F 1.8705325130468492e-06 F 0.024238593000850663 #
intcurve-curve $-1 -1 $-1 reversed { ref 22 } I I #
truecolor-adesk-attrib $-1 -1 $289 $-1 $235 -1025450021 #
straight-curve $-1 -1 $-1 21.043076221479311 -18.752496698291736 60 -2.2786692567183557 -999.99740382983919 0 F 0.0090822700986010804 F 0.013009384101556005 #
fmesh-eye-attrib $-1 -1 $290 $237 $186 #
truecolor-adesk-attrib $-1 -1 $291 $-1 $238 -1025450021 #
plane-surface $-1 -1 $-1 12.518032927101775 -29.733099451737864 60 0 0 0.99999999999999989 -0.99999740382983915 0.0022786692567183559 0 forward_v I I I I #
DXID-attrib $-1 -1 $-1 $240 $190 @18 ASM_EDGE_FROM_STEP @5 10227 #
DXID-attrib $-1 -1 $-1 $244 $194 @18 ASM_EDGE_FROM_STEP @5 13037 #
DXID-attrib $-1 -1 $-1 $250 $208 @18 ASM_EDGE_FROM_STEP @4 1275 #
point $-1 -1 $-1 20.829730575586822 -31.51233586148274 59.999991292691817 #
truecolor-adesk-attrib $-1 -1 $292 $-1 $253 -1025450021 #
intcurve-curve $-1 -1 $-1 reversed { surfintcur full nubs 3 open 3 
	-0.030986057141929854 3 -0.015492093221810522 2 0 3 
	20.829719485513266 -31.512320798420355 59.999991290766019 
	20.860340092557067 -31.55391099071911 59.999994197828222 
	20.890960749188665 -31.595501250055683 59.999996375221777 
	20.952198267628347 -31.678676615069254 59.999999276217601 
	20.982815227400195 -31.720261853804754 60 
	21.013432137878254 -31.761847025272928 60 
	1.0252509329593743e-10 
	plane 17.05855107274607 -26.390161748678345 58.998983873926399 0.80528507425251439 0.59288780488902149 0 -0.59288780488902149 0.80528507425251439 0 forward_v I I I I 
	spline forward { ref 9 } I I I I 
	nullbs 
	nubs 3 open 3 
	-0.030986057141929854 3 -0.015492093221810522 3 0 3 
	0.0093315752945311806 0.93972861918549189 
	0.007774178292146168 0.9438806501942566 
	0.0062178022179207645 0.94803268789548611 
	0.0046624480549821668 0.95218471899913348 
	0.0031072816811992176 0.95633624879804024 
	0.0015531319965552634 0.96048778528285783 
	5.6145673723398785e-17 0.96463931505219302 
	
	I I 
	0 
	0 
	0 
	} F 0 F 0.030984186619028881 #
DXID-attrib $-1 -1 $-1 $254 $210 @18 ASM_EDGE_FROM_STEP @5 15008 #
DXID-attrib $-1 -1 $-1 $256 $216 @18 ASM_EDGE_FROM_STEP @4 9707 #
point $-1 -1 $-1 21.013432137878254 -31.761847025272928 60 #
DXID-attrib $-1 -1 $-1 $259 $218 @18 ASM_EDGE_FROM_STEP @4 7126 #
point $-1 -1 $-1 21.022380731824413 -27.834743217774196 60 #
DXID-attrib $-1 -1 $-1 $262 $169 @18 ASM_FACE_FROM_STEP @22 2- Pump Assembly-18682 #
intcurve-curve $-1 -1 $-1 reversed { ref 23 } I I #
DXID-attrib $-1 -1 $-1 $267 $231 @18 ASM_EDGE_FROM_STEP @5 20833 #
DXID-attrib $-1 -1 $-1 $270 $235 @18 ASM_EDGE_FROM_STEP @4 9793 #
DXID-attrib $-1 -1 $-1 $272 $186 @18 ASM_FACE_FROM_STEP @22 2- Pump Assembly-22254 #
fmesh-eye-attrib $-1 -1 $293 $273 $238 #
DXID-attrib $-1 -1 $-1 $279 $253 @18 ASM_EDGE_FROM_STEP @5 20250 #
DXID-attrib $-1 -1 $-1 $291 $238 @18 ASM_FACE_FROM_STEP @22 2- Pump Assembly-19262 #
