700 312 1 0         
5 ZWCAD 12 ACIS 28.0 NT 24 Sat May 11 14:53:09 2024 
1 9.9999999999999995e-07 1e-10 
body $1 -1 $-1 $2 $-1 $-1 #
DXID-attrib $-1 -1 $-1 $-1 $0 @18 ASM_BODY_FROM_STEP @83 B80023528D6B28E3AB618262C99E98D198253438|:|45B59F7C27945B71C09AD870330A45E88B49A8E2 #
lump $-1 -1 $-1 $-1 $3 $0 #
shell $-1 -1 $-1 $-1 $-1 $4 $-1 $2 #
face $5 -1 $-1 $6 $7 $3 $-1 $8 forward single #
truecolor-adesk-attrib $-1 -1 $9 $-1 $4 -1056964608 #
face $10 -1 $-1 $11 $12 $3 $-1 $13 forward single #
loop $-1 -1 $-1 $-1 $14 $4 #
cone-surface $-1 -1 $-1 0 6.7468749999999984 4.365624999999997 0 -1 0 0 0 -1.0255250000000011 1 I I 0.70710678118654757 0.70710678118654757 1.0255250000000011 forward I I I I #
DXID-attrib $-1 -1 $-1 $5 $4 @18 ASM_FACE_FROM_STEP @56 6789K430_FINISHED-BORE SPROCKET FOR MINIATURE CHAIN-2465 #
truecolor-adesk-attrib $-1 -1 $15 $-1 $6 -1056964608 #
face $16 -1 $-1 $17 $18 $3 $-1 $19 forward single #
loop $-1 -1 $-1 $-1 $20 $6 #
cone-surface $-1 -1 $-1 0 2.3812500000000001 4.365624999999997 0 1 0 0 0 1.4224000000000006 1 I I 0 1 1.4224000000000006 forward I I I I #
coedge $-1 -1 $-1 $21 $22 $23 $24 reversed $7 $-1 #
DXID-attrib $-1 -1 $-1 $10 $6 @18 ASM_FACE_FROM_STEP @56 6789K430_FINISHED-BORE SPROCKET FOR MINIATURE CHAIN-2452 #
truecolor-adesk-attrib $-1 -1 $25 $-1 $11 -1056964608 #
face $26 -1 $-1 $27 $28 $3 $-1 $29 forward single #
loop $-1 -1 $-1 $-1 $30 $11 #
cone-surface $-1 -1 $-1 0 2.778125000000006 4.365624999999997 0 1 0 0 0 1.4224000000000006 1 I I 0.70710678118653636 0.70710678118655867 1.4224000000000006 forward I I I I #
coedge $-1 -1 $-1 $31 $32 $33 $34 forward $12 $-1 #
coedge $-1 -1 $-1 $35 $14 $36 $37 forward $7 $-1 #
coedge $-1 -1 $-1 $14 $35 $38 $39 reversed $7 $-1 #
coedge $-1 -1 $-1 $40 $40 $14 $24 forward $28 $-1 #
edge $41 -1 $-1 $42 1.4616140590442855e-16 $43 3.1415926535897931 $14 $44 forward @7 unknown #
DXID-attrib $-1 -1 $-1 $16 $11 @18 ASM_FACE_FROM_STEP @56 6789K430_FINISHED-BORE SPROCKET FOR MINIATURE CHAIN-2423 #
truecolor-adesk-attrib $-1 -1 $45 $-1 $17 -1056964608 #
face $46 -1 $-1 $47 $48 $3 $-1 $49 forward single #
loop $-1 -1 $-1 $50 $40 $17 #
plane-surface $-1 -1 $-1 -7.1612028000342105e-15 6.7468749999999984 3.3400999999999952 0 1 0 0 0 25.399999999999995 forward_v I I I I #
coedge $-1 -1 $-1 $51 $52 $53 $54 forward $18 $-1 #
coedge $-1 -1 $-1 $55 $20 $56 $57 forward $12 $-1 #
coedge $-1 -1 $-1 $20 $55 $58 $59 reversed $12 $-1 #
coedge $-1 -1 $-1 $52 $51 $20 $34 reversed $18 $-1 #
edge $60 -1 $-1 $61 0 $62 3.1415926535897931 $20 $63 forward @7 unknown #
coedge $-1 -1 $-1 $22 $21 $55 $64 forward $7 $-1 #
coedge $-1 -1 $-1 $65 $66 $21 $37 reversed $67 $-1 #
edge $68 -1 $-1 $42 2.1044104638097626e-36 $69 0.00056126600756682102 $21 $70 forward @7 unknown #
coedge $-1 -1 $-1 $66 $65 $22 $39 forward $67 $-1 #
edge $71 -1 $-1 $43 0 $72 0.00056126600756682134 $22 $73 forward @7 unknown #
coedge $-1 -1 $-1 $23 $23 $65 $74 forward $28 $-1 #
truecolor-adesk-attrib $-1 -1 $75 $-1 $24 -1056964608 #
vertex $-1 -1 $-1 $24 $76 #
vertex $-1 -1 $-1 $24 $77 #
ellipse-curve $-1 -1 $-1 0 6.7468749999999984 4.365624999999997 0 1 0 0 0 1.0255250000000011 1 F 1.4616140590442855e-16 F 3.1415926535897931 #
DXID-attrib $-1 -1 $-1 $26 $17 @18 ASM_FACE_FROM_STEP @56 6789K430_FINISHED-BORE SPROCKET FOR MINIATURE CHAIN-2440 #
truecolor-adesk-attrib $-1 -1 $78 $-1 $27 -1056964608 #
face $79 -1 $-1 $80 $81 $3 $-1 $82 forward single #
loop $-1 -1 $-1 $-1 $53 $27 #
plane-surface $-1 -1 $-1 0 2.3812499999999996 4.365624999999997 0 -1 0 0 0 -25.399999999999995 forward_v I I I I #
loop $-1 -1 $-1 $-1 $83 $17 #
coedge $-1 -1 $-1 $33 $30 $84 $85 forward $18 $-1 #
coedge $-1 -1 $-1 $30 $33 $86 $87 reversed $18 $-1 #
coedge $-1 -1 $-1 $88 $88 $30 $54 reversed $48 $-1 #
edge $89 -1 $-1 $90 0 $91 3.1415926535897931 $30 $92 forward @7 unknown #
coedge $-1 -1 $-1 $32 $31 $35 $64 reversed $12 $-1 #
coedge $-1 -1 $-1 $93 $94 $31 $57 reversed $95 $-1 #
edge $96 -1 $-1 $62 0.00039687500000000595 $72 0.0039687500000000001 $31 $97 forward @7 unknown #
coedge $-1 -1 $-1 $94 $93 $32 $59 forward $95 $-1 #
edge $98 -1 $-1 $61 0.00039687500000000595 $69 0.0039687500000000001 $32 $99 forward @7 unknown #
truecolor-adesk-attrib $-1 -1 $100 $-1 $34 -1056964608 #
vertex $-1 -1 $-1 $34 $101 #
vertex $-1 -1 $-1 $34 $102 #
ellipse-curve $-1 -1 $-1 0 2.778125000000006 4.365624999999997 0 1 0 0 0 1.4224000000000006 1 F 0 F 3.1415926535897931 #
edge $103 -1 $-1 $69 0 $72 3.1415926535897931 $35 $104 forward @7 unknown #
coedge $-1 -1 $-1 $38 $36 $40 $74 reversed $67 $-1 #
coedge $-1 -1 $-1 $36 $38 $94 $105 forward $67 $-1 #
loop $-1 -1 $-1 $-1 $36 $106 #
truecolor-adesk-attrib $-1 -1 $107 $-1 $37 -1056964608 #
vertex $-1 -1 $-1 $37 $108 #
straight-curve $-1 -1 $-1 1.2559059086955906e-16 6.7468749999999984 5.3911499999999979 8.6595605623549316e-14 -707.10678118654755 707.10678118654744 F 2.1044104638097626e-36 F 0.00056126600756682102 #
truecolor-adesk-attrib $-1 -1 $109 $-1 $39 -1056964608 #
vertex $-1 -1 $-1 $64 $110 #
straight-curve $-1 -1 $-1 0 6.7468749999999984 3.3400999999999952 0 -707.10678118654755 -707.10678118654744 F 0 F 0.00056126600756682134 #
edge $111 -1 $-1 $43 -3.1415926535897931 $42 1.4616140590442855e-16 $40 $112 forward @7 unknown #
DXID-attrib $-1 -1 $-1 $41 $24 @18 ASM_EDGE_FROM_STEP @2 57 #
point $-1 -1 $-1 1.4989217579013934e-16 6.7468749999999984 5.3911499999999979 #
point $-1 -1 $-1 0 6.7468749999999984 3.3400999999999952 #
DXID-attrib $-1 -1 $-1 $46 $27 @18 ASM_FACE_FROM_STEP @56 6789K430_FINISHED-BORE SPROCKET FOR MINIATURE CHAIN-2426 #
truecolor-adesk-attrib $-1 -1 $113 $-1 $47 -1056964608 #
face $114 -1 $-1 $106 $95 $3 $-1 $115 forward single #
loop $-1 -1 $-1 $-1 $84 $47 #
cone-surface $-1 -1 $-1 0 2.778125000000006 4.365624999999997 0 1 0 0 0 1.4224000000000006 1 I I 0.70710678118653636 0.70710678118655867 1.4224000000000006 forward I I I I #
coedge $-1 -1 $-1 $116 $117 $118 $119 reversed $50 $-1 #
coedge $-1 -1 $-1 $120 $121 $51 $85 reversed $81 $-1 #
edge $122 -1 $-1 $91 -0.00056126600756682221 $62 0 $51 $123 forward @7 unknown #
coedge $-1 -1 $-1 $121 $120 $52 $87 forward $81 $-1 #
edge $124 -1 $-1 $90 -0.00056126600756682178 $61 0 $52 $125 forward @7 unknown #
coedge $-1 -1 $-1 $53 $53 $120 $126 reversed $48 $-1 #
truecolor-adesk-attrib $-1 -1 $127 $-1 $54 -1056964608 #
vertex $-1 -1 $-1 $54 $128 #
vertex $-1 -1 $-1 $54 $129 #
ellipse-curve $-1 -1 $-1 0 2.3812499999999996 4.365624999999997 0 1 0 0 0 1.0255250000000071 1 F 0 F 3.1415926535897931 #
coedge $-1 -1 $-1 $58 $56 $121 $130 forward $95 $-1 #
coedge $-1 -1 $-1 $56 $58 $66 $105 reversed $95 $-1 #
loop $-1 -1 $-1 $-1 $56 $80 #
truecolor-adesk-attrib $-1 -1 $131 $-1 $57 -1056964608 #
straight-curve $-1 -1 $-1 1.7419376071071959e-16 2.3812500000000001 2.943224999999996 0 999.99999999999989 0 F 0.00039687500000000595 F 0.0039687500000000001 #
truecolor-adesk-attrib $-1 -1 $132 $-1 $59 -1056964608 #
straight-curve $-1 -1 $-1 0 2.3812500000000001 5.7880249999999966 0 999.99999999999989 0 F 0.00039687500000000595 F 0.0039687500000000001 #
DXID-attrib $-1 -1 $-1 $60 $34 @18 ASM_EDGE_FROM_STEP @2 61 #
point $-1 -1 $-1 0 2.778125000000006 5.7880249999999966 #
point $-1 -1 $-1 1.7419376071071959e-16 2.778125000000006 2.943224999999996 #
truecolor-adesk-attrib $-1 -1 $133 $-1 $64 -1056964608 #
ellipse-curve $-1 -1 $-1 0 6.3499999999999988 4.365624999999997 0 1 0 0 0 1.4224000000000006 1 F 0 F 3.1415926535897931 #
edge $134 -1 $-1 $72 -3.1415926535897931 $69 0 $94 $135 forward @7 unknown #
face $136 -1 $-1 $137 $67 $3 $-1 $138 forward single #
DXID-attrib $-1 -1 $-1 $68 $37 @18 ASM_EDGE_FROM_STEP @2 54 #
point $-1 -1 $-1 0 6.3499999999999988 5.7880249999999966 #
DXID-attrib $-1 -1 $-1 $71 $39 @18 ASM_EDGE_FROM_STEP @2 56 #
point $-1 -1 $-1 1.7419376071071959e-16 6.3499999999999988 2.943224999999996 #
truecolor-adesk-attrib $-1 -1 $139 $-1 $74 -1056964608 #
ellipse-curve $-1 -1 $-1 0 6.7468749999999984 4.365624999999997 0 1 0 0 0 1.0255250000000011 1 F -3.1415926535897931 F 1.4616140590442855e-16 #
DXID-attrib $-1 -1 $-1 $79 $47 @18 ASM_FACE_FROM_STEP @56 6789K430_FINISHED-BORE SPROCKET FOR MINIATURE CHAIN-2461 #
truecolor-adesk-attrib $-1 -1 $140 $-1 $80 -1056964608 #
cone-surface $-1 -1 $-1 0 2.3812500000000001 4.365624999999997 0 1 0 0 0 1.4224000000000006 1 I I 0 1 1.4224000000000006 forward I I I I #
coedge $-1 -1 $-1 $141 $83 $142 $143 reversed $50 $-1 #
coedge $-1 -1 $-1 $83 $144 $145 $146 reversed $50 $-1 #
coedge $-1 -1 $-1 $147 $148 $83 $119 forward $149 $-1 #
edge $150 -1 $-1 $151 0 $152 0.00073323484187082428 $83 $153 forward @7 unknown #
coedge $-1 -1 $-1 $86 $84 $88 $126 forward $81 $-1 #
coedge $-1 -1 $-1 $84 $86 $93 $130 reversed $81 $-1 #
truecolor-adesk-attrib $-1 -1 $154 $-1 $85 -1056964608 #
straight-curve $-1 -1 $-1 1.7419376071071959e-16 2.778125000000006 2.943224999999996 8.6595605623547953e-14 707.10678118655869 -707.10678118653641 F -0.00056126600756682221 F 0 #
truecolor-adesk-attrib $-1 -1 $155 $-1 $87 -1056964608 #
straight-curve $-1 -1 $-1 0 2.778125000000006 5.7880249999999966 0 707.10678118655869 707.10678118653641 F -0.00056126600756682178 F 0 #
edge $156 -1 $-1 $91 -3.1415926535897931 $90 0 $88 $157 forward @7 unknown #
DXID-attrib $-1 -1 $-1 $89 $54 @18 ASM_EDGE_FROM_STEP @2 64 #
point $-1 -1 $-1 0 2.3812499999999996 5.3911500000000041 #
point $-1 -1 $-1 1.4989217579013968e-16 2.3812499999999996 3.3400999999999894 #
edge $158 -1 $-1 $62 -3.1415926535897931 $61 0 $121 $159 forward @7 unknown #
DXID-attrib $-1 -1 $-1 $96 $57 @18 ASM_EDGE_FROM_STEP @2 60 #
DXID-attrib $-1 -1 $-1 $98 $59 @18 ASM_EDGE_FROM_STEP @2 62 #
DXID-attrib $-1 -1 $-1 $103 $64 @18 ASM_EDGE_FROM_STEP @2 55 #
truecolor-adesk-attrib $-1 -1 $160 $-1 $105 -1056964608 #
ellipse-curve $-1 -1 $-1 0 6.3499999999999988 4.365624999999997 0 1 0 0 0 1.4224000000000006 1 F -3.1415926535897931 F 0 #
truecolor-adesk-attrib $-1 -1 $161 $-1 $106 -1056964608 #
face $162 -1 $-1 $163 $149 $3 $-1 $164 reversed single #
cone-surface $-1 -1 $-1 0 6.7468749999999984 4.365624999999997 0 -1 0 0 0 -1.0255250000000011 1 I I 0.70710678118654757 0.70710678118654757 1.0255250000000011 forward I I I I #
DXID-attrib $-1 -1 $-1 $111 $74 @18 ASM_EDGE_FROM_STEP @2 70 #
DXID-attrib $-1 -1 $-1 $114 $80 @18 ASM_FACE_FROM_STEP @56 6789K430_FINISHED-BORE SPROCKET FOR MINIATURE CHAIN-2424 #
coedge $-1 -1 $-1 $165 $116 $166 $167 reversed $50 $-1 #
coedge $-1 -1 $-1 $168 $169 $116 $143 forward $170 $-1 #
edge $171 -1 $-1 $172 0 $151 0.00073323484187082515 $116 $173 forward @7 unknown #
coedge $-1 -1 $-1 $117 $165 $174 $175 reversed $50 $-1 #
coedge $-1 -1 $-1 $176 $177 $117 $146 forward $178 $-1 #
edge $179 -1 $-1 $152 1.2071850502612168e-20 $180 0.0007332348418708233 $117 $181 forward @7 unknown #
coedge $-1 -1 $-1 $182 $118 $177 $183 reversed $149 $-1 #
coedge $-1 -1 $-1 $118 $182 $168 $184 forward $149 $-1 #
loop $-1 -1 $-1 $-1 $118 $137 #
truecolor-adesk-attrib $-1 -1 $185 $-1 $119 -1056964608 #
vertex $-1 -1 $-1 $119 $186 #
vertex $-1 -1 $-1 $119 $187 #
straight-curve $-1 -1 $-1 0.6349999999999989 6.7468749999999984 3.9990075790645858 -866.02540378443859 0 -499.99999999999983 F 0 F 0.00073323484187082428 #
DXID-attrib $-1 -1 $-1 $122 $85 @18 ASM_EDGE_FROM_STEP @2 63 #
DXID-attrib $-1 -1 $-1 $124 $87 @18 ASM_EDGE_FROM_STEP @2 65 #
truecolor-adesk-attrib $-1 -1 $188 $-1 $126 -1056964608 #
ellipse-curve $-1 -1 $-1 0 2.3812499999999996 4.365624999999997 0 1 0 0 0 1.0255250000000071 1 F -3.1415926535897931 F 0 #
truecolor-adesk-attrib $-1 -1 $189 $-1 $130 -1056964608 #
ellipse-curve $-1 -1 $-1 0 2.778125000000006 4.365624999999997 0 1 0 0 0 1.4224000000000006 1 F -3.1415926535897931 F 0 #
DXID-attrib $-1 -1 $-1 $134 $105 @18 ASM_EDGE_FROM_STEP @2 74 #
DXID-attrib $-1 -1 $-1 $136 $106 @18 ASM_FACE_FROM_STEP @56 6789K430_FINISHED-BORE SPROCKET FOR MINIATURE CHAIN-2442 #
truecolor-adesk-attrib $-1 -1 $190 $-1 $137 -1056964608 #
face $191 -1 $-1 $192 $170 $3 $-1 $193 reversed single #
plane-surface $-1 -1 $-1 0.6349999999999989 5.9531249999999982 3.9990075790645858 0.49999999999999983 0 -0.86602540378443882 -21.997045256124743 0 -12.699999999999994 forward_v I I I I #
coedge $-1 -1 $-1 $144 $141 $194 $195 reversed $50 $-1 #
coedge $-1 -1 $-1 $196 $197 $141 $167 forward $198 $-1 #
edge $199 -1 $-1 $200 0 $172 0.00073323484187082428 $141 $201 forward @7 unknown #
coedge $-1 -1 $-1 $202 $142 $148 $184 reversed $170 $-1 #
coedge $-1 -1 $-1 $142 $202 $196 $203 forward $170 $-1 #
loop $-1 -1 $-1 $-1 $142 $163 #
truecolor-adesk-attrib $-1 -1 $204 $-1 $143 -1056964608 #
vertex $-1 -1 $-1 $143 $205 #
straight-curve $-1 -1 $-1 0.63499999999999845 6.7468749999999984 4.7322424209354113 5.914624404477003e-13 0 -999.99999999999989 F 0 F 0.00073323484187082515 #
coedge $-1 -1 $-1 $206 $207 $144 $175 forward $208 $-1 #
edge $209 -1 $-1 $180 0 $210 0.0007332348418708245 $144 $211 forward @7 unknown #
coedge $-1 -1 $-1 $212 $145 $207 $213 reversed $178 $-1 #
coedge $-1 -1 $-1 $145 $212 $147 $183 forward $178 $-1 #
loop $-1 -1 $-1 $-1 $145 $214 #
truecolor-adesk-attrib $-1 -1 $215 $-1 $146 -1056964608 #
vertex $-1 -1 $-1 $175 $216 #
straight-curve $-1 -1 $-1 -6.3658193121670251e-16 6.7468749999999984 3.6323901581291742 -866.02540378443905 0 499.99999999999909 F 1.2071850502612168e-20 F 0.0007332348418708233 #
coedge $-1 -1 $-1 $148 $147 $217 $218 reversed $149 $-1 #
edge $219 -1 $-1 $220 0 $152 0.00079375000000000084 $147 $221 forward @7 unknown #
edge $222 -1 $-1 $223 0 $151 0.00079375000000000084 $148 $224 forward @7 unknown #
DXID-attrib $-1 -1 $-1 $150 $119 @18 ASM_EDGE_FROM_STEP @2 67 #
point $-1 -1 $-1 0.6349999999999989 6.7468749999999984 3.9990075790645858 #
point $-1 -1 $-1 -6.5052130349130256e-16 6.7468749999999984 3.6323901581291742 #
DXID-attrib $-1 -1 $-1 $156 $126 @18 ASM_EDGE_FROM_STEP @2 69 #
DXID-attrib $-1 -1 $-1 $158 $130 @18 ASM_EDGE_FROM_STEP @2 73 #
DXID-attrib $-1 -1 $-1 $162 $137 @18 ASM_FACE_FROM_STEP @56 6789K430_FINISHED-BORE SPROCKET FOR MINIATURE CHAIN-2420 #
truecolor-adesk-attrib $-1 -1 $225 $-1 $163 -1056964608 #
face $226 -1 $-1 $227 $198 $3 $-1 $228 reversed single #
plane-surface $-1 -1 $-1 0.63499999999999845 5.9531249999999982 4.7322424209354113 1 0 5.9146244044770036e-16 1.502314598737159e-14 0 -25.399999999999995 forward_v I I I I #
coedge $-1 -1 $-1 $229 $230 $165 $195 forward $231 $-1 #
edge $232 -1 $-1 $210 0 $200 0.00073323484187082428 $165 $233 forward @7 unknown #
coedge $-1 -1 $-1 $234 $166 $169 $203 reversed $198 $-1 #
coedge $-1 -1 $-1 $166 $234 $229 $235 forward $198 $-1 #
loop $-1 -1 $-1 $-1 $166 $192 #
truecolor-adesk-attrib $-1 -1 $236 $-1 $167 -1056964608 #
vertex $-1 -1 $-1 $167 $237 #
straight-curve $-1 -1 $-1 -1.2400159973801443e-15 6.7468749999999984 5.0988598418708229 866.02540378443859 0 -499.99999999999983 F 0 F 0.00073323484187082428 #
coedge $-1 -1 $-1 $169 $168 $238 $239 reversed $170 $-1 #
edge $240 -1 $-1 $241 0 $172 0.00079375000000000084 $169 $242 forward @7 unknown #
DXID-attrib $-1 -1 $-1 $171 $143 @18 ASM_EDGE_FROM_STEP @2 66 #
point $-1 -1 $-1 0.63499999999999845 6.7468749999999984 4.7322424209354113 #
coedge $-1 -1 $-1 $243 $174 $230 $244 reversed $208 $-1 #
coedge $-1 -1 $-1 $174 $243 $176 $213 forward $208 $-1 #
loop $-1 -1 $-1 $-1 $174 $245 #
truecolor-adesk-attrib $-1 -1 $246 $-1 $175 -1056964608 #
vertex $-1 -1 $-1 $195 $247 #
straight-curve $-1 -1 $-1 -0.6349999999999999 6.7468749999999984 3.9990075790645854 -4.4359683033577522e-13 0 999.99999999999989 F 0 F 0.0007332348418708245 #
coedge $-1 -1 $-1 $177 $176 $248 $249 reversed $178 $-1 #
edge $250 -1 $-1 $251 0 $180 0.00079375000000000084 $207 $252 forward @7 unknown #
face $253 -1 $-1 $254 $178 $3 $-1 $255 reversed single #
DXID-attrib $-1 -1 $-1 $179 $146 @18 ASM_EDGE_FROM_STEP @2 58 #
point $-1 -1 $-1 -0.6349999999999999 6.7468749999999984 3.9990075790645854 #
coedge $-1 -1 $-1 $248 $238 $182 $218 forward $256 $-1 #
edge $257 -1 $-1 $223 0 $220 0.00073323484187082428 $182 $258 forward @7 unknown #
truecolor-adesk-attrib $-1 -1 $259 $-1 $183 -1056964608 #
vertex $-1 -1 $-1 $183 $260 #
straight-curve $-1 -1 $-1 -6.3658193121670251e-16 5.9531249999999982 3.6323901581291742 0 999.99999999999989 0 F 0 F 0.00079375000000000084 #
truecolor-adesk-attrib $-1 -1 $261 $-1 $184 -1056964608 #
vertex $-1 -1 $-1 $218 $262 #
straight-curve $-1 -1 $-1 0.6349999999999989 5.9531249999999982 3.9990075790645858 0 999.99999999999989 0 F 0 F 0.00079375000000000084 #
DXID-attrib $-1 -1 $-1 $191 $163 @18 ASM_FACE_FROM_STEP @56 6789K430_FINISHED-BORE SPROCKET FOR MINIATURE CHAIN-5659 #
truecolor-adesk-attrib $-1 -1 $263 $-1 $192 -1056964608 #
face $264 -1 $-1 $245 $231 $3 $-1 $265 reversed single #
plane-surface $-1 -1 $-1 -1.2400159973801443e-15 5.9531249999999982 5.0988598418708229 0.49999999999999972 0 0.86602540378443882 21.997045256124743 0 -12.699999999999992 forward_v I I I I #
coedge $-1 -1 $-1 $266 $194 $197 $235 reversed $231 $-1 #
coedge $-1 -1 $-1 $194 $266 $206 $244 forward $231 $-1 #
loop $-1 -1 $-1 $-1 $194 $227 #
truecolor-adesk-attrib $-1 -1 $267 $-1 $195 -1056964608 #
straight-curve $-1 -1 $-1 -0.63500000000000034 6.7468749999999984 4.7322424209354095 866.02540378443791 0 500.00000000000091 F 0 F 0.00073323484187082428 #
coedge $-1 -1 $-1 $197 $196 $268 $269 reversed $198 $-1 #
edge $270 -1 $-1 $271 0 $200 0.00079375000000000084 $197 $272 forward @7 unknown #
DXID-attrib $-1 -1 $-1 $199 $167 @18 ASM_EDGE_FROM_STEP @2 48 #
point $-1 -1 $-1 -1.2400159973801443e-15 6.7468749999999984 5.0988598418708229 #
coedge $-1 -1 $-1 $217 $268 $202 $239 forward $256 $-1 #
edge $273 -1 $-1 $241 0 $223 0.00073323484187082515 $202 $274 forward @7 unknown #
truecolor-adesk-attrib $-1 -1 $275 $-1 $203 -1056964608 #
vertex $-1 -1 $-1 $239 $276 #
straight-curve $-1 -1 $-1 0.63499999999999845 5.9531249999999982 4.7322424209354113 0 999.99999999999989 0 F 0 F 0.00079375000000000084 #
coedge $-1 -1 $-1 $207 $206 $277 $278 reversed $208 $-1 #
edge $279 -1 $-1 $280 0 $210 0.00079375000000000084 $230 $281 forward @7 unknown #
face $282 -1 $-1 $214 $208 $3 $-1 $283 reversed single #
DXID-attrib $-1 -1 $-1 $209 $175 @18 ASM_EDGE_FROM_STEP @2 59 #
point $-1 -1 $-1 -0.63500000000000034 6.7468749999999984 4.7322424209354095 #
coedge $-1 -1 $-1 $277 $217 $212 $249 forward $256 $-1 #
edge $284 -1 $-1 $220 0 $251 0.0007332348418708233 $212 $285 forward @7 unknown #
truecolor-adesk-attrib $-1 -1 $286 $-1 $213 -1056964608 #
vertex $-1 -1 $-1 $278 $287 #
straight-curve $-1 -1 $-1 -0.6349999999999999 5.9531249999999982 3.9990075790645854 0 999.99999999999989 0 F 0 F 0.00079375000000000084 #
truecolor-adesk-attrib $-1 -1 $288 $-1 $214 -1056964608 #
face $289 -1 $-1 $-1 $256 $3 $-1 $290 forward single #
plane-surface $-1 -1 $-1 -6.3658193121670251e-16 5.9531249999999982 3.6323901581291742 -0.49999999999999917 0 -0.86602540378443915 -21.99704525612475 0 12.699999999999976 forward_v I I I I #
loop $-1 -1 $-1 $-1 $217 $254 #
truecolor-adesk-attrib $-1 -1 $291 $-1 $218 -1056964608 #
straight-curve $-1 -1 $-1 0.6349999999999989 5.9531249999999982 3.9990075790645858 -866.02540378443859 0 -499.99999999999983 F 0 F 0.00073323484187082428 #
DXID-attrib $-1 -1 $-1 $219 $183 @18 ASM_EDGE_FROM_STEP @2 72 #
point $-1 -1 $-1 -6.3658193121670251e-16 5.9531249999999982 3.6323901581291742 #
DXID-attrib $-1 -1 $-1 $222 $184 @18 ASM_EDGE_FROM_STEP @2 71 #
point $-1 -1 $-1 0.6349999999999989 5.9531249999999982 3.9990075790645858 #
DXID-attrib $-1 -1 $-1 $226 $192 @18 ASM_FACE_FROM_STEP @56 6789K430_FINISHED-BORE SPROCKET FOR MINIATURE CHAIN-5661 #
truecolor-adesk-attrib $-1 -1 $292 $-1 $227 -1056964608 #
plane-surface $-1 -1 $-1 -0.63500000000000034 5.9531249999999982 4.7322424209354095 -0.500000000000001 0 0.86602540378443804 21.997045256124725 0 12.700000000000022 forward_v I I I I #
coedge $-1 -1 $-1 $230 $229 $293 $294 reversed $231 $-1 #
DXID-attrib $-1 -1 $-1 $232 $195 @18 ASM_EDGE_FROM_STEP @2 68 #
coedge $-1 -1 $-1 $238 $293 $234 $269 forward $256 $-1 #
edge $295 -1 $-1 $271 0 $241 0.00073323484187082428 $234 $296 forward @7 unknown #
truecolor-adesk-attrib $-1 -1 $297 $-1 $235 -1056964608 #
vertex $-1 -1 $-1 $269 $298 #
straight-curve $-1 -1 $-1 -1.2400159973801443e-15 5.9531249999999982 5.0988598418708229 0 999.99999999999989 0 F 0 F 0.00079375000000000084 #
truecolor-adesk-attrib $-1 -1 $299 $-1 $239 -1056964608 #
straight-curve $-1 -1 $-1 0.63499999999999845 5.9531249999999982 4.7322424209354113 5.914624404477003e-13 0 -999.99999999999989 F 0 F 0.00073323484187082515 #
DXID-attrib $-1 -1 $-1 $240 $203 @18 ASM_EDGE_FROM_STEP @2 76 #
point $-1 -1 $-1 0.63499999999999845 5.9531249999999982 4.7322424209354113 #
coedge $-1 -1 $-1 $293 $248 $243 $278 forward $256 $-1 #
edge $300 -1 $-1 $251 0 $280 0.0007332348418708245 $243 $301 forward @7 unknown #
truecolor-adesk-attrib $-1 -1 $302 $-1 $244 -1056964608 #
vertex $-1 -1 $-1 $294 $303 #
straight-curve $-1 -1 $-1 -0.63500000000000034 5.9531249999999982 4.7322424209354095 0 999.99999999999989 0 F 0 F 0.00079375000000000084 #
truecolor-adesk-attrib $-1 -1 $304 $-1 $245 -1056964608 #
plane-surface $-1 -1 $-1 -0.6349999999999999 5.9531249999999982 3.9990075790645854 -1 0 -4.4359683033577532e-16 -1.1267359490528692e-14 0 25.399999999999995 forward_v I I I I #
truecolor-adesk-attrib $-1 -1 $305 $-1 $249 -1056964608 #
straight-curve $-1 -1 $-1 -6.3658193121670251e-16 5.9531249999999982 3.6323901581291742 -866.02540378443905 0 499.99999999999909 F 0 F 0.0007332348418708233 #
DXID-attrib $-1 -1 $-1 $250 $213 @18 ASM_EDGE_FROM_STEP @2 82 #
point $-1 -1 $-1 -0.6349999999999999 5.9531249999999982 3.9990075790645854 #
DXID-attrib $-1 -1 $-1 $253 $214 @18 ASM_FACE_FROM_STEP @56 6789K430_FINISHED-BORE SPROCKET FOR MINIATURE CHAIN-5663 #
truecolor-adesk-attrib $-1 -1 $306 $-1 $254 -1056964608 #
plane-surface $-1 -1 $-1 -6.4703646042265245e-16 5.9531249999999982 3.6323901581291742 0 1 0 0 0 25.399999999999995 forward_v I I I I #
DXID-attrib $-1 -1 $-1 $257 $218 @18 ASM_EDGE_FROM_STEP @2 75 #
DXID-attrib $-1 -1 $-1 $264 $227 @18 ASM_FACE_FROM_STEP @56 6789K430_FINISHED-BORE SPROCKET FOR MINIATURE CHAIN-5660 #
coedge $-1 -1 $-1 $268 $277 $266 $294 forward $256 $-1 #
edge $307 -1 $-1 $280 0 $271 0.00073323484187082428 $266 $308 forward @7 unknown #
truecolor-adesk-attrib $-1 -1 $309 $-1 $269 -1056964608 #
straight-curve $-1 -1 $-1 -1.2400159973801443e-15 5.9531249999999982 5.0988598418708229 866.02540378443859 0 -499.99999999999983 F 0 F 0.00073323484187082428 #
DXID-attrib $-1 -1 $-1 $270 $235 @18 ASM_EDGE_FROM_STEP @2 78 #
point $-1 -1 $-1 -1.2400159973801443e-15 5.9531249999999982 5.0988598418708229 #
DXID-attrib $-1 -1 $-1 $273 $239 @18 ASM_EDGE_FROM_STEP @2 77 #
truecolor-adesk-attrib $-1 -1 $310 $-1 $278 -1056964608 #
straight-curve $-1 -1 $-1 -0.6349999999999999 5.9531249999999982 3.9990075790645854 -4.4359683033577522e-13 0 999.99999999999989 F 0 F 0.0007332348418708245 #
DXID-attrib $-1 -1 $-1 $279 $244 @18 ASM_EDGE_FROM_STEP @2 80 #
point $-1 -1 $-1 -0.63500000000000034 5.9531249999999982 4.7322424209354095 #
DXID-attrib $-1 -1 $-1 $282 $245 @18 ASM_FACE_FROM_STEP @56 6789K430_FINISHED-BORE SPROCKET FOR MINIATURE CHAIN-5662 #
DXID-attrib $-1 -1 $-1 $284 $249 @18 ASM_EDGE_FROM_STEP @2 84 #
DXID-attrib $-1 -1 $-1 $289 $254 @18 ASM_FACE_FROM_STEP @56 6789K430_FINISHED-BORE SPROCKET FOR MINIATURE CHAIN-5658 #
truecolor-adesk-attrib $-1 -1 $311 $-1 $294 -1056964608 #
straight-curve $-1 -1 $-1 -0.63500000000000034 5.9531249999999982 4.7322424209354095 866.02540378443791 0 500.00000000000091 F 0 F 0.00073323484187082428 #
DXID-attrib $-1 -1 $-1 $295 $269 @18 ASM_EDGE_FROM_STEP @2 79 #
DXID-attrib $-1 -1 $-1 $300 $278 @18 ASM_EDGE_FROM_STEP @2 83 #
DXID-attrib $-1 -1 $-1 $307 $294 @18 ASM_EDGE_FROM_STEP @2 81 #
