700 495 1 0         
5 ZWCAD 12 ACIS 28.0 NT 24 Sat May 11 10:48:17 2024 
1 9.9999999999999995e-07 1e-10 
body $1 -1 $-1 $2 $-1 $3 #
DXID-attrib $-1 -1 $-1 $-1 $0 @18 ASM_BODY_FROM_STEP @83 79AA7420A9D641A4347596EC8C1BD88D709504E4|:|B8A4396250C5687B1D31E70758B30729E1AC4426 #
lump $-1 -1 $-1 $-1 $4 $0 #
transform $-1 -1 1 0 0 0 1 0 0 0 1 0 0 0 1 no_rotate no_reflect no_shear #
shell $-1 -1 $-1 $-1 $-1 $5 $-1 $2 #
face $6 -1 $-1 $7 $8 $4 $-1 $9 forward single #
truecolor-adesk-attrib $-1 -1 $10 $-1 $5 -1026818048 #
face $11 -1 $-1 $12 $13 $4 $-1 $14 forward single #
loop $-1 -1 $-1 $-1 $15 $5 #
cone-surface $-1 -1 $-1 21.580396908194899 -6.9849987023773412 2.5 0 0 -1 -2.5874999999999901 0 0 1 I I 0 1 2.5874999999999906 forward I I I I #
DXID-attrib $-1 -1 $-1 $6 $5 @18 ASM_FACE_FROM_STEP @24 Adjustment Slide Arm-358 #
truecolor-adesk-attrib $-1 -1 $16 $-1 $7 -1026818048 #
face $17 -1 $-1 $18 $19 $4 $-1 $20 reversed single #
loop $-1 -1 $-1 $-1 $21 $7 #
cone-surface $-1 -1 $-1 22.591859932489498 -6.3496354152116812 2.5 0 0 -1 -2.5874999999999999 0 0 1 I I 0 1 2.5874999999999999 forward I I I I #
coedge $-1 -1 $-1 $22 $23 $24 $25 forward $8 $-1 #
DXID-attrib $-1 -1 $-1 $11 $7 @18 ASM_FACE_FROM_STEP @24 Adjustment Slide Arm-359 #
truecolor-adesk-attrib $-1 -1 $26 $-1 $12 -1026818048 #
face $27 -1 $-1 $28 $29 $4 $-1 $30 forward single #
loop $-1 -1 $-1 $31 $32 $12 #
cone-surface $-1 -1 $-1 21.481431373177205 -5.7935253822071999 2.5 0 0 -1 -2.25 0 0 1 I I 0 1 2.25 forward I I I I #
coedge $-1 -1 $-1 $33 $34 $35 $36 forward $13 $-1 #
coedge $-1 -1 $-1 $37 $15 $38 $39 reversed $8 $-1 #
coedge $-1 -1 $-1 $15 $37 $40 $41 forward $8 $-1 #
coedge $-1 -1 $-1 $42 $43 $15 $25 reversed $44 $-1 #
edge $45 -1 $-1 $46 -0.0027000000000000001 $47 0 $15 $48 forward @7 unknown #
DXID-attrib $-1 -1 $-1 $17 $12 @18 ASM_FACE_FROM_STEP @24 Adjustment Slide Arm-360 #
truecolor-adesk-attrib $-1 -1 $49 $-1 $18 -1026818048 #
face $50 -1 $-1 $51 $44 $4 $-1 $52 reversed single #
loop $-1 -1 $-1 $-1 $53 $18 #
cone-surface $-1 -1 $-1 21.481431373177205 -5.7935253822071999 2.5 0 0 -1 -3.6499999999999995 0 0 1 I I 0 1 3.6499999999999999 forward I I I I #
loop $-1 -1 $-1 $-1 $54 $12 #
coedge $-1 -1 $-1 $32 $32 $55 $56 reversed $19 $-1 #
coedge $-1 -1 $-1 $57 $21 $58 $59 reversed $13 $-1 #
coedge $-1 -1 $-1 $21 $57 $60 $61 forward $13 $-1 #
coedge $-1 -1 $-1 $62 $63 $21 $36 reversed $29 $-1 #
edge $64 -1 $-1 $65 -0.0027000000000000001 $66 0 $21 $67 forward @7 unknown #
coedge $-1 -1 $-1 $23 $22 $53 $68 reversed $8 $-1 #
coedge $-1 -1 $-1 $69 $70 $22 $39 forward $71 $-1 #
edge $72 -1 $-1 $73 0.31257876901413423 $47 0.79832960583365375 $22 $74 forward @7 unknown #
coedge $-1 -1 $-1 $75 $76 $23 $41 reversed $77 $-1 #
edge $78 -1 $-1 $79 0.31257876901413612 $46 0.79832960583365375 $23 $80 forward @7 unknown #
coedge $-1 -1 $-1 $81 $24 $76 $82 forward $44 $-1 #
coedge $-1 -1 $-1 $24 $83 $69 $84 reversed $44 $-1 #
loop $-1 -1 $-1 $-1 $85 $28 #
truecolor-adesk-attrib $-1 -1 $86 $-1 $25 -1026818048 #
vertex $-1 -1 $-1 $25 $87 #
vertex $-1 -1 $-1 $25 $88 #
straight-curve $-1 -1 $-1 19.437030790777801 -8.4345289492878592 2.5 0 0 -1000 F -0.0027000000000000001 F 0 #
DXID-attrib $-1 -1 $-1 $27 $18 @18 ASM_FACE_FROM_STEP @24 Adjustment Slide Arm-361 #
truecolor-adesk-attrib $-1 -1 $89 $-1 $28 -1026818048 #
face $90 -1 $-1 $91 $92 $4 $-1 $93 forward single #
cone-surface $-1 -1 $-1 -17.3755204276511 -33.330371998892502 2.5 0 0 -1 -44.440600000000003 0 0 1 I I 0 1 44.440600000000003 forward I I I I #
coedge $-1 -1 $-1 $63 $62 $37 $68 forward $29 $-1 #
coedge $-1 -1 $-1 $54 $54 $94 $95 reversed $31 $-1 #
coedge $-1 -1 $-1 $55 $55 $32 $56 forward $96 $-1 #
edge $97 -1 $-1 $98 -4.523130841065451e-15 $98 6.2831853071795818 $32 $99 forward @7 unknown #
coedge $-1 -1 $-1 $34 $33 $100 $101 reversed $13 $-1 #
coedge $-1 -1 $-1 $70 $102 $33 $59 forward $71 $-1 #
edge $103 -1 $-1 $104 -2.3424268961665007 $66 -1.9423308461852358 $33 $105 forward @7 unknown #
coedge $-1 -1 $-1 $106 $75 $34 $61 reversed $77 $-1 #
edge $107 -1 $-1 $108 -2.342426896166494 $65 -1.9423308461852358 $34 $109 forward @7 unknown #
coedge $-1 -1 $-1 $53 $35 $75 $110 forward $29 $-1 #
coedge $-1 -1 $-1 $35 $53 $70 $111 reversed $29 $-1 #
truecolor-adesk-attrib $-1 -1 $112 $-1 $36 -1026818048 #
vertex $-1 -1 $-1 $36 $113 #
vertex $-1 -1 $-1 $36 $114 #
straight-curve $-1 -1 $-1 25.130969932544502 -5.8515624711354297 2.5 0 0 -1000 F -0.0027000000000000001 F 0 #
edge $115 -1 $-1 $79 -0.0027000000000000001 $73 0 $37 $116 forward @7 unknown #
coedge $-1 -1 $-1 $117 $38 $43 $84 forward $71 $-1 #
coedge $-1 -1 $-1 $38 $58 $63 $111 forward $71 $-1 #
loop $-1 -1 $-1 $118 $69 $119 #
truecolor-adesk-attrib $-1 -1 $120 $-1 $39 -1026818048 #
vertex $-1 -1 $-1 $39 $121 #
ellipse-curve $-1 -1 $-1 21.580396908194899 -6.9849987023773412 2.5 -0 0 -1 -0.45772282102585826 -2.5466931635185426 0 1 F 0.31257876901413423 F 0.79832960583365375 #
coedge $-1 -1 $-1 $60 $40 $62 $110 reversed $77 $-1 #
coedge $-1 -1 $-1 $40 $122 $42 $82 reversed $77 $-1 #
loop $-1 -1 $-1 $96 $123 $124 #
truecolor-adesk-attrib $-1 -1 $125 $-1 $41 -1026818048 #
vertex $-1 -1 $-1 $68 $126 #
ellipse-curve $-1 -1 $-1 21.580396908194899 -6.9849987023773412 5.2000000000000002 -0 0 -1 -0.45772282102585826 -2.5466931635185426 0 1 F 0.31257876901413612 F 0.79832960583365375 #
coedge $-1 -1 $-1 $127 $42 $128 $129 forward $44 $-1 #
edge $130 -1 $-1 $46 2.3432630477561505 $131 2.9344848415468356 $42 $132 forward @7 unknown #
coedge $-1 -1 $-1 $43 $85 $133 $134 forward $44 $-1 #
edge $135 -1 $-1 $47 2.3432630477561505 $136 2.5189489711934803 $43 $137 forward @7 unknown #
coedge $-1 -1 $-1 $83 $138 $139 $140 reversed $44 $-1 #
DXID-attrib $-1 -1 $-1 $45 $25 @18 ASM_EDGE_FROM_STEP @3 161 #
point $-1 -1 $-1 19.437030790777801 -8.4345289492878592 5.2000000000000002 #
point $-1 -1 $-1 19.437030790777801 -8.4345289492878592 2.5 #
DXID-attrib $-1 -1 $-1 $50 $28 @18 ASM_FACE_FROM_STEP @24 Adjustment Slide Arm-362 #
truecolor-adesk-attrib $-1 -1 $141 $-1 $51 -1026818048 #
face $142 -1 $-1 $143 $144 $4 $-1 $145 forward single #
loop $-1 -1 $-1 $-1 $146 $51 #
cone-surface $-1 -1 $-1 -7.4986345522480597 12.6488549956348 2.5 0 0 -1 -2.5874999999999999 0 0 1 I I 0 1 2.5874999999999999 forward I I I I #
coedge $-1 -1 $-1 $94 $94 $54 $95 forward $118 $-1 #
edge $147 -1 $-1 $148 -6.2831853071795862 $148 0 $54 $149 reversed @7 unknown #
loop $-1 -1 $-1 $-1 $55 $124 #
truecolor-adesk-attrib $-1 -1 $150 $-1 $56 -1026818048 #
vertex $-1 -1 $-1 $56 $151 #
ellipse-curve $-1 -1 $-1 21.481431373177205 -5.7935253822072097 5.2000000000000002 -0 0 -1 -0.39801984437031301 -2.2145157943639582 0 1 I I #
coedge $-1 -1 $-1 $152 $153 $57 $101 forward $154 $-1 #
edge $155 -1 $-1 $108 -0.0027000000000000001 $104 0 $57 $156 forward @7 unknown #
coedge $-1 -1 $-1 $58 $157 $152 $158 forward $71 $-1 #
truecolor-adesk-attrib $-1 -1 $159 $-1 $59 -1026818048 #
vertex $-1 -1 $-1 $59 $160 #
ellipse-curve $-1 -1 $-1 22.591859932489498 -6.3496354152116812 2.5 -0 0 -1 -0.45772282102585998 -2.5466931635185519 0 1 F -2.3424268961665007 F -1.9423308461852358 #
coedge $-1 -1 $-1 $161 $60 $153 $162 reversed $77 $-1 #
truecolor-adesk-attrib $-1 -1 $163 $-1 $61 -1026818048 #
vertex $-1 -1 $-1 $101 $164 #
ellipse-curve $-1 -1 $-1 22.591859932489498 -6.3496354152116812 5.2000000000000002 -0 0 -1 -0.45772282102585998 -2.5466931635185519 0 1 F -2.342426896166494 F -1.9423308461852358 #
edge $165 -1 $-1 $65 1.4088640173477849 $79 3.2755594308090559 $62 $166 forward @7 unknown #
edge $167 -1 $-1 $66 1.4088640173477849 $73 3.2755594308090545 $63 $168 forward @7 unknown #
DXID-attrib $-1 -1 $-1 $64 $36 @18 ASM_EDGE_FROM_STEP @3 165 #
point $-1 -1 $-1 25.130969932544502 -5.8515624711354413 5.2000000000000002 #
point $-1 -1 $-1 25.130969932544502 -5.8515624711354413 2.5 #
truecolor-adesk-attrib $-1 -1 $169 $-1 $68 -1026818048 #
straight-curve $-1 -1 $-1 20.3617111826008 -9.26753267851727 2.5 0 0 -1000 F -0.0027000000000000001 F 0 #
coedge $-1 -1 $-1 $170 $69 $171 $172 forward $71 $-1 #
loop $-1 -1 $-1 $-1 $94 $119 #
face $173 -1 $-1 $174 $71 $4 $-1 $175 forward single #
DXID-attrib $-1 -1 $-1 $72 $39 @18 ASM_EDGE_FROM_STEP @3 162 #
point $-1 -1 $-1 20.3617111826008 -9.2675326785172807 2.5 #
coedge $-1 -1 $-1 $76 $123 $176 $177 forward $77 $-1 #
coedge $-1 -1 $-1 $122 $161 $178 $179 reversed $77 $-1 #
face $180 -1 $-1 $181 $77 $4 $-1 $182 reversed single #
DXID-attrib $-1 -1 $-1 $78 $41 @18 ASM_EDGE_FROM_STEP @3 164 #
point $-1 -1 $-1 20.3617111826008 -9.26753267851727 5.2000000000000002 #
coedge $-1 -1 $-1 $138 $81 $183 $184 forward $44 $-1 #
coedge $-1 -1 $-1 $176 $185 $81 $129 reversed $186 $-1 #
edge $187 -1 $-1 $131 -0.0027000000000000001 $188 0 $81 $189 forward @7 unknown #
truecolor-adesk-attrib $-1 -1 $190 $-1 $82 -1026818048 #
vertex $-1 -1 $-1 $82 $191 #
ellipse-curve $-1 -1 $-1 -17.3755204276511 -33.330371998892502 5.2000000000000002 0 0 1 -7.861440309210372 -43.7397380493382 0 1 F 2.3432630477561505 F 2.9344848415468356 #
coedge $-1 -1 $-1 $192 $171 $83 $134 reversed $193 $-1 #
edge $194 -1 $-1 $195 -0.0025000000000000001 $136 0 $83 $196 reversed @7 unknown #
truecolor-adesk-attrib $-1 -1 $197 $-1 $84 -1026818048 #
vertex $-1 -1 $-1 $134 $198 #
ellipse-curve $-1 -1 $-1 -17.3755204276511 -33.330371998892502 2.5 0 0 1 -7.861440309210372 -43.7397380493382 0 1 F 2.3432630477561505 F 2.5189489711934803 #
coedge $-1 -1 $-1 $85 $127 $199 $200 forward $44 $-1 #
coedge $-1 -1 $-1 $201 $202 $85 $140 forward $203 $-1 #
edge $204 -1 $-1 $195 0.77031909254728081 $205 1.3591999470782314 $85 $206 forward @7 unknown #
DXID-attrib $-1 -1 $-1 $90 $51 @18 ASM_FACE_FROM_STEP @24 Adjustment Slide Arm-363 #
truecolor-adesk-attrib $-1 -1 $207 $-1 $91 -1026818048 #
face $208 -1 $-1 $209 $210 $4 $-1 $211 forward single #
loop $-1 -1 $-1 $-1 $212 $91 #
plane-surface $-1 -1 $-1 -10.0453277157666 13.1065778166606 2.5 -0.98422924193953731 0.17689770860902607 0 -0.17689770860902607 -0.9842292419395372 0 forward_v I I I I #
coedge $-1 -1 $-1 $199 $213 $201 $214 reversed $92 $-1 #
truecolor-adesk-attrib $-1 -1 $215 $-1 $95 -1026818048 #
vertex $-1 -1 $-1 $95 $216 #
ellipse-curve $-1 -1 $-1 21.481431373177205 -5.7935253822071999 2.5 0 0 -1 -2.25 0 0 1 I I #
DXID-attrib $-1 -1 $-1 $97 $56 @18 ASM_EDGE_FROM_STEP @3 169 #
point $-1 -1 $-1 21.083411528806902 -8.0080411765711705 5.2000000000000002 #
coedge $-1 -1 $-1 $217 $100 $102 $158 reversed $154 $-1 #
coedge $-1 -1 $-1 $100 $218 $106 $162 forward $154 $-1 #
loop $-1 -1 $-1 $-1 $152 $209 #
truecolor-adesk-attrib $-1 -1 $219 $-1 $101 -1026818048 #
straight-curve $-1 -1 $-1 24.736437328890801 -4.9018978528672497 2.5 0 0 -1000 F -0.0027000000000000001 F 0 #
coedge $-1 -1 $-1 $102 $170 $220 $221 forward $71 $-1 #
edge $222 -1 $-1 $223 -2.5184601927017169 $104 -2.342426896165827 $152 $224 forward @7 unknown #
DXID-attrib $-1 -1 $-1 $103 $59 @18 ASM_EDGE_FROM_STEP @3 166 #
point $-1 -1 $-1 24.736437328434867 -4.9018978531794017 2.5 #
coedge $-1 -1 $-1 $123 $106 $225 $226 forward $77 $-1 #
edge $227 -1 $-1 $228 -2.9361054300432938 $108 -2.342426896165827 $153 $229 forward @7 unknown #
DXID-attrib $-1 -1 $-1 $107 $61 @18 ASM_EDGE_FROM_STEP @3 168 #
point $-1 -1 $-1 24.736437328434882 -4.9018978531794133 5.2000000000000002 #
truecolor-adesk-attrib $-1 -1 $230 $-1 $110 -1026818048 #
ellipse-curve $-1 -1 $-1 21.481431373177205 -5.7935253822072097 5.2000000000000002 0 0 -1 0.64567663642295225 3.5924367330793099 0 1 F 1.4088640173477849 F 3.2755594308090559 #
truecolor-adesk-attrib $-1 -1 $231 $-1 $111 -1026818048 #
ellipse-curve $-1 -1 $-1 21.481431373177205 -5.7935253822072097 2.5 0 0 -1 0.64567663642295225 3.5924367330793099 0 1 F 1.4088640173477849 F 3.2755594308090545 #
DXID-attrib $-1 -1 $-1 $115 $68 @18 ASM_EDGE_FROM_STEP @3 163 #
coedge $-1 -1 $-1 $157 $117 $232 $233 forward $71 $-1 #
coedge $-1 -1 $-1 $133 $234 $117 $172 reversed $193 $-1 #
edge $235 -1 $-1 $136 0.77031909254726849 $236 2.2778362225341806 $117 $237 reversed @7 unknown #
truecolor-adesk-attrib $-1 -1 $238 $-1 $119 -1026818048 #
face $239 -1 $-1 $240 $241 $4 $-1 $242 reversed single #
plane-surface $-1 -1 $-1 -17.3755204276511 -33.330371998892502 2.5 0 0 -1 -1 0 0 forward_v I I I I #
coedge $-1 -1 $-1 $243 $128 $122 $177 reversed $186 $-1 #
edge $244 -1 $-1 $245 -0.17783355185130809 $131 1.1858549629006352 $122 $246 reversed @7 unknown #
coedge $-1 -1 $-1 $247 $248 $123 $179 forward $249 $-1 #
edge $250 -1 $-1 $245 -0.0011695758101484201 $251 -0.00079278650143168087 $178 $252 forward @7 unknown #
truecolor-adesk-attrib $-1 -1 $253 $-1 $124 -1026818048 #
face $254 -1 $-1 $255 $256 $4 $-1 $257 forward single #
plane-surface $-1 -1 $-1 -17.3755204276511 -33.330371998892502 5.2000000000000002 0 0 -1 -1 0 0 forward_v I I I I #
coedge $-1 -1 $-1 $258 $259 $127 $184 reversed $260 $-1 #
edge $261 -1 $-1 $188 1.1858549629006361 $262 1.3591999470782314 $127 $263 forward @7 unknown #
coedge $-1 -1 $-1 $128 $243 $258 $264 reversed $186 $-1 #
loop $-1 -1 $-1 $-1 $176 $255 #
truecolor-adesk-attrib $-1 -1 $265 $-1 $129 -1026818048 #
vertex $-1 -1 $-1 $129 $266 #
straight-curve $-1 -1 $-1 -0.68786215714075305 7.8580849982647107 2.5 0 0 -1000 F -0.0027000000000000001 F 0 #
DXID-attrib $-1 -1 $-1 $130 $82 @18 ASM_EDGE_FROM_STEP @3 176 #
point $-1 -1 $-1 -0.68786215714074905 7.8580849982647205 5.2000000000000002 #
coedge $-1 -1 $-1 $234 $133 $202 $267 reversed $193 $-1 #
loop $-1 -1 $-1 $-1 $171 $268 #
truecolor-adesk-attrib $-1 -1 $269 $-1 $134 -1026818048 #
vertex $-1 -1 $-1 $140 $270 #
straight-curve $-1 -1 $-1 14.518987192079402 -2.38352543813689 2.5 0 0 -1000 F 0 F 0.0025000000000000001 #
DXID-attrib $-1 -1 $-1 $135 $84 @18 ASM_EDGE_FROM_STEP @3 175 #
point $-1 -1 $-1 14.518987192079402 -2.38352543813689 2.5 #
coedge $-1 -1 $-1 $271 $146 $138 $200 reversed $92 $-1 #
edge $272 -1 $-1 $262 0 $205 0.0025000000000000001 $138 $273 forward @7 unknown #
coedge $-1 -1 $-1 $274 $139 $146 $214 forward $203 $-1 #
coedge $-1 -1 $-1 $139 $275 $192 $267 forward $203 $-1 #
loop $-1 -1 $-1 $276 $275 $277 #
truecolor-adesk-attrib $-1 -1 $278 $-1 $140 -1026818048 #
vertex $-1 -1 $-1 $140 $279 #
ellipse-curve $-1 -1 $-1 -17.3755204276511 -33.330371998892502 0 0 0 1 44.440600000000003 0 0 1 F 0.77031909254728081 F 1.3591999470782314 #
DXID-attrib $-1 -1 $-1 $142 $91 @18 ASM_FACE_FROM_STEP @24 Adjustment Slide Arm-364 #
truecolor-adesk-attrib $-1 -1 $280 $-1 $143 -1026818048 #
face $281 -1 $-1 $282 $154 $4 $-1 $283 forward single #
loop $-1 -1 $-1 $-1 $284 $143 #
cone-surface $-1 -1 $-1 -7.2873366291000696 13.824481273434602 2.5 0 0 -1 -2.5874999999999999 0 0 1 I I 0 1 2.5874999999999999 forward I I I I #
coedge $-1 -1 $-1 $285 $286 $274 $287 reversed $144 $-1 #
coedge $-1 -1 $-1 $146 $271 $285 $288 forward $92 $-1 #
edge $289 -1 $-1 $205 1.7823927065115595 $290 3.3194262054410744 $146 $291 forward @7 unknown #
DXID-attrib $-1 -1 $-1 $147 $95 @18 ASM_EDGE_FROM_STEP @3 170 #
point $-1 -1 $-1 19.231431373177202 -5.7935253822071999 2.5 #
coedge $-1 -1 $-1 $292 $152 $293 $294 forward $154 $-1 #
coedge $-1 -1 $-1 $153 $295 $296 $297 forward $154 $-1 #
DXID-attrib $-1 -1 $-1 $155 $101 @18 ASM_EDGE_FROM_STEP @3 167 #
coedge $-1 -1 $-1 $298 $293 $157 $221 reversed $299 $-1 #
edge $300 -1 $-1 $301 -4.0053490846454061 $223 -2.3717623395342664 $157 $302 reversed @7 unknown #
truecolor-adesk-attrib $-1 -1 $303 $-1 $158 -1026818048 #
vertex $-1 -1 $-1 $158 $304 #
ellipse-curve $-1 -1 $-1 -17.3755204276511 -33.330371998892502 2.5 -0 0 -1 -8.9880664357995474 -50.008097245402716 0 1 F -2.5184601927017169 F -2.342426896165827 #
coedge $-1 -1 $-1 $296 $305 $161 $226 reversed $256 $-1 #
edge $306 -1 $-1 $228 -1.954117102192698 $251 -0.17783355185130734 $161 $307 reversed @7 unknown #
truecolor-adesk-attrib $-1 -1 $308 $-1 $162 -1026818048 #
vertex $-1 -1 $-1 $297 $309 #
ellipse-curve $-1 -1 $-1 -17.3755204276511 -33.330371998892502 5.2000000000000002 -0 0 -1 -8.9880664357995474 -50.008097245402716 0 1 F -2.9361054300432938 F -2.342426896165827 #
DXID-attrib $-1 -1 $-1 $165 $110 @18 ASM_EDGE_FROM_STEP @3 172 #
DXID-attrib $-1 -1 $-1 $167 $111 @18 ASM_EDGE_FROM_STEP @3 171 #
coedge $-1 -1 $-1 $310 $311 $170 $233 reversed $241 $-1 #
edge $312 -1 $-1 $236 -8.4378942500528073e-05 $301 0.00028515495401313555 $170 $313 forward @7 unknown #
coedge $-1 -1 $-1 $171 $192 $310 $314 reversed $193 $-1 #
truecolor-adesk-attrib $-1 -1 $315 $-1 $172 -1026818048 #
vertex $-1 -1 $-1 $172 $316 #
ellipse-curve $-1 -1 $-1 16.672052696577399 -0.29443258875441702 2.5 0 0 -1 -3 0 0 1 F -2.2778362225341806 F -0.77031909254726849 #
DXID-attrib $-1 -1 $-1 $173 $119 @18 ASM_FACE_FROM_STEP @24 Adjustment Slide Arm-374 #
truecolor-adesk-attrib $-1 -1 $317 $-1 $174 -1026818048 #
face $318 -1 $-1 $268 $299 $4 $-1 $319 forward single #
loop $-1 -1 $-1 $-1 $232 $174 #
plane-surface $-1 -1 $-1 18.684963262929202 -2.5204853414551605 2.5 -0.64958608832706799 0.760288046632287 0 -0.760288046632287 -0.6495860883270681 0 forward_v I I I I #
coedge $-1 -1 $-1 $185 $176 $248 $320 reversed $186 $-1 #
truecolor-adesk-attrib $-1 -1 $321 $-1 $177 -1026818048 #
vertex $-1 -1 $-1 $320 $322 #
ellipse-curve $-1 -1 $-1 0.43865221961227907 10.638546355480202 5.2000000000000002 0 0 -1 -3 0 0 1 F -1.1858549629006352 F 0.17783355185130809 #
coedge $-1 -1 $-1 $323 $178 $305 $324 forward $249 $-1 #
coedge $-1 -1 $-1 $178 $323 $243 $320 forward $249 $-1 #
loop $-1 -1 $-1 $-1 $323 $325 #
truecolor-adesk-attrib $-1 -1 $326 $-1 $179 -1026818048 #
vertex $-1 -1 $-1 $179 $327 #
straight-curve $-1 -1 $-1 -2.3071402253465303 12.3203701943205 5.2000000000000002 176.897708609028 984.22924193953702 0 F -0.0011695758101484201 F -0.00079278650143168087 #
DXID-attrib $-1 -1 $-1 $180 $124 @18 ASM_FACE_FROM_STEP @24 Adjustment Slide Arm-371 #
truecolor-adesk-attrib $-1 -1 $328 $-1 $181 -1026818048 #
face $329 -1 $-1 $119 $186 $4 $-1 $330 forward single #
loop $-1 -1 $-1 $-1 $225 $181 #
cone-surface $-1 -1 $-1 0.50530538495265098 11.009393411169402 2.5 0 0 -1 -3 0 0 1 I I 0 1 3.0000000000000004 forward I I I I #
coedge $-1 -1 $-1 $331 $183 $185 $264 forward $260 $-1 #
coedge $-1 -1 $-1 $183 $332 $271 $333 reversed $260 $-1 #
loop $-1 -1 $-1 $334 $183 $335 #
truecolor-adesk-attrib $-1 -1 $336 $-1 $184 -1026818048 #
vertex $-1 -1 $-1 $184 $337 #
ellipse-curve $-1 -1 $-1 -17.3755204276511 -33.330371998892502 2.5 0 0 1 44.440600000000003 0 0 1 F 1.1858549629006361 F 1.3591999470782314 #
edge $338 -1 $-1 $188 -1.1858549629006356 $339 0.17783355185130809 $258 $340 forward @7 unknown #
DXID-attrib $-1 -1 $-1 $187 $129 @18 ASM_EDGE_FROM_STEP @3 177 #
point $-1 -1 $-1 -0.68786215714075605 7.858084998264701 2.5 #
edge $341 -1 $-1 $342 -2.2778362225341806 $195 -0.77031909254726849 $202 $343 forward @7 unknown #
face $344 -1 $-1 $-1 $193 $4 $-1 $345 forward single #
DXID-attrib $-1 -1 $-1 $194 $134 @18 ASM_EDGE_FROM_STEP @3 174 #
point $-1 -1 $-1 14.518987192079402 -2.38352543813689 0 #
coedge $-1 -1 $-1 $213 $199 $259 $333 forward $92 $-1 #
truecolor-adesk-attrib $-1 -1 $346 $-1 $200 -1026818048 #
straight-curve $-1 -1 $-1 -8.04206374038462 10.119064299256699 2.5 0 0 -1000 F 0 F 0.0025000000000000001 #
coedge $-1 -1 $-1 $347 $201 $212 $287 forward $203 $-1 #
coedge $-1 -1 $-1 $202 $348 $349 $350 reversed $203 $-1 #
loop $-1 -1 $-1 $-1 $351 $277 #
face $352 -1 $-1 $325 $203 $4 $-1 $353 forward single #
DXID-attrib $-1 -1 $-1 $204 $140 @18 ASM_EDGE_FROM_STEP @3 173 #
point $-1 -1 $-1 -8.04206374038462 10.119064299256699 0 #
DXID-attrib $-1 -1 $-1 $208 $143 @18 ASM_FACE_FROM_STEP @24 Adjustment Slide Arm-365 #
truecolor-adesk-attrib $-1 -1 $354 $-1 $209 -1026818048 #
face $355 -1 $-1 $335 $356 $4 $-1 $357 reversed single #
cone-surface $-1 -1 $-1 -17.3755204276511 -33.330371998892502 2.5 0 0 -1 -50.809399999999997 0 0 1 I I 0 1 50.809399999999997 forward I I I I #
coedge $-1 -1 $-1 $358 $359 $347 $360 reversed $210 $-1 #
coedge $-1 -1 $-1 $361 $212 $213 $288 reversed $144 $-1 #
coedge $-1 -1 $-1 $212 $361 $358 $362 forward $144 $-1 #
edge $363 -1 $-1 $290 0 $364 0.0011944638786418225 $212 $365 forward @7 unknown #
edge $366 -1 $-1 $367 0 $290 0.0025000000000000001 $213 $368 forward @7 unknown #
truecolor-adesk-attrib $-1 -1 $369 $-1 $214 -1026818048 #
vertex $-1 -1 $-1 $214 $370 #
ellipse-curve $-1 -1 $-1 -7.4986345522480597 12.6488549956348 0 0 0 -1 2.5874999999999999 0 0 1 F 1.7823927065115595 F 3.3194262054410744 #
coedge $-1 -1 $-1 $371 $217 $372 $373 reversed $154 $-1 #
coedge $-1 -1 $-1 $220 $374 $217 $294 reversed $299 $-1 #
edge $375 -1 $-1 $223 0 $376 0.0025000000000000001 $217 $377 forward @7 unknown #
coedge $-1 -1 $-1 $218 $371 $378 $379 forward $154 $-1 #
coedge $-1 -1 $-1 $380 $225 $218 $297 reversed $256 $-1 #
edge $381 -1 $-1 $382 0 $228 0.0027000000000000001 $218 $383 reversed @7 unknown #
coedge $-1 -1 $-1 $374 $220 $311 $384 reversed $299 $-1 #
loop $-1 -1 $-1 $-1 $220 $240 #
truecolor-adesk-attrib $-1 -1 $385 $-1 $221 -1026818048 #
vertex $-1 -1 $-1 $233 $386 #
ellipse-curve $-1 -1 $-1 16.953004900922199 -0.054388510413856006 2.5 0 0 -1 -3 0 0 1 F 2.3717623395342664 F 4.0053490846454061 #
DXID-attrib $-1 -1 $-1 $222 $158 @18 ASM_EDGE_FROM_STEP @3 189 #
point $-1 -1 $-1 19.107091251843102 2.0336517173538207 2.5 #
coedge $-1 -1 $-1 $225 $380 $247 $324 reversed $256 $-1 #
truecolor-adesk-attrib $-1 -1 $387 $-1 $226 -1026818048 #
ellipse-curve $-1 -1 $-1 0.50530538495265098 11.009393411169402 5.2000000000000002 0 0 -1 -3 0 0 1 F 0.17783355185130734 F 1.954117102192698 #
DXID-attrib $-1 -1 $-1 $227 $162 @18 ASM_EDGE_FROM_STEP @3 194 #
point $-1 -1 $-1 1.6273123007016701 13.791676732654 5.2000000000000002 #
coedge $-1 -1 $-1 $349 $232 $234 $314 forward $241 $-1 #
coedge $-1 -1 $-1 $232 $349 $298 $384 forward $241 $-1 #
truecolor-adesk-attrib $-1 -1 $388 $-1 $233 -1026818048 #
straight-curve $-1 -1 $-1 18.684963262929202 -2.5204853414551605 2.5 760.28804663228698 649.58608832706796 0 F -8.4378942500528073e-05 F 0.00028515495401313555 #
edge $389 -1 $-1 $236 -0.0025000000000000001 $342 0 $310 $390 reversed @7 unknown #
DXID-attrib $-1 -1 $-1 $235 $172 @18 ASM_EDGE_FROM_STEP @3 208 #
point $-1 -1 $-1 18.6208109615586 -2.57529672865128 2.5 #
DXID-attrib $-1 -1 $-1 $239 $174 @18 ASM_FACE_FROM_STEP @24 Adjustment Slide Arm-375 #
truecolor-adesk-attrib $-1 -1 $391 $-1 $240 -1026818048 #
cone-surface $-1 -1 $-1 16.953004900922199 -0.054388510413856006 2.5 0 0 -1 -3 0 0 1 I I 0 1 3.0000000000000004 forward I I I I #
edge $392 -1 $-1 $339 -0.0027000000000000001 $245 0 $248 $393 reversed @7 unknown #
DXID-attrib $-1 -1 $-1 $244 $177 @18 ASM_EDGE_FROM_STEP @3 206 #
point $-1 -1 $-1 -2.51403550620633 11.169239481307301 5.2000000000000002 #
coedge $-1 -1 $-1 $248 $247 $331 $394 reversed $249 $-1 #
edge $395 -1 $-1 $251 0 $396 0.0027000000000000001 $247 $397 forward @7 unknown #
face $398 -1 $-1 $124 $249 $4 $-1 $399 forward single #
DXID-attrib $-1 -1 $-1 $250 $179 @18 ASM_EDGE_FROM_STEP @3 204 #
point $-1 -1 $-1 -2.4473823408659601 11.540086536996499 5.2000000000000002 #
DXID-attrib $-1 -1 $-1 $254 $181 @18 ASM_FACE_FROM_STEP @24 Adjustment Slide Arm-372 #
truecolor-adesk-attrib $-1 -1 $400 $-1 $255 -1026818048 #
cone-surface $-1 -1 $-1 0.43865221961227907 10.638546355480202 2.5 0 0 -1 -3 0 0 1 I I 0 1 3.0000000000000004 forward I I I I #
coedge $-1 -1 $-1 $401 $258 $323 $394 forward $260 $-1 #
coedge $-1 -1 $-1 $259 $402 $361 $403 reversed $260 $-1 #
edge $404 -1 $-1 $262 1.7823927065115595 $367 3.3194262054410744 $271 $405 forward @7 unknown #
loop $-1 -1 $-1 $-1 $406 $335 #
face $407 -1 $-1 $277 $260 $4 $-1 $408 reversed single #
DXID-attrib $-1 -1 $-1 $261 $184 @18 ASM_EDGE_FROM_STEP @3 178 #
point $-1 -1 $-1 -8.04206374038462 10.119064299256699 2.5 #
truecolor-adesk-attrib $-1 -1 $409 $-1 $264 -1026818048 #
vertex $-1 -1 $-1 $264 $410 #
ellipse-curve $-1 -1 $-1 0.43865221961227907 10.638546355480202 2.5 0 0 -1 -3 0 0 1 F -1.1858549629006356 F 0.17783355185130809 #
truecolor-adesk-attrib $-1 -1 $411 $-1 $267 -1026818048 #
vertex $-1 -1 $-1 $350 $412 #
ellipse-curve $-1 -1 $-1 16.672052696577399 -0.29443258875441702 0 0 0 -1 -3 0 0 1 F -2.2778362225341806 F -0.77031909254726849 #
truecolor-adesk-attrib $-1 -1 $413 $-1 $268 -1026818048 #
cone-surface $-1 -1 $-1 16.672052696577399 -0.29443258875441702 2.5 0 0 -1 -3 0 0 1 I I 0 1 3.0000000000000004 forward I I I I #
DXID-attrib $-1 -1 $-1 $272 $200 @18 ASM_EDGE_FROM_STEP @3 179 #
coedge $-1 -1 $-1 $372 $274 $284 $360 forward $203 $-1 #
coedge $-1 -1 $-1 $275 $372 $374 $414 forward $203 $-1 #
coedge $-1 -1 $-1 $311 $310 $275 $350 forward $241 $-1 #
edge $415 -1 $-1 $342 -8.4378942500528073e-05 $416 0.00028515495401313555 $275 $417 forward @7 unknown #
coedge $-1 -1 $-1 $351 $351 $418 $419 reversed $276 $-1 #
truecolor-adesk-attrib $-1 -1 $420 $-1 $277 -1026818048 #
plane-surface $-1 -1 $-1 21.580396908194899 -6.9849987023773412 0 0 0 -1 -1 0 0 forward_v I I I I #
DXID-attrib $-1 -1 $-1 $281 $209 @18 ASM_FACE_FROM_STEP @24 Adjustment Slide Arm-366 #
truecolor-adesk-attrib $-1 -1 $421 $-1 $282 -1026818048 #
loop $-1 -1 $-1 $422 $423 $282 #
cone-surface $-1 -1 $-1 -6.5438004227201096 13.081834545444202 2.5 0 0 -1 -2.25 0 0 1 I I 0 1 2.25 forward I I I I #
coedge $-1 -1 $-1 $424 $284 $286 $362 reversed $210 $-1 #
coedge $-1 -1 $-1 $284 $424 $371 $425 forward $210 $-1 #
edge $426 -1 $-1 $364 -2.9637591017385128 $427 -1.3600360987117155 $284 $428 forward @7 unknown #
coedge $-1 -1 $-1 $286 $285 $332 $403 forward $144 $-1 #
edge $429 -1 $-1 $430 0 $364 0.0025000000000000001 $286 $431 forward @7 unknown #
truecolor-adesk-attrib $-1 -1 $432 $-1 $287 -1026818048 #
vertex $-1 -1 $-1 $287 $433 #
straight-curve $-1 -1 $-1 -10.0453277157666 13.1065778166606 0 176.89770860902601 984.22924193953702 0 F 0 F 0.0011944638786418225 #
truecolor-adesk-attrib $-1 -1 $434 $-1 $288 -1026818048 #
vertex $-1 -1 $-1 $333 $435 #
straight-curve $-1 -1 $-1 -10.0453277157666 13.1065778166606 2.5 0 0 -1000 F 0 F 0.0025000000000000001 #
DXID-attrib $-1 -1 $-1 $289 $214 @18 ASM_EDGE_FROM_STEP @3 180 #
point $-1 -1 $-1 -10.0453277157666 13.1065778166606 0 #
coedge $-1 -1 $-1 $295 $292 $359 $425 reversed $154 $-1 #
coedge $-1 -1 $-1 $348 $347 $292 $373 forward $203 $-1 #
edge $436 -1 $-1 $427 -1.3600360987329083 $376 -0.76983031405551772 $292 $437 forward @7 unknown #
coedge $-1 -1 $-1 $293 $298 $348 $414 reversed $299 $-1 #
truecolor-adesk-attrib $-1 -1 $438 $-1 $294 -1026818048 #
vertex $-1 -1 $-1 $294 $439 #
straight-curve $-1 -1 $-1 19.107091251843102 2.03365171735383 2.5 0 0 -1000 F 0 F 0.0025000000000000001 #
coedge $-1 -1 $-1 $402 $401 $295 $379 reversed $260 $-1 #
edge $440 -1 $-1 $441 -1.3600360987329083 $382 -1.1874755513970945 $295 $442 forward @7 unknown #
coedge $-1 -1 $-1 $305 $296 $401 $443 reversed $256 $-1 #
truecolor-adesk-attrib $-1 -1 $444 $-1 $297 -1026818048 #
vertex $-1 -1 $-1 $379 $445 #
straight-curve $-1 -1 $-1 1.6273123007016701 13.791676732654 2.5 0 0 -1000 F -0.0027000000000000001 F 0 #
edge $446 -1 $-1 $416 -0.0025000000000000001 $301 0 $311 $447 forward @7 unknown #
DXID-attrib $-1 -1 $-1 $300 $221 @18 ASM_EDGE_FROM_STEP @3 210 #
point $-1 -1 $-1 18.9017631659034 -2.33525265031072 2.5 #
DXID-attrib $-1 -1 $-1 $306 $226 @18 ASM_EDGE_FROM_STEP @3 207 #
DXID-attrib $-1 -1 $-1 $312 $233 @18 ASM_EDGE_FROM_STEP @3 209 #
truecolor-adesk-attrib $-1 -1 $448 $-1 $314 -1026818048 #
straight-curve $-1 -1 $-1 18.6208109615586 -2.57529672865128 0 0 0 1000 F 0 F 0.0025000000000000001 #
DXID-attrib $-1 -1 $-1 $318 $240 @18 ASM_FACE_FROM_STEP @24 Adjustment Slide Arm-376 #
truecolor-adesk-attrib $-1 -1 $449 $-1 $320 -1026818048 #
straight-curve $-1 -1 $-1 -2.51403550620633 11.169239481307301 5.2000000000000002 0 0 -1000 F 0 F 0.0027000000000000001 #
edge $450 -1 $-1 $339 -0.0011695758101484201 $396 -0.00079278650143168087 $331 $451 forward @7 unknown #
truecolor-adesk-attrib $-1 -1 $452 $-1 $324 -1026818048 #
vertex $-1 -1 $-1 $394 $453 #
straight-curve $-1 -1 $-1 -2.4473823408659601 11.540086536996499 5.2000000000000002 0 0 -1000 F 0 F 0.0027000000000000001 #
truecolor-adesk-attrib $-1 -1 $454 $-1 $325 -1026818048 #
plane-surface $-1 -1 $-1 -2.3071402253465303 12.3203701943205 5.2000000000000002 -0.98422924193953698 0.17689770860902801 0 -0.17689770860902801 -0.98422924193953709 0 forward_v I I I I #
DXID-attrib $-1 -1 $-1 $329 $255 @18 ASM_FACE_FROM_STEP @24 Adjustment Slide Arm-373 #
coedge $-1 -1 $-1 $378 $331 $380 $443 forward $260 $-1 #
coedge $-1 -1 $-1 $332 $378 $424 $455 reversed $260 $-1 #
edge $456 -1 $-1 $367 0 $430 0.0011944638786418225 $361 $457 forward @7 unknown #
truecolor-adesk-attrib $-1 -1 $458 $-1 $333 -1026818048 #
ellipse-curve $-1 -1 $-1 -7.4986345522480597 12.6488549956348 2.5 0 0 -1 2.5874999999999999 0 0 1 F 1.7823927065115595 F 3.3194262054410744 #
coedge $-1 -1 $-1 $406 $406 $423 $459 forward $334 $-1 #
truecolor-adesk-attrib $-1 -1 $460 $-1 $335 -1026818048 #
plane-surface $-1 -1 $-1 21.580396908194899 -6.9849987023773412 2.5 0 0 -1 -1 0 0 forward_v I I I I #
DXID-attrib $-1 -1 $-1 $338 $264 @18 ASM_EDGE_FROM_STEP @3 197 #
point $-1 -1 $-1 -2.51403550620633 11.169239481307301 2.5 #
DXID-attrib $-1 -1 $-1 $341 $267 @18 ASM_EDGE_FROM_STEP @3 201 #
point $-1 -1 $-1 18.6208109615586 -2.57529672865128 0 #
DXID-attrib $-1 -1 $-1 $344 $268 @18 ASM_FACE_FROM_STEP @24 Adjustment Slide Arm-377 #
edge $461 -1 $-1 $376 2.3717623395342642 $416 4.0053490846454061 $348 $462 forward @7 unknown #
truecolor-adesk-attrib $-1 -1 $463 $-1 $350 -1026818048 #
vertex $-1 -1 $-1 $350 $464 #
straight-curve $-1 -1 $-1 18.684963262929202 -2.5204853414551605 0 760.28804663228698 649.58608832706796 0 F -8.4378942500528073e-05 F 0.00028515495401313555 #
coedge $-1 -1 $-1 $418 $418 $351 $419 forward $422 $-1 #
edge $465 -1 $-1 $466 0 $466 6.2831853071795862 $418 $467 forward @7 unknown #
DXID-attrib $-1 -1 $-1 $352 $277 @18 ASM_FACE_FROM_STEP @24 Adjustment Slide Arm-369 #
DXID-attrib $-1 -1 $-1 $355 $282 @18 ASM_FACE_FROM_STEP @24 Adjustment Slide Arm-367 #
loop $-1 -1 $-1 $-1 $418 $282 #
coedge $-1 -1 $-1 $423 $423 $406 $459 reversed $356 $-1 #
coedge $-1 -1 $-1 $359 $358 $402 $455 forward $210 $-1 #
edge $468 -1 $-1 $441 0 $427 0.0025000000000000001 $359 $469 forward @7 unknown #
truecolor-adesk-attrib $-1 -1 $470 $-1 $360 -1026818048 #
vertex $-1 -1 $-1 $360 $471 #
ellipse-curve $-1 -1 $-1 -7.2873366291000696 13.824481273434602 0 0 0 -1 2.5874999999999999 0 0 1 F -2.9637591017385128 F -1.3600360987117155 #
truecolor-adesk-attrib $-1 -1 $472 $-1 $362 -1026818048 #
vertex $-1 -1 $-1 $403 $473 #
straight-curve $-1 -1 $-1 -9.8340297926186224 14.282204094460402 2.5 0 0 -1000 F 0 F 0.0025000000000000001 #
DXID-attrib $-1 -1 $-1 $363 $287 @18 ASM_EDGE_FROM_STEP @3 183 #
point $-1 -1 $-1 -9.8340297926186224 14.282204094460402 0 #
DXID-attrib $-1 -1 $-1 $366 $288 @18 ASM_EDGE_FROM_STEP @3 182 #
point $-1 -1 $-1 -10.0453277157666 13.1065778166606 2.5 #
truecolor-adesk-attrib $-1 -1 $474 $-1 $373 -1026818048 #
ellipse-curve $-1 -1 $-1 -17.3755204276511 -33.330371998892502 0 0 0 -1 50.809399999999997 0 0 1 F -1.3600360987329083 F -0.76983031405551772 #
DXID-attrib $-1 -1 $-1 $375 $294 @18 ASM_EDGE_FROM_STEP @3 190 #
point $-1 -1 $-1 19.107091251843102 2.03365171735383 0 #
truecolor-adesk-attrib $-1 -1 $475 $-1 $379 -1026818048 #
vertex $-1 -1 $-1 $455 $476 #
ellipse-curve $-1 -1 $-1 -17.3755204276511 -33.330371998892502 2.5 0 0 -1 50.809399999999997 0 0 1 F -1.3600360987329083 F -1.1874755513970945 #
edge $477 -1 $-1 $396 0.17783355185130734 $382 1.954117102192698 $401 $478 forward @7 unknown #
DXID-attrib $-1 -1 $-1 $381 $297 @18 ASM_EDGE_FROM_STEP @3 193 #
point $-1 -1 $-1 1.6273123007016701 13.791676732654 2.5 #
truecolor-adesk-attrib $-1 -1 $479 $-1 $384 -1026818048 #
straight-curve $-1 -1 $-1 18.9017631659034 -2.33525265031072 2.5 0 0 1000 F -0.0025000000000000001 F 0 #
DXID-attrib $-1 -1 $-1 $389 $314 @18 ASM_EDGE_FROM_STEP @3 211 #
DXID-attrib $-1 -1 $-1 $392 $320 @18 ASM_EDGE_FROM_STEP @3 203 #
truecolor-adesk-attrib $-1 -1 $480 $-1 $394 -1026818048 #
straight-curve $-1 -1 $-1 -2.3071402253465303 12.3203701943205 2.5 176.897708609028 984.22924193953702 0 F -0.0011695758101484201 F -0.00079278650143168087 #
DXID-attrib $-1 -1 $-1 $395 $324 @18 ASM_EDGE_FROM_STEP @3 205 #
point $-1 -1 $-1 -2.4473823408659601 11.540086536996499 2.5 #
DXID-attrib $-1 -1 $-1 $398 $325 @18 ASM_FACE_FROM_STEP @24 Adjustment Slide Arm-370 #
edge $481 -1 $-1 $430 -2.9637591017385128 $441 -1.3600360987117155 $424 $482 forward @7 unknown #
truecolor-adesk-attrib $-1 -1 $483 $-1 $403 -1026818048 #
straight-curve $-1 -1 $-1 -10.0453277157666 13.1065778166606 2.5 176.89770860902601 984.22924193953702 0 F 0 F 0.0011944638786418225 #
DXID-attrib $-1 -1 $-1 $404 $333 @18 ASM_EDGE_FROM_STEP @3 181 #
edge $484 -1 $-1 $485 0 $485 6.2831853071795862 $423 $486 forward @7 unknown #
DXID-attrib $-1 -1 $-1 $407 $335 @18 ASM_FACE_FROM_STEP @24 Adjustment Slide Arm-368 #
truecolor-adesk-attrib $-1 -1 $487 $-1 $414 -1026818048 #
ellipse-curve $-1 -1 $-1 16.953004900922199 -0.054388510413856006 0 0 0 -1 -3 0 0 1 F 2.3717623395342642 F 4.0053490846454061 #
DXID-attrib $-1 -1 $-1 $415 $350 @18 ASM_EDGE_FROM_STEP @3 200 #
point $-1 -1 $-1 18.9017631659034 -2.33525265031072 0 #
truecolor-adesk-attrib $-1 -1 $488 $-1 $419 -1026818048 #
vertex $-1 -1 $-1 $419 $489 #
ellipse-curve $-1 -1 $-1 -6.5438004227201096 13.081834545444202 0 0 0 -1 2.25 0 0 1 I I #
truecolor-adesk-attrib $-1 -1 $490 $-1 $425 -1026818048 #
straight-curve $-1 -1 $-1 -6.7460229193093006 16.354725474612099 2.5 0 0 -1000 F 0 F 0.0025000000000000001 #
DXID-attrib $-1 -1 $-1 $426 $360 @18 ASM_EDGE_FROM_STEP @3 186 #
point $-1 -1 $-1 -6.7460229192211152 16.354725475024299 0 #
DXID-attrib $-1 -1 $-1 $429 $362 @18 ASM_EDGE_FROM_STEP @3 185 #
point $-1 -1 $-1 -9.8340297926186224 14.282204094460402 2.5 #
DXID-attrib $-1 -1 $-1 $436 $373 @18 ASM_EDGE_FROM_STEP @3 191 #
DXID-attrib $-1 -1 $-1 $440 $379 @18 ASM_EDGE_FROM_STEP @3 192 #
point $-1 -1 $-1 -6.7460229192211152 16.354725475024299 2.5 #
truecolor-adesk-attrib $-1 -1 $491 $-1 $443 -1026818048 #
ellipse-curve $-1 -1 $-1 0.50530538495265098 11.009393411169402 2.5 0 0 -1 -3 0 0 1 F 0.17783355185130734 F 1.954117102192698 #
DXID-attrib $-1 -1 $-1 $446 $384 @18 ASM_EDGE_FROM_STEP @3 212 #
DXID-attrib $-1 -1 $-1 $450 $394 @18 ASM_EDGE_FROM_STEP @3 198 #
truecolor-adesk-attrib $-1 -1 $492 $-1 $455 -1026818048 #
ellipse-curve $-1 -1 $-1 -7.2873366291000696 13.824481273434602 2.5 0 0 -1 2.5874999999999999 0 0 1 F -2.9637591017385128 F -1.3600360987117155 #
DXID-attrib $-1 -1 $-1 $456 $403 @18 ASM_EDGE_FROM_STEP @3 184 #
truecolor-adesk-attrib $-1 -1 $493 $-1 $459 -1026818048 #
vertex $-1 -1 $-1 $459 $494 #
ellipse-curve $-1 -1 $-1 -6.5438004227201096 13.081834545444202 2.5 0 0 -1 2.25 0 0 1 I I #
DXID-attrib $-1 -1 $-1 $461 $414 @18 ASM_EDGE_FROM_STEP @3 202 #
DXID-attrib $-1 -1 $-1 $465 $419 @18 ASM_EDGE_FROM_STEP @3 196 #
point $-1 -1 $-1 -4.2938004227201096 13.081834545444202 0 #
DXID-attrib $-1 -1 $-1 $468 $425 @18 ASM_EDGE_FROM_STEP @3 188 #
DXID-attrib $-1 -1 $-1 $477 $443 @18 ASM_EDGE_FROM_STEP @3 199 #
DXID-attrib $-1 -1 $-1 $481 $455 @18 ASM_EDGE_FROM_STEP @3 187 #
DXID-attrib $-1 -1 $-1 $484 $459 @18 ASM_EDGE_FROM_STEP @3 195 #
point $-1 -1 $-1 -4.2938004227201096 13.081834545444202 2.5 #
