700 653 1 0         
5 ZWCAD 12 ACIS 28.0 NT 24 Sat May 11 16:35:16 2024 
1 9.9999999999999995e-07 1e-10 
body $1 -1 $-1 $2 $-1 $-1 #
DXID-attrib $-1 -1 $-1 $-1 $0 @18 ASM_BODY_FROM_STEP @83 3E993105E6B6CD478E1F3C071DBCD20991288442|:|D329A978929A43CB89E00DD10C0662853A154D69 #
lump $-1 -1 $-1 $-1 $3 $0 #
shell $-1 -1 $-1 $-1 $-1 $4 $-1 $2 #
face $5 -1 $-1 $6 $7 $3 $-1 $8 forward single #
truecolor-adesk-attrib $-1 -1 $9 $-1 $4 -1029000765 #
face $10 -1 $-1 $11 $12 $3 $-1 $13 forward single #
loop $-1 -1 $-1 $-1 $14 $4 #
cone-surface $-1 -1 $-1 83.588835930248479 140.63289210171064 179.93631987198205 0.62808370611916076 0.7707398583414885 0.10710242234124445 3.6396901802098505 -2.3925975027748114 -4.1265157920211273 1 I I 0 1 6.0000000000000009 forward I I I I #
fmesh-eye-attrib $-1 -1 $15 $5 $4 #
truecolor-adesk-attrib $-1 -1 $16 $-1 $6 -1029000765 #
face $17 -1 $-1 $18 $19 $3 $-1 $20 reversed single #
loop $-1 -1 $-1 $-1 $21 $6 #
cone-surface $-1 -1 $-1 98.662844877108341 159.13064870190635 182.50677800817192 0.62808370611916076 0.7707398583414885 0.10710242234124445 7.8859953904546778 -5.1839612560120933 -8.9407842160457776 1 I I 0 1 13.000000000000004 forward I I I I #
coedge $-1 -1 $-1 $22 $23 $24 $25 reversed $7 $-1 #
DXID-attrib $-1 -1 $-1 $9 $4 @18 ASM_FACE_FROM_STEP @20 Assem-esfregona-8037 #
fmesh-eye-attrib $-1 -1 $26 $10 $6 #
truecolor-adesk-attrib $-1 -1 $27 $-1 $11 -1029000765 #
face $28 -1 $-1 $29 $30 $3 $-1 $31 forward single #
loop $-1 -1 $-1 $-1 $32 $11 #
cone-surface $-1 -1 $-1 104.94368193829996 166.83804728532124 183.57780223158437 0.62808370611916076 0.7707398583414885 0.10710242234124445 5.4595352703147757 -3.5888962541622176 -6.1897736880316909 1 I I 0 1 9 forward I I I I #
coedge $-1 -1 $-1 $33 $34 $35 $36 reversed $12 $-1 #
coedge $-1 -1 $-1 $37 $14 $38 $39 forward $7 $-1 #
coedge $-1 -1 $-1 $14 $37 $40 $41 reversed $7 $-1 #
coedge $-1 -1 $-1 $42 $42 $14 $25 forward $43 $-1 #
edge $44 -1 $-1 $45 1.2246467991473535e-16 $46 3.1415926535897931 $14 $47 forward @7 unknown #
DXID-attrib $-1 -1 $-1 $16 $6 @18 ASM_FACE_FROM_STEP @20 Assem-esfregona-4575 #
fmesh-eye-attrib $-1 -1 $48 $17 $11 #
truecolor-adesk-attrib $-1 -1 $49 $-1 $18 -1029000765 #
face $50 -1 $-1 $51 $52 $3 $-1 $53 forward single #
loop $-1 -1 $-1 $-1 $54 $18 #
cone-surface $-1 -1 $-1 104.94368193829996 166.83804728532124 183.57780223158437 0.62808370611916076 0.7707398583414885 0.10710242234124445 6.6727653303847259 -4.386428755087155 -7.5652789520387334 1 I I 0 1 11 forward I I I I #
coedge $-1 -1 $-1 $55 $56 $57 $58 forward $19 $-1 #
coedge $-1 -1 $-1 $59 $21 $60 $61 forward $12 $-1 #
coedge $-1 -1 $-1 $21 $59 $62 $63 reversed $12 $-1 #
coedge $-1 -1 $-1 $64 $64 $21 $36 forward $65 $-1 #
edge $66 -1 $-1 $67 1.2246467991473532e-16 $68 3.1415926535897931 $21 $69 forward @7 unknown #
coedge $-1 -1 $-1 $23 $22 $70 $71 forward $7 $-1 #
coedge $-1 -1 $-1 $72 $73 $22 $39 reversed $74 $-1 #
edge $75 -1 $-1 $45 0 $76 0.024000000000000004 $22 $77 forward @7 unknown #
coedge $-1 -1 $-1 $73 $72 $23 $41 forward $74 $-1 #
edge $78 -1 $-1 $46 0 $79 0.024000000000000004 $23 $80 forward @7 unknown #
coedge $-1 -1 $-1 $24 $24 $72 $81 forward $43 $-1 #
loop $-1 -1 $-1 $-1 $42 $82 #
truecolor-adesk-attrib $-1 -1 $83 $-1 $25 -1029000765 #
vertex $-1 -1 $-1 $25 $84 #
vertex $-1 -1 $-1 $25 $85 #
ellipse-curve $-1 -1 $-1 83.588835930248479 140.63289210171064 179.93631987198205 -0.62808370611916076 -0.7707398583414885 -0.10710242234124445 -3.6396901802098505 2.3925975027748114 4.1265157920211273 1 F 1.2246467991473535e-16 F 3.1415926535897931 #
DXID-attrib $-1 -1 $-1 $27 $11 @18 ASM_FACE_FROM_STEP @20 Assem-esfregona-6693 #
fmesh-eye-attrib $-1 -1 $86 $28 $18 #
truecolor-adesk-attrib $-1 -1 $87 $-1 $29 -1029000765 #
face $88 -1 $-1 $89 $90 $3 $-1 $91 forward single #
loop $-1 -1 $-1 $-1 $92 $29 #
cone-surface $-1 -1 $-1 104.94368193829996 166.83804728532124 183.57780223158437 0.62808370611916076 0.7707398583414885 0.10710242234124445 6.6727653303847259 -4.386428755087155 -7.5652789520387334 1 I I 0 1 11 forward I I I I #
coedge $-1 -1 $-1 $93 $94 $95 $96 reversed $30 $-1 #
coedge $-1 -1 $-1 $97 $32 $98 $99 forward $19 $-1 #
coedge $-1 -1 $-1 $32 $97 $100 $101 reversed $19 $-1 #
coedge $-1 -1 $-1 $102 $102 $32 $58 reversed $103 $-1 #
edge $104 -1 $-1 $105 -3.1415926535897931 $106 1.224646799147353e-16 $32 $107 forward @7 unknown #
coedge $-1 -1 $-1 $34 $33 $108 $109 forward $12 $-1 #
coedge $-1 -1 $-1 $110 $111 $33 $61 reversed $112 $-1 #
edge $113 -1 $-1 $67 0 $114 0.01 $33 $115 forward @7 unknown #
coedge $-1 -1 $-1 $111 $110 $34 $63 forward $112 $-1 #
edge $116 -1 $-1 $68 0 $117 0.01 $34 $118 forward @7 unknown #
coedge $-1 -1 $-1 $35 $35 $110 $119 forward $65 $-1 #
loop $-1 -1 $-1 $120 $64 $89 #
truecolor-adesk-attrib $-1 -1 $121 $-1 $36 -1029000765 #
vertex $-1 -1 $-1 $36 $122 #
vertex $-1 -1 $-1 $36 $123 #
ellipse-curve $-1 -1 $-1 98.662844877108341 159.13064870190635 182.50677800817192 -0.62808370611916076 -0.7707398583414885 -0.10710242234124445 -7.8859953904546778 5.1839612560120933 8.9407842160457776 1 F 1.2246467991473532e-16 F 3.1415926535897931 #
coedge $-1 -1 $-1 $124 $124 $37 $71 reversed $120 $-1 #
edge $125 -1 $-1 $76 1.2246467991473535e-16 $79 3.1415926535897931 $37 $126 forward @7 unknown #
coedge $-1 -1 $-1 $40 $38 $42 $81 reversed $74 $-1 #
coedge $-1 -1 $-1 $38 $40 $124 $127 forward $74 $-1 #
loop $-1 -1 $-1 $-1 $38 $128 #
truecolor-adesk-attrib $-1 -1 $129 $-1 $39 -1029000765 #
vertex $-1 -1 $-1 $39 $130 #
straight-curve $-1 -1 $-1 79.949145750038639 143.02548960448544 184.06283566400319 628.08370611916075 770.73985834148846 107.10242234124445 F 0 F 0.024000000000000004 #
truecolor-adesk-attrib $-1 -1 $131 $-1 $41 -1029000765 #
vertex $-1 -1 $-1 $71 $132 #
straight-curve $-1 -1 $-1 87.228526110458347 138.2402945989358 175.80980407996091 628.08370611916075 770.73985834148846 107.10242234124445 F 0 F 0.024000000000000004 #
edge $133 -1 $-1 $46 -3.1415926535897931 $45 1.2246467991473535e-16 $72 $134 forward @7 unknown #
face $135 -1 $-1 $136 $43 $3 $-1 $137 forward single #
DXID-attrib $-1 -1 $-1 $44 $25 @18 ASM_EDGE_FROM_STEP @4 1758 #
point $-1 -1 $-1 79.949145750038639 143.02548960448544 184.06283566400319 #
point $-1 -1 $-1 87.228526110458347 138.2402945989358 175.80980407996091 #
DXID-attrib $-1 -1 $-1 $49 $18 @18 ASM_FACE_FROM_STEP @20 Assem-esfregona-8477 #
fmesh-eye-attrib $-1 -1 $138 $50 $29 #
truecolor-adesk-attrib $-1 -1 $139 $-1 $51 -1029000765 #
face $140 -1 $-1 $141 $65 $3 $-1 $142 forward single #
loop $-1 -1 $-1 $-1 $143 $51 #
cone-surface $-1 -1 $-1 104.94368193829996 166.83804728532124 183.57780223158437 0.62808370611916076 0.7707398583414885 0.10710242234124445 6.6727653303847259 -4.386428755087155 -7.5652789520387334 1 I I 0 1 11 forward I I I I #
coedge $-1 -1 $-1 $144 $145 $146 $147 forward $52 $-1 #
coedge $-1 -1 $-1 $148 $54 $149 $150 forward $30 $-1 #
coedge $-1 -1 $-1 $54 $148 $151 $152 forward $30 $-1 #
coedge $-1 -1 $-1 $153 $154 $54 $96 forward $155 $-1 #
edge $156 -1 $-1 $157 -1.4797615487574711 $158 -0.091034778037415165 $54 $159 forward @7 unknown #
coedge $-1 -1 $-1 $56 $55 $160 $161 reversed $19 $-1 #
coedge $-1 -1 $-1 $162 $163 $55 $99 reversed $164 $-1 #
edge $165 -1 $-1 $106 0 $166 0.029999999999999999 $55 $167 forward @7 unknown #
coedge $-1 -1 $-1 $163 $162 $56 $101 forward $164 $-1 #
edge $168 -1 $-1 $105 0 $169 0.029999999999999999 $56 $170 forward @7 unknown #
coedge $-1 -1 $-1 $57 $57 $162 $171 reversed $103 $-1 #
loop $-1 -1 $-1 $-1 $57 $172 #
truecolor-adesk-attrib $-1 -1 $173 $-1 $58 -1029000765 #
vertex $-1 -1 $-1 $58 $174 #
vertex $-1 -1 $-1 $58 $175 #
ellipse-curve $-1 -1 $-1 104.94368193829996 166.83804728532124 183.57780223158437 -0.62808370611916076 -0.7707398583414885 -0.10710242234124445 -5.4595352703147757 3.5888962541622176 6.1897736880316909 1 F -3.1415926535897931 F 1.224646799147353e-16 #
coedge $-1 -1 $-1 $176 $176 $59 $109 reversed $177 $-1 #
edge $178 -1 $-1 $114 1.2246467991473532e-16 $117 3.1415926535897931 $59 $179 forward @7 unknown #
coedge $-1 -1 $-1 $62 $60 $64 $119 reversed $112 $-1 #
coedge $-1 -1 $-1 $60 $62 $176 $180 forward $112 $-1 #
loop $-1 -1 $-1 $-1 $60 $181 #
truecolor-adesk-attrib $-1 -1 $182 $-1 $61 -1029000765 #
vertex $-1 -1 $-1 $61 $183 #
straight-curve $-1 -1 $-1 90.776849486653674 164.31460995791844 191.44756222421771 628.08370611916075 770.73985834148846 107.10242234124445 F 0 F 0.01 #
truecolor-adesk-attrib $-1 -1 $184 $-1 $63 -1029000765 #
vertex $-1 -1 $-1 $109 $185 #
straight-curve $-1 -1 $-1 106.54884026756302 153.94668744589427 173.56599379212614 628.08370611916075 770.73985834148846 107.10242234124445 F 0 F 0.01 #
edge $186 -1 $-1 $68 -3.1415926535897931 $67 1.2246467991473532e-16 $64 $187 forward @7 unknown #
loop $-1 -1 $-1 $-1 $124 $89 #
DXID-attrib $-1 -1 $-1 $66 $36 @18 ASM_EDGE_FROM_STEP @4 4866 #
point $-1 -1 $-1 90.776849486653674 164.31460995791844 191.44756222421771 #
point $-1 -1 $-1 106.54884026756302 153.94668744589427 173.56599379212614 #
coedge $-1 -1 $-1 $70 $70 $73 $127 reversed $120 $-1 #
truecolor-adesk-attrib $-1 -1 $188 $-1 $71 -1029000765 #
ellipse-curve $-1 -1 $-1 98.662844877108341 159.13064870190635 182.50677800817192 -0.62808370611916076 -0.7707398583414885 -0.10710242234124445 -3.6396901802098505 2.3925975027748114 4.1265157920211273 1 F 1.2246467991473535e-16 F 3.1415926535897931 #
edge $189 -1 $-1 $79 -3.1415926535897931 $76 1.2246467991473535e-16 $124 $190 forward @7 unknown #
face $191 -1 $-1 $82 $74 $3 $-1 $192 forward single #
DXID-attrib $-1 -1 $-1 $75 $39 @18 ASM_EDGE_FROM_STEP @4 5769 #
point $-1 -1 $-1 95.023154696898501 161.52324620468116 186.63329380019303 #
DXID-attrib $-1 -1 $-1 $78 $41 @18 ASM_EDGE_FROM_STEP @4 1652 #
point $-1 -1 $-1 102.3025350573182 156.73805119913155 178.38026221615078 #
truecolor-adesk-attrib $-1 -1 $193 $-1 $81 -1029000765 #
ellipse-curve $-1 -1 $-1 83.588835930248479 140.63289210171064 179.93631987198205 -0.62808370611916076 -0.7707398583414885 -0.10710242234124445 -3.6396901802098505 2.3925975027748114 4.1265157920211273 1 F -3.1415926535897931 F 1.2246467991473535e-16 #
truecolor-adesk-attrib $-1 -1 $194 $-1 $82 -1029000765 #
face $195 -1 $-1 $196 $197 $3 $-1 $198 forward single #
plane-surface $-1 -1 $-1 83.588835930248479 140.63289210171064 179.93631987198205 -0.62808370611916076 -0.7707398583414885 -0.10710242234124445 -0.60661503003497508 0.39876625046246861 0.68775263200352121 forward_v I I I I #
DXID-attrib $-1 -1 $-1 $87 $29 @18 ASM_FACE_FROM_STEP @20 Assem-esfregona-8801 #
fmesh-eye-attrib $-1 -1 $199 $88 $51 #
truecolor-adesk-attrib $-1 -1 $200 $-1 $89 -1029000765 #
face $201 -1 $-1 $202 $203 $3 $-1 $204 reversed single #
plane-surface $-1 -1 $-1 98.662844877108341 159.13064870190635 182.50677800817192 -0.62808370611916076 -0.7707398583414885 -0.10710242234124445 -0.60661503003497508 0.39876625046246861 0.68775263200352121 forward_v I I I I #
coedge $-1 -1 $-1 $205 $206 $207 $208 forward $90 $-1 #
coedge $-1 -1 $-1 $209 $92 $210 $211 forward $52 $-1 #
coedge $-1 -1 $-1 $92 $209 $212 $213 forward $52 $-1 #
coedge $-1 -1 $-1 $214 $215 $92 $147 reversed $203 $-1 #
edge $216 -1 $-1 $217 -3.0505578755523715 $218 -1.6618311048323013 $92 $219 forward @7 unknown #
coedge $-1 -1 $-1 $94 $93 $220 $221 forward $30 $-1 #
coedge $-1 -1 $-1 $222 $223 $93 $150 reversed $224 $-1 #
edge $225 -1 $-1 $157 0 $226 0.029999999999999999 $93 $227 forward @7 unknown #
coedge $-1 -1 $-1 $228 $229 $94 $152 reversed $230 $-1 #
edge $231 -1 $-1 $232 -0.029999999999999999 $158 0 $94 $233 forward @7 unknown #
coedge $-1 -1 $-1 $234 $95 $229 $235 reversed $155 $-1 #
coedge $-1 -1 $-1 $95 $236 $222 $237 forward $155 $-1 #
loop $-1 -1 $-1 $-1 $236 $238 #
truecolor-adesk-attrib $-1 -1 $239 $-1 $96 -1029000765 #
vertex $-1 -1 $-1 $96 $240 #
vertex $-1 -1 $-1 $96 $241 #
ellipse-curve $-1 -1 $-1 104.94368193829996 166.83804728532124 183.57780223158437 -0.62808370611916076 -0.7707398583414885 -0.10710242234124445 -6.6727653303847259 4.386428755087155 7.5652789520387334 1 F -1.4797615487574711 F -0.091034778037415165 #
coedge $-1 -1 $-1 $242 $242 $97 $161 forward $243 $-1 #
edge $244 -1 $-1 $169 -3.1415926535897931 $166 1.224646799147353e-16 $97 $245 forward @7 unknown #
coedge $-1 -1 $-1 $100 $98 $102 $171 forward $164 $-1 #
coedge $-1 -1 $-1 $98 $100 $242 $246 reversed $164 $-1 #
loop $-1 -1 $-1 $-1 $98 $247 #
truecolor-adesk-attrib $-1 -1 $248 $-1 $99 -1029000765 #
vertex $-1 -1 $-1 $99 $249 #
straight-curve $-1 -1 $-1 99.484146667985186 170.42694353948346 189.76757591961606 628.08370611916075 770.73985834148846 107.10242234124445 F 0 F 0.029999999999999999 #
truecolor-adesk-attrib $-1 -1 $250 $-1 $101 -1029000765 #
vertex $-1 -1 $-1 $161 $251 #
straight-curve $-1 -1 $-1 110.40321720861473 163.24915103115902 177.38802854355268 628.08370611916075 770.73985834148846 107.10242234124445 F 0 F 0.029999999999999999 #
edge $252 -1 $-1 $106 1.224646799147353e-16 $105 3.1415926535897931 $162 $253 forward @7 unknown #
face $254 -1 $-1 $238 $103 $3 $-1 $255 reversed single #
DXID-attrib $-1 -1 $-1 $104 $58 @18 ASM_EDGE_FROM_STEP @4 1240 #
point $-1 -1 $-1 110.40321720861473 163.24915103115902 177.38802854355268 #
point $-1 -1 $-1 99.484146667985186 170.42694353948346 189.76757591961606 #
coedge $-1 -1 $-1 $108 $108 $111 $180 reversed $177 $-1 #
loop $-1 -1 $-1 $155 $176 $238 #
truecolor-adesk-attrib $-1 -1 $256 $-1 $109 -1029000765 #
ellipse-curve $-1 -1 $-1 104.94368193829996 166.83804728532124 183.57780223158437 -0.62808370611916076 -0.7707398583414885 -0.10710242234124445 -7.8859953904546778 5.1839612560120933 8.9407842160457776 1 F 1.2246467991473532e-16 F 3.1415926535897931 #
edge $257 -1 $-1 $117 -3.1415926535897931 $114 1.2246467991473532e-16 $176 $258 forward @7 unknown #
face $259 -1 $-1 $128 $112 $3 $-1 $260 forward single #
DXID-attrib $-1 -1 $-1 $113 $61 @18 ASM_EDGE_FROM_STEP @3 398 #
point $-1 -1 $-1 97.057686547845279 172.02200854133332 192.51858644763013 #
DXID-attrib $-1 -1 $-1 $116 $63 @18 ASM_EDGE_FROM_STEP @4 2188 #
point $-1 -1 $-1 112.82967732875463 161.65408602930916 174.63701801553859 #
truecolor-adesk-attrib $-1 -1 $261 $-1 $119 -1029000765 #
ellipse-curve $-1 -1 $-1 98.662844877108341 159.13064870190635 182.50677800817192 -0.62808370611916076 -0.7707398583414885 -0.10710242234124445 -7.8859953904546778 5.1839612560120933 8.9407842160457776 1 F -3.1415926535897931 F 1.2246467991473532e-16 #
DXID-attrib $-1 -1 $-1 $125 $71 @18 ASM_EDGE_FROM_STEP @5 14570 #
truecolor-adesk-attrib $-1 -1 $262 $-1 $127 -1029000765 #
ellipse-curve $-1 -1 $-1 98.662844877108341 159.13064870190635 182.50677800817192 -0.62808370611916076 -0.7707398583414885 -0.10710242234124445 -3.6396901802098505 2.3925975027748114 4.1265157920211273 1 F -3.1415926535897931 F 1.2246467991473535e-16 #
truecolor-adesk-attrib $-1 -1 $263 $-1 $128 -1029000765 #
cone-surface $-1 -1 $-1 83.588835930248479 140.63289210171064 179.93631987198205 0.62808370611916076 0.7707398583414885 0.10710242234124445 3.6396901802098505 -2.3925975027748114 -4.1265157920211273 1 I I 0 1 6.0000000000000009 forward I I I I #
DXID-attrib $-1 -1 $-1 $133 $81 @18 ASM_EDGE_FROM_STEP @4 8364 #
fmesh-eye-attrib $-1 -1 $264 $135 $82 #
truecolor-adesk-attrib $-1 -1 $265 $-1 $136 -1029000765 #
face $266 -1 $-1 $267 $230 $3 $-1 $268 forward single #
loop $-1 -1 $-1 $-1 $269 $136 #
plane-surface $-1 -1 $-1 98.390162103158289 171.32264595109325 189.73732758483689 -0.48736953479191386 0.49693616114733136 -0.71800096678268288 0.60661503003497508 -0.39876625046246855 -0.68775263200352132 forward_v I I I I #
DXID-attrib $-1 -1 $-1 $139 $51 @18 ASM_FACE_FROM_STEP @21 Assem-esfregona-14196 #
fmesh-eye-attrib $-1 -1 $270 $140 $89 #
truecolor-adesk-attrib $-1 -1 $271 $-1 $141 -1029000765 #
face $272 -1 $-1 $247 $273 $3 $-1 $274 forward single #
loop $-1 -1 $-1 $243 $220 $141 #
plane-surface $-1 -1 $-1 123.78619312187477 189.9602430355659 186.7908749018217 -0.62808370611916076 -0.7707398583414885 -0.10710242234124445 -0.60661503003497508 0.39876625046246861 0.68775263200352121 forward_v I I I I #
coedge $-1 -1 $-1 $275 $143 $276 $277 forward $90 $-1 #
coedge $-1 -1 $-1 $143 $275 $278 $279 forward $90 $-1 #
coedge $-1 -1 $-1 $280 $281 $143 $208 reversed $203 $-1 #
edge $282 -1 $-1 $283 1.6618311048323151 $284 3.0505578755523852 $143 $285 forward @7 unknown #
coedge $-1 -1 $-1 $145 $144 $286 $287 reversed $52 $-1 #
coedge $-1 -1 $-1 $288 $289 $144 $211 reversed $290 $-1 #
edge $291 -1 $-1 $218 -0.029999999999999999 $292 0 $144 $293 forward @7 unknown #
coedge $-1 -1 $-1 $294 $295 $145 $213 reversed $296 $-1 #
edge $297 -1 $-1 $298 0 $217 0.029999999999999999 $145 $299 forward @7 unknown #
coedge $-1 -1 $-1 $300 $146 $295 $301 forward $203 $-1 #
coedge $-1 -1 $-1 $146 $302 $288 $303 forward $203 $-1 #
truecolor-adesk-attrib $-1 -1 $304 $-1 $147 -1029000765 #
vertex $-1 -1 $-1 $147 $305 #
vertex $-1 -1 $-1 $147 $306 #
ellipse-curve $-1 -1 $-1 123.78619312187477 189.9602430355659 186.7908749018217 -0.62808370611916076 -0.7707398583414885 -0.10710242234124445 -6.6727653303847259 4.386428755087155 7.5652789520387334 1 F -3.0505578755523715 F -1.6618311048323013 #
coedge $-1 -1 $-1 $307 $308 $148 $221 reversed $203 $-1 #
edge $309 -1 $-1 $226 -1.4797615487574711 $232 -0.091034778037415165 $148 $310 forward @7 unknown #
coedge $-1 -1 $-1 $311 $149 $154 $237 reversed $224 $-1 #
coedge $-1 -1 $-1 $149 $311 $307 $312 reversed $224 $-1 #
loop $-1 -1 $-1 $-1 $149 $313 #
truecolor-adesk-attrib $-1 -1 $314 $-1 $150 -1029000765 #
vertex $-1 -1 $-1 $150 $315 #
straight-curve $-1 -1 $-1 109.67593266919151 161.79315063377544 192.13086137993582 628.08370611916075 770.73985834148846 107.10242234124445 F 0 F 0.029999999999999999 #
coedge $-1 -1 $-1 $316 $151 $308 $317 reversed $230 $-1 #
coedge $-1 -1 $-1 $151 $316 $153 $235 forward $230 $-1 #
loop $-1 -1 $-1 $-1 $151 $196 #
truecolor-adesk-attrib $-1 -1 $318 $-1 $152 -1029000765 #
vertex $-1 -1 $-1 $221 $319 #
straight-curve $-1 -1 $-1 98.785916759655265 170.7093765351749 191.82975580900461 -628.08370611916075 -770.73985834148846 -107.10242234124445 F -0.029999999999999999 F 0 #
coedge $-1 -1 $-1 $320 $153 $321 $322 reversed $155 $-1 #
edge $323 -1 $-1 $324 -0.0020000000000000018 $158 -0.00095445115010332369 $153 $325 forward @7 unknown #
coedge $-1 -1 $-1 $154 $326 $327 $328 reversed $155 $-1 #
edge $329 -1 $-1 $330 -0.012 $157 -0.010954451150103324 $154 $331 forward @7 unknown #
face $332 -1 $-1 $181 $177 $3 $-1 $333 reversed single #
DXID-attrib $-1 -1 $-1 $156 $96 @18 ASM_EDGE_FROM_STEP @5 12683 #
point $-1 -1 $-1 109.67593266919151 161.79315063377544 192.13086137993582 #
point $-1 -1 $-1 98.785916759655265 170.7093765351749 191.82975580900461 #
coedge $-1 -1 $-1 $160 $160 $163 $246 forward $243 $-1 #
loop $-1 -1 $-1 $-1 $160 $141 #
truecolor-adesk-attrib $-1 -1 $334 $-1 $161 -1029000765 #
ellipse-curve $-1 -1 $-1 123.78619312187477 189.9602430355659 186.7908749018217 -0.62808370611916076 -0.7707398583414885 -0.10710242234124445 -5.4595352703147757 3.5888962541622176 6.1897736880316909 1 F -3.1415926535897931 F 1.224646799147353e-16 #
edge $335 -1 $-1 $166 1.224646799147353e-16 $169 3.1415926535897931 $242 $336 forward @7 unknown #
face $337 -1 $-1 $172 $164 $3 $-1 $338 reversed single #
DXID-attrib $-1 -1 $-1 $165 $99 @18 ASM_EDGE_FROM_STEP @4 8112 #
point $-1 -1 $-1 118.32665785156 193.54913928972812 192.98064858985339 #
DXID-attrib $-1 -1 $-1 $168 $101 @18 ASM_EDGE_FROM_STEP @4 5829 #
point $-1 -1 $-1 129.24572839218956 186.37134678140367 180.60110121379 #
truecolor-adesk-attrib $-1 -1 $339 $-1 $171 -1029000765 #
ellipse-curve $-1 -1 $-1 104.94368193829996 166.83804728532124 183.57780223158437 -0.62808370611916076 -0.7707398583414885 -0.10710242234124445 -5.4595352703147757 3.5888962541622176 6.1897736880316909 1 F 1.224646799147353e-16 F 3.1415926535897931 #
truecolor-adesk-attrib $-1 -1 $340 $-1 $172 -1029000765 #
plane-surface $-1 -1 $-1 104.94368193829996 166.83804728532124 183.57780223158437 -0.62808370611916076 -0.7707398583414885 -0.10710242234124445 -0.60661503003497508 0.39876625046246861 0.68775263200352121 forward_v I I I I #
DXID-attrib $-1 -1 $-1 $178 $109 @18 ASM_EDGE_FROM_STEP @4 6537 #
truecolor-adesk-attrib $-1 -1 $341 $-1 $180 -1029000765 #
ellipse-curve $-1 -1 $-1 104.94368193829996 166.83804728532124 183.57780223158437 -0.62808370611916076 -0.7707398583414885 -0.10710242234124445 -7.8859953904546778 5.1839612560120933 8.9407842160457776 1 F -3.1415926535897931 F 1.2246467991473532e-16 #
truecolor-adesk-attrib $-1 -1 $342 $-1 $181 -1029000765 #
cone-surface $-1 -1 $-1 98.662844877108341 159.13064870190635 182.50677800817192 0.62808370611916076 0.7707398583414885 0.10710242234124445 7.8859953904546778 -5.1839612560120933 -8.9407842160457776 1 I I 0 1 13.000000000000004 forward I I I I #
DXID-attrib $-1 -1 $-1 $186 $119 @18 ASM_EDGE_FROM_STEP @5 10701 #
DXID-attrib $-1 -1 $-1 $189 $127 @18 ASM_EDGE_FROM_STEP @3 274 #
fmesh-eye-attrib $-1 -1 $343 $191 $128 #
DXID-attrib $-1 -1 $-1 $194 $82 @18 ASM_FACE_FROM_STEP @20 Assem-esfregona-8822 #
fmesh-eye-attrib $-1 -1 $344 $195 $136 #
truecolor-adesk-attrib $-1 -1 $345 $-1 $196 -1029000765 #
face $346 -1 $-1 $347 $348 $3 $-1 $349 forward single #
plane-surface $-1 -1 $-1 99.364901172742123 170.32877362879859 191.17332951840226 0.48736953479191386 -0.49693616114733136 0.71800096678268288 -0.60661503003497508 0.39876625046246855 0.68775263200352132 forward_v I I I I #
coedge $-1 -1 $-1 $350 $351 $352 $353 reversed $197 $-1 #
DXID-attrib $-1 -1 $-1 $200 $89 @18 ASM_FACE_FROM_STEP @20 Assem-esfregona-7939 #
fmesh-eye-attrib $-1 -1 $354 $201 $141 #
truecolor-adesk-attrib $-1 -1 $355 $-1 $202 -1029000765 #
loop $-1 -1 $-1 $-1 $356 $202 #
cone-surface $-1 -1 $-1 104.94368193829996 166.83804728532124 183.57780223158437 0.62808370611916076 0.7707398583414885 0.10710242234124445 6.6727653303847259 -4.386428755087155 -7.5652789520387334 1 I I 0 1 11 forward I I I I #
coedge $-1 -1 $-1 $206 $205 $357 $358 reversed $90 $-1 #
coedge $-1 -1 $-1 $359 $360 $205 $277 reversed $361 $-1 #
edge $362 -1 $-1 $284 -0.029999999999999999 $363 0 $205 $364 forward @7 unknown #
coedge $-1 -1 $-1 $365 $366 $206 $279 reversed $367 $-1 #
edge $368 -1 $-1 $369 0 $283 0.029999999999999999 $206 $370 forward @7 unknown #
coedge $-1 -1 $-1 $371 $207 $366 $372 forward $203 $-1 #
coedge $-1 -1 $-1 $207 $300 $359 $373 forward $203 $-1 #
truecolor-adesk-attrib $-1 -1 $374 $-1 $208 -1029000765 #
vertex $-1 -1 $-1 $208 $375 #
vertex $-1 -1 $-1 $208 $376 #
ellipse-curve $-1 -1 $-1 123.78619312187477 189.9602430355659 186.7908749018217 -0.62808370611916076 -0.7707398583414885 -0.10710242234124445 -6.6727653303847259 4.386428755087155 7.5652789520387334 1 F 1.6618311048323151 F 3.0505578755523852 #
coedge $-1 -1 $-1 $326 $377 $209 $287 forward $155 $-1 #
edge $378 -1 $-1 $298 -3.0505578755523715 $292 -1.6618311048323013 $209 $379 forward @7 unknown #
coedge $-1 -1 $-1 $380 $210 $215 $303 reversed $290 $-1 #
coedge $-1 -1 $-1 $210 $380 $326 $381 forward $290 $-1 #
loop $-1 -1 $-1 $-1 $210 $382 #
truecolor-adesk-attrib $-1 -1 $383 $-1 $211 -1029000765 #
vertex $-1 -1 $-1 $211 $384 #
straight-curve $-1 -1 $-1 110.88916272926147 160.9956181328505 190.75535611592878 -628.08370611916075 -770.73985834148846 -107.10242234124445 F -0.029999999999999999 F 0 #
coedge $-1 -1 $-1 $385 $212 $377 $386 reversed $296 $-1 #
coedge $-1 -1 $-1 $212 $385 $214 $301 reversed $296 $-1 #
loop $-1 -1 $-1 $-1 $212 $387 #
truecolor-adesk-attrib $-1 -1 $388 $-1 $213 -1029000765 #
vertex $-1 -1 $-1 $287 $389 #
straight-curve $-1 -1 $-1 112.0761861865285 161.97284571317289 176.76185058772955 628.08370611916075 770.73985834148846 107.10242234124445 F 0 F 0.029999999999999999 #
coedge $-1 -1 $-1 $281 $214 $390 $391 forward $203 $-1 #
edge $392 -1 $-1 $217 0.00095445115010332152 $393 0.0019999999999999996 $214 $394 forward @7 unknown #
coedge $-1 -1 $-1 $215 $307 $395 $396 forward $203 $-1 #
edge $397 -1 $-1 $398 -0.0020000000000000018 $218 -0.00095445115010332369 $215 $399 forward @7 unknown #
DXID-attrib $-1 -1 $-1 $216 $147 @18 ASM_EDGE_FROM_STEP @5 11159 #
point $-1 -1 $-1 130.9186973701033 185.09504146341754 179.97492325796688 #
point $-1 -1 $-1 129.7316739128363 184.11781388309515 193.96842878616613 #
coedge $-1 -1 $-1 $302 $220 $223 $312 forward $203 $-1 #
coedge $-1 -1 $-1 $220 $400 $228 $317 forward $203 $-1 #
truecolor-adesk-attrib $-1 -1 $401 $-1 $221 -1029000765 #
ellipse-curve $-1 -1 $-1 123.78619312187477 189.9602430355659 186.7908749018217 -0.62808370611916076 -0.7707398583414885 -0.10710242234124445 -6.6727653303847259 4.386428755087155 7.5652789520387334 1 F -1.4797615487574711 F -0.091034778037415165 #
coedge $-1 -1 $-1 $223 $222 $402 $403 forward $224 $-1 #
edge $404 -1 $-1 $226 0.00095445115010332478 $405 0.0020000000000000005 $307 $406 forward @7 unknown #
face $407 -1 $-1 $382 $224 $3 $-1 $408 forward single #
DXID-attrib $-1 -1 $-1 $225 $150 @18 ASM_EDGE_FROM_STEP @4 8134 #
point $-1 -1 $-1 128.51844385276632 184.9153463840201 195.34393405017315 #
coedge $-1 -1 $-1 $229 $228 $409 $410 reversed $230 $-1 #
edge $411 -1 $-1 $412 -0.0020000000000000018 $232 -0.00095445115010332369 $308 $413 forward @7 unknown #
DXID-attrib $-1 -1 $-1 $231 $152 @18 ASM_EDGE_FROM_STEP @4 8018 #
point $-1 -1 $-1 117.62842794323009 193.83157228541955 195.04282847924193 #
coedge $-1 -1 $-1 $414 $234 $350 $415 forward $155 $-1 #
coedge $-1 -1 $-1 $409 $416 $234 $322 forward $348 $-1 #
edge $417 -1 $-1 $418 -0.002 $324 0 $234 $419 forward @7 unknown #
truecolor-adesk-attrib $-1 -1 $420 $-1 $235 -1029000765 #
vertex $-1 -1 $-1 $235 $421 #
straight-curve $-1 -1 $-1 99.364901172742123 170.32877362879859 191.17332951840226 606.61503003497512 -398.76625046246858 -687.75263200352128 F -0.0020000000000000018 F -0.00095445115010332369 #
coedge $-1 -1 $-1 $236 $286 $289 $381 reversed $155 $-1 #
coedge $-1 -1 $-1 $422 $402 $236 $328 forward $423 $-1 #
edge $424 -1 $-1 $330 -0.002 $425 0 $236 $426 forward @7 unknown #
truecolor-adesk-attrib $-1 -1 $427 $-1 $237 -1029000765 #
vertex $-1 -1 $-1 $328 $428 #
straight-curve $-1 -1 $-1 104.33706690826497 167.23681353578371 184.26555486358788 -487.36953479190748 496.93616114732714 -718.00096678269017 F -0.012 F -0.010954451150103324 #
truecolor-adesk-attrib $-1 -1 $429 $-1 $238 -1029000765 #
plane-surface $-1 -1 $-1 104.94368193829996 166.83804728532124 183.57780223158437 -0.62808370611916076 -0.7707398583414885 -0.10710242234124445 -0.60661503003497508 0.39876625046246861 0.68775263200352121 forward_v I I I I #
DXID-attrib $-1 -1 $-1 $244 $161 @18 ASM_EDGE_FROM_STEP @5 13143 #
truecolor-adesk-attrib $-1 -1 $430 $-1 $246 -1029000765 #
ellipse-curve $-1 -1 $-1 123.78619312187477 189.9602430355659 186.7908749018217 -0.62808370611916076 -0.7707398583414885 -0.10710242234124445 -5.4595352703147757 3.5888962541622176 6.1897736880316909 1 F 1.224646799147353e-16 F 3.1415926535897931 #
truecolor-adesk-attrib $-1 -1 $431 $-1 $247 -1029000765 #
cone-surface $-1 -1 $-1 104.94368193829996 166.83804728532124 183.57780223158437 0.62808370611916076 0.7707398583414885 0.10710242234124445 5.4595352703147757 -3.5888962541622176 -6.1897736880316909 1 I I 0 1 9 forward I I I I #
DXID-attrib $-1 -1 $-1 $252 $171 @18 ASM_EDGE_FROM_STEP @3 419 #
fmesh-eye-attrib $-1 -1 $432 $254 $172 #
DXID-attrib $-1 -1 $-1 $257 $180 @18 ASM_EDGE_FROM_STEP @5 15088 #
fmesh-eye-attrib $-1 -1 $433 $259 $181 #
DXID-attrib $-1 -1 $-1 $263 $128 @18 ASM_FACE_FROM_STEP @21 Assem-esfregona-11184 #
DXID-attrib $-1 -1 $-1 $265 $136 @18 ASM_FACE_FROM_STEP @20 Assem-esfregona-4896 #
fmesh-eye-attrib $-1 -1 $434 $266 $196 #
truecolor-adesk-attrib $-1 -1 $435 $-1 $267 -1029000765 #
face $436 -1 $-1 $437 $367 $3 $-1 $438 forward single #
loop $-1 -1 $-1 $-1 $439 $267 #
plane-surface $-1 -1 $-1 98.151671112672162 171.12630612972353 192.5488347824093 -0.60661503003497508 0.39876625046246861 0.68775263200352121 -0.48736953479191381 0.4969361611473313 -0.71800096678268299 forward_v I I I I #
coedge $-1 -1 $-1 $440 $269 $320 $415 reversed $197 $-1 #
coedge $-1 -1 $-1 $269 $440 $441 $442 reversed $197 $-1 #
coedge $-1 -1 $-1 $356 $443 $269 $353 forward $273 $-1 #
edge $444 -1 $-1 $445 0 $446 0.029999999999999999 $352 $447 forward @7 unknown #
DXID-attrib $-1 -1 $-1 $271 $141 @18 ASM_FACE_FROM_STEP @21 Assem-esfregona-14060 #
fmesh-eye-attrib $-1 -1 $448 $272 $202 #
coedge $-1 -1 $-1 $449 $352 $450 $451 forward $273 $-1 #
coedge $-1 -1 $-1 $452 $453 $275 $358 forward $155 $-1 #
edge $454 -1 $-1 $369 1.6618311048323151 $363 3.0505578755523852 $275 $455 forward @7 unknown #
coedge $-1 -1 $-1 $456 $276 $281 $373 reversed $361 $-1 #
coedge $-1 -1 $-1 $276 $456 $452 $457 forward $361 $-1 #
loop $-1 -1 $-1 $-1 $276 $458 #
truecolor-adesk-attrib $-1 -1 $459 $-1 $277 -1029000765 #
vertex $-1 -1 $-1 $277 $460 #
straight-curve $-1 -1 $-1 111.10144711694467 162.96671803546755 175.32584865416416 -628.08370611916075 -770.73985834148846 -107.10242234124445 F -0.029999999999999999 F 0 #
coedge $-1 -1 $-1 $461 $278 $453 $462 reversed $367 $-1 #
coedge $-1 -1 $-1 $278 $461 $280 $372 reversed $367 $-1 #
loop $-1 -1 $-1 $-1 $278 $347 #
truecolor-adesk-attrib $-1 -1 $463 $-1 $279 -1029000765 #
vertex $-1 -1 $-1 $358 $464 #
straight-curve $-1 -1 $-1 100.21143120740835 171.88294393686706 175.02474308323295 628.08370611916075 770.73985834148846 107.10242234124445 F 0 F 0.029999999999999999 #
coedge $-1 -1 $-1 $465 $280 $466 $467 forward $203 $-1 #
edge $468 -1 $-1 $283 0.00095445115010332261 $469 0.0020000000000000005 $280 $470 forward @7 unknown #
edge $471 -1 $-1 $472 -0.0020000000000000018 $284 -0.00095445115010332369 $281 $473 forward @7 unknown #
DXID-attrib $-1 -1 $-1 $282 $208 @18 ASM_EDGE_FROM_STEP @5 13066 #
point $-1 -1 $-1 119.05394239098317 195.00513968711172 178.2378157534703 #
point $-1 -1 $-1 129.94395830051948 186.08891378571221 178.53892132440149 #
coedge $-1 -1 $-1 $286 $474 $294 $386 forward $155 $-1 #
truecolor-adesk-attrib $-1 -1 $475 $-1 $287 -1029000765 #
ellipse-curve $-1 -1 $-1 104.94368193829996 166.83804728532124 183.57780223158437 -0.62808370611916076 -0.7707398583414885 -0.10710242234124445 -6.6727653303847259 4.386428755087155 7.5652789520387334 1 F -3.0505578755523715 F -1.6618311048323013 #
coedge $-1 -1 $-1 $289 $288 $422 $476 reversed $290 $-1 #
edge $477 -1 $-1 $425 -0.0020000000000000018 $292 -0.00095445115010332369 $326 $478 forward @7 unknown #
face $479 -1 $-1 $480 $290 $3 $-1 $481 forward single #
DXID-attrib $-1 -1 $-1 $291 $211 @18 ASM_EDGE_FROM_STEP @4 3225 #
point $-1 -1 $-1 110.88916272926147 160.9956181328505 190.75535611592878 #
coedge $-1 -1 $-1 $295 $294 $482 $483 forward $296 $-1 #
edge $484 -1 $-1 $485 -0.012 $298 -0.010954451150103321 $377 $486 forward @7 unknown #
face $487 -1 $-1 $458 $296 $3 $-1 $488 forward single #
DXID-attrib $-1 -1 $-1 $297 $213 @18 ASM_EDGE_FROM_STEP @5 12316 #
point $-1 -1 $-1 112.0761861865285 161.97284571317289 176.76185058772955 #
coedge $-1 -1 $-1 $482 $489 $300 $391 reversed $490 $-1 #
edge $491 -1 $-1 $393 -0.002 $472 0 $300 $492 forward @7 unknown #
truecolor-adesk-attrib $-1 -1 $493 $-1 $301 -1029000765 #
vertex $-1 -1 $-1 $301 $494 #
straight-curve $-1 -1 $-1 130.33971295701647 185.47564436979386 180.63134954856923 606.61503003497842 -398.76625046247204 -687.75263200351628 F 0.00095445115010332152 F 0.0019999999999999996 #
coedge $-1 -1 $-1 $402 $422 $302 $396 reversed $423 $-1 #
edge $495 -1 $-1 $405 -0.002 $398 0 $302 $496 forward @7 unknown #
truecolor-adesk-attrib $-1 -1 $497 $-1 $303 -1029000765 #
vertex $-1 -1 $-1 $396 $498 #
straight-curve $-1 -1 $-1 129.26650349982881 184.59211517363016 193.28313193764509 -487.36953479190748 496.93616114732714 -718.00096678269017 F -0.0020000000000000018 F -0.00095445115010332369 #
coedge $-1 -1 $-1 $308 $441 $439 $499 forward $203 $-1 #
DXID-attrib $-1 -1 $-1 $309 $221 @18 ASM_EDGE_FROM_STEP @4 6732 #
coedge $-1 -1 $-1 $327 $395 $311 $403 reversed $423 $-1 #
edge $500 -1 $-1 $330 0 $405 0.029999999999999999 $311 $501 forward @7 unknown #
truecolor-adesk-attrib $-1 -1 $502 $-1 $312 -1029000765 #
vertex $-1 -1 $-1 $312 $503 #
straight-curve $-1 -1 $-1 128.05327343975887 185.38964767455511 194.65863720165211 487.36953479190748 -496.93616114732714 718.00096678269017 F 0.00095445115010332478 F 0.0020000000000000005 #
truecolor-adesk-attrib $-1 -1 $504 $-1 $313 -1029000765 #
plane-surface $-1 -1 $-1 109.21076225618404 162.26745192431045 191.44556453141479 -0.60661503003498018 0.39876625046247377 0.68775263200351378 -0.48736953479190748 0.49693616114732714 -0.7180009667826901 forward_v I I I I #
coedge $-1 -1 $-1 $439 $321 $316 $410 forward $348 $-1 #
edge $505 -1 $-1 $324 0 $412 0.029999999999999999 $316 $506 forward @7 unknown #
truecolor-adesk-attrib $-1 -1 $507 $-1 $317 -1029000765 #
vertex $-1 -1 $-1 $499 $508 #
straight-curve $-1 -1 $-1 118.20741235631694 193.45096937904324 194.38640218863958 606.61503003497512 -398.76625046246858 -687.75263200352128 F -0.0020000000000000018 F -0.00095445115010332369 #
coedge $-1 -1 $-1 $509 $320 $443 $510 forward $155 $-1 #
edge $511 -1 $-1 $418 -0.012000000000000002 $445 -0.010954451150103324 $320 $512 forward @7 unknown #
coedge $-1 -1 $-1 $321 $439 $440 $513 reversed $348 $-1 #
truecolor-adesk-attrib $-1 -1 $514 $-1 $322 -1029000765 #
vertex $-1 -1 $-1 $322 $515 #
straight-curve $-1 -1 $-1 98.151671112672162 171.12630612972353 192.5488347824093 487.36953479191379 -496.93616114733129 718.00096678268301 F -0.002 F 0 #
DXID-attrib $-1 -1 $-1 $323 $235 @18 ASM_EDGE_FROM_STEP @5 12283 #
point $-1 -1 $-1 98.151671112672162 171.12630612972353 192.5488347824093 #
coedge $-1 -1 $-1 $395 $327 $380 $476 forward $423 $-1 #
loop $-1 -1 $-1 $-1 $395 $480 #
truecolor-adesk-attrib $-1 -1 $516 $-1 $328 -1029000765 #
vertex $-1 -1 $-1 $328 $517 #
straight-curve $-1 -1 $-1 111.39873138583782 160.47604710109084 191.50606120097314 606.61503003498024 -398.76625046247381 -687.75263200351367 F -0.002 F 0 #
DXID-attrib $-1 -1 $-1 $329 $237 @18 ASM_EDGE_FROM_STEP @4 9782 #
point $-1 -1 $-1 110.18550132576786 161.27357960201579 192.88156646498015 #
fmesh-eye-attrib $-1 -1 $518 $332 $238 #
DXID-attrib $-1 -1 $-1 $335 $246 @18 ASM_EDGE_FROM_STEP @4 8898 #
fmesh-eye-attrib $-1 -1 $519 $337 $247 #
DXID-attrib $-1 -1 $-1 $340 $172 @18 ASM_FACE_FROM_STEP @21 Assem-esfregona-13524 #
DXID-attrib $-1 -1 $-1 $342 $181 @18 ASM_FACE_FROM_STEP @20 Assem-esfregona-8389 #
DXID-attrib $-1 -1 $-1 $345 $196 @18 ASM_FACE_FROM_STEP @21 Assem-esfregona-11849 #
fmesh-eye-attrib $-1 -1 $520 $346 $267 #
truecolor-adesk-attrib $-1 -1 $521 $-1 $347 -1029000765 #
face $522 -1 $-1 $523 $524 $3 $-1 $525 forward single #
plane-surface $-1 -1 $-1 100.67660162041581 171.40864264633205 175.71003993175398 0.60661503003497674 -0.39876625046247027 -0.68775263200351877 0.48736953479191175 -0.49693616114732997 0.71800096678268532 forward_v I I I I #
coedge $-1 -1 $-1 $416 $409 $400 $499 reversed $348 $-1 #
coedge $-1 -1 $-1 $351 $350 $416 $513 forward $197 $-1 #
coedge $-1 -1 $-1 $400 $450 $351 $442 forward $203 $-1 #
edge $526 -1 $-1 $446 0.00095445115010332369 $527 0.0020000000000000018 $441 $528 forward @7 unknown #
coedge $-1 -1 $-1 $352 $449 $414 $510 reversed $273 $-1 #
truecolor-adesk-attrib $-1 -1 $529 $-1 $353 -1029000765 #
vertex $-1 -1 $-1 $510 $530 #
vertex $-1 -1 $-1 $451 $531 #
straight-curve $-1 -1 $-1 97.811177690071446 171.70324885746956 190.39375387543924 628.08370611916075 770.73985834148846 107.10242234124445 F 0 F 0.029999999999999999 #
DXID-attrib $-1 -1 $-1 $355 $202 @18 ASM_FACE_FROM_STEP @20 Assem-esfregona-1767 #
coedge $-1 -1 $-1 $443 $356 $532 $533 forward $273 $-1 #
coedge $-1 -1 $-1 $441 $465 $356 $451 reversed $203 $-1 #
edge $534 -1 $-1 $446 0.091034778037414998 $535 1.4797615487574849 $450 $536 forward @7 unknown #
coedge $-1 -1 $-1 $474 $357 $360 $457 reversed $155 $-1 #
coedge $-1 -1 $-1 $357 $537 $365 $462 forward $155 $-1 #
truecolor-adesk-attrib $-1 -1 $538 $-1 $358 -1029000765 #
ellipse-curve $-1 -1 $-1 104.94368193829996 166.83804728532124 183.57780223158437 -0.62808370611916076 -0.7707398583414885 -0.10710242234124445 -6.6727653303847259 4.386428755087155 7.5652789520387334 1 F 1.6618311048323151 F 3.0505578755523852 #
coedge $-1 -1 $-1 $360 $359 $489 $539 reversed $361 $-1 #
edge $540 -1 $-1 $541 -0.0020000000000000018 $363 -0.00095445115010332369 $452 $542 forward @7 unknown #
face $543 -1 $-1 $544 $361 $3 $-1 $545 forward single #
DXID-attrib $-1 -1 $-1 $362 $277 @18 ASM_EDGE_FROM_STEP @4 1562 #
point $-1 -1 $-1 111.10144711694467 162.96671803546755 175.32584865416416 #
coedge $-1 -1 $-1 $366 $365 $546 $547 forward $367 $-1 #
edge $548 -1 $-1 $549 -0.012000000000000002 $369 -0.010954451150103324 $453 $550 forward @7 unknown #
DXID-attrib $-1 -1 $-1 $368 $279 @18 ASM_EDGE_FROM_STEP @4 6243 #
point $-1 -1 $-1 100.21143120740835 171.88294393686706 175.02474308323295 #
coedge $-1 -1 $-1 $450 $371 $551 $552 forward $203 $-1 #
coedge $-1 -1 $-1 $546 $553 $371 $467 reversed $554 $-1 #
edge $555 -1 $-1 $469 -0.002 $556 0 $371 $557 forward @7 unknown #
truecolor-adesk-attrib $-1 -1 $558 $-1 $372 -1029000765 #
vertex $-1 -1 $-1 $372 $559 #
straight-curve $-1 -1 $-1 119.51911280399064 194.53083839657671 178.92311260199133 -487.36953479191175 496.93616114732993 -718.00096678268528 F 0.00095445115010332261 F 0.0020000000000000005 #
truecolor-adesk-attrib $-1 -1 $560 $-1 $373 -1029000765 #
vertex $-1 -1 $-1 $391 $561 #
straight-curve $-1 -1 $-1 129.36497388743265 186.46951669208849 179.19534761500384 -606.61503003497842 398.76625046247204 687.75263200351628 F -0.0020000000000000018 F -0.00095445115010332369 #
coedge $-1 -1 $-1 $377 $452 $562 $563 reversed $155 $-1 #
DXID-attrib $-1 -1 $-1 $378 $287 @18 ASM_EDGE_FROM_STEP @4 2621 #
edge $564 -1 $-1 $425 0 $398 0.029999999999999999 $380 $565 forward @7 unknown #
truecolor-adesk-attrib $-1 -1 $566 $-1 $381 -1029000765 #
straight-curve $-1 -1 $-1 110.42399231625402 161.46991942338551 190.07005926740774 -487.36953479190748 496.93616114732714 -718.00096678269017 F -0.0020000000000000018 F -0.00095445115010332369 #
truecolor-adesk-attrib $-1 -1 $567 $-1 $382 -1029000765 #
face $568 -1 $-1 $-1 $423 $3 $-1 $569 forward single #
plane-surface $-1 -1 $-1 110.42399231625402 161.46991942338551 190.07005926740774 0.60661503003498018 -0.39876625046247377 -0.68775263200351378 0.48736953479190748 -0.49693616114732714 0.7180009667826901 forward_v I I I I #
coedge $-1 -1 $-1 $562 $390 $385 $483 reversed $490 $-1 #
edge $570 -1 $-1 $485 0 $393 0.029999999999999999 $385 $571 forward @7 unknown #
truecolor-adesk-attrib $-1 -1 $572 $-1 $386 -1029000765 #
vertex $-1 -1 $-1 $563 $573 #
straight-curve $-1 -1 $-1 105.43105147309186 166.34111112417392 184.29580319836705 -606.61503003497842 398.76625046247204 687.75263200351628 F -0.012 F -0.010954451150103321 #
truecolor-adesk-attrib $-1 -1 $574 $-1 $387 -1029000765 #
plane-surface $-1 -1 $-1 111.49720177344165 162.3534486195492 177.41827687833188 0.48736953479190964 -0.49693616114732858 0.71800096678268766 -0.60661503003497841 0.39876625046247199 0.68775263200351633 forward_v I I I I #
coedge $-1 -1 $-1 $390 $562 $456 $539 forward $490 $-1 #
loop $-1 -1 $-1 $-1 $390 $544 #
truecolor-adesk-attrib $-1 -1 $575 $-1 $391 -1029000765 #
straight-curve $-1 -1 $-1 130.5782039475026 185.67198419116355 177.81984235099682 -487.36953479190959 496.93616114732851 -718.00096678268778 F -0.002 F 0 #
DXID-attrib $-1 -1 $-1 $392 $301 @18 ASM_EDGE_FROM_STEP @4 7169 #
point $-1 -1 $-1 131.55294301708642 184.67811186886891 179.25584428456219 #
truecolor-adesk-attrib $-1 -1 $576 $-1 $396 -1029000765 #
straight-curve $-1 -1 $-1 130.24124256941263 183.5982428513355 194.71913387121046 606.61503003498024 -398.76625046247381 -687.75263200351367 F -0.002 F 0 #
DXID-attrib $-1 -1 $-1 $397 $303 @18 ASM_EDGE_FROM_STEP @4 2096 #
point $-1 -1 $-1 130.24124256941263 183.5982428513355 194.71913387121046 #
edge $577 -1 $-1 $527 -0.002 $412 0 $400 $578 forward @7 unknown #
truecolor-adesk-attrib $-1 -1 $579 $-1 $403 -1029000765 #
straight-curve $-1 -1 $-1 110.18550132576786 161.27357960201579 192.88156646498015 628.08370611916075 770.73985834148846 107.10242234124445 F 0 F 0.029999999999999999 #
DXID-attrib $-1 -1 $-1 $404 $312 @18 ASM_EDGE_FROM_STEP @5 12875 #
point $-1 -1 $-1 129.02801250934269 184.39577535226044 196.09463913521748 #
fmesh-eye-attrib $-1 -1 $580 $407 $313 #
truecolor-adesk-attrib $-1 -1 $581 $-1 $410 -1029000765 #
straight-curve $-1 -1 $-1 98.151671112672162 171.12630612972353 192.5488347824093 628.08370611916075 770.73985834148846 107.10242234124445 F 0 F 0.029999999999999999 #
DXID-attrib $-1 -1 $-1 $411 $317 @18 ASM_EDGE_FROM_STEP @5 12100 #
point $-1 -1 $-1 116.99418229624699 194.24850187996819 195.76190745264662 #
coedge $-1 -1 $-1 $537 $414 $582 $583 reversed $155 $-1 #
edge $584 -1 $-1 $445 0.091034778037414998 $585 1.4797615487574849 $443 $586 forward @7 unknown #
truecolor-adesk-attrib $-1 -1 $587 $-1 $415 -1029000765 #
straight-curve $-1 -1 $-1 104.45631240350804 167.33498344646858 182.85980126480169 606.61503003497512 -398.76625046246858 -687.75263200352128 F -0.012000000000000002 F -0.010954451150103324 #
edge $588 -1 $-1 $418 0 $527 0.029999999999999999 $440 $589 forward @7 unknown #
DXID-attrib $-1 -1 $-1 $417 $322 @18 ASM_EDGE_FROM_STEP @4 1643 #
point $-1 -1 $-1 97.176932043088343 172.12017845201819 191.11283284884394 #
DXID-attrib $-1 -1 $-1 $424 $328 @18 ASM_EDGE_FROM_STEP @4 7520 #
point $-1 -1 $-1 111.39873138583782 160.47604710109084 191.50606120097314 #
DXID-attrib $-1 -1 $-1 $429 $238 @18 ASM_FACE_FROM_STEP @20 Assem-esfregona-5215 #
DXID-attrib $-1 -1 $-1 $431 $247 @18 ASM_FACE_FROM_STEP @20 Assem-esfregona-6249 #
DXID-attrib $-1 -1 $-1 $435 $267 @18 ASM_FACE_FROM_STEP @21 Assem-esfregona-12624 #
fmesh-eye-attrib $-1 -1 $590 $436 $347 #
truecolor-adesk-attrib $-1 -1 $591 $-1 $437 -1029000765 #
face $592 -1 $-1 $387 $554 $3 $-1 $593 forward single #
loop $-1 -1 $-1 $-1 $532 $437 #
plane-surface $-1 -1 $-1 99.463371560345863 172.206175147257 177.08554519576103 -0.60661503003497674 0.39876625046247027 0.68775263200351877 -0.48736953479191175 0.49693616114732997 -0.71800096678268532 forward_v I I I I #
truecolor-adesk-attrib $-1 -1 $594 $-1 $442 -1029000765 #
vertex $-1 -1 $-1 $442 $595 #
straight-curve $-1 -1 $-1 117.2326732867331 194.44484170133791 192.95040025507421 -606.61503003497512 398.76625046246858 687.75263200352128 F 0.00095445115010332369 F 0.0020000000000000018 #
DXID-attrib $-1 -1 $-1 $444 $353 @18 ASM_EDGE_FROM_STEP @4 4859 #
point $-1 -1 $-1 97.811177690071446 171.70324885746956 190.39375387543924 #
point $-1 -1 $-1 116.65368887364626 194.82544460771422 193.60682654567657 #
coedge $-1 -1 $-1 $551 $582 $449 $533 reversed $524 $-1 #
edge $596 -1 $-1 $535 -0.029999999999999999 $585 0 $449 $597 forward @7 unknown #
truecolor-adesk-attrib $-1 -1 $598 $-1 $451 -1029000765 #
vertex $-1 -1 $-1 $552 $599 #
ellipse-curve $-1 -1 $-1 123.78619312187477 189.9602430355659 186.7908749018217 -0.62808370611916076 -0.7707398583414885 -0.10710242234124445 -6.6727653303847259 4.386428755087155 7.5652789520387334 1 F 0.091034778037414998 F 1.4797615487574849 #
coedge $-1 -1 $-1 $453 $509 $600 $601 reversed $155 $-1 #
DXID-attrib $-1 -1 $-1 $454 $358 @18 ASM_EDGE_FROM_STEP @4 7233 #
edge $602 -1 $-1 $541 0 $472 0.029999999999999999 $456 $603 forward @7 unknown #
truecolor-adesk-attrib $-1 -1 $604 $-1 $457 -1029000765 #
vertex $-1 -1 $-1 $457 $605 #
straight-curve $-1 -1 $-1 110.52246270385783 163.34732094184386 175.98227494476652 -606.61503003497842 398.76625046247204 687.75263200351628 F -0.0020000000000000018 F -0.00095445115010332369 #
truecolor-adesk-attrib $-1 -1 $606 $-1 $458 -1029000765 #
face $607 -1 $-1 $313 $490 $3 $-1 $608 forward single #
plane-surface $-1 -1 $-1 110.52246270385783 163.34732094184386 175.98227494476652 -0.48736953479190964 0.49693616114732858 -0.71800096678268766 0.60661503003497841 -0.39876625046247199 -0.68775263200351633 forward_v I I I I #
coedge $-1 -1 $-1 $600 $466 $461 $547 reversed $554 $-1 #
edge $609 -1 $-1 $549 0 $469 0.029999999999999999 $461 $610 forward @7 unknown #
truecolor-adesk-attrib $-1 -1 $611 $-1 $462 -1029000765 #
vertex $-1 -1 $-1 $601 $612 #
straight-curve $-1 -1 $-1 105.55029696833493 166.43928103485877 182.89004959958083 487.36953479191175 -496.93616114732993 718.00096678268528 F -0.012000000000000002 F -0.010954451150103324 #
coedge $-1 -1 $-1 $613 $532 $465 $552 reversed $524 $-1 #
edge $614 -1 $-1 $556 -0.0019999999999999996 $535 -0.00095445115010332152 $465 $615 forward @7 unknown #
coedge $-1 -1 $-1 $466 $600 $613 $616 forward $554 $-1 #
loop $-1 -1 $-1 $-1 $466 $523 #
truecolor-adesk-attrib $-1 -1 $617 $-1 $467 -1029000765 #
vertex $-1 -1 $-1 $467 $618 #
straight-curve $-1 -1 $-1 117.33114367433686 196.32224321979632 178.86261593243299 -606.61503003497683 398.76625046247034 687.75263200351867 F -0.002 F 0 #
DXID-attrib $-1 -1 $-1 $468 $372 @18 ASM_EDGE_FROM_STEP @5 13576 #
point $-1 -1 $-1 118.5443737344068 195.52471071887138 177.48711066842594 #
DXID-attrib $-1 -1 $-1 $471 $373 @18 ASM_EDGE_FROM_STEP @5 13943 #
point $-1 -1 $-1 130.5782039475026 185.67198419116355 177.81984235099682 #
coedge $-1 -1 $-1 $489 $482 $474 $563 forward $490 $-1 #
edge $619 -1 $-1 $485 -0.002 $541 0 $474 $620 forward @7 unknown #
truecolor-adesk-attrib $-1 -1 $621 $-1 $476 -1029000765 #
straight-curve $-1 -1 $-1 111.39873138583782 160.47604710109084 191.50606120097314 628.08370611916075 770.73985834148846 107.10242234124445 F 0 F 0.029999999999999999 #
DXID-attrib $-1 -1 $-1 $477 $381 @18 ASM_EDGE_FROM_STEP @4 7457 #
fmesh-eye-attrib $-1 -1 $622 $479 $382 #
truecolor-adesk-attrib $-1 -1 $623 $-1 $480 -1029000765 #
plane-surface $-1 -1 $-1 111.39873138583782 160.47604710109084 191.50606120097314 0.48736953479190748 -0.49693616114732714 0.7180009667826901 -0.60661503003498018 0.39876625046247377 0.68775263200351378 forward_v I I I I #
truecolor-adesk-attrib $-1 -1 $624 $-1 $483 -1029000765 #
straight-curve $-1 -1 $-1 112.71043183351161 161.55591611862425 176.04277161432486 628.08370611916075 770.73985834148846 107.10242234124445 F 0 F 0.029999999999999999 #
DXID-attrib $-1 -1 $-1 $484 $386 @18 ASM_EDGE_FROM_STEP @4 1669 #
point $-1 -1 $-1 112.71043183351161 161.55591611862425 176.04277161432486 #
fmesh-eye-attrib $-1 -1 $625 $487 $387 #
DXID-attrib $-1 -1 $-1 $491 $391 @18 ASM_EDGE_FROM_STEP @3 748 #
DXID-attrib $-1 -1 $-1 $495 $396 @18 ASM_EDGE_FROM_STEP @4 5168 #
truecolor-adesk-attrib $-1 -1 $626 $-1 $499 -1029000765 #
straight-curve $-1 -1 $-1 116.99418229624699 194.24850187996819 195.76190745264662 487.36953479191379 -496.93616114733129 718.00096678268301 F -0.002 F 0 #
DXID-attrib $-1 -1 $-1 $500 $403 @18 ASM_EDGE_FROM_STEP @5 11941 #
DXID-attrib $-1 -1 $-1 $504 $313 @18 ASM_FACE_FROM_STEP @21 Assem-esfregona-13064 #
DXID-attrib $-1 -1 $-1 $505 $410 @18 ASM_EDGE_FROM_STEP @4 1850 #
coedge $-1 -1 $-1 $532 $613 $509 $583 forward $524 $-1 #
edge $627 -1 $-1 $628 -0.0019999999999999996 $585 -0.00095445115010332152 $509 $629 forward @7 unknown #
truecolor-adesk-attrib $-1 -1 $630 $-1 $510 -1029000765 #
vertex $-1 -1 $-1 $533 $631 #
ellipse-curve $-1 -1 $-1 104.94368193829996 166.83804728532124 183.57780223158437 -0.62808370611916076 -0.7707398583414885 -0.10710242234124445 -6.6727653303847259 4.386428755087155 7.5652789520387334 1 F 0.091034778037414998 F 1.4797615487574849 #
DXID-attrib $-1 -1 $-1 $511 $415 @18 ASM_EDGE_FROM_STEP @4 4686 #
truecolor-adesk-attrib $-1 -1 $632 $-1 $513 -1029000765 #
straight-curve $-1 -1 $-1 97.176932043088343 172.12017845201819 191.11283284884394 628.08370611916075 770.73985834148846 107.10242234124445 F 0 F 0.029999999999999999 #
DXID-attrib $-1 -1 $-1 $521 $347 @18 ASM_FACE_FROM_STEP @20 Assem-esfregona-6932 #
fmesh-eye-attrib $-1 -1 $633 $522 $437 #
truecolor-adesk-attrib $-1 -1 $634 $-1 $523 -1029000765 #
plane-surface $-1 -1 $-1 98.488632490762029 173.20004746955166 175.64954326219566 -0.4873695347919117 0.49693616114732991 -0.71800096678268532 0.60661503003497674 -0.39876625046247033 -0.68775263200351877 forward_v I I I I #
DXID-attrib $-1 -1 $-1 $526 $442 @18 ASM_EDGE_FROM_STEP @5 12768 #
point $-1 -1 $-1 116.01944322666316 195.24237420226285 194.32590551908126 #
truecolor-adesk-attrib $-1 -1 $635 $-1 $533 -1029000765 #
straight-curve $-1 -1 $-1 98.998201147338392 172.68047643779201 176.40024834723999 -628.08370611916075 -770.73985834148846 -107.10242234124445 F -0.029999999999999999 F 0 #
DXID-attrib $-1 -1 $-1 $534 $451 @18 ASM_EDGE_FROM_STEP @4 6086 #
point $-1 -1 $-1 117.84071233091322 195.80267218803667 179.61332101747732 #
coedge $-1 -1 $-1 $553 $546 $537 $601 forward $554 $-1 #
edge $636 -1 $-1 $549 -0.002 $628 0 $537 $637 forward @7 unknown #
truecolor-adesk-attrib $-1 -1 $638 $-1 $539 -1029000765 #
straight-curve $-1 -1 $-1 111.73569276392779 162.54978844091892 174.60676968075947 628.08370611916075 770.73985834148846 107.10242234124445 F 0 F 0.029999999999999999 #
DXID-attrib $-1 -1 $-1 $540 $457 @18 ASM_EDGE_FROM_STEP @5 10044 #
point $-1 -1 $-1 111.73569276392779 162.54978844091892 174.60676968075947 #
fmesh-eye-attrib $-1 -1 $639 $543 $458 #
truecolor-adesk-attrib $-1 -1 $640 $-1 $544 -1029000765 #
plane-surface $-1 -1 $-1 111.73569276392779 162.54978844091892 174.60676968075947 0.60661503003497841 -0.39876625046247205 -0.68775263200351622 0.48736953479190959 -0.49693616114732853 0.71800096678268777 forward_v I I I I #
truecolor-adesk-attrib $-1 -1 $641 $-1 $547 -1029000765 #
straight-curve $-1 -1 $-1 99.70186255083199 172.40251496862672 174.27403799818862 628.08370611916075 770.73985834148846 107.10242234124445 F 0 F 0.029999999999999999 #
DXID-attrib $-1 -1 $-1 $548 $462 @18 ASM_EDGE_FROM_STEP @4 2399 #
point $-1 -1 $-1 99.70186255083199 172.40251496862672 174.27403799818862 #
coedge $-1 -1 $-1 $582 $551 $553 $616 reversed $524 $-1 #
truecolor-adesk-attrib $-1 -1 $642 $-1 $552 -1029000765 #
straight-curve $-1 -1 $-1 118.30588274392068 195.32837089750166 180.29861786599835 487.36953479191175 -496.93616114732993 718.00096678268528 F -0.0019999999999999996 F -0.00095445115010332152 #
edge $643 -1 $-1 $628 0 $556 0.029999999999999999 $613 $644 forward @7 unknown #
DXID-attrib $-1 -1 $-1 $555 $467 @18 ASM_EDGE_FROM_STEP @3 677 #
point $-1 -1 $-1 117.33114367433686 196.32224321979632 178.86261593243299 #
truecolor-adesk-attrib $-1 -1 $645 $-1 $563 -1029000765 #
straight-curve $-1 -1 $-1 111.73569276392779 162.54978844091892 174.60676968075947 -487.36953479190959 496.93616114732851 -718.00096678268778 F -0.002 F 0 #
DXID-attrib $-1 -1 $-1 $564 $476 @18 ASM_EDGE_FROM_STEP @4 6450 #
DXID-attrib $-1 -1 $-1 $567 $382 @18 ASM_FACE_FROM_STEP @20 Assem-esfregona-1985 #
fmesh-eye-attrib $-1 -1 $646 $568 $480 #
DXID-attrib $-1 -1 $-1 $570 $483 @18 ASM_EDGE_FROM_STEP @4 4391 #
DXID-attrib $-1 -1 $-1 $574 $387 @18 ASM_FACE_FROM_STEP @21 Assem-esfregona-11923 #
DXID-attrib $-1 -1 $-1 $577 $499 @18 ASM_EDGE_FROM_STEP @4 3173 #
truecolor-adesk-attrib $-1 -1 $647 $-1 $583 -1029000765 #
vertex $-1 -1 $-1 $583 $648 #
straight-curve $-1 -1 $-1 99.463371560345863 172.206175147257 177.08554519576103 487.36953479191175 -496.93616114732993 718.00096678268528 F -0.0019999999999999996 F -0.00095445115010332152 #
DXID-attrib $-1 -1 $-1 $584 $510 @18 ASM_EDGE_FROM_STEP @4 5470 #
point $-1 -1 $-1 98.998201147338392 172.68047643779201 176.40024834723999 #
DXID-attrib $-1 -1 $-1 $588 $513 @18 ASM_EDGE_FROM_STEP @4 9979 #
DXID-attrib $-1 -1 $-1 $591 $437 @18 ASM_FACE_FROM_STEP @20 Assem-esfregona-8317 #
fmesh-eye-attrib $-1 -1 $649 $592 $523 #
DXID-attrib $-1 -1 $-1 $596 $533 @18 ASM_EDGE_FROM_STEP @4 8472 #
truecolor-adesk-attrib $-1 -1 $650 $-1 $601 -1029000765 #
straight-curve $-1 -1 $-1 98.488632490762029 173.20004746955166 175.64954326219566 -606.61503003497683 398.76625046247034 687.75263200351867 F -0.002 F 0 #
DXID-attrib $-1 -1 $-1 $602 $539 @18 ASM_EDGE_FROM_STEP @4 6225 #
DXID-attrib $-1 -1 $-1 $606 $458 @18 ASM_FACE_FROM_STEP @21 Assem-esfregona-11112 #
fmesh-eye-attrib $-1 -1 $651 $607 $544 #
DXID-attrib $-1 -1 $-1 $609 $547 @18 ASM_EDGE_FROM_STEP @4 5949 #
DXID-attrib $-1 -1 $-1 $614 $552 @18 ASM_EDGE_FROM_STEP @4 4706 #
truecolor-adesk-attrib $-1 -1 $652 $-1 $616 -1029000765 #
straight-curve $-1 -1 $-1 98.488632490762029 173.20004746955166 175.64954326219566 628.08370611916075 770.73985834148846 107.10242234124445 F 0 F 0.029999999999999999 #
DXID-attrib $-1 -1 $-1 $619 $563 @18 ASM_EDGE_FROM_STEP @4 9055 #
DXID-attrib $-1 -1 $-1 $623 $480 @18 ASM_FACE_FROM_STEP @20 Assem-esfregona-2812 #
DXID-attrib $-1 -1 $-1 $627 $583 @18 ASM_EDGE_FROM_STEP @4 5249 #
point $-1 -1 $-1 98.488632490762029 173.20004746955166 175.64954326219566 #
DXID-attrib $-1 -1 $-1 $634 $523 @18 ASM_FACE_FROM_STEP @20 Assem-esfregona-4499 #
DXID-attrib $-1 -1 $-1 $636 $601 @18 ASM_EDGE_FROM_STEP @5 10082 #
DXID-attrib $-1 -1 $-1 $640 $544 @18 ASM_FACE_FROM_STEP @21 Assem-esfregona-14905 #
DXID-attrib $-1 -1 $-1 $643 $616 @18 ASM_EDGE_FROM_STEP @5 14009 #
