700 203 1 0         
5 ZWCAD 12 ACIS 28.0 NT 24 Sat May 11 15:28:23 2024 
1 9.9999999999999995e-07 1e-10 
body $1 -1 $-1 $2 $-1 $-1 #
DXID-attrib $-1 -1 $-1 $-1 $0 @18 ASM_BODY_FROM_STEP @62 ASSEMBLED SHELL-733|:|B8A4396250C5687B1D31E70758B30729E1AC4426 #
lump $-1 -1 $-1 $-1 $3 $0 #
shell $-1 -1 $-1 $-1 $-1 $4 $-1 $2 #
face $5 -1 $-1 $6 $7 $3 $-1 $8 reversed single #
truecolor-adesk-attrib $-1 -1 $9 $-1 $4 -1025383967 #
face $10 -1 $-1 $11 $12 $3 $-1 $13 forward single #
loop $-1 -1 $-1 $14 $15 $4 #
cone-surface $-1 -1 $-1 -139.18495983981137 -2.3415260838495549 -115.71758559478501 -0.51503807491005493 9.4197577088782247e-16 -0.85716730070211189 1.926826375248277 2.8259624989616549e-15 -1.1577540885903124 1 I I 0 1 2.2479 forward I I I I #
DXID-attrib $-1 -1 $-1 $5 $4 @18 ASM_FACE_FROM_STEP @20 Assembled Shell-3554 #
truecolor-adesk-attrib $-1 -1 $16 $-1 $6 -1025383967 #
face $17 -1 $-1 $18 $19 $3 $-1 $20 forward single #
loop $-1 -1 $-1 $-1 $21 $6 #
spline-surface $-1 -1 $-1 forward { sumsur 
	ellipse -152.63949878159733 -0.34152608384953309 -138.10969870008537 0.51503807491005493 -9.4237992915077147e-16 0.85716730070211189 -5.870823494035771e-15 10 1.4521665620954958e-14 0.5 F -1.5708386399307477 F 1.5708386399307472 
	straight -152.63949878159733 -0.34152608384953309 -138.10969870008537 5.1503807491005489 -9.4237992915077151e-15 8.5716730070211185 I I 
	-152.63949878159733 -0.34152608384953309 -138.10969870008537 
	none F -1.5708386399307477 F 1.5708386399307472 F 1.8156179457345412 F 2.6123386982866506 OPEN OPEN NON_SINGULAR NON_SINGULAR 
	0 
	0 
	0 
	0 
	0 
	0 
	} F -1.5707963267948966 F 1.5707963267948966 F 1.8156179457345412 F 2.6123386982866506 #
loop $-1 -1 $-1 $-1 $22 $4 #
coedge $-1 -1 $-1 $15 $15 $23 $24 reversed $7 $-1 #
DXID-attrib $-1 -1 $-1 $10 $6 @18 ASM_FACE_FROM_STEP @20 Assembled Shell-3555 #
truecolor-adesk-attrib $-1 -1 $25 $-1 $11 -1025383967 #
face $26 -1 $-1 $27 $28 $3 $-1 $29 reversed single #
loop $-1 -1 $-1 $30 $31 $11 #
plane-surface $-1 -1 $-1 -143.47079634332192 0.65847391615043893 -113.14239522023473 0.51503807491005493 -9.4197577088782247e-16 0.85716730070211189 -5.9244020953866667e-15 10 1.4549143847256121e-14 forward_v I I I I #
coedge $-1 -1 $-1 $32 $33 $31 $34 reversed $12 $35 #
coedge $-1 -1 $-1 $22 $22 $36 $37 reversed $14 $-1 #
coedge $-1 -1 $-1 $23 $23 $15 $24 forward $38 $-1 #
edge $39 -1 $-1 $40 -1.7797787661230153 $40 0 $15 $41 forward @7 unknown #
DXID-attrib $-1 -1 $-1 $17 $11 @18 ASM_FACE_FROM_STEP @20 Assembled Shell-3556 #
truecolor-adesk-attrib $-1 -1 $42 $-1 $18 -1025383967 #
face $43 -1 $-1 $44 $45 $3 $-1 $46 forward single #
loop $-1 -1 $-1 $-1 $47 $18 #
plane-surface $-1 -1 $-1 -145.98723714335912 -1.1204409349901969 -117.33045601228636 0.85716730070211189 1.2571566791056788e-15 -0.51503807491005493 5.1503807491005489 -8.2550713161798543e-15 8.5716730070211185 forward_v I I I I #
loop $-1 -1 $-1 $-1 $36 $11 #
coedge $-1 -1 $-1 $48 $49 $21 $34 forward $19 $-1 #
coedge $-1 -1 $-1 $50 $21 $51 $52 forward $12 $53 #
coedge $-1 -1 $-1 $21 $50 $47 $54 reversed $12 $55 #
edge $56 -1 $-1 $57 -1.5707963267948966 $58 1.5707963267948966 $21 $59 forward @7 unknown #
pcurve $-1 -1 $-1 0 forward { exppc nubs 1 open 2 
	-1.5707963267948966 1 1.5707963267948966 1 
	1.5707963267948963 2.6123386982866506 
	-1.5707963267948963 2.6123386982866506 
	4.9875724764711612e-15 
	spline forward { ref 0 } I I I I 
	} 0 0 #
coedge $-1 -1 $-1 $36 $36 $22 $37 forward $30 $-1 #
edge $60 -1 $-1 $61 0 $61 6.2831853071795862 $22 $62 forward @7 unknown #
loop $-1 -1 $-1 $63 $23 $44 #
truecolor-adesk-attrib $-1 -1 $64 $-1 $24 -1025383967 #
vertex $-1 -1 $-1 $24 $65 #
intcurve-curve $-1 -1 $-1 reversed { surfintcur full nubs 3 periodic 37 
	0 3 0.0080913391424097536 2 0.016182678284819507 2 0.032365356569639014 2 0.064730713139278029 2 
	0.12946142627855606 2 0.25892285255711212 2 0.35193377204393356 2 0.39843923178734431 2 0.444944691530755 2 
	0.49145015127416575 2 0.5379556110175765 2 0.6309665305043981 2 0.76042795678295405 2 0.82515866992223197 2 
	0.85752402649187098 2 0.87370670477669043 2 0.88179804391910022 2 0.88988938306151 2 0.89798072220391967 2 
	0.90607206134632934 2 0.92225473963114868 2 0.95462009620078747 2 1.0193508093400649 2 1.1488122356186201 2 
	1.2418231551054413 2 1.2883286148488517 2 1.3348340745922624 2 1.3813395343356731 2 1.4278449940790838 2 
	1.5208559135659052 2 1.6503173398444604 2 1.7150480529837377 2 1.7474134095533764 2 1.763596087838196 2 
	1.7716874269806056 2 1.7797787661230153 3 
	-145.43955411235763 -2.3415260838495509 -121.76244682204296 
	-145.43955411235763 -2.3145549533748517 -121.76244682204296 
	-145.43444168885884 -2.2957404989687991 -121.75471433190975 
	-145.42390234703669 -2.2611241120793539 -121.73906097896318 
	-145.41787860620047 -2.2459291885590695 -121.73022455428514 
	-145.39861790556364 -2.2010138497266101 -121.7024628742973 
	-145.38450218948961 -2.1732329919781921 -121.68271167752276 
	-145.33822307575181 -2.087210438843917 -121.6203919025795 
	-145.30299864487705 -2.0285635702381262 -121.57599290223342 
	-145.18437621383728 -1.8441714407798204 -121.43905068974357 
	-145.08658131664393 -1.7091049464496266 -121.34172056309514 
	-144.74797260598211 -1.2978104853514774 -121.06913234405478 
	-144.44692700793161 -1.0013241905223775 -120.90473107100249 
	-143.85946596128551 -0.57290993060570106 -120.75884255641508 
	-143.56867325314778 -0.40130442734047111 -120.7336129497737 
	-143.12257267437187 -0.22130833038986575 -120.79190102430388 
	-142.9720821834587 -0.17375780507880556 -120.82690605507395 
	-142.67920603736141 -0.10990385048282869 -120.92846224561382 
	-142.53682433931979 -0.093626083849549513 -120.9950409493097 
	-142.27107127667864 -0.093626083849549069 -121.15472149903671 
	-142.14544161222298 -0.10990385048282825 -121.24918026851738 
	-141.91827579623489 -0.17375780507880378 -121.46009681323645 
	-141.81671718262507 -0.22130833038986442 -121.5765381634354 
	-141.55582033164865 -0.40130442734046845 -121.94305700219711 
	-141.44157784496528 -0.57290993060569773 -122.21165630672664 
	-141.29459350210124 -1.0013241905223729 -122.79884413269706 
	-141.29841886301909 -1.2978104853514729 -123.14183334142037 
	-141.38013281429517 -1.7091049464496209 -123.56877950461019 
	-141.42015829211422 -1.8441714407798138 -123.70082100034473 
	-141.4853812309112 -2.02856357023812 -123.86984886479934 
	-141.50804635278109 -2.0872104388439112 -123.92179425932865 
	-141.54134472020394 -2.1732329919781868 -123.99191365353813 
	-141.55215706456696 -2.2010138497266034 -124.01364971628384 
	-141.56762682185763 -2.2459291885590633 -124.04368922483735 
	-141.57260094673239 -2.261124112079349 -124.05315632241172 
	-141.58147411576076 -2.2957404989687933 -124.06981081297459 
	-141.58590136186109 -2.314554953374846 -124.07795499922359 
	-141.58590136186109 -2.3684972143242442 -124.07795499922359 
	-141.58147411576076 -2.3873116687302951 -124.06981081297459 
	-141.57260094673239 -2.4219280556197393 -124.05315632241172 
	-141.56762682185763 -2.4371229791400286 -124.04368922483735 
	-141.55215706456696 -2.4820383179724885 -124.01364971628384 
	-141.54134472020394 -2.5098191757209061 -123.99191365353813 
	-141.50804635278109 -2.5958417288551829 -123.92179425932864 
	-141.4853812309112 -2.6544885974609733 -123.86984886479934 
	-141.42015829211422 -2.8388807269192808 -123.70082100034472 
	-141.38013281429517 -2.9739472212494742 -123.56877950461019 
	-141.29841886301909 -3.3852416823476243 -123.14183334142037 
	-141.29459350210124 -3.6817279771767271 -122.79884413269706 
	-141.44157784496528 -4.1101422370934007 -122.21165630672664 
	-141.55582033164868 -4.2817477403586279 -121.94305700219711 
	-141.81671718262507 -4.4617438373092329 -121.5765381634354 
	-141.91827579623489 -4.5092943626202917 -121.46009681323645 
	-142.14544161222298 -4.573148317216269 -121.24918026851739 
	-142.27107127667864 -4.58942608384955 -121.15472149903673 
	-142.53682433931976 -4.5894260838495509 -120.9950409493097 
	-142.67920603736141 -4.5731483172162699 -120.92846224561383 
	-142.9720821834587 -4.5092943626202935 -120.82690605507396 
	-143.12257267437187 -4.4617438373092337 -120.79190102430388 
	-143.56867325314778 -4.2817477403586306 -120.7336129497737 
	-143.85946596128551 -4.1101422370934007 -120.75884255641508 
	-144.44692700793161 -3.6817279771767266 -120.90473107100249 
	-144.74797260598211 -3.3852416823476288 -121.06913234405478 
	-145.08658131664393 -2.97394722124948 -121.34172056309514 
	-145.18437621383725 -2.8388807269192871 -121.43905068974357 
	-145.30299864487705 -2.6544885974609795 -121.57599290223342 
	-145.33822307575181 -2.5958417288551883 -121.62039190257948 
	-145.38450218948958 -2.5098191757209114 -121.68271167752276 
	-145.39861790556364 -2.4820383179724947 -121.7024628742973 
	-145.41787860620047 -2.4371229791400348 -121.73022455428514 
	-145.42390234703669 -2.4219280556197451 -121.73906097896317 
	-145.43444168885884 -2.3873116687303009 -121.75471433190975 
	-145.43955411235763 -2.36849721432425 -121.76244682204296 
	-145.43955411235763 -2.3415260838495509 -121.76244682204296 
	0.0019122464216361902 
	cone -139.18495983981137 -2.3415260838495549 -115.71758559478501 -0.51503807491005493 9.4197577088782247e-16 -0.85716730070211189 1.926826375248277 2.8259624989616549e-15 -1.1577540885903124 1 I I 0 1 2.2479 forward I I I I 
	cone -143.56278347654683 -27.525846877317043 -123.00350765075299 -6.5242599329559715e-16 1 1.3550812755862379e-15 -1.1588356685476238 1.8573910461404675e-15 -1.9286264265797517 1 I I 0 1 2.25 forward I I I I 
	nullbs 
	nullbs 
	I I 
	0 
	0 
	0 
	} I I #
DXID-attrib $-1 -1 $-1 $26 $18 @18 ASM_FACE_FROM_STEP @20 Assembled Shell-3557 #
truecolor-adesk-attrib $-1 -1 $66 $-1 $27 -1025383967 #
face $67 -1 $-1 $68 $38 $3 $-1 $69 reversed single #
loop $-1 -1 $-1 $-1 $70 $27 #
cone-surface $-1 -1 $-1 -143.56278347654683 -27.525846877317043 -123.00350765075299 -6.5242599329559715e-16 1 1.3550812755862379e-15 -2.5751903745502744 4.1275356580899272e-15 -4.2858365035105592 1 I I 0 1 5 forward I I I I #
coedge $-1 -1 $-1 $71 $72 $33 $54 forward $28 $-1 #
coedge $-1 -1 $-1 $73 $31 $72 $74 reversed $19 $-1 #
coedge $-1 -1 $-1 $31 $73 $75 $76 forward $19 $-1 #
coedge $-1 -1 $-1 $33 $32 $77 $78 reversed $12 $79 #
coedge $-1 -1 $-1 $75 $80 $32 $52 reversed $81 $-1 #
edge $82 -1 $-1 $57 -2.6123386982866506 $83 -1.8156179457345412 $32 $84 forward @7 unknown #
pcurve $-1 -1 $-1 0 forward { exppc nubs 1 open 2 
	-2.6123386982866506 1 -1.8156179457345412 1 
	-1.5707963267948966 2.6123386982866506 
	-1.5707963267948966 1.8156179457345412 
	4.5649611331380458e-15 
	spline forward { ref 0 } I I I I 
	} 0 0 #
edge $85 -1 $-1 $58 -2.6123386982866506 $86 -1.8156179457345412 $33 $87 forward @7 unknown #
pcurve $-1 -1 $-1 0 forward { exppc nubs 1 open 2 
	1.8156179457345412 1 2.6123386982866506 1 
	1.5707963267948966 1.8156179457345412 
	1.5707963267948966 2.6123386982866506 
	2.3345590672463414e-15 
	spline forward { ref 0 } I I I I 
	} 0 0 #
truecolor-adesk-attrib $-1 -1 $88 $-1 $34 -1025383967 #
vertex $-1 -1 $-1 $34 $89 #
vertex $-1 -1 $-1 $34 $90 #
ellipse-curve $-1 -1 $-1 -139.18495983981137 -0.34152608384955485 -115.71758559478501 0.51503807491005493 -9.4197577088782247e-16 0.85716730070211189 -5.8729050629728534e-15 10 1.4518201308481876e-14 0.5 F -1.5707963267948966 F 1.5707963267948966 #
truecolor-adesk-attrib $-1 -1 $91 $-1 $37 -1025383967 #
vertex $-1 -1 $-1 $37 $92 #
ellipse-curve $-1 -1 $-1 -139.18495983981137 -2.3415260838495549 -115.71758559478501 -0.51503807491005493 9.4197577088782247e-16 -0.85716730070211189 1.926826375248277 2.8259624989616549e-15 -1.1577540885903124 1 I I #
loop $-1 -1 $-1 $93 $94 $44 #
DXID-attrib $-1 -1 $-1 $39 $24 @18 ASM_EDGE_FROM_STEP @4 1852 #
point $-1 -1 $-1 -145.43955411235763 -2.3415260838495509 -121.76244682204295 #
DXID-attrib $-1 -1 $-1 $43 $27 @18 ASM_FACE_FROM_STEP @20 Assembled Shell-3558 #
truecolor-adesk-attrib $-1 -1 $95 $-1 $44 -1025383967 #
face $96 -1 $-1 $97 $81 $3 $-1 $98 forward single #
cone-surface $-1 -1 $-1 -143.56278347654683 -27.525846877317043 -123.00350765075299 -6.5242599329559715e-16 1 1.3550812755862379e-15 -1.1588356685476238 1.8573910461404675e-15 -1.9286264265797517 1 I I 0 1 2.25 forward I I I I #
coedge $-1 -1 $-1 $99 $100 $101 $102 reversed $45 $-1 #
coedge $-1 -1 $-1 $103 $47 $104 $105 forward $28 $-1 #
coedge $-1 -1 $-1 $47 $106 $48 $74 forward $28 $-1 #
coedge $-1 -1 $-1 $49 $48 $107 $108 forward $19 $-1 #
edge $109 -1 $-1 $110 3.2326541241033795e-33 $58 0.80000000000000004 $48 $111 forward @7 unknown #
coedge $-1 -1 $-1 $112 $51 $49 $76 reversed $81 $-1 #
edge $113 -1 $-1 $114 3.2326541241033795e-33 $57 0.80000000000000004 $49 $115 forward @7 unknown #
coedge $-1 -1 $-1 $116 $104 $50 $78 forward $117 $-1 #
edge $118 -1 $-1 $86 0 $83 3.4996163458103884 $50 $119 reversed @7 unknown #
pcurve $-1 -1 $-1 1 $119 0 0 #
coedge $-1 -1 $-1 $51 $120 $116 $121 reversed $81 $-1 #
loop $-1 -1 $-1 $-1 $51 $68 #
truecolor-adesk-attrib $-1 -1 $122 $-1 $52 -1025383967 #
vertex $-1 -1 $-1 $52 $123 #
straight-curve $-1 -1 $-1 -148.35366227808677 -0.34152608384952687 -140.68488907463563 -5.1503807491005489 9.4237992915077151e-15 -8.5716730070211185 F -2.6123386982866506 F -1.8156179457345412 #
truecolor-adesk-attrib $-1 -1 $124 $-1 $54 -1025383967 #
vertex $-1 -1 $-1 $78 $125 #
straight-curve $-1 -1 $-1 -156.92533528510788 -0.34152608384953931 -135.53450832553509 -5.1503807491005489 9.4237992915077151e-15 -8.5716730070211185 F -2.6123386982866506 F -1.8156179457345412 #
DXID-attrib $-1 -1 $-1 $56 $34 @18 ASM_EDGE_FROM_STEP @4 1854 #
point $-1 -1 $-1 -134.89912333630082 -0.34152608384954819 -118.29277596933528 #
point $-1 -1 $-1 -143.47079634332192 -0.34152608384956107 -113.14239522023473 #
DXID-attrib $-1 -1 $-1 $60 $37 @18 ASM_EDGE_FROM_STEP @4 1853 #
point $-1 -1 $-1 -137.25813346456309 -2.3415260838495522 -116.87533968337532 #
loop $-1 -1 $-1 $-1 $126 $44 #
coedge $-1 -1 $-1 $94 $94 $127 $128 reversed $63 $-1 #
DXID-attrib $-1 -1 $-1 $67 $44 @18 ASM_FACE_FROM_STEP @20 Assembled Shell-3559 #
truecolor-adesk-attrib $-1 -1 $129 $-1 $68 -1025383967 #
face $130 -1 $-1 $131 $117 $3 $-1 $132 reversed single #
plane-surface $-1 -1 $-1 -137.41556413633802 -1.1204409349901845 -122.48083676138691 0.85716730070211189 1.2571566791056788e-15 -0.51503807491005493 5.1503807491005489 -8.2550713161798543e-15 8.5716730070211185 forward_v I I I I #
coedge $-1 -1 $-1 $133 $70 $103 $134 reversed $45 $-1 #
coedge $-1 -1 $-1 $70 $133 $120 $135 forward $45 $-1 #
coedge $-1 -1 $-1 $136 $137 $70 $102 forward $138 $-1 #
edge $139 -1 $-1 $140 -1.5707963267948966 $141 1.5707963267948966 $70 $142 forward @7 unknown #
coedge $-1 -1 $-1 $106 $71 $99 $134 forward $28 $-1 #
coedge $-1 -1 $-1 $77 $143 $71 $105 reversed $117 $-1 #
edge $144 -1 $-1 $86 -2.4553585998115226 $145 -2.4223820429818606 $71 $146 forward @7 unknown #
coedge $-1 -1 $-1 $72 $103 $137 $147 forward $28 $-1 #
coedge $-1 -1 $-1 $137 $136 $73 $108 reversed $138 $-1 #
edge $148 -1 $-1 $110 0 $114 1 $73 $149 forward @7 unknown #
truecolor-adesk-attrib $-1 -1 $150 $-1 $74 -1025383967 #
vertex $-1 -1 $-1 $74 $151 #
straight-curve $-1 -1 $-1 -143.47079634332192 -8.341526083849562 -113.14239522023473 -5.9244020953866667e-15 10 1.4549143847256121e-14 F 3.2326541241033795e-33 F 0.80000000000000004 #
coedge $-1 -1 $-1 $120 $75 $136 $152 reversed $81 $-1 #
truecolor-adesk-attrib $-1 -1 $153 $-1 $76 -1025383967 #
vertex $-1 -1 $-1 $108 $154 #
straight-curve $-1 -1 $-1 -134.89912333630082 -8.3415260838495477 -118.29277596933528 -5.9244020953866667e-15 10 1.4549143847256121e-14 F 3.2326541241033795e-33 F 0.80000000000000004 #
coedge $-1 -1 $-1 $143 $77 $80 $121 forward $117 $-1 #
loop $-1 -1 $-1 $155 $77 $97 #
truecolor-adesk-attrib $-1 -1 $156 $-1 $78 -1025383967 #
intcurve-curve $-1 -1 $-1 reversed { surfintcur full nubs 3 open 11 
	0 3 0.39633646375306969 2 0.97483916937497717 2 1.2670284213281795 2 1.4992999887420078 2 
	1.6726561263056599 2 1.8348658566334533 2 2.0264635183787583 2 2.308277052795614 2 2.8861448200576838 2 
	3.4996163458103884 3 
	-147.57421156967499 -0.34152608384908767 -119.97162498901882 
	-147.14307326271771 0.68054335702612079 -119.25409035069454 
	-146.68862065064604 1.76914286970535 -118.64673615691628 
	-145.45295160107051 4.5320736379670441 -117.50693602119284 
	-144.70969281300799 6.0229116288284317 -117.22862947480158 
	-143.52861685688268 7.7799099899707382 -117.21597767106289 
	-143.1251617900987 8.2821861938573917 -117.28043176933475 
	-142.38583189170762 8.992306019690222 -117.48970403589605 
	-142.02589175913604 9.2657938814383769 -117.62367098311721 
	-141.3512749743463 9.5773358628718785 -117.93829157452001 
	-141.05658166275745 9.6533161734920796 -118.09434780139931 
	-140.48365858234837 9.6628098816265506 -118.43593335851911 
	-140.22136076025262 9.6048931874446772 -118.609532928862 
	-139.68798169297955 9.3632208000075252 -118.99978566933879 
	-139.43481344554962 9.1636797204753169 -119.2108496238732 
	-138.89787777810272 8.578559436149801 -119.7194713452964 
	-138.65095022834046 8.145138255253265 -120.01613437805939 
	-138.08766983768317 6.7690238363580448 -120.88218134191563 
	-137.89038422222396 5.5749642698651831 -121.52674942776474 
	-138.00184975921843 2.7950969792820111 -123.09809721698159 
	-138.34085210775777 1.2270877323606051 -124.02077454748647 
	-139.00253856265388 -0.34152608384907257 -125.12200573811937 
	0.00047549220618667699 
	spline forward { ref 0 } I I I I 
	cone -157.53553342739707 15.499179023140762 -136.55004857391538 0.85716730070211189 1.2571566791056788e-15 -0.51503807491005493 -12.875951872751372 2.0637678290449636e-14 -21.429182517552796 1 I I 0 1 25 forward I I I I 
	nubs 3 open 11 
	0 3 0.39633646375306969 3 0.97483916937497717 3 1.2670284213281795 3 1.4992999887420078 3 
	1.6726561263056599 3 1.8348658566334533 3 2.0264635183787583 3 2.308277052795614 3 2.8861448200576838 3 
	3.4996163458103884 3 
	1.5707963267948495 1.8156179457345849 
	1.4685893827073286 1.8993279330073787 
	1.3601883084715789 1.9747943883384051 
	1.241477782766935 2.0403903981950373 
	1.0682049033158991 2.1361359897581327 
	0.89537460586461681 2.1982721744082943 
	0.71791066446462004 2.2394091528660072 
	0.62827745137430535 2.2601865543307982 
	0.53817646065599911 2.2754412318782231 
	0.44657020556836891 2.2866617865865844 
	0.37374915444523338 2.2955814022532861 
	0.29402949347500307 2.3026364808962545 
	0.20739034272813228 2.3070898149078483 
	0.14272711811350244 2.3104135656024618 
	0.076035804097809606 2.3122147637162325 
	0.0071163839026950892 2.3123326139917175 
	-0.057371673580084284 2.3124428867612554 
	-0.12020611516834048 2.3110718357843987 
	-0.18156671714217221 2.3083301286525093 
	-0.25404416863483481 2.3050916997703523 
	-0.32181797665859452 2.3000391164304412 
	-0.38488995589137276 2.2935866452685252 
	-0.47766007233404528 2.2840959568786028 
	-0.56176417062556705 2.2713846807646285 
	-0.6375511357428667 2.2565598489230663 
	-0.7929547589596333 2.2261610517395094 
	-0.9448117665593041 2.1810717434722626 
	-1.0963909686899687 2.1129543315342545 
	-1.257309313113399 2.040640049618295 
	-1.4139349451738816 1.9440912542393378 
	-1.5707963267948495 1.8156179457345849 
	
	nullbs 
	I I 
	0 
	0 
	0 
	} F -3.4996163458103884 F 0 #
coedge $-1 -1 $-1 $80 $112 $100 $135 reversed $81 $-1 #
edge $157 -1 $-1 $83 -2.4553585998115226 $158 -2.4223820429818606 $80 $159 forward @7 unknown #
DXID-attrib $-1 -1 $-1 $82 $52 @18 ASM_EDGE_FROM_STEP @4 1855 #
point $-1 -1 $-1 -139.00253856265411 -0.34152608384954153 -125.12200573811974 #
DXID-attrib $-1 -1 $-1 $85 $54 @18 ASM_EDGE_FROM_STEP @4 1858 #
point $-1 -1 $-1 -147.57421156967521 -0.34152608384955441 -119.97162498901919 #
coedge $-1 -1 $-1 $126 $126 $160 $161 reversed $93 $-1 #
coedge $-1 -1 $-1 $127 $127 $94 $128 forward $162 $-1 #
edge $163 -1 $-1 $164 -3.1415926535897931 $164 3.1415926535897931 $94 $165 forward @7 unknown #
DXID-attrib $-1 -1 $-1 $96 $68 @18 ASM_FACE_FROM_STEP @20 Assembled Shell-3560 #
truecolor-adesk-attrib $-1 -1 $166 $-1 $97 -1025383967 #
face $167 -1 $-1 $-1 $138 $3 $-1 $168 forward single #
cone-surface $-1 -1 $-1 -157.53553342739707 15.499179023140762 -136.55004857391538 0.85716730070211189 1.2571566791056788e-15 -0.51503807491005493 -12.875951872751372 2.0637678290449636e-14 -21.429182517552796 1 I I 0 1 25 forward I I I I #
coedge $-1 -1 $-1 $100 $99 $143 $169 reversed $45 $-1 #
edge $170 -1 $-1 $145 0.162906987107477 $140 0.89999999999999991 $103 $171 forward @7 unknown #
edge $172 -1 $-1 $158 0.162906987107477 $141 0.89999999999999991 $100 $173 forward @7 unknown #
coedge $-1 -1 $-1 $107 $101 $112 $152 forward $138 $-1 #
coedge $-1 -1 $-1 $101 $107 $106 $147 reversed $138 $-1 #
loop $-1 -1 $-1 $162 $101 $131 #
truecolor-adesk-attrib $-1 -1 $174 $-1 $102 -1025383967 #
vertex $-1 -1 $-1 $134 $175 #
vertex $-1 -1 $-1 $102 $176 #
ellipse-curve $-1 -1 $-1 -143.56278347654683 -8.3415260838495477 -123.00350765075297 5.677138259883735e-16 -1 -1.4960659975410943e-15 -2.5751903745502744 4.9499230837381925e-15 -4.2858365035105592 1 F -1.5707963267948966 F 1.5707963267948966 #
coedge $-1 -1 $-1 $104 $116 $133 $169 forward $117 $-1 #
truecolor-adesk-attrib $-1 -1 $177 $-1 $105 -1025383967 #
vertex $-1 -1 $-1 $105 $178 #
ellipse-curve $-1 -1 $-1 -157.53553342739707 15.499179023140762 -136.55004857391538 0.85716730070211189 1.2571566791056788e-15 -0.51503807491005493 -12.875951872751372 2.0637678290449636e-14 -21.429182517552796 1 F -2.4553585998115226 F -2.4223820429818606 #
edge $179 -1 $-1 $140 0.50000000000000011 $110 1.3500000000000003 $106 $180 forward @7 unknown #
truecolor-adesk-attrib $-1 -1 $181 $-1 $108 -1025383967 #
straight-curve $-1 -1 $-1 -143.47079634332192 -8.341526083849562 -113.14239522023473 8.5716730070211185 1.2571566791056787e-14 -5.1503807491005489 F 0 F 1 #
DXID-attrib $-1 -1 $-1 $109 $74 @18 ASM_EDGE_FROM_STEP @4 1859 #
point $-1 -1 $-1 -143.47079634332192 -8.341526083849562 -113.14239522023473 #
edge $182 -1 $-1 $141 0.50000000000000011 $114 1.3500000000000003 $112 $183 forward @7 unknown #
DXID-attrib $-1 -1 $-1 $113 $76 @18 ASM_EDGE_FROM_STEP @4 1861 #
point $-1 -1 $-1 -134.89912333630082 -8.3415260838495477 -118.29277596933528 #
loop $-1 -1 $-1 $-1 $160 $97 #
DXID-attrib $-1 -1 $184 $118 $78 @18 ASM_EDGE_FROM_STEP @4 1857 #
truecolor-adesk-attrib $-1 -1 $185 $-1 $121 -1025383967 #
vertex $-1 -1 $-1 $169 $186 #
ellipse-curve $-1 -1 $-1 -148.96386042037597 15.499179023140773 -141.70042932301592 0.85716730070211189 1.2571566791056788e-15 -0.51503807491005493 -12.875951872751372 2.0637678290449636e-14 -21.429182517552796 1 F -2.4553585998115226 F -2.4223820429818606 #
coedge $-1 -1 $-1 $160 $160 $126 $161 forward $155 $-1 #
edge $187 -1 $-1 $188 -1.744390551756438 $188 0 $126 $189 forward @7 unknown #
loop $-1 -1 $-1 $-1 $127 $131 #
truecolor-adesk-attrib $-1 -1 $190 $-1 $128 -1025383967 #
vertex $-1 -1 $-1 $128 $191 #
ellipse-curve $-1 -1 $-1 -143.56278347654683 -8.3415260838495477 -123.00350765075297 -5.677138259883735e-16 1 1.4960659975410943e-15 -1.1588356685476238 2.227465387682187e-15 -1.9286264265797517 1 I I #
DXID-attrib $-1 -1 $-1 $130 $97 @18 ASM_FACE_FROM_STEP @20 Assembled Shell-3561 #
truecolor-adesk-attrib $-1 -1 $192 $-1 $131 -1025383967 #
plane-surface $-1 -1 $-1 -146.94730334896479 -8.3415260838495549 -118.92827449997399 5.677138259883735e-16 -1 -1.4960659975410943e-15 8.5716730070211185 1.2571566791056787e-14 -5.1503807491005489 forward_v I I I I #
edge $193 -1 $-1 $158 1.1434336487786676 $145 2.9260122347033199 $133 $194 reversed @7 unknown #
truecolor-adesk-attrib $-1 -1 $195 $-1 $134 -1025383967 #
straight-curve $-1 -1 $-1 -147.84861998005741 0.65847391615044604 -120.42831727620268 6.5242599329559715e-15 -10 -1.3550812755862379e-14 F 0.162906987107477 F 0.89999999999999991 #
truecolor-adesk-attrib $-1 -1 $196 $-1 $135 -1025383967 #
straight-curve $-1 -1 $-1 -139.27694697303627 0.65847391615045847 -125.57869802530323 6.5242599329559715e-15 -10 -1.3550812755862379e-14 F 0.162906987107477 F 0.89999999999999991 #
DXID-attrib $-1 -1 $-1 $139 $102 @18 ASM_EDGE_FROM_STEP @4 1865 #
point $-1 -1 $-1 -147.84861998005738 -8.3415260838495549 -120.42831727620269 #
point $-1 -1 $-1 -139.27694697303627 -8.3415260838495406 -125.57869802530324 #
DXID-attrib $-1 -1 $-1 $144 $105 @18 ASM_EDGE_FROM_STEP @4 1862 #
point $-1 -1 $-1 -147.84861998005741 -0.97059595492432438 -120.42831727620268 #
truecolor-adesk-attrib $-1 -1 $197 $-1 $147 -1025383967 #
straight-curve $-1 -1 $-1 -150.42381035460767 -8.3415260838495513 -124.71415377971326 5.1503807491005489 -9.8998461674763851e-15 8.5716730070211185 F 0.50000000000000011 F 1.3500000000000003 #
DXID-attrib $-1 -1 $-1 $148 $108 @18 ASM_EDGE_FROM_STEP @4 1860 #
truecolor-adesk-attrib $-1 -1 $198 $-1 $152 -1025383967 #
straight-curve $-1 -1 $-1 -141.85213734758653 -8.3415260838495371 -129.86453452881381 5.1503807491005489 -9.8998461674763851e-15 8.5716730070211185 F 0.50000000000000011 F 1.3500000000000003 #
DXID-attrib $-1 -1 $-1 $156 $78 @18 ASM_EDGE_FROM_STEP @4 1856 #
DXID-attrib $-1 -1 $-1 $157 $121 @18 ASM_EDGE_FROM_STEP @4 1872 #
point $-1 -1 $-1 -139.27694697303627 -0.97059595492431172 -125.57869802530323 #
truecolor-adesk-attrib $-1 -1 $199 $-1 $161 -1025383967 #
vertex $-1 -1 $-1 $161 $200 #
intcurve-curve $-1 -1 $-1 reversed { surfintcur full nubs 3 periodic 19 
	0 3 0.043209682000013697 2 0.086419364000027393 2 0.17283872800005479 2 0.31495089580025765 2 
	0.45706306360046051 2 0.58186769744071898 2 0.70667233128097739 2 0.78943380357959825 2 0.87219527587821899 2 
	0.95495674817683973 2 1.0377182204754605 2 1.1625228543157191 2 1.2873274881559775 2 1.4294396559561804 2 
	1.5715518237563832 2 1.6579711877564107 2 1.7011808697564244 2 1.744390551756438 3 
	-142.4039478079992 2.0249698760217365 -121.0748812241732 
	-142.28048805305207 2.0249698760217365 -121.14906332895575 
	-142.16586607292743 2.0030801560640015 -121.23422810900338 
	-141.95892865132208 1.9221552009613747 -121.419376071385 
	-141.86662523379846 1.8631231397073886 -121.51937407948326 
	-141.62582529087717 1.6473001808467931 -121.82915104990643 
	-141.51394188814507 1.4509728212146813 -122.04964088634051 
	-141.3257816516446 0.93637431410208372 -122.57886705303153 
	-141.2900133198811 0.55630388105754403 -122.92183400357254 
	-141.36285240991413 -0.21884805442248112 -123.58009923770177 
	-141.47342702857054 -0.61421368952008093 -123.89484364249253 
	-141.775312109228 -1.2835751939961453 -124.3972647882585 
	-141.97811758146659 -1.6162600931721225 -124.63302637952143 
	-142.49962047550383 -2.2275244637692864 -125.01253288033594 
	-142.81821120499518 -2.5063464471625587 -125.15603370704919 
	-143.39762153040186 -2.870007448510782 -125.25967732718867 
	-143.66748015187619 -3.003070559520352 -125.2679292567417 
	-144.21130378326319 -3.1837026144188734 -125.17560091321243 
	-144.48515105238664 -3.2312150868585165 -125.07421844189739 
	-144.95808723780226 -3.2312150868585174 -124.79004971276802 
	-145.176166152208 -3.1837026144188698 -124.59585311293185 
	-145.51299697098699 -3.0030705595203493 -124.15903087838501 
	-145.6324018984065 -2.8700074485107874 -123.91688581187877 
	-145.81290668445212 -2.5063464471625649 -123.35663912746367 
	-145.83577226259578 -2.2275244637692921 -123.00797065237398 
	-145.74551868988831 -1.616260093172128 -122.36934341739003 
	-145.63256496238751 -1.2835751939961511 -122.07959345116325 
	-145.33067988173002 -0.6142136895200867 -121.57717230539728 
	-145.1046887061793 -0.21884805442248645 -121.3317771644281 
	-144.55767088367188 0.55630388105753958 -120.9584272570231 
	-144.23805682565026 0.93637431410207927 -120.82899558919988 
	-143.68244197540844 1.4509728212146777 -120.74667458154613 
	-143.43523492914866 1.6473001808467949 -120.74194805458018 
	-143.04866937326838 1.8631231397073886 -120.80913030612345 
	-142.91704254305205 1.9221552009613694 -120.84368316530121 
	-142.65641536062452 2.0030801560639961 -120.93947636033417 
	-142.52740756294637 2.0249698760217365 -121.00069911939066 
	-142.4039478079992 2.0249698760217365 -121.0748812241732 
	0.0018042478027035427 
	cone -143.56278347654683 -27.525846877317043 -123.00350765075299 -6.5242599329559715e-16 1 1.3550812755862379e-15 -1.1588356685476238 1.8573910461404675e-15 -1.9286264265797517 1 I I 0 1 2.25 forward I I I I 
	cone -157.53553342739707 15.499179023140762 -136.55004857391538 0.85716730070211189 1.2571566791056788e-15 -0.51503807491005493 -12.875951872751372 2.0637678290449636e-14 -21.429182517552796 1 I I 0 1 25 forward I I I I 
	nullbs 
	nullbs 
	I I 
	0 
	0 
	0 
	} I I #
DXID-attrib $-1 -1 $-1 $163 $128 @18 ASM_EDGE_FROM_STEP @4 1869 #
point $-1 -1 $-1 -142.4039478079992 -8.3415260838495495 -121.07488122417321 #
DXID-attrib $-1 -1 $-1 $167 $131 @18 ASM_FACE_FROM_STEP @20 Assembled Shell-3562 #
truecolor-adesk-attrib $-1 -1 $201 $-1 $169 -1025383967 #
intcurve-curve $-1 -1 $-1 reversed { surfintcur full nubs 3 periodic 19 
	0 3 0.070354129475678928 2 0.14070825895135786 2 0.41714677709878156 2 0.78029021293872458 2 
	1.1434336487786676 2 1.4058626606487323 2 1.6682916725187971 2 1.8515073071298955 2 2.034722941740994 2 
	2.2179385763520925 2 2.4011542109631905 2 2.663583222833255 2 2.9260122347033199 2 3.2891556705432627 2 
	3.652299106383206 2 3.9287376245306298 2 3.9990917540063085 2 4.0694458834819871 3 
	-140.98759310199657 7.8721228217175945 -118.71767114724238 
	-140.78657557114352 7.8721228217175945 -118.83845466526614 
	-140.5857853169949 7.8162709096044214 -118.97979281700022 
	-140.2292839158475 7.6179177157084617 -119.2697990383669 
	-140.07233873827963 7.4778667911921222 -119.41861957018156 
	-139.43939815793115 6.7743532805329831 -120.08249779723143 
	-139.10344741355181 5.9041570121307227 -120.67628868707266 
	-138.64206854200896 4.1922663691311639 -121.86023440919421 
	-138.52102443445119 3.1044499906177041 -122.60356032980101 
	-138.63037981605328 0.97880213900935775 -124.12184092813875 
	-138.86622878390392 -0.059921785818104034 -124.89514817010208 
	-139.57375632684372 -1.6287031895529747 -126.07267174301468 
	-140.00589084027587 -2.3104189430327633 -126.58829342797426 
	-141.14209931886111 -3.5149453540557962 -127.43549027934073 
	-141.84717861540224 -4.0386924884225408 -127.76438301380662 
	-143.14853892141321 -4.7093591331685829 -128.01602728296658 
	-143.76831045300239 -4.9483335094775125 -128.03824157669359 
	-145.00155777718334 -5.2636660166639118 -127.83266105741023 
	-145.61448568121037 -5.3415260838495904 -127.60388758007527 
	-146.66146202098383 -5.3415260838495913 -126.97480072845178 
	-147.15120923308538 -5.263666016663918 -126.54102015292342 
	-147.91170060631006 -4.9483335094775205 -125.54864160430445 
	-148.18305165864211 -4.7093591331685909 -124.99098684317308 
	-148.57181461354108 -4.0386924884225532 -123.7238140652299 
	-148.61243424457075 -3.5149453540558104 -122.94686021153562 
	-148.39782139407106 -2.3104189430327784 -121.54591284058459 
	-148.14542933386485 -1.62870318955299 -120.92229099391413 
	-147.43790179092503 -0.059921785818119133 -119.74476742100153 
	-146.86583640661144 0.97880213900934177 -119.17347938316136 
	-145.57661344892449 3.1044499906176908 -118.36413474696053 
	-144.8634688502739 4.1922663691311541 -118.12203996875188 
	-143.60150256499142 5.9041570121307156 -117.97358448435853 
	-142.91949700716171 6.7743532805329814 -117.99144344840565 
	-142.03617972122976 7.4778667911921204 -118.23862486149444 
	-141.83109769311153 7.6179177157084474 -118.30733222059315 
	-141.40767012810969 7.8162709096044072 -118.48595460062445 
	-141.18861063284962 7.8721228217175945 -118.59688762921863 
	-140.98759310199657 7.8721228217175945 -118.71767114724238 
	0.0040981516548797507 
	cone -143.56278347654683 -27.525846877317043 -123.00350765075299 -6.5242599329559715e-16 1 1.3550812755862379e-15 -2.5751903745502744 4.1275356580899272e-15 -4.2858365035105592 1 I I 0 1 5 forward I I I I 
	cone -157.53553342739707 15.499179023140762 -136.55004857391538 0.85716730070211189 1.2571566791056788e-15 -0.51503807491005493 -12.875951872751372 2.0637678290449636e-14 -21.429182517552796 1 I I 0 1 25 forward I I I I 
	nullbs 
	nullbs 
	I I 
	0 
	0 
	0 
	} F -2.9260122347033199 F -1.1434336487786676 #
DXID-attrib $-1 -1 $-1 $170 $134 @18 ASM_EDGE_FROM_STEP @4 1863 #
DXID-attrib $-1 -1 $-1 $172 $135 @18 ASM_EDGE_FROM_STEP @4 1868 #
DXID-attrib $-1 -1 $-1 $179 $147 @18 ASM_EDGE_FROM_STEP @4 1864 #
DXID-attrib $-1 -1 $-1 $182 $152 @18 ASM_EDGE_FROM_STEP @4 1871 #
DXID-attrib $-1 -1 $-1 $187 $161 @18 ASM_EDGE_FROM_STEP @4 1870 #
point $-1 -1 $-1 -142.4039478079992 2.02496987602182 -121.0748812241732 #
DXID-attrib $-1 -1 $202 $193 $169 @18 ASM_EDGE_FROM_STEP @4 1867 #
DXID-attrib $-1 -1 $-1 $201 $169 @18 ASM_EDGE_FROM_STEP @4 1866 #
