700 646 1 0         
5 ZWCAD 12 ACIS 28.0 NT 24 Sat May 11 15:28:06 2024 
1 9.9999999999999995e-07 1e-10 
body $1 -1 $-1 $2 $-1 $-1 #
DXID-attrib $-1 -1 $-1 $-1 $0 @18 ASM_BODY_FROM_STEP @62 ASSEMBLED SHELL-737|:|B8A4396250C5687B1D31E70758B30729E1AC4426 #
lump $-1 -1 $-1 $-1 $3 $0 #
shell $-1 -1 $-1 $-1 $-1 $4 $-1 $2 #
face $5 -1 $-1 $6 $7 $3 $-1 $8 forward single #
truecolor-adesk-attrib $-1 -1 $9 $-1 $4 -1031765888 #
face $10 -1 $-1 $11 $12 $3 $-1 $13 forward single #
loop $-1 -1 $-1 $-1 $14 $4 #
cone-surface $-1 -1 $-1 -134.03541225025103 96.473442299595376 -90.899153666160259 -2.4782963031101866e-15 -1 2.4042173968287298e-15 0.052357219311854886 -7.3413103716840122e-15 -2.9995430854691736 1 I I 0 1 2.9999999999999991 forward I I I I #
DXID-attrib $-1 -1 $-1 $5 $4 @18 ASM_FACE_FROM_STEP @20 Assembled Shell-3623 #
truecolor-adesk-attrib $-1 -1 $15 $-1 $6 -1031765888 #
face $16 -1 $-1 $17 $18 $3 $-1 $19 reversed single #
loop $-1 -1 $-1 $-1 $20 $6 #
plane-surface $-1 -1 $-1 -136.62292522186507 96.473442299595376 -92.570912207854931 -0.69465837045899637 -7.8799907724151706e-18 -0.71933980033865219 -1.7414974593668015e-16 10 5.8629692092962351e-17 forward_v I I I I #
coedge $-1 -1 $-1 $21 $22 $23 $24 forward $7 $-1 #
DXID-attrib $-1 -1 $-1 $10 $6 @18 ASM_FACE_FROM_STEP @20 Assembled Shell-3624 #
truecolor-adesk-attrib $-1 -1 $25 $-1 $11 -1031765888 #
face $26 -1 $-1 $27 $28 $3 $-1 $29 forward single #
loop $-1 -1 $-1 $-1 $23 $11 #
plane-surface $-1 -1 $-1 -130.81143335427777 95.273442299595374 -87.061717488668833 2.7474401529730037e-15 1 -2.1611927038295271e-15 7.1933980033865215 -3.4776336529720869e-14 -6.9465837045899637 forward_v I I I I #
coedge $-1 -1 $-1 $30 $31 $21 $32 reversed $12 $-1 #
coedge $-1 -1 $-1 $33 $14 $20 $32 forward $7 $-1 #
coedge $-1 -1 $-1 $14 $33 $34 $35 forward $7 $-1 #
coedge $-1 -1 $-1 $36 $37 $14 $24 reversed $18 $-1 #
edge $38 -1 $-1 $39 -0.78539816339744828 $40 0.78539816339744828 $14 $41 forward @7 unknown #
DXID-attrib $-1 -1 $-1 $16 $11 @18 ASM_FACE_FROM_STEP @20 Assembled Shell-3625 #
truecolor-adesk-attrib $-1 -1 $42 $-1 $17 -1031765888 #
face $43 -1 $-1 $44 $45 $3 $-1 $46 forward single #
loop $-1 -1 $-1 $-1 $47 $17 #
cone-surface $-1 -1 $-1 -135.04248797072515 96.473442299595376 -89.926631947517663 -2.4782963031101874e-15 -1 2.4042173968287294e-15 -2.9995430854691736 7.307878402218838e-15 -0.052357219311854886 1 I I 0 1 2.9999999999999991 forward I I I I #
coedge $-1 -1 $-1 $48 $20 $37 $49 forward $12 $-1 #
coedge $-1 -1 $-1 $20 $48 $50 $51 reversed $12 $-1 #
edge $52 -1 $-1 $40 -0.12000000000000002 $53 0 $21 $54 forward @7 unknown #
coedge $-1 -1 $-1 $22 $21 $55 $56 forward $7 $-1 #
coedge $-1 -1 $-1 $57 $58 $22 $35 reversed $45 $-1 #
edge $59 -1 $-1 $60 0 $39 0.12000000000000002 $22 $61 forward @7 unknown #
coedge $-1 -1 $-1 $62 $23 $58 $63 reversed $18 $-1 #
coedge $-1 -1 $-1 $23 $64 $30 $49 reversed $18 $-1 #
truecolor-adesk-attrib $-1 -1 $65 $-1 $24 -1031765888 #
vertex $-1 -1 $-1 $24 $66 #
vertex $-1 -1 $-1 $24 $67 #
ellipse-curve $-1 -1 $-1 -134.03541225025103 95.273442299595374 -90.899153666160259 2.7474401529730037e-15 1 -2.1611927038295271e-15 0.052357219311854886 -6.6264389577736853e-15 -2.9995430854691736 1 F -0.78539816339744828 F 0.78539816339744828 #
DXID-attrib $-1 -1 $-1 $26 $17 @18 ASM_FACE_FROM_STEP @20 Assembled Shell-3626 #
truecolor-adesk-attrib $-1 -1 $68 $-1 $27 -1031765888 #
face $69 -1 $-1 $70 $71 $3 $-1 $72 forward single #
loop $-1 -1 $-1 $-1 $34 $27 #
plane-surface $-1 -1 $-1 -131.53006366400558 96.473442299595362 -92.623458877367938 0.71933980033865219 -3.4528469069695169e-15 -0.69465837045899637 6.9465837045899637 -9.1730586308188189e-15 7.1933980033865215 forward_v I I I I #
coedge $-1 -1 $-1 $73 $74 $64 $75 forward $28 $-1 #
coedge $-1 -1 $-1 $31 $30 $74 $76 reversed $12 $-1 #
edge $77 -1 $-1 $40 0.29999999999999999 $78 0.440000000000001 $30 $79 forward @7 unknown #
coedge $-1 -1 $-1 $80 $55 $31 $51 forward $81 $-1 #
edge $82 -1 $-1 $53 0.29999999999999999 $83 0.44 $31 $84 forward @7 unknown #
truecolor-adesk-attrib $-1 -1 $85 $-1 $32 -1031765888 #
vertex $-1 -1 $-1 $32 $86 #
straight-curve $-1 -1 $-1 -136.11938736162801 96.473442299595376 -93.057173067176223 2.4782963031101876e-14 10 -2.4042173968287303e-14 F -0.12000000000000002 F 0 #
coedge $-1 -1 $-1 $50 $87 $33 $56 reversed $81 $-1 #
edge $88 -1 $-1 $53 -0.78539816339744828 $60 0.78539816339744828 $33 $89 forward @7 unknown #
coedge $-1 -1 $-1 $90 $34 $87 $91 reversed $45 $-1 #
coedge $-1 -1 $-1 $34 $90 $36 $63 forward $45 $-1 #
truecolor-adesk-attrib $-1 -1 $92 $-1 $35 -1031765888 #
vertex $-1 -1 $-1 $56 $93 #
straight-curve $-1 -1 $-1 -131.87739284923509 96.473442299595362 -92.983128777537246 -2.4782963031101876e-14 -10 2.4042173968287303e-14 F 0 F 0.12000000000000002 #
coedge $-1 -1 $-1 $94 $36 $95 $96 reversed $18 $-1 #
edge $97 -1 $-1 $98 -3.9968028886505635e-15 $39 0.39999999999999597 $36 $99 forward @7 unknown #
coedge $-1 -1 $-1 $37 $100 $47 $75 reversed $18 $-1 #
DXID-attrib $-1 -1 $-1 $38 $24 @18 ASM_EDGE_FROM_STEP @4 2020 #
point $-1 -1 $-1 -131.87739284923509 95.273442299595359 -92.98312877753726 #
point $-1 -1 $-1 -136.11938736162801 95.273442299595374 -93.057173067176223 #
DXID-attrib $-1 -1 $-1 $43 $27 @18 ASM_FACE_FROM_STEP @20 Assembled Shell-3627 #
truecolor-adesk-attrib $-1 -1 $101 $-1 $44 -1031765888 #
face $102 -1 $-1 $103 $104 $3 $-1 $105 forward single #
loop $-1 -1 $-1 $-1 $106 $44 #
plane-surface $-1 -1 $-1 -127.80394772678952 97.823442299595357 -91.356154643008836 -0.69465837045899637 7.3226869231102285e-16 -0.71933980033865219 4.9673550349444512e-15 10 5.3828137511945292e-15 forward_v I I I I #
coedge $-1 -1 $-1 $107 $47 $108 $109 forward $28 $-1 #
coedge $-1 -1 $-1 $47 $107 $48 $76 forward $28 $-1 #
edge $110 -1 $-1 $78 -0.78539816339744828 $111 0.78539816339744828 $64 $112 forward @7 unknown #
edge $113 -1 $-1 $83 0 $78 0.12000000000000002 $48 $114 forward @7 unknown #
truecolor-adesk-attrib $-1 -1 $115 $-1 $49 -1031765888 #
vertex $-1 -1 $-1 $49 $116 #
straight-curve $-1 -1 $-1 -133.96136796061208 95.273442299595359 -95.141148178553209 -7.1933980033865215 3.4716006742773867e-14 6.9465837045899637 F 0.29999999999999999 F 0.440000000000001 #
coedge $-1 -1 $-1 $117 $50 $107 $118 reversed $81 $-1 #
loop $-1 -1 $-1 $-1 $55 $119 #
truecolor-adesk-attrib $-1 -1 $120 $-1 $51 -1031765888 #
vertex $-1 -1 $-1 $76 $121 #
straight-curve $-1 -1 $-1 -133.96136796061208 96.473442299595362 -95.141148178553209 -7.1933980033865215 3.4716006742773867e-14 6.9465837045899637 F 0.29999999999999999 F 0.44 #
DXID-attrib $-1 -1 $-1 $52 $32 @18 ASM_EDGE_FROM_STEP @4 2021 #
point $-1 -1 $-1 -136.11938736162801 96.473442299595376 -93.057173067176223 #
coedge $-1 -1 $-1 $55 $122 $57 $91 forward $81 $-1 #
truecolor-adesk-attrib $-1 -1 $123 $-1 $56 -1031765888 #
ellipse-curve $-1 -1 $-1 -134.03541225025103 96.473442299595376 -90.899153666160259 -2.7474401529730037e-15 -1 2.1611927038295271e-15 0.052357219311854886 -6.6264389577736853e-15 -2.9995430854691736 1 F -0.78539816339744828 F 0.78539816339744828 #
coedge $-1 -1 $-1 $58 $57 $106 $124 reversed $45 $-1 #
edge $125 -1 $-1 $126 -3.9968028886505635e-15 $60 0.39999999999999597 $57 $127 forward @7 unknown #
DXID-attrib $-1 -1 $-1 $59 $35 @18 ASM_EDGE_FROM_STEP @4 2023 #
point $-1 -1 $-1 -131.87739284923509 96.473442299595362 -92.983128777537246 #
coedge $-1 -1 $-1 $100 $62 $128 $129 reversed $18 $-1 #
coedge $-1 -1 $-1 $130 $131 $62 $96 forward $132 $-1 #
edge $133 -1 $-1 $134 -0.099998449999999975 $98 0.099998450000000016 $62 $135 forward @7 unknown #
truecolor-adesk-attrib $-1 -1 $136 $-1 $63 -1031765888 #
vertex $-1 -1 $-1 $63 $137 #
straight-curve $-1 -1 $-1 -129.09875936739911 95.273442299595359 -90.105769576182666 -6.9465837045899637 3.6219435076929984e-15 -7.1933980033865215 F -3.9968028886505635e-15 F 0.39999999999999597 #
coedge $-1 -1 $-1 $64 $94 $138 $139 reversed $18 $-1 #
DXID-attrib $-1 -1 $-1 $69 $44 @18 ASM_FACE_FROM_STEP @20 Assembled Shell-3628 #
truecolor-adesk-attrib $-1 -1 $140 $-1 $70 -1031765888 #
face $141 -1 $-1 $142 $143 $3 $-1 $144 reversed single #
loop $-1 -1 $-1 $-1 $145 $70 #
cone-surface $-1 -1 $-1 -126.41463098587153 96.573442299595357 -89.917475042331532 -0.71933980033865219 -1.6600044984092921e-17 0.69465837045899637 -0.98239528871910919 1.4142135623730918 -1.0173001015936791 1 I I 0 1 2.0000000000000004 forward I I I I #
coedge $-1 -1 $-1 $146 $147 $90 $124 forward $71 $-1 #
coedge $-1 -1 $-1 $74 $73 $80 $118 forward $28 $-1 #
coedge $-1 -1 $-1 $138 $148 $73 $109 reversed $149 $-1 #
edge $150 -1 $-1 $111 -0.12000000000000002 $151 0 $73 $152 forward @7 unknown #
truecolor-adesk-attrib $-1 -1 $153 $-1 $75 -1031765888 #
vertex $-1 -1 $-1 $139 $154 #
ellipse-curve $-1 -1 $-1 -135.04248797072515 95.273442299595374 -89.926631947517663 2.7474401529730037e-15 1 -2.1611927038295271e-15 -2.9995430854691736 8.1279110732209567e-15 -0.052357219311854886 1 F -0.78539816339744828 F 0.78539816339744828 #
truecolor-adesk-attrib $-1 -1 $155 $-1 $76 -1031765888 #
straight-curve $-1 -1 $-1 -137.12646308210213 96.473442299595376 -92.084651348533626 -2.4782963031101876e-14 -10 2.4042173968287303e-14 F 0 F 0.12000000000000002 #
DXID-attrib $-1 -1 $-1 $77 $49 @18 ASM_EDGE_FROM_STEP @4 2024 #
point $-1 -1 $-1 -137.12646308210213 95.273442299595374 -92.084651348533626 #
coedge $-1 -1 $-1 $156 $80 $148 $157 reversed $81 $-1 #
edge $158 -1 $-1 $151 -0.78539816339744828 $83 0.78539816339744828 $107 $159 forward @7 unknown #
face $160 -1 $-1 $161 $81 $3 $-1 $162 forward single #
DXID-attrib $-1 -1 $-1 $82 $51 @18 ASM_EDGE_FROM_STEP @4 2026 #
point $-1 -1 $-1 -137.12646308210213 96.473442299595376 -92.084651348533626 #
coedge $-1 -1 $-1 $87 $156 $163 $164 reversed $81 $-1 #
DXID-attrib $-1 -1 $-1 $88 $56 @18 ASM_EDGE_FROM_STEP @4 2022 #
edge $165 -1 $-1 $98 -0.18750000000000003 $126 -0.067500000000000004 $90 $166 forward @7 unknown #
truecolor-adesk-attrib $-1 -1 $167 $-1 $91 -1031765888 #
vertex $-1 -1 $-1 $91 $168 #
straight-curve $-1 -1 $-1 -129.09875936739911 96.473442299595362 -90.105769576182666 -6.9465837045899637 3.6219435076929984e-15 -7.1933980033865215 F -3.9968028886505635e-15 F 0.39999999999999597 #
coedge $-1 -1 $-1 $169 $170 $94 $129 forward $171 $-1 #
edge $172 -1 $-1 $173 -0.81068583470577105 $134 -0.070685834705770986 $94 $174 forward @7 unknown #
coedge $-1 -1 $-1 $175 $95 $147 $176 reversed $132 $-1 #
coedge $-1 -1 $-1 $95 $177 $169 $178 forward $132 $-1 #
loop $-1 -1 $-1 $-1 $175 $142 #
truecolor-adesk-attrib $-1 -1 $179 $-1 $96 -1031765888 #
vertex $-1 -1 $-1 $96 $180 #
straight-curve $-1 -1 $-1 -128.40411176414486 95.273442299595359 -89.386440925610884 -6.9465837045899637 -1.9293437026688817e-15 -7.1933980033865215 F -0.099998449999999975 F 0.099998450000000016 #
DXID-attrib $-1 -1 $-1 $97 $63 @18 ASM_EDGE_FROM_STEP @4 2027 #
point $-1 -1 $-1 -129.09875936739911 95.273442299595359 -90.105769576182638 #
coedge $-1 -1 $-1 $181 $108 $100 $139 forward $149 $-1 #
edge $182 -1 $-1 $111 0.30000000000000004 $173 0.89999689999999999 $100 $183 forward @7 unknown #
DXID-attrib $-1 -1 $-1 $102 $70 @18 ASM_FACE_FROM_STEP @20 Assembled Shell-3629 #
truecolor-adesk-attrib $-1 -1 $184 $-1 $103 -1031765888 #
face $185 -1 $-1 $186 $132 $3 $-1 $187 forward single #
loop $-1 -1 $-1 $-1 $188 $103 #
cone-surface $-1 -1 $-1 -129.09875936739908 97.073442299595357 -90.105769576182638 0.69465837045899637 -2.4756252666909386e-16 0.71933980033865219 -1.6932734027213839e-15 -0.59999999999999998 1.4286836710421325e-15 1 I I 0 1 0.59999999999999998 forward I I I I #
coedge $-1 -1 $-1 $189 $190 $188 $191 forward $104 $-1 #
coedge $-1 -1 $-1 $192 $106 $193 $194 forward $71 $-1 #
coedge $-1 -1 $-1 $106 $192 $130 $176 forward $71 $-1 #
coedge $-1 -1 $-1 $108 $181 $117 $157 forward $149 $-1 #
loop $-1 -1 $-1 $-1 $108 $186 #
truecolor-adesk-attrib $-1 -1 $195 $-1 $109 -1031765888 #
vertex $-1 -1 $-1 $109 $196 #
straight-curve $-1 -1 $-1 -137.20050737174111 96.473442299595376 -87.842656836140677 2.4782963031101876e-14 10 -2.4042173968287303e-14 F -0.12000000000000002 F 0 #
DXID-attrib $-1 -1 $-1 $110 $75 @18 ASM_EDGE_FROM_STEP @4 2031 #
point $-1 -1 $-1 -137.20050737174111 95.273442299595388 -87.842656836140691 #
DXID-attrib $-1 -1 $-1 $113 $76 @18 ASM_EDGE_FROM_STEP @4 2025 #
coedge $-1 -1 $-1 $122 $117 $197 $198 reversed $81 $-1 #
edge $199 -1 $-1 $200 0 $151 0.59999689999999983 $148 $201 forward @7 unknown #
truecolor-adesk-attrib $-1 -1 $202 $-1 $118 -1031765888 #
ellipse-curve $-1 -1 $-1 -135.04248797072515 96.473442299595376 -89.926631947517663 -2.7474401529730037e-15 -1 2.1611927038295271e-15 -2.9995430854691736 8.1279110732209567e-15 -0.052357219311854886 1 F -0.78539816339744828 F 0.78539816339744828 #
truecolor-adesk-attrib $-1 -1 $203 $-1 $119 -1031765888 #
face $204 -1 $-1 $205 $171 $3 $-1 $206 reversed single #
plane-surface $-1 -1 $-1 -130.81143335427777 96.473442299595362 -87.061717488668833 2.7474401529730037e-15 1 -2.1611927038295271e-15 7.1933980033865215 -3.4776336529720869e-14 -6.9465837045899637 forward_v I I I I #
coedge $-1 -1 $-1 $207 $193 $122 $164 forward $143 $-1 #
edge $208 -1 $-1 $126 -0.099998450000000016 $209 0.099998449999999836 $163 $210 forward @7 unknown #
truecolor-adesk-attrib $-1 -1 $211 $-1 $124 -1031765888 #
straight-curve $-1 -1 $-1 -129.09875936739908 97.148442299595359 -90.105769576182652 2.9924467811983003e-14 10 -1.8717989909185736e-14 F -0.18750000000000003 F -0.067500000000000004 #
DXID-attrib $-1 -1 $-1 $125 $91 @18 ASM_EDGE_FROM_STEP @4 2034 #
point $-1 -1 $-1 -129.09875936739908 96.473442299595362 -90.105769576182638 #
coedge $-1 -1 $-1 $212 $128 $131 $178 reversed $171 $-1 #
coedge $-1 -1 $-1 $128 $197 $181 $213 forward $171 $-1 #
loop $-1 -1 $-1 $-1 $214 $161 #
truecolor-adesk-attrib $-1 -1 $215 $-1 $129 -1031765888 #
vertex $-1 -1 $-1 $129 $216 #
straight-curve $-1 -1 $-1 -127.20099281865038 95.273442299595359 -89.158137342551598 7.1933980033865215 -3.4755896437893068e-14 -6.9465837045899637 F -0.81068583470577105 F -0.070685834705770986 #
coedge $-1 -1 $-1 $177 $130 $217 $218 reversed $132 $-1 #
edge $219 -1 $-1 $220 0.28148007323084384 $98 1.570796326794901 $147 $221 forward @7 unknown #
coedge $-1 -1 $-1 $131 $175 $222 $223 reversed $132 $-1 #
edge $224 -1 $-1 $225 1.2335811384723945e-15 $134 1.5707963267949034 $131 $226 forward @7 unknown #
DXID-attrib $-1 -1 $-1 $133 $96 @18 ASM_EDGE_FROM_STEP @4 2028 #
point $-1 -1 $-1 -127.7094641608906 95.273442299595359 -88.667112275039145 #
coedge $-1 -1 $-1 $148 $138 $170 $213 reversed $149 $-1 #
truecolor-adesk-attrib $-1 -1 $227 $-1 $139 -1031765888 #
straight-curve $-1 -1 $-1 -139.2844824831181 95.273442299595388 -90.00067623715664 6.9465837045899637 -3.6219435076929984e-15 7.1933980033865215 F 0.30000000000000004 F 0.89999689999999999 #
DXID-attrib $-1 -1 $-1 $141 $103 @18 ASM_FACE_FROM_STEP @20 Assembled Shell-3630 #
truecolor-adesk-attrib $-1 -1 $228 $-1 $142 -1031765888 #
face $229 -1 $-1 $119 $149 $3 $-1 $230 forward single #
cone-surface $-1 -1 $-1 -129.09875936739908 97.073442299595357 -90.105769576182638 0.69465837045899648 -2.4756252666909376e-16 0.71933980033865208 -4.8801633059478473e-15 -1.7999999999999996 4.0932445838433613e-15 1 I I 0 1 1.7999999999999998 forward I I I I #
coedge $-1 -1 $-1 $193 $231 $145 $191 reversed $143 $-1 #
coedge $-1 -1 $-1 $232 $145 $233 $234 forward $104 $-1 #
coedge $-1 -1 $-1 $145 $217 $192 $235 forward $104 $-1 #
edge $236 -1 $-1 $237 -0.15192666388044102 $238 -0.094513702724916243 $145 $239 forward @7 unknown #
coedge $-1 -1 $-1 $147 $146 $190 $235 reversed $71 $-1 #
coedge $-1 -1 $-1 $163 $188 $146 $194 reversed $143 $-1 #
edge $240 -1 $-1 $126 -0.58116687535557809 $237 0.0045186681015745829 $146 $241 forward @7 unknown #
DXID-attrib $-1 -1 $-1 $150 $109 @18 ASM_EDGE_FROM_STEP @4 2032 #
point $-1 -1 $-1 -137.20050737174111 96.473442299595376 -87.842656836140677 #
coedge $-1 -1 $-1 $170 $242 $156 $198 forward $171 $-1 #
edge $243 -1 $-1 $209 0.070685834705769987 $200 0.81068583470577005 $156 $244 forward @7 unknown #
truecolor-adesk-attrib $-1 -1 $245 $-1 $157 -1031765888 #
vertex $-1 -1 $-1 $213 $246 #
straight-curve $-1 -1 $-1 -133.03257868339662 96.473442299595391 -83.526640333642575 -6.9465837045899637 3.6218574640749585e-15 -7.1933980033865215 F 0 F 0.59999689999999983 #
DXID-attrib $-1 -1 $-1 $158 $118 @18 ASM_EDGE_FROM_STEP @4 2033 #
DXID-attrib $-1 -1 $-1 $160 $119 @18 ASM_FACE_FROM_STEP @20 Assembled Shell-3633 #
truecolor-adesk-attrib $-1 -1 $247 $-1 $161 -1031765888 #
face $248 -1 $-1 $249 $250 $3 $-1 $251 reversed single #
plane-surface $-1 -1 $-1 -126.41465252028101 97.173442299595351 -89.917497341865342 -0.69465837045899637 3.6220282109877579e-16 -0.71933980033865219 2.3966614843565679e-15 10 2.7207826520948575e-15 forward_v I I I I #
coedge $-1 -1 $-1 $231 $163 $242 $252 reversed $143 $-1 #
truecolor-adesk-attrib $-1 -1 $253 $-1 $164 -1031765888 #
vertex $-1 -1 $-1 $164 $254 #
straight-curve $-1 -1 $-1 -128.40411176414483 96.473442299595362 -89.386440925610898 6.9465837045899637 1.9293437026688817e-15 7.1933980033865215 F -0.099998450000000016 F 0.099998449999999836 #
DXID-attrib $-1 -1 $-1 $165 $124 @18 ASM_EDGE_FROM_STEP @4 2035 #
coedge $-1 -1 $-1 $255 $169 $256 $257 reversed $171 $-1 #
edge $258 -1 $-1 $200 0 $173 0.12000000000000002 $181 $259 forward @7 unknown #
coedge $-1 -1 $-1 $242 $255 $260 $261 reversed $171 $-1 #
DXID-attrib $-1 -1 $-1 $172 $129 @18 ASM_EDGE_FROM_STEP @4 2029 #
point $-1 -1 $-1 -133.03257868339662 95.273442299595388 -83.526640333642575 #
coedge $-1 -1 $-1 $190 $262 $175 $218 forward $104 $-1 #
edge $263 -1 $-1 $264 0.80871540575224621 $220 0.85716202780372042 $217 $265 forward @7 unknown #
truecolor-adesk-attrib $-1 -1 $266 $-1 $176 -1031765888 #
vertex $-1 -1 $-1 $235 $267 #
ellipse-curve $-1 -1 $-1 -129.09875936739908 97.073442299595357 -90.105769576182638 -0.69465837045899637 9.1730586308188181e-16 -0.71933980033865219 1.2948116406095735 -2.1905659682789429e-15 -1.2503850668261931 1 F 0.28148007323084384 F 1.570796326794901 #
coedge $-1 -1 $-1 $268 $256 $177 $223 forward $269 $-1 #
edge $270 -1 $-1 $225 3.0999999999573032e-06 $264 0.19364916731037071 $177 $271 forward @7 unknown #
truecolor-adesk-attrib $-1 -1 $272 $-1 $178 -1031765888 #
vertex $-1 -1 $-1 $223 $273 #
ellipse-curve $-1 -1 $-1 -127.70946416089058 97.073442299595357 -88.667112275039145 -0.69465837045899637 3.6218446094675988e-16 -0.71933980033865219 1.2948116406095735 2.2503261302216773e-15 -1.2503850668261931 1 F 1.2335811384723945e-15 F 1.5707963267949034 #
DXID-attrib $-1 -1 $-1 $182 $139 @18 ASM_EDGE_FROM_STEP @4 2030 #
DXID-attrib $-1 -1 $-1 $185 $142 @18 ASM_FACE_FROM_STEP @20 Assembled Shell-3631 #
truecolor-adesk-attrib $-1 -1 $274 $-1 $186 -1031765888 #
plane-surface $-1 -1 $-1 -133.72722628665088 96.473442299595391 -84.245968984214329 -0.71933980033865219 3.4528469069695169e-15 0.69465837045899637 -6.9465837045899637 9.1730586308188189e-15 -7.1933980033865215 forward_v I I I I #
coedge $-1 -1 $-1 $188 $207 $275 $276 forward $143 $-1 #
coedge $-1 -1 $-1 $262 $189 $277 $278 forward $104 $-1 #
coedge $-1 -1 $-1 $275 $279 $189 $234 reversed $280 $-1 #
edge $281 -1 $-1 $238 -0.53271790825536591 $282 0.78539816339745172 $189 $283 forward @7 unknown #
edge $284 -1 $-1 $220 0.00708383534209417 $237 0.146833752096446 $192 $285 forward @7 unknown #
truecolor-adesk-attrib $-1 -1 $286 $-1 $191 -1031765888 #
vertex $-1 -1 $-1 $194 $287 #
vertex $-1 -1 $-1 $191 $288 #
intcurve-curve $-1 -1 $-1 reversed { surfintcur full nubs 3 periodic 17 
	0 3 0.02288875046009161 2 0.04577750092018322 2 0.070145601822549725 2 0.094513702724916243 2 
	0.1173537437302604 2 0.14019378473560457 2 0.1628384285498263 2 0.18548307236404804 2 0.20812771617826981 2 
	0.23077235999249154 2 0.25361240099783572 2 0.27645244200317987 2 0.30082054290554638 2 0.3251886438079129 2 
	0.34807739426800455 2 0.37096614472809614 3 
	-128.86975086229606 97.673442299595365 -89.868624327032578 
	-128.81486823167617 97.673442299595365 -89.921623867354086 
	-128.7645792472579 97.658021688776728 -89.984676500560056 
	-128.68604095979435 97.598197005277825 -90.11213636463745 
	-128.65736275437345 97.553858337422199 -90.176309536026096 
	-128.61863363022422 97.450825682348039 -90.28899392439979 
	-128.60683957642169 97.383572149120837 -90.344952239343954 
	-128.60202669434628 97.234256448208697 -90.431683733295998 
	-128.60893264193686 97.152090007073326 -90.462273077237171 
	-128.63626058437853 96.999726384228367 -90.490571990049048 
	-128.65755709382239 96.919892399324041 -90.491772077533128 
	-128.71537438112796 96.771798588899856 -90.4642427865206 
	-128.75208917635098 96.703586475725089 -90.435664787267697 
	-128.83192895456071 96.596284276614043 -90.364256504021327 
	-128.88016387044004 96.549976073606203 -90.317001431008521 
	-128.98547607919323 96.488555004605374 -90.212988814957527 
	-129.0427243228435 96.473442299595362 -90.156404405878234 
	-129.15131894657725 96.473442299595362 -90.051535796734157 
	-129.20986682085388 96.488555004605374 -89.996297194565216 
	-129.31749141831162 96.549976073606203 -89.89467912711504 
	-129.36640107909841 96.596284276614043 -89.848122772907985 
	-129.44055223042437 96.703586475725089 -89.770823744079635 
	-129.47039414860708 96.771798588899856 -89.735128672308548 
	-129.49992446374702 96.919892399324041 -89.678307364133147 
	-129.49946834478493 96.999726384228367 -89.656981945498259 
	-129.47214040234326 97.152090007073326 -89.628683032686382 
	-129.44181070669907 97.234256448208697 -89.620713739304449 
	-129.35496408006762 97.383572149120837 -89.622496804014958 
	-129.29862824687518 97.450825682348039 -89.632330756170717 
	-129.18466087584574 97.553858337422199 -89.667103659143464 
	-129.11952594208367 97.598197005277825 -89.69352478319324 
	-128.98940277640727 97.658021688776728 -89.767566942148008 
	-128.92463349291594 97.673442299595365 -89.815624786711084 
	-128.86975086229606 97.673442299595365 -89.868624327032578 
	0.0011856760853178427 
	cone -129.09875936739908 97.073442299595357 -90.105769576182638 0.69465837045899637 -2.4756252666909386e-16 0.71933980033865219 -1.6932734027213839e-15 -0.59999999999999998 1.4286836710421325e-15 1 I I 0 1 0.59999999999999998 forward I I I I 
	cone -126.41463098587153 96.573442299595357 -89.917475042331532 -0.71933980033865219 -1.6600044984092921e-17 0.69465837045899637 -0.98239528871910919 1.4142135623730918 -1.0173001015936791 1 I I 0 -1 2.0000000000000004 forward I I I I 
	nullbs 
	nullbs 
	I I 
	0 
	0 
	0 
	} F -0.15192666388044102 F -0.094513702724916243 #
truecolor-adesk-attrib $-1 -1 $289 $-1 $194 -1031765888 #
ellipse-curve $-1 -1 $-1 -129.09875936739908 97.073442299595357 -90.105769576182638 0.6946583704589957 -5.8378173476339801e-16 0.71933980033865286 0.23695036239301465 -0.50149356298277503 -0.22882030514940183 0.999999999999995 F -0.58116687535557809 F 0.0045186681015745829 #
coedge $-1 -1 $-1 $197 $214 $207 $252 forward $171 $-1 #
truecolor-adesk-attrib $-1 -1 $290 $-1 $198 -1031765888 #
straight-curve $-1 -1 $-1 -127.20099281865038 96.473442299595362 -89.158137342551598 -7.1933980033865215 3.4755896437893068e-14 6.9465837045899637 F 0.070685834705769987 F 0.81068583470577005 #
DXID-attrib $-1 -1 $-1 $199 $157 @18 ASM_EDGE_FROM_STEP @4 2050 #
point $-1 -1 $-1 -133.03257868339662 96.473442299595391 -83.526640333642575 #
DXID-attrib $-1 -1 $-1 $204 $161 @18 ASM_FACE_FROM_STEP @20 Assembled Shell-3634 #
truecolor-adesk-attrib $-1 -1 $291 $-1 $205 -1031765888 #
face $292 -1 $-1 $293 $294 $3 $-1 $295 reversed single #
loop $-1 -1 $-1 $-1 $296 $205 #
plane-surface $-1 -1 $-1 -126.34518668323511 97.273442299595359 -89.845563361831481 6.2527312301647308e-16 1 6.713859765969917e-16 7.1933980033865215 1.6600044984092921e-16 -6.9465837045899637 forward_v I I I I #
edge $297 -1 $-1 $298 -2.473267804242115 $209 -0.90247147744718281 $207 $299 forward @7 unknown #
DXID-attrib $-1 -1 $-1 $208 $164 @18 ASM_EDGE_FROM_STEP @4 2044 #
point $-1 -1 $-1 -127.70946416089058 96.473442299595362 -88.667112275039145 #
coedge $-1 -1 $-1 $214 $212 $300 $301 forward $171 $-1 #
coedge $-1 -1 $-1 $222 $302 $212 $257 forward $269 $-1 #
edge $303 -1 $-1 $304 -0.43953418757116902 $225 -0.419534187571169 $212 $305 forward @7 unknown #
truecolor-adesk-attrib $-1 -1 $306 $-1 $213 -1031765888 #
straight-curve $-1 -1 $-1 -133.03257868339662 96.473442299595391 -83.526640333642575 -2.6389683275127221e-14 -10 2.2378366449818064e-14 F 0 F 0.12000000000000002 #
coedge $-1 -1 $-1 $307 $275 $214 $261 forward $280 $-1 #
edge $308 -1 $-1 $298 0.419534187571169 $309 0.43953418757116902 $214 $310 forward @7 unknown #
coedge $-1 -1 $-1 $217 $232 $268 $311 forward $104 $-1 #
truecolor-adesk-attrib $-1 -1 $312 $-1 $218 -1031765888 #
vertex $-1 -1 $-1 $311 $313 #
intcurve-curve $-1 -1 $-1 forward { surfintcur full nubs 3 open 14 
	0.43105579807420014 3 0.48686628805870397 2 0.5426767780432078 2 0.59848726802771157 2 0.65429775801221535 2 
	0.71410413234327563 2 0.77391050667433592 2 0.82822576328747999 2 0.88254101990062406 2 0.95096733935127664 2 
	1.0181604477188462 2 1.0853535560864156 2 1.152546664453985 2 1.2197397728215544 3 
	-126.01934684455713 98.277320709751166 -88.843304006979864 
	-126.17597629348458 98.365446885333242 -88.891366484125939 
	-126.35491828485397 98.442290964730361 -88.951497477217202 
	-126.69996091883715 98.546232265035627 -89.116424883872284 
	-126.86447781537618 98.573442299595357 -89.224443971452146 
	-127.12293930889052 98.573442299595357 -89.492088682933854 
	-127.22515103727255 98.546232265035627 -89.660275172015417 
	-127.37793616034077 98.442290964730361 -90.010863498833416 
	-127.431785537818 98.365446885333242 -90.19179502497164 
	-127.51996703634109 98.182884931697799 -90.519545326106112 
	-127.55989727411742 98.058483945971773 -90.694390543475521 
	-127.63309171735551 97.761502442435173 -90.994583100289844 
	-127.66674149274559 97.588526801437283 -91.119445081450678 
	-127.72903972700982 97.248059880473633 -91.277272524695334 
	-127.76153578326407 97.06015297531205 -91.326529223622742 
	-127.83165626494855 96.682970261077756 -91.337856482379919 
	-127.86973772601931 96.493778125757387 -91.299879209900496 
	-127.95900060210525 96.123479871284772 -91.150528197312653 
	-128.02509273021295 95.908665417390679 -90.994319490457428 
	-128.16069139546789 95.613080339407759 -90.680305143108569 
	-128.24463263330642 95.487099461785547 -90.489222230652103 
	-128.46474793499462 95.31730396481089 -90.106126745121713 
	-128.60411635268093 95.273442299595359 -89.915979335164948 
	-128.92634753372934 95.273442299595359 -89.60480430073369 
	-129.12124299865505 95.31730396481089 -89.472156831428578 
	-129.51178702601197 95.487099461785547 -89.265545457668892 
	-129.70568304287423 95.613080339407759 -89.188324052037615 
	-129.8635123948078 95.759528975095591 -89.126611802064971 
	0.0033775227516019135 
	cone -126.41463098587153 96.573442299595357 -89.917475042331532 -0.71933980033865219 -1.6600044984092921e-17 0.69465837045899637 -0.98239528871910919 1.4142135623730918 -1.0173001015936791 1 I I 0 1 2.0000000000000004 forward I I I I 
	cone -129.09875936739908 97.073442299595357 -90.105769576182638 0.69465837045899648 -2.4756252666909376e-16 0.71933980033865208 -4.8801633059478473e-15 -1.7999999999999996 4.0932445838433613e-15 1 I I 0 1 1.7999999999999998 forward I I I I 
	nullbs 
	nullbs 
	I I 
	0 
	0 
	0 
	} F 0.80871540575224621 F 0.85716202780372042 #
DXID-attrib $-1 -1 $-1 $219 $176 @18 ASM_EDGE_FROM_STEP @4 2038 #
point $-1 -1 $-1 -127.85490457379566 96.573442299595357 -91.306946187855445 #
coedge $-1 -1 $-1 $314 $222 $262 $311 reversed $269 $-1 #
loop $-1 -1 $-1 $-1 $268 $315 #
truecolor-adesk-attrib $-1 -1 $316 $-1 $223 -1031765888 #
straight-curve $-1 -1 $-1 -126.41463098587153 97.073442299595357 -89.917475042331532 -6.9465837045899637 3.6219435076930386e-15 -7.1933980033865215 F 3.0999999999573032e-06 F 0.19364916731037071 #
DXID-attrib $-1 -1 $-1 $224 $178 @18 ASM_EDGE_FROM_STEP @4 2048 #
point $-1 -1 $-1 -126.41465252028101 97.073442299595357 -89.917497341865342 #
DXID-attrib $-1 -1 $-1 $229 $186 @18 ASM_FACE_FROM_STEP @20 Assembled Shell-3632 #
coedge $-1 -1 $-1 $260 $233 $231 $276 reversed $280 $-1 #
edge $317 -1 $-1 $298 3.0999999999573032e-06 $238 0.19364916731037071 $231 $318 forward @7 unknown #
coedge $-1 -1 $-1 $319 $320 $232 $278 reversed $321 $-1 #
edge $322 -1 $-1 $282 -0.12 $323 0 $232 $324 forward @7 unknown #
coedge $-1 -1 $-1 $233 $325 $319 $326 reversed $280 $-1 #
loop $-1 -1 $-1 $-1 $233 $327 #
truecolor-adesk-attrib $-1 -1 $328 $-1 $234 -1031765888 #
vertex $-1 -1 $-1 $234 $329 #
ellipse-curve $-1 -1 $-1 -127.27783874627792 96.573442299595357 -89.083884997780743 0.71933980033865219 1.6600044984092921e-17 -0.69465837045899637 -0.98239528871910919 1.4142135623730918 -1.0173001015936791 1 F -0.53271790825536591 F 0.78539816339745172 #
truecolor-adesk-attrib $-1 -1 $330 $-1 $235 -1031765888 #
straight-curve $-1 -1 $-1 -127.80394772678952 96.573442299595357 -91.356154643008836 -7.1933980033865215 -1.6600044984092921e-16 6.9465837045899637 F 0.00708383534209417 F 0.146833752096446 #
DXID-attrib $-1 -1 $-1 $236 $191 @18 ASM_EDGE_FROM_STEP @4 2039 #
point $-1 -1 $-1 -128.86018134594985 96.573442299595357 -90.336161693411867 #
point $-1 -1 $-1 -128.62303889632355 97.073442299595357 -90.47688053126862 #
DXID-attrib $-1 -1 $-1 $240 $194 @18 ASM_EDGE_FROM_STEP @4 2036 #
DXID-attrib $-1 -1 $-1 $243 $198 @18 ASM_EDGE_FROM_STEP @4 2051 #
DXID-attrib $-1 -1 $-1 $248 $205 @18 ASM_FACE_FROM_STEP @20 Assembled Shell-3635 #
truecolor-adesk-attrib $-1 -1 $331 $-1 $249 -1031765888 #
face $332 -1 $-1 $327 $333 $3 $-1 $334 reversed single #
loop $-1 -1 $-1 $-1 $335 $249 #
plane-surface $-1 -1 $-1 -126.27572084618922 97.173442299595351 -89.773629381797619 0.69465837045899637 -3.9688882028883979e-16 0.71933980033865219 -2.6376106811076875e-15 -10 -2.9702928494141302e-15 forward_v I I I I #
coedge $-1 -1 $-1 $300 $336 $307 $337 reversed $250 $-1 #
truecolor-adesk-attrib $-1 -1 $338 $-1 $252 -1031765888 #
vertex $-1 -1 $-1 $252 $339 #
ellipse-curve $-1 -1 $-1 -127.70946416089058 97.073442299595342 -88.667112275039159 -0.69465837045899637 3.6220929730206085e-16 -0.71933980033865219 -0.33874897132755682 -0.37180325819539739 0.32712607908846397 0.99999999999996836 F -2.473267804242115 F -0.90247147744718281 #
coedge $-1 -1 $-1 $340 $296 $255 $301 reversed $250 $-1 #
edge $341 -1 $-1 $304 0 $309 0.12 $255 $342 forward @7 unknown #
coedge $-1 -1 $-1 $256 $343 $340 $344 forward $269 $-1 #
truecolor-adesk-attrib $-1 -1 $345 $-1 $257 -1031765888 #
vertex $-1 -1 $-1 $257 $346 #
straight-curve $-1 -1 $-1 -126.41465252028101 92.878100423883666 -89.917497341865342 -2.3966614843565679e-15 -10 -2.7207826520948575e-15 F -0.43953418757116902 F -0.419534187571169 #
DXID-attrib $-1 -1 $-1 $258 $213 @18 ASM_EDGE_FROM_STEP @4 2049 #
coedge $-1 -1 $-1 $347 $260 $296 $337 forward $280 $-1 #
truecolor-adesk-attrib $-1 -1 $348 $-1 $261 -1031765888 #
vertex $-1 -1 $-1 $261 $349 #
straight-curve $-1 -1 $-1 -127.27786028068741 92.878100423883666 -89.083907297314553 2.3966614843565679e-15 10 2.7207826520948575e-15 F 0.419534187571169 F 0.43953418757116902 #
edge $350 -1 $-1 $323 -0.78539816339745172 $264 0.53271790825536591 $262 $351 forward @7 unknown #
DXID-attrib $-1 -1 $-1 $263 $218 @18 ASM_EDGE_FROM_STEP @4 2043 #
point $-1 -1 $-1 -127.75983113591715 97.073442299595357 -91.310470575819423 #
coedge $-1 -1 $-1 $352 $268 $320 $353 forward $269 $-1 #
face $354 -1 $-1 $-1 $269 $3 $-1 $355 reversed single #
DXID-attrib $-1 -1 $-1 $270 $223 @18 ASM_EDGE_FROM_STEP @4 2047 #
truecolor-adesk-attrib $-1 -1 $356 $-1 $276 -1031765888 #
straight-curve $-1 -1 $-1 -127.27783874627792 97.073442299595357 -89.083884997780743 -6.9465837045899637 3.6219435076930386e-15 -7.1933980033865215 F 3.0999999999573032e-06 F 0.19364916731037071 #
coedge $-1 -1 $-1 $357 $277 $279 $326 forward $321 $-1 #
coedge $-1 -1 $-1 $277 $357 $314 $353 reversed $321 $-1 #
loop $-1 -1 $-1 $-1 $277 $358 #
truecolor-adesk-attrib $-1 -1 $359 $-1 $278 -1031765888 #
vertex $-1 -1 $-1 $278 $360 #
straight-curve $-1 -1 $-1 -126.41463098587153 98.573442299595357 -89.917475042331532 7.1933980033865215 1.6600044984092921e-16 -6.9465837045899637 F -0.12 F 0 #
coedge $-1 -1 $-1 $279 $361 $362 $363 reversed $280 $-1 #
edge $364 -1 $-1 $282 0.19999999999999973 $365 0.749999999999998 $279 $366 forward @7 unknown #
face $367 -1 $-1 $368 $280 $3 $-1 $369 forward single #
DXID-attrib $-1 -1 $-1 $281 $234 @18 ASM_EDGE_FROM_STEP @4 2040 #
point $-1 -1 $-1 -127.27783874627792 98.573442299595357 -89.083884997780743 #
DXID-attrib $-1 -1 $-1 $284 $235 @18 ASM_EDGE_FROM_STEP @4 2037 #
DXID-attrib $-1 -1 $-1 $292 $249 @18 ASM_FACE_FROM_STEP @20 Assembled Shell-3636 #
truecolor-adesk-attrib $-1 -1 $370 $-1 $293 -1031765888 #
loop $-1 -1 $-1 $-1 $371 $293 #
plane-surface $-1 -1 $-1 -126.34518668323511 97.073442299595357 -89.845563361831481 -6.2527312301647308e-16 -1 -6.713859765969917e-16 -7.1933980033865215 -1.6600044984092921e-16 6.9465837045899637 forward_v I I I I #
coedge $-1 -1 $-1 $372 $373 $347 $374 reversed $294 $-1 #
coedge $-1 -1 $-1 $296 $340 $372 $375 forward $250 $-1 #
edge $376 -1 $-1 $309 -0.27075786644292327 $377 -0.25075786644292319 $296 $378 forward @7 unknown #
DXID-attrib $-1 -1 $-1 $297 $252 @18 ASM_EDGE_FROM_STEP @4 2045 #
point $-1 -1 $-1 -127.27786028068741 97.073442299595357 -89.083907297314553 #
coedge $-1 -1 $-1 $336 $300 $302 $344 reversed $250 $-1 #
truecolor-adesk-attrib $-1 -1 $379 $-1 $301 -1031765888 #
straight-curve $-1 -1 $-1 -126.41465252028101 97.273442299595359 -89.917497341865342 -7.1933980033865215 -1.6600044984092921e-16 6.9465837045899637 F 0 F 0.12 #
coedge $-1 -1 $-1 $302 $380 $381 $382 forward $269 $-1 #
edge $383 -1 $-1 $384 0.25075786644292319 $304 0.27075786644292327 $340 $385 forward @7 unknown #
DXID-attrib $-1 -1 $-1 $303 $257 @18 ASM_EDGE_FROM_STEP @4 2053 #
point $-1 -1 $-1 -126.41465252028101 97.273442299595359 -89.917497341865342 #
coedge $-1 -1 $-1 $386 $307 $335 $374 forward $280 $-1 #
DXID-attrib $-1 -1 $-1 $308 $261 @18 ASM_EDGE_FROM_STEP @4 2052 #
point $-1 -1 $-1 -127.27786028068741 97.273442299595359 -89.083907297314553 #
truecolor-adesk-attrib $-1 -1 $387 $-1 $311 -1031765888 #
ellipse-curve $-1 -1 $-1 -126.41463098587153 96.573442299595357 -89.917475042331532 -0.71933980033865219 -1.6600044984092921e-17 0.69465837045899637 -0.98239528871910919 1.4142135623730918 -1.0173001015936791 1 F -0.78539816339745172 F 0.53271790825536591 #
coedge $-1 -1 $-1 $388 $314 $389 $390 forward $269 $-1 #
edge $391 -1 $-1 $323 0.19999999999999973 $392 0.749999999999998 $320 $393 forward @7 unknown #
truecolor-adesk-attrib $-1 -1 $394 $-1 $315 -1031765888 #
plane-surface $-1 -1 $-1 -122.722433991483 88.582758548171967 -86.094093130155784 -0.71933980033865219 -1.6600044984092921e-17 0.69465837045899637 -6.9465837045899637 9.1730586308188189e-15 -7.1933980033865215 forward_v I I I I #
DXID-attrib $-1 -1 $-1 $317 $276 @18 ASM_EDGE_FROM_STEP @4 2046 #
coedge $-1 -1 $-1 $320 $319 $395 $396 reversed $321 $-1 #
face $397 -1 $-1 $398 $321 $3 $-1 $399 forward single #
DXID-attrib $-1 -1 $-1 $322 $278 @18 ASM_EDGE_FROM_STEP @4 2041 #
point $-1 -1 $-1 -126.41463098587153 98.573442299595357 -89.917475042331532 #
coedge $-1 -1 $-1 $325 $400 $401 $402 reversed $280 $-1 #
coedge $-1 -1 $-1 $403 $395 $325 $363 forward $404 $-1 #
edge $405 -1 $-1 $365 -7.8377592731797797e-17 $406 0.09999999999999995 $325 $407 forward @7 unknown #
truecolor-adesk-attrib $-1 -1 $408 $-1 $326 -1031765888 #
vertex $-1 -1 $-1 $363 $409 #
straight-curve $-1 -1 $-1 -128.66715548719591 98.573442299595357 -90.522564598458047 6.9465837045899637 -8.1864604055321877e-15 7.1933980033865215 F 0.19999999999999973 F 0.749999999999998 #
truecolor-adesk-attrib $-1 -1 $410 $-1 $327 -1031765888 #
face $411 -1 $-1 $412 $413 $3 $-1 $414 forward single #
plane-surface $-1 -1 $-1 -123.5856417518894 88.582758548171967 -85.260503085604995 -0.71933980033865219 -1.6600044984092921e-17 0.69465837045899637 -6.9465837045899637 9.1730586308188189e-15 -7.1933980033865215 forward_v I I I I #
DXID-attrib $-1 -1 $-1 $332 $293 @18 ASM_FACE_FROM_STEP @20 Assembled Shell-3637 #
coedge $-1 -1 $-1 $415 $416 $417 $418 forward $333 $-1 #
coedge $-1 -1 $-1 $381 $335 $336 $375 reversed $294 $-1 #
coedge $-1 -1 $-1 $335 $381 $419 $420 forward $294 $-1 #
edge $421 -1 $-1 $377 -0.43953418757116902 $422 -0.419534187571169 $335 $423 forward @7 unknown #
edge $424 -1 $-1 $384 0 $377 0.12 $336 $425 forward @7 unknown #
truecolor-adesk-attrib $-1 -1 $426 $-1 $337 -1031765888 #
vertex $-1 -1 $-1 $337 $427 #
straight-curve $-1 -1 $-1 -125.39701809776543 97.273442299595359 -87.136238201442836 6.9465837045899637 -9.1730586308188189e-15 7.1933980033865215 F -0.27075786644292327 F -0.25075786644292319 #
DXID-attrib $-1 -1 $-1 $341 $301 @18 ASM_EDGE_FROM_STEP @4 2054 #
coedge $-1 -1 $-1 $343 $428 $416 $429 forward $269 $-1 #
coedge $-1 -1 $-1 $373 $372 $343 $382 reversed $294 $-1 #
edge $430 -1 $-1 $431 0.419534187571169 $384 0.43953418757116902 $381 $432 forward @7 unknown #
truecolor-adesk-attrib $-1 -1 $433 $-1 $344 -1031765888 #
vertex $-1 -1 $-1 $344 $434 #
straight-curve $-1 -1 $-1 -124.53381033735906 97.273442299595359 -87.969828245993625 -6.9465837045899637 9.1730586308188189e-15 -7.1933980033865215 F 0.25075786644292319 F 0.27075786644292327 #
coedge $-1 -1 $-1 $435 $347 $415 $436 forward $280 $-1 #
DXID-attrib $-1 -1 $-1 $350 $311 @18 ASM_EDGE_FROM_STEP @4 2042 #
coedge $-1 -1 $-1 $437 $352 $438 $439 forward $269 $-1 #
coedge $-1 -1 $-1 $395 $403 $352 $390 reversed $404 $-1 #
edge $440 -1 $-1 $392 -7.8377592731797797e-17 $441 0.09999999999999995 $389 $442 forward @7 unknown #
truecolor-adesk-attrib $-1 -1 $443 $-1 $353 -1031765888 #
vertex $-1 -1 $-1 $396 $444 #
straight-curve $-1 -1 $-1 -127.80394772678952 98.573442299595357 -91.356154643008836 6.9465837045899637 -8.1864604055321877e-15 7.1933980033865215 F 0.19999999999999973 F 0.749999999999998 #
DXID-attrib $-1 -1 $-1 $354 $315 @18 ASM_FACE_FROM_STEP @20 Assembled Shell-3648 #
coedge $-1 -1 $-1 $362 $389 $357 $396 forward $404 $-1 #
edge $445 -1 $-1 $392 0 $365 0.12 $357 $446 forward @7 unknown #
truecolor-adesk-attrib $-1 -1 $447 $-1 $358 -1031765888 #
face $448 -1 $-1 $449 $404 $3 $-1 $450 forward single #
plane-surface $-1 -1 $-1 -125.19897883756829 98.573442299595357 -88.658630391738896 5.5673825146893816e-16 1 6.0041603955777634e-16 7.1933980033865215 1.6600044984092921e-16 -6.9465837045899637 forward_v I I I I #
coedge $-1 -1 $-1 $361 $451 $452 $453 reversed $280 $-1 #
coedge $-1 -1 $-1 $454 $455 $361 $402 forward $456 $-1 #
edge $457 -1 $-1 $406 -3.1415926535897931 $458 0 $361 $459 forward @7 unknown #
coedge $-1 -1 $-1 $389 $362 $455 $460 reversed $404 $-1 #
loop $-1 -1 $-1 $-1 $362 $398 #
truecolor-adesk-attrib $-1 -1 $461 $-1 $363 -1031765888 #
vertex $-1 -1 $-1 $402 $462 #
straight-curve $-1 -1 $-1 -123.45721770875343 98.573442299595357 -85.127516095918153 -1.396498840148645e-14 -10 -1.4700135854622289e-14 F -7.8377592731797797e-17 F 0.09999999999999995 #
DXID-attrib $-1 -1 $-1 $364 $326 @18 ASM_EDGE_FROM_STEP @4 2072 #
point $-1 -1 $-1 -123.45721770875343 98.573442299595357 -85.127516095918168 #
DXID-attrib $-1 -1 $-1 $367 $327 @18 ASM_FACE_FROM_STEP @20 Assembled Shell-3638 #
truecolor-adesk-attrib $-1 -1 $463 $-1 $368 -1031765888 #
face $464 -1 $-1 $358 $465 $3 $-1 $466 forward single #
loop $-1 -1 $-1 $-1 $467 $368 #
plane-surface $-1 -1 $-1 -125.71997261541256 74.878862459888865 -89.198135241992901 -6.2527312301647308e-16 -1 -6.713859765969917e-16 -7.1933980033865215 -1.6600044984092921e-16 6.9465837045899637 forward_v I I I I #
coedge $-1 -1 $-1 $419 $371 $386 $436 reversed $333 $-1 #
coedge $-1 -1 $-1 $371 $419 $380 $429 reversed $333 $-1 #
coedge $-1 -1 $-1 $468 $469 $371 $418 reversed $465 $-1 #
edge $470 -1 $-1 $471 0 $472 0.12 $371 $473 forward @7 unknown #
coedge $-1 -1 $-1 $416 $415 $373 $420 reversed $333 $-1 #
edge $474 -1 $-1 $431 0 $422 0.12 $373 $475 forward @7 unknown #
truecolor-adesk-attrib $-1 -1 $476 $-1 $374 -1031765888 #
vertex $-1 -1 $-1 $374 $477 #
straight-curve $-1 -1 $-1 -127.13892860659558 92.878100423883666 -88.940039337246816 -2.6376106811076875e-15 -10 -2.9702928494141302e-15 F -0.43953418757116902 F -0.419534187571169 #
truecolor-adesk-attrib $-1 -1 $478 $-1 $375 -1031765888 #
straight-curve $-1 -1 $-1 -126.27572084618922 97.273442299595359 -89.773629381797619 -7.1933980033865215 -1.6600044984092921e-16 6.9465837045899637 F 0 F 0.12 #
DXID-attrib $-1 -1 $-1 $376 $337 @18 ASM_EDGE_FROM_STEP @4 2055 #
point $-1 -1 $-1 -127.13892860659558 97.273442299595359 -88.940039337246816 #
coedge $-1 -1 $-1 $380 $479 $468 $480 forward $269 $-1 #
edge $481 -1 $-1 $471 -0.27075476644292329 $431 -0.25075786644292319 $416 $482 forward @7 unknown #
truecolor-adesk-attrib $-1 -1 $483 $-1 $382 -1031765888 #
vertex $-1 -1 $-1 $382 $484 #
straight-curve $-1 -1 $-1 -126.27572084618922 92.878100423883666 -89.773629381797619 2.6376106811076875e-15 10 2.9702928494141302e-15 F 0.419534187571169 F 0.43953418757116902 #
DXID-attrib $-1 -1 $-1 $383 $344 @18 ASM_EDGE_FROM_STEP @4 2056 #
point $-1 -1 $-1 -126.27572084618922 97.273442299595359 -89.773629381797619 #
coedge $-1 -1 $-1 $485 $386 $469 $486 reversed $280 $-1 #
edge $487 -1 $-1 $422 0.25075786644292319 $472 0.27075476644292329 $415 $488 forward @7 unknown #
coedge $-1 -1 $-1 $489 $388 $490 $491 forward $269 $-1 #
coedge $-1 -1 $-1 $455 $454 $388 $439 reversed $456 $-1 #
edge $492 -1 $-1 $441 -3.1415926535897931 $493 0 $438 $494 forward @7 unknown #
truecolor-adesk-attrib $-1 -1 $495 $-1 $390 -1031765888 #
vertex $-1 -1 $-1 $460 $496 #
straight-curve $-1 -1 $-1 -122.59400994834706 98.573442299595357 -85.961106140468956 -1.396498840148645e-14 -10 -1.4700135854622289e-14 F -7.8377592731797797e-17 F 0.09999999999999995 #
DXID-attrib $-1 -1 $-1 $391 $353 @18 ASM_EDGE_FROM_STEP @4 2078 #
point $-1 -1 $-1 -122.59400994834706 98.573442299595357 -85.961106140468956 #
truecolor-adesk-attrib $-1 -1 $497 $-1 $396 -1031765888 #
straight-curve $-1 -1 $-1 -122.59400994834706 98.573442299595357 -85.961106140468956 -7.1933980033865215 -1.6600044984092921e-16 6.9465837045899637 F 0 F 0.12 #
DXID-attrib $-1 -1 $-1 $397 $358 @18 ASM_FACE_FROM_STEP @20 Assembled Shell-3641 #
truecolor-adesk-attrib $-1 -1 $498 $-1 $398 -1031765888 #
face $499 -1 $-1 $500 $456 $3 $-1 $501 reversed single #
plane-surface $-1 -1 $-1 -122.59400994834706 98.073442299595357 -85.961106140468956 0.69465837045899637 -2.0275288877070419e-15 0.71933980033865219 -1.396498840148645e-14 -10 -1.4700135854622289e-14 forward_v I I I I #
coedge $-1 -1 $-1 $400 $502 $503 $504 reversed $280 $-1 #
coedge $-1 -1 $-1 $505 $506 $400 $453 forward $507 $-1 #
edge $508 -1 $-1 $458 0 $509 0.099999999999999992 $400 $510 forward @7 unknown #
coedge $-1 -1 $-1 $438 $401 $506 $511 reversed $456 $-1 #
coedge $-1 -1 $-1 $401 $438 $403 $460 forward $456 $-1 #
loop $-1 -1 $-1 $-1 $401 $449 #
truecolor-adesk-attrib $-1 -1 $512 $-1 $402 -1031765888 #
vertex $-1 -1 $-1 $453 $513 #
ellipse-curve $-1 -1 $-1 -121.37324259737645 97.573442299595342 -82.969496694902205 -0.71933980033865219 -1.6600044984092921e-17 0.69465837045899637 2.0839751113769891 -2.7519175892456454e-15 2.1580194010159564 1 F -3.1415926535897931 F 0 #
edge $514 -1 $-1 $441 0 $406 0.12 $403 $515 forward @7 unknown #
DXID-attrib $-1 -1 $-1 $405 $363 @18 ASM_EDGE_FROM_STEP @4 2071 #
point $-1 -1 $-1 -123.45721770875343 97.573442299595357 -85.127516095918153 #
DXID-attrib $-1 -1 $-1 $411 $368 @18 ASM_FACE_FROM_STEP @20 Assembled Shell-3639 #
truecolor-adesk-attrib $-1 -1 $516 $-1 $412 -1031765888 #
loop $-1 -1 $-1 $-1 $469 $412 #
plane-surface $-1 -1 $-1 -126.41463098587153 85.97615237974216 -89.917475042331546 -0.69465837045899637 7.9537660638640582e-16 -0.71933980033865219 5.4057394424911701e-15 10 5.8367740943022766e-15 forward_v I I I I #
coedge $-1 -1 $-1 $517 $518 $485 $519 forward $413 $-1 #
coedge $-1 -1 $-1 $520 $417 $428 $480 reversed $465 $-1 #
coedge $-1 -1 $-1 $417 $520 $435 $486 forward $465 $-1 #
truecolor-adesk-attrib $-1 -1 $521 $-1 $418 -1031765888 #
vertex $-1 -1 $-1 $418 $522 #
vertex $-1 -1 $-1 $418 $523 #
straight-curve $-1 -1 $-1 -126.41463098587153 97.073442299595357 -89.917475042331532 -7.1933980033865215 -1.6600044984092921e-16 6.9465837045899637 F 0 F 0.12 #
truecolor-adesk-attrib $-1 -1 $524 $-1 $420 -1031765888 #
straight-curve $-1 -1 $-1 -126.27572084618922 97.073442299595357 -89.773629381797619 -7.1933980033865215 -1.6600044984092921e-16 6.9465837045899637 F 0 F 0.12 #
DXID-attrib $-1 -1 $-1 $421 $374 @18 ASM_EDGE_FROM_STEP @4 2058 #
point $-1 -1 $-1 -127.13892860659558 97.073442299595357 -88.940039337246816 #
DXID-attrib $-1 -1 $-1 $424 $375 @18 ASM_EDGE_FROM_STEP @4 2057 #
coedge $-1 -1 $-1 $428 $525 $526 $527 forward $269 $-1 #
edge $528 -1 $-1 $529 0 $471 2.2194579839706501 $468 $530 forward @7 unknown #
truecolor-adesk-attrib $-1 -1 $531 $-1 $429 -1031765888 #
straight-curve $-1 -1 $-1 -124.53381033735906 97.073442299595357 -87.969828245993625 6.9465837045899637 -9.1730586308188189e-15 7.1933980033865215 F -0.27075476644292329 F -0.25075786644292319 #
DXID-attrib $-1 -1 $-1 $430 $382 @18 ASM_EDGE_FROM_STEP @4 2059 #
point $-1 -1 $-1 -126.27572084618922 97.073442299595357 -89.773629381797619 #
coedge $-1 -1 $-1 $532 $435 $467 $519 reversed $280 $-1 #
edge $533 -1 $-1 $534 0 $472 2.2194579839706501 $435 $535 forward @7 unknown #
truecolor-adesk-attrib $-1 -1 $536 $-1 $436 -1031765888 #
straight-curve $-1 -1 $-1 -125.39701809776543 97.073442299595357 -87.136238201442836 -6.9465837045899637 9.1730586308188189e-15 -7.1933980033865215 F 0.25075786644292319 F 0.27075476644292329 #
coedge $-1 -1 $-1 $537 $437 $538 $539 forward $269 $-1 #
coedge $-1 -1 $-1 $506 $505 $437 $491 reversed $507 $-1 #
edge $540 -1 $-1 $493 0 $541 0.099999999999999992 $490 $542 forward @7 unknown #
truecolor-adesk-attrib $-1 -1 $543 $-1 $439 -1031765888 #
vertex $-1 -1 $-1 $511 $544 #
ellipse-curve $-1 -1 $-1 -120.51003483697008 97.573442299595342 -83.803086739452993 -0.71933980033865219 -1.6600044984092921e-17 0.69465837045899637 2.0839751113769891 -2.7519175892456454e-15 2.1580194010159564 1 F -3.1415926535897931 F 0 #
DXID-attrib $-1 -1 $-1 $440 $390 @18 ASM_EDGE_FROM_STEP @4 2080 #
point $-1 -1 $-1 -122.59400994834706 97.573442299595357 -85.961106140468956 #
DXID-attrib $-1 -1 $-1 $445 $396 @18 ASM_EDGE_FROM_STEP @4 2077 #
DXID-attrib $-1 -1 $-1 $448 $398 @18 ASM_FACE_FROM_STEP @20 Assembled Shell-3642 #
truecolor-adesk-attrib $-1 -1 $545 $-1 $449 -1031765888 #
face $546 -1 $-1 $547 $507 $3 $-1 $548 forward single #
cone-surface $-1 -1 $-1 -120.51003483697008 97.573442299595342 -83.803086739452993 -0.71933980033865219 -1.6600044984092921e-17 0.69465837045899637 2.0839751113769891 -2.7519175892456454e-15 2.1580194010159564 1 I I 0 1 3 forward I I I I #
coedge $-1 -1 $-1 $451 $532 $549 $550 reversed $280 $-1 #
coedge $-1 -1 $-1 $551 $552 $451 $504 forward $553 $-1 #
edge $554 -1 $-1 $509 -1.6995388418085902e-33 $555 0.050000000000000044 $451 $556 forward @7 unknown #
coedge $-1 -1 $-1 $490 $452 $552 $557 reversed $507 $-1 #
coedge $-1 -1 $-1 $452 $490 $454 $511 forward $507 $-1 #
loop $-1 -1 $-1 $-1 $452 $500 #
truecolor-adesk-attrib $-1 -1 $558 $-1 $453 -1031765888 #
vertex $-1 -1 $-1 $504 $559 #
straight-curve $-1 -1 $-1 -119.28926748599946 97.573442299595342 -80.811477293886242 2.16772455728081e-14 10 2.2686411943274585e-14 F 0 F 0.099999999999999992 #
edge $560 -1 $-1 $493 0 $458 0.12 $454 $561 forward @7 unknown #
DXID-attrib $-1 -1 $-1 $457 $402 @18 ASM_EDGE_FROM_STEP @4 2070 #
point $-1 -1 $-1 -119.28926748599946 97.573442299595342 -80.811477293886242 #
truecolor-adesk-attrib $-1 -1 $562 $-1 $460 -1031765888 #
straight-curve $-1 -1 $-1 -122.59400994834706 97.573442299595357 -85.961106140468956 -7.1933980033865215 -1.6600044984092921e-16 6.9465837045899637 F 0 F 0.12 #
DXID-attrib $-1 -1 $-1 $464 $412 @18 ASM_FACE_FROM_STEP @20 Assembled Shell-3640 #
coedge $-1 -1 $-1 $526 $467 $520 $563 reversed $413 $-1 #
coedge $-1 -1 $-1 $467 $526 $564 $565 forward $413 $-1 #
edge $566 -1 $-1 $567 0 $534 0.19999999999999901 $485 $568 forward @7 unknown #
coedge $-1 -1 $-1 $469 $468 $517 $563 forward $465 $-1 #
DXID-attrib $-1 -1 $-1 $470 $418 @18 ASM_EDGE_FROM_STEP @4 2061 #
point $-1 -1 $-1 -126.41463098587153 97.073442299595357 -89.917475042331532 #
point $-1 -1 $-1 -127.27783874627792 97.073442299595357 -89.083884997780743 #
DXID-attrib $-1 -1 $-1 $474 $420 @18 ASM_EDGE_FROM_STEP @4 2060 #
coedge $-1 -1 $-1 $479 $537 $569 $570 reversed $269 $-1 #
coedge $-1 -1 $-1 $518 $517 $479 $527 reversed $413 $-1 #
edge $571 -1 $-1 $572 0 $529 0.19999999999999901 $526 $573 forward @7 unknown #
truecolor-adesk-attrib $-1 -1 $574 $-1 $480 -1031765888 #
vertex $-1 -1 $-1 $563 $575 #
straight-curve $-1 -1 $-1 -126.41463098587155 74.878862459888865 -89.917475042331546 5.4057394424911701e-15 10 5.8367740943022766e-15 F 0 F 2.2194579839706501 #
DXID-attrib $-1 -1 $-1 $481 $429 @18 ASM_EDGE_FROM_STEP @4 2063 #
coedge $-1 -1 $-1 $502 $485 $576 $577 reversed $280 $-1 #
truecolor-adesk-attrib $-1 -1 $578 $-1 $486 -1031765888 #
vertex $-1 -1 $-1 $486 $579 #
straight-curve $-1 -1 $-1 -127.27783874627792 74.878862459888865 -89.083884997780757 5.4057394424911701e-15 10 5.8367740943022766e-15 F 0 F 2.2194579839706501 #
DXID-attrib $-1 -1 $-1 $487 $436 @18 ASM_EDGE_FROM_STEP @4 2062 #
coedge $-1 -1 $-1 $525 $489 $580 $581 forward $269 $-1 #
coedge $-1 -1 $-1 $552 $551 $489 $539 reversed $553 $-1 #
edge $582 -1 $-1 $541 -1.6995388418085902e-33 $583 0.050000000000000044 $538 $584 forward @7 unknown #
truecolor-adesk-attrib $-1 -1 $585 $-1 $491 -1031765888 #
vertex $-1 -1 $-1 $557 $586 #
straight-curve $-1 -1 $-1 -118.42605972559306 97.573442299595342 -81.64506733843703 2.16772455728081e-14 10 2.2686411943274585e-14 F 0 F 0.099999999999999992 #
DXID-attrib $-1 -1 $-1 $492 $439 @18 ASM_EDGE_FROM_STEP @4 2082 #
point $-1 -1 $-1 -118.42605972559306 97.573442299595342 -81.64506733843703 #
DXID-attrib $-1 -1 $-1 $499 $449 @18 ASM_FACE_FROM_STEP @20 Assembled Shell-3643 #
truecolor-adesk-attrib $-1 -1 $587 $-1 $500 -1031765888 #
face $588 -1 $-1 $589 $553 $3 $-1 $590 forward single #
plane-surface $-1 -1 $-1 -118.42605972559306 98.073442299595342 -81.64506733843703 -0.69465837045899637 3.1377519123321917e-15 -0.71933980033865219 2.16772455728081e-14 10 2.2686411943274585e-14 forward_v I I I I #
coedge $-1 -1 $-1 $591 $592 $502 $550 forward $593 $-1 #
edge $594 -1 $-1 $555 0 $595 1.36945798397065 $502 $596 forward @7 unknown #
coedge $-1 -1 $-1 $538 $503 $592 $597 reversed $553 $-1 #
coedge $-1 -1 $-1 $503 $538 $505 $557 forward $553 $-1 #
loop $-1 -1 $-1 $-1 $503 $547 #
truecolor-adesk-attrib $-1 -1 $598 $-1 $504 -1031765888 #
vertex $-1 -1 $-1 $550 $599 #
straight-curve $-1 -1 $-1 -119.28926748599946 98.573442299595342 -80.811477293886242 6.9465837045899637 -7.9484118316715085e-15 7.1933980033865215 F -1.6995388418085902e-33 F 0.050000000000000044 #
edge $600 -1 $-1 $541 0 $509 0.12 $505 $601 forward @7 unknown #
DXID-attrib $-1 -1 $-1 $508 $453 @18 ASM_EDGE_FROM_STEP @4 2069 #
point $-1 -1 $-1 -119.28926748599946 98.573442299595342 -80.811477293886242 #
truecolor-adesk-attrib $-1 -1 $602 $-1 $511 -1031765888 #
straight-curve $-1 -1 $-1 -118.42605972559306 97.573442299595342 -81.64506733843703 -7.1933980033865215 -1.6600044984092921e-16 6.9465837045899637 F 0 F 0.12 #
DXID-attrib $-1 -1 $-1 $514 $460 @18 ASM_EDGE_FROM_STEP @4 2079 #
edge $603 -1 $-1 $529 0 $534 0.12 $517 $604 forward @7 unknown #
coedge $-1 -1 $-1 $569 $576 $518 $565 reversed $605 $-1 #
edge $606 -1 $-1 $572 0 $567 0.12 $518 $607 forward @7 unknown #
truecolor-adesk-attrib $-1 -1 $608 $-1 $519 -1031765888 #
vertex $-1 -1 $-1 $519 $609 #
straight-curve $-1 -1 $-1 -125.88852200535993 74.878862459888865 -87.645205397103453 -6.9465837045899637 9.1730586308188189e-15 -7.1933980033865215 F 0 F 0.19999999999999901 #
coedge $-1 -1 $-1 $610 $564 $525 $570 forward $605 $-1 #
edge $611 -1 $-1 $572 -1.5707963267948966 $612 0 $569 $613 forward @7 unknown #
truecolor-adesk-attrib $-1 -1 $614 $-1 $527 -1031765888 #
vertex $-1 -1 $-1 $527 $615 #
straight-curve $-1 -1 $-1 -125.02531424495356 74.878862459888865 -88.478795441654256 -6.9465837045899637 9.1730586308188189e-15 -7.1933980033865215 F 0 F 0.19999999999999901 #
DXID-attrib $-1 -1 $-1 $528 $480 @18 ASM_EDGE_FROM_STEP @4 2076 #
point $-1 -1 $-1 -126.41463098587155 74.878862459888865 -89.917475042331546 #
coedge $-1 -1 $-1 $564 $610 $532 $577 forward $605 $-1 #
edge $616 -1 $-1 $595 0 $567 1.5707963267948966 $532 $617 forward @7 unknown #
DXID-attrib $-1 -1 $-1 $533 $486 @18 ASM_EDGE_FROM_STEP @4 2064 #
point $-1 -1 $-1 -127.27783874627792 74.878862459888865 -89.083884997780757 #
coedge $-1 -1 $-1 $592 $591 $537 $581 reversed $593 $-1 #
edge $618 -1 $-1 $583 0 $612 1.36945798397065 $580 $619 forward @7 unknown #
truecolor-adesk-attrib $-1 -1 $620 $-1 $539 -1031765888 #
vertex $-1 -1 $-1 $597 $621 #
straight-curve $-1 -1 $-1 -118.42605972559306 98.573442299595342 -81.64506733843703 6.9465837045899637 -7.9484118316715085e-15 7.1933980033865215 F -1.6995388418085902e-33 F 0.050000000000000044 #
DXID-attrib $-1 -1 $-1 $540 $491 @18 ASM_EDGE_FROM_STEP @4 2084 #
point $-1 -1 $-1 -118.42605972559306 98.573442299595342 -81.64506733843703 #
DXID-attrib $-1 -1 $-1 $546 $500 @18 ASM_FACE_FROM_STEP @20 Assembled Shell-3644 #
truecolor-adesk-attrib $-1 -1 $622 $-1 $547 -1031765888 #
face $623 -1 $-1 $624 $593 $3 $-1 $625 forward single #
plane-surface $-1 -1 $-1 -118.25239513297831 98.573442299595342 -81.465232388352362 5.4020200802812346e-16 1 5.8329225819859219e-16 7.1933980033865215 1.6600044984092921e-16 -6.9465837045899637 forward_v I I I I #
coedge $-1 -1 $-1 $580 $549 $610 $626 reversed $593 $-1 #
coedge $-1 -1 $-1 $549 $580 $551 $597 forward $593 $-1 #
loop $-1 -1 $-1 $-1 $549 $589 #
truecolor-adesk-attrib $-1 -1 $627 $-1 $550 -1031765888 #
vertex $-1 -1 $-1 $577 $628 #
straight-curve $-1 -1 $-1 -118.94193830076995 98.573442299595342 -80.451807393716905 -7.3790537988879435e-15 -10 -7.8802009289892692e-15 F 0 F 1.36945798397065 #
edge $629 -1 $-1 $583 0 $555 0.12 $551 $630 forward @7 unknown #
DXID-attrib $-1 -1 $-1 $554 $504 @18 ASM_EDGE_FROM_STEP @4 2068 #
point $-1 -1 $-1 -118.94193830076995 98.573442299595342 -80.451807393716905 #
truecolor-adesk-attrib $-1 -1 $631 $-1 $557 -1031765888 #
straight-curve $-1 -1 $-1 -118.42605972559306 98.573442299595342 -81.64506733843703 -7.1933980033865215 -1.6600044984092921e-16 6.9465837045899637 F 0 F 0.12 #
DXID-attrib $-1 -1 $-1 $560 $511 @18 ASM_EDGE_FROM_STEP @4 2081 #
truecolor-adesk-attrib $-1 -1 $632 $-1 $563 -1031765888 #
straight-curve $-1 -1 $-1 -126.41463098587155 74.878862459888865 -89.917475042331546 -7.1933980033865215 -1.6600044984092921e-16 6.9465837045899637 F 0 F 0.12 #
loop $-1 -1 $-1 $-1 $576 $624 #
truecolor-adesk-attrib $-1 -1 $633 $-1 $565 -1031765888 #
straight-curve $-1 -1 $-1 -125.02531424495356 74.878862459888865 -88.478795441654256 -7.1933980033865215 -1.6600044984092921e-16 6.9465837045899637 F 0 F 0.12 #
DXID-attrib $-1 -1 $-1 $566 $519 @18 ASM_EDGE_FROM_STEP @4 2065 #
point $-1 -1 $-1 -125.88852200535993 74.878862459888865 -87.645205397103453 #
coedge $-1 -1 $-1 $576 $569 $591 $626 forward $605 $-1 #
truecolor-adesk-attrib $-1 -1 $634 $-1 $570 -1031765888 #
vertex $-1 -1 $-1 $626 $635 #
ellipse-curve $-1 -1 $-1 -125.02531424495353 84.87886245988885 -88.478795441654242 -0.71933980033865219 -1.6600044984092921e-17 0.69465837045899637 6.9465837045899637 -9.1730586308188189e-15 7.1933980033865215 1 F -1.5707963267948966 F 0 #
DXID-attrib $-1 -1 $-1 $571 $527 @18 ASM_EDGE_FROM_STEP @4 2074 #
point $-1 -1 $-1 -125.02531424495356 74.878862459888865 -88.478795441654256 #
truecolor-adesk-attrib $-1 -1 $636 $-1 $577 -1031765888 #
ellipse-curve $-1 -1 $-1 -125.88852200535993 84.87886245988885 -87.645205397103453 0.71933980033865219 1.6600044984092921e-17 -0.69465837045899637 6.9465837045899637 -9.1730586308188189e-15 7.1933980033865215 1 F 0 F 1.5707963267948966 #
truecolor-adesk-attrib $-1 -1 $637 $-1 $581 -1031765888 #
straight-curve $-1 -1 $-1 -118.07873054036358 98.573442299595342 -81.285397438267708 -7.3790537988879435e-15 -10 -7.8802009289892692e-15 F 0 F 1.36945798397065 #
DXID-attrib $-1 -1 $-1 $582 $539 @18 ASM_EDGE_FROM_STEP @4 2086 #
point $-1 -1 $-1 -118.07873054036358 98.573442299595342 -81.285397438267708 #
DXID-attrib $-1 -1 $-1 $588 $547 @18 ASM_FACE_FROM_STEP @20 Assembled Shell-3645 #
truecolor-adesk-attrib $-1 -1 $638 $-1 $589 -1031765888 #
face $639 -1 $-1 $315 $605 $3 $-1 $640 forward single #
plane-surface $-1 -1 $-1 -118.07873054036358 91.726152379742089 -81.285397438267708 0.69465837045899637 -1.0794463650352369e-15 0.71933980033865219 -7.3790537988879435e-15 -10 -7.8802009289892692e-15 forward_v I I I I #
edge $641 -1 $-1 $612 0 $595 0.12 $591 $642 forward @7 unknown #
DXID-attrib $-1 -1 $-1 $594 $550 @18 ASM_EDGE_FROM_STEP @4 2067 #
point $-1 -1 $-1 -118.94193830076995 84.878862459888836 -80.451807393716919 #
truecolor-adesk-attrib $-1 -1 $643 $-1 $597 -1031765888 #
straight-curve $-1 -1 $-1 -118.07873054036358 98.573442299595342 -81.285397438267708 -7.1933980033865215 -1.6600044984092921e-16 6.9465837045899637 F 0 F 0.12 #
DXID-attrib $-1 -1 $-1 $600 $557 @18 ASM_EDGE_FROM_STEP @4 2083 #
DXID-attrib $-1 -1 $-1 $603 $563 @18 ASM_EDGE_FROM_STEP @4 2073 #
DXID-attrib $-1 -1 $-1 $606 $565 @18 ASM_EDGE_FROM_STEP @4 2075 #
DXID-attrib $-1 -1 $-1 $611 $570 @18 ASM_EDGE_FROM_STEP @4 2089 #
point $-1 -1 $-1 -118.07873054036358 84.878862459888836 -81.285397438267722 #
DXID-attrib $-1 -1 $-1 $616 $577 @18 ASM_EDGE_FROM_STEP @4 2066 #
DXID-attrib $-1 -1 $-1 $618 $581 @18 ASM_EDGE_FROM_STEP @4 2088 #
DXID-attrib $-1 -1 $-1 $623 $589 @18 ASM_FACE_FROM_STEP @20 Assembled Shell-3646 #
truecolor-adesk-attrib $-1 -1 $644 $-1 $624 -1031765888 #
cone-surface $-1 -1 $-1 -125.02531424495353 84.87886245988885 -88.478795441654242 -0.71933980033865219 -1.6600044984092921e-17 0.69465837045899637 6.9465837045899637 -9.1730586308188189e-15 7.1933980033865215 1 I I 0 1 10 forward I I I I #
truecolor-adesk-attrib $-1 -1 $645 $-1 $626 -1031765888 #
straight-curve $-1 -1 $-1 -118.07873054036358 84.878862459888836 -81.285397438267722 -7.1933980033865215 -1.6600044984092921e-16 6.9465837045899637 F 0 F 0.12 #
DXID-attrib $-1 -1 $-1 $629 $597 @18 ASM_EDGE_FROM_STEP @4 2085 #
DXID-attrib $-1 -1 $-1 $639 $624 @18 ASM_FACE_FROM_STEP @20 Assembled Shell-3647 #
DXID-attrib $-1 -1 $-1 $641 $626 @18 ASM_EDGE_FROM_STEP @4 2087 #
