700 128 1 0         
5 ZWCAD 12 ACIS 28.0 NT 24 Mon May 13 15:04:13 2024 
1 9.9999999999999995e-07 1e-10 
body $1 -1 $-1 $2 $-1 $-1 #
DXID-attrib $-1 -1 $-1 $-1 $0 @18 ASM_BODY_FROM_STEP @83 C0B528B69FD8B81B3E45D478DB567E1EC6212158|:|CBE1C5916EAB30E44C5B921B6ADFD7864AF74C0D #
lump $-1 -1 $-1 $-1 $3 $0 #
shell $-1 -1 $-1 $-1 $-1 $4 $-1 $2 #
face $5 -1 $-1 $6 $7 $3 $-1 $8 forward single #
truecolor-adesk-attrib $-1 -1 $9 $-1 $4 -1056964608 #
face $10 -1 $-1 $11 $12 $3 $-1 $13 forward single #
loop $-1 -1 $-1 $-1 $14 $4 #
cone-surface $-1 -1 $-1 8.3241092058155974 37.387893246961582 9.6962032064543493 -4.8256552769637796e-17 6.1228757287537535e-17 -1 -0.92849487373466855 1.1780905183594519 1.169389802820954e-16 1 I I 0 1 1.5000000000000002 forward I I I I #
DXID-attrib $-1 -1 $-1 $5 $4 @18 ASM_FACE_FROM_STEP @12 Assem3-25871 #
truecolor-adesk-attrib $-1 -1 $15 $-1 $6 -1056964608 #
face $16 -1 $-1 $17 $18 $3 $-1 $19 forward single #
loop $-1 -1 $-1 $-1 $20 $6 #
cone-surface $-1 -1 $-1 8.3241092058155974 37.387893246961582 5.6962032064543493 -4.8256552769637796e-17 6.1228757287537535e-17 -1 -1.1141938484816025 1.4137086220313424 1.4032677633851448e-16 1 I I 0 1 1.8000000000000003 forward I I I I #
coedge $-1 -1 $-1 $21 $22 $23 $24 forward $7 $-1 #
DXID-attrib $-1 -1 $-1 $10 $6 @18 ASM_FACE_FROM_STEP @12 Assem3-47451 #
truecolor-adesk-attrib $-1 -1 $25 $-1 $11 -1056964608 #
face $26 -1 $-1 $27 $28 $3 $-1 $29 forward single #
loop $-1 -1 $-1 $30 $31 $11 #
plane-surface $-1 -1 $-1 8.3241092058155974 37.387893246961582 5.6962032064543493 4.8256552769637796e-17 -6.1228757287537535e-17 1 0.61899658248977907 -0.78539367890630118 -7.795932018806359e-17 forward_v I I I I #
coedge $-1 -1 $-1 $32 $33 $34 $35 reversed $12 $-1 #
coedge $-1 -1 $-1 $36 $14 $37 $38 forward $7 $-1 #
coedge $-1 -1 $-1 $14 $36 $39 $40 reversed $7 $-1 #
coedge $-1 -1 $-1 $41 $41 $14 $24 reversed $42 $-1 #
edge $43 -1 $-1 $44 0 $45 3.1415926535897931 $14 $46 forward @7 unknown #
DXID-attrib $-1 -1 $-1 $16 $11 @18 ASM_FACE_FROM_STEP @12 Assem3-25433 #
truecolor-adesk-attrib $-1 -1 $47 $-1 $17 -1056964608 #
face $48 -1 $-1 $49 $50 $3 $-1 $51 reversed single #
loop $-1 -1 $-1 $-1 $52 $17 #
cone-surface $-1 -1 $-1 8.3241092058155974 37.387893246961582 5.6962032064543493 -4.8256552769637796e-17 6.1228757287537535e-17 -1 -1.1141938484816025 1.4137086220313424 1.4032677633851448e-16 1 I I 0 1 1.8000000000000003 forward I I I I #
loop $-1 -1 $-1 $-1 $53 $11 #
coedge $-1 -1 $-1 $34 $34 $54 $55 forward $18 $-1 #
coedge $-1 -1 $-1 $56 $20 $52 $57 forward $12 $-1 #
coedge $-1 -1 $-1 $20 $56 $58 $59 reversed $12 $-1 #
coedge $-1 -1 $-1 $31 $31 $20 $35 forward $18 $-1 #
edge $60 -1 $-1 $61 1.2246467991473532e-16 $62 3.1415926535897931 $20 $63 forward @7 unknown #
coedge $-1 -1 $-1 $22 $21 $64 $65 forward $7 $-1 #
coedge $-1 -1 $-1 $66 $67 $21 $38 reversed $68 $-1 #
edge $69 -1 $-1 $45 0.0015000000000000007 $70 0.004000000000000001 $21 $71 forward @7 unknown #
coedge $-1 -1 $-1 $67 $66 $22 $40 forward $68 $-1 #
edge $72 -1 $-1 $44 0.0015000000000000007 $73 0.004000000000000001 $22 $74 forward @7 unknown #
coedge $-1 -1 $-1 $23 $23 $66 $75 reversed $42 $-1 #
loop $-1 -1 $-1 $-1 $23 $76 #
truecolor-adesk-attrib $-1 -1 $77 $-1 $24 -1056964608 #
vertex $-1 -1 $-1 $24 $78 #
vertex $-1 -1 $-1 $24 $79 #
ellipse-curve $-1 -1 $-1 8.3241092058155974 37.387893246961582 8.1962032064543493 -4.8256552769637796e-17 6.1228757287537535e-17 -1 -0.92849487373466855 1.1780905183594519 1.169389802820954e-16 1 F 0 F 3.1415926535897931 #
DXID-attrib $-1 -1 $-1 $26 $17 @18 ASM_FACE_FROM_STEP @12 Assem3-43584 #
truecolor-adesk-attrib $-1 -1 $80 $-1 $27 -1056964608 #
face $81 -1 $-1 $76 $68 $3 $-1 $82 forward single #
loop $-1 -1 $-1 $-1 $83 $27 #
plane-surface $-1 -1 $-1 8.3241092058155974 37.387893246961582 5.1962032064543493 4.8256552769637796e-17 -6.1228757287537535e-17 1 0.61899658248977907 -0.78539367890630118 -7.795932018806359e-17 forward_v I I I I #
coedge $-1 -1 $-1 $54 $84 $32 $57 reversed $28 $-1 #
coedge $-1 -1 $-1 $64 $64 $67 $85 reversed $30 $-1 #
coedge $-1 -1 $-1 $58 $52 $31 $55 reversed $28 $-1 #
edge $86 -1 $-1 $62 -3.1415926535897931 $61 1.2246467991473532e-16 $31 $87 forward @7 unknown #
coedge $-1 -1 $-1 $33 $32 $88 $89 forward $12 $-1 #
edge $90 -1 $-1 $61 0 $91 0.00050000000000000001 $32 $92 forward @7 unknown #
coedge $-1 -1 $-1 $84 $54 $33 $59 forward $28 $-1 #
edge $93 -1 $-1 $62 0 $94 0.00050000000000000001 $33 $95 forward @7 unknown #
truecolor-adesk-attrib $-1 -1 $96 $-1 $35 -1056964608 #
vertex $-1 -1 $-1 $35 $97 #
vertex $-1 -1 $-1 $35 $98 #
ellipse-curve $-1 -1 $-1 8.3241092058155974 37.387893246961582 5.6962032064543493 4.8256552769637796e-17 -6.1228757287537535e-17 1 1.1141938484816025 -1.4137086220313424 -1.4032677633851448e-16 1 F 1.2246467991473532e-16 F 3.1415926535897931 #
coedge $-1 -1 $-1 $53 $53 $36 $65 reversed $30 $-1 #
edge $99 -1 $-1 $70 1.2246467991473535e-16 $73 3.1415926535897931 $36 $100 forward @7 unknown #
coedge $-1 -1 $-1 $39 $37 $41 $75 forward $68 $-1 #
coedge $-1 -1 $-1 $37 $39 $53 $85 forward $68 $-1 #
loop $-1 -1 $-1 $-1 $37 $49 #
truecolor-adesk-attrib $-1 -1 $101 $-1 $38 -1056964608 #
vertex $-1 -1 $-1 $38 $102 #
straight-curve $-1 -1 $-1 9.2526040795502666 36.209802728602128 9.6962032064543493 -4.8256552769637794e-14 6.1228757287537539e-14 -1000 F 0.0015000000000000007 F 0.004000000000000001 #
truecolor-adesk-attrib $-1 -1 $103 $-1 $40 -1056964608 #
vertex $-1 -1 $-1 $65 $104 #
straight-curve $-1 -1 $-1 7.3956143320809291 38.565983765321036 9.6962032064543493 -4.8256552769637794e-14 6.1228757287537539e-14 -1000 F 0.0015000000000000007 F 0.004000000000000001 #
edge $105 -1 $-1 $45 -3.1415926535897931 $44 0 $66 $106 forward @7 unknown #
face $107 -1 $-1 $-1 $42 $3 $-1 $108 forward single #
DXID-attrib $-1 -1 $-1 $43 $24 @18 ASM_EDGE_FROM_STEP @5 34433 #
point $-1 -1 $-1 7.3956143320809291 38.565983765321036 8.1962032064543493 #
point $-1 -1 $-1 9.2526040795502666 36.209802728602128 8.1962032064543493 #
DXID-attrib $-1 -1 $-1 $48 $27 @18 ASM_FACE_FROM_STEP @12 Assem3-12099 #
truecolor-adesk-attrib $-1 -1 $109 $-1 $49 -1056964608 #
cone-surface $-1 -1 $-1 8.3241092058155974 37.387893246961582 9.6962032064543493 -4.8256552769637796e-17 6.1228757287537535e-17 -1 -0.92849487373466855 1.1780905183594519 1.169389802820954e-16 1 I I 0 1 1.5000000000000002 forward I I I I #
coedge $-1 -1 $-1 $88 $88 $84 $110 reversed $50 $-1 #
coedge $-1 -1 $-1 $52 $58 $83 $110 forward $28 $-1 #
edge $111 -1 $-1 $73 -3.1415926535897931 $70 1.2246467991473535e-16 $53 $112 forward @7 unknown #
truecolor-adesk-attrib $-1 -1 $113 $-1 $55 -1056964608 #
ellipse-curve $-1 -1 $-1 8.3241092058155974 37.387893246961582 5.6962032064543493 4.8256552769637796e-17 -6.1228757287537535e-17 1 1.1141938484816025 -1.4137086220313424 -1.4032677633851448e-16 1 F -3.1415926535897931 F 1.2246467991473532e-16 #
coedge $-1 -1 $-1 $83 $83 $56 $89 reversed $50 $-1 #
edge $114 -1 $-1 $91 1.2246467991473532e-16 $94 3.1415926535897931 $56 $115 forward @7 unknown #
truecolor-adesk-attrib $-1 -1 $116 $-1 $57 -1056964608 #
vertex $-1 -1 $-1 $57 $117 #
straight-curve $-1 -1 $-1 9.4383030542972008 35.974184624930238 5.6962032064543493 -4.8256552769637794e-14 6.1228757287537539e-14 -1000 F 0 F 0.00050000000000000001 #
truecolor-adesk-attrib $-1 -1 $118 $-1 $59 -1056964608 #
vertex $-1 -1 $-1 $89 $119 #
straight-curve $-1 -1 $-1 7.2099153573339949 38.801601868992925 5.6962032064543493 -4.8256552769637794e-14 6.1228757287537539e-14 -1000 F 0 F 0.00050000000000000001 #
DXID-attrib $-1 -1 $-1 $60 $35 @18 ASM_EDGE_FROM_STEP @5 43869 #
point $-1 -1 $-1 9.4383030542972008 35.974184624930238 5.6962032064543493 #
point $-1 -1 $-1 7.2099153573339949 38.801601868992925 5.6962032064543493 #
truecolor-adesk-attrib $-1 -1 $120 $-1 $65 -1056964608 #
ellipse-curve $-1 -1 $-1 8.3241092058155974 37.387893246961582 5.6962032064543493 4.8256552769637796e-17 -6.1228757287537535e-17 1 0.92849487373466855 -1.1780905183594519 -1.169389802820954e-16 1 F 1.2246467991473535e-16 F 3.1415926535897931 #
DXID-attrib $-1 -1 $-1 $69 $38 @18 ASM_EDGE_FROM_STEP @5 10936 #
point $-1 -1 $-1 9.2526040795502666 36.209802728602128 5.6962032064543493 #
DXID-attrib $-1 -1 $-1 $72 $40 @18 ASM_EDGE_FROM_STEP @5 35239 #
point $-1 -1 $-1 7.3956143320809282 38.565983765321036 5.6962032064543493 #
truecolor-adesk-attrib $-1 -1 $121 $-1 $75 -1056964608 #
ellipse-curve $-1 -1 $-1 8.3241092058155974 37.387893246961582 8.1962032064543493 -4.8256552769637796e-17 6.1228757287537535e-17 -1 -0.92849487373466855 1.1780905183594519 1.169389802820954e-16 1 F -3.1415926535897931 F 0 #
truecolor-adesk-attrib $-1 -1 $122 $-1 $76 -1056964608 #
sphere-surface $-1 -1 $-1 8.3241092058155974 37.387893246961582 8.1962032064543493 1.5000000000000002 0.78539367890630118 0.61899658248977907 0 4.8256552769637796e-17 -6.1228757287537535e-17 1 forward_v I I I I #
DXID-attrib $-1 -1 $-1 $81 $49 @18 ASM_FACE_FROM_STEP @12 Assem3-33913 #
edge $123 -1 $-1 $94 -3.1415926535897931 $91 1.2246467991473532e-16 $84 $124 forward @7 unknown #
truecolor-adesk-attrib $-1 -1 $125 $-1 $85 -1056964608 #
ellipse-curve $-1 -1 $-1 8.3241092058155974 37.387893246961582 5.6962032064543493 4.8256552769637796e-17 -6.1228757287537535e-17 1 0.92849487373466855 -1.1780905183594519 -1.169389802820954e-16 1 F -3.1415926535897931 F 1.2246467991473535e-16 #
DXID-attrib $-1 -1 $-1 $86 $55 @18 ASM_EDGE_FROM_STEP @5 21058 #
truecolor-adesk-attrib $-1 -1 $126 $-1 $89 -1056964608 #
ellipse-curve $-1 -1 $-1 8.3241092058155974 37.387893246961582 5.1962032064543493 4.8256552769637796e-17 -6.1228757287537535e-17 1 1.1141938484816025 -1.4137086220313424 -1.4032677633851448e-16 1 F 1.2246467991473532e-16 F 3.1415926535897931 #
DXID-attrib $-1 -1 $-1 $90 $57 @18 ASM_EDGE_FROM_STEP @5 41980 #
point $-1 -1 $-1 9.4383030542972008 35.974184624930238 5.1962032064543493 #
DXID-attrib $-1 -1 $-1 $93 $59 @18 ASM_EDGE_FROM_STEP @5 40858 #
point $-1 -1 $-1 7.2099153573339949 38.801601868992925 5.1962032064543493 #
DXID-attrib $-1 -1 $-1 $99 $65 @18 ASM_EDGE_FROM_STEP @5 25125 #
DXID-attrib $-1 -1 $-1 $105 $75 @18 ASM_EDGE_FROM_STEP @5 18833 #
DXID-attrib $-1 -1 $-1 $107 $76 @18 ASM_FACE_FROM_STEP @11 Assem3-2686 #
truecolor-adesk-attrib $-1 -1 $127 $-1 $110 -1056964608 #
ellipse-curve $-1 -1 $-1 8.3241092058155974 37.387893246961582 5.1962032064543493 4.8256552769637796e-17 -6.1228757287537535e-17 1 1.1141938484816025 -1.4137086220313424 -1.4032677633851448e-16 1 F -3.1415926535897931 F 1.2246467991473532e-16 #
DXID-attrib $-1 -1 $-1 $111 $85 @18 ASM_EDGE_FROM_STEP @5 28712 #
DXID-attrib $-1 -1 $-1 $114 $89 @18 ASM_EDGE_FROM_STEP @5 49652 #
DXID-attrib $-1 -1 $-1 $123 $110 @18 ASM_EDGE_FROM_STEP @5 12934 #
