700 342 1 0         
5 ZWCAD 12 ACIS 28.0 NT 24 Sat May 11 15:28:13 2024 
1 9.9999999999999995e-07 1e-10 
body $1 -1 $-1 $2 $-1 $-1 #
DXID-attrib $-1 -1 $-1 $-1 $0 @18 ASM_BODY_FROM_STEP @62 ASSEMBLED SHELL-742|:|B8A4396250C5687B1D31E70758B30729E1AC4426 #
lump $-1 -1 $-1 $-1 $3 $0 #
shell $-1 -1 $-1 $-1 $-1 $4 $-1 $2 #
face $5 -1 $-1 $6 $7 $3 $-1 $8 forward single #
truecolor-adesk-attrib $-1 -1 $9 $-1 $4 -1025383967 #
face $10 -1 $-1 $11 $12 $3 $-1 $13 forward single #
loop $-1 -1 $-1 $14 $15 $4 #
cone-surface $-1 -1 $-1 -129.1069413888109 81.653505516350322 -123.00350765075302 -1.4057969658351026e-16 -1 -1.6652931214055644e-17 -3.5588589627341731 4.9926883117481361e-16 0.06212011426488942 1 I I 0.86602540378443982 0.499999999999998 3.55940107675851 forward I I I I #
DXID-attrib $-1 -1 $-1 $5 $4 @18 ASM_FACE_FROM_STEP @20 Assembled Shell-3693 #
truecolor-adesk-attrib $-1 -1 $16 $-1 $6 -1025383967 #
face $17 -1 $-1 $18 $19 $3 $-1 $20 forward single #
loop $-1 -1 $-1 $-1 $21 $6 #
plane-surface $-1 -1 $-1 -129.03713176306178 72.265151013196629 -119.00411687012745 0.017452406437280042 -1.9103848893576394e-17 0.99984769515639127 -9.9984769515639123 1.4026765189088779e-15 0.17452406437280044 forward_v I I I I #
loop $-1 -1 $-1 $-1 $22 $4 #
coedge $-1 -1 $-1 $23 $24 $25 $26 reversed $7 $-1 #
DXID-attrib $-1 -1 $-1 $10 $6 @18 ASM_FACE_FROM_STEP @20 Assembled Shell-3694 #
truecolor-adesk-attrib $-1 -1 $27 $-1 $11 -1025383967 #
face $28 -1 $-1 $29 $30 $3 $-1 $31 forward single #
loop $-1 -1 $-1 $-1 $32 $11 #
plane-surface $-1 -1 $-1 -132.53561059161936 72.265151013196629 -120.94335535111281 -0.85716730070211233 1.1192342541991268e-16 0.51503807491005404 1.4057969658351026e-15 10 1.6652931214055646e-16 forward_v I I I I #
coedge $-1 -1 $-1 $33 $34 $35 $36 forward $12 $-1 #
coedge $-1 -1 $-1 $22 $22 $37 $38 reversed $14 $-1 #
coedge $-1 -1 $-1 $39 $15 $40 $41 reversed $7 $-1 #
coedge $-1 -1 $-1 $15 $42 $43 $44 reversed $7 $-1 #
coedge $-1 -1 $-1 $45 $46 $15 $26 forward $47 $-1 #
edge $48 -1 $-1 $49 0 $50 0.46737445523117099 $15 $51 forward @7 unknown #
DXID-attrib $-1 -1 $-1 $17 $11 @18 ASM_FACE_FROM_STEP @20 Assembled Shell-3695 #
truecolor-adesk-attrib $-1 -1 $52 $-1 $18 -1025383967 #
face $53 -1 $-1 $54 $55 $3 $-1 $56 reversed single #
loop $-1 -1 $-1 $-1 $40 $18 #
plane-surface $-1 -1 $-1 -132.60542021736848 72.265151013196629 -124.94274613173837 -0.87461970713939463 1.3102727431348941e-16 -0.48480962024633917 1.4057969658351026e-15 10 1.6652931214055646e-16 forward_v I I I I #
coedge $-1 -1 $-1 $57 $58 $39 $59 forward $19 $-1 #
coedge $-1 -1 $-1 $60 $21 $58 $61 reversed $12 $-1 #
coedge $-1 -1 $-1 $21 $62 $63 $64 forward $12 $-1 #
coedge $-1 -1 $-1 $42 $39 $21 $36 reversed $7 $-1 #
edge $65 -1 $-1 $66 0 $67 0.46737445523116999 $35 $68 forward @7 unknown #
coedge $-1 -1 $-1 $37 $37 $22 $38 forward $69 $-1 #
edge $70 -1 $-1 $71 0 $71 6.2831853071795862 $22 $72 forward @7 unknown #
coedge $-1 -1 $-1 $35 $23 $32 $59 reversed $7 $-1 #
coedge $-1 -1 $-1 $73 $74 $23 $41 forward $30 $-1 #
edge $75 -1 $-1 $76 0 $49 0.46737445523117099 $23 $77 forward @7 unknown #
coedge $-1 -1 $-1 $24 $35 $78 $79 reversed $7 $-1 #
coedge $-1 -1 $-1 $80 $81 $24 $44 forward $82 $-1 #
edge $83 -1 $-1 $50 0 $84 0.46737445523116999 $24 $85 forward @7 unknown #
coedge $-1 -1 $-1 $86 $25 $81 $87 reversed $47 $-1 #
coedge $-1 -1 $-1 $25 $88 $73 $89 forward $47 $-1 #
loop $-1 -1 $-1 $-1 $25 $90 #
truecolor-adesk-attrib $-1 -1 $91 $-1 $26 -1025383967 #
vertex $-1 -1 $-1 $26 $92 #
vertex $-1 -1 $-1 $26 $93 #
intcurve-curve $-1 -1 $-1 forward { exactcur full nurbs 2 open 2 
	0 2 0.46737445523117099 2 
	-131.48580035834871 81.041860019504014 -126.9625938251603 1 
	-129.17675101456001 81.7085266861707 -127.00289843137858 1.1547005383792499 
	-126.86770167077132 81.041860019504014 -127.04320303759687 1 
	0 
	null_surface 
	null_surface 
	nullbs 
	nullbs 
	I I 
	0 
	0 
	0 
	F 1 F 0 } F 0 F 0.46737445523117099 #
DXID-attrib $-1 -1 $-1 $28 $18 @18 ASM_FACE_FROM_STEP @20 Assembled Shell-3696 #
truecolor-adesk-attrib $-1 -1 $94 $-1 $29 -1025383967 #
face $95 -1 $-1 $96 $97 $3 $-1 $98 reversed single #
loop $-1 -1 $-1 $99 $100 $29 #
cone-surface $-1 -1 $-1 -129.1069413888109 62.132259185807932 -123.00350765075302 1.4057969658351026e-16 1 1.6652931214055644e-17 1.9996953903127825 -2.8053530378177549e-16 -0.034904812874564407 1 I I 0 1 2 forward I I I I #
coedge $-1 -1 $-1 $101 $32 $74 $102 reversed $19 $-1 #
coedge $-1 -1 $-1 $32 $103 $33 $61 forward $19 $-1 #
edge $104 -1 $-1 $67 0 $76 0.46737445523116899 $39 $105 forward @7 unknown #
coedge $-1 -1 $-1 $62 $33 $106 $107 forward $12 $-1 #
edge $108 -1 $-1 $109 0 $67 0.87767090063073905 $33 $110 forward @7 unknown #
coedge $-1 -1 $-1 $34 $60 $111 $112 forward $12 $-1 #
coedge $-1 -1 $-1 $113 $78 $34 $64 reversed $114 $-1 #
edge $115 -1 $-1 $116 0 $66 0.87767090063073905 $34 $117 forward @7 unknown #
truecolor-adesk-attrib $-1 -1 $118 $-1 $36 -1025383967 #
vertex $-1 -1 $-1 $36 $119 #
vertex $-1 -1 $-1 $59 $120 #
intcurve-curve $-1 -1 $-1 forward { exactcur full nurbs 2 open 2 
	0 2 0.46737445523116999 2 
	-126.72808241927308 81.041860019504014 -119.04442147634573 1 
	-129.03713176306178 81.708526686170686 -119.00411687012745 1.1547005383792499 
	-131.34618110685045 81.041860019504014 -118.96381226390918 1 
	0 
	null_surface 
	null_surface 
	nullbs 
	nullbs 
	I I 
	0 
	0 
	0 
	F 1 F 0 } F 0 F 0.46737445523116999 #
loop $-1 -1 $-1 $121 $37 $122 #
truecolor-adesk-attrib $-1 -1 $123 $-1 $38 -1025383967 #
vertex $-1 -1 $-1 $38 $124 #
ellipse-curve $-1 -1 $-1 -129.1069413888109 82.265151013196629 -123.00350765075302 1.4057969658351026e-16 1 1.6652931214055644e-17 -2.4996192378909781 3.5066912972721939e-16 0.043631016093205507 1 I I #
coedge $-1 -1 $-1 $125 $40 $46 $89 reversed $30 $-1 #
coedge $-1 -1 $-1 $40 $126 $57 $102 forward $30 $-1 #
truecolor-adesk-attrib $-1 -1 $127 $-1 $41 -1025383967 #
vertex $-1 -1 $-1 $41 $128 #
intcurve-curve $-1 -1 $-1 forward { exactcur full nurbs 2 open 2 
	0 2 0.46737445523117099 2 
	-133.72504007638827 81.041860019504014 -122.92289843831644 1 
	-132.60542021736848 81.7085266861707 -124.94274613173837 1.1547005383792499 
	-131.48580035834868 81.041860019504014 -126.96259382516033 1 
	0 
	null_surface 
	null_surface 
	nullbs 
	nullbs 
	I I 
	0 
	0 
	0 
	F 1 F 0 } F 0 F 0.46737445523117099 #
coedge $-1 -1 $-1 $63 $129 $42 $79 forward $114 $-1 #
edge $130 -1 $-1 $84 0 $66 0.46737445523116999 $42 $131 forward @7 unknown #
coedge $-1 -1 $-1 $132 $43 $129 $133 reversed $82 $-1 #
coedge $-1 -1 $-1 $43 $134 $45 $87 forward $82 $-1 #
loop $-1 -1 $-1 $-1 $43 $135 #
truecolor-adesk-attrib $-1 -1 $136 $-1 $44 -1025383967 #
vertex $-1 -1 $-1 $79 $137 #
intcurve-curve $-1 -1 $-1 forward { exactcur full nurbs 2 open 2 
	0 2 0.46737445523116999 2 
	-126.86770167077135 81.041860019504014 -127.04320303759688 1 
	-125.67827218600243 81.7085266861707 -125.06365995039323 1.1547005383792499 
	-124.48884270123352 81.041860019504014 -123.08411686318958 1 
	0 
	null_surface 
	null_surface 
	nullbs 
	nullbs 
	I I 
	0 
	0 
	0 
	F 1 F 0 } F 0 F 0.46737445523116999 #
coedge $-1 -1 $-1 $88 $45 $138 $139 forward $47 $-1 #
edge $140 -1 $-1 $141 0 $50 0.87767090063073905 $45 $142 forward @7 unknown #
coedge $-1 -1 $-1 $46 $86 $143 $144 forward $47 $-1 #
edge $145 -1 $-1 $146 0 $49 0.87767090063073905 $73 $147 forward @7 unknown #
face $148 -1 $-1 $135 $47 $3 $-1 $149 forward single #
DXID-attrib $-1 -1 $-1 $48 $26 @18 ASM_EDGE_FROM_STEP @4 2143 #
point $-1 -1 $-1 -131.48580035834871 81.041860019504014 -126.9625938251603 #
point $-1 -1 $-1 -126.86770167077132 81.041860019504014 -127.04320303759687 #
DXID-attrib $-1 -1 $-1 $53 $29 @18 ASM_FACE_FROM_STEP @20 Assembled Shell-3697 #
truecolor-adesk-attrib $-1 -1 $150 $-1 $54 -1025383967 #
face $151 -1 $-1 $152 $153 $3 $-1 $154 forward single #
loop $-1 -1 $-1 $155 $156 $54 #
torus-surface $-1 -1 $-1 -129.1069413888109 70.9318176798633 -123.00350765075302 -1.9937725048934082e-16 -1 -3.3851625384618497e-15 4.0000000000000107 1.3333333333333499 0.017452406437282204 -3.3881265746207266e-15 0.99984769515639127 forward_v I I I I #
loop $-1 -1 $-1 $-1 $157 $29 #
coedge $-1 -1 $-1 $100 $100 $158 $159 reversed $55 $-1 #
coedge $-1 -1 $-1 $103 $57 $160 $161 forward $19 $-1 #
edge $162 -1 $-1 $163 0 $76 0.87767090063073905 $57 $164 forward @7 unknown #
coedge $-1 -1 $-1 $58 $101 $165 $166 forward $19 $-1 #
truecolor-adesk-attrib $-1 -1 $167 $-1 $59 -1025383967 #
intcurve-curve $-1 -1 $-1 forward { exactcur full nurbs 2 open 2 
	0 2 0.46737445523116899 2 
	-131.34618110685042 81.041860019504014 -118.96381226390916 1 
	-132.53561059161933 81.7085266861707 -120.94335535111281 1.1547005383792499 
	-133.72504007638824 81.041860019504014 -122.92289843831645 1 
	0 
	null_surface 
	null_surface 
	nullbs 
	nullbs 
	I I 
	0 
	0 
	0 
	F 1 F 0 } F 0 F 0.46737445523116899 #
coedge $-1 -1 $-1 $165 $168 $60 $107 reversed $169 $-1 #
edge $170 -1 $-1 $109 0 $171 0.23094010767584999 $60 $172 forward @7 unknown #
truecolor-adesk-attrib $-1 -1 $173 $-1 $61 -1025383967 #
vertex $-1 -1 $-1 $61 $174 #
straight-curve $-1 -1 $-1 -131.34618110685045 72.265151013196629 -118.96381226390918 1.4057969658351026e-15 10 1.6652931214055646e-16 F 0 F 0.87767090063073905 #
coedge $-1 -1 $-1 $175 $176 $62 $112 reversed $177 $-1 #
edge $178 -1 $-1 $171 0.23094010767584999 $116 0.46188021535169999 $62 $179 forward @7 unknown #
coedge $-1 -1 $-1 $180 $63 $176 $181 forward $114 $-1 #
loop $-1 -1 $-1 $-1 $78 $182 #
truecolor-adesk-attrib $-1 -1 $183 $-1 $64 -1025383967 #
vertex $-1 -1 $-1 $112 $184 #
straight-curve $-1 -1 $-1 -126.72808241927309 72.265151013196629 -119.04442147634573 1.4057969658351026e-15 10 1.6652931214055646e-16 F 0 F 0.87767090063073905 #
DXID-attrib $-1 -1 $-1 $65 $36 @18 ASM_EDGE_FROM_STEP @4 2146 #
point $-1 -1 $-1 -126.72808241927309 81.041860019504014 -119.04442147634573 #
point $-1 -1 $-1 -131.34618110685045 81.041860019504014 -118.96381226390918 #
loop $-1 -1 $-1 $-1 $158 $122 #
face $185 -1 $-1 $-1 $69 $3 $-1 $186 forward single #
DXID-attrib $-1 -1 $-1 $70 $38 @18 ASM_EDGE_FROM_STEP @4 2149 #
point $-1 -1 $-1 -131.60656062670188 82.265151013196629 -122.95987663465982 #
coedge $-1 -1 $-1 $126 $73 $187 $188 forward $30 $-1 #
coedge $-1 -1 $-1 $74 $125 $189 $190 forward $30 $-1 #
DXID-attrib $-1 -1 $-1 $75 $41 @18 ASM_EDGE_FROM_STEP @4 2144 #
point $-1 -1 $-1 -133.72504007638824 81.041860019504014 -122.92289843831645 #
coedge $-1 -1 $-1 $78 $180 $80 $133 forward $114 $-1 #
truecolor-adesk-attrib $-1 -1 $191 $-1 $79 -1025383967 #
intcurve-curve $-1 -1 $-1 forward { exactcur full nurbs 2 open 2 
	0 2 0.46737445523116999 2 
	-124.48884270123352 81.041860019504014 -123.08411686318959 1 
	-125.60846256025332 81.708526686170686 -121.06426916976767 1.1547005383792499 
	-126.72808241927309 81.041860019504014 -119.04442147634573 1 
	0 
	null_surface 
	null_surface 
	nullbs 
	nullbs 
	I I 
	0 
	0 
	0 
	F 1 F 0 } F 0 F 0.46737445523116999 #
coedge $-1 -1 $-1 $134 $80 $192 $193 forward $82 $-1 #
edge $194 -1 $-1 $195 0 $84 0.87767090063073905 $80 $196 forward @7 unknown #
coedge $-1 -1 $-1 $81 $132 $197 $198 forward $82 $-1 #
face $199 -1 $-1 $182 $82 $3 $-1 $200 forward single #
DXID-attrib $-1 -1 $-1 $83 $44 @18 ASM_EDGE_FROM_STEP @4 2148 #
point $-1 -1 $-1 -124.48884270123354 81.041860019504014 -123.08411686318958 #
coedge $-1 -1 $-1 $197 $201 $86 $139 reversed $202 $-1 #
edge $203 -1 $-1 $141 0 $204 0.23094010767585099 $138 $205 forward @7 unknown #
truecolor-adesk-attrib $-1 -1 $206 $-1 $87 -1025383967 #
vertex $-1 -1 $-1 $139 $207 #
straight-curve $-1 -1 $-1 -126.86770167077134 72.265151013196629 -127.04320303759687 1.4057969658351026e-15 10 1.6652931214055646e-16 F 0 F 0.87767090063073905 #
coedge $-1 -1 $-1 $208 $187 $88 $144 reversed $209 $-1 #
edge $210 -1 $-1 $204 0.23094010767585099 $146 0.46188021535170098 $143 $211 forward @7 unknown #
truecolor-adesk-attrib $-1 -1 $212 $-1 $89 -1025383967 #
vertex $-1 -1 $-1 $89 $213 #
straight-curve $-1 -1 $-1 -131.48580035834871 72.265151013196629 -126.9625938251603 1.4057969658351026e-15 10 1.6652931214055646e-16 F 0 F 0.87767090063073905 #
truecolor-adesk-attrib $-1 -1 $214 $-1 $90 -1025383967 #
plane-surface $-1 -1 $-1 -129.17675101456001 72.265151013196629 -127.00289843137858 -0.017452406437282204 1.9103848893576696e-17 -0.99984769515639127 9.9984769515639123 -1.4026765189088776e-15 -0.17452406437282203 forward_v I I I I #
DXID-attrib $-1 -1 $-1 $95 $54 @18 ASM_FACE_FROM_STEP @20 Assembled Shell-3698 #
truecolor-adesk-attrib $-1 -1 $215 $-1 $96 -1025383967 #
face $216 -1 $-1 $217 $177 $3 $-1 $218 reversed single #
loop $-1 -1 $-1 $219 $220 $96 #
sphere-surface $-1 -1 $-1 -129.1069413888109 69.265151013196629 -123.00350765075304 3 0.99984769515639127 -1.4026765189088775e-16 -0.017452406437282204 0.017452406437282204 -1.9103848893576696e-17 0.99984769515639127 forward_v I I I I #
loop $-1 -1 $-1 $-1 $221 $54 #
coedge $-1 -1 $-1 $156 $156 $222 $223 reversed $97 $-1 #
coedge $-1 -1 $-1 $157 $157 $220 $224 reversed $99 $-1 #
coedge $-1 -1 $-1 $158 $158 $100 $159 forward $121 $-1 #
edge $225 -1 $-1 $226 -3.1415926535897931 $226 3.1415926535897931 $100 $227 forward @7 unknown #
coedge $-1 -1 $-1 $189 $228 $101 $161 reversed $229 $-1 #
edge $230 -1 $-1 $163 -1.6073296269560468e-17 $231 0.23094010767585152 $101 $232 forward @7 unknown #
truecolor-adesk-attrib $-1 -1 $233 $-1 $102 -1025383967 #
vertex $-1 -1 $-1 $102 $234 #
straight-curve $-1 -1 $-1 -133.72504007638827 72.265151013196629 -122.92289843831645 1.4057969658351026e-15 10 1.6652931214055646e-16 F 0 F 0.87767090063073905 #
coedge $-1 -1 $-1 $168 $106 $103 $166 reversed $169 $-1 #
edge $235 -1 $-1 $231 0.23094010767585152 $109 0.46188021535170093 $103 $236 forward @7 unknown #
DXID-attrib $-1 -1 $-1 $104 $59 @18 ASM_EDGE_FROM_STEP @4 2145 #
coedge $-1 -1 $-1 $106 $165 $221 $237 reversed $169 $-1 #
loop $-1 -1 $-1 $-1 $168 $238 #
truecolor-adesk-attrib $-1 -1 $239 $-1 $107 -1025383967 #
vertex $-1 -1 $-1 $107 $240 #
straight-curve $-1 -1 $-1 -131.34618110685045 72.265151013196629 -118.96381226390918 9.9984769515639123 -1.4026765189088779e-15 -0.17452406437280044 F 0 F 0.23094010767584999 #
DXID-attrib $-1 -1 $-1 $108 $61 @18 ASM_EDGE_FROM_STEP @4 2150 #
point $-1 -1 $-1 -131.34618110685045 72.265151013196629 -118.96381226390918 #
coedge $-1 -1 $-1 $176 $111 $241 $242 reversed $177 $-1 #
coedge $-1 -1 $-1 $111 $175 $113 $181 reversed $177 $-1 #
loop $-1 -1 $-1 $-1 $175 $152 #
truecolor-adesk-attrib $-1 -1 $243 $-1 $112 -1025383967 #
straight-curve $-1 -1 $-1 -131.34618110685045 72.265151013196629 -118.96381226390918 9.9984769515639123 -1.4026765189088779e-15 -0.17452406437280044 F 0.23094010767584999 F 0.46188021535169999 #
coedge $-1 -1 $-1 $129 $113 $244 $245 forward $114 $-1 #
edge $246 -1 $-1 $116 0 $247 0.23094010767585074 $176 $248 forward @7 unknown #
face $249 -1 $-1 $122 $114 $3 $-1 $250 forward single #
DXID-attrib $-1 -1 $-1 $115 $64 @18 ASM_EDGE_FROM_STEP @4 2153 #
point $-1 -1 $-1 -126.72808241927309 72.265151013196629 -119.04442147634573 #
truecolor-adesk-attrib $-1 -1 $251 $-1 $122 -1025383967 #
plane-surface $-1 -1 $-1 -129.1069413888109 82.265151013196629 -123.00350765075302 1.4057969658351026e-16 1 1.6652931214055644e-17 -0.17452406437282203 1.9103848893576695e-16 -9.9984769515639123 forward_v I I I I #
coedge $-1 -1 $-1 $143 $208 $125 $188 reversed $209 $-1 #
edge $252 -1 $-1 $146 0 $253 0.23094010767585024 $125 $254 forward @7 unknown #
coedge $-1 -1 $-1 $228 $160 $126 $190 reversed $229 $-1 #
edge $255 -1 $-1 $253 0.23094010767585024 $163 0.46188021535170104 $126 $256 forward @7 unknown #
DXID-attrib $-1 -1 $-1 $130 $79 @18 ASM_EDGE_FROM_STEP @4 2147 #
coedge $-1 -1 $-1 $244 $257 $132 $193 reversed $258 $-1 #
edge $259 -1 $-1 $195 -1.051731214718404e-17 $260 0.23094010767585088 $192 $261 forward @7 unknown #
truecolor-adesk-attrib $-1 -1 $262 $-1 $133 -1025383967 #
vertex $-1 -1 $-1 $193 $263 #
straight-curve $-1 -1 $-1 -124.48884270123354 72.265151013196629 -123.08411686318959 1.4057969658351026e-15 10 1.6652931214055646e-16 F 0 F 0.87767090063073905 #
coedge $-1 -1 $-1 $201 $138 $134 $198 reversed $202 $-1 #
edge $264 -1 $-1 $260 0.23094010767585088 $141 0.46188021535170121 $197 $265 forward @7 unknown #
truecolor-adesk-attrib $-1 -1 $266 $-1 $135 -1025383967 #
plane-surface $-1 -1 $-1 -125.67827218600243 72.265151013196629 -125.06365995039323 0.85716730070211367 -1.1192342541991288e-16 -0.51503807491005227 -1.4057969658351026e-15 -10 -1.6652931214055646e-16 forward_v I I I I #
coedge $-1 -1 $-1 $138 $197 $267 $268 reversed $202 $-1 #
loop $-1 -1 $-1 $-1 $201 $269 #
truecolor-adesk-attrib $-1 -1 $270 $-1 $139 -1025383967 #
vertex $-1 -1 $-1 $271 $272 #
straight-curve $-1 -1 $-1 -126.86770167077134 72.265151013196629 -127.04320303759687 -9.9984769515639123 1.4026765189088776e-15 0.17452406437282203 F 0 F 0.23094010767585099 #
DXID-attrib $-1 -1 $-1 $140 $87 @18 ASM_EDGE_FROM_STEP @4 2175 #
point $-1 -1 $-1 -126.86770167077134 72.265151013196629 -127.04320303759687 #
coedge $-1 -1 $-1 $187 $143 $273 $271 reversed $209 $-1 #
loop $-1 -1 $-1 $-1 $208 $274 #
truecolor-adesk-attrib $-1 -1 $275 $-1 $144 -1025383967 #
straight-curve $-1 -1 $-1 -126.86770167077134 72.265151013196629 -127.04320303759687 -9.9984769515639123 1.4026765189088776e-15 0.17452406437282203 F 0.23094010767585099 F 0.46188021535170098 #
DXID-attrib $-1 -1 $-1 $145 $89 @18 ASM_EDGE_FROM_STEP @4 2157 #
point $-1 -1 $-1 -131.48580035834871 72.265151013196629 -126.9625938251603 #
DXID-attrib $-1 -1 $-1 $148 $90 @18 ASM_FACE_FROM_STEP @20 Assembled Shell-3706 #
DXID-attrib $-1 -1 $-1 $151 $96 @18 ASM_FACE_FROM_STEP @20 Assembled Shell-3699 #
truecolor-adesk-attrib $-1 -1 $276 $-1 $152 -1025383967 #
face $277 -1 $-1 $269 $258 $3 $-1 $278 reversed single #
plane-surface $-1 -1 $-1 -129.1069413888109 72.265151013196629 -123.00350765075302 1.4057969658351026e-16 1 1.6652931214055644e-17 -0.17452406437282203 1.9103848893576695e-16 -9.9984769515639123 forward_v I I I I #
loop $-1 -1 $-1 $-1 $222 $96 #
coedge $-1 -1 $-1 $220 $220 $157 $224 forward $153 $-1 #
coedge $-1 -1 $-1 $279 $241 $168 $237 forward $155 $-1 #
coedge $-1 -1 $-1 $222 $222 $156 $223 forward $219 $-1 #
edge $280 -1 $-1 $281 0 $281 6.2831853071795862 $156 $282 forward @7 unknown #
edge $283 -1 $-1 $284 -3.1415926535897931 $284 3.1415926535897931 $157 $285 forward @7 unknown #
truecolor-adesk-attrib $-1 -1 $286 $-1 $159 -1025383967 #
vertex $-1 -1 $-1 $159 $287 #
ellipse-curve $-1 -1 $-1 -129.1069413888109 82.265151013196629 -123.00350765075302 -1.4057969658351026e-16 -1 -1.6652931214055644e-17 1.9996953903127825 -2.8053530378177549e-16 -0.034904812874564407 1 I I #
coedge $-1 -1 $-1 $160 $189 $279 $288 reversed $229 $-1 #
loop $-1 -1 $-1 $-1 $228 $289 #
truecolor-adesk-attrib $-1 -1 $290 $-1 $161 -1025383967 #
vertex $-1 -1 $-1 $161 $291 #
straight-curve $-1 -1 $-1 -133.72504007638827 72.265151013196629 -122.92289843831645 5.15038074910054 -8.667824439734066e-16 8.5716730070211238 F -1.6073296269560468e-17 F 0.23094010767585152 #
DXID-attrib $-1 -1 $-1 $162 $102 @18 ASM_EDGE_FROM_STEP @4 2154 #
point $-1 -1 $-1 -133.72504007638827 72.265151013196629 -122.92289843831645 #
truecolor-adesk-attrib $-1 -1 $292 $-1 $166 -1025383967 #
straight-curve $-1 -1 $-1 -133.72504007638827 72.265151013196629 -122.92289843831645 5.15038074910054 -8.667824439734066e-16 8.5716730070211238 F 0.23094010767585152 F 0.46188021535170093 #
edge $293 -1 $-1 $171 -3.1415926535897931 $231 -2.0943951023931993 $221 $294 forward @7 unknown #
face $295 -1 $-1 $90 $169 $3 $-1 $296 reversed single #
DXID-attrib $-1 -1 $-1 $170 $107 @18 ASM_EDGE_FROM_STEP @4 2151 #
point $-1 -1 $-1 -129.03713176306178 72.265151013196629 -119.00411687012745 #
coedge $-1 -1 $-1 $221 $297 $175 $242 forward $155 $-1 #
edge $298 -1 $-1 $247 2.0943951023931979 $171 3.1415926535897931 $241 $299 forward @7 unknown #
DXID-attrib $-1 -1 $-1 $178 $112 @18 ASM_EDGE_FROM_STEP @4 2152 #
coedge $-1 -1 $-1 $257 $192 $180 $245 reversed $258 $-1 #
edge $300 -1 $-1 $247 0.23094010767585074 $195 0.46188021535170126 $244 $301 forward @7 unknown #
truecolor-adesk-attrib $-1 -1 $302 $-1 $181 -1025383967 #
vertex $-1 -1 $-1 $303 $304 #
straight-curve $-1 -1 $-1 -126.72808241927309 72.265151013196629 -119.04442147634573 4.8480962024633918 -5.3589407493547362e-16 -8.7461970713939472 F 0 F 0.23094010767585074 #
truecolor-adesk-attrib $-1 -1 $305 $-1 $182 -1025383967 #
plane-surface $-1 -1 $-1 -125.60846256025332 72.265151013196629 -121.06426916976766 0.87461970713939463 -1.3102727431348941e-16 0.48480962024633917 -1.4057969658351026e-15 -10 -1.6652931214055646e-16 forward_v I I I I #
DXID-attrib $-1 -1 $-1 $185 $122 @18 ASM_FACE_FROM_STEP @20 Assembled Shell-3709 #
truecolor-adesk-attrib $-1 -1 $306 $-1 $188 -1025383967 #
vertex $-1 -1 $-1 $188 $307 #
straight-curve $-1 -1 $-1 -131.48580035834871 72.265151013196629 -126.9625938251603 -4.8480962024633918 5.3589407493547362e-16 8.7461970713939472 F 0 F 0.23094010767585024 #
truecolor-adesk-attrib $-1 -1 $308 $-1 $190 -1025383967 #
straight-curve $-1 -1 $-1 -131.48580035834871 72.265151013196629 -126.9625938251603 -4.8480962024633918 5.3589407493547362e-16 8.7461970713939472 F 0.23094010767585024 F 0.46188021535170104 #
coedge $-1 -1 $-1 $192 $244 $297 $303 reversed $258 $-1 #
loop $-1 -1 $-1 $-1 $257 $217 #
truecolor-adesk-attrib $-1 -1 $309 $-1 $193 -1025383967 #
vertex $-1 -1 $-1 $268 $310 #
straight-curve $-1 -1 $-1 -124.48884270123354 72.265151013196629 -123.08411686318959 -5.1503807491005196 8.6678244397340364e-16 -8.5716730070211327 F -1.051731214718404e-17 F 0.23094010767585088 #
DXID-attrib $-1 -1 $-1 $194 $133 @18 ASM_EDGE_FROM_STEP @4 2176 #
point $-1 -1 $-1 -124.48884270123354 72.265151013196629 -123.08411686318959 #
truecolor-adesk-attrib $-1 -1 $311 $-1 $198 -1025383967 #
straight-curve $-1 -1 $-1 -124.48884270123354 72.265151013196629 -123.08411686318959 -5.1503807491005196 8.6678244397340364e-16 -8.5716730070211327 F 0.23094010767585088 F 0.46188021535170121 #
DXID-attrib $-1 -1 $-1 $199 $135 @18 ASM_FACE_FROM_STEP @20 Assembled Shell-3707 #
coedge $-1 -1 $-1 $297 $273 $201 $268 forward $155 $-1 #
edge $312 -1 $-1 $204 0 $260 1.0471975511965994 $267 $313 forward @7 unknown #
face $314 -1 $-1 $274 $202 $3 $-1 $315 reversed single #
DXID-attrib $-1 -1 $-1 $203 $139 @18 ASM_EDGE_FROM_STEP @4 2172 #
edge $316 -1 $-1 $253 -1.0471975511965981 $204 0 $273 $317 forward @7 unknown #
point $-1 -1 $-1 -129.17675101456001 72.265151013196657 -127.00289843137858 #
coedge $-1 -1 $-1 $267 $279 $208 $271 forward $155 $-1 #
face $318 -1 $-1 $289 $209 $3 $-1 $319 reversed single #
DXID-attrib $-1 -1 $-1 $210 $144 @18 ASM_EDGE_FROM_STEP @4 2174 #
DXID-attrib $-1 -1 $-1 $216 $152 @18 ASM_FACE_FROM_STEP @20 Assembled Shell-3700 #
truecolor-adesk-attrib $-1 -1 $320 $-1 $217 -1025383967 #
plane-surface $-1 -1 $-1 -129.1069413888109 72.265151013196629 -123.00350765075302 1.4057969658351026e-16 1 1.6652931214055644e-17 -0.17452406437282203 1.9103848893576695e-16 -9.9984769515639123 forward_v I I I I #
coedge $-1 -1 $-1 $273 $221 $228 $288 forward $155 $-1 #
truecolor-adesk-attrib $-1 -1 $321 $-1 $223 -1025383967 #
vertex $-1 -1 $-1 $223 $322 #
ellipse-curve $-1 -1 $-1 -129.1069413888109 70.418997167042789 -123.00350765075302 -1.993772504893408e-16 -1 -3.3851625384618489e-15 0.048329740903242865 -9.3825043604881334e-15 2.7688090019715355 1 I I #
truecolor-adesk-attrib $-1 -1 $323 $-1 $224 -1025383967 #
vertex $-1 -1 $-1 $224 $324 #
ellipse-curve $-1 -1 $-1 -129.1069413888109 67.029083035696843 -123.00350765075302 1.4057969658351026e-16 1 1.6652931214055644e-17 1.9996953903127825 -2.8053530378177549e-16 -0.034904812874564407 1 I I #
DXID-attrib $-1 -1 $-1 $225 $159 @18 ASM_EDGE_FROM_STEP @4 2160 #
point $-1 -1 $-1 -131.10663677912368 82.265151013196629 -122.96860283787845 #
edge $325 -1 $-1 $231 -2.0943951023931993 $253 -1.0471975511965981 $279 $326 forward @7 unknown #
face $327 -1 $-1 $238 $229 $3 $-1 $328 reversed single #
DXID-attrib $-1 -1 $-1 $230 $161 @18 ASM_EDGE_FROM_STEP @4 2155 #
point $-1 -1 $-1 -132.53561059161933 72.265151013196643 -120.9433553511128 #
DXID-attrib $-1 -1 $-1 $235 $166 @18 ASM_EDGE_FROM_STEP @4 2156 #
truecolor-adesk-attrib $-1 -1 $329 $-1 $237 -1025383967 #
ellipse-curve $-1 -1 $-1 -129.1069413888109 72.265151013196629 -123.00350765075302 -1.4057969658351026e-16 -1 -1.6652931214055644e-17 -0.069809625749128995 7.641539557430698e-17 -3.9993907806255753 1 F -3.1415926535897931 F -2.0943951023931993 #
truecolor-adesk-attrib $-1 -1 $330 $-1 $238 -1025383967 #
plane-surface $-1 -1 $-1 -129.1069413888109 72.265151013196629 -123.00350765075302 1.4057969658351026e-16 1 1.6652931214055644e-17 -0.17452406437282203 1.9103848893576695e-16 -9.9984769515639123 forward_v I I I I #
coedge $-1 -1 $-1 $241 $267 $257 $303 forward $155 $-1 #
truecolor-adesk-attrib $-1 -1 $331 $-1 $242 -1025383967 #
ellipse-curve $-1 -1 $-1 -129.1069413888109 72.265151013196629 -123.00350765075302 -1.4057969658351026e-16 -1 -1.6652931214055644e-17 -0.069809625749128995 7.641539557430698e-17 -3.9993907806255753 1 F 2.0943951023931979 F 3.1415926535897931 #
truecolor-adesk-attrib $-1 -1 $332 $-1 $245 -1025383967 #
straight-curve $-1 -1 $-1 -126.72808241927309 72.265151013196629 -119.04442147634573 4.8480962024633918 -5.3589407493547362e-16 -8.7461970713939472 F 0.23094010767585074 F 0.46188021535170126 #
DXID-attrib $-1 -1 $-1 $246 $181 @18 ASM_EDGE_FROM_STEP @4 2169 #
edge $333 -1 $-1 $260 1.0471975511965994 $247 2.0943951023931979 $297 $334 forward @7 unknown #
point $-1 -1 $-1 -125.60846256025332 72.265151013196629 -121.06426916976766 #
DXID-attrib $-1 -1 $-1 $249 $182 @18 ASM_FACE_FROM_STEP @20 Assembled Shell-3708 #
DXID-attrib $-1 -1 $-1 $252 $188 @18 ASM_EDGE_FROM_STEP @4 2158 #
point $-1 -1 $-1 -132.60542021736848 72.265151013196643 -124.94274613173837 #
DXID-attrib $-1 -1 $-1 $255 $190 @18 ASM_EDGE_FROM_STEP @4 2159 #
DXID-attrib $-1 -1 $-1 $259 $193 @18 ASM_EDGE_FROM_STEP @4 2170 #
point $-1 -1 $-1 -125.67827218600243 72.265151013196643 -125.06365995039323 #
DXID-attrib $-1 -1 $-1 $264 $198 @18 ASM_EDGE_FROM_STEP @4 2173 #
truecolor-adesk-attrib $-1 -1 $335 $-1 $268 -1025383967 #
ellipse-curve $-1 -1 $-1 -129.1069413888109 72.265151013196629 -123.00350765075302 -1.4057969658351026e-16 -1 -1.6652931214055644e-17 -0.069809625749128995 7.641539557430698e-17 -3.9993907806255753 1 F 0 F 1.0471975511965994 #
truecolor-adesk-attrib $-1 -1 $336 $-1 $269 -1025383967 #
plane-surface $-1 -1 $-1 -129.1069413888109 72.265151013196629 -123.00350765075302 1.4057969658351026e-16 1 1.6652931214055644e-17 -0.17452406437282203 1.9103848893576695e-16 -9.9984769515639123 forward_v I I I I #
truecolor-adesk-attrib $-1 -1 $337 $-1 $271 -1025383967 #
ellipse-curve $-1 -1 $-1 -129.1069413888109 72.265151013196629 -123.00350765075302 -1.4057969658351026e-16 -1 -1.6652931214055644e-17 -0.069809625749128995 7.641539557430698e-17 -3.9993907806255753 1 F -1.0471975511965981 F 0 #
truecolor-adesk-attrib $-1 -1 $338 $-1 $274 -1025383967 #
plane-surface $-1 -1 $-1 -129.1069413888109 72.265151013196629 -123.00350765075302 1.4057969658351026e-16 1 1.6652931214055644e-17 -0.17452406437282203 1.9103848893576695e-16 -9.9984769515639123 forward_v I I I I #
DXID-attrib $-1 -1 $-1 $277 $217 @18 ASM_FACE_FROM_STEP @20 Assembled Shell-3701 #
DXID-attrib $-1 -1 $-1 $280 $223 @18 ASM_EDGE_FROM_STEP @4 2162 #
point $-1 -1 $-1 -129.05861164790764 70.418997167042775 -120.23469864878149 #
DXID-attrib $-1 -1 $-1 $283 $224 @18 ASM_EDGE_FROM_STEP @4 2161 #
point $-1 -1 $-1 -131.10663677912368 67.029083035696843 -122.96860283787845 #
truecolor-adesk-attrib $-1 -1 $339 $-1 $288 -1025383967 #
ellipse-curve $-1 -1 $-1 -129.1069413888109 72.265151013196629 -123.00350765075302 -1.4057969658351026e-16 -1 -1.6652931214055644e-17 -0.069809625749128995 7.641539557430698e-17 -3.9993907806255753 1 F -2.0943951023931993 F -1.0471975511965981 #
truecolor-adesk-attrib $-1 -1 $340 $-1 $289 -1025383967 #
plane-surface $-1 -1 $-1 -129.1069413888109 72.265151013196629 -123.00350765075302 1.4057969658351026e-16 1 1.6652931214055644e-17 -0.17452406437282203 1.9103848893576695e-16 -9.9984769515639123 forward_v I I I I #
DXID-attrib $-1 -1 $-1 $293 $237 @18 ASM_EDGE_FROM_STEP @4 2163 #
DXID-attrib $-1 -1 $-1 $295 $238 @18 ASM_FACE_FROM_STEP @20 Assembled Shell-3705 #
DXID-attrib $-1 -1 $-1 $298 $242 @18 ASM_EDGE_FROM_STEP @4 2168 #
DXID-attrib $-1 -1 $-1 $300 $245 @18 ASM_EDGE_FROM_STEP @4 2171 #
truecolor-adesk-attrib $-1 -1 $341 $-1 $303 -1025383967 #
ellipse-curve $-1 -1 $-1 -129.1069413888109 72.265151013196629 -123.00350765075302 -1.4057969658351026e-16 -1 -1.6652931214055644e-17 -0.069809625749128995 7.641539557430698e-17 -3.9993907806255753 1 F 1.0471975511965994 F 2.0943951023931979 #
DXID-attrib $-1 -1 $-1 $312 $268 @18 ASM_EDGE_FROM_STEP @4 2166 #
DXID-attrib $-1 -1 $-1 $314 $269 @18 ASM_FACE_FROM_STEP @20 Assembled Shell-3702 #
DXID-attrib $-1 -1 $-1 $316 $271 @18 ASM_EDGE_FROM_STEP @4 2165 #
DXID-attrib $-1 -1 $-1 $318 $274 @18 ASM_FACE_FROM_STEP @20 Assembled Shell-3703 #
DXID-attrib $-1 -1 $-1 $325 $288 @18 ASM_EDGE_FROM_STEP @4 2164 #
DXID-attrib $-1 -1 $-1 $327 $289 @18 ASM_FACE_FROM_STEP @20 Assembled Shell-3704 #
DXID-attrib $-1 -1 $-1 $333 $303 @18 ASM_EDGE_FROM_STEP @4 2167 #
