700 296 1 0         
5 ZWCAD 12 ACIS 28.0 NT 24 Mon May 13 15:04:02 2024 
1 9.9999999999999995e-07 1e-10 
body $1 -1 $-1 $2 $-1 $-1 #
DXID-attrib $-1 -1 $-1 $-1 $0 @18 ASM_BODY_FROM_STEP @83 16125BE5AB01F4F472D55E1F93F586C1F81900CF|:|0260B668D889EBDE4E6FB7CDCD265BBE0D083FF9 #
lump $-1 -1 $-1 $-1 $3 $0 #
shell $-1 -1 $-1 $-1 $-1 $4 $-1 $2 #
face $5 -1 $-1 $6 $7 $3 $-1 $8 forward single #
truecolor-adesk-attrib $-1 -1 $9 $-1 $4 -1056964608 #
face $10 -1 $-1 $11 $12 $3 $-1 $13 reversed single #
loop $-1 -1 $-1 $-1 $14 $4 #
cone-surface $-1 -1 $-1 20.757759429956586 -87.5303924832684 -129.6261957565109 7.3767500226394154e-27 -1 -2.7194588127136054e-15 3.8605564143206525e-10 3.8703461434304237e-13 -142.32045454545451 1 I I 0 1 142.32045454545451 forward I I I I #
fmesh-eye-attrib $-1 -1 $15 $5 $4 #
truecolor-adesk-attrib $-1 -1 $16 $-1 $6 -1056964608 #
face $17 -1 $-1 $18 $19 $3 $-1 $20 reversed single #
loop $-1 -1 $-1 $-1 $21 $6 #
plane-surface $-1 -1 $-1 33.257759429572026 -87.530392483268784 12.144258788977513 -1 0 -2.7125801604910293e-12 -2.7125801604910293e-12 -2.7194588127136054e-15 1 forward_v I I I I #
coedge $-1 -1 $-1 $22 $23 $24 $25 forward $7 $-1 #
DXID-attrib $-1 -1 $-1 $9 $4 @18 ASM_FACE_FROM_STEP @11 Assem3-2335 #
fmesh-eye-attrib $-1 -1 $26 $10 $6 #
truecolor-adesk-attrib $-1 -1 $27 $-1 $11 -1056964608 #
face $28 -1 $-1 $29 $30 $3 $-1 $31 reversed single #
loop $-1 -1 $-1 $-1 $32 $11 #
plane-surface $-1 -1 $-1 34.257759429576097 -87.530392483268784 10.644258788980226 -0.44721359549753142 2.4323579068953968e-15 -0.89442719100112922 -0.89442719100112933 -1.2161789534476974e-15 0.44721359549753142 forward_v I I I I #
coedge $-1 -1 $-1 $33 $34 $35 $36 reversed $12 $-1 #
coedge $-1 -1 $-1 $37 $14 $38 $39 reversed $7 $-1 #
coedge $-1 -1 $-1 $14 $37 $40 $41 forward $7 $-1 #
coedge $-1 -1 $-1 $42 $43 $14 $25 reversed $44 $-1 #
edge $45 -1 $-1 $46 -0.087943276542071208 $47 0.087943276542071208 $14 $48 forward @7 unknown #
DXID-attrib $-1 -1 $-1 $16 $6 @18 ASM_FACE_FROM_STEP @12 Assem3-47759 #
fmesh-eye-attrib $-1 -1 $49 $17 $11 #
truecolor-adesk-attrib $-1 -1 $50 $-1 $18 -1056964608 #
face $51 -1 $-1 $52 $53 $3 $-1 $54 reversed single #
loop $-1 -1 $-1 $-1 $55 $18 #
plane-surface $-1 -1 $-1 34.257759429577455 -87.53039248326877 10.144258788980226 -1 0 -2.7125801604910293e-12 -2.7125801604910293e-12 -2.7194588127136054e-15 1 forward_v I I I I #
coedge $-1 -1 $-1 $56 $57 $58 $59 reversed $19 $-1 #
coedge $-1 -1 $-1 $60 $21 $61 $62 reversed $12 $-1 #
coedge $-1 -1 $-1 $21 $38 $43 $63 forward $12 $-1 #
coedge $-1 -1 $-1 $57 $56 $21 $36 forward $19 $-1 #
edge $64 -1 $-1 $65 0.0019999999999999953 $66 0.02 $21 $67 forward @7 unknown #
coedge $-1 -1 $-1 $23 $22 $68 $69 reversed $7 $-1 #
coedge $-1 -1 $-1 $34 $70 $22 $39 forward $12 $-1 #
edge $71 -1 $-1 $72 0 $47 0.02 $22 $73 forward @7 unknown #
coedge $-1 -1 $-1 $74 $75 $23 $41 reversed $76 $-1 #
edge $77 -1 $-1 $78 0 $46 0.02 $23 $79 forward @7 unknown #
coedge $-1 -1 $-1 $80 $24 $75 $81 reversed $44 $-1 #
coedge $-1 -1 $-1 $24 $82 $34 $63 reversed $44 $-1 #
loop $-1 -1 $-1 $-1 $24 $83 #
truecolor-adesk-attrib $-1 -1 $84 $-1 $25 -1056964608 #
vertex $-1 -1 $-1 $25 $85 #
vertex $-1 -1 $-1 $25 $86 #
ellipse-curve $-1 -1 $-1 20.757759429956586 -107.5303924832684 -129.62619575651095 -7.3767500226394154e-27 1 2.7194588127136054e-15 -3.8605564143206525e-10 -3.8703461434304237e-13 142.32045454545451 1 F -0.087943276542071208 F 0.087943276542071208 #
DXID-attrib $-1 -1 $-1 $27 $11 @18 ASM_FACE_FROM_STEP @12 Assem3-10103 #
fmesh-eye-attrib $-1 -1 $87 $28 $18 #
truecolor-adesk-attrib $-1 -1 $88 $-1 $29 -1056964608 #
face $89 -1 $-1 $90 $91 $3 $-1 $92 reversed single #
loop $-1 -1 $-1 $-1 $93 $29 #
plane-surface $-1 -1 $-1 7.2577594295774492 -87.53039248326877 10.144258788906985 -2.7125801604910293e-12 -2.7194588127136054e-15 1 1 0 2.7125801604910293e-12 forward_v I I I I #
coedge $-1 -1 $-1 $94 $95 $96 $97 reversed $30 $-1 #
coedge $-1 -1 $-1 $35 $32 $98 $99 forward $19 $-1 #
coedge $-1 -1 $-1 $32 $35 $82 $100 forward $19 $-1 #
coedge $-1 -1 $-1 $95 $94 $32 $59 forward $30 $-1 #
edge $101 -1 $-1 $102 0.0019999999999999953 $103 0.02 $32 $104 forward @7 unknown #
coedge $-1 -1 $-1 $70 $33 $105 $106 reversed $12 $-1 #
coedge $-1 -1 $-1 $98 $107 $33 $62 forward $108 $-1 #
edge $109 -1 $-1 $110 0.0080000000000000002 $65 0.0089999999999999993 $33 $111 forward @7 unknown #
edge $112 -1 $-1 $47 0 $66 0.001 $34 $113 forward @7 unknown #
truecolor-adesk-attrib $-1 -1 $114 $-1 $36 -1056964608 #
vertex $-1 -1 $-1 $36 $115 #
vertex $-1 -1 $-1 $36 $116 #
straight-curve $-1 -1 $-1 33.25775942957474 -87.530392483268784 11.144258788977513 7.3767500226394149e-24 -1000 -2.7194588127136056e-12 F 0.0019999999999999953 F 0.02 #
coedge $-1 -1 $-1 $117 $118 $37 $69 forward $119 $-1 #
edge $120 -1 $-1 $78 -0.087943276542071208 $72 0.087943276542071208 $37 $121 forward @7 unknown #
coedge $-1 -1 $-1 $38 $60 $117 $122 reversed $12 $-1 #
truecolor-adesk-attrib $-1 -1 $123 $-1 $39 -1056964608 #
vertex $-1 -1 $-1 $39 $124 #
straight-curve $-1 -1 $-1 33.257759429572026 -87.530392483268784 12.144258788977513 7.3767500226394149e-24 -1000 -2.7194588127136056e-12 F 0 F 0.02 #
coedge $-1 -1 $-1 $125 $40 $118 $126 reversed $76 $-1 #
coedge $-1 -1 $-1 $40 $127 $42 $81 forward $76 $-1 #
loop $-1 -1 $-1 $-1 $75 $128 #
truecolor-adesk-attrib $-1 -1 $129 $-1 $41 -1056964608 #
vertex $-1 -1 $-1 $69 $130 #
straight-curve $-1 -1 $-1 8.2577594295720242 -87.530392483268784 12.144258788909699 7.3767500226394149e-24 -1000 -2.7194588127136056e-12 F 0 F 0.02 #
coedge $-1 -1 $-1 $131 $42 $132 $133 reversed $44 $-1 #
edge $134 -1 $-1 $135 -0.001 $46 0 $75 $136 forward @7 unknown #
coedge $-1 -1 $-1 $43 $137 $57 $100 reversed $44 $-1 #
face $138 -1 $-1 $139 $44 $3 $-1 $140 reversed single #
DXID-attrib $-1 -1 $-1 $45 $25 @18 ASM_EDGE_FROM_STEP @5 13090 #
point $-1 -1 $-1 8.2577594295720242 -107.53039248326878 12.144258788909644 #
point $-1 -1 $-1 33.257759429572026 -107.53039248326878 12.144258788977458 #
DXID-attrib $-1 -1 $-1 $50 $18 @18 ASM_FACE_FROM_STEP @12 Assem3-20745 #
fmesh-eye-attrib $-1 -1 $141 $51 $29 #
truecolor-adesk-attrib $-1 -1 $142 $-1 $52 -1056964608 #
face $143 -1 $-1 $128 $144 $3 $-1 $145 reversed single #
loop $-1 -1 $-1 $-1 $146 $52 #
plane-surface $-1 -1 $-1 7.2577594295774492 -87.53039248326877 10.144258788906985 1 0 2.7125801604910293e-12 2.7125801604910293e-12 2.7194588127136054e-15 -1 forward_v I I I I #
coedge $-1 -1 $-1 $105 $147 $148 $149 reversed $53 $-1 #
coedge $-1 -1 $-1 $58 $55 $150 $151 forward $30 $-1 #
coedge $-1 -1 $-1 $55 $58 $137 $152 forward $30 $-1 #
coedge $-1 -1 $-1 $153 $154 $55 $97 forward $53 $-1 #
edge $155 -1 $-1 $156 0.0019999999999999953 $157 0.02 $55 $158 forward @7 unknown #
coedge $-1 -1 $-1 $150 $61 $56 $99 reversed $108 $-1 #
edge $159 -1 $-1 $102 0 $65 0.0011180339887498993 $56 $160 forward @7 unknown #
edge $161 -1 $-1 $66 -0.0011180339887498995 $103 0 $57 $162 forward @7 unknown #
truecolor-adesk-attrib $-1 -1 $163 $-1 $59 -1056964608 #
vertex $-1 -1 $-1 $59 $164 #
vertex $-1 -1 $-1 $59 $165 #
straight-curve $-1 -1 $-1 34.257759429576097 -87.530392483268784 10.644258788980226 7.3767500226394149e-24 -1000 -2.7194588127136056e-12 F 0.0019999999999999953 F 0.02 #
coedge $-1 -1 $-1 $154 $93 $60 $106 forward $53 $-1 #
edge $166 -1 $-1 $167 0 $110 0.0019999999999999953 $60 $168 forward @7 unknown #
coedge $-1 -1 $-1 $61 $150 $154 $169 reversed $108 $-1 #
loop $-1 -1 $-1 $-1 $150 $170 #
truecolor-adesk-attrib $-1 -1 $171 $-1 $62 -1056964608 #
vertex $-1 -1 $-1 $62 $172 #
straight-curve $-1 -1 $-1 33.257759429599147 -89.530392483268756 2.144258788977508 -2.7125801604910293e-09 -2.7194588127136056e-12 1000 F 0.0080000000000000002 F 0.0089999999999999993 #
truecolor-adesk-attrib $-1 -1 $173 $-1 $63 -1056964608 #
straight-curve $-1 -1 $-1 33.257759429572026 -107.53039248326878 12.144258788977458 2.7125801604910293e-09 2.7194588127136056e-12 -1000 F 0 F 0.001 #
DXID-attrib $-1 -1 $-1 $64 $36 @18 ASM_EDGE_FROM_STEP @5 11191 #
point $-1 -1 $-1 33.25775942957474 -89.53039248326877 11.144258788977506 #
point $-1 -1 $-1 33.25775942957474 -107.53039248326878 11.144258788977458 #
coedge $-1 -1 $-1 $148 $68 $70 $122 forward $119 $-1 #
coedge $-1 -1 $-1 $68 $148 $74 $126 forward $119 $-1 #
loop $-1 -1 $-1 $-1 $117 $174 #
truecolor-adesk-attrib $-1 -1 $175 $-1 $69 -1056964608 #
ellipse-curve $-1 -1 $-1 20.757759429956586 -87.5303924832684 -129.6261957565109 -7.3767500226394154e-27 1 2.7194588127136054e-15 -3.8605564143206525e-10 -3.8703461434304237e-13 142.32045454545451 1 F -0.087943276542071208 F 0.087943276542071208 #
edge $176 -1 $-1 $72 0 $167 0.002 $70 $177 forward @7 unknown #
DXID-attrib $-1 -1 $-1 $71 $39 @18 ASM_EDGE_FROM_STEP @5 43183 #
point $-1 -1 $-1 33.257759429572026 -87.530392483268784 12.144258788977513 #
coedge $-1 -1 $-1 $178 $74 $147 $179 reversed $76 $-1 #
edge $180 -1 $-1 $181 -0.0020000000000000018 $78 0 $74 $182 forward @7 unknown #
coedge $-1 -1 $-1 $75 $178 $183 $184 forward $76 $-1 #
face $185 -1 $-1 $174 $76 $3 $-1 $186 reversed single #
DXID-attrib $-1 -1 $-1 $77 $41 @18 ASM_EDGE_FROM_STEP @5 14033 #
point $-1 -1 $-1 8.2577594295720242 -87.530392483268784 12.144258788909699 #
coedge $-1 -1 $-1 $187 $80 $188 $189 reversed $44 $-1 #
coedge $-1 -1 $-1 $183 $190 $80 $133 forward $144 $-1 #
edge $191 -1 $-1 $192 0 $135 0.0011180339887498949 $132 $193 forward @7 unknown #
truecolor-adesk-attrib $-1 -1 $194 $-1 $81 -1056964608 #
vertex $-1 -1 $-1 $184 $195 #
straight-curve $-1 -1 $-1 8.2577594295720242 -107.53039248326878 12.144258788909644 -2.7125801604910293e-09 -2.7194588127136056e-12 1000 F -0.001 F 0 #
coedge $-1 -1 $-1 $82 $187 $95 $152 reversed $44 $-1 #
truecolor-adesk-attrib $-1 -1 $196 $-1 $83 -1056964608 #
face $197 -1 $-1 $170 $198 $3 $-1 $199 reversed single #
plane-surface $-1 -1 $-1 20.757759429956586 -107.5303924832684 -129.62619575651095 -7.3767500226394154e-27 1 2.7194588127136054e-15 -2.7125801604910293e-12 -2.7194588127136054e-15 1 forward_v I I I I #
DXID-attrib $-1 -1 $-1 $88 $29 @18 ASM_FACE_FROM_STEP @11 Assem3-9254 #
fmesh-eye-attrib $-1 -1 $200 $89 $52 #
truecolor-adesk-attrib $-1 -1 $201 $-1 $90 -1056964608 #
loop $-1 -1 $-1 $-1 $183 $90 #
plane-surface $-1 -1 $-1 7.257759429576093 -87.530392483268784 10.644258788906985 0.44721359550238421 2.4323579068953968e-15 -0.89442719099870283 -0.89442719099870283 1.2161789534476984e-15 -0.44721359550238421 forward_v I I I I #
coedge $-1 -1 $-1 $202 $188 $190 $203 reversed $91 $-1 #
coedge $-1 -1 $-1 $93 $204 $125 $179 forward $53 $-1 #
coedge $-1 -1 $-1 $118 $117 $93 $149 forward $119 $-1 #
edge $205 -1 $-1 $167 -0.026000000000000002 $181 -0.001 $93 $206 forward @7 unknown #
coedge $-1 -1 $-1 $107 $98 $94 $151 reversed $108 $-1 #
edge $207 -1 $-1 $156 0 $102 0.0004999999999999999 $94 $208 forward @7 unknown #
edge $209 -1 $-1 $103 -0.0004999999999999999 $157 0 $95 $210 forward @7 unknown #
coedge $-1 -1 $-1 $211 $96 $187 $212 forward $53 $-1 #
coedge $-1 -1 $-1 $96 $105 $107 $169 forward $53 $-1 #
truecolor-adesk-attrib $-1 -1 $213 $-1 $97 -1056964608 #
vertex $-1 -1 $-1 $97 $214 #
vertex $-1 -1 $-1 $97 $215 #
straight-curve $-1 -1 $-1 34.257759429577455 -87.53039248326877 10.144258788980226 7.3767500226394149e-24 -1000 -2.7194588127136056e-12 F 0.0019999999999999953 F 0.02 #
truecolor-adesk-attrib $-1 -1 $216 $-1 $99 -1056964608 #
straight-curve $-1 -1 $-1 34.257759429576097 -89.53039248326877 10.64425878898022 -894.42719100112936 -1.2161789534476977e-12 447.21359549753151 F 0 F 0.0011180339887498993 #
truecolor-adesk-attrib $-1 -1 $217 $-1 $100 -1056964608 #
straight-curve $-1 -1 $-1 34.257759429576097 -107.53039248326878 10.644258788980171 894.42719100112936 1.2161789534476977e-12 -447.21359549753151 F -0.0011180339887498995 F 0 #
DXID-attrib $-1 -1 $-1 $101 $59 @18 ASM_EDGE_FROM_STEP @5 38820 #
point $-1 -1 $-1 34.257759429576097 -89.53039248326877 10.64425878898022 #
point $-1 -1 $-1 34.257759429576097 -107.53039248326878 10.644258788980171 #
truecolor-adesk-attrib $-1 -1 $218 $-1 $106 -1056964608 #
vertex $-1 -1 $-1 $106 $219 #
straight-curve $-1 -1 $-1 33.257759429577447 -87.53039248326877 10.144258788977513 7.3767500226394149e-24 -1000 -2.7194588127136056e-12 F 0 F 0.0019999999999999953 #
edge $220 -1 $-1 $110 0.026000000000000002 $156 0.027000000000000007 $154 $221 forward @7 unknown #
face $222 -1 $-1 $-1 $108 $3 $-1 $223 reversed single #
DXID-attrib $-1 -1 $-1 $109 $62 @18 ASM_EDGE_FROM_STEP @5 23439 #
point $-1 -1 $-1 33.257759429577447 -89.53039248326877 10.144258788977508 #
DXID-attrib $-1 -1 $-1 $112 $63 @18 ASM_EDGE_FROM_STEP @5 44490 #
face $224 -1 $-1 $83 $119 $3 $-1 $225 forward single #
DXID-attrib $-1 -1 $-1 $120 $69 @18 ASM_EDGE_FROM_STEP @4 4049 #
truecolor-adesk-attrib $-1 -1 $226 $-1 $122 -1056964608 #
straight-curve $-1 -1 $-1 33.257759429572026 -87.530392483268784 12.144258788977513 2.7125801604910293e-09 2.7194588127136056e-12 -1000 F 0 F 0.002 #
coedge $-1 -1 $-1 $127 $125 $227 $228 forward $76 $-1 #
edge $229 -1 $-1 $230 -0.0019999999999999953 $181 0 $147 $231 forward @7 unknown #
truecolor-adesk-attrib $-1 -1 $232 $-1 $126 -1056964608 #
vertex $-1 -1 $-1 $149 $233 #
straight-curve $-1 -1 $-1 8.2577594295720242 -87.530392483268784 12.144258788909699 -2.7125801604910293e-09 -2.7194588127136056e-12 1000 F -0.0020000000000000018 F 0 #
coedge $-1 -1 $-1 $234 $132 $127 $184 reversed $144 $-1 #
edge $235 -1 $-1 $236 0.0019999999999999953 $135 0.02 $183 $237 forward @7 unknown #
truecolor-adesk-attrib $-1 -1 $238 $-1 $128 -1056964608 #
plane-surface $-1 -1 $-1 8.2577594295720242 -87.530392483268784 12.144258788909699 1 0 2.7125801604910293e-12 2.7125801604910293e-12 2.7194588127136054e-15 -1 forward_v I I I I #
coedge $-1 -1 $-1 $137 $131 $153 $212 reversed $44 $-1 #
coedge $-1 -1 $-1 $146 $239 $131 $189 forward $91 $-1 #
edge $240 -1 $-1 $241 0 $192 0.0004999999999999999 $188 $242 forward @7 unknown #
coedge $-1 -1 $-1 $132 $234 $146 $203 forward $144 $-1 #
truecolor-adesk-attrib $-1 -1 $243 $-1 $133 -1056964608 #
vertex $-1 -1 $-1 $203 $244 #
straight-curve $-1 -1 $-1 7.257759429576093 -107.53039248326878 10.644258788906932 894.42719099870294 -1.2161789534476985e-12 447.21359550238424 F 0 F 0.0011180339887498949 #
DXID-attrib $-1 -1 $-1 $134 $81 @18 ASM_EDGE_FROM_STEP @4 1507 #
point $-1 -1 $-1 8.2577594295747367 -107.53039248326878 11.144258788909644 #
fmesh-eye-attrib $-1 -1 $245 $138 $83 #
truecolor-adesk-attrib $-1 -1 $246 $-1 $139 -1056964608 #
loop $-1 -1 $-1 $-1 $247 $139 #
plane-surface $-1 -1 $-1 8.257759429599151 -89.530392483268756 2.1442587889096938 7.3767500226394154e-27 -1 -2.7194588127136054e-15 2.7125801604910293e-12 2.7194588127136054e-15 -1 forward_v I I I I #
DXID-attrib $-1 -1 $-1 $142 $52 @18 ASM_FACE_FROM_STEP @11 Assem3-4110 #
fmesh-eye-attrib $-1 -1 $248 $143 $90 #
coedge $-1 -1 $-1 $239 $146 $247 $249 forward $91 $-1 #
edge $250 -1 $-1 $251 0.0019999999999999953 $192 0.02 $146 $252 forward @7 unknown #
coedge $-1 -1 $-1 $147 $211 $253 $254 forward $53 $-1 #
truecolor-adesk-attrib $-1 -1 $255 $-1 $149 -1056964608 #
straight-curve $-1 -1 $-1 7.2577594295774492 -87.53039248326877 10.144258788906985 -1000 0 -2.7125801604910293e-09 F -0.026000000000000002 F -0.001 #
truecolor-adesk-attrib $-1 -1 $256 $-1 $151 -1056964608 #
straight-curve $-1 -1 $-1 34.257759429577455 -89.53039248326877 10.14425878898022 -2.7125801604910293e-09 -2.7194588127136056e-12 1000 F 0 F 0.0004999999999999999 #
truecolor-adesk-attrib $-1 -1 $257 $-1 $152 -1056964608 #
straight-curve $-1 -1 $-1 34.257759429577455 -107.53039248326878 10.144258788980171 2.7125801604910293e-09 2.7194588127136056e-12 -1000 F -0.0004999999999999999 F 0 #
coedge $-1 -1 $-1 $204 $153 $239 $258 reversed $53 $-1 #
edge $259 -1 $-1 $157 -0.027000000000000007 $241 0 $153 $260 forward @7 unknown #
DXID-attrib $-1 -1 $-1 $155 $97 @18 ASM_EDGE_FROM_STEP @5 29337 #
point $-1 -1 $-1 34.257759429577455 -89.53039248326877 10.14425878898022 #
point $-1 -1 $-1 34.257759429577455 -107.53039248326878 10.144258788980171 #
DXID-attrib $-1 -1 $-1 $159 $99 @18 ASM_EDGE_FROM_STEP @4 4985 #
DXID-attrib $-1 -1 $-1 $161 $100 @18 ASM_EDGE_FROM_STEP @5 43377 #
DXID-attrib $-1 -1 $-1 $166 $106 @18 ASM_EDGE_FROM_STEP @5 32368 #
point $-1 -1 $-1 33.257759429577447 -87.53039248326877 10.144258788977513 #
truecolor-adesk-attrib $-1 -1 $261 $-1 $169 -1056964608 #
straight-curve $-1 -1 $-1 7.2577594295774492 -89.53039248326877 10.144258788906981 1000 0 2.7125801604910293e-09 F 0.026000000000000002 F 0.027000000000000007 #
truecolor-adesk-attrib $-1 -1 $262 $-1 $170 -1056964608 #
plane-surface $-1 -1 $-1 33.257759429599147 -89.530392483268756 2.144258788977508 7.3767500226394154e-27 -1 -2.7194588127136054e-15 2.7125801604910293e-12 2.7194588127136054e-15 -1 forward_v I I I I #
truecolor-adesk-attrib $-1 -1 $263 $-1 $174 -1056964608 #
plane-surface $-1 -1 $-1 20.757759429956586 -87.5303924832684 -129.6261957565109 -7.3767500226394154e-27 1 2.7194588127136054e-15 -2.7125801604910293e-12 -2.7194588127136054e-15 1 forward_v I I I I #
DXID-attrib $-1 -1 $-1 $176 $122 @18 ASM_EDGE_FROM_STEP @5 10234 #
coedge $-1 -1 $-1 $253 $264 $178 $228 reversed $198 $-1 #
edge $265 -1 $-1 $230 0.0080000000000000002 $236 0.0090000000000000011 $178 $266 forward @7 unknown #
truecolor-adesk-attrib $-1 -1 $267 $-1 $179 -1056964608 #
vertex $-1 -1 $-1 $254 $268 #
straight-curve $-1 -1 $-1 8.2577594295774492 -87.53039248326877 10.144258788909699 -1.2246467992211189e-13 1000 2.7194588127132736e-12 F -0.0019999999999999953 F 0 #
DXID-attrib $-1 -1 $-1 $180 $126 @18 ASM_EDGE_FROM_STEP @4 6848 #
point $-1 -1 $-1 8.2577594295774492 -87.53039248326877 10.144258788909697 #
coedge $-1 -1 $-1 $190 $183 $264 $269 forward $144 $-1 #
truecolor-adesk-attrib $-1 -1 $270 $-1 $184 -1056964608 #
vertex $-1 -1 $-1 $184 $271 #
straight-curve $-1 -1 $-1 8.2577594295747367 -87.530392483268784 11.144258788909699 7.3767500226394149e-24 -1000 -2.7194588127136056e-12 F 0.0019999999999999953 F 0.02 #
fmesh-eye-attrib $-1 -1 $272 $185 $128 #
coedge $-1 -1 $-1 $188 $202 $211 $258 forward $91 $-1 #
truecolor-adesk-attrib $-1 -1 $273 $-1 $189 -1056964608 #
vertex $-1 -1 $-1 $212 $274 #
straight-curve $-1 -1 $-1 7.2577594295774492 -107.53039248326878 10.144258788906932 -2.7125801604910293e-09 -2.7194588127136056e-12 1000 F 0 F 0.0004999999999999999 #
DXID-attrib $-1 -1 $-1 $191 $133 @18 ASM_EDGE_FROM_STEP @5 28790 #
point $-1 -1 $-1 7.257759429576093 -107.53039248326878 10.644258788906932 #
DXID-attrib $-1 -1 $-1 $196 $83 @18 ASM_FACE_FROM_STEP @12 Assem3-13497 #
fmesh-eye-attrib $-1 -1 $275 $197 $139 #
coedge $-1 -1 $-1 $264 $253 $202 $249 reversed $198 $-1 #
DXID-attrib $-1 -1 $-1 $201 $90 @18 ASM_FACE_FROM_STEP @12 Assem3-16479 #
edge $276 -1 $-1 $251 -0.0004999999999999999 $277 0 $202 $278 forward @7 unknown #
truecolor-adesk-attrib $-1 -1 $279 $-1 $203 -1056964608 #
vertex $-1 -1 $-1 $203 $280 #
straight-curve $-1 -1 $-1 7.257759429576093 -87.530392483268784 10.644258788906985 7.3767500226394149e-24 -1000 -2.7194588127136056e-12 F 0.0019999999999999953 F 0.02 #
coedge $-1 -1 $-1 $247 $227 $204 $254 reversed $198 $-1 #
edge $281 -1 $-1 $277 0 $230 0.0010000000000000002 $204 $282 forward @7 unknown #
DXID-attrib $-1 -1 $-1 $205 $149 @18 ASM_EDGE_FROM_STEP @5 33079 #
DXID-attrib $-1 -1 $-1 $207 $151 @18 ASM_EDGE_FROM_STEP @5 37742 #
DXID-attrib $-1 -1 $-1 $209 $152 @18 ASM_EDGE_FROM_STEP @4 7702 #
edge $283 -1 $-1 $277 0.0019999999999999953 $241 0.02 $211 $284 forward @7 unknown #
truecolor-adesk-attrib $-1 -1 $285 $-1 $212 -1056964608 #
straight-curve $-1 -1 $-1 7.2577594295774492 -107.53039248326878 10.144258788906932 -1000 0 -2.7125801604910293e-09 F -0.027000000000000007 F 0 #
DXID-attrib $-1 -1 $-1 $220 $169 @18 ASM_EDGE_FROM_STEP @5 24370 #
fmesh-eye-attrib $-1 -1 $286 $222 $170 #
fmesh-eye-attrib $-1 -1 $287 $224 $174 #
coedge $-1 -1 $-1 $227 $247 $234 $269 reversed $198 $-1 #
truecolor-adesk-attrib $-1 -1 $288 $-1 $228 -1056964608 #
straight-curve $-1 -1 $-1 8.257759429599151 -89.530392483268756 2.1442587889096938 -2.7125801604910293e-09 -2.7194588127136056e-12 1000 F 0.0080000000000000002 F 0.0090000000000000011 #
DXID-attrib $-1 -1 $-1 $229 $179 @18 ASM_EDGE_FROM_STEP @5 18169 #
point $-1 -1 $-1 8.2577594295774492 -89.53039248326877 10.144258788909692 #
edge $289 -1 $-1 $236 -0.0011180339887498956 $251 0 $234 $290 forward @7 unknown #
DXID-attrib $-1 -1 $-1 $235 $184 @18 ASM_EDGE_FROM_STEP @5 18114 #
point $-1 -1 $-1 8.2577594295747367 -89.53039248326877 11.144258788909694 #
DXID-attrib $-1 -1 $-1 $238 $128 @18 ASM_FACE_FROM_STEP @12 Assem3-10901 #
DXID-attrib $-1 -1 $-1 $240 $189 @18 ASM_EDGE_FROM_STEP @5 26247 #
point $-1 -1 $-1 7.2577594295774492 -107.53039248326878 10.144258788906932 #
DXID-attrib $-1 -1 $-1 $246 $139 @18 ASM_FACE_FROM_STEP @11 Assem3-1426 #
truecolor-adesk-attrib $-1 -1 $291 $-1 $249 -1056964608 #
vertex $-1 -1 $-1 $258 $292 #
straight-curve $-1 -1 $-1 7.2577594295774492 -89.53039248326877 10.144258788906981 2.7125801604910293e-09 2.7194588127136056e-12 -1000 F -0.0004999999999999999 F 0 #
DXID-attrib $-1 -1 $-1 $250 $203 @18 ASM_EDGE_FROM_STEP @4 3871 #
point $-1 -1 $-1 7.257759429576093 -89.53039248326877 10.64425878890698 #
truecolor-adesk-attrib $-1 -1 $293 $-1 $254 -1056964608 #
straight-curve $-1 -1 $-1 7.2577594295774492 -89.53039248326877 10.144258788906981 1000 0 2.7125801604910293e-09 F 0 F 0.0010000000000000002 #
truecolor-adesk-attrib $-1 -1 $294 $-1 $258 -1056964608 #
straight-curve $-1 -1 $-1 7.2577594295774492 -87.53039248326877 10.144258788906985 7.3767500226394149e-24 -1000 -2.7194588127136056e-12 F 0.0019999999999999953 F 0.02 #
DXID-attrib $-1 -1 $-1 $259 $212 @18 ASM_EDGE_FROM_STEP @5 10512 #
DXID-attrib $-1 -1 $-1 $262 $170 @18 ASM_FACE_FROM_STEP @12 Assem3-10831 #
DXID-attrib $-1 -1 $-1 $263 $174 @18 ASM_FACE_FROM_STEP @12 Assem3-44726 #
DXID-attrib $-1 -1 $-1 $265 $228 @18 ASM_EDGE_FROM_STEP @5 35367 #
truecolor-adesk-attrib $-1 -1 $295 $-1 $269 -1056964608 #
straight-curve $-1 -1 $-1 7.257759429576093 -89.53039248326877 10.64425878890698 -894.42719099870294 1.2161789534476985e-12 -447.21359550238424 F -0.0011180339887498956 F 0 #
DXID-attrib $-1 -1 $-1 $276 $249 @18 ASM_EDGE_FROM_STEP @5 27730 #
point $-1 -1 $-1 7.2577594295774492 -89.53039248326877 10.144258788906981 #
DXID-attrib $-1 -1 $-1 $281 $254 @18 ASM_EDGE_FROM_STEP @5 42762 #
DXID-attrib $-1 -1 $-1 $283 $258 @18 ASM_EDGE_FROM_STEP @5 42430 #
DXID-attrib $-1 -1 $-1 $289 $269 @18 ASM_EDGE_FROM_STEP @5 43918 #
