700 446 1 0         
5 ZWCAD 12 ACIS 28.0 NT 24 Sat May 11 16:35:11 2024 
1 9.9999999999999995e-07 1e-10 
body $1 -1 $-1 $2 $-1 $-1 #
DXID-attrib $-1 -1 $-1 $-1 $0 @18 ASM_BODY_FROM_STEP @83 9239E7EF324EAECDDE166D0F78E93C7DB45556B8|:|D329A978929A43CB89E00DD10C0662853A154D69 #
lump $-1 -1 $-1 $-1 $3 $0 #
shell $-1 -1 $-1 $-1 $-1 $4 $-1 $2 #
face $5 -1 $-1 $6 $7 $3 $-1 $8 forward single #
truecolor-adesk-attrib $-1 -1 $9 $-1 $4 -1040106286 #
face $10 -1 $-1 $11 $12 $3 $-1 $13 forward single #
loop $-1 -1 $-1 $-1 $14 $4 #
cone-surface $-1 -1 $-1 107.82873865684493 75.785446587591764 171.26102366233391 -0.77519880748626813 0.63171734887674869 1.6539016144558175e-16 -1.1301827432884584e-16 9.0855350944371511e-16 -4 1 I I 0 1 4 forward I I I I #
fmesh-eye-attrib $-1 -1 $15 $5 $4 #
truecolor-adesk-attrib $-1 -1 $16 $-1 $6 -1040106286 #
face $17 -1 $-1 $18 $19 $3 $-1 $20 forward single #
loop $-1 -1 $-1 $-1 $21 $6 #
cone-surface $-1 -1 $-1 107.82873865684493 75.785446587591764 171.26102366233391 -0.77519880748626813 0.63171734887674869 1.6539016144558175e-16 -1.1301827432884584e-16 9.0855350944371511e-16 -4 1 I I 0 1 4 forward I I I I #
coedge $-1 -1 $-1 $22 $23 $24 $25 forward $7 $-1 #
DXID-attrib $-1 -1 $-1 $9 $4 @18 ASM_FACE_FROM_STEP @20 Assem-esfregona-9620 #
fmesh-eye-attrib $-1 -1 $26 $10 $6 #
truecolor-adesk-attrib $-1 -1 $27 $-1 $11 -1040106286 #
face $28 -1 $-1 $29 $30 $3 $-1 $31 forward single #
loop $-1 -1 $-1 $-1 $32 $11 #
cone-surface $-1 -1 $-1 90.457508890221504 71.881554120428248 171.26102366233391 0.6317173488767488 0.77519880748626802 1.5822849810614702e-16 4.6511928449176079 -3.790304093260493 -9.9234096867349064e-16 1 I I 0 1 6.0000000000000009 forward I I I I #
coedge $-1 -1 $-1 $33 $34 $35 $36 forward $12 $-1 #
coedge $-1 -1 $-1 $37 $14 $38 $39 forward $7 $-1 #
coedge $-1 -1 $-1 $14 $40 $41 $42 reversed $7 $-1 #
coedge $-1 -1 $-1 $43 $43 $14 $25 reversed $44 $-1 #
edge $45 -1 $-1 $46 0 $47 3.1415926535897931 $14 $48 forward @7 unknown #
DXID-attrib $-1 -1 $-1 $16 $6 @18 ASM_FACE_FROM_STEP @21 Assem-esfregona-10237 #
fmesh-eye-attrib $-1 -1 $49 $17 $11 #
truecolor-adesk-attrib $-1 -1 $50 $-1 $18 -1040106286 #
face $51 -1 $-1 $52 $53 $3 $-1 $54 forward single #
loop $-1 -1 $-1 $-1 $55 $18 #
cone-surface $-1 -1 $-1 90.457508890221504 71.881554120428262 146.49900514141223 2.8254568582211461e-17 -2.2713837736092878e-16 1 -3.1007952299450725 2.5268693955069947 6.61560645782327e-16 1 I I 0 1 4 forward I I I I #
coedge $-1 -1 $-1 $56 $57 $58 $59 reversed $19 $-1 #
coedge $-1 -1 $-1 $60 $21 $61 $62 forward $12 $-1 #
coedge $-1 -1 $-1 $21 $63 $64 $65 forward $12 $-1 #
coedge $-1 -1 $-1 $66 $67 $21 $36 reversed $68 $-1 #
edge $69 -1 $-1 $70 -0.62777148553306983 $71 0 $21 $72 forward @7 unknown #
coedge $-1 -1 $-1 $40 $22 $73 $74 forward $7 $-1 #
coedge $-1 -1 $-1 $75 $76 $22 $39 reversed $77 $-1 #
edge $78 -1 $-1 $47 0 $79 0.0065278640450004196 $22 $80 forward @7 unknown #
coedge $-1 -1 $-1 $23 $37 $81 $82 forward $7 $-1 #
coedge $-1 -1 $-1 $83 $75 $23 $42 forward $77 $-1 #
edge $84 -1 $-1 $46 0 $85 0.0065278640450004196 $23 $86 forward @7 unknown #
coedge $-1 -1 $-1 $24 $24 $75 $87 reversed $44 $-1 #
loop $-1 -1 $-1 $-1 $24 $88 #
truecolor-adesk-attrib $-1 -1 $89 $-1 $25 -1040106286 #
vertex $-1 -1 $-1 $25 $90 #
vertex $-1 -1 $-1 $25 $91 #
ellipse-curve $-1 -1 $-1 107.82873865684493 75.785446587591764 171.26102366233391 -0.77519880748626813 0.63171734887674869 1.6539016144558175e-16 -1.1301827432884584e-16 9.0855350944371511e-16 -4 1 F 0 F 3.1415926535897931 #
DXID-attrib $-1 -1 $-1 $27 $11 @18 ASM_FACE_FROM_STEP @20 Assem-esfregona-6649 #
fmesh-eye-attrib $-1 -1 $92 $28 $18 #
truecolor-adesk-attrib $-1 -1 $93 $-1 $29 -1040106286 #
face $94 -1 $-1 $95 $96 $3 $-1 $97 forward single #
loop $-1 -1 $-1 $-1 $98 $29 #
cone-surface $-1 -1 $-1 90.457508890221504 71.881554120428248 196.09900514141225 -2.8254568582211461e-17 2.2713837736092878e-16 -1 3.1007952299450725 -2.5268693955069947 -6.61560645782327e-16 1 I I 0 1 4 forward I I I I #
coedge $-1 -1 $-1 $99 $100 $101 $102 forward $30 $-1 #
coedge $-1 -1 $-1 $64 $32 $66 $103 forward $19 $-1 #
coedge $-1 -1 $-1 $32 $81 $104 $105 reversed $19 $-1 #
coedge $-1 -1 $-1 $106 $107 $32 $59 forward $108 $-1 #
edge $109 -1 $-1 $110 -1.570796326794897 $111 1.5707963267948966 $32 $112 forward @7 unknown #
coedge $-1 -1 $-1 $63 $33 $113 $114 reversed $12 $-1 #
coedge $-1 -1 $-1 $115 $116 $33 $62 reversed $117 $-1 #
edge $118 -1 $-1 $71 0.015472135954999584 $119 0.022000000000000002 $33 $120 forward @7 unknown #
coedge $-1 -1 $-1 $34 $60 $121 $122 reversed $12 $-1 #
coedge $-1 -1 $-1 $123 $56 $34 $65 reversed $19 $-1 #
edge $124 -1 $-1 $125 -1.2555429710661394 $70 -0.62777148553306983 $34 $126 forward @7 unknown #
coedge $-1 -1 $-1 $127 $35 $56 $103 reversed $68 $-1 #
coedge $-1 -1 $-1 $35 $128 $115 $129 reversed $68 $-1 #
loop $-1 -1 $-1 $-1 $66 $130 #
truecolor-adesk-attrib $-1 -1 $131 $-1 $36 -1040106286 #
vertex $-1 -1 $-1 $36 $132 #
vertex $-1 -1 $-1 $36 $133 #
intcurve-curve $-1 -1 $-1 reversed { surfintcur full nubs 3 periodic 17 
	0 3 0.1578109407865193 2 0.31562188157303861 2 0.47169668355305422 2 0.62777148553306983 2 
	0.7838462875130856 2 0.93992108949310138 2 1.0977320302796203 2 1.2555429710661394 2 1.4133539118526586 2 
	1.5711648526391775 2 1.7272396546191933 2 1.883314456599209 2 2.0393892585792246 2 2.1954640605592406 2 
	2.3532750013457595 2 2.5110859421322784 3 
	95.834757315263857 85.559463294544727 175.26102366233391 
	95.502450951472497 85.15168045085808 175.26102366233391 
	95.081661113135496 84.797217560354014 175.15240121465541 
	94.216646754121712 84.243054530413602 174.7406864190396 
	93.77679177370544 84.036713055790997 174.43739120665199 
	93.052849967763976 83.733917937665154 173.7453381937778 
	92.713989478418384 83.615547155033653 173.30668395106787 
	92.248217417263589 83.460892487817134 172.3251086096366 
	92.123489534071382 83.423846288551431 171.78127300226731 
	92.123489534071382 83.423846288551431 170.74077432240054 
	92.248217417263589 83.460892487817134 170.19693871503125 
	92.713989478418384 83.615547155033653 169.21536337359998 
	93.05284996776399 83.733917937665154 168.77670913089005 
	93.77679177370544 84.036713055791012 168.08465611801586 
	94.216646754121712 84.243054530413602 167.78136090562825 
	95.081661113135496 84.797217560354014 167.36964611001244 
	95.502450951472497 85.15168045085808 167.26102366233391 
	96.167063679055204 85.967246138231388 167.26102366233391 
	96.429285944856545 86.450927347407628 167.36964611001244 
	96.79742314061086 87.41000060329317 167.78136090562825 
	96.910724744338893 87.882453727464323 168.08465611801586 
	97.061146727547566 88.652615949933192 168.77670913089005 
	97.108676078211744 89.008395424110347 169.21536337359998 
	97.166123159838847 89.495798247098449 170.19693871503125 
	97.17722832508538 89.625436748441572 170.74077432240054 
	97.17722832508538 89.625436748441572 171.78127300226731 
	97.166123159838861 89.495798247098449 172.3251086096366 
	97.108676078211744 89.008395424110347 173.30668395106787 
	97.061146727547566 88.652615949933192 173.7453381937778 
	96.910724744338893 87.882453727464323 174.43739120665202 
	96.797423140610874 87.41000060329317 174.7406864190396 
	96.429285944856545 86.450927347407614 175.15240121465541 
	96.167063679055204 85.967246138231388 175.26102366233391 
	95.834757315263857 85.559463294544727 175.26102366233391 
	0.0028859588575747557 
	cone 107.82873865684493 75.785446587591764 171.26102366233391 -0.77519880748626813 0.63171734887674869 1.6539016144558175e-16 -1.1301827432884584e-16 9.0855350944371511e-16 -4 1 I I 0 1 4 forward I I I I 
	cone 90.457508890221504 71.881554120428248 171.26102366233391 0.6317173488767488 0.77519880748626802 1.5822849810614702e-16 4.6511928449176079 -3.790304093260493 -9.9234096867349064e-16 1 I I 0 1 6.0000000000000009 forward I I I I 
	nullbs 
	nullbs 
	I I 
	0 
	0 
	0 
	} F -0.62777148553306983 F 0 #
coedge $-1 -1 $-1 $134 $104 $37 $74 reversed $68 $-1 #
edge $135 -1 $-1 $79 -2.5110859421322789 $136 -1.8833144565992088 $37 $137 forward @7 unknown #
coedge $-1 -1 $-1 $41 $38 $43 $87 forward $77 $-1 #
coedge $-1 -1 $-1 $38 $83 $134 $138 forward $77 $-1 #
loop $-1 -1 $-1 $-1 $38 $139 #
truecolor-adesk-attrib $-1 -1 $140 $-1 $39 -1040106286 #
vertex $-1 -1 $-1 $39 $141 #
straight-curve $-1 -1 $-1 107.82873865684493 75.785446587591764 175.26102366233391 -775.19880748626815 631.7173488767487 1.6539016144558174e-13 F 0 F 0.0065278640450004196 #
coedge $-1 -1 $-1 $57 $142 $40 $82 reversed $19 $-1 #
edge $143 -1 $-1 $136 -1.8833144565992088 $85 -1.2555429710661392 $40 $144 forward @7 unknown #
coedge $-1 -1 $-1 $76 $41 $142 $145 forward $77 $-1 #
truecolor-adesk-attrib $-1 -1 $146 $-1 $42 -1040106286 #
vertex $-1 -1 $-1 $82 $147 #
straight-curve $-1 -1 $-1 107.82873865684493 75.785446587591778 167.26102366233391 -775.19880748626815 631.7173488767487 1.6539016144558174e-13 F 0 F 0.0065278640450004196 #
edge $148 -1 $-1 $47 -3.1415926535897931 $46 0 $75 $149 forward @7 unknown #
face $150 -1 $-1 $-1 $44 $3 $-1 $151 reversed single #
DXID-attrib $-1 -1 $-1 $45 $25 @18 ASM_EDGE_FROM_STEP @4 4369 #
point $-1 -1 $-1 107.82873865684493 75.785446587591778 167.26102366233391 #
point $-1 -1 $-1 107.82873865684493 75.785446587591764 175.26102366233391 #
DXID-attrib $-1 -1 $-1 $50 $18 @18 ASM_FACE_FROM_STEP @21 Assem-esfregona-11398 #
fmesh-eye-attrib $-1 -1 $152 $51 $29 #
truecolor-adesk-attrib $-1 -1 $153 $-1 $52 -1040106286 #
face $154 -1 $-1 $155 $108 $3 $-1 $156 forward single #
loop $-1 -1 $-1 $-1 $157 $52 #
cone-surface $-1 -1 $-1 90.457508890221504 71.881554120428262 151.29900514141224 2.8254568582211461e-17 -2.2713837736092878e-16 1 -4.6511928449176088 3.7903040932604921 9.9234096867349044e-16 1 I I 0 1 6.0000000000000009 forward I I I I #
coedge $-1 -1 $-1 $158 $159 $160 $161 reversed $53 $-1 #
coedge $-1 -1 $-1 $162 $55 $163 $164 forward $30 $-1 #
coedge $-1 -1 $-1 $55 $162 $165 $166 reversed $30 $-1 #
coedge $-1 -1 $-1 $167 $167 $55 $102 reversed $168 $-1 #
edge $169 -1 $-1 $170 0 $171 3.1415926535897931 $55 $172 forward @7 unknown #
edge $173 -1 $-1 $110 6.1199046790979674e-20 $70 0.01 $56 $174 forward @7 unknown #
coedge $-1 -1 $-1 $73 $127 $57 $105 forward $68 $-1 #
edge $175 -1 $-1 $111 -6.1199046790979903e-20 $136 0.010000000000000002 $57 $176 forward @7 unknown #
coedge $-1 -1 $-1 $177 $58 $178 $179 reversed $108 $-1 #
coedge $-1 -1 $-1 $58 $177 $180 $181 forward $108 $-1 #
loop $-1 -1 $-1 $-1 $106 $95 #
truecolor-adesk-attrib $-1 -1 $182 $-1 $59 -1040106286 #
vertex $-1 -1 $-1 $59 $183 #
vertex $-1 -1 $-1 $59 $184 #
ellipse-curve $-1 -1 $-1 90.457508890221504 71.881554120428248 171.26102366233391 -0.44669162118393724 -0.54814833354126513 -0.70710678118654757 3.7903040932604966 4.651192844917607 -6.0000000000000009 0.70710678118654757 F -1.570796326794897 F 1.5707963267948966 #
coedge $-1 -1 $-1 $185 $185 $60 $114 forward $186 $-1 #
edge $187 -1 $-1 $188 0 $119 3.1415926535897931 $60 $189 forward @7 unknown #
coedge $-1 -1 $-1 $190 $61 $67 $129 forward $117 $-1 #
coedge $-1 -1 $-1 $61 $121 $185 $191 reversed $117 $-1 #
loop $-1 -1 $-1 $-1 $61 $192 #
truecolor-adesk-attrib $-1 -1 $193 $-1 $62 -1040106286 #
vertex $-1 -1 $-1 $62 $194 #
straight-curve $-1 -1 $-1 107.82873865684493 75.785446587591764 175.26102366233391 -775.19880748626815 631.7173488767487 1.6539016144558174e-13 F 0.015472135954999584 F 0.022000000000000002 #
coedge $-1 -1 $-1 $116 $190 $63 $122 forward $117 $-1 #
edge $195 -1 $-1 $125 0.015472135954999584 $188 0.022000000000000002 $63 $196 forward @7 unknown #
coedge $-1 -1 $-1 $197 $64 $190 $198 reversed $19 $-1 #
truecolor-adesk-attrib $-1 -1 $199 $-1 $65 -1040106286 #
vertex $-1 -1 $-1 $122 $200 #
intcurve-curve $-1 -1 $-1 reversed { surfintcur full nubs 3 periodic 17 
	0 3 0.1578109407865193 2 0.31562188157303861 2 0.47169668355305422 2 0.62777148553306983 2 
	0.7838462875130856 2 0.93992108949310138 2 1.0977320302796203 2 1.2555429710661394 2 1.4133539118526586 2 
	1.5711648526391775 2 1.7272396546191933 2 1.883314456599209 2 2.0393892585792246 2 2.1954640605592406 2 
	2.3532750013457595 2 2.5110859421322784 3 
	95.834757315263857 85.559463294544727 175.26102366233391 
	95.502450951472497 85.15168045085808 175.26102366233391 
	95.081661113135496 84.797217560354014 175.15240121465541 
	94.216646754121712 84.243054530413602 174.7406864190396 
	93.77679177370544 84.036713055790997 174.43739120665199 
	93.052849967763976 83.733917937665154 173.7453381937778 
	92.713989478418384 83.615547155033653 173.30668395106787 
	92.248217417263589 83.460892487817134 172.3251086096366 
	92.123489534071382 83.423846288551431 171.78127300226731 
	92.123489534071382 83.423846288551431 170.74077432240054 
	92.248217417263589 83.460892487817134 170.19693871503125 
	92.713989478418384 83.615547155033653 169.21536337359998 
	93.05284996776399 83.733917937665154 168.77670913089005 
	93.77679177370544 84.036713055791012 168.08465611801586 
	94.216646754121712 84.243054530413602 167.78136090562825 
	95.081661113135496 84.797217560354014 167.36964611001244 
	95.502450951472497 85.15168045085808 167.26102366233391 
	96.167063679055204 85.967246138231388 167.26102366233391 
	96.429285944856545 86.450927347407628 167.36964611001244 
	96.79742314061086 87.41000060329317 167.78136090562825 
	96.910724744338893 87.882453727464323 168.08465611801586 
	97.061146727547566 88.652615949933192 168.77670913089005 
	97.108676078211744 89.008395424110347 169.21536337359998 
	97.166123159838847 89.495798247098449 170.19693871503125 
	97.17722832508538 89.625436748441572 170.74077432240054 
	97.17722832508538 89.625436748441572 171.78127300226731 
	97.166123159838861 89.495798247098449 172.3251086096366 
	97.108676078211744 89.008395424110347 173.30668395106787 
	97.061146727547566 88.652615949933192 173.7453381937778 
	96.910724744338893 87.882453727464323 174.43739120665202 
	96.797423140610874 87.41000060329317 174.7406864190396 
	96.429285944856545 86.450927347407614 175.15240121465541 
	96.167063679055204 85.967246138231388 175.26102366233391 
	95.834757315263857 85.559463294544727 175.26102366233391 
	0.0028859588575747557 
	cone 107.82873865684493 75.785446587591764 171.26102366233391 -0.77519880748626813 0.63171734887674869 1.6539016144558175e-16 -1.1301827432884584e-16 9.0855350944371511e-16 -4 1 I I 0 1 4 forward I I I I 
	cone 90.457508890221504 71.881554120428248 171.26102366233391 0.6317173488767488 0.77519880748626802 1.5822849810614702e-16 4.6511928449176079 -3.790304093260493 -9.9234096867349064e-16 1 I I 0 1 6.0000000000000009 forward I I I I 
	nullbs 
	nullbs 
	I I 
	0 
	0 
	0 
	} F -1.2555429710661394 F -0.62777148553306983 #
coedge $-1 -1 $-1 $104 $66 $201 $202 reversed $68 $-1 #
coedge $-1 -1 $-1 $67 $203 $197 $204 reversed $68 $-1 #
edge $205 -1 $-1 $71 0 $206 0.6277714855330695 $67 $207 forward @7 unknown #
face $208 -1 $-1 $209 $68 $3 $-1 $210 forward single #
DXID-attrib $-1 -1 $-1 $69 $36 @18 ASM_EDGE_FROM_STEP @4 2736 #
point $-1 -1 $-1 92.123489534071382 83.423846288551431 171.26102366233391 #
point $-1 -1 $-1 95.834757315263857 85.559463294544727 175.26102366233391 #
coedge $-1 -1 $-1 $211 $73 $76 $138 reversed $68 $-1 #
truecolor-adesk-attrib $-1 -1 $212 $-1 $74 -1040106286 #
vertex $-1 -1 $-1 $74 $213 #
intcurve-curve $-1 -1 $-1 reversed { surfintcur full nubs 3 periodic 17 
	0 3 0.15781094078651897 2 0.31562188157303794 2 0.47169668355305383 2 0.62777148553306972 2 
	0.78384628751308538 2 0.93992108949310116 2 1.0977320302796203 2 1.2555429710661392 2 1.4133539118526581 2 
	1.5711648526391773 2 1.727239654619193 2 1.8833144565992088 2 2.0393892585792246 2 2.1954640605592401 2 
	2.3532750013457595 2 2.5110859421322789 3 
	102.76834623372812 79.909211555927286 175.26102366233391 
	103.10065259751948 80.316994399613932 175.26102366233391 
	103.52144243585647 80.671457290117999 175.15240121465541 
	104.38645679487027 81.225620320058411 174.7406864190396 
	104.82631177528654 81.431961794681001 174.43739120665199 
	105.55025358122799 81.734756912806859 173.7453381937778 
	105.88911407057358 81.85312769543836 173.30668395106787 
	106.35488613172838 82.007782362654879 172.3251086096366 
	106.4796140149206 82.044828561920582 171.78127300226731 
	106.4796140149206 82.044828561920582 170.74077432240054 
	106.35488613172839 82.007782362654879 170.19693871503125 
	105.8891140705736 81.85312769543836 169.21536337359998 
	105.55025358122799 81.734756912806859 168.77670913089005 
	104.82631177528654 81.431961794681001 168.08465611801586 
	104.38645679487026 81.225620320058411 167.78136090562825 
	103.52144243585647 80.671457290117999 167.36964611001241 
	103.10065259751948 80.316994399613932 167.26102366233391 
	102.43603986993678 79.501428712240639 167.26102366233391 
	102.17381760413544 79.017747503064399 167.36964611001241 
	101.80568040838111 78.058674247178857 167.78136090562825 
	101.69237880465309 77.586221123007689 168.08465611801586 
	101.54195682144442 76.81605890053882 168.77670913089005 
	101.49442747078024 76.460279426361666 169.21536337359998 
	101.43698038915312 75.972876603373564 170.19693871503125 
	101.4258752239066 75.84323810203044 170.74077432240054 
	101.4258752239066 75.84323810203044 171.78127300226731 
	101.43698038915312 75.972876603373564 172.3251086096366 
	101.49442747078024 76.460279426361666 173.30668395106787 
	101.54195682144442 76.81605890053882 173.7453381937778 
	101.69237880465307 77.586221123007689 174.43739120665199 
	101.80568040838111 78.058674247178843 174.7406864190396 
	102.17381760413544 79.017747503064399 175.15240121465541 
	102.43603986993678 79.501428712240624 175.26102366233391 
	102.76834623372812 79.909211555927286 175.26102366233391 
	0.0028859588575751239 
	cone 107.82873865684493 75.785446587591764 171.26102366233391 -0.77519880748626813 0.63171734887674869 1.6539016144558175e-16 -1.1301827432884584e-16 9.0855350944371511e-16 -4 1 I I 0 1 4 forward I I I I 
	cone 90.457508890221504 71.881554120428248 171.26102366233391 0.6317173488767488 0.77519880748626802 1.5822849810614702e-16 4.6511928449176079 -3.790304093260493 -9.9234096867349064e-16 1 I I 0 1 6.0000000000000009 forward I I I I 
	nullbs 
	nullbs 
	I I 
	0 
	0 
	0 
	} F -2.5110859421322789 F -1.8833144565992088 #
edge $214 -1 $-1 $215 1.8833144565992086 $79 2.5110859421322784 $134 $216 forward @7 unknown #
face $217 -1 $-1 $88 $77 $3 $-1 $218 forward single #
DXID-attrib $-1 -1 $-1 $78 $39 @18 ASM_EDGE_FROM_STEP @5 12004 #
point $-1 -1 $-1 102.76834623372812 79.909211555927286 175.26102366233391 #
coedge $-1 -1 $-1 $81 $219 $83 $145 reversed $19 $-1 #
truecolor-adesk-attrib $-1 -1 $220 $-1 $82 -1040106286 #
intcurve-curve $-1 -1 $-1 reversed { surfintcur full nubs 3 periodic 17 
	0 3 0.15781094078651897 2 0.31562188157303794 2 0.47169668355305383 2 0.62777148553306972 2 
	0.78384628751308538 2 0.93992108949310116 2 1.0977320302796203 2 1.2555429710661392 2 1.4133539118526581 2 
	1.5711648526391773 2 1.727239654619193 2 1.8833144565992088 2 2.0393892585792246 2 2.1954640605592401 2 
	2.3532750013457595 2 2.5110859421322789 3 
	102.76834623372812 79.909211555927286 175.26102366233391 
	103.10065259751948 80.316994399613932 175.26102366233391 
	103.52144243585647 80.671457290117999 175.15240121465541 
	104.38645679487027 81.225620320058411 174.7406864190396 
	104.82631177528654 81.431961794681001 174.43739120665199 
	105.55025358122799 81.734756912806859 173.7453381937778 
	105.88911407057358 81.85312769543836 173.30668395106787 
	106.35488613172838 82.007782362654879 172.3251086096366 
	106.4796140149206 82.044828561920582 171.78127300226731 
	106.4796140149206 82.044828561920582 170.74077432240054 
	106.35488613172839 82.007782362654879 170.19693871503125 
	105.8891140705736 81.85312769543836 169.21536337359998 
	105.55025358122799 81.734756912806859 168.77670913089005 
	104.82631177528654 81.431961794681001 168.08465611801586 
	104.38645679487026 81.225620320058411 167.78136090562825 
	103.52144243585647 80.671457290117999 167.36964611001241 
	103.10065259751948 80.316994399613932 167.26102366233391 
	102.43603986993678 79.501428712240639 167.26102366233391 
	102.17381760413544 79.017747503064399 167.36964611001241 
	101.80568040838111 78.058674247178857 167.78136090562825 
	101.69237880465309 77.586221123007689 168.08465611801586 
	101.54195682144442 76.81605890053882 168.77670913089005 
	101.49442747078024 76.460279426361666 169.21536337359998 
	101.43698038915312 75.972876603373564 170.19693871503125 
	101.4258752239066 75.84323810203044 170.74077432240054 
	101.4258752239066 75.84323810203044 171.78127300226731 
	101.43698038915312 75.972876603373564 172.3251086096366 
	101.49442747078024 76.460279426361666 173.30668395106787 
	101.54195682144442 76.81605890053882 173.7453381937778 
	101.69237880465307 77.586221123007689 174.43739120665199 
	101.80568040838111 78.058674247178843 174.7406864190396 
	102.17381760413544 79.017747503064399 175.15240121465541 
	102.43603986993678 79.501428712240624 175.26102366233391 
	102.76834623372812 79.909211555927286 175.26102366233391 
	0.0028859588575751239 
	cone 107.82873865684493 75.785446587591764 171.26102366233391 -0.77519880748626813 0.63171734887674869 1.6539016144558175e-16 -1.1301827432884584e-16 9.0855350944371511e-16 -4 1 I I 0 1 4 forward I I I I 
	cone 90.457508890221504 71.881554120428248 171.26102366233391 0.6317173488767488 0.77519880748626802 1.5822849810614702e-16 4.6511928449176079 -3.790304093260493 -9.9234096867349064e-16 1 I I 0 1 6.0000000000000009 forward I I I I 
	nullbs 
	nullbs 
	I I 
	0 
	0 
	0 
	} F -1.8833144565992088 F -1.2555429710661392 #
edge $221 -1 $-1 $85 1.255542971066139 $215 1.8833144565992086 $142 $222 forward @7 unknown #
DXID-attrib $-1 -1 $-1 $84 $42 @18 ASM_EDGE_FROM_STEP @5 11635 #
point $-1 -1 $-1 102.76834623372812 79.909211555927286 167.26102366233391 #
truecolor-adesk-attrib $-1 -1 $223 $-1 $87 -1040106286 #
ellipse-curve $-1 -1 $-1 107.82873865684493 75.785446587591764 171.26102366233391 -0.77519880748626813 0.63171734887674869 1.6539016144558175e-16 -1.1301827432884584e-16 9.0855350944371511e-16 -4 1 F -3.1415926535897931 F 0 #
truecolor-adesk-attrib $-1 -1 $224 $-1 $88 -1040106286 #
plane-surface $-1 -1 $-1 98.984695772570461 64.932663282784006 191.29900514141224 -0.77519880748626813 0.63171734887674869 1.6539016144558175e-16 -2.8254568582211461e-17 2.2713837736092878e-16 -1 forward_v I I I I #
DXID-attrib $-1 -1 $-1 $93 $29 @18 ASM_FACE_FROM_STEP @18 Assem-esfregona-16 #
fmesh-eye-attrib $-1 -1 $225 $94 $52 #
truecolor-adesk-attrib $-1 -1 $226 $-1 $95 -1040106286 #
face $227 -1 $-1 $228 $229 $3 $-1 $230 reversed single #
cone-surface $-1 -1 $-1 90.457508890221504 71.881554120428262 151.29900514141224 2.8254568582211461e-17 -2.2713837736092878e-16 1 -4.6511928449176088 3.7903040932604921 9.9234096867349044e-16 1 I I 0 1 6.0000000000000009 forward I I I I #
coedge $-1 -1 $-1 $178 $180 $231 $232 reversed $96 $-1 #
coedge $-1 -1 $-1 $233 $98 $234 $235 forward $53 $-1 #
coedge $-1 -1 $-1 $98 $233 $236 $237 reversed $53 $-1 #
coedge $-1 -1 $-1 $238 $238 $98 $161 forward $239 $-1 #
edge $240 -1 $-1 $241 1.2246467991473532e-16 $242 3.1415926535897931 $98 $243 forward @7 unknown #
coedge $-1 -1 $-1 $100 $99 $244 $245 forward $30 $-1 #
coedge $-1 -1 $-1 $246 $247 $99 $164 reversed $248 $-1 #
edge $249 -1 $-1 $171 0 $250 0.0047999999999999952 $99 $251 forward @7 unknown #
coedge $-1 -1 $-1 $247 $246 $100 $166 forward $248 $-1 #
edge $252 -1 $-1 $170 0 $253 0.0047999999999999952 $100 $254 forward @7 unknown #
coedge $-1 -1 $-1 $101 $101 $246 $255 reversed $168 $-1 #
loop $-1 -1 $-1 $-1 $101 $256 #
truecolor-adesk-attrib $-1 -1 $257 $-1 $102 -1040106286 #
vertex $-1 -1 $-1 $102 $258 #
vertex $-1 -1 $-1 $102 $259 #
ellipse-curve $-1 -1 $-1 90.457508890221504 71.881554120428262 146.49900514141223 2.8254568582211461e-17 -2.2713837736092878e-16 1 -3.1007952299450725 2.5268693955069947 6.61560645782327e-16 1 F 0 F 3.1415926535897931 #
truecolor-adesk-attrib $-1 -1 $260 $-1 $103 -1040106286 #
straight-curve $-1 -1 $-1 85.806316045303888 75.671858213688751 171.26102366233391 631.71734887674882 775.19880748626804 1.5822849810614703e-13 F 6.1199046790979674e-20 F 0.01 #
truecolor-adesk-attrib $-1 -1 $261 $-1 $105 -1040106286 #
straight-curve $-1 -1 $-1 95.108701735139107 68.09125002716776 171.26102366233391 631.71734887674882 775.19880748626804 1.5822849810614703e-13 F -6.1199046790979903e-20 F 0.010000000000000002 #
coedge $-1 -1 $-1 $107 $106 $262 $263 reversed $108 $-1 #
coedge $-1 -1 $-1 $264 $157 $106 $179 forward $96 $-1 #
edge $265 -1 $-1 $266 0 $111 0.019962018520921686 $178 $267 forward @7 unknown #
coedge $-1 -1 $-1 $157 $268 $107 $181 reversed $96 $-1 #
edge $269 -1 $-1 $270 0 $110 0.019962018520921686 $180 $271 forward @7 unknown #
DXID-attrib $-1 -1 $-1 $109 $59 @18 ASM_EDGE_FROM_STEP @5 13049 #
point $-1 -1 $-1 85.806316045303902 75.671858213688751 171.26102366233391 #
point $-1 -1 $-1 95.108701735139107 68.09125002716776 171.26102366233391 #
coedge $-1 -1 $-1 $113 $113 $116 $191 forward $186 $-1 #
loop $-1 -1 $-1 $-1 $113 $272 #
truecolor-adesk-attrib $-1 -1 $273 $-1 $114 -1040106286 #
vertex $-1 -1 $-1 $114 $274 #
ellipse-curve $-1 -1 $-1 90.774364892147034 89.683228262880249 171.26102366233391 -0.77519880748626813 0.63171734887674869 1.6539016144558175e-16 -1.1301827432884584e-16 9.0855350944371511e-16 -4 1 F 0 F 3.1415926535897931 #
coedge $-1 -1 $-1 $121 $115 $123 $198 forward $117 $-1 #
edge $275 -1 $-1 $119 -3.1415926535897931 $188 0 $185 $276 forward @7 unknown #
face $277 -1 $-1 $139 $117 $3 $-1 $278 forward single #
DXID-attrib $-1 -1 $-1 $118 $62 @18 ASM_EDGE_FROM_STEP @5 11451 #
point $-1 -1 $-1 90.774364892147034 89.683228262880249 175.26102366233391 #
truecolor-adesk-attrib $-1 -1 $279 $-1 $122 -1040106286 #
straight-curve $-1 -1 $-1 107.82873865684493 75.785446587591778 167.26102366233391 -775.19880748626815 631.7173488767487 1.6539016144558174e-13 F 0.015472135954999584 F 0.022000000000000002 #
coedge $-1 -1 $-1 $280 $123 $128 $204 forward $19 $-1 #
edge $281 -1 $-1 $206 0.6277714855330695 $125 1.255542971066139 $123 $282 forward @7 unknown #
DXID-attrib $-1 -1 $-1 $124 $65 @18 ASM_EDGE_FROM_STEP @4 2835 #
point $-1 -1 $-1 95.834757315263857 85.559463294544727 167.26102366233391 #
coedge $-1 -1 $-1 $283 $284 $127 $202 forward $285 $-1 #
edge $286 -1 $-1 $111 1.5707963267948968 $110 4.7123889803846906 $201 $287 forward @7 unknown #
coedge $-1 -1 $-1 $128 $211 $288 $289 reversed $68 $-1 #
edge $290 -1 $-1 $206 0.018000000000000002 $291 0.021000000000000001 $197 $292 forward @7 unknown #
truecolor-adesk-attrib $-1 -1 $293 $-1 $129 -1040106286 #
vertex $-1 -1 $-1 $198 $294 #
intcurve-curve $-1 -1 $-1 forward { surfintcur full nubs 3 periodic 17 
	0 3 0.15781094078651903 2 0.31562188157303805 2 0.47169668355305377 2 0.6277714855330695 2 
	0.78384628751308516 2 0.93992108949310094 2 1.0977320302796199 2 1.255542971066139 2 1.4133539118526581 2 
	1.571164852639177 2 1.7272396546191928 2 1.8833144565992086 2 2.0393892585792246 2 2.1954640605592401 2 
	2.3532750013457591 2 2.5110859421322784 3 
	95.834757315263857 85.559463294544727 175.26102366233391 
	96.167063679055204 85.967246138231388 175.26102366233391 
	96.429285944856545 86.450927347407614 175.15240121465541 
	96.79742314061086 87.41000060329317 174.7406864190396 
	96.910724744338893 87.882453727464323 174.43739120665199 
	97.061146727547566 88.652615949933192 173.7453381937778 
	97.108676078211744 89.008395424110347 173.30668395106787 
	97.166123159838861 89.495798247098449 172.3251086096366 
	97.17722832508538 89.625436748441572 171.78127300226731 
	97.17722832508538 89.625436748441572 170.74077432240054 
	97.166123159838847 89.495798247098449 170.19693871503125 
	97.108676078211744 89.008395424110347 169.21536337359998 
	97.061146727547566 88.652615949933192 168.77670913089005 
	96.910724744338893 87.882453727464323 168.08465611801586 
	96.79742314061086 87.41000060329317 167.78136090562825 
	96.429285944856545 86.450927347407628 167.36964611001244 
	96.167063679055204 85.967246138231388 167.26102366233391 
	95.502450951472497 85.15168045085808 167.26102366233391 
	95.081661113135496 84.797217560354014 167.36964611001244 
	94.216646754121712 84.243054530413602 167.78136090562825 
	93.77679177370544 84.036713055790997 168.08465611801586 
	93.05284996776399 83.733917937665154 168.77670913089005 
	92.713989478418384 83.615547155033653 169.21536337359998 
	92.248217417263589 83.460892487817134 170.19693871503125 
	92.123489534071382 83.423846288551431 170.74077432240054 
	92.123489534071382 83.423846288551431 171.78127300226731 
	92.248217417263589 83.460892487817134 172.3251086096366 
	92.713989478418384 83.615547155033653 173.30668395106787 
	93.05284996776399 83.733917937665154 173.7453381937778 
	93.77679177370544 84.036713055790997 174.43739120665202 
	94.216646754121712 84.243054530413602 174.7406864190396 
	95.081661113135496 84.797217560354014 175.15240121465541 
	95.502450951472497 85.15168045085808 175.26102366233391 
	95.834757315263857 85.559463294544727 175.26102366233391 
	0.0028859588575776895 
	cone 107.82873865684493 75.785446587591764 171.26102366233391 -0.77519880748626813 0.63171734887674869 1.6539016144558175e-16 -1.1301827432884584e-16 9.0855350944371511e-16 -4 1 I I 0 1 4 forward I I I I 
	cone 90.457508890221504 71.881554120428248 171.26102366233391 0.6317173488767488 0.77519880748626802 1.5822849810614702e-16 4.6511928449176079 -3.790304093260493 -9.9234096867349064e-16 1 I I 0 -1 6.0000000000000009 forward I I I I 
	nullbs 
	nullbs 
	I I 
	0 
	0 
	0 
	} F 0 F 0.6277714855330695 #
truecolor-adesk-attrib $-1 -1 $295 $-1 $130 -1040106286 #
face $296 -1 $-1 $272 $297 $3 $-1 $298 forward single #
cone-surface $-1 -1 $-1 90.457508890221504 71.881554120428248 171.26102366233391 0.6317173488767488 0.77519880748626802 1.5822849810614702e-16 4.6511928449176079 -3.790304093260493 -9.9234096867349064e-16 1 I I 0 1 6.0000000000000009 forward I I I I #
coedge $-1 -1 $-1 $203 $134 $219 $299 forward $68 $-1 #
DXID-attrib $-1 -1 $-1 $135 $74 @18 ASM_EDGE_FROM_STEP @5 12210 #
point $-1 -1 $-1 101.4258752239066 75.84323810203044 171.26102366233391 #
truecolor-adesk-attrib $-1 -1 $300 $-1 $138 -1040106286 #
vertex $-1 -1 $-1 $299 $301 #
intcurve-curve $-1 -1 $-1 forward { surfintcur full nubs 3 periodic 17 
	0 3 0.15781094078651903 2 0.31562188157303805 2 0.47169668355305377 2 0.6277714855330695 2 
	0.78384628751308516 2 0.93992108949310094 2 1.0977320302796199 2 1.255542971066139 2 1.4133539118526581 2 
	1.571164852639177 2 1.7272396546191928 2 1.8833144565992086 2 2.0393892585792246 2 2.1954640605592401 2 
	2.3532750013457591 2 2.5110859421322784 3 
	102.76834623372812 79.909211555927286 175.26102366233391 
	102.43603986993678 79.501428712240624 175.26102366233391 
	102.17381760413544 79.017747503064399 175.15240121465541 
	101.80568040838111 78.058674247178843 174.7406864190396 
	101.69237880465307 77.586221123007689 174.43739120665199 
	101.54195682144442 76.81605890053882 173.7453381937778 
	101.49442747078024 76.460279426361666 173.30668395106787 
	101.43698038915312 75.972876603373578 172.3251086096366 
	101.4258752239066 75.84323810203044 171.78127300226731 
	101.4258752239066 75.84323810203044 170.74077432240054 
	101.43698038915312 75.972876603373564 170.19693871503125 
	101.49442747078024 76.460279426361666 169.21536337359998 
	101.54195682144442 76.81605890053882 168.77670913089005 
	101.69237880465307 77.586221123007689 168.08465611801586 
	101.80568040838111 78.058674247178843 167.78136090562825 
	102.17381760413544 79.017747503064399 167.36964611001244 
	102.43603986993678 79.501428712240639 167.26102366233391 
	103.10065259751948 80.316994399613932 167.26102366233391 
	103.52144243585649 80.671457290118013 167.36964611001244 
	104.38645679487027 81.225620320058411 167.78136090562825 
	104.82631177528654 81.431961794681001 168.08465611801586 
	105.55025358122799 81.734756912806859 168.77670913089005 
	105.8891140705736 81.85312769543836 169.21536337359998 
	106.35488613172839 82.007782362654879 170.19693871503125 
	106.4796140149206 82.044828561920582 170.74077432240054 
	106.4796140149206 82.044828561920582 171.78127300226731 
	106.35488613172838 82.007782362654879 172.3251086096366 
	105.88911407057358 81.85312769543836 173.30668395106787 
	105.55025358122799 81.734756912806859 173.7453381937778 
	104.82631177528654 81.431961794681001 174.43739120665199 
	104.38645679487027 81.225620320058411 174.7406864190396 
	103.52144243585647 80.671457290117999 175.15240121465541 
	103.10065259751948 80.316994399613932 175.26102366233391 
	102.76834623372812 79.909211555927286 175.26102366233391 
	0.002885958857576879 
	cone 107.82873865684493 75.785446587591764 171.26102366233391 -0.77519880748626813 0.63171734887674869 1.6539016144558175e-16 -1.1301827432884584e-16 9.0855350944371511e-16 -4 1 I I 0 1 4 forward I I I I 
	cone 90.457508890221504 71.881554120428248 171.26102366233391 0.6317173488767488 0.77519880748626802 1.5822849810614702e-16 4.6511928449176079 -3.790304093260493 -9.9234096867349064e-16 1 I I 0 -1 6.0000000000000009 forward I I I I 
	nullbs 
	nullbs 
	I I 
	0 
	0 
	0 
	} F 1.8833144565992086 F 2.5110859421322784 #
truecolor-adesk-attrib $-1 -1 $302 $-1 $139 -1040106286 #
cone-surface $-1 -1 $-1 107.82873865684493 75.785446587591764 171.26102366233391 -0.77519880748626813 0.63171734887674869 1.6539016144558175e-16 -1.1301827432884584e-16 9.0855350944371511e-16 -4 1 I I 0 1 4 forward I I I I #
coedge $-1 -1 $-1 $142 $280 $211 $299 reversed $19 $-1 #
DXID-attrib $-1 -1 $-1 $143 $82 @18 ASM_EDGE_FROM_STEP @4 8215 #
truecolor-adesk-attrib $-1 -1 $303 $-1 $145 -1040106286 #
intcurve-curve $-1 -1 $-1 forward { surfintcur full nubs 3 periodic 17 
	0 3 0.15781094078651903 2 0.31562188157303805 2 0.47169668355305377 2 0.6277714855330695 2 
	0.78384628751308516 2 0.93992108949310094 2 1.0977320302796199 2 1.255542971066139 2 1.4133539118526581 2 
	1.571164852639177 2 1.7272396546191928 2 1.8833144565992086 2 2.0393892585792246 2 2.1954640605592401 2 
	2.3532750013457591 2 2.5110859421322784 3 
	102.76834623372812 79.909211555927286 175.26102366233391 
	102.43603986993678 79.501428712240624 175.26102366233391 
	102.17381760413544 79.017747503064399 175.15240121465541 
	101.80568040838111 78.058674247178843 174.7406864190396 
	101.69237880465307 77.586221123007689 174.43739120665199 
	101.54195682144442 76.81605890053882 173.7453381937778 
	101.49442747078024 76.460279426361666 173.30668395106787 
	101.43698038915312 75.972876603373578 172.3251086096366 
	101.4258752239066 75.84323810203044 171.78127300226731 
	101.4258752239066 75.84323810203044 170.74077432240054 
	101.43698038915312 75.972876603373564 170.19693871503125 
	101.49442747078024 76.460279426361666 169.21536337359998 
	101.54195682144442 76.81605890053882 168.77670913089005 
	101.69237880465307 77.586221123007689 168.08465611801586 
	101.80568040838111 78.058674247178843 167.78136090562825 
	102.17381760413544 79.017747503064399 167.36964611001244 
	102.43603986993678 79.501428712240639 167.26102366233391 
	103.10065259751948 80.316994399613932 167.26102366233391 
	103.52144243585649 80.671457290118013 167.36964611001244 
	104.38645679487027 81.225620320058411 167.78136090562825 
	104.82631177528654 81.431961794681001 168.08465611801586 
	105.55025358122799 81.734756912806859 168.77670913089005 
	105.8891140705736 81.85312769543836 169.21536337359998 
	106.35488613172839 82.007782362654879 170.19693871503125 
	106.4796140149206 82.044828561920582 170.74077432240054 
	106.4796140149206 82.044828561920582 171.78127300226731 
	106.35488613172838 82.007782362654879 172.3251086096366 
	105.88911407057358 81.85312769543836 173.30668395106787 
	105.55025358122799 81.734756912806859 173.7453381937778 
	104.82631177528654 81.431961794681001 174.43739120665199 
	104.38645679487027 81.225620320058411 174.7406864190396 
	103.52144243585647 80.671457290117999 175.15240121465541 
	103.10065259751948 80.316994399613932 175.26102366233391 
	102.76834623372812 79.909211555927286 175.26102366233391 
	0.002885958857576879 
	cone 107.82873865684493 75.785446587591764 171.26102366233391 -0.77519880748626813 0.63171734887674869 1.6539016144558175e-16 -1.1301827432884584e-16 9.0855350944371511e-16 -4 1 I I 0 1 4 forward I I I I 
	cone 90.457508890221504 71.881554120428248 171.26102366233391 0.6317173488767488 0.77519880748626802 1.5822849810614702e-16 4.6511928449176079 -3.790304093260493 -9.9234096867349064e-16 1 I I 0 -1 6.0000000000000009 forward I I I I 
	nullbs 
	nullbs 
	I I 
	0 
	0 
	0 
	} F 1.255542971066139 F 1.8833144565992086 #
DXID-attrib $-1 -1 $-1 $148 $87 @18 ASM_EDGE_FROM_STEP @4 2444 #
fmesh-eye-attrib $-1 -1 $304 $150 $88 #
DXID-attrib $-1 -1 $-1 $153 $52 @18 ASM_FACE_FROM_STEP @20 Assem-esfregona-7009 #
fmesh-eye-attrib $-1 -1 $305 $154 $95 #
truecolor-adesk-attrib $-1 -1 $306 $-1 $155 -1040106286 #
face $307 -1 $-1 $308 $285 $3 $-1 $309 forward single #
loop $-1 -1 $-1 $310 $311 $155 #
plane-surface $-1 -1 $-1 90.457508890221504 71.881554120428248 191.29900514141224 -2.8254568582211461e-17 2.2713837736092878e-16 -1 0.77519880748626813 -0.63171734887674869 -1.6539016144558175e-16 forward_v I I I I #
coedge $-1 -1 $-1 $262 $262 $157 $232 forward $312 $-1 #
edge $313 -1 $-1 $266 1.2246467991473535e-16 $270 3.1415926535897931 $157 $314 forward @7 unknown #
coedge $-1 -1 $-1 $159 $158 $315 $316 forward $53 $-1 #
coedge $-1 -1 $-1 $317 $318 $158 $235 reversed $319 $-1 #
edge $320 -1 $-1 $241 0 $321 0.0047999999999999996 $158 $322 forward @7 unknown #
coedge $-1 -1 $-1 $318 $317 $159 $237 forward $319 $-1 #
edge $323 -1 $-1 $242 0 $324 0.0047999999999999996 $159 $325 forward @7 unknown #
coedge $-1 -1 $-1 $160 $160 $317 $326 forward $239 $-1 #
loop $-1 -1 $-1 $-1 $238 $327 #
truecolor-adesk-attrib $-1 -1 $328 $-1 $161 -1040106286 #
vertex $-1 -1 $-1 $161 $329 #
vertex $-1 -1 $-1 $161 $330 #
ellipse-curve $-1 -1 $-1 90.457508890221504 71.881554120428248 196.09900514141225 2.8254568582211461e-17 -2.2713837736092878e-16 1 -3.1007952299450725 2.5268693955069947 6.61560645782327e-16 1 F 1.2246467991473532e-16 F 3.1415926535897931 #
coedge $-1 -1 $-1 $331 $331 $162 $245 reversed $332 $-1 #
edge $333 -1 $-1 $250 1.2246467991473532e-16 $253 3.1415926535897931 $162 $334 forward @7 unknown #
coedge $-1 -1 $-1 $165 $163 $167 $255 forward $248 $-1 #
coedge $-1 -1 $-1 $163 $165 $331 $335 forward $248 $-1 #
loop $-1 -1 $-1 $-1 $163 $336 #
truecolor-adesk-attrib $-1 -1 $337 $-1 $164 -1040106286 #
vertex $-1 -1 $-1 $164 $338 #
straight-curve $-1 -1 $-1 93.558304120166582 69.35468472492127 146.49900514141223 2.8254568582211462e-14 -2.2713837736092877e-13 1000 F 0 F 0.0047999999999999952 #
truecolor-adesk-attrib $-1 -1 $339 $-1 $166 -1040106286 #
vertex $-1 -1 $-1 $245 $340 #
straight-curve $-1 -1 $-1 87.356713660276426 74.408423515935254 146.49900514141223 2.8254568582211462e-14 -2.2713837736092877e-13 1000 F 0 F 0.0047999999999999952 #
edge $341 -1 $-1 $171 -3.1415926535897931 $170 0 $246 $342 forward @7 unknown #
face $343 -1 $-1 $130 $168 $3 $-1 $344 forward single #
DXID-attrib $-1 -1 $-1 $169 $102 @18 ASM_EDGE_FROM_STEP @5 13652 #
point $-1 -1 $-1 87.356713660276426 74.408423515935254 146.49900514141223 #
point $-1 -1 $-1 93.558304120166582 69.35468472492127 146.49900514141223 #
DXID-attrib $-1 -1 $-1 $173 $103 @18 ASM_EDGE_FROM_STEP @4 1473 #
DXID-attrib $-1 -1 $-1 $175 $105 @18 ASM_EDGE_FROM_STEP @3 262 #
coedge $-1 -1 $-1 $231 $231 $177 $263 forward $312 $-1 #
edge $345 -1 $-1 $270 -3.1415926535897931 $266 1.2246467991473535e-16 $177 $346 forward @7 unknown #
coedge $-1 -1 $-1 $347 $178 $284 $348 forward $96 $-1 #
truecolor-adesk-attrib $-1 -1 $349 $-1 $179 -1040106286 #
vertex $-1 -1 $-1 $232 $350 #
straight-curve $-1 -1 $-1 95.108701735139107 68.09125002716776 151.29900514141224 2.8254568582211462e-14 -2.2713837736092877e-13 1000 F 0 F 0.019962018520921686 #
coedge $-1 -1 $-1 $180 $347 $283 $351 reversed $96 $-1 #
truecolor-adesk-attrib $-1 -1 $352 $-1 $181 -1040106286 #
vertex $-1 -1 $-1 $232 $353 #
straight-curve $-1 -1 $-1 85.806316045303888 75.671858213688751 151.29900514141224 2.8254568582211462e-14 -2.2713837736092877e-13 1000 F 0 F 0.019962018520921686 #
face $354 -1 $-1 $192 $186 $3 $-1 $355 forward single #
DXID-attrib $-1 -1 $-1 $187 $114 @18 ASM_EDGE_FROM_STEP @4 3376 #
point $-1 -1 $-1 90.774364892147034 89.683228262880249 167.26102366233391 #
truecolor-adesk-attrib $-1 -1 $356 $-1 $191 -1040106286 #
ellipse-curve $-1 -1 $-1 90.774364892147034 89.683228262880249 171.26102366233391 -0.77519880748626813 0.63171734887674869 1.6539016144558175e-16 -1.1301827432884584e-16 9.0855350944371511e-16 -4 1 F -3.1415926535897931 F 0 #
truecolor-adesk-attrib $-1 -1 $357 $-1 $192 -1040106286 #
cone-surface $-1 -1 $-1 107.82873865684493 75.785446587591764 171.26102366233391 -0.77519880748626813 0.63171734887674869 1.6539016144558175e-16 -1.1301827432884584e-16 9.0855350944371511e-16 -4 1 I I 0 1 4 forward I I I I #
DXID-attrib $-1 -1 $-1 $195 $122 @18 ASM_EDGE_FROM_STEP @4 3408 #
coedge $-1 -1 $-1 $219 $197 $358 $359 reversed $19 $-1 #
truecolor-adesk-attrib $-1 -1 $360 $-1 $198 -1040106286 #
intcurve-curve $-1 -1 $-1 forward { surfintcur full nubs 3 periodic 17 
	0 3 0.15781094078651903 2 0.31562188157303805 2 0.47169668355305377 2 0.6277714855330695 2 
	0.78384628751308516 2 0.93992108949310094 2 1.0977320302796199 2 1.255542971066139 2 1.4133539118526581 2 
	1.571164852639177 2 1.7272396546191928 2 1.8833144565992086 2 2.0393892585792246 2 2.1954640605592401 2 
	2.3532750013457591 2 2.5110859421322784 3 
	95.834757315263857 85.559463294544727 175.26102366233391 
	96.167063679055204 85.967246138231388 175.26102366233391 
	96.429285944856545 86.450927347407614 175.15240121465541 
	96.79742314061086 87.41000060329317 174.7406864190396 
	96.910724744338893 87.882453727464323 174.43739120665199 
	97.061146727547566 88.652615949933192 173.7453381937778 
	97.108676078211744 89.008395424110347 173.30668395106787 
	97.166123159838861 89.495798247098449 172.3251086096366 
	97.17722832508538 89.625436748441572 171.78127300226731 
	97.17722832508538 89.625436748441572 170.74077432240054 
	97.166123159838847 89.495798247098449 170.19693871503125 
	97.108676078211744 89.008395424110347 169.21536337359998 
	97.061146727547566 88.652615949933192 168.77670913089005 
	96.910724744338893 87.882453727464323 168.08465611801586 
	96.79742314061086 87.41000060329317 167.78136090562825 
	96.429285944856545 86.450927347407628 167.36964611001244 
	96.167063679055204 85.967246138231388 167.26102366233391 
	95.502450951472497 85.15168045085808 167.26102366233391 
	95.081661113135496 84.797217560354014 167.36964611001244 
	94.216646754121712 84.243054530413602 167.78136090562825 
	93.77679177370544 84.036713055790997 168.08465611801586 
	93.05284996776399 83.733917937665154 168.77670913089005 
	92.713989478418384 83.615547155033653 169.21536337359998 
	92.248217417263589 83.460892487817134 170.19693871503125 
	92.123489534071382 83.423846288551431 170.74077432240054 
	92.123489534071382 83.423846288551431 171.78127300226731 
	92.248217417263589 83.460892487817134 172.3251086096366 
	92.713989478418384 83.615547155033653 173.30668395106787 
	93.05284996776399 83.733917937665154 173.7453381937778 
	93.77679177370544 84.036713055790997 174.43739120665202 
	94.216646754121712 84.243054530413602 174.7406864190396 
	95.081661113135496 84.797217560354014 175.15240121465541 
	95.502450951472497 85.15168045085808 175.26102366233391 
	95.834757315263857 85.559463294544727 175.26102366233391 
	0.0028859588575776895 
	cone 107.82873865684493 75.785446587591764 171.26102366233391 -0.77519880748626813 0.63171734887674869 1.6539016144558175e-16 -1.1301827432884584e-16 9.0855350944371511e-16 -4 1 I I 0 1 4 forward I I I I 
	cone 90.457508890221504 71.881554120428248 171.26102366233391 0.6317173488767488 0.77519880748626802 1.5822849810614702e-16 4.6511928449176079 -3.790304093260493 -9.9234096867349064e-16 1 I I 0 -1 6.0000000000000009 forward I I I I 
	nullbs 
	nullbs 
	I I 
	0 
	0 
	0 
	} F 0.6277714855330695 F 1.255542971066139 #
coedge $-1 -1 $-1 $361 $201 $268 $351 forward $285 $-1 #
coedge $-1 -1 $-1 $201 $361 $264 $348 reversed $285 $-1 #
loop $-1 -1 $-1 $-1 $284 $228 #
truecolor-adesk-attrib $-1 -1 $362 $-1 $202 -1040106286 #
ellipse-curve $-1 -1 $-1 90.457508890221504 71.881554120428248 171.26102366233391 -0.44669162118393718 -0.54814833354126524 0.70710678118654746 -3.790304093260493 -4.6511928449176008 -5.9999999999999964 0.70710678118654824 F 1.5707963267948968 F 4.7123889803846906 #
coedge $-1 -1 $-1 $358 $358 $203 $289 forward $297 $-1 #
edge $363 -1 $-1 $291 -3.1415926535897931 $364 0 $203 $365 forward @7 unknown #
truecolor-adesk-attrib $-1 -1 $366 $-1 $204 -1040106286 #
vertex $-1 -1 $-1 $204 $367 #
straight-curve $-1 -1 $-1 85.806316045303888 75.671858213688751 171.26102366233391 631.71734887674882 775.19880748626804 1.5822849810614703e-13 F 0.018000000000000002 F 0.021000000000000001 #
DXID-attrib $-1 -1 $-1 $205 $129 @18 ASM_EDGE_FROM_STEP @4 5915 #
point $-1 -1 $-1 97.17722832508538 89.625436748441572 171.26102366233391 #
fmesh-eye-attrib $-1 -1 $368 $208 $130 #
truecolor-adesk-attrib $-1 -1 $369 $-1 $209 -1040106286 #
loop $-1 -1 $-1 $-1 $358 $209 #
plane-surface $-1 -1 $-1 103.72357321663323 88.160729077639871 191.29900514141224 0.6317173488767488 0.77519880748626802 1.5822849810614702e-16 0.77519880748626802 -0.6317173488767488 -1.6539016144558177e-16 forward_v I I I I #
edge $370 -1 $-1 $215 0.018000000000000006 $364 0.021000000000000001 $219 $371 forward @7 unknown #
DXID-attrib $-1 -1 $-1 $214 $138 @18 ASM_EDGE_FROM_STEP @4 7306 #
point $-1 -1 $-1 106.4796140149206 82.044828561920582 171.26102366233391 #
fmesh-eye-attrib $-1 -1 $372 $217 $139 #
DXID-attrib $-1 -1 $-1 $221 $145 @18 ASM_EDGE_FROM_STEP @4 1189 #
DXID-attrib $-1 -1 $-1 $224 $88 @18 ASM_FACE_FROM_STEP @20 Assem-esfregona-3132 #
DXID-attrib $-1 -1 $-1 $226 $95 @18 ASM_FACE_FROM_STEP @20 Assem-esfregona-8270 #
fmesh-eye-attrib $-1 -1 $373 $227 $155 #
truecolor-adesk-attrib $-1 -1 $374 $-1 $228 -1040106286 #
face $375 -1 $-1 $376 $312 $3 $-1 $377 forward single #
cone-surface $-1 -1 $-1 90.457508890221504 71.881554120428262 151.29900514141224 2.8254568582211461e-17 -2.2713837736092878e-16 1 -4.6511928449176088 3.7903040932604921 9.9234096867349044e-16 1 I I 0 1 6.0000000000000009 forward I I I I #
loop $-1 -1 $-1 $-1 $378 $155 #
coedge $-1 -1 $-1 $379 $379 $361 $380 reversed $229 $-1 #
loop $-1 -1 $-1 $332 $262 $308 #
truecolor-adesk-attrib $-1 -1 $381 $-1 $232 -1040106286 #
ellipse-curve $-1 -1 $-1 90.457508890221504 71.881554120428262 151.29900514141224 -2.8254568582211461e-17 2.2713837736092878e-16 -1 4.6511928449176088 -3.7903040932604921 -9.9234096867349044e-16 1 F 1.2246467991473535e-16 F 3.1415926535897931 #
coedge $-1 -1 $-1 $378 $378 $233 $316 reversed $310 $-1 #
edge $382 -1 $-1 $321 -3.1415926535897931 $324 0 $233 $383 forward @7 unknown #
coedge $-1 -1 $-1 $236 $234 $238 $326 reversed $319 $-1 #
coedge $-1 -1 $-1 $234 $236 $378 $384 forward $319 $-1 #
loop $-1 -1 $-1 $-1 $234 $376 #
truecolor-adesk-attrib $-1 -1 $385 $-1 $235 -1040106286 #
vertex $-1 -1 $-1 $235 $386 #
straight-curve $-1 -1 $-1 87.356713660276426 74.40842351593524 196.09900514141225 -2.8254568582211462e-14 2.2713837736092877e-13 -1000 F 0 F 0.0047999999999999996 #
truecolor-adesk-attrib $-1 -1 $387 $-1 $237 -1040106286 #
vertex $-1 -1 $-1 $316 $388 #
straight-curve $-1 -1 $-1 93.558304120166582 69.354684724921256 196.09900514141225 -2.8254568582211462e-14 2.2713837736092877e-13 -1000 F 0 F 0.0047999999999999996 #
edge $389 -1 $-1 $242 -3.1415926535897931 $241 1.2246467991473532e-16 $317 $390 forward @7 unknown #
face $391 -1 $-1 $336 $239 $3 $-1 $392 forward single #
DXID-attrib $-1 -1 $-1 $240 $161 @18 ASM_EDGE_FROM_STEP @4 4481 #
point $-1 -1 $-1 87.356713660276426 74.40842351593524 196.09900514141225 #
point $-1 -1 $-1 93.558304120166582 69.354684724921256 196.09900514141225 #
coedge $-1 -1 $-1 $244 $244 $247 $335 reversed $332 $-1 #
loop $-1 -1 $-1 $-1 $331 $308 #
truecolor-adesk-attrib $-1 -1 $393 $-1 $245 -1040106286 #
ellipse-curve $-1 -1 $-1 90.457508890221504 71.881554120428262 151.29900514141224 -2.8254568582211461e-17 2.2713837736092878e-16 -1 3.1007952299450725 -2.5268693955069947 -6.61560645782327e-16 1 F 1.2246467991473532e-16 F 3.1415926535897931 #
edge $394 -1 $-1 $253 -3.1415926535897931 $250 1.2246467991473532e-16 $331 $395 forward @7 unknown #
face $396 -1 $-1 $256 $248 $3 $-1 $397 forward single #
DXID-attrib $-1 -1 $-1 $249 $164 @18 ASM_EDGE_FROM_STEP @5 10353 #
point $-1 -1 $-1 93.558304120166582 69.354684724921256 151.29900514141224 #
DXID-attrib $-1 -1 $-1 $252 $166 @18 ASM_EDGE_FROM_STEP @4 6319 #
point $-1 -1 $-1 87.356713660276426 74.408423515935254 151.29900514141224 #
truecolor-adesk-attrib $-1 -1 $398 $-1 $255 -1040106286 #
ellipse-curve $-1 -1 $-1 90.457508890221504 71.881554120428262 146.49900514141223 2.8254568582211461e-17 -2.2713837736092878e-16 1 -3.1007952299450725 2.5268693955069947 6.61560645782327e-16 1 F -3.1415926535897931 F 0 #
truecolor-adesk-attrib $-1 -1 $399 $-1 $256 -1040106286 #
plane-surface $-1 -1 $-1 90.457508890221504 71.881554120428262 146.49900514141223 -2.8254568582211461e-17 2.2713837736092878e-16 -1 -0.77519880748626813 0.63171734887674869 1.6539016144558175e-16 forward_v I I I I #
truecolor-adesk-attrib $-1 -1 $400 $-1 $263 -1040106286 #
ellipse-curve $-1 -1 $-1 90.457508890221504 71.881554120428262 151.29900514141224 -2.8254568582211461e-17 2.2713837736092878e-16 -1 4.6511928449176088 -3.7903040932604921 -9.9234096867349044e-16 1 F -3.1415926535897931 F 1.2246467991473535e-16 #
coedge $-1 -1 $-1 $268 $264 $379 $401 forward $96 $-1 #
edge $402 -1 $-1 $111 0.019962018520921686 $403 0.040000000000000001 $264 $404 forward @7 unknown #
DXID-attrib $-1 -1 $-1 $265 $179 @18 ASM_EDGE_FROM_STEP @3 576 #
point $-1 -1 $-1 95.108701735139107 68.09125002716776 151.29900514141224 #
edge $405 -1 $-1 $110 0.019962018520921686 $406 0.040000000000000001 $268 $407 forward @7 unknown #
DXID-attrib $-1 -1 $-1 $269 $181 @18 ASM_EDGE_FROM_STEP @5 13090 #
point $-1 -1 $-1 85.806316045303888 75.671858213688751 151.29900514141224 #
truecolor-adesk-attrib $-1 -1 $408 $-1 $272 -1040106286 #
plane-surface $-1 -1 $-1 81.930322007872562 78.830444958072476 191.29900514141224 -0.77519880748626813 0.63171734887674869 1.6539016144558175e-16 -2.8254568582211461e-17 2.2713837736092878e-16 -1 forward_v I I I I #
DXID-attrib $-1 -1 $-1 $275 $191 @18 ASM_EDGE_FROM_STEP @4 4194 #
fmesh-eye-attrib $-1 -1 $409 $277 $192 #
coedge $-1 -1 $-1 $288 $288 $280 $359 forward $297 $-1 #
edge $410 -1 $-1 $364 0 $291 3.1415926535897931 $280 $411 forward @7 unknown #
DXID-attrib $-1 -1 $-1 $281 $198 @18 ASM_EDGE_FROM_STEP @5 12676 #
coedge $-1 -1 $-1 $284 $283 $311 $380 forward $285 $-1 #
DXID-attrib $-1 -1 $-1 $286 $202 @18 ASM_EDGE_FROM_STEP @4 9933 #
truecolor-adesk-attrib $-1 -1 $412 $-1 $289 -1040106286 #
vertex $-1 -1 $-1 $359 $413 #
ellipse-curve $-1 -1 $-1 103.72357321663323 88.160729077639871 171.26102366233391 0.6317173488767488 0.77519880748626802 1.5822849810614702e-16 4.6511928449176079 -3.790304093260493 -9.9234096867349064e-16 1 F -3.1415926535897931 F 0 #
DXID-attrib $-1 -1 $-1 $290 $204 @18 ASM_EDGE_FROM_STEP @5 14351 #
point $-1 -1 $-1 99.072380371715624 91.951033170900374 171.26102366233391 #
DXID-attrib $-1 -1 $-1 $295 $130 @18 ASM_FACE_FROM_STEP @21 Assem-esfregona-10692 #
fmesh-eye-attrib $-1 -1 $414 $296 $209 #
truecolor-adesk-attrib $-1 -1 $415 $-1 $299 -1040106286 #
straight-curve $-1 -1 $-1 95.108701735139107 68.09125002716776 171.26102366233391 631.71734887674882 775.19880748626804 1.5822849810614703e-13 F 0.018000000000000006 F 0.021000000000000001 #
DXID-attrib $-1 -1 $-1 $302 $139 @18 ASM_FACE_FROM_STEP @20 Assem-esfregona-8410 #
DXID-attrib $-1 -1 $-1 $306 $155 @18 ASM_FACE_FROM_STEP @21 Assem-esfregona-11207 #
fmesh-eye-attrib $-1 -1 $416 $307 $228 #
truecolor-adesk-attrib $-1 -1 $417 $-1 $308 -1040106286 #
face $418 -1 $-1 $327 $319 $3 $-1 $419 forward single #
plane-surface $-1 -1 $-1 90.457508890221504 71.881554120428262 151.29900514141224 -2.8254568582211461e-17 2.2713837736092878e-16 -1 0.77519880748626813 -0.63171734887674869 -1.6539016144558175e-16 forward_v I I I I #
coedge $-1 -1 $-1 $315 $315 $318 $384 reversed $310 $-1 #
coedge $-1 -1 $-1 $311 $311 $347 $401 reversed $229 $-1 #
edge $420 -1 $-1 $406 -3.1415926535897931 $403 1.2246467991473535e-16 $311 $421 forward @7 unknown #
DXID-attrib $-1 -1 $-1 $313 $232 @18 ASM_EDGE_FROM_STEP @5 13260 #
truecolor-adesk-attrib $-1 -1 $422 $-1 $316 -1040106286 #
ellipse-curve $-1 -1 $-1 90.457508890221504 71.881554120428248 191.29900514141224 2.8254568582211461e-17 -2.2713837736092878e-16 1 3.1007952299450725 -2.5268693955069947 -6.61560645782327e-16 1 F -3.1415926535897931 F 0 #
edge $423 -1 $-1 $324 0 $321 3.1415926535897931 $378 $424 forward @7 unknown #
DXID-attrib $-1 -1 $-1 $320 $235 @18 ASM_EDGE_FROM_STEP @5 12138 #
point $-1 -1 $-1 87.356713660276426 74.40842351593524 191.29900514141224 #
DXID-attrib $-1 -1 $-1 $323 $237 @18 ASM_EDGE_FROM_STEP @4 9017 #
point $-1 -1 $-1 93.558304120166582 69.354684724921256 191.29900514141224 #
truecolor-adesk-attrib $-1 -1 $425 $-1 $326 -1040106286 #
ellipse-curve $-1 -1 $-1 90.457508890221504 71.881554120428248 196.09900514141225 2.8254568582211461e-17 -2.2713837736092878e-16 1 -3.1007952299450725 2.5268693955069947 6.61560645782327e-16 1 F -3.1415926535897931 F 1.2246467991473532e-16 #
truecolor-adesk-attrib $-1 -1 $426 $-1 $327 -1040106286 #
plane-surface $-1 -1 $-1 90.457508890221504 71.881554120428248 196.09900514141225 2.8254568582211461e-17 -2.2713837736092878e-16 1 -0.77519880748626813 0.63171734887674869 1.6539016144558175e-16 forward_v I I I I #
DXID-attrib $-1 -1 $-1 $333 $245 @18 ASM_EDGE_FROM_STEP @4 5384 #
truecolor-adesk-attrib $-1 -1 $427 $-1 $335 -1040106286 #
ellipse-curve $-1 -1 $-1 90.457508890221504 71.881554120428262 151.29900514141224 -2.8254568582211461e-17 2.2713837736092878e-16 -1 3.1007952299450725 -2.5268693955069947 -6.61560645782327e-16 1 F -3.1415926535897931 F 1.2246467991473532e-16 #
truecolor-adesk-attrib $-1 -1 $428 $-1 $336 -1040106286 #
cone-surface $-1 -1 $-1 90.457508890221504 71.881554120428262 146.49900514141223 2.8254568582211461e-17 -2.2713837736092878e-16 1 -3.1007952299450725 2.5268693955069947 6.61560645782327e-16 1 I I 0 1 4 forward I I I I #
DXID-attrib $-1 -1 $-1 $341 $255 @18 ASM_EDGE_FROM_STEP @4 9189 #
fmesh-eye-attrib $-1 -1 $429 $343 $256 #
DXID-attrib $-1 -1 $-1 $345 $263 @18 ASM_EDGE_FROM_STEP @5 11548 #
edge $430 -1 $-1 $403 1.2246467991473535e-16 $406 3.1415926535897931 $347 $431 forward @7 unknown #
truecolor-adesk-attrib $-1 -1 $432 $-1 $348 -1040106286 #
vertex $-1 -1 $-1 $348 $433 #
straight-curve $-1 -1 $-1 95.108701735139107 68.09125002716776 151.29900514141224 2.8254568582211462e-14 -2.2713837736092877e-13 1000 F 0.019962018520921686 F 0.040000000000000001 #
truecolor-adesk-attrib $-1 -1 $434 $-1 $351 -1040106286 #
vertex $-1 -1 $-1 $401 $435 #
straight-curve $-1 -1 $-1 85.806316045303888 75.671858213688751 151.29900514141224 2.8254568582211462e-14 -2.2713837736092877e-13 1000 F 0.019962018520921686 F 0.040000000000000001 #
fmesh-eye-attrib $-1 -1 $436 $354 $272 #
DXID-attrib $-1 -1 $-1 $357 $192 @18 ASM_FACE_FROM_STEP @20 Assem-esfregona-4746 #
truecolor-adesk-attrib $-1 -1 $437 $-1 $359 -1040106286 #
ellipse-curve $-1 -1 $-1 103.72357321663323 88.160729077639871 171.26102366233391 0.6317173488767488 0.77519880748626802 1.5822849810614702e-16 4.6511928449176079 -3.790304093260493 -9.9234096867349064e-16 1 F 0 F 3.1415926535897931 #
DXID-attrib $-1 -1 $-1 $363 $289 @18 ASM_EDGE_FROM_STEP @4 2674 #
point $-1 -1 $-1 108.37476606155084 84.370424984379383 171.26102366233391 #
DXID-attrib $-1 -1 $-1 $369 $209 @18 ASM_FACE_FROM_STEP @20 Assem-esfregona-7738 #
DXID-attrib $-1 -1 $-1 $370 $299 @18 ASM_EDGE_FROM_STEP @5 15015 #
DXID-attrib $-1 -1 $-1 $374 $228 @18 ASM_FACE_FROM_STEP @20 Assem-esfregona-2555 #
fmesh-eye-attrib $-1 -1 $438 $375 $308 #
truecolor-adesk-attrib $-1 -1 $439 $-1 $376 -1040106286 #
cone-surface $-1 -1 $-1 90.457508890221504 71.881554120428248 196.09900514141225 -2.8254568582211461e-17 2.2713837736092878e-16 -1 3.1007952299450725 -2.5268693955069947 -6.61560645782327e-16 1 I I 0 1 4 forward I I I I #
truecolor-adesk-attrib $-1 -1 $440 $-1 $380 -1040106286 #
ellipse-curve $-1 -1 $-1 90.457508890221504 71.881554120428248 191.29900514141224 -2.8254568582211461e-17 2.2713837736092878e-16 -1 4.6511928449176088 -3.7903040932604921 -9.9234096867349044e-16 1 F -3.1415926535897931 F 1.2246467991473535e-16 #
DXID-attrib $-1 -1 $-1 $382 $316 @18 ASM_EDGE_FROM_STEP @4 9949 #
truecolor-adesk-attrib $-1 -1 $441 $-1 $384 -1040106286 #
ellipse-curve $-1 -1 $-1 90.457508890221504 71.881554120428248 191.29900514141224 2.8254568582211461e-17 -2.2713837736092878e-16 1 3.1007952299450725 -2.5268693955069947 -6.61560645782327e-16 1 F 0 F 3.1415926535897931 #
DXID-attrib $-1 -1 $-1 $389 $326 @18 ASM_EDGE_FROM_STEP @4 1864 #
fmesh-eye-attrib $-1 -1 $442 $391 $327 #
DXID-attrib $-1 -1 $-1 $394 $335 @18 ASM_EDGE_FROM_STEP @4 9275 #
fmesh-eye-attrib $-1 -1 $443 $396 $336 #
DXID-attrib $-1 -1 $-1 $399 $256 @18 ASM_FACE_FROM_STEP @21 Assem-esfregona-12098 #
truecolor-adesk-attrib $-1 -1 $444 $-1 $401 -1040106286 #
ellipse-curve $-1 -1 $-1 90.457508890221504 71.881554120428248 191.29900514141224 -2.8254568582211461e-17 2.2713837736092878e-16 -1 4.6511928449176088 -3.7903040932604921 -9.9234096867349044e-16 1 F 1.2246467991473535e-16 F 3.1415926535897931 #
DXID-attrib $-1 -1 $-1 $402 $348 @18 ASM_EDGE_FROM_STEP @4 7977 #
point $-1 -1 $-1 95.108701735139107 68.09125002716776 191.29900514141224 #
DXID-attrib $-1 -1 $-1 $405 $351 @18 ASM_EDGE_FROM_STEP @5 12230 #
point $-1 -1 $-1 85.806316045303902 75.671858213688736 191.29900514141224 #
DXID-attrib $-1 -1 $-1 $408 $272 @18 ASM_FACE_FROM_STEP @20 Assem-esfregona-8247 #
DXID-attrib $-1 -1 $-1 $410 $359 @18 ASM_EDGE_FROM_STEP @4 5177 #
DXID-attrib $-1 -1 $-1 $417 $308 @18 ASM_FACE_FROM_STEP @20 Assem-esfregona-1283 #
fmesh-eye-attrib $-1 -1 $445 $418 $376 #
DXID-attrib $-1 -1 $-1 $420 $380 @18 ASM_EDGE_FROM_STEP @5 14862 #
DXID-attrib $-1 -1 $-1 $423 $384 @18 ASM_EDGE_FROM_STEP @4 4466 #
DXID-attrib $-1 -1 $-1 $426 $327 @18 ASM_FACE_FROM_STEP @20 Assem-esfregona-8549 #
DXID-attrib $-1 -1 $-1 $428 $336 @18 ASM_FACE_FROM_STEP @21 Assem-esfregona-12927 #
DXID-attrib $-1 -1 $-1 $430 $401 @18 ASM_EDGE_FROM_STEP @4 1031 #
DXID-attrib $-1 -1 $-1 $439 $376 @18 ASM_FACE_FROM_STEP @20 Assem-esfregona-3827 #
