700 416 1 0         
5 ZWCAD 12 ACIS 28.0 NT 24 Sat May 11 15:28:00 2024 
1 9.9999999999999995e-07 1e-10 
body $1 -1 $-1 $2 $-1 $-1 #
DXID-attrib $-1 -1 $-1 $-1 $0 @18 ASM_BODY_FROM_STEP @62 ASSEMBLED SHELL-736|:|B8A4396250C5687B1D31E70758B30729E1AC4426 #
lump $-1 -1 $-1 $-1 $3 $0 #
shell $-1 -1 $-1 $-1 $-1 $4 $-1 $2 #
face $5 -1 $-1 $6 $7 $3 $-1 $8 reversed single #
truecolor-adesk-attrib $-1 -1 $9 $-1 $4 -1027555136 #
face $10 -1 $-1 $11 $12 $3 $-1 $13 forward single #
loop $-1 -1 $-1 $14 $15 $4 #
cone-surface $-1 -1 $-1 -275.5654979419956 -147.71644898968214 -86.360455822319011 1.013714302656188e-15 1 2.2590594764632508e-15 2.0127385199691226 -5.466673741876672e-15 1.5167072635206302 1 I I 0 1 2.5202216713979211 forward I I I I #
DXID-attrib $-1 -1 $-1 $5 $4 @18 ASM_FACE_FROM_STEP @20 Assembled Shell-3606 #
truecolor-adesk-attrib $-1 -1 $16 $-1 $6 -1027555136 #
face $17 -1 $-1 $18 $19 $3 $-1 $20 forward single #
loop $-1 -1 $-1 $-1 $21 $6 #
plane-surface $-1 -1 $-1 -262.39685106811896 -99.342977417578396 -96.942243279384755 -0.79863551004729394 2.1691241702736441e-15 -0.60181502315204694 1.0137143026561885e-14 10.000000000000005 2.2590594764632521e-14 forward_v I I I I #
loop $-1 -1 $-1 $-1 $22 $4 #
coedge $-1 -1 $-1 $15 $15 $23 $24 reversed $7 $-1 #
DXID-attrib $-1 -1 $-1 $10 $6 @18 ASM_FACE_FROM_STEP @20 Assembled Shell-3607 #
truecolor-adesk-attrib $-1 -1 $25 $-1 $11 -1027555136 #
face $26 -1 $-1 $27 $28 $3 $-1 $29 reversed single #
loop $-1 -1 $-1 $-1 $30 $11 #
cone-surface $-1 -1 $-1 -259.5721162268257 -99.34297741757841 -96.536692670167511 1.013714302656188e-15 1 2.2590594764632508e-15 1.9965887751182358 -5.422810425684113e-15 1.5045375578801181 1 I I 0 1 2.5000000000000013 forward I I I I #
coedge $-1 -1 $-1 $31 $32 $33 $34 forward $12 $-1 #
coedge $-1 -1 $-1 $22 $22 $35 $36 reversed $14 $-1 #
coedge $-1 -1 $-1 $23 $23 $15 $24 forward $37 $-1 #
edge $38 -1 $-1 $39 -3.1415926535897931 $39 3.1415926535897931 $15 $40 forward @7 unknown #
DXID-attrib $-1 -1 $-1 $17 $11 @18 ASM_FACE_FROM_STEP @20 Assembled Shell-3608 #
truecolor-adesk-attrib $-1 -1 $41 $-1 $18 -1027555136 #
face $42 -1 $-1 $43 $44 $3 $-1 $45 forward single #
loop $-1 -1 $-1 $-1 $46 $18 #
cone-surface $-1 -1 $-1 -161.16096112772064 -99.342977417578723 -0.15045375578813491 1.013714302656188e-15 1 2.2590594764632508e-15 108.01545273389655 -2.9337404402951046e-13 81.395481881314382 1 I I 0 1 135.25000000000009 forward I I I I #
coedge $-1 -1 $-1 $47 $48 $49 $50 forward $19 $-1 #
coedge $-1 -1 $-1 $51 $21 $48 $52 reversed $12 $-1 #
coedge $-1 -1 $-1 $21 $51 $53 $54 forward $12 $-1 #
coedge $-1 -1 $-1 $55 $49 $21 $34 reversed $56 $-1 #
edge $57 -1 $-1 $58 0 $59 0.27521614925381011 $21 $60 forward @7 unknown #
coedge $-1 -1 $-1 $35 $35 $22 $36 forward $61 $-1 #
edge $62 -1 $-1 $63 -3.1415926535897931 $63 3.1415926535897931 $22 $64 forward @7 unknown #
loop $-1 -1 $-1 $-1 $23 $65 #
truecolor-adesk-attrib $-1 -1 $66 $-1 $24 -1027555136 #
vertex $-1 -1 $-1 $24 $67 #
ellipse-curve $-1 -1 $-1 -275.56549794199555 -99.34297741757841 -86.360455822318897 1.013714302656188e-15 1 2.2590594764632508e-15 2.0127385199691226 -5.466673741876672e-15 1.5167072635206302 1 I I #
DXID-attrib $-1 -1 $-1 $26 $18 @18 ASM_FACE_FROM_STEP @20 Assembled Shell-3609 #
truecolor-adesk-attrib $-1 -1 $68 $-1 $27 -1027555136 #
face $69 -1 $-1 $70 $71 $3 $-1 $72 forward single #
loop $-1 -1 $-1 $-1 $73 $27 #
cone-surface $-1 -1 $-1 -280.93915118608709 -99.342977417578453 -68.181679574097302 1.013714302656188e-15 1 2.2590594764632508e-15 1.9965887751182041 -5.4228104256840262e-15 1.5045375578800939 1 I I 0 1 2.4999999999999614 forward I I I I #
coedge $-1 -1 $-1 $74 $75 $76 $77 forward $28 $-1 #
coedge $-1 -1 $-1 $78 $30 $75 $79 reversed $19 $-1 #
coedge $-1 -1 $-1 $30 $78 $31 $52 forward $19 $-1 #
coedge $-1 -1 $-1 $33 $76 $30 $50 reversed $56 $-1 #
edge $80 -1 $-1 $59 -3.1415926535897931 $81 0.12923172854217202 $30 $82 forward @7 unknown #
coedge $-1 -1 $-1 $32 $31 $83 $84 reversed $12 $-1 #
edge $85 -1 $-1 $86 0 $59 0.14999999999999999 $31 $87 forward @7 unknown #
coedge $-1 -1 $-1 $88 $89 $32 $54 reversed $90 $-1 #
edge $91 -1 $-1 $92 0 $58 0.14999999999999999 $32 $93 forward @7 unknown #
coedge $-1 -1 $-1 $94 $33 $89 $95 reversed $56 $-1 #
loop $-1 -1 $-1 $61 $33 $96 #
truecolor-adesk-attrib $-1 -1 $97 $-1 $34 -1027555136 #
vertex $-1 -1 $-1 $34 $98 #
vertex $-1 -1 $-1 $34 $99 #
straight-curve $-1 -1 $-1 -263.22499713429397 -97.842977417578396 -95.843256330721957 6.0181502315204725 1.1940966206898067e-14 -7.9863551004729434 F 0 F 0.27521614925381011 #
loop $-1 -1 $-1 $-1 $35 $96 #
truecolor-adesk-attrib $-1 -1 $100 $-1 $36 -1027555136 #
vertex $-1 -1 $-1 $36 $101 #
ellipse-curve $-1 -1 $-1 -275.56549794199555 -97.84297741757841 -86.360455822318897 -1.013714302656188e-15 -1 -2.2590594764632508e-15 2.0127385199691226 -5.466673741876672e-15 1.5167072635206302 1 I I #
face $102 -1 $-1 $-1 $103 $3 $-1 $104 reversed single #
DXID-attrib $-1 -1 $-1 $38 $24 @18 ASM_EDGE_FROM_STEP @4 1976 #
point $-1 -1 $-1 -277.57823646196476 -99.34297741757841 -87.877163085839584 #
DXID-attrib $-1 -1 $-1 $42 $27 @18 ASM_FACE_FROM_STEP @20 Assembled Shell-3610 #
truecolor-adesk-attrib $-1 -1 $105 $-1 $43 -1027555136 #
face $106 -1 $-1 $107 $108 $3 $-1 $109 reversed single #
loop $-1 -1 $-1 $-1 $110 $43 #
plane-surface $-1 -1 $-1 -282.10759389503033 -99.342977417578439 -70.785204080640327 -0.79863551004729394 2.1691241702736441e-15 -0.60181502315204694 1.0137143026561885e-14 10.000000000000005 2.2590594764632521e-14 forward_v I I I I #
coedge $-1 -1 $-1 $111 $112 $113 $114 forward $44 $-1 #
coedge $-1 -1 $-1 $115 $46 $112 $116 reversed $28 $-1 #
coedge $-1 -1 $-1 $46 $115 $47 $79 forward $28 $-1 #
coedge $-1 -1 $-1 $49 $113 $46 $77 reversed $56 $-1 #
edge $117 -1 $-1 $81 3.0123609250476484 $118 3.2708243821319369 $46 $119 forward @7 unknown #
coedge $-1 -1 $-1 $48 $47 $120 $121 forward $19 $-1 #
edge $122 -1 $-1 $123 0 $81 0.14999999999999999 $47 $124 forward @7 unknown #
truecolor-adesk-attrib $-1 -1 $125 $-1 $50 -1027555136 #
vertex $-1 -1 $-1 $50 $126 #
ellipse-curve $-1 -1 $-1 -259.5721162268257 -97.84297741757841 -96.536692670167511 -1.013714302656188e-15 -1 -2.2590594764632508e-15 1.9965887751182358 -5.422810425684113e-15 1.5045375578801181 1 F -3.1415926535897931 F 0.12923172854217202 #
coedge $-1 -1 $-1 $120 $127 $51 $84 forward $103 $-1 #
edge $128 -1 $-1 $92 0 $86 0.27521614925381011 $51 $129 forward @7 unknown #
truecolor-adesk-attrib $-1 -1 $130 $-1 $52 -1027555136 #
vertex $-1 -1 $-1 $52 $131 #
straight-curve $-1 -1 $-1 -261.56870500194395 -99.342977417578396 -98.041230228047638 1.0137143026561885e-14 10.000000000000005 2.2590594764632521e-14 F 0 F 0.14999999999999999 #
coedge $-1 -1 $-1 $132 $53 $127 $133 reversed $90 $-1 #
coedge $-1 -1 $-1 $53 $132 $55 $95 forward $90 $-1 #
loop $-1 -1 $-1 $-1 $89 $134 #
truecolor-adesk-attrib $-1 -1 $135 $-1 $54 -1027555136 #
vertex $-1 -1 $-1 $84 $136 #
straight-curve $-1 -1 $-1 -263.22499713429397 -99.34297741757841 -95.843256330721957 1.0137143026561885e-14 10.000000000000005 2.2590594764632521e-14 F 0 F 0.14999999999999999 #
coedge $-1 -1 $-1 $137 $55 $138 $139 reversed $56 $-1 #
edge $140 -1 $-1 $141 -3.1415926535897931 $58 0 $89 $142 forward @7 unknown #
face $143 -1 $-1 $65 $56 $3 $-1 $144 forward single #
DXID-attrib $-1 -1 $-1 $57 $34 @18 ASM_EDGE_FROM_STEP @4 1978 #
point $-1 -1 $-1 -263.22499713429397 -97.842977417578396 -95.843256330721957 #
point $-1 -1 $-1 -261.56870500194395 -97.842977417578396 -98.041230228047638 #
DXID-attrib $-1 -1 $-1 $62 $36 @18 ASM_EDGE_FROM_STEP @4 1977 #
point $-1 -1 $-1 -277.57823646196476 -97.84297741757841 -87.877163085839584 #
truecolor-adesk-attrib $-1 -1 $145 $-1 $65 -1027555136 #
loop $-1 -1 $-1 $37 $127 $65 #
plane-surface $-1 -1 $-1 -277.29128380515061 -99.34297741757841 -87.660928749108976 1.013714302656188e-15 1 2.2590594764632508e-15 6.0181502315204725 1.1940966206898067e-14 -7.9863551004729434 forward_v I I I I #
DXID-attrib $-1 -1 $-1 $69 $43 @18 ASM_FACE_FROM_STEP @20 Assembled Shell-3611 #
truecolor-adesk-attrib $-1 -1 $146 $-1 $70 -1027555136 #
face $147 -1 $-1 $148 $149 $3 $-1 $150 forward single #
loop $-1 -1 $-1 $-1 $151 $70 #
cone-surface $-1 -1 $-1 -285.2815998825634 -99.342977417578425 -74.900028918502016 1.013714302656188e-15 1 2.2590594764632508e-15 4.0021520537075945 -1.0869995941319167e-14 3.0158378891985627 1 I I 0 1 5.0112372958104432 forward I I I I #
coedge $-1 -1 $-1 $152 $153 $154 $155 forward $71 $-1 #
coedge $-1 -1 $-1 $156 $73 $153 $157 reversed $44 $-1 #
coedge $-1 -1 $-1 $73 $156 $74 $116 forward $44 $-1 #
coedge $-1 -1 $-1 $76 $154 $73 $114 reversed $56 $-1 #
edge $158 -1 $-1 $118 -0.12923172854221263 $159 3.1415926535897931 $73 $160 forward @7 unknown #
coedge $-1 -1 $-1 $75 $74 $161 $162 reversed $28 $-1 #
edge $163 -1 $-1 $164 0 $118 0.14999999999999999 $74 $165 forward @7 unknown #
truecolor-adesk-attrib $-1 -1 $166 $-1 $77 -1027555136 #
vertex $-1 -1 $-1 $77 $167 #
ellipse-curve $-1 -1 $-1 -161.16096112772064 -97.842977417578723 -0.15045375578813153 1.013714302656188e-15 1 2.2590594764632508e-15 108.01545273389655 -2.9337404402951046e-13 81.395481881314382 1 F 3.0123609250476484 F 3.2708243821319369 #
coedge $-1 -1 $-1 $161 $83 $78 $121 reversed $103 $-1 #
edge $168 -1 $-1 $123 -0.12923172854217202 $86 3.1415926535897931 $78 $169 forward @7 unknown #
truecolor-adesk-attrib $-1 -1 $170 $-1 $79 -1027555136 #
vertex $-1 -1 $-1 $79 $171 #
straight-curve $-1 -1 $-1 -257.78606985479132 -99.34297741757841 -94.787396138146221 1.0137143026561885e-14 10.000000000000005 2.2590594764632521e-14 F 0 F 0.14999999999999999 #
DXID-attrib $-1 -1 $-1 $80 $50 @18 ASM_EDGE_FROM_STEP @4 1982 #
point $-1 -1 $-1 -257.78606985479132 -97.84297741757841 -94.787396138146221 #
coedge $-1 -1 $-1 $83 $172 $88 $133 forward $103 $-1 #
truecolor-adesk-attrib $-1 -1 $173 $-1 $84 -1027555136 #
straight-curve $-1 -1 $-1 -263.22499713429397 -99.34297741757841 -95.843256330721957 6.0181502315204725 1.1940966206898067e-14 -7.9863551004729434 F 0 F 0.27521614925381011 #
DXID-attrib $-1 -1 $-1 $85 $52 @18 ASM_EDGE_FROM_STEP @4 1979 #
point $-1 -1 $-1 -261.56870500194395 -99.342977417578396 -98.041230228047638 #
coedge $-1 -1 $-1 $89 $88 $174 $175 forward $90 $-1 #
edge $176 -1 $-1 $177 -3.1415926535897931 $92 0 $88 $178 forward @7 unknown #
face $179 -1 $-1 $96 $90 $3 $-1 $180 reversed single #
DXID-attrib $-1 -1 $-1 $91 $54 @18 ASM_EDGE_FROM_STEP @4 1981 #
point $-1 -1 $-1 -263.22499713429397 -99.34297741757841 -95.843256330721957 #
coedge $-1 -1 $-1 $181 $94 $182 $183 reversed $56 $-1 #
coedge $-1 -1 $-1 $174 $184 $94 $139 forward $185 $-1 #
edge $186 -1 $-1 $187 0 $141 0.35751683329563999 $138 $188 forward @7 unknown #
truecolor-adesk-attrib $-1 -1 $189 $-1 $95 -1027555136 #
vertex $-1 -1 $-1 $139 $190 #
ellipse-curve $-1 -1 $-1 -267.22714918800193 -97.842977417578396 -98.859094219920863 1.013714302656188e-15 1 2.2590594764632508e-15 4.0021520537075714 -1.0869995941319103e-14 3.0158378891985449 1 F -3.1415926535897931 F 0 #
truecolor-adesk-attrib $-1 -1 $191 $-1 $96 -1027555136 #
plane-surface $-1 -1 $-1 -277.29128380515061 -97.84297741757841 -87.660928749108976 1.013714302656188e-15 1 2.2590594764632508e-15 6.0181502315204725 1.1940966206898067e-14 -7.9863551004729434 forward_v I I I I #
DXID-attrib $-1 -1 $-1 $102 $65 @18 ASM_FACE_FROM_STEP @20 Assembled Shell-3622 #
DXID-attrib $-1 -1 $-1 $106 $70 @18 ASM_FACE_FROM_STEP @20 Assembled Shell-3612 #
truecolor-adesk-attrib $-1 -1 $192 $-1 $107 -1027555136 #
face $193 -1 $-1 $194 $195 $3 $-1 $196 forward single #
loop $-1 -1 $-1 $-1 $197 $107 #
plane-surface $-1 -1 $-1 -290.35954694280593 -99.342977417578425 -76.488238615152525 0.79863551004729394 -2.1691241702736441e-15 0.60181502315204694 -1.0137143026561885e-14 -10.000000000000005 -2.2590594764632521e-14 forward_v I I I I #
coedge $-1 -1 $-1 $198 $199 $200 $201 forward $108 $-1 #
coedge $-1 -1 $-1 $202 $110 $199 $203 reversed $71 $-1 #
coedge $-1 -1 $-1 $110 $202 $111 $157 forward $71 $-1 #
coedge $-1 -1 $-1 $113 $200 $110 $155 reversed $56 $-1 #
edge $204 -1 $-1 $159 0 $205 0.27521614925381011 $110 $206 forward @7 unknown #
coedge $-1 -1 $-1 $112 $111 $207 $208 forward $44 $-1 #
edge $209 -1 $-1 $210 0 $159 0.14999999999999999 $111 $211 forward @7 unknown #
truecolor-adesk-attrib $-1 -1 $212 $-1 $114 -1027555136 #
vertex $-1 -1 $-1 $114 $213 #
ellipse-curve $-1 -1 $-1 -280.93915118608709 -97.842977417578453 -68.181679574097302 -1.013714302656188e-15 -1 -2.2590594764632508e-15 1.9965887751182041 -5.4228104256840262e-15 1.5045375578800939 1 F -0.12923172854221263 F 3.1415926535897931 #
coedge $-1 -1 $-1 $207 $120 $115 $162 forward $103 $-1 #
edge $214 -1 $-1 $123 3.0123609250476484 $164 3.2708243821319369 $115 $215 forward @7 unknown #
truecolor-adesk-attrib $-1 -1 $216 $-1 $116 -1027555136 #
vertex $-1 -1 $-1 $116 $217 #
straight-curve $-1 -1 $-1 -278.7653183356631 -99.342977417578453 -66.946993080117352 1.0137143026561885e-14 10.000000000000005 2.2590594764632521e-14 F 0 F 0.14999999999999999 #
DXID-attrib $-1 -1 $-1 $117 $77 @18 ASM_EDGE_FROM_STEP @4 1985 #
point $-1 -1 $-1 -278.7653183356631 -97.842977417578453 -66.946993080117352 #
truecolor-adesk-attrib $-1 -1 $218 $-1 $121 -1027555136 #
ellipse-curve $-1 -1 $-1 -259.5721162268257 -99.34297741757841 -96.536692670167511 1.013714302656188e-15 1 2.2590594764632508e-15 1.9965887751182358 -5.422810425684113e-15 1.5045375578801181 1 F -0.12923172854217202 F 3.1415926535897931 #
DXID-attrib $-1 -1 $-1 $122 $79 @18 ASM_EDGE_FROM_STEP @4 1983 #
point $-1 -1 $-1 -257.78606985479132 -99.34297741757841 -94.787396138146221 #
coedge $-1 -1 $-1 $127 $219 $220 $221 forward $103 $-1 #
DXID-attrib $-1 -1 $-1 $128 $84 @18 ASM_EDGE_FROM_STEP @4 1980 #
coedge $-1 -1 $-1 $220 $138 $132 $175 reversed $185 $-1 #
edge $222 -1 $-1 $177 0 $141 0.14999999999999999 $174 $223 forward @7 unknown #
truecolor-adesk-attrib $-1 -1 $224 $-1 $133 -1027555136 #
vertex $-1 -1 $-1 $175 $225 #
ellipse-curve $-1 -1 $-1 -267.22714918800193 -99.342977417578396 -98.859094219920863 1.013714302656188e-15 1 2.2590594764632508e-15 4.0021520537075714 -1.0869995941319103e-14 3.0158378891985449 1 F -3.1415926535897931 F 0 #
truecolor-adesk-attrib $-1 -1 $226 $-1 $134 -1027555136 #
cone-surface $-1 -1 $-1 -267.22714918800193 -99.342977417578396 -98.859094219920863 1.013714302656188e-15 1 2.2590594764632508e-15 4.0021520537075714 -1.0869995941319103e-14 3.0158378891985449 1 I I 0 1 5.011237295810413 forward I I I I #
coedge $-1 -1 $-1 $227 $137 $228 $229 reversed $56 $-1 #
coedge $-1 -1 $-1 $230 $231 $137 $183 forward $232 $-1 #
edge $233 -1 $-1 $234 2.2567040427296923 $187 6.2831853071795862 $182 $235 forward @7 unknown #
coedge $-1 -1 $-1 $138 $220 $230 $236 forward $185 $-1 #
loop $-1 -1 $-1 $-1 $138 $237 #
truecolor-adesk-attrib $-1 -1 $238 $-1 $139 -1027555136 #
vertex $-1 -1 $-1 $183 $239 #
straight-curve $-1 -1 $-1 -269.07771122863858 -97.842977417578382 -104.7301884942147 -6.0181502315204725 -1.1940966206898067e-14 7.9863551004729434 F 0 F 0.35751683329563999 #
DXID-attrib $-1 -1 $-1 $140 $95 @18 ASM_EDGE_FROM_STEP @4 2018 #
point $-1 -1 $-1 -271.22930124170921 -97.842977417578382 -101.87493210911914 #
DXID-attrib $-1 -1 $-1 $143 $96 @18 ASM_FACE_FROM_STEP @20 Assembled Shell-3621 #
DXID-attrib $-1 -1 $-1 $147 $107 @18 ASM_FACE_FROM_STEP @20 Assembled Shell-3613 #
truecolor-adesk-attrib $-1 -1 $240 $-1 $148 -1027555136 #
face $241 -1 $-1 $242 $243 $3 $-1 $244 reversed single #
loop $-1 -1 $-1 $-1 $245 $148 #
cone-surface $-1 -1 $-1 -294.2305662345068 -99.34297741757841 -77.166963003636923 1.013714302656188e-15 1 2.2590594764632508e-15 2.7952242851655145 -7.5919345959577152e-15 2.1063525810321533 1 I I 0 1 3.4999999999999818 forward I I I I #
coedge $-1 -1 $-1 $246 $247 $248 $249 forward $149 $-1 #
coedge $-1 -1 $-1 $250 $151 $247 $251 reversed $108 $-1 #
coedge $-1 -1 $-1 $151 $250 $152 $203 forward $108 $-1 #
coedge $-1 -1 $-1 $154 $248 $151 $201 reversed $56 $-1 #
edge $252 -1 $-1 $205 0 $253 3.1415926535897931 $151 $254 forward @7 unknown #
coedge $-1 -1 $-1 $153 $152 $255 $256 reversed $71 $-1 #
edge $257 -1 $-1 $258 0 $205 0.14999999999999999 $152 $259 forward @7 unknown #
truecolor-adesk-attrib $-1 -1 $260 $-1 $155 -1027555136 #
vertex $-1 -1 $-1 $155 $261 #
straight-curve $-1 -1 $-1 -282.93573996120534 -97.842977417578439 -69.686217131977429 6.0181502315204725 1.1940966206898067e-14 -7.9863551004729434 F 0 F 0.27521614925381011 #
coedge $-1 -1 $-1 $255 $161 $156 $208 reversed $103 $-1 #
edge $262 -1 $-1 $210 -3.1415926535897931 $164 0.12923172854221263 $156 $263 forward @7 unknown #
truecolor-adesk-attrib $-1 -1 $264 $-1 $157 -1027555136 #
vertex $-1 -1 $-1 $157 $265 #
straight-curve $-1 -1 $-1 -282.93573996120534 -99.342977417578439 -69.686217131977429 1.0137143026561885e-14 10.000000000000005 2.2590594764632521e-14 F 0 F 0.14999999999999999 #
DXID-attrib $-1 -1 $-1 $158 $114 @18 ASM_EDGE_FROM_STEP @4 1988 #
point $-1 -1 $-1 -282.93573996120534 -97.842977417578439 -69.686217131977429 #
truecolor-adesk-attrib $-1 -1 $266 $-1 $162 -1027555136 #
ellipse-curve $-1 -1 $-1 -161.16096112772064 -99.342977417578723 -0.15045375578813491 1.013714302656188e-15 1 2.2590594764632508e-15 108.01545273389655 -2.9337404402951046e-13 81.395481881314382 1 F 3.0123609250476484 F 3.2708243821319369 #
DXID-attrib $-1 -1 $-1 $163 $116 @18 ASM_EDGE_FROM_STEP @4 1986 #
point $-1 -1 $-1 -278.7653183356631 -99.342977417578453 -66.946993080117352 #
DXID-attrib $-1 -1 $-1 $168 $121 @18 ASM_EDGE_FROM_STEP @4 1984 #
coedge $-1 -1 $-1 $172 $267 $268 $269 reversed $103 $-1 #
coedge $-1 -1 $-1 $184 $174 $172 $221 reversed $185 $-1 #
edge $270 -1 $-1 $271 0 $177 0.35751683329563999 $220 $272 forward @7 unknown #
truecolor-adesk-attrib $-1 -1 $273 $-1 $175 -1027555136 #
straight-curve $-1 -1 $-1 -271.22930124170921 -99.342977417578382 -101.87493210911914 1.0137143026561885e-14 10.000000000000005 2.2590594764632521e-14 F 0 F 0.14999999999999999 #
DXID-attrib $-1 -1 $-1 $176 $133 @18 ASM_EDGE_FROM_STEP @4 2019 #
point $-1 -1 $-1 -271.22930124170921 -99.342977417578382 -101.87493210911914 #
DXID-attrib $-1 -1 $-1 $179 $134 @18 ASM_FACE_FROM_STEP @20 Assembled Shell-3620 #
coedge $-1 -1 $-1 $274 $181 $275 $276 reversed $56 $-1 #
coedge $-1 -1 $-1 $277 $278 $181 $229 forward $279 $-1 #
edge $280 -1 $-1 $281 -0.36379059884932813 $234 0.88488861086029647 $228 $282 forward @7 unknown #
coedge $-1 -1 $-1 $268 $182 $184 $236 reversed $232 $-1 #
coedge $-1 -1 $-1 $182 $268 $277 $283 forward $232 $-1 #
loop $-1 -1 $-1 $-1 $182 $284 #
truecolor-adesk-attrib $-1 -1 $285 $-1 $183 -1027555136 #
vertex $-1 -1 $-1 $229 $286 #
ellipse-curve $-1 -1 $-1 -271.87293551380412 -97.842977417578368 -106.8365410752469 -1.013714302656188e-15 -1 -2.2590594764632508e-15 2.79522428516553 -7.5919345959577578e-15 2.1063525810321653 1 F 2.2567040427296923 F 6.2831853071795862 #
edge $287 -1 $-1 $271 0 $187 0.14999999999999999 $230 $288 forward @7 unknown #
face $289 -1 $-1 $134 $185 $3 $-1 $290 forward single #
DXID-attrib $-1 -1 $-1 $186 $139 @18 ASM_EDGE_FROM_STEP @4 2015 #
point $-1 -1 $-1 -269.07771122863858 -97.842977417578382 -104.7301884942147 #
DXID-attrib $-1 -1 $-1 $193 $148 @18 ASM_FACE_FROM_STEP @20 Assembled Shell-3614 #
truecolor-adesk-attrib $-1 -1 $291 $-1 $194 -1027555136 #
face $292 -1 $-1 $293 $294 $3 $-1 $295 forward single #
loop $-1 -1 $-1 $-1 $296 $194 #
cone-surface $-1 -1 $-1 -294.41112926466019 -99.34297741757841 -81.663338987931837 1.013714302656188e-15 1 2.2590594764632508e-15 0.79863551004730227 -2.1691241702736666e-15 0.60181502315205326 1 I I 0 1 1.0000000000000107 forward I I I I #
coedge $-1 -1 $-1 $297 $298 $299 $300 forward $195 $-1 #
coedge $-1 -1 $-1 $301 $197 $298 $302 reversed $149 $-1 #
coedge $-1 -1 $-1 $197 $301 $198 $251 forward $149 $-1 #
coedge $-1 -1 $-1 $200 $299 $197 $249 reversed $56 $-1 #
edge $303 -1 $-1 $253 0 $304 0.35751683329563999 $197 $305 forward @7 unknown #
coedge $-1 -1 $-1 $199 $198 $306 $307 reversed $108 $-1 #
edge $308 -1 $-1 $309 0 $253 0.14999999999999999 $198 $310 forward @7 unknown #
truecolor-adesk-attrib $-1 -1 $311 $-1 $201 -1027555136 #
vertex $-1 -1 $-1 $201 $312 #
ellipse-curve $-1 -1 $-1 -285.2815998825634 -97.842977417578425 -74.900028918502016 1.013714302656188e-15 1 2.2590594764632508e-15 4.0021520537075945 -1.0869995941319167e-14 3.0158378891985627 1 F 0 F 3.1415926535897931 #
coedge $-1 -1 $-1 $306 $207 $202 $256 forward $103 $-1 #
edge $313 -1 $-1 $210 0 $258 0.27521614925381011 $202 $314 forward @7 unknown #
truecolor-adesk-attrib $-1 -1 $315 $-1 $203 -1027555136 #
vertex $-1 -1 $-1 $203 $316 #
straight-curve $-1 -1 $-1 -281.27944782885538 -99.342977417578439 -71.884191029303111 1.0137143026561885e-14 10.000000000000005 2.2590594764632521e-14 F 0 F 0.14999999999999999 #
DXID-attrib $-1 -1 $-1 $204 $155 @18 ASM_EDGE_FROM_STEP @4 1991 #
point $-1 -1 $-1 -281.27944782885538 -97.842977417578439 -71.884191029303111 #
truecolor-adesk-attrib $-1 -1 $317 $-1 $208 -1027555136 #
ellipse-curve $-1 -1 $-1 -280.93915118608709 -99.342977417578453 -68.181679574097302 1.013714302656188e-15 1 2.2590594764632508e-15 1.9965887751182041 -5.4228104256840262e-15 1.5045375578800939 1 F -3.1415926535897931 F 0.12923172854221263 #
DXID-attrib $-1 -1 $-1 $209 $157 @18 ASM_EDGE_FROM_STEP @4 1989 #
point $-1 -1 $-1 -282.93573996120534 -99.342977417578439 -69.686217131977429 #
DXID-attrib $-1 -1 $-1 $214 $162 @18 ASM_EDGE_FROM_STEP @4 1987 #
coedge $-1 -1 $-1 $219 $318 $319 $320 forward $103 $-1 #
coedge $-1 -1 $-1 $231 $230 $219 $269 forward $232 $-1 #
edge $321 -1 $-1 $271 0 $322 4.0264812644498935 $268 $323 forward @7 unknown #
truecolor-adesk-attrib $-1 -1 $324 $-1 $221 -1027555136 #
vertex $-1 -1 $-1 $236 $325 #
straight-curve $-1 -1 $-1 -269.07771122863858 -99.342977417578382 -104.7301884942147 -6.0181502315204725 -1.1940966206898067e-14 7.9863551004729434 F 0 F 0.35751683329563999 #
DXID-attrib $-1 -1 $-1 $222 $175 @18 ASM_EDGE_FROM_STEP @4 2016 #
coedge $-1 -1 $-1 $299 $227 $296 $326 reversed $56 $-1 #
coedge $-1 -1 $-1 $327 $328 $227 $276 forward $294 $-1 #
edge $329 -1 $-1 $330 2.7778020547397526 $281 3.5053832524393655 $275 $331 forward @7 unknown #
coedge $-1 -1 $-1 $319 $228 $231 $283 reversed $279 $-1 #
coedge $-1 -1 $-1 $228 $319 $327 $332 forward $279 $-1 #
loop $-1 -1 $-1 $-1 $228 $293 #
truecolor-adesk-attrib $-1 -1 $333 $-1 $229 -1027555136 #
vertex $-1 -1 $-1 $276 $334 #
ellipse-curve $-1 -1 $-1 -276.244899434236 -97.842977417578368 -105.77074021277586 1.013714302656188e-15 1 2.2590594764632508e-15 0.79863551004729116 -2.1691241702736362e-15 0.60181502315204471 1 F -0.36379059884932813 F 0.88488861086029647 #
edge $335 -1 $-1 $322 0 $234 0.14999999999999999 $277 $336 forward @7 unknown #
face $337 -1 $-1 $237 $232 $3 $-1 $338 forward single #
DXID-attrib $-1 -1 $-1 $233 $183 @18 ASM_EDGE_FROM_STEP @4 2012 #
point $-1 -1 $-1 -275.27335189636244 -97.842977417578368 -106.00758484888065 #
truecolor-adesk-attrib $-1 -1 $339 $-1 $236 -1027555136 #
straight-curve $-1 -1 $-1 -269.07771122863858 -99.342977417578382 -104.7301884942147 1.0137143026561885e-14 10.000000000000005 2.2590594764632521e-14 F 0 F 0.14999999999999999 #
truecolor-adesk-attrib $-1 -1 $340 $-1 $237 -1027555136 #
plane-surface $-1 -1 $-1 -270.15350623517389 -99.342977417578382 -103.30256030166692 0.79863551004729394 -2.1691241702736441e-15 0.60181502315204694 -1.0137143026561885e-14 -10.000000000000005 -2.2590594764632521e-14 forward_v I I I I #
DXID-attrib $-1 -1 $-1 $241 $194 @18 ASM_FACE_FROM_STEP @20 Assembled Shell-3615 #
truecolor-adesk-attrib $-1 -1 $341 $-1 $242 -1027555136 #
face $342 -1 $-1 $284 $279 $3 $-1 $343 reversed single #
loop $-1 -1 $-1 $-1 $275 $242 #
cone-surface $-1 -1 $-1 -253.66912645044039 -99.342977417578467 -69.860356402318146 1.013714302656188e-15 1 2.2590594764632508e-15 33.077268632210185 -8.983910929844894e-14 24.925509744140005 1 I I 0 1 41.417227528802719 forward I I I I #
coedge $-1 -1 $-1 $344 $345 $274 $326 forward $243 $-1 #
coedge $-1 -1 $-1 $346 $245 $345 $347 reversed $195 $-1 #
coedge $-1 -1 $-1 $245 $346 $246 $302 forward $195 $-1 #
coedge $-1 -1 $-1 $248 $274 $245 $300 reversed $56 $-1 #
edge $348 -1 $-1 $304 0 $349 4.0264812644523662 $245 $350 forward @7 unknown #
coedge $-1 -1 $-1 $247 $246 $351 $352 reversed $149 $-1 #
edge $353 -1 $-1 $354 0 $304 0.14999999999999999 $246 $355 forward @7 unknown #
truecolor-adesk-attrib $-1 -1 $356 $-1 $249 -1027555136 #
vertex $-1 -1 $-1 $249 $357 #
straight-curve $-1 -1 $-1 -289.28375193627062 -97.84297741757841 -77.915866807700297 -6.0181502315204725 -1.1940966206898067e-14 7.9863551004729434 F 0 F 0.35751683329563999 #
coedge $-1 -1 $-1 $351 $255 $250 $307 forward $103 $-1 #
edge $358 -1 $-1 $258 0 $309 3.1415926535897931 $250 $359 forward @7 unknown #
truecolor-adesk-attrib $-1 -1 $360 $-1 $251 -1027555136 #
vertex $-1 -1 $-1 $251 $361 #
straight-curve $-1 -1 $-1 -289.28375193627062 -99.34297741757841 -77.915866807700297 1.0137143026561885e-14 10.000000000000005 2.2590594764632521e-14 F 0 F 0.14999999999999999 #
DXID-attrib $-1 -1 $-1 $252 $201 @18 ASM_EDGE_FROM_STEP @4 1994 #
point $-1 -1 $-1 -289.28375193627062 -97.84297741757841 -77.915866807700297 #
truecolor-adesk-attrib $-1 -1 $362 $-1 $256 -1027555136 #
straight-curve $-1 -1 $-1 -282.93573996120534 -99.342977417578439 -69.686217131977429 6.0181502315204725 1.1940966206898067e-14 -7.9863551004729434 F 0 F 0.27521614925381011 #
DXID-attrib $-1 -1 $-1 $257 $203 @18 ASM_EDGE_FROM_STEP @4 1992 #
point $-1 -1 $-1 -281.27944782885538 -99.342977417578439 -71.884191029303111 #
DXID-attrib $-1 -1 $-1 $262 $208 @18 ASM_EDGE_FROM_STEP @4 1990 #
coedge $-1 -1 $-1 $267 $363 $364 $365 reversed $103 $-1 #
coedge $-1 -1 $-1 $278 $277 $267 $320 reversed $279 $-1 #
edge $366 -1 $-1 $367 -0.36379059884932813 $322 0.88488861086029647 $319 $368 forward @7 unknown #
truecolor-adesk-attrib $-1 -1 $369 $-1 $269 -1027555136 #
vertex $-1 -1 $-1 $283 $370 #
ellipse-curve $-1 -1 $-1 -271.87293551380412 -99.342977417578368 -106.8365410752469 1.013714302656188e-15 1 2.2590594764632508e-15 2.79522428516553 -7.5919345959577578e-15 2.1063525810321653 1 F 0 F 4.0264812644498935 #
DXID-attrib $-1 -1 $-1 $270 $221 @18 ASM_EDGE_FROM_STEP @4 2017 #
point $-1 -1 $-1 -269.07771122863858 -99.342977417578382 -104.7301884942147 #
edge $371 -1 $-1 $349 -0.88488861086202497 $330 0.36379059885042575 $296 $372 forward @7 unknown #
coedge $-1 -1 $-1 $364 $275 $278 $332 reversed $294 $-1 #
coedge $-1 -1 $-1 $275 $364 $344 $373 forward $294 $-1 #
truecolor-adesk-attrib $-1 -1 $374 $-1 $276 -1027555136 #
vertex $-1 -1 $-1 $326 $375 #
ellipse-curve $-1 -1 $-1 -253.66912645044039 -97.842977417578467 -69.860356402318146 -1.013714302656188e-15 -1 -2.2590594764632508e-15 33.077268632210185 -8.983910929844894e-14 24.925509744140005 1 F 2.7778020547397526 F 3.5053832524393655 #
edge $376 -1 $-1 $367 0 $281 0.14999999999999999 $327 $377 forward @7 unknown #
DXID-attrib $-1 -1 $-1 $280 $229 @18 ASM_EDGE_FROM_STEP @4 2009 #
point $-1 -1 $-1 -275.71266820888093 -97.842977417578368 -104.92414117972754 #
truecolor-adesk-attrib $-1 -1 $378 $-1 $283 -1027555136 #
straight-curve $-1 -1 $-1 -275.27335189636244 -99.342977417578368 -106.00758484888065 1.0137143026561885e-14 10.000000000000005 2.2590594764632521e-14 F 0 F 0.14999999999999999 #
truecolor-adesk-attrib $-1 -1 $379 $-1 $284 -1027555136 #
cone-surface $-1 -1 $-1 -271.87293551380412 -99.342977417578368 -106.8365410752469 1.013714302656188e-15 1 2.2590594764632508e-15 2.79522428516553 -7.5919345959577578e-15 2.1063525810321653 1 I I 0 1 3.5000000000000018 forward I I I I #
DXID-attrib $-1 -1 $-1 $287 $236 @18 ASM_EDGE_FROM_STEP @4 2013 #
DXID-attrib $-1 -1 $-1 $289 $237 @18 ASM_FACE_FROM_STEP @20 Assembled Shell-3619 #
DXID-attrib $-1 -1 $-1 $292 $242 @18 ASM_FACE_FROM_STEP @20 Assembled Shell-3616 #
truecolor-adesk-attrib $-1 -1 $380 $-1 $293 -1027555136 #
cone-surface $-1 -1 $-1 -276.244899434236 -99.342977417578368 -105.77074021277586 1.013714302656188e-15 1 2.2590594764632508e-15 0.79863551004729116 -2.1691241702736362e-15 0.60181502315204471 1 I I 0 1 0.99999999999999656 forward I I I I #
coedge $-1 -1 $-1 $381 $296 $328 $373 reversed $243 $-1 #
coedge $-1 -1 $-1 $296 $381 $297 $347 forward $243 $-1 #
coedge $-1 -1 $-1 $298 $297 $382 $383 forward $195 $-1 #
edge $384 -1 $-1 $385 0 $349 0.14999999999999999 $297 $386 forward @7 unknown #
truecolor-adesk-attrib $-1 -1 $387 $-1 $300 -1027555136 #
vertex $-1 -1 $-1 $300 $388 #
ellipse-curve $-1 -1 $-1 -294.2305662345068 -97.84297741757841 -77.166963003636923 -1.013714302656188e-15 -1 -2.2590594764632508e-15 2.7952242851655145 -7.5919345959577152e-15 2.1063525810321533 1 F 0 F 4.0264812644523662 #
coedge $-1 -1 $-1 $382 $306 $301 $352 forward $103 $-1 #
edge $389 -1 $-1 $309 0 $354 0.35751683329563999 $301 $390 forward @7 unknown #
truecolor-adesk-attrib $-1 -1 $391 $-1 $302 -1027555136 #
vertex $-1 -1 $-1 $302 $392 #
straight-curve $-1 -1 $-1 -291.43534194934125 -99.342977417578425 -75.060610422604739 1.0137143026561885e-14 10.000000000000005 2.2590594764632521e-14 F 0 F 0.14999999999999999 #
DXID-attrib $-1 -1 $-1 $303 $249 @18 ASM_EDGE_FROM_STEP @4 1997 #
point $-1 -1 $-1 -291.43534194934125 -97.842977417578425 -75.060610422604739 #
truecolor-adesk-attrib $-1 -1 $393 $-1 $307 -1027555136 #
ellipse-curve $-1 -1 $-1 -285.2815998825634 -99.342977417578425 -74.900028918502016 1.013714302656188e-15 1 2.2590594764632508e-15 4.0021520537075945 -1.0869995941319167e-14 3.0158378891985627 1 F 0 F 3.1415926535897931 #
DXID-attrib $-1 -1 $-1 $308 $251 @18 ASM_EDGE_FROM_STEP @4 1995 #
point $-1 -1 $-1 -289.28375193627062 -99.34297741757841 -77.915866807700297 #
DXID-attrib $-1 -1 $-1 $313 $256 @18 ASM_EDGE_FROM_STEP @4 1993 #
coedge $-1 -1 $-1 $318 $382 $381 $394 forward $103 $-1 #
coedge $-1 -1 $-1 $328 $327 $318 $365 forward $294 $-1 #
edge $395 -1 $-1 $367 2.7778020547402207 $396 3.5053832524398336 $364 $397 forward @7 unknown #
truecolor-adesk-attrib $-1 -1 $398 $-1 $320 -1027555136 #
vertex $-1 -1 $-1 $332 $399 #
ellipse-curve $-1 -1 $-1 -276.244899434236 -99.342977417578368 -105.77074021277586 1.013714302656188e-15 1 2.2590594764632508e-15 0.79863551004729116 -2.1691241702736362e-15 0.60181502315204471 1 F -0.36379059884932813 F 0.88488861086029647 #
DXID-attrib $-1 -1 $-1 $321 $269 @18 ASM_EDGE_FROM_STEP @4 2014 #
point $-1 -1 $-1 -275.27335189636244 -99.342977417578368 -106.00758484888065 #
truecolor-adesk-attrib $-1 -1 $400 $-1 $326 -1027555136 #
ellipse-curve $-1 -1 $-1 -294.41112926466019 -97.842977417578396 -81.663338987931837 1.013714302656188e-15 1 2.2590594764632508e-15 0.79863551004730227 -2.1691241702736666e-15 0.60181502315205326 1 F -0.88488861086202497 F 0.36379059885042575 #
edge $401 -1 $-1 $396 0 $330 0.14999999999999999 $344 $402 forward @7 unknown #
DXID-attrib $-1 -1 $-1 $329 $276 @18 ASM_EDGE_FROM_STEP @4 2006 #
point $-1 -1 $-1 -293.45062323473263 -97.84297741757841 -81.385079816523628 #
truecolor-adesk-attrib $-1 -1 $403 $-1 $332 -1027555136 #
straight-curve $-1 -1 $-1 -275.71266820888093 -99.342977417578368 -104.92414117972754 1.0137143026561885e-14 10.000000000000005 2.2590594764632521e-14 F 0 F 0.14999999999999999 #
DXID-attrib $-1 -1 $-1 $335 $283 @18 ASM_EDGE_FROM_STEP @4 2010 #
DXID-attrib $-1 -1 $-1 $337 $284 @18 ASM_FACE_FROM_STEP @20 Assembled Shell-3618 #
DXID-attrib $-1 -1 $-1 $342 $293 @18 ASM_FACE_FROM_STEP @20 Assembled Shell-3617 #
coedge $-1 -1 $-1 $345 $344 $363 $394 reversed $243 $-1 #
coedge $-1 -1 $-1 $363 $351 $346 $383 reversed $103 $-1 #
edge $404 -1 $-1 $385 2.2567040427272196 $354 6.2831853071795862 $346 $405 forward @7 unknown #
truecolor-adesk-attrib $-1 -1 $406 $-1 $347 -1027555136 #
vertex $-1 -1 $-1 $347 $407 #
straight-curve $-1 -1 $-1 -294.37100414684789 -99.34297741757841 -80.664144324754844 1.0137143026561885e-14 10.000000000000005 2.2590594764632521e-14 F 0 F 0.14999999999999999 #
DXID-attrib $-1 -1 $-1 $348 $300 @18 ASM_EDGE_FROM_STEP @4 2000 #
point $-1 -1 $-1 -294.37100414684789 -97.84297741757841 -80.664144324754844 #
truecolor-adesk-attrib $-1 -1 $408 $-1 $352 -1027555136 #
straight-curve $-1 -1 $-1 -289.28375193627062 -99.34297741757841 -77.915866807700297 -6.0181502315204725 -1.1940966206898067e-14 7.9863551004729434 F 0 F 0.35751683329563999 #
DXID-attrib $-1 -1 $-1 $353 $302 @18 ASM_EDGE_FROM_STEP @4 1998 #
point $-1 -1 $-1 -291.43534194934125 -99.342977417578425 -75.060610422604739 #
DXID-attrib $-1 -1 $-1 $358 $307 @18 ASM_EDGE_FROM_STEP @4 1996 #
edge $409 -1 $-1 $385 -0.88488861086202497 $396 0.36379059885042575 $381 $410 forward @7 unknown #
truecolor-adesk-attrib $-1 -1 $411 $-1 $365 -1027555136 #
vertex $-1 -1 $-1 $373 $412 #
ellipse-curve $-1 -1 $-1 -253.66912645044039 -99.342977417578467 -69.860356402318146 1.013714302656188e-15 1 2.2590594764632508e-15 33.077268632210185 -8.983910929844894e-14 24.925509744140005 1 F 2.7778020547402207 F 3.5053832524398336 #
DXID-attrib $-1 -1 $-1 $366 $320 @18 ASM_EDGE_FROM_STEP @4 2011 #
point $-1 -1 $-1 -275.71266820888093 -99.342977417578368 -104.92414117972754 #
DXID-attrib $-1 -1 $-1 $371 $326 @18 ASM_EDGE_FROM_STEP @4 2003 #
truecolor-adesk-attrib $-1 -1 $413 $-1 $373 -1027555136 #
straight-curve $-1 -1 $-1 -293.45062323473263 -99.34297741757841 -81.385079816523628 1.0137143026561885e-14 10.000000000000005 2.2590594764632521e-14 F 0 F 0.14999999999999999 #
DXID-attrib $-1 -1 $-1 $376 $332 @18 ASM_EDGE_FROM_STEP @4 2007 #
truecolor-adesk-attrib $-1 -1 $414 $-1 $383 -1027555136 #
ellipse-curve $-1 -1 $-1 -294.2305662345068 -99.34297741757841 -77.166963003636923 1.013714302656188e-15 1 2.2590594764632508e-15 2.7952242851655145 -7.5919345959577152e-15 2.1063525810321533 1 F 2.2567040427272196 F 6.2831853071795862 #
DXID-attrib $-1 -1 $-1 $384 $347 @18 ASM_EDGE_FROM_STEP @4 2001 #
point $-1 -1 $-1 -294.37100414684789 -99.34297741757841 -80.664144324754844 #
DXID-attrib $-1 -1 $-1 $389 $352 @18 ASM_EDGE_FROM_STEP @4 1999 #
truecolor-adesk-attrib $-1 -1 $415 $-1 $394 -1027555136 #
ellipse-curve $-1 -1 $-1 -294.41112926466019 -99.34297741757841 -81.663338987931837 1.013714302656188e-15 1 2.2590594764632508e-15 0.79863551004730227 -2.1691241702736666e-15 0.60181502315205326 1 F -0.88488861086202497 F 0.36379059885042575 #
DXID-attrib $-1 -1 $-1 $395 $365 @18 ASM_EDGE_FROM_STEP @4 2008 #
point $-1 -1 $-1 -293.45062323473263 -99.34297741757841 -81.385079816523628 #
DXID-attrib $-1 -1 $-1 $401 $373 @18 ASM_EDGE_FROM_STEP @4 2004 #
DXID-attrib $-1 -1 $-1 $404 $383 @18 ASM_EDGE_FROM_STEP @4 2002 #
DXID-attrib $-1 -1 $-1 $409 $394 @18 ASM_EDGE_FROM_STEP @4 2005 #
