700 544 2 0         
5 ZWCAD 12 ACIS 28.0 NT 24 Mon May 13 15:04:06 2024 
1 9.9999999999999995e-07 1e-10 
body $2 -1 $-1 $3 $-1 $-1 #
body $4 -1 $-1 $5 $-1 $-1 #
DXID-attrib $-1 -1 $-1 $-1 $0 @18 ASM_BODY_FROM_STEP @83 59734B9AE0EED351D0532F91F2300324B404037E|:|0260B668D889EBDE4E6FB7CDCD265BBE0D083FF9 #
lump $-1 -1 $-1 $-1 $6 $0 #
DXID-attrib $-1 -1 $-1 $-1 $1 @18 ASM_BODY_FROM_STEP @83 B80126D6708053BE0CD9AE13251A48D36C9CB72C|:|AE1696F70ADD2F7DEA5278A2C8F2D38A85AC4850 #
lump $-1 -1 $-1 $-1 $7 $1 #
shell $-1 -1 $-1 $-1 $-1 $8 $-1 $3 #
shell $-1 -1 $-1 $-1 $-1 $9 $-1 $5 #
face $10 -1 $-1 $11 $12 $6 $-1 $13 forward single #
face $14 -1 $-1 $15 $16 $7 $-1 $17 reversed single #
truecolor-adesk-attrib $-1 -1 $18 $-1 $8 -1056964608 #
face $19 -1 $-1 $20 $21 $6 $-1 $22 forward single #
loop $-1 -1 $-1 $-1 $23 $8 #
cone-surface $-1 -1 $-1 -0.67589079418439402 69.38789324696161 9.9645009737846557 -4.89396558461965e-17 2.6199198397573582e-17 1 2.6448553899908505 -1.4158884016886168 1.6653345369377348e-16 1 I I 0.70710678118654868 0.70710678118654646 3.0000000000000004 forward I I I I #
truecolor-adesk-attrib $-1 -1 $24 $-1 $9 -1056964608 #
face $25 -1 $-1 $26 $27 $7 $-1 $28 forward single #
loop $-1 -1 $-1 $-1 $29 $9 #
cone-surface $-1 -1 $-1 -0.67589079418440412 69.387893246961539 5.1442587889662725 0 0 -1 -1.2990381056766576 0.75000000000000067 0 1 I I 0 1 1.5000000000000002 forward I I I I #
DXID-attrib $-1 -1 $-1 $10 $8 @18 ASM_FACE_FROM_STEP @12 Assem3-19759 #
truecolor-adesk-attrib $-1 -1 $30 $-1 $11 -1056964608 #
face $31 -1 $-1 $32 $33 $6 $-1 $34 forward single #
loop $-1 -1 $-1 $-1 $35 $11 #
cone-surface $-1 -1 $-1 -0.67589079418439402 69.38789324696161 10.164500973784655 4.89396558461965e-17 -2.6199198397573582e-17 -1 -2.6448553899908505 1.4158884016886168 -1.6653345369377348e-16 1 I I 0 1 3.0000000000000004 forward I I I I #
coedge $-1 -1 $-1 $36 $37 $38 $39 forward $12 $-1 #
DXID-attrib $-1 -1 $-1 $14 $9 @18 ASM_FACE_FROM_STEP @12 Assem3-25776 #
truecolor-adesk-attrib $-1 -1 $40 $-1 $15 -1056964608 #
face $41 -1 $-1 $42 $43 $7 $-1 $44 reversed single #
loop $-1 -1 $-1 $45 $46 $15 #
plane-surface $-1 -1 $-1 -0.67589079418440412 69.387893246961539 5.1442587889662725 0 0 1 0.86602540378443837 -0.50000000000000044 0 forward_v I I I I #
coedge $-1 -1 $-1 $47 $48 $49 $50 forward $16 $-1 #
DXID-attrib $-1 -1 $-1 $19 $11 @18 ASM_FACE_FROM_STEP @12 Assem3-41613 #
truecolor-adesk-attrib $-1 -1 $51 $-1 $20 -1056964608 #
face $52 -1 $-1 $53 $54 $6 $-1 $55 forward single #
loop $-1 -1 $-1 $-1 $38 $20 #
cone-surface $-1 -1 $-1 -0.67589079418439391 69.38789324696161 8.4645009737846557 4.89396558461965e-17 -2.6199198397573582e-17 -1 -1.3224276949954248 0.70794420084430831 -8.3266726846886716e-17 1 I I 0 1 1.4999999999999996 forward I I I I #
coedge $-1 -1 $-1 $56 $57 $58 $59 reversed $21 $-1 #
coedge $-1 -1 $-1 $60 $23 $61 $62 forward $12 $-1 #
coedge $-1 -1 $-1 $23 $60 $63 $64 reversed $12 $-1 #
coedge $-1 -1 $-1 $65 $66 $23 $39 reversed $33 $-1 #
edge $67 -1 $-1 $68 1.2246467991473532e-16 $69 3.1415926535897931 $23 $70 forward @7 unknown #
DXID-attrib $-1 -1 $-1 $25 $15 @18 ASM_FACE_FROM_STEP @11 Assem3-5901 #
truecolor-adesk-attrib $-1 -1 $71 $-1 $26 -1056964608 #
face $72 -1 $-1 $73 $74 $7 $-1 $75 reversed single #
loop $-1 -1 $-1 $76 $77 $26 #
plane-surface $-1 -1 $-1 -0.67589079418440412 69.387893246961539 3.3442587889662718 0 0 1 0.86602540378443837 -0.50000000000000044 0 forward_v I I I I #
loop $-1 -1 $-1 $-1 $49 $15 #
coedge $-1 -1 $-1 $78 $79 $80 $81 forward $27 $-1 #
coedge $-1 -1 $-1 $82 $29 $83 $84 forward $16 $-1 #
coedge $-1 -1 $-1 $29 $82 $85 $86 reversed $16 $-1 #
coedge $-1 -1 $-1 $87 $87 $29 $50 reversed $45 $-1 #
edge $88 -1 $-1 $89 -3.1415926535897931 $90 1.2246467991473535e-16 $29 $91 forward @7 unknown #
DXID-attrib $-1 -1 $-1 $31 $20 @18 ASM_FACE_FROM_STEP @12 Assem3-18037 #
truecolor-adesk-attrib $-1 -1 $92 $-1 $32 -1056964608 #
face $93 -1 $-1 $94 $95 $6 $-1 $96 reversed single #
loop $-1 -1 $-1 $-1 $97 $32 #
cone-surface $-1 -1 $-1 -0.67589079418439391 69.38789324696161 8.4645009737846557 4.89396558461965e-17 -2.6199198397573582e-17 -1 -1.3224276949954248 0.70794420084430831 -8.3266726846886716e-17 1 I I 0 1 1.4999999999999996 forward I I I I #
coedge $-1 -1 $-1 $98 $35 $99 $100 forward $21 $-1 #
coedge $-1 -1 $-1 $35 $98 $101 $102 reversed $21 $-1 #
coedge $-1 -1 $-1 $103 $103 $35 $59 forward $104 $-1 #
edge $105 -1 $-1 $106 1.2246467991473535e-16 $107 3.1415926535897931 $35 $108 forward @7 unknown #
coedge $-1 -1 $-1 $37 $36 $98 $109 reversed $12 $-1 #
coedge $-1 -1 $-1 $110 $111 $36 $62 reversed $112 $-1 #
edge $113 -1 $-1 $69 -0.0021213203435596429 $114 -3.181470937413193e-35 $36 $115 forward @7 unknown #
coedge $-1 -1 $-1 $111 $110 $37 $64 forward $112 $-1 #
edge $116 -1 $-1 $68 -0.0021213203435596429 $117 0 $37 $118 forward @7 unknown #
coedge $-1 -1 $-1 $119 $38 $97 $120 forward $33 $-1 #
coedge $-1 -1 $-1 $38 $119 $121 $122 reversed $33 $-1 #
truecolor-adesk-attrib $-1 -1 $123 $-1 $39 -1056964608 #
vertex $-1 -1 $-1 $39 $124 #
vertex $-1 -1 $-1 $39 $125 #
ellipse-curve $-1 -1 $-1 -0.67589079418439391 69.38789324696161 8.4645009737846557 -4.89396558461965e-17 2.6199198397573582e-17 1 1.3224276949954248 -0.70794420084430831 8.3266726846886716e-17 1 F 1.2246467991473532e-16 F 3.1415926535897931 #
DXID-attrib $-1 -1 $-1 $41 $26 @18 ASM_FACE_FROM_STEP @11 Assem3-7574 #
truecolor-adesk-attrib $-1 -1 $126 $-1 $42 -1056964608 #
face $127 -1 $-1 $128 $129 $7 $-1 $130 reversed single #
loop $-1 -1 $-1 $-1 $131 $42 #
plane-surface $-1 -1 $-1 -0.6758907941844059 66.212466766418601 5.1442587889662725 -0.49999999999999961 0.86602540378443882 0 -0.86602540378443893 -0.49999999999999972 0 forward_v I I I I #
loop $-1 -1 $-1 $-1 $132 $26 #
coedge $-1 -1 $-1 $133 $134 $131 $135 reversed $43 $-1 #
coedge $-1 -1 $-1 $136 $46 $137 $138 forward $27 $-1 #
coedge $-1 -1 $-1 $46 $139 $140 $141 forward $27 $-1 #
coedge $-1 -1 $-1 $142 $143 $46 $81 reversed $74 $-1 #
edge $144 -1 $-1 $145 0 $146 0.0031754264805429412 $46 $147 forward @7 unknown #
coedge $-1 -1 $-1 $48 $47 $132 $148 reversed $16 $-1 #
coedge $-1 -1 $-1 $149 $150 $47 $84 reversed $151 $-1 #
edge $152 -1 $-1 $90 0 $153 0.0018000000000000002 $47 $154 forward @7 unknown #
coedge $-1 -1 $-1 $150 $149 $48 $86 forward $151 $-1 #
edge $155 -1 $-1 $89 0 $156 0.0018000000000000002 $48 $157 forward @7 unknown #
coedge $-1 -1 $-1 $49 $49 $149 $158 reversed $45 $-1 #
truecolor-adesk-attrib $-1 -1 $159 $-1 $50 -1056964608 #
vertex $-1 -1 $-1 $50 $160 #
vertex $-1 -1 $-1 $50 $161 #
ellipse-curve $-1 -1 $-1 -0.67589079418440412 69.387893246961539 5.1442587889662725 0 0 1 1.2990381056766576 -0.75000000000000067 0 1 F -3.1415926535897931 F 1.2246467991473535e-16 #
DXID-attrib $-1 -1 $-1 $52 $32 @18 ASM_FACE_FROM_STEP @12 Assem3-15812 #
truecolor-adesk-attrib $-1 -1 $162 $-1 $53 -1056964608 #
face $163 -1 $-1 $164 $165 $6 $-1 $166 forward single #
loop $-1 -1 $-1 $-1 $167 $53 #
plane-surface $-1 -1 $-1 -0.67589079418439368 69.38789324696161 4.164500973784655 -4.89396558461965e-17 2.6199198397573582e-17 1 0.88161846333028349 -0.47196280056287232 5.5511151231257827e-17 forward_v I I I I #
coedge $-1 -1 $-1 $168 $169 $65 $120 reversed $54 $-1 #
coedge $-1 -1 $-1 $57 $56 $60 $109 forward $21 $-1 #
coedge $-1 -1 $-1 $170 $171 $56 $100 reversed $165 $-1 #
edge $172 -1 $-1 $106 0 $117 0.00020000000000000128 $56 $173 forward @7 unknown #
coedge $-1 -1 $-1 $171 $170 $57 $102 forward $165 $-1 #
edge $174 -1 $-1 $107 0 $114 0.00020000000000000128 $57 $175 forward @7 unknown #
coedge $-1 -1 $-1 $58 $58 $170 $176 forward $104 $-1 #
loop $-1 -1 $-1 $177 $103 $164 #
truecolor-adesk-attrib $-1 -1 $178 $-1 $59 -1056964608 #
vertex $-1 -1 $-1 $59 $179 #
vertex $-1 -1 $-1 $59 $180 #
ellipse-curve $-1 -1 $-1 -0.67589079418439402 69.38789324696161 10.164500973784655 -4.89396558461965e-17 2.6199198397573582e-17 1 2.6448553899908505 -1.4158884016886168 1.6653345369377348e-16 1 F 1.2246467991473535e-16 F 3.1415926535897931 #
edge $181 -1 $-1 $117 1.2246467991473535e-16 $114 3.1415926535897931 $60 $182 forward @7 unknown #
coedge $-1 -1 $-1 $63 $61 $168 $183 forward $112 $-1 #
coedge $-1 -1 $-1 $61 $63 $171 $184 reversed $112 $-1 #
loop $-1 -1 $-1 $-1 $61 $185 #
truecolor-adesk-attrib $-1 -1 $186 $-1 $62 -1056964608 #
vertex $-1 -1 $-1 $62 $187 #
straight-curve $-1 -1 $-1 -3.3207461841752446 70.803781648650229 9.9645009737846557 -623.39839384010793 333.72809674580174 707.10678118654641 F -0.0021213203435596429 F -3.181470937413193e-35 #
truecolor-adesk-attrib $-1 -1 $188 $-1 $64 -1056964608 #
vertex $-1 -1 $-1 $109 $189 #
straight-curve $-1 -1 $-1 1.9689645958064568 67.972004845272991 9.9645009737846557 623.39839384010793 -333.72809674580162 707.10678118654641 F -0.0021213203435596429 F 0 #
coedge $-1 -1 $-1 $66 $65 $190 $191 forward $33 $-1 #
edge $192 -1 $-1 $68 0 $193 0.0043 $65 $194 forward @7 unknown #
coedge $-1 -1 $-1 $169 $168 $66 $122 forward $54 $-1 #
edge $195 -1 $-1 $69 0 $196 0.0043 $66 $197 forward @7 unknown #
DXID-attrib $-1 -1 $-1 $67 $39 @18 ASM_EDGE_FROM_STEP @4 1233 #
point $-1 -1 $-1 0.64653690081103088 68.679949046117301 8.4645009737846557 #
point $-1 -1 $-1 -1.9983184891798187 70.09583744780592 8.4645009737846557 #
DXID-attrib $-1 -1 $-1 $72 $42 @18 ASM_FACE_FROM_STEP @11 Assem3-5905 #
truecolor-adesk-attrib $-1 -1 $198 $-1 $73 -1056964608 #
face $199 -1 $-1 $200 $201 $7 $-1 $202 reversed single #
loop $-1 -1 $-1 $-1 $203 $73 #
plane-surface $-1 -1 $-1 2.0741092058155948 67.80018000669007 5.1442587889662725 -1 5.5511151231257827e-17 0 -5.5511151231257827e-17 -1 0 forward_v I I I I #
coedge $-1 -1 $-1 $143 $142 $77 $135 forward $74 $-1 #
coedge $-1 -1 $-1 $204 $204 $82 $148 forward $76 $-1 #
coedge $-1 -1 $-1 $205 $77 $206 $207 reversed $43 $-1 #
coedge $-1 -1 $-1 $77 $208 $203 $209 reversed $43 $-1 #
edge $210 -1 $-1 $211 0 $212 0.0031754264805429412 $77 $213 forward @7 unknown #
coedge $-1 -1 $-1 $214 $78 $215 $216 forward $27 $-1 #
coedge $-1 -1 $-1 $217 $218 $78 $138 reversed $129 $-1 #
edge $219 -1 $-1 $146 0 $220 0.0031754264805429417 $78 $221 forward @7 unknown #
coedge $-1 -1 $-1 $79 $214 $222 $223 forward $27 $-1 #
coedge $-1 -1 $-1 $224 $225 $79 $141 reversed $226 $-1 #
edge $227 -1 $-1 $228 0 $145 0.0031754264805429399 $79 $229 forward @7 unknown #
coedge $-1 -1 $-1 $131 $80 $225 $230 forward $74 $-1 #
coedge $-1 -1 $-1 $80 $131 $217 $231 reversed $74 $-1 #
truecolor-adesk-attrib $-1 -1 $232 $-1 $81 -1056964608 #
vertex $-1 -1 $-1 $81 $233 #
vertex $-1 -1 $-1 $81 $234 #
straight-curve $-1 -1 $-1 -0.6758907941844059 66.212466766418601 5.1442587889662725 866.02540378443905 499.99999999999966 0 F 0 F 0.0031754264805429412 #
edge $235 -1 $-1 $156 -3.1415926535897931 $153 1.2246467991473535e-16 $82 $236 forward @7 unknown #
coedge $-1 -1 $-1 $85 $83 $87 $158 forward $151 $-1 #
coedge $-1 -1 $-1 $83 $85 $204 $237 reversed $151 $-1 #
loop $-1 -1 $-1 $-1 $83 $238 #
truecolor-adesk-attrib $-1 -1 $239 $-1 $84 -1056964608 #
vertex $-1 -1 $-1 $84 $240 #
straight-curve $-1 -1 $-1 0.62314731149225366 68.637893246961539 5.1442587889662725 0 0 -1000 F 0 F 0.0018000000000000002 #
truecolor-adesk-attrib $-1 -1 $241 $-1 $86 -1056964608 #
vertex $-1 -1 $-1 $148 $242 #
straight-curve $-1 -1 $-1 -1.9749288998610619 70.137893246961539 5.1442587889662725 0 0 -1000 F 0 F 0.0018000000000000002 #
edge $243 -1 $-1 $90 1.2246467991473535e-16 $89 3.1415926535897931 $87 $244 forward @7 unknown #
DXID-attrib $-1 -1 $-1 $88 $50 @18 ASM_EDGE_FROM_STEP @5 17160 #
point $-1 -1 $-1 -1.9749288998610619 70.137893246961539 5.1442587889662725 #
point $-1 -1 $-1 0.62314731149225366 68.637893246961539 5.1442587889662725 #
DXID-attrib $-1 -1 $-1 $93 $53 @18 ASM_FACE_FROM_STEP @12 Assem3-14720 #
truecolor-adesk-attrib $-1 -1 $245 $-1 $94 -1056964608 #
face $246 -1 $-1 $185 $104 $6 $-1 $247 forward single #
loop $-1 -1 $-1 $-1 $99 $94 #
cone-surface $-1 -1 $-1 -0.67589079418439402 69.38789324696161 10.164500973784655 4.89396558461965e-17 -2.6199198397573582e-17 -1 -2.6448553899908505 1.4158884016886168 -1.6653345369377348e-16 1 I I 0 1 3.0000000000000004 forward I I I I #
coedge $-1 -1 $-1 $190 $190 $169 $248 reversed $95 $-1 #
coedge $-1 -1 $-1 $121 $97 $110 $183 reversed $54 $-1 #
coedge $-1 -1 $-1 $97 $121 $167 $248 forward $54 $-1 #
coedge $-1 -1 $-1 $101 $99 $103 $176 reversed $165 $-1 #
coedge $-1 -1 $-1 $99 $101 $111 $184 forward $165 $-1 #
truecolor-adesk-attrib $-1 -1 $249 $-1 $100 -1056964608 #
straight-curve $-1 -1 $-1 1.9689645958064572 67.972004845272991 10.164500973784655 4.8939655846196499e-14 -2.6199198397573581e-14 -1000 F 0 F 0.00020000000000000128 #
truecolor-adesk-attrib $-1 -1 $250 $-1 $102 -1056964608 #
straight-curve $-1 -1 $-1 -3.320746184175245 70.803781648650229 10.164500973784655 4.8939655846196499e-14 -2.6199198397573581e-14 -1000 F 0 F 0.00020000000000000128 #
edge $251 -1 $-1 $107 -3.1415926535897931 $106 1.2246467991473535e-16 $170 $252 forward @7 unknown #
loop $-1 -1 $-1 $-1 $253 $164 #
DXID-attrib $-1 -1 $-1 $105 $59 @18 ASM_EDGE_FROM_STEP @5 19080 #
point $-1 -1 $-1 1.9689645958064572 67.972004845272991 10.164500973784655 #
point $-1 -1 $-1 -3.320746184175245 70.803781648650229 10.164500973784655 #
truecolor-adesk-attrib $-1 -1 $254 $-1 $109 -1056964608 #
ellipse-curve $-1 -1 $-1 -0.67589079418439402 69.38789324696161 9.9645009737846557 -4.89396558461965e-17 2.6199198397573582e-17 1 2.6448553899908505 -1.4158884016886168 1.6653345369377348e-16 1 F 1.2246467991473535e-16 F 3.1415926535897931 #
edge $255 -1 $-1 $69 -3.1415926535897931 $68 1.2246467991473532e-16 $168 $256 forward @7 unknown #
edge $257 -1 $-1 $114 -3.1415926535897931 $117 1.2246467991473535e-16 $171 $258 forward @7 unknown #
face $259 -1 $-1 $260 $112 $6 $-1 $261 forward single #
DXID-attrib $-1 -1 $-1 $113 $62 @18 ASM_EDGE_FROM_STEP @5 25028 #
point $-1 -1 $-1 -3.320746184175245 70.803781648650229 9.9645009737846557 #
DXID-attrib $-1 -1 $-1 $116 $64 @18 ASM_EDGE_FROM_STEP @5 24259 #
point $-1 -1 $-1 1.9689645958064572 67.972004845272991 9.9645009737846557 #
coedge $-1 -1 $-1 $167 $167 $119 $191 reversed $95 $-1 #
edge $262 -1 $-1 $193 1.2246467991473532e-16 $196 3.1415926535897931 $119 $263 forward @7 unknown #
truecolor-adesk-attrib $-1 -1 $264 $-1 $120 -1056964608 #
vertex $-1 -1 $-1 $120 $265 #
straight-curve $-1 -1 $-1 0.64653690081103088 68.679949046117301 8.4645009737846557 4.8939655846196499e-14 -2.6199198397573581e-14 -1000 F 0 F 0.0043 #
truecolor-adesk-attrib $-1 -1 $266 $-1 $122 -1056964608 #
vertex $-1 -1 $-1 $191 $267 #
straight-curve $-1 -1 $-1 -1.9983184891798187 70.09583744780592 8.4645009737846557 4.8939655846196499e-14 -2.6199198397573581e-14 -1000 F 0 F 0.0043 #
DXID-attrib $-1 -1 $-1 $127 $73 @18 ASM_FACE_FROM_STEP @12 Assem3-48191 #
truecolor-adesk-attrib $-1 -1 $268 $-1 $128 -1056964608 #
face $269 -1 $-1 $270 $271 $7 $-1 $272 reversed single #
loop $-1 -1 $-1 $-1 $273 $128 #
plane-surface $-1 -1 $-1 2.0741092058155948 70.975606487233009 5.1442587889662725 -0.50000000000000044 -0.86602540378443837 0 0 0 -1 forward_v I I I I #
coedge $-1 -1 $-1 $218 $217 $134 $209 forward $129 $-1 #
coedge $-1 -1 $-1 $132 $132 $150 $237 forward $76 $-1 #
coedge $-1 -1 $-1 $274 $133 $275 $276 reversed $43 $-1 #
coedge $-1 -1 $-1 $225 $224 $133 $207 forward $226 $-1 #
edge $277 -1 $-1 $278 0 $211 0.0031754264805429399 $133 $279 forward @7 unknown #
coedge $-1 -1 $-1 $134 $274 $273 $280 reversed $43 $-1 #
edge $281 -1 $-1 $212 0 $282 0.0031754264805429417 $134 $283 forward @7 unknown #
truecolor-adesk-attrib $-1 -1 $284 $-1 $135 -1056964608 #
vertex $-1 -1 $-1 $135 $285 #
vertex $-1 -1 $-1 $135 $286 #
straight-curve $-1 -1 $-1 -0.6758907941844059 66.212466766418601 3.3442587889662718 866.02540378443905 499.99999999999966 0 F 0 F 0.0031754264805429412 #
coedge $-1 -1 $-1 $139 $136 $287 $288 forward $27 $-1 #
coedge $-1 -1 $-1 $289 $290 $136 $216 reversed $201 $-1 #
edge $291 -1 $-1 $220 0 $292 0.0031754264805429399 $136 $293 forward @7 unknown #
coedge $-1 -1 $-1 $203 $137 $143 $231 forward $129 $-1 #
coedge $-1 -1 $-1 $137 $203 $289 $294 reversed $129 $-1 #
truecolor-adesk-attrib $-1 -1 $295 $-1 $138 -1056964608 #
vertex $-1 -1 $-1 $138 $296 #
straight-curve $-1 -1 $-1 2.0741092058155948 67.80018000669007 5.1442587889662725 1.1368683772161603e-13 1000.0000000000002 0 F 0 F 0.0031754264805429417 #
coedge $-1 -1 $-1 $297 $298 $139 $223 reversed $299 $-1 #
edge $300 -1 $-1 $301 0 $228 0.0031754264805429417 $139 $302 forward @7 unknown #
coedge $-1 -1 $-1 $206 $140 $298 $303 forward $226 $-1 #
coedge $-1 -1 $-1 $140 $206 $142 $230 reversed $226 $-1 #
loop $-1 -1 $-1 $-1 $206 $304 #
truecolor-adesk-attrib $-1 -1 $305 $-1 $141 -1056964608 #
vertex $-1 -1 $-1 $223 $306 #
straight-curve $-1 -1 $-1 -3.4258907941844043 67.80018000669007 5.1442587889662725 866.02540378443837 -500.00000000000045 0 F 0 F 0.0031754264805429399 #
edge $307 -1 $-1 $145 0 $211 0.0018000000000000002 $142 $308 forward @7 unknown #
edge $309 -1 $-1 $146 0 $212 0.0018000000000000002 $143 $310 forward @7 unknown #
DXID-attrib $-1 -1 $-1 $144 $81 @18 ASM_EDGE_FROM_STEP @5 24403 #
point $-1 -1 $-1 -0.6758907941844059 66.212466766418601 5.1442587889662725 #
point $-1 -1 $-1 2.0741092058155948 67.80018000669007 5.1442587889662725 #
truecolor-adesk-attrib $-1 -1 $311 $-1 $148 -1056964608 #
ellipse-curve $-1 -1 $-1 -0.67589079418440412 69.387893246961539 3.3442587889662718 0 0 1 1.2990381056766576 -0.75000000000000067 0 1 F -3.1415926535897931 F 1.2246467991473535e-16 #
edge $312 -1 $-1 $153 1.2246467991473535e-16 $156 3.1415926535897931 $204 $313 forward @7 unknown #
face $314 -1 $-1 $-1 $151 $7 $-1 $315 reversed single #
DXID-attrib $-1 -1 $-1 $152 $84 @18 ASM_EDGE_FROM_STEP @5 36937 #
point $-1 -1 $-1 0.62314731149225366 68.637893246961539 3.3442587889662718 #
DXID-attrib $-1 -1 $-1 $155 $86 @18 ASM_EDGE_FROM_STEP @5 22328 #
point $-1 -1 $-1 -1.9749288998610619 70.137893246961539 3.3442587889662718 #
truecolor-adesk-attrib $-1 -1 $316 $-1 $158 -1056964608 #
ellipse-curve $-1 -1 $-1 -0.67589079418440412 69.387893246961539 5.1442587889662725 0 0 1 1.2990381056766576 -0.75000000000000067 0 1 F 1.2246467991473535e-16 F 3.1415926535897931 #
DXID-attrib $-1 -1 $-1 $163 $94 @18 ASM_FACE_FROM_STEP @12 Assem3-30885 #
truecolor-adesk-attrib $-1 -1 $317 $-1 $164 -1056964608 #
plane-surface $-1 -1 $-1 -0.67589079418439402 69.38789324696161 10.164500973784655 -4.89396558461965e-17 2.6199198397573582e-17 1 0.88161846333028349 -0.47196280056287232 5.5511151231257827e-17 forward_v I I I I #
edge $318 -1 $-1 $196 -3.1415926535897931 $193 1.2246467991473532e-16 $169 $319 forward @7 unknown #
DXID-attrib $-1 -1 $-1 $172 $100 @18 ASM_EDGE_FROM_STEP @5 46271 #
DXID-attrib $-1 -1 $-1 $174 $102 @18 ASM_EDGE_FROM_STEP @5 25238 #
truecolor-adesk-attrib $-1 -1 $320 $-1 $176 -1056964608 #
ellipse-curve $-1 -1 $-1 -0.67589079418439402 69.38789324696161 10.164500973784655 -4.89396558461965e-17 2.6199198397573582e-17 1 2.6448553899908505 -1.4158884016886168 1.6653345369377348e-16 1 F -3.1415926535897931 F 1.2246467991473535e-16 #
coedge $-1 -1 $-1 $321 $322 $323 $324 reversed $177 $-1 #
DXID-attrib $-1 -1 $-1 $181 $109 @18 ASM_EDGE_FROM_STEP @5 16589 #
truecolor-adesk-attrib $-1 -1 $325 $-1 $183 -1056964608 #
ellipse-curve $-1 -1 $-1 -0.67589079418439391 69.38789324696161 8.4645009737846557 -4.89396558461965e-17 2.6199198397573582e-17 1 1.3224276949954248 -0.70794420084430831 8.3266726846886716e-17 1 F -3.1415926535897931 F 1.2246467991473532e-16 #
truecolor-adesk-attrib $-1 -1 $326 $-1 $184 -1056964608 #
ellipse-curve $-1 -1 $-1 -0.67589079418439402 69.38789324696161 9.9645009737846557 -4.89396558461965e-17 2.6199198397573582e-17 1 2.6448553899908505 -1.4158884016886168 1.6653345369377348e-16 1 F -3.1415926535897931 F 1.2246467991473535e-16 #
truecolor-adesk-attrib $-1 -1 $327 $-1 $185 -1056964608 #
face $328 -1 $-1 $329 $330 $6 $-1 $331 reversed single #
cone-surface $-1 -1 $-1 -0.67589079418439402 69.38789324696161 9.9645009737846557 -4.89396558461965e-17 2.6199198397573582e-17 1 2.6448553899908505 -1.4158884016886168 1.6653345369377348e-16 1 I I 0.70710678118654868 0.70710678118654646 3.0000000000000004 forward I I I I #
truecolor-adesk-attrib $-1 -1 $332 $-1 $191 -1056964608 #
ellipse-curve $-1 -1 $-1 -0.67589079418439368 69.38789324696161 4.164500973784655 -4.89396558461965e-17 2.6199198397573582e-17 1 1.3224276949954248 -0.70794420084430831 8.3266726846886716e-17 1 F 1.2246467991473532e-16 F 3.1415926535897931 #
DXID-attrib $-1 -1 $-1 $192 $120 @18 ASM_EDGE_FROM_STEP @5 20775 #
point $-1 -1 $-1 0.6465369008110311 68.679949046117301 4.164500973784655 #
DXID-attrib $-1 -1 $-1 $195 $122 @18 ASM_EDGE_FROM_STEP @5 18106 #
point $-1 -1 $-1 -1.9983184891798185 70.09583744780592 4.164500973784655 #
DXID-attrib $-1 -1 $-1 $199 $128 @18 ASM_FACE_FROM_STEP @10 Assem3-698 #
truecolor-adesk-attrib $-1 -1 $333 $-1 $200 -1056964608 #
face $334 -1 $-1 $304 $299 $7 $-1 $335 reversed single #
loop $-1 -1 $-1 $-1 $336 $200 #
plane-surface $-1 -1 $-1 -0.67589079418440212 72.563319727504478 5.1442587889662725 0.49999999999999928 -0.86602540378443915 0 0.86602540378443915 0.49999999999999928 0 forward_v I I I I #
coedge $-1 -1 $-1 $290 $289 $208 $280 forward $201 $-1 #
coedge $-1 -1 $-1 $208 $205 $336 $337 reversed $43 $-1 #
coedge $-1 -1 $-1 $298 $297 $205 $276 forward $299 $-1 #
edge $338 -1 $-1 $339 0 $278 0.0031754264805429417 $205 $340 forward @7 unknown #
truecolor-adesk-attrib $-1 -1 $341 $-1 $207 -1056964608 #
vertex $-1 -1 $-1 $207 $342 #
straight-curve $-1 -1 $-1 -3.4258907941844043 67.80018000669007 3.3442587889662718 866.02540378443837 -500.00000000000045 0 F 0 F 0.0031754264805429399 #
edge $343 -1 $-1 $282 0 $344 0.0031754264805429399 $208 $345 forward @7 unknown #
truecolor-adesk-attrib $-1 -1 $346 $-1 $209 -1056964608 #
vertex $-1 -1 $-1 $280 $347 #
straight-curve $-1 -1 $-1 2.0741092058155948 67.80018000669007 3.3442587889662718 1.1368683772161603e-13 1000.0000000000002 0 F 0 F 0.0031754264805429417 #
DXID-attrib $-1 -1 $-1 $210 $135 @18 ASM_EDGE_FROM_STEP @5 27108 #
point $-1 -1 $-1 -0.6758907941844059 66.212466766418601 3.3442587889662718 #
point $-1 -1 $-1 2.0741092058155948 67.80018000669007 3.3442587889662718 #
coedge $-1 -1 $-1 $348 $349 $214 $288 reversed $271 $-1 #
edge $350 -1 $-1 $292 0 $301 0.0031754264805429412 $214 $351 forward @7 unknown #
coedge $-1 -1 $-1 $273 $215 $218 $294 forward $201 $-1 #
coedge $-1 -1 $-1 $215 $273 $348 $352 reversed $201 $-1 #
truecolor-adesk-attrib $-1 -1 $353 $-1 $216 -1056964608 #
vertex $-1 -1 $-1 $216 $354 #
straight-curve $-1 -1 $-1 2.0741092058155948 70.975606487233009 5.1442587889662725 -866.02540378443837 500.00000000000045 0 F 0 F 0.0031754264805429399 #
edge $355 -1 $-1 $220 0 $282 0.0018000000000000002 $218 $356 forward @7 unknown #
DXID-attrib $-1 -1 $-1 $219 $138 @18 ASM_EDGE_FROM_STEP @5 46828 #
point $-1 -1 $-1 2.0741092058155948 70.975606487233009 5.1442587889662725 #
coedge $-1 -1 $-1 $275 $222 $349 $357 forward $299 $-1 #
coedge $-1 -1 $-1 $222 $275 $224 $303 reversed $299 $-1 #
loop $-1 -1 $-1 $-1 $275 $270 #
truecolor-adesk-attrib $-1 -1 $358 $-1 $223 -1056964608 #
vertex $-1 -1 $-1 $288 $359 #
straight-curve $-1 -1 $-1 -3.4258907941844035 70.975606487233009 5.1442587889662725 -2.8421709430404007e-13 -1000.0000000000003 0 F 0 F 0.0031754264805429417 #
edge $360 -1 $-1 $228 0 $278 0.0018000000000000002 $298 $361 forward @7 unknown #
face $362 -1 $-1 $238 $226 $7 $-1 $363 reversed single #
DXID-attrib $-1 -1 $-1 $227 $141 @18 ASM_EDGE_FROM_STEP @5 11174 #
point $-1 -1 $-1 -3.4258907941844043 67.80018000669007 5.1442587889662725 #
truecolor-adesk-attrib $-1 -1 $364 $-1 $230 -1056964608 #
straight-curve $-1 -1 $-1 -0.6758907941844059 66.212466766418601 5.1442587889662725 0 0 -1000 F 0 F 0.0018000000000000002 #
truecolor-adesk-attrib $-1 -1 $365 $-1 $231 -1056964608 #
straight-curve $-1 -1 $-1 2.0741092058155948 67.80018000669007 5.1442587889662725 0 0 -1000 F 0 F 0.0018000000000000002 #
DXID-attrib $-1 -1 $-1 $235 $148 @18 ASM_EDGE_FROM_STEP @5 44735 #
truecolor-adesk-attrib $-1 -1 $366 $-1 $237 -1056964608 #
ellipse-curve $-1 -1 $-1 -0.67589079418440412 69.387893246961539 3.3442587889662718 0 0 1 1.2990381056766576 -0.75000000000000067 0 1 F 1.2246467991473535e-16 F 3.1415926535897931 #
truecolor-adesk-attrib $-1 -1 $367 $-1 $238 -1056964608 #
cone-surface $-1 -1 $-1 -0.67589079418440412 69.387893246961539 5.1442587889662725 0 0 -1 -1.2990381056766576 0.75000000000000067 0 1 I I 0 1 1.5000000000000002 forward I I I I #
DXID-attrib $-1 -1 $-1 $243 $158 @18 ASM_EDGE_FROM_STEP @5 48483 #
DXID-attrib $-1 -1 $-1 $246 $164 @18 ASM_FACE_FROM_STEP @12 Assem3-44437 #
truecolor-adesk-attrib $-1 -1 $368 $-1 $248 -1056964608 #
ellipse-curve $-1 -1 $-1 -0.67589079418439368 69.38789324696161 4.164500973784655 -4.89396558461965e-17 2.6199198397573582e-17 1 1.3224276949954248 -0.70794420084430831 8.3266726846886716e-17 1 F -3.1415926535897931 F 1.2246467991473532e-16 #
DXID-attrib $-1 -1 $-1 $251 $176 @18 ASM_EDGE_FROM_STEP @3 266 #
coedge $-1 -1 $-1 $369 $253 $370 $371 reversed $177 $-1 #
coedge $-1 -1 $-1 $253 $372 $373 $374 reversed $177 $-1 #
coedge $-1 -1 $-1 $375 $376 $253 $324 forward $330 $-1 #
edge $377 -1 $-1 $378 0 $379 0.0011547005383792481 $253 $380 forward @7 unknown #
DXID-attrib $-1 -1 $-1 $255 $183 @18 ASM_EDGE_FROM_STEP @5 42778 #
DXID-attrib $-1 -1 $-1 $257 $184 @18 ASM_EDGE_FROM_STEP @5 10449 #
DXID-attrib $-1 -1 $-1 $259 $185 @18 ASM_FACE_FROM_STEP @11 Assem3-6357 #
truecolor-adesk-attrib $-1 -1 $381 $-1 $260 -1056964608 #
face $382 -1 $-1 $383 $384 $6 $-1 $385 reversed single #
loop $-1 -1 $-1 $-1 $323 $260 #
plane-surface $-1 -1 $-1 0.37086907263120761 69.875363363540572 8.4645009737846557 0.57398914784012978 0.81886290559638975 6.6372796306141731e-18 -0.81886290559638986 0.57398914784012989 -5.5112924347421565e-17 forward_v I I I I #
DXID-attrib $-1 -1 $-1 $262 $191 @18 ASM_EDGE_FROM_STEP @5 35601 #
DXID-attrib $-1 -1 $-1 $269 $200 @18 ASM_FACE_FROM_STEP @11 Assem3-9324 #
truecolor-adesk-attrib $-1 -1 $386 $-1 $270 -1056964608 #
plane-surface $-1 -1 $-1 -3.4258907941844035 70.975606487233009 5.1442587889662725 1 -1.6653345369377348e-16 0 1.6653345369377348e-16 1 0 forward_v I I I I #
coedge $-1 -1 $-1 $349 $348 $274 $337 forward $271 $-1 #
edge $387 -1 $-1 $344 0 $339 0.0031754264805429412 $274 $388 forward @7 unknown #
truecolor-adesk-attrib $-1 -1 $389 $-1 $276 -1056964608 #
vertex $-1 -1 $-1 $276 $390 #
straight-curve $-1 -1 $-1 -3.4258907941844035 70.975606487233009 3.3442587889662718 -2.8421709430404007e-13 -1000.0000000000003 0 F 0 F 0.0031754264805429417 #
DXID-attrib $-1 -1 $-1 $277 $207 @18 ASM_EDGE_FROM_STEP @5 21306 #
point $-1 -1 $-1 -3.4258907941844043 67.80018000669007 3.3442587889662718 #
truecolor-adesk-attrib $-1 -1 $391 $-1 $280 -1056964608 #
vertex $-1 -1 $-1 $337 $392 #
straight-curve $-1 -1 $-1 2.0741092058155948 70.975606487233009 3.3442587889662718 -866.02540378443837 500.00000000000045 0 F 0 F 0.0031754264805429399 #
DXID-attrib $-1 -1 $-1 $281 $209 @18 ASM_EDGE_FROM_STEP @5 31588 #
point $-1 -1 $-1 2.0741092058155948 70.975606487233009 3.3442587889662718 #
coedge $-1 -1 $-1 $336 $287 $290 $352 forward $271 $-1 #
coedge $-1 -1 $-1 $287 $336 $297 $357 reversed $271 $-1 #
truecolor-adesk-attrib $-1 -1 $393 $-1 $288 -1056964608 #
straight-curve $-1 -1 $-1 -0.67589079418440212 72.563319727504478 5.1442587889662725 -866.02540378443905 -499.99999999999943 0 F 0 F 0.0031754264805429412 #
edge $394 -1 $-1 $292 0 $344 0.0018000000000000002 $290 $395 forward @7 unknown #
DXID-attrib $-1 -1 $-1 $291 $216 @18 ASM_EDGE_FROM_STEP @5 30912 #
point $-1 -1 $-1 -0.67589079418440212 72.563319727504478 5.1442587889662725 #
truecolor-adesk-attrib $-1 -1 $396 $-1 $294 -1056964608 #
straight-curve $-1 -1 $-1 2.0741092058155948 70.975606487233009 5.1442587889662725 0 0 -1000 F 0 F 0.0018000000000000002 #
edge $397 -1 $-1 $301 0 $339 0.0018000000000000002 $349 $398 forward @7 unknown #
DXID-attrib $-1 -1 $-1 $300 $223 @18 ASM_EDGE_FROM_STEP @5 24316 #
point $-1 -1 $-1 -3.4258907941844035 70.975606487233009 5.1442587889662725 #
truecolor-adesk-attrib $-1 -1 $399 $-1 $303 -1056964608 #
straight-curve $-1 -1 $-1 -3.4258907941844043 67.80018000669007 5.1442587889662725 0 0 -1000 F 0 F 0.0018000000000000002 #
truecolor-adesk-attrib $-1 -1 $400 $-1 $304 -1056964608 #
plane-surface $-1 -1 $-1 -3.4258907941844043 67.80018000669007 5.1442587889662725 0.50000000000000044 0.86602540378443837 0 0 0 1 forward_v I I I I #
DXID-attrib $-1 -1 $-1 $307 $230 @18 ASM_EDGE_FROM_STEP @5 14434 #
DXID-attrib $-1 -1 $-1 $309 $231 @18 ASM_EDGE_FROM_STEP @5 40633 #
DXID-attrib $-1 -1 $-1 $312 $237 @18 ASM_EDGE_FROM_STEP @5 42184 #
DXID-attrib $-1 -1 $-1 $314 $238 @18 ASM_FACE_FROM_STEP @11 Assem3-1056 #
DXID-attrib $-1 -1 $-1 $318 $248 @18 ASM_EDGE_FROM_STEP @4 6353 #
coedge $-1 -1 $-1 $401 $321 $402 $403 reversed $177 $-1 #
coedge $-1 -1 $-1 $404 $405 $321 $371 forward $384 $-1 #
edge $406 -1 $-1 $407 0 $378 0.001154700538379247 $321 $408 forward @7 unknown #
coedge $-1 -1 $-1 $322 $401 $409 $410 reversed $177 $-1 #
coedge $-1 -1 $-1 $411 $412 $322 $374 forward $413 $-1 #
edge $414 -1 $-1 $379 4.1630643682304569e-20 $415 0.0011547005383792481 $322 $416 forward @7 unknown #
coedge $-1 -1 $-1 $417 $323 $412 $418 reversed $330 $-1 #
coedge $-1 -1 $-1 $323 $417 $404 $419 forward $330 $-1 #
truecolor-adesk-attrib $-1 -1 $420 $-1 $324 -1056964608 #
vertex $-1 -1 $-1 $324 $421 #
vertex $-1 -1 $-1 $324 $422 #
straight-curve $-1 -1 $-1 0.37086907263120761 69.875363363540572 10.164500973784655 -818.86290559638985 573.98914784012993 -5.511292434742157e-14 F 0 F 0.0011547005383792481 #
DXID-attrib $-1 -1 $-1 $328 $260 @18 ASM_FACE_FROM_STEP @12 Assem3-43146 #
truecolor-adesk-attrib $-1 -1 $423 $-1 $329 -1056964608 #
face $424 -1 $-1 $425 $426 $6 $-1 $427 reversed single #
loop $-1 -1 $-1 $-1 $370 $329 #
plane-surface $-1 -1 $-1 0.2696506437665529 68.725107668926768 8.4645009737846557 0.99615065238327682 -0.087657730727939476 5.1047832377024061e-17 0.087657730727939531 0.99615065238327694 -2.1808409401577901e-17 forward_v I I I I #
DXID-attrib $-1 -1 $-1 $334 $270 @18 ASM_FACE_FROM_STEP @12 Assem3-39491 #
truecolor-adesk-attrib $-1 -1 $428 $-1 $337 -1056964608 #
straight-curve $-1 -1 $-1 -0.67589079418440212 72.563319727504478 3.3442587889662718 -866.02540378443905 -499.99999999999943 0 F 0 F 0.0031754264805429412 #
DXID-attrib $-1 -1 $-1 $338 $276 @18 ASM_EDGE_FROM_STEP @5 14036 #
point $-1 -1 $-1 -3.4258907941844035 70.975606487233009 3.3442587889662718 #
DXID-attrib $-1 -1 $-1 $343 $280 @18 ASM_EDGE_FROM_STEP @4 9701 #
point $-1 -1 $-1 -0.67589079418440212 72.563319727504478 3.3442587889662718 #
DXID-attrib $-1 -1 $-1 $350 $288 @18 ASM_EDGE_FROM_STEP @5 30327 #
truecolor-adesk-attrib $-1 -1 $429 $-1 $352 -1056964608 #
straight-curve $-1 -1 $-1 -0.67589079418440212 72.563319727504478 5.1442587889662725 0 0 -1000 F 0 F 0.0018000000000000002 #
DXID-attrib $-1 -1 $-1 $355 $294 @18 ASM_EDGE_FROM_STEP @5 42017 #
truecolor-adesk-attrib $-1 -1 $430 $-1 $357 -1056964608 #
straight-curve $-1 -1 $-1 -3.4258907941844035 70.975606487233009 5.1442587889662725 0 0 -1000 F 0 F 0.0018000000000000002 #
DXID-attrib $-1 -1 $-1 $360 $303 @18 ASM_EDGE_FROM_STEP @5 41204 #
DXID-attrib $-1 -1 $-1 $362 $304 @18 ASM_FACE_FROM_STEP @12 Assem3-14352 #
coedge $-1 -1 $-1 $372 $369 $431 $432 reversed $177 $-1 #
coedge $-1 -1 $-1 $433 $434 $369 $403 forward $426 $-1 #
edge $435 -1 $-1 $436 0 $407 0.0011547005383792481 $369 $437 forward @7 unknown #
coedge $-1 -1 $-1 $438 $370 $376 $419 reversed $384 $-1 #
coedge $-1 -1 $-1 $370 $438 $433 $439 forward $384 $-1 #
truecolor-adesk-attrib $-1 -1 $440 $-1 $371 -1056964608 #
vertex $-1 -1 $-1 $371 $441 #
straight-curve $-1 -1 $-1 0.26965064376655279 68.725107668926768 10.164500973784655 87.657730727939452 996.15065238327702 -2.1808409401577908e-14 F 0 F 0.001154700538379247 #
coedge $-1 -1 $-1 $442 $443 $372 $410 forward $444 $-1 #
edge $445 -1 $-1 $415 0 $446 0.0011547005383792477 $372 $447 forward @7 unknown #
coedge $-1 -1 $-1 $448 $373 $443 $449 reversed $413 $-1 #
coedge $-1 -1 $-1 $373 $448 $375 $418 forward $413 $-1 #
loop $-1 -1 $-1 $-1 $373 $450 #
truecolor-adesk-attrib $-1 -1 $451 $-1 $374 -1056964608 #
vertex $-1 -1 $-1 $410 $452 #
straight-curve $-1 -1 $-1 -0.57467236531973898 70.538148941575415 10.164500973784655 -906.52063632432919 -422.16150454314698 -3.330451494584366e-14 F 4.1630643682304569e-20 F 0.0011547005383792481 #
coedge $-1 -1 $-1 $376 $375 $453 $454 reversed $330 $-1 #
edge $455 -1 $-1 $456 0 $379 0.001700000000000001 $375 $457 forward @7 unknown #
edge $458 -1 $-1 $459 0 $378 0.001700000000000001 $376 $460 forward @7 unknown #
DXID-attrib $-1 -1 $-1 $377 $324 @18 ASM_EDGE_FROM_STEP @5 18099 #
point $-1 -1 $-1 0.37086907263120761 69.875363363540572 10.164500973784655 #
point $-1 -1 $-1 -0.57467236531973909 70.538148941575415 10.164500973784655 #
DXID-attrib $-1 -1 $-1 $382 $329 @18 ASM_FACE_FROM_STEP @12 Assem3-19568 #
truecolor-adesk-attrib $-1 -1 $461 $-1 $383 -1056964608 #
face $462 -1 $-1 $463 $464 $6 $-1 $465 reversed single #
loop $-1 -1 $-1 $-1 $402 $383 #
plane-surface $-1 -1 $-1 -0.77710922304904861 68.237637552347806 8.4645009737846557 0.42216150454314727 -0.90652063632432889 4.4410552746409889e-17 0.906520636324329 0.42216150454314733 3.3304514945843646e-17 forward_v I I I I #
DXID-attrib $-1 -1 $-1 $387 $337 @18 ASM_EDGE_FROM_STEP @5 20181 #
DXID-attrib $-1 -1 $-1 $394 $352 @18 ASM_EDGE_FROM_STEP @5 35603 #
DXID-attrib $-1 -1 $-1 $397 $357 @18 ASM_EDGE_FROM_STEP @5 16978 #
coedge $-1 -1 $-1 $466 $467 $401 $432 forward $464 $-1 #
edge $468 -1 $-1 $446 0 $436 0.0011547005383792481 $401 $469 forward @7 unknown #
coedge $-1 -1 $-1 $470 $402 $405 $439 reversed $426 $-1 #
coedge $-1 -1 $-1 $402 $470 $466 $471 forward $426 $-1 #
truecolor-adesk-attrib $-1 -1 $472 $-1 $403 -1056964608 #
vertex $-1 -1 $-1 $403 $473 #
straight-curve $-1 -1 $-1 -0.77710922304904861 68.237637552347806 10.164500973784655 906.52063632432919 422.1615045431476 3.3304514945843641e-14 F 0 F 0.0011547005383792481 #
coedge $-1 -1 $-1 $405 $404 $474 $475 reversed $384 $-1 #
edge $476 -1 $-1 $477 0 $407 0.001700000000000001 $405 $478 forward @7 unknown #
DXID-attrib $-1 -1 $-1 $406 $371 @18 ASM_EDGE_FROM_STEP @5 42757 #
point $-1 -1 $-1 0.26965064376655279 68.725107668926768 10.164500973784655 #
coedge $-1 -1 $-1 $479 $409 $467 $480 reversed $444 $-1 #
coedge $-1 -1 $-1 $409 $479 $411 $449 forward $444 $-1 #
loop $-1 -1 $-1 $-1 $409 $463 #
truecolor-adesk-attrib $-1 -1 $481 $-1 $410 -1056964608 #
vertex $-1 -1 $-1 $432 $482 #
straight-curve $-1 -1 $-1 -1.6214322321353403 70.050678824996453 10.164500973784655 -87.657730727939395 -996.15065238327702 2.1808409401577911e-14 F 0 F 0.0011547005383792477 #
coedge $-1 -1 $-1 $412 $411 $483 $484 reversed $413 $-1 #
edge $485 -1 $-1 $486 0 $415 0.001700000000000001 $443 $487 forward @7 unknown #
face $488 -1 $-1 $489 $413 $6 $-1 $490 reversed single #
DXID-attrib $-1 -1 $-1 $414 $374 @18 ASM_EDGE_FROM_STEP @4 8186 #
point $-1 -1 $-1 -1.6214322321353403 70.050678824996453 10.164500973784655 #
coedge $-1 -1 $-1 $483 $474 $417 $454 forward $491 $-1 #
edge $492 -1 $-1 $459 0 $456 0.0011547005383792479 $417 $493 forward @7 unknown #
truecolor-adesk-attrib $-1 -1 $494 $-1 $418 -1056964608 #
vertex $-1 -1 $-1 $418 $495 #
straight-curve $-1 -1 $-1 -0.57467236531973898 70.538148941575415 8.4645009737846557 -4.8939655846196499e-14 2.6199198397573581e-14 1000 F 0 F 0.001700000000000001 #
truecolor-adesk-attrib $-1 -1 $496 $-1 $419 -1056964608 #
vertex $-1 -1 $-1 $454 $497 #
straight-curve $-1 -1 $-1 0.37086907263120761 69.875363363540572 8.4645009737846557 -4.8939655846196499e-14 2.6199198397573581e-14 1000 F 0 F 0.001700000000000001 #
DXID-attrib $-1 -1 $-1 $424 $383 @18 ASM_FACE_FROM_STEP @11 Assem3-5909 #
truecolor-adesk-attrib $-1 -1 $498 $-1 $425 -1056964608 #
face $499 -1 $-1 $450 $444 $6 $-1 $500 reversed single #
loop $-1 -1 $-1 $-1 $431 $425 #
plane-surface $-1 -1 $-1 -1.7226506609999954 68.900423130382649 8.4645009737846557 -0.57398914784012955 -0.81886290559638986 -6.6372796306141577e-18 0.81886290559638997 -0.57398914784012955 5.5112924347421565e-17 forward_v I I I I #
coedge $-1 -1 $-1 $501 $431 $434 $471 reversed $464 $-1 #
coedge $-1 -1 $-1 $431 $501 $442 $480 forward $464 $-1 #
truecolor-adesk-attrib $-1 -1 $502 $-1 $432 -1056964608 #
straight-curve $-1 -1 $-1 -1.7226506609999954 68.900423130382649 10.164500973784655 818.86290559638996 -573.9891478401297 5.511292434742157e-14 F 0 F 0.0011547005383792481 #
coedge $-1 -1 $-1 $434 $433 $503 $504 reversed $426 $-1 #
edge $505 -1 $-1 $506 0 $436 0.001700000000000001 $434 $507 forward @7 unknown #
DXID-attrib $-1 -1 $-1 $435 $403 @18 ASM_EDGE_FROM_STEP @5 16668 #
point $-1 -1 $-1 -0.77710922304904861 68.237637552347806 10.164500973784655 #
coedge $-1 -1 $-1 $453 $503 $438 $475 forward $491 $-1 #
edge $508 -1 $-1 $477 0 $459 0.001154700538379247 $438 $509 forward @7 unknown #
truecolor-adesk-attrib $-1 -1 $510 $-1 $439 -1056964608 #
vertex $-1 -1 $-1 $475 $511 #
straight-curve $-1 -1 $-1 0.2696506437665529 68.725107668926768 8.4645009737846557 -4.8939655846196499e-14 2.6199198397573581e-14 1000 F 0 F 0.001700000000000001 #
coedge $-1 -1 $-1 $443 $442 $512 $513 reversed $444 $-1 #
edge $514 -1 $-1 $515 0 $446 0.001700000000000001 $467 $516 forward @7 unknown #
DXID-attrib $-1 -1 $-1 $445 $410 @18 ASM_EDGE_FROM_STEP @5 47346 #
point $-1 -1 $-1 -1.7226506609999954 68.900423130382649 10.164500973784655 #
coedge $-1 -1 $-1 $512 $453 $448 $484 forward $491 $-1 #
edge $517 -1 $-1 $456 0 $486 0.0011547005383792481 $448 $518 forward @7 unknown #
truecolor-adesk-attrib $-1 -1 $519 $-1 $449 -1056964608 #
vertex $-1 -1 $-1 $513 $520 #
straight-curve $-1 -1 $-1 -1.6214322321353403 70.050678824996453 8.4645009737846557 -4.8939655846196499e-14 2.6199198397573581e-14 1000 F 0 F 0.001700000000000001 #
truecolor-adesk-attrib $-1 -1 $521 $-1 $450 -1056964608 #
face $522 -1 $-1 $-1 $491 $6 $-1 $523 forward single #
plane-surface $-1 -1 $-1 -0.57467236531973898 70.538148941575415 8.4645009737846557 -0.42216150454314688 0.90652063632432911 -4.4410552746409877e-17 -0.90652063632432911 -0.42216150454314688 -3.3304514945843658e-17 forward_v I I I I #
loop $-1 -1 $-1 $-1 $453 $489 #
truecolor-adesk-attrib $-1 -1 $524 $-1 $454 -1056964608 #
straight-curve $-1 -1 $-1 0.37086907263120761 69.875363363540572 8.4645009737846557 -818.86290559638985 573.98914784012993 -5.511292434742157e-14 F 0 F 0.0011547005383792479 #
DXID-attrib $-1 -1 $-1 $455 $418 @18 ASM_EDGE_FROM_STEP @4 9715 #
point $-1 -1 $-1 -0.57467236531973898 70.538148941575415 8.4645009737846557 #
DXID-attrib $-1 -1 $-1 $458 $419 @18 ASM_EDGE_FROM_STEP @5 14723 #
point $-1 -1 $-1 0.37086907263120761 69.875363363540572 8.4645009737846557 #
DXID-attrib $-1 -1 $-1 $462 $425 @18 ASM_FACE_FROM_STEP @12 Assem3-38763 #
truecolor-adesk-attrib $-1 -1 $525 $-1 $463 -1056964608 #
plane-surface $-1 -1 $-1 -1.6214322321353403 70.050678824996453 8.4645009737846557 -0.99615065238327694 0.087657730727939365 -5.1047832377024061e-17 -0.087657730727939365 -0.99615065238327705 2.1808409401577913e-17 forward_v I I I I #
coedge $-1 -1 $-1 $467 $466 $526 $527 reversed $464 $-1 #
DXID-attrib $-1 -1 $-1 $468 $432 @18 ASM_EDGE_FROM_STEP @4 6164 #
coedge $-1 -1 $-1 $474 $526 $470 $504 forward $491 $-1 #
edge $528 -1 $-1 $506 0 $477 0.0011547005383792481 $470 $529 forward @7 unknown #
truecolor-adesk-attrib $-1 -1 $530 $-1 $471 -1056964608 #
vertex $-1 -1 $-1 $504 $531 #
straight-curve $-1 -1 $-1 -0.77710922304904861 68.237637552347806 8.4645009737846557 -4.8939655846196499e-14 2.6199198397573581e-14 1000 F 0 F 0.001700000000000001 #
truecolor-adesk-attrib $-1 -1 $532 $-1 $475 -1056964608 #
straight-curve $-1 -1 $-1 0.2696506437665529 68.725107668926768 8.4645009737846557 87.657730727939452 996.15065238327702 -2.1808409401577908e-14 F 0 F 0.001154700538379247 #
DXID-attrib $-1 -1 $-1 $476 $439 @18 ASM_EDGE_FROM_STEP @5 43200 #
point $-1 -1 $-1 0.2696506437665529 68.725107668926768 8.4645009737846557 #
coedge $-1 -1 $-1 $526 $483 $479 $513 forward $491 $-1 #
edge $533 -1 $-1 $486 0 $515 0.0011547005383792477 $479 $534 forward @7 unknown #
truecolor-adesk-attrib $-1 -1 $535 $-1 $480 -1056964608 #
vertex $-1 -1 $-1 $527 $536 #
straight-curve $-1 -1 $-1 -1.7226506609999954 68.900423130382649 8.4645009737846557 -4.8939655846196499e-14 2.6199198397573581e-14 1000 F 0 F 0.001700000000000001 #
truecolor-adesk-attrib $-1 -1 $537 $-1 $484 -1056964608 #
straight-curve $-1 -1 $-1 -0.57467236531973898 70.538148941575415 8.4645009737846557 -906.52063632432919 -422.16150454314698 -3.330451494584366e-14 F 0 F 0.0011547005383792481 #
DXID-attrib $-1 -1 $-1 $485 $449 @18 ASM_EDGE_FROM_STEP @4 5496 #
point $-1 -1 $-1 -1.6214322321353403 70.050678824996453 8.4645009737846557 #
DXID-attrib $-1 -1 $-1 $488 $450 @18 ASM_FACE_FROM_STEP @12 Assem3-45986 #
truecolor-adesk-attrib $-1 -1 $538 $-1 $489 -1056964608 #
plane-surface $-1 -1 $-1 -0.67589079418439391 69.38789324696161 8.4645009737846557 -4.89396558461965e-17 2.6199198397573582e-17 1 0.88161846333028349 -0.47196280056287232 5.5511151231257827e-17 forward_v I I I I #
DXID-attrib $-1 -1 $-1 $492 $454 @18 ASM_EDGE_FROM_STEP @5 39870 #
DXID-attrib $-1 -1 $-1 $499 $463 @18 ASM_FACE_FROM_STEP @12 Assem3-32572 #
coedge $-1 -1 $-1 $503 $512 $501 $527 forward $491 $-1 #
edge $539 -1 $-1 $515 0 $506 0.0011547005383792481 $501 $540 forward @7 unknown #
truecolor-adesk-attrib $-1 -1 $541 $-1 $504 -1056964608 #
straight-curve $-1 -1 $-1 -0.77710922304904861 68.237637552347806 8.4645009737846557 906.52063632432919 422.1615045431476 3.3304514945843641e-14 F 0 F 0.0011547005383792481 #
DXID-attrib $-1 -1 $-1 $505 $471 @18 ASM_EDGE_FROM_STEP @5 18464 #
point $-1 -1 $-1 -0.77710922304904861 68.237637552347806 8.4645009737846557 #
DXID-attrib $-1 -1 $-1 $508 $475 @18 ASM_EDGE_FROM_STEP @5 44681 #
truecolor-adesk-attrib $-1 -1 $542 $-1 $513 -1056964608 #
straight-curve $-1 -1 $-1 -1.6214322321353403 70.050678824996453 8.4645009737846557 -87.657730727939395 -996.15065238327702 2.1808409401577911e-14 F 0 F 0.0011547005383792477 #
DXID-attrib $-1 -1 $-1 $514 $480 @18 ASM_EDGE_FROM_STEP @5 11003 #
point $-1 -1 $-1 -1.7226506609999954 68.900423130382649 8.4645009737846557 #
DXID-attrib $-1 -1 $-1 $517 $484 @18 ASM_EDGE_FROM_STEP @5 13528 #
DXID-attrib $-1 -1 $-1 $522 $489 @18 ASM_FACE_FROM_STEP @12 Assem3-34752 #
truecolor-adesk-attrib $-1 -1 $543 $-1 $527 -1056964608 #
straight-curve $-1 -1 $-1 -1.7226506609999954 68.900423130382649 8.4645009737846557 818.86290559638996 -573.9891478401297 5.511292434742157e-14 F 0 F 0.0011547005383792481 #
DXID-attrib $-1 -1 $-1 $528 $504 @18 ASM_EDGE_FROM_STEP @5 36534 #
DXID-attrib $-1 -1 $-1 $533 $513 @18 ASM_EDGE_FROM_STEP @4 1991 #
DXID-attrib $-1 -1 $-1 $539 $527 @18 ASM_EDGE_FROM_STEP @5 26686 #
