700 650 1 0         
5 ZWCAD 12 ACIS 28.0 NT 24 Mon May 13 11:50:42 2024 
1 9.9999999999999995e-07 1e-10 
body $1 -1 $-1 $2 $-1 $-1 #
DXID-attrib $-1 -1 $-1 $-1 $0 @18 ASM_BODY_FROM_STEP @83 E142047B175267A9733DA90FD2DFB2B055528589|:|2BC3D5A56CECF82D127DD43609724D5D16915A09 #
lump $-1 -1 $-1 $-1 $3 $0 #
shell $-1 -1 $-1 $-1 $-1 $4 $-1 $2 #
face $5 -1 $-1 $6 $7 $3 $-1 $8 reversed single #
truecolor-adesk-attrib $-1 -1 $9 $-1 $4 -1026895378 #
face $10 -1 $-1 $11 $12 $3 $-1 $13 reversed single #
loop $-1 -1 $-1 $-1 $14 $4 #
cone-surface $-1 -1 $-1 1383.5700538324991 760.65656547141532 101.5 -1.4289255015688287e-18 5.6486335847101435e-17 1 -1.0128155304406816 4.1275543244514967 -2.345976577379547e-16 1 I I 0 1 4.2500000000000107 forward I I I I #
fmesh-eye-attrib $-1 -1 $15 $5 $4 #
truecolor-adesk-attrib $-1 -1 $16 $-1 $6 -1026895378 #
face $17 -1 $-1 $18 $19 $3 $-1 $20 reversed single #
loop $-1 -1 $-1 $-1 $21 $6 #
cone-surface $-1 -1 $-1 1420.2664909210412 757.97440123209742 92 -0.23830953657427745 0.97118925281211443 6.72652310352164e-17 -2.4279731320302882 -0.59577384143569412 3.0183688570772256e-17 1 I I 0 1 2.5000000000000022 forward I I I I #
coedge $-1 -1 $-1 $22 $23 $24 $25 reversed $7 $-1 #
DXID-attrib $-1 -1 $-1 $9 $4 @18 ASM_FACE_FROM_STEP @33 Assy Total Kursi Pijat Biru-18773 #
fmesh-eye-attrib $-1 -1 $26 $10 $6 #
truecolor-adesk-attrib $-1 -1 $27 $-1 $11 -1026895378 #
face $28 -1 $-1 $29 $30 $3 $-1 $31 reversed single #
loop $-1 -1 $-1 $-1 $32 $11 #
cone-surface $-1 -1 $-1 1478.537846089768 772.27297342655402 92 -0.23830953657427745 0.97118925281211443 6.72652310352164e-17 -2.4279731320302882 -0.59577384143569412 3.0183688570772256e-17 1 I I 0 1 2.5000000000000022 forward I I I I #
coedge $-1 -1 $-1 $33 $34 $35 $36 reversed $12 $-1 #
coedge $-1 -1 $-1 $37 $14 $38 $39 forward $7 $-1 #
coedge $-1 -1 $-1 $14 $37 $40 $41 reversed $7 $-1 #
coedge $-1 -1 $-1 $42 $42 $14 $25 forward $43 $-1 #
edge $44 -1 $-1 $45 -3.1415926535897931 $46 -1.0644491196953613e-48 $14 $47 forward @7 unknown #
DXID-attrib $-1 -1 $-1 $16 $6 @18 ASM_FACE_FROM_STEP @32 Assy Total Kursi Pijat Biru-8646 #
fmesh-eye-attrib $-1 -1 $48 $17 $11 #
truecolor-adesk-attrib $-1 -1 $49 $-1 $18 -1026895378 #
face $50 -1 $-1 $51 $52 $3 $-1 $53 reversed single #
loop $-1 -1 $-1 $-1 $54 $18 #
cone-surface $-1 -1 $-1 1536.809201258495 786.57154562101073 92 -0.23830953657427745 0.97118925281211443 6.72652310352164e-17 -2.4279731320302882 -0.59577384143569412 3.0183688570772256e-17 1 I I 0 1 2.5000000000000022 forward I I I I #
coedge $-1 -1 $-1 $55 $56 $57 $58 reversed $19 $-1 #
coedge $-1 -1 $-1 $59 $21 $60 $61 forward $12 $-1 #
coedge $-1 -1 $-1 $21 $59 $62 $63 reversed $12 $-1 #
coedge $-1 -1 $-1 $64 $64 $21 $36 forward $65 $-1 #
edge $66 -1 $-1 $67 -3.1415926535897931 $68 0 $21 $69 forward @7 unknown #
coedge $-1 -1 $-1 $23 $22 $70 $71 forward $7 $-1 #
coedge $-1 -1 $-1 $72 $73 $22 $39 reversed $74 $-1 #
edge $75 -1 $-1 $45 0.0010000000000000011 $76 0.0030000000000000031 $22 $77 forward @7 unknown #
coedge $-1 -1 $-1 $73 $72 $23 $41 forward $74 $-1 #
edge $78 -1 $-1 $46 0.0010000000000000009 $79 0.0030000000000000027 $23 $80 forward @7 unknown #
coedge $-1 -1 $-1 $24 $24 $72 $81 forward $43 $-1 #
loop $-1 -1 $-1 $82 $42 $83 #
truecolor-adesk-attrib $-1 -1 $84 $-1 $25 -1026895378 #
vertex $-1 -1 $-1 $25 $85 #
vertex $-1 -1 $-1 $25 $86 #
ellipse-curve $-1 -1 $-1 1383.5700538324991 760.65656547141532 102.5 -1.4289255015688287e-18 5.6486335847101435e-17 1 -1.0128155304406816 4.1275543244514967 -2.345976577379547e-16 1 F -3.1415926535897931 F -1.0644491196953613e-48 #
DXID-attrib $-1 -1 $-1 $27 $11 @18 ASM_FACE_FROM_STEP @32 Assy Total Kursi Pijat Biru-5300 #
fmesh-eye-attrib $-1 -1 $87 $28 $18 #
truecolor-adesk-attrib $-1 -1 $88 $-1 $29 -1026895378 #
face $89 -1 $-1 $90 $91 $3 $-1 $92 forward single #
loop $-1 -1 $-1 $-1 $93 $29 #
cone-surface $-1 -1 $-1 1349.5784299840752 752.31573169131548 79.5 -1.4289255015688287e-18 5.6486335847101435e-17 1 -1.0128155304406816 4.1275543244514967 -2.345976577379547e-16 1 I I 0 1 4.2500000000000107 forward I I I I #
coedge $-1 -1 $-1 $94 $95 $96 $97 reversed $30 $-1 #
coedge $-1 -1 $-1 $98 $32 $99 $100 forward $19 $-1 #
coedge $-1 -1 $-1 $32 $98 $101 $102 reversed $19 $-1 #
coedge $-1 -1 $-1 $103 $103 $32 $58 forward $104 $-1 #
edge $105 -1 $-1 $106 -3.1415926535897931 $107 0 $32 $108 forward @7 unknown #
coedge $-1 -1 $-1 $34 $33 $109 $110 forward $12 $-1 #
coedge $-1 -1 $-1 $111 $112 $33 $61 reversed $113 $-1 #
edge $114 -1 $-1 $67 0.023000000000000353 $115 0.025000000000000133 $33 $116 forward @7 unknown #
coedge $-1 -1 $-1 $112 $111 $34 $63 forward $113 $-1 #
edge $117 -1 $-1 $68 0.023000000000000353 $118 0.025000000000000133 $34 $119 forward @7 unknown #
coedge $-1 -1 $-1 $35 $35 $111 $120 forward $65 $-1 #
loop $-1 -1 $-1 $104 $64 $121 #
truecolor-adesk-attrib $-1 -1 $122 $-1 $36 -1026895378 #
vertex $-1 -1 $-1 $36 $123 #
vertex $-1 -1 $-1 $36 $124 #
ellipse-curve $-1 -1 $-1 1414.7853715798328 780.3117540467764 92 -0.23830953657427745 0.97118925281211443 6.72652310352164e-17 -2.4279731320302882 -0.59577384143569412 3.0183688570772256e-17 1 F -3.1415926535897931 F 0 #
coedge $-1 -1 $-1 $125 $125 $37 $71 reversed $126 $-1 #
edge $127 -1 $-1 $76 -3.1415926535897931 $79 5.0467792586460121e-63 $37 $128 forward @7 unknown #
coedge $-1 -1 $-1 $40 $38 $42 $81 reversed $74 $-1 #
coedge $-1 -1 $-1 $38 $40 $125 $129 forward $74 $-1 #
loop $-1 -1 $-1 $-1 $38 $130 #
truecolor-adesk-attrib $-1 -1 $131 $-1 $39 -1026895378 #
vertex $-1 -1 $-1 $39 $132 #
straight-curve $-1 -1 $-1 1384.5828693629398 756.52901114696374 101.5 -1.4289255015688325e-15 5.648633584710145e-14 1000 F 0.0010000000000000011 F 0.0030000000000000031 #
truecolor-adesk-attrib $-1 -1 $133 $-1 $41 -1026895378 #
vertex $-1 -1 $-1 $71 $134 #
straight-curve $-1 -1 $-1 1382.5572383020583 764.78411979586679 101.5 -1.4289255015688325e-15 5.648633584710145e-14 1000 F 0.0010000000000000009 F 0.0030000000000000027 #
edge $135 -1 $-1 $46 -1.0644491196953613e-48 $45 3.1415926535897931 $42 $136 forward @7 unknown #
loop $-1 -1 $-1 $-1 $137 $83 #
face $138 -1 $-1 $139 $140 $3 $-1 $141 reversed single #
DXID-attrib $-1 -1 $-1 $44 $25 @18 ASM_EDGE_FROM_STEP @5 16157 #
point $-1 -1 $-1 1384.5828693629398 756.52901114696374 102.5 #
point $-1 -1 $-1 1382.5572383020583 764.78411979586679 102.5 #
DXID-attrib $-1 -1 $-1 $49 $18 @18 ASM_FACE_FROM_STEP @32 Assy Total Kursi Pijat Biru-9855 #
fmesh-eye-attrib $-1 -1 $142 $50 $29 #
truecolor-adesk-attrib $-1 -1 $143 $-1 $51 -1026895378 #
face $144 -1 $-1 $145 $146 $3 $-1 $147 forward single #
loop $-1 -1 $-1 $-1 $148 $51 #
cone-surface $-1 -1 $-1 1337.1617242158359 760.95563434499024 102.2 0.97118925281211443 0.23830953657427745 -1.2073475428308866e-17 -6.3837823915946435e-17 1.4363510381087965e-16 -2.2999999999999998 1 I I 0 1 2.2999999999999998 forward I I I I #
coedge $-1 -1 $-1 $149 $150 $151 $152 reversed $52 $-1 #
coedge $-1 -1 $-1 $153 $54 $154 $155 forward $30 $-1 #
coedge $-1 -1 $-1 $54 $153 $156 $157 reversed $30 $-1 #
coedge $-1 -1 $-1 $158 $158 $54 $97 forward $159 $-1 #
edge $160 -1 $-1 $161 -3.1415926535897931 $162 0 $54 $163 forward @7 unknown #
coedge $-1 -1 $-1 $56 $55 $164 $165 forward $19 $-1 #
coedge $-1 -1 $-1 $166 $167 $55 $100 reversed $168 $-1 #
edge $169 -1 $-1 $106 0.023000000000000131 $170 0.025000000000000133 $55 $171 forward @7 unknown #
coedge $-1 -1 $-1 $167 $166 $56 $102 forward $168 $-1 #
edge $172 -1 $-1 $107 0.023000000000000131 $173 0.025000000000000133 $56 $174 forward @7 unknown #
coedge $-1 -1 $-1 $57 $57 $166 $175 forward $104 $-1 #
loop $-1 -1 $-1 $159 $103 $121 #
truecolor-adesk-attrib $-1 -1 $176 $-1 $58 -1026895378 #
vertex $-1 -1 $-1 $58 $177 #
vertex $-1 -1 $-1 $58 $178 #
ellipse-curve $-1 -1 $-1 1473.0567267485596 794.61032624123288 92 -0.23830953657427745 0.97118925281211443 6.72652310352164e-17 -2.4279731320302882 -0.59577384143569412 3.0183688570772256e-17 1 F -3.1415926535897931 F 0 #
coedge $-1 -1 $-1 $179 $179 $59 $110 reversed $180 $-1 #
edge $181 -1 $-1 $115 -3.1415926535897931 $118 0 $59 $182 forward @7 unknown #
coedge $-1 -1 $-1 $62 $60 $64 $120 reversed $113 $-1 #
coedge $-1 -1 $-1 $60 $62 $179 $183 forward $113 $-1 #
loop $-1 -1 $-1 $-1 $60 $184 #
truecolor-adesk-attrib $-1 -1 $185 $-1 $61 -1026895378 #
vertex $-1 -1 $-1 $61 $186 #
straight-curve $-1 -1 $-1 1422.6944640530717 758.57017507353316 92 -238.30953657427744 971.18925281211443 6.7265231035216398e-14 F 0.023000000000000353 F 0.025000000000000133 #
truecolor-adesk-attrib $-1 -1 $187 $-1 $63 -1026895378 #
vertex $-1 -1 $-1 $110 $188 #
straight-curve $-1 -1 $-1 1417.8385177890109 757.37862739066179 92 -238.30953657427744 971.18925281211443 6.7265231035216398e-14 F 0.023000000000000353 F 0.025000000000000133 #
edge $189 -1 $-1 $68 0 $67 3.1415926535897931 $64 $190 forward @7 unknown #
face $191 -1 $-1 $192 $193 $3 $-1 $194 reversed single #
DXID-attrib $-1 -1 $-1 $66 $36 @18 ASM_EDGE_FROM_STEP @5 18681 #
point $-1 -1 $-1 1417.2133447118631 780.90752788821214 92 #
point $-1 -1 $-1 1412.3573984478026 779.71598020534077 92 #
coedge $-1 -1 $-1 $70 $70 $73 $129 reversed $126 $-1 #
loop $-1 -1 $-1 $195 $125 $196 #
truecolor-adesk-attrib $-1 -1 $197 $-1 $71 -1026895378 #
ellipse-curve $-1 -1 $-1 1383.5700538324991 760.65656547141532 104.5 -1.4289255015688287e-18 5.6486335847101435e-17 1 -1.0128155304406816 4.1275543244514967 -2.345976577379547e-16 1 F -3.1415926535897931 F 5.0467792586460121e-63 #
edge $198 -1 $-1 $79 5.0467792586460121e-63 $76 3.1415926535897931 $125 $199 forward @7 unknown #
face $200 -1 $-1 $-1 $74 $3 $-1 $201 reversed single #
DXID-attrib $-1 -1 $-1 $75 $39 @18 ASM_EDGE_FROM_STEP @4 4217 #
point $-1 -1 $-1 1384.5828693629398 756.52901114696374 104.5 #
DXID-attrib $-1 -1 $-1 $78 $41 @18 ASM_EDGE_FROM_STEP @4 1348 #
point $-1 -1 $-1 1382.5572383020583 764.78411979586679 104.5 #
truecolor-adesk-attrib $-1 -1 $202 $-1 $81 -1026895378 #
ellipse-curve $-1 -1 $-1 1383.5700538324991 760.65656547141532 102.5 -1.4289255015688287e-18 5.6486335847101435e-17 1 -1.0128155304406816 4.1275543244514967 -2.345976577379547e-16 1 F -1.0644491196953613e-48 F 3.1415926535897931 #
coedge $-1 -1 $-1 $151 $151 $203 $204 forward $82 $-1 #
truecolor-adesk-attrib $-1 -1 $205 $-1 $83 -1026895378 #
face $206 -1 $-1 $196 $207 $3 $-1 $208 forward single #
loop $-1 -1 $-1 $43 $209 $83 #
plane-surface $-1 -1 $-1 1336.6136122817152 763.18936962645807 102.5 -1.4289255015688656e-18 5.6486335847101582e-17 1 -0.23830953657427745 0.97118925281211443 -5.5199448879518773e-17 forward_v I I I I #
DXID-attrib $-1 -1 $-1 $88 $29 @18 ASM_FACE_FROM_STEP @33 Assy Total Kursi Pijat Biru-21847 #
fmesh-eye-attrib $-1 -1 $210 $89 $51 #
truecolor-adesk-attrib $-1 -1 $211 $-1 $90 -1026895378 #
face $212 -1 $-1 $121 $213 $3 $-1 $214 forward single #
loop $-1 -1 $-1 $180 $215 $90 #
plane-surface $-1 -1 $-1 1336.6136122817152 763.18936962645807 79.5 -0.23830953657427745 0.97118925281211443 6.72652310352164e-17 -0.97118925281211443 -0.23830953657427745 1.2073475428308866e-17 forward_v I I I I #
coedge $-1 -1 $-1 $216 $217 $218 $219 reversed $91 $-1 #
coedge $-1 -1 $-1 $220 $93 $221 $222 forward $52 $-1 #
coedge $-1 -1 $-1 $93 $220 $223 $224 reversed $52 $-1 #
coedge $-1 -1 $-1 $137 $137 $93 $152 forward $82 $-1 #
edge $225 -1 $-1 $226 -3.1415926535897931 $227 -1.0644491196953603e-48 $93 $228 forward @7 unknown #
coedge $-1 -1 $-1 $95 $94 $229 $230 forward $30 $-1 #
coedge $-1 -1 $-1 $231 $232 $94 $155 reversed $233 $-1 #
edge $234 -1 $-1 $161 0.023000000000000131 $235 0.025000000000000355 $94 $236 forward @7 unknown #
coedge $-1 -1 $-1 $232 $231 $95 $157 forward $233 $-1 #
edge $237 -1 $-1 $162 0.023000000000000131 $238 0.025000000000000355 $95 $239 forward @7 unknown #
coedge $-1 -1 $-1 $96 $96 $231 $240 forward $159 $-1 #
loop $-1 -1 $-1 $-1 $158 $121 #
truecolor-adesk-attrib $-1 -1 $241 $-1 $97 -1026895378 #
vertex $-1 -1 $-1 $97 $242 #
vertex $-1 -1 $-1 $97 $243 #
ellipse-curve $-1 -1 $-1 1531.3280819172867 808.90889843568948 92 -0.23830953657427745 0.97118925281211443 6.72652310352164e-17 -2.4279731320302882 -0.59577384143569412 3.0183688570772256e-17 1 F -3.1415926535897931 F 0 #
coedge $-1 -1 $-1 $244 $244 $98 $165 reversed $245 $-1 #
edge $246 -1 $-1 $170 -3.1415926535897931 $173 0 $98 $247 forward @7 unknown #
coedge $-1 -1 $-1 $101 $99 $103 $175 reversed $168 $-1 #
coedge $-1 -1 $-1 $99 $101 $244 $248 forward $168 $-1 #
loop $-1 -1 $-1 $-1 $99 $249 #
truecolor-adesk-attrib $-1 -1 $250 $-1 $100 -1026895378 #
vertex $-1 -1 $-1 $100 $251 #
straight-curve $-1 -1 $-1 1480.9658192217985 772.86874726798976 92 -238.30953657427744 971.18925281211443 6.7265231035216398e-14 F 0.023000000000000131 F 0.025000000000000133 #
truecolor-adesk-attrib $-1 -1 $252 $-1 $102 -1026895378 #
vertex $-1 -1 $-1 $165 $253 #
straight-curve $-1 -1 $-1 1476.1098729577377 771.67719958511839 92 -238.30953657427744 971.18925281211443 6.7265231035216398e-14 F 0.023000000000000131 F 0.025000000000000133 #
edge $254 -1 $-1 $107 0 $106 3.1415926535897931 $103 $255 forward @7 unknown #
DXID-attrib $-1 -1 $-1 $105 $58 @18 ASM_EDGE_FROM_STEP @5 37272 #
point $-1 -1 $-1 1475.4846998805899 795.20610008266851 92 #
point $-1 -1 $-1 1470.6287536165294 794.01455239979714 92 #
coedge $-1 -1 $-1 $109 $109 $112 $183 reversed $180 $-1 #
loop $-1 -1 $-1 $245 $179 $90 #
truecolor-adesk-attrib $-1 -1 $256 $-1 $110 -1026895378 #
ellipse-curve $-1 -1 $-1 1414.3087525066844 782.25413255240051 92 -0.23830953657427745 0.97118925281211443 6.72652310352164e-17 -2.4279731320302882 -0.59577384143569412 3.0183688570772256e-17 1 F -3.1415926535897931 F 0 #
edge $257 -1 $-1 $118 0 $115 3.1415926535897931 $179 $258 forward @7 unknown #
face $259 -1 $-1 $130 $113 $3 $-1 $260 reversed single #
DXID-attrib $-1 -1 $-1 $114 $61 @18 ASM_EDGE_FROM_STEP @5 29633 #
point $-1 -1 $-1 1416.7367256387147 782.84990639383614 92 #
DXID-attrib $-1 -1 $-1 $117 $63 @18 ASM_EDGE_FROM_STEP @4 4229 #
point $-1 -1 $-1 1411.8807793746541 781.65835871096476 92 #
truecolor-adesk-attrib $-1 -1 $261 $-1 $120 -1026895378 #
ellipse-curve $-1 -1 $-1 1414.7853715798328 780.3117540467764 92 -0.23830953657427745 0.97118925281211443 6.72652310352164e-17 -2.4279731320302882 -0.59577384143569412 3.0183688570772256e-17 1 F 0 F 3.1415926535897931 #
truecolor-adesk-attrib $-1 -1 $262 $-1 $121 -1026895378 #
face $263 -1 $-1 $83 $264 $3 $-1 $265 reversed single #
loop $-1 -1 $-1 $65 $266 $121 #
plane-surface $-1 -1 $-1 1337.0902313548634 761.2469911208342 79.5 -0.23830953657427745 0.97118925281211443 6.72652310352164e-17 -0.97118925281211443 -0.23830953657427745 1.2073475428308866e-17 forward_v I I I I #
loop $-1 -1 $-1 $-1 $267 $196 #
face $268 -1 $-1 $269 $270 $3 $-1 $271 forward single #
DXID-attrib $-1 -1 $-1 $127 $71 @18 ASM_EDGE_FROM_STEP @5 37039 #
truecolor-adesk-attrib $-1 -1 $272 $-1 $129 -1026895378 #
ellipse-curve $-1 -1 $-1 1383.5700538324991 760.65656547141532 104.5 -1.4289255015688287e-18 5.6486335847101435e-17 1 -1.0128155304406816 4.1275543244514967 -2.345976577379547e-16 1 F 5.0467792586460121e-63 F 3.1415926535897931 #
truecolor-adesk-attrib $-1 -1 $273 $-1 $130 -1026895378 #
cone-surface $-1 -1 $-1 1383.5700538324991 760.65656547141532 101.5 -1.4289255015688287e-18 5.6486335847101435e-17 1 -1.0128155304406816 4.1275543244514967 -2.345976577379547e-16 1 I I 0 1 4.2500000000000107 forward I I I I #
DXID-attrib $-1 -1 $-1 $135 $81 @18 ASM_EDGE_FROM_STEP @5 13918 #
coedge $-1 -1 $-1 $223 $221 $137 $204 reversed $274 $-1 #
edge $275 -1 $-1 $227 -1.0644491196953603e-48 $226 3.1415926535897931 $137 $276 forward @7 unknown #
fmesh-eye-attrib $-1 -1 $277 $138 $83 #
truecolor-adesk-attrib $-1 -1 $278 $-1 $139 -1026895378 #
loop $-1 -1 $-1 $-1 $279 $139 #
plane-surface $-1 -1 $-1 1342.5713506960719 738.90963830615522 104.5 0.23830953657427745 -0.97118925281211443 -6.72652310352164e-17 0.97118925281211443 0.23830953657427745 -1.2073475428308866e-17 forward_v I I I I #
coedge $-1 -1 $-1 $280 $281 $282 $283 reversed $140 $-1 #
DXID-attrib $-1 -1 $-1 $143 $51 @18 ASM_FACE_FROM_STEP @33 Assy Total Kursi Pijat Biru-18724 #
fmesh-eye-attrib $-1 -1 $284 $144 $90 #
truecolor-adesk-attrib $-1 -1 $285 $-1 $145 -1026895378 #
loop $-1 -1 $-1 $-1 $286 $145 #
plane-surface $-1 -1 $-1 1337.0902313548634 761.2469911208342 79.5 -2.7755575615628944e-17 6.2450045135165277e-17 -1 -0.97118925281211443 -0.23830953657427745 1.2073475428308866e-17 forward_v I I I I #
coedge $-1 -1 $-1 $287 $288 $289 $290 reversed $146 $-1 #
coedge $-1 -1 $-1 $291 $148 $292 $293 forward $91 $-1 #
coedge $-1 -1 $-1 $148 $291 $294 $295 reversed $91 $-1 #
coedge $-1 -1 $-1 $288 $287 $148 $219 forward $146 $-1 #
edge $296 -1 $-1 $297 0.055000000000000167 $298 0.2300000000000002 $148 $299 forward @7 unknown #
coedge $-1 -1 $-1 $150 $149 $300 $301 forward $52 $-1 #
coedge $-1 -1 $-1 $203 $302 $149 $222 reversed $274 $-1 #
edge $303 -1 $-1 $226 0.023000000000000007 $304 0.025000000000000008 $149 $305 forward @7 unknown #
coedge $-1 -1 $-1 $302 $203 $150 $224 forward $274 $-1 #
edge $306 -1 $-1 $227 0.023000000000000007 $307 0.025000000000000008 $150 $308 forward @7 unknown #
truecolor-adesk-attrib $-1 -1 $309 $-1 $152 -1026895378 #
vertex $-1 -1 $-1 $152 $310 #
vertex $-1 -1 $-1 $152 $311 #
ellipse-curve $-1 -1 $-1 1349.5784299840752 752.31573169131548 102.5 -1.4289255015688287e-18 5.6486335847101435e-17 1 -1.0128155304406816 4.1275543244514967 -2.345976577379547e-16 1 F -3.1415926535897931 F -1.0644491196953603e-48 #
coedge $-1 -1 $-1 $312 $312 $153 $230 reversed $313 $-1 #
edge $314 -1 $-1 $235 -3.1415926535897931 $238 0 $153 $315 forward @7 unknown #
coedge $-1 -1 $-1 $156 $154 $158 $240 reversed $233 $-1 #
coedge $-1 -1 $-1 $154 $156 $312 $316 forward $233 $-1 #
loop $-1 -1 $-1 $-1 $154 $317 #
truecolor-adesk-attrib $-1 -1 $318 $-1 $155 -1026895378 #
vertex $-1 -1 $-1 $155 $319 #
straight-curve $-1 -1 $-1 1539.2371743905253 787.16731946244647 92 -238.30953657427744 971.18925281211443 6.7265231035216398e-14 F 0.023000000000000131 F 0.025000000000000355 #
truecolor-adesk-attrib $-1 -1 $320 $-1 $157 -1026895378 #
vertex $-1 -1 $-1 $230 $321 #
straight-curve $-1 -1 $-1 1534.3812281264647 785.97577177957498 92 -238.30953657427744 971.18925281211443 6.7265231035216398e-14 F 0.023000000000000131 F 0.025000000000000355 #
edge $322 -1 $-1 $162 0 $161 3.1415926535897931 $158 $323 forward @7 unknown #
DXID-attrib $-1 -1 $-1 $160 $97 @18 ASM_EDGE_FROM_STEP @5 13623 #
point $-1 -1 $-1 1533.756055049317 809.50467227712522 92 #
point $-1 -1 $-1 1528.9001087852564 808.31312459425385 92 #
coedge $-1 -1 $-1 $164 $164 $167 $248 reversed $245 $-1 #
loop $-1 -1 $-1 $313 $244 $90 #
truecolor-adesk-attrib $-1 -1 $324 $-1 $165 -1026895378 #
ellipse-curve $-1 -1 $-1 1472.580107675411 796.55270474685699 92 -0.23830953657427745 0.97118925281211443 6.72652310352164e-17 -2.4279731320302882 -0.59577384143569412 3.0183688570772256e-17 1 F -3.1415926535897931 F 0 #
edge $325 -1 $-1 $173 0 $170 3.1415926535897931 $244 $326 forward @7 unknown #
face $327 -1 $-1 $184 $168 $3 $-1 $328 reversed single #
DXID-attrib $-1 -1 $-1 $169 $100 @18 ASM_EDGE_FROM_STEP @5 32986 #
point $-1 -1 $-1 1475.0080808074413 797.14847858829273 92 #
DXID-attrib $-1 -1 $-1 $172 $102 @18 ASM_EDGE_FROM_STEP @2 95 #
point $-1 -1 $-1 1470.1521345433807 795.95693090542136 92 #
truecolor-adesk-attrib $-1 -1 $329 $-1 $175 -1026895378 #
ellipse-curve $-1 -1 $-1 1473.0567267485596 794.61032624123288 92 -0.23830953657427745 0.97118925281211443 6.72652310352164e-17 -2.4279731320302882 -0.59577384143569412 3.0183688570772256e-17 1 F 0 F 3.1415926535897931 #
DXID-attrib $-1 -1 $-1 $181 $110 @18 ASM_EDGE_FROM_STEP @5 24457 #
truecolor-adesk-attrib $-1 -1 $330 $-1 $183 -1026895378 #
ellipse-curve $-1 -1 $-1 1414.3087525066844 782.25413255240051 92 -0.23830953657427745 0.97118925281211443 6.72652310352164e-17 -2.4279731320302882 -0.59577384143569412 3.0183688570772256e-17 1 F 0 F 3.1415926535897931 #
truecolor-adesk-attrib $-1 -1 $331 $-1 $184 -1026895378 #
cone-surface $-1 -1 $-1 1420.2664909210412 757.97440123209742 92 -0.23830953657427745 0.97118925281211443 6.72652310352164e-17 -2.4279731320302882 -0.59577384143569412 3.0183688570772256e-17 1 I I 0 1 2.5000000000000022 forward I I I I #
DXID-attrib $-1 -1 $-1 $189 $120 @18 ASM_EDGE_FROM_STEP @5 39385 #
fmesh-eye-attrib $-1 -1 $332 $191 $121 #
truecolor-adesk-attrib $-1 -1 $333 $-1 $192 -1026895378 #
loop $-1 -1 $-1 $-1 $334 $192 #
cone-surface $-1 -1 $-1 1337.1617242158359 760.95563434499024 102.2 0.97118925281211443 0.23830953657427745 -1.2073475428308866e-17 -8.3266726846886645e-18 1.8735013540549515e-17 -0.29999999999999993 1 I I 0 1 0.29999999999999993 forward I I I I #
coedge $-1 -1 $-1 $335 $336 $337 $338 reversed $193 $-1 #
coedge $-1 -1 $-1 $300 $300 $302 $339 reversed $195 $-1 #
truecolor-adesk-attrib $-1 -1 $340 $-1 $196 -1026895378 #
face $341 -1 $-1 $342 $343 $3 $-1 $344 forward single #
loop $-1 -1 $-1 $126 $345 $196 #
plane-surface $-1 -1 $-1 1336.6136122817152 763.18936962645807 104.5 -1.4289255015688656e-18 5.6486335847101582e-17 1 -0.23830953657427745 0.97118925281211443 -5.5199448879518773e-17 forward_v I I I I #
DXID-attrib $-1 -1 $-1 $198 $129 @18 ASM_EDGE_FROM_STEP @5 21837 #
fmesh-eye-attrib $-1 -1 $346 $200 $130 #
loop $-1 -1 $-1 $-1 $221 $347 #
truecolor-adesk-attrib $-1 -1 $348 $-1 $204 -1026895378 #
ellipse-curve $-1 -1 $-1 1349.5784299840752 752.31573169131548 102.5 -1.4289255015688287e-18 5.6486335847101435e-17 1 -1.0128155304406816 4.1275543244514967 -2.345976577379547e-16 1 F -1.0644491196953603e-48 F 3.1415926535897931 #
DXID-attrib $-1 -1 $-1 $205 $83 @18 ASM_FACE_FROM_STEP @33 Assy Total Kursi Pijat Biru-23295 #
fmesh-eye-attrib $-1 -1 $349 $206 $139 #
coedge $-1 -1 $-1 $350 $351 $352 $353 reversed $207 $-1 #
coedge $-1 -1 $-1 $354 $209 $355 $356 forward $140 $-1 #
coedge $-1 -1 $-1 $209 $357 $358 $359 forward $140 $-1 #
coedge $-1 -1 $-1 $351 $350 $209 $283 forward $207 $-1 #
edge $360 -1 $-1 $361 0.0099999999999998927 $362 0.20729999999999996 $209 $363 forward @7 unknown #
DXID-attrib $-1 -1 $-1 $211 $90 @18 ASM_FACE_FROM_STEP @32 Assy Total Kursi Pijat Biru-2818 #
fmesh-eye-attrib $-1 -1 $364 $212 $145 #
coedge $-1 -1 $-1 $365 $366 $335 $367 reversed $213 $-1 #
coedge $-1 -1 $-1 $218 $215 $368 $369 reversed $146 $-1 #
coedge $-1 -1 $-1 $215 $218 $370 $371 reversed $146 $-1 #
coedge $-1 -1 $-1 $366 $365 $215 $290 forward $213 $-1 #
edge $372 -1 $-1 $373 0.055000000000000167 $374 0.2300000000000002 $215 $375 forward @7 unknown #
coedge $-1 -1 $-1 $217 $216 $376 $377 forward $91 $-1 #
coedge $-1 -1 $-1 $368 $378 $216 $293 reversed $379 $-1 #
edge $380 -1 $-1 $297 -1.5707963267948966 $381 0 $216 $382 forward @7 unknown #
coedge $-1 -1 $-1 $383 $384 $217 $295 forward $385 $-1 #
edge $386 -1 $-1 $298 -1.5707963267948966 $387 0 $217 $388 forward @7 unknown #
truecolor-adesk-attrib $-1 -1 $389 $-1 $219 -1026895378 #
vertex $-1 -1 $-1 $219 $390 #
vertex $-1 -1 $-1 $219 $391 #
straight-curve $-1 -1 $-1 1336.6136122817152 763.18936962645807 102.2 971.18925281211443 238.30953657427744 -1.2073475428308865e-14 F 0.055000000000000167 F 0.2300000000000002 #
coedge $-1 -1 $-1 $267 $267 $220 $301 reversed $195 $-1 #
edge $392 -1 $-1 $304 -3.1415926535897931 $307 5.2861302244703981e-63 $220 $393 forward @7 unknown #
coedge $-1 -1 $-1 $221 $223 $267 $339 forward $274 $-1 #
truecolor-adesk-attrib $-1 -1 $394 $-1 $222 -1026895378 #
vertex $-1 -1 $-1 $222 $395 #
straight-curve $-1 -1 $-1 1350.5912455145158 748.18817736686401 79.5 -1.4289255015688325e-15 5.648633584710145e-14 1000 F 0.023000000000000007 F 0.025000000000000008 #
truecolor-adesk-attrib $-1 -1 $396 $-1 $224 -1026895378 #
vertex $-1 -1 $-1 $301 $397 #
straight-curve $-1 -1 $-1 1348.5656144536345 756.44328601576694 79.5 -1.4289255015688325e-15 5.648633584710145e-14 1000 F 0.023000000000000007 F 0.025000000000000008 #
DXID-attrib $-1 -1 $-1 $225 $152 @18 ASM_EDGE_FROM_STEP @4 7647 #
point $-1 -1 $-1 1350.5912455145158 748.18817736686401 102.5 #
point $-1 -1 $-1 1348.5656144536345 756.44328601576694 102.5 #
coedge $-1 -1 $-1 $229 $229 $232 $316 reversed $313 $-1 #
loop $-1 -1 $-1 $-1 $312 $90 #
truecolor-adesk-attrib $-1 -1 $398 $-1 $230 -1026895378 #
ellipse-curve $-1 -1 $-1 1530.851462844138 810.85127694131393 92 -0.23830953657427745 0.97118925281211443 6.72652310352164e-17 -2.4279731320302882 -0.59577384143569412 3.0183688570772256e-17 1 F -3.1415926535897931 F 0 #
edge $399 -1 $-1 $238 0 $235 3.1415926535897931 $312 $400 forward @7 unknown #
face $401 -1 $-1 $249 $233 $3 $-1 $402 reversed single #
DXID-attrib $-1 -1 $-1 $234 $155 @18 ASM_EDGE_FROM_STEP @5 23737 #
point $-1 -1 $-1 1533.2794359761683 811.44705078274967 92 #
DXID-attrib $-1 -1 $-1 $237 $157 @18 ASM_EDGE_FROM_STEP @5 36208 #
point $-1 -1 $-1 1528.4234897121078 810.25550309987818 92 #
truecolor-adesk-attrib $-1 -1 $403 $-1 $240 -1026895378 #
ellipse-curve $-1 -1 $-1 1531.3280819172867 808.90889843568948 92 -0.23830953657427745 0.97118925281211443 6.72652310352164e-17 -2.4279731320302882 -0.59577384143569412 3.0183688570772256e-17 1 F 0 F 3.1415926535897931 #
DXID-attrib $-1 -1 $-1 $246 $165 @18 ASM_EDGE_FROM_STEP @5 21005 #
truecolor-adesk-attrib $-1 -1 $404 $-1 $248 -1026895378 #
ellipse-curve $-1 -1 $-1 1472.580107675411 796.55270474685699 92 -0.23830953657427745 0.97118925281211443 6.72652310352164e-17 -2.4279731320302882 -0.59577384143569412 3.0183688570772256e-17 1 F 0 F 3.1415926535897931 #
truecolor-adesk-attrib $-1 -1 $405 $-1 $249 -1026895378 #
cone-surface $-1 -1 $-1 1478.537846089768 772.27297342655402 92 -0.23830953657427745 0.97118925281211443 6.72652310352164e-17 -2.4279731320302882 -0.59577384143569412 3.0183688570772256e-17 1 I I 0 1 2.5000000000000022 forward I I I I #
DXID-attrib $-1 -1 $-1 $254 $175 @18 ASM_EDGE_FROM_STEP @5 30776 #
DXID-attrib $-1 -1 $-1 $257 $183 @18 ASM_EDGE_FROM_STEP @5 11874 #
fmesh-eye-attrib $-1 -1 $406 $259 $184 #
DXID-attrib $-1 -1 $-1 $262 $121 @18 ASM_FACE_FROM_STEP @32 Assy Total Kursi Pijat Biru-3751 #
fmesh-eye-attrib $-1 -1 $407 $263 $192 #
coedge $-1 -1 $-1 $408 $409 $410 $411 reversed $264 $-1 #
coedge $-1 -1 $-1 $412 $266 $286 $367 forward $193 $-1 #
coedge $-1 -1 $-1 $266 $412 $408 $413 reversed $193 $-1 #
coedge $-1 -1 $-1 $410 $414 $266 $338 forward $379 $-1 #
edge $415 -1 $-1 $416 0 $417 0.022700000000000012 $266 $418 forward @7 unknown #
edge $419 -1 $-1 $307 5.2861302244703981e-63 $304 3.1415926535897931 $267 $420 forward @7 unknown #
fmesh-eye-attrib $-1 -1 $421 $268 $196 #
truecolor-adesk-attrib $-1 -1 $422 $-1 $269 -1026895378 #
face $423 -1 $-1 $424 $385 $3 $-1 $425 forward single #
loop $-1 -1 $-1 $-1 $426 $269 #
plane-surface $-1 -1 $-1 1337.0902313548634 761.2469911208342 102.2 -0.97118925281211443 -0.23830953657427745 1.2073475428308924e-17 2.7755575615629e-17 -6.2450045135165253e-17 1 forward_v I I I I #
coedge $-1 -1 $-1 $427 $428 $429 $430 forward $270 $-1 #
DXID-attrib $-1 -1 $-1 $273 $130 @18 ASM_FACE_FROM_STEP @32 Assy Total Kursi Pijat Biru-3703 #
face $431 -1 $-1 $317 $274 $3 $-1 $432 reversed single #
DXID-attrib $-1 -1 $-1 $275 $204 @18 ASM_EDGE_FROM_STEP @5 27339 #
DXID-attrib $-1 -1 $-1 $278 $139 @18 ASM_FACE_FROM_STEP @33 Assy Total Kursi Pijat Biru-31667 #
coedge $-1 -1 $-1 $282 $279 $433 $434 forward $207 $-1 #
coedge $-1 -1 $-1 $279 $282 $435 $436 forward $207 $-1 #
coedge $-1 -1 $-1 $437 $427 $279 $353 forward $270 $-1 #
edge $438 -1 $-1 $439 0.0099999999999998927 $440 0.20729999999999996 $279 $441 forward @7 unknown #
coedge $-1 -1 $-1 $442 $280 $426 $443 reversed $140 $-1 #
coedge $-1 -1 $-1 $433 $444 $280 $356 reversed $445 $-1 #
edge $446 -1 $-1 $361 -3.1415926535897838 $447 -1.5707963267949092 $280 $448 forward @7 unknown #
coedge $-1 -1 $-1 $281 $449 $409 $450 forward $140 $-1 #
coedge $-1 -1 $-1 $451 $435 $281 $359 reversed $452 $-1 #
edge $453 -1 $-1 $454 -0.16100821407617788 $362 -0.12890556621030866 $281 $455 forward @7 unknown #
truecolor-adesk-attrib $-1 -1 $456 $-1 $283 -1026895378 #
vertex $-1 -1 $-1 $283 $457 #
vertex $-1 -1 $-1 $283 $458 #
straight-curve $-1 -1 $-1 1342.5713506960719 738.90963830615522 102.5 971.18925281211443 238.30953657427744 -1.2073475428308865e-14 F 0.0099999999999998927 F 0.20729999999999996 #
DXID-attrib $-1 -1 $-1 $285 $145 @18 ASM_FACE_FROM_STEP @32 Assy Total Kursi Pijat Biru-1046 #
coedge $-1 -1 $-1 $289 $286 $414 $459 reversed $213 $-1 #
coedge $-1 -1 $-1 $286 $289 $460 $461 reversed $213 $-1 #
edge $462 -1 $-1 $416 0.05500000000000016 $463 0.23000000000000009 $286 $464 forward @7 unknown #
coedge $-1 -1 $-1 $414 $292 $287 $369 forward $379 $-1 #
edge $465 -1 $-1 $297 -0.022700000000000012 $373 0 $287 $466 forward @7 unknown #
coedge $-1 -1 $-1 $467 $460 $288 $371 forward $468 $-1 #
edge $469 -1 $-1 $374 0 $298 0.022700000000000012 $288 $470 forward @7 unknown #
truecolor-adesk-attrib $-1 -1 $471 $-1 $290 -1026895378 #
vertex $-1 -1 $-1 $290 $472 #
vertex $-1 -1 $-1 $290 $473 #
straight-curve $-1 -1 $-1 1336.6136122817152 763.18936962645807 79.5 971.18925281211443 238.30953657427744 -1.2073475428308865e-14 F 0.055000000000000167 F 0.2300000000000002 #
coedge $-1 -1 $-1 $474 $437 $291 $377 reversed $270 $-1 #
edge $475 -1 $-1 $381 0.054999999999999938 $387 0.2300000000000002 $291 $476 forward @7 unknown #
coedge $-1 -1 $-1 $292 $410 $477 $478 forward $379 $-1 #
loop $-1 -1 $-1 $-1 $368 $479 #
truecolor-adesk-attrib $-1 -1 $480 $-1 $293 -1026895378 #
vertex $-1 -1 $-1 $293 $481 #
ellipse-curve $-1 -1 $-1 1390.5771331205019 774.06265885657581 102.2 0.97118925281211443 0.23830953657427745 -1.2073475428308866e-17 6.3837823915946435e-17 -1.4363510381087965e-16 2.2999999999999998 1 F -1.5707963267948966 F 0 #
coedge $-1 -1 $-1 $482 $294 $451 $483 reversed $385 $-1 #
coedge $-1 -1 $-1 $294 $482 $467 $484 reversed $385 $-1 #
loop $-1 -1 $-1 $-1 $384 $342 #
truecolor-adesk-attrib $-1 -1 $485 $-1 $295 -1026895378 #
vertex $-1 -1 $-1 $377 $486 #
ellipse-curve $-1 -1 $-1 1560.5352523626223 815.76682775707422 102.2 0.97118925281211443 0.23830953657427745 -1.2073475428308866e-17 6.3837823915946435e-17 -1.4363510381087965e-16 2.2999999999999998 1 F -1.5707963267948966 F 0 #
DXID-attrib $-1 -1 $-1 $296 $219 @18 ASM_EDGE_FROM_STEP @5 14891 #
point $-1 -1 $-1 1390.0290211863814 776.29639413804352 102.2 #
point $-1 -1 $-1 1559.9871404285016 818.00056303854205 102.2 #
truecolor-adesk-attrib $-1 -1 $487 $-1 $301 -1026895378 #
ellipse-curve $-1 -1 $-1 1349.5784299840752 752.31573169131548 104.5 -1.4289255015688287e-18 5.6486335847101435e-17 1 -1.0128155304406816 4.1275543244514967 -2.345976577379547e-16 1 F -3.1415926535897931 F 5.2861302244703981e-63 #
DXID-attrib $-1 -1 $-1 $303 $222 @18 ASM_EDGE_FROM_STEP @4 2620 #
point $-1 -1 $-1 1350.5912455145158 748.18817736686401 104.5 #
DXID-attrib $-1 -1 $-1 $306 $224 @18 ASM_EDGE_FROM_STEP @4 9817 #
point $-1 -1 $-1 1348.5656144536345 756.44328601576694 104.5 #
DXID-attrib $-1 -1 $-1 $314 $230 @18 ASM_EDGE_FROM_STEP @5 27967 #
truecolor-adesk-attrib $-1 -1 $488 $-1 $316 -1026895378 #
ellipse-curve $-1 -1 $-1 1530.851462844138 810.85127694131393 92 -0.23830953657427745 0.97118925281211443 6.72652310352164e-17 -2.4279731320302882 -0.59577384143569412 3.0183688570772256e-17 1 F 0 F 3.1415926535897931 #
truecolor-adesk-attrib $-1 -1 $489 $-1 $317 -1026895378 #
cone-surface $-1 -1 $-1 1536.809201258495 786.57154562101073 92 -0.23830953657427745 0.97118925281211443 6.72652310352164e-17 -2.4279731320302882 -0.59577384143569412 3.0183688570772256e-17 1 I I 0 1 2.5000000000000022 forward I I I I #
DXID-attrib $-1 -1 $-1 $322 $240 @18 ASM_EDGE_FROM_STEP @5 18979 #
DXID-attrib $-1 -1 $-1 $325 $248 @18 ASM_EDGE_FROM_STEP @5 40375 #
fmesh-eye-attrib $-1 -1 $490 $327 $249 #
DXID-attrib $-1 -1 $-1 $331 $184 @18 ASM_FACE_FROM_STEP @33 Assy Total Kursi Pijat Biru-34477 #
DXID-attrib $-1 -1 $-1 $333 $192 @18 ASM_FACE_FROM_STEP @33 Assy Total Kursi Pijat Biru-11925 #
coedge $-1 -1 $-1 $491 $334 $336 $413 forward $264 $-1 #
coedge $-1 -1 $-1 $334 $491 $357 $450 reversed $264 $-1 #
coedge $-1 -1 $-1 $378 $337 $334 $411 forward $379 $-1 #
edge $492 -1 $-1 $417 -1.5707963267948966 $493 1.1170914907699718e-84 $334 $494 forward @7 unknown #
coedge $-1 -1 $-1 $336 $335 $495 $496 forward $193 $-1 #
edge $497 -1 $-1 $417 0.05500000000000016 $498 0.23000000000000009 $336 $499 forward @7 unknown #
coedge $-1 -1 $-1 $337 $368 $365 $459 forward $379 $-1 #
truecolor-adesk-attrib $-1 -1 $500 $-1 $338 -1026895378 #
vertex $-1 -1 $-1 $367 $501 #
vertex $-1 -1 $-1 $338 $502 #
straight-curve $-1 -1 $-1 1390.5056402595301 774.3540156324193 79.5 2.7755575615628999e-14 -6.2450045135165257e-14 1000 F 0 F 0.022700000000000012 #
truecolor-adesk-attrib $-1 -1 $503 $-1 $339 -1026895378 #
ellipse-curve $-1 -1 $-1 1349.5784299840752 752.31573169131548 104.5 -1.4289255015688287e-18 5.6486335847101435e-17 1 -1.0128155304406816 4.1275543244514967 -2.345976577379547e-16 1 F 5.2861302244703981e-63 F 3.1415926535897931 #
DXID-attrib $-1 -1 $-1 $340 $196 @18 ASM_FACE_FROM_STEP @33 Assy Total Kursi Pijat Biru-38582 #
fmesh-eye-attrib $-1 -1 $504 $341 $269 #
truecolor-adesk-attrib $-1 -1 $505 $-1 $342 -1026895378 #
face $506 -1 $-1 $507 $468 $3 $-1 $508 forward single #
plane-surface $-1 -1 $-1 1559.9871404285016 818.00056303854205 102.2 0.97118925281211443 0.23830953657427745 -1.2073475428308924e-17 -2.7755575615629e-17 6.2450045135165253e-17 -1 forward_v I I I I #
coedge $-1 -1 $-1 $509 $510 $354 $443 forward $343 $-1 #
coedge $-1 -1 $-1 $352 $345 $511 $512 forward $270 $-1 #
coedge $-1 -1 $-1 $345 $474 $513 $514 forward $270 $-1 #
coedge $-1 -1 $-1 $510 $509 $345 $430 reversed $343 $-1 #
edge $515 -1 $-1 $516 0.012299999999999978 $517 0.014999999999999791 $345 $518 forward @7 unknown #
truecolor-adesk-attrib $-1 -1 $519 $-1 $347 -1026895378 #
cone-surface $-1 -1 $-1 1349.5784299840752 752.31573169131548 79.5 -1.4289255015688287e-18 5.6486335847101435e-17 1 -1.0128155304406816 4.1275543244514967 -2.345976577379547e-16 1 I I 0 1 4.2500000000000107 forward I I I I #
coedge $-1 -1 $-1 $511 $355 $350 $434 reversed $445 $-1 #
edge $520 -1 $-1 $439 0 $361 0.0020000000000000018 $350 $521 forward @7 unknown #
coedge $-1 -1 $-1 $358 $522 $351 $436 reversed $452 $-1 #
edge $523 -1 $-1 $362 0 $440 0.0020000000000000018 $351 $524 forward @7 unknown #
coedge $-1 -1 $-1 $376 $352 $522 $525 reversed $270 $-1 #
truecolor-adesk-attrib $-1 -1 $526 $-1 $353 -1026895378 #
vertex $-1 -1 $-1 $353 $527 #
vertex $-1 -1 $-1 $353 $528 #
straight-curve $-1 -1 $-1 1342.5713506960719 738.90963830615522 104.5 971.18925281211443 238.30953657427744 -1.2073475428308865e-14 F 0.0099999999999998927 F 0.20729999999999996 #
coedge $-1 -1 $-1 $449 $354 $529 $530 forward $140 $-1 #
edge $531 -1 $-1 $532 0.012299999999999978 $447 0.014999999999999791 $354 $533 forward @7 unknown #
coedge $-1 -1 $-1 $355 $511 $509 $534 reversed $445 $-1 #
loop $-1 -1 $-1 $-1 $511 $535 #
truecolor-adesk-attrib $-1 -1 $536 $-1 $356 -1026895378 #
vertex $-1 -1 $-1 $356 $537 #
ellipse-curve $-1 -1 $-1 1349.9001478584503 751.00462620001952 102.5 1.4289255015688225e-18 -5.648633584710141e-17 -1 -2.3830953657427649 9.7118925281211634 -5.5199448879518714e-16 1 F -3.1415926535897838 F -1.5707963267949092 #
coedge $-1 -1 $-1 $357 $442 $538 $539 forward $140 $-1 #
edge $540 -1 $-1 $493 0.054999999999999938 $454 0.2300000000000002 $409 $541 forward @7 unknown #
coedge $-1 -1 $-1 $522 $358 $383 $483 forward $452 $-1 #
loop $-1 -1 $-1 $-1 $435 $507 #
truecolor-adesk-attrib $-1 -1 $542 $-1 $359 -1026895378 #
vertex $-1 -1 $-1 $543 $544 #
straight-curve $-1 -1 $-1 1477.0968966689434 678.06539058543297 102.5 -518.22421714585187 -855.24479581203491 4.7569140968314041e-14 F -0.16100821407617788 F -0.12890556621030866 #
DXID-attrib $-1 -1 $-1 $360 $283 @18 ASM_EDGE_FROM_STEP @5 26354 #
point $-1 -1 $-1 1352.283243224193 741.29273367189808 102.5 #
point $-1 -1 $-1 1543.8988828040233 788.31120523800325 102.5 #
edge $545 -1 $-1 $373 0 $416 0.0020000000000000018 $365 $546 forward @7 unknown #
coedge $-1 -1 $-1 $370 $495 $366 $461 forward $468 $-1 #
edge $547 -1 $-1 $463 0 $374 0.0020000000000000018 $366 $548 forward @7 unknown #
truecolor-adesk-attrib $-1 -1 $549 $-1 $367 -1026895378 #
vertex $-1 -1 $-1 $367 $550 #
straight-curve $-1 -1 $-1 1337.0902313548634 761.2469911208342 79.5 971.18925281211443 238.30953657427744 -1.2073475428308865e-14 F 0.05500000000000016 F 0.23000000000000009 #
truecolor-adesk-attrib $-1 -1 $551 $-1 $369 -1026895378 #
straight-curve $-1 -1 $-1 1390.0290211863814 776.29639413804352 79.5 -2.7755575615628999e-14 6.2450045135165257e-14 -1000 F -0.022700000000000012 F 0 #
coedge $-1 -1 $-1 $495 $370 $384 $484 forward $468 $-1 #
loop $-1 -1 $-1 $-1 $370 $424 #
truecolor-adesk-attrib $-1 -1 $552 $-1 $371 -1026895378 #
straight-curve $-1 -1 $-1 1559.9871404285016 818.00056303854205 79.5 2.7755575615628999e-14 -6.2450045135165257e-14 1000 F 0 F 0.022700000000000012 #
DXID-attrib $-1 -1 $-1 $372 $290 @18 ASM_EDGE_FROM_STEP @4 8515 #
point $-1 -1 $-1 1390.0290211863814 776.29639413804352 79.5 #
point $-1 -1 $-1 1559.9871404285016 818.00056303854205 79.5 #
coedge $-1 -1 $-1 $428 $376 $553 $554 reversed $270 $-1 #
truecolor-adesk-attrib $-1 -1 $555 $-1 $377 -1026895378 #
straight-curve $-1 -1 $-1 1337.1617242158359 760.95563434499024 104.5 971.18925281211443 238.30953657427744 -1.2073475428308865e-14 F 0.054999999999999938 F 0.2300000000000002 #
coedge $-1 -1 $-1 $538 $553 $378 $478 reversed $556 $-1 #
edge $557 -1 $-1 $493 0.023000000000000007 $381 0.025000000000000008 $477 $558 forward @7 unknown #
face $559 -1 $-1 $535 $379 $3 $-1 $560 forward single #
DXID-attrib $-1 -1 $-1 $380 $293 @18 ASM_EDGE_FROM_STEP @5 11274 #
point $-1 -1 $-1 1390.5771331205019 774.06265885657581 104.5 #
coedge $-1 -1 $-1 $384 $383 $491 $543 reversed $385 $-1 #
edge $561 -1 $-1 $454 0 $387 0.0020000000000000018 $383 $562 forward @7 unknown #
edge $563 -1 $-1 $298 0 $498 0.0020000000000000018 $384 $564 forward @7 unknown #
DXID-attrib $-1 -1 $-1 $386 $295 @18 ASM_EDGE_FROM_STEP @5 33047 #
point $-1 -1 $-1 1560.5352523626223 815.76682775707422 104.5 #
DXID-attrib $-1 -1 $-1 $392 $301 @18 ASM_EDGE_FROM_STEP @5 24070 #
DXID-attrib $-1 -1 $-1 $399 $316 @18 ASM_EDGE_FROM_STEP @2 25 #
fmesh-eye-attrib $-1 -1 $565 $401 $317 #
DXID-attrib $-1 -1 $-1 $405 $249 @18 ASM_FACE_FROM_STEP @33 Assy Total Kursi Pijat Biru-40067 #
coedge $-1 -1 $-1 $409 $408 $482 $543 forward $264 $-1 #
truecolor-adesk-attrib $-1 -1 $566 $-1 $411 -1026895378 #
vertex $-1 -1 $-1 $411 $567 #
ellipse-curve $-1 -1 $-1 1390.5771331205019 774.06265885657581 102.2 0.97118925281211443 0.23830953657427745 -1.2073475428308866e-17 8.3266726846886645e-18 -1.8735013540549515e-17 0.29999999999999993 1 F -1.5707963267948966 F 1.1170914907699718e-84 #
coedge $-1 -1 $-1 $460 $467 $412 $496 reversed $468 $-1 #
edge $568 -1 $-1 $463 0 $498 0.022700000000000012 $412 $569 forward @7 unknown #
truecolor-adesk-attrib $-1 -1 $570 $-1 $413 -1026895378 #
vertex $-1 -1 $-1 $496 $571 #
straight-curve $-1 -1 $-1 1337.0902313548634 761.2469911208342 102.2 971.18925281211443 238.30953657427744 -1.2073475428308865e-14 F 0.05500000000000016 F 0.23000000000000009 #
DXID-attrib $-1 -1 $-1 $415 $338 @18 ASM_EDGE_FROM_STEP @5 23191 #
point $-1 -1 $-1 1390.5056402595301 774.3540156324193 79.5 #
point $-1 -1 $-1 1390.5056402595301 774.3540156324193 102.2 #
DXID-attrib $-1 -1 $-1 $419 $339 @18 ASM_EDGE_FROM_STEP @5 13294 #
DXID-attrib $-1 -1 $-1 $422 $269 @18 ASM_FACE_FROM_STEP @33 Assy Total Kursi Pijat Biru-10715 #
fmesh-eye-attrib $-1 -1 $572 $423 $342 #
truecolor-adesk-attrib $-1 -1 $573 $-1 $424 -1026895378 #
face $574 -1 $-1 $575 $452 $3 $-1 $576 reversed single #
plane-surface $-1 -1 $-1 1560.5352523626223 815.76682775707422 102.5 0.97118925281211443 0.23830953657427745 -1.2073475428308924e-17 -2.7755575615629e-17 6.2450045135165253e-17 -1 forward_v I I I I #
coedge $-1 -1 $-1 $429 $426 $444 $534 forward $343 $-1 #
coedge $-1 -1 $-1 $426 $429 $577 $578 forward $343 $-1 #
coedge $-1 -1 $-1 $444 $433 $427 $512 reversed $445 $-1 #
edge $579 -1 $-1 $517 1.5707963267949077 $439 3.1415926535897825 $427 $580 forward @7 unknown #
coedge $-1 -1 $-1 $581 $577 $428 $514 reversed $582 $-1 #
edge $583 -1 $-1 $584 2.1316282072802971e-14 $516 1.5707963267948966 $428 $585 forward @7 unknown #
truecolor-adesk-attrib $-1 -1 $586 $-1 $430 -1026895378 #
vertex $-1 -1 $-1 $430 $587 #
vertex $-1 -1 $-1 $430 $588 #
straight-curve $-1 -1 $-1 1336.6136122817152 763.18936962645807 104.5 238.30953657427744 -971.18925281211443 5.5199448879518775e-14 F 0.012299999999999978 F 0.014999999999999791 #
fmesh-eye-attrib $-1 -1 $589 $431 $347 #
truecolor-adesk-attrib $-1 -1 $590 $-1 $434 -1026895378 #
straight-curve $-1 -1 $-1 1352.283243224193 741.29273367189808 104.5 -2.7755575615628999e-14 6.2450045135165257e-14 -1000 F 0 F 0.0020000000000000018 #
coedge $-1 -1 $-1 $435 $451 $437 $525 forward $452 $-1 #
truecolor-adesk-attrib $-1 -1 $591 $-1 $436 -1026895378 #
straight-curve $-1 -1 $-1 1543.8988828040233 788.31120523800325 102.5 -1.4289255015688325e-15 5.648633584710145e-14 1000 F 0 F 0.0020000000000000018 #
edge $592 -1 $-1 $387 -0.16100821407617788 $440 -0.12890556621030866 $437 $593 forward @7 unknown #
DXID-attrib $-1 -1 $-1 $438 $353 @18 ASM_EDGE_FROM_STEP @5 21192 #
point $-1 -1 $-1 1352.283243224193 741.29273367189808 104.5 #
point $-1 -1 $-1 1543.8988828040233 788.31120523800325 104.5 #
coedge $-1 -1 $-1 $577 $581 $442 $530 reversed $582 $-1 #
edge $594 -1 $-1 $532 -1.5707963267949632 $595 -8.7929663550312272e-14 $442 $596 forward @7 unknown #
truecolor-adesk-attrib $-1 -1 $597 $-1 $443 -1026895378 #
vertex $-1 -1 $-1 $443 $598 #
straight-curve $-1 -1 $-1 1336.6136122817152 763.18936962645807 102.5 238.30953657427744 -971.18925281211443 5.5199448879518775e-14 F 0.012299999999999978 F 0.014999999999999791 #
edge $599 -1 $-1 $447 0.00029999999999999472 $517 0.0022999999999999965 $509 $600 forward @7 unknown #
face $601 -1 $-1 $602 $445 $3 $-1 $603 forward single #
DXID-attrib $-1 -1 $-1 $446 $356 @18 ASM_EDGE_FROM_STEP @4 3067 #
point $-1 -1 $-1 1340.188255330329 748.62153083427654 102.5 #
coedge $-1 -1 $-1 $604 $477 $449 $539 reversed $556 $-1 #
edge $605 -1 $-1 $595 0.0099999999999998927 $493 0.054999999999999938 $449 $606 forward @7 unknown #
truecolor-adesk-attrib $-1 -1 $607 $-1 $450 -1026895378 #
straight-curve $-1 -1 $-1 1337.1617242158359 760.95563434499024 102.5 971.18925281211443 238.30953657427744 -1.2073475428308865e-14 F 0.054999999999999938 F 0.2300000000000002 #
DXID-attrib $-1 -1 $-1 $453 $359 @18 ASM_EDGE_FROM_STEP @5 38975 #
edge $608 -1 $-1 $498 -1.5707963267948966 $454 1.1170914907699718e-84 $491 $609 forward @7 unknown #
point $-1 -1 $-1 1560.5352523626223 815.76682775707422 102.5 #
truecolor-adesk-attrib $-1 -1 $610 $-1 $459 -1026895378 #
straight-curve $-1 -1 $-1 1390.0290211863814 776.29639413804352 79.5 238.30953657427744 -971.18925281211443 -6.7265231035216398e-14 F 0 F 0.0020000000000000018 #
truecolor-adesk-attrib $-1 -1 $611 $-1 $461 -1026895378 #
straight-curve $-1 -1 $-1 1560.46375950165 816.05818453291783 79.5 -238.30953657427744 971.18925281211443 6.7265231035216398e-14 F 0 F 0.0020000000000000018 #
DXID-attrib $-1 -1 $-1 $462 $367 @18 ASM_EDGE_FROM_STEP @4 2853 #
point $-1 -1 $-1 1560.46375950165 816.05818453291783 79.5 #
DXID-attrib $-1 -1 $-1 $465 $369 @18 ASM_EDGE_FROM_STEP @5 13724 #
DXID-attrib $-1 -1 $-1 $469 $371 @18 ASM_EDGE_FROM_STEP @4 3485 #
coedge $-1 -1 $-1 $477 $604 $474 $554 forward $556 $-1 #
edge $612 -1 $-1 $584 0.0099999999999998927 $381 0.054999999999999938 $474 $613 forward @7 unknown #
DXID-attrib $-1 -1 $-1 $475 $377 @18 ASM_EDGE_FROM_STEP @5 12954 #
loop $-1 -1 $-1 $-1 $538 $575 #
truecolor-adesk-attrib $-1 -1 $614 $-1 $478 -1026895378 #
straight-curve $-1 -1 $-1 1390.5771331205019 774.06265885657581 79.5 2.7755575615628999e-14 -6.2450045135165257e-14 1000 F 0.023000000000000007 F 0.025000000000000008 #
truecolor-adesk-attrib $-1 -1 $615 $-1 $479 -1026895378 #
plane-surface $-1 -1 $-1 1390.5771331205019 774.06265885657581 79.5 -0.97118925281211443 -0.23830953657427745 1.2073475428308924e-17 2.7755575615629e-17 -6.2450045135165253e-17 1 forward_v I I I I #
truecolor-adesk-attrib $-1 -1 $616 $-1 $483 -1026895378 #
straight-curve $-1 -1 $-1 1560.5352523626223 815.76682775707422 102.5 -2.3919567839940163e-14 1.4814305442352875e-13 1000 F 0 F 0.0020000000000000018 #
truecolor-adesk-attrib $-1 -1 $617 $-1 $484 -1026895378 #
straight-curve $-1 -1 $-1 1559.9871404285016 818.00056303854205 102.2 238.30953657427744 -971.18925281211443 -6.7265231035216398e-14 F 0 F 0.0020000000000000018 #
DXID-attrib $-1 -1 $-1 $489 $317 @18 ASM_FACE_FROM_STEP @32 Assy Total Kursi Pijat Biru-9680 #
DXID-attrib $-1 -1 $-1 $492 $411 @18 ASM_EDGE_FROM_STEP @4 4125 #
point $-1 -1 $-1 1390.5771331205019 774.06265885657581 102.5 #
truecolor-adesk-attrib $-1 -1 $618 $-1 $496 -1026895378 #
straight-curve $-1 -1 $-1 1560.46375950165 816.05818453291783 79.5 2.7755575615628999e-14 -6.2450045135165257e-14 1000 F 0 F 0.022700000000000012 #
DXID-attrib $-1 -1 $-1 $497 $413 @18 ASM_EDGE_FROM_STEP @5 18052 #
point $-1 -1 $-1 1560.46375950165 816.05818453291783 102.2 #
DXID-attrib $-1 -1 $-1 $505 $342 @18 ASM_FACE_FROM_STEP @33 Assy Total Kursi Pijat Biru-12991 #
fmesh-eye-attrib $-1 -1 $619 $506 $424 #
truecolor-adesk-attrib $-1 -1 $620 $-1 $507 -1026895378 #
face $621 -1 $-1 $479 $556 $3 $-1 $622 reversed single #
plane-surface $-1 -1 $-1 1477.0968966689434 678.06539058543297 102.5 -0.85524479581203483 0.51822421714585176 -3.0494668272621804e-17 -0.51822421714585176 -0.85524479581203483 4.756914096831405e-17 forward_v I I I I #
coedge $-1 -1 $-1 $513 $529 $510 $578 reversed $582 $-1 #
edge $623 -1 $-1 $516 -0.0020000000000000018 $532 0 $510 $624 forward @7 unknown #
truecolor-adesk-attrib $-1 -1 $625 $-1 $512 -1026895378 #
ellipse-curve $-1 -1 $-1 1349.9001478584503 751.00462620001952 104.5 -1.4289255015688225e-18 5.648633584710141e-17 1 -2.3830953657427782 9.7118925281211599 -5.5199448879518694e-16 1 F 1.5707963267949077 F 3.1415926535897825 #
coedge $-1 -1 $-1 $529 $513 $604 $626 reversed $582 $-1 #
loop $-1 -1 $-1 $-1 $513 $602 #
truecolor-adesk-attrib $-1 -1 $627 $-1 $514 -1026895378 #
vertex $-1 -1 $-1 $554 $628 #
ellipse-curve $-1 -1 $-1 1349.2567121096999 753.62683718261189 104.5 -1.4289255015688225e-18 5.648633584710141e-17 1 -2.3830953657427782 9.7118925281211599 -5.5199448879518694e-16 1 F 2.1316282072802971e-14 F 1.5707963267948966 #
DXID-attrib $-1 -1 $-1 $515 $430 @18 ASM_EDGE_FROM_STEP @5 31791 #
point $-1 -1 $-1 1339.5448195815786 751.24374181686915 104.5 #
point $-1 -1 $-1 1340.188255330329 748.62153083427654 104.5 #
DXID-attrib $-1 -1 $-1 $519 $347 @18 ASM_FACE_FROM_STEP @32 Assy Total Kursi Pijat Biru-3027 #
DXID-attrib $-1 -1 $-1 $520 $434 @18 ASM_EDGE_FROM_STEP @5 34003 #
DXID-attrib $-1 -1 $-1 $523 $436 @18 ASM_EDGE_FROM_STEP @5 10728 #
truecolor-adesk-attrib $-1 -1 $629 $-1 $525 -1026895378 #
straight-curve $-1 -1 $-1 1477.0968966689434 678.06539058543297 104.5 -518.22421714585187 -855.24479581203491 4.7569140968314041e-14 F -0.16100821407617788 F -0.12890556621030866 #
truecolor-adesk-attrib $-1 -1 $630 $-1 $530 -1026895378 #
vertex $-1 -1 $-1 $530 $631 #
ellipse-curve $-1 -1 $-1 1349.2567121096999 753.62683718261189 102.5 1.4289255015688225e-18 -5.648633584710141e-17 -1 -2.3830953657421312 9.711892528121318 -5.5199448879519503e-16 1 F -1.5707963267949632 F -8.7929663550312272e-14 #
DXID-attrib $-1 -1 $-1 $531 $443 @18 ASM_EDGE_FROM_STEP @5 31319 #
point $-1 -1 $-1 1339.5448195815786 751.24374181686915 102.5 #
truecolor-adesk-attrib $-1 -1 $632 $-1 $534 -1026895378 #
straight-curve $-1 -1 $-1 1340.188255330329 748.62153083427654 102.2 2.7755575615628999e-14 -6.2450045135165257e-14 1000 F 0.00029999999999999472 F 0.0022999999999999965 #
truecolor-adesk-attrib $-1 -1 $633 $-1 $535 -1026895378 #
face $634 -1 $-1 $347 $582 $3 $-1 $635 forward single #
cone-surface $-1 -1 $-1 1349.9001478584503 751.00462620001952 104.5 -2.7755575615629e-17 6.2450045135165253e-17 -1 -9.7118925281211528 -2.3830953657427765 1.2073475428308935e-16 1 I I 0 1 10.000000000000009 forward I I I I #
coedge $-1 -1 $-1 $553 $538 $581 $626 forward $556 $-1 #
truecolor-adesk-attrib $-1 -1 $636 $-1 $539 -1026895378 #
straight-curve $-1 -1 $-1 1337.1617242158359 760.95563434499024 102.5 971.18925281211443 238.30953657427744 -1.2073475428308865e-14 F 0.0099999999999998927 F 0.054999999999999938 #
DXID-attrib $-1 -1 $-1 $540 $450 @18 ASM_EDGE_FROM_STEP @5 15744 #
truecolor-adesk-attrib $-1 -1 $637 $-1 $543 -1026895378 #
ellipse-curve $-1 -1 $-1 1560.5352523626223 815.76682775707422 102.2 0.97118925281211443 0.23830953657427745 -1.2073475428308866e-17 8.3266726846886645e-18 -1.8735013540549515e-17 0.29999999999999993 1 F -1.5707963267948966 F 1.1170914907699718e-84 #
DXID-attrib $-1 -1 $-1 $545 $459 @18 ASM_EDGE_FROM_STEP @4 1415 #
DXID-attrib $-1 -1 $-1 $547 $461 @18 ASM_EDGE_FROM_STEP @5 23776 #
truecolor-adesk-attrib $-1 -1 $638 $-1 $554 -1026895378 #
straight-curve $-1 -1 $-1 1337.1617242158359 760.95563434499024 104.5 971.18925281211443 238.30953657427744 -1.2073475428308865e-14 F 0.0099999999999998927 F 0.054999999999999938 #
DXID-attrib $-1 -1 $-1 $557 $478 @18 ASM_EDGE_FROM_STEP @5 31005 #
fmesh-eye-attrib $-1 -1 $639 $559 $479 #
DXID-attrib $-1 -1 $-1 $561 $483 @18 ASM_EDGE_FROM_STEP @5 15934 #
DXID-attrib $-1 -1 $-1 $563 $484 @18 ASM_EDGE_FROM_STEP @5 23922 #
DXID-attrib $-1 -1 $-1 $568 $496 @18 ASM_EDGE_FROM_STEP @5 14108 #
DXID-attrib $-1 -1 $-1 $573 $424 @18 ASM_FACE_FROM_STEP @33 Assy Total Kursi Pijat Biru-10519 #
fmesh-eye-attrib $-1 -1 $640 $574 $507 #
truecolor-adesk-attrib $-1 -1 $641 $-1 $575 -1026895378 #
plane-surface $-1 -1 $-1 1390.5771331205019 774.06265885657581 79.5 0.23830953657427745 -0.97118925281211443 -6.72652310352164e-17 0.97118925281211443 0.23830953657427745 -1.2073475428308866e-17 forward_v I I I I #
truecolor-adesk-attrib $-1 -1 $642 $-1 $578 -1026895378 #
straight-curve $-1 -1 $-1 1339.5448195815786 751.24374181686915 102.5 -2.7755575615628999e-14 6.2450045135165257e-14 -1000 F -0.0020000000000000018 F 0 #
DXID-attrib $-1 -1 $-1 $579 $512 @18 ASM_EDGE_FROM_STEP @4 6968 #
edge $643 -1 $-1 $595 -0.0020000000000000018 $584 0 $604 $644 forward @7 unknown #
DXID-attrib $-1 -1 $-1 $583 $514 @18 ASM_EDGE_FROM_STEP @5 18384 #
point $-1 -1 $-1 1346.8736167439567 763.33872971073322 104.5 #
DXID-attrib $-1 -1 $-1 $592 $525 @18 ASM_EDGE_FROM_STEP @5 34298 #
DXID-attrib $-1 -1 $-1 $594 $530 @18 ASM_EDGE_FROM_STEP @5 22750 #
point $-1 -1 $-1 1346.8736167439567 763.33872971073322 102.5 #
DXID-attrib $-1 -1 $-1 $599 $534 @18 ASM_EDGE_FROM_STEP @5 27010 #
fmesh-eye-attrib $-1 -1 $645 $601 $535 #
truecolor-adesk-attrib $-1 -1 $646 $-1 $602 -1026895378 #
cone-surface $-1 -1 $-1 1349.2567121096999 753.62683718261189 102.2 2.7755575615629e-17 -6.2450045135165253e-17 1 9.7118925281211528 2.3830953657427765 -1.2073475428308935e-16 1 I I 0 1 10.000000000000009 forward I I I I #
DXID-attrib $-1 -1 $-1 $605 $539 @18 ASM_EDGE_FROM_STEP @5 39287 #
DXID-attrib $-1 -1 $-1 $608 $543 @18 ASM_EDGE_FROM_STEP @4 9826 #
DXID-attrib $-1 -1 $-1 $612 $554 @18 ASM_EDGE_FROM_STEP @5 17720 #
DXID-attrib $-1 -1 $-1 $615 $479 @18 ASM_FACE_FROM_STEP @33 Assy Total Kursi Pijat Biru-34684 #
DXID-attrib $-1 -1 $-1 $620 $507 @18 ASM_FACE_FROM_STEP @33 Assy Total Kursi Pijat Biru-27089 #
fmesh-eye-attrib $-1 -1 $647 $621 $575 #
DXID-attrib $-1 -1 $-1 $623 $578 @18 ASM_EDGE_FROM_STEP @4 2183 #
truecolor-adesk-attrib $-1 -1 $648 $-1 $626 -1026895378 #
straight-curve $-1 -1 $-1 1346.8736167439567 763.33872971073322 104.5 2.7755575615628999e-14 -6.2450045135165257e-14 1000 F -0.0020000000000000018 F 0 #
DXID-attrib $-1 -1 $-1 $633 $535 @18 ASM_FACE_FROM_STEP @33 Assy Total Kursi Pijat Biru-25868 #
fmesh-eye-attrib $-1 -1 $649 $634 $602 #
DXID-attrib $-1 -1 $-1 $641 $575 @18 ASM_FACE_FROM_STEP @33 Assy Total Kursi Pijat Biru-32415 #
DXID-attrib $-1 -1 $-1 $643 $626 @18 ASM_EDGE_FROM_STEP @5 12902 #
DXID-attrib $-1 -1 $-1 $646 $602 @18 ASM_FACE_FROM_STEP @33 Assy Total Kursi Pijat Biru-19030 #
