700 504 1 0         
5 ZWCAD 12 ACIS 28.0 NT 24 Mon May 13 11:47:53 2024 
1 9.9999999999999995e-07 1e-10 
body $1 -1 $-1 $2 $-1 $-1 #
DXID-attrib $-1 -1 $-1 $-1 $0 @18 ASM_BODY_FROM_STEP @83 013228AC432CA413B79E0EA5573DD436B39D7037|:|169E00B7DA513893AE01579072656FE5B3FC569D #
lump $-1 -1 $-1 $-1 $3 $0 #
shell $-1 -1 $-1 $-1 $-1 $4 $-1 $2 #
face $5 -1 $-1 $6 $7 $3 $-1 $8 forward single #
truecolor-adesk-attrib $-1 -1 $9 $-1 $4 -1026895378 #
face $10 -1 $-1 $11 $12 $3 $-1 $13 forward single #
loop $-1 -1 $-1 $-1 $14 $4 #
torus-surface $-1 -1 $-1 504.64408023409294 342.17973098459726 -30.000000000000011 0.79948591219963638 -0.600684839324513 1.1273354115452251e-17 5.0000000000000009 3.0000000000000004 -1.110223024625157e-16 -1.6653345369377346e-16 -1.0000000000000002 forward_v I I I I #
fmesh-eye-attrib $-1 -1 $15 $5 $4 #
truecolor-adesk-attrib $-1 -1 $16 $-1 $6 -1026895378 #
face $17 -1 $-1 $18 $19 $3 $-1 $20 forward single #
loop $-1 -1 $-1 $-1 $21 $6 #
torus-surface $-1 -1 $-1 405.53108174554802 210.26455547165708 -19.999999999999968 -0.79948591219963638 0.600684839324513 -1.1273354115452251e-17 4.9999999999999982 3.0000000000000004 1.110223024625157e-16 1.6653345369377346e-16 1.0000000000000002 forward_v I I I I #
coedge $-1 -1 $-1 $22 $23 $24 $25 reversed $7 $-1 #
DXID-attrib $-1 -1 $-1 $9 $4 @18 ASM_FACE_FROM_STEP @32 Assy Total Kursi Pijat Biru-9503 #
fmesh-eye-attrib $-1 -1 $26 $10 $6 #
truecolor-adesk-attrib $-1 -1 $27 $-1 $11 -1026895378 #
face $28 -1 $-1 $29 $30 $3 $-1 $31 forward single #
loop $-1 -1 $-1 $-1 $32 $11 #
torus-surface $-1 -1 $-1 405.53108174554802 210.26455547165708 20.000000000000039 -0.79948591219963638 0.600684839324513 -1.1273354115452251e-17 5.0000000000000044 3.0000000000000004 1.110223024625157e-16 1.6653345369377346e-16 1.0000000000000002 forward_v I I I I #
coedge $-1 -1 $-1 $33 $34 $35 $36 reversed $12 $-1 #
coedge $-1 -1 $-1 $37 $14 $38 $39 forward $7 $-1 #
coedge $-1 -1 $-1 $14 $40 $41 $42 reversed $7 $-1 #
coedge $-1 -1 $-1 $43 $44 $14 $25 forward $45 $-1 #
edge $46 -1 $-1 $47 1.5707963267948966 $48 4.7123889803846897 $14 $49 forward @7 unknown #
DXID-attrib $-1 -1 $-1 $16 $6 @18 ASM_FACE_FROM_STEP @33 Assy Total Kursi Pijat Biru-38276 #
fmesh-eye-attrib $-1 -1 $50 $17 $11 #
truecolor-adesk-attrib $-1 -1 $51 $-1 $18 -1026895378 #
face $52 -1 $-1 $53 $45 $3 $-1 $54 forward single #
loop $-1 -1 $-1 $-1 $55 $18 #
torus-surface $-1 -1 $-1 504.64408023409294 342.17973098459726 30.000000000000011 0.79948591219963638 -0.600684839324513 1.1273354115452251e-17 5.000000000000008 3.0000000000000004 -1.110223024625157e-16 -1.6653345369377346e-16 -1.0000000000000002 forward_v I I I I #
coedge $-1 -1 $-1 $56 $57 $58 $59 reversed $19 $-1 #
coedge $-1 -1 $-1 $60 $21 $61 $62 forward $12 $-1 #
coedge $-1 -1 $-1 $21 $63 $64 $65 reversed $12 $-1 #
coedge $-1 -1 $-1 $66 $67 $21 $36 forward $68 $-1 #
edge $69 -1 $-1 $70 -1.5707963267948966 $71 0 $21 $72 forward @7 unknown #
coedge $-1 -1 $-1 $40 $22 $73 $74 forward $7 $-1 #
coedge $-1 -1 $-1 $75 $76 $22 $39 reversed $77 $-1 #
edge $78 -1 $-1 $47 -3.1415926535897931 $79 -1.5707963267948966 $22 $80 forward @7 unknown #
coedge $-1 -1 $-1 $23 $37 $81 $82 forward $7 $-1 #
coedge $-1 -1 $-1 $83 $75 $23 $42 forward $77 $-1 #
edge $84 -1 $-1 $48 -3.1415926535897931 $85 -1.5707963267948966 $23 $86 forward @7 unknown #
coedge $-1 -1 $-1 $87 $24 $88 $89 forward $45 $-1 #
coedge $-1 -1 $-1 $24 $87 $90 $91 reversed $45 $-1 #
loop $-1 -1 $-1 $-1 $24 $29 #
truecolor-adesk-attrib $-1 -1 $92 $-1 $25 -1026895378 #
vertex $-1 -1 $-1 $25 $93 #
vertex $-1 -1 $-1 $25 $94 #
ellipse-curve $-1 -1 $-1 507.64750443071523 346.17716054559537 -30.000000000000011 -1.1102230246251552e-16 -1.6653345369377341e-16 -1.0000000000000002 -2.398457736598913 1.8020545179735421 -3.3820062346357181e-17 1 F 1.5707963267948966 F 4.7123889803846897 #
DXID-attrib $-1 -1 $-1 $27 $11 @18 ASM_FACE_FROM_STEP @33 Assy Total Kursi Pijat Biru-21588 #
fmesh-eye-attrib $-1 -1 $95 $28 $18 #
truecolor-adesk-attrib $-1 -1 $96 $-1 $29 -1026895378 #
face $97 -1 $-1 $98 $68 $3 $-1 $99 forward single #
cone-surface $-1 -1 $-1 507.64750443071523 346.17716054559537 -30.000000000000011 -1.6312340708449501e-16 -2.3587780272404552e-16 -1.0000000000000002 1.8020545179735419 2.3984577365989126 -8.5970021355929022e-16 1 I I 0 1 3.0000000000000049 forward I I I I #
coedge $-1 -1 $-1 $100 $101 $102 $103 reversed $30 $-1 #
coedge $-1 -1 $-1 $104 $32 $105 $106 forward $19 $-1 #
coedge $-1 -1 $-1 $32 $107 $108 $109 reversed $19 $-1 #
coedge $-1 -1 $-1 $110 $111 $32 $59 forward $112 $-1 #
edge $113 -1 $-1 $114 -1.570796326794915 $115 -1.7992017823113398e-78 $32 $116 forward @7 unknown #
coedge $-1 -1 $-1 $117 $33 $118 $119 forward $12 $-1 #
coedge $-1 -1 $-1 $120 $121 $33 $62 reversed $122 $-1 #
edge $123 -1 $-1 $70 1.5707963267948966 $124 3.141592653589794 $33 $125 forward @7 unknown #
coedge $-1 -1 $-1 $34 $117 $126 $127 reversed $12 $-1 #
coedge $-1 -1 $-1 $128 $129 $34 $65 forward $130 $-1 #
edge $131 -1 $-1 $71 0 $132 1.5707963267948968 $34 $133 forward @7 unknown #
coedge $-1 -1 $-1 $134 $35 $129 $135 reversed $68 $-1 #
coedge $-1 -1 $-1 $35 $136 $120 $137 forward $68 $-1 #
loop $-1 -1 $-1 $-1 $81 $53 #
truecolor-adesk-attrib $-1 -1 $138 $-1 $36 -1026895378 #
vertex $-1 -1 $-1 $36 $139 #
vertex $-1 -1 $-1 $36 $140 #
ellipse-curve $-1 -1 $-1 405.53108174554802 210.26455547165708 -24.999999999999972 0.60068483932451289 0.79948591219963616 -2.6106290401162371e-16 -2.398457736598913 1.8020545179735421 -3.3820062346356989e-17 1 F -1.5707963267948966 F 0 #
coedge $-1 -1 $-1 $141 $142 $37 $74 reversed $130 $-1 #
edge $143 -1 $-1 $79 1.5707963267948966 $144 3.1415926535897931 $37 $145 forward @7 unknown #
coedge $-1 -1 $-1 $41 $38 $146 $147 reversed $77 $-1 #
coedge $-1 -1 $-1 $38 $83 $141 $148 forward $77 $-1 #
loop $-1 -1 $-1 $-1 $38 $149 #
truecolor-adesk-attrib $-1 -1 $150 $-1 $39 -1026895378 #
vertex $-1 -1 $-1 $39 $151 #
ellipse-curve $-1 -1 $-1 504.64408023409294 342.17973098459726 -30.000000000000011 0.79948591219963638 -0.600684839324513 1.1273354115452251e-17 -4.8054787145961049 -6.395887297597092 1.5986445124340487e-15 1 F -3.1415926535897931 F -1.5707963267948966 #
coedge $-1 -1 $-1 $136 $134 $40 $82 reversed $68 $-1 #
edge $152 -1 $-1 $144 -3.1415926535897931 $85 -1.5707963267948966 $40 $153 forward @7 unknown #
coedge $-1 -1 $-1 $76 $41 $134 $154 forward $77 $-1 #
truecolor-adesk-attrib $-1 -1 $155 $-1 $42 -1026895378 #
vertex $-1 -1 $-1 $82 $156 #
ellipse-curve $-1 -1 $-1 504.64408023409294 342.17973098459726 -30.000000000000011 0.79948591219963638 -0.600684839324513 1.1273354115452251e-17 -1.2013696786490258 -1.5989718243992723 3.9966112810851198e-16 1 F -3.1415926535897931 F -1.5707963267948966 #
coedge $-1 -1 $-1 $44 $43 $157 $158 reversed $45 $-1 #
coedge $-1 -1 $-1 $146 $159 $43 $89 reversed $160 $-1 #
edge $161 -1 $-1 $48 -3.8518598887744691e-34 $162 0.009999999999999995 $43 $163 forward @7 unknown #
coedge $-1 -1 $-1 $159 $146 $44 $91 forward $160 $-1 #
edge $164 -1 $-1 $47 3.8518598887744691e-34 $165 0.009999999999999995 $44 $166 forward @7 unknown #
DXID-attrib $-1 -1 $-1 $46 $25 @18 ASM_EDGE_FROM_STEP @5 25095 #
point $-1 -1 $-1 509.44955894868878 348.57561828219428 -30.000000000000011 #
point $-1 -1 $-1 505.84544991274169 343.77870280899646 -30.000000000000011 #
DXID-attrib $-1 -1 $-1 $51 $18 @18 ASM_FACE_FROM_STEP @33 Assy Total Kursi Pijat Biru-17762 #
fmesh-eye-attrib $-1 -1 $167 $52 $29 #
truecolor-adesk-attrib $-1 -1 $168 $-1 $53 -1026895378 #
face $169 -1 $-1 $170 $171 $3 $-1 $172 forward single #
cone-surface $-1 -1 $-1 504.64408023409294 342.17973098459726 -25.000000000000007 -0.60068483932451289 -0.79948591219963616 1.9983056405425614e-16 -2.398457736598913 1.8020545179735421 -3.3820062346356977e-17 1 I I 0 1 3.0000000000000049 forward I I I I #
coedge $-1 -1 $-1 $173 $55 $174 $175 forward $30 $-1 #
coedge $-1 -1 $-1 $55 $176 $177 $178 reversed $30 $-1 #
coedge $-1 -1 $-1 $179 $180 $55 $103 forward $181 $-1 #
edge $182 -1 $-1 $183 1.5707963267948966 $184 3.1415926535897931 $55 $185 forward @7 unknown #
coedge $-1 -1 $-1 $186 $56 $187 $188 forward $19 $-1 #
coedge $-1 -1 $-1 $189 $190 $56 $106 reversed $191 $-1 #
edge $192 -1 $-1 $114 -3.1415926535897918 $193 -1.5707963267948744 $56 $194 forward @7 unknown #
coedge $-1 -1 $-1 $57 $186 $195 $196 reversed $19 $-1 #
coedge $-1 -1 $-1 $197 $198 $57 $109 forward $171 $-1 #
edge $199 -1 $-1 $115 -1.7992017823113398e-78 $200 1.5707963267949152 $57 $201 forward @7 unknown #
coedge $-1 -1 $-1 $118 $58 $198 $202 reversed $112 $-1 #
coedge $-1 -1 $-1 $58 $203 $189 $204 forward $112 $-1 #
loop $-1 -1 $-1 $-1 $110 $205 #
truecolor-adesk-attrib $-1 -1 $206 $-1 $59 -1026895378 #
vertex $-1 -1 $-1 $59 $207 #
vertex $-1 -1 $-1 $59 $208 #
ellipse-curve $-1 -1 $-1 402.52765754892545 206.26712591065899 20.000000000000053 -1.1102230246251552e-16 -1.6653345369377341e-16 -1.0000000000000002 -2.398457736598913 1.8020545179735419 -3.382006234635715e-17 1 F -1.570796326794915 F -1.7992017823113398e-78 #
coedge $-1 -1 $-1 $63 $60 $209 $210 forward $12 $-1 #
coedge $-1 -1 $-1 $211 $110 $60 $119 reversed $112 $-1 #
edge $212 -1 $-1 $124 -1.570796326794915 $213 -1.7992017823113398e-78 $60 $214 forward @7 unknown #
coedge $-1 -1 $-1 $215 $61 $67 $137 reversed $122 $-1 #
coedge $-1 -1 $-1 $61 $216 $211 $217 forward $122 $-1 #
loop $-1 -1 $-1 $-1 $61 $218 #
truecolor-adesk-attrib $-1 -1 $219 $-1 $62 -1026895378 #
vertex $-1 -1 $-1 $62 $220 #
ellipse-curve $-1 -1 $-1 405.53108174554802 210.26455547165708 -19.999999999999968 -0.79948591219963638 0.600684839324513 -1.1273354115452251e-17 4.8054787145961075 6.3958872975970946 -1.5986445124340493e-15 1 F 1.5707963267948966 F 3.141592653589794 #
coedge $-1 -1 $-1 $216 $215 $63 $127 forward $122 $-1 #
edge $221 -1 $-1 $132 1.5707963267948966 $222 3.1415926535897976 $63 $223 forward @7 unknown #
coedge $-1 -1 $-1 $142 $64 $215 $224 forward $130 $-1 #
coedge $-1 -1 $-1 $64 $141 $66 $135 forward $130 $-1 #
loop $-1 -1 $-1 $-1 $142 $225 #
truecolor-adesk-attrib $-1 -1 $226 $-1 $65 -1026895378 #
vertex $-1 -1 $-1 $127 $227 #
ellipse-curve $-1 -1 $-1 405.53108174554802 210.26455547165708 -24.999999999999972 0.60068483932451289 0.79948591219963616 -2.6106290401162371e-16 -2.398457736598913 1.8020545179735421 -3.3820062346356989e-17 1 F 0 F 1.5707963267948968 #
coedge $-1 -1 $-1 $81 $66 $83 $154 reversed $68 $-1 #
edge $228 -1 $-1 $229 0 $71 0.16500000000000037 $66 $230 forward @7 unknown #
coedge $-1 -1 $-1 $67 $81 $142 $231 forward $68 $-1 #
edge $232 -1 $-1 $233 -3.1415926535897931 $70 -1.5707963267948966 $67 $234 forward @7 unknown #
DXID-attrib $-1 -1 $-1 $69 $36 @18 ASM_EDGE_FROM_STEP @5 29822 #
point $-1 -1 $-1 405.53108174554802 210.26455547165708 -27.999999999999982 #
point $-1 -1 $-1 403.13262400894905 212.06660998963062 -24.999999999999972 #
coedge $-1 -1 $-1 $129 $73 $76 $148 reversed $130 $-1 #
coedge $-1 -1 $-1 $73 $128 $136 $231 reversed $130 $-1 #
truecolor-adesk-attrib $-1 -1 $235 $-1 $74 -1026895378 #
vertex $-1 -1 $-1 $74 $236 #
ellipse-curve $-1 -1 $-1 504.64408023409294 342.17973098459726 -25.000000000000007 0.60068483932451289 0.79948591219963616 -2.6106290401162371e-16 -2.398457736598913 1.8020545179735421 -3.3820062346356989e-17 1 F 1.5707963267948966 F 3.1415926535897931 #
coedge $-1 -1 $-1 $90 $88 $75 $147 forward $160 $-1 #
edge $237 -1 $-1 $48 -1.5707963267948968 $47 1.5707963267948966 $75 $238 forward @7 unknown #
edge $239 -1 $-1 $229 0 $79 1.5707963267948966 $141 $240 forward @7 unknown #
face $241 -1 $-1 $242 $77 $3 $-1 $243 forward single #
DXID-attrib $-1 -1 $-1 $78 $39 @18 ASM_EDGE_FROM_STEP @5 35583 #
point $-1 -1 $-1 504.64408023409294 342.17973098459726 -21.999999999999996 #
truecolor-adesk-attrib $-1 -1 $244 $-1 $82 -1026895378 #
ellipse-curve $-1 -1 $-1 504.64408023409294 342.17973098459726 -25.000000000000007 0.60068483932451289 0.79948591219963616 -2.6106290401162371e-16 -2.398457736598913 1.8020545179735421 -3.3820062346356989e-17 1 F -3.1415926535897931 F -1.5707963267948966 #
edge $245 -1 $-1 $85 -1.5707963267948966 $229 0 $134 $246 forward @7 unknown #
DXID-attrib $-1 -1 $-1 $84 $42 @18 ASM_EDGE_FROM_STEP @5 15304 #
point $-1 -1 $-1 504.64408023409294 342.17973098459726 -28.000000000000007 #
coedge $-1 -1 $-1 $247 $247 $87 $158 forward $248 $-1 #
edge $249 -1 $-1 $165 1.5707963267948966 $162 4.7123889803846897 $87 $250 forward @7 unknown #
coedge $-1 -1 $-1 $88 $90 $247 $251 reversed $160 $-1 #
loop $-1 -1 $-1 $-1 $88 $242 #
truecolor-adesk-attrib $-1 -1 $252 $-1 $89 -1026895378 #
vertex $-1 -1 $-1 $89 $253 #
straight-curve $-1 -1 $-1 505.84544991274169 343.77870280899646 -30.000000000000011 -1.6312340708449499e-13 -2.3587780272404555e-13 -1000.0000000000002 F -3.8518598887744691e-34 F 0.009999999999999995 #
truecolor-adesk-attrib $-1 -1 $254 $-1 $91 -1026895378 #
vertex $-1 -1 $-1 $158 $255 #
straight-curve $-1 -1 $-1 509.44955894868878 348.57561828219428 -30.000000000000011 -1.6312340708449499e-13 -2.3587780272404555e-13 -1000.0000000000002 F 3.8518598887744691e-34 F 0.009999999999999995 #
DXID-attrib $-1 -1 $-1 $96 $29 @18 ASM_FACE_FROM_STEP @33 Assy Total Kursi Pijat Biru-11726 #
fmesh-eye-attrib $-1 -1 $256 $97 $53 #
truecolor-adesk-attrib $-1 -1 $257 $-1 $98 -1026895378 #
face $258 -1 $-1 $259 $181 $3 $-1 $260 forward single #
loop $-1 -1 $-1 $-1 $209 $98 #
cone-surface $-1 -1 $-1 402.52765754892545 206.26712591065899 -19.999999999999961 1.1102230246251552e-16 1.6653345369377341e-16 1.0000000000000002 2.398457736598913 -1.8020545179735419 3.382006234635715e-17 1 I I 0 1 3.0000000000000049 forward I I I I #
coedge $-1 -1 $-1 $261 $100 $262 $263 forward $30 $-1 #
coedge $-1 -1 $-1 $264 $265 $100 $175 reversed $266 $-1 #
edge $267 -1 $-1 $183 1.5707963267948966 $268 3.1415926535897953 $100 $269 forward @7 unknown #
coedge $-1 -1 $-1 $101 $261 $270 $271 reversed $30 $-1 #
coedge $-1 -1 $-1 $272 $273 $101 $178 forward $274 $-1 #
edge $275 -1 $-1 $184 -3.1415926535897931 $276 -1.5707963267948966 $101 $277 forward @7 unknown #
coedge $-1 -1 $-1 $278 $102 $273 $279 reversed $181 $-1 #
coedge $-1 -1 $-1 $102 $280 $264 $281 forward $181 $-1 #
loop $-1 -1 $-1 $-1 $282 $170 #
truecolor-adesk-attrib $-1 -1 $283 $-1 $103 -1026895378 #
vertex $-1 -1 $-1 $103 $284 #
vertex $-1 -1 $-1 $103 $285 #
ellipse-curve $-1 -1 $-1 504.64408023409294 342.17973098459726 25.000000000000004 -0.60068483932451289 -0.79948591219963616 1.3859822409688852e-16 -2.398457736598913 1.8020545179735421 -3.3820062346356971e-17 1 F 1.5707963267948966 F 3.1415926535897931 #
coedge $-1 -1 $-1 $107 $104 $282 $286 forward $19 $-1 #
coedge $-1 -1 $-1 $287 $288 $104 $188 reversed $274 $-1 #
edge $289 -1 $-1 $193 -1.5707963267949152 $290 0 $104 $291 forward @7 unknown #
coedge $-1 -1 $-1 $292 $105 $111 $204 reversed $191 $-1 #
coedge $-1 -1 $-1 $105 $293 $287 $294 forward $191 $-1 #
loop $-1 -1 $-1 $-1 $105 $295 #
truecolor-adesk-attrib $-1 -1 $296 $-1 $106 -1026895378 #
vertex $-1 -1 $-1 $106 $297 #
ellipse-curve $-1 -1 $-1 405.53108174554802 210.26455547165708 20.000000000000039 -0.79948591219963638 0.600684839324513 -1.1273354115452251e-17 4.8054787145961075 6.3958872975970946 -1.5986445124340493e-15 1 F -3.1415926535897918 F -1.5707963267948744 #
coedge $-1 -1 $-1 $293 $292 $107 $196 forward $191 $-1 #
edge $298 -1 $-1 $200 -3.1415926535897865 $299 -1.5707963267948077 $107 $300 forward @7 unknown #
coedge $-1 -1 $-1 $301 $108 $292 $302 forward $171 $-1 #
coedge $-1 -1 $-1 $108 $209 $110 $202 forward $171 $-1 #
truecolor-adesk-attrib $-1 -1 $303 $-1 $109 -1026895378 #
vertex $-1 -1 $-1 $196 $304 #
ellipse-curve $-1 -1 $-1 402.52765754892545 206.26712591065899 20.000000000000053 -1.1102230246251552e-16 -1.6653345369377341e-16 -1.0000000000000002 -2.398457736598913 1.8020545179735419 -3.382006234635715e-17 1 F -1.7992017823113398e-78 F 1.5707963267949152 #
edge $305 -1 $-1 $213 -3.007919452206291e-49 $115 0.040000000000000001 $198 $306 forward @7 unknown #
coedge $-1 -1 $-1 $111 $211 $301 $307 forward $112 $-1 #
edge $308 -1 $-1 $309 -3.1415926535897931 $114 -1.570796326794915 $189 $310 forward @7 unknown #
face $311 -1 $-1 $218 $112 $3 $-1 $312 forward single #
DXID-attrib $-1 -1 $-1 $113 $59 @18 ASM_EDGE_FROM_STEP @5 40822 #
point $-1 -1 $-1 400.7256030309519 203.86866817406002 20.000000000000053 #
point $-1 -1 $-1 400.12919981232653 208.06918042863254 20.000000000000053 #
coedge $-1 -1 $-1 $198 $313 $117 $210 reversed $171 $-1 #
edge $314 -1 $-1 $213 -1.7992017823113398e-78 $222 1.5707963267949152 $117 $315 forward @7 unknown #
coedge $-1 -1 $-1 $203 $118 $121 $217 reversed $112 $-1 #
truecolor-adesk-attrib $-1 -1 $316 $-1 $119 -1026895378 #
vertex $-1 -1 $-1 $119 $317 #
ellipse-curve $-1 -1 $-1 402.52765754892545 206.26712591065899 -19.999999999999961 -1.1102230246251552e-16 -1.6653345369377341e-16 -1.0000000000000002 -2.398457736598913 1.8020545179735419 -3.382006234635715e-17 1 F -1.570796326794915 F -1.7992017823113398e-78 #
coedge $-1 -1 $-1 $126 $120 $128 $224 reversed $122 $-1 #
coedge $-1 -1 $-1 $121 $126 $313 $318 forward $122 $-1 #
edge $319 -1 $-1 $320 -3.1415926535897931 $124 -1.570796326794915 $211 $321 forward @7 unknown #
face $322 -1 $-1 $225 $122 $3 $-1 $323 forward single #
DXID-attrib $-1 -1 $-1 $123 $62 @18 ASM_EDGE_FROM_STEP @4 8838 #
point $-1 -1 $-1 400.7256030309519 203.86866817406002 -19.999999999999961 #
truecolor-adesk-attrib $-1 -1 $324 $-1 $127 -1026895378 #
vertex $-1 -1 $-1 $210 $325 #
ellipse-curve $-1 -1 $-1 405.53108174554802 210.26455547165708 -19.999999999999968 -0.79948591219963638 0.600684839324513 -1.1273354115452251e-17 1.2013696786490269 1.5989718243992737 -3.9966112810851233e-16 1 F 1.5707963267948966 F 3.1415926535897976 #
edge $326 -1 $-1 $132 1.5707963267948968 $233 3.1415926535897931 $215 $327 forward @7 unknown #
face $328 -1 $-1 $149 $130 $3 $-1 $329 forward single #
DXID-attrib $-1 -1 $-1 $131 $65 @18 ASM_EDGE_FROM_STEP @4 8809 #
point $-1 -1 $-1 405.53108174554802 210.26455547165708 -21.999999999999968 #
truecolor-adesk-attrib $-1 -1 $330 $-1 $135 -1026895378 #
vertex $-1 -1 $-1 $135 $331 #
straight-curve $-1 -1 $-1 502.24562249749403 343.9817855025708 -25.000000000000007 -600.68483932451284 -799.48591219963612 1.9983056405425615e-13 F 0 F 0.16500000000000037 #
edge $332 -1 $-1 $144 2.1570415377137014e-34 $233 0.16500000000000037 $136 $333 forward @7 unknown #
truecolor-adesk-attrib $-1 -1 $334 $-1 $137 -1026895378 #
vertex $-1 -1 $-1 $231 $335 #
ellipse-curve $-1 -1 $-1 405.53108174554802 210.26455547165708 -24.999999999999972 0.60068483932451289 0.79948591219963616 -2.6106290401162371e-16 -2.398457736598913 1.8020545179735421 -3.3820062346356989e-17 1 F -3.1415926535897931 F -1.5707963267948966 #
DXID-attrib $-1 -1 $-1 $143 $74 @18 ASM_EDGE_FROM_STEP @5 34481 #
point $-1 -1 $-1 507.04253797069185 340.37767646662371 -25.000000000000007 #
truecolor-adesk-attrib $-1 -1 $336 $-1 $147 -1026895378 #
ellipse-curve $-1 -1 $-1 507.64750443071523 346.17716054559537 -30.000000000000011 -1.1102230246251552e-16 -1.6653345369377341e-16 -1.0000000000000002 -2.398457736598913 1.8020545179735421 -3.3820062346357181e-17 1 F -1.5707963267948968 F 1.5707963267948966 #
truecolor-adesk-attrib $-1 -1 $337 $-1 $148 -1026895378 #
ellipse-curve $-1 -1 $-1 504.64408023409294 342.17973098459726 -25.000000000000007 0.60068483932451289 0.79948591219963616 -2.6106290401162371e-16 -2.398457736598913 1.8020545179735421 -3.3820062346356989e-17 1 F 0 F 1.5707963267948966 #
truecolor-adesk-attrib $-1 -1 $338 $-1 $149 -1026895378 #
face $339 -1 $-1 $340 $160 $3 $-1 $341 forward single #
torus-surface $-1 -1 $-1 504.64408023409294 342.17973098459726 -30.000000000000011 0.79948591219963638 -0.600684839324513 1.1273354115452251e-17 5.0000000000000009 3.0000000000000004 -1.110223024625157e-16 -1.6653345369377346e-16 -1.0000000000000002 forward_v I I I I #
DXID-attrib $-1 -1 $-1 $152 $82 @18 ASM_EDGE_FROM_STEP @5 16740 #
truecolor-adesk-attrib $-1 -1 $342 $-1 $154 -1026895378 #
ellipse-curve $-1 -1 $-1 504.64408023409294 342.17973098459726 -25.000000000000007 0.60068483932451289 0.79948591219963616 -2.6106290401162371e-16 -2.398457736598913 1.8020545179735421 -3.3820062346356989e-17 1 F -1.5707963267948966 F 0 #
coedge $-1 -1 $-1 $157 $157 $159 $251 forward $248 $-1 #
loop $-1 -1 $-1 $-1 $157 $343 #
truecolor-adesk-attrib $-1 -1 $344 $-1 $158 -1026895378 #
ellipse-curve $-1 -1 $-1 507.64750443071523 346.17716054559537 -40.000000000000007 -1.1102230246251552e-16 -1.6653345369377341e-16 -1.0000000000000002 -2.398457736598913 1.8020545179735421 -3.3820062346357181e-17 1 F 1.5707963267948966 F 4.7123889803846897 #
edge $345 -1 $-1 $162 -1.5707963267948968 $165 1.5707963267948966 $159 $346 forward @7 unknown #
DXID-attrib $-1 -1 $-1 $161 $89 @18 ASM_EDGE_FROM_STEP @5 17655 #
point $-1 -1 $-1 505.84544991274169 343.77870280899646 -40.000000000000007 #
DXID-attrib $-1 -1 $-1 $164 $91 @18 ASM_EDGE_FROM_STEP @5 31262 #
point $-1 -1 $-1 509.44955894868878 348.57561828219428 -40.000000000000007 #
DXID-attrib $-1 -1 $-1 $168 $53 @18 ASM_FACE_FROM_STEP @33 Assy Total Kursi Pijat Biru-31786 #
fmesh-eye-attrib $-1 -1 $347 $169 $98 #
truecolor-adesk-attrib $-1 -1 $348 $-1 $170 -1026895378 #
face $349 -1 $-1 $350 $351 $3 $-1 $352 forward single #
cone-surface $-1 -1 $-1 405.53108174554802 210.26455547165725 25.000000000000039 0.60068483932451289 0.79948591219963616 -1.9983056405425614e-16 2.398457736598913 -1.8020545179735421 3.3820062346356977e-17 1 I I 0 1 3.0000000000000049 forward I I I I #
coedge $-1 -1 $-1 $176 $173 $353 $354 forward $30 $-1 #
coedge $-1 -1 $-1 $355 $356 $173 $263 reversed $351 $-1 #
edge $357 -1 $-1 $268 1.5707963267949523 $358 3.1415926535897931 $173 $359 forward @7 unknown #
coedge $-1 -1 $-1 $360 $174 $180 $281 reversed $266 $-1 #
coedge $-1 -1 $-1 $174 $361 $355 $362 forward $266 $-1 #
loop $-1 -1 $-1 $-1 $174 $363 #
truecolor-adesk-attrib $-1 -1 $364 $-1 $175 -1026895378 #
vertex $-1 -1 $-1 $175 $365 #
ellipse-curve $-1 -1 $-1 504.64408023409294 342.17973098459726 30.000000000000011 0.79948591219963638 -0.600684839324513 1.1273354115452251e-17 -4.8054787145961084 -6.3958872975970964 1.5986445124340497e-15 1 F 1.5707963267948966 F 3.1415926535897953 #
coedge $-1 -1 $-1 $361 $360 $176 $271 forward $266 $-1 #
edge $366 -1 $-1 $276 1.5707963267948966 $367 3.141592653589802 $176 $368 forward @7 unknown #
coedge $-1 -1 $-1 $288 $177 $360 $369 forward $274 $-1 #
coedge $-1 -1 $-1 $177 $287 $179 $279 forward $274 $-1 #
loop $-1 -1 $-1 $-1 $288 $370 #
truecolor-adesk-attrib $-1 -1 $371 $-1 $178 -1026895378 #
vertex $-1 -1 $-1 $271 $372 #
ellipse-curve $-1 -1 $-1 504.64408023409294 342.17973098459726 25.000000000000004 -0.60068483932451289 -0.79948591219963616 1.3859822409688852e-16 -2.398457736598913 1.8020545179735421 -3.3820062346356971e-17 1 F -3.1415926535897931 F -1.5707963267948966 #
coedge $-1 -1 $-1 $282 $179 $293 $373 reversed $181 $-1 #
edge $374 -1 $-1 $375 -2.4651903288156585e-34 $184 0.16500000000000017 $179 $376 forward @7 unknown #
coedge $-1 -1 $-1 $180 $282 $288 $377 forward $181 $-1 #
edge $378 -1 $-1 $379 0 $183 1.5707963267948966 $180 $380 forward @7 unknown #
coedge $-1 -1 $-1 $280 $278 $186 $286 reversed $181 $-1 #
DXID-attrib $-1 -1 $-1 $182 $103 @18 ASM_EDGE_FROM_STEP @4 1476 #
point $-1 -1 $-1 504.64408023409294 342.17973098459726 21.999999999999993 #
point $-1 -1 $-1 507.04253797069185 340.37767646662371 25.000000000000004 #
edge $381 -1 $-1 $290 0 $299 1.5707963267949152 $186 $382 forward @7 unknown #
coedge $-1 -1 $-1 $273 $187 $190 $294 reversed $274 $-1 #
coedge $-1 -1 $-1 $187 $272 $280 $377 reversed $274 $-1 #
truecolor-adesk-attrib $-1 -1 $383 $-1 $188 -1026895378 #
vertex $-1 -1 $-1 $188 $384 #
ellipse-curve $-1 -1 $-1 405.53108174554802 210.26455547165725 25.000000000000039 -0.60068483932451289 -0.79948591219963616 1.3859822409688852e-16 -2.398457736598913 1.8020545179735421 -3.3820062346356971e-17 1 F -1.5707963267949152 F 0 #
coedge $-1 -1 $-1 $195 $189 $197 $302 reversed $191 $-1 #
coedge $-1 -1 $-1 $190 $195 $278 $373 forward $191 $-1 #
edge $385 -1 $-1 $375 -3.1415926535897931 $193 -1.5707963267949152 $287 $386 forward @7 unknown #
face $387 -1 $-1 $205 $191 $3 $-1 $388 forward single #
DXID-attrib $-1 -1 $-1 $192 $106 @18 ASM_EDGE_FROM_STEP @5 28591 #
point $-1 -1 $-1 405.53108174554808 210.26455547165722 28.000000000000053 #
truecolor-adesk-attrib $-1 -1 $389 $-1 $196 -1026895378 #
vertex $-1 -1 $-1 $286 $390 #
ellipse-curve $-1 -1 $-1 405.53108174554802 210.26455547165708 20.000000000000039 -0.79948591219963638 0.600684839324513 -1.1273354115452251e-17 1.2013696786490269 1.5989718243992737 -3.9966112810851233e-16 1 F -3.1415926535897865 F -1.5707963267948077 #
coedge $-1 -1 $-1 $313 $197 $203 $307 reversed $171 $-1 #
edge $391 -1 $-1 $200 1.5707963267949152 $309 3.1415926535897931 $197 $392 forward @7 unknown #
DXID-attrib $-1 -1 $-1 $199 $109 @18 ASM_EDGE_FROM_STEP @5 18001 #
point $-1 -1 $-1 404.32971206689905 208.6655836472579 20.000000000000053 #
truecolor-adesk-attrib $-1 -1 $393 $-1 $202 -1026895378 #
straight-curve $-1 -1 $-1 400.12919981232653 208.06918042863254 -19.999999999999961 1.1102230246251552e-13 1.6653345369377341e-13 1000.0000000000002 F -3.007919452206291e-49 F 0.040000000000000001 #
edge $394 -1 $-1 $320 3.007919452206291e-49 $309 0.040000000000000001 $301 $395 forward @7 unknown #
truecolor-adesk-attrib $-1 -1 $396 $-1 $204 -1026895378 #
vertex $-1 -1 $-1 $302 $397 #
ellipse-curve $-1 -1 $-1 402.52765754892545 206.26712591065899 20.000000000000053 -1.1102230246251552e-16 -1.6653345369377341e-16 -1.0000000000000002 -2.398457736598913 1.8020545179735419 -3.382006234635715e-17 1 F -3.1415926535897931 F -1.570796326794915 #
truecolor-adesk-attrib $-1 -1 $398 $-1 $205 -1026895378 #
cone-surface $-1 -1 $-1 402.52765754892545 206.26712591065899 -19.999999999999961 1.1102230246251552e-16 1.6653345369377341e-16 1.0000000000000002 2.398457736598913 -1.8020545179735419 3.382006234635715e-17 1 I I 0 1 3.0000000000000049 forward I I I I #
coedge $-1 -1 $-1 $209 $301 $216 $318 reversed $171 $-1 #
truecolor-adesk-attrib $-1 -1 $399 $-1 $210 -1026895378 #
ellipse-curve $-1 -1 $-1 402.52765754892545 206.26712591065899 -19.999999999999961 -1.1102230246251552e-16 -1.6653345369377341e-16 -1.0000000000000002 -2.398457736598913 1.8020545179735419 -3.382006234635715e-17 1 F -1.7992017823113398e-78 F 1.5707963267949152 #
DXID-attrib $-1 -1 $-1 $212 $119 @18 ASM_EDGE_FROM_STEP @5 14802 #
point $-1 -1 $-1 400.12919981232653 208.06918042863254 -19.999999999999961 #
edge $400 -1 $-1 $222 1.5707963267949152 $320 3.1415926535897931 $313 $401 forward @7 unknown #
truecolor-adesk-attrib $-1 -1 $402 $-1 $217 -1026895378 #
vertex $-1 -1 $-1 $307 $403 #
ellipse-curve $-1 -1 $-1 402.52765754892545 206.26712591065899 -19.999999999999961 -1.1102230246251552e-16 -1.6653345369377341e-16 -1.0000000000000002 -2.398457736598913 1.8020545179735419 -3.382006234635715e-17 1 F -3.1415926535897931 F -1.570796326794915 #
truecolor-adesk-attrib $-1 -1 $404 $-1 $218 -1026895378 #
torus-surface $-1 -1 $-1 405.53108174554802 210.26455547165708 -19.999999999999968 -0.79948591219963638 0.600684839324513 -1.1273354115452251e-17 4.9999999999999982 3.0000000000000004 1.110223024625157e-16 1.6653345369377346e-16 1.0000000000000002 forward_v I I I I #
DXID-attrib $-1 -1 $-1 $221 $127 @18 ASM_EDGE_FROM_STEP @5 10269 #
point $-1 -1 $-1 404.32971206689905 208.6655836472579 -19.999999999999961 #
truecolor-adesk-attrib $-1 -1 $405 $-1 $224 -1026895378 #
ellipse-curve $-1 -1 $-1 405.53108174554802 210.26455547165708 -24.999999999999972 0.60068483932451289 0.79948591219963616 -2.6106290401162371e-16 -2.398457736598913 1.8020545179735421 -3.3820062346356989e-17 1 F 1.5707963267948968 F 3.1415926535897931 #
truecolor-adesk-attrib $-1 -1 $406 $-1 $225 -1026895378 #
cone-surface $-1 -1 $-1 504.64408023409294 342.17973098459726 -25.000000000000007 -0.60068483932451289 -0.79948591219963616 1.9983056405425614e-16 -2.398457736598913 1.8020545179735421 -3.3820062346356977e-17 1 I I 0 1 3.0000000000000049 forward I I I I #
DXID-attrib $-1 -1 $-1 $228 $135 @18 ASM_EDGE_FROM_STEP @4 5697 #
point $-1 -1 $-1 502.24562249749403 343.9817855025708 -25.000000000000007 #
truecolor-adesk-attrib $-1 -1 $407 $-1 $231 -1026895378 #
straight-curve $-1 -1 $-1 507.04253797069185 340.37767646662371 -25.000000000000007 -600.68483932451284 -799.48591219963612 1.9983056405425615e-13 F 2.1570415377137014e-34 F 0.16500000000000037 #
DXID-attrib $-1 -1 $-1 $232 $137 @18 ASM_EDGE_FROM_STEP @5 37158 #
point $-1 -1 $-1 407.92953948214688 208.46250095368353 -24.999999999999972 #
DXID-attrib $-1 -1 $-1 $237 $147 @18 ASM_EDGE_FROM_STEP @5 22205 #
DXID-attrib $-1 -1 $-1 $239 $148 @18 ASM_EDGE_FROM_STEP @5 10383 #
fmesh-eye-attrib $-1 -1 $408 $241 $149 #
truecolor-adesk-attrib $-1 -1 $409 $-1 $242 -1026895378 #
face $410 -1 $-1 $343 $411 $3 $-1 $412 reversed single #
cone-surface $-1 -1 $-1 507.64750443071523 346.17716054559537 -30.000000000000011 -1.6312340708449501e-16 -2.3587780272404552e-16 -1.0000000000000002 1.8020545179735419 2.3984577365989126 -8.5970021355929022e-16 1 I I 0 1 3.0000000000000049 forward I I I I #
DXID-attrib $-1 -1 $-1 $245 $154 @18 ASM_EDGE_FROM_STEP @5 19227 #
face $413 -1 $-1 $-1 $248 $3 $-1 $414 forward single #
DXID-attrib $-1 -1 $-1 $249 $158 @18 ASM_EDGE_FROM_STEP @5 36771 #
truecolor-adesk-attrib $-1 -1 $415 $-1 $251 -1026895378 #
ellipse-curve $-1 -1 $-1 507.64750443071523 346.17716054559537 -40.000000000000007 -1.1102230246251552e-16 -1.6653345369377341e-16 -1.0000000000000002 -2.398457736598913 1.8020545179735421 -3.3820062346357181e-17 1 F -1.5707963267948968 F 1.5707963267948966 #
DXID-attrib $-1 -1 $-1 $257 $98 @18 ASM_FACE_FROM_STEP @32 Assy Total Kursi Pijat Biru-3649 #
fmesh-eye-attrib $-1 -1 $416 $258 $170 #
truecolor-adesk-attrib $-1 -1 $417 $-1 $259 -1026895378 #
face $418 -1 $-1 $363 $419 $3 $-1 $420 forward single #
loop $-1 -1 $-1 $-1 $355 $259 #
cone-surface $-1 -1 $-1 507.64750443071523 346.17716054559537 30.000000000000028 1.1102230246251552e-16 1.6653345369377341e-16 1.0000000000000002 2.398457736598913 -1.8020545179735421 3.3820062346357181e-17 1 I I 0 1 3.0000000000000049 forward I I I I #
coedge $-1 -1 $-1 $421 $422 $261 $354 reversed $419 $-1 #
edge $423 -1 $-1 $358 -3.1415926535897931 $367 -1.5707963267949521 $261 $424 forward @7 unknown #
coedge $-1 -1 $-1 $425 $262 $265 $362 reversed $351 $-1 #
coedge $-1 -1 $-1 $262 $426 $421 $427 reversed $351 $-1 #
truecolor-adesk-attrib $-1 -1 $428 $-1 $263 -1026895378 #
vertex $-1 -1 $-1 $263 $429 #
ellipse-curve $-1 -1 $-1 507.64750443071523 346.17716054559537 30.000000000000028 -2.4440113029478295e-16 -3.4405498721126999e-16 -1.0000000000000002 -2.398457736598913 1.8020545179735421 -3.3820062346357199e-17 1 F 1.5707963267949523 F 3.1415926535897931 #
coedge $-1 -1 $-1 $270 $264 $272 $369 reversed $266 $-1 #
coedge $-1 -1 $-1 $265 $270 $422 $430 forward $266 $-1 #
edge $431 -1 $-1 $432 1.224646799147352e-16 $268 1.5707963267949523 $355 $433 forward @7 unknown #
face $434 -1 $-1 $370 $266 $3 $-1 $435 forward single #
DXID-attrib $-1 -1 $-1 $267 $175 @18 ASM_EDGE_FROM_STEP @5 18015 #
point $-1 -1 $-1 509.449558948689 348.57561828219428 30.000000000000028 #
truecolor-adesk-attrib $-1 -1 $436 $-1 $271 -1026895378 #
vertex $-1 -1 $-1 $354 $437 #
ellipse-curve $-1 -1 $-1 504.64408023409294 342.17973098459726 30.000000000000011 0.79948591219963638 -0.600684839324513 1.1273354115452251e-17 -1.20136967864903 -1.5989718243992781 3.9966112810851341e-16 1 F 1.5707963267948966 F 3.141592653589802 #
edge $438 -1 $-1 $276 -1.5707963267948966 $379 0 $360 $439 forward @7 unknown #
face $440 -1 $-1 $295 $274 $3 $-1 $441 forward single #
DXID-attrib $-1 -1 $-1 $275 $178 @18 ASM_EDGE_FROM_STEP @5 17036 #
point $-1 -1 $-1 504.64408023409294 342.17973098459726 28 #
edge $442 -1 $-1 $299 1.5707963267949152 $375 3.1415926535897931 $278 $443 forward @7 unknown #
truecolor-adesk-attrib $-1 -1 $444 $-1 $279 -1026895378 #
vertex $-1 -1 $-1 $279 $445 #
straight-curve $-1 -1 $-1 407.92953948214699 208.4625009536837 25.000000000000039 600.68483932451284 799.48591219963612 -1.9983056405425615e-13 F -2.4651903288156585e-34 F 0.16500000000000017 #
edge $446 -1 $-1 $290 2.1570415377137014e-34 $379 0.16500000000000017 $280 $447 forward @7 unknown #
truecolor-adesk-attrib $-1 -1 $448 $-1 $281 -1026895378 #
vertex $-1 -1 $-1 $377 $449 #
ellipse-curve $-1 -1 $-1 504.64408023409294 342.17973098459726 25.000000000000004 -0.60068483932451289 -0.79948591219963616 1.3859822409688852e-16 -2.398457736598913 1.8020545179735421 -3.3820062346356971e-17 1 F 0 F 1.5707963267948966 #
truecolor-adesk-attrib $-1 -1 $450 $-1 $286 -1026895378 #
ellipse-curve $-1 -1 $-1 405.53108174554802 210.26455547165725 25.000000000000039 -0.60068483932451289 -0.79948591219963616 1.3859822409688852e-16 -2.398457736598913 1.8020545179735421 -3.3820062346356971e-17 1 F 0 F 1.5707963267949152 #
DXID-attrib $-1 -1 $-1 $289 $188 @18 ASM_EDGE_FROM_STEP @4 4065 #
point $-1 -1 $-1 403.13262400894916 212.06660998963079 25.000000000000039 #
truecolor-adesk-attrib $-1 -1 $451 $-1 $294 -1026895378 #
ellipse-curve $-1 -1 $-1 405.53108174554802 210.26455547165725 25.000000000000039 -0.60068483932451289 -0.79948591219963616 1.3859822409688852e-16 -2.398457736598913 1.8020545179735421 -3.3820062346356971e-17 1 F -3.1415926535897931 F -1.5707963267949152 #
truecolor-adesk-attrib $-1 -1 $452 $-1 $295 -1026895378 #
torus-surface $-1 -1 $-1 405.53108174554802 210.26455547165708 20.000000000000039 -0.79948591219963638 0.600684839324513 -1.1273354115452251e-17 5.0000000000000044 3.0000000000000004 1.110223024625157e-16 1.6653345369377346e-16 1.0000000000000002 forward_v I I I I #
DXID-attrib $-1 -1 $-1 $298 $196 @18 ASM_EDGE_FROM_STEP @5 10075 #
point $-1 -1 $-1 405.53108174554808 210.26455547165722 22.000000000000036 #
truecolor-adesk-attrib $-1 -1 $453 $-1 $302 -1026895378 #
ellipse-curve $-1 -1 $-1 402.52765754892545 206.26712591065899 20.000000000000053 -1.1102230246251552e-16 -1.6653345369377341e-16 -1.0000000000000002 -2.398457736598913 1.8020545179735419 -3.382006234635715e-17 1 F 1.5707963267949152 F 3.1415926535897931 #
DXID-attrib $-1 -1 $-1 $305 $202 @18 ASM_EDGE_FROM_STEP @5 13739 #
truecolor-adesk-attrib $-1 -1 $454 $-1 $307 -1026895378 #
straight-curve $-1 -1 $-1 404.92611528552436 204.46507139268545 -19.999999999999961 1.1102230246251552e-13 1.6653345369377341e-13 1000.0000000000002 F 3.007919452206291e-49 F 0.040000000000000001 #
DXID-attrib $-1 -1 $-1 $308 $204 @18 ASM_EDGE_FROM_STEP @4 4970 #
point $-1 -1 $-1 404.92611528552436 204.46507139268545 20.000000000000053 #
fmesh-eye-attrib $-1 -1 $455 $311 $205 #
DXID-attrib $-1 -1 $-1 $314 $210 @18 ASM_EDGE_FROM_STEP @5 32812 #
truecolor-adesk-attrib $-1 -1 $456 $-1 $318 -1026895378 #
ellipse-curve $-1 -1 $-1 402.52765754892545 206.26712591065899 -19.999999999999961 -1.1102230246251552e-16 -1.6653345369377341e-16 -1.0000000000000002 -2.398457736598913 1.8020545179735419 -3.382006234635715e-17 1 F 1.5707963267949152 F 3.1415926535897931 #
DXID-attrib $-1 -1 $-1 $319 $217 @18 ASM_EDGE_FROM_STEP @5 39584 #
point $-1 -1 $-1 404.92611528552436 204.46507139268545 -19.999999999999961 #
fmesh-eye-attrib $-1 -1 $457 $322 $218 #
DXID-attrib $-1 -1 $-1 $326 $224 @18 ASM_EDGE_FROM_STEP @5 31687 #
fmesh-eye-attrib $-1 -1 $458 $328 $225 #
DXID-attrib $-1 -1 $-1 $332 $231 @18 ASM_EDGE_FROM_STEP @5 36563 #
DXID-attrib $-1 -1 $-1 $338 $149 @18 ASM_FACE_FROM_STEP @32 Assy Total Kursi Pijat Biru-8146 #
fmesh-eye-attrib $-1 -1 $459 $339 $242 #
truecolor-adesk-attrib $-1 -1 $460 $-1 $340 -1026895378 #
loop $-1 -1 $-1 $-1 $461 $340 #
plane-surface $-1 -1 $-1 507.64750443071523 346.17716054559537 40.000000000000036 -2.4440113029478305e-16 -3.4405498721126989e-16 -1.0000000000000002 -0.79948591219963638 0.600684839324513 -1.1273354115452251e-17 forward_v I I I I #
truecolor-adesk-attrib $-1 -1 $462 $-1 $343 -1026895378 #
plane-surface $-1 -1 $-1 507.64750443071523 346.17716054559537 -40.000000000000007 -1.1102230246251562e-16 -1.6653345369377333e-16 -1.0000000000000002 -0.79948591219963638 0.600684839324513 -1.1273354115452251e-17 forward_v I I I I #
DXID-attrib $-1 -1 $-1 $345 $251 @18 ASM_EDGE_FROM_STEP @4 7892 #
DXID-attrib $-1 -1 $-1 $348 $170 @18 ASM_FACE_FROM_STEP @33 Assy Total Kursi Pijat Biru-11990 #
fmesh-eye-attrib $-1 -1 $463 $349 $259 #
truecolor-adesk-attrib $-1 -1 $464 $-1 $350 -1026895378 #
loop $-1 -1 $-1 $-1 $465 $350 #
cone-surface $-1 -1 $-1 507.64750443071523 346.17716054559537 30.000000000000028 1.1102230246251552e-16 1.6653345369377341e-16 1.0000000000000002 2.398457736598913 -1.8020545179735421 3.3820062346357181e-17 1 I I 0 1 3.0000000000000049 forward I I I I #
coedge $-1 -1 $-1 $466 $353 $356 $427 forward $419 $-1 #
coedge $-1 -1 $-1 $353 $465 $361 $430 reversed $419 $-1 #
truecolor-adesk-attrib $-1 -1 $467 $-1 $354 -1026895378 #
ellipse-curve $-1 -1 $-1 507.64750443071523 346.17716054559537 30.000000000000028 -2.4440113029478295e-16 -3.4405498721126999e-16 -1.0000000000000002 -2.398457736598913 1.8020545179735421 -3.3820062346357199e-17 1 F -3.1415926535897931 F -1.5707963267949521 #
coedge $-1 -1 $-1 $426 $355 $465 $468 forward $351 $-1 #
coedge $-1 -1 $-1 $356 $425 $469 $470 forward $351 $-1 #
edge $471 -1 $-1 $358 3.0079194522062922e-49 $472 0.010000000000000004 $356 $473 forward @7 unknown #
DXID-attrib $-1 -1 $-1 $357 $263 @18 ASM_EDGE_FROM_STEP @5 25822 #
point $-1 -1 $-1 510.04596216731414 344.37510602762183 30.000000000000028 #
edge $474 -1 $-1 $367 -1.5707963267949521 $432 1.224646799147352e-16 $422 $475 forward @7 unknown #
truecolor-adesk-attrib $-1 -1 $476 $-1 $362 -1026895378 #
vertex $-1 -1 $-1 $362 $477 #
ellipse-curve $-1 -1 $-1 507.64750443071523 346.17716054559537 30.000000000000028 -2.4440113029478295e-16 -3.4405498721126999e-16 -1.0000000000000002 -2.398457736598913 1.8020545179735421 -3.3820062346357199e-17 1 F 1.224646799147352e-16 F 1.5707963267949523 #
truecolor-adesk-attrib $-1 -1 $478 $-1 $363 -1026895378 #
torus-surface $-1 -1 $-1 504.64408023409294 342.17973098459726 30.000000000000011 0.79948591219963638 -0.600684839324513 1.1273354115452251e-17 5.000000000000008 3.0000000000000004 -1.110223024625157e-16 -1.6653345369377346e-16 -1.0000000000000002 forward_v I I I I #
DXID-attrib $-1 -1 $-1 $366 $271 @18 ASM_EDGE_FROM_STEP @5 36845 #
point $-1 -1 $-1 505.8454499127418 343.77870280899634 30.000000000000028 #
truecolor-adesk-attrib $-1 -1 $479 $-1 $369 -1026895378 #
ellipse-curve $-1 -1 $-1 504.64408023409294 342.17973098459726 25.000000000000004 -0.60068483932451289 -0.79948591219963616 1.3859822409688852e-16 -2.398457736598913 1.8020545179735421 -3.3820062346356971e-17 1 F -1.5707963267948966 F 0 #
truecolor-adesk-attrib $-1 -1 $480 $-1 $370 -1026895378 #
cone-surface $-1 -1 $-1 405.53108174554802 210.26455547165725 25.000000000000039 0.60068483932451289 0.79948591219963616 -1.9983056405425614e-16 2.398457736598913 -1.8020545179735421 3.3820062346356977e-17 1 I I 0 1 3.0000000000000049 forward I I I I #
truecolor-adesk-attrib $-1 -1 $481 $-1 $373 -1026895378 #
ellipse-curve $-1 -1 $-1 405.53108174554802 210.26455547165725 25.000000000000039 -0.60068483932451289 -0.79948591219963616 1.3859822409688852e-16 -2.398457736598913 1.8020545179735421 -3.3820062346356971e-17 1 F 1.5707963267949152 F 3.1415926535897931 #
DXID-attrib $-1 -1 $-1 $374 $279 @18 ASM_EDGE_FROM_STEP @5 26531 #
point $-1 -1 $-1 407.92953948214699 208.4625009536837 25.000000000000039 #
truecolor-adesk-attrib $-1 -1 $482 $-1 $377 -1026895378 #
straight-curve $-1 -1 $-1 403.13262400894916 212.06660998963079 25.000000000000039 600.68483932451284 799.48591219963612 -1.9983056405425615e-13 F 2.1570415377137014e-34 F 0.16500000000000017 #
DXID-attrib $-1 -1 $-1 $378 $281 @18 ASM_EDGE_FROM_STEP @5 38984 #
point $-1 -1 $-1 502.24562249749403 343.9817855025708 25.000000000000004 #
DXID-attrib $-1 -1 $-1 $381 $286 @18 ASM_EDGE_FROM_STEP @5 34600 #
DXID-attrib $-1 -1 $-1 $385 $294 @18 ASM_EDGE_FROM_STEP @5 17806 #
fmesh-eye-attrib $-1 -1 $483 $387 $295 #
DXID-attrib $-1 -1 $-1 $391 $302 @18 ASM_EDGE_FROM_STEP @5 27790 #
DXID-attrib $-1 -1 $-1 $394 $307 @18 ASM_EDGE_FROM_STEP @4 6180 #
DXID-attrib $-1 -1 $-1 $398 $205 @18 ASM_FACE_FROM_STEP @32 Assy Total Kursi Pijat Biru-4271 #
DXID-attrib $-1 -1 $-1 $400 $318 @18 ASM_EDGE_FROM_STEP @5 20847 #
DXID-attrib $-1 -1 $-1 $404 $218 @18 ASM_FACE_FROM_STEP @33 Assy Total Kursi Pijat Biru-16507 #
DXID-attrib $-1 -1 $-1 $406 $225 @18 ASM_FACE_FROM_STEP @33 Assy Total Kursi Pijat Biru-25799 #
DXID-attrib $-1 -1 $-1 $409 $242 @18 ASM_FACE_FROM_STEP @33 Assy Total Kursi Pijat Biru-23692 #
fmesh-eye-attrib $-1 -1 $484 $410 $340 #
coedge $-1 -1 $-1 $469 $469 $466 $485 reversed $411 $-1 #
fmesh-eye-attrib $-1 -1 $486 $413 $343 #
DXID-attrib $-1 -1 $-1 $417 $259 @18 ASM_FACE_FROM_STEP @33 Assy Total Kursi Pijat Biru-29739 #
fmesh-eye-attrib $-1 -1 $487 $418 $350 #
coedge $-1 -1 $-1 $422 $466 $425 $468 reversed $419 $-1 #
coedge $-1 -1 $-1 $465 $421 $461 $485 forward $419 $-1 #
DXID-attrib $-1 -1 $-1 $423 $354 @18 ASM_EDGE_FROM_STEP @4 5641 #
edge $488 -1 $-1 $432 -3.0079194522062891e-49 $489 0.010000000000000004 $425 $490 forward @7 unknown #
coedge $-1 -1 $-1 $461 $461 $426 $470 reversed $411 $-1 #
edge $491 -1 $-1 $489 1.224646799147352e-16 $472 3.1415926535897931 $426 $492 forward @7 unknown #
truecolor-adesk-attrib $-1 -1 $493 $-1 $427 -1026895378 #
vertex $-1 -1 $-1 $470 $494 #
straight-curve $-1 -1 $-1 510.04596216731414 344.37510602762183 30.000000000000028 1.1102230246251552e-13 1.6653345369377341e-13 1000.0000000000002 F 3.0079194522062922e-49 F 0.010000000000000004 #
truecolor-adesk-attrib $-1 -1 $495 $-1 $430 -1026895378 #
ellipse-curve $-1 -1 $-1 507.64750443071523 346.17716054559537 30.000000000000028 -2.4440113029478295e-16 -3.4405498721126999e-16 -1.0000000000000002 -2.398457736598913 1.8020545179735421 -3.3820062346357199e-17 1 F -1.5707963267949521 F 1.224646799147352e-16 #
DXID-attrib $-1 -1 $-1 $431 $362 @18 ASM_EDGE_FROM_STEP @5 19071 #
point $-1 -1 $-1 505.24904669411632 347.97921506356892 30.000000000000028 #
fmesh-eye-attrib $-1 -1 $496 $434 $363 #
DXID-attrib $-1 -1 $-1 $438 $369 @18 ASM_EDGE_FROM_STEP @4 5461 #
fmesh-eye-attrib $-1 -1 $497 $440 $370 #
DXID-attrib $-1 -1 $-1 $442 $373 @18 ASM_EDGE_FROM_STEP @5 40157 #
DXID-attrib $-1 -1 $-1 $446 $377 @18 ASM_EDGE_FROM_STEP @5 31972 #
DXID-attrib $-1 -1 $-1 $452 $295 @18 ASM_FACE_FROM_STEP @32 Assy Total Kursi Pijat Biru-4538 #
DXID-attrib $-1 -1 $-1 $460 $340 @18 ASM_FACE_FROM_STEP @33 Assy Total Kursi Pijat Biru-28239 #
edge $498 -1 $-1 $472 -3.1415926535897931 $489 1.224646799147352e-16 $466 $499 forward @7 unknown #
DXID-attrib $-1 -1 $-1 $462 $343 @18 ASM_FACE_FROM_STEP @33 Assy Total Kursi Pijat Biru-37323 #
DXID-attrib $-1 -1 $-1 $464 $350 @18 ASM_FACE_FROM_STEP @33 Assy Total Kursi Pijat Biru-26841 #
truecolor-adesk-attrib $-1 -1 $500 $-1 $468 -1026895378 #
vertex $-1 -1 $-1 $468 $501 #
straight-curve $-1 -1 $-1 505.24904669411632 347.97921506356892 30.000000000000028 1.1102230246251552e-13 1.6653345369377341e-13 1000.0000000000002 F -3.0079194522062891e-49 F 0.010000000000000004 #
truecolor-adesk-attrib $-1 -1 $502 $-1 $470 -1026895378 #
ellipse-curve $-1 -1 $-1 507.64750443071523 346.17716054559537 40.000000000000036 -2.4440113029478295e-16 -3.4405498721126999e-16 -1.0000000000000002 -2.398457736598913 1.8020545179735421 -3.3820062346357199e-17 1 F 1.224646799147352e-16 F 3.1415926535897931 #
DXID-attrib $-1 -1 $-1 $471 $427 @18 ASM_EDGE_FROM_STEP @5 17197 #
point $-1 -1 $-1 510.04596216731414 344.37510602762183 40.000000000000036 #
DXID-attrib $-1 -1 $-1 $474 $430 @18 ASM_EDGE_FROM_STEP @5 24370 #
DXID-attrib $-1 -1 $-1 $478 $363 @18 ASM_FACE_FROM_STEP @33 Assy Total Kursi Pijat Biru-33280 #
DXID-attrib $-1 -1 $-1 $480 $370 @18 ASM_FACE_FROM_STEP @33 Assy Total Kursi Pijat Biru-32627 #
truecolor-adesk-attrib $-1 -1 $503 $-1 $485 -1026895378 #
ellipse-curve $-1 -1 $-1 507.64750443071523 346.17716054559537 40.000000000000036 -2.4440113029478295e-16 -3.4405498721126999e-16 -1.0000000000000002 -2.398457736598913 1.8020545179735421 -3.3820062346357199e-17 1 F -3.1415926535897931 F 1.224646799147352e-16 #
DXID-attrib $-1 -1 $-1 $488 $468 @18 ASM_EDGE_FROM_STEP @5 21135 #
point $-1 -1 $-1 505.24904669411632 347.97921506356892 40.000000000000036 #
DXID-attrib $-1 -1 $-1 $491 $470 @18 ASM_EDGE_FROM_STEP @5 13567 #
DXID-attrib $-1 -1 $-1 $498 $485 @18 ASM_EDGE_FROM_STEP @5 30050 #
