700 554 2 0         
5 ZWCAD 12 ACIS 28.0 NT 24 Mon May 13 11:14:14 2024 
1 9.9999999999999995e-07 1e-10 
body $2 -1 $-1 $3 $-1 $4 #
body $5 -1 $-1 $6 $-1 $7 #
DXID-attrib $-1 -1 $-1 $-1 $0 @18 ASM_BODY_FROM_STEP @83 F1C1EDB3E72B886DDDA2299AE424B577AD460F1F|:|745C59F74F242793CB1CCA9444CFB760A1049C0C #
lump $-1 -1 $-1 $-1 $8 $0 #
transform $-1 -1 1 0 0 0 1 0 0 0 1 0 0 0 1 no_rotate no_reflect no_shear #
DXID-attrib $-1 -1 $-1 $-1 $1 @18 ASM_BODY_FROM_STEP @83 F1C1EDB3E72B886DDDA2299AE424B577AD460F1F|:|AC1505ABF108163A4CFAAA41407704119ABE28DD #
lump $-1 -1 $-1 $-1 $9 $1 #
transform $-1 -1 1 0 0 0 1 0 0 0 1 0 0 0 1 no_rotate no_reflect no_shear #
shell $-1 -1 $-1 $-1 $-1 $10 $-1 $3 #
shell $-1 -1 $-1 $-1 $-1 $11 $-1 $6 #
face $12 -1 $-1 $13 $14 $8 $-1 $15 reversed single #
face $16 -1 $-1 $17 $18 $9 $-1 $19 forward single #
truecolor-adesk-attrib $-1 -1 $20 $-1 $10 -1026895378 #
face $21 -1 $-1 $22 $23 $8 $-1 $24 forward single #
loop $-1 -1 $-1 $-1 $25 $10 #
spline-surface $-1 -1 $-1 forward { sumsur 
	intcurve forward { exactcur full nubs 3 open 5 
	0 3 0.16813934852191392 1 0.3362786970438279 1 0.50441804556574188 1 0.6725573940876558 3 
	-52.576171156825531 7.0000000000000009 -452.43311209041104 
	-53.644445570050287 7.0000000000000009 -452.56459342722314 
	-55.779566191094418 7.0000000000000009 -452.83976585287462 
	-58.977003636242657 7.0000000000000009 -453.28891285475748 
	-62.169316517160418 7.0000000000000009 -453.77433081867906 
	-64.29442306356988 7.0000000000000009 -454.12209575151337 
	-65.355868604361973 7.0000000000000009 -454.3019391581222 
	0 
	null_surface 
	null_surface 
	nullbs 
	nullbs 
	I I 
	0 
	0 
	3 0.16813934852191392 0.3362786970438279 0.50441804556574188 
	F 1 F 0 } F 0 F 0.6725573940876558 
	straight -58.970970677043589 7.0000000000000009 -453.33210713622583 0 -10 0 I I 
	-58.970970677043589 7.0000000000000009 -453.33210713622583 
	none F 0 F 0.6725573940876558 F 0 F 0.84000000000000008 OPEN OPEN NON_SINGULAR NON_SINGULAR 
	0 
	0 
	3 0.16813934852191392 0.3362786970438279 0.50441804556574188 
	0 
	0 
	0 
	} F 0 F 0.6725573940876558 F 0 F 0.70000000000000007 #
truecolor-adesk-attrib $-1 -1 $26 $-1 $11 -1026895378 #
face $27 -1 $-1 $28 $29 $9 $-1 $30 reversed single #
loop $-1 -1 $-1 $-1 $31 $11 #
cone-surface $-1 -1 $-1 -52.942640629552606 10 -449.45557953382007 0 -1 0 0 0 2.0000000000000018 1 I I 0 1 2.0000000000000018 forward I I I I #
fmesh-eye-attrib $-1 -1 $32 $12 $10 #
truecolor-adesk-attrib $-1 -1 $33 $-1 $13 -1026895378 #
face $34 -1 $-1 $35 $36 $8 $-1 $37 reversed single #
loop $-1 -1 $-1 $-1 $38 $13 #
cone-surface $-1 -1 $-1 -52.942640629552606 7.0000000000000009 -449.45557953382007 0 -1 0 0 0 3.0000000000000027 1 I I 0 1 3.0000000000000027 forward I I I I #
coedge $-1 -1 $-1 $39 $40 $41 $42 reversed $14 $43 #
fmesh-eye-attrib $-1 -1 $44 $16 $11 #
truecolor-adesk-attrib $-1 -1 $45 $-1 $17 -1026895378 #
face $46 -1 $-1 $47 $48 $9 $-1 $49 forward single #
loop $-1 -1 $-1 $-1 $50 $17 #
plane-surface $-1 -1 $-1 -50.942640629552614 10 -449.45557953382024 -1 0 -5.8155253741193705e-14 5.8155253741193705e-14 0 -1 forward_v I I I I #
coedge $-1 -1 $-1 $51 $52 $53 $54 reversed $18 $-1 #
DXID-attrib $-1 -1 $-1 $20 $10 @18 ASM_FACE_FROM_STEP @19 Buttom Metals-43854 #
fmesh-eye-attrib $-1 -1 $55 $21 $13 #
truecolor-adesk-attrib $-1 -1 $56 $-1 $22 -1026895378 #
face $57 -1 $-1 $58 $59 $8 $-1 $60 forward single #
loop $-1 -1 $-1 $-1 $61 $22 #
plane-surface $-1 -1 $-1 -49.94264404939446 7.0000000000000009 -449.46010932845019 -0.99999886005271743 0 0.001509931543389603 -0.0015099315433896032 0 -0.99999886005271754 forward_v I I I I #
coedge $-1 -1 $-1 $62 $63 $64 $65 reversed $23 $-1 #
coedge $-1 -1 $-1 $66 $25 $67 $68 reversed $14 $69 #
coedge $-1 -1 $-1 $25 $66 $62 $70 forward $14 $71 #
coedge $-1 -1 $-1 $64 $72 $25 $42 forward $73 $-1 #
edge $74 -1 $-1 $75 0.00093971905387850842 $76 0.67349711314153426 $25 $77 forward @7 unknown #
pcurve $-1 -1 $-1 0 reversed { exppc nubs 1 open 2 
	0.00093971905387850842 1 0.67349711314153426 1 
	0.6725573940876558 0.70000000000000007 
	0 0.69999999999999996 
	4.1131331181427422e-14 
	spline forward { ref 0 } I I I I 
	} 0 0 #
DXID-attrib $-1 -1 $-1 $26 $11 @18 ASM_FACE_FROM_STEP @19 Buttom Metals-23643 #
fmesh-eye-attrib $-1 -1 $78 $27 $17 #
truecolor-adesk-attrib $-1 -1 $79 $-1 $28 -1026895378 #
face $80 -1 $-1 $81 $82 $9 $-1 $83 reversed single #
loop $-1 -1 $-1 $-1 $84 $28 #
cone-surface $-1 -1 $-1 -52.942640629553921 10 -426.78540346323564 0 -1 0 0 0 2.0000000000000018 1 I I 0 1 2.0000000000000018 forward I I I I #
coedge $-1 -1 $-1 $85 $86 $87 $88 reversed $29 $-1 #
coedge $-1 -1 $-1 $89 $31 $90 $91 reversed $18 $-1 #
coedge $-1 -1 $-1 $31 $89 $85 $92 forward $18 $-1 #
coedge $-1 -1 $-1 $87 $93 $31 $54 forward $94 $-1 #
edge $95 -1 $-1 $96 0.11302841059679138 $97 1.5707963267948255 $31 $98 forward @7 unknown #
DXID-attrib $-1 -1 $-1 $33 $13 @18 ASM_FACE_FROM_STEP @19 Buttom Metals-27846 #
fmesh-eye-attrib $-1 -1 $99 $34 $22 #
truecolor-adesk-attrib $-1 -1 $100 $-1 $35 -1026895378 #
face $101 -1 $-1 $102 $103 $8 $-1 $104 reversed single #
loop $-1 -1 $-1 $-1 $105 $35 #
cone-surface $-1 -1 $-1 -52.908403294835225 7.0000000000000009 -426.78084580929419 0 -1 0 0 0 3.0000000000000027 1 I I 0 1 3.0000000000000027 forward I I I I #
coedge $-1 -1 $-1 $106 $107 $108 $109 reversed $36 $-1 #
coedge $-1 -1 $-1 $110 $38 $40 $70 reversed $23 $-1 #
coedge $-1 -1 $-1 $38 $110 $106 $111 forward $23 $-1 #
coedge $-1 -1 $-1 $108 $41 $38 $65 forward $73 $-1 #
edge $112 -1 $-1 $76 0.12246235671367584 $113 1.5692863946777722 $38 $114 forward @7 unknown #
coedge $-1 -1 $-1 $40 $39 $115 $116 forward $14 $117 #
coedge $-1 -1 $-1 $118 $119 $39 $68 forward $120 $121 #
edge $122 -1 $-1 $123 0 $75 0.007000000000000001 $39 $124 forward @7 unknown #
pcurve $-1 -1 $-1 0 reversed { exppc nubs 1 open 2 
	0 1 0.007000000000000001 1 
	0.6725573940876558 0 
	0.6725573940876558 0.70000000000000007 
	3.6321393762534691e-14 
	spline forward { ref 0 } I I I I 
	} 0 0 #
edge $125 -1 $-1 $126 0 $76 0.007000000000000001 $40 $127 forward @7 unknown #
pcurve $-1 -1 $-1 0 reversed { exppc nubs 1 open 2 
	-0.007000000000000001 1 0 1 
	0 0.70000000000000007 
	0 0 
	3.5623648731900178e-14 
	spline forward { ref 0 } I I I I 
	} 0 0 #
coedge $-1 -1 $-1 $41 $128 $118 $129 forward $73 $-1 #
loop $-1 -1 $-1 $-1 $41 $130 #
truecolor-adesk-attrib $-1 -1 $131 $-1 $42 -1026895378 #
vertex $-1 -1 $-1 $42 $132 #
vertex $-1 -1 $-1 $42 $133 #
intcurve-curve $-1 -1 $-1 forward { exactcur full nubs 3 open 5 
	0.00093971905387850842 3 0.16907906757579244 1 0.33721841609770636 1 0.50535776461962034 1 0.67349711314153426 3 
	-65.355868604361973 0 -454.3019391581222 
	-64.29442306356988 0 -454.12209575151337 
	-62.169316517160418 0 -453.77433081867906 
	-58.977003636242657 0 -453.28891285475748 
	-55.779566191094418 0 -452.83976585287462 
	-53.644445570050287 0 -452.56459342722314 
	-52.576171156825509 0 -452.43311209041104 
	0 
	null_surface 
	null_surface 
	nullbs 
	nullbs 
	I I 
	0 
	0 
	3 0.16907906757579244 0.33721841609770636 0.50535776461962034 
	F 1 F 0 } F 0.00093971905387850842 F 0.67349711314153426 #
DXID-attrib $-1 -1 $-1 $45 $17 @18 ASM_FACE_FROM_STEP @19 Buttom Metals-15433 #
fmesh-eye-attrib $-1 -1 $134 $46 $28 #
truecolor-adesk-attrib $-1 -1 $135 $-1 $47 -1026895378 #
face $136 -1 $-1 $137 $138 $9 $-1 $139 forward single #
loop $-1 -1 $-1 $-1 $140 $47 #
plane-surface $-1 -1 $-1 -52.942640629553914 10 -424.7854034632357 -1.5183401928358998e-14 0 -1 1 0 -1.5183401928358998e-14 forward_v I I I I #
coedge $-1 -1 $-1 $141 $142 $143 $144 reversed $48 $-1 #
coedge $-1 -1 $-1 $145 $50 $52 $92 reversed $29 $-1 #
coedge $-1 -1 $-1 $50 $145 $141 $146 forward $29 $-1 #
coedge $-1 -1 $-1 $143 $53 $50 $88 forward $94 $-1 #
edge $147 -1 $-1 $97 0 $148 0.022670176070584348 $50 $149 forward @7 unknown #
coedge $-1 -1 $-1 $52 $51 $150 $151 forward $18 $-1 #
coedge $-1 -1 $-1 $152 $153 $51 $91 forward $154 $155 #
edge $156 -1 $-1 $157 0 $96 0.0029999999999999992 $51 $158 forward @7 unknown #
edge $159 -1 $-1 $160 0 $97 0.0029999999999999992 $52 $161 forward @7 unknown #
coedge $-1 -1 $-1 $53 $162 $152 $163 forward $94 $-1 #
loop $-1 -1 $-1 $-1 $53 $164 #
truecolor-adesk-attrib $-1 -1 $165 $-1 $54 -1026895378 #
vertex $-1 -1 $-1 $54 $166 #
vertex $-1 -1 $-1 $54 $167 #
ellipse-curve $-1 -1 $-1 -52.942640629552606 7.0000000000000009 -449.45557953382007 0 -1 0 0 0 -2.0000000000000018 1 F 0.11302841059679138 F 1.5707963267948255 #
DXID-attrib $-1 -1 $-1 $56 $22 @18 ASM_FACE_FROM_STEP @18 Buttom Metals-2903 #
fmesh-eye-attrib $-1 -1 $168 $57 $35 #
truecolor-adesk-attrib $-1 -1 $169 $-1 $58 -1026895378 #
face $170 -1 $-1 $171 $172 $8 $-1 $173 forward single #
loop $-1 -1 $-1 $-1 $174 $58 #
plane-surface $-1 -1 $-1 -52.908403294835225 7.0000000000000009 -423.78084580929425 0 0 -1 1 0 0 forward_v I I I I #
coedge $-1 -1 $-1 $175 $176 $177 $178 reversed $59 $-1 #
coedge $-1 -1 $-1 $179 $61 $63 $111 reversed $36 $-1 #
coedge $-1 -1 $-1 $61 $179 $175 $180 forward $36 $-1 #
coedge $-1 -1 $-1 $177 $64 $61 $109 forward $73 $-1 #
edge $181 -1 $-1 $113 0 $182 0.022674759572556401 $61 $183 forward @7 unknown #
coedge $-1 -1 $-1 $63 $62 $184 $185 forward $23 $-1 #
edge $186 -1 $-1 $187 0 $113 0.007000000000000001 $63 $188 forward @7 unknown #
truecolor-adesk-attrib $-1 -1 $189 $-1 $65 -1026895378 #
vertex $-1 -1 $-1 $65 $190 #
ellipse-curve $-1 -1 $-1 -52.942640629552606 0 -449.45557953382007 0 -1 0 0 0 -3.0000000000000027 1 F 0.12246235671367584 F 1.5692863946777722 #
coedge $-1 -1 $-1 $191 $184 $66 $116 reversed $192 $-1 #
edge $193 -1 $-1 $123 0.00093971905387850842 $126 0.67349711314153426 $66 $194 forward @7 unknown #
pcurve $-1 -1 $-1 0 reversed { exppc nubs 1 open 2 
	-0.67349711314153426 1 -0.00093971905387850842 1 
	0 0 
	0.67255739408765569 0 
	3.7551519587279769e-14 
	spline forward { ref 0 } I I I I 
	} 0 0 #
coedge $-1 -1 $-1 $195 $67 $72 $129 reversed $120 $196 #
coedge $-1 -1 $-1 $67 $195 $191 $197 forward $120 $198 #
loop $-1 -1 $-1 $-1 $118 $199 #
pcurve $-1 -1 $-1 0 reversed { exppc nubs 1 open 2 
	-0.007000000000000001 1 0 1 
	0 0.70000000000000007 
	0 0 
	5.662137425588298e-16 
	spline forward { sumsur 
	intcurve forward { exactcur full nubs 3 open 5 
	0 3 0.052877426482905387 1 0.10575485296581089 1 0.15863227944871638 1 0.21150970593162188 3 
	-65.355868604361973 7.0000000000000009 -454.3019391581222 
	-65.938597433792125 7.0000000000000009 -454.40086070333166 
	-67.106365968232424 7.0000000000000009 -454.58837910196195 
	-68.859657055549661 7.0000000000000009 -454.83773446167629 
	-70.616225294838486 7.0000000000000009 -455.05552594442969 
	-71.789129161567487 7.0000000000000009 -455.1796555699176 
	-72.376147034858306 7.0000000000000009 -455.23647451028512 
	0 
	null_surface 
	null_surface 
	nullbs 
	nullbs 
	I I 
	0 
	0 
	3 0.052877426482905387 0.10575485296581089 0.15863227944871638 
	F 1 F 0 } F 0 F 0.21150970593162188 
	straight -68.863141507600062 7.0000000000000009 -454.80008134996069 0 -10 0 I I 
	-68.863141507600062 7.0000000000000009 -454.80008134996069 
	none F 0 F 0.21150970593162188 F 0 F 0.84000000000000008 OPEN OPEN NON_SINGULAR NON_SINGULAR 
	0 
	0 
	3 0.052877426482905387 0.10575485296581089 0.15863227944871638 
	0 
	0 
	0 
	} I I I I 
	} 0 0 #
truecolor-adesk-attrib $-1 -1 $200 $-1 $68 -1026895378 #
vertex $-1 -1 $-1 $68 $201 #
straight-curve $-1 -1 $-1 -65.355868604361973 7.0000000000000009 -454.3019391581222 0 -1000 0 F 0 F 0.007000000000000001 #
truecolor-adesk-attrib $-1 -1 $202 $-1 $70 -1026895378 #
vertex $-1 -1 $-1 $116 $203 #
straight-curve $-1 -1 $-1 -52.576171156825509 7.0000000000000009 -452.43311209041104 0 -1000 0 F 0 F 0.007000000000000001 #
coedge $-1 -1 $-1 $72 $204 $205 $206 forward $73 $-1 #
edge $207 -1 $-1 $208 0.78848682625462341 $75 0.99999653218624529 $118 $209 forward @7 unknown #
face $210 -1 $-1 $-1 $73 $8 $-1 $211 reversed single #
DXID-attrib $-1 -1 $-1 $74 $42 @18 ASM_EDGE_FROM_STEP @5 36329 #
point $-1 -1 $-1 -65.355868604361973 0 -454.3019391581222 #
point $-1 -1 $-1 -52.576171156825509 0 -452.43311209041104 #
DXID-attrib $-1 -1 $-1 $79 $28 @18 ASM_FACE_FROM_STEP @18 Buttom Metals-1567 #
fmesh-eye-attrib $-1 -1 $212 $80 $47 #
truecolor-adesk-attrib $-1 -1 $213 $-1 $81 -1026895378 #
face $214 -1 $-1 $215 $216 $9 $-1 $217 reversed single #
loop $-1 -1 $-1 $-1 $218 $81 #
cone-surface $-1 -1 $-1 -56.25592845797965 10 -426.78540346323558 0 -1 0 0 0 2.0000000000000018 1 I I 0 1 2.0000000000000018 forward I I I I #
coedge $-1 -1 $-1 $219 $220 $221 $222 reversed $82 $-1 #
coedge $-1 -1 $-1 $223 $84 $86 $146 reversed $48 $-1 #
coedge $-1 -1 $-1 $84 $223 $219 $224 forward $48 $-1 #
coedge $-1 -1 $-1 $221 $87 $84 $144 forward $94 $-1 #
edge $225 -1 $-1 $148 1.57079632679479 $226 3.1415926535897887 $84 $227 forward @7 unknown #
coedge $-1 -1 $-1 $86 $85 $228 $229 forward $29 $-1 #
edge $230 -1 $-1 $231 0 $148 0.0029999999999999992 $86 $232 forward @7 unknown #
truecolor-adesk-attrib $-1 -1 $233 $-1 $88 -1026895378 #
vertex $-1 -1 $-1 $88 $234 #
straight-curve $-1 -1 $-1 -50.942640629552614 7.0000000000000009 -449.45557953382024 -5.8155253741193704e-11 0 1000 F 0 F 0.022670176070584348 #
coedge $-1 -1 $-1 $235 $228 $89 $151 reversed $236 $-1 #
edge $237 -1 $-1 $157 0.11302841059679138 $160 1.5707963267948255 $89 $238 forward @7 unknown #
coedge $-1 -1 $-1 $239 $90 $93 $163 reversed $154 $240 #
coedge $-1 -1 $-1 $90 $239 $235 $241 forward $154 $242 #
loop $-1 -1 $-1 $-1 $152 $243 #
pcurve $-1 -1 $-1 0 reversed { exppc nubs 1 open 2 
	-0.0029999999999999992 1 0 1 
	0 0.29999999999999993 
	0 2.7755575615628914e-17 
	1.1324274851176596e-15 
	spline forward { sumsur 
	intcurve forward { exactcur full nubs 3 open 5 
	0 3 0.16837428155271128 1 0.33674856310542245 1 0.50512284465813373 1 0.6734971262108449 3 
	-52.717064829526578 10 -451.44281770737723 
	-53.787175200323887 10 -451.57452494723918 
	-55.925972504467502 10 -451.8501884478564 
	-59.128852909627312 10 -452.30017794019835 
	-62.326568435176732 10 -452.78654636302804 
	-64.455213973656214 10 -453.13501235705803 
	-65.518431981111732 10 -453.3152238902648 
	0 
	null_surface 
	null_surface 
	nullbs 
	nullbs 
	I I 
	0 
	0 
	3 0.16837428155271128 0.33674856310542245 0.50512284465813373 
	F 1 F 0 } F 0 F 0.6734971262108449 
	straight -59.122754261984277 10 -452.34349880757458 0 -10 0 I I 
	-59.122754261984277 10 -452.34349880757458 
	none F 0 F 0.6734971262108449 F 0 F 0.35999999999999993 OPEN OPEN NON_SINGULAR NON_SINGULAR 
	0 
	0 
	3 0.16837428155271128 0.33674856310542245 0.50512284465813373 
	0 
	0 
	0 
	} I I I I 
	} 0 0 #
truecolor-adesk-attrib $-1 -1 $244 $-1 $91 -1026895378 #
vertex $-1 -1 $-1 $91 $245 #
straight-curve $-1 -1 $-1 -52.717064829526578 10 -451.44281770737723 0 -1000 0 F 0 F 0.0029999999999999992 #
truecolor-adesk-attrib $-1 -1 $246 $-1 $92 -1026895378 #
vertex $-1 -1 $-1 $151 $247 #
straight-curve $-1 -1 $-1 -50.942640629552614 10 -449.45557953382024 0 -1000 0 F 0 F 0.0029999999999999992 #
coedge $-1 -1 $-1 $93 $248 $249 $250 forward $94 $-1 #
edge $251 -1 $-1 $252 -1.3069310670534769e-08 $96 0.67349711314153426 $152 $253 forward @7 unknown #
face $254 -1 $-1 $-1 $94 $9 $-1 $255 reversed single #
DXID-attrib $-1 -1 $-1 $95 $54 @18 ASM_EDGE_FROM_STEP @5 31737 #
point $-1 -1 $-1 -52.717064829526578 7.0000000000000009 -451.44281770737723 #
point $-1 -1 $-1 -50.942640629552614 7.0000000000000009 -449.45557953382024 #
DXID-attrib $-1 -1 $-1 $100 $35 @18 ASM_FACE_FROM_STEP @18 Buttom Metals-4961 #
fmesh-eye-attrib $-1 -1 $256 $101 $58 #
truecolor-adesk-attrib $-1 -1 $257 $-1 $102 -1026895378 #
face $258 -1 $-1 $259 $260 $8 $-1 $261 reversed single #
loop $-1 -1 $-1 $-1 $262 $102 #
cone-surface $-1 -1 $-1 -56.221691123260953 7.0000000000000009 -426.78084580929419 0 -1 0 0 0 3.0000000000000027 1 I I 0 1 3.0000000000000027 forward I I I I #
coedge $-1 -1 $-1 $263 $264 $265 $266 reversed $103 $-1 #
coedge $-1 -1 $-1 $267 $105 $107 $180 reversed $59 $-1 #
coedge $-1 -1 $-1 $105 $267 $263 $268 forward $59 $-1 #
coedge $-1 -1 $-1 $265 $108 $105 $178 forward $73 $-1 #
edge $269 -1 $-1 $182 1.5692863946777722 $270 3.1415926535897931 $105 $271 forward @7 unknown #
coedge $-1 -1 $-1 $107 $106 $272 $273 forward $36 $-1 #
edge $274 -1 $-1 $275 0 $182 0.007000000000000001 $107 $276 forward @7 unknown #
truecolor-adesk-attrib $-1 -1 $277 $-1 $109 -1026895378 #
vertex $-1 -1 $-1 $109 $278 #
straight-curve $-1 -1 $-1 -49.94264404939446 0 -449.46010932845019 1.5099315433896034 0 999.99886005271765 F 0 F 0.022674759572556401 #
coedge $-1 -1 $-1 $115 $272 $110 $185 reversed $192 $-1 #
edge $279 -1 $-1 $126 0.12246235671367584 $187 1.5692863946777722 $110 $280 forward @7 unknown #
truecolor-adesk-attrib $-1 -1 $281 $-1 $111 -1026895378 #
vertex $-1 -1 $-1 $185 $282 #
straight-curve $-1 -1 $-1 -49.94264404939446 7.0000000000000009 -449.46010932845019 0 -1000 0 F 0 F 0.007000000000000001 #
DXID-attrib $-1 -1 $-1 $112 $65 @18 ASM_EDGE_FROM_STEP @5 27548 #
point $-1 -1 $-1 -49.94264404939446 0 -449.46010932845019 #
coedge $-1 -1 $-1 $283 $115 $119 $197 reversed $192 $-1 #
loop $-1 -1 $-1 $-1 $115 $284 #
truecolor-adesk-attrib $-1 -1 $285 $-1 $116 -1026895378 #
intcurve-curve $-1 -1 $-1 forward { exactcur full nubs 3 open 5 
	0.00093971905387850842 3 0.16907906757579244 1 0.33721841609770636 1 0.50535776461962034 1 0.67349711314153426 3 
	-65.355868604361973 7.0000000000000009 -454.3019391581222 
	-64.29442306356988 7.0000000000000009 -454.12209575151337 
	-62.169316517160418 7.0000000000000009 -453.77433081867906 
	-58.977003636242657 7.0000000000000009 -453.28891285475748 
	-55.779566191094418 7.0000000000000009 -452.83976585287462 
	-53.644445570050287 7.0000000000000009 -452.56459342722314 
	-52.576171156825509 7.0000000000000009 -452.43311209041104 
	0 
	null_surface 
	null_surface 
	nullbs 
	nullbs 
	I I 
	0 
	0 
	3 0.16907906757579244 0.33721841609770636 0.50535776461962034 
	F 1 F 0 } F 0.00093971905387850842 F 0.67349711314153426 #
coedge $-1 -1 $-1 $119 $118 $286 $287 reversed $120 $288 #
pcurve $-1 -1 $-1 0 reversed { exppc nubs 1 open 2 
	0.78848682625462341 1 0.99999653218624529 1 
	0.21150970593162188 0.70000000000000007 
	0 0.7000000000000004 
	3.8096363979077889e-14 
	spline forward { ref 8 } I I I I 
	} 0 0 #
edge $289 -1 $-1 $290 0.78848682625462341 $123 0.99999653218624529 $119 $291 forward @7 unknown #
pcurve $-1 -1 $-1 0 reversed { exppc nubs 1 open 2 
	-0.99999653218624529 1 -0.78848682625462341 1 
	0 0 
	0.21150970593162 0 
	4.4088652427417777e-14 
	spline forward { ref 8 } I I I I 
	} 0 0 #
face $292 -1 $-1 $284 $120 $8 $-1 $293 reversed single #
DXID-attrib $-1 -1 $-1 $122 $68 @18 ASM_EDGE_FROM_STEP @5 29915 #
point $-1 -1 $-1 -65.355868604361973 7.0000000000000009 -454.3019391581222 #
DXID-attrib $-1 -1 $-1 $125 $70 @18 ASM_EDGE_FROM_STEP @5 23927 #
point $-1 -1 $-1 -52.576171156825509 7.0000000000000009 -452.43311209041104 #
coedge $-1 -1 $-1 $128 $294 $295 $296 forward $73 $-1 #
coedge $-1 -1 $-1 $297 $286 $128 $206 reversed $298 $-1 #
edge $299 -1 $-1 $300 -2.5127621221276359 $208 0.090946222127285509 $205 $301 forward @7 unknown #
truecolor-adesk-attrib $-1 -1 $302 $-1 $129 -1026895378 #
vertex $-1 -1 $-1 $206 $303 #
intcurve-curve $-1 -1 $-1 forward { exactcur full nubs 3 open 5 
	0.78848682625462341 3 0.84136425273752891 1 0.8942416792204344 1 0.9471191057033399 1 0.99999653218624529 3 
	-72.376147034858306 0 -455.23647451028512 
	-71.789129161567487 0 -455.1796555699176 
	-70.616225294838486 0 -455.05552594442969 
	-68.859657055549661 0 -454.83773446167629 
	-67.106365968232424 0 -454.58837910196195 
	-65.938597433792125 0 -454.40086070333166 
	-65.355868604361973 0 -454.3019391581222 
	0 
	null_surface 
	null_surface 
	nullbs 
	nullbs 
	I I 
	0 
	0 
	3 0.84136425273752891 0.8942416792204344 0.9471191057033399 
	F 1 F 0 } F 0.78848682625462341 F 0.99999653218624529 #
truecolor-adesk-attrib $-1 -1 $304 $-1 $130 -1026895378 #
plane-surface $-1 -1 $-1 -58.97614954220424 0 -453.29495801509728 0 1 0 0 0 -1 forward_v I I I I #
DXID-attrib $-1 -1 $-1 $135 $47 @18 ASM_FACE_FROM_STEP @19 Buttom Metals-47553 #
fmesh-eye-attrib $-1 -1 $305 $136 $81 #
truecolor-adesk-attrib $-1 -1 $306 $-1 $137 -1026895378 #
face $307 -1 $-1 $308 $309 $9 $-1 $310 forward single #
loop $-1 -1 $-1 $-1 $311 $137 #
cone-surface $-1 -1 $-1 -97.387221560059317 10 -418.28736087974534 0 -1 0 0 0 40.000000000000036 1 I I 0 1 40.000000000000036 forward I I I I #
coedge $-1 -1 $-1 $312 $313 $314 $315 reversed $138 $-1 #
coedge $-1 -1 $-1 $316 $140 $142 $224 reversed $82 $-1 #
coedge $-1 -1 $-1 $140 $316 $312 $317 forward $82 $-1 #
coedge $-1 -1 $-1 $314 $143 $140 $222 forward $94 $-1 #
edge $318 -1 $-1 $226 0 $319 0.0033132878284257128 $140 $320 forward @7 unknown #
coedge $-1 -1 $-1 $142 $141 $321 $322 forward $48 $-1 #
edge $323 -1 $-1 $324 0 $226 0.0029999999999999992 $142 $325 forward @7 unknown #
truecolor-adesk-attrib $-1 -1 $326 $-1 $144 -1026895378 #
vertex $-1 -1 $-1 $144 $327 #
ellipse-curve $-1 -1 $-1 -52.942640629553921 7.0000000000000009 -426.78540346323564 0 -1 0 0 0 -2.0000000000000018 1 F 1.57079632679479 F 3.1415926535897887 #
coedge $-1 -1 $-1 $150 $321 $145 $229 reversed $236 $-1 #
edge $328 -1 $-1 $160 0 $231 0.022670176070584348 $145 $329 forward @7 unknown #
truecolor-adesk-attrib $-1 -1 $330 $-1 $146 -1026895378 #
vertex $-1 -1 $-1 $229 $331 #
straight-curve $-1 -1 $-1 -50.942640629553928 10 -426.78540346323587 0 -1000 0 F 0 F 0.0029999999999999992 #
DXID-attrib $-1 -1 $-1 $147 $88 @18 ASM_EDGE_FROM_STEP @4 9831 #
point $-1 -1 $-1 -50.942640629553928 7.0000000000000009 -426.78540346323587 #
coedge $-1 -1 $-1 $332 $150 $153 $241 reversed $236 $-1 #
loop $-1 -1 $-1 $-1 $150 $333 #
truecolor-adesk-attrib $-1 -1 $334 $-1 $151 -1026895378 #
ellipse-curve $-1 -1 $-1 -52.942640629552606 10 -449.45557953382007 0 -1 0 0 0 -2.0000000000000018 1 F 0.11302841059679138 F 1.5707963267948255 #
coedge $-1 -1 $-1 $153 $152 $335 $336 reversed $154 $337 #
pcurve $-1 -1 $-1 0 reversed { exppc nubs 1 open 2 
	-1.3069310670534769e-08 1 0.67349711314153426 1 
	0.6734971262108449 0.29999999999999993 
	0 0.29999999999999993 
	4.0520091822674263e-14 
	spline forward { ref 11 } I I I I 
	} 0 0 #
edge $338 -1 $-1 $339 -1.3069310670534769e-08 $157 0.67349711314153426 $153 $340 forward @7 unknown #
pcurve $-1 -1 $-1 0 reversed { exppc nubs 1 open 2 
	-0.67349711314153426 1 1.3069310670534769e-08 1 
	0 0 
	0.6734971262108449 0 
	5.3721876035895406e-14 
	spline forward { ref 11 } I I I I 
	} 0 0 #
face $341 -1 $-1 $333 $154 $9 $-1 $342 reversed single #
DXID-attrib $-1 -1 $-1 $156 $91 @18 ASM_EDGE_FROM_STEP @4 7140 #
point $-1 -1 $-1 -52.717064829526578 10 -451.44281770737723 #
DXID-attrib $-1 -1 $-1 $159 $92 @18 ASM_EDGE_FROM_STEP @4 2905 #
point $-1 -1 $-1 -50.942640629552614 10 -449.45557953382024 #
coedge $-1 -1 $-1 $162 $343 $344 $345 forward $94 $-1 #
coedge $-1 -1 $-1 $346 $335 $162 $250 reversed $347 $348 #
edge $349 -1 $-1 $350 0.78848682625462341 $252 1.0006694025918101 $249 $351 forward @7 unknown #
truecolor-adesk-attrib $-1 -1 $352 $-1 $163 -1026895378 #
vertex $-1 -1 $-1 $250 $353 #
intcurve-curve $-1 -1 $-1 forward { exactcur full nubs 3 open 5 
	-1.3069310670534769e-08 3 0.16837426848340056 1 0.33674855003611182 1 0.50512283158882298 1 0.67349711314153426 3 
	-65.518431981111732 7.0000000000000009 -453.3152238902648 
	-64.455213973656214 7.0000000000000009 -453.13501235705803 
	-62.326568435176732 7.0000000000000009 -452.78654636302804 
	-59.128852909627312 7.0000000000000009 -452.30017794019835 
	-55.925972504467502 7.0000000000000009 -451.8501884478564 
	-53.787175200323887 7.0000000000000009 -451.57452494723918 
	-52.717064829526578 7.0000000000000009 -451.44281770737723 
	0 
	null_surface 
	null_surface 
	nullbs 
	nullbs 
	I I 
	0 
	0 
	3 0.16837426848340056 0.33674855003611182 0.50512283158882298 
	F 1 F 0 } F -1.3069310670534769e-08 F 0.67349711314153426 #
truecolor-adesk-attrib $-1 -1 $354 $-1 $164 -1026895378 #
plane-surface $-1 -1 $-1 -52.942640629552606 7.0000000000000009 -449.45557953382007 0 1 0 0 0 -1 forward_v I I I I #
DXID-attrib $-1 -1 $-1 $169 $58 @18 ASM_FACE_FROM_STEP @19 Buttom Metals-22396 #
fmesh-eye-attrib $-1 -1 $355 $170 $102 #
truecolor-adesk-attrib $-1 -1 $356 $-1 $171 -1026895378 #
face $357 -1 $-1 $199 $298 $8 $-1 $358 forward single #
loop $-1 -1 $-1 $-1 $295 $171 #
cone-surface $-1 -1 $-1 -97.352984225340606 7.0000000000000009 -418.28280322580383 0 -1 0 0 0 38.999999999999979 1 I I 0 1 38.999999999999979 forward I I I I #
coedge $-1 -1 $-1 $359 $360 $294 $361 reversed $172 $-1 #
coedge $-1 -1 $-1 $362 $174 $176 $268 reversed $103 $-1 #
coedge $-1 -1 $-1 $174 $362 $359 $363 forward $103 $-1 #
coedge $-1 -1 $-1 $294 $177 $174 $266 forward $73 $-1 #
edge $364 -1 $-1 $270 0 $365 0.0033132878284257306 $174 $366 forward @7 unknown #
coedge $-1 -1 $-1 $176 $175 $367 $368 forward $59 $-1 #
edge $369 -1 $-1 $370 0 $270 0.007000000000000001 $176 $371 forward @7 unknown #
truecolor-adesk-attrib $-1 -1 $372 $-1 $178 -1026895378 #
vertex $-1 -1 $-1 $178 $373 #
ellipse-curve $-1 -1 $-1 -52.908403294835225 0 -426.78084580929419 0 -1 0 0 0 -3.0000000000000027 1 F 1.5692863946777722 F 3.1415926535897931 #
coedge $-1 -1 $-1 $184 $367 $179 $273 reversed $192 $-1 #
edge $374 -1 $-1 $187 0 $275 0.022674759572556401 $179 $375 forward @7 unknown #
truecolor-adesk-attrib $-1 -1 $376 $-1 $180 -1026895378 #
vertex $-1 -1 $-1 $273 $377 #
straight-curve $-1 -1 $-1 -49.908406714677085 7.0000000000000009 -426.78537560392436 0 -1000 0 F 0 F 0.007000000000000001 #
DXID-attrib $-1 -1 $-1 $181 $109 @18 ASM_EDGE_FROM_STEP @4 6122 #
point $-1 -1 $-1 -49.908406714677085 0 -426.78537560392436 #
truecolor-adesk-attrib $-1 -1 $378 $-1 $185 -1026895378 #
ellipse-curve $-1 -1 $-1 -52.942640629552606 7.0000000000000009 -449.45557953382007 0 -1 0 0 0 -3.0000000000000027 1 F 0.12246235671367584 F 1.5692863946777722 #
DXID-attrib $-1 -1 $-1 $186 $111 @18 ASM_EDGE_FROM_STEP @5 49302 #
point $-1 -1 $-1 -49.94264404939446 7.0000000000000009 -449.46010932845019 #
coedge $-1 -1 $-1 $379 $191 $380 $381 reversed $192 $-1 #
face $382 -1 $-1 $130 $192 $8 $-1 $383 forward single #
DXID-attrib $-1 -1 $-1 $193 $116 @18 ASM_EDGE_FROM_STEP @5 35712 #
coedge $-1 -1 $-1 $205 $380 $195 $287 forward $298 $-1 #
edge $384 -1 $-1 $290 0 $208 0.007000000000000001 $286 $385 forward @7 unknown #
pcurve $-1 -1 $-1 0 reversed { exppc nubs 1 open 2 
	0 1 0.007000000000000001 1 
	0.21150970593162188 0 
	0.21150970593162188 0.70000000000000007 
	5.662137425588298e-16 
	spline forward { ref 8 } I I I I 
	} 0 0 #
truecolor-adesk-attrib $-1 -1 $386 $-1 $197 -1026895378 #
vertex $-1 -1 $-1 $381 $387 #
intcurve-curve $-1 -1 $-1 forward { exactcur full nubs 3 open 5 
	0.78848682625462341 3 0.84136425273752891 1 0.8942416792204344 1 0.9471191057033399 1 0.99999653218624529 3 
	-72.376147034858306 7.0000000000000009 -455.23647451028512 
	-71.789129161567487 7.0000000000000009 -455.1796555699176 
	-70.616225294838486 7.0000000000000009 -455.05552594442969 
	-68.859657055549661 7.0000000000000009 -454.83773446167629 
	-67.106365968232424 7.0000000000000009 -454.58837910196195 
	-65.938597433792125 7.0000000000000009 -454.40086070333166 
	-65.355868604361973 7.0000000000000009 -454.3019391581222 
	0 
	null_surface 
	null_surface 
	nullbs 
	nullbs 
	I I 
	0 
	0 
	3 0.84136425273752891 0.8942416792204344 0.9471191057033399 
	F 1 F 0 } F 0.78848682625462341 F 0.99999653218624529 #
truecolor-adesk-attrib $-1 -1 $388 $-1 $199 -1026895378 #
spline-surface $-1 -1 $-1 forward { ref 8 } F 0 F 0.21150970593162188 F 0 F 0.7000000000000004 #
coedge $-1 -1 $-1 $204 $265 $262 $361 forward $73 $-1 #
coedge $-1 -1 $-1 $389 $390 $204 $296 reversed $260 $-1 #
edge $391 -1 $-1 $392 -1.3670553409779982 $300 -0.62883053146215129 $295 $393 forward @7 unknown #
coedge $-1 -1 $-1 $380 $205 $390 $394 reversed $298 $-1 #
loop $-1 -1 $-1 $-1 $205 $259 #
truecolor-adesk-attrib $-1 -1 $395 $-1 $206 -1026895378 #
vertex $-1 -1 $-1 $296 $396 #
ellipse-curve $-1 -1 $-1 -72.648609738864295 0 -452.24887278399592 0 -1 0 0 0 -3.0000000000000027 1 F -2.5127621221276359 F 0.090946222127285509 #
DXID-attrib $-1 -1 $-1 $207 $129 @18 ASM_EDGE_FROM_STEP @5 25579 #
point $-1 -1 $-1 -72.376147034858306 0 -455.23647451028512 #
fmesh-eye-attrib $-1 -1 $397 $210 $130 #
DXID-attrib $-1 -1 $-1 $213 $81 @18 ASM_FACE_FROM_STEP @19 Buttom Metals-29624 #
fmesh-eye-attrib $-1 -1 $398 $214 $137 #
truecolor-adesk-attrib $-1 -1 $399 $-1 $215 -1026895378 #
face $400 -1 $-1 $243 $347 $9 $-1 $401 reversed single #
loop $-1 -1 $-1 $-1 $344 $215 #
cone-surface $-1 -1 $-1 -72.682847073582977 10 -452.25343043793737 0 -1 0 0 0 2.0000000000000018 1 I I 0 1 2.0000000000000018 forward I I I I #
coedge $-1 -1 $-1 $402 $403 $343 $404 reversed $216 $-1 #
coedge $-1 -1 $-1 $405 $218 $220 $317 reversed $138 $-1 #
coedge $-1 -1 $-1 $218 $405 $402 $406 forward $138 $-1 #
coedge $-1 -1 $-1 $343 $221 $218 $315 forward $94 $-1 #
edge $407 -1 $-1 $319 -3.1415926535898064 $408 -1.7745373126117812 $218 $409 forward @7 unknown #
coedge $-1 -1 $-1 $220 $219 $410 $411 forward $82 $-1 #
edge $412 -1 $-1 $413 0 $319 0.0029999999999999992 $220 $414 forward @7 unknown #
truecolor-adesk-attrib $-1 -1 $415 $-1 $222 -1026895378 #
vertex $-1 -1 $-1 $222 $416 #
straight-curve $-1 -1 $-1 -52.942640629553914 7.0000000000000009 -424.7854034632357 -1000 0 1.5183401928358998e-11 F 0 F 0.0033132878284257128 #
coedge $-1 -1 $-1 $228 $410 $223 $322 reversed $236 $-1 #
edge $417 -1 $-1 $231 1.57079632679479 $324 3.1415926535897887 $223 $418 forward @7 unknown #
truecolor-adesk-attrib $-1 -1 $419 $-1 $224 -1026895378 #
vertex $-1 -1 $-1 $322 $420 #
straight-curve $-1 -1 $-1 -52.942640629553914 10 -424.7854034632357 0 -1000 0 F 0 F 0.0029999999999999992 #
DXID-attrib $-1 -1 $-1 $225 $144 @18 ASM_EDGE_FROM_STEP @5 33783 #
point $-1 -1 $-1 -52.942640629553914 7.0000000000000009 -424.7854034632357 #
truecolor-adesk-attrib $-1 -1 $421 $-1 $229 -1026895378 #
straight-curve $-1 -1 $-1 -50.942640629552614 10 -449.45557953382024 -5.8155253741193704e-11 0 1000 F 0 F 0.022670176070584348 #
DXID-attrib $-1 -1 $-1 $230 $146 @18 ASM_EDGE_FROM_STEP @4 6662 #
point $-1 -1 $-1 -50.942640629553928 10 -426.78540346323587 #
coedge $-1 -1 $-1 $422 $235 $423 $424 reversed $236 $-1 #
face $425 -1 $-1 $164 $236 $9 $-1 $426 forward single #
DXID-attrib $-1 -1 $-1 $237 $151 @18 ASM_EDGE_FROM_STEP @5 28271 #
coedge $-1 -1 $-1 $249 $423 $239 $336 forward $347 $427 #
edge $428 -1 $-1 $339 0 $252 0.0029999999999999992 $335 $429 forward @7 unknown #
pcurve $-1 -1 $-1 0 reversed { exppc nubs 1 open 2 
	0 1 0.0029999999999999992 1 
	0.6734971262108449 0 
	0.6734971262108449 0.29999999999999993 
	0 
	spline forward { ref 11 } I I I I 
	} 0 0 #
truecolor-adesk-attrib $-1 -1 $430 $-1 $241 -1026895378 #
vertex $-1 -1 $-1 $424 $431 #
intcurve-curve $-1 -1 $-1 forward { exactcur full nubs 3 open 5 
	-1.3069310670534769e-08 3 0.16837426848340056 1 0.33674855003611182 1 0.50512283158882298 1 0.67349711314153426 3 
	-65.518431981111732 10 -453.3152238902648 
	-64.455213973656214 10 -453.13501235705803 
	-62.326568435176732 10 -452.78654636302804 
	-59.128852909627312 10 -452.30017794019835 
	-55.925972504467502 10 -451.8501884478564 
	-53.787175200323887 10 -451.57452494723918 
	-52.717064829526578 10 -451.44281770737723 
	0 
	null_surface 
	null_surface 
	nullbs 
	nullbs 
	I I 
	0 
	0 
	3 0.16837426848340056 0.33674855003611182 0.50512283158882298 
	F 1 F 0 } F -1.3069310670534769e-08 F 0.67349711314153426 #
truecolor-adesk-attrib $-1 -1 $432 $-1 $243 -1026895378 #
spline-surface $-1 -1 $-1 forward { ref 11 } F 0 F 0.6734971262108449 F 0 F 0.30000000000000021 #
coedge $-1 -1 $-1 $248 $314 $311 $404 forward $94 $-1 #
coedge $-1 -1 $-1 $433 $434 $248 $345 reversed $309 $-1 #
edge $435 -1 $-1 $436 -2.5127621221276346 $350 0.096492756816720759 $344 $437 forward @7 unknown #
coedge $-1 -1 $-1 $423 $249 $434 $438 reversed $347 $439 #
loop $-1 -1 $-1 $-1 $249 $308 #
pcurve $-1 -1 $-1 0 reversed { exppc nubs 1 open 2 
	0.78848682625462341 1 1.0006694025918101 1 
	0.21218257633718673 0.29999999999999993 
	1.4224732503009818e-15 0.29999999999999982 
	5.3637684556018915e-14 
	spline forward { sumsur 
	intcurve forward { exactcur full nubs 3 open 5 
	0 3 0.053045644084296684 1 0.10609128816859337 1 0.15913693225289005 1 0.21218257633718673 3 
	-65.518431981111732 10 -453.3152238902648 
	-66.097266014683839 10 -453.41348476196265 
	-67.257313469705494 10 -453.60019946695905 
	-68.998172835959821 10 -453.84795877813883 
	-70.742523368866486 10 -454.06441174715496 
	-71.907235858441794 10 -454.18770353887163 
	-72.490160897157722 10 -454.244126807908 
	0 
	null_surface 
	null_surface 
	nullbs 
	nullbs 
	I I 
	0 
	0 
	3 0.053045644084296684 0.10609128816859337 0.15913693225289005 
	F 1 F 0 } F 0 F 0.21218257633718673 
	straight -69.001586346560998 10 -453.81044414160851 0 -10 0 I I 
	-69.001586346560998 10 -453.81044414160851 
	none F 0 F 0.21218257633718673 F 0 F 0.35999999999999993 OPEN OPEN NON_SINGULAR NON_SINGULAR 
	0 
	0 
	3 0.053045644084296684 0.10609128816859337 0.15913693225289005 
	0 
	0 
	0 
	} I I I I 
	} 0 0 #
truecolor-adesk-attrib $-1 -1 $440 $-1 $250 -1026895378 #
vertex $-1 -1 $-1 $345 $441 #
intcurve-curve $-1 -1 $-1 forward { exactcur full nubs 3 open 5 
	0.78848682625462341 3 0.84153247033892009 1 0.89457811442321677 1 0.94762375850751346 1 1.0006694025918101 3 
	-72.490160897157722 7.0000000000000009 -454.244126807908 
	-71.907235858441794 7.0000000000000009 -454.18770353887163 
	-70.742523368866486 7.0000000000000009 -454.06441174715496 
	-68.998172835959821 7.0000000000000009 -453.84795877813883 
	-67.257313469705494 7.0000000000000009 -453.60019946695905 
	-66.097266014683839 7.0000000000000009 -453.41348476196265 
	-65.518431981111732 7.0000000000000009 -453.3152238902648 
	0 
	null_surface 
	null_surface 
	nullbs 
	nullbs 
	I I 
	0 
	0 
	3 0.84153247033892009 0.89457811442321677 0.94762375850751346 
	F 1 F 0 } F 0.78848682625462341 F 1.0006694025918101 #
DXID-attrib $-1 -1 $-1 $251 $163 @18 ASM_EDGE_FROM_STEP @5 46680 #
point $-1 -1 $-1 -65.518431981111732 7.0000000000000009 -453.3152238902648 #
fmesh-eye-attrib $-1 -1 $442 $254 $164 #
DXID-attrib $-1 -1 $-1 $257 $102 @18 ASM_FACE_FROM_STEP @19 Buttom Metals-40083 #
fmesh-eye-attrib $-1 -1 $443 $258 $171 #
truecolor-adesk-attrib $-1 -1 $444 $-1 $259 -1026895378 #
cone-surface $-1 -1 $-1 -72.648609738864295 7.0000000000000009 -452.24887278399592 0 -1 0 0 0 3.0000000000000027 1 I I 0 1 3.0000000000000027 forward I I I I #
coedge $-1 -1 $-1 $445 $262 $264 $363 reversed $172 $-1 #
coedge $-1 -1 $-1 $262 $445 $389 $446 forward $172 $-1 #
edge $447 -1 $-1 $365 -3.1415926535897931 $392 -1.7745373126117689 $262 $448 forward @7 unknown #
coedge $-1 -1 $-1 $264 $263 $449 $450 forward $103 $-1 #
edge $451 -1 $-1 $452 0 $365 0.007000000000000001 $264 $453 forward @7 unknown #
truecolor-adesk-attrib $-1 -1 $454 $-1 $266 -1026895378 #
vertex $-1 -1 $-1 $266 $455 #
straight-curve $-1 -1 $-1 -52.908403294835225 0 -423.78084580929425 -1000 0 0 F 0 F 0.0033132878284257306 #
coedge $-1 -1 $-1 $272 $449 $267 $368 reversed $192 $-1 #
edge $456 -1 $-1 $275 1.5692863946777722 $370 3.1415926535897931 $267 $457 forward @7 unknown #
truecolor-adesk-attrib $-1 -1 $458 $-1 $268 -1026895378 #
vertex $-1 -1 $-1 $368 $459 #
straight-curve $-1 -1 $-1 -52.908403294835225 7.0000000000000009 -423.78084580929425 0 -1000 0 F 0 F 0.007000000000000001 #
DXID-attrib $-1 -1 $-1 $269 $178 @18 ASM_EDGE_FROM_STEP @5 41122 #
point $-1 -1 $-1 -52.908403294835225 0 -423.78084580929425 #
truecolor-adesk-attrib $-1 -1 $460 $-1 $273 -1026895378 #
straight-curve $-1 -1 $-1 -49.94264404939446 7.0000000000000009 -449.46010932845019 1.5099315433896034 0 999.99886005271765 F 0 F 0.022674759572556401 #
DXID-attrib $-1 -1 $-1 $274 $180 @18 ASM_EDGE_FROM_STEP @5 43918 #
point $-1 -1 $-1 -49.908406714677085 7.0000000000000009 -426.78537560392436 #
DXID-attrib $-1 -1 $-1 $279 $185 @18 ASM_EDGE_FROM_STEP @5 10553 #
coedge $-1 -1 $-1 $461 $283 $462 $463 reversed $192 $-1 #
coedge $-1 -1 $-1 $286 $297 $283 $381 forward $298 $-1 #
edge $464 -1 $-1 $465 -2.5127621221276359 $290 0.090946222127285509 $380 $466 forward @7 unknown #
truecolor-adesk-attrib $-1 -1 $467 $-1 $284 -1026895378 #
plane-surface $-1 -1 $-1 -58.97614954220424 7.0000000000000009 -453.29495801509728 0 1 0 0 0 -1 forward_v I I I I #
truecolor-adesk-attrib $-1 -1 $468 $-1 $287 -1026895378 #
straight-curve $-1 -1 $-1 -72.376147034858306 7.0000000000000009 -455.23647451028512 0 -1000 0 F 0 F 0.007000000000000001 #
DXID-attrib $-1 -1 $-1 $289 $197 @18 ASM_EDGE_FROM_STEP @5 10196 #
point $-1 -1 $-1 -72.376147034858306 7.0000000000000009 -455.23647451028512 #
fmesh-eye-attrib $-1 -1 $469 $292 $199 #
coedge $-1 -1 $-1 $462 $295 $360 $446 reversed $260 $-1 #
coedge $-1 -1 $-1 $295 $462 $297 $394 forward $260 $-1 #
truecolor-adesk-attrib $-1 -1 $470 $-1 $296 -1026895378 #
vertex $-1 -1 $-1 $361 $471 #
ellipse-curve $-1 -1 $-1 -97.352984225340606 0 -418.28280322580383 0 1 0 0 0 -38.999999999999979 1 F -1.3670553409779982 F -0.62883053146215129 #
edge $472 -1 $-1 $465 0 $300 0.007000000000000001 $390 $473 forward @7 unknown #
DXID-attrib $-1 -1 $-1 $299 $206 @18 ASM_EDGE_FROM_STEP @5 22280 #
point $-1 -1 $-1 -74.413207916469773 0 -449.82272495841073 #
DXID-attrib $-1 -1 $-1 $304 $130 @18 ASM_FACE_FROM_STEP @18 Buttom Metals-8656 #
DXID-attrib $-1 -1 $-1 $306 $137 @18 ASM_FACE_FROM_STEP @19 Buttom Metals-23762 #
fmesh-eye-attrib $-1 -1 $474 $307 $215 #
truecolor-adesk-attrib $-1 -1 $475 $-1 $308 -1026895378 #
spline-surface $-1 -1 $-1 forward { ref 25 } F 0 F 0.21218257633718673 F 0 F 0.29999999999999993 #
coedge $-1 -1 $-1 $476 $311 $313 $406 reversed $216 $-1 #
coedge $-1 -1 $-1 $311 $476 $433 $477 forward $216 $-1 #
edge $478 -1 $-1 $408 -1.3670553409780033 $436 -0.62883053146215306 $311 $479 forward @7 unknown #
coedge $-1 -1 $-1 $313 $312 $480 $481 forward $138 $-1 #
edge $482 -1 $-1 $483 0 $408 0.0029999999999999992 $313 $484 forward @7 unknown #
truecolor-adesk-attrib $-1 -1 $485 $-1 $315 -1026895378 #
vertex $-1 -1 $-1 $315 $486 #
ellipse-curve $-1 -1 $-1 -56.25592845797965 7.0000000000000009 -426.78540346323558 0 -1 0 0 0 -2.0000000000000018 1 F -3.1415926535898064 F -1.7745373126117812 #
coedge $-1 -1 $-1 $321 $480 $316 $411 reversed $236 $-1 #
edge $487 -1 $-1 $324 0 $413 0.0033132878284257128 $316 $488 forward @7 unknown #
truecolor-adesk-attrib $-1 -1 $489 $-1 $317 -1026895378 #
vertex $-1 -1 $-1 $411 $490 #
straight-curve $-1 -1 $-1 -56.255928457979621 10 -424.78540346323564 0 -1000 0 F 0 F 0.0029999999999999992 #
DXID-attrib $-1 -1 $-1 $318 $222 @18 ASM_EDGE_FROM_STEP @5 46201 #
point $-1 -1 $-1 -56.255928457979621 7.0000000000000009 -424.78540346323564 #
truecolor-adesk-attrib $-1 -1 $491 $-1 $322 -1026895378 #
ellipse-curve $-1 -1 $-1 -52.942640629553921 10 -426.78540346323564 0 -1 0 0 0 -2.0000000000000018 1 F 1.57079632679479 F 3.1415926535897887 #
DXID-attrib $-1 -1 $-1 $323 $224 @18 ASM_EDGE_FROM_STEP @5 31604 #
point $-1 -1 $-1 -52.942640629553914 10 -424.7854034632357 #
DXID-attrib $-1 -1 $-1 $328 $229 @18 ASM_EDGE_FROM_STEP @5 41773 #
coedge $-1 -1 $-1 $492 $332 $493 $494 reversed $236 $-1 #
coedge $-1 -1 $-1 $335 $346 $332 $424 forward $347 $495 #
edge $496 -1 $-1 $497 0.78848682625462341 $339 1.0006694025918101 $423 $498 forward @7 unknown #
truecolor-adesk-attrib $-1 -1 $499 $-1 $333 -1026895378 #
plane-surface $-1 -1 $-1 -52.942640629552606 10 -449.45557953382007 0 1 0 0 0 -1 forward_v I I I I #
pcurve $-1 -1 $-1 0 reversed { exppc nubs 1 open 2 
	-0.0029999999999999992 1 0 1 
	0 0.29999999999999993 
	0 2.7755575615628914e-17 
	1.1324274851176596e-15 
	spline forward { ref 25 } I I I I 
	} 0 0 #
truecolor-adesk-attrib $-1 -1 $500 $-1 $336 -1026895378 #
straight-curve $-1 -1 $-1 -65.518431981111732 10 -453.3152238902648 0 -1000 0 F 0 F 0.0029999999999999992 #
DXID-attrib $-1 -1 $-1 $338 $241 @18 ASM_EDGE_FROM_STEP @5 19649 #
point $-1 -1 $-1 -65.518431981111732 10 -453.3152238902648 #
fmesh-eye-attrib $-1 -1 $501 $341 $243 #
coedge $-1 -1 $-1 $493 $344 $403 $477 reversed $309 $-1 #
coedge $-1 -1 $-1 $344 $493 $346 $438 forward $309 $-1 #
truecolor-adesk-attrib $-1 -1 $502 $-1 $345 -1026895378 #
vertex $-1 -1 $-1 $404 $503 #
ellipse-curve $-1 -1 $-1 -72.682847073582977 7.0000000000000009 -452.25343043793737 0 -1 0 0 0 -2.0000000000000018 1 F -2.5127621221276346 F 0.096492756816720759 #
edge $504 -1 $-1 $497 0 $350 0.0029999999999999992 $434 $505 forward @7 unknown #
pcurve $-1 -1 $-1 0 reversed { exppc nubs 1 open 2 
	0 1 0.0029999999999999992 1 
	0.21218257633718673 0 
	0.21218257633718673 0.29999999999999993 
	2.7051831406545776e-14 
	spline forward { ref 25 } I I I I 
	} 0 0 #
DXID-attrib $-1 -1 $-1 $349 $250 @18 ASM_EDGE_FROM_STEP @5 40695 #
point $-1 -1 $-1 -72.490160897157722 7.0000000000000009 -454.244126807908 #
DXID-attrib $-1 -1 $-1 $354 $164 @18 ASM_FACE_FROM_STEP @19 Buttom Metals-31175 #
DXID-attrib $-1 -1 $-1 $356 $171 @18 ASM_FACE_FROM_STEP @18 Buttom Metals-9147 #
fmesh-eye-attrib $-1 -1 $506 $357 $259 #
coedge $-1 -1 $-1 $360 $359 $461 $507 forward $172 $-1 #
edge $508 -1 $-1 $509 0 $392 0.007000000000000001 $360 $510 forward @7 unknown #
truecolor-adesk-attrib $-1 -1 $511 $-1 $361 -1026895378 #
ellipse-curve $-1 -1 $-1 -56.221691123260953 0 -426.78084580929419 0 -1 0 0 0 -3.0000000000000027 1 F -3.1415926535897931 F -1.7745373126117689 #
coedge $-1 -1 $-1 $367 $461 $362 $450 reversed $192 $-1 #
edge $512 -1 $-1 $370 0 $452 0.0033132878284257306 $362 $513 forward @7 unknown #
truecolor-adesk-attrib $-1 -1 $514 $-1 $363 -1026895378 #
vertex $-1 -1 $-1 $450 $515 #
straight-curve $-1 -1 $-1 -56.221691123260953 7.0000000000000009 -423.78084580929425 0 -1000 0 F 0 F 0.007000000000000001 #
DXID-attrib $-1 -1 $-1 $364 $266 @18 ASM_EDGE_FROM_STEP @5 41439 #
point $-1 -1 $-1 -56.221691123260953 0 -423.78084580929425 #
truecolor-adesk-attrib $-1 -1 $516 $-1 $368 -1026895378 #
ellipse-curve $-1 -1 $-1 -52.908403294835225 7.0000000000000009 -426.78084580929419 0 -1 0 0 0 -3.0000000000000027 1 F 1.5692863946777722 F 3.1415926535897931 #
DXID-attrib $-1 -1 $-1 $369 $268 @18 ASM_EDGE_FROM_STEP @5 20450 #
point $-1 -1 $-1 -52.908403294835225 7.0000000000000009 -423.78084580929425 #
DXID-attrib $-1 -1 $-1 $374 $273 @18 ASM_EDGE_FROM_STEP @4 7796 #
coedge $-1 -1 $-1 $449 $379 $445 $507 reversed $192 $-1 #
coedge $-1 -1 $-1 $390 $389 $379 $463 forward $260 $-1 #
edge $517 -1 $-1 $509 -1.3670553409779982 $465 -0.62883053146215129 $462 $518 forward @7 unknown #
truecolor-adesk-attrib $-1 -1 $519 $-1 $381 -1026895378 #
vertex $-1 -1 $-1 $463 $520 #
ellipse-curve $-1 -1 $-1 -72.648609738864295 7.0000000000000009 -452.24887278399592 0 -1 0 0 0 -3.0000000000000027 1 F -2.5127621221276359 F 0.090946222127285509 #
fmesh-eye-attrib $-1 -1 $521 $382 $284 #
DXID-attrib $-1 -1 $-1 $384 $287 @18 ASM_EDGE_FROM_STEP @5 23011 #
DXID-attrib $-1 -1 $-1 $388 $199 @18 ASM_FACE_FROM_STEP @19 Buttom Metals-13567 #
DXID-attrib $-1 -1 $-1 $391 $296 @18 ASM_EDGE_FROM_STEP @5 29364 #
point $-1 -1 $-1 -59.15964063055236 0 -426.17384276761641 #
truecolor-adesk-attrib $-1 -1 $522 $-1 $394 -1026895378 #
straight-curve $-1 -1 $-1 -74.413207916469773 7.0000000000000009 -449.82272495841073 0 -1000 0 F 0 F 0.007000000000000001 #
DXID-attrib $-1 -1 $-1 $399 $215 @18 ASM_FACE_FROM_STEP @19 Buttom Metals-42923 #
fmesh-eye-attrib $-1 -1 $523 $400 $308 #
coedge $-1 -1 $-1 $403 $402 $492 $524 forward $216 $-1 #
edge $525 -1 $-1 $526 0 $436 0.0029999999999999992 $403 $527 forward @7 unknown #
truecolor-adesk-attrib $-1 -1 $528 $-1 $404 -1026895378 #
ellipse-curve $-1 -1 $-1 -97.387221560059317 7.0000000000000009 -418.28736087974534 0 1 0 0 0 -40.000000000000036 1 F -1.3670553409780033 F -0.62883053146215306 #
coedge $-1 -1 $-1 $410 $492 $405 $481 reversed $236 $-1 #
edge $529 -1 $-1 $413 -3.1415926535898064 $483 -1.7745373126117812 $405 $530 forward @7 unknown #
truecolor-adesk-attrib $-1 -1 $531 $-1 $406 -1026895378 #
vertex $-1 -1 $-1 $481 $532 #
straight-curve $-1 -1 $-1 -58.214561462840592 10 -426.38073476878367 0 -1000 0 F 0 F 0.0029999999999999992 #
DXID-attrib $-1 -1 $-1 $407 $315 @18 ASM_EDGE_FROM_STEP @5 48380 #
point $-1 -1 $-1 -58.214561462840592 7.0000000000000009 -426.38073476878367 #
truecolor-adesk-attrib $-1 -1 $533 $-1 $411 -1026895378 #
straight-curve $-1 -1 $-1 -52.942640629553914 10 -424.7854034632357 -1000 0 1.5183401928358998e-11 F 0 F 0.0033132878284257128 #
DXID-attrib $-1 -1 $-1 $412 $317 @18 ASM_EDGE_FROM_STEP @5 31293 #
point $-1 -1 $-1 -56.255928457979621 10 -424.78540346323564 #
DXID-attrib $-1 -1 $-1 $417 $322 @18 ASM_EDGE_FROM_STEP @5 31023 #
coedge $-1 -1 $-1 $480 $422 $476 $524 reversed $236 $-1 #
coedge $-1 -1 $-1 $434 $433 $422 $494 forward $309 $-1 #
edge $534 -1 $-1 $526 -2.5127621221276346 $497 0.096492756816720759 $493 $535 forward @7 unknown #
pcurve $-1 -1 $-1 0 reversed { exppc nubs 1 open 2 
	-1.0006694025918101 1 -0.78848682625462341 1 
	0 0 
	0.21218257633718673 0 
	3.9752309437657564e-14 
	spline forward { ref 25 } I I I I 
	} 0 0 #
truecolor-adesk-attrib $-1 -1 $536 $-1 $424 -1026895378 #
vertex $-1 -1 $-1 $494 $537 #
intcurve-curve $-1 -1 $-1 forward { exactcur full nubs 3 open 5 
	0.78848682625462341 3 0.84153247033892009 1 0.89457811442321677 1 0.94762375850751346 1 1.0006694025918101 3 
	-72.490160897157722 10 -454.244126807908 
	-71.907235858441794 10 -454.18770353887163 
	-70.742523368866486 10 -454.06441174715496 
	-68.998172835959821 10 -453.84795877813883 
	-67.257313469705494 10 -453.60019946695905 
	-66.097266014683839 10 -453.41348476196265 
	-65.518431981111732 10 -453.3152238902648 
	0 
	null_surface 
	null_surface 
	nullbs 
	nullbs 
	I I 
	0 
	0 
	3 0.84153247033892009 0.89457811442321677 0.94762375850751346 
	F 1 F 0 } F 0.78848682625462341 F 1.0006694025918101 #
fmesh-eye-attrib $-1 -1 $538 $425 $333 #
DXID-attrib $-1 -1 $-1 $428 $336 @18 ASM_EDGE_FROM_STEP @5 27784 #
DXID-attrib $-1 -1 $-1 $432 $243 @18 ASM_FACE_FROM_STEP @18 Buttom Metals-1299 #
DXID-attrib $-1 -1 $-1 $435 $345 @18 ASM_EDGE_FROM_STEP @5 32403 #
point $-1 -1 $-1 -73.85924585865331 7.0000000000000009 -450.63599855421387 #
truecolor-adesk-attrib $-1 -1 $539 $-1 $438 -1026895378 #
straight-curve $-1 -1 $-1 -72.490160897157722 10 -454.244126807908 0 -1000 0 F 0 F 0.0029999999999999992 #
DXID-attrib $-1 -1 $-1 $444 $259 @18 ASM_FACE_FROM_STEP @19 Buttom Metals-37338 #
edge $540 -1 $-1 $452 -3.1415926535897931 $509 -1.7745373126117689 $445 $541 forward @7 unknown #
truecolor-adesk-attrib $-1 -1 $542 $-1 $446 -1026895378 #
vertex $-1 -1 $-1 $507 $543 #
straight-curve $-1 -1 $-1 -59.15964063055236 7.0000000000000009 -426.17384276761641 0 -1000 0 F 0 F 0.007000000000000001 #
DXID-attrib $-1 -1 $-1 $447 $361 @18 ASM_EDGE_FROM_STEP @5 18754 #
truecolor-adesk-attrib $-1 -1 $544 $-1 $450 -1026895378 #
straight-curve $-1 -1 $-1 -52.908403294835225 7.0000000000000009 -423.78084580929425 -1000 0 0 F 0 F 0.0033132878284257306 #
DXID-attrib $-1 -1 $-1 $451 $363 @18 ASM_EDGE_FROM_STEP @5 40958 #
point $-1 -1 $-1 -56.221691123260953 7.0000000000000009 -423.78084580929425 #
DXID-attrib $-1 -1 $-1 $456 $368 @18 ASM_EDGE_FROM_STEP @5 28109 #
truecolor-adesk-attrib $-1 -1 $545 $-1 $463 -1026895378 #
ellipse-curve $-1 -1 $-1 -97.352984225340606 7.0000000000000009 -418.28280322580383 0 1 0 0 0 -38.999999999999979 1 F -1.3670553409779982 F -0.62883053146215129 #
DXID-attrib $-1 -1 $-1 $464 $381 @18 ASM_EDGE_FROM_STEP @4 2043 #
point $-1 -1 $-1 -74.413207916469773 7.0000000000000009 -449.82272495841073 #
DXID-attrib $-1 -1 $-1 $467 $284 @18 ASM_FACE_FROM_STEP @19 Buttom Metals-19476 #
DXID-attrib $-1 -1 $-1 $472 $394 @18 ASM_EDGE_FROM_STEP @5 18461 #
DXID-attrib $-1 -1 $-1 $475 $308 @18 ASM_FACE_FROM_STEP @19 Buttom Metals-17588 #
edge $546 -1 $-1 $483 -1.3670553409780033 $526 -0.62883053146215306 $476 $547 forward @7 unknown #
truecolor-adesk-attrib $-1 -1 $548 $-1 $477 -1026895378 #
vertex $-1 -1 $-1 $524 $549 #
straight-curve $-1 -1 $-1 -73.85924585865331 10 -450.63599855421387 0 -1000 0 F 0 F 0.0029999999999999992 #
DXID-attrib $-1 -1 $-1 $478 $404 @18 ASM_EDGE_FROM_STEP @5 39098 #
truecolor-adesk-attrib $-1 -1 $550 $-1 $481 -1026895378 #
ellipse-curve $-1 -1 $-1 -56.25592845797965 10 -426.78540346323558 0 -1 0 0 0 -2.0000000000000018 1 F -3.1415926535898064 F -1.7745373126117812 #
DXID-attrib $-1 -1 $-1 $482 $406 @18 ASM_EDGE_FROM_STEP @4 8033 #
point $-1 -1 $-1 -58.214561462840592 10 -426.38073476878367 #
DXID-attrib $-1 -1 $-1 $487 $411 @18 ASM_EDGE_FROM_STEP @5 13438 #
truecolor-adesk-attrib $-1 -1 $551 $-1 $494 -1026895378 #
ellipse-curve $-1 -1 $-1 -72.682847073582977 10 -452.25343043793737 0 -1 0 0 0 -2.0000000000000018 1 F -2.5127621221276346 F 0.096492756816720759 #
DXID-attrib $-1 -1 $-1 $496 $424 @18 ASM_EDGE_FROM_STEP @5 16374 #
point $-1 -1 $-1 -72.490160897157722 10 -454.244126807908 #
DXID-attrib $-1 -1 $-1 $499 $333 @18 ASM_FACE_FROM_STEP @19 Buttom Metals-19943 #
DXID-attrib $-1 -1 $-1 $504 $438 @18 ASM_EDGE_FROM_STEP @4 4969 #
truecolor-adesk-attrib $-1 -1 $552 $-1 $507 -1026895378 #
ellipse-curve $-1 -1 $-1 -56.221691123260953 7.0000000000000009 -426.78084580929419 0 -1 0 0 0 -3.0000000000000027 1 F -3.1415926535897931 F -1.7745373126117689 #
DXID-attrib $-1 -1 $-1 $508 $446 @18 ASM_EDGE_FROM_STEP @5 31544 #
point $-1 -1 $-1 -59.15964063055236 7.0000000000000009 -426.17384276761641 #
DXID-attrib $-1 -1 $-1 $512 $450 @18 ASM_EDGE_FROM_STEP @4 6496 #
DXID-attrib $-1 -1 $-1 $517 $463 @18 ASM_EDGE_FROM_STEP @5 11653 #
truecolor-adesk-attrib $-1 -1 $553 $-1 $524 -1026895378 #
ellipse-curve $-1 -1 $-1 -97.387221560059317 10 -418.28736087974534 0 1 0 0 0 -40.000000000000036 1 F -1.3670553409780033 F -0.62883053146215306 #
DXID-attrib $-1 -1 $-1 $525 $477 @18 ASM_EDGE_FROM_STEP @5 30793 #
point $-1 -1 $-1 -73.85924585865331 10 -450.63599855421387 #
DXID-attrib $-1 -1 $-1 $529 $481 @18 ASM_EDGE_FROM_STEP @5 43981 #
DXID-attrib $-1 -1 $-1 $534 $494 @18 ASM_EDGE_FROM_STEP @5 48256 #
DXID-attrib $-1 -1 $-1 $540 $507 @18 ASM_EDGE_FROM_STEP @5 16003 #
DXID-attrib $-1 -1 $-1 $546 $524 @18 ASM_EDGE_FROM_STEP @5 49231 #
