700 132 1 0         
5 ZWCAD 12 ACIS 28.0 NT 24 Mon May 13 15:15:28 2024 
1 9.9999999999999995e-07 1e-10 
body $1 -1 $-1 $2 $-1 $-1 #
DXID-attrib $-1 -1 $-1 $-1 $0 @18 ASM_BODY_FROM_STEP @83 F51975B5F3922842A1C7549216E349E3983FAC5D|:|C906BBC760572095F726B39B13C9EDE80CDE5667 #
lump $-1 -1 $-1 $-1 $3 $0 #
shell $-1 -1 $-1 $-1 $-1 $4 $-1 $2 #
face $5 -1 $-1 $-1 $6 $3 $-1 $7 forward single #
fmesh-eye-attrib $-1 -1 $8 $-1 $4 #
loop $-1 -1 $-1 $-1 $9 $4 #
spline-surface $-1 -1 $-1 forward { offsur 
	spline forward { exactsur full nurbs 1 2 both open periodic none none 2 5 
	-1.1889830800985299 1 0.10514717996158 1 
	0 2 0.0023333625374654999 2 0.0046667250749309998 2 0.0070000876123965097 2 0.00933345014986201 2 
	-7.2500306189734065 13.907885903584457 1.34765038036889 1 
	-7.2500306189734065 12.165613540679455 0.53521543495447699 1 
	-5.9037423691151059 13.907885903584457 1.34765038036889 0.70710678118654702 
	-5.9037423691151059 12.165613540679457 0.53521543495447799 0.70710678118654702 
	-5.9037423691151059 14.535670424577457 0.0013621305105712403 1 
	-5.9037423691151059 12.793398061672455 -0.81107281490384397 1 
	-5.9037423691151059 15.163454945570457 -1.34492611934775 0.70710678118654702 
	-5.9037423691151059 13.421182582665454 -2.1573610647621702 0.70710678118654702 
	-7.2500306189734065 15.163454945570457 -1.34492611934775 1 
	-7.2500306189734065 13.421182582665455 -2.1573610647621702 1 
	-8.5963188688317054 15.163454945570457 -1.34492611934775 0.70710678118654702 
	-8.5963188688317054 13.421182582665454 -2.1573610647621702 0.70710678118654702 
	-8.5963188688317054 14.535670424577457 0.00136213051057005 1 
	-8.5963188688317054 12.793398061672455 -0.81107281490384597 1 
	-8.5963188688317054 13.907885903584457 1.34765038036889 0.70710678118654702 
	-8.5963188688317054 12.165613540679457 0.53521543495447599 0.70710678118654702 
	-7.2500306189734065 13.907885903584457 1.34765038036889 1 
	-7.2500306189734065 12.165613540679455 0.53521543495447699 1 
	0 
	0 
	0 
	0 
	0 
	0 
	0 
	F 1 F 0 F 1 F 0 } I I I I 
	-0.01 
	forward forward summary 2 -1.1889830800985299 0.10514717996158 5 0 0.0023333625374654999 0.0046667250749309998 0.0070000876123965097 0.00933345014986201 0.060824130249623888 OPEN PERIODIC NON_SINGULAR NON_SINGULAR 
	0 
	0 
	0 
	0 
	0 
	0 
	} F -0.8482194001072022 F -0.23561650002979515 F 0.0025118654270190046 F 0.0068215847228429646 #
persubent-acadSolidHistory-attrib $-1 -1 $10 $5 $4 1 1 1000000000 1001 #
tcoedge-coedge $-1 -1 $-1 $11 $12 $-1 $13 forward $6 $14 1.4751859527320288e-15 0.092282220529039199 #
truecolor-adesk-attrib $-1 -1 $15 $8 $4 -1030778961 #
tcoedge-coedge $-1 -1 $-1 $16 $9 $-1 $17 forward $6 $18 -3.2740839342706927e-10 0.079603778139080525 #
coedge $-1 -1 $-1 $9 $19 $-1 $20 forward $6 $21 #
tedge-edge $22 -1 $-1 $23 1.4751859527320288e-15 $24 0.092282220529039199 $9 $25 reversed @7 unknown 1.0028074073973415e-06 #
pcurve $-1 -1 $-1 0 forward { exppc nubs 3 open 2 
	1.4751859527320288e-15 3 0.092282220529039199 3 
	-0.45103730005701326 0.0068215847228429551 
	-0.45103730005699505 0.0067682215120431419 
	-0.45103730005699677 0.0067157496571616402 
	-0.45103730005701698 0.0066639518999665184 
	1.2811954462859606e-14 
	spline forward { ref 0 } I I I I 
	} 0 0 #
color-adesk-attrib $-1 -1 $26 $10 $4 253 #
tcoedge-coedge $-1 -1 $-1 $27 $11 $-1 $28 forward $6 $29 -0.003364824039502631 -1.7116506625946165e-16 #
tedge-edge $30 -1 $-1 $24 -3.2740839342706927e-10 $31 0.079603778139080525 $11 $32 reversed @7 unknown 1.5869063967824383e-06 #
pcurve $-1 -1 $-1 0 forward { exppc nubs 3 open 2 
	-3.2740839342706927e-10 3 0.079603778139081163 3 
	-0.4510373012540948 0.0066639518995617155 
	-0.46569327519259801 0.0067131628219443068 
	-0.48045177902971337 0.006762909173029223 
	-0.49526609660978788 0.0068134043720614618 
	1.6160301598748374e-07 
	spline forward { ref 0 } I I I I 
	} 0 0 #
tcoedge-coedge $-1 -1 $-1 $12 $33 $-1 $34 forward $6 $35 -1.4601202223924217 1.4601199022781233 #
edge $36 -1 $-1 $37 -0.032000000000006974 $23 -2.2580275256562755e-16 $12 $38 reversed @7 unknown #
pcurve $-1 -1 $-1 0 forward { exppc nubs 1 open 2 
	-0.03199999999999778 1 0 1 
	-0.23561650002980514 0.0068215847228429429 
	-0.45103730005701376 0.006821584722842956 
	6.5034924857066788e-15 
	spline forward { ref 0 } I I I I 
	} 0 0 #
persubent-acadSolidHistory-attrib $-1 -1 $39 $-1 $13 1 1 1000000000 51001 #
tvertex-vertex $-1 -1 $-1 $13 $40 4.6421795568344221e-14 #
tvertex-vertex $-1 -1 $-1 $13 $41 9.3388296867602451e-10 #
ellipse-curve $-1 -1 $-1 -6.9687182335523836 13.542635003210856 -0.46287879227401846 -1.2288357831291565e-11 0.90630778703740944 0.42261826173907091 -1.6094318487520787 0.068387847416899725 -0.14665821211177826 1 F -0.092282220529039199 F -1.4751859527320288e-15 #
DXID-attrib $-1 -1 $-1 $15 $4 @18 ASM_FACE_FROM_STEP @16 Can  Opener-1349 #
coedge $-1 -1 $-1 $42 $16 $-1 $43 forward $6 $44 #
tedge-edge $45 -1 $-1 $31 -0.0033648240395026652 $46 -1.7116506625946165e-16 $16 $47 reversed @7 unknown 4.7581642442336751e-06 #
pcurve $-1 -1 $-1 0 forward { exppc nubs 1 open 2 
	-0.003364824039502631 1 0 1 
	-0.49526609660980803 0.0068134043720614471 
	-0.47320511737320575 0.0068215847228429412 
	2.2320763358611632e-12 
	spline forward { ref 0 } I I I I 
	} 0 0 #
persubent-acadSolidHistory-attrib $-1 -1 $48 $-1 $17 1 1 1000000000 151001 #
tvertex-vertex $-1 -1 $-1 $17 $49 3.3722281931723792e-14 #
ellipse-curve $-1 -1 $-1 -6.6248341957400143 13.673576380800935 -0.40259982964592927 -0.00032394592676878705 -0.99999725148331886 0.0023220863129227924 -1.931555910509406 -0.00016548239877733906 -0.34072877010588981 1 F -0.079603778139080525 F 3.2740839342706927e-10 #
coedge $-1 -1 $-1 $19 $50 $-1 $51 forward $6 $52 #
tedge-edge $53 -1 $-1 $54 -1.4601202223924217 $37 1.4601199022781233 $19 $55 reversed @7 unknown 6.6850177658669995e-06 #
pcurve $-1 -1 $-1 0 forward { exppc nubs 1 open 2 
	-1.4601202223924217 1 1.4601199022781233 1 
	-0.23561650002980331 0.0025118654270190732 
	-0.23561650002979515 0.0068215847228429126 
	1.8118839761882553e-14 
	spline forward { ref 0 } I I I I 
	} 0 0 #
persubent-acadSolidHistory-attrib $-1 -1 $56 $-1 $20 1 1 1000000000 1151001 #
tvertex-vertex $-1 -1 $-1 $34 $57 1.1063281917570023e-13 #
straight-curve $-1 -1 $-1 -8.578150082304461 13.611022850627759 -0.60953700438579772 -6.9388939039077093e-14 -9.0630778703663282 -4.226182617407364 F 2.2580275256562755e-16 F 0.032000000000006974 #
DXID-attrib $-1 -1 $58 $22 $13 @18 ASM_EDGE_FROM_STEP @5 13775 #
point $-1 -1 $-1 -8.5781500823045072 13.611022850627759 -0.60953700438580305 #
point $-1 -1 $-1 -8.5563901062123762 13.673410897474131 -0.74332860039516446 #
tcoedge-coedge $-1 -1 $-1 $59 $27 $-1 $60 forward $6 $61 -1.4601199022779181 1.4601202223924206 #
edge $62 -1 $-1 $46 -2.3166775912574878e-16 $63 0.05570704892921631 $27 $64 forward @7 unknown #
pcurve $-1 -1 $-1 0 forward { exppc nubs 1 open 2 
	0 1 0.055707048929216435 1 
	-0.47320511737320586 0.0068215847228429516 
	-0.84821940010719299 0.0068215847228429603 
	2.3796753296788588e-15 
	spline forward { ref 0 } I I I I 
	} 0 0 #
persubent-acadSolidHistory-attrib $-1 -1 $65 $-1 $28 1 1 1000000000 251001 #
tvertex-vertex $-1 -1 $-1 $28 $66 4.9821683452935327e-14 #
straight-curve $-1 -1 $-1 -8.5781500823044574 13.640867122605554 -0.59562039181050319 0.23241413258441479 9.780523944475263 2.0705880909831076 F 1.7116506625946165e-16 F 0.0033648240395026652 #
DXID-attrib $-1 -1 $67 $30 $17 @18 ASM_EDGE_FROM_STEP @5 13776 #
point $-1 -1 $-1 -8.5773680496440079 13.673776864692856 -0.58865322722605495 #
tcoedge-coedge $-1 -1 $-1 $33 $68 $-1 $69 forward $6 $70 -2.8570923179650551e-09 0.092282219766480003 #
edge $71 -1 $-1 $72 -0.031999999999997551 $54 9.247548638102887e-15 $33 $73 reversed @7 unknown #
pcurve $-1 -1 $-1 0 forward { exppc nubs 1 open 2 
	-0.031999999999997621 1 0 1 
	-0.45103730005701498 0.0025118654270190363 
	-0.23561650002980986 0.0025118654270190588 
	2.3671960648756473e-15 
	spline forward { ref 0 } I I I I 
	} 0 0 #
persubent-acadSolidHistory-attrib $-1 -1 $74 $-1 $34 1 1 1000000000 1051001 #
tvertex-vertex $-1 -1 $-1 $51 $75 1.0827771284685653e-13 #
ellipse-curve $-1 -1 $-1 -7.250030613793264 13.25212806700574 -0.59706916378235553 4.0848215894455567e-15 -0.90630778703666459 -0.4226182617406683 -2.6078377790241728e-07 0.62359447139071278 -1.3373026594890036 0.90562516138964866 F -1.4601199022781233 F 1.4601202223924217 #
truecolor-adesk-attrib $-1 -1 $76 $36 $20 -1030778961 #
point $-1 -1 $-1 -8.5781500823045072 13.321004358775959 -0.74477484814283201 #
color-adesk-attrib $-1 -1 $77 $39 $13 253 #
coedge $-1 -1 $-1 $78 $42 $-1 $79 forward $6 $80 #
tedge-edge $81 -1 $-1 $63 -1.4601199022779181 $82 1.4601202223924206 $42 $83 forward @7 unknown 6.6850183450146108e-06 #
pcurve $-1 -1 $-1 0 forward { exppc nubs 1 open 2 
	-1.4601199022779181 1 1.4601202223924206 1 
	-0.84821940010719432 0.0068215847228429646 
	-0.8482194001072022 0.0025118654270190354 
	2.5623908925719212e-14 
	spline forward { ref 0 } I I I I 
	} 0 0 #
persubent-acadSolidHistory-attrib $-1 -1 $84 $-1 $43 1 1 1000000000 351001 #
tvertex-vertex $-1 -1 $-1 $43 $85 5.0330739708177434e-14 #
straight-curve $-1 -1 $-1 -8.5781500823044645 13.640867122605556 -0.59562039181049453 3.9859337228071432e-14 9.0630778703664081 4.2261826174071917 F -2.3166775912574878e-16 F 0.05570704892921631 #
truecolor-adesk-attrib $-1 -1 $86 $45 $28 -1030778961 #
point $-1 -1 $-1 -8.5781500823045072 13.640867122605556 -0.59562039181049997 #
color-adesk-attrib $-1 -1 $87 $48 $17 253 #
tcoedge-coedge $-1 -1 $-1 $50 $78 $-1 $88 forward $6 $89 2.141909846157238e-16 0.079603780323428769 #
tedge-edge $90 -1 $-1 $91 -2.8570923179650551e-09 $72 0.092282219766480003 $50 $92 reversed @7 unknown 1.0028074757567721e-06 #
pcurve $-1 -1 $-1 0 forward { exppc nubs 3 open 2 
	-2.8570923179650551e-09 3 0.092282219766481793 3 
	-0.45103730005701864 0.0026694982534083396 
	-0.45103730005699227 0.0026177004950728331 
	-0.45103730005699361 0.0025652286390251988 
	-0.45103730005702264 0.0025118654270190419 
	1.8118839761882553e-14 
	spline forward { ref 0 } I I I I 
	} 0 0 #
persubent-acadSolidHistory-attrib $-1 -1 $93 $-1 $51 1 1 1000000000 951001 #
tvertex-vertex $-1 -1 $-1 $69 $94 4.617259925877499e-14 #
straight-curve $-1 -1 $-1 -5.9219111556423503 13.321004358776054 -0.74477484814281381 6.9388939039077446e-14 9.063077870366234 4.2261826174075647 F -9.247548638102887e-15 F 0.031999999999997551 #
truecolor-adesk-attrib $-1 -1 $95 $53 $34 -1030778961 #
point $-1 -1 $-1 -5.9219111556423059 13.321004358775959 -0.74477484814282302 #
color-adesk-attrib $-1 -1 $96 $56 $20 253 #
truecolor-adesk-attrib $-1 -1 $-1 $58 $13 -1030778961 #
tcoedge-coedge $-1 -1 $-1 $68 $59 $-1 $97 forward $6 $98 -0.0033648240395223431 0 #
edge $99 -1 $-1 $82 -0.055707048929237231 $100 -5.9126369076264054e-16 $59 $101 reversed @7 unknown #
pcurve $-1 -1 $-1 0 forward { exppc nubs 1 open 2 
	-0.055707048929237384 1 0 1 
	-0.84821940010719721 0.0025118654270190376 
	-0.47320511737307031 0.0025118654270190163 
	2.3605658485376526e-15 
	spline forward { ref 0 } I I I I 
	} 0 0 #
persubent-acadSolidHistory-attrib $-1 -1 $102 $-1 $60 1 1 1000000000 451001 #
tvertex-vertex $-1 -1 $-1 $60 $103 4.4822255541856915e-14 #
ellipse-curve $-1 -1 $-1 -7.2500306137932569 14.07686815320897 -0.2124865455981329 5.2495133721463649e-15 -0.90630778703665382 -0.42261826174069145 -2.6078395253976701e-07 0.62359447139083712 -1.3373026594891813 0.9056251613895312 F -1.4601199022779181 F 1.4601202223924206 #
truecolor-adesk-attrib $-1 -1 $104 $62 $43 -1030778961 #
point $-1 -1 $-1 -8.5781500823045072 14.145744444979357 -0.36019222995879108 #
color-adesk-attrib $-1 -1 $105 $65 $28 253 #
truecolor-adesk-attrib $-1 -1 $-1 $67 $17 -1030778961 #
tedge-edge $106 -1 $-1 $107 2.141909846157238e-16 $91 0.079603780323428769 $68 $108 reversed @7 unknown 1.5869064430034654e-06 #
pcurve $-1 -1 $-1 0 forward { exppc nubs 3 open 2 
	2.141909846157238e-16 3 0.079603780323428769 3 
	-0.49526609666062504 0.002520045777627284 
	-0.48045177873558548 0.0025705409778365939 
	-0.46569327455606391 0.002620287330063567 
	-0.45103730028096767 0.0026694982535678436 
	1.6160303110870424e-07 
	spline forward { ref 0 } I I I I 
	} 0 0 #
persubent-acadSolidHistory-attrib $-1 -1 $109 $-1 $69 1 1 1000000000 851001 #
tvertex-vertex $-1 -1 $-1 $88 $110 3.6627519292970822e-10 #
ellipse-curve $-1 -1 $-1 -7.5313430042487468 13.542635003227019 -0.46287879228760881 1.7724557932474741e-11 0.90630778703777759 0.42261826173828132 1.5876718727527981 0.13077589288343905 -0.2804498073928921 1 F -0.092282219766480003 F 2.8570923179650551e-09 #
truecolor-adesk-attrib $-1 -1 $111 $71 $51 -1030778961 #
point $-1 -1 $-1 -5.9219111556423059 13.611022850627759 -0.60953700438579295 #
color-adesk-attrib $-1 -1 $112 $74 $34 253 #
DXID-attrib $-1 -1 $-1 $76 $20 @18 ASM_EDGE_FROM_STEP @5 13786 #
tedge-edge $113 -1 $-1 $100 -0.0033648240395225161 $107 3.6807818491117828e-12 $78 $114 reversed @7 unknown 4.7581642043188865e-06 #
pcurve $-1 -1 $-1 0 forward { exppc nubs 1 open 2 
	-0.0033648240395223431 1 0 1 
	-0.47320511737307558 0.0025118654270190046 
	-0.49526609660980342 0.002520045777800559 
	2.2297218243030363e-12 
	spline forward { ref 0 } I I I I 
	} 0 0 #
persubent-acadSolidHistory-attrib $-1 -1 $115 $-1 $79 1 1 1000000000 551001 #
tvertex-vertex $-1 -1 $-1 $79 $116 4.3295851141090056e-14 #
straight-curve $-1 -1 $-1 -5.9219111556423485 13.640867122605355 -0.59562039181054427 0 9.0630778703666248 4.2261826174067245 F 5.9126369076264054e-16 F 0.055707048929237231 #
truecolor-adesk-attrib $-1 -1 $117 $81 $60 -1030778961 #
point $-1 -1 $-1 -5.9219111556423059 14.145744444979357 -0.36019222995877898 #
color-adesk-attrib $-1 -1 $118 $84 $43 253 #
DXID-attrib $-1 -1 $-1 $86 $28 @18 ASM_EDGE_FROM_STEP @5 13777 #
persubent-acadSolidHistory-attrib $-1 -1 $119 $-1 $88 1 1 1000000000 751001 #
tvertex-vertex $-1 -1 $-1 $97 $120 1.7858240968542228e-10 #
ellipse-curve $-1 -1 $-1 -7.875227042108202 13.673576380811085 -0.40259982965742597 0.0003239459216475801 -0.99999725148331886 0.0023220863136593547 1.9525338538223693 0.00020048388216675764 -0.18605339739085336 1 F -0.079603780323428769 F -2.141909846157238e-16 #
DXID-attrib $-1 -1 $121 $90 $69 @18 ASM_EDGE_FROM_STEP @5 13783 #
point $-1 -1 $-1 -5.943671132380409 13.673410898027457 -0.74332860379157306 #
color-adesk-attrib $-1 -1 $122 $93 $51 253 #
DXID-attrib $-1 -1 $-1 $95 $34 @18 ASM_EDGE_FROM_STEP @5 13785 #
persubent-acadSolidHistory-attrib $-1 -1 $123 $-1 $97 1 1 1000000000 651001 #
straight-curve $-1 -1 $-1 -5.9226931883027909 13.673776864692854 -0.58865322722605484 0.23241413258437302 -9.7805239444760375 -2.0705880909794532 F -3.6807818491117828e-12 F 0.0033648240395225161 #
truecolor-adesk-attrib $-1 -1 $124 $99 $79 -1030778961 #
point $-1 -1 $-1 -5.9219111556423059 13.640867122605357 -0.59562039181053505 #
color-adesk-attrib $-1 -1 $125 $102 $60 253 #
DXID-attrib $-1 -1 $-1 $104 $43 @18 ASM_EDGE_FROM_STEP @5 13778 #
DXID-attrib $-1 -1 $126 $106 $88 @18 ASM_EDGE_FROM_STEP @5 13782 #
point $-1 -1 $-1 -5.9226931882858089 13.673776864693256 -0.58865322704828205 #
color-adesk-attrib $-1 -1 $127 $109 $69 253 #
DXID-attrib $-1 -1 $-1 $111 $51 @18 ASM_EDGE_FROM_STEP @5 13784 #
truecolor-adesk-attrib $-1 -1 $128 $113 $97 -1030778961 #
color-adesk-attrib $-1 -1 $129 $115 $79 253 #
DXID-attrib $-1 -1 $-1 $117 $60 @18 ASM_EDGE_FROM_STEP @5 13779 #
color-adesk-attrib $-1 -1 $130 $119 $88 253 #
truecolor-adesk-attrib $-1 -1 $-1 $121 $69 -1030778961 #
color-adesk-attrib $-1 -1 $131 $123 $97 253 #
DXID-attrib $-1 -1 $-1 $124 $79 @18 ASM_EDGE_FROM_STEP @5 13780 #
truecolor-adesk-attrib $-1 -1 $-1 $126 $88 -1030778961 #
DXID-attrib $-1 -1 $-1 $128 $97 @18 ASM_EDGE_FROM_STEP @5 13781 #
