700 547 1 0         
16 Autodesk AutoCAD 20 ASM 229.2.0.65535 NT 24 Wed Mar  6 00:01:48 2024 
1 9.999999999999999547e-07 1.000000000000000036e-10 
body $1 -1 $-1 $2 $-1 $3 #
DXID-attrib $-1 -1 $-1 $-1 $0 @18 ASM_BODY_FROM_STEP @83 D39BDAA9D29EE4F9DAB93D60DE3F94B67E79099E|:|C587384BE5E0F8A2CD13BEDF5805F8D5F1631E3F #
lump $-1 -1 $-1 $-1 $4 $0 #
transform $-1 -1 1 0 0 0 1 0 0 0 1 0 0 0 1 no_rotate no_reflect no_shear #
shell $-1 -1 $-1 $-1 $-1 $5 $-1 $2 #
face $6 -1 $-1 $7 $8 $4 $-1 $9 reversed single #
truecolor-adesk-attrib $-1 -1 $10 $-1 $5 -1031831681 #
face $11 -1 $-1 $12 $13 $4 $-1 $14 reversed single #
loop $-1 -1 $-1 $-1 $15 $5 #
plane-surface $-1 -1 $-1 -1.37577869490023012e-14 22.75319625684650049 38.21177490060919979 -3.081996817454020028e-17 -5.551115123125779744e-16 -1 1.276604880980169955e-14 1000 -5.551115123125779673e-13 forward_v I I I I #
color-adesk-attrib $-1 -1 $16 $6 $5 8 #
truecolor-adesk-attrib $-1 -1 $17 $-1 $7 -1031831681 #
face $18 -1 $-1 $19 $20 $4 $-1 $21 forward single #
loop $-1 -1 $-1 $-1 $22 $7 #
plane-surface $-1 -1 $-1 19.90000000000000213 22.75319625684650049 25.58174440525430171 -1 1.276604880980169959e-17 3.081996817454020028e-17 3.081996817454018411e-14 707.1067811865480053 707.1067811865469821 forward_v I I I I #
coedge $-1 -1 $-1 $23 $24 $25 $26 forward $8 $-1 #
DXID-attrib $-1 -1 $-1 $10 $5 @18 ASM_FACE_FROM_STEP @50 Chisel_groove_insert-no_groove_for_DIY_editing-358 #
color-adesk-attrib $-1 -1 $27 $11 $7 8 #
truecolor-adesk-attrib $-1 -1 $28 $-1 $12 -1031831681 #
face $29 -1 $-1 $30 $31 $4 $-1 $32 reversed single #
loop $-1 -1 $-1 $-1 $33 $12 #
plane-surface $-1 -1 $-1 16.87928932188139797 22.75319625684650049 9.931003231780771046 0.7071067811865480168 -3.885780586188049864e-16 -0.7071067811865470176 -577.3502691896255783 577.3502691896251235 -577.3502691896266015 forward_v I I I I #
coedge $-1 -1 $-1 $34 $35 $36 $37 forward $13 $-1 #
coedge $-1 -1 $-1 $36 $15 $38 $39 forward $8 $-1 #
coedge $-1 -1 $-1 $15 $36 $40 $41 reversed $8 $-1 #
coedge $-1 -1 $-1 $42 $43 $15 $26 reversed $44 $-1 #
edge $45 -1 $-1 $46 0 $47 0.009399999999999998634 $15 $48 forward @7 unknown #
DXID-attrib $-1 -1 $-1 $17 $7 @18 ASM_FACE_FROM_STEP @50 Chisel_groove_insert-no_groove_for_DIY_editing-359 #
color-adesk-attrib $-1 -1 $49 $18 $12 8 #
truecolor-adesk-attrib $-1 -1 $50 $-1 $19 -1031831681 #
face $51 -1 $-1 $52 $53 $4 $-1 $54 reversed single #
loop $-1 -1 $-1 $-1 $55 $19 #
plane-surface $-1 -1 $-1 16.87928932188139797 22.75319625684650049 3.889581875543459688 -0.7071067811865470176 -4.440892098500630106e-16 -0.7071067811865480168 -577.3502691896262604 -577.3502691896251235 577.3502691896259194 forward_v I I I I #
coedge $-1 -1 $-1 $56 $57 $58 $59 forward $20 $-1 #
coedge $-1 -1 $-1 $58 $22 $60 $61 forward $13 $-1 #
coedge $-1 -1 $-1 $22 $58 $62 $63 reversed $13 $-1 #
coedge $-1 -1 $-1 $24 $23 $22 $37 reversed $8 $-1 #
edge $64 -1 $-1 $65 0 $66 0.009399999999999998634 $36 $67 forward @7 unknown #
coedge $-1 -1 $-1 $68 $69 $23 $39 reversed $70 $-1 #
edge $71 -1 $-1 $47 -0.01989999999999998714 $66 0.0199000000000000149 $23 $72 forward @7 unknown #
coedge $-1 -1 $-1 $62 $73 $24 $41 forward $74 $-1 #
edge $75 -1 $-1 $46 -0.01989999999999998714 $65 0.0199000000000000149 $24 $76 forward @7 unknown #
coedge $-1 -1 $-1 $77 $25 $73 $78 forward $44 $-1 #
coedge $-1 -1 $-1 $25 $77 $79 $80 forward $44 $-1 #
loop $-1 -1 $-1 $-1 $77 $81 #
truecolor-adesk-attrib $-1 -1 $82 $-1 $26 -1031831681 #
vertex $-1 -1 $-1 $26 $83 #
vertex $-1 -1 $-1 $26 $84 #
straight-curve $-1 -1 $-1 -19.90000000000000213 22.75319625684650049 38.21177490060919979 -1.276604880980169955e-14 -1000 5.551115123125779673e-13 F 0 F 0.009399999999999998634 #
DXID-attrib $-1 -1 $-1 $28 $12 @18 ASM_FACE_FROM_STEP @50 Chisel_groove_insert-no_groove_for_DIY_editing-360 #
color-adesk-attrib $-1 -1 $85 $29 $19 8 #
truecolor-adesk-attrib $-1 -1 $86 $-1 $30 -1031831681 #
face $87 -1 $-1 $88 $89 $4 $-1 $90 reversed single #
loop $-1 -1 $-1 $-1 $91 $30 #
plane-surface $-1 -1 $-1 19.90000000000000213 22.75319625684650049 -7.179482104377670204 -1 1.276604880980169959e-17 3.081996817454020028e-17 3.081996817454018411e-14 707.1067811865480053 707.1067811865469821 forward_v I I I I #
coedge $-1 -1 $-1 $92 $93 $94 $95 forward $31 $-1 #
coedge $-1 -1 $-1 $94 $33 $96 $97 forward $20 $-1 #
coedge $-1 -1 $-1 $33 $94 $98 $99 forward $20 $-1 #
coedge $-1 -1 $-1 $35 $34 $33 $59 reversed $13 $-1 #
edge $100 -1 $-1 $101 0 $102 0.009400000000000099248 $58 $103 forward @7 unknown #
coedge $-1 -1 $-1 $104 $105 $34 $61 reversed $106 $-1 #
edge $107 -1 $-1 $66 -0.01263003049535490335 $102 0.01263003049535489988 $34 $108 forward @7 unknown #
coedge $-1 -1 $-1 $98 $40 $35 $63 forward $74 $-1 #
edge $109 -1 $-1 $65 -0.01263003049535490335 $101 0.01263003049535489988 $35 $110 forward @7 unknown #
truecolor-adesk-attrib $-1 -1 $111 $-1 $37 -1031831681 #
vertex $-1 -1 $-1 $37 $112 #
vertex $-1 -1 $-1 $39 $113 #
straight-curve $-1 -1 $-1 19.90000000000000213 22.75319625684650049 38.21177490060919979 -1.276604880980169955e-14 -1000 5.551115123125779673e-13 F 0 F 0.009399999999999998634 #
coedge $-1 -1 $-1 $114 $38 $115 $116 forward $70 $-1 #
coedge $-1 -1 $-1 $38 $114 $104 $117 forward $70 $-1 #
loop $-1 -1 $-1 $-1 $68 $118 #
truecolor-adesk-attrib $-1 -1 $119 $-1 $39 -1031831681 #
straight-curve $-1 -1 $-1 -1.387778780781449935e-14 13.35319625684640066 38.21177490060919979 1000 -1.276604880980169955e-14 -3.081996817454020304e-14 F -0.01989999999999998714 F 0.0199000000000000149 #
coedge $-1 -1 $-1 $40 $120 $42 $78 reversed $74 $-1 #
loop $-1 -1 $-1 $-1 $40 $121 #
truecolor-adesk-attrib $-1 -1 $122 $-1 $41 -1031831681 #
straight-curve $-1 -1 $-1 -1.37577869490023012e-14 22.75319625684650049 38.21177490060919979 1000 -1.276604880980169955e-14 -3.081996817454020304e-14 F -0.01989999999999998714 F 0.0199000000000000149 #
coedge $-1 -1 $-1 $43 $42 $123 $124 forward $44 $-1 #
edge $125 -1 $-1 $46 -0.01263003049535490335 $126 0.01263003049535489988 $42 $127 forward @7 unknown #
coedge $-1 -1 $-1 $128 $115 $43 $80 reversed $129 $-1 #
edge $130 -1 $-1 $131 -0.02526006099070980671 $47 0 $43 $132 forward @7 unknown #
face $133 -1 $-1 $121 $44 $4 $-1 $134 forward single #
color-adesk-attrib $-1 -1 $135 $45 $26 8 #
point $-1 -1 $-1 -19.90000000000000213 22.75319625684650049 38.21177490060919979 #
point $-1 -1 $-1 -19.90000000000000213 13.35319625684650013 38.21177490060919979 #
DXID-attrib $-1 -1 $-1 $50 $19 @18 ASM_FACE_FROM_STEP @50 Chisel_groove_insert-no_groove_for_DIY_editing-361 #
color-adesk-attrib $-1 -1 $136 $51 $30 8 #
truecolor-adesk-attrib $-1 -1 $137 $-1 $52 -1031831681 #
face $138 -1 $-1 $139 $140 $4 $-1 $141 forward single #
loop $-1 -1 $-1 $-1 $142 $52 #
plane-surface $-1 -1 $-1 -1.193534708596380018e-14 22.75319625684640101 -15.22783540618019948 3.081996817454020028e-17 5.551115123125779744e-16 1 -1.276604880980169955e-14 -1000 5.551115123125779673e-13 forward_v I I I I #
coedge $-1 -1 $-1 $143 $144 $145 $146 forward $53 $-1 #
coedge $-1 -1 $-1 $145 $55 $147 $148 forward $31 $-1 #
coedge $-1 -1 $-1 $55 $145 $149 $150 reversed $31 $-1 #
coedge $-1 -1 $-1 $57 $56 $55 $95 reversed $20 $-1 #
edge $151 -1 $-1 $152 0 $153 0.009400000000000099248 $94 $154 forward @7 unknown #
coedge $-1 -1 $-1 $155 $156 $56 $97 reversed $157 $-1 #
edge $158 -1 $-1 $102 -0.008543860018001234527 $153 6.28036983473510495e-18 $56 $159 forward @7 unknown #
coedge $-1 -1 $-1 $149 $62 $57 $99 reversed $74 $-1 #
edge $160 -1 $-1 $152 -0.004271930009000664968 $101 0.004271930009000576497 $57 $161 forward @7 unknown #
truecolor-adesk-attrib $-1 -1 $162 $-1 $59 -1031831681 #
vertex $-1 -1 $-1 $59 $163 #
vertex $-1 -1 $-1 $61 $164 #
straight-curve $-1 -1 $-1 19.90000000000000213 22.75319625684650049 12.95171390989940008 -1.276604880980169955e-14 -1000 5.551115123125779673e-13 F 0 F 0.009400000000000099248 #
coedge $-1 -1 $-1 $165 $60 $69 $117 reversed $106 $-1 #
coedge $-1 -1 $-1 $60 $165 $155 $166 forward $106 $-1 #
loop $-1 -1 $-1 $-1 $105 $167 #
truecolor-adesk-attrib $-1 -1 $168 $-1 $61 -1031831681 #
straight-curve $-1 -1 $-1 19.90000000000000213 13.35319625684640066 25.58174440525430171 -3.081996817454020304e-14 -5.551115123125779673e-13 -1000 F -0.01263003049535490335 F 0.01263003049535489988 #
truecolor-adesk-attrib $-1 -1 $169 $-1 $63 -1031831681 #
straight-curve $-1 -1 $-1 19.90000000000000213 22.75319625684650049 25.58174440525430171 -3.081996817454020304e-14 -6.661338147750940252e-13 -1000 F -0.01263003049535490335 F 0.01263003049535489988 #
color-adesk-attrib $-1 -1 $170 $64 $37 8 #
point $-1 -1 $-1 19.90000000000000213 22.75319625684650049 38.21177490060919979 #
point $-1 -1 $-1 19.90000000000000213 13.35319625684650013 38.21177490060919979 #
coedge $-1 -1 $-1 $69 $68 $171 $172 reversed $70 $-1 #
coedge $-1 -1 $-1 $79 $173 $68 $116 reversed $129 $-1 #
edge $174 -1 $-1 $47 -0.01600403696719646107 $175 -0.01513801156341201999 $115 $176 forward @7 unknown #
edge $177 -1 $-1 $178 0.006425926102581917126 $66 0.007291951506366359942 $104 $179 reversed @7 unknown #
face $180 -1 $-1 $-1 $70 $4 $-1 $181 reversed single #
color-adesk-attrib $-1 -1 $182 $71 $39 8 #
coedge $-1 -1 $-1 $73 $183 $184 $185 forward $74 $-1 #
face $186 -1 $-1 $187 $74 $4 $-1 $188 forward single #
color-adesk-attrib $-1 -1 $189 $75 $41 8 #
coedge $-1 -1 $-1 $184 $190 $77 $124 reversed $191 $-1 #
edge $192 -1 $-1 $126 0 $131 0.009400000000000099248 $123 $193 forward @7 unknown #
truecolor-adesk-attrib $-1 -1 $194 $-1 $78 -1031831681 #
vertex $-1 -1 $-1 $124 $195 #
straight-curve $-1 -1 $-1 -19.90000000000000213 22.75319625684650049 25.58174440525430171 -3.081996817454020304e-14 -4.440892098500630201e-13 -1000 F -0.01263003049535490335 F 0.01263003049535489988 #
coedge $-1 -1 $-1 $173 $79 $196 $197 forward $129 $-1 #
loop $-1 -1 $-1 $-1 $128 $198 #
truecolor-adesk-attrib $-1 -1 $199 $-1 $80 -1031831681 #
vertex $-1 -1 $-1 $200 $201 #
straight-curve $-1 -1 $-1 -19.90000000000000213 13.35319625684650013 38.21177490060919979 3.081996817454020304e-14 5.551115123125779673e-13 1000 F -0.02526006099070980671 F 0 #
truecolor-adesk-attrib $-1 -1 $202 $-1 $81 -1031831681 #
plane-surface $-1 -1 $-1 -19.90000000000000213 22.75319625684650049 25.58174440525430171 -1 1.276604880980169959e-17 3.081996817454020028e-17 3.081996817454018411e-14 707.1067811865480053 707.1067811865469821 forward_v I I I I #
DXID-attrib $-1 -1 $-1 $82 $26 @18 ASM_EDGE_FROM_STEP @3 112 #
DXID-attrib $-1 -1 $-1 $86 $30 @18 ASM_FACE_FROM_STEP @50 Chisel_groove_insert-no_groove_for_DIY_editing-362 #
color-adesk-attrib $-1 -1 $203 $87 $52 8 #
truecolor-adesk-attrib $-1 -1 $204 $-1 $88 -1031831681 #
face $205 -1 $-1 $206 $207 $4 $-1 $208 forward single #
loop $-1 -1 $-1 $-1 $209 $88 #
plane-surface $-1 -1 $-1 -19.90000000000000213 22.75319625684650049 -7.179482104377670204 -1 1.276604880980169959e-17 3.081996817454020028e-17 3.081996817454018411e-14 707.1067811865480053 707.1067811865469821 forward_v I I I I #
coedge $-1 -1 $-1 $210 $211 $212 $213 forward $89 $-1 #
coedge $-1 -1 $-1 $212 $91 $214 $215 forward $53 $-1 #
coedge $-1 -1 $-1 $91 $212 $216 $217 reversed $53 $-1 #
coedge $-1 -1 $-1 $93 $92 $91 $146 reversed $31 $-1 #
edge $218 -1 $-1 $219 0 $220 0.009400000000000099248 $145 $221 forward @7 unknown #
coedge $-1 -1 $-1 $222 $223 $92 $148 reversed $224 $-1 #
edge $225 -1 $-1 $153 -0.004271930009000658029 $220 0.004271930009000588641 $92 $226 forward @7 unknown #
coedge $-1 -1 $-1 $216 $98 $93 $150 forward $74 $-1 #
edge $227 -1 $-1 $152 -0.004271930009000658029 $219 0.004271930009000593845 $93 $228 forward @7 unknown #
truecolor-adesk-attrib $-1 -1 $229 $-1 $95 -1031831681 #
vertex $-1 -1 $-1 $95 $230 #
vertex $-1 -1 $-1 $97 $231 #
straight-curve $-1 -1 $-1 13.85857864376270143 22.75319625684650049 6.910292553662110926 -1.276604880980169955e-14 -1000 5.551115123125779673e-13 F 0 F 0.009400000000000099248 #
coedge $-1 -1 $-1 $232 $96 $105 $166 reversed $157 $-1 #
coedge $-1 -1 $-1 $96 $232 $222 $233 forward $157 $-1 #
loop $-1 -1 $-1 $-1 $156 $234 #
truecolor-adesk-attrib $-1 -1 $235 $-1 $97 -1031831681 #
straight-curve $-1 -1 $-1 13.85857864376270143 13.35319625684640066 6.910292553662119808 -707.1067811865469821 -4.440892098500630201e-13 -707.1067811865480053 F -0.008543860018001234527 F 6.28036983473510495e-18 #
truecolor-adesk-attrib $-1 -1 $236 $-1 $99 -1031831681 #
straight-curve $-1 -1 $-1 16.87928932188139797 22.75319625684650049 9.931003231780771046 707.1067811865469821 4.440892098500630201e-13 707.1067811865480053 F -0.004271930009000664968 F 0.004271930009000576497 #
color-adesk-attrib $-1 -1 $237 $100 $59 8 #
point $-1 -1 $-1 19.90000000000000213 22.75319625684650049 12.95171390989940008 #
point $-1 -1 $-1 19.90000000000000213 13.35319625684640066 12.95171390989940008 #
coedge $-1 -1 $-1 $105 $104 $238 $239 reversed $106 $-1 #
edge $240 -1 $-1 $241 0.00281329466700992693 $102 0.00355010754611389482 $155 $242 reversed @7 unknown #
face $243 -1 $-1 $118 $106 $4 $-1 $244 reversed single #
color-adesk-attrib $-1 -1 $245 $107 $61 8 #
color-adesk-attrib $-1 -1 $246 $109 $63 8 #
DXID-attrib $-1 -1 $-1 $111 $37 @18 ASM_EDGE_FROM_STEP @3 114 #
coedge $-1 -1 $-1 $247 $238 $114 $172 forward $248 $-1 #
edge $249 -1 $-1 $178 -0.01940000000000001446 $175 0.0193999999999999867 $171 $250 forward @7 unknown #
coedge $-1 -1 $-1 $115 $128 $247 $251 reversed $129 $-1 #
truecolor-adesk-attrib $-1 -1 $252 $-1 $116 -1031831681 #
vertex $-1 -1 $-1 $172 $253 #
straight-curve $-1 -1 $-1 -10.66006494886840272 4.113261205714910496 28.97183984947759683 577.3502691896269425 -577.3502691896239867 -577.3502691896259194 F -0.01600403696719646107 F -0.01513801156341201999 #
truecolor-adesk-attrib $-1 -1 $254 $-1 $117 -1031831681 #
vertex $-1 -1 $-1 $239 $255 #
straight-curve $-1 -1 $-1 15.6899898348817004 9.143186091728161102 34.00176473549090161 -577.3502691896269425 -577.3502691896239867 -577.3502691896259194 F -0.007291951506366359942 F -0.006425926102581917126 #
truecolor-adesk-attrib $-1 -1 $256 $-1 $118 -1031831681 #
plane-surface $-1 -1 $-1 -1.387778780781449935e-14 13.35319625684650013 38.21177490060919979 -1.276604880980169959e-17 0.707106781186549016 -0.7071067811865460184 1000 -1.276604880980166958e-14 -3.081996817454022828e-14 forward_v I I I I #
DXID-attrib $-1 -1 $-1 $119 $39 @18 ASM_EDGE_FROM_STEP @3 113 #
coedge $-1 -1 $-1 $120 $257 $258 $259 reversed $74 $-1 #
coedge $-1 -1 $-1 $260 $123 $120 $185 reversed $191 $-1 #
edge $261 -1 $-1 $262 -0.004271930009000664968 $126 0.004271930009000570426 $184 $263 forward @7 unknown #
truecolor-adesk-attrib $-1 -1 $264 $-1 $121 -1031831681 #
face $265 -1 $-1 $266 $248 $4 $-1 $267 reversed single #
plane-surface $-1 -1 $-1 -1.458129049345989881e-14 22.75319625684650049 11.49196974721449926 1.276604880980169959e-17 1 -5.551115123125779744e-16 -1000 1.276604880980171691e-14 3.081996817454020304e-14 forward_v I I I I #
DXID-attrib $-1 -1 $-1 $122 $41 @18 ASM_EDGE_FROM_STEP @3 115 #
coedge $-1 -1 $-1 $123 $260 $268 $200 forward $191 $-1 #
loop $-1 -1 $-1 $-1 $260 $206 #
truecolor-adesk-attrib $-1 -1 $269 $-1 $124 -1031831681 #
straight-curve $-1 -1 $-1 -19.90000000000000213 22.75319625684650049 12.95171390989940008 -1.276604880980169955e-14 -1000 5.551115123125779673e-13 F 0 F 0.009400000000000099248 #
color-adesk-attrib $-1 -1 $270 $125 $78 8 #
point $-1 -1 $-1 -19.90000000000000213 22.75319625684650049 12.95171390989940008 #
coedge $-1 -1 $-1 $268 $271 $128 $197 reversed $272 $-1 #
edge $273 -1 $-1 $131 -0.001200773898922990763 $274 -0.0004639610198190232521 $196 $275 forward @7 unknown #
face $276 -1 $-1 $167 $129 $4 $-1 $277 forward single #
color-adesk-attrib $-1 -1 $278 $130 $80 8 #
edge $279 -1 $-1 $280 -0.004271930009000671907 $131 0.00427193000900056262 $190 $281 forward @7 unknown #
point $-1 -1 $-1 -19.90000000000000213 13.35319625684640066 12.95171390989940008 #
color-adesk-attrib $-1 -1 $282 $133 $81 8 #
DXID-attrib $-1 -1 $-1 $137 $52 @18 ASM_FACE_FROM_STEP @50 Chisel_groove_insert-no_groove_for_DIY_editing-363 #
color-adesk-attrib $-1 -1 $283 $138 $88 8 #
truecolor-adesk-attrib $-1 -1 $284 $-1 $139 -1031831681 #
face $285 -1 $-1 $81 $191 $4 $-1 $286 reversed single #
loop $-1 -1 $-1 $-1 $287 $139 #
plane-surface $-1 -1 $-1 -16.87928932188139797 22.75319625684650049 3.889581875543469902 -0.7071067811865470176 4.440892098500630106e-16 0.7071067811865480168 577.3502691896262604 -577.3502691896251235 577.3502691896259194 forward_v I I I I #
coedge $-1 -1 $-1 $288 $289 $290 $291 forward $140 $-1 #
coedge $-1 -1 $-1 $290 $142 $292 $293 forward $89 $-1 #
coedge $-1 -1 $-1 $142 $290 $294 $295 reversed $89 $-1 #
coedge $-1 -1 $-1 $144 $143 $142 $213 reversed $53 $-1 #
edge $296 -1 $-1 $297 0 $298 0.009400000000000002104 $212 $299 forward @7 unknown #
coedge $-1 -1 $-1 $300 $301 $143 $215 reversed $302 $-1 #
edge $303 -1 $-1 $220 -0.008048353301802483456 $298 0.008048353301802528559 $143 $304 forward @7 unknown #
coedge $-1 -1 $-1 $294 $149 $144 $217 forward $74 $-1 #
edge $305 -1 $-1 $219 -0.008048353301802476517 $297 0.008048353301802528559 $144 $306 forward @7 unknown #
truecolor-adesk-attrib $-1 -1 $307 $-1 $146 -1031831681 #
vertex $-1 -1 $-1 $146 $308 #
vertex $-1 -1 $-1 $148 $309 #
straight-curve $-1 -1 $-1 19.90000000000000213 22.75319625684650049 0.8688711974248060077 -1.276604880980169955e-14 -1000 5.551115123125779673e-13 F 0 F 0.009400000000000099248 #
coedge $-1 -1 $-1 $310 $147 $156 $233 reversed $224 $-1 #
coedge $-1 -1 $-1 $147 $310 $300 $311 forward $224 $-1 #
loop $-1 -1 $-1 $-1 $223 $312 #
truecolor-adesk-attrib $-1 -1 $313 $-1 $148 -1031831681 #
straight-curve $-1 -1 $-1 16.87928932188139797 13.35319625684640066 3.889581875543459688 707.1067811865480053 -3.885780586188049911e-13 -707.1067811865469821 F -0.004271930009000658029 F 0.004271930009000588641 #
truecolor-adesk-attrib $-1 -1 $314 $-1 $150 -1031831681 #
straight-curve $-1 -1 $-1 16.87928932188139797 22.75319625684650049 3.889581875543459688 707.1067811865480053 -3.885780586188049911e-13 -707.1067811865469821 F -0.004271930009000658029 F 0.004271930009000593845 #
color-adesk-attrib $-1 -1 $315 $151 $95 8 #
point $-1 -1 $-1 13.85857864376270143 22.75319625684650049 6.910292553662110926 #
point $-1 -1 $-1 13.85857864376270143 13.35319625684640066 6.910292553662110926 #
coedge $-1 -1 $-1 $156 $155 $316 $317 reversed $157 $-1 #
edge $318 -1 $-1 $319 -0.003332425344440192484 $153 -0.002466399940655711071 $222 $320 reversed @7 unknown #
face $321 -1 $-1 $198 $157 $4 $-1 $322 forward single #
color-adesk-attrib $-1 -1 $323 $158 $97 8 #
color-adesk-attrib $-1 -1 $324 $160 $99 8 #
DXID-attrib $-1 -1 $-1 $162 $59 @18 ASM_EDGE_FROM_STEP @3 117 #
coedge $-1 -1 $-1 $171 $316 $165 $239 forward $248 $-1 #
edge $325 -1 $-1 $241 0.001666850943871502977 $178 0.02621980515339470547 $238 $326 forward @7 unknown #
truecolor-adesk-attrib $-1 -1 $327 $-1 $166 -1031831681 #
vertex $-1 -1 $-1 $239 $328 #
straight-curve $-1 -1 $-1 17.49090289624739825 10.94409915309380033 13.94959460334749934 -678.5983445458499546 -678.5983445458459755 281.0846377148150168 F -0.00355010754611389482 F -0.00281329466700992693 #
truecolor-adesk-attrib $-1 -1 $329 $-1 $167 -1031831681 #
plane-surface $-1 -1 $-1 19.90000000000000213 13.35319625684640066 25.58174440525430171 -0.7071067811865460184 0.707106781186549016 -3.885780586188049864e-16 -1.819955997389897289e-14 -5.677319205132193268e-13 -1000 forward_v I I I I #
DXID-attrib $-1 -1 $-1 $168 $61 @18 ASM_EDGE_FROM_STEP @3 116 #
DXID-attrib $-1 -1 $-1 $169 $63 @18 ASM_EDGE_FROM_STEP @3 118 #
coedge $-1 -1 $-1 $330 $171 $173 $251 forward $248 $-1 #
loop $-1 -1 $-1 $-1 $238 $187 #
truecolor-adesk-attrib $-1 -1 $331 $-1 $172 -1031831681 #
straight-curve $-1 -1 $-1 -1.389958081630659978e-14 12.85319625684650013 37.71177490060919979 -1000 1.276604880980169955e-14 3.081996817454020304e-14 F -0.01940000000000001446 F 0.0193999999999999867 #
edge $332 -1 $-1 $175 -0.02476006099070979932 $274 -0.0002071067811866011976 $247 $333 forward @7 unknown #
color-adesk-attrib $-1 -1 $334 $174 $116 8 #
point $-1 -1 $-1 -19.40000000000000213 12.85319625684650013 37.71177490060919979 #
color-adesk-attrib $-1 -1 $335 $177 $117 8 #
point $-1 -1 $-1 19.40000000000000213 12.85319625684650013 37.71177490060919979 #
color-adesk-attrib $-1 -1 $336 $180 $118 8 #
coedge $-1 -1 $-1 $183 $294 $289 $337 reversed $74 $-1 #
coedge $-1 -1 $-1 $287 $338 $183 $259 forward $207 $-1 #
edge $339 -1 $-1 $262 -0.004271930009000658029 $340 0.004271930009000585171 $258 $341 forward @7 unknown #
coedge $-1 -1 $-1 $190 $184 $338 $342 forward $191 $-1 #
truecolor-adesk-attrib $-1 -1 $343 $-1 $185 -1031831681 #
vertex $-1 -1 $-1 $342 $344 #
straight-curve $-1 -1 $-1 -16.87928932188139797 22.75319625684650049 9.931003231780779927 -707.1067811865469821 3.330669073875470126e-13 707.1067811865480053 F -0.004271930009000664968 F 0.004271930009000570426 #
color-adesk-attrib $-1 -1 $345 $186 $121 8 #
truecolor-adesk-attrib $-1 -1 $346 $-1 $187 -1031831681 #
face $347 -1 $-1 $348 $349 $4 $-1 $350 reversed single #
plane-surface $-1 -1 $-1 -1.470767437667689841e-14 12.85319625684640066 11.49196974721449926 1.276604880980169959e-17 1 -5.551115123125779744e-16 -1000 1.276604880980171691e-14 3.081996817454020304e-14 forward_v I I I I #
coedge $-1 -1 $-1 $351 $196 $190 $200 reversed $272 $-1 #
color-adesk-attrib $-1 -1 $352 $192 $124 8 #
DXID-attrib $-1 -1 $-1 $194 $78 @18 ASM_EDGE_FROM_STEP @3 141 #
coedge $-1 -1 $-1 $196 $351 $330 $353 reversed $272 $-1 #
loop $-1 -1 $-1 $-1 $351 $354 #
truecolor-adesk-attrib $-1 -1 $355 $-1 $197 -1031831681 #
vertex $-1 -1 $-1 $251 $356 #
straight-curve $-1 -1 $-1 -19.08515682001700142 12.53835307686339995 13.28923300625559989 678.5983445458480219 -678.5983445458440428 281.0846377148259876 F -0.001200773898922990763 F -0.0004639610198190232521 #
truecolor-adesk-attrib $-1 -1 $357 $-1 $198 -1031831681 #
plane-surface $-1 -1 $-1 -19.40000000000000213 12.85319625684640066 11.49196974721449926 -0.7071067811865460184 -0.707106781186549016 3.885780586188049864e-16 1.262040820064137846e-14 5.369119523386790985e-13 1000 forward_v I I I I #
DXID-attrib $-1 -1 $-1 $199 $80 @18 ASM_EDGE_FROM_STEP @3 140 #
truecolor-adesk-attrib $-1 -1 $358 $-1 $200 -1031831681 #
vertex $-1 -1 $-1 $359 $360 #
straight-curve $-1 -1 $-1 -16.87928932188139797 13.35319625684640066 9.931003231780790586 -707.1067811865469821 4.440892098500630201e-13 707.1067811865480053 F -0.004271930009000671907 F 0.00427193000900056262 #
DXID-attrib $-1 -1 $-1 $202 $81 @18 ASM_FACE_FROM_STEP @50 Chisel_groove_insert-no_groove_for_DIY_editing-367 #
DXID-attrib $-1 -1 $-1 $204 $88 @18 ASM_FACE_FROM_STEP @50 Chisel_groove_insert-no_groove_for_DIY_editing-364 #
color-adesk-attrib $-1 -1 $361 $205 $139 8 #
truecolor-adesk-attrib $-1 -1 $362 $-1 $206 -1031831681 #
plane-surface $-1 -1 $-1 -16.87928932188139797 22.75319625684650049 9.931003231780779927 0.7071067811865480168 4.440892098500630106e-16 0.7071067811865470176 577.3502691896251235 577.3502691896258057 -577.3502691896263741 forward_v I I I I #
coedge $-1 -1 $-1 $363 $258 $364 $365 forward $207 $-1 #
coedge $-1 -1 $-1 $364 $209 $366 $367 forward $140 $-1 #
coedge $-1 -1 $-1 $209 $364 $257 $337 forward $140 $-1 #
coedge $-1 -1 $-1 $211 $210 $209 $291 reversed $89 $-1 #
edge $368 -1 $-1 $369 0 $370 0.009400000000000099248 $290 $371 forward @7 unknown #
coedge $-1 -1 $-1 $372 $373 $210 $293 reversed $349 $-1 #
edge $374 -1 $-1 $298 -0.0199000000000000149 $370 0.01989999999999999061 $210 $375 forward @7 unknown #
coedge $-1 -1 $-1 $257 $216 $211 $295 forward $74 $-1 #
edge $376 -1 $-1 $297 -0.0199000000000000149 $369 0.01989999999999999061 $211 $377 forward @7 unknown #
truecolor-adesk-attrib $-1 -1 $378 $-1 $213 -1031831681 #
vertex $-1 -1 $-1 $213 $379 #
vertex $-1 -1 $-1 $215 $380 #
straight-curve $-1 -1 $-1 19.90000000000000213 22.75319625684640101 -15.22783540618019948 -1.276604880980169955e-14 -1000 5.551115123125779673e-13 F 0 F 0.009400000000000002104 #
coedge $-1 -1 $-1 $381 $214 $223 $311 reversed $302 $-1 #
coedge $-1 -1 $-1 $214 $381 $372 $382 forward $302 $-1 #
loop $-1 -1 $-1 $-1 $301 $383 #
truecolor-adesk-attrib $-1 -1 $384 $-1 $215 -1031831681 #
straight-curve $-1 -1 $-1 19.90000000000000213 13.35319625684640066 -7.179482104377670204 -3.081996817454020304e-14 -5.551115123125779673e-13 -1000 F -0.008048353301802483456 F 0.008048353301802528559 #
truecolor-adesk-attrib $-1 -1 $385 $-1 $217 -1031831681 #
straight-curve $-1 -1 $-1 19.90000000000000213 22.75319625684650049 -7.179482104377670204 -3.081996817454020304e-14 -4.440892098500630201e-13 -1000 F -0.008048353301802476517 F 0.008048353301802528559 #
color-adesk-attrib $-1 -1 $386 $218 $146 8 #
point $-1 -1 $-1 19.90000000000000213 22.75319625684650049 0.8688711974248060077 #
point $-1 -1 $-1 19.90000000000000213 13.35319625684640066 0.8688711974248131131 #
coedge $-1 -1 $-1 $223 $222 $387 $388 reversed $224 $-1 #
edge $389 -1 $-1 $390 0.0004639610198190333894 $220 0.00120077389892298686 $300 $391 forward @7 unknown #
face $392 -1 $-1 $354 $224 $4 $-1 $393 reversed single #
color-adesk-attrib $-1 -1 $394 $225 $148 8 #
color-adesk-attrib $-1 -1 $395 $227 $150 8 #
DXID-attrib $-1 -1 $-1 $229 $95 @18 ASM_EDGE_FROM_STEP @3 120 #
coedge $-1 -1 $-1 $238 $387 $232 $317 forward $248 $-1 #
edge $396 -1 $-1 $319 -0.0090438600180012714 $241 -0.0002071067811865098807 $316 $397 forward @7 unknown #
truecolor-adesk-attrib $-1 -1 $398 $-1 $233 -1031831681 #
vertex $-1 -1 $-1 $388 $399 #
straight-curve $-1 -1 $-1 15.87238576250839905 14.77717292651330006 6.910292553662131354 -816.496580927726086 -577.3502691896250099 -2.609024107869119889e-12 F 0.002466399940655711071 F 0.003332425344440192484 #
truecolor-adesk-attrib $-1 -1 $400 $-1 $234 -1031831681 #
plane-surface $-1 -1 $-1 8.866574528064258942 12.85319625684640066 2.625395219150239878 0.500000000000000222 -0.7071067811865472397 -0.500000000000000222 -707.1067811865474368 1.11022302462515654e-13 -707.1067811865476642 forward_v I I I I #
DXID-attrib $-1 -1 $-1 $235 $97 @18 ASM_EDGE_FROM_STEP @3 119 #
DXID-attrib $-1 -1 $-1 $236 $99 @18 ASM_EDGE_FROM_STEP @3 121 #
truecolor-adesk-attrib $-1 -1 $401 $-1 $239 -1031831681 #
straight-curve $-1 -1 $-1 19.40000000000000213 12.85319625684640066 11.49196974721449926 3.081996817454020304e-14 5.551115123125779673e-13 1000 F 0.001666850943871502977 F 0.02621980515339470547 #
color-adesk-attrib $-1 -1 $402 $240 $166 8 #
point $-1 -1 $-1 19.40000000000000213 12.85319625684640066 13.15882069108600305 #
color-adesk-attrib $-1 -1 $403 $243 $167 8 #
coedge $-1 -1 $-1 $404 $247 $271 $353 forward $248 $-1 #
color-adesk-attrib $-1 -1 $405 $249 $172 8 #
truecolor-adesk-attrib $-1 -1 $406 $-1 $251 -1031831681 #
straight-curve $-1 -1 $-1 -19.40000000000000213 12.85319625684640066 12.95171390989940008 -3.081996817454020304e-14 -5.551115123125779673e-13 -1000 F -0.02476006099070979932 F -0.0002071067811866011976 #
DXID-attrib $-1 -1 $-1 $252 $116 @18 ASM_EDGE_FROM_STEP @3 160 #
DXID-attrib $-1 -1 $-1 $254 $117 @18 ASM_EDGE_FROM_STEP @3 161 #
DXID-attrib $-1 -1 $-1 $256 $118 @18 ASM_FACE_FROM_STEP @50 Chisel_groove_insert-no_groove_for_DIY_editing-379 #
edge $407 -1 $-1 $340 -0.008048353301802497334 $369 0.008048353301802528559 $289 $408 forward @7 unknown #
coedge $-1 -1 $-1 $258 $363 $260 $342 reversed $207 $-1 #
truecolor-adesk-attrib $-1 -1 $409 $-1 $259 -1031831681 #
vertex $-1 -1 $-1 $365 $410 #
straight-curve $-1 -1 $-1 -16.87928932188139797 22.75319625684650049 3.889581875543469902 -707.1067811865480053 -3.885780586188049911e-13 -707.1067811865469821 F -0.004271930009000658029 F 0.004271930009000585171 #
edge $411 -1 $-1 $262 0 $280 0.009400000000000099248 $338 $412 forward @7 unknown #
color-adesk-attrib $-1 -1 $413 $261 $185 8 #
point $-1 -1 $-1 -13.85857864376270143 22.75319625684650049 6.910292553662119808 #
DXID-attrib $-1 -1 $-1 $264 $121 @18 ASM_FACE_FROM_STEP @50 Chisel_groove_insert-no_groove_for_DIY_editing-368 #
color-adesk-attrib $-1 -1 $414 $265 $187 8 #
truecolor-adesk-attrib $-1 -1 $415 $-1 $266 -1031831681 #
face $416 -1 $-1 $383 $417 $4 $-1 $418 forward single #
loop $-1 -1 $-1 $-1 $372 $266 #
plane-surface $-1 -1 $-1 -1.205534794477590052e-14 13.35319625684640066 -15.22783540618019948 3.081996817454029889e-17 0.7071067811865430208 0.7071067811865520136 -1000 1.276604880980171691e-14 3.081996817454021566e-14 forward_v I I I I #
coedge $-1 -1 $-1 $271 $268 $419 $420 forward $272 $-1 #
DXID-attrib $-1 -1 $-1 $269 $124 @18 ASM_EDGE_FROM_STEP @3 138 #
edge $421 -1 $-1 $274 -0.01489651316065773549 $422 -0.006059759923843058976 $330 $423 forward @7 unknown #
face $424 -1 $-1 $234 $272 $4 $-1 $425 reversed single #
color-adesk-attrib $-1 -1 $426 $273 $197 8 #
point $-1 -1 $-1 -19.40000000000000213 12.85319625684640066 13.15882069108600305 #
color-adesk-attrib $-1 -1 $427 $276 $198 8 #
color-adesk-attrib $-1 -1 $428 $279 $200 8 #
edge $429 -1 $-1 $430 -0.008543860018001248405 $280 -7.850462293418869054e-18 $363 $431 forward @7 unknown #
point $-1 -1 $-1 -13.85857864376270143 13.35319625684640066 6.910292553662119808 #
DXID-attrib $-1 -1 $-1 $284 $139 @18 ASM_FACE_FROM_STEP @50 Chisel_groove_insert-no_groove_for_DIY_editing-365 #
color-adesk-attrib $-1 -1 $432 $285 $206 8 #
coedge $-1 -1 $-1 $338 $287 $433 $359 forward $207 $-1 #
coedge $-1 -1 $-1 $289 $288 $287 $365 reversed $140 $-1 #
edge $434 -1 $-1 $340 0 $430 0.009400000000000099248 $364 $435 forward @7 unknown #
coedge $-1 -1 $-1 $436 $437 $288 $367 reversed $417 $-1 #
edge $438 -1 $-1 $370 -0.01609670660360502936 $430 0 $288 $439 forward @7 unknown #
truecolor-adesk-attrib $-1 -1 $440 $-1 $291 -1031831681 #
vertex $-1 -1 $-1 $291 $441 #
vertex $-1 -1 $-1 $293 $442 #
straight-curve $-1 -1 $-1 -19.90000000000000213 22.75319625684650049 -15.22783540618019948 -1.276604880980169955e-14 -1000 5.551115123125779673e-13 F 0 F 0.009400000000000099248 #
coedge $-1 -1 $-1 $443 $292 $301 $382 reversed $349 $-1 #
coedge $-1 -1 $-1 $292 $443 $436 $444 reversed $349 $-1 #
truecolor-adesk-attrib $-1 -1 $445 $-1 $293 -1031831681 #
straight-curve $-1 -1 $-1 -1.205534794477590052e-14 13.35319625684640066 -15.22783540618019948 -1000 1.276604880980169955e-14 3.081996817454020304e-14 F -0.0199000000000000149 F 0.01989999999999999061 #
truecolor-adesk-attrib $-1 -1 $446 $-1 $295 -1031831681 #
straight-curve $-1 -1 $-1 -1.193534708596380018e-14 22.75319625684640101 -15.22783540618019948 -1000 1.276604880980169955e-14 3.081996817454020304e-14 F -0.0199000000000000149 F 0.01989999999999999061 #
color-adesk-attrib $-1 -1 $447 $296 $213 8 #
point $-1 -1 $-1 19.90000000000000213 22.75319625684640101 -15.22783540618019948 #
point $-1 -1 $-1 19.90000000000000213 13.35319625684640066 -15.22783540618019948 #
coedge $-1 -1 $-1 $301 $300 $448 $449 reversed $302 $-1 #
edge $450 -1 $-1 $451 0.003780693541544445906 $298 0.004646718945328884819 $372 $452 forward @7 unknown #
face $453 -1 $-1 $454 $302 $4 $-1 $455 reversed single #
color-adesk-attrib $-1 -1 $456 $303 $215 8 #
color-adesk-attrib $-1 -1 $457 $305 $217 8 #
DXID-attrib $-1 -1 $-1 $307 $146 @18 ASM_EDGE_FROM_STEP @3 123 #
coedge $-1 -1 $-1 $316 $448 $310 $388 forward $248 $-1 #
edge $458 -1 $-1 $390 -0.02137598318619504667 $319 -0.0125392299493803025 $387 $459 forward @7 unknown #
truecolor-adesk-attrib $-1 -1 $460 $-1 $311 -1031831681 #
vertex $-1 -1 $-1 $449 $461 #
straight-curve $-1 -1 $-1 19.08515682001700142 12.53835307686339995 0.5313521010686279578 678.5983445458480219 678.5983445458459755 281.0846377148209854 F 0.0004639610198190333894 F 0.00120077389892298686 #
truecolor-adesk-attrib $-1 -1 $462 $-1 $312 -1031831681 #
plane-surface $-1 -1 $-1 16.87928932188139797 13.35319625684640066 3.889581875543459688 -0.4999999999999995004 0.7071067811865483499 -0.4999999999999995004 707.1067811865476642 1.665334536937735063e-13 -707.1067811865474368 forward_v I I I I #
DXID-attrib $-1 -1 $-1 $313 $148 @18 ASM_EDGE_FROM_STEP @3 122 #
DXID-attrib $-1 -1 $-1 $314 $150 @18 ASM_EDGE_FROM_STEP @3 124 #
truecolor-adesk-attrib $-1 -1 $463 $-1 $317 -1031831681 #
straight-curve $-1 -1 $-1 19.54644660940670065 12.85319625684640066 13.30526730049270157 707.1067811865469821 4.440892098500630201e-13 707.1067811865480053 F -0.0090438600180012714 F -0.0002071067811865098807 #
color-adesk-attrib $-1 -1 $464 $318 $233 8 #
point $-1 -1 $-1 13.15147186257610024 12.85319625684640066 6.910292553662119808 #
color-adesk-attrib $-1 -1 $465 $321 $234 8 #
color-adesk-attrib $-1 -1 $466 $325 $239 8 #
DXID-attrib $-1 -1 $-1 $327 $166 @18 ASM_EDGE_FROM_STEP @3 159 #
DXID-attrib $-1 -1 $-1 $329 $167 @18 ASM_FACE_FROM_STEP @50 Chisel_groove_insert-no_groove_for_DIY_editing-378 #
coedge $-1 -1 $-1 $467 $330 $468 $469 forward $248 $-1 #
DXID-attrib $-1 -1 $-1 $331 $172 @18 ASM_EDGE_FROM_STEP @3 143 #
color-adesk-attrib $-1 -1 $470 $332 $251 8 #
truecolor-adesk-attrib $-1 -1 $471 $-1 $337 -1031831681 #
straight-curve $-1 -1 $-1 -19.90000000000000213 22.75319625684650049 -7.179482104377670204 -3.081996817454020304e-14 -5.551115123125779673e-13 -1000 F -0.008048353301802497334 F 0.008048353301802528559 #
color-adesk-attrib $-1 -1 $472 $339 $259 8 #
point $-1 -1 $-1 -19.90000000000000213 22.75319625684650049 0.8688711974248269909 #
truecolor-adesk-attrib $-1 -1 $473 $-1 $342 -1031831681 #
straight-curve $-1 -1 $-1 -13.85857864376270143 22.75319625684650049 6.910292553662119808 -1.276604880980169955e-14 -1000 5.551115123125779673e-13 F 0 F 0.009400000000000099248 #
DXID-attrib $-1 -1 $-1 $343 $185 @18 ASM_EDGE_FROM_STEP @3 139 #
DXID-attrib $-1 -1 $-1 $346 $187 @18 ASM_FACE_FROM_STEP @50 Chisel_groove_insert-no_groove_for_DIY_editing-369 #
color-adesk-attrib $-1 -1 $474 $347 $266 8 #
truecolor-adesk-attrib $-1 -1 $475 $-1 $348 -1031831681 #
loop $-1 -1 $-1 $-1 $436 $348 #
plane-surface $-1 -1 $-1 -19.40000000000000213 12.85319625684640066 11.49196974721449926 -0.7071067811865475727 -0.7071067811865475727 4.440892098500627148e-16 5.187271966773616029e-14 5.761642638057738425e-13 1000 forward_v I I I I #
coedge $-1 -1 $-1 $433 $468 $351 $420 reversed $476 $-1 #
edge $477 -1 $-1 $280 0.002466399940655708903 $422 0.003332425344440110085 $419 $478 forward @7 unknown #
truecolor-adesk-attrib $-1 -1 $479 $-1 $353 -1031831681 #
vertex $-1 -1 $-1 $353 $480 #
straight-curve $-1 -1 $-1 -8.866574528064290917 12.85319625684640066 2.625395219150239878 707.1067811865469821 -3.885780586188049911e-13 -707.1067811865480053 F -0.01489651316065773549 F -0.006059759923843058976 #
truecolor-adesk-attrib $-1 -1 $481 $-1 $354 -1031831681 #
plane-surface $-1 -1 $-1 -16.87928932188139797 13.35319625684640066 9.931003231780790586 0.4999999999999984457 0.7071067811865497932 0.4999999999999984457 -707.1067811865474368 -1.665334536937734811e-13 707.1067811865476642 forward_v I I I I #
DXID-attrib $-1 -1 $-1 $355 $197 @18 ASM_EDGE_FROM_STEP @3 158 #
DXID-attrib $-1 -1 $-1 $357 $198 @18 ASM_FACE_FROM_STEP @50 Chisel_groove_insert-no_groove_for_DIY_editing-377 #
DXID-attrib $-1 -1 $-1 $358 $200 @18 ASM_EDGE_FROM_STEP @3 137 #
truecolor-adesk-attrib $-1 -1 $482 $-1 $359 -1031831681 #
vertex $-1 -1 $-1 $367 $483 #
straight-curve $-1 -1 $-1 -13.85857864376270143 13.35319625684640066 6.910292553662131354 707.1067811865480053 3.885780586188049911e-13 707.1067811865469821 F -0.008543860018001248405 F -7.850462293418869054e-18 #
DXID-attrib $-1 -1 $-1 $362 $206 @18 ASM_FACE_FROM_STEP @50 Chisel_groove_insert-no_groove_for_DIY_editing-366 #
coedge $-1 -1 $-1 $484 $419 $363 $359 reversed $476 $-1 #
truecolor-adesk-attrib $-1 -1 $485 $-1 $365 -1031831681 #
straight-curve $-1 -1 $-1 -19.90000000000000213 22.75319625684650049 0.8688711974248269909 -1.276604880980169955e-14 -1000 5.551115123125779673e-13 F 0 F 0.009400000000000099248 #
coedge $-1 -1 $-1 $486 $366 $373 $444 forward $417 $-1 #
coedge $-1 -1 $-1 $366 $486 $484 $487 reversed $417 $-1 #
truecolor-adesk-attrib $-1 -1 $488 $-1 $367 -1031831681 #
straight-curve $-1 -1 $-1 -19.90000000000000213 13.35319625684640066 0.8688711974248299885 3.081996817454020304e-14 5.551115123125779673e-13 1000 F -0.01609670660360502936 F 0 #
color-adesk-attrib $-1 -1 $489 $368 $291 8 #
point $-1 -1 $-1 -19.90000000000000213 22.75319625684650049 -15.22783540618019948 #
point $-1 -1 $-1 -19.90000000000000213 13.35319625684640066 -15.22783540618019948 #
coedge $-1 -1 $-1 $373 $372 $490 $491 reversed $349 $-1 #
edge $492 -1 $-1 $370 -0.01148927035687363242 $493 -0.01062324495308919134 $373 $494 forward @7 unknown #
color-adesk-attrib $-1 -1 $495 $374 $293 8 #
color-adesk-attrib $-1 -1 $496 $376 $295 8 #
DXID-attrib $-1 -1 $-1 $378 $213 @18 ASM_EDGE_FROM_STEP @3 126 #
coedge $-1 -1 $-1 $387 $490 $381 $449 forward $248 $-1 #
edge $497 -1 $-1 $451 -0.02621980515339469853 $390 -0.01083020533097623674 $448 $498 forward @7 unknown #
truecolor-adesk-attrib $-1 -1 $499 $-1 $382 -1031831681 #
vertex $-1 -1 $-1 $491 $500 #
straight-curve $-1 -1 $-1 17.21721556606579995 10.67041182291229973 -12.54505097224599908 577.3502691896298984 577.3502691896279657 -577.350269189619894 F 0.003780693541544445906 F 0.004646718945328884819 #
truecolor-adesk-attrib $-1 -1 $501 $-1 $383 -1031831681 #
face $502 -1 $-1 $312 $476 $4 $-1 $503 forward single #
plane-surface $-1 -1 $-1 19.90000000000000213 13.35319625684640066 -7.179482104377670204 -0.7071067811865465735 0.7071067811865485719 -3.885780586188047398e-16 -1.819955997389891924e-14 -5.677319205132194278e-13 -1000 forward_v I I I I #
DXID-attrib $-1 -1 $-1 $384 $215 @18 ASM_EDGE_FROM_STEP @3 125 #
DXID-attrib $-1 -1 $-1 $385 $217 @18 ASM_EDGE_FROM_STEP @3 127 #
truecolor-adesk-attrib $-1 -1 $504 $-1 $388 -1031831681 #
straight-curve $-1 -1 $-1 4.284897334511859945 12.85319625684640066 15.77686708172639918 -707.1067811865480053 3.885780586188049911e-13 707.1067811865469821 F -0.02137598318619504667 F -0.0125392299493803025 #
color-adesk-attrib $-1 -1 $505 $389 $311 8 #
point $-1 -1 $-1 19.40000000000000213 12.85319625684640066 0.6617644162382610995 #
color-adesk-attrib $-1 -1 $506 $392 $312 8 #
color-adesk-attrib $-1 -1 $507 $396 $317 8 #
DXID-attrib $-1 -1 $-1 $398 $233 @18 ASM_EDGE_FROM_STEP @3 157 #
DXID-attrib $-1 -1 $-1 $400 $234 @18 ASM_FACE_FROM_STEP @50 Chisel_groove_insert-no_groove_for_DIY_editing-376 #
DXID-attrib $-1 -1 $-1 $401 $239 @18 ASM_EDGE_FROM_STEP @3 142 #
coedge $-1 -1 $-1 $490 $404 $486 $508 forward $248 $-1 #
coedge $-1 -1 $-1 $419 $484 $404 $469 reversed $476 $-1 #
edge $509 -1 $-1 $422 -0.009043860018001196807 $510 -0.0002071067811865356847 $404 $511 forward @7 unknown #
DXID-attrib $-1 -1 $-1 $406 $251 @18 ASM_EDGE_FROM_STEP @3 144 #
color-adesk-attrib $-1 -1 $512 $407 $337 8 #
DXID-attrib $-1 -1 $-1 $409 $259 @18 ASM_EDGE_FROM_STEP @3 136 #
color-adesk-attrib $-1 -1 $513 $411 $342 8 #
DXID-attrib $-1 -1 $-1 $415 $266 @18 ASM_FACE_FROM_STEP @50 Chisel_groove_insert-no_groove_for_DIY_editing-370 #
color-adesk-attrib $-1 -1 $514 $416 $348 8 #
loop $-1 -1 $-1 $-1 $484 $454 #
truecolor-adesk-attrib $-1 -1 $515 $-1 $420 -1031831681 #
straight-curve $-1 -1 $-1 -15.87238576250839905 14.77717292651330006 6.910292553662110926 816.4965809277269955 -577.3502691896250099 5.717648576819560222e-12 F 0.002466399940655708903 F 0.003332425344440110085 #
color-adesk-attrib $-1 -1 $516 $421 $353 8 #
point $-1 -1 $-1 -13.15147186257619971 12.85319625684640066 6.910292553662139348 #
color-adesk-attrib $-1 -1 $517 $424 $354 8 #
color-adesk-attrib $-1 -1 $518 $429 $359 8 #
point $-1 -1 $-1 -19.90000000000000213 13.35319625684640066 0.8688711974248299885 #
coedge $-1 -1 $-1 $468 $433 $437 $487 forward $476 $-1 #
color-adesk-attrib $-1 -1 $519 $434 $365 8 #
coedge $-1 -1 $-1 $437 $436 $467 $508 reversed $417 $-1 #
edge $520 -1 $-1 $430 0.002307391462730590606 $510 0.00304420434183453768 $437 $521 reversed @7 unknown #
color-adesk-attrib $-1 -1 $522 $438 $367 8 #
DXID-attrib $-1 -1 $-1 $440 $291 @18 ASM_EDGE_FROM_STEP @3 129 #
coedge $-1 -1 $-1 $448 $467 $443 $491 forward $248 $-1 #
edge $523 -1 $-1 $493 -0.01939999999999998323 $451 0.01940000000000001446 $490 $524 forward @7 unknown #
truecolor-adesk-attrib $-1 -1 $525 $-1 $444 -1031831681 #
vertex $-1 -1 $-1 $508 $526 #
straight-curve $-1 -1 $-1 -13.26666666666659999 6.719862923513019837 -8.59450207284683998 577.3502691896288752 -577.3502691896280794 577.3502691896209171 F -0.01148927035687363242 F -0.01062324495308919134 #
DXID-attrib $-1 -1 $-1 $445 $293 @18 ASM_EDGE_FROM_STEP @3 128 #
DXID-attrib $-1 -1 $-1 $446 $295 @18 ASM_EDGE_FROM_STEP @3 130 #
truecolor-adesk-attrib $-1 -1 $527 $-1 $449 -1031831681 #
straight-curve $-1 -1 $-1 19.40000000000000213 12.85319625684640066 11.49196974721449926 3.081996817454020304e-14 5.551115123125779673e-13 1000 F -0.02621980515339469853 F -0.01083020533097623674 #
color-adesk-attrib $-1 -1 $528 $450 $382 8 #
point $-1 -1 $-1 19.40000000000000213 12.85319625684640066 -14.72783540618020126 #
color-adesk-attrib $-1 -1 $529 $453 $383 8 #
truecolor-adesk-attrib $-1 -1 $530 $-1 $454 -1031831681 #
plane-surface $-1 -1 $-1 -4.284897334511890143 12.85319625684640066 15.77686708172639918 -0.5000000000000005551 -0.7071067811865467956 0.5000000000000005551 707.1067811865476642 -1.11022302462515654e-13 707.1067811865474368 forward_v I I I I #
color-adesk-attrib $-1 -1 $531 $458 $388 8 #
DXID-attrib $-1 -1 $-1 $460 $311 @18 ASM_EDGE_FROM_STEP @3 155 #
DXID-attrib $-1 -1 $-1 $462 $312 @18 ASM_FACE_FROM_STEP @50 Chisel_groove_insert-no_groove_for_DIY_editing-374 #
DXID-attrib $-1 -1 $-1 $463 $317 @18 ASM_EDGE_FROM_STEP @3 151 #
edge $532 -1 $-1 $510 -0.01588959982241849866 $493 -0.0004999999999999982757 $467 $533 forward @7 unknown #
truecolor-adesk-attrib $-1 -1 $534 $-1 $469 -1031831681 #
vertex $-1 -1 $-1 $469 $535 #
straight-curve $-1 -1 $-1 -19.54644660940670065 12.85319625684640066 0.5153178068315650284 -707.1067811865480053 -3.885780586188049911e-13 -707.1067811865469821 F -0.009043860018001196807 F -0.0002071067811865356847 #
DXID-attrib $-1 -1 $-1 $471 $337 @18 ASM_EDGE_FROM_STEP @3 133 #
DXID-attrib $-1 -1 $-1 $473 $342 @18 ASM_EDGE_FROM_STEP @3 135 #
DXID-attrib $-1 -1 $-1 $475 $348 @18 ASM_FACE_FROM_STEP @50 Chisel_groove_insert-no_groove_for_DIY_editing-371 #
color-adesk-attrib $-1 -1 $536 $477 $420 8 #
DXID-attrib $-1 -1 $-1 $479 $353 @18 ASM_EDGE_FROM_STEP @3 145 #
DXID-attrib $-1 -1 $-1 $481 $354 @18 ASM_FACE_FROM_STEP @50 Chisel_groove_insert-no_groove_for_DIY_editing-375 #
DXID-attrib $-1 -1 $-1 $482 $359 @18 ASM_EDGE_FROM_STEP @3 134 #
DXID-attrib $-1 -1 $-1 $485 $365 @18 ASM_EDGE_FROM_STEP @3 132 #
truecolor-adesk-attrib $-1 -1 $537 $-1 $487 -1031831681 #
straight-curve $-1 -1 $-1 -21.46579202682820053 14.91898828367460261 1.51744349079273011 -678.5983445458480219 678.5983445458480219 281.08463771481604 F -0.00304420434183453768 F -0.002307391462730590606 #
DXID-attrib $-1 -1 $-1 $488 $367 @18 ASM_EDGE_FROM_STEP @3 131 #
truecolor-adesk-attrib $-1 -1 $538 $-1 $491 -1031831681 #
straight-curve $-1 -1 $-1 -1.551576793704709923e-14 12.85319625684640066 -14.72783540618020126 1000 -1.276604880980169955e-14 -3.081996817454020304e-14 F -0.01939999999999998323 F 0.01940000000000001446 #
color-adesk-attrib $-1 -1 $539 $492 $444 8 #
point $-1 -1 $-1 -19.40000000000000213 12.85319625684640066 -14.72783540618020126 #
color-adesk-attrib $-1 -1 $540 $497 $449 8 #
DXID-attrib $-1 -1 $-1 $499 $382 @18 ASM_EDGE_FROM_STEP @3 152 #
DXID-attrib $-1 -1 $-1 $501 $383 @18 ASM_FACE_FROM_STEP @50 Chisel_groove_insert-no_groove_for_DIY_editing-372 #
color-adesk-attrib $-1 -1 $541 $502 $454 8 #
DXID-attrib $-1 -1 $-1 $504 $388 @18 ASM_EDGE_FROM_STEP @3 150 #
truecolor-adesk-attrib $-1 -1 $542 $-1 $508 -1031831681 #
straight-curve $-1 -1 $-1 -19.40000000000000213 12.85319625684640066 -15.22783540618019948 -3.081996817454020304e-14 -5.551115123125779673e-13 -1000 F -0.01588959982241849866 F -0.0004999999999999982757 #
color-adesk-attrib $-1 -1 $543 $509 $469 8 #
point $-1 -1 $-1 -19.40000000000000213 12.85319625684640066 0.6617644162383000683 #
DXID-attrib $-1 -1 $-1 $515 $420 @18 ASM_EDGE_FROM_STEP @3 156 #
color-adesk-attrib $-1 -1 $544 $520 $487 8 #
color-adesk-attrib $-1 -1 $545 $523 $491 8 #
DXID-attrib $-1 -1 $-1 $525 $444 @18 ASM_EDGE_FROM_STEP @3 153 #
DXID-attrib $-1 -1 $-1 $527 $449 @18 ASM_EDGE_FROM_STEP @3 149 #
DXID-attrib $-1 -1 $-1 $530 $454 @18 ASM_FACE_FROM_STEP @50 Chisel_groove_insert-no_groove_for_DIY_editing-373 #
color-adesk-attrib $-1 -1 $546 $532 $508 8 #
DXID-attrib $-1 -1 $-1 $534 $469 @18 ASM_EDGE_FROM_STEP @3 146 #
DXID-attrib $-1 -1 $-1 $537 $487 @18 ASM_EDGE_FROM_STEP @3 154 #
DXID-attrib $-1 -1 $-1 $538 $491 @18 ASM_EDGE_FROM_STEP @3 148 #
DXID-attrib $-1 -1 $-1 $542 $508 @18 ASM_EDGE_FROM_STEP @3 147 #
