700 695 1 0         
16 Autodesk AutoCAD 20 ASM 229.2.0.65535 NT 24 Wed Mar  6 00:09:17 2024 
1 9.999999999999999547e-07 1.000000000000000036e-10 
body $1 -1 $-1 $2 $-1 $3 #
DXID-attrib $-1 -1 $-1 $-1 $0 @18 ASM_BODY_FROM_STEP @83 4D954E492F4A55164B8BAF2E4D6C58D074215FE1|:|1817F654752E9CF1A78D11D3004C9A5611698275 #
lump $-1 -1 $-1 $-1 $4 $0 #
transform $-1 -1 1 0 0 0 1 0 0 0 1 0 0 0 1 no_rotate no_reflect no_shear #
shell $-1 -1 $-1 $-1 $-1 $5 $-1 $2 #
face $6 -1 $-1 $7 $8 $4 $-1 $9 reversed single #
truecolor-adesk-attrib $-1 -1 $10 $-1 $5 -1029660512 #
face $11 -1 $-1 $12 $13 $4 $-1 $14 reversed single #
loop $-1 -1 $-1 $-1 $15 $5 #
cone-surface $-1 -1 $-1 1279.537374840919938 7.407016413099869851e-14 -29.99999999999949907 -1 -1.04980439322507003e-16 -6.805143623689019588e-16 -1.04980439322507008e-15 10 -3.572034836338160084e-31 1 I I 0 1 10 forward I I I I #
color-adesk-attrib $-1 -1 $16 $6 $5 253 #
truecolor-adesk-attrib $-1 -1 $17 $-1 $7 -1029660512 #
face $18 -1 $-1 $19 $20 $4 $-1 $21 reversed single #
loop $-1 -1 $-1 $-1 $22 $7 #
cone-surface $-1 -1 $-1 1279.537374840919938 7.407016413099869851e-14 -29.99999999999949907 -1 -1.04980439322507003e-16 -6.805143623689019588e-16 -1.04980439322507008e-15 10 -3.572034836338160084e-31 1 I I 0 1 10 forward I I I I #
coedge $-1 -1 $-1 $23 $24 $25 $26 forward $8 $-1 #
DXID-attrib $-1 -1 $-1 $10 $5 @18 ASM_FACE_FROM_STEP @15 Component18-456 #
color-adesk-attrib $-1 -1 $27 $11 $7 253 #
truecolor-adesk-attrib $-1 -1 $28 $-1 $12 -1029660512 #
face $29 -1 $-1 $30 $31 $4 $-1 $32 reversed single #
loop $-1 -1 $-1 $-1 $33 $12 #
cone-surface $-1 -1 $-1 1279.537374840919938 7.407016413099869851e-14 -29.99999999999949907 -1 -1.04980439322507003e-16 -6.805143623689019588e-16 -1.04980439322507008e-15 10 -3.572034836338160084e-31 1 I I 0 1 10 forward I I I I #
coedge $-1 -1 $-1 $34 $35 $36 $37 forward $13 $-1 #
coedge $-1 -1 $-1 $38 $15 $24 $39 forward $8 $-1 #
coedge $-1 -1 $-1 $15 $38 $23 $39 reversed $8 $-1 #
coedge $-1 -1 $-1 $25 $25 $15 $26 reversed $40 $-1 #
edge $41 -1 $-1 $42 -3.141592653589793116 $42 3.141592653589793116 $15 $43 forward @7 unknown #
DXID-attrib $-1 -1 $-1 $17 $7 @18 ASM_FACE_FROM_STEP @15 Component18-457 #
color-adesk-attrib $-1 -1 $44 $18 $12 253 #
truecolor-adesk-attrib $-1 -1 $45 $-1 $19 -1029660512 #
face $46 -1 $-1 $47 $48 $4 $-1 $49 reversed single #
loop $-1 -1 $-1 $50 $51 $19 #
plane-surface $-1 -1 $-1 1217 -19.99999999999990052 -9.99999999999958078 -1 -1.04980439322507003e-16 -6.805143623689019588e-16 -1.04980439322507008e-15 10 -3.572034836338160084e-31 forward_v I I I I #
coedge $-1 -1 $-1 $52 $53 $54 $55 forward $20 $-1 #
coedge $-1 -1 $-1 $56 $22 $35 $57 forward $13 $-1 #
coedge $-1 -1 $-1 $22 $56 $34 $57 reversed $13 $-1 #
coedge $-1 -1 $-1 $36 $36 $22 $37 reversed $58 $-1 #
edge $59 -1 $-1 $60 -3.141592653589793116 $60 3.141592653589793116 $22 $61 forward @7 unknown #
coedge $-1 -1 $-1 $24 $23 $62 $63 forward $8 $-1 #
edge $64 -1 $-1 $42 -9.453737484092002319 $65 -8.453737484092002319 $23 $66 forward @2 g2 #
loop $-1 -1 $-1 $-1 $25 $67 #
truecolor-adesk-attrib $-1 -1 $68 $-1 $26 -1029660512 #
vertex $-1 -1 $-1 $26 $69 #
ellipse-curve $-1 -1 $-1 1185 6.414558898780279883e-14 -29.9999999999996021 -1 -1.04980439322507003e-16 -6.805143623689019588e-16 -1.04980439322507008e-15 10 -3.572034836338160084e-31 1 I I #
DXID-attrib $-1 -1 $-1 $28 $12 @18 ASM_FACE_FROM_STEP @15 Component18-458 #
color-adesk-attrib $-1 -1 $70 $29 $19 253 #
truecolor-adesk-attrib $-1 -1 $71 $-1 $30 -1029660512 #
face $72 -1 $-1 $73 $74 $4 $-1 $75 reversed single #
loop $-1 -1 $-1 $76 $77 $30 #
plane-surface $-1 -1 $-1 1195 -19.99999999999990052 -9.999999999999589662 -1 -1.04980439322507003e-16 -6.805143623689019588e-16 -1.04980439322507008e-15 10 -3.572034836338160084e-31 forward_v I I I I #
loop $-1 -1 $-1 $-1 $78 $19 #
coedge $-1 -1 $-1 $79 $80 $81 $82 forward $31 $-1 #
coedge $-1 -1 $-1 $83 $33 $53 $84 forward $20 $-1 #
coedge $-1 -1 $-1 $33 $83 $52 $84 reversed $20 $-1 #
coedge $-1 -1 $-1 $54 $54 $33 $55 reversed $85 $-1 #
edge $86 -1 $-1 $87 -3.141592653589793116 $87 3.141592653589793116 $33 $88 forward @7 unknown #
coedge $-1 -1 $-1 $35 $34 $78 $89 forward $13 $-1 #
edge $90 -1 $-1 $60 -7.253737484091999477 $91 -6.253737484091999477 $34 $92 forward @2 g2 #
loop $-1 -1 $-1 $-1 $36 $93 #
truecolor-adesk-attrib $-1 -1 $94 $-1 $37 -1029660512 #
vertex $-1 -1 $-1 $37 $95 #
ellipse-curve $-1 -1 $-1 1207 6.64551586528979917e-14 -29.9999999999996021 -1 -1.04980439322507003e-16 -6.805143623689019588e-16 -1.04980439322507008e-15 10 -3.572034836338160084e-31 1 I I #
coedge $-1 -1 $-1 $62 $62 $38 $63 reversed $76 $-1 #
edge $96 -1 $-1 $65 -3.141592653589793116 $65 3.141592653589793116 $38 $97 forward @7 unknown #
truecolor-adesk-attrib $-1 -1 $98 $-1 $39 -1029660512 #
vertex $-1 -1 $-1 $39 $99 #
straight-curve $-1 -1 $-1 1279.537374840919938 -9.999999999999930722 -29.99999999999949907 10 1.04980439322507008e-15 6.805143623689019785e-15 F -9.453737484092002319 F -8.453737484092002319 #
face $100 -1 $-1 $101 $102 $4 $-1 $103 reversed single #
color-adesk-attrib $-1 -1 $104 $41 $26 253 #
point $-1 -1 $-1 1185 -9.999999999999939604 -29.9999999999996021 #
DXID-attrib $-1 -1 $-1 $45 $19 @18 ASM_FACE_FROM_STEP @15 Component18-459 #
color-adesk-attrib $-1 -1 $105 $46 $30 253 #
truecolor-adesk-attrib $-1 -1 $106 $-1 $47 -1029660512 #
face $107 -1 $-1 $108 $109 $4 $-1 $110 forward single #
loop $-1 -1 $-1 $111 $112 $47 #
plane-surface $-1 -1 $-1 1173 -19.99999999999990052 -9.999999999999610978 -1 -1.04980439322507003e-16 -6.805143623689019588e-16 -1.04980439322507008e-15 10 -3.572034836338160084e-31 forward_v I I I I #
loop $-1 -1 $-1 $-1 $62 $30 #
coedge $-1 -1 $-1 $113 $114 $115 $116 forward $48 $-1 #
coedge $-1 -1 $-1 $78 $78 $56 $89 reversed $50 $-1 #
coedge $-1 -1 $-1 $117 $51 $118 $119 reversed $31 $-1 #
coedge $-1 -1 $-1 $51 $117 $120 $121 forward $31 $-1 #
coedge $-1 -1 $-1 $122 $123 $51 $82 reversed $124 $-1 #
edge $125 -1 $-1 $126 -2.356194490192344837 $127 0.785398163397448279 $51 $128 forward @7 unknown #
coedge $-1 -1 $-1 $53 $52 $129 $130 forward $20 $-1 #
edge $131 -1 $-1 $87 -11.65373748409200516 $132 -10.65373748409200516 $52 $133 forward @2 g2 #
loop $-1 -1 $-1 $-1 $54 $134 #
truecolor-adesk-attrib $-1 -1 $135 $-1 $55 -1029660512 #
vertex $-1 -1 $-1 $55 $136 #
ellipse-curve $-1 -1 $-1 1163 6.183601932270770693e-14 -29.9999999999996021 -1 -1.04980439322507003e-16 -6.805143623689019588e-16 -1.04980439322507008e-15 10 -3.572034836338160084e-31 1 I I #
edge $137 -1 $-1 $91 -3.141592653589793116 $91 3.141592653589793116 $56 $138 forward @7 unknown #
truecolor-adesk-attrib $-1 -1 $139 $-1 $57 -1029660512 #
vertex $-1 -1 $-1 $57 $140 #
straight-curve $-1 -1 $-1 1279.537374840919938 -9.999999999999930722 -29.99999999999949907 10 1.04980439322507008e-15 6.805143623689019785e-15 F -7.253737484091999477 F -6.253737484091999477 #
face $141 -1 $-1 $142 $143 $4 $-1 $144 reversed single #
color-adesk-attrib $-1 -1 $145 $59 $37 253 #
point $-1 -1 $-1 1207 -9.999999999999930722 -29.9999999999996021 #
truecolor-adesk-attrib $-1 -1 $146 $-1 $63 -1029660512 #
ellipse-curve $-1 -1 $-1 1195 6.519539338102790027e-14 -29.9999999999996021 1 1.04980439322507003e-16 6.805143623689019588e-16 -1.04980439322507008e-15 10 -3.572034836338160084e-31 1 I I #
color-adesk-attrib $-1 -1 $147 $64 $39 253 #
point $-1 -1 $-1 1195 -9.999999999999939604 -29.9999999999996021 #
truecolor-adesk-attrib $-1 -1 $148 $-1 $67 -1029660512 #
face $149 -1 $-1 $150 $151 $4 $-1 $152 reversed single #
loop $-1 -1 $-1 $40 $153 $67 #
plane-surface $-1 -1 $-1 1185 20.00000000000010303 -9.99999999999960032 1 1.04980439322507003e-16 6.805143623689019588e-16 1.04980439322507008e-15 -10 3.572034836338160084e-31 forward_v I I I I #
DXID-attrib $-1 -1 $-1 $68 $26 @18 ASM_EDGE_FROM_STEP @3 261 #
DXID-attrib $-1 -1 $-1 $71 $30 @18 ASM_FACE_FROM_STEP @15 Component18-460 #
color-adesk-attrib $-1 -1 $154 $72 $47 253 #
truecolor-adesk-attrib $-1 -1 $155 $-1 $73 -1029660512 #
face $156 -1 $-1 $157 $158 $4 $-1 $159 forward single #
loop $-1 -1 $-1 $-1 $160 $73 #
cone-surface $-1 -1 $-1 1176.5 6.325325525356149984e-14 -29.9999999999996021 -1 -1.04980439322507003e-16 -6.805143623689019588e-16 1.110857401725555512e-14 -14.14213562373095101 -14.14213562373095101 1 I I 0 1 20 forward I I I I #
loop $-1 -1 $-1 $-1 $129 $47 #
coedge $-1 -1 $-1 $161 $162 $160 $163 forward $74 $-1 #
coedge $-1 -1 $-1 $164 $77 $165 $166 reversed $48 $-1 #
coedge $-1 -1 $-1 $77 $164 $167 $168 forward $48 $-1 #
coedge $-1 -1 $-1 $169 $170 $77 $116 reversed $158 $-1 #
edge $171 -1 $-1 $172 -2.356194490192344837 $173 0.785398163397448279 $77 $174 forward @7 unknown #
coedge $-1 -1 $-1 $80 $79 $175 $176 forward $31 $-1 #
coedge $-1 -1 $-1 $177 $178 $79 $119 forward $179 $-1 #
edge $180 -1 $-1 $181 0 $127 2.000000000000001776 $79 $182 forward @7 unknown #
coedge $-1 -1 $-1 $183 $184 $80 $121 reversed $185 $-1 #
edge $186 -1 $-1 $187 0 $126 2.000000000000001776 $80 $188 forward @7 unknown #
coedge $-1 -1 $-1 $189 $81 $184 $190 reversed $124 $-1 #
coedge $-1 -1 $-1 $81 $189 $177 $191 reversed $124 $-1 #
loop $-1 -1 $-1 $-1 $81 $157 #
truecolor-adesk-attrib $-1 -1 $192 $-1 $82 -1029660512 #
vertex $-1 -1 $-1 $82 $193 #
vertex $-1 -1 $-1 $82 $194 #
ellipse-curve $-1 -1 $-1 1217 6.306407094762240386e-14 -29.9999999999996021 1 1.04980439322507003e-16 6.805143623689019588e-16 8.139278795780051121e-15 14.14213562373095101 -14.14213562373095101 1 F -2.356194490192344837 F 0.785398163397448279 #
coedge $-1 -1 $-1 $129 $129 $83 $130 reversed $111 $-1 #
edge $195 -1 $-1 $132 -3.141592653589793116 $132 3.141592653589793116 $83 $196 forward @7 unknown #
truecolor-adesk-attrib $-1 -1 $197 $-1 $84 -1029660512 #
vertex $-1 -1 $-1 $84 $198 #
straight-curve $-1 -1 $-1 1279.537374840919938 -9.999999999999930722 -29.99999999999949907 10 1.04980439322507008e-15 6.805143623689019785e-15 F -11.65373748409200516 F -10.65373748409200516 #
face $199 -1 $-1 $200 $201 $4 $-1 $202 reversed single #
color-adesk-attrib $-1 -1 $203 $86 $55 253 #
point $-1 -1 $-1 1163 -9.999999999999939604 -29.9999999999996021 #
truecolor-adesk-attrib $-1 -1 $204 $-1 $89 -1029660512 #
ellipse-curve $-1 -1 $-1 1217 6.750496304612309313e-14 -29.9999999999996021 1 1.04980439322507003e-16 6.805143623689019588e-16 -1.04980439322507008e-15 10 -3.572034836338160084e-31 1 I I #
color-adesk-attrib $-1 -1 $205 $90 $57 253 #
point $-1 -1 $-1 1217 -9.999999999999930722 -29.9999999999996021 #
truecolor-adesk-attrib $-1 -1 $206 $-1 $93 -1029660512 #
face $207 -1 $-1 $67 $208 $4 $-1 $209 reversed single #
loop $-1 -1 $-1 $58 $210 $93 #
plane-surface $-1 -1 $-1 1207 20.00000000000010303 -9.99999999999958078 1 1.04980439322507003e-16 6.805143623689019588e-16 1.04980439322507008e-15 -10 3.572034836338160084e-31 forward_v I I I I #
DXID-attrib $-1 -1 $-1 $94 $37 @18 ASM_EDGE_FROM_STEP @3 264 #
color-adesk-attrib $-1 -1 $211 $96 $63 253 #
DXID-attrib $-1 -1 $-1 $98 $39 @18 ASM_EDGE_FROM_STEP @3 262 #
color-adesk-attrib $-1 -1 $212 $100 $67 253 #
truecolor-adesk-attrib $-1 -1 $213 $-1 $101 -1029660512 #
face $214 -1 $-1 $215 $216 $4 $-1 $217 reversed single #
loop $-1 -1 $-1 $-1 $218 $101 #
plane-surface $-1 -1 $-1 1195 20.00000000000010303 -9.999999999999589662 1.04980439322507003e-16 -1 3.572034836338160084e-32 -10 -1.04980439322507008e-15 -6.805143623689019785e-15 forward_v I I I I #
coedge $-1 -1 $-1 $219 $220 $221 $222 forward $102 $-1 #
DXID-attrib $-1 -1 $-1 $106 $47 @18 ASM_FACE_FROM_STEP @15 Component18-461 #
color-adesk-attrib $-1 -1 $223 $107 $73 253 #
truecolor-adesk-attrib $-1 -1 $224 $-1 $108 -1029660512 #
face $225 -1 $-1 $226 $124 $4 $-1 $227 forward single #
loop $-1 -1 $-1 $-1 $115 $108 #
cone-surface $-1 -1 $-1 1187.5 6.218759403685880213e-14 -29.9999999999996021 -1 -1.04980439322507003e-16 -6.805143623689019588e-16 1.110857401725555512e-14 -14.14213562373095101 -14.14213562373095101 1 I I 0 1 20 forward I I I I #
coedge $-1 -1 $-1 $228 $229 $112 $163 reversed $109 $-1 #
coedge $-1 -1 $-1 $230 $112 $231 $232 reversed $74 $-1 #
coedge $-1 -1 $-1 $112 $230 $233 $234 forward $74 $-1 #
edge $235 -1 $-1 $236 -2.356194490192344837 $237 0.785398163397448279 $112 $238 forward @7 unknown #
coedge $-1 -1 $-1 $114 $113 $239 $240 forward $48 $-1 #
coedge $-1 -1 $-1 $218 $241 $113 $166 forward $151 $-1 #
edge $242 -1 $-1 $243 0 $173 2.000000000000000888 $113 $244 forward @7 unknown #
coedge $-1 -1 $-1 $245 $246 $114 $168 reversed $208 $-1 #
edge $247 -1 $-1 $248 0 $172 2.000000000000000888 $114 $249 forward @7 unknown #
coedge $-1 -1 $-1 $221 $115 $246 $250 reversed $158 $-1 #
coedge $-1 -1 $-1 $115 $221 $218 $251 reversed $158 $-1 #
truecolor-adesk-attrib $-1 -1 $252 $-1 $116 -1029660512 #
vertex $-1 -1 $-1 $116 $253 #
vertex $-1 -1 $-1 $116 $254 #
ellipse-curve $-1 -1 $-1 1195 6.297494733177759981e-14 -29.9999999999996021 1 1.04980439322507003e-16 6.805143623689019588e-16 8.139278795780051121e-15 14.14213562373095101 -14.14213562373095101 1 F -2.356194490192344837 F 0.785398163397448279 #
coedge $-1 -1 $-1 $255 $256 $117 $176 reversed $257 $-1 #
edge $258 -1 $-1 $181 -3.000000000000003109 $187 0.9999999999999970024 $117 $259 forward @7 unknown #
coedge $-1 -1 $-1 $260 $118 $123 $191 forward $179 $-1 #
coedge $-1 -1 $-1 $118 $260 $255 $261 forward $179 $-1 #
loop $-1 -1 $-1 $-1 $177 $226 #
truecolor-adesk-attrib $-1 -1 $262 $-1 $119 -1029660512 #
vertex $-1 -1 $-1 $119 $263 #
straight-curve $-1 -1 $-1 1217 20.00000000000010303 -9.99999999999958078 6.805143623689019785e-15 3.572034836338160084e-31 -10 F 0 F 2.000000000000001776 #
coedge $-1 -1 $-1 $264 $120 $256 $265 forward $185 $-1 #
coedge $-1 -1 $-1 $120 $264 $122 $190 forward $185 $-1 #
loop $-1 -1 $-1 $-1 $184 $266 #
truecolor-adesk-attrib $-1 -1 $267 $-1 $121 -1029660512 #
vertex $-1 -1 $-1 $176 $268 #
straight-curve $-1 -1 $-1 1217 -19.99999999999990052 -9.99999999999958078 6.805143623689019785e-15 3.572034836338160084e-31 -10 F 0 F 2.000000000000001776 #
coedge $-1 -1 $-1 $123 $122 $210 $269 reversed $124 $-1 #
edge $270 -1 $-1 $271 0.8500000000000085265 $126 1.850000000000008527 $122 $272 forward @14 tangent_not_g2 #
edge $273 -1 $-1 $127 -1.350000000000008527 $274 -0.3500000000000085265 $123 $275 forward @14 tangent_not_g2 #
color-adesk-attrib $-1 -1 $276 $125 $82 253 #
point $-1 -1 $-1 1217 -19.99999999999990052 -29.9999999999996021 #
point $-1 -1 $-1 1217 20.00000000000010303 -29.9999999999996021 #
truecolor-adesk-attrib $-1 -1 $277 $-1 $130 -1029660512 #
ellipse-curve $-1 -1 $-1 1173 6.288582371593269477e-14 -29.9999999999996021 1 1.04980439322507003e-16 6.805143623689019588e-16 -1.04980439322507008e-15 10 -3.572034836338160084e-31 1 I I #
color-adesk-attrib $-1 -1 $278 $131 $84 253 #
point $-1 -1 $-1 1173 -9.999999999999939604 -29.9999999999996021 #
truecolor-adesk-attrib $-1 -1 $279 $-1 $134 -1029660512 #
face $280 -1 $-1 $281 $282 $4 $-1 $283 reversed single #
loop $-1 -1 $-1 $85 $284 $134 #
plane-surface $-1 -1 $-1 1163 20.00000000000010303 -9.999999999999610978 1 1.04980439322507003e-16 6.805143623689019588e-16 1.04980439322507008e-15 -10 3.572034836338160084e-31 forward_v I I I I #
DXID-attrib $-1 -1 $-1 $135 $55 @18 ASM_EDGE_FROM_STEP @3 267 #
color-adesk-attrib $-1 -1 $285 $137 $89 253 #
DXID-attrib $-1 -1 $-1 $139 $57 @18 ASM_EDGE_FROM_STEP @3 265 #
color-adesk-attrib $-1 -1 $286 $141 $93 253 #
truecolor-adesk-attrib $-1 -1 $287 $-1 $142 -1029660512 #
loop $-1 -1 $-1 $-1 $246 $142 #
plane-surface $-1 -1 $-1 1185 -19.99999999999990052 -9.99999999999960032 -1.04980439322507003e-16 1 -3.572034836338160084e-32 10 1.04980439322507008e-15 6.805143623689019785e-15 forward_v I I I I #
coedge $-1 -1 $-1 $288 $289 $189 $269 forward $143 $-1 #
DXID-attrib $-1 -1 $-1 $146 $63 @18 ASM_EDGE_FROM_STEP @3 263 #
DXID-attrib $-1 -1 $-1 $148 $67 @18 ASM_FACE_FROM_STEP @15 Component18-469 #
color-adesk-attrib $-1 -1 $290 $149 $101 253 #
truecolor-adesk-attrib $-1 -1 $291 $-1 $150 -1029660512 #
face $292 -1 $-1 $134 $293 $4 $-1 $294 reversed single #
loop $-1 -1 $-1 $-1 $295 $150 #
plane-surface $-1 -1 $-1 1173 20.00000000000010303 -9.999999999999610978 1.04980439322507003e-16 -1 3.572034836338160084e-32 -10 -1.04980439322507008e-15 -6.805143623689019785e-15 forward_v I I I I #
coedge $-1 -1 $-1 $296 $165 $170 $251 forward $151 $-1 #
coedge $-1 -1 $-1 $297 $153 $298 $299 reversed $102 $-1 #
coedge $-1 -1 $-1 $153 $297 $296 $300 forward $102 $-1 #
coedge $-1 -1 $-1 $170 $169 $153 $222 reversed $158 $-1 #
edge $301 -1 $-1 $302 -2.356194490192344837 $303 0.785398163397448279 $221 $304 forward @7 unknown #
DXID-attrib $-1 -1 $-1 $155 $73 @18 ASM_FACE_FROM_STEP @15 Component18-462 #
color-adesk-attrib $-1 -1 $305 $156 $108 253 #
truecolor-adesk-attrib $-1 -1 $306 $-1 $157 -1029660512 #
face $307 -1 $-1 $266 $179 $4 $-1 $308 reversed single #
cone-surface $-1 -1 $-1 1198.5 6.334237886940640487e-14 -29.9999999999996021 -1 -1.04980439322507003e-16 -6.805143623689019588e-16 1.110857401725555512e-14 -14.14213562373095101 -14.14213562373095101 1 I I 0 1 20 forward I I I I #
coedge $-1 -1 $-1 $309 $160 $310 $311 reversed $109 $-1 #
coedge $-1 -1 $-1 $160 $309 $295 $312 reversed $109 $-1 #
coedge $-1 -1 $-1 $162 $161 $313 $314 forward $74 $-1 #
coedge $-1 -1 $-1 $295 $315 $161 $232 forward $216 $-1 #
edge $316 -1 $-1 $317 0 $237 1.999999999999999112 $161 $318 forward @7 unknown #
coedge $-1 -1 $-1 $319 $310 $162 $234 reversed $293 $-1 #
edge $320 -1 $-1 $321 0 $236 1.999999999999999112 $162 $322 forward @7 unknown #
truecolor-adesk-attrib $-1 -1 $323 $-1 $163 -1029660512 #
vertex $-1 -1 $-1 $163 $324 #
vertex $-1 -1 $-1 $163 $325 #
ellipse-curve $-1 -1 $-1 1173 5.844493161743209386e-14 -29.9999999999996021 1 1.04980439322507003e-16 6.805143623689019588e-16 8.139278795780051121e-15 14.14213562373095101 -14.14213562373095101 1 F -2.356194490192344837 F 0.785398163397448279 #
coedge $-1 -1 $-1 $326 $327 $164 $240 reversed $328 $-1 #
edge $329 -1 $-1 $243 -3.000000000000003109 $248 0.9999999999999970024 $164 $330 forward @7 unknown #
coedge $-1 -1 $-1 $165 $296 $326 $331 forward $151 $-1 #
truecolor-adesk-attrib $-1 -1 $332 $-1 $166 -1029660512 #
vertex $-1 -1 $-1 $166 $333 #
straight-curve $-1 -1 $-1 1195 20.00000000000010303 -9.999999999999589662 6.805143623689019785e-15 3.572034836338160084e-31 -10 F 0 F 2.000000000000000888 #
coedge $-1 -1 $-1 $298 $167 $327 $334 forward $208 $-1 #
coedge $-1 -1 $-1 $167 $298 $169 $250 forward $208 $-1 #
truecolor-adesk-attrib $-1 -1 $335 $-1 $168 -1029660512 #
vertex $-1 -1 $-1 $240 $336 #
straight-curve $-1 -1 $-1 1195 -19.99999999999990052 -9.999999999999589662 6.805143623689019785e-15 3.572034836338160084e-31 -10 F 0 F 2.000000000000000888 #
edge $337 -1 $-1 $303 -0.25 $172 0.75 $169 $338 forward @14 tangent_not_g2 #
edge $339 -1 $-1 $173 -0.25 $302 0.75 $170 $340 forward @14 tangent_not_g2 #
color-adesk-attrib $-1 -1 $341 $171 $116 253 #
point $-1 -1 $-1 1195 -19.99999999999990052 -29.9999999999996021 #
point $-1 -1 $-1 1195 20.00000000000010303 -29.9999999999996021 #
coedge $-1 -1 $-1 $342 $175 $178 $261 reversed $257 $-1 #
coedge $-1 -1 $-1 $175 $342 $183 $265 reversed $257 $-1 #
loop $-1 -1 $-1 $328 $255 $343 #
truecolor-adesk-attrib $-1 -1 $344 $-1 $176 -1029660512 #
straight-curve $-1 -1 $-1 1217 -9.999999999999930722 -9.99999999999958078 1.04980439322507008e-15 -10 3.572034836338160084e-31 F -3.000000000000003109 F 0.9999999999999970024 #
coedge $-1 -1 $-1 $178 $177 $289 $345 reversed $179 $-1 #
edge $346 -1 $-1 $347 0.3500000000000085265 $181 1.350000000000008527 $178 $348 forward @7 unknown #
color-adesk-attrib $-1 -1 $349 $180 $119 253 #
point $-1 -1 $-1 1217 20.00000000000010303 -9.99999999999958078 #
coedge $-1 -1 $-1 $184 $183 $288 $350 forward $185 $-1 #
edge $351 -1 $-1 $187 -1.850000000000008527 $352 -0.8500000000000085265 $183 $353 forward @7 unknown #
face $354 -1 $-1 $93 $185 $4 $-1 $355 reversed single #
color-adesk-attrib $-1 -1 $356 $186 $121 253 #
point $-1 -1 $-1 1217 -19.99999999999990052 -9.99999999999958078 #
edge $357 -1 $-1 $274 -2.356194490192344837 $271 0.785398163397448279 $189 $358 forward @7 unknown #
truecolor-adesk-attrib $-1 -1 $359 $-1 $190 -1029660512 #
vertex $-1 -1 $-1 $190 $360 #
straight-curve $-1 -1 $-1 1198.5 -19.99999999999990052 -29.9999999999996021 10 1.04980439322507008e-15 6.805143623689019785e-15 F 0.8500000000000085265 F 1.850000000000008527 #
truecolor-adesk-attrib $-1 -1 $361 $-1 $191 -1029660512 #
vertex $-1 -1 $-1 $269 $362 #
straight-curve $-1 -1 $-1 1203.5 20.00000000000010303 -29.9999999999996021 -10 -1.04980439322507008e-15 -6.805143623689019785e-15 F -1.350000000000008527 F -0.3500000000000085265 #
DXID-attrib $-1 -1 $-1 $192 $82 @18 ASM_EDGE_FROM_STEP @3 270 #
color-adesk-attrib $-1 -1 $363 $195 $130 253 #
DXID-attrib $-1 -1 $-1 $197 $84 @18 ASM_EDGE_FROM_STEP @3 268 #
color-adesk-attrib $-1 -1 $364 $199 $134 253 #
truecolor-adesk-attrib $-1 -1 $365 $-1 $200 -1029660512 #
face $366 -1 $-1 $367 $368 $4 $-1 $369 reversed single #
loop $-1 -1 $-1 $-1 $370 $200 #
plane-surface $-1 -1 $-1 1235 25.9807621135331992 4.355292896430370095e-13 -0.499999999999999889 -0.8660254037844388186 -3.402571811844508808e-16 -8.660254037844389075 4.999999999999999112 -5.893427254516377482e-15 forward_v I I I I #
coedge $-1 -1 $-1 $371 $372 $309 $373 forward $201 $-1 #
DXID-attrib $-1 -1 $-1 $204 $89 @18 ASM_EDGE_FROM_STEP @3 266 #
DXID-attrib $-1 -1 $-1 $206 $93 @18 ASM_FACE_FROM_STEP @15 Component18-467 #
color-adesk-attrib $-1 -1 $374 $207 $142 253 #
coedge $-1 -1 $-1 $375 $210 $264 $350 reversed $143 $-1 #
coedge $-1 -1 $-1 $210 $375 $260 $345 forward $143 $-1 #
DXID-attrib $-1 -1 $-1 $213 $101 @18 ASM_FACE_FROM_STEP @15 Component18-470 #
color-adesk-attrib $-1 -1 $376 $214 $150 253 #
truecolor-adesk-attrib $-1 -1 $377 $-1 $215 -1029660512 #
loop $-1 -1 $-1 $-1 $310 $215 #
plane-surface $-1 -1 $-1 1163 -19.99999999999990052 -9.999999999999610978 -1.04980439322507003e-16 1 -3.572034836338160084e-32 10 1.04980439322507008e-15 6.805143623689019785e-15 forward_v I I I I #
coedge $-1 -1 $-1 $378 $231 $229 $312 forward $216 $-1 #
coedge $-1 -1 $-1 $241 $218 $220 $300 reversed $151 $-1 #
coedge $-1 -1 $-1 $220 $219 $379 $380 forward $102 $-1 #
coedge $-1 -1 $-1 $246 $245 $219 $299 forward $208 $-1 #
edge $381 -1 $-1 $382 0 $303 2 $298 $383 forward @7 unknown #
edge $384 -1 $-1 $385 0 $302 2 $220 $386 forward @7 unknown #
truecolor-adesk-attrib $-1 -1 $387 $-1 $222 -1029660512 #
vertex $-1 -1 $-1 $222 $388 #
vertex $-1 -1 $-1 $250 $389 #
ellipse-curve $-1 -1 $-1 1185 6.192514293855249837e-14 -29.9999999999996021 -1 -1.04980439322507003e-16 -6.805143623689019588e-16 1.110857401725555512e-14 -14.14213562373095101 -14.14213562373095101 1 F -2.356194490192344837 F 0.785398163397448279 #
DXID-attrib $-1 -1 $-1 $224 $108 @18 ASM_FACE_FROM_STEP @15 Component18-463 #
color-adesk-attrib $-1 -1 $390 $225 $157 253 #
truecolor-adesk-attrib $-1 -1 $391 $-1 $226 -1029660512 #
plane-surface $-1 -1 $-1 1217 20.00000000000010303 -9.99999999999958078 1.04980439322507003e-16 -1 3.572034836338160084e-32 -10 -1.04980439322507008e-15 -6.805143623689019785e-15 forward_v I I I I #
coedge $-1 -1 $-1 $229 $228 $284 $373 reversed $109 $-1 #
coedge $-1 -1 $-1 $233 $392 $228 $311 forward $293 $-1 #
edge $393 -1 $-1 $394 -1.350000000000008527 $236 -0.3500000000000085265 $228 $395 forward @14 tangent_not_g2 #
edge $396 -1 $-1 $237 0.8500000000000085265 $397 1.850000000000008527 $229 $398 forward @14 tangent_not_g2 #
coedge $-1 -1 $-1 $399 $400 $230 $314 reversed $401 $-1 #
edge $402 -1 $-1 $317 -3.000000000000003109 $321 0.9999999999999970024 $230 $403 forward @7 unknown #
coedge $-1 -1 $-1 $231 $378 $399 $404 forward $216 $-1 #
truecolor-adesk-attrib $-1 -1 $405 $-1 $232 -1029660512 #
vertex $-1 -1 $-1 $232 $406 #
straight-curve $-1 -1 $-1 1173 20.00000000000010303 -9.999999999999610978 6.805143623689019785e-15 3.572034836338160084e-31 -10 F 0 F 1.999999999999999112 #
coedge $-1 -1 $-1 $392 $233 $400 $407 forward $293 $-1 #
truecolor-adesk-attrib $-1 -1 $408 $-1 $234 -1029660512 #
vertex $-1 -1 $-1 $314 $409 #
straight-curve $-1 -1 $-1 1173 -19.99999999999990052 -9.999999999999610978 6.805143623689019785e-15 3.572034836338160084e-31 -10 F 0 F 1.999999999999999112 #
color-adesk-attrib $-1 -1 $410 $235 $163 253 #
point $-1 -1 $-1 1173 -19.99999999999990052 -29.9999999999996021 #
point $-1 -1 $-1 1173 20.00000000000010303 -29.9999999999996021 #
coedge $-1 -1 $-1 $379 $239 $241 $331 reversed $328 $-1 #
coedge $-1 -1 $-1 $239 $379 $245 $334 reversed $328 $-1 #
loop $-1 -1 $-1 $401 $239 $343 #
truecolor-adesk-attrib $-1 -1 $411 $-1 $240 -1029660512 #
straight-curve $-1 -1 $-1 1195 -9.999999999999930722 -9.999999999999589662 1.04980439322507008e-15 -10 3.572034836338160084e-31 F -3.000000000000003109 F 0.9999999999999970024 #
edge $412 -1 $-1 $385 -0.75 $243 0.25 $241 $413 forward @7 unknown #
color-adesk-attrib $-1 -1 $414 $242 $166 253 #
point $-1 -1 $-1 1195 20.00000000000010303 -9.999999999999589662 #
edge $415 -1 $-1 $248 -0.75 $382 0.25 $245 $416 forward @7 unknown #
color-adesk-attrib $-1 -1 $417 $247 $168 253 #
point $-1 -1 $-1 1195 -19.99999999999990052 -9.999999999999589662 #
truecolor-adesk-attrib $-1 -1 $418 $-1 $250 -1029660512 #
straight-curve $-1 -1 $-1 1187.5 -19.99999999999990052 -29.9999999999996021 10 1.04980439322507008e-15 6.805143623689019785e-15 F -0.25 F 0.75 #
truecolor-adesk-attrib $-1 -1 $419 $-1 $251 -1029660512 #
straight-curve $-1 -1 $-1 1192.5 20.00000000000010303 -29.9999999999996021 -10 -1.04980439322507008e-15 -6.805143623689019785e-15 F -0.25 F 0.75 #
DXID-attrib $-1 -1 $-1 $252 $116 @18 ASM_EDGE_FROM_STEP @3 274 #
coedge $-1 -1 $-1 $256 $255 $375 $420 reversed $257 $-1 #
face $421 -1 $-1 $422 $423 $4 $-1 $424 reversed single #
color-adesk-attrib $-1 -1 $425 $258 $176 253 #
edge $426 -1 $-1 $347 0 $274 2.000000000000001776 $260 $427 forward @7 unknown #
truecolor-adesk-attrib $-1 -1 $428 $-1 $261 -1029660512 #
vertex $-1 -1 $-1 $345 $429 #
straight-curve $-1 -1 $-1 1203.5 20.00000000000010303 -9.999999999999589662 10 1.04980439322507008e-15 6.805143623689019785e-15 F 0.3500000000000085265 F 1.350000000000008527 #
DXID-attrib $-1 -1 $-1 $262 $119 @18 ASM_EDGE_FROM_STEP @3 271 #
edge $430 -1 $-1 $352 0 $271 2.000000000000001776 $264 $431 forward @7 unknown #
truecolor-adesk-attrib $-1 -1 $432 $-1 $265 -1029660512 #
vertex $-1 -1 $-1 $265 $433 #
straight-curve $-1 -1 $-1 1198.5 -19.99999999999990052 -9.999999999999589662 -10 -1.04980439322507008e-15 -6.805143623689019785e-15 F -1.850000000000008527 F -0.8500000000000085265 #
truecolor-adesk-attrib $-1 -1 $434 $-1 $266 -1029660512 #
plane-surface $-1 -1 $-1 1207 -19.99999999999990052 -9.99999999999958078 -1.04980439322507003e-16 1 -3.572034836338160084e-32 10 1.04980439322507008e-15 6.805143623689019785e-15 forward_v I I I I #
DXID-attrib $-1 -1 $-1 $267 $121 @18 ASM_EDGE_FROM_STEP @3 273 #
truecolor-adesk-attrib $-1 -1 $435 $-1 $269 -1029660512 #
ellipse-curve $-1 -1 $-1 1207 6.423471260364770386e-14 -29.9999999999996021 -1 -1.04980439322507003e-16 -6.805143623689019588e-16 1.110857401725555512e-14 -14.14213562373095101 -14.14213562373095101 1 F -2.356194490192344837 F 0.785398163397448279 #
color-adesk-attrib $-1 -1 $436 $270 $190 253 #
point $-1 -1 $-1 1207 -19.99999999999990052 -29.9999999999996021 #
color-adesk-attrib $-1 -1 $437 $273 $191 253 #
point $-1 -1 $-1 1207 20.00000000000010303 -29.9999999999996021 #
DXID-attrib $-1 -1 $-1 $277 $130 @18 ASM_EDGE_FROM_STEP @3 269 #
DXID-attrib $-1 -1 $-1 $279 $134 @18 ASM_FACE_FROM_STEP @15 Component18-473 #
color-adesk-attrib $-1 -1 $438 $280 $200 253 #
truecolor-adesk-attrib $-1 -1 $439 $-1 $281 -1029660512 #
face $440 -1 $-1 $441 $442 $4 $-1 $443 reversed single #
loop $-1 -1 $-1 $-1 $444 $281 #
plane-surface $-1 -1 $-1 1235 -25.98076211353309617 4.355292896430370095e-13 -1 -6.177704890247910079e-16 -6.805143623689019588e-16 -6.177704890247909882e-15 10 -3.846813420656489704e-30 forward_v I I I I #
coedge $-1 -1 $-1 $445 $446 $447 $448 forward $282 $-1 #
coedge $-1 -1 $-1 $449 $284 $392 $450 reversed $201 $-1 #
coedge $-1 -1 $-1 $284 $449 $378 $451 forward $201 $-1 #
edge $452 -1 $-1 $397 -2.356194490192344837 $394 0.785398163397448279 $309 $453 forward @7 unknown #
DXID-attrib $-1 -1 $-1 $287 $142 @18 ASM_FACE_FROM_STEP @15 Component18-468 #
coedge $-1 -1 $-1 $289 $288 $342 $420 forward $143 $-1 #
DXID-attrib $-1 -1 $-1 $291 $150 @18 ASM_FACE_FROM_STEP @15 Component18-471 #
color-adesk-attrib $-1 -1 $454 $292 $215 253 #
coedge $-1 -1 $-1 $315 $295 $372 $451 reversed $216 $-1 #
coedge $-1 -1 $-1 $327 $326 $297 $380 reversed $328 $-1 #
edge $455 -1 $-1 $382 -3 $385 1.000000000000000222 $297 $456 forward @7 unknown #
truecolor-adesk-attrib $-1 -1 $457 $-1 $299 -1029660512 #
vertex $-1 -1 $-1 $334 $458 #
straight-curve $-1 -1 $-1 1185 -19.99999999999990052 -9.99999999999960032 6.805143623689019785e-15 3.572034836338160084e-31 -10 F 0 F 2 #
truecolor-adesk-attrib $-1 -1 $459 $-1 $300 -1029660512 #
vertex $-1 -1 $-1 $380 $460 #
straight-curve $-1 -1 $-1 1185 20.00000000000010303 -9.99999999999960032 6.805143623689019785e-15 3.572034836338160084e-31 -10 F 0 F 2 #
color-adesk-attrib $-1 -1 $461 $301 $222 253 #
point $-1 -1 $-1 1185 20.00000000000010303 -29.9999999999996021 #
point $-1 -1 $-1 1185 -19.99999999999990052 -29.9999999999996021 #
DXID-attrib $-1 -1 $-1 $306 $157 @18 ASM_FACE_FROM_STEP @15 Component18-464 #
color-adesk-attrib $-1 -1 $462 $307 $226 253 #
coedge $-1 -1 $-1 $310 $319 $371 $450 forward $293 $-1 #
truecolor-adesk-attrib $-1 -1 $463 $-1 $311 -1029660512 #
vertex $-1 -1 $-1 $311 $464 #
straight-curve $-1 -1 $-1 1176.5 -19.99999999999990052 -29.9999999999996021 10 1.04980439322507008e-15 6.805143623689019785e-15 F -1.350000000000008527 F -0.3500000000000085265 #
truecolor-adesk-attrib $-1 -1 $465 $-1 $312 -1029660512 #
vertex $-1 -1 $-1 $373 $466 #
straight-curve $-1 -1 $-1 1181.5 20.00000000000010303 -29.9999999999996021 -10 -1.04980439322507008e-15 -6.805143623689019785e-15 F 0.8500000000000085265 F 1.850000000000008527 #
coedge $-1 -1 $-1 $467 $313 $315 $404 reversed $401 $-1 #
coedge $-1 -1 $-1 $313 $467 $319 $407 reversed $401 $-1 #
loop $-1 -1 $-1 $-1 $399 $343 #
truecolor-adesk-attrib $-1 -1 $468 $-1 $314 -1029660512 #
straight-curve $-1 -1 $-1 1173 -9.999999999999930722 -9.999999999999610978 1.04980439322507008e-15 -10 3.572034836338160084e-31 F -3.000000000000003109 F 0.9999999999999970024 #
edge $469 -1 $-1 $470 -1.850000000000008527 $317 -0.8500000000000085265 $315 $471 forward @7 unknown #
color-adesk-attrib $-1 -1 $472 $316 $232 253 #
point $-1 -1 $-1 1173 20.00000000000010303 -9.999999999999610978 #
edge $473 -1 $-1 $321 0.3500000000000085265 $474 1.350000000000008527 $319 $475 forward @7 unknown #
color-adesk-attrib $-1 -1 $476 $320 $234 253 #
point $-1 -1 $-1 1173 -19.99999999999990052 -9.999999999999610978 #
DXID-attrib $-1 -1 $-1 $323 $163 @18 ASM_EDGE_FROM_STEP @3 278 #
color-adesk-attrib $-1 -1 $477 $329 $240 253 #
truecolor-adesk-attrib $-1 -1 $478 $-1 $331 -1029660512 #
straight-curve $-1 -1 $-1 1192.5 20.00000000000010303 -9.999999999999589662 10 1.04980439322507008e-15 6.805143623689019785e-15 F -0.75 F 0.25 #
DXID-attrib $-1 -1 $-1 $332 $166 @18 ASM_EDGE_FROM_STEP @3 275 #
truecolor-adesk-attrib $-1 -1 $479 $-1 $334 -1029660512 #
straight-curve $-1 -1 $-1 1187.5 -19.99999999999990052 -9.99999999999960032 -10 -1.04980439322507008e-15 -6.805143623689019785e-15 F -0.75 F 0.25 #
DXID-attrib $-1 -1 $-1 $335 $168 @18 ASM_EDGE_FROM_STEP @3 277 #
color-adesk-attrib $-1 -1 $480 $337 $250 253 #
color-adesk-attrib $-1 -1 $481 $339 $251 253 #
edge $482 -1 $-1 $352 -3 $347 1.000000000000000222 $375 $483 forward @7 unknown #
truecolor-adesk-attrib $-1 -1 $484 $-1 $343 -1029660512 #
face $485 -1 $-1 $-1 $486 $4 $-1 $487 forward single #
loop $-1 -1 $-1 $257 $488 $343 #
plane-surface $-1 -1 $-1 1190 7.133182933216630772e-14 -9.999999999999589662 -6.805143623689019588e-16 -3.572034836338160084e-32 1 10 1.04980439322507008e-15 6.805143623689019785e-15 forward_v I I I I #
DXID-attrib $-1 -1 $-1 $344 $176 @18 ASM_EDGE_FROM_STEP @3 272 #
truecolor-adesk-attrib $-1 -1 $489 $-1 $345 -1029660512 #
straight-curve $-1 -1 $-1 1207 20.00000000000010303 -9.99999999999958078 6.805143623689019785e-15 3.572034836338160084e-31 -10 F 0 F 2.000000000000001776 #
color-adesk-attrib $-1 -1 $490 $346 $261 253 #
point $-1 -1 $-1 1207 20.00000000000010303 -9.99999999999958078 #
truecolor-adesk-attrib $-1 -1 $491 $-1 $350 -1029660512 #
straight-curve $-1 -1 $-1 1207 -19.99999999999990052 -9.99999999999958078 6.805143623689019785e-15 3.572034836338160084e-31 -10 F 0 F 2.000000000000001776 #
color-adesk-attrib $-1 -1 $492 $351 $265 253 #
point $-1 -1 $-1 1207 -19.99999999999990052 -9.99999999999958078 #
color-adesk-attrib $-1 -1 $493 $354 $266 253 #
color-adesk-attrib $-1 -1 $494 $357 $269 253 #
DXID-attrib $-1 -1 $-1 $359 $190 @18 ASM_EDGE_FROM_STEP @3 288 #
DXID-attrib $-1 -1 $-1 $361 $191 @18 ASM_EDGE_FROM_STEP @3 290 #
DXID-attrib $-1 -1 $-1 $365 $200 @18 ASM_FACE_FROM_STEP @15 Component18-474 #
color-adesk-attrib $-1 -1 $495 $366 $281 253 #
truecolor-adesk-attrib $-1 -1 $496 $-1 $367 -1029660512 #
face $497 -1 $-1 $498 $499 $4 $-1 $500 reversed single #
loop $-1 -1 $-1 $-1 $501 $367 #
plane-surface $-1 -1 $-1 1190 -51.96152422706630603 4.049061433364359811e-13 -0.5000000000000009992 0.8660254037844380415 -3.402571811844509794e-16 8.660254037844380193 5.00000000000000977 5.89342725451637906e-15 forward_v I I I I #
coedge $-1 -1 $-1 $502 $503 $504 $505 forward $368 $-1 #
coedge $-1 -1 $-1 $506 $370 $503 $507 forward $282 $-1 #
coedge $-1 -1 $-1 $370 $506 $508 $509 reversed $282 $-1 #
coedge $-1 -1 $-1 $510 $504 $370 $448 reversed $486 $-1 #
edge $511 -1 $-1 $512 0 $513 5.1961524227066338 $370 $514 forward @7 unknown #
coedge $-1 -1 $-1 $372 $371 $467 $515 forward $201 $-1 #
edge $516 -1 $-1 $474 0 $394 1.999999999999999112 $392 $517 forward @7 unknown #
edge $518 -1 $-1 $470 0 $397 1.999999999999999112 $378 $519 forward @7 unknown #
truecolor-adesk-attrib $-1 -1 $520 $-1 $373 -1029660512 #
ellipse-curve $-1 -1 $-1 1163 6.183601932270770693e-14 -29.9999999999996021 -1 -1.04980439322507003e-16 -6.805143623689019588e-16 1.110857401725555512e-14 -14.14213562373095101 -14.14213562373095101 1 F -2.356194490192344837 F 0.785398163397448279 #
DXID-attrib $-1 -1 $-1 $377 $215 @18 ASM_FACE_FROM_STEP @15 Component18-472 #
truecolor-adesk-attrib $-1 -1 $521 $-1 $380 -1029660512 #
straight-curve $-1 -1 $-1 1185 10.00000000000009948 -9.99999999999960032 -1.04980439322507008e-15 10 -3.572034836338160084e-31 F -3 F 1.000000000000000222 #
color-adesk-attrib $-1 -1 $522 $381 $299 253 #
point $-1 -1 $-1 1185 -19.99999999999990052 -9.99999999999960032 #
color-adesk-attrib $-1 -1 $523 $384 $300 253 #
point $-1 -1 $-1 1185 20.00000000000010303 -9.99999999999960032 #
DXID-attrib $-1 -1 $-1 $387 $222 @18 ASM_EDGE_FROM_STEP @3 286 #
DXID-attrib $-1 -1 $-1 $391 $226 @18 ASM_FACE_FROM_STEP @15 Component18-465 #
color-adesk-attrib $-1 -1 $524 $393 $311 253 #
point $-1 -1 $-1 1163 -19.99999999999990052 -29.9999999999996021 #
color-adesk-attrib $-1 -1 $525 $396 $312 253 #
point $-1 -1 $-1 1163 20.00000000000010303 -29.9999999999996021 #
coedge $-1 -1 $-1 $400 $399 $449 $515 reversed $401 $-1 #
color-adesk-attrib $-1 -1 $526 $402 $314 253 #
truecolor-adesk-attrib $-1 -1 $527 $-1 $404 -1029660512 #
vertex $-1 -1 $-1 $451 $528 #
straight-curve $-1 -1 $-1 1181.5 20.00000000000010303 -9.99999999999960032 10 1.04980439322507008e-15 6.805143623689019785e-15 F -1.850000000000008527 F -0.8500000000000085265 #
DXID-attrib $-1 -1 $-1 $405 $232 @18 ASM_EDGE_FROM_STEP @3 279 #
truecolor-adesk-attrib $-1 -1 $529 $-1 $407 -1029660512 #
vertex $-1 -1 $-1 $407 $530 #
straight-curve $-1 -1 $-1 1176.5 -19.99999999999990052 -9.99999999999960032 -10 -1.04980439322507008e-15 -6.805143623689019785e-15 F 0.3500000000000085265 F 1.350000000000008527 #
DXID-attrib $-1 -1 $-1 $408 $234 @18 ASM_EDGE_FROM_STEP @3 281 #
DXID-attrib $-1 -1 $-1 $411 $240 @18 ASM_EDGE_FROM_STEP @3 276 #
color-adesk-attrib $-1 -1 $531 $412 $331 253 #
color-adesk-attrib $-1 -1 $532 $415 $334 253 #
DXID-attrib $-1 -1 $-1 $418 $250 @18 ASM_EDGE_FROM_STEP @3 285 #
DXID-attrib $-1 -1 $-1 $419 $251 @18 ASM_EDGE_FROM_STEP @3 287 #
truecolor-adesk-attrib $-1 -1 $533 $-1 $420 -1029660512 #
straight-curve $-1 -1 $-1 1207 10.00000000000009948 -9.99999999999958078 -1.04980439322507008e-15 10 -3.572034836338160084e-31 F -3 F 1.000000000000000222 #
color-adesk-attrib $-1 -1 $534 $421 $343 253 #
truecolor-adesk-attrib $-1 -1 $535 $-1 $422 -1029660512 #
loop $-1 -1 $-1 $-1 $510 $422 #
plane-surface $-1 -1 $-1 1190 7.133182933216630772e-14 4.049061433364369908e-13 -6.805143623689019588e-16 -3.572034836338160084e-32 1 -10 -1.04980439322507008e-15 -6.805143623689019785e-15 forward_v I I I I #
coedge $-1 -1 $-1 $536 $537 $538 $539 reversed $423 $-1 #
color-adesk-attrib $-1 -1 $540 $426 $345 253 #
DXID-attrib $-1 -1 $-1 $428 $261 @18 ASM_EDGE_FROM_STEP @3 292 #
color-adesk-attrib $-1 -1 $541 $430 $350 253 #
DXID-attrib $-1 -1 $-1 $432 $265 @18 ASM_EDGE_FROM_STEP @3 293 #
DXID-attrib $-1 -1 $-1 $434 $266 @18 ASM_FACE_FROM_STEP @15 Component18-466 #
DXID-attrib $-1 -1 $-1 $435 $269 @18 ASM_EDGE_FROM_STEP @3 289 #
DXID-attrib $-1 -1 $-1 $439 $281 @18 ASM_FACE_FROM_STEP @15 Component18-475 #
color-adesk-attrib $-1 -1 $542 $440 $367 253 #
truecolor-adesk-attrib $-1 -1 $543 $-1 $441 -1029660512 #
face $544 -1 $-1 $545 $546 $4 $-1 $547 reversed single #
loop $-1 -1 $-1 $-1 $548 $441 #
plane-surface $-1 -1 $-1 1145 -25.9807621135331992 3.742829970298360129e-13 0.4999999999999991118 0.8660254037844392627 3.402571811844500919e-16 8.660254037844392627 -4.999999999999991118 5.893427254516380637e-15 forward_v I I I I #
coedge $-1 -1 $-1 $549 $550 $551 $552 forward $442 $-1 #
coedge $-1 -1 $-1 $553 $444 $550 $554 forward $368 $-1 #
coedge $-1 -1 $-1 $444 $553 $445 $507 reversed $368 $-1 #
coedge $-1 -1 $-1 $447 $551 $444 $505 reversed $486 $-1 #
edge $555 -1 $-1 $513 0 $556 5.196152422706630247 $444 $557 forward @7 unknown #
coedge $-1 -1 $-1 $446 $445 $536 $558 forward $282 $-1 #
edge $559 -1 $-1 $513 0 $560 0.9999999999999995559 $445 $561 forward @7 unknown #
coedge $-1 -1 $-1 $538 $562 $446 $509 forward $563 $-1 #
edge $564 -1 $-1 $512 0 $565 0.9999999999999995559 $446 $566 forward @7 unknown #
coedge $-1 -1 $-1 $567 $447 $562 $568 reversed $486 $-1 #
truecolor-adesk-attrib $-1 -1 $569 $-1 $448 -1029660512 #
vertex $-1 -1 $-1 $448 $570 #
vertex $-1 -1 $-1 $448 $571 #
straight-curve $-1 -1 $-1 1190 51.9615242270663984 4.049061433364359811e-13 8.660254037844390851 -5 5.893427254516379849e-15 F 0 F 5.1961524227066338 #
edge $572 -1 $-1 $474 -3 $470 1.000000000000000222 $449 $573 forward @7 unknown #
truecolor-adesk-attrib $-1 -1 $574 $-1 $450 -1029660512 #
straight-curve $-1 -1 $-1 1163 -19.99999999999990052 -9.999999999999610978 6.805143623689019785e-15 3.572034836338160084e-31 -10 F 0 F 1.999999999999999112 #
truecolor-adesk-attrib $-1 -1 $575 $-1 $451 -1029660512 #
straight-curve $-1 -1 $-1 1163 20.00000000000010303 -9.999999999999610978 6.805143623689019785e-15 3.572034836338160084e-31 -10 F 0 F 1.999999999999999112 #
color-adesk-attrib $-1 -1 $576 $452 $373 253 #
color-adesk-attrib $-1 -1 $577 $455 $380 253 #
DXID-attrib $-1 -1 $-1 $457 $299 @18 ASM_EDGE_FROM_STEP @3 297 #
DXID-attrib $-1 -1 $-1 $459 $300 @18 ASM_EDGE_FROM_STEP @3 299 #
DXID-attrib $-1 -1 $-1 $463 $311 @18 ASM_EDGE_FROM_STEP @3 282 #
DXID-attrib $-1 -1 $-1 $465 $312 @18 ASM_EDGE_FROM_STEP @3 284 #
DXID-attrib $-1 -1 $-1 $468 $314 @18 ASM_EDGE_FROM_STEP @3 280 #
color-adesk-attrib $-1 -1 $578 $469 $404 253 #
point $-1 -1 $-1 1163 20.00000000000010303 -9.999999999999610978 #
color-adesk-attrib $-1 -1 $579 $473 $407 253 #
point $-1 -1 $-1 1163 -19.99999999999990052 -9.999999999999610978 #
DXID-attrib $-1 -1 $-1 $478 $331 @18 ASM_EDGE_FROM_STEP @3 300 #
DXID-attrib $-1 -1 $-1 $479 $334 @18 ASM_EDGE_FROM_STEP @3 296 #
color-adesk-attrib $-1 -1 $580 $482 $420 253 #
DXID-attrib $-1 -1 $-1 $484 $343 @18 ASM_FACE_FROM_STEP @15 Component18-480 #
color-adesk-attrib $-1 -1 $581 $485 $422 253 #
coedge $-1 -1 $-1 $582 $488 $506 $558 reversed $423 $-1 #
coedge $-1 -1 $-1 $488 $583 $584 $585 reversed $423 $-1 #
coedge $-1 -1 $-1 $586 $508 $488 $539 forward $563 $-1 #
edge $587 -1 $-1 $565 -5.1961524227066338 $588 -0 $538 $589 forward @7 unknown #
DXID-attrib $-1 -1 $-1 $489 $345 @18 ASM_EDGE_FROM_STEP @3 291 #
DXID-attrib $-1 -1 $-1 $491 $350 @18 ASM_EDGE_FROM_STEP @3 294 #
DXID-attrib $-1 -1 $-1 $496 $367 @18 ASM_FACE_FROM_STEP @15 Component18-476 #
color-adesk-attrib $-1 -1 $590 $497 $441 253 #
truecolor-adesk-attrib $-1 -1 $591 $-1 $498 -1029660512 #
face $592 -1 $-1 $343 $563 $4 $-1 $593 reversed single #
loop $-1 -1 $-1 $-1 $594 $498 #
plane-surface $-1 -1 $-1 1145 25.9807621135331992 3.742829970298360129e-13 1 4.468404724573630474e-16 6.805143623689019588e-16 4.468404724573630671e-15 -10 2.683610108315590064e-30 forward_v I I I I #
coedge $-1 -1 $-1 $595 $596 $597 $598 forward $499 $-1 #
coedge $-1 -1 $-1 $599 $501 $596 $600 forward $442 $-1 #
coedge $-1 -1 $-1 $501 $599 $502 $554 reversed $442 $-1 #
coedge $-1 -1 $-1 $504 $597 $501 $552 reversed $486 $-1 #
edge $601 -1 $-1 $556 -0 $602 5.196152422706636465 $501 $603 forward @7 unknown #
coedge $-1 -1 $-1 $503 $502 $582 $604 forward $368 $-1 #
edge $605 -1 $-1 $556 0 $606 0.9999999999999995559 $502 $607 forward @7 unknown #
truecolor-adesk-attrib $-1 -1 $608 $-1 $505 -1029660512 #
vertex $-1 -1 $-1 $505 $609 #
straight-curve $-1 -1 $-1 1235 25.9807621135331992 4.355292896430370095e-13 6.177704890247909882e-15 -10 3.846813420656489704e-30 F 0 F 5.196152422706630247 #
edge $610 -1 $-1 $560 -5.1961524227066338 $565 0 $506 $611 forward @7 unknown #
truecolor-adesk-attrib $-1 -1 $612 $-1 $507 -1029660512 #
vertex $-1 -1 $-1 $507 $613 #
straight-curve $-1 -1 $-1 1235 25.9807621135331992 4.355292896430370095e-13 6.805143623689019785e-15 3.572034836338160084e-31 -10 F 0 F 0.9999999999999995559 #
coedge $-1 -1 $-1 $508 $586 $510 $568 forward $563 $-1 #
loop $-1 -1 $-1 $-1 $562 $545 #
truecolor-adesk-attrib $-1 -1 $614 $-1 $509 -1029660512 #
vertex $-1 -1 $-1 $558 $615 #
straight-curve $-1 -1 $-1 1190 51.9615242270663984 4.049061433364359811e-13 6.805143623689019785e-15 3.572034836338160084e-31 -10 F 0 F 0.9999999999999995559 #
coedge $-1 -1 $-1 $597 $510 $594 $616 reversed $486 $-1 #
edge $617 -1 $-1 $618 0 $512 5.1961524227066338 $562 $619 forward @7 unknown #
color-adesk-attrib $-1 -1 $620 $511 $448 253 #
point $-1 -1 $-1 1190 51.9615242270663984 4.049061433364359811e-13 #
point $-1 -1 $-1 1235 25.9807621135331992 4.355292896430370095e-13 #
truecolor-adesk-attrib $-1 -1 $621 $-1 $515 -1029660512 #
straight-curve $-1 -1 $-1 1163 10.00000000000009948 -9.999999999999610978 -1.04980439322507008e-15 10 -3.572034836338160084e-31 F -3 F 1.000000000000000222 #
color-adesk-attrib $-1 -1 $622 $516 $450 253 #
color-adesk-attrib $-1 -1 $623 $518 $451 253 #
DXID-attrib $-1 -1 $-1 $520 $373 @18 ASM_EDGE_FROM_STEP @3 283 #
DXID-attrib $-1 -1 $-1 $521 $380 @18 ASM_EDGE_FROM_STEP @3 298 #
DXID-attrib $-1 -1 $-1 $527 $404 @18 ASM_EDGE_FROM_STEP @3 302 #
DXID-attrib $-1 -1 $-1 $529 $407 @18 ASM_EDGE_FROM_STEP @3 303 #
DXID-attrib $-1 -1 $-1 $533 $420 @18 ASM_EDGE_FROM_STEP @3 295 #
DXID-attrib $-1 -1 $-1 $535 $422 @18 ASM_FACE_FROM_STEP @15 Component18-481 #
coedge $-1 -1 $-1 $624 $536 $553 $604 reversed $423 $-1 #
coedge $-1 -1 $-1 $537 $624 $625 $626 reversed $423 $-1 #
coedge $-1 -1 $-1 $627 $628 $537 $585 forward $546 $-1 #
edge $629 -1 $-1 $588 -5.196152422706640017 $630 0 $584 $631 forward @7 unknown #
coedge $-1 -1 $-1 $562 $538 $628 $632 reversed $563 $-1 #
truecolor-adesk-attrib $-1 -1 $633 $-1 $539 -1029660512 #
vertex $-1 -1 $-1 $632 $634 #
straight-curve $-1 -1 $-1 1145 25.9807621135331992 -9.999999999999630518 -8.660254037844380193 -5.00000000000000977 -5.893427254516379849e-15 F -5.1961524227066338 F -0 #
DXID-attrib $-1 -1 $-1 $543 $441 @18 ASM_FACE_FROM_STEP @15 Component18-477 #
color-adesk-attrib $-1 -1 $635 $544 $498 253 #
truecolor-adesk-attrib $-1 -1 $636 $-1 $545 -1029660512 #
plane-surface $-1 -1 $-1 1190 51.9615242270663984 4.049061433364359811e-13 0.5000000000000009992 -0.8660254037844380415 3.402571811844509794e-16 -8.660254037844380193 -5.00000000000000977 -5.89342725451637906e-15 forward_v I I I I #
coedge $-1 -1 $-1 $628 $627 $567 $616 forward $546 $-1 #
coedge $-1 -1 $-1 $625 $548 $627 $637 forward $499 $-1 #
coedge $-1 -1 $-1 $548 $625 $549 $600 reversed $499 $-1 #
coedge $-1 -1 $-1 $551 $567 $548 $598 reversed $486 $-1 #
edge $638 -1 $-1 $602 0 $639 5.196152422706630247 $548 $640 forward @7 unknown #
coedge $-1 -1 $-1 $550 $549 $624 $641 forward $442 $-1 #
edge $642 -1 $-1 $602 0 $643 0.9999999999999995559 $549 $644 forward @7 unknown #
truecolor-adesk-attrib $-1 -1 $645 $-1 $552 -1029660512 #
vertex $-1 -1 $-1 $552 $646 #
straight-curve $-1 -1 $-1 1235 -25.98076211353309617 4.355292896430370095e-13 -8.660254037844380193 -4.999999999999999112 -5.893427254516379849e-15 F -0 F 5.196152422706636465 #
edge $647 -1 $-1 $606 -5.196152422706619589 $560 0 $553 $648 forward @7 unknown #
truecolor-adesk-attrib $-1 -1 $649 $-1 $554 -1029660512 #
vertex $-1 -1 $-1 $554 $650 #
straight-curve $-1 -1 $-1 1235 -25.98076211353309617 4.355292896430370095e-13 6.805143623689019785e-15 3.572034836338160084e-31 -10 F 0 F 0.9999999999999995559 #
color-adesk-attrib $-1 -1 $651 $555 $505 253 #
point $-1 -1 $-1 1235 -25.98076211353309617 4.355292896430370095e-13 #
truecolor-adesk-attrib $-1 -1 $652 $-1 $558 -1029660512 #
straight-curve $-1 -1 $-1 1190 51.9615242270663984 -9.999999999999589662 -8.660254037844390851 5 -5.893427254516379849e-15 F -5.1961524227066338 F 0 #
color-adesk-attrib $-1 -1 $653 $559 $507 253 #
point $-1 -1 $-1 1235 25.9807621135331992 -9.999999999999559464 #
color-adesk-attrib $-1 -1 $654 $564 $509 253 #
point $-1 -1 $-1 1190 51.9615242270663984 -9.999999999999589662 #
edge $655 -1 $-1 $639 0 $618 5.196152422706640017 $594 $656 forward @7 unknown #
truecolor-adesk-attrib $-1 -1 $657 $-1 $568 -1029660512 #
vertex $-1 -1 $-1 $616 $658 #
straight-curve $-1 -1 $-1 1145 25.9807621135331992 3.742829970298360129e-13 8.660254037844380193 5.00000000000000977 5.893427254516379849e-15 F 0 F 5.1961524227066338 #
DXID-attrib $-1 -1 $-1 $569 $448 @18 ASM_EDGE_FROM_STEP @3 306 #
color-adesk-attrib $-1 -1 $659 $572 $515 253 #
DXID-attrib $-1 -1 $-1 $574 $450 @18 ASM_EDGE_FROM_STEP @3 304 #
DXID-attrib $-1 -1 $-1 $575 $451 @18 ASM_EDGE_FROM_STEP @3 301 #
coedge $-1 -1 $-1 $583 $582 $599 $641 reversed $423 $-1 #
coedge $-1 -1 $-1 $596 $595 $583 $626 forward $499 $-1 #
edge $660 -1 $-1 $630 -5.196152422706630247 $643 0 $625 $661 forward @7 unknown #
coedge $-1 -1 $-1 $594 $584 $595 $637 reversed $546 $-1 #
coedge $-1 -1 $-1 $584 $594 $586 $632 forward $546 $-1 #
truecolor-adesk-attrib $-1 -1 $662 $-1 $585 -1029660512 #
vertex $-1 -1 $-1 $637 $663 #
straight-curve $-1 -1 $-1 1145 -25.9807621135331992 -9.999999999999630518 4.468404724573630671e-15 -10 2.683610108315590064e-30 F -5.196152422706640017 F 0 #
edge $664 -1 $-1 $618 0 $588 1.000000000000000444 $628 $665 forward @7 unknown #
color-adesk-attrib $-1 -1 $666 $587 $539 253 #
point $-1 -1 $-1 1145 25.9807621135331992 -9.999999999999630518 #
DXID-attrib $-1 -1 $-1 $591 $498 @18 ASM_FACE_FROM_STEP @15 Component18-478 #
color-adesk-attrib $-1 -1 $667 $592 $545 253 #
edge $668 -1 $-1 $639 0 $630 1.000000000000000444 $595 $669 forward @7 unknown #
truecolor-adesk-attrib $-1 -1 $670 $-1 $598 -1029660512 #
vertex $-1 -1 $-1 $598 $671 #
straight-curve $-1 -1 $-1 1190 -51.96152422706630603 4.049061433364359811e-13 -8.660254037844390851 4.99999999999999023 -5.893427254516379849e-15 F 0 F 5.196152422706630247 #
edge $672 -1 $-1 $643 -5.196152422706636465 $606 4.8849813083506943e-15 $599 $673 forward @7 unknown #
truecolor-adesk-attrib $-1 -1 $674 $-1 $600 -1029660512 #
vertex $-1 -1 $-1 $600 $675 #
straight-curve $-1 -1 $-1 1190 -51.96152422706630603 4.049061433364359811e-13 6.805143623689019785e-15 3.572034836338160084e-31 -10 F 0 F 0.9999999999999995559 #
color-adesk-attrib $-1 -1 $676 $601 $552 253 #
point $-1 -1 $-1 1190 -51.96152422706630603 4.049061433364359811e-13 #
truecolor-adesk-attrib $-1 -1 $677 $-1 $604 -1029660512 #
straight-curve $-1 -1 $-1 1235 25.9807621135331992 -9.999999999999559464 -6.177704890247909882e-15 10 -3.846813420656489704e-30 F -5.196152422706619589 F 0 #
color-adesk-attrib $-1 -1 $678 $605 $554 253 #
point $-1 -1 $-1 1235 -25.98076211353300025 -9.999999999999559464 #
DXID-attrib $-1 -1 $-1 $608 $505 @18 ASM_EDGE_FROM_STEP @3 310 #
color-adesk-attrib $-1 -1 $679 $610 $558 253 #
DXID-attrib $-1 -1 $-1 $612 $507 @18 ASM_EDGE_FROM_STEP @3 307 #
DXID-attrib $-1 -1 $-1 $614 $509 @18 ASM_EDGE_FROM_STEP @3 309 #
truecolor-adesk-attrib $-1 -1 $680 $-1 $616 -1029660512 #
straight-curve $-1 -1 $-1 1145 -25.9807621135331992 3.742829970298360129e-13 -4.468404724573630671e-15 10 -2.683610108315590064e-30 F 0 F 5.196152422706640017 #
color-adesk-attrib $-1 -1 $681 $617 $568 253 #
point $-1 -1 $-1 1145 25.9807621135331992 3.742829970298360129e-13 #
DXID-attrib $-1 -1 $-1 $621 $515 @18 ASM_EDGE_FROM_STEP @3 305 #
truecolor-adesk-attrib $-1 -1 $682 $-1 $626 -1029660512 #
straight-curve $-1 -1 $-1 1190 -51.96152422706630603 -9.999999999999589662 8.660254037844390851 -4.99999999999999023 5.893427254516379849e-15 F -5.196152422706630247 F 0 #
color-adesk-attrib $-1 -1 $683 $629 $585 253 #
point $-1 -1 $-1 1145 -25.9807621135331992 -9.999999999999630518 #
truecolor-adesk-attrib $-1 -1 $684 $-1 $632 -1029660512 #
straight-curve $-1 -1 $-1 1145 25.9807621135331992 3.742829970298360129e-13 6.805143623689019785e-15 3.572034836338160084e-31 -10 F 0 F 1.000000000000000444 #
DXID-attrib $-1 -1 $-1 $633 $539 @18 ASM_EDGE_FROM_STEP @3 323 #
DXID-attrib $-1 -1 $-1 $636 $545 @18 ASM_FACE_FROM_STEP @15 Component18-479 #
truecolor-adesk-attrib $-1 -1 $685 $-1 $637 -1029660512 #
straight-curve $-1 -1 $-1 1145 -25.9807621135331992 3.742829970298360129e-13 6.805143623689019785e-15 3.572034836338160084e-31 -10 F 0 F 1.000000000000000444 #
color-adesk-attrib $-1 -1 $686 $638 $598 253 #
point $-1 -1 $-1 1145 -25.9807621135331992 3.742829970298360129e-13 #
truecolor-adesk-attrib $-1 -1 $687 $-1 $641 -1029660512 #
straight-curve $-1 -1 $-1 1235 -25.98076211353309617 -9.999999999999559464 8.660254037844380193 4.999999999999999112 5.893427254516379849e-15 F -5.196152422706636465 F 4.8849813083506943e-15 #
color-adesk-attrib $-1 -1 $688 $642 $600 253 #
point $-1 -1 $-1 1190 -51.96152422706630603 -9.999999999999589662 #
DXID-attrib $-1 -1 $-1 $645 $552 @18 ASM_EDGE_FROM_STEP @3 313 #
color-adesk-attrib $-1 -1 $689 $647 $604 253 #
DXID-attrib $-1 -1 $-1 $649 $554 @18 ASM_EDGE_FROM_STEP @3 311 #
DXID-attrib $-1 -1 $-1 $652 $558 @18 ASM_EDGE_FROM_STEP @3 308 #
color-adesk-attrib $-1 -1 $690 $655 $616 253 #
DXID-attrib $-1 -1 $-1 $657 $568 @18 ASM_EDGE_FROM_STEP @3 322 #
color-adesk-attrib $-1 -1 $691 $660 $626 253 #
DXID-attrib $-1 -1 $-1 $662 $585 @18 ASM_EDGE_FROM_STEP @3 321 #
color-adesk-attrib $-1 -1 $692 $664 $632 253 #
color-adesk-attrib $-1 -1 $693 $668 $637 253 #
DXID-attrib $-1 -1 $-1 $670 $598 @18 ASM_EDGE_FROM_STEP @3 316 #
color-adesk-attrib $-1 -1 $694 $672 $641 253 #
DXID-attrib $-1 -1 $-1 $674 $600 @18 ASM_EDGE_FROM_STEP @3 314 #
DXID-attrib $-1 -1 $-1 $677 $604 @18 ASM_EDGE_FROM_STEP @3 312 #
DXID-attrib $-1 -1 $-1 $680 $616 @18 ASM_EDGE_FROM_STEP @3 319 #
DXID-attrib $-1 -1 $-1 $682 $626 @18 ASM_EDGE_FROM_STEP @3 318 #
DXID-attrib $-1 -1 $-1 $684 $632 @18 ASM_EDGE_FROM_STEP @3 320 #
DXID-attrib $-1 -1 $-1 $685 $637 @18 ASM_EDGE_FROM_STEP @3 317 #
DXID-attrib $-1 -1 $-1 $687 $641 @18 ASM_EDGE_FROM_STEP @3 315 #
