700 531 1 0         
16 Autodesk AutoCAD 20 ASM 229.2.0.65535 NT 24 Wed Mar  6 00:09:53 2024 
1 9.999999999999999547e-07 1.000000000000000036e-10 
body $1 -1 $-1 $2 $-1 $3 #
DXID-attrib $-1 -1 $-1 $-1 $0 @18 ASM_BODY_FROM_STEP @83 4D954E492F4A55164B8BAF2E4D6C58D074215FE1|:|1817F654752E9CF1A78D11D3004C9A5611698275 #
lump $-1 -1 $-1 $-1 $4 $0 #
transform $-1 -1 1 0 0 0 1 0 0 0 1 0 0 0 1 no_rotate no_reflect no_shear #
shell $-1 -1 $-1 $-1 $-1 $5 $-1 $2 #
face $6 -1 $-1 $7 $8 $4 $-1 $9 reversed single #
truecolor-adesk-attrib $-1 -1 $10 $-1 $5 -1029660512 #
face $11 -1 $-1 $12 $13 $4 $-1 $14 reversed single #
loop $-1 -1 $-1 $-1 $15 $5 #
cone-surface $-1 -1 $-1 1067.549999999999955 2.220446049250160042e-15 -50.00000000000029843 -1 2.472486222417190145e-31 5.551115123125779744e-16 2.472486222417190233e-30 10 -6.86252783049007957e-46 1 I I 0 1 10 forward I I I I #
color-adesk-attrib $-1 -1 $16 $6 $5 253 #
truecolor-adesk-attrib $-1 -1 $17 $-1 $7 -1029660512 #
face $18 -1 $-1 $19 $20 $4 $-1 $21 reversed single #
loop $-1 -1 $-1 $-1 $22 $7 #
cone-surface $-1 -1 $-1 1067.549999999999955 2.220446049250160042e-15 -50.00000000000029843 -1 2.472486222417190145e-31 5.551115123125779744e-16 2.472486222417190233e-30 10 -6.86252783049007957e-46 1 I I 0 1 10 forward I I I I #
coedge $-1 -1 $-1 $23 $24 $25 $26 forward $8 $-1 #
DXID-attrib $-1 -1 $-1 $10 $5 @18 ASM_FACE_FROM_STEP @15 Component19-351 #
color-adesk-attrib $-1 -1 $27 $11 $7 253 #
truecolor-adesk-attrib $-1 -1 $28 $-1 $12 -1029660512 #
face $29 -1 $-1 $30 $31 $4 $-1 $32 reversed single #
loop $-1 -1 $-1 $33 $34 $12 #
plane-surface $-1 -1 $-1 1044 -20 -10.0000000000003002 -1 2.472486222417190145e-31 5.551115123125779744e-16 2.472486222417190233e-30 10 -6.86252783049007957e-46 forward_v I I I I #
coedge $-1 -1 $-1 $35 $36 $37 $38 forward $13 $-1 #
coedge $-1 -1 $-1 $39 $15 $24 $40 forward $8 $-1 #
coedge $-1 -1 $-1 $15 $39 $23 $40 reversed $8 $-1 #
coedge $-1 -1 $-1 $25 $25 $15 $26 reversed $41 $-1 #
edge $42 -1 $-1 $43 -3.141592653589793116 $43 3.141592653589793116 $15 $44 forward @7 unknown #
DXID-attrib $-1 -1 $-1 $17 $7 @18 ASM_FACE_FROM_STEP @15 Component19-352 #
color-adesk-attrib $-1 -1 $45 $18 $12 253 #
truecolor-adesk-attrib $-1 -1 $46 $-1 $19 -1029660512 #
face $47 -1 $-1 $48 $49 $4 $-1 $50 forward single #
loop $-1 -1 $-1 $51 $52 $19 #
plane-surface $-1 -1 $-1 1066 -20 -10.0000000000003002 -1 2.472486222417190145e-31 5.551115123125779744e-16 2.472486222417190233e-30 10 -6.86252783049007957e-46 forward_v I I I I #
loop $-1 -1 $-1 $-1 $53 $12 #
coedge $-1 -1 $-1 $54 $55 $56 $57 forward $20 $-1 #
coedge $-1 -1 $-1 $58 $22 $36 $59 forward $13 $-1 #
coedge $-1 -1 $-1 $22 $58 $35 $59 reversed $13 $-1 #
coedge $-1 -1 $-1 $37 $37 $22 $38 reversed $60 $-1 #
edge $61 -1 $-1 $62 -3.141592653589793116 $62 3.141592653589793116 $22 $63 forward @7 unknown #
coedge $-1 -1 $-1 $24 $23 $64 $65 forward $8 $-1 #
edge $66 -1 $-1 $43 -1.155000000000001137 $67 -0.1550000000000011369 $23 $68 forward @2 g2 #
loop $-1 -1 $-1 $-1 $25 $69 #
truecolor-adesk-attrib $-1 -1 $70 $-1 $26 -1029660512 #
vertex $-1 -1 $-1 $26 $71 #
ellipse-curve $-1 -1 $-1 1056 2.220446049250160042e-15 -50.00000000000029843 -1 2.472486222417190145e-31 5.551115123125779744e-16 2.472486222417190233e-30 10 -6.86252783049007957e-46 1 I I #
DXID-attrib $-1 -1 $-1 $28 $12 @18 ASM_FACE_FROM_STEP @15 Component19-353 #
color-adesk-attrib $-1 -1 $72 $29 $19 253 #
truecolor-adesk-attrib $-1 -1 $73 $-1 $30 -1029660512 #
face $74 -1 $-1 $75 $76 $4 $-1 $77 forward single #
loop $-1 -1 $-1 $-1 $56 $30 #
cone-surface $-1 -1 $-1 1042 2.220446049250170297e-15 -50.00000000000029843 -1 2.472486222417190145e-31 5.551115123125779744e-16 -7.850462293418875587e-15 -14.14213562373095101 -14.14213562373095101 1 I I 0 1 20 forward I I I I #
loop $-1 -1 $-1 $-1 $64 $19 #
coedge $-1 -1 $-1 $78 $79 $80 $81 forward $31 $-1 #
coedge $-1 -1 $-1 $53 $53 $58 $82 reversed $33 $-1 #
coedge $-1 -1 $-1 $83 $34 $84 $85 reversed $20 $-1 #
coedge $-1 -1 $-1 $34 $83 $86 $87 forward $20 $-1 #
coedge $-1 -1 $-1 $88 $89 $34 $57 reversed $49 $-1 #
edge $90 -1 $-1 $91 -2.356194490192344837 $92 0.785398163397448279 $34 $93 forward @7 unknown #
coedge $-1 -1 $-1 $36 $35 $53 $82 forward $13 $-1 #
edge $94 -1 $-1 $62 -3.354999999999989768 $95 -2.354999999999989768 $35 $96 forward @2 g2 #
loop $-1 -1 $-1 $-1 $37 $97 #
truecolor-adesk-attrib $-1 -1 $98 $-1 $38 -1029660512 #
vertex $-1 -1 $-1 $38 $99 #
ellipse-curve $-1 -1 $-1 1034 2.220446049250170297e-15 -50.00000000000029843 -1 2.472486222417190145e-31 5.551115123125779744e-16 2.472486222417190233e-30 10 -6.86252783049007957e-46 1 I I #
coedge $-1 -1 $-1 $64 $64 $39 $65 reversed $51 $-1 #
edge $100 -1 $-1 $67 -3.141592653589793116 $67 3.141592653589793116 $39 $101 forward @7 unknown #
truecolor-adesk-attrib $-1 -1 $102 $-1 $40 -1029660512 #
vertex $-1 -1 $-1 $40 $103 #
straight-curve $-1 -1 $-1 1067.549999999999955 -10 -50.00000000000029843 10 -2.472486222417190233e-30 -5.551115123125779547e-15 F -1.155000000000001137 F -0.1550000000000011369 #
face $104 -1 $-1 $105 $106 $4 $-1 $107 reversed single #
color-adesk-attrib $-1 -1 $108 $42 $26 253 #
point $-1 -1 $-1 1056 -10 -50.00000000000029843 #
DXID-attrib $-1 -1 $-1 $46 $19 @18 ASM_FACE_FROM_STEP @15 Component19-354 #
color-adesk-attrib $-1 -1 $109 $47 $30 253 #
truecolor-adesk-attrib $-1 -1 $110 $-1 $48 -1029660512 #
face $111 -1 $-1 $97 $112 $4 $-1 $113 reversed single #
loop $-1 -1 $-1 $-1 $80 $48 #
cone-surface $-1 -1 $-1 1053 -1.478924914910010184e-28 -50.00000000000029843 -1 2.472486222417190145e-31 5.551115123125779744e-16 -7.850462293418875587e-15 -14.14213562373095101 -14.14213562373095101 1 I I 0 1 20 forward I I I I #
coedge $-1 -1 $-1 $114 $52 $115 $116 reversed $31 $-1 #
coedge $-1 -1 $-1 $52 $114 $117 $118 forward $31 $-1 #
coedge $-1 -1 $-1 $119 $120 $52 $81 reversed $76 $-1 #
edge $121 -1 $-1 $122 -2.356194490192344837 $123 0.785398163397448279 $52 $124 forward @7 unknown #
edge $125 -1 $-1 $95 -3.141592653589793116 $95 3.141592653589793116 $58 $126 forward @7 unknown #
coedge $-1 -1 $-1 $55 $54 $127 $128 forward $20 $-1 #
coedge $-1 -1 $-1 $129 $130 $54 $85 forward $131 $-1 #
edge $132 -1 $-1 $133 0 $92 4 $54 $134 forward @7 unknown #
coedge $-1 -1 $-1 $135 $136 $55 $87 reversed $137 $-1 #
edge $138 -1 $-1 $139 0 $91 4 $55 $140 forward @7 unknown #
coedge $-1 -1 $-1 $141 $56 $136 $142 reversed $49 $-1 #
coedge $-1 -1 $-1 $56 $141 $129 $143 reversed $49 $-1 #
truecolor-adesk-attrib $-1 -1 $144 $-1 $57 -1029660512 #
vertex $-1 -1 $-1 $57 $145 #
vertex $-1 -1 $-1 $57 $146 #
ellipse-curve $-1 -1 $-1 1044 -1.456672538908250067e-28 -50.00000000000029843 1 -2.472486222417190145e-31 -5.551115123125779744e-16 -7.850462293418867698e-15 14.14213562373095101 -14.14213562373095101 1 F -2.356194490192344837 F 0.785398163397448279 #
truecolor-adesk-attrib $-1 -1 $147 $-1 $59 -1029660512 #
vertex $-1 -1 $-1 $59 $148 #
straight-curve $-1 -1 $-1 1067.549999999999955 -10 -50.00000000000029843 10 -2.472486222417190233e-30 -5.551115123125779547e-15 F -3.354999999999989768 F -2.354999999999989768 #
face $149 -1 $-1 $150 $151 $4 $-1 $152 reversed single #
color-adesk-attrib $-1 -1 $153 $61 $38 253 #
point $-1 -1 $-1 1034 -10 -50.00000000000029843 #
truecolor-adesk-attrib $-1 -1 $154 $-1 $65 -1029660512 #
ellipse-curve $-1 -1 $-1 1066 2.220446049250160042e-15 -50.00000000000029843 1 -2.472486222417190145e-31 -5.551115123125779744e-16 2.472486222417190233e-30 10 -6.86252783049007957e-46 1 I I #
color-adesk-attrib $-1 -1 $155 $66 $40 253 #
point $-1 -1 $-1 1066 -10 -50.00000000000029843 #
truecolor-adesk-attrib $-1 -1 $156 $-1 $69 -1029660512 #
face $157 -1 $-1 $158 $159 $4 $-1 $160 reversed single #
loop $-1 -1 $-1 $41 $161 $69 #
plane-surface $-1 -1 $-1 1056 20 -10.0000000000003002 1 -2.472486222417190145e-31 -5.551115123125779744e-16 -2.472486222417190233e-30 -10 6.86252783049007957e-46 forward_v I I I I #
DXID-attrib $-1 -1 $-1 $70 $26 @18 ASM_EDGE_FROM_STEP @3 203 #
DXID-attrib $-1 -1 $-1 $73 $30 @18 ASM_FACE_FROM_STEP @15 Component19-355 #
color-adesk-attrib $-1 -1 $162 $74 $48 253 #
truecolor-adesk-attrib $-1 -1 $163 $-1 $75 -1029660512 #
loop $-1 -1 $-1 $-1 $164 $75 #
plane-surface $-1 -1 $-1 1056 -20 -10.0000000000003002 2.472486222417190145e-31 1 -6.862527830490079765e-47 10 -2.472486222417190233e-30 -5.551115123125779547e-15 forward_v I I I I #
coedge $-1 -1 $-1 $79 $78 $165 $166 forward $31 $-1 #
coedge $-1 -1 $-1 $167 $168 $78 $116 forward $159 $-1 #
edge $169 -1 $-1 $170 0 $123 4 $78 $171 forward @7 unknown #
coedge $-1 -1 $-1 $172 $164 $79 $118 reversed $112 $-1 #
edge $173 -1 $-1 $174 0 $122 4 $79 $175 forward @7 unknown #
coedge $-1 -1 $-1 $176 $80 $164 $177 reversed $76 $-1 #
coedge $-1 -1 $-1 $80 $176 $167 $178 reversed $76 $-1 #
truecolor-adesk-attrib $-1 -1 $179 $-1 $81 -1029660512 #
vertex $-1 -1 $-1 $81 $180 #
vertex $-1 -1 $-1 $81 $181 #
ellipse-curve $-1 -1 $-1 1066 -1.511067235801429955e-28 -50.00000000000029843 1 -2.472486222417190145e-31 -5.551115123125779744e-16 -7.850462293418867698e-15 14.14213562373095101 -14.14213562373095101 1 F -2.356194490192344837 F 0.785398163397448279 #
truecolor-adesk-attrib $-1 -1 $182 $-1 $82 -1029660512 #
ellipse-curve $-1 -1 $-1 1044 2.220446049250170297e-15 -50.00000000000029843 1 -2.472486222417190145e-31 -5.551115123125779744e-16 2.472486222417190233e-30 10 -6.86252783049007957e-46 1 I I #
coedge $-1 -1 $-1 $183 $184 $83 $128 reversed $185 $-1 #
edge $186 -1 $-1 $133 -2.999999999999999112 $139 1.000000000000000888 $83 $187 forward @7 unknown #
coedge $-1 -1 $-1 $188 $84 $89 $143 forward $131 $-1 #
coedge $-1 -1 $-1 $84 $188 $183 $189 forward $131 $-1 #
loop $-1 -1 $-1 $-1 $129 $150 #
truecolor-adesk-attrib $-1 -1 $190 $-1 $85 -1029660512 #
vertex $-1 -1 $-1 $85 $191 #
straight-curve $-1 -1 $-1 1044 20 -10.0000000000003002 -5.551115123125779547e-15 6.86252783049007957e-46 -10 F 0 F 4 #
coedge $-1 -1 $-1 $192 $86 $184 $193 forward $137 $-1 #
coedge $-1 -1 $-1 $86 $192 $88 $142 forward $137 $-1 #
loop $-1 -1 $-1 $-1 $136 $194 #
truecolor-adesk-attrib $-1 -1 $195 $-1 $87 -1029660512 #
vertex $-1 -1 $-1 $128 $196 #
straight-curve $-1 -1 $-1 1044 -20 -10.0000000000003002 -5.551115123125779547e-15 6.86252783049007957e-46 -10 F 0 F 4 #
coedge $-1 -1 $-1 $89 $88 $197 $198 reversed $49 $-1 #
edge $199 -1 $-1 $200 -0.7999999999999971578 $91 0.2000000000000028422 $88 $201 forward @14 tangent_not_g2 #
edge $202 -1 $-1 $92 0.2999999999999971578 $203 1.299999999999997158 $89 $204 forward @14 tangent_not_g2 #
color-adesk-attrib $-1 -1 $205 $90 $57 253 #
point $-1 -1 $-1 1044 -20 -50.00000000000029843 #
point $-1 -1 $-1 1044 20 -50.00000000000029843 #
color-adesk-attrib $-1 -1 $206 $94 $59 253 #
point $-1 -1 $-1 1044 -10 -50.00000000000029843 #
truecolor-adesk-attrib $-1 -1 $207 $-1 $97 -1029660512 #
face $208 -1 $-1 $194 $131 $4 $-1 $209 reversed single #
loop $-1 -1 $-1 $60 $197 $97 #
plane-surface $-1 -1 $-1 1034 20 -10.0000000000003002 1 -2.472486222417190145e-31 -5.551115123125779744e-16 -2.472486222417190233e-30 -10 6.86252783049007957e-46 forward_v I I I I #
DXID-attrib $-1 -1 $-1 $98 $38 @18 ASM_EDGE_FROM_STEP @3 206 #
color-adesk-attrib $-1 -1 $210 $100 $65 253 #
DXID-attrib $-1 -1 $-1 $102 $40 @18 ASM_EDGE_FROM_STEP @3 204 #
color-adesk-attrib $-1 -1 $211 $104 $69 253 #
truecolor-adesk-attrib $-1 -1 $212 $-1 $105 -1029660512 #
face $213 -1 $-1 $214 $215 $4 $-1 $216 reversed single #
loop $-1 -1 $-1 $-1 $167 $105 #
plane-surface $-1 -1 $-1 1066 20 -10.0000000000003002 -2.472486222417190145e-31 -1 6.862527830490079765e-47 -10 2.472486222417190233e-30 5.551115123125779547e-15 forward_v I I I I #
coedge $-1 -1 $-1 $217 $218 $176 $219 forward $106 $-1 #
DXID-attrib $-1 -1 $-1 $110 $48 @18 ASM_FACE_FROM_STEP @15 Component19-356 #
color-adesk-attrib $-1 -1 $220 $111 $75 253 #
coedge $-1 -1 $-1 $117 $221 $119 $177 forward $112 $-1 #
coedge $-1 -1 $-1 $222 $223 $114 $166 reversed $224 $-1 #
edge $225 -1 $-1 $170 -3 $174 1 $114 $226 forward @7 unknown #
coedge $-1 -1 $-1 $227 $115 $120 $178 forward $159 $-1 #
coedge $-1 -1 $-1 $115 $227 $222 $228 forward $159 $-1 #
truecolor-adesk-attrib $-1 -1 $229 $-1 $116 -1029660512 #
vertex $-1 -1 $-1 $116 $230 #
straight-curve $-1 -1 $-1 1066 20 -10.0000000000003002 -5.551115123125779547e-15 6.86252783049007957e-46 -10 F 0 F 4 #
coedge $-1 -1 $-1 $221 $117 $223 $231 forward $112 $-1 #
truecolor-adesk-attrib $-1 -1 $232 $-1 $118 -1029660512 #
vertex $-1 -1 $-1 $166 $233 #
straight-curve $-1 -1 $-1 1066 -20 -10.0000000000003002 -5.551115123125779547e-15 6.86252783049007957e-46 -10 F 0 F 4 #
coedge $-1 -1 $-1 $120 $119 $161 $219 reversed $76 $-1 #
edge $234 -1 $-1 $235 0.2999999999999971578 $122 1.299999999999997158 $119 $236 forward @14 tangent_not_g2 #
edge $237 -1 $-1 $123 -0.7999999999999971578 $238 0.2000000000000028422 $120 $239 forward @14 tangent_not_g2 #
color-adesk-attrib $-1 -1 $240 $121 $81 253 #
point $-1 -1 $-1 1066 -20 -50.00000000000029843 #
point $-1 -1 $-1 1066 20 -50.00000000000029843 #
color-adesk-attrib $-1 -1 $241 $125 $82 253 #
coedge $-1 -1 $-1 $242 $127 $130 $189 reversed $185 $-1 #
coedge $-1 -1 $-1 $127 $242 $135 $193 reversed $185 $-1 #
loop $-1 -1 $-1 $224 $242 $243 #
truecolor-adesk-attrib $-1 -1 $244 $-1 $128 -1029660512 #
straight-curve $-1 -1 $-1 1044 -9.999999999999989342 -10.0000000000003002 -2.472486222417190233e-30 -10 6.86252783049007957e-46 F -2.999999999999999112 F 1.000000000000000888 #
coedge $-1 -1 $-1 $130 $129 $245 $246 reversed $131 $-1 #
edge $247 -1 $-1 $248 -1.299999999999997158 $133 -0.2999999999999971578 $130 $249 forward @7 unknown #
color-adesk-attrib $-1 -1 $250 $132 $85 253 #
point $-1 -1 $-1 1044 20 -10.0000000000003002 #
coedge $-1 -1 $-1 $136 $135 $251 $252 forward $137 $-1 #
edge $253 -1 $-1 $139 -0.2000000000000028422 $254 0.7999999999999971578 $135 $255 forward @7 unknown #
face $256 -1 $-1 $69 $137 $4 $-1 $257 reversed single #
color-adesk-attrib $-1 -1 $258 $138 $87 253 #
point $-1 -1 $-1 1044 -20 -10.0000000000003002 #
coedge $-1 -1 $-1 $251 $245 $141 $198 forward $151 $-1 #
edge $259 -1 $-1 $203 -2.356194490192344837 $200 0.785398163397448279 $141 $260 forward @7 unknown #
truecolor-adesk-attrib $-1 -1 $261 $-1 $142 -1029660512 #
vertex $-1 -1 $-1 $142 $262 #
straight-curve $-1 -1 $-1 1042 -20 -50.00000000000029843 10 -2.472486222417190233e-30 -5.551115123125779547e-15 F -0.7999999999999971578 F 0.2000000000000028422 #
truecolor-adesk-attrib $-1 -1 $263 $-1 $143 -1029660512 #
vertex $-1 -1 $-1 $198 $264 #
straight-curve $-1 -1 $-1 1047 20 -50.00000000000029843 -10 2.472486222417190233e-30 5.551115123125779547e-15 F 0.2999999999999971578 F 1.299999999999997158 #
DXID-attrib $-1 -1 $-1 $144 $57 @18 ASM_EDGE_FROM_STEP @3 209 #
DXID-attrib $-1 -1 $-1 $147 $59 @18 ASM_EDGE_FROM_STEP @3 207 #
color-adesk-attrib $-1 -1 $265 $149 $97 253 #
truecolor-adesk-attrib $-1 -1 $266 $-1 $150 -1029660512 #
plane-surface $-1 -1 $-1 1044 20 -10.0000000000003002 -2.472486222417190145e-31 -1 6.862527830490079765e-47 -10 2.472486222417190233e-30 5.551115123125779547e-15 forward_v I I I I #
DXID-attrib $-1 -1 $-1 $154 $65 @18 ASM_EDGE_FROM_STEP @3 205 #
DXID-attrib $-1 -1 $-1 $156 $69 @18 ASM_FACE_FROM_STEP @15 Component19-361 #
color-adesk-attrib $-1 -1 $267 $157 $105 253 #
truecolor-adesk-attrib $-1 -1 $268 $-1 $158 -1029660512 #
face $269 -1 $-1 $270 $271 $4 $-1 $272 reversed single #
loop $-1 -1 $-1 $-1 $273 $158 #
plane-surface $-1 -1 $-1 1095 25.9807621135331992 -3.513855872938619946e-13 -0.499999999999999889 -0.8660254037844388186 2.775557561562889379e-16 -8.660254037844389075 4.999999999999999112 4.8074067159589089e-15 forward_v I I I I #
coedge $-1 -1 $-1 $274 $161 $221 $275 reversed $106 $-1 #
coedge $-1 -1 $-1 $161 $274 $227 $276 forward $106 $-1 #
edge $277 -1 $-1 $238 -2.356194490192344837 $235 0.785398163397448279 $176 $278 forward @7 unknown #
DXID-attrib $-1 -1 $-1 $163 $75 @18 ASM_FACE_FROM_STEP @15 Component19-357 #
coedge $-1 -1 $-1 $164 $172 $217 $275 forward $112 $-1 #
coedge $-1 -1 $-1 $279 $165 $168 $228 reversed $224 $-1 #
coedge $-1 -1 $-1 $165 $279 $172 $231 reversed $224 $-1 #
loop $-1 -1 $-1 $-1 $223 $243 #
truecolor-adesk-attrib $-1 -1 $280 $-1 $166 -1029660512 #
straight-curve $-1 -1 $-1 1066 -10 -10.0000000000003002 -2.472486222417190233e-30 -10 6.86252783049007957e-46 F -3 F 1 #
coedge $-1 -1 $-1 $168 $167 $218 $276 reversed $159 $-1 #
edge $281 -1 $-1 $282 -0.2000000000000028422 $170 0.7999999999999971578 $168 $283 forward @7 unknown #
color-adesk-attrib $-1 -1 $284 $169 $116 253 #
point $-1 -1 $-1 1066 20 -10.0000000000003002 #
edge $285 -1 $-1 $174 -1.299999999999997158 $286 -0.2999999999999971578 $172 $287 forward @7 unknown #
color-adesk-attrib $-1 -1 $288 $173 $118 253 #
point $-1 -1 $-1 1066 -20 -10.0000000000003002 #
truecolor-adesk-attrib $-1 -1 $289 $-1 $177 -1029660512 #
vertex $-1 -1 $-1 $177 $290 #
straight-curve $-1 -1 $-1 1053 -20 -50.00000000000029843 10 -2.472486222417190233e-30 -5.551115123125779547e-15 F 0.2999999999999971578 F 1.299999999999997158 #
truecolor-adesk-attrib $-1 -1 $291 $-1 $178 -1029660512 #
vertex $-1 -1 $-1 $219 $292 #
straight-curve $-1 -1 $-1 1058 20 -50.00000000000029843 -10 2.472486222417190233e-30 5.551115123125779547e-15 F -0.7999999999999971578 F 0.2000000000000028422 #
DXID-attrib $-1 -1 $-1 $179 $81 @18 ASM_EDGE_FROM_STEP @3 213 #
DXID-attrib $-1 -1 $-1 $182 $82 @18 ASM_EDGE_FROM_STEP @3 208 #
coedge $-1 -1 $-1 $184 $183 $293 $294 reversed $185 $-1 #
face $295 -1 $-1 $296 $297 $4 $-1 $298 reversed single #
color-adesk-attrib $-1 -1 $299 $186 $128 253 #
coedge $-1 -1 $-1 $197 $293 $188 $246 forward $151 $-1 #
edge $300 -1 $-1 $248 0 $203 4 $245 $301 forward @7 unknown #
truecolor-adesk-attrib $-1 -1 $302 $-1 $189 -1029660512 #
vertex $-1 -1 $-1 $294 $303 #
straight-curve $-1 -1 $-1 1047 20 -10.0000000000003002 10 -2.472486222417190233e-30 -5.551115123125779547e-15 F -1.299999999999997158 F -0.2999999999999971578 #
DXID-attrib $-1 -1 $-1 $190 $85 @18 ASM_EDGE_FROM_STEP @3 210 #
coedge $-1 -1 $-1 $293 $197 $192 $252 reversed $151 $-1 #
edge $304 -1 $-1 $254 0 $200 4 $251 $305 forward @7 unknown #
truecolor-adesk-attrib $-1 -1 $306 $-1 $193 -1029660512 #
vertex $-1 -1 $-1 $252 $307 #
straight-curve $-1 -1 $-1 1042 -20 -10.0000000000003002 -10 2.472486222417190233e-30 5.551115123125779547e-15 F -0.2000000000000028422 F 0.7999999999999971578 #
truecolor-adesk-attrib $-1 -1 $308 $-1 $194 -1029660512 #
plane-surface $-1 -1 $-1 1034 -20 -10.0000000000003002 2.472486222417190145e-31 1 -6.862527830490079765e-47 10 -2.472486222417190233e-30 -5.551115123125779547e-15 forward_v I I I I #
DXID-attrib $-1 -1 $-1 $195 $87 @18 ASM_EDGE_FROM_STEP @3 212 #
truecolor-adesk-attrib $-1 -1 $309 $-1 $198 -1029660512 #
ellipse-curve $-1 -1 $-1 1034 2.220446049250170297e-15 -50.00000000000029843 -1 2.472486222417190145e-31 5.551115123125779744e-16 -7.850462293418875587e-15 -14.14213562373095101 -14.14213562373095101 1 F -2.356194490192344837 F 0.785398163397448279 #
color-adesk-attrib $-1 -1 $310 $199 $142 253 #
point $-1 -1 $-1 1034 -20 -50.00000000000029843 #
color-adesk-attrib $-1 -1 $311 $202 $143 253 #
point $-1 -1 $-1 1034 20 -50.00000000000029843 #
DXID-attrib $-1 -1 $-1 $207 $97 @18 ASM_FACE_FROM_STEP @15 Component19-358 #
color-adesk-attrib $-1 -1 $312 $208 $150 253 #
DXID-attrib $-1 -1 $-1 $212 $105 @18 ASM_FACE_FROM_STEP @15 Component19-362 #
color-adesk-attrib $-1 -1 $313 $213 $158 253 #
truecolor-adesk-attrib $-1 -1 $314 $-1 $214 -1029660512 #
face $315 -1 $-1 $316 $317 $4 $-1 $318 reversed single #
loop $-1 -1 $-1 $-1 $319 $214 #
plane-surface $-1 -1 $-1 1095 -25.98076211353309617 -3.513855872938619946e-13 -1 -5.127900497022839802e-16 5.551115123125779744e-16 -5.127900497022839999e-15 10 2.846556599890770215e-30 forward_v I I I I #
coedge $-1 -1 $-1 $320 $321 $322 $323 forward $215 $-1 #
coedge $-1 -1 $-1 $218 $217 $279 $324 forward $106 $-1 #
edge $325 -1 $-1 $286 0 $235 4 $221 $326 forward @7 unknown #
edge $327 -1 $-1 $282 0 $238 4 $218 $328 forward @7 unknown #
truecolor-adesk-attrib $-1 -1 $329 $-1 $219 -1029660512 #
ellipse-curve $-1 -1 $-1 1056 -1.486342373577260193e-28 -50.00000000000029843 -1 2.472486222417190145e-31 5.551115123125779744e-16 -7.850462293418875587e-15 -14.14213562373095101 -14.14213562373095101 1 F -2.356194490192344837 F 0.785398163397448279 #
coedge $-1 -1 $-1 $223 $222 $274 $324 reversed $224 $-1 #
color-adesk-attrib $-1 -1 $330 $225 $166 253 #
truecolor-adesk-attrib $-1 -1 $331 $-1 $228 -1029660512 #
vertex $-1 -1 $-1 $324 $332 #
straight-curve $-1 -1 $-1 1058 20 -10.0000000000003002 10 -2.472486222417190233e-30 -5.551115123125779547e-15 F -0.2000000000000028422 F 0.7999999999999971578 #
DXID-attrib $-1 -1 $-1 $229 $116 @18 ASM_EDGE_FROM_STEP @3 214 #
truecolor-adesk-attrib $-1 -1 $333 $-1 $231 -1029660512 #
vertex $-1 -1 $-1 $231 $334 #
straight-curve $-1 -1 $-1 1053 -20 -10.0000000000003002 -10 2.472486222417190233e-30 5.551115123125779547e-15 F -1.299999999999997158 F -0.2999999999999971578 #
DXID-attrib $-1 -1 $-1 $232 $118 @18 ASM_EDGE_FROM_STEP @3 216 #
color-adesk-attrib $-1 -1 $335 $234 $177 253 #
point $-1 -1 $-1 1056 -20 -50.00000000000029843 #
color-adesk-attrib $-1 -1 $336 $237 $178 253 #
point $-1 -1 $-1 1056 20 -50.00000000000029843 #
coedge $-1 -1 $-1 $245 $251 $242 $294 forward $151 $-1 #
edge $337 -1 $-1 $254 -3 $248 1 $293 $338 forward @7 unknown #
truecolor-adesk-attrib $-1 -1 $339 $-1 $243 -1029660512 #
face $340 -1 $-1 $-1 $341 $4 $-1 $342 forward single #
loop $-1 -1 $-1 $185 $343 $243 #
plane-surface $-1 -1 $-1 1050 8.881784197001110328e-15 -10.0000000000003002 5.551115123125779744e-16 -6.862527830490079765e-47 1 10 -2.472486222417190233e-30 -5.551115123125779547e-15 forward_v I I I I #
DXID-attrib $-1 -1 $-1 $244 $128 @18 ASM_EDGE_FROM_STEP @3 211 #
truecolor-adesk-attrib $-1 -1 $344 $-1 $246 -1029660512 #
straight-curve $-1 -1 $-1 1034 20 -10.0000000000003002 -5.551115123125779547e-15 6.86252783049007957e-46 -10 F 0 F 4 #
color-adesk-attrib $-1 -1 $345 $247 $189 253 #
point $-1 -1 $-1 1034 20 -10.0000000000003002 #
truecolor-adesk-attrib $-1 -1 $346 $-1 $252 -1029660512 #
straight-curve $-1 -1 $-1 1034 -20 -10.0000000000003002 -5.551115123125779547e-15 6.86252783049007957e-46 -10 F 0 F 4 #
color-adesk-attrib $-1 -1 $347 $253 $193 253 #
point $-1 -1 $-1 1034 -20 -10.0000000000003002 #
color-adesk-attrib $-1 -1 $348 $256 $194 253 #
color-adesk-attrib $-1 -1 $349 $259 $198 253 #
DXID-attrib $-1 -1 $-1 $261 $142 @18 ASM_EDGE_FROM_STEP @3 217 #
DXID-attrib $-1 -1 $-1 $263 $143 @18 ASM_EDGE_FROM_STEP @3 219 #
DXID-attrib $-1 -1 $-1 $266 $150 @18 ASM_FACE_FROM_STEP @15 Component19-359 #
DXID-attrib $-1 -1 $-1 $268 $158 @18 ASM_FACE_FROM_STEP @15 Component19-363 #
color-adesk-attrib $-1 -1 $350 $269 $214 253 #
truecolor-adesk-attrib $-1 -1 $351 $-1 $270 -1029660512 #
face $352 -1 $-1 $353 $354 $4 $-1 $355 reversed single #
loop $-1 -1 $-1 $-1 $356 $270 #
plane-surface $-1 -1 $-1 1050 -51.96152422706630603 -3.264055692397960229e-13 -0.5000000000000003331 0.8660254037844384856 2.775557561562891351e-16 8.660254037844385522 5.000000000000003553 -4.807406715958902589e-15 forward_v I I I I #
coedge $-1 -1 $-1 $357 $358 $359 $360 forward $271 $-1 #
coedge $-1 -1 $-1 $361 $273 $358 $362 forward $215 $-1 #
coedge $-1 -1 $-1 $273 $361 $363 $364 reversed $215 $-1 #
coedge $-1 -1 $-1 $365 $359 $273 $323 reversed $341 $-1 #
edge $366 -1 $-1 $367 0 $368 5.196152422706629359 $273 $369 forward @7 unknown #
edge $370 -1 $-1 $286 -3 $282 1 $274 $371 forward @7 unknown #
truecolor-adesk-attrib $-1 -1 $372 $-1 $275 -1029660512 #
straight-curve $-1 -1 $-1 1056 -20 -10.0000000000003002 -5.551115123125779547e-15 6.86252783049007957e-46 -10 F 0 F 4 #
truecolor-adesk-attrib $-1 -1 $373 $-1 $276 -1029660512 #
straight-curve $-1 -1 $-1 1056 20 -10.0000000000003002 -5.551115123125779547e-15 6.86252783049007957e-46 -10 F 0 F 4 #
color-adesk-attrib $-1 -1 $374 $277 $219 253 #
DXID-attrib $-1 -1 $-1 $280 $166 @18 ASM_EDGE_FROM_STEP @3 215 #
color-adesk-attrib $-1 -1 $375 $281 $228 253 #
point $-1 -1 $-1 1056 20 -10.0000000000003002 #
color-adesk-attrib $-1 -1 $376 $285 $231 253 #
point $-1 -1 $-1 1056 -20 -10.0000000000003002 #
DXID-attrib $-1 -1 $-1 $289 $177 @18 ASM_EDGE_FROM_STEP @3 220 #
DXID-attrib $-1 -1 $-1 $291 $178 @18 ASM_EDGE_FROM_STEP @3 222 #
truecolor-adesk-attrib $-1 -1 $377 $-1 $294 -1029660512 #
straight-curve $-1 -1 $-1 1034 10 -10.0000000000003002 2.472486222417190233e-30 10 -6.86252783049007957e-46 F -3 F 1 #
color-adesk-attrib $-1 -1 $378 $295 $243 253 #
truecolor-adesk-attrib $-1 -1 $379 $-1 $296 -1029660512 #
loop $-1 -1 $-1 $-1 $365 $296 #
plane-surface $-1 -1 $-1 1050 8.881784197001110328e-15 -3.264055692397960229e-13 5.551115123125779744e-16 -6.862527830490079765e-47 1 -10 2.472486222417190233e-30 5.551115123125779547e-15 forward_v I I I I #
coedge $-1 -1 $-1 $380 $381 $382 $383 reversed $297 $-1 #
color-adesk-attrib $-1 -1 $384 $300 $246 253 #
DXID-attrib $-1 -1 $-1 $302 $189 @18 ASM_EDGE_FROM_STEP @3 228 #
color-adesk-attrib $-1 -1 $385 $304 $252 253 #
DXID-attrib $-1 -1 $-1 $306 $193 @18 ASM_EDGE_FROM_STEP @3 229 #
DXID-attrib $-1 -1 $-1 $308 $194 @18 ASM_FACE_FROM_STEP @15 Component19-360 #
DXID-attrib $-1 -1 $-1 $309 $198 @18 ASM_EDGE_FROM_STEP @3 218 #
DXID-attrib $-1 -1 $-1 $314 $214 @18 ASM_FACE_FROM_STEP @15 Component19-364 #
color-adesk-attrib $-1 -1 $386 $315 $270 253 #
truecolor-adesk-attrib $-1 -1 $387 $-1 $316 -1029660512 #
face $388 -1 $-1 $389 $390 $4 $-1 $391 reversed single #
loop $-1 -1 $-1 $-1 $392 $316 #
plane-surface $-1 -1 $-1 1005 -25.9807621135331992 -3.014255511857300007e-13 0.4999999999999991118 0.8660254037844392627 -2.775557561562890365e-16 8.660254037844392627 -4.999999999999991118 -4.807406715958911267e-15 forward_v I I I I #
coedge $-1 -1 $-1 $393 $394 $395 $396 forward $317 $-1 #
coedge $-1 -1 $-1 $397 $319 $394 $398 forward $271 $-1 #
coedge $-1 -1 $-1 $319 $397 $320 $362 reversed $271 $-1 #
coedge $-1 -1 $-1 $322 $395 $319 $360 reversed $341 $-1 #
edge $399 -1 $-1 $368 0 $400 5.196152422706630247 $319 $401 forward @7 unknown #
coedge $-1 -1 $-1 $321 $320 $380 $402 forward $215 $-1 #
edge $403 -1 $-1 $368 0 $404 1.000000000000004885 $320 $405 forward @7 unknown #
coedge $-1 -1 $-1 $382 $406 $321 $364 forward $407 $-1 #
edge $408 -1 $-1 $367 0 $409 0.9999999999999973355 $321 $410 forward @7 unknown #
coedge $-1 -1 $-1 $411 $322 $406 $412 reversed $341 $-1 #
truecolor-adesk-attrib $-1 -1 $413 $-1 $323 -1029660512 #
vertex $-1 -1 $-1 $323 $414 #
vertex $-1 -1 $-1 $323 $415 #
straight-curve $-1 -1 $-1 1050 51.96152422706630603 -3.264055692397960229e-13 8.660254037844390851 -5 -4.807406715958909689e-15 F 0 F 5.196152422706629359 #
truecolor-adesk-attrib $-1 -1 $416 $-1 $324 -1029660512 #
straight-curve $-1 -1 $-1 1056 10 -10.0000000000003002 2.472486222417190233e-30 10 -6.86252783049007957e-46 F -3 F 1 #
color-adesk-attrib $-1 -1 $417 $325 $275 253 #
color-adesk-attrib $-1 -1 $418 $327 $276 253 #
DXID-attrib $-1 -1 $-1 $329 $219 @18 ASM_EDGE_FROM_STEP @3 221 #
DXID-attrib $-1 -1 $-1 $331 $228 @18 ASM_EDGE_FROM_STEP @3 232 #
DXID-attrib $-1 -1 $-1 $333 $231 @18 ASM_EDGE_FROM_STEP @3 223 #
color-adesk-attrib $-1 -1 $419 $337 $294 253 #
DXID-attrib $-1 -1 $-1 $339 $243 @18 ASM_FACE_FROM_STEP @15 Component19-369 #
color-adesk-attrib $-1 -1 $420 $340 $296 253 #
coedge $-1 -1 $-1 $421 $343 $361 $402 reversed $297 $-1 #
coedge $-1 -1 $-1 $343 $422 $423 $424 reversed $297 $-1 #
coedge $-1 -1 $-1 $425 $363 $343 $383 forward $407 $-1 #
edge $426 -1 $-1 $409 -5.196152422706632024 $427 0 $382 $428 forward @7 unknown #
DXID-attrib $-1 -1 $-1 $344 $246 @18 ASM_EDGE_FROM_STEP @3 227 #
DXID-attrib $-1 -1 $-1 $346 $252 @18 ASM_EDGE_FROM_STEP @3 225 #
DXID-attrib $-1 -1 $-1 $351 $270 @18 ASM_FACE_FROM_STEP @15 Component19-365 #
color-adesk-attrib $-1 -1 $429 $352 $316 253 #
truecolor-adesk-attrib $-1 -1 $430 $-1 $353 -1029660512 #
face $431 -1 $-1 $243 $407 $4 $-1 $432 reversed single #
loop $-1 -1 $-1 $-1 $433 $353 #
plane-surface $-1 -1 $-1 1005 25.9807621135331992 -3.014255511857300007e-13 1 3.418600331348549843e-16 -5.551115123125779744e-16 3.418600331348549744e-15 -10 -1.897704399927169984e-30 forward_v I I I I #
coedge $-1 -1 $-1 $434 $435 $436 $437 forward $354 $-1 #
coedge $-1 -1 $-1 $438 $356 $435 $439 forward $317 $-1 #
coedge $-1 -1 $-1 $356 $438 $357 $398 reversed $317 $-1 #
coedge $-1 -1 $-1 $359 $436 $356 $396 reversed $341 $-1 #
edge $440 -1 $-1 $400 0 $441 5.196152422706636465 $356 $442 forward @7 unknown #
coedge $-1 -1 $-1 $358 $357 $421 $443 forward $271 $-1 #
edge $444 -1 $-1 $400 0 $445 1.000000000000004885 $357 $446 forward @7 unknown #
truecolor-adesk-attrib $-1 -1 $447 $-1 $360 -1029660512 #
vertex $-1 -1 $-1 $360 $448 #
straight-curve $-1 -1 $-1 1095 25.9807621135331992 -3.513855872938619946e-13 5.127900497022839999e-15 -10 -2.846556599890770215e-30 F 0 F 5.196152422706630247 #
edge $449 -1 $-1 $404 -5.196152422706629359 $409 0 $361 $450 forward @7 unknown #
truecolor-adesk-attrib $-1 -1 $451 $-1 $362 -1029660512 #
vertex $-1 -1 $-1 $362 $452 #
straight-curve $-1 -1 $-1 1095 25.9807621135331992 -3.513855872938619946e-13 -5.551115123125779547e-15 6.86252783049007957e-46 -10 F 0 F 1.000000000000004885 #
coedge $-1 -1 $-1 $363 $425 $365 $412 forward $407 $-1 #
loop $-1 -1 $-1 $-1 $406 $389 #
truecolor-adesk-attrib $-1 -1 $453 $-1 $364 -1029660512 #
vertex $-1 -1 $-1 $402 $454 #
straight-curve $-1 -1 $-1 1050 51.96152422706630603 -3.264055692397960229e-13 -5.551115123125779547e-15 6.86252783049007957e-46 -10 F 0 F 0.9999999999999973355 #
coedge $-1 -1 $-1 $436 $365 $433 $455 reversed $341 $-1 #
edge $456 -1 $-1 $457 0 $367 5.196152422706632024 $406 $458 forward @7 unknown #
color-adesk-attrib $-1 -1 $459 $366 $323 253 #
point $-1 -1 $-1 1050 51.96152422706630603 -3.264055692397960229e-13 #
point $-1 -1 $-1 1095 25.9807621135331992 -3.513855872938619946e-13 #
color-adesk-attrib $-1 -1 $460 $370 $324 253 #
DXID-attrib $-1 -1 $-1 $372 $275 @18 ASM_EDGE_FROM_STEP @3 224 #
DXID-attrib $-1 -1 $-1 $373 $276 @18 ASM_EDGE_FROM_STEP @3 231 #
DXID-attrib $-1 -1 $-1 $377 $294 @18 ASM_EDGE_FROM_STEP @3 226 #
DXID-attrib $-1 -1 $-1 $379 $296 @18 ASM_FACE_FROM_STEP @15 Component19-370 #
coedge $-1 -1 $-1 $461 $380 $397 $443 reversed $297 $-1 #
coedge $-1 -1 $-1 $381 $461 $462 $463 reversed $297 $-1 #
coedge $-1 -1 $-1 $464 $465 $381 $424 forward $390 $-1 #
edge $466 -1 $-1 $427 -5.196152422706640017 $467 0 $423 $468 forward @7 unknown #
coedge $-1 -1 $-1 $406 $382 $465 $469 reversed $407 $-1 #
truecolor-adesk-attrib $-1 -1 $470 $-1 $383 -1029660512 #
vertex $-1 -1 $-1 $469 $471 #
straight-curve $-1 -1 $-1 1005 25.9807621135331992 -10.0000000000003002 -8.660254037844380193 -4.999999999999999112 4.807406715958900223e-15 F -5.196152422706632024 F 0 #
DXID-attrib $-1 -1 $-1 $387 $316 @18 ASM_FACE_FROM_STEP @15 Component19-366 #
color-adesk-attrib $-1 -1 $472 $388 $353 253 #
truecolor-adesk-attrib $-1 -1 $473 $-1 $389 -1029660512 #
plane-surface $-1 -1 $-1 1050 51.96152422706630603 -3.264055692397960229e-13 0.5000000000000003331 -0.8660254037844384856 -2.775557561562891351e-16 -8.660254037844385522 -5.000000000000003553 4.807406715958902589e-15 forward_v I I I I #
coedge $-1 -1 $-1 $465 $464 $411 $455 forward $390 $-1 #
coedge $-1 -1 $-1 $462 $392 $464 $474 forward $354 $-1 #
coedge $-1 -1 $-1 $392 $462 $393 $439 reversed $354 $-1 #
coedge $-1 -1 $-1 $395 $411 $392 $437 reversed $341 $-1 #
edge $475 -1 $-1 $441 0 $476 5.196152422706630247 $392 $477 forward @7 unknown #
coedge $-1 -1 $-1 $394 $393 $461 $478 forward $317 $-1 #
edge $479 -1 $-1 $441 0 $480 0.9999999999999973355 $393 $481 forward @7 unknown #
truecolor-adesk-attrib $-1 -1 $482 $-1 $396 -1029660512 #
vertex $-1 -1 $-1 $396 $483 #
straight-curve $-1 -1 $-1 1095 -25.98076211353309617 -3.513855872938619946e-13 -8.660254037844380193 -4.999999999999999112 4.807406715958910478e-15 F 0 F 5.196152422706636465 #
edge $484 -1 $-1 $445 -5.196152422706630247 $404 0 $397 $485 forward @7 unknown #
truecolor-adesk-attrib $-1 -1 $486 $-1 $398 -1029660512 #
vertex $-1 -1 $-1 $398 $487 #
straight-curve $-1 -1 $-1 1095 -25.98076211353309617 -3.513855872938619946e-13 -5.551115123125779547e-15 6.86252783049007957e-46 -10 F 0 F 1.000000000000004885 #
color-adesk-attrib $-1 -1 $488 $399 $360 253 #
point $-1 -1 $-1 1095 -25.98076211353309617 -3.513855872938619946e-13 #
truecolor-adesk-attrib $-1 -1 $489 $-1 $402 -1029660512 #
straight-curve $-1 -1 $-1 1050 51.96152422706630603 -10.0000000000003002 -8.660254037844390851 5 4.807406715958909689e-15 F -5.196152422706629359 F 0 #
color-adesk-attrib $-1 -1 $490 $403 $362 253 #
point $-1 -1 $-1 1095 25.9807621135331992 -10.00000000000039968 #
color-adesk-attrib $-1 -1 $491 $408 $364 253 #
point $-1 -1 $-1 1050 51.96152422706630603 -10.0000000000003002 #
edge $492 -1 $-1 $476 0 $457 5.196152422706640017 $433 $493 forward @7 unknown #
truecolor-adesk-attrib $-1 -1 $494 $-1 $412 -1029660512 #
vertex $-1 -1 $-1 $455 $495 #
straight-curve $-1 -1 $-1 1005 25.9807621135331992 -3.014255511857300007e-13 8.660254037844380193 4.999999999999999112 -4.807406715958900223e-15 F 0 F 5.196152422706632024 #
DXID-attrib $-1 -1 $-1 $413 $323 @18 ASM_EDGE_FROM_STEP @3 233 #
DXID-attrib $-1 -1 $-1 $416 $324 @18 ASM_EDGE_FROM_STEP @3 230 #
coedge $-1 -1 $-1 $422 $421 $438 $478 reversed $297 $-1 #
coedge $-1 -1 $-1 $435 $434 $422 $463 forward $354 $-1 #
edge $496 -1 $-1 $467 -5.196152422706630247 $480 0 $462 $497 forward @7 unknown #
coedge $-1 -1 $-1 $433 $423 $434 $474 reversed $390 $-1 #
coedge $-1 -1 $-1 $423 $433 $425 $469 forward $390 $-1 #
truecolor-adesk-attrib $-1 -1 $498 $-1 $424 -1029660512 #
vertex $-1 -1 $-1 $474 $499 #
straight-curve $-1 -1 $-1 1005 -25.9807621135331992 -10.0000000000003002 3.418600331348549744e-15 -10 -1.897704399927169984e-30 F -5.196152422706640017 F 0 #
edge $500 -1 $-1 $457 0 $427 0.999999999999999778 $465 $501 forward @7 unknown #
color-adesk-attrib $-1 -1 $502 $426 $383 253 #
point $-1 -1 $-1 1005 25.9807621135331992 -10.0000000000003002 #
DXID-attrib $-1 -1 $-1 $430 $353 @18 ASM_FACE_FROM_STEP @15 Component19-367 #
color-adesk-attrib $-1 -1 $503 $431 $389 253 #
edge $504 -1 $-1 $476 0 $467 0.999999999999999778 $434 $505 forward @7 unknown #
truecolor-adesk-attrib $-1 -1 $506 $-1 $437 -1029660512 #
vertex $-1 -1 $-1 $437 $507 #
straight-curve $-1 -1 $-1 1050 -51.96152422706630603 -3.264055692397960229e-13 -8.660254037844390851 4.99999999999999023 4.807406715958910478e-15 F 0 F 5.196152422706630247 #
edge $508 -1 $-1 $480 -5.196152422706636465 $445 0 $438 $509 forward @7 unknown #
truecolor-adesk-attrib $-1 -1 $510 $-1 $439 -1029660512 #
vertex $-1 -1 $-1 $439 $511 #
straight-curve $-1 -1 $-1 1050 -51.96152422706630603 -3.264055692397960229e-13 -5.551115123125779547e-15 6.86252783049007957e-46 -10 F 0 F 0.9999999999999973355 #
color-adesk-attrib $-1 -1 $512 $440 $396 253 #
point $-1 -1 $-1 1050 -51.96152422706630603 -3.264055692397960229e-13 #
truecolor-adesk-attrib $-1 -1 $513 $-1 $443 -1029660512 #
straight-curve $-1 -1 $-1 1095 25.9807621135331992 -10.00000000000039968 -5.127900497022839999e-15 10 2.846556599890770215e-30 F -5.196152422706630247 F 0 #
color-adesk-attrib $-1 -1 $514 $444 $398 253 #
point $-1 -1 $-1 1095 -25.98076211353309617 -10.00000000000039968 #
DXID-attrib $-1 -1 $-1 $447 $360 @18 ASM_EDGE_FROM_STEP @3 237 #
color-adesk-attrib $-1 -1 $515 $449 $402 253 #
DXID-attrib $-1 -1 $-1 $451 $362 @18 ASM_EDGE_FROM_STEP @3 234 #
DXID-attrib $-1 -1 $-1 $453 $364 @18 ASM_EDGE_FROM_STEP @3 236 #
truecolor-adesk-attrib $-1 -1 $516 $-1 $455 -1029660512 #
straight-curve $-1 -1 $-1 1005 -25.9807621135331992 -3.014255511857300007e-13 -3.418600331348549744e-15 10 1.897704399927169984e-30 F 0 F 5.196152422706640017 #
color-adesk-attrib $-1 -1 $517 $456 $412 253 #
point $-1 -1 $-1 1005 25.9807621135331992 -3.014255511857300007e-13 #
truecolor-adesk-attrib $-1 -1 $518 $-1 $463 -1029660512 #
straight-curve $-1 -1 $-1 1050 -51.96152422706630603 -10.0000000000003002 8.660254037844390851 -4.99999999999999023 -4.807406715958910478e-15 F -5.196152422706630247 F 0 #
color-adesk-attrib $-1 -1 $519 $466 $424 253 #
point $-1 -1 $-1 1005 -25.9807621135331992 -10.0000000000003002 #
truecolor-adesk-attrib $-1 -1 $520 $-1 $469 -1029660512 #
straight-curve $-1 -1 $-1 1005 25.9807621135331992 -3.014255511857300007e-13 -5.551115123125779547e-15 6.86252783049007957e-46 -10 F 0 F 0.999999999999999778 #
DXID-attrib $-1 -1 $-1 $470 $383 @18 ASM_EDGE_FROM_STEP @3 250 #
DXID-attrib $-1 -1 $-1 $473 $389 @18 ASM_FACE_FROM_STEP @15 Component19-368 #
truecolor-adesk-attrib $-1 -1 $521 $-1 $474 -1029660512 #
straight-curve $-1 -1 $-1 1005 -25.9807621135331992 -3.014255511857300007e-13 -5.551115123125779547e-15 6.86252783049007957e-46 -10 F 0 F 0.999999999999999778 #
color-adesk-attrib $-1 -1 $522 $475 $437 253 #
point $-1 -1 $-1 1005 -25.9807621135331992 -3.014255511857300007e-13 #
truecolor-adesk-attrib $-1 -1 $523 $-1 $478 -1029660512 #
straight-curve $-1 -1 $-1 1095 -25.98076211353309617 -10.00000000000039968 8.660254037844380193 4.999999999999999112 -4.807406715958910478e-15 F -5.196152422706636465 F 0 #
color-adesk-attrib $-1 -1 $524 $479 $439 253 #
point $-1 -1 $-1 1050 -51.96152422706630603 -10.0000000000003002 #
DXID-attrib $-1 -1 $-1 $482 $396 @18 ASM_EDGE_FROM_STEP @3 240 #
color-adesk-attrib $-1 -1 $525 $484 $443 253 #
DXID-attrib $-1 -1 $-1 $486 $398 @18 ASM_EDGE_FROM_STEP @3 238 #
DXID-attrib $-1 -1 $-1 $489 $402 @18 ASM_EDGE_FROM_STEP @3 235 #
color-adesk-attrib $-1 -1 $526 $492 $455 253 #
DXID-attrib $-1 -1 $-1 $494 $412 @18 ASM_EDGE_FROM_STEP @3 249 #
color-adesk-attrib $-1 -1 $527 $496 $463 253 #
DXID-attrib $-1 -1 $-1 $498 $424 @18 ASM_EDGE_FROM_STEP @3 248 #
color-adesk-attrib $-1 -1 $528 $500 $469 253 #
color-adesk-attrib $-1 -1 $529 $504 $474 253 #
DXID-attrib $-1 -1 $-1 $506 $437 @18 ASM_EDGE_FROM_STEP @3 243 #
color-adesk-attrib $-1 -1 $530 $508 $478 253 #
DXID-attrib $-1 -1 $-1 $510 $439 @18 ASM_EDGE_FROM_STEP @3 241 #
DXID-attrib $-1 -1 $-1 $513 $443 @18 ASM_EDGE_FROM_STEP @3 239 #
DXID-attrib $-1 -1 $-1 $516 $455 @18 ASM_EDGE_FROM_STEP @3 246 #
DXID-attrib $-1 -1 $-1 $518 $463 @18 ASM_EDGE_FROM_STEP @3 245 #
DXID-attrib $-1 -1 $-1 $520 $469 @18 ASM_EDGE_FROM_STEP @3 247 #
DXID-attrib $-1 -1 $-1 $521 $474 @18 ASM_EDGE_FROM_STEP @3 244 #
DXID-attrib $-1 -1 $-1 $523 $478 @18 ASM_EDGE_FROM_STEP @3 242 #
