700 456 1 0         
5 ZWCAD 12 ACIS 28.0 NT 24 Sat May 11 10:50:03 2024 
1 9.9999999999999995e-07 1e-10 
body $1 -1 $-1 $2 $-1 $-1 #
DXID-attrib $-1 -1 $-1 $-1 $0 @18 ASM_BODY_FROM_STEP @83 0A283A995C5041770A77E63405D7756A6D411328|:|BE76307B32EA9896A750FB780CA2424B133E979E #
lump $-1 -1 $-1 $-1 $3 $0 #
shell $-1 -1 $-1 $-1 $-1 $4 $-1 $2 #
face $5 -1 $-1 $6 $7 $3 $-1 $8 forward single #
truecolor-adesk-attrib $-1 -1 $9 $-1 $4 -1056964608 #
face $10 -1 $-1 $11 $12 $3 $-1 $13 reversed single #
loop $-1 -1 $-1 $-1 $14 $4 #
cone-surface $-1 -1 $-1 0 0 0 -1 0 0 0 0 6.9850000000000003 1 I I 0 1 6.9850000000000003 forward I I I I #
DXID-attrib $-1 -1 $-1 $5 $4 @18 ASM_FACE_FROM_STEP @27 Copy of Rotor Pin - RCV-632 #
truecolor-adesk-attrib $-1 -1 $15 $-1 $6 -1056964608 #
face $16 -1 $-1 $17 $18 $3 $-1 $19 forward single #
loop $-1 -1 $-1 $-1 $20 $6 #
torus-surface $-1 -1 $-1 1.5240000000000002 0 0 -1 0 0 5.6260999999999992 0.25399999999999989 0 0 1 forward_v I I I I #
coedge $-1 -1 $-1 $21 $22 $23 $24 forward $7 $-1 #
DXID-attrib $-1 -1 $-1 $10 $6 @18 ASM_FACE_FROM_STEP @27 Copy of Rotor Pin - RCV-627 #
truecolor-adesk-attrib $-1 -1 $25 $-1 $11 -1056964608 #
face $26 -1 $-1 $27 $28 $3 $-1 $29 forward single #
loop $-1 -1 $-1 $-1 $30 $11 #
cone-surface $-1 -1 $-1 0 0 0 -1 0 0 0 0 5.3720999999999979 1 I I 0 1 5.3720999999999988 forward I I I I #
coedge $-1 -1 $-1 $31 $32 $33 $34 reversed $12 $-1 #
coedge $-1 -1 $-1 $35 $14 $36 $37 forward $7 $-1 #
coedge $-1 -1 $-1 $14 $35 $38 $39 reversed $7 $-1 #
coedge $-1 -1 $-1 $40 $40 $14 $24 reversed $41 $-1 #
edge $42 -1 $-1 $43 0 $44 3.1415926535897931 $14 $45 forward @7 unknown #
DXID-attrib $-1 -1 $-1 $16 $11 @18 ASM_FACE_FROM_STEP @27 Copy of Rotor Pin - RCV-631 #
truecolor-adesk-attrib $-1 -1 $46 $-1 $17 -1056964608 #
face $47 -1 $-1 $48 $49 $3 $-1 $50 forward single #
loop $-1 -1 $-1 $-1 $51 $17 #
cone-surface $-1 -1 $-1 0 0 0 -1 0 0 0 0 4.851399999999999 1 I I 0 1 4.851399999999999 forward I I I I #
coedge $-1 -1 $-1 $52 $53 $54 $55 forward $18 $-1 #
coedge $-1 -1 $-1 $56 $20 $57 $58 forward $12 $-1 #
coedge $-1 -1 $-1 $20 $56 $59 $60 reversed $12 $-1 #
coedge $-1 -1 $-1 $61 $61 $20 $34 forward $62 $-1 #
edge $63 -1 $-1 $64 -3.1415926535897931 $65 0 $20 $66 forward @7 unknown #
coedge $-1 -1 $-1 $22 $21 $67 $68 reversed $7 $-1 #
coedge $-1 -1 $-1 $69 $70 $21 $37 reversed $71 $-1 #
edge $72 -1 $-1 $44 -0.0012700000000000001 $73 -1.796111980729736e-19 $21 $74 forward @7 unknown #
coedge $-1 -1 $-1 $70 $69 $22 $39 forward $71 $-1 #
edge $75 -1 $-1 $43 -0.0012700000000000001 $76 -1.796111980729736e-19 $22 $77 forward @7 unknown #
coedge $-1 -1 $-1 $23 $23 $69 $78 reversed $41 $-1 #
loop $-1 -1 $-1 $62 $23 $79 #
truecolor-adesk-attrib $-1 -1 $80 $-1 $24 -1056964608 #
vertex $-1 -1 $-1 $24 $81 #
vertex $-1 -1 $-1 $24 $82 #
ellipse-curve $-1 -1 $-1 1.2699999999999998 0 0 -1 0 0 0 0 6.9850000000000003 1 F 0 F 3.1415926535897931 #
DXID-attrib $-1 -1 $-1 $26 $17 @18 ASM_FACE_FROM_STEP @27 Copy of Rotor Pin - RCV-634 #
truecolor-adesk-attrib $-1 -1 $83 $-1 $27 -1056964608 #
face $84 -1 $-1 $85 $86 $3 $-1 $87 forward single #
loop $-1 -1 $-1 $-1 $88 $27 #
cone-surface $-1 -1 $-1 0 0 0 -1 0 0 0 0 5.3720999999999979 1 I I 0 1 5.3720999999999988 forward I I I I #
coedge $-1 -1 $-1 $89 $90 $91 $92 forward $28 $-1 #
coedge $-1 -1 $-1 $93 $30 $94 $95 forward $18 $-1 #
coedge $-1 -1 $-1 $30 $93 $96 $97 reversed $18 $-1 #
coedge $-1 -1 $-1 $98 $98 $30 $55 reversed $99 $-1 #
edge $100 -1 $-1 $101 0 $102 3.1415926535897931 $30 $103 forward @7 unknown #
coedge $-1 -1 $-1 $32 $31 $104 $105 forward $12 $-1 #
coedge $-1 -1 $-1 $106 $107 $31 $58 reversed $108 $-1 #
edge $109 -1 $-1 $64 -1.570796326794901 $110 7.6491743822599441e-15 $31 $111 forward @7 unknown #
coedge $-1 -1 $-1 $107 $106 $32 $60 forward $108 $-1 #
edge $112 -1 $-1 $65 -1.570796326794901 $113 7.6491743822599441e-15 $32 $114 forward @7 unknown #
coedge $-1 -1 $-1 $33 $33 $106 $115 forward $62 $-1 #
loop $-1 -1 $-1 $-1 $61 $79 #
truecolor-adesk-attrib $-1 -1 $116 $-1 $34 -1056964608 #
vertex $-1 -1 $-1 $34 $117 #
vertex $-1 -1 $-1 $34 $118 #
ellipse-curve $-1 -1 $-1 1.2700000000000002 0 0 -1 0 0 0 0 5.626100000000001 1 F -3.1415926535897931 F 0 #
coedge $-1 -1 $-1 $119 $119 $35 $68 forward $120 $-1 #
edge $121 -1 $-1 $76 0 $73 3.1415926535897931 $35 $122 forward @7 unknown #
coedge $-1 -1 $-1 $38 $36 $40 $78 forward $71 $-1 #
coedge $-1 -1 $-1 $36 $38 $119 $123 reversed $71 $-1 #
loop $-1 -1 $-1 $-1 $36 $124 #
truecolor-adesk-attrib $-1 -1 $125 $-1 $37 -1056964608 #
vertex $-1 -1 $-1 $37 $126 #
straight-curve $-1 -1 $-1 0 8.5541578920442616e-16 -6.9850000000000003 -999.99999999999989 0 0 F -0.0012700000000000001 F -1.796111980729736e-19 #
truecolor-adesk-attrib $-1 -1 $127 $-1 $39 -1056964608 #
vertex $-1 -1 $-1 $68 $128 #
straight-curve $-1 -1 $-1 0 0 6.9850000000000003 -999.99999999999989 0 0 F -0.0012700000000000001 F -1.796111980729736e-19 #
edge $129 -1 $-1 $44 -3.1415926535897931 $43 0 $40 $130 forward @7 unknown #
face $131 -1 $-1 $124 $41 $3 $-1 $132 reversed single #
DXID-attrib $-1 -1 $-1 $42 $24 @18 ASM_EDGE_FROM_STEP @2 52 #
point $-1 -1 $-1 1.2699999999999998 0 6.9850000000000003 #
point $-1 -1 $-1 1.2699999999999998 8.5541578920442616e-16 -6.9850000000000003 #
DXID-attrib $-1 -1 $-1 $47 $27 @18 ASM_FACE_FROM_STEP @27 Copy of Rotor Pin - RCV-636 #
truecolor-adesk-attrib $-1 -1 $133 $-1 $48 -1056964608 #
face $134 -1 $-1 $135 $136 $3 $-1 $137 reversed single #
loop $-1 -1 $-1 $-1 $138 $48 #
cone-surface $-1 -1 $-1 8.9280999999999988 0 0 -1 0 0 0 0 4.5783499999999986 1 I I 0.70710678118654868 0.70710678118654635 4.5783499999999986 forward I I I I #
coedge $-1 -1 $-1 $139 $140 $141 $142 forward $49 $-1 #
coedge $-1 -1 $-1 $143 $51 $144 $145 forward $28 $-1 #
coedge $-1 -1 $-1 $51 $143 $146 $147 reversed $28 $-1 #
coedge $-1 -1 $-1 $148 $148 $51 $92 reversed $149 $-1 #
edge $150 -1 $-1 $151 0 $152 3.1415926535897931 $51 $153 forward @7 unknown #
coedge $-1 -1 $-1 $53 $52 $107 $154 reversed $18 $-1 #
coedge $-1 -1 $-1 $155 $104 $52 $95 reversed $156 $-1 #
edge $157 -1 $-1 $102 -0.0066039999999999996 $110 -0.0015240000000000023 $52 $158 forward @7 unknown #
coedge $-1 -1 $-1 $104 $155 $53 $97 forward $156 $-1 #
edge $159 -1 $-1 $101 -0.0066039999999999996 $113 -0.0015240000000000023 $53 $160 forward @7 unknown #
coedge $-1 -1 $-1 $54 $54 $155 $161 reversed $99 $-1 #
loop $-1 -1 $-1 $162 $54 $163 #
truecolor-adesk-attrib $-1 -1 $164 $-1 $55 -1056964608 #
vertex $-1 -1 $-1 $55 $165 #
vertex $-1 -1 $-1 $55 $166 #
ellipse-curve $-1 -1 $-1 6.6039999999999992 0 0 -1 0 0 0 0 5.3720999999999979 1 F 0 F 3.1415926535897931 #
coedge $-1 -1 $-1 $94 $96 $56 $105 reversed $156 $-1 #
edge $167 -1 $-1 $110 -3.1415926535897931 $113 0 $56 $168 forward @7 unknown #
coedge $-1 -1 $-1 $59 $57 $61 $115 reversed $108 $-1 #
coedge $-1 -1 $-1 $57 $59 $93 $154 forward $108 $-1 #
loop $-1 -1 $-1 $-1 $57 $169 #
truecolor-adesk-attrib $-1 -1 $170 $-1 $58 -1056964608 #
vertex $-1 -1 $-1 $58 $171 #
ellipse-curve $-1 -1 $-1 1.5240000000000002 6.8899853566829221e-16 -5.6260999999999992 0 1 1.224646799147353e-16 0 -3.1106028698342752e-17 0.25399999999999989 1 F -1.570796326794901 F 7.6491743822599441e-15 #
truecolor-adesk-attrib $-1 -1 $172 $-1 $60 -1056964608 #
vertex $-1 -1 $-1 $105 $173 #
ellipse-curve $-1 -1 $-1 1.5240000000000002 0 5.6260999999999992 0 -1 0 0 0 -0.25399999999999989 1 F -1.570796326794901 F 7.6491743822599441e-15 #
edge $174 -1 $-1 $65 0 $64 3.1415926535897931 $106 $175 forward @7 unknown #
DXID-attrib $-1 -1 $-1 $63 $34 @18 ASM_EDGE_FROM_STEP @2 53 #
point $-1 -1 $-1 1.2700000000000002 6.8899853566829241e-16 -5.6261000000000001 #
point $-1 -1 $-1 1.2700000000000002 0 5.6261000000000001 #
coedge $-1 -1 $-1 $67 $67 $70 $123 forward $120 $-1 #
loop $-1 -1 $-1 $176 $67 $177 #
truecolor-adesk-attrib $-1 -1 $178 $-1 $68 -1056964608 #
ellipse-curve $-1 -1 $-1 1.7961119807297357e-16 0 0 -1 0 0 0 0 6.9850000000000003 1 F 0 F 3.1415926535897931 #
edge $179 -1 $-1 $73 -3.1415926535897931 $76 0 $70 $180 forward @7 unknown #
face $181 -1 $-1 $177 $71 $3 $-1 $182 forward single #
DXID-attrib $-1 -1 $-1 $72 $37 @18 ASM_EDGE_FROM_STEP @2 51 #
point $-1 -1 $-1 1.7961119807297357e-16 8.5541578920442616e-16 -6.9850000000000003 #
DXID-attrib $-1 -1 $-1 $75 $39 @18 ASM_EDGE_FROM_STEP @2 50 #
point $-1 -1 $-1 1.7961119807297357e-16 0 6.9850000000000003 #
truecolor-adesk-attrib $-1 -1 $183 $-1 $78 -1056964608 #
ellipse-curve $-1 -1 $-1 1.2699999999999998 0 0 -1 0 0 0 0 6.9850000000000003 1 F -3.1415926535897931 F 0 #
truecolor-adesk-attrib $-1 -1 $184 $-1 $79 -1056964608 #
plane-surface $-1 -1 $-1 1.2700000000000002 6.9850000000000003 0 -1 0 0 0 0 25.399999999999995 forward_v I I I I #
DXID-attrib $-1 -1 $-1 $84 $48 @18 ASM_FACE_FROM_STEP @27 Copy of Rotor Pin - RCV-645 #
truecolor-adesk-attrib $-1 -1 $185 $-1 $85 -1056964608 #
face $186 -1 $-1 $187 $188 $3 $-1 $189 reversed single #
loop $-1 -1 $-1 $-1 $190 $85 #
cone-surface $-1 -1 $-1 8.1343500000000013 0 0 1 0 0 0 0 -3.5687000000000011 1 I I 0.70710678118654857 0.70710678118654657 3.5687000000000011 forward I I I I #
coedge $-1 -1 $-1 $191 $192 $193 $194 forward $86 $-1 #
coedge $-1 -1 $-1 $195 $88 $196 $197 forward $49 $-1 #
coedge $-1 -1 $-1 $88 $195 $198 $199 reversed $49 $-1 #
coedge $-1 -1 $-1 $192 $191 $88 $142 reversed $86 $-1 #
edge $200 -1 $-1 $201 0 $202 3.1415926535897931 $88 $203 forward @7 unknown #
coedge $-1 -1 $-1 $90 $89 $204 $205 reversed $28 $-1 #
coedge $-1 -1 $-1 $206 $207 $89 $145 reversed $208 $-1 #
edge $209 -1 $-1 $152 -0.0073406000000000001 $210 -0.0066039999999999996 $89 $211 forward @7 unknown #
coedge $-1 -1 $-1 $207 $206 $90 $147 forward $208 $-1 #
edge $212 -1 $-1 $151 -0.0073406000000000001 $213 -0.0066039999999999996 $90 $214 forward @7 unknown #
coedge $-1 -1 $-1 $91 $91 $206 $215 reversed $149 $-1 #
loop $-1 -1 $-1 $-1 $91 $216 #
truecolor-adesk-attrib $-1 -1 $217 $-1 $92 -1056964608 #
vertex $-1 -1 $-1 $92 $218 #
vertex $-1 -1 $-1 $92 $219 #
ellipse-curve $-1 -1 $-1 7.3405999999999993 0 0 -1 0 0 0 0 4.851399999999999 1 F 0 F 3.1415926535897931 #
edge $220 -1 $-1 $113 0 $110 3.1415926535897931 $93 $221 forward @7 unknown #
coedge $-1 -1 $-1 $96 $94 $98 $161 forward $156 $-1 #
loop $-1 -1 $-1 $-1 $94 $222 #
truecolor-adesk-attrib $-1 -1 $223 $-1 $95 -1056964608 #
straight-curve $-1 -1 $-1 0 6.5789250696994944e-16 -5.3720999999999988 -999.99999999999989 0 0 F -0.0066039999999999996 F -0.0015240000000000023 #
truecolor-adesk-attrib $-1 -1 $224 $-1 $97 -1056964608 #
straight-curve $-1 -1 $-1 0 0 5.3720999999999988 -999.99999999999989 0 0 F -0.0066039999999999996 F -0.0015240000000000023 #
edge $225 -1 $-1 $102 -3.1415926535897931 $101 0 $98 $226 forward @7 unknown #
loop $-1 -1 $-1 $-1 $204 $163 #
face $227 -1 $-1 $222 $99 $3 $-1 $228 reversed single #
DXID-attrib $-1 -1 $-1 $100 $55 @18 ASM_EDGE_FROM_STEP @2 57 #
point $-1 -1 $-1 6.6039999999999992 0 5.3720999999999988 #
point $-1 -1 $-1 6.6039999999999992 6.5789250696994944e-16 -5.3720999999999988 #
truecolor-adesk-attrib $-1 -1 $229 $-1 $105 -1056964608 #
ellipse-curve $-1 -1 $-1 1.524000000000002 0 0 -1 0 0 0 0 5.3720999999999979 1 F -3.1415926535897931 F 0 #
face $230 -1 $-1 $79 $108 $3 $-1 $231 reversed single #
DXID-attrib $-1 -1 $-1 $109 $58 @18 ASM_EDGE_FROM_STEP @2 54 #
point $-1 -1 $-1 1.524000000000002 6.5789250696994944e-16 -5.3720999999999988 #
DXID-attrib $-1 -1 $-1 $112 $60 @18 ASM_EDGE_FROM_STEP @2 56 #
point $-1 -1 $-1 1.524000000000002 0 5.3720999999999988 #
truecolor-adesk-attrib $-1 -1 $232 $-1 $115 -1056964608 #
ellipse-curve $-1 -1 $-1 1.2700000000000002 0 0 -1 0 0 0 0 5.626100000000001 1 F 0 F 3.1415926535897931 #
loop $-1 -1 $-1 $-1 $233 $177 #
face $234 -1 $-1 $-1 $120 $3 $-1 $235 reversed single #
DXID-attrib $-1 -1 $-1 $121 $68 @18 ASM_EDGE_FROM_STEP @2 49 #
truecolor-adesk-attrib $-1 -1 $236 $-1 $123 -1056964608 #
ellipse-curve $-1 -1 $-1 1.7961119807297357e-16 0 0 -1 0 0 0 0 6.9850000000000003 1 F -3.1415926535897931 F 0 #
truecolor-adesk-attrib $-1 -1 $237 $-1 $124 -1056964608 #
cone-surface $-1 -1 $-1 0 0 0 -1 0 0 0 0 6.9850000000000003 1 I I 0 1 6.9850000000000003 forward I I I I #
DXID-attrib $-1 -1 $-1 $129 $78 @18 ASM_EDGE_FROM_STEP @2 37 #
DXID-attrib $-1 -1 $-1 $131 $79 @18 ASM_FACE_FROM_STEP @27 Copy of Rotor Pin - RCV-643 #
DXID-attrib $-1 -1 $-1 $134 $85 @18 ASM_FACE_FROM_STEP @27 Copy of Rotor Pin - RCV-642 #
truecolor-adesk-attrib $-1 -1 $238 $-1 $135 -1056964608 #
face $239 -1 $-1 $240 $241 $3 $-1 $242 reversed single #
loop $-1 -1 $-1 $-1 $243 $135 #
cone-surface $-1 -1 $-1 0 0 0 -1 0 0 0 0 3.5686999999999998 1 I I 0 1 3.5686999999999998 forward I I I I #
coedge $-1 -1 $-1 $244 $245 $243 $246 forward $136 $-1 #
coedge $-1 -1 $-1 $141 $138 $247 $248 forward $86 $-1 #
coedge $-1 -1 $-1 $138 $141 $249 $250 reversed $86 $-1 #
coedge $-1 -1 $-1 $251 $251 $138 $194 reversed $252 $-1 #
edge $253 -1 $-1 $254 0 $255 3.1415926535897931 $138 $256 forward @7 unknown #
coedge $-1 -1 $-1 $140 $139 $257 $258 reversed $49 $-1 #
coedge $-1 -1 $-1 $259 $260 $139 $197 reversed $261 $-1 #
edge $262 -1 $-1 $202 -0.0081343500000000037 $263 -0.0073406000000000001 $139 $264 forward @7 unknown #
coedge $-1 -1 $-1 $260 $259 $140 $199 forward $261 $-1 #
edge $265 -1 $-1 $201 -0.0081343500000000037 $266 -0.0073406000000000001 $140 $267 forward @7 unknown #
truecolor-adesk-attrib $-1 -1 $268 $-1 $142 -1056964608 #
vertex $-1 -1 $-1 $142 $269 #
vertex $-1 -1 $-1 $142 $270 #
ellipse-curve $-1 -1 $-1 8.1343500000000013 0 0 -1 0 0 0 0 5.3720999999999979 1 F 0 F 3.1415926535897931 #
coedge $-1 -1 $-1 $271 $271 $143 $205 forward $162 $-1 #
edge $272 -1 $-1 $213 0 $210 3.1415926535897931 $143 $273 forward @7 unknown #
coedge $-1 -1 $-1 $146 $144 $148 $215 forward $208 $-1 #
coedge $-1 -1 $-1 $144 $146 $271 $274 reversed $208 $-1 #
loop $-1 -1 $-1 $-1 $144 $275 #
truecolor-adesk-attrib $-1 -1 $276 $-1 $145 -1056964608 #
vertex $-1 -1 $-1 $145 $277 #
straight-curve $-1 -1 $-1 0 5.9412514813834678e-16 -4.851399999999999 -999.99999999999989 0 0 F -0.0073406000000000001 F -0.0066039999999999996 #
truecolor-adesk-attrib $-1 -1 $278 $-1 $147 -1056964608 #
vertex $-1 -1 $-1 $205 $279 #
straight-curve $-1 -1 $-1 0 0 4.851399999999999 -999.99999999999989 0 0 F -0.0073406000000000001 F -0.0066039999999999996 #
edge $280 -1 $-1 $152 -3.1415926535897931 $151 0 $148 $281 forward @7 unknown #
face $282 -1 $-1 $275 $283 $3 $-1 $284 reversed single #
DXID-attrib $-1 -1 $-1 $150 $92 @18 ASM_EDGE_FROM_STEP @2 61 #
point $-1 -1 $-1 7.3405999999999993 0 4.851399999999999 #
point $-1 -1 $-1 7.3405999999999993 5.9412514813834678e-16 -4.851399999999999 #
truecolor-adesk-attrib $-1 -1 $285 $-1 $154 -1056964608 #
ellipse-curve $-1 -1 $-1 1.524000000000002 0 0 -1 0 0 0 0 5.3720999999999979 1 F 0 F 3.1415926535897931 #
face $286 -1 $-1 $169 $156 $3 $-1 $287 forward single #
DXID-attrib $-1 -1 $-1 $157 $95 @18 ASM_EDGE_FROM_STEP @2 58 #
DXID-attrib $-1 -1 $-1 $159 $97 @18 ASM_EDGE_FROM_STEP @2 60 #
truecolor-adesk-attrib $-1 -1 $288 $-1 $161 -1056964608 #
ellipse-curve $-1 -1 $-1 6.6039999999999992 0 0 -1 0 0 0 0 5.3720999999999979 1 F -3.1415926535897931 F 0 #
truecolor-adesk-attrib $-1 -1 $289 $-1 $163 -1056964608 #
plane-surface $-1 -1 $-1 6.6039999999999992 5.3720999999999988 0 -1 0 0 0 0 25.399999999999995 forward_v I I I I #
DXID-attrib $-1 -1 $-1 $167 $105 @18 ASM_EDGE_FROM_STEP @2 55 #
truecolor-adesk-attrib $-1 -1 $290 $-1 $169 -1056964608 #
torus-surface $-1 -1 $-1 1.5240000000000002 0 0 -1 0 0 5.6260999999999992 0.25399999999999989 0 0 1 forward_v I I I I #
DXID-attrib $-1 -1 $-1 $174 $115 @18 ASM_EDGE_FROM_STEP @2 36 #
coedge $-1 -1 $-1 $291 $291 $292 $293 reversed $176 $-1 #
truecolor-adesk-attrib $-1 -1 $294 $-1 $177 -1056964608 #
plane-surface $-1 -1 $-1 8.9805599036486784e-17 4.3624499999999999 0 1 0 0 0 0 -25.399999999999995 forward_v I I I I #
DXID-attrib $-1 -1 $-1 $179 $123 @18 ASM_EDGE_FROM_STEP @2 38 #
DXID-attrib $-1 -1 $-1 $181 $124 @18 ASM_FACE_FROM_STEP @27 Copy of Rotor Pin - RCV-640 #
DXID-attrib $-1 -1 $-1 $186 $135 @18 ASM_FACE_FROM_STEP @27 Copy of Rotor Pin - RCV-628 #
truecolor-adesk-attrib $-1 -1 $295 $-1 $187 -1056964608 #
face $296 -1 $-1 $297 $298 $3 $-1 $299 reversed single #
loop $-1 -1 $-1 $-1 $300 $187 #
cone-surface $-1 -1 $-1 0 0 0 -1 0 0 0 0 4.3624499999999999 1 I I 0.70710678118654768 0.70710678118654735 4.3624499999999999 forward I I I I #
coedge $-1 -1 $-1 $301 $302 $190 $246 reversed $188 $-1 #
coedge $-1 -1 $-1 $303 $190 $304 $305 forward $136 $-1 #
coedge $-1 -1 $-1 $190 $303 $306 $307 reversed $136 $-1 #
edge $308 -1 $-1 $309 -3.1415926535897931 $310 0 $190 $311 forward @7 unknown #
coedge $-1 -1 $-1 $312 $313 $191 $248 reversed $314 $-1 #
edge $315 -1 $-1 $255 4.2088209276195313e-36 $202 0.0011225320151336427 $191 $316 forward @7 unknown #
coedge $-1 -1 $-1 $313 $312 $192 $250 forward $314 $-1 #
edge $317 -1 $-1 $254 0 $201 0.0011225320151336427 $192 $318 forward @7 unknown #
coedge $-1 -1 $-1 $193 $193 $312 $319 reversed $252 $-1 #
loop $-1 -1 $-1 $320 $193 $321 #
truecolor-adesk-attrib $-1 -1 $322 $-1 $194 -1056964608 #
vertex $-1 -1 $-1 $194 $323 #
vertex $-1 -1 $-1 $194 $324 #
ellipse-curve $-1 -1 $-1 8.9280999999999988 0 0 -1 0 0 0 0 4.5783499999999986 1 F 0 F 3.1415926535897931 #
coedge $-1 -1 $-1 $325 $325 $195 $258 forward $283 $-1 #
edge $326 -1 $-1 $266 0 $263 3.1415926535897931 $195 $327 forward @7 unknown #
coedge $-1 -1 $-1 $198 $196 $313 $328 forward $261 $-1 #
coedge $-1 -1 $-1 $196 $198 $325 $329 reversed $261 $-1 #
loop $-1 -1 $-1 $-1 $196 $330 #
truecolor-adesk-attrib $-1 -1 $331 $-1 $197 -1056964608 #
vertex $-1 -1 $-1 $197 $332 #
straight-curve $-1 -1 $-1 0 6.5789250696994944e-16 -5.3720999999999988 -999.99999999999989 0 0 F -0.0081343500000000037 F -0.0073406000000000001 #
truecolor-adesk-attrib $-1 -1 $333 $-1 $199 -1056964608 #
vertex $-1 -1 $-1 $258 $334 #
straight-curve $-1 -1 $-1 0 0 5.3720999999999988 -999.99999999999989 0 0 F -0.0081343500000000037 F -0.0073406000000000001 #
DXID-attrib $-1 -1 $-1 $200 $142 @18 ASM_EDGE_FROM_STEP @2 65 #
point $-1 -1 $-1 8.1343500000000013 0 5.3720999999999988 #
point $-1 -1 $-1 8.1343500000000013 6.5789250696994944e-16 -5.3720999999999988 #
coedge $-1 -1 $-1 $204 $204 $207 $274 forward $162 $-1 #
truecolor-adesk-attrib $-1 -1 $335 $-1 $205 -1056964608 #
ellipse-curve $-1 -1 $-1 6.6039999999999992 0 0 -1 0 0 0 0 4.851399999999999 1 F 0 F 3.1415926535897931 #
edge $336 -1 $-1 $210 -3.1415926535897931 $213 0 $207 $337 forward @7 unknown #
face $338 -1 $-1 $163 $208 $3 $-1 $339 forward single #
DXID-attrib $-1 -1 $-1 $209 $145 @18 ASM_EDGE_FROM_STEP @2 62 #
point $-1 -1 $-1 6.6039999999999992 5.9412514813834678e-16 -4.851399999999999 #
DXID-attrib $-1 -1 $-1 $212 $147 @18 ASM_EDGE_FROM_STEP @2 64 #
point $-1 -1 $-1 6.6039999999999992 0 4.851399999999999 #
truecolor-adesk-attrib $-1 -1 $340 $-1 $215 -1056964608 #
ellipse-curve $-1 -1 $-1 7.3405999999999993 0 0 -1 0 0 0 0 4.851399999999999 1 F -3.1415926535897931 F 0 #
truecolor-adesk-attrib $-1 -1 $341 $-1 $216 -1056964608 #
loop $-1 -1 $-1 $149 $257 $216 #
plane-surface $-1 -1 $-1 7.3405999999999993 4.851399999999999 0 1 0 0 0 0 -25.399999999999995 forward_v I I I I #
DXID-attrib $-1 -1 $-1 $220 $154 @18 ASM_EDGE_FROM_STEP @2 59 #
truecolor-adesk-attrib $-1 -1 $342 $-1 $222 -1056964608 #
cone-surface $-1 -1 $-1 0 0 0 -1 0 0 0 0 5.3720999999999979 1 I I 0 1 5.3720999999999988 forward I I I I #
DXID-attrib $-1 -1 $-1 $225 $161 @18 ASM_EDGE_FROM_STEP @2 35 #
DXID-attrib $-1 -1 $-1 $227 $163 @18 ASM_FACE_FROM_STEP @27 Copy of Rotor Pin - RCV-648 #
DXID-attrib $-1 -1 $-1 $230 $169 @18 ASM_FACE_FROM_STEP @27 Copy of Rotor Pin - RCV-639 #
coedge $-1 -1 $-1 $233 $233 $343 $344 reversed $176 $-1 #
coedge $-1 -1 $-1 $345 $346 $233 $293 forward $298 $-1 #
edge $347 -1 $-1 $348 0 $349 3.1415926535897931 $292 $350 forward @7 unknown #
DXID-attrib $-1 -1 $-1 $234 $177 @18 ASM_FACE_FROM_STEP @27 Copy of Rotor Pin - RCV-637 #
DXID-attrib $-1 -1 $-1 $239 $187 @18 ASM_FACE_FROM_STEP @27 Copy of Rotor Pin - RCV-647 #
truecolor-adesk-attrib $-1 -1 $351 $-1 $240 -1056964608 #
face $352 -1 $-1 $353 $354 $3 $-1 $355 reversed single #
loop $-1 -1 $-1 $-1 $345 $240 #
cone-surface $-1 -1 $-1 0 0 0 -1 0 0 0 0 4.3624499999999999 1 I I 0.70710678118654768 0.70710678118654735 4.3624499999999999 forward I I I I #
coedge $-1 -1 $-1 $356 $357 $358 $359 reversed $241 $-1 #
coedge $-1 -1 $-1 $358 $243 $360 $361 forward $188 $-1 #
coedge $-1 -1 $-1 $243 $358 $362 $363 reversed $188 $-1 #
coedge $-1 -1 $-1 $245 $244 $364 $365 reversed $136 $-1 #
coedge $-1 -1 $-1 $366 $367 $244 $305 reversed $368 $-1 #
edge $369 -1 $-1 $310 -3.7845717781154854e-35 $370 0.0011225320151336416 $244 $371 forward @7 unknown #
coedge $-1 -1 $-1 $367 $366 $245 $307 forward $368 $-1 #
edge $372 -1 $-1 $309 0 $373 0.0011225320151336416 $245 $374 forward @7 unknown #
truecolor-adesk-attrib $-1 -1 $375 $-1 $246 -1056964608 #
vertex $-1 -1 $-1 $246 $376 #
vertex $-1 -1 $-1 $246 $377 #
ellipse-curve $-1 -1 $-1 8.1343500000000013 0 0 -1 0 0 0 0 3.5687000000000011 1 F -3.1415926535897931 F 0 #
coedge $-1 -1 $-1 $249 $247 $251 $319 forward $314 $-1 #
coedge $-1 -1 $-1 $247 $249 $259 $328 reversed $314 $-1 #
loop $-1 -1 $-1 $-1 $247 $378 #
truecolor-adesk-attrib $-1 -1 $379 $-1 $248 -1056964608 #
straight-curve $-1 -1 $-1 8.9280999999999988 5.6068616728762824e-16 -4.5783499999999986 -707.1067811865463 8.659560562354948e-14 -707.10678118654857 F 4.2088209276195313e-36 F 0.0011225320151336427 #
truecolor-adesk-attrib $-1 -1 $380 $-1 $250 -1056964608 #
straight-curve $-1 -1 $-1 8.9280999999999988 0 4.5783499999999986 -707.1067811865463 0 707.10678118654857 F 0 F 0.0011225320151336427 #
edge $381 -1 $-1 $255 -3.1415926535897931 $254 0 $251 $382 forward @7 unknown #
loop $-1 -1 $-1 $-1 $364 $321 #
face $383 -1 $-1 $378 $252 $3 $-1 $384 reversed single #
DXID-attrib $-1 -1 $-1 $253 $194 @18 ASM_EDGE_FROM_STEP @2 69 #
point $-1 -1 $-1 8.9280999999999988 0 4.5783499999999986 #
point $-1 -1 $-1 8.9280999999999988 6.0928933712878879e-16 -4.5783499999999986 #
coedge $-1 -1 $-1 $257 $257 $260 $329 forward $283 $-1 #
truecolor-adesk-attrib $-1 -1 $385 $-1 $258 -1056964608 #
ellipse-curve $-1 -1 $-1 7.3405999999999993 0 0 -1 0 0 0 0 5.3720999999999979 1 F 0 F 3.1415926535897931 #
edge $386 -1 $-1 $202 -3.1415926535897931 $201 0 $313 $387 forward @7 unknown #
edge $388 -1 $-1 $263 -3.1415926535897931 $266 0 $260 $389 forward @7 unknown #
face $390 -1 $-1 $216 $261 $3 $-1 $391 forward single #
DXID-attrib $-1 -1 $-1 $262 $197 @18 ASM_EDGE_FROM_STEP @2 66 #
point $-1 -1 $-1 7.3405999999999993 6.5789250696994944e-16 -5.3720999999999988 #
DXID-attrib $-1 -1 $-1 $265 $199 @18 ASM_EDGE_FROM_STEP @2 68 #
point $-1 -1 $-1 7.3405999999999993 0 5.3720999999999988 #
DXID-attrib $-1 -1 $-1 $272 $205 @18 ASM_EDGE_FROM_STEP @2 63 #
truecolor-adesk-attrib $-1 -1 $392 $-1 $274 -1056964608 #
ellipse-curve $-1 -1 $-1 6.6039999999999992 0 0 -1 0 0 0 0 4.851399999999999 1 F -3.1415926535897931 F 0 #
truecolor-adesk-attrib $-1 -1 $393 $-1 $275 -1056964608 #
cone-surface $-1 -1 $-1 0 0 0 -1 0 0 0 0 4.851399999999999 1 I I 0 1 4.851399999999999 forward I I I I #
DXID-attrib $-1 -1 $-1 $280 $215 @18 ASM_EDGE_FROM_STEP @2 33 #
DXID-attrib $-1 -1 $-1 $282 $216 @18 ASM_FACE_FROM_STEP @27 Copy of Rotor Pin - RCV-644 #
DXID-attrib $-1 -1 $-1 $286 $222 @18 ASM_FACE_FROM_STEP @27 Copy of Rotor Pin - RCV-630 #
coedge $-1 -1 $-1 $357 $356 $291 $344 forward $241 $-1 #
edge $394 -1 $-1 $349 -3.1415926535897931 $348 0 $343 $395 forward @7 unknown #
coedge $-1 -1 $-1 $396 $292 $356 $397 reversed $298 $-1 #
coedge $-1 -1 $-1 $292 $396 $357 $398 forward $298 $-1 #
truecolor-adesk-attrib $-1 -1 $399 $-1 $293 -1056964608 #
vertex $-1 -1 $-1 $344 $400 #
vertex $-1 -1 $-1 $397 $401 #
ellipse-curve $-1 -1 $-1 0 0 0 -1 0 0 0 0 4.3624499999999999 1 F 0 F 3.1415926535897931 #
DXID-attrib $-1 -1 $-1 $296 $240 @18 ASM_FACE_FROM_STEP @27 Copy of Rotor Pin - RCV-646 #
truecolor-adesk-attrib $-1 -1 $402 $-1 $297 -1056964608 #
face $403 -1 $-1 $321 $368 $3 $-1 $404 reversed single #
loop $-1 -1 $-1 $-1 $360 $297 #
cone-surface $-1 -1 $-1 0 0 0 -1 0 0 0 0 3.5686999999999998 1 I I 0 1 3.5686999999999998 forward I I I I #
coedge $-1 -1 $-1 $343 $300 $345 $397 forward $241 $-1 #
coedge $-1 -1 $-1 $300 $343 $346 $398 reversed $241 $-1 #
coedge $-1 -1 $-1 $302 $301 $300 $359 forward $188 $-1 #
edge $405 -1 $-1 $406 -3.1415926535897931 $407 0 $358 $408 forward @7 unknown #
coedge $-1 -1 $-1 $409 $410 $301 $361 reversed $354 $-1 #
edge $411 -1 $-1 $309 -0.008134350000000002 $406 -0.00079374999999999997 $301 $412 forward @7 unknown #
coedge $-1 -1 $-1 $410 $409 $302 $363 forward $354 $-1 #
edge $413 -1 $-1 $310 -0.008134350000000002 $407 -0.00079374999999999997 $302 $414 forward @7 unknown #
coedge $-1 -1 $-1 $415 $415 $303 $365 forward $320 $-1 #
edge $416 -1 $-1 $373 -3.1415926535897931 $370 1.2246467991473532e-16 $303 $417 forward @7 unknown #
coedge $-1 -1 $-1 $306 $304 $409 $418 forward $368 $-1 #
coedge $-1 -1 $-1 $304 $306 $415 $419 reversed $368 $-1 #
loop $-1 -1 $-1 $-1 $304 $353 #
truecolor-adesk-attrib $-1 -1 $420 $-1 $305 -1056964608 #
vertex $-1 -1 $-1 $305 $421 #
straight-curve $-1 -1 $-1 8.1343500000000013 4.3703970321171608e-16 3.5687000000000011 707.10678118654653 8.6595605623549442e-14 707.10678118654846 F -3.7845717781154854e-35 F 0.0011225320151336416 #
truecolor-adesk-attrib $-1 -1 $422 $-1 $307 -1056964608 #
vertex $-1 -1 $-1 $365 $423 #
straight-curve $-1 -1 $-1 8.1343500000000013 0 -3.5687000000000011 707.10678118654653 0 -707.10678118654846 F 0 F 0.0011225320151336416 #
DXID-attrib $-1 -1 $-1 $308 $246 @18 ASM_EDGE_FROM_STEP @2 72 #
point $-1 -1 $-1 8.1343500000000013 4.3703970321171608e-16 -3.5687000000000011 #
point $-1 -1 $-1 8.1343500000000013 0 3.5687000000000011 #
face $424 -1 $-1 $330 $314 $3 $-1 $425 forward single #
DXID-attrib $-1 -1 $-1 $315 $248 @18 ASM_EDGE_FROM_STEP @2 70 #
DXID-attrib $-1 -1 $-1 $317 $250 @18 ASM_EDGE_FROM_STEP @2 71 #
truecolor-adesk-attrib $-1 -1 $426 $-1 $319 -1056964608 #
ellipse-curve $-1 -1 $-1 8.9280999999999988 0 0 -1 0 0 0 0 4.5783499999999986 1 F -3.1415926535897931 F 0 #
truecolor-adesk-attrib $-1 -1 $427 $-1 $321 -1056964608 #
plane-surface $-1 -1 $-1 8.9280999999999988 4.5783499999999986 0 -1 0 0 0 0 25.399999999999995 forward_v I I I I #
DXID-attrib $-1 -1 $-1 $326 $258 @18 ASM_EDGE_FROM_STEP @2 67 #
truecolor-adesk-attrib $-1 -1 $428 $-1 $328 -1056964608 #
ellipse-curve $-1 -1 $-1 8.1343500000000013 0 0 -1 0 0 0 0 5.3720999999999979 1 F -3.1415926535897931 F 0 #
truecolor-adesk-attrib $-1 -1 $429 $-1 $329 -1056964608 #
ellipse-curve $-1 -1 $-1 7.3405999999999993 0 0 -1 0 0 0 0 5.3720999999999979 1 F -3.1415926535897931 F 0 #
truecolor-adesk-attrib $-1 -1 $430 $-1 $330 -1056964608 #
cone-surface $-1 -1 $-1 0 0 0 -1 0 0 0 0 5.3720999999999979 1 I I 0 1 5.3720999999999988 forward I I I I #
DXID-attrib $-1 -1 $-1 $336 $274 @18 ASM_EDGE_FROM_STEP @2 34 #
DXID-attrib $-1 -1 $-1 $338 $275 @18 ASM_FACE_FROM_STEP @27 Copy of Rotor Pin - RCV-626 #
truecolor-adesk-attrib $-1 -1 $431 $-1 $344 -1056964608 #
ellipse-curve $-1 -1 $-1 0 0 0 -1 0 0 0 0 4.3624499999999999 1 F -3.1415926535897931 F 0 #
coedge $-1 -1 $-1 $346 $345 $410 $432 reversed $298 $-1 #
edge $433 -1 $-1 $406 -0.0011225320151336446 $349 0 $356 $434 forward @7 unknown #
edge $435 -1 $-1 $407 -0.0011225320151336446 $348 0 $357 $436 forward @7 unknown #
DXID-attrib $-1 -1 $-1 $347 $293 @18 ASM_EDGE_FROM_STEP @2 27 #
point $-1 -1 $-1 0 0 4.3624499999999999 #
point $-1 -1 $-1 0 5.3424604289403718e-16 -4.3624499999999999 #
DXID-attrib $-1 -1 $-1 $352 $297 @18 ASM_FACE_FROM_STEP @27 Copy of Rotor Pin - RCV-638 #
truecolor-adesk-attrib $-1 -1 $437 $-1 $353 -1056964608 #
cone-surface $-1 -1 $-1 8.1343500000000013 0 0 1 0 0 0 0 -3.5687000000000011 1 I I 0.70710678118654857 0.70710678118654657 3.5687000000000011 forward I I I I #
truecolor-adesk-attrib $-1 -1 $438 $-1 $359 -1056964608 #
vertex $-1 -1 $-1 $361 $439 #
vertex $-1 -1 $-1 $359 $440 #
ellipse-curve $-1 -1 $-1 0.79374999999999984 0 0 -1 0 0 0 0 3.5686999999999998 1 F -3.1415926535897931 F 0 #
coedge $-1 -1 $-1 $362 $360 $366 $418 reversed $354 $-1 #
coedge $-1 -1 $-1 $360 $362 $396 $432 forward $354 $-1 #
truecolor-adesk-attrib $-1 -1 $441 $-1 $361 -1056964608 #
straight-curve $-1 -1 $-1 0 4.3703970321171583e-16 -3.5686999999999998 -999.99999999999989 0 0 F -0.008134350000000002 F -0.00079374999999999997 #
truecolor-adesk-attrib $-1 -1 $442 $-1 $363 -1056964608 #
straight-curve $-1 -1 $-1 0 0 3.5686999999999998 -999.99999999999989 0 0 F -0.008134350000000002 F -0.00079374999999999997 #
coedge $-1 -1 $-1 $364 $364 $367 $419 forward $320 $-1 #
truecolor-adesk-attrib $-1 -1 $443 $-1 $365 -1056964608 #
ellipse-curve $-1 -1 $-1 8.9280999999999988 0 0 -1 0 0 0 0 4.3624499999999999 1 F -3.1415926535897931 F 1.2246467991473532e-16 #
edge $444 -1 $-1 $310 0 $309 3.1415926535897931 $409 $445 forward @7 unknown #
edge $446 -1 $-1 $370 1.2246467991473532e-16 $373 3.1415926535897931 $367 $447 forward @7 unknown #
DXID-attrib $-1 -1 $-1 $369 $305 @18 ASM_EDGE_FROM_STEP @2 73 #
point $-1 -1 $-1 8.9280999999999988 5.3424604289403718e-16 4.3624499999999999 #
DXID-attrib $-1 -1 $-1 $372 $307 @18 ASM_EDGE_FROM_STEP @2 75 #
point $-1 -1 $-1 8.9280999999999988 0 -4.3624499999999999 #
truecolor-adesk-attrib $-1 -1 $448 $-1 $378 -1056964608 #
cone-surface $-1 -1 $-1 8.9280999999999988 0 0 -1 0 0 0 0 4.5783499999999986 1 I I 0.70710678118654868 0.70710678118654635 4.5783499999999986 forward I I I I #
DXID-attrib $-1 -1 $-1 $381 $319 @18 ASM_EDGE_FROM_STEP @2 30 #
DXID-attrib $-1 -1 $-1 $383 $321 @18 ASM_FACE_FROM_STEP @27 Copy of Rotor Pin - RCV-629 #
DXID-attrib $-1 -1 $-1 $386 $328 @18 ASM_EDGE_FROM_STEP @2 31 #
DXID-attrib $-1 -1 $-1 $388 $329 @18 ASM_EDGE_FROM_STEP @2 32 #
DXID-attrib $-1 -1 $-1 $390 $330 @18 ASM_FACE_FROM_STEP @27 Copy of Rotor Pin - RCV-641 #
DXID-attrib $-1 -1 $-1 $394 $344 @18 ASM_EDGE_FROM_STEP @2 24 #
edge $449 -1 $-1 $407 0 $406 3.1415926535897931 $396 $450 forward @7 unknown #
truecolor-adesk-attrib $-1 -1 $451 $-1 $397 -1056964608 #
straight-curve $-1 -1 $-1 0 5.3424604289403718e-16 -4.3624499999999999 -707.10678118654732 8.6595605623549341e-14 -707.10678118654755 F -0.0011225320151336446 F 0 #
truecolor-adesk-attrib $-1 -1 $452 $-1 $398 -1056964608 #
straight-curve $-1 -1 $-1 0 0 4.3624499999999999 -707.10678118654732 0 707.10678118654755 F -0.0011225320151336446 F 0 #
DXID-attrib $-1 -1 $-1 $403 $353 @18 ASM_FACE_FROM_STEP @27 Copy of Rotor Pin - RCV-633 #
DXID-attrib $-1 -1 $-1 $405 $359 @18 ASM_EDGE_FROM_STEP @2 77 #
point $-1 -1 $-1 0.79374999999999984 4.8564287305287653e-16 -3.5686999999999998 #
point $-1 -1 $-1 0.79374999999999984 0 3.5686999999999998 #
DXID-attrib $-1 -1 $-1 $411 $361 @18 ASM_EDGE_FROM_STEP @2 76 #
DXID-attrib $-1 -1 $-1 $413 $363 @18 ASM_EDGE_FROM_STEP @2 78 #
DXID-attrib $-1 -1 $-1 $416 $365 @18 ASM_EDGE_FROM_STEP @2 74 #
truecolor-adesk-attrib $-1 -1 $453 $-1 $418 -1056964608 #
ellipse-curve $-1 -1 $-1 8.1343500000000013 0 0 -1 0 0 0 0 3.5687000000000011 1 F 0 F 3.1415926535897931 #
truecolor-adesk-attrib $-1 -1 $454 $-1 $419 -1056964608 #
ellipse-curve $-1 -1 $-1 8.9280999999999988 0 0 -1 0 0 0 0 4.3624499999999999 1 F 1.2246467991473532e-16 F 3.1415926535897931 #
DXID-attrib $-1 -1 $-1 $424 $378 @18 ASM_FACE_FROM_STEP @27 Copy of Rotor Pin - RCV-635 #
truecolor-adesk-attrib $-1 -1 $455 $-1 $432 -1056964608 #
ellipse-curve $-1 -1 $-1 0.79374999999999984 0 0 -1 0 0 0 0 3.5686999999999998 1 F 0 F 3.1415926535897931 #
DXID-attrib $-1 -1 $-1 $433 $397 @18 ASM_EDGE_FROM_STEP @2 23 #
DXID-attrib $-1 -1 $-1 $435 $398 @18 ASM_EDGE_FROM_STEP @2 25 #
DXID-attrib $-1 -1 $-1 $444 $418 @18 ASM_EDGE_FROM_STEP @2 28 #
DXID-attrib $-1 -1 $-1 $446 $419 @18 ASM_EDGE_FROM_STEP @2 29 #
DXID-attrib $-1 -1 $-1 $449 $432 @18 ASM_EDGE_FROM_STEP @2 26 #
