700 445 1 0         
5 ZWCAD 12 ACIS 28.0 NT 24 Mon May 13 11:10:30 2024 
1 9.9999999999999995e-07 1e-10 
body $1 -1 $-1 $2 $-1 $-1 #
DXID-attrib $-1 -1 $-1 $-1 $0 @18 ASM_BODY_FROM_STEP @83 7FB82F00406B3C0CA43280462B884E428026C0C7|:|CBE1C5916EAB30E44C5B921B6ADFD7864AF74C0D #
lump $-1 -1 $-1 $-1 $3 $0 #
shell $-1 -1 $-1 $-1 $-1 $4 $-1 $2 #
face $5 -1 $-1 $6 $7 $3 $-1 $8 reversed single #
truecolor-adesk-attrib $-1 -1 $9 $-1 $4 -1027161668 #
face $10 -1 $-1 $11 $12 $3 $-1 $13 forward single #
loop $-1 -1 $-1 $-1 $14 $4 #
torus-surface $-1 -1 $-1 629.16648307949538 89.384079696317954 -262.90767947587506 -0.15038373318043796 -0.50000000000000433 0.85286853195243983 2.1131370849898499 0.16 -0.71851202859351038 -0.5372749659308822 -0.44167417374169365 forward_v I I I I #
DXID-attrib $-1 -1 $-1 $5 $4 @18 ASM_FACE_FROM_STEP @19 CORPA Assembly-5591 #
truecolor-adesk-attrib $-1 -1 $15 $-1 $6 -1027161668 #
face $16 -1 $-1 $17 $18 $3 $-1 $19 reversed single #
loop $-1 -1 $-1 $-1 $20 $6 #
cone-surface $-1 -1 $-1 627.75199430055272 84.681148238812838 -254.88571497980442 0.15038373318043796 0.50000000000000433 -0.85286853195243983 1.4370240571870208 1.0745499318617644 0.88334834748338731 1 I I 0 1 2 forward I I I I #
coedge $-1 -1 $-1 $21 $22 $23 $24 reversed $7 $-1 #
DXID-attrib $-1 -1 $-1 $10 $6 @18 ASM_FACE_FROM_STEP @20 CORPA Assembly-31812 #
truecolor-adesk-attrib $-1 -1 $25 $-1 $11 -1027161668 #
face $26 -1 $-1 $27 $28 $3 $-1 $29 forward single #
loop $-1 -1 $-1 $-1 $30 $11 #
cone-surface $-1 -1 $-1 779.58943696016524 589.51448176642134 -1115.998643072493 0.15038373318043796 0.50000000000000433 -0.85286853195243983 1244.4993393733425 930.58753862712615 765.00210931161757 1 I I 0.86602540378443871 0.49999999999999989 1732.0508075688783 forward I I I I #
coedge $-1 -1 $-1 $31 $32 $33 $34 reversed $12 $-1 #
coedge $-1 -1 $-1 $35 $14 $36 $37 forward $7 $-1 #
coedge $-1 -1 $-1 $14 $35 $38 $39 reversed $7 $-1 #
coedge $-1 -1 $-1 $40 $41 $14 $24 forward $42 $-1 #
edge $43 -1 $-1 $44 -3.1415926535897931 $45 1.2246467991473535e-16 $14 $46 forward @7 unknown #
DXID-attrib $-1 -1 $-1 $16 $11 @18 ASM_FACE_FROM_STEP @20 CORPA Assembly-34020 #
truecolor-adesk-attrib $-1 -1 $47 $-1 $17 -1027161668 #
face $48 -1 $-1 $49 $50 $3 $-1 $51 forward single #
loop $-1 -1 $-1 $-1 $52 $17 #
cone-surface $-1 -1 $-1 629.55659909871792 90.681148238812895 -265.12013736323371 0.15038373318043796 0.50000000000000433 -0.85286853195243983 2.962065837876747 2.2149160470500622 1.8208017812501323 1 I I 0 1 4.1225000000000005 forward I I I I #
coedge $-1 -1 $-1 $53 $54 $55 $56 reversed $18 $-1 #
coedge $-1 -1 $-1 $57 $20 $58 $59 forward $12 $-1 #
coedge $-1 -1 $-1 $20 $57 $60 $61 reversed $12 $-1 #
coedge $-1 -1 $-1 $62 $62 $20 $34 forward $63 $-1 #
edge $64 -1 $-1 $65 1.2246467991473532e-16 $66 3.1415926535897931 $20 $67 forward @7 unknown #
coedge $-1 -1 $-1 $22 $21 $68 $69 reversed $7 $-1 #
coedge $-1 -1 $-1 $70 $71 $21 $37 reversed $72 $-1 #
edge $73 -1 $-1 $44 -3.254119203313625e-64 $74 0.78539816339744828 $21 $75 forward @7 unknown #
coedge $-1 -1 $-1 $71 $70 $22 $39 forward $72 $-1 #
edge $76 -1 $-1 $45 1.5707963267948966 $77 2.3561944901923448 $22 $78 forward @7 unknown #
coedge $-1 -1 $-1 $79 $23 $80 $81 reversed $42 $-1 #
coedge $-1 -1 $-1 $23 $79 $82 $83 forward $42 $-1 #
loop $-1 -1 $-1 $-1 $40 $84 #
truecolor-adesk-attrib $-1 -1 $85 $-1 $24 -1027161668 #
vertex $-1 -1 $-1 $24 $86 #
vertex $-1 -1 $-1 $24 $87 #
ellipse-curve $-1 -1 $-1 629.16648307949538 89.384079696317954 -262.90767947587506 -0.15038373318043796 -0.50000000000000433 0.85286853195243983 -1.4033524890572726 -1.0493716607962642 -0.8626502082171521 1 F -3.1415926535897931 F 1.2246467991473535e-16 #
DXID-attrib $-1 -1 $-1 $26 $17 @18 ASM_FACE_FROM_STEP @20 CORPA Assembly-18158 #
truecolor-adesk-attrib $-1 -1 $88 $-1 $27 -1027161668 #
face $89 -1 $-1 $90 $91 $3 $-1 $92 forward single #
loop $-1 -1 $-1 $-1 $93 $27 #
cone-surface $-1 -1 $-1 629.18349705669721 89.440648238812884 -263.00417053545971 0.15038373318043796 0.50000000000000433 -0.85286853195243983 1.4370240571870208 1.0745499318617644 0.88334834748338731 1 I I 0.70710678118654757 0.70710678118654757 2 forward I I I I #
coedge $-1 -1 $-1 $94 $95 $96 $97 forward $28 $-1 #
coedge $-1 -1 $-1 $98 $30 $99 $100 forward $18 $-1 #
coedge $-1 -1 $-1 $30 $101 $102 $103 forward $18 $-1 #
coedge $-1 -1 $-1 $104 $99 $30 $56 forward $105 $-1 #
edge $106 -1 $-1 $107 0 $108 0.0016666658895831516 $30 $109 forward @7 unknown #
coedge $-1 -1 $-1 $32 $31 $110 $111 forward $12 $-1 #
coedge $-1 -1 $-1 $112 $113 $31 $59 reversed $114 $-1 #
edge $115 -1 $-1 $65 0 $116 0.0088190000000000004 $31 $117 forward @7 unknown #
coedge $-1 -1 $-1 $113 $112 $32 $61 forward $114 $-1 #
edge $118 -1 $-1 $66 0 $119 0.0088190000000000004 $32 $120 forward @7 unknown #
coedge $-1 -1 $-1 $33 $33 $112 $121 forward $63 $-1 #
loop $-1 -1 $-1 $-1 $62 $122 #
truecolor-adesk-attrib $-1 -1 $123 $-1 $34 -1027161668 #
vertex $-1 -1 $-1 $34 $124 #
vertex $-1 -1 $-1 $34 $125 #
ellipse-curve $-1 -1 $-1 627.75199430055272 84.681148238812838 -254.88571497980442 -0.15038373318043796 -0.50000000000000433 0.85286853195243983 -1.4370240571870208 -1.0745499318617644 -0.88334834748338731 1 F 1.2246467991473532e-16 F 3.1415926535897931 #
coedge $-1 -1 $-1 $126 $127 $35 $69 forward $128 $-1 #
edge $129 -1 $-1 $77 -3.1415926535897931 $74 0 $35 $130 forward @7 unknown #
coedge $-1 -1 $-1 $38 $36 $131 $132 reversed $72 $-1 #
coedge $-1 -1 $-1 $36 $38 $93 $133 reversed $72 $-1 #
loop $-1 -1 $-1 $-1 $36 $134 #
truecolor-adesk-attrib $-1 -1 $135 $-1 $37 -1027161668 #
vertex $-1 -1 $-1 $37 $136 #
ellipse-curve $-1 -1 $-1 630.68479749312758 90.51941535166317 -261.97436139985922 0.67906199831911729 -0.67921691011337815 -0.27845859917567967 -0.11496192457496165 -0.085963994548941131 -0.070667867798670986 1 F -3.254119203313625e-64 F 0.78539816339744828 #
truecolor-adesk-attrib $-1 -1 $137 $-1 $39 -1027161668 #
vertex $-1 -1 $-1 $69 $138 #
ellipse-curve $-1 -1 $-1 627.64816866586307 88.248744040972753 -263.84099755189084 -0.6790619983191174 0.67921691011337804 0.27845859917567961 -0.024061397308870081 -0.080000000000000682 0.13645896511239036 1 F 1.5707963267948966 F 2.3561944901923448 #
coedge $-1 -1 $-1 $41 $40 $139 $140 forward $42 $-1 #
coedge $-1 -1 $-1 $131 $141 $40 $81 forward $91 $-1 #
edge $142 -1 $-1 $143 -0.0030678629150101555 $45 -0.0025941370849898462 $80 $144 forward @7 unknown #
coedge $-1 -1 $-1 $141 $131 $41 $83 reversed $91 $-1 #
edge $145 -1 $-1 $146 -0.0030678629150101555 $44 -0.0025941370849898462 $82 $147 forward @7 unknown #
face $148 -1 $-1 $149 $42 $3 $-1 $150 forward single #
DXID-attrib $-1 -1 $-1 $43 $24 @18 ASM_EDGE_FROM_STEP @5 24972 #
point $-1 -1 $-1 630.56983556855255 90.433451357114222 -262.04502926765787 #
point $-1 -1 $-1 627.7631305904381 88.3347080355217 -263.77032968409219 #
DXID-attrib $-1 -1 $-1 $48 $27 @18 ASM_FACE_FROM_STEP @20 CORPA Assembly-22753 #
truecolor-adesk-attrib $-1 -1 $151 $-1 $49 -1027161668 #
face $152 -1 $-1 $153 $154 $3 $-1 $155 reversed single #
loop $-1 -1 $-1 $-1 $141 $49 #
cone-surface $-1 -1 $-1 629.55659909871792 90.681148238812895 -265.12013736323371 0.15038373318043796 0.50000000000000433 -0.85286853195243983 1.4033524890572726 1.0493716607962642 0.8626502082171521 1 I I 0 1 1.9531370849898499 forward I I I I #
coedge $-1 -1 $-1 $156 $157 $71 $133 forward $50 $-1 #
coedge $-1 -1 $-1 $158 $52 $159 $160 forward $28 $-1 #
coedge $-1 -1 $-1 $52 $158 $161 $162 reversed $28 $-1 #
coedge $-1 -1 $-1 $157 $156 $52 $97 reversed $50 $-1 #
edge $163 -1 $-1 $164 0 $165 3.1415926535897931 $52 $166 forward @7 unknown #
coedge $-1 -1 $-1 $101 $53 $167 $168 forward $18 $-1 #
coedge $-1 -1 $-1 $55 $169 $53 $100 reversed $105 $-1 #
edge $170 -1 $-1 $107 0 $171 0.0016666658895831521 $53 $172 forward @7 unknown #
coedge $-1 -1 $-1 $54 $98 $173 $174 forward $18 $-1 #
coedge $-1 -1 $-1 $175 $176 $54 $103 reversed $177 $-1 #
edge $178 -1 $-1 $179 0.41380685070406309 $108 0.82863459980923604 $54 $180 forward @7 unknown #
coedge $-1 -1 $-1 $181 $55 $182 $183 forward $105 $-1 #
loop $-1 -1 $-1 $-1 $99 $184 #
truecolor-adesk-attrib $-1 -1 $185 $-1 $56 -1027161668 #
vertex $-1 -1 $-1 $56 $186 #
vertex $-1 -1 $-1 $56 $187 #
straight-curve $-1 -1 $-1 629.20570377972729 89.514481766417092 -263.13011112005307 697.44153627689002 715.29376931356501 -43.933211320411203 F 0 F 0.0016666658895831516 #
coedge $-1 -1 $-1 $188 $189 $57 $111 reversed $190 $-1 #
edge $191 -1 $-1 $116 1.2246467991473525e-16 $119 3.1415926535897931 $57 $192 forward @7 unknown #
coedge $-1 -1 $-1 $60 $58 $62 $121 reversed $114 $-1 #
coedge $-1 -1 $-1 $58 $60 $193 $194 forward $114 $-1 #
loop $-1 -1 $-1 $-1 $58 $195 #
truecolor-adesk-attrib $-1 -1 $196 $-1 $59 -1027161668 #
vertex $-1 -1 $-1 $59 $197 #
straight-curve $-1 -1 $-1 626.31497024336568 83.606598306951071 -255.76906332728782 150.38373318043796 500.00000000000426 -852.86853195243987 F 0 F 0.0088190000000000004 #
truecolor-adesk-attrib $-1 -1 $198 $-1 $61 -1027161668 #
vertex $-1 -1 $-1 $111 $199 #
straight-curve $-1 -1 $-1 629.18901835773966 85.755698170674606 -254.00236663232104 150.38373318043796 500.00000000000426 -852.86853195243987 F 0 F 0.0088190000000000004 #
edge $200 -1 $-1 $66 -3.1415926535897931 $65 1.2246467991473532e-16 $112 $201 forward @7 unknown #
face $202 -1 $-1 $134 $63 $3 $-1 $203 forward single #
DXID-attrib $-1 -1 $-1 $64 $34 @18 ASM_EDGE_FROM_STEP @5 14138 #
point $-1 -1 $-1 626.31497024336568 83.606598306951071 -255.76906332728782 #
point $-1 -1 $-1 629.18901835773966 85.755698170674606 -254.00236663232104 #
coedge $-1 -1 $-1 $204 $68 $157 $205 forward $128 $-1 #
coedge $-1 -1 $-1 $68 $204 $156 $206 reversed $128 $-1 #
loop $-1 -1 $-1 $-1 $127 $149 #
truecolor-adesk-attrib $-1 -1 $207 $-1 $69 -1027161668 #
ellipse-curve $-1 -1 $-1 629.18349705669721 89.440648238812884 -263.00417053545971 0.15038373318043796 0.50000000000000433 -0.85286853195243983 1.4370240571870228 1.0745499318617657 0.88334834748338853 1 F -3.1415926535897931 F 0 #
coedge $-1 -1 $-1 $82 $80 $70 $132 forward $91 $-1 #
edge $208 -1 $-1 $45 1.2246467991473535e-16 $44 3.1415926535897931 $131 $209 forward @7 unknown #
edge $210 -1 $-1 $74 0 $77 3.1415926535897931 $93 $211 forward @7 unknown #
face $212 -1 $-1 $-1 $72 $3 $-1 $213 reversed single #
DXID-attrib $-1 -1 $-1 $73 $37 @18 ASM_EDGE_FROM_STEP @5 14073 #
point $-1 -1 $-1 630.62052111388425 90.515198170674651 -262.12082218797633 #
DXID-attrib $-1 -1 $-1 $76 $39 @18 ASM_EDGE_FROM_STEP @5 37713 #
point $-1 -1 $-1 627.74647299951027 88.366098306951116 -263.88751888294308 #
coedge $-1 -1 $-1 $214 $215 $79 $140 reversed $154 $-1 #
edge $216 -1 $-1 $143 -3.1415926535897931 $146 0 $139 $217 forward @7 unknown #
coedge $-1 -1 $-1 $80 $82 $218 $219 forward $91 $-1 #
truecolor-adesk-attrib $-1 -1 $220 $-1 $81 -1027161668 #
vertex $-1 -1 $-1 $219 $221 #
straight-curve $-1 -1 $-1 628.15324660966064 89.631776578016627 -265.98278757145084 150.38373318043796 500.00000000000426 -852.86853195243987 F -0.0030678629150101555 F -0.0025941370849898462 #
truecolor-adesk-attrib $-1 -1 $222 $-1 $83 -1027161668 #
vertex $-1 -1 $-1 $219 $223 #
straight-curve $-1 -1 $-1 630.95995158777521 91.730519899609163 -264.25748715501658 150.38373318043796 500.00000000000426 -852.86853195243987 F -0.0030678629150101555 F -0.0025941370849898462 #
truecolor-adesk-attrib $-1 -1 $224 $-1 $84 -1027161668 #
face $225 -1 $-1 $226 $128 $3 $-1 $227 forward single #
cone-surface $-1 -1 $-1 629.55659909871792 90.681148238812895 -265.12013736323371 0.15038373318043796 0.50000000000000433 -0.85286853195243983 1.4033524890572726 1.0493716607962642 0.8626502082171521 1 I I 0 1 1.9531370849898499 forward I I I I #
DXID-attrib $-1 -1 $-1 $89 $49 @18 ASM_FACE_FROM_STEP @19 CORPA Assembly-8379 #
truecolor-adesk-attrib $-1 -1 $228 $-1 $90 -1027161668 #
face $229 -1 $-1 $230 $231 $3 $-1 $232 reversed single #
loop $-1 -1 $-1 $-1 $139 $90 #
torus-surface $-1 -1 $-1 629.09524242067289 89.147216781307804 -262.50365362267769 0.15038373318043796 0.50000000000000433 -0.85286853195243983 2.1131370849898499 0.16 0.71851202859351038 0.5372749659308822 0.44167417374169365 forward_v I I I I #
coedge $-1 -1 $-1 $96 $93 $127 $206 forward $50 $-1 #
coedge $-1 -1 $-1 $93 $96 $126 $205 reversed $50 $-1 #
coedge $-1 -1 $-1 $95 $94 $233 $234 reversed $28 $-1 #
coedge $-1 -1 $-1 $235 $236 $94 $160 reversed $237 $-1 #
edge $238 -1 $-1 $165 -0.00035849999999999972 $239 2.77555756156289e-19 $94 $240 forward @7 unknown #
coedge $-1 -1 $-1 $236 $235 $95 $162 forward $237 $-1 #
edge $241 -1 $-1 $164 -0.00035850000000000026 $242 2.77555756156289e-19 $95 $243 forward @7 unknown #
truecolor-adesk-attrib $-1 -1 $244 $-1 $97 -1027161668 #
vertex $-1 -1 $-1 $97 $245 #
vertex $-1 -1 $-1 $97 $246 #
ellipse-curve $-1 -1 $-1 629.50268653037278 90.501898238812899 -264.81438399452878 0.15038373318043796 0.50000000000000433 -0.85286853195243983 2.962065837876747 2.2149160470500622 1.8208017812501323 1 F 0 F 3.1415926535897931 #
coedge $-1 -1 $-1 $247 $248 $98 $168 reversed $249 $-1 #
edge $250 -1 $-1 $171 0.41380685070411355 $251 0.82863459980908039 $98 $252 forward @7 unknown #
coedge $-1 -1 $-1 $99 $181 $253 $254 forward $105 $-1 #
truecolor-adesk-attrib $-1 -1 $255 $-1 $100 -1027161668 #
vertex $-1 -1 $-1 $100 $256 #
straight-curve $-1 -1 $-1 629.20570377972729 89.514481766417092 -263.13011112005307 -547.05780309645195 -215.2937693135608 -808.93532063202861 F 0 F 0.0016666658895831521 #
coedge $-1 -1 $-1 $257 $258 $101 $174 reversed $259 $-1 #
edge $260 -1 $-1 $251 0.41380685070406587 $179 0.82863459980921317 $101 $261 forward @7 unknown #
coedge $-1 -1 $-1 $262 $102 $258 $263 forward $177 $-1 #
coedge $-1 -1 $-1 $102 $262 $264 $265 reversed $177 $-1 #
loop $-1 -1 $-1 $-1 $175 $266 #
truecolor-adesk-attrib $-1 -1 $267 $-1 $103 -1027161668 #
vertex $-1 -1 $-1 $174 $268 #
intcurve-curve $-1 -1 $-1 forward { exactcur full nurbs 2 open 2 
	0 2 1.2424414505132684 2 
	624.72063532359994 93.988617024154777 -265.20633575208541 1 
	629.58259939225104 90.598734014027514 -262.61120908070433 4.6188037686559174 
	635.40012668697045 90.385934076182394 -265.43535076081969 1 
	0 
	null_surface 
	null_surface 
	nullbs 
	nullbs 
	I I 
	0 
	0 
	0 
	F 1 F 0 } F 0.41380685070406309 F 0.82863459980923604 #
coedge $-1 -1 $-1 $169 $104 $269 $270 forward $105 $-1 #
coedge $-1 -1 $-1 $264 $271 $104 $183 reversed $272 $-1 #
edge $273 -1 $-1 $108 -0.8286345998092417 $274 -0.41380685070406553 $182 $275 forward @7 unknown #
face $276 -1 $-1 $195 $105 $3 $-1 $277 reversed single #
DXID-attrib $-1 -1 $-1 $106 $56 @18 ASM_EDGE_FROM_STEP @5 24475 #
point $-1 -1 $-1 629.20570377972729 89.514481766417092 -263.13011112005307 #
point $-1 -1 $-1 630.36810579821838 90.706637492763377 -263.20333310478065 #
coedge $-1 -1 $-1 $218 $110 $214 $278 reversed $190 $-1 #
coedge $-1 -1 $-1 $110 $218 $215 $279 forward $190 $-1 #
loop $-1 -1 $-1 $-1 $188 $230 #
truecolor-adesk-attrib $-1 -1 $280 $-1 $111 -1027161668 #
ellipse-curve $-1 -1 $-1 629.07822844347095 89.090648238812875 -262.40716256309298 -0.15038373318043796 -0.50000000000000433 0.85286853195243983 -1.4370240571870208 -1.0745499318617644 -0.88334834748338731 1 F 1.2246467991473525e-16 F 3.1415926535897931 #
coedge $-1 -1 $-1 $215 $214 $113 $194 reversed $154 $-1 #
edge $281 -1 $-1 $119 -3.1415926535897931 $116 1.2246467991473525e-16 $193 $282 forward @7 unknown #
face $283 -1 $-1 $122 $114 $3 $-1 $284 forward single #
DXID-attrib $-1 -1 $-1 $115 $59 @18 ASM_EDGE_FROM_STEP @5 12927 #
point $-1 -1 $-1 627.6412043862839 88.016098306951122 -263.29051091057636 #
DXID-attrib $-1 -1 $-1 $118 $61 @18 ASM_EDGE_FROM_STEP @5 31700 #
point $-1 -1 $-1 630.51525250065799 90.165198170674643 -261.5238142156096 #
truecolor-adesk-attrib $-1 -1 $285 $-1 $121 -1027161668 #
ellipse-curve $-1 -1 $-1 627.75199430055272 84.681148238812838 -254.88571497980442 -0.15038373318043796 -0.50000000000000433 0.85286853195243983 -1.4370240571870208 -1.0745499318617644 -0.88334834748338731 1 F -3.1415926535897931 F 1.2246467991473532e-16 #
truecolor-adesk-attrib $-1 -1 $286 $-1 $122 -1027161668 #
plane-surface $-1 -1 $-1 627.75199430055272 84.681148238812838 -254.88571497980442 -0.15038373318043796 -0.50000000000000433 0.85286853195243983 -0.71851202859351038 -0.5372749659308822 -0.44167417374169365 forward_v I I I I #
coedge $-1 -1 $-1 $127 $126 $235 $287 reversed $128 $-1 #
edge $288 -1 $-1 $74 3.1401849173675502e-18 $164 0.0030016682861368953 $157 $289 forward @7 unknown #
edge $290 -1 $-1 $77 3.1401849173675502e-18 $165 0.0030016682861368953 $156 $291 forward @7 unknown #
DXID-attrib $-1 -1 $-1 $129 $69 @18 ASM_EDGE_FROM_STEP @5 14760 #
truecolor-adesk-attrib $-1 -1 $292 $-1 $132 -1027161668 #
ellipse-curve $-1 -1 $-1 629.16648307949538 89.384079696317954 -262.90767947587506 -0.15038373318043796 -0.50000000000000433 0.85286853195243983 -1.4033524890572726 -1.0493716607962642 -0.8626502082171521 1 F 1.2246467991473535e-16 F 3.1415926535897931 #
truecolor-adesk-attrib $-1 -1 $293 $-1 $133 -1027161668 #
ellipse-curve $-1 -1 $-1 629.18349705669721 89.440648238812884 -263.00417053545971 0.15038373318043796 0.50000000000000433 -0.85286853195243983 1.4370240571870228 1.0745499318617657 0.88334834748338853 1 F 0 F 3.1415926535897931 #
truecolor-adesk-attrib $-1 -1 $294 $-1 $134 -1027161668 #
torus-surface $-1 -1 $-1 629.16648307949538 89.384079696317954 -262.90767947587506 -0.15038373318043796 -0.50000000000000433 0.85286853195243983 2.1131370849898499 0.16 -0.71851202859351038 -0.5372749659308822 -0.44167417374169365 forward_v I I I I #
coedge $-1 -1 $-1 $193 $139 $188 $278 forward $154 $-1 #
coedge $-1 -1 $-1 $139 $193 $189 $279 reversed $154 $-1 #
truecolor-adesk-attrib $-1 -1 $295 $-1 $140 -1027161668 #
ellipse-curve $-1 -1 $-1 629.09524242067289 89.147216781307804 -262.50365362267769 0.15038373318043796 0.50000000000000433 -0.85286853195243983 1.4033524890572726 1.0493716607962642 0.8626502082171521 1 F -3.1415926535897931 F 0 #
coedge $-1 -1 $-1 $189 $188 $141 $219 reversed $190 $-1 #
edge $296 -1 $-1 $146 0 $143 3.1415926535897931 $141 $297 forward @7 unknown #
DXID-attrib $-1 -1 $-1 $142 $81 @18 ASM_EDGE_FROM_STEP @5 12974 #
point $-1 -1 $-1 627.69188993161561 88.097845120511536 -263.36630383089482 #
DXID-attrib $-1 -1 $-1 $145 $83 @18 ASM_EDGE_FROM_STEP @5 18416 #
point $-1 -1 $-1 630.49859490973017 90.196588442104073 -261.6410034144605 #
DXID-attrib $-1 -1 $-1 $148 $84 @18 ASM_FACE_FROM_STEP @20 CORPA Assembly-36718 #
truecolor-adesk-attrib $-1 -1 $298 $-1 $149 -1027161668 #
face $299 -1 $-1 $300 $237 $3 $-1 $301 forward single #
cone-surface $-1 -1 $-1 629.18349705669721 89.440648238812884 -263.00417053545971 0.15038373318043796 0.50000000000000433 -0.85286853195243983 1.4370240571870208 1.0745499318617644 0.88334834748338731 1 I I 0.70710678118654757 0.70710678118654757 2 forward I I I I #
DXID-attrib $-1 -1 $-1 $152 $90 @18 ASM_FACE_FROM_STEP @20 CORPA Assembly-26540 #
truecolor-adesk-attrib $-1 -1 $302 $-1 $153 -1027161668 #
face $303 -1 $-1 $84 $190 $3 $-1 $304 reversed single #
loop $-1 -1 $-1 $305 $233 $153 #
plane-surface $-1 -1 $-1 632.35603218678852 87.881076526870487 -266.26808293833545 -0.15038373318043796 -0.50000000000000433 0.85286853195243983 -0.71851202859351038 -0.5372749659308822 -0.44167417374169365 forward_v I I I I #
coedge $-1 -1 $-1 $306 $306 $158 $234 forward $231 $-1 #
edge $307 -1 $-1 $242 0 $239 3.1415926535897931 $158 $308 forward @7 unknown #
coedge $-1 -1 $-1 $161 $159 $204 $287 forward $237 $-1 #
coedge $-1 -1 $-1 $159 $161 $306 $309 reversed $237 $-1 #
loop $-1 -1 $-1 $-1 $159 $226 #
truecolor-adesk-attrib $-1 -1 $310 $-1 $160 -1027161668 #
vertex $-1 -1 $-1 $160 $311 #
straight-curve $-1 -1 $-1 626.59453326084122 88.466232191762828 -266.94093914448382 150.38373318043796 500.00000000000426 -852.86853195243987 F -0.00035849999999999972 F 2.77555756156289e-19 #
truecolor-adesk-attrib $-1 -1 $312 $-1 $162 -1027161668 #
vertex $-1 -1 $-1 $234 $313 #
straight-curve $-1 -1 $-1 632.51866493659463 92.896064285862963 -263.2993355819836 150.38373318043796 500.00000000000426 -852.86853195243987 F -0.00035850000000000026 F 2.77555756156289e-19 #
DXID-attrib $-1 -1 $-1 $163 $97 @18 ASM_EDGE_FROM_STEP @5 10134 #
point $-1 -1 $-1 632.46475236824949 92.716814285862952 -262.99358221327861 #
point $-1 -1 $-1 626.54062069249596 88.286982191762831 -266.63518577577889 #
coedge $-1 -1 $-1 $314 $167 $315 $316 forward $249 $-1 #
coedge $-1 -1 $-1 $167 $314 $257 $317 reversed $249 $-1 #
loop $-1 -1 $-1 $-1 $247 $318 #
truecolor-adesk-attrib $-1 -1 $319 $-1 $168 -1027161668 #
vertex $-1 -1 $-1 $168 $320 #
intcurve-curve $-1 -1 $-1 forward { exactcur full nurbs 2 open 2 
	0 2 1.2424414505132382 2 
	629.79456590631503 86.194316737018852 -268.88112665270177 1 
	628.02697594334427 89.435500133101783 -263.56746127149097 4.6188037686532004 
	627.21494920644182 95.853766601466845 -263.67306424177656 1 
	0 
	null_surface 
	null_surface 
	nullbs 
	nullbs 
	I I 
	0 
	0 
	0 
	F 1 F 0 } F 0.41380685070411355 F 0.82863459980908039 #
coedge $-1 -1 $-1 $321 $315 $169 $254 reversed $322 $-1 #
edge $323 -1 $-1 $324 -0.82863459980908039 $171 -0.41380685070411305 $253 $325 forward @7 unknown #
DXID-attrib $-1 -1 $-1 $170 $100 @18 ASM_EDGE_FROM_STEP @5 26156 #
point $-1 -1 $-1 628.29394119967606 89.155658984862399 -264.47833602582949 #
coedge $-1 -1 $-1 $326 $173 $248 $317 forward $259 $-1 #
coedge $-1 -1 $-1 $173 $326 $175 $263 reversed $259 $-1 #
loop $-1 -1 $-1 $-1 $257 $327 #
truecolor-adesk-attrib $-1 -1 $328 $-1 $174 -1027161668 #
intcurve-curve $-1 -1 $-1 forward { exactcur full nurbs 2 open 2 
	0 2 1.2424414505132821 2 
	624.80821839801661 89.001785522360592 -268.11445650960115 1 
	628.38037411673122 90.441627444457311 -262.91529863275741 4.618803768655483 
	632.90809306151414 95.058552438836216 -263.13540910741023 1 
	0 
	null_surface 
	null_surface 
	nullbs 
	nullbs 
	I I 
	0 
	0 
	0 
	F 1 F 0 } F 0.41380685070406587 F 0.82863459980921317 #
coedge $-1 -1 $-1 $176 $175 $329 $330 reversed $177 $-1 #
edge $331 -1 $-1 $179 0.00083333294479157494 $332 0.0023333329447915753 $175 $333 forward @7 unknown #
coedge $-1 -1 $-1 $334 $182 $176 $265 forward $272 $-1 #
edge $335 -1 $-1 $108 0.00083333294479157494 $336 0.0023333329447915753 $264 $337 forward @7 unknown #
face $338 -1 $-1 $327 $177 $3 $-1 $339 forward single #
DXID-attrib $-1 -1 $-1 $178 $103 @18 ASM_EDGE_FROM_STEP @4 7298 #
point $-1 -1 $-1 629.00073754644984 91.167913607573652 -263.17401074836243 #
coedge $-1 -1 $-1 $340 $341 $181 $270 reversed $342 $-1 #
edge $343 -1 $-1 $274 -0.8286345998092145 $324 -0.4138068507040682 $269 $344 forward @7 unknown #
coedge $-1 -1 $-1 $182 $334 $340 $345 reversed $272 $-1 #
loop $-1 -1 $-1 $-1 $264 $300 #
truecolor-adesk-attrib $-1 -1 $346 $-1 $183 -1027161668 #
vertex $-1 -1 $-1 $345 $347 #
intcurve-curve $-1 -1 $-1 reversed { exactcur full nurbs 2 open 2 
	0 2 1.2424414505132968 2 
	632.1990164573549 86.508529876158903 -268.27294754859565 1 
	630.43142649438403 89.749713272241848 -262.9592821673848 4.6188037686559662 
	629.61939975748157 96.167979740607223 -263.06488513767039 1 
	0 
	null_surface 
	null_surface 
	nullbs 
	nullbs 
	I I 
	0 
	0 
	0 
	F 1 F 0 } F -0.8286345998092417 F -0.41380685070406553 #
truecolor-adesk-attrib $-1 -1 $348 $-1 $184 -1027161668 #
cone-surface $-1 -1 $-1 779.58943696016524 589.51448176642134 -1115.998643072493 0.15038373318043796 0.50000000000000433 -0.85286853195243983 1244.4993393733425 930.58753862712615 765.00210931161757 1 I I 0.86602540378443871 0.49999999999999989 1732.0508075688783 forward I I I I #
edge $349 -1 $-1 $143 -3.1415926535897931 $116 -2.3561944901923684 $214 $350 forward @7 unknown #
edge $351 -1 $-1 $146 -1.5707963267948966 $119 -0.7853981633974717 $215 $352 forward @7 unknown #
DXID-attrib $-1 -1 $-1 $191 $111 @18 ASM_EDGE_FROM_STEP @5 30873 #
truecolor-adesk-attrib $-1 -1 $353 $-1 $194 -1027161668 #
ellipse-curve $-1 -1 $-1 629.07822844347095 89.090648238812875 -262.40716256309298 -0.15038373318043796 -0.50000000000000433 0.85286853195243983 -1.4370240571870208 -1.0745499318617644 -0.88334834748338731 1 F -3.1415926535897931 F 1.2246467991473525e-16 #
truecolor-adesk-attrib $-1 -1 $354 $-1 $195 -1027161668 #
cone-surface $-1 -1 $-1 627.75199430055272 84.681148238812838 -254.88571497980442 0.15038373318043796 0.50000000000000433 -0.85286853195243983 1.4370240571870208 1.0745499318617644 0.88334834748338731 1 I I 0 1 2 forward I I I I #
DXID-attrib $-1 -1 $-1 $200 $121 @18 ASM_EDGE_FROM_STEP @5 17324 #
DXID-attrib $-1 -1 $-1 $202 $122 @18 ASM_FACE_FROM_STEP @20 CORPA Assembly-14314 #
edge $355 -1 $-1 $165 -3.1415926535897931 $164 0 $204 $356 forward @7 unknown #
truecolor-adesk-attrib $-1 -1 $357 $-1 $205 -1027161668 #
straight-curve $-1 -1 $-1 630.62052111388425 90.515198170674651 -262.12082218797633 614.40208529460983 733.46416236477489 -290.75831907646892 F 3.1401849173675502e-18 F 0.0030016682861368953 #
truecolor-adesk-attrib $-1 -1 $358 $-1 $206 -1027161668 #
straight-curve $-1 -1 $-1 627.74647299951027 88.366098306951116 -263.88751888294308 -401.72737027053756 -26.357381178221317 -915.37992573190286 F 3.1401849173675502e-18 F 0.0030016682861368953 #
DXID-attrib $-1 -1 $-1 $208 $132 @18 ASM_EDGE_FROM_STEP @5 37933 #
DXID-attrib $-1 -1 $-1 $210 $133 @18 ASM_EDGE_FROM_STEP @4 8121 #
DXID-attrib $-1 -1 $-1 $212 $134 @18 ASM_FACE_FROM_STEP @20 CORPA Assembly-30626 #
DXID-attrib $-1 -1 $-1 $216 $140 @18 ASM_EDGE_FROM_STEP @5 23243 #
truecolor-adesk-attrib $-1 -1 $359 $-1 $219 -1027161668 #
ellipse-curve $-1 -1 $-1 629.09524242067289 89.147216781307804 -262.50365362267769 0.15038373318043796 0.50000000000000433 -0.85286853195243983 1.4033524890572726 1.0493716607962642 0.8626502082171521 1 F 0 F 3.1415926535897931 #
DXID-attrib $-1 -1 $-1 $225 $149 @18 ASM_FACE_FROM_STEP @20 CORPA Assembly-15889 #
truecolor-adesk-attrib $-1 -1 $360 $-1 $226 -1027161668 #
face $361 -1 $-1 $266 $272 $3 $-1 $362 forward single #
cone-surface $-1 -1 $-1 629.55659909871792 90.681148238812895 -265.12013736323371 0.15038373318043796 0.50000000000000433 -0.85286853195243983 2.962065837876747 2.2149160470500622 1.8208017812501323 1 I I 0 1 4.1225000000000005 forward I I I I #
DXID-attrib $-1 -1 $-1 $229 $153 @18 ASM_FACE_FROM_STEP @20 CORPA Assembly-27888 #
truecolor-adesk-attrib $-1 -1 $363 $-1 $230 -1027161668 #
torus-surface $-1 -1 $-1 629.09524242067289 89.147216781307804 -262.50365362267769 0.15038373318043796 0.50000000000000433 -0.85286853195243983 2.1131370849898499 0.16 0.71851202859351038 0.5372749659308822 0.44167417374169365 forward_v I I I I #
loop $-1 -1 $-1 $-1 $364 $153 #
coedge $-1 -1 $-1 $233 $233 $236 $309 forward $231 $-1 #
truecolor-adesk-attrib $-1 -1 $365 $-1 $234 -1027161668 #
ellipse-curve $-1 -1 $-1 629.55659909871792 90.681148238812895 -265.12013736323371 0.15038373318043796 0.50000000000000433 -0.85286853195243983 2.962065837876747 2.2149160470500622 1.8208017812501323 1 F 0 F 3.1415926535897931 #
edge $366 -1 $-1 $239 -3.1415926535897931 $242 0 $306 $367 forward @7 unknown #
DXID-attrib $-1 -1 $-1 $238 $160 @18 ASM_EDGE_FROM_STEP @4 3693 #
point $-1 -1 $-1 626.59453326084122 88.466232191762828 -266.94093914448382 #
DXID-attrib $-1 -1 $-1 $241 $162 @18 ASM_EDGE_FROM_STEP @5 17368 #
point $-1 -1 $-1 632.51866493659463 92.896064285862963 -263.2993355819836 #
coedge $-1 -1 $-1 $248 $247 $368 $369 reversed $249 $-1 #
coedge $-1 -1 $-1 $253 $370 $247 $316 reversed $322 $-1 #
edge $371 -1 $-1 $171 0.00083333294479157494 $372 0.0023333329447915753 $247 $373 forward @7 unknown #
edge $374 -1 $-1 $251 0.00083333294479157494 $375 0.0023333329447915753 $257 $376 forward @7 unknown #
face $377 -1 $-1 $378 $249 $3 $-1 $379 forward single #
DXID-attrib $-1 -1 $-1 $250 $168 @18 ASM_EDGE_FROM_STEP @5 24961 #
point $-1 -1 $-1 627.96365524717874 90.39242435362317 -263.81151220888682 #
coedge $-1 -1 $-1 $370 $253 $341 $380 forward $322 $-1 #
loop $-1 -1 $-1 $-1 $321 $378 #
truecolor-adesk-attrib $-1 -1 $381 $-1 $254 -1027161668 #
vertex $-1 -1 $-1 $380 $382 #
intcurve-curve $-1 -1 $-1 reversed { exactcur full nurbs 2 open 2 
	0 2 1.2424414505132382 2 
	624.01383897682638 91.976362401443424 -266.51066102955247 1 
	628.87580304547737 88.586479391316132 -263.91553435817144 4.6188037686532004 
	634.69333034019678 88.373679453470956 -266.7396760382868 1 
	0 
	null_surface 
	null_surface 
	nullbs 
	nullbs 
	I I 
	0 
	0 
	0 
	F 1 F 0 } F -0.82863459980908039 F -0.41380685070411305 #
coedge $-1 -1 $-1 $258 $257 $383 $384 reversed $259 $-1 #
face $385 -1 $-1 $318 $259 $3 $-1 $386 forward single #
DXID-attrib $-1 -1 $-1 $260 $174 @18 ASM_EDGE_FROM_STEP @5 19740 #
coedge $-1 -1 $-1 $383 $364 $262 $330 forward $305 $-1 #
edge $387 -1 $-1 $336 0 $332 0.001443375 $329 $388 forward @7 unknown #
truecolor-adesk-attrib $-1 -1 $389 $-1 $263 -1027161668 #
vertex $-1 -1 $-1 $330 $390 #
straight-curve $-1 -1 $-1 628.87541782722985 90.751247135177863 -262.46328730311046 150.38373318043796 500.00000000000426 -852.86853195243987 F 0.00083333294479157494 F 0.0023333329447915753 #
coedge $-1 -1 $-1 $271 $264 $364 $391 reversed $272 $-1 #
truecolor-adesk-attrib $-1 -1 $392 $-1 $265 -1027161668 #
vertex $-1 -1 $-1 $391 $393 #
straight-curve $-1 -1 $-1 630.24278607899839 90.289971020367588 -262.49260965952863 150.38373318043796 500.00000000000426 -852.86853195243987 F 0.00083333294479157494 F 0.0023333329447915753 #
truecolor-adesk-attrib $-1 -1 $394 $-1 $266 -1027161668 #
plane-surface $-1 -1 $-1 630.24278607899839 90.289971020367588 -262.49260965952863 -0.2827186705271123 -0.80490222437025172 -0.52173035424364844 0.94734095558573672 -0.31958161587271611 -0.020315133917520378 forward_v I I I I #
coedge $-1 -1 $-1 $395 $269 $271 $345 forward $342 $-1 #
coedge $-1 -1 $-1 $269 $395 $321 $380 reversed $342 $-1 #
loop $-1 -1 $-1 $-1 $340 $396 #
truecolor-adesk-attrib $-1 -1 $397 $-1 $270 -1027161668 #
intcurve-curve $-1 -1 $-1 reversed { exactcur full nurbs 2 open 2 
	0 2 1.2424414505132821 2 
	626.50587260228258 87.303744038789532 -268.81060268296199 1 
	630.07802832099719 88.743585960886264 -263.61144480611824 4.6188037686554511 
	634.60574726578 93.360510955265198 -263.831555280771 1 
	0 
	null_surface 
	null_surface 
	nullbs 
	nullbs 
	I I 
	0 
	0 
	0 
	F 1 F 0 } F -0.8286345998092145 F -0.4138068507040682 #
edge $398 -1 $-1 $274 0.00083333294479157494 $399 0.0023333329447915753 $271 $400 forward @7 unknown #
DXID-attrib $-1 -1 $-1 $273 $183 @18 ASM_EDGE_FROM_STEP @5 38166 #
point $-1 -1 $-1 630.69839175071581 89.469872124002606 -263.87015692172326 #
DXID-attrib $-1 -1 $-1 $276 $184 @18 ASM_FACE_FROM_STEP @20 CORPA Assembly-20106 #
truecolor-adesk-attrib $-1 -1 $401 $-1 $278 -1027161668 #
ellipse-curve $-1 -1 $-1 627.57692800704069 88.011881125962603 -263.43697169869347 0.67906199831911751 -0.67921691011337793 -0.27845859917567956 -0.11496192457496163 -0.085963994548941158 -0.070667867798670986 1 F -3.1415926535897931 F -2.3561944901923684 #
truecolor-adesk-attrib $-1 -1 $402 $-1 $279 -1027161668 #
ellipse-curve $-1 -1 $-1 630.61355683430509 90.282552436653006 -261.57033554666185 -0.6790619983191174 0.67921691011337804 0.27845859917567961 -0.024061397308870081 -0.080000000000000682 0.13645896511239036 1 F -1.5707963267948966 F -0.7853981633974717 #
DXID-attrib $-1 -1 $-1 $281 $194 @18 ASM_EDGE_FROM_STEP @4 5008 #
DXID-attrib $-1 -1 $-1 $283 $195 @18 ASM_FACE_FROM_STEP @20 CORPA Assembly-15505 #
truecolor-adesk-attrib $-1 -1 $403 $-1 $287 -1027161668 #
ellipse-curve $-1 -1 $-1 629.50268653037278 90.501898238812899 -264.81438399452878 0.15038373318043796 0.50000000000000433 -0.85286853195243983 2.962065837876747 2.2149160470500622 1.8208017812501323 1 F -3.1415926535897931 F 0 #
DXID-attrib $-1 -1 $-1 $288 $205 @18 ASM_EDGE_FROM_STEP @5 19856 #
DXID-attrib $-1 -1 $-1 $290 $206 @18 ASM_EDGE_FROM_STEP @5 19037 #
DXID-attrib $-1 -1 $-1 $296 $219 @18 ASM_EDGE_FROM_STEP @5 33246 #
DXID-attrib $-1 -1 $-1 $299 $226 @18 ASM_FACE_FROM_STEP @20 CORPA Assembly-35202 #
truecolor-adesk-attrib $-1 -1 $404 $-1 $300 -1027161668 #
plane-surface $-1 -1 $-1 630.57307203149583 89.053205651606817 -263.15943347647124 -0.96178066884622981 -0.12568531425687349 -0.24327175506796858 0.22882892699222596 -0.85685658180359825 -0.46198930765921403 forward_v I I I I #
DXID-attrib $-1 -1 $-1 $303 $230 @18 ASM_FACE_FROM_STEP @20 CORPA Assembly-30733 #
coedge $-1 -1 $-1 $329 $405 $334 $391 forward $305 $-1 #
DXID-attrib $-1 -1 $-1 $307 $234 @18 ASM_EDGE_FROM_STEP @4 2501 #
truecolor-adesk-attrib $-1 -1 $406 $-1 $309 -1027161668 #
ellipse-curve $-1 -1 $-1 629.55659909871792 90.681148238812895 -265.12013736323371 0.15038373318043796 0.50000000000000433 -0.85286853195243983 2.962065837876747 2.2149160470500622 1.8208017812501323 1 F -3.1415926535897931 F 0 #
coedge $-1 -1 $-1 $407 $383 $314 $369 forward $305 $-1 #
edge $408 -1 $-1 $375 0 $372 0.0014433750000000004 $368 $409 forward @7 unknown #
coedge $-1 -1 $-1 $315 $321 $407 $410 reversed $322 $-1 #
truecolor-adesk-attrib $-1 -1 $411 $-1 $316 -1027161668 #
vertex $-1 -1 $-1 $369 $412 #
straight-curve $-1 -1 $-1 628.16862148045607 88.738992512466609 -263.76761258057746 150.38373318043796 500.00000000000426 -852.86853195243987 F 0.00083333294479157494 F 0.0023333329447915753 #
truecolor-adesk-attrib $-1 -1 $413 $-1 $317 -1027161668 #
vertex $-1 -1 $-1 $384 $414 #
straight-curve $-1 -1 $-1 627.83833552795875 89.975757881227381 -263.10078876363485 150.38373318043796 500.00000000000426 -852.86853195243987 F 0.00083333294479157494 F 0.0023333329447915753 #
truecolor-adesk-attrib $-1 -1 $415 $-1 $318 -1027161668 #
face $416 -1 $-1 $396 $322 $3 $-1 $417 forward single #
plane-surface $-1 -1 $-1 627.83833552795875 89.975757881227381 -263.10078876363485 0.96178066884622959 0.12568531425687388 0.2432717550679688 -0.22882892699222646 0.85685658180359825 0.46198930765921398 forward_v I I I I #
edge $418 -1 $-1 $324 0.00083333294479157494 $419 0.0023333329447915753 $321 $420 forward @7 unknown #
DXID-attrib $-1 -1 $-1 $323 $254 @18 ASM_EDGE_FROM_STEP @5 37543 #
point $-1 -1 $-1 629.66130945144471 88.694382870052124 -264.50765838224766 #
coedge $-1 -1 $-1 $368 $329 $326 $384 forward $305 $-1 #
edge $421 -1 $-1 $332 0 $375 0.001443375 $383 $422 forward @7 unknown #
truecolor-adesk-attrib $-1 -1 $423 $-1 $327 -1027161668 #
plane-surface $-1 -1 $-1 628.87541782722985 90.751247135177863 -262.46328730311046 0.67906199831911729 -0.67921691011337815 -0.27845859917567972 0.71851202859351049 0.53727496593088209 0.4416741737416936 forward_v I I I I #
truecolor-adesk-attrib $-1 -1 $424 $-1 $330 -1027161668 #
straight-curve $-1 -1 $-1 630.59368139798903 91.456637492763377 -264.48263590270932 -947.34095558573676 319.5816158727161 20.315133917520338 F 0 F 0.001443375 #
DXID-attrib $-1 -1 $-1 $331 $263 @18 ASM_EDGE_FROM_STEP @4 8552 #
point $-1 -1 $-1 629.22631314622049 91.917913607573666 -264.4533135462911 #
edge $425 -1 $-1 $399 7.7279391571397094e-36 $336 0.001443375 $364 $426 forward @7 unknown #
DXID-attrib $-1 -1 $-1 $335 $265 @18 ASM_EDGE_FROM_STEP @5 28479 #
point $-1 -1 $-1 630.59368139798903 91.456637492763377 -264.48263590270932 #
DXID-attrib $-1 -1 $-1 $338 $266 @18 ASM_FACE_FROM_STEP @20 CORPA Assembly-35975 #
coedge $-1 -1 $-1 $341 $340 $405 $427 reversed $342 $-1 #
face $428 -1 $-1 $184 $342 $3 $-1 $429 forward single #
DXID-attrib $-1 -1 $-1 $343 $270 @18 ASM_EDGE_FROM_STEP @5 12499 #
truecolor-adesk-attrib $-1 -1 $430 $-1 $345 -1027161668 #
vertex $-1 -1 $-1 $391 $431 #
straight-curve $-1 -1 $-1 630.57307203149583 89.053205651606817 -263.15943347647124 150.38373318043796 500.00000000000426 -852.86853195243987 F 0.00083333294479157494 F 0.0023333329447915753 #
DXID-attrib $-1 -1 $-1 $349 $278 @18 ASM_EDGE_FROM_STEP @3 235 #
DXID-attrib $-1 -1 $-1 $351 $279 @18 ASM_EDGE_FROM_STEP @5 34756 #
DXID-attrib $-1 -1 $-1 $355 $287 @18 ASM_EDGE_FROM_STEP @5 31690 #
DXID-attrib $-1 -1 $-1 $361 $300 @18 ASM_FACE_FROM_STEP @20 CORPA Assembly-36933 #
coedge $-1 -1 $-1 $364 $407 $395 $427 forward $305 $-1 #
DXID-attrib $-1 -1 $-1 $366 $309 @18 ASM_EDGE_FROM_STEP @4 5487 #
coedge $-1 -1 $-1 $405 $368 $370 $410 forward $305 $-1 #
truecolor-adesk-attrib $-1 -1 $432 $-1 $369 -1027161668 #
straight-curve $-1 -1 $-1 628.18923084694939 91.14242435362317 -265.09081500681549 228.8289269922264 -856.85658180359815 -461.98930765921398 F 0 F 0.0014433750000000004 #
edge $433 -1 $-1 $372 5.1363122655310983e-19 $419 0.0014433750000000004 $407 $434 forward @7 unknown #
DXID-attrib $-1 -1 $-1 $371 $316 @18 ASM_EDGE_FROM_STEP @4 5210 #
point $-1 -1 $-1 628.51951679944682 89.905658984862413 -265.7576388237581 #
DXID-attrib $-1 -1 $-1 $374 $317 @18 ASM_EDGE_FROM_STEP @5 15391 #
point $-1 -1 $-1 628.18923084694939 91.14242435362317 -265.09081500681549 #
DXID-attrib $-1 -1 $-1 $377 $318 @18 ASM_FACE_FROM_STEP @20 CORPA Assembly-22394 #
truecolor-adesk-attrib $-1 -1 $435 $-1 $378 -1027161668 #
plane-surface $-1 -1 $-1 628.16862148045607 88.738992512466609 -263.76761258057746 0.2827186705271123 0.80490222437025172 0.52173035424364844 -0.94734095558573672 0.31958161587271611 0.020315133917520378 forward_v I I I I #
truecolor-adesk-attrib $-1 -1 $436 $-1 $380 -1027161668 #
vertex $-1 -1 $-1 $410 $437 #
straight-curve $-1 -1 $-1 629.53598973222472 88.277716397656334 -263.79693493699568 150.38373318043796 500.00000000000426 -852.86853195243987 F 0.00083333294479157494 F 0.0023333329447915753 #
truecolor-adesk-attrib $-1 -1 $438 $-1 $384 -1027161668 #
straight-curve $-1 -1 $-1 629.22631314622049 91.917913607573666 -264.4533135462911 -718.51202859351054 -537.2749659308821 -441.67417374169361 F 0 F 0.001443375 #
DXID-attrib $-1 -1 $-1 $385 $327 @18 ASM_FACE_FROM_STEP @20 CORPA Assembly-21054 #
DXID-attrib $-1 -1 $-1 $387 $330 @18 ASM_EDGE_FROM_STEP @5 32008 #
truecolor-adesk-attrib $-1 -1 $439 $-1 $391 -1027161668 #
straight-curve $-1 -1 $-1 630.92396735048646 90.21987212400262 -265.14945971965193 -228.8289269922264 856.85658180359815 461.98930765921398 F 7.7279391571397094e-36 F 0.001443375 #
edge $440 -1 $-1 $419 0 $399 0.001443375 $405 $441 forward @7 unknown #
truecolor-adesk-attrib $-1 -1 $442 $-1 $396 -1027161668 #
plane-surface $-1 -1 $-1 629.53598973222472 88.277716397656334 -263.79693493699568 -0.67906199831911696 0.67921691011337837 0.27845859917567989 -0.71851202859351082 -0.53727496593088175 -0.44167417374169349 forward_v I I I I #
DXID-attrib $-1 -1 $-1 $398 $345 @18 ASM_EDGE_FROM_STEP @5 29306 #
point $-1 -1 $-1 630.92396735048646 90.21987212400262 -265.14945971965193 #
DXID-attrib $-1 -1 $-1 $408 $369 @18 ASM_EDGE_FROM_STEP @5 26475 #
truecolor-adesk-attrib $-1 -1 $443 $-1 $410 -1027161668 #
straight-curve $-1 -1 $-1 628.51951679944682 89.905658984862413 -265.7576388237581 947.34095558573676 -319.5816158727161 -20.315133917520338 F 5.1363122655310983e-19 F 0.0014433750000000004 #
DXID-attrib $-1 -1 $-1 $416 $378 @18 ASM_FACE_FROM_STEP @20 CORPA Assembly-27105 #
DXID-attrib $-1 -1 $-1 $418 $380 @18 ASM_EDGE_FROM_STEP @5 30704 #
point $-1 -1 $-1 629.88688505121536 89.444382870052124 -265.78696118017632 #
DXID-attrib $-1 -1 $-1 $421 $384 @18 ASM_EDGE_FROM_STEP @5 36855 #
DXID-attrib $-1 -1 $-1 $425 $391 @18 ASM_EDGE_FROM_STEP @3 313 #
truecolor-adesk-attrib $-1 -1 $444 $-1 $427 -1027161668 #
straight-curve $-1 -1 $-1 629.88688505121536 89.444382870052124 -265.78696118017632 718.51202859351076 537.27496593088188 441.67417374169349 F 0 F 0.001443375 #
DXID-attrib $-1 -1 $-1 $428 $396 @18 ASM_FACE_FROM_STEP @20 CORPA Assembly-32209 #
DXID-attrib $-1 -1 $-1 $433 $410 @18 ASM_EDGE_FROM_STEP @5 22012 #
DXID-attrib $-1 -1 $-1 $440 $427 @18 ASM_EDGE_FROM_STEP @5 16800 #
