700 295 1 0         
16 Autodesk AutoCAD 20 ASM 229.2.0.65535 NT 24 Wed Mar  6 00:30:42 2024 
1 9.999999999999999547e-07 1.000000000000000036e-10 
body $1 -1 $-1 $2 $-1 $3 #
DXID-attrib $-1 -1 $-1 $-1 $0 @18 ASM_BODY_FROM_STEP @83 AC4B5BEA8E4EEF5D1CA73FBDD25AD0AEB4BB14B1|:|0260B668D889EBDE4E6FB7CDCD265BBE0D083FF9 #
lump $-1 -1 $-1 $-1 $4 $0 #
transform $-1 -1 1 0 0 0 1 0 0 0 1 0 0 0 1 no_rotate no_reflect no_shear #
shell $-1 -1 $-1 $-1 $-1 $5 $-1 $2 #
face $6 -1 $-1 $7 $8 $4 $-1 $9 reversed single #
truecolor-adesk-attrib $-1 -1 $10 $-1 $5 -1029340160 #
face $11 -1 $-1 $12 $13 $4 $-1 $14 forward single #
loop $-1 -1 $-1 $-1 $15 $5 #
cone-surface $-1 -1 $-1 10 -7.159999999999994813 -2.223958587251593036e-15 -1 0 0 0 0 5.000000000000000888 1 I I 0 1 5.000000000000000888 forward I I I I #
color-adesk-attrib $-1 -1 $16 $6 $5 44 #
truecolor-adesk-attrib $-1 -1 $17 $-1 $7 -1029340160 #
face $18 -1 $-1 $19 $20 $4 $-1 $21 forward single #
loop $-1 -1 $-1 $-1 $22 $7 #
cone-surface $-1 -1 $-1 0 9.000000000000003553 -2.74198926481291251e-15 0 1 -1.443152244638374902e-16 0 1.17400435101331762e-15 8.13499999999999801 1 I I 0.7660444431189791237 0.6427876096865380307 8.13499999999999801 forward I I I I #
coedge $-1 -1 $-1 $23 $24 $25 $26 forward $8 $-1 #
DXID-attrib $-1 -1 $-1 $10 $5 @18 ASM_FACE_FROM_STEP @12 Cylinder-101 #
color-adesk-attrib $-1 -1 $27 $11 $7 44 #
truecolor-adesk-attrib $-1 -1 $28 $-1 $12 -1029340160 #
face $29 -1 $-1 $30 $31 $4 $-1 $32 forward single #
loop $-1 -1 $-1 $-1 $33 $12 #
cone-surface $-1 -1 $-1 0 10 -2.886304489276749803e-15 0 1 -1.443152244638374902e-16 0 1.318319575477155111e-15 9.13499999999999801 1 I I 0 1 9.13499999999999801 forward I I I I #
coedge $-1 -1 $-1 $34 $35 $36 $37 forward $13 $-1 #
coedge $-1 -1 $-1 $38 $15 $39 $40 forward $8 $-1 #
coedge $-1 -1 $-1 $15 $38 $41 $42 reversed $8 $-1 #
coedge $-1 -1 $-1 $43 $43 $15 $26 reversed $44 $-1 #
edge $45 -1 $-1 $46 -3.11484441618288832 $47 -1.55742220809144416 $15 $48 forward @7 unknown #
DXID-attrib $-1 -1 $-1 $17 $7 @18 ASM_FACE_FROM_STEP @12 Cylinder-716 #
color-adesk-attrib $-1 -1 $49 $18 $12 44 #
truecolor-adesk-attrib $-1 -1 $50 $-1 $19 -1029340160 #
face $51 -1 $-1 $52 $53 $4 $-1 $54 reversed single #
loop $-1 -1 $-1 $44 $55 $19 #
cone-surface $-1 -1 $-1 0 10 -2.886304489276749803e-15 0 1 -1.443152244638374902e-16 0 1.174004351013318015e-15 8.134999999999999787 1 I I 0 1 8.134999999999999787 forward I I I I #
coedge $-1 -1 $-1 $56 $57 $58 $59 forward $20 $-1 #
coedge $-1 -1 $-1 $58 $22 $60 $61 forward $13 $-1 #
coedge $-1 -1 $-1 $22 $58 $62 $63 reversed $13 $-1 #
coedge $-1 -1 $-1 $64 $65 $22 $37 reversed $31 $-1 #
edge $66 -1 $-1 $67 0 $68 3.141592653589793116 $22 $69 forward @7 unknown #
coedge $-1 -1 $-1 $24 $23 $70 $71 forward $8 $-1 #
coedge $-1 -1 $-1 $72 $73 $23 $40 reversed $74 $-1 #
edge $75 -1 $-1 $47 0.003582973819595250756 $76 0.004909987721036426084 $23 $77 forward @2 g2 #
coedge $-1 -1 $-1 $73 $72 $24 $42 forward $74 $-1 #
edge $78 -1 $-1 $46 0.003582973819595245552 $79 0.004909987721036416543 $24 $80 forward @2 g2 #
coedge $-1 -1 $-1 $25 $25 $72 $81 reversed $44 $-1 #
loop $-1 -1 $-1 $-1 $25 $19 #
truecolor-adesk-attrib $-1 -1 $82 $-1 $26 -1029340160 #
vertex $-1 -1 $-1 $26 $83 #
vertex $-1 -1 $-1 $26 $84 #
intcurve-curve $-1 -1 $-1 reversed { surfintcur full nubs 3 periodic 17 
	0 3 0.195387840242809141 2 0.390775680485618282 2 0.584743392265670181 2 0.7787111040457220801 2 
	0.9726788158257739791 2 1.166646527605825989 2 1.362034367848635075 2 1.55742220809144416 2 1.752810048334253246 2 
	1.948197888577062331 2 2.142165600357114119 2 2.336133312137166129 2 2.530101023917217695 2 2.724068735697269705 2 
	2.919456575940079013 2 3.11484441618288832 3 
	6.417026180404752367 -7.15999999999999126 4.999999999999999112 
	6.417026180404752367 -6.508707199190626014 4.999999999999998224 
	6.52658019931572575 -5.833094970700468451 4.866147417918167406 
	6.880230585681006872 -4.610092495212628094 4.351787523036848349 
	7.116212811028848506 -4.060323716718863274 3.971391528584343078 
	7.535343458770118019 -3.191776395350255591 3.102844207215733618 
	7.750080797070975969 -2.809196437718795014 2.552238333623594535 
	8.051278367871093522 -2.292883435728783059 1.324609424607497754 
	8.135000000000001563 -2.159999999999992593 0.6465590392668332242 
	8.134999999999999787 -2.159999999999993481 -0.6465590392668458808 
	8.051278367871093522 -2.292883435728784836 -1.324609424607511299 
	7.75008079707097508 -2.809196437718799011 -2.552238333623607858 
	7.535343458770115355 -3.19177639535026092 -3.102844207215744721 
	7.116212811028843177 -4.060323716718870379 -3.971391528584352848 
	6.880230585681000655 -4.6100924952126352 -4.35178752303685723 
	6.526580199315721309 -5.833094970700476445 -4.866147417918174511 
	6.41702618040475059 -6.508707199190634896 -5.000000000000004441 
	6.41702618040475059 -7.811292800809363612 -5.000000000000001776 
	6.526580199315724862 -8.486905029299521175 -4.866147417918172735 
	6.880230585681005095 -9.709907504787361532 -4.351787523036853678 
	7.116212811028845842 -10.25967628328112724 -3.971391528584348407 
	7.535343458770116243 -11.12822360464973315 -3.102844207215738948 
	7.750080797070974192 -11.51080356228119506 -2.552238333623602085 
	8.051278367871091746 -12.02711656427120701 -1.324609424607505748 
	8.13499999999999801 -12.15999999999999659 -0.6465590392668385533 
	8.134999999999999787 -12.15999999999999659 0.6465590392668402187 
	8.051278367871093522 -12.02711656427120523 1.324609424607505526 
	7.750080797070975969 -11.51080356228119328 2.552238333623600752 
	7.535343458770117131 -11.12822360464973315 3.102844207215738948 
	7.116212811028845842 -10.25967628328112369 3.971391528584348407 
	6.880230585681005095 -9.709907504787357979 4.351787523036851901 
	6.52658019931572575 -8.486905029299514069 4.866147417918169182 
	6.417026180404752367 -7.811292800809354731 4.999999999999999112 
	6.417026180404752367 -7.15999999999999126 4.999999999999999112 
	0.003247385860912490371 
	
	cone 10 -7.159999999999994813 -2.223958587251593036e-15 -1 0 0 0 0 5.000000000000000888 1 I I 0 1 5.000000000000000888 forward I I I I 
	cone 0 10 -2.886304489276749803e-15 0 1 -1.443152244638374902e-16 0 1.174004351013318015e-15 8.134999999999999787 1 I I 0 1 8.134999999999999787 forward I I I I 
	nullbs 
	nullbs 
	I I 
	0 
	0 
	0 
	} F -3.11484441618288832 F -1.55742220809144416 #
DXID-attrib $-1 -1 $-1 $28 $12 @18 ASM_FACE_FROM_STEP @12 Cylinder-540 #
color-adesk-attrib $-1 -1 $85 $29 $19 44 #
truecolor-adesk-attrib $-1 -1 $86 $-1 $30 -1029340160 #
face $87 -1 $-1 $88 $89 $4 $-1 $90 reversed single #
loop $-1 -1 $-1 $-1 $91 $30 #
cone-surface $-1 -1 $-1 0 10 -2.886304489276749803e-15 0 1 -1.443152244638374902e-16 0 1.029689126549480328e-15 7.134999999999998899 1 I I 0 1 7.134999999999998899 forward I I I I #
coedge $-1 -1 $-1 $65 $64 $92 $93 forward $31 $-1 #
coedge $-1 -1 $-1 $94 $33 $95 $96 forward $20 $-1 #
coedge $-1 -1 $-1 $33 $94 $97 $98 reversed $20 $-1 #
coedge $-1 -1 $-1 $35 $34 $33 $59 reversed $13 $-1 #
edge $99 -1 $-1 $100 0 $101 3.141592653589793116 $58 $102 forward @7 unknown #
coedge $-1 -1 $-1 $103 $104 $34 $61 reversed $105 $-1 #
edge $106 -1 $-1 $68 3.469017834675958629e-50 $101 0.001305407289332275117 $34 $107 forward @2 g2 #
coedge $-1 -1 $-1 $104 $103 $35 $63 forward $105 $-1 #
edge $108 -1 $-1 $67 0 $100 0.001305407289332275985 $35 $109 forward @2 g2 #
coedge $-1 -1 $-1 $55 $36 $110 $111 reversed $31 $-1 #
coedge $-1 -1 $-1 $36 $55 $112 $113 forward $31 $-1 #
truecolor-adesk-attrib $-1 -1 $114 $-1 $37 -1029340160 #
vertex $-1 -1 $-1 $37 $115 #
vertex $-1 -1 $-1 $37 $116 #
ellipse-curve $-1 -1 $-1 0 9.000000000000003553 -2.74198926481291251e-15 0 1 -1.443152244638374902e-16 0 1.17400435101331762e-15 8.13499999999999801 1 F 0 F 3.141592653589793116 #
coedge $-1 -1 $-1 $117 $117 $38 $71 reversed $118 $-1 #
edge $119 -1 $-1 $76 1.578693637164656494 $79 3.157387274329312987 $38 $120 forward @7 unknown #
coedge $-1 -1 $-1 $41 $39 $43 $81 forward $74 $-1 #
coedge $-1 -1 $-1 $39 $41 $117 $121 forward $74 $-1 #
loop $-1 -1 $-1 $-1 $39 $122 #
truecolor-adesk-attrib $-1 -1 $123 $-1 $40 -1029340160 #
vertex $-1 -1 $-1 $40 $124 #
straight-curve $-1 -1 $-1 10 -7.159999999999993925 -5.000000000000003553 -1000 0 0 F 0.003582973819595250756 F 0.004909987721036426084 #
truecolor-adesk-attrib $-1 -1 $125 $-1 $42 -1029340160 #
vertex $-1 -1 $-1 $71 $126 #
straight-curve $-1 -1 $-1 10 -7.159999999999994813 4.999999999999998224 -1000 0 0 F 0.003582973819595245552 F 0.004909987721036416543 #
edge $127 -1 $-1 $47 1.55742220809144416 $46 3.11484441618288832 $43 $128 forward @7 unknown #
color-adesk-attrib $-1 -1 $129 $45 $26 44 #
point $-1 -1 $-1 6.417026180404754143 -7.159999999999994813 4.999999999999998224 #
point $-1 -1 $-1 6.417026180404748814 -7.159999999999993925 -5.000000000000003553 #
DXID-attrib $-1 -1 $-1 $50 $19 @18 ASM_FACE_FROM_STEP @11 Cylinder-47 #
color-adesk-attrib $-1 -1 $130 $51 $30 44 #
truecolor-adesk-attrib $-1 -1 $131 $-1 $52 -1029340160 #
face $132 -1 $-1 $133 $134 $4 $-1 $135 forward single #
loop $-1 -1 $-1 $118 $136 $52 #
cone-surface $-1 -1 $-1 0 10 -2.886304489276749803e-15 0 1 -1.443152244638374902e-16 0 1.029689126549480328e-15 7.134999999999998899 1 I I 0 1 7.134999999999998899 forward I I I I #
coedge $-1 -1 $-1 $137 $138 $139 $140 reversed $53 $-1 #
coedge $-1 -1 $-1 $141 $141 $55 $93 reversed $142 $-1 #
edge $143 -1 $-1 $144 0 $145 3.141592653589793116 $55 $146 forward @7 unknown #
coedge $-1 -1 $-1 $57 $56 $147 $148 reversed $20 $-1 #
coedge $-1 -1 $-1 $149 $150 $56 $96 reversed $151 $-1 #
edge $152 -1 $-1 $101 -0.0001609003688227217475 $153 0.001000000000000001972 $56 $154 forward @2 g2 #
coedge $-1 -1 $-1 $150 $149 $57 $98 forward $151 $-1 #
edge $155 -1 $-1 $100 -0.0001609003688227217475 $156 0.001000000000000000888 $57 $157 forward @2 g2 #
truecolor-adesk-attrib $-1 -1 $158 $-1 $59 -1029340160 #
vertex $-1 -1 $-1 $59 $159 #
vertex $-1 -1 $-1 $61 $160 #
ellipse-curve $-1 -1 $-1 0 9.839099631177280258 -2.863084116433785087e-15 0 1 -1.443152244638374902e-16 0 1.318319575477155111e-15 9.13499999999999801 1 F 0 F 3.141592653589793116 #
coedge $-1 -1 $-1 $62 $60 $161 $162 forward $105 $-1 #
coedge $-1 -1 $-1 $60 $62 $149 $163 reversed $105 $-1 #
loop $-1 -1 $-1 $-1 $60 $164 #
truecolor-adesk-attrib $-1 -1 $165 $-1 $61 -1029340160 #
straight-curve $-1 -1 $-1 9.962501711063716372e-16 9.000000000000001776 -8.135000000000001563 9.381338752702745276e-14 642.7876096865379623 -766.0444431189791885 F 3.469017834675958629e-50 F 0.001305407289332275117 #
truecolor-adesk-attrib $-1 -1 $166 $-1 $63 -1029340160 #
straight-curve $-1 -1 $-1 0 9.000000000000005329 8.134999999999994458 0 642.7876096865383033 766.0444431189789611 F 0 F 0.001305407289332275985 #
coedge $-1 -1 $-1 $161 $167 $64 $111 forward $134 $-1 #
edge $168 -1 $-1 $144 -0.03300000000000000849 $67 -0.0009999999999999965514 $64 $169 forward @2 g2 #
coedge $-1 -1 $-1 $167 $161 $65 $113 reversed $134 $-1 #
edge $170 -1 $-1 $145 -0.03300000000000000155 $68 -0.0009999999999999965514 $65 $171 forward @2 g2 #
color-adesk-attrib $-1 -1 $172 $66 $37 44 #
point $-1 -1 $-1 0 9.000000000000005329 8.134999999999994458 #
point $-1 -1 $-1 9.962501711063720316e-16 9.000000000000001776 -8.135000000000001563 #
coedge $-1 -1 $-1 $70 $70 $73 $121 reversed $118 $-1 #
loop $-1 -1 $-1 $-1 $117 $52 #
truecolor-adesk-attrib $-1 -1 $173 $-1 $71 -1029340160 #
intcurve-curve $-1 -1 $-1 forward { surfintcur full nubs 3 periodic 17 
	0 3 0.1987636640827512569 2 0.3975273281655025137 2 0.5934370733739153803 2 0.7893468185823282468 2 
	0.9852565637907411134 2 1.18116630899915398 2 1.379929973081905237 2 1.578693637164656494 2 1.777457301247407528 2 
	1.976220965330158785 2 2.172130710538571652 2 2.36804045574698474 2 2.563950200955397385 2 2.759859946163810474 2 
	2.958623610246561952 2 3.157387274329312987 3 
	5.09001227896357733 -7.159999999999994813 4.999999999999999112 
	5.09001227896357733 -6.497454453057491364 4.999999999999999112 
	5.232117500262604359 -5.822039824825127496 4.862786477093338 
	5.667062685108737341 -4.60447475552608676 4.348118542887097426 
	5.949577784105265721 -4.058938432442137589 3.970006244307615617 
	6.441737306643023686 -3.196232062943294316 3.107299874808772788 
	6.690123929882021869 -2.814138449146663223 2.560630660933642666 
	7.038093317659484427 -2.295484316684380133 1.334103117427152041 
	7.134999999999998899 -2.159999999999993037 0.6530324840280398169 
	7.134999999999998899 -2.159999999999993037 -0.6530324840280461451 
	7.038093317659482651 -2.295484316684380133 -1.334103117427157814 
	6.690123929882020093 -2.814138449146663223 -2.560630660933647995 
	6.44173730664302191 -3.196232062943293872 -3.107299874808778117 
	5.949577784105263056 -4.058938432442137589 -3.970006244307620946 
	5.667062685108734676 -4.604474755526089425 -4.348118542887102755 
	5.232117500262601695 -5.822039824825129273 -4.862786477093342441 
	5.090012278963573777 -6.49745445305749314 -5.000000000000004441 
	5.090012278963574666 -7.822545546942500927 -5.000000000000001776 
	5.232117500262603471 -8.497960175174863906 -4.862786477093342441 
	5.667062685108735565 -9.715525244473903754 -4.348118542887102755 
	5.949577784105262168 -10.26106156755785292 -3.970006244307620058 
	6.441737306643020133 -11.12376793705669442 -3.107299874808777673 
	6.690123929882020093 -11.50586155085332507 -2.560630660933648883 
	7.038093317659482651 -12.02451568331560594 -1.334103117427159146 
	7.13499999999999801 -12.15999999999999659 -0.6530324840280461451 
	7.134999999999999787 -12.15999999999999659 0.6530324840280389287 
	7.038093317659485315 -12.02451568331561127 1.334103117427148932 
	6.690123929882024534 -11.50586155085332862 2.560630660933640002 
	6.441737306643026351 -11.1237679370566962 3.107299874808770568 
	5.949577784105267497 -10.26106156755785292 3.970006244307614729 
	5.667062685108739117 -9.715525244473901978 4.348118542887098315 
	5.232117500262607024 -8.49796017517486213 4.862786477093338 
	5.09001227896357733 -7.822545546942498262 4.999999999999999112 
	5.09001227896357733 -7.159999999999994813 4.999999999999999112 
	0.003417731331314826509 
	
	cone 10 -7.159999999999994813 -2.223958587251593036e-15 -1 0 0 0 0 5.000000000000000888 1 I I 0 1 5.000000000000000888 forward I I I I 
	cone 0 10 -2.886304489276749803e-15 0 1 -1.443152244638374902e-16 0 1.029689126549480328e-15 7.134999999999998899 1 I I 0 1 7.134999999999998899 forward I I I I 
	nullbs 
	nullbs 
	I I 
	0 
	0 
	0 
	} F 1.578693637164656494 F 3.157387274329312987 #
edge $174 -1 $-1 $79 -3.157387274329312987 $76 -1.57869363716465605 $117 $175 forward @7 unknown #
face $176 -1 $-1 $-1 $74 $4 $-1 $177 reversed single #
color-adesk-attrib $-1 -1 $178 $75 $40 44 #
point $-1 -1 $-1 5.090012278963573777 -7.159999999999993925 -5.000000000000003553 #
color-adesk-attrib $-1 -1 $179 $78 $42 44 #
point $-1 -1 $-1 5.090012278963583547 -7.159999999999993925 4.999999999999999112 #
truecolor-adesk-attrib $-1 -1 $180 $-1 $81 -1029340160 #
intcurve-curve $-1 -1 $-1 forward { surfintcur full nubs 3 periodic 17 
	0 3 0.1953878402428091965 2 0.390775680485618393 2 0.584743392265670181 2 0.7787111040457220801 2 
	0.9726788158257739791 2 1.166646527605825989 2 1.362034367848635075 2 1.55742220809144416 2 1.752810048334253246 2 
	1.948197888577062109 2 2.142165600357114119 2 2.336133312137166129 2 2.530101023917218139 2 2.724068735697270149 2 
	2.919456575940079013 2 3.11484441618288832 3 
	6.417026180404752367 -7.15999999999999126 4.999999999999999112 
	6.417026180404752367 -7.811292800809354731 4.999999999999999112 
	6.52658019931572575 -8.486905029299512293 4.866147417918170959 
	6.880230585681005095 -9.709907504787354426 4.351787523036852789 
	7.116212811028845842 -10.25967628328112369 3.971391528584349295 
	7.535343458770116243 -11.12822360464973137 3.102844207215741612 
	7.750080797070974192 -11.5108035622811915 2.552238333623603861 
	8.051278367871091746 -12.02711656427120523 1.324609424607507524 
	8.135000000000001563 -12.15999999999999659 0.6465590392668423281 
	8.135000000000001563 -12.15999999999999659 -0.646559039266836999 
	8.051278367871095298 -12.02711656427121056 -1.324609424607501085 
	7.750080797070976857 -11.51080356228119683 -2.552238333623597644 
	7.535343458770118019 -11.12822360464973315 -3.102844207215738059 
	7.116212811028848506 -10.25967628328112724 -3.971391528584347075 
	6.880230585681004207 -9.709907504787363308 -4.351787523036852789 
	6.526580199315723974 -8.486905029299521175 -4.866147417918172735 
	6.41702618040475059 -7.811292800809362724 -5.000000000000001776 
	6.41702618040475059 -6.508707199190636672 -5.000000000000004441 
	6.526580199315721309 -5.833094970700477333 -4.866147417918174511 
	6.880230585681001543 -4.610092495212636976 -4.35178752303685723 
	7.116212811028841401 -4.060323716718872156 -3.971391528584353736 
	7.53534345877011269 -3.19177639535026314 -3.102844207215746941 
	7.750080797070973304 -2.809196437718799899 -2.552238333623609634 
	8.051278367871093522 -2.292883435728785724 -1.324609424607514185 
	8.13499999999999801 -2.159999999999993481 -0.6465590392668476571 
	8.135000000000001563 -2.159999999999992593 0.646559039266832114 
	8.051278367871093522 -2.292883435728782615 1.324609424607496866 
	7.750080797070975969 -2.80919643771879457 2.552238333623594535 
	7.535343458770118019 -3.191776395350255591 3.102844207215733618 
	7.116212811028848506 -4.060323716718862386 3.971391528584342634 
	6.880230585681006872 -4.610092495212626318 4.35178752303684746 
	6.52658019931572575 -5.833094970700467563 4.866147417918166518 
	6.417026180404752367 -6.508707199190626014 4.999999999999998224 
	6.417026180404752367 -7.15999999999999126 4.999999999999999112 
	0.003247385860910861032 
	
	cone 10 -7.159999999999994813 -2.223958587251593036e-15 -1 0 0 0 0 5.000000000000000888 1 I I 0 1 5.000000000000000888 forward I I I I 
	cone 0 10 -2.886304489276749803e-15 0 1 -1.443152244638374902e-16 0 1.174004351013318015e-15 8.134999999999999787 1 I I -0 -1 8.134999999999999787 forward I I I I 
	nullbs 
	nullbs 
	I I 
	0 
	0 
	0 
	} F 1.55742220809144416 F 3.11484441618288832 #
DXID-attrib $-1 -1 $-1 $82 $26 @18 ASM_EDGE_FROM_STEP @3 476 #
DXID-attrib $-1 -1 $-1 $86 $30 @18 ASM_FACE_FROM_STEP @12 Cylinder-597 #
color-adesk-attrib $-1 -1 $181 $87 $52 44 #
truecolor-adesk-attrib $-1 -1 $182 $-1 $88 -1029340160 #
face $183 -1 $-1 $184 $142 $4 $-1 $185 reversed single #
loop $-1 -1 $-1 $-1 $112 $88 #
cone-surface $-1 -1 $-1 0 10 -2.886304489276749803e-15 0 1 -1.443152244638374902e-16 0 1.174004351013318015e-15 8.134999999999999787 1 I I 0 1 8.134999999999999787 forward I I I I #
coedge $-1 -1 $-1 $186 $187 $137 $188 reversed $89 $-1 #
coedge $-1 -1 $-1 $189 $91 $136 $188 forward $53 $-1 #
coedge $-1 -1 $-1 $91 $189 $190 $191 reversed $53 $-1 #
coedge $-1 -1 $-1 $192 $192 $91 $140 forward $193 $-1 #
edge $194 -1 $-1 $195 -3.141592653589793116 $196 0 $91 $197 forward @7 unknown #
coedge $-1 -1 $-1 $92 $92 $167 $198 reversed $142 $-1 #
loop $-1 -1 $-1 $193 $92 $133 #
truecolor-adesk-attrib $-1 -1 $199 $-1 $93 -1029340160 #
vertex $-1 -1 $-1 $93 $200 #
vertex $-1 -1 $-1 $93 $201 #
ellipse-curve $-1 -1 $-1 0 -23.00000000000000355 1.876097918029887175e-15 0 1 -1.443152244638374902e-16 0 1.174004351013318804e-15 8.135000000000005116 1 F 0 F 3.141592653589793116 #
coedge $-1 -1 $-1 $202 $202 $94 $148 forward $203 $-1 #
edge $204 -1 $-1 $156 0 $153 3.141592653589793116 $94 $205 forward @7 unknown #
coedge $-1 -1 $-1 $97 $95 $104 $163 forward $151 $-1 #
coedge $-1 -1 $-1 $95 $97 $202 $206 reversed $151 $-1 #
loop $-1 -1 $-1 $-1 $95 $207 #
truecolor-adesk-attrib $-1 -1 $208 $-1 $96 -1029340160 #
vertex $-1 -1 $-1 $96 $209 #
straight-curve $-1 -1 $-1 1.118714851021106983e-15 9.999999999999998224 -9.135000000000001563 0 1000 -1.443152244638375264e-13 F -0.0001609003688227217475 F 0.001000000000000001972 #
truecolor-adesk-attrib $-1 -1 $210 $-1 $98 -1029340160 #
vertex $-1 -1 $-1 $148 $211 #
straight-curve $-1 -1 $-1 0 10.00000000000000178 9.134999999999994458 0 1000 -1.443152244638375264e-13 F -0.0001609003688227217475 F 0.001000000000000000888 #
color-adesk-attrib $-1 -1 $212 $99 $59 44 #
point $-1 -1 $-1 0 9.839099631177280258 9.134999999999994458 #
point $-1 -1 $-1 1.118714851021106983e-15 9.839099631177276706 -9.135000000000001563 #
coedge $-1 -1 $-1 $112 $110 $103 $162 reversed $134 $-1 #
edge $213 -1 $-1 $68 -3.141592653589793116 $67 0 $161 $214 forward @7 unknown #
edge $215 -1 $-1 $101 -3.141592653589793116 $100 0 $149 $216 forward @7 unknown #
face $217 -1 $-1 $122 $105 $4 $-1 $218 forward single #
color-adesk-attrib $-1 -1 $219 $106 $61 44 #
color-adesk-attrib $-1 -1 $220 $108 $63 44 #
coedge $-1 -1 $-1 $110 $112 $141 $198 forward $134 $-1 #
truecolor-adesk-attrib $-1 -1 $221 $-1 $111 -1029340160 #
straight-curve $-1 -1 $-1 0 10.00000000000000178 8.134999999999996234 0 1000 -1.443152244638375264e-13 F -0.03300000000000000849 F -0.0009999999999999965514 #
truecolor-adesk-attrib $-1 -1 $222 $-1 $113 -1029340160 #
straight-curve $-1 -1 $-1 9.962501711063718344e-16 9.999999999999998224 -8.13500000000000334 0 1000 -1.443152244638375264e-13 F -0.03300000000000000155 F -0.0009999999999999965514 #
DXID-attrib $-1 -1 $-1 $114 $37 @18 ASM_EDGE_FROM_STEP @3 581 #
color-adesk-attrib $-1 -1 $223 $119 $71 44 #
truecolor-adesk-attrib $-1 -1 $224 $-1 $121 -1029340160 #
intcurve-curve $-1 -1 $-1 reversed { surfintcur full nubs 3 periodic 17 
	0 3 0.1987636640827512013 2 0.3975273281655024027 2 0.5934370733739151582 2 0.7893468185823278027 2 
	0.9852565637907406693 2 1.181166308999153536 2 1.379929973081904793 2 1.57869363716465605 2 1.777457301247407306 2 
	1.976220965330158563 2 2.172130710538571208 2 2.368040455746984296 2 2.563950200955396941 2 2.759859946163809585 2 
	2.958623610246561064 2 3.157387274329312987 3 
	5.09001227896357733 -7.159999999999994813 4.999999999999999112 
	5.09001227896357733 -7.822545546942498262 4.999999999999999112 
	5.232117500262607024 -8.497960175174860353 4.862786477093338 
	5.667062685108739117 -9.715525244473901978 4.348118542887098315 
	5.949577784105266609 -10.26106156755785292 3.970006244307614729 
	6.441737306643025462 -11.12376793705669442 3.107299874808772344 
	6.690123929882023646 -11.50586155085332862 2.560630660933642666 
	7.038093317659484427 -12.02451568331561127 1.334103117427152263 
	7.134999999999998899 -12.15999999999999659 0.6530324840280412602 
	7.134999999999998899 -12.15999999999999659 -0.6530324840280434806 
	7.038093317659484427 -12.02451568331561127 -1.334103117427155594 
	6.690123929882021869 -11.50586155085332862 -2.560630660933646663 
	6.441737306643022798 -11.12376793705669442 -3.107299874808775453 
	5.949577784105263945 -10.2610615675578547 -3.970006244307617838 
	5.667062685108735565 -9.715525244473905531 -4.348118542887100091 
	5.232117500262601695 -8.497960175174865682 -4.862786477093340665 
	5.090012278963575554 -7.822545546942500927 -5.000000000000001776 
	5.090012278963573777 -6.49745445305749314 -5.000000000000004441 
	5.232117500262603471 -5.822039824825129273 -4.862786477093342441 
	5.667062685108734676 -4.604474755526087648 -4.348118542887102755 
	5.949577784105263945 -4.058938432442137589 -3.970006244307620058 
	6.441737306643022798 -3.196232062943295205 -3.107299874808777673 
	6.690123929882021869 -2.814138449146664112 -2.560630660933649327 
	7.038093317659484427 -2.295484316684381021 -1.334103117427158924 
	7.134999999999998899 -2.159999999999993037 -0.6530324840280464782 
	7.134999999999998899 -2.159999999999993037 0.6530324840280392618 
	7.038093317659484427 -2.295484316684380133 1.334103117427149821 
	6.690123929882023646 -2.814138449146661447 2.560630660933639113 
	6.441737306643025462 -3.196232062943290764 3.107299874808769236 
	5.949577784105267497 -4.058938432442133148 3.970006244307612953 
	5.667062685108740894 -4.604474755526083207 4.348118542887094762 
	5.232117500262607024 -5.822039824825123944 4.862786477093336224 
	5.09001227896357733 -6.497454453057489587 4.999999999999999112 
	5.09001227896357733 -7.159999999999994813 4.999999999999999112 
	0.003417731331315410244 
	
	cone 10 -7.159999999999994813 -2.223958587251593036e-15 -1 0 0 0 0 5.000000000000000888 1 I I 0 1 5.000000000000000888 forward I I I I 
	cone 0 10 -2.886304489276749803e-15 0 1 -1.443152244638374902e-16 0 1.029689126549480328e-15 7.134999999999998899 1 I I -0 -1 7.134999999999998899 forward I I I I 
	nullbs 
	nullbs 
	I I 
	0 
	0 
	0 
	} F -3.157387274329312987 F -1.57869363716465605 #
truecolor-adesk-attrib $-1 -1 $225 $-1 $122 -1029340160 #
cone-surface $-1 -1 $-1 10 -7.159999999999994813 -2.223958587251593036e-15 -1 0 0 0 0 5.000000000000000888 1 I I 0 1 5.000000000000000888 forward I I I I #
DXID-attrib $-1 -1 $-1 $123 $40 @18 ASM_EDGE_FROM_STEP @3 602 #
DXID-attrib $-1 -1 $-1 $125 $42 @18 ASM_EDGE_FROM_STEP @3 256 #
color-adesk-attrib $-1 -1 $226 $127 $81 44 #
DXID-attrib $-1 -1 $-1 $131 $52 @18 ASM_FACE_FROM_STEP @12 Cylinder-350 #
color-adesk-attrib $-1 -1 $227 $132 $88 44 #
truecolor-adesk-attrib $-1 -1 $228 $-1 $133 -1029340160 #
face $229 -1 $-1 $207 $203 $4 $-1 $230 reversed single #
plane-surface $-1 -1 $-1 0 -23.00000000000000355 -7.135000000000002451 0 1 -1.443152244638374902e-16 0 1.443152244638375148e-16 1 forward_v I I I I #
coedge $-1 -1 $-1 $190 $136 $192 $231 reversed $89 $-1 #
coedge $-1 -1 $-1 $136 $190 $232 $233 forward $89 $-1 #
edge $234 -1 $-1 $195 -0.03300000000000000155 $235 0.001000000000000001972 $137 $236 forward @2 g2 #
coedge $-1 -1 $-1 $138 $137 $237 $238 forward $53 $-1 #
coedge $-1 -1 $-1 $187 $186 $138 $191 forward $89 $-1 #
edge $239 -1 $-1 $196 -0.03300000000000000849 $240 0.001000000000000000888 $138 $241 forward @2 g2 #
coedge $-1 -1 $-1 $139 $139 $186 $231 forward $193 $-1 #
loop $-1 -1 $-1 $-1 $192 $133 #
truecolor-adesk-attrib $-1 -1 $242 $-1 $140 -1029340160 #
vertex $-1 -1 $-1 $140 $243 #
vertex $-1 -1 $-1 $140 $244 #
ellipse-curve $-1 -1 $-1 0 -23.00000000000000355 1.876097918029887175e-15 0 1 -1.443152244638374902e-16 0 1.029689126549480919e-15 7.13500000000000334 1 F -3.141592653589793116 F 0 #
edge $245 -1 $-1 $145 -3.141592653589793116 $144 0 $167 $246 forward @7 unknown #
color-adesk-attrib $-1 -1 $247 $143 $93 44 #
point $-1 -1 $-1 0 -23.00000000000000355 8.135000000000008669 #
point $-1 -1 $-1 9.962501711063722288e-16 -23.00000000000000355 -8.13500000000000334 #
coedge $-1 -1 $-1 $147 $147 $150 $206 forward $203 $-1 #
loop $-1 -1 $-1 $248 $147 $184 #
truecolor-adesk-attrib $-1 -1 $249 $-1 $148 -1029340160 #
ellipse-curve $-1 -1 $-1 0 11.00000000000000355 -3.03061971374058749e-15 0 1 -1.443152244638374902e-16 0 1.318319575477155111e-15 9.13499999999999801 1 F 0 F 3.141592653589793116 #
edge $250 -1 $-1 $153 -3.141592653589793116 $156 0 $202 $251 forward @7 unknown #
face $252 -1 $-1 $164 $151 $4 $-1 $253 forward single #
color-adesk-attrib $-1 -1 $254 $152 $96 44 #
point $-1 -1 $-1 1.118714851021106983e-15 11 -9.135000000000001563 #
color-adesk-attrib $-1 -1 $255 $155 $98 44 #
point $-1 -1 $-1 0 11.00000000000000355 9.134999999999994458 #
DXID-attrib $-1 -1 $-1 $158 $59 @18 ASM_EDGE_FROM_STEP @3 412 #
truecolor-adesk-attrib $-1 -1 $256 $-1 $162 -1029340160 #
ellipse-curve $-1 -1 $-1 0 9.000000000000003553 -2.74198926481291251e-15 0 1 -1.443152244638374902e-16 0 1.17400435101331762e-15 8.13499999999999801 1 F -3.141592653589793116 F 0 #
truecolor-adesk-attrib $-1 -1 $257 $-1 $163 -1029340160 #
ellipse-curve $-1 -1 $-1 0 9.839099631177280258 -2.863084116433785087e-15 0 1 -1.443152244638374902e-16 0 1.318319575477155111e-15 9.13499999999999801 1 F -3.141592653589793116 F 0 #
truecolor-adesk-attrib $-1 -1 $258 $-1 $164 -1029340160 #
cone-surface $-1 -1 $-1 0 9.000000000000003553 -2.74198926481291251e-15 0 1 -1.443152244638374902e-16 0 1.17400435101331762e-15 8.13499999999999801 1 I I 0.7660444431189791237 0.6427876096865380307 8.13499999999999801 forward I I I I #
DXID-attrib $-1 -1 $-1 $165 $61 @18 ASM_EDGE_FROM_STEP @3 154 #
DXID-attrib $-1 -1 $-1 $166 $63 @18 ASM_EDGE_FROM_STEP @3 575 #
color-adesk-attrib $-1 -1 $259 $168 $111 44 #
color-adesk-attrib $-1 -1 $260 $170 $113 44 #
DXID-attrib $-1 -1 $-1 $173 $71 @18 ASM_EDGE_FROM_STEP @3 409 #
color-adesk-attrib $-1 -1 $261 $174 $121 44 #
color-adesk-attrib $-1 -1 $262 $176 $122 44 #
DXID-attrib $-1 -1 $-1 $180 $81 @18 ASM_EDGE_FROM_STEP @3 176 #
DXID-attrib $-1 -1 $-1 $182 $88 @18 ASM_FACE_FROM_STEP @12 Cylinder-400 #
color-adesk-attrib $-1 -1 $263 $183 $133 44 #
truecolor-adesk-attrib $-1 -1 $264 $-1 $184 -1029340160 #
plane-surface $-1 -1 $-1 0 11 -7.135000000000002451 0 -1 1.443152244638374902e-16 0 -1.443152244638375148e-16 -1 forward_v I I I I #
edge $265 -1 $-1 $196 0 $195 3.141592653589793116 $186 $266 forward @7 unknown #
coedge $-1 -1 $-1 $237 $237 $187 $233 reversed $248 $-1 #
edge $267 -1 $-1 $240 0 $235 3.141592653589793116 $187 $268 forward @7 unknown #
truecolor-adesk-attrib $-1 -1 $269 $-1 $188 -1029340160 #
vertex $-1 -1 $-1 $188 $270 #
straight-curve $-1 -1 $-1 8.73785491191636489e-16 9.999999999999998224 -7.135000000000002451 0 1000 -1.443152244638375264e-13 F -0.03300000000000000155 F 0.001000000000000001972 #
coedge $-1 -1 $-1 $232 $232 $189 $238 reversed $248 $-1 #
edge $271 -1 $-1 $235 -3.141592653589793116 $240 0 $189 $272 forward @7 unknown #
truecolor-adesk-attrib $-1 -1 $273 $-1 $191 -1029340160 #
vertex $-1 -1 $-1 $238 $274 #
straight-curve $-1 -1 $-1 0 10.00000000000000178 7.134999999999997122 0 1000 -1.443152244638375264e-13 F -0.03300000000000000849 F 0.001000000000000000888 #
color-adesk-attrib $-1 -1 $275 $194 $140 44 #
point $-1 -1 $-1 8.737854911916368835e-16 -23.00000000000000355 -7.135000000000002451 #
point $-1 -1 $-1 0 -23.00000000000000355 7.135000000000006004 #
truecolor-adesk-attrib $-1 -1 $276 $-1 $198 -1029340160 #
ellipse-curve $-1 -1 $-1 0 -23.00000000000000355 1.876097918029887175e-15 0 1 -1.443152244638374902e-16 0 1.174004351013318804e-15 8.135000000000005116 1 F -3.141592653589793116 F 0 #
DXID-attrib $-1 -1 $-1 $199 $93 @18 ASM_EDGE_FROM_STEP @3 463 #
loop $-1 -1 $-1 $-1 $232 $184 #
color-adesk-attrib $-1 -1 $277 $204 $148 44 #
truecolor-adesk-attrib $-1 -1 $278 $-1 $206 -1029340160 #
ellipse-curve $-1 -1 $-1 0 11.00000000000000355 -3.03061971374058749e-15 0 1 -1.443152244638374902e-16 0 1.318319575477155111e-15 9.13499999999999801 1 F -3.141592653589793116 F 0 #
truecolor-adesk-attrib $-1 -1 $279 $-1 $207 -1029340160 #
cone-surface $-1 -1 $-1 0 10 -2.886304489276749803e-15 0 1 -1.443152244638374902e-16 0 1.318319575477155111e-15 9.13499999999999801 1 I I 0 1 9.13499999999999801 forward I I I I #
DXID-attrib $-1 -1 $-1 $208 $96 @18 ASM_EDGE_FROM_STEP @3 576 #
DXID-attrib $-1 -1 $-1 $210 $98 @18 ASM_EDGE_FROM_STEP @3 524 #
color-adesk-attrib $-1 -1 $280 $213 $162 44 #
color-adesk-attrib $-1 -1 $281 $215 $163 44 #
color-adesk-attrib $-1 -1 $282 $217 $164 44 #
DXID-attrib $-1 -1 $-1 $221 $111 @18 ASM_EDGE_FROM_STEP @3 137 #
DXID-attrib $-1 -1 $-1 $222 $113 @18 ASM_EDGE_FROM_STEP @3 325 #
DXID-attrib $-1 -1 $-1 $224 $121 @18 ASM_EDGE_FROM_STEP @3 131 #
DXID-attrib $-1 -1 $-1 $225 $122 @18 ASM_FACE_FROM_STEP @12 Cylinder-107 #
DXID-attrib $-1 -1 $-1 $228 $133 @18 ASM_FACE_FROM_STEP @12 Cylinder-404 #
color-adesk-attrib $-1 -1 $283 $229 $184 44 #
truecolor-adesk-attrib $-1 -1 $284 $-1 $231 -1029340160 #
ellipse-curve $-1 -1 $-1 0 -23.00000000000000355 1.876097918029887175e-15 0 1 -1.443152244638374902e-16 0 1.029689126549480919e-15 7.13500000000000334 1 F 0 F 3.141592653589793116 #
truecolor-adesk-attrib $-1 -1 $285 $-1 $233 -1029340160 #
ellipse-curve $-1 -1 $-1 0 11.00000000000000355 -3.03061971374058749e-15 0 1 -1.443152244638374902e-16 0 1.029689126549480328e-15 7.134999999999998899 1 F 0 F 3.141592653589793116 #
color-adesk-attrib $-1 -1 $286 $234 $188 44 #
point $-1 -1 $-1 8.737854911916368835e-16 11 -7.135000000000002451 #
truecolor-adesk-attrib $-1 -1 $287 $-1 $238 -1029340160 #
ellipse-curve $-1 -1 $-1 0 11.00000000000000355 -3.03061971374058749e-15 0 1 -1.443152244638374902e-16 0 1.029689126549480328e-15 7.134999999999998899 1 F -3.141592653589793116 F 0 #
color-adesk-attrib $-1 -1 $288 $239 $191 44 #
point $-1 -1 $-1 0 11.00000000000000355 7.134999999999997122 #
DXID-attrib $-1 -1 $-1 $242 $140 @18 ASM_EDGE_FROM_STEP @3 253 #
color-adesk-attrib $-1 -1 $289 $245 $198 44 #
DXID-attrib $-1 -1 $-1 $249 $148 @18 ASM_EDGE_FROM_STEP @3 331 #
color-adesk-attrib $-1 -1 $290 $250 $206 44 #
color-adesk-attrib $-1 -1 $291 $252 $207 44 #
DXID-attrib $-1 -1 $-1 $256 $162 @18 ASM_EDGE_FROM_STEP @3 159 #
DXID-attrib $-1 -1 $-1 $257 $163 @18 ASM_EDGE_FROM_STEP @3 244 #
DXID-attrib $-1 -1 $-1 $258 $164 @18 ASM_FACE_FROM_STEP @12 Cylinder-287 #
DXID-attrib $-1 -1 $-1 $264 $184 @18 ASM_FACE_FROM_STEP @12 Cylinder-479 #
color-adesk-attrib $-1 -1 $292 $265 $231 44 #
color-adesk-attrib $-1 -1 $293 $267 $233 44 #
DXID-attrib $-1 -1 $-1 $269 $188 @18 ASM_EDGE_FROM_STEP @3 264 #
color-adesk-attrib $-1 -1 $294 $271 $238 44 #
DXID-attrib $-1 -1 $-1 $273 $191 @18 ASM_EDGE_FROM_STEP @3 450 #
DXID-attrib $-1 -1 $-1 $276 $198 @18 ASM_EDGE_FROM_STEP @3 309 #
DXID-attrib $-1 -1 $-1 $278 $206 @18 ASM_EDGE_FROM_STEP @3 201 #
DXID-attrib $-1 -1 $-1 $279 $207 @18 ASM_FACE_FROM_STEP @12 Cylinder-593 #
DXID-attrib $-1 -1 $-1 $284 $231 @18 ASM_EDGE_FROM_STEP @3 145 #
DXID-attrib $-1 -1 $-1 $285 $233 @18 ASM_EDGE_FROM_STEP @3 595 #
DXID-attrib $-1 -1 $-1 $287 $238 @18 ASM_EDGE_FROM_STEP @3 232 #
