700 232 1 0         
5 ZWCAD 12 ACIS 28.0 NT 24 Sat May 11 16:22:40 2024 
1 9.9999999999999995e-07 1e-10 
body $1 -1 $-1 $2 $-1 $-1 #
DXID-attrib $-1 -1 $-1 $-1 $0 @18 ASM_BODY_FROM_STEP @83 6BB0C464C3CCE47BBA786DCFDB1D0744822C7582|:|B8A4396250C5687B1D31E70758B30729E1AC4426 #
lump $-1 -1 $-1 $-1 $3 $0 #
shell $-1 -1 $-1 $-1 $-1 $4 $-1 $2 #
face $5 -1 $-1 $6 $7 $3 $-1 $8 forward single #
truecolor-adesk-attrib $-1 -1 $9 $-1 $4 -1056964608 #
face $10 -1 $-1 $11 $12 $3 $-1 $13 reversed single #
loop $-1 -1 $-1 $14 $15 $4 #
cone-surface $-1 -1 $-1 325.42683494318652 242.98342707616672 374.7324706456327 -7.5887381520139712e-17 1 -4.7515230223637229e-18 -9.4740597961133588 -7.8887394917404263e-16 -14.713673605856172 1 I I 0 1 17.5 forward I I I I #
fmesh-eye-attrib $-1 -1 $16 $5 $4 #
truecolor-adesk-attrib $-1 -1 $17 $-1 $6 -1056964608 #
face $18 -1 $-1 $19 $20 $3 $-1 $21 forward single #
loop $-1 -1 $-1 $22 $23 $6 #
cone-surface $-1 -1 $-1 325.42683494318652 242.98342707616672 374.7324706456327 -7.5887381520139712e-17 1 -4.7515230223637229e-18 -5.6844358776680153 -4.7332436950442552e-16 -8.8282041635137034 1 I I 0 1 10.5 forward I I I I #
loop $-1 -1 $-1 $24 $25 $4 #
tcoedge-coedge $-1 -1 $-1 $15 $15 $26 $27 forward $7 $28 0 1 #
DXID-attrib $-1 -1 $-1 $9 $4 @18 ASM_FACE_FROM_STEP @17 double_a-arm-2248 #
fmesh-eye-attrib $-1 -1 $29 $10 $6 #
truecolor-adesk-attrib $-1 -1 $30 $-1 $11 -1056964608 #
face $31 -1 $-1 $32 $33 $3 $-1 $34 reversed single #
loop $-1 -1 $-1 $35 $36 $11 #
plane-surface $-1 -1 $-1 325.42683494318652 242.98342707616672 374.7324706456327 7.5887381520139712e-17 -1 4.7515230223637229e-18 0.54137484549219195 4.5078511381373863e-17 0.84078134890606704 forward_v I I I I #
loop $-1 -1 $-1 $-1 $37 $6 #
coedge $-1 -1 $-1 $23 $23 $38 $39 forward $12 $-1 #
loop $-1 -1 $-1 $-1 $40 $4 #
coedge $-1 -1 $-1 $25 $25 $36 $41 reversed $14 $-1 #
tcoedge-coedge $-1 -1 $-1 $42 $43 $15 $27 reversed $44 $45 -1 0 #
tedge-edge $46 -1 $-1 $47 0 $47 1 $15 $48 forward @7 unknown 0.0078419744836239584 #
pcurve $-1 -1 $-1 0 forward { exppc nubs 3 periodic 17 
	0 3 0.0625 3 0.125 3 0.1875 3 0.25 3 
	0.3125 3 0.375 3 0.4375 3 0.5 3 0.5625 3 
	0.625 3 0.6875 3 0.75 3 0.8125 3 0.875 3 
	0.9375 3 1 3 
	2.0285714285714285 -2.0301221021717155e-15 
	2.0285714285714285 0.12305139754165648 
	1.9896673116614116 0.2416813107363846 
	1.9284040120634174 0.34616648546669071 
	1.8671407124654231 0.45065166019699687 
	1.7848525799796515 0.5424416909381895 
	1.6917551715572037 0.62134946591553164 
	1.598657763134756 0.70025724089287367 
	1.4966140302589412 0.76537060001959167 
	1.3844035847092757 0.8137564554584501 
	1.2721931391596102 0.86214231089730853 
	1.151375353290907 0.8908583655371729 
	1.0303221208933167 0.89112061156268207 
	0.9092688884957264 0.89138285758819125 
	0.78772659499833364 0.8629440647259975 
	0.67566677516079476 0.81501371142933898 
	0.563606955323256 0.76708335813268058 
	0.46038414758211771 0.70150666548077556 
	0.3675654339266074 0.62319110726634197 
	0.27474672027109709 0.54487554905190838 
	0.19210386830733711 0.45326502263467539 
	0.13050545111453424 0.34916566323425624 
	0.068907033921731364 0.24506630383383704 
	0.029341820014965769 0.12682285061641399 
	0.028582925289982838 0.0037295568955833802 
	0.027824030564999904 -0.11936373682524723 
	0.066508768536731433 -0.23938459806324475 
	0.12756943385911423 -0.34416591524534801 
	0.18863009918149704 -0.44894723242745121 
	0.27100631269399994 -0.54116813855494594 
	0.36427208953756596 -0.62040280481559384 
	0.45753786638113203 -0.69963747107624175 
	0.55971770043235192 -0.76495359655816642 
	0.67223853085336227 -0.81354038323105915 
	0.78475936127437262 -0.86212716990395188 
	0.90575766191387386 -0.89089789430023569 
	1.0270844548767284 -0.89112113984444996 
	1.1484112478395829 -0.89134438538866423 
	1.2703079528675854 -0.86270337136509734 
	1.3825342941488619 -0.8145604252351093 
	1.4947606354301384 -0.76641747910512115 
	1.5982475017305191 -0.70050032288189745 
	1.6911190734904911 -0.621888254509257 
	1.783990645250463 -0.54327618613661666 
	1.8667253418235257 -0.45119276191353946 
	1.9280981399190427 -0.34668773727885061 
	1.9894709380145597 -0.24218271264416175 
	2.0285714285714285 -0.12305139754165849 
	2.0285714285714285 -2.0301221021717155e-15 
	0.0010781776010180542 
	cone 325.42683494318652 242.98342707616672 374.7324706456327 -7.5887381520139712e-17 1 -4.7515230223637229e-18 -9.4740597961133588 -7.8887394917404263e-16 -14.713673605856172 1 I I 0 1 17.5 forward I I I I 
	} 0 0 #
DXID-attrib $-1 -1 $-1 $17 $6 @18 ASM_FACE_FROM_STEP @17 double_a-arm-2249 #
fmesh-eye-attrib $-1 -1 $49 $18 $11 #
truecolor-adesk-attrib $-1 -1 $50 $-1 $19 -1056964608 #
face $51 -1 $-1 $52 $53 $3 $-1 $54 forward single #
loop $-1 -1 $-1 $55 $56 $19 #
plane-surface $-1 -1 $-1 325.42683494318652 278.98342707616672 374.7324706456327 7.5887381520139712e-17 -1 4.7515230223637229e-18 0.54137484549219195 4.5078511381373863e-17 0.84078134890606704 forward_v I I I I #
loop $-1 -1 $-1 $-1 $38 $11 #
coedge $-1 -1 $-1 $36 $36 $25 $41 forward $20 $-1 #
coedge $-1 -1 $-1 $37 $37 $57 $58 reversed $22 $-1 #
coedge $-1 -1 $-1 $38 $38 $23 $39 reversed $35 $-1 #
edge $59 -1 $-1 $60 0 $60 6.2831853071795862 $23 $61 forward @7 unknown #
coedge $-1 -1 $-1 $40 $40 $56 $62 forward $24 $-1 #
edge $63 -1 $-1 $64 0 $64 6.2831853071795862 $25 $65 forward @7 unknown #
coedge $-1 -1 $-1 $66 $26 $43 $67 reversed $44 $68 #
coedge $-1 -1 $-1 $26 $66 $42 $67 forward $44 $69 #
loop $-1 -1 $-1 $-1 $66 $52 #
pcurve $-1 -1 $-1 0 forward { exppc nubs 3 periodic 17 
	-1 3 -0.9375 3 -0.875 3 -0.8125 3 -0.75 3 
	-0.6875 3 -0.625 3 -0.5625 3 -0.5 3 -0.4375 3 
	-0.375 3 -0.3125 3 -0.25 3 -0.1875 3 -0.125 3 
	-0.0625 3 0 3 
	0.95804852850058908 -9.8396497549411662e-05 
	0.98188182766192367 0.00011203255989990254 
	1.0053576741047054 6.2833812198560238e-05 
	1.0277057391826641 5.2088839128646227e-06 
	1.0500538042606227 -5.2416044372830992e-05 
	1.0714641078413043 0.00017623384081378517 
	1.0921640598840503 0.00025856697025357291 
	1.1128640119267963 0.00034090009969336066 
	1.132838524671137 0.00025634049966705424 
	1.1521421654421493 0.00042524410272190934 
	1.1714458062131616 0.00059414770577676445 
	1.1899025018443448 -0.00036601374658990811 
	1.2082873907177973 -0.00013380387997106674 
	1.2266722795912499 9.8405986647774634e-05 
	1.2450795829644266 -3.7413921453558003e-05 
	1.2644018166807092 -4.5836882604291755e-05 
	1.2837240503969918 -5.4259843755025507e-05 
	1.3036242428729099 -0.00014028507328844481 
	1.3244396504671565 9.1177340373631811e-05 
	1.3452550580614031 0.00032263975403570844 
	1.3666164827922056 1.283136242945144e-05 
	1.3889913324031726 3.6335483800424287e-05 
	1.4113661820141397 5.9839605171397133e-05 
	1.4348484660492828 -0.00026985347333898359 
	1.4586389518546405 -7.7988614903288809e-05 
	1.4824294376599982 0.00011387624353240597 
	1.505626553115504 7.359589856281983e-05 
	1.5279393627544695 5.686321273914996e-06 
	1.550252172393435 -6.2223256014989838e-05 
	1.5716146114322489 0.00016978479477606384 
	1.5922890296338206 0.00024752856197920515 
	1.6129634478353922 0.00032527232918234641 
	1.6328928256530095 0.00026287183935753305 
	1.6521763157745992 0.00043505224288407831 
	1.6714598058961887 0.00060723264641062357 
	1.6898652329217707 -0.00029589360074372281 
	1.7082351597982572 -0.00010916251853684422 
	1.7266050866747438 7.7568563670034368e-05 
	1.7449962223052844 -3.4580901116101169e-05 
	1.7642826843439063 -4.4432867200213736e-05 
	1.7835691463825283 -5.428483328432631e-05 
	1.8034557882454285 -0.00014737403283140597 
	1.8242293990798497 9.2036464092238717e-05 
	1.8450030099142709 0.00033144696101588341 
	1.8664072638315607 0.0001670267591086096 
	1.8886297739665778 -0.00011832415141507525 
	1.9108522841015949 -0.0004036750619387601 
	1.934215229339254 -0.00030882555499985574 
	1.9580485285005891 -9.8396497549411662e-05 
	0.0065064570420196016 
	spline forward { exactsur full nurbs 3 2 both periodic open none none 26 2 
	0 3 0.03125 2 0.062500000000000097 2 0.125 2 0.1875 2 
	0.21875 2 0.25 2 0.28125 2 0.3125 2 0.375 2 
	0.40625 2 0.4375 2 0.46875 2 0.5 2 0.53125 2 
	0.5625 2 0.625 2 0.6875 2 0.71875 2 0.75 2 
	0.78125 2 0.8125 2 0.875 2 0.9375 2 0.96875 2 
	1 3 
	-0.0009769109862048759 2 1.0006648523709354 2 
	319.27288666185245 277.8334088510386 358.35019116172646 1.0005337789769939 
	320.12946604551212 277.50915847478689 358.02842009133911 1.0005151363221132 
	320.97324592887685 277.07897512155722 357.78752835247008 1.0004912964978798 
	322.62816964382063 276.03479583474683 357.43700703175665 1.0004383693827354 
	323.44587370939689 275.41365198588574 357.32784952167594 1.0004090079148289 
	325.75436600333092 273.35630641218972 357.16765108057916 1.0003219222579536 
	327.16010396863487 271.68937103780871 357.28006702428752 1.0002636599597117 
	329.44435376428703 267.9040248390076 357.66055285906282 1.0001705243675136 
	330.35226852359875 265.73748216969847 357.93520619712615 1.0001341838684046 
	330.92034461058824 262.15920983578701 358.11588602749788 1.0001117820894598 
	330.96731704208912 260.94994144099877 358.13234975400201 1.0001099531712498 
	330.76878450086667 258.55004870210888 358.06740139995549 1.0001177543093567 
	330.52118439858657 257.36251043981071 357.98636947300042 1.0001274923234815 
	329.81580958137488 255.13809315450493 357.78781944161415 1.0001556627664576 
	329.35209740425921 254.07305851525797 357.66988510644268 1.0001743620328507 
	328.29659687513185 252.10191685435092 357.46099225046521 1.0002172878371023 
	327.70127589472702 251.18315307572715 357.36849688407574 1.00024166234767 
	325.74129444546202 248.58915677682614 357.18615308104995 1.0003212315771428 
	324.21866682873917 247.09753079246667 357.19573260542643 1.0003829284575638 
	321.76578554313346 245.35366927280285 357.5996532923898 1.000466881360355 
	320.93204779357609 244.8638168017514 357.79605860599963 1.0004928581573269 
	319.23399188103218 244.08266568660343 358.34058856667298 1.0005362800368256 
	318.37556414027438 243.7975200341516 358.68916642245097 1.0005533425444937 
	316.72149155549795 243.47522326607168 359.52309864956425 1.0005728203153019 
	315.90328364468058 243.43511760781286 360.02090697730461 1.0005753452926642 
	314.3868312526065 243.60841789563142 361.12194272141613 1.0005647499556669 
	313.68414522151846 243.8176331206339 361.72501585910243 1.0005519178381519 
	312.39365638795419 244.47029438688116 363.01833582189585 1.0005144319203092 
	311.82817527885425 244.90124588682522 363.68529855968131 1.0004905811521709 
	310.82745948820047 245.94817047366246 365.04630233272371 1.000437591588698 
	310.39150306850911 246.57008277927446 365.74465218080974 1.0004082449514458 
	309.29530281253028 248.62767813092495 367.77603493861488 1.000321295735445 
	308.81764346843784 250.29509377197093 369.10054623599842 1.0002631287000749 
	308.22155014392143 254.07836431321078 371.33214598095697 1.0001702409513977 
	308.09648345225901 256.24327052949167 372.26973355836907 1.0001340111629946 
	308.02636765242062 259.82097971328346 372.85822070677705 1.000111741815328 
	308.0220217657793 261.02670541160091 372.90665660991226 1.0001099549967107 
	308.04523519778229 263.42602848478356 372.69749853885287 1.0001178145357983 
	308.07396580394141 264.61057013854457 372.43851003756333 1.0001275554357791 
	308.18519655999569 266.83280842574447 371.71415481729559 1.000155729836802 
	308.26971757740353 267.89627812965836 371.24363992047751 1.0001744135610922 
	308.51599124858092 269.86415572865593 370.19793973356195 1.0002172733493337 
	308.67790026082622 270.78194431450538 369.61846344016607 1.0002416153331264 
	309.32222115911833 273.37426941770087 367.7603529241843 1.0003211127072569 
	309.95962713452116 274.86389963433777 366.3805720968694 1.000382698679287 
	311.79927683425421 277.1884400256742 363.62941704812545 1.0004945471996249 
	313.00717185354074 278.00346164484864 362.26478147172878 1.0005433226763383 
	315.1745209905157 278.49080364608182 360.51978404185155 1.0005727682319432 
	315.96740120855213 278.53117081204215 359.98002667644141 1.000575311488737 
	317.58465243898797 278.36197451130334 359.06033998269766 1.0005649655064974 
	318.41633919838779 278.15764714418947 358.67195024140318 1.0005524216318744 
	319.27288666185245 277.8334088510386 358.35019116172646 1.0005337789769939 
	318.09834976777813 273.27132634695522 358.79831775321975 0.72662084104538249 
	318.68301315686847 273.15611960817222 358.50916055961648 0.73616882538265926 
	319.31199177503964 272.98362756584891 358.23809668041184 0.74837858144177172 
	320.66605281529883 272.46897102572404 357.76871860384483 0.77548562545761024 
	321.38964648334274 272.12898567615207 357.56983825215423 0.79052333534862429 
	323.52081737872948 270.88252366004883 357.14816528610112 0.83512494886214772 
	325.02162346986916 269.70612055834806 357.06694936905006 0.86496444943943784 
	327.51458714579314 266.775021446295 357.20886737170605 0.91266458556552721 
	328.5842037145967 264.97628893563194 357.41778095282558 0.93127666193148961 
	329.23749625589892 261.97561837636533 357.560921104111 0.94274991163032817 
	329.29233921183658 260.95236672695484 357.57479668571818 0.94368660667382287 
	329.06448295147766 258.94124719913134 357.52266787990044 0.93969119159295122 
	328.77732055104877 257.94524973438484 357.45715107458079 0.93470379001638193 
	327.97692250242073 256.11503022251782 357.31299131714525 0.92027607303982428 
	327.45044148644683 255.25055887216206 357.23427135787892 0.91069909466494126 
	326.28462818713774 253.69556194086874 357.12861969514927 0.88871430176473498 
	325.63379785279676 252.99218628389633 357.1013271307944 0.87623070183646246 
	323.53661471863029 251.05865374935462 357.14832813865382 0.83547868654640012 
	322.01197047720461 250.11443111945249 357.38315773657894 0.80388013732179631 
	319.94181517665089 249.19844336394596 358.00125883499356 0.76088298879012628 
	319.28316577950113 248.97890757810291 358.25299196332719 0.74757876510460619 
	318.04499245739879 248.66604208746048 358.80923496365403 0.72533990331124276 
	317.48200646939154 248.57973300451533 359.10818084240464 0.71660120396747518 
	316.43067248608151 248.48550636986437 359.71701808842363 0.70662550834949656 
	315.93598443664376 248.47649551877129 360.02953463346387 0.70533232106130994 
	314.94545655560864 248.52417536054259 360.70118893339463 0.71075880738250463 
	314.45550626081405 248.57983983898998 361.05619907506082 0.7173308786799687 
	313.43255320851119 248.81568363227774 361.89371374215779 0.73652959038297516 
	312.92698266728934 248.98913413504164 362.35398799315226 0.7487449514501896 
	311.94068192648484 249.50646538014689 363.39365626628347 0.77588397887529248 
	311.46137513854956 249.84767321576834 363.97021896697311 0.79091409312853811 
	310.19967045885932 251.09614521817781 365.73432457434114 0.83544582736031026 
	309.50678566136037 252.27392811135917 367.06590816687287 0.86523653829821545 
	308.60793284215373 255.2045316431649 369.38921807172869 0.91280973938893162 
	308.35656910682582 257.00216482150347 370.44651944401738 0.93136511438429115 
	308.21743589909499 260.00245129504282 371.09669856999591 0.94277053834806612 
	308.20760623330068 261.02272867618518 371.15108993134857 0.94368567174944362 
	308.25480421228752 263.03333170035802 370.92038594889061 0.93966034614055582 
	308.31404269290994 264.0267625727447 370.63180953200276 0.93467146654997391 
	308.51412914671664 265.8551061522067 369.84347958138022 0.9202417224281858 
	308.66027019518322 266.71823591505313 369.3321324869288 0.91067270406523271 
	309.04596595561259 268.27063234387356 368.22883554193425 0.88872172179083209 
	309.29009376649714 268.97331218202106 367.62581525840318 0.87625478070975182 
	310.19974065139331 270.90572882597263 365.7376525189577 0.8355395667062655 
	311.04266600968901 271.8490226298332 364.44886730614417 0.80399782009814502 
	312.9684568343265 273.09447581308683 362.23692440365789 0.74671370862476905 
	313.99857027025791 273.33952503344568 361.38557255398848 0.72173295933295578 
	315.47461661338593 273.48116212772879 360.33274163096104 0.70665218325680179 
	315.96472999625485 273.49017919481309 360.01115721049626 0.70534963401227169 
	316.97808098241285 273.4436670359816 359.39168643551363 0.7106484113059699 
	317.4981165329491 273.38960109236319 359.09517533132197 0.71707285670810594 
	318.09834976777813 273.27132634695522 358.79831775321975 0.72662084104538249 
	316.37016555390232 273.01426099113991 354.40056288768216 1.0003631585546935 
	317.19503980255922 272.78269042326338 354.1647202529503 1.0003504749536267 
	318.02031432972728 272.47547131879401 354.02198534659288 1.0003342554386476 
	319.65937291700834 271.72979041470609 353.88568772587496 1.0002982462748018 
	320.47996374037848 271.28622780156365 353.89377611266809 1.0002782700885748 
	322.8213960170217 269.81713807491218 354.09096725512654 1.0002190210311026 
	324.2824280048394 268.62690027731094 354.45846327799325 1.0001793820551694 
	326.6897138011185 265.92424461263676 355.28881466481243 1.0001160169012184 
	327.66726016267842 264.37745262388029 355.76434058863936 1.0000912925046008 
	328.28037796221736 261.82283952996454 356.07228324923193 1.0000760513691969 
	328.33133072414114 260.95952091840888 356.09954254397394 1.000074807057745 
	328.11675467104328 259.24619228682042 355.98979577112192 1.0000801145916909 
	327.84913901603215 258.39837927411497 355.85288713394544 1.0000867398865929 
	327.09216773244304 256.81029068953984 355.5009297671092 1.0001059057544843 
	326.59664729991971 256.04991014767785 355.28439666881252 1.0001186278714087 
	325.47874338787949 254.6425819924807 354.86171919407474 1.0001478326053959 
	324.85247388426092 253.98659685871536 354.65317217630394 1.0001644158962533 
	322.81109026346132 252.13444509179124 354.11057038908825 1.0002185511237891 
	321.25061514403166 251.0693283142956 353.86731741250134 1.0002605268307549 
	318.8019033549644 249.82402285706337 353.93313819043777 1.0003176445070854 
	317.97948210395037 249.47419822150522 354.02515211946076 1.0003353179195851 
	316.32865366384794 248.91632842852999 354.3827567704077 1.0003648601602508 
	315.50636911846908 248.71268118406107 354.64986492645835 1.0003764687021592 
	313.94904640344316 248.48249802091317 355.35562071663071 1.0003897204775196 
	313.19295072339531 248.45385427868655 355.80516214107422 1.00039143835546 
	311.8213939604621 248.57762552750967 356.84841504402112 1.0003842297776846 
	311.20135713900834 248.72704624607439 357.44119910571885 1.0003754993977874 
	310.09367279407115 249.19316134591935 358.7486501021038 1.0003499957111834 
	309.62503568129512 249.50092875896422 359.43962251225952 1.000333768750477 
	308.82590343536538 250.24856966041813 360.87528570175346 1.0002977170996741 
	308.49538767230337 250.69268072000301 361.62492871335814 1.0002777510035386 
	307.71038902512845 252.16194790448208 363.83433681497098 1.0002185947741338 
	307.44181716801 253.35252802038065 365.31472700458573 1.0001790206106578 
	307.20352706860888 256.05370080486205 367.8440209365919 1.0001158240779873 
	307.23209226389508 257.5993241690573 368.92776569092223 1.0000911750038193 
	307.25862944542899 260.15353500891837 369.60939096618375 1.0000760239685385 
	307.26227633688825 261.0143244137808 369.66573242414881 1.0000748082997042 
	307.25109260374518 262.72724639258138 369.42318523777692 1.0000801555669794 
	307.23723085410847 263.57292009517238 369.12284895723843 1.0000867828252844 
	307.23015241544044 265.15945310038683 368.28804331489926 1.0001059513860477 
	307.23814862773884 265.91871639395828 367.74784370893229 1.0001186629288434 
	307.31588928276261 267.32371414115516 366.55709498764833 1.0001478227485876 
	307.38507712132844 267.97900297873855 365.90151231438699 1.0001643839097301 
	307.7353736808638 269.8299613629643 363.82037293219184 1.0002184702502106 
	308.15863669379451 270.89365286710017 362.30169595105212 1.0002603705002318 
	309.58605689205649 272.55364017872859 359.36893074284387 1.0003364670659285 
	310.59712807762577 273.13570858458115 357.96373569064758 1.0003696516467966 
	312.52877135226811 273.483765311215 356.27089817683446 1.000389685042409 
	313.25188533225923 273.51259582728727 355.7677344843944 1.0003914153568294 
	314.75711343933733 273.39175563994229 354.95485373806548 1.0003843764285114 
	315.54531222213495 273.24582568692585 354.63639954199436 1.0003758421557603 
	316.37016555390232 273.01426099113991 354.40056288768216 1.0003631585546935 
	0 
	0 
	25 0 0.03125 0.062500000000000097 0.125 0.1875 0.21875 0.25 0.28125 0.3125 0.375 0.40625 0.4375 0.46875 0.5 0.53125 0.5625 0.625 0.6875 0.71875 0.75 0.78125 0.8125 0.875 0.9375 0.96875 
	0 
	0 
	0 
	0 
	F 1 F 0 F 1 F 0 } I I I I 
	} -1 0 #
truecolor-adesk-attrib $-1 -1 $70 $-1 $27 -1056964608 #
tvertex-vertex $-1 -1 $-1 $27 $71 0.00046870191686945766 #
intcurve-curve $-1 -1 $-1 forward { exactcur full nubs 3 periodic 17 
	0 3 0.0625 2 0.125 2 0.1875 2 0.25 2 
	0.3125 2 0.375 2 0.4375 2 0.5 2 0.5625 2 
	0.625 2 0.6875 2 0.75 2 0.8125 2 0.875 2 
	0.9375 2 1 3 
	315.95277514707323 278.48342707616672 360.01879703977647 
	314.14223704690073 278.48342707616672 361.18459333808153 
	312.63280742499046 277.80260503024141 362.65330521156659 
	310.41221126776281 275.6583895443116 365.55889699054609 
	309.66705474804394 274.21834722581065 367.00031864781795 
	308.64939189727534 270.95993793102497 369.56775853771069 
	308.38107981058715 269.17417260569817 370.68164089048287 
	308.06961801349746 265.24680701145991 372.34625812335582 
	308.02854353264593 263.13249575875761 372.84846505763221 
	308.02755777982287 258.89563262484194 372.85759058168804 
	308.06808784367922 256.76864248863757 372.36024531742885 
	308.37454416295736 252.84654879432372 370.71091211454836 
	308.64370992652289 251.04014965885381 369.5890237503894 
	309.6490405112948 247.79149468091094 367.03899716780069 
	310.38884936834023 246.34524477154514 365.59859293307727 
	312.59255374764615 244.18930016979704 362.69710781724257 
	314.09117310474397 243.49690892642866 361.22717323625722 
	317.7047582583005 243.47034761105425 358.88129343055033 
	319.68666746416238 244.14733052555954 358.09928591842038 
	323.25918241331453 246.28445381184292 357.27069412184926 
	324.88731693112408 247.72603754831175 357.18591547537221 
	327.65729187866759 250.99033973783656 357.31989645663617 
	328.78599538176138 252.77848683373287 357.53686079533463 
	330.43719650839495 256.71671589846824 357.94350897548622 
	330.91225144360249 258.83418615965951 358.1144015315619 
	330.91967071622832 263.08062391335943 358.11685237746525 
	330.44677937810673 265.2138162513495 357.94676342954193 
	328.811073842295 269.14173819619413 357.54216128402527 
	327.67227296520701 270.95275835645083 357.32268634526008 
	324.92426398790485 274.20326336804982 357.18567596024542 
	323.29851192030696 275.65112055807845 357.26636377293369 
	319.73334443576863 277.79916849142154 358.08378258860557 
	317.76331324724555 278.48342707616672 358.85300074147153 
	315.95277514707323 278.48342707616672 360.01879703977647 
	0 
	null_surface 
	null_surface 
	nullbs 
	nullbs 
	I I 
	0 
	16 0 0.0625 0.125 0.1875 0.25 0.3125 0.375 0.4375 0.5 0.5625 0.625 0.6875 0.75 0.8125 0.875 0.9375 
	0 
	F 1 F 0 } I I #
DXID-attrib $-1 -1 $-1 $30 $11 @18 ASM_FACE_FROM_STEP @17 double_a-arm-2250 #
fmesh-eye-attrib $-1 -1 $72 $31 $19 #
truecolor-adesk-attrib $-1 -1 $73 $-1 $32 -1056964608 #
face $74 -1 $-1 $75 $44 $3 $-1 $76 forward single #
loop $-1 -1 $-1 $77 $78 $32 #
cone-surface $-1 -1 $-1 309.18558957842072 260.98342707616672 349.5090301784507 0.54137484549219117 4.5078511381373808e-17 0.84078134890606759 10.509766861325845 7.6540424946709625e-16 -6.7671855686523896 1 I I 0 1 12.5 forward I I I I #
loop $-1 -1 $-1 $-1 $57 $19 #
coedge $-1 -1 $-1 $56 $56 $40 $62 reversed $33 $-1 #
coedge $-1 -1 $-1 $57 $57 $37 $58 forward $55 $-1 #
edge $79 -1 $-1 $80 0 $80 6.2831853071795862 $37 $81 forward @7 unknown #
truecolor-adesk-attrib $-1 -1 $82 $-1 $39 -1056964608 #
vertex $-1 -1 $-1 $39 $83 #
ellipse-curve $-1 -1 $-1 325.42683494318652 242.98342707616672 374.7324706456327 7.5887381520139712e-17 -1 4.7515230223637229e-18 -8.8282041635137034 -6.4293956955236042e-16 5.6844358776680153 1 I I #
edge $84 -1 $-1 $85 0 $85 6.2831853071795862 $40 $86 forward @7 unknown #
truecolor-adesk-attrib $-1 -1 $87 $-1 $41 -1056964608 #
vertex $-1 -1 $-1 $41 $88 #
ellipse-curve $-1 -1 $-1 325.42683494318652 242.98342707616672 374.7324706456327 7.5887381520139712e-17 -1 4.7515230223637229e-18 -14.713673605856172 -1.0715659492539341e-15 9.4740597961133588 1 I I #
tcoedge-coedge $-1 -1 $-1 $43 $42 $89 $90 reversed $44 $91 -0.99999999999999956 4.0413760379345601e-16 #
edge $92 -1 $-1 $93 -1.000085220950601 $47 9.8396497550217983e-05 $43 $94 forward @7 unknown #
pcurve $-1 -1 $-1 0 reversed { exppc nubs 1 open 2 
	-1.0006648523709354 1 0.0009769109862048759 1 
	0.95804852850058908 1.0006648523709354 
	0.95804852850058908 -0.0009769109862048759 
	0 
	spline forward { ref 2 } I I I I 
	} 0 0 #
pcurve $-1 -1 $-1 0 forward { ref 4 } -1 0 #
DXID-attrib $-1 -1 $-1 $46 $27 @18 ASM_EDGE_FROM_STEP @4 8302 #
point $-1 -1 $-1 315.95277514707311 278.48342707616672 360.01879703977653 #
DXID-attrib $-1 -1 $-1 $50 $19 @18 ASM_FACE_FROM_STEP @17 double_a-arm-2251 #
fmesh-eye-attrib $-1 -1 $95 $51 $32 #
truecolor-adesk-attrib $-1 -1 $96 $-1 $52 -1056964608 #
face $97 -1 $-1 $98 $99 $3 $-1 $100 forward single #
spline-surface $-1 -1 $-1 forward { ref 2 } I I F -0.0004036750619387601 F 1.0006648523709354 #
loop $-1 -1 $-1 $-1 $89 $32 #
coedge $-1 -1 $-1 $78 $78 $101 $102 forward $53 $-1 #
truecolor-adesk-attrib $-1 -1 $103 $-1 $58 -1056964608 #
vertex $-1 -1 $-1 $58 $104 #
ellipse-curve $-1 -1 $-1 325.42683494318652 278.98342707616672 374.7324706456327 7.5887381520139712e-17 -1 4.7515230223637229e-18 -8.8282041635137034 -6.4293956955236042e-16 5.6844358776680153 1 I I #
DXID-attrib $-1 -1 $-1 $59 $39 @18 ASM_EDGE_FROM_STEP @4 8305 #
point $-1 -1 $-1 316.59863077967282 242.98342707616672 380.41690652330072 #
truecolor-adesk-attrib $-1 -1 $105 $-1 $62 -1056964608 #
vertex $-1 -1 $-1 $62 $106 #
ellipse-curve $-1 -1 $-1 325.42683494318652 278.98342707616672 374.7324706456327 7.5887381520139712e-17 -1 4.7515230223637229e-18 -14.713673605856172 -1.0715659492539341e-15 9.4740597961133588 1 I I #
DXID-attrib $-1 -1 $-1 $63 $41 @18 ASM_EDGE_FROM_STEP @4 8303 #
point $-1 -1 $-1 310.71316133733035 242.98342707616672 384.20653044174605 #
tcoedge-coedge $-1 -1 $-1 $89 $89 $66 $90 forward $77 $107 -4.0413760379345601e-16 0.99999999999999956 #
tedge-edge $108 -1 $-1 $93 -4.0413760379345601e-16 $93 0.99999999999999956 $89 $109 forward @7 unknown 0.0078088967927392337 #
pcurve $-1 -1 $-1 0 forward { exppc nubs 3 periodic 18 
	-0.99999999999999956 3 -0.9375 3 -0.875 3 -0.8125 3 -0.75 3 
	-0.6875 3 -0.625 3 -0.5625 3 -0.499999999999999 3 -0.437499999999999 3 
	-0.374999999999999 3 -0.312499999999999 3 -0.281249999999999 3 -0.249999999999999 3 -0.1875 3 
	-0.125 3 -0.062499999999999799 3 4.0413760379345601e-16 3 
	0.95804852931766904 1.0000852209440831 
	0.93597696354564175 1.0002539123466061 
	0.91443062593820112 1.0005586586773263 
	0.89360230745837343 1.0002411018199981 
	0.87277398897854563 0.99992354496266989 
	0.85247083669516377 1.0002843230251468 
	0.83236442396304655 1.0001522708052426 
	0.81225801123092944 1.0000202185853382 
	0.79224218149371561 1.0000093471078997 
	0.77183630915592716 1.0000012496893014 
	0.7514304368181387 0.99999315227070307 
	0.73006969280455059 1.0001784647392278 
	0.7080985238391958 0.99981752110238398 
	0.68612735487384102 0.99945657746554017 
	0.66479872918904004 1.0006648523709354 
	0.64439684651569085 1.0003001066861223 
	0.62399496384234154 0.99993536100130909 
	0.60396942337855175 1.0005122806012605 
	0.58391020529236637 1.000250687531111 
	0.56385098720618088 0.99998909446096129 
	0.54352893536464397 1.0000261637608983 
	0.52261435928498268 0.99998814862979535 
	0.50169978320532105 0.99995013349869244 
	0.48024000019832597 0.99992299971174525 
	0.458265160346992 1.0000714975191998 
	0.43629032049565836 1.0002199953266544 
	0.4147375824504122 0.999998445557293 
	0.3938000813472779 0.99998662954050432 
	0.37286258024414359 0.99997481352371564 
	0.35257758655414817 1.0002874458886444 
	0.33245398286750283 1.0001542153646235 
	0.31233037918085749 1.0000209848406025 
	0.29231363090838203 1.0000106357088649 
	0.27188810468130653 1.0000005056604135 
	0.26167534156776884 0.99999544063618795 
	0.25126390297464973 1.0000828866522866 
	0.24072867164989517 0.99982542076252057 
	0.23019344032514061 0.99956795487275463 
	0.21908574054053659 0.99999971578451297 
	0.20815696206919521 0.99979284428582338 
	0.1862994051265128 0.99937910128844387 
	0.16487582739080164 1.0006648523709354 
	0.14447713725433997 1.0003031827213795 
	0.12407844711787798 0.99994151307182355 
	0.10404181339397978 1.0005092902485602 
	0.083975460047303024 1.0002493160485699 
	0.063909106700626189 0.99998934184857957 
	0.04356755308246324 1.0000195507496001 
	0.022660617302829013 0.99999139180103724 
	0.0017536815231947792 0.99996323285247424 
	-0.019879904910303878 0.99991652954155941 
	-0.04195147068233096 1.0000852209440831 
	0.0077487038781936567 
	spline forward { ref 2 } I I I I 
	} 0 0 #
truecolor-adesk-attrib $-1 -1 $-1 $-1 $67 -1056964608 #
tvertex-vertex $-1 -1 $-1 $90 $110 0.00049695749237370585 #
intcurve-curve $-1 -1 $-1 reversed { parcur full nurbs 2 open 2 
	-0.0009769109862048759 2 1.0006648523709354 2 
	315.95302721074268 278.48963604041052 360.01918779029376 1.0005727561148134 
	315.95621509295484 273.47914286942529 360.02439209013937 0.70665838914149237 
	313.24368311929061 273.48293153788603 355.81144536891753 1.0003896767984735 
	0 
	spline forward { ref 2 } I I I I 
	null_surface 
	nubs 1 open 2 
	-0.0009769109862048759 1 1.0006648523709354 1 
	0.95804852850058908 -0.0009769109862048759 
	0.95804852850058908 1.0006648523709354 
	
	nullbs 
	I I 
	0 
	0 
	0 
	surf1 } I I #
DXID-attrib $-1 -1 $-1 $73 $32 @18 ASM_FACE_FROM_STEP @17 double_a-arm-2252 #
fmesh-eye-attrib $-1 -1 $111 $74 $52 #
truecolor-adesk-attrib $-1 -1 $112 $-1 $75 -1056964608 #
face $113 -1 $-1 $114 $115 $3 $-1 $116 forward single #
loop $-1 -1 $-1 $117 $118 $75 #
cone-surface $-1 -1 $-1 190.08312357013858 260.98342707616672 164.537133419116 0.54137484549219195 4.5078511381373863e-17 0.84078134890606704 23.541877769369879 1.7145055188062946e-15 -15.158495673781376 1 I I 0 1 28.000000000000004 forward I I I I #
coedge $-1 -1 $-1 $101 $101 $78 $102 reversed $119 $-1 #
edge $120 -1 $-1 $121 0 $121 6.2831853071795862 $78 $122 forward @7 unknown #
DXID-attrib $-1 -1 $-1 $79 $58 @18 ASM_EDGE_FROM_STEP @4 8306 #
point $-1 -1 $-1 316.59863077967282 278.98342707616672 380.41690652330072 #
DXID-attrib $-1 -1 $-1 $84 $62 @18 ASM_EDGE_FROM_STEP @4 8304 #
point $-1 -1 $-1 310.71316133733035 278.98342707616672 384.20653044174605 #
pcurve $-1 -1 $-1 1 $109 0 0 #
truecolor-adesk-attrib $-1 -1 $123 $-1 $90 -1056964608 #
intcurve-curve $-1 -1 $-1 forward { parcur summary 18 0 0.062499999999999799 0.125 0.1875 0.249999999999999 0.281249999999999 0.312499999999999 0.374999999999999 0.437499999999999 0.499999999999999 0.5625 0.625 0.6875 0.75 0.8125 0.875 0.9375 1 0.0042892565688019742 PERIODIC 
	cone 309.18558957842072 260.98342707616672 349.5090301784507 0.54137484549219117 4.5078511381373808e-17 0.84078134890606759 10.509766861325845 7.6540424946709625e-16 -6.7671855686523896 1 I I 0 1 12.5 forward I I I I 
	null_surface 
	nubs 3 periodic 18 
	0 3 0.062499999999999799 2 0.125 2 0.1875 2 0.249999999999999 2 
	0.281249999999999 2 0.312499999999999 2 0.374999999999999 2 0.437499999999999 2 0.499999999999999 2 
	0.5625 2 0.625 2 0.6875 2 0.75 2 0.8125 2 
	0.875 2 0.9375 2 1 3 
	0.59999999999999998 1.5707963267948932 
	0.59999999999999987 1.4242821343740948 
	0.6365470558808487 1.2825878245493756 
	0.74956920332747956 1.0183705177144033 
	0.82563524246959197 0.89379575444696724 
	0.98352057632440759 0.65280150557165584 
	1.0677280455460554 0.53471756309928287 
	1.2101635981099907 0.2836544875298162 
	1.2687853124422239 0.14362286865986323 
	1.2685505593371749 -0.072750827283889721 
	1.2537674887222876 -0.14638750328273775 
	1.2063490349923354 -0.28250992781492174 
	1.1738425602762395 -0.34781275823799807 
	1.0664986688558391 -0.5366048798169426 
	0.98291617990215185 -0.65366010160375831 
	0.8244638230808875 -0.8956484610848291 
	0.74864228808413624 -1.0200225802638228 
	0.63583696401608847 -1.28477018014718 
	0.59963541940905629 -1.4269102820688671 
	0.60037038325688041 -1.7192992900141471 
	0.63713832334660081 -1.8608218045512857 
	0.75037155818898471 -2.1246577037984666 
	0.82636903122535299 -2.2489622677688148 
	0.98406445159153666 -2.4895756208696045 
	1.0681110456670817 -2.6074661528757157 
	1.2103153966099855 -2.8582900792967978 
	1.2688418124585612 -2.9976549081796686 
	1.2684152351237532 -3.2872310467264483 
	1.2095404335028812 -3.426590175835492 
	1.066782565110745 -3.6777294356657042 
	0.983316030093905 -3.7946814072606752 
	0.8251446529788331 -4.0361623165050347 
	0.74941743064507205 -4.1602087203535296 
	0.6363522839340876 -4.4247453983482403 
	0.60000000000000009 -4.5658747879638923 
	0.59999999999999998 -4.7123889803846932 
	
	nullbs 
	I I 
	0 
	17 0 0.062499999999999799 0.125 0.1875 0.249999999999999 0.281249999999999 0.312499999999999 0.374999999999999 0.437499999999999 0.499999999999999 0.5625 0.625 0.6875 0.75 0.8125 0.875 0.9375 
	0 
	surf1 } I I #
point $-1 -1 $-1 313.24590091961215 273.48342707616672 355.81489029524619 #
DXID-attrib $-1 -1 $-1 $96 $52 @18 ASM_FACE_FROM_STEP @17 double_a-arm-2253 #
fmesh-eye-attrib $-1 -1 $124 $97 $75 #
truecolor-adesk-attrib $-1 -1 $125 $-1 $98 -1056964608 #
face $126 -1 $-1 $127 $128 $3 $-1 $129 reversed single #
loop $-1 -1 $-1 $130 $131 $98 #
plane-surface $-1 -1 $-1 217.15186584474819 260.98342707616672 206.57620086441938 -0.54137484549219195 -4.5078511381373863e-17 -0.84078134890606704 -0.84078134890606704 -6.123233995736766e-17 0.54137484549219195 forward_v I I I I #
loop $-1 -1 $-1 $-1 $132 $75 #
coedge $-1 -1 $-1 $118 $118 $133 $134 forward $99 $-1 #
loop $-1 -1 $-1 $135 $101 $136 #
truecolor-adesk-attrib $-1 -1 $137 $-1 $102 -1056964608 #
vertex $-1 -1 $-1 $102 $138 #
ellipse-curve $-1 -1 $-1 310.80971411489736 260.98342707616672 352.03137422516886 0.54137484549219195 4.5078511381373863e-17 0.84078134890606704 -10.509766861325838 -7.6540424946709576e-16 6.7671855686523994 1 I I #
DXID-attrib $-1 -1 $-1 $108 $90 @18 ASM_EDGE_FROM_STEP @4 8308 #
DXID-attrib $-1 -1 $-1 $112 $75 @18 ASM_FACE_FROM_STEP @17 double_a-arm-2254 #
fmesh-eye-attrib $-1 -1 $139 $113 $98 #
truecolor-adesk-attrib $-1 -1 $140 $-1 $114 -1056964608 #
face $141 -1 $-1 $142 $143 $3 $-1 $144 reversed single #
loop $-1 -1 $-1 $145 $146 $114 #
plane-surface $-1 -1 $-1 309.18558957842072 260.98342707616672 349.5090301784507 -0.54137484549219195 -4.5078511381373863e-17 -0.84078134890606704 -0.84078134890606704 -6.123233995736766e-17 0.54137484549219195 forward_v I I I I #
loop $-1 -1 $-1 $-1 $147 $98 #
coedge $-1 -1 $-1 $131 $131 $148 $149 forward $115 $-1 #
coedge $-1 -1 $-1 $132 $132 $150 $151 forward $117 $-1 #
coedge $-1 -1 $-1 $133 $133 $118 $134 reversed $152 $-1 #
edge $153 -1 $-1 $154 0 $154 6.2831853071795862 $118 $155 forward @7 unknown #
loop $-1 -1 $-1 $-1 $156 $136 #
face $157 -1 $-1 $-1 $119 $3 $-1 $158 reversed single #
DXID-attrib $-1 -1 $-1 $120 $102 @18 ASM_EDGE_FROM_STEP @4 8307 #
point $-1 -1 $-1 300.29994725357153 260.98342707616672 358.79855979382131 #
DXID-attrib $-1 -1 $-1 $125 $98 @18 ASM_FACE_FROM_STEP @17 double_a-arm-2255 #
fmesh-eye-attrib $-1 -1 $159 $126 $114 #
truecolor-adesk-attrib $-1 -1 $160 $-1 $127 -1056964608 #
face $161 -1 $-1 $162 $163 $3 $-1 $164 reversed single #
loop $-1 -1 $-1 $165 $166 $127 #
cone-surface $-1 -1 $-1 303.77184112349892 260.98342707616672 341.10121668939013 -0.54137484549219195 -4.5078511381373863e-17 -0.84078134890606704 -17.236017652574379 -1.2552629691260372e-15 11.098184332589938 1 I I 0.99996192306417131 0.0087265354983738965 20.500000000000004 forward I I I I #
loop $-1 -1 $-1 $-1 $167 $114 #
coedge $-1 -1 $-1 $146 $146 $168 $169 forward $128 $-1 #
coedge $-1 -1 $-1 $147 $147 $170 $171 forward $130 $-1 #
coedge $-1 -1 $-1 $148 $148 $131 $149 reversed $172 $-1 #
edge $173 -1 $-1 $174 0 $174 6.2831853071795862 $131 $175 forward @7 unknown #
coedge $-1 -1 $-1 $150 $150 $132 $151 reversed $176 $-1 #
edge $177 -1 $-1 $178 0 $178 6.2831853071795862 $132 $179 forward @7 unknown #
loop $-1 -1 $-1 $172 $133 $162 #
truecolor-adesk-attrib $-1 -1 $180 $-1 $134 -1056964608 #
vertex $-1 -1 $-1 $134 $181 #
ellipse-curve $-1 -1 $-1 218.77599038122474 260.98342707616672 209.09854491113759 0.54137484549219195 4.5078511381373863e-17 0.84078134890606704 -23.541877769369879 -1.7145055188062946e-15 15.158495673781376 1 I I #
coedge $-1 -1 $-1 $156 $156 $167 $182 reversed $135 $-1 #
truecolor-adesk-attrib $-1 -1 $183 $-1 $136 -1056964608 #
torus-surface $-1 -1 $-1 310.80971411489736 260.98342707616672 352.03137422516886 -0.54137484549219195 -4.5078511381373863e-17 -0.84078134890606704 15.5 3.0000000000000004 -0.84078134890606704 -6.123233995736766e-17 0.54137484549219195 forward_v I I I I #
DXID-attrib $-1 -1 $-1 $140 $114 @18 ASM_FACE_FROM_STEP @17 double_a-arm-2256 #
fmesh-eye-attrib $-1 -1 $184 $141 $127 #
truecolor-adesk-attrib $-1 -1 $185 $-1 $142 -1056964608 #
face $186 -1 $-1 $187 $152 $3 $-1 $188 forward single #
loop $-1 -1 $-1 $189 $190 $142 #
cone-surface $-1 -1 $-1 217.15186584474819 260.98342707616672 206.57620086441938 0.54137484549219195 4.5078511381373863e-17 0.84078134890606704 17.236017652574379 1.2552629691260372e-15 -11.098184332589938 1 I I 0 1 20.500000000000004 forward I I I I #
loop $191 -1 $-1 $-1 $192 $127 #
coedge $-1 -1 $-1 $166 $166 $190 $193 forward $143 $-1 #
coedge $-1 -1 $-1 $167 $167 $156 $182 forward $145 $-1 #
coedge $-1 -1 $-1 $168 $168 $146 $169 reversed $194 $-1 #
edge $195 -1 $-1 $196 0 $196 6.2831853071795862 $146 $197 forward @7 unknown #
coedge $-1 -1 $-1 $170 $170 $147 $171 reversed $189 $-1 #
edge $198 -1 $-1 $199 0 $199 6.2831853071795862 $147 $200 forward @7 unknown #
loop $-1 -1 $-1 $-1 $148 $162 #
truecolor-adesk-attrib $-1 -1 $201 $-1 $149 -1056964608 #
vertex $-1 -1 $-1 $149 $202 #
ellipse-curve $-1 -1 $-1 217.15186584474819 260.98342707616672 206.57620086441938 -0.54137484549219195 -4.5078511381373863e-17 -0.84078134890606704 -21.019533722651676 -1.5308084989341915e-15 13.534371137304799 1 I I #
loop $-1 -1 $-1 $-1 $150 $187 #
truecolor-adesk-attrib $-1 -1 $203 $-1 $151 -1056964608 #
vertex $-1 -1 $-1 $151 $204 #
ellipse-curve $-1 -1 $-1 307.56146504194419 260.98342707616672 346.98668613173254 -0.54137484549219195 -4.5078511381373863e-17 -0.84078134890606704 -23.541877769369879 -1.7145055188062946e-15 15.158495673781376 1 I I #
DXID-attrib $-1 -1 $-1 $153 $134 @18 ASM_EDGE_FROM_STEP @4 8309 #
point $-1 -1 $-1 195.23411261185487 260.98342707616672 224.25704058491897 #
edge $205 -1 $-1 $206 0 $206 6.2831853071795862 $167 $207 forward @7 unknown #
fmesh-eye-attrib $-1 -1 $208 $157 $136 #
DXID-attrib $-1 -1 $-1 $160 $127 @18 ASM_FACE_FROM_STEP @17 double_a-arm-2257 #
fmesh-eye-attrib $-1 -1 $209 $161 $142 #
truecolor-adesk-attrib $-1 -1 $210 $-1 $162 -1056964608 #
face $211 -1 $-1 $136 $194 $3 $-1 $212 forward single #
torus-surface $-1 -1 $-1 218.77599038122474 260.98342707616672 209.09854491113759 -0.54137484549219195 -4.5078511381373863e-17 -0.84078134890606704 25 3.0000000000000004 -0.84078134890606704 -6.123233995736766e-17 0.54137484549219195 forward_v I I I I #
loop $-1 -1 $-1 $-1 $170 $142 #
coedge $-1 -1 $-1 $190 $190 $166 $193 reversed $163 $-1 #
DXID-attrib $-1 -1 $-1 $-1 $165 @18 ASM_LOOP_FROM_STEP @3 745 #
coedge $-1 -1 $-1 $192 $192 $-1 $213 forward $165 $-1 #
edge $214 -1 $-1 $215 0 $215 6.2831853071795862 $166 $216 forward @7 unknown #
loop $-1 -1 $-1 $176 $168 $187 #
truecolor-adesk-attrib $-1 -1 $217 $-1 $169 -1056964608 #
vertex $-1 -1 $-1 $169 $218 #
ellipse-curve $-1 -1 $-1 309.18558957842072 260.98342707616672 349.5090301784507 0.54137484549219195 4.5078511381373863e-17 0.84078134890606704 -21.019533722651676 -1.5308084989341915e-15 13.534371137304799 1 I I #
truecolor-adesk-attrib $-1 -1 $219 $-1 $171 -1056964608 #
vertex $-1 -1 $-1 $171 $220 #
ellipse-curve $-1 -1 $-1 217.15186584474819 260.98342707616672 206.57620086441938 0.54137484549219195 4.5078511381373863e-17 0.84078134890606704 17.236017652574379 1.2552629691260372e-15 -11.098184332589938 1 I I #
DXID-attrib $-1 -1 $-1 $173 $149 @18 ASM_EDGE_FROM_STEP @4 8311 #
point $-1 -1 $-1 196.1323321220965 260.98342707616672 220.11057200172417 #
DXID-attrib $-1 -1 $-1 $177 $151 @18 ASM_EDGE_FROM_STEP @4 8310 #
point $-1 -1 $-1 284.01958727257431 260.98342707616672 362.14518180551386 #
truecolor-adesk-attrib $-1 -1 $221 $-1 $182 -1056964608 #
vertex $-1 -1 $-1 $182 $222 #
ellipse-curve $-1 -1 $-1 309.18558957842072 260.98342707616672 349.5090301784507 -0.54137484549219195 -4.5078511381373863e-17 -0.84078134890606704 -13.032110908044039 -9.4910126933919878e-16 8.3913101051289747 1 I I #
DXID-attrib $-1 -1 $-1 $183 $136 @18 ASM_FACE_FROM_STEP @17 double_a-arm-2261 #
DXID-attrib $-1 -1 $-1 $185 $142 @18 ASM_FACE_FROM_STEP @17 double_a-arm-2258 #
fmesh-eye-attrib $-1 -1 $223 $186 $162 #
truecolor-adesk-attrib $-1 -1 $224 $-1 $187 -1056964608 #
torus-surface $-1 -1 $-1 307.56146504194419 260.98342707616672 346.98668613173254 -0.54137484549219195 -4.5078511381373863e-17 -0.84078134890606704 25 3.0000000000000004 -0.84078134890606704 -6.123233995736766e-17 0.54137484549219195 forward_v I I I I #
edge $225 -1 $-1 $226 1 $226 0 $192 $-1 forward @7 unknown #
truecolor-adesk-attrib $-1 -1 $227 $-1 $193 -1056964608 #
vertex $-1 -1 $-1 $193 $228 #
ellipse-curve $-1 -1 $-1 303.77184112349892 260.98342707616672 341.10121668939013 -0.54137484549219195 -4.5078511381373863e-17 -0.84078134890606704 17.236017652574379 1.2552629691260372e-15 -11.098184332589938 1 I I #
DXID-attrib $-1 -1 $-1 $195 $169 @18 ASM_EDGE_FROM_STEP @4 8313 #
point $-1 -1 $-1 288.16605585576906 260.98342707616672 363.04340131575549 #
DXID-attrib $-1 -1 $-1 $198 $171 @18 ASM_EDGE_FROM_STEP @4 8312 #
point $-1 -1 $-1 234.38788349732255 260.98342707616672 195.47801653182944 #
DXID-attrib $-1 -1 $-1 $205 $182 @18 ASM_EDGE_FROM_STEP @4 8314 #
point $-1 -1 $-1 296.15347867037667 260.98342707616672 357.90034028357968 #
DXID-attrib $-1 -1 $-1 $210 $162 @18 ASM_FACE_FROM_STEP @17 double_a-arm-2259 #
fmesh-eye-attrib $-1 -1 $229 $211 $187 #
truecolor-adesk-attrib $-1 -1 $230 $-1 $213 -1056964608 #
vertex $-1 -1 $-1 $213 $231 #
DXID-attrib $-1 -1 $-1 $214 $193 @18 ASM_EDGE_FROM_STEP @4 8315 #
point $-1 -1 $-1 321.00785877607325 260.98342707616672 330.00303235680019 #
DXID-attrib $-1 -1 $-1 $224 $187 @18 ASM_FACE_FROM_STEP @17 double_a-arm-2260 #
DXID-attrib $-1 -1 $-1 $225 $213 @18 ASM_EDGE_FROM_STEP @3 745 #
point $-1 -1 $-1 303.86869351088683 260.98342707616672 341.25163313668327 #
