700 64 1 0          
5 ZWCAD 12 ACIS 28.0 NT 24 Sat May 11 14:17:30 2024 
1 9.9999999999999995e-07 1e-10 
body $1 -1 $-1 $2 $-1 $-1 #
DXID-attrib $-1 -1 $-1 $-1 $0 @18 ASM_BODY_FROM_STEP @83 1DAC6AEFE4095CCAA6E84EE5525E5DB7BEEFA926|:|B8A4396250C5687B1D31E70758B30729E1AC4426 #
lump $-1 -1 $-1 $-1 $3 $0 #
shell $-1 -1 $-1 $-1 $-1 $4 $-1 $2 #
face $5 -1 $-1 $6 $7 $3 $-1 $8 reversed single #
color-adesk-attrib $-1 -1 $9 $-1 $4 250 #
face $10 -1 $-1 $11 $12 $3 $-1 $13 forward single #
loop $-1 -1 $-1 $14 $15 $4 #
cone-surface $-1 -1 $-1 1.6259300241334006e-12 89.727284262171892 226.36098060660214 -1.8139245782116592e-14 -0.93969262078590832 -0.3420201433256691 -3.40993746001548e-14 -1.7785047452934795 4.8864016280867233 1 I I 0 1 5.2000000000000002 forward I I I I #
fmesh-eye-attrib $-1 -1 $16 $5 $4 #
color-adesk-attrib $-1 -1 $17 $-1 $6 250 #
face $18 -1 $-1 $19 $20 $3 $-1 $21 forward single #
loop $-1 -1 $-1 $22 $23 $6 #
cone-surface $-1 -1 $-1 1.6259300241334006e-12 89.727284262171892 226.36098060660214 -1.8139245782116592e-14 -0.93969262078590832 -0.3420201433256691 -6.5575720384913064e-14 -3.420201433256691 9.3969262078590834 1 I I 0 1 10 forward I I I I #
loop $-1 -1 $-1 $-1 $24 $4 #
coedge $-1 -1 $-1 $15 $15 $25 $26 forward $7 $-1 #
DXID-attrib $-1 -1 $-1 $9 $4 @18 ASM_FACE_FROM_STEP @30 Face Shield Assembly V1.1-3190 #
fmesh-eye-attrib $-1 -1 $27 $10 $6 #
color-adesk-attrib $-1 -1 $28 $-1 $11 250 #
face $29 -1 $-1 $-1 $30 $3 $-1 $31 reversed single #
loop $-1 -1 $-1 $32 $33 $11 #
plane-surface $-1 -1 $-1 1.6277439487116122e-12 89.821253524250494 226.39518262093472 1.8139245782116592e-14 0.93969262078590832 0.3420201433256691 6.5575720384913069e-15 0.3420201433256691 -0.93969262078590832 forward_v I I I I #
loop $-1 -1 $-1 $-1 $34 $6 #
coedge $-1 -1 $-1 $23 $23 $33 $35 reversed $12 $-1 #
coedge $-1 -1 $-1 $24 $24 $36 $37 reversed $14 $-1 #
coedge $-1 -1 $-1 $25 $25 $15 $26 reversed $32 $-1 #
edge $38 -1 $-1 $39 0 $39 6.2831853071795862 $15 $40 forward @7 unknown #
DXID-attrib $-1 -1 $-1 $17 $6 @18 ASM_FACE_FROM_STEP @30 Face Shield Assembly V1.1-3191 #
fmesh-eye-attrib $-1 -1 $41 $18 $11 #
color-adesk-attrib $-1 -1 $42 $-1 $19 250 #
loop $-1 -1 $-1 $43 $44 $19 #
plane-surface $-1 -1 $-1 1.5987211554602256e-12 88.317745330993034 225.84795039161364 1.8139245782116592e-14 0.93969262078590832 0.3420201433256691 6.5575720384913069e-15 0.3420201433256691 -0.93969262078590832 forward_v I I I I #
loop $-1 -1 $-1 $-1 $25 $11 #
coedge $-1 -1 $-1 $33 $33 $23 $35 forward $20 $-1 #
coedge $-1 -1 $-1 $34 $34 $44 $45 forward $22 $-1 #
edge $46 -1 $-1 $47 0 $47 6.2831853071795862 $23 $48 forward @7 unknown #
coedge $-1 -1 $-1 $36 $36 $24 $37 forward $43 $-1 #
edge $49 -1 $-1 $50 0 $50 6.2831853071795862 $24 $51 forward @7 unknown #
color-adesk-attrib $-1 -1 $52 $-1 $26 250 #
vertex $-1 -1 $-1 $26 $53 #
ellipse-curve $-1 -1 $-1 1.6277439487116122e-12 89.821253524250494 226.39518262093472 1.8139245782116592e-14 0.93969262078590832 0.3420201433256691 -5.2000000000000002 1.0029831311006035e-13 2.1780401435919419e-16 1 I I #
DXID-attrib $-1 -1 $-1 $28 $11 @18 ASM_FACE_FROM_STEP @30 Face Shield Assembly V1.1-3192 #
fmesh-eye-attrib $-1 -1 $54 $29 $19 #
loop $-1 -1 $-1 $-1 $36 $19 #
coedge $-1 -1 $-1 $44 $44 $34 $45 reversed $30 $-1 #
edge $55 -1 $-1 $56 0 $56 6.2831853071795862 $34 $57 forward @7 unknown #
color-adesk-attrib $-1 -1 $58 $-1 $35 250 #
vertex $-1 -1 $-1 $35 $59 #
ellipse-curve $-1 -1 $-1 1.6277439487116122e-12 89.821253524250494 226.39518262093472 1.8139245782116592e-14 0.93969262078590832 0.3420201433256691 -10 1.9288137136550068e-13 4.1885387376768112e-16 1 I I #
color-adesk-attrib $-1 -1 $60 $-1 $37 250 #
vertex $-1 -1 $-1 $37 $61 #
ellipse-curve $-1 -1 $-1 1.5987211554602256e-12 88.317745330993034 225.84795039161364 1.8139245782116592e-14 0.93969262078590832 0.3420201433256691 -5.2000000000000002 1.0029831311006035e-13 2.1780401435919419e-16 1 I I #
DXID-attrib $-1 -1 $-1 $38 $26 @18 ASM_EDGE_FROM_STEP @4 1636 #
point $-1 -1 $-1 -5.1999999999983721 89.821253524250594 226.39518262093472 #
DXID-attrib $-1 -1 $-1 $42 $19 @18 ASM_FACE_FROM_STEP @30 Face Shield Assembly V1.1-3193 #
color-adesk-attrib $-1 -1 $62 $-1 $45 250 #
vertex $-1 -1 $-1 $45 $63 #
ellipse-curve $-1 -1 $-1 1.5987211554602256e-12 88.317745330993034 225.84795039161364 1.8139245782116592e-14 0.93969262078590832 0.3420201433256691 -10 1.9288137136550068e-13 4.1885387376768112e-16 1 I I #
DXID-attrib $-1 -1 $-1 $46 $35 @18 ASM_EDGE_FROM_STEP @4 1638 #
point $-1 -1 $-1 -9.9999999999983729 89.821253524250679 226.39518262093472 #
DXID-attrib $-1 -1 $-1 $49 $37 @18 ASM_EDGE_FROM_STEP @4 1637 #
point $-1 -1 $-1 -5.1999999999984015 88.317745330993134 225.84795039161364 #
DXID-attrib $-1 -1 $-1 $55 $45 @18 ASM_EDGE_FROM_STEP @4 1639 #
point $-1 -1 $-1 -9.9999999999984013 88.317745330993233 225.84795039161364 #
