700 583 1 0         
16 Autodesk AutoCAD 20 ASM 229.2.0.65535 NT 24 Wed Mar  6 01:01:24 2024 
1 9.999999999999999547e-07 1.000000000000000036e-10 
body $1 -1 $-1 $2 $-1 $3 #
DXID-attrib $-1 -1 $-1 $-1 $0 @18 ASM_BODY_FROM_STEP @83 4C254FEAB50103E3FC883B5A77A7D3DAF41914AF|:|EB2A2A0056F69AA3FE01456133DD100FA8589B6C #
lump $-1 -1 $-1 $-1 $4 $0 #
transform $-1 -1 1 0 0 0 1 0 0 0 1 0 0 0 1 no_rotate no_reflect no_shear #
shell $-1 -1 $-1 $-1 $-1 $5 $-1 $2 #
face $6 -1 $-1 $7 $8 $4 $-1 $9 reversed single #
truecolor-adesk-attrib $-1 -1 $10 $-1 $5 -1027555136 #
face $11 -1 $-1 $12 $13 $4 $-1 $14 reversed single #
loop $-1 -1 $-1 $-1 $15 $5 #
torus-surface $-1 -1 $-1 1.271539806556344576 0 0 1 1.598090000000000099e-16 0 7.878481836708900232 1.058858850007277086 0 0 -1 forward_v I I I I #
color-adesk-attrib $-1 -1 $16 $6 $5 9 #
truecolor-adesk-attrib $-1 -1 $17 $-1 $7 -1027555136 #
face $18 -1 $-1 $19 $20 $4 $-1 $21 forward single #
loop $-1 -1 $-1 $-1 $22 $7 #
torus-surface $-1 -1 $-1 1.271539806556344576 0 0 1 1.598090000000000099e-16 0 7.878481836708900232 1.058858850007277086 0 0 -1 forward_v I I I I #
coedge $-1 -1 $-1 $23 $24 $25 $26 reversed $8 $-1 #
DXID-attrib $-1 -1 $-1 $10 $5 @18 ASM_FACE_FROM_STEP @8 Felge-99 #
color-adesk-attrib $-1 -1 $27 $11 $7 9 #
truecolor-adesk-attrib $-1 -1 $28 $-1 $12 -1027555136 #
face $29 -1 $-1 $30 $31 $4 $-1 $32 reversed single #
loop $-1 -1 $-1 $-1 $33 $12 #
cone-surface $-1 -1 $-1 2.437389673080484709 3.13832100000000572e-16 0 1 0 0 0 7.999999999999952927 0 1 I I 0 1 7.999999999999952927 forward I I I I #
coedge $-1 -1 $-1 $34 $35 $36 $37 reversed $13 $-1 #
coedge $-1 -1 $-1 $38 $15 $35 $39 forward $8 $-1 #
coedge $-1 -1 $-1 $15 $40 $34 $41 forward $8 $-1 #
coedge $-1 -1 $-1 $42 $43 $15 $26 forward $44 $-1 #
edge $45 -1 $-1 $46 -3.141592653589793116 $47 -1.034117619004884941e-16 $15 $48 forward @2 g2 #
DXID-attrib $-1 -1 $-1 $17 $7 @18 ASM_FACE_FROM_STEP @9 Felge-119 #
color-adesk-attrib $-1 -1 $49 $18 $12 9 #
truecolor-adesk-attrib $-1 -1 $50 $-1 $19 -1027555136 #
face $51 -1 $-1 $52 $53 $4 $-1 $54 forward single #
loop $-1 -1 $-1 $-1 $36 $19 #
torus-surface $-1 -1 $-1 1.271539806556344576 0 0 1 1.598090000000000099e-16 0 7.878481836708900232 1.058858850007277086 0 0 -1 forward_v I I I I #
coedge $-1 -1 $-1 $55 $56 $57 $58 reversed $20 $-1 #
coedge $-1 -1 $-1 $59 $22 $24 $41 reversed $13 $-1 #
coedge $-1 -1 $-1 $22 $60 $23 $39 reversed $13 $-1 #
coedge $-1 -1 $-1 $61 $62 $22 $37 forward $31 $-1 #
edge $63 -1 $-1 $47 -1.034117619004884941e-16 $46 3.141592653589793116 $22 $64 forward @2 g2 #
coedge $-1 -1 $-1 $40 $23 $65 $66 forward $8 $-1 #
edge $67 -1 $-1 $46 -3.141592653589793116 $68 -1.45577957864204599 $23 $69 forward @2 g2 #
coedge $-1 -1 $-1 $24 $38 $70 $71 forward $8 $-1 #
edge $72 -1 $-1 $73 1.45577957864204599 $47 3.141592653589793116 $24 $74 forward @2 g2 #
coedge $-1 -1 $-1 $75 $25 $62 $76 forward $44 $-1 #
coedge $-1 -1 $-1 $25 $77 $61 $78 forward $44 $-1 #
loop $-1 -1 $-1 $-1 $25 $79 #
truecolor-adesk-attrib $-1 -1 $80 $-1 $26 -1027555136 #
vertex $-1 -1 $-1 $26 $81 #
vertex $-1 -1 $-1 $26 $82 #
ellipse-curve $-1 -1 $-1 1.271539806556344576 3.867434145396833623e-32 0 1 1.598090000000000099e-16 0 0 0 -6.819622986701627809 1 F -3.141592653589793116 F -1.034117619004884941e-16 #
DXID-attrib $-1 -1 $-1 $28 $12 @18 ASM_FACE_FROM_STEP @9 Felge-105 #
color-adesk-attrib $-1 -1 $83 $29 $19 9 #
truecolor-adesk-attrib $-1 -1 $84 $-1 $30 -1027555136 #
face $85 -1 $-1 $86 $87 $4 $-1 $88 forward single #
loop $-1 -1 $-1 $-1 $89 $30 #
cone-surface $-1 -1 $-1 0.06265214965355192511 -6.567229000000007104e-17 0 1 0 0 0 7.999999999999952927 0 1 I I 0 1 7.999999999999952927 forward I I I I #
coedge $-1 -1 $-1 $90 $33 $91 $92 forward $20 $-1 #
coedge $-1 -1 $-1 $33 $93 $94 $95 reversed $20 $-1 #
coedge $-1 -1 $-1 $96 $97 $33 $58 forward $98 $-1 #
edge $99 -1 $-1 $100 -0.004487678844850990535 $101 0.004487678844850608029 $33 $102 forward @2 g2 #
coedge $-1 -1 $-1 $60 $34 $103 $104 forward $13 $-1 #
coedge $-1 -1 $-1 $35 $59 $105 $106 forward $13 $-1 #
coedge $-1 -1 $-1 $91 $36 $43 $78 reversed $31 $-1 #
coedge $-1 -1 $-1 $36 $107 $42 $76 reversed $31 $-1 #
truecolor-adesk-attrib $-1 -1 $108 $-1 $37 -1027555136 #
ellipse-curve $-1 -1 $-1 1.271539806556344576 1.765766149721876793e-32 0 1 1.598090000000000099e-16 0 0 0 -6.819622986701627809 1 F -1.034117619004884941e-16 F 3.141592653589793116 #
coedge $-1 -1 $-1 $105 $109 $38 $66 reversed $53 $-1 #
edge $110 -1 $-1 $68 1.570796326794896558 $111 3.141592653589793116 $38 $112 forward @7 unknown #
truecolor-adesk-attrib $-1 -1 $113 $-1 $39 -1027555136 #
vertex $-1 -1 $-1 $39 $114 #
ellipse-curve $-1 -1 $-1 1.271539806556344576 9.648038915707933521e-16 7.878481836708900232 -1.598090000000000099e-16 1 -1.22460635382237997e-16 -2.072219771955700677e-32 1.296685275519969665e-16 1.058858850007277086 1 F -3.141592653589793116 F -1.45577957864204599 #
coedge $-1 -1 $-1 $115 $103 $40 $71 reversed $116 $-1 #
edge $117 -1 $-1 $111 -3.141592653589793116 $73 -1.57079632679489678 $40 $118 forward @7 unknown #
truecolor-adesk-attrib $-1 -1 $119 $-1 $41 -1027555136 #
vertex $-1 -1 $-1 $71 $120 #
ellipse-curve $-1 -1 $-1 1.271539806556344576 -9.648038915707933521e-16 -7.878481836708900232 -1.598090000000000099e-16 1 -1.22460635382237997e-16 2.072219771955700677e-32 -1.296685275519969665e-16 -1.058858850007277086 1 F 1.45577957864204599 F 3.141592653589793116 #
coedge $-1 -1 $-1 $77 $42 $121 $122 reversed $44 $-1 #
edge $123 -1 $-1 $47 -3.141592653589793116 $124 -1.45577957864204599 $62 $125 forward @2 g2 #
coedge $-1 -1 $-1 $43 $75 $90 $126 reversed $44 $-1 #
edge $127 -1 $-1 $128 1.45577957864204599 $46 3.141592653589793116 $61 $129 forward @2 g2 #
face $130 -1 $-1 $131 $44 $4 $-1 $132 reversed single #
color-adesk-attrib $-1 -1 $133 $45 $26 9 #
point $-1 -1 $-1 1.271539806556344576 7.052292285518867188e-16 6.819622986701627809 #
point $-1 -1 $-1 1.271539806556344576 -7.052292285518867188e-16 -6.819622986701627809 #
DXID-attrib $-1 -1 $-1 $50 $19 @18 ASM_FACE_FROM_STEP @9 Felge-127 #
color-adesk-attrib $-1 -1 $134 $51 $30 9 #
truecolor-adesk-attrib $-1 -1 $135 $-1 $52 -1027555136 #
face $136 -1 $-1 $137 $138 $4 $-1 $139 forward single #
loop $-1 -1 $-1 $-1 $140 $52 #
cone-surface $-1 -1 $-1 -1.547186143278687087 -3.229388999999988448e-16 0 1 0 0 0 5.249999999999979572 0 1 I I 0.8841956050380243015 0.4671168291032150588 5.249999999999979572 forward I I I I #
coedge $-1 -1 $-1 $141 $105 $142 $143 reversed $53 $-1 #
coedge $-1 -1 $-1 $93 $55 $77 $126 forward $20 $-1 #
coedge $-1 -1 $-1 $107 $61 $55 $92 reversed $31 $-1 #
edge $144 -1 $-1 $100 0 $128 1.570796326794896558 $55 $145 forward @7 unknown #
coedge $-1 -1 $-1 $56 $90 $146 $147 reversed $20 $-1 #
coedge $-1 -1 $-1 $148 $148 $56 $95 forward $149 $-1 #
edge $150 -1 $-1 $101 0 $151 3.141592653589793116 $56 $152 forward @7 unknown #
coedge $-1 -1 $-1 $146 $57 $148 $153 reversed $98 $-1 #
coedge $-1 -1 $-1 $57 $121 $107 $154 forward $98 $-1 #
loop $-1 -1 $-1 $-1 $57 $131 #
truecolor-adesk-attrib $-1 -1 $155 $-1 $58 -1027555136 #
vertex $-1 -1 $-1 $58 $156 #
vertex $-1 -1 $-1 $58 $157 #
straight-curve $-1 -1 $-1 2.437389673080484709 7.999999999999952927 9.796850830578960873e-16 25.39999999999999503 0 0 F -0.004487678844850990535 F 0.004487678844850608029 #
coedge $-1 -1 $-1 $70 $142 $59 $104 reversed $116 $-1 #
edge $158 -1 $-1 $73 -1.57079632679489678 $159 0 $59 $160 forward @7 unknown #
coedge $-1 -1 $-1 $89 $65 $60 $106 reversed $53 $-1 #
edge $161 -1 $-1 $159 0 $68 1.570796326794896558 $60 $162 forward @7 unknown #
coedge $-1 -1 $-1 $62 $91 $97 $154 reversed $31 $-1 #
color-adesk-attrib $-1 -1 $163 $63 $37 9 #
coedge $-1 -1 $-1 $65 $141 $115 $164 reversed $53 $-1 #
truecolor-adesk-attrib $-1 -1 $165 $-1 $66 -1027555136 #
vertex $-1 -1 $-1 $66 $166 #
ellipse-curve $-1 -1 $-1 0.2196769826914169443 -4.057831000000000052e-17 0 1 0 0 0 7.999999999999952927 0 1 F 1.570796326794896558 F 3.141592653589793116 #
color-adesk-attrib $-1 -1 $167 $67 $39 9 #
point $-1 -1 $-1 0.2196769826914169443 8.115879370388652606e-16 7.999999999999952927 #
coedge $-1 -1 $-1 $168 $70 $109 $164 forward $116 $-1 #
loop $-1 -1 $-1 $-1 $142 $169 #
truecolor-adesk-attrib $-1 -1 $170 $-1 $71 -1027555136 #
ellipse-curve $-1 -1 $-1 0.2196769826914169443 -4.057831000000000052e-17 0 1 0 0 0 7.999999999999952927 0 1 F -3.141592653589793116 F -1.57079632679489678 #
color-adesk-attrib $-1 -1 $171 $72 $41 9 #
point $-1 -1 $-1 0.2196769826914169443 -1.147782229076927309e-15 -7.999999999999952927 #
coedge $-1 -1 $-1 $97 $146 $75 $122 forward $98 $-1 #
edge $172 -1 $-1 $173 -3.141592653589793116 $124 -1.57079632679489678 $75 $174 forward @7 unknown #
truecolor-adesk-attrib $-1 -1 $175 $-1 $76 -1027555136 #
vertex $-1 -1 $-1 $154 $176 #
ellipse-curve $-1 -1 $-1 1.271539806556344576 -9.648038915707933521e-16 -7.878481836708900232 -1.598090000000000099e-16 1 -1.22460635382237997e-16 2.072219771955700677e-32 -1.296685275519969665e-16 -1.058858850007277086 1 F -3.141592653589793116 F -1.45577957864204599 #
edge $177 -1 $-1 $128 1.570796326794896558 $173 3.141592653589793116 $90 $178 forward @7 unknown #
truecolor-adesk-attrib $-1 -1 $179 $-1 $78 -1027555136 #
vertex $-1 -1 $-1 $92 $180 #
ellipse-curve $-1 -1 $-1 1.271539806556344576 9.648038915707933521e-16 7.878481836708900232 -1.598090000000000099e-16 1 -1.22460635382237997e-16 -2.072219771955700677e-32 1.296685275519969665e-16 1.058858850007277086 1 F 1.45577957864204599 F 3.141592653589793116 #
truecolor-adesk-attrib $-1 -1 $181 $-1 $79 -1027555136 #
face $182 -1 $-1 $-1 $98 $4 $-1 $183 forward single #
torus-surface $-1 -1 $-1 1.271539806556344576 0 0 1 1.598090000000000099e-16 0 7.878481836708900232 1.058858850007277086 0 0 -1 forward_v I I I I #
DXID-attrib $-1 -1 $-1 $80 $26 @18 ASM_EDGE_FROM_STEP @3 621 #
DXID-attrib $-1 -1 $-1 $84 $30 @18 ASM_FACE_FROM_STEP @9 Felge-131 #
color-adesk-attrib $-1 -1 $184 $85 $52 9 #
truecolor-adesk-attrib $-1 -1 $185 $-1 $86 -1027555136 #
face $186 -1 $-1 $187 $188 $4 $-1 $189 reversed single #
loop $-1 -1 $-1 $-1 $190 $86 #
cone-surface $-1 -1 $-1 -3.999999603173058027 -7.149205000000010824e-16 0 1 0 0 0 2.499999999999999556 0 1 I I 0 1 2.499999999999999556 forward I I I I #
coedge $-1 -1 $-1 $191 $192 $193 $194 reversed $87 $-1 #
coedge $-1 -1 $-1 $109 $89 $192 $195 forward $53 $-1 #
coedge $-1 -1 $-1 $103 $168 $89 $143 forward $116 $-1 #
edge $196 -1 $-1 $197 -0.00618207998031780788 $159 0.006182080040860789098 $89 $198 forward @2 g2 #
truecolor-adesk-attrib $-1 -1 $199 $-1 $92 -1027555136 #
ellipse-curve $-1 -1 $-1 2.323402630421271819 2.956158999999994163e-16 0 1 0 0 0 7.999999999999952927 0 1 F 0 F 1.570796326794896558 #
coedge $-1 -1 $-1 $121 $96 $93 $147 forward $98 $-1 #
edge $200 -1 $-1 $151 -0.004487678844850608029 $173 0.004487678844850892523 $93 $201 forward @2 g2 #
coedge $-1 -1 $-1 $94 $94 $96 $153 forward $149 $-1 #
loop $-1 -1 $-1 $202 $94 $203 #
truecolor-adesk-attrib $-1 -1 $204 $-1 $95 -1027555136 #
vertex $-1 -1 $-1 $147 $205 #
ellipse-curve $-1 -1 $-1 2.551376715739690049 3.320482000000010062e-16 0 1 0 0 0 7.999999999999952927 0 1 F 0 F 3.141592653589793116 #
edge $206 -1 $-1 $151 -3.141592653589793116 $101 0 $148 $207 forward @7 unknown #
edge $208 -1 $-1 $124 -1.57079632679489678 $100 0 $107 $209 forward @7 unknown #
color-adesk-attrib $-1 -1 $210 $99 $58 9 #
point $-1 -1 $-1 2.323402630421269599 7.999999999999952927 0 #
point $-1 -1 $-1 2.551376715739690049 7.999999999999952927 0 #
truecolor-adesk-attrib $-1 -1 $211 $-1 $104 -1027555136 #
vertex $-1 -1 $-1 $104 $212 #
ellipse-curve $-1 -1 $-1 0.2196769826914169443 -4.057831000000000052e-17 0 1 0 0 0 7.999999999999952927 0 1 F -1.57079632679489678 F 0 #
truecolor-adesk-attrib $-1 -1 $213 $-1 $106 -1027555136 #
ellipse-curve $-1 -1 $-1 0.2196769826914169443 -4.057831000000000052e-17 0 1 0 0 0 7.999999999999952927 0 1 F 0 F 1.570796326794896558 #
DXID-attrib $-1 -1 $-1 $108 $37 @18 ASM_EDGE_FROM_STEP @3 644 #
edge $214 -1 $-1 $111 -0.006182080040860828997 $215 0.006182079980317805278 $109 $216 forward @2 g2 #
color-adesk-attrib $-1 -1 $217 $110 $66 9 #
point $-1 -1 $-1 0.2196769826914169443 -7.999999999999952927 -9.796850830578960873e-16 #
DXID-attrib $-1 -1 $-1 $113 $39 @18 ASM_EDGE_FROM_STEP @3 622 #
coedge $-1 -1 $-1 $142 $115 $218 $219 forward $116 $-1 #
face $220 -1 $-1 $79 $116 $4 $-1 $221 forward single #
color-adesk-attrib $-1 -1 $222 $117 $71 9 #
DXID-attrib $-1 -1 $-1 $119 $41 @18 ASM_EDGE_FROM_STEP @3 624 #
truecolor-adesk-attrib $-1 -1 $223 $-1 $122 -1027555136 #
vertex $-1 -1 $-1 $126 $224 #
ellipse-curve $-1 -1 $-1 2.323402630421271819 2.956158999999994163e-16 0 1 0 0 0 7.999999999999952927 0 1 F -3.141592653589793116 F -1.57079632679489678 #
color-adesk-attrib $-1 -1 $225 $123 $76 9 #
point $-1 -1 $-1 2.323402630421271819 -8.115879370388652606e-16 -7.999999999999952927 #
truecolor-adesk-attrib $-1 -1 $226 $-1 $126 -1027555136 #
ellipse-curve $-1 -1 $-1 2.323402630421271819 2.956158999999994163e-16 0 1 0 0 0 7.999999999999952927 0 1 F 1.570796326794896558 F 3.141592653589793116 #
color-adesk-attrib $-1 -1 $227 $127 $78 9 #
point $-1 -1 $-1 2.323402630421271819 1.147782229076927309e-15 7.999999999999952927 #
color-adesk-attrib $-1 -1 $228 $130 $79 9 #
truecolor-adesk-attrib $-1 -1 $229 $-1 $131 -1027555136 #
cone-surface $-1 -1 $-1 2.437389673080484709 3.13832100000000572e-16 0 1 0 0 0 7.999999999999952927 0 1 I I 0 1 7.999999999999952927 forward I I I I #
DXID-attrib $-1 -1 $-1 $135 $52 @18 ASM_FACE_FROM_STEP @8 Felge-85 #
color-adesk-attrib $-1 -1 $230 $136 $86 9 #
truecolor-adesk-attrib $-1 -1 $231 $-1 $137 -1027555136 #
face $232 -1 $-1 $233 $234 $4 $-1 $235 forward single #
loop $-1 -1 $-1 $-1 $236 $137 #
torus-surface $-1 -1 $-1 3.000000396826931315 0 0 1 0 0 2.090287304607027163 1.152972519832982323 0 0 -1 forward_v I I I I #
coedge $-1 -1 $-1 $237 $238 $239 $240 reversed $138 $-1 #
coedge $-1 -1 $-1 $241 $140 $238 $242 forward $87 $-1 #
coedge $-1 -1 $-1 $140 $241 $141 $195 reversed $87 $-1 #
coedge $-1 -1 $-1 $218 $243 $140 $194 forward $244 $-1 #
edge $245 -1 $-1 $246 -0.1224476980675964083 $197 0.1224476980675959503 $140 $247 forward @2 g2 #
edge $248 -1 $-1 $197 6.12303176883465715e-17 $215 3.141592653589793116 $141 $249 forward @7 unknown #
truecolor-adesk-attrib $-1 -1 $250 $-1 $143 -1027555136 #
vertex $-1 -1 $-1 $143 $251 #
straight-curve $-1 -1 $-1 0.06265214965355192511 7.999999999999952927 9.796850830578960873e-16 25.39999999999999503 0 0 F -0.00618207998031780788 F 0.006182080040860789098 #
color-adesk-attrib $-1 -1 $252 $144 $92 9 #
truecolor-adesk-attrib $-1 -1 $253 $-1 $147 -1027555136 #
straight-curve $-1 -1 $-1 2.437389673080484709 -7.999999999999952927 -9.796850830578960873e-16 -25.39999999999999503 0 0 F -0.004487678844850608029 F 0.004487678844850892523 #
loop $-1 -1 $-1 $-1 $254 $203 #
face $255 -1 $-1 $256 $149 $4 $-1 $257 forward single #
color-adesk-attrib $-1 -1 $258 $150 $95 9 #
point $-1 -1 $-1 2.551376715739690049 -7.999999999999952927 -9.796850830578960873e-16 #
truecolor-adesk-attrib $-1 -1 $259 $-1 $153 -1027555136 #
ellipse-curve $-1 -1 $-1 2.551376715739690049 3.320482000000010062e-16 0 1 0 0 0 7.999999999999952927 0 1 F -3.141592653589793116 F 0 #
truecolor-adesk-attrib $-1 -1 $260 $-1 $154 -1027555136 #
ellipse-curve $-1 -1 $-1 2.323402630421271819 2.956158999999994163e-16 0 1 0 0 0 7.999999999999952927 0 1 F -1.57079632679489678 F 0 #
DXID-attrib $-1 -1 $-1 $155 $58 @18 ASM_EDGE_FROM_STEP @3 628 #
color-adesk-attrib $-1 -1 $261 $158 $104 9 #
point $-1 -1 $-1 0.2196769826914159451 7.999999999999952927 0 #
color-adesk-attrib $-1 -1 $262 $161 $106 9 #
truecolor-adesk-attrib $-1 -1 $263 $-1 $164 -1027555136 #
vertex $-1 -1 $-1 $195 $264 #
straight-curve $-1 -1 $-1 0.06265214965355192511 -7.999999999999952927 -9.796850830578960873e-16 -25.39999999999999503 0 0 F -0.006182080040860828997 F 0.006182079980317805278 #
DXID-attrib $-1 -1 $-1 $165 $66 @18 ASM_EDGE_FROM_STEP @3 623 #
coedge $-1 -1 $-1 $265 $193 $168 $219 reversed $244 $-1 #
edge $266 -1 $-1 $215 -3.141592653589793116 $197 6.12303176883465715e-17 $218 $267 forward @7 unknown #
truecolor-adesk-attrib $-1 -1 $268 $-1 $169 -1027555136 #
cone-surface $-1 -1 $-1 0.06265214965355192511 -6.567229000000007104e-17 0 1 0 0 0 7.999999999999952927 0 1 I I 0 1 7.999999999999952927 forward I I I I #
DXID-attrib $-1 -1 $-1 $170 $71 @18 ASM_EDGE_FROM_STEP @3 613 #
color-adesk-attrib $-1 -1 $269 $172 $122 9 #
point $-1 -1 $-1 2.323402630421271819 -7.999999999999952927 -9.796850830578960873e-16 #
DXID-attrib $-1 -1 $-1 $175 $76 @18 ASM_EDGE_FROM_STEP @3 641 #
color-adesk-attrib $-1 -1 $270 $177 $126 9 #
DXID-attrib $-1 -1 $-1 $179 $78 @18 ASM_EDGE_FROM_STEP @3 642 #
DXID-attrib $-1 -1 $-1 $181 $79 @18 ASM_FACE_FROM_STEP @9 Felge-117 #
color-adesk-attrib $-1 -1 $271 $182 $131 9 #
DXID-attrib $-1 -1 $-1 $185 $86 @18 ASM_FACE_FROM_STEP @8 Felge-95 #
color-adesk-attrib $-1 -1 $272 $186 $137 9 #
truecolor-adesk-attrib $-1 -1 $273 $-1 $187 -1027555136 #
face $274 -1 $-1 $275 $276 $4 $-1 $277 forward single #
loop $-1 -1 $-1 $-1 $278 $187 #
torus-surface $-1 -1 $-1 2.251376715739703993 -5.981839000000002241e-17 0 -1 -7.990448999999999443e-17 0 3.335555037869724071 0.2999999999999988787 0 0 1 forward_v I I I I #
coedge $-1 -1 $-1 $279 $280 $281 $282 reversed $188 $-1 #
coedge $-1 -1 $-1 $283 $190 $284 $285 forward $138 $-1 #
coedge $-1 -1 $-1 $190 $283 $191 $242 reversed $138 $-1 #
coedge $-1 -1 $-1 $286 $287 $190 $240 forward $288 $-1 #
edge $289 -1 $-1 $290 -0.03937007874015799325 $246 0.03937007867961408308 $190 $291 forward @2 g2 #
coedge $-1 -1 $-1 $192 $191 $265 $292 reversed $87 $-1 #
edge $293 -1 $-1 $246 6.123031769999022009e-17 $294 3.141592653589793116 $191 $295 forward @7 unknown #
coedge $-1 -1 $-1 $193 $265 $286 $296 forward $244 $-1 #
loop $-1 -1 $-1 $-1 $193 $297 #
truecolor-adesk-attrib $-1 -1 $298 $-1 $194 -1027555136 #
vertex $-1 -1 $-1 $194 $299 #
straight-curve $-1 -1 $-1 -1.547186143278687087 5.249999999999979572 6.429183357567460884e-16 11.86476745922173492 22.45856836796578193 2.750290552116504606e-15 F -0.1224476980675964083 F 0.1224476980675959503 #
truecolor-adesk-attrib $-1 -1 $300 $-1 $195 -1027555136 #
ellipse-curve $-1 -1 $-1 -0.09437268338431187287 -9.076626000000006325e-17 0 1 0 0 0 7.999999999999952927 0 1 F 6.12303176883465715e-17 F 3.141592653589793116 #
color-adesk-attrib $-1 -1 $301 $196 $143 9 #
point $-1 -1 $-1 -0.0943726818465203815 7.999999999637742221 4.89842541484591381e-16 #
DXID-attrib $-1 -1 $-1 $199 $92 @18 ASM_EDGE_FROM_STEP @3 629 #
color-adesk-attrib $-1 -1 $302 $200 $147 9 #
coedge $-1 -1 $-1 $303 $303 $304 $305 reversed $202 $-1 #
truecolor-adesk-attrib $-1 -1 $306 $-1 $203 -1027555136 #
face $307 -1 $-1 $308 $309 $4 $-1 $310 reversed single #
plane-surface $-1 -1 $-1 2.551376715739715362 3.999999999999976463 0 1 0 0 0 25.39999999999999503 0 forward_v I I I I #
DXID-attrib $-1 -1 $-1 $204 $95 @18 ASM_EDGE_FROM_STEP @3 599 #
color-adesk-attrib $-1 -1 $311 $206 $153 9 #
color-adesk-attrib $-1 -1 $312 $208 $154 9 #
DXID-attrib $-1 -1 $-1 $211 $104 @18 ASM_EDGE_FROM_STEP @3 612 #
DXID-attrib $-1 -1 $-1 $213 $106 @18 ASM_EDGE_FROM_STEP @3 645 #
color-adesk-attrib $-1 -1 $313 $214 $164 9 #
point $-1 -1 $-1 -0.09437268184652029823 -7.999999999637742221 -9.796972166110312973e-16 #
coedge $-1 -1 $-1 $243 $218 $241 $292 forward $244 $-1 #
truecolor-adesk-attrib $-1 -1 $314 $-1 $219 -1027555136 #
ellipse-curve $-1 -1 $-1 -0.09437268338431187287 -9.076626000000006325e-17 0 1 0 0 0 7.999999999999952927 0 1 F -3.141592653589793116 F 6.12303176883465715e-17 #
color-adesk-attrib $-1 -1 $315 $220 $169 9 #
DXID-attrib $-1 -1 $-1 $223 $122 @18 ASM_EDGE_FROM_STEP @3 638 #
DXID-attrib $-1 -1 $-1 $226 $126 @18 ASM_EDGE_FROM_STEP @3 630 #
DXID-attrib $-1 -1 $-1 $229 $131 @18 ASM_FACE_FROM_STEP @9 Felge-115 #
DXID-attrib $-1 -1 $-1 $231 $137 @18 ASM_FACE_FROM_STEP @9 Felge-113 #
color-adesk-attrib $-1 -1 $316 $232 $187 9 #
truecolor-adesk-attrib $-1 -1 $317 $-1 $233 -1027555136 #
face $318 -1 $-1 $319 $320 $4 $-1 $321 reversed single #
loop $-1 -1 $-1 $-1 $322 $233 #
torus-surface $-1 -1 $-1 2.251376715739703993 -5.981839000000002241e-17 0 1 7.990448999999999443e-17 0 0.8450195713443350298 0.2999999999999988787 0 0 -1 forward_v I I I I #
coedge $-1 -1 $-1 $323 $324 $325 $326 reversed $234 $-1 #
coedge $-1 -1 $-1 $327 $236 $323 $328 reversed $188 $-1 #
coedge $-1 -1 $-1 $236 $327 $329 $330 reversed $188 $-1 #
coedge $-1 -1 $-1 $331 $332 $236 $282 forward $309 $-1 #
edge $333 -1 $-1 $334 0.5412829354405068738 $335 2.600309718149288685 $236 $336 forward @2 g2 #
coedge $-1 -1 $-1 $238 $237 $337 $338 reversed $138 $-1 #
coedge $-1 -1 $-1 $339 $339 $237 $285 reversed $340 $-1 #
edge $341 -1 $-1 $290 0 $342 3.141592653589793116 $237 $343 forward @7 unknown #
coedge $-1 -1 $-1 $337 $239 $243 $296 reversed $288 $-1 #
coedge $-1 -1 $-1 $239 $337 $339 $344 forward $288 $-1 #
loop $-1 -1 $-1 $-1 $239 $345 #
truecolor-adesk-attrib $-1 -1 $346 $-1 $240 -1027555136 #
vertex $-1 -1 $-1 $240 $347 #
straight-curve $-1 -1 $-1 -3.999999603173058027 2.499999999999996891 3.061515884555933778e-16 25.39999999999999503 0 0 F -0.03937007874015799325 F 0.03937007867961408308 #
edge $348 -1 $-1 $215 -0.1224476980675959503 $294 0.1224476980675963528 $241 $349 forward @2 g2 #
truecolor-adesk-attrib $-1 -1 $350 $-1 $242 -1027555136 #
vertex $-1 -1 $-1 $242 $351 #
ellipse-curve $-1 -1 $-1 -2.999999603173070906 -5.551114999999992976e-16 0 1 0 0 0 2.499999999999999556 0 1 F 6.123031769999022009e-17 F 3.141592653589793116 #
edge $352 -1 $-1 $294 -3.141592653589793116 $246 6.123031769999022009e-17 $286 $353 forward @7 unknown #
face $354 -1 $-1 $169 $244 $4 $-1 $355 forward single #
color-adesk-attrib $-1 -1 $356 $245 $194 9 #
point $-1 -1 $-1 -2.999999604710860801 2.500000000362207597 1.53075794272153672e-16 #
color-adesk-attrib $-1 -1 $357 $248 $195 9 #
DXID-attrib $-1 -1 $-1 $250 $143 @18 ASM_EDGE_FROM_STEP @3 611 #
DXID-attrib $-1 -1 $-1 $253 $147 @18 ASM_EDGE_FROM_STEP @3 631 #
coedge $-1 -1 $-1 $254 $254 $324 $358 reversed $202 $-1 #
coedge $-1 -1 $-1 $359 $325 $254 $305 forward $360 $-1 #
edge $361 -1 $-1 $362 -3.141592653589793116 $363 1.152740224414090948e-16 $304 $364 forward @14 tangent_not_g2 #
color-adesk-attrib $-1 -1 $365 $255 $203 9 #
truecolor-adesk-attrib $-1 -1 $366 $-1 $256 -1027555136 #
face $367 -1 $-1 $345 $340 $4 $-1 $368 forward single #
loop $-1 -1 $-1 $-1 $281 $256 #
torus-surface $-1 -1 $-1 3.000000396826931315 0 0 1 0 0 2.090287304607027163 1.152972519832982323 0 0 -1 forward_v I I I I #
DXID-attrib $-1 -1 $-1 $259 $153 @18 ASM_EDGE_FROM_STEP @3 600 #
DXID-attrib $-1 -1 $-1 $260 $154 @18 ASM_EDGE_FROM_STEP @3 639 #
DXID-attrib $-1 -1 $-1 $263 $164 @18 ASM_EDGE_FROM_STEP @3 614 #
color-adesk-attrib $-1 -1 $369 $266 $219 9 #
DXID-attrib $-1 -1 $-1 $268 $169 @18 ASM_FACE_FROM_STEP @8 Felge-89 #
DXID-attrib $-1 -1 $-1 $273 $187 @18 ASM_FACE_FROM_STEP @9 Felge-103 #
color-adesk-attrib $-1 -1 $370 $274 $233 9 #
truecolor-adesk-attrib $-1 -1 $371 $-1 $275 -1027555136 #
face $372 -1 $-1 $373 $374 $4 $-1 $375 reversed single #
loop $-1 -1 $-1 $-1 $376 $275 #
cone-surface $-1 -1 $-1 -2.4999996031730638 -4.752069999999995391e-16 0 -1 -1.598090000000000099e-16 0 0 0 1.299999999999999378 1 I I 0 1 1.299999999999999378 forward I I I I #
coedge $-1 -1 $-1 $329 $377 $378 $379 reversed $276 $-1 #
coedge $-1 -1 $-1 $380 $278 $279 $328 forward $234 $-1 #
coedge $-1 -1 $-1 $278 $380 $303 $358 forward $234 $-1 #
coedge $-1 -1 $-1 $304 $381 $278 $326 forward $360 $-1 #
edge $382 -1 $-1 $383 -2.600309718149310001 $362 -1.570796326794896558 $278 $384 forward @2 g2 #
coedge $-1 -1 $-1 $280 $279 $385 $386 reversed $188 $-1 #
edge $387 -1 $-1 $383 -3.141592653589793116 $334 -1.070413054396588525e-16 $279 $388 forward @14 tangent_not_g2 #
coedge $-1 -1 $-1 $389 $322 $280 $330 forward $276 $-1 #
edge $390 -1 $-1 $335 -1.655293426391228385e-16 $391 3.141592653589793116 $280 $392 forward @14 tangent_not_g2 #
coedge $-1 -1 $-1 $385 $281 $393 $394 reversed $309 $-1 #
coedge $-1 -1 $-1 $281 $385 $381 $395 reversed $309 $-1 #
truecolor-adesk-attrib $-1 -1 $396 $-1 $282 -1027555136 #
vertex $-1 -1 $-1 $282 $397 #
vertex $-1 -1 $-1 $282 $398 #
ellipse-curve $-1 -1 $-1 3.000000396826931315 -2.55977911453602684e-16 -2.090287304607027163 0 1 -1.22460635382237997e-16 0 -1.411937473570070032e-16 -1.152972519832982323 1 F 0.5412829354405068738 F 2.600309718149288685 #
coedge $-1 -1 $-1 $287 $286 $283 $338 forward $288 $-1 #
edge $399 -1 $-1 $294 -0.03937007867961408308 $342 0.03937007874015799325 $283 $400 forward @2 g2 #
coedge $-1 -1 $-1 $284 $284 $287 $344 reversed $340 $-1 #
loop $-1 -1 $-1 $401 $284 $308 #
truecolor-adesk-attrib $-1 -1 $402 $-1 $285 -1027555136 #
vertex $-1 -1 $-1 $285 $403 #
ellipse-curve $-1 -1 $-1 -4.99999960317307135 -8.747295000000003035e-16 0 1 0 0 0 2.499999999999994671 0 1 F 0 F 3.141592653589793116 #
edge $404 -1 $-1 $342 -3.141592653589793116 $290 0 $339 $405 forward @7 unknown #
face $406 -1 $-1 $297 $288 $4 $-1 $407 forward single #
color-adesk-attrib $-1 -1 $408 $289 $240 9 #
point $-1 -1 $-1 -4.99999960317307135 2.499999999999994671 0 #
truecolor-adesk-attrib $-1 -1 $409 $-1 $292 -1027555136 #
straight-curve $-1 -1 $-1 -1.547186143278687087 -5.249999999999979572 -6.429183357567460884e-16 -11.86476745922173492 22.45856836796578193 2.750290552116504606e-15 F -0.1224476980675959503 F 0.1224476980675963528 #
color-adesk-attrib $-1 -1 $410 $293 $242 9 #
point $-1 -1 $-1 -2.999999604710860801 -2.50000000036220893 -3.061553802491681488e-16 #
truecolor-adesk-attrib $-1 -1 $411 $-1 $296 -1027555136 #
ellipse-curve $-1 -1 $-1 -2.999999603173070906 -5.551114999999992976e-16 0 1 0 0 0 2.499999999999999556 0 1 F -3.141592653589793116 F 6.123031769999022009e-17 #
truecolor-adesk-attrib $-1 -1 $412 $-1 $297 -1027555136 #
cone-surface $-1 -1 $-1 -1.547186143278687087 -3.229388999999988448e-16 0 1 0 0 0 5.249999999999979572 0 1 I I 0.8841956050380243015 0.4671168291032150588 5.249999999999979572 forward I I I I #
DXID-attrib $-1 -1 $-1 $298 $194 @18 ASM_EDGE_FROM_STEP @3 589 #
DXID-attrib $-1 -1 $-1 $300 $195 @18 ASM_EDGE_FROM_STEP @3 604 #
edge $413 -1 $-1 $363 1.152740224414090948e-16 $362 3.141592653589793116 $324 $414 forward @14 tangent_not_g2 #
coedge $-1 -1 $-1 $381 $304 $380 $415 forward $360 $-1 #
loop $-1 -1 $-1 $-1 $325 $416 #
truecolor-adesk-attrib $-1 -1 $417 $-1 $305 -1027555136 #
vertex $-1 -1 $-1 $326 $418 #
vertex $-1 -1 $-1 $415 $419 #
ellipse-curve $-1 -1 $-1 2.551376715739715362 -1.187569999999999452e-17 0 1 0 0 0 0 -3.335555037869724071 1 F -3.141592653589793116 F 1.152740224414090948e-16 #
DXID-attrib $-1 -1 $-1 $306 $203 @18 ASM_FACE_FROM_STEP @8 Felge-83 #
color-adesk-attrib $-1 -1 $420 $307 $256 9 #
truecolor-adesk-attrib $-1 -1 $421 $-1 $308 -1027555136 #
plane-surface $-1 -1 $-1 -4.99999960317307135 1.249999999999998446 0 -1 0 0 0 0 25.39999999999999503 forward_v I I I I #
DXID-attrib $-1 -1 $-1 $314 $219 @18 ASM_EDGE_FROM_STEP @3 590 #
DXID-attrib $-1 -1 $-1 $317 $233 @18 ASM_FACE_FROM_STEP @9 Felge-125 #
color-adesk-attrib $-1 -1 $422 $318 $275 9 #
truecolor-adesk-attrib $-1 -1 $423 $-1 $319 -1027555136 #
face $424 -1 $-1 $425 $426 $4 $-1 $427 reversed single #
loop $-1 -1 $-1 $-1 $428 $319 #
cone-surface $-1 -1 $-1 0.3905597991948490111 -1.326970000000000574e-17 0 -1 -1.598090000000000099e-16 0 0 0 0.6500000000000009104 1 I I 0.8571673000960904343 0.5150380759186439228 0.6500000000000009104 forward I I I I #
coedge $-1 -1 $-1 $429 $430 $431 $432 reversed $320 $-1 #
coedge $-1 -1 $-1 $322 $389 $433 $434 forward $276 $-1 #
coedge $-1 -1 $-1 $435 $393 $322 $379 forward $436 $-1 #
edge $437 -1 $-1 $335 0.5412829354405018778 $438 1.570796326794896558 $322 $439 forward @2 g2 #
coedge $-1 -1 $-1 $324 $323 $359 $415 reversed $234 $-1 #
coedge $-1 -1 $-1 $325 $359 $332 $395 forward $360 $-1 #
truecolor-adesk-attrib $-1 -1 $440 $-1 $326 -1027555136 #
vertex $-1 -1 $-1 $328 $441 #
ellipse-curve $-1 -1 $-1 2.251376715739703993 -4.682925792899506299e-16 3.335555037869724071 7.990448999999999443e-17 -1 -1.22460635382237997e-16 2.935546384588086599e-33 -3.673819061467126474e-17 0.2999999999999988787 1 F -2.600309718149310001 F -1.570796326794896558 #
coedge $-1 -1 $-1 $332 $331 $327 $386 forward $309 $-1 #
edge $442 -1 $-1 $391 -2.600309718149288685 $383 -0.5412829354405068738 $327 $443 forward @2 g2 #
truecolor-adesk-attrib $-1 -1 $444 $-1 $328 -1027555136 #
ellipse-curve $-1 -1 $-1 2.405947501670318012 0 0 -1 0 0 0 0 -3.078440526150143963 1 F -3.141592653589793116 F -1.070413054396588525e-16 #
coedge $-1 -1 $-1 $377 $329 $445 $446 reversed $276 $-1 #
truecolor-adesk-attrib $-1 -1 $447 $-1 $330 -1027555136 #
vertex $-1 -1 $-1 $386 $448 #
ellipse-curve $-1 -1 $-1 2.405947501670318012 0 0 1 0 0 0 0 -1.10213408306390459 1 F -1.655293426391228385e-16 F 3.141592653589793116 #
coedge $-1 -1 $-1 $378 $445 $331 $394 forward $436 $-1 #
edge $449 -1 $-1 $391 -3.141592653589793116 $335 -1.655293426391228385e-16 $393 $450 forward @14 tangent_not_g2 #
edge $451 -1 $-1 $334 -1.070413054396588525e-16 $383 3.141592653589793116 $381 $452 forward @14 tangent_not_g2 #
color-adesk-attrib $-1 -1 $453 $333 $282 9 #
point $-1 -1 $-1 2.405947501670318012 3.295202926374616009e-16 -3.078440526150143963 #
point $-1 -1 $-1 2.405947501670318012 -1.824355302697405376e-16 -1.10213408306390459 #
truecolor-adesk-attrib $-1 -1 $454 $-1 $338 -1027555136 #
straight-curve $-1 -1 $-1 -3.999999603173058027 -2.499999999999999556 -3.061515884555933778e-16 -25.39999999999999503 0 0 F -0.03937007867961408308 F 0.03937007874015799325 #
loop $-1 -1 $-1 $-1 $455 $308 #
color-adesk-attrib $-1 -1 $456 $341 $285 9 #
point $-1 -1 $-1 -4.99999960317307135 -2.499999999999996891 -3.061515884555933778e-16 #
truecolor-adesk-attrib $-1 -1 $457 $-1 $344 -1027555136 #
ellipse-curve $-1 -1 $-1 -4.99999960317307135 -8.747295000000003035e-16 0 1 0 0 0 2.499999999999994671 0 1 F -3.141592653589793116 F 0 #
truecolor-adesk-attrib $-1 -1 $458 $-1 $345 -1027555136 #
cone-surface $-1 -1 $-1 -3.999999603173058027 -7.149205000000010824e-16 0 1 0 0 0 2.499999999999999556 0 1 I I 0 1 2.499999999999999556 forward I I I I #
DXID-attrib $-1 -1 $-1 $346 $240 @18 ASM_EDGE_FROM_STEP @3 617 #
color-adesk-attrib $-1 -1 $459 $348 $292 9 #
DXID-attrib $-1 -1 $-1 $350 $242 @18 ASM_EDGE_FROM_STEP @3 603 #
color-adesk-attrib $-1 -1 $460 $352 $296 9 #
color-adesk-attrib $-1 -1 $461 $354 $297 9 #
truecolor-adesk-attrib $-1 -1 $462 $-1 $358 -1027555136 #
ellipse-curve $-1 -1 $-1 2.551376715739715362 -1.187569999999999452e-17 0 1 0 0 0 0 -3.335555037869724071 1 F 1.152740224414090948e-16 F 3.141592653589793116 #
edge $463 -1 $-1 $363 1.570796326794896558 $334 2.600309718149310001 $380 $464 forward @2 g2 #
face $465 -1 $-1 $203 $360 $4 $-1 $466 forward single #
color-adesk-attrib $-1 -1 $467 $361 $305 9 #
point $-1 -1 $-1 2.551376715739715362 -4.203633999999995269e-16 3.335555037869724071 #
point $-1 -1 $-1 2.551376715739715362 3.726271462899496651e-16 -3.335555037869724071 #
DXID-attrib $-1 -1 $-1 $366 $256 @18 ASM_FACE_FROM_STEP @9 Felge-107 #
color-adesk-attrib $-1 -1 $468 $367 $308 9 #
DXID-attrib $-1 -1 $-1 $371 $275 @18 ASM_FACE_FROM_STEP @8 Felge-69 #
color-adesk-attrib $-1 -1 $469 $372 $319 9 #
truecolor-adesk-attrib $-1 -1 $470 $-1 $373 -1027555136 #
face $471 -1 $-1 $472 $473 $4 $-1 $474 reversed single #
loop $-1 -1 $-1 $-1 $475 $373 #
cone-surface $-1 -1 $-1 0.3905597991948490111 -1.326970000000000574e-17 0 -1 -1.598090000000000099e-16 0 0 0 0.6500000000000009104 1 I I 0.8571673000960904343 0.5150380759186439228 0.6500000000000009104 forward I I I I #
coedge $-1 -1 $-1 $476 $477 $475 $478 reversed $374 $-1 #
coedge $-1 -1 $-1 $479 $376 $480 $481 reversed $320 $-1 #
coedge $-1 -1 $-1 $376 $479 $477 $482 reversed $320 $-1 #
coedge $-1 -1 $-1 $483 $484 $376 $432 forward $473 $-1 #
edge $485 -1 $-1 $486 -0.09842519685039401167 $487 0.09842519685039369248 $376 $488 forward @2 g2 #
coedge $-1 -1 $-1 $489 $489 $377 $434 reversed $490 $-1 #
edge $491 -1 $-1 $492 -3.141592653589793116 $438 1.508284316000983817e-16 $377 $493 forward @14 tangent_not_g2 #
coedge $-1 -1 $-1 $445 $378 $489 $494 forward $436 $-1 #
loop $-1 -1 $-1 $-1 $378 $472 #
truecolor-adesk-attrib $-1 -1 $495 $-1 $379 -1027555136 #
vertex $-1 -1 $-1 $379 $496 #
ellipse-curve $-1 -1 $-1 2.251376715739703993 -1.633000236172533284e-16 -0.8450195713443350298 7.990448999999999443e-17 -1 1.22460635382237997e-16 2.935546384588086599e-33 -3.673819061467126474e-17 -0.2999999999999988787 1 F 0.5412829354405018778 F 1.570796326794896558 #
color-adesk-attrib $-1 -1 $497 $382 $326 9 #
point $-1 -1 $-1 2.405947501670318012 4.244676999999988588e-16 3.078440526150143963 #
truecolor-adesk-attrib $-1 -1 $498 $-1 $386 -1027555136 #
ellipse-curve $-1 -1 $-1 3.000000396826931315 2.55977911453602684e-16 2.090287304607027163 0 1 -1.22460635382237997e-16 0 1.411937473570070032e-16 1.152972519832982323 1 F -2.600309718149288685 F -0.5412829354405068738 #
color-adesk-attrib $-1 -1 $499 $387 $328 9 #
coedge $-1 -1 $-1 $393 $435 $389 $446 forward $436 $-1 #
edge $500 -1 $-1 $492 -1.570796326794896558 $391 -0.5412829354405018778 $389 $501 forward @2 g2 #
color-adesk-attrib $-1 -1 $502 $390 $330 9 #
point $-1 -1 $-1 2.405947501670318012 -8.75050100000000391e-17 1.10213408306390459 #
truecolor-adesk-attrib $-1 -1 $503 $-1 $394 -1027555136 #
ellipse-curve $-1 -1 $-1 2.405947501670318012 0 0 1 0 0 0 0 -1.10213408306390459 1 F -3.141592653589793116 F -1.655293426391228385e-16 #
truecolor-adesk-attrib $-1 -1 $504 $-1 $395 -1027555136 #
ellipse-curve $-1 -1 $-1 2.405947501670318012 0 0 -1 0 0 0 0 -3.078440526150143963 1 F -1.070413054396588525e-16 F 3.141592653589793116 #
DXID-attrib $-1 -1 $-1 $396 $282 @18 ASM_EDGE_FROM_STEP @3 633 #
color-adesk-attrib $-1 -1 $505 $399 $338 9 #
coedge $-1 -1 $-1 $480 $480 $484 $506 forward $401 $-1 #
DXID-attrib $-1 -1 $-1 $402 $285 @18 ASM_EDGE_FROM_STEP @3 618 #
color-adesk-attrib $-1 -1 $507 $404 $344 9 #
color-adesk-attrib $-1 -1 $508 $406 $345 9 #
DXID-attrib $-1 -1 $-1 $409 $292 @18 ASM_EDGE_FROM_STEP @3 591 #
DXID-attrib $-1 -1 $-1 $411 $296 @18 ASM_EDGE_FROM_STEP @3 592 #
DXID-attrib $-1 -1 $-1 $412 $297 @18 ASM_FACE_FROM_STEP @8 Felge-77 #
color-adesk-attrib $-1 -1 $509 $413 $358 9 #
truecolor-adesk-attrib $-1 -1 $510 $-1 $415 -1027555136 #
ellipse-curve $-1 -1 $-1 2.251376715739703993 3.486557992899506343e-16 -3.335555037869724071 7.990448999999999443e-17 -1 -1.22460635382237997e-16 -2.935546384588086599e-33 3.673819061467126474e-17 -0.2999999999999988787 1 F 1.570796326794896558 F 2.600309718149310001 #
truecolor-adesk-attrib $-1 -1 $511 $-1 $416 -1027555136 #
torus-surface $-1 -1 $-1 2.251376715739703993 -5.981839000000002241e-17 0 -1 -7.990448999999999443e-17 0 3.335555037869724071 0.2999999999999988787 0 0 1 forward_v I I I I #
DXID-attrib $-1 -1 $-1 $417 $305 @18 ASM_EDGE_FROM_STEP @3 595 #
DXID-attrib $-1 -1 $-1 $421 $308 @18 ASM_FACE_FROM_STEP @9 Felge-133 #
DXID-attrib $-1 -1 $-1 $423 $319 @18 ASM_FACE_FROM_STEP @8 Felge-67 #
color-adesk-attrib $-1 -1 $512 $424 $373 9 #
truecolor-adesk-attrib $-1 -1 $513 $-1 $425 -1027555136 #
face $514 -1 $-1 $515 $436 $4 $-1 $516 forward single #
loop $-1 -1 $-1 $-1 $431 $425 #
cone-surface $-1 -1 $-1 -2.4999996031730638 -4.752069999999995391e-16 0 -1 -1.598090000000000099e-16 0 0 0 1.299999999999999378 1 I I 0 1 1.299999999999999378 forward I I I I #
coedge $-1 -1 $-1 $517 $518 $428 $478 forward $426 $-1 #
coedge $-1 -1 $-1 $477 $428 $518 $519 reversed $374 $-1 #
coedge $-1 -1 $-1 $428 $476 $430 $482 forward $374 $-1 #
edge $520 -1 $-1 $521 -0.0298547916821297922 $522 0.02985479166102214532 $428 $523 forward @2 g2 #
coedge $-1 -1 $-1 $430 $429 $524 $525 reversed $320 $-1 #
coedge $-1 -1 $-1 $455 $455 $429 $481 forward $401 $-1 #
edge $526 -1 $-1 $527 -3.141592653589793116 $486 0 $429 $528 forward @7 unknown #
edge $529 -1 $-1 $487 0 $522 3.141592653589793116 $430 $530 forward @7 unknown #
coedge $-1 -1 $-1 $524 $431 $517 $531 reversed $473 $-1 #
coedge $-1 -1 $-1 $431 $524 $455 $506 reversed $473 $-1 #
truecolor-adesk-attrib $-1 -1 $532 $-1 $432 -1027555136 #
vertex $-1 -1 $-1 $432 $533 #
vertex $-1 -1 $-1 $432 $534 #
straight-curve $-1 -1 $-1 -2.4999996031730638 -3.160081740030915408e-16 1.299999999999999378 25.39999999999999503 4.059148599999999956e-15 0 F -0.09842519685039401167 F 0.09842519685039369248 #
coedge $-1 -1 $-1 $433 $433 $435 $494 reversed $490 $-1 #
loop $-1 -1 $-1 $-1 $433 $515 #
truecolor-adesk-attrib $-1 -1 $535 $-1 $434 -1027555136 #
vertex $-1 -1 $-1 $446 $536 #
ellipse-curve $-1 -1 $-1 2.551376715739715362 -1.187569999999999452e-17 0 -1 0 0 0 0 -0.8450195713443350298 1 F -3.141592653589793116 F 1.508284316000983817e-16 #
edge $537 -1 $-1 $438 1.508284316000983817e-16 $492 3.141592653589793116 $435 $538 forward @14 tangent_not_g2 #
color-adesk-attrib $-1 -1 $539 $437 $379 9 #
point $-1 -1 $-1 2.551376715739715362 -1.393286766172535088e-16 -0.8450195713443350298 #
DXID-attrib $-1 -1 $-1 $440 $326 @18 ASM_EDGE_FROM_STEP @3 594 #
color-adesk-attrib $-1 -1 $540 $442 $386 9 #
DXID-attrib $-1 -1 $-1 $444 $328 @18 ASM_EDGE_FROM_STEP @3 626 #
truecolor-adesk-attrib $-1 -1 $541 $-1 $446 -1027555136 #
ellipse-curve $-1 -1 $-1 2.251376715739703993 4.366324361725351778e-17 0.8450195713443350298 7.990448999999999443e-17 -1 1.22460635382237997e-16 -2.935546384588086599e-33 3.673819061467126474e-17 0.2999999999999988787 1 F -1.570796326794896558 F -0.5412829354405018778 #
DXID-attrib $-1 -1 $-1 $447 $330 @18 ASM_EDGE_FROM_STEP @3 636 #
color-adesk-attrib $-1 -1 $542 $449 $394 9 #
color-adesk-attrib $-1 -1 $543 $451 $395 9 #
DXID-attrib $-1 -1 $-1 $454 $338 @18 ASM_EDGE_FROM_STEP @3 619 #
edge $544 -1 $-1 $486 0 $527 3.141592653589793116 $484 $545 forward @7 unknown #
DXID-attrib $-1 -1 $-1 $457 $344 @18 ASM_EDGE_FROM_STEP @3 647 #
DXID-attrib $-1 -1 $-1 $458 $345 @18 ASM_FACE_FROM_STEP @9 Felge-121 #
DXID-attrib $-1 -1 $-1 $462 $358 @18 ASM_EDGE_FROM_STEP @3 601 #
color-adesk-attrib $-1 -1 $546 $463 $415 9 #
color-adesk-attrib $-1 -1 $547 $465 $416 9 #
DXID-attrib $-1 -1 $-1 $470 $373 @18 ASM_FACE_FROM_STEP @8 Felge-75 #
color-adesk-attrib $-1 -1 $548 $471 $425 9 #
truecolor-adesk-attrib $-1 -1 $549 $-1 $472 -1027555136 #
face $550 -1 $-1 $416 $490 $4 $-1 $551 forward single #
torus-surface $-1 -1 $-1 2.251376715739703993 -5.981839000000002241e-17 0 1 7.990448999999999443e-17 0 0.8450195713443350298 0.2999999999999988787 0 0 -1 forward_v I I I I #
coedge $-1 -1 $-1 $518 $475 $483 $531 forward $426 $-1 #
coedge $-1 -1 $-1 $475 $517 $476 $519 forward $426 $-1 #
edge $552 -1 $-1 $487 -0.02985479166102214532 $521 0.0298547916821297922 $476 $553 forward @2 g2 #
truecolor-adesk-attrib $-1 -1 $554 $-1 $478 -1027555136 #
vertex $-1 -1 $-1 $478 $555 #
vertex $-1 -1 $-1 $525 $556 #
straight-curve $-1 -1 $-1 0.3905597991948490111 -9.286911299845457498e-17 -0.6500000000000009104 -13.08196712833355413 -4.756835090657425141e-15 -21.77204942244070907 F -0.0298547916821297922 F 0.02985479166102214532 #
coedge $-1 -1 $-1 $484 $483 $479 $525 forward $473 $-1 #
edge $557 -1 $-1 $522 -0.09842519685039369248 $527 0.09842519685039401167 $479 $558 forward @2 g2 #
truecolor-adesk-attrib $-1 -1 $559 $-1 $481 -1027555136 #
vertex $-1 -1 $-1 $481 $560 #
ellipse-curve $-1 -1 $-1 -4.99999960317307135 -8.747295000000003035e-16 0 1 0 0 0 0 1.299999999999999378 1 F -3.141592653589793116 F 0 #
truecolor-adesk-attrib $-1 -1 $561 $-1 $482 -1027555136 #
ellipse-curve $-1 -1 $-1 3.9682693599999909e-07 -7.568459999999991543e-17 0 -1 0 0 0 0 1.299999999999999378 1 F 0 F 3.141592653589793116 #
edge $562 -1 $-1 $522 -3.141592653589793116 $487 0 $517 $563 forward @7 unknown #
color-adesk-attrib $-1 -1 $564 $485 $432 9 #
point $-1 -1 $-1 -4.99999960317307135 -8.747295000000003035e-16 1.299999999999999378 #
point $-1 -1 $-1 3.9682693599999909e-07 -7.568459999999991543e-17 1.299999999999999378 #
color-adesk-attrib $-1 -1 $565 $491 $434 9 #
point $-1 -1 $-1 2.551376715739715362 9.160935000000011567e-17 0.8450195713443350298 #
truecolor-adesk-attrib $-1 -1 $566 $-1 $494 -1027555136 #
ellipse-curve $-1 -1 $-1 2.551376715739715362 -1.187569999999999452e-17 0 -1 0 0 0 0 -0.8450195713443350298 1 F 1.508284316000983817e-16 F 3.141592653589793116 #
DXID-attrib $-1 -1 $-1 $495 $379 @18 ASM_EDGE_FROM_STEP @3 606 #
DXID-attrib $-1 -1 $-1 $498 $386 @18 ASM_EDGE_FROM_STEP @3 634 #
color-adesk-attrib $-1 -1 $567 $500 $446 9 #
DXID-attrib $-1 -1 $-1 $503 $394 @18 ASM_EDGE_FROM_STEP @3 609 #
DXID-attrib $-1 -1 $-1 $504 $395 @18 ASM_EDGE_FROM_STEP @3 597 #
truecolor-adesk-attrib $-1 -1 $568 $-1 $506 -1027555136 #
ellipse-curve $-1 -1 $-1 -4.99999960317307135 -8.747295000000003035e-16 0 1 0 0 0 0 1.299999999999999378 1 F 0 F 3.141592653589793116 #
DXID-attrib $-1 -1 $-1 $510 $415 @18 ASM_EDGE_FROM_STEP @3 596 #
DXID-attrib $-1 -1 $-1 $511 $416 @18 ASM_FACE_FROM_STEP @8 Felge-81 #
DXID-attrib $-1 -1 $-1 $513 $425 @18 ASM_FACE_FROM_STEP @8 Felge-71 #
color-adesk-attrib $-1 -1 $569 $514 $472 9 #
truecolor-adesk-attrib $-1 -1 $570 $-1 $515 -1027555136 #
plane-surface $-1 -1 $-1 2.551376715739715362 3.999999999999976463 0 1 0 0 0 25.39999999999999503 0 forward_v I I I I #
truecolor-adesk-attrib $-1 -1 $571 $-1 $519 -1027555136 #
straight-curve $-1 -1 $-1 0.3905597991948490111 6.632971299845447105e-17 0.6500000000000009104 13.08196712833355413 -5.756029210337121797e-16 -21.77204942244070907 F -0.02985479166102214532 F 0.0298547916821297922 #
color-adesk-attrib $-1 -1 $572 $520 $478 9 #
point $-1 -1 $-1 0.7811192026037178104 4.914520769936768995e-17 0 #
point $-1 -1 $-1 3.968269360180026164e-07 -2.348834335299228506e-16 -1.299999999999999378 #
truecolor-adesk-attrib $-1 -1 $573 $-1 $525 -1027555136 #
straight-curve $-1 -1 $-1 -2.4999996031730638 -6.344058259969101013e-16 -1.299999999999999378 -25.39999999999999503 -4.059148599999999956e-15 0 F -0.09842519685039369248 F 0.09842519685039401167 #
color-adesk-attrib $-1 -1 $574 $526 $481 9 #
point $-1 -1 $-1 -4.99999960317307135 -1.033928325996908302e-15 -1.299999999999999378 #
color-adesk-attrib $-1 -1 $575 $529 $482 9 #
truecolor-adesk-attrib $-1 -1 $576 $-1 $531 -1027555136 #
ellipse-curve $-1 -1 $-1 3.9682693599999909e-07 -7.568459999999991543e-17 0 -1 0 0 0 0 1.299999999999999378 1 F -3.141592653589793116 F 0 #
DXID-attrib $-1 -1 $-1 $532 $432 @18 ASM_EDGE_FROM_STEP @3 581 #
DXID-attrib $-1 -1 $-1 $535 $434 @18 ASM_EDGE_FROM_STEP @3 649 #
color-adesk-attrib $-1 -1 $577 $537 $494 9 #
DXID-attrib $-1 -1 $-1 $541 $446 @18 ASM_EDGE_FROM_STEP @3 608 #
color-adesk-attrib $-1 -1 $578 $544 $506 9 #
DXID-attrib $-1 -1 $-1 $549 $472 @18 ASM_FACE_FROM_STEP @8 Felge-87 #
color-adesk-attrib $-1 -1 $579 $550 $515 9 #
color-adesk-attrib $-1 -1 $580 $552 $519 9 #
DXID-attrib $-1 -1 $-1 $554 $478 @18 ASM_EDGE_FROM_STEP @3 577 #
color-adesk-attrib $-1 -1 $581 $557 $525 9 #
DXID-attrib $-1 -1 $-1 $559 $481 @18 ASM_EDGE_FROM_STEP @3 582 #
DXID-attrib $-1 -1 $-1 $561 $482 @18 ASM_EDGE_FROM_STEP @3 579 #
color-adesk-attrib $-1 -1 $582 $562 $531 9 #
DXID-attrib $-1 -1 $-1 $566 $494 @18 ASM_EDGE_FROM_STEP @3 607 #
DXID-attrib $-1 -1 $-1 $568 $506 @18 ASM_EDGE_FROM_STEP @3 586 #
DXID-attrib $-1 -1 $-1 $570 $515 @18 ASM_FACE_FROM_STEP @9 Felge-129 #
DXID-attrib $-1 -1 $-1 $571 $519 @18 ASM_EDGE_FROM_STEP @3 578 #
DXID-attrib $-1 -1 $-1 $573 $525 @18 ASM_EDGE_FROM_STEP @3 583 #
DXID-attrib $-1 -1 $-1 $576 $531 @18 ASM_EDGE_FROM_STEP @3 585 #
