700 468 1 0         
5 ZWCAD 12 ACIS 28.0 NT 24 Sat May 11 15:14:05 2024 
1 9.9999999999999995e-07 1e-10 
body $1 -1 $-1 $2 $-1 $-1 #
DXID-attrib $-1 -1 $-1 $-1 $0 @18 ASM_BODY_FROM_STEP @83 1D6190C785C8FB6C95F977F75980EE0F923D70A8|:|1817F654752E9CF1A78D11D3004C9A5611698275 #
lump $-1 -1 $-1 $-1 $3 $0 #
shell $-1 -1 $-1 $-1 $-1 $4 $-1 $2 #
face $5 -1 $-1 $6 $7 $3 $-1 $8 forward single #
truecolor-adesk-attrib $-1 -1 $9 $-1 $4 -1038542567 #
face $10 -1 $-1 $11 $12 $3 $-1 $13 forward single #
loop $-1 -1 $-1 $-1 $14 $4 #
cone-surface $-1 -1 $-1 494.9636737691315 -220.77378165615715 12.893322935033098 -1.7350992835624277e-13 4.7261769339276424e-14 0.99999999999999989 1.4030715253306312 4.2712536724955088 4.157983397978199e-14 1 I I 0 1 4.4958 forward I I I I #
fmesh-eye-attrib $-1 -1 $15 $5 $4 #
truecolor-adesk-attrib $-1 -1 $16 $-1 $6 -1038542567 #
face $17 -1 $-1 $18 $19 $3 $-1 $20 reversed single #
loop $-1 -1 $-1 $21 $22 $6 #
sphere-surface $-1 -1 $-1 494.96367376913224 -220.77378165615735 8.6720068060009403 13.2284838709678 0.31208495158384081 0.95005420003014129 9.2654301749233696e-15 -0.95005420003014129 0.31208495158384081 -1.7959352317779208e-13 forward_v I I I I #
coedge $-1 -1 $-1 $23 $24 $25 $26 reversed $7 $-1 #
DXID-attrib $-1 -1 $-1 $9 $4 @18 ASM_FACE_FROM_STEP @24 flexure gripper v26-5070 #
fmesh-eye-attrib $-1 -1 $27 $10 $6 #
truecolor-adesk-attrib $-1 -1 $28 $-1 $11 -1038542567 #
face $29 -1 $-1 $30 $31 $3 $-1 $32 reversed single #
loop $-1 -1 $-1 $-1 $33 $11 #
cone-surface $-1 -1 $-1 494.96367376913435 -220.77378165615792 -3.4896770649668873 -1.7351648029953635e-13 4.7241823804533971e-14 0.99999999999999989 0.37256701520079222 1.1341747039959922 1.106603562360718e-14 1 I I 0.70710678118655368 0.70710678118654136 1.19380000000001 forward I I I I #
loop $-1 -1 $-1 $-1 $34 $6 #
coedge $-1 -1 $-1 $22 $22 $35 $36 reversed $12 $-1 #
coedge $-1 -1 $-1 $35 $14 $24 $37 forward $7 $-1 #
coedge $-1 -1 $-1 $14 $35 $23 $37 reversed $7 $-1 #
coedge $-1 -1 $-1 $25 $25 $14 $26 forward $38 $-1 #
edge $39 -1 $-1 $40 -3.1415926535897931 $40 3.1415926535897931 $14 $41 forward @7 unknown #
DXID-attrib $-1 -1 $-1 $16 $6 @18 ASM_FACE_FROM_STEP @24 flexure gripper v26-5071 #
fmesh-eye-attrib $-1 -1 $42 $17 $11 #
truecolor-adesk-attrib $-1 -1 $43 $-1 $18 -1038542567 #
face $44 -1 $-1 $45 $46 $3 $-1 $47 reversed single #
loop $-1 -1 $-1 $-1 $48 $18 #
cone-surface $-1 -1 $-1 494.96367376913452 -220.77378165615795 -4.5564770649668986 -1.7351648029953635e-13 4.7241823804533971e-14 0.99999999999999989 0.37256701520079222 1.1341747039959922 1.106603562360718e-14 1 I I 0 1 1.19380000000001 forward I I I I #
coedge $-1 -1 $-1 $49 $50 $51 $52 reversed $19 $-1 #
coedge $-1 -1 $-1 $53 $54 $48 $55 reversed $21 $-1 #
coedge $-1 -1 $-1 $24 $23 $22 $36 forward $7 $-1 #
edge $56 -1 $-1 $57 -3.1415926535897931 $57 3.1415926535897931 $35 $58 forward @7 unknown #
edge $59 -1 $-1 $40 3.5310734463276829 $57 3.706214689265539 $23 $60 forward @7 unknown #
loop $-1 -1 $-1 $61 $25 $62 #
truecolor-adesk-attrib $-1 -1 $63 $-1 $26 -1038542567 #
vertex $-1 -1 $-1 $26 $64 #
ellipse-curve $-1 -1 $-1 494.96367376913429 -220.77378165615789 -2.9816770649668998 -1.7350992835624277e-13 4.7261769339276424e-14 0.99999999999999989 1.4030715253306312 4.2712536724955088 4.157983397978199e-14 1 I I #
DXID-attrib $-1 -1 $-1 $28 $11 @18 ASM_FACE_FROM_STEP @24 flexure gripper v26-5072 #
fmesh-eye-attrib $-1 -1 $65 $29 $18 #
truecolor-adesk-attrib $-1 -1 $66 $-1 $30 -1038542567 #
face $67 -1 $-1 $62 $68 $3 $-1 $69 reversed single #
loop $-1 -1 $-1 $-1 $70 $30 #
cone-surface $-1 -1 $-1 494.96367376913452 -220.77378165615795 -4.5564770649668986 -1.7351648029953635e-13 4.7241823804533971e-14 0.99999999999999989 0.37256701520079222 1.1341747039959922 1.106603562360718e-14 1 I I 0 1 1.19380000000001 forward I I I I #
coedge $-1 -1 $-1 $71 $72 $34 $55 forward $31 $-1 #
coedge $-1 -1 $-1 $73 $33 $74 $75 reversed $19 $-1 #
coedge $-1 -1 $-1 $33 $73 $76 $77 reversed $19 $-1 #
coedge $-1 -1 $-1 $72 $71 $33 $52 forward $31 $-1 #
edge $78 -1 $-1 $79 -0.72236622636426417 $80 0.7223662263642785 $33 $81 forward @7 unknown #
coedge $-1 -1 $-1 $82 $34 $83 $84 reversed $21 $-1 #
coedge $-1 -1 $-1 $34 $85 $86 $87 reversed $21 $-1 #
edge $88 -1 $-1 $89 -0.7223662263642775 $90 0.72236622636426495 $34 $91 forward @7 unknown #
truecolor-adesk-attrib $-1 -1 $92 $-1 $36 -1038542567 #
vertex $-1 -1 $-1 $37 $93 #
ellipse-curve $-1 -1 $-1 494.9636737691344 -220.77378165615792 -3.7690770649669076 -1.7350992835624277e-13 4.7261769339276424e-14 0.99999999999999989 1.4030715253306312 4.2712536724955088 4.157983397978199e-14 1 I I #
truecolor-adesk-attrib $-1 -1 $94 $-1 $37 -1038542567 #
straight-curve $-1 -1 $-1 493.56060224380087 -225.04503532865266 12.893322935033055 7.8006593590399621e-13 -2.1247946259551895e-13 -4.4957999999999991 F 3.5310734463276829 F 3.706214689265539 #
loop $-1 -1 $-1 $-1 $95 $62 #
face $96 -1 $-1 $97 $38 $3 $-1 $98 forward single #
DXID-attrib $-1 -1 $99 $39 $26 @18 ASM_EDGE_FROM_STEP @4 2810 #
point $-1 -1 $-1 493.56060224380366 -225.0450353286534 -2.9816770649669415 #
DXID-attrib $-1 -1 $-1 $43 $18 @18 ASM_FACE_FROM_STEP @24 flexure gripper v26-5073 #
fmesh-eye-attrib $-1 -1 $100 $44 $30 #
truecolor-adesk-attrib $-1 -1 $101 $-1 $45 -1038542567 #
loop $-1 -1 $-1 $-1 $102 $45 #
cone-surface $-1 -1 $-1 494.96367376913435 -220.77378165615792 -3.4896770649668873 -1.7351648029953635e-13 4.7241823804533971e-14 0.99999999999999989 0.37256701520079222 1.1341747039959922 1.106603562360718e-14 1 I I 0.70710678118655368 0.70710678118654136 1.19380000000001 forward I I I I #
coedge $-1 -1 $-1 $103 $104 $105 $106 forward $46 $-1 #
coedge $-1 -1 $-1 $51 $48 $107 $108 forward $31 $-1 #
coedge $-1 -1 $-1 $48 $51 $109 $110 forward $31 $-1 #
coedge $-1 -1 $-1 $50 $49 $111 $112 reversed $19 $-1 #
coedge $-1 -1 $-1 $107 $113 $49 $75 forward $114 $-1 #
edge $115 -1 $-1 $116 -0.679147353287893 $79 -0.64734803604254598 $49 $117 forward @7 unknown #
coedge $-1 -1 $-1 $118 $109 $50 $77 forward $119 $-1 #
edge $120 -1 $-1 $80 -0.060908270106604601 $121 -0.029108952861224401 $50 $122 forward @7 unknown #
truecolor-adesk-attrib $-1 -1 $123 $-1 $52 -1038542567 #
vertex $-1 -1 $-1 $52 $124 #
vertex $-1 -1 $-1 $52 $125 #
ellipse-curve $-1 -1 $-1 494.96367376913435 -220.77378165615792 -3.4896770649668873 -1.7351648029953635e-13 4.7241823804533971e-14 0.99999999999999989 0.37256701520079222 1.1341747039959922 1.106603562360718e-14 1 F -0.72236622636426417 F 0.7223662263642785 #
coedge $-1 -1 $-1 $126 $53 $127 $128 reversed $21 $-1 #
coedge $-1 -1 $-1 $109 $129 $53 $84 forward $119 $-1 #
edge $130 -1 $-1 $131 -1.7500044692608459 $89 -1.6564618351526552 $53 $132 forward @7 unknown #
coedge $-1 -1 $-1 $54 $133 $134 $135 reversed $21 $-1 #
coedge $-1 -1 $-1 $136 $107 $54 $87 forward $114 $-1 #
edge $137 -1 $-1 $90 -1.4851308184371381 $138 -1.391588184328947 $54 $139 forward @7 unknown #
truecolor-adesk-attrib $-1 -1 $140 $-1 $55 -1038542567 #
vertex $-1 -1 $-1 $55 $141 #
vertex $-1 -1 $-1 $55 $142 #
ellipse-curve $-1 -1 $-1 494.96367376913452 -220.77378165615795 -4.502499905237098 1.7351648029953635e-13 -4.7241823804533971e-14 -0.99999999999999989 0.37256701520079122 1.1341747039959924 1.1066035623606989e-14 1 F -0.7223662263642775 F 0.72236622636426495 #
DXID-attrib $-1 -1 $143 $56 $36 @18 ASM_EDGE_FROM_STEP @4 2813 #
point $-1 -1 $-1 493.56060224380377 -225.04503532865343 -3.7690770649669503 #
DXID-attrib $-1 -1 $-1 $59 $37 @18 ASM_EDGE_FROM_STEP @4 2811 #
coedge $-1 -1 $-1 $144 $111 $113 $145 reversed $61 $-1 #
truecolor-adesk-attrib $-1 -1 $146 $-1 $62 -1038542567 #
face $147 -1 $-1 $148 $149 $3 $-1 $150 reversed single #
plane-surface $-1 -1 $-1 496.36674529446492 -216.50252798366239 -2.981677064966858 -1.7350992835624277e-13 4.7261769339276424e-14 0.99999999999999989 0.31208495158384075 0.95005420003014129 9.2485951287383753e-15 forward_v I I I I #
DXID-attrib $-1 -1 $-1 $63 $26 @18 ASM_EDGE_FROM_STEP @4 2809 #
DXID-attrib $-1 -1 $-1 $66 $30 @18 ASM_FACE_FROM_STEP @24 flexure gripper v26-5074 #
fmesh-eye-attrib $-1 -1 $151 $67 $45 #
coedge $-1 -1 $-1 $152 $153 $154 $155 reversed $68 $-1 #
coedge $-1 -1 $-1 $156 $70 $157 $158 forward $46 $-1 #
coedge $-1 -1 $-1 $70 $156 $159 $160 forward $46 $-1 #
coedge $-1 -1 $-1 $161 $126 $70 $106 reversed $21 $-1 #
edge $162 -1 $-1 $163 -2.816761328757464 $164 -1.3720288760289365 $105 $165 forward @7 unknown #
coedge $-1 -1 $-1 $86 $74 $71 $108 reversed $114 $-1 #
edge $166 -1 $-1 $90 5.3977159729801104e-05 $79 0.001066800000000011 $71 $167 forward @7 unknown #
coedge $-1 -1 $-1 $76 $83 $72 $110 reversed $119 $-1 #
edge $168 -1 $-1 $80 -0.001066800000000011 $89 -5.3977159729801104e-05 $72 $169 forward @7 unknown #
coedge $-1 -1 $-1 $95 $170 $73 $112 forward $61 $-1 #
edge $171 -1 $-1 $121 -0.82140322412376543 $116 0.82140322412374878 $73 $172 forward @7 unknown #
coedge $-1 -1 $-1 $74 $136 $95 $145 forward $114 $-1 #
loop $-1 -1 $-1 $-1 $86 $173 #
truecolor-adesk-attrib $-1 -1 $174 $-1 $75 -1038542567 #
vertex $-1 -1 $-1 $75 $175 #
intcurve-curve $-1 -1 $-1 forward { exactcur full nurbs 2 open 2 
	-0.679147353287893 2 -0.64734803604254598 2 
	496.50912523997704 -220.06124885602213 -2.9816770649668456 1.4801229114654699 
	496.20582529931045 -220.12469480649222 -3.2836765127019749 1.7311315386102499 
	495.99306265436513 -220.16920166726976 -3.4896770649664592 1.9575819151635001 
	0 
	null_surface 
	null_surface 
	nullbs 
	nullbs 
	I I 
	0 
	0 
	0 
	F 1 F 0 } F -0.679147353287893 F -0.64734803604254598 #
coedge $-1 -1 $-1 $129 $76 $170 $176 forward $119 $-1 #
loop $-1 -1 $-1 $-1 $83 $177 #
truecolor-adesk-attrib $-1 -1 $178 $-1 $77 -1038542567 #
vertex $-1 -1 $-1 $112 $179 #
intcurve-curve $-1 -1 $-1 forward { exactcur full nurbs 2 open 2 
	-0.060908270106604601 2 -0.029108952861224401 2 
	494.49331675184612 -219.6765475351574 -3.4896770649670206 1.9575819151638401 
	494.34839135729732 -219.51454311004701 -3.283676512702467 1.73113153861038 
	494.14179558208934 -219.28360063169816 -2.9816770649671138 1.48012291146534 
	0 
	null_surface 
	null_surface 
	nullbs 
	nullbs 
	I I 
	0 
	0 
	0 
	F 1 F 0 } F -0.060908270106604601 F -0.029108952861224401 #
DXID-attrib $-1 -1 $-1 $78 $52 @18 ASM_EDGE_FROM_STEP @4 2826 #
point $-1 -1 $-1 495.99306265436485 -220.16920166726982 -3.4896770649667364 #
point $-1 -1 $-1 494.49331675184612 -219.6765475351574 -3.4896770649670206 #
coedge $-1 -1 $-1 $105 $82 $180 $181 reversed $21 $-1 #
coedge $-1 -1 $-1 $182 $183 $82 $128 forward $184 $-1 #
edge $185 -1 $-1 $186 -1.6000703544925818 $131 -1.5415222990971755 $82 $187 forward @7 unknown #
coedge $-1 -1 $-1 $83 $118 $182 $188 reversed $119 $-1 #
truecolor-adesk-attrib $-1 -1 $189 $-1 $84 -1038542567 #
vertex $-1 -1 $-1 $84 $190 #
ellipse-curve $-1 -1 $-1 495.24763329629417 -220.51975806092653 8.6720068060009776 -0.74530059622550726 -0.66672859640629145 -9.7806279919699112e-14 8.8161495963530054 -9.8551068395619161 1.9949040612518841e-12 1 F -1.7500044692608459 F -1.6564618351526552 #
coedge $-1 -1 $-1 $85 $191 $192 $193 reversed $21 $-1 #
coedge $-1 -1 $-1 $194 $195 $85 $135 forward $196 $-1 #
edge $197 -1 $-1 $138 -1.6000703544925288 $198 -1.5415222990971222 $85 $199 forward @7 unknown #
coedge $-1 -1 $-1 $113 $86 $195 $200 forward $114 $-1 #
truecolor-adesk-attrib $-1 -1 $201 $-1 $87 -1038542567 #
vertex $-1 -1 $-1 $135 $202 #
ellipse-curve $-1 -1 $-1 494.88566264608266 -220.4008536943731 8.6720068060009083 0.20475360380463259 -0.97881354799012432 8.178724325809235e-14 12.942847678246903 2.7074560942246109 2.1183086178114657e-12 1 F -1.4851308184371381 F -1.391588184328947 #
DXID-attrib $-1 -1 $-1 $88 $55 @18 ASM_EDGE_FROM_STEP @4 2814 #
point $-1 -1 $-1 494.49331675184629 -219.67654753515745 -4.5024999052372312 #
point $-1 -1 $-1 495.99306265436502 -220.16920166726987 -4.502499905236947 #
DXID-attrib $-1 -1 $-1 $92 $36 @18 ASM_EDGE_FROM_STEP @4 2812 #
coedge $-1 -1 $-1 $203 $95 $204 $205 reversed $61 $-1 #
edge $206 -1 $-1 $207 -0.0023570050403000846 $116 -0.0016586024960791657 $95 $208 forward @7 unknown #
fmesh-eye-attrib $-1 -1 $209 $96 $62 #
truecolor-adesk-attrib $-1 -1 $210 $-1 $97 -1038542567 #
face $211 -1 $-1 $212 $213 $3 $-1 $214 reversed single #
loop $-1 -1 $-1 $-1 $215 $97 #
cone-surface $-1 -1 $-1 494.96367376913452 -220.77378165615795 -4.5564770649668986 -1.7351648029953635e-13 4.7241823804533971e-14 0.99999999999999989 0.37256701520079222 1.1341747039959922 1.106603562360718e-14 1 I I 0 1 1.19380000000001 forward I I I I #
DXID-attrib $-1 -1 $-1 $101 $45 @18 ASM_FACE_FROM_STEP @24 flexure gripper v26-5075 #
coedge $-1 -1 $-1 $216 $102 $217 $218 reversed $68 $-1 #
coedge $-1 -1 $-1 $102 $216 $156 $219 reversed $68 $-1 #
coedge $-1 -1 $-1 $157 $220 $102 $155 forward $221 $-1 #
edge $222 -1 $-1 $223 -0.67914735328789 $224 -0.64734803604251601 $102 $225 forward @7 unknown #
coedge $-1 -1 $-1 $104 $103 $153 $219 forward $46 $-1 #
coedge $-1 -1 $-1 $180 $154 $103 $158 reversed $221 $-1 #
edge $226 -1 $-1 $164 5.3977159729801104e-05 $224 0.001066800000000011 $103 $227 forward @7 unknown #
coedge $-1 -1 $-1 $228 $229 $104 $160 reversed $230 $-1 #
edge $231 -1 $-1 $232 -0.001066800000000011 $163 -5.3977159729801104e-05 $104 $233 forward @7 unknown #
coedge $-1 -1 $-1 $234 $105 $229 $235 reversed $21 $-1 #
truecolor-adesk-attrib $-1 -1 $236 $-1 $106 -1038542567 #
vertex $-1 -1 $-1 $106 $237 #
vertex $-1 -1 $-1 $181 $238 #
ellipse-curve $-1 -1 $-1 494.96367376913452 -220.77378165615795 -4.502499905237098 1.7351648029953635e-13 -4.7241823804533971e-14 -0.99999999999999989 0.37256701520079222 1.1341747039959922 1.106603562360718e-14 1 F -2.816761328757464 F -1.3720288760289365 #
truecolor-adesk-attrib $-1 -1 $239 $-1 $108 -1038542567 #
straight-curve $-1 -1 $-1 495.99306265436502 -220.16920166726987 -4.5564770649667476 -1.7351648029953634e-10 4.7241823804533967e-11 999.99999999999989 F 5.3977159729801104e-05 F 0.001066800000000011 #
truecolor-adesk-attrib $-1 -1 $240 $-1 $110 -1038542567 #
straight-curve $-1 -1 $-1 494.49331675184635 -219.67654753515745 -4.5564770649670319 1.7351648029953634e-10 -4.7241823804533967e-11 -999.99999999999989 F -0.001066800000000011 F -5.3977159729801104e-05 #
coedge $-1 -1 $-1 $111 $241 $118 $176 reversed $61 $-1 #
truecolor-adesk-attrib $-1 -1 $242 $-1 $112 -1038542567 #
ellipse-curve $-1 -1 $-1 494.96367376913429 -220.77378165615789 -2.9816770649668998 1.7350992835624277e-13 -4.7261769339276424e-14 -0.99999999999999989 0.53110617060538334 1.6168022376113038 1.5739259190087059e-14 1 F -0.82140322412376543 F 0.82140322412374878 #
face $243 -1 $-1 $244 $114 $3 $-1 $245 reversed single #
DXID-attrib $-1 -1 $-1 $115 $75 @18 ASM_EDGE_FROM_STEP @4 2827 #
point $-1 -1 $-1 496.50912523997721 -220.06124885602208 -2.9816770649666653 #
edge $246 -1 $-1 $121 0.0016586024960791675 $247 0.0023570050403000811 $170 $248 forward @7 unknown #
face $249 -1 $-1 $250 $119 $3 $-1 $251 reversed single #
DXID-attrib $-1 -1 $-1 $120 $77 @18 ASM_EDGE_FROM_STEP @4 2829 #
point $-1 -1 $-1 494.14179558208934 -219.28360063169816 -2.9816770649671129 #
coedge $-1 -1 $-1 $252 $157 $126 $181 forward $221 $-1 #
edge $253 -1 $-1 $164 -1.4851308184371383 $186 -1.3915881843289475 $126 $254 forward @7 unknown #
coedge $-1 -1 $-1 $255 $127 $129 $188 forward $184 $-1 #
coedge $-1 -1 $-1 $127 $255 $252 $256 reversed $184 $-1 #
loop $-1 -1 $-1 $-1 $127 $257 #
truecolor-adesk-attrib $-1 -1 $258 $-1 $128 -1038542567 #
vertex $-1 -1 $-1 $128 $259 #
ellipse-curve $-1 -1 $-1 493.39219110689044 -219.01710439431517 8.672006806000585 0.66672859640629145 -0.74530059622550726 1.5092924996470852e-13 9.7014354004947823 8.6786786975024608 1.0424867230469695e-12 1 F -1.6000703544925818 F -1.5415222990971755 #
edge $260 -1 $-1 $131 0.00016327495692451953 $247 0.0015208228402701996 $129 $261 forward @7 unknown #
DXID-attrib $-1 -1 $-1 $130 $84 @18 ASM_EDGE_FROM_STEP @4 2815 #
point $-1 -1 $-1 493.67615063405458 -218.76308079908497 -4.3392249483128964 #
coedge $-1 -1 $-1 $133 $262 $263 $264 reversed $21 $-1 #
coedge $-1 -1 $-1 $265 $266 $133 $193 forward $267 $-1 #
edge $268 -1 $-1 $198 -1.7500044692608459 $269 -1.656461835152655 $133 $270 forward @7 unknown #
coedge $-1 -1 $-1 $204 $134 $266 $271 forward $196 $-1 #
coedge $-1 -1 $-1 $134 $204 $136 $200 reversed $196 $-1 #
loop $-1 -1 $-1 $-1 $134 $272 #
truecolor-adesk-attrib $-1 -1 $273 $-1 $135 -1038542567 #
vertex $-1 -1 $-1 $193 $274 #
ellipse-curve $-1 -1 $-1 497.27074223525898 -220.29117637997021 8.6720068060013169 -0.97881354799012443 -0.20475360380463259 -1.6013585688952668e-13 2.6652385230725284 -12.741028858753381 1.3905464299408168e-13 1 F -1.6000703544925288 F -1.5415222990971222 #
edge $275 -1 $-1 $138 0.00016327495692451953 $207 0.0015208228402701996 $136 $276 forward @7 unknown #
DXID-attrib $-1 -1 $-1 $137 $87 @18 ASM_EDGE_FROM_STEP @4 2825 #
point $-1 -1 $-1 497.19273111221167 -219.91824841818658 -4.339224948312232 #
coedge $-1 -1 $-1 $277 $144 $278 $279 reversed $61 $-1 #
coedge $-1 -1 $-1 $195 $194 $144 $205 forward $196 $-1 #
edge $280 -1 $-1 $281 0 $207 0.00076199999999999803 $144 $282 forward @7 unknown #
truecolor-adesk-attrib $-1 -1 $283 $-1 $145 -1038542567 #
vertex $-1 -1 $-1 $145 $284 #
straight-curve $-1 -1 $-1 494.88566264608471 -220.40085369437367 -2.9816770649669309 -978.81354799012422 -204.75360380463246 -1.6007287458364821e-10 F -0.0023570050403000846 F -0.0016586024960791657 #
DXID-attrib $-1 -1 $-1 $146 $62 @18 ASM_FACE_FROM_STEP @24 flexure gripper v26-5076 #
fmesh-eye-attrib $-1 -1 $285 $147 $97 #
truecolor-adesk-attrib $-1 -1 $286 $-1 $148 -1038542567 #
face $287 -1 $-1 $288 $289 $3 $-1 $290 reversed single #
loop $-1 -1 $-1 $-1 $291 $148 #
cone-surface $-1 -1 $-1 494.96367376913435 -220.77378165615792 -3.4896770649668873 -1.7351648029953635e-13 4.7241823804533971e-14 0.99999999999999989 0.37256701520079222 1.1341747039959922 1.106603562360718e-14 1 I I 0.70710678118655368 0.70710678118654136 1.19380000000001 forward I I I I #
coedge $-1 -1 $-1 $292 $293 $294 $295 forward $149 $-1 #
coedge $-1 -1 $-1 $153 $152 $228 $296 reversed $68 $-1 #
coedge $-1 -1 $-1 $297 $298 $152 $218 forward $61 $-1 #
edge $299 -1 $-1 $300 -2.9157983265169491 $223 -1.2729918782694509 $152 $301 forward @7 unknown #
edge $302 -1 $-1 $224 1.3720288760289368 $232 2.8167613287574644 $156 $303 forward @7 unknown #
coedge $-1 -1 $-1 $154 $252 $297 $304 forward $221 $-1 #
loop $-1 -1 $-1 $-1 $180 $250 #
truecolor-adesk-attrib $-1 -1 $305 $-1 $155 -1038542567 #
vertex $-1 -1 $-1 $155 $306 #
vertex $-1 -1 $-1 $158 $307 #
intcurve-curve $-1 -1 $-1 forward { exactcur full nurbs 2 open 2 
	-0.67914735328789 2 -0.64734803604251601 2 
	493.57387652776566 -219.79164782215994 -2.9816770649674069 1.4801229114654999 
	493.78047230297352 -220.02259030050871 -3.2836765127026499 1.73113153861049 
	493.92539769752233 -220.18459472561904 -3.4896770649671467 1.95758191516391 
	0 
	null_surface 
	null_surface 
	nullbs 
	nullbs 
	I I 
	0 
	0 
	0 
	F 1 F 0 } F -0.67914735328789 F -0.64734803604251601 #
truecolor-adesk-attrib $-1 -1 $308 $-1 $158 -1038542567 #
straight-curve $-1 -1 $-1 493.9253976975225 -220.18459472561906 -4.5564770649671065 -1.7351648029953634e-10 4.7241823804533967e-11 999.99999999999989 F 5.3977159729801104e-05 F 0.001066800000000011 #
coedge $-1 -1 $-1 $309 $159 $216 $296 forward $230 $-1 #
coedge $-1 -1 $-1 $159 $310 $161 $235 forward $230 $-1 #
loop $-1 -1 $-1 $-1 $229 $288 #
truecolor-adesk-attrib $-1 -1 $311 $-1 $160 -1038542567 #
vertex $-1 -1 $-1 $219 $312 #
straight-curve $-1 -1 $-1 494.24861965509314 -221.72973984247807 -4.5564770649669768 1.7351648029953634e-10 -4.7241823804533967e-11 -999.99999999999989 F -0.001066800000000011 F -5.3977159729801104e-05 #
coedge $-1 -1 $-1 $262 $161 $313 $314 reversed $21 $-1 #
edge $315 -1 $-1 $316 -1.7500044692608459 $163 -1.6564618351526552 $161 $317 forward @7 unknown #
DXID-attrib $-1 -1 $-1 $162 $106 @18 ASM_EDGE_FROM_STEP @4 2818 #
point $-1 -1 $-1 494.24861965509308 -221.72973984247807 -4.5024999052371761 #
point $-1 -1 $-1 493.9253976975225 -220.18459472561906 -4.5024999052373058 #
DXID-attrib $-1 -1 $-1 $166 $108 @18 ASM_EDGE_FROM_STEP @4 2830 #
DXID-attrib $-1 -1 $-1 $168 $110 @18 ASM_EDGE_FROM_STEP @4 2831 #
coedge $-1 -1 $-1 $170 $297 $255 $318 reversed $61 $-1 #
DXID-attrib $-1 -1 $-1 $171 $112 @18 ASM_EDGE_FROM_STEP @4 2828 #
truecolor-adesk-attrib $-1 -1 $319 $-1 $173 -1038542567 #
face $320 -1 $-1 $272 $267 $3 $-1 $321 reversed single #
plane-surface $-1 -1 $-1 494.88566264608494 -220.40085369437372 -4.50249990523713 -0.20475360380463264 0.97881354799012421 -8.178724325809235e-14 0.97881354799012432 0.20475360380463259 1.6019883919540506e-13 forward_v I I I I #
truecolor-adesk-attrib $-1 -1 $322 $-1 $176 -1038542567 #
vertex $-1 -1 $-1 $318 $323 #
straight-curve $-1 -1 $-1 495.24763329629616 -220.5197580609271 -2.9816770649668625 -666.72859640629122 745.30059622550709 -1.5099223227058687e-10 F 0.0016586024960791675 F 0.0023570050403000811 #
truecolor-adesk-attrib $-1 -1 $324 $-1 $177 -1038542567 #
face $325 -1 $-1 $257 $221 $3 $-1 $326 reversed single #
plane-surface $-1 -1 $-1 495.24763329629644 -220.51975806092716 -4.5024999052370607 0.74530059622550726 0.66672859640629145 9.7806279919699112e-14 0.66672859640629156 -0.74530059622550726 1.5086626765883014e-13 forward_v I I I I #
coedge $-1 -1 $-1 $220 $180 $183 $256 forward $221 $-1 #
truecolor-adesk-attrib $-1 -1 $327 $-1 $181 -1038542567 #
ellipse-curve $-1 -1 $-1 494.67971424197032 -221.02780525138814 8.672006806000903 0.74530059622550726 0.66672859640629145 9.7806279919699112e-14 -8.8161495963530054 9.8551068395619161 -1.9949040612518841e-12 1 F -1.4851308184371383 F -1.3915881843289475 #
coedge $-1 -1 $-1 $183 $182 $241 $318 forward $184 $-1 #
edge $328 -1 $-1 $186 0.00016327495692451953 $329 0.0015208228402701996 $252 $330 forward @7 unknown #
face $331 -1 $-1 $173 $184 $3 $-1 $332 reversed single #
DXID-attrib $-1 -1 $-1 $185 $128 @18 ASM_EDGE_FROM_STEP @4 2816 #
point $-1 -1 $-1 493.10823157973078 -219.27112798954659 -4.339224948312971 #
truecolor-adesk-attrib $-1 -1 $333 $-1 $188 -1038542567 #
straight-curve $-1 -1 $-1 493.67615063405464 -218.763080799085 -4.5024999052374159 -1.7352392572437501e-10 4.7277416255984035e-11 999.99999999999989 F 0.00016327495692451953 F 0.0015208228402701996 #
coedge $-1 -1 $-1 $191 $234 $334 $335 reversed $21 $-1 #
coedge $-1 -1 $-1 $293 $292 $191 $264 forward $149 $-1 #
edge $336 -1 $-1 $269 1.3720288760289234 $337 2.816761328757464 $191 $338 forward @7 unknown #
coedge $-1 -1 $-1 $339 $192 $292 $340 reversed $267 $-1 #
coedge $-1 -1 $-1 $192 $278 $194 $271 reversed $267 $-1 #
loop $-1 -1 $-1 $-1 $192 $244 #
truecolor-adesk-attrib $-1 -1 $341 $-1 $193 -1038542567 #
vertex $-1 -1 $-1 $264 $342 #
ellipse-curve $-1 -1 $-1 495.04168489218182 -221.14670961794158 8.6720068060009723 -0.20475360380463259 0.97881354799012432 -8.178724325809235e-14 -12.942847678246903 -2.7074560942246109 -2.1183086178114657e-12 1 F -1.7500044692608459 F -1.656461835152655 #
edge $343 -1 $-1 $198 0.00016327495692451953 $281 0.0015208228402701996 $266 $344 forward @7 unknown #
face $345 -1 $-1 $-1 $196 $3 $-1 $346 reversed single #
DXID-attrib $-1 -1 $-1 $197 $135 @18 ASM_EDGE_FROM_STEP @4 2824 #
point $-1 -1 $-1 497.34875335831077 -220.66410434175506 -4.3392249483121699 #
truecolor-adesk-attrib $-1 -1 $347 $-1 $200 -1038542567 #
straight-curve $-1 -1 $-1 497.19273111221167 -219.91824841818661 -4.5024999052367516 -1.7348937904481695e-10 4.7266067957311264e-11 999.99999999999989 F 0.00016327495692451953 F 0.0015208228402701996 #
coedge $-1 -1 $-1 $348 $203 $349 $350 forward $61 $-1 #
coedge $-1 -1 $-1 $266 $339 $203 $279 forward $267 $-1 #
edge $351 -1 $-1 $352 0.0016586024960791603 $281 0.0023570050403000811 $203 $353 forward @7 unknown #
truecolor-adesk-attrib $-1 -1 $354 $-1 $205 -1038542567 #
vertex $-1 -1 $-1 $205 $355 #
straight-curve $-1 -1 $-1 497.34875335831055 -220.66410434175501 -2.9816770649664912 -204.75360380463246 978.81354799012422 -8.178724325809232e-11 F 0 F 0.00076199999999999803 #
DXID-attrib $-1 -1 $-1 $206 $145 @18 ASM_EDGE_FROM_STEP @4 2838 #
point $-1 -1 $-1 497.19273111221145 -219.91824841818652 -2.9816770649665534 #
DXID-attrib $-1 -1 $-1 $210 $97 @18 ASM_FACE_FROM_STEP @24 flexure gripper v26-5077 #
fmesh-eye-attrib $-1 -1 $356 $211 $148 #
truecolor-adesk-attrib $-1 -1 $357 $-1 $212 -1038542567 #
face $358 -1 $-1 $359 $230 $3 $-1 $360 reversed single #
loop $-1 -1 $-1 $-1 $334 $212 #
plane-surface $-1 -1 $-1 495.32564441934602 -220.89268602271142 -4.5024999052370287 0.95005420003014129 -0.31208495158384081 1.7959352317779208e-13 -0.31208495158384081 -0.95005420003014129 -9.3325715365762654e-15 forward_v I I I I #
coedge $-1 -1 $-1 $294 $349 $339 $361 reversed $213 $-1 #
coedge $-1 -1 $-1 $263 $215 $265 $340 forward $149 $-1 #
coedge $-1 -1 $-1 $215 $263 $362 $363 forward $149 $-1 #
coedge $-1 -1 $-1 $364 $291 $215 $295 reversed $213 $-1 #
edge $365 -1 $-1 $366 -2.8167613287574644 $367 -1.3720288760289236 $215 $368 forward @7 unknown #
edge $369 -1 $-1 $232 -0.060908270106604899 $300 -0.029108952861224599 $216 $370 forward @7 unknown #
coedge $-1 -1 $-1 $241 $217 $220 $304 reversed $61 $-1 #
coedge $-1 -1 $-1 $217 $371 $309 $372 reversed $61 $-1 #
truecolor-adesk-attrib $-1 -1 $373 $-1 $218 -1038542567 #
vertex $-1 -1 $-1 $218 $374 #
ellipse-curve $-1 -1 $-1 494.96367376913429 -220.77378165615789 -2.9816770649668998 1.7350992835624277e-13 -4.7261769339276424e-14 -0.99999999999999989 0.53110617060538334 1.6168022376113038 1.5739259190087059e-14 1 F -2.9157983265169491 F -1.2729918782694509 #
truecolor-adesk-attrib $-1 -1 $375 $-1 $219 -1038542567 #
ellipse-curve $-1 -1 $-1 494.96367376913435 -220.77378165615792 -3.4896770649668873 -1.7351648029953635e-13 4.7241823804533971e-14 0.99999999999999989 0.37256701520079222 1.1341747039959922 1.106603562360718e-14 1 F 1.3720288760289368 F 2.8167613287574644 #
edge $376 -1 $-1 $329 -0.0023570050403000789 $223 -0.0016586024960791638 $297 $377 forward @7 unknown #
DXID-attrib $-1 -1 $-1 $222 $155 @18 ASM_EDGE_FROM_STEP @4 2835 #
point $-1 -1 $-1 493.57387652776549 -219.79164782215977 -2.9816770649671875 #
point $-1 -1 $-1 493.92539769752233 -220.18459472561901 -3.4896770649670952 #
DXID-attrib $-1 -1 $-1 $226 $158 @18 ASM_EDGE_FROM_STEP @4 2832 #
coedge $-1 -1 $-1 $310 $228 $298 $372 forward $230 $-1 #
coedge $-1 -1 $-1 $229 $309 $378 $379 reversed $230 $-1 #
DXID-attrib $-1 -1 $-1 $231 $160 @18 ASM_EDGE_FROM_STEP @4 2834 #
point $-1 -1 $-1 494.24861965509291 -221.72973984247804 -3.4896770649669655 #
coedge $-1 -1 $-1 $378 $380 $234 $314 forward $381 $-1 #
edge $382 -1 $-1 $383 3.1123186258920899 $316 3.1708666812874964 $234 $384 forward @7 unknown #
truecolor-adesk-attrib $-1 -1 $385 $-1 $235 -1038542567 #
vertex $-1 -1 $-1 $235 $386 #
ellipse-curve $-1 -1 $-1 494.60170311892074 -220.65487728960389 8.6720068060008728 0.95005420003014129 -0.31208495158384081 1.7959352317779208e-13 4.1266980818940047 12.562562933786545 1.2340455655959917e-13 1 F -1.7500044692608459 F -1.6564618351526552 #
edge $387 -1 $-1 $247 0 $329 0.00076199999999999478 $241 $388 forward @7 unknown #
fmesh-eye-attrib $-1 -1 $389 $243 $173 #
truecolor-adesk-attrib $-1 -1 $390 $-1 $244 -1038542567 #
plane-surface $-1 -1 $-1 495.04168489218409 -221.14670961794221 -4.502499905237066 0.20475360380463264 -0.97881354799012421 8.178724325809235e-14 -0.97881354799012432 -0.20475360380463259 -1.6019883919540506e-13 forward_v I I I I #
DXID-attrib $-1 -1 $-1 $246 $176 @18 ASM_EDGE_FROM_STEP @4 2847 #
point $-1 -1 $-1 493.67615063405435 -218.76308079908492 -2.9816770649672177 #
fmesh-eye-attrib $-1 -1 $391 $249 $177 #
truecolor-adesk-attrib $-1 -1 $392 $-1 $250 -1038542567 #
plane-surface $-1 -1 $-1 494.67971424197259 -221.02780525138877 -4.5024999052371353 -0.74530059622550726 -0.66672859640629145 -9.7806279919699112e-14 -0.66672859640629156 0.74530059622550726 -1.5086626765883014e-13 forward_v I I I I #
DXID-attrib $-1 -1 $-1 $253 $181 @18 ASM_EDGE_FROM_STEP @4 2817 #
truecolor-adesk-attrib $-1 -1 $393 $-1 $256 -1038542567 #
vertex $-1 -1 $-1 $304 $394 #
straight-curve $-1 -1 $-1 493.10823157973078 -219.27112798954659 -4.5024999052374906 -1.7352392572437501e-10 4.7277416255984035e-11 999.99999999999989 F 0.00016327495692451953 F 0.0015208228402701996 #
truecolor-adesk-attrib $-1 -1 $395 $-1 $257 -1038542567 #
plane-surface $-1 -1 $-1 493.67615063405464 -218.763080799085 -4.5024999052374159 -0.66672859640629145 0.74530059622550726 -1.5092924996470852e-13 0.74530059622550726 0.66672859640629156 9.7879005622205284e-14 forward_v I I I I #
DXID-attrib $-1 -1 $-1 $260 $188 @18 ASM_EDGE_FROM_STEP @4 2855 #
coedge $-1 -1 $-1 $396 $362 $262 $335 forward $289 $-1 #
edge $397 -1 $-1 $337 -1.4851308184371264 $383 -1.3915881843289357 $262 $398 forward @7 unknown #
truecolor-adesk-attrib $-1 -1 $399 $-1 $264 -1038542567 #
vertex $-1 -1 $-1 $335 $400 #
ellipse-curve $-1 -1 $-1 494.96367376913452 -220.77378165615795 -4.502499905237098 1.7351648029953635e-13 -4.7241823804533971e-14 -0.99999999999999989 0.37256701520079222 1.1341747039959922 1.106603562360718e-14 1 F 1.3720288760289234 F 2.816761328757464 #
coedge $-1 -1 $-1 $278 $265 $291 $361 forward $267 $-1 #
edge $401 -1 $-1 $367 -0.001066800000000011 $269 -5.3977159729801104e-05 $292 $402 forward @7 unknown #
DXID-attrib $-1 -1 $-1 $268 $193 @18 ASM_EDGE_FROM_STEP @4 2823 #
point $-1 -1 $-1 496.14908490046417 -220.91505759083836 -4.5024999052368848 #
truecolor-adesk-attrib $-1 -1 $403 $-1 $271 -1038542567 #
straight-curve $-1 -1 $-1 497.34875335831083 -220.66410434175506 -4.5024999052366894 -1.7348937904481695e-10 4.7266067957311264e-11 999.99999999999989 F 0.00016327495692451953 F 0.0015208228402701996 #
truecolor-adesk-attrib $-1 -1 $404 $-1 $272 -1038542567 #
plane-surface $-1 -1 $-1 497.34875335831083 -220.66410434175506 -4.5024999052366894 0.97881354799012421 0.20475360380463264 1.6013585688952663e-13 0.20475360380463259 -0.97881354799012432 8.1714517555586191e-14 forward_v I I I I #
DXID-attrib $-1 -1 $-1 $275 $200 @18 ASM_EDGE_FROM_STEP @4 2857 #
coedge $-1 -1 $-1 $371 $277 $405 $406 reversed $61 $-1 #
coedge $-1 -1 $-1 $291 $364 $277 $350 reversed $213 $-1 #
edge $407 -1 $-1 $352 1.2729918782694369 $408 2.9157983265169491 $277 $409 forward @7 unknown #
truecolor-adesk-attrib $-1 -1 $410 $-1 $279 -1038542567 #
vertex $-1 -1 $-1 $279 $411 #
straight-curve $-1 -1 $-1 495.04168489218381 -221.14670961794212 -2.9816770649668687 978.81354799012422 204.75360380463246 1.6007287458364821e-10 F 0.0016586024960791603 F 0.0023570050403000811 #
DXID-attrib $-1 -1 $-1 $280 $205 @18 ASM_EDGE_FROM_STEP @4 2839 #
point $-1 -1 $-1 497.34875335831055 -220.66410434175501 -2.9816770649664912 #
DXID-attrib $-1 -1 $-1 $286 $148 @18 ASM_FACE_FROM_STEP @24 flexure gripper v26-5078 #
fmesh-eye-attrib $-1 -1 $412 $287 $212 #
truecolor-adesk-attrib $-1 -1 $413 $-1 $288 -1038542567 #
face $414 -1 $-1 $177 $381 $3 $-1 $415 reversed single #
plane-surface $-1 -1 $-1 494.60170311892307 -220.65487728960451 -4.5024999052371673 -0.95005420003014129 0.31208495158384081 -1.7959352317779208e-13 0.31208495158384081 0.95005420003014129 9.3325715365762654e-15 forward_v I I I I #
edge $416 -1 $-1 $367 -0.060908270106604503 $352 -0.029108952861224401 $291 $417 forward @7 unknown #
coedge $-1 -1 $-1 $334 $418 $293 $363 reversed $289 $-1 #
edge $419 -1 $-1 $337 5.3977159729801104e-05 $366 0.001066800000000011 $293 $420 forward @7 unknown #
coedge $-1 -1 $-1 $349 $294 $418 $421 reversed $213 $-1 #
truecolor-adesk-attrib $-1 -1 $422 $-1 $295 -1038542567 #
vertex $-1 -1 $-1 $295 $423 #
vertex $-1 -1 $-1 $295 $424 #
ellipse-curve $-1 -1 $-1 494.96367376913435 -220.77378165615792 -3.4896770649668873 -1.7351648029953635e-13 4.7241823804533971e-14 0.99999999999999989 0.37256701520079222 1.1341747039959922 1.106603562360718e-14 1 F -2.8167613287574644 F -1.3720288760289236 #
truecolor-adesk-attrib $-1 -1 $425 $-1 $296 -1038542567 #
intcurve-curve $-1 -1 $-1 forward { exactcur full nurbs 2 open 2 
	-0.060908270106604899 2 -0.029108952861224599 2 
	494.24861965509291 -221.72973984247804 -3.4896770649669655 1.9575819151638401 
	494.18078240469623 -221.93625112836597 -3.2836765127023817 1.73113153861038 
	494.0840782392371 -222.23063955718493 -2.9816770649669841 1.48012291146534 
	0 
	null_surface 
	null_surface 
	nullbs 
	nullbs 
	I I 
	0 
	0 
	0 
	F 1 F 0 } F -0.060908270106604899 F -0.029108952861224599 #
coedge $-1 -1 $-1 $298 $348 $426 $427 reversed $61 $-1 #
edge $428 -1 $-1 $300 0.0016586024960791588 $429 0.0023570050403000789 $298 $430 forward @7 unknown #
DXID-attrib $-1 -1 $-1 $299 $218 @18 ASM_EDGE_FROM_STEP @4 2836 #
point $-1 -1 $-1 494.0840782392371 -222.23063955718493 -2.9816770649669833 #
DXID-attrib $-1 -1 $-1 $302 $219 @18 ASM_EDGE_FROM_STEP @4 2833 #
truecolor-adesk-attrib $-1 -1 $431 $-1 $304 -1038542567 #
straight-curve $-1 -1 $-1 494.67971424197236 -221.02780525138868 -2.9816770649669371 666.72859640629122 -745.30059622550709 1.5099223227058687e-10 F -0.0023570050403000789 F -0.0016586024960791638 #
coedge $-1 -1 $-1 $426 $313 $310 $379 forward $381 $-1 #
edge $432 -1 $-1 $316 0.00016327495692451953 $429 0.0015208228402701996 $310 $433 forward @7 unknown #
coedge $-1 -1 $-1 $313 $426 $396 $434 reversed $381 $-1 #
loop $-1 -1 $-1 $-1 $313 $359 #
truecolor-adesk-attrib $-1 -1 $435 $-1 $314 -1038542567 #
vertex $-1 -1 $-1 $314 $436 #
ellipse-curve $-1 -1 $-1 494.22808796524731 -223.01306419418665 8.672006806000919 0.31208495158384075 0.95005420003014129 9.2695892306978447e-15 -2.2586308572304424e-12 6.149377904194913e-13 13.016808854878999 1 F 3.1123186258920899 F 3.1708666812874964 #
DXID-attrib $-1 -1 $-1 $315 $235 @18 ASM_EDGE_FROM_STEP @4 2819 #
point $-1 -1 $-1 493.86611731503808 -222.89415982763381 -4.339224948312669 #
truecolor-adesk-attrib $-1 -1 $437 $-1 $318 -1038542567 #
straight-curve $-1 -1 $-1 493.67615063405435 -218.76308079908492 -2.9816770649672177 -745.30059622550709 -666.72859640629122 -9.780627991969911e-11 F 0 F 0.00076199999999999478 #
DXID-attrib $-1 -1 $-1 $319 $173 @18 ASM_FACE_FROM_STEP @24 flexure gripper v26-5085 #
fmesh-eye-attrib $-1 -1 $438 $320 $244 #
DXID-attrib $-1 -1 $-1 $324 $177 @18 ASM_FACE_FROM_STEP @24 flexure gripper v26-5082 #
fmesh-eye-attrib $-1 -1 $439 $325 $250 #
DXID-attrib $-1 -1 $-1 $328 $256 @18 ASM_EDGE_FROM_STEP @4 2856 #
point $-1 -1 $-1 493.1082315797305 -219.2711279895465 -2.9816770649672923 #
fmesh-eye-attrib $-1 -1 $440 $331 $257 #
coedge $-1 -1 $-1 $405 $334 $380 $434 forward $289 $-1 #
truecolor-adesk-attrib $-1 -1 $441 $-1 $335 -1038542567 #
ellipse-curve $-1 -1 $-1 495.32564441934375 -220.89268602271079 8.6720068060010078 -0.95005420003014129 0.31208495158384081 -1.7959352317779208e-13 -4.1266980818940047 -12.562562933786545 -2.7606022244555764e-13 1 F -1.4851308184371264 F -1.3915881843289357 #
DXID-attrib $-1 -1 $-1 $336 $264 @18 ASM_EDGE_FROM_STEP @4 2822 #
point $-1 -1 $-1 494.97256095551609 -221.96754857558497 -4.5024999052370394 #
truecolor-adesk-attrib $-1 -1 $442 $-1 $340 -1038542567 #
straight-curve $-1 -1 $-1 496.14908490046417 -220.91505759083836 -4.5564770649666855 1.7351648029953634e-10 -4.7241823804533967e-11 -999.99999999999989 F -0.001066800000000011 F -5.3977159729801104e-05 #
DXID-attrib $-1 -1 $-1 $343 $271 @18 ASM_EDGE_FROM_STEP @4 2858 #
fmesh-eye-attrib $-1 -1 $443 $345 $272 #
coedge $-1 -1 $-1 $418 $396 $348 $406 forward $289 $-1 #
edge $444 -1 $-1 $445 -0.0023570050403000789 $408 -0.0016586024960791588 $348 $446 forward @7 unknown #
truecolor-adesk-attrib $-1 -1 $447 $-1 $350 -1038542567 #
vertex $-1 -1 $-1 $350 $448 #
ellipse-curve $-1 -1 $-1 494.96367376913429 -220.77378165615789 -2.9816770649668998 1.7350992835624277e-13 -4.7261769339276424e-14 -0.99999999999999989 0.53110617060538334 1.6168022376113038 1.5739259190087059e-14 1 F 1.2729918782694369 F 2.9157983265169491 #
DXID-attrib $-1 -1 $-1 $351 $279 @18 ASM_EDGE_FROM_STEP @4 2840 #
point $-1 -1 $-1 496.66514748607636 -220.80710477959056 -2.9816770649666031 #
DXID-attrib $-1 -1 $-1 $357 $212 @18 ASM_FACE_FROM_STEP @24 flexure gripper v26-5079 #
fmesh-eye-attrib $-1 -1 $449 $358 $288 #
truecolor-adesk-attrib $-1 -1 $450 $-1 $359 -1038542567 #
plane-surface $-1 -1 $-1 493.86611731503814 -222.89415982763381 -4.5024999052371886 -0.31208495158384075 -0.95005420003014129 -9.2695892306978447e-15 -1.7351648029953635e-13 4.7241823804533971e-14 0.99999999999999989 forward_v I I I I #
truecolor-adesk-attrib $-1 -1 $451 $-1 $361 -1038542567 #
intcurve-curve $-1 -1 $-1 forward { exactcur full nurbs 2 open 2 
	-0.060908270106604503 2 -0.029108952861224401 2 
	496.149084900464 -220.9150575908383 -3.4896770649666742 1.9575819151638401 
	496.36184754540943 -220.87055073006073 -3.2836765127020513 1.73113153861038 
	496.66514748607636 -220.80710477959056 -2.9816770649665925 1.48012291146534 
	0 
	null_surface 
	null_surface 
	nullbs 
	nullbs 
	I I 
	0 
	0 
	0 
	F 1 F 0 } F -0.060908270106604503 F -0.029108952861224401 #
coedge $-1 -1 $-1 $362 $405 $364 $421 forward $289 $-1 #
truecolor-adesk-attrib $-1 -1 $452 $-1 $363 -1038542567 #
straight-curve $-1 -1 $-1 494.97256095551609 -221.96754857558497 -4.55647706496684 -1.7351648029953634e-10 4.7241823804533967e-11 999.99999999999989 F 5.3977159729801104e-05 F 0.001066800000000011 #
edge $453 -1 $-1 $408 -0.679147353287887 $366 -0.64734803604253999 $364 $454 forward @7 unknown #
DXID-attrib $-1 -1 $-1 $365 $295 @18 ASM_EDGE_FROM_STEP @4 2848 #
point $-1 -1 $-1 494.97256095551592 -221.96754857558491 -3.4896770649668287 #
point $-1 -1 $-1 496.149084900464 -220.9150575908383 -3.4896770649666742 #
DXID-attrib $-1 -1 $-1 $369 $296 @18 ASM_EDGE_FROM_STEP @4 2837 #
coedge $-1 -1 $-1 $380 $378 $371 $427 forward $381 $-1 #
edge $455 -1 $-1 $429 0 $445 0.00076200000000000009 $371 $456 forward @7 unknown #
truecolor-adesk-attrib $-1 -1 $457 $-1 $372 -1038542567 #
vertex $-1 -1 $-1 $427 $458 #
straight-curve $-1 -1 $-1 494.60170311892279 -220.65487728960446 -2.9816770649669682 -312.08495158384079 -950.05420003014126 -9.3325715365762656e-12 F 0.0016586024960791588 F 0.0023570050403000789 #
DXID-attrib $-1 -1 $-1 $376 $304 @18 ASM_EDGE_FROM_STEP @4 2845 #
truecolor-adesk-attrib $-1 -1 $459 $-1 $379 -1038542567 #
straight-curve $-1 -1 $-1 493.86611731503814 -222.89415982763381 -4.5024999052371886 -1.7351648029953634e-10 4.7241823804533967e-11 999.99999999999989 F 0.00016327495692451953 F 0.0015208228402701996 #
edge $460 -1 $-1 $383 0.00016327495692452953 $445 0.0015208228402701996 $396 $461 forward @7 unknown #
DXID-attrib $-1 -1 $-1 $382 $314 @18 ASM_EDGE_FROM_STEP @4 2820 #
point $-1 -1 $-1 494.59005861546109 -223.13196856074069 -4.3392249483125216 #
DXID-attrib $-1 -1 $-1 $387 $318 @18 ASM_EDGE_FROM_STEP @4 2846 #
DXID-attrib $-1 -1 $-1 $390 $244 @18 ASM_FACE_FROM_STEP @24 flexure gripper v26-5086 #
DXID-attrib $-1 -1 $-1 $392 $250 @18 ASM_FACE_FROM_STEP @24 flexure gripper v26-5083 #
DXID-attrib $-1 -1 $-1 $395 $257 @18 ASM_FACE_FROM_STEP @24 flexure gripper v26-5084 #
DXID-attrib $-1 -1 $-1 $397 $335 @18 ASM_EDGE_FROM_STEP @4 2821 #
DXID-attrib $-1 -1 $-1 $401 $340 @18 ASM_EDGE_FROM_STEP @4 2849 #
DXID-attrib $-1 -1 $-1 $404 $272 @18 ASM_FACE_FROM_STEP @24 flexure gripper v26-5087 #
truecolor-adesk-attrib $-1 -1 $462 $-1 $406 -1038542567 #
vertex $-1 -1 $-1 $406 $463 #
straight-curve $-1 -1 $-1 495.32564441934574 -220.89268602271133 -2.9816770649668314 312.08495158384079 950.05420003014126 9.3325715365762656e-12 F -0.0023570050403000789 F -0.0016586024960791588 #
DXID-attrib $-1 -1 $-1 $407 $350 @18 ASM_EDGE_FROM_STEP @4 2841 #
point $-1 -1 $-1 494.80801953966005 -222.4684482902918 -2.9816770649668465 #
DXID-attrib $-1 -1 $-1 $413 $288 @18 ASM_FACE_FROM_STEP @24 flexure gripper v26-5080 #
fmesh-eye-attrib $-1 -1 $464 $414 $359 #
DXID-attrib $-1 -1 $-1 $416 $361 @18 ASM_EDGE_FROM_STEP @4 2851 #
DXID-attrib $-1 -1 $-1 $419 $363 @18 ASM_EDGE_FROM_STEP @4 2850 #
truecolor-adesk-attrib $-1 -1 $465 $-1 $421 -1038542567 #
intcurve-curve $-1 -1 $-1 forward { exactcur full nurbs 2 open 2 
	-0.679147353287887 2 -0.64734803604253999 2 
	494.80801953966017 -222.46844829029152 -2.9816770649671573 1.4801229114655701 
	494.90472370511918 -222.1740598614729 -3.2836765127021952 1.7311315386103301 
	494.9725609555158 -221.96754857558514 -3.4896770649666209 1.9575819151635701 
	0 
	null_surface 
	null_surface 
	nullbs 
	nullbs 
	I I 
	0 
	0 
	0 
	F 1 F 0 } F -0.679147353287887 F -0.64734803604253999 #
truecolor-adesk-attrib $-1 -1 $466 $-1 $427 -1038542567 #
straight-curve $-1 -1 $-1 493.86611731503785 -222.89415982763376 -2.9816770649669904 950.05420003014126 -312.08495158384073 1.7959352317779208e-10 F 0 F 0.00076200000000000009 #
DXID-attrib $-1 -1 $-1 $428 $372 @18 ASM_EDGE_FROM_STEP @4 2844 #
point $-1 -1 $-1 493.86611731503785 -222.89415982763376 -2.9816770649669904 #
DXID-attrib $-1 -1 $-1 $432 $379 @18 ASM_EDGE_FROM_STEP @4 2854 #
truecolor-adesk-attrib $-1 -1 $467 $-1 $434 -1038542567 #
straight-curve $-1 -1 $-1 494.59005861546109 -223.13196856074072 -4.5024999052370518 -1.7351648029953634e-10 4.7241823804533967e-11 999.99999999999989 F 0.00016327495692452953 F 0.0015208228402701996 #
DXID-attrib $-1 -1 $-1 $444 $406 @18 ASM_EDGE_FROM_STEP @4 2842 #
point $-1 -1 $-1 494.5900586154608 -223.13196856074063 -2.9816770649668536 #
DXID-attrib $-1 -1 $-1 $450 $359 @18 ASM_FACE_FROM_STEP @24 flexure gripper v26-5081 #
DXID-attrib $-1 -1 $-1 $453 $421 @18 ASM_EDGE_FROM_STEP @4 2852 #
DXID-attrib $-1 -1 $-1 $455 $427 @18 ASM_EDGE_FROM_STEP @4 2843 #
DXID-attrib $-1 -1 $-1 $460 $434 @18 ASM_EDGE_FROM_STEP @4 2853 #
