700 246 1 0         
5 ZWCAD 12 ACIS 28.0 NT 24 Sat May 11 15:13:16 2024 
1 9.9999999999999995e-07 1e-10 
body $1 -1 $-1 $2 $-1 $-1 #
DXID-attrib $-1 -1 $-1 $-1 $0 @18 ASM_BODY_FROM_STEP @83 CE391CAD2AD0107AA57001838293E8F7F6605261|:|1817F654752E9CF1A78D11D3004C9A5611698275 #
lump $-1 -1 $-1 $-1 $3 $0 #
shell $-1 -1 $-1 $-1 $-1 $4 $-1 $2 #
face $5 -1 $-1 $6 $7 $3 $-1 $8 reversed single #
color-adesk-attrib $-1 -1 $9 $-1 $4 7 #
face $10 -1 $-1 $11 $12 $3 $-1 $13 forward single #
loop $-1 -1 $-1 $-1 $14 $4 #
cone-surface $-1 -1 $-1 328.11405041155354 -278.35330943568869 4.7625000947104104 -1.7820005208626189e-16 1.1516107920081304e-16 -1 1.9811200370153235 -0.27415944072113418 -3.8460819085180489e-16 1 I I 0 1 2.0000000000000306 forward I I I I #
DXID-attrib $-1 -1 $-1 $5 $4 @18 ASM_FACE_FROM_STEP @24 flexure gripper v26-5280 #
color-adesk-attrib $-1 -1 $15 $-1 $6 7 #
face $16 -1 $-1 $17 $18 $3 $-1 $19 reversed single #
loop $-1 -1 $-1 $20 $21 $6 #
plane-surface $-1 -1 $-1 328.14718516546736 -293.71270448402254 4.5625000947104102 1.8526729370459476e-16 -1.6773894456914758e-16 1 0.99056001850764674 -0.13707972036056496 -2.0651198149600008e-16 forward_v I I I I #
coedge $-1 -1 $-1 $22 $23 $24 $25 reversed $7 $-1 #
DXID-attrib $-1 -1 $-1 $10 $6 @18 ASM_FACE_FROM_STEP @24 flexure gripper v26-5281 #
color-adesk-attrib $-1 -1 $26 $-1 $11 7 #
face $27 -1 $-1 $28 $29 $3 $-1 $30 forward single #
loop $-1 -1 $-1 $-1 $31 $11 #
cone-surface $-1 -1 $-1 328.18033687881427 -309.07211167305826 4.7625000947104104 -1.7820005208626189e-16 1.1516107920081304e-16 -1 1.9811200370153235 -0.27415944072113418 -3.8460819085180489e-16 1 I I 0 1 2.0000000000000306 forward I I I I #
loop $-1 -1 $-1 $-1 $32 $6 #
coedge $-1 -1 $-1 $21 $21 $33 $34 reversed $12 $-1 #
coedge $-1 -1 $-1 $33 $14 $23 $35 forward $7 $-1 #
coedge $-1 -1 $-1 $14 $33 $22 $35 reversed $7 $-1 #
coedge $-1 -1 $-1 $24 $24 $14 $25 forward $36 $-1 #
edge $37 -1 $-1 $38 -3.1415926535900214 $38 3.1415926535895649 $14 $39 forward @7 unknown #
DXID-attrib $-1 -1 $-1 $16 $11 @18 ASM_FACE_FROM_STEP @24 flexure gripper v26-5282 #
color-adesk-attrib $-1 -1 $40 $-1 $17 7 #
face $41 -1 $-1 $42 $43 $3 $-1 $44 forward single #
loop $-1 -1 $-1 $45 $46 $17 #
plane-surface $-1 -1 $-1 328.14718516546736 -293.71270448402254 4.5625000947104102 1.8526729370459476e-16 -1.6773894456914758e-16 1 0.99056001850764674 -0.13707972036056496 -2.0651198149600008e-16 forward_v I I I I #
coedge $-1 -1 $-1 $47 $48 $49 $50 reversed $18 $-1 #
coedge $-1 -1 $-1 $32 $32 $51 $52 reversed $20 $-1 #
coedge $-1 -1 $-1 $23 $22 $21 $34 forward $7 $-1 #
edge $53 -1 $-1 $54 -3.1415926535900214 $54 3.1415926535895649 $33 $55 forward @7 unknown #
edge $56 -1 $-1 $38 0 $54 0.099999999999998576 $22 $57 forward @7 unknown #
loop $-1 -1 $-1 $58 $24 $59 #
color-adesk-attrib $-1 -1 $60 $-1 $25 7 #
vertex $-1 -1 $-1 $25 $61 #
ellipse-curve $-1 -1 $-1 328.11405041155354 -278.35330943568869 4.7625000947104104 -1.8526729370459476e-16 1.6773894456914763e-16 -1 1.9811200370153235 -0.27415944072113418 -4.1302396299200636e-16 1 I I #
DXID-attrib $-1 -1 $-1 $27 $17 @18 ASM_FACE_FROM_STEP @24 flexure gripper v26-5283 #
color-adesk-attrib $-1 -1 $62 $-1 $28 7 #
face $63 -1 $-1 $64 $65 $3 $-1 $66 forward single #
loop $-1 -1 $-1 $-1 $67 $28 #
plane-surface $-1 -1 $-1 333.11403022077866 -278.34251448697506 4.7625000947104201 0.99999767185685418 0.00215784171607733 -2.0507864261444902e-16 0.0021578417160773022 -0.99999767185685418 -6.3345883197762504e-16 forward_v I I I I #
loop $-1 -1 $-1 $-1 $68 $17 #
coedge $-1 -1 $-1 $46 $46 $69 $70 reversed $29 $-1 #
coedge $-1 -1 $-1 $69 $31 $48 $71 forward $18 $-1 #
coedge $-1 -1 $-1 $31 $69 $47 $71 reversed $18 $-1 #
coedge $-1 -1 $-1 $49 $49 $31 $50 forward $58 $-1 #
edge $72 -1 $-1 $73 -3.1415926535899859 $73 3.1415926535896004 $31 $74 forward @7 unknown #
coedge $-1 -1 $-1 $75 $76 $32 $52 forward $77 $-1 #
edge $78 -1 $-1 $79 -3.1415926535897931 $79 3.1415926535897931 $32 $80 forward @7 unknown #
color-adesk-attrib $-1 -1 $81 $-1 $34 7 #
vertex $-1 -1 $-1 $35 $82 #
ellipse-curve $-1 -1 $-1 328.11405041155354 -278.35330943568869 4.5625000947104102 -1.8526729370459476e-16 1.6773894456914763e-16 -1 1.9811200370153235 -0.27415944072113418 -4.1302396299200636e-16 1 I I #
color-adesk-attrib $-1 -1 $83 $-1 $35 7 #
straight-curve $-1 -1 $-1 326.13293037453855 -278.07914999496808 4.7625000947104104 -3.564001041725292e-16 2.3032215840162958e-16 -2.0000000000000302 F 0 F 0.099999999999998576 #
loop $-1 -1 $-1 $-1 $49 $59 #
face $84 -1 $-1 $85 $86 $3 $-1 $87 forward single #
DXID-attrib $-1 -1 $-1 $37 $25 @18 ASM_EDGE_FROM_STEP @4 3398 #
point $-1 -1 $-1 326.13293037453855 -278.07914999496808 4.7625000947104104 #
DXID-attrib $-1 -1 $-1 $41 $28 @18 ASM_FACE_FROM_STEP @24 flexure gripper v26-5284 #
color-adesk-attrib $-1 -1 $88 $-1 $42 7 #
face $89 -1 $-1 $90 $91 $3 $-1 $92 forward single #
loop $-1 -1 $-1 $-1 $93 $42 #
cone-surface $-1 -1 $-1 328.11404193254987 -278.35330369540276 4.7625000947104201 -2.0519028505206685e-16 5.1516626282063844e-17 -1 4.9999882882280451 0.010789208427093522 -1.0253931985000903e-15 1 I I 0 1 4.9999999289436099 forward I I I I #
coedge $-1 -1 $-1 $94 $95 $96 $97 reversed $43 $-1 #
coedge $-1 -1 $-1 $68 $68 $98 $99 reversed $45 $-1 #
coedge $-1 -1 $-1 $48 $47 $46 $70 forward $18 $-1 #
edge $100 -1 $-1 $101 -3.1415926535899859 $101 3.1415926535896004 $69 $102 forward @7 unknown #
edge $103 -1 $-1 $73 0 $101 0.099999999999998576 $47 $104 forward @7 unknown #
color-adesk-attrib $-1 -1 $105 $-1 $50 7 #
vertex $-1 -1 $-1 $50 $106 #
ellipse-curve $-1 -1 $-1 328.18033687881427 -309.07211167305826 4.7625000947104104 -1.8526729370459476e-16 1.6773894456914763e-16 -1 1.9811200370153235 -0.27415944072113418 -4.1302396299200636e-16 1 I I #
coedge $-1 -1 $-1 $107 $51 $76 $108 forward $77 $-1 #
coedge $-1 -1 $-1 $51 $107 $75 $108 reversed $77 $-1 #
loop $-1 -1 $-1 $-1 $51 $109 #
color-adesk-attrib $-1 -1 $110 $-1 $52 7 #
vertex $-1 -1 $-1 $52 $111 #
ellipse-curve $-1 -1 $-1 328.11405041155444 -278.35330943568891 4.5625000947104102 1.8526729370459479e-16 -1.677389445691476e-16 1 1.2218216182035428 -0.26391652712643027 -2.7063266430888126e-16 1 I I #
DXID-attrib $-1 -1 $-1 $53 $34 @18 ASM_EDGE_FROM_STEP @4 3400 #
point $-1 -1 $-1 326.13293037453855 -278.07914999496808 4.5625000947104102 #
DXID-attrib $-1 -1 $-1 $56 $35 @18 ASM_EDGE_FROM_STEP @4 3399 #
color-adesk-attrib $-1 -1 $112 $-1 $59 7 #
face $113 -1 $-1 $-1 $114 $3 $-1 $115 reversed single #
loop $-1 -1 $-1 $36 $116 $59 #
plane-surface $-1 -1 $-1 337.51724192166148 -278.01302077459809 4.7625000947104104 1.8526729370459476e-16 -1.6773894456914758e-16 1 0.97745729456283437 -0.21113322170114424 -2.1650613144710503e-16 forward_v I I I I #
DXID-attrib $-1 -1 $-1 $63 $42 @18 ASM_FACE_FROM_STEP @24 flexure gripper v26-5285 #
color-adesk-attrib $-1 -1 $117 $-1 $64 7 #
face $118 -1 $-1 $119 $120 $3 $-1 $121 forward single #
loop $-1 -1 $-1 $-1 $122 $64 #
plane-surface $-1 -1 $-1 323.18034011015789 -309.08289448107132 4.7625000947104104 -0.99999767185685418 -0.0021578417160823815 2.0507864261444801e-16 -0.0021578417160823538 0.99999767185685429 5.9279975884419012e-16 forward_v I I I I #
coedge $-1 -1 $-1 $123 $124 $125 $126 reversed $65 $-1 #
coedge $-1 -1 $-1 $127 $67 $128 $129 forward $43 $-1 #
coedge $-1 -1 $-1 $67 $127 $123 $130 reversed $43 $-1 #
coedge $-1 -1 $-1 $125 $116 $67 $97 forward $86 $-1 #
edge $131 -1 $-1 $132 -7.4505534261601724e-09 $133 3.0718873095175381 $67 $134 forward @7 unknown #
coedge $-1 -1 $-1 $135 $136 $68 $99 forward $137 $-1 #
edge $138 -1 $-1 $139 -3.1415926535897931 $139 3.1415926535897931 $68 $140 forward @7 unknown #
color-adesk-attrib $-1 -1 $141 $-1 $70 7 #
vertex $-1 -1 $-1 $71 $142 #
ellipse-curve $-1 -1 $-1 328.18033687881427 -309.07211167305826 4.5625000947104102 -1.8526729370459476e-16 1.6773894456914763e-16 -1 1.9811200370153235 -0.27415944072113418 -4.1302396299200636e-16 1 I I #
color-adesk-attrib $-1 -1 $143 $-1 $71 7 #
straight-curve $-1 -1 $-1 326.19921684179837 -308.79795223233748 4.7625000947104104 -3.564001041725292e-16 2.3032215840162958e-16 -2.0000000000000302 F 0 F 0.099999999999998576 #
DXID-attrib $-1 -1 $-1 $72 $50 @18 ASM_EDGE_FROM_STEP @4 3402 #
point $-1 -1 $-1 326.19921684179837 -308.79795223233748 4.7625000947104104 #
coedge $-1 -1 $-1 $76 $75 $144 $145 reversed $77 $-1 #
edge $146 -1 $-1 $79 -2.3799999237086 $147 0 $75 $148 forward @7 unknown #
face $149 -1 $-1 $59 $77 $3 $-1 $150 reversed single #
DXID-attrib $-1 -1 $-1 $78 $52 @18 ASM_EDGE_FROM_STEP @4 3401 #
point $-1 -1 $-1 326.89222879335091 -278.08939290856244 4.5625000947104102 #
DXID-attrib $-1 -1 $-1 $84 $59 @18 ASM_FACE_FROM_STEP @24 flexure gripper v26-5290 #
color-adesk-attrib $-1 -1 $151 $-1 $85 7 #
loop $-1 -1 $-1 $152 $153 $85 #
plane-surface $-1 -1 $-1 337.51724192166148 -278.01302077459809 1.5875001900746606 1.8526729370459476e-16 -1.6773894456914758e-16 1 0.97745729456283437 -0.21113322170114424 -2.1650613144710503e-16 forward_v I I I I #
coedge $-1 -1 $-1 $96 $154 $155 $156 forward $86 $-1 #
DXID-attrib $-1 -1 $-1 $89 $64 @18 ASM_FACE_FROM_STEP @24 flexure gripper v26-5286 #
color-adesk-attrib $-1 -1 $157 $-1 $90 7 #
face $158 -1 $-1 $109 $137 $3 $-1 $159 reversed single #
loop $-1 -1 $-1 $-1 $155 $90 #
cone-surface $-1 -1 $-1 328.18032839838565 -309.0721052726434 4.7625000947103997 -2.051902850520669e-16 5.1516626282063844e-17 -1 -4.9999882882279767 -0.01078920842706288 1.0253931985000779e-15 1 I I 0 1 4.9999999289435406 forward I I I I #
coedge $-1 -1 $-1 $160 $161 $154 $162 reversed $91 $-1 #
coedge $-1 -1 $-1 $163 $93 $95 $130 forward $65 $-1 #
coedge $-1 -1 $-1 $93 $163 $160 $164 reversed $65 $-1 #
coedge $-1 -1 $-1 $154 $96 $93 $126 forward $86 $-1 #
edge $165 -1 $-1 $133 1.3325452231806924e-13 $166 3.1415926535897718 $93 $167 forward @7 unknown #
coedge $-1 -1 $-1 $95 $94 $168 $169 reversed $43 $-1 #
coedge $-1 -1 $-1 $155 $170 $94 $129 reversed $120 $-1 #
edge $171 -1 $-1 $132 0 $172 0.31749999046357497 $94 $173 forward @7 unknown #
edge $174 -1 $-1 $133 0 $175 0.31749999046357502 $95 $176 forward @7 unknown #
color-adesk-attrib $-1 -1 $177 $-1 $97 7 #
vertex $-1 -1 $-1 $97 $178 #
vertex $-1 -1 $-1 $97 $179 #
straight-curve $-1 -1 $-1 333.18031668661422 -309.06131606421656 4.7625000947103997 -0.021578417160772915 9.9999767185685418 6.3345883197762504e-15 F -7.4505534261601724e-09 F 3.0718873095175381 #
coedge $-1 -1 $-1 $180 $98 $136 $181 forward $137 $-1 #
coedge $-1 -1 $-1 $98 $180 $135 $181 reversed $137 $-1 #
loop $-1 -1 $-1 $-1 $98 $119 #
color-adesk-attrib $-1 -1 $182 $-1 $99 7 #
vertex $-1 -1 $-1 $99 $183 #
ellipse-curve $-1 -1 $-1 328.18033687881427 -309.07211167305826 4.5625000947104102 1.8526729370459479e-16 -1.677389445691476e-16 1 1.2218216182035428 -0.26391652712643027 -2.7063266430888126e-16 1 I I #
DXID-attrib $-1 -1 $-1 $100 $70 @18 ASM_EDGE_FROM_STEP @4 3404 #
point $-1 -1 $-1 326.19921684179837 -308.79795223233748 4.5625000947104102 #
DXID-attrib $-1 -1 $-1 $103 $71 @18 ASM_EDGE_FROM_STEP @4 3403 #
coedge $-1 -1 $-1 $144 $144 $107 $145 forward $152 $-1 #
edge $184 -1 $-1 $147 -3.1415926535897931 $147 3.1415926535897931 $107 $185 forward @7 unknown #
color-adesk-attrib $-1 -1 $186 $-1 $108 7 #
vertex $-1 -1 $-1 $108 $187 #
straight-curve $-1 -1 $-1 326.89222879335091 -278.08939290856244 1.5875001900746606 0 0 -1.25 F -2.3799999237086 F 0 #
color-adesk-attrib $-1 -1 $188 $-1 $109 7 #
cone-surface $-1 -1 $-1 328.11405041155444 -278.35330943568891 1.5875001900746606 0 0 1 1.2218216182035428 -0.26391652712643027 0 1 I I 0 1 1.25 forward I I I I #
DXID-attrib $-1 -1 $-1 $113 $85 @18 ASM_FACE_FROM_STEP @24 flexure gripper v26-5291 #
loop $-1 -1 $-1 $189 $144 $85 #
coedge $-1 -1 $-1 $190 $168 $170 $191 forward $114 $-1 #
coedge $-1 -1 $-1 $116 $125 $122 $162 forward $86 $-1 #
coedge $-1 -1 $-1 $192 $128 $116 $156 reversed $120 $-1 #
edge $193 -1 $-1 $194 1.7708057746079958e-13 $132 3.1415926386886364 $155 $195 forward @7 unknown #
DXID-attrib $-1 -1 $-1 $118 $90 @18 ASM_FACE_FROM_STEP @24 flexure gripper v26-5287 #
color-adesk-attrib $-1 -1 $196 $-1 $119 7 #
cone-surface $-1 -1 $-1 328.18033687881427 -309.07211167305826 1.5875001900746504 0 0 1 1.2218216182035428 -0.26391652712643027 0 1 I I 0 1 1.25 forward I I I I #
coedge $-1 -1 $-1 $197 $122 $124 $164 forward $91 $-1 #
coedge $-1 -1 $-1 $122 $197 $192 $198 reversed $91 $-1 #
edge $199 -1 $-1 $166 0 $194 3.0718873095175399 $122 $200 forward @7 unknown #
coedge $-1 -1 $-1 $124 $123 $201 $202 reversed $65 $-1 #
edge $203 -1 $-1 $166 0 $204 0.31749999046357502 $124 $205 forward @7 unknown #
color-adesk-attrib $-1 -1 $206 $-1 $126 7 #
vertex $-1 -1 $-1 $126 $207 #
ellipse-curve $-1 -1 $-1 328.11404193254987 -278.35330369540276 4.7625000947104201 -3.677679042357595e-17 -1.682180805136104e-16 1 4.9999882882280451 0.010789208427093522 1.8569846132836396e-16 1 F 1.3325452231806924e-13 F 3.1415926535897718 #
coedge $-1 -1 $-1 $153 $201 $127 $169 forward $114 $-1 #
edge $208 -1 $-1 $175 -3.0718873095175381 $172 7.4505534261601724e-09 $127 $209 forward @7 unknown #
coedge $-1 -1 $-1 $128 $192 $153 $191 reversed $120 $-1 #
color-adesk-attrib $-1 -1 $210 $-1 $129 7 #
vertex $-1 -1 $-1 $129 $211 #
straight-curve $-1 -1 $-1 333.18031668677429 -309.06131613872196 4.7625000947103997 -2.0519028505206687e-15 5.1516626282063836e-16 -10 F 0 F 0.31749999046357497 #
color-adesk-attrib $-1 -1 $212 $-1 $130 7 #
vertex $-1 -1 $-1 $169 $213 #
straight-curve $-1 -1 $-1 333.11403022077866 -278.34251448697506 4.7625000947104201 -2.0519028505206687e-15 5.1516626282063836e-16 -10 F 0 F 0.31749999046357502 #
DXID-attrib $-1 -1 $-1 $131 $97 @18 ASM_EDGE_FROM_STEP @4 3406 #
point $-1 -1 $-1 333.18031668677429 -309.06131613872196 4.7625000947103997 #
point $-1 -1 $-1 333.11403022077866 -278.34251448697506 4.7625000947104201 #
coedge $-1 -1 $-1 $136 $135 $214 $215 reversed $137 $-1 #
edge $216 -1 $-1 $139 -2.379999923708608 $217 -7.9936057773011271e-15 $135 $218 forward @7 unknown #
DXID-attrib $-1 -1 $-1 $138 $99 @18 ASM_EDGE_FROM_STEP @4 3405 #
point $-1 -1 $-1 326.95851526061074 -308.80819514593185 4.5625000947104102 #
color-adesk-attrib $-1 -1 $219 $-1 $145 7 #
ellipse-curve $-1 -1 $-1 328.11405041155444 -278.35330943568891 1.5875001900746606 1.8526729370459479e-16 -1.677389445691476e-16 1 1.2218216182035428 -0.26391652712643027 -2.7063266430888126e-16 1 I I #
DXID-attrib $-1 -1 $-1 $146 $108 @18 ASM_EDGE_FROM_STEP @4 3420 #
point $-1 -1 $-1 326.89222879335091 -278.08939290856244 1.5875001900746606 #
DXID-attrib $-1 -1 $-1 $149 $109 @18 ASM_FACE_FROM_STEP @24 flexure gripper v26-5289 #
loop $-1 -1 $-1 $-1 $214 $85 #
coedge $-1 -1 $-1 $201 $153 $197 $220 forward $114 $-1 #
edge $221 -1 $-1 $172 -3.1415926386886364 $222 -1.7708057746079958e-13 $170 $223 forward @7 unknown #
coedge $-1 -1 $-1 $170 $155 $161 $198 forward $120 $-1 #
color-adesk-attrib $-1 -1 $224 $-1 $156 7 #
vertex $-1 -1 $-1 $162 $225 #
ellipse-curve $-1 -1 $-1 328.18032839838565 -309.0721052726434 4.7625000947103997 7.4245255140891115e-17 -1.6797851195453529e-16 1 -4.9999882882279767 -0.01078920842706288 3.6941305098420817e-16 1 F 1.7708057746079958e-13 F 3.1415926386886364 #
DXID-attrib $-1 -1 $-1 $158 $119 @18 ASM_FACE_FROM_STEP @24 flexure gripper v26-5288 #
coedge $-1 -1 $-1 $161 $160 $190 $220 reversed $91 $-1 #
edge $226 -1 $-1 $194 0 $222 0.31749999046357602 $161 $227 forward @7 unknown #
color-adesk-attrib $-1 -1 $228 $-1 $162 7 #
straight-curve $-1 -1 $-1 323.11405364432233 -278.36409290382977 4.7625000947104201 0.021578417160823538 -9.9999767185685418 -5.9279975884419e-15 F 0 F 3.0718873095175399 #
coedge $-1 -1 $-1 $168 $190 $163 $202 forward $114 $-1 #
edge $229 -1 $-1 $204 -3.1415926535897718 $175 -1.3325452231806924e-13 $163 $230 forward @7 unknown #
color-adesk-attrib $-1 -1 $231 $-1 $164 7 #
vertex $-1 -1 $-1 $202 $232 #
straight-curve $-1 -1 $-1 323.11405364432233 -278.36409290382977 4.7625000947104201 -2.0519028505206687e-15 5.1516626282063836e-16 -10 F 0 F 0.31749999046357502 #
DXID-attrib $-1 -1 $-1 $165 $126 @18 ASM_EDGE_FROM_STEP @4 3410 #
point $-1 -1 $-1 323.11405364432233 -278.36409290382977 4.7625000947104201 #
color-adesk-attrib $-1 -1 $233 $-1 $169 7 #
straight-curve $-1 -1 $-1 333.18031668661422 -309.06131606421656 1.5875001900746504 0.021578417160772915 -9.9999767185685418 -6.3345883197762504e-15 F -3.0718873095175381 F 7.4505534261601724e-09 #
DXID-attrib $-1 -1 $-1 $171 $129 @18 ASM_EDGE_FROM_STEP @4 3407 #
point $-1 -1 $-1 333.18031668677429 -309.06131613872196 1.5875001900746504 #
DXID-attrib $-1 -1 $-1 $174 $130 @18 ASM_EDGE_FROM_STEP @4 3409 #
point $-1 -1 $-1 333.11403022077866 -278.34251448697506 1.5875001900746704 #
coedge $-1 -1 $-1 $214 $214 $180 $215 forward $189 $-1 #
edge $234 -1 $-1 $217 -3.1415926535897931 $217 3.1415926535897931 $180 $235 forward @7 unknown #
color-adesk-attrib $-1 -1 $236 $-1 $181 7 #
vertex $-1 -1 $-1 $181 $237 #
straight-curve $-1 -1 $-1 326.95851526061074 -308.80819514593185 1.5875001900746504 0 0 -1.25 F -2.379999923708608 F -7.9936057773011271e-15 #
DXID-attrib $-1 -1 $-1 $184 $145 @18 ASM_EDGE_FROM_STEP @4 3421 #
edge $238 -1 $-1 $222 -3.0718873095175399 $204 0 $197 $239 forward @7 unknown #
color-adesk-attrib $-1 -1 $240 $-1 $191 7 #
vertex $-1 -1 $-1 $220 $241 #
ellipse-curve $-1 -1 $-1 328.18032839838565 -309.0721052726434 1.5875001900746504 -7.4245255140891115e-17 1.6797851195453529e-16 -1 -4.9999882882279767 -0.01078920842706288 3.6941305098420817e-16 1 F -3.1415926386886364 F -1.7708057746079958e-13 #
DXID-attrib $-1 -1 $-1 $193 $156 @18 ASM_EDGE_FROM_STEP @4 3416 #
point $-1 -1 $-1 323.18034011015789 -309.08289448107132 4.7625000947104104 #
color-adesk-attrib $-1 -1 $242 $-1 $198 7 #
straight-curve $-1 -1 $-1 323.18034011015789 -309.08289448107132 4.7625000947104104 -2.0519028505206687e-15 5.1516626282063836e-16 -10 F 0 F 0.31749999046357602 #
DXID-attrib $-1 -1 $-1 $199 $162 @18 ASM_EDGE_FROM_STEP @4 3413 #
color-adesk-attrib $-1 -1 $243 $-1 $202 7 #
ellipse-curve $-1 -1 $-1 328.11404193254987 -278.35330369540276 1.5875001900746704 3.677679042357595e-17 1.682180805136104e-16 -1 4.9999882882280451 0.010789208427093522 1.8569846132836396e-16 1 F -3.1415926535897718 F -1.3325452231806924e-13 #
DXID-attrib $-1 -1 $-1 $203 $164 @18 ASM_EDGE_FROM_STEP @4 3412 #
point $-1 -1 $-1 323.11405364432233 -278.36409290382977 1.5875001900746704 #
DXID-attrib $-1 -1 $-1 $208 $169 @18 ASM_EDGE_FROM_STEP @4 3408 #
color-adesk-attrib $-1 -1 $244 $-1 $215 7 #
ellipse-curve $-1 -1 $-1 328.18033687881427 -309.07211167305826 1.5875001900746606 1.8526729370459479e-16 -1.677389445691476e-16 1 1.2218216182035428 -0.26391652712643027 -2.7063266430888126e-16 1 I I #
DXID-attrib $-1 -1 $-1 $216 $181 @18 ASM_EDGE_FROM_STEP @4 3418 #
point $-1 -1 $-1 326.95851526061074 -308.80819514593185 1.5875001900746606 #
color-adesk-attrib $-1 -1 $245 $-1 $220 7 #
straight-curve $-1 -1 $-1 323.11405364432233 -278.36409290382977 1.5875001900746704 -0.021578417160823538 9.9999767185685418 5.9279975884419e-15 F -3.0718873095175399 F 0 #
DXID-attrib $-1 -1 $-1 $221 $191 @18 ASM_EDGE_FROM_STEP @4 3417 #
point $-1 -1 $-1 323.18034011015789 -309.08289448107132 1.5875001900746504 #
DXID-attrib $-1 -1 $-1 $226 $198 @18 ASM_EDGE_FROM_STEP @4 3415 #
DXID-attrib $-1 -1 $-1 $229 $202 @18 ASM_EDGE_FROM_STEP @4 3411 #
DXID-attrib $-1 -1 $-1 $234 $215 @18 ASM_EDGE_FROM_STEP @4 3419 #
DXID-attrib $-1 -1 $-1 $238 $220 @18 ASM_EDGE_FROM_STEP @4 3414 #
