700 346 1 0         
5 ZWCAD 12 ACIS 28.0 NT 24 Sat May 11 15:13:35 2024 
1 9.9999999999999995e-07 1e-10 
body $1 -1 $-1 $2 $-1 $-1 #
DXID-attrib $-1 -1 $-1 $-1 $0 @18 ASM_BODY_FROM_STEP @83 C0978DB9491FE293B13ED3B2DC5EF74C7283DD14|:|3E2CF60B877DF25859C8B574AC34255B8A0E49FC #
lump $-1 -1 $-1 $-1 $3 $0 #
shell $-1 -1 $-1 $-1 $-1 $4 $-1 $2 #
face $5 -1 $-1 $6 $7 $3 $-1 $8 forward single #
truecolor-adesk-attrib $-1 -1 $9 $-1 $4 -1037026410 #
face $10 -1 $-1 $11 $12 $3 $-1 $13 reversed single #
loop $-1 -1 $-1 $-1 $14 $4 #
cone-surface $-1 -1 $-1 441.34774400730754 -249.35037625584383 1.5875001901006376 1.5689962932676e-13 6.2481745669271587e-15 -1 0.51499972542007555 -0.00053180545572971481 8.0799943208469997e-14 1 I I 0 1 0.51499999999980195 forward I I I I #
DXID-attrib $-1 -1 $-1 $5 $4 @18 ASM_FACE_FROM_STEP @24 flexure gripper v26-5266 #
truecolor-adesk-attrib $-1 -1 $15 $-1 $6 -1037026410 #
face $16 -1 $-1 $17 $18 $3 $-1 $19 reversed single #
loop $-1 -1 $-1 $-1 $20 $6 #
plane-surface $-1 -1 $-1 441.85831783543654 -253.63694135726183 1.5875001900997074 -0.99999946683548302 0.001032631952696 -1.5689309360874101e-13 0.001032631952696 0.99999946683548302 2.3773613679270302e-13 forward_v I I I I #
coedge $-1 -1 $-1 $21 $22 $23 $24 reversed $7 $-1 #
DXID-attrib $-1 -1 $-1 $10 $6 @18 ASM_FACE_FROM_STEP @24 flexure gripper v26-5267 #
truecolor-adesk-attrib $-1 -1 $25 $-1 $11 -1037026410 #
face $26 -1 $-1 $27 $28 $3 $-1 $29 forward single #
loop $-1 -1 $-1 $-1 $30 $11 #
plane-surface $-1 -1 $-1 446.06599078326855 -249.35525155613783 1.5875001901013779 0.99999946683548302 -0.00103263195269428 1.5689309360874101e-13 -0.00103263195269428 -0.99999946683548302 -2.0007552278635304e-13 forward_v I I I I #
coedge $-1 -1 $-1 $31 $32 $33 $34 reversed $12 $-1 #
coedge $-1 -1 $-1 $35 $14 $32 $36 forward $7 $-1 #
coedge $-1 -1 $-1 $14 $35 $37 $38 reversed $7 $-1 #
coedge $-1 -1 $-1 $39 $33 $14 $24 forward $40 $-1 #
edge $41 -1 $-1 $42 -4.4073657599944824e-13 $43 0.85772931324973378 $14 $44 forward @7 unknown #
DXID-attrib $-1 -1 $-1 $16 $11 @18 ASM_FACE_FROM_STEP @24 flexure gripper v26-5268 #
truecolor-adesk-attrib $-1 -1 $45 $-1 $17 -1037026410 #
face $46 -1 $-1 $47 $48 $3 $-1 $49 reversed single #
loop $-1 -1 $-1 $-1 $50 $17 #
cone-surface $-1 -1 $-1 446.58099050868856 -249.35578336159378 1.5875001901014578 1.5689962932676e-13 6.2481745669271579e-15 -1 -0.33648777776165772 0.38987302473628022 -5.0358812886301104e-14 1 I I 0 1 0.51499999999999513 forward I I I I #
coedge $-1 -1 $-1 $51 $52 $53 $54 reversed $18 $-1 #
coedge $-1 -1 $-1 $55 $20 $56 $57 reversed $12 $-1 #
coedge $-1 -1 $-1 $20 $55 $21 $36 reversed $12 $-1 #
coedge $-1 -1 $-1 $23 $58 $20 $34 forward $40 $-1 #
edge $59 -1 $-1 $60 -0.36702308118448579 $42 0.061580476927926731 $20 $61 forward @7 unknown #
coedge $-1 -1 $-1 $22 $21 $62 $63 reversed $7 $-1 #
edge $64 -1 $-1 $42 0 $65 0.31750000953671298 $21 $66 forward @7 unknown #
coedge $-1 -1 $-1 $67 $68 $22 $38 forward $48 $-1 #
edge $69 -1 $-1 $43 0 $70 0.31750000953671398 $22 $71 forward @7 unknown #
coedge $-1 -1 $-1 $72 $23 $68 $73 forward $40 $-1 #
loop $-1 -1 $-1 $74 $33 $47 #
truecolor-adesk-attrib $-1 -1 $75 $-1 $24 -1037026410 #
vertex $-1 -1 $-1 $24 $76 #
vertex $-1 -1 $-1 $24 $77 #
ellipse-curve $-1 -1 $-1 441.34774400730754 -249.35037625584383 1.5875001901006576 -1.5605570475063499e-13 -9.1050940138742504e-15 1 0.51499972542007555 -0.00053180545572971481 8.0363802958141905e-14 1 F -4.4073657599944824e-13 F 0.85772931324973378 #
DXID-attrib $-1 -1 $-1 $26 $17 @18 ASM_FACE_FROM_STEP @24 flexure gripper v26-5269 #
truecolor-adesk-attrib $-1 -1 $78 $-1 $27 -1037026410 #
face $79 -1 $-1 $80 $40 $3 $-1 $81 reversed single #
loop $-1 -1 $-1 $-1 $68 $27 #
cone-surface $-1 -1 $-1 443.96749320568551 -246.32764336364181 1.5875001901010775 1.5689962932676002e-13 6.2481745669271587e-15 -1 0.0036007769699253223 3.4849981397994712 2.2339837314753135e-14 1 I I 0 1 3.4850000000000803 forward I I I I #
coedge $-1 -1 $-1 $82 $83 $72 $84 reversed $28 $-1 #
coedge $-1 -1 $-1 $85 $30 $83 $86 forward $18 $-1 #
coedge $-1 -1 $-1 $30 $85 $87 $88 reversed $18 $-1 #
coedge $-1 -1 $-1 $89 $72 $30 $54 forward $40 $-1 #
edge $90 -1 $-1 $91 0.15272145639396292 $92 0.58132471986961176 $30 $93 forward @7 unknown #
coedge $-1 -1 $-1 $32 $31 $94 $95 reversed $12 $-1 #
coedge $-1 -1 $-1 $96 $97 $31 $57 forward $98 $-1 #
edge $99 -1 $-1 $100 -2.2981616609741643e-14 $60 0.317500009536691 $31 $101 forward @7 unknown #
coedge $-1 -1 $-1 $33 $102 $96 $103 forward $40 $-1 #
truecolor-adesk-attrib $-1 -1 $104 $-1 $34 -1037026410 #
vertex $-1 -1 $-1 $34 $105 #
straight-curve $-1 -1 $-1 441.86210783304659 -249.96671250225381 1.5875001901007275 0.01032631952696 9.9999946683548302 9.2662372664871896e-14 F -0.36702308118448579 F 0.061580476927926731 #
coedge $-1 -1 $-1 $94 $106 $35 $63 forward $107 $-1 #
edge $108 -1 $-1 $70 -0.85772931324973378 $65 4.4073657599944824e-13 $35 $109 forward @7 unknown #
truecolor-adesk-attrib $-1 -1 $110 $-1 $36 -1037026410 #
vertex $-1 -1 $-1 $36 $111 #
straight-curve $-1 -1 $-1 441.86274373272755 -249.35090806129978 1.5875001901007175 1.5689962932676e-12 6.2481745669271596e-14 -10 F 0 F 0.31750000953671298 #
coedge $-1 -1 $-1 $112 $37 $106 $113 reversed $48 $-1 #
coedge $-1 -1 $-1 $37 $112 $39 $73 reversed $48 $-1 #
truecolor-adesk-attrib $-1 -1 $114 $-1 $38 -1037026410 #
vertex $-1 -1 $-1 $63 $115 #
straight-curve $-1 -1 $-1 441.68503671659852 -248.96119939597281 1.5875001901006975 1.5689962932676e-12 6.2481745669271596e-14 -10 F 0 F 0.31750000953671398 #
coedge $-1 -1 $-1 $53 $39 $50 $84 forward $40 $-1 #
edge $116 -1 $-1 $43 1.4261328479715538 $117 6.2831853071795916 $68 $118 forward @7 unknown #
loop $-1 -1 $-1 $119 $120 $47 #
DXID-attrib $-1 -1 $-1 $41 $24 @18 ASM_EDGE_FROM_STEP @4 3358 #
point $-1 -1 $-1 441.86274373272755 -249.35090806129978 1.5875001901007175 #
point $-1 -1 $-1 441.68503671659852 -248.96119939597281 1.5875001901006975 #
DXID-attrib $-1 -1 $-1 $46 $27 @18 ASM_FACE_FROM_STEP @24 flexure gripper v26-5270 #
truecolor-adesk-attrib $-1 -1 $121 $-1 $47 -1037026410 #
face $122 -1 $-1 $123 $124 $3 $-1 $125 reversed single #
plane-surface $-1 -1 $-1 443.9675231411955 -246.29865385385082 1.5875001901010877 1.5605570475063501e-13 9.1050940138742504e-15 -1 -0.99999946683548302 0.0010326319526927201 -1.5604621933625958e-13 forward_v I I I I #
coedge $-1 -1 $-1 $126 $50 $112 $127 forward $28 $-1 #
coedge $-1 -1 $-1 $50 $126 $51 $86 reversed $28 $-1 #
edge $128 -1 $-1 $117 -5.6575956516917709e-13 $91 0.85773049236831156 $50 $129 forward @7 unknown #
coedge $-1 -1 $-1 $52 $51 $130 $131 reversed $18 $-1 #
edge $132 -1 $-1 $91 0 $133 0.31750000953671403 $51 $134 forward @7 unknown #
coedge $-1 -1 $-1 $135 $136 $52 $88 forward $137 $-1 #
edge $138 -1 $-1 $92 -0.31750000953670598 $139 8.021361352916756e-15 $52 $140 forward @7 unknown #
coedge $-1 -1 $-1 $141 $53 $136 $142 forward $40 $-1 #
truecolor-adesk-attrib $-1 -1 $143 $-1 $54 -1037026410 #
vertex $-1 -1 $-1 $54 $144 #
vertex $-1 -1 $-1 $54 $145 #
straight-curve $-1 -1 $-1 446.06756783382554 -247.8280378064548 1.5875001901013979 -0.010326319526942801 -9.9999946683548302 -9.2662372664869195e-14 F 0.15272145639396292 F 0.58132471986961176 #
coedge $-1 -1 $-1 $146 $62 $55 $95 forward $107 $-1 #
edge $147 -1 $-1 $65 -0.061580476927926737 $100 0.3670230811844859 $55 $148 forward @7 unknown #
coedge $-1 -1 $-1 $149 $56 $58 $103 reversed $98 $-1 #
coedge $-1 -1 $-1 $56 $149 $146 $150 reversed $98 $-1 #
loop $-1 -1 $-1 $-1 $56 $151 #
truecolor-adesk-attrib $-1 -1 $152 $-1 $57 -1037026410 #
vertex $-1 -1 $-1 $57 $153 #
straight-curve $-1 -1 $-1 441.85831783543654 -253.63694135726382 -1.5874999052672027 -1.5745907618316899e-12 -4.5394956794136195e-14 10 F -2.2981616609741643e-14 F 0.317500009536691 #
coedge $-1 -1 $-1 $58 $154 $155 $156 forward $40 $-1 #
edge $157 -1 $-1 $158 -0.62223443290037161 $60 -0.35004605616891615 $58 $159 forward @7 unknown #
DXID-attrib $-1 -1 $-1 $59 $34 @18 ASM_EDGE_FROM_STEP @4 3362 #
point $-1 -1 $-1 441.85831783543654 -253.63694135726183 1.5875001900997074 #
coedge $-1 -1 $-1 $62 $160 $67 $113 forward $107 $-1 #
loop $-1 -1 $-1 $161 $94 $162 #
truecolor-adesk-attrib $-1 -1 $163 $-1 $63 -1037026410 #
ellipse-curve $-1 -1 $-1 441.34774400730856 -249.35037625584383 -1.5874999052655228 1.5605570475063499e-13 9.1050940138742504e-15 -1 0.51499972542007555 -0.00053180545572971481 8.0363802958141905e-14 1 F -0.85772931324973378 F 4.4073657599944824e-13 #
DXID-attrib $-1 -1 $-1 $64 $36 @18 ASM_EDGE_FROM_STEP @4 3359 #
point $-1 -1 $-1 441.86274373272857 -249.35090806129978 -1.5874999052664125 #
coedge $-1 -1 $-1 $68 $67 $82 $127 reversed $48 $-1 #
edge $164 -1 $-1 $165 -2.3721493417388493e-13 $70 4.8570524592080258 $67 $166 forward @7 unknown #
DXID-attrib $-1 -1 $-1 $69 $38 @18 ASM_EDGE_FROM_STEP @4 3361 #
point $-1 -1 $-1 441.68503671659954 -248.96119939597281 -1.5874999052664425 #
truecolor-adesk-attrib $-1 -1 $167 $-1 $73 -1037026410 #
vertex $-1 -1 $-1 $84 $168 #
ellipse-curve $-1 -1 $-1 443.96749320568551 -246.32764336364181 1.5875001901010877 1.5605570475063504e-13 9.1050940138742299e-15 -1 2.2770095252415947 -2.6382669732154866 3.3131865736065949e-13 1 F 1.4261328479715538 F 6.2831853071795916 #
loop $-1 -1 $-1 $-1 $169 $47 #
coedge $-1 -1 $-1 $120 $120 $170 $171 forward $74 $-1 #
DXID-attrib $-1 -1 $-1 $79 $47 @18 ASM_FACE_FROM_STEP @24 flexure gripper v26-5271 #
truecolor-adesk-attrib $-1 -1 $172 $-1 $80 -1037026410 #
face $173 -1 $-1 $174 $175 $3 $-1 $176 reversed single #
loop $-1 -1 $-1 $-1 $170 $80 #
cone-surface $-1 -1 $-1 458.96748322812761 -246.34313284088682 -1.5874999052630427 -1.5745907618316899e-13 -4.5394956794136205e-15 1 -1.1499993868608254 0.0011875267455966486 -1.8107245029378551e-13 1 I I 0 1 1.1500000000000201 forward I I I I #
coedge $-1 -1 $-1 $83 $82 $160 $177 reversed $28 $-1 #
edge $178 -1 $-1 $117 0 $165 0.31750000953671403 $82 $179 forward @7 unknown #
truecolor-adesk-attrib $-1 -1 $180 $-1 $84 -1037026410 #
ellipse-curve $-1 -1 $-1 446.58099050868856 -249.35578336159378 1.5875001901014778 -1.5605570475063504e-13 -9.1050940138742457e-15 1 -0.33648777776165772 0.38987302473628022 -4.8961006754873201e-14 1 F -5.6575956516917709e-13 F 0.85773049236831156 #
coedge $-1 -1 $-1 $160 $181 $85 $131 forward $107 $-1 #
edge $182 -1 $-1 $139 -0.58132471986961176 $133 -0.15272145639396292 $85 $183 forward @7 unknown #
truecolor-adesk-attrib $-1 -1 $184 $-1 $86 -1037026410 #
vertex $-1 -1 $-1 $86 $185 #
straight-curve $-1 -1 $-1 446.06599078326855 -249.35525155613783 1.5875001901013779 1.5689962932676e-12 6.2481745669271596e-14 -10 F 0 F 0.31750000953671403 #
coedge $-1 -1 $-1 $186 $87 $181 $187 reversed $137 $-1 #
coedge $-1 -1 $-1 $87 $186 $89 $142 reversed $137 $-1 #
loop $-1 -1 $-1 $-1 $87 $188 #
truecolor-adesk-attrib $-1 -1 $189 $-1 $88 -1037026410 #
vertex $-1 -1 $-1 $131 $190 #
straight-curve $-1 -1 $-1 446.06156488902059 -253.64128190573379 -1.5874999052665424 1.5745907618316899e-12 4.5394956794136195e-14 -10 F -0.31750000953670598 F 8.021361352916756e-15 #
coedge $-1 -1 $-1 $154 $89 $191 $192 forward $40 $-1 #
edge $193 -1 $-1 $92 -0.27218844284366328 $194 -1.4011045029550207e-14 $89 $195 forward @7 unknown #
DXID-attrib $-1 -1 $-1 $90 $54 @18 ASM_EDGE_FROM_STEP @4 3365 #
point $-1 -1 $-1 446.06599078326855 -249.35525155613783 1.5875001901013779 #
point $-1 -1 $-1 446.06156488901951 -253.64128190573379 1.5875001901005175 #
coedge $-1 -1 $-1 $196 $94 $97 $150 forward $107 $-1 #
truecolor-adesk-attrib $-1 -1 $197 $-1 $95 -1037026410 #
straight-curve $-1 -1 $-1 441.8621078330475 -249.96671250225381 -1.5874999052654624 -0.01032631952696 -9.9999946683548302 -9.2662372664871896e-14 F -0.061580476927926737 F 0.3670230811844859 #
coedge $-1 -1 $-1 $97 $96 $198 $199 reversed $98 $-1 #
edge $200 -1 $-1 $100 0.35004605616891615 $201 0.62223443290035385 $97 $202 forward @7 unknown #
face $203 -1 $-1 $204 $98 $3 $-1 $205 forward single #
DXID-attrib $-1 -1 $-1 $99 $57 @18 ASM_EDGE_FROM_STEP @4 3363 #
point $-1 -1 $-1 441.85831783543654 -253.63694135726183 -1.5874999052674326 #
coedge $-1 -1 $-1 $102 $141 $206 $207 forward $40 $-1 #
coedge $-1 -1 $-1 $208 $198 $102 $156 reversed $209 $-1 #
edge $210 -1 $-1 $211 -1.2596791103446323 $158 1.2596791103448113 $102 $212 forward @7 unknown #
truecolor-adesk-attrib $-1 -1 $213 $-1 $103 -1037026410 #
vertex $-1 -1 $-1 $156 $214 #
ellipse-curve $-1 -1 $-1 444.01566302427153 -199.68005243901482 1.5875001900995676 -1.9609159097006701e-13 1.0471746494287415e-14 1 16.477516143024658 -51.424619218389573 3.7696079317409034e-12 1 F -0.62223443290037161 F -0.35004605616891615 #
coedge $-1 -1 $-1 $106 $130 $126 $177 forward $107 $-1 #
loop $-1 -1 $-1 $215 $216 $162 #
face $217 -1 $-1 $-1 $107 $3 $-1 $218 forward single #
DXID-attrib $-1 -1 $-1 $108 $63 @18 ASM_EDGE_FROM_STEP @4 3360 #
truecolor-adesk-attrib $-1 -1 $219 $-1 $113 -1037026410 #
vertex $-1 -1 $-1 $127 $220 #
ellipse-curve $-1 -1 $-1 443.96749320568659 -246.32764336364181 -1.5874999052650924 -1.5605570475063504e-13 -9.1050940138742299e-15 1 2.2770095252415947 -2.6382669732154866 3.3131865736065949e-13 1 F -2.3721493417388493e-13 F 4.8570524592080258 #
DXID-attrib $-1 -1 $-1 $116 $73 @18 ASM_EDGE_FROM_STEP @4 3372 #
point $-1 -1 $-1 446.24450273092754 -248.9659103368578 1.5875001901014079 #
coedge $-1 -1 $-1 $169 $169 $221 $222 forward $119 $-1 #
coedge $-1 -1 $-1 $223 $224 $120 $171 reversed $124 $-1 #
edge $225 -1 $-1 $226 -3.1415926535894227 $226 3.1415926535901635 $120 $227 forward @7 unknown #
DXID-attrib $-1 -1 $-1 $122 $80 @18 ASM_FACE_FROM_STEP @24 flexure gripper v26-5272 #
truecolor-adesk-attrib $-1 -1 $228 $-1 $123 -1037026410 #
face $229 -1 $-1 $230 $231 $3 $-1 $232 forward single #
loop $-1 -1 $-1 $-1 $221 $123 #
cone-surface $-1 -1 $-1 428.96750318324456 -246.31215388639481 -1.5874999052677226 -1.5745907618316899e-13 -4.5394956794136205e-15 1 -1.1499993868608254 0.0011875267455966486 -1.8107245029378551e-13 1 I I 0 1 1.1500000000000201 forward I I I I #
edge $233 -1 $-1 $133 -0.85773049236831156 $165 -9.0088217465309784e-13 $126 $234 forward @7 unknown #
truecolor-adesk-attrib $-1 -1 $235 $-1 $127 -1037026410 #
straight-curve $-1 -1 $-1 446.24450273092754 -248.9659103368578 1.5875001901014079 1.5689962932676e-12 6.2481745669271596e-14 -10 F 0 F 0.31750000953671403 #
DXID-attrib $-1 -1 $-1 $128 $84 @18 ASM_EDGE_FROM_STEP @4 3369 #
coedge $-1 -1 $-1 $130 $236 $135 $187 forward $107 $-1 #
truecolor-adesk-attrib $-1 -1 $237 $-1 $131 -1037026410 #
straight-curve $-1 -1 $-1 446.06756783382656 -247.8280378064548 -1.5874999052647827 0.010326319526942801 9.9999946683548302 9.2662372664869195e-14 F -0.58132471986961176 F -0.15272145639396292 #
DXID-attrib $-1 -1 $-1 $132 $86 @18 ASM_EDGE_FROM_STEP @4 3366 #
point $-1 -1 $-1 446.06599078326957 -249.35525155613783 -1.5874999052657626 #
coedge $-1 -1 $-1 $136 $135 $238 $239 forward $137 $-1 #
edge $240 -1 $-1 $241 -3.9596431605414923e-15 $139 0.27218844284364352 $135 $242 forward @7 unknown #
face $243 -1 $-1 $151 $137 $3 $-1 $244 forward single #
DXID-attrib $-1 -1 $-1 $138 $88 @18 ASM_EDGE_FROM_STEP @4 3368 #
point $-1 -1 $-1 446.06156488902059 -253.64128190573379 -1.5874999052666225 #
coedge $-1 -1 $-1 $238 $245 $141 $192 reversed $246 $-1 #
edge $247 -1 $-1 $194 1.8819135432451002 $248 4.4012717639344245 $141 $249 forward @7 unknown #
truecolor-adesk-attrib $-1 -1 $250 $-1 $142 -1037026410 #
vertex $-1 -1 $-1 $142 $251 #
ellipse-curve $-1 -1 $-1 444.01566302427153 -199.68005243901482 1.5875001900995676 -1.9609159097006701e-13 1.0471746494287415e-14 1 16.477516143024658 -51.424619218389573 3.7696079317409034e-12 1 F -0.27218844284366328 F -1.4011045029550207e-14 #
coedge $-1 -1 $-1 $252 $146 $253 $254 forward $107 $-1 #
DXID-attrib $-1 -1 $-1 $147 $95 @18 ASM_EDGE_FROM_STEP @4 3364 #
coedge $-1 -1 $-1 $155 $253 $149 $199 forward $209 $-1 #
edge $255 -1 $-1 $201 0 $158 0.317500009536618 $149 $256 forward @7 unknown #
truecolor-adesk-attrib $-1 -1 $257 $-1 $150 -1037026410 #
vertex $-1 -1 $-1 $199 $258 #
ellipse-curve $-1 -1 $-1 444.01566302427153 -199.68005243901482 -1.5874999052666126 1.9609159097006701e-13 -1.0471746494287415e-14 -1 16.477516143024658 -51.424619218389573 3.7696079317409034e-12 1 F 0.35004605616891615 F 0.62223443290035385 #
truecolor-adesk-attrib $-1 -1 $259 $-1 $151 -1037026410 #
face $260 -1 $-1 $162 $209 $3 $-1 $261 forward single #
cone-surface $-1 -1 $-1 444.01566302427153 -199.68005243901482 -1.5874999052666126 -1.5745907618316902e-13 -4.539495679413626e-15 1 16.477516143024658 -51.424619218389573 2.3610926329165461e-12 1 I I 0 1 54 forward I I I I #
coedge $-1 -1 $-1 $262 $263 $154 $207 reversed $231 $-1 #
edge $264 -1 $-1 $248 -0.62223443290035729 $211 1.1635259133247178e-14 $154 $265 forward @7 unknown #
coedge $-1 -1 $-1 $253 $155 $263 $266 reversed $209 $-1 #
loop $-1 -1 $-1 $-1 $253 $204 #
truecolor-adesk-attrib $-1 -1 $267 $-1 $156 -1037026410 #
vertex $-1 -1 $-1 $207 $268 #
ellipse-curve $-1 -1 $-1 428.96750318324456 -246.31215388639481 1.5875001900984578 -1.5605570475063504e-13 -9.1050940138742504e-15 1 -4.9999973341774151 0.0051631597634636001 -7.8023109668129789e-13 1 F -1.2596791103446323 F 1.2596791103448113 #
DXID-attrib $-1 -1 $-1 $157 $103 @18 ASM_EDGE_FROM_STEP @4 3378 #
point $-1 -1 $-1 427.43197666885357 -251.07053158510979 1.5875001900968475 #
loop $-1 -1 $-1 $-1 $269 $162 #
coedge $-1 -1 $-1 $216 $216 $270 $271 reversed $161 $-1 #
truecolor-adesk-attrib $-1 -1 $272 $-1 $162 -1037026410 #
plane-surface $-1 -1 $-1 443.96752314119658 -246.29865385385082 -1.5874999052650924 1.5605570475063501e-13 9.1050940138742504e-15 -1 -0.99999946683548302 0.0010326319526927201 -1.5604621933625958e-13 forward_v I I I I #
DXID-attrib $-1 -1 $-1 $164 $113 @18 ASM_EDGE_FROM_STEP @4 3373 #
point $-1 -1 $-1 446.24450273092754 -248.9659103368578 -1.5874999052657324 #
coedge $-1 -1 $-1 $273 $274 $169 $222 reversed $175 $-1 #
edge $275 -1 $-1 $276 -3.1415926535894227 $276 3.1415926535901635 $169 $277 forward @7 unknown #
coedge $-1 -1 $-1 $278 $170 $224 $279 forward $124 $-1 #
coedge $-1 -1 $-1 $170 $278 $223 $279 reversed $124 $-1 #
truecolor-adesk-attrib $-1 -1 $280 $-1 $171 -1037026410 #
vertex $-1 -1 $-1 $171 $281 #
ellipse-curve $-1 -1 $-1 458.96748322812653 -246.34313284088682 1.5875001901031376 1.5605570475063506e-13 9.1050940138742504e-15 -1 -1.1499993868608254 0.0011875267455966486 -1.7945315223670166e-13 1 I I #
DXID-attrib $-1 -1 $-1 $173 $123 @18 ASM_FACE_FROM_STEP @24 flexure gripper v26-5273 #
truecolor-adesk-attrib $-1 -1 $282 $-1 $174 -1037026410 #
face $283 -1 $-1 $188 $246 $3 $-1 $284 forward single #
loop $-1 -1 $-1 $-1 $285 $174 #
cone-surface $-1 -1 $-1 443.91932338709756 -292.97523428826781 -1.5874999052674827 -1.5745907618316902e-13 -4.5394956794136189e-15 1 -16.47751614302156 51.424619218390674 -2.3610926329160541e-12 1 I I 0 1 54.000000000000099 forward I I I I #
truecolor-adesk-attrib $-1 -1 $286 $-1 $177 -1037026410 #
ellipse-curve $-1 -1 $-1 446.58099050868952 -249.35578336159378 -1.5874999052647027 1.5605570475063504e-13 9.1050940138742457e-15 -1 -0.33648777776165772 0.38987302473628022 -4.8961006754873201e-14 1 F -0.85773049236831156 F -9.0088217465309784e-13 #
DXID-attrib $-1 -1 $-1 $178 $127 @18 ASM_EDGE_FROM_STEP @4 3370 #
coedge $-1 -1 $-1 $181 $252 $287 $288 forward $107 $-1 #
DXID-attrib $-1 -1 $-1 $182 $131 @18 ASM_EDGE_FROM_STEP @4 3367 #
coedge $-1 -1 $-1 $287 $191 $186 $239 reversed $246 $-1 #
edge $289 -1 $-1 $241 0 $194 0.31750000953661905 $238 $290 forward @7 unknown #
truecolor-adesk-attrib $-1 -1 $291 $-1 $187 -1037026410 #
vertex $-1 -1 $-1 $288 $292 #
ellipse-curve $-1 -1 $-1 444.01566302427153 -199.68005243901482 -1.5874999052666126 1.9609159097006701e-13 -1.0471746494287415e-14 -1 16.477516143024658 -51.424619218389573 3.7696079317409034e-12 1 F -3.9596431605414923e-15 F 0.27218844284364352 #
truecolor-adesk-attrib $-1 -1 $293 $-1 $188 -1037026410 #
cone-surface $-1 -1 $-1 444.01566302427153 -199.68005243901482 -1.5874999052666126 -1.5745907618316902e-13 -4.539495679413626e-15 1 16.477516143024658 -51.424619218389573 2.3610926329165461e-12 1 I I 0 1 54 forward I I I I #
coedge $-1 -1 $-1 $191 $287 $262 $294 forward $246 $-1 #
loop $-1 -1 $-1 $-1 $287 $230 #
truecolor-adesk-attrib $-1 -1 $295 $-1 $192 -1037026410 #
vertex $-1 -1 $-1 $192 $296 #
ellipse-curve $-1 -1 $-1 458.96748322812653 -246.34313284088682 1.5875001901031376 -1.5605570475063504e-13 -9.1050940138742504e-15 1 -4.9999973341774151 0.0051631597634636001 -7.8023109668129789e-13 1 F 1.8819135432451002 F 4.4012717639344245 #
DXID-attrib $-1 -1 $-1 $193 $142 @18 ASM_EDGE_FROM_STEP @4 3374 #
point $-1 -1 $-1 460.49317916729552 -251.10467165740482 1.5875001901033376 #
coedge $-1 -1 $-1 $236 $196 $285 $297 forward $107 $-1 #
coedge $-1 -1 $-1 $198 $208 $196 $254 reversed $209 $-1 #
edge $298 -1 $-1 $201 -1.2596791103450045 $299 1.2596791103448257 $253 $300 forward @7 unknown #
truecolor-adesk-attrib $-1 -1 $301 $-1 $199 -1037026410 #
straight-curve $-1 -1 $-1 427.43197666885459 -251.07053158510979 -1.5874999052693324 -1.5745907618316899e-12 -4.5394956794136195e-14 10 F 0 F 0.317500009536618 #
DXID-attrib $-1 -1 $-1 $200 $150 @18 ASM_EDGE_FROM_STEP @4 3396 #
point $-1 -1 $-1 427.43197666885459 -251.07053158510979 -1.5874999052693324 #
DXID-attrib $-1 -1 $-1 $203 $151 @18 ASM_FACE_FROM_STEP @24 flexure gripper v26-5277 #
truecolor-adesk-attrib $-1 -1 $302 $-1 $204 -1037026410 #
cone-surface $-1 -1 $-1 428.96750318324456 -246.31215388639481 -1.5874999052677226 -1.5745907618316902e-13 -4.5394956794136197e-15 1 -4.9999973341774151 0.0051631597634636001 -7.8727152301644523e-13 1 I I 0 1 5 forward I I I I #
coedge $-1 -1 $-1 $285 $206 $245 $294 reversed $231 $-1 #
coedge $-1 -1 $-1 $206 $285 $208 $266 forward $231 $-1 #
truecolor-adesk-attrib $-1 -1 $303 $-1 $207 -1037026410 #
ellipse-curve $-1 -1 $-1 443.91932338709756 -292.97523428826781 1.5875001900986978 -1.6859211298405702e-13 -4.5527189648648702e-14 1 -16.47751614302156 51.424619218390674 -4.3676087151569741e-13 1 F -0.62223443290035729 F 1.1635259133247178e-14 #
edge $304 -1 $-1 $299 0 $211 0.317500009536619 $263 $305 forward @7 unknown #
DXID-attrib $-1 -1 $-1 $210 $156 @18 ASM_EDGE_FROM_STEP @4 3377 #
point $-1 -1 $-1 427.44180724407556 -241.55061506987778 1.5875001900982677 #
coedge $-1 -1 $-1 $269 $269 $278 $306 reversed $215 $-1 #
coedge $-1 -1 $-1 $274 $273 $216 $271 forward $175 $-1 #
edge $307 -1 $-1 $308 -3.1415926535894227 $308 3.1415926535901635 $270 $309 forward @7 unknown #
DXID-attrib $-1 -1 $-1 $217 $162 @18 ASM_FACE_FROM_STEP @24 flexure gripper v26-5279 #
coedge $-1 -1 $-1 $270 $221 $274 $310 forward $175 $-1 #
coedge $-1 -1 $-1 $221 $270 $273 $310 reversed $175 $-1 #
truecolor-adesk-attrib $-1 -1 $311 $-1 $222 -1037026410 #
vertex $-1 -1 $-1 $222 $312 #
ellipse-curve $-1 -1 $-1 428.96750318324456 -246.31215388639481 1.5875001900984578 1.5605570475063506e-13 9.1050940138742504e-15 -1 -1.1499993868608254 0.0011875267455966486 -1.7945315223670166e-13 1 I I #
coedge $-1 -1 $-1 $224 $223 $269 $306 forward $124 $-1 #
edge $313 -1 $-1 $226 -2.7608696481444657 $314 8.6887019318489012e-15 $223 $315 forward @7 unknown #
DXID-attrib $-1 -1 $316 $225 $171 @18 ASM_EDGE_FROM_STEP @4 3380 #
point $-1 -1 $-1 460.11748261498758 -246.34432036763283 1.5875001901033277 #
DXID-attrib $-1 -1 $-1 $229 $174 @18 ASM_FACE_FROM_STEP @24 flexure gripper v26-5274 #
truecolor-adesk-attrib $-1 -1 $317 $-1 $230 -1037026410 #
cone-surface $-1 -1 $-1 458.96748322812761 -246.34313284088682 -1.5874999052630427 -1.5745907618316902e-13 -4.5394956794136197e-15 1 4.9999973341774151 -0.0051631597634619998 7.8727152301644523e-13 1 I I 0 1 5 forward I I I I #
coedge $-1 -1 $-1 $263 $262 $252 $297 reversed $231 $-1 #
DXID-attrib $-1 -1 $-1 $233 $177 @18 ASM_EDGE_FROM_STEP @4 3371 #
coedge $-1 -1 $-1 $245 $238 $236 $288 reversed $246 $-1 #
edge $318 -1 $-1 $319 1.8819135432451617 $241 4.4012717639345018 $287 $320 forward @7 unknown #
truecolor-adesk-attrib $-1 -1 $321 $-1 $239 -1037026410 #
straight-curve $-1 -1 $-1 460.49317916729655 -251.10467165740482 -1.5874999052628525 -1.5745907618316899e-12 -4.5394956794136195e-14 10 F 0 F 0.31750000953661905 #
DXID-attrib $-1 -1 $-1 $240 $187 @18 ASM_EDGE_FROM_STEP @4 3394 #
point $-1 -1 $-1 460.49317916729655 -251.10467165740482 -1.5874999052628525 #
DXID-attrib $-1 -1 $-1 $243 $188 @18 ASM_FACE_FROM_STEP @24 flexure gripper v26-5276 #
edge $322 -1 $-1 $319 0 $248 0.317500009536618 $262 $323 forward @7 unknown #
DXID-attrib $-1 -1 $-1 $247 $192 @18 ASM_EDGE_FROM_STEP @4 3375 #
point $-1 -1 $-1 460.50300974251752 -241.58475514217483 1.5875001901038375 #
edge $324 -1 $-1 $299 6.2135938826743404e-15 $319 0.62223443290037672 $285 $325 forward @7 unknown #
truecolor-adesk-attrib $-1 -1 $326 $-1 $254 -1037026410 #
vertex $-1 -1 $-1 $297 $327 #
ellipse-curve $-1 -1 $-1 428.96750318324456 -246.31215388639481 -1.5874999052677226 1.5605570475063504e-13 9.1050940138742504e-15 -1 -4.9999973341774151 0.0051631597634636001 -7.8023109668129789e-13 1 F -1.2596791103450045 F 1.2596791103448257 #
DXID-attrib $-1 -1 $-1 $255 $199 @18 ASM_EDGE_FROM_STEP @4 3395 #
DXID-attrib $-1 -1 $-1 $260 $204 @18 ASM_FACE_FROM_STEP @24 flexure gripper v26-5278 #
DXID-attrib $-1 -1 $-1 $264 $207 @18 ASM_EDGE_FROM_STEP @4 3376 #
truecolor-adesk-attrib $-1 -1 $328 $-1 $266 -1037026410 #
straight-curve $-1 -1 $-1 427.44180724407653 -241.55061506987778 -1.5874999052679224 -1.5745907618316899e-12 -4.5394956794136195e-14 10 F 0 F 0.317500009536619 #
edge $329 -1 $-1 $314 -3.1415926535894227 $314 3.1415926535901635 $278 $330 forward @7 unknown #
truecolor-adesk-attrib $-1 -1 $331 $-1 $271 -1037026410 #
vertex $-1 -1 $-1 $310 $332 #
ellipse-curve $-1 -1 $-1 428.96750318324456 -246.31215388639481 -1.5874999052677226 1.5605570475063506e-13 9.1050940138742504e-15 -1 -1.1499993868608254 0.0011875267455966486 -1.7945315223670166e-13 1 I I #
edge $333 -1 $-1 $276 -2.7608696481444657 $308 8.6887019318489012e-15 $273 $334 forward @7 unknown #
DXID-attrib $-1 -1 $335 $275 $222 @18 ASM_EDGE_FROM_STEP @4 3382 #
point $-1 -1 $-1 430.1175025701055 -246.31334141314082 1.5875001900986478 #
truecolor-adesk-attrib $-1 -1 $336 $-1 $279 -1037026410 #
vertex $-1 -1 $-1 $279 $337 #
straight-curve $-1 -1 $-1 460.11748261498855 -246.34432036763283 -1.5874999052628627 1.8107793761064749e-13 5.2204200313257538e-15 -1.1500000000000199 F -2.7608696481444657 F 8.6887019318489012e-15 #
DXID-attrib $-1 -1 $-1 $280 $171 @18 ASM_EDGE_FROM_STEP @4 3379 #
DXID-attrib $-1 -1 $-1 $283 $230 @18 ASM_FACE_FROM_STEP @24 flexure gripper v26-5275 #
truecolor-adesk-attrib $-1 -1 $338 $-1 $288 -1037026410 #
vertex $-1 -1 $-1 $297 $339 #
ellipse-curve $-1 -1 $-1 458.96748322812761 -246.34313284088682 -1.5874999052630427 1.5605570475063504e-13 9.1050940138742504e-15 -1 -4.9999973341774151 0.0051631597634636001 -7.8023109668129789e-13 1 F 1.8819135432451617 F 4.4012717639345018 #
DXID-attrib $-1 -1 $-1 $289 $239 @18 ASM_EDGE_FROM_STEP @4 3393 #
truecolor-adesk-attrib $-1 -1 $340 $-1 $294 -1037026410 #
straight-curve $-1 -1 $-1 460.5030097425186 -241.58475514217483 -1.5874999052623424 -1.5745907618316899e-12 -4.5394956794136195e-14 10 F 0 F 0.317500009536618 #
truecolor-adesk-attrib $-1 -1 $341 $-1 $297 -1037026410 #
ellipse-curve $-1 -1 $-1 443.91932338709756 -292.97523428826781 -1.5874999052674827 1.6859211298405702e-13 4.5527189648648702e-14 -1 -16.47751614302156 51.424619218390674 -4.3676087151569741e-13 1 F 6.2135938826743404e-15 F 0.62223443290037672 #
DXID-attrib $-1 -1 $-1 $298 $254 @18 ASM_EDGE_FROM_STEP @4 3397 #
point $-1 -1 $-1 427.44180724407653 -241.55061506987778 -1.5874999052679224 #
DXID-attrib $-1 -1 $-1 $304 $266 @18 ASM_EDGE_FROM_STEP @4 3390 #
truecolor-adesk-attrib $-1 -1 $342 $-1 $306 -1037026410 #
ellipse-curve $-1 -1 $-1 458.96748322812761 -246.34313284088682 -1.5874999052630427 1.5605570475063506e-13 9.1050940138742504e-15 -1 -1.1499993868608254 0.0011875267455966486 -1.7945315223670166e-13 1 I I #
DXID-attrib $-1 -1 $343 $307 $271 @18 ASM_EDGE_FROM_STEP @4 3388 #
point $-1 -1 $-1 430.1175025701055 -246.31334141314082 -1.5874999052675527 #
truecolor-adesk-attrib $-1 -1 $344 $-1 $310 -1037026410 #
straight-curve $-1 -1 $-1 430.1175025701055 -246.31334141314082 -1.5874999052675427 1.8107793761064749e-13 5.2204200313257538e-15 -1.1500000000000199 F -2.7608696481444657 F 8.6887019318489012e-15 #
DXID-attrib $-1 -1 $-1 $311 $222 @18 ASM_EDGE_FROM_STEP @4 3381 #
DXID-attrib $-1 -1 $-1 $313 $279 @18 ASM_EDGE_FROM_STEP @4 3383 #
point $-1 -1 $-1 460.11748261498855 -246.34432036763283 -1.5874999052628724 #
DXID-attrib $-1 -1 $-1 $318 $288 @18 ASM_EDGE_FROM_STEP @4 3392 #
point $-1 -1 $-1 460.5030097425186 -241.58475514217483 -1.5874999052623424 #
DXID-attrib $-1 -1 $-1 $322 $294 @18 ASM_EDGE_FROM_STEP @4 3391 #
DXID-attrib $-1 -1 $-1 $324 $297 @18 ASM_EDGE_FROM_STEP @4 3389 #
DXID-attrib $-1 -1 $345 $329 $306 @18 ASM_EDGE_FROM_STEP @4 3385 #
DXID-attrib $-1 -1 $-1 $331 $271 @18 ASM_EDGE_FROM_STEP @4 3387 #
DXID-attrib $-1 -1 $-1 $333 $310 @18 ASM_EDGE_FROM_STEP @4 3386 #
DXID-attrib $-1 -1 $-1 $342 $306 @18 ASM_EDGE_FROM_STEP @4 3384 #
