700 373 1 0         
5 ZWCAD 12 ACIS 28.0 NT 24 Sat May 11 15:13:59 2024 
1 9.9999999999999995e-07 1e-10 
body $1 -1 $-1 $2 $-1 $-1 #
DXID-attrib $-1 -1 $-1 $-1 $0 @18 ASM_BODY_FROM_STEP @83 1D6190C785C8FB6C95F977F75980EE0F923D70A8|:|A672822C3EDBA077218AE37043297185481572B2 #
lump $-1 -1 $-1 $-1 $3 $0 #
shell $-1 -1 $-1 $-1 $-1 $4 $-1 $2 #
face $5 -1 $-1 $6 $7 $3 $-1 $8 forward single #
truecolor-adesk-attrib $-1 -1 $9 $-1 $4 -1038542567 #
face $10 -1 $-1 $11 $12 $3 $-1 $13 forward single #
loop $-1 -1 $-1 $-1 $14 $4 #
cone-surface $-1 -1 $-1 480.29428100877885 -223.08606383120332 -3.7464999052371102 -1.7350992835624277e-13 4.7261769339276424e-14 0.99999999999999989 0.37256701520078911 1.1341747039959826 1.1040972864687873e-14 1 I I 0.36469189821678666 0.93112825076626093 1.1938 forward I I I I #
fmesh-eye-attrib $-1 -1 $15 $5 $4 #
truecolor-adesk-attrib $-1 -1 $16 $-1 $6 -1038542567 #
face $17 -1 $-1 $18 $19 $3 $-1 $20 forward single #
loop $-1 -1 $-1 $-1 $21 $6 #
cone-surface $-1 -1 $-1 480.29428100877738 -223.08606383120292 4.7625000947628884 -1.7350992835624277e-13 4.7261769339276424e-14 0.99999999999999989 0.24837801013385952 0.75611646933065546 7.3606485764585853e-15 1 I I 0 1 0.79586666666666706 forward I I I I #
coedge $-1 -1 $-1 $22 $23 $24 $25 reversed $7 $-1 #
DXID-attrib $-1 -1 $-1 $9 $4 @18 ASM_FACE_FROM_STEP @24 flexure gripper v26-5088 #
fmesh-eye-attrib $-1 -1 $26 $10 $6 #
truecolor-adesk-attrib $-1 -1 $27 $-1 $11 -1038542567 #
face $28 -1 $-1 $29 $30 $3 $-1 $31 forward single #
loop $-1 -1 $-1 $-1 $32 $11 #
cone-surface $-1 -1 $-1 480.29428100877857 -223.08606383120323 -1.9684999052371106 -1.7350992835624277e-13 4.7261769339276424e-14 0.99999999999999989 0.37256701520078911 1.1341747039959826 1.1040972864687873e-14 1 I I 0.36469189821678666 0.93112825076626093 1.1938 forward I I I I #
coedge $-1 -1 $-1 $33 $34 $35 $36 reversed $12 $-1 #
coedge $-1 -1 $-1 $37 $14 $23 $38 forward $7 $-1 #
coedge $-1 -1 $-1 $14 $37 $22 $38 reversed $7 $-1 #
coedge $-1 -1 $-1 $24 $24 $14 $25 forward $39 $-1 #
edge $40 -1 $-1 $41 -3.1415926535897931 $41 3.1415926535897931 $14 $42 forward @7 unknown #
DXID-attrib $-1 -1 $-1 $16 $6 @18 ASM_FACE_FROM_STEP @24 flexure gripper v26-5089 #
fmesh-eye-attrib $-1 -1 $43 $17 $11 #
truecolor-adesk-attrib $-1 -1 $44 $-1 $18 -1038542567 #
face $45 -1 $-1 $46 $47 $3 $-1 $48 forward single #
loop $-1 -1 $-1 $-1 $49 $18 #
cone-surface $-1 -1 $-1 480.29428100877823 -223.08606383120315 -0.19049990523711191 -1.7350992835624277e-13 4.7261769339276424e-14 0.99999999999999989 0.37256701520078911 1.1341747039959826 1.1040972864687873e-14 1 I I 0.36469189821678666 0.93112825076626093 1.1938 forward I I I I #
coedge $-1 -1 $-1 $50 $51 $52 $53 reversed $19 $-1 #
coedge $-1 -1 $-1 $54 $21 $34 $55 forward $12 $-1 #
coedge $-1 -1 $-1 $21 $54 $33 $55 reversed $12 $-1 #
coedge $-1 -1 $-1 $51 $50 $21 $36 forward $19 $-1 #
edge $56 -1 $-1 $57 -3.1415926535897931 $57 3.1415926535897931 $21 $58 forward @7 unknown #
coedge $-1 -1 $-1 $23 $22 $59 $60 forward $7 $-1 #
edge $61 -1 $-1 $41 0 $62 0.91401354119248435 $22 $63 forward @7 unknown #
loop $-1 -1 $-1 $64 $24 $65 #
truecolor-adesk-attrib $-1 -1 $66 $-1 $25 -1038542567 #
vertex $-1 -1 $-1 $25 $67 #
ellipse-curve $-1 -1 $-1 480.29428100877885 -223.08606383120332 -3.7464999052371102 -1.7350992835624277e-13 4.7261769339276424e-14 0.99999999999999989 0.37256701520078911 1.1341747039959826 1.1040972864687873e-14 1 I I #
DXID-attrib $-1 -1 $-1 $27 $11 @18 ASM_FACE_FROM_STEP @24 flexure gripper v26-5090 #
fmesh-eye-attrib $-1 -1 $68 $28 $18 #
truecolor-adesk-attrib $-1 -1 $69 $-1 $29 -1038542567 #
face $70 -1 $-1 $71 $72 $3 $-1 $73 forward single #
loop $-1 -1 $-1 $-1 $74 $29 #
cone-surface $-1 -1 $-1 480.29428100877794 -223.08606383120306 1.587500094762889 -1.7350992835624277e-13 4.7261769339276424e-14 0.99999999999999989 0.37256701520078911 1.1341747039959826 1.1040972864687873e-14 1 I I 0.36469189821678666 0.93112825076626093 1.1938 forward I I I I #
coedge $-1 -1 $-1 $75 $76 $77 $78 reversed $30 $-1 #
coedge $-1 -1 $-1 $35 $32 $51 $79 forward $19 $-1 #
coedge $-1 -1 $-1 $32 $35 $50 $79 reversed $19 $-1 #
coedge $-1 -1 $-1 $52 $52 $32 $53 forward $80 $-1 #
edge $81 -1 $-1 $82 -3.1415926535897931 $82 3.1415926535897931 $32 $83 forward @7 unknown #
coedge $-1 -1 $-1 $34 $33 $84 $85 reversed $12 $-1 #
edge $86 -1 $-1 $57 9.7340425531914843 $87 10.691489361702123 $33 $88 forward @7 unknown #
truecolor-adesk-attrib $-1 -1 $89 $-1 $36 -1038542567 #
vertex $-1 -1 $-1 $36 $90 #
ellipse-curve $-1 -1 $-1 480.29428100877874 -223.08606383120329 -2.9844999052371115 -1.7350992835624277e-13 4.7261769339276424e-14 0.99999999999999989 0.24837801013385952 0.75611646933065546 7.3606485764585853e-15 1 I I #
coedge $-1 -1 $-1 $59 $59 $37 $60 reversed $91 $-1 #
edge $92 -1 $-1 $62 -3.1415926535897931 $62 3.1415926535897931 $37 $93 forward @7 unknown #
truecolor-adesk-attrib $-1 -1 $94 $-1 $38 -1038542567 #
vertex $-1 -1 $-1 $38 $95 #
straight-curve $-1 -1 $-1 479.92171399357807 -224.22023853519931 -3.7464999052371208 0.13587217198673116 0.41362432570970498 -1.1115809057647581 F 0 F 0.91401354119248435 #
loop $-1 -1 $-1 $-1 $84 $65 #
face $96 -1 $-1 $97 $39 $3 $-1 $98 forward single #
DXID-attrib $-1 -1 $99 $40 $25 @18 ASM_EDGE_FROM_STEP @4 2860 #
point $-1 -1 $-1 479.92171399357807 -224.22023853519931 -3.7464999052371208 #
DXID-attrib $-1 -1 $-1 $44 $18 @18 ASM_FACE_FROM_STEP @24 flexure gripper v26-5091 #
fmesh-eye-attrib $-1 -1 $100 $45 $29 #
truecolor-adesk-attrib $-1 -1 $101 $-1 $46 -1038542567 #
face $102 -1 $-1 $103 $104 $3 $-1 $105 forward single #
loop $-1 -1 $-1 $-1 $106 $46 #
cone-surface $-1 -1 $-1 480.2942810087776 -223.08606383120298 3.3655000947628881 -1.7350992835624277e-13 4.7261769339276424e-14 0.99999999999999989 0.37256701520078911 1.1341747039959826 1.1040972864687873e-14 1 I I 0.36469189821678666 0.93112825076626093 1.1938 forward I I I I #
coedge $-1 -1 $-1 $107 $108 $109 $110 reversed $47 $-1 #
coedge $-1 -1 $-1 $111 $49 $76 $112 forward $30 $-1 #
coedge $-1 -1 $-1 $49 $111 $75 $112 reversed $30 $-1 #
coedge $-1 -1 $-1 $77 $77 $49 $78 forward $113 $-1 #
edge $114 -1 $-1 $115 -3.1415926535897931 $115 3.1415926535897931 $49 $116 forward @7 unknown #
edge $117 -1 $-1 $82 0 $57 0.91401354119248401 $50 $118 forward @7 unknown #
loop $-1 -1 $-1 $119 $52 $120 #
truecolor-adesk-attrib $-1 -1 $121 $-1 $53 -1038542567 #
vertex $-1 -1 $-1 $53 $122 #
ellipse-curve $-1 -1 $-1 480.29428100877857 -223.08606383120323 -1.9684999052371106 -1.7350992835624277e-13 4.7261769339276424e-14 0.99999999999999989 0.37256701520078911 1.1341747039959826 1.1040972864687873e-14 1 I I #
coedge $-1 -1 $-1 $84 $84 $54 $85 forward $64 $-1 #
edge $123 -1 $-1 $87 -3.1415926535897931 $87 3.1415926535897931 $54 $124 forward @7 unknown #
truecolor-adesk-attrib $-1 -1 $125 $-1 $55 -1038542567 #
vertex $-1 -1 $-1 $55 $126 #
straight-curve $-1 -1 $-1 480.0459029986435 -223.84218030053358 4.7625000947628813 1.3809076831445516e-13 -3.7614066824818817e-14 -0.79586666666666694 F 9.7340425531914843 F 10.691489361702123 #
DXID-attrib $-1 -1 $127 $56 $36 @18 ASM_EDGE_FROM_STEP @4 2865 #
point $-1 -1 $-1 480.04590299864486 -223.84218030053395 -2.9844999052371186 #
loop $-1 -1 $-1 $-1 $59 $97 #
truecolor-adesk-attrib $-1 -1 $128 $-1 $60 -1038542567 #
ellipse-curve $-1 -1 $-1 480.29428100877902 -223.08606383120338 -4.762499905237112 -1.7350992835624277e-13 4.7261769339276424e-14 0.99999999999999989 0.24837801013385952 0.75611646933065546 7.3606485764585853e-15 1 I I #
DXID-attrib $-1 -1 $-1 $61 $38 @18 ASM_EDGE_FROM_STEP @4 2861 #
point $-1 -1 $-1 480.04590299864515 -223.84218030053404 -4.7624999052371191 #
truecolor-adesk-attrib $-1 -1 $129 $-1 $65 -1038542567 #
face $130 -1 $-1 $-1 $91 $3 $-1 $131 forward single #
plane-surface $-1 -1 $-1 480.66684802397964 -221.95188912720735 -3.7464999052370995 -1.7350992835624277e-13 4.7261769339276424e-14 0.99999999999999989 0.31208495158384075 0.95005420003014129 9.2485951287383753e-15 forward_v I I I I #
DXID-attrib $-1 -1 $-1 $66 $25 @18 ASM_EDGE_FROM_STEP @4 2859 #
DXID-attrib $-1 -1 $-1 $69 $29 @18 ASM_FACE_FROM_STEP @24 flexure gripper v26-5092 #
fmesh-eye-attrib $-1 -1 $132 $70 $46 #
truecolor-adesk-attrib $-1 -1 $133 $-1 $71 -1038542567 #
face $134 -1 $-1 $135 $136 $3 $-1 $137 forward single #
loop $-1 -1 $-1 $-1 $138 $71 #
cone-surface $-1 -1 $-1 480.29428100877732 -223.08606383120289 5.1435000947628859 -1.7350992835624277e-13 4.7261769339276424e-14 0.99999999999999989 0.37256701520078911 1.1341747039959826 1.1040972864687873e-14 1 I I 0.36469189821678666 0.93112825076626093 1.1938 forward I I I I #
coedge $-1 -1 $-1 $139 $140 $141 $142 reversed $72 $-1 #
coedge $-1 -1 $-1 $143 $74 $108 $144 forward $47 $-1 #
coedge $-1 -1 $-1 $74 $143 $107 $144 reversed $47 $-1 #
coedge $-1 -1 $-1 $109 $109 $74 $110 forward $145 $-1 #
edge $146 -1 $-1 $147 -3.1415926535897931 $147 3.1415926535897931 $74 $148 forward @7 unknown #
coedge $-1 -1 $-1 $76 $75 $149 $150 forward $30 $-1 #
edge $151 -1 $-1 $115 0 $152 0.91401354119248435 $75 $153 forward @7 unknown #
loop $-1 -1 $-1 $154 $77 $155 #
truecolor-adesk-attrib $-1 -1 $156 $-1 $78 -1038542567 #
vertex $-1 -1 $-1 $78 $157 #
ellipse-curve $-1 -1 $-1 480.29428100877823 -223.08606383120315 -0.19049990523711191 -1.7350992835624277e-13 4.7261769339276424e-14 0.99999999999999989 0.37256701520078911 1.1341747039959826 1.1040972864687873e-14 1 I I #
truecolor-adesk-attrib $-1 -1 $158 $-1 $79 -1038542567 #
straight-curve $-1 -1 $-1 479.92171399357778 -224.22023853519923 -1.9684999052371221 0.13587217198673116 0.41362432570970498 -1.1115809057647581 F 0 F 0.91401354119248401 #
loop $-1 -1 $-1 $-1 $159 $120 #
face $160 -1 $-1 $65 $80 $3 $-1 $161 forward single #
DXID-attrib $-1 -1 $162 $81 $53 @18 ASM_EDGE_FROM_STEP @4 2870 #
point $-1 -1 $-1 479.92171399357778 -224.22023853519923 -1.9684999052371221 #
truecolor-adesk-attrib $-1 -1 $163 $-1 $85 -1038542567 #
ellipse-curve $-1 -1 $-1 480.29428100877885 -223.08606383120332 -3.7464999052371102 1.7350992835624277e-13 -4.7261769339276424e-14 -0.99999999999999989 0.24837801013385952 0.75611646933065546 7.3606485764585853e-15 1 I I #
DXID-attrib $-1 -1 $-1 $86 $55 @18 ASM_EDGE_FROM_STEP @4 2866 #
point $-1 -1 $-1 480.04590299864498 -223.84218030053398 -3.7464999052371173 #
DXID-attrib $-1 -1 $-1 $89 $36 @18 ASM_EDGE_FROM_STEP @4 2864 #
DXID-attrib $-1 -1 $164 $92 $60 @18 ASM_EDGE_FROM_STEP @4 2863 #
fmesh-eye-attrib $-1 -1 $165 $96 $65 #
truecolor-adesk-attrib $-1 -1 $166 $-1 $97 -1038542567 #
plane-surface $-1 -1 $-1 480.5426590189129 -222.32994736187271 -4.7624999052371049 1.7350992835624277e-13 -4.7261769339276424e-14 -0.99999999999999989 -0.31208495158384075 -0.95005420003014129 -9.2485951287383753e-15 forward_v I I I I #
DXID-attrib $-1 -1 $-1 $101 $46 @18 ASM_FACE_FROM_STEP @24 flexure gripper v26-5093 #
fmesh-eye-attrib $-1 -1 $167 $102 $71 #
truecolor-adesk-attrib $-1 -1 $168 $-1 $103 -1038542567 #
face $169 -1 $-1 $170 $171 $3 $-1 $172 forward single #
loop $-1 -1 $-1 $-1 $173 $103 #
cone-surface $-1 -1 $-1 480.29428100877738 -223.08606383120292 4.7625000947628884 -1.7350992835624277e-13 4.7261769339276424e-14 0.99999999999999989 1.4030715253306312 4.2712536724955088 4.157983397978199e-14 1 I I 0 1 4.4958 forward I I I I #
coedge $-1 -1 $-1 $174 $175 $176 $177 forward $104 $-1 #
coedge $-1 -1 $-1 $178 $106 $140 $179 forward $72 $-1 #
coedge $-1 -1 $-1 $106 $178 $139 $179 reversed $72 $-1 #
coedge $-1 -1 $-1 $141 $141 $106 $142 forward $180 $-1 #
edge $181 -1 $-1 $182 -3.1415926535897931 $182 3.1415926535897931 $106 $183 forward @7 unknown #
coedge $-1 -1 $-1 $108 $107 $184 $185 forward $47 $-1 #
edge $186 -1 $-1 $147 0 $187 0.91401354119248435 $107 $188 forward @7 unknown #
loop $-1 -1 $-1 $189 $109 $190 #
truecolor-adesk-attrib $-1 -1 $191 $-1 $110 -1038542567 #
vertex $-1 -1 $-1 $110 $192 #
ellipse-curve $-1 -1 $-1 480.29428100877794 -223.08606383120306 1.587500094762889 -1.7350992835624277e-13 4.7261769339276424e-14 0.99999999999999989 0.37256701520078911 1.1341747039959826 1.1040972864687873e-14 1 I I #
coedge $-1 -1 $-1 $193 $194 $111 $150 reversed $195 $-1 #
edge $196 -1 $-1 $152 -3.1415926535897931 $152 3.1415926535897931 $111 $197 forward @7 unknown #
truecolor-adesk-attrib $-1 -1 $198 $-1 $112 -1038542567 #
vertex $-1 -1 $-1 $112 $199 #
straight-curve $-1 -1 $-1 479.92171399357744 -224.22023853519914 -0.19049990523712346 0.13587217198673116 0.41362432570970498 -1.1115809057647581 F 0 F 0.91401354119248435 #
loop $-1 -1 $-1 $-1 $200 $155 #
face $201 -1 $-1 $120 $113 $3 $-1 $202 forward single #
DXID-attrib $-1 -1 $203 $114 $78 @18 ASM_EDGE_FROM_STEP @4 2873 #
point $-1 -1 $-1 479.92171399357744 -224.22023853519914 -0.19049990523712346 #
DXID-attrib $-1 -1 $-1 $117 $79 @18 ASM_EDGE_FROM_STEP @4 2871 #
coedge $-1 -1 $-1 $159 $159 $204 $205 forward $119 $-1 #
truecolor-adesk-attrib $-1 -1 $206 $-1 $120 -1038542567 #
plane-surface $-1 -1 $-1 480.66684802397936 -221.95188912720727 -1.9684999052370991 -1.7350992835624277e-13 4.7261769339276424e-14 0.99999999999999989 0.31208495158384075 0.95005420003014129 9.2485951287383753e-15 forward_v I I I I #
DXID-attrib $-1 -1 $-1 $121 $53 @18 ASM_EDGE_FROM_STEP @4 2869 #
DXID-attrib $-1 -1 $207 $123 $85 @18 ASM_EDGE_FROM_STEP @4 2868 #
DXID-attrib $-1 -1 $-1 $128 $60 @18 ASM_EDGE_FROM_STEP @4 2862 #
DXID-attrib $-1 -1 $-1 $129 $65 @18 ASM_FACE_FROM_STEP @24 flexure gripper v26-5106 #
fmesh-eye-attrib $-1 -1 $208 $130 $97 #
DXID-attrib $-1 -1 $-1 $133 $71 @18 ASM_FACE_FROM_STEP @24 flexure gripper v26-5094 #
fmesh-eye-attrib $-1 -1 $209 $134 $103 #
truecolor-adesk-attrib $-1 -1 $210 $-1 $135 -1038542567 #
face $211 -1 $-1 $212 $213 $3 $-1 $214 forward single #
loop $-1 -1 $-1 $-1 $215 $135 #
sphere-surface $-1 -1 $-1 480.29428100877942 -223.08606383120346 -6.8911837762048105 13.228483870967702 -0.31208495158384081 -0.95005420003014129 -9.1982888132704754e-15 0.95005420003014129 -0.31208495158384081 1.7959352317779208e-13 forward_v I I I I #
coedge $-1 -1 $-1 $216 $217 $215 $218 reversed $136 $-1 #
coedge $-1 -1 $-1 $219 $138 $175 $220 forward $104 $-1 #
coedge $-1 -1 $-1 $138 $219 $174 $220 reversed $104 $-1 #
coedge $-1 -1 $-1 $176 $176 $138 $177 reversed $221 $-1 #
edge $222 -1 $-1 $223 -6.2831853071795862 $223 -1.2246467991473567e-16 $138 $224 forward @7 unknown #
coedge $-1 -1 $-1 $140 $139 $225 $226 forward $72 $-1 #
edge $227 -1 $-1 $182 0 $228 0.9140135411924839 $139 $229 forward @7 unknown #
loop $-1 -1 $-1 $230 $141 $231 #
truecolor-adesk-attrib $-1 -1 $232 $-1 $142 -1038542567 #
vertex $-1 -1 $-1 $142 $233 #
ellipse-curve $-1 -1 $-1 480.2942810087776 -223.08606383120298 3.3655000947628881 -1.7350992835624277e-13 4.7261769339276424e-14 0.99999999999999989 0.37256701520078911 1.1341747039959826 1.1040972864687873e-14 1 I I #
coedge $-1 -1 $-1 $234 $235 $143 $185 reversed $236 $-1 #
edge $237 -1 $-1 $187 -3.1415926535897931 $187 3.1415926535897931 $143 $238 forward @7 unknown #
truecolor-adesk-attrib $-1 -1 $239 $-1 $144 -1038542567 #
vertex $-1 -1 $-1 $144 $240 #
straight-curve $-1 -1 $-1 479.92171399357716 -224.22023853519906 1.5875000947628779 0.13587217198673116 0.41362432570970498 -1.1115809057647581 F 0 F 0.91401354119248435 #
loop $-1 -1 $-1 $-1 $241 $190 #
face $242 -1 $-1 $155 $145 $3 $-1 $243 forward single #
DXID-attrib $-1 -1 $244 $146 $110 @18 ASM_EDGE_FROM_STEP @4 2878 #
point $-1 -1 $-1 479.92171399357716 -224.22023853519906 1.5875000947628779 #
coedge $-1 -1 $-1 $204 $149 $194 $245 forward $195 $-1 #
coedge $-1 -1 $-1 $149 $204 $193 $245 reversed $195 $-1 #
loop $-1 -1 $-1 $-1 $149 $246 #
truecolor-adesk-attrib $-1 -1 $247 $-1 $150 -1038542567 #
ellipse-curve $-1 -1 $-1 480.2942810087784 -223.08606383120321 -1.2064999052371119 -1.7350992835624277e-13 4.7261769339276424e-14 0.99999999999999989 0.24837801013385952 0.75611646933065546 7.3606485764585853e-15 1 I I #
DXID-attrib $-1 -1 $-1 $151 $112 @18 ASM_EDGE_FROM_STEP @4 2874 #
point $-1 -1 $-1 480.04590299864458 -223.84218030053387 -1.206499905237119 #
coedge $-1 -1 $-1 $200 $200 $248 $249 forward $154 $-1 #
truecolor-adesk-attrib $-1 -1 $250 $-1 $155 -1038542567 #
plane-surface $-1 -1 $-1 480.66684802397901 -221.95188912720718 -0.19049990523710036 -1.7350992835624277e-13 4.7261769339276424e-14 0.99999999999999989 0.31208495158384075 0.95005420003014129 9.2485951287383753e-15 forward_v I I I I #
DXID-attrib $-1 -1 $-1 $156 $78 @18 ASM_EDGE_FROM_STEP @4 2872 #
coedge $-1 -1 $-1 $194 $193 $159 $205 reversed $195 $-1 #
edge $251 -1 $-1 $252 -3.1415926535897931 $252 3.1415926535897931 $204 $253 forward @7 unknown #
fmesh-eye-attrib $-1 -1 $254 $160 $120 #
DXID-attrib $-1 -1 $-1 $163 $85 @18 ASM_EDGE_FROM_STEP @4 2867 #
DXID-attrib $-1 -1 $-1 $166 $97 @18 ASM_FACE_FROM_STEP @24 flexure gripper v26-5107 #
DXID-attrib $-1 -1 $-1 $168 $103 @18 ASM_FACE_FROM_STEP @24 flexure gripper v26-5095 #
fmesh-eye-attrib $-1 -1 $255 $169 $135 #
truecolor-adesk-attrib $-1 -1 $256 $-1 $170 -1038542567 #
face $257 -1 $-1 $258 $259 $3 $-1 $260 forward single #
loop $-1 -1 $-1 $-1 $261 $170 #
cone-surface $-1 -1 $-1 480.29428100877738 -223.08606383120292 4.7625000947628884 -1.7350992835624277e-13 4.7261769339276424e-14 0.99999999999999989 0.24837801013385952 0.75611646933065546 7.3606485764585853e-15 1 I I 0 1 0.79586666666666706 forward I I I I #
coedge $-1 -1 $-1 $215 $215 $173 $218 forward $171 $-1 #
coedge $-1 -1 $-1 $262 $173 $217 $263 forward $136 $-1 #
coedge $-1 -1 $-1 $173 $262 $216 $263 reversed $136 $-1 #
edge $264 -1 $-1 $265 -3.1415926535897931 $265 3.1415926535897931 $173 $266 forward @7 unknown #
coedge $-1 -1 $-1 $175 $174 $261 $267 forward $104 $-1 #
edge $268 -1 $-1 $223 0.34275507794717913 $269 0.91401354119248113 $174 $270 forward @7 unknown #
loop $-1 -1 $-1 $-1 $176 $271 #
truecolor-adesk-attrib $-1 -1 $272 $-1 $177 -1038542567 #
vertex $-1 -1 $-1 $177 $273 #
ellipse-curve $-1 -1 $-1 480.29428100877738 -223.08606383120292 4.7625000947628893 1.7350992835624277e-13 -4.7261769339276424e-14 -0.99999999999999989 -0.32599613830069046 -0.99240286599648486 -9.6608512566018883e-15 1 I I #
coedge $-1 -1 $-1 $274 $275 $178 $226 reversed $259 $-1 #
edge $276 -1 $-1 $228 -3.1415926535897931 $228 3.1415926535897931 $178 $277 forward @7 unknown #
truecolor-adesk-attrib $-1 -1 $278 $-1 $179 -1038542567 #
vertex $-1 -1 $-1 $179 $279 #
straight-curve $-1 -1 $-1 479.92171399357682 -224.22023853519897 3.3655000947628775 0.13587217198673116 0.41362432570970498 -1.1115809057647581 F 0 F 0.9140135411924839 #
loop $-1 -1 $-1 $-1 $280 $231 #
face $281 -1 $-1 $190 $180 $3 $-1 $282 forward single #
DXID-attrib $-1 -1 $283 $181 $142 @18 ASM_EDGE_FROM_STEP @4 2883 #
point $-1 -1 $-1 479.92171399357682 -224.22023853519897 3.3655000947628775 #
coedge $-1 -1 $-1 $248 $184 $235 $284 forward $236 $-1 #
coedge $-1 -1 $-1 $184 $248 $234 $284 reversed $236 $-1 #
loop $-1 -1 $-1 $-1 $184 $258 #
truecolor-adesk-attrib $-1 -1 $285 $-1 $185 -1038542567 #
ellipse-curve $-1 -1 $-1 480.29428100877811 -223.08606383120312 0.57150009476288854 -1.7350992835624277e-13 4.7261769339276424e-14 0.99999999999999989 0.24837801013385952 0.75611646933065546 7.3606485764585853e-15 1 I I #
DXID-attrib $-1 -1 $-1 $186 $144 @18 ASM_EDGE_FROM_STEP @4 2879 #
point $-1 -1 $-1 480.04590299864424 -223.84218030053378 0.57150009476288144 #
coedge $-1 -1 $-1 $241 $241 $286 $287 forward $189 $-1 #
truecolor-adesk-attrib $-1 -1 $288 $-1 $190 -1038542567 #
plane-surface $-1 -1 $-1 480.66684802397873 -221.9518891272071 1.5875000947629001 -1.7350992835624277e-13 4.7261769339276424e-14 0.99999999999999989 0.31208495158384075 0.95005420003014129 9.2485951287383753e-15 forward_v I I I I #
DXID-attrib $-1 -1 $-1 $191 $110 @18 ASM_EDGE_FROM_STEP @4 2877 #
edge $289 -1 $-1 $152 7.4999999999999973 $252 8.457446808510646 $193 $290 forward @7 unknown #
face $291 -1 $-1 $271 $195 $3 $-1 $292 forward single #
DXID-attrib $-1 -1 $293 $196 $150 @18 ASM_EDGE_FROM_STEP @4 2876 #
coedge $-1 -1 $-1 $235 $234 $200 $249 reversed $236 $-1 #
edge $294 -1 $-1 $295 -3.1415926535897931 $295 3.1415926535897931 $248 $296 forward @7 unknown #
fmesh-eye-attrib $-1 -1 $297 $201 $155 #
truecolor-adesk-attrib $-1 -1 $298 $-1 $205 -1038542567 #
vertex $-1 -1 $-1 $245 $299 #
ellipse-curve $-1 -1 $-1 480.29428100877857 -223.08606383120323 -1.9684999052371106 1.7350992835624277e-13 -4.7261769339276424e-14 -0.99999999999999989 0.24837801013385952 0.75611646933065546 7.3606485764585853e-15 1 I I #
DXID-attrib $-1 -1 $-1 $206 $120 @18 ASM_FACE_FROM_STEP @24 flexure gripper v26-5105 #
DXID-attrib $-1 -1 $-1 $210 $135 @18 ASM_FACE_FROM_STEP @24 flexure gripper v26-5096 #
fmesh-eye-attrib $-1 -1 $300 $211 $170 #
truecolor-adesk-attrib $-1 -1 $301 $-1 $212 -1038542567 #
face $302 -1 $-1 $246 $236 $3 $-1 $303 forward single #
loop $-1 -1 $-1 $-1 $225 $212 #
cone-surface $-1 -1 $-1 480.29428100877738 -223.08606383120292 4.7625000947628884 -1.7350992835624277e-13 4.7261769339276424e-14 0.99999999999999989 0.24837801013385952 0.75611646933065546 7.3606485764585853e-15 1 I I 0 1 0.79586666666666706 forward I I I I #
coedge $-1 -1 $-1 $304 $305 $219 $267 reversed $213 $-1 #
coedge $-1 -1 $-1 $217 $216 $306 $307 forward $136 $-1 #
edge $308 -1 $-1 $265 -0.1751412429378528 $309 -3.7941379949658806e-16 $216 $310 forward @7 unknown #
truecolor-adesk-attrib $-1 -1 $311 $-1 $218 -1038542567 #
vertex $-1 -1 $-1 $218 $312 #
ellipse-curve $-1 -1 $-1 480.29428100877726 -223.08606383120289 5.5499000947628874 -1.7350992835624277e-13 4.7261769339276424e-14 0.99999999999999989 1.4030715253306312 4.2712536724955088 4.157983397978199e-14 1 I I #
edge $313 -1 $-1 $269 -3.1415926535897931 $269 3.1415926535897931 $219 $314 forward @7 unknown #
truecolor-adesk-attrib $-1 -1 $315 $-1 $220 -1038542567 #
vertex $-1 -1 $-1 $220 $316 #
straight-curve $-1 -1 $-1 479.92171399357653 -224.22023853519889 5.1435000947628753 0.13587217198673116 0.41362432570970498 -1.1115809057647581 F 0.34275507794717913 F 0.91401354119248113 #
face $317 -1 $-1 $231 $318 $3 $-1 $319 forward single #
DXID-attrib $-1 -1 $320 $222 $177 @18 ASM_EDGE_FROM_STEP @4 2891 #
point $-1 -1 $-1 479.96828487047668 -224.07846669719942 4.7625000947628795 #
coedge $-1 -1 $-1 $286 $225 $275 $321 forward $259 $-1 #
coedge $-1 -1 $-1 $225 $286 $274 $321 reversed $259 $-1 #
truecolor-adesk-attrib $-1 -1 $322 $-1 $226 -1038542567 #
ellipse-curve $-1 -1 $-1 480.29428100877777 -223.08606383120303 2.349500094762889 -1.7350992835624277e-13 4.7261769339276424e-14 0.99999999999999989 0.24837801013385952 0.75611646933065546 7.3606485764585853e-15 1 I I #
DXID-attrib $-1 -1 $-1 $227 $179 @18 ASM_EDGE_FROM_STEP @4 2884 #
point $-1 -1 $-1 480.04590299864395 -223.8421803005337 2.3495000947628815 #
coedge $-1 -1 $-1 $280 $280 $323 $324 forward $230 $-1 #
truecolor-adesk-attrib $-1 -1 $325 $-1 $231 -1038542567 #
plane-surface $-1 -1 $-1 480.66684802397839 -221.95188912720701 3.3655000947628997 -1.7350992835624277e-13 4.7261769339276424e-14 0.99999999999999989 0.31208495158384075 0.95005420003014129 9.2485951287383753e-15 forward_v I I I I #
DXID-attrib $-1 -1 $-1 $232 $142 @18 ASM_EDGE_FROM_STEP @4 2882 #
edge $326 -1 $-1 $187 5.2659574468085086 $295 6.2234042553191466 $234 $327 forward @7 unknown #
DXID-attrib $-1 -1 $328 $237 $185 @18 ASM_EDGE_FROM_STEP @4 2881 #
coedge $-1 -1 $-1 $275 $274 $241 $287 reversed $259 $-1 #
edge $329 -1 $-1 $330 -3.1415926535897931 $330 3.1415926535897931 $286 $331 forward @7 unknown #
fmesh-eye-attrib $-1 -1 $332 $242 $190 #
truecolor-adesk-attrib $-1 -1 $333 $-1 $245 -1038542567 #
straight-curve $-1 -1 $-1 480.0459029986435 -223.84218030053358 4.7625000947628813 1.3809076831445516e-13 -3.7614066824818817e-14 -0.79586666666666694 F 7.4999999999999973 F 8.457446808510646 #
truecolor-adesk-attrib $-1 -1 $334 $-1 $246 -1038542567 #
cone-surface $-1 -1 $-1 480.29428100877738 -223.08606383120292 4.7625000947628884 -1.7350992835624277e-13 4.7261769339276424e-14 0.99999999999999989 0.24837801013385952 0.75611646933065546 7.3606485764585853e-15 1 I I 0 1 0.79586666666666706 forward I I I I #
DXID-attrib $-1 -1 $-1 $247 $150 @18 ASM_EDGE_FROM_STEP @4 2875 #
truecolor-adesk-attrib $-1 -1 $335 $-1 $249 -1038542567 #
vertex $-1 -1 $-1 $284 $336 #
ellipse-curve $-1 -1 $-1 480.29428100877823 -223.08606383120315 -0.19049990523711191 1.7350992835624277e-13 -4.7261769339276424e-14 -0.99999999999999989 0.24837801013385952 0.75611646933065546 7.3606485764585853e-15 1 I I #
DXID-attrib $-1 -1 $-1 $250 $155 @18 ASM_FACE_FROM_STEP @24 flexure gripper v26-5104 #
DXID-attrib $-1 -1 $337 $251 $205 @18 ASM_EDGE_FROM_STEP @4 2908 #
point $-1 -1 $-1 480.04590299864469 -223.8421803005339 -1.9684999052371284 #
DXID-attrib $-1 -1 $-1 $256 $170 @18 ASM_FACE_FROM_STEP @24 flexure gripper v26-5097 #
fmesh-eye-attrib $-1 -1 $338 $257 $212 #
truecolor-adesk-attrib $-1 -1 $339 $-1 $258 -1038542567 #
cone-surface $-1 -1 $-1 480.29428100877738 -223.08606383120292 4.7625000947628884 -1.7350992835624277e-13 4.7261769339276424e-14 0.99999999999999989 0.24837801013385952 0.75611646933065546 7.3606485764585853e-15 1 I I 0 1 0.79586666666666706 forward I I I I #
coedge $-1 -1 $-1 $323 $261 $305 $340 forward $213 $-1 #
coedge $-1 -1 $-1 $261 $323 $304 $340 reversed $213 $-1 #
coedge $-1 -1 $-1 $306 $306 $262 $307 reversed $318 $-1 #
edge $341 -1 $-1 $309 -3.1415926535897931 $309 3.1415926535897931 $262 $342 forward @7 unknown #
truecolor-adesk-attrib $-1 -1 $343 $-1 $263 -1038542567 #
vertex $-1 -1 $-1 $263 $344 #
straight-curve $-1 -1 $-1 478.89120948344674 -227.35731750369843 4.7625000947628466 7.8006593590399621e-13 -2.1247946259551895e-13 -4.4957999999999991 F -0.1751412429378528 F -3.7941379949658806e-16 #
DXID-attrib $-1 -1 $345 $264 $218 @18 ASM_EDGE_FROM_STEP @4 2893 #
point $-1 -1 $-1 478.89120948344663 -227.3573175036984 5.5499000947628456 #
truecolor-adesk-attrib $-1 -1 $346 $-1 $267 -1038542567 #
ellipse-curve $-1 -1 $-1 480.29428100877749 -223.08606383120295 4.1275000947628904 -1.7350992835624277e-13 4.7261769339276424e-14 0.99999999999999989 0.24837801013385952 0.75611646933065546 7.3606485764585853e-15 1 I I #
DXID-attrib $-1 -1 $-1 $268 $220 @18 ASM_EDGE_FROM_STEP @4 2888 #
point $-1 -1 $-1 480.04590299864361 -223.84218030053361 4.1275000947628833 #
truecolor-adesk-attrib $-1 -1 $347 $-1 $271 -1038542567 #
loop $-1 -1 $-1 $221 $306 $271 #
plane-surface $-1 -1 $-1 481.69735253410801 -218.81481015870742 4.762500094762931 1.7350992835624277e-13 -4.7261769339276424e-14 -0.99999999999999989 -0.31208495158384075 -0.95005420003014129 -9.2485951287383753e-15 forward_v I I I I #
DXID-attrib $-1 -1 $-1 $272 $177 @18 ASM_EDGE_FROM_STEP @4 2887 #
edge $348 -1 $-1 $228 3.0319148936170195 $330 3.9893617021276575 $274 $349 forward @7 unknown #
DXID-attrib $-1 -1 $350 $276 $226 @18 ASM_EDGE_FROM_STEP @4 2886 #
coedge $-1 -1 $-1 $305 $304 $280 $324 reversed $213 $-1 #
edge $351 -1 $-1 $352 -3.1415926535897931 $352 3.1415926535897931 $323 $353 forward @7 unknown #
fmesh-eye-attrib $-1 -1 $354 $281 $231 #
truecolor-adesk-attrib $-1 -1 $355 $-1 $284 -1038542567 #
straight-curve $-1 -1 $-1 480.0459029986435 -223.84218030053358 4.7625000947628813 1.3809076831445516e-13 -3.7614066824818817e-14 -0.79586666666666694 F 5.2659574468085086 F 6.2234042553191466 #
DXID-attrib $-1 -1 $-1 $285 $185 @18 ASM_EDGE_FROM_STEP @4 2880 #
truecolor-adesk-attrib $-1 -1 $356 $-1 $287 -1038542567 #
vertex $-1 -1 $-1 $321 $357 #
ellipse-curve $-1 -1 $-1 480.29428100877794 -223.08606383120306 1.587500094762889 1.7350992835624277e-13 -4.7261769339276424e-14 -0.99999999999999989 0.24837801013385952 0.75611646933065546 7.3606485764585853e-15 1 I I #
DXID-attrib $-1 -1 $-1 $288 $190 @18 ASM_FACE_FROM_STEP @24 flexure gripper v26-5103 #
DXID-attrib $-1 -1 $-1 $289 $245 @18 ASM_EDGE_FROM_STEP @4 2906 #
fmesh-eye-attrib $-1 -1 $358 $291 $246 #
DXID-attrib $-1 -1 $359 $294 $249 @18 ASM_EDGE_FROM_STEP @4 2905 #
point $-1 -1 $-1 480.04590299864435 -223.84218030053381 -0.19049990523711902 #
DXID-attrib $-1 -1 $-1 $298 $205 @18 ASM_EDGE_FROM_STEP @4 2907 #
DXID-attrib $-1 -1 $-1 $301 $212 @18 ASM_FACE_FROM_STEP @24 flexure gripper v26-5098 #
fmesh-eye-attrib $-1 -1 $360 $302 $258 #
edge $361 -1 $-1 $269 0.79787234042552901 $352 1.7553191489361695 $304 $362 forward @7 unknown #
truecolor-adesk-attrib $-1 -1 $363 $-1 $307 -1038542567 #
ellipse-curve $-1 -1 $-1 480.29428100877738 -223.08606383120292 4.7625000947628902 -1.7350992835624277e-13 4.7261769339276424e-14 0.99999999999999989 1.4030715253306312 4.2712536724955088 4.157983397978199e-14 1 I I #
DXID-attrib $-1 -1 $-1 $308 $263 @18 ASM_EDGE_FROM_STEP @4 2894 #
point $-1 -1 $-1 478.89120948344674 -227.35731750369843 4.7625000947628484 #
DXID-attrib $-1 -1 $-1 $311 $218 @18 ASM_EDGE_FROM_STEP @4 2892 #
DXID-attrib $-1 -1 $364 $313 $267 @18 ASM_EDGE_FROM_STEP @4 2890 #
fmesh-eye-attrib $-1 -1 $365 $317 $271 #
truecolor-adesk-attrib $-1 -1 $366 $-1 $321 -1038542567 #
straight-curve $-1 -1 $-1 480.0459029986435 -223.84218030053358 4.7625000947628813 1.3809076831445516e-13 -3.7614066824818817e-14 -0.79586666666666694 F 3.0319148936170195 F 3.9893617021276575 #
DXID-attrib $-1 -1 $-1 $322 $226 @18 ASM_EDGE_FROM_STEP @4 2885 #
truecolor-adesk-attrib $-1 -1 $367 $-1 $324 -1038542567 #
vertex $-1 -1 $-1 $340 $368 #
ellipse-curve $-1 -1 $-1 480.2942810087776 -223.08606383120298 3.3655000947628881 1.7350992835624277e-13 -4.7261769339276424e-14 -0.99999999999999989 0.24837801013385952 0.75611646933065546 7.3606485764585853e-15 1 I I #
DXID-attrib $-1 -1 $-1 $325 $231 @18 ASM_FACE_FROM_STEP @24 flexure gripper v26-5102 #
DXID-attrib $-1 -1 $-1 $326 $284 @18 ASM_EDGE_FROM_STEP @4 2903 #
DXID-attrib $-1 -1 $369 $329 $287 @18 ASM_EDGE_FROM_STEP @4 2902 #
point $-1 -1 $-1 480.04590299864407 -223.84218030053373 1.5875000947628815 #
DXID-attrib $-1 -1 $-1 $334 $246 @18 ASM_FACE_FROM_STEP @24 flexure gripper v26-5100 #
DXID-attrib $-1 -1 $-1 $335 $249 @18 ASM_EDGE_FROM_STEP @4 2904 #
DXID-attrib $-1 -1 $-1 $339 $258 @18 ASM_FACE_FROM_STEP @24 flexure gripper v26-5099 #
truecolor-adesk-attrib $-1 -1 $370 $-1 $340 -1038542567 #
straight-curve $-1 -1 $-1 480.0459029986435 -223.84218030053358 4.7625000947628813 1.3809076831445516e-13 -3.7614066824818817e-14 -0.79586666666666694 F 0.79787234042552901 F 1.7553191489361695 #
DXID-attrib $-1 -1 $371 $341 $307 @18 ASM_EDGE_FROM_STEP @4 2896 #
DXID-attrib $-1 -1 $-1 $346 $267 @18 ASM_EDGE_FROM_STEP @4 2889 #
DXID-attrib $-1 -1 $-1 $347 $271 @18 ASM_FACE_FROM_STEP @24 flexure gripper v26-5101 #
DXID-attrib $-1 -1 $-1 $348 $321 @18 ASM_EDGE_FROM_STEP @4 2900 #
DXID-attrib $-1 -1 $372 $351 $324 @18 ASM_EDGE_FROM_STEP @4 2899 #
point $-1 -1 $-1 480.04590299864378 -223.84218030053364 3.365500094762881 #
DXID-attrib $-1 -1 $-1 $356 $287 @18 ASM_EDGE_FROM_STEP @4 2901 #
DXID-attrib $-1 -1 $-1 $361 $340 @18 ASM_EDGE_FROM_STEP @4 2897 #
DXID-attrib $-1 -1 $-1 $363 $307 @18 ASM_EDGE_FROM_STEP @4 2895 #
DXID-attrib $-1 -1 $-1 $367 $324 @18 ASM_EDGE_FROM_STEP @4 2898 #
