700 604 1 0         
5 ZWCAD 12 ACIS 28.0 NT 24 Mon May 13 16:26:16 2024 
1 9.9999999999999995e-07 1e-10 
body $1 -1 $-1 $2 $-1 $-1 #
DXID-attrib $-1 -1 $-1 $-1 $0 @18 ASM_BODY_FROM_STEP @83 46887F9E314724DACE100F68FB7CFBB1E4E6494F|:|EDF6519C18B9396C5F1F4E15439595F408B8F2B7 #
lump $-1 -1 $-1 $-1 $3 $0 #
shell $-1 -1 $-1 $-1 $-1 $4 $-1 $2 #
face $5 -1 $-1 $6 $7 $3 $-1 $8 forward single #
truecolor-adesk-attrib $-1 -1 $9 $-1 $4 -1056964608 #
face $10 -1 $-1 $11 $12 $3 $-1 $13 forward single #
loop $-1 -1 $-1 $-1 $14 $4 #
cone-surface $-1 -1 $-1 -11.308714805394739 -98.378477004994693 143.90579740500007 -1.1515985885851427e-15 -2.6182224368083235e-16 -1 0.24656629776309555 3.961083390097647 -1.3210451410988885e-15 1 I I 0.70710678118654569 0.70710678118654946 3.968750000000008 forward I I I I #
DXID-attrib $-1 -1 $-1 $5 $4 @18 ASM_FACE_FROM_STEP @21 full assembly 5-60913 #
truecolor-adesk-attrib $-1 -1 $15 $-1 $6 -1056964608 #
face $16 -1 $-1 $17 $18 $3 $-1 $19 forward single #
loop $-1 -1 $-1 $-1 $20 $6 #
cone-surface $-1 -1 $-1 -11.308714805394757 -98.378477004994693 129.14204740500006 1.1515985885851427e-15 2.6182224368083235e-16 1 -0.31560486113676173 -5.0701867393249787 1.6909377806065745e-15 1 I I 0.70710678118654757 0.70710678118654757 5.0800000000000018 forward I I I I #
coedge $-1 -1 $-1 $21 $22 $23 $24 reversed $7 $-1 #
DXID-attrib $-1 -1 $-1 $10 $6 @18 ASM_FACE_FROM_STEP @21 full assembly 5-24245 #
truecolor-adesk-attrib $-1 -1 $25 $-1 $11 -1056964608 #
face $26 -1 $-1 $27 $28 $3 $-1 $29 forward single #
loop $-1 -1 $-1 $-1 $30 $11 #
cone-surface $-1 -1 $-1 -30.321915077863419 -97.194958775731834 135.96829740500007 -1.1515985885851427e-15 -2.6182224368083235e-16 -1 0.24656629776309488 3.9610833900976363 -1.3210451410988849e-15 1 I I 0.70710678118654635 0.70710678118654879 3.9687499999999973 forward I I I I #
coedge $-1 -1 $-1 $31 $32 $33 $34 reversed $12 $-1 #
coedge $-1 -1 $-1 $35 $14 $36 $37 forward $7 $-1 #
coedge $-1 -1 $-1 $14 $35 $38 $39 reversed $7 $-1 #
coedge $-1 -1 $-1 $40 $40 $14 $24 forward $41 $-1 #
edge $42 -1 $-1 $43 1.3960973510279808e-16 $44 3.1415926535897931 $14 $45 forward @7 unknown #
DXID-attrib $-1 -1 $-1 $16 $11 @18 ASM_FACE_FROM_STEP @21 full assembly 5-63554 #
truecolor-adesk-attrib $-1 -1 $46 $-1 $17 -1056964608 #
face $47 -1 $-1 $48 $49 $3 $-1 $50 reversed single #
loop $-1 -1 $-1 $-1 $51 $17 #
cone-surface $-1 -1 $-1 -30.32191507786343 -97.194958775731834 129.14204740500008 1.1515985885851427e-15 2.6182224368083235e-16 1 -0.31560486113676173 -5.0701867393249787 1.6909377806065745e-15 1 I I 0.70710678118654779 0.70710678118654724 5.0800000000000018 forward I I I I #
coedge $-1 -1 $-1 $52 $53 $54 $55 reversed $18 $-1 #
coedge $-1 -1 $-1 $56 $20 $57 $58 forward $12 $-1 #
coedge $-1 -1 $-1 $20 $56 $59 $60 reversed $12 $-1 #
coedge $-1 -1 $-1 $61 $61 $20 $34 forward $62 $-1 #
edge $63 -1 $-1 $64 1.3960973510279823e-16 $65 3.1415926535897931 $20 $66 forward @7 unknown #
coedge $-1 -1 $-1 $22 $21 $67 $68 reversed $7 $-1 #
coedge $-1 -1 $-1 $69 $70 $21 $37 reversed $71 $-1 #
edge $72 -1 $-1 $43 5.8923492986672913e-36 $73 0.0015715448211870951 $21 $74 forward @7 unknown #
coedge $-1 -1 $-1 $75 $69 $22 $39 forward $71 $-1 #
edge $76 -1 $-1 $44 6.8691545067414964e-19 $77 0.0015715448211870964 $22 $78 forward @7 unknown #
coedge $-1 -1 $-1 $23 $23 $69 $79 forward $41 $-1 #
loop $-1 -1 $-1 $80 $40 $81 #
truecolor-adesk-attrib $-1 -1 $82 $-1 $24 -1056964608 #
vertex $-1 -1 $-1 $24 $83 #
vertex $-1 -1 $-1 $24 $84 #
ellipse-curve $-1 -1 $-1 -11.308714805394739 -98.378477004994693 143.90579740500007 1.1515985885851427e-15 2.6182224368083235e-16 1 -0.24656629776309558 -3.9610833900976474 1.3210451410988887e-15 1 F 1.3960973510279808e-16 F 3.1415926535897931 #
DXID-attrib $-1 -1 $-1 $26 $17 @18 ASM_FACE_FROM_STEP @21 full assembly 5-39389 #
truecolor-adesk-attrib $-1 -1 $85 $-1 $27 -1056964608 #
face $86 -1 $-1 $87 $88 $3 $-1 $89 reversed single #
loop $-1 -1 $-1 $-1 $90 $27 #
cone-surface $-1 -1 $-1 -30.321915077863412 -97.194958775731834 142.79454740500009 -1.1515985885851427e-15 -2.6182224368083235e-16 -1 0.157802430568381 2.535093369662492 -8.4546889030328794e-16 1 I I 0 1 2.5400000000000036 forward I I I I #
coedge $-1 -1 $-1 $91 $92 $93 $94 reversed $28 $-1 #
coedge $-1 -1 $-1 $95 $30 $96 $97 forward $18 $-1 #
coedge $-1 -1 $-1 $30 $95 $98 $99 reversed $18 $-1 #
coedge $-1 -1 $-1 $100 $100 $30 $55 forward $101 $-1 #
edge $102 -1 $-1 $103 0 $104 3.1415926535897931 $30 $105 forward @7 unknown #
coedge $-1 -1 $-1 $32 $31 $106 $107 reversed $12 $-1 #
coedge $-1 -1 $-1 $108 $109 $31 $58 reversed $110 $-1 #
edge $111 -1 $-1 $64 -0.0015715448211870964 $112 1.2266347333466988e-18 $31 $113 forward @7 unknown #
coedge $-1 -1 $-1 $114 $108 $32 $60 forward $110 $-1 #
edge $115 -1 $-1 $65 -0.001571544821187096 $116 2.4532694666933975e-18 $32 $117 forward @7 unknown #
coedge $-1 -1 $-1 $33 $33 $108 $118 forward $62 $-1 #
loop $-1 -1 $-1 $119 $61 $120 #
truecolor-adesk-attrib $-1 -1 $121 $-1 $34 -1056964608 #
vertex $-1 -1 $-1 $34 $122 #
vertex $-1 -1 $-1 $34 $123 #
ellipse-curve $-1 -1 $-1 -11.308714805394757 -98.378477004994693 128.03079740500004 -1.1515985885851427e-15 -2.6182224368083235e-16 -1 0.24656629776309538 3.9610833900976439 -1.3210451410988875e-15 1 F 1.3960973510279823e-16 F 3.1415926535897931 #
coedge $-1 -1 $-1 $124 $125 $35 $68 forward $126 $-1 #
edge $127 -1 $-1 $77 -3.1415926535897931 $73 -9.1061599788808725e-17 $35 $128 forward @7 unknown #
coedge $-1 -1 $-1 $38 $36 $40 $79 reversed $71 $-1 #
coedge $-1 -1 $-1 $36 $129 $130 $131 reversed $71 $-1 #
loop $-1 -1 $-1 $-1 $36 $132 #
truecolor-adesk-attrib $-1 -1 $133 $-1 $37 -1056964608 #
vertex $-1 -1 $-1 $37 $134 #
straight-curve $-1 -1 $-1 -11.555281103157835 -102.33956039509233 143.90579740500007 -43.930381394733466 -705.74083174385714 -707.10678118654948 F 5.8923492986672913e-36 F 0.0015715448211870951 #
coedge $-1 -1 $-1 $129 $38 $135 $136 reversed $71 $-1 #
truecolor-adesk-attrib $-1 -1 $137 $-1 $39 -1056964608 #
vertex $-1 -1 $-1 $68 $138 #
straight-curve $-1 -1 $-1 -11.062148507631644 -94.417393614897037 143.90579740500004 43.930381394731924 705.74083174385669 -707.10678118655005 F 6.8691545067414964e-19 F 0.0015715448211870964 #
edge $139 -1 $-1 $44 -3.1415926535897931 $43 1.3960973510279808e-16 $40 $140 forward @7 unknown #
loop $-1 -1 $-1 $-1 $141 $81 #
face $142 -1 $-1 $143 $41 $3 $-1 $144 forward single #
DXID-attrib $-1 -1 $-1 $42 $24 @18 ASM_EDGE_FROM_STEP @5 62625 #
point $-1 -1 $-1 -11.555281103157835 -102.33956039509233 143.90579740500007 #
point $-1 -1 $-1 -11.062148507631644 -94.417393614897037 143.90579740500004 #
DXID-attrib $-1 -1 $-1 $47 $27 @18 ASM_FACE_FROM_STEP @21 full assembly 5-12857 #
truecolor-adesk-attrib $-1 -1 $145 $-1 $48 -1056964608 #
face $146 -1 $-1 $147 $148 $3 $-1 $149 reversed single #
loop $-1 -1 $-1 $-1 $150 $48 #
cone-surface $-1 -1 $-1 -11.308714805394741 -98.378477004994693 142.79454740500006 -1.1515985885851427e-15 -2.6182224368083235e-16 -1 0.15780243056838086 2.5350933696624893 -8.4546889030328725e-16 1 I I 0 1 2.5400000000000009 forward I I I I #
coedge $-1 -1 $-1 $151 $152 $153 $154 forward $49 $-1 #
coedge $-1 -1 $-1 $155 $51 $156 $157 forward $28 $-1 #
coedge $-1 -1 $-1 $51 $155 $158 $159 reversed $28 $-1 #
coedge $-1 -1 $-1 $160 $160 $51 $94 forward $161 $-1 #
edge $162 -1 $-1 $163 0 $164 3.1415926535897931 $51 $165 forward @7 unknown #
coedge $-1 -1 $-1 $53 $52 $166 $167 forward $18 $-1 #
coedge $-1 -1 $-1 $168 $169 $52 $97 reversed $170 $-1 #
edge $171 -1 $-1 $103 0 $172 0.0015715448211871047 $52 $173 forward @7 unknown #
coedge $-1 -1 $-1 $169 $168 $53 $99 forward $170 $-1 #
edge $174 -1 $-1 $104 -4.9065389333867903e-19 $175 0.0015715448211871064 $53 $176 forward @7 unknown #
coedge $-1 -1 $-1 $54 $54 $168 $177 forward $101 $-1 #
loop $-1 -1 $-1 $178 $100 $179 #
truecolor-adesk-attrib $-1 -1 $180 $-1 $55 -1056964608 #
vertex $-1 -1 $-1 $55 $181 #
vertex $-1 -1 $-1 $55 $182 #
ellipse-curve $-1 -1 $-1 -30.321915077863419 -97.194958775731834 135.96829740500007 1.1515985885851427e-15 2.6182224368083235e-16 1 -0.24656629776309483 -3.9610833900976354 1.3210451410988847e-15 1 F 0 F 3.1415926535897931 #
coedge $-1 -1 $-1 $125 $124 $56 $107 forward $126 $-1 #
edge $183 -1 $-1 $116 -3.1415926535897931 $112 1.2246467991473539e-16 $56 $184 forward @7 unknown #
coedge $-1 -1 $-1 $59 $57 $61 $118 reversed $110 $-1 #
coedge $-1 -1 $-1 $57 $185 $186 $187 forward $110 $-1 #
loop $-1 -1 $-1 $-1 $57 $188 #
truecolor-adesk-attrib $-1 -1 $189 $-1 $58 -1056964608 #
vertex $-1 -1 $-1 $58 $190 #
straight-curve $-1 -1 $-1 -10.993109944257995 -93.308290265669712 129.14204740500006 43.930381394733764 705.74083174385908 707.10678118654755 F -0.0015715448211870964 F 1.2266347333466988e-18 #
coedge $-1 -1 $-1 $185 $59 $191 $192 forward $110 $-1 #
truecolor-adesk-attrib $-1 -1 $193 $-1 $60 -1056964608 #
vertex $-1 -1 $-1 $107 $194 #
straight-curve $-1 -1 $-1 -11.624319666531518 -103.44866374431967 129.14204740500006 -43.930381394732052 -705.74083174385873 707.10678118654812 F -0.001571544821187096 F 2.4532694666933975e-18 #
edge $195 -1 $-1 $65 -3.1415926535897931 $64 1.3960973510279823e-16 $61 $196 forward @7 unknown #
loop $-1 -1 $-1 $-1 $197 $120 #
face $198 -1 $-1 $199 $62 $3 $-1 $200 forward single #
DXID-attrib $-1 -1 $-1 $63 $34 @18 ASM_EDGE_FROM_STEP @5 29361 #
point $-1 -1 $-1 -11.062148507631662 -94.417393614897051 128.03079740500004 #
point $-1 -1 $-1 -11.555281103157853 -102.33956039509233 128.03079740500007 #
coedge $-1 -1 $-1 $106 $67 $201 $202 forward $126 $-1 #
coedge $-1 -1 $-1 $67 $106 $203 $204 reversed $126 $-1 #
loop $-1 -1 $-1 $-1 $124 $205 #
truecolor-adesk-attrib $-1 -1 $206 $-1 $68 -1056964608 #
ellipse-curve $-1 -1 $-1 -11.308714805394741 -98.378477004994693 142.79454740500006 -1.1515985885851427e-15 -2.6182224368083235e-16 -1 -0.31560486113676173 -5.0701867393249787 1.6909377806065745e-15 1 F -3.1415926535897931 F -9.1061599788808725e-17 #
coedge $-1 -1 $-1 $70 $75 $207 $208 reversed $71 $-1 #
coedge $-1 -1 $-1 $209 $210 $70 $131 forward $211 $-1 #
edge $212 -1 $-1 $73 -3.1415926535897931 $213 -2.0943951023931948 $130 $214 forward @7 unknown #
face $215 -1 $-1 $216 $71 $3 $-1 $217 forward single #
DXID-attrib $-1 -1 $-1 $72 $37 @18 ASM_EDGE_FROM_STEP @5 62488 #
point $-1 -1 $-1 -11.624319666531502 -103.44866374431966 142.79454740500006 #
coedge $-1 -1 $-1 $218 $219 $75 $136 forward $211 $-1 #
edge $220 -1 $-1 $221 -1.0471975511965979 $77 0 $135 $222 forward @7 unknown #
DXID-attrib $-1 -1 $-1 $76 $39 @18 ASM_EDGE_FROM_STEP @5 45677 #
point $-1 -1 $-1 -10.993109944257979 -93.308290265669712 142.79454740500006 #
truecolor-adesk-attrib $-1 -1 $223 $-1 $79 -1056964608 #
ellipse-curve $-1 -1 $-1 -11.308714805394739 -98.378477004994693 143.90579740500007 1.1515985885851427e-15 2.6182224368083235e-16 1 -0.24656629776309558 -3.9610833900976474 1.3210451410988887e-15 1 F -3.1415926535897931 F 1.3960973510279808e-16 #
coedge $-1 -1 $-1 $224 $224 $150 $225 reversed $80 $-1 #
truecolor-adesk-attrib $-1 -1 $226 $-1 $81 -1056964608 #
face $227 -1 $-1 $228 $229 $3 $-1 $230 forward single #
plane-surface $-1 -1 $-1 -11.308714805394739 -98.378477004994693 143.90579740500007 1.1515985885851427e-15 2.6182224368083235e-16 1 -1.5780243056838086 -25.350933696624892 8.4546889030328715e-15 forward_v I I I I #
DXID-attrib $-1 -1 $-1 $86 $48 @18 ASM_FACE_FROM_STEP @21 full assembly 5-49449 #
truecolor-adesk-attrib $-1 -1 $231 $-1 $87 -1056964608 #
face $232 -1 $-1 $233 $234 $3 $-1 $235 forward single #
loop $-1 -1 $-1 $-1 $236 $87 #
plane-surface $-1 -1 $-1 -10.993109944257979 -93.308290265669712 142.79454740500006 -0.062126941168653742 -0.99806825577263336 3.328617678359396e-16 25.350933696624892 -1.5780243056838055 -2.8780937600051743e-14 forward_v I I I I #
coedge $-1 -1 $-1 $237 $238 $141 $225 forward $88 $-1 #
coedge $-1 -1 $-1 $239 $90 $240 $241 forward $49 $-1 #
coedge $-1 -1 $-1 $90 $239 $242 $243 reversed $49 $-1 #
coedge $-1 -1 $-1 $244 $244 $90 $154 reversed $178 $-1 #
edge $245 -1 $-1 $246 -3.1415926535897931 $247 0 $90 $248 forward @7 unknown #
coedge $-1 -1 $-1 $92 $91 $249 $250 forward $28 $-1 #
coedge $-1 -1 $-1 $251 $252 $91 $157 reversed $253 $-1 #
edge $254 -1 $-1 $163 -0.0015715448211871125 $255 -6.1331736667334942e-18 $91 $256 forward @7 unknown #
coedge $-1 -1 $-1 $252 $251 $92 $159 forward $253 $-1 #
edge $257 -1 $-1 $164 -0.0015715448211871125 $258 -4.9065389333867951e-18 $92 $259 forward @7 unknown #
coedge $-1 -1 $-1 $93 $93 $251 $260 forward $161 $-1 #
loop $-1 -1 $-1 $261 $160 $262 #
truecolor-adesk-attrib $-1 -1 $263 $-1 $94 -1056964608 #
vertex $-1 -1 $-1 $94 $264 #
vertex $-1 -1 $-1 $94 $265 #
ellipse-curve $-1 -1 $-1 -30.32191507786343 -97.194958775731834 128.03079740500007 -1.1515985885851427e-15 -2.6182224368083235e-16 -1 0.24656629776309458 3.9610833900976314 -1.3210451410988834e-15 1 F 0 F 3.1415926535897931 #
coedge $-1 -1 $-1 $266 $267 $95 $167 reversed $229 $-1 #
edge $268 -1 $-1 $172 0 $175 3.1415926535897931 $95 $269 forward @7 unknown #
coedge $-1 -1 $-1 $98 $96 $100 $177 reversed $170 $-1 #
coedge $-1 -1 $-1 $96 $98 $270 $271 reversed $170 $-1 #
loop $-1 -1 $-1 $-1 $96 $272 #
truecolor-adesk-attrib $-1 -1 $273 $-1 $97 -1056964608 #
vertex $-1 -1 $-1 $97 $274 #
straight-curve $-1 -1 $-1 -30.568481375626515 -101.15604216582948 135.96829740500007 -43.930381394733509 -705.74083174385783 -707.10678118654857 F 0 F 0.0015715448211871047 #
truecolor-adesk-attrib $-1 -1 $275 $-1 $99 -1056964608 #
vertex $-1 -1 $-1 $167 $276 #
straight-curve $-1 -1 $-1 -30.075348780100327 -93.233875385634192 135.96829740500007 43.930381394731967 705.74083174385748 -707.10678118654914 F -4.9065389333867903e-19 F 0.0015715448211871064 #
edge $277 -1 $-1 $104 -3.1415926535897931 $103 0 $100 $278 forward @7 unknown #
loop $-1 -1 $-1 $-1 $153 $179 #
face $279 -1 $-1 $262 $101 $3 $-1 $280 forward single #
DXID-attrib $-1 -1 $-1 $102 $55 @18 ASM_EDGE_FROM_STEP @5 34933 #
point $-1 -1 $-1 -30.568481375626515 -101.15604216582948 135.96829740500007 #
point $-1 -1 $-1 -30.075348780100327 -93.233875385634192 135.96829740500007 #
truecolor-adesk-attrib $-1 -1 $281 $-1 $107 -1056964608 #
ellipse-curve $-1 -1 $-1 -11.308714805394757 -98.378477004994693 129.14204740500006 1.1515985885851427e-15 2.6182224368083235e-16 1 0.31560486113676173 5.0701867393249787 -1.6909377806065745e-15 1 F -3.1415926535897931 F 1.2246467991473539e-16 #
coedge $-1 -1 $-1 $109 $114 $282 $283 forward $110 $-1 #
coedge $-1 -1 $-1 $284 $285 $109 $187 reversed $286 $-1 #
edge $287 -1 $-1 $288 -1.0471975511965979 $112 -1.2246467991473537e-16 $186 $289 forward @7 unknown #
face $290 -1 $-1 $132 $110 $3 $-1 $291 forward single #
DXID-attrib $-1 -1 $-1 $111 $58 @18 ASM_EDGE_FROM_STEP @5 46527 #
point $-1 -1 $-1 -10.993109944257995 -93.308290265669712 129.14204740500006 #
coedge $-1 -1 $-1 $292 $293 $114 $192 reversed $286 $-1 #
edge $294 -1 $-1 $116 -3.1415926535897931 $295 -2.0943951023931948 $191 $296 forward @7 unknown #
DXID-attrib $-1 -1 $-1 $115 $60 @18 ASM_EDGE_FROM_STEP @5 41155 #
point $-1 -1 $-1 -11.624319666531518 -103.44866374431967 129.14204740500006 #
truecolor-adesk-attrib $-1 -1 $297 $-1 $118 -1056964608 #
ellipse-curve $-1 -1 $-1 -11.308714805394757 -98.378477004994693 128.03079740500004 -1.1515985885851427e-15 -2.6182224368083235e-16 -1 0.24656629776309538 3.9610833900976439 -1.3210451410988875e-15 1 F -3.1415926535897931 F 1.3960973510279823e-16 #
coedge $-1 -1 $-1 $298 $298 $299 $300 forward $119 $-1 #
truecolor-adesk-attrib $-1 -1 $301 $-1 $120 -1056964608 #
face $302 -1 $-1 $81 $303 $3 $-1 $304 reversed single #
plane-surface $-1 -1 $-1 -11.308714805394757 -98.378477004994693 128.03079740500004 -1.1515985885851427e-15 -2.6182224368083235e-16 -1 1.5780243056838086 25.350933696624892 -8.4546889030328715e-15 forward_v I I I I #
coedge $-1 -1 $-1 $305 $306 $124 $202 reversed $307 $-1 #
edge $308 -1 $-1 $73 0 $116 0.013652499999999998 $124 $309 forward @7 unknown #
coedge $-1 -1 $-1 $310 $311 $125 $204 forward $148 $-1 #
edge $312 -1 $-1 $77 0 $112 0.013652499999999998 $203 $313 forward @7 unknown #
face $314 -1 $-1 $315 $126 $3 $-1 $316 forward single #
DXID-attrib $-1 -1 $-1 $127 $68 @18 ASM_EDGE_FROM_STEP @5 30096 #
coedge $-1 -1 $-1 $317 $318 $129 $208 forward $319 $-1 #
edge $320 -1 $-1 $213 1.0471975511965985 $221 2.0943951023931953 $129 $321 forward @7 unknown #
coedge $-1 -1 $-1 $322 $130 $323 $324 reversed $211 $-1 #
coedge $-1 -1 $-1 $130 $325 $305 $326 forward $211 $-1 #
loop $-1 -1 $-1 $-1 $130 $233 #
truecolor-adesk-attrib $-1 -1 $327 $-1 $131 -1056964608 #
vertex $-1 -1 $-1 $131 $328 #
ellipse-curve $-1 -1 $-1 -11.308714805394741 -98.378477004994693 142.79454740500006 -1.1515985885851427e-15 -2.6182224368083235e-16 -1 0.31560486113676173 5.0701867393249787 -1.6909377806065745e-15 1 F -3.1415926535897931 F -2.0943951023931948 #
truecolor-adesk-attrib $-1 -1 $329 $-1 $132 -1056964608 #
face $330 -1 $-1 $331 $332 $3 $-1 $333 reversed single #
cone-surface $-1 -1 $-1 -11.308714805394739 -98.378477004994693 143.90579740500007 -1.1515985885851427e-15 -2.6182224368083235e-16 -1 0.24656629776309555 3.961083390097647 -1.3210451410988885e-15 1 I I 0.70710678118654569 0.70710678118654946 3.968750000000008 forward I I I I #
coedge $-1 -1 $-1 $325 $135 $311 $334 forward $211 $-1 #
coedge $-1 -1 $-1 $135 $322 $335 $336 reversed $211 $-1 #
truecolor-adesk-attrib $-1 -1 $337 $-1 $136 -1056964608 #
vertex $-1 -1 $-1 $336 $338 #
ellipse-curve $-1 -1 $-1 -11.308714805394741 -98.378477004994693 142.79454740500006 -1.1515985885851427e-15 -2.6182224368083235e-16 -1 0.31560486113676173 5.0701867393249787 -1.6909377806065745e-15 1 F -1.0471975511965979 F 0 #
DXID-attrib $-1 -1 $-1 $139 $79 @18 ASM_EDGE_FROM_STEP @4 9564 #
coedge $-1 -1 $-1 $141 $141 $339 $340 reversed $80 $-1 #
edge $341 -1 $-1 $342 -3.1415926535897931 $343 1.2246467991473535e-16 $150 $344 forward @7 unknown #
DXID-attrib $-1 -1 $-1 $142 $81 @18 ASM_FACE_FROM_STEP @21 full assembly 5-48455 #
truecolor-adesk-attrib $-1 -1 $345 $-1 $143 -1056964608 #
face $346 -1 $-1 $179 $347 $3 $-1 $348 forward single #
loop $-1 -1 $-1 $-1 $166 $143 #
plane-surface $-1 -1 $-1 -17.646448229550977 -97.98397092857374 134.85704740500006 1.1515985885851427e-15 2.6182224368083235e-16 1 -1.5780243056838086 -25.350933696624892 8.4546889030328715e-15 forward_v I I I I #
DXID-attrib $-1 -1 $-1 $146 $87 @18 ASM_FACE_FROM_STEP @21 full assembly 5-46186 #
truecolor-adesk-attrib $-1 -1 $349 $-1 $147 -1056964608 #
face $350 -1 $-1 $351 $211 $3 $-1 $352 reversed single #
loop $-1 -1 $-1 $-1 $353 $147 #
cone-surface $-1 -1 $-1 -30.321915077863412 -97.194958775731834 142.79454740500009 -1.1515985885851427e-15 -2.6182224368083235e-16 -1 0.31560486113676173 5.0701867393249787 -1.6909377806065745e-15 1 I I 0 1 5.0800000000000018 forward I I I I #
coedge $-1 -1 $-1 $311 $354 $355 $356 forward $148 $-1 #
coedge $-1 -1 $-1 $299 $150 $357 $358 forward $88 $-1 #
coedge $-1 -1 $-1 $150 $299 $359 $360 reversed $88 $-1 #
coedge $-1 -1 $-1 $152 $151 $361 $362 reversed $49 $-1 #
coedge $-1 -1 $-1 $363 $364 $151 $241 reversed $365 $-1 #
edge $366 -1 $-1 $247 0.006826249999999999 $367 0.014763749999999997 $151 $368 forward @7 unknown #
coedge $-1 -1 $-1 $364 $363 $152 $243 forward $365 $-1 #
edge $369 -1 $-1 $246 0.006826249999999999 $370 0.014763749999999997 $152 $371 forward @7 unknown #
coedge $-1 -1 $-1 $153 $153 $363 $372 reversed $178 $-1 #
truecolor-adesk-attrib $-1 -1 $373 $-1 $154 -1056964608 #
vertex $-1 -1 $-1 $154 $374 #
vertex $-1 -1 $-1 $154 $375 #
ellipse-curve $-1 -1 $-1 -30.321915077863419 -97.194958775731834 135.96829740500007 1.1515985885851427e-15 2.6182224368083235e-16 1 -0.15780243056838109 -2.5350933696624929 8.4546889030328834e-16 1 F -3.1415926535897931 F 0 #
coedge $-1 -1 $-1 $285 $292 $155 $250 reversed $286 $-1 #
edge $376 -1 $-1 $255 0 $258 3.1415926535897931 $155 $377 forward @7 unknown #
coedge $-1 -1 $-1 $158 $156 $160 $260 reversed $253 $-1 #
coedge $-1 -1 $-1 $156 $158 $378 $379 reversed $253 $-1 #
loop $-1 -1 $-1 $-1 $156 $380 #
truecolor-adesk-attrib $-1 -1 $381 $-1 $157 -1056964608 #
vertex $-1 -1 $-1 $157 $382 #
straight-curve $-1 -1 $-1 -30.006310216726668 -92.124772036406853 129.14204740500008 43.930381394733772 705.74083174385919 707.10678118654732 F -0.0015715448211871125 F -6.1331736667334942e-18 #
truecolor-adesk-attrib $-1 -1 $383 $-1 $159 -1056964608 #
vertex $-1 -1 $-1 $250 $384 #
straight-curve $-1 -1 $-1 -30.637519939000192 -102.26514551505682 129.14204740500008 -43.930381394732052 -705.74083174385885 707.10678118654789 F -0.0015715448211871125 F -4.9065389333867951e-18 #
edge $385 -1 $-1 $164 -3.1415926535897931 $163 0 $160 $386 forward @7 unknown #
loop $-1 -1 $-1 $-1 $361 $262 #
face $387 -1 $-1 $388 $161 $3 $-1 $389 forward single #
DXID-attrib $-1 -1 $-1 $162 $94 @18 ASM_EDGE_FROM_STEP @5 50163 #
point $-1 -1 $-1 -30.075348780100335 -93.233875385634207 128.03079740500007 #
point $-1 -1 $-1 -30.568481375626526 -101.15604216582946 128.03079740500007 #
coedge $-1 -1 $-1 $390 $166 $391 $392 forward $229 $-1 #
coedge $-1 -1 $-1 $166 $390 $354 $393 forward $229 $-1 #
truecolor-adesk-attrib $-1 -1 $394 $-1 $167 -1056964608 #
ellipse-curve $-1 -1 $-1 -30.321915077863423 -97.194958775731834 134.85704740500009 1.1515985885851427e-15 2.6182224368083235e-16 1 -0.31560486113676151 -5.0701867393249751 1.6909377806065731e-15 1 F 0 F 3.1415926535897931 #
coedge $-1 -1 $-1 $353 $395 $169 $271 forward $234 $-1 #
edge $396 -1 $-1 $172 0 $175 3.1415926535897931 $270 $397 forward @7 unknown #
face $398 -1 $-1 $188 $170 $3 $-1 $399 forward single #
DXID-attrib $-1 -1 $-1 $171 $97 @18 ASM_EDGE_FROM_STEP @5 41249 #
point $-1 -1 $-1 -30.637519939000185 -102.26514551505682 134.85704740500009 #
DXID-attrib $-1 -1 $-1 $174 $99 @18 ASM_EDGE_FROM_STEP @5 30239 #
point $-1 -1 $-1 -30.006310216726664 -92.124772036406853 134.85704740500009 #
truecolor-adesk-attrib $-1 -1 $400 $-1 $177 -1056964608 #
ellipse-curve $-1 -1 $-1 -30.321915077863419 -97.194958775731834 135.96829740500007 1.1515985885851427e-15 2.6182224368083235e-16 1 -0.24656629776309483 -3.9610833900976354 1.3210451410988847e-15 1 F -3.1415926535897931 F 0 #
truecolor-adesk-attrib $-1 -1 $401 $-1 $179 -1056964608 #
plane-surface $-1 -1 $-1 -30.321915077863419 -97.194958775731834 135.96829740500007 1.1515985885851427e-15 2.6182224368083235e-16 1 -1.5780243056838086 -25.350933696624892 8.4546889030328715e-15 forward_v I I I I #
DXID-attrib $-1 -1 $-1 $183 $107 @18 ASM_EDGE_FROM_STEP @5 46662 #
coedge $-1 -1 $-1 $318 $317 $185 $283 reversed $319 $-1 #
edge $402 -1 $-1 $295 -2.0943951023931948 $288 -1.0471975511965979 $185 $403 forward @7 unknown #
coedge $-1 -1 $-1 $404 $186 $405 $406 forward $286 $-1 #
coedge $-1 -1 $-1 $186 $249 $310 $407 reversed $286 $-1 #
loop $-1 -1 $-1 $-1 $293 $351 #
truecolor-adesk-attrib $-1 -1 $408 $-1 $187 -1056964608 #
vertex $-1 -1 $-1 $187 $409 #
ellipse-curve $-1 -1 $-1 -11.308714805394757 -98.378477004994693 129.14204740500006 -1.1515985885851427e-15 -2.6182224368083235e-16 -1 0.31560486113676173 5.0701867393249787 -1.6909377806065745e-15 1 F -1.0471975511965979 F -1.2246467991473537e-16 #
truecolor-adesk-attrib $-1 -1 $410 $-1 $188 -1056964608 #
cone-surface $-1 -1 $-1 -11.308714805394757 -98.378477004994693 129.14204740500006 1.1515985885851427e-15 2.6182224368083235e-16 1 -0.31560486113676173 -5.0701867393249787 1.6909377806065745e-15 1 I I 0.70710678118654757 0.70710678118654757 5.0800000000000018 forward I I I I #
coedge $-1 -1 $-1 $249 $191 $306 $411 reversed $286 $-1 #
coedge $-1 -1 $-1 $191 $404 $412 $413 forward $286 $-1 #
truecolor-adesk-attrib $-1 -1 $414 $-1 $192 -1056964608 #
vertex $-1 -1 $-1 $413 $415 #
ellipse-curve $-1 -1 $-1 -11.308714805394757 -98.378477004994693 129.14204740500006 -1.1515985885851427e-15 -2.6182224368083235e-16 -1 0.31560486113676173 5.0701867393249787 -1.6909377806065745e-15 1 F -3.1415926535897931 F -2.0943951023931948 #
DXID-attrib $-1 -1 $-1 $195 $118 @18 ASM_EDGE_FROM_STEP @5 12887 #
coedge $-1 -1 $-1 $197 $197 $416 $417 forward $119 $-1 #
coedge $-1 -1 $-1 $238 $237 $197 $300 reversed $88 $-1 #
edge $418 -1 $-1 $419 0 $420 3.1415926535897931 $299 $421 forward @7 unknown #
DXID-attrib $-1 -1 $-1 $198 $120 @18 ASM_FACE_FROM_STEP @21 full assembly 5-48026 #
truecolor-adesk-attrib $-1 -1 $422 $-1 $199 -1056964608 #
loop $-1 -1 $-1 $-1 $357 $199 #
cone-surface $-1 -1 $-1 -11.308714805394741 -98.378477004994693 142.79454740500006 -1.1515985885851427e-15 -2.6182224368083235e-16 -1 0.15780243056838086 2.5350933696624893 -8.4546889030328725e-16 1 I I 0 1 2.5400000000000009 forward I I I I #
coedge $-1 -1 $-1 $423 $201 $210 $326 reversed $307 $-1 #
coedge $-1 -1 $-1 $201 $424 $292 $411 forward $307 $-1 #
loop $-1 -1 $-1 $-1 $305 $315 #
truecolor-adesk-attrib $-1 -1 $425 $-1 $202 -1056964608 #
straight-curve $-1 -1 $-1 -11.624319666531502 -103.44866374431966 142.79454740500006 -1.1515985885851431e-12 -2.618222436808324e-13 -1000.0000000000002 F 0 F 0.013652499999999998 #
coedge $-1 -1 $-1 $426 $203 $285 $407 forward $148 $-1 #
coedge $-1 -1 $-1 $203 $236 $218 $334 reversed $148 $-1 #
truecolor-adesk-attrib $-1 -1 $427 $-1 $204 -1056964608 #
straight-curve $-1 -1 $-1 -10.993109944257979 -93.308290265669712 142.79454740500006 -1.1515985885851431e-12 -2.618222436808324e-13 -1000.0000000000002 F 0 F 0.013652499999999998 #
truecolor-adesk-attrib $-1 -1 $428 $-1 $205 -1056964608 #
face $429 -1 $-1 $120 $307 $3 $-1 $430 reversed single #
cone-surface $-1 -1 $-1 -11.308714805394741 -98.378477004994693 142.79454740500006 -1.1515985885851427e-15 -2.6182224368083235e-16 -1 0.31560486113676173 5.0701867393249787 -1.6909377806065745e-15 1 I I 0 1 5.0800000000000018 forward I I I I #
coedge $-1 -1 $-1 $282 $207 $431 $432 reversed $319 $-1 #
coedge $-1 -1 $-1 $207 $282 $433 $434 forward $319 $-1 #
loop $-1 -1 $-1 $-1 $318 $331 #
truecolor-adesk-attrib $-1 -1 $435 $-1 $208 -1056964608 #
ellipse-curve $-1 -1 $-1 -11.308714805394741 -98.378477004994693 142.79454740500006 -1.1515985885851427e-15 -2.6182224368083235e-16 -1 -0.31560486113676178 -5.0701867393249804 1.6909377806065747e-15 1 F 1.0471975511965985 F 2.0943951023931953 #
coedge $-1 -1 $-1 $219 $209 $436 $437 reversed $211 $-1 #
coedge $-1 -1 $-1 $433 $438 $209 $324 forward $332 $-1 #
edge $439 -1 $-1 $440 0 $213 0.0019505909487750506 $209 $441 forward @7 unknown #
coedge $-1 -1 $-1 $210 $218 $442 $443 reversed $211 $-1 #
edge $444 -1 $-1 $445 -0.0063500000000000023 $73 -7.8164822100656238e-19 $210 $446 forward @7 unknown #
DXID-attrib $-1 -1 $-1 $212 $131 @18 ASM_EDGE_FROM_STEP @5 63145 #
point $-1 -1 $-1 -15.857427754149546 -100.64024854735487 142.79454740500006 #
DXID-attrib $-1 -1 $-1 $215 $132 @18 ASM_FACE_FROM_STEP @20 full assembly 5-1561 #
truecolor-adesk-attrib $-1 -1 $447 $-1 $216 -1056964608 #
face $448 -1 $-1 $449 $319 $3 $-1 $450 forward single #
loop $-1 -1 $-1 $-1 $438 $216 #
plane-surface $-1 -1 $-1 -17.804250660119372 -100.51906429823623 122.3617961508635 -0.062126941168653867 -0.99806825577263336 3.3286176783593975e-16 25.350933696624892 -1.5780243056838086 -2.8780937600051743e-14 forward_v I I I I #
edge $451 -1 $-1 $77 0 $452 0.0063500000000000015 $311 $453 forward @7 unknown #
coedge $-1 -1 $-1 $454 $431 $219 $336 forward $455 $-1 #
edge $456 -1 $-1 $221 -0.001950590948775051 $457 0 $219 $458 forward @7 unknown #
DXID-attrib $-1 -1 $-1 $220 $136 @18 ASM_EDGE_FROM_STEP @4 1389 #
point $-1 -1 $-1 -15.541822893012784 -95.570061808029905 142.79454740500006 #
coedge $-1 -1 $-1 $359 $357 $224 $340 forward $303 $-1 #
edge $459 -1 $-1 $343 1.2246467991473535e-16 $342 3.1415926535897931 $339 $460 forward @7 unknown #
truecolor-adesk-attrib $-1 -1 $461 $-1 $225 -1056964608 #
vertex $-1 -1 $-1 $225 $462 #
vertex $-1 -1 $-1 $225 $463 #
ellipse-curve $-1 -1 $-1 -11.308714805394739 -98.378477004994693 143.90579740500007 1.1515985885851427e-15 2.6182224368083235e-16 1 -0.15780243056838086 -2.5350933696624893 8.4546889030328725e-16 1 F -3.1415926535897931 F 1.2246467991473535e-16 #
DXID-attrib $-1 -1 $-1 $227 $143 @18 ASM_FACE_FROM_STEP @21 full assembly 5-16486 #
truecolor-adesk-attrib $-1 -1 $464 $-1 $228 -1056964608 #
loop $-1 -1 $-1 $-1 $442 $228 #
cone-surface $-1 -1 $-1 -17.646448229550977 -97.98397092857374 134.85704740500006 1.1515985885851427e-15 2.6182224368083235e-16 1 -0.31560486113676178 -5.0701867393249804 1.6909377806065747e-15 1 I I 0 1 5.0800000000000027 forward I I I I #
DXID-attrib $-1 -1 $-1 $232 $147 @18 ASM_FACE_FROM_STEP @21 full assembly 5-44435 #
truecolor-adesk-attrib $-1 -1 $465 $-1 $233 -1056964608 #
face $466 -1 $-1 $205 $286 $3 $-1 $467 forward single #
plane-surface $-1 -1 $-1 -11.308714805394741 -98.378477004994693 142.79454740500006 -1.1515985885851427e-15 -2.6182224368083235e-16 -1 1.5780243056838086 25.350933696624892 -8.4546889030328715e-15 forward_v I I I I #
coedge $-1 -1 $-1 $378 $270 $426 $468 forward $234 $-1 #
coedge $-1 -1 $-1 $236 $426 $267 $393 reversed $148 $-1 #
coedge $-1 -1 $-1 $469 $442 $236 $356 reversed $347 $-1 #
edge $470 -1 $-1 $471 0 $452 0.0079375000000000001 $236 $472 forward @7 unknown #
coedge $-1 -1 $-1 $339 $416 $237 $358 reversed $303 $-1 #
edge $473 -1 $-1 $343 -0.0011112499999999992 $420 0.014763749999999997 $237 $474 forward @7 unknown #
coedge $-1 -1 $-1 $416 $339 $238 $360 forward $303 $-1 #
edge $475 -1 $-1 $342 -0.0011112499999999992 $419 0.014763749999999997 $238 $476 forward @7 unknown #
coedge $-1 -1 $-1 $477 $477 $239 $362 forward $261 $-1 #
edge $478 -1 $-1 $370 0 $367 3.1415926535897931 $239 $479 forward @7 unknown #
coedge $-1 -1 $-1 $242 $240 $244 $372 forward $365 $-1 #
coedge $-1 -1 $-1 $240 $242 $477 $480 reversed $365 $-1 #
loop $-1 -1 $-1 $-1 $240 $388 #
truecolor-adesk-attrib $-1 -1 $481 $-1 $241 -1056964608 #
vertex $-1 -1 $-1 $241 $482 #
straight-curve $-1 -1 $-1 -30.479717508431794 -99.730052145394325 142.79454740500009 -1.1515985885851431e-12 -2.618222436808324e-13 -1000.0000000000002 F 0.006826249999999999 F 0.014763749999999997 #
truecolor-adesk-attrib $-1 -1 $483 $-1 $243 -1056964608 #
vertex $-1 -1 $-1 $362 $484 #
straight-curve $-1 -1 $-1 -30.164112647295035 -94.659865406069343 142.79454740500009 -1.1515985885851431e-12 -2.618222436808324e-13 -1000.0000000000002 F 0.006826249999999999 F 0.014763749999999997 #
edge $485 -1 $-1 $247 0 $246 3.1415926535897931 $244 $486 forward @7 unknown #
DXID-attrib $-1 -1 $-1 $245 $154 @18 ASM_EDGE_FROM_STEP @4 4886 #
point $-1 -1 $-1 -30.164112647295042 -94.659865406069343 135.96829740500007 #
point $-1 -1 $-1 -30.479717508431804 -99.730052145394325 135.96829740500007 #
truecolor-adesk-attrib $-1 -1 $487 $-1 $250 -1056964608 #
ellipse-curve $-1 -1 $-1 -30.32191507786343 -97.194958775731834 129.14204740500008 -1.1515985885851427e-15 -2.6182224368083235e-16 -1 0.31560486113676156 5.0701867393249769 -1.6909377806065737e-15 1 F 0 F 3.1415926535897931 #
coedge $-1 -1 $-1 $395 $353 $252 $379 forward $234 $-1 #
edge $488 -1 $-1 $255 0 $258 3.1415926535897931 $378 $489 forward @7 unknown #
face $490 -1 $-1 $272 $253 $3 $-1 $491 forward single #
DXID-attrib $-1 -1 $-1 $254 $157 @18 ASM_EDGE_FROM_STEP @3 804 #
point $-1 -1 $-1 -30.006310216726668 -92.124772036406853 129.14204740500008 #
DXID-attrib $-1 -1 $-1 $257 $159 @18 ASM_EDGE_FROM_STEP @4 1747 #
point $-1 -1 $-1 -30.637519939000192 -102.26514551505682 129.14204740500008 #
truecolor-adesk-attrib $-1 -1 $492 $-1 $260 -1056964608 #
ellipse-curve $-1 -1 $-1 -30.32191507786343 -97.194958775731834 128.03079740500007 -1.1515985885851427e-15 -2.6182224368083235e-16 -1 0.24656629776309458 3.9610833900976314 -1.3210451410988834e-15 1 F -3.1415926535897931 F 0 #
truecolor-adesk-attrib $-1 -1 $493 $-1 $262 -1056964608 #
face $494 -1 $-1 $380 $365 $3 $-1 $495 reversed single #
plane-surface $-1 -1 $-1 -11.308714805394757 -98.378477004994693 128.03079740500004 -1.1515985885851427e-15 -2.6182224368083235e-16 -1 1.5780243056838086 25.350933696624892 -8.4546889030328715e-15 forward_v I I I I #
coedge $-1 -1 $-1 $267 $266 $469 $496 forward $229 $-1 #
coedge $-1 -1 $-1 $424 $423 $266 $392 reversed $307 $-1 #
edge $497 -1 $-1 $172 0.005079999999999996 $498 0.017779999999999997 $391 $499 forward @7 unknown #
edge $500 -1 $-1 $471 -0.017779999999999997 $175 -0.005079999999999996 $354 $501 forward @7 unknown #
DXID-attrib $-1 -1 $-1 $268 $167 @18 ASM_EDGE_FROM_STEP @4 2066 #
coedge $-1 -1 $-1 $270 $378 $424 $502 reversed $234 $-1 #
truecolor-adesk-attrib $-1 -1 $503 $-1 $271 -1056964608 #
ellipse-curve $-1 -1 $-1 -30.321915077863423 -97.194958775731834 134.85704740500009 -1.1515985885851427e-15 -2.6182224368083235e-16 -1 -0.31560486113676173 -5.0701867393249787 1.6909377806065745e-15 1 F 0 F 3.1415926535897931 #
truecolor-adesk-attrib $-1 -1 $504 $-1 $272 -1056964608 #
cone-surface $-1 -1 $-1 -30.321915077863419 -97.194958775731834 135.96829740500007 -1.1515985885851427e-15 -2.6182224368083235e-16 -1 0.24656629776309488 3.9610833900976363 -1.3210451410988849e-15 1 I I 0.70710678118654635 0.70710678118654879 3.9687499999999973 forward I I I I #
DXID-attrib $-1 -1 $-1 $277 $177 @18 ASM_EDGE_FROM_STEP @5 18769 #
DXID-attrib $-1 -1 $-1 $279 $179 @18 ASM_FACE_FROM_STEP @21 full assembly 5-10474 #
truecolor-adesk-attrib $-1 -1 $505 $-1 $283 -1056964608 #
ellipse-curve $-1 -1 $-1 -11.308714805394757 -98.378477004994693 129.14204740500006 -1.1515985885851427e-15 -2.6182224368083235e-16 -1 0.31560486113676178 5.0701867393249804 -1.6909377806065747e-15 1 F -2.0943951023931948 F -1.0471975511965979 #
coedge $-1 -1 $-1 $293 $284 $506 $507 forward $286 $-1 #
coedge $-1 -1 $-1 $431 $454 $284 $406 reversed $455 $-1 #
edge $508 -1 $-1 $288 -0.001950590948775051 $509 0 $284 $510 forward @7 unknown #
edge $511 -1 $-1 $112 6.2212057396685575e-19 $255 0.019050000000000001 $310 $512 forward @7 unknown #
DXID-attrib $-1 -1 $-1 $287 $187 @18 ASM_EDGE_FROM_STEP @5 41237 #
point $-1 -1 $-1 -15.5418228930128 -95.570061808029905 129.14204740500006 #
DXID-attrib $-1 -1 $-1 $290 $188 @18 ASM_FACE_FROM_STEP @21 full assembly 5-17627 #
edge $513 -1 $-1 $258 -0.019050000000000004 $116 0 $292 $514 forward @7 unknown #
coedge $-1 -1 $-1 $438 $433 $293 $413 reversed $332 $-1 #
edge $515 -1 $-1 $516 0 $295 0.0019505909487750499 $293 $517 forward @7 unknown #
DXID-attrib $-1 -1 $-1 $294 $192 @18 ASM_EDGE_FROM_STEP @5 15028 #
point $-1 -1 $-1 -15.857427754149562 -100.64024854735489 129.14204740500006 #
coedge $-1 -1 $-1 $357 $359 $298 $417 reversed $303 $-1 #
edge $518 -1 $-1 $420 -3.1415926535897931 $419 0 $298 $519 forward @7 unknown #
truecolor-adesk-attrib $-1 -1 $520 $-1 $300 -1056964608 #
vertex $-1 -1 $-1 $300 $521 #
vertex $-1 -1 $-1 $358 $522 #
ellipse-curve $-1 -1 $-1 -11.308714805394757 -98.378477004994693 128.03079740500007 1.1515985885851427e-15 2.6182224368083235e-16 1 0.15780243056838086 2.5350933696624893 -8.4546889030328725e-16 1 F 0 F 3.1415926535897931 #
DXID-attrib $-1 -1 $-1 $302 $199 @18 ASM_FACE_FROM_STEP @21 full assembly 5-14921 #
coedge $-1 -1 $-1 $391 $305 $523 $524 reversed $307 $-1 #
coedge $-1 -1 $-1 $306 $391 $395 $502 forward $307 $-1 #
DXID-attrib $-1 -1 $-1 $308 $202 @18 ASM_EDGE_FROM_STEP @5 48859 #
coedge $-1 -1 $-1 $354 $310 $353 $468 reversed $148 $-1 #
DXID-attrib $-1 -1 $-1 $312 $204 @18 ASM_EDGE_FROM_STEP @5 35283 #
DXID-attrib $-1 -1 $-1 $314 $205 @18 ASM_FACE_FROM_STEP @21 full assembly 5-39771 #
truecolor-adesk-attrib $-1 -1 $525 $-1 $315 -1056964608 #
plane-surface $-1 -1 $-1 -11.624319666531502 -103.44866374431966 142.79454740500006 0.062126941168653776 0.99806825577263336 -3.3286176783593965e-16 -25.350933696624892 1.5780243056838064 2.8780937600051743e-14 forward_v I I I I #
coedge $-1 -1 $-1 $335 $405 $317 $432 forward $455 $-1 #
edge $526 -1 $-1 $288 0.0067802512541365626 $221 0.020432751254136558 $317 $527 forward @7 unknown #
coedge $-1 -1 $-1 $412 $323 $318 $434 reversed $332 $-1 #
edge $528 -1 $-1 $295 0.00678025125413656 $213 0.020432751254136558 $433 $529 forward @7 unknown #
DXID-attrib $-1 -1 $-1 $320 $208 @18 ASM_EDGE_FROM_STEP @5 63581 #
coedge $-1 -1 $-1 $530 $531 $322 $437 forward $532 $-1 #
edge $533 -1 $-1 $457 -3.1415926535897931 $440 0 $322 $534 forward @7 unknown #
coedge $-1 -1 $-1 $323 $412 $530 $535 forward $332 $-1 #
truecolor-adesk-attrib $-1 -1 $536 $-1 $324 -1056964608 #
vertex $-1 -1 $-1 $324 $537 #
straight-curve $-1 -1 $-1 -17.804250660119347 -100.51906429823623 142.79454740500006 998.06825577263362 -62.126941168653879 -1.1331077795295963e-12 F 0 F 0.0019505909487750506 #
coedge $-1 -1 $-1 $355 $523 $325 $443 forward $347 $-1 #
edge $538 -1 $-1 $445 0 $452 3.1415926535897931 $325 $539 forward @7 unknown #
truecolor-adesk-attrib $-1 -1 $540 $-1 $326 -1056964608 #
vertex $-1 -1 $-1 $443 $541 #
straight-curve $-1 -1 $-1 -11.624319666531502 -103.44866374431966 142.79454740500006 998.06825577263362 -62.126941168653786 -1.1331077795295963e-12 F -0.0063500000000000023 F -7.8164822100656238e-19 #
DXID-attrib $-1 -1 $-1 $330 $216 @18 ASM_FACE_FROM_STEP @21 full assembly 5-34033 #
truecolor-adesk-attrib $-1 -1 $542 $-1 $331 -1056964608 #
face $543 -1 $-1 $544 $455 $3 $-1 $545 reversed single #
cone-surface $-1 -1 $-1 -11.308714805394764 -98.378477004994693 122.3617961508635 1.1515985885851427e-15 2.6182224368083235e-16 1 -0.31560486113676178 -5.0701867393249804 1.6909377806065747e-15 1 I I 0 1 5.0800000000000027 forward I I I I #
truecolor-adesk-attrib $-1 -1 $546 $-1 $334 -1056964608 #
vertex $-1 -1 $-1 $356 $547 #
straight-curve $-1 -1 $-1 -10.993109944257979 -93.308290265669712 142.79454740500006 -998.06825577263362 62.126941168653751 1.1331077795295963e-12 F 0 F 0.0063500000000000015 #
coedge $-1 -1 $-1 $405 $335 $531 $548 reversed $455 $-1 #
loop $-1 -1 $-1 $-1 $431 $449 #
truecolor-adesk-attrib $-1 -1 $549 $-1 $336 -1056964608 #
vertex $-1 -1 $-1 $437 $550 #
straight-curve $-1 -1 $-1 -17.488645798982585 -95.448877558911249 142.79454740500006 -998.06825577263362 62.126941168653651 1.1331077795295963e-12 F -0.001950590948775051 F 0 #
truecolor-adesk-attrib $-1 -1 $551 $-1 $340 -1056964608 #
ellipse-curve $-1 -1 $-1 -11.308714805394739 -98.378477004994693 143.90579740500007 1.1515985885851427e-15 2.6182224368083235e-16 1 -0.15780243056838086 -2.5350933696624893 8.4546889030328725e-16 1 F 1.2246467991473535e-16 F 3.1415926535897931 #
DXID-attrib $-1 -1 $-1 $341 $225 @18 ASM_EDGE_FROM_STEP @5 62897 #
point $-1 -1 $-1 -11.150912374826358 -95.843383635332202 143.90579740500004 #
point $-1 -1 $-1 -11.466517235963121 -100.91357037465718 143.90579740500007 #
DXID-attrib $-1 -1 $-1 $346 $228 @18 ASM_FACE_FROM_STEP @21 full assembly 5-30380 #
DXID-attrib $-1 -1 $-1 $350 $233 @18 ASM_FACE_FROM_STEP @21 full assembly 5-17096 #
truecolor-adesk-attrib $-1 -1 $552 $-1 $351 -1056964608 #
plane-surface $-1 -1 $-1 -11.308714805394757 -98.378477004994693 129.14204740500006 -1.1515985885851427e-15 -2.6182224368083235e-16 -1 1.5780243056838086 25.350933696624892 -8.4546889030328715e-15 forward_v I I I I #
edge $553 -1 $-1 $175 0.0079375000000000001 $255 0.013652499999999998 $426 $554 forward @7 unknown #
coedge $-1 -1 $-1 $523 $355 $390 $496 reversed $347 $-1 #
truecolor-adesk-attrib $-1 -1 $555 $-1 $356 -1056964608 #
vertex $-1 -1 $-1 $356 $556 #
straight-curve $-1 -1 $-1 -17.330843368414214 -92.913784189248759 134.85704740500006 1.1515985885851431e-12 2.618222436808324e-13 1000.0000000000002 F 0 F 0.0079375000000000001 #
truecolor-adesk-attrib $-1 -1 $557 $-1 $358 -1056964608 #
straight-curve $-1 -1 $-1 -11.466517235963121 -100.91357037465718 142.79454740500006 -1.1515985885851431e-12 -2.618222436808324e-13 -1000.0000000000002 F -0.0011112499999999992 F 0.014763749999999997 #
truecolor-adesk-attrib $-1 -1 $558 $-1 $360 -1056964608 #
straight-curve $-1 -1 $-1 -11.15091237482636 -95.843383635332202 142.79454740500006 -1.1515985885851431e-12 -2.618222436808324e-13 -1000.0000000000002 F -0.0011112499999999992 F 0.014763749999999997 #
coedge $-1 -1 $-1 $361 $361 $364 $480 forward $261 $-1 #
truecolor-adesk-attrib $-1 -1 $559 $-1 $362 -1056964608 #
ellipse-curve $-1 -1 $-1 -30.32191507786343 -97.194958775731834 128.03079740500007 1.1515985885851427e-15 2.6182224368083235e-16 1 0.157802430568381 2.535093369662492 -8.4546889030328794e-16 1 F 0 F 3.1415926535897931 #
edge $560 -1 $-1 $367 -3.1415926535897931 $370 0 $477 $561 forward @7 unknown #
DXID-attrib $-1 -1 $-1 $366 $241 @18 ASM_EDGE_FROM_STEP @5 35687 #
point $-1 -1 $-1 -30.479717508431811 -99.730052145394325 128.03079740500007 #
DXID-attrib $-1 -1 $-1 $369 $243 @18 ASM_EDGE_FROM_STEP @5 48320 #
point $-1 -1 $-1 -30.164112647295049 -94.659865406069343 128.03079740500007 #
truecolor-adesk-attrib $-1 -1 $562 $-1 $372 -1056964608 #
ellipse-curve $-1 -1 $-1 -30.321915077863419 -97.194958775731834 135.96829740500007 1.1515985885851427e-15 2.6182224368083235e-16 1 -0.15780243056838109 -2.5350933696624929 8.4546889030328834e-16 1 F 0 F 3.1415926535897931 #
DXID-attrib $-1 -1 $-1 $376 $250 @18 ASM_EDGE_FROM_STEP @5 42653 #
truecolor-adesk-attrib $-1 -1 $563 $-1 $379 -1056964608 #
ellipse-curve $-1 -1 $-1 -30.32191507786343 -97.194958775731834 129.14204740500008 1.1515985885851427e-15 2.6182224368083235e-16 1 0.31560486113676173 5.0701867393249787 -1.6909377806065745e-15 1 F 0 F 3.1415926535897931 #
truecolor-adesk-attrib $-1 -1 $564 $-1 $380 -1056964608 #
cone-surface $-1 -1 $-1 -30.32191507786343 -97.194958775731834 129.14204740500008 1.1515985885851427e-15 2.6182224368083235e-16 1 -0.31560486113676173 -5.0701867393249787 1.6909377806065745e-15 1 I I 0.70710678118654779 0.70710678118654724 5.0800000000000018 forward I I I I #
DXID-attrib $-1 -1 $-1 $385 $260 @18 ASM_EDGE_FROM_STEP @5 10380 #
DXID-attrib $-1 -1 $-1 $387 $262 @18 ASM_FACE_FROM_STEP @21 full assembly 5-23564 #
truecolor-adesk-attrib $-1 -1 $565 $-1 $388 -1056964608 #
cone-surface $-1 -1 $-1 -30.321915077863412 -97.194958775731834 142.79454740500009 -1.1515985885851427e-15 -2.6182224368083235e-16 -1 0.157802430568381 2.535093369662492 -8.4546889030328794e-16 1 I I 0 1 2.5400000000000036 forward I I I I #
edge $566 -1 $-1 $498 0 $471 3.1415926535897931 $390 $567 forward @7 unknown #
truecolor-adesk-attrib $-1 -1 $568 $-1 $392 -1056964608 #
vertex $-1 -1 $-1 $524 $569 #
straight-curve $-1 -1 $-1 -35.70770667832516 -101.94954065392005 134.85704740500009 998.06825577263362 -62.126941168653879 -1.1331077795295963e-12 F 0.005079999999999996 F 0.017779999999999997 #
truecolor-adesk-attrib $-1 -1 $570 $-1 $393 -1056964608 #
straight-curve $-1 -1 $-1 -35.076496956051635 -91.80916717527009 134.85704740500009 -998.06825577263362 62.126941168653879 1.1331077795295963e-12 F -0.017779999999999997 F -0.005079999999999996 #
edge $571 -1 $-1 $172 0.0079375000000000001 $258 0.013652499999999998 $395 $572 forward @7 unknown #
DXID-attrib $-1 -1 $-1 $396 $271 @18 ASM_EDGE_FROM_STEP @5 45955 #
DXID-attrib $-1 -1 $-1 $398 $272 @18 ASM_FACE_FROM_STEP @21 full assembly 5-12537 #
DXID-attrib $-1 -1 $-1 $402 $283 @18 ASM_EDGE_FROM_STEP @5 16400 #
coedge $-1 -1 $-1 $531 $530 $404 $507 reversed $532 $-1 #
edge $573 -1 $-1 $509 0 $516 3.1415926535897931 $404 $574 forward @7 unknown #
truecolor-adesk-attrib $-1 -1 $575 $-1 $406 -1056964608 #
vertex $-1 -1 $-1 $406 $576 #
straight-curve $-1 -1 $-1 -17.488645798982603 -95.448877558911249 129.14204740500006 -998.06825577263362 62.126941168653651 1.1331077795295963e-12 F -0.001950590948775051 F 0 #
truecolor-adesk-attrib $-1 -1 $577 $-1 $407 -1056964608 #
straight-curve $-1 -1 $-1 -10.993109944257995 -93.308290265669712 129.14204740500006 -998.06825577263362 62.126941168653751 1.1331077795295963e-12 F 6.2212057396685575e-19 F 0.019050000000000001 #
truecolor-adesk-attrib $-1 -1 $578 $-1 $411 -1056964608 #
straight-curve $-1 -1 $-1 -11.624319666531518 -103.44866374431967 129.14204740500006 998.06825577263362 -62.126941168653786 -1.1331077795295963e-12 F -0.019050000000000004 F 0 #
truecolor-adesk-attrib $-1 -1 $579 $-1 $413 -1056964608 #
vertex $-1 -1 $-1 $413 $580 #
straight-curve $-1 -1 $-1 -17.804250660119365 -100.51906429823623 129.14204740500006 998.06825577263362 -62.126941168653879 -1.1331077795295963e-12 F 0 F 0.0019505909487750499 #
truecolor-adesk-attrib $-1 -1 $581 $-1 $417 -1056964608 #
ellipse-curve $-1 -1 $-1 -11.308714805394757 -98.378477004994693 128.03079740500007 1.1515985885851427e-15 2.6182224368083235e-16 1 0.15780243056838086 2.5350933696624893 -8.4546889030328725e-16 1 F -3.1415926535897931 F 0 #
DXID-attrib $-1 -1 $-1 $418 $300 @18 ASM_EDGE_FROM_STEP @5 27420 #
point $-1 -1 $-1 -11.150912374826378 -95.843383635332202 128.03079740500004 #
point $-1 -1 $-1 -11.466517235963138 -100.91357037465718 128.03079740500007 #
coedge $-1 -1 $-1 $442 $469 $423 $524 forward $347 $-1 #
edge $582 -1 $-1 $498 0 $445 0.0079375000000000001 $423 $583 forward @7 unknown #
DXID-attrib $-1 -1 $-1 $429 $315 @18 ASM_FACE_FROM_STEP @21 full assembly 5-60752 #
truecolor-adesk-attrib $-1 -1 $584 $-1 $432 -1056964608 #
straight-curve $-1 -1 $-1 -15.541822893012807 -95.570061808029905 122.3617961508635 1.1515985885851431e-12 2.618222436808324e-13 1000.0000000000002 F 0.0067802512541365626 F 0.020432751254136558 #
truecolor-adesk-attrib $-1 -1 $585 $-1 $434 -1056964608 #
straight-curve $-1 -1 $-1 -15.857427754149569 -100.64024854735489 122.3617961508635 1.1515985885851431e-12 2.618222436808324e-13 1000.0000000000002 F 0.00678025125413656 F 0.020432751254136558 #
coedge $-1 -1 $-1 $506 $436 $438 $535 reversed $532 $-1 #
coedge $-1 -1 $-1 $436 $506 $454 $548 forward $532 $-1 #
loop $-1 -1 $-1 $-1 $531 $544 #
truecolor-adesk-attrib $-1 -1 $586 $-1 $437 -1056964608 #
ellipse-curve $-1 -1 $-1 -17.646448229550966 -97.98397092857374 142.79454740500006 1.1515985885851427e-15 2.6182224368083235e-16 1 -0.15780243056838086 -2.5350933696624893 8.4546889030328725e-16 1 F -3.1415926535897931 F 0 #
edge $587 -1 $-1 $516 0.0067802512541365626 $440 0.020432751254136558 $438 $588 forward @7 unknown #
DXID-attrib $-1 -1 $-1 $439 $324 @18 ASM_EDGE_FROM_STEP @5 41650 #
point $-1 -1 $-1 -17.804250660119347 -100.51906429823623 142.79454740500006 #
truecolor-adesk-attrib $-1 -1 $589 $-1 $443 -1056964608 #
ellipse-curve $-1 -1 $-1 -17.646448229550966 -97.98397092857374 142.79454740500006 -1.1515985885851427e-15 -2.6182224368083235e-16 -1 -0.31560486113676178 -5.0701867393249804 1.6909377806065747e-15 1 F 0 F 3.1415926535897931 #
DXID-attrib $-1 -1 $-1 $444 $326 @18 ASM_EDGE_FROM_STEP @5 34978 #
point $-1 -1 $-1 -17.962053090687728 -103.05415766789872 142.79454740500006 #
DXID-attrib $-1 -1 $-1 $448 $331 @18 ASM_FACE_FROM_STEP @21 full assembly 5-58277 #
truecolor-adesk-attrib $-1 -1 $590 $-1 $449 -1056964608 #
face $591 -1 $-1 $-1 $532 $3 $-1 $592 reversed single #
plane-surface $-1 -1 $-1 -17.48864579898261 -95.448877558911249 122.3617961508635 0.062126941168653645 0.99806825577263336 -3.328617678359395e-16 -25.350933696624892 1.578024305683803 2.8780937600051743e-14 forward_v I I I I #
DXID-attrib $-1 -1 $-1 $451 $334 @18 ASM_EDGE_FROM_STEP @5 31268 #
point $-1 -1 $-1 -17.330843368414204 -92.913784189248759 142.79454740500006 #
edge $593 -1 $-1 $509 0.0067802512541365626 $457 0.020432751254136558 $454 $594 forward @7 unknown #
DXID-attrib $-1 -1 $-1 $456 $336 @18 ASM_EDGE_FROM_STEP @4 4281 #
point $-1 -1 $-1 -17.488645798982585 -95.448877558911249 142.79454740500006 #
DXID-attrib $-1 -1 $-1 $459 $340 @18 ASM_EDGE_FROM_STEP @5 49950 #
DXID-attrib $-1 -1 $-1 $466 $351 @18 ASM_FACE_FROM_STEP @21 full assembly 5-55076 #
truecolor-adesk-attrib $-1 -1 $595 $-1 $468 -1056964608 #
straight-curve $-1 -1 $-1 -30.00631021672665 -92.124772036406853 142.79454740500009 -1.1515985885851431e-12 -2.618222436808324e-13 -1000.0000000000002 F 0.0079375000000000001 F 0.013652499999999998 #
DXID-attrib $-1 -1 $-1 $470 $356 @18 ASM_EDGE_FROM_STEP @4 6722 #
point $-1 -1 $-1 -17.330843368414214 -92.913784189248759 134.85704740500006 #
DXID-attrib $-1 -1 $-1 $473 $358 @18 ASM_EDGE_FROM_STEP @4 5378 #
DXID-attrib $-1 -1 $-1 $475 $360 @18 ASM_EDGE_FROM_STEP @5 32248 #
DXID-attrib $-1 -1 $-1 $478 $362 @18 ASM_EDGE_FROM_STEP @5 43155 #
truecolor-adesk-attrib $-1 -1 $596 $-1 $480 -1056964608 #
ellipse-curve $-1 -1 $-1 -30.32191507786343 -97.194958775731834 128.03079740500007 1.1515985885851427e-15 2.6182224368083235e-16 1 0.157802430568381 2.535093369662492 -8.4546889030328794e-16 1 F -3.1415926535897931 F 0 #
DXID-attrib $-1 -1 $-1 $485 $372 @18 ASM_EDGE_FROM_STEP @5 44406 #
DXID-attrib $-1 -1 $-1 $488 $379 @18 ASM_EDGE_FROM_STEP @4 9152 #
DXID-attrib $-1 -1 $-1 $490 $380 @18 ASM_FACE_FROM_STEP @20 full assembly 5-8738 #
DXID-attrib $-1 -1 $-1 $494 $388 @18 ASM_FACE_FROM_STEP @20 full assembly 5-8397 #
truecolor-adesk-attrib $-1 -1 $597 $-1 $496 -1056964608 #
ellipse-curve $-1 -1 $-1 -17.646448229550977 -97.98397092857374 134.85704740500006 -1.1515985885851427e-15 -2.6182224368083235e-16 -1 -0.31560486113676178 -5.0701867393249804 1.6909377806065747e-15 1 F 0 F 3.1415926535897931 #
DXID-attrib $-1 -1 $-1 $497 $392 @18 ASM_EDGE_FROM_STEP @5 16718 #
point $-1 -1 $-1 -17.962053090687736 -103.05415766789872 134.85704740500006 #
DXID-attrib $-1 -1 $-1 $500 $393 @18 ASM_EDGE_FROM_STEP @5 44627 #
truecolor-adesk-attrib $-1 -1 $598 $-1 $502 -1056964608 #
straight-curve $-1 -1 $-1 -30.637519939000175 -102.26514551505682 142.79454740500009 -1.1515985885851431e-12 -2.618222436808324e-13 -1000.0000000000002 F 0.0079375000000000001 F 0.013652499999999998 #
truecolor-adesk-attrib $-1 -1 $599 $-1 $507 -1056964608 #
ellipse-curve $-1 -1 $-1 -17.64644822955098 -97.98397092857374 129.14204740500006 1.1515985885851427e-15 2.6182224368083235e-16 1 0.15780243056838086 2.5350933696624893 -8.4546889030328725e-16 1 F 0 F 3.1415926535897931 #
DXID-attrib $-1 -1 $-1 $508 $406 @18 ASM_EDGE_FROM_STEP @5 63536 #
point $-1 -1 $-1 -17.488645798982603 -95.448877558911249 129.14204740500006 #
DXID-attrib $-1 -1 $-1 $511 $407 @18 ASM_EDGE_FROM_STEP @5 31552 #
DXID-attrib $-1 -1 $-1 $513 $411 @18 ASM_EDGE_FROM_STEP @5 12896 #
DXID-attrib $-1 -1 $-1 $515 $413 @18 ASM_EDGE_FROM_STEP @5 39464 #
point $-1 -1 $-1 -17.804250660119365 -100.51906429823623 129.14204740500006 #
DXID-attrib $-1 -1 $-1 $518 $417 @18 ASM_EDGE_FROM_STEP @5 57112 #
truecolor-adesk-attrib $-1 -1 $600 $-1 $524 -1056964608 #
straight-curve $-1 -1 $-1 -17.962053090687736 -103.05415766789872 134.85704740500006 1.1515985885851431e-12 2.618222436808324e-13 1000.0000000000002 F 0 F 0.0079375000000000001 #
DXID-attrib $-1 -1 $-1 $526 $432 @18 ASM_EDGE_FROM_STEP @5 36950 #
DXID-attrib $-1 -1 $-1 $528 $434 @18 ASM_EDGE_FROM_STEP @3 886 #
DXID-attrib $-1 -1 $-1 $533 $437 @18 ASM_EDGE_FROM_STEP @5 26778 #
truecolor-adesk-attrib $-1 -1 $601 $-1 $535 -1056964608 #
straight-curve $-1 -1 $-1 -17.804250660119372 -100.51906429823623 122.3617961508635 1.1515985885851431e-12 2.618222436808324e-13 1000.0000000000002 F 0.0067802512541365626 F 0.020432751254136558 #
DXID-attrib $-1 -1 $-1 $538 $443 @18 ASM_EDGE_FROM_STEP @5 28603 #
DXID-attrib $-1 -1 $-1 $543 $449 @18 ASM_FACE_FROM_STEP @20 full assembly 5-7498 #
truecolor-adesk-attrib $-1 -1 $602 $-1 $544 -1056964608 #
cone-surface $-1 -1 $-1 -17.646448229550991 -97.98397092857374 122.3617961508635 1.1515985885851427e-15 2.6182224368083235e-16 1 -0.15780243056838086 -2.5350933696624893 8.4546889030328725e-16 1 I I 0 1 2.5400000000000009 forward I I I I #
truecolor-adesk-attrib $-1 -1 $603 $-1 $548 -1056964608 #
straight-curve $-1 -1 $-1 -17.48864579898261 -95.448877558911249 122.3617961508635 1.1515985885851431e-12 2.618222436808324e-13 1000.0000000000002 F 0.0067802512541365626 F 0.020432751254136558 #
DXID-attrib $-1 -1 $-1 $553 $468 @18 ASM_EDGE_FROM_STEP @5 28148 #
DXID-attrib $-1 -1 $-1 $560 $480 @18 ASM_EDGE_FROM_STEP @5 21905 #
DXID-attrib $-1 -1 $-1 $566 $496 @18 ASM_EDGE_FROM_STEP @5 54149 #
DXID-attrib $-1 -1 $-1 $571 $502 @18 ASM_EDGE_FROM_STEP @5 29929 #
DXID-attrib $-1 -1 $-1 $573 $507 @18 ASM_EDGE_FROM_STEP @5 33351 #
DXID-attrib $-1 -1 $-1 $582 $524 @18 ASM_EDGE_FROM_STEP @5 36616 #
DXID-attrib $-1 -1 $-1 $587 $535 @18 ASM_EDGE_FROM_STEP @4 8566 #
DXID-attrib $-1 -1 $-1 $591 $544 @18 ASM_FACE_FROM_STEP @21 full assembly 5-38963 #
DXID-attrib $-1 -1 $-1 $593 $548 @18 ASM_EDGE_FROM_STEP @5 15742 #
