700 184 1 0         
5 ZWCAD 12 ACIS 28.0 NT 24 Mon May 13 16:27:03 2024 
1 9.9999999999999995e-07 1e-10 
body $1 -1 $-1 $2 $-1 $-1 #
DXID-attrib $-1 -1 $-1 $-1 $0 @18 ASM_BODY_FROM_STEP @83 6D3E73F1AC6C8866CE1E97A20A9D749B4EABFC32|:|0260B668D889EBDE4E6FB7CDCD265BBE0D083FF9 #
lump $-1 -1 $-1 $-1 $3 $0 #
shell $-1 -1 $-1 $-1 $-1 $4 $-1 $2 #
face $5 -1 $-1 $6 $7 $3 $-1 $8 reversed single #
truecolor-adesk-attrib $-1 -1 $9 $-1 $4 -1056964608 #
face $10 -1 $-1 $11 $12 $3 $-1 $13 forward single #
loop $-1 -1 $-1 $-1 $14 $4 #
cone-surface $-1 -1 $-1 -235.31000736207383 35.265642220951875 146.80329510380682 3.8464419750792816e-16 -1.3987061727561025e-16 1 -1.5638864502643348 -2.0014642566580156 3.2159380762162038e-16 1 I I 0 1 2.5400000000000009 forward I I I I #
DXID-attrib $-1 -1 $-1 $5 $4 @18 ASM_FACE_FROM_STEP @21 full assembly 5-56783 #
truecolor-adesk-attrib $-1 -1 $15 $-1 $6 -1056964608 #
face $16 -1 $-1 $17 $18 $3 $-1 $19 forward single #
loop $-1 -1 $-1 $20 $21 $6 #
cone-surface $-1 -1 $-1 -235.31000736207383 35.265642220951875 161.92500000066215 -3.8464419750792816e-16 1.3987061727561025e-16 -1 2.4435725785380229 3.1272879010281489 -5.0249032440878183e-16 1 I I 0 1 3.9687500000000009 forward I I I I #
coedge $-1 -1 $-1 $22 $23 $24 $25 forward $7 $-1 #
DXID-attrib $-1 -1 $-1 $10 $6 @18 ASM_FACE_FROM_STEP @21 full assembly 5-54167 #
truecolor-adesk-attrib $-1 -1 $26 $-1 $11 -1056964608 #
face $27 -1 $-1 $28 $29 $3 $-1 $30 forward single #
loop $-1 -1 $-1 $-1 $31 $11 #
cone-surface $-1 -1 $-1 -218.42265269652182 22.070350296846552 157.95625000066215 -0.78797805380236807 0.61570332687572216 3.8920999054742497e-16 -1.5638864502643348 -2.0014642566580156 3.2159380762162038e-16 1 I I 0 1 2.5400000000000009 forward I I I I #
loop $-1 -1 $-1 $-1 $32 $6 #
coedge $-1 -1 $-1 $33 $34 $35 $36 reversed $12 $-1 #
coedge $-1 -1 $-1 $37 $14 $38 $39 forward $7 $-1 #
coedge $-1 -1 $-1 $14 $37 $40 $41 reversed $7 $-1 #
coedge $-1 -1 $-1 $42 $42 $14 $25 reversed $43 $-1 #
edge $44 -1 $-1 $45 0 $46 3.1415926535897931 $14 $47 forward @7 unknown #
DXID-attrib $-1 -1 $-1 $16 $11 @18 ASM_FACE_FROM_STEP @21 full assembly 5-44516 #
truecolor-adesk-attrib $-1 -1 $48 $-1 $17 -1056964608 #
face $49 -1 $-1 $50 $51 $3 $-1 $52 forward single #
loop $-1 -1 $-1 $-1 $53 $17 #
cone-surface $-1 -1 $-1 -218.42265269652182 22.070350296846552 157.95625000066215 -0.78797805380236807 0.61570332687572216 3.8920999054742497e-16 -1.5638864502643348 -2.0014642566580156 3.2159380762162038e-16 1 I I 0 1 2.5400000000000009 forward I I I I #
coedge $-1 -1 $-1 $54 $55 $56 $57 reversed $18 $-1 #
coedge $-1 -1 $-1 $58 $58 $59 $60 forward $20 $-1 #
coedge $-1 -1 $-1 $61 $21 $62 $63 forward $12 $-1 #
coedge $-1 -1 $-1 $21 $61 $64 $65 reversed $12 $-1 #
coedge $-1 -1 $-1 $66 $66 $21 $36 forward $67 $-1 #
edge $68 -1 $-1 $69 1.2246467991473532e-16 $70 3.1415926535897931 $21 $71 forward @7 unknown #
coedge $-1 -1 $-1 $23 $22 $72 $73 forward $7 $-1 #
coedge $-1 -1 $-1 $74 $75 $22 $39 reversed $76 $-1 #
edge $77 -1 $-1 $46 0.0071842048968553231 $78 0.015121704896855324 $22 $79 forward @7 unknown #
coedge $-1 -1 $-1 $75 $74 $23 $41 forward $76 $-1 #
edge $80 -1 $-1 $45 0.0071842048968553231 $81 0.015121704896855324 $23 $82 forward @7 unknown #
coedge $-1 -1 $-1 $24 $24 $74 $83 reversed $43 $-1 #
loop $-1 -1 $-1 $-1 $24 $84 #
truecolor-adesk-attrib $-1 -1 $85 $-1 $25 -1056964608 #
vertex $-1 -1 $-1 $25 $86 #
vertex $-1 -1 $-1 $25 $87 #
ellipse-curve $-1 -1 $-1 -235.31000736207383 35.265642220951875 153.98750000066215 -3.8464419750792816e-16 1.3987061727561025e-16 -1 -1.5638864502643348 -2.0014642566580156 3.2159380762162038e-16 1 F 0 F 3.1415926535897931 #
DXID-attrib $-1 -1 $-1 $27 $17 @18 ASM_FACE_FROM_STEP @21 full assembly 5-18210 #
truecolor-adesk-attrib $-1 -1 $88 $-1 $28 -1056964608 #
face $89 -1 $-1 $90 $91 $3 $-1 $92 forward single #
loop $-1 -1 $-1 $-1 $93 $28 #
plane-surface $-1 -1 $-1 -218.42265269652182 22.070350296846552 157.95625000066215 0.78797805380236807 -0.61570332687572216 -3.8920999054742497e-16 15.638864502643345 20.014642566580154 -3.2159380762162033e-15 forward_v I I I I #
coedge $-1 -1 $-1 $94 $95 $54 $96 reversed $29 $-1 #
coedge $-1 -1 $-1 $59 $31 $53 $96 forward $18 $-1 #
coedge $-1 -1 $-1 $31 $59 $97 $98 reversed $18 $-1 #
coedge $-1 -1 $-1 $93 $93 $31 $57 forward $51 $-1 #
edge $99 -1 $-1 $100 1.2246467991473535e-16 $101 3.1415926535897931 $31 $102 forward @7 unknown #
coedge $-1 -1 $-1 $32 $32 $95 $103 forward $20 $-1 #
coedge $-1 -1 $-1 $55 $54 $32 $60 reversed $18 $-1 #
edge $104 -1 $-1 $105 -0.79399843042456864 $106 5.0476173282247043e-15 $32 $107 forward @7 unknown #
coedge $-1 -1 $-1 $34 $33 $108 $109 forward $12 $-1 #
coedge $-1 -1 $-1 $110 $111 $33 $63 reversed $91 $-1 #
edge $112 -1 $-1 $69 0 $113 0.0079375000000000001 $33 $114 forward @7 unknown #
coedge $-1 -1 $-1 $111 $110 $34 $65 forward $91 $-1 #
edge $115 -1 $-1 $70 0 $116 0.0079375000000000001 $34 $117 forward @7 unknown #
coedge $-1 -1 $-1 $35 $35 $110 $118 forward $67 $-1 #
loop $-1 -1 $-1 $119 $66 $90 #
truecolor-adesk-attrib $-1 -1 $120 $-1 $36 -1056964608 #
vertex $-1 -1 $-1 $36 $121 #
vertex $-1 -1 $-1 $36 $122 #
ellipse-curve $-1 -1 $-1 -235.31000736207383 35.265642220951875 161.92500000066215 3.8464419750792816e-16 -1.3987061727561025e-16 1 -2.4435725785380229 -3.1272879010281489 5.0249032440878183e-16 1 F 1.2246467991473532e-16 F 3.1415926535897931 #
coedge $-1 -1 $-1 $123 $123 $37 $73 reversed $119 $-1 #
edge $124 -1 $-1 $78 -3.1415926535897931 $81 0 $37 $125 forward @7 unknown #
coedge $-1 -1 $-1 $40 $38 $42 $83 forward $76 $-1 #
coedge $-1 -1 $-1 $38 $40 $123 $126 forward $76 $-1 #
loop $-1 -1 $-1 $-1 $38 $127 #
truecolor-adesk-attrib $-1 -1 $128 $-1 $39 -1056964608 #
vertex $-1 -1 $-1 $39 $129 #
straight-curve $-1 -1 $-1 -233.7461209118095 37.267106477609893 146.80329510380682 3.8464419750792824e-13 -1.3987061727561028e-13 1000.0000000000002 F 0.0071842048968553231 F 0.015121704896855324 #
truecolor-adesk-attrib $-1 -1 $130 $-1 $41 -1056964608 #
vertex $-1 -1 $-1 $73 $131 #
straight-curve $-1 -1 $-1 -236.87389381233817 33.264177964293864 146.80329510380682 3.8464419750792824e-13 -1.3987061727561028e-13 1000.0000000000002 F 0.0071842048968553231 F 0.015121704896855324 #
edge $132 -1 $-1 $46 -3.1415926535897931 $45 0 $42 $133 forward @7 unknown #
face $134 -1 $-1 $127 $135 $3 $-1 $136 reversed single #
DXID-attrib $-1 -1 $-1 $44 $25 @18 ASM_EDGE_FROM_STEP @5 10425 #
point $-1 -1 $-1 -236.87389381233817 33.264177964293857 153.98750000066215 #
point $-1 -1 $-1 -233.7461209118095 37.267106477609893 153.98750000066215 #
DXID-attrib $-1 -1 $-1 $49 $28 @18 ASM_FACE_FROM_STEP @21 full assembly 5-16909 #
truecolor-adesk-attrib $-1 -1 $137 $-1 $50 -1056964608 #
face $138 -1 $-1 $84 $67 $3 $-1 $139 forward single #
loop $-1 -1 $-1 $-1 $62 $50 #
cone-surface $-1 -1 $-1 -235.31000736207383 35.265642220951875 161.92500000066215 -3.8464419750792816e-16 1.3987061727561025e-16 -1 2.4435725785380229 3.1272879010281489 -5.0249032440878183e-16 1 I I 0 1 3.9687500000000009 forward I I I I #
coedge $-1 -1 $-1 $56 $56 $94 $140 forward $51 $-1 #
coedge $-1 -1 $-1 $97 $53 $93 $140 reversed $29 $-1 #
coedge $-1 -1 $-1 $53 $97 $58 $103 reversed $29 $-1 #
edge $141 -1 $-1 $100 0 $106 0.018381762081922572 $54 $142 forward @7 unknown #
coedge $-1 -1 $-1 $95 $94 $55 $98 forward $29 $-1 #
edge $143 -1 $-1 $101 0 $105 0.018381762081922607 $55 $144 forward @7 unknown #
truecolor-adesk-attrib $-1 -1 $145 $-1 $57 -1056964608 #
vertex $-1 -1 $-1 $57 $146 #
vertex $-1 -1 $-1 $57 $147 #
ellipse-curve $-1 -1 $-1 -218.42265269652182 22.070350296846552 157.95625000066215 0.78797805380236807 -0.61570332687572216 -3.8920999054742497e-16 1.5638864502643348 2.0014642566580156 -3.2159380762162038e-16 1 F 1.2246467991473535e-16 F 3.1415926535897931 #
edge $148 -1 $-1 $106 -1.5879968608491319 $105 -0.79399843042456864 $58 $149 forward @7 unknown #
truecolor-adesk-attrib $-1 -1 $150 $-1 $60 -1056964608 #
vertex $-1 -1 $-1 $60 $151 #
vertex $-1 -1 $-1 $60 $152 #
intcurve-curve $-1 -1 $-1 reversed { surfintcur full nubs 3 periodic 17 
	0 3 0.099693944601039308 2 0.19938788920207862 2 0.29819355220718147 2 0.39699921521228432 2 
	0.49580487821738717 2 0.59461054122249002 2 0.69430448582352933 2 0.79399843042456864 2 0.89369237502560783 2 
	0.99338631962664703 2 1.0921919826317499 2 1.1909976456368527 2 1.2898033086419556 2 1.3886089716470584 2 
	1.4883029162480979 2 1.587996860849137 3 
	-231.34319135702904 35.38952662118232 157.95625000066215 
	-231.34319135702904 35.38952662118232 158.28856314933228 
	-231.33809613576969 35.298671704099824 158.63184501473256 
	-231.34859473359404 34.975165917632332 159.25245059821745 
	-231.36771363808089 34.745246291094567 159.5311296597217 
	-231.46275173704092 34.260642440589415 159.97150213241753 
	-231.5447664523918 33.970455234039406 160.16577810515585 
	-231.80264157827514 33.38071944058597 160.42838456113495 
	-231.97993620962433 33.081591955878565 160.49625000066214 
	-232.38550271246703 32.562547328949137 160.49625000066214 
	-232.6328793380232 32.318179893432323 160.42838456113495 
	-233.14275354930786 31.925348917952576 160.16577810515585 
	-233.40449570896124 31.775595553251261 159.97150213241753 
	-233.85173520300782 31.566191715790438 159.5311296597217 
	-234.07020783011438 31.49204133897954 159.25245059821745 
	-234.38157366511399 31.403624534981567 158.63184501473256 
	-234.47096425755771 31.386598107866288 158.28856314933228 
	-234.47096425755771 31.386598107866288 157.62393685199203 
	-234.38157366511399 31.403624534981564 157.28065498659171 
	-234.07020783011438 31.49204133897954 156.66004940310685 
	-233.85173520300782 31.566191715790438 156.3813703416026 
	-233.40449570896124 31.775595553251261 155.94099786890678 
	-233.14275354930786 31.925348917952576 155.74672189616845 
	-232.6328793380232 32.318179893432323 155.48411544018936 
	-232.38550271246703 32.562547328949144 155.41625000066216 
	-231.97993620962433 33.081591955878565 155.41625000066216 
	-231.80264157827514 33.38071944058597 155.48411544018936 
	-231.5447664523918 33.970455234039406 155.74672189616845 
	-231.46275173704092 34.260642440589415 155.94099786890678 
	-231.36771363808089 34.745246291094567 156.3813703416026 
	-231.34859473359404 34.975165917632332 156.66004940310685 
	-231.33809613576969 35.298671704099824 157.28065498659171 
	-231.34319135702904 35.38952662118232 157.62393685199203 
	-231.34319135702904 35.38952662118232 157.95625000066215 
	0.0021506331593869224 
	cone -218.42265269652182 22.070350296846552 157.95625000066215 -0.78797805380236807 0.61570332687572216 3.8920999054742497e-16 -1.5638864502643348 -2.0014642566580156 3.2159380762162038e-16 1 I I 0 1 2.5400000000000009 forward I I I I 
	cone -235.31000736207383 35.265642220951875 161.92500000066215 -3.8464419750792816e-16 1.3987061727561025e-16 -1 2.4435725785380229 3.1272879010281489 -5.0249032440878183e-16 1 I I 0 -1 3.9687500000000009 forward I I I I 
	nullbs 
	nullbs 
	I I 
	0 
	0 
	0 
	} F -0.79399843042456864 F 5.0476173282247043e-15 #
coedge $-1 -1 $-1 $153 $153 $61 $109 reversed $135 $-1 #
edge $154 -1 $-1 $113 1.2246467991473532e-16 $116 3.1415926535897931 $61 $155 forward @7 unknown #
coedge $-1 -1 $-1 $64 $62 $66 $118 reversed $91 $-1 #
coedge $-1 -1 $-1 $62 $64 $153 $156 forward $91 $-1 #
truecolor-adesk-attrib $-1 -1 $157 $-1 $63 -1056964608 #
vertex $-1 -1 $-1 $63 $158 #
straight-curve $-1 -1 $-1 -237.75357994061184 32.138354319923728 161.92500000066215 -3.8464419750792824e-13 1.3987061727561028e-13 -1000.0000000000002 F 0 F 0.0079375000000000001 #
truecolor-adesk-attrib $-1 -1 $159 $-1 $65 -1056964608 #
vertex $-1 -1 $-1 $109 $160 #
straight-curve $-1 -1 $-1 -232.86643478353579 38.392930121980022 161.92500000066215 -3.8464419750792824e-13 1.3987061727561028e-13 -1000.0000000000002 F 0 F 0.0079375000000000001 #
edge $161 -1 $-1 $70 -3.1415926535897931 $69 1.2246467991473532e-16 $110 $162 forward @7 unknown #
loop $-1 -1 $-1 $-1 $123 $90 #
DXID-attrib $-1 -1 $-1 $68 $36 @18 ASM_EDGE_FROM_STEP @5 25688 #
point $-1 -1 $-1 -237.75357994061184 32.138354319923728 161.92500000066215 #
point $-1 -1 $-1 -232.86643478353579 38.392930121980022 161.92500000066215 #
coedge $-1 -1 $-1 $72 $72 $75 $126 reversed $119 $-1 #
truecolor-adesk-attrib $-1 -1 $163 $-1 $73 -1056964608 #
ellipse-curve $-1 -1 $-1 -235.31000736207383 35.265642220951875 161.92500000066215 3.8464419750792816e-16 -1.3987061727561025e-16 1 -1.5638864502643348 -2.0014642566580156 3.2159380762162038e-16 1 F -3.1415926535897931 F 0 #
edge $164 -1 $-1 $81 0 $78 3.1415926535897931 $123 $165 forward @7 unknown #
face $166 -1 $-1 $-1 $76 $3 $-1 $167 reversed single #
DXID-attrib $-1 -1 $-1 $77 $39 @18 ASM_EDGE_FROM_STEP @5 65463 #
point $-1 -1 $-1 -233.7461209118095 37.267106477609893 161.92500000066215 #
DXID-attrib $-1 -1 $-1 $80 $41 @18 ASM_EDGE_FROM_STEP @5 18388 #
point $-1 -1 $-1 -236.87389381233817 33.264177964293857 161.92500000066215 #
truecolor-adesk-attrib $-1 -1 $168 $-1 $83 -1056964608 #
ellipse-curve $-1 -1 $-1 -235.31000736207383 35.265642220951875 153.98750000066215 -3.8464419750792816e-16 1.3987061727561025e-16 -1 -1.5638864502643348 -2.0014642566580156 3.2159380762162038e-16 1 F -3.1415926535897931 F 0 #
truecolor-adesk-attrib $-1 -1 $169 $-1 $84 -1056964608 #
loop $-1 -1 $-1 $43 $153 $84 #
plane-surface $-1 -1 $-1 -235.31000736207383 35.265642220951875 153.98750000066215 3.8464419750792816e-16 -1.3987061727561025e-16 1 -15.638864502643345 -20.014642566580154 3.2159380762162033e-15 forward_v I I I I #
DXID-attrib $-1 -1 $-1 $89 $50 @18 ASM_FACE_FROM_STEP @21 full assembly 5-52529 #
truecolor-adesk-attrib $-1 -1 $170 $-1 $90 -1056964608 #
plane-surface $-1 -1 $-1 -235.31000736207383 35.265642220951875 161.92500000066215 3.8464419750792816e-16 -1.3987061727561025e-16 1 -15.638864502643345 -20.014642566580154 3.2159380762162033e-15 forward_v I I I I #
edge $171 -1 $-1 $101 -3.1415926535897931 $100 1.2246467991473535e-16 $94 $172 forward @7 unknown #
truecolor-adesk-attrib $-1 -1 $173 $-1 $96 -1056964608 #
straight-curve $-1 -1 $-1 -216.85876624625749 24.07181455350457 157.95625000066215 -787.97805380236832 615.70332687572227 3.8920999054742507e-13 F 0 F 0.018381762081922572 #
truecolor-adesk-attrib $-1 -1 $174 $-1 $98 -1056964608 #
straight-curve $-1 -1 $-1 -219.98653914678616 20.068886040188538 157.95625000066215 -787.97805380236832 615.70332687572227 3.8920999054742507e-13 F 0 F 0.018381762081922607 #
DXID-attrib $-1 -1 $-1 $99 $57 @18 ASM_EDGE_FROM_STEP @5 35961 #
point $-1 -1 $-1 -216.85876624625749 24.07181455350457 157.95625000066215 #
point $-1 -1 $-1 -219.98653914678616 20.068886040188538 157.95625000066215 #
truecolor-adesk-attrib $-1 -1 $175 $-1 $103 -1056964608 #
intcurve-curve $-1 -1 $-1 reversed { surfintcur full nubs 3 periodic 17 
	0 3 0.099693944601039308 2 0.19938788920207862 2 0.29819355220718147 2 0.39699921521228432 2 
	0.49580487821738717 2 0.59461054122249002 2 0.69430448582352933 2 0.79399843042456864 2 0.89369237502560783 2 
	0.99338631962664703 2 1.0921919826317499 2 1.1909976456368527 2 1.2898033086419556 2 1.3886089716470584 2 
	1.4883029162480979 2 1.587996860849137 3 
	-231.34319135702904 35.38952662118232 157.95625000066215 
	-231.34319135702904 35.38952662118232 158.28856314933228 
	-231.33809613576969 35.298671704099824 158.63184501473256 
	-231.34859473359404 34.975165917632332 159.25245059821745 
	-231.36771363808089 34.745246291094567 159.5311296597217 
	-231.46275173704092 34.260642440589415 159.97150213241753 
	-231.5447664523918 33.970455234039406 160.16577810515585 
	-231.80264157827514 33.38071944058597 160.42838456113495 
	-231.97993620962433 33.081591955878565 160.49625000066214 
	-232.38550271246703 32.562547328949137 160.49625000066214 
	-232.6328793380232 32.318179893432323 160.42838456113495 
	-233.14275354930786 31.925348917952576 160.16577810515585 
	-233.40449570896124 31.775595553251261 159.97150213241753 
	-233.85173520300782 31.566191715790438 159.5311296597217 
	-234.07020783011438 31.49204133897954 159.25245059821745 
	-234.38157366511399 31.403624534981567 158.63184501473256 
	-234.47096425755771 31.386598107866288 158.28856314933228 
	-234.47096425755771 31.386598107866288 157.62393685199203 
	-234.38157366511399 31.403624534981564 157.28065498659171 
	-234.07020783011438 31.49204133897954 156.66004940310685 
	-233.85173520300782 31.566191715790438 156.3813703416026 
	-233.40449570896124 31.775595553251261 155.94099786890678 
	-233.14275354930786 31.925348917952576 155.74672189616845 
	-232.6328793380232 32.318179893432323 155.48411544018936 
	-232.38550271246703 32.562547328949144 155.41625000066216 
	-231.97993620962433 33.081591955878565 155.41625000066216 
	-231.80264157827514 33.38071944058597 155.48411544018936 
	-231.5447664523918 33.970455234039406 155.74672189616845 
	-231.46275173704092 34.260642440589415 155.94099786890678 
	-231.36771363808089 34.745246291094567 156.3813703416026 
	-231.34859473359404 34.975165917632332 156.66004940310685 
	-231.33809613576969 35.298671704099824 157.28065498659171 
	-231.34319135702904 35.38952662118232 157.62393685199203 
	-231.34319135702904 35.38952662118232 157.95625000066215 
	0.0021506331593869224 
	cone -218.42265269652182 22.070350296846552 157.95625000066215 -0.78797805380236807 0.61570332687572216 3.8920999054742497e-16 -1.5638864502643348 -2.0014642566580156 3.2159380762162038e-16 1 I I 0 1 2.5400000000000009 forward I I I I 
	cone -235.31000736207383 35.265642220951875 161.92500000066215 -3.8464419750792816e-16 1.3987061727561025e-16 -1 2.4435725785380229 3.1272879010281489 -5.0249032440878183e-16 1 I I 0 -1 3.9687500000000009 forward I I I I 
	nullbs 
	nullbs 
	I I 
	0 
	0 
	0 
	} F -1.5879968608491319 F -0.79399843042456864 #
DXID-attrib $-1 -1 $-1 $104 $60 @18 ASM_EDGE_FROM_STEP @5 53852 #
point $-1 -1 $-1 -234.47096425755771 31.386598107866288 157.95625000066215 #
point $-1 -1 $-1 -231.34319135702901 35.389526621182306 157.9562500006621 #
coedge $-1 -1 $-1 $108 $108 $111 $156 reversed $135 $-1 #
truecolor-adesk-attrib $-1 -1 $176 $-1 $109 -1056964608 #
ellipse-curve $-1 -1 $-1 -235.31000736207383 35.265642220951875 153.98750000066215 3.8464419750792816e-16 -1.3987061727561025e-16 1 -2.4435725785380229 -3.1272879010281489 5.0249032440878183e-16 1 F 1.2246467991473532e-16 F 3.1415926535897931 #
edge $177 -1 $-1 $116 -3.1415926535897931 $113 1.2246467991473532e-16 $111 $178 forward @7 unknown #
DXID-attrib $-1 -1 $-1 $112 $63 @18 ASM_EDGE_FROM_STEP @5 39995 #
point $-1 -1 $-1 -237.75357994061184 32.138354319923728 153.98750000066215 #
DXID-attrib $-1 -1 $-1 $115 $65 @18 ASM_EDGE_FROM_STEP @5 47050 #
point $-1 -1 $-1 -232.86643478353582 38.392930121980022 153.98750000066215 #
truecolor-adesk-attrib $-1 -1 $179 $-1 $118 -1056964608 #
ellipse-curve $-1 -1 $-1 -235.31000736207383 35.265642220951875 161.92500000066215 3.8464419750792816e-16 -1.3987061727561025e-16 1 -2.4435725785380229 -3.1272879010281489 5.0249032440878183e-16 1 F -3.1415926535897931 F 1.2246467991473532e-16 #
DXID-attrib $-1 -1 $-1 $124 $73 @18 ASM_EDGE_FROM_STEP @5 43560 #
truecolor-adesk-attrib $-1 -1 $180 $-1 $126 -1056964608 #
ellipse-curve $-1 -1 $-1 -235.31000736207383 35.265642220951875 161.92500000066215 3.8464419750792816e-16 -1.3987061727561025e-16 1 -1.5638864502643348 -2.0014642566580156 3.2159380762162038e-16 1 F 0 F 3.1415926535897931 #
truecolor-adesk-attrib $-1 -1 $181 $-1 $127 -1056964608 #
cone-surface $-1 -1 $-1 -235.31000736207383 35.265642220951875 146.80329510380682 3.8464419750792816e-16 -1.3987061727561025e-16 1 -1.5638864502643348 -2.0014642566580156 3.2159380762162038e-16 1 I I 0 1 2.5400000000000009 forward I I I I #
DXID-attrib $-1 -1 $-1 $132 $83 @18 ASM_EDGE_FROM_STEP @5 18717 #
DXID-attrib $-1 -1 $-1 $134 $84 @18 ASM_FACE_FROM_STEP @21 full assembly 5-54487 #
DXID-attrib $-1 -1 $-1 $138 $90 @18 ASM_FACE_FROM_STEP @20 full assembly 5-1121 #
truecolor-adesk-attrib $-1 -1 $182 $-1 $140 -1056964608 #
ellipse-curve $-1 -1 $-1 -218.42265269652182 22.070350296846552 157.95625000066215 0.78797805380236807 -0.61570332687572216 -3.8920999054742497e-16 1.5638864502643348 2.0014642566580156 -3.2159380762162038e-16 1 F -3.1415926535897931 F 1.2246467991473535e-16 #
DXID-attrib $-1 -1 $-1 $141 $96 @18 ASM_EDGE_FROM_STEP @5 34998 #
DXID-attrib $-1 -1 $-1 $143 $98 @18 ASM_EDGE_FROM_STEP @5 47918 #
DXID-attrib $-1 -1 $-1 $148 $103 @18 ASM_EDGE_FROM_STEP @5 54890 #
DXID-attrib $-1 -1 $-1 $154 $109 @18 ASM_EDGE_FROM_STEP @4 1000 #
truecolor-adesk-attrib $-1 -1 $183 $-1 $156 -1056964608 #
ellipse-curve $-1 -1 $-1 -235.31000736207383 35.265642220951875 153.98750000066215 3.8464419750792816e-16 -1.3987061727561025e-16 1 -2.4435725785380229 -3.1272879010281489 5.0249032440878183e-16 1 F -3.1415926535897931 F 1.2246467991473532e-16 #
DXID-attrib $-1 -1 $-1 $161 $118 @18 ASM_EDGE_FROM_STEP @5 30555 #
DXID-attrib $-1 -1 $-1 $164 $126 @18 ASM_EDGE_FROM_STEP @5 48398 #
DXID-attrib $-1 -1 $-1 $166 $127 @18 ASM_FACE_FROM_STEP @21 full assembly 5-50393 #
DXID-attrib $-1 -1 $-1 $171 $140 @18 ASM_EDGE_FROM_STEP @5 58713 #
DXID-attrib $-1 -1 $-1 $177 $156 @18 ASM_EDGE_FROM_STEP @5 44252 #
