700 145 1 0         
16 Autodesk AutoCAD 20 ASM 229.2.0.65535 NT 24 Wed Mar  6 01:52:14 2024 
1 9.999999999999999547e-07 1.000000000000000036e-10 
body $1 -1 $-1 $2 $-1 $3 #
DXID-attrib $-1 -1 $-1 $-1 $0 @18 ASM_BODY_FROM_STEP @83 06E2A7FC93DCF69D871FF0517D7CFF6DD501E9FE|:|BA283514202FC63C2411C4D874E59EC1CC6F66F4 #
lump $-1 -1 $-1 $-1 $4 $0 #
transform $-1 -1 1 0 0 0 1 0 0 0 1 0 0 0 1 no_rotate no_reflect no_shear #
shell $-1 -1 $-1 $-1 $-1 $5 $-1 $2 #
face $6 -1 $-1 $-1 $7 $4 $-1 $8 reversed single #
color-adesk-attrib $-1 -1 $9 $-1 $5 0 #
loop $-1 -1 $-1 $10 $11 $5 #
spline-surface $-1 -1 $-1 forward { rotsur 
	straight -32.80000305179999742 272.2407226560000026 0 0.9922774732389999519 -0.1240379623420000132 0 F -10000 F 10000 
	122.820068359000004 9.447137995420000323 -58.84628729300001027 -1 -0 -0 
	full nurbs 1 2 v open periodic none none 2 5 
	-10000 1 10000 1 
	0 2 1.570796326794896558 2 3.141592653589793116 2 4.712388980384689674 2 6.283185307179586232 2 
	-9955.57473544179993 1512.62034607600026 0 1 
	9889.974729338198813 -968.138900764000141 0 1 
	-9955.57473544179993 1571.466633368999965 -1503.173208080579798 0.7071067811865475727 
	9889.974729338198813 -909.2926134709998678 977.5860387594198073 0.7071067811865475727 
	-9955.57473544179993 68.29342528842001059 -1562.019495373580185 1 
	9889.974729338198813 68.29342528842001059 918.7397514664201026 1 
	-9955.57473544179993 -1434.879782792159858 -1620.865782666579889 0.7071067811865475727 
	9889.974729338198813 1045.879464047839974 859.8934641734197157 0.7071067811865475727 
	-9955.57473544179993 -1493.726070085160245 -117.6925745860000205 1 
	9889.974729338198813 987.0331767548401558 -117.6925745860000205 1 
	-9955.57473544179993 -1552.57235737815995 1385.480633494579706 0.7071067811865475727 
	9889.974729338198813 928.1868894618398826 -1095.278613345419899 0.7071067811865475727 
	-9955.57473544179993 -49.39914929758000994 1444.326920787580093 1 
	9889.974729338198813 -49.39914929758000994 -1036.432326052420194 1 
	-9955.57473544179993 1453.774058782999873 1503.173208080579798 0.7071067811865475727 
	9889.974729338198813 -1026.985188056999959 -977.5860387594198073 0.7071067811865475727 
	-9955.57473544179993 1512.62034607600026 0 1 
	9889.974729338198813 -968.138900764000141 0 1 
	9.999999999999999124e-06 
	
	0 
	0 
	0 
	0 
	0 
	0 
	} F -13.23663878482732414 F 13.23663878476692624 F -0.5000000000033315573 F 2.641592653589720285 #
DXID-attrib $-1 -1 $-1 $6 $5 @18 ASM_FACE_FROM_STEP @21 JANT_AllCATPart-10723 #
loop $-1 -1 $-1 $-1 $12 $5 #
coedge $-1 -1 $-1 $13 $14 $-1 $15 reversed $7 $16 #
coedge $-1 -1 $-1 $17 $18 $-1 $19 forward $10 $20 #
coedge $-1 -1 $-1 $21 $11 $-1 $22 forward $7 $23 #
coedge $-1 -1 $-1 $11 $24 $-1 $25 reversed $7 $26 #
edge $27 -1 $-1 $28 1.076091977567872782 $29 2.04888287435189298 $11 $30 forward @7 unknown #
pcurve $-1 -1 $-1 0 forward { exppc nubs 1 open 2 
	-2.04888287435189298 1 -1.076091977567873004 1 
	-13.23663878474647504 1.311677300328990325 
	-13.23663878476807909 2.284468197115830712 
	7.802788628746256196e-10 
	spline reversed { ref 0 } I I I I 
	} 0 0 #
coedge $-1 -1 $-1 $18 $12 $-1 $31 forward $10 $32 #
coedge $-1 -1 $-1 $12 $17 $-1 $33 reversed $10 $34 #
edge $35 -1 $-1 $36 8.790583004803160071e-10 $37 70.37755308283620082 $12 $38 forward @7 unknown #
pcurve $-1 -1 $-1 1 $39 0 0 #
coedge $-1 -1 $-1 $40 $13 $-1 $41 reversed $7 $42 #
edge $43 -1 $-1 $28 0 $44 38.61073988416035263 $13 $45 forward @7 unknown #
pcurve $-1 -1 $-1 1 $46 0 0 #
coedge $-1 -1 $-1 $14 $47 $-1 $48 forward $7 $49 #
edge $50 -1 $-1 $29 0 $51 37.23883953550298997 $14 $52 forward @7 unknown #
pcurve $-1 -1 $-1 -1 $53 0 0 #
color-adesk-attrib $-1 -1 $54 $-1 $15 0 #
vertex $-1 -1 $-1 $15 $55 #
vertex $-1 -1 $-1 $15 $56 #
ellipse-curve $-1 -1 $-1 -45.93442153929999705 9.447137995420000323 -58.84628729300001027 1 0 0 0 -270.904009493999979 0 1 F 1.076091977567872782 F 2.04888287435189298 #
edge $57 -1 $-1 $37 5.441953389123711707e-11 $58 20.36885163250000019 $17 $59 forward @7 unknown #
pcurve $-1 -1 $-1 1 $60 0 -6.283185307179586232 #
edge $61 -1 $-1 $36 -0.1788123623351051961 $58 6.562400678623478954e-08 $18 $62 forward @7 unknown #
pcurve $-1 -1 $-1 0 forward { exppc nubs 1 open 2 
	-6.562400678623478954e-08 1 0.1788123623351051961 1 
	11.13209261501299885 6.122313104058839883 
	11.13209258065675478 6.301125532015445785 
	2.707811329533045387e-10 
	spline reversed { ref 0 } I I I I 
	} 0 -6.283185307179586232 #
color-adesk-attrib $-1 -1 $63 $-1 $19 0 #
vertex $-1 -1 $-1 $19 $64 #
vertex $-1 -1 $-1 $19 $65 #
intcurve-curve $-1 -1 $-1 forward { parcur full nubs 3 open 10 
	0 3 17.54514360955279528 3 20.92613480940000059 3 32.4075002160999972 3 41.04795968260000194 3 
	42.26225777672273409 3 42.53063956516265165 3 50.85047500680000354 3 60.61401404629999945 3 70.37755308590000425 3 
	-21.75387835486757737 271.8735126294574229 -4.699022163321939338 
	-25.22964226167645307 272.108436572158098 -3.739991225030847577 
	-28.61065279927739269 272.2705958138453752 -2.494343318372834073 
	-31.60652688617075157 272.2326346161218567 -0.633340729006642289 
	-32.18383899880126364 272.2253194023912215 -0.2747210723334341242 
	-32.74533194764699573 272.2100838660205113 0.1075927433191668087 
	-33.28631778398163021 272.1851765273534056 0.5172656096312965301 
	-35.12342876702349059 272.1005947465553163 1.908456416502455122 
	-36.7406518021882107 271.903376091765665 3.634936514386208017 
	-37.81663986324142002 271.5127504332155013 5.767607478928068687 
	-38.62638947913143284 271.2187797206983646 7.372578348834545103 
	-39.11109018886153166 270.8121440894773286 9.204846064205201017 
	-39.21764467099143303 270.3059221861217338 11.14179633345531606 
	-39.23261944230679887 270.2347796392662644 11.41400813301065575 
	-39.24046575123205827 270.1617824685747564 11.68807819319056129 
	-39.24137657821228231 270.0870506606653407 11.96357800114561343 
	-39.24157788740900799 270.0705335827277622 12.02446842955993844 
	-39.24144067576168027 270.0539318128658124 12.08542874400203004 
	-39.24096746944981362 270.0372467151849492 12.1464544042361986 
	-39.22629807378172018 269.520008687079212 14.03824987149543091 
	-38.88455240673830815 268.9233872743822644 15.98549272660461718 
	-38.32881650834495701 268.2876666331770252 17.89129036724144228 
	-37.67664626078688883 267.5416322503861579 20.12779249475018872 
	-36.73663380519332122 266.7406250677998969 22.31655580394269478 
	-35.64615983799306775 265.9157679030030295 24.42624717699436587 
	-34.55568587078164455 265.0909107381977492 26.53593855006764812 
	-33.31416124950096247 264.2421586811439056 28.56778839478212717 
	-31.98673134809228102 263.3783710250597778 30.53414029232104099 
	0.000543473815030266847 
	
	spline forward { ref 0 } I I I I 
	null_surface 
	nubs 3 open 10 
	0 3 17.54514360955279528 2 20.92613480940000059 2 32.4075002160999972 2 41.04795968260000194 2 
	42.26225777672273409 2 42.53063956516265165 2 50.85047500680000354 2 60.61401404629999945 2 70.37755308590000425 3 
	11.1320925797857555 0.01794022484034862516 
	7.629278094374472019 0.0142560477991652227 
	4.22195440842538261 0.009496018365507013712 
	0.6209594288051630828 0.001045403472518008749 
	0.05509658903627145943 -0.0004095759797520445982 
	-2.341508073985953509 -0.007261566513786040303 
	-3.971317354938147304 -0.01382396096899766481 
	-5.871731027323332519 -0.02806645520074045261 
	-6.360203982521974275 -0.03505957405504702556 
	-6.482679052976382472 -0.04352590533668201922 
	-6.490586426807674059 -0.0445768069319303073 
	-6.491707218327131379 -0.04586741469452716019 
	-6.491568938812561917 -0.04610132697480856523 
	-6.476308487589644614 -0.05359550552620093167 
	-6.131903141040851324 -0.06109835874242135201 
	-4.914596310514339983 -0.07714156338370435628 
	-3.967268087366067508 -0.08567122902261962991 
	-1.769346645803341778 -0.1022227950287274006 
	-0.5181596998495160422 -0.110248661229291306 
	0.8196010950979665255 -0.1180692746688862538 
	
	nullbs 
	I I 
	0 
	8 17.54514360955279528 20.92613480940000059 32.4075002160999972 41.04795968260000194 42.26225777672273409 42.53063956516265165 50.85047500680000354 60.61401404629999945 
	0 
	surf1 } F 8.790583004803160071e-10 F 70.37755308283620082 #
intcurve-curve $-1 -1 $-1 forward { ref 3 } I I #
coedge $-1 -1 $-1 $66 $21 $-1 $67 forward $7 $68 #
edge $69 -1 $-1 $70 -0.2630247558677888398 $44 3.953640287066889365e-09 $21 $71 forward @7 unknown #
pcurve $-1 -1 $-1 0 forward { exppc nubs 1 open 2 
	-3.953640287066889365e-09 1 0.2630247558677888398 1 
	11.13209258020795467 2.23215170140659902 
	11.13209262197170091 2.495176461232268217 
	1.427257874679638264e-12 
	spline reversed { ref 0 } I I I I 
	} 0 0 #
color-adesk-attrib $-1 -1 $72 $-1 $22 0 #
vertex $-1 -1 $-1 $22 $73 #
intcurve-curve $-1 -1 $-1 forward { parcur full nubs 3 open 2 
	0 3 38.61073988900000131 3 
	-45.93442153930544691 -119.1703560309786099 -297.2713752979607307 
	-37.89498706806574546 -114.2891971807447504 -298.7899087905253168 
	-29.83479891615109381 -109.4490294358206626 -300.1252602836212873 
	-21.75387835490722566 -104.6700352569747849 -301.285556375946328 
	4.011792603529262591e-05 
	
	spline forward { ref 0 } I I I I 
	null_surface 
	nubs 3 open 2 
	0 3 38.61073988900000131 3 
	-13.23663878474634537 2.284468197115832488 
	-5.134636383142575866 2.26675487370854789 
	2.988281217319041616 2.249304773289181547 
	11.1320925797457857 2.232151701392289134 
	
	nullbs 
	I I 
	0 
	0 
	0 
	surf1 } F 0 F 38.61073988416035263 #
intcurve-curve $-1 -1 $-1 forward { ref 5 } F 0 F 38.61073988416035263 #
coedge $-1 -1 $-1 $24 $74 $-1 $75 forward $7 $76 #
edge $77 -1 $-1 $78 -0.2671055840462364106 $51 -5.260148774106113371e-10 $24 $79 forward @7 unknown #
pcurve $-1 -1 $-1 0 forward { exppc nubs 1 open 2 
	-0.2671055840462364106 1 0 1 
	11.13209257972505384 1.040592714263135488 
	11.13209257959856124 1.307698298310183027 
	2.250245278008873307e-10 
	spline reversed { ref 0 } I I I I 
	} 0 0 #
color-adesk-attrib $-1 -1 $80 $-1 $25 0 #
vertex $-1 -1 $-1 $48 $81 #
intcurve-curve $-1 -1 $-1 forward { parcur full nubs 3 open 2 
	0 3 37.23883953680000047 3 
	-45.93442153934324779 134.0849550134339268 -299.3756969891752533 
	-37.92325604901719061 133.8604475184060334 -298.3910798724559186 
	-29.85889178123786181 133.9866371903161451 -297.2174246746339463 
	-21.75387835490234067 134.2549232269911101 -295.9592248779831039 
	0.0001491861455091337044 
	
	spline forward { ref 0 } I I I I 
	null_surface 
	nubs 3 open 2 
	0 3 37.23883953680000047 3 
	-13.2366387847844198 1.311677300328986329 
	-5.163125371065625302 1.311543902961203267 
	2.964000846418226587 1.309941027009434267 
	11.13209257975070976 1.307698297780893082 
	
	nullbs 
	I I 
	0 
	0 
	0 
	surf1 } F 0 F 37.23883953550298997 #
intcurve-curve $-1 -1 $-1 forward { ref 7 } F 0 F 37.23883953550298997 #
DXID-attrib $-1 -1 $-1 $27 $15 @18 ASM_EDGE_FROM_STEP @5 10680 #
point $-1 -1 $-1 -45.93442153929999705 -119.1703560310000114 -297.2713752980000663 #
point $-1 -1 $-1 -45.93442153929999705 134.0849550130000125 -299.3756969899999945 #
color-adesk-attrib $-1 -1 $82 $-1 $31 0 #
vertex $-1 -1 $-1 $31 $83 #
intcurve-curve $-1 -1 $-1 forward { parcur full nubs 3 open 3 
	0 3 8.602225885990000265 3 20.36885163250000019 3 
	-31.98673134940941409 263.3783710258830979 30.53414029046578904 
	-30.81719111253780952 262.6173256278459576 32.26660665673604456 
	-29.43872434468698529 261.862004750159997 33.84792063691664055 
	-27.99472487733902781 261.1116437842854907 35.3502285195131023 
	-26.01953827614600456 260.0852563379135631 37.40517276822616566 
	-23.91400404926871559 259.0712676003034289 39.30058123761880751 
	-21.75387835479217102 258.0585939380595732 41.11306643972393715 
	0.0001280391226260075047 
	
	spline forward { ref 0 } I I I I 
	null_surface 
	nubs 3 open 3 
	0 3 8.602225885990000265 2 20.36885163250000019 3 
	0.8196010937705765498 6.165116032518082712 
	1.998243427606877454 6.158225633213173289 
	3.387438289958452309 6.151881752823195271 
	6.833234612815656028 6.13751428602512572 
	8.955155429988282734 6.129777511674033619 
	11.13209257986174272 6.12231310404563267 
	
	nullbs 
	I I 
	0 
	1 8.602225885990000265 
	0 
	surf1 } F 5.441953389123711707e-11 F 20.36885163250000019 #
intcurve-curve $-1 -1 $-1 forward { ref 8 } F 5.441953389123711707e-11 F 20.36885163250000019 #
color-adesk-attrib $-1 -1 $84 $-1 $33 0 #
ellipse-curve $-1 -1 $-1 -21.75387833696263229 9.447138002146822089 -58.84628731528670897 1 2.056571745860006997e-10 -6.820149875811700371e-10 1.704503649335720183e-08 248.6114624927615182 99.9593374359026825 1 F -0.1788123623351051961 F 6.562400678623478954e-08 #
DXID-attrib $-1 -1 $-1 $35 $19 @18 ASM_EDGE_FROM_STEP @4 7599 #
point $-1 -1 $-1 -21.75387835511376977 271.8735126292390305 -4.69902216211448831 #
point $-1 -1 $-1 -31.98673134959999942 263.3783710260000817 30.53414029070000169 #
coedge $-1 -1 $-1 $85 $40 $-1 $86 reversed $7 $87 #
edge $88 -1 $-1 $70 0 $89 39.30149559150000016 $40 $90 forward @7 unknown #
pcurve $-1 -1 $-1 1 $91 0 0 #
color-adesk-attrib $-1 -1 $92 $-1 $41 0 #
vertex $-1 -1 $-1 $41 $93 #
ellipse-curve $-1 -1 $-1 -21.75387833372806057 9.447138011628481991 -58.84628730342345904 1 4.960033714415181021e-10 -3.189380991911476947e-10 -2.072061633384691959e-08 -114.1171742305538999 -242.4392686196669615 1 F -0.2630247558677888398 F 3.953640287066889365e-09 #
DXID-attrib $-1 -1 $-1 $43 $22 @18 ASM_EDGE_FROM_STEP @4 7382 #
point $-1 -1 $-1 -21.75387835676572124 -104.6700352605280813 -301.2855563745243899 #
coedge $-1 -1 $-1 $47 $94 $-1 $95 reversed $7 $96 #
edge $97 -1 $-1 $98 0 $78 40.00257109937822264 $47 $99 forward @7 unknown #
pcurve $-1 -1 $-1 1 $100 0 0 #
color-adesk-attrib $-1 -1 $101 $-1 $48 0 #
vertex $-1 -1 $-1 $75 $102 #
ellipse-curve $-1 -1 $-1 -21.7538783549925796 9.447137995374390584 -58.84628729303148731 -1 1.387281258607418944e-12 9.863533549123274285e-13 -6.073364033909456339e-11 124.8077851061201216 -237.1129376510293127 1 F -0.2671055840462364106 F -5.260148774106113371e-10 #
DXID-attrib $-1 -1 $-1 $50 $25 @18 ASM_EDGE_FROM_STEP @4 8430 #
point $-1 -1 $-1 -21.75387835566956696 134.2549232262544479 -295.9592248784765047 #
DXID-attrib $-1 -1 $-1 $57 $31 @18 ASM_EDGE_FROM_STEP @4 4896 #
point $-1 -1 $-1 -21.75387833735487675 258.0585939371486006 41.1130664362893441 #
DXID-attrib $-1 -1 $-1 $61 $33 @18 ASM_EDGE_FROM_STEP @4 4537 #
coedge $-1 -1 $-1 $103 $66 $-1 $104 reversed $7 $105 #
edge $106 -1 $-1 $107 -1.437317643935740853e-12 $89 0.005143978237811011774 $66 $108 forward @7 unknown #
pcurve $-1 -1 $-1 0 forward { exppc nubs 3 open 2 
	-0.005143978237810567684 3 -0 3 
	-13.18588225790710844 2.553119075813784278 
	-13.20280109497307386 2.553127812035855815 
	-13.21971993724533512 2.553136548059530497 
	-13.23663878472153677 2.553145283884212358 
	8.28205691266323467e-11 
	spline reversed { ref 0 } I I I I 
	} 0 0 #
color-adesk-attrib $-1 -1 $109 $-1 $67 0 #
vertex $-1 -1 $-1 $67 $110 #
intcurve-curve $-1 -1 $-1 forward { parcur full nubs 3 open 2 
	0 3 39.30149559150000016 3 
	-21.75387835508027834 -163.7801204485596429 -263.2768264905092224 
	-29.74432233503884859 -168.613601069769004 -260.4583475397772077 
	-37.79013650956724746 -173.298899978197511 -257.5518591721820485 
	-45.88405698110398134 -177.8369910934106883 -254.5764785243841288 
	2.928390116406630287e-05 
	
	spline forward { ref 0 } I I I I 
	null_surface 
	nubs 3 open 2 
	0 3 39.30149559150000016 3 
	11.13209257957139009 2.495176461227934794 
	3.079461944033429432 2.514919917955774853 
	-5.02896981171852353 2.534233309412302404 
	-13.18588225790809076 2.553119075814084038 
	
	nullbs 
	I I 
	0 
	0 
	0 
	surf1 } F 0 F 39.30149559150000016 #
intcurve-curve $-1 -1 $-1 forward { ref 10 } I I #
DXID-attrib $-1 -1 $-1 $69 $41 @18 ASM_EDGE_FROM_STEP @4 6897 #
point $-1 -1 $-1 -21.75387833404386129 -163.7801204469057836 -263.276826488547897 #
coedge $-1 -1 $-1 $74 $111 $-1 $112 reversed $7 $113 #
edge $114 -1 $-1 $98 2.257462100475931432 $115 3.860560174685819135 $74 $116 forward @7 unknown #
pcurve $-1 -1 $-1 0 forward { exppc nubs 1 open 2 
	-3.860560174685819135 1 -2.257462100475931432 1 
	-13.23663878476098965 5.783185307176254675 
	-13.23663878476805422 7.386283381387358737 
	3.364085409635207494e-10 
	spline reversed { ref 0 } I I I I 
	} 0 -6.283185307179586232 #
color-adesk-attrib $-1 -1 $117 $-1 $75 0 #
vertex $-1 -1 $-1 $95 $118 #
intcurve-curve $-1 -1 $-1 forward { parcur full nubs 3 open 2 
	0 3 40.00257111730000048 3 
	-45.93442153930853067 181.1900235932560861 -268.3537182025806942 
	-37.98679484170608589 185.3075172452659842 -263.7244721612651119 
	-29.9017524485747046 189.0006751995911713 -259.1582884852103916 
	-21.75387835497497591 192.4128717155801951 -254.6090741265507802 
	0.0006592951091901315007 
	
	spline forward { ref 0 } I I I I 
	null_surface 
	nubs 3 open 2 
	0 3 40.00257111730000048 3 
	-13.23663878474945577 1.103098074206061874 
	-5.227158662561716795 1.08130702392740452 
	2.920806610438102524 1.060654069382808373 
	11.13209257967750787 1.040592714214028991 
	
	nullbs 
	I I 
	0 
	0 
	0 
	surf1 } F 0 F 40.00257109937822264 #
intcurve-curve $-1 -1 $-1 forward { ref 12 } F 0 F 40.00257109937822264 #
DXID-attrib $-1 -1 $-1 $77 $48 @18 ASM_EDGE_FROM_STEP @4 5612 #
point $-1 -1 $-1 -21.75387836196361491 192.4128717063886995 -254.6090741363079815 #
coedge $-1 -1 $-1 $111 $85 $-1 $119 forward $7 $120 #
edge $121 -1 $-1 $122 0.7189675210939837635 $107 0.8074148907991962609 $85 $123 forward @7 unknown #
pcurve $-1 -1 $-1 0 forward { exppc nubs 1 open 2 
	-0.8074148907991962609 1 -0.7189675210939837635 1 
	-13.23663878476703992 2.553145283884207473 
	-13.23663878476804712 2.641592653589719841 
	8.296987867387897712e-11 
	spline reversed { ref 0 } I I I I 
	} 0 0 #
color-adesk-attrib $-1 -1 $124 $-1 $86 0 #
vertex $-1 -1 $-1 $86 $125 #
straight-curve $-1 -1 $-1 -45.9344215392808195 -177.8473575550441694 -254.5750646771636525 9.790974193204673881 2.015261564929867077 -0.2748548215266777839 F -1.437317643935740853e-12 F 0.005143978237811011774 #
DXID-attrib $-1 -1 $-1 $88 $67 @18 ASM_EDGE_FROM_STEP @4 9334 #
point $-1 -1 $-1 -45.88405698100000052 -177.8369910940000125 -254.5764785250000273 #
coedge $-1 -1 $-1 $94 $103 $-1 $126 forward $7 $127 #
edge $128 -1 $-1 $115 -1.597413826995732305e-12 $129 2.647327756947571942 $94 $130 forward @7 unknown #
pcurve $-1 -1 $-1 0 forward { exppc nubs 1 open 2 
	-2.647327756947570609 1 -0 1 
	13.23663878475932698 5.78318530717793422 
	-13.2366387847507081 5.783185307176255563 
	3.332701763220110998e-10 
	spline reversed { ref 0 } I I I I 
	} 0 -6.283185307179586232 #
color-adesk-attrib $-1 -1 $131 $-1 $95 0 #
vertex $-1 -1 $-1 $112 $132 #
ellipse-curve $-1 -1 $-1 -45.93442153929999705 9.447137995420000323 -58.84628729300001027 1 0 0 0 -270.904009493999979 0 1 F 2.257462100475931432 F 3.860560174685819135 #
DXID-attrib $-1 -1 $-1 $97 $75 @18 ASM_EDGE_FROM_STEP @4 6072 #
point $-1 -1 $-1 -45.93442153929999705 181.1900235930000065 -268.3537182030000281 #
edge $133 -1 $-1 $122 -1.594877599984058591e-12 $134 2.647327756958460121 $103 $135 forward @7 unknown #
pcurve $-1 -1 $-1 0 forward { exppc nubs 1 open 2 
	0 1 2.647327756958459677 1 
	-13.23663878482027556 2.641592653587280015 
	13.23663878476692624 2.64159265358896711 
	3.365133885975981593e-10 
	spline reversed { ref 0 } I I I I 
	} 0 0 #
color-adesk-attrib $-1 -1 $136 $-1 $104 0 #
vertex $-1 -1 $-1 $104 $137 #
ellipse-curve $-1 -1 $-1 -45.93442153929999705 9.447137995420000323 -58.84628729300001027 1 0 0 0 -270.904009493999979 0 1 F 0.7189675210939837635 F 0.8074148907991962609 #
DXID-attrib $-1 -1 $-1 $106 $86 @18 ASM_EDGE_FROM_STEP @4 9741 #
point $-1 -1 $-1 -45.93442153929999705 -177.8473575550000305 -254.5750646770000003 #
edge $138 -1 $-1 $134 0.7216320389835738647 $129 3.863224692572972074 $111 $139 forward @7 unknown #
pcurve $-1 -1 $-1 0 forward { exppc nubs 1 open 2 
	0.7216320389835738647 1 3.863224692572972074 1 
	13.23663878476514455 2.641592653587747197 
	13.23663878475819722 -0.5000000000004317657 
	3.331651165816853973e-10 
	spline reversed { ref 0 } I I I I 
	} 0 0 #
color-adesk-attrib $-1 -1 $140 $-1 $112 0 #
vertex $-1 -1 $-1 $126 $141 #
straight-curve $-1 -1 $-1 -45.93442153930978122 213.2986474476784906 119.573286896156759 9.922774732400261755 -1.088535527443089013 -0.5946696692560622388 F -1.597413826995732305e-12 F 2.647327756947571942 #
DXID-attrib $-1 -1 $-1 $114 $95 @18 ASM_EDGE_FROM_STEP @5 10702 #
point $-1 -1 $-1 -45.93442153929999705 213.2986474480000254 119.5732868960000133 #
color-adesk-attrib $-1 -1 $142 $-1 $119 0 #
vertex $-1 -1 $-1 $119 $143 #
straight-curve $-1 -1 $-1 -45.9344215393858093 -194.404371457209777 -237.2658614817465832 9.922774732393619956 1.088535527605744235 0.5946696690691314346 F -1.594877599984058591e-12 F 2.647327756958460121 #
DXID-attrib $-1 -1 $-1 $121 $104 @18 ASM_EDGE_FROM_STEP @5 10687 #
point $-1 -1 $-1 -45.93442153929999705 -194.4043714580000426 -237.2658614819999912 #
color-adesk-attrib $-1 -1 $144 $-1 $126 0 #
ellipse-curve $-1 -1 $-1 -19.66558456419999956 9.447137995420000323 -58.84628729300001027 1 0 0 0 -267.6996755490000055 0 1 F 0.7216320389835738647 F 3.863224692572972074 #
DXID-attrib $-1 -1 $-1 $128 $112 @18 ASM_EDGE_FROM_STEP @5 10697 #
point $-1 -1 $-1 -19.66558456419999956 210.4169371320000153 117.9990013750000202 #
DXID-attrib $-1 -1 $-1 $133 $119 @18 ASM_EDGE_FROM_STEP @5 10691 #
point $-1 -1 $-1 -19.66558456419999956 -191.5226611409999862 -235.6915759610000123 #
DXID-attrib $-1 -1 $-1 $138 $126 @18 ASM_EDGE_FROM_STEP @5 10601 #
