700 815 1 0         
5 ZWCAD 12 ACIS 28.0 NT 24 Sat May 11 11:09:26 2024 
1 9.9999999999999995e-07 1e-10 
body $1 -1 $-1 $2 $-1 $3 #
DXID-attrib $-1 -1 $-1 $-1 $0 @18 ASM_BODY_FROM_STEP @83 5C721EF44B2AE628CE0020D3C8E85C1787215E96|:|3085566E526BF679C58E14C3488A6435271747B9 #
lump $-1 -1 $-1 $-1 $4 $0 #
transform $-1 -1 1 0 0 0 1 0 0 0 1 0 0 0 1 no_rotate no_reflect no_shear #
shell $-1 -1 $-1 $-1 $-1 $5 $-1 $2 #
face $6 -1 $-1 $7 $8 $4 $-1 $9 forward single #
truecolor-adesk-attrib $-1 -1 $10 $-1 $5 -1040106286 #
face $11 -1 $-1 $12 $13 $4 $-1 $14 forward single #
loop $-1 -1 $-1 $-1 $15 $5 #
torus-surface $-1 -1 $-1 0 -13.117157287525366 0 0 1 0 51.100000000000001 0.20000000000000143 0 0 1 forward_v I I I I #
DXID-attrib $-1 -1 $-1 $6 $5 @18 ASM_FACE_FROM_STEP @20 Kastas Seals-K38-123 #
truecolor-adesk-attrib $-1 -1 $16 $-1 $7 -1040106286 #
face $17 -1 $-1 $18 $19 $4 $-1 $20 reversed single #
loop $-1 -1 $-1 $-1 $21 $7 #
torus-surface $-1 -1 $-1 0 -13.117157287525366 0 0 1 0 51.100000000000001 0.20000000000000143 0 0 1 forward_v I I I I #
coedge $-1 -1 $-1 $22 $23 $24 $25 reversed $8 $-1 #
DXID-attrib $-1 -1 $-1 $11 $7 @18 ASM_FACE_FROM_STEP @20 Kastas Seals-K38-211 #
truecolor-adesk-attrib $-1 -1 $26 $-1 $12 -1040106286 #
face $27 -1 $-1 $28 $29 $4 $-1 $30 reversed single #
loop $-1 -1 $-1 $-1 $31 $12 #
torus-surface $-1 -1 $-1 0 -13.882842712474623 0 0 1 0 51.300000000000011 0.20000000000000004 0 0 1 forward_v I I I I #
coedge $-1 -1 $-1 $32 $33 $34 $35 reversed $13 $-1 #
coedge $-1 -1 $-1 $34 $15 $36 $37 forward $8 $-1 #
coedge $-1 -1 $-1 $15 $34 $38 $39 reversed $8 $-1 #
coedge $-1 -1 $-1 $33 $32 $15 $25 forward $13 $-1 #
edge $40 -1 $-1 $41 -3.1415926535897931 $42 -2.3561944901923373 $15 $43 forward @7 unknown #
DXID-attrib $-1 -1 $-1 $17 $12 @18 ASM_FACE_FROM_STEP @20 Kastas Seals-K38-387 #
truecolor-adesk-attrib $-1 -1 $44 $-1 $18 -1040106286 #
face $45 -1 $-1 $46 $47 $4 $-1 $48 reversed single #
loop $-1 -1 $-1 $-1 $49 $18 #
torus-surface $-1 -1 $-1 0 -12.183722991409098 0 0 1 0 51.100000000000009 0.40000000000000008 0 0 1 forward_v I I I I #
coedge $-1 -1 $-1 $50 $51 $52 $53 reversed $19 $-1 #
coedge $-1 -1 $-1 $24 $21 $54 $55 forward $13 $-1 #
coedge $-1 -1 $-1 $21 $24 $56 $57 reversed $13 $-1 #
coedge $-1 -1 $-1 $23 $22 $21 $35 forward $8 $-1 #
edge $58 -1 $-1 $59 -3.1415926535897931 $60 -2.3561944901923373 $34 $61 forward @7 unknown #
coedge $-1 -1 $-1 $62 $63 $22 $37 reversed $64 $-1 #
edge $65 -1 $-1 $41 -3.1415926535897931 $59 0 $22 $66 forward @7 unknown #
coedge $-1 -1 $-1 $67 $68 $23 $39 forward $69 $-1 #
edge $70 -1 $-1 $42 -3.1415926535897931 $60 0 $23 $71 forward @7 unknown #
truecolor-adesk-attrib $-1 -1 $72 $-1 $25 -1040106286 #
vertex $-1 -1 $-1 $25 $73 #
vertex $-1 -1 $-1 $25 $74 #
ellipse-curve $-1 -1 $-1 6.2579451436429754e-15 -13.117157287525366 -51.100000000000001 1 0 1.2246467991473532e-16 2.4492935982946917e-17 0 -0.19999999999999879 1 F -3.1415926535897931 F -2.3561944901923373 #
DXID-attrib $-1 -1 $-1 $27 $18 @18 ASM_FACE_FROM_STEP @20 Kastas Seals-K38-283 #
truecolor-adesk-attrib $-1 -1 $75 $-1 $28 -1040106286 #
face $76 -1 $-1 $77 $78 $4 $-1 $79 reversed single #
loop $-1 -1 $-1 $-1 $80 $28 #
torus-surface $-1 -1 $-1 0 -5.3877692677999907 0 0 1 0 61.70000000000001 3.0000000000000004 0 0 1 forward_v I I I I #
coedge $-1 -1 $-1 $81 $82 $83 $84 reversed $29 $-1 #
coedge $-1 -1 $-1 $85 $31 $86 $87 forward $19 $-1 #
coedge $-1 -1 $-1 $31 $85 $88 $89 reversed $19 $-1 #
coedge $-1 -1 $-1 $90 $91 $31 $53 forward $92 $-1 #
edge $93 -1 $-1 $94 -3.1415926535897931 $95 0 $31 $96 forward @7 unknown #
coedge $-1 -1 $-1 $97 $98 $32 $55 reversed $99 $-1 #
edge $100 -1 $-1 $59 0 $41 3.1415926535897931 $32 $101 forward @7 unknown #
coedge $-1 -1 $-1 $102 $103 $33 $57 forward $104 $-1 #
edge $105 -1 $-1 $60 0 $42 3.1415926535897931 $33 $106 forward @7 unknown #
truecolor-adesk-attrib $-1 -1 $107 $-1 $35 -1040106286 #
vertex $-1 -1 $-1 $37 $108 #
vertex $-1 -1 $-1 $35 $109 #
ellipse-curve $-1 -1 $-1 0 -13.117157287525366 51.100000000000001 -1 0 0 0 0 0.19999999999999879 1 F -3.1415926535897931 F -2.3561944901923373 #
coedge $-1 -1 $-1 $110 $36 $98 $111 reversed $64 $-1 #
coedge $-1 -1 $-1 $36 $110 $97 $112 forward $64 $-1 #
loop $-1 -1 $-1 $-1 $36 $113 #
truecolor-adesk-attrib $-1 -1 $114 $-1 $37 -1040106286 #
ellipse-curve $-1 -1 $-1 0 -13.117157287525366 0 0 1 0 0 0 50.899999999999999 1 F -3.1415926535897931 F 0 #
coedge $-1 -1 $-1 $115 $38 $103 $116 forward $69 $-1 #
coedge $-1 -1 $-1 $38 $115 $102 $117 reversed $69 $-1 #
loop $-1 -1 $-1 $-1 $38 $118 #
truecolor-adesk-attrib $-1 -1 $119 $-1 $39 -1040106286 #
ellipse-curve $-1 -1 $-1 0 -13.258578643762677 0 0 1 0 0 0 50.958578643762685 1 F -3.1415926535897931 F 0 #
DXID-attrib $-1 -1 $-1 $40 $25 @18 ASM_EDGE_FROM_STEP @3 314 #
point $-1 -1 $-1 6.2334522076600295e-15 -13.117157287525366 -50.899999999999999 #
point $-1 -1 $-1 6.2406260225182646e-15 -13.258578643762677 -50.958578643762692 #
DXID-attrib $-1 -1 $-1 $45 $28 @18 ASM_FACE_FROM_STEP @20 Kastas Seals-K38-393 #
truecolor-adesk-attrib $-1 -1 $120 $-1 $46 -1040106286 #
face $121 -1 $-1 $122 $123 $4 $-1 $124 forward single #
loop $-1 -1 $-1 $-1 $125 $46 #
torus-surface $-1 -1 $-1 0 -5.3877692677999791 0 0 1 0 48.500000000000007 3.0000000000000004 0 0 1 forward_v I I I I #
coedge $-1 -1 $-1 $126 $127 $128 $129 reversed $47 $-1 #
coedge $-1 -1 $-1 $130 $49 $131 $132 forward $29 $-1 #
coedge $-1 -1 $-1 $49 $130 $133 $134 reversed $29 $-1 #
coedge $-1 -1 $-1 $135 $136 $49 $84 forward $137 $-1 #
edge $138 -1 $-1 $139 -3.1415926535897931 $140 0 $49 $141 forward @7 unknown #
coedge $-1 -1 $-1 $51 $50 $115 $142 reversed $19 $-1 #
coedge $-1 -1 $-1 $143 $144 $50 $87 reversed $145 $-1 #
edge $146 -1 $-1 $94 0 $147 0.78539816339735413 $50 $148 forward @7 unknown #
coedge $-1 -1 $-1 $144 $143 $51 $89 forward $145 $-1 #
edge $149 -1 $-1 $95 0 $150 0.78539816339735413 $51 $151 forward @7 unknown #
coedge $-1 -1 $-1 $152 $52 $153 $154 reversed $92 $-1 #
coedge $-1 -1 $-1 $52 $152 $155 $156 forward $92 $-1 #
loop $-1 -1 $-1 $-1 $152 $157 #
truecolor-adesk-attrib $-1 -1 $158 $-1 $53 -1040106286 #
vertex $-1 -1 $-1 $53 $159 #
vertex $-1 -1 $-1 $53 $160 #
ellipse-curve $-1 -1 $-1 0 -13.882842712474623 0 0 1 0 0 0 51.500000000000014 1 F -3.1415926535897931 F 0 #
coedge $-1 -1 $-1 $161 $54 $63 $112 reversed $99 $-1 #
coedge $-1 -1 $-1 $54 $161 $62 $111 forward $99 $-1 #
loop $-1 -1 $-1 $-1 $54 $162 #
truecolor-adesk-attrib $-1 -1 $163 $-1 $55 -1040106286 #
ellipse-curve $-1 -1 $-1 0 -13.117157287525366 0 0 1 0 0 0 50.899999999999999 1 F 0 F 3.1415926535897931 #
coedge $-1 -1 $-1 $164 $56 $68 $117 forward $104 $-1 #
coedge $-1 -1 $-1 $56 $164 $67 $116 reversed $104 $-1 #
loop $-1 -1 $-1 $-1 $103 $165 #
truecolor-adesk-attrib $-1 -1 $166 $-1 $57 -1040106286 #
ellipse-curve $-1 -1 $-1 0 -13.258578643762677 0 0 1 0 0 0 50.958578643762685 1 F 0 F 3.1415926535897931 #
DXID-attrib $-1 -1 $-1 $58 $35 @18 ASM_EDGE_FROM_STEP @3 401 #
point $-1 -1 $-1 0 -13.117157287525366 50.899999999999999 #
point $-1 -1 $-1 0 -13.258578643762677 50.958578643762692 #
coedge $-1 -1 $-1 $63 $62 $167 $168 forward $64 $-1 #
edge $169 -1 $-1 $170 2.4434609527920466 $41 3.1415926535897931 $98 $171 forward @7 unknown #
edge $172 -1 $-1 $173 2.4434609527920466 $59 3.1415926535897931 $97 $174 forward @7 unknown #
face $175 -1 $-1 $165 $64 $4 $-1 $176 forward single #
DXID-attrib $-1 -1 $-1 $65 $37 @18 ASM_EDGE_FROM_STEP @3 605 #
coedge $-1 -1 $-1 $68 $67 $85 $142 forward $69 $-1 #
edge $177 -1 $-1 $60 -0.00076568542494925688 $150 -8.2842712474602716e-05 $67 $178 forward @7 unknown #
edge $179 -1 $-1 $42 -0.00076568542494925688 $147 -8.2842712474602716e-05 $68 $180 forward @7 unknown #
face $181 -1 $-1 $162 $69 $4 $-1 $182 reversed single #
DXID-attrib $-1 -1 $-1 $70 $39 @18 ASM_EDGE_FROM_STEP @3 647 #
DXID-attrib $-1 -1 $-1 $76 $46 @18 ASM_FACE_FROM_STEP @20 Kastas Seals-K38-408 #
truecolor-adesk-attrib $-1 -1 $183 $-1 $77 -1040106286 #
face $184 -1 $-1 $185 $186 $4 $-1 $187 forward single #
loop $-1 -1 $-1 $-1 $188 $77 #
cone-surface $-1 -1 $-1 0 -1.0641117941894225e-14 0 0 -1 0 0 0 -60.299999999999997 1 I I 0.70710678118654613 0.70710678118654891 60.300000000000004 forward I I I I #
coedge $-1 -1 $-1 $189 $190 $191 $192 reversed $78 $-1 #
coedge $-1 -1 $-1 $193 $80 $194 $195 forward $47 $-1 #
coedge $-1 -1 $-1 $80 $193 $196 $197 reversed $47 $-1 #
coedge $-1 -1 $-1 $198 $199 $80 $129 forward $200 $-1 #
edge $201 -1 $-1 $202 -3.1415926535897931 $203 0 $80 $204 forward @7 unknown #
coedge $-1 -1 $-1 $82 $81 $205 $206 reversed $29 $-1 #
coedge $-1 -1 $-1 $207 $208 $81 $132 reversed $209 $-1 #
edge $210 -1 $-1 $139 -0.69813170079772391 $211 0 $81 $212 forward @7 unknown #
coedge $-1 -1 $-1 $208 $207 $82 $134 forward $209 $-1 #
edge $213 -1 $-1 $140 -0.69813170079772391 $214 0 $82 $215 forward @7 unknown #
coedge $-1 -1 $-1 $167 $83 $216 $217 reversed $137 $-1 #
coedge $-1 -1 $-1 $83 $167 $218 $219 forward $137 $-1 #
loop $-1 -1 $-1 $-1 $167 $220 #
truecolor-adesk-attrib $-1 -1 $221 $-1 $84 -1040106286 #
vertex $-1 -1 $-1 $84 $222 #
vertex $-1 -1 $-1 $84 $223 #
ellipse-curve $-1 -1 $-1 0 -12.440838035283715 0 0 1 0 0 0 51.406417777247597 1 F -3.1415926535897931 F 0 #
edge $224 -1 $-1 $150 -3.1415926535897931 $147 0 $85 $225 forward @7 unknown #
coedge $-1 -1 $-1 $88 $86 $226 $227 reversed $145 $-1 #
coedge $-1 -1 $-1 $86 $88 $164 $228 reversed $145 $-1 #
loop $-1 -1 $-1 $-1 $86 $229 #
truecolor-adesk-attrib $-1 -1 $230 $-1 $87 -1040106286 #
vertex $-1 -1 $-1 $87 $231 #
ellipse-curve $-1 -1 $-1 6.2824380796259221e-15 -13.882842712474623 -51.300000000000011 1 0 1.2246467991473532e-16 2.4492935982946917e-17 0 -0.19999999999999879 1 F 0 F 0.78539816339735413 #
truecolor-adesk-attrib $-1 -1 $232 $-1 $89 -1040106286 #
vertex $-1 -1 $-1 $142 $233 #
ellipse-curve $-1 -1 $-1 0 -13.882842712474623 51.300000000000011 -1 0 0 0 0 0.19999999999999879 1 F 0 F 0.78539816339735413 #
coedge $-1 -1 $-1 $91 $90 $234 $235 reversed $92 $-1 #
coedge $-1 -1 $-1 $226 $236 $90 $154 forward $237 $-1 #
edge $238 -1 $-1 $239 -0.014200000000000001 $95 -0.013882842712474624 $90 $240 forward @7 unknown #
coedge $-1 -1 $-1 $236 $226 $91 $156 reversed $237 $-1 #
edge $241 -1 $-1 $242 -0.014200000000000001 $94 -0.013882842712474624 $91 $243 forward @7 unknown #
face $244 -1 $-1 $118 $92 $4 $-1 $245 reversed single #
DXID-attrib $-1 -1 $-1 $93 $53 @18 ASM_EDGE_FROM_STEP @3 185 #
point $-1 -1 $-1 6.3069310156088696e-15 -13.882842712474623 -51.500000000000014 #
point $-1 -1 $-1 0 -13.882842712474623 51.500000000000014 #
coedge $-1 -1 $-1 $98 $97 $246 $247 forward $99 $-1 #
face $248 -1 $-1 $220 $99 $4 $-1 $249 forward single #
DXID-attrib $-1 -1 $-1 $100 $55 @18 ASM_EDGE_FROM_STEP @3 543 #
coedge $-1 -1 $-1 $103 $102 $144 $228 forward $104 $-1 #
face $250 -1 $-1 $251 $104 $4 $-1 $252 reversed single #
DXID-attrib $-1 -1 $-1 $105 $57 @18 ASM_EDGE_FROM_STEP @1 6 #
coedge $-1 -1 $-1 $136 $135 $110 $168 reversed $137 $-1 #
edge $253 -1 $-1 $170 -3.1415926535897931 $173 0 $167 $254 forward @7 unknown #
truecolor-adesk-attrib $-1 -1 $255 $-1 $111 -1040106286 #
vertex $-1 -1 $-1 $247 $256 #
ellipse-curve $-1 -1 $-1 6.2579451436429754e-15 -13.117157287525366 -51.100000000000001 1 0 1.2246467991473532e-16 2.4492935982946917e-17 0 -0.19999999999999879 1 F 2.4434609527920466 F 3.1415926535897931 #
truecolor-adesk-attrib $-1 -1 $257 $-1 $112 -1040106286 #
vertex $-1 -1 $-1 $112 $258 #
ellipse-curve $-1 -1 $-1 0 -13.117157287525366 51.100000000000001 -1 0 0 0 0 0.19999999999999879 1 F 2.4434609527920466 F 3.1415926535897931 #
truecolor-adesk-attrib $-1 -1 $259 $-1 $113 -1040106286 #
torus-surface $-1 -1 $-1 0 -13.117157287525366 0 0 1 0 51.100000000000001 0.20000000000000143 0 0 1 forward_v I I I I #
truecolor-adesk-attrib $-1 -1 $260 $-1 $116 -1040106286 #
straight-curve $-1 -1 $-1 6.3069310156088696e-15 -13.799999999999999 51.500000000000014 8.6595605623548912e-14 -707.10678118655085 707.10678118654414 F -0.00076568542494925688 F -8.2842712474602716e-05 #
truecolor-adesk-attrib $-1 -1 $261 $-1 $117 -1040106286 #
straight-curve $-1 -1 $-1 0 -13.799999999999999 -51.500000000000014 0 -707.10678118655085 -707.10678118654414 F -0.00076568542494925688 F -8.2842712474602716e-05 #
truecolor-adesk-attrib $-1 -1 $262 $-1 $118 -1040106286 #
cone-surface $-1 -1 $-1 0 -13.799999999999999 0 0 -1 0 0 0 -51.500000000000014 1 I I 0.70710678118654413 0.7071067811865509 51.500000000000014 forward I I I I #
DXID-attrib $-1 -1 $-1 $121 $77 @18 ASM_FACE_FROM_STEP @20 Kastas Seals-K38-350 #
truecolor-adesk-attrib $-1 -1 $263 $-1 $122 -1040106286 #
face $264 -1 $-1 $265 $266 $4 $-1 $267 forward single #
loop $-1 -1 $-1 $-1 $268 $122 #
cone-surface $-1 -1 $-1 0 -0.80000000000001603 0 0 1 0 0 0 61.100000000000001 1 I I 0.54419110509902335 0.8389612870276576 61.100000000000001 forward I I I I #
coedge $-1 -1 $-1 $269 $270 $271 $272 reversed $123 $-1 #
coedge $-1 -1 $-1 $273 $125 $274 $275 forward $78 $-1 #
coedge $-1 -1 $-1 $125 $273 $276 $277 reversed $78 $-1 #
coedge $-1 -1 $-1 $278 $279 $125 $192 forward $280 $-1 #
edge $281 -1 $-1 $282 -3.1415926535897931 $283 0 $125 $284 forward @7 unknown #
coedge $-1 -1 $-1 $127 $126 $285 $286 reversed $47 $-1 #
coedge $-1 -1 $-1 $287 $288 $126 $195 reversed $289 $-1 #
edge $290 -1 $-1 $202 2.5661680030545084 $291 3.1415926535897931 $126 $292 forward @7 unknown #
coedge $-1 -1 $-1 $288 $287 $127 $197 forward $289 $-1 #
edge $293 -1 $-1 $203 2.5661680030545084 $294 3.1415926535897931 $127 $295 forward @7 unknown #
coedge $-1 -1 $-1 $296 $128 $297 $298 forward $200 $-1 #
coedge $-1 -1 $-1 $128 $296 $299 $300 reversed $200 $-1 #
loop $-1 -1 $-1 $-1 $199 $301 #
truecolor-adesk-attrib $-1 -1 $302 $-1 $129 -1040106286 #
vertex $-1 -1 $-1 $129 $303 #
vertex $-1 -1 $-1 $129 $304 #
ellipse-curve $-1 -1 $-1 0 -3.7551959525029126 0 0 1 0 0 0 59.183116138917015 1 F -3.1415926535897931 F 0 #
coedge $-1 -1 $-1 $279 $278 $130 $206 forward $280 $-1 #
edge $305 -1 $-1 $214 0 $211 3.1415926535897931 $130 $306 forward @7 unknown #
coedge $-1 -1 $-1 $133 $131 $307 $308 reversed $209 $-1 #
coedge $-1 -1 $-1 $131 $133 $309 $310 reversed $209 $-1 #
loop $-1 -1 $-1 $-1 $131 $311 #
truecolor-adesk-attrib $-1 -1 $312 $-1 $132 -1040106286 #
vertex $-1 -1 $-1 $132 $313 #
ellipse-curve $-1 -1 $-1 6.2579451436429762e-15 -12.183722991409098 -51.100000000000009 1 0 1.2246467991473532e-16 4.8985871965893835e-17 0 -0.39999999999999758 1 F -0.69813170079772391 F 0 #
truecolor-adesk-attrib $-1 -1 $314 $-1 $134 -1040106286 #
vertex $-1 -1 $-1 $206 $315 #
ellipse-curve $-1 -1 $-1 0 -12.183722991409098 51.100000000000009 -1 0 0 0 0 0.39999999999999758 1 F -0.69813170079772391 F 0 #
coedge $-1 -1 $-1 $307 $246 $135 $217 forward $316 $-1 #
edge $317 -1 $-1 $173 0 $140 0.00071505215555654506 $135 $318 forward @7 unknown #
coedge $-1 -1 $-1 $246 $307 $136 $219 reversed $316 $-1 #
edge $319 -1 $-1 $170 2.2154625924320044e-36 $139 0.00071505215555654506 $136 $320 forward @7 unknown #
face $321 -1 $-1 $322 $137 $4 $-1 $323 reversed single #
DXID-attrib $-1 -1 $-1 $138 $84 @18 ASM_EDGE_FROM_STEP @4 1010 #
point $-1 -1 $-1 6.295470498653788e-15 -12.440838035283715 -51.406417777247604 #
point $-1 -1 $-1 0 -12.440838035283715 51.406417777247604 #
truecolor-adesk-attrib $-1 -1 $324 $-1 $142 -1040106286 #
ellipse-curve $-1 -1 $-1 0 -13.741421356237321 0 0 -1 0 0 0 -51.441421356237313 1 F -3.1415926535897931 F 0 #
coedge $-1 -1 $-1 $155 $153 $143 $227 forward $237 $-1 #
edge $325 -1 $-1 $95 0 $94 3.1415926535897931 $226 $326 forward @7 unknown #
edge $327 -1 $-1 $147 0 $150 3.1415926535897931 $164 $328 forward @7 unknown #
face $329 -1 $-1 $-1 $145 $4 $-1 $330 reversed single #
DXID-attrib $-1 -1 $-1 $146 $87 @18 ASM_EDGE_FROM_STEP @2 32 #
point $-1 -1 $-1 0 -13.741421356237321 -51.441421356237328 #
DXID-attrib $-1 -1 $-1 $149 $89 @18 ASM_EDGE_FROM_STEP @3 362 #
point $-1 -1 $-1 6.2997572007506336e-15 -13.741421356237321 51.441421356237328 #
coedge $-1 -1 $-1 $331 $332 $152 $235 forward $333 $-1 #
edge $334 -1 $-1 $242 -3.1415926535897931 $239 0 $152 $335 forward @7 unknown #
coedge $-1 -1 $-1 $153 $155 $336 $337 reversed $237 $-1 #
loop $-1 -1 $-1 $-1 $155 $251 #
truecolor-adesk-attrib $-1 -1 $338 $-1 $154 -1040106286 #
vertex $-1 -1 $-1 $337 $339 #
straight-curve $-1 -1 $-1 0 0 51.500000000000014 0 1000 0 F -0.014200000000000001 F -0.013882842712474624 #
truecolor-adesk-attrib $-1 -1 $340 $-1 $156 -1040106286 #
vertex $-1 -1 $-1 $337 $341 #
straight-curve $-1 -1 $-1 6.3069310156088696e-15 0 -51.500000000000014 0 1000 0 F -0.014200000000000001 F -0.013882842712474624 #
truecolor-adesk-attrib $-1 -1 $342 $-1 $157 -1040106286 #
cone-surface $-1 -1 $-1 0 0 0 0 1 0 0 0 51.500000000000014 1 I I 0 1 51.500000000000014 forward I I I I #
coedge $-1 -1 $-1 $216 $218 $161 $247 reversed $316 $-1 #
edge $343 -1 $-1 $173 0 $170 3.1415926535897931 $161 $344 forward @7 unknown #
truecolor-adesk-attrib $-1 -1 $345 $-1 $162 -1040106286 #
torus-surface $-1 -1 $-1 0 -13.117157287525366 0 0 1 0 51.100000000000001 0.20000000000000143 0 0 1 forward_v I I I I #
truecolor-adesk-attrib $-1 -1 $346 $-1 $165 -1040106286 #
face $347 -1 $-1 $348 $237 $4 $-1 $349 reversed single #
cone-surface $-1 -1 $-1 0 -13.799999999999999 0 0 -1 0 0 0 -51.500000000000014 1 I I 0.70710678118654413 0.7071067811865509 51.500000000000014 forward I I I I #
truecolor-adesk-attrib $-1 -1 $350 $-1 $168 -1040106286 #
ellipse-curve $-1 -1 $-1 0 -12.988599765588056 0 0 1 0 0 0 50.946791111376214 1 F -3.1415926535897931 F 0 #
DXID-attrib $-1 -1 $-1 $169 $111 @18 ASM_EDGE_FROM_STEP @3 217 #
point $-1 -1 $-1 6.2673264823956789e-15 -12.988599765588056 -50.946791111376214 #
DXID-attrib $-1 -1 $-1 $172 $112 @18 ASM_EDGE_FROM_STEP @3 819 #
point $-1 -1 $-1 0 -12.988599765588056 50.946791111376214 #
DXID-attrib $-1 -1 $-1 $175 $113 @18 ASM_FACE_FROM_STEP @20 Kastas Seals-K38-614 #
DXID-attrib $-1 -1 $-1 $177 $116 @18 ASM_EDGE_FROM_STEP @3 425 #
DXID-attrib $-1 -1 $-1 $179 $117 @18 ASM_EDGE_FROM_STEP @3 289 #
DXID-attrib $-1 -1 $-1 $181 $118 @18 ASM_FACE_FROM_STEP @20 Kastas Seals-K38-699 #
DXID-attrib $-1 -1 $-1 $184 $122 @18 ASM_FACE_FROM_STEP @19 Kastas Seals-K38-38 #
truecolor-adesk-attrib $-1 -1 $351 $-1 $185 -1040106286 #
face $352 -1 $-1 $353 $354 $4 $-1 $355 forward single #
loop $-1 -1 $-1 $-1 $356 $185 #
cone-surface $-1 -1 $-1 0 0 0 0 1 0 0 0 58.700000000000003 1 I I 0 1 58.70000000000001 forward I I I I #
coedge $-1 -1 $-1 $299 $297 $287 $357 forward $186 $-1 #
coedge $-1 -1 $-1 $358 $188 $359 $360 forward $123 $-1 #
coedge $-1 -1 $-1 $188 $358 $361 $362 reversed $123 $-1 #
coedge $-1 -1 $-1 $363 $363 $188 $272 forward $364 $-1 #
edge $365 -1 $-1 $366 1.2327704926740358e-16 $367 3.1415926535897931 $188 $368 forward @7 unknown #
coedge $-1 -1 $-1 $190 $189 $369 $370 reversed $78 $-1 #
coedge $-1 -1 $-1 $371 $372 $189 $275 reversed $373 $-1 #
edge $374 -1 $-1 $282 0 $375 0.57542465053528569 $189 $376 forward @7 unknown #
coedge $-1 -1 $-1 $372 $371 $190 $277 forward $373 $-1 #
edge $377 -1 $-1 $283 0 $378 0.57542465053528569 $190 $379 forward @7 unknown #
coedge $-1 -1 $-1 $205 $191 $380 $381 reversed $280 $-1 #
coedge $-1 -1 $-1 $191 $205 $382 $383 forward $280 $-1 #
loop $-1 -1 $-1 $-1 $205 $322 #
truecolor-adesk-attrib $-1 -1 $384 $-1 $192 -1040106286 #
vertex $-1 -1 $-1 $192 $385 #
vertex $-1 -1 $-1 $192 $386 #
ellipse-curve $-1 -1 $-1 0 -5.3877692677999791 0 0 1 0 0 0 51.500000000000014 1 F -3.1415926535897931 F 0 #
coedge $-1 -1 $-1 $387 $388 $193 $286 forward $389 $-1 #
edge $390 -1 $-1 $294 0 $291 3.1415926535897931 $193 $391 forward @7 unknown #
coedge $-1 -1 $-1 $196 $194 $268 $357 reversed $289 $-1 #
coedge $-1 -1 $-1 $194 $196 $392 $393 reversed $289 $-1 #
loop $-1 -1 $-1 $-1 $194 $394 #
truecolor-adesk-attrib $-1 -1 $395 $-1 $195 -1040106286 #
vertex $-1 -1 $-1 $195 $396 #
ellipse-curve $-1 -1 $-1 7.5560707507391694e-15 -5.3877692677999907 -61.70000000000001 1 0 1.2246467991473535e-16 3.6739403974420638e-16 0 -3.0000000000000027 1 F 2.5661680030545084 F 3.1415926535897931 #
truecolor-adesk-attrib $-1 -1 $397 $-1 $197 -1040106286 #
vertex $-1 -1 $-1 $286 $398 #
ellipse-curve $-1 -1 $-1 0 -5.3877692677999907 61.70000000000001 -1 0 0 0 0 3.0000000000000027 1 F 2.5661680030545084 F 3.1415926535897931 #
coedge $-1 -1 $-1 $199 $198 $399 $400 reversed $200 $-1 #
coedge $-1 -1 $-1 $268 $401 $198 $298 reversed $186 $-1 #
edge $402 -1 $-1 $203 -0.0035224461464399915 $403 0 $297 $404 forward @7 unknown #
coedge $-1 -1 $-1 $401 $268 $199 $300 forward $186 $-1 #
edge $405 -1 $-1 $202 -0.0035224461464399915 $406 0 $299 $407 forward @7 unknown #
face $408 -1 $-1 $409 $200 $4 $-1 $410 forward single #
DXID-attrib $-1 -1 $-1 $201 $129 @18 ASM_EDGE_FROM_STEP @3 635 #
point $-1 -1 $-1 7.3652166585497021e-15 -3.7551959525029126 -59.183116138917015 #
point $-1 -1 $-1 0 -3.7551959525029126 59.183116138917015 #
truecolor-adesk-attrib $-1 -1 $411 $-1 $206 -1040106286 #
ellipse-curve $-1 -1 $-1 0 -12.183722991409098 0 0 -1 0 0 0 51.500000000000014 1 F 0 F 3.1415926535897931 #
coedge $-1 -1 $-1 $218 $216 $207 $308 forward $316 $-1 #
edge $412 -1 $-1 $140 0 $139 3.1415926535897931 $307 $413 forward @7 unknown #
coedge $-1 -1 $-1 $380 $382 $208 $310 forward $414 $-1 #
edge $415 -1 $-1 $211 -3.1415926535897931 $214 0 $309 $416 forward @7 unknown #
face $417 -1 $-1 $229 $209 $4 $-1 $418 reversed single #
DXID-attrib $-1 -1 $-1 $210 $132 @18 ASM_EDGE_FROM_STEP @3 683 #
point $-1 -1 $-1 6.3069310156088696e-15 -12.183722991409098 -51.500000000000014 #
DXID-attrib $-1 -1 $-1 $213 $134 @18 ASM_EDGE_FROM_STEP @3 902 #
point $-1 -1 $-1 0 -12.183722991409098 51.500000000000014 #
loop $-1 -1 $-1 $-1 $218 $419 #
truecolor-adesk-attrib $-1 -1 $420 $-1 $217 -1040106286 #
straight-curve $-1 -1 $-1 0 -12.988599765588056 50.946791111376214 0 766.04444311898203 642.78760968653455 F 0 F 0.00071505215555654506 #
truecolor-adesk-attrib $-1 -1 $421 $-1 $219 -1040106286 #
straight-curve $-1 -1 $-1 6.2391824661375699e-15 -12.988599765588056 -50.946791111376214 7.8718778873419281e-14 766.04444311898203 -642.78760968653455 F 2.2154625924320044e-36 F 0.00071505215555654506 #
truecolor-adesk-attrib $-1 -1 $422 $-1 $220 -1040106286 #
face $423 -1 $-1 $424 $280 $4 $-1 $425 reversed single #
cone-surface $-1 -1 $-1 0 -12.988599765588056 0 0 1 0 0 0 50.946791111376214 1 I I 0.64278760968653459 0.76604444311898201 50.946791111376214 forward I I I I #
DXID-attrib $-1 -1 $-1 $224 $142 @18 ASM_EDGE_FROM_STEP @3 742 #
truecolor-adesk-attrib $-1 -1 $426 $-1 $227 -1040106286 #
ellipse-curve $-1 -1 $-1 0 -13.882842712474623 0 0 1 0 0 0 51.500000000000014 1 F 0 F 3.1415926535897931 #
truecolor-adesk-attrib $-1 -1 $427 $-1 $228 -1040106286 #
ellipse-curve $-1 -1 $-1 0 -13.741421356237321 0 0 -1 0 0 0 -51.441421356237313 1 F 0 F 3.1415926535897931 #
truecolor-adesk-attrib $-1 -1 $428 $-1 $229 -1040106286 #
torus-surface $-1 -1 $-1 0 -13.882842712474623 0 0 1 0 51.300000000000011 0.20000000000000004 0 0 1 forward_v I I I I #
coedge $-1 -1 $-1 $429 $234 $430 $431 forward $333 $-1 #
coedge $-1 -1 $-1 $234 $429 $432 $433 reversed $333 $-1 #
loop $-1 -1 $-1 $-1 $332 $348 #
truecolor-adesk-attrib $-1 -1 $434 $-1 $235 -1040106286 #
ellipse-curve $-1 -1 $-1 0 -14.200000000000001 0 0 1 0 0 0 51.500000000000014 1 F -3.1415926535897931 F 0 #
coedge $-1 -1 $-1 $432 $430 $236 $337 forward $435 $-1 #
edge $436 -1 $-1 $239 0 $242 3.1415926535897931 $336 $437 forward @7 unknown #
DXID-attrib $-1 -1 $-1 $238 $154 @18 ASM_EDGE_FROM_STEP @3 420 #
point $-1 -1 $-1 0 -14.200000000000001 51.500000000000014 #
DXID-attrib $-1 -1 $-1 $241 $156 @18 ASM_EDGE_FROM_STEP @3 778 #
point $-1 -1 $-1 6.3069310156088696e-15 -14.200000000000001 -51.500000000000014 #
DXID-attrib $-1 -1 $-1 $244 $157 @18 ASM_FACE_FROM_STEP @21 Kastas Seals-K38-1027 #
truecolor-adesk-attrib $-1 -1 $438 $-1 $247 -1040106286 #
ellipse-curve $-1 -1 $-1 0 -12.988599765588056 0 0 1 0 0 0 50.946791111376214 1 F 0 F 3.1415926535897931 #
DXID-attrib $-1 -1 $-1 $248 $162 @18 ASM_FACE_FROM_STEP @20 Kastas Seals-K38-933 #
DXID-attrib $-1 -1 $-1 $250 $165 @18 ASM_FACE_FROM_STEP @20 Kastas Seals-K38-180 #
truecolor-adesk-attrib $-1 -1 $439 $-1 $251 -1040106286 #
face $440 -1 $-1 $441 $333 $4 $-1 $442 forward single #
cone-surface $-1 -1 $-1 0 0 0 0 1 0 0 0 51.500000000000014 1 I I 0 1 51.500000000000014 forward I I I I #
DXID-attrib $-1 -1 $-1 $253 $168 @18 ASM_EDGE_FROM_STEP @3 529 #
DXID-attrib $-1 -1 $-1 $264 $185 @18 ASM_FACE_FROM_STEP @20 Kastas Seals-K38-706 #
truecolor-adesk-attrib $-1 -1 $443 $-1 $265 -1040106286 #
face $444 -1 $-1 $157 $435 $4 $-1 $445 forward single #
loop $-1 -1 $-1 $-1 $446 $265 #
torus-surface $-1 -1 $-1 0 -14.199999999999999 0 0 1 0 57.899999999999999 0.80000000000000127 0 0 1 forward_v I I I I #
coedge $-1 -1 $-1 $447 $448 $449 $450 forward $266 $-1 #
edge $451 -1 $-1 $203 0 $202 3.1415926535897931 $268 $452 forward @7 unknown #
coedge $-1 -1 $-1 $270 $269 $401 $453 forward $123 $-1 #
coedge $-1 -1 $-1 $454 $399 $269 $360 reversed $455 $-1 #
edge $456 -1 $-1 $366 4.2419612498842296e-36 $403 0.0011313708498984802 $269 $457 forward @7 unknown #
coedge $-1 -1 $-1 $399 $454 $270 $362 forward $455 $-1 #
edge $458 -1 $-1 $367 0 $406 0.0011313708498984802 $270 $459 forward @7 unknown #
coedge $-1 -1 $-1 $271 $271 $454 $460 forward $364 $-1 #
loop $-1 -1 $-1 $461 $363 $462 #
truecolor-adesk-attrib $-1 -1 $463 $-1 $272 -1040106286 #
vertex $-1 -1 $-1 $272 $464 #
vertex $-1 -1 $-1 $272 $465 #
ellipse-curve $-1 -1 $-1 0 -1.0641117941894225e-14 0 0 1 0 0 0 60.299999999999997 1 F 1.2327704926740358e-16 F 3.1415926535897931 #
coedge $-1 -1 $-1 $466 $467 $273 $370 forward $468 $-1 #
edge $469 -1 $-1 $378 -3.1415926535897931 $375 0 $273 $470 forward @7 unknown #
coedge $-1 -1 $-1 $276 $274 $471 $472 reversed $373 $-1 #
coedge $-1 -1 $-1 $274 $276 $473 $474 reversed $373 $-1 #
loop $-1 -1 $-1 $-1 $274 $475 #
truecolor-adesk-attrib $-1 -1 $476 $-1 $275 -1040106286 #
vertex $-1 -1 $-1 $275 $477 #
ellipse-curve $-1 -1 $-1 5.9395369758646642e-15 -5.3877692677999791 -48.500000000000007 1 0 1.2246467991473535e-16 3.6739403974420638e-16 0 -3.0000000000000027 1 F 0 F 0.57542465053528569 #
truecolor-adesk-attrib $-1 -1 $478 $-1 $277 -1040106286 #
vertex $-1 -1 $-1 $370 $479 #
ellipse-curve $-1 -1 $-1 0 -5.3877692677999791 48.500000000000007 -1 0 0 0 0 3.0000000000000027 1 F 0 F 0.57542465053528569 #
coedge $-1 -1 $-1 $471 $309 $278 $381 forward $414 $-1 #
edge $480 -1 $-1 $214 -0.012183722991409098 $283 -0.005387769267799979 $278 $481 forward @7 unknown #
coedge $-1 -1 $-1 $309 $471 $279 $383 reversed $414 $-1 #
edge $482 -1 $-1 $211 -0.012183722991409098 $282 -0.005387769267799979 $279 $483 forward @7 unknown #
DXID-attrib $-1 -1 $-1 $281 $192 @18 ASM_EDGE_FROM_STEP @3 893 #
point $-1 -1 $-1 6.3069310156088696e-15 -5.3877692677999791 -51.500000000000014 #
point $-1 -1 $-1 0 -5.3877692677999791 51.500000000000014 #
coedge $-1 -1 $-1 $484 $285 $447 $485 reversed $389 $-1 #
coedge $-1 -1 $-1 $285 $484 $448 $486 forward $389 $-1 #
loop $-1 -1 $-1 $-1 $387 $487 #
truecolor-adesk-attrib $-1 -1 $488 $-1 $286 -1040106286 #
ellipse-curve $-1 -1 $-1 0 -5.3877692677999907 0 0 -1 0 0 0 58.700000000000003 1 F 0 F 3.1415926535897931 #
coedge $-1 -1 $-1 $448 $447 $288 $393 forward $266 $-1 #
edge $489 -1 $-1 $291 -3.1415926535897931 $294 0 $392 $490 forward @7 unknown #
face $491 -1 $-1 $311 $289 $4 $-1 $492 reversed single #
DXID-attrib $-1 -1 $-1 $290 $195 @18 ASM_EDGE_FROM_STEP @3 276 #
point $-1 -1 $-1 7.1886767109949623e-15 -5.3877692677999907 -58.70000000000001 #
DXID-attrib $-1 -1 $-1 $293 $197 @18 ASM_EDGE_FROM_STEP @3 165 #
point $-1 -1 $-1 0 -5.3877692677999907 58.70000000000001 #
coedge $-1 -1 $-1 $359 $361 $296 $400 forward $455 $-1 #
edge $493 -1 $-1 $406 -3.1415926535897931 $403 0 $296 $494 forward @7 unknown #
coedge $-1 -1 $-1 $297 $299 $358 $453 reversed $186 $-1 #
truecolor-adesk-attrib $-1 -1 $495 $-1 $298 -1040106286 #
vertex $-1 -1 $-1 $360 $496 #
straight-curve $-1 -1 $-1 0 -0.80000000000001603 61.100000000000001 0 838.96128702765759 544.19110509902339 F -0.0035224461464399915 F 0 #
truecolor-adesk-attrib $-1 -1 $497 $-1 $300 -1040106286 #
vertex $-1 -1 $-1 $453 $498 #
straight-curve $-1 -1 $-1 7.4825919427903276e-15 -0.80000000000001603 -61.100000000000001 6.6644189498397982e-14 838.96128702765759 -544.19110509902339 F -0.0035224461464399915 F 0 #
truecolor-adesk-attrib $-1 -1 $499 $-1 $301 -1040106286 #
face $500 -1 $-1 $462 $455 $4 $-1 $501 forward single #
cone-surface $-1 -1 $-1 0 -0.80000000000001603 0 0 1 0 0 0 61.100000000000001 1 I I 0.54419110509902335 0.8389612870276576 61.100000000000001 forward I I I I #
DXID-attrib $-1 -1 $-1 $305 $206 @18 ASM_EDGE_FROM_STEP @3 270 #
truecolor-adesk-attrib $-1 -1 $502 $-1 $308 -1040106286 #
ellipse-curve $-1 -1 $-1 0 -12.440838035283715 0 0 1 0 0 0 51.406417777247597 1 F 0 F 3.1415926535897931 #
loop $-1 -1 $-1 $-1 $382 $503 #
truecolor-adesk-attrib $-1 -1 $504 $-1 $310 -1040106286 #
ellipse-curve $-1 -1 $-1 0 -12.183722991409098 0 0 -1 0 0 0 51.500000000000014 1 F -3.1415926535897931 F 0 #
truecolor-adesk-attrib $-1 -1 $505 $-1 $311 -1040106286 #
torus-surface $-1 -1 $-1 0 -12.183722991409098 0 0 1 0 51.100000000000009 0.40000000000000008 0 0 1 forward_v I I I I #
face $506 -1 $-1 $113 $316 $4 $-1 $507 reversed single #
DXID-attrib $-1 -1 $-1 $317 $217 @18 ASM_EDGE_FROM_STEP @4 1124 #
DXID-attrib $-1 -1 $-1 $319 $219 @18 ASM_EDGE_FROM_STEP @4 1084 #
DXID-attrib $-1 -1 $-1 $321 $220 @18 ASM_FACE_FROM_STEP @20 Kastas Seals-K38-491 #
truecolor-adesk-attrib $-1 -1 $508 $-1 $322 -1040106286 #
face $509 -1 $-1 $510 $468 $4 $-1 $511 reversed single #
cone-surface $-1 -1 $-1 0 0 0 0 1 0 0 0 51.500000000000014 1 I I 0 1 51.500000000000014 forward I I I I #
DXID-attrib $-1 -1 $-1 $325 $227 @18 ASM_EDGE_FROM_STEP @3 919 #
DXID-attrib $-1 -1 $-1 $327 $228 @18 ASM_EDGE_FROM_STEP @4 1060 #
DXID-attrib $-1 -1 $-1 $329 $229 @18 ASM_FACE_FROM_STEP @21 Kastas Seals-K38-1053 #
coedge $-1 -1 $-1 $332 $331 $512 $513 reversed $333 $-1 #
coedge $-1 -1 $-1 $336 $514 $331 $431 reversed $435 $-1 #
edge $515 -1 $-1 $239 -3.1415926535897905 $516 -1.5707963267948966 $430 $517 forward @7 unknown #
coedge $-1 -1 $-1 $514 $336 $332 $433 forward $435 $-1 #
edge $518 -1 $-1 $242 -3.1415926535897905 $519 -1.5707963267948966 $432 $520 forward @7 unknown #
DXID-attrib $-1 -1 $-1 $334 $235 @18 ASM_EDGE_FROM_STEP @3 230 #
loop $-1 -1 $-1 $-1 $336 $353 #
truecolor-adesk-attrib $-1 -1 $521 $-1 $337 -1040106286 #
ellipse-curve $-1 -1 $-1 0 -14.200000000000001 0 0 1 0 0 0 51.500000000000014 1 F 0 F 3.1415926535897931 #
DXID-attrib $-1 -1 $-1 $343 $247 @18 ASM_EDGE_FROM_STEP @2 48 #
DXID-attrib $-1 -1 $-1 $347 $251 @18 ASM_FACE_FROM_STEP @20 Kastas Seals-K38-793 #
truecolor-adesk-attrib $-1 -1 $522 $-1 $348 -1040106286 #
face $523 -1 $-1 $524 $525 $4 $-1 $526 forward single #
torus-surface $-1 -1 $-1 0 -14.199999999999999 0 0 1 0 52.300000000000004 0.80000000000000127 0 0 1 forward_v I I I I #
DXID-attrib $-1 -1 $-1 $352 $265 @18 ASM_FACE_FROM_STEP @20 Kastas Seals-K38-939 #
truecolor-adesk-attrib $-1 -1 $527 $-1 $353 -1040106286 #
torus-surface $-1 -1 $-1 0 -14.199999999999999 0 0 1 0 52.300000000000004 0.80000000000000127 0 0 1 forward_v I I I I #
coedge $-1 -1 $-1 $528 $529 $530 $531 forward $354 $-1 #
coedge $-1 -1 $-1 $392 $356 $387 $485 forward $266 $-1 #
coedge $-1 -1 $-1 $356 $392 $388 $486 reversed $266 $-1 #
coedge $-1 -1 $-1 $529 $528 $356 $450 reversed $354 $-1 #
edge $532 -1 $-1 $533 0 $534 3.1415926535897931 $356 $535 forward @7 unknown #
truecolor-adesk-attrib $-1 -1 $536 $-1 $357 -1040106286 #
ellipse-curve $-1 -1 $-1 0 -3.7551959525029126 0 0 1 0 0 0 59.183116138917015 1 F 0 F 3.1415926535897931 #
edge $537 -1 $-1 $403 0 $406 3.1415926535897931 $358 $538 forward @7 unknown #
coedge $-1 -1 $-1 $361 $359 $363 $460 reversed $455 $-1 #
loop $-1 -1 $-1 $-1 $359 $409 #
truecolor-adesk-attrib $-1 -1 $539 $-1 $360 -1040106286 #
straight-curve $-1 -1 $-1 7.3846201988585408e-15 -1.0641117941894225e-14 60.300000000000004 8.6595605623549152e-14 -707.10678118654891 707.1067811865463 F 4.2419612498842296e-36 F 0.0011313708498984802 #
truecolor-adesk-attrib $-1 -1 $540 $-1 $362 -1040106286 #
straight-curve $-1 -1 $-1 0 -1.0641117941894225e-14 -60.300000000000004 0 -707.10678118654891 -707.1067811865463 F 0 F 0.0011313708498984802 #
edge $541 -1 $-1 $367 -3.1415926535897931 $366 1.2327704926740358e-16 $454 $542 forward @7 unknown #
loop $-1 -1 $-1 $-1 $543 $462 #
face $544 -1 $-1 $475 $364 $4 $-1 $545 forward single #
DXID-attrib $-1 -1 $-1 $365 $272 @18 ASM_EDGE_FROM_STEP @3 253 #
point $-1 -1 $-1 7.4336060708244342e-15 -1.0641117941894225e-14 60.300000000000004 #
point $-1 -1 $-1 0 -1.0641117941894225e-14 -60.300000000000004 #
coedge $-1 -1 $-1 $546 $369 $547 $548 reversed $468 $-1 #
coedge $-1 -1 $-1 $369 $546 $549 $550 forward $468 $-1 #
loop $-1 -1 $-1 $-1 $546 $424 #
truecolor-adesk-attrib $-1 -1 $551 $-1 $370 -1040106286 #
ellipse-curve $-1 -1 $-1 0 -3.7551959525029126 0 0 -1 0 0 0 -51.016883861082967 1 F -3.1415926535897931 F 0 #
coedge $-1 -1 $-1 $382 $380 $371 $472 forward $414 $-1 #
edge $552 -1 $-1 $283 0 $282 3.1415926535897931 $471 $553 forward @7 unknown #
coedge $-1 -1 $-1 $549 $547 $372 $474 forward $554 $-1 #
edge $555 -1 $-1 $375 0 $378 3.1415926535897931 $473 $556 forward @7 unknown #
face $557 -1 $-1 $394 $373 $4 $-1 $558 reversed single #
DXID-attrib $-1 -1 $-1 $374 $275 @18 ASM_EDGE_FROM_STEP @3 813 #
point $-1 -1 $-1 0 -3.7551959525029126 -51.016883861082974 #
DXID-attrib $-1 -1 $-1 $377 $277 @18 ASM_EDGE_FROM_STEP @2 13 #
point $-1 -1 $-1 6.2477663522947538e-15 -3.7551959525029126 51.016883861082974 #
truecolor-adesk-attrib $-1 -1 $559 $-1 $381 -1040106286 #
straight-curve $-1 -1 $-1 0 0 51.500000000000014 0 1000 0 F -0.012183722991409098 F -0.005387769267799979 #
truecolor-adesk-attrib $-1 -1 $560 $-1 $383 -1040106286 #
straight-curve $-1 -1 $-1 6.3069310156088696e-15 0 -51.500000000000014 0 1000 0 F -0.012183722991409098 F -0.005387769267799979 #
coedge $-1 -1 $-1 $388 $387 $561 $562 forward $389 $-1 #
edge $563 -1 $-1 $534 -0.014199999999999999 $291 -0.0053877692677999911 $447 $564 forward @7 unknown #
edge $565 -1 $-1 $533 -0.014199999999999999 $294 -0.0053877692677999911 $448 $566 forward @7 unknown #
face $567 -1 $-1 $301 $389 $4 $-1 $568 forward single #
DXID-attrib $-1 -1 $-1 $390 $286 @18 ASM_EDGE_FROM_STEP @3 826 #
truecolor-adesk-attrib $-1 -1 $569 $-1 $393 -1040106286 #
ellipse-curve $-1 -1 $-1 0 -5.3877692677999907 0 0 -1 0 0 0 58.700000000000003 1 F -3.1415926535897931 F 0 #
truecolor-adesk-attrib $-1 -1 $570 $-1 $394 -1040106286 #
torus-surface $-1 -1 $-1 0 -5.3877692677999907 0 0 1 0 61.70000000000001 3.0000000000000004 0 0 1 forward_v I I I I #
truecolor-adesk-attrib $-1 -1 $571 $-1 $400 -1040106286 #
ellipse-curve $-1 -1 $-1 0 -0.80000000000001603 0 0 1 0 0 0 61.100000000000001 1 F -3.1415926535897931 F 0 #
DXID-attrib $-1 -1 $-1 $402 $298 @18 ASM_EDGE_FROM_STEP @4 1018 #
point $-1 -1 $-1 0 -0.80000000000001603 61.100000000000001 #
DXID-attrib $-1 -1 $-1 $405 $300 @18 ASM_EDGE_FROM_STEP @3 869 #
point $-1 -1 $-1 7.4825919427903276e-15 -0.80000000000001603 -61.100000000000001 #
DXID-attrib $-1 -1 $-1 $408 $301 @18 ASM_FACE_FROM_STEP @20 Kastas Seals-K38-886 #
truecolor-adesk-attrib $-1 -1 $572 $-1 $409 -1040106286 #
cone-surface $-1 -1 $-1 0 -1.0641117941894225e-14 0 0 -1 0 0 0 -60.299999999999997 1 I I 0.70710678118654613 0.70710678118654891 60.300000000000004 forward I I I I #
DXID-attrib $-1 -1 $-1 $412 $308 @18 ASM_EDGE_FROM_STEP @3 477 #
face $573 -1 $-1 $419 $414 $4 $-1 $574 reversed single #
DXID-attrib $-1 -1 $-1 $415 $310 @18 ASM_EDGE_FROM_STEP @3 107 #
DXID-attrib $-1 -1 $-1 $417 $311 @18 ASM_FACE_FROM_STEP @21 Kastas Seals-K38-1119 #
truecolor-adesk-attrib $-1 -1 $575 $-1 $419 -1040106286 #
cone-surface $-1 -1 $-1 0 -12.988599765588056 0 0 1 0 0 0 50.946791111376214 1 I I 0.64278760968653459 0.76604444311898201 50.946791111376214 forward I I I I #
DXID-attrib $-1 -1 $-1 $423 $322 @18 ASM_FACE_FROM_STEP @20 Kastas Seals-K38-873 #
truecolor-adesk-attrib $-1 -1 $576 $-1 $424 -1040106286 #
face $577 -1 $-1 $578 $579 $4 $-1 $580 reversed single #
cone-surface $-1 -1 $-1 0 -4.5 0 0 -1 0 0 0 -51.500000000000014 1 I I 0.54419110509902213 0.83896128702765838 51.500000000000014 forward I I I I #
coedge $-1 -1 $-1 $581 $581 $429 $513 forward $582 $-1 #
edge $583 -1 $-1 $519 -3.1415926535897931 $516 0 $429 $584 forward @7 unknown #
coedge $-1 -1 $-1 $430 $432 $581 $585 reversed $435 $-1 #
truecolor-adesk-attrib $-1 -1 $586 $-1 $431 -1040106286 #
vertex $-1 -1 $-1 $585 $587 #
ellipse-curve $-1 -1 $-1 0 -14.199999999999999 52.300000000000004 -1 0 0 0 0 0.80000000000000204 1 F -3.1415926535897905 F -1.5707963267948966 #
truecolor-adesk-attrib $-1 -1 $588 $-1 $433 -1040106286 #
vertex $-1 -1 $-1 $433 $589 #
ellipse-curve $-1 -1 $-1 6.4049027595406588e-15 -14.199999999999999 -52.300000000000004 1 0 1.2246467991473535e-16 9.797174393178852e-17 0 -0.80000000000000204 1 F -3.1415926535897905 F -1.5707963267948966 #
DXID-attrib $-1 -1 $-1 $436 $337 @18 ASM_EDGE_FROM_STEP @4 1037 #
DXID-attrib $-1 -1 $-1 $440 $348 @18 ASM_FACE_FROM_STEP @20 Kastas Seals-K38-198 #
truecolor-adesk-attrib $-1 -1 $590 $-1 $441 -1040106286 #
face $591 -1 $-1 $487 $592 $4 $-1 $593 forward single #
loop $-1 -1 $-1 $582 $530 $441 #
plane-surface $-1 -1 $-1 -57.899999999999999 -15 0 0 -1 0 0 0 -1 forward_v I I I I #
DXID-attrib $-1 -1 $-1 $444 $353 @18 ASM_FACE_FROM_STEP @20 Kastas Seals-K38-619 #
coedge $-1 -1 $-1 $449 $446 $594 $595 forward $354 $-1 #
coedge $-1 -1 $-1 $446 $449 $596 $597 reversed $354 $-1 #
coedge $-1 -1 $-1 $598 $598 $446 $531 reversed $525 $-1 #
edge $599 -1 $-1 $600 0 $601 3.1415926535897931 $446 $602 forward @7 unknown #
truecolor-adesk-attrib $-1 -1 $603 $-1 $450 -1040106286 #
vertex $-1 -1 $-1 $450 $604 #
vertex $-1 -1 $-1 $450 $605 #
ellipse-curve $-1 -1 $-1 0 -14.199999999999999 0 0 1 0 0 0 58.700000000000003 1 F 0 F 3.1415926535897931 #
DXID-attrib $-1 -1 $-1 $451 $357 @18 ASM_EDGE_FROM_STEP @3 368 #
truecolor-adesk-attrib $-1 -1 $606 $-1 $453 -1040106286 #
ellipse-curve $-1 -1 $-1 0 -0.80000000000001603 0 0 1 0 0 0 61.100000000000001 1 F 0 F 3.1415926535897931 #
DXID-attrib $-1 -1 $-1 $456 $360 @18 ASM_EDGE_FROM_STEP @2 99 #
DXID-attrib $-1 -1 $-1 $458 $362 @18 ASM_EDGE_FROM_STEP @3 372 #
truecolor-adesk-attrib $-1 -1 $607 $-1 $460 -1040106286 #
ellipse-curve $-1 -1 $-1 0 -1.0641117941894225e-14 0 0 1 0 0 0 60.299999999999997 1 F -3.1415926535897931 F 1.2327704926740358e-16 #
coedge $-1 -1 $-1 $608 $608 $609 $610 reversed $461 $-1 #
truecolor-adesk-attrib $-1 -1 $611 $-1 $462 -1040106286 #
plane-surface $-1 -1 $-1 -58.100000000000009 -5.4636202210996289e-15 0 0 1 0 0 0 1 forward_v I I I I #
coedge $-1 -1 $-1 $467 $466 $612 $613 forward $468 $-1 #
coedge $-1 -1 $-1 $473 $614 $466 $548 forward $554 $-1 #
edge $615 -1 $-1 $616 -0.0044102154142399916 $375 -0.00088776926780000044 $466 $617 forward @7 unknown #
coedge $-1 -1 $-1 $614 $473 $467 $550 reversed $554 $-1 #
edge $618 -1 $-1 $619 -0.0044102154142399916 $378 -0.00088776926780000044 $467 $620 forward @7 unknown #
DXID-attrib $-1 -1 $-1 $469 $370 @18 ASM_EDGE_FROM_STEP @4 1098 #
truecolor-adesk-attrib $-1 -1 $621 $-1 $472 -1040106286 #
ellipse-curve $-1 -1 $-1 0 -5.3877692677999791 0 0 1 0 0 0 51.500000000000014 1 F 0 F 3.1415926535897931 #
loop $-1 -1 $-1 $-1 $549 $622 #
truecolor-adesk-attrib $-1 -1 $623 $-1 $474 -1040106286 #
ellipse-curve $-1 -1 $-1 0 -3.7551959525029126 0 0 -1 0 0 0 -51.016883861082967 1 F 0 F 3.1415926535897931 #
truecolor-adesk-attrib $-1 -1 $624 $-1 $475 -1040106286 #
torus-surface $-1 -1 $-1 0 -5.3877692677999791 0 0 1 0 48.500000000000007 3.0000000000000004 0 0 1 forward_v I I I I #
DXID-attrib $-1 -1 $-1 $480 $381 @18 ASM_EDGE_FROM_STEP @3 652 #
DXID-attrib $-1 -1 $-1 $482 $383 @18 ASM_EDGE_FROM_STEP @3 975 #
coedge $-1 -1 $-1 $594 $596 $484 $562 reversed $592 $-1 #
edge $625 -1 $-1 $534 -3.1415926535897931 $533 0 $561 $626 forward @7 unknown #
truecolor-adesk-attrib $-1 -1 $627 $-1 $485 -1040106286 #
straight-curve $-1 -1 $-1 7.1886767109949623e-15 0 -58.70000000000001 0 1000 0 F -0.014199999999999999 F -0.0053877692677999911 #
truecolor-adesk-attrib $-1 -1 $628 $-1 $486 -1040106286 #
straight-curve $-1 -1 $-1 0 0 58.70000000000001 0 1000 0 F -0.014199999999999999 F -0.0053877692677999911 #
truecolor-adesk-attrib $-1 -1 $629 $-1 $487 -1040106286 #
cone-surface $-1 -1 $-1 0 0 0 0 1 0 0 0 58.700000000000003 1 I I 0 1 58.70000000000001 forward I I I I #
DXID-attrib $-1 -1 $-1 $489 $393 @18 ASM_EDGE_FROM_STEP @2 78 #
DXID-attrib $-1 -1 $-1 $491 $394 @18 ASM_FACE_FROM_STEP @20 Kastas Seals-K38-464 #
DXID-attrib $-1 -1 $-1 $493 $400 @18 ASM_EDGE_FROM_STEP @3 784 #
DXID-attrib $-1 -1 $-1 $500 $409 @18 ASM_FACE_FROM_STEP @20 Kastas Seals-K38-858 #
truecolor-adesk-attrib $-1 -1 $630 $-1 $503 -1040106286 #
cone-surface $-1 -1 $-1 0 0 0 0 1 0 0 0 51.500000000000014 1 I I 0 1 51.500000000000014 forward I I I I #
DXID-attrib $-1 -1 $-1 $506 $419 @18 ASM_FACE_FROM_STEP @20 Kastas Seals-K38-560 #
DXID-attrib $-1 -1 $-1 $509 $424 @18 ASM_FACE_FROM_STEP @20 Kastas Seals-K38-992 #
truecolor-adesk-attrib $-1 -1 $631 $-1 $510 -1040106286 #
face $632 -1 $-1 $633 $634 $4 $-1 $635 forward single #
loop $-1 -1 $-1 $-1 $612 $510 #
cone-surface $-1 -1 $-1 0 -0.80000000000000426 0 0 1 0 0 0 49.100000000000001 1 I I 0.70710678118654635 0.70710678118654879 49.100000000000001 forward I I I I #
coedge $-1 -1 $-1 $512 $512 $514 $585 forward $582 $-1 #
loop $-1 -1 $-1 $-1 $581 $441 #
truecolor-adesk-attrib $-1 -1 $636 $-1 $513 -1040106286 #
ellipse-curve $-1 -1 $-1 0 -15 0 0 1 0 0 0 52.299999999999997 1 F -3.1415926535897931 F 0 #
edge $637 -1 $-1 $516 0 $519 3.1415926535897931 $514 $638 forward @7 unknown #
DXID-attrib $-1 -1 $-1 $515 $431 @18 ASM_EDGE_FROM_STEP @2 25 #
point $-1 -1 $-1 0 -15 52.300000000000004 #
DXID-attrib $-1 -1 $-1 $518 $433 @18 ASM_EDGE_FROM_STEP @2 70 #
point $-1 -1 $-1 6.4049027595406588e-15 -15 -52.300000000000004 #
DXID-attrib $-1 -1 $-1 $523 $441 @18 ASM_FACE_FROM_STEP @20 Kastas Seals-K38-515 #
truecolor-adesk-attrib $-1 -1 $639 $-1 $524 -1040106286 #
loop $-1 -1 $-1 $-1 $594 $524 #
torus-surface $-1 -1 $-1 0 -14.199999999999999 0 0 1 0 57.899999999999999 0.80000000000000127 0 0 1 forward_v I I I I #
coedge $-1 -1 $-1 $640 $561 $528 $595 reversed $592 $-1 #
edge $641 -1 $-1 $601 -1.5707963267948966 $534 0 $528 $642 forward @7 unknown #
coedge $-1 -1 $-1 $561 $640 $529 $597 forward $592 $-1 #
edge $643 -1 $-1 $600 -1.5707963267948966 $533 0 $529 $644 forward @7 unknown #
coedge $-1 -1 $-1 $530 $530 $640 $645 reversed $525 $-1 #
truecolor-adesk-attrib $-1 -1 $646 $-1 $531 -1040106286 #
vertex $-1 -1 $-1 $531 $647 #
vertex $-1 -1 $-1 $531 $648 #
ellipse-curve $-1 -1 $-1 0 -15 0 0 1 0 0 0 57.899999999999999 1 F 0 F 3.1415926535897931 #
DXID-attrib $-1 -1 $-1 $532 $450 @18 ASM_EDGE_FROM_STEP @3 449 #
point $-1 -1 $-1 0 -14.199999999999999 58.70000000000001 #
point $-1 -1 $-1 7.1886767109949623e-15 -14.199999999999999 -58.70000000000001 #
DXID-attrib $-1 -1 $-1 $537 $453 @18 ASM_EDGE_FROM_STEP @3 576 #
DXID-attrib $-1 -1 $-1 $541 $460 @18 ASM_EDGE_FROM_STEP @3 736 #
coedge $-1 -1 $-1 $543 $543 $649 $650 reversed $461 $-1 #
coedge $-1 -1 $-1 $651 $652 $543 $610 forward $653 $-1 #
edge $654 -1 $-1 $655 0 $656 3.1415926535897931 $609 $657 forward @7 unknown #
DXID-attrib $-1 -1 $-1 $544 $462 @18 ASM_FACE_FROM_STEP @20 Kastas Seals-K38-668 #
coedge $-1 -1 $-1 $658 $659 $546 $613 reversed $579 $-1 #
edge $660 -1 $-1 $616 -3.1415926535897931 $619 0 $546 $661 forward @7 unknown #
coedge $-1 -1 $-1 $547 $549 $662 $663 forward $554 $-1 #
truecolor-adesk-attrib $-1 -1 $664 $-1 $548 -1040106286 #
vertex $-1 -1 $-1 $613 $665 #
straight-curve $-1 -1 $-1 0 -4.5 -51.500000000000014 0 -838.9612870276585 -544.19110509902214 F -0.0044102154142399916 F -0.00088776926780000044 #
truecolor-adesk-attrib $-1 -1 $666 $-1 $550 -1040106286 #
vertex $-1 -1 $-1 $613 $667 #
straight-curve $-1 -1 $-1 6.3069310156088696e-15 -4.5 51.500000000000014 6.6644189498397843e-14 -838.9612870276585 544.19110509902214 F -0.0044102154142399916 F -0.00088776926780000044 #
DXID-attrib $-1 -1 $-1 $552 $472 @18 ASM_EDGE_FROM_STEP @3 662 #
face $668 -1 $-1 $503 $554 $4 $-1 $669 reversed single #
DXID-attrib $-1 -1 $-1 $555 $474 @18 ASM_EDGE_FROM_STEP @3 983 #
DXID-attrib $-1 -1 $-1 $557 $475 @18 ASM_FACE_FROM_STEP @20 Kastas Seals-K38-322 #
truecolor-adesk-attrib $-1 -1 $670 $-1 $562 -1040106286 #
ellipse-curve $-1 -1 $-1 0 -14.199999999999999 0 0 1 0 0 0 58.700000000000003 1 F -3.1415926535897931 F 0 #
DXID-attrib $-1 -1 $-1 $563 $485 @18 ASM_EDGE_FROM_STEP @3 208 #
DXID-attrib $-1 -1 $-1 $565 $486 @18 ASM_EDGE_FROM_STEP @4 1002 #
DXID-attrib $-1 -1 $-1 $567 $487 @18 ASM_FACE_FROM_STEP @20 Kastas Seals-K38-906 #
DXID-attrib $-1 -1 $-1 $573 $503 @18 ASM_FACE_FROM_STEP @20 Kastas Seals-K38-328 #
DXID-attrib $-1 -1 $-1 $577 $510 @18 ASM_FACE_FROM_STEP @20 Kastas Seals-K38-805 #
truecolor-adesk-attrib $-1 -1 $671 $-1 $578 -1040106286 #
face $672 -1 $-1 $673 $674 $4 $-1 $675 reversed single #
loop $-1 -1 $-1 $-1 $676 $578 #
cone-surface $-1 -1 $-1 0 7.344300811875357e-17 0 0 -1 0 0 0 -52.100000000000009 1 I I 0.55470019622522948 0.8320502943378435 52.100000000000009 forward I I I I #
DXID-attrib $-1 -1 $-1 $583 $513 @18 ASM_EDGE_FROM_STEP @3 537 #
truecolor-adesk-attrib $-1 -1 $677 $-1 $585 -1040106286 #
ellipse-curve $-1 -1 $-1 0 -15 0 0 1 0 0 0 52.299999999999997 1 F 0 F 3.1415926535897931 #
DXID-attrib $-1 -1 $-1 $591 $524 @18 ASM_FACE_FROM_STEP @20 Kastas Seals-K38-141 #
coedge $-1 -1 $-1 $596 $594 $598 $645 forward $592 $-1 #
truecolor-adesk-attrib $-1 -1 $678 $-1 $595 -1040106286 #
ellipse-curve $-1 -1 $-1 7.0907049670631755e-15 -14.199999999999999 -57.899999999999999 1 0 1.2246467991473535e-16 9.797174393178852e-17 0 -0.80000000000000204 1 F -1.5707963267948966 F 0 #
truecolor-adesk-attrib $-1 -1 $679 $-1 $597 -1040106286 #
ellipse-curve $-1 -1 $-1 0 -14.199999999999999 57.899999999999999 -1 0 0 0 0 0.80000000000000204 1 F -1.5707963267948966 F 0 #
edge $680 -1 $-1 $601 -3.1415926535897931 $600 0 $598 $681 forward @7 unknown #
DXID-attrib $-1 -1 $-1 $599 $531 @18 ASM_EDGE_FROM_STEP @3 194 #
point $-1 -1 $-1 0 -15 57.899999999999999 #
point $-1 -1 $-1 7.1396908390290705e-15 -15 -57.899999999999999 #
coedge $-1 -1 $-1 $682 $683 $608 $650 forward $674 $-1 #
edge $684 -1 $-1 $656 -3.1415926535897931 $655 0 $649 $685 forward @7 unknown #
coedge $-1 -1 $-1 $686 $609 $683 $687 reversed $653 $-1 #
coedge $-1 -1 $-1 $609 $686 $682 $688 forward $653 $-1 #
loop $-1 -1 $-1 $-1 $651 $673 #
truecolor-adesk-attrib $-1 -1 $689 $-1 $610 -1040106286 #
vertex $-1 -1 $-1 $650 $690 #
vertex $-1 -1 $-1 $687 $691 #
ellipse-curve $-1 -1 $-1 0 -2.8612250030503432e-16 0 0 1 0 0 0 58.100000000000009 1 F 0 F 3.1415926535897931 #
coedge $-1 -1 $-1 $692 $612 $693 $694 forward $579 $-1 #
coedge $-1 -1 $-1 $612 $692 $695 $696 reversed $579 $-1 #
truecolor-adesk-attrib $-1 -1 $697 $-1 $613 -1040106286 #
ellipse-curve $-1 -1 $-1 0 -0.80000000000000426 0 0 1 0 0 0 49.100000000000001 1 F -3.1415926535897931 F 0 #
coedge $-1 -1 $-1 $695 $693 $614 $663 reversed $698 $-1 #
edge $699 -1 $-1 $619 0 $616 3.1415926535897931 $662 $700 forward @7 unknown #
DXID-attrib $-1 -1 $-1 $615 $548 @18 ASM_EDGE_FROM_STEP @4 1133 #
point $-1 -1 $-1 6.0620016557793985e-15 -0.80000000000000426 -49.100000000000001 #
DXID-attrib $-1 -1 $-1 $618 $550 @18 ASM_EDGE_FROM_STEP @4 1071 #
point $-1 -1 $-1 0 -0.80000000000000426 49.100000000000001 #
truecolor-adesk-attrib $-1 -1 $701 $-1 $622 -1040106286 #
cone-surface $-1 -1 $-1 0 -4.5 0 0 -1 0 0 0 -51.500000000000014 1 I I 0.54419110509902213 0.83896128702765838 51.500000000000014 forward I I I I #
DXID-attrib $-1 -1 $-1 $625 $562 @18 ASM_EDGE_FROM_STEP @3 748 #
DXID-attrib $-1 -1 $-1 $632 $578 @18 ASM_FACE_FROM_STEP @20 Kastas Seals-K38-498 #
truecolor-adesk-attrib $-1 -1 $702 $-1 $633 -1040106286 #
face $703 -1 $-1 $704 $653 $4 $-1 $705 reversed single #
loop $-1 -1 $-1 $-1 $706 $633 #
cone-surface $-1 -1 $-1 0 -2.25 0 0 1 0 0 0 56.600000000000001 1 I I 0.55470019622522959 0.83205029433784339 56.600000000000001 forward I I I I #
coedge $-1 -1 $-1 $707 $708 $709 $710 reversed $634 $-1 #
DXID-attrib $-1 -1 $-1 $637 $585 @18 ASM_EDGE_FROM_STEP @3 399 #
DXID-attrib $-1 -1 $-1 $641 $595 @18 ASM_EDGE_FROM_STEP @2 85 #
DXID-attrib $-1 -1 $-1 $643 $597 @18 ASM_EDGE_FROM_STEP @3 584 #
truecolor-adesk-attrib $-1 -1 $711 $-1 $645 -1040106286 #
ellipse-curve $-1 -1 $-1 0 -15 0 0 1 0 0 0 57.899999999999999 1 F -3.1415926535897931 F 0 #
coedge $-1 -1 $-1 $706 $649 $652 $688 reversed $674 $-1 #
coedge $-1 -1 $-1 $649 $706 $651 $687 forward $674 $-1 #
truecolor-adesk-attrib $-1 -1 $712 $-1 $650 -1040106286 #
ellipse-curve $-1 -1 $-1 0 -2.8612250030503432e-16 0 0 1 0 0 0 58.100000000000009 1 F -3.1415926535897931 F 0 #
coedge $-1 -1 $-1 $652 $651 $713 $714 reversed $653 $-1 #
edge $715 -1 $-1 $716 6.239377842999279e-36 $656 0.0027041634565979945 $683 $717 forward @7 unknown #
edge $718 -1 $-1 $719 0 $655 0.0027041634565979945 $682 $720 forward @7 unknown #
DXID-attrib $-1 -1 $-1 $654 $610 @18 ASM_EDGE_FROM_STEP @3 442 #
point $-1 -1 $-1 0 -2.8612250030503432e-16 58.100000000000009 #
point $-1 -1 $-1 7.1151979030461222e-15 -2.8612250030503432e-16 -58.100000000000009 #
coedge $-1 -1 $-1 $659 $658 $721 $722 forward $579 $-1 #
coedge $-1 -1 $-1 $662 $723 $658 $694 reversed $698 $-1 #
edge $724 -1 $-1 $616 4.2419612498841467e-36 $725 0.0011313708498984858 $658 $726 forward @7 unknown #
coedge $-1 -1 $-1 $723 $662 $659 $696 forward $698 $-1 #
edge $727 -1 $-1 $619 0 $728 0.0011313708498984858 $659 $729 forward @7 unknown #
DXID-attrib $-1 -1 $-1 $660 $613 @18 ASM_EDGE_FROM_STEP @3 839 #
loop $-1 -1 $-1 $-1 $693 $730 #
truecolor-adesk-attrib $-1 -1 $731 $-1 $663 -1040106286 #
ellipse-curve $-1 -1 $-1 0 -0.80000000000000426 0 0 1 0 0 0 49.100000000000001 1 F 0 F 3.1415926535897931 #
DXID-attrib $-1 -1 $-1 $668 $622 @18 ASM_FACE_FROM_STEP @21 Kastas Seals-K38-1138 #
DXID-attrib $-1 -1 $-1 $672 $633 @18 ASM_FACE_FROM_STEP @20 Kastas Seals-K38-758 #
truecolor-adesk-attrib $-1 -1 $732 $-1 $673 -1040106286 #
face $733 -1 $-1 $734 $735 $4 $-1 $736 forward single #
cone-surface $-1 -1 $-1 0 -2.25 0 0 1 0 0 0 56.600000000000001 1 I I 0.55470019622522959 0.83205029433784339 56.600000000000001 forward I I I I #
coedge $-1 -1 $-1 $683 $682 $737 $738 reversed $674 $-1 #
coedge $-1 -1 $-1 $739 $676 $740 $741 forward $634 $-1 #
coedge $-1 -1 $-1 $676 $739 $742 $743 reversed $634 $-1 #
coedge $-1 -1 $-1 $744 $744 $676 $710 forward $745 $-1 #
edge $746 -1 $-1 $747 1.2422760716878621e-16 $748 3.1415926535897931 $676 $749 forward @7 unknown #
DXID-attrib $-1 -1 $-1 $680 $645 @18 ASM_EDGE_FROM_STEP @3 956 #
DXID-attrib $-1 -1 $-1 $684 $650 @18 ASM_EDGE_FROM_STEP @3 245 #
coedge $-1 -1 $-1 $737 $737 $686 $714 forward $735 $-1 #
edge $750 -1 $-1 $719 0 $716 3.1415926535897931 $686 $751 forward @7 unknown #
truecolor-adesk-attrib $-1 -1 $752 $-1 $687 -1040106286 #
vertex $-1 -1 $-1 $738 $753 #
straight-curve $-1 -1 $-1 6.9315008831740195e-15 -2.25 -56.600000000000001 6.7931181979363622e-14 832.05029433784352 -554.70019622522966 F 6.239377842999279e-36 F 0.0027041634565979945 #
truecolor-adesk-attrib $-1 -1 $754 $-1 $688 -1040106286 #
vertex $-1 -1 $-1 $738 $755 #
straight-curve $-1 -1 $-1 0 -2.25 56.600000000000001 0 832.05029433784352 554.70019622522966 F 0 F 0.0027041634565979945 #
coedge $-1 -1 $-1 $756 $756 $692 $722 reversed $757 $-1 #
edge $758 -1 $-1 $725 -3.1415926535897931 $728 0 $692 $759 forward @7 unknown #
coedge $-1 -1 $-1 $693 $695 $756 $760 forward $698 $-1 #
truecolor-adesk-attrib $-1 -1 $761 $-1 $694 -1040106286 #
vertex $-1 -1 $-1 $694 $762 #
straight-curve $-1 -1 $-1 6.0130157838135059e-15 -0.80000000000000426 -49.100000000000001 8.659560562354919e-14 707.10678118654869 -707.1067811865463 F 4.2419612498841467e-36 F 0.0011313708498984858 #
truecolor-adesk-attrib $-1 -1 $763 $-1 $696 -1040106286 #
vertex $-1 -1 $-1 $722 $764 #
straight-curve $-1 -1 $-1 0 -0.80000000000000426 49.100000000000001 0 707.10678118654869 707.1067811865463 F 0 F 0.0011313708498984858 #
face $765 -1 $-1 $622 $698 $4 $-1 $766 reversed single #
DXID-attrib $-1 -1 $-1 $699 $663 @18 ASM_EDGE_FROM_STEP @4 1068 #
DXID-attrib $-1 -1 $-1 $703 $673 @18 ASM_FACE_FROM_STEP @20 Kastas Seals-K38-460 #
truecolor-adesk-attrib $-1 -1 $767 $-1 $704 -1040106286 #
face $768 -1 $-1 $769 $770 $4 $-1 $771 forward single #
loop $-1 -1 $-1 $772 $713 $704 #
plane-surface $-1 -1 $-1 -56.600000000000001 -2.25 0 0 1 0 0 0 1 forward_v I I I I #
coedge $-1 -1 $-1 $713 $713 $706 $738 forward $735 $-1 #
edge $773 -1 $-1 $716 -3.1415926535897931 $719 0 $706 $774 forward @7 unknown #
coedge $-1 -1 $-1 $708 $707 $775 $776 forward $634 $-1 #
coedge $-1 -1 $-1 $777 $778 $707 $741 reversed $770 $-1 #
edge $779 -1 $-1 $747 6.2393778429992763e-36 $780 0.0027041634565979937 $707 $781 forward @7 unknown #
coedge $-1 -1 $-1 $778 $777 $708 $743 forward $770 $-1 #
edge $782 -1 $-1 $748 0 $783 0.0027041634565979937 $708 $784 forward @7 unknown #
coedge $-1 -1 $-1 $709 $709 $777 $785 forward $745 $-1 #
loop $-1 -1 $-1 $757 $744 $769 #
truecolor-adesk-attrib $-1 -1 $786 $-1 $710 -1040106286 #
vertex $-1 -1 $-1 $710 $787 #
vertex $-1 -1 $-1 $710 $788 #
ellipse-curve $-1 -1 $-1 0 7.344300811875357e-17 0 0 1 0 0 0 52.100000000000009 1 F 1.2422760716878621e-16 F 3.1415926535897931 #
truecolor-adesk-attrib $-1 -1 $789 $-1 $714 -1040106286 #
ellipse-curve $-1 -1 $-1 0 -2.25 0 0 1 0 0 0 56.600000000000001 1 F 0 F 3.1415926535897931 #
DXID-attrib $-1 -1 $-1 $715 $687 @18 ASM_EDGE_FROM_STEP @4 1104 #
point $-1 -1 $-1 7.0233493931100701e-15 -2.25 -56.600000000000001 #
DXID-attrib $-1 -1 $-1 $718 $688 @18 ASM_EDGE_FROM_STEP @4 1089 #
point $-1 -1 $-1 0 -2.25 56.600000000000001 #
coedge $-1 -1 $-1 $721 $721 $723 $760 reversed $757 $-1 #
loop $-1 -1 $-1 $-1 $756 $769 #
truecolor-adesk-attrib $-1 -1 $790 $-1 $722 -1040106286 #
ellipse-curve $-1 -1 $-1 0 3.4502100095682576e-16 0 0 1 0 0 0 49.900000000000013 1 F -3.1415926535897931 F 0 #
edge $791 -1 $-1 $728 0 $725 3.1415926535897931 $756 $792 forward @7 unknown #
DXID-attrib $-1 -1 $-1 $724 $694 @18 ASM_EDGE_FROM_STEP @3 852 #
point $-1 -1 $-1 6.1109875277452935e-15 3.4502100095682576e-16 -49.900000000000013 #
DXID-attrib $-1 -1 $-1 $727 $696 @18 ASM_EDGE_FROM_STEP @3 595 #
point $-1 -1 $-1 0 3.4502100095682576e-16 49.900000000000013 #
truecolor-adesk-attrib $-1 -1 $793 $-1 $730 -1040106286 #
cone-surface $-1 -1 $-1 0 -0.80000000000000426 0 0 1 0 0 0 49.100000000000001 1 I I 0.70710678118654635 0.70710678118654879 49.100000000000001 forward I I I I #
DXID-attrib $-1 -1 $-1 $733 $704 @18 ASM_FACE_FROM_STEP @20 Kastas Seals-K38-770 #
truecolor-adesk-attrib $-1 -1 $794 $-1 $734 -1040106286 #
face $795 -1 $-1 $730 $745 $4 $-1 $796 forward single #
loop $-1 -1 $-1 $-1 $740 $734 #
cone-surface $-1 -1 $-1 0 7.344300811875357e-17 0 0 -1 0 0 0 -52.100000000000009 1 I I 0.55470019622522948 0.8320502943378435 52.100000000000009 forward I I I I #
loop $-1 -1 $-1 $-1 $797 $704 #
truecolor-adesk-attrib $-1 -1 $798 $-1 $738 -1040106286 #
ellipse-curve $-1 -1 $-1 0 -2.25 0 0 1 0 0 0 56.600000000000001 1 F -3.1415926535897931 F 0 #
coedge $-1 -1 $-1 $797 $797 $739 $776 reversed $772 $-1 #
edge $799 -1 $-1 $780 1.2246467991473532e-16 $783 3.1415926535897931 $739 $800 forward @7 unknown #
coedge $-1 -1 $-1 $742 $740 $744 $785 reversed $770 $-1 #
coedge $-1 -1 $-1 $740 $742 $797 $801 forward $770 $-1 #
truecolor-adesk-attrib $-1 -1 $802 $-1 $741 -1040106286 #
vertex $-1 -1 $-1 $741 $803 #
straight-curve $-1 -1 $-1 6.3804098235577113e-15 7.344300811875357e-17 52.100000000000009 6.7931181979363609e-14 -832.05029433784364 554.70019622522943 F 6.2393778429992763e-36 F 0.0027041634565979937 #
truecolor-adesk-attrib $-1 -1 $804 $-1 $743 -1040106286 #
vertex $-1 -1 $-1 $776 $805 #
straight-curve $-1 -1 $-1 0 7.344300811875357e-17 -52.100000000000009 0 -832.05029433784364 -554.70019622522943 F 0 F 0.0027041634565979937 #
edge $806 -1 $-1 $748 -3.1415926535897931 $747 1.2422760716878621e-16 $777 $807 forward @7 unknown #
DXID-attrib $-1 -1 $-1 $746 $710 @18 ASM_EDGE_FROM_STEP @3 302 #
point $-1 -1 $-1 6.4722583334937627e-15 7.344300811875357e-17 52.100000000000009 #
point $-1 -1 $-1 0 7.344300811875357e-17 -52.100000000000009 #
DXID-attrib $-1 -1 $-1 $750 $714 @18 ASM_EDGE_FROM_STEP @3 484 #
DXID-attrib $-1 -1 $-1 $758 $722 @18 ASM_EDGE_FROM_STEP @3 568 #
truecolor-adesk-attrib $-1 -1 $808 $-1 $760 -1040106286 #
ellipse-curve $-1 -1 $-1 0 3.4502100095682576e-16 0 0 1 0 0 0 49.900000000000013 1 F 0 F 3.1415926535897931 #
DXID-attrib $-1 -1 $-1 $765 $730 @18 ASM_FACE_FROM_STEP @19 Kastas Seals-K38-64 #
DXID-attrib $-1 -1 $-1 $768 $734 @18 ASM_FACE_FROM_STEP @20 Kastas Seals-K38-969 #
truecolor-adesk-attrib $-1 -1 $809 $-1 $769 -1040106286 #
plane-surface $-1 -1 $-1 -49.900000000000013 2.0923200453778967e-16 0 0 1 0 0 0 1 forward_v I I I I #
coedge $-1 -1 $-1 $775 $775 $778 $801 reversed $772 $-1 #
DXID-attrib $-1 -1 $-1 $773 $738 @18 ASM_EDGE_FROM_STEP @3 926 #
truecolor-adesk-attrib $-1 -1 $810 $-1 $776 -1040106286 #
ellipse-curve $-1 -1 $-1 0 -2.25 0 0 1 0 0 0 53.600000000000009 1 F 1.2246467991473532e-16 F 3.1415926535897931 #
edge $811 -1 $-1 $783 -3.1415926535897931 $780 1.2246467991473532e-16 $797 $812 forward @7 unknown #
DXID-attrib $-1 -1 $-1 $779 $741 @18 ASM_EDGE_FROM_STEP @3 236 #
point $-1 -1 $-1 6.564106843429814e-15 -2.25 53.600000000000009 #
DXID-attrib $-1 -1 $-1 $782 $743 @18 ASM_EDGE_FROM_STEP @3 160 #
point $-1 -1 $-1 0 -2.25 -53.600000000000009 #
truecolor-adesk-attrib $-1 -1 $813 $-1 $785 -1040106286 #
ellipse-curve $-1 -1 $-1 0 7.344300811875357e-17 0 0 1 0 0 0 52.100000000000009 1 F -3.1415926535897931 F 1.2422760716878621e-16 #
DXID-attrib $-1 -1 $-1 $791 $760 @18 ASM_EDGE_FROM_STEP @3 727 #
DXID-attrib $-1 -1 $-1 $795 $769 @18 ASM_FACE_FROM_STEP @20 Kastas Seals-K38-150 #
DXID-attrib $-1 -1 $-1 $799 $776 @18 ASM_EDGE_FROM_STEP @3 723 #
truecolor-adesk-attrib $-1 -1 $814 $-1 $801 -1040106286 #
ellipse-curve $-1 -1 $-1 0 -2.25 0 0 1 0 0 0 53.600000000000009 1 F -3.1415926535897931 F 1.2246467991473532e-16 #
DXID-attrib $-1 -1 $-1 $806 $785 @18 ASM_EDGE_FROM_STEP @3 115 #
DXID-attrib $-1 -1 $-1 $811 $801 @18 ASM_EDGE_FROM_STEP @3 689 #
