700 531 1 0         
5 ZWCAD 12 ACIS 28.0 NT 24 Mon May 13 11:38:50 2024 
1 9.9999999999999995e-07 1e-10 
body $1 -1 $-1 $2 $-1 $-1 #
DXID-attrib $-1 -1 $-1 $-1 $0 @18 ASM_BODY_FROM_STEP @83 E6334148F4E6A41290BA68806CB434522EB232B3|:|643BA48CC5D467EAC1ACEBE08BAC439FCE3F1BD6 #
lump $-1 -1 $-1 $-1 $3 $0 #
shell $-1 -1 $-1 $-1 $-1 $4 $-1 $2 #
face $5 -1 $-1 $6 $7 $3 $-1 $8 reversed single #
truecolor-adesk-attrib $-1 -1 $9 $-1 $4 -1026895378 #
face $10 -1 $-1 $11 $12 $3 $-1 $13 reversed single #
loop $-1 -1 $-1 $14 $15 $4 #
plane-surface $-1 -1 $-1 -308.22368725741035 323.30129167685362 121.3745190256689 -0.30231192422272601 0.95320905391878896 1.8705519794337407e-09 -5.7644835385469121e-06 -3.7905893521128092e-06 1000 forward_v I I I I #
DXID-attrib $-1 -1 $-1 $5 $4 @18 ASM_FACE_FROM_STEP @17 LaptopStand-12209 #
truecolor-adesk-attrib $-1 -1 $16 $-1 $6 -1026895378 #
face $17 -1 $-1 $18 $19 $3 $-1 $20 forward single #
loop $-1 -1 $-1 $-1 $21 $6 #
plane-surface $-1 -1 $-1 -310.14336797622462 329.35416916923793 121.3745190375469 0.95320905391878896 0.30231192422272601 6.6406982610841345e-09 5.7644835385469121e-06 3.7905893521128092e-06 -1000 forward_v I I I I #
loop $-1 -1 $-1 $-1 $22 $4 #
coedge $-1 -1 $-1 $23 $24 $25 $26 forward $7 $-1 #
DXID-attrib $-1 -1 $-1 $10 $6 @18 ASM_FACE_FROM_STEP @17 LaptopStand-12210 #
truecolor-adesk-attrib $-1 -1 $27 $-1 $11 -1026895378 #
face $28 -1 $-1 $29 $30 $3 $-1 $31 reversed single #
loop $-1 -1 $-1 $-1 $32 $11 #
cone-surface $-1 -1 $-1 -105.88127781020953 399.46561560283192 121.37452048077607 5.7644835385469117e-09 3.7905893521128092e-09 -1 -10.895179486291758 -3.4554252938657588 -7.5903181124191663e-08 1 I I 0 1 11.430000000000001 forward I I I I #
coedge $-1 -1 $-1 $33 $25 $34 $35 forward $12 $-1 #
coedge $-1 -1 $-1 $36 $37 $38 $39 reversed $14 $-1 #
coedge $-1 -1 $-1 $40 $15 $41 $42 forward $7 $-1 #
coedge $-1 -1 $-1 $15 $40 $43 $44 forward $7 $-1 #
coedge $-1 -1 $-1 $21 $45 $15 $26 reversed $12 $-1 #
edge $46 -1 $-1 $47 0.0038099999999999979 $48 0.027939999999999996 $15 $49 forward @7 unknown #
DXID-attrib $-1 -1 $-1 $17 $11 @18 ASM_FACE_FROM_STEP @17 LaptopStand-12211 #
truecolor-adesk-attrib $-1 -1 $50 $-1 $18 -1026895378 #
face $51 -1 $-1 $52 $53 $3 $-1 $54 reversed single #
loop $-1 -1 $-1 $-1 $55 $18 #
plane-surface $-1 -1 $-1 -104.00304715511032 411.36659243695112 121.37452053671481 0.88778739756583402 -0.46025377426294273 3.37300278300681e-09 460.25377426294273 887.787397565834 6.0183627614458118e-06 forward_v I I I I #
coedge $-1 -1 $-1 $56 $57 $40 $58 forward $19 $-1 #
coedge $-1 -1 $-1 $45 $21 $59 $60 forward $12 $-1 #
coedge $-1 -1 $-1 $43 $61 $21 $35 reversed $62 $-1 #
edge $63 -1 $-1 $47 1.5707963267948966 $64 2.8017557441356744 $21 $65 reversed @7 unknown #
coedge $-1 -1 $-1 $66 $22 $67 $68 reversed $14 $-1 #
coedge $-1 -1 $-1 $22 $66 $69 $70 forward $14 $-1 #
coedge $-1 -1 $-1 $71 $72 $22 $39 forward $73 $-1 #
edge $74 -1 $-1 $75 0 $76 0.019050000000000001 $22 $77 forward @7 unknown #
coedge $-1 -1 $-1 $24 $23 $32 $58 reversed $7 $-1 #
coedge $-1 -1 $-1 $78 $79 $23 $42 reversed $80 $-1 #
edge $81 -1 $-1 $48 0 $82 0.21590000000000001 $23 $83 forward @7 unknown #
coedge $-1 -1 $-1 $84 $34 $24 $44 reversed $62 $-1 #
edge $85 -1 $-1 $86 -0.21590000000000001 $47 0 $24 $87 reversed @7 unknown #
coedge $-1 -1 $-1 $25 $33 $78 $88 forward $12 $-1 #
truecolor-adesk-attrib $-1 -1 $89 $-1 $26 -1026895378 #
vertex $-1 -1 $-1 $26 $90 #
vertex $-1 -1 $-1 $26 $91 #
straight-curve $-1 -1 $-1 -308.22368725741035 323.30129167685362 121.3745190256689 5.7644835385469121e-06 3.7905893521128092e-06 -1000 F 0.0038099999999999979 F 0.027939999999999996 #
DXID-attrib $-1 -1 $-1 $28 $18 @18 ASM_FACE_FROM_STEP @17 LaptopStand-12212 #
truecolor-adesk-attrib $-1 -1 $92 $-1 $29 -1026895378 #
face $93 -1 $-1 $94 $95 $3 $-1 $96 reversed single #
loop $-1 -1 $-1 $-1 $97 $29 #
plane-surface $-1 -1 $-1 -103.54318863695343 403.97557558246649 121.37452051134935 0.46025377426294461 0.88778739756583303 6.0183627614458193e-09 -887.78739756583298 460.2537742629446 -3.3730027830067968e-06 forward_v I I I I #
coedge $-1 -1 $-1 $98 $99 $100 $101 forward $30 $-1 #
coedge $-1 -1 $-1 $102 $32 $103 $104 forward $19 $-1 #
coedge $-1 -1 $-1 $32 $102 $105 $106 forward $19 $-1 #
edge $107 -1 $-1 $86 0.0038099999999999979 $82 0.027939999999999996 $40 $108 forward @7 unknown #
coedge $-1 -1 $-1 $109 $110 $33 $60 reversed $111 $-1 #
edge $112 -1 $-1 $64 0.00021789755157230139 $113 0.031532102448427662 $33 $114 forward @7 unknown #
coedge $-1 -1 $-1 $34 $115 $109 $116 forward $62 $-1 #
loop $-1 -1 $-1 $-1 $115 $117 #
truecolor-adesk-attrib $-1 -1 $118 $-1 $35 -1026895378 #
vertex $-1 -1 $-1 $35 $119 #
ellipse-curve $-1 -1 $-1 -309.37549566673624 326.93301818672637 117.5645190327957 0.95320905391878896 0.30231192422272601 6.6406982610841345e-09 2.1962682281863733e-08 1.4442145431549803e-08 -3.8100000000000001 1 F -2.8017557441356744 F -1.5707963267948966 #
coedge $-1 -1 $-1 $37 $36 $120 $121 forward $14 $-1 #
coedge $-1 -1 $-1 $122 $123 $36 $68 forward $124 $-1 #
edge $125 -1 $-1 $126 -0.050799999999999998 $75 0 $36 $127 forward @7 unknown #
coedge $-1 -1 $-1 $128 $129 $37 $70 reversed $130 $-1 #
edge $131 -1 $-1 $132 -0.050799999999999998 $76 0 $37 $133 forward @7 unknown #
coedge $-1 -1 $-1 $134 $38 $129 $135 forward $73 $-1 #
coedge $-1 -1 $-1 $38 $134 $122 $136 reversed $73 $-1 #
loop $-1 -1 $-1 $-1 $71 $137 #
truecolor-adesk-attrib $-1 -1 $138 $-1 $39 -1026895378 #
vertex $-1 -1 $-1 $39 $139 #
vertex $-1 -1 $-1 $39 $140 #
straight-curve $-1 -1 $-1 -247.69491218714933 342.49809896127772 95.974519447353245 -5.7644835385469121e-06 -3.7905893521128092e-06 1000 F 0 F 0.019050000000000001 #
coedge $-1 -1 $-1 $141 $41 $45 $88 reversed $80 $-1 #
coedge $-1 -1 $-1 $41 $142 $143 $144 forward $80 $-1 #
loop $-1 -1 $-1 $-1 $78 $145 #
truecolor-adesk-attrib $-1 -1 $146 $-1 $42 -1026895378 #
vertex $-1 -1 $-1 $42 $147 #
straight-curve $-1 -1 $-1 -308.22368709635066 323.30129178276269 93.434519025668905 953.20905391878898 302.31192422272602 6.6406982610841342e-06 F 0 F 0.21590000000000001 #
coedge $-1 -1 $-1 $115 $43 $148 $149 forward $62 $-1 #
truecolor-adesk-attrib $-1 -1 $150 $-1 $44 -1026895378 #
vertex $-1 -1 $-1 $58 $151 #
straight-curve $-1 -1 $-1 -308.22368723544764 323.30129169129577 117.5645190256689 953.20905391878898 302.31192422272602 6.6406982610841342e-06 F 0 F 0.21590000000000001 #
edge $152 -1 $-1 $113 0.33983690945412193 $48 1.5707963267948966 $45 $153 reversed @7 unknown #
DXID-attrib $-1 -1 $-1 $46 $26 @18 ASM_EDGE_FROM_STEP @4 8213 #
point $-1 -1 $-1 -308.22368723544764 323.30129169129577 117.5645190256689 #
point $-1 -1 $-1 -308.22368709635066 323.30129178276269 93.434519025668905 #
DXID-attrib $-1 -1 $-1 $51 $29 @18 ASM_FACE_FROM_STEP @17 LaptopStand-12213 #
truecolor-adesk-attrib $-1 -1 $154 $-1 $52 -1026895378 #
face $155 -1 $-1 $156 $157 $3 $-1 $158 reversed single #
loop $-1 -1 $-1 $-1 $159 $52 #
cone-surface $-1 -1 $-1 -105.88127781020953 399.46561560283192 121.37452048077607 5.7644835385469117e-09 3.7905893521128092e-09 -1 -4.8423019939074479 -1.5357445750514482 -3.3734747166307408e-08 1 I I 0 1 5.0800000000000001 forward I I I I #
coedge $-1 -1 $-1 $160 $161 $162 $163 forward $53 $-1 #
coedge $-1 -1 $-1 $162 $55 $164 $165 forward $30 $-1 #
coedge $-1 -1 $-1 $55 $162 $166 $167 forward $30 $-1 #
coedge $-1 -1 $-1 $168 $169 $55 $101 reversed $170 $-1 #
edge $171 -1 $-1 $172 0.0038099999999999979 $173 0.027939999999999996 $55 $174 forward @7 unknown #
coedge $-1 -1 $-1 $57 $56 $175 $176 reversed $19 $-1 #
coedge $-1 -1 $-1 $143 $177 $56 $104 reversed $178 $-1 #
edge $179 -1 $-1 $82 -1.5707963267948966 $180 0.78539816339746649 $56 $181 forward @7 unknown #
coedge $-1 -1 $-1 $182 $148 $57 $106 reversed $183 $-1 #
edge $184 -1 $-1 $185 -0.78539816339746649 $86 1.5707963267948966 $57 $186 reversed @7 unknown #
truecolor-adesk-attrib $-1 -1 $187 $-1 $58 -1026895378 #
straight-curve $-1 -1 $-1 -102.42585251634375 388.57043611654018 121.37452045939565 5.7644835385469121e-06 3.7905893521128092e-06 -1000 F 0.0038099999999999979 F 0.027939999999999996 #
coedge $-1 -1 $-1 $188 $59 $61 $116 reversed $111 $-1 #
coedge $-1 -1 $-1 $59 $189 $141 $190 reversed $111 $-1 #
loop $-1 -1 $-1 $-1 $188 $191 #
truecolor-adesk-attrib $-1 -1 $192 $-1 $60 -1026895378 #
vertex $-1 -1 $-1 $60 $193 #
straight-curve $-1 -1 $-1 -308.99155954493608 325.72244267380734 121.3745190304201 5.7644835385469121e-06 3.7905893521128092e-06 -1000 F 0.00021789755157230139 F 0.031532102448427662 #
coedge $-1 -1 $-1 $61 $84 $194 $195 reversed $62 $-1 #
edge $196 -1 $-1 $197 2.5485663803381047 $64 2.6734592453667529 $61 $198 forward @7 unknown #
face $199 -1 $-1 $191 $62 $3 $-1 $200 forward single #
DXID-attrib $-1 -1 $-1 $63 $35 @18 ASM_EDGE_FROM_STEP @4 8221 #
point $-1 -1 $-1 -308.99155954368001 325.72244267463333 121.1566214788478 #
coedge $-1 -1 $-1 $201 $202 $66 $121 reversed $203 $-1 #
edge $204 -1 $-1 $126 0 $132 0.019050000000000001 $66 $205 forward @7 unknown #
coedge $-1 -1 $-1 $206 $67 $72 $136 forward $124 $-1 #
coedge $-1 -1 $-1 $67 $206 $201 $207 forward $124 $-1 #
loop $-1 -1 $-1 $208 $122 $209 #
truecolor-adesk-attrib $-1 -1 $210 $-1 $68 -1026895378 #
vertex $-1 -1 $-1 $68 $211 #
straight-curve $-1 -1 $-1 -247.69491218714933 342.49809896127772 95.974519447353245 953.20905391878898 302.31192422272591 6.6406982610841342e-06 F -0.050799999999999998 F 0 #
coedge $-1 -1 $-1 $212 $69 $202 $213 reversed $130 $-1 #
coedge $-1 -1 $-1 $69 $212 $71 $135 reversed $130 $-1 #
loop $-1 -1 $-1 $214 $129 $215 #
truecolor-adesk-attrib $-1 -1 $216 $-1 $70 -1026895378 #
vertex $-1 -1 $-1 $121 $217 #
straight-curve $-1 -1 $-1 -247.69491229696277 342.49809888906697 115.02451944735324 953.20905391878898 302.31192422272591 6.6406982610841342e-06 F -0.050799999999999998 F 0 #
coedge $-1 -1 $-1 $72 $71 $218 $219 reversed $73 $-1 #
edge $220 -1 $-1 $76 -1.4972797928637054 $221 -0.54464958529685181 $129 $222 forward @7 unknown #
edge $223 -1 $-1 $75 -1.4972797928637054 $224 -0.54464958529685181 $122 $225 forward @7 unknown #
face $226 -1 $-1 $227 $73 $3 $-1 $228 reversed single #
DXID-attrib $-1 -1 $-1 $74 $39 @18 ASM_EDGE_FROM_STEP @4 8217 #
point $-1 -1 $-1 -247.69491218714933 342.49809896127772 95.974519447353245 #
point $-1 -1 $-1 -247.69491229696277 342.49809888906697 115.02451944735324 #
coedge $-1 -1 $-1 $142 $78 $110 $190 forward $80 $-1 #
coedge $-1 -1 $-1 $79 $141 $229 $230 reversed $80 $-1 #
coedge $-1 -1 $-1 $231 $103 $79 $144 reversed $178 $-1 #
edge $232 -1 $-1 $233 -3.1415926535897931 $82 -1.5707963267948966 $143 $234 forward @7 unknown #
face $235 -1 $-1 $236 $80 $3 $-1 $237 forward single #
DXID-attrib $-1 -1 $-1 $81 $42 @18 ASM_EDGE_FROM_STEP @4 8214 #
point $-1 -1 $-1 -102.42585235528409 388.57043622244925 93.434520459395657 #
coedge $-1 -1 $-1 $105 $238 $84 $149 reversed $183 $-1 #
edge $239 -1 $-1 $86 1.4859649201326156e-29 $240 1.5707963267948966 $148 $241 forward @7 unknown #
DXID-attrib $-1 -1 $-1 $85 $44 @18 ASM_EDGE_FROM_STEP @4 8216 #
point $-1 -1 $-1 -102.42585249438108 388.57043613098233 117.56452045939565 #
truecolor-adesk-attrib $-1 -1 $242 $-1 $88 -1026895378 #
ellipse-curve $-1 -1 $-1 -309.37549552763926 326.93301827819329 93.434519032795706 0.95320905391878896 0.30231192422272601 6.6406982610841345e-09 2.1962682281863733e-08 1.4442145431549803e-08 -3.8100000000000001 1 F -1.5707963267948966 F -0.33983690945412193 #
DXID-attrib $-1 -1 $-1 $93 $52 @18 ASM_FACE_FROM_STEP @17 LaptopStand-12214 #
truecolor-adesk-attrib $-1 -1 $243 $-1 $94 -1026895378 #
face $244 -1 $-1 $245 $246 $3 $-1 $247 forward single #
loop $-1 -1 $-1 $-1 $248 $94 #
plane-surface $-1 -1 $-1 -310.14336797622462 329.35416916923793 121.3745190375469 0.30231192422272601 -0.95320905391878896 -1.8705519794337407e-09 5.7644835385469121e-06 3.7905893521128092e-06 -1000 forward_v I I I I #
coedge $-1 -1 $-1 $249 $250 $251 $252 forward $95 $-1 #
coedge $-1 -1 $-1 $253 $97 $254 $255 forward $53 $-1 #
coedge $-1 -1 $-1 $97 $253 $256 $257 forward $53 $-1 #
coedge $-1 -1 $-1 $99 $98 $97 $163 reversed $30 $-1 #
edge $258 -1 $-1 $259 0.0038099999999999979 $260 0.027939999999999996 $162 $261 forward @7 unknown #
coedge $-1 -1 $-1 $262 $254 $98 $165 reversed $263 $-1 #
edge $264 -1 $-1 $173 0.0038099999999995377 $260 0.0063499999999996311 $98 $265 forward @7 unknown #
coedge $-1 -1 $-1 $256 $266 $99 $167 reversed $267 $-1 #
edge $268 -1 $-1 $259 -0.0025400000000000938 $172 0 $99 $269 reversed @7 unknown #
coedge $-1 -1 $-1 $175 $100 $270 $271 forward $170 $-1 #
coedge $-1 -1 $-1 $100 $175 $272 $273 forward $170 $-1 #
loop $-1 -1 $-1 $-1 $175 $274 #
truecolor-adesk-attrib $-1 -1 $275 $-1 $101 -1026895378 #
vertex $-1 -1 $-1 $101 $276 #
vertex $-1 -1 $-1 $101 $277 #
straight-curve $-1 -1 $-1 -105.75661403505146 407.98412245222545 121.37452051378484 5.7644835385469121e-06 3.7905893521128092e-06 -1000 F 0.0038099999999999979 F 0.027939999999999996 #
coedge $-1 -1 $-1 $169 $168 $102 $176 forward $170 $-1 #
edge $278 -1 $-1 $185 0.0038099999999999979 $180 0.027939999999999996 $102 $279 forward @7 unknown #
coedge $-1 -1 $-1 $103 $231 $280 $281 forward $178 $-1 #
loop $-1 -1 $-1 $-1 $177 $282 #
truecolor-adesk-attrib $-1 -1 $283 $-1 $104 -1026895378 #
vertex $-1 -1 $-1 $104 $284 #
ellipse-curve $-1 -1 $-1 -105.88127764914987 399.46561570874098 93.434520480776058 -5.7644835385469117e-09 -3.7905893521128092e-09 1 10.895179486291758 3.4554252938657588 7.5903181124191663e-08 1 F -1.5707963267948966 F 0.78539816339746649 #
coedge $-1 -1 $-1 $238 $105 $285 $286 forward $183 $-1 #
loop $-1 -1 $-1 $-1 $182 $287 #
truecolor-adesk-attrib $-1 -1 $288 $-1 $106 -1026895378 #
vertex $-1 -1 $-1 $176 $289 #
ellipse-curve $-1 -1 $-1 -105.88127778824685 399.46561561727407 117.56452048077605 -5.7644835385469117e-09 -3.7905893521128092e-09 1 10.895179486291758 3.4554252938657588 7.5903181124191663e-08 1 F -1.5707963267948966 F 0.78539816339746649 #
DXID-attrib $-1 -1 $-1 $107 $58 @18 ASM_EDGE_FROM_STEP @4 8215 #
coedge $-1 -1 $-1 $290 $109 $291 $292 reversed $111 $-1 #
coedge $-1 -1 $-1 $110 $290 $293 $294 reversed $111 $-1 #
edge $295 -1 $-1 $113 1.5031649432035235 $296 1.6280578082321731 $141 $297 forward @7 unknown #
face $298 -1 $-1 $209 $111 $3 $-1 $299 forward single #
DXID-attrib $-1 -1 $-1 $112 $60 @18 ASM_EDGE_FROM_STEP @4 8222 #
point $-1 -1 $-1 -308.99155936316976 325.72244279333262 89.842416581992438 #
coedge $-1 -1 $-1 $300 $291 $115 $195 forward $246 $-1 #
edge $301 -1 $-1 $197 -0.21568210244842764 $240 0 $194 $302 forward @7 unknown #
truecolor-adesk-attrib $-1 -1 $303 $-1 $116 -1026895378 #
vertex $-1 -1 $-1 $292 $304 #
intcurve-curve $-1 -1 $-1 forward { surfintcur full nubs 3 periodic 41 
	0 3 0.13419722255830641 2 0.26839444511661281 2 0.33699964010187622 2 0.40560483508713963 2 
	0.51048853383686565 2 0.61537223258659157 2 0.72378794600913887 2 0.83220365943168617 2 0.93817985328712772 2 
	1.0441560471425693 2 1.1501322409980106 2 1.2561084348534519 2 1.3645241482759993 2 1.472939861698547 2 
	1.5778235604482731 2 1.6827072591979992 2 1.751312454183263 2 1.8199176491685265 2 1.9541148717268326 2 
	2.0883120942851385 2 2.2225093168434449 2 2.3567065394017512 2 2.425311734387015 2 2.4939169293722783 2 
	2.5988006281220044 2 2.7036843268717305 2 2.8121000402942782 2 2.9205157537168254 2 3.0264919475722669 2 
	3.132468141427708 2 3.2384443352831496 2 3.3444205291385911 2 3.4528362425611383 2 3.5612519559836855 2 
	3.6661356547334112 2 3.7710193534831373 2 3.8396245484684011 2 3.9082297434536644 2 4.0424269660119716 2 
	4.176624188570278 3 
	-306.51164144246133 330.50597762573324 114.72471273142324 
	-306.08524808395026 330.64120902765637 114.72471273439378 
	-305.61601697741713 330.70315823861262 114.64574810986569 
	-304.70064423558421 330.65467954809372 114.4019294216656 
	-304.25256072160875 330.5448165184082 114.24431135363227 
	-303.65832316939589 330.29021254644454 114.04671215290423 
	-303.44521477942334 330.17714429258518 113.97753402953242 
	-303.04204504088455 329.90785052280336 113.86221054078698 
	-302.85195205187819 329.75143448022556 113.81662144364508 
	-302.44234267173857 329.34909185286693 113.74757659658898 
	-302.20929342312411 329.04817870436398 113.74008486283049 
	-301.85110173364558 328.40417448940832 113.83788567713229 
	-301.72548017570551 328.06148833841337 113.94408667172337 
	-301.57609466028993 327.4295519835091 114.2336702086081 
	-301.54450811269936 327.09694931144787 114.43904558020171 
	-301.55673738837703 326.49641182664311 114.93203230361172 
	-301.59877556334339 326.22843485162315 115.21963478876191 
	-301.69461557372341 325.8127699028019 115.79299962076637 
	-301.75707545173987 325.62750408639943 116.12665406890139 
	-301.85411130231483 325.37619904170202 116.83528272760276 
	-301.88503163149079 325.3116074403963 117.21126509031012 
	-301.88503163556345 325.31160743771824 117.91777304934639 
	-301.85411131072215 325.37619903617355 118.29375541289991 
	-301.75707546831694 325.62750407549873 119.00238407462518 
	-301.69461559414719 325.81276988937168 119.33603852488486 
	-301.5987755903775 326.22843483384617 119.90940336114548 
	-301.55673741872687 326.49641180668578 120.19700584881188 
	-301.54450814873286 327.09694928775309 120.68999257691567 
	-301.57609469869118 327.42955195825732 120.89536795066664 
	-301.72548021744535 328.06148831096624 121.18495149061994 
	-301.85110177660982 328.40417446115606 121.2911524863607 
	-302.2092934672159 329.04817867537025 121.38895330141524 
	-302.44234271574396 329.34909182393 121.38146156725119 
	-302.8519520950876 329.75143445181209 121.31241671852297 
	-303.04204508356833 329.9078504947355 121.2668276203753 
	-303.44521482077761 330.17714426539163 121.15150412902329 
	-303.65832320995258 330.29021251977542 121.08232600405177 
	-304.25256075988733 330.54481649323708 120.88472679840297 
	-304.70064427204562 330.65467952411757 120.72710872603659 
	-305.61601701106753 330.70315821648489 120.48329002765072 
	-306.08524811669025 330.64120900612727 120.40432539724324 
	-306.93803483371249 330.370746202281 120.40432539130215 
	-307.35720090284036 330.1509386896314 120.48329001552047 
	-308.07731737306489 329.58376172445594 120.72710870251241 
	-308.38018026076509 329.23573472503568 120.88472676964719 
	-308.71906345006113 328.68518987160724 121.08232596879522 
	-308.82805386544874 328.46996741611002 121.15150409152281 
	-309.00232735713854 328.01753651206207 121.26682757885195 
	-309.06752648369877 327.78015412684505 121.31241667522107 
	-309.17038210969599 327.2152823232019 121.38146152037913 
	-309.1874072960992 326.83505762875183 121.38895325280099 
	-309.10896608414754 326.1023300593024 121.29115243579751 
	-309.01412459356618 325.74988195634597 121.18495143984232 
	-308.77199894919784 325.14735829722383 120.89536790053512 
	-308.60612207858065 324.85734603758073 120.6899925277197 
	-308.25001860548116 324.37362593236713 120.19700580218196 
	-308.06122042434936 324.17885911390374 119.90940331612371 
	-307.74333713440467 323.89440723806763 119.33603848274537 
	-307.58551919535222 323.77900291922037 119.00238403402031 
	-307.36138467156616 323.6295576251498 118.29375537453252 
	-307.29888984854335 323.59459280477245 117.91777301162981 
	-307.29888984447069 323.59459280745051 117.21126505259352 
	-307.36138466315884 323.62955763067828 116.83528268923537 
	-307.58551917877509 323.77900293012107 116.12665402829651 
	-307.74333711398089 323.89440725149785 115.79299957862688 
	-308.06122039731525 324.17885913168072 115.21963474374014 
	-308.25001857513132 324.37362595232446 114.93203225698181 
	-308.60612204254716 324.85734606127551 114.43904553100575 
	-308.77199891079658 325.14735832247561 114.23367015847657 
	-309.01412455182634 325.74988198379316 113.94408662094574 
	-309.10896604118335 326.10233008755466 113.83788562656912 
	-309.18740725200746 326.83505765774555 113.74008481421623 
	-309.1703820656906 327.21528235213884 113.74757654971692 
	-309.06752644048942 327.78015415525851 113.81662140034318 
	-309.00232731445476 328.01753654012992 113.86221049926363 
	-308.82805382409452 328.46996744330363 113.97753399203192 
	-308.71906340950443 328.68518989827635 114.0467121176477 
	-308.3801802224865 329.2357347502068 114.24431132487649 
	-308.07731733660347 329.5837617484321 114.40192939814142 
	-307.35720086918997 330.15093871175912 114.64574809773542 
	-306.93803480097245 330.37074622381004 114.72471272845269 
	-306.51164144246133 330.50597762573324 114.72471273142324 
	0.0026586507262066636 
	cone -103.57766092566968 392.20216262641293 117.56452046652245 -0.95320905391878896 -0.30231192422272601 -6.6406982610841345e-09 -2.1962682281863733e-08 -1.4442145431549803e-08 3.8100000000000001 1 I I 0 1 3.8100000000000001 forward I I I I 
	cone -305.35983304950548 326.87425110509594 121.37451905572117 5.7644835385469117e-09 3.7905893521128092e-09 -1 -3.6317264954305859 -1.1518084312885861 -2.5301060374730554e-08 1 I I 0 1 3.8100000000000001 forward I I I I 
	nullbs 
	nullbs 
	I I 
	0 
	0 
	0 
	} F 2.5485663803381047 F 2.6734592453667529 #
truecolor-adesk-attrib $-1 -1 $305 $-1 $117 -1026895378 #
cone-surface $-1 -1 $-1 -103.57766092566968 392.20216262641293 117.56452046652245 -0.95320905391878896 -0.30231192422272601 -6.6406982610841345e-09 -2.1962682281863733e-08 -1.4442145431549803e-08 3.8100000000000001 1 I I 0 1 3.8100000000000001 forward I I I I #
coedge $-1 -1 $-1 $306 $120 $123 $207 reversed $203 $-1 #
coedge $-1 -1 $-1 $120 $306 $128 $213 forward $203 $-1 #
loop $-1 -1 $-1 $-1 $202 $307 #
truecolor-adesk-attrib $-1 -1 $308 $-1 $121 -1026895378 #
straight-curve $-1 -1 $-1 -296.11793212622382 327.14065321076322 95.974519110005772 -5.7644835385469121e-06 -3.7905893521128092e-06 1000 F 0 F 0.019050000000000001 #
coedge $-1 -1 $-1 $123 $122 $309 $310 forward $124 $-1 #
edge $311 -1 $-1 $312 0.5446495852968517 $126 1.4972797928637054 $123 $313 forward @7 unknown #
loop $-1 -1 $-1 $-1 $314 $209 #
face $315 -1 $-1 $215 $124 $3 $-1 $316 forward single #
DXID-attrib $-1 -1 $-1 $125 $68 @18 ASM_EDGE_FROM_STEP @4 8218 #
point $-1 -1 $-1 -296.11793212622382 327.14065321076322 95.974519110005772 #
coedge $-1 -1 $-1 $129 $128 $317 $318 reversed $130 $-1 #
edge $319 -1 $-1 $320 0.5446495852968517 $132 1.4972797928637054 $128 $321 forward @7 unknown #
loop $-1 -1 $-1 $-1 $322 $215 #
face $323 -1 $-1 $137 $130 $3 $-1 $324 reversed single #
DXID-attrib $-1 -1 $-1 $131 $70 @18 ASM_EDGE_FROM_STEP @4 8220 #
point $-1 -1 $-1 -296.11793223603723 327.14065313855247 115.02451911000577 #
coedge $-1 -1 $-1 $317 $309 $134 $219 forward $325 $-1 #
edge $326 -1 $-1 $224 0 $221 0.019050000000000001 $134 $327 forward @7 unknown #
truecolor-adesk-attrib $-1 -1 $328 $-1 $135 -1026895378 #
vertex $-1 -1 $-1 $135 $329 #
ellipse-curve $-1 -1 $-1 -238.72443356399521 320.08017802120685 115.02451941408628 -5.7644835385469117e-09 -3.7905893521128092e-09 1 -23.016251914679412 -7.2996446856185084 -1.6034676070073067e-07 1 F -1.4972797928637054 F -0.54464958529685181 #
truecolor-adesk-attrib $-1 -1 $330 $-1 $136 -1026895378 #
vertex $-1 -1 $-1 $136 $331 #
ellipse-curve $-1 -1 $-1 -238.72443345418179 320.08017809341754 95.974519414086288 -5.7644835385469117e-09 -3.7905893521128092e-09 1 -23.016251914679412 -7.2996446856185084 -1.6034676070073067e-07 1 F -1.4972797928637054 F -0.54464958529685181 #
truecolor-adesk-attrib $-1 -1 $332 $-1 $137 -1026895378 #
face $333 -1 $-1 $307 $325 $3 $-1 $334 forward single #
cone-surface $-1 -1 $-1 -238.72443345418179 320.08017809341754 95.974519414086288 -5.7644835385469117e-09 -3.7905893521128092e-09 1 23.016251914679412 7.2996446856185084 1.6034676070073067e-07 1 I I 0 1 24.146069343399603 forward I I I I #
coedge $-1 -1 $-1 $293 $335 $142 $230 forward $336 $-1 #
edge $337 -1 $-1 $233 0 $296 0.21568210244842767 $229 $338 reversed @7 unknown #
coedge $-1 -1 $-1 $177 $143 $335 $339 reversed $178 $-1 #
truecolor-adesk-attrib $-1 -1 $340 $-1 $144 -1026895378 #
vertex $-1 -1 $-1 $230 $341 #
ellipse-curve $-1 -1 $-1 -103.57766078657269 392.20216271787984 93.434520466522457 -0.95320905391878896 -0.30231192422272601 -6.6406982610841345e-09 -2.1962682281863733e-08 -1.4442145431549803e-08 3.8100000000000001 1 F -3.1415926535897931 F -1.5707963267948966 #
truecolor-adesk-attrib $-1 -1 $342 $-1 $145 -1026895378 #
face $343 -1 $-1 $344 $267 $3 $-1 $345 forward single #
cone-surface $-1 -1 $-1 -309.37549552763926 326.93301827819329 93.434519032795706 0.95320905391878896 0.30231192422272601 6.6406982610841345e-09 2.1962682281863733e-08 1.4442145431549803e-08 -3.8100000000000001 1 I I 0 1 3.8100000000000001 forward I I I I #
coedge $-1 -1 $-1 $148 $182 $300 $346 reversed $183 $-1 #
truecolor-adesk-attrib $-1 -1 $347 $-1 $149 -1026895378 #
vertex $-1 -1 $-1 $195 $348 #
ellipse-curve $-1 -1 $-1 -103.57766092566968 392.20216262641293 117.56452046652245 -0.95320905391879118 -0.30231192422271908 -6.6407055460121045e-09 1.1518084312885597 -3.6317264954305943 -7.126803041642737e-09 1 F 1.4859649201326156e-29 F 1.5707963267948966 #
DXID-attrib $-1 -1 $-1 $152 $88 @18 ASM_EDGE_FROM_STEP @4 8223 #
DXID-attrib $-1 -1 $-1 $155 $94 @18 ASM_FACE_FROM_STEP @17 LaptopStand-12215 #
truecolor-adesk-attrib $-1 -1 $349 $-1 $156 -1026895378 #
face $350 -1 $-1 $274 $336 $3 $-1 $351 reversed single #
loop $-1 -1 $-1 $-1 $352 $156 #
plane-surface $-1 -1 $-1 -105.88127781020953 399.46561560283192 121.37452048077607 -5.7644835385469117e-09 -3.7905893521128092e-09 1 953.20905391878898 302.31192422272602 6.6406982610841342e-06 forward_v I I I I #
coedge $-1 -1 $-1 $353 $354 $355 $356 forward $157 $-1 #
coedge $-1 -1 $-1 $357 $159 $354 $358 reversed $95 $-1 #
coedge $-1 -1 $-1 $159 $357 $253 $359 forward $95 $-1 #
coedge $-1 -1 $-1 $360 $355 $159 $252 reversed $336 $-1 #
edge $361 -1 $-1 $362 -0.78539816339739665 $363 1.5707963267948966 $159 $364 forward @7 unknown #
coedge $-1 -1 $-1 $161 $160 $250 $359 reversed $53 $-1 #
coedge $-1 -1 $-1 $164 $365 $160 $255 reversed $263 $-1 #
edge $366 -1 $-1 $260 0 $362 1.5707963267948977 $160 $367 reversed @7 unknown #
coedge $-1 -1 $-1 $368 $166 $161 $257 reversed $267 $-1 #
edge $369 -1 $-1 $370 -1.5707963267948977 $259 0 $161 $371 reversed @7 unknown #
truecolor-adesk-attrib $-1 -1 $372 $-1 $163 -1026895378 #
vertex $-1 -1 $-1 $163 $373 #
vertex $-1 -1 $-1 $165 $374 #
straight-curve $-1 -1 $-1 -106.9256586216795 405.72914246240822 121.3745204984982 5.7644835385469121e-06 3.7905893521128092e-06 -1000 F 0.0038099999999999979 F 0.027939999999999996 #
coedge $-1 -1 $-1 $365 $164 $375 $376 reversed $263 $-1 #
loop $-1 -1 $-1 $-1 $254 $377 #
truecolor-adesk-attrib $-1 -1 $378 $-1 $165 -1026895378 #
straight-curve $-1 -1 $-1 -104.00304699405066 411.36659254286019 93.434520536714814 -460.25377426294273 -887.787397565834 -6.0183627614458118e-06 F 0.0038099999999995377 F 0.0063499999999996311 #
coedge $-1 -1 $-1 $166 $368 $379 $380 reversed $267 $-1 #
loop $-1 -1 $-1 $-1 $266 $236 #
truecolor-adesk-attrib $-1 -1 $381 $-1 $167 -1026895378 #
straight-curve $-1 -1 $-1 -105.75661401308878 407.9841224666676 117.56452051378484 -460.25377426294273 -887.787397565834 -6.0183627614458118e-06 F 0 F 0.0025400000000000938 #
coedge $-1 -1 $-1 $379 $285 $168 $271 reversed $382 $-1 #
edge $383 -1 $-1 $172 0.78539816339756907 $185 2.3561944901923728 $168 $384 forward @7 unknown #
coedge $-1 -1 $-1 $280 $375 $169 $273 reversed $385 $-1 #
edge $386 -1 $-1 $180 -2.3561944901923728 $173 -0.78539816339756907 $169 $387 reversed @7 unknown #
face $388 -1 $-1 $377 $170 $3 $-1 $389 forward single #
DXID-attrib $-1 -1 $-1 $171 $101 @18 ASM_EDGE_FROM_STEP @4 8227 #
point $-1 -1 $-1 -105.75661401308878 407.9841224666676 117.56452051378484 #
point $-1 -1 $-1 -105.7566138739918 407.98412255813452 93.434520513784847 #
truecolor-adesk-attrib $-1 -1 $390 $-1 $176 -1026895378 #
straight-curve $-1 -1 $-1 -100.62057717038434 409.61302555700939 121.37452054956594 5.7644835385469121e-06 3.7905893521128092e-06 -1000 F 0.0038099999999999979 F 0.027939999999999996 #
coedge $-1 -1 $-1 $375 $272 $177 $281 reversed $385 $-1 #
edge $391 -1 $-1 $392 -1.5707963267948966 $180 0 $280 $393 forward @7 unknown #
face $394 -1 $-1 $145 $178 $3 $-1 $395 forward single #
DXID-attrib $-1 -1 $-1 $179 $104 @18 ASM_EDGE_FROM_STEP @4 8224 #
point $-1 -1 $-1 -100.62057700932468 409.61302566291846 93.434520549565946 #
coedge $-1 -1 $-1 $270 $379 $182 $286 reversed $382 $-1 #
edge $396 -1 $-1 $185 -6.9026263867088567e-31 $397 1.570796326794897 $285 $398 forward @7 unknown #
face $399 -1 $-1 $117 $183 $3 $-1 $400 forward single #
DXID-attrib $-1 -1 $-1 $184 $106 @18 ASM_EDGE_FROM_STEP @4 8226 #
point $-1 -1 $-1 -100.62057714842166 409.61302557145154 117.56452054956594 #
coedge $-1 -1 $-1 $189 $188 $353 $401 reversed $111 $-1 #
coedge $-1 -1 $-1 $194 $352 $188 $292 forward $246 $-1 #
edge $402 -1 $-1 $403 1.5707963267948966 $197 2.8017557441356709 $291 $404 forward @7 unknown #
coedge $-1 -1 $-1 $355 $229 $189 $294 forward $336 $-1 #
edge $405 -1 $-1 $296 -2.8017557441356713 $406 -1.5707963267948966 $293 $407 reversed @7 unknown #
truecolor-adesk-attrib $-1 -1 $408 $-1 $190 -1026895378 #
vertex $-1 -1 $-1 $230 $409 #
intcurve-curve $-1 -1 $-1 forward { surfintcur full nubs 3 periodic 41 
	0 3 0.1341972225583066 2 0.2683944451166132 2 0.33699964010187655 2 0.40560483508713985 2 
	0.51048853383686588 2 0.61537223258659179 2 0.72378794600913898 2 0.83220365943168617 2 0.93817985328712783 2 
	1.0441560471425695 2 1.150132240998011 2 1.2561084348534526 2 1.3645241482759998 2 1.472939861698547 2 
	1.5778235604482729 2 1.6827072591979988 2 1.7513124541832623 2 1.8199176491685258 2 1.9541148717268324 2 
	2.088312094285139 2 2.2225093168434453 2 2.3567065394017521 2 2.4253117343870159 2 2.4939169293722792 2 
	2.5988006281220049 2 2.703684326871731 2 2.8121000402942782 2 2.9205157537168254 2 3.0264919475722669 2 
	3.1324681414277085 2 3.23844433528315 2 3.3444205291385916 2 3.4528362425611387 2 3.5612519559836859 2 
	3.6661356547334121 2 3.7710193534831378 2 3.8396245484684011 2 3.9082297434536644 2 4.0424269660119716 2 
	4.176624188570278 3 
	-306.51164133610439 330.50597769567105 96.274325394272694 
	-306.93803469461551 330.37074629374791 96.274325391302156 
	-307.35720076374338 330.15093878109832 96.353290015520471 
	-308.0773172339679 329.58376181592286 96.597108702512415 
	-308.3801801216681 329.2357348165026 96.754726769647192 
	-308.71906331096415 328.68518996307415 96.952325968795222 
	-308.82805372635175 328.46996750757694 97.021504091522814 
	-309.00232721804156 328.01753660352898 97.13682757885195 
	-309.06752634460179 327.78015421831196 97.182416675221077 
	-309.17038197059901 327.21528241466882 97.251461520379124 
	-309.18740715700221 326.83505772021874 97.258953252800978 
	-309.10896594505056 326.10233015076932 97.161152435797504 
	-309.0141244544692 325.74988204781289 97.054951439842327 
	-308.7719988101008 325.1473583886908 96.765367900535125 
	-308.60612193948367 324.85734612904764 96.5599925277197 
	-308.25001846638418 324.37362602383405 96.067005802181981 
	-308.06122028525238 324.17885920537066 95.779403316123719 
	-307.74333699530769 323.89440732953454 95.20603848274537 
	-307.58551905625524 323.77900301068729 94.872384034020314 
	-307.36138453246917 323.62955771661672 94.163755374532528 
	-307.29888970944637 323.59459289623936 93.78777301162981 
	-307.29888970537371 323.59459289891743 93.081265052593523 
	-307.36138452406186 323.62955772214519 92.705282689235375 
	-307.5855190396781 323.77900302158798 91.996654028296518 
	-307.7433369748839 323.89440734296477 91.662999578626881 
	-308.06122025821827 324.17885922314764 91.089634743740149 
	-308.25001843603428 324.37362604379138 90.802032256981803 
	-308.60612190345017 324.85734615274242 90.309045531005751 
	-308.7719987716996 325.14735841394253 90.103670158476575 
	-309.01412441272936 325.74988207526007 89.814086620945744 
	-309.10896590208631 326.10233017902158 89.707885626569109 
	-309.18740711291048 326.83505774921247 89.610084814216236 
	-309.17038192659362 327.21528244360576 89.617576549716915 
	-309.06752630139243 327.78015424672543 89.686621400343185 
	-309.00232717535778 328.01753663159684 89.732210499263616 
	-308.82805368499754 328.46996753477055 89.847533992031927 
	-308.71906327040745 328.68518998974326 89.916712117647691 
	-308.38018008338952 329.23573484167372 90.114311324876482 
	-308.07731719750655 329.58376183989901 90.27192939814141 
	-307.35720073009298 330.15093880322604 90.515748097735425 
	-306.93803466187546 330.37074631527696 90.594712728452691 
	-306.08524794485328 330.64120911912329 90.594712734393781 
	-305.61601683832015 330.70315833007953 90.515748109865683 
	-304.70064409648722 330.65467963956064 90.271929421665604 
	-304.25256058251176 330.54481660987511 90.114311353632274 
	-303.6583230302989 330.29021263791145 89.916712152904239 
	-303.44521464032636 330.1771443840521 89.847534029532412 
	-303.04204490178756 329.90785061427027 89.73221054078698 
	-302.8519519127812 329.75143457169247 89.686621443645066 
	-302.44234253264159 329.34909194433385 89.617576596588989 
	-302.20929328402713 329.04817879583089 89.61008486283049 
	-301.8511015945486 328.40417458087524 89.707885677132296 
	-301.72548003660853 328.06148842988028 89.814086671723373 
	-301.57609452119294 327.42955207497602 90.103670208608108 
	-301.54450797360238 327.09694940291479 90.309045580201726 
	-301.55673724928005 326.49641191811003 90.802032303611725 
	-301.59877542424641 326.22843494309006 91.089634788761899 
	-301.69461543462643 325.81276999426882 91.662999620766357 
	-301.75707531264288 325.62750417786634 91.996654068901393 
	-301.85411116321785 325.37619913316894 92.705282727602764 
	-301.88503149239381 325.31160753186322 93.081265090310126 
	-301.88503149646647 325.31160752918515 93.787773049346399 
	-301.85411117162516 325.37619912764046 94.163755412899917 
	-301.75707532921996 325.62750416696565 94.872384074625188 
	-301.69461545505021 325.81276998083865 95.20603852488486 
	-301.59877545128046 326.22843492531308 95.779403361145484 
	-301.55673727962989 326.4964118981527 96.067005848811888 
	-301.54450800963588 327.09694937922006 96.559992576915675 
	-301.5760945595942 327.42955204972424 96.765367950666644 
	-301.72548007834837 328.06148840243316 97.054951490619956 
	-301.85110163751284 328.40417455262298 97.161152486360692 
	-302.20929332811892 329.04817876683722 97.258953301415232 
	-302.44234257664698 329.34909191539691 97.251461567251198 
	-302.85195195599056 329.751434543279 97.182416718522973 
	-303.04204494447134 329.90785058620241 97.1368276203753 
	-303.44521468168057 330.17714435685855 97.021504129023299 
	-303.6583230708556 330.29021261124234 96.952326004051756 
	-304.25256062079035 330.54481658470405 96.75472679840297 
	-304.70064413294864 330.65467961558448 96.597108726036595 
	-305.61601687197054 330.70315830795181 96.353290027650729 
	-306.08524797759327 330.64120909759419 96.274325397243246 
	-306.51164133610439 330.50597769567105 96.274325394272694 
	0.0026586507262024209 
	cone -309.37549552763926 326.93301827819329 93.434519032795706 0.95320905391878896 0.30231192422272601 6.6406982610841345e-09 2.1962682281863733e-08 1.4442145431549803e-08 -3.8100000000000001 1 I I 0 1 3.8100000000000001 forward I I I I 
	cone -305.35983304950548 326.87425110509594 121.37451905572117 5.7644835385469117e-09 3.7905893521128092e-09 -1 -3.6317264954305859 -1.1518084312885861 -2.5301060374730554e-08 1 I I 0 1 3.8100000000000001 forward I I I I 
	nullbs 
	nullbs 
	I I 
	0 
	0 
	0 
	} F 1.5031649432035235 F 1.6280578082321731 #
truecolor-adesk-attrib $-1 -1 $410 $-1 $191 -1026895378 #
cone-surface $-1 -1 $-1 -305.35983304950548 326.87425110509594 121.37451905572117 5.7644835385469117e-09 3.7905893521128092e-09 -1 -3.6317264954305859 -1.1518084312885861 -2.5301060374730554e-08 1 I I 0 1 3.8100000000000001 forward I I I I #
coedge $-1 -1 $-1 $411 $194 $238 $346 forward $246 $-1 #
truecolor-adesk-attrib $-1 -1 $412 $-1 $195 -1026895378 #
straight-curve $-1 -1 $-1 -103.57766094763235 392.20216261197078 121.37452046652245 953.20905391878898 302.31192422272602 6.6406982610841342e-06 F -0.21568210244842764 F 0 #
DXID-attrib $-1 -1 $-1 $196 $116 @18 ASM_EDGE_FROM_STEP @4 8257 #
point $-1 -1 $-1 -309.1677937697134 326.99889120038347 121.3745190342427 #
DXID-attrib $-1 -1 $-1 $199 $117 @18 ASM_FACE_FROM_STEP @17 LaptopStand-12226 #
coedge $-1 -1 $-1 $202 $201 $413 $414 forward $203 $-1 #
face $415 -1 $-1 $416 $203 $3 $-1 $417 reversed single #
DXID-attrib $-1 -1 $-1 $204 $121 @18 ASM_EDGE_FROM_STEP @4 8219 #
coedge $-1 -1 $-1 $218 $413 $206 $310 reversed $325 $-1 #
edge $418 -1 $-1 $224 -2.5969430682929455 $312 -0.54464958529684782 $206 $419 forward @7 unknown #
truecolor-adesk-attrib $-1 -1 $420 $-1 $207 -1026895378 #
vertex $-1 -1 $-1 $310 $421 #
ellipse-curve $-1 -1 $-1 -290.52855597145054 303.65040972678219 95.974519053183769 -5.7644835385469117e-09 -3.7905893521128092e-09 1 23.016251914679412 7.2996446856185084 1.6034676070073067e-07 1 F 0.5446495852968517 F 1.4972797928637054 #
coedge $-1 -1 $-1 $314 $314 $422 $423 reversed $208 $-1 #
truecolor-adesk-attrib $-1 -1 $424 $-1 $209 -1026895378 #
plane-surface $-1 -1 $-1 -238.72443345418179 320.08017809341754 95.974519414086288 5.7644835385469117e-09 3.7905893521128092e-09 -1 -953.20905391878898 -302.31192422272602 -6.6406982610841342e-06 forward_v I I I I #
coedge $-1 -1 $-1 $413 $218 $212 $318 forward $325 $-1 #
edge $425 -1 $-1 $221 -2.5969430682929455 $320 -0.54464958529684782 $212 $426 forward @7 unknown #
truecolor-adesk-attrib $-1 -1 $427 $-1 $213 -1026895378 #
vertex $-1 -1 $-1 $213 $428 #
ellipse-curve $-1 -1 $-1 -290.52855608126396 303.65040965457143 115.02451905318377 -5.7644835385469117e-09 -3.7905893521128092e-09 1 23.016251914679412 7.2996446856185084 1.6034676070073067e-07 1 F 0.5446495852968517 F 1.4972797928637054 #
coedge $-1 -1 $-1 $322 $322 $429 $430 forward $214 $-1 #
truecolor-adesk-attrib $-1 -1 $431 $-1 $215 -1026895378 #
plane-surface $-1 -1 $-1 -238.72443356399521 320.08017802120685 115.02451941408628 5.7644835385469117e-09 3.7905893521128092e-09 -1 -953.20905391878898 -302.31192422272602 -6.6406982610841342e-06 forward_v I I I I #
loop $-1 -1 $-1 $-1 $317 $227 #
truecolor-adesk-attrib $-1 -1 $432 $-1 $219 -1026895378 #
straight-curve $-1 -1 $-1 -262.19251884665721 325.76187086474403 95.974519300341854 -5.7644835385469121e-06 -3.7905893521128092e-06 1000 F 0 F 0.019050000000000001 #
DXID-attrib $-1 -1 $-1 $220 $135 @18 ASM_EDGE_FROM_STEP @4 8262 #
point $-1 -1 $-1 -262.19251895647062 325.76187079253327 115.02451930034186 #
DXID-attrib $-1 -1 $-1 $223 $136 @18 ASM_EDGE_FROM_STEP @4 8258 #
point $-1 -1 $-1 -262.19251884665721 325.76187086474403 95.974519300341854 #
DXID-attrib $-1 -1 $-1 $226 $137 @18 ASM_FACE_FROM_STEP @17 LaptopStand-12230 #
truecolor-adesk-attrib $-1 -1 $433 $-1 $227 -1026895378 #
cone-surface $-1 -1 $-1 -269.60280529410943 327.5559230951593 95.974519264425894 -5.7644835385469117e-09 -3.7905893521128092e-09 1 7.2676154352659736 2.3049369891247671 5.0631119149347453e-08 1 I I 0 1 7.6243667696899111 forward I I I I #
coedge $-1 -1 $-1 $229 $360 $231 $339 forward $336 $-1 #
loop $-1 -1 $-1 $-1 $229 $245 #
truecolor-adesk-attrib $-1 -1 $434 $-1 $230 -1026895378 #
straight-curve $-1 -1 $-1 -103.57766076461002 392.20216273232199 89.624520466522455 953.20905391878898 302.31192422272602 6.6406982610841342e-06 F -0.21568210244842767 F 0 #
edge $435 -1 $-1 $392 -0.78539816339749302 $233 1.5707963267948966 $335 $436 reversed @7 unknown #
DXID-attrib $-1 -1 $-1 $232 $144 @18 ASM_EDGE_FROM_STEP @4 8252 #
point $-1 -1 $-1 -103.57766076461002 392.20216273232199 89.624520466522455 #
DXID-attrib $-1 -1 $-1 $235 $145 @18 ASM_FACE_FROM_STEP @17 LaptopStand-12222 #
truecolor-adesk-attrib $-1 -1 $437 $-1 $236 -1026895378 #
face $438 -1 $-1 $287 $382 $3 $-1 $439 forward single #
cone-surface $-1 -1 $-1 -105.88127778824685 399.46561561727407 117.56452048077605 0.46025377426294284 0.88778739756583402 6.0183627614458126e-09 -3.3824699847258275 1.753566879941812 -1.2851140603255941e-08 1 I I 0 1 3.8100000000000001 forward I I I I #
edge $440 -1 $-1 $240 -1.5707963267948966 $397 0.78539816339749302 $300 $441 forward @7 unknown #
DXID-attrib $-1 -1 $-1 $239 $149 @18 ASM_EDGE_FROM_STEP @4 8256 #
point $-1 -1 $-1 -103.57766094763235 392.20216261197078 121.37452046652245 #
DXID-attrib $-1 -1 $-1 $244 $156 @18 ASM_FACE_FROM_STEP @17 LaptopStand-12216 #
truecolor-adesk-attrib $-1 -1 $442 $-1 $245 -1026895378 #
plane-surface $-1 -1 $-1 -105.88127762718719 399.46561572318313 89.624520480776056 -5.7644835385469117e-09 -3.7905893521128092e-09 1 953.20905391878898 302.31192422272602 6.6406982610841342e-06 forward_v I I I I #
coedge $-1 -1 $-1 $291 $443 $444 $445 forward $246 $-1 #
coedge $-1 -1 $-1 $444 $248 $290 $401 forward $157 $-1 #
coedge $-1 -1 $-1 $248 $444 $249 $358 forward $157 $-1 #
coedge $-1 -1 $-1 $251 $293 $248 $356 reversed $336 $-1 #
edge $446 -1 $-1 $363 -0.21590000000000001 $406 -0.00381 $248 $447 forward @7 unknown #
coedge $-1 -1 $-1 $250 $249 $443 $448 reversed $95 $-1 #
edge $449 -1 $-1 $450 0 $363 0.03175 $249 $451 forward @7 unknown #
edge $452 -1 $-1 $370 0 $362 0.03175 $253 $453 forward @7 unknown #
coedge $-1 -1 $-1 $335 $251 $365 $454 forward $336 $-1 #
truecolor-adesk-attrib $-1 -1 $455 $-1 $252 -1026895378 #
vertex $-1 -1 $-1 $255 $456 #
vertex $-1 -1 $-1 $252 $457 #
ellipse-curve $-1 -1 $-1 -105.88127762718719 399.46561572318313 89.624520480776056 5.7644835385469117e-09 3.7905893521128092e-09 -1 4.8423019939074479 1.5357445750514482 3.3734747166307408e-08 1 F -0.78539816339739665 F 1.5707963267948966 #
coedge $-1 -1 $-1 $254 $262 $360 $454 reversed $263 $-1 #
truecolor-adesk-attrib $-1 -1 $458 $-1 $255 -1026895378 #
ellipse-curve $-1 -1 $-1 -103.54318847589374 403.97557568837556 93.434520511349348 0.46025377426294461 0.88778739756583303 6.0183627614458193e-09 -3.3824699847258244 1.7535668799418189 -1.2851140603255898e-08 1 F -1.5707963267948977 F 0 #
coedge $-1 -1 $-1 $266 $256 $411 $459 reversed $267 $-1 #
truecolor-adesk-attrib $-1 -1 $460 $-1 $257 -1026895378 #
vertex $-1 -1 $-1 $359 $461 #
ellipse-curve $-1 -1 $-1 -103.54318861499073 403.97557559690864 117.56452051134934 0.46025377426294461 0.88778739756583303 6.0183627614458193e-09 -3.3824699847258244 1.7535668799418189 -1.2851140603255898e-08 1 F 0 F 1.5707963267948977 #
DXID-attrib $-1 -1 $-1 $258 $163 @18 ASM_EDGE_FROM_STEP @4 8229 #
point $-1 -1 $-1 -106.92565859971683 405.72914247685037 117.56452049849821 #
point $-1 -1 $-1 -106.92565846061984 405.72914256831729 93.434520498498202 #
coedge $-1 -1 $-1 $272 $280 $262 $376 forward $385 $-1 #
edge $462 -1 $-1 $392 -1.5707963267948966 $173 0 $262 $463 forward @7 unknown #
face $464 -1 $-1 $465 $263 $3 $-1 $466 forward single #
DXID-attrib $-1 -1 $-1 $264 $165 @18 ASM_EDGE_FROM_STEP @4 8228 #
coedge $-1 -1 $-1 $285 $270 $266 $380 forward $382 $-1 #
edge $467 -1 $-1 $172 1.6304806347065819e-30 $397 1.5707963267948959 $266 $468 forward @7 unknown #
DXID-attrib $-1 -1 $-1 $268 $167 @18 ASM_EDGE_FROM_STEP @4 8230 #
loop $-1 -1 $-1 $-1 $270 $344 #
truecolor-adesk-attrib $-1 -1 $469 $-1 $271 -1026895378 #
ellipse-curve $-1 -1 $-1 -102.37414402836365 406.23055558672559 117.56452052663599 5.7644835385469117e-09 3.7905893521128092e-09 -1 -3.6317264954305859 -1.1518084312885861 -2.5301060374730554e-08 1 F 0.78539816339756907 F 2.3561944901923728 #
loop $-1 -1 $-1 $-1 $375 $465 #
truecolor-adesk-attrib $-1 -1 $470 $-1 $273 -1026895378 #
ellipse-curve $-1 -1 $-1 -102.37414388926666 406.2305556781925 93.434520526635993 5.7644835385469117e-09 3.7905893521128092e-09 -1 -3.6317264954305859 -1.1518084312885861 -2.5301060374730554e-08 1 F 0.78539816339756907 F 2.3561944901923728 #
truecolor-adesk-attrib $-1 -1 $471 $-1 $274 -1026895378 #
cone-surface $-1 -1 $-1 -102.37414405032632 406.23055557228344 121.37452052663599 5.7644835385469117e-09 3.7905893521128092e-09 -1 -3.6317264954305859 -1.1518084312885861 -2.5301060374730554e-08 1 I I 0 1 3.8100000000000001 forward I I I I #
DXID-attrib $-1 -1 $-1 $278 $176 @18 ASM_EDGE_FROM_STEP @4 8225 #
truecolor-adesk-attrib $-1 -1 $472 $-1 $281 -1026895378 #
vertex $-1 -1 $-1 $454 $473 #
ellipse-curve $-1 -1 $-1 -102.37414388926666 406.2305556781925 93.434520526635993 0.88778739756583203 -0.46025377426294645 3.3730027830067844e-09 1.7535668799418258 3.3824699847258199 2.2929962121108594e-08 1 F -1.5707963267948966 F 0 #
truecolor-adesk-attrib $-1 -1 $474 $-1 $282 -1026895378 #
torus-surface $-1 -1 $-1 -105.88127764914987 399.46561570874098 93.434520480776058 -5.7644835385469117e-09 -3.7905893521128092e-09 1 7.6200000000000001 3.8100000000000001 0.95320905391878896 0.30231192422272601 6.6406982610841345e-09 forward_v I I I I #
truecolor-adesk-attrib $-1 -1 $475 $-1 $286 -1026895378 #
vertex $-1 -1 $-1 $346 $476 #
ellipse-curve $-1 -1 $-1 -102.37414402836365 406.23055558672559 117.56452052663599 0.88778739756583136 -0.46025377426294778 3.373002139104028e-09 1.7535668799418314 3.3824699847258173 2.2929962121108614e-08 1 F -6.9026263867088567e-31 F 1.570796326794897 #
truecolor-adesk-attrib $-1 -1 $477 $-1 $287 -1026895378 #
torus-surface $-1 -1 $-1 -105.88127778824685 399.46561561727407 117.56452048077605 -5.7644835385469117e-09 -3.7905893521128092e-09 1 7.6200000000000001 3.8100000000000001 0.95320905391878896 0.30231192422272601 6.6406982610841345e-09 forward_v I I I I #
edge $478 -1 $-1 $406 -0.03175 $403 0 $353 $479 reversed @7 unknown #
truecolor-adesk-attrib $-1 -1 $480 $-1 $292 -1026895378 #
vertex $-1 -1 $-1 $401 $481 #
ellipse-curve $-1 -1 $-1 -305.35983304950548 326.87425110509594 121.37451905572117 -5.7644835385469117e-09 -3.7905893521128092e-09 1 3.6317264954305859 1.1518084312885861 2.5301060374730554e-08 1 F 1.5707963267948966 F 2.8017557441356709 #
truecolor-adesk-attrib $-1 -1 $482 $-1 $294 -1026895378 #
vertex $-1 -1 $-1 $356 $483 #
ellipse-curve $-1 -1 $-1 -305.35983286648309 326.87425122544715 89.624519055721166 -5.7644835385469117e-09 -3.7905893521128092e-09 1 3.6317264954305859 1.1518084312885861 2.5301060374730554e-08 1 F 1.5707963267948966 F 2.8017557441356713 #
DXID-attrib $-1 -1 $-1 $295 $190 @18 ASM_EDGE_FROM_STEP @4 8253 #
point $-1 -1 $-1 -309.16779358669106 326.99889132073469 89.624519034242695 #
DXID-attrib $-1 -1 $-1 $298 $191 @18 ASM_FACE_FROM_STEP @17 LaptopStand-12227 #
coedge $-1 -1 $-1 $443 $300 $368 $459 forward $246 $-1 #
DXID-attrib $-1 -1 $-1 $301 $195 @18 ASM_EDGE_FROM_STEP @4 8241 #
coedge $-1 -1 $-1 $309 $317 $306 $414 reversed $325 $-1 #
edge $484 -1 $-1 $312 0 $320 0.019050000000000001 $413 $485 forward @7 unknown #
truecolor-adesk-attrib $-1 -1 $486 $-1 $307 -1026895378 #
face $487 -1 $-1 $-1 $488 $3 $-1 $489 reversed single #
cone-surface $-1 -1 $-1 -290.52855597145054 303.65040972678219 95.974519053183769 -5.7644835385469117e-09 -3.7905893521128092e-09 1 23.016251914679412 7.2996446856185084 1.6034676070073067e-07 1 I I 0 1 24.146069343399603 forward I I I I #
truecolor-adesk-attrib $-1 -1 $490 $-1 $310 -1026895378 #
ellipse-curve $-1 -1 $-1 -269.60280529410943 327.5559230951593 95.974519264425894 5.7644835385469117e-09 3.7905893521128092e-09 -1 -7.2676154352659736 -2.3049369891247671 -5.0631119149347453e-08 1 F -2.5969430682929455 F -0.54464958529684782 #
DXID-attrib $-1 -1 $-1 $311 $207 @18 ASM_EDGE_FROM_STEP @4 8260 #
point $-1 -1 $-1 -274.6246311679256 321.81900462512488 95.974519213731355 #
coedge $-1 -1 $-1 $422 $422 $314 $423 forward $488 $-1 #
edge $491 -1 $-1 $492 0 $492 6.2831853071795862 $314 $493 forward @7 unknown #
DXID-attrib $-1 -1 $-1 $315 $209 @18 ASM_FACE_FROM_STEP @17 LaptopStand-12228 #
truecolor-adesk-attrib $-1 -1 $494 $-1 $318 -1026895378 #
ellipse-curve $-1 -1 $-1 -269.60280540392284 327.55592302294855 115.02451926442589 5.7644835385469117e-09 3.7905893521128092e-09 -1 -7.2676154352659736 -2.3049369891247671 -5.0631119149347453e-08 1 F -2.5969430682929455 F -0.54464958529684782 #
DXID-attrib $-1 -1 $-1 $319 $213 @18 ASM_EDGE_FROM_STEP @4 8263 #
point $-1 -1 $-1 -274.62463127773901 321.81900455291412 115.02451921373137 #
coedge $-1 -1 $-1 $429 $429 $322 $430 reversed $495 $-1 #
edge $496 -1 $-1 $497 0 $497 6.2831853071795862 $322 $498 forward @7 unknown #
DXID-attrib $-1 -1 $-1 $323 $215 @18 ASM_FACE_FROM_STEP @17 LaptopStand-12229 #
DXID-attrib $-1 -1 $-1 $326 $219 @18 ASM_EDGE_FROM_STEP @4 8266 #
DXID-attrib $-1 -1 $-1 $333 $227 @18 ASM_FACE_FROM_STEP @17 LaptopStand-12231 #
DXID-attrib $-1 -1 $-1 $337 $230 @18 ASM_EDGE_FROM_STEP @4 8244 #
truecolor-adesk-attrib $-1 -1 $499 $-1 $339 -1026895378 #
ellipse-curve $-1 -1 $-1 -105.88127762718719 399.46561572318313 89.624520480776056 -5.7644835385469117e-09 -3.7905893521128092e-09 1 7.2634529908611718 2.3036168625771722 5.0602120749461108e-08 1 F -1.5707963267948966 F 0.78539816339749302 #
DXID-attrib $-1 -1 $-1 $343 $236 @18 ASM_FACE_FROM_STEP @17 LaptopStand-12223 #
truecolor-adesk-attrib $-1 -1 $500 $-1 $344 -1026895378 #
sphere-surface $-1 -1 $-1 -102.37414402836365 406.23055558672559 117.56452052663599 3.8100000000000001 0.95320905391878896 0.30231192422272601 6.6406982610841345e-09 -5.7644835385469117e-09 -3.7905893521128092e-09 1 forward_v I I I I #
truecolor-adesk-attrib $-1 -1 $501 $-1 $346 -1026895378 #
ellipse-curve $-1 -1 $-1 -105.88127781020953 399.46561560283192 121.37452048077607 -5.7644835385469117e-09 -3.7905893521128092e-09 1 7.2634529908611718 2.3036168625771722 5.0602120749461108e-08 1 F -1.5707963267948966 F 0.78539816339749302 #
DXID-attrib $-1 -1 $-1 $350 $245 @18 ASM_FACE_FROM_STEP @17 LaptopStand-12217 #
coedge $-1 -1 $-1 $352 $411 $357 $448 forward $246 $-1 #
coedge $-1 -1 $-1 $354 $353 $352 $445 reversed $157 $-1 #
edge $502 -1 $-1 $450 -0.21590000000000001 $403 -0.00381 $444 $503 forward @7 unknown #
truecolor-adesk-attrib $-1 -1 $504 $-1 $356 -1026895378 #
straight-curve $-1 -1 $-1 -310.14336779320229 329.35416928958915 89.624519037546904 -953.20905391878898 -302.31192422272602 -6.6406982610841342e-06 F -0.21590000000000001 F -0.00381 #
edge $505 -1 $-1 $370 -0.78539816339739665 $450 1.5707963267948966 $357 $506 forward @7 unknown #
truecolor-adesk-attrib $-1 -1 $507 $-1 $358 -1026895378 #
vertex $-1 -1 $-1 $358 $508 #
straight-curve $-1 -1 $-1 -104.34553323515809 394.62331360892449 121.37452047127366 5.7644835385469121e-06 3.7905893521128092e-06 -1000 F 0 F 0.03175 #
truecolor-adesk-attrib $-1 -1 $509 $-1 $359 -1026895378 #
straight-curve $-1 -1 $-1 -103.54318863695343 403.97557558246649 121.37452051134935 5.7644835385469121e-06 3.7905893521128092e-06 -1000 F 0 F 0.03175 #
edge $510 -1 $-1 $362 0.0050800000000002657 $392 0.00761999999999968 $360 $511 reversed @7 unknown #
DXID-attrib $-1 -1 $-1 $361 $252 @18 ASM_EDGE_FROM_STEP @4 8234 #
point $-1 -1 $-1 -103.54318845393107 403.97557570281771 89.624520511349345 #
point $-1 -1 $-1 -104.34553305213572 394.62331372927571 89.624520471273655 #
DXID-attrib $-1 -1 $-1 $366 $255 @18 ASM_EDGE_FROM_STEP @4 8231 #
edge $512 -1 $-1 $397 -0.0025399999999993995 $370 1.4915878357495915e-17 $411 $513 forward @7 unknown #
DXID-attrib $-1 -1 $-1 $369 $257 @18 ASM_EDGE_FROM_STEP @4 8233 #
point $-1 -1 $-1 -103.54318863695343 403.97557558246649 121.37452051134935 #
truecolor-adesk-attrib $-1 -1 $514 $-1 $376 -1026895378 #
ellipse-curve $-1 -1 $-1 -102.37414388926666 406.2305556781925 93.434520526635993 0.46025377426294284 0.88778739756583402 6.0183627614458126e-09 -3.3824699847258275 1.753566879941812 -1.2851140603255941e-08 1 F -1.5707963267948966 F 0 #
truecolor-adesk-attrib $-1 -1 $515 $-1 $377 -1026895378 #
face $516 -1 $-1 $282 $385 $3 $-1 $517 forward single #
cone-surface $-1 -1 $-1 -100.62057700932468 409.61302566291846 93.434520549565946 -0.46025377426294284 -0.88778739756583402 -6.0183627614458126e-09 3.3824699847258275 -1.753566879941812 1.2851140603255941e-08 1 I I 0 1 3.8100000000000001 forward I I I I #
truecolor-adesk-attrib $-1 -1 $518 $-1 $380 -1026895378 #
ellipse-curve $-1 -1 $-1 -102.37414402836365 406.23055558672559 117.56452052663599 0.46025377426294284 0.88778739756583402 6.0183614736403181e-09 -3.3824699847258275 1.753566879941812 -1.2851140603255941e-08 1 F 1.6304806347065819e-30 F 1.5707963267948959 #
DXID-attrib $-1 -1 $-1 $383 $271 @18 ASM_EDGE_FROM_STEP @4 8249 #
DXID-attrib $-1 -1 $-1 $386 $273 @18 ASM_EDGE_FROM_STEP @4 8248 #
DXID-attrib $-1 -1 $-1 $388 $274 @18 ASM_FACE_FROM_STEP @17 LaptopStand-12218 #
DXID-attrib $-1 -1 $-1 $391 $281 @18 ASM_EDGE_FROM_STEP @4 8251 #
point $-1 -1 $-1 -102.37414386730399 406.23055569263465 89.62452052663599 #
DXID-attrib $-1 -1 $-1 $394 $282 @18 ASM_FACE_FROM_STEP @17 LaptopStand-12221 #
DXID-attrib $-1 -1 $-1 $396 $286 @18 ASM_EDGE_FROM_STEP @4 8255 #
point $-1 -1 $-1 -102.37414405032632 406.23055557228344 121.37452052663599 #
DXID-attrib $-1 -1 $-1 $399 $287 @18 ASM_FACE_FROM_STEP @17 LaptopStand-12225 #
truecolor-adesk-attrib $-1 -1 $519 $-1 $401 -1026895378 #
straight-curve $-1 -1 $-1 -306.51164148079403 330.50597760052653 121.37451906284797 5.7644835385469121e-06 3.7905893521128092e-06 -1000 F 0 F 0.03175 #
DXID-attrib $-1 -1 $-1 $402 $292 @18 ASM_EDGE_FROM_STEP @4 8240 #
point $-1 -1 $-1 -306.51164148079403 330.50597760052653 121.37451906284797 #
DXID-attrib $-1 -1 $-1 $405 $294 @18 ASM_EDGE_FROM_STEP @4 8245 #
point $-1 -1 $-1 -306.51164129777169 330.50597772087775 89.624519062847966 #
truecolor-adesk-attrib $-1 -1 $520 $-1 $414 -1026895378 #
straight-curve $-1 -1 $-1 -274.6246311679256 321.81900462512488 95.974519213731355 -5.7644835385469121e-06 -3.7905893521128092e-06 1000 F 0 F 0.019050000000000001 #
DXID-attrib $-1 -1 $-1 $415 $307 @18 ASM_FACE_FROM_STEP @17 LaptopStand-12232 #
truecolor-adesk-attrib $-1 -1 $521 $-1 $416 -1026895378 #
loop $-1 -1 $-1 $495 $422 $416 #
cone-surface $-1 -1 $-1 -269.60280529410943 327.5559230951593 95.974519264425894 -5.7644835385469117e-09 -3.7905893521128092e-09 1 4.8423019939074479 1.5357445750514482 3.3734747166307408e-08 1 I I 0 1 5.0800000000000001 forward I I I I #
DXID-attrib $-1 -1 $-1 $418 $310 @18 ASM_EDGE_FROM_STEP @4 8259 #
truecolor-adesk-attrib $-1 -1 $522 $-1 $423 -1026895378 #
vertex $-1 -1 $-1 $423 $523 #
ellipse-curve $-1 -1 $-1 -269.60280529410943 327.5559230951593 95.974519264425894 5.7644835385469117e-09 3.7905893521128092e-09 -1 -4.8423019939074479 -1.5357445750514482 -3.3734747166307408e-08 1 I I #
DXID-attrib $-1 -1 $-1 $425 $318 @18 ASM_EDGE_FROM_STEP @4 8264 #
loop $-1 -1 $-1 $-1 $429 $416 #
truecolor-adesk-attrib $-1 -1 $524 $-1 $430 -1026895378 #
vertex $-1 -1 $-1 $430 $525 #
ellipse-curve $-1 -1 $-1 -269.60280540392284 327.55592302294855 115.02451926442589 5.7644835385469117e-09 3.7905893521128092e-09 -1 -4.8423019939074479 -1.5357445750514482 -3.3734747166307408e-08 1 I I #
DXID-attrib $-1 -1 $-1 $435 $339 @18 ASM_EDGE_FROM_STEP @4 8247 #
DXID-attrib $-1 -1 $-1 $438 $344 @18 ASM_FACE_FROM_STEP @17 LaptopStand-12224 #
DXID-attrib $-1 -1 $-1 $440 $346 @18 ASM_EDGE_FROM_STEP @4 8242 #
truecolor-adesk-attrib $-1 -1 $526 $-1 $445 -1026895378 #
straight-curve $-1 -1 $-1 -310.14336797622462 329.35416916923793 121.3745190375469 -953.20905391878898 -302.31192422272602 -6.6406982610841342e-06 F -0.21590000000000001 F -0.00381 #
DXID-attrib $-1 -1 $-1 $446 $356 @18 ASM_EDGE_FROM_STEP @4 8237 #
truecolor-adesk-attrib $-1 -1 $527 $-1 $448 -1026895378 #
ellipse-curve $-1 -1 $-1 -105.88127781020953 399.46561560283192 121.37452048077607 5.7644835385469117e-09 3.7905893521128092e-09 -1 4.8423019939074479 1.5357445750514482 3.3734747166307408e-08 1 F -0.78539816339739665 F 1.5707963267948966 #
DXID-attrib $-1 -1 $-1 $449 $358 @18 ASM_EDGE_FROM_STEP @4 8235 #
point $-1 -1 $-1 -104.34553323515809 394.62331360892449 121.37452047127366 #
DXID-attrib $-1 -1 $-1 $452 $359 @18 ASM_EDGE_FROM_STEP @4 8232 #
truecolor-adesk-attrib $-1 -1 $528 $-1 $454 -1026895378 #
straight-curve $-1 -1 $-1 -105.88127762718719 399.46561572318313 89.624520480776056 -460.25377426294273 -887.787397565834 -6.0183627614458118e-06 F -0.00761999999999968 F -0.0050800000000002657 #
truecolor-adesk-attrib $-1 -1 $529 $-1 $459 -1026895378 #
straight-curve $-1 -1 $-1 -103.54318863695343 403.97557558246649 121.37452051134935 -460.25377426294273 -887.787397565834 -6.0183627614458118e-06 F -0.0025399999999993995 F 1.4915878357495915e-17 #
DXID-attrib $-1 -1 $-1 $462 $376 @18 ASM_EDGE_FROM_STEP @4 8250 #
DXID-attrib $-1 -1 $-1 $464 $377 @18 ASM_FACE_FROM_STEP @17 LaptopStand-12219 #
truecolor-adesk-attrib $-1 -1 $530 $-1 $465 -1026895378 #
sphere-surface $-1 -1 $-1 -102.37414388926666 406.2305556781925 93.434520526635993 3.8100000000000001 0.95320905391878896 0.30231192422272601 6.6406982610841345e-09 -5.7644835385469117e-09 -3.7905893521128092e-09 1 forward_v I I I I #
DXID-attrib $-1 -1 $-1 $467 $380 @18 ASM_EDGE_FROM_STEP @4 8254 #
DXID-attrib $-1 -1 $-1 $478 $401 @18 ASM_EDGE_FROM_STEP @4 8238 #
DXID-attrib $-1 -1 $-1 $484 $414 @18 ASM_EDGE_FROM_STEP @4 8267 #
DXID-attrib $-1 -1 $-1 $487 $416 @18 ASM_FACE_FROM_STEP @17 LaptopStand-12233 #
DXID-attrib $-1 -1 $-1 $491 $423 @18 ASM_EDGE_FROM_STEP @4 8261 #
point $-1 -1 $-1 -274.44510728801686 326.02017852010783 95.974519230691143 #
DXID-attrib $-1 -1 $-1 $496 $430 @18 ASM_EDGE_FROM_STEP @4 8265 #
point $-1 -1 $-1 -274.44510739783027 326.02017844789714 115.02451923069115 #
DXID-attrib $-1 -1 $-1 $502 $445 @18 ASM_EDGE_FROM_STEP @4 8239 #
DXID-attrib $-1 -1 $-1 $505 $448 @18 ASM_EDGE_FROM_STEP @4 8236 #
DXID-attrib $-1 -1 $-1 $510 $454 @18 ASM_EDGE_FROM_STEP @4 8246 #
DXID-attrib $-1 -1 $-1 $512 $459 @18 ASM_EDGE_FROM_STEP @4 8243 #
DXID-attrib $-1 -1 $-1 $516 $465 @18 ASM_FACE_FROM_STEP @17 LaptopStand-12220 #
