700 78 1 0          
5 ZWCAD 12 ACIS 28.0 NT 24 Mon May 13 11:38:22 2024 
1 9.9999999999999995e-07 1e-10 
body $1 -1 $-1 $2 $-1 $-1 #
DXID-attrib $-1 -1 $-1 $-1 $0 @18 ASM_BODY_FROM_STEP @83 4C4E1D8F263B6921C32E8042C9E64E61C5FD5210|:|D30D052CE036D32E9AE0B7578FC5EEE3A2823C82 #
lump $-1 -1 $-1 $-1 $3 $0 #
shell $-1 -1 $-1 $-1 $-1 $4 $-1 $2 #
face $5 -1 $-1 $6 $7 $3 $-1 $8 forward single #
truecolor-adesk-attrib $-1 -1 $9 $-1 $4 -1029845012 #
face $10 -1 $-1 $11 $12 $3 $-1 $13 reversed single #
loop $-1 -1 $-1 $14 $15 $4 #
cone-surface $-1 -1 $-1 -68.834511150857949 223.84435353377148 146.16832463018801 -5.7644848710224597e-09 -3.7905895311123793e-09 1 0.92016035321863376 -6.2829773932718043 -1.8511937896108356e-08 1 I I 0 1 6.3500000000000005 forward I I I I #
DXID-attrib $-1 -1 $-1 $5 $4 @18 ASM_FACE_FROM_STEP @17 LaptopStand-12367 #
truecolor-adesk-attrib $-1 -1 $16 $-1 $6 -1029845012 #
face $17 -1 $-1 $18 $19 $3 $-1 $20 reversed single #
loop $-1 -1 $-1 $-1 $21 $6 #
plane-surface $-1 -1 $-1 -68.834511224066901 223.84435348563099 158.868324630188 5.7644848710224597e-09 3.7905895311123793e-09 -1 -144.90714223915492 989.44525878296133 2.9152658104107645e-06 forward_v I I I I #
loop $-1 -1 $-1 $-1 $22 $4 #
coedge $-1 -1 $-1 $15 $15 $23 $24 forward $7 $-1 #
DXID-attrib $-1 -1 $-1 $10 $6 @18 ASM_FACE_FROM_STEP @17 LaptopStand-12368 #
truecolor-adesk-attrib $-1 -1 $25 $-1 $11 -1029845012 #
face $26 -1 $-1 $27 $28 $3 $-1 $29 forward single #
loop $-1 -1 $-1 $30 $31 $11 #
cone-surface $-1 -1 $-1 -68.834511194783317 223.84435350488718 153.78832463018799 5.7644848710224597e-09 3.7905895311123793e-09 -1 -0.73612828257490714 5.0263819146174429 1.4809550316886683e-08 1 I I 0 1 5.0800000000000001 forward I I I I #
coedge $-1 -1 $-1 $21 $21 $32 $33 forward $12 $-1 #
coedge $-1 -1 $-1 $22 $22 $34 $35 forward $14 $-1 #
coedge $-1 -1 $-1 $23 $23 $15 $24 reversed $36 $-1 #
edge $37 -1 $-1 $38 -6.2831853071795862 $38 0 $15 $39 reversed @7 unknown #
DXID-attrib $-1 -1 $-1 $17 $11 @18 ASM_FACE_FROM_STEP @17 LaptopStand-12369 #
truecolor-adesk-attrib $-1 -1 $40 $-1 $18 -1029845012 #
face $41 -1 $-1 $42 $43 $3 $-1 $44 forward single #
loop $-1 -1 $-1 $-1 $45 $18 #
plane-surface $-1 -1 $-1 -68.834511194783317 223.84435350488718 153.78832463018799 5.7644848710224597e-09 3.7905895311123793e-09 -1 -144.90714223915492 989.44525878296133 2.9152658104107645e-06 forward_v I I I I #
loop $-1 -1 $-1 $-1 $46 $11 #
coedge $-1 -1 $-1 $31 $31 $47 $48 forward $19 $-1 #
coedge $-1 -1 $-1 $32 $32 $21 $33 reversed $43 $-1 #
edge $49 -1 $-1 $50 -6.2831853071795862 $50 0 $21 $51 reversed @7 unknown #
coedge $-1 -1 $-1 $34 $34 $22 $35 reversed $52 $-1 #
edge $53 -1 $-1 $54 0 $54 6.2831853071795862 $22 $55 forward @7 unknown #
loop $-1 -1 $-1 $56 $23 $42 #
truecolor-adesk-attrib $-1 -1 $57 $-1 $24 -1029845012 #
vertex $-1 -1 $-1 $24 $58 #
ellipse-curve $-1 -1 $-1 -68.834511154518395 223.84435353136445 146.803324630188 5.7644848710224597e-09 3.7905895311123793e-09 -1 -0.92016035321863376 6.2829773932718043 1.8511937896108356e-08 1 I I #
DXID-attrib $-1 -1 $-1 $26 $18 @18 ASM_FACE_FROM_STEP @17 LaptopStand-12370 #
truecolor-adesk-attrib $-1 -1 $59 $-1 $27 -1029845012 #
face $60 -1 $-1 $-1 $36 $3 $-1 $61 forward single #
loop $-1 -1 $-1 $52 $32 $27 #
torus-surface $-1 -1 $-1 -68.834511194783317 223.84435350488718 153.78832463018799 5.7644848710224597e-09 3.7905895311123793e-09 -1 1.27 5.0800000000000001 -0.14490714223915493 0.9894452587829613 2.9152658104107644e-09 forward_v I I I I #
coedge $-1 -1 $-1 $45 $45 $46 $62 forward $28 $-1 #
coedge $-1 -1 $-1 $46 $46 $45 $62 reversed $30 $-1 #
coedge $-1 -1 $-1 $47 $47 $31 $48 reversed $56 $-1 #
edge $63 -1 $-1 $64 0 $64 6.2831853071795862 $31 $65 forward @7 unknown #
truecolor-adesk-attrib $-1 -1 $66 $-1 $33 -1029845012 #
vertex $-1 -1 $-1 $33 $67 #
ellipse-curve $-1 -1 $-1 -68.834511224066901 223.84435348563099 158.868324630188 5.7644848710224597e-09 3.7905895311123793e-09 -1 -0.18403207064372679 1.2565954786543607 3.7023875792216707e-09 1 I I #
loop $-1 -1 $-1 $-1 $34 $27 #
truecolor-adesk-attrib $-1 -1 $68 $-1 $35 -1029845012 #
vertex $-1 -1 $-1 $35 $69 #
ellipse-curve $-1 -1 $-1 -68.834511194783317 223.84435350488718 153.78832463018799 5.7644848710224597e-09 3.7905895311123793e-09 -1 -0.92016035321863376 6.2829773932718043 1.8511937896108356e-08 1 I I #
loop $-1 -1 $-1 $-1 $47 $42 #
DXID-attrib $-1 -1 $-1 $37 $24 @18 ASM_EDGE_FROM_STEP @4 8580 #
point $-1 -1 $-1 -69.754671507737029 230.12733092463625 146.80332464869994 #
DXID-attrib $-1 -1 $-1 $41 $27 @18 ASM_FACE_FROM_STEP @17 LaptopStand-12371 #
truecolor-adesk-attrib $-1 -1 $70 $-1 $42 -1029845012 #
torus-surface $-1 -1 $-1 -68.834511154518395 223.84435353136445 146.803324630188 5.7644848710224597e-09 3.7905895311123793e-09 -1 5.7150000000000007 0.63500000000000001 -0.14490714223915493 0.9894452587829613 2.9152658104107644e-09 forward_v I I I I #
edge $71 -1 $-1 $72 0 $72 6.2831853071795862 $46 $73 forward @7 unknown #
truecolor-adesk-attrib $-1 -1 $74 $-1 $48 -1029845012 #
vertex $-1 -1 $-1 $48 $75 #
ellipse-curve $-1 -1 $-1 -68.834511154518395 223.84435353136445 146.803324630188 5.7644848710224597e-09 3.7905895311123793e-09 -1 -0.73612828257490714 5.0263819146174429 1.4809550316886683e-08 1 I I #
DXID-attrib $-1 -1 $-1 $49 $33 @18 ASM_EDGE_FROM_STEP @4 8582 #
point $-1 -1 $-1 -69.018543294710625 225.10094896428535 158.86832463389038 #
DXID-attrib $-1 -1 $-1 $53 $35 @18 ASM_EDGE_FROM_STEP @4 8581 #
point $-1 -1 $-1 -69.754671548001951 230.12733089815899 153.78832464869993 #
DXID-attrib $-1 -1 $-1 $60 $42 @18 ASM_FACE_FROM_STEP @17 LaptopStand-12372 #
truecolor-adesk-attrib $-1 -1 $76 $-1 $62 -1029845012 #
vertex $-1 -1 $-1 $62 $77 #
ellipse-curve $-1 -1 $-1 -68.834511194783317 223.84435350488718 153.78832463018799 5.7644848710224597e-09 3.7905895311123793e-09 -1 -0.73612828257490714 5.0263819146174429 1.4809550316886683e-08 1 I I #
DXID-attrib $-1 -1 $-1 $63 $48 @18 ASM_EDGE_FROM_STEP @4 8583 #
point $-1 -1 $-1 -69.570639437093291 228.87073544598189 146.80332464499756 #
DXID-attrib $-1 -1 $-1 $71 $62 @18 ASM_EDGE_FROM_STEP @4 8584 #
point $-1 -1 $-1 -69.570639477358228 228.87073541950463 153.78832464499754 #
