700 485 1 0         
16 Autodesk AutoCAD 20 ASM 229.2.0.65535 NT 24 Wed Mar  6 02:13:07 2024 
1 9.999999999999999547e-07 1.000000000000000036e-10 
body $1 -1 $-1 $2 $-1 $3 #
DXID-attrib $-1 -1 $-1 $-1 $0 @18 ASM_BODY_FROM_STEP @83 1659DD7EE175091A0D7F4AD1782726F6FCC3ABDB|:|CBE1C5916EAB30E44C5B921B6ADFD7864AF74C0D #
lump $-1 -1 $-1 $-1 $4 $0 #
transform $-1 -1 1 0 0 0 1 0 0 0 1 0 0 0 1 no_rotate no_reflect no_shear #
shell $-1 -1 $-1 $-1 $-1 $5 $-1 $2 #
face $6 -1 $-1 $7 $8 $4 $-1 $9 reversed single #
truecolor-adesk-attrib $-1 -1 $10 $-1 $5 -1026895378 #
face $11 -1 $-1 $12 $13 $4 $-1 $14 reversed single #
loop $-1 -1 $-1 $-1 $15 $5 #
cone-surface $-1 -1 $-1 -236.9642862433156552 -35 72.82152891474638068 0 1 0 0 0 2.999999999999988898 1 I I 0 1 2.999999999999988898 forward I I I I #
color-adesk-attrib $-1 -1 $16 $6 $5 254 #
truecolor-adesk-attrib $-1 -1 $17 $-1 $7 -1026895378 #
face $18 -1 $-1 $19 $20 $4 $-1 $21 reversed single #
loop $-1 -1 $-1 $-1 $22 $7 #
cone-surface $-1 -1 $-1 103.0357137566842738 -35 72.82152891474638068 0 1 0 0 0 2.999999999999988898 1 I I 0 1 2.999999999999988898 forward I I I I #
coedge $-1 -1 $-1 $23 $24 $25 $26 forward $8 $-1 #
DXID-attrib $-1 -1 $-1 $10 $5 @18 ASM_FACE_FROM_STEP @8 Line-169 #
color-adesk-attrib $-1 -1 $27 $11 $7 254 #
truecolor-adesk-attrib $-1 -1 $28 $-1 $12 -1026895378 #
face $29 -1 $-1 $30 $31 $4 $-1 $32 reversed single #
loop $-1 -1 $-1 $-1 $33 $12 #
cone-surface $-1 -1 $-1 103.0357137566842738 -35 -67.1784710852535909 0 1 0 0 0 2.999999999999988898 1 I I 0 1 2.999999999999988898 forward I I I I #
coedge $-1 -1 $-1 $34 $35 $36 $37 forward $13 $-1 #
coedge $-1 -1 $-1 $38 $15 $39 $40 forward $8 $-1 #
coedge $-1 -1 $-1 $15 $38 $41 $42 reversed $8 $-1 #
coedge $-1 -1 $-1 $43 $43 $15 $26 reversed $44 $-1 #
edge $45 -1 $-1 $46 -3.141592653589793116 $47 0 $15 $48 forward @7 unknown #
DXID-attrib $-1 -1 $-1 $17 $7 @18 ASM_FACE_FROM_STEP @7 Line-24 #
color-adesk-attrib $-1 -1 $49 $18 $12 254 #
truecolor-adesk-attrib $-1 -1 $50 $-1 $19 -1026895378 #
face $51 -1 $-1 $52 $53 $4 $-1 $54 reversed single #
loop $-1 -1 $-1 $-1 $55 $19 #
cone-surface $-1 -1 $-1 -236.9642862433156552 -35 -67.1784710852535909 0 1 0 0 0 2.999999999999988898 1 I I 0 1 2.999999999999988898 forward I I I I #
coedge $-1 -1 $-1 $56 $57 $58 $59 forward $20 $-1 #
coedge $-1 -1 $-1 $60 $22 $61 $62 forward $13 $-1 #
coedge $-1 -1 $-1 $22 $60 $63 $64 reversed $13 $-1 #
coedge $-1 -1 $-1 $65 $65 $22 $37 reversed $66 $-1 #
edge $67 -1 $-1 $68 -3.141592653589793116 $69 0 $22 $70 forward @7 unknown #
coedge $-1 -1 $-1 $24 $23 $71 $72 forward $8 $-1 #
coedge $-1 -1 $-1 $73 $74 $23 $40 reversed $75 $-1 #
edge $76 -1 $-1 $47 0.03500000000000000333 $77 0.04000000000000000083 $23 $78 forward @2 g2 #
coedge $-1 -1 $-1 $74 $73 $24 $42 forward $75 $-1 #
edge $79 -1 $-1 $46 0.03500000000000000333 $80 0.04000000000000000083 $24 $81 forward @2 g2 #
coedge $-1 -1 $-1 $25 $25 $73 $82 reversed $44 $-1 #
loop $-1 -1 $-1 $66 $25 $83 #
truecolor-adesk-attrib $-1 -1 $84 $-1 $26 -1026895378 #
vertex $-1 -1 $-1 $26 $85 #
vertex $-1 -1 $-1 $26 $86 #
ellipse-curve $-1 -1 $-1 -236.9642862433156552 0 72.82152891474638068 0 -1 0 0 0 -2.999999999999988898 1 F -3.141592653589793116 F 0 #
DXID-attrib $-1 -1 $-1 $28 $12 @18 ASM_FACE_FROM_STEP @8 Line-309 #
color-adesk-attrib $-1 -1 $87 $29 $19 254 #
truecolor-adesk-attrib $-1 -1 $88 $-1 $30 -1026895378 #
face $89 -1 $-1 $90 $91 $4 $-1 $92 reversed single #
loop $-1 -1 $-1 $-1 $93 $30 #
plane-surface $-1 -1 $-1 133.0357137566842596 5 102.8215289147463807 -1 0 0 0 0 1 forward_v I I I I #
coedge $-1 -1 $-1 $94 $95 $96 $97 forward $31 $-1 #
coedge $-1 -1 $-1 $98 $33 $99 $100 forward $20 $-1 #
coedge $-1 -1 $-1 $33 $98 $101 $102 reversed $20 $-1 #
coedge $-1 -1 $-1 $103 $103 $33 $59 reversed $104 $-1 #
edge $105 -1 $-1 $106 -3.141592653589793116 $107 0 $33 $108 forward @7 unknown #
coedge $-1 -1 $-1 $35 $34 $109 $110 forward $13 $-1 #
coedge $-1 -1 $-1 $111 $112 $34 $62 reversed $113 $-1 #
edge $114 -1 $-1 $69 0.03500000000000000333 $115 0.04000000000000000083 $34 $116 forward @2 g2 #
coedge $-1 -1 $-1 $112 $111 $35 $64 forward $113 $-1 #
edge $117 -1 $-1 $68 0.03500000000000000333 $118 0.04000000000000000083 $35 $119 forward @2 g2 #
coedge $-1 -1 $-1 $36 $36 $111 $120 reversed $66 $-1 #
loop $-1 -1 $-1 $104 $36 $83 #
truecolor-adesk-attrib $-1 -1 $121 $-1 $37 -1026895378 #
vertex $-1 -1 $-1 $37 $122 #
vertex $-1 -1 $-1 $37 $123 #
ellipse-curve $-1 -1 $-1 103.0357137566842738 0 72.82152891474638068 0 -1 0 0 0 -2.999999999999988898 1 F -3.141592653589793116 F 0 #
coedge $-1 -1 $-1 $124 $124 $38 $72 reversed $125 $-1 #
edge $126 -1 $-1 $77 -3.141592653589793116 $80 0 $38 $127 forward @7 unknown #
coedge $-1 -1 $-1 $41 $39 $43 $82 forward $75 $-1 #
coedge $-1 -1 $-1 $39 $41 $124 $128 forward $75 $-1 #
loop $-1 -1 $-1 $-1 $39 $129 #
truecolor-adesk-attrib $-1 -1 $130 $-1 $40 -1026895378 #
vertex $-1 -1 $-1 $40 $131 #
straight-curve $-1 -1 $-1 -236.9642862433156552 -35 69.82152891474639489 0 1000 0 F 0.03500000000000000333 F 0.04000000000000000083 #
truecolor-adesk-attrib $-1 -1 $132 $-1 $42 -1026895378 #
vertex $-1 -1 $-1 $72 $133 #
straight-curve $-1 -1 $-1 -236.9642862433156552 -35 75.82152891474638068 0 1000 0 F 0.03500000000000000333 F 0.04000000000000000083 #
edge $134 -1 $-1 $47 0 $46 3.141592653589793116 $43 $135 forward @7 unknown #
face $136 -1 $-1 $137 $138 $4 $-1 $139 forward single #
color-adesk-attrib $-1 -1 $140 $45 $26 254 #
point $-1 -1 $-1 -236.9642862433156552 0 75.82152891474638068 #
point $-1 -1 $-1 -236.9642862433156552 0 69.82152891474639489 #
DXID-attrib $-1 -1 $-1 $50 $19 @18 ASM_FACE_FROM_STEP @8 Line-180 #
color-adesk-attrib $-1 -1 $141 $51 $30 254 #
truecolor-adesk-attrib $-1 -1 $142 $-1 $52 -1026895378 #
face $143 -1 $-1 $144 $145 $4 $-1 $146 reversed single #
loop $-1 -1 $-1 $-1 $147 $52 #
plane-surface $-1 -1 $-1 -266.9642862433156552 5 -97.1784710852535909 0 0 1 1 0 0 forward_v I I I I #
coedge $-1 -1 $-1 $148 $149 $150 $151 forward $53 $-1 #
coedge $-1 -1 $-1 $152 $55 $153 $154 forward $31 $-1 #
coedge $-1 -1 $-1 $55 $152 $155 $156 reversed $31 $-1 #
coedge $-1 -1 $-1 $157 $157 $55 $97 reversed $158 $-1 #
edge $159 -1 $-1 $160 -3.141592653589793116 $161 0 $55 $162 forward @7 unknown #
coedge $-1 -1 $-1 $57 $56 $163 $164 forward $20 $-1 #
coedge $-1 -1 $-1 $165 $166 $56 $100 reversed $167 $-1 #
edge $168 -1 $-1 $107 0.03500000000000000333 $169 0.04000000000000000083 $56 $170 forward @2 g2 #
coedge $-1 -1 $-1 $166 $165 $57 $102 forward $167 $-1 #
edge $171 -1 $-1 $106 0.03500000000000000333 $172 0.04000000000000000083 $57 $173 forward @2 g2 #
coedge $-1 -1 $-1 $58 $58 $165 $174 reversed $104 $-1 #
loop $-1 -1 $-1 $158 $58 $83 #
truecolor-adesk-attrib $-1 -1 $175 $-1 $59 -1026895378 #
vertex $-1 -1 $-1 $59 $176 #
vertex $-1 -1 $-1 $59 $177 #
ellipse-curve $-1 -1 $-1 103.0357137566842738 0 -67.1784710852535909 0 -1 0 0 0 -2.999999999999988898 1 F -3.141592653589793116 F 0 #
coedge $-1 -1 $-1 $178 $178 $60 $110 reversed $179 $-1 #
edge $180 -1 $-1 $115 -3.141592653589793116 $118 0 $60 $181 forward @7 unknown #
coedge $-1 -1 $-1 $63 $61 $65 $120 forward $113 $-1 #
coedge $-1 -1 $-1 $61 $63 $178 $182 forward $113 $-1 #
loop $-1 -1 $-1 $-1 $61 $183 #
truecolor-adesk-attrib $-1 -1 $184 $-1 $62 -1026895378 #
vertex $-1 -1 $-1 $62 $185 #
straight-curve $-1 -1 $-1 103.0357137566842738 -35 69.82152891474639489 0 1000 0 F 0.03500000000000000333 F 0.04000000000000000083 #
truecolor-adesk-attrib $-1 -1 $186 $-1 $64 -1026895378 #
vertex $-1 -1 $-1 $110 $187 #
straight-curve $-1 -1 $-1 103.0357137566842738 -35 75.82152891474638068 0 1000 0 F 0.03500000000000000333 F 0.04000000000000000083 #
edge $188 -1 $-1 $69 0 $68 3.141592653589793116 $65 $189 forward @7 unknown #
color-adesk-attrib $-1 -1 $190 $67 $37 254 #
point $-1 -1 $-1 103.0357137566842738 0 75.82152891474638068 #
point $-1 -1 $-1 103.0357137566842738 0 69.82152891474639489 #
coedge $-1 -1 $-1 $71 $71 $74 $128 reversed $125 $-1 #
loop $-1 -1 $-1 $179 $124 $191 #
truecolor-adesk-attrib $-1 -1 $192 $-1 $72 -1026895378 #
ellipse-curve $-1 -1 $-1 -236.9642862433156552 5 72.82152891474638068 0 1 0 0 0 2.999999999999988898 1 F -3.141592653589793116 F 0 #
edge $193 -1 $-1 $80 0 $77 3.141592653589793116 $124 $194 forward @7 unknown #
face $195 -1 $-1 $196 $75 $4 $-1 $197 reversed single #
color-adesk-attrib $-1 -1 $198 $76 $40 254 #
point $-1 -1 $-1 -236.9642862433156552 5 69.82152891474639489 #
color-adesk-attrib $-1 -1 $199 $79 $42 254 #
point $-1 -1 $-1 -236.9642862433156552 5 75.82152891474638068 #
truecolor-adesk-attrib $-1 -1 $200 $-1 $82 -1026895378 #
ellipse-curve $-1 -1 $-1 -236.9642862433156552 0 72.82152891474638068 0 -1 0 0 0 -2.999999999999988898 1 F 0 F 3.141592653589793116 #
truecolor-adesk-attrib $-1 -1 $201 $-1 $83 -1026895378 #
face $202 -1 $-1 $203 $204 $4 $-1 $205 reversed single #
loop $-1 -1 $-1 $44 $206 $83 #
plane-surface $-1 -1 $-1 0 0 0 0 -1 0 0 0 -1 forward_v I I I I #
DXID-attrib $-1 -1 $-1 $84 $26 @18 ASM_EDGE_FROM_STEP @3 437 #
DXID-attrib $-1 -1 $-1 $88 $30 @18 ASM_FACE_FROM_STEP @8 Line-166 #
color-adesk-attrib $-1 -1 $207 $89 $52 254 #
truecolor-adesk-attrib $-1 -1 $208 $-1 $90 -1026895378 #
face $209 -1 $-1 $191 $210 $4 $-1 $211 reversed single #
loop $-1 -1 $-1 $-1 $212 $90 #
plane-surface $-1 -1 $-1 -266.9642862433156552 5 102.8215289147463807 1 0 0 0 0 -1 forward_v I I I I #
coedge $-1 -1 $-1 $213 $214 $215 $216 forward $91 $-1 #
coedge $-1 -1 $-1 $215 $93 $217 $218 forward $53 $-1 #
coedge $-1 -1 $-1 $93 $215 $219 $220 reversed $53 $-1 #
coedge $-1 -1 $-1 $221 $222 $93 $151 reversed $210 $-1 #
edge $223 -1 $-1 $224 -0 $225 0.003000000000000000062 $93 $226 forward @7 unknown #
coedge $-1 -1 $-1 $95 $94 $227 $228 forward $31 $-1 #
coedge $-1 -1 $-1 $229 $230 $94 $154 reversed $204 $-1 #
edge $231 -1 $-1 $161 0.03500000000000000333 $232 0.04000000000000000083 $94 $233 forward @2 g2 #
coedge $-1 -1 $-1 $230 $229 $95 $156 forward $204 $-1 #
edge $234 -1 $-1 $160 0.03500000000000000333 $235 0.04000000000000000083 $95 $236 forward @2 g2 #
coedge $-1 -1 $-1 $96 $96 $229 $237 reversed $158 $-1 #
loop $-1 -1 $-1 $-1 $96 $83 #
truecolor-adesk-attrib $-1 -1 $238 $-1 $97 -1026895378 #
vertex $-1 -1 $-1 $97 $239 #
vertex $-1 -1 $-1 $97 $240 #
ellipse-curve $-1 -1 $-1 -236.9642862433156552 0 -67.1784710852535909 0 -1 0 0 0 -2.999999999999988898 1 F -3.141592653589793116 F 0 #
coedge $-1 -1 $-1 $241 $241 $98 $164 reversed $242 $-1 #
edge $243 -1 $-1 $169 -3.141592653589793116 $172 0 $98 $244 forward @7 unknown #
coedge $-1 -1 $-1 $101 $99 $103 $174 forward $167 $-1 #
coedge $-1 -1 $-1 $99 $101 $241 $245 forward $167 $-1 #
loop $-1 -1 $-1 $-1 $99 $203 #
truecolor-adesk-attrib $-1 -1 $246 $-1 $100 -1026895378 #
vertex $-1 -1 $-1 $100 $247 #
straight-curve $-1 -1 $-1 103.0357137566842738 -35 -70.17847108525356248 0 1000 0 F 0.03500000000000000333 F 0.04000000000000000083 #
truecolor-adesk-attrib $-1 -1 $248 $-1 $102 -1026895378 #
vertex $-1 -1 $-1 $164 $249 #
straight-curve $-1 -1 $-1 103.0357137566842738 -35 -64.17847108525357669 0 1000 0 F 0.03500000000000000333 F 0.04000000000000000083 #
edge $250 -1 $-1 $107 0 $106 3.141592653589793116 $103 $251 forward @7 unknown #
color-adesk-attrib $-1 -1 $252 $105 $59 254 #
point $-1 -1 $-1 103.0357137566842738 0 -64.17847108525357669 #
point $-1 -1 $-1 103.0357137566842738 0 -70.17847108525356248 #
coedge $-1 -1 $-1 $109 $109 $112 $182 reversed $179 $-1 #
loop $-1 -1 $-1 $242 $178 $191 #
truecolor-adesk-attrib $-1 -1 $253 $-1 $110 -1026895378 #
ellipse-curve $-1 -1 $-1 103.0357137566842738 5 72.82152891474638068 0 1 0 0 0 2.999999999999988898 1 F -3.141592653589793116 F 0 #
edge $254 -1 $-1 $118 0 $115 3.141592653589793116 $178 $255 forward @7 unknown #
face $256 -1 $-1 $129 $113 $4 $-1 $257 reversed single #
color-adesk-attrib $-1 -1 $258 $114 $62 254 #
point $-1 -1 $-1 103.0357137566842738 5 69.82152891474639489 #
color-adesk-attrib $-1 -1 $259 $117 $64 254 #
point $-1 -1 $-1 103.0357137566842738 5 75.82152891474638068 #
truecolor-adesk-attrib $-1 -1 $260 $-1 $120 -1026895378 #
ellipse-curve $-1 -1 $-1 103.0357137566842738 0 72.82152891474638068 0 -1 0 0 0 -2.999999999999988898 1 F 0 F 3.141592653589793116 #
DXID-attrib $-1 -1 $-1 $121 $37 @18 ASM_EDGE_FROM_STEP @3 119 #
face $261 -1 $-1 $83 $262 $4 $-1 $263 reversed single #
color-adesk-attrib $-1 -1 $264 $126 $72 254 #
truecolor-adesk-attrib $-1 -1 $265 $-1 $128 -1026895378 #
ellipse-curve $-1 -1 $-1 -236.9642862433156552 5 72.82152891474638068 0 1 0 0 0 2.999999999999988898 1 F 0 F 3.141592653589793116 #
truecolor-adesk-attrib $-1 -1 $266 $-1 $129 -1026895378 #
face $267 -1 $-1 $268 $269 $4 $-1 $270 forward single #
cone-surface $-1 -1 $-1 -236.9642862433156552 -35 72.82152891474638068 0 1 0 0 0 2.999999999999988898 1 I I 0 1 2.999999999999988898 forward I I I I #
DXID-attrib $-1 -1 $-1 $130 $40 @18 ASM_EDGE_FROM_STEP @3 236 #
DXID-attrib $-1 -1 $-1 $132 $42 @18 ASM_EDGE_FROM_STEP @3 453 #
color-adesk-attrib $-1 -1 $271 $134 $82 254 #
color-adesk-attrib $-1 -1 $272 $136 $83 254 #
truecolor-adesk-attrib $-1 -1 $273 $-1 $137 -1026895378 #
face $274 -1 $-1 $183 $167 $4 $-1 $275 reversed single #
loop $-1 -1 $-1 $-1 $153 $137 #
cone-surface $-1 -1 $-1 -236.9642862433156552 -35 -67.1784710852535909 0 1 0 0 0 2.999999999999988898 1 I I 0 1 2.999999999999988898 forward I I I I #
coedge $-1 -1 $-1 $276 $277 $278 $279 forward $138 $-1 #
DXID-attrib $-1 -1 $-1 $142 $52 @18 ASM_FACE_FROM_STEP @7 Line-78 #
color-adesk-attrib $-1 -1 $280 $143 $90 254 #
truecolor-adesk-attrib $-1 -1 $281 $-1 $144 -1026895378 #
loop $-1 -1 $-1 $-1 $282 $144 #
plane-surface $-1 -1 $-1 -266.9642862433156552 5 102.8215289147463807 0 0 -1 -1 0 0 forward_v I I I I #
coedge $-1 -1 $-1 $283 $284 $285 $286 forward $145 $-1 #
coedge $-1 -1 $-1 $285 $147 $287 $288 forward $91 $-1 #
coedge $-1 -1 $-1 $147 $285 $289 $290 reversed $91 $-1 #
coedge $-1 -1 $-1 $149 $148 $147 $216 reversed $53 $-1 #
edge $291 -1 $-1 $292 -0 $293 0.003000000000000000062 $215 $294 forward @7 unknown #
coedge $-1 -1 $-1 $295 $296 $148 $218 reversed $269 $-1 #
edge $297 -1 $-1 $225 -0.1999999999999999556 $293 0 $148 $298 forward @14 tangent_not_g2 #
coedge $-1 -1 $-1 $289 $299 $149 $220 forward $262 $-1 #
edge $300 -1 $-1 $224 0 $292 0.1999999999999999556 $149 $301 forward @7 unknown #
coedge $-1 -1 $-1 $282 $150 $299 $302 reversed $210 $-1 #
coedge $-1 -1 $-1 $150 $282 $303 $304 forward $210 $-1 #
truecolor-adesk-attrib $-1 -1 $305 $-1 $151 -1026895378 #
vertex $-1 -1 $-1 $151 $306 #
vertex $-1 -1 $-1 $151 $307 #
straight-curve $-1 -1 $-1 133.0357137566842596 5 102.8215289147463807 -0 -1000 -0 F -0 F 0.003000000000000000062 #
coedge $-1 -1 $-1 $308 $308 $152 $228 reversed $309 $-1 #
edge $310 -1 $-1 $232 -3.141592653589793116 $235 0 $152 $311 forward @7 unknown #
coedge $-1 -1 $-1 $155 $153 $157 $237 forward $204 $-1 #
coedge $-1 -1 $-1 $153 $155 $308 $312 forward $204 $-1 #
truecolor-adesk-attrib $-1 -1 $313 $-1 $154 -1026895378 #
vertex $-1 -1 $-1 $154 $314 #
straight-curve $-1 -1 $-1 -236.9642862433156552 -35 -70.17847108525356248 0 1000 0 F 0.03500000000000000333 F 0.04000000000000000083 #
truecolor-adesk-attrib $-1 -1 $315 $-1 $156 -1026895378 #
vertex $-1 -1 $-1 $228 $316 #
straight-curve $-1 -1 $-1 -236.9642862433156552 -35 -64.17847108525357669 0 1000 0 F 0.03500000000000000333 F 0.04000000000000000083 #
edge $317 -1 $-1 $161 0 $160 3.141592653589793116 $157 $318 forward @7 unknown #
color-adesk-attrib $-1 -1 $319 $159 $97 254 #
point $-1 -1 $-1 -236.9642862433156552 0 -64.17847108525357669 #
point $-1 -1 $-1 -236.9642862433156552 0 -70.17847108525356248 #
coedge $-1 -1 $-1 $163 $163 $166 $245 reversed $242 $-1 #
loop $-1 -1 $-1 $309 $241 $191 #
truecolor-adesk-attrib $-1 -1 $320 $-1 $164 -1026895378 #
ellipse-curve $-1 -1 $-1 103.0357137566842738 5 -67.1784710852535909 0 1 0 0 0 2.999999999999988898 1 F -3.141592653589793116 F 0 #
edge $321 -1 $-1 $172 0 $169 3.141592653589793116 $241 $322 forward @7 unknown #
color-adesk-attrib $-1 -1 $323 $168 $100 254 #
point $-1 -1 $-1 103.0357137566842738 5 -70.17847108525356248 #
color-adesk-attrib $-1 -1 $324 $171 $102 254 #
point $-1 -1 $-1 103.0357137566842738 5 -64.17847108525357669 #
truecolor-adesk-attrib $-1 -1 $325 $-1 $174 -1026895378 #
ellipse-curve $-1 -1 $-1 103.0357137566842738 0 -67.1784710852535909 0 -1 0 0 0 -2.999999999999988898 1 F 0 F 3.141592653589793116 #
DXID-attrib $-1 -1 $-1 $175 $59 @18 ASM_EDGE_FROM_STEP @3 268 #
color-adesk-attrib $-1 -1 $326 $180 $110 254 #
truecolor-adesk-attrib $-1 -1 $327 $-1 $182 -1026895378 #
ellipse-curve $-1 -1 $-1 103.0357137566842738 5 72.82152891474638068 0 1 0 0 0 2.999999999999988898 1 F 0 F 3.141592653589793116 #
truecolor-adesk-attrib $-1 -1 $328 $-1 $183 -1026895378 #
cone-surface $-1 -1 $-1 103.0357137566842738 -35 72.82152891474638068 0 1 0 0 0 2.999999999999988898 1 I I 0 1 2.999999999999988898 forward I I I I #
DXID-attrib $-1 -1 $-1 $184 $62 @18 ASM_EDGE_FROM_STEP @3 102 #
DXID-attrib $-1 -1 $-1 $186 $64 @18 ASM_EDGE_FROM_STEP @3 158 #
color-adesk-attrib $-1 -1 $329 $188 $120 254 #
truecolor-adesk-attrib $-1 -1 $330 $-1 $191 -1026895378 #
loop $-1 -1 $-1 $125 $219 $191 #
plane-surface $-1 -1 $-1 0 5 0 0 -1 0 0 0 -1 forward_v I I I I #
DXID-attrib $-1 -1 $-1 $192 $72 @18 ASM_EDGE_FROM_STEP @3 174 #
color-adesk-attrib $-1 -1 $331 $193 $128 254 #
color-adesk-attrib $-1 -1 $332 $195 $129 254 #
truecolor-adesk-attrib $-1 -1 $333 $-1 $196 -1026895378 #
face $334 -1 $-1 $335 $336 $4 $-1 $337 forward single #
loop $-1 -1 $-1 $-1 $295 $196 #
cone-surface $-1 -1 $-1 131.0357137566842596 2 102.8215289147463807 0 0 1 2.000000000000001776 0 0 1 I I 0 1 2.000000000000001776 forward I I I I #
DXID-attrib $-1 -1 $-1 $200 $82 @18 ASM_EDGE_FROM_STEP @2 82 #
DXID-attrib $-1 -1 $-1 $201 $83 @18 ASM_FACE_FROM_STEP @8 Line-259 #
color-adesk-attrib $-1 -1 $338 $202 $137 254 #
truecolor-adesk-attrib $-1 -1 $339 $-1 $203 -1026895378 #
cone-surface $-1 -1 $-1 103.0357137566842738 -35 -67.1784710852535909 0 1 0 0 0 2.999999999999988898 1 I I 0 1 2.999999999999988898 forward I I I I #
coedge $-1 -1 $-1 $340 $206 $341 $342 forward $138 $-1 #
coedge $-1 -1 $-1 $206 $340 $343 $344 forward $138 $-1 #
coedge $-1 -1 $-1 $345 $346 $206 $279 reversed $347 $-1 #
edge $348 -1 $-1 $349 -0.3979999999999999649 $350 -0.001999999999999993103 $206 $351 forward @14 tangent_not_g2 #
DXID-attrib $-1 -1 $-1 $208 $90 @18 ASM_FACE_FROM_STEP @8 Line-136 #
color-adesk-attrib $-1 -1 $352 $209 $144 254 #
coedge $-1 -1 $-1 $222 $221 $353 $354 forward $210 $-1 #
coedge $-1 -1 $-1 $353 $212 $355 $356 forward $145 $-1 #
coedge $-1 -1 $-1 $212 $353 $357 $358 reversed $145 $-1 #
coedge $-1 -1 $-1 $214 $213 $212 $286 reversed $91 $-1 #
edge $359 -1 $-1 $360 -0 $361 0.003000000000000000062 $285 $362 forward @7 unknown #
coedge $-1 -1 $-1 $363 $364 $213 $288 reversed $336 $-1 #
edge $365 -1 $-1 $293 -0.3999999999999999112 $361 0 $213 $366 forward @14 tangent_not_g2 #
coedge $-1 -1 $-1 $357 $219 $214 $290 forward $262 $-1 #
edge $367 -1 $-1 $292 -0.3999999999999999112 $360 -0 $214 $368 forward @7 unknown #
truecolor-adesk-attrib $-1 -1 $369 $-1 $216 -1026895378 #
vertex $-1 -1 $-1 $216 $370 #
vertex $-1 -1 $-1 $218 $371 #
straight-curve $-1 -1 $-1 133.0357137566842596 5 -97.1784710852535909 -0 -1000 -0 F -0 F 0.003000000000000000062 #
coedge $-1 -1 $-1 $343 $217 $345 $372 reversed $269 $-1 #
coedge $-1 -1 $-1 $217 $343 $363 $373 reversed $269 $-1 #
truecolor-adesk-attrib $-1 -1 $374 $-1 $218 -1026895378 #
straight-curve $-1 -1 $-1 133.0357137566842596 2 -97.1784710852535909 0 0 -1000 F -0.1999999999999999556 F 0 #
coedge $-1 -1 $-1 $219 $357 $221 $302 forward $262 $-1 #
truecolor-adesk-attrib $-1 -1 $375 $-1 $220 -1026895378 #
straight-curve $-1 -1 $-1 133.0357137566842596 5 102.8215289147463807 0 0 -1000 F 0 F 0.1999999999999999556 #
edge $376 -1 $-1 $377 0 $224 0.3999999999999999112 $221 $378 forward @7 unknown #
coedge $-1 -1 $-1 $346 $345 $222 $304 reversed $347 $-1 #
edge $379 -1 $-1 $380 -0.3999999999999999112 $225 0 $222 $381 forward @14 tangent_not_g2 #
color-adesk-attrib $-1 -1 $382 $223 $151 254 #
point $-1 -1 $-1 133.0357137566842596 5 102.8215289147463807 #
point $-1 -1 $-1 133.0357137566842596 2 102.8215289147463807 #
coedge $-1 -1 $-1 $227 $227 $230 $312 reversed $309 $-1 #
loop $-1 -1 $-1 $-1 $308 $191 #
truecolor-adesk-attrib $-1 -1 $383 $-1 $228 -1026895378 #
ellipse-curve $-1 -1 $-1 -236.9642862433156552 5 -67.1784710852535909 0 1 0 0 0 2.999999999999988898 1 F -3.141592653589793116 F 0 #
edge $384 -1 $-1 $235 0 $232 3.141592653589793116 $308 $385 forward @7 unknown #
color-adesk-attrib $-1 -1 $386 $231 $154 254 #
point $-1 -1 $-1 -236.9642862433156552 5 -70.17847108525356248 #
color-adesk-attrib $-1 -1 $387 $234 $156 254 #
point $-1 -1 $-1 -236.9642862433156552 5 -64.17847108525357669 #
truecolor-adesk-attrib $-1 -1 $388 $-1 $237 -1026895378 #
ellipse-curve $-1 -1 $-1 -236.9642862433156552 0 -67.1784710852535909 0 -1 0 0 0 -2.999999999999988898 1 F 0 F 3.141592653589793116 #
DXID-attrib $-1 -1 $-1 $238 $97 @18 ASM_EDGE_FROM_STEP @3 465 #
color-adesk-attrib $-1 -1 $389 $243 $164 254 #
truecolor-adesk-attrib $-1 -1 $390 $-1 $245 -1026895378 #
ellipse-curve $-1 -1 $-1 103.0357137566842738 5 -67.1784710852535909 0 1 0 0 0 2.999999999999988898 1 F 0 F 3.141592653589793116 #
DXID-attrib $-1 -1 $-1 $246 $100 @18 ASM_EDGE_FROM_STEP @2 46 #
DXID-attrib $-1 -1 $-1 $248 $102 @18 ASM_EDGE_FROM_STEP @3 325 #
color-adesk-attrib $-1 -1 $391 $250 $174 254 #
DXID-attrib $-1 -1 $-1 $253 $110 @18 ASM_EDGE_FROM_STEP @3 521 #
color-adesk-attrib $-1 -1 $392 $254 $182 254 #
color-adesk-attrib $-1 -1 $393 $256 $183 254 #
DXID-attrib $-1 -1 $-1 $260 $120 @18 ASM_EDGE_FROM_STEP @3 360 #
color-adesk-attrib $-1 -1 $394 $261 $191 254 #
DXID-attrib $-1 -1 $-1 $265 $128 @18 ASM_EDGE_FROM_STEP @3 352 #
DXID-attrib $-1 -1 $-1 $266 $129 @18 ASM_FACE_FROM_STEP @8 Line-137 #
color-adesk-attrib $-1 -1 $395 $267 $196 254 #
truecolor-adesk-attrib $-1 -1 $396 $-1 $268 -1026895378 #
face $397 -1 $-1 $398 $347 $4 $-1 $399 forward single #
loop $-1 -1 $-1 $-1 $363 $268 #
cone-surface $-1 -1 $-1 -266.9642862433156552 2 -95.17847108525357669 1 0 0 0 0 -2.000000000000001776 1 I I 0 1 2.000000000000001776 forward I I I I #
DXID-attrib $-1 -1 $-1 $273 $137 @18 ASM_FACE_FROM_STEP @8 Line-226 #
color-adesk-attrib $-1 -1 $400 $274 $203 254 #
coedge $-1 -1 $-1 $277 $276 $401 $402 forward $138 $-1 #
coedge $-1 -1 $-1 $403 $404 $276 $342 reversed $405 $-1 #
edge $406 -1 $-1 $350 -0.1979999999999999816 $407 -0.00200000000000001045 $276 $408 forward @14 tangent_not_g2 #
coedge $-1 -1 $-1 $296 $295 $277 $344 reversed $269 $-1 #
edge $409 -1 $-1 $410 -0.1979999999999999816 $349 -0.001999999999999993103 $277 $411 forward @14 tangent_not_g2 #
coedge $-1 -1 $-1 $303 $278 $295 $372 forward $347 $-1 #
coedge $-1 -1 $-1 $278 $303 $403 $412 reversed $347 $-1 #
loop $-1 -1 $-1 $-1 $345 $335 #
truecolor-adesk-attrib $-1 -1 $413 $-1 $279 -1026895378 #
vertex $-1 -1 $-1 $279 $414 #
vertex $-1 -1 $-1 $279 $415 #
straight-curve $-1 -1 $-1 -266.9642862433156552 0 100.8215289147463807 -1000 0 0 F -0.3979999999999999649 F -0.001999999999999993103 #
DXID-attrib $-1 -1 $-1 $281 $144 @18 ASM_FACE_FROM_STEP @8 Line-432 #
coedge $-1 -1 $-1 $284 $283 $282 $354 reversed $145 $-1 #
edge $416 -1 $-1 $377 -0 $380 0.003000000000000000062 $353 $417 forward @7 unknown #
coedge $-1 -1 $-1 $404 $403 $283 $356 reversed $405 $-1 #
edge $418 -1 $-1 $361 -0.1999999999999999556 $380 0 $283 $419 forward @14 tangent_not_g2 #
coedge $-1 -1 $-1 $299 $289 $284 $358 forward $262 $-1 #
edge $420 -1 $-1 $360 -0.1999999999999999556 $377 0 $284 $421 forward @7 unknown #
truecolor-adesk-attrib $-1 -1 $422 $-1 $286 -1026895378 #
vertex $-1 -1 $-1 $286 $423 #
vertex $-1 -1 $-1 $288 $424 #
straight-curve $-1 -1 $-1 -266.9642862433156552 5 -97.1784710852535909 -0 -1000 -0 F -0 F 0.003000000000000000062 #
coedge $-1 -1 $-1 $401 $287 $296 $373 forward $336 $-1 #
coedge $-1 -1 $-1 $287 $401 $404 $425 reversed $336 $-1 #
truecolor-adesk-attrib $-1 -1 $426 $-1 $288 -1026895378 #
straight-curve $-1 -1 $-1 -266.9642862433156552 2 -97.1784710852535909 -1000 0 0 F -0.3999999999999999112 F 0 #
truecolor-adesk-attrib $-1 -1 $427 $-1 $290 -1026895378 #
straight-curve $-1 -1 $-1 -266.9642862433156552 5 -97.1784710852535909 -1000 -0 -0 F -0.3999999999999999112 F -0 #
color-adesk-attrib $-1 -1 $428 $291 $216 254 #
point $-1 -1 $-1 133.0357137566842596 5 -97.1784710852535909 #
point $-1 -1 $-1 133.0357137566842596 2 -97.1784710852535909 #
edge $429 -1 $-1 $349 -1.570796326795888431 $225 -3.907578547191661304e-13 $295 $430 forward @7 unknown #
edge $431 -1 $-1 $293 1.359306051153839389e-13 $410 1.570796326795351749 $296 $432 forward @7 unknown #
color-adesk-attrib $-1 -1 $433 $297 $218 254 #
color-adesk-attrib $-1 -1 $434 $300 $220 254 #
truecolor-adesk-attrib $-1 -1 $435 $-1 $302 -1026895378 #
vertex $-1 -1 $-1 $354 $436 #
straight-curve $-1 -1 $-1 -266.9642862433156552 5 102.8215289147463807 1000 0 0 F 0 F 0.3999999999999999112 #
truecolor-adesk-attrib $-1 -1 $437 $-1 $304 -1026895378 #
vertex $-1 -1 $-1 $356 $438 #
straight-curve $-1 -1 $-1 133.0357137566842596 2 102.8215289147463807 1000 0 0 F -0.3999999999999999112 F 0 #
DXID-attrib $-1 -1 $-1 $305 $151 @18 ASM_EDGE_FROM_STEP @3 559 #
color-adesk-attrib $-1 -1 $439 $310 $228 254 #
truecolor-adesk-attrib $-1 -1 $440 $-1 $312 -1026895378 #
ellipse-curve $-1 -1 $-1 -236.9642862433156552 5 -67.1784710852535909 0 1 0 0 0 2.999999999999988898 1 F 0 F 3.141592653589793116 #
DXID-attrib $-1 -1 $-1 $313 $154 @18 ASM_EDGE_FROM_STEP @3 447 #
DXID-attrib $-1 -1 $-1 $315 $156 @18 ASM_EDGE_FROM_STEP @2 42 #
color-adesk-attrib $-1 -1 $441 $317 $237 254 #
DXID-attrib $-1 -1 $-1 $320 $164 @18 ASM_EDGE_FROM_STEP @3 593 #
color-adesk-attrib $-1 -1 $442 $321 $245 254 #
DXID-attrib $-1 -1 $-1 $325 $174 @18 ASM_EDGE_FROM_STEP @3 338 #
DXID-attrib $-1 -1 $-1 $327 $182 @18 ASM_EDGE_FROM_STEP @3 491 #
DXID-attrib $-1 -1 $-1 $328 $183 @18 ASM_FACE_FROM_STEP @8 Line-251 #
DXID-attrib $-1 -1 $-1 $330 $191 @18 ASM_FACE_FROM_STEP @8 Line-374 #
DXID-attrib $-1 -1 $-1 $333 $196 @18 ASM_FACE_FROM_STEP @8 Line-589 #
color-adesk-attrib $-1 -1 $443 $334 $268 254 #
truecolor-adesk-attrib $-1 -1 $444 $-1 $335 -1026895378 #
face $445 -1 $-1 $-1 $405 $4 $-1 $446 forward single #
cone-surface $-1 -1 $-1 -266.9642862433156552 2 100.8215289147463807 -1 0 0 0 0 2.000000000000001776 1 I I 0 1 2.000000000000001776 forward I I I I #
DXID-attrib $-1 -1 $-1 $339 $203 @18 ASM_FACE_FROM_STEP @7 Line-14 #
coedge $-1 -1 $-1 $364 $363 $340 $402 reversed $336 $-1 #
edge $447 -1 $-1 $407 -0.3979999999999999649 $410 -0.001999999999999993103 $340 $448 forward @14 tangent_not_g2 #
coedge $-1 -1 $-1 $355 $341 $346 $412 forward $405 $-1 #
coedge $-1 -1 $-1 $341 $355 $364 $425 forward $405 $-1 #
loop $-1 -1 $-1 $-1 $404 $398 #
truecolor-adesk-attrib $-1 -1 $449 $-1 $342 -1026895378 #
vertex $-1 -1 $-1 $342 $450 #
straight-curve $-1 -1 $-1 -264.9642862433156552 0 -97.1784710852535909 -0 -0 -1000 F -0.1979999999999999816 F -0.00200000000000001045 #
truecolor-adesk-attrib $-1 -1 $451 $-1 $344 -1026895378 #
vertex $-1 -1 $-1 $402 $452 #
straight-curve $-1 -1 $-1 131.0357137566842596 0 102.8215289147463807 0 0 1000 F -0.1979999999999999816 F -0.001999999999999993103 #
edge $453 -1 $-1 $350 1.570796326792714526 $380 3.141592653589015516 $346 $454 forward @7 unknown #
color-adesk-attrib $-1 -1 $455 $348 $279 254 #
point $-1 -1 $-1 131.0357137566842596 0 100.8215289147463807 #
point $-1 -1 $-1 -264.9642862433156552 0 100.8215289147463807 #
truecolor-adesk-attrib $-1 -1 $456 $-1 $354 -1026895378 #
straight-curve $-1 -1 $-1 -266.9642862433156552 5 102.8215289147463807 -0 -1000 -0 F -0 F 0.003000000000000000062 #
truecolor-adesk-attrib $-1 -1 $457 $-1 $356 -1026895378 #
straight-curve $-1 -1 $-1 -266.9642862433156552 2 102.8215289147463807 0 0 1000 F -0.1999999999999999556 F 0 #
truecolor-adesk-attrib $-1 -1 $458 $-1 $358 -1026895378 #
straight-curve $-1 -1 $-1 -266.9642862433156552 5 102.8215289147463807 0 0 1000 F -0.1999999999999999556 F 0 #
color-adesk-attrib $-1 -1 $459 $359 $286 254 #
point $-1 -1 $-1 -266.9642862433156552 5 -97.1784710852535909 #
point $-1 -1 $-1 -266.9642862433156552 2 -97.1784710852535909 #
edge $460 -1 $-1 $361 -3.141592653588881845 $407 -1.570796326792406772 $364 $461 forward @7 unknown #
color-adesk-attrib $-1 -1 $462 $365 $288 254 #
color-adesk-attrib $-1 -1 $463 $367 $290 254 #
DXID-attrib $-1 -1 $-1 $369 $216 @18 ASM_EDGE_FROM_STEP @3 356 #
truecolor-adesk-attrib $-1 -1 $464 $-1 $372 -1026895378 #
ellipse-curve $-1 -1 $-1 131.0357137566853396 1.999999999998945732 100.8215289147474607 -0.7071067811865475727 0 0.7071067811865475727 1.999999999998928413 1.835950027075663619e-12 1.999999999998928413 0.707106781186553679 F -1.570796326795888431 F -3.907578547191661304e-13 #
truecolor-adesk-attrib $-1 -1 $465 $-1 $373 -1026895378 #
ellipse-curve $-1 -1 $-1 131.0357137566847427 1.999999999999445777 -95.17847108525407407 -0.7071067811865453523 -1.056619912859662804e-14 -0.7071067811865496822 1.999999999999518163 8.261400552748018024e-13 -1.999999999999506173 0.707106781186524147 F 1.359306051153839389e-13 F 1.570796326795351749 #
DXID-attrib $-1 -1 $-1 $374 $218 @18 ASM_EDGE_FROM_STEP @3 128 #
DXID-attrib $-1 -1 $-1 $375 $220 @18 ASM_EDGE_FROM_STEP @3 348 #
color-adesk-attrib $-1 -1 $466 $376 $302 254 #
point $-1 -1 $-1 -266.9642862433156552 5 102.8215289147463807 #
color-adesk-attrib $-1 -1 $467 $379 $304 254 #
point $-1 -1 $-1 -266.9642862433156552 2 102.8215289147463807 #
DXID-attrib $-1 -1 $-1 $383 $228 @18 ASM_EDGE_FROM_STEP @3 408 #
color-adesk-attrib $-1 -1 $468 $384 $312 254 #
DXID-attrib $-1 -1 $-1 $388 $237 @18 ASM_EDGE_FROM_STEP @3 457 #
DXID-attrib $-1 -1 $-1 $390 $245 @18 ASM_EDGE_FROM_STEP @3 503 #
DXID-attrib $-1 -1 $-1 $396 $268 @18 ASM_FACE_FROM_STEP @6 Line-6 #
color-adesk-attrib $-1 -1 $469 $397 $335 254 #
truecolor-adesk-attrib $-1 -1 $470 $-1 $398 -1026895378 #
cone-surface $-1 -1 $-1 -264.9642862433156552 2 102.8215289147463807 0 0 -1 -2.000000000000001776 0 0 1 I I 0 1 2.000000000000001776 forward I I I I #
truecolor-adesk-attrib $-1 -1 $471 $-1 $402 -1026895378 #
straight-curve $-1 -1 $-1 133.0357137566842596 0 -95.17847108525357669 1000 0 0 F -0.3979999999999999649 F -0.001999999999999993103 #
color-adesk-attrib $-1 -1 $472 $406 $342 254 #
point $-1 -1 $-1 -264.9642862433156552 0 -95.17847108525357669 #
color-adesk-attrib $-1 -1 $473 $409 $344 254 #
point $-1 -1 $-1 131.0357137566842596 0 -95.17847108525357669 #
truecolor-adesk-attrib $-1 -1 $474 $-1 $412 -1026895378 #
ellipse-curve $-1 -1 $-1 -264.9642862433180426 1.999999999997499112 100.8215289147486828 -0.7071067811865625607 -3.036499943752086762e-14 -0.7071067811865324737 1.999999999997633671 -4.056893665149723436e-12 -1.999999999997718936 0.7071067811864847341 F 1.570796326792714526 F 3.141592653589015516 #
DXID-attrib $-1 -1 $-1 $413 $279 @18 ASM_EDGE_FROM_STEP @3 405 #
color-adesk-attrib $-1 -1 $475 $416 $354 254 #
color-adesk-attrib $-1 -1 $476 $418 $356 254 #
color-adesk-attrib $-1 -1 $477 $420 $358 254 #
DXID-attrib $-1 -1 $-1 $422 $286 @18 ASM_EDGE_FROM_STEP @3 313 #
truecolor-adesk-attrib $-1 -1 $478 $-1 $425 -1026895378 #
ellipse-curve $-1 -1 $-1 -264.9642862433183836 1.999999999997210232 -95.17847108525621991 -0.7071067811865605623 -1.969621585136501528e-14 0.7071067811865344721 1.999999999997294831 -4.612419637393736819e-12 1.999999999997368549 0.7071067811865046071 F -3.141592653588881845 F -1.570796326792406772 #
DXID-attrib $-1 -1 $-1 $426 $288 @18 ASM_EDGE_FROM_STEP @3 539 #
DXID-attrib $-1 -1 $-1 $427 $290 @18 ASM_EDGE_FROM_STEP @2 74 #
color-adesk-attrib $-1 -1 $479 $429 $372 254 #
color-adesk-attrib $-1 -1 $480 $431 $373 254 #
DXID-attrib $-1 -1 $-1 $435 $302 @18 ASM_EDGE_FROM_STEP @3 563 #
DXID-attrib $-1 -1 $-1 $437 $304 @18 ASM_EDGE_FROM_STEP @3 421 #
DXID-attrib $-1 -1 $-1 $440 $312 @18 ASM_EDGE_FROM_STEP @3 261 #
DXID-attrib $-1 -1 $-1 $444 $335 @18 ASM_FACE_FROM_STEP @7 Line-37 #
color-adesk-attrib $-1 -1 $481 $445 $398 254 #
color-adesk-attrib $-1 -1 $482 $447 $402 254 #
DXID-attrib $-1 -1 $-1 $449 $342 @18 ASM_EDGE_FROM_STEP @3 217 #
DXID-attrib $-1 -1 $-1 $451 $344 @18 ASM_EDGE_FROM_STEP @3 362 #
color-adesk-attrib $-1 -1 $483 $453 $412 254 #
DXID-attrib $-1 -1 $-1 $456 $354 @18 ASM_EDGE_FROM_STEP @3 582 #
DXID-attrib $-1 -1 $-1 $457 $356 @18 ASM_EDGE_FROM_STEP @3 574 #
DXID-attrib $-1 -1 $-1 $458 $358 @18 ASM_EDGE_FROM_STEP @2 49 #
color-adesk-attrib $-1 -1 $484 $460 $425 254 #
DXID-attrib $-1 -1 $-1 $464 $372 @18 ASM_EDGE_FROM_STEP @2 33 #
DXID-attrib $-1 -1 $-1 $465 $373 @18 ASM_EDGE_FROM_STEP @3 412 #
DXID-attrib $-1 -1 $-1 $470 $398 @18 ASM_FACE_FROM_STEP @8 Line-392 #
DXID-attrib $-1 -1 $-1 $471 $402 @18 ASM_EDGE_FROM_STEP @3 240 #
DXID-attrib $-1 -1 $-1 $474 $412 @18 ASM_EDGE_FROM_STEP @3 317 #
DXID-attrib $-1 -1 $-1 $478 $425 @18 ASM_EDGE_FROM_STEP @2 95 #
