700 407 1 0         
16 Autodesk AutoCAD 20 ASM 229.2.0.65535 NT 24 Wed Mar  6 02:15:42 2024 
1 9.999999999999999547e-07 1.000000000000000036e-10 
body $1 -1 $-1 $2 $-1 $3 #
DXID-attrib $-1 -1 $-1 $-1 $0 @18 ASM_BODY_FROM_STEP @83 6E870EFB00CBD5427FD1AD2B750D0B04CB2E1BDC|:|BD27E99729E6930DA7950040880912736D58F368 #
lump $-1 -1 $-1 $-1 $4 $0 #
transform $-1 -1 1 0 0 0 1 0 0 0 1 0 0 0 1 no_rotate no_reflect no_shear #
shell $-1 -1 $-1 $-1 $-1 $5 $-1 $2 #
face $6 -1 $-1 $7 $8 $4 $-1 $9 forward single #
truecolor-adesk-attrib $-1 -1 $10 $-1 $5 -1031634282 #
face $11 -1 $-1 $12 $13 $4 $-1 $14 forward single #
loop $-1 -1 $-1 $15 $16 $5 #
plane-surface $-1 -1 $-1 13.49502000000000201 2.393516705948619923e-15 39.09038522424310003 1 0 0 0 1 0 forward_v I I I I #
color-adesk-attrib $-1 -1 $17 $6 $5 252 #
truecolor-adesk-attrib $-1 -1 $18 $-1 $7 -1031634282 #
face $19 -1 $-1 $20 $21 $4 $-1 $22 forward single #
loop $-1 -1 $-1 $-1 $23 $7 #
cone-surface $-1 -1 $-1 11.96512096624720023 0 0 -1 0 0 0 2.555249562373657553e-15 41.73177044848620909 1 I I 0 1 41.73177044848620909 forward I I I I #
loop $-1 -1 $-1 $-1 $24 $5 #
coedge $-1 -1 $-1 $25 $25 $26 $27 reversed $8 $-1 #
DXID-attrib $-1 -1 $-1 $10 $5 @18 ASM_FACE_FROM_STEP @48 LL713049-LL713010-TheTimkenCompany-12-07-2018-36 #
color-adesk-attrib $-1 -1 $28 $11 $7 252 #
truecolor-adesk-attrib $-1 -1 $29 $-1 $12 -1031634282 #
face $30 -1 $-1 $31 $32 $4 $-1 $33 forward single #
loop $-1 -1 $-1 $-1 $34 $12 #
torus-surface $-1 -1 $-1 11.97101999999999933 0 0 -1 0 0 36.44899999999999807 1.524000000000000021 0 0 1 forward_v I I I I #
coedge $-1 -1 $-1 $35 $36 $37 $38 forward $13 $-1 #
coedge $-1 -1 $-1 $39 $39 $40 $41 forward $15 $-1 #
coedge $-1 -1 $-1 $16 $16 $36 $42 reversed $8 $-1 #
coedge $-1 -1 $-1 $43 $37 $16 $27 forward $44 $-1 #
edge $45 -1 $-1 $46 5.662090765243434101e-32 $47 3.141592653589793116 $16 $48 forward @7 unknown #
DXID-attrib $-1 -1 $-1 $18 $7 @18 ASM_FACE_FROM_STEP @48 LL713049-LL713010-TheTimkenCompany-12-07-2018-68 #
color-adesk-attrib $-1 -1 $49 $19 $12 252 #
truecolor-adesk-attrib $-1 -1 $50 $-1 $20 -1031634282 #
face $51 -1 $-1 $52 $44 $4 $-1 $53 forward single #
loop $-1 -1 $-1 $-1 $54 $20 #
torus-surface $-1 -1 $-1 11.97101999999999933 0 0 -1 0 0 36.44899999999999807 1.524000000000000021 0 0 1 forward_v I I I I #
coedge $-1 -1 $-1 $55 $56 $54 $57 forward $21 $-1 #
coedge $-1 -1 $-1 $58 $23 $59 $60 reversed $13 $-1 #
coedge $-1 -1 $-1 $23 $58 $25 $42 forward $13 $-1 #
coedge $-1 -1 $-1 $26 $61 $23 $38 reversed $44 $-1 #
edge $62 -1 $-1 $46 -1.529899033752801785 $63 1.529899033752799564 $23 $64 forward @2 g2 #
coedge $-1 -1 $-1 $24 $24 $55 $65 forward $15 $-1 #
coedge $-1 -1 $-1 $54 $66 $24 $41 reversed $32 $-1 #
edge $67 -1 $-1 $68 -6.680080878180135041e-32 $69 3.141592653589793116 $24 $70 forward @14 tangent_not_g2 #
edge $71 -1 $-1 $47 -3.141592653589793116 $46 5.662090765243434101e-32 $25 $72 forward @7 unknown #
coedge $-1 -1 $-1 $61 $26 $58 $73 reversed $44 $-1 #
loop $-1 -1 $-1 $-1 $37 $31 #
truecolor-adesk-attrib $-1 -1 $74 $-1 $27 -1031634282 #
vertex $-1 -1 $-1 $27 $75 #
vertex $-1 -1 $-1 $27 $76 #
ellipse-curve $-1 -1 $-1 13.49502000000000201 0 0 -1 0 0 0 2.555249562373657553e-15 41.73177044848620909 1 F 5.662090765243434101e-32 F 3.141592653589793116 #
DXID-attrib $-1 -1 $-1 $29 $12 @18 ASM_FACE_FROM_STEP @49 LL713049-LL713010-TheTimkenCompany-12-07-2018-102 #
color-adesk-attrib $-1 -1 $77 $30 $20 252 #
truecolor-adesk-attrib $-1 -1 $78 $-1 $31 -1031634282 #
face $79 -1 $-1 $80 $81 $4 $-1 $82 reversed single #
cone-surface $-1 -1 $-1 11.96512096624720023 0 0 -1 0 0 0 2.555249562373657553e-15 41.73177044848620909 1 I I 0 1 41.73177044848620909 forward I I I I #
coedge $-1 -1 $-1 $83 $40 $34 $57 reversed $32 $-1 #
coedge $-1 -1 $-1 $84 $34 $39 $65 reversed $21 $-1 #
coedge $-1 -1 $-1 $34 $84 $85 $86 forward $21 $-1 #
edge $87 -1 $-1 $88 -3.141592653589793116 $68 -1.570796326794896558 $34 $89 forward @2 g2 #
coedge $-1 -1 $-1 $36 $35 $43 $73 forward $13 $-1 #
coedge $-1 -1 $-1 $90 $91 $35 $60 forward $81 $-1 #
edge $92 -1 $-1 $93 -3.141592653589793116 $63 5.662090765243434101e-32 $35 $94 forward @7 unknown #
coedge $-1 -1 $-1 $37 $43 $95 $96 reversed $44 $-1 #
truecolor-adesk-attrib $-1 -1 $97 $-1 $38 -1031634282 #
vertex $-1 -1 $-1 $38 $98 #
straight-curve $-1 -1 $-1 11.96512096624720023 -2.55524956237365992e-15 41.73177044848620909 -1 0 0 F -1.529899033752801785 F 1.529899033752799564 #
edge $99 -1 $-1 $69 -3.141592653589793116 $68 -6.680080878180135041e-32 $39 $100 forward @14 tangent_not_g2 #
coedge $-1 -1 $-1 $40 $83 $84 $101 reversed $32 $-1 #
truecolor-adesk-attrib $-1 -1 $102 $-1 $41 -1031634282 #
vertex $-1 -1 $-1 $41 $103 #
vertex $-1 -1 $-1 $41 $104 #
ellipse-curve $-1 -1 $-1 13.49502000000000201 0 0 -1 0 0 0 2.231783849523592548e-15 36.44899999999999807 1 F -6.680080878180135041e-32 F 3.141592653589793116 #
truecolor-adesk-attrib $-1 -1 $105 $-1 $42 -1031634282 #
ellipse-curve $-1 -1 $-1 13.49502000000000201 0 0 -1 0 0 0 2.555249562373657553e-15 41.73177044848620909 1 F -3.141592653589793116 F 5.662090765243434101e-32 #
edge $106 -1 $-1 $93 -1.529899033752799564 $47 1.529899033752801785 $58 $107 forward @2 g2 #
color-adesk-attrib $-1 -1 $108 $45 $27 252 #
point $-1 -1 $-1 13.49502000000000201 2.55524956237365992e-15 41.73177044848620909 #
point $-1 -1 $-1 13.49502000000000201 2.55524956237365992e-15 -41.73177044848620909 #
DXID-attrib $-1 -1 $-1 $50 $20 @18 ASM_FACE_FROM_STEP @49 LL713049-LL713010-TheTimkenCompany-12-07-2018-115 #
color-adesk-attrib $-1 -1 $109 $51 $31 252 #
truecolor-adesk-attrib $-1 -1 $110 $-1 $52 -1031634282 #
face $111 -1 $-1 $112 $113 $4 $-1 $114 reversed single #
loop $-1 -1 $-1 $-1 $90 $52 #
cone-surface $-1 -1 $-1 10.63770830394810218 0 0 -1 0 0 0 2.50974180968882524e-15 40.98854790121150415 1 I I 0.9648332167413066207 0.262862823298812831 40.98854790121150415 forward I I I I #
coedge $-1 -1 $-1 $66 $54 $115 $116 forward $32 $-1 #
coedge $-1 -1 $-1 $56 $55 $66 $101 forward $21 $-1 #
coedge $-1 -1 $-1 $117 $118 $56 $86 reversed $113 $-1 #
edge $119 -1 $-1 $120 -3.141592653589793116 $88 7.275789512129844585e-32 $56 $121 forward @14 tangent_not_g2 #
truecolor-adesk-attrib $-1 -1 $122 $-1 $57 -1031634282 #
vertex $-1 -1 $-1 $57 $123 #
ellipse-curve $-1 -1 $-1 11.97101999999999933 -4.463567699047180363e-15 36.44899999999999807 -0 -1 -1.22460635382237997e-16 0 -1.866300083225307075e-16 1.524000000000000021 1 F -3.141592653589793116 F -1.570796326794896558 #
coedge $-1 -1 $-1 $124 $59 $125 $126 reversed $81 $-1 #
coedge $-1 -1 $-1 $59 $124 $127 $128 reversed $81 $-1 #
truecolor-adesk-attrib $-1 -1 $129 $-1 $60 -1031634282 #
vertex $-1 -1 $-1 $60 $130 #
ellipse-curve $-1 -1 $-1 10.43522193249440022 0 0 -1 0 0 0 2.555249562373657553e-15 41.73177044848620909 1 F -3.141592653589793116 F 5.662090765243434101e-32 #
coedge $-1 -1 $-1 $127 $125 $61 $96 forward $131 $-1 #
edge $132 -1 $-1 $63 5.662090765243434101e-32 $93 3.141592653589793116 $61 $133 forward @7 unknown #
color-adesk-attrib $-1 -1 $134 $62 $38 252 #
point $-1 -1 $-1 10.43522193249440022 2.55524956237365992e-15 41.73177044848620909 #
truecolor-adesk-attrib $-1 -1 $135 $-1 $65 -1031634282 #
ellipse-curve $-1 -1 $-1 13.49502000000000201 0 0 -1 0 0 0 2.231783849523592548e-15 36.44899999999999807 1 F -3.141592653589793116 F -6.680080878180135041e-32 #
edge $136 -1 $-1 $69 1.570796326794896558 $120 3.141592653589793116 $84 $137 forward @2 g2 #
color-adesk-attrib $-1 -1 $138 $67 $41 252 #
point $-1 -1 $-1 13.49502000000000201 2.231783849523590182e-15 36.44899999999999807 #
point $-1 -1 $-1 13.49502000000000201 4.463567699047180363e-15 -36.44899999999999807 #
color-adesk-attrib $-1 -1 $139 $71 $42 252 #
truecolor-adesk-attrib $-1 -1 $140 $-1 $73 -1031634282 #
straight-curve $-1 -1 $-1 11.96512096624720023 2.55524956237365992e-15 -41.73177044848620909 1 0 0 F -1.529899033752799564 F 1.529899033752801785 #
DXID-attrib $-1 -1 $-1 $74 $27 @18 ASM_EDGE_FROM_STEP @2 10 #
DXID-attrib $-1 -1 $-1 $78 $31 @18 ASM_FACE_FROM_STEP @49 LL713049-LL713010-TheTimkenCompany-12-07-2018-123 #
color-adesk-attrib $-1 -1 $141 $79 $52 252 #
truecolor-adesk-attrib $-1 -1 $142 $-1 $80 -1031634282 #
face $143 -1 $-1 $144 $145 $4 $-1 $146 reversed single #
loop $-1 -1 $-1 $-1 $118 $80 #
cone-surface $-1 -1 $-1 6.176010000000000666 0 0 -1 0 0 0 2.138468845362327392e-15 34.92499999999999716 1 I I 0 1 34.92499999999999716 forward I I I I #
coedge $-1 -1 $-1 $147 $148 $83 $116 reversed $145 $-1 #
edge $149 -1 $-1 $88 7.275789512129844585e-32 $120 3.141592653589793116 $83 $150 forward @14 tangent_not_g2 #
coedge $-1 -1 $-1 $151 $85 $148 $152 reversed $113 $-1 #
coedge $-1 -1 $-1 $85 $151 $147 $153 reversed $113 $-1 #
truecolor-adesk-attrib $-1 -1 $154 $-1 $86 -1031634282 #
vertex $-1 -1 $-1 $101 $155 #
ellipse-curve $-1 -1 $-1 11.97101999999999933 0 0 -1 0 0 0 2.138468845362327392e-15 34.92499999999999716 1 F -3.141592653589793116 F 7.275789512129844585e-32 #
color-adesk-attrib $-1 -1 $156 $87 $57 252 #
point $-1 -1 $-1 11.97101999999999933 2.138468845362330153e-15 34.92499999999999716 #
coedge $-1 -1 $-1 $91 $90 $157 $158 reversed $81 $-1 #
coedge $-1 -1 $-1 $95 $159 $90 $126 forward $131 $-1 #
edge $160 -1 $-1 $161 -0.7703119403216860395 $63 0.7703119403215745731 $90 $162 forward @2 g2 #
coedge $-1 -1 $-1 $159 $95 $91 $128 forward $131 $-1 #
edge $163 -1 $-1 $93 -0.7703119403215745731 $164 0.7703119403216860395 $91 $165 forward @2 g2 #
color-adesk-attrib $-1 -1 $166 $92 $60 252 #
point $-1 -1 $-1 10.43522193249440022 2.55524956237365992e-15 -41.73177044848620909 #
loop $-1 -1 $-1 $-1 $125 $144 #
truecolor-adesk-attrib $-1 -1 $167 $-1 $96 -1031634282 #
ellipse-curve $-1 -1 $-1 10.43522193249440022 0 0 -1 0 0 0 2.555249562373657553e-15 41.73177044848620909 1 F 5.662090765243434101e-32 F 3.141592653589793116 #
DXID-attrib $-1 -1 $-1 $97 $38 @18 ASM_EDGE_FROM_STEP @2 43 #
color-adesk-attrib $-1 -1 $168 $99 $65 252 #
truecolor-adesk-attrib $-1 -1 $169 $-1 $101 -1031634282 #
ellipse-curve $-1 -1 $-1 11.97101999999999933 4.463567699047180363e-15 -36.44899999999999807 0 -1 -1.22460635382237997e-16 0 1.866300083225307075e-16 -1.524000000000000021 1 F 1.570796326794896558 F 3.141592653589793116 #
DXID-attrib $-1 -1 $-1 $102 $41 @18 ASM_EDGE_FROM_STEP @2 25 #
DXID-attrib $-1 -1 $-1 $105 $42 @18 ASM_EDGE_FROM_STEP @2 12 #
color-adesk-attrib $-1 -1 $170 $106 $73 252 #
DXID-attrib $-1 -1 $-1 $110 $52 @18 ASM_FACE_FROM_STEP @49 LL713049-LL713010-TheTimkenCompany-12-07-2018-155 #
color-adesk-attrib $-1 -1 $171 $111 $80 252 #
truecolor-adesk-attrib $-1 -1 $172 $-1 $112 -1031634282 #
face $173 -1 $-1 $174 $131 $4 $-1 $175 reversed single #
loop $-1 -1 $-1 $-1 $147 $112 #
cone-surface $-1 -1 $-1 6.176010000000000666 0 0 -1 0 0 0 2.138468845362327392e-15 34.92499999999999716 1 I I 0 1 34.92499999999999716 forward I I I I #
coedge $-1 -1 $-1 $176 $115 $118 $153 forward $145 $-1 #
coedge $-1 -1 $-1 $115 $176 $117 $152 forward $145 $-1 #
truecolor-adesk-attrib $-1 -1 $177 $-1 $116 -1031634282 #
ellipse-curve $-1 -1 $-1 11.97101999999999933 0 0 -1 0 0 0 2.138468845362327392e-15 34.92499999999999716 1 F 7.275789512129844585e-32 F 3.141592653589793116 #
coedge $-1 -1 $-1 $118 $117 $178 $179 forward $113 $-1 #
edge $180 -1 $-1 $181 -5.795009999999997774 $120 5.795009999999997774 $117 $182 forward @2 g2 #
edge $183 -1 $-1 $88 -5.795009999999997774 $184 5.795009999999997774 $118 $185 forward @2 g2 #
color-adesk-attrib $-1 -1 $186 $119 $86 252 #
point $-1 -1 $-1 11.97101999999999933 2.138468845362330153e-15 -34.92499999999999716 #
DXID-attrib $-1 -1 $-1 $122 $57 @18 ASM_EDGE_FROM_STEP @2 76 #
coedge $-1 -1 $-1 $187 $188 $124 $158 forward $189 $-1 #
edge $190 -1 $-1 $164 -3.141592653589793116 $161 9.740910294417422372e-32 $124 $191 forward @7 unknown #
coedge $-1 -1 $-1 $125 $127 $192 $193 reversed $131 $-1 #
truecolor-adesk-attrib $-1 -1 $194 $-1 $126 -1031634282 #
vertex $-1 -1 $-1 $126 $195 #
straight-curve $-1 -1 $-1 10.63770830394810218 -2.509741809688820112e-15 40.98854790121150415 -0.2628628232988119429 -5.907704438001430088e-17 0.9648332167413070648 F -0.7703119403216860395 F 0.7703119403215745731 #
truecolor-adesk-attrib $-1 -1 $196 $-1 $128 -1031634282 #
vertex $-1 -1 $-1 $158 $197 #
straight-curve $-1 -1 $-1 10.63770830394810218 2.509741809688820112e-15 -40.98854790121150415 0.2628628232988119429 -5.907704438001430088e-17 0.9648332167413070648 F -0.7703119403215745731 F 0.7703119403216860395 #
DXID-attrib $-1 -1 $-1 $129 $60 @18 ASM_EDGE_FROM_STEP @2 52 #
color-adesk-attrib $-1 -1 $198 $132 $96 252 #
DXID-attrib $-1 -1 $-1 $135 $65 @18 ASM_EDGE_FROM_STEP @2 27 #
color-adesk-attrib $-1 -1 $199 $136 $101 252 #
DXID-attrib $-1 -1 $-1 $140 $73 @18 ASM_EDGE_FROM_STEP @2 58 #
DXID-attrib $-1 -1 $-1 $142 $80 @18 ASM_FACE_FROM_STEP @49 LL713049-LL713010-TheTimkenCompany-12-07-2018-187 #
color-adesk-attrib $-1 -1 $200 $143 $112 252 #
truecolor-adesk-attrib $-1 -1 $201 $-1 $144 -1031634282 #
face $202 -1 $-1 $203 $189 $4 $-1 $204 forward single #
cone-surface $-1 -1 $-1 10.63770830394810218 0 0 -1 0 0 0 2.50974180968882524e-15 40.98854790121150415 1 I I 0.9648332167413066207 0.262862823298812831 40.98854790121150415 forward I I I I #
coedge $-1 -1 $-1 $148 $147 $205 $206 forward $145 $-1 #
color-adesk-attrib $-1 -1 $207 $149 $116 252 #
coedge $-1 -1 $-1 $208 $209 $151 $179 reversed $210 $-1 #
edge $211 -1 $-1 $181 -3.141592653589793116 $184 7.275789512129844585e-32 $151 $212 forward @14 tangent_not_g2 #
truecolor-adesk-attrib $-1 -1 $213 $-1 $152 -1031634282 #
vertex $-1 -1 $-1 $152 $214 #
straight-curve $-1 -1 $-1 6.176010000000000666 2.138468845362330153e-15 -34.92499999999999716 1 0 0 F -5.795009999999997774 F 5.795009999999997774 #
truecolor-adesk-attrib $-1 -1 $215 $-1 $153 -1031634282 #
vertex $-1 -1 $-1 $153 $216 #
straight-curve $-1 -1 $-1 6.176010000000000666 -2.138468845362330153e-15 34.92499999999999716 -1 0 0 F -5.795009999999997774 F 5.795009999999997774 #
DXID-attrib $-1 -1 $-1 $154 $86 @18 ASM_EDGE_FROM_STEP @2 93 #
coedge $-1 -1 $-1 $217 $157 $218 $219 forward $189 $-1 #
coedge $-1 -1 $-1 $157 $217 $220 $221 forward $189 $-1 #
loop $-1 -1 $-1 $-1 $187 $174 #
truecolor-adesk-attrib $-1 -1 $222 $-1 $158 -1031634282 #
ellipse-curve $-1 -1 $-1 10.84019467540190007 0 0 -1 0 0 0 2.464234057003986221e-15 40.24532535393670685 1 F -3.141592653589793116 F 9.740910294417422372e-32 #
coedge $-1 -1 $-1 $220 $218 $159 $193 forward $223 $-1 #
edge $224 -1 $-1 $161 9.740910294417422372e-32 $164 3.141592653589793116 $159 $225 forward @7 unknown #
color-adesk-attrib $-1 -1 $226 $160 $126 252 #
point $-1 -1 $-1 10.84019467540190007 2.464234057003990166e-15 40.24532535393670685 #
color-adesk-attrib $-1 -1 $227 $163 $128 252 #
point $-1 -1 $-1 10.84019467540190007 2.464234057003990166e-15 -40.24532535393670685 #
DXID-attrib $-1 -1 $-1 $167 $96 @18 ASM_EDGE_FROM_STEP @3 119 #
DXID-attrib $-1 -1 $-1 $169 $101 @18 ASM_EDGE_FROM_STEP @2 86 #
DXID-attrib $-1 -1 $-1 $172 $112 @18 ASM_FACE_FROM_STEP @49 LL713049-LL713010-TheTimkenCompany-12-07-2018-200 #
color-adesk-attrib $-1 -1 $228 $173 $144 252 #
truecolor-adesk-attrib $-1 -1 $229 $-1 $174 -1031634282 #
face $230 -1 $-1 $231 $210 $4 $-1 $232 forward single #
cone-surface $-1 -1 $-1 6.628637021022431242 0 0 1 0 0 0 2.399078244463768098e-15 39.18121504066179739 1 I I 0.2449660483375097897 0.9695316576378023576 39.18121504066179739 forward I I I I #
coedge $-1 -1 $-1 $233 $234 $176 $206 reversed $235 $-1 #
edge $236 -1 $-1 $184 7.275789512129844585e-32 $181 3.141592653589793116 $176 $237 forward @14 tangent_not_g2 #
DXID-attrib $-1 -1 $-1 $177 $116 @18 ASM_EDGE_FROM_STEP @3 109 #
coedge $-1 -1 $-1 $238 $178 $234 $239 forward $210 $-1 #
coedge $-1 -1 $-1 $178 $238 $233 $240 forward $210 $-1 #
loop $-1 -1 $-1 $-1 $209 $203 #
truecolor-adesk-attrib $-1 -1 $241 $-1 $179 -1031634282 #
ellipse-curve $-1 -1 $-1 0.3810000000000020037 0 0 -1 0 0 0 2.138468845362327392e-15 34.92499999999999716 1 F -3.141592653589793116 F 7.275789512129844585e-32 #
color-adesk-attrib $-1 -1 $242 $180 $152 252 #
point $-1 -1 $-1 0.3810000000000020037 4.27693769072465005e-15 -34.92499999999999716 #
color-adesk-attrib $-1 -1 $243 $183 $153 252 #
point $-1 -1 $-1 0.3810000000000020037 2.138468845362330153e-15 34.92499999999999716 #
coedge $-1 -1 $-1 $188 $187 $244 $245 reversed $189 $-1 #
coedge $-1 -1 $-1 $192 $246 $187 $219 reversed $223 $-1 #
edge $247 -1 $-1 $161 -4.343909372325844842 $248 4.34390937232580665 $187 $249 forward @2 g2 #
coedge $-1 -1 $-1 $246 $192 $188 $221 reversed $223 $-1 #
edge $250 -1 $-1 $251 -4.34390937232580665 $164 4.343909372325844842 $188 $252 forward @2 g2 #
color-adesk-attrib $-1 -1 $253 $190 $158 252 #
loop $-1 -1 $-1 $-1 $218 $254 #
truecolor-adesk-attrib $-1 -1 $255 $-1 $193 -1031634282 #
ellipse-curve $-1 -1 $-1 10.84019467540190007 0 0 -1 0 0 0 2.464234057003986221e-15 40.24532535393670685 1 F 9.740910294417422372e-32 F 3.141592653589793116 #
DXID-attrib $-1 -1 $-1 $194 $126 @18 ASM_EDGE_FROM_STEP @3 130 #
DXID-attrib $-1 -1 $-1 $196 $128 @18 ASM_EDGE_FROM_STEP @3 145 #
DXID-attrib $-1 -1 $-1 $201 $144 @18 ASM_FACE_FROM_STEP @49 LL713049-LL713010-TheTimkenCompany-12-07-2018-208 #
color-adesk-attrib $-1 -1 $256 $202 $174 252 #
truecolor-adesk-attrib $-1 -1 $257 $-1 $203 -1031634282 #
face $258 -1 $-1 $254 $235 $4 $-1 $259 forward single #
torus-surface $-1 -1 $-1 0.38100000000000106 0 0 -1 0 0 35.30599999999999739 0.3809999999999990616 0 0 1 forward_v I I I I #
coedge $-1 -1 $-1 $260 $205 $209 $240 reversed $235 $-1 #
coedge $-1 -1 $-1 $205 $260 $208 $239 reversed $235 $-1 #
loop $-1 -1 $-1 $-1 $233 $231 #
truecolor-adesk-attrib $-1 -1 $261 $-1 $206 -1031634282 #
ellipse-curve $-1 -1 $-1 0.3810000000000020037 0 0 -1 0 0 0 2.138468845362327392e-15 34.92499999999999716 1 F 7.275789512129844585e-32 F 3.141592653589793116 #
coedge $-1 -1 $-1 $209 $208 $262 $263 forward $210 $-1 #
edge $264 -1 $-1 $181 -3.141592653589795336 $265 -1.570796326794896558 $208 $266 forward @2 g2 #
edge $267 -1 $-1 $268 1.570796326794896558 $184 3.141592653589795336 $209 $269 forward @2 g2 #
color-adesk-attrib $-1 -1 $270 $211 $179 252 #
DXID-attrib $-1 -1 $-1 $213 $152 @18 ASM_EDGE_FROM_STEP @3 171 #
DXID-attrib $-1 -1 $-1 $215 $153 @18 ASM_EDGE_FROM_STEP @3 162 #
coedge $-1 -1 $-1 $271 $272 $217 $245 forward $273 $-1 #
edge $274 -1 $-1 $251 -3.141592653589793116 $248 0 $217 $275 forward @7 unknown #
coedge $-1 -1 $-1 $218 $220 $276 $277 reversed $223 $-1 #
truecolor-adesk-attrib $-1 -1 $278 $-1 $219 -1031634282 #
vertex $-1 -1 $-1 $219 $279 #
straight-curve $-1 -1 $-1 6.628637021022431242 -2.39907824446377007e-15 39.18121504066179739 -0.9695316576378021356 1.499934896324370015e-17 -0.2449660483375100395 F -4.343909372325844842 F 4.34390937232580665 #
truecolor-adesk-attrib $-1 -1 $280 $-1 $221 -1031634282 #
vertex $-1 -1 $-1 $245 $281 #
straight-curve $-1 -1 $-1 6.628637021022431242 2.39907824446377007e-15 -39.18121504066179739 0.9695316576378021356 1.499934896324370015e-17 -0.2449660483375100395 F -4.34390937232580665 F 4.343909372325844842 #
DXID-attrib $-1 -1 $-1 $222 $158 @18 ASM_EDGE_FROM_STEP @3 139 #
face $282 -1 $-1 $283 $223 $4 $-1 $284 forward single #
color-adesk-attrib $-1 -1 $285 $224 $193 252 #
DXID-attrib $-1 -1 $-1 $229 $174 @18 ASM_FACE_FROM_STEP @49 LL713049-LL713010-TheTimkenCompany-12-07-2018-240 #
color-adesk-attrib $-1 -1 $286 $230 $203 252 #
truecolor-adesk-attrib $-1 -1 $287 $-1 $231 -1031634282 #
torus-surface $-1 -1 $-1 0.38100000000000106 0 0 -1 0 0 35.30599999999999739 0.3809999999999990616 0 0 1 forward_v I I I I #
coedge $-1 -1 $-1 $234 $233 $288 $289 forward $235 $-1 #
color-adesk-attrib $-1 -1 $290 $236 $206 252 #
coedge $-1 -1 $-1 $288 $288 $238 $263 reversed $291 $-1 #
edge $292 -1 $-1 $265 -3.141592653589793116 $268 -1.107494169551764756e-31 $238 $293 forward @14 tangent_not_g2 #
truecolor-adesk-attrib $-1 -1 $294 $-1 $239 -1031634282 #
vertex $-1 -1 $-1 $239 $295 #
ellipse-curve $-1 -1 $-1 0.38100000000000106 4.323595192805289925e-15 -35.30599999999999739 0 -1 -1.22460635382237997e-16 0 4.665750208063255362e-17 -0.3809999999999990616 1 F -3.141592653589795336 F -1.570796326794896558 #
truecolor-adesk-attrib $-1 -1 $296 $-1 $240 -1031634282 #
vertex $-1 -1 $-1 $240 $297 #
ellipse-curve $-1 -1 $-1 0.38100000000000106 -4.323595192805289925e-15 35.30599999999999739 -0 -1 -1.22460635382237997e-16 0 -4.665750208063255362e-17 0.3809999999999990616 1 F 1.570796326794896558 F 3.141592653589795336 #
DXID-attrib $-1 -1 $-1 $241 $179 @18 ASM_EDGE_FROM_STEP @3 178 #
coedge $-1 -1 $-1 $298 $244 $299 $300 forward $273 $-1 #
coedge $-1 -1 $-1 $244 $298 $301 $302 forward $273 $-1 #
loop $-1 -1 $-1 $-1 $271 $283 #
truecolor-adesk-attrib $-1 -1 $303 $-1 $245 -1031634282 #
ellipse-curve $-1 -1 $-1 2.41707936664300016 0 0 -1 0 0 0 2.333922431923549975e-15 38.11710472738690214 1 F -3.141592653589793116 F 0 #
coedge $-1 -1 $-1 $301 $299 $246 $277 forward $304 $-1 #
edge $305 -1 $-1 $248 0 $251 3.141592653589793116 $246 $306 forward @7 unknown #
color-adesk-attrib $-1 -1 $307 $247 $219 252 #
point $-1 -1 $-1 2.41707936664300016 2.333922431923549975e-15 38.11710472738690214 #
color-adesk-attrib $-1 -1 $308 $250 $221 252 #
point $-1 -1 $-1 2.41707936664300016 2.333922431923549975e-15 -38.11710472738690214 #
truecolor-adesk-attrib $-1 -1 $309 $-1 $254 -1031634282 #
face $310 -1 $-1 $311 $273 $4 $-1 $312 forward single #
cone-surface $-1 -1 $-1 6.628637021022431242 0 0 1 0 0 0 2.399078244463768098e-15 39.18121504066179739 1 I I 0.2449660483375097897 0.9695316576378023576 39.18121504066179739 forward I I I I #
DXID-attrib $-1 -1 $-1 $255 $193 @18 ASM_EDGE_FROM_STEP @3 204 #
DXID-attrib $-1 -1 $-1 $257 $203 @18 ASM_FACE_FROM_STEP @49 LL713049-LL713010-TheTimkenCompany-12-07-2018-274 #
color-adesk-attrib $-1 -1 $313 $258 $231 252 #
coedge $-1 -1 $-1 $262 $262 $260 $289 reversed $291 $-1 #
edge $314 -1 $-1 $268 -1.107494169551764756e-31 $265 3.141592653589793116 $260 $315 forward @14 tangent_not_g2 #
DXID-attrib $-1 -1 $-1 $261 $206 @18 ASM_EDGE_FROM_STEP @3 194 #
loop $-1 -1 $-1 $-1 $288 $311 #
truecolor-adesk-attrib $-1 -1 $316 $-1 $263 -1031634282 #
ellipse-curve $-1 -1 $-1 1.642728125039380049e-15 0 0 -1 0 0 0 2.161797596402643779e-15 35.30599999999999739 1 F -3.141592653589793116 F -1.107494169551764756e-31 #
color-adesk-attrib $-1 -1 $317 $264 $239 252 #
point $-1 -1 $-1 1.637578961322110236e-15 4.323595192805289925e-15 -35.30599999999999739 #
color-adesk-attrib $-1 -1 $318 $267 $240 252 #
point $-1 -1 $-1 1.642728125039380049e-15 2.161797596402639835e-15 35.30599999999999739 #
coedge $-1 -1 $-1 $272 $271 $319 $320 reversed $273 $-1 #
coedge $-1 -1 $-1 $276 $321 $271 $300 reversed $304 $-1 #
edge $322 -1 $-1 $248 -0.7397958130611100858 $323 0.7397958130612088956 $271 $324 forward @2 g2 #
coedge $-1 -1 $-1 $321 $276 $272 $302 reversed $304 $-1 #
edge $325 -1 $-1 $326 -0.7397958130612088956 $251 0.7397958130611100858 $272 $327 forward @2 g2 #
color-adesk-attrib $-1 -1 $328 $274 $245 252 #
loop $-1 -1 $-1 $-1 $299 $329 #
truecolor-adesk-attrib $-1 -1 $330 $-1 $277 -1031634282 #
ellipse-curve $-1 -1 $-1 2.41707936664300016 0 0 -1 0 0 0 2.333922431923549975e-15 38.11710472738690214 1 F 0 F 3.141592653589793116 #
DXID-attrib $-1 -1 $-1 $278 $219 @18 ASM_EDGE_FROM_STEP @3 215 #
DXID-attrib $-1 -1 $-1 $280 $221 @18 ASM_EDGE_FROM_STEP @3 230 #
color-adesk-attrib $-1 -1 $331 $282 $254 252 #
truecolor-adesk-attrib $-1 -1 $332 $-1 $283 -1031634282 #
face $333 -1 $-1 $329 $334 $4 $-1 $335 forward single #
cone-surface $-1 -1 $-1 2.222614550557099999 0 0 -1 0 0 0 2.377627382003909852e-15 38.83088430143440206 1 I I 0.9648332167413066207 0.262862823298812831 38.83088430143440206 forward I I I I #
DXID-attrib $-1 -1 $-1 $287 $231 @18 ASM_FACE_FROM_STEP @49 LL713049-LL713010-TheTimkenCompany-12-07-2018-282 #
truecolor-adesk-attrib $-1 -1 $336 $-1 $289 -1031634282 #
ellipse-curve $-1 -1 $-1 1.642728125039380049e-15 0 0 -1 0 0 0 2.161797596402643779e-15 35.30599999999999739 1 F -1.107494169551764756e-31 F 3.141592653589793116 #
color-adesk-attrib $-1 -1 $337 $292 $263 252 #
DXID-attrib $-1 -1 $-1 $294 $239 @18 ASM_EDGE_FROM_STEP @3 258 #
DXID-attrib $-1 -1 $-1 $296 $240 @18 ASM_EDGE_FROM_STEP @3 248 #
coedge $-1 -1 $-1 $338 $339 $298 $320 forward $340 $-1 #
edge $341 -1 $-1 $326 -3.141592653589793116 $323 -1.387258359578950236e-31 $298 $342 forward @7 unknown #
coedge $-1 -1 $-1 $299 $301 $343 $344 reversed $304 $-1 #
truecolor-adesk-attrib $-1 -1 $345 $-1 $300 -1031634282 #
vertex $-1 -1 $-1 $300 $346 #
straight-curve $-1 -1 $-1 2.222614550557099999 -2.377627382003909852e-15 38.83088430143440206 -0.2628628232988119429 -5.907704438001438716e-17 0.9648332167413070648 F -0.7397958130611100858 F 0.7397958130612088956 #
truecolor-adesk-attrib $-1 -1 $347 $-1 $302 -1031634282 #
vertex $-1 -1 $-1 $320 $348 #
straight-curve $-1 -1 $-1 2.222614550557099999 2.377627382003909852e-15 -38.83088430143440206 0.2628628232988119429 -5.907704438001438716e-17 0.9648332167413070648 F -0.7397958130612088956 F 0.7397958130611100858 #
DXID-attrib $-1 -1 $-1 $303 $245 @18 ASM_EDGE_FROM_STEP @3 224 #
face $349 -1 $-1 $350 $304 $4 $-1 $351 forward single #
color-adesk-attrib $-1 -1 $352 $305 $277 252 #
DXID-attrib $-1 -1 $-1 $309 $254 @18 ASM_FACE_FROM_STEP @49 LL713049-LL713010-TheTimkenCompany-12-07-2018-290 #
color-adesk-attrib $-1 -1 $353 $310 $283 252 #
truecolor-adesk-attrib $-1 -1 $354 $-1 $311 -1031634282 #
loop $-1 -1 $-1 $291 $355 $311 #
plane-surface $-1 -1 $-1 2.032030228561830016e-15 2.291564964243459909e-15 37.42533193774099942 -1 0 0 0 1 0 forward_v I I I I #
color-adesk-attrib $-1 -1 $356 $314 $289 252 #
DXID-attrib $-1 -1 $-1 $316 $263 @18 ASM_EDGE_FROM_STEP @3 265 #
coedge $-1 -1 $-1 $357 $319 $358 $359 forward $340 $-1 #
coedge $-1 -1 $-1 $319 $357 $360 $361 forward $340 $-1 #
loop $-1 -1 $-1 $-1 $338 $350 #
truecolor-adesk-attrib $-1 -1 $362 $-1 $320 -1031634282 #
ellipse-curve $-1 -1 $-1 2.028149734471199839 0 0 -1 0 0 0 2.421332332084276039e-15 39.54466387548200146 1 F -3.141592653589793116 F -1.387258359578950236e-31 #
coedge $-1 -1 $-1 $360 $358 $321 $344 forward $363 $-1 #
edge $364 -1 $-1 $323 -1.387258359578950236e-31 $326 3.141592653589793116 $321 $365 forward @7 unknown #
color-adesk-attrib $-1 -1 $366 $322 $300 252 #
point $-1 -1 $-1 2.028149734471199839 2.421332332084270517e-15 39.54466387548200146 #
color-adesk-attrib $-1 -1 $367 $325 $302 252 #
point $-1 -1 $-1 2.028149734471199839 2.421332332084270517e-15 -39.54466387548200146 #
truecolor-adesk-attrib $-1 -1 $368 $-1 $329 -1031634282 #
face $369 -1 $-1 $370 $340 $4 $-1 $371 forward single #
cone-surface $-1 -1 $-1 2.222614550557099999 0 0 -1 0 0 0 2.377627382003909852e-15 38.83088430143440206 1 I I 0.9648332167413066207 0.262862823298812831 38.83088430143440206 forward I I I I #
DXID-attrib $-1 -1 $-1 $330 $277 @18 ASM_EDGE_FROM_STEP @3 286 #
DXID-attrib $-1 -1 $-1 $332 $283 @18 ASM_FACE_FROM_STEP @49 LL713049-LL713010-TheTimkenCompany-12-07-2018-322 #
color-adesk-attrib $-1 -1 $372 $333 $311 252 #
coedge $-1 -1 $-1 $373 $373 $374 $375 forward $334 $-1 #
DXID-attrib $-1 -1 $-1 $336 $289 @18 ASM_EDGE_FROM_STEP @3 276 #
coedge $-1 -1 $-1 $339 $338 $373 $376 reversed $340 $-1 #
coedge $-1 -1 $-1 $343 $374 $338 $359 reversed $363 $-1 #
edge $377 -1 $-1 $323 -1.014074867235599919 $378 1.014074867235597477 $338 $379 forward @2 g2 #
coedge $-1 -1 $-1 $374 $343 $339 $361 reversed $363 $-1 #
edge $380 -1 $-1 $381 -1.014074867235597477 $326 1.014074867235599919 $339 $382 forward @2 g2 #
color-adesk-attrib $-1 -1 $383 $341 $320 252 #
loop $-1 -1 $-1 $-1 $358 $370 #
truecolor-adesk-attrib $-1 -1 $384 $-1 $344 -1031634282 #
ellipse-curve $-1 -1 $-1 2.028149734471199839 0 0 -1 0 0 0 2.421332332084276039e-15 39.54466387548200146 1 F -1.387258359578950236e-31 F 3.141592653589793116 #
DXID-attrib $-1 -1 $-1 $345 $300 @18 ASM_EDGE_FROM_STEP @3 297 #
DXID-attrib $-1 -1 $-1 $347 $302 @18 ASM_EDGE_FROM_STEP @3 312 #
color-adesk-attrib $-1 -1 $385 $349 $329 252 #
truecolor-adesk-attrib $-1 -1 $386 $-1 $350 -1031634282 #
face $387 -1 $-1 $-1 $363 $4 $-1 $388 forward single #
cone-surface $-1 -1 $-1 1.014074867235599919 0 0 -1 0 0 0 2.421332332084276039e-15 39.54466387548200146 1 I I 0 1 39.54466387548200146 forward I I I I #
DXID-attrib $-1 -1 $-1 $354 $311 @18 ASM_FACE_FROM_STEP @49 LL713049-LL713010-TheTimkenCompany-12-07-2018-347 #
coedge $-1 -1 $-1 $355 $355 $357 $376 forward $334 $-1 #
coedge $-1 -1 $-1 $358 $360 $355 $375 reversed $363 $-1 #
edge $389 -1 $-1 $378 -1.387258359578950236e-31 $381 3.141592653589793116 $355 $390 forward @7 unknown #
edge $391 -1 $-1 $381 -3.141592653589793116 $378 -1.387258359578950236e-31 $373 $392 forward @7 unknown #
truecolor-adesk-attrib $-1 -1 $393 $-1 $359 -1031634282 #
vertex $-1 -1 $-1 $375 $394 #
straight-curve $-1 -1 $-1 1.014074867235599919 -2.421332332084270517e-15 39.54466387548200146 -1 0 0 F -1.014074867235599919 F 1.014074867235597477 #
truecolor-adesk-attrib $-1 -1 $395 $-1 $361 -1031634282 #
vertex $-1 -1 $-1 $375 $396 #
straight-curve $-1 -1 $-1 1.014074867235599919 2.421332332084270517e-15 -39.54466387548200146 1 0 0 F -1.014074867235597477 F 1.014074867235599919 #
DXID-attrib $-1 -1 $-1 $362 $320 @18 ASM_EDGE_FROM_STEP @3 306 #
color-adesk-attrib $-1 -1 $397 $364 $344 252 #
DXID-attrib $-1 -1 $-1 $368 $329 @18 ASM_FACE_FROM_STEP @49 LL713049-LL713010-TheTimkenCompany-12-07-2018-355 #
color-adesk-attrib $-1 -1 $398 $369 $350 252 #
truecolor-adesk-attrib $-1 -1 $399 $-1 $370 -1031634282 #
cone-surface $-1 -1 $-1 1.014074867235599919 0 0 -1 0 0 0 2.421332332084276039e-15 39.54466387548200146 1 I I 0 1 39.54466387548200146 forward I I I I #
truecolor-adesk-attrib $-1 -1 $400 $-1 $375 -1031634282 #
ellipse-curve $-1 -1 $-1 2.421332332084270517e-15 0 0 -1 0 0 0 2.421332332084276039e-15 39.54466387548200146 1 F -1.387258359578950236e-31 F 3.141592653589793116 #
truecolor-adesk-attrib $-1 -1 $401 $-1 $376 -1031634282 #
ellipse-curve $-1 -1 $-1 2.421332332084270517e-15 0 0 -1 0 0 0 2.421332332084276039e-15 39.54466387548200146 1 F -3.141592653589793116 F -1.387258359578950236e-31 #
color-adesk-attrib $-1 -1 $402 $377 $359 252 #
point $-1 -1 $-1 2.421332332084270517e-15 2.421332332084270517e-15 39.54466387548200146 #
color-adesk-attrib $-1 -1 $403 $380 $361 252 #
point $-1 -1 $-1 2.44249065417534005e-15 2.421332332084270517e-15 -39.54466387548200146 #
DXID-attrib $-1 -1 $-1 $384 $344 @18 ASM_EDGE_FROM_STEP @3 351 #
DXID-attrib $-1 -1 $-1 $386 $350 @18 ASM_FACE_FROM_STEP @49 LL713049-LL713010-TheTimkenCompany-12-07-2018-377 #
color-adesk-attrib $-1 -1 $404 $387 $370 252 #
color-adesk-attrib $-1 -1 $405 $389 $375 252 #
color-adesk-attrib $-1 -1 $406 $391 $376 252 #
DXID-attrib $-1 -1 $-1 $393 $359 @18 ASM_EDGE_FROM_STEP @3 360 #
DXID-attrib $-1 -1 $-1 $395 $361 @18 ASM_EDGE_FROM_STEP @3 367 #
DXID-attrib $-1 -1 $-1 $399 $370 @18 ASM_FACE_FROM_STEP @49 LL713049-LL713010-TheTimkenCompany-12-07-2018-384 #
DXID-attrib $-1 -1 $-1 $400 $375 @18 ASM_EDGE_FROM_STEP @3 336 #
DXID-attrib $-1 -1 $-1 $401 $376 @18 ASM_EDGE_FROM_STEP @3 338 #
