700 745 1 0         
16 Autodesk AutoCAD 20 ASM 229.2.0.65535 NT 24 Wed Mar  6 02:15:52 2024 
1 9.999999999999999547e-07 1.000000000000000036e-10 
body $1 -1 $-1 $2 $-1 $3 #
DXID-attrib $-1 -1 $-1 $-1 $0 @18 ASM_BODY_FROM_STEP @83 A5FF8A3E96934655CCD06FDDA4CBB28515C1CA81|:|654F87611FAF4AA5F4C95476A893B3161B904202 #
lump $-1 -1 $-1 $-1 $4 $0 #
transform $-1 -1 1 0 0 0 1 0 0 0 1 0 0 0 1 no_rotate no_reflect no_shear #
shell $-1 -1 $-1 $-1 $-1 $5 $-1 $2 #
face $6 -1 $-1 $7 $8 $4 $-1 $9 reversed single #
color-adesk-attrib $-1 -1 $10 $-1 $5 0 #
face $11 -1 $-1 $12 $13 $4 $-1 $14 reversed single #
loop $-1 -1 $-1 $-1 $15 $5 #
cone-surface $-1 -1 $-1 2.499999999999991118 -5.030698080332740574e-14 9.99999999999998046 1 0 0 0 0 -1.75 1 I I 0.7071067811865431318 0.7071067811865519026 1.75 forward I I I I #
DXID-attrib $-1 -1 $-1 $6 $5 @18 ASM_FACE_FROM_STEP @46 Longshot_Thumbstock_Part_C4_extension_bar-1035 #
color-adesk-attrib $-1 -1 $16 $-1 $7 0 #
face $17 -1 $-1 $18 $19 $4 $-1 $20 forward single #
loop $-1 -1 $-1 $-1 $21 $7 #
cone-surface $-1 -1 $-1 -2.000000000000000888 -5.030698080332740574e-14 9.99999999999998046 1 0 0 0 0 -1.75 1 I I 0 1 1.75 forward I I I I #
coedge $-1 -1 $-1 $22 $23 $24 $25 reversed $8 $-1 #
DXID-attrib $-1 -1 $-1 $11 $7 @18 ASM_FACE_FROM_STEP @44 Longshot_Thumbstock_Part_C4_extension_bar-15 #
color-adesk-attrib $-1 -1 $26 $-1 $12 0 #
face $27 -1 $-1 $28 $29 $4 $-1 $30 forward single #
loop $-1 -1 $-1 $-1 $31 $12 #
torus-surface $-1 -1 $-1 0 0 162 0 0 1 2.999999999999999112 2 1 0 0 forward_v I I I I #
coedge $-1 -1 $-1 $32 $33 $34 $35 reversed $13 $-1 #
coedge $-1 -1 $-1 $36 $15 $37 $38 forward $8 $-1 #
coedge $-1 -1 $-1 $15 $36 $39 $40 reversed $8 $-1 #
coedge $-1 -1 $-1 $33 $32 $15 $25 forward $13 $-1 #
edge $41 -1 $-1 $42 -3.141592653589793116 $43 0 $15 $44 forward @7 unknown #
DXID-attrib $-1 -1 $-1 $17 $12 @18 ASM_FACE_FROM_STEP @45 Longshot_Thumbstock_Part_C4_extension_bar-518 #
color-adesk-attrib $-1 -1 $45 $-1 $18 0 #
face $46 -1 $-1 $47 $48 $4 $-1 $49 forward single #
loop $-1 -1 $-1 $-1 $50 $18 #
cone-surface $-1 -1 $-1 0 0 164.0000000000000284 -0 -0 -1 -4.999999999999999112 0 0 1 I I 0 1 4.999999999999999112 forward I I I I #
coedge $-1 -1 $-1 $51 $52 $50 $53 reversed $19 $-1 #
coedge $-1 -1 $-1 $24 $21 $54 $55 forward $13 $-1 #
coedge $-1 -1 $-1 $21 $24 $56 $57 reversed $13 $-1 #
coedge $-1 -1 $-1 $58 $58 $21 $35 forward $59 $-1 #
edge $60 -1 $-1 $61 -3.141592653589793116 $62 0 $21 $63 forward @7 unknown #
coedge $-1 -1 $-1 $23 $22 $64 $65 reversed $8 $-1 #
coedge $-1 -1 $-1 $66 $67 $22 $38 reversed $68 $-1 #
edge $69 -1 $-1 $42 0 $70 0.0007071067811865553191 $22 $71 forward @2 g2 #
coedge $-1 -1 $-1 $67 $66 $23 $40 forward $68 $-1 #
edge $72 -1 $-1 $43 0 $73 0.0007071067811865544518 $23 $74 forward @2 g2 #
color-adesk-attrib $-1 -1 $75 $-1 $25 0 #
vertex $-1 -1 $-1 $25 $76 #
vertex $-1 -1 $-1 $25 $77 #
ellipse-curve $-1 -1 $-1 2.499999999999991118 -5.030698080332740574e-14 9.99999999999998046 1 0 0 0 0 -1.75 1 F -3.141592653589793116 F 0 #
DXID-attrib $-1 -1 $-1 $27 $18 @18 ASM_FACE_FROM_STEP @45 Longshot_Thumbstock_Part_C4_extension_bar-102 #
color-adesk-attrib $-1 -1 $78 $-1 $28 0 #
face $79 -1 $-1 $80 $81 $4 $-1 $82 reversed single #
loop $-1 -1 $-1 $-1 $83 $28 #
cone-surface $-1 -1 $-1 0 0 164.0000000000000284 -0 -0 -1 -4.999999999999999112 0 0 1 I I 0 1 4.999999999999999112 forward I I I I #
coedge $-1 -1 $-1 $84 $85 $31 $53 forward $29 $-1 #
coedge $-1 -1 $-1 $86 $31 $87 $88 forward $19 $-1 #
coedge $-1 -1 $-1 $31 $86 $89 $90 reversed $19 $-1 #
edge $91 -1 $-1 $92 -3.141592653589793116 $93 -1.224646799147353207e-16 $31 $94 forward @14 tangent_not_g2 #
coedge $-1 -1 $-1 $95 $96 $32 $55 reversed $97 $-1 #
edge $98 -1 $-1 $61 0 $42 0.004499999999999991854 $32 $99 forward @2 g2 #
coedge $-1 -1 $-1 $96 $95 $33 $57 forward $97 $-1 #
edge $100 -1 $-1 $62 0 $43 0.004499999999999991854 $33 $101 forward @2 g2 #
coedge $-1 -1 $-1 $34 $34 $95 $102 forward $59 $-1 #
loop $-1 -1 $-1 $-1 $58 $103 #
color-adesk-attrib $-1 -1 $104 $-1 $35 0 #
vertex $-1 -1 $-1 $35 $105 #
vertex $-1 -1 $-1 $35 $106 #
ellipse-curve $-1 -1 $-1 -2.000000000000000888 -5.030698080332740574e-14 9.99999999999998046 1 0 0 0 0 -1.75 1 F -3.141592653589793116 F 0 #
coedge $-1 -1 $-1 $107 $107 $36 $65 forward $108 $-1 #
edge $109 -1 $-1 $73 0 $70 3.141592653589793116 $36 $110 forward @7 unknown #
coedge $-1 -1 $-1 $39 $37 $96 $111 reversed $68 $-1 #
coedge $-1 -1 $-1 $37 $39 $107 $112 reversed $68 $-1 #
loop $-1 -1 $-1 $-1 $37 $113 #
color-adesk-attrib $-1 -1 $114 $-1 $38 0 #
vertex $-1 -1 $-1 $38 $115 #
straight-curve $-1 -1 $-1 2.499999999999991118 -5.009266761347662554e-14 11.74999999999998046 707.1067811865519843 8.659560562354881129e-14 707.1067811865431167 F 0 F 0.0007071067811865553191 #
color-adesk-attrib $-1 -1 $116 $-1 $40 0 #
vertex $-1 -1 $-1 $65 $117 #
straight-curve $-1 -1 $-1 2.499999999999991118 -5.030698080332740574e-14 8.24999999999998046 707.1067811865519843 0 -707.1067811865431167 F 0 F 0.0007071067811865544518 #
DXID-attrib $-1 -1 $-1 $41 $25 @18 ASM_EDGE_FROM_STEP @3 846 #
point $-1 -1 $-1 2.499999999999991118 -5.009266761347662554e-14 11.74999999999998046 #
point $-1 -1 $-1 2.499999999999991118 -5.030698080332740574e-14 8.24999999999998046 #
DXID-attrib $-1 -1 $-1 $46 $28 @18 ASM_FACE_FROM_STEP @45 Longshot_Thumbstock_Part_C4_extension_bar-621 #
color-adesk-attrib $-1 -1 $118 $-1 $47 0 #
face $119 -1 $-1 $120 $121 $4 $-1 $122 forward single #
loop $-1 -1 $-1 $-1 $123 $47 #
plane-surface $-1 -1 $-1 0 0 0 0 0 1 1 0 0 forward_v I I I I #
coedge $-1 -1 $-1 $124 $125 $84 $126 reversed $48 $-1 #
coedge $-1 -1 $-1 $127 $50 $83 $126 forward $29 $-1 #
coedge $-1 -1 $-1 $50 $128 $129 $130 reversed $29 $-1 #
coedge $-1 -1 $-1 $52 $51 $131 $132 reversed $19 $-1 #
coedge $-1 -1 $-1 $133 $134 $51 $88 reversed $135 $-1 #
edge $136 -1 $-1 $92 0 $137 1.570796326794896558 $51 $138 forward @2 g2 #
coedge $-1 -1 $-1 $134 $133 $52 $90 forward $135 $-1 #
edge $139 -1 $-1 $93 1.570796326794896558 $140 3.141592653589793116 $52 $141 forward @2 g2 #
color-adesk-attrib $-1 -1 $142 $-1 $53 0 #
vertex $-1 -1 $-1 $53 $143 #
vertex $-1 -1 $-1 $53 $144 #
ellipse-curve $-1 -1 $-1 0 0 162 -0 -0 -1 4.999999999999999112 0 0 1 F -3.141592653589793116 F -1.224646799147353207e-16 #
coedge $-1 -1 $-1 $56 $54 $58 $102 reversed $97 $-1 #
coedge $-1 -1 $-1 $54 $56 $66 $111 forward $97 $-1 #
loop $-1 -1 $-1 $-1 $54 $145 #
color-adesk-attrib $-1 -1 $146 $-1 $55 0 #
straight-curve $-1 -1 $-1 -2.000000000000000888 -5.009266761347662554e-14 11.74999999999998046 1000 0 0 F 0 F 0.004499999999999991854 #
color-adesk-attrib $-1 -1 $147 $-1 $57 0 #
straight-curve $-1 -1 $-1 -2.000000000000000888 -5.030698080332740574e-14 8.24999999999998046 1000 0 0 F 0 F 0.004499999999999991854 #
edge $148 -1 $-1 $62 0 $61 3.141592653589793116 $95 $149 forward @7 unknown #
face $150 -1 $-1 $113 $59 $4 $-1 $151 forward single #
DXID-attrib $-1 -1 $-1 $60 $35 @18 ASM_EDGE_FROM_STEP @3 599 #
point $-1 -1 $-1 -2.000000000000000888 -5.009266761347662554e-14 11.74999999999998046 #
point $-1 -1 $-1 -2.000000000000000888 -5.030698080332740574e-14 8.24999999999998046 #
coedge $-1 -1 $-1 $64 $64 $67 $112 forward $108 $-1 #
loop $-1 -1 $-1 $-1 $64 $152 #
color-adesk-attrib $-1 -1 $153 $-1 $65 0 #
ellipse-curve $-1 -1 $-1 2.999999999999999112 -5.030698080332740574e-14 9.99999999999998046 -1 -0 -0 0 0 -2.250000000000001776 1 F 0 F 3.141592653589793116 #
edge $154 -1 $-1 $43 0 $42 3.141592653589793116 $96 $155 forward @7 unknown #
edge $156 -1 $-1 $70 -3.141592653589793116 $73 0 $107 $157 forward @7 unknown #
face $158 -1 $-1 $-1 $68 $4 $-1 $159 reversed single #
DXID-attrib $-1 -1 $-1 $69 $38 @18 ASM_EDGE_FROM_STEP @2 93 #
point $-1 -1 $-1 2.999999999999999112 -5.003143527351925165e-14 12.24999999999998224 #
DXID-attrib $-1 -1 $-1 $72 $40 @18 ASM_EDGE_FROM_STEP @3 630 #
point $-1 -1 $-1 2.999999999999999112 -5.030698080332740574e-14 7.749999999999978684 #
DXID-attrib $-1 -1 $-1 $79 $47 @18 ASM_FACE_FROM_STEP @46 Longshot_Thumbstock_Part_C4_extension_bar-1024 #
color-adesk-attrib $-1 -1 $160 $-1 $80 0 #
face $161 -1 $-1 $162 $163 $4 $-1 $164 reversed single #
loop $-1 -1 $-1 $-1 $131 $80 #
plane-surface $-1 -1 $-1 0 0 164.0000000000000284 0 0 1 1 0 0 forward_v I I I I #
coedge $-1 -1 $-1 $165 $166 $167 $168 reversed $81 $-1 #
coedge $-1 -1 $-1 $129 $83 $133 $169 forward $48 $-1 #
coedge $-1 -1 $-1 $83 $170 $171 $172 forward $48 $-1 #
edge $173 -1 $-1 $93 0.002000000000000028231 $174 0.04250000000000001693 $84 $175 forward @2 g2 #
coedge $-1 -1 $-1 $176 $84 $177 $178 forward $29 $-1 #
coedge $-1 -1 $-1 $85 $179 $166 $180 forward $29 $-1 #
coedge $-1 -1 $-1 $181 $124 $85 $130 forward $48 $-1 #
edge $182 -1 $-1 $92 0.002000000000000028231 $183 0.1640000000000000346 $85 $184 forward @2 g2 #
coedge $-1 -1 $-1 $185 $185 $86 $132 forward $121 $-1 #
edge $186 -1 $-1 $140 0 $137 3.141592653589793116 $86 $187 forward @14 tangent_not_g2 #
coedge $-1 -1 $-1 $89 $87 $124 $169 reversed $135 $-1 #
coedge $-1 -1 $-1 $87 $89 $185 $188 reversed $135 $-1 #
loop $-1 -1 $-1 $-1 $87 $189 #
color-adesk-attrib $-1 -1 $190 $-1 $88 0 #
vertex $-1 -1 $-1 $88 $191 #
ellipse-curve $-1 -1 $-1 -2.999999999999999112 3.673940397442058882e-16 162 1.224646799147353207e-16 1 0 -2 2.449293598294706414e-16 0 1 F 0 F 1.570796326794896558 #
color-adesk-attrib $-1 -1 $192 $-1 $90 0 #
vertex $-1 -1 $-1 $132 $193 #
ellipse-curve $-1 -1 $-1 2.999999999999999112 0 162 0 -1 0 0 0 -2.000000000000001776 1 F 1.570796326794896558 F 3.141592653589793116 #
DXID-attrib $-1 -1 $-1 $91 $53 @18 ASM_EDGE_FROM_STEP @3 516 #
point $-1 -1 $-1 -4.999999999999999112 0 162 #
point $-1 -1 $-1 4.999999999999999112 6.123233995736766282e-16 162 #
face $194 -1 $-1 $103 $97 $4 $-1 $195 reversed single #
DXID-attrib $-1 -1 $-1 $98 $55 @18 ASM_EDGE_FROM_STEP @3 792 #
DXID-attrib $-1 -1 $-1 $100 $57 @18 ASM_EDGE_FROM_STEP @3 369 #
color-adesk-attrib $-1 -1 $196 $-1 $102 0 #
ellipse-curve $-1 -1 $-1 -2.000000000000000888 -5.030698080332740574e-14 9.99999999999998046 1 0 0 0 0 -1.75 1 F 0 F 3.141592653589793116 #
color-adesk-attrib $-1 -1 $197 $-1 $103 0 #
plane-surface $-1 -1 $-1 -2.000000000000000888 -5.030698080332740574e-14 9.99999999999998046 1 0 0 0 0 -1 forward_v I I I I #
face $198 -1 $-1 $145 $199 $4 $-1 $200 forward single #
DXID-attrib $-1 -1 $-1 $109 $65 @18 ASM_EDGE_FROM_STEP @3 950 #
color-adesk-attrib $-1 -1 $201 $-1 $111 0 #
ellipse-curve $-1 -1 $-1 2.499999999999991118 -5.030698080332740574e-14 9.99999999999998046 1 0 0 0 0 -1.75 1 F 0 F 3.141592653589793116 #
color-adesk-attrib $-1 -1 $202 $-1 $112 0 #
ellipse-curve $-1 -1 $-1 2.999999999999999112 -5.030698080332740574e-14 9.99999999999998046 -1 -0 -0 0 0 -2.250000000000001776 1 F -3.141592653589793116 F 0 #
color-adesk-attrib $-1 -1 $203 $-1 $113 0 #
cone-surface $-1 -1 $-1 2.499999999999991118 -5.030698080332740574e-14 9.99999999999998046 1 0 0 0 0 -1.75 1 I I 0.7071067811865431318 0.7071067811865519026 1.75 forward I I I I #
DXID-attrib $-1 -1 $-1 $119 $80 @18 ASM_FACE_FROM_STEP @45 Longshot_Thumbstock_Part_C4_extension_bar-464 #
color-adesk-attrib $-1 -1 $204 $-1 $120 0 #
face $205 -1 $-1 $206 $207 $4 $-1 $208 reversed single #
loop $-1 -1 $-1 $-1 $209 $120 #
plane-surface $-1 -1 $-1 2.999999999999999112 -4.999999999999999112 121.5 -1 0 0 0 0 1 forward_v I I I I #
coedge $-1 -1 $-1 $166 $123 $181 $210 reversed $81 $-1 #
coedge $-1 -1 $-1 $123 $165 $128 $180 reversed $81 $-1 #
coedge $-1 -1 $-1 $211 $212 $123 $168 forward $199 $-1 #
edge $213 -1 $-1 $214 -0.003999999999999999216 $215 0.003999999999999999216 $123 $216 forward @7 unknown #
edge $217 -1 $-1 $93 -1.224646799147353207e-16 $92 3.141592653589793116 $124 $218 forward @14 tangent_not_g2 #
coedge $-1 -1 $-1 $125 $219 $220 $221 forward $48 $-1 #
coedge $-1 -1 $-1 $222 $177 $125 $172 reversed $223 $-1 #
edge $224 -1 $-1 $225 -0.9272952180016122981 $174 1.224646799147353207e-16 $125 $226 forward @7 unknown #
color-adesk-attrib $-1 -1 $227 $-1 $126 0 #
vertex $-1 -1 $-1 $126 $228 #
straight-curve $-1 -1 $-1 4.999999999999999112 6.123233995736766282e-16 164.0000000000000284 -0 -0 -1000 F 0.002000000000000028231 F 0.04250000000000001693 #
coedge $-1 -1 $-1 $229 $127 $230 $231 forward $29 $-1 #
coedge $-1 -1 $-1 $171 $222 $127 $178 reversed $223 $-1 #
edge $232 -1 $-1 $174 1.224646799147353207e-16 $233 0.9272952180016122981 $127 $234 forward @7 unknown #
coedge $-1 -1 $-1 $128 $235 $211 $236 reversed $29 $-1 #
edge $237 -1 $-1 $215 0.9272952180016122981 $183 3.141592653589793116 $128 $238 forward @7 unknown #
coedge $-1 -1 $-1 $239 $129 $165 $210 forward $48 $-1 #
color-adesk-attrib $-1 -1 $240 $-1 $130 0 #
vertex $-1 -1 $-1 $180 $241 #
straight-curve $-1 -1 $-1 -4.999999999999999112 0 164.0000000000000284 -0 -0 -1000 F 0.002000000000000028231 F 0.1640000000000000346 #
coedge $-1 -1 $-1 $131 $131 $134 $188 forward $121 $-1 #
color-adesk-attrib $-1 -1 $242 $-1 $132 0 #
ellipse-curve $-1 -1 $-1 0 0 164.0000000000000284 0 0 1 2.999999999999999112 0 0 1 F 0 F 3.141592653589793116 #
edge $243 -1 $-1 $137 -3.141592653589793116 $140 0 $185 $244 forward @14 tangent_not_g2 #
face $245 -1 $-1 $246 $135 $4 $-1 $247 forward single #
DXID-attrib $-1 -1 $-1 $136 $88 @18 ASM_EDGE_FROM_STEP @3 820 #
point $-1 -1 $-1 -2.999999999999999112 4.898587196589411843e-16 164.0000000000000284 #
DXID-attrib $-1 -1 $-1 $139 $90 @18 ASM_EDGE_FROM_STEP @3 575 #
point $-1 -1 $-1 2.999999999999999112 0 164.0000000000000284 #
color-adesk-attrib $-1 -1 $248 $-1 $145 0 #
cone-surface $-1 -1 $-1 -2.000000000000000888 -5.030698080332740574e-14 9.99999999999998046 1 0 0 0 0 -1.75 1 I I 0 1 1.75 forward I I I I #
DXID-attrib $-1 -1 $-1 $148 $102 @18 ASM_EDGE_FROM_STEP @3 543 #
DXID-attrib $-1 -1 $-1 $150 $103 @18 ASM_FACE_FROM_STEP @45 Longshot_Thumbstock_Part_C4_extension_bar-953 #
color-adesk-attrib $-1 -1 $249 $-1 $152 0 #
loop $-1 -1 $-1 $108 $212 $152 #
plane-surface $-1 -1 $-1 2.999999999999999112 0 0 1 0 0 0 0 -1 forward_v I I I I #
DXID-attrib $-1 -1 $-1 $154 $111 @18 ASM_EDGE_FROM_STEP @3 495 #
DXID-attrib $-1 -1 $-1 $156 $112 @18 ASM_EDGE_FROM_STEP @3 135 #
DXID-attrib $-1 -1 $-1 $158 $113 @18 ASM_FACE_FROM_STEP @45 Longshot_Thumbstock_Part_C4_extension_bar-932 #
DXID-attrib $-1 -1 $-1 $161 $120 @18 ASM_FACE_FROM_STEP @45 Longshot_Thumbstock_Part_C4_extension_bar-719 #
color-adesk-attrib $-1 -1 $250 $-1 $162 0 #
face $251 -1 $-1 $252 $223 $4 $-1 $253 reversed single #
loop $-1 -1 $-1 $-1 $254 $162 #
plane-surface $-1 -1 $-1 2.999999999999999112 -4.999999999999999112 115.4999999999999858 0 0 -1 -1 0 0 forward_v I I I I #
coedge $-1 -1 $-1 $220 $230 $222 $255 reversed $163 $-1 #
edge $256 -1 $-1 $183 -3.141592653589793116 $214 -0.9272952180016122981 $181 $257 forward @7 unknown #
coedge $-1 -1 $-1 $258 $167 $179 $236 forward $199 $-1 #
coedge $-1 -1 $-1 $167 $258 $239 $259 forward $199 $-1 #
color-adesk-attrib $-1 -1 $260 $-1 $168 0 #
vertex $-1 -1 $-1 $210 $261 #
vertex $-1 -1 $-1 $236 $262 #
straight-curve $-1 -1 $-1 2.999999999999999112 0 0 0 1000 0 F -0.003999999999999999216 F 0.003999999999999999216 #
color-adesk-attrib $-1 -1 $263 $-1 $169 0 #
ellipse-curve $-1 -1 $-1 0 0 162 -0 -0 -1 4.999999999999999112 0 0 1 F -1.224646799147353207e-16 F 3.141592653589793116 #
coedge $-1 -1 $-1 $170 $264 $265 $266 forward $48 $-1 #
coedge $-1 -1 $-1 $267 $209 $170 $221 reversed $163 $-1 #
edge $268 -1 $-1 $269 -0.0485000000000000292 $225 -0.04250000000000001693 $170 $270 forward @7 unknown #
coedge $-1 -1 $-1 $177 $171 $209 $255 forward $223 $-1 #
loop $-1 -1 $-1 $-1 $222 $206 #
color-adesk-attrib $-1 -1 $271 $-1 $172 0 #
vertex $-1 -1 $-1 $221 $272 #
ellipse-curve $-1 -1 $-1 0 0 121.5 0 0 1 4.999999999999999112 0 0 1 F -0.9272952180016122981 F 1.224646799147353207e-16 #
DXID-attrib $-1 -1 $-1 $173 $126 @18 ASM_EDGE_FROM_STEP @3 872 #
point $-1 -1 $-1 4.999999999999999112 6.123233995736766282e-16 121.5 #
coedge $-1 -1 $-1 $273 $176 $274 $275 forward $29 $-1 #
coedge $-1 -1 $-1 $209 $267 $176 $231 reversed $163 $-1 #
edge $276 -1 $-1 $233 0.04250000000000001693 $277 0.0485000000000000292 $176 $278 forward @7 unknown #
color-adesk-attrib $-1 -1 $279 $-1 $178 0 #
vertex $-1 -1 $-1 $178 $280 #
ellipse-curve $-1 -1 $-1 0 0 121.5 0 0 1 4.999999999999999112 0 0 1 F 1.224646799147353207e-16 F 0.9272952180016122981 #
coedge $-1 -1 $-1 $179 $281 $282 $283 reversed $29 $-1 #
edge $284 -1 $-1 $215 -0.1640000000000000346 $285 -0.1390000000000000124 $179 $286 forward @7 unknown #
color-adesk-attrib $-1 -1 $287 $-1 $180 0 #
ellipse-curve $-1 -1 $-1 0 0 0 0 0 1 4.999999999999999112 0 0 1 F 0.9272952180016122981 F 3.141592653589793116 #
coedge $-1 -1 $-1 $288 $181 $212 $259 reversed $48 $-1 #
DXID-attrib $-1 -1 $-1 $182 $130 @18 ASM_EDGE_FROM_STEP @2 70 #
point $-1 -1 $-1 -4.999999999999999112 0 0 #
DXID-attrib $-1 -1 $-1 $186 $132 @18 ASM_EDGE_FROM_STEP @3 260 #
color-adesk-attrib $-1 -1 $289 $-1 $188 0 #
ellipse-curve $-1 -1 $-1 0 0 164.0000000000000284 0 0 1 2.999999999999999112 0 0 1 F -3.141592653589793116 F 0 #
color-adesk-attrib $-1 -1 $290 $-1 $189 0 #
face $291 -1 $-1 $152 $292 $4 $-1 $293 forward single #
torus-surface $-1 -1 $-1 0 0 162 0 0 1 2.999999999999999112 2 1 0 0 forward_v I I I I #
DXID-attrib $-1 -1 $-1 $194 $145 @18 ASM_FACE_FROM_STEP @45 Longshot_Thumbstock_Part_C4_extension_bar-879 #
DXID-attrib $-1 -1 $-1 $198 $152 @18 ASM_FACE_FROM_STEP @45 Longshot_Thumbstock_Part_C4_extension_bar-717 #
DXID-attrib $-1 -1 $-1 $205 $162 @18 ASM_FACE_FROM_STEP @45 Longshot_Thumbstock_Part_C4_extension_bar-801 #
color-adesk-attrib $-1 -1 $294 $-1 $206 0 #
face $295 -1 $-1 $296 $297 $4 $-1 $298 reversed single #
plane-surface $-1 -1 $-1 2.999999999999999112 -4.999999999999999112 121.5 0 0 1 1 0 0 forward_v I I I I #
coedge $-1 -1 $-1 $265 $274 $267 $299 reversed $207 $-1 #
edge $300 -1 $-1 $225 0.001000000000000000238 $233 0.00899999999999999932 $209 $301 forward @7 unknown #
color-adesk-attrib $-1 -1 $302 $-1 $210 0 #
ellipse-curve $-1 -1 $-1 0 0 0 0 0 1 4.999999999999999112 0 0 1 F -3.141592653589793116 F -0.9272952180016122981 #
coedge $-1 -1 $-1 $212 $211 $303 $304 forward $199 $-1 #
edge $305 -1 $-1 $306 0.1390000000000000124 $214 0.1640000000000000346 $239 $307 forward @7 unknown #
DXID-attrib $-1 -1 $-1 $213 $168 @18 ASM_EDGE_FROM_STEP @3 991 #
point $-1 -1 $-1 2.999999999999999112 -3.999999999999999112 0 #
point $-1 -1 $-1 2.999999999999999112 3.999999999999999112 0 #
DXID-attrib $-1 -1 $-1 $217 $169 @18 ASM_EDGE_FROM_STEP @3 895 #
coedge $-1 -1 $-1 $219 $308 $273 $309 reversed $48 $-1 #
coedge $-1 -1 $-1 $274 $254 $219 $266 reversed $207 $-1 #
edge $310 -1 $-1 $311 -3.141592653589793116 $269 -2.214297435588180818 $219 $312 forward @7 unknown #
coedge $-1 -1 $-1 $230 $220 $254 $299 forward $163 $-1 #
color-adesk-attrib $-1 -1 $313 $-1 $221 0 #
vertex $-1 -1 $-1 $266 $314 #
straight-curve $-1 -1 $-1 2.999999999999999112 -3.999999999999999112 164.0000000000000284 0 0 1000 F -0.0485000000000000292 F -0.04250000000000001693 #
DXID-attrib $-1 -1 $-1 $224 $172 @18 ASM_EDGE_FROM_STEP @3 560 #
point $-1 -1 $-1 2.999999999999999112 -3.999999999999999112 121.5 #
coedge $-1 -1 $-1 $315 $229 $264 $309 forward $29 $-1 #
coedge $-1 -1 $-1 $254 $265 $229 $275 reversed $207 $-1 #
edge $316 -1 $-1 $277 2.214297435588180818 $311 3.141592653589793116 $229 $317 forward @7 unknown #
color-adesk-attrib $-1 -1 $318 $-1 $231 0 #
vertex $-1 -1 $-1 $231 $319 #
straight-curve $-1 -1 $-1 2.999999999999999112 3.999999999999999112 164.0000000000000284 -0 -0 -1000 F 0.04250000000000001693 F 0.0485000000000000292 #
DXID-attrib $-1 -1 $-1 $232 $178 @18 ASM_EDGE_FROM_STEP @3 522 #
point $-1 -1 $-1 2.999999999999999112 3.999999999999999112 121.5 #
coedge $-1 -1 $-1 $235 $320 $321 $322 forward $29 $-1 #
coedge $-1 -1 $-1 $323 $303 $235 $283 forward $292 $-1 #
edge $324 -1 $-1 $285 2.214297435588180818 $325 3.141592653589793116 $235 $326 forward @7 unknown #
color-adesk-attrib $-1 -1 $327 $-1 $236 0 #
vertex $-1 -1 $-1 $283 $328 #
straight-curve $-1 -1 $-1 2.999999999999999112 3.999999999999999112 164.0000000000000284 0 0 1000 F -0.1640000000000000346 F -0.1390000000000000124 #
DXID-attrib $-1 -1 $-1 $237 $180 @18 ASM_EDGE_FROM_STEP @3 401 #
coedge $-1 -1 $-1 $321 $239 $323 $329 reversed $48 $-1 #
DXID-attrib $-1 -1 $-1 $243 $188 @18 ASM_EDGE_FROM_STEP @3 695 #
DXID-attrib $-1 -1 $-1 $245 $189 @18 ASM_FACE_FROM_STEP @46 Longshot_Thumbstock_Part_C4_extension_bar-1105 #
color-adesk-attrib $-1 -1 $330 $-1 $246 0 #
loop $-1 -1 $-1 $-1 $282 $246 #
plane-surface $-1 -1 $-1 4.999999999999999112 -4.999999999999999112 25 0 0 -1 -1 0 0 forward_v I I I I #
DXID-attrib $-1 -1 $-1 $251 $206 @18 ASM_FACE_FROM_STEP @45 Longshot_Thumbstock_Part_C4_extension_bar-606 #
color-adesk-attrib $-1 -1 $331 $-1 $252 0 #
face $332 -1 $-1 $333 $334 $4 $-1 $335 reversed single #
loop $-1 -1 $-1 $-1 $336 $252 #
plane-surface $-1 -1 $-1 2.999999999999999112 -4.999999999999999112 33.99999999999998579 -1 0 0 0 0 1 forward_v I I I I #
edge $337 -1 $-1 $269 0.001000000000000000238 $277 0.00899999999999999932 $267 $338 forward @7 unknown #
color-adesk-attrib $-1 -1 $339 $-1 $255 0 #
straight-curve $-1 -1 $-1 2.999999999999999112 -4.999999999999999112 121.5 0 1000 0 F 0.001000000000000000238 F 0.00899999999999999932 #
DXID-attrib $-1 -1 $-1 $256 $210 @18 ASM_EDGE_FROM_STEP @3 698 #
coedge $-1 -1 $-1 $282 $323 $258 $304 reversed $292 $-1 #
edge $340 -1 $-1 $285 -0.008999999999999997585 $306 -0.001000000000000000238 $303 $341 forward @7 unknown #
color-adesk-attrib $-1 -1 $342 $-1 $259 0 #
vertex $-1 -1 $-1 $259 $343 #
straight-curve $-1 -1 $-1 2.999999999999999112 -3.999999999999999112 164.0000000000000284 -0 -0 -1000 F 0.1390000000000000124 F 0.1640000000000000346 #
coedge $-1 -1 $-1 $264 $344 $345 $346 forward $48 $-1 #
edge $347 -1 $-1 $311 0.0485000000000000292 $348 0.0600000000000000186 $273 $349 forward @2 g2 #
color-adesk-attrib $-1 -1 $350 $-1 $266 0 #
vertex $-1 -1 $-1 $275 $351 #
ellipse-curve $-1 -1 $-1 0 0 115.4999999999999858 0 0 -1 -4.999999999999999112 0 0 1 F -3.141592653589793116 F -2.214297435588180818 #
DXID-attrib $-1 -1 $-1 $268 $221 @18 ASM_EDGE_FROM_STEP @3 125 #
point $-1 -1 $-1 2.999999999999999112 -3.999999999999999112 115.4999999999999858 #
coedge $-1 -1 $-1 $352 $273 $353 $354 forward $29 $-1 #
color-adesk-attrib $-1 -1 $355 $-1 $275 0 #
ellipse-curve $-1 -1 $-1 0 0 115.4999999999999858 0 0 -1 -4.999999999999999112 0 0 1 F 2.214297435588180818 F 3.141592653589793116 #
DXID-attrib $-1 -1 $-1 $276 $231 @18 ASM_EDGE_FROM_STEP @3 435 #
point $-1 -1 $-1 2.999999999999999112 3.999999999999999112 115.4999999999999858 #
coedge $-1 -1 $-1 $281 $356 $357 $358 forward $29 $-1 #
coedge $-1 -1 $-1 $359 $288 $281 $322 reversed $48 $-1 #
edge $360 -1 $-1 $361 0.1360000000000000098 $325 0.1390000000000000124 $281 $362 forward @2 g2 #
coedge $-1 -1 $-1 $303 $282 $288 $329 forward $292 $-1 #
color-adesk-attrib $-1 -1 $363 $-1 $283 0 #
vertex $-1 -1 $-1 $322 $364 #
ellipse-curve $-1 -1 $-1 0 0 24.99999999999999645 0 0 -1 -4.999999999999999112 0 0 1 F 2.214297435588180818 F 3.141592653589793116 #
DXID-attrib $-1 -1 $-1 $284 $236 @18 ASM_EDGE_FROM_STEP @3 678 #
point $-1 -1 $-1 2.999999999999999112 3.999999999999998668 25 #
edge $365 -1 $-1 $325 -3.141592653589793116 $306 -2.214297435588180818 $288 $366 forward @7 unknown #
DXID-attrib $-1 -1 $-1 $291 $246 @18 ASM_FACE_FROM_STEP @45 Longshot_Thumbstock_Part_C4_extension_bar-150 #
DXID-attrib $-1 -1 $-1 $295 $252 @18 ASM_FACE_FROM_STEP @45 Longshot_Thumbstock_Part_C4_extension_bar-782 #
color-adesk-attrib $-1 -1 $367 $-1 $296 0 #
face $368 -1 $-1 $369 $370 $4 $-1 $371 reversed single #
loop $-1 -1 $-1 $-1 $372 $296 #
plane-surface $-1 -1 $-1 2.999999999999999112 -4.999999999999999112 27.99999999999998579 0 0 -1 -1 0 0 forward_v I I I I #
coedge $-1 -1 $-1 $373 $374 $375 $376 reversed $297 $-1 #
color-adesk-attrib $-1 -1 $377 $-1 $299 0 #
straight-curve $-1 -1 $-1 2.999999999999999112 -4.999999999999999112 115.4999999999999858 0 1000 0 F 0.001000000000000000238 F 0.00899999999999999932 #
DXID-attrib $-1 -1 $-1 $300 $255 @18 ASM_EDGE_FROM_STEP @3 930 #
color-adesk-attrib $-1 -1 $378 $-1 $304 0 #
straight-curve $-1 -1 $-1 2.999999999999999112 -4.999999999999999112 25 -0 -1000 -0 F -0.008999999999999997585 F -0.001000000000000000238 #
DXID-attrib $-1 -1 $-1 $305 $259 @18 ASM_EDGE_FROM_STEP @2 67 #
point $-1 -1 $-1 2.999999999999999112 -3.999999999999999112 25 #
coedge $-1 -1 $-1 $308 $379 $380 $381 forward $48 $-1 #
coedge $-1 -1 $-1 $382 $353 $308 $346 reversed $383 $-1 #
edge $384 -1 $-1 $385 -0.9272952180016122981 $348 1.224646799147353207e-16 $308 $386 forward @7 unknown #
color-adesk-attrib $-1 -1 $387 $-1 $309 0 #
vertex $-1 -1 $-1 $309 $388 #
straight-curve $-1 -1 $-1 4.999999999999999112 6.123233995736766282e-16 164.0000000000000284 -0 -0 -1000 F 0.0485000000000000292 F 0.0600000000000000186 #
DXID-attrib $-1 -1 $-1 $310 $266 @18 ASM_EDGE_FROM_STEP @3 351 #
point $-1 -1 $-1 4.999999999999999112 6.123233995736766282e-16 115.4999999999999858 #
coedge $-1 -1 $-1 $389 $315 $390 $391 forward $29 $-1 #
coedge $-1 -1 $-1 $345 $382 $315 $354 reversed $383 $-1 #
edge $392 -1 $-1 $348 1.224646799147353207e-16 $393 0.9272952180016122981 $315 $394 forward @7 unknown #
DXID-attrib $-1 -1 $-1 $316 $275 @18 ASM_EDGE_FROM_STEP @3 954 #
coedge $-1 -1 $-1 $320 $395 $374 $396 forward $29 $-1 #
coedge $-1 -1 $-1 $372 $397 $320 $358 reversed $334 $-1 #
edge $398 -1 $-1 $399 2.214297435588180818 $361 3.141592653589793116 $320 $400 forward @7 unknown #
coedge $-1 -1 $-1 $401 $321 $397 $402 forward $48 $-1 #
color-adesk-attrib $-1 -1 $403 $-1 $322 0 #
vertex $-1 -1 $-1 $358 $404 #
straight-curve $-1 -1 $-1 4.999999999999999112 6.123233995736766282e-16 164.0000000000000284 -0 -0 -1000 F 0.1360000000000000098 F 0.1390000000000000124 #
DXID-attrib $-1 -1 $-1 $324 $283 @18 ASM_EDGE_FROM_STEP @3 281 #
point $-1 -1 $-1 4.999999999999999112 6.123233995736766282e-16 24.99999999999999645 #
color-adesk-attrib $-1 -1 $405 $-1 $329 0 #
ellipse-curve $-1 -1 $-1 0 0 24.99999999999999645 0 0 -1 -4.999999999999999112 0 0 1 F -3.141592653589793116 F -2.214297435588180818 #
DXID-attrib $-1 -1 $-1 $332 $296 @18 ASM_FACE_FROM_STEP @45 Longshot_Thumbstock_Part_C4_extension_bar-958 #
color-adesk-attrib $-1 -1 $406 $-1 $333 0 #
face $407 -1 $-1 $408 $409 $4 $-1 $410 reversed single #
loop $-1 -1 $-1 $-1 $375 $333 #
plane-surface $-1 -1 $-1 2.999999999999999112 -4.999999999999999112 33.99999999999998579 0 0 1 1 0 0 forward_v I I I I #
coedge $-1 -1 $-1 $397 $357 $411 $412 reversed $334 $-1 #
coedge $-1 -1 $-1 $411 $336 $401 $413 reversed $297 $-1 #
coedge $-1 -1 $-1 $336 $411 $356 $396 reversed $297 $-1 #
coedge $-1 -1 $-1 $414 $415 $336 $376 forward $370 $-1 #
edge $416 -1 $-1 $417 0.001000000000000000238 $418 0.00899999999999999932 $336 $419 forward @7 unknown #
DXID-attrib $-1 -1 $-1 $337 $299 @18 ASM_EDGE_FROM_STEP @3 321 #
DXID-attrib $-1 -1 $-1 $340 $304 @18 ASM_EDGE_FROM_STEP @3 670 #
coedge $-1 -1 $-1 $344 $420 $421 $422 forward $48 $-1 #
coedge $-1 -1 $-1 $423 $424 $344 $381 reversed $425 $-1 #
edge $426 -1 $-1 $427 -0.06600000000000003086 $385 -0.0600000000000000186 $344 $428 forward @7 unknown #
coedge $-1 -1 $-1 $353 $345 $424 $429 forward $383 $-1 #
loop $-1 -1 $-1 $-1 $382 $430 #
color-adesk-attrib $-1 -1 $431 $-1 $346 0 #
vertex $-1 -1 $-1 $381 $432 #
ellipse-curve $-1 -1 $-1 0 0 104 0 0 1 4.999999999999999112 0 0 1 F -0.9272952180016122981 F 1.224646799147353207e-16 #
DXID-attrib $-1 -1 $-1 $347 $309 @18 ASM_EDGE_FROM_STEP @3 313 #
point $-1 -1 $-1 4.999999999999999112 6.123233995736766282e-16 104 #
coedge $-1 -1 $-1 $433 $352 $434 $435 forward $29 $-1 #
coedge $-1 -1 $-1 $424 $423 $352 $391 reversed $425 $-1 #
edge $436 -1 $-1 $393 0.0600000000000000186 $437 0.06600000000000003086 $352 $438 forward @7 unknown #
color-adesk-attrib $-1 -1 $439 $-1 $354 0 #
vertex $-1 -1 $-1 $354 $440 #
ellipse-curve $-1 -1 $-1 0 0 104 0 0 1 4.999999999999999112 0 0 1 F 1.224646799147353207e-16 F 0.9272952180016122981 #
coedge $-1 -1 $-1 $356 $441 $414 $442 forward $29 $-1 #
edge $443 -1 $-1 $418 0.1300000000000000044 $399 0.1360000000000000098 $356 $444 forward @7 unknown #
coedge $-1 -1 $-1 $357 $372 $359 $402 reversed $334 $-1 #
color-adesk-attrib $-1 -1 $445 $-1 $358 0 #
vertex $-1 -1 $-1 $396 $446 #
ellipse-curve $-1 -1 $-1 0 0 28 0 0 -1 -4.999999999999999112 0 0 1 F 2.214297435588180818 F 3.141592653589793116 #
coedge $-1 -1 $-1 $447 $359 $373 $413 forward $48 $-1 #
edge $448 -1 $-1 $361 -3.141592653589793116 $449 -2.214297435588180818 $359 $450 forward @7 unknown #
DXID-attrib $-1 -1 $-1 $360 $322 @18 ASM_EDGE_FROM_STEP @4 1018 #
point $-1 -1 $-1 4.999999999999999112 6.123233995736766282e-16 28 #
DXID-attrib $-1 -1 $-1 $365 $329 @18 ASM_EDGE_FROM_STEP @3 904 #
DXID-attrib $-1 -1 $-1 $368 $333 @18 ASM_FACE_FROM_STEP @45 Longshot_Thumbstock_Part_C4_extension_bar-168 #
color-adesk-attrib $-1 -1 $451 $-1 $369 0 #
face $452 -1 $-1 $453 $454 $4 $-1 $455 reversed single #
loop $-1 -1 $-1 $-1 $456 $369 #
plane-surface $-1 -1 $-1 2.999999999999999112 -4.999999999999999112 51.49999999999999289 -1 0 0 0 0 1 forward_v I I I I #
coedge $-1 -1 $-1 $374 $373 $372 $412 forward $297 $-1 #
edge $457 -1 $-1 $449 0.001000000000000000238 $399 0.00899999999999999932 $411 $458 forward @7 unknown #
edge $459 -1 $-1 $449 -0.1360000000000000098 $417 -0.1300000000000000044 $401 $460 forward @7 unknown #
coedge $-1 -1 $-1 $415 $375 $395 $442 reversed $370 $-1 #
coedge $-1 -1 $-1 $375 $414 $447 $461 reversed $370 $-1 #
color-adesk-attrib $-1 -1 $462 $-1 $376 0 #
vertex $-1 -1 $-1 $413 $463 #
vertex $-1 -1 $-1 $442 $464 #
straight-curve $-1 -1 $-1 2.999999999999999112 -4.999999999999999112 33.99999999999998579 0 1000 0 F 0.001000000000000000238 F 0.00899999999999999932 #
coedge $-1 -1 $-1 $379 $465 $433 $466 reversed $48 $-1 #
coedge $-1 -1 $-1 $434 $467 $379 $422 reversed $468 $-1 #
edge $469 -1 $-1 $470 -3.141592653589793116 $427 -2.214297435588180818 $379 $471 forward @7 unknown #
coedge $-1 -1 $-1 $390 $380 $467 $472 forward $425 $-1 #
coedge $-1 -1 $-1 $380 $390 $382 $429 reversed $425 $-1 #
loop $-1 -1 $-1 $-1 $424 $473 #
color-adesk-attrib $-1 -1 $474 $-1 $381 0 #
vertex $-1 -1 $-1 $422 $475 #
straight-curve $-1 -1 $-1 2.999999999999999112 -3.999999999999999112 164.0000000000000284 0 0 1000 F -0.06600000000000003086 F -0.0600000000000000186 #
edge $476 -1 $-1 $385 0.001000000000000000238 $393 0.00899999999999999932 $424 $477 forward @7 unknown #
face $478 -1 $-1 $189 $383 $4 $-1 $479 reversed single #
DXID-attrib $-1 -1 $-1 $384 $346 @18 ASM_EDGE_FROM_STEP @3 624 #
point $-1 -1 $-1 2.999999999999999112 -3.999999999999999112 104 #
coedge $-1 -1 $-1 $480 $389 $420 $466 forward $29 $-1 #
coedge $-1 -1 $-1 $467 $421 $389 $435 reversed $468 $-1 #
edge $481 -1 $-1 $437 2.214297435588180818 $470 3.141592653589793116 $389 $482 forward @7 unknown #
color-adesk-attrib $-1 -1 $483 $-1 $391 0 #
vertex $-1 -1 $-1 $391 $484 #
straight-curve $-1 -1 $-1 2.999999999999999112 3.999999999999999112 164.0000000000000284 -0 -0 -1000 F 0.0600000000000000186 F 0.06600000000000003086 #
DXID-attrib $-1 -1 $-1 $392 $354 @18 ASM_EDGE_FROM_STEP @3 841 #
point $-1 -1 $-1 2.999999999999999112 3.999999999999999112 104 #
coedge $-1 -1 $-1 $395 $485 $486 $487 forward $29 $-1 #
edge $488 -1 $-1 $489 1.224646799147353207e-16 $418 0.9272952180016122981 $395 $490 forward @7 unknown #
color-adesk-attrib $-1 -1 $491 $-1 $396 0 #
straight-curve $-1 -1 $-1 2.999999999999999112 3.999999999999999112 164.0000000000000284 -0 -0 -1000 F 0.1300000000000000044 F 0.1360000000000000098 #
DXID-attrib $-1 -1 $-1 $398 $358 @18 ASM_EDGE_FROM_STEP @3 731 #
point $-1 -1 $-1 2.999999999999999112 3.999999999999999112 28 #
coedge $-1 -1 $-1 $486 $401 $415 $461 forward $48 $-1 #
color-adesk-attrib $-1 -1 $492 $-1 $402 0 #
vertex $-1 -1 $-1 $402 $493 #
ellipse-curve $-1 -1 $-1 0 0 28 0 0 -1 -4.999999999999999112 0 0 1 F -3.141592653589793116 F -2.214297435588180818 #
DXID-attrib $-1 -1 $-1 $407 $369 @18 ASM_FACE_FROM_STEP @45 Longshot_Thumbstock_Part_C4_extension_bar-938 #
color-adesk-attrib $-1 -1 $494 $-1 $408 0 #
face $495 -1 $-1 $496 $497 $4 $-1 $498 reversed single #
loop $-1 -1 $-1 $-1 $499 $408 #
plane-surface $-1 -1 $-1 2.999999999999999112 -4.999999999999999112 45.49999999999998579 0 0 -1 -1 0 0 forward_v I I I I #
coedge $-1 -1 $-1 $500 $501 $502 $503 reversed $409 $-1 #
color-adesk-attrib $-1 -1 $504 $-1 $412 0 #
straight-curve $-1 -1 $-1 2.999999999999999112 -4.999999999999999112 27.99999999999998579 0 1000 0 F 0.001000000000000000238 F 0.00899999999999999932 #
color-adesk-attrib $-1 -1 $505 $-1 $413 0 #
straight-curve $-1 -1 $-1 2.999999999999999112 -3.999999999999999112 164.0000000000000284 0 0 1000 F -0.1360000000000000098 F -0.1300000000000000044 #
edge $506 -1 $-1 $417 -0.9272952180016122981 $489 1.224646799147353207e-16 $447 $507 forward @7 unknown #
DXID-attrib $-1 -1 $-1 $416 $376 @18 ASM_EDGE_FROM_STEP @3 983 #
point $-1 -1 $-1 2.999999999999999112 -3.999999999999999112 34 #
point $-1 -1 $-1 2.999999999999999112 3.999999999999999112 34 #
coedge $-1 -1 $-1 $420 $508 $509 $510 forward $48 $-1 #
edge $511 -1 $-1 $470 0.06600000000000003086 $512 0.07750000000000001332 $433 $513 forward @2 g2 #
coedge $-1 -1 $-1 $421 $434 $423 $472 reversed $468 $-1 #
loop $-1 -1 $-1 $-1 $467 $514 #
color-adesk-attrib $-1 -1 $515 $-1 $422 0 #
vertex $-1 -1 $-1 $435 $516 #
ellipse-curve $-1 -1 $-1 0 0 97.99999999999998579 0 0 -1 -4.999999999999999112 0 0 1 F -3.141592653589793116 F -2.214297435588180818 #
edge $517 -1 $-1 $427 0.001000000000000000238 $437 0.00899999999999999932 $423 $518 forward @7 unknown #
face $519 -1 $-1 $514 $425 $4 $-1 $520 reversed single #
DXID-attrib $-1 -1 $-1 $426 $381 @18 ASM_EDGE_FROM_STEP @4 1045 #
point $-1 -1 $-1 2.999999999999999112 -3.999999999999999112 97.99999999999998579 #
color-adesk-attrib $-1 -1 $521 $-1 $429 0 #
straight-curve $-1 -1 $-1 2.999999999999999112 -4.999999999999999112 104 0 1000 0 F 0.001000000000000000238 F 0.00899999999999999932 #
color-adesk-attrib $-1 -1 $522 $-1 $430 0 #
plane-surface $-1 -1 $-1 2.999999999999999112 -4.999999999999999112 104 0 0 1 1 0 0 forward_v I I I I #
coedge $-1 -1 $-1 $523 $433 $524 $525 forward $29 $-1 #
color-adesk-attrib $-1 -1 $526 $-1 $435 0 #
ellipse-curve $-1 -1 $-1 0 0 97.99999999999998579 0 0 -1 -4.999999999999999112 0 0 1 F 2.214297435588180818 F 3.141592653589793116 #
DXID-attrib $-1 -1 $-1 $436 $391 @18 ASM_EDGE_FROM_STEP @1 7 #
point $-1 -1 $-1 2.999999999999999112 3.999999999999999112 97.99999999999998579 #
coedge $-1 -1 $-1 $441 $527 $528 $529 forward $29 $-1 #
coedge $-1 -1 $-1 $530 $447 $441 $487 reversed $48 $-1 #
edge $531 -1 $-1 $532 0.1185000000000000359 $489 0.1300000000000000044 $441 $533 forward @2 g2 #
color-adesk-attrib $-1 -1 $534 $-1 $442 0 #
vertex $-1 -1 $-1 $487 $535 #
ellipse-curve $-1 -1 $-1 0 0 34 0 0 1 4.999999999999999112 0 0 1 F 1.224646799147353207e-16 F 0.9272952180016122981 #
DXID-attrib $-1 -1 $-1 $443 $396 @18 ASM_EDGE_FROM_STEP @3 197 #
DXID-attrib $-1 -1 $-1 $448 $402 @18 ASM_EDGE_FROM_STEP @4 1076 #
point $-1 -1 $-1 2.999999999999999112 -3.999999999999999112 28 #
DXID-attrib $-1 -1 $-1 $452 $408 @18 ASM_FACE_FROM_STEP @46 Longshot_Thumbstock_Part_C4_extension_bar-1062 #
color-adesk-attrib $-1 -1 $536 $-1 $453 0 #
face $537 -1 $-1 $538 $539 $4 $-1 $540 reversed single #
loop $-1 -1 $-1 $-1 $502 $453 #
plane-surface $-1 -1 $-1 2.999999999999999112 -4.999999999999999112 51.49999999999999289 0 0 1 1 0 0 forward_v I I I I #
coedge $-1 -1 $-1 $541 $528 $542 $543 reversed $454 $-1 #
coedge $-1 -1 $-1 $542 $456 $544 $545 reversed $409 $-1 #
coedge $-1 -1 $-1 $456 $542 $527 $546 reversed $409 $-1 #
coedge $-1 -1 $-1 $547 $548 $456 $503 forward $497 $-1 #
edge $549 -1 $-1 $550 0.001000000000000000238 $551 0.00899999999999999932 $456 $552 forward @7 unknown #
DXID-attrib $-1 -1 $-1 $457 $412 @18 ASM_EDGE_FROM_STEP @3 766 #
DXID-attrib $-1 -1 $-1 $459 $413 @18 ASM_EDGE_FROM_STEP @3 618 #
color-adesk-attrib $-1 -1 $553 $-1 $461 0 #
ellipse-curve $-1 -1 $-1 0 0 34 0 0 1 4.999999999999999112 0 0 1 F -0.9272952180016122981 F 1.224646799147353207e-16 #
coedge $-1 -1 $-1 $465 $554 $555 $556 forward $48 $-1 #
coedge $-1 -1 $-1 $557 $524 $465 $510 reversed $558 $-1 #
edge $559 -1 $-1 $560 -0.9272952180016122981 $512 1.224646799147353207e-16 $465 $561 forward @7 unknown #
color-adesk-attrib $-1 -1 $562 $-1 $466 0 #
vertex $-1 -1 $-1 $466 $563 #
straight-curve $-1 -1 $-1 4.999999999999999112 6.123233995736766282e-16 164.0000000000000284 -0 -0 -1000 F 0.06600000000000003086 F 0.07750000000000001332 #
face $564 -1 $-1 $430 $468 $4 $-1 $565 reversed single #
DXID-attrib $-1 -1 $-1 $469 $422 @18 ASM_EDGE_FROM_STEP @3 703 #
point $-1 -1 $-1 4.999999999999999112 6.123233995736766282e-16 97.99999999999998579 #
color-adesk-attrib $-1 -1 $566 $-1 $472 0 #
straight-curve $-1 -1 $-1 2.999999999999999112 -4.999999999999999112 97.99999999999998579 0 1000 0 F 0.001000000000000000238 F 0.00899999999999999932 #
color-adesk-attrib $-1 -1 $567 $-1 $473 0 #
plane-surface $-1 -1 $-1 2.999999999999999112 -4.999999999999999112 104 -1 0 0 0 0 1 forward_v I I I I #
DXID-attrib $-1 -1 $-1 $476 $429 @18 ASM_EDGE_FROM_STEP @4 1012 #
DXID-attrib $-1 -1 $-1 $478 $430 @18 ASM_FACE_FROM_STEP @45 Longshot_Thumbstock_Part_C4_extension_bar-789 #
coedge $-1 -1 $-1 $568 $480 $569 $570 forward $29 $-1 #
coedge $-1 -1 $-1 $509 $557 $480 $525 reversed $558 $-1 #
edge $571 -1 $-1 $512 1.224646799147353207e-16 $572 0.9272952180016122981 $480 $573 forward @7 unknown #
DXID-attrib $-1 -1 $-1 $481 $435 @18 ASM_EDGE_FROM_STEP @2 12 #
coedge $-1 -1 $-1 $485 $574 $501 $546 forward $29 $-1 #
coedge $-1 -1 $-1 $499 $541 $485 $529 reversed $454 $-1 #
edge $575 -1 $-1 $576 2.214297435588180818 $532 3.141592653589793116 $485 $577 forward @7 unknown #
coedge $-1 -1 $-1 $544 $486 $541 $578 forward $48 $-1 #
color-adesk-attrib $-1 -1 $579 $-1 $487 0 #
vertex $-1 -1 $-1 $529 $580 #
straight-curve $-1 -1 $-1 4.999999999999999112 6.123233995736766282e-16 164.0000000000000284 -0 -0 -1000 F 0.1185000000000000359 F 0.1300000000000000044 #
DXID-attrib $-1 -1 $-1 $488 $442 @18 ASM_EDGE_FROM_STEP @3 162 #
point $-1 -1 $-1 4.999999999999999112 6.123233995736766282e-16 34 #
DXID-attrib $-1 -1 $-1 $495 $453 @18 ASM_FACE_FROM_STEP @43 Longshot_Thumbstock_Part_C4_extension_bar-5 #
color-adesk-attrib $-1 -1 $581 $-1 $496 0 #
face $582 -1 $-1 $583 $584 $4 $-1 $585 reversed single #
loop $-1 -1 $-1 $-1 $586 $496 #
plane-surface $-1 -1 $-1 2.999999999999999112 -4.999999999999999112 68.99999999999998579 -1 0 0 0 0 1 forward_v I I I I #
coedge $-1 -1 $-1 $528 $499 $530 $578 reversed $454 $-1 #
coedge $-1 -1 $-1 $501 $500 $499 $543 forward $409 $-1 #
edge $587 -1 $-1 $588 0.001000000000000000238 $576 0.00899999999999999932 $542 $589 forward @7 unknown #
coedge $-1 -1 $-1 $590 $530 $500 $545 forward $48 $-1 #
edge $591 -1 $-1 $588 -0.1185000000000000359 $550 -0.1125000000000000305 $544 $592 forward @7 unknown #
edge $593 -1 $-1 $551 0.1125000000000000305 $576 0.1185000000000000359 $527 $594 forward @7 unknown #
coedge $-1 -1 $-1 $548 $502 $574 $595 reversed $497 $-1 #
coedge $-1 -1 $-1 $502 $547 $590 $596 reversed $497 $-1 #
color-adesk-attrib $-1 -1 $597 $-1 $503 0 #
vertex $-1 -1 $-1 $545 $598 #
vertex $-1 -1 $-1 $595 $599 #
straight-curve $-1 -1 $-1 2.999999999999999112 -4.999999999999999112 51.49999999999999289 0 1000 0 F 0.001000000000000000238 F 0.00899999999999999932 #
DXID-attrib $-1 -1 $-1 $506 $461 @18 ASM_EDGE_FROM_STEP @3 214 #
coedge $-1 -1 $-1 $508 $600 $601 $602 forward $48 $-1 #
coedge $-1 -1 $-1 $603 $604 $508 $556 reversed $605 $-1 #
edge $606 -1 $-1 $607 -0.08350000000000003253 $560 -0.07750000000000001332 $508 $608 forward @7 unknown #
coedge $-1 -1 $-1 $524 $509 $604 $609 forward $558 $-1 #
loop $-1 -1 $-1 $-1 $557 $610 #
color-adesk-attrib $-1 -1 $611 $-1 $510 0 #
vertex $-1 -1 $-1 $556 $612 #
ellipse-curve $-1 -1 $-1 0 0 86.5 0 0 1 4.999999999999999112 0 0 1 F -0.9272952180016122981 F 1.224646799147353207e-16 #
DXID-attrib $-1 -1 $-1 $511 $466 @18 ASM_EDGE_FROM_STEP @3 154 #
point $-1 -1 $-1 4.999999999999999112 6.123233995736766282e-16 86.5 #
color-adesk-attrib $-1 -1 $613 $-1 $514 0 #
plane-surface $-1 -1 $-1 2.999999999999999112 -4.999999999999999112 97.99999999999998579 0 0 -1 -1 0 0 forward_v I I I I #
DXID-attrib $-1 -1 $-1 $517 $472 @18 ASM_EDGE_FROM_STEP @3 100 #
DXID-attrib $-1 -1 $-1 $519 $473 @18 ASM_FACE_FROM_STEP @45 Longshot_Thumbstock_Part_C4_extension_bar-275 #
coedge $-1 -1 $-1 $614 $523 $615 $616 forward $29 $-1 #
coedge $-1 -1 $-1 $604 $603 $523 $570 reversed $605 $-1 #
edge $617 -1 $-1 $572 0.07750000000000001332 $618 0.08350000000000003253 $523 $619 forward @7 unknown #
color-adesk-attrib $-1 -1 $620 $-1 $525 0 #
vertex $-1 -1 $-1 $525 $621 #
ellipse-curve $-1 -1 $-1 0 0 86.5 0 0 1 4.999999999999999112 0 0 1 F 1.224646799147353207e-16 F 0.9272952180016122981 #
coedge $-1 -1 $-1 $527 $622 $547 $595 forward $29 $-1 #
color-adesk-attrib $-1 -1 $623 $-1 $529 0 #
vertex $-1 -1 $-1 $546 $624 #
ellipse-curve $-1 -1 $-1 0 0 45.49999999999998579 0 0 -1 -4.999999999999999112 0 0 1 F 2.214297435588180818 F 3.141592653589793116 #
edge $625 -1 $-1 $532 -3.141592653589793116 $588 -2.214297435588180818 $530 $626 forward @7 unknown #
DXID-attrib $-1 -1 $-1 $531 $487 @18 ASM_EDGE_FROM_STEP @2 80 #
point $-1 -1 $-1 4.999999999999999112 6.123233995736766282e-16 45.49999999999998579 #
DXID-attrib $-1 -1 $-1 $537 $496 @18 ASM_FACE_FROM_STEP @45 Longshot_Thumbstock_Part_C4_extension_bar-799 #
color-adesk-attrib $-1 -1 $627 $-1 $538 0 #
face $628 -1 $-1 $629 $630 $4 $-1 $631 reversed single #
loop $-1 -1 $-1 $-1 $632 $538 #
plane-surface $-1 -1 $-1 2.999999999999999112 -4.999999999999999112 62.99999999999998579 0 0 -1 -1 0 0 forward_v I I I I #
coedge $-1 -1 $-1 $633 $634 $635 $636 reversed $539 $-1 #
color-adesk-attrib $-1 -1 $637 $-1 $543 0 #
vertex $-1 -1 $-1 $578 $638 #
straight-curve $-1 -1 $-1 2.999999999999999112 -4.999999999999999112 45.49999999999998579 0 1000 0 F 0.001000000000000000238 F 0.00899999999999999932 #
coedge $-1 -1 $-1 $639 $544 $548 $596 forward $48 $-1 #
color-adesk-attrib $-1 -1 $640 $-1 $545 0 #
straight-curve $-1 -1 $-1 2.999999999999999112 -3.999999999999999112 164.0000000000000284 0 0 1000 F -0.1185000000000000359 F -0.1125000000000000305 #
color-adesk-attrib $-1 -1 $641 $-1 $546 0 #
straight-curve $-1 -1 $-1 2.999999999999999112 3.999999999999999112 164.0000000000000284 -0 -0 -1000 F 0.1125000000000000305 F 0.1185000000000000359 #
edge $642 -1 $-1 $643 1.224646799147353207e-16 $551 0.9272952180016122981 $574 $644 forward @7 unknown #
edge $645 -1 $-1 $550 -0.9272952180016122981 $643 1.224646799147353207e-16 $590 $646 forward @7 unknown #
DXID-attrib $-1 -1 $-1 $549 $503 @18 ASM_EDGE_FROM_STEP @3 242 #
point $-1 -1 $-1 2.999999999999999112 -3.999999999999999112 51.49999999999999289 #
point $-1 -1 $-1 2.999999999999999112 3.999999999999999112 51.49999999999999289 #
coedge $-1 -1 $-1 $554 $647 $614 $648 reversed $48 $-1 #
coedge $-1 -1 $-1 $615 $649 $554 $602 reversed $650 $-1 #
edge $651 -1 $-1 $652 -3.141592653589793116 $607 -2.214297435588180818 $554 $653 forward @7 unknown #
coedge $-1 -1 $-1 $569 $555 $649 $654 forward $605 $-1 #
coedge $-1 -1 $-1 $555 $569 $557 $609 reversed $605 $-1 #
loop $-1 -1 $-1 $-1 $604 $629 #
color-adesk-attrib $-1 -1 $655 $-1 $556 0 #
vertex $-1 -1 $-1 $602 $656 #
straight-curve $-1 -1 $-1 2.999999999999999112 -3.999999999999999112 164.0000000000000284 0 0 1000 F -0.08350000000000003253 F -0.07750000000000001332 #
edge $657 -1 $-1 $560 0.001000000000000000238 $572 0.00899999999999999932 $604 $658 forward @7 unknown #
face $659 -1 $-1 $473 $558 $4 $-1 $660 reversed single #
DXID-attrib $-1 -1 $-1 $559 $510 @18 ASM_EDGE_FROM_STEP @3 787 #
point $-1 -1 $-1 2.999999999999999112 -3.999999999999999112 86.5 #
DXID-attrib $-1 -1 $-1 $564 $514 @18 ASM_FACE_FROM_STEP @45 Longshot_Thumbstock_Part_C4_extension_bar-617 #
coedge $-1 -1 $-1 $661 $568 $600 $648 forward $29 $-1 #
coedge $-1 -1 $-1 $649 $601 $568 $616 reversed $650 $-1 #
edge $662 -1 $-1 $618 2.214297435588180818 $652 3.141592653589793116 $568 $663 forward @7 unknown #
color-adesk-attrib $-1 -1 $664 $-1 $570 0 #
vertex $-1 -1 $-1 $570 $665 #
straight-curve $-1 -1 $-1 2.999999999999999112 3.999999999999999112 164.0000000000000284 -0 -0 -1000 F 0.07750000000000001332 F 0.08350000000000003253 #
DXID-attrib $-1 -1 $-1 $571 $525 @18 ASM_EDGE_FROM_STEP @4 1037 #
point $-1 -1 $-1 2.999999999999999112 3.999999999999999112 86.5 #
coedge $-1 -1 $-1 $574 $666 $639 $667 forward $29 $-1 #
DXID-attrib $-1 -1 $-1 $575 $529 @18 ASM_EDGE_FROM_STEP @3 118 #
point $-1 -1 $-1 2.999999999999999112 3.999999999999999112 45.49999999999998579 #
color-adesk-attrib $-1 -1 $668 $-1 $578 0 #
ellipse-curve $-1 -1 $-1 0 0 45.49999999999998579 0 0 -1 -4.999999999999999112 0 0 1 F -3.141592653589793116 F -2.214297435588180818 #
DXID-attrib $-1 -1 $-1 $582 $538 @18 ASM_FACE_FROM_STEP @45 Longshot_Thumbstock_Part_C4_extension_bar-292 #
color-adesk-attrib $-1 -1 $669 $-1 $583 0 #
face $670 -1 $-1 $671 $605 $4 $-1 $672 reversed single #
loop $-1 -1 $-1 $-1 $635 $583 #
plane-surface $-1 -1 $-1 2.999999999999999112 -4.999999999999999112 68.99999999999998579 0 0 1 1 0 0 forward_v I I I I #
coedge $-1 -1 $-1 $673 $674 $675 $676 reversed $584 $-1 #
coedge $-1 -1 $-1 $675 $586 $677 $678 reversed $539 $-1 #
coedge $-1 -1 $-1 $586 $675 $679 $680 reversed $539 $-1 #
coedge $-1 -1 $-1 $681 $682 $586 $636 forward $630 $-1 #
edge $683 -1 $-1 $684 0.001000000000000000238 $685 0.00899999999999999932 $586 $686 forward @7 unknown #
DXID-attrib $-1 -1 $-1 $587 $543 @18 ASM_EDGE_FROM_STEP @3 183 #
point $-1 -1 $-1 2.999999999999999112 -3.999999999999999112 45.49999999999998579 #
coedge $-1 -1 $-1 $687 $590 $622 $667 reversed $48 $-1 #
DXID-attrib $-1 -1 $-1 $591 $545 @18 ASM_EDGE_FROM_STEP @3 834 #
DXID-attrib $-1 -1 $-1 $593 $546 @18 ASM_EDGE_FROM_STEP @2 32 #
color-adesk-attrib $-1 -1 $688 $-1 $595 0 #
vertex $-1 -1 $-1 $667 $689 #
ellipse-curve $-1 -1 $-1 0 0 51.49999999999999289 0 0 1 4.999999999999999112 0 0 1 F 1.224646799147353207e-16 F 0.9272952180016122981 #
color-adesk-attrib $-1 -1 $690 $-1 $596 0 #
ellipse-curve $-1 -1 $-1 0 0 51.49999999999999289 0 0 1 4.999999999999999112 0 0 1 F -0.9272952180016122981 F 1.224646799147353207e-16 #
coedge $-1 -1 $-1 $600 $677 $682 $691 forward $48 $-1 #
edge $692 -1 $-1 $652 0.08350000000000003253 $693 0.09500000000000002887 $614 $694 forward @2 g2 #
coedge $-1 -1 $-1 $601 $615 $603 $654 reversed $650 $-1 #
loop $-1 -1 $-1 $-1 $649 $671 #
color-adesk-attrib $-1 -1 $695 $-1 $602 0 #
vertex $-1 -1 $-1 $616 $696 #
ellipse-curve $-1 -1 $-1 0 0 80.49999999999998579 0 0 -1 -4.999999999999999112 0 0 1 F -3.141592653589793116 F -2.214297435588180818 #
edge $697 -1 $-1 $607 0.001000000000000000238 $618 0.00899999999999999932 $603 $698 forward @7 unknown #
DXID-attrib $-1 -1 $-1 $606 $556 @18 ASM_EDGE_FROM_STEP @3 331 #
point $-1 -1 $-1 2.999999999999999112 -3.999999999999999112 80.49999999999998579 #
color-adesk-attrib $-1 -1 $699 $-1 $609 0 #
straight-curve $-1 -1 $-1 2.999999999999999112 -4.999999999999999112 86.5 0 1000 0 F 0.001000000000000000238 F 0.00899999999999999932 #
color-adesk-attrib $-1 -1 $700 $-1 $610 0 #
plane-surface $-1 -1 $-1 2.999999999999999112 -4.999999999999999112 86.5 0 0 1 1 0 0 forward_v I I I I #
coedge $-1 -1 $-1 $679 $614 $681 $701 forward $29 $-1 #
color-adesk-attrib $-1 -1 $702 $-1 $616 0 #
ellipse-curve $-1 -1 $-1 0 0 80.49999999999998579 0 0 -1 -4.999999999999999112 0 0 1 F 2.214297435588180818 F 3.141592653589793116 #
DXID-attrib $-1 -1 $-1 $617 $570 @18 ASM_EDGE_FROM_STEP @3 376 #
point $-1 -1 $-1 2.999999999999999112 3.999999999999999112 80.49999999999998579 #
coedge $-1 -1 $-1 $622 $679 $674 $703 forward $29 $-1 #
edge $704 -1 $-1 $705 0.1010000000000000342 $643 0.1125000000000000305 $622 $706 forward @2 g2 #
DXID-attrib $-1 -1 $-1 $625 $578 @18 ASM_EDGE_FROM_STEP @3 460 #
DXID-attrib $-1 -1 $-1 $628 $583 @18 ASM_FACE_FROM_STEP @45 Longshot_Thumbstock_Part_C4_extension_bar-862 #
color-adesk-attrib $-1 -1 $707 $-1 $629 0 #
face $708 -1 $-1 $610 $650 $4 $-1 $709 reversed single #
plane-surface $-1 -1 $-1 2.999999999999999112 -4.999999999999999112 86.5 -1 0 0 0 0 1 forward_v I I I I #
coedge $-1 -1 $-1 $674 $632 $687 $710 reversed $584 $-1 #
coedge $-1 -1 $-1 $632 $673 $666 $703 reversed $584 $-1 #
coedge $-1 -1 $-1 $634 $633 $632 $676 forward $539 $-1 #
edge $711 -1 $-1 $712 0.001000000000000000238 $713 0.00899999999999999932 $675 $714 forward @7 unknown #
coedge $-1 -1 $-1 $647 $687 $633 $678 forward $48 $-1 #
edge $715 -1 $-1 $712 -0.1010000000000000342 $684 -0.09500000000000002887 $677 $716 forward @7 unknown #
coedge $-1 -1 $-1 $666 $661 $634 $680 forward $29 $-1 #
edge $717 -1 $-1 $685 0.09500000000000002887 $713 0.1010000000000000342 $679 $718 forward @7 unknown #
coedge $-1 -1 $-1 $682 $635 $661 $701 reversed $630 $-1 #
coedge $-1 -1 $-1 $635 $681 $647 $691 reversed $630 $-1 #
color-adesk-attrib $-1 -1 $719 $-1 $636 0 #
vertex $-1 -1 $-1 $678 $720 #
vertex $-1 -1 $-1 $701 $721 #
straight-curve $-1 -1 $-1 2.999999999999999112 -4.999999999999999112 68.99999999999998579 0 1000 0 F 0.001000000000000000238 F 0.00899999999999999932 #
coedge $-1 -1 $-1 $677 $639 $673 $710 forward $48 $-1 #
DXID-attrib $-1 -1 $-1 $642 $595 @18 ASM_EDGE_FROM_STEP @3 704 #
point $-1 -1 $-1 4.999999999999999112 6.123233995736766282e-16 51.49999999999999289 #
DXID-attrib $-1 -1 $-1 $645 $596 @18 ASM_EDGE_FROM_STEP @3 640 #
edge $722 -1 $-1 $684 -0.9272952180016122981 $693 1.224646799147353207e-16 $647 $723 forward @7 unknown #
color-adesk-attrib $-1 -1 $724 $-1 $648 0 #
vertex $-1 -1 $-1 $648 $725 #
straight-curve $-1 -1 $-1 4.999999999999999112 6.123233995736766282e-16 164.0000000000000284 -0 -0 -1000 F 0.08350000000000003253 F 0.09500000000000002887 #
DXID-attrib $-1 -1 $-1 $651 $602 @18 ASM_EDGE_FROM_STEP @4 1067 #
point $-1 -1 $-1 4.999999999999999112 6.123233995736766282e-16 80.49999999999998579 #
color-adesk-attrib $-1 -1 $726 $-1 $654 0 #
straight-curve $-1 -1 $-1 2.999999999999999112 -4.999999999999999112 80.49999999999998579 0 1000 0 F 0.001000000000000000238 F 0.00899999999999999932 #
DXID-attrib $-1 -1 $-1 $657 $609 @18 ASM_EDGE_FROM_STEP @3 565 #
DXID-attrib $-1 -1 $-1 $659 $610 @18 ASM_FACE_FROM_STEP @45 Longshot_Thumbstock_Part_C4_extension_bar-473 #
edge $727 -1 $-1 $693 1.224646799147353207e-16 $685 0.9272952180016122981 $661 $728 forward @7 unknown #
DXID-attrib $-1 -1 $-1 $662 $616 @18 ASM_EDGE_FROM_STEP @4 1107 #
edge $729 -1 $-1 $713 2.214297435588180818 $705 3.141592653589793116 $666 $730 forward @7 unknown #
color-adesk-attrib $-1 -1 $731 $-1 $667 0 #
vertex $-1 -1 $-1 $703 $732 #
straight-curve $-1 -1 $-1 4.999999999999999112 6.123233995736766282e-16 164.0000000000000284 -0 -0 -1000 F 0.1010000000000000342 F 0.1125000000000000305 #
DXID-attrib $-1 -1 $-1 $670 $629 @18 ASM_FACE_FROM_STEP @45 Longshot_Thumbstock_Part_C4_extension_bar-445 #
color-adesk-attrib $-1 -1 $733 $-1 $671 0 #
plane-surface $-1 -1 $-1 2.999999999999999112 -4.999999999999999112 80.49999999999998579 0 0 -1 -1 0 0 forward_v I I I I #
edge $734 -1 $-1 $705 -3.141592653589793116 $712 -2.214297435588180818 $687 $735 forward @7 unknown #
color-adesk-attrib $-1 -1 $736 $-1 $676 0 #
vertex $-1 -1 $-1 $710 $737 #
vertex $-1 -1 $-1 $680 $738 #
straight-curve $-1 -1 $-1 2.999999999999999112 -4.999999999999999112 62.99999999999998579 0 1000 0 F 0.001000000000000000238 F 0.00899999999999999932 #
color-adesk-attrib $-1 -1 $739 $-1 $678 0 #
straight-curve $-1 -1 $-1 2.999999999999999112 -3.999999999999999112 164.0000000000000284 0 0 1000 F -0.1010000000000000342 F -0.09500000000000002887 #
color-adesk-attrib $-1 -1 $740 $-1 $680 0 #
straight-curve $-1 -1 $-1 2.999999999999999112 3.999999999999999112 164.0000000000000284 -0 -0 -1000 F 0.09500000000000002887 F 0.1010000000000000342 #
DXID-attrib $-1 -1 $-1 $683 $636 @18 ASM_EDGE_FROM_STEP @3 384 #
point $-1 -1 $-1 2.999999999999999112 -3.999999999999999112 68.99999999999998579 #
point $-1 -1 $-1 2.999999999999999112 3.999999999999999112 68.99999999999998579 #
color-adesk-attrib $-1 -1 $741 $-1 $691 0 #
ellipse-curve $-1 -1 $-1 0 0 68.99999999999998579 0 0 1 4.999999999999999112 0 0 1 F -0.9272952180016122981 F 1.224646799147353207e-16 #
DXID-attrib $-1 -1 $-1 $692 $648 @18 ASM_EDGE_FROM_STEP @3 256 #
point $-1 -1 $-1 4.999999999999999112 6.123233995736766282e-16 68.99999999999998579 #
DXID-attrib $-1 -1 $-1 $697 $654 @18 ASM_EDGE_FROM_STEP @2 43 #
color-adesk-attrib $-1 -1 $742 $-1 $701 0 #
ellipse-curve $-1 -1 $-1 0 0 68.99999999999998579 0 0 1 4.999999999999999112 0 0 1 F 1.224646799147353207e-16 F 0.9272952180016122981 #
color-adesk-attrib $-1 -1 $743 $-1 $703 0 #
ellipse-curve $-1 -1 $-1 0 0 62.99999999999998579 0 0 -1 -4.999999999999999112 0 0 1 F 2.214297435588180818 F 3.141592653589793116 #
DXID-attrib $-1 -1 $-1 $704 $667 @18 ASM_EDGE_FROM_STEP @3 153 #
point $-1 -1 $-1 4.999999999999999112 6.123233995736766282e-16 62.99999999999998579 #
DXID-attrib $-1 -1 $-1 $708 $671 @18 ASM_FACE_FROM_STEP @45 Longshot_Thumbstock_Part_C4_extension_bar-196 #
color-adesk-attrib $-1 -1 $744 $-1 $710 0 #
ellipse-curve $-1 -1 $-1 0 0 62.99999999999998579 0 0 -1 -4.999999999999999112 0 0 1 F -3.141592653589793116 F -2.214297435588180818 #
DXID-attrib $-1 -1 $-1 $711 $676 @18 ASM_EDGE_FROM_STEP @3 190 #
point $-1 -1 $-1 2.999999999999999112 -3.999999999999999112 62.99999999999998579 #
point $-1 -1 $-1 2.999999999999999112 3.999999999999999112 62.99999999999998579 #
DXID-attrib $-1 -1 $-1 $715 $678 @18 ASM_EDGE_FROM_STEP @3 652 #
DXID-attrib $-1 -1 $-1 $717 $680 @18 ASM_EDGE_FROM_STEP @3 456 #
DXID-attrib $-1 -1 $-1 $722 $691 @18 ASM_EDGE_FROM_STEP @3 537 #
DXID-attrib $-1 -1 $-1 $727 $701 @18 ASM_EDGE_FROM_STEP @3 723 #
DXID-attrib $-1 -1 $-1 $729 $703 @18 ASM_EDGE_FROM_STEP @4 1097 #
DXID-attrib $-1 -1 $-1 $734 $710 @18 ASM_EDGE_FROM_STEP @3 224 #
