700 386 1 0         
5 ZWCAD 12 ACIS 28.0 NT 24 Mon May 13 14:53:27 2024 
1 9.9999999999999995e-07 1e-10 
body $1 -1 $-1 $2 $-1 $-1 #
DXID-attrib $-1 -1 $-1 $-1 $0 @18 ASM_BODY_FROM_STEP @83 B3D3193BBE4EC9CDE870B6F8773D108AF0FF3EFD|:|FF9ED01C973A2512DA32F3D3BF04FE4FAE9C381F #
lump $-1 -1 $-1 $-1 $3 $0 #
shell $-1 -1 $-1 $-1 $-1 $4 $-1 $2 #
face $5 -1 $-1 $6 $7 $3 $-1 $8 forward single #
truecolor-adesk-attrib $-1 -1 $9 $-1 $4 -1056964608 #
face $10 -1 $-1 $11 $12 $3 $-1 $13 forward single #
loop $-1 -1 $-1 $-1 $14 $4 #
cone-surface $-1 -1 $-1 2787.737995772 -29.444310063435523 -711.55199999986303 1.1042774227828082e-15 -6.1232339957368104e-17 -1 12.378266666666651 -4.9314464911536901e-15 1.366904041318499e-14 1 I I 0.70710678118655068 0.70710678118654435 12.378266666666651 forward I I I I #
DXID-attrib $-1 -1 $-1 $5 $4 @18 ASM_FACE_FROM_STEP @34 Main assem walking plate form-8428 #
truecolor-adesk-attrib $-1 -1 $15 $-1 $6 -1056964608 #
face $16 -1 $-1 $17 $18 $3 $-1 $19 forward single #
loop $-1 -1 $-1 $-1 $20 $6 #
cone-surface $-1 -1 $-1 2787.737995772 -29.444310063435523 -767.49126666652967 -1.1042774227828082e-15 6.1232339957368104e-17 1 -13.334999999999999 5.3126048040814444e-15 -1.4725539432808746e-14 1 I I 0.70710678118655068 0.70710678118654435 13.334999999999999 forward I I I I #
coedge $-1 -1 $-1 $21 $22 $23 $24 reversed $7 $-1 #
DXID-attrib $-1 -1 $-1 $10 $6 @18 ASM_FACE_FROM_STEP @34 Main assem walking plate form-5151 #
truecolor-adesk-attrib $-1 -1 $25 $-1 $11 -1056964608 #
face $26 -1 $-1 $27 $28 $3 $-1 $29 reversed single #
loop $-1 -1 $-1 $-1 $30 $11 #
cone-surface $-1 -1 $-1 2787.737995772 -57.892310063435524 -739.99999999986301 3.9839556086100079e-16 1 -6.123233995736766e-17 -12.378266666666651 4.9314464911536901e-15 -1.366904041318499e-14 1 I I 0.70710678118655068 0.70710678118654435 12.378266666666651 forward I I I I #
coedge $-1 -1 $-1 $31 $32 $33 $34 reversed $12 $-1 #
coedge $-1 -1 $-1 $35 $14 $36 $37 forward $7 $-1 #
coedge $-1 -1 $-1 $14 $35 $38 $39 reversed $7 $-1 #
coedge $-1 -1 $-1 $40 $40 $14 $24 forward $41 $-1 #
edge $42 -1 $-1 $43 1.2719741207286295e-16 $44 3.1415926535897931 $14 $45 forward @7 unknown #
DXID-attrib $-1 -1 $-1 $16 $11 @18 ASM_FACE_FROM_STEP @35 Main assem walking plate form-17090 #
truecolor-adesk-attrib $-1 -1 $46 $-1 $17 -1056964608 #
face $47 -1 $-1 $48 $49 $3 $-1 $50 reversed single #
loop $-1 -1 $-1 $-1 $51 $17 #
cone-surface $-1 -1 $-1 2787.737995772 -57.892310063435524 -739.99999999986301 3.9839556086100079e-16 1 -6.123233995736766e-17 -10.464799999999999 4.1691298652981997e-15 -1.1556042373937529e-14 1 I I 0 1 10.4648 forward I I I I #
coedge $-1 -1 $-1 $52 $53 $54 $55 reversed $18 $-1 #
coedge $-1 -1 $-1 $56 $20 $57 $58 forward $12 $-1 #
coedge $-1 -1 $-1 $20 $56 $59 $60 reversed $12 $-1 #
coedge $-1 -1 $-1 $61 $61 $20 $34 forward $62 $-1 #
edge $63 -1 $-1 $64 1.2719741207286295e-16 $65 3.1415926535897931 $20 $66 forward @7 unknown #
coedge $-1 -1 $-1 $22 $21 $67 $68 reversed $7 $-1 #
coedge $-1 -1 $-1 $69 $70 $21 $37 reversed $71 $-1 #
edge $72 -1 $-1 $43 5.0730321580908469e-36 $73 0.0013530252555744341 $21 $74 forward @7 unknown #
coedge $-1 -1 $-1 $70 $69 $22 $39 forward $71 $-1 #
edge $75 -1 $-1 $44 0 $76 0.0013530252555744341 $22 $77 forward @7 unknown #
coedge $-1 -1 $-1 $23 $23 $69 $78 forward $41 $-1 #
loop $-1 -1 $-1 $79 $40 $80 #
truecolor-adesk-attrib $-1 -1 $81 $-1 $24 -1056964608 #
vertex $-1 -1 $-1 $24 $82 #
vertex $-1 -1 $-1 $24 $83 #
ellipse-curve $-1 -1 $-1 2787.737995772 -29.444310063435523 -711.55199999986303 -1.1042774227828082e-15 6.1232339957368104e-17 1 -12.378266666666651 4.9314464911536901e-15 -1.366904041318499e-14 1 F 1.2719741207286295e-16 F 3.1415926535897931 #
DXID-attrib $-1 -1 $-1 $26 $17 @18 ASM_FACE_FROM_STEP @35 Main assem walking plate form-43634 #
truecolor-adesk-attrib $-1 -1 $84 $-1 $27 -1056964608 #
face $85 -1 $-1 $86 $87 $3 $-1 $88 reversed single #
loop $-1 -1 $-1 $-1 $89 $27 #
cone-surface $-1 -1 $-1 2787.737995772 -29.444310063435523 -711.55199999986303 1.1042774227828082e-15 -6.1232339957368104e-17 -1 10.464799999999999 -4.1691298652981997e-15 1.1556042373937529e-14 1 I I 0 1 10.4648 forward I I I I #
coedge $-1 -1 $-1 $90 $91 $92 $93 forward $28 $-1 #
coedge $-1 -1 $-1 $94 $30 $95 $96 forward $18 $-1 #
coedge $-1 -1 $-1 $30 $94 $97 $98 reversed $18 $-1 #
coedge $-1 -1 $-1 $99 $99 $30 $55 forward $100 $-1 #
edge $101 -1 $-1 $102 1.2719741207286295e-16 $103 3.1415926535897931 $30 $104 forward @7 unknown #
coedge $-1 -1 $-1 $32 $31 $105 $106 reversed $12 $-1 #
coedge $-1 -1 $-1 $107 $108 $31 $58 reversed $109 $-1 #
edge $110 -1 $-1 $64 -0.0013530252555744341 $111 -1.4141638316801677e-34 $31 $112 forward @7 unknown #
coedge $-1 -1 $-1 $108 $107 $32 $60 forward $109 $-1 #
edge $113 -1 $-1 $65 -0.0013530252555744341 $114 0 $32 $115 forward @7 unknown #
coedge $-1 -1 $-1 $33 $33 $107 $116 forward $62 $-1 #
loop $-1 -1 $-1 $117 $61 $118 #
truecolor-adesk-attrib $-1 -1 $119 $-1 $34 -1056964608 #
vertex $-1 -1 $-1 $34 $120 #
vertex $-1 -1 $-1 $34 $121 #
ellipse-curve $-1 -1 $-1 2787.737995772 -29.444310063435523 -768.44799999986299 1.1042774227828082e-15 -6.1232339957368104e-17 -1 12.378266666666651 -4.9314464911536901e-15 1.366904041318499e-14 1 F 1.2719741207286295e-16 F 3.1415926535897931 #
coedge $-1 -1 $-1 $122 $123 $35 $68 forward $124 $-1 #
edge $125 -1 $-1 $76 -3.1415926535897931 $73 -1.2246467991473532e-16 $35 $126 forward @7 unknown #
coedge $-1 -1 $-1 $38 $36 $40 $78 reversed $71 $-1 #
coedge $-1 -1 $-1 $36 $38 $127 $128 reversed $71 $-1 #
loop $-1 -1 $-1 $-1 $36 $129 #
truecolor-adesk-attrib $-1 -1 $130 $-1 $37 -1056964608 #
vertex $-1 -1 $-1 $37 $131 #
straight-curve $-1 -1 $-1 2775.3597291053334 -29.44431006343552 -711.55199999986303 -707.10678118655005 1.5181479424410837e-13 -707.10678118654505 F 5.0730321580908469e-36 F 0.0013530252555744341 #
truecolor-adesk-attrib $-1 -1 $132 $-1 $39 -1056964608 #
vertex $-1 -1 $-1 $68 $133 #
straight-curve $-1 -1 $-1 2800.1162624386666 -29.444310063435527 -711.55199999986303 707.10678118655164 -3.2500600549120766e-13 -707.10678118654346 F 0 F 0.0013530252555744341 #
edge $134 -1 $-1 $44 -3.1415926535897931 $43 1.2719741207286295e-16 $40 $135 forward @7 unknown #
loop $-1 -1 $-1 $-1 $136 $80 #
face $137 -1 $-1 $138 $41 $3 $-1 $139 forward single #
DXID-attrib $-1 -1 $-1 $42 $24 @18 ASM_EDGE_FROM_STEP @5 40076 #
point $-1 -1 $-1 2775.3597291053334 -29.44431006343552 -711.55199999986303 #
point $-1 -1 $-1 2800.1162624386666 -29.444310063435527 -711.55199999986303 #
DXID-attrib $-1 -1 $-1 $47 $27 @18 ASM_FACE_FROM_STEP @34 Main assem walking plate form-8308 #
truecolor-adesk-attrib $-1 -1 $140 $-1 $48 -1056964608 #
face $141 -1 $-1 $142 $143 $3 $-1 $144 forward single #
loop $-1 -1 $-1 $-1 $145 $48 #
cone-surface $-1 -1 $-1 2787.737995772 -29.444310063435523 -711.55199999986303 1.1042774227828082e-15 -6.1232339957368104e-17 -1 10.464799999999999 -4.1691298652981997e-15 1.1556042373937529e-14 1 I I 0 1 10.4648 forward I I I I #
coedge $-1 -1 $-1 $146 $147 $136 $148 forward $49 $-1 #
coedge $-1 -1 $-1 $149 $51 $150 $151 forward $28 $-1 #
coedge $-1 -1 $-1 $51 $149 $152 $153 reversed $28 $-1 #
coedge $-1 -1 $-1 $154 $154 $51 $93 reversed $155 $-1 #
edge $156 -1 $-1 $157 -3.1415926535897931 $158 1.2246467991473532e-16 $51 $159 forward @7 unknown #
coedge $-1 -1 $-1 $53 $52 $160 $161 reversed $18 $-1 #
coedge $-1 -1 $-1 $162 $163 $52 $96 reversed $164 $-1 #
edge $165 -1 $-1 $102 5.0730321580908469e-36 $166 0.0013530252555744341 $52 $167 forward @7 unknown #
coedge $-1 -1 $-1 $163 $162 $53 $98 forward $164 $-1 #
edge $168 -1 $-1 $103 0 $169 0.0013530252555744341 $53 $170 forward @7 unknown #
coedge $-1 -1 $-1 $54 $54 $162 $171 forward $100 $-1 #
loop $-1 -1 $-1 $155 $99 $172 #
truecolor-adesk-attrib $-1 -1 $173 $-1 $55 -1056964608 #
vertex $-1 -1 $-1 $55 $174 #
vertex $-1 -1 $-1 $55 $175 #
ellipse-curve $-1 -1 $-1 2787.737995772 -57.892310063435524 -739.99999999986301 -3.9839556086100079e-16 -1 6.123233995736766e-17 12.378266666666651 -4.9314464911536901e-15 1.366904041318499e-14 1 F 1.2719741207286295e-16 F 3.1415926535897931 #
coedge $-1 -1 $-1 $176 $177 $56 $106 forward $178 $-1 #
edge $179 -1 $-1 $114 -3.1415926535897931 $111 0 $56 $180 forward @7 unknown #
coedge $-1 -1 $-1 $59 $57 $61 $116 reversed $109 $-1 #
coedge $-1 -1 $-1 $57 $59 $181 $182 reversed $109 $-1 #
loop $-1 -1 $-1 $-1 $57 $183 #
truecolor-adesk-attrib $-1 -1 $184 $-1 $58 -1056964608 #
vertex $-1 -1 $-1 $58 $185 #
straight-curve $-1 -1 $-1 2801.072995772 -29.44431006343553 -767.49126666652967 707.10678118655005 -3.2500600549120781e-13 707.10678118654505 F -0.0013530252555744341 F -1.4141638316801677e-34 #
truecolor-adesk-attrib $-1 -1 $186 $-1 $60 -1056964608 #
vertex $-1 -1 $-1 $106 $187 #
straight-curve $-1 -1 $-1 2774.4029957719999 -29.44431006343552 -767.49126666652967 -707.10678118655164 3.2500600549120766e-13 707.10678118654346 F -0.0013530252555744341 F 0 #
edge $188 -1 $-1 $65 -3.1415926535897931 $64 1.2719741207286295e-16 $61 $189 forward @7 unknown #
loop $-1 -1 $-1 $-1 $190 $118 #
face $191 -1 $-1 $192 $62 $3 $-1 $193 forward single #
DXID-attrib $-1 -1 $-1 $63 $34 @18 ASM_EDGE_FROM_STEP @3 504 #
point $-1 -1 $-1 2800.1162624386666 -29.44431006343553 -768.44799999986299 #
point $-1 -1 $-1 2775.3597291053334 -29.44431006343552 -768.44799999986299 #
coedge $-1 -1 $-1 $194 $67 $195 $196 forward $124 $-1 #
coedge $-1 -1 $-1 $67 $194 $197 $198 reversed $124 $-1 #
loop $-1 -1 $-1 $-1 $67 $142 #
truecolor-adesk-attrib $-1 -1 $199 $-1 $68 -1056964608 #
ellipse-curve $-1 -1 $-1 2787.737995772 -29.444310063435523 -712.50873333319635 1.1042774227828082e-15 -6.1232339957368104e-17 -1 -13.334999999999999 5.3126048040814444e-15 -1.4725539432808746e-14 1 F -3.1415926535897931 F -1.2246467991473532e-16 #
coedge $-1 -1 $-1 $197 $195 $70 $128 forward $200 $-1 #
edge $201 -1 $-1 $73 -1.2246467991473532e-16 $76 3.1415926535897931 $127 $202 forward @7 unknown #
face $203 -1 $-1 $-1 $71 $3 $-1 $204 forward single #
DXID-attrib $-1 -1 $-1 $72 $37 @18 ASM_EDGE_FROM_STEP @5 28134 #
point $-1 -1 $-1 2774.4029957719999 -29.444310063435516 -712.50873333319635 #
DXID-attrib $-1 -1 $-1 $75 $39 @18 ASM_EDGE_FROM_STEP @4 3363 #
point $-1 -1 $-1 2801.072995772 -29.444310063435527 -712.50873333319635 #
truecolor-adesk-attrib $-1 -1 $205 $-1 $78 -1056964608 #
ellipse-curve $-1 -1 $-1 2787.737995772 -29.444310063435523 -711.55199999986303 -1.1042774227828082e-15 6.1232339957368104e-17 1 -12.378266666666651 4.9314464911536901e-15 -1.366904041318499e-14 1 F -3.1415926535897931 F 1.2719741207286295e-16 #
coedge $-1 -1 $-1 $206 $206 $89 $148 reversed $79 $-1 #
truecolor-adesk-attrib $-1 -1 $207 $-1 $80 -1056964608 #
face $208 -1 $-1 $172 $209 $3 $-1 $210 forward single #
plane-surface $-1 -1 $-1 2787.737995772 -29.444310063435523 -711.55199999986303 -1.1042774227828082e-15 6.1232339957368104e-17 1 -1 3.9839556086100074e-16 -1.1042774227828082e-15 forward_v I I I I #
DXID-attrib $-1 -1 $-1 $85 $48 @18 ASM_FACE_FROM_STEP @35 Main assem walking plate form-32635 #
truecolor-adesk-attrib $-1 -1 $211 $-1 $86 -1056964608 #
face $212 -1 $-1 $213 $124 $3 $-1 $214 forward single #
loop $-1 -1 $-1 $-1 $160 $86 #
cone-surface $-1 -1 $-1 2787.737995772 -57.892310063435524 -739.99999999986301 3.9839556086100079e-16 1 -6.123233995736766e-17 -13.334999999999999 5.3126048040814444e-15 -1.4725539432808746e-14 1 I I 0 1 13.334999999999999 forward I I I I #
coedge $-1 -1 $-1 $215 $216 $146 $217 reversed $87 $-1 #
coedge $-1 -1 $-1 $218 $89 $145 $217 forward $49 $-1 #
coedge $-1 -1 $-1 $89 $219 $220 $221 reversed $49 $-1 #
edge $222 -1 $-1 $223 -3.1415926535897931 $224 1.2246467991473532e-16 $89 $225 forward @7 unknown #
coedge $-1 -1 $-1 $91 $90 $226 $227 reversed $28 $-1 #
coedge $-1 -1 $-1 $228 $229 $90 $151 reversed $230 $-1 #
edge $231 -1 $-1 $158 0 $232 0.028448000000000001 $90 $233 forward @7 unknown #
coedge $-1 -1 $-1 $229 $228 $91 $153 forward $230 $-1 #
edge $234 -1 $-1 $157 0 $235 0.028448000000000001 $91 $236 forward @7 unknown #
coedge $-1 -1 $-1 $92 $92 $228 $237 reversed $155 $-1 #
loop $-1 -1 $-1 $-1 $92 $172 #
truecolor-adesk-attrib $-1 -1 $238 $-1 $93 -1056964608 #
vertex $-1 -1 $-1 $93 $239 #
vertex $-1 -1 $-1 $93 $240 #
ellipse-curve $-1 -1 $-1 2787.737995772 -57.892310063435524 -739.99999999986301 -3.9839556086100079e-16 -1 6.123233995736766e-17 10.464799999999999 -4.1691298652981997e-15 1.1556042373937529e-14 1 F -3.1415926535897931 F 1.2246467991473532e-16 #
coedge $-1 -1 $-1 $241 $242 $94 $161 forward $143 $-1 #
edge $243 -1 $-1 $169 -3.1415926535897931 $166 -1.2246467991473532e-16 $94 $244 forward @7 unknown #
coedge $-1 -1 $-1 $97 $95 $99 $171 reversed $164 $-1 #
coedge $-1 -1 $-1 $95 $97 $245 $246 reversed $164 $-1 #
loop $-1 -1 $-1 $-1 $95 $247 #
truecolor-adesk-attrib $-1 -1 $248 $-1 $96 -1056964608 #
vertex $-1 -1 $-1 $96 $249 #
straight-curve $-1 -1 $-1 2800.1162624386666 -57.892310063435531 -739.99999999986301 707.10678118655107 707.10678118654403 8.2413985677270674e-13 F 5.0730321580908469e-36 F 0.0013530252555744341 #
truecolor-adesk-attrib $-1 -1 $250 $-1 $98 -1056964608 #
vertex $-1 -1 $-1 $161 $251 #
straight-curve $-1 -1 $-1 2775.3597291053334 -57.892310063435517 -739.99999999986301 -707.10678118655062 707.10678118654448 -8.2413985677270593e-13 F 0 F 0.0013530252555744341 #
edge $252 -1 $-1 $103 -3.1415926535897931 $102 1.2719741207286295e-16 $99 $253 forward @7 unknown #
face $254 -1 $-1 $255 $100 $3 $-1 $256 forward single #
DXID-attrib $-1 -1 $-1 $101 $55 @18 ASM_EDGE_FROM_STEP @4 2420 #
point $-1 -1 $-1 2800.1162624386666 -57.892310063435531 -739.99999999986301 #
point $-1 -1 $-1 2775.3597291053334 -57.892310063435517 -739.99999999986301 #
coedge $-1 -1 $-1 $257 $105 $258 $259 reversed $178 $-1 #
coedge $-1 -1 $-1 $105 $257 $260 $261 forward $178 $-1 #
loop $-1 -1 $-1 $-1 $257 $213 #
truecolor-adesk-attrib $-1 -1 $262 $-1 $106 -1056964608 #
ellipse-curve $-1 -1 $-1 2787.737995772 -29.444310063435523 -767.49126666652967 -1.1042774227828082e-15 6.1232339957368104e-17 1 13.334999999999999 -5.3126048040814444e-15 1.4725539432808746e-14 1 F -3.1415926535897931 F 0 #
coedge $-1 -1 $-1 $260 $258 $108 $182 forward $200 $-1 #
edge $263 -1 $-1 $111 0 $114 3.1415926535897931 $181 $264 forward @7 unknown #
face $265 -1 $-1 $129 $109 $3 $-1 $266 forward single #
DXID-attrib $-1 -1 $-1 $110 $58 @18 ASM_EDGE_FROM_STEP @5 31106 #
point $-1 -1 $-1 2801.072995772 -29.44431006343553 -767.49126666652967 #
DXID-attrib $-1 -1 $-1 $113 $60 @18 ASM_EDGE_FROM_STEP @5 46795 #
point $-1 -1 $-1 2774.4029957719999 -29.44431006343552 -767.49126666652967 #
truecolor-adesk-attrib $-1 -1 $267 $-1 $116 -1056964608 #
ellipse-curve $-1 -1 $-1 2787.737995772 -29.444310063435523 -768.44799999986299 1.1042774227828082e-15 -6.1232339957368104e-17 -1 12.378266666666651 -4.9314464911536901e-15 1.366904041318499e-14 1 F -3.1415926535897931 F 1.2719741207286295e-16 #
coedge $-1 -1 $-1 $268 $268 $269 $270 forward $117 $-1 #
truecolor-adesk-attrib $-1 -1 $271 $-1 $118 -1056964608 #
face $272 -1 $-1 $80 $200 $3 $-1 $273 forward single #
plane-surface $-1 -1 $-1 2787.737995772 -29.444310063435523 -768.44799999986299 1.1042774227828082e-15 -6.1232339957368104e-17 -1 -1 3.9839556086100074e-16 -1.1042774227828082e-15 forward_v I I I I #
coedge $-1 -1 $-1 $123 $122 $274 $275 reversed $124 $-1 #
coedge $-1 -1 $-1 $127 $260 $122 $196 reversed $200 $-1 #
edge $276 -1 $-1 $73 0.00095673333333333942 $277 0.028448000000000001 $122 $278 forward @7 unknown #
coedge $-1 -1 $-1 $258 $127 $123 $198 forward $200 $-1 #
edge $279 -1 $-1 $76 0.00095673333333333942 $280 0.028448000000000001 $123 $281 forward @7 unknown #
DXID-attrib $-1 -1 $-1 $125 $68 @18 ASM_EDGE_FROM_STEP @4 9572 #
loop $-1 -1 $-1 $-1 $195 $192 #
truecolor-adesk-attrib $-1 -1 $282 $-1 $128 -1056964608 #
ellipse-curve $-1 -1 $-1 2787.737995772 -29.444310063435523 -712.50873333319635 1.1042774227828082e-15 -6.1232339957368104e-17 -1 -13.334999999999999 5.3126048040814444e-15 -1.4725539432808746e-14 1 F -1.2246467991473532e-16 F 3.1415926535897931 #
truecolor-adesk-attrib $-1 -1 $283 $-1 $129 -1056964608 #
cone-surface $-1 -1 $-1 2787.737995772 -29.444310063435523 -711.55199999986303 1.1042774227828082e-15 -6.1232339957368104e-17 -1 12.378266666666651 -4.9314464911536901e-15 1.366904041318499e-14 1 I I 0.70710678118655068 0.70710678118654435 12.378266666666651 forward I I I I #
DXID-attrib $-1 -1 $-1 $134 $78 @18 ASM_EDGE_FROM_STEP @5 44962 #
coedge $-1 -1 $-1 $136 $136 $215 $284 reversed $79 $-1 #
DXID-attrib $-1 -1 $-1 $137 $80 @18 ASM_FACE_FROM_STEP @35 Main assem walking plate form-27145 #
truecolor-adesk-attrib $-1 -1 $285 $-1 $138 -1056964608 #
loop $-1 -1 $-1 $-1 $286 $138 #
cone-surface $-1 -1 $-1 2787.737995772 -57.892310063435524 -739.99999999986301 3.9839556086100079e-16 1 -6.123233995736766e-17 -13.334999999999999 5.3126048040814444e-15 -1.4725539432808746e-14 1 I I 0 1 13.334999999999999 forward I I I I #
DXID-attrib $-1 -1 $-1 $141 $86 @18 ASM_FACE_FROM_STEP @34 Main assem walking plate form-2859 #
truecolor-adesk-attrib $-1 -1 $287 $-1 $142 -1056964608 #
face $288 -1 $-1 $118 $178 $3 $-1 $289 forward single #
cone-surface $-1 -1 $-1 2787.737995772 -29.444310063435523 -711.55199999986303 1.1042774227828082e-15 -6.1232339957368104e-17 -1 13.334999999999999 -5.3126048040814444e-15 1.4725539432808746e-14 1 I I 0 1 13.334999999999999 forward I I I I #
coedge $-1 -1 $-1 $220 $145 $206 $284 forward $87 $-1 #
coedge $-1 -1 $-1 $145 $220 $229 $290 forward $87 $-1 #
edge $291 -1 $-1 $224 0 $235 0.028448000000000001 $146 $292 forward @7 unknown #
coedge $-1 -1 $-1 $269 $146 $293 $294 forward $49 $-1 #
coedge $-1 -1 $-1 $147 $269 $295 $296 reversed $49 $-1 #
coedge $-1 -1 $-1 $216 $215 $147 $221 forward $87 $-1 #
edge $297 -1 $-1 $223 0 $232 0.028448000000000001 $147 $298 forward @7 unknown #
truecolor-adesk-attrib $-1 -1 $299 $-1 $148 -1056964608 #
vertex $-1 -1 $-1 $148 $300 #
vertex $-1 -1 $-1 $148 $301 #
ellipse-curve $-1 -1 $-1 2787.737995772 -29.444310063435523 -711.55199999986303 -1.1042774227828082e-15 6.1232339957368104e-17 1 -10.464799999999999 4.1691298652981997e-15 -1.1556042373937529e-14 1 F -3.1415926535897931 F 1.2246467991473532e-16 #
coedge $-1 -1 $-1 $295 $293 $149 $227 forward $302 $-1 #
edge $303 -1 $-1 $235 1.5707963267948963 $232 4.7123889803846906 $149 $304 forward @7 unknown #
coedge $-1 -1 $-1 $152 $150 $154 $237 forward $230 $-1 #
coedge $-1 -1 $-1 $150 $152 $216 $290 reversed $230 $-1 #
loop $-1 -1 $-1 $-1 $150 $305 #
truecolor-adesk-attrib $-1 -1 $306 $-1 $151 -1056964608 #
vertex $-1 -1 $-1 $151 $307 #
straight-curve $-1 -1 $-1 2798.2027957720002 -57.892310063435531 -739.99999999986301 3.983955608610008e-13 1000 -6.1232339957367662e-14 F 0 F 0.028448000000000001 #
truecolor-adesk-attrib $-1 -1 $308 $-1 $153 -1056964608 #
vertex $-1 -1 $-1 $227 $309 #
straight-curve $-1 -1 $-1 2777.2731957719998 -57.892310063435517 -739.99999999986301 3.983955608610008e-13 1000 -6.1232339957367662e-14 F 0 F 0.028448000000000001 #
edge $310 -1 $-1 $158 1.2246467991473532e-16 $157 3.1415926535897931 $154 $311 forward @7 unknown #
DXID-attrib $-1 -1 $-1 $156 $93 @18 ASM_EDGE_FROM_STEP @5 10985 #
point $-1 -1 $-1 2777.2731957719998 -57.892310063435517 -739.99999999986301 #
point $-1 -1 $-1 2798.2027957720002 -57.892310063435531 -739.99999999986301 #
coedge $-1 -1 $-1 $274 $160 $286 $312 forward $143 $-1 #
coedge $-1 -1 $-1 $160 $274 $313 $314 reversed $143 $-1 #
truecolor-adesk-attrib $-1 -1 $315 $-1 $161 -1056964608 #
ellipse-curve $-1 -1 $-1 2787.737995772 -56.935576730102184 -739.99999999986301 3.9839556086100079e-16 1 -6.123233995736766e-17 13.334999999999999 -5.3126048040814444e-15 1.4725539432808746e-14 1 F -3.1415926535897931 F -1.2246467991473532e-16 #
coedge $-1 -1 $-1 $313 $286 $163 $246 forward $209 $-1 #
edge $316 -1 $-1 $166 -1.2246467991473532e-16 $169 3.1415926535897931 $245 $317 forward @7 unknown #
face $318 -1 $-1 $183 $164 $3 $-1 $319 forward single #
DXID-attrib $-1 -1 $-1 $165 $96 @18 ASM_EDGE_FROM_STEP @4 7745 #
point $-1 -1 $-1 2801.072995772 -56.935576730102184 -739.99999999986301 #
DXID-attrib $-1 -1 $-1 $168 $98 @18 ASM_EDGE_FROM_STEP @4 3073 #
point $-1 -1 $-1 2774.4029957719999 -56.935576730102184 -739.99999999986301 #
truecolor-adesk-attrib $-1 -1 $320 $-1 $171 -1056964608 #
ellipse-curve $-1 -1 $-1 2787.737995772 -57.892310063435524 -739.99999999986301 -3.9839556086100079e-16 -1 6.123233995736766e-17 12.378266666666651 -4.9314464911536901e-15 1.366904041318499e-14 1 F -3.1415926535897931 F 1.2719741207286295e-16 #
truecolor-adesk-attrib $-1 -1 $321 $-1 $172 -1056964608 #
face $322 -1 $-1 $305 $302 $3 $-1 $323 reversed single #
plane-surface $-1 -1 $-1 2787.737995772 -57.892310063435524 -739.99999999986301 -3.9839556086100079e-16 -1 6.123233995736766e-17 1 -3.9839556086100074e-16 1.1042774227828082e-15 forward_v I I I I #
coedge $-1 -1 $-1 $177 $176 $324 $325 reversed $178 $-1 #
coedge $-1 -1 $-1 $181 $197 $176 $259 forward $200 $-1 #
edge $326 -1 $-1 $280 0.028448000000000001 $111 0.055939266666666668 $176 $327 forward @7 unknown #
coedge $-1 -1 $-1 $195 $181 $177 $261 reversed $200 $-1 #
edge $328 -1 $-1 $277 0.028448000000000001 $114 0.055939266666666668 $177 $329 forward @7 unknown #
DXID-attrib $-1 -1 $-1 $179 $106 @18 ASM_EDGE_FROM_STEP @4 2075 #
truecolor-adesk-attrib $-1 -1 $330 $-1 $182 -1056964608 #
ellipse-curve $-1 -1 $-1 2787.737995772 -29.444310063435523 -767.49126666652967 -1.1042774227828082e-15 6.1232339957368104e-17 1 13.334999999999999 -5.3126048040814444e-15 1.4725539432808746e-14 1 F 0 F 3.1415926535897931 #
truecolor-adesk-attrib $-1 -1 $331 $-1 $183 -1056964608 #
cone-surface $-1 -1 $-1 2787.737995772 -29.444310063435523 -767.49126666652967 -1.1042774227828082e-15 6.1232339957368104e-17 1 -13.334999999999999 5.3126048040814444e-15 -1.4725539432808746e-14 1 I I 0.70710678118655068 0.70710678118654435 13.334999999999999 forward I I I I #
DXID-attrib $-1 -1 $-1 $188 $116 @18 ASM_EDGE_FROM_STEP @5 45860 #
coedge $-1 -1 $-1 $190 $190 $332 $333 forward $117 $-1 #
coedge $-1 -1 $-1 $219 $218 $190 $270 reversed $49 $-1 #
edge $334 -1 $-1 $335 0 $336 3.1415926535897931 $269 $337 forward @7 unknown #
DXID-attrib $-1 -1 $-1 $191 $118 @18 ASM_FACE_FROM_STEP @35 Main assem walking plate form-28337 #
truecolor-adesk-attrib $-1 -1 $338 $-1 $192 -1056964608 #
cone-surface $-1 -1 $-1 2787.737995772 -29.444310063435523 -711.55199999986303 1.1042774227828082e-15 -6.1232339957368104e-17 -1 13.334999999999999 -5.3126048040814444e-15 1.4725539432808746e-14 1 I I 0 1 13.334999999999999 forward I I I I #
coedge $-1 -1 $-1 $242 $241 $194 $275 forward $143 $-1 #
edge $339 -1 $-1 $280 -1.5707963267948957 $277 1.5707963267948961 $274 $340 forward @7 unknown #
truecolor-adesk-attrib $-1 -1 $341 $-1 $196 -1056964608 #
vertex $-1 -1 $-1 $275 $342 #
straight-curve $-1 -1 $-1 2774.4029957719999 -29.444310063435516 -711.55199999986303 1.1042774227828081e-12 -6.1232339957368104e-14 -1000 F 0.00095673333333333942 F 0.028448000000000001 #
truecolor-adesk-attrib $-1 -1 $343 $-1 $198 -1056964608 #
vertex $-1 -1 $-1 $312 $344 #
straight-curve $-1 -1 $-1 2801.072995772 -29.444310063435527 -711.55199999986303 1.1042774227828081e-12 -6.1232339957368104e-14 -1000 F 0.00095673333333333942 F 0.028448000000000001 #
DXID-attrib $-1 -1 $-1 $201 $128 @18 ASM_EDGE_FROM_STEP @4 5382 #
DXID-attrib $-1 -1 $-1 $203 $129 @18 ASM_FACE_FROM_STEP @35 Main assem walking plate form-17929 #
edge $345 -1 $-1 $224 1.2246467991473532e-16 $223 3.1415926535897931 $215 $346 forward @7 unknown #
DXID-attrib $-1 -1 $-1 $208 $138 @18 ASM_FACE_FROM_STEP @35 Main assem walking plate form-26574 #
coedge $-1 -1 $-1 $245 $324 $241 $312 reversed $209 $-1 #
DXID-attrib $-1 -1 $-1 $212 $142 @18 ASM_FACE_FROM_STEP @34 Main assem walking plate form-1306 #
truecolor-adesk-attrib $-1 -1 $347 $-1 $213 -1056964608 #
cone-surface $-1 -1 $-1 2787.737995772 -29.444310063435523 -711.55199999986303 1.1042774227828082e-15 -6.1232339957368104e-17 -1 13.334999999999999 -5.3126048040814444e-15 1.4725539432808746e-14 1 I I 0 1 13.334999999999999 forward I I I I #
edge $348 -1 $-1 $232 -1.570796326794897 $235 1.570796326794897 $216 $349 forward @7 unknown #
truecolor-adesk-attrib $-1 -1 $350 $-1 $217 -1056964608 #
straight-curve $-1 -1 $-1 2777.2731957719998 -29.44431006343552 -711.55199999986303 1.1042774227828081e-12 -6.1232339957368104e-14 -1000 F 0 F 0.028448000000000001 #
coedge $-1 -1 $-1 $226 $332 $218 $294 reversed $302 $-1 #
edge $351 -1 $-1 $235 0.028448000000000001 $336 0.056896000000000002 $218 $352 forward @7 unknown #
coedge $-1 -1 $-1 $332 $226 $219 $296 forward $302 $-1 #
edge $353 -1 $-1 $232 0.028448000000000001 $335 0.056896000000000002 $219 $354 forward @7 unknown #
truecolor-adesk-attrib $-1 -1 $355 $-1 $221 -1056964608 #
straight-curve $-1 -1 $-1 2798.2027957720002 -29.444310063435527 -711.55199999986303 1.1042774227828081e-12 -6.1232339957368104e-14 -1000 F 0 F 0.028448000000000001 #
DXID-attrib $-1 -1 $-1 $222 $148 @18 ASM_EDGE_FROM_STEP @5 19670 #
point $-1 -1 $-1 2798.2027957720002 -29.444310063435527 -711.55199999986303 #
point $-1 -1 $-1 2777.2731957719998 -29.44431006343552 -711.55199999986303 #
loop $-1 -1 $-1 $-1 $293 $255 #
truecolor-adesk-attrib $-1 -1 $356 $-1 $227 -1056964608 #
ellipse-curve $-1 -1 $-1 2787.737995772 -29.44431006343553 -739.99999999986301 -1.0625502566403594e-15 -0.70710678118654757 0.70710678118654757 -3.5190047506195253e-15 10.464799999999993 10.464799999999993 0.70710678118654824 F 1.5707963267948963 F 4.7123889803846906 #
face $357 -1 $-1 $247 $230 $3 $-1 $358 reversed single #
DXID-attrib $-1 -1 $-1 $231 $151 @18 ASM_EDGE_FROM_STEP @5 25899 #
point $-1 -1 $-1 2798.2027957720002 -29.444310063435527 -739.99999999986301 #
DXID-attrib $-1 -1 $-1 $234 $153 @18 ASM_EDGE_FROM_STEP @5 13002 #
point $-1 -1 $-1 2777.2731957719998 -29.44431006343552 -739.99999999986301 #
truecolor-adesk-attrib $-1 -1 $359 $-1 $237 -1056964608 #
ellipse-curve $-1 -1 $-1 2787.737995772 -57.892310063435524 -739.99999999986301 -3.9839556086100079e-16 -1 6.123233995736766e-17 10.464799999999999 -4.1691298652981997e-15 1.1556042373937529e-14 1 F 1.2246467991473532e-16 F 3.1415926535897931 #
edge $360 -1 $-1 $166 0.00095673333333333942 $280 0.028448000000000001 $241 $361 forward @7 unknown #
coedge $-1 -1 $-1 $324 $245 $242 $314 forward $209 $-1 #
edge $362 -1 $-1 $169 0.00095673333333333942 $277 0.028448000000000001 $242 $363 forward @7 unknown #
DXID-attrib $-1 -1 $-1 $243 $161 @18 ASM_EDGE_FROM_STEP @5 16891 #
truecolor-adesk-attrib $-1 -1 $364 $-1 $246 -1056964608 #
ellipse-curve $-1 -1 $-1 2787.737995772 -56.935576730102184 -739.99999999986301 3.9839556086100079e-16 1 -6.123233995736766e-17 13.334999999999999 -5.3126048040814444e-15 1.4725539432808746e-14 1 F -1.2246467991473532e-16 F 3.1415926535897931 #
truecolor-adesk-attrib $-1 -1 $365 $-1 $247 -1056964608 #
cone-surface $-1 -1 $-1 2787.737995772 -57.892310063435524 -739.99999999986301 3.9839556086100079e-16 1 -6.123233995736766e-17 -12.378266666666651 4.9314464911536901e-15 -1.366904041318499e-14 1 I I 0.70710678118655068 0.70710678118654435 12.378266666666651 forward I I I I #
DXID-attrib $-1 -1 $-1 $252 $171 @18 ASM_EDGE_FROM_STEP @5 37898 #
DXID-attrib $-1 -1 $-1 $254 $172 @18 ASM_FACE_FROM_STEP @35 Main assem walking plate form-21302 #
truecolor-adesk-attrib $-1 -1 $366 $-1 $255 -1056964608 #
cone-surface $-1 -1 $-1 2787.737995772 -29.444310063435523 -711.55199999986303 1.1042774227828082e-15 -6.1232339957368104e-17 -1 10.464799999999999 -4.1691298652981997e-15 1.1556042373937529e-14 1 I I 0 1 10.4648 forward I I I I #
coedge $-1 -1 $-1 $286 $313 $257 $325 forward $209 $-1 #
edge $367 -1 $-1 $277 1.5707963267948979 $280 4.7123889803846888 $257 $368 forward @7 unknown #
truecolor-adesk-attrib $-1 -1 $369 $-1 $259 -1056964608 #
straight-curve $-1 -1 $-1 2801.072995772 -29.444310063435527 -711.55199999986303 1.1042774227828081e-12 -6.1232339957368104e-14 -1000 F 0.028448000000000001 F 0.055939266666666668 #
truecolor-adesk-attrib $-1 -1 $370 $-1 $261 -1056964608 #
straight-curve $-1 -1 $-1 2774.4029957719999 -29.444310063435516 -711.55199999986303 1.1042774227828081e-12 -6.1232339957368104e-14 -1000 F 0.028448000000000001 F 0.055939266666666668 #
DXID-attrib $-1 -1 $-1 $263 $182 @18 ASM_EDGE_FROM_STEP @5 27867 #
DXID-attrib $-1 -1 $-1 $265 $183 @18 ASM_FACE_FROM_STEP @35 Main assem walking plate form-37985 #
coedge $-1 -1 $-1 $293 $295 $268 $333 reversed $302 $-1 #
edge $371 -1 $-1 $336 -3.1415926535897931 $335 0 $268 $372 forward @7 unknown #
truecolor-adesk-attrib $-1 -1 $373 $-1 $270 -1056964608 #
vertex $-1 -1 $-1 $270 $374 #
vertex $-1 -1 $-1 $294 $375 #
ellipse-curve $-1 -1 $-1 2787.737995772 -29.444310063435523 -768.44799999986299 -1.1042774227828082e-15 6.1232339957368104e-17 1 10.464799999999999 -4.1691298652981997e-15 1.1556042373937529e-14 1 F 0 F 3.1415926535897931 #
DXID-attrib $-1 -1 $-1 $272 $192 @18 ASM_FACE_FROM_STEP @35 Main assem walking plate form-16785 #
truecolor-adesk-attrib $-1 -1 $376 $-1 $275 -1056964608 #
ellipse-curve $-1 -1 $-1 2787.737995772 -29.444310063435509 -739.99999999986301 4.9913385128149624e-16 -0.70710678118654757 -0.70710678118654757 -1.5123708692732301e-14 -13.335000000000015 13.335000000000015 0.7071067811865468 F -1.5707963267948957 F 1.5707963267948961 #
DXID-attrib $-1 -1 $-1 $276 $196 @18 ASM_EDGE_FROM_STEP @5 30319 #
point $-1 -1 $-1 2774.4029957719999 -29.44431006343552 -739.99999999986301 #
DXID-attrib $-1 -1 $-1 $279 $198 @18 ASM_EDGE_FROM_STEP @5 11699 #
point $-1 -1 $-1 2801.072995772 -29.444310063435527 -739.99999999986301 #
truecolor-adesk-attrib $-1 -1 $377 $-1 $284 -1056964608 #
ellipse-curve $-1 -1 $-1 2787.737995772 -29.444310063435523 -711.55199999986303 -1.1042774227828082e-15 6.1232339957368104e-17 1 -10.464799999999999 4.1691298652981997e-15 -1.1556042373937529e-14 1 F 1.2246467991473532e-16 F 3.1415926535897931 #
DXID-attrib $-1 -1 $-1 $288 $213 @18 ASM_FACE_FROM_STEP @35 Main assem walking plate form-40279 #
truecolor-adesk-attrib $-1 -1 $378 $-1 $290 -1056964608 #
ellipse-curve $-1 -1 $-1 2787.737995772 -29.444310063435527 -739.99999999986301 4.9913385128149624e-16 -0.70710678118654757 -0.70710678118654757 -1.4620055736944361e-14 -10.464799999999999 10.464799999999999 0.70710678118654802 F -1.570796326794897 F 1.570796326794897 #
DXID-attrib $-1 -1 $-1 $291 $217 @18 ASM_EDGE_FROM_STEP @5 19446 #
truecolor-adesk-attrib $-1 -1 $379 $-1 $294 -1056964608 #
straight-curve $-1 -1 $-1 2777.2731957719998 -29.44431006343552 -711.55199999986303 1.1042774227828081e-12 -6.1232339957368104e-14 -1000 F 0.028448000000000001 F 0.056896000000000002 #
truecolor-adesk-attrib $-1 -1 $380 $-1 $296 -1056964608 #
straight-curve $-1 -1 $-1 2798.2027957720002 -29.444310063435527 -711.55199999986303 1.1042774227828081e-12 -6.1232339957368104e-14 -1000 F 0.028448000000000001 F 0.056896000000000002 #
DXID-attrib $-1 -1 $-1 $297 $221 @18 ASM_EDGE_FROM_STEP @5 30459 #
DXID-attrib $-1 -1 $-1 $303 $227 @18 ASM_EDGE_FROM_STEP @5 15493 #
truecolor-adesk-attrib $-1 -1 $381 $-1 $305 -1056964608 #
cone-surface $-1 -1 $-1 2787.737995772 -57.892310063435524 -739.99999999986301 3.9839556086100079e-16 1 -6.123233995736766e-17 -10.464799999999999 4.1691298652981997e-15 -1.1556042373937529e-14 1 I I 0 1 10.4648 forward I I I I #
DXID-attrib $-1 -1 $-1 $310 $237 @18 ASM_EDGE_FROM_STEP @5 39691 #
truecolor-adesk-attrib $-1 -1 $382 $-1 $312 -1056964608 #
straight-curve $-1 -1 $-1 2801.072995772 -57.892310063435531 -739.99999999986301 3.983955608610008e-13 1000 -6.1232339957367662e-14 F 0.00095673333333333942 F 0.028448000000000001 #
truecolor-adesk-attrib $-1 -1 $383 $-1 $314 -1056964608 #
straight-curve $-1 -1 $-1 2774.4029957719999 -57.892310063435517 -739.99999999986301 3.983955608610008e-13 1000 -6.1232339957367662e-14 F 0.00095673333333333942 F 0.028448000000000001 #
DXID-attrib $-1 -1 $-1 $316 $246 @18 ASM_EDGE_FROM_STEP @5 40085 #
DXID-attrib $-1 -1 $-1 $318 $247 @18 ASM_FACE_FROM_STEP @35 Main assem walking plate form-39335 #
DXID-attrib $-1 -1 $-1 $322 $255 @18 ASM_FACE_FROM_STEP @35 Main assem walking plate form-45771 #
truecolor-adesk-attrib $-1 -1 $384 $-1 $325 -1056964608 #
ellipse-curve $-1 -1 $-1 2787.737995772 -29.444310063435513 -739.99999999986301 -1.0625502566403594e-15 -0.70710678118654757 0.70710678118654757 -4.4021376033113949e-15 13.335000000000015 13.335000000000015 0.7071067811865468 F 1.5707963267948979 F 4.7123889803846888 #
DXID-attrib $-1 -1 $-1 $326 $259 @18 ASM_EDGE_FROM_STEP @5 29406 #
DXID-attrib $-1 -1 $-1 $328 $261 @18 ASM_EDGE_FROM_STEP @5 24219 #
truecolor-adesk-attrib $-1 -1 $385 $-1 $333 -1056964608 #
ellipse-curve $-1 -1 $-1 2787.737995772 -29.444310063435523 -768.44799999986299 -1.1042774227828082e-15 6.1232339957368104e-17 1 10.464799999999999 -4.1691298652981997e-15 1.1556042373937529e-14 1 F -3.1415926535897931 F 0 #
DXID-attrib $-1 -1 $-1 $334 $270 @18 ASM_EDGE_FROM_STEP @4 2593 #
point $-1 -1 $-1 2798.2027957720002 -29.44431006343553 -768.44799999986299 #
point $-1 -1 $-1 2777.2731957719998 -29.444310063435523 -768.44799999986299 #
DXID-attrib $-1 -1 $-1 $339 $275 @18 ASM_EDGE_FROM_STEP @5 46494 #
DXID-attrib $-1 -1 $-1 $345 $284 @18 ASM_EDGE_FROM_STEP @5 29161 #
DXID-attrib $-1 -1 $-1 $348 $290 @18 ASM_EDGE_FROM_STEP @5 39956 #
DXID-attrib $-1 -1 $-1 $351 $294 @18 ASM_EDGE_FROM_STEP @5 47050 #
DXID-attrib $-1 -1 $-1 $353 $296 @18 ASM_EDGE_FROM_STEP @5 40767 #
DXID-attrib $-1 -1 $-1 $357 $305 @18 ASM_FACE_FROM_STEP @35 Main assem walking plate form-43986 #
DXID-attrib $-1 -1 $-1 $360 $312 @18 ASM_EDGE_FROM_STEP @5 35931 #
DXID-attrib $-1 -1 $-1 $362 $314 @18 ASM_EDGE_FROM_STEP @5 15204 #
DXID-attrib $-1 -1 $-1 $367 $325 @18 ASM_EDGE_FROM_STEP @5 22389 #
DXID-attrib $-1 -1 $-1 $371 $333 @18 ASM_EDGE_FROM_STEP @5 40072 #
