700 666 1 0         
5 ZWCAD 12 ACIS 28.0 NT 24 Mon May 13 14:53:39 2024 
1 9.9999999999999995e-07 1e-10 
body $1 -1 $-1 $2 $-1 $-1 #
DXID-attrib $-1 -1 $-1 $-1 $0 @18 ASM_BODY_FROM_STEP @83 B6D528A1EFFD8ACF282946D01BB159BE89A71643|:|1A803EE03227871CBD4885D6D97CC042F1FC423F #
lump $-1 -1 $-1 $-1 $3 $0 #
shell $-1 -1 $-1 $-1 $-1 $4 $-1 $2 #
face $5 -1 $-1 $6 $7 $3 $-1 $8 reversed single #
truecolor-adesk-attrib $-1 -1 $9 $-1 $4 -1056964608 #
face $10 -1 $-1 $11 $12 $3 $-1 $13 reversed single #
loop $-1 -1 $-1 $-1 $14 $4 #
cone-surface $-1 -1 $-1 1454.869869338278 228.32107754120864 -1487.0520000000108 7.3112679930636081e-17 -1 0 2.5000000000000009 1.8278169982659028e-16 -4.299161590114451e-15 1 I I 0 1 2.5000000000000009 forward I I I I #
DXID-attrib $-1 -1 $-1 $5 $4 @18 ASM_FACE_FROM_STEP @34 Main assem walking plate form-9666 #
truecolor-adesk-attrib $-1 -1 $15 $-1 $6 -1056964608 #
face $16 -1 $-1 $17 $18 $3 $-1 $19 forward single #
loop $-1 -1 $-1 $-1 $20 $6 #
cone-surface $-1 -1 $-1 1454.869869338278 126.12107754120882 -1487.0520000000108 -7.3112679930636081e-17 1 0 -2.5000000000000009 -1.8278169982659028e-16 4.299161590114451e-15 1 I I 0 1 2.5000000000000009 forward I I I I #
coedge $-1 -1 $-1 $21 $22 $23 $24 forward $7 $-1 #
DXID-attrib $-1 -1 $-1 $10 $6 @18 ASM_FACE_FROM_STEP @35 Main assem walking plate form-36261 #
truecolor-adesk-attrib $-1 -1 $25 $-1 $11 -1056964608 #
face $26 -1 $-1 $27 $28 $3 $-1 $29 reversed single #
loop $-1 -1 $-1 $-1 $30 $11 #
cone-surface $-1 -1 $-1 1464.869869338278 207.92107754120877 -1493.5520000000108 -1 -7.3112679930636081e-17 1.7196646360457797e-15 1.4622535986127204e-16 -1.9999999999999984 0 1 I I 0 1 1.9999999999999984 forward I I I I #
coedge $-1 -1 $-1 $31 $32 $33 $34 reversed $12 $-1 #
coedge $-1 -1 $-1 $35 $14 $36 $37 forward $7 $-1 #
coedge $-1 -1 $-1 $14 $35 $38 $39 reversed $7 $-1 #
coedge $-1 -1 $-1 $40 $40 $14 $24 reversed $41 $-1 #
edge $42 -1 $-1 $43 -1.5707963267948966 $44 1.5707963267948966 $14 $45 forward @7 unknown #
DXID-attrib $-1 -1 $-1 $16 $11 @18 ASM_FACE_FROM_STEP @35 Main assem walking plate form-11641 #
truecolor-adesk-attrib $-1 -1 $46 $-1 $17 -1056964608 #
face $47 -1 $-1 $48 $49 $3 $-1 $50 reversed single #
loop $-1 -1 $-1 $41 $51 $17 #
plane-surface $-1 -1 $-1 1464.869869338278 209.92107754120877 -1493.5520000000108 7.3112679930636993e-17 -1 5.3376106953132524e-16 -1.7196646360457797e-15 -5.3376106953132534e-16 -1 forward_v I I I I #
coedge $-1 -1 $-1 $52 $53 $54 $55 forward $18 $-1 #
coedge $-1 -1 $-1 $56 $20 $57 $58 forward $12 $-1 #
coedge $-1 -1 $-1 $20 $56 $59 $60 reversed $12 $-1 #
coedge $-1 -1 $-1 $61 $61 $20 $34 forward $62 $-1 #
edge $63 -1 $-1 $64 1.5707963267948966 $65 4.7123889803846897 $20 $66 forward @7 unknown #
coedge $-1 -1 $-1 $22 $21 $67 $68 reversed $7 $-1 #
coedge $-1 -1 $-1 $69 $70 $21 $37 reversed $71 $-1 #
edge $72 -1 $-1 $44 0.018400000000000007 $73 0.020000000000000004 $21 $74 forward @7 unknown #
coedge $-1 -1 $-1 $70 $69 $22 $39 forward $71 $-1 #
edge $75 -1 $-1 $43 0.018400000000000007 $76 0.020000000000000004 $22 $77 forward @7 unknown #
coedge $-1 -1 $-1 $23 $23 $69 $78 reversed $41 $-1 #
loop $-1 -1 $-1 $-1 $23 $17 #
truecolor-adesk-attrib $-1 -1 $79 $-1 $24 -1056964608 #
vertex $-1 -1 $-1 $24 $80 #
vertex $-1 -1 $-1 $24 $81 #
ellipse-curve $-1 -1 $-1 1454.869869338278 209.92107754120877 -1487.0520000000108 -7.3112679930636993e-17 1 -5.3376106953132514e-16 -4.2991615901144502e-15 -1.3344026738283134e-15 -2.5000000000000004 1 F -1.5707963267948966 F 1.5707963267948966 #
DXID-attrib $-1 -1 $-1 $26 $17 @18 ASM_FACE_FROM_STEP @34 Main assem walking plate form-3036 #
truecolor-adesk-attrib $-1 -1 $82 $-1 $27 -1056964608 #
face $83 -1 $-1 $84 $85 $3 $-1 $86 reversed single #
loop $-1 -1 $-1 $-1 $87 $27 #
plane-surface $-1 -1 $-1 1464.869869338278 208.32107754120864 -1480.5520000000108 -1.7196646360457797e-15 -1.2572929012324888e-31 -1 -1 -7.3112679930636081e-17 1.7196646360457797e-15 forward_v I I I I #
coedge $-1 -1 $-1 $88 $89 $90 $91 forward $28 $-1 #
coedge $-1 -1 $-1 $92 $30 $89 $93 reversed $18 $-1 #
coedge $-1 -1 $-1 $30 $92 $94 $95 forward $18 $-1 #
coedge $-1 -1 $-1 $96 $90 $30 $55 reversed $97 $-1 #
edge $98 -1 $-1 $99 -1.5707963267948966 $100 0 $30 $101 forward @7 unknown #
coedge $-1 -1 $-1 $32 $31 $102 $103 forward $12 $-1 #
coedge $-1 -1 $-1 $104 $105 $31 $58 reversed $106 $-1 #
edge $107 -1 $-1 $64 0.0184 $108 0.020000000000000004 $31 $109 forward @7 unknown #
coedge $-1 -1 $-1 $105 $104 $32 $60 forward $106 $-1 #
edge $110 -1 $-1 $65 0.0184 $111 0.020000000000000004 $32 $112 forward @7 unknown #
coedge $-1 -1 $-1 $33 $33 $104 $113 forward $62 $-1 #
loop $-1 -1 $-1 $-1 $61 $114 #
truecolor-adesk-attrib $-1 -1 $115 $-1 $34 -1056964608 #
vertex $-1 -1 $-1 $34 $116 #
vertex $-1 -1 $-1 $34 $117 #
ellipse-curve $-1 -1 $-1 1454.869869338278 144.52107754120868 -1487.0520000000108 -7.3112679930634245e-17 1 1.0675221390626509e-15 4.2991615901144502e-15 -2.6688053476566273e-15 2.5000000000000004 1 F 1.5707963267948966 F 4.7123889803846897 #
coedge $-1 -1 $-1 $118 $118 $35 $68 forward $119 $-1 #
edge $120 -1 $-1 $76 -3.1415926535897931 $73 0 $35 $121 forward @7 unknown #
coedge $-1 -1 $-1 $38 $36 $40 $78 forward $71 $-1 #
coedge $-1 -1 $-1 $36 $38 $118 $122 reversed $71 $-1 #
loop $-1 -1 $-1 $-1 $36 $123 #
truecolor-adesk-attrib $-1 -1 $124 $-1 $37 -1056964608 #
vertex $-1 -1 $-1 $37 $125 #
straight-curve $-1 -1 $-1 1452.369869338278 228.32107754120864 -1487.0520000000108 7.311267993063608e-14 -1000 0 F 0.018400000000000007 F 0.020000000000000004 #
truecolor-adesk-attrib $-1 -1 $126 $-1 $39 -1056964608 #
vertex $-1 -1 $-1 $68 $127 #
straight-curve $-1 -1 $-1 1457.369869338278 228.32107754120864 -1487.0520000000108 7.311267993063608e-14 -1000 0 F 0.018400000000000007 F 0.020000000000000004 #
edge $128 -1 $-1 $44 1.5707963267948966 $43 4.7123889803846897 $40 $129 forward @7 unknown #
DXID-attrib $-1 -1 $-1 $42 $24 @18 ASM_EDGE_FROM_STEP @4 5193 #
point $-1 -1 $-1 1457.369869338278 209.92107754120877 -1487.0520000000108 #
point $-1 -1 $-1 1452.369869338278 209.92107754120877 -1487.0520000000108 #
DXID-attrib $-1 -1 $-1 $47 $27 @18 ASM_FACE_FROM_STEP @35 Main assem walking plate form-41954 #
truecolor-adesk-attrib $-1 -1 $130 $-1 $48 -1056964608 #
face $131 -1 $-1 $132 $133 $3 $-1 $134 reversed single #
loop $-1 -1 $-1 $119 $135 $48 #
plane-surface $-1 -1 $-1 1464.869869338278 208.32107754120864 -1493.5520000000108 -7.3112679930636081e-17 1 0 -1 -7.3112679930636081e-17 1.7196646360457797e-15 forward_v I I I I #
coedge $-1 -1 $-1 $136 $137 $138 $139 forward $49 $-1 #
coedge $-1 -1 $-1 $140 $51 $137 $141 reversed $28 $-1 #
coedge $-1 -1 $-1 $51 $140 $52 $93 forward $28 $-1 #
coedge $-1 -1 $-1 $54 $138 $51 $91 reversed $97 $-1 #
edge $142 -1 $-1 $100 0 $143 0.013000000000000001 $51 $144 forward @7 unknown #
coedge $-1 -1 $-1 $53 $52 $145 $146 reversed $18 $-1 #
edge $147 -1 $-1 $148 0 $100 0.02 $52 $149 forward @7 unknown #
coedge $-1 -1 $-1 $150 $151 $53 $95 reversed $152 $-1 #
edge $153 -1 $-1 $154 0 $99 0.02 $53 $155 forward @7 unknown #
coedge $-1 -1 $-1 $156 $54 $151 $157 reversed $97 $-1 #
loop $-1 -1 $-1 $-1 $54 $158 #
truecolor-adesk-attrib $-1 -1 $159 $-1 $55 -1056964608 #
vertex $-1 -1 $-1 $55 $160 #
vertex $-1 -1 $-1 $55 $161 #
ellipse-curve $-1 -1 $-1 1444.869869338278 207.92107754120877 -1493.5520000000108 1 7.3112679930636081e-17 -1.7196646360457797e-15 -1.4622535986127182e-16 1.9999999999999951 0 1 F -1.5707963267948966 F 0 #
coedge $-1 -1 $-1 $162 $162 $56 $103 reversed $163 $-1 #
edge $164 -1 $-1 $108 -3.1415926535897931 $111 0 $56 $165 forward @7 unknown #
coedge $-1 -1 $-1 $59 $57 $61 $113 reversed $106 $-1 #
coedge $-1 -1 $-1 $57 $59 $162 $166 forward $106 $-1 #
loop $-1 -1 $-1 $-1 $57 $167 #
truecolor-adesk-attrib $-1 -1 $168 $-1 $58 -1056964608 #
vertex $-1 -1 $-1 $58 $169 #
straight-curve $-1 -1 $-1 1457.369869338278 126.12107754120882 -1487.0520000000108 -7.311267993063608e-14 1000 0 F 0.0184 F 0.020000000000000004 #
truecolor-adesk-attrib $-1 -1 $170 $-1 $60 -1056964608 #
vertex $-1 -1 $-1 $103 $171 #
straight-curve $-1 -1 $-1 1452.369869338278 126.12107754120882 -1487.0520000000108 -7.311267993063608e-14 1000 0 F 0.0184 F 0.020000000000000004 #
edge $172 -1 $-1 $65 -1.5707963267948966 $64 1.5707963267948966 $61 $173 forward @7 unknown #
face $174 -1 $-1 $175 $176 $3 $-1 $177 reversed single #
DXID-attrib $-1 -1 $-1 $63 $34 @18 ASM_EDGE_FROM_STEP @5 36355 #
point $-1 -1 $-1 1457.369869338278 144.52107754120868 -1487.0520000000108 #
point $-1 -1 $-1 1452.369869338278 144.52107754120868 -1487.0520000000108 #
coedge $-1 -1 $-1 $67 $67 $70 $122 forward $119 $-1 #
loop $-1 -1 $-1 $-1 $67 $48 #
truecolor-adesk-attrib $-1 -1 $178 $-1 $68 -1056964608 #
ellipse-curve $-1 -1 $-1 1454.869869338278 208.32107754120864 -1487.0520000000108 -7.3112679930636081e-17 1 0 -2.5000000000000009 -1.8278169982659028e-16 4.299161590114451e-15 1 F -3.1415926535897931 F 0 #
edge $179 -1 $-1 $73 0 $76 3.1415926535897931 $118 $180 forward @7 unknown #
face $181 -1 $-1 $-1 $71 $3 $-1 $182 reversed single #
DXID-attrib $-1 -1 $-1 $72 $37 @18 ASM_EDGE_FROM_STEP @5 20548 #
point $-1 -1 $-1 1452.369869338278 208.32107754120864 -1487.0520000000108 #
DXID-attrib $-1 -1 $-1 $75 $39 @18 ASM_EDGE_FROM_STEP @5 33120 #
point $-1 -1 $-1 1457.369869338278 208.32107754120864 -1487.0520000000108 #
truecolor-adesk-attrib $-1 -1 $183 $-1 $78 -1056964608 #
ellipse-curve $-1 -1 $-1 1454.869869338278 209.92107754120877 -1487.0520000000108 -7.3112679930636993e-17 1 -5.3376106953132514e-16 -4.2991615901144502e-15 -1.3344026738283134e-15 -2.5000000000000004 1 F 1.5707963267948966 F 4.7123889803846897 #
DXID-attrib $-1 -1 $-1 $83 $48 @18 ASM_FACE_FROM_STEP @34 Main assem walking plate form-6777 #
truecolor-adesk-attrib $-1 -1 $184 $-1 $84 -1056964608 #
face $185 -1 $-1 $186 $187 $3 $-1 $188 reversed single #
loop $-1 -1 $-1 $-1 $189 $84 #
cone-surface $-1 -1 $-1 1464.869869338278 207.92107754120877 -1493.5520000000108 -1 -7.3112679930636081e-17 1.7196646360457797e-15 2.924507197225476e-17 -0.40000000000000446 0 1 I I 0 1 0.40000000000000452 forward I I I I #
coedge $-1 -1 $-1 $190 $191 $192 $193 forward $85 $-1 #
coedge $-1 -1 $-1 $194 $87 $191 $195 reversed $49 $-1 #
coedge $-1 -1 $-1 $87 $194 $88 $141 forward $49 $-1 #
coedge $-1 -1 $-1 $90 $192 $87 $139 reversed $97 $-1 #
edge $196 -1 $-1 $143 -0.0016000000000000059 $197 0 $87 $198 forward @7 unknown #
coedge $-1 -1 $-1 $89 $88 $199 $200 reversed $28 $-1 #
edge $201 -1 $-1 $202 0 $143 0.02 $88 $203 forward @7 unknown #
truecolor-adesk-attrib $-1 -1 $204 $-1 $91 -1056964608 #
vertex $-1 -1 $-1 $91 $205 #
straight-curve $-1 -1 $-1 1444.869869338278 209.92107754120877 -1493.5520000000108 1.7196646360457797e-12 5.3376106953132535e-13 1000 F 0 F 0.013000000000000001 #
coedge $-1 -1 $-1 $199 $206 $92 $146 forward $207 $-1 #
edge $208 -1 $-1 $154 -1.5707963267948966 $148 0 $92 $209 forward @7 unknown #
truecolor-adesk-attrib $-1 -1 $210 $-1 $93 -1056964608 #
vertex $-1 -1 $-1 $93 $211 #
straight-curve $-1 -1 $-1 1464.869869338278 209.92107754120877 -1493.5520000000108 -1000 -7.311267993063608e-14 1.7196646360457797e-12 F 0 F 0.02 #
coedge $-1 -1 $-1 $212 $94 $206 $213 reversed $152 $-1 #
coedge $-1 -1 $-1 $94 $212 $96 $157 forward $152 $-1 #
loop $-1 -1 $-1 $-1 $151 $214 #
truecolor-adesk-attrib $-1 -1 $215 $-1 $95 -1056964608 #
vertex $-1 -1 $-1 $146 $216 #
straight-curve $-1 -1 $-1 1464.869869338278 207.92107754120877 -1495.5520000000108 -1000 -7.311267993063608e-14 1.7196646360457797e-12 F 0 F 0.02 #
coedge $-1 -1 $-1 $217 $96 $218 $219 reversed $97 $-1 #
edge $220 -1 $-1 $221 0 $99 0.017854767421334867 $151 $222 forward @7 unknown #
face $223 -1 $-1 $167 $97 $3 $-1 $224 reversed single #
DXID-attrib $-1 -1 $-1 $98 $55 @18 ASM_EDGE_FROM_STEP @5 25439 #
point $-1 -1 $-1 1444.869869338278 207.92107754120877 -1495.5520000000108 #
point $-1 -1 $-1 1444.869869338278 209.92107754120877 -1493.5520000000108 #
coedge $-1 -1 $-1 $102 $102 $105 $166 reversed $163 $-1 #
loop $-1 -1 $-1 $-1 $162 $225 #
truecolor-adesk-attrib $-1 -1 $226 $-1 $103 -1056964608 #
ellipse-curve $-1 -1 $-1 1454.869869338278 146.12107754120882 -1487.0520000000108 -7.3112679930636081e-17 1 0 -2.5000000000000009 -1.8278169982659028e-16 4.299161590114451e-15 1 F -3.1415926535897931 F 0 #
edge $227 -1 $-1 $111 0 $108 3.1415926535897931 $162 $228 forward @7 unknown #
face $229 -1 $-1 $123 $106 $3 $-1 $230 reversed single #
DXID-attrib $-1 -1 $-1 $107 $58 @18 ASM_EDGE_FROM_STEP @4 6839 #
point $-1 -1 $-1 1457.369869338278 146.12107754120882 -1487.0520000000108 #
DXID-attrib $-1 -1 $-1 $110 $60 @18 ASM_EDGE_FROM_STEP @4 4871 #
point $-1 -1 $-1 1452.369869338278 146.12107754120882 -1487.0520000000108 #
truecolor-adesk-attrib $-1 -1 $231 $-1 $113 -1056964608 #
ellipse-curve $-1 -1 $-1 1454.869869338278 144.52107754120868 -1487.0520000000108 -7.3112679930634245e-17 1 1.0675221390626509e-15 4.2991615901144502e-15 -2.6688053476566273e-15 2.5000000000000004 1 F -1.5707963267948966 F 1.5707963267948966 #
truecolor-adesk-attrib $-1 -1 $232 $-1 $114 -1056964608 #
face $233 -1 $-1 $234 $235 $3 $-1 $236 forward single #
loop $-1 -1 $-1 $62 $237 $114 #
plane-surface $-1 -1 $-1 1464.869869338278 144.52107754120868 -1493.5520000000108 -7.3112679930634245e-17 1 1.0675221390626507e-15 1.7196646360457797e-15 -1.0675221390626505e-15 1 forward_v I I I I #
DXID-attrib $-1 -1 $-1 $120 $68 @18 ASM_EDGE_FROM_STEP @5 26516 #
truecolor-adesk-attrib $-1 -1 $238 $-1 $122 -1056964608 #
ellipse-curve $-1 -1 $-1 1454.869869338278 208.32107754120864 -1487.0520000000108 -7.3112679930636081e-17 1 0 -2.5000000000000009 -1.8278169982659028e-16 4.299161590114451e-15 1 F 0 F 3.1415926535897931 #
truecolor-adesk-attrib $-1 -1 $239 $-1 $123 -1056964608 #
cone-surface $-1 -1 $-1 1454.869869338278 228.32107754120864 -1487.0520000000108 7.3112679930636081e-17 -1 0 2.5000000000000009 1.8278169982659028e-16 -4.299161590114451e-15 1 I I 0 1 2.5000000000000009 forward I I I I #
DXID-attrib $-1 -1 $-1 $128 $78 @18 ASM_EDGE_FROM_STEP @5 18472 #
DXID-attrib $-1 -1 $-1 $131 $84 @18 ASM_FACE_FROM_STEP @34 Main assem walking plate form-4576 #
truecolor-adesk-attrib $-1 -1 $240 $-1 $132 -1056964608 #
face $241 -1 $-1 $242 $243 $3 $-1 $244 reversed single #
loop $-1 -1 $-1 $-1 $245 $132 #
plane-surface $-1 -1 $-1 1464.869869338278 190.06631011987395 -1493.9520000000109 -1.7196646360457797e-15 -2.6718295715439624e-16 -1 -7.3112679930636537e-17 1 -2.6718295715439609e-16 forward_v I I I I #
coedge $-1 -1 $-1 $246 $247 $248 $249 forward $133 $-1 #
coedge $-1 -1 $-1 $250 $135 $247 $251 reversed $85 $-1 #
coedge $-1 -1 $-1 $135 $250 $136 $195 forward $85 $-1 #
coedge $-1 -1 $-1 $138 $248 $135 $193 reversed $97 $-1 #
edge $252 -1 $-1 $197 -0.013000000000000001 $253 0 $135 $254 forward @7 unknown #
coedge $-1 -1 $-1 $137 $136 $255 $256 reversed $49 $-1 #
edge $257 -1 $-1 $258 0 $197 0.02 $136 $259 forward @7 unknown #
truecolor-adesk-attrib $-1 -1 $260 $-1 $139 -1056964608 #
vertex $-1 -1 $-1 $139 $261 #
straight-curve $-1 -1 $-1 1444.869869338278 208.32107754120864 -1480.5520000000108 7.311267993063608e-14 -1000 0 F -0.0016000000000000059 F 0 #
coedge $-1 -1 $-1 $255 $145 $140 $200 forward $207 $-1 #
edge $262 -1 $-1 $148 0 $202 0.013000000000000001 $140 $263 forward @7 unknown #
truecolor-adesk-attrib $-1 -1 $264 $-1 $141 -1056964608 #
vertex $-1 -1 $-1 $141 $265 #
straight-curve $-1 -1 $-1 1464.869869338278 209.92107754120877 -1480.5520000000108 -1000 -7.311267993063608e-14 1.7196646360457797e-12 F 0 F 0.02 #
DXID-attrib $-1 -1 $-1 $142 $91 @18 ASM_EDGE_FROM_STEP @5 20679 #
point $-1 -1 $-1 1444.869869338278 209.92107754120877 -1480.5520000000108 #
coedge $-1 -1 $-1 $145 $266 $150 $213 forward $207 $-1 #
loop $-1 -1 $-1 $-1 $145 $267 #
truecolor-adesk-attrib $-1 -1 $268 $-1 $146 -1056964608 #
ellipse-curve $-1 -1 $-1 1464.869869338278 207.92107754120877 -1493.5520000000108 1 7.3112679930636081e-17 -1.7196646360457797e-15 -1.4622535986127182e-16 1.9999999999999951 0 1 F -1.5707963267948966 F 0 #
DXID-attrib $-1 -1 $-1 $147 $93 @18 ASM_EDGE_FROM_STEP @5 15061 #
point $-1 -1 $-1 1464.869869338278 209.92107754120877 -1493.5520000000108 #
coedge $-1 -1 $-1 $151 $150 $269 $270 forward $152 $-1 #
edge $271 -1 $-1 $272 0 $154 0.017854767421334867 $150 $273 forward @7 unknown #
face $274 -1 $-1 $267 $152 $3 $-1 $275 reversed single #
DXID-attrib $-1 -1 $-1 $153 $95 @18 ASM_EDGE_FROM_STEP @5 11863 #
point $-1 -1 $-1 1464.869869338278 207.92107754120877 -1495.5520000000108 #
coedge $-1 -1 $-1 $276 $156 $277 $278 reversed $97 $-1 #
coedge $-1 -1 $-1 $269 $279 $156 $219 forward $280 $-1 #
edge $281 -1 $-1 $282 -2.9871330551056086 $221 -1.5707963267948966 $218 $283 forward @7 unknown #
truecolor-adesk-attrib $-1 -1 $284 $-1 $157 -1056964608 #
vertex $-1 -1 $-1 $219 $285 #
straight-curve $-1 -1 $-1 1444.869869338278 190.06631011987395 -1495.5520000000108 -7.3112679930635815e-14 1000 1.5682475118041846e-13 F 0 F 0.017854767421334867 #
truecolor-adesk-attrib $-1 -1 $286 $-1 $158 -1056964608 #
plane-surface $-1 -1 $-1 1444.869869338278 207.92107754120877 -1493.5520000000108 1 7.3112679930636081e-17 -1.7196646360457797e-15 -7.3112679930636081e-17 1 0 forward_v I I I I #
face $287 -1 $-1 $288 $289 $3 $-1 $290 reversed single #
DXID-attrib $-1 -1 $-1 $164 $103 @18 ASM_EDGE_FROM_STEP @5 35763 #
truecolor-adesk-attrib $-1 -1 $291 $-1 $166 -1056964608 #
ellipse-curve $-1 -1 $-1 1454.869869338278 146.12107754120882 -1487.0520000000108 -7.3112679930636081e-17 1 0 -2.5000000000000009 -1.8278169982659028e-16 4.299161590114451e-15 1 F 0 F 3.1415926535897931 #
truecolor-adesk-attrib $-1 -1 $292 $-1 $167 -1056964608 #
cone-surface $-1 -1 $-1 1454.869869338278 126.12107754120882 -1487.0520000000108 -7.3112679930636081e-17 1 0 -2.5000000000000009 -1.8278169982659028e-16 4.299161590114451e-15 1 I I 0 1 2.5000000000000009 forward I I I I #
DXID-attrib $-1 -1 $-1 $172 $113 @18 ASM_EDGE_FROM_STEP @5 39288 #
DXID-attrib $-1 -1 $-1 $174 $114 @18 ASM_FACE_FROM_STEP @34 Main assem walking plate form-1427 #
truecolor-adesk-attrib $-1 -1 $293 $-1 $175 -1056964608 #
face $294 -1 $-1 $295 $296 $3 $-1 $297 reversed single #
loop $-1 -1 $-1 $-1 $298 $175 #
cone-surface $-1 -1 $-1 1464.869869338278 146.52107754120868 -1493.5520000000108 -1 -7.3112679930636081e-17 1.7196646360457797e-15 1.4622535986127182e-16 -1.9999999999999951 0 1 I I 0 1 1.9999999999999951 forward I I I I #
coedge $-1 -1 $-1 $299 $300 $301 $302 forward $176 $-1 #
DXID-attrib $-1 -1 $-1 $179 $122 @18 ASM_EDGE_FROM_STEP @5 30683 #
DXID-attrib $-1 -1 $-1 $181 $123 @18 ASM_FACE_FROM_STEP @35 Main assem walking plate form-23108 #
DXID-attrib $-1 -1 $-1 $185 $132 @18 ASM_FACE_FROM_STEP @35 Main assem walking plate form-41604 #
truecolor-adesk-attrib $-1 -1 $303 $-1 $186 -1056964608 #
face $304 -1 $-1 $305 $306 $3 $-1 $307 forward single #
loop $-1 -1 $-1 $-1 $308 $186 #
cone-surface $-1 -1 $-1 1464.869869338278 190.06631011987395 -1493.5520000000108 -1 -7.3112679930636081e-17 1.7196646360457797e-15 2.9245071972254643e-17 -0.40000000000000285 0 1 I I 0 1 0.40000000000000285 forward I I I I #
coedge $-1 -1 $-1 $309 $310 $311 $312 forward $187 $-1 #
coedge $-1 -1 $-1 $313 $189 $310 $314 reversed $133 $-1 #
coedge $-1 -1 $-1 $189 $313 $190 $251 forward $133 $-1 #
coedge $-1 -1 $-1 $192 $311 $189 $249 reversed $97 $-1 #
edge $315 -1 $-1 $253 0 $316 1.5707963267948966 $189 $317 forward @7 unknown #
coedge $-1 -1 $-1 $191 $190 $318 $319 reversed $85 $-1 #
edge $320 -1 $-1 $321 0 $253 0.02 $190 $322 forward @7 unknown #
truecolor-adesk-attrib $-1 -1 $323 $-1 $193 -1056964608 #
vertex $-1 -1 $-1 $193 $324 #
straight-curve $-1 -1 $-1 1444.869869338278 208.32107754120864 -1493.5520000000108 -1.7196646360457797e-12 -1.2572929012324887e-28 -1000 F -0.013000000000000001 F 0 #
coedge $-1 -1 $-1 $318 $199 $194 $256 forward $207 $-1 #
edge $325 -1 $-1 $202 -0.0016000000000000059 $258 0 $194 $326 forward @7 unknown #
truecolor-adesk-attrib $-1 -1 $327 $-1 $195 -1056964608 #
vertex $-1 -1 $-1 $195 $328 #
straight-curve $-1 -1 $-1 1464.869869338278 208.32107754120864 -1480.5520000000108 -1000 -7.311267993063608e-14 1.7196646360457797e-12 F 0 F 0.02 #
DXID-attrib $-1 -1 $-1 $196 $139 @18 ASM_EDGE_FROM_STEP @5 10012 #
point $-1 -1 $-1 1444.869869338278 208.32107754120864 -1480.5520000000108 #
truecolor-adesk-attrib $-1 -1 $329 $-1 $200 -1056964608 #
straight-curve $-1 -1 $-1 1464.869869338278 209.92107754120877 -1493.5520000000108 1.7196646360457797e-12 5.3376106953132535e-13 1000 F 0 F 0.013000000000000001 #
DXID-attrib $-1 -1 $-1 $201 $141 @18 ASM_EDGE_FROM_STEP @5 35821 #
point $-1 -1 $-1 1464.869869338278 209.92107754120877 -1480.5520000000108 #
coedge $-1 -1 $-1 $206 $330 $331 $332 forward $207 $-1 #
face $333 -1 $-1 $158 $207 $3 $-1 $334 forward single #
DXID-attrib $-1 -1 $-1 $208 $146 @18 ASM_EDGE_FROM_STEP @5 15233 #
coedge $-1 -1 $-1 $331 $218 $212 $270 reversed $280 $-1 #
edge $335 -1 $-1 $272 0 $221 0.02 $269 $336 forward @7 unknown #
truecolor-adesk-attrib $-1 -1 $337 $-1 $213 -1056964608 #
vertex $-1 -1 $-1 $270 $338 #
straight-curve $-1 -1 $-1 1464.869869338278 190.06631011987395 -1495.5520000000108 -7.3112679930635815e-14 1000 1.5682475118041846e-13 F 0 F 0.017854767421334867 #
truecolor-adesk-attrib $-1 -1 $339 $-1 $214 -1056964608 #
plane-surface $-1 -1 $-1 1464.869869338278 190.06631011987395 -1495.5520000000108 1.7196646360457797e-15 -1.5682475118041834e-16 1 7.311267993063581e-17 -1 -1.5682475118041846e-16 forward_v I I I I #
coedge $-1 -1 $-1 $340 $217 $341 $342 reversed $97 $-1 #
coedge $-1 -1 $-1 $343 $344 $217 $278 forward $345 $-1 #
edge $346 -1 $-1 $347 0.15445959848418406 $282 2.987133055105609 $277 $348 forward @7 unknown #
coedge $-1 -1 $-1 $218 $331 $343 $349 forward $280 $-1 #
loop $-1 -1 $-1 $-1 $218 $350 #
truecolor-adesk-attrib $-1 -1 $351 $-1 $219 -1056964608 #
vertex $-1 -1 $-1 $278 $352 #
ellipse-curve $-1 -1 $-1 1444.869869338278 190.06631011987395 -1493.5520000000108 1 7.3112679930636081e-17 -1.7196646360457797e-15 -1.4622535986127204e-16 1.9999999999999984 0 1 F -2.9871330551056086 F -1.5707963267948966 #
DXID-attrib $-1 -1 $-1 $220 $157 @18 ASM_EDGE_FROM_STEP @5 24765 #
point $-1 -1 $-1 1444.869869338278 190.06631011987395 -1495.5520000000108 #
DXID-attrib $-1 -1 $-1 $223 $158 @18 ASM_FACE_FROM_STEP @35 Main assem walking plate form-40572 #
truecolor-adesk-attrib $-1 -1 $353 $-1 $225 -1056964608 #
face $354 -1 $-1 $114 $355 $3 $-1 $356 reversed single #
loop $-1 -1 $-1 $163 $357 $225 #
plane-surface $-1 -1 $-1 1464.869869338278 146.12107754120882 -1493.5520000000108 7.3112679930636081e-17 -1 0 1 7.3112679930636081e-17 -1.7196646360457797e-15 forward_v I I I I #
DXID-attrib $-1 -1 $-1 $227 $166 @18 ASM_EDGE_FROM_STEP @5 17594 #
DXID-attrib $-1 -1 $-1 $229 $167 @18 ASM_FACE_FROM_STEP @35 Main assem walking plate form-14479 #
DXID-attrib $-1 -1 $-1 $233 $175 @18 ASM_FACE_FROM_STEP @35 Main assem walking plate form-34541 #
truecolor-adesk-attrib $-1 -1 $358 $-1 $234 -1056964608 #
face $359 -1 $-1 $360 $361 $3 $-1 $362 forward single #
loop $-1 -1 $-1 $-1 $363 $234 #
plane-surface $-1 -1 $-1 1464.869869338278 146.52107754120868 -1495.5520000000108 1.7196646360457797e-15 1.2572929012324888e-31 1 1 7.3112679930636081e-17 -1.7196646360457797e-15 forward_v I I I I #
coedge $-1 -1 $-1 $364 $365 $366 $367 forward $235 $-1 #
coedge $-1 -1 $-1 $368 $237 $365 $369 reversed $176 $-1 #
coedge $-1 -1 $-1 $237 $368 $370 $371 forward $176 $-1 #
coedge $-1 -1 $-1 $372 $366 $237 $302 reversed $97 $-1 #
edge $373 -1 $-1 $374 -0.013000000000000001 $375 -5.5511151231257828e-19 $237 $376 forward @7 unknown #
DXID-attrib $-1 -1 $-1 $241 $186 @18 ASM_FACE_FROM_STEP @35 Main assem walking plate form-31663 #
truecolor-adesk-attrib $-1 -1 $377 $-1 $242 -1056964608 #
face $378 -1 $-1 $379 $380 $3 $-1 $381 reversed single #
loop $-1 -1 $-1 $-1 $382 $242 #
cone-surface $-1 -1 $-1 1464.869869338278 177.22107754120873 -1495.5520000000108 -1 -7.3112679930636081e-17 1.7196646360457797e-15 9.2121976712601451e-16 -12.599999999999998 0 1 I I 0 1 12.6 forward I I I I #
coedge $-1 -1 $-1 $383 $384 $385 $386 forward $243 $-1 #
coedge $-1 -1 $-1 $387 $245 $384 $388 reversed $187 $-1 #
coedge $-1 -1 $-1 $245 $387 $246 $314 forward $187 $-1 #
coedge $-1 -1 $-1 $248 $385 $245 $312 reversed $97 $-1 #
edge $389 -1 $-1 $316 -0.017854767421334867 $390 -8.8989801246074171e-34 $245 $391 forward @7 unknown #
coedge $-1 -1 $-1 $247 $246 $392 $393 reversed $133 $-1 #
edge $394 -1 $-1 $395 0 $316 0.02 $246 $396 forward @7 unknown #
truecolor-adesk-attrib $-1 -1 $397 $-1 $249 -1056964608 #
vertex $-1 -1 $-1 $249 $398 #
ellipse-curve $-1 -1 $-1 1444.869869338278 207.92107754120877 -1493.5520000000108 -1 -7.3112679930636081e-17 1.7196646360457797e-15 -2.924507197225476e-17 0.40000000000000446 0 1 F 0 F 1.5707963267948966 #
coedge $-1 -1 $-1 $392 $255 $250 $319 forward $207 $-1 #
edge $399 -1 $-1 $258 -0.013000000000000001 $321 0 $250 $400 forward @7 unknown #
truecolor-adesk-attrib $-1 -1 $401 $-1 $251 -1056964608 #
vertex $-1 -1 $-1 $251 $402 #
straight-curve $-1 -1 $-1 1464.869869338278 208.32107754120864 -1493.5520000000108 -1000 -7.311267993063608e-14 1.7196646360457797e-12 F 0 F 0.02 #
DXID-attrib $-1 -1 $-1 $252 $193 @18 ASM_EDGE_FROM_STEP @5 20201 #
point $-1 -1 $-1 1444.869869338278 208.32107754120864 -1493.5520000000108 #
truecolor-adesk-attrib $-1 -1 $403 $-1 $256 -1056964608 #
straight-curve $-1 -1 $-1 1464.869869338278 208.32107754120864 -1480.5520000000108 7.311267993063608e-14 -1000 0 F -0.0016000000000000059 F 0 #
DXID-attrib $-1 -1 $-1 $257 $195 @18 ASM_EDGE_FROM_STEP @5 41240 #
point $-1 -1 $-1 1464.869869338278 208.32107754120864 -1480.5520000000108 #
DXID-attrib $-1 -1 $-1 $262 $200 @18 ASM_EDGE_FROM_STEP @5 10477 #
coedge $-1 -1 $-1 $266 $404 $405 $406 forward $207 $-1 #
coedge $-1 -1 $-1 $279 $269 $266 $332 reversed $280 $-1 #
edge $407 -1 $-1 $408 -2.9871330551056086 $272 -1.5707963267948966 $331 $409 forward @7 unknown #
truecolor-adesk-attrib $-1 -1 $410 $-1 $267 -1056964608 #
plane-surface $-1 -1 $-1 1464.869869338278 207.92107754120877 -1493.5520000000108 1 7.3112679930636081e-17 -1.7196646360457797e-15 -7.3112679930636081e-17 1 0 forward_v I I I I #
truecolor-adesk-attrib $-1 -1 $411 $-1 $270 -1056964608 #
straight-curve $-1 -1 $-1 1464.869869338278 190.06631011987395 -1495.5520000000108 -1000 -7.311267993063608e-14 1.7196646360457797e-12 F 0 F 0.02 #
DXID-attrib $-1 -1 $-1 $271 $213 @18 ASM_EDGE_FROM_STEP @5 18681 #
point $-1 -1 $-1 1464.869869338278 190.06631011987395 -1495.5520000000108 #
DXID-attrib $-1 -1 $-1 $274 $214 @18 ASM_FACE_FROM_STEP @35 Main assem walking plate form-19242 #
coedge $-1 -1 $-1 $366 $276 $363 $412 reversed $97 $-1 #
coedge $-1 -1 $-1 $413 $414 $276 $342 forward $361 $-1 #
edge $415 -1 $-1 $416 -1.5707963267948966 $347 -0.1544595984841842 $341 $417 forward @7 unknown #
coedge $-1 -1 $-1 $405 $277 $279 $349 reversed $345 $-1 #
coedge $-1 -1 $-1 $277 $405 $413 $418 forward $345 $-1 #
loop $-1 -1 $-1 $-1 $277 $360 #
truecolor-adesk-attrib $-1 -1 $419 $-1 $278 -1056964608 #
vertex $-1 -1 $-1 $342 $420 #
ellipse-curve $-1 -1 $-1 1444.869869338278 177.22107754120873 -1495.5520000000108 -1 -7.3112679930636081e-17 1.7196646360457797e-15 8.0423947923699729e-16 -11.000000000000005 0 1 F 0.15445959848418406 F 2.987133055105609 #
edge $421 -1 $-1 $408 0 $282 0.02 $343 $422 forward @7 unknown #
face $423 -1 $-1 $214 $280 $3 $-1 $424 forward single #
DXID-attrib $-1 -1 $-1 $281 $219 @18 ASM_EDGE_FROM_STEP @5 34682 #
point $-1 -1 $-1 1444.869869338278 188.09012049238697 -1493.8596923077032 #
DXID-attrib $-1 -1 $-1 $287 $225 @18 ASM_FACE_FROM_STEP @35 Main assem walking plate form-23459 #
truecolor-adesk-attrib $-1 -1 $425 $-1 $288 -1056964608 #
loop $-1 -1 $-1 $-1 $426 $288 #
plane-surface $-1 -1 $-1 1464.869869338278 146.12107754120882 -1480.5520000000108 -1.7196646360457797e-15 -1.2572929012324888e-31 -1 -1 -7.3112679930636081e-17 1.7196646360457797e-15 forward_v I I I I #
coedge $-1 -1 $-1 $427 $428 $429 $430 forward $289 $-1 #
DXID-attrib $-1 -1 $-1 $294 $234 @18 ASM_FACE_FROM_STEP @34 Main assem walking plate form-8542 #
truecolor-adesk-attrib $-1 -1 $431 $-1 $295 -1056964608 #
face $432 -1 $-1 $350 $345 $3 $-1 $433 reversed single #
loop $-1 -1 $-1 $-1 $341 $295 #
cone-surface $-1 -1 $-1 1464.869869338278 164.37584496254351 -1493.5520000000108 -1 -7.3112679930636081e-17 1.7196646360457797e-15 1.4622535986127204e-16 -1.9999999999999984 0 1 I I 0 1 1.9999999999999984 forward I I I I #
coedge $-1 -1 $-1 $434 $435 $340 $412 forward $296 $-1 #
coedge $-1 -1 $-1 $436 $298 $435 $437 reversed $235 $-1 #
coedge $-1 -1 $-1 $298 $436 $299 $369 forward $235 $-1 #
coedge $-1 -1 $-1 $301 $340 $298 $367 reversed $97 $-1 #
edge $438 -1 $-1 $375 0 $439 1.5707963267948966 $298 $440 forward @7 unknown #
coedge $-1 -1 $-1 $300 $299 $441 $442 reversed $176 $-1 #
edge $443 -1 $-1 $444 0 $375 0.02 $299 $445 forward @7 unknown #
coedge $-1 -1 $-1 $446 $426 $300 $371 reversed $355 $-1 #
edge $447 -1 $-1 $448 0 $374 0.02 $370 $449 forward @7 unknown #
coedge $-1 -1 $-1 $429 $301 $426 $450 reversed $97 $-1 #
truecolor-adesk-attrib $-1 -1 $451 $-1 $302 -1056964608 #
vertex $-1 -1 $-1 $450 $452 #
vertex $-1 -1 $-1 $302 $453 #
straight-curve $-1 -1 $-1 1444.869869338278 144.52107754120868 -1493.5520000000108 -1.7196646360457797e-12 1.0675221390626507e-12 -1000 F -0.013000000000000001 F -5.5511151231257828e-19 #
DXID-attrib $-1 -1 $-1 $304 $242 @18 ASM_FACE_FROM_STEP @35 Main assem walking plate form-31554 #
truecolor-adesk-attrib $-1 -1 $454 $-1 $305 -1056964608 #
face $455 -1 $-1 $456 $457 $3 $-1 $458 reversed single #
loop $-1 -1 $-1 $-1 $459 $305 #
cone-surface $-1 -1 $-1 1464.869869338278 164.37584496254351 -1493.5520000000108 -1 -7.3112679930636081e-17 1.7196646360457797e-15 2.9245071972254384e-17 -0.3999999999999993 0 1 I I 0 1 0.3999999999999993 forward I I I I #
coedge $-1 -1 $-1 $460 $461 $462 $463 forward $306 $-1 #
coedge $-1 -1 $-1 $464 $308 $461 $465 reversed $243 $-1 #
coedge $-1 -1 $-1 $308 $464 $309 $388 forward $243 $-1 #
coedge $-1 -1 $-1 $311 $462 $308 $386 reversed $97 $-1 #
edge $466 -1 $-1 $390 1.5707963267948966 $467 2.987133055105605 $308 $468 forward @7 unknown #
coedge $-1 -1 $-1 $310 $309 $469 $470 reversed $187 $-1 #
edge $471 -1 $-1 $472 0 $390 0.02 $309 $473 forward @7 unknown #
truecolor-adesk-attrib $-1 -1 $474 $-1 $312 -1056964608 #
vertex $-1 -1 $-1 $312 $475 #
straight-curve $-1 -1 $-1 1444.869869338278 190.06631011987395 -1493.9520000000109 7.3112679930636534e-14 -1000 2.671829571543961e-13 F -0.017854767421334867 F -8.8989801246074171e-34 #
coedge $-1 -1 $-1 $469 $318 $313 $393 forward $207 $-1 #
edge $476 -1 $-1 $321 0 $395 1.5707963267948966 $313 $477 forward @7 unknown #
truecolor-adesk-attrib $-1 -1 $478 $-1 $314 -1056964608 #
vertex $-1 -1 $-1 $314 $479 #
straight-curve $-1 -1 $-1 1464.869869338278 207.92107754120877 -1493.9520000000109 -1000 -7.311267993063608e-14 1.7196646360457797e-12 F 0 F 0.02 #
DXID-attrib $-1 -1 $-1 $315 $249 @18 ASM_EDGE_FROM_STEP @5 18655 #
point $-1 -1 $-1 1444.869869338278 207.92107754120877 -1493.9520000000109 #
truecolor-adesk-attrib $-1 -1 $480 $-1 $319 -1056964608 #
straight-curve $-1 -1 $-1 1464.869869338278 208.32107754120864 -1493.5520000000108 -1.7196646360457797e-12 -1.2572929012324887e-28 -1000 F -0.013000000000000001 F 0 #
DXID-attrib $-1 -1 $-1 $320 $251 @18 ASM_EDGE_FROM_STEP @4 6014 #
point $-1 -1 $-1 1464.869869338278 208.32107754120864 -1493.5520000000108 #
DXID-attrib $-1 -1 $-1 $325 $256 @18 ASM_EDGE_FROM_STEP @5 28647 #
coedge $-1 -1 $-1 $330 $481 $482 $483 forward $207 $-1 #
coedge $-1 -1 $-1 $344 $343 $330 $406 reversed $345 $-1 #
edge $484 -1 $-1 $485 0.15445959848418406 $408 2.987133055105609 $405 $486 forward @7 unknown #
truecolor-adesk-attrib $-1 -1 $487 $-1 $332 -1056964608 #
vertex $-1 -1 $-1 $349 $488 #
ellipse-curve $-1 -1 $-1 1464.869869338278 190.06631011987395 -1493.5520000000108 1 7.3112679930636081e-17 -1.7196646360457797e-15 -1.4622535986127204e-16 1.9999999999999984 0 1 F -2.9871330551056086 F -1.5707963267948966 #
DXID-attrib $-1 -1 $-1 $333 $267 @18 ASM_FACE_FROM_STEP @35 Main assem walking plate form-27327 #
DXID-attrib $-1 -1 $-1 $335 $270 @18 ASM_EDGE_FROM_STEP @4 6095 #
edge $489 -1 $-1 $439 0 $416 0.017854767421334874 $363 $490 forward @7 unknown #
coedge $-1 -1 $-1 $482 $341 $344 $418 reversed $361 $-1 #
coedge $-1 -1 $-1 $341 $482 $434 $491 forward $361 $-1 #
truecolor-adesk-attrib $-1 -1 $492 $-1 $342 -1056964608 #
vertex $-1 -1 $-1 $412 $493 #
ellipse-curve $-1 -1 $-1 1444.869869338278 164.37584496254351 -1493.5520000000108 1 7.3112679930636081e-17 -1.7196646360457797e-15 -1.4622535986127204e-16 1.9999999999999984 0 1 F -1.5707963267948966 F -0.1544595984841842 #
edge $494 -1 $-1 $485 0 $347 0.02 $413 $495 forward @7 unknown #
DXID-attrib $-1 -1 $-1 $346 $278 @18 ASM_EDGE_FROM_STEP @5 33802 #
point $-1 -1 $-1 1444.869869338278 166.35203459003048 -1493.8596923077032 #
truecolor-adesk-attrib $-1 -1 $496 $-1 $349 -1056964608 #
straight-curve $-1 -1 $-1 1464.869869338278 188.09012049238697 -1493.8596923077032 -1000 -7.311267993063608e-14 1.7196646360457797e-12 F 0 F 0.02 #
truecolor-adesk-attrib $-1 -1 $497 $-1 $350 -1056964608 #
cone-surface $-1 -1 $-1 1464.869869338278 190.06631011987395 -1493.5520000000108 -1 -7.3112679930636081e-17 1.7196646360457797e-15 1.4622535986127204e-16 -1.9999999999999984 0 1 I I 0 1 1.9999999999999984 forward I I I I #
DXID-attrib $-1 -1 $-1 $354 $288 @18 ASM_FACE_FROM_STEP @35 Main assem walking plate form-20467 #
coedge $-1 -1 $-1 $370 $498 $372 $450 forward $355 $-1 #
coedge $-1 -1 $-1 $499 $357 $498 $500 reversed $289 $-1 #
coedge $-1 -1 $-1 $357 $499 $501 $502 forward $289 $-1 #
coedge $-1 -1 $-1 $503 $372 $357 $430 reversed $97 $-1 #
edge $504 -1 $-1 $505 0 $506 0.013000000000000001 $357 $507 forward @7 unknown #
DXID-attrib $-1 -1 $-1 $359 $295 @18 ASM_FACE_FROM_STEP @34 Main assem walking plate form-4216 #
truecolor-adesk-attrib $-1 -1 $508 $-1 $360 -1056964608 #
cone-surface $-1 -1 $-1 1464.869869338278 177.22107754120873 -1495.5520000000108 -1 -7.3112679930636081e-17 1.7196646360457797e-15 8.0423947923699729e-16 -11.000000000000005 0 1 I I 0 1 11.000000000000005 forward I I I I #
coedge $-1 -1 $-1 $509 $363 $414 $491 reversed $296 $-1 #
coedge $-1 -1 $-1 $363 $509 $364 $437 forward $296 $-1 #
coedge $-1 -1 $-1 $365 $364 $510 $511 reversed $235 $-1 #
edge $512 -1 $-1 $513 0 $439 0.02 $364 $514 forward @7 unknown #
truecolor-adesk-attrib $-1 -1 $515 $-1 $367 -1056964608 #
vertex $-1 -1 $-1 $367 $516 #
ellipse-curve $-1 -1 $-1 1444.869869338278 146.52107754120868 -1493.5520000000108 1 7.3112679930636081e-17 -1.7196646360457797e-15 1.4622535986127182e-16 -1.9999999999999951 0 1 F 0 F 1.5707963267948966 #
coedge $-1 -1 $-1 $510 $517 $368 $442 forward $207 $-1 #
edge $518 -1 $-1 $448 -0.013000000000000001 $444 -5.5511151231257828e-19 $368 $519 forward @7 unknown #
truecolor-adesk-attrib $-1 -1 $520 $-1 $369 -1056964608 #
vertex $-1 -1 $-1 $369 $521 #
straight-curve $-1 -1 $-1 1464.869869338278 144.52107754120868 -1493.5520000000108 -1000 -7.311267993063608e-14 1.7196646360457797e-12 F 0 F 0.02 #
coedge $-1 -1 $-1 $498 $370 $517 $522 reversed $355 $-1 #
truecolor-adesk-attrib $-1 -1 $523 $-1 $371 -1056964608 #
vertex $-1 -1 $-1 $371 $524 #
straight-curve $-1 -1 $-1 1464.869869338278 144.52107754120868 -1480.5520000000108 -1000 -7.311267993063608e-14 1.7196646360457797e-12 F 0 F 0.02 #
edge $525 -1 $-1 $506 0 $374 0.0016000000000000148 $426 $526 forward @7 unknown #
DXID-attrib $-1 -1 $-1 $373 $302 @18 ASM_EDGE_FROM_STEP @5 24029 #
point $-1 -1 $-1 1444.869869338278 144.52107754120868 -1480.5520000000108 #
point $-1 -1 $-1 1444.869869338278 144.52107754120868 -1493.5520000000108 #
DXID-attrib $-1 -1 $-1 $378 $305 @18 ASM_FACE_FROM_STEP @34 Main assem walking plate form-2244 #
truecolor-adesk-attrib $-1 -1 $527 $-1 $379 -1056964608 #
face $528 -1 $-1 $225 $529 $3 $-1 $530 reversed single #
loop $-1 -1 $-1 $-1 $531 $379 #
plane-surface $-1 -1 $-1 1464.869869338278 146.52107754120868 -1493.9520000000109 -1.7196646360457797e-15 -1.2572929012324888e-31 -1 -1 -7.3112679930636081e-17 1.7196646360457797e-15 forward_v I I I I #
coedge $-1 -1 $-1 $532 $533 $534 $535 forward $380 $-1 #
coedge $-1 -1 $-1 $536 $382 $533 $537 reversed $306 $-1 #
coedge $-1 -1 $-1 $382 $536 $383 $465 forward $306 $-1 #
coedge $-1 -1 $-1 $385 $534 $382 $463 reversed $97 $-1 #
edge $538 -1 $-1 $467 -2.987133055105609 $539 -0.15445959848418411 $382 $540 forward @7 unknown #
coedge $-1 -1 $-1 $384 $383 $541 $542 reversed $243 $-1 #
edge $543 -1 $-1 $544 0 $467 0.02 $383 $545 forward @7 unknown #
truecolor-adesk-attrib $-1 -1 $546 $-1 $386 -1056964608 #
vertex $-1 -1 $-1 $386 $547 #
ellipse-curve $-1 -1 $-1 1444.869869338278 190.06631011987395 -1493.5520000000108 -1 -7.3112679930636081e-17 1.7196646360457797e-15 -2.9245071972254643e-17 0.40000000000000285 0 1 F 1.5707963267948966 F 2.987133055105605 #
coedge $-1 -1 $-1 $541 $392 $387 $470 forward $207 $-1 #
edge $548 -1 $-1 $395 -0.017854767421334867 $472 -8.8989801246074171e-34 $387 $549 forward @7 unknown #
truecolor-adesk-attrib $-1 -1 $550 $-1 $388 -1056964608 #
vertex $-1 -1 $-1 $388 $551 #
straight-curve $-1 -1 $-1 1464.869869338278 190.06631011987395 -1493.9520000000109 -1000 -7.311267993063608e-14 1.7196646360457797e-12 F 0 F 0.02 #
DXID-attrib $-1 -1 $-1 $389 $312 @18 ASM_EDGE_FROM_STEP @5 37618 #
point $-1 -1 $-1 1444.869869338278 190.06631011987395 -1493.9520000000109 #
truecolor-adesk-attrib $-1 -1 $552 $-1 $393 -1056964608 #
ellipse-curve $-1 -1 $-1 1464.869869338278 207.92107754120877 -1493.5520000000108 -1 -7.3112679930636081e-17 1.7196646360457797e-15 -2.924507197225476e-17 0.40000000000000446 0 1 F 0 F 1.5707963267948966 #
DXID-attrib $-1 -1 $-1 $394 $314 @18 ASM_EDGE_FROM_STEP @4 1188 #
point $-1 -1 $-1 1464.869869338278 207.92107754120877 -1493.9520000000109 #
DXID-attrib $-1 -1 $-1 $399 $319 @18 ASM_EDGE_FROM_STEP @5 16907 #
coedge $-1 -1 $-1 $404 $510 $509 $553 forward $207 $-1 #
coedge $-1 -1 $-1 $414 $413 $404 $483 reversed $361 $-1 #
edge $554 -1 $-1 $555 -1.5707963267948966 $485 -0.1544595984841842 $482 $556 forward @7 unknown #
truecolor-adesk-attrib $-1 -1 $557 $-1 $406 -1056964608 #
vertex $-1 -1 $-1 $418 $558 #
ellipse-curve $-1 -1 $-1 1464.869869338278 177.22107754120873 -1495.5520000000108 -1 -7.3112679930636081e-17 1.7196646360457797e-15 8.0423947923699729e-16 -11.000000000000005 0 1 F 0.15445959848418406 F 2.987133055105609 #
DXID-attrib $-1 -1 $-1 $407 $332 @18 ASM_EDGE_FROM_STEP @4 9271 #
point $-1 -1 $-1 1464.869869338278 188.09012049238697 -1493.8596923077032 #
truecolor-adesk-attrib $-1 -1 $559 $-1 $412 -1056964608 #
straight-curve $-1 -1 $-1 1444.869869338278 146.52107754120868 -1495.5520000000108 -7.311267993063608e-14 1000 0 F 0 F 0.017854767421334874 #
edge $560 -1 $-1 $555 0 $416 0.02 $434 $561 forward @7 unknown #
DXID-attrib $-1 -1 $-1 $415 $342 @18 ASM_EDGE_FROM_STEP @4 7240 #
point $-1 -1 $-1 1444.869869338278 164.37584496254351 -1495.5520000000108 #
truecolor-adesk-attrib $-1 -1 $562 $-1 $418 -1056964608 #
straight-curve $-1 -1 $-1 1464.869869338278 166.35203459003048 -1493.8596923077032 -1000 -7.311267993063608e-14 1.7196646360457797e-12 F 0 F 0.02 #
DXID-attrib $-1 -1 $-1 $421 $349 @18 ASM_EDGE_FROM_STEP @5 25503 #
DXID-attrib $-1 -1 $-1 $423 $350 @18 ASM_FACE_FROM_STEP @35 Main assem walking plate form-31612 #
coedge $-1 -1 $-1 $426 $446 $427 $500 forward $355 $-1 #
coedge $-1 -1 $-1 $428 $427 $563 $564 reversed $289 $-1 #
edge $565 -1 $-1 $566 0 $506 0.02 $427 $567 forward @7 unknown #
coedge $-1 -1 $-1 $568 $569 $428 $502 reversed $529 $-1 #
edge $570 -1 $-1 $571 0 $505 0.02 $501 $572 forward @7 unknown #
coedge $-1 -1 $-1 $573 $429 $569 $574 reversed $97 $-1 #
truecolor-adesk-attrib $-1 -1 $575 $-1 $430 -1056964608 #
vertex $-1 -1 $-1 $574 $576 #
vertex $-1 -1 $-1 $430 $577 #
straight-curve $-1 -1 $-1 1444.869869338278 146.12107754120882 -1493.5520000000108 1.7196646360457797e-12 1.2572929012324887e-28 1000 F 0 F 0.013000000000000001 #
DXID-attrib $-1 -1 $-1 $432 $360 @18 ASM_FACE_FROM_STEP @35 Main assem walking plate form-11228 #
coedge $-1 -1 $-1 $435 $434 $481 $553 reversed $296 $-1 #
coedge $-1 -1 $-1 $481 $441 $436 $511 forward $207 $-1 #
edge $578 -1 $-1 $444 0 $513 1.5707963267948966 $436 $579 forward @7 unknown #
truecolor-adesk-attrib $-1 -1 $580 $-1 $437 -1056964608 #
vertex $-1 -1 $-1 $437 $581 #
straight-curve $-1 -1 $-1 1464.869869338278 146.52107754120868 -1495.5520000000108 -1000 -7.311267993063608e-14 1.7196646360457797e-12 F 0 F 0.02 #
DXID-attrib $-1 -1 $-1 $438 $367 @18 ASM_EDGE_FROM_STEP @5 18734 #
point $-1 -1 $-1 1444.869869338278 146.52107754120868 -1495.5520000000108 #
coedge $-1 -1 $-1 $441 $563 $446 $522 forward $207 $-1 #
truecolor-adesk-attrib $-1 -1 $582 $-1 $442 -1056964608 #
straight-curve $-1 -1 $-1 1464.869869338278 144.52107754120868 -1493.5520000000108 -1.7196646360457797e-12 1.0675221390626507e-12 -1000 F -0.013000000000000001 F -5.5511151231257828e-19 #
DXID-attrib $-1 -1 $-1 $443 $369 @18 ASM_EDGE_FROM_STEP @4 5103 #
point $-1 -1 $-1 1464.869869338278 144.52107754120868 -1493.5520000000108 #
edge $583 -1 $-1 $566 0 $448 0.0016000000000000148 $446 $584 forward @7 unknown #
DXID-attrib $-1 -1 $-1 $447 $371 @18 ASM_EDGE_FROM_STEP @5 12551 #
point $-1 -1 $-1 1464.869869338278 144.52107754120868 -1480.5520000000108 #
truecolor-adesk-attrib $-1 -1 $585 $-1 $450 -1056964608 #
straight-curve $-1 -1 $-1 1444.869869338278 146.12107754120882 -1480.5520000000108 7.311267993063608e-14 -1000 0 F 0 F 0.0016000000000000148 #
DXID-attrib $-1 -1 $-1 $455 $379 @18 ASM_FACE_FROM_STEP @35 Main assem walking plate form-14110 #
truecolor-adesk-attrib $-1 -1 $586 $-1 $456 -1056964608 #
loop $-1 -1 $-1 $-1 $569 $456 #
cone-surface $-1 -1 $-1 1464.869869338278 146.52107754120868 -1493.5520000000108 -1 -7.3112679930636081e-17 1.7196646360457797e-15 2.9245071972254508e-17 -0.40000000000000102 0 1 I I 0 1 0.40000000000000102 forward I I I I #
coedge $-1 -1 $-1 $587 $588 $573 $589 forward $457 $-1 #
coedge $-1 -1 $-1 $590 $459 $588 $591 reversed $380 $-1 #
coedge $-1 -1 $-1 $459 $590 $460 $537 forward $380 $-1 #
coedge $-1 -1 $-1 $462 $573 $459 $535 reversed $97 $-1 #
edge $592 -1 $-1 $539 0.15445959848418386 $593 1.5707963267948966 $459 $594 forward @7 unknown #
coedge $-1 -1 $-1 $461 $460 $595 $596 reversed $306 $-1 #
edge $597 -1 $-1 $598 0 $539 0.02 $460 $599 forward @7 unknown #
truecolor-adesk-attrib $-1 -1 $600 $-1 $463 -1056964608 #
vertex $-1 -1 $-1 $463 $601 #
ellipse-curve $-1 -1 $-1 1444.869869338278 177.22107754120873 -1495.5520000000108 1 7.3112679930636081e-17 -1.7196646360457797e-15 9.2121976712601451e-16 -12.599999999999998 0 1 F -2.987133055105609 F -0.15445959848418411 #
coedge $-1 -1 $-1 $595 $469 $464 $542 forward $207 $-1 #
edge $602 -1 $-1 $472 1.5707963267948966 $544 2.987133055105605 $464 $603 forward @7 unknown #
truecolor-adesk-attrib $-1 -1 $604 $-1 $465 -1056964608 #
vertex $-1 -1 $-1 $465 $605 #
straight-curve $-1 -1 $-1 1464.869869338278 189.67107219437651 -1493.6135384615493 -1000 -7.311267993063608e-14 1.7196646360457797e-12 F 0 F 0.02 #
DXID-attrib $-1 -1 $-1 $466 $386 @18 ASM_EDGE_FROM_STEP @5 21899 #
point $-1 -1 $-1 1444.869869338278 189.67107219437651 -1493.6135384615493 #
truecolor-adesk-attrib $-1 -1 $606 $-1 $470 -1056964608 #
straight-curve $-1 -1 $-1 1464.869869338278 190.06631011987395 -1493.9520000000109 7.3112679930636534e-14 -1000 2.671829571543961e-13 F -0.017854767421334867 F -8.8989801246074171e-34 #
DXID-attrib $-1 -1 $-1 $471 $388 @18 ASM_EDGE_FROM_STEP @4 5260 #
point $-1 -1 $-1 1464.869869338278 190.06631011987395 -1493.9520000000109 #
DXID-attrib $-1 -1 $-1 $476 $393 @18 ASM_EDGE_FROM_STEP @5 38749 #
edge $607 -1 $-1 $513 0 $555 0.017854767421334874 $509 $608 forward @7 unknown #
truecolor-adesk-attrib $-1 -1 $609 $-1 $483 -1056964608 #
vertex $-1 -1 $-1 $491 $610 #
ellipse-curve $-1 -1 $-1 1464.869869338278 164.37584496254351 -1493.5520000000108 1 7.3112679930636081e-17 -1.7196646360457797e-15 -1.4622535986127204e-16 1.9999999999999984 0 1 F -1.5707963267948966 F -0.1544595984841842 #
DXID-attrib $-1 -1 $-1 $484 $406 @18 ASM_EDGE_FROM_STEP @5 30529 #
point $-1 -1 $-1 1464.869869338278 166.35203459003048 -1493.8596923077032 #
DXID-attrib $-1 -1 $-1 $489 $412 @18 ASM_EDGE_FROM_STEP @5 34577 #
truecolor-adesk-attrib $-1 -1 $611 $-1 $491 -1056964608 #
straight-curve $-1 -1 $-1 1464.869869338278 164.37584496254351 -1495.5520000000108 -1000 -7.311267993063608e-14 1.7196646360457797e-12 F 0 F 0.02 #
DXID-attrib $-1 -1 $-1 $494 $418 @18 ASM_EDGE_FROM_STEP @5 16269 #
coedge $-1 -1 $-1 $517 $612 $499 $564 forward $207 $-1 #
edge $613 -1 $-1 $571 0 $566 0.013000000000000001 $499 $614 forward @7 unknown #
truecolor-adesk-attrib $-1 -1 $615 $-1 $500 -1056964608 #
vertex $-1 -1 $-1 $500 $616 #
straight-curve $-1 -1 $-1 1464.869869338278 146.12107754120882 -1480.5520000000108 -1000 -7.311267993063608e-14 1.7196646360457797e-12 F 0 F 0.02 #
coedge $-1 -1 $-1 $617 $501 $612 $618 reversed $529 $-1 #
coedge $-1 -1 $-1 $501 $617 $503 $574 forward $529 $-1 #
truecolor-adesk-attrib $-1 -1 $619 $-1 $502 -1056964608 #
vertex $-1 -1 $-1 $502 $620 #
straight-curve $-1 -1 $-1 1464.869869338278 146.12107754120882 -1493.5520000000108 -1000 -7.311267993063608e-14 1.7196646360457797e-12 F 0 F 0.02 #
coedge $-1 -1 $-1 $534 $503 $531 $589 reversed $97 $-1 #
edge $621 -1 $-1 $622 -1.5707963267948966 $505 0 $569 $623 forward @7 unknown #
DXID-attrib $-1 -1 $-1 $504 $430 @18 ASM_EDGE_FROM_STEP @5 36689 #
point $-1 -1 $-1 1444.869869338278 146.12107754120882 -1493.5520000000108 #
point $-1 -1 $-1 1444.869869338278 146.12107754120882 -1480.5520000000108 #
truecolor-adesk-attrib $-1 -1 $624 $-1 $511 -1056964608 #
ellipse-curve $-1 -1 $-1 1464.869869338278 146.52107754120868 -1493.5520000000108 1 7.3112679930636081e-17 -1.7196646360457797e-15 1.4622535986127182e-16 -1.9999999999999951 0 1 F 0 F 1.5707963267948966 #
DXID-attrib $-1 -1 $-1 $512 $437 @18 ASM_EDGE_FROM_STEP @5 31180 #
point $-1 -1 $-1 1464.869869338278 146.52107754120868 -1495.5520000000108 #
DXID-attrib $-1 -1 $-1 $518 $442 @18 ASM_EDGE_FROM_STEP @5 39300 #
truecolor-adesk-attrib $-1 -1 $625 $-1 $522 -1056964608 #
straight-curve $-1 -1 $-1 1464.869869338278 146.12107754120882 -1480.5520000000108 7.311267993063608e-14 -1000 0 F 0 F 0.0016000000000000148 #
DXID-attrib $-1 -1 $-1 $525 $450 @18 ASM_EDGE_FROM_STEP @5 46604 #
DXID-attrib $-1 -1 $-1 $528 $456 @18 ASM_FACE_FROM_STEP @35 Main assem walking plate form-40112 #
coedge $-1 -1 $-1 $626 $531 $617 $627 reversed $457 $-1 #
coedge $-1 -1 $-1 $531 $626 $532 $591 forward $457 $-1 #
edge $628 -1 $-1 $593 -0.017854767421334874 $622 0 $531 $629 forward @7 unknown #
coedge $-1 -1 $-1 $533 $532 $630 $631 reversed $380 $-1 #
edge $632 -1 $-1 $633 0 $593 0.02 $532 $634 forward @7 unknown #
truecolor-adesk-attrib $-1 -1 $635 $-1 $535 -1056964608 #
vertex $-1 -1 $-1 $535 $636 #
ellipse-curve $-1 -1 $-1 1444.869869338278 164.37584496254351 -1493.5520000000108 -1 -7.3112679930636081e-17 1.7196646360457797e-15 -2.9245071972254384e-17 0.3999999999999993 0 1 F 0.15445959848418386 F 1.5707963267948966 #
coedge $-1 -1 $-1 $630 $541 $536 $596 forward $207 $-1 #
edge $637 -1 $-1 $544 -2.987133055105609 $598 -0.15445959848418411 $536 $638 forward @7 unknown #
truecolor-adesk-attrib $-1 -1 $639 $-1 $537 -1056964608 #
vertex $-1 -1 $-1 $537 $640 #
straight-curve $-1 -1 $-1 1464.869869338278 164.77108288804095 -1493.6135384615493 -1000 -7.311267993063608e-14 1.7196646360457797e-12 F 0 F 0.02 #
DXID-attrib $-1 -1 $-1 $538 $463 @18 ASM_EDGE_FROM_STEP @5 37395 #
point $-1 -1 $-1 1444.869869338278 164.77108288804095 -1493.6135384615493 #
truecolor-adesk-attrib $-1 -1 $641 $-1 $542 -1056964608 #
ellipse-curve $-1 -1 $-1 1464.869869338278 190.06631011987395 -1493.5520000000108 -1 -7.3112679930636081e-17 1.7196646360457797e-15 -2.9245071972254643e-17 0.40000000000000285 0 1 F 1.5707963267948966 F 2.987133055105605 #
DXID-attrib $-1 -1 $-1 $543 $465 @18 ASM_EDGE_FROM_STEP @5 31659 #
point $-1 -1 $-1 1464.869869338278 189.67107219437651 -1493.6135384615493 #
DXID-attrib $-1 -1 $-1 $548 $470 @18 ASM_EDGE_FROM_STEP @5 23753 #
truecolor-adesk-attrib $-1 -1 $642 $-1 $553 -1056964608 #
straight-curve $-1 -1 $-1 1464.869869338278 146.52107754120868 -1495.5520000000108 -7.311267993063608e-14 1000 0 F 0 F 0.017854767421334874 #
DXID-attrib $-1 -1 $-1 $554 $483 @18 ASM_EDGE_FROM_STEP @5 38262 #
point $-1 -1 $-1 1464.869869338278 164.37584496254351 -1495.5520000000108 #
DXID-attrib $-1 -1 $-1 $560 $491 @18 ASM_EDGE_FROM_STEP @4 9825 #
coedge $-1 -1 $-1 $563 $643 $568 $618 forward $207 $-1 #
truecolor-adesk-attrib $-1 -1 $644 $-1 $564 -1056964608 #
straight-curve $-1 -1 $-1 1464.869869338278 146.12107754120882 -1493.5520000000108 1.7196646360457797e-12 1.2572929012324887e-28 1000 F 0 F 0.013000000000000001 #
DXID-attrib $-1 -1 $-1 $565 $500 @18 ASM_EDGE_FROM_STEP @5 11623 #
point $-1 -1 $-1 1464.869869338278 146.12107754120882 -1480.5520000000108 #
coedge $-1 -1 $-1 $569 $568 $587 $627 forward $529 $-1 #
edge $645 -1 $-1 $646 -1.5707963267948966 $571 0 $568 $647 forward @7 unknown #
DXID-attrib $-1 -1 $-1 $570 $502 @18 ASM_EDGE_FROM_STEP @5 36223 #
point $-1 -1 $-1 1464.869869338278 146.12107754120882 -1493.5520000000108 #
truecolor-adesk-attrib $-1 -1 $648 $-1 $574 -1056964608 #
vertex $-1 -1 $-1 $589 $649 #
ellipse-curve $-1 -1 $-1 1444.869869338278 146.52107754120868 -1493.5520000000108 -1 -7.3112679930636081e-17 1.7196646360457797e-15 2.9245071972254508e-17 -0.40000000000000102 0 1 F -1.5707963267948966 F 0 #
DXID-attrib $-1 -1 $-1 $578 $511 @18 ASM_EDGE_FROM_STEP @5 28418 #
DXID-attrib $-1 -1 $-1 $583 $522 @18 ASM_EDGE_FROM_STEP @5 22475 #
coedge $-1 -1 $-1 $588 $587 $643 $650 reversed $457 $-1 #
edge $651 -1 $-1 $646 0 $622 0.02 $587 $652 forward @7 unknown #
truecolor-adesk-attrib $-1 -1 $653 $-1 $589 -1056964608 #
straight-curve $-1 -1 $-1 1444.869869338278 146.52107754120868 -1493.9520000000109 7.311267993063608e-14 -1000 0 F -0.017854767421334874 F 0 #
coedge $-1 -1 $-1 $643 $595 $590 $631 forward $207 $-1 #
edge $654 -1 $-1 $598 0.15445959848418386 $633 1.5707963267948966 $590 $655 forward @7 unknown #
truecolor-adesk-attrib $-1 -1 $656 $-1 $591 -1056964608 #
vertex $-1 -1 $-1 $591 $657 #
straight-curve $-1 -1 $-1 1464.869869338278 164.37584496254351 -1493.9520000000109 -1000 -7.311267993063608e-14 1.7196646360457797e-12 F 0 F 0.02 #
DXID-attrib $-1 -1 $-1 $592 $535 @18 ASM_EDGE_FROM_STEP @4 3038 #
point $-1 -1 $-1 1444.869869338278 164.37584496254351 -1493.9520000000109 #
truecolor-adesk-attrib $-1 -1 $658 $-1 $596 -1056964608 #
ellipse-curve $-1 -1 $-1 1464.869869338278 177.22107754120873 -1495.5520000000108 1 7.3112679930636081e-17 -1.7196646360457797e-15 9.2121976712601451e-16 -12.599999999999998 0 1 F -2.987133055105609 F -0.15445959848418411 #
DXID-attrib $-1 -1 $-1 $597 $537 @18 ASM_EDGE_FROM_STEP @4 3380 #
point $-1 -1 $-1 1464.869869338278 164.77108288804095 -1493.6135384615493 #
DXID-attrib $-1 -1 $-1 $602 $542 @18 ASM_EDGE_FROM_STEP @5 19600 #
DXID-attrib $-1 -1 $-1 $607 $553 @18 ASM_EDGE_FROM_STEP @5 12619 #
coedge $-1 -1 $-1 $612 $630 $626 $650 forward $207 $-1 #
DXID-attrib $-1 -1 $-1 $613 $564 @18 ASM_EDGE_FROM_STEP @5 10646 #
truecolor-adesk-attrib $-1 -1 $659 $-1 $618 -1056964608 #
vertex $-1 -1 $-1 $627 $660 #
ellipse-curve $-1 -1 $-1 1464.869869338278 146.52107754120868 -1493.5520000000108 -1 -7.3112679930636081e-17 1.7196646360457797e-15 2.9245071972254508e-17 -0.40000000000000102 0 1 F -1.5707963267948966 F 0 #
DXID-attrib $-1 -1 $-1 $621 $574 @18 ASM_EDGE_FROM_STEP @5 19709 #
point $-1 -1 $-1 1444.869869338278 146.52107754120868 -1493.9520000000109 #
edge $661 -1 $-1 $633 -0.017854767421334874 $646 0 $626 $662 forward @7 unknown #
truecolor-adesk-attrib $-1 -1 $663 $-1 $627 -1056964608 #
straight-curve $-1 -1 $-1 1464.869869338278 146.52107754120868 -1493.9520000000109 -1000 -7.311267993063608e-14 1.7196646360457797e-12 F 0 F 0.02 #
DXID-attrib $-1 -1 $-1 $628 $589 @18 ASM_EDGE_FROM_STEP @5 37724 #
truecolor-adesk-attrib $-1 -1 $664 $-1 $631 -1056964608 #
ellipse-curve $-1 -1 $-1 1464.869869338278 164.37584496254351 -1493.5520000000108 -1 -7.3112679930636081e-17 1.7196646360457797e-15 -2.9245071972254384e-17 0.3999999999999993 0 1 F 0.15445959848418386 F 1.5707963267948966 #
DXID-attrib $-1 -1 $-1 $632 $591 @18 ASM_EDGE_FROM_STEP @5 16015 #
point $-1 -1 $-1 1464.869869338278 164.37584496254351 -1493.9520000000109 #
DXID-attrib $-1 -1 $-1 $637 $596 @18 ASM_EDGE_FROM_STEP @5 29094 #
DXID-attrib $-1 -1 $-1 $645 $618 @18 ASM_EDGE_FROM_STEP @5 19074 #
point $-1 -1 $-1 1464.869869338278 146.52107754120868 -1493.9520000000109 #
truecolor-adesk-attrib $-1 -1 $665 $-1 $650 -1056964608 #
straight-curve $-1 -1 $-1 1464.869869338278 146.52107754120868 -1493.9520000000109 7.311267993063608e-14 -1000 0 F -0.017854767421334874 F 0 #
DXID-attrib $-1 -1 $-1 $651 $627 @18 ASM_EDGE_FROM_STEP @5 14122 #
DXID-attrib $-1 -1 $-1 $654 $631 @18 ASM_EDGE_FROM_STEP @5 29063 #
DXID-attrib $-1 -1 $-1 $661 $650 @18 ASM_EDGE_FROM_STEP @5 15984 #
