700 460 1 0         
5 ZWCAD 12 ACIS 28.0 NT 24 Mon May 13 14:53:45 2024 
1 9.9999999999999995e-07 1e-10 
body $1 -1 $-1 $2 $-1 $-1 #
DXID-attrib $-1 -1 $-1 $-1 $0 @18 ASM_BODY_FROM_STEP @83 13750123C4A4D5249006785220C216279C07DCC6|:|456E16B12E0E24A8FF236C5EF0B2F44ACFCE15E0 #
lump $-1 -1 $-1 $-1 $3 $0 #
shell $-1 -1 $-1 $-1 $-1 $4 $-1 $2 #
face $5 -1 $-1 $6 $7 $3 $-1 $8 forward single #
truecolor-adesk-attrib $-1 -1 $9 $-1 $4 -1056964608 #
face $10 -1 $-1 $11 $12 $3 $-1 $13 reversed single #
loop $-1 -1 $-1 $-1 $14 $4 #
torus-surface $-1 -1 $-1 3758.0489331766248 -310.14825904321833 744.00000000006128 -1 -3.0084260340335623e-15 -2.6341990300727125e-16 2.9348713799329169 10 2.901179717201766e-15 -0.93279348478923318 -0.36041131327243131 forward_v I I I I #
DXID-attrib $-1 -1 $-1 $5 $4 @18 ASM_FACE_FROM_STEP @35 Main assem walking plate form-42253 #
truecolor-adesk-attrib $-1 -1 $15 $-1 $6 -1056964608 #
face $16 -1 $-1 $17 $18 $3 $-1 $19 forward single #
loop $-1 -1 $-1 $-1 $20 $6 #
torus-surface $-1 -1 $-1 3747.6191016736443 -310.14825904321833 744.00000000006128 1 3.0084260340335623e-15 2.6341990300727125e-16 19.999999999999996 10 -2.901179717201766e-15 0.93279348478923318 0.36041131327243131 forward_v I I I I #
coedge $-1 -1 $-1 $21 $22 $23 $24 reversed $7 $-1 #
DXID-attrib $-1 -1 $-1 $10 $6 @18 ASM_FACE_FROM_STEP @35 Main assem walking plate form-10247 #
truecolor-adesk-attrib $-1 -1 $25 $-1 $11 -1056964608 #
face $26 -1 $-1 $27 $28 $3 $-1 $29 reversed single #
loop $-1 -1 $-1 $-1 $30 $11 #
cone-surface $-1 -1 $-1 3776.2793557114887 -310.14825904321827 744.00000000006128 -1 -3.0084260340335623e-15 -2.6341990300727125e-16 1.4505898586008829e-14 -4.6639674239461657 -1.8020565663621566 1 I I 0.44721359549995798 0.89442719099991597 5 forward I I I I #
coedge $-1 -1 $-1 $31 $32 $33 $34 forward $12 $-1 #
coedge $-1 -1 $-1 $35 $14 $36 $37 forward $7 $-1 #
coedge $-1 -1 $-1 $14 $35 $38 $39 reversed $7 $-1 #
coedge $-1 -1 $-1 $40 $41 $14 $24 forward $18 $-1 #
edge $42 -1 $-1 $43 -3.1415926535897931 $44 0 $14 $45 forward @7 unknown #
DXID-attrib $-1 -1 $-1 $16 $11 @18 ASM_FACE_FROM_STEP @35 Main assem walking plate form-47000 #
truecolor-adesk-attrib $-1 -1 $46 $-1 $17 -1056964608 #
face $47 -1 $-1 $48 $49 $3 $-1 $50 forward single #
loop $-1 -1 $-1 $-1 $51 $17 #
cone-surface $-1 -1 $-1 3756.2793557114887 -310.14825904321833 744.00000000006128 -1 -3.0084260340335623e-15 -2.6341990300727125e-16 2.4079791652774655e-14 -7.7421859237506343 -2.9914139001611795 1 I I 0 1 8.2999999999999989 forward I I I I #
coedge $-1 -1 $-1 $41 $40 $52 $53 reversed $18 $-1 #
coedge $-1 -1 $-1 $54 $20 $55 $56 forward $12 $-1 #
coedge $-1 -1 $-1 $20 $54 $57 $58 reversed $12 $-1 #
coedge $-1 -1 $-1 $36 $38 $20 $34 reversed $59 $-1 #
edge $60 -1 $-1 $61 -3.1415926535897931 $62 1.2246467991473532e-16 $20 $63 forward @7 unknown #
coedge $-1 -1 $-1 $22 $21 $64 $65 reversed $7 $-1 #
coedge $-1 -1 $-1 $66 $33 $21 $37 reversed $59 $-1 #
edge $67 -1 $-1 $43 2.6779450445889865 $61 3.6901907695041909 $21 $68 forward @7 unknown #
coedge $-1 -1 $-1 $33 $66 $22 $39 forward $59 $-1 #
edge $69 -1 $-1 $44 2.6779450445889865 $62 3.6901907695041909 $22 $70 forward @7 unknown #
coedge $-1 -1 $-1 $30 $23 $71 $72 reversed $18 $-1 #
coedge $-1 -1 $-1 $23 $30 $73 $74 forward $18 $-1 #
truecolor-adesk-attrib $-1 -1 $75 $-1 $24 -1056964608 #
vertex $-1 -1 $-1 $24 $76 #
vertex $-1 -1 $-1 $24 $77 #
ellipse-curve $-1 -1 $-1 3762.5210691316247 -310.14825904321833 744.00000000006128 1 3.0084260340335623e-15 2.6341990300727125e-16 3.4463529570484398e-14 -11.080787465726379 -4.2813776336758105 1 F -3.1415926535897931 F 0 #
DXID-attrib $-1 -1 $-1 $26 $17 @18 ASM_FACE_FROM_STEP @34 Main assem walking plate form-5435 #
truecolor-adesk-attrib $-1 -1 $78 $-1 $27 -1056964608 #
face $79 -1 $-1 $80 $81 $3 $-1 $82 forward single #
loop $-1 -1 $-1 $-1 $83 $27 #
cone-surface $-1 -1 $-1 3756.2793557114887 -310.14825904321833 744.00000000006128 -1 -3.0084260340335623e-15 -2.6341990300727125e-16 2.9011797172017658e-14 -9.3279348478923296 -3.6041131327243123 1 I I 0 1 9.9999999999999982 forward I I I I #
coedge $-1 -1 $-1 $84 $85 $86 $87 forward $28 $-1 #
coedge $-1 -1 $-1 $88 $88 $30 $53 forward $89 $-1 #
edge $90 -1 $-1 $91 6.123233995736766e-17 $92 3.1415926535897931 $30 $93 forward @7 unknown #
coedge $-1 -1 $-1 $32 $31 $94 $95 reversed $12 $-1 #
coedge $-1 -1 $-1 $64 $96 $31 $56 reversed $97 $-1 #
edge $98 -1 $-1 $62 2.5929945376753949 $99 3.1415926535897931 $31 $100 forward @7 unknown #
coedge $-1 -1 $-1 $96 $64 $32 $58 forward $97 $-1 #
edge $101 -1 $-1 $61 2.5929945376753949 $102 3.1415926535897931 $32 $103 forward @7 unknown #
loop $-1 -1 $-1 $-1 $36 $104 #
truecolor-adesk-attrib $-1 -1 $105 $-1 $34 -1056964608 #
vertex $-1 -1 $-1 $37 $106 #
vertex $-1 -1 $-1 $65 $107 #
ellipse-curve $-1 -1 $-1 3752.8340174251348 -310.14825904321833 744.00000000006128 -1 -3.0084260340335623e-15 -2.6341990300727125e-16 3.3269091832046331e-14 -10.696749298840238 -4.1329935568879606 1 F -3.1415926535897931 F 1.2246467991473532e-16 #
coedge $-1 -1 $-1 $57 $55 $35 $65 forward $97 $-1 #
edge $108 -1 $-1 $62 1.2246467991473532e-16 $61 3.1415926535897931 $35 $109 forward @7 unknown #
coedge $-1 -1 $-1 $38 $36 $110 $111 reversed $59 $-1 #
truecolor-adesk-attrib $-1 -1 $112 $-1 $37 -1056964608 #
ellipse-curve $-1 -1 $-1 3758.0489331766248 -307.41063014132249 745.05776084838863 8.3855440852001449e-16 -0.36041131327243142 0.93279348478923318 2.9011797172017658e-14 -9.3279348478923314 -3.6041131327243145 1 F 2.6779450445889865 F 3.6901907695041909 #
truecolor-adesk-attrib $-1 -1 $113 $-1 $39 -1056964608 #
ellipse-curve $-1 -1 $-1 3758.0489331766248 -312.88588794511412 742.94223915173404 -8.3855440852001409e-16 0.36041131327243131 -0.93279348478923318 -2.9011797172017658e-14 9.3279348478923314 3.6041131327243132 1 F 2.6779450445889865 F 3.6901907695041909 #
coedge $-1 -1 $-1 $110 $114 $40 $72 forward $115 $-1 #
edge $116 -1 $-1 $92 0 $44 0.015382232023249658 $40 $117 forward @7 unknown #
coedge $-1 -1 $-1 $114 $110 $41 $74 reversed $115 $-1 #
edge $118 -1 $-1 $91 -1.676782411976111e-35 $43 0.015382232023249658 $41 $119 forward @7 unknown #
DXID-attrib $-1 -1 $-1 $42 $24 @18 ASM_EDGE_FROM_STEP @5 38067 #
point $-1 -1 $-1 3762.5210691316247 -299.06747157749192 748.28137763373707 #
point $-1 -1 $-1 3762.5210691316247 -321.22904650894469 739.71862236638549 #
DXID-attrib $-1 -1 $-1 $47 $27 @18 ASM_FACE_FROM_STEP @35 Main assem walking plate form-15861 #
truecolor-adesk-attrib $-1 -1 $120 $-1 $48 -1056964608 #
face $121 -1 $-1 $122 $123 $3 $-1 $124 reversed single #
loop $-1 -1 $-1 $-1 $125 $48 #
cone-surface $-1 -1 $-1 3756.2793557114887 -310.14825904321833 744.00000000006128 -1 -3.0084260340335623e-15 -2.6341990300727125e-16 2.9011797172017658e-14 -9.3279348478923296 -3.6041131327243123 1 I I 0 1 9.9999999999999982 forward I I I I #
coedge $-1 -1 $-1 $126 $127 $96 $128 forward $49 $-1 #
coedge $-1 -1 $-1 $129 $51 $130 $131 forward $28 $-1 #
coedge $-1 -1 $-1 $51 $129 $132 $133 reversed $28 $-1 #
coedge $-1 -1 $-1 $134 $134 $51 $87 reversed $135 $-1 #
edge $136 -1 $-1 $137 -3.1415926535897931 $138 1.224646799147353e-16 $51 $139 forward @7 unknown #
coedge $-1 -1 $-1 $52 $52 $114 $140 forward $89 $-1 #
loop $-1 -1 $-1 $141 $88 $142 #
truecolor-adesk-attrib $-1 -1 $143 $-1 $53 -1056964608 #
vertex $-1 -1 $-1 $53 $144 #
vertex $-1 -1 $-1 $53 $145 #
ellipse-curve $-1 -1 $-1 3776.2793557114887 -310.14825904321827 744.00000000006128 1 3.0084260340335623e-15 2.6341990300727125e-16 -1.4505898586008829e-14 4.6639674239461657 1.8020565663621566 1 F 6.123233995736766e-17 F 3.1415926535897931 #
coedge $-1 -1 $-1 $146 $125 $54 $95 forward $81 $-1 #
edge $147 -1 $-1 $102 -1.2246467991473532e-16 $99 3.1415926535897931 $54 $148 forward @7 unknown #
coedge $-1 -1 $-1 $55 $57 $83 $128 reversed $97 $-1 #
loop $-1 -1 $-1 $-1 $55 $149 #
truecolor-adesk-attrib $-1 -1 $150 $-1 $56 -1056964608 #
vertex $-1 -1 $-1 $56 $151 #
ellipse-curve $-1 -1 $-1 3747.6191016736443 -328.80412873900303 736.79177373461266 8.385544085200137e-16 -0.3604113132724312 0.93279348478923318 2.9011797172017664e-14 -9.3279348478923332 -3.6041131327243123 1 F 2.5929945376753949 F 3.1415926535897931 #
truecolor-adesk-attrib $-1 -1 $152 $-1 $58 -1056964608 #
vertex $-1 -1 $-1 $95 $153 #
ellipse-curve $-1 -1 $-1 3747.6191016736443 -291.49238934743369 751.20822626550989 -8.3855440852001409e-16 0.36041131327243131 -0.93279348478923318 -2.9011797172017664e-14 9.3279348478923332 3.6041131327243137 1 F 2.5929945376753949 F 3.1415926535897931 #
face $154 -1 $-1 $-1 $59 $3 $-1 $155 forward single #
DXID-attrib $-1 -1 $-1 $60 $34 @18 ASM_EDGE_FROM_STEP @5 21464 #
point $-1 -1 $-1 3752.8340174251348 -299.45150974437809 748.13299355694926 #
point $-1 -1 $-1 3752.8340174251348 -320.84500834205858 739.8670064431733 #
truecolor-adesk-attrib $-1 -1 $156 $-1 $65 -1056964608 #
ellipse-curve $-1 -1 $-1 3752.8340174251348 -310.14825904321833 744.00000000006128 -1 -3.0084260340335623e-15 -2.6341990300727125e-16 3.3269091832046331e-14 -10.696749298840238 -4.1329935568879606 1 F 1.2246467991473532e-16 F 3.1415926535897931 #
coedge $-1 -1 $-1 $73 $71 $66 $111 forward $115 $-1 #
edge $157 -1 $-1 $44 0 $43 3.1415926535897931 $110 $158 forward @7 unknown #
DXID-attrib $-1 -1 $-1 $67 $37 @18 ASM_EDGE_FROM_STEP @5 12413 #
DXID-attrib $-1 -1 $-1 $69 $39 @18 ASM_EDGE_FROM_STEP @5 24489 #
coedge $-1 -1 $-1 $71 $73 $88 $140 reversed $115 $-1 #
loop $-1 -1 $-1 $-1 $73 $159 #
truecolor-adesk-attrib $-1 -1 $160 $-1 $72 -1056964608 #
straight-curve $-1 -1 $-1 3776.2793557114887 -314.81222646716441 742.19794343369915 -894.42719099991496 -417.15792819153114 -161.18083926742599 F 0 F 0.015382232023249658 #
truecolor-adesk-attrib $-1 -1 $161 $-1 $74 -1056964608 #
straight-curve $-1 -1 $-1 3776.2793557114887 -305.48429161927208 745.8020565664234 -894.42719099991746 417.15792819152574 161.1808392674256 F -1.676782411976111e-35 F 0.015382232023249658 #
DXID-attrib $-1 -1 $-1 $79 $48 @18 ASM_FACE_FROM_STEP @35 Main assem walking plate form-21545 #
truecolor-adesk-attrib $-1 -1 $162 $-1 $80 -1056964608 #
face $163 -1 $-1 $159 $164 $3 $-1 $165 reversed single #
loop $-1 -1 $-1 $166 $167 $80 #
plane-surface $-1 -1 $-1 3716.2793557114887 -310.14825904321845 744.00000000006128 1 3.0084260340335623e-15 2.6341990300727125e-16 -2.901179717201766e-15 0.93279348478923318 0.36041131327243131 forward_v I I I I #
coedge $-1 -1 $-1 $94 $168 $126 $169 reversed $81 $-1 #
coedge $-1 -1 $-1 $170 $83 $125 $169 forward $49 $-1 #
coedge $-1 -1 $-1 $83 $170 $146 $171 reversed $49 $-1 #
edge $172 -1 $-1 $99 -3.1415926535897931 $102 -1.2246467991473532e-16 $83 $173 forward @7 unknown #
coedge $-1 -1 $-1 $85 $84 $174 $175 reversed $28 $-1 #
coedge $-1 -1 $-1 $176 $177 $84 $131 reversed $164 $-1 #
edge $178 -1 $-1 $138 0 $179 0.040000000000000001 $84 $180 forward @7 unknown #
coedge $-1 -1 $-1 $177 $176 $85 $133 forward $164 $-1 #
edge $181 -1 $-1 $137 0 $182 0.040000000000000001 $85 $183 forward @7 unknown #
coedge $-1 -1 $-1 $86 $86 $176 $184 reversed $135 $-1 #
loop $-1 -1 $-1 $185 $86 $186 #
truecolor-adesk-attrib $-1 -1 $187 $-1 $87 -1056964608 #
vertex $-1 -1 $-1 $87 $188 #
vertex $-1 -1 $-1 $87 $189 #
ellipse-curve $-1 -1 $-1 3756.2793557114887 -310.14825904321833 744.00000000006128 1 3.0084260340335623e-15 2.6341990300727125e-16 -2.4079791652774655e-14 7.7421859237506343 2.9914139001611795 1 F -3.1415926535897931 F 1.224646799147353e-16 #
edge $190 -1 $-1 $92 -3.1415926535897931 $91 6.123233995736766e-17 $114 $191 forward @7 unknown #
loop $-1 -1 $-1 $-1 $192 $142 #
face $193 -1 $-1 $186 $89 $3 $-1 $194 forward single #
DXID-attrib $-1 -1 $-1 $90 $53 @18 ASM_EDGE_FROM_STEP @5 46898 #
point $-1 -1 $-1 3776.2793557114887 -305.48429161927208 745.8020565664234 #
point $-1 -1 $-1 3776.2793557114887 -314.81222646716441 742.19794343369915 #
coedge $-1 -1 $-1 $168 $94 $127 $171 forward $81 $-1 #
truecolor-adesk-attrib $-1 -1 $195 $-1 $95 -1056964608 #
ellipse-curve $-1 -1 $-1 3747.6191016736443 -310.14825904321833 744.00000000006128 -1 -3.0084260340335623e-15 -2.6341990300727125e-16 -2.9011797172017658e-14 9.3279348478923296 3.6041131327243123 1 F -1.2246467991473532e-16 F 3.1415926535897931 #
face $196 -1 $-1 $104 $97 $3 $-1 $197 reversed single #
DXID-attrib $-1 -1 $-1 $98 $56 @18 ASM_EDGE_FROM_STEP @4 6744 #
point $-1 -1 $-1 3747.6191016736443 -319.47619389111065 740.39588686733703 #
DXID-attrib $-1 -1 $-1 $101 $58 @18 ASM_EDGE_FROM_STEP @5 13286 #
point $-1 -1 $-1 3747.6191016736443 -300.82032419532601 747.60411313278564 #
truecolor-adesk-attrib $-1 -1 $198 $-1 $104 -1056964608 #
torus-surface $-1 -1 $-1 3758.0489331766248 -310.14825904321833 744.00000000006128 -1 -3.0084260340335623e-15 -2.6341990300727125e-16 2.9348713799329169 10 2.901179717201766e-15 -0.93279348478923318 -0.36041131327243131 forward_v I I I I #
DXID-attrib $-1 -1 $-1 $108 $65 @18 ASM_EDGE_FROM_STEP @5 15855 #
truecolor-adesk-attrib $-1 -1 $199 $-1 $111 -1056964608 #
ellipse-curve $-1 -1 $-1 3762.5210691316247 -310.14825904321833 744.00000000006128 1 3.0084260340335623e-15 2.6341990300727125e-16 3.4463529570484398e-14 -11.080787465726379 -4.2813776336758105 1 F 0 F 3.1415926535897931 #
face $200 -1 $-1 $142 $115 $3 $-1 $201 forward single #
DXID-attrib $-1 -1 $-1 $116 $72 @18 ASM_EDGE_FROM_STEP @5 40715 #
DXID-attrib $-1 -1 $-1 $118 $74 @18 ASM_EDGE_FROM_STEP @5 12559 #
DXID-attrib $-1 -1 $-1 $121 $80 @18 ASM_FACE_FROM_STEP @35 Main assem walking plate form-20617 #
truecolor-adesk-attrib $-1 -1 $202 $-1 $122 -1056964608 #
loop $-1 -1 $-1 $-1 $130 $122 #
cone-surface $-1 -1 $-1 3756.2793557114887 -310.14825904321833 744.00000000006128 -1 -3.0084260340335623e-15 -2.6341990300727125e-16 2.4079791652774655e-14 -7.7421859237506343 -2.9914139001611795 1 I I 0 1 8.2999999999999989 forward I I I I #
loop $-1 -1 $-1 $-1 $174 $80 #
coedge $-1 -1 $-1 $203 $203 $168 $204 reversed $123 $-1 #
coedge $-1 -1 $-1 $125 $146 $167 $204 forward $81 $-1 #
edge $205 -1 $-1 $102 0.0086602540378443831 $206 0.040000000000000001 $126 $207 forward @7 unknown #
coedge $-1 -1 $-1 $127 $126 $203 $208 forward $49 $-1 #
edge $209 -1 $-1 $99 0.0086602540378443831 $210 0.040000000000000001 $127 $211 forward @7 unknown #
truecolor-adesk-attrib $-1 -1 $212 $-1 $128 -1056964608 #
ellipse-curve $-1 -1 $-1 3747.6191016736443 -310.14825904321833 744.00000000006128 -1 -3.0084260340335623e-15 -2.6341990300727125e-16 -2.9011797172017658e-14 9.3279348478923296 3.6041131327243123 1 F -3.1415926535897931 F -1.2246467991473532e-16 #
coedge $-1 -1 $-1 $213 $213 $129 $175 forward $166 $-1 #
edge $214 -1 $-1 $182 -3.1415926535897931 $179 1.224646799147353e-16 $129 $215 forward @7 unknown #
coedge $-1 -1 $-1 $132 $130 $134 $184 forward $164 $-1 #
coedge $-1 -1 $-1 $130 $132 $213 $216 reversed $164 $-1 #
truecolor-adesk-attrib $-1 -1 $217 $-1 $131 -1056964608 #
vertex $-1 -1 $-1 $131 $218 #
straight-curve $-1 -1 $-1 3756.2793557114887 -302.40607311946769 746.99141390022248 -1000 -3.0084260340335624e-12 -2.6341990300727125e-13 F 0 F 0.040000000000000001 #
truecolor-adesk-attrib $-1 -1 $219 $-1 $133 -1056964608 #
vertex $-1 -1 $-1 $175 $220 #
straight-curve $-1 -1 $-1 3756.2793557114887 -317.89044496696897 741.00858609990007 -1000 -3.0084260340335624e-12 -2.6341990300727125e-13 F 0 F 0.040000000000000001 #
edge $221 -1 $-1 $138 1.224646799147353e-16 $137 3.1415926535897931 $176 $222 forward @7 unknown #
loop $-1 -1 $-1 $-1 $223 $186 #
face $224 -1 $-1 $225 $135 $3 $-1 $226 reversed single #
DXID-attrib $-1 -1 $-1 $136 $87 @18 ASM_EDGE_FROM_STEP @5 34041 #
point $-1 -1 $-1 3756.2793557114887 -317.89044496696897 741.00858609990007 #
point $-1 -1 $-1 3756.2793557114887 -302.40607311946769 746.99141390022248 #
truecolor-adesk-attrib $-1 -1 $227 $-1 $140 -1056964608 #
ellipse-curve $-1 -1 $-1 3776.2793557114887 -310.14825904321827 744.00000000006128 1 3.0084260340335623e-15 2.6341990300727125e-16 -1.4505898586008829e-14 4.6639674239461657 1.8020565663621566 1 F -3.1415926535897931 F 6.123233995736766e-17 #
coedge $-1 -1 $-1 $228 $229 $230 $231 reversed $141 $-1 #
truecolor-adesk-attrib $-1 -1 $232 $-1 $142 -1056964608 #
plane-surface $-1 -1 $-1 3776.2793557114887 -310.14825904321827 744.00000000006128 1 3.0084260340335623e-15 2.6341990300727125e-16 -2.901179717201766e-15 0.93279348478923318 0.36041131327243131 forward_v I I I I #
DXID-attrib $-1 -1 $-1 $147 $95 @18 ASM_EDGE_FROM_STEP @4 6063 #
truecolor-adesk-attrib $-1 -1 $233 $-1 $149 -1056964608 #
torus-surface $-1 -1 $-1 3747.6191016736443 -310.14825904321833 744.00000000006128 1 3.0084260340335623e-15 2.6341990300727125e-16 19.999999999999996 10 -2.901179717201766e-15 0.93279348478923318 0.36041131327243131 forward_v I I I I #
DXID-attrib $-1 -1 $-1 $154 $104 @18 ASM_FACE_FROM_STEP @35 Main assem walking plate form-27686 #
DXID-attrib $-1 -1 $-1 $157 $111 @18 ASM_EDGE_FROM_STEP @4 1314 #
truecolor-adesk-attrib $-1 -1 $234 $-1 $159 -1056964608 #
cone-surface $-1 -1 $-1 3776.2793557114887 -310.14825904321827 744.00000000006128 -1 -3.0084260340335623e-15 -2.6341990300727125e-16 1.4505898586008829e-14 -4.6639674239461657 -1.8020565663621566 1 I I 0.44721359549995798 0.89442719099991597 5 forward I I I I #
DXID-attrib $-1 -1 $-1 $163 $122 @18 ASM_FACE_FROM_STEP @35 Main assem walking plate form-11980 #
coedge $-1 -1 $-1 $167 $167 $170 $208 reversed $123 $-1 #
edge $235 -1 $-1 $210 -3.1415926535897931 $206 1.2246467991473532e-16 $168 $236 forward @7 unknown #
truecolor-adesk-attrib $-1 -1 $237 $-1 $169 -1056964608 #
vertex $-1 -1 $-1 $169 $238 #
straight-curve $-1 -1 $-1 3756.2793557114887 -300.82032419532601 747.60411313278564 -1000 -3.0084260340335624e-12 -2.6341990300727125e-13 F 0.0086602540378443831 F 0.040000000000000001 #
edge $239 -1 $-1 $206 1.2246467991473532e-16 $210 3.1415926535897931 $170 $240 forward @7 unknown #
truecolor-adesk-attrib $-1 -1 $241 $-1 $171 -1056964608 #
vertex $-1 -1 $-1 $208 $242 #
straight-curve $-1 -1 $-1 3756.2793557114887 -319.47619389111065 740.39588686733703 -1000 -3.0084260340335624e-12 -2.6341990300727125e-13 F 0.0086602540378443831 F 0.040000000000000001 #
DXID-attrib $-1 -1 $-1 $172 $128 @18 ASM_EDGE_FROM_STEP @5 20783 #
coedge $-1 -1 $-1 $174 $174 $177 $216 forward $166 $-1 #
truecolor-adesk-attrib $-1 -1 $243 $-1 $175 -1056964608 #
ellipse-curve $-1 -1 $-1 3716.2793557114887 -310.14825904321845 744.00000000006128 1 3.0084260340335623e-15 2.6341990300727125e-16 -2.4079791652774655e-14 7.7421859237506343 2.9914139001611795 1 F -3.1415926535897931 F 1.224646799147353e-16 #
edge $244 -1 $-1 $179 1.224646799147353e-16 $182 3.1415926535897931 $213 $245 forward @7 unknown #
DXID-attrib $-1 -1 $-1 $178 $131 @18 ASM_EDGE_FROM_STEP @5 41831 #
point $-1 -1 $-1 3716.2793557114887 -302.40607311946781 746.99141390022248 #
DXID-attrib $-1 -1 $-1 $181 $133 @18 ASM_EDGE_FROM_STEP @5 44098 #
point $-1 -1 $-1 3716.2793557114887 -317.89044496696908 741.00858609990007 #
truecolor-adesk-attrib $-1 -1 $246 $-1 $184 -1056964608 #
ellipse-curve $-1 -1 $-1 3756.2793557114887 -310.14825904321833 744.00000000006128 1 3.0084260340335623e-15 2.6341990300727125e-16 -2.4079791652774655e-14 7.7421859237506343 2.9914139001611795 1 F 1.224646799147353e-16 F 3.1415926535897931 #
coedge $-1 -1 $-1 $247 $248 $249 $250 forward $185 $-1 #
truecolor-adesk-attrib $-1 -1 $251 $-1 $186 -1056964608 #
face $252 -1 $-1 $253 $254 $3 $-1 $255 reversed single #
plane-surface $-1 -1 $-1 3756.2793557114887 -310.14825904321833 744.00000000006128 1 3.0084260340335623e-15 2.6341990300727125e-16 -2.901179717201766e-15 0.93279348478923318 0.36041131327243131 forward_v I I I I #
DXID-attrib $-1 -1 $-1 $190 $140 @18 ASM_EDGE_FROM_STEP @5 28050 #
coedge $-1 -1 $-1 $256 $192 $257 $258 reversed $141 $-1 #
coedge $-1 -1 $-1 $192 $259 $260 $261 reversed $141 $-1 #
coedge $-1 -1 $-1 $262 $263 $192 $231 forward $254 $-1 #
edge $264 -1 $-1 $265 0 $266 0.0016568542494923785 $192 $267 forward @7 unknown #
DXID-attrib $-1 -1 $-1 $193 $142 @18 ASM_FACE_FROM_STEP @35 Main assem walking plate form-19699 #
DXID-attrib $-1 -1 $-1 $196 $149 @18 ASM_FACE_FROM_STEP @35 Main assem walking plate form-16853 #
DXID-attrib $-1 -1 $-1 $200 $159 @18 ASM_FACE_FROM_STEP @33 Main assem walking plate form-813 #
truecolor-adesk-attrib $-1 -1 $268 $-1 $204 -1056964608 #
ellipse-curve $-1 -1 $-1 3716.2793557114887 -310.14825904321845 744.00000000006128 1 3.0084260340335623e-15 2.6341990300727125e-16 -2.9011797172017658e-14 9.3279348478923296 3.6041131327243123 1 F -3.1415926535897931 F 1.2246467991473532e-16 #
DXID-attrib $-1 -1 $-1 $205 $169 @18 ASM_EDGE_FROM_STEP @4 8097 #
point $-1 -1 $-1 3716.2793557114887 -300.82032419532612 747.60411313278564 #
truecolor-adesk-attrib $-1 -1 $269 $-1 $208 -1056964608 #
ellipse-curve $-1 -1 $-1 3716.2793557114887 -310.14825904321845 744.00000000006128 1 3.0084260340335623e-15 2.6341990300727125e-16 -2.9011797172017658e-14 9.3279348478923296 3.6041131327243123 1 F 1.2246467991473532e-16 F 3.1415926535897931 #
DXID-attrib $-1 -1 $-1 $209 $171 @18 ASM_EDGE_FROM_STEP @5 46235 #
point $-1 -1 $-1 3716.2793557114887 -319.47619389111077 740.39588686733691 #
DXID-attrib $-1 -1 $-1 $214 $175 @18 ASM_EDGE_FROM_STEP @3 293 #
truecolor-adesk-attrib $-1 -1 $270 $-1 $216 -1056964608 #
ellipse-curve $-1 -1 $-1 3716.2793557114887 -310.14825904321845 744.00000000006128 1 3.0084260340335623e-15 2.6341990300727125e-16 -2.4079791652774655e-14 7.7421859237506343 2.9914139001611795 1 F 1.224646799147353e-16 F 3.1415926535897931 #
DXID-attrib $-1 -1 $-1 $221 $184 @18 ASM_EDGE_FROM_STEP @5 35366 #
coedge $-1 -1 $-1 $271 $223 $272 $273 forward $185 $-1 #
coedge $-1 -1 $-1 $223 $274 $275 $276 forward $185 $-1 #
coedge $-1 -1 $-1 $277 $278 $223 $250 reversed $279 $-1 #
edge $280 -1 $-1 $281 0 $282 0.0016568542494923831 $223 $283 forward @7 unknown #
DXID-attrib $-1 -1 $-1 $224 $186 @18 ASM_FACE_FROM_STEP @35 Main assem walking plate form-41784 #
truecolor-adesk-attrib $-1 -1 $284 $-1 $225 -1056964608 #
face $285 -1 $-1 $286 $279 $3 $-1 $287 reversed single #
loop $-1 -1 $-1 $-1 $230 $225 #
plane-surface $-1 -1 $-1 3756.2793557114887 -309.36804625445188 741.98070321522243 -1.8849566670155289e-15 0.68994124806485813 -0.72386537023033926 -2.3594396815822566e-15 0.72386537023033926 0.68994124806485824 forward_v I I I I #
coedge $-1 -1 $-1 $288 $228 $289 $290 reversed $141 $-1 #
coedge $-1 -1 $-1 $278 $277 $228 $258 forward $279 $-1 #
edge $291 -1 $-1 $292 0 $265 0.0016568542494923831 $228 $293 forward @7 unknown #
coedge $-1 -1 $-1 $229 $294 $295 $296 reversed $141 $-1 #
coedge $-1 -1 $-1 $297 $298 $229 $261 forward $299 $-1 #
edge $300 -1 $-1 $266 -1.0621598943857368e-19 $301 0.0016568542494923805 $229 $302 forward @7 unknown #
coedge $-1 -1 $-1 $272 $230 $298 $303 reversed $254 $-1 #
coedge $-1 -1 $-1 $230 $272 $278 $304 forward $254 $-1 #
truecolor-adesk-attrib $-1 -1 $305 $-1 $231 -1056964608 #
vertex $-1 -1 $-1 $231 $306 #
vertex $-1 -1 $-1 $231 $307 #
straight-curve $-1 -1 $-1 3776.2793557114887 -309.36804625445183 741.98070321522243 -2.3594396815822563e-12 723.86537023033929 689.94124806485809 F 0 F 0.0016568542494923785 #
DXID-attrib $-1 -1 $-1 $235 $204 @18 ASM_EDGE_FROM_STEP @4 4489 #
DXID-attrib $-1 -1 $-1 $239 $208 @18 ASM_EDGE_FROM_STEP @5 19077 #
DXID-attrib $-1 -1 $-1 $244 $216 @18 ASM_EDGE_FROM_STEP @5 22002 #
coedge $-1 -1 $-1 $308 $247 $309 $310 forward $185 $-1 #
coedge $-1 -1 $-1 $263 $262 $247 $273 reversed $254 $-1 #
edge $311 -1 $-1 $282 0 $312 0.0016568542494923787 $247 $313 forward @7 unknown #
coedge $-1 -1 $-1 $248 $314 $315 $316 forward $185 $-1 #
coedge $-1 -1 $-1 $317 $318 $248 $276 reversed $319 $-1 #
edge $320 -1 $-1 $321 0 $281 0.0016568542494923787 $248 $322 forward @7 unknown #
coedge $-1 -1 $-1 $257 $249 $318 $323 forward $279 $-1 #
coedge $-1 -1 $-1 $249 $257 $263 $304 reversed $279 $-1 #
loop $-1 -1 $-1 $-1 $257 $253 #
truecolor-adesk-attrib $-1 -1 $324 $-1 $250 -1056964608 #
vertex $-1 -1 $-1 $250 $325 #
vertex $-1 -1 $-1 $250 $326 #
straight-curve $-1 -1 $-1 3756.2793557114887 -311.02442373930086 742.02044779656831 -3.0012414401369155e-12 999.71224708295495 -23.987976829012837 F 0 F 0.0016568542494923831 #
DXID-attrib $-1 -1 $-1 $252 $225 @18 ASM_FACE_FROM_STEP @34 Main assem walking plate form-3493 #
truecolor-adesk-attrib $-1 -1 $327 $-1 $253 -1056964608 #
face $328 -1 $-1 $329 $319 $3 $-1 $330 reversed single #
plane-surface $-1 -1 $-1 3756.2793557114887 -311.02442373930086 742.02044779656831 3.3551015715796911e-16 -0.023987976829012825 -0.9997122470829547 -3.0012414401369155e-15 0.99971224708295492 -0.023987976829012825 forward_v I I I I #
coedge $-1 -1 $-1 $331 $256 $332 $333 reversed $141 $-1 #
coedge $-1 -1 $-1 $318 $317 $256 $290 forward $319 $-1 #
edge $334 -1 $-1 $335 0 $292 0.0016568542494923787 $256 $336 forward @7 unknown #
truecolor-adesk-attrib $-1 -1 $337 $-1 $258 -1056964608 #
vertex $-1 -1 $-1 $258 $338 #
straight-curve $-1 -1 $-1 3776.2793557114887 -311.0244237393008 742.02044779656831 -3.0012414401369155e-12 999.71224708295495 -23.987976829012837 F 0 F 0.0016568542494923831 #
coedge $-1 -1 $-1 $259 $331 $339 $340 reversed $141 $-1 #
coedge $-1 -1 $-1 $341 $342 $259 $296 forward $343 $-1 #
edge $344 -1 $-1 $301 0 $345 0.0016568542494923809 $259 $346 forward @7 unknown #
coedge $-1 -1 $-1 $309 $260 $342 $347 reversed $299 $-1 #
coedge $-1 -1 $-1 $260 $309 $262 $303 forward $299 $-1 #
loop $-1 -1 $-1 $-1 $260 $348 #
truecolor-adesk-attrib $-1 -1 $349 $-1 $261 -1056964608 #
vertex $-1 -1 $-1 $296 $350 #
straight-curve $-1 -1 $-1 3776.2793557114887 -308.1687068397253 743.12383530397881 -3.3551015715796879e-13 23.987976829012666 999.71224708295495 F -1.0621598943857368e-19 F 0.0016568542494923805 #
edge $351 -1 $-1 $312 0 $266 0.020000000000000004 $262 $352 forward @7 unknown #
edge $353 -1 $-1 $282 0 $265 0.020000000000000004 $263 $354 forward @7 unknown #
DXID-attrib $-1 -1 $-1 $264 $231 @18 ASM_EDGE_FROM_STEP @4 5109 #
point $-1 -1 $-1 3776.2793557114887 -309.36804625445183 741.98070321522243 #
point $-1 -1 $-1 3776.2793557114887 -308.1687068397253 743.12383530397881 #
coedge $-1 -1 $-1 $355 $271 $356 $357 forward $185 $-1 #
coedge $-1 -1 $-1 $298 $297 $271 $310 reversed $299 $-1 #
edge $358 -1 $-1 $312 0 $359 0.0016568542494923805 $271 $360 forward @7 unknown #
truecolor-adesk-attrib $-1 -1 $361 $-1 $273 -1056964608 #
vertex $-1 -1 $-1 $273 $362 #
straight-curve $-1 -1 $-1 3756.2793557114887 -309.36804625445188 741.98070321522243 -2.3594396815822563e-12 723.86537023033929 689.94124806485809 F 0 F 0.0016568542494923787 #
coedge $-1 -1 $-1 $274 $355 $363 $364 forward $185 $-1 #
coedge $-1 -1 $-1 $365 $366 $274 $316 reversed $367 $-1 #
edge $368 -1 $-1 $369 0 $321 0.0016568542494923789 $274 $370 forward @7 unknown #
coedge $-1 -1 $-1 $289 $275 $366 $371 forward $319 $-1 #
coedge $-1 -1 $-1 $275 $289 $277 $323 reversed $319 $-1 #
loop $-1 -1 $-1 $-1 $289 $286 #
truecolor-adesk-attrib $-1 -1 $372 $-1 $276 -1056964608 #
vertex $-1 -1 $-1 $316 $373 #
straight-curve $-1 -1 $-1 3756.2793557114887 -312.16755582805717 743.21978721129483 -1.8849566670155278e-12 689.94124806485775 -723.86537023033952 F 0 F 0.0016568542494923787 #
edge $374 -1 $-1 $281 0 $292 0.020000000000000004 $277 $375 forward @7 unknown #
DXID-attrib $-1 -1 $-1 $280 $250 @18 ASM_EDGE_FROM_STEP @5 13077 #
point $-1 -1 $-1 3756.2793557114887 -311.02442373930086 742.02044779656831 #
point $-1 -1 $-1 3756.2793557114887 -309.36804625445188 741.98070321522243 #
DXID-attrib $-1 -1 $-1 $285 $253 @18 ASM_FACE_FROM_STEP @35 Main assem walking plate form-11930 #
truecolor-adesk-attrib $-1 -1 $376 $-1 $286 -1056964608 #
face $377 -1 $-1 $378 $367 $3 $-1 $379 reversed single #
plane-surface $-1 -1 $-1 3756.2793557114887 -312.16755582805717 743.21978721129483 2.359439681582257e-15 -0.72386537023033948 -0.68994124806485768 -1.8849566670155281e-15 0.68994124806485779 -0.72386537023033948 forward_v I I I I #
coedge $-1 -1 $-1 $294 $288 $380 $381 reversed $141 $-1 #
coedge $-1 -1 $-1 $366 $365 $288 $333 forward $367 $-1 #
edge $382 -1 $-1 $383 0 $335 0.0016568542494923789 $288 $384 forward @7 unknown #
truecolor-adesk-attrib $-1 -1 $385 $-1 $290 -1056964608 #
vertex $-1 -1 $-1 $290 $386 #
straight-curve $-1 -1 $-1 3776.2793557114887 -312.16755582805712 743.21978721129483 -1.8849566670155278e-12 689.94124806485775 -723.86537023033952 F 0 F 0.0016568542494923787 #
DXID-attrib $-1 -1 $-1 $291 $258 @18 ASM_EDGE_FROM_STEP @5 42734 #
point $-1 -1 $-1 3776.2793557114887 -311.0244237393008 742.02044779656831 #
coedge $-1 -1 $-1 $387 $388 $294 $340 forward $389 $-1 #
edge $390 -1 $-1 $345 0 $391 0.00165685424949238 $294 $392 forward @7 unknown #
coedge $-1 -1 $-1 $356 $295 $388 $393 reversed $343 $-1 #
coedge $-1 -1 $-1 $295 $356 $297 $347 forward $343 $-1 #
loop $-1 -1 $-1 $-1 $295 $394 #
truecolor-adesk-attrib $-1 -1 $395 $-1 $296 -1056964608 #
vertex $-1 -1 $-1 $340 $396 #
straight-curve $-1 -1 $-1 3776.2793557114887 -308.12896225837943 744.78021278882773 1.8849566670155291e-12 -689.9412480648582 723.86537023033929 F 0 F 0.0016568542494923809 #
edge $397 -1 $-1 $359 0 $301 0.020000000000000004 $342 $398 forward @7 unknown #
face $399 -1 $-1 $149 $299 $3 $-1 $400 reversed single #
DXID-attrib $-1 -1 $-1 $300 $261 @18 ASM_EDGE_FROM_STEP @5 15843 #
point $-1 -1 $-1 3776.2793557114887 -308.12896225837943 744.78021278882773 #
truecolor-adesk-attrib $-1 -1 $401 $-1 $303 -1056964608 #
straight-curve $-1 -1 $-1 3756.2793557114887 -308.16870683972536 743.12383530397881 1000 3.0084260340335624e-12 2.6341990300727125e-13 F 0 F 0.020000000000000004 #
truecolor-adesk-attrib $-1 -1 $402 $-1 $304 -1056964608 #
straight-curve $-1 -1 $-1 3756.2793557114887 -309.36804625445188 741.98070321522243 1000 3.0084260340335624e-12 2.6341990300727125e-13 F 0 F 0.020000000000000004 #
coedge $-1 -1 $-1 $314 $308 $403 $404 forward $185 $-1 #
coedge $-1 -1 $-1 $342 $341 $308 $357 reversed $343 $-1 #
edge $405 -1 $-1 $359 0 $406 0.0016568542494923809 $308 $407 forward @7 unknown #
truecolor-adesk-attrib $-1 -1 $408 $-1 $310 -1056964608 #
vertex $-1 -1 $-1 $310 $409 #
straight-curve $-1 -1 $-1 3756.2793557114887 -308.16870683972536 743.12383530397881 -3.3551015715796879e-13 23.987976829012666 999.71224708295495 F 0 F 0.0016568542494923805 #
DXID-attrib $-1 -1 $-1 $311 $273 @18 ASM_EDGE_FROM_STEP @5 41701 #
point $-1 -1 $-1 3756.2793557114887 -308.16870683972536 743.12383530397881 #
coedge $-1 -1 $-1 $410 $411 $314 $364 reversed $412 $-1 #
edge $413 -1 $-1 $414 0 $369 0.0016568542494923805 $314 $415 forward @7 unknown #
coedge $-1 -1 $-1 $332 $315 $411 $416 forward $367 $-1 #
coedge $-1 -1 $-1 $315 $332 $317 $371 reversed $367 $-1 #
loop $-1 -1 $-1 $-1 $332 $329 #
truecolor-adesk-attrib $-1 -1 $417 $-1 $316 -1056964608 #
vertex $-1 -1 $-1 $364 $418 #
straight-curve $-1 -1 $-1 3756.2793557114887 -312.1278112467113 744.87616469614375 3.3551015715796779e-13 -23.987976829012382 -999.71224708295483 F 0 F 0.0016568542494923789 #
edge $419 -1 $-1 $321 0 $335 0.020000000000000004 $317 $420 forward @7 unknown #
DXID-attrib $-1 -1 $-1 $320 $276 @18 ASM_EDGE_FROM_STEP @4 4062 #
point $-1 -1 $-1 3756.2793557114887 -312.16755582805717 743.21978721129483 #
truecolor-adesk-attrib $-1 -1 $421 $-1 $323 -1056964608 #
straight-curve $-1 -1 $-1 3756.2793557114887 -311.02442373930086 742.02044779656831 1000 3.0084260340335624e-12 2.6341990300727125e-13 F 0 F 0.020000000000000004 #
DXID-attrib $-1 -1 $-1 $328 $286 @18 ASM_FACE_FROM_STEP @35 Main assem walking plate form-31859 #
truecolor-adesk-attrib $-1 -1 $422 $-1 $329 -1056964608 #
face $423 -1 $-1 $424 $412 $3 $-1 $425 reversed single #
plane-surface $-1 -1 $-1 3756.2793557114887 -312.1278112467113 744.87616469614375 3.0012414401369155e-15 -0.99971224708295481 0.023987976829012436 3.3551015715796803e-16 -0.023987976829012492 -0.99971224708295492 forward_v I I I I #
coedge $-1 -1 $-1 $411 $410 $331 $381 forward $412 $-1 #
edge $426 -1 $-1 $391 0 $383 0.0016568542494923805 $331 $427 forward @7 unknown #
truecolor-adesk-attrib $-1 -1 $428 $-1 $333 -1056964608 #
vertex $-1 -1 $-1 $333 $429 #
straight-curve $-1 -1 $-1 3776.2793557114887 -312.12781124671125 744.87616469614375 3.3551015715796779e-13 -23.987976829012382 -999.71224708295483 F 0 F 0.0016568542494923789 #
DXID-attrib $-1 -1 $-1 $334 $290 @18 ASM_EDGE_FROM_STEP @5 32836 #
point $-1 -1 $-1 3776.2793557114887 -312.16755582805712 743.21978721129483 #
coedge $-1 -1 $-1 $403 $339 $410 $430 reversed $389 $-1 #
coedge $-1 -1 $-1 $339 $403 $341 $393 forward $389 $-1 #
loop $-1 -1 $-1 $-1 $339 $424 #
truecolor-adesk-attrib $-1 -1 $431 $-1 $340 -1056964608 #
vertex $-1 -1 $-1 $381 $432 #
straight-curve $-1 -1 $-1 3776.2793557114887 -309.27209434713575 745.97955220355425 3.0012414401369155e-12 -999.71224708295472 23.987976829012553 F 0 F 0.00165685424949238 #
edge $433 -1 $-1 $406 0 $345 0.020000000000000004 $388 $434 forward @7 unknown #
face $435 -1 $-1 $348 $343 $3 $-1 $436 reversed single #
DXID-attrib $-1 -1 $-1 $344 $296 @18 ASM_EDGE_FROM_STEP @4 1667 #
point $-1 -1 $-1 3776.2793557114887 -309.27209434713575 745.97955220355425 #
truecolor-adesk-attrib $-1 -1 $437 $-1 $347 -1056964608 #
straight-curve $-1 -1 $-1 3756.2793557114887 -308.12896225837949 744.78021278882773 1000 3.0084260340335624e-12 2.6341990300727125e-13 F 0 F 0.020000000000000004 #
truecolor-adesk-attrib $-1 -1 $438 $-1 $348 -1056964608 #
plane-surface $-1 -1 $-1 3756.2793557114887 -308.16870683972536 743.12383530397881 -3.0012414401369155e-15 0.99971224708295481 -0.023987976829012658 -3.3551015715796852e-16 0.023987976829012603 0.99971224708295492 forward_v I I I I #
DXID-attrib $-1 -1 $-1 $351 $303 @18 ASM_EDGE_FROM_STEP @5 21820 #
DXID-attrib $-1 -1 $-1 $353 $304 @18 ASM_EDGE_FROM_STEP @5 14075 #
coedge $-1 -1 $-1 $388 $387 $355 $404 reversed $389 $-1 #
edge $439 -1 $-1 $406 0 $414 0.00165685424949238 $355 $440 forward @7 unknown #
truecolor-adesk-attrib $-1 -1 $441 $-1 $357 -1056964608 #
vertex $-1 -1 $-1 $357 $442 #
straight-curve $-1 -1 $-1 3756.2793557114887 -308.12896225837949 744.78021278882773 1.8849566670155291e-12 -689.9412480648582 723.86537023033929 F 0 F 0.0016568542494923809 #
DXID-attrib $-1 -1 $-1 $358 $310 @18 ASM_EDGE_FROM_STEP @5 22327 #
point $-1 -1 $-1 3756.2793557114887 -308.12896225837949 744.78021278882773 #
coedge $-1 -1 $-1 $380 $363 $387 $430 forward $412 $-1 #
coedge $-1 -1 $-1 $363 $380 $365 $416 reversed $412 $-1 #
loop $-1 -1 $-1 $-1 $380 $378 #
truecolor-adesk-attrib $-1 -1 $443 $-1 $364 -1056964608 #
vertex $-1 -1 $-1 $404 $444 #
straight-curve $-1 -1 $-1 3756.2793557114887 -310.92847183198478 746.01929678490012 2.3594396815822559e-12 -723.86537023033918 -689.94124806485831 F 0 F 0.0016568542494923805 #
edge $445 -1 $-1 $369 0 $383 0.020000000000000004 $365 $446 forward @7 unknown #
DXID-attrib $-1 -1 $-1 $368 $316 @18 ASM_EDGE_FROM_STEP @5 44609 #
point $-1 -1 $-1 3756.2793557114887 -312.1278112467113 744.87616469614375 #
truecolor-adesk-attrib $-1 -1 $447 $-1 $371 -1056964608 #
straight-curve $-1 -1 $-1 3756.2793557114887 -312.16755582805717 743.21978721129483 1000 3.0084260340335624e-12 2.6341990300727125e-13 F 0 F 0.020000000000000004 #
DXID-attrib $-1 -1 $-1 $374 $323 @18 ASM_EDGE_FROM_STEP @5 11991 #
DXID-attrib $-1 -1 $-1 $377 $329 @18 ASM_FACE_FROM_STEP @35 Main assem walking plate form-46400 #
truecolor-adesk-attrib $-1 -1 $448 $-1 $378 -1056964608 #
face $449 -1 $-1 $394 $389 $3 $-1 $450 reversed single #
plane-surface $-1 -1 $-1 3756.2793557114887 -310.92847183198478 746.01929678490012 1.8849566670155289e-15 -0.68994124806485813 0.72386537023033903 2.3594396815822566e-15 -0.72386537023033914 -0.68994124806485824 forward_v I I I I #
truecolor-adesk-attrib $-1 -1 $451 $-1 $381 -1056964608 #
straight-curve $-1 -1 $-1 3776.2793557114887 -310.92847183198472 746.01929678490012 2.3594396815822559e-12 -723.86537023033918 -689.94124806485831 F 0 F 0.0016568542494923805 #
DXID-attrib $-1 -1 $-1 $382 $333 @18 ASM_EDGE_FROM_STEP @5 20473 #
point $-1 -1 $-1 3776.2793557114887 -312.12781124671125 744.87616469614375 #
edge $452 -1 $-1 $414 0 $391 0.020000000000000004 $410 $453 forward @7 unknown #
DXID-attrib $-1 -1 $-1 $390 $340 @18 ASM_EDGE_FROM_STEP @5 28924 #
point $-1 -1 $-1 3776.2793557114887 -310.92847183198472 746.01929678490012 #
truecolor-adesk-attrib $-1 -1 $454 $-1 $393 -1056964608 #
straight-curve $-1 -1 $-1 3756.2793557114887 -309.27209434713581 745.97955220355425 1000 3.0084260340335624e-12 2.6341990300727125e-13 F 0 F 0.020000000000000004 #
truecolor-adesk-attrib $-1 -1 $455 $-1 $394 -1056964608 #
plane-surface $-1 -1 $-1 3756.2793557114887 -308.12896225837949 744.78021278882773 -2.3594396815822566e-15 0.72386537023033926 0.68994124806485813 1.8849566670155289e-15 -0.68994124806485813 0.72386537023033903 forward_v I I I I #
DXID-attrib $-1 -1 $-1 $397 $347 @18 ASM_EDGE_FROM_STEP @5 15919 #
DXID-attrib $-1 -1 $-1 $399 $348 @18 ASM_FACE_FROM_STEP @35 Main assem walking plate form-25680 #
truecolor-adesk-attrib $-1 -1 $456 $-1 $404 -1056964608 #
straight-curve $-1 -1 $-1 3756.2793557114887 -309.27209434713581 745.97955220355425 3.0012414401369155e-12 -999.71224708295472 23.987976829012553 F 0 F 0.00165685424949238 #
DXID-attrib $-1 -1 $-1 $405 $357 @18 ASM_EDGE_FROM_STEP @5 39032 #
point $-1 -1 $-1 3756.2793557114887 -309.27209434713581 745.97955220355425 #
DXID-attrib $-1 -1 $-1 $413 $364 @18 ASM_EDGE_FROM_STEP @4 9444 #
point $-1 -1 $-1 3756.2793557114887 -310.92847183198478 746.01929678490012 #
truecolor-adesk-attrib $-1 -1 $457 $-1 $416 -1056964608 #
straight-curve $-1 -1 $-1 3756.2793557114887 -312.1278112467113 744.87616469614375 1000 3.0084260340335624e-12 2.6341990300727125e-13 F 0 F 0.020000000000000004 #
DXID-attrib $-1 -1 $-1 $419 $371 @18 ASM_EDGE_FROM_STEP @5 13777 #
DXID-attrib $-1 -1 $-1 $423 $378 @18 ASM_FACE_FROM_STEP @35 Main assem walking plate form-47238 #
truecolor-adesk-attrib $-1 -1 $458 $-1 $424 -1056964608 #
plane-surface $-1 -1 $-1 3756.2793557114887 -309.27209434713581 745.97955220355425 -3.3551015715796813e-16 0.023987976829012547 0.99971224708295492 3.0012414401369159e-15 -0.99971224708295492 0.023987976829012547 forward_v I I I I #
DXID-attrib $-1 -1 $-1 $426 $381 @18 ASM_EDGE_FROM_STEP @5 47151 #
truecolor-adesk-attrib $-1 -1 $459 $-1 $430 -1056964608 #
straight-curve $-1 -1 $-1 3756.2793557114887 -310.92847183198478 746.01929678490012 1000 3.0084260340335624e-12 2.6341990300727125e-13 F 0 F 0.020000000000000004 #
DXID-attrib $-1 -1 $-1 $433 $393 @18 ASM_EDGE_FROM_STEP @5 31753 #
DXID-attrib $-1 -1 $-1 $435 $394 @18 ASM_FACE_FROM_STEP @35 Main assem walking plate form-40517 #
DXID-attrib $-1 -1 $-1 $439 $404 @18 ASM_EDGE_FROM_STEP @5 15440 #
DXID-attrib $-1 -1 $-1 $445 $416 @18 ASM_EDGE_FROM_STEP @5 38192 #
DXID-attrib $-1 -1 $-1 $449 $424 @18 ASM_FACE_FROM_STEP @35 Main assem walking plate form-25154 #
DXID-attrib $-1 -1 $-1 $452 $430 @18 ASM_EDGE_FROM_STEP @5 23125 #
