700 642 1 0         
16 Autodesk AutoCAD 20 ASM 229.2.0.65535 NT 24 Wed Mar  6 02:48:03 2024 
1 9.999999999999999547e-07 1.000000000000000036e-10 
body $1 -1 $-1 $2 $-1 $3 #
DXID-attrib $-1 -1 $-1 $-1 $0 @18 ASM_BODY_FROM_STEP @83 E8DC87CC624A5B4D205C72EF137DA8BEAF335D2E|:|B8A4396250C5687B1D31E70758B30729E1AC4426 #
lump $-1 -1 $-1 $-1 $4 $0 #
transform $-1 -1 1 0 0 0 1 0 0 0 1 0 0 0 1 no_rotate no_reflect no_shear #
shell $-1 -1 $-1 $-1 $-1 $5 $-1 $2 #
face $6 -1 $-1 $7 $8 $4 $-1 $9 forward single #
truecolor-adesk-attrib $-1 -1 $10 $-1 $5 -1026765620 #
face $11 -1 $-1 $12 $13 $4 $-1 $14 forward single #
loop $-1 -1 $-1 $-1 $15 $5 #
cone-surface $-1 -1 $-1 1.000000000000000078e-15 -2.336133814774999971e-15 -3.000000000000000444 -3.299999999999999882e-16 7.820446049249999786e-16 1 10 2.999999999999999937e-16 3.300000000000000375e-15 1 I I 0 1 10 forward I I I I #
color-adesk-attrib $-1 -1 $16 $6 $5 254 #
truecolor-adesk-attrib $-1 -1 $17 $-1 $7 -1026765620 #
face $18 -1 $-1 $19 $20 $4 $-1 $21 forward single #
loop $-1 -1 $-1 $-1 $22 $7 #
torus-surface $-1 -1 $-1 8.300000000000000763e-16 -1.945111512313000415e-15 -2.5 3.299999999999999882e-16 -7.820446049249999786e-16 -1 9.5 0.5 1 3.000000000000000061e-17 3.299999999999999882e-16 forward_v I I I I #
coedge $-1 -1 $-1 $23 $24 $25 $26 forward $8 $-1 #
DXID-attrib $-1 -1 $-1 $10 $5 @18 ASM_FACE_FROM_STEP @15 MyThumbStick-17 #
color-adesk-attrib $-1 -1 $27 $11 $7 254 #
truecolor-adesk-attrib $-1 -1 $28 $-1 $12 -1026765620 #
face $29 -1 $-1 $30 $31 $4 $-1 $32 forward single #
loop $-1 -1 $-1 $-1 $33 $12 #
spline-surface $-1 -1 $-1 forward { exactsur full nurbs 2 14 both open periodic none none 2 2 
	0 2 62.83185307179599732 2 
	3.400000000000000028e-16 14 62.83185307179599732 14 
	10 3.295222264879000093e-15 3.806542677153000209 1 
	10 3.600223024625000181e-15 5 0.6422486532810000037 
	8.824966665283000111 3.163839057944000031e-15 4.791105184939000061 1 
	10.00000000000900258 -4.423067579409999617 3.806542677153000209 1 
	10.00000000000999911 -4.423067579411999795 5 0.6422486532810000037 
	8.824966665291000822 -3.903342394658000369 4.791105184939000061 1 
	7.893520479358000941 -8.940288332560999862 3.806542677153000209 1 
	7.893520479356999964 -8.94028833255100075 5 0.6422486532819999816 
	6.966005510206000118 -7.889774651287000395 4.79110518494000015 1 
	3.532017436934000276 -12.37428082210000113 3.806542677153999854 1 
	3.532017436938000188 -12.37428082213000202 5 0.6422486532779999591 
	3.116993614214000452 -10.9202615761900006 4.79110518493800086 1 
	-2.416758907479000129 -13.50321424628999978 3.806542677153000209 1 
	-2.416758907490000219 -13.50321424622999977 5.000000000002000178 0.642248653286999982 
	-2.132781679654999873 -11.91654155976999974 4.791105184943001305 1 
	-8.579006978197000421 -11.26858589967000057 3.806542677153000209 0.9999999999859999766 
	-8.579006978176000331 -11.26858589975999969 4.999999999995999644 0.6422486532719999808 
	-7.570945060372000768 -9.944489492943999309 4.791105184931000238 0.9999999999859999766 
	-12.71287235764999934 -6.844171963364001243 3.806542677153999854 1.000000000016999957 
	-12.71287235766999935 -6.844171963244001233 5.000000000004999556 0.6422486532929999603 
	-11.21906747763999945 -6.039958942822001298 4.791105184950000151 1.000000000016999957 
	-15.32799561331000149 1.313530452223000179e-10 3.806542677153999854 0.9999999999819999541 
	-15.3279956133000006 4.262690223025000076e-12 4.999999999995000444 0.6422486532679999582 
	-13.52690503328999938 1.203718238390999936e-10 4.791105184927999971 0.9999999999819999541 
	-12.71287235764999934 6.84417196314100007 3.806542677149999943 1.000000000015000001 
	-12.71287235766000023 6.84417196324900079 5.000000000002000178 0.6422486532919999824 
	-11.21906747763000034 6.039958942617000837 4.791105184947999973 1.000000000015000001 
	-8.579006978200000688 11.26858589981500103 3.806542677157000565 0.9999999999899999992 
	-8.579006978199000599 11.26858589973999969 5 0.6422486532729999587 
	-7.570945060386000236 9.944489493073000119 4.791105184933000416 0.9999999999899999992 
	-2.416758907460999861 13.50321424622000066 3.806542677149999943 1 
	-2.416758907465999862 13.50321424626299915 5 0.6422486532850000263 
	-2.132781679633999783 11.91654155970599938 4.791105184942000328 1 
	3.532017436916000008 12.37428082213700264 3.806542677155000387 1 
	3.532017436921000009 12.37428082211600255 5 0.642248653279000048 
	3.116993614196999829 10.9202615762209998 4.79110518493800086 1 
	7.893520479366999965 8.940288332550000661 3.806542677153000209 1 
	7.893520479363999698 8.940288332557999595 5 0.6422486532819999816 
	6.966005510214000829 7.889774651276000306 4.79110518494000015 1 
	10.00000000000700062 4.423067579413000772 3.806542677153000209 1 
	10.00000000000800071 4.423067579410999706 5 0.6422486532810000037 
	8.824966665289000645 3.903342394661000192 4.791105184939000061 1 
	10 5.745222264879000066e-15 3.806542677153000209 1 
	10 3.600223024625000181e-15 5 0.6422486532810000037 
	8.824966665283000111 5.323839057944000814e-15 4.791105184939000061 1 
	0 
	
	0 
	0 
	0 
	0 
	0 
	1 3.400000000000000028e-16 
	F 1 F 0 F 1 F 0 } I I I I #
coedge $-1 -1 $-1 $34 $35 $36 $37 reversed $13 $-1 #
tcoedge-coedge $-1 -1 $-1 $25 $15 $38 $39 forward $8 $40 0.6283185307179587342 6.911503837897544855 #
coedge $-1 -1 $-1 $15 $25 $34 $41 reversed $8 $-1 #
coedge $-1 -1 $-1 $24 $23 $15 $26 reversed $8 $-1 #
edge $42 -1 $-1 $43 0.5000000000000004441 $44 6.806542677152999765 $15 $45 forward @2 g2 #
DXID-attrib $-1 -1 $-1 $17 $7 @18 ASM_FACE_FROM_STEP @16 MyThumbStick-174 #
color-adesk-attrib $-1 -1 $46 $18 $12 254 #
truecolor-adesk-attrib $-1 -1 $47 $-1 $19 -1026765620 #
face $48 -1 $-1 $49 $50 $4 $-1 $51 reversed single #
loop $-1 -1 $-1 $52 $53 $19 #
plane-surface $-1 -1 $-1 1.000000000000000078e-15 -2.336133814774999971e-15 -3.000000000000000444 3.299999999999999882e-16 -7.820446049249999786e-16 -1 1 4.000000000000000286e-17 3.299999999999999389e-16 forward_v I I I I #
coedge $-1 -1 $-1 $54 $38 $55 $56 forward $20 $57 #
coedge $-1 -1 $-1 $36 $22 $24 $41 forward $13 $-1 #
coedge $-1 -1 $-1 $22 $36 $53 $58 reversed $13 $-1 #
coedge $-1 -1 $-1 $35 $34 $22 $37 forward $13 $-1 #
edge $59 -1 $-1 $43 3.299999999999998896e-16 $60 1.570796326794897002 $22 $61 forward @2 g2 #
tcoedge-coedge $-1 -1 $-1 $33 $55 $23 $39 reversed $20 $62 -6.911503837897544855 -0.6283185307179587342 #
tedge-edge $63 -1 $-1 $44 0.6283185307179587342 $44 6.911503837897544855 $23 $64 forward @14 tangent_not_g2 1.17693445151131864e-05 #
pcurve $-1 -1 $-1 0 forward { exppc nubs 1 periodic 2 
	0.6283185307179587342 1 6.911503837897544855 1 
	0.6806542677152996879 6.283185307179586232 
	0.6806542677152996879 -1.066440114833953811e-16 
	0 
	cone 1.000000000000000078e-15 -2.336133814774999971e-15 -3.000000000000000444 -3.299999999999999882e-16 7.820446049249999786e-16 1 10 2.999999999999999937e-16 3.300000000000000375e-15 1 I I 0 1 10 forward I I I I 
	} 0 0 #
edge $65 -1 $-1 $43 -9.000000000000295696e-18 $43 6.283185307179586232 $24 $66 forward @14 tangent_not_g2 #
truecolor-adesk-attrib $-1 -1 $67 $-1 $26 -1026765620 #
vertex $-1 -1 $-1 $26 $68 #
tvertex-vertex $-1 -1 $-1 $26 $69 2.501785277909261831e-11 #
straight-curve $-1 -1 $-1 10 -6.661338147751000379e-16 -3.000000000000000444 0 2.220446049250000002e-16 1 F 0.5000000000000004441 F 6.806542677152999765 #
DXID-attrib $-1 -1 $-1 $28 $12 @18 ASM_FACE_FROM_STEP @16 MyThumbStick-228 #
color-adesk-attrib $-1 -1 $70 $29 $19 254 #
truecolor-adesk-attrib $-1 -1 $71 $-1 $30 -1026765620 #
face $72 -1 $-1 $73 $74 $4 $-1 $75 forward single #
loop $-1 -1 $-1 $-1 $76 $30 #
cone-surface $-1 -1 $-1 -1.559999999999999908e-15 3.639168751049000169e-15 4.679999999999999716 -3.299999999999999882e-16 7.820446049249999786e-16 1 8.199999999999999289 -4.920000000000000075e-16 2.706000000000000583e-15 1 I I 0.9845625077858420893 0.1750333347178577026 8.199999999999999289 forward I I I I #
loop $-1 -1 $-1 $-1 $77 $19 #
coedge $-1 -1 $-1 $53 $53 $35 $58 forward $31 $-1 #
tcoedge-coedge $-1 -1 $-1 $55 $33 $78 $79 forward $20 $80 3.400000000000000028e-16 62.83185307179599732 #
coedge $-1 -1 $-1 $38 $54 $33 $56 reversed $20 $81 #
edge $82 -1 $-1 $44 -1.746735952176448947 $83 -2.58622550436542933e-11 $33 $84 forward @2 g2 #
pcurve $-1 -1 $-1 0 forward { exppc nubs 1 open 2 
	-1.746735952176448947 1 0 1 
	0 3.399999999925158821e-16 
	62.83185307179599732 -7.592362329973419295e-12 
	3.307623389046338962e-13 
	spline forward { ref 0 } I I I I 
	} 0 0 #
edge $85 -1 $-1 $60 -4.052631578947391198e-17 $60 6.283185307179586232 $35 $86 forward @14 tangent_not_g2 #
truecolor-adesk-attrib $-1 -1 $87 $-1 $37 -1026765620 #
vertex $-1 -1 $-1 $37 $88 #
ellipse-curve $-1 -1 $-1 9.5 -1.625111512312999948e-15 -2.5 -3.000000000000000061e-17 1 -7.820446049249999786e-16 0.5 1.500000000000012973e-17 1.649999999999999941e-16 1 F 3.299999999999998896e-16 F 1.570796326794897002 #
pcurve $-1 -1 $-1 0 forward { exppc nubs 1 periodic 2 
	-6.911503837897544855 1 -0.6283185307179587342 1 
	0 62.83185307179599732 
	0 0 
	1.037016853907020973e-11 
	spline forward { ref 0 } I I I I 
	} 0 0 #
truecolor-adesk-attrib $-1 -1 $89 $-1 $39 -1026765620 #
ellipse-curve $-1 -1 $-1 -4.440892098500626162e-15 6.158589680207897794e-15 3.806542677152997101 2.633298352853070391e-16 -7.644098519236289929e-16 -1 8.090169943749476289 5.877852522924730039 -2.220446049250313081e-15 1 I I #
truecolor-adesk-attrib $-1 -1 $90 $-1 $41 -1026765620 #
ellipse-curve $-1 -1 $-1 8.300000000000000763e-16 -1.945111512313000415e-15 -2.5 3.299999999999999882e-16 -7.820446049249999786e-16 -1 10 2.999999999999999937e-16 3.300000000000000375e-15 1 I I #
color-adesk-attrib $-1 -1 $91 $42 $26 254 #
point $-1 -1 $-1 10 -1.555111512312999994e-15 -2.5 #
point $-1 -1 $-1 10 2.845222264879000274e-15 3.806542677153000209 #
DXID-attrib $-1 -1 $-1 $47 $19 @18 ASM_FACE_FROM_STEP @16 MyThumbStick-331 #
color-adesk-attrib $-1 -1 $92 $48 $30 254 #
truecolor-adesk-attrib $-1 -1 $93 $-1 $49 -1026765620 #
face $94 -1 $-1 $95 $96 $4 $-1 $97 forward single #
loop $-1 -1 $-1 $-1 $98 $49 #
torus-surface $-1 -1 $-1 8.300000000000000763e-16 -1.945111512313000415e-15 -2.5 3.299999999999999882e-16 -7.820446049249999786e-16 -1 8.707106781187000877 0.5 1 -6.000000000000000121e-17 3.300000000000000375e-16 forward_v I I I I #
coedge $-1 -1 $-1 $99 $78 $100 $101 reversed $50 $-1 #
coedge $-1 -1 $-1 $77 $77 $102 $103 reversed $52 $-1 #
tcoedge-coedge $-1 -1 $-1 $76 $100 $54 $79 reversed $50 $104 -62.83185307179599732 -3.400000000000000028e-16 #
tedge-edge $105 -1 $-1 $83 3.400000000000000028e-16 $83 62.83185307179599732 $54 $106 forward @7 tangent 1.038639803710301336e-05 #
pcurve $-1 -1 $-1 0 forward { exppc nubs 1 closed 2 
	3.400000000000000028e-16 1 62.83185307179599732 1 
	62.83185307179599732 3.400000000000000028e-16 
	62.83185307082204929 62.83185307180471568 
	0 
	spline forward { ref 0 } I I I I 
	} 0 0 #
pcurve $-1 -1 $-1 0 forward { exppc nubs 1 open 2 
	-0 1 1.746735952176448947 1 
	62.83185307179599732 -7.592362329951127424e-12 
	0 3.399999999925159314e-16 
	3.307638853912375448e-13 
	spline forward { ref 0 } I I I I 
	} 0 62.83185307179599732 #
truecolor-adesk-attrib $-1 -1 $107 $-1 $56 -1026765620 #
tvertex-vertex $-1 -1 $-1 $56 $108 5.863082823429914938e-11 #
ellipse-curve $-1 -1 $-1 8.999999999957339014 -1.523730512374213762e-11 3.806542677106761197 1.52406003442056706e-11 -1 2.489602073953096428e-11 -0.1750333347006072238 2.184407551327051287e-11 0.9845625078322389756 1 F -1.746735952176448947 F -2.58622550436542933e-11 #
truecolor-adesk-attrib $-1 -1 $109 $-1 $58 -1026765620 #
ellipse-curve $-1 -1 $-1 1.000000000000000078e-15 -2.336133814774999971e-15 -3.000000000000000444 3.299999999999999882e-16 -7.820446049249999786e-16 -1 9.5 2.849999999999999965e-16 3.135000000000000257e-15 1 I I #
color-adesk-attrib $-1 -1 $110 $59 $37 254 #
point $-1 -1 $-1 9.5 -1.666133814775000128e-15 -3.000000000000000444 #
color-adesk-attrib $-1 -1 $111 $63 $39 254 #
color-adesk-attrib $-1 -1 $112 $65 $41 254 #
DXID-attrib $-1 -1 $-1 $67 $26 @18 ASM_EDGE_FROM_STEP @2 21 #
DXID-attrib $-1 -1 $-1 $71 $30 @18 ASM_FACE_FROM_STEP @16 MyThumbStick-366 #
color-adesk-attrib $-1 -1 $113 $72 $49 254 #
truecolor-adesk-attrib $-1 -1 $114 $-1 $73 -1026765620 #
face $115 -1 $-1 $116 $117 $4 $-1 $118 reversed single #
loop $-1 -1 $-1 $-1 $119 $73 #
cone-surface $-1 -1 $-1 -1.660000000000000153e-15 3.865782132526999835e-15 4.980000000000000426 3.299999999999999882e-16 -7.820446049249999786e-16 -1 8.199999999999999289 -5.739999999999999594e-16 2.706000000000000583e-15 1 I I 0 1 8.199999999999999289 forward I I I I #
coedge $-1 -1 $-1 $102 $120 $121 $122 reversed $74 $-1 #
coedge $-1 -1 $-1 $100 $76 $123 $124 forward $50 $-1 #
coedge $-1 -1 $-1 $78 $99 $76 $101 forward $50 $-1 #
edge $125 -1 $-1 $126 3.886520765605958289e-32 $83 0.6347658582779006631 $76 $127 forward @2 g2 #
coedge $-1 -1 $-1 $121 $98 $77 $103 forward $74 $-1 #
edge $128 -1 $-1 $129 -2.209992500459371183e-17 $129 6.283185307179586232 $77 $130 forward @14 tangent_not_g2 #
pcurve $-1 -1 $-1 0 forward { exppc nubs 1 periodic 2 
	-62.83185307179599732 1 -3.400000000000000028e-16 1 
	0.07741047052169575116 0 
	0.07741047052169575116 6.283185307179586232 
	1.654457608306560452e-06 
	cone -1.559999999999999908e-15 3.639168751049000169e-15 4.679999999999999716 -3.299999999999999882e-16 7.820446049249999786e-16 1 8.199999999999999289 -4.920000000000000075e-16 2.706000000000000583e-15 1 I I -0.9845625077858420893 -0.1750333347178577026 8.199999999999999289 forward I I I I 
	} 0 0 #
truecolor-adesk-attrib $-1 -1 $131 $-1 $79 -1026765620 #
intcurve-curve $-1 -1 $-1 forward { exactcur full nurbs 14 periodic 2 
	3.400000000000000028e-16 14 62.83185307179599732 14 
	8.824966665283000111 3.163839057944000031e-15 4.791105184939000061 1 
	8.824966665291000822 -3.903342394658000369 4.791105184939000061 1 
	6.966005510206000118 -7.889774651287000395 4.79110518494000015 1.000000000001000089 
	3.116993614214000452 -10.9202615761900006 4.79110518493800086 0.9999999999959999775 
	-2.132781679654999873 -11.91654155976999974 4.791105184943001305 1.000000000008000045 
	-7.570945060372000768 -9.944489492943999309 4.791105184931000238 0.9999999999859999766 
	-11.21906747763999945 -6.039958942822001298 4.791105184950000151 1.000000000016999957 
	-13.52690503328999938 1.203718238390999936e-10 4.791105184927999971 0.9999999999819999541 
	-11.21906747763000034 6.039958942617000837 4.791105184947999973 1.000000000015000001 
	-7.570945060386000236 9.944489493073000119 4.791105184933000416 0.9999999999899999992 
	-2.132781679633999783 11.91654155970599938 4.791105184942000328 1.000000000006000089 
	3.116993614196999829 10.9202615762209998 4.79110518493800086 0.9999999999969999553 
	6.966005510214000829 7.889774651276000306 4.79110518494000015 1.000000000001000089 
	8.824966665289000645 3.903342394661000192 4.791105184939000061 1 
	8.824966665283000111 5.323839057944000814e-15 4.791105184939000061 1 
	0 
	
	null_surface 
	null_surface 
	nullbs 
	nullbs 
	I I 
	0 
	0 
	1 3.400000000000000028e-16 
	F 1 F 0 } I I #
color-adesk-attrib $-1 -1 $132 $82 $56 254 #
point $-1 -1 $-1 8.824966665283000111 3.063839057944000378e-15 4.791105184939000061 #
color-adesk-attrib $-1 -1 $133 $85 $58 254 #
DXID-attrib $-1 -1 $-1 $87 $37 @18 ASM_EDGE_FROM_STEP @3 178 #
DXID-attrib $-1 -1 $-1 $89 $39 @18 ASM_EDGE_FROM_STEP @2 79 #
DXID-attrib $-1 -1 $-1 $90 $41 @18 ASM_EDGE_FROM_STEP @2 51 #
DXID-attrib $-1 -1 $-1 $93 $49 @18 ASM_FACE_FROM_STEP @16 MyThumbStick-421 #
color-adesk-attrib $-1 -1 $134 $94 $73 254 #
truecolor-adesk-attrib $-1 -1 $135 $-1 $95 -1026765620 #
face $136 -1 $-1 $137 $138 $4 $-1 $139 reversed single #
loop $-1 -1 $-1 $-1 $140 $95 #
cone-surface $-1 -1 $-1 1.000000000000000078e-15 -2.336133814774999971e-15 -3.000000000000000444 3.299999999999999882e-16 -7.820446049249999786e-16 -1 8.5 3.400000000000000521e-16 2.804999999999999628e-15 1 I I 0.707106781186230493 0.7071067811868645414 8.5 forward I I I I #
coedge $-1 -1 $-1 $141 $142 $143 $144 forward $96 $-1 #
coedge $-1 -1 $-1 $98 $121 $145 $146 reversed $74 $-1 #
coedge $-1 -1 $-1 $120 $102 $98 $122 forward $74 $-1 #
edge $147 -1 $-1 $129 1.570796326794897002 $148 2.35619449019376237 $98 $149 forward @2 g2 #
coedge $-1 -1 $-1 $142 $141 $99 $124 reversed $96 $-1 #
edge $150 -1 $-1 $126 1.351219512195119641e-16 $126 6.283185307179586232 $99 $151 forward @7 unknown #
truecolor-adesk-attrib $-1 -1 $152 $-1 $101 -1026765620 #
vertex $-1 -1 $-1 $101 $153 #
straight-curve $-1 -1 $-1 8.199999999999999289 1.039168751049000125e-15 4.679999999999999716 0.984562507785999963 3.886520765605999894e-17 0.1750333347169999998 F 3.886520765605958289e-32 F 0.6347658582779006631 #
truecolor-adesk-attrib $-1 -1 $154 $-1 $103 -1026765620 #
vertex $-1 -1 $-1 $103 $155 #
ellipse-curve $-1 -1 $-1 1.000000000000000078e-15 -2.336133814774999971e-15 -3.000000000000000444 3.299999999999999882e-16 -7.820446049249999786e-16 -1 8.707106781187000877 -5.224264068712200222e-16 2.873345237791711009e-15 1 I I #
color-adesk-attrib $-1 -1 $156 $105 $79 254 #
DXID-attrib $-1 -1 $-1 $107 $56 @18 ASM_EDGE_FROM_STEP @3 232 #
DXID-attrib $-1 -1 $-1 $109 $58 @18 ASM_EDGE_FROM_STEP @3 202 #
DXID-attrib $-1 -1 $-1 $114 $73 @18 ASM_FACE_FROM_STEP @16 MyThumbStick-475 #
color-adesk-attrib $-1 -1 $157 $115 $95 254 #
truecolor-adesk-attrib $-1 -1 $158 $-1 $116 -1026765620 #
face $159 -1 $-1 $160 $161 $4 $-1 $162 reversed single #
loop $-1 -1 $-1 $-1 $163 $116 #
cone-surface $-1 -1 $-1 -1.600000000000000164e-15 3.738034549688999959e-15 4.809999999999999609 -3.299999999999999882e-16 7.820446049249999786e-16 1 7.200000000000001066 -5.040000000000000052e-16 2.376000000000000743e-15 1 I I 0.9858558466697560085 0.1675954939342304828 7.200000000000001066 forward I I I I #
coedge $-1 -1 $-1 $145 $164 $165 $166 reversed $117 $-1 #
coedge $-1 -1 $-1 $123 $119 $142 $167 forward $96 $-1 #
coedge $-1 -1 $-1 $119 $123 $141 $167 reversed $96 $-1 #
coedge $-1 -1 $-1 $168 $169 $119 $144 reversed $138 $-1 #
edge $170 -1 $-1 $171 1.446341463414631596e-16 $171 6.283185307179586232 $119 $172 forward @7 unknown #
coedge $-1 -1 $-1 $165 $140 $120 $146 forward $117 $-1 #
edge $173 -1 $-1 $148 -9.721994897050253463e-18 $148 6.283185307179586232 $120 $174 forward @14 tangent_not_g2 #
truecolor-adesk-attrib $-1 -1 $175 $-1 $122 -1026765620 #
vertex $-1 -1 $-1 $122 $176 #
ellipse-curve $-1 -1 $-1 8.707106781187000877 -1.605111512313000018e-15 -2.5 -4.000000000000000286e-17 1 -7.820446049249999786e-16 0.5 2.000000000000013393e-17 1.649999999999999941e-16 1 F 1.570796326794897002 F 2.35619449019376237 #
truecolor-adesk-attrib $-1 -1 $177 $-1 $124 -1026765620 #
ellipse-curve $-1 -1 $-1 -1.559999999999999908e-15 3.639168751049000169e-15 4.679999999999999716 3.299999999999999882e-16 -7.820446049249999786e-16 -1 8.199999999999999289 -4.920000000000000075e-16 2.706000000000000583e-15 1 I I #
color-adesk-attrib $-1 -1 $178 $125 $101 254 #
point $-1 -1 $-1 8.199999999999999289 2.039168751049000203e-15 4.679999999999999716 #
color-adesk-attrib $-1 -1 $179 $128 $103 254 #
point $-1 -1 $-1 8.707106781187000877 -2.666133814774999811e-15 -3.000000000000000444 #
DXID-attrib $-1 -1 $-1 $131 $79 @18 ASM_EDGE_FROM_STEP @3 253 #
DXID-attrib $-1 -1 $-1 $135 $95 @18 ASM_FACE_FROM_STEP @16 MyThumbStick-530 #
color-adesk-attrib $-1 -1 $180 $136 $116 254 #
truecolor-adesk-attrib $-1 -1 $181 $-1 $137 -1026765620 #
face $182 -1 $-1 $183 $184 $4 $-1 $185 reversed single #
loop $-1 -1 $-1 $-1 $186 $137 #
cone-surface $-1 -1 $-1 8.300000000000000763e-16 -1.945111512313000415e-15 -2.5 -3.299999999999999882e-16 7.820446049249999786e-16 1 8 2.400000000000000048e-16 2.639999999999999905e-15 1 I I 0.707106781186230493 0.7071067811868645414 8 forward I I I I #
coedge $-1 -1 $-1 $169 $168 $187 $188 forward $138 $-1 #
coedge $-1 -1 $-1 $140 $165 $186 $189 reversed $117 $-1 #
coedge $-1 -1 $-1 $164 $145 $140 $166 forward $117 $-1 #
edge $190 -1 $-1 $148 0.207106781186802813 $191 0.7071067811860954899 $140 $192 forward @2 g2 #
edge $193 -1 $-1 $171 -2.220446049249999713e-31 $126 0.3000000000000008216 $141 $194 forward @2 g2 #
coedge $-1 -1 $-1 $163 $143 $169 $195 reversed $138 $-1 #
coedge $-1 -1 $-1 $143 $163 $168 $195 forward $138 $-1 #
truecolor-adesk-attrib $-1 -1 $196 $-1 $144 -1026765620 #
vertex $-1 -1 $-1 $144 $197 #
ellipse-curve $-1 -1 $-1 -1.660000000000000153e-15 3.865782132526999835e-15 4.980000000000000426 3.299999999999999882e-16 -7.820446049249999786e-16 -1 8.199999999999999289 -5.739999999999999594e-16 2.706000000000000583e-15 1 I I #
truecolor-adesk-attrib $-1 -1 $198 $-1 $146 -1026765620 #
ellipse-curve $-1 -1 $-1 9.500000000000000541e-16 -2.213616135247000013e-15 -2.85355339059299995 3.299999999999999882e-16 -7.820446049249999786e-16 -1 8.353553390592999506 -5.012132034355799899e-16 2.756672618895690388e-15 1 I I #
color-adesk-attrib $-1 -1 $199 $147 $122 254 #
point $-1 -1 $-1 8.353553390592999506 -2.633616135247000132e-15 -2.85355339059299995 #
color-adesk-attrib $-1 -1 $200 $150 $124 254 #
DXID-attrib $-1 -1 $-1 $152 $101 @18 ASM_EDGE_FROM_STEP @3 370 #
DXID-attrib $-1 -1 $-1 $154 $103 @18 ASM_EDGE_FROM_STEP @3 335 #
DXID-attrib $-1 -1 $-1 $158 $116 @18 ASM_FACE_FROM_STEP @16 MyThumbStick-585 #
color-adesk-attrib $-1 -1 $201 $159 $137 254 #
truecolor-adesk-attrib $-1 -1 $202 $-1 $160 -1026765620 #
face $203 -1 $-1 $204 $205 $4 $-1 $206 reversed single #
loop $-1 -1 $-1 $-1 $207 $160 #
cone-surface $-1 -1 $-1 -1.499999999999999919e-15 3.501421168212000012e-15 4.509999999999999787 -3.299999999999999882e-16 7.820446049249999786e-16 1 7.200000000000001066 -5.040000000000000052e-16 2.376000000000000743e-15 1 I I 0 1 7.200000000000001066 forward I I I I #
coedge $-1 -1 $-1 $208 $209 $164 $189 forward $161 $-1 #
coedge $-1 -1 $-1 $210 $211 $163 $188 reversed $184 $-1 #
edge $212 -1 $-1 $213 1.619444444444440547e-16 $213 6.283185307179586232 $163 $214 forward @7 unknown #
edge $215 -1 $-1 $191 -1.875000000000028002e-17 $191 6.283185307179586232 $164 $216 forward @7 unknown #
truecolor-adesk-attrib $-1 -1 $217 $-1 $166 -1026765620 #
vertex $-1 -1 $-1 $166 $218 #
straight-curve $-1 -1 $-1 8.5 -6.661338147751000379e-16 -3.000000000000000444 -0.7071067811870000996 1.570092458683999992e-16 0.7071067811870000996 F 0.207106781186802813 F 0.7071067811860954899 #
truecolor-adesk-attrib $-1 -1 $219 $-1 $167 -1026765620 #
straight-curve $-1 -1 $-1 8.199999999999999289 1.105782132526999952e-15 4.980000000000000426 0 -2.220446049250000002e-16 -1 F -2.220446049249999713e-31 F 0.3000000000000008216 #
edge $220 -1 $-1 $213 3.721367523774496482e-32 $171 1.014347080638368981 $169 $221 forward @2 g2 #
color-adesk-attrib $-1 -1 $222 $170 $144 254 #
point $-1 -1 $-1 8.199999999999999289 2.10578213252700003e-15 4.980000000000000426 #
color-adesk-attrib $-1 -1 $223 $173 $146 254 #
DXID-attrib $-1 -1 $-1 $175 $122 @18 ASM_EDGE_FROM_STEP @3 425 #
DXID-attrib $-1 -1 $-1 $177 $124 @18 ASM_EDGE_FROM_STEP @3 393 #
DXID-attrib $-1 -1 $-1 $181 $137 @18 ASM_FACE_FROM_STEP @16 MyThumbStick-640 #
color-adesk-attrib $-1 -1 $224 $182 $160 254 #
truecolor-adesk-attrib $-1 -1 $225 $-1 $183 -1026765620 #
face $226 -1 $-1 $227 $228 $4 $-1 $229 reversed single #
loop $-1 -1 $-1 $-1 $230 $183 #
cone-surface $-1 -1 $-1 6.700000000000000402e-16 -1.554089209850000189e-15 -2 -3.299999999999999882e-16 7.820446049249999786e-16 1 8.5 2.550000000000000021e-16 2.805000000000000417e-15 1 I I 0 1 8.5 forward I I I I #
coedge $-1 -1 $-1 $211 $210 $231 $232 forward $184 $-1 #
coedge $-1 -1 $-1 $233 $186 $209 $234 forward $161 $-1 #
coedge $-1 -1 $-1 $186 $233 $208 $234 reversed $161 $-1 #
coedge $-1 -1 $-1 $207 $187 $211 $235 reversed $184 $-1 #
coedge $-1 -1 $-1 $187 $207 $210 $235 forward $184 $-1 #
truecolor-adesk-attrib $-1 -1 $236 $-1 $188 -1026765620 #
vertex $-1 -1 $-1 $188 $237 #
ellipse-curve $-1 -1 $-1 -1.600000000000000164e-15 3.738034549688999959e-15 4.809999999999999609 3.299999999999999882e-16 -7.820446049249999786e-16 -1 7.200000000000001066 -5.040000000000000052e-16 2.376000000000000743e-15 1 I I #
truecolor-adesk-attrib $-1 -1 $238 $-1 $189 -1026765620 #
ellipse-curve $-1 -1 $-1 8.300000000000000763e-16 -1.945111512313000415e-15 -2.5 3.299999999999999882e-16 -7.820446049249999786e-16 -1 8 2.400000000000000048e-16 2.639999999999999905e-15 1 I I #
color-adesk-attrib $-1 -1 $239 $190 $166 254 #
point $-1 -1 $-1 8 -1.555111512312999994e-15 -2.5 #
color-adesk-attrib $-1 -1 $240 $193 $167 254 #
truecolor-adesk-attrib $-1 -1 $241 $-1 $195 -1026765620 #
straight-curve $-1 -1 $-1 7.200000000000001066 1.068034549688999961e-15 4.809999999999999609 0.9858558466700001466 3.721367523775999834e-17 0.1675954939340000283 F 3.721367523774496482e-32 F 1.014347080638368981 #
DXID-attrib $-1 -1 $-1 $196 $144 @18 ASM_EDGE_FROM_STEP @3 479 #
DXID-attrib $-1 -1 $-1 $198 $146 @18 ASM_EDGE_FROM_STEP @3 449 #
DXID-attrib $-1 -1 $-1 $202 $160 @18 ASM_FACE_FROM_STEP @16 MyThumbStick-695 #
color-adesk-attrib $-1 -1 $242 $203 $183 254 #
truecolor-adesk-attrib $-1 -1 $243 $-1 $204 -1026765620 #
face $244 -1 $-1 $245 $246 $4 $-1 $247 forward single #
loop $-1 -1 $-1 $-1 $248 $204 #
cone-surface $-1 -1 $-1 -1.470000000000000221e-15 3.429216707718999954e-15 4.410000000000000142 -3.299999999999999882e-16 7.820446049249999786e-16 1 6.574343986480000623 -4.602040790536000405e-16 2.169533515538400458e-15 1 I I 0.9874664628091860408 0.1578289733449291798 6.574343986480000623 forward I I I I #
coedge $-1 -1 $-1 $249 $250 $233 $251 forward $205 $-1 #
coedge $-1 -1 $-1 $252 $253 $207 $232 reversed $228 $-1 #
edge $254 -1 $-1 $255 1.383333333333330009e-16 $255 6.283185307179586232 $207 $256 forward @7 unknown #
coedge $-1 -1 $-1 $209 $208 $230 $251 reversed $161 $-1 #
edge $257 -1 $-1 $191 -1.570092458682617913e-31 $258 0.7071067811860950458 $208 $259 forward @2 g2 #
edge $260 -1 $-1 $255 2.220446049250000151e-31 $213 0.2999999999999997113 $211 $261 forward @2 g2 #
color-adesk-attrib $-1 -1 $262 $212 $188 254 #
point $-1 -1 $-1 7.200000000000001066 2.068034549689000039e-15 4.809999999999999609 #
color-adesk-attrib $-1 -1 $263 $215 $189 254 #
DXID-attrib $-1 -1 $-1 $217 $166 @18 ASM_EDGE_FROM_STEP @3 534 #
DXID-attrib $-1 -1 $-1 $219 $167 @18 ASM_EDGE_FROM_STEP @3 508 #
color-adesk-attrib $-1 -1 $264 $220 $195 254 #
DXID-attrib $-1 -1 $-1 $225 $183 @18 ASM_FACE_FROM_STEP @16 MyThumbStick-750 #
color-adesk-attrib $-1 -1 $265 $226 $204 254 #
truecolor-adesk-attrib $-1 -1 $266 $-1 $227 -1026765620 #
face $267 -1 $-1 $268 $269 $4 $-1 $270 forward single #
loop $-1 -1 $-1 $-1 $271 $227 #
plane-surface $-1 -1 $-1 0 0 0 3.299999999999999882e-16 -7.820446049249999786e-16 -1 1 7.327471962525998966e-32 3.299999999999999882e-16 forward_v I I I I #
coedge $-1 -1 $-1 $253 $252 $272 $273 forward $228 $-1 #
coedge $-1 -1 $-1 $274 $230 $250 $275 forward $205 $-1 #
coedge $-1 -1 $-1 $230 $274 $249 $275 reversed $205 $-1 #
edge $276 -1 $-1 $258 -1.005882352941061631e-16 $258 6.283185307179586232 $233 $277 forward @7 unknown #
coedge $-1 -1 $-1 $248 $231 $253 $278 reversed $228 $-1 #
coedge $-1 -1 $-1 $231 $248 $252 $278 forward $228 $-1 #
truecolor-adesk-attrib $-1 -1 $279 $-1 $232 -1026765620 #
vertex $-1 -1 $-1 $232 $280 #
ellipse-curve $-1 -1 $-1 -1.499999999999999919e-15 3.501421168212000012e-15 4.509999999999999787 3.299999999999999882e-16 -7.820446049249999786e-16 -1 7.200000000000001066 -5.040000000000000052e-16 2.376000000000000743e-15 1 I I #
truecolor-adesk-attrib $-1 -1 $281 $-1 $234 -1026765620 #
vertex $-1 -1 $-1 $234 $282 #
straight-curve $-1 -1 $-1 8 -5.551115123125999639e-16 -2.5 0.7071067811870000996 1.570092458683999992e-16 0.7071067811870000996 F -1.570092458682617913e-31 F 0.7071067811860950458 #
truecolor-adesk-attrib $-1 -1 $283 $-1 $235 -1026765620 #
straight-curve $-1 -1 $-1 7.200000000000001066 1.001421168212000015e-15 4.509999999999999787 0 2.220446049250000002e-16 1 F 2.220446049250000151e-31 F 0.2999999999999997113 #
DXID-attrib $-1 -1 $-1 $236 $188 @18 ASM_EDGE_FROM_STEP @3 589 #
DXID-attrib $-1 -1 $-1 $238 $189 @18 ASM_EDGE_FROM_STEP @3 559 #
DXID-attrib $-1 -1 $-1 $241 $195 @18 ASM_EDGE_FROM_STEP @3 618 #
DXID-attrib $-1 -1 $-1 $243 $204 @18 ASM_FACE_FROM_STEP @16 MyThumbStick-805 #
color-adesk-attrib $-1 -1 $284 $244 $227 254 #
truecolor-adesk-attrib $-1 -1 $285 $-1 $245 -1026765620 #
face $286 -1 $-1 $287 $288 $4 $-1 $289 reversed single #
loop $-1 -1 $-1 $-1 $290 $245 #
cone-surface $-1 -1 $-1 -1.570000000000000071e-15 3.65583008919699962e-15 4.709999999999999964 3.299999999999999882e-16 -7.820446049249999786e-16 -1 6.574343986480000623 -5.259475189184000603e-16 2.169533515538400458e-15 1 I I 0 1 6.574343986480000623 forward I I I I #
coedge $-1 -1 $-1 $271 $271 $274 $291 forward $246 $-1 #
coedge $-1 -1 $-1 $292 $293 $248 $273 reversed $269 $-1 #
edge $294 -1 $-1 $295 1.505543249610748037e-16 $295 6.283185307179586232 $248 $296 forward @7 unknown #
coedge $-1 -1 $-1 $250 $249 $271 $291 reversed $205 $-1 #
edge $297 -1 $-1 $258 0 $298 2 $249 $299 forward @2 g2 #
truecolor-adesk-attrib $-1 -1 $300 $-1 $251 -1026765620 #
ellipse-curve $-1 -1 $-1 6.700000000000000402e-16 -1.554089209850000189e-15 -2 3.299999999999999882e-16 -7.820446049249999786e-16 -1 8.5 2.550000000000000021e-16 2.805000000000000417e-15 1 I I #
edge $301 -1 $-1 $295 3.50450720320580711e-32 $255 0.633597227940493557 $253 $302 forward @2 g2 #
color-adesk-attrib $-1 -1 $303 $254 $232 254 #
point $-1 -1 $-1 7.200000000000001066 2.001421168212000093e-15 4.509999999999999787 #
color-adesk-attrib $-1 -1 $304 $257 $234 254 #
point $-1 -1 $-1 8.5 -4.440892098500999885e-16 -2 #
color-adesk-attrib $-1 -1 $305 $260 $235 254 #
DXID-attrib $-1 -1 $-1 $266 $227 @18 ASM_FACE_FROM_STEP @16 MyThumbStick-860 #
color-adesk-attrib $-1 -1 $306 $267 $245 254 #
truecolor-adesk-attrib $-1 -1 $307 $-1 $268 -1026765620 #
face $308 -1 $-1 $309 $310 $4 $-1 $311 reversed single #
loop $-1 -1 $-1 $-1 $312 $268 #
cone-surface $-1 -1 $-1 -1.540000000000000175e-15 3.583625628704000351e-15 4.610000000000001208 -3.299999999999999882e-16 7.820446049249999786e-16 1 5.564938220695000659 -5.008444398625499197e-16 1.836429612829350034e-15 1 I I 0.9951285758613966914 0.09858558466666651754 5.564938220695000659 forward I I I I #
coedge $-1 -1 $-1 $293 $292 $313 $314 forward $269 $-1 #
edge $315 -1 $-1 $298 1.647058823533504143e-33 $298 6.283185307179586232 $274 $316 forward @7 unknown #
coedge $-1 -1 $-1 $290 $272 $293 $317 reversed $269 $-1 #
coedge $-1 -1 $-1 $272 $290 $292 $317 forward $269 $-1 #
truecolor-adesk-attrib $-1 -1 $318 $-1 $273 -1026765620 #
vertex $-1 -1 $-1 $273 $319 #
ellipse-curve $-1 -1 $-1 -1.470000000000000221e-15 3.429216707718999954e-15 4.410000000000000142 3.299999999999999882e-16 -7.820446049249999786e-16 -1 6.574343986480000623 -4.602040790536000405e-16 2.169533515538400458e-15 1 I I #
truecolor-adesk-attrib $-1 -1 $320 $-1 $275 -1026765620 #
vertex $-1 -1 $-1 $275 $321 #
straight-curve $-1 -1 $-1 8.5 -4.440892098500999885e-16 -2 0 2.220446049250000002e-16 1 F 0 F 2 #
color-adesk-attrib $-1 -1 $322 $276 $251 254 #
truecolor-adesk-attrib $-1 -1 $323 $-1 $278 -1026765620 #
straight-curve $-1 -1 $-1 6.574343986480000623 9.792167077193999331e-16 4.410000000000000142 0.9874664628090000784 3.50450720320599973e-17 0.1578289733450000121 F 3.50450720320580711e-32 F 0.633597227940493557 #
DXID-attrib $-1 -1 $-1 $279 $232 @18 ASM_EDGE_FROM_STEP @3 699 #
DXID-attrib $-1 -1 $-1 $281 $234 @18 ASM_EDGE_FROM_STEP @3 645 #
DXID-attrib $-1 -1 $-1 $283 $235 @18 ASM_EDGE_FROM_STEP @3 728 #
DXID-attrib $-1 -1 $-1 $285 $245 @18 ASM_FACE_FROM_STEP @16 MyThumbStick-864 #
color-adesk-attrib $-1 -1 $324 $286 $268 254 #
truecolor-adesk-attrib $-1 -1 $325 $-1 $287 -1026765620 #
face $326 -1 $-1 $327 $328 $4 $-1 $329 reversed single #
loop $-1 -1 $-1 $-1 $330 $287 #
cone-surface $-1 -1 $-1 -1.43999999999999993e-15 3.347012247227000404e-15 4.309999999999999609 -3.299999999999999882e-16 7.820446049249999786e-16 1 5.564938220695000659 -5.008444398625499197e-16 1.836429612829350034e-15 1 I I 0 1 5.564938220695000659 forward I I I I #
coedge $-1 -1 $-1 $331 $332 $333 $334 forward $288 $-1 #
coedge $-1 -1 $-1 $332 $331 $290 $314 reversed $288 $-1 #
edge $335 -1 $-1 $336 1.648913539222968419e-16 $336 6.283185307179586232 $290 $337 forward @7 unknown #
truecolor-adesk-attrib $-1 -1 $338 $-1 $291 -1026765620 #
ellipse-curve $-1 -1 $-1 0 -6.283862319378001176e-31 -2.830000000000000232e-15 3.299999999999999882e-16 -7.820446049249999786e-16 -1 8.5 6.228351168147100216e-31 2.805000000000000417e-15 1 I I #
edge $339 -1 $-1 $336 -2.220446049249999713e-31 $295 0.2999999999999997113 $293 $340 forward @2 g2 #
color-adesk-attrib $-1 -1 $341 $294 $273 254 #
point $-1 -1 $-1 6.574343986480000623 1.979216707719000058e-15 4.410000000000000142 #
color-adesk-attrib $-1 -1 $342 $297 $275 254 #
point $-1 -1 $-1 8.5 0 0 #
DXID-attrib $-1 -1 $-1 $300 $251 @18 ASM_EDGE_FROM_STEP @3 668 #
color-adesk-attrib $-1 -1 $343 $301 $278 254 #
DXID-attrib $-1 -1 $-1 $307 $268 @18 ASM_FACE_FROM_STEP @16 MyThumbStick-919 #
color-adesk-attrib $-1 -1 $344 $308 $287 254 #
truecolor-adesk-attrib $-1 -1 $345 $-1 $309 -1026765620 #
face $346 -1 $-1 $347 $348 $4 $-1 $349 forward single #
loop $-1 -1 $-1 $-1 $350 $309 #
cone-surface $-1 -1 $-1 -1.420000000000000197e-15 3.30591001698099984e-15 4.259999999999999787 -3.299999999999999882e-16 7.820446049249999786e-16 1 4.933316936020000654 -4.933316936019999934e-16 1.62799458888660055e-15 1 I I 0.9968813890294179192 0.07891448667246342419 4.933316936020000654 forward I I I I #
coedge $-1 -1 $-1 $351 $352 $353 $354 forward $310 $-1 #
coedge $-1 -1 $-1 $313 $312 $332 $355 forward $288 $-1 #
coedge $-1 -1 $-1 $312 $313 $331 $355 reversed $288 $-1 #
coedge $-1 -1 $-1 $352 $351 $312 $334 reversed $310 $-1 #
edge $356 -1 $-1 $357 1.903265621527729685e-16 $357 6.283185307179586232 $312 $358 forward @7 unknown #
truecolor-adesk-attrib $-1 -1 $359 $-1 $314 -1026765620 #
vertex $-1 -1 $-1 $314 $360 #
ellipse-curve $-1 -1 $-1 -1.570000000000000071e-15 3.65583008919699962e-15 4.709999999999999964 3.299999999999999882e-16 -7.820446049249999786e-16 -1 6.574343986480000623 -5.259475189184000603e-16 2.169533515538400458e-15 1 I I #
color-adesk-attrib $-1 -1 $361 $315 $291 254 #
truecolor-adesk-attrib $-1 -1 $362 $-1 $317 -1026765620 #
straight-curve $-1 -1 $-1 6.574343986480000623 1.045830089197000005e-15 4.709999999999999964 0 -2.220446049250000002e-16 -1 F -2.220446049249999713e-31 F 0.2999999999999997113 #
DXID-attrib $-1 -1 $-1 $318 $273 @18 ASM_EDGE_FROM_STEP @3 809 #
DXID-attrib $-1 -1 $-1 $320 $275 @18 ASM_EDGE_FROM_STEP @3 755 #
DXID-attrib $-1 -1 $-1 $323 $278 @18 ASM_EDGE_FROM_STEP @3 838 #
DXID-attrib $-1 -1 $-1 $325 $287 @18 ASM_FACE_FROM_STEP @16 MyThumbStick-974 #
color-adesk-attrib $-1 -1 $363 $326 $309 254 #
truecolor-adesk-attrib $-1 -1 $364 $-1 $327 -1026765620 #
face $365 -1 $-1 $366 $367 $4 $-1 $368 reversed single #
loop $-1 -1 $-1 $-1 $369 $327 #
cone-surface $-1 -1 $-1 -1.520000000000000047e-15 3.542523398458000182e-15 4.559999999999999609 3.299999999999999882e-16 -7.820446049249999786e-16 -1 4.933316936020000654 -4.933316936019999934e-16 1.62799458888660055e-15 1 I I 0 1 4.933316936020000654 forward I I I I #
coedge $-1 -1 $-1 $370 $371 $372 $373 forward $328 $-1 #
coedge $-1 -1 $-1 $333 $330 $352 $374 forward $310 $-1 #
coedge $-1 -1 $-1 $330 $333 $351 $374 reversed $310 $-1 #
coedge $-1 -1 $-1 $371 $370 $330 $354 reversed $328 $-1 #
edge $375 -1 $-1 $376 1.597781547386886585e-16 $376 6.283185307179586232 $330 $377 forward @7 unknown #
edge $378 -1 $-1 $357 2.189039719869593255e-32 $336 1.014347080638945187 $331 $379 forward @2 g2 #
truecolor-adesk-attrib $-1 -1 $380 $-1 $334 -1026765620 #
vertex $-1 -1 $-1 $334 $381 #
ellipse-curve $-1 -1 $-1 -1.540000000000000175e-15 3.583625628704000351e-15 4.610000000000001208 3.299999999999999882e-16 -7.820446049249999786e-16 -1 5.564938220695000659 -5.008444398625499197e-16 1.836429612829350034e-15 1 I I #
color-adesk-attrib $-1 -1 $382 $335 $314 254 #
point $-1 -1 $-1 6.574343986480000623 2.045830089196999886e-15 4.709999999999999964 #
DXID-attrib $-1 -1 $-1 $338 $291 @18 ASM_EDGE_FROM_STEP @3 778 #
color-adesk-attrib $-1 -1 $383 $339 $317 254 #
DXID-attrib $-1 -1 $-1 $345 $309 @18 ASM_FACE_FROM_STEP @17 MyThumbStick-1029 #
color-adesk-attrib $-1 -1 $384 $346 $327 254 #
truecolor-adesk-attrib $-1 -1 $385 $-1 $347 -1026765620 #
face $386 -1 $-1 $387 $388 $4 $-1 $389 reversed single #
loop $-1 -1 $-1 $-1 $390 $347 #
cone-surface $-1 -1 $-1 -1.490000000000000151e-15 3.472539384014999807e-15 4.469999999999999751 -3.299999999999999882e-16 7.820446049249999786e-16 1 3.922970460794000136 -5.099861599032200111e-16 1.29458025206202046e-15 1 I I 0.9960559797629799927 0.08872702620064497336 3.922970460794000136 forward I I I I #
coedge $-1 -1 $-1 $391 $392 $393 $394 forward $348 $-1 #
coedge $-1 -1 $-1 $353 $350 $371 $395 forward $328 $-1 #
coedge $-1 -1 $-1 $350 $353 $370 $395 reversed $328 $-1 #
coedge $-1 -1 $-1 $392 $391 $350 $373 reversed $348 $-1 #
edge $396 -1 $-1 $397 1.756765919639436473e-16 $397 6.283185307179586232 $350 $398 forward @7 unknown #
edge $399 -1 $-1 $376 2.220446049250221293e-31 $357 0.3000000000000008216 $351 $400 forward @2 g2 #
truecolor-adesk-attrib $-1 -1 $401 $-1 $354 -1026765620 #
vertex $-1 -1 $-1 $354 $402 #
ellipse-curve $-1 -1 $-1 -1.43999999999999993e-15 3.347012247227000404e-15 4.309999999999999609 3.299999999999999882e-16 -7.820446049249999786e-16 -1 5.564938220695000659 -5.008444398625499197e-16 1.836429612829350034e-15 1 I I #
truecolor-adesk-attrib $-1 -1 $403 $-1 $355 -1026765620 #
straight-curve $-1 -1 $-1 5.564938220695000659 1.023625628704000168e-15 4.610000000000001208 0.9951285758610001198 2.189039719868000097e-17 0.09858558466698001677 F 2.189039719869593255e-32 F 1.014347080638945187 #
color-adesk-attrib $-1 -1 $404 $356 $334 254 #
point $-1 -1 $-1 5.564938220695000659 2.023625628704000246e-15 4.610000000000001208 #
DXID-attrib $-1 -1 $-1 $359 $314 @18 ASM_EDGE_FROM_STEP @3 868 #
DXID-attrib $-1 -1 $-1 $362 $317 @18 ASM_EDGE_FROM_STEP @3 897 #
DXID-attrib $-1 -1 $-1 $364 $327 @18 ASM_FACE_FROM_STEP @17 MyThumbStick-1084 #
color-adesk-attrib $-1 -1 $405 $365 $347 254 #
truecolor-adesk-attrib $-1 -1 $406 $-1 $366 -1026765620 #
face $407 -1 $-1 $408 $409 $4 $-1 $410 reversed single #
loop $-1 -1 $-1 $-1 $411 $366 #
cone-surface $-1 -1 $-1 -1.389999999999999907e-15 3.235926002536999979e-15 4.169999999999999929 -3.299999999999999882e-16 7.820446049249999786e-16 1 3.922970460794000136 -4.70756455295280033e-16 1.29458025206202046e-15 1 I I 0 1 3.922970460794000136 forward I I I I #
coedge $-1 -1 $-1 $412 $413 $414 $415 forward $367 $-1 #
coedge $-1 -1 $-1 $372 $369 $392 $416 forward $348 $-1 #
coedge $-1 -1 $-1 $369 $372 $391 $416 reversed $348 $-1 #
coedge $-1 -1 $-1 $413 $412 $369 $394 reversed $367 $-1 #
edge $417 -1 $-1 $418 2.101361659594366676e-16 $418 6.283185307179586232 $369 $419 forward @7 unknown #
edge $420 -1 $-1 $397 1.752253601605180391e-32 $376 0.633597227941250285 $370 $421 forward @2 g2 #
truecolor-adesk-attrib $-1 -1 $422 $-1 $373 -1026765620 #
vertex $-1 -1 $-1 $373 $423 #
ellipse-curve $-1 -1 $-1 -1.420000000000000197e-15 3.30591001698099984e-15 4.259999999999999787 3.299999999999999882e-16 -7.820446049249999786e-16 -1 4.933316936020000654 -4.933316936019999934e-16 1.62799458888660055e-15 1 I I #
truecolor-adesk-attrib $-1 -1 $424 $-1 $374 -1026765620 #
straight-curve $-1 -1 $-1 5.564938220695000659 9.570122472269000366e-16 4.309999999999999609 0 2.220446049250000002e-16 1 F 2.220446049250221293e-31 F 0.3000000000000008216 #
color-adesk-attrib $-1 -1 $425 $375 $354 254 #
point $-1 -1 $-1 5.564938220695000659 1.957012247226999905e-15 4.309999999999999609 #
color-adesk-attrib $-1 -1 $426 $378 $355 254 #
DXID-attrib $-1 -1 $-1 $380 $334 @18 ASM_EDGE_FROM_STEP @3 923 #
DXID-attrib $-1 -1 $-1 $385 $347 @18 ASM_FACE_FROM_STEP @17 MyThumbStick-1139 #
color-adesk-attrib $-1 -1 $427 $386 $366 254 #
truecolor-adesk-attrib $-1 -1 $428 $-1 $387 -1026765620 #
face $429 -1 $-1 $430 $431 $4 $-1 $432 forward single #
loop $-1 -1 $-1 $-1 $433 $387 #
cone-surface $-1 -1 $-1 -1.379999999999999942e-15 3.207044218340000563e-15 4.130000000000000782 -3.299999999999999882e-16 7.820446049249999786e-16 1 3.290637125238999872 -4.606891975334599733e-16 1.085910251328870198e-15 1 I I 0.9980052116235101911 0.06313158933776945314 3.290637125238999872 forward I I I I #
coedge $-1 -1 $-1 $434 $435 $436 $437 forward $388 $-1 #
coedge $-1 -1 $-1 $393 $390 $413 $438 forward $367 $-1 #
coedge $-1 -1 $-1 $390 $393 $412 $438 reversed $367 $-1 #
coedge $-1 -1 $-1 $435 $434 $390 $415 reversed $388 $-1 #
edge $439 -1 $-1 $440 2.472651399726443845e-16 $440 6.283185307179586232 $390 $441 forward @7 unknown #
edge $442 -1 $-1 $418 -2.220446049249999713e-31 $397 0.2999999999999997113 $391 $443 forward @2 g2 #
truecolor-adesk-attrib $-1 -1 $444 $-1 $394 -1026765620 #
vertex $-1 -1 $-1 $394 $445 #
ellipse-curve $-1 -1 $-1 -1.520000000000000047e-15 3.542523398458000182e-15 4.559999999999999609 3.299999999999999882e-16 -7.820446049249999786e-16 -1 4.933316936020000654 -4.933316936019999934e-16 1.62799458888660055e-15 1 I I #
truecolor-adesk-attrib $-1 -1 $446 $-1 $395 -1026765620 #
straight-curve $-1 -1 $-1 4.933316936020000654 9.459100169805999957e-16 4.259999999999999787 0.9968813890290001423 1.752253601602999865e-17 0.07891448667239001069 F 1.752253601605180391e-32 F 0.633597227941250285 #
color-adesk-attrib $-1 -1 $447 $396 $373 254 #
point $-1 -1 $-1 4.933316936020000654 1.945910016981000223e-15 4.259999999999999787 #
color-adesk-attrib $-1 -1 $448 $399 $374 254 #
DXID-attrib $-1 -1 $-1 $401 $354 @18 ASM_EDGE_FROM_STEP @3 978 #
DXID-attrib $-1 -1 $-1 $403 $355 @18 ASM_EDGE_FROM_STEP @3 952 #
DXID-attrib $-1 -1 $-1 $406 $366 @18 ASM_FACE_FROM_STEP @17 MyThumbStick-1194 #
color-adesk-attrib $-1 -1 $449 $407 $387 254 #
truecolor-adesk-attrib $-1 -1 $450 $-1 $408 -1026765620 #
face $451 -1 $-1 $452 $453 $4 $-1 $454 reversed single #
loop $-1 -1 $-1 $-1 $455 $408 #
cone-surface $-1 -1 $-1 -1.480000000000000186e-15 3.443657599818000391e-15 4.429999999999999716 3.299999999999999882e-16 -7.820446049249999786e-16 -1 3.290637125238999872 -4.935955687858499643e-16 1.085910251328870198e-15 1 I I 0 1 3.290637125238999872 forward I I I I #
coedge $-1 -1 $-1 $456 $457 $458 $459 forward $409 $-1 #
coedge $-1 -1 $-1 $414 $411 $435 $460 forward $388 $-1 #
coedge $-1 -1 $-1 $411 $414 $434 $460 reversed $388 $-1 #
coedge $-1 -1 $-1 $457 $456 $411 $437 reversed $409 $-1 #
edge $461 -1 $-1 $462 2.13930630651462356e-16 $462 6.283185307179586232 $411 $463 forward @7 unknown #
edge $464 -1 $-1 $440 1.970135747881246288e-32 $418 1.014347080639377507 $412 $465 forward @2 g2 #
truecolor-adesk-attrib $-1 -1 $466 $-1 $415 -1026765620 #
vertex $-1 -1 $-1 $415 $467 #
ellipse-curve $-1 -1 $-1 -1.490000000000000151e-15 3.472539384014999807e-15 4.469999999999999751 3.299999999999999882e-16 -7.820446049249999786e-16 -1 3.922970460794000136 -5.099861599032200111e-16 1.29458025206202046e-15 1 I I #
truecolor-adesk-attrib $-1 -1 $468 $-1 $416 -1026765620 #
straight-curve $-1 -1 $-1 4.933316936020000654 1.012523398458000091e-15 4.559999999999999609 0 -2.220446049250000002e-16 -1 F -2.220446049249999713e-31 F 0.2999999999999997113 #
color-adesk-attrib $-1 -1 $469 $417 $394 254 #
point $-1 -1 $-1 4.933316936020000654 2.012523398458000169e-15 4.559999999999999609 #
color-adesk-attrib $-1 -1 $470 $420 $395 254 #
DXID-attrib $-1 -1 $-1 $422 $373 @18 ASM_EDGE_FROM_STEP @4 1033 #
DXID-attrib $-1 -1 $-1 $424 $374 @18 ASM_EDGE_FROM_STEP @4 1007 #
DXID-attrib $-1 -1 $-1 $428 $387 @18 ASM_FACE_FROM_STEP @17 MyThumbStick-1249 #
color-adesk-attrib $-1 -1 $471 $429 $408 254 #
truecolor-adesk-attrib $-1 -1 $472 $-1 $430 -1026765620 #
face $473 -1 $-1 $474 $475 $4 $-1 $476 reversed single #
loop $-1 -1 $-1 $-1 $477 $430 #
cone-surface $-1 -1 $-1 -1.460000000000000058e-15 3.400334923522000538e-15 4.370000000000000995 -3.299999999999999882e-16 7.820446049249999786e-16 1 2.27806614007299979 -4.783938894153299805e-16 7.517618262240903356e-16 1 I I 0.9982490258940973638 0.05915135080017880354 2.27806614007299979 forward I I I I #
coedge $-1 -1 $-1 $478 $479 $480 $481 forward $431 $-1 #
coedge $-1 -1 $-1 $436 $433 $457 $482 forward $409 $-1 #
coedge $-1 -1 $-1 $433 $436 $456 $482 reversed $409 $-1 #
coedge $-1 -1 $-1 $479 $478 $433 $459 reversed $431 $-1 #
edge $483 -1 $-1 $484 2.520213475092018701e-16 $484 6.283185307179586232 $433 $485 forward @7 unknown #
edge $486 -1 $-1 $462 2.220446049249111202e-31 $440 0.2999999999999997113 $434 $487 forward @2 g2 #
truecolor-adesk-attrib $-1 -1 $488 $-1 $437 -1026765620 #
vertex $-1 -1 $-1 $437 $489 #
ellipse-curve $-1 -1 $-1 -1.389999999999999907e-15 3.235926002536999979e-15 4.169999999999999929 3.299999999999999882e-16 -7.820446049249999786e-16 -1 3.922970460794000136 -4.70756455295280033e-16 1.29458025206202046e-15 1 I I #
truecolor-adesk-attrib $-1 -1 $490 $-1 $438 -1026765620 #
straight-curve $-1 -1 $-1 3.922970460794000136 9.925393840148999499e-16 4.469999999999999751 0.9960559797629999768 1.970135747881000099e-17 0.08872702620028000142 F 1.970135747881246288e-32 F 1.014347080639377507 #
color-adesk-attrib $-1 -1 $491 $439 $415 254 #
point $-1 -1 $-1 3.922970460794000136 1.992539384014999819e-15 4.469999999999999751 #
color-adesk-attrib $-1 -1 $492 $442 $416 254 #
DXID-attrib $-1 -1 $-1 $444 $394 @18 ASM_EDGE_FROM_STEP @4 1088 #
DXID-attrib $-1 -1 $-1 $446 $395 @18 ASM_EDGE_FROM_STEP @4 1062 #
DXID-attrib $-1 -1 $-1 $450 $408 @18 ASM_FACE_FROM_STEP @17 MyThumbStick-1304 #
color-adesk-attrib $-1 -1 $493 $451 $430 254 #
truecolor-adesk-attrib $-1 -1 $494 $-1 $452 -1026765620 #
face $495 -1 $-1 $496 $497 $4 $-1 $498 reversed single #
loop $-1 -1 $-1 $-1 $499 $452 #
cone-surface $-1 -1 $-1 -1.360000000000000208e-15 3.163721542045000591e-15 4.070000000000000284 -3.299999999999999882e-16 7.820446049249999786e-16 1 2.27806614007299979 -4.556132280145999344e-16 7.517618262240903356e-16 1 I I 0 1 2.27806614007299979 forward I I I I #
coedge $-1 -1 $-1 $500 $501 $502 $503 forward $453 $-1 #
coedge $-1 -1 $-1 $458 $455 $479 $504 forward $431 $-1 #
coedge $-1 -1 $-1 $455 $458 $478 $504 reversed $431 $-1 #
coedge $-1 -1 $-1 $501 $500 $455 $481 reversed $453 $-1 #
edge $505 -1 $-1 $506 2.936830754755307377e-16 $506 6.283185307179586232 $455 $507 forward @7 unknown #
edge $508 -1 $-1 $484 1.401802881281043776e-32 $462 0.6335972279403635499 $456 $509 forward @2 g2 #
truecolor-adesk-attrib $-1 -1 $510 $-1 $459 -1026765620 #
vertex $-1 -1 $-1 $459 $511 #
ellipse-curve $-1 -1 $-1 -1.379999999999999942e-15 3.207044218340000563e-15 4.130000000000000782 3.299999999999999882e-16 -7.820446049249999786e-16 -1 3.290637125238999872 -4.606891975334599733e-16 1.085910251328870198e-15 1 I I #
truecolor-adesk-attrib $-1 -1 $512 $-1 $460 -1026765620 #
straight-curve $-1 -1 $-1 3.922970460794000136 9.259260025374000632e-16 4.169999999999999929 0 2.220446049250000002e-16 1 F 2.220446049249111202e-31 F 0.2999999999999997113 #
color-adesk-attrib $-1 -1 $513 $461 $437 254 #
point $-1 -1 $-1 3.922970460794000136 1.925926002536999991e-15 4.169999999999999929 #
color-adesk-attrib $-1 -1 $514 $464 $438 254 #
DXID-attrib $-1 -1 $-1 $466 $415 @18 ASM_EDGE_FROM_STEP @4 1143 #
DXID-attrib $-1 -1 $-1 $468 $416 @18 ASM_EDGE_FROM_STEP @4 1117 #
DXID-attrib $-1 -1 $-1 $472 $430 @18 ASM_FACE_FROM_STEP @17 MyThumbStick-1359 #
color-adesk-attrib $-1 -1 $515 $473 $452 254 #
truecolor-adesk-attrib $-1 -1 $516 $-1 $474 -1026765620 #
face $517 -1 $-1 $518 $519 $4 $-1 $520 forward single #
loop $-1 -1 $-1 $-1 $521 $474 #
cone-surface $-1 -1 $-1 -1.350000000000000243e-15 3.149280649946000153e-15 4.050000000000000711 -3.299999999999999882e-16 7.820446049249999786e-16 1 1.644784648749000322 -4.440918551622299802e-16 5.427789340871703044e-16 1 I I 0.9995016761401234184 0.03156579466897638936 1.644784648749000322 forward I I I I #
coedge $-1 -1 $-1 $522 $523 $524 $525 forward $475 $-1 #
coedge $-1 -1 $-1 $480 $477 $501 $526 forward $453 $-1 #
coedge $-1 -1 $-1 $477 $480 $500 $526 reversed $453 $-1 #
coedge $-1 -1 $-1 $523 $522 $477 $503 reversed $475 $-1 #
edge $527 -1 $-1 $528 4.177254092166852048e-16 $528 6.283185307179586232 $477 $529 forward @7 unknown #
edge $530 -1 $-1 $506 -2.220446049250221293e-31 $484 0.2999999999999997113 $478 $531 forward @2 g2 #
truecolor-adesk-attrib $-1 -1 $532 $-1 $481 -1026765620 #
vertex $-1 -1 $-1 $481 $533 #
ellipse-curve $-1 -1 $-1 -1.480000000000000186e-15 3.443657599818000391e-15 4.429999999999999716 3.299999999999999882e-16 -7.820446049249999786e-16 -1 3.290637125238999872 -4.935955687858499643e-16 1.085910251328870198e-15 1 I I #
truecolor-adesk-attrib $-1 -1 $534 $-1 $482 -1026765620 #
straight-curve $-1 -1 $-1 3.290637125238999872 9.170442183403999863e-16 4.130000000000000782 0.9980052116240001325 1.401802881283000227e-17 0.0631315893379099935 F 1.401802881281043776e-32 F 0.6335972279403635499 #
color-adesk-attrib $-1 -1 $535 $483 $459 254 #
point $-1 -1 $-1 3.290637125238999872 1.917044218340000112e-15 4.130000000000000782 #
color-adesk-attrib $-1 -1 $536 $486 $460 254 #
DXID-attrib $-1 -1 $-1 $488 $437 @18 ASM_EDGE_FROM_STEP @4 1198 #
DXID-attrib $-1 -1 $-1 $490 $438 @18 ASM_EDGE_FROM_STEP @4 1172 #
DXID-attrib $-1 -1 $-1 $494 $452 @18 ASM_FACE_FROM_STEP @17 MyThumbStick-1414 #
color-adesk-attrib $-1 -1 $537 $495 $474 254 #
truecolor-adesk-attrib $-1 -1 $538 $-1 $496 -1026765620 #
face $539 -1 $-1 $540 $541 $4 $-1 $542 reversed single #
loop $-1 -1 $-1 $-1 $543 $496 #
cone-surface $-1 -1 $-1 -1.450000000000000093e-15 3.37589403142399982e-15 4.349999999999999645 3.299999999999999882e-16 -7.820446049249999786e-16 -1 1.644784648749000322 -4.769875481372100225e-16 5.42778934087170403e-16 1 I I 0 1 1.644784648749000322 forward I I I I #
coedge $-1 -1 $-1 $544 $545 $546 $547 forward $497 $-1 #
coedge $-1 -1 $-1 $502 $499 $523 $548 forward $475 $-1 #
coedge $-1 -1 $-1 $499 $502 $522 $548 reversed $475 $-1 #
coedge $-1 -1 $-1 $545 $544 $499 $525 reversed $497 $-1 #
edge $549 -1 $-1 $550 3.5310071021889759e-16 $550 6.283185307179586232 $499 $551 forward @7 unknown #
edge $552 -1 $-1 $528 1.313423831920728407e-32 $506 1.014347080638694498 $500 $553 forward @2 g2 #
truecolor-adesk-attrib $-1 -1 $554 $-1 $503 -1026765620 #
vertex $-1 -1 $-1 $503 $555 #
ellipse-curve $-1 -1 $-1 -1.460000000000000058e-15 3.400334923522000538e-15 4.370000000000000995 3.299999999999999882e-16 -7.820446049249999786e-16 -1 2.27806614007299979 -4.783938894153299805e-16 7.517618262240903356e-16 1 I I #
truecolor-adesk-attrib $-1 -1 $556 $-1 $504 -1026765620 #
straight-curve $-1 -1 $-1 3.290637125238999872 9.836575998179000702e-16 4.429999999999999716 0 -2.220446049250000002e-16 -1 F -2.220446049250221293e-31 F 0.2999999999999997113 #
color-adesk-attrib $-1 -1 $557 $505 $481 254 #
point $-1 -1 $-1 3.290637125238999872 1.983657599817999939e-15 4.429999999999999716 #
color-adesk-attrib $-1 -1 $558 $508 $482 254 #
DXID-attrib $-1 -1 $-1 $510 $459 @18 ASM_EDGE_FROM_STEP @4 1253 #
DXID-attrib $-1 -1 $-1 $512 $460 @18 ASM_EDGE_FROM_STEP @4 1227 #
DXID-attrib $-1 -1 $-1 $516 $474 @18 ASM_FACE_FROM_STEP @17 MyThumbStick-1469 #
color-adesk-attrib $-1 -1 $559 $517 $496 254 #
truecolor-adesk-attrib $-1 -1 $560 $-1 $518 -1026765620 #
face $561 -1 $-1 $562 $563 $4 $-1 $564 reversed single #
loop $-1 -1 $-1 $-1 $565 $518 #
cone-surface $-1 -1 $-1 -1.420000000000000197e-15 3.318130463030000199e-15 4.269999999999999574 -3.299999999999999882e-16 7.820446049249999786e-16 1 0.6335972279410000407 -4.75197920955750041e-16 2.09087085220530374e-16 1 I I 0.996885030882401324 0.07886846773326985915 0.6335972279410000407 forward I I I I #
coedge $-1 -1 $-1 $566 $567 $568 $569 forward $519 $-1 #
coedge $-1 -1 $-1 $524 $521 $545 $570 forward $497 $-1 #
coedge $-1 -1 $-1 $521 $524 $544 $570 reversed $497 $-1 #
coedge $-1 -1 $-1 $567 $566 $521 $547 reversed $519 $-1 #
edge $571 -1 $-1 $572 4.899779101481343793e-16 $572 6.28318530717958712 $521 $573 forward @7 unknown #
edge $574 -1 $-1 $550 2.220446049250221731e-31 $528 0.3000000000000002665 $522 $575 forward @2 g2 #
truecolor-adesk-attrib $-1 -1 $576 $-1 $525 -1026765620 #
vertex $-1 -1 $-1 $525 $577 #
ellipse-curve $-1 -1 $-1 -1.360000000000000208e-15 3.163721542045000591e-15 4.070000000000000284 3.299999999999999882e-16 -7.820446049249999786e-16 -1 2.27806614007299979 -4.556132280145999344e-16 7.517618262240903356e-16 1 I I #
truecolor-adesk-attrib $-1 -1 $578 $-1 $526 -1026765620 #
straight-curve $-1 -1 $-1 2.27806614007299979 9.703349235224000534e-16 4.370000000000000995 0.9982490258940001082 1.313423831921000047e-17 0.05915135080019000291 F 1.313423831920728407e-32 F 1.014347080638694498 #
color-adesk-attrib $-1 -1 $579 $527 $503 254 #
point $-1 -1 $-1 2.27806614007299979 1.970334923522000179e-15 4.370000000000000995 #
color-adesk-attrib $-1 -1 $580 $530 $504 254 #
DXID-attrib $-1 -1 $-1 $532 $481 @18 ASM_EDGE_FROM_STEP @4 1308 #
DXID-attrib $-1 -1 $-1 $534 $482 @18 ASM_EDGE_FROM_STEP @4 1282 #
DXID-attrib $-1 -1 $-1 $538 $496 @18 ASM_FACE_FROM_STEP @17 MyThumbStick-1524 #
color-adesk-attrib $-1 -1 $581 $539 $518 254 #
truecolor-adesk-attrib $-1 -1 $582 $-1 $540 -1026765620 #
face $583 -1 $-1 $-1 $584 $4 $-1 $585 forward single #
loop $-1 -1 $-1 $-1 $586 $540 #
cone-surface $-1 -1 $-1 -1.319999999999999953e-15 3.08151708155200037e-15 3.970000000000000195 -3.299999999999999882e-16 7.820446049249999786e-16 1 0.6335972279410000407 -4.435180595587000284e-16 2.090870852205303494e-16 1 I I 0 1 0.6335972279410000407 forward I I I I #
coedge $-1 -1 $-1 $587 $588 $589 $590 forward $541 $-1 #
coedge $-1 -1 $-1 $546 $543 $567 $591 forward $519 $-1 #
coedge $-1 -1 $-1 $543 $546 $566 $591 reversed $519 $-1 #
coedge $-1 -1 $-1 $588 $587 $543 $569 reversed $541 $-1 #
edge $592 -1 $-1 $593 5.672550826470955104e-16 $593 6.28318530717958712 $543 $594 forward @7 unknown #
edge $595 -1 $-1 $572 7.009014406411933892e-33 $550 0.6335972279403125906 $544 $596 forward @2 g2 #
truecolor-adesk-attrib $-1 -1 $597 $-1 $547 -1026765620 #
vertex $-1 -1 $-1 $547 $598 #
ellipse-curve $-1 -1 $-1 -1.350000000000000243e-15 3.149280649946000153e-15 4.050000000000000711 3.299999999999999882e-16 -7.820446049249999786e-16 -1 1.644784648749000322 -4.440918551622299802e-16 5.427789340871703044e-16 1 I I #
truecolor-adesk-attrib $-1 -1 $599 $-1 $548 -1026765620 #
straight-curve $-1 -1 $-1 2.27806614007299979 9.037215420448999695e-16 4.070000000000000284 0 2.220446049250000002e-16 1 F 2.220446049250221731e-31 F 0.3000000000000002665 #
color-adesk-attrib $-1 -1 $600 $549 $525 254 #
point $-1 -1 $-1 2.27806614007299979 1.903721542044999838e-15 4.070000000000000284 #
color-adesk-attrib $-1 -1 $601 $552 $526 254 #
DXID-attrib $-1 -1 $-1 $554 $503 @18 ASM_EDGE_FROM_STEP @4 1363 #
DXID-attrib $-1 -1 $-1 $556 $504 @18 ASM_EDGE_FROM_STEP @4 1337 #
DXID-attrib $-1 -1 $-1 $560 $518 @18 ASM_FACE_FROM_STEP @17 MyThumbStick-1579 #
color-adesk-attrib $-1 -1 $602 $561 $540 254 #
truecolor-adesk-attrib $-1 -1 $603 $-1 $562 -1026765620 #
loop $-1 -1 $-1 $-1 $604 $562 #
plane-surface $-1 -1 $-1 -1.319999999999999953e-15 3.08151708155200037e-15 3.970000000000000195 -3.299999999999999882e-16 7.820446049249999786e-16 1 -1 7.000000000000000347e-16 -3.300000000000005305e-16 forward_v I I I I #
coedge $-1 -1 $-1 $605 $606 $604 $607 forward $563 $-1 #
coedge $-1 -1 $-1 $568 $565 $588 $608 forward $541 $-1 #
coedge $-1 -1 $-1 $565 $568 $587 $608 reversed $541 $-1 #
coedge $-1 -1 $-1 $606 $605 $565 $590 reversed $563 $-1 #
edge $609 -1 $-1 $610 1.412256934822905614e-15 $610 6.283185307179588008 $565 $611 forward @7 unknown #
edge $612 -1 $-1 $593 -2.220446049250222169e-31 $572 0.2999999999999997113 $566 $613 forward @2 g2 #
truecolor-adesk-attrib $-1 -1 $614 $-1 $569 -1026765620 #
vertex $-1 -1 $-1 $569 $615 #
ellipse-curve $-1 -1 $-1 -1.450000000000000093e-15 3.37589403142399982e-15 4.349999999999999645 3.299999999999999882e-16 -7.820446049249999786e-16 -1 1.644784648749000322 -4.769875481372100225e-16 5.42778934087170403e-16 1 I I #
truecolor-adesk-attrib $-1 -1 $616 $-1 $570 -1026765620 #
straight-curve $-1 -1 $-1 1.644784648749000322 8.992806499464000297e-16 4.050000000000000711 0.9995016761399999616 7.00901440641299971e-18 0.03156579466895999969 F 7.009014406411933892e-33 F 0.6335972279403125906 #
color-adesk-attrib $-1 -1 $617 $571 $547 254 #
point $-1 -1 $-1 1.644784648749000322 1.899280649946000352e-15 4.050000000000000711 #
color-adesk-attrib $-1 -1 $618 $574 $548 254 #
DXID-attrib $-1 -1 $-1 $576 $525 @18 ASM_EDGE_FROM_STEP @4 1418 #
DXID-attrib $-1 -1 $-1 $578 $526 @18 ASM_EDGE_FROM_STEP @4 1392 #
DXID-attrib $-1 -1 $-1 $582 $540 @18 ASM_FACE_FROM_STEP @17 MyThumbStick-1634 #
color-adesk-attrib $-1 -1 $619 $583 $562 254 #
coedge $-1 -1 $-1 $604 $604 $586 $607 reversed $584 $-1 #
coedge $-1 -1 $-1 $589 $586 $606 $620 forward $563 $-1 #
coedge $-1 -1 $-1 $586 $589 $605 $620 reversed $563 $-1 #
edge $621 -1 $-1 $622 1.193947680136851815e-15 $622 6.28318530717958712 $586 $623 forward @7 unknown #
edge $624 -1 $-1 $610 1.75123177589649097e-32 $593 1.014347080639121712 $587 $625 forward @2 g2 #
truecolor-adesk-attrib $-1 -1 $626 $-1 $590 -1026765620 #
vertex $-1 -1 $-1 $590 $627 #
ellipse-curve $-1 -1 $-1 -1.420000000000000197e-15 3.318130463030000199e-15 4.269999999999999574 3.299999999999999882e-16 -7.820446049249999786e-16 -1 0.6335972279410000407 -4.75197920955750041e-16 2.09087085220530374e-16 1 I I #
truecolor-adesk-attrib $-1 -1 $628 $-1 $591 -1026765620 #
straight-curve $-1 -1 $-1 1.644784648749000322 9.658940314238999163e-16 4.349999999999999645 0 -2.220446049250000002e-16 -1 F -2.220446049250222169e-31 F 0.2999999999999997113 #
color-adesk-attrib $-1 -1 $629 $592 $569 254 #
point $-1 -1 $-1 1.644784648749000322 1.965894031424000179e-15 4.349999999999999645 #
color-adesk-attrib $-1 -1 $630 $595 $570 254 #
DXID-attrib $-1 -1 $-1 $597 $547 @18 ASM_EDGE_FROM_STEP @4 1473 #
DXID-attrib $-1 -1 $-1 $599 $548 @18 ASM_EDGE_FROM_STEP @4 1447 #
DXID-attrib $-1 -1 $-1 $603 $562 @18 ASM_FACE_FROM_STEP @17 MyThumbStick-1693 #
edge $631 -1 $-1 $622 2.220446049249111202e-31 $610 0.2999999999999997113 $605 $632 forward @2 g2 #
truecolor-adesk-attrib $-1 -1 $633 $-1 $607 -1026765620 #
vertex $-1 -1 $-1 $607 $634 #
ellipse-curve $-1 -1 $-1 -1.319999999999999953e-15 3.08151708155200037e-15 3.970000000000000195 3.299999999999999882e-16 -7.820446049249999786e-16 -1 0.6335972279410000407 -4.435180595587000284e-16 2.090870852205303494e-16 1 I I #
truecolor-adesk-attrib $-1 -1 $635 $-1 $608 -1026765620 #
straight-curve $-1 -1 $-1 0.6335972279410000407 9.481304630299001569e-16 4.269999999999999574 0.9968850308819999784 1.751231775895000043e-17 0.07886846773357999996 F 1.75123177589649097e-32 F 1.014347080639121712 #
color-adesk-attrib $-1 -1 $636 $609 $590 254 #
point $-1 -1 $-1 0.6335972279410000407 1.948130463030000026e-15 4.269999999999999574 #
color-adesk-attrib $-1 -1 $637 $612 $591 254 #
DXID-attrib $-1 -1 $-1 $614 $569 @18 ASM_EDGE_FROM_STEP @4 1528 #
DXID-attrib $-1 -1 $-1 $616 $570 @18 ASM_EDGE_FROM_STEP @4 1502 #
truecolor-adesk-attrib $-1 -1 $638 $-1 $620 -1026765620 #
straight-curve $-1 -1 $-1 0.6335972279410000407 8.815170815523999745e-16 3.970000000000000195 0 2.220446049250000002e-16 1 F 2.220446049249111202e-31 F 0.2999999999999997113 #
color-adesk-attrib $-1 -1 $639 $621 $607 254 #
point $-1 -1 $-1 0.6335972279410000407 1.881517081551999804e-15 3.970000000000000195 #
color-adesk-attrib $-1 -1 $640 $624 $608 254 #
DXID-attrib $-1 -1 $-1 $626 $590 @18 ASM_EDGE_FROM_STEP @4 1583 #
DXID-attrib $-1 -1 $-1 $628 $591 @18 ASM_EDGE_FROM_STEP @4 1557 #
color-adesk-attrib $-1 -1 $641 $631 $620 254 #
DXID-attrib $-1 -1 $-1 $633 $607 @18 ASM_EDGE_FROM_STEP @4 1638 #
DXID-attrib $-1 -1 $-1 $635 $608 @18 ASM_EDGE_FROM_STEP @4 1612 #
DXID-attrib $-1 -1 $-1 $638 $620 @18 ASM_EDGE_FROM_STEP @4 1671 #
