700 662 1 0         
5 ZWCAD 12 ACIS 28.0 NT 24 Sat May 11 14:25:37 2024 
1 9.9999999999999995e-07 1e-10 
body $1 -1 $-1 $2 $-1 $-1 #
DXID-attrib $-1 -1 $-1 $-1 $0 @18 ASM_BODY_FROM_STEP @83 5AD46C2E2498ADA1F704A3AE2BC77177CE11440D|:|B1D5781111D84F7B3FE45A0852E59758CD7A87E5 #
lump $-1 -1 $-1 $-1 $3 $0 #
shell $-1 -1 $-1 $-1 $-1 $4 $-1 $2 #
face $5 -1 $-1 $6 $7 $3 $-1 $8 forward single #
truecolor-adesk-attrib $-1 -1 $9 $-1 $4 -1056964608 #
face $10 -1 $-1 $11 $12 $3 $-1 $13 forward single #
loop $-1 -1 $-1 $-1 $14 $4 #
torus-surface $-1 -1 $-1 64.366078066416208 -3.1433461456204661 20 -1 0 0 6.4717302975584898 0.29999999999999999 0 -0.0039582750712209326 0.99999216599854457 forward_v I I I I #
DXID-attrib $-1 -1 $-1 $5 $4 @18 ASM_FACE_FROM_STEP @22 nm0-n-tr14x4-0-0-0-446 #
truecolor-adesk-attrib $-1 -1 $15 $-1 $6 -1056964608 #
face $16 -1 $-1 $17 $18 $3 $-1 $19 reversed single #
loop $-1 -1 $-1 $-1 $20 $6 #
torus-surface $-1 -1 $-1 64.366078066416208 -3.1433461456204661 20 -1 0 0 6.4717302975584898 0.29999999999999999 0 -0.0039582750712209326 0.99999216599854457 forward_v I I I I #
coedge $-1 -1 $-1 $21 $22 $23 $24 reversed $7 $-1 #
DXID-attrib $-1 -1 $-1 $10 $6 @18 ASM_FACE_FROM_STEP @22 nm0-n-tr14x4-0-0-0-447 #
truecolor-adesk-attrib $-1 -1 $25 $-1 $11 -1056964608 #
face $26 -1 $-1 $27 $28 $3 $-1 $29 reversed single #
loop $-1 -1 $-1 $-1 $30 $11 #
cone-surface $-1 -1 $-1 63.966078066416195 -3.1433461456204661 20 -1 0 0 0 -0.02177051289171511 5.4999569129919958 1 I I 0.78086880944303039 0.62469504755442418 5.5 forward I I I I #
coedge $-1 -1 $-1 $31 $32 $33 $34 reversed $12 $-1 #
coedge $-1 -1 $-1 $35 $14 $32 $36 reversed $7 $-1 #
coedge $-1 -1 $-1 $14 $35 $31 $37 forward $7 $-1 #
coedge $-1 -1 $-1 $38 $39 $14 $24 forward $40 $-1 #
edge $41 -1 $-1 $42 3.1376343681821623 $43 6.2792270217719555 $14 $44 forward @7 unknown #
DXID-attrib $-1 -1 $-1 $16 $11 @18 ASM_FACE_FROM_STEP @22 nm0-n-tr14x4-0-0-0-448 #
truecolor-adesk-attrib $-1 -1 $45 $-1 $17 -1056964608 #
face $46 -1 $-1 $47 $48 $3 $-1 $49 forward single #
loop $-1 -1 $-1 $-1 $50 $17 #
cone-surface $-1 -1 $-1 64.366078066416208 -3.1433461456204661 20 1 0 0 0 0.019791375356104663 -4.9999608299927232 1 I I 0.78086880944303039 0.62469504755442418 5.0000000000000009 forward I I I I #
coedge $-1 -1 $-1 $51 $52 $50 $53 reversed $18 $-1 #
coedge $-1 -1 $-1 $54 $20 $22 $37 reversed $12 $-1 #
coedge $-1 -1 $-1 $20 $54 $21 $36 forward $12 $-1 #
coedge $-1 -1 $-1 $55 $56 $20 $34 forward $57 $-1 #
edge $58 -1 $-1 $43 -0.0039582854076309461 $42 3.1376343681821623 $20 $59 forward @7 unknown #
coedge $-1 -1 $-1 $22 $21 $60 $61 forward $7 $-1 #
edge $62 -1 $-1 $63 1.5707963267948966 $42 3.1415926535897931 $21 $64 forward @7 unknown #
edge $65 -1 $-1 $66 1.5707963267948966 $43 3.1415926535897931 $22 $67 forward @7 unknown #
coedge $-1 -1 $-1 $68 $23 $56 $69 forward $40 $-1 #
coedge $-1 -1 $-1 $23 $68 $55 $70 reversed $40 $-1 #
loop $-1 -1 $-1 $-1 $23 $71 #
truecolor-adesk-attrib $-1 -1 $72 $-1 $24 -1056964608 #
vertex $-1 -1 $-1 $24 $73 #
vertex $-1 -1 $-1 $24 $74 #
ellipse-curve $-1 -1 $-1 64.366078066416208 -3.1433461456204661 20 -1 0 0 0 0 6.7717302975584905 1 F 3.1376343681821623 F 6.2792270217719555 #
DXID-attrib $-1 -1 $-1 $26 $17 @18 ASM_FACE_FROM_STEP @22 nm0-n-tr14x4-0-0-0-449 #
truecolor-adesk-attrib $-1 -1 $75 $-1 $27 -1056964608 #
face $76 -1 $-1 $77 $78 $3 $-1 $79 forward single #
loop $-1 -1 $-1 $-1 $80 $27 #
torus-surface $-1 -1 $-1 64.716078066416202 -3.1433461456204661 20 -1 0 0 6.42173029755849 0.0500000000000006 0 -0.0039582750712209326 0.99999216599854457 forward_v I I I I #
coedge $-1 -1 $-1 $81 $82 $30 $53 forward $28 $-1 #
coedge $-1 -1 $-1 $83 $30 $84 $85 forward $18 $-1 #
coedge $-1 -1 $-1 $30 $83 $86 $87 reversed $18 $-1 #
edge $88 -1 $-1 $89 -3.1415926535897931 $90 1.1362438767648084e-16 $30 $91 forward @7 unknown #
coedge $-1 -1 $-1 $32 $31 $92 $93 forward $12 $-1 #
coedge $-1 -1 $-1 $94 $33 $39 $70 forward $57 $-1 #
coedge $-1 -1 $-1 $33 $94 $38 $69 reversed $57 $-1 #
loop $-1 -1 $-1 $-1 $33 $77 #
truecolor-adesk-attrib $-1 -1 $95 $-1 $34 -1056964608 #
ellipse-curve $-1 -1 $-1 64.366078066416208 -3.1433461456204661 20 -1 0 0 0 0 6.7717302975584905 1 F -0.0039582854076309461 F 3.1376343681821623 #
coedge $-1 -1 $-1 $96 $97 $35 $61 reversed $98 $-1 #
edge $99 -1 $-1 $63 -3.1415926535897931 $66 -1.2943134286716593e-17 $35 $100 forward @7 unknown #
truecolor-adesk-attrib $-1 -1 $101 $-1 $36 -1056964608 #
vertex $-1 -1 $-1 $36 $102 #
ellipse-curve $-1 -1 $-1 64.366078066416208 -3.1177292569159745 13.5283204019861 0 0.99999216599854457 0.0039582750712210636 0 -0.0011874825213663187 0.29999764979956334 1 F 1.5707963267948966 F 3.1415926535897931 #
truecolor-adesk-attrib $-1 -1 $103 $-1 $37 -1056964608 #
vertex $-1 -1 $-1 $61 $104 #
ellipse-curve $-1 -1 $-1 64.366078066416208 -3.1689630343249573 26.4716795980139 0 -0.99999216599854457 -0.0039582750712209135 0 0.0011874825213662777 -0.29999764979956434 1 F 1.5707963267948966 F 3.1415926535897931 #
coedge $-1 -1 $-1 $39 $38 $105 $106 reversed $40 $-1 #
edge $107 -1 $-1 $43 -3.1415926535897931 $108 -1.5707963267948966 $56 $109 forward @7 unknown #
edge $110 -1 $-1 $42 -3.1415926535897931 $111 -1.5707963267948966 $55 $112 forward @7 unknown #
face $113 -1 $-1 $114 $40 $3 $-1 $115 forward single #
DXID-attrib $-1 -1 $-1 $41 $24 @18 ASM_EDGE_FROM_STEP @4 5024 #
point $-1 -1 $-1 64.366078066416208 -3.1165417743946082 13.2283227521865 #
point $-1 -1 $-1 64.366078066416208 -3.170150516846324 26.771677247813503 #
DXID-attrib $-1 -1 $-1 $46 $27 @18 ASM_FACE_FROM_STEP @22 nm0-n-tr14x4-0-0-0-450 #
truecolor-adesk-attrib $-1 -1 $116 $-1 $47 -1056964608 #
face $117 -1 $-1 $118 $57 $3 $-1 $119 forward single #
loop $-1 -1 $-1 $-1 $120 $47 #
cone-surface $-1 -1 $-1 61.266078066416199 -3.1433461456204661 20 1 0 0 0 -0.025616888704491039 6.4716795980139299 1 I I 0 1 6.4717302975585014 forward I I I I #
coedge $-1 -1 $-1 $121 $122 $123 $124 forward $48 $-1 #
coedge $-1 -1 $-1 $125 $50 $126 $127 forward $28 $-1 #
coedge $-1 -1 $-1 $50 $125 $128 $129 reversed $28 $-1 #
coedge $-1 -1 $-1 $52 $51 $130 $131 forward $18 $-1 #
coedge $-1 -1 $-1 $132 $133 $51 $85 reversed $134 $-1 #
edge $135 -1 $-1 $89 -0.00064031242374330854 $136 0 $51 $137 forward @7 unknown #
coedge $-1 -1 $-1 $133 $132 $52 $87 forward $134 $-1 #
edge $138 -1 $-1 $90 -0.00064031242374331027 $139 0 $52 $140 forward @7 unknown #
truecolor-adesk-attrib $-1 -1 $141 $-1 $53 -1056964608 #
vertex $-1 -1 $-1 $53 $142 #
vertex $-1 -1 $-1 $53 $143 #
ellipse-curve $-1 -1 $-1 64.366078066416208 -3.1433461456204661 20 -1 0 0 0 -0.019791375356104663 4.9999608299927232 1 F -3.1415926535897931 F 1.1362438767648084e-16 #
coedge $-1 -1 $-1 $144 $145 $54 $93 reversed $78 $-1 #
edge $146 -1 $-1 $66 -1.2943134286716593e-17 $63 3.1415926535897931 $54 $147 forward @7 unknown #
coedge $-1 -1 $-1 $56 $55 $148 $149 reversed $57 $-1 #
DXID-attrib $-1 -1 $-1 $58 $34 @18 ASM_EDGE_FROM_STEP @4 5028 #
coedge $-1 -1 $-1 $150 $60 $145 $151 reversed $98 $-1 #
coedge $-1 -1 $-1 $60 $150 $144 $152 forward $98 $-1 #
loop $-1 -1 $-1 $-1 $96 $114 #
truecolor-adesk-attrib $-1 -1 $153 $-1 $61 -1056964608 #
ellipse-curve $-1 -1 $-1 64.66607806641619 -3.1433461456204661 20 -1 0 0 0 -0.025616888704491039 6.4716795980139299 1 F -3.1415926535897931 F -1.2943134286716593e-17 #
DXID-attrib $-1 -1 $-1 $62 $36 @18 ASM_EDGE_FROM_STEP @4 5025 #
point $-1 -1 $-1 64.66607806641619 -3.1177292569159745 13.5283204019861 #
DXID-attrib $-1 -1 $-1 $65 $37 @18 ASM_EDGE_FROM_STEP @4 5027 #
point $-1 -1 $-1 64.66607806641619 -3.1689630343249573 26.4716795980139 #
coedge $-1 -1 $-1 $154 $155 $68 $106 forward $156 $-1 #
edge $157 -1 $-1 $111 -3.1415926535897931 $108 -1.2943134286716593e-17 $105 $158 forward @7 unknown #
truecolor-adesk-attrib $-1 -1 $159 $-1 $69 -1056964608 #
vertex $-1 -1 $-1 $149 $160 #
ellipse-curve $-1 -1 $-1 64.366078066416208 -3.1689630343249573 26.4716795980139 0 -0.99999216599854457 -0.0039582750712209135 0 0.0011874825213662777 -0.29999764979956434 1 F -3.1415926535897931 F -1.5707963267948966 #
truecolor-adesk-attrib $-1 -1 $161 $-1 $70 -1056964608 #
vertex $-1 -1 $-1 $70 $162 #
ellipse-curve $-1 -1 $-1 64.366078066416208 -3.1177292569159745 13.5283204019861 0 0.99999216599854457 0.0039582750712210636 0 -0.0011874825213663187 0.29999764979956334 1 F -3.1415926535897931 F -1.5707963267948966 #
truecolor-adesk-attrib $-1 -1 $163 $-1 $71 -1056964608 #
face $164 -1 $-1 $165 $98 $3 $-1 $166 forward single #
torus-surface $-1 -1 $-1 64.366078066416208 -3.1433461456204661 20 -1 0 0 6.4717302975584898 0.29999999999999999 0 -0.0039582750712209326 0.99999216599854457 forward_v I I I I #
DXID-attrib $-1 -1 $-1 $76 $47 @18 ASM_FACE_FROM_STEP @22 nm0-n-tr14x4-0-0-0-451 #
truecolor-adesk-attrib $-1 -1 $167 $-1 $77 -1056964608 #
face $168 -1 $-1 $169 $170 $3 $-1 $171 forward single #
torus-surface $-1 -1 $-1 64.366078066416208 -3.1433461456204661 20 -1 0 0 6.4717302975584898 0.29999999999999999 0 -0.0039582750712209326 0.99999216599854457 forward_v I I I I #
coedge $-1 -1 $-1 $145 $144 $172 $173 forward $78 $-1 #
coedge $-1 -1 $-1 $172 $80 $174 $175 forward $48 $-1 #
coedge $-1 -1 $-1 $80 $172 $176 $177 reversed $48 $-1 #
coedge $-1 -1 $-1 $178 $178 $80 $124 reversed $179 $-1 #
edge $180 -1 $-1 $181 1.6300384123022111e-17 $182 3.1415926535897931 $80 $183 forward @7 unknown #
coedge $-1 -1 $-1 $82 $81 $184 $185 reversed $28 $-1 #
coedge $-1 -1 $-1 $186 $187 $81 $127 reversed $188 $-1 #
edge $189 -1 $-1 $90 0 $190 0.00064031242374330475 $81 $191 forward @7 unknown #
coedge $-1 -1 $-1 $187 $186 $82 $129 forward $188 $-1 #
edge $192 -1 $-1 $89 0 $193 0.00064031242374330301 $82 $194 forward @7 unknown #
coedge $-1 -1 $-1 $195 $196 $83 $131 reversed $197 $-1 #
edge $198 -1 $-1 $136 -3.1415926535897931 $139 5.7346230610803511e-18 $83 $199 forward @7 unknown #
coedge $-1 -1 $-1 $86 $84 $186 $200 reversed $134 $-1 #
coedge $-1 -1 $-1 $84 $86 $201 $202 forward $134 $-1 #
loop $-1 -1 $-1 $-1 $84 $203 #
truecolor-adesk-attrib $-1 -1 $204 $-1 $85 -1056964608 #
vertex $-1 -1 $-1 $85 $205 #
straight-curve $-1 -1 $-1 63.966078066416195 -3.1215756327287503 14.500043087008001 -624.69504755442392 3.09089354231241 -780.86269211564104 F -0.00064031242374330854 F 0 #
truecolor-adesk-attrib $-1 -1 $206 $-1 $87 -1056964608 #
vertex $-1 -1 $-1 $131 $207 #
straight-curve $-1 -1 $-1 63.966078066416195 -3.165116658512181 25.499956912992001 -624.69504755442392 -3.0908935423123101 780.86269211564104 F -0.00064031242374331027 F 0 #
DXID-attrib $-1 -1 $-1 $88 $53 @18 ASM_EDGE_FROM_STEP @4 5030 #
point $-1 -1 $-1 64.366078066416208 -3.1235547702643616 15.0000391700073 #
point $-1 -1 $-1 64.366078066416208 -3.1631375209765702 24.999960829992702 #
coedge $-1 -1 $-1 $120 $92 $97 $152 reversed $78 $-1 #
coedge $-1 -1 $-1 $92 $120 $96 $151 forward $78 $-1 #
truecolor-adesk-attrib $-1 -1 $208 $-1 $93 -1056964608 #
ellipse-curve $-1 -1 $-1 64.66607806641619 -3.1433461456204661 20 -1 0 0 0 -0.025616888704491039 6.4716795980139299 1 F -1.2943134286716593e-17 F 3.1415926535897931 #
coedge $-1 -1 $-1 $209 $210 $94 $149 forward $170 $-1 #
edge $211 -1 $-1 $108 -1.2943134286716593e-17 $111 3.1415926535897931 $94 $212 forward @7 unknown #
coedge $-1 -1 $-1 $97 $96 $213 $214 forward $98 $-1 #
edge $215 -1 $-1 $216 -0.0034500000000000021 $63 -0.0034000000000000028 $145 $217 forward @7 unknown #
edge $218 -1 $-1 $219 -0.0034500000000000021 $66 -0.0034000000000000028 $144 $220 forward @7 unknown #
DXID-attrib $-1 -1 $-1 $99 $61 @18 ASM_EDGE_FROM_STEP @4 5026 #
coedge $-1 -1 $-1 $221 $105 $210 $222 forward $156 $-1 #
coedge $-1 -1 $-1 $105 $221 $209 $223 reversed $156 $-1 #
loop $-1 -1 $-1 $-1 $155 $224 #
truecolor-adesk-attrib $-1 -1 $225 $-1 $106 -1056964608 #
ellipse-curve $-1 -1 $-1 64.066078066416196 -3.1433461456204661 20 -1 0 0 0 -0.025616888704491039 6.4716795980139299 1 F -3.1415926535897931 F -1.2943134286716593e-17 #
DXID-attrib $-1 -1 $-1 $107 $69 @18 ASM_EDGE_FROM_STEP @4 5045 #
point $-1 -1 $-1 64.066078066416196 -3.1689630343249573 26.4716795980139 #
DXID-attrib $-1 -1 $-1 $110 $70 @18 ASM_EDGE_FROM_STEP @4 5043 #
point $-1 -1 $-1 64.066078066416196 -3.1177292569159745 13.5283204019861 #
DXID-attrib $-1 -1 $-1 $113 $71 @18 ASM_FACE_FROM_STEP @22 nm0-n-tr14x4-0-0-0-474 #
truecolor-adesk-attrib $-1 -1 $226 $-1 $114 -1056964608 #
face $227 -1 $-1 $228 $229 $3 $-1 $230 forward single #
cone-surface $-1 -1 $-1 61.266078066416199 -3.1433461456204661 20 1 0 0 0 -0.025616888704491039 6.4716795980139299 1 I I 0 1 6.4717302975585014 forward I I I I #
DXID-attrib $-1 -1 $-1 $117 $77 @18 ASM_FACE_FROM_STEP @22 nm0-n-tr14x4-0-0-0-452 #
truecolor-adesk-attrib $-1 -1 $231 $-1 $118 -1056964608 #
face $232 -1 $-1 $233 $234 $3 $-1 $235 reversed single #
loop $-1 -1 $-1 $-1 $148 $118 #
cone-surface $-1 -1 $-1 64.066078066416196 -3.1433461456204661 20 -1 0 0 0 -0.025616888704491039 6.4716795980139299 1 I I 0.17364817766692645 0.9848077530122088 6.4717302975585014 forward I I I I #
coedge $-1 -1 $-1 $122 $121 $120 $173 reversed $48 $-1 #
edge $236 -1 $-1 $219 -1.2943134286716593e-17 $216 3.1415926535897931 $172 $237 forward @7 unknown #
coedge $-1 -1 $-1 $238 $213 $121 $175 reversed $229 $-1 #
edge $239 -1 $-1 $182 1.5707963267948966 $216 3.1415926535897931 $121 $240 forward @7 unknown #
coedge $-1 -1 $-1 $213 $238 $122 $177 forward $229 $-1 #
edge $241 -1 $-1 $181 1.5707963267948966 $219 3.1415926535897931 $122 $242 forward @7 unknown #
coedge $-1 -1 $-1 $123 $123 $238 $243 reversed $179 $-1 #
loop $-1 -1 $-1 $244 $123 $228 #
truecolor-adesk-attrib $-1 -1 $245 $-1 $124 -1056964608 #
vertex $-1 -1 $-1 $124 $246 #
vertex $-1 -1 $-1 $124 $247 #
ellipse-curve $-1 -1 $-1 64.766078066416199 -3.1433461456204661 20 -1 0 0 0 -0.02541897495092996 6.4216799897139945 1 F 1.6300384123022111e-17 F 3.1415926535897931 #
coedge $-1 -1 $-1 $248 $248 $125 $185 forward $244 $-1 #
edge $249 -1 $-1 $193 -3.1415926535897931 $190 1.3332998617011816e-16 $125 $250 forward @7 unknown #
coedge $-1 -1 $-1 $128 $126 $132 $200 forward $188 $-1 #
coedge $-1 -1 $-1 $126 $128 $248 $251 reversed $188 $-1 #
loop $-1 -1 $-1 $-1 $126 $252 #
truecolor-adesk-attrib $-1 -1 $253 $-1 $127 -1056964608 #
vertex $-1 -1 $-1 $127 $254 #
straight-curve $-1 -1 $-1 64.366078066416208 -3.1631375209765702 24.999960829992702 624.69504755442392 -3.0908935423122204 780.86269211564104 F 0 F 0.00064031242374330475 #
truecolor-adesk-attrib $-1 -1 $255 $-1 $129 -1056964608 #
vertex $-1 -1 $-1 $185 $256 #
straight-curve $-1 -1 $-1 64.366078066416208 -3.1235547702643616 15.0000391700073 624.69504755442392 3.0908935423123101 -780.86269211564104 F 0 F 0.00064031242374330301 #
coedge $-1 -1 $-1 $257 $130 $258 $259 forward $197 $-1 #
coedge $-1 -1 $-1 $130 $257 $260 $261 reversed $197 $-1 #
loop $-1 -1 $-1 $-1 $130 $262 #
truecolor-adesk-attrib $-1 -1 $263 $-1 $131 -1056964608 #
ellipse-curve $-1 -1 $-1 63.966078066416195 -3.1433461456204661 20 -1 0 0 0 -0.02177051289171511 5.4999569129919958 1 F -3.1415926535897931 F 5.7346230610803511e-18 #
edge $264 -1 $-1 $90 1.1362438767648084e-16 $89 3.1415926535897931 $186 $265 forward @7 unknown #
coedge $-1 -1 $-1 $260 $258 $133 $202 reversed $266 $-1 #
edge $267 -1 $-1 $139 5.7346230610803511e-18 $136 3.1415926535897931 $201 $268 forward @7 unknown #
face $269 -1 $-1 $-1 $134 $3 $-1 $270 reversed single #
DXID-attrib $-1 -1 $-1 $135 $85 @18 ASM_EDGE_FROM_STEP @4 5031 #
point $-1 -1 $-1 63.966078066416195 -3.1215756327287503 14.500043087008001 #
DXID-attrib $-1 -1 $-1 $138 $87 @18 ASM_EDGE_FROM_STEP @4 5033 #
point $-1 -1 $-1 63.966078066416195 -3.165116658512181 25.499956912992001 #
DXID-attrib $-1 -1 $-1 $146 $93 @18 ASM_EDGE_FROM_STEP @4 5029 #
coedge $-1 -1 $-1 $271 $148 $155 $223 forward $170 $-1 #
coedge $-1 -1 $-1 $148 $271 $154 $222 reversed $170 $-1 #
truecolor-adesk-attrib $-1 -1 $272 $-1 $149 -1056964608 #
ellipse-curve $-1 -1 $-1 64.066078066416196 -3.1433461456204661 20 -1 0 0 0 -0.025616888704491039 6.4716795980139299 1 F -1.2943134286716593e-17 F 3.1415926535897931 #
coedge $-1 -1 $-1 $174 $176 $150 $214 reversed $229 $-1 #
edge $273 -1 $-1 $216 -3.1415926535897931 $219 -1.2943134286716593e-17 $150 $274 forward @7 unknown #
truecolor-adesk-attrib $-1 -1 $275 $-1 $151 -1056964608 #
vertex $-1 -1 $-1 $175 $276 #
straight-curve $-1 -1 $-1 61.266078066416199 -3.1177292569159745 13.5283204019861 -1000 0 0 F -0.0034500000000000021 F -0.0034000000000000028 #
truecolor-adesk-attrib $-1 -1 $277 $-1 $152 -1056964608 #
vertex $-1 -1 $-1 $173 $278 #
straight-curve $-1 -1 $-1 61.266078066416199 -3.1689630343249573 26.4716795980139 -1000 0 0 F -0.0034500000000000021 F -0.0034000000000000028 #
coedge $-1 -1 $-1 $155 $154 $279 $280 reversed $156 $-1 #
edge $281 -1 $-1 $108 0 $282 0.0016599479751588976 $210 $283 forward @7 unknown #
edge $284 -1 $-1 $111 0 $285 0.0016599479751588974 $209 $286 forward @7 unknown #
face $287 -1 $-1 $71 $156 $3 $-1 $288 forward single #
DXID-attrib $-1 -1 $-1 $157 $106 @18 ASM_EDGE_FROM_STEP @4 5087 #
DXID-attrib $-1 -1 $-1 $164 $114 @18 ASM_FACE_FROM_STEP @22 nm0-n-tr14x4-0-0-0-475 #
truecolor-adesk-attrib $-1 -1 $289 $-1 $165 -1056964608 #
face $290 -1 $-1 $252 $179 $3 $-1 $291 reversed single #
loop $-1 -1 $-1 $-1 $174 $165 #
torus-surface $-1 -1 $-1 64.716078066416202 -3.1433461456204661 20 -1 0 0 6.42173029755849 0.0500000000000006 0 -0.0039582750712209326 0.99999216599854457 forward_v I I I I #
DXID-attrib $-1 -1 $-1 $168 $118 @18 ASM_FACE_FROM_STEP @22 nm0-n-tr14x4-0-0-0-453 #
truecolor-adesk-attrib $-1 -1 $292 $-1 $169 -1056964608 #
face $293 -1 $-1 $294 $295 $3 $-1 $296 reversed single #
loop $-1 -1 $-1 $-1 $297 $169 #
torus-surface $-1 -1 $-1 62.466078066416195 -3.1433461456204661 20 -1 0 0 6.9569387890691807 0.20000000000000101 0 -0.0039582750712209326 0.99999216599854457 forward_v I I I I #
truecolor-adesk-attrib $-1 -1 $298 $-1 $173 -1056964608 #
ellipse-curve $-1 -1 $-1 64.716078066416202 -3.1433461456204661 20 -1 0 0 0 -0.025616888704491039 6.4716795980139299 1 F -1.2943134286716593e-17 F 3.1415926535897931 #
coedge $-1 -1 $-1 $176 $174 $178 $243 forward $229 $-1 #
truecolor-adesk-attrib $-1 -1 $299 $-1 $175 -1056964608 #
ellipse-curve $-1 -1 $-1 64.716078066416202 -3.1179271706695353 13.578320010285999 0 0.99999216599854457 0.0039582750712210324 0 -0.00019791375356105478 0.049999608299928028 1 F 1.5707963267948966 F 3.1415926535897931 #
truecolor-adesk-attrib $-1 -1 $300 $-1 $177 -1056964608 #
ellipse-curve $-1 -1 $-1 64.716078066416202 -3.168765120571396 26.421679989714004 0 -0.99999216599854457 -0.0039582750712210324 0 0.00019791375356104806 -0.049999608299926335 1 F 1.5707963267948966 F 3.1415926535897931 #
edge $301 -1 $-1 $182 -3.1415926535897931 $181 1.6300384123022111e-17 $238 $302 forward @7 unknown #
loop $-1 -1 $-1 $-1 $184 $228 #
DXID-attrib $-1 -1 $-1 $180 $124 @18 ASM_EDGE_FROM_STEP @4 5037 #
point $-1 -1 $-1 64.766078066416199 -3.168765120571396 26.421679989714004 #
point $-1 -1 $-1 64.766078066416199 -3.1179271706695353 13.578320010285999 #
coedge $-1 -1 $-1 $184 $184 $187 $251 forward $244 $-1 #
truecolor-adesk-attrib $-1 -1 $303 $-1 $185 -1056964608 #
ellipse-curve $-1 -1 $-1 64.766078066416199 -3.1433461456204661 20 -1 0 0 0 -0.02177051289171511 5.4999569129919958 1 F -3.1415926535897931 F 1.3332998617011816e-16 #
edge $304 -1 $-1 $190 1.3332998617011816e-16 $193 3.1415926535897931 $248 $305 forward @7 unknown #
face $306 -1 $-1 $203 $188 $3 $-1 $307 reversed single #
DXID-attrib $-1 -1 $-1 $189 $127 @18 ASM_EDGE_FROM_STEP @4 5034 #
point $-1 -1 $-1 64.766078066416199 -3.1651166585121806 25.499956912992001 #
DXID-attrib $-1 -1 $-1 $192 $129 @18 ASM_EDGE_FROM_STEP @4 5036 #
point $-1 -1 $-1 64.766078066416199 -3.1215756327287512 14.500043087008001 #
coedge $-1 -1 $-1 $196 $195 $308 $309 forward $197 $-1 #
coedge $-1 -1 $-1 $201 $310 $195 $259 reversed $266 $-1 #
edge $311 -1 $-1 $136 -0.0027336558396276068 $312 0 $195 $313 forward @7 unknown #
coedge $-1 -1 $-1 $310 $201 $196 $261 forward $266 $-1 #
edge $314 -1 $-1 $139 -0.0027336558396276068 $315 0 $196 $316 forward @7 unknown #
face $317 -1 $-1 $318 $197 $3 $-1 $319 reversed single #
DXID-attrib $-1 -1 $-1 $198 $131 @18 ASM_EDGE_FROM_STEP @4 5032 #
truecolor-adesk-attrib $-1 -1 $320 $-1 $200 -1056964608 #
ellipse-curve $-1 -1 $-1 64.366078066416208 -3.1433461456204661 20 -1 0 0 0 -0.019791375356104663 4.9999608299927232 1 F 1.1362438767648084e-16 F 3.1415926535897931 #
loop $-1 -1 $-1 $-1 $258 $318 #
truecolor-adesk-attrib $-1 -1 $321 $-1 $202 -1056964608 #
ellipse-curve $-1 -1 $-1 63.966078066416195 -3.1433461456204661 20 -1 0 0 0 -0.02177051289171511 5.4999569129919958 1 F 5.7346230610803511e-18 F 3.1415926535897931 #
truecolor-adesk-attrib $-1 -1 $322 $-1 $203 -1056964608 #
cone-surface $-1 -1 $-1 63.966078066416195 -3.1433461456204661 20 -1 0 0 0 -0.02177051289171511 5.4999569129919958 1 I I 0.78086880944303039 0.62469504755442418 5.5 forward I I I I #
coedge $-1 -1 $-1 $210 $209 $323 $324 reversed $170 $-1 #
DXID-attrib $-1 -1 $-1 $211 $149 @18 ASM_EDGE_FROM_STEP @4 5044 #
truecolor-adesk-attrib $-1 -1 $325 $-1 $214 -1056964608 #
ellipse-curve $-1 -1 $-1 64.716078066416202 -3.1433461456204661 20 -1 0 0 0 -0.025616888704491039 6.4716795980139299 1 F -3.1415926535897931 F -1.2943134286716593e-17 #
DXID-attrib $-1 -1 $-1 $215 $151 @18 ASM_EDGE_FROM_STEP @4 5041 #
point $-1 -1 $-1 64.716078066416202 -3.1177292569159745 13.5283204019861 #
DXID-attrib $-1 -1 $-1 $218 $152 @18 ASM_EDGE_FROM_STEP @4 5042 #
point $-1 -1 $-1 64.716078066416202 -3.1689630343249573 26.4716795980139 #
coedge $-1 -1 $-1 $326 $327 $221 $280 forward $234 $-1 #
edge $328 -1 $-1 $285 -3.1415926535897931 $282 -5.2196632694503755e-18 $279 $329 forward @7 unknown #
truecolor-adesk-attrib $-1 -1 $330 $-1 $222 -1056964608 #
vertex $-1 -1 $-1 $324 $331 #
straight-curve $-1 -1 $-1 64.066078066416196 -3.1689630343249573 26.4716795980139 -984.80775301220899 -0.68734725282193909 173.64681730685004 F 0 F 0.0016599479751588976 #
truecolor-adesk-attrib $-1 -1 $332 $-1 $223 -1056964608 #
vertex $-1 -1 $-1 $223 $333 #
straight-curve $-1 -1 $-1 64.066078066416196 -3.1177292569159745 13.5283204019861 -984.80775301220899 0.68734725282196096 -173.64681730685004 F 0 F 0.0016599479751588974 #
truecolor-adesk-attrib $-1 -1 $334 $-1 $224 -1056964608 #
cone-surface $-1 -1 $-1 64.066078066416196 -3.1433461456204661 20 -1 0 0 0 -0.025616888704491039 6.4716795980139299 1 I I 0.17364817766692645 0.9848077530122088 6.4717302975585014 forward I I I I #
DXID-attrib $-1 -1 $-1 $227 $165 @18 ASM_FACE_FROM_STEP @22 nm0-n-tr14x4-0-0-0-476 #
truecolor-adesk-attrib $-1 -1 $335 $-1 $228 -1056964608 #
plane-surface $-1 -1 $-1 64.766078066416199 2.3566107673715342 20.021770512891699 -1 0 0 0 0 1 forward_v I I I I #
DXID-attrib $-1 -1 $-1 $232 $169 @18 ASM_FACE_FROM_STEP @22 nm0-n-tr14x4-0-0-0-454 #
truecolor-adesk-attrib $-1 -1 $336 $-1 $233 -1056964608 #
face $337 -1 $-1 $338 $339 $3 $-1 $340 reversed single #
loop $-1 -1 $-1 $-1 $341 $233 #
torus-surface $-1 -1 $-1 62.446078066416199 -3.1433461456204661 20 -1 0 0 9.8200000000000003 0.17999999999999999 0 -0.0039582750712209326 0.99999216599854457 forward_v I I I I #
coedge $-1 -1 $-1 $327 $326 $342 $343 reversed $234 $-1 #
DXID-attrib $-1 -1 $-1 $236 $173 @18 ASM_EDGE_FROM_STEP @4 5039 #
DXID-attrib $-1 -1 $-1 $239 $175 @18 ASM_EDGE_FROM_STEP @4 5038 #
DXID-attrib $-1 -1 $-1 $241 $177 @18 ASM_EDGE_FROM_STEP @4 5040 #
truecolor-adesk-attrib $-1 -1 $344 $-1 $243 -1056964608 #
ellipse-curve $-1 -1 $-1 64.766078066416199 -3.1433461456204661 20 -1 0 0 0 -0.02541897495092996 6.4216799897139945 1 F -3.1415926535897931 F 1.6300384123022111e-17 #
DXID-attrib $-1 -1 $-1 $249 $185 @18 ASM_EDGE_FROM_STEP @4 5035 #
truecolor-adesk-attrib $-1 -1 $345 $-1 $251 -1056964608 #
ellipse-curve $-1 -1 $-1 64.766078066416199 -3.1433461456204661 20 -1 0 0 0 -0.02177051289171511 5.4999569129919958 1 F 1.3332998617011816e-16 F 3.1415926535897931 #
truecolor-adesk-attrib $-1 -1 $346 $-1 $252 -1056964608 #
cone-surface $-1 -1 $-1 64.366078066416208 -3.1433461456204661 20 1 0 0 0 0.019791375356104663 -4.9999608299927232 1 I I 0.78086880944303039 0.62469504755442418 5.0000000000000009 forward I I I I #
coedge $-1 -1 $-1 $347 $347 $257 $309 reversed $348 $-1 #
edge $349 -1 $-1 $312 -3.1415926535897931 $315 -1.8513911279828248e-18 $257 $350 forward @7 unknown #
coedge $-1 -1 $-1 $258 $260 $347 $351 forward $266 $-1 #
truecolor-adesk-attrib $-1 -1 $352 $-1 $259 -1056964608 #
vertex $-1 -1 $-1 $259 $353 #
straight-curve $-1 -1 $-1 61.266078066416199 -3.1198829239378743 14.072408448248401 -987.68834059513711 0.61921064324855601 -156.43323953240605 F -0.0027336558396276068 F 0 #
truecolor-adesk-attrib $-1 -1 $354 $-1 $261 -1056964608 #
vertex $-1 -1 $-1 $309 $355 #
straight-curve $-1 -1 $-1 61.266078066416199 -3.1668093673030571 25.927591551751604 -987.68834059513711 -0.61921064324853692 156.43323953240605 F -0.0027336558396276068 F 0 #
truecolor-adesk-attrib $-1 -1 $356 $-1 $262 -1056964608 #
face $357 -1 $-1 $358 $266 $3 $-1 $359 reversed single #
cone-surface $-1 -1 $-1 61.266078066416199 -3.1433461456204661 20 -1 0 0 0 -0.023463221682591087 5.9275915517516289 1 I I 0.15643446504023317 0.98768834059513733 5.9276379888762607 forward I I I I #
DXID-attrib $-1 -1 $-1 $264 $200 @18 ASM_EDGE_FROM_STEP @4 5091 #
DXID-attrib $-1 -1 $-1 $267 $202 @18 ASM_EDGE_FROM_STEP @4 5077 #
DXID-attrib $-1 -1 $-1 $269 $203 @18 ASM_FACE_FROM_STEP @22 nm0-n-tr14x4-0-0-0-479 #
coedge $-1 -1 $-1 $360 $361 $271 $324 forward $362 $-1 #
edge $363 -1 $-1 $282 -5.2196632694503755e-18 $285 3.1415926535897931 $271 $364 forward @7 unknown #
DXID-attrib $-1 -1 $-1 $273 $214 @18 ASM_EDGE_FROM_STEP @4 5088 #
coedge $-1 -1 $-1 $297 $279 $361 $365 reversed $234 $-1 #
coedge $-1 -1 $-1 $279 $297 $360 $366 forward $234 $-1 #
truecolor-adesk-attrib $-1 -1 $367 $-1 $280 -1056964608 #
ellipse-curve $-1 -1 $-1 62.4313484308828 -3.1433461456204661 20 -1 0 0 0 -0.02675784938504382 6.7599242807952153 1 F -3.1415926535897931 F -5.2196632694503755e-18 #
DXID-attrib $-1 -1 $-1 $281 $222 @18 ASM_EDGE_FROM_STEP @4 5048 #
point $-1 -1 $-1 62.4313484308828 -3.1701039950055101 26.759924280795204 #
DXID-attrib $-1 -1 $-1 $284 $223 @18 ASM_EDGE_FROM_STEP @4 5046 #
point $-1 -1 $-1 62.4313484308828 -3.1165882962354217 13.2400757192048 #
DXID-attrib $-1 -1 $-1 $287 $224 @18 ASM_FACE_FROM_STEP @22 nm0-n-tr14x4-0-0-0-473 #
DXID-attrib $-1 -1 $-1 $290 $228 @18 ASM_FACE_FROM_STEP @22 nm0-n-tr14x4-0-0-0-477 #
DXID-attrib $-1 -1 $-1 $293 $233 @18 ASM_FACE_FROM_STEP @22 nm0-n-tr14x4-0-0-0-455 #
truecolor-adesk-attrib $-1 -1 $368 $-1 $294 -1056964608 #
face $369 -1 $-1 $370 $371 $3 $-1 $372 forward single #
loop $-1 -1 $-1 $-1 $373 $294 #
cone-surface $-1 -1 $-1 61.266078066416199 -3.1433461456204661 20 1 0 0 0 -0.039582750712209326 9.9999216599854464 1 I I 0 1 10.000000000000002 forward I I I I #
coedge $-1 -1 $-1 $374 $375 $376 $377 reversed $295 $-1 #
coedge $-1 -1 $-1 $378 $378 $297 $343 forward $379 $-1 #
edge $380 -1 $-1 $381 -3.1415926535897931 $382 2.3745415537397665e-17 $297 $383 forward @7 unknown #
DXID-attrib $-1 -1 $-1 $301 $243 @18 ASM_EDGE_FROM_STEP @4 5089 #
DXID-attrib $-1 -1 $-1 $304 $251 @18 ASM_EDGE_FROM_STEP @4 5090 #
DXID-attrib $-1 -1 $-1 $306 $252 @18 ASM_FACE_FROM_STEP @22 nm0-n-tr14x4-0-0-0-478 #
coedge $-1 -1 $-1 $308 $308 $310 $351 reversed $348 $-1 #
loop $-1 -1 $-1 $-1 $347 $358 #
truecolor-adesk-attrib $-1 -1 $384 $-1 $309 -1056964608 #
ellipse-curve $-1 -1 $-1 61.266078066416199 -3.1433461456204661 20 -1 0 0 0 -0.023463221682591087 5.9275915517516289 1 F -3.1415926535897931 F -1.8513911279828248e-18 #
edge $385 -1 $-1 $315 -1.8513911279828248e-18 $312 3.1415926535897931 $310 $386 forward @7 unknown #
DXID-attrib $-1 -1 $-1 $311 $259 @18 ASM_EDGE_FROM_STEP @4 5074 #
point $-1 -1 $-1 61.266078066416199 -3.1198829239378743 14.072408448248401 #
DXID-attrib $-1 -1 $-1 $314 $261 @18 ASM_EDGE_FROM_STEP @4 5076 #
point $-1 -1 $-1 61.266078066416199 -3.1668093673030571 25.927591551751604 #
DXID-attrib $-1 -1 $-1 $317 $262 @18 ASM_FACE_FROM_STEP @22 nm0-n-tr14x4-0-0-0-461 #
truecolor-adesk-attrib $-1 -1 $387 $-1 $318 -1056964608 #
face $388 -1 $-1 $389 $390 $3 $-1 $391 reversed single #
cone-surface $-1 -1 $-1 61.266078066416199 -3.1433461456204661 20 -1 0 0 0 -0.023463221682591087 5.9275915517516289 1 I I 0.15643446504023317 0.98768834059513733 5.9276379888762607 forward I I I I #
coedge $-1 -1 $-1 $392 $323 $327 $366 reversed $362 $-1 #
coedge $-1 -1 $-1 $323 $392 $326 $365 forward $362 $-1 #
loop $-1 -1 $-1 $-1 $360 $393 #
truecolor-adesk-attrib $-1 -1 $394 $-1 $324 -1056964608 #
ellipse-curve $-1 -1 $-1 62.4313484308828 -3.1433461456204661 20 -1 0 0 0 -0.02675784938504382 6.7599242807952153 1 F -5.2196632694503755e-18 F 3.1415926535897931 #
edge $395 -1 $-1 $382 -1.5707963267948966 $282 -0.17453292519946187 $326 $396 forward @7 unknown #
edge $397 -1 $-1 $381 -1.5707963267948966 $285 -0.17453292519946573 $327 $398 forward @7 unknown #
DXID-attrib $-1 -1 $-1 $328 $280 @18 ASM_EDGE_FROM_STEP @4 5051 #
DXID-attrib $-1 -1 $-1 $337 $294 @18 ASM_FACE_FROM_STEP @22 nm0-n-tr14x4-0-0-0-456 #
truecolor-adesk-attrib $-1 -1 $399 $-1 $338 -1056964608 #
face $400 -1 $-1 $401 $402 $3 $-1 $403 forward single #
loop $-1 -1 $-1 $-1 $404 $338 #
torus-surface $-1 -1 $-1 65.116078066416193 -3.1433461456204661 20 -1 0 0 10.150000000000002 0.15000000000000099 0 -0.0039582750712209326 0.99999216599854457 forward_v I I I I #
coedge $-1 -1 $-1 $405 $406 $407 $408 reversed $339 $-1 #
coedge $-1 -1 $-1 $409 $341 $410 $411 forward $295 $-1 #
coedge $-1 -1 $-1 $341 $409 $412 $413 reversed $295 $-1 #
coedge $-1 -1 $-1 $406 $405 $341 $377 forward $339 $-1 #
edge $414 -1 $-1 $415 -3.1415926535897931 $416 -1.6479873021779664e-17 $341 $417 forward @7 unknown #
coedge $-1 -1 $-1 $342 $342 $392 $418 forward $379 $-1 #
loop $-1 -1 $-1 $-1 $378 $419 #
truecolor-adesk-attrib $-1 -1 $420 $-1 $343 -1056964608 #
vertex $-1 -1 $-1 $343 $421 #
vertex $-1 -1 $-1 $343 $422 #
ellipse-curve $-1 -1 $-1 62.266078066416199 -3.1433461456204661 20 -1 0 0 0 -0.027537477380782483 6.956884288400583 1 F -3.1415926535897931 F 2.3745415537397665e-17 #
DXID-attrib $-1 -1 $-1 $349 $309 @18 ASM_EDGE_FROM_STEP @4 5075 #
truecolor-adesk-attrib $-1 -1 $423 $-1 $351 -1056964608 #
ellipse-curve $-1 -1 $-1 61.266078066416199 -3.1433461456204661 20 -1 0 0 0 -0.023463221682591087 5.9275915517516289 1 F -1.8513911279828248e-18 F 3.1415926535897931 #
DXID-attrib $-1 -1 $-1 $357 $318 @18 ASM_FACE_FROM_STEP @22 nm0-n-tr14x4-0-0-0-462 #
truecolor-adesk-attrib $-1 -1 $424 $-1 $358 -1056964608 #
face $425 -1 $-1 $426 $427 $3 $-1 $428 forward single #
loop $-1 -1 $-1 $348 $429 $358 #
plane-surface $-1 -1 $-1 61.266078066416199 7.6765690904838344 20.042828536270601 1 0 0 0 1 0 forward_v I I I I #
coedge $-1 -1 $-1 $361 $360 $378 $418 reversed $362 $-1 #
face $430 -1 $-1 $224 $362 $3 $-1 $431 reversed single #
DXID-attrib $-1 -1 $-1 $363 $324 @18 ASM_EDGE_FROM_STEP @4 5047 #
truecolor-adesk-attrib $-1 -1 $432 $-1 $365 -1056964608 #
ellipse-curve $-1 -1 $-1 62.466078066416195 -3.1708836230012487 26.956884288400605 0 -0.99999216599854457 -0.0039582750712209031 0 0.00079165501424419236 -0.19999843319971189 1 F -1.5707963267948966 F -0.17453292519946187 #
truecolor-adesk-attrib $-1 -1 $433 $-1 $366 -1056964608 #
ellipse-curve $-1 -1 $-1 62.466078066416195 -3.1158086682396826 13.0431157115994 0 0.99999216599854457 0.0039582750712210523 0 -0.00079165501424421447 0.19999843319970995 1 F -1.5707963267948966 F -0.17453292519946573 #
DXID-attrib $-1 -1 $-1 $369 $338 @18 ASM_FACE_FROM_STEP @22 nm0-n-tr14x4-0-0-0-457 #
truecolor-adesk-attrib $-1 -1 $434 $-1 $370 -1056964608 #
face $435 -1 $-1 $436 $437 $3 $-1 $438 forward single #
loop $-1 -1 $-1 $-1 $439 $370 #
torus-surface $-1 -1 $-1 65.116078066416193 -3.1433461456204661 20 -1 0 0 10.85 0.15000000000000099 0 -0.0039582750712209326 0.99999216599854457 forward_v I I I I #
coedge $-1 -1 $-1 $440 $441 $442 $443 forward $371 $-1 #
coedge $-1 -1 $-1 $376 $373 $444 $445 forward $339 $-1 #
coedge $-1 -1 $-1 $373 $376 $446 $447 reversed $339 $-1 #
coedge $-1 -1 $-1 $448 $449 $373 $408 forward $450 $-1 #
edge $451 -1 $-1 $452 -3.1415926535897931 $453 -1.6479873021779664e-17 $373 $454 forward @7 unknown #
coedge $-1 -1 $-1 $375 $374 $455 $456 forward $295 $-1 #
coedge $-1 -1 $-1 $457 $458 $374 $411 reversed $459 $-1 #
edge $460 -1 $-1 $415 -3.1415926535897931 $461 -1.5707963267948966 $374 $462 forward @7 unknown #
coedge $-1 -1 $-1 $458 $457 $375 $413 forward $459 $-1 #
edge $463 -1 $-1 $416 -3.1415926535897931 $464 -1.5707963267948966 $375 $465 forward @7 unknown #
truecolor-adesk-attrib $-1 -1 $466 $-1 $377 -1056964608 #
vertex $-1 -1 $-1 $377 $467 #
vertex $-1 -1 $-1 $377 $468 #
ellipse-curve $-1 -1 $-1 62.446078066416199 -3.1433461456204661 20 -1 0 0 0 -0.039582750712209326 9.9999216599854464 1 F -3.1415926535897931 F -1.6479873021779664e-17 #
edge $469 -1 $-1 $382 2.3745415537397665e-17 $381 3.1415926535897931 $378 $470 forward @7 unknown #
face $471 -1 $-1 $393 $472 $3 $-1 $473 reversed single #
DXID-attrib $-1 -1 $-1 $380 $343 @18 ASM_EDGE_FROM_STEP @4 5049 #
point $-1 -1 $-1 62.266078066416199 -3.1158086682396826 13.0431157115994 #
point $-1 -1 $-1 62.266078066416199 -3.1708836230012487 26.956884288400605 #
DXID-attrib $-1 -1 $-1 $385 $351 @18 ASM_EDGE_FROM_STEP @4 5078 #
DXID-attrib $-1 -1 $-1 $388 $358 @18 ASM_FACE_FROM_STEP @22 nm0-n-tr14x4-0-0-0-463 #
truecolor-adesk-attrib $-1 -1 $474 $-1 $389 -1056964608 #
face $475 -1 $-1 $476 $477 $3 $-1 $478 forward single #
loop $-1 -1 $-1 $-1 $479 $389 #
torus-surface $-1 -1 $-1 61.446078066416199 -3.1433461456204661 20 -1 0 0 10.82 0.17999999999999799 0 -0.0039582750712209326 0.99999216599854457 forward_v I I I I #
coedge $-1 -1 $-1 $480 $480 $481 $482 forward $390 $-1 #
truecolor-adesk-attrib $-1 -1 $483 $-1 $393 -1056964608 #
torus-surface $-1 -1 $-1 62.466078066416195 -3.1433461456204661 20 -1 0 0 6.9569387890691807 0.20000000000000101 0 -0.0039582750712209326 0.99999216599854457 forward_v I I I I #
DXID-attrib $-1 -1 $-1 $395 $365 @18 ASM_EDGE_FROM_STEP @4 5052 #
DXID-attrib $-1 -1 $-1 $397 $366 @18 ASM_EDGE_FROM_STEP @4 5050 #
DXID-attrib $-1 -1 $-1 $400 $370 @18 ASM_FACE_FROM_STEP @22 nm0-n-tr14x4-0-0-0-458 #
truecolor-adesk-attrib $-1 -1 $484 $-1 $401 -1056964608 #
face $485 -1 $-1 $262 $486 $3 $-1 $487 forward single #
loop $-1 -1 $-1 $-1 $488 $401 #
cone-surface $-1 -1 $-1 61.266078066416199 -3.1433461456204661 20 1 0 0 0 -0.043541025783430144 10.999913825983992 1 I I 0 1 11 forward I I I I #
coedge $-1 -1 $-1 $489 $490 $491 $492 forward $402 $-1 #
coedge $-1 -1 $-1 $493 $404 $449 $494 forward $371 $-1 #
coedge $-1 -1 $-1 $404 $493 $448 $495 reversed $371 $-1 #
coedge $-1 -1 $-1 $446 $444 $404 $443 reversed $496 $-1 #
edge $497 -1 $-1 $453 -1.6479873021779664e-17 $452 3.1415926535897931 $404 $498 forward @7 unknown #
coedge $-1 -1 $-1 $442 $499 $405 $445 reversed $496 $-1 #
edge $500 -1 $-1 $452 -0.0038500000000000023 $415 -0.0011800000000000033 $405 $501 forward @7 unknown #
coedge $-1 -1 $-1 $499 $442 $406 $447 forward $496 $-1 #
edge $502 -1 $-1 $453 -0.0038500000000000023 $416 -0.0011800000000000033 $406 $503 forward @7 unknown #
coedge $-1 -1 $-1 $504 $407 $441 $495 forward $450 $-1 #
coedge $-1 -1 $-1 $407 $504 $440 $494 reversed $450 $-1 #
loop $-1 -1 $-1 $-1 $449 $505 #
truecolor-adesk-attrib $-1 -1 $506 $-1 $408 -1056964608 #
vertex $-1 -1 $-1 $408 $507 #
vertex $-1 -1 $-1 $408 $508 #
ellipse-curve $-1 -1 $-1 65.116078066416193 -3.1433461456204661 20 -1 0 0 0 -0.039582750712209326 9.9999216599854464 1 F -3.1415926535897931 F -1.6479873021779664e-17 #
coedge $-1 -1 $-1 $509 $509 $409 $456 reversed $472 $-1 #
edge $510 -1 $-1 $461 -3.1415926535897931 $464 1.7989010705704793e-18 $409 $511 forward @7 unknown #
coedge $-1 -1 $-1 $412 $410 $499 $512 reversed $459 $-1 #
coedge $-1 -1 $-1 $410 $412 $509 $513 forward $459 $-1 #
loop $-1 -1 $-1 $-1 $410 $514 #
truecolor-adesk-attrib $-1 -1 $515 $-1 $411 -1056964608 #
vertex $-1 -1 $-1 $411 $516 #
ellipse-curve $-1 -1 $-1 62.446078066416199 -3.1044758844210754 10.1800769298943 0 0.99999216599854457 0.0039582750712210532 0 -0.00071248951281978963 0.17999858987973805 1 F -3.1415926535897931 F -1.5707963267948966 #
truecolor-adesk-attrib $-1 -1 $517 $-1 $413 -1056964608 #
vertex $-1 -1 $-1 $456 $518 #
ellipse-curve $-1 -1 $-1 62.446078066416199 -3.1822164068198555 29.819923070105698 0 -0.99999216599854457 -0.0039582750712209023 0 0.00071248951281976632 -0.17999858987973902 1 F -3.1415926535897931 F -1.5707963267948966 #
DXID-attrib $-1 -1 $-1 $414 $377 @18 ASM_EDGE_FROM_STEP @4 5053 #
point $-1 -1 $-1 62.446078066416199 -3.1037633949082557 10.0000783400146 #
point $-1 -1 $-1 62.446078066416199 -3.1829288963326756 29.9999216599854 #
truecolor-adesk-attrib $-1 -1 $519 $-1 $418 -1056964608 #
ellipse-curve $-1 -1 $-1 62.266078066416199 -3.1433461456204661 20 -1 0 0 0 -0.027537477380782483 6.956884288400583 1 F 2.3745415537397665e-17 F 3.1415926535897931 #
truecolor-adesk-attrib $-1 -1 $520 $-1 $419 -1056964608 #
loop $-1 -1 $-1 $379 $509 $419 #
plane-surface $-1 -1 $-1 62.266078066416199 3.8135381427801152 20.0275374773808 -1 0 0 0 0 1 forward_v I I I I #
DXID-attrib $-1 -1 $-1 $425 $389 @18 ASM_FACE_FROM_STEP @22 nm0-n-tr14x4-0-0-0-464 #
truecolor-adesk-attrib $-1 -1 $521 $-1 $426 -1056964608 #
face $522 -1 $-1 $523 $524 $3 $-1 $525 forward single #
loop $-1 -1 $-1 $-1 $526 $426 #
cone-surface $-1 -1 $-1 61.266078066416199 -3.1433461456204661 20 1 0 0 0 -0.043541025783430144 10.999913825983992 1 I I 0 1 11 forward I I I I #
coedge $-1 -1 $-1 $527 $528 $529 $530 reversed $427 $-1 #
coedge $-1 -1 $-1 $429 $429 $528 $531 forward $390 $-1 #
coedge $-1 -1 $-1 $532 $529 $429 $482 reversed $486 $-1 #
edge $533 -1 $-1 $534 2.1485414497066505e-17 $535 3.1415926535897931 $481 $536 forward @7 unknown #
DXID-attrib $-1 -1 $-1 $430 $393 @18 ASM_FACE_FROM_STEP @22 nm0-n-tr14x4-0-0-0-472 #
DXID-attrib $-1 -1 $-1 $435 $401 @18 ASM_FACE_FROM_STEP @22 nm0-n-tr14x4-0-0-0-459 #
truecolor-adesk-attrib $-1 -1 $537 $-1 $436 -1056964608 #
loop $-1 -1 $-1 $-1 $538 $436 #
torus-surface $-1 -1 $-1 61.446078066416199 -3.1433461456204661 20 -1 0 0 10.82 0.17999999999999799 0 -0.0039582750712209326 0.99999216599854457 forward_v I I I I #
coedge $-1 -1 $-1 $539 $540 $541 $542 forward $437 $-1 #
coedge $-1 -1 $-1 $541 $439 $543 $544 forward $402 $-1 #
coedge $-1 -1 $-1 $439 $541 $545 $546 reversed $402 $-1 #
coedge $-1 -1 $-1 $547 $547 $439 $492 reversed $548 $-1 #
edge $549 -1 $-1 $550 8.1046351528997792e-18 $551 3.1415926535897931 $439 $552 forward @7 unknown #
coedge $-1 -1 $-1 $441 $440 $553 $554 reversed $371 $-1 #
edge $555 -1 $-1 $452 0 $556 1.5707963267948966 $440 $557 forward @7 unknown #
edge $558 -1 $-1 $453 0 $559 1.5707963267948966 $441 $560 forward @7 unknown #
loop $-1 -1 $-1 $-1 $444 $561 #
truecolor-adesk-attrib $-1 -1 $562 $-1 $443 -1056964608 #
ellipse-curve $-1 -1 $-1 65.116078066416193 -3.1433461456204661 20 -1 0 0 0 -0.039582750712209326 9.9999216599854464 1 F -1.6479873021779664e-17 F 3.1415926535897931 #
coedge $-1 -1 $-1 $444 $446 $457 $512 forward $496 $-1 #
truecolor-adesk-attrib $-1 -1 $563 $-1 $445 -1056964608 #
straight-curve $-1 -1 $-1 61.266078066416199 -3.1037633949082557 10.0000783400146 -1000 0 0 F -0.0038500000000000023 F -0.0011800000000000033 #
truecolor-adesk-attrib $-1 -1 $564 $-1 $447 -1056964608 #
straight-curve $-1 -1 $-1 61.266078066416199 -3.1829288963326756 29.9999216599854 -1000 0 0 F -0.0038500000000000023 F -0.0011800000000000033 #
coedge $-1 -1 $-1 $449 $448 $565 $566 reversed $450 $-1 #
face $567 -1 $-1 $561 $450 $3 $-1 $568 forward single #
DXID-attrib $-1 -1 $-1 $451 $408 @18 ASM_EDGE_FROM_STEP @4 5057 #
point $-1 -1 $-1 65.116078066416193 -3.1037633949082557 10.0000783400146 #
point $-1 -1 $-1 65.116078066416193 -3.1829288963326756 29.9999216599854 #
coedge $-1 -1 $-1 $455 $455 $458 $513 reversed $472 $-1 #
truecolor-adesk-attrib $-1 -1 $569 $-1 $456 -1056964608 #
ellipse-curve $-1 -1 $-1 62.266078066416199 -3.1433461456204661 20 -1 0 0 0 -0.03887026119938955 9.8199230701057072 1 F -3.1415926535897931 F 1.7989010705704793e-18 #
edge $570 -1 $-1 $416 -1.6479873021779664e-17 $415 3.1415926535897931 $499 $571 forward @7 unknown #
edge $572 -1 $-1 $464 1.7989010705704793e-18 $461 3.1415926535897931 $458 $573 forward @7 unknown #
face $574 -1 $-1 $419 $459 $3 $-1 $575 reversed single #
DXID-attrib $-1 -1 $-1 $460 $411 @18 ASM_EDGE_FROM_STEP @4 5054 #
point $-1 -1 $-1 62.266078066416199 -3.1044758844210754 10.1800769298943 #
DXID-attrib $-1 -1 $-1 $463 $413 @18 ASM_EDGE_FROM_STEP @4 5056 #
point $-1 -1 $-1 62.266078066416199 -3.1822164068198555 29.819923070105698 #
DXID-attrib $-1 -1 $-1 $469 $418 @18 ASM_EDGE_FROM_STEP @4 5086 #
DXID-attrib $-1 -1 $-1 $471 $419 @18 ASM_FACE_FROM_STEP @22 nm0-n-tr14x4-0-0-0-471 #
DXID-attrib $-1 -1 $-1 $475 $426 @18 ASM_FACE_FROM_STEP @22 nm0-n-tr14x4-0-0-0-465 #
truecolor-adesk-attrib $-1 -1 $576 $-1 $476 -1056964608 #
face $577 -1 $-1 $505 $548 $3 $-1 $578 reversed single #
loop $-1 -1 $-1 $-1 $543 $476 #
torus-surface $-1 -1 $-1 65.116078066416193 -3.1433461456204661 20 -1 0 0 10.85 0.15000000000000099 0 -0.0039582750712209326 0.99999216599854457 forward_v I I I I #
coedge $-1 -1 $-1 $579 $580 $539 $581 reversed $477 $-1 #
coedge $-1 -1 $-1 $582 $479 $580 $583 forward $427 $-1 #
coedge $-1 -1 $-1 $479 $582 $480 $531 reversed $427 $-1 #
coedge $-1 -1 $-1 $481 $538 $479 $530 forward $486 $-1 #
edge $584 -1 $-1 $585 -3.1415926535897931 $535 -1.5707963267948966 $529 $586 forward @7 unknown #
edge $587 -1 $-1 $535 -3.1415926535897931 $534 2.1485414497066505e-17 $480 $588 forward @7 unknown #
coedge $-1 -1 $-1 $538 $481 $582 $589 reversed $486 $-1 #
truecolor-adesk-attrib $-1 -1 $590 $-1 $482 -1056964608 #
vertex $-1 -1 $-1 $482 $591 #
vertex $-1 -1 $-1 $530 $592 #
ellipse-curve $-1 -1 $-1 61.266078066416199 -3.1433461456204661 20 -1 0 0 0 -0.042828536270610437 10.819915236104254 1 F 2.1485414497066505e-17 F 3.1415926535897931 #
DXID-attrib $-1 -1 $-1 $485 $436 @18 ASM_FACE_FROM_STEP @22 nm0-n-tr14x4-0-0-0-460 #
coedge $-1 -1 $-1 $529 $532 $593 $594 forward $486 $-1 #
coedge $-1 -1 $-1 $593 $488 $526 $581 forward $437 $-1 #
coedge $-1 -1 $-1 $488 $593 $595 $596 reversed $437 $-1 #
coedge $-1 -1 $-1 $490 $489 $488 $542 reversed $402 $-1 #
edge $597 -1 $-1 $598 -7.1682788263504389e-19 $599 3.1415926535897931 $541 $600 forward @7 unknown #
coedge $-1 -1 $-1 $601 $602 $489 $544 reversed $524 $-1 #
edge $603 -1 $-1 $551 1.5707963267948966 $599 3.1415926535897931 $489 $604 forward @7 unknown #
coedge $-1 -1 $-1 $602 $601 $490 $546 forward $524 $-1 #
edge $605 -1 $-1 $550 1.5707963267948966 $598 3.1415926535897931 $490 $606 forward @7 unknown #
coedge $-1 -1 $-1 $491 $491 $601 $607 reversed $548 $-1 #
loop $-1 -1 $-1 $608 $491 $523 #
truecolor-adesk-attrib $-1 -1 $609 $-1 $492 -1056964608 #
vertex $-1 -1 $-1 $492 $610 #
vertex $-1 -1 $-1 $492 $611 #
ellipse-curve $-1 -1 $-1 65.266078066416199 -3.1433461456204661 20 -1 0 0 0 -0.042947284522747119 10.849915001084208 1 F 8.1046351528997792e-18 F 3.1415926535897931 #
coedge $-1 -1 $-1 $565 $565 $493 $554 forward $608 $-1 #
edge $612 -1 $-1 $559 -1.6838297226108922e-18 $556 3.1415926535897931 $493 $613 forward @7 unknown #
truecolor-adesk-attrib $-1 -1 $614 $-1 $494 -1056964608 #
vertex $-1 -1 $-1 $494 $615 #
ellipse-curve $-1 -1 $-1 65.116078066416193 -3.1031696536475724 9.8500795151147695 0 0.99999216599854457 0.0039582750712210332 0 -0.00059374126068315882 0.14999882489978267 1 F 0 F 1.5707963267948966 #
truecolor-adesk-attrib $-1 -1 $616 $-1 $495 -1056964608 #
vertex $-1 -1 $-1 $554 $617 #
ellipse-curve $-1 -1 $-1 65.116078066416193 -3.1835226375933585 30.1499204848852 0 -0.99999216599854457 -0.0039582750712209439 0 0.00059374126068314538 -0.14999882489978267 1 F 0 F 1.5707963267948966 #
face $618 -1 $-1 $514 $496 $3 $-1 $619 reversed single #
DXID-attrib $-1 -1 $-1 $497 $443 @18 ASM_EDGE_FROM_STEP @4 5060 #
DXID-attrib $-1 -1 $-1 $500 $445 @18 ASM_EDGE_FROM_STEP @4 5058 #
DXID-attrib $-1 -1 $-1 $502 $447 @18 ASM_EDGE_FROM_STEP @4 5059 #
coedge $-1 -1 $-1 $553 $553 $504 $566 forward $608 $-1 #
edge $620 -1 $-1 $556 -3.1415926535897931 $559 -1.6838297226108922e-18 $565 $621 forward @7 unknown #
truecolor-adesk-attrib $-1 -1 $622 $-1 $505 -1056964608 #
torus-surface $-1 -1 $-1 65.116078066416193 -3.1433461456204661 20 -1 0 0 10.150000000000002 0.15000000000000099 0 -0.0039582750712209326 0.99999216599854457 forward_v I I I I #
DXID-attrib $-1 -1 $-1 $510 $456 @18 ASM_EDGE_FROM_STEP @4 5055 #
truecolor-adesk-attrib $-1 -1 $623 $-1 $512 -1056964608 #
ellipse-curve $-1 -1 $-1 62.446078066416199 -3.1433461456204661 20 -1 0 0 0 -0.039582750712209326 9.9999216599854464 1 F -1.6479873021779664e-17 F 3.1415926535897931 #
truecolor-adesk-attrib $-1 -1 $624 $-1 $513 -1056964608 #
ellipse-curve $-1 -1 $-1 62.266078066416199 -3.1433461456204661 20 -1 0 0 0 -0.03887026119938955 9.8199230701057072 1 F 1.7989010705704793e-18 F 3.1415926535897931 #
truecolor-adesk-attrib $-1 -1 $625 $-1 $514 -1056964608 #
torus-surface $-1 -1 $-1 62.446078066416199 -3.1433461456204661 20 -1 0 0 9.8200000000000003 0.17999999999999999 0 -0.0039582750712209326 0.99999216599854457 forward_v I I I I #
DXID-attrib $-1 -1 $-1 $522 $476 @18 ASM_FACE_FROM_STEP @22 nm0-n-tr14x4-0-0-0-466 #
truecolor-adesk-attrib $-1 -1 $626 $-1 $523 -1056964608 #
plane-surface $-1 -1 $-1 65.266078066416199 7.0065743392647342 20.040176491972904 -1 0 0 0 0 1 forward_v I I I I #
coedge $-1 -1 $-1 $595 $526 $602 $627 forward $477 $-1 #
coedge $-1 -1 $-1 $526 $595 $527 $583 reversed $477 $-1 #
edge $628 -1 $-1 $599 -0.0038500000000000023 $585 -0.00018000000000000237 $539 $629 forward @7 unknown #
coedge $-1 -1 $-1 $528 $527 $532 $589 forward $427 $-1 #
edge $630 -1 $-1 $585 -3.1415926535897931 $631 5.7346230610803511e-18 $527 $632 forward @7 unknown #
truecolor-adesk-attrib $-1 -1 $633 $-1 $530 -1056964608 #
vertex $-1 -1 $-1 $581 $634 #
ellipse-curve $-1 -1 $-1 61.446078066416199 -3.1005176093498545 9.1800847638957492 0 0.99999216599854457 0.0039582750712210523 0 -0.00071248951281978139 0.17999858987973602 1 F -3.1415926535897931 F -1.5707963267948966 #
truecolor-adesk-attrib $-1 -1 $635 $-1 $531 -1056964608 #
ellipse-curve $-1 -1 $-1 61.266078066416199 -3.1433461456204661 20 -1 0 0 0 -0.042828536270610437 10.819915236104254 1 F -3.1415926535897931 F 2.1485414497066505e-17 #
edge $636 -1 $-1 $631 -3.1415926535897931 $534 -1.5707963267948966 $532 $637 forward @7 unknown #
DXID-attrib $-1 -1 $-1 $533 $482 @18 ASM_EDGE_FROM_STEP @4 5072 #
point $-1 -1 $-1 61.266078066416199 -3.1861746818910763 30.819915236104301 #
point $-1 -1 $-1 61.266078066416199 -3.1005176093498545 9.1800847638957492 #
coedge $-1 -1 $-1 $540 $539 $538 $594 reversed $437 $-1 #
edge $638 -1 $-1 $631 5.7346230610803511e-18 $585 3.1415926535897931 $593 $639 forward @7 unknown #
coedge $-1 -1 $-1 $580 $579 $540 $596 forward $477 $-1 #
edge $640 -1 $-1 $598 -0.0038500000000000023 $631 -0.00018000000000000237 $540 $641 forward @7 unknown #
truecolor-adesk-attrib $-1 -1 $642 $-1 $542 -1056964608 #
vertex $-1 -1 $-1 $542 $643 #
vertex $-1 -1 $-1 $544 $644 #
ellipse-curve $-1 -1 $-1 65.116078066416193 -3.1433461456204661 20 -1 0 0 0 -0.043541025783430144 10.999913825983992 1 F -7.1682788263504389e-19 F 3.1415926535897931 #
coedge $-1 -1 $-1 $545 $543 $547 $607 forward $524 $-1 #
coedge $-1 -1 $-1 $543 $545 $579 $627 reversed $524 $-1 #
truecolor-adesk-attrib $-1 -1 $645 $-1 $544 -1056964608 #
ellipse-curve $-1 -1 $-1 65.116078066416193 -3.1003988610977178 9.1500849989157906 0 0.99999216599854457 0.0039582750712210332 0 -0.00059374126068315882 0.14999882489978267 1 F 1.5707963267948966 F 3.1415926535897931 #
truecolor-adesk-attrib $-1 -1 $646 $-1 $546 -1056964608 #
ellipse-curve $-1 -1 $-1 65.116078066416193 -3.1862934301432131 30.849915001084199 0 -0.99999216599854457 -0.0039582750712209439 0 0.00059374126068314538 -0.14999882489978267 1 F 1.5707963267948966 F 3.1415926535897931 #
edge $647 -1 $-1 $551 -3.1415926535897931 $550 8.1046351528997792e-18 $601 $648 forward @7 unknown #
loop $-1 -1 $-1 $-1 $553 $523 #
DXID-attrib $-1 -1 $-1 $549 $492 @18 ASM_EDGE_FROM_STEP @4 5064 #
point $-1 -1 $-1 65.266078066416199 -3.1862934301432131 30.849915001084199 #
point $-1 -1 $-1 65.266078066416199 -3.1003988610977178 9.1500849989157906 #
truecolor-adesk-attrib $-1 -1 $649 $-1 $554 -1056964608 #
ellipse-curve $-1 -1 $-1 65.266078066416199 -3.1433461456204661 20 -1 0 0 0 -0.04017649197289247 10.149920484885227 1 F -1.6838297226108922e-18 F 3.1415926535897931 #
DXID-attrib $-1 -1 $-1 $555 $494 @18 ASM_EDGE_FROM_STEP @4 5061 #
point $-1 -1 $-1 65.266078066416199 -3.1031696536475724 9.8500795151147695 #
DXID-attrib $-1 -1 $-1 $558 $495 @18 ASM_EDGE_FROM_STEP @4 5063 #
point $-1 -1 $-1 65.266078066416199 -3.1835226375933585 30.1499204848852 #
truecolor-adesk-attrib $-1 -1 $650 $-1 $561 -1056964608 #
cone-surface $-1 -1 $-1 61.266078066416199 -3.1433461456204661 20 1 0 0 0 -0.039582750712209326 9.9999216599854464 1 I I 0 1 10.000000000000002 forward I I I I #
truecolor-adesk-attrib $-1 -1 $651 $-1 $566 -1056964608 #
ellipse-curve $-1 -1 $-1 65.266078066416199 -3.1433461456204661 20 -1 0 0 0 -0.04017649197289247 10.149920484885227 1 F -3.1415926535897931 F -1.6838297226108922e-18 #
DXID-attrib $-1 -1 $-1 $567 $505 @18 ASM_FACE_FROM_STEP @22 nm0-n-tr14x4-0-0-0-468 #
DXID-attrib $-1 -1 $-1 $570 $512 @18 ASM_EDGE_FROM_STEP @4 5084 #
DXID-attrib $-1 -1 $-1 $572 $513 @18 ASM_EDGE_FROM_STEP @4 5085 #
DXID-attrib $-1 -1 $-1 $574 $514 @18 ASM_FACE_FROM_STEP @22 nm0-n-tr14x4-0-0-0-470 #
DXID-attrib $-1 -1 $-1 $577 $523 @18 ASM_FACE_FROM_STEP @22 nm0-n-tr14x4-0-0-0-467 #
edge $652 -1 $-1 $599 -3.1415926535897931 $598 -7.1682788263504389e-19 $579 $653 forward @7 unknown #
truecolor-adesk-attrib $-1 -1 $654 $-1 $581 -1056964608 #
straight-curve $-1 -1 $-1 61.266078066416199 -3.0998051198370344 9.0000861740160119 -1000 0 0 F -0.0038500000000000023 F -0.00018000000000000237 #
truecolor-adesk-attrib $-1 -1 $655 $-1 $583 -1056964608 #
vertex $-1 -1 $-1 $594 $656 #
ellipse-curve $-1 -1 $-1 61.446078066416199 -3.1433461456204661 20 -1 0 0 0 -0.043541025783430221 10.999913825983992 1 F -3.1415926535897931 F 5.7346230610803511e-18 #
DXID-attrib $-1 -1 $-1 $584 $530 @18 ASM_EDGE_FROM_STEP @4 5071 #
point $-1 -1 $-1 61.446078066416199 -3.0998051198370344 9.0000861740160119 #
DXID-attrib $-1 -1 $-1 $587 $531 @18 ASM_EDGE_FROM_STEP @4 5079 #
truecolor-adesk-attrib $-1 -1 $657 $-1 $589 -1056964608 #
ellipse-curve $-1 -1 $-1 61.446078066416199 -3.1861746818910763 30.819915236104301 0 -0.99999216599854457 -0.0039582750712209439 0 0.00071248951281976188 -0.17999858987973602 1 F -3.1415926535897931 F -1.5707963267948966 #
truecolor-adesk-attrib $-1 -1 $658 $-1 $594 -1056964608 #
ellipse-curve $-1 -1 $-1 61.446078066416199 -3.1433461456204661 20 -1 0 0 0 -0.043541025783430221 10.999913825983992 1 F 5.7346230610803511e-18 F 3.1415926535897931 #
truecolor-adesk-attrib $-1 -1 $659 $-1 $596 -1056964608 #
straight-curve $-1 -1 $-1 61.266078066416199 -3.1868871714038964 30.999913825984002 -1000 0 0 F -0.0038500000000000023 F -0.00018000000000000237 #
DXID-attrib $-1 -1 $-1 $597 $542 @18 ASM_EDGE_FROM_STEP @4 5066 #
point $-1 -1 $-1 65.116078066416193 -3.1868871714038964 30.999913825984002 #
point $-1 -1 $-1 65.116078066416193 -3.0998051198370344 9.0000861740160119 #
DXID-attrib $-1 -1 $-1 $603 $544 @18 ASM_EDGE_FROM_STEP @4 5065 #
DXID-attrib $-1 -1 $-1 $605 $546 @18 ASM_EDGE_FROM_STEP @4 5067 #
truecolor-adesk-attrib $-1 -1 $660 $-1 $607 -1056964608 #
ellipse-curve $-1 -1 $-1 65.266078066416199 -3.1433461456204661 20 -1 0 0 0 -0.042947284522747119 10.849915001084208 1 F -3.1415926535897931 F 8.1046351528997792e-18 #
DXID-attrib $-1 -1 $-1 $612 $554 @18 ASM_EDGE_FROM_STEP @4 5062 #
DXID-attrib $-1 -1 $-1 $618 $561 @18 ASM_FACE_FROM_STEP @22 nm0-n-tr14x4-0-0-0-469 #
DXID-attrib $-1 -1 $-1 $620 $566 @18 ASM_EDGE_FROM_STEP @4 5083 #
truecolor-adesk-attrib $-1 -1 $661 $-1 $627 -1056964608 #
ellipse-curve $-1 -1 $-1 65.116078066416193 -3.1433461456204661 20 -1 0 0 0 -0.043541025783430144 10.999913825983992 1 F -3.1415926535897931 F -7.1682788263504389e-19 #
DXID-attrib $-1 -1 $-1 $628 $581 @18 ASM_EDGE_FROM_STEP @4 5068 #
DXID-attrib $-1 -1 $-1 $630 $583 @18 ASM_EDGE_FROM_STEP @4 5080 #
point $-1 -1 $-1 61.446078066416199 -3.1868871714038964 30.999913825984002 #
DXID-attrib $-1 -1 $-1 $636 $589 @18 ASM_EDGE_FROM_STEP @4 5073 #
DXID-attrib $-1 -1 $-1 $638 $594 @18 ASM_EDGE_FROM_STEP @4 5069 #
DXID-attrib $-1 -1 $-1 $640 $596 @18 ASM_EDGE_FROM_STEP @4 5070 #
DXID-attrib $-1 -1 $-1 $647 $607 @18 ASM_EDGE_FROM_STEP @4 5082 #
DXID-attrib $-1 -1 $-1 $652 $627 @18 ASM_EDGE_FROM_STEP @4 5081 #
