700 312 1 0         
5 ZWCAD 12 ACIS 28.0 NT 24 Sat May 11 14:25:10 2024 
1 9.9999999999999995e-07 1e-10 
body $1 -1 $-1 $2 $-1 $-1 #
DXID-attrib $-1 -1 $-1 $-1 $0 @18 ASM_BODY_FROM_STEP @83 5AD46C2E2498ADA1F704A3AE2BC77177CE11440D|:|1B6453892473A467D07372D45EB05ABC2031647A #
lump $-1 -1 $-1 $-1 $3 $0 #
shell $-1 -1 $-1 $-1 $-1 $4 $-1 $2 #
face $5 -1 $-1 $6 $7 $3 $-1 $8 forward single #
truecolor-adesk-attrib $-1 -1 $9 $-1 $4 -1056964608 #
face $10 -1 $-1 $11 $12 $3 $-1 $13 forward single #
loop $-1 -1 $-1 $-1 $14 $4 #
cone-surface $-1 -1 $-1 -46.032985652397855 30.830812127803174 36 0 0 -1 3.853793305059968 1.5980804616398292 0 1 I I 0.86602540378443982 0.499999999999998 4.1720000000000006 forward I I I I #
DXID-attrib $-1 -1 $-1 $5 $4 @18 ASM_FACE_FROM_STEP @22 nm0-n-tr14x4-0-0-0-333 #
truecolor-adesk-attrib $-1 -1 $15 $-1 $6 -1056964608 #
face $16 -1 $-1 $17 $18 $3 $-1 $19 forward single #
loop $-1 -1 $-1 $-1 $20 $6 #
cone-surface $-1 -1 $-1 -46.032985652397855 30.830812127803174 48.70000000000001 0 0 -1 -4.6186401067353415 -1.91524504031619 0 1 I I 0 1 5.0000000000000009 forward I I I I #
coedge $-1 -1 $-1 $21 $22 $23 $24 reversed $7 $-1 #
DXID-attrib $-1 -1 $-1 $10 $6 @18 ASM_FACE_FROM_STEP @22 nm0-n-tr14x4-0-0-0-334 #
truecolor-adesk-attrib $-1 -1 $25 $-1 $11 -1056964608 #
face $26 -1 $-1 $27 $28 $3 $-1 $29 forward single #
loop $-1 -1 $-1 $-1 $30 $11 #
cone-surface $-1 -1 $-1 -46.032985652397855 30.830812127803174 27.5 0 0 1 -4.6186401067353415 -1.91524504031619 0 1 I I 0.70710678118654724 0.70710678118654779 5.0000000000000009 forward I I I I #
coedge $-1 -1 $-1 $31 $32 $33 $34 forward $12 $-1 #
coedge $-1 -1 $-1 $35 $14 $36 $37 forward $7 $-1 #
coedge $-1 -1 $-1 $14 $35 $38 $39 reversed $7 $-1 #
coedge $-1 -1 $-1 $40 $40 $14 $24 forward $28 $-1 #
edge $41 -1 $-1 $42 -6.617740536879428e-15 $43 3.1415926535897931 $14 $44 forward @7 unknown #
DXID-attrib $-1 -1 $-1 $16 $11 @18 ASM_FACE_FROM_STEP @22 nm0-n-tr14x4-0-0-0-335 #
truecolor-adesk-attrib $-1 -1 $45 $-1 $17 -1056964608 #
face $46 -1 $-1 $47 $48 $3 $-1 $49 forward single #
loop $-1 -1 $-1 $50 $40 $17 #
plane-surface $-1 -1 $-1 -46.032985652397855 30.830812127803174 36 0 0 1 1 0 0 forward_v I I I I #
coedge $-1 -1 $-1 $51 $52 $53 $54 forward $18 $-1 #
coedge $-1 -1 $-1 $55 $20 $56 $57 forward $12 $-1 #
coedge $-1 -1 $-1 $20 $55 $58 $59 reversed $12 $-1 #
coedge $-1 -1 $-1 $52 $51 $20 $34 reversed $18 $-1 #
edge $60 -1 $-1 $61 2.1094237467877966e-15 $62 3.1415926535897931 $20 $63 forward @7 unknown #
coedge $-1 -1 $-1 $22 $21 $55 $64 forward $7 $-1 #
coedge $-1 -1 $-1 $65 $66 $21 $37 reversed $67 $-1 #
edge $68 -1 $-1 $42 0 $69 0.00095609204577802749 $21 $70 forward @7 unknown #
coedge $-1 -1 $-1 $66 $65 $22 $39 forward $67 $-1 #
edge $71 -1 $-1 $43 0 $72 0.00095609204577801394 $22 $73 forward @7 unknown #
coedge $-1 -1 $-1 $23 $23 $65 $74 forward $28 $-1 #
truecolor-adesk-attrib $-1 -1 $75 $-1 $24 -1056964608 #
vertex $-1 -1 $-1 $24 $76 #
vertex $-1 -1 $-1 $24 $77 #
ellipse-curve $-1 -1 $-1 -46.032985652397855 30.830812127803174 36 0 0 1 -3.853793305059968 -1.5980804616398292 0 1 F -6.617740536879428e-15 F 3.1415926535897931 #
DXID-attrib $-1 -1 $-1 $26 $17 @18 ASM_FACE_FROM_STEP @22 nm0-n-tr14x4-0-0-0-336 #
truecolor-adesk-attrib $-1 -1 $78 $-1 $27 -1056964608 #
face $79 -1 $-1 $80 $81 $3 $-1 $82 forward single #
loop $-1 -1 $-1 $-1 $53 $27 #
plane-surface $-1 -1 $-1 -44.692314124176519 27.597764053088472 26 0 0 -1 0 -1 0 forward_v I I I I #
loop $-1 -1 $-1 $-1 $83 $17 #
coedge $-1 -1 $-1 $33 $30 $84 $85 forward $18 $-1 #
coedge $-1 -1 $-1 $30 $33 $86 $87 reversed $18 $-1 #
coedge $-1 -1 $-1 $88 $88 $30 $54 reversed $48 $-1 #
edge $89 -1 $-1 $90 -8.8931130033749758e-15 $91 3.1415926535897949 $30 $92 forward @7 unknown #
coedge $-1 -1 $-1 $32 $31 $35 $64 reversed $12 $-1 #
coedge $-1 -1 $-1 $93 $94 $31 $57 reversed $95 $-1 #
edge $96 -1 $-1 $62 -0.021200000000000011 $72 -0.013178046022889012 $31 $97 forward @7 unknown #
coedge $-1 -1 $-1 $94 $93 $32 $59 forward $95 $-1 #
edge $98 -1 $-1 $61 -0.021200000000000011 $69 -0.013178046022889012 $32 $99 forward @7 unknown #
truecolor-adesk-attrib $-1 -1 $100 $-1 $34 -1056964608 #
vertex $-1 -1 $-1 $34 $101 #
vertex $-1 -1 $-1 $34 $102 #
ellipse-curve $-1 -1 $-1 -46.032985652397855 30.830812127803174 27.5 0 0 1 -4.6186401067353415 -1.91524504031619 0 1 F 2.1094237467877966e-15 F 3.1415926535897931 #
edge $103 -1 $-1 $69 2.1094237467877966e-15 $72 3.1415926535897931 $35 $104 forward @7 unknown #
coedge $-1 -1 $-1 $38 $36 $40 $74 reversed $67 $-1 #
coedge $-1 -1 $-1 $36 $38 $94 $105 forward $67 $-1 #
loop $-1 -1 $-1 $-1 $36 $106 #
truecolor-adesk-attrib $-1 -1 $107 $-1 $37 -1056964608 #
vertex $-1 -1 $-1 $37 $108 #
straight-curve $-1 -1 $-1 -49.886778957457821 29.232731666163374 36 -799.97193267409614 -331.730171877195 -499.99999999999801 F 0 F 0.00095609204577802749 #
truecolor-adesk-attrib $-1 -1 $109 $-1 $39 -1056964608 #
vertex $-1 -1 $-1 $64 $110 #
straight-curve $-1 -1 $-1 -42.179192347337882 32.428892589443009 36 799.97193267409614 331.730171877195 -499.99999999999801 F 0 F 0.00095609204577801394 #
edge $111 -1 $-1 $43 -3.1415926535897931 $42 -6.617740536879428e-15 $40 $112 forward @7 unknown #
DXID-attrib $-1 -1 $-1 $41 $24 @18 ASM_EDGE_FROM_STEP @4 4792 #
point $-1 -1 $-1 -49.886778957457821 29.232731666163374 36 #
point $-1 -1 $-1 -42.179192347337882 32.428892589443009 36 #
DXID-attrib $-1 -1 $-1 $46 $27 @18 ASM_FACE_FROM_STEP @22 nm0-n-tr14x4-0-0-0-337 #
truecolor-adesk-attrib $-1 -1 $113 $-1 $47 -1056964608 #
face $114 -1 $-1 $106 $95 $3 $-1 $115 forward single #
loop $-1 -1 $-1 $-1 $84 $47 #
cone-surface $-1 -1 $-1 -46.032985652397855 30.830812127803174 27.5 0 0 1 -4.6186401067353415 -1.91524504031619 0 1 I I 0.70710678118654724 0.70710678118654779 5.0000000000000009 forward I I I I #
coedge $-1 -1 $-1 $116 $117 $118 $119 reversed $50 $-1 #
coedge $-1 -1 $-1 $120 $121 $51 $85 reversed $81 $-1 #
edge $122 -1 $-1 $91 -0.0021213203435596372 $62 0 $51 $123 forward @7 unknown #
coedge $-1 -1 $-1 $121 $120 $52 $87 forward $81 $-1 #
edge $124 -1 $-1 $90 -0.0021213203435596507 $61 0 $52 $125 forward @7 unknown #
coedge $-1 -1 $-1 $53 $53 $120 $126 reversed $48 $-1 #
truecolor-adesk-attrib $-1 -1 $127 $-1 $54 -1056964608 #
vertex $-1 -1 $-1 $54 $128 #
vertex $-1 -1 $-1 $54 $129 #
ellipse-curve $-1 -1 $-1 -46.032985652397855 30.830812127803174 26 0 0 1 -3.233048074714739 -1.3406715282213333 0 1 F -8.8931130033749758e-15 F 3.1415926535897949 #
coedge $-1 -1 $-1 $58 $56 $121 $130 forward $95 $-1 #
coedge $-1 -1 $-1 $56 $58 $66 $105 reversed $95 $-1 #
loop $-1 -1 $-1 $-1 $56 $80 #
truecolor-adesk-attrib $-1 -1 $131 $-1 $57 -1056964608 #
straight-curve $-1 -1 $-1 -41.414345545662513 32.746057168119364 48.70000000000001 0 0 1000 F -0.021200000000000011 F -0.013178046022889012 #
truecolor-adesk-attrib $-1 -1 $132 $-1 $59 -1056964608 #
straight-curve $-1 -1 $-1 -50.651625759133196 28.915567087486973 48.70000000000001 0 0 1000 F -0.021200000000000011 F -0.013178046022889012 #
DXID-attrib $-1 -1 $-1 $60 $34 @18 ASM_EDGE_FROM_STEP @4 4796 #
point $-1 -1 $-1 -50.651625759133196 28.915567087486973 27.5 #
point $-1 -1 $-1 -41.414345545662513 32.746057168119364 27.5 #
truecolor-adesk-attrib $-1 -1 $133 $-1 $64 -1056964608 #
ellipse-curve $-1 -1 $-1 -46.032985652397855 30.830812127803174 35.521953977110996 0 0 1 -4.6186401067353415 -1.91524504031619 0 1 F 2.1094237467877966e-15 F 3.1415926535897931 #
edge $134 -1 $-1 $72 -3.1415926535897931 $69 2.1094237467877966e-15 $94 $135 forward @7 unknown #
face $136 -1 $-1 $137 $67 $3 $-1 $138 forward single #
DXID-attrib $-1 -1 $-1 $68 $37 @18 ASM_EDGE_FROM_STEP @4 4793 #
point $-1 -1 $-1 -50.651625759133196 28.915567087486973 35.521953977110996 #
DXID-attrib $-1 -1 $-1 $71 $39 @18 ASM_EDGE_FROM_STEP @4 4795 #
point $-1 -1 $-1 -41.414345545662513 32.746057168119364 35.521953977110996 #
truecolor-adesk-attrib $-1 -1 $139 $-1 $74 -1056964608 #
ellipse-curve $-1 -1 $-1 -46.032985652397855 30.830812127803174 36 0 0 1 -3.853793305059968 -1.5980804616398292 0 1 F -3.1415926535897931 F -6.617740536879428e-15 #
DXID-attrib $-1 -1 $-1 $79 $47 @18 ASM_FACE_FROM_STEP @22 nm0-n-tr14x4-0-0-0-338 #
truecolor-adesk-attrib $-1 -1 $140 $-1 $80 -1056964608 #
cone-surface $-1 -1 $-1 -46.032985652397855 30.830812127803174 48.70000000000001 0 0 -1 -4.6186401067353415 -1.91524504031619 0 1 I I 0 1 5.0000000000000009 forward I I I I #
coedge $-1 -1 $-1 $141 $83 $142 $143 forward $50 $-1 #
coedge $-1 -1 $-1 $83 $144 $145 $146 reversed $50 $-1 #
coedge $-1 -1 $-1 $147 $148 $83 $119 forward $149 $-1 #
edge $150 -1 $-1 $151 0 $152 0.0028867513459481468 $83 $153 forward @7 unknown #
coedge $-1 -1 $-1 $86 $84 $88 $126 forward $81 $-1 #
coedge $-1 -1 $-1 $84 $86 $93 $130 reversed $81 $-1 #
truecolor-adesk-attrib $-1 -1 $154 $-1 $85 -1056964608 #
straight-curve $-1 -1 $-1 -41.414345545662513 32.746057168119364 27.5 653.17434786654405 270.85655112829602 707.10678118654801 F -0.0021213203435596372 F 0 #
truecolor-adesk-attrib $-1 -1 $155 $-1 $87 -1056964608 #
straight-curve $-1 -1 $-1 -50.651625759133196 28.915567087486973 27.5 -653.17434786654405 -270.85655112829602 707.10678118654801 F -0.0021213203435596507 F 0 #
edge $156 -1 $-1 $91 -3.1415926535897913 $90 -8.8931130033749758e-15 $88 $157 forward @7 unknown #
DXID-attrib $-1 -1 $-1 $89 $54 @18 ASM_EDGE_FROM_STEP @4 4799 #
point $-1 -1 $-1 -49.266033727112593 29.490140599581874 26 #
point $-1 -1 $-1 -42.79993757768311 32.17148365602452 26 #
edge $158 -1 $-1 $62 -3.1415926535897931 $61 2.1094237467877966e-15 $121 $159 forward @7 unknown #
DXID-attrib $-1 -1 $-1 $96 $57 @18 ASM_EDGE_FROM_STEP @4 4797 #
DXID-attrib $-1 -1 $-1 $98 $59 @18 ASM_EDGE_FROM_STEP @4 4798 #
DXID-attrib $-1 -1 $-1 $103 $64 @18 ASM_EDGE_FROM_STEP @4 4794 #
truecolor-adesk-attrib $-1 -1 $160 $-1 $105 -1056964608 #
ellipse-curve $-1 -1 $-1 -46.032985652397855 30.830812127803174 35.521953977110996 0 0 1 -4.6186401067353415 -1.91524504031619 0 1 F -3.1415926535897931 F 2.1094237467877966e-15 #
truecolor-adesk-attrib $-1 -1 $161 $-1 $106 -1056964608 #
face $162 -1 $-1 $163 $164 $3 $-1 $165 forward single #
cone-surface $-1 -1 $-1 -46.032985652397855 30.830812127803174 36 0 0 -1 3.853793305059968 1.5980804616398292 0 1 I I 0.86602540378443982 0.499999999999998 4.1720000000000006 forward I I I I #
DXID-attrib $-1 -1 $-1 $111 $74 @18 ASM_EDGE_FROM_STEP @4 4802 #
DXID-attrib $-1 -1 $-1 $114 $80 @18 ASM_FACE_FROM_STEP @22 nm0-n-tr14x4-0-0-0-339 #
coedge $-1 -1 $-1 $166 $116 $167 $168 reversed $50 $-1 #
coedge $-1 -1 $-1 $169 $170 $116 $143 reversed $164 $-1 #
edge $171 -1 $-1 $151 0 $172 0.0028867513459481615 $116 $173 forward @7 unknown #
coedge $-1 -1 $-1 $117 $166 $174 $175 forward $50 $-1 #
coedge $-1 -1 $-1 $176 $177 $117 $146 forward $178 $-1 #
edge $179 -1 $-1 $152 0 $180 0.0028867513459480852 $117 $181 forward @7 unknown #
coedge $-1 -1 $-1 $182 $118 $177 $183 reversed $149 $-1 #
coedge $-1 -1 $-1 $118 $182 $169 $184 forward $149 $-1 #
loop $-1 -1 $-1 $-1 $118 $185 #
truecolor-adesk-attrib $-1 -1 $186 $-1 $119 -1056964608 #
vertex $-1 -1 $-1 $119 $187 #
vertex $-1 -1 $-1 $119 $188 #
straight-curve $-1 -1 $-1 -46.408649686696585 27.968608454640176 36 923.72802134706808 383.04900806323803 0 F 0 F 0.0028867513459481468 #
DXID-attrib $-1 -1 $-1 $122 $85 @18 ASM_EDGE_FROM_STEP @4 4800 #
DXID-attrib $-1 -1 $-1 $124 $87 @18 ASM_EDGE_FROM_STEP @4 4801 #
truecolor-adesk-attrib $-1 -1 $189 $-1 $126 -1056964608 #
ellipse-curve $-1 -1 $-1 -46.032985652397855 30.830812127803174 26 0 0 1 -3.233048074714739 -1.3406715282213333 0 1 F -3.1415926535897913 F -8.8931130033749758e-15 #
truecolor-adesk-attrib $-1 -1 $190 $-1 $130 -1056964608 #
ellipse-curve $-1 -1 $-1 -46.032985652397855 30.830812127803174 27.5 0 0 1 -4.6186401067353415 -1.91524504031619 0 1 F -3.1415926535897931 F 2.1094237467877966e-15 #
DXID-attrib $-1 -1 $-1 $134 $105 @18 ASM_EDGE_FROM_STEP @4 4811 #
DXID-attrib $-1 -1 $-1 $136 $106 @18 ASM_FACE_FROM_STEP @22 nm0-n-tr14x4-0-0-0-340 #
truecolor-adesk-attrib $-1 -1 $191 $-1 $137 -1056964608 #
face $192 -1 $-1 $193 $194 $3 $-1 $195 reversed single #
loop $-1 -1 $-1 $-1 $142 $137 #
plane-surface $-1 -1 $-1 -46.408649686696585 27.968608454640176 30 0.60844742864247703 0.79359418255072789 0 0 0 -1 forward_v I I I I #
coedge $-1 -1 $-1 $144 $141 $196 $197 forward $50 $-1 #
coedge $-1 -1 $-1 $198 $199 $141 $168 forward $194 $-1 #
edge $200 -1 $-1 $201 0 $172 0.0028867513459480852 $141 $202 forward @7 unknown #
coedge $-1 -1 $-1 $203 $142 $148 $184 reversed $164 $-1 #
coedge $-1 -1 $-1 $142 $203 $198 $204 forward $164 $-1 #
truecolor-adesk-attrib $-1 -1 $205 $-1 $143 -1056964608 #
vertex $-1 -1 $-1 $143 $206 #
straight-curve $-1 -1 $-1 -46.408649686696585 27.968608454640176 36 -793.59418255072796 608.44742864247712 0 F 0 F 0.0028867513459481615 #
coedge $-1 -1 $-1 $207 $208 $144 $175 reversed $209 $-1 #
edge $210 -1 $-1 $211 0 $180 0.002886751345948129 $144 $212 forward @7 unknown #
coedge $-1 -1 $-1 $213 $145 $208 $214 reversed $178 $-1 #
coedge $-1 -1 $-1 $145 $213 $147 $183 forward $178 $-1 #
loop $-1 -1 $-1 $-1 $145 $215 #
truecolor-adesk-attrib $-1 -1 $216 $-1 $146 -1056964608 #
vertex $-1 -1 $-1 $175 $217 #
straight-curve $-1 -1 $-1 -43.742076577782932 29.074375694230874 36 130.13383879634 991.49643670571413 0 F 0 F 0.0028867513459480852 #
coedge $-1 -1 $-1 $148 $147 $218 $219 reversed $149 $-1 #
edge $220 -1 $-1 $221 0 $152 0.006000000000000001 $177 $222 forward @7 unknown #
edge $223 -1 $-1 $224 0 $151 0.006000000000000001 $169 $225 forward @7 unknown #
face $226 -1 $-1 $227 $149 $3 $-1 $228 reversed single #
DXID-attrib $-1 -1 $-1 $150 $119 @18 ASM_EDGE_FROM_STEP @4 4803 #
point $-1 -1 $-1 -46.408649686696585 27.968608454640176 36 #
point $-1 -1 $-1 -43.742076577782932 29.074375694230874 36 #
DXID-attrib $-1 -1 $-1 $156 $126 @18 ASM_EDGE_FROM_STEP @4 4809 #
DXID-attrib $-1 -1 $-1 $158 $130 @18 ASM_EDGE_FROM_STEP @4 4810 #
DXID-attrib $-1 -1 $-1 $162 $137 @18 ASM_FACE_FROM_STEP @22 nm0-n-tr14x4-0-0-0-341 #
truecolor-adesk-attrib $-1 -1 $229 $-1 $163 -1056964608 #
face $230 -1 $-1 $231 $232 $3 $-1 $233 forward single #
loop $-1 -1 $-1 $-1 $167 $163 #
plane-surface $-1 -1 $-1 -48.323894727012771 32.587248561375525 30 -0.99149643670571419 0.13013383879634002 0 0 0 1 forward_v I I I I #
coedge $-1 -1 $-1 $234 $235 $166 $197 reversed $232 $-1 #
edge $236 -1 $-1 $201 0 $211 0.0028867513459481325 $166 $237 forward @7 unknown #
coedge $-1 -1 $-1 $238 $167 $170 $204 reversed $194 $-1 #
coedge $-1 -1 $-1 $167 $238 $234 $239 forward $194 $-1 #
truecolor-adesk-attrib $-1 -1 $240 $-1 $168 -1056964608 #
vertex $-1 -1 $-1 $168 $241 #
straight-curve $-1 -1 $-1 -48.323894727012771 32.587248561375525 36 -130.13383879634 -991.49643670571413 0 F 0 F 0.0028867513459480852 #
coedge $-1 -1 $-1 $170 $169 $242 $243 forward $164 $-1 #
edge $244 -1 $-1 $245 0 $172 0.006000000000000001 $170 $246 forward @7 unknown #
DXID-attrib $-1 -1 $-1 $171 $143 @18 ASM_EDGE_FROM_STEP @4 4804 #
point $-1 -1 $-1 -48.699558761311501 29.725044888212572 36 #
coedge $-1 -1 $-1 $247 $174 $235 $248 reversed $209 $-1 #
coedge $-1 -1 $-1 $174 $247 $176 $214 forward $209 $-1 #
loop $-1 -1 $-1 $-1 $174 $231 #
truecolor-adesk-attrib $-1 -1 $249 $-1 $175 -1056964608 #
vertex $-1 -1 $-1 $197 $250 #
straight-curve $-1 -1 $-1 -45.657321618099118 33.693015800966172 36 793.59418255072796 -608.44742864247712 0 F 0 F 0.002886751345948129 #
coedge $-1 -1 $-1 $177 $176 $251 $252 reversed $178 $-1 #
edge $253 -1 $-1 $254 0 $180 0.006000000000000001 $208 $255 forward @7 unknown #
face $256 -1 $-1 $185 $178 $3 $-1 $257 reversed single #
DXID-attrib $-1 -1 $-1 $179 $146 @18 ASM_EDGE_FROM_STEP @4 4808 #
point $-1 -1 $-1 -43.366412543484202 31.936579367393822 36 #
coedge $-1 -1 $-1 $251 $242 $182 $219 forward $258 $-1 #
edge $259 -1 $-1 $224 0 $221 0.0028867513459481468 $182 $260 forward @7 unknown #
truecolor-adesk-attrib $-1 -1 $261 $-1 $183 -1056964608 #
vertex $-1 -1 $-1 $252 $262 #
straight-curve $-1 -1 $-1 -43.742076577782932 29.074375694230874 30 0 0 1000 F 0 F 0.006000000000000001 #
truecolor-adesk-attrib $-1 -1 $263 $-1 $184 -1056964608 #
vertex $-1 -1 $-1 $184 $264 #
straight-curve $-1 -1 $-1 -46.408649686696585 27.968608454640176 30 0 0 1000 F 0 F 0.006000000000000001 #
truecolor-adesk-attrib $-1 -1 $265 $-1 $185 -1056964608 #
face $266 -1 $-1 $-1 $258 $3 $-1 $267 reversed single #
plane-surface $-1 -1 $-1 -46.408649686696585 27.968608454640176 30 0.38304900806323805 -0.92372802134706811 0 0 0 -1 forward_v I I I I #
DXID-attrib $-1 -1 $-1 $192 $163 @18 ASM_FACE_FROM_STEP @22 nm0-n-tr14x4-0-0-0-342 #
truecolor-adesk-attrib $-1 -1 $268 $-1 $193 -1056964608 #
face $269 -1 $-1 $215 $209 $3 $-1 $270 forward single #
loop $-1 -1 $-1 $-1 $196 $193 #
plane-surface $-1 -1 $-1 -48.323894727012771 32.587248561375525 30 0.38304900806323805 -0.92372802134706811 0 0 0 -1 forward_v I I I I #
coedge $-1 -1 $-1 $271 $196 $199 $239 reversed $232 $-1 #
coedge $-1 -1 $-1 $196 $271 $207 $248 forward $232 $-1 #
truecolor-adesk-attrib $-1 -1 $272 $-1 $197 -1056964608 #
straight-curve $-1 -1 $-1 -48.323894727012771 32.587248561375525 36 923.72802134706808 383.04900806323803 0 F 0 F 0.0028867513459481325 #
coedge $-1 -1 $-1 $199 $198 $273 $274 reversed $194 $-1 #
edge $275 -1 $-1 $276 0 $201 0.006000000000000001 $199 $277 forward @7 unknown #
DXID-attrib $-1 -1 $-1 $200 $168 @18 ASM_EDGE_FROM_STEP @4 4805 #
point $-1 -1 $-1 -48.323894727012771 32.587248561375525 36 #
coedge $-1 -1 $-1 $218 $273 $203 $243 reversed $258 $-1 #
edge $278 -1 $-1 $224 0 $245 0.0028867513459481615 $203 $279 forward @7 unknown #
truecolor-adesk-attrib $-1 -1 $280 $-1 $204 -1056964608 #
vertex $-1 -1 $-1 $243 $281 #
straight-curve $-1 -1 $-1 -48.699558761311501 29.725044888212572 30 0 0 1000 F 0 F 0.006000000000000001 #
coedge $-1 -1 $-1 $208 $207 $282 $283 forward $209 $-1 #
edge $284 -1 $-1 $285 0 $211 0.006000000000000001 $235 $286 forward @7 unknown #
DXID-attrib $-1 -1 $-1 $210 $175 @18 ASM_EDGE_FROM_STEP @4 4807 #
point $-1 -1 $-1 -45.657321618099118 33.693015800966172 36 #
coedge $-1 -1 $-1 $282 $218 $213 $252 forward $258 $-1 #
edge $287 -1 $-1 $221 0 $254 0.0028867513459480852 $213 $288 forward @7 unknown #
truecolor-adesk-attrib $-1 -1 $289 $-1 $214 -1056964608 #
vertex $-1 -1 $-1 $283 $290 #
straight-curve $-1 -1 $-1 -43.366412543484202 31.936579367393822 30 0 0 1000 F 0 F 0.006000000000000001 #
truecolor-adesk-attrib $-1 -1 $291 $-1 $215 -1056964608 #
plane-surface $-1 -1 $-1 -43.742076577782932 29.074375694230874 30 0.99149643670571419 -0.13013383879634002 0 0 0 -1 forward_v I I I I #
loop $-1 -1 $-1 $-1 $242 $227 #
truecolor-adesk-attrib $-1 -1 $292 $-1 $219 -1056964608 #
straight-curve $-1 -1 $-1 -46.408649686696585 27.968608454640176 30 923.72802134706808 383.04900806323803 0 F 0 F 0.0028867513459481468 #
DXID-attrib $-1 -1 $-1 $220 $183 @18 ASM_EDGE_FROM_STEP @4 4822 #
point $-1 -1 $-1 -43.742076577782932 29.074375694230874 30 #
DXID-attrib $-1 -1 $-1 $223 $184 @18 ASM_EDGE_FROM_STEP @4 4812 #
point $-1 -1 $-1 -46.408649686696585 27.968608454640176 30 #
DXID-attrib $-1 -1 $-1 $226 $185 @18 ASM_FACE_FROM_STEP @22 nm0-n-tr14x4-0-0-0-346 #
truecolor-adesk-attrib $-1 -1 $293 $-1 $227 -1056964608 #
plane-surface $-1 -1 $-1 -46.408649686696585 27.968608454640176 30 0 0 -1 0 -1 0 forward_v I I I I #
DXID-attrib $-1 -1 $-1 $230 $193 @18 ASM_FACE_FROM_STEP @22 nm0-n-tr14x4-0-0-0-343 #
truecolor-adesk-attrib $-1 -1 $294 $-1 $231 -1056964608 #
plane-surface $-1 -1 $-1 -45.657321618099118 33.693015800966172 30 -0.60844742864247703 -0.79359418255072789 0 -0.793594182550728 0.60844742864247703 0 forward_v I I I I #
coedge $-1 -1 $-1 $235 $234 $295 $296 forward $232 $-1 #
DXID-attrib $-1 -1 $-1 $236 $197 @18 ASM_EDGE_FROM_STEP @4 4806 #
coedge $-1 -1 $-1 $242 $295 $238 $274 forward $258 $-1 #
edge $297 -1 $-1 $276 0 $245 0.0028867513459480852 $238 $298 forward @7 unknown #
truecolor-adesk-attrib $-1 -1 $299 $-1 $239 -1056964608 #
vertex $-1 -1 $-1 $274 $300 #
straight-curve $-1 -1 $-1 -48.323894727012771 32.587248561375525 30 0 0 1000 F 0 F 0.006000000000000001 #
truecolor-adesk-attrib $-1 -1 $301 $-1 $243 -1056964608 #
straight-curve $-1 -1 $-1 -46.408649686696585 27.968608454640176 30 -793.59418255072796 608.44742864247712 0 F 0 F 0.0028867513459481615 #
DXID-attrib $-1 -1 $-1 $244 $204 @18 ASM_EDGE_FROM_STEP @4 4814 #
point $-1 -1 $-1 -48.699558761311501 29.725044888212572 30 #
coedge $-1 -1 $-1 $295 $251 $247 $283 reversed $258 $-1 #
edge $302 -1 $-1 $285 0 $254 0.002886751345948129 $247 $303 forward @7 unknown #
truecolor-adesk-attrib $-1 -1 $304 $-1 $248 -1056964608 #
vertex $-1 -1 $-1 $296 $305 #
straight-curve $-1 -1 $-1 -45.657321618099118 33.693015800966172 30 0 0 1000 F 0 F 0.006000000000000001 #
truecolor-adesk-attrib $-1 -1 $306 $-1 $252 -1056964608 #
straight-curve $-1 -1 $-1 -43.742076577782932 29.074375694230874 30 130.13383879634 991.49643670571413 0 F 0 F 0.0028867513459480852 #
DXID-attrib $-1 -1 $-1 $253 $214 @18 ASM_EDGE_FROM_STEP @4 4820 #
point $-1 -1 $-1 -43.366412543484202 31.936579367393822 30 #
DXID-attrib $-1 -1 $-1 $256 $215 @18 ASM_FACE_FROM_STEP @22 nm0-n-tr14x4-0-0-0-345 #
DXID-attrib $-1 -1 $-1 $259 $219 @18 ASM_EDGE_FROM_STEP @4 4823 #
DXID-attrib $-1 -1 $-1 $266 $227 @18 ASM_FACE_FROM_STEP @22 nm0-n-tr14x4-0-0-0-347 #
DXID-attrib $-1 -1 $-1 $269 $231 @18 ASM_FACE_FROM_STEP @22 nm0-n-tr14x4-0-0-0-344 #
coedge $-1 -1 $-1 $273 $282 $271 $296 reversed $258 $-1 #
edge $307 -1 $-1 $276 0 $285 0.0028867513459481325 $271 $308 forward @7 unknown #
truecolor-adesk-attrib $-1 -1 $309 $-1 $274 -1056964608 #
straight-curve $-1 -1 $-1 -48.323894727012771 32.587248561375525 30 -130.13383879634 -991.49643670571413 0 F 0 F 0.0028867513459480852 #
DXID-attrib $-1 -1 $-1 $275 $239 @18 ASM_EDGE_FROM_STEP @4 4816 #
point $-1 -1 $-1 -48.323894727012771 32.587248561375525 30 #
DXID-attrib $-1 -1 $-1 $278 $243 @18 ASM_EDGE_FROM_STEP @4 4813 #
truecolor-adesk-attrib $-1 -1 $310 $-1 $283 -1056964608 #
straight-curve $-1 -1 $-1 -45.657321618099118 33.693015800966172 30 793.59418255072796 -608.44742864247712 0 F 0 F 0.002886751345948129 #
DXID-attrib $-1 -1 $-1 $284 $248 @18 ASM_EDGE_FROM_STEP @4 4818 #
point $-1 -1 $-1 -45.657321618099118 33.693015800966172 30 #
DXID-attrib $-1 -1 $-1 $287 $252 @18 ASM_EDGE_FROM_STEP @4 4821 #
truecolor-adesk-attrib $-1 -1 $311 $-1 $296 -1056964608 #
straight-curve $-1 -1 $-1 -48.323894727012771 32.587248561375525 30 923.72802134706808 383.04900806323803 0 F 0 F 0.0028867513459481325 #
DXID-attrib $-1 -1 $-1 $297 $274 @18 ASM_EDGE_FROM_STEP @4 4815 #
DXID-attrib $-1 -1 $-1 $302 $283 @18 ASM_EDGE_FROM_STEP @4 4819 #
DXID-attrib $-1 -1 $-1 $307 $296 @18 ASM_EDGE_FROM_STEP @4 4817 #
