700 128 1 0         
5 ZWCAD 12 ACIS 28.0 NT 24 Sat May 11 14:25:50 2024 
1 9.9999999999999995e-07 1e-10 
body $1 -1 $-1 $2 $-1 $-1 #
DXID-attrib $-1 -1 $-1 $-1 $0 @18 ASM_BODY_FROM_STEP @83 5AD46C2E2498ADA1F704A3AE2BC77177CE11440D|:|7B52009B64FD0A2A49E6D8A939753077792B0554 #
lump $-1 -1 $-1 $-1 $3 $0 #
shell $-1 -1 $-1 $-1 $-1 $4 $-1 $2 #
face $5 -1 $-1 $6 $7 $3 $-1 $8 forward single #
truecolor-adesk-attrib $-1 -1 $9 $-1 $4 -1056964608 #
face $10 -1 $-1 $11 $12 $3 $-1 $13 forward single #
loop $-1 -1 $-1 $-1 $14 $4 #
cone-surface $-1 -1 $-1 108.05253567156655 -3.9944961043287712 0 0 1 0 7.0000000000000009 0 0 1 I I 0 1 7.0000000000000009 forward I I I I #
DXID-attrib $-1 -1 $-1 $5 $4 @18 ASM_FACE_FROM_STEP @22 nm0-n-tr14x4-0-0-0-495 #
truecolor-adesk-attrib $-1 -1 $15 $-1 $6 -1056964608 #
face $16 -1 $-1 $17 $18 $3 $-1 $19 forward single #
loop $-1 -1 $-1 $-1 $20 $6 #
cone-surface $-1 -1 $-1 108.05253567156655 21.505503895671229 0 0 1 0 4 0 0 1 I I 0 1 4 forward I I I I #
coedge $-1 -1 $-1 $21 $22 $23 $24 reversed $7 $-1 #
DXID-attrib $-1 -1 $-1 $10 $6 @18 ASM_FACE_FROM_STEP @22 nm0-n-tr14x4-0-0-0-496 #
truecolor-adesk-attrib $-1 -1 $25 $-1 $11 -1056964608 #
face $26 -1 $-1 $27 $28 $3 $-1 $29 forward single #
loop $-1 -1 $-1 $-1 $30 $11 #
cone-surface $-1 -1 $-1 108.05253567156655 21.505503895671229 0 0 1 0 4 0 0 1 I I 0 1 4 forward I I I I #
coedge $-1 -1 $-1 $31 $32 $30 $33 reversed $12 $-1 #
coedge $-1 -1 $-1 $34 $14 $35 $36 reversed $7 $-1 #
coedge $-1 -1 $-1 $14 $34 $37 $38 reversed $7 $-1 #
coedge $-1 -1 $-1 $39 $40 $14 $24 forward $41 $-1 #
edge $42 -1 $-1 $43 -39.5 $44 39.5 $14 $45 forward @7 unknown #
DXID-attrib $-1 -1 $-1 $16 $11 @18 ASM_FACE_FROM_STEP @22 nm0-n-tr14x4-0-0-0-497 #
truecolor-adesk-attrib $-1 -1 $46 $-1 $17 -1056964608 #
face $47 -1 $-1 $48 $41 $3 $-1 $49 forward single #
loop $-1 -1 $-1 $-1 $50 $17 #
plane-surface $-1 -1 $-1 108.05253567156655 47.505503895671225 0 0 1 0 1 0 0 forward_v I I I I #
coedge $-1 -1 $-1 $51 $52 $20 $33 forward $18 $-1 #
coedge $-1 -1 $-1 $53 $20 $54 $55 reversed $12 $-1 #
coedge $-1 -1 $-1 $20 $53 $50 $56 reversed $12 $-1 #
edge $57 -1 $-1 $58 -6.0000000000000053 $59 5.9999999999999964 $20 $60 forward @7 unknown #
coedge $-1 -1 $-1 $22 $21 $61 $62 reversed $7 $-1 #
coedge $-1 -1 $-1 $63 $63 $21 $36 forward $64 $-1 #
edge $65 -1 $-1 $66 -3.1415926535897931 $43 0 $21 $67 forward @7 unknown #
coedge $-1 -1 $-1 $68 $68 $22 $38 forward $69 $-1 #
edge $70 -1 $-1 $44 0 $71 3.1415926535897931 $22 $72 forward @7 unknown #
coedge $-1 -1 $-1 $61 $23 $68 $73 reversed $41 $-1 #
coedge $-1 -1 $-1 $23 $61 $63 $74 reversed $41 $-1 #
loop $-1 -1 $-1 $-1 $23 $27 #
truecolor-adesk-attrib $-1 -1 $75 $-1 $24 -1056964608 #
vertex $-1 -1 $-1 $24 $76 #
vertex $-1 -1 $-1 $24 $77 #
straight-curve $-1 -1 $-1 115.05253567156655 -3.9944961043287712 8.5722444767566408e-16 0 1 0 F -39.5 F 39.5 #
DXID-attrib $-1 -1 $-1 $26 $17 @18 ASM_FACE_FROM_STEP @22 nm0-n-tr14x4-0-0-0-498 #
truecolor-adesk-attrib $-1 -1 $78 $-1 $27 -1056964608 #
face $79 -1 $-1 $80 $64 $3 $-1 $81 forward single #
cone-surface $-1 -1 $-1 108.05253567156655 -3.9944961043287712 0 0 1 0 7.0000000000000009 0 0 1 I I 0 1 7.0000000000000009 forward I I I I #
coedge $-1 -1 $-1 $82 $82 $32 $56 forward $28 $-1 #
coedge $-1 -1 $-1 $83 $30 $82 $84 reversed $18 $-1 #
coedge $-1 -1 $-1 $30 $83 $85 $86 reversed $18 $-1 #
coedge $-1 -1 $-1 $32 $31 $83 $87 reversed $12 $-1 #
coedge $-1 -1 $-1 $85 $85 $31 $55 forward $88 $-1 #
edge $89 -1 $-1 $90 -3.1415926535897931 $58 1.2246063538223775e-16 $31 $91 forward @7 unknown #
edge $92 -1 $-1 $59 0 $93 3.1415926535897931 $32 $94 forward @7 unknown #
truecolor-adesk-attrib $-1 -1 $95 $-1 $33 -1056964608 #
vertex $-1 -1 $-1 $33 $96 #
vertex $-1 -1 $-1 $33 $97 #
straight-curve $-1 -1 $-1 112.05253567156655 41.505503895671239 4.89842541528951e-16 0 1 0 F -6.0000000000000053 F 5.9999999999999964 #
coedge $-1 -1 $-1 $40 $39 $34 $62 forward $41 $-1 #
edge $98 -1 $-1 $71 -39.5 $66 39.5 $34 $99 forward @7 unknown #
coedge $-1 -1 $-1 $35 $35 $40 $74 forward $64 $-1 #
loop $-1 -1 $-1 $-1 $63 $48 #
truecolor-adesk-attrib $-1 -1 $100 $-1 $36 -1056964608 #
vertex $-1 -1 $-1 $36 $101 #
ellipse-curve $-1 -1 $-1 108.05253567156655 -43.494496104328775 0 0 -1 0 7.0000000000000009 0 0 1 F -3.1415926535897931 F 0 #
coedge $-1 -1 $-1 $37 $37 $39 $73 forward $69 $-1 #
loop $-1 -1 $-1 $88 $37 $80 #
truecolor-adesk-attrib $-1 -1 $102 $-1 $38 -1056964608 #
vertex $-1 -1 $-1 $62 $103 #
ellipse-curve $-1 -1 $-1 108.05253567156655 35.505503895671225 0 0 1 0 7.0000000000000009 0 0 1 F 0 F 3.1415926535897931 #
edge $104 -1 $-1 $71 -3.1415926535897931 $44 0 $39 $105 forward @7 unknown #
edge $106 -1 $-1 $43 0 $66 3.1415926535897931 $40 $107 forward @7 unknown #
DXID-attrib $-1 -1 $-1 $42 $24 @18 ASM_EDGE_FROM_STEP @4 5124 #
point $-1 -1 $-1 115.05253567156655 -43.494496104328775 0 #
point $-1 -1 $-1 115.05253567156655 35.505503895671225 0 #
DXID-attrib $-1 -1 $-1 $47 $27 @18 ASM_FACE_FROM_STEP @22 nm0-n-tr14x4-0-0-0-499 #
truecolor-adesk-attrib $-1 -1 $108 $-1 $48 -1056964608 #
face $109 -1 $-1 $-1 $69 $3 $-1 $110 forward single #
plane-surface $-1 -1 $-1 108.05253567156655 -43.494496104328775 0 0 -1 0 -1 0 0 forward_v I I I I #
coedge $-1 -1 $-1 $50 $50 $51 $84 forward $28 $-1 #
coedge $-1 -1 $-1 $52 $51 $53 $87 forward $18 $-1 #
edge $111 -1 $-1 $93 -3.1415926535897931 $59 0 $51 $112 forward @7 unknown #
coedge $-1 -1 $-1 $54 $54 $52 $86 forward $88 $-1 #
edge $113 -1 $-1 $58 1.2246063538223775e-16 $90 3.1415926535897931 $52 $114 forward @7 unknown #
edge $115 -1 $-1 $93 -5.9999999999999964 $90 6.0000000000000053 $53 $116 forward @7 unknown #
loop $-1 -1 $-1 $-1 $54 $80 #
truecolor-adesk-attrib $-1 -1 $117 $-1 $55 -1056964608 #
vertex $-1 -1 $-1 $55 $118 #
ellipse-curve $-1 -1 $-1 108.05253567156655 35.505503895671225 0 0 -1 0 4 0 0 1 F -3.1415926535897931 F 1.2246063538223775e-16 #
truecolor-adesk-attrib $-1 -1 $119 $-1 $56 -1056964608 #
vertex $-1 -1 $-1 $87 $120 #
ellipse-curve $-1 -1 $-1 108.05253567156655 47.505503895671225 0 0 1 0 4 0 0 1 F 0 F 3.1415926535897931 #
DXID-attrib $-1 -1 $-1 $57 $33 @18 ASM_EDGE_FROM_STEP @4 5128 #
point $-1 -1 $-1 112.05253567156655 35.505503895671225 4.89842541528951e-16 #
point $-1 -1 $-1 112.05253567156655 47.505503895671225 0 #
truecolor-adesk-attrib $-1 -1 $121 $-1 $62 -1056964608 #
straight-curve $-1 -1 $-1 101.05253567156655 -3.9944961043287712 -8.5722444767566408e-16 0 -1 0 F -39.5 F 39.5 #
DXID-attrib $-1 -1 $-1 $65 $36 @18 ASM_EDGE_FROM_STEP @4 5125 #
point $-1 -1 $-1 101.05253567156655 -43.494496104328775 -8.5722444767566408e-16 #
DXID-attrib $-1 -1 $-1 $70 $38 @18 ASM_EDGE_FROM_STEP @4 5127 #
point $-1 -1 $-1 101.05253567156655 35.505503895671225 -8.5722444767566408e-16 #
truecolor-adesk-attrib $-1 -1 $122 $-1 $73 -1056964608 #
ellipse-curve $-1 -1 $-1 108.05253567156655 35.505503895671225 0 0 1 0 7.0000000000000009 0 0 1 F -3.1415926535897931 F 0 #
truecolor-adesk-attrib $-1 -1 $123 $-1 $74 -1056964608 #
ellipse-curve $-1 -1 $-1 108.05253567156655 -43.494496104328775 0 0 -1 0 7.0000000000000009 0 0 1 F 0 F 3.1415926535897931 #
DXID-attrib $-1 -1 $-1 $79 $48 @18 ASM_FACE_FROM_STEP @22 nm0-n-tr14x4-0-0-0-500 #
truecolor-adesk-attrib $-1 -1 $124 $-1 $80 -1056964608 #
plane-surface $-1 -1 $-1 108.05253567156655 35.505503895671225 0 0 1 0 1 0 0 forward_v I I I I #
truecolor-adesk-attrib $-1 -1 $125 $-1 $84 -1056964608 #
ellipse-curve $-1 -1 $-1 108.05253567156655 47.505503895671225 0 0 1 0 4 0 0 1 F -3.1415926535897931 F 0 #
truecolor-adesk-attrib $-1 -1 $126 $-1 $86 -1056964608 #
ellipse-curve $-1 -1 $-1 108.05253567156655 35.505503895671225 0 0 -1 0 4 0 0 1 F 1.2246063538223775e-16 F 3.1415926535897931 #
truecolor-adesk-attrib $-1 -1 $127 $-1 $87 -1056964608 #
straight-curve $-1 -1 $-1 104.05253567156655 41.505503895671239 -4.89842541528951e-16 0 -1 0 F -5.9999999999999964 F 6.0000000000000053 #
DXID-attrib $-1 -1 $-1 $89 $55 @18 ASM_EDGE_FROM_STEP @4 5129 #
point $-1 -1 $-1 104.05253567156655 35.505503895671225 -4.89842541528951e-16 #
DXID-attrib $-1 -1 $-1 $92 $56 @18 ASM_EDGE_FROM_STEP @4 5131 #
point $-1 -1 $-1 104.05253567156655 47.505503895671225 -4.89842541528951e-16 #
DXID-attrib $-1 -1 $-1 $98 $62 @18 ASM_EDGE_FROM_STEP @4 5126 #
DXID-attrib $-1 -1 $-1 $104 $73 @18 ASM_EDGE_FROM_STEP @4 5134 #
DXID-attrib $-1 -1 $-1 $106 $74 @18 ASM_EDGE_FROM_STEP @4 5135 #
DXID-attrib $-1 -1 $-1 $109 $80 @18 ASM_FACE_FROM_STEP @22 nm0-n-tr14x4-0-0-0-501 #
DXID-attrib $-1 -1 $-1 $111 $84 @18 ASM_EDGE_FROM_STEP @4 5132 #
DXID-attrib $-1 -1 $-1 $113 $86 @18 ASM_EDGE_FROM_STEP @4 5133 #
DXID-attrib $-1 -1 $-1 $115 $87 @18 ASM_EDGE_FROM_STEP @4 5130 #
