700 312 1 0         
5 ZWCAD 12 ACIS 28.0 NT 24 Sat May 11 14:25:17 2024 
1 9.9999999999999995e-07 1e-10 
body $1 -1 $-1 $2 $-1 $-1 #
DXID-attrib $-1 -1 $-1 $-1 $0 @18 ASM_BODY_FROM_STEP @83 5AD46C2E2498ADA1F704A3AE2BC77177CE11440D|:|902BA3CDA1883801594B6E1B452790CC53948FDA #
lump $-1 -1 $-1 $-1 $3 $0 #
shell $-1 -1 $-1 $-1 $-1 $4 $-1 $2 #
face $5 -1 $-1 $6 $7 $3 $-1 $8 forward single #
truecolor-adesk-attrib $-1 -1 $9 $-1 $4 -1056964608 #
face $10 -1 $-1 $11 $12 $3 $-1 $13 forward single #
loop $-1 -1 $-1 $-1 $14 $4 #
cone-surface $-1 -1 $-1 -23.534501239516636 18.937321828395092 -3.7793858352859258e-15 1 -9.3605910289805567e-34 -2.2656288771936496e-33 2.109132088027954e-48 -1.899281538073103 0.78470034990094872 1 I I 0.86602540378443982 0.499999999999998 2.0550000000000006 forward I I I I #
DXID-attrib $-1 -1 $-1 $5 $4 @18 ASM_FACE_FROM_STEP @22 nm0-n-tr14x4-0-0-0-391 #
truecolor-adesk-attrib $-1 -1 $15 $-1 $6 -1056964608 #
face $16 -1 $-1 $17 $18 $3 $-1 $19 forward single #
loop $-1 -1 $-1 $-1 $20 $6 #
cone-surface $-1 -1 $-1 -36.234501239516639 18.937321828395092 -3.7793858352859258e-15 1 -9.3605910289805584e-34 -2.2656288771936496e-33 -2.5658541216885075e-48 2.3105614818407574 -0.95462329671648238 1 I I 0 1 2.5 forward I I I I #
coedge $-1 -1 $-1 $21 $22 $23 $24 reversed $7 $-1 #
DXID-attrib $-1 -1 $-1 $10 $6 @18 ASM_FACE_FROM_STEP @22 nm0-n-tr14x4-0-0-0-392 #
truecolor-adesk-attrib $-1 -1 $25 $-1 $11 -1056964608 #
face $26 -1 $-1 $27 $28 $3 $-1 $29 forward single #
loop $-1 -1 $-1 $-1 $30 $11 #
cone-surface $-1 -1 $-1 -18.029501239516637 18.937321828395092 -3.7793858352859258e-15 -1 9.3605910289805584e-34 2.2656288771936496e-33 -2.5658541216885075e-48 2.3105614818407574 -0.95462329671648238 1 I I 0.70710678118654657 0.70710678118654846 2.5 forward I I I I #
coedge $-1 -1 $-1 $31 $32 $33 $34 forward $12 $-1 #
coedge $-1 -1 $-1 $35 $14 $36 $37 forward $7 $-1 #
coedge $-1 -1 $-1 $14 $35 $38 $39 reversed $7 $-1 #
coedge $-1 -1 $-1 $40 $40 $14 $24 forward $28 $-1 #
edge $41 -1 $-1 $42 4.518552041663234e-16 $43 3.1415926535897931 $14 $44 forward @7 unknown #
DXID-attrib $-1 -1 $-1 $16 $11 @18 ASM_FACE_FROM_STEP @22 nm0-n-tr14x4-0-0-0-393 #
truecolor-adesk-attrib $-1 -1 $45 $-1 $17 -1056964608 #
face $46 -1 $-1 $47 $48 $3 $-1 $49 forward single #
loop $-1 -1 $-1 $50 $40 $17 #
plane-surface $-1 -1 $-1 -23.534501239516636 18.937321828395092 -3.7793858352859258e-15 -1 6.4197664812907894e-33 -3.42113882891801e-49 -3.42113882891801e-49 0 1 forward_v I I I I #
coedge $-1 -1 $-1 $51 $52 $53 $54 forward $18 $-1 #
coedge $-1 -1 $-1 $55 $20 $56 $57 forward $12 $-1 #
coedge $-1 -1 $-1 $20 $55 $58 $59 reversed $12 $-1 #
coedge $-1 -1 $-1 $52 $51 $20 $34 reversed $18 $-1 #
edge $60 -1 $-1 $61 -6.8278716014447143e-15 $62 3.1415926535897869 $20 $63 forward @7 unknown #
coedge $-1 -1 $-1 $22 $21 $55 $64 forward $7 $-1 #
coedge $-1 -1 $-1 $65 $66 $21 $37 reversed $67 $-1 #
edge $68 -1 $-1 $42 0 $69 0.00051384173957881227 $21 $70 forward @7 unknown #
coedge $-1 -1 $-1 $66 $65 $22 $39 forward $67 $-1 #
edge $71 -1 $-1 $43 0 $72 0.00051384173957880869 $22 $73 forward @7 unknown #
coedge $-1 -1 $-1 $23 $23 $65 $74 forward $28 $-1 #
truecolor-adesk-attrib $-1 -1 $75 $-1 $24 -1056964608 #
vertex $-1 -1 $-1 $24 $76 #
vertex $-1 -1 $-1 $24 $77 #
ellipse-curve $-1 -1 $-1 -23.534501239516636 18.937321828395092 -3.7793858352859258e-15 -1 9.3605910289805567e-34 2.2656288771936496e-33 -2.109132088027954e-48 1.899281538073103 -0.78470034990094872 1 F 4.518552041663234e-16 F 3.1415926535897931 #
DXID-attrib $-1 -1 $-1 $26 $17 @18 ASM_FACE_FROM_STEP @22 nm0-n-tr14x4-0-0-0-394 #
truecolor-adesk-attrib $-1 -1 $78 $-1 $27 -1056964608 #
face $79 -1 $-1 $80 $81 $3 $-1 $82 forward single #
loop $-1 -1 $-1 $-1 $53 $27 #
plane-surface $-1 -1 $-1 -15.534501239516636 18.935412581801693 -0.0046211229636852983 1 -6.4197664812907894e-33 3.42113882891801e-49 -6.4197664812907894e-33 -1 0 forward_v I I I I #
loop $-1 -1 $-1 $-1 $83 $17 #
coedge $-1 -1 $-1 $33 $30 $84 $85 forward $18 $-1 #
coedge $-1 -1 $-1 $30 $33 $86 $87 reversed $18 $-1 #
coedge $-1 -1 $-1 $88 $88 $30 $54 reversed $48 $-1 #
edge $89 -1 $-1 $90 -1.6264091378471253e-12 $91 3.1415926535881846 $30 $92 forward @7 unknown #
coedge $-1 -1 $-1 $32 $31 $35 $64 reversed $12 $-1 #
coedge $-1 -1 $-1 $93 $94 $31 $57 reversed $95 $-1 #
edge $96 -1 $-1 $62 -0.018205000000000002 $72 -0.012956920869789404 $31 $97 forward @7 unknown #
coedge $-1 -1 $-1 $94 $93 $32 $59 forward $95 $-1 #
edge $98 -1 $-1 $61 -0.018205000000000002 $69 -0.012956920869789404 $32 $99 forward @7 unknown #
truecolor-adesk-attrib $-1 -1 $100 $-1 $34 -1056964608 #
vertex $-1 -1 $-1 $34 $101 #
vertex $-1 -1 $-1 $34 $102 #
ellipse-curve $-1 -1 $-1 -18.029501239516637 18.937321828395092 -3.7793858352859258e-15 -1 9.3605910289805584e-34 2.2656288771936496e-33 -2.5658541216885075e-48 2.3105614818407574 -0.95462329671648238 1 F -6.8278716014447143e-15 F 3.1415926535897869 #
edge $103 -1 $-1 $69 -6.8278716014447143e-15 $72 3.1415926535897869 $35 $104 forward @7 unknown #
coedge $-1 -1 $-1 $38 $36 $40 $74 reversed $67 $-1 #
coedge $-1 -1 $-1 $36 $38 $94 $105 forward $67 $-1 #
loop $-1 -1 $-1 $-1 $36 $106 #
truecolor-adesk-attrib $-1 -1 $107 $-1 $37 -1056964608 #
vertex $-1 -1 $-1 $37 $108 #
straight-curve $-1 -1 $-1 -23.534501239516636 20.836603366468193 -0.78470034990095194 499.99999999999801 800.40197611196606 -330.69121040036998 F 0 F 0.00051384173957881227 #
truecolor-adesk-attrib $-1 -1 $109 $-1 $39 -1056964608 #
vertex $-1 -1 $-1 $64 $110 #
straight-curve $-1 -1 $-1 -23.534501239516636 17.038040290321987 0.78470034990094417 499.99999999999801 -800.40197611196606 330.69121040036998 F 0 F 0.00051384173957880869 #
edge $111 -1 $-1 $43 -3.1415926535897931 $42 4.518552041663234e-16 $40 $112 forward @7 unknown #
DXID-attrib $-1 -1 $-1 $41 $24 @18 ASM_EDGE_FROM_STEP @4 4912 #
point $-1 -1 $-1 -23.534501239516636 20.836603366468193 -0.78470034990095194 #
point $-1 -1 $-1 -23.534501239516636 17.038040290321987 0.78470034990094417 #
DXID-attrib $-1 -1 $-1 $46 $27 @18 ASM_FACE_FROM_STEP @22 nm0-n-tr14x4-0-0-0-395 #
truecolor-adesk-attrib $-1 -1 $113 $-1 $47 -1056964608 #
face $114 -1 $-1 $106 $95 $3 $-1 $115 forward single #
loop $-1 -1 $-1 $-1 $84 $47 #
cone-surface $-1 -1 $-1 -18.029501239516637 18.937321828395092 -3.7793858352859258e-15 -1 9.3605910289805584e-34 2.2656288771936496e-33 -2.5658541216885075e-48 2.3105614818407574 -0.95462329671648238 1 I I 0.70710678118654657 0.70710678118654846 2.5 forward I I I I #
coedge $-1 -1 $-1 $116 $117 $118 $119 reversed $50 $-1 #
coedge $-1 -1 $-1 $120 $121 $51 $85 reversed $81 $-1 #
edge $122 -1 $-1 $91 -0.0035284628381208874 $62 0 $51 $123 forward @7 unknown #
coedge $-1 -1 $-1 $121 $120 $52 $87 forward $81 $-1 #
edge $124 -1 $-1 $90 -0.0035284628381208869 $61 0 $52 $125 forward @7 unknown #
coedge $-1 -1 $-1 $53 $53 $120 $126 reversed $48 $-1 #
truecolor-adesk-attrib $-1 -1 $127 $-1 $54 -1056964608 #
vertex $-1 -1 $-1 $54 $128 #
vertex $-1 -1 $-1 $54 $129 #
ellipse-curve $-1 -1 $-1 -15.534501239516636 18.937321828395092 -3.7793858352859258e-15 -1 9.3605910289833912e-34 2.2656288771939297e-33 -1.7105694144587453e-51 0.0046211229636806926 -0.0019092465934329652 1 F -1.6264091378471253e-12 F 3.1415926535881846 #
coedge $-1 -1 $-1 $58 $56 $121 $130 forward $95 $-1 #
coedge $-1 -1 $-1 $56 $58 $66 $105 reversed $95 $-1 #
loop $-1 -1 $-1 $-1 $56 $80 #
truecolor-adesk-attrib $-1 -1 $131 $-1 $57 -1056964608 #
straight-curve $-1 -1 $-1 -36.234501239516639 16.626760346554292 0.95462329671647828 -1000 6.4197664812907894e-30 0 F -0.018205000000000002 F -0.012956920869789404 #
truecolor-adesk-attrib $-1 -1 $132 $-1 $59 -1056964608 #
straight-curve $-1 -1 $-1 -36.234501239516639 21.247883310235895 -0.95462329671648605 -1000 6.4197664812907894e-30 0 F -0.018205000000000002 F -0.012956920869789404 #
DXID-attrib $-1 -1 $-1 $60 $34 @18 ASM_EDGE_FROM_STEP @4 4916 #
point $-1 -1 $-1 -18.029501239516637 21.247883310235895 -0.95462329671648605 #
point $-1 -1 $-1 -18.029501239516637 16.626760346554292 0.95462329671647828 #
truecolor-adesk-attrib $-1 -1 $133 $-1 $64 -1056964608 #
ellipse-curve $-1 -1 $-1 -23.277580369727239 18.937321828395092 -3.7793858352859258e-15 -1 9.3605910289805584e-34 2.2656288771936496e-33 -2.5658541216885075e-48 2.3105614818407574 -0.95462329671648238 1 F -6.8278716014447143e-15 F 3.1415926535897869 #
edge $134 -1 $-1 $72 -3.1415926535897993 $69 -6.8278716014447143e-15 $94 $135 forward @7 unknown #
face $136 -1 $-1 $137 $67 $3 $-1 $138 forward single #
DXID-attrib $-1 -1 $-1 $68 $37 @18 ASM_EDGE_FROM_STEP @4 4913 #
point $-1 -1 $-1 -23.277580369727239 21.247883310235895 -0.95462329671648605 #
DXID-attrib $-1 -1 $-1 $71 $39 @18 ASM_EDGE_FROM_STEP @4 4915 #
point $-1 -1 $-1 -23.277580369727239 16.626760346554292 0.95462329671647828 #
truecolor-adesk-attrib $-1 -1 $139 $-1 $74 -1056964608 #
ellipse-curve $-1 -1 $-1 -23.534501239516636 18.937321828395092 -3.7793858352859258e-15 -1 9.3605910289805567e-34 2.2656288771936496e-33 -2.109132088027954e-48 1.899281538073103 -0.78470034990094872 1 F -3.1415926535897931 F 4.518552041663234e-16 #
DXID-attrib $-1 -1 $-1 $79 $47 @18 ASM_FACE_FROM_STEP @22 nm0-n-tr14x4-0-0-0-396 #
truecolor-adesk-attrib $-1 -1 $140 $-1 $80 -1056964608 #
cone-surface $-1 -1 $-1 -36.234501239516639 18.937321828395092 -3.7793858352859258e-15 1 -9.3605910289805584e-34 -2.2656288771936496e-33 -2.5658541216885075e-48 2.3105614818407574 -0.95462329671648238 1 I I 0 1 2.5 forward I I I I #
coedge $-1 -1 $-1 $141 $83 $142 $143 forward $50 $-1 #
coedge $-1 -1 $-1 $83 $144 $145 $146 reversed $50 $-1 #
coedge $-1 -1 $-1 $147 $148 $83 $119 forward $149 $-1 #
edge $150 -1 $-1 $151 0 $152 0.0014433756729740272 $83 $153 forward @7 unknown #
coedge $-1 -1 $-1 $86 $84 $88 $126 forward $81 $-1 #
coedge $-1 -1 $-1 $84 $86 $93 $130 reversed $81 $-1 #
truecolor-adesk-attrib $-1 -1 $154 $-1 $85 -1056964608 #
straight-curve $-1 -1 $-1 -18.029501239516637 16.626760346554292 0.95462329671647828 -707.10678118654801 -653.52547686321418 270.00824263475198 F -0.0035284628381208874 F 0 #
truecolor-adesk-attrib $-1 -1 $155 $-1 $87 -1056964608 #
straight-curve $-1 -1 $-1 -18.029501239516637 21.247883310235895 -0.95462329671648605 -707.10678118654914 653.52547686321418 -270.008242634753 F -0.0035284628381208869 F 0 #
edge $156 -1 $-1 $91 -3.1415926535914016 $90 -1.6264091378471253e-12 $88 $157 forward @7 unknown #
DXID-attrib $-1 -1 $-1 $89 $54 @18 ASM_EDGE_FROM_STEP @4 4919 #
point $-1 -1 $-1 -15.534501239516636 18.94194295135879 -0.0019092465934366484 #
point $-1 -1 $-1 -15.534501239516636 18.932700705431387 0.0019092465934292019 #
edge $158 -1 $-1 $62 -3.1415926535897993 $61 -6.8278716014447143e-15 $121 $159 forward @7 unknown #
DXID-attrib $-1 -1 $-1 $96 $57 @18 ASM_EDGE_FROM_STEP @4 4917 #
DXID-attrib $-1 -1 $-1 $98 $59 @18 ASM_EDGE_FROM_STEP @4 4918 #
DXID-attrib $-1 -1 $-1 $103 $64 @18 ASM_EDGE_FROM_STEP @4 4914 #
truecolor-adesk-attrib $-1 -1 $160 $-1 $105 -1056964608 #
ellipse-curve $-1 -1 $-1 -23.277580369727239 18.937321828395092 -3.7793858352859258e-15 -1 9.3605910289805584e-34 2.2656288771936496e-33 -2.5658541216885075e-48 2.3105614818407574 -0.95462329671648238 1 F -3.1415926535897993 F -6.8278716014447143e-15 #
truecolor-adesk-attrib $-1 -1 $161 $-1 $106 -1056964608 #
face $162 -1 $-1 $163 $164 $3 $-1 $165 forward single #
cone-surface $-1 -1 $-1 -23.534501239516636 18.937321828395092 -3.7793858352859258e-15 1 -9.3605910289805567e-34 -2.2656288771936496e-33 2.109132088027954e-48 -1.899281538073103 0.78470034990094872 1 I I 0.86602540378443982 0.499999999999998 2.0550000000000006 forward I I I I #
DXID-attrib $-1 -1 $-1 $111 $74 @18 ASM_EDGE_FROM_STEP @4 4922 #
DXID-attrib $-1 -1 $-1 $114 $80 @18 ASM_FACE_FROM_STEP @22 nm0-n-tr14x4-0-0-0-397 #
coedge $-1 -1 $-1 $166 $116 $167 $168 reversed $50 $-1 #
coedge $-1 -1 $-1 $169 $170 $116 $143 reversed $164 $-1 #
edge $171 -1 $-1 $151 0 $172 0.0014433756729740537 $116 $173 forward @7 unknown #
coedge $-1 -1 $-1 $117 $166 $174 $175 forward $50 $-1 #
coedge $-1 -1 $-1 $176 $177 $117 $146 forward $178 $-1 #
edge $179 -1 $-1 $152 0 $180 0.0014433756729740617 $117 $181 forward @7 unknown #
coedge $-1 -1 $-1 $182 $118 $177 $183 reversed $149 $-1 #
coedge $-1 -1 $-1 $118 $182 $169 $184 forward $149 $-1 #
loop $-1 -1 $-1 $-1 $118 $185 #
truecolor-adesk-attrib $-1 -1 $186 $-1 $119 -1056964608 #
vertex $-1 -1 $-1 $119 $187 #
vertex $-1 -1 $-1 $119 $188 #
straight-curve $-1 -1 $-1 -23.534501239516636 19.127011826796796 -1.430856749587361 -5.9333060616331506e-30 -924.22459273630295 381.84931868659299 F 0 F 0.0014433756729740272 #
DXID-attrib $-1 -1 $-1 $122 $85 @18 ASM_EDGE_FROM_STEP @4 4920 #
DXID-attrib $-1 -1 $-1 $124 $87 @18 ASM_EDGE_FROM_STEP @4 4921 #
truecolor-adesk-attrib $-1 -1 $189 $-1 $126 -1056964608 #
ellipse-curve $-1 -1 $-1 -15.534501239516636 18.937321828395092 -3.7793858352859258e-15 -1 9.3605910289833912e-34 2.2656288771939297e-33 -1.7105694144587453e-51 0.0046211229636806926 -0.0019092465934329652 1 F -3.1415926535914016 F -1.6264091378471253e-12 #
truecolor-adesk-attrib $-1 -1 $190 $-1 $130 -1056964608 #
ellipse-curve $-1 -1 $-1 -18.029501239516637 18.937321828395092 -3.7793858352859258e-15 -1 9.3605910289805584e-34 2.2656288771936496e-33 -2.5658541216885075e-48 2.3105614818407574 -0.95462329671648238 1 F -3.1415926535897993 F -6.8278716014447143e-15 #
DXID-attrib $-1 -1 $-1 $134 $105 @18 ASM_EDGE_FROM_STEP @4 4931 #
DXID-attrib $-1 -1 $-1 $136 $106 @18 ASM_FACE_FROM_STEP @22 nm0-n-tr14x4-0-0-0-398 #
truecolor-adesk-attrib $-1 -1 $191 $-1 $137 -1056964608 #
face $192 -1 $-1 $193 $194 $3 $-1 $195 reversed single #
loop $-1 -1 $-1 $-1 $142 $137 #
plane-surface $-1 -1 $-1 -20.534501239516636 19.127011826796796 -1.430856749587361 -3.9127020492985479e-33 -0.60947731676866879 0.79280350676852063 -1 6.419766481290788e-33 6.8422776578360209e-49 forward_v I I I I #
coedge $-1 -1 $-1 $144 $141 $196 $197 forward $50 $-1 #
coedge $-1 -1 $-1 $198 $199 $141 $168 forward $194 $-1 #
edge $200 -1 $-1 $201 0 $172 0.0014433756729740625 $141 $202 forward @7 unknown #
coedge $-1 -1 $-1 $203 $142 $148 $184 reversed $164 $-1 #
coedge $-1 -1 $-1 $142 $203 $198 $204 forward $164 $-1 #
truecolor-adesk-attrib $-1 -1 $205 $-1 $143 -1056964608 #
vertex $-1 -1 $-1 $143 $206 #
straight-curve $-1 -1 $-1 -23.534501239516636 19.127011826796796 -1.430856749587361 5.0896133790023408e-30 792.80350676852095 609.47731676866897 F 0 F 0.0014433756729740537 #
coedge $-1 -1 $-1 $207 $208 $144 $175 reversed $209 $-1 #
edge $210 -1 $-1 $211 0 $180 0.0014433756729740554 $144 $212 forward @7 unknown #
coedge $-1 -1 $-1 $213 $145 $208 $214 reversed $178 $-1 #
coedge $-1 -1 $-1 $145 $213 $147 $183 forward $178 $-1 #
loop $-1 -1 $-1 $-1 $145 $215 #
truecolor-adesk-attrib $-1 -1 $216 $-1 $146 -1056964608 #
vertex $-1 -1 $-1 $175 $217 #
straight-curve $-1 -1 $-1 -23.534501239516636 17.79300853327689 -0.87970473225340995 -8.4369268263080597e-31 -131.42108596778303 991.326635455261 F 0 F 0.0014433756729740617 #
coedge $-1 -1 $-1 $148 $147 $218 $219 reversed $149 $-1 #
edge $220 -1 $-1 $221 0 $152 0.0029999999999999983 $177 $222 forward @7 unknown #
edge $223 -1 $-1 $224 0 $151 0.0029999999999999983 $169 $225 forward @7 unknown #
face $226 -1 $-1 $227 $149 $3 $-1 $228 reversed single #
DXID-attrib $-1 -1 $-1 $150 $119 @18 ASM_EDGE_FROM_STEP @4 4923 #
point $-1 -1 $-1 -23.534501239516636 19.127011826796796 -1.430856749587361 #
point $-1 -1 $-1 -23.534501239516636 17.79300853327689 -0.87970473225340995 #
DXID-attrib $-1 -1 $-1 $156 $126 @18 ASM_EDGE_FROM_STEP @4 4929 #
DXID-attrib $-1 -1 $-1 $158 $130 @18 ASM_EDGE_FROM_STEP @4 4930 #
DXID-attrib $-1 -1 $-1 $162 $137 @18 ASM_FACE_FROM_STEP @22 nm0-n-tr14x4-0-0-0-399 #
truecolor-adesk-attrib $-1 -1 $229 $-1 $163 -1056964608 #
face $230 -1 $-1 $231 $232 $3 $-1 $233 forward single #
loop $-1 -1 $-1 $-1 $167 $163 #
plane-surface $-1 -1 $-1 -20.534501239516636 20.081635123513287 0.87970473225339918 6.364085506306463e-33 0.99132663545526145 0.13142108596778204 1 -1.7789921910373654e-47 -4.8425147756476505e-32 forward_v I I I I #
coedge $-1 -1 $-1 $234 $235 $166 $197 reversed $232 $-1 #
edge $236 -1 $-1 $201 0 $211 0.0014433756729740229 $166 $237 forward @7 unknown #
coedge $-1 -1 $-1 $238 $167 $170 $204 reversed $194 $-1 #
coedge $-1 -1 $-1 $167 $238 $234 $239 forward $194 $-1 #
truecolor-adesk-attrib $-1 -1 $240 $-1 $168 -1056964608 #
vertex $-1 -1 $-1 $168 $241 #
straight-curve $-1 -1 $-1 -23.534501239516636 20.081635123513287 0.87970473225339918 8.4369268263080405e-31 131.42108596778198 -991.326635455261 F 0 F 0.0014433756729740625 #
coedge $-1 -1 $-1 $170 $169 $242 $243 forward $164 $-1 #
edge $244 -1 $-1 $245 0 $172 0.0029999999999999983 $170 $246 forward @7 unknown #
DXID-attrib $-1 -1 $-1 $171 $143 @18 ASM_EDGE_FROM_STEP @4 4924 #
point $-1 -1 $-1 -23.534501239516636 20.271325121914987 -0.55115201733395491 #
coedge $-1 -1 $-1 $247 $174 $235 $248 reversed $209 $-1 #
coedge $-1 -1 $-1 $174 $247 $176 $214 forward $209 $-1 #
loop $-1 -1 $-1 $-1 $174 $231 #
truecolor-adesk-attrib $-1 -1 $249 $-1 $175 -1056964608 #
vertex $-1 -1 $-1 $197 $250 #
straight-curve $-1 -1 $-1 -23.534501239516636 18.747631829993395 1.4308567495873492 -5.0896133790023408e-30 -792.80350676852095 -609.47731676866897 F 0 F 0.0014433756729740554 #
coedge $-1 -1 $-1 $177 $176 $251 $252 reversed $178 $-1 #
edge $253 -1 $-1 $254 0 $180 0.0029999999999999983 $208 $255 forward @7 unknown #
face $256 -1 $-1 $185 $178 $3 $-1 $257 reversed single #
DXID-attrib $-1 -1 $-1 $179 $146 @18 ASM_EDGE_FROM_STEP @4 4928 #
point $-1 -1 $-1 -23.534501239516636 17.603318534875193 0.55115201733394314 #
coedge $-1 -1 $-1 $251 $242 $182 $219 forward $258 $-1 #
edge $259 -1 $-1 $224 0 $221 0.0014433756729740272 $182 $260 forward @7 unknown #
truecolor-adesk-attrib $-1 -1 $261 $-1 $183 -1056964608 #
vertex $-1 -1 $-1 $252 $262 #
straight-curve $-1 -1 $-1 -20.534501239516636 17.79300853327689 -0.87970473225340995 -1000 6.4197664812907894e-30 0 F 0 F 0.0029999999999999983 #
truecolor-adesk-attrib $-1 -1 $263 $-1 $184 -1056964608 #
vertex $-1 -1 $-1 $184 $264 #
straight-curve $-1 -1 $-1 -20.534501239516636 19.127011826796796 -1.430856749587361 -1000 6.4197664812907894e-30 0 F 0 F 0.0029999999999999983 #
truecolor-adesk-attrib $-1 -1 $265 $-1 $185 -1056964608 #
face $266 -1 $-1 $-1 $258 $3 $-1 $267 reversed single #
plane-surface $-1 -1 $-1 -20.534501239516636 19.127011826796796 -1.430856749587361 -2.45138345700791e-33 -0.381849318686593 -0.92422459273630297 0 -0.92422459273630286 0.38184931868659294 forward_v I I I I #
DXID-attrib $-1 -1 $-1 $192 $163 @18 ASM_FACE_FROM_STEP @22 nm0-n-tr14x4-0-0-0-400 #
truecolor-adesk-attrib $-1 -1 $268 $-1 $193 -1056964608 #
face $269 -1 $-1 $215 $209 $3 $-1 $270 forward single #
loop $-1 -1 $-1 $-1 $196 $193 #
plane-surface $-1 -1 $-1 -20.534501239516636 20.081635123513287 0.87970473225339918 -2.45138345700791e-33 -0.381849318686593 -0.92422459273630297 0 -0.92422459273630286 0.38184931868659294 forward_v I I I I #
coedge $-1 -1 $-1 $271 $196 $199 $239 reversed $232 $-1 #
coedge $-1 -1 $-1 $196 $271 $207 $248 forward $232 $-1 #
truecolor-adesk-attrib $-1 -1 $272 $-1 $197 -1056964608 #
straight-curve $-1 -1 $-1 -23.534501239516636 20.081635123513287 0.87970473225339918 -5.9333060616331506e-30 -924.22459273630295 381.84931868659299 F 0 F 0.0014433756729740229 #
coedge $-1 -1 $-1 $199 $198 $273 $274 reversed $194 $-1 #
edge $275 -1 $-1 $276 0 $201 0.0029999999999999983 $199 $277 forward @7 unknown #
DXID-attrib $-1 -1 $-1 $200 $168 @18 ASM_EDGE_FROM_STEP @4 4925 #
point $-1 -1 $-1 -23.534501239516636 20.081635123513287 0.87970473225339918 #
coedge $-1 -1 $-1 $218 $273 $203 $243 reversed $258 $-1 #
edge $278 -1 $-1 $224 0 $245 0.0014433756729740537 $203 $279 forward @7 unknown #
truecolor-adesk-attrib $-1 -1 $280 $-1 $204 -1056964608 #
vertex $-1 -1 $-1 $243 $281 #
straight-curve $-1 -1 $-1 -20.534501239516636 20.271325121914987 -0.55115201733395491 -1000 6.4197664812907894e-30 0 F 0 F 0.0029999999999999983 #
coedge $-1 -1 $-1 $208 $207 $282 $283 forward $209 $-1 #
edge $284 -1 $-1 $285 0 $211 0.0029999999999999983 $235 $286 forward @7 unknown #
DXID-attrib $-1 -1 $-1 $210 $175 @18 ASM_EDGE_FROM_STEP @4 4927 #
point $-1 -1 $-1 -23.534501239516636 18.747631829993395 1.4308567495873492 #
coedge $-1 -1 $-1 $282 $218 $213 $252 forward $258 $-1 #
edge $287 -1 $-1 $221 0 $254 0.0014433756729740617 $213 $288 forward @7 unknown #
truecolor-adesk-attrib $-1 -1 $289 $-1 $214 -1056964608 #
vertex $-1 -1 $-1 $283 $290 #
straight-curve $-1 -1 $-1 -20.534501239516636 17.603318534875193 0.55115201733394314 -1000 6.4197664812907894e-30 0 F 0 F 0.0029999999999999983 #
truecolor-adesk-attrib $-1 -1 $291 $-1 $215 -1056964608 #
plane-surface $-1 -1 $-1 -20.534501239516636 17.79300853327689 -0.87970473225340995 -6.364085506306463e-33 -0.99132663545526134 -0.13142108596778307 1.710569414459006e-49 0.13142108596778307 -0.99132663545526134 forward_v I I I I #
loop $-1 -1 $-1 $-1 $242 $227 #
truecolor-adesk-attrib $-1 -1 $292 $-1 $219 -1056964608 #
straight-curve $-1 -1 $-1 -20.534501239516636 19.127011826796796 -1.430856749587361 -5.9333060616331506e-30 -924.22459273630295 381.84931868659299 F 0 F 0.0014433756729740272 #
DXID-attrib $-1 -1 $-1 $220 $183 @18 ASM_EDGE_FROM_STEP @4 4942 #
point $-1 -1 $-1 -20.534501239516636 17.79300853327689 -0.87970473225340995 #
DXID-attrib $-1 -1 $-1 $223 $184 @18 ASM_EDGE_FROM_STEP @4 4932 #
point $-1 -1 $-1 -20.534501239516636 19.127011826796796 -1.430856749587361 #
DXID-attrib $-1 -1 $-1 $226 $185 @18 ASM_FACE_FROM_STEP @22 nm0-n-tr14x4-0-0-0-404 #
truecolor-adesk-attrib $-1 -1 $293 $-1 $227 -1056964608 #
plane-surface $-1 -1 $-1 -20.534501239516636 17.982698531678594 -2.3105614818407609 1 -6.4197664812907894e-33 3.42113882891801e-49 -6.4197664812907894e-33 -1 0 forward_v I I I I #
DXID-attrib $-1 -1 $-1 $230 $193 @18 ASM_FACE_FROM_STEP @22 nm0-n-tr14x4-0-0-0-401 #
truecolor-adesk-attrib $-1 -1 $294 $-1 $231 -1056964608 #
plane-surface $-1 -1 $-1 -20.534501239516636 18.747631829993395 1.4308567495873492 3.9127020492985479e-33 0.60947731676866879 -0.79280350676852063 -1 -1.7105694144590052e-48 -4.9352733885433778e-33 forward_v I I I I #
coedge $-1 -1 $-1 $235 $234 $295 $296 forward $232 $-1 #
DXID-attrib $-1 -1 $-1 $236 $197 @18 ASM_EDGE_FROM_STEP @4 4926 #
coedge $-1 -1 $-1 $242 $295 $238 $274 forward $258 $-1 #
edge $297 -1 $-1 $276 0 $245 0.0014433756729740625 $238 $298 forward @7 unknown #
truecolor-adesk-attrib $-1 -1 $299 $-1 $239 -1056964608 #
vertex $-1 -1 $-1 $274 $300 #
straight-curve $-1 -1 $-1 -20.534501239516636 20.081635123513287 0.87970473225339918 -1000 6.4197664812907894e-30 0 F 0 F 0.0029999999999999983 #
truecolor-adesk-attrib $-1 -1 $301 $-1 $243 -1056964608 #
straight-curve $-1 -1 $-1 -20.534501239516636 19.127011826796796 -1.430856749587361 5.0896133790023408e-30 792.80350676852095 609.47731676866897 F 0 F 0.0014433756729740537 #
DXID-attrib $-1 -1 $-1 $244 $204 @18 ASM_EDGE_FROM_STEP @4 4934 #
point $-1 -1 $-1 -20.534501239516636 20.271325121914987 -0.55115201733395491 #
coedge $-1 -1 $-1 $295 $251 $247 $283 reversed $258 $-1 #
edge $302 -1 $-1 $285 0 $254 0.0014433756729740554 $247 $303 forward @7 unknown #
truecolor-adesk-attrib $-1 -1 $304 $-1 $248 -1056964608 #
vertex $-1 -1 $-1 $296 $305 #
straight-curve $-1 -1 $-1 -20.534501239516636 18.747631829993395 1.4308567495873492 -1000 6.4197664812907894e-30 0 F 0 F 0.0029999999999999983 #
truecolor-adesk-attrib $-1 -1 $306 $-1 $252 -1056964608 #
straight-curve $-1 -1 $-1 -20.534501239516636 17.79300853327689 -0.87970473225340995 -8.4369268263080597e-31 -131.42108596778303 991.326635455261 F 0 F 0.0014433756729740617 #
DXID-attrib $-1 -1 $-1 $253 $214 @18 ASM_EDGE_FROM_STEP @4 4940 #
point $-1 -1 $-1 -20.534501239516636 17.603318534875193 0.55115201733394314 #
DXID-attrib $-1 -1 $-1 $256 $215 @18 ASM_FACE_FROM_STEP @22 nm0-n-tr14x4-0-0-0-403 #
DXID-attrib $-1 -1 $-1 $259 $219 @18 ASM_EDGE_FROM_STEP @4 4943 #
DXID-attrib $-1 -1 $-1 $266 $227 @18 ASM_FACE_FROM_STEP @22 nm0-n-tr14x4-0-0-0-405 #
DXID-attrib $-1 -1 $-1 $269 $231 @18 ASM_FACE_FROM_STEP @22 nm0-n-tr14x4-0-0-0-402 #
coedge $-1 -1 $-1 $273 $282 $271 $296 reversed $258 $-1 #
edge $307 -1 $-1 $276 0 $285 0.0014433756729740229 $271 $308 forward @7 unknown #
truecolor-adesk-attrib $-1 -1 $309 $-1 $274 -1056964608 #
straight-curve $-1 -1 $-1 -20.534501239516636 20.081635123513287 0.87970473225339918 8.4369268263080405e-31 131.42108596778198 -991.326635455261 F 0 F 0.0014433756729740625 #
DXID-attrib $-1 -1 $-1 $275 $239 @18 ASM_EDGE_FROM_STEP @4 4936 #
point $-1 -1 $-1 -20.534501239516636 20.081635123513287 0.87970473225339918 #
DXID-attrib $-1 -1 $-1 $278 $243 @18 ASM_EDGE_FROM_STEP @4 4933 #
truecolor-adesk-attrib $-1 -1 $310 $-1 $283 -1056964608 #
straight-curve $-1 -1 $-1 -20.534501239516636 18.747631829993395 1.4308567495873492 -5.0896133790023408e-30 -792.80350676852095 -609.47731676866897 F 0 F 0.0014433756729740554 #
DXID-attrib $-1 -1 $-1 $284 $248 @18 ASM_EDGE_FROM_STEP @4 4938 #
point $-1 -1 $-1 -20.534501239516636 18.747631829993395 1.4308567495873492 #
DXID-attrib $-1 -1 $-1 $287 $252 @18 ASM_EDGE_FROM_STEP @4 4941 #
truecolor-adesk-attrib $-1 -1 $311 $-1 $296 -1056964608 #
straight-curve $-1 -1 $-1 -20.534501239516636 20.081635123513287 0.87970473225339918 -5.9333060616331506e-30 -924.22459273630295 381.84931868659299 F 0 F 0.0014433756729740229 #
DXID-attrib $-1 -1 $-1 $297 $274 @18 ASM_EDGE_FROM_STEP @4 4935 #
DXID-attrib $-1 -1 $-1 $302 $283 @18 ASM_EDGE_FROM_STEP @4 4939 #
DXID-attrib $-1 -1 $-1 $307 $296 @18 ASM_EDGE_FROM_STEP @4 4937 #
