700 543 1 0         
5 ZWCAD 12 ACIS 28.0 NT 24 Mon May 13 16:54:15 2024 
1 9.9999999999999995e-07 1e-10 
body $1 -1 $-1 $2 $-1 $-1 #
DXID-attrib $-1 -1 $-1 $-1 $0 @18 ASM_BODY_FROM_STEP @83 75AD4880014BDF14FE17CB492E3D10561DA1E388|:|2EB18B6C522D039C3C0DCD7089256C0AD6492059 #
lump $-1 -1 $-1 $-1 $3 $0 #
shell $-1 -1 $-1 $-1 $-1 $4 $-1 $2 #
face $5 -1 $-1 $6 $7 $3 $-1 $8 reversed single #
truecolor-adesk-attrib $-1 -1 $9 $-1 $4 -1056964608 #
face $10 -1 $-1 $11 $12 $3 $-1 $13 forward single #
loop $-1 -1 $-1 $-1 $14 $4 #
cone-surface $-1 -1 $-1 739.61170861407265 16.428681193721872 8.0000000000000089 0 1.8369701987210297e-16 1 1.5355000000000005 0 0 1 I I 0.86602540378443515 0.50000000000000611 1.5355000000000005 forward I I I I #
DXID-attrib $-1 -1 $-1 $5 $4 @18 ASM_FACE_FROM_STEP @24 OSC.ProjectAsembly-43164 #
truecolor-adesk-attrib $-1 -1 $15 $-1 $6 -1056964608 #
face $16 -1 $-1 $17 $18 $3 $-1 $19 reversed single #
loop $-1 -1 $-1 $-1 $20 $6 #
torus-surface $-1 -1 $-1 739.61170861407265 16.428681193721872 9.8000000000000096 0 1.8369701987210297e-16 1 3.2999999999999998 0.20000000000000004 1 0 0 forward_v I I I I #
coedge $-1 -1 $-1 $21 $22 $23 $24 reversed $7 $-1 #
DXID-attrib $-1 -1 $-1 $10 $6 @18 ASM_FACE_FROM_STEP @24 OSC.ProjectAsembly-58375 #
truecolor-adesk-attrib $-1 -1 $25 $-1 $11 -1056964608 #
face $26 -1 $-1 $27 $28 $3 $-1 $29 forward single #
loop $-1 -1 $-1 $-1 $30 $11 #
torus-surface $-1 -1 $-1 739.61170861407265 16.428681193721872 5.8000000000000069 0 -1.8369701987210297e-16 -1 2.1999999999998572 0.20000000000000004 -1 0 -0 forward_v I I I I #
coedge $-1 -1 $-1 $31 $32 $33 $34 reversed $12 $-1 #
coedge $-1 -1 $-1 $35 $14 $36 $37 forward $7 $-1 #
coedge $-1 -1 $-1 $14 $38 $39 $40 forward $7 $-1 #
coedge $-1 -1 $-1 $41 $36 $14 $24 forward $42 $-1 #
edge $43 -1 $-1 $44 -0.001773042676681348 $45 -3.1248143653732779e-18 $14 $46 forward @7 unknown #
DXID-attrib $-1 -1 $-1 $16 $11 @18 ASM_FACE_FROM_STEP @24 OSC.ProjectAsembly-18822 #
truecolor-adesk-attrib $-1 -1 $47 $-1 $17 -1056964608 #
face $48 -1 $-1 $49 $50 $3 $-1 $51 forward single #
loop $-1 -1 $-1 $-1 $52 $17 #
cone-surface $-1 -1 $-1 739.61170861407265 16.428681193721868 -13.999999999999995 0 1.8369701987210297e-16 1 1.6100000000000001 0 0 1 I I 0.70710678118603931 0.70710678118705572 1.6100000000000003 forward I I I I #
coedge $-1 -1 $-1 $53 $54 $55 $56 reversed $18 $-1 #
coedge $-1 -1 $-1 $57 $20 $58 $59 forward $12 $-1 #
coedge $-1 -1 $-1 $20 $57 $60 $61 reversed $12 $-1 #
coedge $-1 -1 $-1 $62 $63 $20 $34 forward $64 $-1 #
edge $65 -1 $-1 $66 -3.1415926535897931 $67 0 $20 $68 forward @7 unknown #
coedge $-1 -1 $-1 $38 $21 $69 $70 forward $7 $-1 #
coedge $-1 -1 $-1 $23 $71 $21 $37 reversed $42 $-1 #
edge $72 -1 $-1 $44 -0.001773042676681348 $73 2.1633330221814998e-18 $21 $74 forward @7 unknown #
coedge $-1 -1 $-1 $22 $35 $75 $76 forward $7 $-1 #
coedge $-1 -1 $-1 $77 $78 $22 $40 reversed $79 $-1 #
edge $80 -1 $-1 $81 -1.0471975511965965 $45 1.1006863715918625e-15 $22 $82 forward @7 unknown #
coedge $-1 -1 $-1 $83 $23 $84 $85 forward $42 $-1 #
loop $-1 -1 $-1 $-1 $36 $86 #
truecolor-adesk-attrib $-1 -1 $87 $-1 $24 -1056964608 #
vertex $-1 -1 $-1 $24 $88 #
vertex $-1 -1 $-1 $24 $89 #
straight-curve $-1 -1 $-1 741.14720861407261 16.428681193721872 8.0000000000000089 866.02540378443518 9.1848509936052573e-14 500.00000000000591 F -0.001773042676681348 F -3.1248143653732779e-18 #
DXID-attrib $-1 -1 $-1 $26 $17 @18 ASM_FACE_FROM_STEP @24 OSC.ProjectAsembly-12446 #
truecolor-adesk-attrib $-1 -1 $90 $-1 $27 -1056964608 #
face $91 -1 $-1 $92 $64 $3 $-1 $93 forward single #
loop $-1 -1 $-1 $-1 $94 $27 #
cone-surface $-1 -1 $-1 739.61170861407265 16.428681193721879 41.749999999999964 0 1.8369701987210297e-16 1 1.9999999999998572 0 0 1 I I 0 1 1.9999999999998572 forward I I I I #
coedge $-1 -1 $-1 $95 $96 $97 $98 forward $28 $-1 #
coedge $-1 -1 $-1 $99 $30 $100 $101 forward $18 $-1 #
coedge $-1 -1 $-1 $30 $99 $102 $103 reversed $18 $-1 #
coedge $-1 -1 $-1 $104 $105 $30 $56 forward $106 $-1 #
edge $107 -1 $-1 $108 -3.1415926535897931 $109 1.2246467991473527e-16 $30 $110 forward @7 unknown #
coedge $-1 -1 $-1 $32 $31 $111 $112 reversed $12 $-1 #
coedge $-1 -1 $-1 $113 $114 $31 $59 reversed $115 $-1 #
edge $116 -1 $-1 $66 -3.1415926535897931 $117 -1.5707963267948966 $31 $118 forward @7 unknown #
coedge $-1 -1 $-1 $114 $113 $32 $61 forward $115 $-1 #
edge $119 -1 $-1 $67 -3.1415926535897931 $120 -1.5707963267948966 $32 $121 forward @7 unknown #
coedge $-1 -1 $-1 $122 $33 $123 $124 reversed $64 $-1 #
coedge $-1 -1 $-1 $33 $122 $125 $126 forward $64 $-1 #
loop $-1 -1 $-1 $-1 $122 $49 #
truecolor-adesk-attrib $-1 -1 $127 $-1 $34 -1056964608 #
vertex $-1 -1 $-1 $34 $128 #
vertex $-1 -1 $-1 $34 $129 #
ellipse-curve $-1 -1 $-1 739.61170861407265 16.428681193721872 9.8000000000000096 0 -1.8369701987210297e-16 -1 3.5 0 0 1 F -3.1415926535897931 F 0 #
coedge $-1 -1 $-1 $130 $131 $35 $70 reversed $132 $-1 #
edge $133 -1 $-1 $73 -3.1415926535897922 $134 -2.0943951023931939 $35 $135 forward @7 unknown #
coedge $-1 -1 $-1 $36 $83 $136 $137 forward $42 $-1 #
truecolor-adesk-attrib $-1 -1 $138 $-1 $37 -1056964608 #
vertex $-1 -1 $-1 $37 $139 #
straight-curve $-1 -1 $-1 738.0762086140727 16.428681193721872 8.0000000000000089 -866.02540378443518 1.9790603380854283e-13 500.00000000000591 F -0.001773042676681348 F 2.1633330221814998e-18 #
coedge $-1 -1 $-1 $140 $141 $38 $76 reversed $142 $-1 #
edge $143 -1 $-1 $134 -2.0943951023931939 $81 -1.0471975511965965 $38 $144 forward @7 unknown #
coedge $-1 -1 $-1 $78 $39 $145 $146 reversed $79 $-1 #
coedge $-1 -1 $-1 $39 $77 $147 $148 forward $79 $-1 #
loop $-1 -1 $-1 $-1 $39 $149 #
truecolor-adesk-attrib $-1 -1 $150 $-1 $40 -1056964608 #
vertex $-1 -1 $-1 $76 $151 #
ellipse-curve $-1 -1 $-1 739.61170861407265 16.428681193721872 8.0000000000000089 0 1.8369701987210297e-16 1 1.5355000000000005 0 0 1 F -1.0471975511965965 F 1.1006863715918625e-15 #
coedge $-1 -1 $-1 $71 $41 $152 $153 forward $42 $-1 #
coedge $-1 -1 $-1 $154 $155 $41 $85 reversed $156 $-1 #
edge $157 -1 $-1 $45 1.1006863715918625e-15 $158 1.0471975511965994 $84 $159 forward @7 unknown #
face $160 -1 $-1 $-1 $42 $3 $-1 $161 reversed single #
DXID-attrib $-1 -1 $-1 $43 $24 @18 ASM_EDGE_FROM_STEP @5 45270 #
point $-1 -1 $-1 739.61170861407265 16.428681193721872 7.1134786616593235 #
point $-1 -1 $-1 741.14720861407261 16.428681193721872 8.0000000000000089 #
DXID-attrib $-1 -1 $-1 $48 $27 @18 ASM_FACE_FROM_STEP @23 OSC.ProjectAsembly-5347 #
truecolor-adesk-attrib $-1 -1 $162 $-1 $49 -1056964608 #
face $163 -1 $-1 $164 $165 $3 $-1 $166 forward single #
cone-surface $-1 -1 $-1 739.61170861407265 16.428681193721879 41.749999999999964 0 1.8369701987210297e-16 1 3.5 0 0 1 I I 0 1 3.5 forward I I I I #
coedge $-1 -1 $-1 $167 $168 $169 $170 forward $50 $-1 #
coedge $-1 -1 $-1 $169 $52 $171 $172 forward $28 $-1 #
coedge $-1 -1 $-1 $52 $169 $173 $174 reversed $28 $-1 #
coedge $-1 -1 $-1 $175 $175 $52 $98 reversed $176 $-1 #
edge $177 -1 $-1 $178 0 $179 3.1415926535897931 $52 $180 forward @7 unknown #
coedge $-1 -1 $-1 $54 $53 $181 $182 reversed $18 $-1 #
coedge $-1 -1 $-1 $183 $184 $53 $101 reversed $185 $-1 #
edge $186 -1 $-1 $108 -3.1415926535897931 $187 -1.5707963267948966 $53 $188 forward @7 unknown #
coedge $-1 -1 $-1 $184 $183 $54 $103 forward $185 $-1 #
edge $189 -1 $-1 $109 -3.1415926535897931 $190 -1.5707963267948966 $54 $191 forward @7 unknown #
coedge $-1 -1 $-1 $192 $55 $167 $193 reversed $106 $-1 #
coedge $-1 -1 $-1 $55 $192 $168 $194 forward $106 $-1 #
loop $-1 -1 $-1 $-1 $104 $195 #
truecolor-adesk-attrib $-1 -1 $196 $-1 $56 -1056964608 #
vertex $-1 -1 $-1 $56 $197 #
vertex $-1 -1 $-1 $56 $198 #
ellipse-curve $-1 -1 $-1 739.61170861407265 16.428681193721872 5.8000000000000069 0 -1.8369701987210297e-16 -1 -1.9999999999998572 0 -0 1 F -3.1415926535897931 F 1.2246467991473527e-16 #
coedge $-1 -1 $-1 $199 $199 $57 $112 forward $165 $-1 #
edge $200 -1 $-1 $120 0 $117 3.1415926535897931 $57 $201 forward @7 unknown #
coedge $-1 -1 $-1 $60 $58 $202 $203 reversed $115 $-1 #
coedge $-1 -1 $-1 $58 $60 $199 $204 reversed $115 $-1 #
loop $-1 -1 $-1 $-1 $58 $205 #
truecolor-adesk-attrib $-1 -1 $206 $-1 $59 -1056964608 #
vertex $-1 -1 $-1 $59 $207 #
ellipse-curve $-1 -1 $-1 736.3117086140727 16.428681193721872 9.8000000000000096 1.224646799147353e-16 1 -1.8369701987210297e-16 0.20000000000000012 -2.4492935982947075e-17 4.4992793479855749e-33 1 F -3.1415926535897931 F -1.5707963267948966 #
truecolor-adesk-attrib $-1 -1 $208 $-1 $61 -1056964608 #
vertex $-1 -1 $-1 $112 $209 #
ellipse-curve $-1 -1 $-1 742.91170861407261 16.428681193721872 9.8000000000000096 0 -1 1.8369701987210297e-16 -0.20000000000000012 0 -0 1 F -3.1415926535897931 F -1.5707963267948966 #
coedge $-1 -1 $-1 $63 $62 $210 $211 forward $64 $-1 #
coedge $-1 -1 $-1 $202 $212 $62 $124 forward $213 $-1 #
edge $214 -1 $-1 $215 -0.035749999999999962 $67 -0.031949999999999958 $62 $216 forward @7 unknown #
coedge $-1 -1 $-1 $212 $202 $63 $126 reversed $213 $-1 #
edge $217 -1 $-1 $218 -0.035749999999999962 $66 -0.031949999999999958 $63 $219 forward @7 unknown #
DXID-attrib $-1 -1 $-1 $65 $34 @18 ASM_EDGE_FROM_STEP @5 25874 #
point $-1 -1 $-1 736.11170861407265 16.428681193721872 9.8000000000000096 #
point $-1 -1 $-1 743.11170861407265 16.428681193721872 9.8000000000000096 #
coedge $-1 -1 $-1 $131 $69 $220 $221 forward $132 $-1 #
coedge $-1 -1 $-1 $69 $130 $222 $223 reversed $132 $-1 #
loop $-1 -1 $-1 $-1 $69 $224 #
truecolor-adesk-attrib $-1 -1 $225 $-1 $70 -1056964608 #
vertex $-1 -1 $-1 $70 $226 #
ellipse-curve $-1 -1 $-1 739.61170861407265 16.428681193721872 8.0000000000000089 0 1.8369701987210297e-16 1 1.5355000000000005 0 0 1 F -3.1415926535897922 F -2.0943951023931939 #
coedge $-1 -1 $-1 $227 $228 $71 $137 reversed $229 $-1 #
edge $230 -1 $-1 $231 2.0943951023931966 $73 3.141592653589794 $136 $232 forward @7 unknown #
DXID-attrib $-1 -1 $-1 $72 $37 @18 ASM_EDGE_FROM_STEP @5 19090 #
point $-1 -1 $-1 738.0762086140727 16.428681193721868 8.0000000000000089 #
coedge $-1 -1 $-1 $141 $75 $233 $234 reversed $142 $-1 #
coedge $-1 -1 $-1 $75 $140 $235 $236 reversed $142 $-1 #
loop $-1 -1 $-1 $-1 $75 $237 #
truecolor-adesk-attrib $-1 -1 $238 $-1 $76 -1056964608 #
ellipse-curve $-1 -1 $-1 739.61170861407265 16.428681193721872 8.0000000000000089 0 1.8369701987210297e-16 1 1.5355000000000005 0 0 1 F -2.0943951023931939 F -1.0471975511965965 #
coedge $-1 -1 $-1 $235 $239 $77 $146 forward $240 $-1 #
edge $241 -1 $-1 $242 0 $81 0.00088652133834066671 $145 $243 forward @7 unknown #
coedge $-1 -1 $-1 $244 $245 $78 $148 reversed $246 $-1 #
edge $247 -1 $-1 $242 0 $45 0.00088652133834067235 $147 $248 forward @7 unknown #
face $249 -1 $-1 $237 $79 $3 $-1 $250 forward single #
DXID-attrib $-1 -1 $-1 $80 $40 @18 ASM_EDGE_FROM_STEP @5 60096 #
point $-1 -1 $-1 740.37945861407263 15.098899186210867 8.0000000000000089 #
coedge $-1 -1 $-1 $251 $252 $83 $153 reversed $253 $-1 #
edge $254 -1 $-1 $158 1.0471975511965994 $231 2.0943951023931966 $152 $255 forward @7 unknown #
coedge $-1 -1 $-1 $155 $84 $245 $256 forward $156 $-1 #
coedge $-1 -1 $-1 $84 $154 $257 $258 reversed $156 $-1 #
loop $-1 -1 $-1 $-1 $84 $259 #
truecolor-adesk-attrib $-1 -1 $260 $-1 $85 -1056964608 #
vertex $-1 -1 $-1 $261 $262 #
ellipse-curve $-1 -1 $-1 739.61170861407265 16.428681193721872 8.0000000000000089 0 1.8369701987210297e-16 1 1.5355000000000005 0 0 1 F 1.1006863715918625e-15 F 1.0471975511965994 #
truecolor-adesk-attrib $-1 -1 $263 $-1 $86 -1056964608 #
cone-surface $-1 -1 $-1 739.61170861407265 16.428681193721872 8.0000000000000089 0 1.8369701987210297e-16 1 1.5355000000000005 0 0 1 I I 0.86602540378443515 0.50000000000000611 1.5355000000000005 forward I I I I #
DXID-attrib $-1 -1 $-1 $91 $49 @18 ASM_FACE_FROM_STEP @24 OSC.ProjectAsembly-52178 #
truecolor-adesk-attrib $-1 -1 $264 $-1 $92 -1056964608 #
face $265 -1 $-1 $266 $213 $3 $-1 $267 forward single #
loop $-1 -1 $-1 $268 $111 $92 #
plane-surface $-1 -1 $-1 739.61170861407265 16.428681193721872 10.000000000000009 0 1.8369701987210297e-16 1 1 0 0 forward_v I I I I #
coedge $-1 -1 $-1 $269 $94 $104 $193 forward $50 $-1 #
coedge $-1 -1 $-1 $94 $269 $105 $194 reversed $50 $-1 #
coedge $-1 -1 $-1 $96 $95 $94 $170 reversed $28 $-1 #
edge $270 -1 $-1 $271 0 $272 3.1415926535897931 $169 $273 forward @7 unknown #
coedge $-1 -1 $-1 $274 $275 $95 $172 reversed $276 $-1 #
edge $277 -1 $-1 $179 2.0679561093155551e-36 $272 0.00055154328932549579 $95 $278 forward @7 unknown #
coedge $-1 -1 $-1 $275 $274 $96 $174 forward $276 $-1 #
edge $279 -1 $-1 $178 0 $271 0.00055154328932549579 $96 $280 forward @7 unknown #
coedge $-1 -1 $-1 $97 $97 $274 $281 reversed $176 $-1 #
loop $-1 -1 $-1 $-1 $97 $282 #
truecolor-adesk-attrib $-1 -1 $283 $-1 $98 -1056964608 #
vertex $-1 -1 $-1 $98 $284 #
vertex $-1 -1 $-1 $98 $285 #
ellipse-curve $-1 -1 $-1 739.61170861407265 16.428681193721868 -13.999999999999995 0 1.8369701987210297e-16 1 1.6100000000000001 0 0 1 F 0 F 3.1415926535897931 #
coedge $-1 -1 $-1 $286 $286 $99 $182 forward $287 $-1 #
edge $288 -1 $-1 $190 0 $187 3.1415926535897931 $99 $289 forward @7 unknown #
coedge $-1 -1 $-1 $102 $100 $269 $290 reversed $185 $-1 #
coedge $-1 -1 $-1 $100 $102 $286 $291 reversed $185 $-1 #
loop $-1 -1 $-1 $-1 $100 $292 #
truecolor-adesk-attrib $-1 -1 $293 $-1 $101 -1056964608 #
vertex $-1 -1 $-1 $101 $294 #
ellipse-curve $-1 -1 $-1 741.81170861407247 16.428681193721872 5.8000000000000069 -1.224646799147353e-16 1 -1.8369701987210297e-16 0.20000000000000012 2.4492935982947075e-17 -4.4992793479855749e-33 1 F -3.1415926535897931 F -1.5707963267948966 #
truecolor-adesk-attrib $-1 -1 $295 $-1 $103 -1056964608 #
vertex $-1 -1 $-1 $182 $296 #
ellipse-curve $-1 -1 $-1 737.41170861407284 16.428681193721872 5.8000000000000069 0 -1 1.8369701987210297e-16 -0.20000000000000012 0 -0 1 F -3.1415926535897931 F -1.5707963267948966 #
coedge $-1 -1 $-1 $105 $104 $275 $297 forward $106 $-1 #
edge $298 -1 $-1 $272 -0.055359999999999694 $109 -0.035949999999999961 $167 $299 forward @7 unknown #
edge $300 -1 $-1 $271 -0.055359999999999694 $108 -0.035949999999999961 $168 $301 forward @7 unknown #
face $302 -1 $-1 $303 $106 $3 $-1 $304 forward single #
DXID-attrib $-1 -1 $-1 $107 $56 @18 ASM_EDGE_FROM_STEP @5 14995 #
point $-1 -1 $-1 741.61170861407254 16.428681193721872 5.8000000000000069 #
point $-1 -1 $-1 737.61170861407277 16.428681193721872 5.8000000000000069 #
coedge $-1 -1 $-1 $111 $111 $114 $204 forward $165 $-1 #
truecolor-adesk-attrib $-1 -1 $305 $-1 $112 -1056964608 #
ellipse-curve $-1 -1 $-1 739.61170861407265 16.428681193721872 10.000000000000009 0 1.8369701987210297e-16 1 3.2999999999999998 0 0 1 F 0 F 3.1415926535897931 #
coedge $-1 -1 $-1 $125 $123 $113 $203 forward $213 $-1 #
edge $306 -1 $-1 $67 0 $66 3.1415926535897931 $202 $307 forward @7 unknown #
edge $308 -1 $-1 $117 -3.1415926535897931 $120 0 $199 $309 forward @7 unknown #
face $310 -1 $-1 $311 $115 $3 $-1 $312 forward single #
DXID-attrib $-1 -1 $-1 $116 $59 @18 ASM_EDGE_FROM_STEP @5 52076 #
point $-1 -1 $-1 736.3117086140727 16.428681193721872 10.000000000000009 #
DXID-attrib $-1 -1 $-1 $119 $61 @18 ASM_EDGE_FROM_STEP @5 43663 #
point $-1 -1 $-1 742.91170861407261 16.428681193721872 10.000000000000009 #
coedge $-1 -1 $-1 $313 $313 $122 $211 reversed $314 $-1 #
edge $315 -1 $-1 $215 0 $218 3.1415926535897931 $122 $316 forward @7 unknown #
coedge $-1 -1 $-1 $123 $125 $313 $317 forward $213 $-1 #
loop $-1 -1 $-1 $-1 $125 $164 #
truecolor-adesk-attrib $-1 -1 $318 $-1 $124 -1056964608 #
vertex $-1 -1 $-1 $211 $319 #
straight-curve $-1 -1 $-1 743.11170861407265 16.428681193721879 41.749999999999964 0 1.8369701987210297e-13 1000 F -0.035749999999999962 F -0.031949999999999958 #
truecolor-adesk-attrib $-1 -1 $320 $-1 $126 -1056964608 #
vertex $-1 -1 $-1 $211 $321 #
straight-curve $-1 -1 $-1 736.11170861407265 16.428681193721879 41.749999999999964 0 1.8369701987210297e-13 1000 F -0.035749999999999962 F -0.031949999999999958 #
coedge $-1 -1 $-1 $322 $323 $130 $221 reversed $324 $-1 #
edge $325 -1 $-1 $73 0.00088652133834066682 $326 0.0017730426766813406 $220 $327 forward @7 unknown #
coedge $-1 -1 $-1 $328 $233 $131 $223 forward $329 $-1 #
edge $330 -1 $-1 $134 0.0008865213383406678 $326 0.0017730426766813401 $222 $331 forward @7 unknown #
face $332 -1 $-1 $333 $132 $3 $-1 $334 forward single #
DXID-attrib $-1 -1 $-1 $133 $70 @18 ASM_EDGE_FROM_STEP @5 27593 #
point $-1 -1 $-1 738.84395861407268 15.098899186210861 8.0000000000000089 #
coedge $-1 -1 $-1 $228 $136 $335 $336 forward $229 $-1 #
coedge $-1 -1 $-1 $136 $227 $322 $337 forward $229 $-1 #
loop $-1 -1 $-1 $-1 $136 $333 #
truecolor-adesk-attrib $-1 -1 $338 $-1 $137 -1056964608 #
vertex $-1 -1 $-1 $336 $339 #
ellipse-curve $-1 -1 $-1 739.61170861407265 16.428681193721872 8.0000000000000089 0 1.8369701987210297e-16 1 1.5355000000000005 0 0 1 F 2.0943951023931966 F 3.141592653589794 #
coedge $-1 -1 $-1 $222 $340 $140 $234 forward $329 $-1 #
edge $341 -1 $-1 $342 0 $134 0.0008865213383406678 $233 $343 forward @7 unknown #
coedge $-1 -1 $-1 $344 $145 $141 $236 forward $240 $-1 #
edge $345 -1 $-1 $81 0.00088652133834066671 $342 0.0017730426766813412 $235 $346 forward @7 unknown #
face $347 -1 $-1 $224 $142 $3 $-1 $348 forward single #
DXID-attrib $-1 -1 $-1 $143 $76 @18 ASM_EDGE_FROM_STEP @5 53784 #
coedge $-1 -1 $-1 $145 $349 $244 $350 reversed $240 $-1 #
loop $-1 -1 $-1 $-1 $349 $351 #
truecolor-adesk-attrib $-1 -1 $352 $-1 $146 -1056964608 #
vertex $-1 -1 $-1 $148 $353 #
straight-curve $-1 -1 $-1 741.14720861407261 15.5421598553812 8.0000000000000089 -866.02540378443803 -500.00000000000119 9.1848509936051702e-14 F 0 F 0.00088652133834066671 #
coedge $-1 -1 $-1 $354 $147 $239 $350 forward $246 $-1 #
coedge $-1 -1 $-1 $147 $355 $154 $256 reversed $246 $-1 #
loop $-1 -1 $-1 $-1 $354 $356 #
truecolor-adesk-attrib $-1 -1 $357 $-1 $148 -1056964608 #
straight-curve $-1 -1 $-1 741.14720861407261 15.5421598553812 8.0000000000000089 -1.1006863715918628e-12 1000 -1.8369701987210297e-13 F 0 F 0.00088652133834067235 #
truecolor-adesk-attrib $-1 -1 $358 $-1 $149 -1056964608 #
plane-surface $-1 -1 $-1 741.14720861407261 17.315202532062539 8.0000000000000089 0 1.8369701987210297e-16 1 1 0 0 forward_v I I I I #
coedge $-1 -1 $-1 $252 $152 $359 $261 reversed $253 $-1 #
coedge $-1 -1 $-1 $152 $251 $360 $361 forward $253 $-1 #
loop $-1 -1 $-1 $-1 $152 $362 #
truecolor-adesk-attrib $-1 -1 $363 $-1 $153 -1056964608 #
ellipse-curve $-1 -1 $-1 739.61170861407265 16.428681193721872 8.0000000000000089 0 1.8369701987210297e-16 1 1.5355000000000005 0 0 1 F 1.0471975511965994 F 2.0943951023931966 #
edge $364 -1 $-1 $45 0.00088652133834067235 $365 0.0017730426766813401 $245 $366 forward @7 unknown #
coedge $-1 -1 $-1 $367 $359 $155 $258 forward $368 $-1 #
edge $369 -1 $-1 $158 0.00088652133834067062 $365 0.0017730426766813404 $257 $370 forward @7 unknown #
face $371 -1 $-1 $86 $156 $3 $-1 $372 forward single #
DXID-attrib $-1 -1 $-1 $157 $85 @18 ASM_EDGE_FROM_STEP @3 162 #
edge $373 -1 $-1 $374 0 $158 0.00088652133834067062 $359 $375 forward @7 unknown #
point $-1 -1 $-1 740.37945861407263 17.758463201232878 8.0000000000000089 #
DXID-attrib $-1 -1 $-1 $160 $86 @18 ASM_FACE_FROM_STEP @23 OSC.ProjectAsembly-4080 #
DXID-attrib $-1 -1 $-1 $163 $92 @18 ASM_FACE_FROM_STEP @24 OSC.ProjectAsembly-10905 #
truecolor-adesk-attrib $-1 -1 $376 $-1 $164 -1056964608 #
face $377 -1 $-1 $195 $314 $3 $-1 $378 forward single #
cone-surface $-1 -1 $-1 739.61170861407265 16.428681193721879 41.749999999999964 0 1.8369701987210297e-16 1 3.5 0 0 1 I I 0 1 3.5 forward I I I I #
loop $-1 -1 $-1 $-1 $379 $92 #
coedge $-1 -1 $-1 $168 $167 $183 $290 forward $50 $-1 #
truecolor-adesk-attrib $-1 -1 $380 $-1 $170 -1056964608 #
vertex $-1 -1 $-1 $170 $381 #
vertex $-1 -1 $-1 $172 $382 #
ellipse-curve $-1 -1 $-1 739.61170861407265 16.428681193721868 -13.609999999999721 0 1.8369701987210297e-16 1 1.9999999999997118 0 0 1 F 0 F 3.1415926535897931 #
coedge $-1 -1 $-1 $173 $171 $175 $281 forward $276 $-1 #
coedge $-1 -1 $-1 $171 $173 $192 $297 reversed $276 $-1 #
loop $-1 -1 $-1 $-1 $171 $303 #
truecolor-adesk-attrib $-1 -1 $383 $-1 $172 -1056964608 #
straight-curve $-1 -1 $-1 738.00170861407264 16.428681193721868 -13.999999999999995 -707.10678118603926 2.1648901405890447e-13 707.10678118705573 F 2.0679561093155551e-36 F 0.00055154328932549579 #
truecolor-adesk-attrib $-1 -1 $384 $-1 $174 -1056964608 #
straight-curve $-1 -1 $-1 741.22170861407267 16.428681193721868 -13.999999999999995 707.10678118603926 1.2989340843541735e-13 707.10678118705573 F 0 F 0.00055154328932549579 #
edge $385 -1 $-1 $179 -3.1415926535897931 $178 0 $274 $386 forward @7 unknown #
face $387 -1 $-1 $292 $176 $3 $-1 $388 forward single #
DXID-attrib $-1 -1 $-1 $177 $98 @18 ASM_EDGE_FROM_STEP @5 22106 #
point $-1 -1 $-1 741.22170861407267 16.428681193721868 -13.999999999999995 #
point $-1 -1 $-1 738.00170861407264 16.428681193721868 -13.999999999999995 #
coedge $-1 -1 $-1 $181 $181 $184 $291 forward $287 $-1 #
loop $-1 -1 $-1 $-1 $181 $266 #
truecolor-adesk-attrib $-1 -1 $389 $-1 $182 -1056964608 #
ellipse-curve $-1 -1 $-1 739.61170861407265 16.428681193721872 6.0000000000000053 0 1.8369701987210297e-16 1 -2.1999999999998572 0 -0 1 F 0 F 3.1415926535897931 #
edge $390 -1 $-1 $109 1.2246467991473527e-16 $108 3.1415926535897931 $269 $391 forward @7 unknown #
edge $392 -1 $-1 $187 -3.1415926535897931 $190 0 $286 $393 forward @7 unknown #
face $394 -1 $-1 $205 $185 $3 $-1 $395 reversed single #
DXID-attrib $-1 -1 $-1 $186 $101 @18 ASM_EDGE_FROM_STEP @5 53803 #
point $-1 -1 $-1 741.81170861407247 16.428681193721872 6.0000000000000053 #
DXID-attrib $-1 -1 $-1 $189 $103 @18 ASM_EDGE_FROM_STEP @5 44500 #
point $-1 -1 $-1 737.41170861407284 16.428681193721872 6.0000000000000053 #
edge $396 -1 $-1 $272 -3.1415926535897931 $271 0 $192 $397 forward @7 unknown #
truecolor-adesk-attrib $-1 -1 $398 $-1 $193 -1056964608 #
straight-curve $-1 -1 $-1 737.61170861407277 16.428681193721879 41.749999999999964 0 1.8369701987210297e-13 1000 F -0.055359999999999694 F -0.035949999999999961 #
truecolor-adesk-attrib $-1 -1 $399 $-1 $194 -1056964608 #
straight-curve $-1 -1 $-1 741.61170861407254 16.428681193721879 41.749999999999964 0 1.8369701987210297e-13 1000 F -0.055359999999999694 F -0.035949999999999961 #
truecolor-adesk-attrib $-1 -1 $400 $-1 $195 -1056964608 #
face $401 -1 $-1 $282 $276 $3 $-1 $402 forward single #
cone-surface $-1 -1 $-1 739.61170861407265 16.428681193721879 41.749999999999964 0 1.8369701987210297e-16 1 1.9999999999998572 0 0 1 I I 0 1 1.9999999999998572 forward I I I I #
DXID-attrib $-1 -1 $-1 $200 $112 @18 ASM_EDGE_FROM_STEP @5 19822 #
truecolor-adesk-attrib $-1 -1 $403 $-1 $203 -1056964608 #
ellipse-curve $-1 -1 $-1 739.61170861407265 16.428681193721872 9.8000000000000096 0 -1.8369701987210297e-16 -1 3.5 0 0 1 F 0 F 3.1415926535897931 #
truecolor-adesk-attrib $-1 -1 $404 $-1 $204 -1056964608 #
ellipse-curve $-1 -1 $-1 739.61170861407265 16.428681193721872 10.000000000000009 0 1.8369701987210297e-16 1 3.2999999999999998 0 0 1 F -3.1415926535897931 F 0 #
truecolor-adesk-attrib $-1 -1 $405 $-1 $205 -1056964608 #
face $406 -1 $-1 $356 $368 $3 $-1 $407 forward single #
torus-surface $-1 -1 $-1 739.61170861407265 16.428681193721872 9.8000000000000096 0 1.8369701987210297e-16 1 3.2999999999999998 0.20000000000000004 1 0 0 forward_v I I I I #
coedge $-1 -1 $-1 $210 $210 $212 $317 reversed $314 $-1 #
loop $-1 -1 $-1 $287 $210 $266 #
truecolor-adesk-attrib $-1 -1 $408 $-1 $211 -1056964608 #
ellipse-curve $-1 -1 $-1 739.61170861407265 16.428681193721872 6.0000000000000053 0 1.8369701987210297e-16 1 3.5 0 0 1 F 0 F 3.1415926535897931 #
edge $409 -1 $-1 $218 -3.1415926535897931 $215 0 $212 $410 forward @7 unknown #
DXID-attrib $-1 -1 $-1 $214 $124 @18 ASM_EDGE_FROM_STEP @5 55330 #
point $-1 -1 $-1 743.11170861407265 16.428681193721872 6.0000000000000053 #
DXID-attrib $-1 -1 $-1 $217 $126 @18 ASM_EDGE_FROM_STEP @5 25963 #
point $-1 -1 $-1 736.11170861407265 16.428681193721872 6.0000000000000053 #
coedge $-1 -1 $-1 $411 $220 $228 $337 reversed $324 $-1 #
coedge $-1 -1 $-1 $220 $412 $328 $413 reversed $324 $-1 #
loop $-1 -1 $-1 $-1 $412 $414 #
truecolor-adesk-attrib $-1 -1 $415 $-1 $221 -1056964608 #
vertex $-1 -1 $-1 $223 $416 #
straight-curve $-1 -1 $-1 738.0762086140727 17.315202532062536 8.0000000000000089 1.2229848573242916e-12 -1000 1.8369701987210297e-13 F 0.00088652133834066682 F 0.0017730426766813406 #
coedge $-1 -1 $-1 $417 $222 $323 $413 forward $329 $-1 #
loop $-1 -1 $-1 $-1 $417 $418 #
truecolor-adesk-attrib $-1 -1 $419 $-1 $223 -1056964608 #
straight-curve $-1 -1 $-1 739.61170861407265 14.655638517040527 8.0000000000000089 -866.02540378443962 499.99999999999858 -9.1848509936051222e-14 F 0.0008865213383406678 F 0.0017730426766813401 #
truecolor-adesk-attrib $-1 -1 $420 $-1 $224 -1056964608 #
face $421 -1 $-1 $362 $229 $3 $-1 $422 forward single #
plane-surface $-1 -1 $-1 741.14720861407261 17.315202532062539 8.0000000000000089 0 1.8369701987210297e-16 1 1 0 0 forward_v I I I I #
coedge $-1 -1 $-1 $360 $423 $227 $336 reversed $424 $-1 #
edge $425 -1 $-1 $231 0.00088652133834066585 $426 0.0017730426766813412 $335 $427 forward @7 unknown #
edge $428 -1 $-1 $426 0 $73 0.00088652133834066682 $322 $429 forward @7 unknown #
DXID-attrib $-1 -1 $-1 $230 $137 @18 ASM_EDGE_FROM_STEP @5 20405 #
point $-1 -1 $-1 738.84395861407268 17.758463201232875 8.0000000000000089 #
coedge $-1 -1 $-1 $233 $417 $344 $430 reversed $329 $-1 #
truecolor-adesk-attrib $-1 -1 $431 $-1 $234 -1056964608 #
vertex $-1 -1 $-1 $236 $432 #
straight-curve $-1 -1 $-1 739.61170861407265 14.655638517040527 8.0000000000000089 -866.02540378443962 499.99999999999858 -9.1848509936051222e-14 F 0 F 0.0008865213383406678 #
coedge $-1 -1 $-1 $349 $235 $340 $430 forward $240 $-1 #
truecolor-adesk-attrib $-1 -1 $433 $-1 $236 -1056964608 #
straight-curve $-1 -1 $-1 741.14720861407261 15.5421598553812 8.0000000000000089 -866.02540378443803 -500.00000000000119 9.1848509936051702e-14 F 0.00088652133834066671 F 0.0017730426766813412 #
truecolor-adesk-attrib $-1 -1 $434 $-1 $237 -1056964608 #
plane-surface $-1 -1 $-1 741.14720861407261 17.315202532062539 8.0000000000000089 0 1.8369701987210297e-16 1 1 0 0 forward_v I I I I #
coedge $-1 -1 $-1 $239 $344 $435 $436 reversed $240 $-1 #
edge $437 -1 $-1 $242 0 $438 0.002 $244 $439 forward @7 unknown #
face $440 -1 $-1 $418 $240 $3 $-1 $441 forward single #
DXID-attrib $-1 -1 $-1 $241 $146 @18 ASM_EDGE_FROM_STEP @4 2534 #
point $-1 -1 $-1 741.14720861407261 15.5421598553812 8.0000000000000089 #
coedge $-1 -1 $-1 $355 $244 $442 $443 forward $246 $-1 #
coedge $-1 -1 $-1 $245 $354 $367 $444 reversed $246 $-1 #
face $445 -1 $-1 $351 $246 $3 $-1 $446 reversed single #
DXID-attrib $-1 -1 $-1 $247 $148 @18 ASM_EDGE_FROM_STEP @5 11391 #
DXID-attrib $-1 -1 $-1 $249 $149 @18 ASM_FACE_FROM_STEP @24 OSC.ProjectAsembly-43123 #
coedge $-1 -1 $-1 $257 $447 $251 $261 forward $368 $-1 #
coedge $-1 -1 $-1 $448 $335 $252 $361 reversed $424 $-1 #
edge $449 -1 $-1 $374 0 $231 0.00088652133834066585 $360 $450 forward @7 unknown #
face $451 -1 $-1 $259 $253 $3 $-1 $452 forward single #
DXID-attrib $-1 -1 $-1 $254 $153 @18 ASM_EDGE_FROM_STEP @5 59216 #
truecolor-adesk-attrib $-1 -1 $453 $-1 $256 -1056964608 #
vertex $-1 -1 $-1 $258 $454 #
straight-curve $-1 -1 $-1 741.14720861407261 15.5421598553812 8.0000000000000089 -1.1006863715918628e-12 1000 -1.8369701987210297e-13 F 0.00088652133834067235 F 0.0017730426766813401 #
coedge $-1 -1 $-1 $455 $257 $355 $444 forward $368 $-1 #
loop $-1 -1 $-1 $-1 $455 $311 #
truecolor-adesk-attrib $-1 -1 $456 $-1 $258 -1056964608 #
straight-curve $-1 -1 $-1 739.61170861407265 18.201723870403207 8.0000000000000089 866.02540378443962 -499.99999999999858 9.1848509936051222e-14 F 0.00088652133834067062 F 0.0017730426766813404 #
truecolor-adesk-attrib $-1 -1 $457 $-1 $259 -1056964608 #
plane-surface $-1 -1 $-1 741.14720861407261 17.315202532062539 8.0000000000000089 0 1.8369701987210297e-16 1 1 0 0 forward_v I I I I #
truecolor-adesk-attrib $-1 -1 $458 $-1 $261 -1056964608 #
vertex $-1 -1 $-1 $459 $460 #
straight-curve $-1 -1 $-1 739.61170861407265 18.201723870403207 8.0000000000000089 866.02540378443962 -499.99999999999858 9.1848509936051222e-14 F 0 F 0.00088652133834067062 #
DXID-attrib $-1 -1 $-1 $265 $164 @18 ASM_FACE_FROM_STEP @24 OSC.ProjectAsembly-20368 #
truecolor-adesk-attrib $-1 -1 $461 $-1 $266 -1056964608 #
plane-surface $-1 -1 $-1 739.61170861407265 19.928681193721872 6.0000000000000044 0 -1.8369701987210297e-16 -1 -1 0 -0 forward_v I I I I #
coedge $-1 -1 $-1 $442 $462 $455 $463 forward $268 $-1 #
DXID-attrib $-1 -1 $-1 $270 $170 @18 ASM_EDGE_FROM_STEP @5 39788 #
point $-1 -1 $-1 741.61170861407231 16.428681193721868 -13.609999999999721 #
point $-1 -1 $-1 737.611708614073 16.428681193721868 -13.609999999999721 #
DXID-attrib $-1 -1 $-1 $277 $172 @18 ASM_EDGE_FROM_STEP @5 60929 #
DXID-attrib $-1 -1 $-1 $279 $174 @18 ASM_EDGE_FROM_STEP @5 35596 #
truecolor-adesk-attrib $-1 -1 $464 $-1 $281 -1056964608 #
ellipse-curve $-1 -1 $-1 739.61170861407265 16.428681193721868 -13.999999999999995 0 1.8369701987210297e-16 1 1.6100000000000001 0 0 1 F -3.1415926535897931 F 0 #
truecolor-adesk-attrib $-1 -1 $465 $-1 $282 -1056964608 #
plane-surface $-1 -1 $-1 739.61170861407265 18.038681193721867 -13.999999999999995 0 -1.8369701987210297e-16 -1 -1 0 -0 forward_v I I I I #
DXID-attrib $-1 -1 $-1 $288 $182 @18 ASM_EDGE_FROM_STEP @5 28214 #
truecolor-adesk-attrib $-1 -1 $466 $-1 $290 -1056964608 #
ellipse-curve $-1 -1 $-1 739.61170861407265 16.428681193721872 5.8000000000000069 0 -1.8369701987210297e-16 -1 -1.9999999999998572 0 -0 1 F 1.2246467991473527e-16 F 3.1415926535897931 #
truecolor-adesk-attrib $-1 -1 $467 $-1 $291 -1056964608 #
ellipse-curve $-1 -1 $-1 739.61170861407265 16.428681193721872 6.0000000000000053 0 1.8369701987210297e-16 1 -2.1999999999998572 0 -0 1 F -3.1415926535897931 F 0 #
truecolor-adesk-attrib $-1 -1 $468 $-1 $292 -1056964608 #
torus-surface $-1 -1 $-1 739.61170861407265 16.428681193721872 5.8000000000000069 0 -1.8369701987210297e-16 -1 2.1999999999998572 0.20000000000000004 -1 0 -0 forward_v I I I I #
truecolor-adesk-attrib $-1 -1 $469 $-1 $297 -1056964608 #
ellipse-curve $-1 -1 $-1 739.61170861407265 16.428681193721868 -13.609999999999721 0 1.8369701987210297e-16 1 1.9999999999997118 0 0 1 F -3.1415926535897931 F 0 #
DXID-attrib $-1 -1 $-1 $298 $193 @18 ASM_EDGE_FROM_STEP @5 16415 #
DXID-attrib $-1 -1 $-1 $300 $194 @18 ASM_EDGE_FROM_STEP @5 17500 #
DXID-attrib $-1 -1 $-1 $302 $195 @18 ASM_FACE_FROM_STEP @24 OSC.ProjectAsembly-59852 #
truecolor-adesk-attrib $-1 -1 $470 $-1 $303 -1056964608 #
cone-surface $-1 -1 $-1 739.61170861407265 16.428681193721868 -13.999999999999995 0 1.8369701987210297e-16 1 1.6100000000000001 0 0 1 I I 0.70710678118603931 0.70710678118705572 1.6100000000000003 forward I I I I #
DXID-attrib $-1 -1 $-1 $306 $203 @18 ASM_EDGE_FROM_STEP @5 42852 #
DXID-attrib $-1 -1 $-1 $308 $204 @18 ASM_EDGE_FROM_STEP @5 55345 #
DXID-attrib $-1 -1 $-1 $310 $205 @18 ASM_FACE_FROM_STEP @24 OSC.ProjectAsembly-11813 #
truecolor-adesk-attrib $-1 -1 $471 $-1 $311 -1056964608 #
plane-surface $-1 -1 $-1 739.61170861407265 18.201723870403207 8.0000000000000089 -0.49999999999999861 -0.86602540378443948 1.5908628580873617e-16 -0.86602540378443948 0.49999999999999867 -9.1848509936051238e-17 forward_v I I I I #
DXID-attrib $-1 -1 $-1 $315 $211 @18 ASM_EDGE_FROM_STEP @5 49989 #
truecolor-adesk-attrib $-1 -1 $472 $-1 $317 -1056964608 #
ellipse-curve $-1 -1 $-1 739.61170861407265 16.428681193721872 6.0000000000000053 0 1.8369701987210297e-16 1 3.5 0 0 1 F -3.1415926535897931 F 0 #
coedge $-1 -1 $-1 $412 $322 $423 $473 forward $324 $-1 #
coedge $-1 -1 $-1 $323 $411 $474 $475 forward $324 $-1 #
edge $476 -1 $-1 $326 0 $477 0.002 $328 $478 forward @7 unknown #
face $479 -1 $-1 $480 $324 $3 $-1 $481 reversed single #
DXID-attrib $-1 -1 $-1 $325 $221 @18 ASM_EDGE_FROM_STEP @5 43848 #
point $-1 -1 $-1 738.0762086140727 15.542159855381195 8.0000000000000089 #
coedge $-1 -1 $-1 $340 $328 $482 $483 reversed $329 $-1 #
face $484 -1 $-1 $414 $329 $3 $-1 $485 forward single #
DXID-attrib $-1 -1 $-1 $330 $223 @18 ASM_EDGE_FROM_STEP @5 36059 #
DXID-attrib $-1 -1 $-1 $332 $224 @18 ASM_FACE_FROM_STEP @23 OSC.ProjectAsembly-3772 #
truecolor-adesk-attrib $-1 -1 $486 $-1 $333 -1056964608 #
plane-surface $-1 -1 $-1 741.14720861407261 17.315202532062539 8.0000000000000089 0 1.8369701987210297e-16 1 1 0 0 forward_v I I I I #
coedge $-1 -1 $-1 $335 $487 $411 $473 reversed $424 $-1 #
loop $-1 -1 $-1 $-1 $487 $480 #
truecolor-adesk-attrib $-1 -1 $488 $-1 $336 -1056964608 #
vertex $-1 -1 $-1 $337 $489 #
straight-curve $-1 -1 $-1 739.61170861407265 18.201723870403207 8.0000000000000089 -866.02540378443803 -500.00000000000119 9.1848509936051702e-14 F 0.00088652133834066585 F 0.0017730426766813412 #
truecolor-adesk-attrib $-1 -1 $490 $-1 $337 -1056964608 #
straight-curve $-1 -1 $-1 738.0762086140727 17.315202532062536 8.0000000000000089 1.2229848573242916e-12 -1000 1.8369701987210297e-13 F 0 F 0.00088652133834066682 #
edge $491 -1 $-1 $342 0 $492 0.002 $344 $493 forward @7 unknown #
DXID-attrib $-1 -1 $-1 $341 $234 @18 ASM_EDGE_FROM_STEP @3 459 #
point $-1 -1 $-1 739.61170861407265 14.655638517040527 8.0000000000000089 #
DXID-attrib $-1 -1 $-1 $345 $236 @18 ASM_EDGE_FROM_STEP @5 12859 #
DXID-attrib $-1 -1 $-1 $347 $237 @18 ASM_FACE_FROM_STEP @24 OSC.ProjectAsembly-24699 #
coedge $-1 -1 $-1 $482 $442 $349 $436 forward $268 $-1 #
edge $494 -1 $-1 $438 0 $492 0.0017730426766813412 $435 $495 forward @7 unknown #
truecolor-adesk-attrib $-1 -1 $496 $-1 $350 -1056964608 #
vertex $-1 -1 $-1 $443 $497 #
straight-curve $-1 -1 $-1 741.14720861407261 15.5421598553812 8.0000000000000089 0 1.8369701987210297e-13 1000 F 0 F 0.002 #
truecolor-adesk-attrib $-1 -1 $498 $-1 $351 -1056964608 #
plane-surface $-1 -1 $-1 741.14720861407261 15.5421598553812 8.0000000000000089 -0.500000000000001 0.86602540378443804 -1.590862858087359e-16 0.86602540378443815 0.500000000000001 -9.1848509936051669e-17 forward_v I I I I #
coedge $-1 -1 $-1 $435 $379 $354 $443 reversed $268 $-1 #
edge $499 -1 $-1 $438 0 $500 0.0017730426766813401 $442 $501 forward @7 unknown #
edge $502 -1 $-1 $365 0 $500 0.002 $367 $503 forward @7 unknown #
truecolor-adesk-attrib $-1 -1 $504 $-1 $356 -1056964608 #
plane-surface $-1 -1 $-1 741.14720861407261 15.5421598553812 8.0000000000000089 1 1.1006863715918625e-15 -2.0219280627526327e-31 1.1006863715918625e-15 -1 1.8369701987210297e-16 forward_v I I I I #
coedge $-1 -1 $-1 $359 $455 $448 $459 reversed $368 $-1 #
coedge $-1 -1 $-1 $487 $360 $447 $459 forward $424 $-1 #
truecolor-adesk-attrib $-1 -1 $505 $-1 $361 -1056964608 #
straight-curve $-1 -1 $-1 739.61170861407265 18.201723870403207 8.0000000000000089 -866.02540378443803 -500.00000000000119 9.1848509936051702e-14 F 0 F 0.00088652133834066585 #
truecolor-adesk-attrib $-1 -1 $506 $-1 $362 -1056964608 #
plane-surface $-1 -1 $-1 741.14720861407261 17.315202532062539 8.0000000000000089 0 1.8369701987210297e-16 1 1 0 0 forward_v I I I I #
DXID-attrib $-1 -1 $-1 $364 $256 @18 ASM_EDGE_FROM_STEP @5 35325 #
point $-1 -1 $-1 741.14720861407261 17.315202532062539 8.0000000000000089 #
coedge $-1 -1 $-1 $447 $367 $379 $463 reversed $368 $-1 #
DXID-attrib $-1 -1 $-1 $369 $258 @18 ASM_EDGE_FROM_STEP @5 56745 #
DXID-attrib $-1 -1 $-1 $371 $259 @18 ASM_FACE_FROM_STEP @24 OSC.ProjectAsembly-27419 #
DXID-attrib $-1 -1 $-1 $373 $261 @18 ASM_EDGE_FROM_STEP @5 14790 #
edge $507 -1 $-1 $374 0 $508 0.002 $447 $509 forward @7 unknown #
point $-1 -1 $-1 739.61170861407265 18.201723870403207 8.0000000000000089 #
DXID-attrib $-1 -1 $-1 $377 $266 @18 ASM_FACE_FROM_STEP @24 OSC.ProjectAsembly-60600 #
coedge $-1 -1 $-1 $379 $474 $487 $510 reversed $268 $-1 #
edge $511 -1 $-1 $508 0 $500 0.0017730426766813404 $379 $512 forward @7 unknown #
DXID-attrib $-1 -1 $-1 $385 $281 @18 ASM_EDGE_FROM_STEP @5 38176 #
DXID-attrib $-1 -1 $-1 $387 $282 @18 ASM_FACE_FROM_STEP @24 OSC.ProjectAsembly-60808 #
DXID-attrib $-1 -1 $-1 $390 $290 @18 ASM_EDGE_FROM_STEP @5 48893 #
DXID-attrib $-1 -1 $-1 $392 $291 @18 ASM_EDGE_FROM_STEP @5 14198 #
DXID-attrib $-1 -1 $-1 $394 $292 @18 ASM_FACE_FROM_STEP @24 OSC.ProjectAsembly-32748 #
DXID-attrib $-1 -1 $-1 $396 $297 @18 ASM_EDGE_FROM_STEP @5 59285 #
DXID-attrib $-1 -1 $-1 $401 $303 @18 ASM_FACE_FROM_STEP @23 OSC.ProjectAsembly-1489 #
DXID-attrib $-1 -1 $-1 $406 $311 @18 ASM_FACE_FROM_STEP @24 OSC.ProjectAsembly-11075 #
DXID-attrib $-1 -1 $-1 $409 $317 @18 ASM_EDGE_FROM_STEP @5 32897 #
edge $513 -1 $-1 $426 0 $514 0.002 $411 $515 forward @7 unknown #
coedge $-1 -1 $-1 $462 $482 $412 $475 reversed $268 $-1 #
edge $516 -1 $-1 $514 0 $477 0.0017730426766813406 $474 $517 forward @7 unknown #
truecolor-adesk-attrib $-1 -1 $518 $-1 $413 -1056964608 #
vertex $-1 -1 $-1 $483 $519 #
straight-curve $-1 -1 $-1 738.0762086140727 15.542159855381195 8.0000000000000089 0 1.8369701987210297e-13 1000 F 0 F 0.002 #
truecolor-adesk-attrib $-1 -1 $520 $-1 $414 -1056964608 #
face $521 -1 $-1 $149 $424 $3 $-1 $522 reversed single #
plane-surface $-1 -1 $-1 738.0762086140727 17.315202532062536 8.0000000000000089 -1 -1.2229848573242918e-15 2.2465867363918147e-31 -1.2229848573242918e-15 1 -1.8369701987210297e-16 forward_v I I I I #
coedge $-1 -1 $-1 $474 $435 $417 $483 forward $268 $-1 #
edge $523 -1 $-1 $492 0 $477 0.0017730426766813401 $482 $524 forward @7 unknown #
truecolor-adesk-attrib $-1 -1 $525 $-1 $418 -1056964608 #
plane-surface $-1 -1 $-1 739.61170861407265 14.655638517040527 8.0000000000000089 0.49999999999999861 0.86602540378443948 -1.5908628580873617e-16 0.86602540378443948 -0.49999999999999867 9.1848509936051238e-17 forward_v I I I I #
DXID-attrib $-1 -1 $-1 $421 $333 @18 ASM_FACE_FROM_STEP @23 OSC.ProjectAsembly-3028 #
coedge $-1 -1 $-1 $423 $448 $462 $510 forward $424 $-1 #
DXID-attrib $-1 -1 $-1 $425 $336 @18 ASM_EDGE_FROM_STEP @5 60768 #
point $-1 -1 $-1 738.0762086140727 17.315202532062536 8.0000000000000089 #
DXID-attrib $-1 -1 $-1 $428 $337 @18 ASM_EDGE_FROM_STEP @5 21446 #
truecolor-adesk-attrib $-1 -1 $526 $-1 $430 -1056964608 #
vertex $-1 -1 $-1 $436 $527 #
straight-curve $-1 -1 $-1 739.61170861407265 14.655638517040527 8.0000000000000089 0 1.8369701987210297e-13 1000 F 0 F 0.002 #
truecolor-adesk-attrib $-1 -1 $528 $-1 $436 -1056964608 #
straight-curve $-1 -1 $-1 741.14720861407261 15.5421598553812 10.000000000000009 -866.02540378443803 -500.00000000000119 9.1848509936051702e-14 F 0 F 0.0017730426766813412 #
DXID-attrib $-1 -1 $-1 $437 $350 @18 ASM_EDGE_FROM_STEP @5 37512 #
point $-1 -1 $-1 741.14720861407261 15.5421598553812 10.000000000000009 #
DXID-attrib $-1 -1 $-1 $440 $351 @18 ASM_FACE_FROM_STEP @24 OSC.ProjectAsembly-40411 #
truecolor-adesk-attrib $-1 -1 $529 $-1 $443 -1056964608 #
vertex $-1 -1 $-1 $463 $530 #
straight-curve $-1 -1 $-1 741.14720861407261 15.5421598553812 10.000000000000009 -1.1006863715918628e-12 1000 -1.8369701987210297e-13 F 0 F 0.0017730426766813401 #
truecolor-adesk-attrib $-1 -1 $531 $-1 $444 -1056964608 #
straight-curve $-1 -1 $-1 741.14720861407261 17.315202532062539 8.0000000000000089 0 1.8369701987210297e-13 1000 F 0 F 0.002 #
DXID-attrib $-1 -1 $-1 $445 $356 @18 ASM_FACE_FROM_STEP @24 OSC.ProjectAsembly-14300 #
DXID-attrib $-1 -1 $-1 $449 $361 @18 ASM_EDGE_FROM_STEP @5 44666 #
DXID-attrib $-1 -1 $-1 $451 $362 @18 ASM_FACE_FROM_STEP @23 OSC.ProjectAsembly-5829 #
truecolor-adesk-attrib $-1 -1 $532 $-1 $459 -1056964608 #
vertex $-1 -1 $-1 $463 $533 #
straight-curve $-1 -1 $-1 739.61170861407265 18.201723870403207 8.0000000000000089 0 1.8369701987210297e-13 1000 F 0 F 0.002 #
edge $534 -1 $-1 $508 0 $514 0.0017730426766813412 $462 $535 forward @7 unknown #
truecolor-adesk-attrib $-1 -1 $536 $-1 $463 -1056964608 #
straight-curve $-1 -1 $-1 739.61170861407265 18.20172387040321 10.000000000000009 866.02540378443962 -499.99999999999858 9.1848509936051222e-14 F 0 F 0.0017730426766813404 #
truecolor-adesk-attrib $-1 -1 $537 $-1 $473 -1056964608 #
vertex $-1 -1 $-1 $475 $538 #
straight-curve $-1 -1 $-1 738.0762086140727 17.315202532062536 8.0000000000000089 0 1.8369701987210297e-13 1000 F 0 F 0.002 #
truecolor-adesk-attrib $-1 -1 $539 $-1 $475 -1056964608 #
straight-curve $-1 -1 $-1 738.0762086140727 17.315202532062536 10.000000000000009 1.2229848573242916e-12 -1000 1.8369701987210297e-13 F 0 F 0.0017730426766813406 #
DXID-attrib $-1 -1 $-1 $476 $413 @18 ASM_EDGE_FROM_STEP @4 5097 #
point $-1 -1 $-1 738.0762086140727 15.542159855381197 10.000000000000009 #
DXID-attrib $-1 -1 $-1 $479 $414 @18 ASM_FACE_FROM_STEP @23 OSC.ProjectAsembly-2797 #
truecolor-adesk-attrib $-1 -1 $540 $-1 $480 -1056964608 #
plane-surface $-1 -1 $-1 739.61170861407265 18.201723870403207 8.0000000000000089 -0.500000000000001 0.86602540378443804 -1.590862858087359e-16 0.86602540378443815 0.500000000000001 -9.1848509936051669e-17 forward_v I I I I #
truecolor-adesk-attrib $-1 -1 $541 $-1 $483 -1056964608 #
straight-curve $-1 -1 $-1 739.61170861407265 14.655638517040529 10.000000000000009 -866.02540378443962 499.99999999999858 -9.1848509936051222e-14 F 0 F 0.0017730426766813401 #
DXID-attrib $-1 -1 $-1 $484 $418 @18 ASM_FACE_FROM_STEP @24 OSC.ProjectAsembly-29112 #
DXID-attrib $-1 -1 $-1 $491 $430 @18 ASM_EDGE_FROM_STEP @5 38953 #
point $-1 -1 $-1 739.61170861407265 14.655638517040529 10.000000000000009 #
DXID-attrib $-1 -1 $-1 $494 $436 @18 ASM_EDGE_FROM_STEP @5 53614 #
DXID-attrib $-1 -1 $-1 $499 $443 @18 ASM_EDGE_FROM_STEP @5 27427 #
point $-1 -1 $-1 741.14720861407261 17.315202532062543 10.000000000000009 #
DXID-attrib $-1 -1 $-1 $502 $444 @18 ASM_EDGE_FROM_STEP @5 22175 #
DXID-attrib $-1 -1 $-1 $507 $459 @18 ASM_EDGE_FROM_STEP @5 12703 #
point $-1 -1 $-1 739.61170861407265 18.20172387040321 10.000000000000009 #
truecolor-adesk-attrib $-1 -1 $542 $-1 $510 -1056964608 #
straight-curve $-1 -1 $-1 739.61170861407265 18.20172387040321 10.000000000000009 -866.02540378443803 -500.00000000000119 9.1848509936051702e-14 F 0 F 0.0017730426766813412 #
DXID-attrib $-1 -1 $-1 $511 $463 @18 ASM_EDGE_FROM_STEP @5 20253 #
DXID-attrib $-1 -1 $-1 $513 $473 @18 ASM_EDGE_FROM_STEP @5 31397 #
point $-1 -1 $-1 738.0762086140727 17.315202532062536 10.000000000000009 #
DXID-attrib $-1 -1 $-1 $516 $475 @18 ASM_EDGE_FROM_STEP @5 47539 #
DXID-attrib $-1 -1 $-1 $521 $480 @18 ASM_FACE_FROM_STEP @24 OSC.ProjectAsembly-51512 #
DXID-attrib $-1 -1 $-1 $523 $483 @18 ASM_EDGE_FROM_STEP @5 21346 #
DXID-attrib $-1 -1 $-1 $534 $510 @18 ASM_EDGE_FROM_STEP @5 16535 #
