700 154 1 0         
5 ZWCAD 12 ACIS 28.0 NT 24 Sat May 11 14:01:15 2024 
1 9.9999999999999995e-07 1e-10 
body $1 -1 $-1 $2 $-1 $-1 #
DXID-attrib $-1 -1 $-1 $-1 $0 @18 ASM_BODY_FROM_STEP @83 D1E1FBD070178F271D36B95D82D6C12E71F51962|:|8CB3CBCEBE3339AC3139F7812237AD39DB573F35 #
lump $-1 -1 $-1 $-1 $3 $0 #
shell $-1 -1 $-1 $-1 $-1 $4 $-1 $2 #
face $5 -1 $-1 $6 $7 $3 $-1 $8 forward single #
truecolor-adesk-attrib $-1 -1 $9 $-1 $4 -1039858427 #
face $10 -1 $-1 $11 $12 $3 $-1 $13 forward single #
loop $-1 -1 $-1 $14 $15 $4 #
torus-surface $-1 -1 $-1 1536.4415881054699 142.71046331427644 -50.171778215346308 5.2874825178023649e-18 0.75470958022276879 0.65605902899051083 12.813196185446429 2 2.7498759999999995e-16 -0.65605902899051083 0.75470958022276879 forward_v I I I I #
fmesh-eye-attrib $-1 -1 $16 $5 $4 #
truecolor-adesk-attrib $-1 -1 $17 $-1 $6 -1039858427 #
face $18 -1 $-1 $19 $20 $3 $-1 $21 forward single #
loop $-1 -1 $-1 $22 $23 $6 #
torus-surface $-1 -1 $-1 1536.4415881054699 108.37117741414193 -80.022464034412877 8.7677701400789901e-16 -0.75470958022276635 -0.65605902899051372 -783.88859871647139 799.99999999996112 -2.7498759999999995e-16 0.65605902899051372 -0.75470958022276635 forward_v I I I I #
loop $-1 -1 $-1 $-1 $24 $4 #
coedge $-1 -1 $-1 $15 $15 $25 $26 forward $7 $-1 #
DXID-attrib $-1 -1 $-1 $9 $4 @18 ASM_FACE_FROM_STEP @40 Revolving Triceps Full Extension Ba-4221 #
fmesh-eye-attrib $-1 -1 $27 $10 $6 #
truecolor-adesk-attrib $-1 -1 $28 $-1 $11 -1039858427 #
face $29 -1 $-1 $30 $31 $3 $-1 $32 forward single #
loop $-1 -1 $-1 $33 $34 $11 #
plane-surface $-1 -1 $-1 1550.0415881054698 144.219882474722 -48.859660157365269 5.2874825178023649e-18 0.75470958022276879 0.65605902899051083 2.7498759999999995e-16 -0.65605902899051083 0.75470958022276879 forward_v I I I I #
loop $-1 -1 $-1 $-1 $25 $6 #
coedge $-1 -1 $-1 $23 $23 $35 $36 forward $12 $-1 #
coedge $-1 -1 $-1 $24 $24 $34 $37 forward $14 $-1 #
coedge $-1 -1 $-1 $25 $25 $15 $26 reversed $22 $-1 #
edge $38 -1 $-1 $39 -3.1415926535897931 $39 3.1415926535897931 $15 $40 forward @7 unknown #
DXID-attrib $-1 -1 $-1 $17 $6 @18 ASM_FACE_FROM_STEP @40 Revolving Triceps Full Extension Ba-4271 #
fmesh-eye-attrib $-1 -1 $41 $18 $11 #
truecolor-adesk-attrib $-1 -1 $42 $-1 $19 -1039858427 #
face $43 -1 $-1 $44 $45 $3 $-1 $46 reversed single #
loop $-1 -1 $-1 $47 $48 $19 #
plane-surface $-1 -1 $-1 1543.1915881054699 52.491831423620084 -128.59763842181871 5.2874825178023649e-18 0.75470958022276879 0.65605902899051083 2.7498759999999995e-16 -0.65605902899051083 0.75470958022276879 forward_v I I I I #
loop $-1 -1 $-1 $-1 $49 $11 #
coedge $-1 -1 $-1 $34 $34 $24 $37 reversed $20 $-1 #
coedge $-1 -1 $-1 $35 $35 $23 $36 reversed $50 $-1 #
edge $51 -1 $-1 $52 0 $52 6.2831853071795862 $23 $53 forward @7 unknown #
edge $54 -1 $-1 $55 -3.1415926535897931 $55 3.1415926535897931 $24 $56 forward @7 unknown #
truecolor-adesk-attrib $-1 -1 $57 $-1 $26 -1039858427 #
vertex $-1 -1 $-1 $26 $58 #
ellipse-curve $-1 -1 $-1 1536.4415881054699 142.79652668745973 -50.096964466426328 5.2874825178023649e-18 0.75470958022276879 0.65605902899051083 -14.809942538584265 -2.6127342837461255e-15 3.1249671389123585e-15 1 I I #
DXID-attrib $-1 -1 $-1 $28 $11 @18 ASM_FACE_FROM_STEP @40 Revolving Triceps Full Extension Ba-4291 #
fmesh-eye-attrib $-1 -1 $59 $29 $19 #
truecolor-adesk-attrib $-1 -1 $60 $-1 $30 -1039858427 #
face $61 -1 $-1 $62 $63 $3 $-1 $64 forward single #
loop $-1 -1 $-1 $65 $66 $30 #
cone-surface $-1 -1 $-1 1536.4415881054699 50.982412263174581 -129.90975647979971 5.2874825178023649e-18 0.75470958022276879 0.65605902899051083 1.0000000000000631 1.7641758412899627e-16 -2.1100467680891369e-16 1 I I 0 1 1.0000000000000631 forward I I I I #
loop $-1 -1 $-1 $-1 $67 $19 #
coedge $-1 -1 $-1 $48 $48 $68 $69 forward $31 $-1 #
coedge $-1 -1 $-1 $49 $49 $70 $71 reversed $33 $-1 #
loop $-1 -1 $-1 $72 $35 $73 #
truecolor-adesk-attrib $-1 -1 $74 $-1 $36 -1039858427 #
vertex $-1 -1 $-1 $36 $75 #
ellipse-curve $-1 -1 $-1 1536.4415881054699 72.522472353558925 -111.18526791146382 5.2874825178023649e-18 0.75470958022276879 0.65605902899051083 14.700000000000005 2.5933384866960824e-15 -3.1017687490908368e-15 1 I I #
truecolor-adesk-attrib $-1 -1 $76 $-1 $37 -1039858427 #
vertex $-1 -1 $-1 $37 $77 #
ellipse-curve $-1 -1 $-1 1536.4415881054699 144.219882474722 -48.859660157365269 -5.2874825178023649e-18 -0.75470958022276879 -0.65605902899051083 -12.813196185446429 -2.2604731160071873e-15 2.703644319999159e-15 1 I I #
DXID-attrib $-1 -1 $-1 $38 $26 @18 ASM_EDGE_FROM_STEP @4 4206 #
point $-1 -1 $-1 1551.2515306440541 142.79652668745973 -50.096964466426328 #
DXID-attrib $-1 -1 $-1 $42 $19 @18 ASM_FACE_FROM_STEP @40 Revolving Triceps Full Extension Ba-4319 #
fmesh-eye-attrib $-1 -1 $78 $43 $30 #
truecolor-adesk-attrib $-1 -1 $79 $-1 $44 -1039858427 #
face $80 -1 $-1 $81 $82 $3 $-1 $83 forward single #
loop $-1 -1 $-1 $84 $85 $44 #
plane-surface $-1 -1 $-1 1547.4415881054699 49.472993102728992 -131.22187453778076 -5.2874825178023649e-18 -0.75470958022276879 -0.65605902899051083 -2.7498759999999995e-16 0.65605902899051083 -0.75470958022276879 forward_v I I I I #
loop $-1 -1 $-1 $-1 $86 $30 #
coedge $-1 -1 $-1 $66 $66 $87 $88 reversed $45 $-1 #
coedge $-1 -1 $-1 $67 $67 $86 $89 reversed $47 $-1 #
coedge $-1 -1 $-1 $68 $68 $48 $69 reversed $90 $-1 #
edge $91 -1 $-1 $92 0 $92 6.2831853071795862 $48 $93 forward @7 unknown #
coedge $-1 -1 $-1 $70 $70 $49 $71 forward $94 $-1 #
edge $95 -1 $-1 $96 0 $96 6.2831853071795862 $49 $97 forward @7 unknown #
loop $-1 -1 $-1 $-1 $98 $73 #
face $99 -1 $-1 $100 $50 $3 $-1 $101 reversed single #
DXID-attrib $-1 -1 $-1 $51 $36 @18 ASM_EDGE_FROM_STEP @4 4264 #
point $-1 -1 $-1 1551.14158810547 72.522472353558925 -111.18526791146382 #
DXID-attrib $-1 -1 $-1 $54 $37 @18 ASM_EDGE_FROM_STEP @4 4217 #
point $-1 -1 $-1 1549.2547842909164 144.219882474722 -48.859660157365269 #
DXID-attrib $-1 -1 $-1 $60 $30 @18 ASM_FACE_FROM_STEP @40 Revolving Triceps Full Extension Ba-4339 #
fmesh-eye-attrib $-1 -1 $102 $61 $44 #
truecolor-adesk-attrib $-1 -1 $103 $-1 $62 -1039858427 #
face $104 -1 $-1 $73 $105 $3 $-1 $106 forward single #
loop $-1 -1 $-1 $107 $108 $62 #
torus-surface $-1 -1 $-1 1536.4415881054699 56.265379324733914 -125.31734327686618 5.2874825178023649e-18 0.75470958022276879 0.65605902899051083 21.000000000000068 9 2.7498759999999995e-16 -0.65605902899051083 0.75470958022276879 forward_v I I I I #
loop $-1 -1 $-1 $-1 $87 $44 #
coedge $-1 -1 $-1 $85 $85 $109 $110 reversed $63 $-1 #
coedge $-1 -1 $-1 $86 $86 $67 $89 forward $65 $-1 #
coedge $-1 -1 $-1 $87 $87 $66 $88 forward $84 $-1 #
edge $111 -1 $-1 $112 0 $112 6.2831853071795862 $66 $113 forward @7 unknown #
edge $114 -1 $-1 $115 0 $115 6.2831853071795862 $67 $116 forward @7 unknown #
loop $-1 -1 $-1 $94 $68 $100 #
truecolor-adesk-attrib $-1 -1 $117 $-1 $69 -1039858427 #
vertex $-1 -1 $-1 $69 $118 #
ellipse-curve $-1 -1 $-1 1536.4415881054699 52.491831423620084 -128.59763842181871 5.2874825178023649e-18 0.75470958022276879 0.65605902899051083 12.500000000000002 2.2052198016123145e-15 -2.6375584601112551e-15 1 I I #
loop $-1 -1 $-1 $-1 $70 $100 #
truecolor-adesk-attrib $-1 -1 $119 $-1 $71 -1039858427 #
vertex $-1 -1 $-1 $71 $120 #
ellipse-curve $-1 -1 $-1 1536.4415881054699 144.219882474722 -48.859660157365269 5.2874825178023649e-18 0.75470958022276879 0.65605902899051083 12.5 2.2052198016123145e-15 -2.6375584601112547e-15 1 I I #
coedge $-1 -1 $-1 $98 $98 $121 $122 forward $72 $-1 #
truecolor-adesk-attrib $-1 -1 $123 $-1 $73 -1039858427 #
face $124 -1 $-1 $-1 $90 $3 $-1 $125 reversed single #
torus-surface $-1 -1 $-1 1536.4415881054699 72.029389959838625 -111.61389789697557 5.2874825178023649e-18 0.75470958022276879 0.65605902899051083 25.684217622015328 11.00363079529968 2.7498759999999995e-16 -0.65605902899051083 0.75470958022276879 forward_v I I I I #
DXID-attrib $-1 -1 $-1 $79 $44 @18 ASM_FACE_FROM_STEP @40 Revolving Triceps Full Extension Ba-4359 #
fmesh-eye-attrib $-1 -1 $126 $80 $62 #
truecolor-adesk-attrib $-1 -1 $127 $-1 $81 -1039858427 #
loop $-1 -1 $-1 $128 $121 $81 #
cone-surface $-1 -1 $-1 1536.4415881054699 63.516876869130584 -119.01371263221517 -5.2874825178023649e-18 -0.75470958022276879 -0.65605902899051083 22.789217186144693 4.0204186401703957e-15 -4.8086314070902991e-15 1 I I 0.83391710069398439 0.55188972555225135 22.789217186144693 forward I I I I #
loop $-1 -1 $-1 $-1 $109 $62 #
coedge $-1 -1 $-1 $108 $108 $129 $130 reversed $82 $-1 #
coedge $-1 -1 $-1 $109 $109 $85 $110 forward $107 $-1 #
edge $131 -1 $-1 $132 0 $132 6.2831853071795862 $85 $133 forward @7 unknown #
truecolor-adesk-attrib $-1 -1 $134 $-1 $88 -1039858427 #
vertex $-1 -1 $-1 $88 $135 #
ellipse-curve $-1 -1 $-1 1536.4415881054699 49.472993102728992 -131.22187453778076 5.2874825178023649e-18 0.75470958022276879 0.65605902899051083 1.0000000000000631 1.7641758412899627e-16 -2.1100467680891369e-16 1 I I #
truecolor-adesk-attrib $-1 -1 $136 $-1 $89 -1039858427 #
vertex $-1 -1 $-1 $89 $137 #
ellipse-curve $-1 -1 $-1 1536.4415881054699 52.491831423620084 -128.59763842181871 5.2874825178023649e-18 0.75470958022276879 0.65605902899051083 1.0000000000000631 1.7641758412899627e-16 -2.1100467680891369e-16 1 I I #
DXID-attrib $-1 -1 $-1 $91 $69 @18 ASM_EDGE_FROM_STEP @4 4304 #
point $-1 -1 $-1 1548.9415881054699 52.491831423620084 -128.59763842181871 #
DXID-attrib $-1 -1 $-1 $95 $71 @18 ASM_EDGE_FROM_STEP @4 4287 #
point $-1 -1 $-1 1548.9415881054699 144.219882474722 -48.859660157365269 #
coedge $-1 -1 $-1 $121 $121 $98 $122 reversed $105 $-1 #
edge $138 -1 $-1 $139 0 $139 6.2831853071795862 $121 $140 forward @7 unknown #
fmesh-eye-attrib $-1 -1 $141 $99 $73 #
truecolor-adesk-attrib $-1 -1 $142 $-1 $100 -1039858427 #
cone-surface $-1 -1 $-1 1536.4415881054699 98.355856949171056 -88.728649289591971 5.2874825178023649e-18 0.75470958022276879 0.65605902899051083 12.5 2.2052198016123145e-15 -2.6375584601112547e-15 1 I I 0 1 12.5 forward I I I I #
DXID-attrib $-1 -1 $-1 $103 $62 @18 ASM_FACE_FROM_STEP @40 Revolving Triceps Full Extension Ba-4379 #
fmesh-eye-attrib $-1 -1 $143 $104 $81 #
loop $-1 -1 $-1 $-1 $129 $81 #
coedge $-1 -1 $-1 $129 $129 $108 $130 forward $128 $-1 #
edge $144 -1 $-1 $145 0 $145 6.2831853071795862 $108 $146 forward @7 unknown #
truecolor-adesk-attrib $-1 -1 $147 $-1 $110 -1039858427 #
vertex $-1 -1 $-1 $110 $148 #
ellipse-curve $-1 -1 $-1 1536.4415881054699 49.472993102728992 -131.22187453778076 5.2874825178023649e-18 0.75470958022276879 0.65605902899051083 21.00000000000006 3.7047692667086985e-15 -4.4310982129869209e-15 1 I I #
DXID-attrib $-1 -1 $-1 $111 $88 @18 ASM_EDGE_FROM_STEP @4 4332 #
point $-1 -1 $-1 1537.4415881054699 49.472993102728992 -131.22187453778076 #
DXID-attrib $-1 -1 $-1 $114 $89 @18 ASM_EDGE_FROM_STEP @4 4315 #
point $-1 -1 $-1 1537.4415881054699 52.491831423620084 -128.59763842181871 #
truecolor-adesk-attrib $-1 -1 $149 $-1 $122 -1039858427 #
vertex $-1 -1 $-1 $122 $150 #
ellipse-curve $-1 -1 $-1 1536.4415881054699 65.104087388479115 -117.63397157762307 5.2874825178023649e-18 0.75470958022276879 0.65605902899051083 19.611426842319027 3.4598005448442546e-15 -4.1381027826249199e-15 1 I I #
DXID-attrib $-1 -1 $-1 $123 $73 @18 ASM_FACE_FROM_STEP @40 Revolving Triceps Full Extension Ba-4411 #
fmesh-eye-attrib $-1 -1 $151 $124 $100 #
DXID-attrib $-1 -1 $-1 $127 $81 @18 ASM_FACE_FROM_STEP @40 Revolving Triceps Full Extension Ba-4399 #
truecolor-adesk-attrib $-1 -1 $152 $-1 $130 -1039858427 #
vertex $-1 -1 $-1 $130 $153 #
ellipse-curve $-1 -1 $-1 1536.4415881054699 61.929666349782025 -120.39345368680728 5.2874825178023649e-18 0.75470958022276879 0.65605902899051083 25.967007529970342 4.5810367354965341e-15 -5.4791600315556744e-15 1 I I #
DXID-attrib $-1 -1 $-1 $131 $110 @18 ASM_EDGE_FROM_STEP @4 4352 #
point $-1 -1 $-1 1557.4415881054699 49.472993102728992 -131.22187453778076 #
DXID-attrib $-1 -1 $-1 $138 $122 @18 ASM_EDGE_FROM_STEP @4 4392 #
point $-1 -1 $-1 1556.0530149477891 65.104087388479115 -117.63397157762307 #
DXID-attrib $-1 -1 $-1 $142 $100 @18 ASM_FACE_FROM_STEP @40 Revolving Triceps Full Extension Ba-4423 #
DXID-attrib $-1 -1 $-1 $144 $130 @18 ASM_EDGE_FROM_STEP @4 4372 #
point $-1 -1 $-1 1562.4085956354402 61.929666349782025 -120.39345368680728 #
