700 95 1 0          
5 ZWCAD 12 ACIS 28.0 NT 24 Mon May 13 13:57:26 2024 
1 9.9999999999999995e-07 1e-10 
body $1 -1 $-1 $2 $-1 $-1 #
DXID-attrib $-1 -1 $-1 $-1 $0 @18 ASM_BODY_FROM_STEP @83 46402F8935B646366B78E977F607EF14D69D06F8|:|E11F670CAC40FB8C6B54F21DA60F8949238D8B1A #
lump $-1 -1 $-1 $-1 $3 $0 #
shell $-1 -1 $-1 $-1 $-1 $4 $-1 $2 #
face $5 -1 $-1 $6 $7 $3 $-1 $8 reversed single #
truecolor-adesk-attrib $-1 -1 $9 $-1 $4 -1029660512 #
face $10 -1 $-1 $11 $12 $3 $-1 $13 forward single #
loop $-1 -1 $-1 $-1 $14 $4 #
cone-surface $-1 -1 $-1 -29.132218070324452 61.40985714466089 -49.362917325017186 1 0 0 0 -9.7102608090653195 -2.3897353451648398 1 I I 0 1 10.000000000000002 forward I I I I #
DXID-attrib $-1 -1 $-1 $5 $4 @18 ASM_FACE_FROM_STEP @18 rocket engine-9579 #
truecolor-adesk-attrib $-1 -1 $15 $-1 $6 -1029660512 #
face $16 -1 $-1 $17 $18 $3 $-1 $19 reversed single #
loop $-1 -1 $-1 $-1 $20 $6 #
plane-surface $-1 -1 $-1 -29.132218070324452 56.11291198823988 -68.55482779196528 0 0.69991304794404363 -0.7142280625386257 0 0.7142280625386257 0.69991304794404363 forward_v I I I I #
coedge $-1 -1 $-1 $21 $22 $23 $24 forward $7 $-1 #
DXID-attrib $-1 -1 $-1 $10 $6 @18 ASM_FACE_FROM_STEP @18 rocket engine-9580 #
truecolor-adesk-attrib $-1 -1 $25 $-1 $11 -1029660512 #
face $26 -1 $-1 $27 $28 $3 $-1 $29 forward single #
loop $-1 -1 $-1 $-1 $30 $11 #
cone-surface $-1 -1 $-1 -29.132218070324452 49.113781508799391 -61.412547166579095 1 0 0 0 9.7102608090653106 2.389735345164838 1 I I 0 1 9.9999999999999893 forward I I I I #
coedge $-1 -1 $-1 $31 $32 $33 $34 forward $12 $-1 #
coedge $-1 -1 $-1 $35 $14 $36 $37 forward $7 $-1 #
coedge $-1 -1 $-1 $14 $35 $31 $38 reversed $7 $-1 #
coedge $-1 -1 $-1 $33 $39 $14 $24 reversed $28 $-1 #
edge $40 -1 $-1 $41 -2.1047634537646371 $42 -1.0679342539394765 $14 $43 forward @7 unknown #
DXID-attrib $-1 -1 $-1 $16 $11 @18 ASM_FACE_FROM_STEP @18 rocket engine-9581 #
truecolor-adesk-attrib $-1 -1 $44 $-1 $17 -1029660512 #
face $45 -1 $-1 $-1 $46 $3 $-1 $47 reversed single #
loop $-1 -1 $-1 $-1 $39 $17 #
plane-surface $-1 -1 $-1 -29.132218070324452 62.260949806170586 -62.53001287118439 -1 0 0 0 0 1 forward_v I I I I #
coedge $-1 -1 $-1 $48 $36 $39 $49 forward $18 $-1 #
coedge $-1 -1 $-1 $50 $20 $22 $38 forward $12 $-1 #
coedge $-1 -1 $-1 $20 $50 $48 $51 reversed $12 $-1 #
coedge $-1 -1 $-1 $39 $23 $20 $34 reversed $28 $-1 #
edge $52 -1 $-1 $53 0 $41 1.7215895427234773 $20 $54 forward @7 unknown #
coedge $-1 -1 $-1 $22 $21 $55 $56 reversed $7 $-1 #
coedge $-1 -1 $-1 $30 $57 $21 $37 reversed $18 $-1 #
edge $58 -1 $-1 $42 0 $59 1.0000000000000002 $21 $60 forward @7 unknown #
edge $61 -1 $-1 $41 0 $62 1.0000000000000002 $22 $63 forward @5 knife #
coedge $-1 -1 $-1 $23 $33 $30 $49 reversed $28 $-1 #
truecolor-adesk-attrib $-1 -1 $64 $-1 $24 -1029660512 #
vertex $-1 -1 $-1 $24 $65 #
vertex $-1 -1 $-1 $24 $66 #
ellipse-curve $-1 -1 $-1 -29.132218070324452 61.40985714466089 -49.362917325017186 -1 0 0 0 -9.7102608090653195 -2.3897353451648398 1 F -2.1047634537646371 F -1.0679342539394765 #
DXID-attrib $-1 -1 $-1 $26 $17 @18 ASM_FACE_FROM_STEP @18 rocket engine-9582 #
truecolor-adesk-attrib $-1 -1 $67 $-1 $27 -1029660512 #
loop $-1 -1 $-1 $-1 $68 $27 #
plane-surface $-1 -1 $-1 -19.132218070324448 62.260949806170586 -62.53001287118439 -1 0 0 0 0 1 forward_v I I I I #
coedge $-1 -1 $-1 $57 $30 $32 $51 forward $18 $-1 #
edge $69 -1 $-1 $42 -6.6058269965196932e-15 $53 1.0368291998251493 $30 $70 forward @7 unknown #
coedge $-1 -1 $-1 $32 $31 $71 $72 reversed $12 $-1 #
edge $73 -1 $-1 $53 0 $74 1.0000000000000002 $32 $75 forward @5 knife #
truecolor-adesk-attrib $-1 -1 $76 $-1 $34 -1029660512 #
vertex $-1 -1 $-1 $34 $77 #
straight-curve $-1 -1 $-1 -29.132218070324452 56.11291198823988 -68.55482779196528 0 7.1422806253862623 6.9991304794404385 F 0 F 1.7215895427234773 #
coedge $-1 -1 $-1 $68 $71 $35 $56 forward $46 $-1 #
edge $78 -1 $-1 $62 -2.1047634537646371 $59 -1.0679342539394765 $35 $79 forward @7 unknown #
coedge $-1 -1 $-1 $36 $48 $68 $80 reversed $18 $-1 #
truecolor-adesk-attrib $-1 -1 $81 $-1 $37 -1029660512 #
vertex $-1 -1 $-1 $37 $82 #
straight-curve $-1 -1 $-1 -29.132218070324452 58.824042317864688 -59.022811821414187 10 0 0 F 0 F 1.0000000000000002 #
truecolor-adesk-attrib $-1 -1 $83 $-1 $38 -1029660512 #
vertex $-1 -1 $-1 $56 $84 #
straight-curve $-1 -1 $-1 -29.132218070324452 68.408987624101385 -56.505197950403492 10 0 0 F 0 F 1.0000000000000002 #
DXID-attrib $-1 -1 $-1 $40 $24 @18 ASM_EDGE_FROM_STEP @4 4710 #
point $-1 -1 $-1 -29.132218070324452 68.408987624101385 -56.505197950403492 #
point $-1 -1 $-1 -29.132218070324452 58.824042317864688 -59.022811821414187 #
DXID-attrib $-1 -1 $-1 $45 $27 @18 ASM_FACE_FROM_STEP @18 rocket engine-9583 #
coedge $-1 -1 $-1 $71 $55 $57 $80 forward $46 $-1 #
truecolor-adesk-attrib $-1 -1 $85 $-1 $49 -1029660512 #
ellipse-curve $-1 -1 $-1 -29.132218070324452 49.113781508799391 -61.412547166579095 -1 0 0 0 9.7102608090653106 2.389735345164838 1 F -6.6058269965196932e-15 F 1.0368291998251493 #
coedge $-1 -1 $-1 $55 $68 $50 $72 forward $46 $-1 #
edge $86 -1 $-1 $74 0 $62 1.7215895427234773 $50 $87 forward @7 unknown #
truecolor-adesk-attrib $-1 -1 $88 $-1 $51 -1029660512 #
vertex $-1 -1 $-1 $72 $89 #
straight-curve $-1 -1 $-1 -29.132218070324452 56.11291198823988 -68.55482779196528 10 0 0 F 0 F 1.0000000000000002 #
DXID-attrib $-1 -1 $-1 $52 $34 @18 ASM_EDGE_FROM_STEP @4 4714 #
point $-1 -1 $-1 -29.132218070324452 56.11291198823988 -68.55482779196528 #
truecolor-adesk-attrib $-1 -1 $90 $-1 $56 -1029660512 #
ellipse-curve $-1 -1 $-1 -19.132218070324448 61.40985714466089 -49.362917325017186 -1 0 0 0 -9.7102608090653195 -2.3897353451648398 1 F -2.1047634537646371 F -1.0679342539394765 #
edge $91 -1 $-1 $59 -6.6058269965196932e-15 $74 1.0368291998251493 $57 $92 forward @7 unknown #
DXID-attrib $-1 -1 $-1 $58 $37 @18 ASM_EDGE_FROM_STEP @4 4711 #
point $-1 -1 $-1 -19.132218070324448 58.824042317864688 -59.022811821414187 #
DXID-attrib $-1 -1 $-1 $61 $38 @18 ASM_EDGE_FROM_STEP @4 4713 #
point $-1 -1 $-1 -19.132218070324448 68.408987624101385 -56.505197950403492 #
DXID-attrib $-1 -1 $-1 $69 $49 @18 ASM_EDGE_FROM_STEP @4 4717 #
truecolor-adesk-attrib $-1 -1 $93 $-1 $72 -1029660512 #
straight-curve $-1 -1 $-1 -19.132218070324448 56.11291198823988 -68.55482779196528 0 7.1422806253862623 6.9991304794404385 F 0 F 1.7215895427234773 #
DXID-attrib $-1 -1 $-1 $73 $51 @18 ASM_EDGE_FROM_STEP @4 4716 #
point $-1 -1 $-1 -19.132218070324448 56.11291198823988 -68.55482779196528 #
DXID-attrib $-1 -1 $-1 $78 $56 @18 ASM_EDGE_FROM_STEP @4 4712 #
truecolor-adesk-attrib $-1 -1 $94 $-1 $80 -1029660512 #
ellipse-curve $-1 -1 $-1 -19.132218070324448 49.113781508799391 -61.412547166579095 -1 0 0 0 9.7102608090653106 2.389735345164838 1 F -6.6058269965196932e-15 F 1.0368291998251493 #
DXID-attrib $-1 -1 $-1 $86 $72 @18 ASM_EDGE_FROM_STEP @4 4715 #
DXID-attrib $-1 -1 $-1 $91 $80 @18 ASM_EDGE_FROM_STEP @4 4718 #
