700 609 1 0         
5 ZWCAD 12 ACIS 28.0 NT 24 Mon May 13 14:42:28 2024 
1 9.9999999999999995e-07 1e-10 
body $1 -1 $-1 $2 $-1 $3 #
DXID-attrib $-1 -1 $-1 $-1 $0 @18 ASM_BODY_FROM_STEP @83 855E70BB482056BB6020C3581DA7110FF62BC4CD|:|EFF3A294A9812F7CC604DD34283D99676FF14CF7 #
lump $-1 -1 $-1 $-1 $4 $0 #
transform $-1 -1 1 0 0 0 1 0 0 0 1 0 0 0 1 no_rotate no_reflect no_shear #
shell $-1 -1 $-1 $-1 $-1 $5 $-1 $2 #
face $6 -1 $-1 $7 $8 $4 $-1 $9 reversed single #
truecolor-adesk-attrib $-1 -1 $10 $-1 $5 -1029333355 #
face $11 -1 $-1 $12 $13 $4 $-1 $14 reversed single #
loop $-1 -1 $-1 $-1 $15 $5 #
plane-surface $-1 -1 $-1 0 1.1317301567477542 70.64575324288478 0 -1 0 0 0 -1 forward_v I I I I #
DXID-attrib $-1 -1 $-1 $6 $5 @18 ASM_FACE_FROM_STEP @21 ROCK VAPOR CARON-1280 #
truecolor-adesk-attrib $-1 -1 $16 $-1 $7 -1029333355 #
face $17 -1 $-1 $18 $19 $4 $-1 $20 forward single #
loop $-1 -1 $-1 $-1 $21 $7 #
plane-surface $-1 -1 $-1 0.36218448845312134 -1.784914587370115e-16 70.64575324288478 1 -4.9281916931159298e-16 0 4.9281916931159298e-16 1 0 forward_v I I I I #
coedge $-1 -1 $-1 $22 $23 $24 $25 reversed $8 $-1 #
DXID-attrib $-1 -1 $-1 $11 $7 @18 ASM_FACE_FROM_STEP @20 ROCK VAPOR CARON-971 #
truecolor-adesk-attrib $-1 -1 $26 $-1 $12 -1029333355 #
face $27 -1 $-1 $28 $29 $4 $-1 $30 forward single #
loop $-1 -1 $-1 $-1 $31 $12 #
plane-surface $-1 -1 $-1 0 0.80173015674775416 70.64575324288478 0 -1 0 0 0 -1 forward_v I I I I #
coedge $-1 -1 $-1 $32 $33 $34 $35 forward $13 $-1 #
coedge $-1 -1 $-1 $36 $15 $37 $38 forward $8 $-1 #
coedge $-1 -1 $-1 $15 $36 $33 $39 reversed $8 $-1 #
coedge $-1 -1 $-1 $40 $41 $15 $25 forward $42 $-1 #
edge $43 -1 $-1 $44 -0.0024964466094067254 $45 -0.0003621844884531219 $15 $46 forward @7 unknown #
DXID-attrib $-1 -1 $-1 $17 $12 @18 ASM_FACE_FROM_STEP @22 ROCK VAPOR CARON-13296 #
truecolor-adesk-attrib $-1 -1 $47 $-1 $18 -1029333355 #
face $48 -1 $-1 $49 $50 $4 $-1 $51 forward single #
loop $-1 -1 $-1 $-1 $52 $18 #
plane-surface $-1 -1 $-1 1.6325198405823178 1.6325198405823171 70.64575324288478 -0.70710678118654757 -0.70710678118654746 0 0.70710678118654746 -0.70710678118654768 0 forward_v I I I I #
coedge $-1 -1 $-1 $53 $54 $55 $56 reversed $19 $-1 #
coedge $-1 -1 $-1 $57 $21 $54 $58 reversed $13 $-1 #
coedge $-1 -1 $-1 $21 $57 $23 $39 forward $13 $-1 #
coedge $-1 -1 $-1 $59 $55 $21 $35 reversed $60 $-1 #
edge $61 -1 $-1 $62 -0.0011317301567477544 $63 -0.00080173015674775427 $21 $64 forward @7 unknown #
coedge $-1 -1 $-1 $23 $22 $59 $65 forward $8 $-1 #
coedge $-1 -1 $-1 $66 $67 $22 $38 reversed $68 $-1 #
edge $69 -1 $-1 $44 0 $70 0.0056457532428847833 $22 $71 forward @7 unknown #
edge $72 -1 $-1 $45 0 $62 0.0056457532428847833 $23 $73 forward @7 unknown #
coedge $-1 -1 $-1 $74 $24 $57 $75 forward $42 $-1 #
coedge $-1 -1 $-1 $24 $76 $66 $77 forward $42 $-1 #
loop $-1 -1 $-1 $-1 $78 $79 #
truecolor-adesk-attrib $-1 -1 $80 $-1 $25 -1029333355 #
vertex $-1 -1 $-1 $25 $81 #
vertex $-1 -1 $-1 $25 $82 #
straight-curve $-1 -1 $-1 0 1.1317301567477542 70.64575324288478 -1000 0 0 F -0.0024964466094067254 F -0.0003621844884531219 #
DXID-attrib $-1 -1 $-1 $27 $18 @18 ASM_FACE_FROM_STEP @22 ROCK VAPOR CARON-18582 #
truecolor-adesk-attrib $-1 -1 $83 $-1 $28 -1029333355 #
face $84 -1 $-1 $85 $86 $4 $-1 $87 forward single #
loop $-1 -1 $-1 $-1 $88 $28 #
plane-surface $-1 -1 $-1 3.1699999999999995 0 70.64575324288478 -1 0 0 0 0 1 forward_v I I I I #
coedge $-1 -1 $-1 $89 $90 $91 $92 reversed $29 $-1 #
coedge $-1 -1 $-1 $93 $31 $90 $94 reversed $19 $-1 #
coedge $-1 -1 $-1 $31 $93 $32 $58 forward $19 $-1 #
coedge $-1 -1 $-1 $34 $91 $31 $56 forward $60 $-1 #
edge $95 -1 $-1 $96 -0.0024633095244168792 $63 -0.0003621844884531218 $31 $97 forward @7 unknown #
coedge $-1 -1 $-1 $33 $32 $40 $75 reversed $13 $-1 #
edge $98 -1 $-1 $99 0 $63 0.0056457532428847833 $32 $100 forward @7 unknown #
coedge $-1 -1 $-1 $101 $34 $36 $65 reversed $60 $-1 #
loop $-1 -1 $-1 $-1 $102 $103 #
truecolor-adesk-attrib $-1 -1 $104 $-1 $35 -1029333355 #
vertex $-1 -1 $-1 $65 $105 #
vertex $-1 -1 $-1 $35 $106 #
straight-curve $-1 -1 $-1 0.36218448845312134 -1.784914587370115e-16 65 -4.9281916931159297e-13 -1000 0 F -0.0011317301567477544 F -0.00080173015674775427 #
edge $107 -1 $-1 $70 -0.0024964466094067254 $62 -0.0003621844884531219 $36 $108 forward @7 unknown #
coedge $-1 -1 $-1 $109 $37 $41 $77 reversed $68 $-1 #
coedge $-1 -1 $-1 $37 $109 $101 $110 reversed $68 $-1 #
loop $-1 -1 $-1 $-1 $66 $111 #
truecolor-adesk-attrib $-1 -1 $112 $-1 $38 -1029333355 #
vertex $-1 -1 $-1 $38 $113 #
straight-curve $-1 -1 $-1 2.4964466094067252 1.1317301567477542 70.64575324288478 0 0 -1000 F 0 F 0.0056457532428847833 #
truecolor-adesk-attrib $-1 -1 $114 $-1 $39 -1029333355 #
straight-curve $-1 -1 $-1 0.3621844884531219 1.1317301567477542 70.64575324288478 0 0 -1000 F 0 F 0.0056457532428847833 #
coedge $-1 -1 $-1 $115 $40 $93 $116 reversed $42 $-1 #
edge $117 -1 $-1 $45 -0.0011317301567477544 $99 -0.00080173015674775427 $57 $118 forward @7 unknown #
coedge $-1 -1 $-1 $41 $119 $120 $121 forward $42 $-1 #
edge $122 -1 $-1 $123 0.7853981633974475 $44 1.5707963267948966 $41 $124 forward @7 unknown #
coedge $-1 -1 $-1 $125 $126 $127 $128 forward $42 $-1 #
face $129 -1 $-1 $103 $42 $4 $-1 $130 forward single #
DXID-attrib $-1 -1 $-1 $43 $25 @18 ASM_EDGE_FROM_STEP @4 4694 #
point $-1 -1 $-1 2.4964466094067252 1.1317301567477542 70.64575324288478 #
point $-1 -1 $-1 0.3621844884531219 1.1317301567477542 70.64575324288478 #
DXID-attrib $-1 -1 $-1 $48 $28 @18 ASM_FACE_FROM_STEP @21 ROCK VAPOR CARON-7518 #
truecolor-adesk-attrib $-1 -1 $131 $-1 $49 -1029333355 #
face $132 -1 $-1 $133 $134 $4 $-1 $135 forward single #
loop $-1 -1 $-1 $-1 $136 $49 #
plane-surface $-1 -1 $-1 4.049322228048752e-17 -0.33826984325224541 70.64575324288478 -1.1970686447000839e-16 1 0 -1 -1.1970686447000839e-16 0 forward_v I I I I #
coedge $-1 -1 $-1 $137 $138 $139 $140 reversed $50 $-1 #
coedge $-1 -1 $-1 $141 $52 $138 $142 reversed $29 $-1 #
coedge $-1 -1 $-1 $52 $141 $53 $94 forward $29 $-1 #
coedge $-1 -1 $-1 $55 $139 $52 $92 forward $60 $-1 #
edge $143 -1 $-1 $144 -0.0021743252933280354 $96 -0.0011749140383584935 $52 $145 forward @7 unknown #
coedge $-1 -1 $-1 $54 $53 $74 $116 forward $19 $-1 #
edge $146 -1 $-1 $147 0 $96 0.0056457532428847833 $53 $148 forward @7 unknown #
truecolor-adesk-attrib $-1 -1 $149 $-1 $56 -1029333355 #
vertex $-1 -1 $-1 $56 $150 #
straight-curve $-1 -1 $-1 0 0.80173015674775416 65 -1000 0 0 F -0.0024633095244168792 F -0.0003621844884531218 #
truecolor-adesk-attrib $-1 -1 $151 $-1 $58 -1029333355 #
vertex $-1 -1 $-1 $58 $152 #
straight-curve $-1 -1 $-1 0.36218448845312179 0.80173015674775416 70.64575324288478 0 0 -1000 F 0 F 0.0056457532428847833 #
coedge $-1 -1 $-1 $153 $59 $67 $110 forward $60 $-1 #
coedge $-1 -1 $-1 $154 $155 $156 $157 reversed $60 $-1 #
face $158 -1 $-1 $159 $60 $4 $-1 $160 reversed single #
DXID-attrib $-1 -1 $-1 $61 $35 @18 ASM_EDGE_FROM_STEP @4 4940 #
point $-1 -1 $-1 0.3621844884531219 1.1317301567477542 65 #
point $-1 -1 $-1 0.36218448845312179 0.80173015674775416 65 #
truecolor-adesk-attrib $-1 -1 $161 $-1 $65 -1029333355 #
straight-curve $-1 -1 $-1 0 1.1317301567477542 65 -1000 0 0 F -0.0024964466094067254 F -0.0003621844884531219 #
coedge $-1 -1 $-1 $67 $66 $162 $163 reversed $68 $-1 #
edge $164 -1 $-1 $70 -1.5707963267948915 $165 -0.78539816339744239 $101 $166 forward @7 unknown #
face $167 -1 $-1 $168 $68 $4 $-1 $169 forward single #
DXID-attrib $-1 -1 $-1 $69 $38 @18 ASM_EDGE_FROM_STEP @3 553 #
point $-1 -1 $-1 2.4964466094067252 1.1317301567477542 65 #
DXID-attrib $-1 -1 $-1 $72 $39 @18 ASM_EDGE_FROM_STEP @4 2898 #
coedge $-1 -1 $-1 $170 $74 $141 $171 reversed $42 $-1 #
edge $172 -1 $-1 $147 -0.0024633095244168792 $99 -0.0003621844884531218 $93 $173 forward @7 unknown #
truecolor-adesk-attrib $-1 -1 $174 $-1 $75 -1029333355 #
straight-curve $-1 -1 $-1 0.36218448845312134 -1.784914587370115e-16 70.64575324288478 -4.9281916931159297e-13 -1000 0 F -0.0011317301567477544 F -0.00080173015674775427 #
coedge $-1 -1 $-1 $76 $175 $176 $177 forward $42 $-1 #
coedge $-1 -1 $-1 $178 $162 $76 $121 reversed $179 $-1 #
edge $180 -1 $-1 $181 -0.0022074623783178838 $123 -0.0011417769533686455 $120 $182 forward @7 unknown #
truecolor-adesk-attrib $-1 -1 $183 $-1 $77 -1029333355 #
vertex $-1 -1 $-1 $121 $184 #
ellipse-curve $-1 -1 $-1 2.4964466094067252 0.88173015674775423 70.64575324288478 0 0 1 0.24999999999999981 0 0 1 F 0.7853981633974475 F 1.5707963267948966 #
coedge $-1 -1 $-1 $175 $78 $185 $186 forward $42 $-1 #
coedge $-1 -1 $-1 $78 $187 $188 $189 forward $42 $-1 #
coedge $-1 -1 $-1 $190 $191 $78 $128 reversed $192 $-1 #
edge $193 -1 $-1 $194 -0.0032499999999999994 $195 0.0032499999999999994 $127 $196 forward @7 unknown #
truecolor-adesk-attrib $-1 -1 $197 $-1 $79 -1029333355 #
plane-surface $-1 -1 $-1 0 0 70.64575324288478 0 0 1 1 0 0 forward_v I I I I #
DXID-attrib $-1 -1 $-1 $84 $49 @18 ASM_FACE_FROM_STEP @22 ROCK VAPOR CARON-10063 #
truecolor-adesk-attrib $-1 -1 $198 $-1 $85 -1029333355 #
face $199 -1 $-1 $200 $201 $4 $-1 $202 forward single #
loop $-1 -1 $-1 $-1 $203 $85 #
plane-surface $-1 -1 $-1 -3.1699999999999995 0 70.64575324288478 1 0 0 0 0 -1 forward_v I I I I #
coedge $-1 -1 $-1 $204 $205 $206 $207 reversed $86 $-1 #
coedge $-1 -1 $-1 $208 $88 $205 $209 reversed $50 $-1 #
coedge $-1 -1 $-1 $88 $208 $89 $142 forward $50 $-1 #
coedge $-1 -1 $-1 $91 $206 $88 $140 forward $60 $-1 #
edge $210 -1 $-1 $211 -0.00033826984325224503 $144 9.5039681164633497e-05 $88 $212 forward @7 unknown #
coedge $-1 -1 $-1 $90 $89 $115 $171 forward $29 $-1 #
edge $213 -1 $-1 $214 0 $144 0.0056457532428847833 $89 $215 forward @7 unknown #
truecolor-adesk-attrib $-1 -1 $216 $-1 $92 -1029333355 #
vertex $-1 -1 $-1 $92 $217 #
straight-curve $-1 -1 $-1 1.6325198405823178 1.6325198405823171 65 -707.10678118654744 707.10678118654766 0 F -0.0021743252933280354 F -0.0011749140383584935 #
truecolor-adesk-attrib $-1 -1 $218 $-1 $94 -1029333355 #
vertex $-1 -1 $-1 $94 $219 #
straight-curve $-1 -1 $-1 2.463309524416879 0.80173015674775416 70.64575324288478 0 0 -1000 F 0 F 0.0056457532428847833 #
DXID-attrib $-1 -1 $-1 $95 $56 @18 ASM_EDGE_FROM_STEP @5 23418 #
point $-1 -1 $-1 2.463309524416879 0.80173015674775416 65 #
DXID-attrib $-1 -1 $-1 $98 $58 @18 ASM_EDGE_FROM_STEP @3 148 #
point $-1 -1 $-1 0.36218448845312179 0.80173015674775416 70.64575324288478 #
coedge $-1 -1 $-1 $155 $101 $220 $221 reversed $60 $-1 #
coedge $-1 -1 $-1 $222 $102 $223 $224 forward $60 $-1 #
coedge $-1 -1 $-1 $102 $153 $225 $226 forward $60 $-1 #
coedge $-1 -1 $-1 $227 $228 $102 $157 forward $229 $-1 #
edge $230 -1 $-1 $231 -0.00041826984325224578 $232 0.00012817676615448038 $156 $233 forward @7 unknown #
truecolor-adesk-attrib $-1 -1 $234 $-1 $103 -1029333355 #
face $235 -1 $-1 $236 $237 $4 $-1 $238 forward single #
plane-surface $-1 -1 $-1 0 0 65 0 0 1 1 0 0 forward_v I I I I #
DXID-attrib $-1 -1 $-1 $107 $65 @18 ASM_EDGE_FROM_STEP @4 2673 #
coedge $-1 -1 $-1 $120 $220 $109 $163 forward $179 $-1 #
edge $239 -1 $-1 $165 -0.0056457532428847833 $123 0 $162 $240 forward @7 unknown #
truecolor-adesk-attrib $-1 -1 $241 $-1 $110 -1029333355 #
vertex $-1 -1 $-1 $221 $242 #
ellipse-curve $-1 -1 $-1 2.4964466094067252 0.88173015674775423 65 0 0 -1 0.24999999999999981 1.3010426069826055e-15 0 1 F -1.5707963267948915 F -0.78539816339744239 #
truecolor-adesk-attrib $-1 -1 $243 $-1 $111 -1029333355 #
face $244 -1 $-1 $245 $246 $4 $-1 $247 forward single #
cone-surface $-1 -1 $-1 2.4964466094067252 0.88173015674775423 70.64575324288478 0 0 -1 -0.24999999999999981 0 0 1 I I 0 1 0.24999999999999981 forward I I I I #
coedge $-1 -1 $-1 $248 $115 $208 $249 reversed $42 $-1 #
edge $250 -1 $-1 $214 -0.0021743252933280354 $147 -0.0011749140383584935 $141 $251 forward @7 unknown #
truecolor-adesk-attrib $-1 -1 $252 $-1 $116 -1029333355 #
straight-curve $-1 -1 $-1 0 0.80173015674775416 70.64575324288478 -1000 0 0 F -0.0024633095244168792 F -0.0003621844884531218 #
DXID-attrib $-1 -1 $-1 $117 $75 @18 ASM_EDGE_FROM_STEP @5 23953 #
coedge $-1 -1 $-1 $119 $125 $253 $254 forward $42 $-1 #
coedge $-1 -1 $-1 $255 $256 $119 $177 reversed $257 $-1 #
edge $258 -1 $-1 $259 0 $181 0.7853981633974475 $119 $260 forward @7 unknown #
coedge $-1 -1 $-1 $220 $120 $256 $261 forward $179 $-1 #
loop $-1 -1 $-1 $-1 $120 $262 #
truecolor-adesk-attrib $-1 -1 $263 $-1 $121 -1029333355 #
vertex $-1 -1 $-1 $121 $264 #
straight-curve $-1 -1 $-1 1.8658650783738773 1.8658650783738771 70.64575324288478 -707.10678118654744 707.10678118654755 0 F -0.0022074623783178838 F -0.0011417769533686455 #
DXID-attrib $-1 -1 $-1 $122 $77 @18 ASM_EDGE_FROM_STEP @5 13147 #
point $-1 -1 $-1 2.6732233047033627 1.0585068520443914 70.64575324288478 #
coedge $-1 -1 $-1 $265 $266 $125 $186 reversed $237 $-1 #
edge $267 -1 $-1 $195 -1.5707963267948966 $268 0 $125 $269 forward @7 unknown #
coedge $-1 -1 $-1 $126 $270 $271 $272 forward $42 $-1 #
coedge $-1 -1 $-1 $273 $274 $126 $189 reversed $246 $-1 #
edge $275 -1 $-1 $276 -3.1415926535897931 $194 -1.5707963267948966 $126 $277 forward @7 unknown #
coedge $-1 -1 $-1 $278 $127 $274 $279 forward $192 $-1 #
coedge $-1 -1 $-1 $127 $278 $265 $280 forward $192 $-1 #
loop $-1 -1 $-1 $-1 $278 $281 #
truecolor-adesk-attrib $-1 -1 $282 $-1 $128 -1029333355 #
vertex $-1 -1 $-1 $128 $283 #
vertex $-1 -1 $-1 $280 $284 #
straight-curve $-1 -1 $-1 0 -0.66826984325224592 70.64575324288478 1000 0 0 F -0.0032499999999999994 F 0.0032499999999999994 #
DXID-attrib $-1 -1 $-1 $129 $79 @18 ASM_FACE_FROM_STEP @22 ROCK VAPOR CARON-13994 #
DXID-attrib $-1 -1 $-1 $132 $85 @18 ASM_FACE_FROM_STEP @21 ROCK VAPOR CARON-3792 #
truecolor-adesk-attrib $-1 -1 $285 $-1 $133 -1029333355 #
face $286 -1 $-1 $287 $288 $4 $-1 $289 forward single #
loop $-1 -1 $-1 $-1 $290 $133 #
plane-surface $-1 -1 $-1 -1.6325198405823178 1.6325198405823165 70.64575324288478 0.70710678118654779 -0.70710678118654735 0 0.70710678118654735 0.70710678118654779 0 forward_v I I I I #
coedge $-1 -1 $-1 $291 $292 $293 $294 reversed $134 $-1 #
coedge $-1 -1 $-1 $295 $136 $292 $296 reversed $86 $-1 #
coedge $-1 -1 $-1 $136 $295 $137 $209 forward $86 $-1 #
coedge $-1 -1 $-1 $139 $293 $136 $207 forward $60 $-1 #
edge $297 -1 $-1 $298 -0.0031699999999999996 $211 0.0031699999999999996 $136 $299 forward @7 unknown #
coedge $-1 -1 $-1 $138 $137 $170 $249 forward $50 $-1 #
edge $300 -1 $-1 $301 0 $211 0.0056457532428847833 $137 $302 forward @7 unknown #
truecolor-adesk-attrib $-1 -1 $303 $-1 $140 -1029333355 #
vertex $-1 -1 $-1 $140 $304 #
straight-curve $-1 -1 $-1 3.1699999999999995 0 65 0 1000 0 F -0.00033826984325224503 F 9.5039681164633497e-05 #
truecolor-adesk-attrib $-1 -1 $305 $-1 $142 -1029333355 #
vertex $-1 -1 $-1 $142 $306 #
straight-curve $-1 -1 $-1 3.1699999999999995 0.095039681164633488 70.64575324288478 0 0 -1000 F 0 F 0.0056457532428847833 #
DXID-attrib $-1 -1 $-1 $143 $92 @18 ASM_EDGE_FROM_STEP @3 102 #
point $-1 -1 $-1 3.1699999999999995 0.095039681164633488 65 #
DXID-attrib $-1 -1 $-1 $146 $94 @18 ASM_EDGE_FROM_STEP @4 3575 #
point $-1 -1 $-1 2.463309524416879 0.80173015674775416 70.64575324288478 #
coedge $-1 -1 $-1 $162 $178 $153 $221 forward $179 $-1 #
edge $307 -1 $-1 $308 -0.0022074623783178838 $165 -0.0011417769533686455 $220 $309 forward @7 unknown #
coedge $-1 -1 $-1 $310 $154 $278 $311 reversed $60 $-1 #
coedge $-1 -1 $-1 $266 $265 $154 $224 reversed $237 $-1 #
edge $312 -1 $-1 $231 0 $313 1.5707963267948966 $154 $314 forward @7 unknown #
coedge $-1 -1 $-1 $256 $255 $155 $226 reversed $257 $-1 #
edge $315 -1 $-1 $308 -0.78539816339745017 $232 -2.7105054312137587e-15 $155 $316 forward @7 unknown #
coedge $-1 -1 $-1 $253 $156 $255 $317 forward $229 $-1 #
coedge $-1 -1 $-1 $156 $253 $266 $318 forward $229 $-1 #
loop $-1 -1 $-1 $-1 $253 $319 #
truecolor-adesk-attrib $-1 -1 $320 $-1 $157 -1029333355 #
vertex $-1 -1 $-1 $318 $321 #
vertex $-1 -1 $-1 $157 $322 #
straight-curve $-1 -1 $-1 3.5 0 65 0 1000 0 F -0.00041826984325224578 F 0.00012817676615448038 #
DXID-attrib $-1 -1 $-1 $158 $103 @18 ASM_FACE_FROM_STEP @21 ROCK VAPOR CARON-6426 #
truecolor-adesk-attrib $-1 -1 $323 $-1 $159 -1029333355 #
face $324 -1 $-1 $111 $257 $4 $-1 $325 forward single #
loop $-1 -1 $-1 $-1 $185 $159 #
cone-surface $-1 -1 $-1 3.2499999999999996 -0.41826984325224581 70.64575324288478 0 0 -1 -0.25000000000000022 0 0 1 I I 0 1 0.25000000000000022 forward I I I I #
truecolor-adesk-attrib $-1 -1 $326 $-1 $163 -1029333355 #
straight-curve $-1 -1 $-1 2.6732233047033627 1.058506852044391 70.64575324288478 0 0 1000 F -0.0056457532428847833 F 0 #
DXID-attrib $-1 -1 $-1 $164 $110 @18 ASM_EDGE_FROM_STEP @4 2423 #
point $-1 -1 $-1 2.6732233047033627 1.0585068520443914 65 #
DXID-attrib $-1 -1 $-1 $167 $111 @18 ASM_FACE_FROM_STEP @21 ROCK VAPOR CARON-7517 #
truecolor-adesk-attrib $-1 -1 $327 $-1 $168 -1029333355 #
face $328 -1 $-1 $329 $330 $4 $-1 $331 forward single #
loop $-1 -1 $-1 $-1 $188 $168 #
cone-surface $-1 -1 $-1 -3.2499999999999996 -0.41826984325224581 70.64575324288478 0 0 -1 -0.25000000000000022 0 0 1 I I 0 1 0.25000000000000022 forward I I I I #
coedge $-1 -1 $-1 $332 $170 $295 $333 reversed $42 $-1 #
edge $334 -1 $-1 $301 -0.00033826984325224503 $214 9.5039681164633497e-05 $208 $335 forward @7 unknown #
truecolor-adesk-attrib $-1 -1 $336 $-1 $171 -1029333355 #
straight-curve $-1 -1 $-1 1.6325198405823178 1.6325198405823171 70.64575324288478 -707.10678118654744 707.10678118654766 0 F -0.0021743252933280354 F -0.0011749140383584935 #
DXID-attrib $-1 -1 $-1 $172 $116 @18 ASM_EDGE_FROM_STEP @3 610 #
coedge $-1 -1 $-1 $228 $227 $175 $254 reversed $229 $-1 #
edge $337 -1 $-1 $268 -0.00041826984325224578 $259 0.00012817676615448038 $253 $338 forward @7 unknown #
coedge $-1 -1 $-1 $225 $176 $227 $317 reversed $257 $-1 #
coedge $-1 -1 $-1 $176 $225 $178 $261 reversed $257 $-1 #
loop $-1 -1 $-1 $-1 $176 $236 #
truecolor-adesk-attrib $-1 -1 $339 $-1 $177 -1029333355 #
vertex $-1 -1 $-1 $254 $340 #
ellipse-curve $-1 -1 $-1 3.2499999999999996 0.12817676615448037 70.64575324288478 0 0 1 0.25000000000000022 0 0 1 F 0 F 0.7853981633974475 #
edge $341 -1 $-1 $181 0 $308 0.0056457532428847833 $178 $342 forward @7 unknown #
face $343 -1 $-1 $79 $179 $4 $-1 $344 reversed single #
DXID-attrib $-1 -1 $-1 $180 $121 @18 ASM_EDGE_FROM_STEP @5 12189 #
point $-1 -1 $-1 3.4267766952966365 0.30495346145111707 70.64575324288478 #
coedge $-1 -1 $-1 $223 $185 $191 $280 reversed $237 $-1 #
coedge $-1 -1 $-1 $185 $223 $228 $318 reversed $237 $-1 #
truecolor-adesk-attrib $-1 -1 $345 $-1 $186 -1029333355 #
vertex $-1 -1 $-1 $254 $346 #
ellipse-curve $-1 -1 $-1 3.2499999999999996 -0.41826984325224581 70.64575324288478 0 0 1 0.25000000000000022 0 0 1 F -1.5707963267948966 F 0 #
coedge $-1 -1 $-1 $187 $347 $348 $349 forward $42 $-1 #
coedge $-1 -1 $-1 $350 $351 $187 $272 reversed $352 $-1 #
edge $353 -1 $-1 $354 -0.0001224945789806793 $276 0.00041826984325224578 $271 $355 forward @7 unknown #
coedge $-1 -1 $-1 $356 $188 $351 $357 reversed $246 $-1 #
coedge $-1 -1 $-1 $188 $356 $190 $279 reversed $246 $-1 #
truecolor-adesk-attrib $-1 -1 $358 $-1 $189 -1029333355 #
vertex $-1 -1 $-1 $357 $359 #
ellipse-curve $-1 -1 $-1 -3.2499999999999996 -0.41826984325224581 70.64575324288478 0 0 1 0.25000000000000022 0 0 1 F -3.1415926535897931 F -1.5707963267948966 #
coedge $-1 -1 $-1 $191 $190 $222 $311 forward $192 $-1 #
edge $360 -1 $-1 $194 0 $361 0.0056457532428847833 $190 $362 forward @7 unknown #
edge $363 -1 $-1 $313 -0.0056457532428847833 $195 0 $191 $364 forward @7 unknown #
face $365 -1 $-1 $319 $192 $4 $-1 $366 reversed single #
DXID-attrib $-1 -1 $-1 $193 $128 @18 ASM_EDGE_FROM_STEP @5 15466 #
point $-1 -1 $-1 -3.2499999999999996 -0.66826984325224592 70.64575324288478 #
point $-1 -1 $-1 3.2499999999999996 -0.66826984325224592 70.64575324288478 #
DXID-attrib $-1 -1 $-1 $199 $133 @18 ASM_FACE_FROM_STEP @21 ROCK VAPOR CARON-4810 #
truecolor-adesk-attrib $-1 -1 $367 $-1 $200 -1029333355 #
face $368 -1 $-1 $369 $370 $4 $-1 $371 reversed single #
loop $-1 -1 $-1 $-1 $372 $200 #
plane-surface $-1 -1 $-1 0 0.80173015674775416 70.64575324288478 0 -1 0 0 0 -1 forward_v I I I I #
coedge $-1 -1 $-1 $373 $374 $375 $376 reversed $201 $-1 #
coedge $-1 -1 $-1 $377 $203 $374 $378 reversed $134 $-1 #
coedge $-1 -1 $-1 $203 $377 $204 $296 forward $134 $-1 #
coedge $-1 -1 $-1 $206 $375 $203 $294 forward $60 $-1 #
edge $379 -1 $-1 $380 -9.5039681164633266e-05 $298 0.00033826984325224579 $203 $381 forward @7 unknown #
coedge $-1 -1 $-1 $205 $204 $248 $333 forward $86 $-1 #
edge $382 -1 $-1 $383 0 $298 0.0056457532428847833 $204 $384 forward @7 unknown #
truecolor-adesk-attrib $-1 -1 $385 $-1 $207 -1029333355 #
vertex $-1 -1 $-1 $207 $386 #
straight-curve $-1 -1 $-1 4.049322228048752e-17 -0.33826984325224541 65 1000 1.1970686447000839e-13 0 F -0.0031699999999999996 F 0.0031699999999999996 #
truecolor-adesk-attrib $-1 -1 $387 $-1 $209 -1029333355 #
vertex $-1 -1 $-1 $209 $388 #
straight-curve $-1 -1 $-1 3.1699999999999995 -0.33826984325224507 70.64575324288478 0 0 -1000 F 0 F 0.0056457532428847833 #
DXID-attrib $-1 -1 $-1 $210 $140 @18 ASM_EDGE_FROM_STEP @5 20497 #
point $-1 -1 $-1 3.1699999999999995 -0.33826984325224507 65 #
DXID-attrib $-1 -1 $-1 $213 $142 @18 ASM_EDGE_FROM_STEP @5 21017 #
point $-1 -1 $-1 3.1699999999999995 0.095039681164633488 70.64575324288478 #
truecolor-adesk-attrib $-1 -1 $389 $-1 $221 -1029333355 #
vertex $-1 -1 $-1 $261 $390 #
straight-curve $-1 -1 $-1 1.8658650783738773 1.8658650783738771 65 -707.10678118654744 707.10678118654755 0 F -0.0022074623783178838 F -0.0011417769533686455 #
coedge $-1 -1 $-1 $391 $222 $356 $392 forward $60 $-1 #
edge $393 -1 $-1 $361 -0.0032499999999999994 $313 0.0032499999999999994 $278 $394 forward @7 unknown #
truecolor-adesk-attrib $-1 -1 $395 $-1 $224 -1029333355 #
vertex $-1 -1 $-1 $311 $396 #
ellipse-curve $-1 -1 $-1 3.2499999999999996 -0.41826984325224581 65 0 0 -1 0.25000000000000022 0 0 1 F 0 F 1.5707963267948966 #
truecolor-adesk-attrib $-1 -1 $397 $-1 $226 -1029333355 #
ellipse-curve $-1 -1 $-1 3.2499999999999996 0.12817676615448037 65 0 0 -1 0.25000000000000022 -6.7762635780344027e-16 0 1 F -0.78539816339745017 F -2.7105054312137587e-15 #
edge $398 -1 $-1 $232 -0.0056457532428847833 $259 0 $227 $399 forward @7 unknown #
edge $400 -1 $-1 $268 0 $231 0.0056457532428847833 $228 $401 forward @7 unknown #
face $402 -1 $-1 $262 $229 $4 $-1 $403 reversed single #
DXID-attrib $-1 -1 $-1 $230 $157 @18 ASM_EDGE_FROM_STEP @5 21540 #
point $-1 -1 $-1 3.5 -0.41826984325224581 65 #
point $-1 -1 $-1 3.5 0.12817676615448037 65 #
DXID-attrib $-1 -1 $-1 $235 $159 @18 ASM_FACE_FROM_STEP @21 ROCK VAPOR CARON-8455 #
truecolor-adesk-attrib $-1 -1 $404 $-1 $236 -1029333355 #
cone-surface $-1 -1 $-1 3.2499999999999996 0.12817676615448037 70.64575324288478 0 0 -1 -0.25000000000000022 0 0 1 I I 0 1 0.25000000000000022 forward I I I I #
DXID-attrib $-1 -1 $-1 $239 $163 @18 ASM_EDGE_FROM_STEP @4 1255 #
DXID-attrib $-1 -1 $-1 $244 $168 @18 ASM_FACE_FROM_STEP @22 ROCK VAPOR CARON-19043 #
truecolor-adesk-attrib $-1 -1 $405 $-1 $245 -1029333355 #
face $406 -1 $-1 $-1 $407 $4 $-1 $408 forward single #
loop $-1 -1 $-1 $-1 $348 $245 #
cone-surface $-1 -1 $-1 -3.2499999999999996 0.12249457898067929 70.64575324288478 0 0 -1 -0.25000000000000022 0 0 1 I I 0 1 0.25000000000000022 forward I I I I #
coedge $-1 -1 $-1 $409 $248 $377 $410 reversed $42 $-1 #
edge $411 -1 $-1 $383 -0.0031699999999999996 $301 0.0031699999999999996 $295 $412 forward @7 unknown #
truecolor-adesk-attrib $-1 -1 $413 $-1 $249 -1029333355 #
straight-curve $-1 -1 $-1 3.1699999999999995 0 70.64575324288478 0 1000 0 F -0.00033826984325224503 F 9.5039681164633497e-05 #
DXID-attrib $-1 -1 $-1 $250 $171 @18 ASM_EDGE_FROM_STEP @3 832 #
truecolor-adesk-attrib $-1 -1 $414 $-1 $254 -1029333355 #
straight-curve $-1 -1 $-1 3.5 0 70.64575324288478 0 1000 0 F -0.00041826984325224578 F 0.00012817676615448038 #
DXID-attrib $-1 -1 $-1 $258 $177 @18 ASM_EDGE_FROM_STEP @4 3662 #
point $-1 -1 $-1 3.5 0.12817676615448037 70.64575324288478 #
truecolor-adesk-attrib $-1 -1 $415 $-1 $261 -1029333355 #
straight-curve $-1 -1 $-1 3.4267766952966365 0.30495346145111707 70.64575324288478 0 0 -1000 F 0 F 0.0056457532428847833 #
truecolor-adesk-attrib $-1 -1 $416 $-1 $262 -1029333355 #
plane-surface $-1 -1 $-1 1.8658650783738773 1.8658650783738771 70.64575324288478 -0.70710678118654757 -0.70710678118654746 0 0.70710678118654746 -0.70710678118654768 0 forward_v I I I I #
DXID-attrib $-1 -1 $-1 $267 $186 @18 ASM_EDGE_FROM_STEP @3 120 #
point $-1 -1 $-1 3.5 -0.41826984325224581 70.64575324288478 #
coedge $-1 -1 $-1 $270 $417 $418 $419 forward $42 $-1 #
coedge $-1 -1 $-1 $420 $421 $270 $349 reversed $330 $-1 #
edge $422 -1 $-1 $423 2.3368725272209017 $354 3.1415926535897931 $270 $424 forward @7 unknown #
coedge $-1 -1 $-1 $425 $271 $421 $426 forward $352 $-1 #
coedge $-1 -1 $-1 $271 $425 $273 $357 forward $352 $-1 #
loop $-1 -1 $-1 $-1 $425 $427 #
truecolor-adesk-attrib $-1 -1 $428 $-1 $272 -1029333355 #
vertex $-1 -1 $-1 $272 $429 #
straight-curve $-1 -1 $-1 -3.5 0 70.64575324288478 0 -1000 0 F -0.0001224945789806793 F 0.00041826984325224578 #
coedge $-1 -1 $-1 $274 $273 $310 $392 reversed $246 $-1 #
edge $430 -1 $-1 $431 -0.0056457532428847833 $276 0 $351 $432 forward @7 unknown #
DXID-attrib $-1 -1 $-1 $275 $189 @18 ASM_EDGE_FROM_STEP @4 8211 #
point $-1 -1 $-1 -3.5 -0.41826984325224581 70.64575324288478 #
truecolor-adesk-attrib $-1 -1 $433 $-1 $279 -1029333355 #
vertex $-1 -1 $-1 $311 $434 #
straight-curve $-1 -1 $-1 -3.2499999999999996 -0.66826984325224592 70.64575324288478 0 0 -1000 F 0 F 0.0056457532428847833 #
truecolor-adesk-attrib $-1 -1 $435 $-1 $280 -1029333355 #
straight-curve $-1 -1 $-1 3.2499999999999996 -0.66826984325224592 70.64575324288478 0 0 1000 F -0.0056457532428847833 F 0 #
truecolor-adesk-attrib $-1 -1 $436 $-1 $281 -1029333355 #
plane-surface $-1 -1 $-1 0 -0.66826984325224592 70.64575324288478 0 1 0 0 0 1 forward_v I I I I #
DXID-attrib $-1 -1 $-1 $286 $200 @18 ASM_FACE_FROM_STEP @20 ROCK VAPOR CARON-197 #
truecolor-adesk-attrib $-1 -1 $437 $-1 $287 -1029333355 #
face $438 -1 $-1 $439 $440 $4 $-1 $441 reversed single #
loop $-1 -1 $-1 $-1 $442 $287 #
plane-surface $-1 -1 $-1 0.31218448845312186 5.1283500090477369e-17 70.64575324288478 -1 -1.6427305643719765e-16 0 1.6427305643719765e-16 -1 0 forward_v I I I I #
coedge $-1 -1 $-1 $443 $444 $445 $446 reversed $288 $-1 #
coedge $-1 -1 $-1 $447 $290 $444 $448 reversed $201 $-1 #
coedge $-1 -1 $-1 $290 $447 $291 $378 forward $201 $-1 #
coedge $-1 -1 $-1 $293 $445 $290 $376 forward $60 $-1 #
edge $449 -1 $-1 $450 0.0011749140383584928 $380 0.002174325293328035 $290 $451 forward @7 unknown #
coedge $-1 -1 $-1 $292 $291 $332 $410 forward $134 $-1 #
edge $452 -1 $-1 $453 0 $380 0.0056457532428847833 $291 $454 forward @7 unknown #
truecolor-adesk-attrib $-1 -1 $455 $-1 $294 -1029333355 #
vertex $-1 -1 $-1 $294 $456 #
straight-curve $-1 -1 $-1 -3.1699999999999995 0 65 0 -1000 0 F -9.5039681164633266e-05 F 0.00033826984325224579 #
truecolor-adesk-attrib $-1 -1 $457 $-1 $296 -1029333355 #
vertex $-1 -1 $-1 $296 $458 #
straight-curve $-1 -1 $-1 -3.1699999999999995 -0.33826984325224579 70.64575324288478 0 0 -1000 F 0 F 0.0056457532428847833 #
DXID-attrib $-1 -1 $-1 $297 $207 @18 ASM_EDGE_FROM_STEP @5 21349 #
point $-1 -1 $-1 -3.1699999999999995 -0.33826984325224579 65 #
DXID-attrib $-1 -1 $-1 $300 $209 @18 ASM_EDGE_FROM_STEP @5 19997 #
point $-1 -1 $-1 3.1699999999999995 -0.33826984325224507 70.64575324288478 #
DXID-attrib $-1 -1 $-1 $307 $221 @18 ASM_EDGE_FROM_STEP @5 18681 #
point $-1 -1 $-1 3.4267766952966365 0.30495346145111707 65 #
coedge $-1 -1 $-1 $459 $310 $425 $460 reversed $60 $-1 #
edge $461 -1 $-1 $361 1.5707963267948966 $431 3.1415926535897931 $310 $462 forward @7 unknown #
truecolor-adesk-attrib $-1 -1 $463 $-1 $311 -1029333355 #
straight-curve $-1 -1 $-1 0 -0.66826984325224592 65 1000 0 0 F -0.0032499999999999994 F 0.0032499999999999994 #
DXID-attrib $-1 -1 $-1 $312 $224 @18 ASM_EDGE_FROM_STEP @4 5553 #
point $-1 -1 $-1 3.2499999999999996 -0.66826984325224592 65 #
DXID-attrib $-1 -1 $-1 $315 $226 @18 ASM_EDGE_FROM_STEP @5 21996 #
truecolor-adesk-attrib $-1 -1 $464 $-1 $317 -1029333355 #
straight-curve $-1 -1 $-1 3.5 0.12817676615448037 70.64575324288478 0 0 1000 F -0.0056457532428847833 F 0 #
truecolor-adesk-attrib $-1 -1 $465 $-1 $318 -1029333355 #
straight-curve $-1 -1 $-1 3.5 -0.41826984325224581 70.64575324288478 0 0 -1000 F 0 F 0.0056457532428847833 #
truecolor-adesk-attrib $-1 -1 $466 $-1 $319 -1029333355 #
plane-surface $-1 -1 $-1 3.5 0 70.64575324288478 -1 0 0 0 0 1 forward_v I I I I #
DXID-attrib $-1 -1 $-1 $324 $236 @18 ASM_FACE_FROM_STEP @22 ROCK VAPOR CARON-12840 #
DXID-attrib $-1 -1 $-1 $328 $245 @18 ASM_FACE_FROM_STEP @21 ROCK VAPOR CARON-2457 #
truecolor-adesk-attrib $-1 -1 $467 $-1 $329 -1029333355 #
loop $-1 -1 $-1 $-1 $468 $329 #
cone-surface $-1 -1 $-1 -2.4608427088211497 0.88173015674775412 70.64575324288478 0 0 -1 -0.25000000000000022 0 0 1 I I 0 1 0.25000000000000022 forward I I I I #
coedge $-1 -1 $-1 $469 $332 $447 $470 reversed $42 $-1 #
edge $471 -1 $-1 $453 -9.5039681164633266e-05 $383 0.00033826984325224579 $377 $472 forward @7 unknown #
truecolor-adesk-attrib $-1 -1 $473 $-1 $333 -1029333355 #
straight-curve $-1 -1 $-1 4.049322228048752e-17 -0.33826984325224541 70.64575324288478 1000 1.1970686447000839e-13 0 F -0.0031699999999999996 F 0.0031699999999999996 #
DXID-attrib $-1 -1 $-1 $334 $249 @18 ASM_EDGE_FROM_STEP @5 19319 #
DXID-attrib $-1 -1 $-1 $337 $254 @18 ASM_EDGE_FROM_STEP @4 1659 #
DXID-attrib $-1 -1 $-1 $341 $261 @18 ASM_EDGE_FROM_STEP @5 15176 #
DXID-attrib $-1 -1 $-1 $343 $262 @18 ASM_FACE_FROM_STEP @21 ROCK VAPOR CARON-9812 #
coedge $-1 -1 $-1 $347 $474 $468 $475 forward $42 $-1 #
coedge $-1 -1 $-1 $476 $477 $347 $419 reversed $478 $-1 #
edge $479 -1 $-1 $480 0.001162058464111328 $423 0.0022571419736064002 $418 $481 forward @7 unknown #
coedge $-1 -1 $-1 $482 $348 $477 $483 reversed $330 $-1 #
coedge $-1 -1 $-1 $348 $482 $350 $426 reversed $330 $-1 #
truecolor-adesk-attrib $-1 -1 $484 $-1 $349 -1029333355 #
vertex $-1 -1 $-1 $483 $485 #
ellipse-curve $-1 -1 $-1 -3.2499999999999996 0.12249457898067929 70.64575324288478 0 0 1 0.25000000000000022 0 0 1 F 2.3368725272209017 F 3.1415926535897931 #
coedge $-1 -1 $-1 $351 $350 $391 $460 forward $352 $-1 #
edge $486 -1 $-1 $354 0 $487 0.0056457532428847833 $350 $488 forward @7 unknown #
face $489 -1 $-1 $281 $352 $4 $-1 $490 reversed single #
DXID-attrib $-1 -1 $-1 $353 $272 @18 ASM_EDGE_FROM_STEP @5 18322 #
point $-1 -1 $-1 -3.5 0.12249457898067929 70.64575324288478 #
truecolor-adesk-attrib $-1 -1 $491 $-1 $357 -1029333355 #
vertex $-1 -1 $-1 $460 $492 #
straight-curve $-1 -1 $-1 -3.5 -0.41826984325224581 70.64575324288478 0 0 1000 F -0.0056457532428847833 F 0 #
DXID-attrib $-1 -1 $-1 $360 $279 @18 ASM_EDGE_FROM_STEP @5 15375 #
point $-1 -1 $-1 -3.2499999999999996 -0.66826984325224592 65 #
DXID-attrib $-1 -1 $-1 $363 $280 @18 ASM_EDGE_FROM_STEP @5 21884 #
DXID-attrib $-1 -1 $-1 $365 $281 @18 ASM_FACE_FROM_STEP @22 ROCK VAPOR CARON-16021 #
DXID-attrib $-1 -1 $-1 $368 $287 @18 ASM_FACE_FROM_STEP @22 ROCK VAPOR CARON-14110 #
truecolor-adesk-attrib $-1 -1 $493 $-1 $369 -1029333355 #
face $494 -1 $-1 $427 $478 $4 $-1 $495 reversed single #
loop $-1 -1 $-1 $-1 $496 $369 #
plane-surface $-1 -1 $-1 0 1.1317301567477542 70.64575324288478 0 -1 0 0 0 -1 forward_v I I I I #
coedge $-1 -1 $-1 $497 $498 $499 $500 forward $370 $-1 #
coedge $-1 -1 $-1 $501 $372 $498 $502 reversed $288 $-1 #
coedge $-1 -1 $-1 $372 $501 $373 $448 forward $288 $-1 #
coedge $-1 -1 $-1 $375 $499 $372 $446 forward $60 $-1 #
edge $503 -1 $-1 $504 -0.00031218448845312177 $450 0.0024633095244168787 $372 $505 forward @7 unknown #
coedge $-1 -1 $-1 $374 $373 $409 $470 forward $201 $-1 #
edge $506 -1 $-1 $507 0 $450 0.0056457532428847833 $373 $508 forward @7 unknown #
truecolor-adesk-attrib $-1 -1 $509 $-1 $376 -1029333355 #
vertex $-1 -1 $-1 $376 $510 #
straight-curve $-1 -1 $-1 -1.6325198405823178 1.6325198405823165 65 -707.10678118654744 -707.10678118654778 0 F 0.0011749140383584928 F 0.002174325293328035 #
truecolor-adesk-attrib $-1 -1 $511 $-1 $378 -1029333355 #
vertex $-1 -1 $-1 $378 $512 #
straight-curve $-1 -1 $-1 -3.1699999999999999 0.095039681164633266 70.64575324288478 0 0 -1000 F 0 F 0.0056457532428847833 #
DXID-attrib $-1 -1 $-1 $379 $294 @18 ASM_EDGE_FROM_STEP @5 23108 #
point $-1 -1 $-1 -3.1699999999999999 0.095039681164633266 65 #
DXID-attrib $-1 -1 $-1 $382 $296 @18 ASM_EDGE_FROM_STEP @3 230 #
point $-1 -1 $-1 -3.1699999999999995 -0.33826984325224579 70.64575324288478 #
coedge $-1 -1 $-1 $513 $391 $482 $514 forward $60 $-1 #
edge $515 -1 $-1 $487 -0.0001224945789806793 $431 0.00041826984325224578 $425 $516 forward @7 unknown #
truecolor-adesk-attrib $-1 -1 $517 $-1 $392 -1029333355 #
ellipse-curve $-1 -1 $-1 -3.2499999999999996 -0.41826984325224581 65 0 0 -1 0.25000000000000022 0 0 1 F 1.5707963267948966 F 3.1415926535897931 #
DXID-attrib $-1 -1 $-1 $393 $311 @18 ASM_EDGE_FROM_STEP @5 21717 #
DXID-attrib $-1 -1 $-1 $398 $317 @18 ASM_EDGE_FROM_STEP @4 5181 #
DXID-attrib $-1 -1 $-1 $400 $318 @18 ASM_EDGE_FROM_STEP @4 2385 #
DXID-attrib $-1 -1 $-1 $402 $319 @18 ASM_FACE_FROM_STEP @22 ROCK VAPOR CARON-13939 #
DXID-attrib $-1 -1 $-1 $406 $329 @18 ASM_FACE_FROM_STEP @21 ROCK VAPOR CARON-2642 #
coedge $-1 -1 $-1 $518 $519 $417 $475 reversed $407 $-1 #
coedge $-1 -1 $-1 $520 $409 $501 $521 reversed $42 $-1 #
edge $522 -1 $-1 $507 0.0011749140383584928 $453 0.002174325293328035 $447 $523 forward @7 unknown #
truecolor-adesk-attrib $-1 -1 $524 $-1 $410 -1029333355 #
straight-curve $-1 -1 $-1 -3.1699999999999995 0 70.64575324288478 0 -1000 0 F -9.5039681164633266e-05 F 0.00033826984325224579 #
DXID-attrib $-1 -1 $-1 $411 $333 @18 ASM_EDGE_FROM_STEP @5 22962 #
coedge $-1 -1 $-1 $417 $520 $525 $526 forward $42 $-1 #
edge $527 -1 $-1 $528 1.5707963267948966 $480 2.3368725272208994 $417 $529 forward @7 unknown #
coedge $-1 -1 $-1 $530 $418 $519 $531 forward $478 $-1 #
coedge $-1 -1 $-1 $418 $530 $420 $483 forward $478 $-1 #
loop $-1 -1 $-1 $-1 $530 $439 #
truecolor-adesk-attrib $-1 -1 $532 $-1 $419 -1029333355 #
vertex $-1 -1 $-1 $419 $533 #
straight-curve $-1 -1 $-1 -1.7967490493128435 1.8675594956364103 70.64575324288478 -720.63663121246282 -693.312949363239 0 F 0.001162058464111328 F 0.0022571419736064002 #
coedge $-1 -1 $-1 $421 $420 $459 $514 reversed $330 $-1 #
edge $534 -1 $-1 $535 -0.0056457532428847833 $423 0 $477 $536 forward @7 unknown #
DXID-attrib $-1 -1 $-1 $422 $349 @18 ASM_EDGE_FROM_STEP @4 7131 #
point $-1 -1 $-1 -3.4233282373408089 0.30265373678379476 70.64575324288478 #
truecolor-adesk-attrib $-1 -1 $537 $-1 $426 -1029333355 #
vertex $-1 -1 $-1 $460 $538 #
straight-curve $-1 -1 $-1 -3.5 0.12249457898067929 70.64575324288478 0 0 -1000 F 0 F 0.0056457532428847833 #
truecolor-adesk-attrib $-1 -1 $539 $-1 $427 -1029333355 #
plane-surface $-1 -1 $-1 -3.5 0 70.64575324288478 1 0 0 0 0 -1 forward_v I I I I #
DXID-attrib $-1 -1 $-1 $430 $357 @18 ASM_EDGE_FROM_STEP @5 10735 #
point $-1 -1 $-1 -3.5 -0.41826984325224581 65 #
DXID-attrib $-1 -1 $-1 $438 $369 @18 ASM_FACE_FROM_STEP @22 ROCK VAPOR CARON-15384 #
truecolor-adesk-attrib $-1 -1 $540 $-1 $439 -1029333355 #
plane-surface $-1 -1 $-1 -1.7967490493128435 1.8675594956364103 70.64575324288478 0.69331294936323895 -0.72063663121246258 0 0.72063663121246258 0.69331294936323895 0 forward_v I I I I #
coedge $-1 -1 $-1 $541 $542 $543 $544 forward $440 $-1 #
coedge $-1 -1 $-1 $545 $442 $542 $546 reversed $370 $-1 #
coedge $-1 -1 $-1 $442 $545 $443 $502 forward $370 $-1 #
coedge $-1 -1 $-1 $445 $543 $442 $500 reversed $60 $-1 #
edge $547 -1 $-1 $504 0.00080173015674775416 $548 0.0011317301567477544 $442 $549 forward @7 unknown #
coedge $-1 -1 $-1 $444 $443 $469 $521 forward $288 $-1 #
edge $550 -1 $-1 $551 0 $504 0.0056457532428847833 $443 $552 forward @7 unknown #
truecolor-adesk-attrib $-1 -1 $553 $-1 $446 -1029333355 #
vertex $-1 -1 $-1 $446 $554 #
straight-curve $-1 -1 $-1 0 0.80173015674775416 65 -1000 0 0 F -0.00031218448845312177 F 0.0024633095244168787 #
truecolor-adesk-attrib $-1 -1 $555 $-1 $448 -1029333355 #
vertex $-1 -1 $-1 $448 $556 #
straight-curve $-1 -1 $-1 -2.4633095244168786 0.80173015674775416 70.64575324288478 0 0 -1000 F 0 F 0.0056457532428847833 #
DXID-attrib $-1 -1 $-1 $449 $376 @18 ASM_EDGE_FROM_STEP @5 15939 #
point $-1 -1 $-1 -2.4633095244168786 0.80173015674775416 65 #
DXID-attrib $-1 -1 $-1 $452 $378 @18 ASM_EDGE_FROM_STEP @5 17726 #
point $-1 -1 $-1 -3.1699999999999999 0.095039681164633266 70.64575324288478 #
coedge $-1 -1 $-1 $557 $459 $530 $558 reversed $60 $-1 #
edge $559 -1 $-1 $487 -3.1415926535897967 $535 -2.3368725272209052 $459 $560 forward @7 unknown #
truecolor-adesk-attrib $-1 -1 $561 $-1 $460 -1029333355 #
straight-curve $-1 -1 $-1 -3.5 0 65 0 -1000 0 F -0.0001224945789806793 F 0.00041826984325224578 #
DXID-attrib $-1 -1 $-1 $461 $392 @18 ASM_EDGE_FROM_STEP @4 4123 #
coedge $-1 -1 $-1 $562 $468 $541 $563 reversed $407 $-1 #
coedge $-1 -1 $-1 $468 $562 $476 $531 reversed $407 $-1 #
coedge $-1 -1 $-1 $474 $469 $545 $564 forward $42 $-1 #
edge $565 -1 $-1 $551 -0.00031218448845312177 $507 0.0024633095244168787 $501 $566 forward @7 unknown #
truecolor-adesk-attrib $-1 -1 $567 $-1 $470 -1029333355 #
straight-curve $-1 -1 $-1 -1.6325198405823178 1.6325198405823165 70.64575324288478 -707.10678118654744 -707.10678118654778 0 F 0.0011749140383584928 F 0.002174325293328035 #
DXID-attrib $-1 -1 $-1 $471 $410 @18 ASM_EDGE_FROM_STEP @5 18930 #
coedge $-1 -1 $-1 $542 $541 $474 $526 reversed $440 $-1 #
edge $568 -1 $-1 $569 -0.00031218448845312177 $528 0.0024608427088211498 $525 $570 forward @7 unknown #
truecolor-adesk-attrib $-1 -1 $571 $-1 $475 -1029333355 #
vertex $-1 -1 $-1 $563 $572 #
ellipse-curve $-1 -1 $-1 -2.4608427088211497 0.88173015674775412 70.64575324288478 0 0 1 0.25000000000000022 0 0 1 F 1.5707963267948966 F 2.3368725272208994 #
coedge $-1 -1 $-1 $477 $476 $513 $558 forward $478 $-1 #
edge $573 -1 $-1 $480 0 $574 0.0056457532428847833 $476 $575 forward @7 unknown #
DXID-attrib $-1 -1 $-1 $479 $419 @18 ASM_EDGE_FROM_STEP @5 17238 #
point $-1 -1 $-1 -2.6341709461619596 1.0618893145508697 70.64575324288478 #
truecolor-adesk-attrib $-1 -1 $576 $-1 $483 -1029333355 #
vertex $-1 -1 $-1 $558 $577 #
straight-curve $-1 -1 $-1 -3.4233282373408089 0.30265373678379476 70.64575324288478 0 0 1000 F -0.0056457532428847833 F 0 #
DXID-attrib $-1 -1 $-1 $486 $426 @18 ASM_EDGE_FROM_STEP @5 14646 #
point $-1 -1 $-1 -3.5 0.12249457898067929 65 #
DXID-attrib $-1 -1 $-1 $489 $427 @18 ASM_FACE_FROM_STEP @22 ROCK VAPOR CARON-18099 #
DXID-attrib $-1 -1 $-1 $494 $439 @18 ASM_FACE_FROM_STEP @22 ROCK VAPOR CARON-23918 #
coedge $-1 -1 $-1 $525 $496 $518 $563 forward $440 $-1 #
coedge $-1 -1 $-1 $496 $525 $497 $546 forward $440 $-1 #
coedge $-1 -1 $-1 $499 $557 $496 $544 reversed $60 $-1 #
edge $578 -1 $-1 $548 -0.00031218448845312177 $579 0.0024608427088211498 $496 $580 forward @7 unknown #
coedge $-1 -1 $-1 $498 $497 $520 $564 reversed $370 $-1 #
edge $581 -1 $-1 $569 0 $548 0.0056457532428847833 $497 $582 forward @7 unknown #
truecolor-adesk-attrib $-1 -1 $583 $-1 $500 -1029333355 #
vertex $-1 -1 $-1 $500 $584 #
straight-curve $-1 -1 $-1 0.31218448845312186 5.1283500090477369e-17 65 -1.6427305643719764e-13 1000 0 F 0.00080173015674775416 F 0.0011317301567477544 #
truecolor-adesk-attrib $-1 -1 $585 $-1 $502 -1029333355 #
vertex $-1 -1 $-1 $502 $586 #
straight-curve $-1 -1 $-1 0.31218448845312174 0.80173015674775416 70.64575324288478 0 0 -1000 F 0 F 0.0056457532428847833 #
DXID-attrib $-1 -1 $-1 $503 $446 @18 ASM_EDGE_FROM_STEP @5 19279 #
point $-1 -1 $-1 0.31218448845312174 0.80173015674775416 65 #
DXID-attrib $-1 -1 $-1 $506 $448 @18 ASM_EDGE_FROM_STEP @5 15433 #
point $-1 -1 $-1 -2.4633095244168786 0.80173015674775416 70.64575324288478 #
coedge $-1 -1 $-1 $543 $513 $562 $587 forward $60 $-1 #
edge $588 -1 $-1 $574 0.001162058464111328 $535 0.0022571419736064002 $530 $589 forward @7 unknown #
truecolor-adesk-attrib $-1 -1 $590 $-1 $514 -1029333355 #
ellipse-curve $-1 -1 $-1 -3.2499999999999996 0.12249457898067929 65 0 0 -1 0.25000000000000022 -8.9446679230054116e-16 0 1 F -3.1415926535897967 F -2.3368725272209052 #
DXID-attrib $-1 -1 $-1 $515 $460 @18 ASM_EDGE_FROM_STEP @5 10580 #
coedge $-1 -1 $-1 $519 $518 $557 $587 reversed $407 $-1 #
edge $591 -1 $-1 $579 -0.0056457532428847833 $528 0 $541 $592 forward @7 unknown #
edge $593 -1 $-1 $551 0.00080173015674775416 $569 0.0011317301567477544 $545 $594 forward @7 unknown #
truecolor-adesk-attrib $-1 -1 $595 $-1 $521 -1029333355 #
straight-curve $-1 -1 $-1 0 0.80173015674775416 70.64575324288478 -1000 0 0 F -0.00031218448845312177 F 0.0024633095244168787 #
DXID-attrib $-1 -1 $-1 $522 $470 @18 ASM_EDGE_FROM_STEP @5 17280 #
truecolor-adesk-attrib $-1 -1 $596 $-1 $526 -1029333355 #
vertex $-1 -1 $-1 $546 $597 #
straight-curve $-1 -1 $-1 0 1.1317301567477542 70.64575324288478 -1000 0 0 F -0.00031218448845312177 F 0.0024608427088211498 #
DXID-attrib $-1 -1 $-1 $527 $475 @18 ASM_EDGE_FROM_STEP @4 8512 #
point $-1 -1 $-1 -2.4608427088211497 1.1317301567477542 70.64575324288478 #
truecolor-adesk-attrib $-1 -1 $598 $-1 $531 -1029333355 #
vertex $-1 -1 $-1 $558 $599 #
straight-curve $-1 -1 $-1 -2.6341709461619596 1.0618893145508697 70.64575324288478 0 0 -1000 F 0 F 0.0056457532428847833 #
DXID-attrib $-1 -1 $-1 $534 $483 @18 ASM_EDGE_FROM_STEP @5 21171 #
point $-1 -1 $-1 -3.4233282373408089 0.30265373678379476 65 #
truecolor-adesk-attrib $-1 -1 $600 $-1 $544 -1029333355 #
vertex $-1 -1 $-1 $544 $601 #
straight-curve $-1 -1 $-1 0 1.1317301567477542 65 -1000 0 0 F -0.00031218448845312177 F 0.0024608427088211498 #
truecolor-adesk-attrib $-1 -1 $602 $-1 $546 -1029333355 #
straight-curve $-1 -1 $-1 0.31218448845312174 1.1317301567477542 70.64575324288478 0 0 -1000 F 0 F 0.0056457532428847833 #
DXID-attrib $-1 -1 $-1 $547 $500 @18 ASM_EDGE_FROM_STEP @5 19792 #
point $-1 -1 $-1 0.31218448845312174 1.1317301567477542 65 #
DXID-attrib $-1 -1 $-1 $550 $502 @18 ASM_EDGE_FROM_STEP @5 22593 #
point $-1 -1 $-1 0.31218448845312174 0.80173015674775416 70.64575324288478 #
edge $603 -1 $-1 $574 -2.3368725272208994 $579 -1.5707963267948966 $557 $604 forward @7 unknown #
truecolor-adesk-attrib $-1 -1 $605 $-1 $558 -1029333355 #
straight-curve $-1 -1 $-1 -1.7967490493128435 1.8675594956364103 65 -720.63663121246282 -693.312949363239 0 F 0.001162058464111328 F 0.0022571419736064002 #
DXID-attrib $-1 -1 $-1 $559 $514 @18 ASM_EDGE_FROM_STEP @4 6524 #
truecolor-adesk-attrib $-1 -1 $606 $-1 $563 -1029333355 #
straight-curve $-1 -1 $-1 -2.4608427088211497 1.1317301567477542 70.64575324288478 0 0 1000 F -0.0056457532428847833 F 0 #
truecolor-adesk-attrib $-1 -1 $607 $-1 $564 -1029333355 #
straight-curve $-1 -1 $-1 0.31218448845312186 5.1283500090477369e-17 70.64575324288478 -1.6427305643719764e-13 1000 0 F 0.00080173015674775416 F 0.0011317301567477544 #
DXID-attrib $-1 -1 $-1 $565 $521 @18 ASM_EDGE_FROM_STEP @5 19018 #
DXID-attrib $-1 -1 $-1 $568 $526 @18 ASM_EDGE_FROM_STEP @5 14009 #
point $-1 -1 $-1 0.31218448845312174 1.1317301567477542 70.64575324288478 #
DXID-attrib $-1 -1 $-1 $573 $531 @18 ASM_EDGE_FROM_STEP @5 21507 #
point $-1 -1 $-1 -2.6341709461619596 1.0618893145508697 65 #
DXID-attrib $-1 -1 $-1 $578 $544 @18 ASM_EDGE_FROM_STEP @5 11398 #
point $-1 -1 $-1 -2.4608427088211497 1.1317301567477542 65 #
DXID-attrib $-1 -1 $-1 $581 $546 @18 ASM_EDGE_FROM_STEP @5 11477 #
truecolor-adesk-attrib $-1 -1 $608 $-1 $587 -1029333355 #
ellipse-curve $-1 -1 $-1 -2.4608427088211497 0.88173015674775412 65 0 0 -1 0.25000000000000022 0 0 1 F -2.3368725272208994 F -1.5707963267948966 #
DXID-attrib $-1 -1 $-1 $588 $558 @18 ASM_EDGE_FROM_STEP @4 8034 #
DXID-attrib $-1 -1 $-1 $591 $563 @18 ASM_EDGE_FROM_STEP @5 14671 #
DXID-attrib $-1 -1 $-1 $593 $564 @18 ASM_EDGE_FROM_STEP @5 15646 #
DXID-attrib $-1 -1 $-1 $603 $587 @18 ASM_EDGE_FROM_STEP @4 3836 #
