700 444 1 0         
5 ZWCAD 12 ACIS 28.0 NT 24 Sat May 11 16:03:24 2024 
1 9.9999999999999995e-07 1e-10 
body $1 -1 $-1 $2 $-1 $-1 #
DXID-attrib $-1 -1 $-1 $-1 $0 @18 ASM_BODY_FROM_STEP @83 AF1BEE3D35C0813DCB6C93D5EF7B8F47406A4163|:|8FF5ED984540F46E8CB698C1C2E4A025A64374BF #
lump $-1 -1 $-1 $-1 $3 $0 #
shell $-1 -1 $-1 $-1 $-1 $4 $-1 $2 #
face $5 -1 $-1 $6 $7 $3 $-1 $8 reversed single #
truecolor-adesk-attrib $-1 -1 $9 $-1 $4 -1056964608 #
face $10 -1 $-1 $11 $12 $3 $-1 $13 forward single #
loop $-1 -1 $-1 $-1 $14 $4 #
cone-surface $-1 -1 $-1 4.8445477378910393 202.93324697609384 -1.8159889627409432e-14 0 -1 0 0 0 -6.3499999999999988 1 I I 0 1 6.3499999999999988 forward I I I I #
DXID-attrib $-1 -1 $-1 $5 $4 @18 ASM_FACE_FROM_STEP @31 Sailtec Incorporated-Closed-370 #
truecolor-adesk-attrib $-1 -1 $15 $-1 $6 -1056964608 #
face $16 -1 $-1 $17 $18 $3 $-1 $19 forward single #
loop $-1 -1 $-1 $-1 $20 $6 #
cone-surface $-1 -1 $-1 4.8445477378910393 180.70824697609382 -1.8159889627409432e-14 0 -1 0 0 0 -9.6774000000000076 1 I I 0 1 9.6774000000000076 forward I I I I #
coedge $-1 -1 $-1 $21 $22 $23 $24 forward $7 $-1 #
DXID-attrib $-1 -1 $-1 $10 $6 @18 ASM_FACE_FROM_STEP @32 Sailtec Incorporated-Closed-4511 #
truecolor-adesk-attrib $-1 -1 $25 $-1 $11 -1056964608 #
face $26 -1 $-1 $27 $28 $3 $-1 $29 forward single #
loop $-1 -1 $-1 $-1 $30 $11 #
cone-surface $-1 -1 $-1 4.8445477378910393 180.70824697609382 -1.8159889627409432e-14 0 -1 0 0 0 -12.623800000000001 1 I I 0 1 12.623800000000001 forward I I I I #
coedge $-1 -1 $-1 $31 $32 $33 $34 forward $12 $-1 #
coedge $-1 -1 $-1 $35 $14 $36 $37 forward $7 $-1 #
coedge $-1 -1 $-1 $14 $35 $38 $39 reversed $7 $-1 #
coedge $-1 -1 $-1 $40 $40 $14 $24 reversed $41 $-1 #
edge $42 -1 $-1 $43 -3.1415926535897931 $44 1.2246467991473537e-16 $14 $45 forward @7 unknown #
DXID-attrib $-1 -1 $-1 $16 $11 @18 ASM_FACE_FROM_STEP @32 Sailtec Incorporated-Closed-7245 #
truecolor-adesk-attrib $-1 -1 $46 $-1 $17 -1056964608 #
face $47 -1 $-1 $48 $49 $3 $-1 $50 forward single #
loop $-1 -1 $-1 $-1 $51 $17 #
cone-surface $-1 -1 $-1 4.8445477378910393 180.70824697609382 -1.8159889627409432e-14 0 -1 0 0 0 -9.6774000000000111 1 I I 0 1 9.6774000000000111 forward I I I I #
coedge $-1 -1 $-1 $52 $53 $54 $55 forward $18 $-1 #
coedge $-1 -1 $-1 $56 $20 $57 $58 forward $12 $-1 #
coedge $-1 -1 $-1 $20 $56 $59 $60 reversed $12 $-1 #
coedge $-1 -1 $-1 $61 $61 $20 $34 reversed $62 $-1 #
edge $63 -1 $-1 $64 0 $65 3.1415926535897931 $20 $66 forward @7 unknown #
coedge $-1 -1 $-1 $22 $21 $67 $68 reversed $7 $-1 #
coedge $-1 -1 $-1 $69 $70 $21 $37 reversed $71 $-1 #
edge $72 -1 $-1 $44 0 $73 0.022225000000000002 $21 $74 forward @7 unknown #
coedge $-1 -1 $-1 $70 $69 $22 $39 forward $71 $-1 #
edge $75 -1 $-1 $43 0 $76 0.022225000000000002 $22 $77 forward @7 unknown #
coedge $-1 -1 $-1 $23 $23 $69 $78 reversed $41 $-1 #
loop $-1 -1 $-1 $-1 $23 $79 #
truecolor-adesk-attrib $-1 -1 $80 $-1 $24 -1056964608 #
vertex $-1 -1 $-1 $24 $81 #
vertex $-1 -1 $-1 $24 $82 #
ellipse-curve $-1 -1 $-1 4.8445477378910393 202.93324697609384 -1.8159889627409432e-14 0 1 0 0 0 6.3499999999999988 1 F -3.1415926535897931 F 1.2246467991473537e-16 #
DXID-attrib $-1 -1 $-1 $26 $17 @18 ASM_FACE_FROM_STEP @32 Sailtec Incorporated-Closed-2726 #
truecolor-adesk-attrib $-1 -1 $83 $-1 $27 -1056964608 #
face $84 -1 $-1 $85 $86 $3 $-1 $87 forward single #
loop $-1 -1 $-1 $-1 $88 $27 #
cone-surface $-1 -1 $-1 4.8445477378910393 180.70824697609382 -1.8159889627409432e-14 0 -1 0 0 0 -12.623799999999999 1 I I 0 1 12.623799999999999 forward I I I I #
coedge $-1 -1 $-1 $89 $90 $91 $92 forward $28 $-1 #
coedge $-1 -1 $-1 $93 $30 $94 $95 forward $18 $-1 #
coedge $-1 -1 $-1 $30 $93 $96 $97 reversed $18 $-1 #
coedge $-1 -1 $-1 $98 $98 $30 $55 reversed $99 $-1 #
edge $100 -1 $-1 $101 0 $102 3.1415926535897931 $30 $103 forward @7 unknown #
coedge $-1 -1 $-1 $32 $31 $104 $105 reversed $12 $-1 #
coedge $-1 -1 $-1 $106 $107 $31 $58 reversed $108 $-1 #
edge $109 -1 $-1 $65 -0.028575000000000017 $110 -0.021589999999999988 $31 $111 forward @7 unknown #
coedge $-1 -1 $-1 $107 $106 $32 $60 forward $108 $-1 #
edge $112 -1 $-1 $64 -0.028575000000000017 $113 -0.021589999999999988 $32 $114 forward @7 unknown #
coedge $-1 -1 $-1 $33 $33 $106 $115 reversed $62 $-1 #
loop $-1 -1 $-1 $-1 $33 $116 #
truecolor-adesk-attrib $-1 -1 $117 $-1 $34 -1056964608 #
vertex $-1 -1 $-1 $34 $118 #
vertex $-1 -1 $-1 $34 $119 #
ellipse-curve $-1 -1 $-1 4.8445477378910393 209.28324697609386 -1.8159889627409432e-14 0 -1 0 0 0 -9.677400000000004 1 F 0 F 3.1415926535897931 #
coedge $-1 -1 $-1 $120 $120 $35 $68 forward $121 $-1 #
edge $122 -1 $-1 $76 -3.1415926535897931 $73 1.2246467991473537e-16 $35 $123 forward @7 unknown #
coedge $-1 -1 $-1 $38 $36 $40 $78 forward $71 $-1 #
coedge $-1 -1 $-1 $36 $38 $120 $124 reversed $71 $-1 #
loop $-1 -1 $-1 $-1 $36 $125 #
truecolor-adesk-attrib $-1 -1 $126 $-1 $37 -1056964608 #
vertex $-1 -1 $-1 $37 $127 #
straight-curve $-1 -1 $-1 4.8445477378910402 202.93324697609384 6.3499999999999801 0 -999.99999999999989 0 F 0 F 0.022225000000000002 #
truecolor-adesk-attrib $-1 -1 $128 $-1 $39 -1056964608 #
vertex $-1 -1 $-1 $68 $129 #
straight-curve $-1 -1 $-1 4.8445477378910393 202.93324697609384 -6.3500000000000183 0 -999.99999999999989 0 F 0 F 0.022225000000000002 #
edge $130 -1 $-1 $44 1.2246467991473537e-16 $43 3.1415926535897931 $69 $131 forward @7 unknown #
face $132 -1 $-1 $-1 $41 $3 $-1 $133 reversed single #
DXID-attrib $-1 -1 $-1 $42 $24 @18 ASM_EDGE_FROM_STEP @4 1233 #
point $-1 -1 $-1 4.8445477378910393 202.93324697609384 -6.3500000000000183 #
point $-1 -1 $-1 4.8445477378910402 202.93324697609384 6.3499999999999801 #
DXID-attrib $-1 -1 $-1 $47 $27 @18 ASM_FACE_FROM_STEP @32 Sailtec Incorporated-Closed-5669 #
truecolor-adesk-attrib $-1 -1 $134 $-1 $48 -1056964608 #
face $135 -1 $-1 $136 $137 $3 $-1 $138 forward single #
loop $-1 -1 $-1 $-1 $139 $48 #
torus-surface $-1 -1 $-1 4.8445477378910393 182.99424697609388 -1.8159889627409432e-14 0 -1 0 10.337799999999989 2.2860000000000036 0 0 -1 forward_v I I I I #
coedge $-1 -1 $-1 $140 $141 $142 $143 forward $49 $-1 #
coedge $-1 -1 $-1 $144 $51 $145 $146 forward $28 $-1 #
coedge $-1 -1 $-1 $51 $144 $147 $148 reversed $28 $-1 #
coedge $-1 -1 $-1 $149 $149 $51 $92 reversed $150 $-1 #
edge $151 -1 $-1 $152 0 $153 3.1415926535897931 $51 $154 forward @7 unknown #
coedge $-1 -1 $-1 $53 $52 $155 $156 reversed $18 $-1 #
coedge $-1 -1 $-1 $157 $158 $52 $95 reversed $159 $-1 #
edge $160 -1 $-1 $102 -0.021589999999999988 $161 -0.010159999999999982 $52 $162 forward @7 unknown #
coedge $-1 -1 $-1 $158 $157 $53 $97 forward $159 $-1 #
edge $163 -1 $-1 $101 -0.021589999999999988 $164 -0.010159999999999982 $53 $165 forward @7 unknown #
coedge $-1 -1 $-1 $54 $54 $157 $166 reversed $99 $-1 #
loop $-1 -1 $-1 $167 $54 $168 #
truecolor-adesk-attrib $-1 -1 $169 $-1 $55 -1056964608 #
vertex $-1 -1 $-1 $55 $170 #
vertex $-1 -1 $-1 $55 $171 #
ellipse-curve $-1 -1 $-1 4.8445477378910393 202.29824697609385 -1.8159889627409432e-14 0 -1 0 0 0 -12.623799999999999 1 F 0 F 3.1415926535897931 #
coedge $-1 -1 $-1 $172 $172 $56 $105 forward $167 $-1 #
edge $173 -1 $-1 $113 0 $110 3.1415926535897931 $56 $174 forward @7 unknown #
coedge $-1 -1 $-1 $59 $57 $61 $115 forward $108 $-1 #
coedge $-1 -1 $-1 $57 $59 $172 $175 reversed $108 $-1 #
loop $-1 -1 $-1 $-1 $57 $176 #
truecolor-adesk-attrib $-1 -1 $177 $-1 $58 -1056964608 #
vertex $-1 -1 $-1 $58 $178 #
straight-curve $-1 -1 $-1 4.8445477378910402 180.70824697609382 9.6773999999999898 0 -999.99999999999989 0 F -0.028575000000000017 F -0.021589999999999988 #
truecolor-adesk-attrib $-1 -1 $179 $-1 $60 -1056964608 #
vertex $-1 -1 $-1 $105 $180 #
straight-curve $-1 -1 $-1 4.8445477378910393 180.70824697609382 -9.6774000000000253 0 -999.99999999999989 0 F -0.028575000000000017 F -0.021589999999999988 #
edge $181 -1 $-1 $65 -3.1415926535897931 $64 0 $106 $182 forward @7 unknown #
face $183 -1 $-1 $125 $184 $3 $-1 $185 reversed single #
DXID-attrib $-1 -1 $-1 $63 $34 @18 ASM_EDGE_FROM_STEP @3 562 #
point $-1 -1 $-1 4.8445477378910393 209.28324697609386 -9.67740000000002 #
point $-1 -1 $-1 4.8445477378910402 209.28324697609386 9.6773999999999862 #
coedge $-1 -1 $-1 $67 $67 $70 $124 forward $121 $-1 #
loop $-1 -1 $-1 $-1 $67 $186 #
truecolor-adesk-attrib $-1 -1 $187 $-1 $68 -1056964608 #
ellipse-curve $-1 -1 $-1 4.8445477378910393 180.70824697609382 -1.8159889627409432e-14 0 1 0 0 0 6.3499999999999988 1 F -3.1415926535897931 F 1.2246467991473537e-16 #
edge $188 -1 $-1 $73 1.2246467991473537e-16 $76 3.1415926535897931 $120 $189 forward @7 unknown #
face $190 -1 $-1 $79 $71 $3 $-1 $191 reversed single #
DXID-attrib $-1 -1 $-1 $72 $37 @18 ASM_EDGE_FROM_STEP @4 5867 #
point $-1 -1 $-1 4.8445477378910402 180.70824697609382 6.3499999999999801 #
DXID-attrib $-1 -1 $-1 $75 $39 @18 ASM_EDGE_FROM_STEP @3 650 #
point $-1 -1 $-1 4.8445477378910393 180.70824697609382 -6.3500000000000183 #
truecolor-adesk-attrib $-1 -1 $192 $-1 $78 -1056964608 #
ellipse-curve $-1 -1 $-1 4.8445477378910393 202.93324697609384 -1.8159889627409432e-14 0 1 0 0 0 6.3499999999999988 1 F 1.2246467991473537e-16 F 3.1415926535897931 #
truecolor-adesk-attrib $-1 -1 $193 $-1 $79 -1056964608 #
plane-surface $-1 -1 $-1 4.8445477378910393 202.93324697609384 -1.8159889627409432e-14 0 1 0 0 0 25.399999999999995 forward_v I I I I #
DXID-attrib $-1 -1 $-1 $84 $48 @18 ASM_FACE_FROM_STEP @31 Sailtec Incorporated-Closed-221 #
truecolor-adesk-attrib $-1 -1 $194 $-1 $85 -1056964608 #
face $195 -1 $-1 $196 $197 $3 $-1 $198 forward single #
loop $-1 -1 $-1 $-1 $199 $85 #
torus-surface $-1 -1 $-1 4.8445477378910393 210.17224697609382 -1.8159889627409432e-14 0 -1 0 10.337799999999985 2.2860000000000125 0 0 -1 forward_v I I I I #
coedge $-1 -1 $-1 $200 $201 $202 $203 forward $86 $-1 #
coedge $-1 -1 $-1 $202 $88 $204 $205 forward $49 $-1 #
coedge $-1 -1 $-1 $88 $202 $206 $207 reversed $49 $-1 #
coedge $-1 -1 $-1 $208 $208 $88 $143 reversed $209 $-1 #
edge $210 -1 $-1 $211 0 $212 3.1415926535897931 $88 $213 forward @7 unknown #
coedge $-1 -1 $-1 $90 $89 $214 $215 reversed $28 $-1 #
coedge $-1 -1 $-1 $216 $217 $89 $146 reversed $218 $-1 #
edge $219 -1 $-1 $153 -0.010159999999999982 $220 -0.0031749999999999543 $89 $221 forward @7 unknown #
coedge $-1 -1 $-1 $217 $216 $90 $148 forward $218 $-1 #
edge $222 -1 $-1 $152 -0.010159999999999982 $223 -0.0031749999999999543 $90 $224 forward @7 unknown #
coedge $-1 -1 $-1 $91 $91 $216 $225 reversed $150 $-1 #
loop $-1 -1 $-1 $-1 $91 $226 #
truecolor-adesk-attrib $-1 -1 $227 $-1 $92 -1056964608 #
vertex $-1 -1 $-1 $92 $228 #
vertex $-1 -1 $-1 $92 $229 #
ellipse-curve $-1 -1 $-1 4.8445477378910393 190.86824697609384 -1.8159889627409432e-14 0 -1 0 0 0 -9.6774000000000111 1 F 0 F 3.1415926535897931 #
coedge $-1 -1 $-1 $230 $230 $93 $156 forward $231 $-1 #
edge $232 -1 $-1 $164 0 $161 3.1415926535897931 $93 $233 forward @7 unknown #
coedge $-1 -1 $-1 $96 $94 $98 $166 forward $159 $-1 #
coedge $-1 -1 $-1 $94 $96 $230 $234 reversed $159 $-1 #
loop $-1 -1 $-1 $-1 $94 $235 #
truecolor-adesk-attrib $-1 -1 $236 $-1 $95 -1056964608 #
vertex $-1 -1 $-1 $95 $237 #
straight-curve $-1 -1 $-1 4.8445477378910411 180.70824697609382 12.623799999999983 0 -999.99999999999989 0 F -0.021589999999999988 F -0.010159999999999982 #
truecolor-adesk-attrib $-1 -1 $238 $-1 $97 -1056964608 #
vertex $-1 -1 $-1 $156 $239 #
straight-curve $-1 -1 $-1 4.8445477378910393 180.70824697609382 -12.623800000000019 0 -999.99999999999989 0 F -0.021589999999999988 F -0.010159999999999982 #
edge $240 -1 $-1 $102 -3.1415926535897931 $101 0 $157 $241 forward @7 unknown #
loop $-1 -1 $-1 $-1 $104 $168 #
face $242 -1 $-1 $176 $99 $3 $-1 $243 reversed single #
DXID-attrib $-1 -1 $-1 $100 $55 @18 ASM_EDGE_FROM_STEP @3 233 #
point $-1 -1 $-1 4.8445477378910393 202.29824697609385 -12.623800000000017 #
point $-1 -1 $-1 4.8445477378910411 202.29824697609385 12.623799999999983 #
coedge $-1 -1 $-1 $104 $104 $107 $175 forward $167 $-1 #
truecolor-adesk-attrib $-1 -1 $244 $-1 $105 -1056964608 #
ellipse-curve $-1 -1 $-1 4.8445477378910393 202.29824697609385 -1.8159889627409432e-14 0 -1 0 0 0 -9.6774000000000093 1 F 0 F 3.1415926535897931 #
edge $245 -1 $-1 $110 -3.1415926535897931 $113 0 $172 $246 forward @7 unknown #
face $247 -1 $-1 $116 $108 $3 $-1 $248 forward single #
DXID-attrib $-1 -1 $-1 $109 $58 @18 ASM_EDGE_FROM_STEP @4 2817 #
point $-1 -1 $-1 4.8445477378910402 202.29824697609385 9.6773999999999933 #
DXID-attrib $-1 -1 $-1 $112 $60 @18 ASM_EDGE_FROM_STEP @4 7106 #
point $-1 -1 $-1 4.8445477378910393 202.29824697609385 -9.6774000000000271 #
truecolor-adesk-attrib $-1 -1 $249 $-1 $115 -1056964608 #
ellipse-curve $-1 -1 $-1 4.8445477378910393 209.28324697609386 -1.8159889627409432e-14 0 -1 0 0 0 -9.677400000000004 1 F -3.1415926535897931 F 0 #
truecolor-adesk-attrib $-1 -1 $250 $-1 $116 -1056964608 #
loop $-1 -1 $-1 $62 $251 $116 #
plane-surface $-1 -1 $-1 4.8445477378910402 209.28324697609386 -1.8159889627409432e-14 0 1 0 0 0 25.399999999999995 forward_v I I I I #
face $252 -1 $-1 $253 $254 $3 $-1 $255 forward single #
DXID-attrib $-1 -1 $-1 $122 $68 @18 ASM_EDGE_FROM_STEP @3 686 #
truecolor-adesk-attrib $-1 -1 $256 $-1 $124 -1056964608 #
ellipse-curve $-1 -1 $-1 4.8445477378910393 180.70824697609382 -1.8159889627409432e-14 0 1 0 0 0 6.3499999999999988 1 F 1.2246467991473537e-16 F 3.1415926535897931 #
truecolor-adesk-attrib $-1 -1 $257 $-1 $125 -1056964608 #
cone-surface $-1 -1 $-1 4.8445477378910393 202.93324697609384 -1.8159889627409432e-14 0 -1 0 0 0 -6.3499999999999988 1 I I 0 1 6.3499999999999988 forward I I I I #
DXID-attrib $-1 -1 $-1 $130 $78 @18 ASM_EDGE_FROM_STEP @4 3043 #
DXID-attrib $-1 -1 $-1 $132 $79 @18 ASM_FACE_FROM_STEP @32 Sailtec Incorporated-Closed-3471 #
DXID-attrib $-1 -1 $-1 $135 $85 @18 ASM_FACE_FROM_STEP @32 Sailtec Incorporated-Closed-2591 #
truecolor-adesk-attrib $-1 -1 $258 $-1 $136 -1056964608 #
face $259 -1 $-1 $260 $261 $3 $-1 $262 forward single #
loop $-1 -1 $-1 $-1 $263 $136 #
cone-surface $-1 -1 $-1 4.8445477378910393 180.70824697609382 -1.8159889627409432e-14 0 -1 0 0 0 -12.623800000000005 1 I I 0 1 12.623800000000006 forward I I I I #
coedge $-1 -1 $-1 $264 $265 $266 $267 forward $137 $-1 #
coedge $-1 -1 $-1 $268 $139 $269 $270 forward $86 $-1 #
coedge $-1 -1 $-1 $139 $268 $271 $272 reversed $86 $-1 #
coedge $-1 -1 $-1 $141 $140 $139 $203 reversed $49 $-1 #
edge $273 -1 $-1 $274 0 $275 3.1415926535897931 $202 $276 forward @7 unknown #
coedge $-1 -1 $-1 $277 $278 $140 $205 reversed $279 $-1 #
edge $280 -1 $-1 $212 -0.0031749999999999543 $275 -0.0022860000000000016 $140 $281 forward @7 unknown #
coedge $-1 -1 $-1 $278 $277 $141 $207 forward $279 $-1 #
edge $282 -1 $-1 $211 -0.0031749999999999543 $274 -0.0022860000000000016 $141 $283 forward @7 unknown #
coedge $-1 -1 $-1 $142 $142 $277 $284 reversed $209 $-1 #
loop $-1 -1 $-1 $285 $142 $286 #
truecolor-adesk-attrib $-1 -1 $287 $-1 $143 -1056964608 #
vertex $-1 -1 $-1 $143 $288 #
vertex $-1 -1 $-1 $143 $289 #
ellipse-curve $-1 -1 $-1 4.8445477378910393 183.88324697609377 -1.8159889627409432e-14 0 -1 0 0 0 -12.623800000000001 1 F 0 F 3.1415926535897931 #
coedge $-1 -1 $-1 $290 $290 $144 $215 forward $285 $-1 #
edge $291 -1 $-1 $223 0 $220 3.1415926535897931 $144 $292 forward @7 unknown #
coedge $-1 -1 $-1 $147 $145 $149 $225 forward $218 $-1 #
coedge $-1 -1 $-1 $145 $147 $290 $293 reversed $218 $-1 #
loop $-1 -1 $-1 $-1 $145 $294 #
truecolor-adesk-attrib $-1 -1 $295 $-1 $146 -1056964608 #
vertex $-1 -1 $-1 $146 $296 #
straight-curve $-1 -1 $-1 4.8445477378910402 180.70824697609382 9.6773999999999933 0 -999.99999999999989 0 F -0.010159999999999982 F -0.0031749999999999543 #
truecolor-adesk-attrib $-1 -1 $297 $-1 $148 -1056964608 #
vertex $-1 -1 $-1 $215 $298 #
straight-curve $-1 -1 $-1 4.8445477378910393 180.70824697609382 -9.6774000000000306 0 -999.99999999999989 0 F -0.010159999999999982 F -0.0031749999999999543 #
edge $299 -1 $-1 $153 -3.1415926535897931 $152 0 $216 $300 forward @7 unknown #
face $301 -1 $-1 $235 $231 $3 $-1 $302 reversed single #
DXID-attrib $-1 -1 $-1 $151 $92 @18 ASM_EDGE_FROM_STEP @4 4828 #
point $-1 -1 $-1 4.8445477378910393 190.86824697609384 -9.6774000000000306 #
point $-1 -1 $-1 4.8445477378910402 190.86824697609384 9.6773999999999933 #
coedge $-1 -1 $-1 $155 $155 $158 $234 forward $231 $-1 #
loop $-1 -1 $-1 $150 $155 $226 #
truecolor-adesk-attrib $-1 -1 $303 $-1 $156 -1056964608 #
ellipse-curve $-1 -1 $-1 4.8445477378910393 190.86824697609384 -1.8159889627409432e-14 0 -1 0 0 0 -12.623800000000001 1 F 0 F 3.1415926535897931 #
edge $304 -1 $-1 $161 -3.1415926535897931 $164 0 $230 $305 forward @7 unknown #
face $306 -1 $-1 $168 $159 $3 $-1 $307 forward single #
DXID-attrib $-1 -1 $-1 $160 $95 @18 ASM_EDGE_FROM_STEP @4 3268 #
point $-1 -1 $-1 4.8445477378910411 190.86824697609384 12.623799999999987 #
DXID-attrib $-1 -1 $-1 $163 $97 @18 ASM_EDGE_FROM_STEP @2 42 #
point $-1 -1 $-1 4.8445477378910393 190.86824697609384 -12.623800000000021 #
truecolor-adesk-attrib $-1 -1 $308 $-1 $166 -1056964608 #
ellipse-curve $-1 -1 $-1 4.8445477378910393 202.29824697609385 -1.8159889627409432e-14 0 -1 0 0 0 -12.623799999999999 1 F -3.1415926535897931 F 0 #
truecolor-adesk-attrib $-1 -1 $309 $-1 $168 -1056964608 #
plane-surface $-1 -1 $-1 4.8445477378910455 202.29824697609385 -1.8159889627409432e-14 0 -1 0 0 0 -25.399999999999995 forward_v I I I I #
DXID-attrib $-1 -1 $-1 $173 $105 @18 ASM_EDGE_FROM_STEP @4 7489 #
truecolor-adesk-attrib $-1 -1 $310 $-1 $175 -1056964608 #
ellipse-curve $-1 -1 $-1 4.8445477378910393 202.29824697609385 -1.8159889627409432e-14 0 -1 0 0 0 -9.6774000000000093 1 F -3.1415926535897931 F 0 #
truecolor-adesk-attrib $-1 -1 $311 $-1 $176 -1056964608 #
cone-surface $-1 -1 $-1 4.8445477378910393 180.70824697609382 -1.8159889627409432e-14 0 -1 0 0 0 -9.6774000000000076 1 I I 0 1 9.6774000000000076 forward I I I I #
DXID-attrib $-1 -1 $-1 $181 $115 @18 ASM_EDGE_FROM_STEP @4 6287 #
DXID-attrib $-1 -1 $-1 $183 $116 @18 ASM_FACE_FROM_STEP @32 Sailtec Incorporated-Closed-1426 #
coedge $-1 -1 $-1 $312 $312 $313 $314 forward $184 $-1 #
truecolor-adesk-attrib $-1 -1 $315 $-1 $186 -1056964608 #
face $316 -1 $-1 $317 $318 $3 $-1 $319 forward single #
loop $-1 -1 $-1 $121 $320 $186 #
plane-surface $-1 -1 $-1 4.8445477378910393 180.70824697609382 -1.8159889627409432e-14 0 -1 0 0 0 -25.399999999999995 forward_v I I I I #
DXID-attrib $-1 -1 $-1 $188 $124 @18 ASM_EDGE_FROM_STEP @4 3706 #
DXID-attrib $-1 -1 $-1 $190 $125 @18 ASM_FACE_FROM_STEP @32 Sailtec Incorporated-Closed-1617 #
DXID-attrib $-1 -1 $-1 $195 $136 @18 ASM_FACE_FROM_STEP @32 Sailtec Incorporated-Closed-6556 #
truecolor-adesk-attrib $-1 -1 $321 $-1 $196 -1056964608 #
face $322 -1 $-1 $323 $324 $3 $-1 $325 forward single #
loop $-1 -1 $-1 $-1 $326 $196 #
cone-surface $-1 -1 $-1 4.8445477378910393 180.70824697609382 -1.8159889627409432e-14 0 -1 0 0 0 -12.623800000000005 1 I I 0 1 12.623800000000006 forward I I I I #
coedge $-1 -1 $-1 $327 $328 $329 $330 forward $197 $-1 #
coedge $-1 -1 $-1 $329 $199 $331 $332 forward $137 $-1 #
coedge $-1 -1 $-1 $199 $329 $333 $334 reversed $137 $-1 #
coedge $-1 -1 $-1 $335 $335 $199 $267 reversed $336 $-1 #
edge $337 -1 $-1 $338 0 $339 3.1415926535897931 $199 $340 forward @7 unknown #
coedge $-1 -1 $-1 $201 $200 $320 $341 reversed $86 $-1 #
coedge $-1 -1 $-1 $342 $343 $200 $270 reversed $318 $-1 #
edge $344 -1 $-1 $275 -3.1415926535897931 $345 -1.5707963267948966 $200 $346 forward @7 unknown #
coedge $-1 -1 $-1 $343 $342 $201 $272 forward $318 $-1 #
edge $347 -1 $-1 $274 -3.1415926535897931 $348 -1.5707963267948966 $201 $349 forward @7 unknown #
truecolor-adesk-attrib $-1 -1 $350 $-1 $203 -1056964608 #
vertex $-1 -1 $-1 $203 $351 #
vertex $-1 -1 $-1 $205 $352 #
ellipse-curve $-1 -1 $-1 4.8445477378910393 182.99424697609388 -1.8159889627409432e-14 0 -1 0 0 0 -12.623799999999994 1 F 0 F 3.1415926535897931 #
coedge $-1 -1 $-1 $206 $204 $208 $284 forward $279 $-1 #
coedge $-1 -1 $-1 $204 $206 $342 $353 reversed $279 $-1 #
loop $-1 -1 $-1 $-1 $204 $317 #
truecolor-adesk-attrib $-1 -1 $354 $-1 $205 -1056964608 #
straight-curve $-1 -1 $-1 4.8445477378910411 180.70824697609382 12.623799999999983 0 -999.99999999999989 0 F -0.0031749999999999543 F -0.0022860000000000016 #
truecolor-adesk-attrib $-1 -1 $355 $-1 $207 -1056964608 #
straight-curve $-1 -1 $-1 4.8445477378910393 180.70824697609382 -12.623800000000017 0 -999.99999999999989 0 F -0.0031749999999999543 F -0.0022860000000000016 #
edge $356 -1 $-1 $212 -3.1415926535897931 $211 0 $277 $357 forward @7 unknown #
loop $-1 -1 $-1 $-1 $214 $286 #
face $358 -1 $-1 $294 $209 $3 $-1 $359 reversed single #
DXID-attrib $-1 -1 $-1 $210 $143 @18 ASM_EDGE_FROM_STEP @4 5774 #
point $-1 -1 $-1 4.8445477378910393 183.88324697609377 -12.623800000000021 #
point $-1 -1 $-1 4.8445477378910411 183.88324697609377 12.623799999999987 #
coedge $-1 -1 $-1 $214 $214 $217 $293 forward $285 $-1 #
truecolor-adesk-attrib $-1 -1 $360 $-1 $215 -1056964608 #
ellipse-curve $-1 -1 $-1 4.8445477378910393 183.88324697609377 -1.8159889627409432e-14 0 -1 0 0 0 -9.6774000000000111 1 F 0 F 3.1415926535897931 #
edge $361 -1 $-1 $220 -3.1415926535897931 $223 0 $290 $362 forward @7 unknown #
face $363 -1 $-1 $226 $218 $3 $-1 $364 forward single #
DXID-attrib $-1 -1 $-1 $219 $146 @18 ASM_EDGE_FROM_STEP @4 2167 #
point $-1 -1 $-1 4.8445477378910402 183.88324697609377 9.6773999999999933 #
DXID-attrib $-1 -1 $-1 $222 $148 @18 ASM_EDGE_FROM_STEP @4 2739 #
point $-1 -1 $-1 4.8445477378910393 183.88324697609377 -9.6774000000000306 #
truecolor-adesk-attrib $-1 -1 $365 $-1 $225 -1056964608 #
ellipse-curve $-1 -1 $-1 4.8445477378910393 190.86824697609384 -1.8159889627409432e-14 0 -1 0 0 0 -9.6774000000000111 1 F -3.1415926535897931 F 0 #
truecolor-adesk-attrib $-1 -1 $366 $-1 $226 -1056964608 #
plane-surface $-1 -1 $-1 4.8445477378909381 190.86824697609384 -1.8159889627409432e-14 0 1 0 0 0 25.399999999999995 forward_v I I I I #
DXID-attrib $-1 -1 $-1 $232 $156 @18 ASM_EDGE_FROM_STEP @3 695 #
truecolor-adesk-attrib $-1 -1 $367 $-1 $234 -1056964608 #
ellipse-curve $-1 -1 $-1 4.8445477378910393 190.86824697609384 -1.8159889627409432e-14 0 -1 0 0 0 -12.623800000000001 1 F -3.1415926535897931 F 0 #
truecolor-adesk-attrib $-1 -1 $368 $-1 $235 -1056964608 #
cone-surface $-1 -1 $-1 4.8445477378910393 180.70824697609382 -1.8159889627409432e-14 0 -1 0 0 0 -12.623800000000001 1 I I 0 1 12.623800000000001 forward I I I I #
DXID-attrib $-1 -1 $-1 $240 $166 @18 ASM_EDGE_FROM_STEP @4 2702 #
DXID-attrib $-1 -1 $-1 $242 $168 @18 ASM_FACE_FROM_STEP @32 Sailtec Incorporated-Closed-2041 #
DXID-attrib $-1 -1 $-1 $245 $175 @18 ASM_EDGE_FROM_STEP @4 2133 #
DXID-attrib $-1 -1 $-1 $247 $176 @18 ASM_FACE_FROM_STEP @32 Sailtec Incorporated-Closed-1776 #
coedge $-1 -1 $-1 $251 $251 $369 $370 forward $184 $-1 #
coedge $-1 -1 $-1 $328 $327 $251 $314 reversed $197 $-1 #
edge $371 -1 $-1 $372 0 $373 3.1415926535897931 $313 $374 forward @7 unknown #
DXID-attrib $-1 -1 $-1 $252 $186 @18 ASM_FACE_FROM_STEP @31 Sailtec Incorporated-Closed-922 #
truecolor-adesk-attrib $-1 -1 $375 $-1 $253 -1056964608 #
face $376 -1 $-1 $286 $279 $3 $-1 $377 forward single #
loop $-1 -1 $-1 $-1 $269 $253 #
torus-surface $-1 -1 $-1 4.8445477378910393 182.99424697609388 -1.8159889627409432e-14 0 -1 0 10.337799999999989 2.2860000000000036 0 0 -1 forward_v I I I I #
coedge $-1 -1 $-1 $378 $378 $268 $341 forward $254 $-1 #
DXID-attrib $-1 -1 $-1 $259 $196 @18 ASM_FACE_FROM_STEP @32 Sailtec Incorporated-Closed-6410 #
truecolor-adesk-attrib $-1 -1 $379 $-1 $260 -1056964608 #
face $380 -1 $-1 $186 $336 $3 $-1 $381 reversed single #
loop $-1 -1 $-1 $-1 $331 $260 #
torus-surface $-1 -1 $-1 4.8445477378910393 210.17224697609382 -1.8159889627409432e-14 0 -1 0 10.337799999999985 2.2860000000000125 0 0 -1 forward_v I I I I #
coedge $-1 -1 $-1 $382 $369 $327 $383 reversed $261 $-1 #
coedge $-1 -1 $-1 $313 $263 $326 $383 forward $197 $-1 #
coedge $-1 -1 $-1 $263 $313 $384 $385 reversed $197 $-1 #
coedge $-1 -1 $-1 $265 $264 $263 $330 reversed $137 $-1 #
edge $386 -1 $-1 $387 0 $388 3.1415926535897931 $329 $389 forward @7 unknown #
coedge $-1 -1 $-1 $390 $391 $264 $332 reversed $324 $-1 #
edge $392 -1 $-1 $339 1.5707963267948957 $388 3.1415926535897931 $264 $393 forward @7 unknown #
coedge $-1 -1 $-1 $391 $390 $265 $334 forward $324 $-1 #
edge $394 -1 $-1 $338 1.5707963267948957 $387 3.1415926535897931 $265 $395 forward @7 unknown #
coedge $-1 -1 $-1 $266 $266 $390 $396 reversed $336 $-1 #
loop $-1 -1 $-1 $-1 $266 $323 #
truecolor-adesk-attrib $-1 -1 $397 $-1 $267 -1056964608 #
vertex $-1 -1 $-1 $267 $398 #
vertex $-1 -1 $-1 $267 $399 #
ellipse-curve $-1 -1 $-1 4.8445477378910393 212.45824697609387 -1.8159889627409432e-14 0 -1 0 0 0 -10.337799999999984 1 F 0 F 3.1415926535897931 #
edge $400 -1 $-1 $348 0 $345 3.1415926535897931 $268 $401 forward @7 unknown #
coedge $-1 -1 $-1 $271 $269 $278 $353 forward $318 $-1 #
coedge $-1 -1 $-1 $269 $271 $378 $402 reversed $318 $-1 #
truecolor-adesk-attrib $-1 -1 $403 $-1 $270 -1056964608 #
vertex $-1 -1 $-1 $270 $404 #
ellipse-curve $-1 -1 $-1 4.8445477378910402 182.99424697609388 10.337799999999973 1 0 -1.2246467991473532e-16 -2.7995425828508538e-16 0 -2.2860000000000031 1 F -3.1415926535897931 F -1.5707963267948966 #
truecolor-adesk-attrib $-1 -1 $405 $-1 $272 -1056964608 #
vertex $-1 -1 $-1 $341 $406 #
ellipse-curve $-1 -1 $-1 4.8445477378910393 182.99424697609388 -10.337800000000007 -1 0 0 0 0 2.2860000000000031 1 F -3.1415926535897931 F -1.5707963267948966 #
DXID-attrib $-1 -1 $-1 $273 $203 @18 ASM_EDGE_FROM_STEP @4 2996 #
point $-1 -1 $-1 4.8445477378910393 182.99424697609388 -12.62380000000001 #
point $-1 -1 $-1 4.8445477378910411 182.99424697609388 12.623799999999976 #
edge $407 -1 $-1 $275 -3.1415926535897931 $274 0 $342 $408 forward @7 unknown #
DXID-attrib $-1 -1 $-1 $280 $205 @18 ASM_EDGE_FROM_STEP @4 2499 #
DXID-attrib $-1 -1 $-1 $282 $207 @18 ASM_EDGE_FROM_STEP @4 7180 #
truecolor-adesk-attrib $-1 -1 $409 $-1 $284 -1056964608 #
ellipse-curve $-1 -1 $-1 4.8445477378910393 183.88324697609377 -1.8159889627409432e-14 0 -1 0 0 0 -12.623800000000001 1 F -3.1415926535897931 F 0 #
truecolor-adesk-attrib $-1 -1 $410 $-1 $286 -1056964608 #
plane-surface $-1 -1 $-1 4.8445477378909043 183.88324697609377 -1.8159889627409432e-14 0 -1 0 0 0 -25.399999999999995 forward_v I I I I #
DXID-attrib $-1 -1 $-1 $291 $215 @18 ASM_EDGE_FROM_STEP @4 1011 #
truecolor-adesk-attrib $-1 -1 $411 $-1 $293 -1056964608 #
ellipse-curve $-1 -1 $-1 4.8445477378910393 183.88324697609377 -1.8159889627409432e-14 0 -1 0 0 0 -9.6774000000000111 1 F -3.1415926535897931 F 0 #
truecolor-adesk-attrib $-1 -1 $412 $-1 $294 -1056964608 #
cone-surface $-1 -1 $-1 4.8445477378910393 180.70824697609382 -1.8159889627409432e-14 0 -1 0 0 0 -9.6774000000000111 1 I I 0 1 9.6774000000000111 forward I I I I #
DXID-attrib $-1 -1 $-1 $299 $225 @18 ASM_EDGE_FROM_STEP @4 1634 #
DXID-attrib $-1 -1 $-1 $301 $226 @18 ASM_FACE_FROM_STEP @32 Sailtec Incorporated-Closed-1792 #
DXID-attrib $-1 -1 $-1 $304 $234 @18 ASM_EDGE_FROM_STEP @4 3481 #
DXID-attrib $-1 -1 $-1 $306 $235 @18 ASM_FACE_FROM_STEP @31 Sailtec Incorporated-Closed-211 #
coedge $-1 -1 $-1 $326 $384 $312 $370 reversed $261 $-1 #
edge $413 -1 $-1 $373 -3.1415926535897931 $372 0 $369 $414 forward @7 unknown #
truecolor-adesk-attrib $-1 -1 $415 $-1 $314 -1056964608 #
vertex $-1 -1 $-1 $314 $416 #
vertex $-1 -1 $-1 $383 $417 #
ellipse-curve $-1 -1 $-1 4.8445477378910393 209.28324697609386 -1.8159889627409432e-14 0 -1 0 0 0 -12.623800000000001 1 F 0 F 3.1415926535897931 #
DXID-attrib $-1 -1 $-1 $316 $253 @18 ASM_FACE_FROM_STEP @32 Sailtec Incorporated-Closed-2380 #
truecolor-adesk-attrib $-1 -1 $418 $-1 $317 -1056964608 #
cone-surface $-1 -1 $-1 4.8445477378910393 180.70824697609382 -1.8159889627409432e-14 0 -1 0 0 0 -12.623799999999999 1 I I 0 1 12.623799999999999 forward I I I I #
coedge $-1 -1 $-1 $320 $320 $343 $402 forward $254 $-1 #
DXID-attrib $-1 -1 $-1 $322 $260 @18 ASM_FACE_FROM_STEP @31 Sailtec Incorporated-Closed-135 #
truecolor-adesk-attrib $-1 -1 $419 $-1 $323 -1056964608 #
plane-surface $-1 -1 $-1 4.8445477378910393 212.45824697609387 -1.8159889627409432e-14 0 -1 0 0 0 -25.399999999999995 forward_v I I I I #
coedge $-1 -1 $-1 $384 $326 $391 $420 forward $261 $-1 #
edge $421 -1 $-1 $388 -0.029463999999999969 $373 -0.028575000000000017 $327 $422 forward @7 unknown #
coedge $-1 -1 $-1 $369 $382 $328 $385 forward $261 $-1 #
edge $423 -1 $-1 $387 -0.029463999999999969 $372 -0.028575000000000017 $328 $424 forward @7 unknown #
truecolor-adesk-attrib $-1 -1 $425 $-1 $330 -1056964608 #
vertex $-1 -1 $-1 $330 $426 #
vertex $-1 -1 $-1 $332 $427 #
ellipse-curve $-1 -1 $-1 4.8445477378910393 210.17224697609382 -1.8159889627409432e-14 0 -1 0 0 0 -12.623800000000008 1 F 0 F 3.1415926535897931 #
coedge $-1 -1 $-1 $333 $331 $335 $396 forward $324 $-1 #
coedge $-1 -1 $-1 $331 $333 $382 $420 reversed $324 $-1 #
truecolor-adesk-attrib $-1 -1 $428 $-1 $332 -1056964608 #
ellipse-curve $-1 -1 $-1 4.8445477378910402 210.17224697609382 10.337799999999969 1 0 -1.2246467991473532e-16 -2.7995425828508632e-16 0 -2.2860000000000116 1 F 1.5707963267948957 F 3.1415926535897931 #
truecolor-adesk-attrib $-1 -1 $429 $-1 $334 -1056964608 #
ellipse-curve $-1 -1 $-1 4.8445477378910393 210.17224697609382 -10.337800000000005 -1 0 0 0 0 2.2860000000000116 1 F 1.5707963267948957 F 3.1415926535897931 #
edge $430 -1 $-1 $339 -3.1415926535897931 $338 0 $390 $431 forward @7 unknown #
DXID-attrib $-1 -1 $-1 $337 $267 @18 ASM_EDGE_FROM_STEP @4 3514 #
point $-1 -1 $-1 4.8445477378910393 212.45824697609387 -10.337800000000001 #
point $-1 -1 $-1 4.8445477378910411 212.45824697609387 10.337799999999966 #
truecolor-adesk-attrib $-1 -1 $432 $-1 $341 -1056964608 #
ellipse-curve $-1 -1 $-1 4.8445477378910393 180.70824697609382 -1.8159889627409432e-14 0 -1 0 0 0 -10.337799999999989 1 F 0 F 3.1415926535897931 #
edge $433 -1 $-1 $345 -3.1415926535897931 $348 0 $378 $434 forward @7 unknown #
DXID-attrib $-1 -1 $-1 $344 $270 @18 ASM_EDGE_FROM_STEP @4 7025 #
point $-1 -1 $-1 4.8445477378910411 180.70824697609382 10.337799999999973 #
DXID-attrib $-1 -1 $-1 $347 $272 @18 ASM_EDGE_FROM_STEP @4 6547 #
point $-1 -1 $-1 4.8445477378910393 180.70824697609382 -10.337800000000007 #
truecolor-adesk-attrib $-1 -1 $435 $-1 $353 -1056964608 #
ellipse-curve $-1 -1 $-1 4.8445477378910393 182.99424697609388 -1.8159889627409432e-14 0 -1 0 0 0 -12.623799999999994 1 F -3.1415926535897931 F 0 #
DXID-attrib $-1 -1 $-1 $356 $284 @18 ASM_EDGE_FROM_STEP @4 2281 #
DXID-attrib $-1 -1 $-1 $358 $286 @18 ASM_FACE_FROM_STEP @32 Sailtec Incorporated-Closed-1118 #
DXID-attrib $-1 -1 $-1 $361 $293 @18 ASM_EDGE_FROM_STEP @4 4601 #
DXID-attrib $-1 -1 $-1 $363 $294 @18 ASM_FACE_FROM_STEP @30 Sailtec Incorporated-Closed-56 #
truecolor-adesk-attrib $-1 -1 $436 $-1 $370 -1056964608 #
ellipse-curve $-1 -1 $-1 4.8445477378910393 209.28324697609386 -1.8159889627409432e-14 0 -1 0 0 0 -12.623800000000001 1 F -3.1415926535897931 F 0 #
DXID-attrib $-1 -1 $-1 $371 $314 @18 ASM_EDGE_FROM_STEP @4 5335 #
point $-1 -1 $-1 4.8445477378910393 209.28324697609386 -12.623800000000021 #
point $-1 -1 $-1 4.8445477378910411 209.28324697609386 12.623799999999987 #
DXID-attrib $-1 -1 $-1 $376 $317 @18 ASM_FACE_FROM_STEP @32 Sailtec Incorporated-Closed-5972 #
DXID-attrib $-1 -1 $-1 $380 $323 @18 ASM_FACE_FROM_STEP @32 Sailtec Incorporated-Closed-3004 #
edge $437 -1 $-1 $388 -3.1415926535897931 $387 0 $382 $438 forward @7 unknown #
truecolor-adesk-attrib $-1 -1 $439 $-1 $383 -1056964608 #
straight-curve $-1 -1 $-1 4.8445477378910411 180.70824697609382 12.623799999999987 0 -999.99999999999989 0 F -0.029463999999999969 F -0.028575000000000017 #
truecolor-adesk-attrib $-1 -1 $440 $-1 $385 -1056964608 #
straight-curve $-1 -1 $-1 4.8445477378910393 180.70824697609382 -12.623800000000022 0 -999.99999999999989 0 F -0.029463999999999969 F -0.028575000000000017 #
DXID-attrib $-1 -1 $-1 $386 $330 @18 ASM_EDGE_FROM_STEP @3 541 #
point $-1 -1 $-1 4.8445477378910393 210.17224697609382 -12.623800000000022 #
point $-1 -1 $-1 4.8445477378910411 210.17224697609382 12.623799999999992 #
DXID-attrib $-1 -1 $-1 $392 $332 @18 ASM_EDGE_FROM_STEP @4 6326 #
DXID-attrib $-1 -1 $-1 $394 $334 @18 ASM_EDGE_FROM_STEP @3 449 #
truecolor-adesk-attrib $-1 -1 $441 $-1 $396 -1056964608 #
ellipse-curve $-1 -1 $-1 4.8445477378910393 212.45824697609387 -1.8159889627409432e-14 0 -1 0 0 0 -10.337799999999984 1 F -3.1415926535897931 F 0 #
DXID-attrib $-1 -1 $-1 $400 $341 @18 ASM_EDGE_FROM_STEP @4 5294 #
truecolor-adesk-attrib $-1 -1 $442 $-1 $402 -1056964608 #
ellipse-curve $-1 -1 $-1 4.8445477378910393 180.70824697609382 -1.8159889627409432e-14 0 -1 0 0 0 -10.337799999999989 1 F -3.1415926535897931 F 0 #
DXID-attrib $-1 -1 $-1 $407 $353 @18 ASM_EDGE_FROM_STEP @4 2833 #
DXID-attrib $-1 -1 $-1 $413 $370 @18 ASM_EDGE_FROM_STEP @4 3414 #
truecolor-adesk-attrib $-1 -1 $443 $-1 $420 -1056964608 #
ellipse-curve $-1 -1 $-1 4.8445477378910393 210.17224697609382 -1.8159889627409432e-14 0 -1 0 0 0 -12.623800000000008 1 F -3.1415926535897931 F 0 #
DXID-attrib $-1 -1 $-1 $421 $383 @18 ASM_EDGE_FROM_STEP @4 1478 #
DXID-attrib $-1 -1 $-1 $423 $385 @18 ASM_EDGE_FROM_STEP @4 6168 #
DXID-attrib $-1 -1 $-1 $430 $396 @18 ASM_EDGE_FROM_STEP @4 7090 #
DXID-attrib $-1 -1 $-1 $433 $402 @18 ASM_EDGE_FROM_STEP @4 2771 #
DXID-attrib $-1 -1 $-1 $437 $420 @18 ASM_EDGE_FROM_STEP @4 4742 #
