700 244 1 0         
5 ZWCAD 12 ACIS 28.0 NT 24 Sat May 11 16:03:42 2024 
1 9.9999999999999995e-07 1e-10 
body $1 -1 $-1 $2 $-1 $-1 #
DXID-attrib $-1 -1 $-1 $-1 $0 @18 ASM_BODY_FROM_STEP @83 AF1BEE3D35C0813DCB6C93D5EF7B8F47406A4163|:|5AA0856E40480BC32F8BFAFBF2670A65937E5E2D #
lump $-1 -1 $-1 $-1 $3 $0 #
shell $-1 -1 $-1 $-1 $-1 $4 $-1 $2 #
face $5 -1 $-1 $6 $7 $3 $-1 $8 reversed single #
truecolor-adesk-attrib $-1 -1 $9 $-1 $4 -1056964608 #
face $10 -1 $-1 $11 $12 $3 $-1 $13 forward single #
loop $-1 -1 $-1 $-1 $14 $4 #
cone-surface $-1 -1 $-1 122.59961769486236 -13.076556621546121 0 0 1 0 0 0 6.3499999999999988 1 I I 0 1 6.3499999999999988 forward I I I I #
DXID-attrib $-1 -1 $-1 $5 $4 @18 ASM_FACE_FROM_STEP @32 Sailtec Incorporated-Closed-2807 #
truecolor-adesk-attrib $-1 -1 $15 $-1 $6 -1056964608 #
face $16 -1 $-1 $17 $18 $3 $-1 $19 reversed single #
loop $-1 -1 $-1 $-1 $20 $6 #
cone-surface $-1 -1 $-1 122.59961769486236 -13.076556621546121 0 0 1 0 0 0 17.462499999999999 1 I I 0 1 17.462499999999999 forward I I I I #
coedge $-1 -1 $-1 $21 $22 $23 $24 forward $7 $-1 #
DXID-attrib $-1 -1 $-1 $10 $6 @18 ASM_FACE_FROM_STEP @32 Sailtec Incorporated-Closed-2143 #
truecolor-adesk-attrib $-1 -1 $25 $-1 $11 -1056964608 #
face $26 -1 $-1 $27 $28 $3 $-1 $29 forward single #
loop $-1 -1 $-1 $-1 $30 $11 #
cone-surface $-1 -1 $-1 122.59961769486236 367.92344337845384 0 0 -1 0 0 0 -15.874999999999996 1 I I 0 1 15.874999999999996 forward I I I I #
coedge $-1 -1 $-1 $31 $32 $33 $34 reversed $12 $-1 #
coedge $-1 -1 $-1 $35 $14 $36 $37 forward $7 $-1 #
coedge $-1 -1 $-1 $14 $35 $38 $39 reversed $7 $-1 #
coedge $-1 -1 $-1 $40 $40 $14 $24 reversed $41 $-1 #
edge $42 -1 $-1 $43 -3.1415926535897931 $44 1.2246467991473532e-16 $14 $45 forward @7 unknown #
DXID-attrib $-1 -1 $-1 $16 $11 @18 ASM_FACE_FROM_STEP @32 Sailtec Incorporated-Closed-4557 #
truecolor-adesk-attrib $-1 -1 $46 $-1 $17 -1056964608 #
face $47 -1 $-1 $48 $49 $3 $-1 $50 forward single #
loop $-1 -1 $-1 $-1 $51 $17 #
cone-surface $-1 -1 $-1 122.59961769486236 367.92344337845384 0 0 -1 0 0 0 -19.049999999999997 1 I I 0 1 19.049999999999997 forward I I I I #
coedge $-1 -1 $-1 $52 $53 $54 $55 forward $18 $-1 #
coedge $-1 -1 $-1 $56 $20 $57 $58 forward $12 $-1 #
coedge $-1 -1 $-1 $20 $56 $59 $60 reversed $12 $-1 #
coedge $-1 -1 $-1 $61 $61 $20 $34 forward $62 $-1 #
edge $63 -1 $-1 $64 1.2246467991473532e-16 $65 3.1415926535897931 $20 $66 forward @7 unknown #
coedge $-1 -1 $-1 $22 $21 $67 $68 reversed $7 $-1 #
coedge $-1 -1 $-1 $69 $70 $21 $37 reversed $71 $-1 #
edge $72 -1 $-1 $44 0 $73 0.0063499999999999997 $21 $74 forward @7 unknown #
coedge $-1 -1 $-1 $70 $69 $22 $39 forward $71 $-1 #
edge $75 -1 $-1 $43 0 $76 0.0063499999999999997 $22 $77 forward @7 unknown #
coedge $-1 -1 $-1 $23 $23 $69 $78 reversed $41 $-1 #
loop $-1 -1 $-1 $-1 $23 $79 #
truecolor-adesk-attrib $-1 -1 $80 $-1 $24 -1056964608 #
vertex $-1 -1 $-1 $24 $81 #
vertex $-1 -1 $-1 $24 $82 #
ellipse-curve $-1 -1 $-1 122.59961769486236 -13.076556621546121 0 0 -1 0 0 0 -6.3499999999999988 1 F -3.1415926535897931 F 1.2246467991473532e-16 #
DXID-attrib $-1 -1 $-1 $26 $17 @18 ASM_FACE_FROM_STEP @32 Sailtec Incorporated-Closed-7396 #
truecolor-adesk-attrib $-1 -1 $83 $-1 $27 -1056964608 #
face $84 -1 $-1 $85 $86 $3 $-1 $87 reversed single #
loop $-1 -1 $-1 $88 $89 $27 #
plane-surface $-1 -1 $-1 122.59961769486236 367.92344337845384 0 0 1 0 0 0 25.399999999999995 forward_v I I I I #
coedge $-1 -1 $-1 $90 $91 $92 $93 reversed $28 $-1 #
coedge $-1 -1 $-1 $94 $30 $95 $96 forward $18 $-1 #
coedge $-1 -1 $-1 $30 $94 $97 $98 reversed $18 $-1 #
coedge $-1 -1 $-1 $99 $99 $30 $55 reversed $88 $-1 #
edge $100 -1 $-1 $101 -3.1415926535897931 $102 1.224646799147353e-16 $30 $103 forward @7 unknown #
coedge $-1 -1 $-1 $32 $31 $104 $105 forward $12 $-1 #
coedge $-1 -1 $-1 $106 $107 $31 $58 reversed $108 $-1 #
edge $109 -1 $-1 $64 0 $110 0.0063499999999999997 $31 $111 forward @7 unknown #
coedge $-1 -1 $-1 $107 $106 $32 $60 forward $108 $-1 #
edge $112 -1 $-1 $65 0 $113 0.0063499999999999997 $32 $114 forward @7 unknown #
coedge $-1 -1 $-1 $33 $33 $106 $115 forward $62 $-1 #
loop $-1 -1 $-1 $41 $61 $79 #
truecolor-adesk-attrib $-1 -1 $116 $-1 $34 -1056964608 #
vertex $-1 -1 $-1 $34 $117 #
vertex $-1 -1 $-1 $34 $118 #
ellipse-curve $-1 -1 $-1 122.59961769486236 -13.076556621546121 0 0 -1 0 0 0 -17.462499999999999 1 F 1.2246467991473532e-16 F 3.1415926535897931 #
coedge $-1 -1 $-1 $119 $119 $35 $68 forward $120 $-1 #
edge $121 -1 $-1 $76 -3.1415926535897931 $73 1.2246467991473532e-16 $35 $122 forward @7 unknown #
coedge $-1 -1 $-1 $38 $36 $40 $78 forward $71 $-1 #
coedge $-1 -1 $-1 $36 $38 $119 $123 reversed $71 $-1 #
loop $-1 -1 $-1 $-1 $36 $124 #
truecolor-adesk-attrib $-1 -1 $125 $-1 $37 -1056964608 #
vertex $-1 -1 $-1 $37 $126 #
straight-curve $-1 -1 $-1 122.59961769486236 -13.076556621546121 -6.3499999999999988 0 999.99999999999989 0 F 0 F 0.0063499999999999997 #
truecolor-adesk-attrib $-1 -1 $127 $-1 $39 -1056964608 #
vertex $-1 -1 $-1 $68 $128 #
straight-curve $-1 -1 $-1 122.59961769486236 -13.076556621546121 6.3499999999999988 0 999.99999999999989 0 F 0 F 0.0063499999999999997 #
edge $129 -1 $-1 $44 1.2246467991473532e-16 $43 3.1415926535897931 $40 $130 forward @7 unknown #
face $131 -1 $-1 $132 $62 $3 $-1 $133 forward single #
DXID-attrib $-1 -1 $-1 $42 $24 @18 ASM_EDGE_FROM_STEP @4 3184 #
point $-1 -1 $-1 122.59961769486236 -13.076556621546121 6.3499999999999988 #
point $-1 -1 $-1 122.59961769486236 -13.076556621546121 -6.3499999999999988 #
DXID-attrib $-1 -1 $-1 $47 $27 @18 ASM_FACE_FROM_STEP @32 Sailtec Incorporated-Closed-1584 #
truecolor-adesk-attrib $-1 -1 $134 $-1 $48 -1056964608 #
face $135 -1 $-1 $136 $137 $3 $-1 $138 forward single #
loop $-1 -1 $-1 $139 $140 $48 #
plane-surface $-1 -1 $-1 122.59961769486236 -6.7265566215461234 0 0 1 0 0 0 25.399999999999995 forward_v I I I I #
loop $-1 -1 $-1 $-1 $54 $27 #
coedge $-1 -1 $-1 $92 $92 $141 $142 forward $49 $-1 #
coedge $-1 -1 $-1 $143 $51 $144 $145 forward $28 $-1 #
coedge $-1 -1 $-1 $51 $143 $146 $147 reversed $28 $-1 #
coedge $-1 -1 $-1 $89 $89 $51 $93 forward $49 $-1 #
edge $148 -1 $-1 $149 1.224646799147353e-16 $150 3.1415926535897931 $51 $151 forward @7 unknown #
coedge $-1 -1 $-1 $53 $52 $152 $153 reversed $18 $-1 #
coedge $-1 -1 $-1 $154 $155 $52 $96 reversed $156 $-1 #
edge $157 -1 $-1 $102 0 $158 0.37465000000000004 $52 $159 forward @7 unknown #
coedge $-1 -1 $-1 $155 $154 $53 $98 forward $156 $-1 #
edge $160 -1 $-1 $101 0 $161 0.37465000000000004 $53 $162 forward @7 unknown #
coedge $-1 -1 $-1 $54 $54 $154 $163 reversed $88 $-1 #
truecolor-adesk-attrib $-1 -1 $164 $-1 $55 -1056964608 #
vertex $-1 -1 $-1 $55 $165 #
vertex $-1 -1 $-1 $55 $166 #
ellipse-curve $-1 -1 $-1 122.59961769486236 367.92344337845384 0 0 1 0 0 0 15.874999999999996 1 F -3.1415926535897931 F 1.224646799147353e-16 #
coedge $-1 -1 $-1 $167 $167 $56 $105 reversed $139 $-1 #
edge $168 -1 $-1 $110 -3.1415926535897931 $113 0 $56 $169 forward @7 unknown #
coedge $-1 -1 $-1 $59 $57 $61 $115 reversed $108 $-1 #
coedge $-1 -1 $-1 $57 $59 $167 $170 forward $108 $-1 #
loop $-1 -1 $-1 $-1 $57 $132 #
truecolor-adesk-attrib $-1 -1 $171 $-1 $58 -1056964608 #
vertex $-1 -1 $-1 $58 $172 #
straight-curve $-1 -1 $-1 122.59961769486236 -13.076556621546121 -17.462499999999999 0 999.99999999999989 0 F 0 F 0.0063499999999999997 #
truecolor-adesk-attrib $-1 -1 $173 $-1 $60 -1056964608 #
vertex $-1 -1 $-1 $105 $174 #
straight-curve $-1 -1 $-1 122.59961769486236 -13.076556621546121 17.462499999999999 0 999.99999999999989 0 F 0 F 0.0063499999999999997 #
edge $175 -1 $-1 $65 -3.1415926535897931 $64 1.2246467991473532e-16 $61 $176 forward @7 unknown #
DXID-attrib $-1 -1 $-1 $63 $34 @18 ASM_EDGE_FROM_STEP @4 6358 #
point $-1 -1 $-1 122.59961769486236 -13.076556621546121 -17.462499999999999 #
point $-1 -1 $-1 122.59961769486236 -13.076556621546121 17.462499999999999 #
coedge $-1 -1 $-1 $67 $67 $70 $123 forward $120 $-1 #
loop $-1 -1 $-1 $-1 $67 $177 #
truecolor-adesk-attrib $-1 -1 $178 $-1 $68 -1056964608 #
ellipse-curve $-1 -1 $-1 122.59961769486236 -6.7265566215461234 0 0 -1 0 0 0 -6.3499999999999988 1 F -3.1415926535897931 F 1.2246467991473532e-16 #
edge $179 -1 $-1 $73 1.2246467991473532e-16 $76 3.1415926535897931 $119 $180 forward @7 unknown #
face $181 -1 $-1 $-1 $71 $3 $-1 $182 reversed single #
DXID-attrib $-1 -1 $-1 $72 $37 @18 ASM_EDGE_FROM_STEP @4 2494 #
point $-1 -1 $-1 122.59961769486236 -6.7265566215461234 -6.3499999999999988 #
DXID-attrib $-1 -1 $-1 $75 $39 @18 ASM_EDGE_FROM_STEP @4 1719 #
point $-1 -1 $-1 122.59961769486236 -6.7265566215461234 6.3499999999999988 #
truecolor-adesk-attrib $-1 -1 $183 $-1 $78 -1056964608 #
ellipse-curve $-1 -1 $-1 122.59961769486236 -13.076556621546121 0 0 -1 0 0 0 -6.3499999999999988 1 F 1.2246467991473532e-16 F 3.1415926535897931 #
truecolor-adesk-attrib $-1 -1 $184 $-1 $79 -1056964608 #
face $185 -1 $-1 $124 $108 $3 $-1 $186 forward single #
plane-surface $-1 -1 $-1 122.59961769486236 -13.076556621546121 0 0 -1 0 0 0 -25.399999999999995 forward_v I I I I #
DXID-attrib $-1 -1 $-1 $84 $48 @18 ASM_FACE_FROM_STEP @32 Sailtec Incorporated-Closed-3041 #
truecolor-adesk-attrib $-1 -1 $187 $-1 $85 -1056964608 #
face $188 -1 $-1 $177 $156 $3 $-1 $189 reversed single #
loop $-1 -1 $-1 $-1 $144 $85 #
cone-surface $-1 -1 $-1 122.59961769486236 367.92344337845384 0 0 -1 0 0 0 -19.049999999999997 1 I I 0 1 19.049999999999997 forward I I I I #
loop $-1 -1 $-1 $-1 $167 $48 #
coedge $-1 -1 $-1 $190 $190 $191 $192 reversed $86 $-1 #
coedge $-1 -1 $-1 $146 $144 $89 $142 reversed $137 $-1 #
edge $193 -1 $-1 $150 -3.1415926535897931 $149 1.224646799147353e-16 $89 $194 forward @7 unknown #
coedge $-1 -1 $-1 $91 $90 $190 $195 forward $28 $-1 #
coedge $-1 -1 $-1 $141 $191 $90 $145 reversed $137 $-1 #
edge $196 -1 $-1 $149 0 $197 0.37465000000000004 $90 $198 forward @7 unknown #
coedge $-1 -1 $-1 $191 $141 $91 $147 forward $137 $-1 #
edge $199 -1 $-1 $150 0 $200 0.37465000000000004 $91 $201 forward @7 unknown #
truecolor-adesk-attrib $-1 -1 $202 $-1 $93 -1056964608 #
vertex $-1 -1 $-1 $93 $203 #
vertex $-1 -1 $-1 $93 $204 #
ellipse-curve $-1 -1 $-1 122.59961769486236 367.92344337845384 0 0 1 0 0 0 19.049999999999997 1 F 1.224646799147353e-16 F 3.1415926535897931 #
coedge $-1 -1 $-1 $205 $205 $94 $153 forward $206 $-1 #
edge $207 -1 $-1 $161 -3.1415926535897931 $158 1.224646799147353e-16 $94 $208 forward @7 unknown #
coedge $-1 -1 $-1 $97 $95 $99 $163 forward $156 $-1 #
coedge $-1 -1 $-1 $95 $97 $205 $209 reversed $156 $-1 #
loop $-1 -1 $-1 $-1 $95 $136 #
truecolor-adesk-attrib $-1 -1 $210 $-1 $96 -1056964608 #
vertex $-1 -1 $-1 $96 $211 #
straight-curve $-1 -1 $-1 122.59961769486236 367.92344337845384 15.874999999999996 0 -999.99999999999989 0 F 0 F 0.37465000000000004 #
truecolor-adesk-attrib $-1 -1 $212 $-1 $98 -1056964608 #
vertex $-1 -1 $-1 $153 $213 #
straight-curve $-1 -1 $-1 122.59961769486236 367.92344337845384 -15.874999999999996 0 -999.99999999999989 0 F 0 F 0.37465000000000004 #
edge $214 -1 $-1 $102 1.224646799147353e-16 $101 3.1415926535897931 $99 $215 forward @7 unknown #
DXID-attrib $-1 -1 $-1 $100 $55 @18 ASM_EDGE_FROM_STEP @4 4175 #
point $-1 -1 $-1 122.59961769486236 367.92344337845384 -15.874999999999996 #
point $-1 -1 $-1 122.59961769486236 367.92344337845384 15.874999999999996 #
coedge $-1 -1 $-1 $104 $104 $107 $170 reversed $139 $-1 #
truecolor-adesk-attrib $-1 -1 $216 $-1 $105 -1056964608 #
ellipse-curve $-1 -1 $-1 122.59961769486236 -6.7265566215461234 0 0 -1 0 0 0 17.462499999999999 1 F -3.1415926535897931 F 0 #
edge $217 -1 $-1 $113 0 $110 3.1415926535897931 $167 $218 forward @7 unknown #
DXID-attrib $-1 -1 $-1 $109 $58 @18 ASM_EDGE_FROM_STEP @4 6594 #
point $-1 -1 $-1 122.59961769486236 -6.7265566215461234 -17.462499999999999 #
DXID-attrib $-1 -1 $-1 $112 $60 @18 ASM_EDGE_FROM_STEP @4 1962 #
point $-1 -1 $-1 122.59961769486236 -6.7265566215461234 17.462499999999999 #
truecolor-adesk-attrib $-1 -1 $219 $-1 $115 -1056964608 #
ellipse-curve $-1 -1 $-1 122.59961769486236 -13.076556621546121 0 0 -1 0 0 0 -17.462499999999999 1 F -3.1415926535897931 F 1.2246467991473532e-16 #
face $220 -1 $-1 $79 $206 $3 $-1 $221 reversed single #
DXID-attrib $-1 -1 $-1 $121 $68 @18 ASM_EDGE_FROM_STEP @4 1814 #
truecolor-adesk-attrib $-1 -1 $222 $-1 $123 -1056964608 #
ellipse-curve $-1 -1 $-1 122.59961769486236 -6.7265566215461234 0 0 -1 0 0 0 -6.3499999999999988 1 F 1.2246467991473532e-16 F 3.1415926535897931 #
truecolor-adesk-attrib $-1 -1 $223 $-1 $124 -1056964608 #
cone-surface $-1 -1 $-1 122.59961769486236 -13.076556621546121 0 0 1 0 0 0 6.3499999999999988 1 I I 0 1 6.3499999999999988 forward I I I I #
DXID-attrib $-1 -1 $-1 $129 $78 @18 ASM_EDGE_FROM_STEP @4 2316 #
DXID-attrib $-1 -1 $-1 $131 $79 @18 ASM_FACE_FROM_STEP @32 Sailtec Incorporated-Closed-5624 #
truecolor-adesk-attrib $-1 -1 $224 $-1 $132 -1056964608 #
cone-surface $-1 -1 $-1 122.59961769486236 -13.076556621546121 0 0 1 0 0 0 17.462499999999999 1 I I 0 1 17.462499999999999 forward I I I I #
DXID-attrib $-1 -1 $-1 $135 $85 @18 ASM_FACE_FROM_STEP @32 Sailtec Incorporated-Closed-3285 #
truecolor-adesk-attrib $-1 -1 $225 $-1 $136 -1056964608 #
cone-surface $-1 -1 $-1 122.59961769486236 367.92344337845384 0 0 -1 0 0 0 -15.874999999999996 1 I I 0 1 15.874999999999996 forward I I I I #
coedge $-1 -1 $-1 $140 $140 $143 $195 reversed $86 $-1 #
coedge $-1 -1 $-1 $144 $146 $140 $192 forward $137 $-1 #
edge $226 -1 $-1 $200 -3.1415926535897931 $197 1.224646799147353e-16 $140 $227 forward @7 unknown #
truecolor-adesk-attrib $-1 -1 $228 $-1 $142 -1056964608 #
ellipse-curve $-1 -1 $-1 122.59961769486236 367.92344337845384 0 0 1 0 0 0 19.049999999999997 1 F -3.1415926535897931 F 1.224646799147353e-16 #
edge $229 -1 $-1 $197 1.224646799147353e-16 $200 3.1415926535897931 $143 $230 forward @7 unknown #
truecolor-adesk-attrib $-1 -1 $231 $-1 $145 -1056964608 #
vertex $-1 -1 $-1 $145 $232 #
straight-curve $-1 -1 $-1 122.59961769486236 367.92344337845384 19.049999999999997 0 -999.99999999999989 0 F 0 F 0.37465000000000004 #
truecolor-adesk-attrib $-1 -1 $233 $-1 $147 -1056964608 #
vertex $-1 -1 $-1 $195 $234 #
straight-curve $-1 -1 $-1 122.59961769486236 367.92344337845384 -19.049999999999997 0 -999.99999999999989 0 F 0 F 0.37465000000000004 #
DXID-attrib $-1 -1 $-1 $148 $93 @18 ASM_EDGE_FROM_STEP @4 6462 #
point $-1 -1 $-1 122.59961769486236 367.92344337845384 19.049999999999997 #
point $-1 -1 $-1 122.59961769486236 367.92344337845384 -19.049999999999997 #
coedge $-1 -1 $-1 $152 $152 $155 $209 forward $206 $-1 #
loop $-1 -1 $-1 $120 $152 $177 #
truecolor-adesk-attrib $-1 -1 $235 $-1 $153 -1056964608 #
ellipse-curve $-1 -1 $-1 122.59961769486236 -6.7265566215461234 0 0 1 0 0 0 15.874999999999996 1 F -3.1415926535897931 F 1.224646799147353e-16 #
edge $236 -1 $-1 $158 1.224646799147353e-16 $161 3.1415926535897931 $155 $237 forward @7 unknown #
DXID-attrib $-1 -1 $-1 $157 $96 @18 ASM_EDGE_FROM_STEP @4 1529 #
point $-1 -1 $-1 122.59961769486236 -6.7265566215461234 15.874999999999996 #
DXID-attrib $-1 -1 $-1 $160 $98 @18 ASM_EDGE_FROM_STEP @4 6619 #
point $-1 -1 $-1 122.59961769486236 -6.7265566215461234 -15.874999999999996 #
truecolor-adesk-attrib $-1 -1 $238 $-1 $163 -1056964608 #
ellipse-curve $-1 -1 $-1 122.59961769486236 367.92344337845384 0 0 1 0 0 0 15.874999999999996 1 F 1.224646799147353e-16 F 3.1415926535897931 #
DXID-attrib $-1 -1 $-1 $168 $105 @18 ASM_EDGE_FROM_STEP @4 6884 #
truecolor-adesk-attrib $-1 -1 $239 $-1 $170 -1056964608 #
ellipse-curve $-1 -1 $-1 122.59961769486236 -6.7265566215461234 0 0 -1 0 0 0 17.462499999999999 1 F 0 F 3.1415926535897931 #
DXID-attrib $-1 -1 $-1 $175 $115 @18 ASM_EDGE_FROM_STEP @4 5752 #
truecolor-adesk-attrib $-1 -1 $240 $-1 $177 -1056964608 #
plane-surface $-1 -1 $-1 122.59961769486236 -6.7265566215461234 0 0 -1 0 0 0 -25.399999999999995 forward_v I I I I #
DXID-attrib $-1 -1 $-1 $179 $123 @18 ASM_EDGE_FROM_STEP @4 2915 #
DXID-attrib $-1 -1 $-1 $181 $124 @18 ASM_FACE_FROM_STEP @32 Sailtec Incorporated-Closed-5209 #
DXID-attrib $-1 -1 $-1 $185 $132 @18 ASM_FACE_FROM_STEP @32 Sailtec Incorporated-Closed-6038 #
DXID-attrib $-1 -1 $-1 $188 $136 @18 ASM_FACE_FROM_STEP @31 Sailtec Incorporated-Closed-349 #
truecolor-adesk-attrib $-1 -1 $241 $-1 $192 -1056964608 #
ellipse-curve $-1 -1 $-1 122.59961769486236 -6.7265566215461234 0 0 1 0 0 0 19.049999999999997 1 F -3.1415926535897931 F 1.224646799147353e-16 #
DXID-attrib $-1 -1 $-1 $193 $142 @18 ASM_EDGE_FROM_STEP @4 4696 #
truecolor-adesk-attrib $-1 -1 $242 $-1 $195 -1056964608 #
ellipse-curve $-1 -1 $-1 122.59961769486236 -6.7265566215461234 0 0 1 0 0 0 19.049999999999997 1 F 1.224646799147353e-16 F 3.1415926535897931 #
DXID-attrib $-1 -1 $-1 $196 $145 @18 ASM_EDGE_FROM_STEP @4 6495 #
point $-1 -1 $-1 122.59961769486236 -6.7265566215461234 19.049999999999997 #
DXID-attrib $-1 -1 $-1 $199 $147 @18 ASM_EDGE_FROM_STEP @4 1665 #
point $-1 -1 $-1 122.59961769486236 -6.7265566215461234 -19.049999999999997 #
DXID-attrib $-1 -1 $-1 $207 $153 @18 ASM_EDGE_FROM_STEP @4 7417 #
truecolor-adesk-attrib $-1 -1 $243 $-1 $209 -1056964608 #
ellipse-curve $-1 -1 $-1 122.59961769486236 -6.7265566215461234 0 0 1 0 0 0 15.874999999999996 1 F 1.224646799147353e-16 F 3.1415926535897931 #
DXID-attrib $-1 -1 $-1 $214 $163 @18 ASM_EDGE_FROM_STEP @4 4093 #
DXID-attrib $-1 -1 $-1 $217 $170 @18 ASM_EDGE_FROM_STEP @4 2324 #
DXID-attrib $-1 -1 $-1 $220 $177 @18 ASM_FACE_FROM_STEP @32 Sailtec Incorporated-Closed-1803 #
DXID-attrib $-1 -1 $-1 $226 $192 @18 ASM_EDGE_FROM_STEP @4 4001 #
DXID-attrib $-1 -1 $-1 $229 $195 @18 ASM_EDGE_FROM_STEP @4 3463 #
DXID-attrib $-1 -1 $-1 $236 $209 @18 ASM_EDGE_FROM_STEP @2 98 #
