700 462 1 0         
16 Autodesk AutoCAD 20 ASM 229.2.0.65535 NT 24 Wed Mar  6 03:48:53 2024 
1 9.999999999999999547e-07 1.000000000000000036e-10 
body $1 -1 $-1 $2 $-1 $3 #
DXID-attrib $-1 -1 $-1 $-1 $0 @18 ASM_BODY_FROM_STEP @83 6DB913E4D6F81BC12565B5804F450F648B31903C|:|B8A4396250C5687B1D31E70758B30729E1AC4426 #
lump $-1 -1 $-1 $-1 $4 $0 #
transform $-1 -1 1 0 0 0 1 0 0 0 1 0 0 0 1 no_rotate no_reflect no_shear #
shell $-1 -1 $-1 $-1 $-1 $5 $-1 $2 #
face $6 -1 $-1 $7 $8 $4 $-1 $9 forward single #
truecolor-adesk-attrib $-1 -1 $10 $-1 $5 -1026765620 #
face $11 -1 $-1 $12 $13 $4 $-1 $14 reversed single #
loop $-1 -1 $-1 $15 $16 $5 #
cone-surface $-1 -1 $-1 0 0 71.70000000000000284 0 0 1 20.19999999999999929 0 0 1 I I 0 1 20.19999999999999929 forward I I I I #
color-adesk-attrib $-1 -1 $17 $6 $5 254 #
truecolor-adesk-attrib $-1 -1 $18 $-1 $7 -1026765620 #
face $19 -1 $-1 $20 $21 $4 $-1 $22 reversed single #
loop $-1 -1 $-1 $-1 $23 $7 #
cone-surface $-1 -1 $-1 10.5 0 74.20000000000000284 1 0 0 0 0 -1.199999999999999956 1 I I 0 1 1.199999999999999956 forward I I I I #
loop $-1 -1 $-1 $24 $25 $5 #
coedge $-1 -1 $-1 $26 $27 $28 $29 forward $8 $-1 #
DXID-attrib $-1 -1 $-1 $10 $5 @18 ASM_FACE_FROM_STEP @21 servo-pot-assembly-17 #
color-adesk-attrib $-1 -1 $30 $11 $7 254 #
truecolor-adesk-attrib $-1 -1 $31 $-1 $12 -1026765620 #
face $32 -1 $-1 $33 $34 $4 $-1 $35 forward single #
loop $-1 -1 $-1 $36 $37 $12 #
plane-surface $-1 -1 $-1 0 0 71.70000000000000284 0 0 1 1 0 0 forward_v I I I I #
coedge $-1 -1 $-1 $38 $39 $40 $41 forward $13 $-1 #
loop $-1 -1 $-1 $-1 $42 $5 #
coedge $-1 -1 $-1 $25 $25 $43 $44 reversed $15 $-1 #
coedge $-1 -1 $-1 $28 $16 $45 $46 reversed $8 $-1 #
coedge $-1 -1 $-1 $16 $47 $38 $48 reversed $8 $-1 #
coedge $-1 -1 $-1 $40 $26 $16 $29 reversed $8 $-1 #
edge $49 -1 $-1 $50 3.700000000000001066 $51 5 $16 $52 forward @2 g2 #
DXID-attrib $-1 -1 $-1 $18 $7 @18 ASM_FACE_FROM_STEP @23 servo-pot-assembly-1078 #
color-adesk-attrib $-1 -1 $53 $19 $12 254 #
truecolor-adesk-attrib $-1 -1 $54 $-1 $20 -1026765620 #
face $55 -1 $-1 $56 $57 $4 $-1 $58 reversed single #
loop $-1 -1 $-1 $-1 $45 $20 #
plane-surface $-1 -1 $-1 0 0 76.70000000000000284 0 0 1 1 0 0 forward_v I I I I #
loop $-1 -1 $-1 $-1 $59 $12 #
coedge $-1 -1 $-1 $37 $37 $60 $61 reversed $21 $-1 #
coedge $-1 -1 $-1 $62 $23 $27 $48 forward $13 $-1 #
coedge $-1 -1 $-1 $23 $63 $62 $64 forward $13 $-1 #
coedge $-1 -1 $-1 $65 $28 $23 $41 reversed $8 $-1 #
edge $66 -1 $-1 $67 0 $50 1 $40 $68 forward @7 unknown #
coedge $-1 -1 $-1 $42 $42 $69 $70 reversed $24 $-1 #
coedge $-1 -1 $-1 $71 $72 $25 $44 forward $57 $-1 #
edge $73 -1 $-1 $74 0 $74 1 $25 $75 forward @7 unknown #
coedge $-1 -1 $-1 $45 $45 $26 $46 forward $34 $-1 #
edge $76 -1 $-1 $51 -2.475247524752475259e-16 $51 6.283185307179586232 $26 $77 forward @7 unknown #
coedge $-1 -1 $-1 $27 $60 $65 $78 forward $8 $-1 #
edge $79 -1 $-1 $50 1.955839174011816641e-12 $67 0.9999999999980451193 $27 $80 forward @7 unknown #
truecolor-adesk-attrib $-1 -1 $81 $-1 $29 -1026765620 #
vertex $-1 -1 $-1 $29 $82 #
vertex $-1 -1 $-1 $29 $83 #
straight-curve $-1 -1 $-1 20.19999999999999929 -4.950000000000000365e-15 71.70000000000000284 0 0 1 F 3.700000000000001066 F 5 #
DXID-attrib $-1 -1 $-1 $31 $12 @18 ASM_FACE_FROM_STEP @23 servo-pot-assembly-1134 #
color-adesk-attrib $-1 -1 $84 $32 $20 254 #
truecolor-adesk-attrib $-1 -1 $85 $-1 $33 -1026765620 #
face $86 -1 $-1 $87 $88 $4 $-1 $89 reversed single #
loop $-1 -1 $-1 $-1 $43 $33 #
cone-surface $-1 -1 $-1 -5.25 9.093266739737000393 74.20000000000000284 -0.5000000000001899592 0.8660254037843290176 0 0 0 -1.199999999999999956 1 I I 0 1 1.199999999999999956 forward I I I I #
coedge $-1 -1 $-1 $59 $59 $90 $91 forward $36 $-1 #
coedge $-1 -1 $-1 $47 $65 $37 $61 forward $8 $-1 #
edge $92 -1 $-1 $93 -2.475247524752475259e-16 $93 6.283185307179586232 $60 $94 forward @7 unknown #
coedge $-1 -1 $-1 $63 $38 $39 $64 reversed $13 $-1 #
coedge $-1 -1 $-1 $39 $62 $95 $96 reversed $13 $-1 #
edge $97 -1 $-1 $98 0 $67 9.699999999999999289 $62 $99 forward @2 g2 #
coedge $-1 -1 $-1 $60 $40 $47 $78 reversed $8 $-1 #
truecolor-adesk-attrib $-1 -1 $100 $-1 $41 -1026765620 #
vertex $-1 -1 $-1 $41 $101 #
intcurve-curve $-1 -1 $-1 forward { parcur full nubs 3 open 11 
	0 3 0.1145262396539999949 3 0.1844687880700000004 3 0.2696466216210000044 3 0.3335829719110000036 3 
	0.5000051399320000201 3 0.6647440551859999935 3 0.728020313256000029 3 0.814230928946000021 3 0.8850184812550000446 3 
	1 3 
	20.19999999999999929 0 73 
	20.19999999999999929 0.1635401934598696427 73.00000001636166758 
	20.19787973401951575 0.3261164428952028072 73.03463230052228994 
	20.19453273188146269 0.4699444019969988839 73.09584771927407587 
	20.1924886775250414 0.5577818619838421643 73.13323270984730584 
	20.19002434313082972 0.6389458615366074845 73.18021057408540742 
	20.18745009280206659 0.7119401313493490813 73.23400763492939802 
	20.18431510457261879 0.8008344296712583965 73.29952307864542149 
	20.18102719524401323 0.8776637559395717991 73.37507353833558454 
	20.17802208807210462 0.9420321721015207928 73.45664585376414379 
	20.17576638871005201 0.9903485172323078789 73.51787582306224067 
	20.17366585627829778 1.031698242819721001 73.58253693281892538 
	20.17184093707070858 1.066223808362178005 73.64939416050914645 
	20.16709079087667789 1.156091613510034533 73.8234191827322519 
	20.16432493291059558 1.200000000000050804 74.0118983328149227 
	20.16432493291059558 1.200000000000050804 74.20000000000014495 
	20.16432493291059558 1.200000000000050804 74.38619914028325297 
	20.16703228381336288 1.1569704352506891 74.57275682119211524 
	20.1716973655977263 1.068936570025417199 74.74532064811684506 
	20.17348922466423744 1.035122740631766014 74.81160245669377673 
	20.17555338639241569 0.9946300728733253882 74.87576019837881347 
	20.17777465093399059 0.9473173365486300401 74.93660699417928583 
	20.18080100852181502 0.8828561902523636151 75.0195075936888145 
	20.18412723731360359 0.8056339741509479513 75.09633760632272015 
	20.18730533585073061 0.7160330139963561047 75.16296247220094529 
	20.18991487314076849 0.642461649227463516 75.21766816175771453 
	20.19241759101881684 0.5605033647832640131 75.26544137427268311 
	20.19449204465617598 0.4716895783441039103 75.30340787639099176 
	20.19786161772388766 0.3274277170822282867 75.36507756170435357 
	20.19999999999999929 0.1641996016649796553 75.40000000000000568 
	20.19999999999999929 0 75.40000000000000568 
	0.0002394735046353253371 
	
	cone 0 0 71.70000000000000284 0 0 1 20.19999999999999929 0 0 1 I I 0 1 20.19999999999999929 forward I I I I 
	null_surface 
	nubs 5 open 11 
	0 5 0.1145262396539999949 4 0.1844687880700000004 4 0.2696466216210000044 4 0.3335829719110000036 4 
	0.5000051399320000201 4 0.6647440551859999935 4 0.728020313256000029 4 0.814230928946000021 4 0.8850184812550000446 4 
	1 5 
	0.06435643564356435808 0 
	0.06435643612955445347 0.004857629508708999864 
	0.06485294723153466057 0.009705578991883999709 
	0.0658420048193069235 0.0144485495633500001 
	0.06728309247638614154 0.01899339930096000106 
	0.07021181750584158665 0.02587641329780000082 
	0.07146433605910891551 0.02838813827584000041 
	0.07284598709064356303 0.03079259641352000143 
	0.07434303952589109421 0.03308236721849999729 
	0.07788697530490099052 0.03789392788783999683 
	0.07998289034227722138 0.04035802646226999829 
	0.08220707713475247647 0.04264007346411999994 
	0.08453972596569307718 0.0447381610698499993 
	0.08878137798727724073 0.04808887882011000231 
	0.0906514630291089113 0.04942224816314000346 
	0.09256597607871287769 0.05065271368495000148 
	0.09451880316311880859 0.0517809540093200002 
	0.1016737214773762582 0.05548096446681999999 
	0.1070652000526732678 0.05746691306349999834 
	0.1125879867302475301 0.05878292191192999866 
	0.1181751980044059291 0.05944093744571000287 
	0.1292930437707920932 0.05944093744571000287 
	0.1348237428100990121 0.05879616544464000283 
	0.1402919351214356458 0.05750664316505999657 
	0.1456327897010891159 0.05556091667899999698 
	0.1527272145179703056 0.05193660012068999909 
	0.1546640414327722923 0.05083166831580999967 
	0.1565638412898019693 0.04962668671221000249 
	0.1584207384504455474 0.04832098182959999877 
	0.1626904630636138716 0.04499730859343999828 
	0.1650617911844059482 0.04289200297441000259 
	0.1673233816976237576 0.04059818584227999766 
	0.1694548293402970418 0.03811769462839999928 
	0.1730587072245049762 0.03326794408837999845 
	0.1745810725207921077 0.03095782344194000085 
	0.1759858499551485156 0.02852992515309999907 
	0.1772588106495049665 0.02599184460636000046 
	0.18021830136529704 0.01906691733850000153 
	0.181670736791980203 0.01450605953988000005 
	0.1826677916740594154 0.009744737069095999599 
	0.1831683168316831922 0.004877215891039000245 
	0.1831683168316831922 0 
	
	nullbs 
	I I 
	0 
	9 0.1145262396539999949 0.1844687880700000004 0.2696466216210000044 0.3335829719110000036 0.5000051399320000201 0.6647440551859999935 0.728020313256000029 0.814230928946000021 0.8850184812550000446 
	0 
	surf1 } F 0 F 1 #
coedge $-1 -1 $-1 $102 $103 $42 $70 forward $88 $-1 #
edge $104 -1 $-1 $105 0 $105 1 $42 $106 forward @7 unknown #
coedge $-1 -1 $-1 $107 $43 $72 $108 reversed $57 $-1 #
coedge $-1 -1 $-1 $43 $107 $71 $108 forward $57 $-1 #
truecolor-adesk-attrib $-1 -1 $109 $-1 $44 -1026765620 #
vertex $-1 -1 $-1 $44 $110 #
intcurve-curve $-1 -1 $-1 forward { exactcur full nubs 7 closed 18 
	0 7 0.05731341195517000026 6 0.09231538883187999367 6 0.1349416837490000076 6 0.1669379157470000097 6 
	0.2502220232390000021 6 0.3336160751819999826 6 0.3653645483519999959 6 0.4410180649139999742 6 0.5572299379890000015 6 
	0.6368238596499999904 6 0.6686233684100000296 6 0.7499403353850000453 6 0.8323302849460000319 6 0.8639762825019999815 6 
	0.9070923107980000122 6 0.9424949019080000046 6 1 7 
	-10.09999999999999964 17.49371315644599889 73 
	-10.16069855507000064 17.45866882909500006 73.00000000700902092 
	-10.22117470270000261 17.42342548500700161 73.00477597328399781 
	-10.28095125319000047 17.38825946223600027 73.01430502012000545 
	-10.3395638937399994 17.35345676430300088 73.02845878936800261 
	-10.39657460635000241 17.31930222808399833 73.04700558918899844 
	-10.45158508559000055 17.28606869169399829 73.0696125398090004 
	-10.53641333655000167 17.23442519742700085 73.11186985290200369 
	-10.56772858991999975 17.21526446189200144 73.12925860713500015 
	-10.59815406813000038 17.19655834791900162 73.14793928373700282 
	-10.6276525520400007 17.17833857913700157 73.16783490977900328 
	-10.65619145181999983 17.16063421064900041 73.18886623764500143 
	-10.68374280693000067 17.14347162902799937 73.21095174502700331 
	-10.74260495460999998 17.10666221149000421 73.26208568223600537 
	-10.77343067618999939 17.08728636173499993 73.29160573788800548 
	-10.8027474828799992 17.06877113888999986 73.32244290815100385 
	-10.83054746546999958 17.05113675475899981 73.35447758097500071 
	-10.85682737247999974 17.03439958035599844 73.38759524190800221 
	-10.88158820910999935 17.01857222915700163 73.42168629000900637 
	-10.92228426452000178 16.99247292655099884 73.48288726917799352 
	-10.93888360925999947 16.98179790600099892 73.50962284471799535 
	-10.95463724158000041 16.97164086707400088 73.53681249738200165 
	-10.96954996983000186 16.96200342652500126 73.56441854249000301 
	-10.98362703963000087 16.9528865294920017 73.59240569368400031 
	-10.99687413388000223 16.94429044949200147 73.62074106292699582 
	-11.04163425401999987 16.91519436874400384 73.72397630690400661 
	-11.06838281781000077 16.89770419579700089 73.80069792563699593 
	-11.08965481377999929 16.883734620277 73.87903314798199972 
	-11.10554161275000062 16.87327187649200155 73.95852605359399945 
	-11.11610916373999913 16.86630248280300037 74.03876967563601852 
	-11.12139295099000158 16.862817642065 74.11938500591301704 
	-11.12139295099000158 16.862817642065 74.28072141500500436 
	-11.11609520383000138 16.86631169015799969 74.36144317108299617 
	-11.10549973339000118 16.87329949636200155 74.44179175901200551 
	-11.08957086108000034 16.88378990946500124 74.52138666102500508 
	-11.06824229082000066 16.89779648078300056 74.59981921459700516 
	-11.04142219410999992 16.91533302791999915 74.67663147624600128 
	-10.99665437760999964 16.94443298705600043 74.77971984145800377 
	-10.98349921017000064 16.95296917307199891 74.80783125507400655 
	-10.96952681856999945 16.96201813712000472 74.83559950785000581 
	-10.95473165179999953 16.97157960914000085 74.86299245676100611 
	-10.93910858194000113 16.98165266846800137 74.88997563408301517 
	-10.92265290422000135 16.99223574383699997 74.91651224739300119 
	-10.86415383491999975 17.02975507429200519 75.00464001135000558 
	-10.81810826170999995 17.05912272558200016 75.06409106091200556 
	-10.76721974201000087 17.09136359609199829 75.1202353017000064 
	-10.71154475892000235 17.12636183044700289 75.17237493440600815 
	-10.65120272703000026 17.16395286779000173 75.21979389565500185 
	-10.58638393757000173 17.2039242840370008 75.26175445615800186 
	-10.41133916092000078 17.31067412143699968 75.35238844776000633 
	-10.29498553017000262 17.38058808659399901 75.39281550525100783 
	-10.17144774235999982 17.4534920183210005 75.41460489530300038 
	-10.04483929829999944 17.52666725063199848 75.4156779969879949 
	-9.919676666189999992 17.59749751747100532 75.39599705912100092 
	-9.800323626099000762 17.66378740424600124 75.35751592909701913 
	-9.614915071820000492 17.7651565248799983 75.26760332978200552 
	-9.543852013112999799 17.80352343146200056 75.22404205255199372 
	-9.477526926093000625 17.83891887934899856 75.17436245488799784 
	-9.416270786537999982 17.87127207412499885 75.11942498391199763 
	-9.360320283445000555 17.90055828109600355 75.06006348895699887 
	-9.309822039653999681 17.92678936227299857 74.99708954799399407 
	-9.24685860135699933 17.9592877126690027 74.90500746592999803 
	-9.229746496810999901 17.96809347130599832 74.87824503994499992 
	-9.213495919858999628 17.9764326129450005 74.85104558211800452 
	-9.198105608286999413 17.98431007663100445 74.82344550090300572 
	-9.18357359305699994 17.99173080435799932 74.79547891267000637 
	-9.16989719830100114 17.99869974107300052 74.76717764170500402 
	-9.124279404262999549 18.02189998130399928 74.66541954200299358 
	-9.097064622247000187 18.03565318496900005 74.59028403892999393 
	-9.075368843385000162 18.04656575135199859 74.51364858996899443 
	-9.059139024506999149 18.05470372728699857 74.43593487552601573 
	-9.048334405209999431 18.06011304095299863 74.3575210457770055 
	-9.042931981914000161 18.06281764206499929 74.27876038901699474 
	-9.042931981914000161 18.06281764206499929 74.12020036260699385 
	-9.048477919045000206 18.06004119646900108 74.04040043964199924 
	-9.059569551436000623 18.0544881851300012 73.96096113581199916 
	-9.076231178385999243 18.04613334638600008 73.88225000692699496 
	-9.098505703264999411 18.03492830156600135 73.80466118167501577 
	-9.126448696427999607 18.02080357951000167 73.72863528340201356 
	-9.173056557317000426 17.99708987569000129 73.6262728624929963 
	-9.186835182034000624 17.99006577528599848 73.59817360237299511 
	-9.201461641051000839 17.98259342845700104 73.57041093297999623 
	-9.216938513170999769 17.9746679454840006 73.54301649045700628 
	-9.233267647223000196 17.9662844583350001 73.51602418563300034 
	-9.250450162063000192 17.95743812066699974 73.48947020401999453 
	-9.293059947590000647 17.93543424899399952 73.4278641774580052 
	-9.319224312177999181 17.92187313646600089 73.39321131655799491 
	-9.346974701862000856 17.90743155521400354 73.35954218540500449 
	-9.376301026606000732 17.89210180020999985 73.32696954890199947 
	-9.407187656735999326 17.87587799401499922 73.29561137610200205 
	-9.439613134870999289 17.85875640437300049 73.2655910417470011 
	-9.501415371690999478 17.82593900370600082 73.21359222406900358 
	-9.530302769096000048 17.81053461491200096 73.19113342703201397 
	-9.56017927412800006 17.7945309404009997 73.16974787804099378 
	-9.591007241216999546 17.77793911462699938 73.14952000799399912 
	-9.622744185169999298 17.76077306151800173 73.13053193732800139 
	-9.655342781171999178 17.74304949447400048 73.11286347602600699 
	-9.743016246631000854 17.6951252897789999 73.07016225823799971 
	-9.799494153985000011 17.66400168477499832 73.047381263155998 
	-9.857791418310000608 17.63159264019600059 73.02868800039099995 
	-9.917467566619999175 17.59810892951999861 73.0144206602980006 
	-9.978051249152999347 17.56379023235000147 73.00481457086701198 
	-10.03905666704000055 17.52889880589199834 73.0000000070370163 
	-10.09999999999999964 17.49371315644599889 73 
	0 
	
	null_surface 
	null_surface 
	nullbs 
	nullbs 
	I I 
	0 
	16 0.05731341195517000026 0.09231538883187999367 0.1349416837490000076 0.1669379157470000097 0.2502220232390000021 0.3336160751819999826 0.3653645483519999959 0.4410180649139999742 0.5572299379890000015 0.6368238596499999904 0.6686233684100000296 0.7499403353850000453 0.8323302849460000319 0.8639762825019999815 0.9070923107980000122 0.9424949019080000046 
	0 
	F 1 F 0 } I I #
truecolor-adesk-attrib $-1 -1 $111 $-1 $46 -1026765620 #
ellipse-curve $-1 -1 $-1 0 0 76.70000000000000284 0 0 1 20.19999999999999929 0 0 1 I I #
edge $112 -1 $-1 $93 0 $67 1.299999999999998934 $65 $113 forward @2 g2 #
truecolor-adesk-attrib $-1 -1 $114 $-1 $48 -1026765620 #
intcurve-curve $-1 -1 $-1 forward { parcur full nubs 3 open 11 
	0 3 0.1145261701379999969 3 0.1844686755180000026 3 0.2696464849569999989 3 0.3335828353440000171 3 
	0.5000050036159999767 3 0.664743919118999993 3 0.7280201772850000141 3 0.8142308176139999576 3 0.8850184118320000293 3 
	1 3 
	20.19999999999999929 8.355653527252663083e-12 75.40000000000000568 
	20.20000000000006679 -0.1635400944813003854 75.40000000000000568 
	20.19787973404897485 -0.3261164416317258175 75.36536770001801244 
	20.1945327318812673 -0.4699444020053867854 75.30415228072550349 
	20.19248867752373755 -0.5577818620383785397 75.2667672901330036 
	20.19002434312961469 -0.6389458615713233813 75.21978942588981454 
	20.18745009280197067 -0.7119401313521261931 75.16599236507030923 
	20.18431510353235225 -0.8008344591682095004 75.10047689961814399 
	20.18102719438893899 -0.877663774255322271 75.02492643844941256 
	20.17802208807184172 -0.9420321721071631682 74.94335414623590452 
	20.17576638870946226 -0.9903485172445735119 74.8821241769377508 
	20.1736658562779283 -1.031698242826868617 74.81746306718127926 
	20.17184093707056647 -1.066223808364879622 74.75060583949061765 
	20.16709079087717527 -1.156091613500382476 74.57658081726793853 
	20.16432493291074124 -1.199999999997563682 74.38810166718498351 
	20.16432493291074124 -1.199999999997563682 74.20000000000005969 
	20.16432493291074124 -1.199999999997563682 74.01380085971663902 
	20.16703228381398461 -1.15697043523927956 73.82724317880779097 
	20.17169736559792881 -1.068936570021677968 73.65467935188333115 
	20.17348922466428718 -1.035122740630788352 73.58839754330612948 
	20.17555338639245122 -0.9946300728726300555 73.52423980162137696 
	20.17777465093397637 -0.9473173365489789832 73.46339300582043563 
	20.18080100938207977 -0.8828561719289091947 73.38049238274305708 
	20.18412723827775324 -0.8056339469675798393 73.30366237346241576 
	20.1873053358505139 -0.7160330140024745438 73.23703752779888987 
	20.1899148731478526 -0.6424616490284452697 73.18233183808740705 
	20.19241759102490619 -0.5605033645228373329 73.1345586256220912 
	20.19449204465621506 -0.4716895783422793142 73.09659212360938341 
	20.19786161775364519 -0.3274277158073688465 73.03492243774375936 
	20.20000000000006679 -0.1641996982786443904 73.00000001642666803 
	20.19999999999999929 8.355653527252663083e-12 73 
	0.0002394677086543435291 
	
	cone 0 0 71.70000000000000284 0 0 1 20.19999999999999929 0 0 1 I I 0 1 20.19999999999999929 forward I I I I 
	null_surface 
	nubs 5 open 11 
	0 5 0.1145261701379999969 4 0.1844686755180000026 4 0.2696464849569999989 4 0.3335828353440000171 4 
	0.5000050036159999767 4 0.664743919118999993 4 0.7280201772850000141 4 0.8142308176139999576 4 0.8850184118320000293 4 
	1 5 
	0.1831683168316831922 6.283185307180000123 
	0.1831683168316831922 6.278327680611000439 
	0.1826718043185643625 6.273479723384999929 
	0.1816827481638613739 6.268736759930000346 
	0.1802416600149009951 6.264191907915999558 
	0.1773129349688118972 6.257308893880000333 
	0.1760604164167821895 6.254797168905000149 
	0.1746787653851485378 6.252392710767000317 
	0.1731817129486138696 6.250102939959999659 
	0.1696377765247029934 6.245291378414999706 
	0.1675418625158416053 6.242827281465999967 
	0.1653176760440593918 6.240545234113000106 
	0.1629850258200000179 6.238447145564999907 
	0.1587433744879702957 6.235096428359000242 
	0.1568732894461386251 6.233763059015999808 
	0.1549587763965346587 6.232532593494999773 
	0.153005949312128714 6.231404353170000299 
	0.1458510309978712782 6.227704342713000329 
	0.1404595524225742686 6.225718394115999921 
	0.1349367657449999924 6.22440238526800016 
	0.1293495544708415934 6.223744369733999804 
	0.1182317087044554571 6.223744369733999804 
	0.1127010096651485105 6.22438914173500013 
	0.1072328173538118906 6.225678664014999697 
	0.1018919627741584205 6.227624390501000029 
	0.09479753795727723087 6.231248707058999692 
	0.09286071104247525798 6.232353638863999734 
	0.09096091118544553933 6.233558620466999933 
	0.08910401402480198907 6.234864325350000236 
	0.0848342887115841604 6.238187999131000083 
	0.08246296197549504714 6.24029330383299996 
	0.08020137117732674403 6.24258712058800036 
	0.07806992253450495411 6.245067613358999736 
	0.07446604524613861797 6.249917363097000411 
	0.0729436799569802008 6.252227483731999769 
	0.07153890252336633782 6.254655382022000332 
	0.07026594182262377308 6.257193462581000176 
	0.06730645109356435396 6.264118389879000048 
	0.06585401624653465513 6.268679245212999795 
	0.06485695984965346439 6.273440574891999688 
	0.06435643613148515907 6.278308088419000121 
	0.06435643564356435808 6.283185307180000123 
	
	nullbs 
	I I 
	0 
	9 0.1145261701379999969 0.1844686755180000026 0.2696464849569999989 0.3335828353440000171 0.5000050036159999767 0.664743919118999993 0.7280201772850000141 0.8142308176139999576 0.8850184118320000293 
	0 
	surf1 } F 1.955839174011816641e-12 F 0.9999999999980451193 #
color-adesk-attrib $-1 -1 $115 $49 $29 254 #
point $-1 -1 $-1 20.19999999999999929 -5.000000000000000783e-15 75.40000000000000568 #
point $-1 -1 $-1 20.19999999999999929 -5.000000000000000783e-15 76.70000000000000284 #
DXID-attrib $-1 -1 $-1 $54 $20 @18 ASM_FACE_FROM_STEP @23 servo-pot-assembly-1169 #
color-adesk-attrib $-1 -1 $116 $55 $33 254 #
truecolor-adesk-attrib $-1 -1 $117 $-1 $56 -1026765620 #
face $118 -1 $-1 $119 $120 $4 $-1 $121 forward single #
loop $-1 -1 $-1 $-1 $69 $56 #
cone-surface $-1 -1 $-1 -5.25 -9.093266739737000393 74.20000000000000284 -0.5000000000001899592 -0.8660254037843290176 0 0 0 -1.199999999999999956 1 I I 0 1 1.199999999999999956 forward I I I I #
coedge $-1 -1 $-1 $122 $123 $59 $91 reversed $124 $-1 #
edge $125 -1 $-1 $126 -2.500000000000000194e-16 $126 6.283185307179586232 $59 $127 forward @7 unknown #
truecolor-adesk-attrib $-1 -1 $128 $-1 $61 -1026765620 #
vertex $-1 -1 $-1 $78 $129 #
ellipse-curve $-1 -1 $-1 0 0 71.70000000000000284 0 0 1 20.19999999999999929 0 0 1 I I #
coedge $-1 -1 $-1 $95 $95 $63 $96 forward $120 $-1 #
edge $130 -1 $-1 $98 0 $98 6.283185307179586232 $63 $131 forward @7 unknown #
truecolor-adesk-attrib $-1 -1 $132 $-1 $64 -1026765620 #
vertex $-1 -1 $-1 $64 $133 #
straight-curve $-1 -1 $-1 10.5 -2.899999999999999791e-16 73 1 0 0 F 0 F 9.699999999999999289 #
color-adesk-attrib $-1 -1 $134 $66 $41 254 #
point $-1 -1 $-1 20.19999999999999929 -2.999999999999999839e-15 73 #
coedge $-1 -1 $-1 $135 $69 $103 $136 reversed $88 $-1 #
coedge $-1 -1 $-1 $69 $135 $102 $136 forward $88 $-1 #
truecolor-adesk-attrib $-1 -1 $137 $-1 $70 -1026765620 #
vertex $-1 -1 $-1 $70 $138 #
intcurve-curve $-1 -1 $-1 forward { exactcur full nubs 7 closed 18 
	0 7 0.05731337798694999958 6 0.09231534544022000632 6 0.1349416412209999971 6 0.1669378738679999918 6 
	0.2502219830469999962 6 0.333616043066000012 6 0.3653645167510000125 6 0.4410180345329999807 6 0.5572299094679999953 6 
	0.6368238324030000008 6 0.6686233416719999934 6 0.749940315894999987 6 0.8323302670719999741 6 0.8639762652489999528 6 
	0.907092306647000024 6 0.9424949069029999738 6 1 7 
	-10.09999999999999964 -17.49371315643999836 73 
	-10.03930144471999952 -17.52875748342999884 73.00000000700902092 
	-9.978541739606999528 -17.56350969156000019 73.00477597328399781 
	-9.918198795296000014 -17.59769469144999832 73.01430502012000545 
	-9.858752454490000261 -17.63105337817999896 73.02845878936800261 
	-9.800668402163999815 -17.66334883548000079 73.04700558918899844 
	-9.744382075769999929 -17.69437253978999891 73.0696125398090004 
	-9.657243361633000234 -17.74201421877999962 73.11186985808402028 
	-9.624992059906999131 -17.75955365127000007 73.12925860663899869 
	-9.593579360521001576 -17.77654982609999834 73.14793927795901141 
	-9.563051337022999476 -17.79298637751999834 73.16783490459799566 
	-9.533449446249001369 -17.80884960975999931 73.18886623864000285 
	-9.504810528327000796 -17.82412849705999847 73.21095175170100333 
	-9.443501571802000782 -17.85669989926000056 73.26208568223600537 
	-9.411308732904000607 -17.87370783236000094 73.29160573788800548 
	-9.380615676217999521 -17.88983932029000101 73.32244290815100385 
	-9.351443860285000298 -17.90509761937000022 73.35447758097500071 
	-9.323809088562999392 -17.91948809923999875 73.38759524190800221 
	-9.297721782034999549 -17.93301793718000425 73.42168629000900637 
	-9.254771095249999746 -17.9552121036999992 73.48288726917799352 
	-9.237226583899001753 -17.96425004765999844 73.50962284471799535 
	-9.220553514002000739 -17.97281457397999915 73.53681249738200165 
	-9.20475088153300014 -17.98091065520999976 73.56441854249000301 
	-9.189816882195000147 -17.98854330676000046 73.59240569368400031 
	-9.175748911420999576 -17.99571758689999967 73.62074106292699582 
	-9.128170906274000629 -18.01993294764999831 73.72397630690400661 
	-9.099649690286000236 -18.0343527969399986 73.80069792563699593 
	-9.076915685022999725 -18.04579009807000034 73.87903314798199972 
	-9.059911283628000689 -18.05431709767000115 73.95852605359399945 
	-9.048591836149000756 -18.05998416843999976 74.03876967563601852 
	-9.042931981914000161 -18.06281764206000062 74.11938500591301704 
	-9.042931981914000161 -18.06281764206000062 74.28072142118699617 
	-9.048606788332001827 -18.05997668327999861 74.36144316494701911 
	-9.059956142729999939 -18.05429463906000009 74.4417917540520051 
	-9.077005545323000746 -18.04574503642000138 74.52138666589000593 
	-9.099799876079000427 -18.03427723889999967 74.59981922077099625 
	-9.128397015816000604 -18.01981862938000134 74.67663147022699377 
	-9.175982230707999676 -17.99559854117000057 74.77971984145800377 
	-9.189952368367999114 -17.98847392499000009 74.80783125507400655 
	-9.204775196910999213 -17.98089796093999837 74.83559950785000581 
	-9.220453257964999594 -17.9728657066699995 74.86299245676100611 
	-9.23698831816400201 -17.96437226095000028 74.88997563408301517 
	-9.254381369144999425 -17.95541276368999917 74.91651224739300119 
	-9.316123597096000353 -17.92351074881000272 75.0046400113440086 
	-9.364579515772000207 -17.89831793832000173 75.06409106091300032 
	-9.417945188530000067 -17.87036762275000257 75.12023530170499441 
	-9.476092040112000348 -17.83965079021999856 75.17237493440900664 
	-9.538817849345999633 -17.8061885763600003 75.21979389565299812 
	-9.605843505965999896 -17.77003956616999858 75.2617544561539944 
	-9.785813965338000742 -17.67182126148999899 75.35238844776000633 
	-9.904538050616000788 -17.60601304401999911 75.39281550525100783 
	-10.02944360142999969 -17.53547814730999832 75.41460489530200562 
	-10.15611943357000158 -17.46241963458000157 75.4156779969879949 
	-10.2800415600600008 -17.38944074898000025 75.39599705912100092 
	-10.39712680607000017 -17.31922292763000115 75.35751592909701913 
	-10.57761931684000167 -17.20933896985999922 75.26760332978200552 
	-10.6463775619600014 -17.16698000903999954 75.22404205255199372 
	-10.71019346251999949 -17.12723852271999903 75.17436245488799784 
	-10.76884022086000137 -17.09036574710999901 75.11942498391199763 
	-10.82217807163000245 -17.05655429356999875 75.06006348895699887 
	-10.8701439761900005 -17.02593707217999963 74.99708954799399407 
	-10.92977009236000008 -16.98765831030999962 74.90500746592999803 
	-10.94595215530999965 -16.97724167237999993 74.87824503994499992 
	-10.9612993522999993 -16.96733783072999913 74.85104558211800452 
	-10.97581659175000013 -16.95794816178000275 74.82344550090300572 
	-10.98950913809000163 -16.94907343128999955 74.79547891267000637 
	-11.00238261170000165 -16.94071379434999969 74.76717764170500402 
	-11.04528350838999984 -16.91280774450000024 74.6654195366549942 
	-11.07080151997000073 -16.89611565582000097 74.59028404440201143 
	-11.09109996833000089 -16.88278284387000028 74.51364859429000376 
	-11.10626257344000045 -16.87279639523000085 74.43593487113301421 
	-11.11634948735000172 -16.86614397649000097 74.35752104033500132 
	-11.12139295099000158 -16.86281764206000133 74.27876039449199652 
	-11.12139295099000158 -16.86281764206000133 74.12020036260699385 
	-11.11621551001000086 -16.86623234170999908 74.04040043964199924 
	-11.1058606449300008 -16.87306147146000157 73.96096113581199916 
	-11.09029432885000155 -16.88331344428999969 73.88225000692699496 
	-11.06945321295000007 -16.89700122628000045 73.80466118167501577 
	-11.04324934825000071 -16.91413820718999972 73.72863528340201356 
	-10.99940874788000222 -16.94264494683000066 73.6262728624929963 
	-10.98643638613000029 -16.95106553565999974 73.59817360237299511 
	-10.97265191444000187 -16.95999624731999944 73.57041093297999623 
	-10.95804980879000112 -16.96943687026000092 73.54301649045700628 
	-10.94262492892000083 -16.9793865715999992 73.51602418563300034 
	-10.92637251835000001 -16.98984389712000009 73.48947020401999453 
	-10.88601170711999977 -17.01574312223999996 73.42786416735901867 
	-10.86118526207000201 -17.03162156699999841 73.39321131641000306 
	-10.83480329836000067 -17.04843331414999952 73.35954219359399531 
	-10.80686417994000159 -17.06616577816999936 73.32696955573399578 
	-10.77737062893999997 -17.08480248623000364 73.29561137417100269 
	-10.74633014886000204 -17.10432298506000137 73.26559103308299825 
	-10.68700834700000257 -17.14143657980000057 73.21359223224999369 
	-10.65922404778999955 -17.15875161063999954 73.19113342948099898 
	-10.63042619832000035 -17.17662359087000112 73.169747873755 
	-10.60064327292000108 -17.19502548023000088 73.1495200026830048 
	-10.56990857227999925 -17.21392744762999882 73.13053193721299294 
	-10.53826022346000002 -17.23329687113999853 73.11286348164300364 
	-10.45291990077999955 -17.28526222394999934 73.07016225823799971 
	-10.3977271145100012 -17.31861172397000104 73.047381263155998 
	-10.34051142643000176 -17.35289411356000144 73.02868800039099995 
	-10.28167560822000048 -17.38783331866000026 73.0144206602980006 
	-10.2216629033699995 -17.4231409781999993 73.00481457086701198 
	-10.1609433327400005 -17.45852750662999853 73.0000000070370163 
	-10.09999999999999964 -17.49371315643999836 73 
	0 
	
	null_surface 
	null_surface 
	nullbs 
	nullbs 
	I I 
	0 
	16 0.05731337798694999958 0.09231534544022000632 0.1349416412209999971 0.1669378738679999918 0.2502219830469999962 0.333616043066000012 0.3653645167510000125 0.4410180345329999807 0.5572299094679999953 0.6368238324030000008 0.6686233416719999934 0.749940315894999987 0.8323302670719999741 0.8639762652489999528 0.907092306647000024 0.9424949069029999738 
	0 
	F 1 F 0 } I I #
coedge $-1 -1 $-1 $72 $71 $139 $140 reversed $57 $-1 #
edge $141 -1 $-1 $142 0 $74 9.700000000003637268 $71 $143 forward @2 g2 #
color-adesk-attrib $-1 -1 $144 $73 $44 254 #
point $-1 -1 $-1 -10.09999999999999964 17.49371315644599889 73 #
color-adesk-attrib $-1 -1 $145 $76 $46 254 #
truecolor-adesk-attrib $-1 -1 $146 $-1 $78 -1026765620 #
straight-curve $-1 -1 $-1 20.19999999999999929 -4.950000000000000365e-15 71.70000000000000284 0 0 1 F 0 F 1.299999999999998934 #
color-adesk-attrib $-1 -1 $147 $79 $48 254 #
DXID-attrib $-1 -1 $-1 $81 $29 @18 ASM_EDGE_FROM_STEP @2 21 #
DXID-attrib $-1 -1 $-1 $85 $33 @18 ASM_FACE_FROM_STEP @23 servo-pot-assembly-1173 #
color-adesk-attrib $-1 -1 $148 $86 $56 254 #
truecolor-adesk-attrib $-1 -1 $149 $-1 $87 -1026765620 #
face $150 -1 $-1 $151 $124 $4 $-1 $152 forward single #
loop $-1 -1 $-1 $-1 $95 $87 #
plane-surface $-1 -1 $-1 10.5 0 74.20000000000000284 1 0 0 0 0 -1 forward_v I I I I #
coedge $-1 -1 $-1 $153 $90 $123 $154 reversed $124 $-1 #
coedge $-1 -1 $-1 $90 $155 $122 $154 forward $124 $-1 #
loop $-1 -1 $-1 $-1 $123 $119 #
truecolor-adesk-attrib $-1 -1 $156 $-1 $91 -1026765620 #
vertex $-1 -1 $-1 $91 $157 #
ellipse-curve $-1 -1 $-1 0 0 71.70000000000000284 0 0 1 4 0 0 1 I I #
color-adesk-attrib $-1 -1 $158 $92 $61 254 #
point $-1 -1 $-1 20.19999999999999929 -5.000000000000000783e-15 71.70000000000000284 #
truecolor-adesk-attrib $-1 -1 $159 $-1 $96 -1026765620 #
ellipse-curve $-1 -1 $-1 10.5 0 74.20000000000000284 1 0 0 0 0 -1.199999999999999956 1 I I #
color-adesk-attrib $-1 -1 $160 $97 $64 254 #
point $-1 -1 $-1 10.5 0 73 #
DXID-attrib $-1 -1 $-1 $100 $41 @18 ASM_EDGE_FROM_STEP @2 79 #
coedge $-1 -1 $-1 $103 $102 $161 $162 reversed $88 $-1 #
edge $163 -1 $-1 $164 0 $105 9.699999999998439648 $102 $165 forward @2 g2 #
color-adesk-attrib $-1 -1 $166 $104 $70 254 #
point $-1 -1 $-1 -10.09999999999999964 -17.49371315643999836 73 #
coedge $-1 -1 $-1 $139 $139 $107 $140 forward $167 $-1 #
edge $168 -1 $-1 $142 0 $142 6.283185307179586232 $107 $169 forward @7 unknown #
truecolor-adesk-attrib $-1 -1 $170 $-1 $108 -1026765620 #
vertex $-1 -1 $-1 $108 $171 #
straight-curve $-1 -1 $-1 -5.25 9.093266739737000393 73 -0.5 0.8660254037839999475 0 F 0 F 9.700000000003637268 #
DXID-attrib $-1 -1 $-1 $109 $44 @18 ASM_EDGE_FROM_STEP @3 415 #
DXID-attrib $-1 -1 $-1 $111 $46 @18 ASM_EDGE_FROM_STEP @2 51 #
color-adesk-attrib $-1 -1 $172 $112 $78 254 #
DXID-attrib $-1 -1 $-1 $114 $48 @18 ASM_EDGE_FROM_STEP @3 275 #
DXID-attrib $-1 -1 $-1 $117 $56 @18 ASM_FACE_FROM_STEP @23 servo-pot-assembly-1228 #
color-adesk-attrib $-1 -1 $173 $118 $87 254 #
truecolor-adesk-attrib $-1 -1 $174 $-1 $119 -1026765620 #
face $175 -1 $-1 $176 $167 $4 $-1 $177 forward single #
cone-surface $-1 -1 $-1 0 0 51.70000000000000995 0 0 1 4 0 0 1 I I 0 1 4 forward I I I I #
coedge $-1 -1 $-1 $178 $122 $179 $180 forward $124 $-1 #
edge $181 -1 $-1 $182 0 $126 20 $123 $183 forward @2 g2 #
coedge $-1 -1 $-1 $123 $184 $185 $186 forward $124 $-1 #
color-adesk-attrib $-1 -1 $187 $125 $91 254 #
point $-1 -1 $-1 4 -1.000000000000000078e-15 71.70000000000000284 #
DXID-attrib $-1 -1 $-1 $128 $61 @18 ASM_EDGE_FROM_STEP @3 247 #
color-adesk-attrib $-1 -1 $188 $130 $96 254 #
DXID-attrib $-1 -1 $-1 $132 $64 @18 ASM_EDGE_FROM_STEP @4 1083 #
coedge $-1 -1 $-1 $161 $161 $135 $162 forward $189 $-1 #
edge $190 -1 $-1 $164 0 $164 6.283185307179586232 $135 $191 forward @7 unknown #
truecolor-adesk-attrib $-1 -1 $192 $-1 $136 -1026765620 #
vertex $-1 -1 $-1 $136 $193 #
straight-curve $-1 -1 $-1 -5.25 -9.093266739737000393 73 -0.5 -0.8660254037839999475 0 F 0 F 9.699999999998439648 #
DXID-attrib $-1 -1 $-1 $137 $70 @18 ASM_EDGE_FROM_STEP @3 748 #
loop $-1 -1 $-1 $-1 $139 $151 #
truecolor-adesk-attrib $-1 -1 $194 $-1 $140 -1026765620 #
ellipse-curve $-1 -1 $-1 -5.25 9.093266739737000393 74.20000000000000284 -0.5000000000001899592 0.8660254037843290176 0 0 0 -1.199999999999999956 1 I I #
color-adesk-attrib $-1 -1 $195 $141 $108 254 #
point $-1 -1 $-1 -5.25 9.093266739737000393 73 #
DXID-attrib $-1 -1 $-1 $146 $78 @18 ASM_EDGE_FROM_STEP @3 224 #
DXID-attrib $-1 -1 $-1 $149 $87 @18 ASM_FACE_FROM_STEP @23 servo-pot-assembly-1283 #
color-adesk-attrib $-1 -1 $196 $150 $119 254 #
truecolor-adesk-attrib $-1 -1 $197 $-1 $151 -1026765620 #
face $198 -1 $-1 $199 $189 $4 $-1 $200 forward single #
plane-surface $-1 -1 $-1 -5.25 9.093266739737000393 74.20000000000000284 -0.5000000000001899592 0.8660254037843290176 0 0 0 -1 forward_v I I I I #
coedge $-1 -1 $-1 $201 $153 $202 $203 forward $124 $-1 #
coedge $-1 -1 $-1 $204 $205 $153 $180 reversed $206 $-1 #
edge $207 -1 $-1 $182 -2.500000000000000194e-16 $208 0.1253278311680618151 $153 $209 forward @7 unknown #
truecolor-adesk-attrib $-1 -1 $210 $-1 $154 -1026765620 #
vertex $-1 -1 $-1 $154 $211 #
straight-curve $-1 -1 $-1 4 -9.799999999999999499e-16 51.70000000000000995 0 0 1 F 0 F 20 #
coedge $-1 -1 $-1 $155 $212 $213 $214 forward $124 $-1 #
coedge $-1 -1 $-1 $215 $216 $155 $186 reversed $217 $-1 #
edge $218 -1 $-1 $219 -0.1253278311680618151 $182 -2.500000000000000194e-16 $155 $220 forward @7 unknown #
DXID-attrib $-1 -1 $-1 $156 $91 @18 ASM_EDGE_FROM_STEP @4 1141 #
DXID-attrib $-1 -1 $-1 $159 $96 @18 ASM_EDGE_FROM_STEP @4 1106 #
loop $-1 -1 $-1 $-1 $161 $176 #
truecolor-adesk-attrib $-1 -1 $221 $-1 $162 -1026765620 #
ellipse-curve $-1 -1 $-1 -5.25 -9.093266739737000393 74.20000000000000284 -0.5000000000001899592 -0.8660254037843290176 -0 0 0 -1.199999999999999956 1 I I #
color-adesk-attrib $-1 -1 $222 $163 $136 254 #
point $-1 -1 $-1 -5.25 -9.093266739737000393 73 #
color-adesk-attrib $-1 -1 $223 $168 $140 254 #
DXID-attrib $-1 -1 $-1 $170 $108 @18 ASM_EDGE_FROM_STEP @4 1178 #
DXID-attrib $-1 -1 $-1 $174 $119 @18 ASM_FACE_FROM_STEP @23 servo-pot-assembly-1287 #
color-adesk-attrib $-1 -1 $224 $175 $151 254 #
truecolor-adesk-attrib $-1 -1 $225 $-1 $176 -1026765620 #
face $226 -1 $-1 $227 $217 $4 $-1 $228 forward single #
plane-surface $-1 -1 $-1 -5.25 -9.093266739737000393 74.20000000000000284 -0.5000000000001899592 -0.8660254037843290176 0 0 0 -1 forward_v I I I I #
coedge $-1 -1 $-1 $212 $178 $229 $230 forward $124 $-1 #
coedge $-1 -1 $-1 $231 $231 $178 $203 reversed $232 $-1 #
edge $233 -1 $-1 $208 0.1253278311680618151 $234 3.016264822421731218 $178 $235 forward @7 unknown #
coedge $-1 -1 $-1 $205 $179 $236 $237 forward $206 $-1 #
coedge $-1 -1 $-1 $179 $204 $238 $239 reversed $206 $-1 #
loop $-1 -1 $-1 $-1 $205 $240 #
truecolor-adesk-attrib $-1 -1 $241 $-1 $180 -1026765620 #
vertex $-1 -1 $-1 $180 $242 #
ellipse-curve $-1 -1 $-1 0 0 51.70000000000000995 0 0 1 4 0 0 1 F -2.500000000000000194e-16 F 0.1253278311680618151 #
color-adesk-attrib $-1 -1 $243 $181 $154 254 #
point $-1 -1 $-1 4 -1.000000000000000078e-15 51.70000000000000995 #
coedge $-1 -1 $-1 $184 $201 $244 $245 forward $124 $-1 #
coedge $-1 -1 $-1 $246 $246 $184 $214 reversed $247 $-1 #
edge $248 -1 $-1 $249 -3.016264822421731218 $219 -0.1253278311680618151 $184 $250 forward @7 unknown #
coedge $-1 -1 $-1 $216 $185 $251 $252 forward $217 $-1 #
coedge $-1 -1 $-1 $185 $215 $253 $254 forward $217 $-1 #
loop $-1 -1 $-1 $-1 $185 $199 #
truecolor-adesk-attrib $-1 -1 $255 $-1 $186 -1026765620 #
vertex $-1 -1 $-1 $214 $256 #
ellipse-curve $-1 -1 $-1 0 0 51.70000000000000995 0 0 1 4 0 0 1 F -0.1253278311680618151 F -2.500000000000000194e-16 #
color-adesk-attrib $-1 -1 $257 $190 $162 254 #
DXID-attrib $-1 -1 $-1 $192 $136 @18 ASM_EDGE_FROM_STEP @4 1233 #
DXID-attrib $-1 -1 $-1 $194 $140 @18 ASM_EDGE_FROM_STEP @4 1201 #
DXID-attrib $-1 -1 $-1 $197 $151 @18 ASM_FACE_FROM_STEP @23 servo-pot-assembly-1487 #
color-adesk-attrib $-1 -1 $258 $198 $176 254 #
truecolor-adesk-attrib $-1 -1 $259 $-1 $199 -1026765620 #
face $260 -1 $-1 $261 $247 $4 $-1 $262 reversed single #
plane-surface $-1 -1 $-1 -4 -0.5 51.70000000000000995 0 0 1 1 0 0 forward_v I I I I #
coedge $-1 -1 $-1 $263 $264 $201 $230 reversed $265 $-1 #
edge $266 -1 $-1 $234 3.016264822421731218 $267 3.141592653589792228 $201 $268 forward @7 unknown #
coedge $-1 -1 $-1 $202 $202 $269 $270 reversed $232 $-1 #
loop $-1 -1 $-1 $-1 $231 $271 #
truecolor-adesk-attrib $-1 -1 $272 $-1 $203 -1026765620 #
vertex $-1 -1 $-1 $203 $273 #
ellipse-curve $-1 -1 $-1 0 0 51.70000000000000995 0 0 1 4 0 0 1 F 0.1253278311680618151 F 3.016264822421731218 #
coedge $-1 -1 $-1 $253 $274 $204 $237 reversed $275 $-1 #
edge $276 -1 $-1 $182 0.4999999999999990563 $277 1 $204 $278 forward @7 unknown #
coedge $-1 -1 $-1 $279 $269 $205 $239 forward $280 $-1 #
edge $281 -1 $-1 $208 7.968626966597001093 $277 8 $205 $282 forward @7 unknown #
face $283 -1 $-1 $284 $206 $4 $-1 $285 forward single #
color-adesk-attrib $-1 -1 $286 $207 $180 254 #
point $-1 -1 $-1 3.968626966597000205 0.5 51.70000000000000995 #
DXID-attrib $-1 -1 $-1 $210 $154 @18 ASM_EDGE_FROM_STEP @4 1291 #
coedge $-1 -1 $-1 $287 $288 $212 $245 reversed $289 $-1 #
edge $290 -1 $-1 $267 -3.141592653589794004 $249 -3.016264822421731218 $212 $291 forward @7 unknown #
coedge $-1 -1 $-1 $213 $213 $292 $293 forward $247 $-1 #
loop $-1 -1 $-1 $-1 $213 $227 #
truecolor-adesk-attrib $-1 -1 $294 $-1 $214 -1026765620 #
vertex $-1 -1 $-1 $245 $295 #
ellipse-curve $-1 -1 $-1 0 0 51.70000000000000995 0 0 1 4 0 0 1 F -3.016264822421731218 F -0.1253278311680618151 #
coedge $-1 -1 $-1 $292 $296 $215 $252 reversed $297 $-1 #
edge $298 -1 $-1 $219 7.968626966597001093 $299 8 $215 $300 forward @7 unknown #
coedge $-1 -1 $-1 $301 $236 $216 $254 reversed $275 $-1 #
edge $302 -1 $-1 $299 0 $182 0.4999999999999990563 $216 $303 forward @7 unknown #
color-adesk-attrib $-1 -1 $304 $218 $186 254 #
point $-1 -1 $-1 3.968626966597000205 -0.5 51.70000000000000995 #
DXID-attrib $-1 -1 $-1 $221 $162 @18 ASM_EDGE_FROM_STEP @4 1256 #
DXID-attrib $-1 -1 $-1 $225 $176 @18 ASM_FACE_FROM_STEP @23 servo-pot-assembly-1491 #
color-adesk-attrib $-1 -1 $305 $226 $199 254 #
truecolor-adesk-attrib $-1 -1 $306 $-1 $227 -1026765620 #
face $307 -1 $-1 $308 $289 $4 $-1 $309 forward single #
plane-surface $-1 -1 $-1 0 0 51.70000000000000995 0 0 1 1 0 0 forward_v I I I I #
coedge $-1 -1 $-1 $264 $229 $310 $311 reversed $265 $-1 #
coedge $-1 -1 $-1 $229 $263 $312 $313 reversed $265 $-1 #
loop $-1 -1 $-1 $-1 $264 $308 #
truecolor-adesk-attrib $-1 -1 $314 $-1 $230 -1026765620 #
vertex $-1 -1 $-1 $230 $315 #
ellipse-curve $-1 -1 $-1 0 0 51.70000000000000995 0 0 1 4 0 0 1 F 3.016264822421731218 F 3.141592653589792228 #
coedge $-1 -1 $-1 $238 $310 $231 $270 forward $280 $-1 #
edge $316 -1 $-1 $234 0.03137303340299990584 $208 7.968626966597001093 $231 $317 forward @7 unknown #
face $318 -1 $-1 $240 $232 $4 $-1 $319 reversed single #
color-adesk-attrib $-1 -1 $320 $233 $203 254 #
point $-1 -1 $-1 -3.968626966597000205 0.5 51.70000000000000995 #
coedge $-1 -1 $-1 $236 $321 $279 $322 forward $275 $-1 #
loop $-1 -1 $-1 $-1 $301 $284 #
truecolor-adesk-attrib $-1 -1 $323 $-1 $237 -1026765620 #
vertex $-1 -1 $-1 $239 $324 #
straight-curve $-1 -1 $-1 4 -0.5 51.70000000000000995 0 1 0 F 0.4999999999999990563 F 1 #
coedge $-1 -1 $-1 $325 $238 $274 $322 reversed $280 $-1 #
loop $-1 -1 $-1 $-1 $325 $326 #
truecolor-adesk-attrib $-1 -1 $327 $-1 $239 -1026765620 #
straight-curve $-1 -1 $-1 -4 0.5 51.70000000000000995 1 0 0 F 7.968626966597001093 F 8 #
truecolor-adesk-attrib $-1 -1 $328 $-1 $240 -1026765620 #
face $329 -1 $-1 $330 $275 $4 $-1 $331 forward single #
plane-surface $-1 -1 $-1 -4 -0.5 51.70000000000000995 0 0 1 1 0 0 forward_v I I I I #
DXID-attrib $-1 -1 $-1 $241 $180 @18 ASM_EDGE_FROM_STEP @4 1316 #
coedge $-1 -1 $-1 $288 $244 $332 $333 reversed $289 $-1 #
coedge $-1 -1 $-1 $244 $287 $334 $335 forward $289 $-1 #
loop $-1 -1 $-1 $-1 $287 $261 #
truecolor-adesk-attrib $-1 -1 $336 $-1 $245 -1026765620 #
ellipse-curve $-1 -1 $-1 0 0 51.70000000000000995 0 0 1 4 0 0 1 F -3.141592653589794004 F -3.016264822421731218 #
coedge $-1 -1 $-1 $334 $251 $246 $293 reversed $297 $-1 #
edge $337 -1 $-1 $249 0.03137303340299990584 $219 7.968626966597001093 $246 $338 forward @7 unknown #
color-adesk-attrib $-1 -1 $339 $248 $214 254 #
point $-1 -1 $-1 -3.968626966597000205 -0.5 51.70000000000000995 #
coedge $-1 -1 $-1 $251 $340 $301 $341 forward $297 $-1 #
loop $-1 -1 $-1 $-1 $340 $330 #
truecolor-adesk-attrib $-1 -1 $342 $-1 $252 -1026765620 #
vertex $-1 -1 $-1 $252 $343 #
straight-curve $-1 -1 $-1 -4 -0.5 51.70000000000000995 1 0 0 F 7.968626966597001093 F 8 #
coedge $-1 -1 $-1 $321 $253 $296 $341 reversed $275 $-1 #
truecolor-adesk-attrib $-1 -1 $344 $-1 $254 -1026765620 #
straight-curve $-1 -1 $-1 4 -0.5 51.70000000000000995 0 1 0 F 0 F 0.4999999999999990563 #
DXID-attrib $-1 -1 $-1 $255 $186 @18 ASM_EDGE_FROM_STEP @4 1461 #
DXID-attrib $-1 -1 $-1 $259 $199 @18 ASM_FACE_FROM_STEP @23 servo-pot-assembly-1495 #
color-adesk-attrib $-1 -1 $345 $260 $227 254 #
truecolor-adesk-attrib $-1 -1 $346 $-1 $261 -1026765620 #
face $347 -1 $-1 $271 $265 $4 $-1 $348 forward single #
plane-surface $-1 -1 $-1 -4 -0.5 51.70000000000000995 0 0 1 1 0 0 forward_v I I I I #
coedge $-1 -1 $-1 $269 $349 $263 $311 forward $280 $-1 #
edge $350 -1 $-1 $351 0 $234 0.03137303340299990584 $263 $352 forward @7 unknown #
coedge $-1 -1 $-1 $353 $332 $264 $313 forward $354 $-1 #
edge $355 -1 $-1 $267 0.5000000000000039968 $351 1 $264 $356 forward @7 unknown #
color-adesk-attrib $-1 -1 $357 $266 $230 254 #
point $-1 -1 $-1 -4 4.000000000000000311e-15 51.70000000000000995 #
truecolor-adesk-attrib $-1 -1 $358 $-1 $270 -1026765620 #
straight-curve $-1 -1 $-1 -4 0.5 51.70000000000000995 1 0 0 F 0.03137303340299990584 F 7.968626966597001093 #
truecolor-adesk-attrib $-1 -1 $359 $-1 $271 -1026765620 #
plane-surface $-1 -1 $-1 0 0 51.70000000000000995 0 0 1 1 0 0 forward_v I I I I #
DXID-attrib $-1 -1 $-1 $272 $203 @18 ASM_EDGE_FROM_STEP @4 1345 #
coedge $-1 -1 $-1 $274 $301 $360 $361 forward $275 $-1 #
edge $362 -1 $-1 $363 0 $277 2.999999999999998224 $274 $364 forward @7 unknown #
color-adesk-attrib $-1 -1 $365 $276 $237 254 #
point $-1 -1 $-1 4 0.5 51.70000000000000995 #
coedge $-1 -1 $-1 $349 $279 $366 $367 reversed $280 $-1 #
face $368 -1 $-1 $369 $280 $4 $-1 $370 forward single #
color-adesk-attrib $-1 -1 $371 $281 $239 254 #
color-adesk-attrib $-1 -1 $372 $283 $240 254 #
truecolor-adesk-attrib $-1 -1 $373 $-1 $284 -1026765620 #
face $374 -1 $-1 $375 $297 $4 $-1 $376 reversed single #
plane-surface $-1 -1 $-1 4 -0.5 48.70000000000000995 1 0 0 0 0 1 forward_v I I I I #
coedge $-1 -1 $-1 $312 $377 $287 $333 forward $354 $-1 #
edge $378 -1 $-1 $379 0 $267 0.5000000000000039968 $287 $380 forward @7 unknown #
coedge $-1 -1 $-1 $381 $292 $288 $335 reversed $297 $-1 #
edge $382 -1 $-1 $379 0 $249 0.03137303340299990584 $288 $383 forward @7 unknown #
color-adesk-attrib $-1 -1 $384 $290 $245 254 #
truecolor-adesk-attrib $-1 -1 $385 $-1 $293 -1026765620 #
straight-curve $-1 -1 $-1 -4 -0.5 51.70000000000000995 1 0 0 F 0.03137303340299990584 F 7.968626966597001093 #
DXID-attrib $-1 -1 $-1 $294 $214 @18 ASM_EDGE_FROM_STEP @4 1432 #
coedge $-1 -1 $-1 $296 $381 $386 $387 forward $297 $-1 #
edge $388 -1 $-1 $389 0 $299 2.999999999999998224 $301 $390 forward @7 unknown #
color-adesk-attrib $-1 -1 $391 $298 $252 254 #
point $-1 -1 $-1 4 -0.5 51.70000000000000995 #
color-adesk-attrib $-1 -1 $392 $302 $254 254 #
DXID-attrib $-1 -1 $-1 $306 $227 @18 ASM_FACE_FROM_STEP @23 servo-pot-assembly-1553 #
color-adesk-attrib $-1 -1 $393 $307 $261 254 #
truecolor-adesk-attrib $-1 -1 $394 $-1 $308 -1026765620 #
plane-surface $-1 -1 $-1 -4 -0.5 51.70000000000000995 0 0 1 1 0 0 forward_v I I I I #
coedge $-1 -1 $-1 $310 $325 $353 $395 forward $280 $-1 #
truecolor-adesk-attrib $-1 -1 $396 $-1 $311 -1026765620 #
vertex $-1 -1 $-1 $313 $397 #
straight-curve $-1 -1 $-1 -4 0.5 51.70000000000000995 1 0 0 F 0 F 0.03137303340299990584 #
coedge $-1 -1 $-1 $398 $312 $349 $395 reversed $354 $-1 #
loop $-1 -1 $-1 $-1 $377 $375 #
truecolor-adesk-attrib $-1 -1 $399 $-1 $313 -1026765620 #
straight-curve $-1 -1 $-1 -4 -0.5 51.70000000000000995 0 1 0 F 0.5000000000000039968 F 1 #
DXID-attrib $-1 -1 $-1 $314 $230 @18 ASM_EDGE_FROM_STEP @4 1374 #
color-adesk-attrib $-1 -1 $400 $316 $270 254 #
color-adesk-attrib $-1 -1 $401 $318 $271 254 #
coedge $-1 -1 $-1 $386 $366 $321 $361 reversed $402 $-1 #
edge $403 -1 $-1 $389 0 $363 1 $321 $404 forward @7 unknown #
truecolor-adesk-attrib $-1 -1 $405 $-1 $322 -1026765620 #
vertex $-1 -1 $-1 $361 $406 #
straight-curve $-1 -1 $-1 4 0.5 48.70000000000000995 0 0 1 F 0 F 2.999999999999998224 #
DXID-attrib $-1 -1 $-1 $323 $237 @18 ASM_EDGE_FROM_STEP @4 1737 #
coedge $-1 -1 $-1 $360 $407 $325 $367 forward $402 $-1 #
edge $408 -1 $-1 $409 0 $363 8 $325 $410 forward @7 unknown #
truecolor-adesk-attrib $-1 -1 $411 $-1 $326 -1026765620 #
face $412 -1 $-1 $-1 $402 $4 $-1 $413 reversed single #
plane-surface $-1 -1 $-1 -4 0.5 48.70000000000000995 0 1 0 0 0 1 forward_v I I I I #
DXID-attrib $-1 -1 $-1 $327 $239 @18 ASM_EDGE_FROM_STEP @4 1713 #
DXID-attrib $-1 -1 $-1 $328 $240 @18 ASM_FACE_FROM_STEP @23 servo-pot-assembly-1709 #
color-adesk-attrib $-1 -1 $414 $329 $284 254 #
truecolor-adesk-attrib $-1 -1 $415 $-1 $330 -1026765620 #
face $416 -1 $-1 $326 $354 $4 $-1 $417 reversed single #
plane-surface $-1 -1 $-1 -4 -0.5 48.70000000000000995 0 1 0 0 0 1 forward_v I I I I #
coedge $-1 -1 $-1 $332 $398 $381 $418 forward $354 $-1 #
truecolor-adesk-attrib $-1 -1 $419 $-1 $333 -1026765620 #
vertex $-1 -1 $-1 $333 $420 #
straight-curve $-1 -1 $-1 -4 -0.5 51.70000000000000995 0 1 0 F 0 F 0.5000000000000039968 #
coedge $-1 -1 $-1 $340 $334 $377 $418 reversed $297 $-1 #
truecolor-adesk-attrib $-1 -1 $421 $-1 $335 -1026765620 #
straight-curve $-1 -1 $-1 -4 -0.5 51.70000000000000995 1 0 0 F 0 F 0.03137303340299990584 #
DXID-attrib $-1 -1 $-1 $336 $245 @18 ASM_EDGE_FROM_STEP @4 1403 #
color-adesk-attrib $-1 -1 $422 $337 $293 254 #
coedge $-1 -1 $-1 $407 $360 $340 $387 reversed $402 $-1 #
edge $423 -1 $-1 $424 0 $389 8 $340 $425 forward @7 unknown #
truecolor-adesk-attrib $-1 -1 $426 $-1 $341 -1026765620 #
vertex $-1 -1 $-1 $341 $427 #
straight-curve $-1 -1 $-1 4 -0.5 48.70000000000000995 0 0 1 F 0 F 2.999999999999998224 #
DXID-attrib $-1 -1 $-1 $342 $252 @18 ASM_EDGE_FROM_STEP @4 1500 #
DXID-attrib $-1 -1 $-1 $344 $254 @18 ASM_EDGE_FROM_STEP @4 1528 #
DXID-attrib $-1 -1 $-1 $346 $261 @18 ASM_FACE_FROM_STEP @23 servo-pot-assembly-1578 #
color-adesk-attrib $-1 -1 $428 $347 $308 254 #
edge $429 -1 $-1 $409 0 $351 2.999999999999998224 $353 $430 forward @7 unknown #
color-adesk-attrib $-1 -1 $431 $350 $311 254 #
point $-1 -1 $-1 -4 0.5 51.70000000000000995 #
coedge $-1 -1 $-1 $377 $353 $407 $432 reversed $354 $-1 #
color-adesk-attrib $-1 -1 $433 $355 $313 254 #
DXID-attrib $-1 -1 $-1 $358 $270 @18 ASM_EDGE_FROM_STEP @4 1688 #
DXID-attrib $-1 -1 $-1 $359 $271 @18 ASM_FACE_FROM_STEP @23 servo-pot-assembly-1684 #
loop $-1 -1 $-1 $-1 $407 $369 #
truecolor-adesk-attrib $-1 -1 $434 $-1 $361 -1026765620 #
straight-curve $-1 -1 $-1 4 -0.5 48.70000000000000995 0 1 0 F 0 F 1 #
color-adesk-attrib $-1 -1 $435 $362 $322 254 #
point $-1 -1 $-1 4 0.5 48.70000000000000995 #
coedge $-1 -1 $-1 $366 $386 $398 $432 forward $402 $-1 #
truecolor-adesk-attrib $-1 -1 $436 $-1 $367 -1026765620 #
vertex $-1 -1 $-1 $395 $437 #
straight-curve $-1 -1 $-1 -4 0.5 48.70000000000000995 1 0 0 F 0 F 8 #
color-adesk-attrib $-1 -1 $438 $368 $326 254 #
truecolor-adesk-attrib $-1 -1 $439 $-1 $369 -1026765620 #
plane-surface $-1 -1 $-1 -4 -0.5 48.70000000000000995 0 0 1 1 0 0 forward_v I I I I #
DXID-attrib $-1 -1 $-1 $373 $284 @18 ASM_FACE_FROM_STEP @23 servo-pot-assembly-1757 #
color-adesk-attrib $-1 -1 $440 $374 $330 254 #
truecolor-adesk-attrib $-1 -1 $441 $-1 $375 -1026765620 #
plane-surface $-1 -1 $-1 -4 -0.5 48.70000000000000995 1 0 0 0 0 1 forward_v I I I I #
edge $442 -1 $-1 $424 0 $379 2.999999999999998224 $381 $443 forward @7 unknown #
color-adesk-attrib $-1 -1 $444 $378 $333 254 #
point $-1 -1 $-1 -4 -0.5 51.70000000000000995 #
color-adesk-attrib $-1 -1 $445 $382 $335 254 #
DXID-attrib $-1 -1 $-1 $385 $293 @18 ASM_EDGE_FROM_STEP @4 1558 #
truecolor-adesk-attrib $-1 -1 $446 $-1 $387 -1026765620 #
vertex $-1 -1 $-1 $387 $447 #
straight-curve $-1 -1 $-1 -4 -0.5 48.70000000000000995 1 0 0 F 0 F 8 #
color-adesk-attrib $-1 -1 $448 $388 $341 254 #
point $-1 -1 $-1 4 -0.5 48.70000000000000995 #
DXID-attrib $-1 -1 $-1 $394 $308 @18 ASM_FACE_FROM_STEP @23 servo-pot-assembly-1631 #
truecolor-adesk-attrib $-1 -1 $449 $-1 $395 -1026765620 #
straight-curve $-1 -1 $-1 -4 0.5 48.70000000000000995 0 0 1 F 0 F 2.999999999999998224 #
DXID-attrib $-1 -1 $-1 $396 $311 @18 ASM_EDGE_FROM_STEP @4 1659 #
edge $450 -1 $-1 $424 0 $409 1 $398 $451 forward @7 unknown #
DXID-attrib $-1 -1 $-1 $399 $313 @18 ASM_EDGE_FROM_STEP @4 1635 #
color-adesk-attrib $-1 -1 $452 $403 $361 254 #
DXID-attrib $-1 -1 $-1 $405 $322 @18 ASM_EDGE_FROM_STEP @4 1812 #
color-adesk-attrib $-1 -1 $453 $408 $367 254 #
point $-1 -1 $-1 -4 0.5 48.70000000000000995 #
DXID-attrib $-1 -1 $-1 $411 $326 @18 ASM_FACE_FROM_STEP @23 servo-pot-assembly-1935 #
color-adesk-attrib $-1 -1 $454 $412 $369 254 #
DXID-attrib $-1 -1 $-1 $415 $330 @18 ASM_FACE_FROM_STEP @23 servo-pot-assembly-1834 #
color-adesk-attrib $-1 -1 $455 $416 $375 254 #
truecolor-adesk-attrib $-1 -1 $456 $-1 $418 -1026765620 #
straight-curve $-1 -1 $-1 -4 -0.5 48.70000000000000995 0 0 1 F 0 F 2.999999999999998224 #
DXID-attrib $-1 -1 $-1 $419 $333 @18 ASM_EDGE_FROM_STEP @4 1582 #
DXID-attrib $-1 -1 $-1 $421 $335 @18 ASM_EDGE_FROM_STEP @4 1610 #
color-adesk-attrib $-1 -1 $457 $423 $387 254 #
point $-1 -1 $-1 -4 -0.5 48.70000000000000995 #
DXID-attrib $-1 -1 $-1 $426 $341 @18 ASM_EDGE_FROM_STEP @4 1761 #
color-adesk-attrib $-1 -1 $458 $429 $395 254 #
truecolor-adesk-attrib $-1 -1 $459 $-1 $432 -1026765620 #
straight-curve $-1 -1 $-1 -4 -0.5 48.70000000000000995 0 1 0 F 0 F 1 #
DXID-attrib $-1 -1 $-1 $434 $361 @18 ASM_EDGE_FROM_STEP @4 1784 #
DXID-attrib $-1 -1 $-1 $436 $367 @18 ASM_EDGE_FROM_STEP @4 1939 #
DXID-attrib $-1 -1 $-1 $439 $369 @18 ASM_FACE_FROM_STEP @23 servo-pot-assembly-1964 #
DXID-attrib $-1 -1 $-1 $441 $375 @18 ASM_FACE_FROM_STEP @23 servo-pot-assembly-1885 #
color-adesk-attrib $-1 -1 $460 $442 $418 254 #
DXID-attrib $-1 -1 $-1 $446 $387 @18 ASM_EDGE_FROM_STEP @4 1838 #
DXID-attrib $-1 -1 $-1 $449 $395 @18 ASM_EDGE_FROM_STEP @4 1913 #
color-adesk-attrib $-1 -1 $461 $450 $432 254 #
DXID-attrib $-1 -1 $-1 $456 $418 @18 ASM_EDGE_FROM_STEP @4 1861 #
DXID-attrib $-1 -1 $-1 $459 $432 @18 ASM_EDGE_FROM_STEP @4 1890 #
