700 513 1 0         
16 Autodesk AutoCAD 20 ASM 229.2.0.65535 NT 24 Wed Mar  6 04:07:01 2024 
1 9.999999999999999547e-07 1.000000000000000036e-10 
body $1 -1 $-1 $2 $-1 $3 #
DXID-attrib $-1 -1 $-1 $-1 $0 @18 ASM_BODY_FROM_STEP @83 E35BD4D70F2D8477E7067E53B40EE7B6F627CE5D|:|C3217815505396D37B4FFA6A288CA0B80160386B #
lump $-1 -1 $-1 $-1 $4 $0 #
transform $-1 -1 1 0 0 0 1 0 0 0 1 0 0 0 1 no_rotate no_reflect no_shear #
shell $-1 -1 $-1 $-1 $-1 $5 $-1 $2 #
face $6 -1 $-1 $7 $8 $4 $-1 $9 forward single #
truecolor-adesk-attrib $-1 -1 $10 $-1 $5 -1027095875 #
face $11 -1 $-1 $12 $13 $4 $-1 $14 forward single #
loop $-1 -1 $-1 $-1 $15 $5 #
plane-surface $-1 -1 $-1 0 11 0 0 1 0 0 0 1 forward_v I I I I #
color-adesk-attrib $-1 -1 $16 $6 $5 9 #
truecolor-adesk-attrib $-1 -1 $17 $-1 $7 -1027095875 #
face $18 -1 $-1 $19 $20 $4 $-1 $21 reversed single #
loop $-1 -1 $-1 $-1 $22 $7 #
plane-surface $-1 -1 $-1 0 11 0 0 1 0 0 0 1 forward_v I I I I #
coedge $-1 -1 $-1 $23 $24 $25 $26 forward $8 $-1 #
DXID-attrib $-1 -1 $-1 $10 $5 @18 ASM_FACE_FROM_STEP @9 Steel-126 #
color-adesk-attrib $-1 -1 $27 $11 $7 9 #
truecolor-adesk-attrib $-1 -1 $28 $-1 $12 -1027095875 #
face $29 -1 $-1 $30 $31 $4 $-1 $32 reversed single #
loop $-1 -1 $-1 $-1 $33 $12 #
plane-surface $-1 -1 $-1 45.00000000000001421 11 -70 -1 0 4.956352788505162775e-17 4.956352788505163391e-17 0 1 forward_v I I I I #
coedge $-1 -1 $-1 $34 $35 $36 $37 reversed $13 $-1 #
coedge $-1 -1 $-1 $38 $15 $39 $40 forward $8 $-1 #
coedge $-1 -1 $-1 $15 $41 $42 $43 forward $8 $-1 #
coedge $-1 -1 $-1 $44 $45 $15 $26 reversed $46 $-1 #
edge $47 -1 $-1 $48 0.03499999999999994782 $49 0.05499999999999995864 $15 $50 forward @7 unknown #
DXID-attrib $-1 -1 $-1 $17 $7 @18 ASM_FACE_FROM_STEP @8 Steel-27 #
color-adesk-attrib $-1 -1 $51 $18 $12 9 #
truecolor-adesk-attrib $-1 -1 $52 $-1 $19 -1027095875 #
face $53 -1 $-1 $54 $55 $4 $-1 $56 reversed single #
loop $-1 -1 $-1 $-1 $57 $19 #
plane-surface $-1 -1 $-1 -44.99999999999999289 11 -70 0 0 1 1 0 0 forward_v I I I I #
coedge $-1 -1 $-1 $58 $59 $60 $61 forward $20 $-1 #
coedge $-1 -1 $-1 $62 $22 $63 $64 forward $13 $-1 #
coedge $-1 -1 $-1 $22 $62 $65 $66 forward $13 $-1 #
coedge $-1 -1 $-1 $67 $68 $22 $37 forward $69 $-1 #
edge $70 -1 $-1 $71 -0.07000000000000000666 $72 0.07000000000000000666 $22 $73 forward @7 unknown #
coedge $-1 -1 $-1 $74 $23 $75 $76 reversed $8 $-1 #
coedge $-1 -1 $-1 $77 $78 $23 $40 reversed $79 $-1 #
edge $80 -1 $-1 $49 -1.443289932012703503e-15 $81 1.570796326794896558 $23 $82 forward @7 unknown #
coedge $-1 -1 $-1 $24 $83 $84 $85 reversed $8 $-1 #
coedge $-1 -1 $-1 $86 $87 $24 $43 reversed $88 $-1 #
edge $89 -1 $-1 $90 -1.570796326794896558 $48 -1.332267629550187849e-15 $24 $91 forward @7 unknown #
coedge $-1 -1 $-1 $92 $25 $87 $93 forward $46 $-1 #
coedge $-1 -1 $-1 $25 $94 $77 $95 forward $46 $-1 #
loop $-1 -1 $-1 $-1 $94 $54 #
truecolor-adesk-attrib $-1 -1 $96 $-1 $26 -1027095875 #
vertex $-1 -1 $-1 $26 $97 #
vertex $-1 -1 $-1 $26 $98 #
straight-curve $-1 -1 $-1 -44.99999999999996447 11 70 1000 0 0 F 0.03499999999999994782 F 0.05499999999999995864 #
DXID-attrib $-1 -1 $-1 $28 $12 @18 ASM_FACE_FROM_STEP @8 Steel-38 #
color-adesk-attrib $-1 -1 $99 $29 $19 9 #
truecolor-adesk-attrib $-1 -1 $100 $-1 $30 -1027095875 #
face $101 -1 $-1 $102 $46 $4 $-1 $103 reversed single #
loop $-1 -1 $-1 $-1 $104 $30 #
plane-surface $-1 -1 $-1 -44.99999999999999289 11 -70 1 0 -1.486905836551548832e-16 -1.486905836551548832e-16 0 -1 forward_v I I I I #
coedge $-1 -1 $-1 $105 $106 $107 $108 reversed $31 $-1 #
coedge $-1 -1 $-1 $109 $33 $110 $111 reversed $20 $-1 #
coedge $-1 -1 $-1 $33 $109 $112 $113 forward $20 $-1 #
coedge $-1 -1 $-1 $114 $115 $33 $61 reversed $116 $-1 #
edge $117 -1 $-1 $118 -0.1400000000000000133 $119 -0 $33 $120 forward @7 unknown #
coedge $-1 -1 $-1 $35 $34 $109 $121 forward $13 $-1 #
coedge $-1 -1 $-1 $122 $112 $34 $64 reversed $46 $-1 #
edge $123 -1 $-1 $71 0.0855243029588246273 $124 0.08999999999999999667 $34 $125 forward @7 unknown #
coedge $-1 -1 $-1 $110 $126 $35 $66 reversed $31 $-1 #
edge $127 -1 $-1 $128 -0.08999999999999999667 $72 -0.08552430295882468281 $35 $129 forward @7 unknown #
coedge $-1 -1 $-1 $130 $36 $126 $131 forward $69 $-1 #
coedge $-1 -1 $-1 $36 $130 $122 $132 reversed $69 $-1 #
loop $-1 -1 $-1 $-1 $36 $133 #
truecolor-adesk-attrib $-1 -1 $134 $-1 $37 -1027095875 #
vertex $-1 -1 $-1 $37 $135 #
vertex $-1 -1 $-1 $37 $136 #
straight-curve $-1 -1 $-1 40.52430295882469125 11 0 0 0 -1000 F -0.07000000000000000666 F 0.07000000000000000666 #
coedge $-1 -1 $-1 $107 $38 $137 $138 forward $8 $-1 #
coedge $-1 -1 $-1 $139 $140 $38 $76 forward $141 $-1 #
edge $142 -1 $-1 $143 -0.05999999999999999778 $81 0.06000000000000001166 $38 $144 forward @7 unknown #
coedge $-1 -1 $-1 $145 $39 $45 $95 reversed $79 $-1 #
coedge $-1 -1 $-1 $39 $145 $139 $146 reversed $79 $-1 #
loop $-1 -1 $-1 $-1 $145 $147 #
truecolor-adesk-attrib $-1 -1 $148 $-1 $40 -1027095875 #
vertex $-1 -1 $-1 $40 $149 #
ellipse-curve $-1 -1 $-1 10.00000000000000178 11 60.00000000000000711 0 1 0 0 0 10.00000000000000178 1 F -1.443289932012703503e-15 F 1.570796326794896558 #
coedge $-1 -1 $-1 $41 $107 $150 $151 forward $8 $-1 #
coedge $-1 -1 $-1 $152 $153 $41 $85 forward $154 $-1 #
edge $155 -1 $-1 $90 -0.06000000000000001166 $156 0.05999999999999999778 $41 $157 forward @7 unknown #
coedge $-1 -1 $-1 $158 $42 $153 $159 reversed $88 $-1 #
coedge $-1 -1 $-1 $42 $158 $44 $93 reversed $88 $-1 #
loop $-1 -1 $-1 $-1 $42 $160 #
truecolor-adesk-attrib $-1 -1 $161 $-1 $43 -1027095875 #
vertex $-1 -1 $-1 $85 $162 #
ellipse-curve $-1 -1 $-1 -10.00000000000000178 11 60.00000000000000711 0 1 0 0 0 10.00000000000000178 1 F -1.570796326794896558 F -1.332267629550187849e-15 #
coedge $-1 -1 $-1 $163 $44 $164 $165 forward $46 $-1 #
edge $166 -1 $-1 $48 1.11022302462515614e-17 $167 0.008500000000000014488 $44 $168 forward @14 tangent_not_g2 #
coedge $-1 -1 $-1 $45 $122 $169 $170 forward $46 $-1 #
edge $171 -1 $-1 $172 -0.008499999999999984998 $49 1.554312234475218688e-17 $45 $173 forward @14 tangent_not_g2 #
color-adesk-attrib $-1 -1 $174 $47 $26 9 #
point $-1 -1 $-1 -10.00000000000001599 11 70 #
point $-1 -1 $-1 9.999999999999987566 11 70 #
DXID-attrib $-1 -1 $-1 $52 $19 @18 ASM_FACE_FROM_STEP @9 Steel-507 #
color-adesk-attrib $-1 -1 $175 $53 $30 9 #
truecolor-adesk-attrib $-1 -1 $176 $-1 $54 -1027095875 #
face $177 -1 $-1 $178 $179 $4 $-1 $180 forward single #
plane-surface $-1 -1 $-1 -44.99999999999996447 11 70 0 0 -1 -1 0 0 forward_v I I I I #
coedge $-1 -1 $-1 $181 $182 $183 $184 forward $55 $-1 #
coedge $-1 -1 $-1 $185 $57 $186 $187 forward $31 $-1 #
coedge $-1 -1 $-1 $57 $188 $189 $190 forward $31 $-1 #
coedge $-1 -1 $-1 $83 $74 $57 $108 forward $8 $-1 #
edge $191 -1 $-1 $192 -0.05499999999999997946 $193 -0.03499999999999997558 $107 $194 forward @7 unknown #
coedge $-1 -1 $-1 $59 $58 $62 $121 reversed $20 $-1 #
coedge $-1 -1 $-1 $195 $65 $58 $111 forward $31 $-1 #
edge $196 -1 $-1 $128 -0 $119 0.0110000000000000011 $58 $197 forward @7 unknown #
coedge $-1 -1 $-1 $63 $198 $59 $113 reversed $46 $-1 #
edge $199 -1 $-1 $124 -0 $118 0.0110000000000000011 $59 $200 forward @7 unknown #
coedge $-1 -1 $-1 $183 $60 $198 $201 reversed $116 $-1 #
coedge $-1 -1 $-1 $60 $183 $195 $202 reversed $116 $-1 #
loop $-1 -1 $-1 $-1 $60 $178 #
truecolor-adesk-attrib $-1 -1 $203 $-1 $61 -1027095875 #
vertex $-1 -1 $-1 $61 $204 #
vertex $-1 -1 $-1 $61 $205 #
straight-curve $-1 -1 $-1 45.00000000000001421 0 -70 -4.956352788505162676e-14 -0 -1000 F -0.1400000000000000133 F -0 #
edge $206 -1 $-1 $124 -0.1400000000000000133 $128 -0 $62 $207 forward @7 unknown #
coedge $-1 -1 $-1 $94 $63 $68 $132 forward $46 $-1 #
truecolor-adesk-attrib $-1 -1 $208 $-1 $64 -1027095875 #
vertex $-1 -1 $-1 $64 $209 #
straight-curve $-1 -1 $-1 -44.99999999999996447 11 70 1000 0 0 F 0.0855243029588246273 F 0.08999999999999999667 #
coedge $-1 -1 $-1 $65 $185 $67 $131 reversed $31 $-1 #
truecolor-adesk-attrib $-1 -1 $210 $-1 $66 -1027095875 #
vertex $-1 -1 $-1 $121 $211 #
straight-curve $-1 -1 $-1 -44.99999999999999289 11 -70 -1000 -0 -0 F -0.08999999999999999667 F -0.08552430295882468281 #
coedge $-1 -1 $-1 $68 $67 $212 $213 reversed $69 $-1 #
edge $214 -1 $-1 $72 -0.008500000000000000611 $215 -0 $126 $216 forward @7 unknown #
edge $217 -1 $-1 $71 0 $218 0.00850000000000000408 $122 $219 forward @7 unknown #
face $220 -1 $-1 $147 $69 $4 $-1 $221 reversed single #
color-adesk-attrib $-1 -1 $222 $70 $37 9 #
point $-1 -1 $-1 40.52430295882466282 11 70 #
point $-1 -1 $-1 40.52430295882469125 10.99999999999999645 -70 #
coedge $-1 -1 $-1 $223 $186 $74 $138 reversed $224 $-1 #
edge $225 -1 $-1 $143 1.570796326794896558 $192 3.141592653589794448 $74 $226 forward @7 unknown #
coedge $-1 -1 $-1 $227 $75 $78 $146 forward $141 $-1 #
coedge $-1 -1 $-1 $75 $227 $223 $228 forward $141 $-1 #
loop $-1 -1 $-1 $-1 $75 $229 #
truecolor-adesk-attrib $-1 -1 $230 $-1 $76 -1027095875 #
vertex $-1 -1 $-1 $76 $231 #
straight-curve $-1 -1 $-1 20.00000000000000355 11 0 0 0 1000 F -0.05999999999999999778 F 0.06000000000000001166 #
coedge $-1 -1 $-1 $78 $77 $232 $233 reversed $79 $-1 #
edge $234 -1 $-1 $81 0.00323618728653463951 $235 0.01173618728653464012 $139 $236 forward @14 tangent_not_g2 #
face $237 -1 $-1 $160 $79 $4 $-1 $238 forward single #
color-adesk-attrib $-1 -1 $239 $80 $40 9 #
point $-1 -1 $-1 20.00000000000000355 11 60.00000000000000711 #
coedge $-1 -1 $-1 $189 $240 $83 $151 reversed $241 $-1 #
edge $242 -1 $-1 $193 -3.141592653589791784 $156 -1.570796326794896558 $83 $243 forward @7 unknown #
coedge $-1 -1 $-1 $244 $84 $240 $245 forward $154 $-1 #
coedge $-1 -1 $-1 $84 $244 $86 $159 forward $154 $-1 #
loop $-1 -1 $-1 $-1 $244 $246 #
truecolor-adesk-attrib $-1 -1 $247 $-1 $85 -1027095875 #
vertex $-1 -1 $-1 $151 $248 #
straight-curve $-1 -1 $-1 -20.00000000000000355 11 0 0 0 -1000 F -0.06000000000000001166 F 0.05999999999999999778 #
coedge $-1 -1 $-1 $87 $86 $249 $250 reversed $88 $-1 #
edge $251 -1 $-1 $252 -0.01173618728653464012 $90 -0.00323618728653463951 $153 $253 forward @14 tangent_not_g2 #
face $254 -1 $-1 $255 $88 $4 $-1 $256 forward single #
color-adesk-attrib $-1 -1 $257 $89 $43 9 #
point $-1 -1 $-1 -20.00000000000000355 11 60.00000000000000711 #
coedge $-1 -1 $-1 $258 $92 $259 $260 forward $46 $-1 #
coedge $-1 -1 $-1 $249 $261 $92 $165 reversed $262 $-1 #
edge $263 -1 $-1 $167 -0.0349999999999999617 $264 -0.00447569704117527483 $92 $265 forward @7 unknown #
truecolor-adesk-attrib $-1 -1 $266 $-1 $93 -1027095875 #
vertex $-1 -1 $-1 $93 $267 #
straight-curve $-1 -1 $-1 -10.00000000000000178 11.00000000000001243 70 2.956195966584683353e-13 -1000 0 F 1.11022302462515614e-17 F 0.008500000000000014488 #
coedge $-1 -1 $-1 $212 $232 $94 $170 reversed $268 $-1 #
edge $269 -1 $-1 $218 -0.08552430295882466893 $172 -0.05499999999999996558 $94 $270 forward @7 unknown #
truecolor-adesk-attrib $-1 -1 $271 $-1 $95 -1027095875 #
vertex $-1 -1 $-1 $170 $272 #
straight-curve $-1 -1 $-1 10.00000000000000178 10.99999999999998579 70 2.956195966584683353e-13 1000 0 F -0.008499999999999984998 F 1.554312234475218688e-17 #
DXID-attrib $-1 -1 $-1 $96 $26 @18 ASM_EDGE_FROM_STEP @3 131 #
DXID-attrib $-1 -1 $-1 $100 $30 @18 ASM_FACE_FROM_STEP @8 Steel-42 #
color-adesk-attrib $-1 -1 $273 $101 $54 9 #
truecolor-adesk-attrib $-1 -1 $274 $-1 $102 -1027095875 #
face $275 -1 $-1 $276 $116 $4 $-1 $277 reversed single #
loop $-1 -1 $-1 $-1 $278 $102 #
plane-surface $-1 -1 $-1 0 11 0 0 1 0 0 0 1 forward_v I I I I #
coedge $-1 -1 $-1 $279 $104 $280 $281 reversed $55 $-1 #
coedge $-1 -1 $-1 $104 $279 $282 $283 forward $55 $-1 #
coedge $-1 -1 $-1 $115 $114 $104 $184 reversed $116 $-1 #
edge $284 -1 $-1 $285 0 $286 0.1400000000000000133 $104 $287 forward @7 unknown #
coedge $-1 -1 $-1 $126 $105 $288 $289 reversed $31 $-1 #
coedge $-1 -1 $-1 $137 $290 $105 $187 reversed $224 $-1 #
edge $291 -1 $-1 $192 -1.554312234475218688e-17 $292 0.008499999999999984998 $105 $293 forward @14 tangent_not_g2 #
coedge $-1 -1 $-1 $106 $294 $295 $296 reversed $31 $-1 #
coedge $-1 -1 $-1 $297 $150 $106 $190 reversed $241 $-1 #
edge $298 -1 $-1 $299 -0.008500000000000014488 $193 -1.11022302462515614e-17 $106 $300 forward @14 tangent_not_g2 #
truecolor-adesk-attrib $-1 -1 $301 $-1 $108 -1027095875 #
vertex $-1 -1 $-1 $138 $302 #
vertex $-1 -1 $-1 $108 $303 #
straight-curve $-1 -1 $-1 -44.99999999999999289 11 -70 -1000 -0 -0 F -0.05499999999999997946 F -0.03499999999999997558 #
coedge $-1 -1 $-1 $282 $110 $115 $202 forward $31 $-1 #
truecolor-adesk-attrib $-1 -1 $304 $-1 $111 -1027095875 #
straight-curve $-1 -1 $-1 45.00000000000001421 11 -70 -0 -1000 -0 F -0 F 0.0110000000000000011 #
coedge $-1 -1 $-1 $112 $280 $114 $201 forward $46 $-1 #
truecolor-adesk-attrib $-1 -1 $305 $-1 $113 -1027095875 #
straight-curve $-1 -1 $-1 45.00000000000002842 11 70 -0 -1000 -0 F -0 F 0.0110000000000000011 #
edge $306 -1 $-1 $286 0 $118 0.08999999999999999667 $198 $307 forward @7 unknown #
edge $308 -1 $-1 $119 -0.08999999999999999667 $285 -0 $195 $309 forward @7 unknown #
color-adesk-attrib $-1 -1 $310 $117 $61 9 #
point $-1 -1 $-1 45.00000000000002842 0 70 #
point $-1 -1 $-1 45.00000000000001421 0 -70 #
truecolor-adesk-attrib $-1 -1 $311 $-1 $121 -1027095875 #
straight-curve $-1 -1 $-1 45.00000000000001421 11 -70 -4.956352788505162676e-14 -0 -1000 F -0.1400000000000000133 F -0 #
color-adesk-attrib $-1 -1 $312 $123 $64 9 #
point $-1 -1 $-1 45.00000000000002842 11 70 #
color-adesk-attrib $-1 -1 $313 $127 $66 9 #
point $-1 -1 $-1 45.00000000000001421 11 -70 #
coedge $-1 -1 $-1 $288 $169 $130 $213 forward $268 $-1 #
edge $314 -1 $-1 $218 0.02500000000000000139 $215 0.1650000000000000078 $212 $315 forward @7 unknown #
truecolor-adesk-attrib $-1 -1 $316 $-1 $131 -1027095875 #
vertex $-1 -1 $-1 $289 $317 #
straight-curve $-1 -1 $-1 40.52430295882469125 2.499999999999996891 -70 -0 -1000 -0 F -0.008500000000000000611 F -0 #
truecolor-adesk-attrib $-1 -1 $318 $-1 $132 -1027095875 #
vertex $-1 -1 $-1 $170 $319 #
straight-curve $-1 -1 $-1 40.52430295882469125 11 70 0 -1000 0 F 0 F 0.00850000000000000408 #
truecolor-adesk-attrib $-1 -1 $320 $-1 $133 -1027095875 #
plane-surface $-1 -1 $-1 40.52430295882469125 2.499999999999996891 95 1 0 0 0 0 -1 forward_v I I I I #
DXID-attrib $-1 -1 $-1 $134 $37 @18 ASM_EDGE_FROM_STEP @3 448 #
coedge $-1 -1 $-1 $290 $137 $140 $228 reversed $224 $-1 #
loop $-1 -1 $-1 $-1 $290 $255 #
truecolor-adesk-attrib $-1 -1 $321 $-1 $138 -1027095875 #
ellipse-curve $-1 -1 $-1 10.00000000000000178 11 -60 0 1 0 0 0 10.00000000000000178 1 F 1.570796326794896558 F 3.141592653589794448 #
coedge $-1 -1 $-1 $140 $139 $322 $323 forward $141 $-1 #
edge $324 -1 $-1 $325 -0.01173618728653464012 $143 -0.00323618728653463951 $140 $326 forward @14 tangent_not_g2 #
face $327 -1 $-1 $133 $141 $4 $-1 $328 reversed single #
color-adesk-attrib $-1 -1 $329 $142 $76 9 #
point $-1 -1 $-1 20.00000000000000355 11 -60 #
coedge $-1 -1 $-1 $169 $322 $145 $233 forward $268 $-1 #
edge $330 -1 $-1 $235 0 $172 1.570796326794896336 $232 $331 forward @7 unknown #
truecolor-adesk-attrib $-1 -1 $332 $-1 $146 -1027095875 #
vertex $-1 -1 $-1 $323 $333 #
straight-curve $-1 -1 $-1 20.00000000000000355 14.23618728653464061 60.00000000000000711 -2.956195966584683353e-13 -1000 -0 F 0.00323618728653463951 F 0.01173618728653464012 #
truecolor-adesk-attrib $-1 -1 $334 $-1 $147 -1027095875 #
cone-surface $-1 -1 $-1 10.00000000000000178 10.99999999999998579 60.00000000000000711 2.956195966584683144e-16 1 0 -10 2.956195966584683637e-15 0 1 I I 0 1 10 forward I I I I #
DXID-attrib $-1 -1 $-1 $148 $40 @18 ASM_EDGE_FROM_STEP @3 246 #
coedge $-1 -1 $-1 $150 $297 $152 $245 reversed $241 $-1 #
loop $-1 -1 $-1 $-1 $150 $335 #
truecolor-adesk-attrib $-1 -1 $336 $-1 $151 -1027095875 #
ellipse-curve $-1 -1 $-1 -10.00000000000000178 11 -60 0 1 0 0 0 10.00000000000000178 1 F -3.141592653589791784 F -1.570796326794896558 #
coedge $-1 -1 $-1 $153 $152 $337 $338 reversed $154 $-1 #
edge $339 -1 $-1 $156 0.00323618728653463951 $340 0.01173618728653464012 $152 $341 forward @14 tangent_not_g2 #
face $342 -1 $-1 $343 $154 $4 $-1 $344 reversed single #
color-adesk-attrib $-1 -1 $345 $155 $85 9 #
point $-1 -1 $-1 -20.00000000000000355 11 -60 #
coedge $-1 -1 $-1 $337 $164 $158 $250 forward $262 $-1 #
edge $346 -1 $-1 $167 1.57079632679489678 $252 3.141592653589793116 $249 $347 forward @7 unknown #
truecolor-adesk-attrib $-1 -1 $348 $-1 $159 -1027095875 #
vertex $-1 -1 $-1 $338 $349 #
straight-curve $-1 -1 $-1 -20.00000000000000355 14.23618728653464061 60.00000000000000711 -2.956195966584683353e-13 1000 0 F -0.01173618728653464012 F -0.00323618728653463951 #
truecolor-adesk-attrib $-1 -1 $350 $-1 $160 -1027095875 #
face $351 -1 $-1 $335 $224 $4 $-1 $352 forward single #
cone-surface $-1 -1 $-1 -10.00000000000000178 11.00000000000001243 60.00000000000000711 2.956195966584683144e-16 -1 0 10 2.956195966584683637e-15 0 1 I I 0 1 10 forward I I I I #
DXID-attrib $-1 -1 $-1 $161 $43 @18 ASM_EDGE_FROM_STEP @3 530 #
coedge $-1 -1 $-1 $280 $163 $353 $354 reversed $46 $-1 #
coedge $-1 -1 $-1 $355 $356 $163 $260 reversed $357 $-1 #
edge $358 -1 $-1 $264 -0.008499999999999997141 $359 0 $163 $360 forward @7 unknown #
coedge $-1 -1 $-1 $164 $295 $355 $361 reversed $262 $-1 #
loop $-1 -1 $-1 $-1 $164 $343 #
truecolor-adesk-attrib $-1 -1 $362 $-1 $165 -1027095875 #
vertex $-1 -1 $-1 $165 $363 #
straight-curve $-1 -1 $-1 -44.99999999999996447 2.500000000000006217 70 -1000 2.113011437534521787e-13 0 F -0.0349999999999999617 F -0.00447569704117527483 #
color-adesk-attrib $-1 -1 $364 $166 $93 9 #
point $-1 -1 $-1 -10.00000000000000178 2.499999999999998224 70 #
loop $-1 -1 $-1 $-1 $212 $365 #
truecolor-adesk-attrib $-1 -1 $366 $-1 $170 -1027095875 #
straight-curve $-1 -1 $-1 -44.99999999999996447 2.500000000000007994 70 -1000 1.26780686252071282e-13 0 F -0.08552430295882466893 F -0.05499999999999996558 #
color-adesk-attrib $-1 -1 $367 $171 $95 9 #
point $-1 -1 $-1 10.00000000000000178 2.500000000000000444 70 #
DXID-attrib $-1 -1 $-1 $176 $54 @18 ASM_FACE_FROM_STEP @9 Steel-191 #
color-adesk-attrib $-1 -1 $368 $177 $102 9 #
truecolor-adesk-attrib $-1 -1 $369 $-1 $178 -1027095875 #
face $370 -1 $-1 $246 $357 $4 $-1 $371 reversed single #
plane-surface $-1 -1 $-1 0 0 0 0 1 0 0 0 1 forward_v I I I I #
coedge $-1 -1 $-1 $372 $353 $356 $373 reversed $179 $-1 #
coedge $-1 -1 $-1 $182 $181 $374 $375 reversed $55 $-1 #
coedge $-1 -1 $-1 $198 $258 $181 $281 forward $46 $-1 #
edge $376 -1 $-1 $377 -0 $286 0.0110000000000000011 $181 $378 forward @7 unknown #
coedge $-1 -1 $-1 $379 $195 $182 $283 reversed $31 $-1 #
edge $380 -1 $-1 $381 -0 $285 0.0110000000000000011 $282 $382 forward @7 unknown #
truecolor-adesk-attrib $-1 -1 $383 $-1 $184 -1027095875 #
vertex $-1 -1 $-1 $202 $384 #
vertex $-1 -1 $-1 $184 $385 #
straight-curve $-1 -1 $-1 -44.99999999999999289 0 -70 1.486905836551548866e-13 0 1000 F 0 F 0.1400000000000000133 #
coedge $-1 -1 $-1 $386 $212 $185 $289 forward $268 $-1 #
edge $387 -1 $-1 $215 -0.020524302958824691 $292 0.01000000000000000021 $185 $388 forward @7 unknown #
coedge $-1 -1 $-1 $186 $223 $386 $389 reversed $224 $-1 #
truecolor-adesk-attrib $-1 -1 $390 $-1 $187 -1027095875 #
vertex $-1 -1 $-1 $187 $391 #
straight-curve $-1 -1 $-1 10.00000000000000178 10.99999999999998579 -70 -2.956195966584683353e-13 -1000 0 F -1.554312234475218688e-17 F 0.008499999999999984998 #
coedge $-1 -1 $-1 $188 $379 $392 $393 reversed $31 $-1 #
coedge $-1 -1 $-1 $261 $394 $188 $296 forward $262 $-1 #
edge $395 -1 $-1 $299 -0.01000000000000000021 $396 0.020524302958824691 $188 $397 forward @7 unknown #
coedge $-1 -1 $-1 $240 $189 $394 $398 reversed $241 $-1 #
truecolor-adesk-attrib $-1 -1 $399 $-1 $190 -1027095875 #
vertex $-1 -1 $-1 $296 $400 #
straight-curve $-1 -1 $-1 -10.00000000000000178 11.00000000000001243 -70 -2.956195966584683353e-13 1000 0 F -0.008500000000000014488 F -1.11022302462515614e-17 #
color-adesk-attrib $-1 -1 $401 $191 $108 9 #
point $-1 -1 $-1 9.999999999999987566 11 -70 #
point $-1 -1 $-1 -10.00000000000001599 11 -70 #
color-adesk-attrib $-1 -1 $402 $196 $111 9 #
color-adesk-attrib $-1 -1 $403 $199 $113 9 #
truecolor-adesk-attrib $-1 -1 $404 $-1 $201 -1027095875 #
straight-curve $-1 -1 $-1 -44.99999999999996447 0 70 1000 0 0 F 0 F 0.08999999999999999667 #
truecolor-adesk-attrib $-1 -1 $405 $-1 $202 -1027095875 #
straight-curve $-1 -1 $-1 -44.99999999999999289 0 -70 -1000 -0 -0 F -0.08999999999999999667 F -0 #
DXID-attrib $-1 -1 $-1 $203 $61 @18 ASM_EDGE_FROM_STEP @3 370 #
color-adesk-attrib $-1 -1 $406 $206 $121 9 #
DXID-attrib $-1 -1 $-1 $208 $64 @18 ASM_EDGE_FROM_STEP @3 540 #
DXID-attrib $-1 -1 $-1 $210 $66 @18 ASM_EDGE_FROM_STEP @2 47 #
truecolor-adesk-attrib $-1 -1 $407 $-1 $213 -1027095875 #
straight-curve $-1 -1 $-1 40.52430295882469125 2.499999999999996891 95 -0 -0 -1000 F 0.02500000000000000139 F 0.1650000000000000078 #
color-adesk-attrib $-1 -1 $408 $214 $131 9 #
point $-1 -1 $-1 40.52430295882469125 2.499999999999996891 -70 #
color-adesk-attrib $-1 -1 $409 $217 $132 9 #
point $-1 -1 $-1 40.52430295882469125 2.499999999999996891 70 #
color-adesk-attrib $-1 -1 $410 $220 $133 9 #
color-adesk-attrib $-1 -1 $411 $225 $138 9 #
coedge $-1 -1 $-1 $232 $386 $227 $323 reversed $268 $-1 #
edge $412 -1 $-1 $235 0.03499999999999998945 $325 0.1549999999999999989 $322 $413 forward @7 unknown #
truecolor-adesk-attrib $-1 -1 $414 $-1 $228 -1027095875 #
vertex $-1 -1 $-1 $389 $415 #
straight-curve $-1 -1 $-1 20.00000000000000355 14.23618728653464061 -60 2.956195966584683353e-13 1000 0 F -0.01173618728653464012 F -0.00323618728653463951 #
truecolor-adesk-attrib $-1 -1 $416 $-1 $229 -1027095875 #
plane-surface $-1 -1 $-1 20.00000000000000355 14.23618728653464061 95 -1 2.956195966584683144e-16 0 -2.956195966584683144e-16 -1 0 forward_v I I I I #
DXID-attrib $-1 -1 $-1 $230 $76 @18 ASM_EDGE_FROM_STEP @3 108 #
truecolor-adesk-attrib $-1 -1 $417 $-1 $233 -1027095875 #
ellipse-curve $-1 -1 $-1 10 2.50000000000000222 60.00000000000000711 -1.267806862520712883e-16 -1 0 10 -1.267806862520712883e-15 0 1 F 0 F 1.570796326794896336 #
color-adesk-attrib $-1 -1 $418 $234 $146 9 #
point $-1 -1 $-1 20 2.499999999999999556 60.00000000000000711 #
color-adesk-attrib $-1 -1 $419 $237 $147 9 #
face $420 -1 $-1 $-1 $241 $4 $-1 $421 forward single #
color-adesk-attrib $-1 -1 $422 $242 $151 9 #
coedge $-1 -1 $-1 $394 $249 $244 $338 forward $262 $-1 #
edge $423 -1 $-1 $252 0.03499999999999998945 $340 0.1549999999999999989 $244 $424 forward @7 unknown #
truecolor-adesk-attrib $-1 -1 $425 $-1 $245 -1027095875 #
vertex $-1 -1 $-1 $338 $426 #
straight-curve $-1 -1 $-1 -20.00000000000000355 14.23618728653464061 -60 2.956195966584683353e-13 -1000 0 F 0.00323618728653463951 F 0.01173618728653464012 #
truecolor-adesk-attrib $-1 -1 $427 $-1 $246 -1027095875 #
face $428 -1 $-1 $365 $262 $4 $-1 $429 reversed single #
plane-surface $-1 -1 $-1 -20.00000000000000355 14.23618728653464061 95 1 2.956195966584683144e-16 0 -2.956195966584683144e-16 1 0 forward_v I I I I #
DXID-attrib $-1 -1 $-1 $247 $85 @18 ASM_EDGE_FROM_STEP @3 510 #
truecolor-adesk-attrib $-1 -1 $430 $-1 $250 -1027095875 #
ellipse-curve $-1 -1 $-1 -10 2.499999999999999112 60.00000000000000711 -2.113011437534521472e-16 -1 0 10 -2.113011437534521472e-15 0 1 F 1.57079632679489678 F 3.141592653589793116 #
color-adesk-attrib $-1 -1 $431 $251 $159 9 #
point $-1 -1 $-1 -20 2.500000000000000444 60.00000000000000711 #
color-adesk-attrib $-1 -1 $432 $254 $160 9 #
truecolor-adesk-attrib $-1 -1 $433 $-1 $255 -1027095875 #
cone-surface $-1 -1 $-1 10.00000000000000355 14.23618728653464416 -60 2.956195966584683144e-16 1 0 -10 2.956195966584683637e-15 0 1 I I 0 1 10 forward I I I I #
coedge $-1 -1 $-1 $278 $374 $258 $354 forward $179 $-1 #
edge $434 -1 $-1 $377 0 $359 0.00447569704117527483 $258 $435 forward @7 unknown #
coedge $-1 -1 $-1 $392 $259 $261 $361 forward $357 $-1 #
coedge $-1 -1 $-1 $259 $392 $278 $373 forward $357 $-1 #
loop $-1 -1 $-1 $-1 $355 $276 #
truecolor-adesk-attrib $-1 -1 $436 $-1 $260 -1027095875 #
vertex $-1 -1 $-1 $260 $437 #
straight-curve $-1 -1 $-1 -40.52430295882469125 11 70 0 1000 0 F -0.008499999999999997141 F 0 #
edge $438 -1 $-1 $264 0.02500000000000000139 $396 0.1650000000000000078 $355 $439 forward @7 unknown #
color-adesk-attrib $-1 -1 $440 $263 $165 9 #
point $-1 -1 $-1 -40.52430295882469125 2.500000000000004885 70 #
DXID-attrib $-1 -1 $-1 $266 $93 @18 ASM_EDGE_FROM_STEP @3 153 #
face $441 -1 $-1 $229 $268 $4 $-1 $442 reversed single #
color-adesk-attrib $-1 -1 $443 $269 $170 9 #
DXID-attrib $-1 -1 $-1 $271 $95 @18 ASM_EDGE_FROM_STEP @3 431 #
DXID-attrib $-1 -1 $-1 $274 $102 @18 ASM_FACE_FROM_STEP @9 Steel-340 #
color-adesk-attrib $-1 -1 $444 $275 $178 9 #
truecolor-adesk-attrib $-1 -1 $445 $-1 $276 -1027095875 #
plane-surface $-1 -1 $-1 -40.52430295882469125 2.500000000000004885 95 -1 0 0 0 0 1 forward_v I I I I #
coedge $-1 -1 $-1 $374 $278 $379 $446 forward $179 $-1 #
edge $447 -1 $-1 $448 -0.07000000000000000666 $359 0.07000000000000000666 $278 $449 forward @7 unknown #
coedge $-1 -1 $-1 $353 $372 $279 $375 forward $179 $-1 #
edge $450 -1 $-1 $381 0 $377 0.1400000000000000133 $279 $451 forward @7 unknown #
truecolor-adesk-attrib $-1 -1 $452 $-1 $281 -1027095875 #
vertex $-1 -1 $-1 $281 $453 #
straight-curve $-1 -1 $-1 -44.99999999999996447 11 70 -0 -1000 -0 F -0 F 0.0110000000000000011 #
coedge $-1 -1 $-1 $294 $282 $372 $446 reversed $31 $-1 #
truecolor-adesk-attrib $-1 -1 $454 $-1 $283 -1027095875 #
vertex $-1 -1 $-1 $283 $455 #
straight-curve $-1 -1 $-1 -44.99999999999999289 11 -70 -0 -1000 -0 F -0 F 0.0110000000000000011 #
color-adesk-attrib $-1 -1 $456 $284 $184 9 #
point $-1 -1 $-1 -44.99999999999999289 0 -70 #
point $-1 -1 $-1 -44.99999999999996447 0 70 #
coedge $-1 -1 $-1 $322 $288 $290 $389 forward $268 $-1 #
truecolor-adesk-attrib $-1 -1 $457 $-1 $289 -1027095875 #
straight-curve $-1 -1 $-1 20 2.499999999999999556 -70 -1000 1.26780686252071282e-13 0 F -0.020524302958824691 F 0.01000000000000000021 #
edge $458 -1 $-1 $292 -1.570796326794896558 $325 0 $386 $459 forward @7 unknown #
color-adesk-attrib $-1 -1 $460 $291 $187 9 #
point $-1 -1 $-1 10 2.500000000000000888 -70 #
coedge $-1 -1 $-1 $356 $355 $294 $393 forward $357 $-1 #
edge $461 -1 $-1 $396 0 $448 0.008499999999999997141 $294 $462 forward @7 unknown #
coedge $-1 -1 $-1 $295 $337 $297 $398 forward $262 $-1 #
truecolor-adesk-attrib $-1 -1 $463 $-1 $296 -1027095875 #
vertex $-1 -1 $-1 $393 $464 #
straight-curve $-1 -1 $-1 -20 2.500000000000000444 -70 -1000 2.113011437534521787e-13 0 F -0.01000000000000000021 F 0.020524302958824691 #
edge $465 -1 $-1 $340 -3.141592653589793116 $299 -1.570796326794896558 $394 $466 forward @7 unknown #
color-adesk-attrib $-1 -1 $467 $298 $190 9 #
point $-1 -1 $-1 -10 2.499999999999998224 -70 #
DXID-attrib $-1 -1 $-1 $301 $108 @18 ASM_EDGE_FROM_STEP @3 525 #
DXID-attrib $-1 -1 $-1 $304 $111 @18 ASM_EDGE_FROM_STEP @3 382 #
DXID-attrib $-1 -1 $-1 $305 $113 @18 ASM_EDGE_FROM_STEP @3 279 #
color-adesk-attrib $-1 -1 $468 $306 $201 9 #
color-adesk-attrib $-1 -1 $469 $308 $202 9 #
DXID-attrib $-1 -1 $-1 $311 $121 @18 ASM_EDGE_FROM_STEP @3 427 #
color-adesk-attrib $-1 -1 $470 $314 $213 9 #
DXID-attrib $-1 -1 $-1 $316 $131 @18 ASM_EDGE_FROM_STEP @3 324 #
DXID-attrib $-1 -1 $-1 $318 $132 @18 ASM_EDGE_FROM_STEP @3 150 #
DXID-attrib $-1 -1 $-1 $320 $133 @18 ASM_FACE_FROM_STEP @9 Steel-144 #
DXID-attrib $-1 -1 $-1 $321 $138 @18 ASM_EDGE_FROM_STEP @3 254 #
truecolor-adesk-attrib $-1 -1 $471 $-1 $323 -1027095875 #
straight-curve $-1 -1 $-1 20 2.499999999999999556 95 -0 -0 -1000 F 0.03499999999999998945 F 0.1549999999999999989 #
color-adesk-attrib $-1 -1 $472 $324 $228 9 #
point $-1 -1 $-1 20 2.499999999999999556 -60 #
color-adesk-attrib $-1 -1 $473 $327 $229 9 #
color-adesk-attrib $-1 -1 $474 $330 $233 9 #
DXID-attrib $-1 -1 $-1 $332 $146 @18 ASM_EDGE_FROM_STEP @3 102 #
DXID-attrib $-1 -1 $-1 $334 $147 @18 ASM_FACE_FROM_STEP @7 Steel-9 #
truecolor-adesk-attrib $-1 -1 $475 $-1 $335 -1027095875 #
cone-surface $-1 -1 $-1 -10.00000000000000355 14.23618728653464416 -60 2.956195966584683144e-16 -1 0 10 2.956195966584683637e-15 0 1 I I 0 1 10 forward I I I I #
DXID-attrib $-1 -1 $-1 $336 $151 @18 ASM_EDGE_FROM_STEP @3 177 #
truecolor-adesk-attrib $-1 -1 $476 $-1 $338 -1027095875 #
straight-curve $-1 -1 $-1 -20 2.500000000000000444 95 -0 -0 -1000 F 0.03499999999999998945 F 0.1549999999999999989 #
color-adesk-attrib $-1 -1 $477 $339 $245 9 #
point $-1 -1 $-1 -20 2.500000000000000444 -60 #
color-adesk-attrib $-1 -1 $478 $342 $246 9 #
truecolor-adesk-attrib $-1 -1 $479 $-1 $343 -1027095875 #
plane-surface $-1 -1 $-1 -20 2.500000000000000444 95 -2.113011437534521472e-16 -1 0 1 -2.113011437534521472e-16 0 forward_v I I I I #
color-adesk-attrib $-1 -1 $480 $346 $250 9 #
DXID-attrib $-1 -1 $-1 $348 $159 @18 ASM_EDGE_FROM_STEP @3 579 #
DXID-attrib $-1 -1 $-1 $350 $160 @18 ASM_FACE_FROM_STEP @9 Steel-558 #
color-adesk-attrib $-1 -1 $481 $351 $255 9 #
truecolor-adesk-attrib $-1 -1 $482 $-1 $354 -1027095875 #
straight-curve $-1 -1 $-1 -44.99999999999996447 11 70 1000 0 0 F 0 F 0.00447569704117527483 #
color-adesk-attrib $-1 -1 $483 $358 $260 9 #
point $-1 -1 $-1 -40.52430295882469125 11 70 #
truecolor-adesk-attrib $-1 -1 $484 $-1 $361 -1027095875 #
straight-curve $-1 -1 $-1 -40.52430295882469125 2.500000000000004885 95 -0 -0 -1000 F 0.02500000000000000139 F 0.1650000000000000078 #
DXID-attrib $-1 -1 $-1 $362 $165 @18 ASM_EDGE_FROM_STEP @3 491 #
truecolor-adesk-attrib $-1 -1 $485 $-1 $365 -1027095875 #
plane-surface $-1 -1 $-1 20 2.499999999999999556 95 -1.267806862520712883e-16 -1 0 1 -1.267806862520712883e-16 0 forward_v I I I I #
DXID-attrib $-1 -1 $-1 $366 $170 @18 ASM_EDGE_FROM_STEP @3 573 #
DXID-attrib $-1 -1 $-1 $369 $178 @18 ASM_FACE_FROM_STEP @8 Steel-59 #
color-adesk-attrib $-1 -1 $486 $370 $276 9 #
edge $487 -1 $-1 $448 -0.004475697041175301719 $381 -0 $379 $488 forward @7 unknown #
truecolor-adesk-attrib $-1 -1 $489 $-1 $373 -1027095875 #
vertex $-1 -1 $-1 $446 $490 #
straight-curve $-1 -1 $-1 -40.52430295882469125 11 0 0 0 1000 F -0.07000000000000000666 F 0.07000000000000000666 #
truecolor-adesk-attrib $-1 -1 $491 $-1 $375 -1027095875 #
straight-curve $-1 -1 $-1 -44.99999999999999289 11 -70 1.486905836551548866e-13 0 1000 F 0 F 0.1400000000000000133 #
color-adesk-attrib $-1 -1 $492 $376 $281 9 #
point $-1 -1 $-1 -44.99999999999996447 11 70 #
color-adesk-attrib $-1 -1 $493 $380 $283 9 #
point $-1 -1 $-1 -44.99999999999999289 11 -70 #
DXID-attrib $-1 -1 $-1 $383 $184 @18 ASM_EDGE_FROM_STEP @3 330 #
color-adesk-attrib $-1 -1 $494 $387 $289 9 #
truecolor-adesk-attrib $-1 -1 $495 $-1 $389 -1027095875 #
ellipse-curve $-1 -1 $-1 10 2.500000000000000444 -60 -1.267806862520712883e-16 -1 0 10 -1.267806862520712883e-15 0 1 F -1.570796326794896558 F 0 #
DXID-attrib $-1 -1 $-1 $390 $187 @18 ASM_EDGE_FROM_STEP @3 581 #
truecolor-adesk-attrib $-1 -1 $496 $-1 $393 -1027095875 #
straight-curve $-1 -1 $-1 -40.52430295882469125 2.500000000000004885 -70 0 1000 0 F 0 F 0.008499999999999997141 #
color-adesk-attrib $-1 -1 $497 $395 $296 9 #
point $-1 -1 $-1 -40.52430295882469125 2.500000000000004885 -70 #
truecolor-adesk-attrib $-1 -1 $498 $-1 $398 -1027095875 #
ellipse-curve $-1 -1 $-1 -10 2.499999999999999112 -60 -2.113011437534521472e-16 -1 0 10 -2.113011437534521472e-15 0 1 F -3.141592653589793116 F -1.570796326794896558 #
DXID-attrib $-1 -1 $-1 $399 $190 @18 ASM_EDGE_FROM_STEP @3 211 #
DXID-attrib $-1 -1 $-1 $404 $201 @18 ASM_EDGE_FROM_STEP @3 302 #
DXID-attrib $-1 -1 $-1 $405 $202 @18 ASM_EDGE_FROM_STEP @1 3 #
DXID-attrib $-1 -1 $-1 $407 $213 @18 ASM_EDGE_FROM_STEP @3 379 #
color-adesk-attrib $-1 -1 $499 $412 $323 9 #
DXID-attrib $-1 -1 $-1 $414 $228 @18 ASM_EDGE_FROM_STEP @3 536 #
DXID-attrib $-1 -1 $-1 $416 $229 @18 ASM_FACE_FROM_STEP @9 Steel-234 #
DXID-attrib $-1 -1 $-1 $417 $233 @18 ASM_EDGE_FROM_STEP @3 553 #
color-adesk-attrib $-1 -1 $500 $420 $335 9 #
color-adesk-attrib $-1 -1 $501 $423 $338 9 #
DXID-attrib $-1 -1 $-1 $425 $245 @18 ASM_EDGE_FROM_STEP @3 159 #
DXID-attrib $-1 -1 $-1 $427 $246 @18 ASM_FACE_FROM_STEP @8 Steel-23 #
color-adesk-attrib $-1 -1 $502 $428 $343 9 #
DXID-attrib $-1 -1 $-1 $430 $250 @18 ASM_EDGE_FROM_STEP @3 347 #
DXID-attrib $-1 -1 $-1 $433 $255 @18 ASM_FACE_FROM_STEP @9 Steel-221 #
color-adesk-attrib $-1 -1 $503 $434 $354 9 #
DXID-attrib $-1 -1 $-1 $436 $260 @18 ASM_EDGE_FROM_STEP @3 237 #
color-adesk-attrib $-1 -1 $504 $438 $361 9 #
color-adesk-attrib $-1 -1 $505 $441 $365 9 #
DXID-attrib $-1 -1 $-1 $445 $276 @18 ASM_FACE_FROM_STEP @8 Steel-89 #
truecolor-adesk-attrib $-1 -1 $506 $-1 $446 -1027095875 #
straight-curve $-1 -1 $-1 -44.99999999999999289 11 -70 -1000 -0 -0 F -0.004475697041175301719 F -0 #
color-adesk-attrib $-1 -1 $507 $447 $373 9 #
point $-1 -1 $-1 -40.52430295882469125 11 -70 #
color-adesk-attrib $-1 -1 $508 $450 $375 9 #
DXID-attrib $-1 -1 $-1 $452 $281 @18 ASM_EDGE_FROM_STEP @2 86 #
DXID-attrib $-1 -1 $-1 $454 $283 @18 ASM_EDGE_FROM_STEP @2 82 #
DXID-attrib $-1 -1 $-1 $457 $289 @18 ASM_EDGE_FROM_STEP @3 361 #
color-adesk-attrib $-1 -1 $509 $458 $389 9 #
color-adesk-attrib $-1 -1 $510 $461 $393 9 #
DXID-attrib $-1 -1 $-1 $463 $296 @18 ASM_EDGE_FROM_STEP @3 114 #
color-adesk-attrib $-1 -1 $511 $465 $398 9 #
DXID-attrib $-1 -1 $-1 $471 $323 @18 ASM_EDGE_FROM_STEP @3 439 #
DXID-attrib $-1 -1 $-1 $475 $335 @18 ASM_FACE_FROM_STEP @9 Steel-466 #
DXID-attrib $-1 -1 $-1 $476 $338 @18 ASM_EDGE_FROM_STEP @2 72 #
DXID-attrib $-1 -1 $-1 $479 $343 @18 ASM_FACE_FROM_STEP @8 Steel-64 #
DXID-attrib $-1 -1 $-1 $482 $354 @18 ASM_EDGE_FROM_STEP @3 503 #
DXID-attrib $-1 -1 $-1 $484 $361 @18 ASM_EDGE_FROM_STEP @3 351 #
DXID-attrib $-1 -1 $-1 $485 $365 @18 ASM_FACE_FROM_STEP @8 Steel-22 #
color-adesk-attrib $-1 -1 $512 $487 $446 9 #
DXID-attrib $-1 -1 $-1 $489 $373 @18 ASM_EDGE_FROM_STEP @3 283 #
DXID-attrib $-1 -1 $-1 $491 $375 @18 ASM_EDGE_FROM_STEP @3 297 #
DXID-attrib $-1 -1 $-1 $495 $389 @18 ASM_EDGE_FROM_STEP @3 411 #
DXID-attrib $-1 -1 $-1 $496 $393 @18 ASM_EDGE_FROM_STEP @3 603 #
DXID-attrib $-1 -1 $-1 $498 $398 @18 ASM_EDGE_FROM_STEP @3 199 #
DXID-attrib $-1 -1 $-1 $506 $446 @18 ASM_EDGE_FROM_STEP @3 268 #
