700 214 1 0         
5 ZWCAD 12 ACIS 28.0 NT 24 Mon May 13 09:54:42 2024 
1 9.9999999999999995e-07 1e-10 
body $1 -1 $-1 $2 $-1 $-1 #
DXID-attrib $-1 -1 $-1 $-1 $0 @18 ASM_BODY_FROM_STEP @83 0ACCE67F8EE6137867C285904DBC537D516F17C0|:|DDF9F292302AF8A64D31EE3E1B1BD5B011D7E5DA #
lump $-1 -1 $-1 $-1 $3 $0 #
shell $-1 -1 $-1 $-1 $-1 $4 $-1 $2 #
face $5 -1 $-1 $6 $7 $3 $-1 $8 forward single #
truecolor-adesk-attrib $-1 -1 $9 $-1 $4 -1029660512 #
face $10 -1 $-1 $11 $12 $3 $-1 $13 forward single #
loop $-1 -1 $-1 $-1 $14 $4 #
cone-surface $-1 -1 $-1 -82.74994392382213 -44.916938028861289 -24.921257477339203 0 0 1 0.70710678118655401 0.70710678118654102 0 1 I I 0 1 0.99999999999999989 forward I I I I #
DXID-attrib $-1 -1 $-1 $5 $4 @18 ASM_FACE_FROM_STEP @16 step-1M-255-6598 #
truecolor-adesk-attrib $-1 -1 $15 $-1 $6 -1029660512 #
face $16 -1 $-1 $17 $18 $3 $-1 $19 reversed single #
loop $-1 -1 $-1 $-1 $20 $6 #
cone-surface $-1 -1 $-1 -82.74994392382213 -45.494093059621896 -26.9212574773392 6.9272342198275011e-36 -1 0 0.70710678118653814 4.8982942917074628e-36 -0.70710678118655712 1 I I 0 1 1 forward I I I I #
coedge $-1 -1 $-1 $21 $22 $23 $24 reversed $7 $-1 #
DXID-attrib $-1 -1 $-1 $10 $6 @18 ASM_FACE_FROM_STEP @16 step-1M-255-6599 #
truecolor-adesk-attrib $-1 -1 $25 $-1 $11 -1029660512 #
face $26 -1 $-1 $27 $28 $3 $-1 $29 reversed single #
loop $-1 -1 $-1 $-1 $30 $11 #
plane-surface $-1 -1 $-1 -82.798192133499825 -44.968374716034987 -27.9212574773392 0 0 1 1 0 0 forward_v I I I I #
coedge $-1 -1 $-1 $31 $32 $30 $33 reversed $12 $-1 #
coedge $-1 -1 $-1 $34 $14 $31 $35 reversed $7 $-1 #
coedge $-1 -1 $-1 $14 $34 $36 $37 reversed $7 $-1 #
coedge $-1 -1 $-1 $38 $39 $14 $24 forward $40 $-1 #
edge $41 -1 $-1 $42 -0.19999999999999973 $43 0 $14 $44 forward @7 unknown #
DXID-attrib $-1 -1 $-1 $16 $11 @18 ASM_FACE_FROM_STEP @16 step-1M-255-6600 #
truecolor-adesk-attrib $-1 -1 $45 $-1 $17 -1029660512 #
face $46 -1 $-1 $47 $48 $3 $-1 $49 forward single #
loop $-1 -1 $-1 $-1 $50 $17 #
plane-surface $-1 -1 $-1 -81.749943923822144 -43.916938028861289 -24.921257477339203 5.53363362508678e-35 -1 0 -1 -5.53363362508678e-35 7.5766535278830894e-18 forward_v I I I I #
coedge $-1 -1 $-1 $51 $52 $20 $33 forward $18 $-1 #
coedge $-1 -1 $-1 $53 $20 $21 $35 forward $12 $-1 #
coedge $-1 -1 $-1 $20 $53 $54 $55 reversed $12 $-1 #
edge $56 -1 $-1 $57 -0.15771550307606041 $58 0.052571834358680292 $20 $59 forward @7 unknown #
coedge $-1 -1 $-1 $22 $21 $50 $60 reversed $7 $-1 #
edge $61 -1 $-1 $57 -3.1415926535897931 $42 -1.5707963267948966 $21 $62 forward @7 unknown #
coedge $-1 -1 $-1 $63 $64 $22 $37 forward $48 $-1 #
edge $65 -1 $-1 $43 -0.78539816339743906 $66 0.78539816339745749 $22 $67 forward @7 unknown #
coedge $-1 -1 $-1 $68 $23 $64 $69 forward $40 $-1 #
coedge $-1 -1 $-1 $23 $68 $53 $70 forward $40 $-1 #
loop $-1 -1 $-1 $-1 $39 $71 #
truecolor-adesk-attrib $-1 -1 $72 $-1 $24 -1029660512 #
vertex $-1 -1 $-1 $24 $73 #
vertex $-1 -1 $-1 $24 $74 #
straight-curve $-1 -1 $-1 -81.749943923822144 -44.916938028861289 -24.921257477339203 0 0 10 F -0.19999999999999973 F 0 #
DXID-attrib $-1 -1 $-1 $26 $17 @18 ASM_FACE_FROM_STEP @16 step-1M-255-6601 #
truecolor-adesk-attrib $-1 -1 $75 $-1 $27 -1029660512 #
face $76 -1 $-1 $77 $78 $3 $-1 $79 forward single #
loop $-1 -1 $-1 $-1 $36 $27 #
plane-surface $-1 -1 $-1 -82.798192133499825 -44.968374716034987 -24.921257477339203 7.5766535278830894e-18 -6.38924583958978e-18 1 -1 -5.53363362508678e-35 7.5766535278830894e-18 forward_v I I I I #
coedge $-1 -1 $-1 $80 $81 $34 $60 forward $28 $-1 #
coedge $-1 -1 $-1 $82 $30 $83 $84 reversed $18 $-1 #
coedge $-1 -1 $-1 $30 $82 $80 $85 reversed $18 $-1 #
coedge $-1 -1 $-1 $32 $31 $39 $70 reversed $12 $-1 #
coedge $-1 -1 $-1 $86 $83 $32 $55 forward $87 $-1 #
edge $88 -1 $-1 $58 -0.78539816339743485 $89 0.78539816339746171 $32 $90 forward @7 unknown #
truecolor-adesk-attrib $-1 -1 $91 $-1 $33 -1029660512 #
vertex $-1 -1 $-1 $35 $92 #
vertex $-1 -1 $-1 $33 $93 #
straight-curve $-1 -1 $-1 -82.74994392382213 -45.494093059621896 -27.9212574773392 6.9272342198274992e-35 -10 0 F -0.15771550307606041 F 0.052571834358680292 #
edge $94 -1 $-1 $66 0 $57 0.29999999999999982 $34 $95 forward @7 unknown #
truecolor-adesk-attrib $-1 -1 $96 $-1 $35 -1029660512 #
ellipse-curve $-1 -1 $-1 -82.74994392382213 -44.916938028861289 -26.9212574773392 0 -0.70710678118654902 -0.70710678118654602 0 -1.0000000000000013 1.0000000000000056 0.70710678118654502 F -3.1415926535897931 F -1.5707963267948966 #
coedge $-1 -1 $-1 $97 $36 $81 $98 reversed $48 $-1 #
coedge $-1 -1 $-1 $36 $99 $38 $69 reversed $48 $-1 #
truecolor-adesk-attrib $-1 -1 $100 $-1 $37 -1029660512 #
vertex $-1 -1 $-1 $60 $101 #
ellipse-curve $-1 -1 $-1 -82.74994392382213 -44.916938028861289 -24.921257477339203 7.5766535278830894e-18 -6.3892458395897792e-18 1 0.70710678118655401 0.70710678118654102 -8.3962402842533197e-19 1 F -0.78539816339743906 F 0.78539816339745749 #
coedge $-1 -1 $-1 $39 $38 $86 $102 forward $40 $-1 #
edge $103 -1 $-1 $43 0.099999999999999645 $104 0.21028733743474071 $64 $105 forward @7 unknown #
edge $106 -1 $-1 $89 -0.052571834358680292 $42 0.05771550307606077 $53 $107 forward @7 unknown #
face $108 -1 $-1 $109 $40 $3 $-1 $110 reversed single #
DXID-attrib $-1 -1 $-1 $41 $24 @18 ASM_EDGE_FROM_STEP @4 4092 #
point $-1 -1 $-1 -81.749943923822144 -44.916938028861289 -26.9212574773392 #
point $-1 -1 $-1 -81.749943923822144 -44.916938028861289 -24.921257477339203 #
DXID-attrib $-1 -1 $-1 $46 $27 @18 ASM_FACE_FROM_STEP @16 step-1M-255-6602 #
truecolor-adesk-attrib $-1 -1 $111 $-1 $47 -1029660512 #
face $112 -1 $-1 $113 $114 $3 $-1 $115 forward single #
loop $-1 -1 $-1 $-1 $116 $47 #
cone-surface $-1 -1 $-1 -82.84644034317742 -44.916938028861289 -24.921257477339203 0 0 1 -0.70710678118654102 0.70710678118655401 0 1 I I 0 1 0.99999999999999989 forward I I I I #
coedge $-1 -1 $-1 $117 $50 $52 $85 forward $28 $-1 #
coedge $-1 -1 $-1 $50 $117 $63 $98 forward $28 $-1 #
coedge $-1 -1 $-1 $52 $51 $118 $119 forward $18 $-1 #
coedge $-1 -1 $-1 $54 $120 $51 $84 forward $87 $-1 #
edge $121 -1 $-1 $122 -0.10964964193552795 $58 -0.099999999999999645 $51 $123 forward @7 unknown #
edge $124 -1 $-1 $57 -0.10964964193552795 $125 -0.099999999999999645 $52 $126 forward @7 unknown #
coedge $-1 -1 $-1 $127 $54 $68 $102 reversed $87 $-1 #
loop $-1 -1 $-1 $-1 $54 $109 #
truecolor-adesk-attrib $-1 -1 $128 $-1 $55 -1029660512 #
vertex $-1 -1 $-1 $70 $129 #
ellipse-curve $-1 -1 $-1 -82.74994392382213 -46.019811403208699 -26.9212574773392 5.53363362508678e-35 -1 0 0.70710678118653814 3.9128698609007071e-35 -0.70710678118655712 1 F -0.78539816339743485 F 0.78539816339746171 #
DXID-attrib $-1 -1 $-1 $56 $33 @18 ASM_EDGE_FROM_STEP @4 4096 #
point $-1 -1 $-1 -82.74994392382213 -43.916938028861289 -27.9212574773392 #
point $-1 -1 $-1 -82.74994392382213 -46.019811403208699 -27.9212574773392 #
truecolor-adesk-attrib $-1 -1 $130 $-1 $60 -1029660512 #
straight-curve $-1 -1 $-1 -82.74994392382213 -43.916938028861289 -24.921257477339203 0 0 -10 F 0 F 0.29999999999999982 #
DXID-attrib $-1 -1 $-1 $61 $35 @18 ASM_EDGE_FROM_STEP @4 4093 #
coedge $-1 -1 $-1 $131 $63 $132 $133 forward $48 $-1 #
edge $134 -1 $-1 $135 0.099999999999999645 $66 0.10964964193552795 $81 $136 forward @7 unknown #
coedge $-1 -1 $-1 $64 $131 $127 $137 reversed $48 $-1 #
DXID-attrib $-1 -1 $-1 $65 $37 @18 ASM_EDGE_FROM_STEP @4 4095 #
point $-1 -1 $-1 -82.74994392382213 -43.916938028861289 -24.921257477339203 #
edge $138 -1 $-1 $104 0 $89 0.19999999999999973 $68 $139 forward @7 unknown #
truecolor-adesk-attrib $-1 -1 $140 $-1 $69 -1029660512 #
vertex $-1 -1 $-1 $137 $141 #
straight-curve $-1 -1 $-1 -81.749943923822144 -43.916938028861289 -24.921257477339203 6.9272342198274992e-35 -10 -6.3892458395897796e-17 F 0.099999999999999645 F 0.21028733743474071 #
truecolor-adesk-attrib $-1 -1 $142 $-1 $70 -1029660512 #
straight-curve $-1 -1 $-1 -81.749943923822144 -45.494093059621896 -26.9212574773392 -6.9272342198274992e-35 10 0 F -0.052571834358680292 F 0.05771550307606077 #
truecolor-adesk-attrib $-1 -1 $143 $-1 $71 -1029660512 #
face $144 -1 $-1 $-1 $87 $3 $-1 $145 reversed single #
plane-surface $-1 -1 $-1 -81.749943923822144 -46.019811403208699 -24.921257477339203 -1 -6.9272342198274998e-36 0 -6.9272342198274998e-36 1 6.3892458395897808e-18 forward_v I I I I #
DXID-attrib $-1 -1 $-1 $76 $47 @18 ASM_FACE_FROM_STEP @16 step-1M-255-6603 #
truecolor-adesk-attrib $-1 -1 $146 $-1 $77 -1029660512 #
face $147 -1 $-1 $71 $148 $3 $-1 $149 reversed single #
loop $-1 -1 $-1 $-1 $150 $77 #
cone-surface $-1 -1 $-1 -82.84644034317742 -44.442656372448091 -26.9212574773392 -6.9272342198275011e-36 1 0 -0.70710678118653814 -4.8982942917074628e-36 -0.70710678118655712 1 I I 0 1 1 forward I I I I #
coedge $-1 -1 $-1 $151 $132 $117 $152 reversed $78 $-1 #
coedge $-1 -1 $-1 $81 $80 $116 $152 forward $28 $-1 #
coedge $-1 -1 $-1 $153 $154 $82 $119 reversed $114 $-1 #
edge $155 -1 $-1 $122 -0.15771550307606041 $125 0.052571834358680292 $82 $156 forward @7 unknown #
coedge $-1 -1 $-1 $83 $157 $153 $158 forward $87 $-1 #
truecolor-adesk-attrib $-1 -1 $159 $-1 $84 -1029660512 #
vertex $-1 -1 $-1 $84 $160 #
straight-curve $-1 -1 $-1 -81.749943923822144 -46.019811403208699 -27.9212574773392 10 5.53363362508678e-34 -7.5766535278830891e-17 F -0.10964964193552795 F -0.099999999999999645 #
truecolor-adesk-attrib $-1 -1 $161 $-1 $85 -1029660512 #
vertex $-1 -1 $-1 $119 $162 #
straight-curve $-1 -1 $-1 -83.84644034317742 -43.916938028861289 -27.9212574773392 -10 -5.53363362508678e-34 7.5766535278830891e-17 F -0.10964964193552795 F -0.099999999999999645 #
coedge $-1 -1 $-1 $157 $86 $99 $137 forward $87 $-1 #
DXID-attrib $-1 -1 $-1 $88 $55 @18 ASM_EDGE_FROM_STEP @4 4098 #
point $-1 -1 $-1 -81.749943923822144 -46.019811403208699 -26.9212574773392 #
DXID-attrib $-1 -1 $-1 $94 $60 @18 ASM_EDGE_FROM_STEP @4 4094 #
coedge $-1 -1 $-1 $99 $97 $163 $164 reversed $48 $-1 #
coedge $-1 -1 $-1 $116 $165 $97 $133 reversed $78 $-1 #
edge $166 -1 $-1 $135 -0.78539816339743906 $167 0.78539816339745749 $97 $168 forward @7 unknown #
truecolor-adesk-attrib $-1 -1 $169 $-1 $98 -1029660512 #
vertex $-1 -1 $-1 $152 $170 #
straight-curve $-1 -1 $-1 -83.84644034317742 -43.916938028861289 -24.921257477339203 10 5.53363362508678e-34 -7.5766535278830891e-17 F 0.099999999999999645 F 0.10964964193552795 #
edge $171 -1 $-1 $104 0 $172 0.2096496419355276 $99 $173 forward @7 unknown #
truecolor-adesk-attrib $-1 -1 $174 $-1 $102 -1029660512 #
straight-curve $-1 -1 $-1 -81.749943923822144 -46.019811403208699 -24.921257477339203 0 0 -10 F 0 F 0.19999999999999973 #
DXID-attrib $-1 -1 $-1 $103 $69 @18 ASM_EDGE_FROM_STEP @4 4107 #
point $-1 -1 $-1 -81.749943923822144 -46.019811403208699 -24.921257477339203 #
DXID-attrib $-1 -1 $-1 $106 $70 @18 ASM_EDGE_FROM_STEP @4 4097 #
DXID-attrib $-1 -1 $-1 $108 $71 @18 ASM_FACE_FROM_STEP @16 step-1M-255-6606 #
truecolor-adesk-attrib $-1 -1 $175 $-1 $109 -1029660512 #
plane-surface $-1 -1 $-1 -83.84644034317742 -46.019811403208699 -24.921257477339203 -5.53363362508678e-35 1 0 1 5.53363362508678e-35 -7.5766535278830894e-18 forward_v I I I I #
DXID-attrib $-1 -1 $-1 $112 $77 @18 ASM_FACE_FROM_STEP @16 step-1M-255-6604 #
truecolor-adesk-attrib $-1 -1 $176 $-1 $113 -1029660512 #
loop $-1 -1 $-1 $-1 $177 $113 #
plane-surface $-1 -1 $-1 -83.84644034317742 -43.916938028861289 -24.921257477339203 1 6.9272342198274998e-36 0 6.9272342198274998e-36 -1 -6.3892458395897808e-18 forward_v I I I I #
coedge $-1 -1 $-1 $154 $153 $177 $178 reversed $114 $-1 #
coedge $-1 -1 $-1 $165 $116 $154 $179 reversed $78 $-1 #
edge $180 -1 $-1 $125 -0.29999999999999982 $135 0 $117 $181 forward @7 unknown #
coedge $-1 -1 $-1 $150 $118 $120 $158 reversed $114 $-1 #
coedge $-1 -1 $-1 $118 $150 $151 $179 forward $114 $-1 #
truecolor-adesk-attrib $-1 -1 $182 $-1 $119 -1029660512 #
straight-curve $-1 -1 $-1 -82.84644034317742 -44.442656372448091 -27.9212574773392 -6.9272342198274992e-35 10 0 F -0.15771550307606041 F 0.052571834358680292 #
coedge $-1 -1 $-1 $120 $127 $183 $184 forward $87 $-1 #
edge $185 -1 $-1 $186 -0.78539816339746171 $122 0.78539816339743485 $153 $187 forward @7 unknown #
DXID-attrib $-1 -1 $-1 $121 $84 @18 ASM_EDGE_FROM_STEP @4 4099 #
point $-1 -1 $-1 -82.84644034317742 -46.019811403208699 -27.9212574773392 #
DXID-attrib $-1 -1 $-1 $124 $85 @18 ASM_EDGE_FROM_STEP @4 4101 #
point $-1 -1 $-1 -82.84644034317742 -43.916938028861289 -27.9212574773392 #
coedge $-1 -1 $-1 $188 $183 $131 $164 forward $148 $-1 #
edge $189 -1 $-1 $172 0 $167 0.11028733743474106 $131 $190 forward @7 unknown #
coedge $-1 -1 $-1 $132 $151 $188 $191 reversed $78 $-1 #
truecolor-adesk-attrib $-1 -1 $192 $-1 $133 -1029660512 #
vertex $-1 -1 $-1 $133 $193 #
ellipse-curve $-1 -1 $-1 -82.84644034317742 -44.916938028861289 -24.921257477339203 7.5766535278830894e-18 -6.3892458395897792e-18 1 -0.70710678118654102 0.70710678118655401 9.8753821481089725e-18 1 F -0.78539816339743906 F 0.78539816339745749 #
DXID-attrib $-1 -1 $-1 $134 $98 @18 ASM_EDGE_FROM_STEP @4 4103 #
point $-1 -1 $-1 -82.84644034317742 -43.916938028861289 -24.921257477339203 #
truecolor-adesk-attrib $-1 -1 $194 $-1 $137 -1029660512 #
vertex $-1 -1 $-1 $164 $195 #
straight-curve $-1 -1 $-1 -81.749943923822144 -46.019811403208699 -24.921257477339203 -10 -5.53363362508678e-34 7.5766535278830891e-17 F 0 F 0.2096496419355276 #
DXID-attrib $-1 -1 $-1 $138 $102 @18 ASM_EDGE_FROM_STEP @4 4113 #
DXID-attrib $-1 -1 $-1 $144 $109 @18 ASM_FACE_FROM_STEP @16 step-1M-255-6607 #
DXID-attrib $-1 -1 $-1 $147 $113 @18 ASM_FACE_FROM_STEP @16 step-1M-255-6605 #
coedge $-1 -1 $-1 $183 $188 $150 $178 forward $148 $-1 #
edge $196 -1 $-1 $197 0.047428165641319353 $186 0.15771550307606041 $150 $198 forward @7 unknown #
edge $199 -1 $-1 $197 1.5707963267948966 $125 3.1415926535897931 $151 $200 forward @7 unknown #
truecolor-adesk-attrib $-1 -1 $201 $-1 $152 -1029660512 #
straight-curve $-1 -1 $-1 -82.84644034317742 -43.916938028861289 -24.921257477339203 0 0 10 F -0.29999999999999982 F 0 #
DXID-attrib $-1 -1 $-1 $155 $119 @18 ASM_EDGE_FROM_STEP @4 4100 #
coedge $-1 -1 $-1 $163 $177 $157 $184 reversed $148 $-1 #
edge $202 -1 $-1 $172 0 $186 0.19999999999999973 $183 $203 forward @7 unknown #
truecolor-adesk-attrib $-1 -1 $204 $-1 $158 -1029660512 #
vertex $-1 -1 $-1 $178 $205 #
ellipse-curve $-1 -1 $-1 -82.84644034317742 -46.019811403208699 -26.9212574773392 5.53363362508678e-35 -1 0 -0.70710678118653814 -3.9128698609007071e-35 -0.70710678118655712 1 F -0.78539816339746171 F 0.78539816339743485 #
coedge $-1 -1 $-1 $177 $163 $165 $191 forward $148 $-1 #
truecolor-adesk-attrib $-1 -1 $206 $-1 $164 -1029660512 #
straight-curve $-1 -1 $-1 -83.84644034317742 -46.019811403208699 -24.921257477339203 -6.9272342198274992e-35 10 6.3892458395897796e-17 F 0 F 0.11028733743474106 #
edge $207 -1 $-1 $167 0 $197 0.19999999999999973 $165 $208 forward @7 unknown #
DXID-attrib $-1 -1 $-1 $166 $133 @18 ASM_EDGE_FROM_STEP @4 4104 #
point $-1 -1 $-1 -83.84644034317742 -44.916938028861289 -24.921257477339203 #
DXID-attrib $-1 -1 $-1 $171 $137 @18 ASM_EDGE_FROM_STEP @4 4106 #
point $-1 -1 $-1 -83.84644034317742 -46.019811403208699 -24.921257477339203 #
truecolor-adesk-attrib $-1 -1 $209 $-1 $178 -1029660512 #
vertex $-1 -1 $-1 $179 $210 #
straight-curve $-1 -1 $-1 -83.84644034317742 -44.442656372448091 -26.9212574773392 6.9272342198274992e-35 -10 0 F 0.047428165641319353 F 0.15771550307606041 #
truecolor-adesk-attrib $-1 -1 $211 $-1 $179 -1029660512 #
ellipse-curve $-1 -1 $-1 -82.84644034317742 -44.916938028861289 -26.9212574773392 0 -0.70710678118654902 -0.70710678118654602 0 -1.0000000000000013 1.0000000000000056 0.70710678118654502 F 1.5707963267948966 F 3.1415926535897931 #
DXID-attrib $-1 -1 $-1 $180 $152 @18 ASM_EDGE_FROM_STEP @4 4102 #
truecolor-adesk-attrib $-1 -1 $212 $-1 $184 -1029660512 #
straight-curve $-1 -1 $-1 -83.84644034317742 -46.019811403208699 -24.921257477339203 0 0 -10 F 0 F 0.19999999999999973 #
DXID-attrib $-1 -1 $-1 $185 $158 @18 ASM_EDGE_FROM_STEP @4 4111 #
point $-1 -1 $-1 -83.84644034317742 -46.019811403208699 -26.9212574773392 #
DXID-attrib $-1 -1 $-1 $189 $164 @18 ASM_EDGE_FROM_STEP @4 4105 #
truecolor-adesk-attrib $-1 -1 $213 $-1 $191 -1029660512 #
straight-curve $-1 -1 $-1 -83.84644034317742 -44.916938028861289 -24.921257477339203 0 0 -10 F 0 F 0.19999999999999973 #
DXID-attrib $-1 -1 $-1 $196 $178 @18 ASM_EDGE_FROM_STEP @4 4110 #
point $-1 -1 $-1 -83.84644034317742 -44.916938028861289 -26.9212574773392 #
DXID-attrib $-1 -1 $-1 $199 $179 @18 ASM_EDGE_FROM_STEP @4 4108 #
DXID-attrib $-1 -1 $-1 $202 $184 @18 ASM_EDGE_FROM_STEP @4 4112 #
DXID-attrib $-1 -1 $-1 $207 $191 @18 ASM_EDGE_FROM_STEP @4 4109 #
