700 404 1 0         
5 ZWCAD 12 ACIS 28.0 NT 24 Sat May 11 14:40:49 2024 
1 9.9999999999999995e-07 1e-10 
body $1 -1 $-1 $2 $-1 $-1 #
DXID-attrib $-1 -1 $-1 $-1 $0 @18 ASM_BODY_FROM_STEP @83 1DE1FE08E0F644EC51133BAF352619EFC4C7D640|:|BFC9EA5CD132FA62781F2BEF794754DCF4FEBADA #
lump $-1 -1 $-1 $-1 $3 $0 #
shell $-1 -1 $-1 $-1 $-1 $4 $-1 $2 #
face $5 -1 $-1 $6 $7 $3 $-1 $8 reversed single #
truecolor-adesk-attrib $-1 -1 $9 $-1 $4 -1024534343 #
face $10 -1 $-1 $11 $12 $3 $-1 $13 forward single #
loop $-1 -1 $-1 $-1 $14 $4 #
cone-surface $-1 -1 $-1 372.70971636639928 1579.305919973481 -4.2632564145606011e-13 2.449293598294702e-16 -4.1796273405648517e-16 1 2.6669999999999994 -2.8434333870065733e-15 -6.5322660266519801e-16 1 I I 0 1 2.6669999999999994 forward I I I I #
DXID-attrib $-1 -1 $-1 $5 $4 @18 ASM_FACE_FROM_STEP @16 step-1M-587-8538 #
truecolor-adesk-attrib $-1 -1 $15 $-1 $6 -1024534343 #
face $16 -1 $-1 $17 $18 $3 $-1 $19 reversed single #
loop $-1 -1 $-1 $-1 $20 $6 #
plane-surface $-1 -1 $-1 372.70971636639928 1579.305919973481 12.699999999999534 -2.449293598294702e-16 4.1796273405648517e-16 -1 25.399999999999995 -2.7080317971491172e-14 -6.2212057396685529e-15 forward_v I I I I #
coedge $-1 -1 $-1 $21 $22 $23 $24 reversed $7 $-1 #
DXID-attrib $-1 -1 $-1 $10 $6 @18 ASM_FACE_FROM_STEP @16 step-1M-587-8539 #
truecolor-adesk-attrib $-1 -1 $25 $-1 $11 -1024534343 #
face $26 -1 $-1 $27 $28 $3 $-1 $29 forward single #
loop $-1 -1 $-1 $-1 $30 $11 #
cone-surface $-1 -1 $-1 692.74971636640032 1579.3059199734807 -4.8316906031686813e-13 2.449293598294702e-16 -4.1796273405648517e-16 1 2.6669999999999994 -2.8434333870065733e-15 -6.5322660266519801e-16 1 I I 0 1 2.6669999999999994 forward I I I I #
coedge $-1 -1 $-1 $20 $20 $31 $32 reversed $12 $-1 #
coedge $-1 -1 $-1 $31 $14 $22 $33 forward $7 $-1 #
coedge $-1 -1 $-1 $14 $31 $21 $33 reversed $7 $-1 #
coedge $-1 -1 $-1 $23 $23 $14 $24 forward $34 $-1 #
edge $35 -1 $-1 $36 -3.1415926535897931 $36 3.1415926535897931 $14 $37 forward @7 unknown #
DXID-attrib $-1 -1 $-1 $16 $11 @18 ASM_FACE_FROM_STEP @16 step-1M-587-8540 #
truecolor-adesk-attrib $-1 -1 $38 $-1 $17 -1024534343 #
face $39 -1 $-1 $40 $41 $3 $-1 $42 reversed single #
loop $-1 -1 $-1 $-1 $43 $17 #
plane-surface $-1 -1 $-1 692.74971636640032 1579.3059199734807 12.699999999999477 -2.449293598294702e-16 4.1796273405648517e-16 -1 25.399999999999995 -2.7080317971491172e-14 -6.2212057396685529e-15 forward_v I I I I #
coedge $-1 -1 $-1 $44 $45 $46 $47 reversed $18 $-1 #
coedge $-1 -1 $-1 $22 $21 $20 $32 forward $7 $-1 #
edge $48 -1 $-1 $49 -3.1415926535897931 $49 3.1415926535897931 $31 $50 forward @7 unknown #
edge $51 -1 $-1 $36 0 $49 4.7619047619047601 $21 $52 forward @7 unknown #
loop $-1 -1 $-1 $53 $23 $54 #
truecolor-adesk-attrib $-1 -1 $55 $-1 $24 -1024534343 #
vertex $-1 -1 $-1 $24 $56 #
ellipse-curve $-1 -1 $-1 372.70971636639928 1579.305919973481 -4.2632564145606011e-13 2.449293598294702e-16 -4.1796273405648517e-16 1 2.6669999999999994 -2.8434333870065733e-15 -6.5322660266519801e-16 1 I I #
DXID-attrib $-1 -1 $-1 $26 $17 @18 ASM_FACE_FROM_STEP @16 step-1M-587-8541 #
truecolor-adesk-attrib $-1 -1 $57 $-1 $27 -1024534343 #
face $58 -1 $-1 $59 $60 $3 $-1 $61 reversed single #
loop $-1 -1 $-1 $-1 $62 $27 #
cone-surface $-1 -1 $-1 375.24972051015027 1655.5230868930535 -3.694822225952521e-13 1.0661542508461095e-15 1 4.1796273405648493e-16 -2.7539999999999814 2.9361888068301651e-15 6.7453545697035765e-16 1 I I 0 1 2.7539999999999814 forward I I I I #
coedge $-1 -1 $-1 $43 $43 $63 $64 reversed $28 $-1 #
coedge $-1 -1 $-1 $63 $30 $45 $65 forward $18 $-1 #
coedge $-1 -1 $-1 $30 $63 $44 $65 reversed $18 $-1 #
coedge $-1 -1 $-1 $46 $46 $30 $47 forward $53 $-1 #
edge $66 -1 $-1 $67 -3.1415926535897931 $67 3.1415926535897931 $30 $68 forward @7 unknown #
truecolor-adesk-attrib $-1 -1 $69 $-1 $32 -1024534343 #
vertex $-1 -1 $-1 $33 $70 #
ellipse-curve $-1 -1 $-1 372.70971636639928 1579.305919973481 12.699999999999534 2.449293598294702e-16 -4.1796273405648517e-16 1 2.6669999999999994 -2.8434333870065733e-15 -6.5322660266519801e-16 1 I I #
truecolor-adesk-attrib $-1 -1 $71 $-1 $33 -1024534343 #
straight-curve $-1 -1 $-1 370.04271636639936 1579.305919973481 -3.694822225952521e-13 6.5322660266519683e-16 -1.1147066117286456e-15 2.6669999999999994 F 0 F 4.7619047619047601 #
loop $-1 -1 $-1 $-1 $46 $54 #
face $72 -1 $-1 $73 $74 $3 $-1 $75 reversed single #
DXID-attrib $-1 -1 $-1 $35 $24 @18 ASM_EDGE_FROM_STEP @4 5389 #
point $-1 -1 $-1 370.04271636639936 1579.305919973481 -3.694822225952521e-13 #
DXID-attrib $-1 -1 $-1 $39 $27 @18 ASM_FACE_FROM_STEP @16 step-1M-587-8542 #
truecolor-adesk-attrib $-1 -1 $76 $-1 $40 -1024534343 #
face $77 -1 $-1 $78 $79 $3 $-1 $80 reversed single #
loop $-1 -1 $-1 $-1 $81 $40 #
plane-surface $-1 -1 $-1 375.24972051015027 1647.5230868930526 -3.694822225952521e-13 -1.0661542508461095e-15 -1 -4.1796273405648493e-16 -25.399999999999995 2.7080317971491172e-14 6.2212057396685529e-15 forward_v I I I I #
coedge $-1 -1 $-1 $82 $83 $84 $85 forward $41 $-1 #
coedge $-1 -1 $-1 $45 $44 $43 $64 forward $18 $-1 #
edge $86 -1 $-1 $87 -3.1415926535897931 $87 3.1415926535897931 $63 $88 forward @7 unknown #
edge $89 -1 $-1 $67 0 $87 4.7619047619047601 $44 $90 forward @7 unknown #
truecolor-adesk-attrib $-1 -1 $91 $-1 $47 -1024534343 #
vertex $-1 -1 $-1 $47 $92 #
ellipse-curve $-1 -1 $-1 692.74971636640032 1579.3059199734807 -4.8316906031686813e-13 2.449293598294702e-16 -4.1796273405648517e-16 1 2.6669999999999994 -2.8434333870065733e-15 -6.5322660266519801e-16 1 I I #
DXID-attrib $-1 -1 $-1 $48 $32 @18 ASM_EDGE_FROM_STEP @4 5391 #
point $-1 -1 $-1 370.04271636639936 1579.305919973481 12.699999999999562 #
DXID-attrib $-1 -1 $-1 $51 $33 @18 ASM_EDGE_FROM_STEP @4 5390 #
truecolor-adesk-attrib $-1 -1 $93 $-1 $54 -1024534343 #
face $94 -1 $-1 $95 $96 $3 $-1 $97 reversed single #
loop $-1 -1 $-1 $34 $98 $54 #
plane-surface $-1 -1 $-1 540.34972051015018 1518.3630868930536 -4.2632564145606011e-13 2.449293598294702e-16 -4.1796273405648517e-16 1 -2.7080317971491175e-14 -25.399999999999995 -1.0616253445034714e-14 forward_v I I I I #
DXID-attrib $-1 -1 $-1 $58 $40 @18 ASM_FACE_FROM_STEP @16 step-1M-587-8543 #
truecolor-adesk-attrib $-1 -1 $99 $-1 $59 -1024534343 #
face $100 -1 $-1 $101 $102 $3 $-1 $103 reversed single #
loop $-1 -1 $-1 $-1 $104 $59 #
cone-surface $-1 -1 $-1 695.28972051014898 1655.5230868930532 -4.2632564145606011e-13 1.0661542508461095e-15 1 4.1796273405648493e-16 -2.7539999999999814 2.9361888068301651e-15 6.7453545697035765e-16 1 I I 0 1 2.7539999999999814 forward I I I I #
coedge $-1 -1 $-1 $105 $105 $106 $107 forward $60 $-1 #
coedge $-1 -1 $-1 $108 $62 $109 $110 forward $41 $-1 #
coedge $-1 -1 $-1 $62 $108 $105 $111 reversed $41 $-1 #
coedge $-1 -1 $-1 $106 $112 $62 $85 reversed $74 $-1 #
edge $113 -1 $-1 $114 -0.8000000000000963 $115 0 $62 $116 forward @7 unknown #
truecolor-adesk-attrib $-1 -1 $117 $-1 $64 -1024534343 #
vertex $-1 -1 $-1 $65 $118 #
ellipse-curve $-1 -1 $-1 692.74971636640032 1579.3059199734807 12.699999999999477 2.449293598294702e-16 -4.1796273405648517e-16 1 2.6669999999999994 -2.8434333870065733e-15 -6.5322660266519801e-16 1 I I #
truecolor-adesk-attrib $-1 -1 $119 $-1 $65 -1024534343 #
straight-curve $-1 -1 $-1 690.08271636640029 1579.3059199734807 -4.8316906031686813e-13 6.5322660266519683e-16 -1.1147066117286456e-15 2.6669999999999994 F 0 F 4.7619047619047601 #
DXID-attrib $-1 -1 $-1 $66 $47 @18 ASM_EDGE_FROM_STEP @4 5392 #
point $-1 -1 $-1 690.08271636640029 1579.3059199734807 -4.8316906031686813e-13 #
DXID-attrib $-1 -1 $-1 $72 $54 @18 ASM_FACE_FROM_STEP @16 step-1M-587-8553 #
truecolor-adesk-attrib $-1 -1 $120 $-1 $73 -1024534343 #
face $121 -1 $-1 $-1 $122 $3 $-1 $123 reversed single #
loop $-1 -1 $-1 $-1 $124 $73 #
plane-surface $-1 -1 $-1 337.14972051015019 1518.3630868930536 9.5249999999996078 1 -1.0661542508461093e-15 -2.4492935982947064e-16 6.2212057396685419e-15 -1.0616253445034721e-14 25.399999999999995 forward_v I I I I #
coedge $-1 -1 $-1 $125 $126 $127 $128 forward $74 $-1 #
DXID-attrib $-1 -1 $-1 $77 $59 @18 ASM_FACE_FROM_STEP @16 step-1M-587-8544 #
truecolor-adesk-attrib $-1 -1 $129 $-1 $78 -1024534343 #
face $130 -1 $-1 $131 $132 $3 $-1 $133 forward single #
loop $-1 -1 $-1 $-1 $134 $78 #
plane-surface $-1 -1 $-1 695.28972051014898 1647.5230868930521 -4.2632564145606011e-13 -1.0661542508461095e-15 -1 -4.1796273405648493e-16 -25.399999999999995 2.7080317971491172e-14 6.2212057396685529e-15 forward_v I I I I #
coedge $-1 -1 $-1 $135 $136 $137 $138 forward $79 $-1 #
coedge $-1 -1 $-1 $81 $81 $83 $111 forward $60 $-1 #
coedge $-1 -1 $-1 $139 $84 $81 $107 reversed $74 $-1 #
edge $140 -1 $-1 $141 7.9796000000002287 $114 8.530400000000018 $81 $142 forward @7 unknown #
coedge $-1 -1 $-1 $83 $82 $139 $143 forward $41 $-1 #
coedge $-1 -1 $-1 $144 $145 $82 $110 reversed $132 $-1 #
edge $146 -1 $-1 $115 0 $147 3.1415926535897931 $82 $148 forward @7 unknown #
edge $149 -1 $-1 $114 0 $141 3.1415926535897931 $83 $150 forward @7 unknown #
coedge $-1 -1 $-1 $84 $151 $144 $152 reversed $74 $-1 #
truecolor-adesk-attrib $-1 -1 $153 $-1 $85 -1024534343 #
vertex $-1 -1 $-1 $85 $154 #
vertex $-1 -1 $-1 $85 $155 #
straight-curve $-1 -1 $-1 372.49572051015008 1655.5230868930535 -3.694822225952521e-13 1.0661542508461098e-14 10.000000000000004 4.1796273405648506e-15 F -0.8000000000000963 F 0 #
DXID-attrib $-1 -1 $-1 $86 $64 @18 ASM_EDGE_FROM_STEP @4 5394 #
point $-1 -1 $-1 690.08271636640029 1579.3059199734807 12.699999999999477 #
DXID-attrib $-1 -1 $-1 $89 $65 @18 ASM_EDGE_FROM_STEP @4 5393 #
DXID-attrib $-1 -1 $-1 $94 $73 @18 ASM_FACE_FROM_STEP @16 step-1M-587-8554 #
truecolor-adesk-attrib $-1 -1 $156 $-1 $95 -1024534343 #
loop $-1 -1 $-1 $-1 $157 $95 #
plane-surface $-1 -1 $-1 743.54972051014886 1518.3630868930532 9.5249999999994657 -1 1.0661542508461093e-15 2.4492935982947064e-16 -6.2212057396685419e-15 1.0616253445034721e-14 -25.399999999999995 forward_v I I I I #
coedge $-1 -1 $-1 $158 $159 $151 $160 forward $96 $-1 #
coedge $-1 -1 $-1 $151 $98 $161 $162 forward $74 $-1 #
coedge $-1 -1 $-1 $98 $163 $164 $165 forward $74 $-1 #
coedge $-1 -1 $-1 $166 $167 $98 $128 reversed $168 $-1 #
edge $169 -1 $-1 $170 -0.80000000000011051 $171 0 $127 $172 forward @7 unknown #
DXID-attrib $-1 -1 $-1 $100 $78 @18 ASM_FACE_FROM_STEP @16 step-1M-587-8545 #
truecolor-adesk-attrib $-1 -1 $173 $-1 $101 -1024534343 #
face $174 -1 $-1 $175 $168 $3 $-1 $176 reversed single #
loop $-1 -1 $-1 $-1 $109 $101 #
plane-surface $-1 -1 $-1 540.34972051015029 1655.5230868930535 9.5249999999996078 1.0661542508461095e-15 1 4.1796273405648493e-16 6.2212057396685419e-15 -1.0616253445034721e-14 25.399999999999995 forward_v I I I I #
coedge $-1 -1 $-1 $177 $177 $178 $179 forward $102 $-1 #
coedge $-1 -1 $-1 $180 $104 $181 $182 forward $79 $-1 #
coedge $-1 -1 $-1 $104 $180 $177 $183 reversed $79 $-1 #
coedge $-1 -1 $-1 $178 $184 $104 $138 reversed $74 $-1 #
edge $185 -1 $-1 $186 -0.8000000000000963 $187 0 $104 $188 forward @7 unknown #
coedge $-1 -1 $-1 $184 $106 $108 $143 reversed $74 $-1 #
truecolor-adesk-attrib $-1 -1 $189 $-1 $107 -1024534343 #
vertex $-1 -1 $-1 $143 $190 #
straight-curve $-1 -1 $-1 457.79972051015034 1647.5230868930526 -3.694822225952521e-13 -10.000000000000004 1.0661542508461095e-14 2.4492935982947069e-15 F 7.9796000000002287 F 8.530400000000018 #
edge $191 -1 $-1 $147 0 $141 0.8000000000000963 $108 $192 forward @7 unknown #
coedge $-1 -1 $-1 $193 $109 $112 $152 forward $132 $-1 #
coedge $-1 -1 $-1 $109 $181 $184 $194 forward $132 $-1 #
truecolor-adesk-attrib $-1 -1 $195 $-1 $110 -1024534343 #
vertex $-1 -1 $-1 $110 $196 #
ellipse-curve $-1 -1 $-1 375.24972051015027 1655.5230868930535 -3.694822225952521e-13 1.0661542508461095e-15 1 4.1796273405648493e-16 -2.7539999999999814 2.9361888068301651e-15 6.7453545697035765e-16 1 F 0 F 3.1415926535897931 #
truecolor-adesk-attrib $-1 -1 $197 $-1 $111 -1024534343 #
ellipse-curve $-1 -1 $-1 375.24972051015027 1647.5230868930526 -3.694822225952521e-13 1.0661542508461095e-15 1 4.1796273405648493e-16 -2.7539999999999814 2.9361888068301651e-15 6.7453545697035765e-16 1 F 0 F 3.1415926535897931 #
coedge $-1 -1 $-1 $112 $125 $124 $160 reversed $74 $-1 #
edge $198 -1 $-1 $115 16.785400000000013 $199 20.319999999999986 $144 $200 forward @7 unknown #
DXID-attrib $-1 -1 $-1 $113 $85 @18 ASM_EDGE_FROM_STEP @4 5395 #
point $-1 -1 $-1 372.49572051015008 1647.5230868930526 -3.694822225952521e-13 #
point $-1 -1 $-1 372.49572051015008 1655.5230868930535 -3.694822225952521e-13 #
DXID-attrib $-1 -1 $-1 $121 $95 @18 ASM_FACE_FROM_STEP @16 step-1M-587-8555 #
coedge $-1 -1 $-1 $201 $202 $203 $204 forward $122 $-1 #
coedge $-1 -1 $-1 $205 $124 $206 $207 reversed $96 $-1 #
coedge $-1 -1 $-1 $124 $205 $193 $208 forward $96 $-1 #
edge $209 -1 $-1 $199 -4.572000000000001 $210 13.715999999999989 $151 $211 forward @7 unknown #
coedge $-1 -1 $-1 $212 $206 $125 $162 reversed $213 $-1 #
edge $214 -1 $-1 $171 16.785400000000013 $210 20.319999999999986 $161 $215 forward @7 unknown #
coedge $-1 -1 $-1 $126 $216 $217 $218 forward $74 $-1 #
coedge $-1 -1 $-1 $219 $219 $126 $165 reversed $220 $-1 #
edge $221 -1 $-1 $222 7.9796000000002287 $170 8.530400000000018 $164 $223 forward @7 unknown #
coedge $-1 -1 $-1 $217 $127 $219 $224 forward $168 $-1 #
coedge $-1 -1 $-1 $127 $217 $212 $225 reversed $168 $-1 #
loop $-1 -1 $-1 $-1 $127 $131 #
truecolor-adesk-attrib $-1 -1 $226 $-1 $128 -1024534343 #
vertex $-1 -1 $-1 $128 $227 #
vertex $-1 -1 $-1 $128 $228 #
straight-curve $-1 -1 $-1 372.49572051014991 1472.6430868930536 -4.8316906031686813e-13 -1.0661542508461098e-14 -10.000000000000004 -4.1796273405648506e-15 F -0.80000000000011051 F 0 #
DXID-attrib $-1 -1 $-1 $130 $101 @18 ASM_FACE_FROM_STEP @16 step-1M-587-8546 #
truecolor-adesk-attrib $-1 -1 $229 $-1 $131 -1024534343 #
face $230 -1 $-1 $231 $220 $3 $-1 $232 forward single #
cone-surface $-1 -1 $-1 375.2497205101501 1472.6430868930536 -4.8316906031686813e-13 1.0661542508461095e-15 1 4.1796273405648493e-16 -2.7539999999999814 2.9361888068301651e-15 6.7453545697035765e-16 1 I I 0 1 2.7539999999999814 forward I I I I #
coedge $-1 -1 $-1 $134 $134 $136 $183 forward $102 $-1 #
coedge $-1 -1 $-1 $233 $137 $134 $179 reversed $74 $-1 #
edge $234 -1 $-1 $235 -8.0223999999999869 $186 -7.471600000000004 $134 $236 forward @7 unknown #
coedge $-1 -1 $-1 $136 $135 $233 $237 forward $79 $-1 #
coedge $-1 -1 $-1 $145 $238 $135 $182 reversed $132 $-1 #
edge $239 -1 $-1 $187 0 $240 3.1415926535897931 $135 $241 forward @7 unknown #
edge $242 -1 $-1 $186 0 $235 3.1415926535897931 $136 $243 forward @7 unknown #
coedge $-1 -1 $-1 $137 $139 $145 $194 reversed $74 $-1 #
truecolor-adesk-attrib $-1 -1 $244 $-1 $138 -1024534343 #
vertex $-1 -1 $-1 $138 $245 #
vertex $-1 -1 $-1 $138 $246 #
straight-curve $-1 -1 $-1 692.53572051014908 1655.5230868930532 -4.2632564145606011e-13 1.0661542508461098e-14 10.000000000000004 4.1796273405648506e-15 F -0.8000000000000963 F 0 #
DXID-attrib $-1 -1 $-1 $140 $107 @18 ASM_EDGE_FROM_STEP @4 5399 #
point $-1 -1 $-1 378.00372051014801 1647.5230868930526 -3.694822225952521e-13 #
truecolor-adesk-attrib $-1 -1 $247 $-1 $143 -1024534343 #
straight-curve $-1 -1 $-1 378.00372051014801 1655.5230868930535 -3.694822225952521e-13 -1.0661542508461098e-14 -10.000000000000004 -4.1796273405648506e-15 F 0 F 0.8000000000000963 #
coedge $-1 -1 $-1 $248 $144 $159 $208 reversed $132 $-1 #
edge $249 -1 $-1 $187 -15.218599999999876 $147 16.234600000000224 $145 $250 forward @7 unknown #
DXID-attrib $-1 -1 $-1 $146 $110 @18 ASM_EDGE_FROM_STEP @4 5396 #
point $-1 -1 $-1 378.00372051014801 1655.5230868930535 -3.694822225952521e-13 #
DXID-attrib $-1 -1 $-1 $149 $111 @18 ASM_EDGE_FROM_STEP @4 5398 #
truecolor-adesk-attrib $-1 -1 $251 $-1 $152 -1024534343 #
vertex $-1 -1 $-1 $152 $252 #
straight-curve $-1 -1 $-1 540.34972051015029 1655.5230868930535 -3.694822225952521e-13 -10.000000000000004 1.0661542508461095e-14 2.4492935982947069e-15 F 16.785400000000013 F 20.319999999999986 #
coedge $-1 -1 $-1 $253 $157 $254 $255 reversed $122 $-1 #
coedge $-1 -1 $-1 $157 $253 $256 $257 reversed $122 $-1 #
coedge $-1 -1 $-1 $258 $259 $157 $204 reversed $213 $-1 #
edge $260 -1 $-1 $261 -0.95250000000000012 $262 0.95250000000000012 $203 $263 forward @7 unknown #
coedge $-1 -1 $-1 $159 $158 $264 $265 reversed $96 $-1 #
coedge $-1 -1 $-1 $161 $258 $158 $207 forward $213 $-1 #
edge $266 -1 $-1 $267 -0.95250000000000012 $210 0.95250000000000012 $206 $268 forward @7 unknown #
edge $269 -1 $-1 $270 -0.95250000000000012 $199 0.95250000000000012 $193 $271 forward @7 unknown #
truecolor-adesk-attrib $-1 -1 $272 $-1 $160 -1024534343 #
vertex $-1 -1 $-1 $207 $273 #
straight-curve $-1 -1 $-1 337.1497205101503 1609.8030868930537 -3.4106051316484809e-13 -1.0661542508461098e-14 -10.000000000000004 -4.1796273405648506e-15 F -4.572000000000001 F 13.715999999999989 #
coedge $-1 -1 $-1 $274 $161 $167 $225 forward $213 $-1 #
loop $-1 -1 $-1 $-1 $212 $275 #
truecolor-adesk-attrib $-1 -1 $276 $-1 $162 -1024534343 #
straight-curve $-1 -1 $-1 540.34972051015006 1472.6430868930534 -4.8316906031686813e-13 -10.000000000000004 1.0661542508461095e-14 2.4492935982947069e-15 F 16.785400000000013 F 20.319999999999986 #
coedge $-1 -1 $-1 $163 $277 $274 $278 forward $74 $-1 #
coedge $-1 -1 $-1 $167 $166 $163 $218 reversed $168 $-1 #
edge $279 -1 $-1 $280 0 $222 0.79999999999984051 $217 $281 forward @7 unknown #
coedge $-1 -1 $-1 $164 $164 $166 $224 reversed $220 $-1 #
loop $-1 -1 $-1 $-1 $164 $175 #
truecolor-adesk-attrib $-1 -1 $282 $-1 $165 -1024534343 #
vertex $-1 -1 $-1 $224 $283 #
straight-curve $-1 -1 $-1 457.79972051015017 1480.6430868930547 -4.8316906031686813e-13 -10.000000000000004 1.0661542508461095e-14 2.4492935982947069e-15 F 7.9796000000002287 F 8.530400000000018 #
edge $284 -1 $-1 $170 0 $222 3.1415926535897931 $166 $285 forward @7 unknown #
edge $286 -1 $-1 $171 0 $280 3.1415926535897931 $167 $287 forward @7 unknown #
DXID-attrib $-1 -1 $-1 $169 $128 @18 ASM_EDGE_FROM_STEP @4 5411 #
point $-1 -1 $-1 372.49572051014991 1480.6430868930547 -4.8316906031686813e-13 #
point $-1 -1 $-1 372.49572051014991 1472.6430868930536 -4.8316906031686813e-13 #
DXID-attrib $-1 -1 $-1 $174 $131 @18 ASM_FACE_FROM_STEP @16 step-1M-587-8547 #
truecolor-adesk-attrib $-1 -1 $288 $-1 $175 -1024534343 #
face $289 -1 $-1 $290 $291 $3 $-1 $292 reversed single #
plane-surface $-1 -1 $-1 375.2497205101501 1480.643086893052 -4.8316906031686813e-13 -1.0661542508461095e-15 -1 -4.1796273405648493e-16 -25.399999999999995 2.7080317971491172e-14 6.2212057396685529e-15 forward_v I I I I #
coedge $-1 -1 $-1 $293 $178 $180 $237 reversed $74 $-1 #
truecolor-adesk-attrib $-1 -1 $294 $-1 $179 -1024534343 #
vertex $-1 -1 $-1 $237 $295 #
straight-curve $-1 -1 $-1 617.81972051014907 1647.5230868930523 -4.2632564145606011e-13 -10.000000000000004 1.0661542508461095e-14 2.4492935982947069e-15 F -8.0223999999999869 F -7.471600000000004 #
edge $296 -1 $-1 $240 0 $235 0.8000000000000963 $180 $297 forward @7 unknown #
coedge $-1 -1 $-1 $181 $298 $293 $299 forward $132 $-1 #
truecolor-adesk-attrib $-1 -1 $300 $-1 $182 -1024534343 #
vertex $-1 -1 $-1 $182 $301 #
ellipse-curve $-1 -1 $-1 695.28972051014898 1655.5230868930532 -4.2632564145606011e-13 1.0661542508461095e-15 1 4.1796273405648493e-16 -2.7539999999999814 2.9361888068301651e-15 6.7453545697035765e-16 1 F 0 F 3.1415926535897931 #
truecolor-adesk-attrib $-1 -1 $302 $-1 $183 -1024534343 #
ellipse-curve $-1 -1 $-1 695.28972051014898 1647.5230868930521 -4.2632564145606011e-13 1.0661542508461095e-15 1 4.1796273405648493e-16 -2.7539999999999814 2.9361888068301651e-15 6.7453545697035765e-16 1 F 0 F 3.1415926535897931 #
DXID-attrib $-1 -1 $-1 $185 $138 @18 ASM_EDGE_FROM_STEP @4 5400 #
point $-1 -1 $-1 692.53572051014908 1647.5230868930521 -4.2632564145606011e-13 #
point $-1 -1 $-1 692.53572051014908 1655.5230868930532 -4.2632564145606011e-13 #
DXID-attrib $-1 -1 $-1 $191 $143 @18 ASM_EDGE_FROM_STEP @4 5397 #
coedge $-1 -1 $-1 $298 $193 $303 $304 forward $132 $-1 #
truecolor-adesk-attrib $-1 -1 $305 $-1 $194 -1024534343 #
straight-curve $-1 -1 $-1 540.34972051015029 1655.5230868930535 -3.694822225952521e-13 -10.000000000000004 1.0661542508461095e-14 2.4492935982947069e-15 F -15.218599999999876 F 16.234600000000224 #
DXID-attrib $-1 -1 $-1 $198 $152 @18 ASM_EDGE_FROM_STEP @4 5405 #
point $-1 -1 $-1 337.14972051015036 1655.5230868930535 -3.4106051316484809e-13 #
coedge $-1 -1 $-1 $202 $201 $298 $306 reversed $122 $-1 #
coedge $-1 -1 $-1 $307 $293 $201 $255 forward $74 $-1 #
edge $308 -1 $-1 $309 -13.715999999999989 $262 4.572000000000001 $254 $310 forward @7 unknown #
coedge $-1 -1 $-1 $303 $311 $202 $257 forward $312 $-1 #
edge $313 -1 $-1 $261 -4.572000000000001 $314 13.715999999999989 $256 $315 forward @7 unknown #
coedge $-1 -1 $-1 $206 $203 $311 $316 reversed $213 $-1 #
coedge $-1 -1 $-1 $203 $317 $307 $318 reversed $213 $-1 #
truecolor-adesk-attrib $-1 -1 $319 $-1 $204 -1024534343 #
vertex $-1 -1 $-1 $204 $320 #
vertex $-1 -1 $-1 $318 $321 #
straight-curve $-1 -1 $-1 743.54972051014886 1472.6430868930531 9.5249999999994373 -2.4492935982947022e-15 4.1796273405648529e-15 -10.000000000000004 F -0.95250000000000012 F 0.95250000000000012 #
coedge $-1 -1 $-1 $311 $303 $205 $265 forward $312 $-1 #
edge $322 -1 $-1 $270 -13.715999999999989 $267 4.572000000000001 $264 $323 forward @7 unknown #
truecolor-adesk-attrib $-1 -1 $324 $-1 $207 -1024534343 #
vertex $-1 -1 $-1 $316 $325 #
straight-curve $-1 -1 $-1 337.14972051015019 1472.6430868930536 9.5249999999995794 -2.4492935982947022e-15 4.1796273405648529e-15 -10.000000000000004 F -0.95250000000000012 F 0.95250000000000012 #
truecolor-adesk-attrib $-1 -1 $326 $-1 $208 -1024534343 #
vertex $-1 -1 $-1 $208 $327 #
straight-curve $-1 -1 $-1 337.14972051015036 1655.5230868930535 9.5249999999996646 -2.4492935982947022e-15 4.1796273405648529e-15 -10.000000000000004 F -0.95250000000000012 F 0.95250000000000012 #
DXID-attrib $-1 -1 $-1 $209 $160 @18 ASM_EDGE_FROM_STEP @4 5429 #
point $-1 -1 $-1 337.14972051015019 1472.6430868930536 -4.2632564145606011e-13 #
coedge $-1 -1 $-1 $317 $212 $216 $278 reversed $213 $-1 #
face $328 -1 $-1 $329 $213 $3 $-1 $330 reversed single #
DXID-attrib $-1 -1 $-1 $214 $162 @18 ASM_EDGE_FROM_STEP @4 5426 #
coedge $-1 -1 $-1 $216 $331 $332 $333 forward $74 $-1 #
edge $334 -1 $-1 $335 -15.218599999999876 $280 16.234600000000224 $274 $336 forward @7 unknown #
truecolor-adesk-attrib $-1 -1 $337 $-1 $218 -1024534343 #
vertex $-1 -1 $-1 $218 $338 #
straight-curve $-1 -1 $-1 378.00372051014784 1472.6430868930536 -4.8316906031686813e-13 1.0661542508461098e-14 10.000000000000004 4.1796273405648506e-15 F 0 F 0.79999999999984051 #
DXID-attrib $-1 -1 $-1 $221 $165 @18 ASM_EDGE_FROM_STEP @4 5415 #
point $-1 -1 $-1 378.00372051014784 1480.643086893052 -4.8316906031686813e-13 #
truecolor-adesk-attrib $-1 -1 $339 $-1 $224 -1024534343 #
ellipse-curve $-1 -1 $-1 375.2497205101501 1480.643086893052 -4.8316906031686813e-13 1.0661542508461095e-15 1 4.1796273405648493e-16 -2.7539999999999814 2.9361888068301651e-15 6.7453545697035765e-16 1 F 0 F 3.1415926535897931 #
truecolor-adesk-attrib $-1 -1 $340 $-1 $225 -1024534343 #
ellipse-curve $-1 -1 $-1 375.2497205101501 1472.6430868930536 -4.8316906031686813e-13 1.0661542508461095e-15 1 4.1796273405648493e-16 -2.7539999999999814 2.9361888068301651e-15 6.7453545697035765e-16 1 F 0 F 3.1415926535897931 #
DXID-attrib $-1 -1 $-1 $230 $175 @18 ASM_FACE_FROM_STEP @16 step-1M-587-8548 #
truecolor-adesk-attrib $-1 -1 $341 $-1 $231 -1024534343 #
face $342 -1 $-1 $275 $343 $3 $-1 $344 forward single #
loop $-1 -1 $-1 $-1 $332 $231 #
cone-surface $-1 -1 $-1 695.28972051014887 1472.6430868930534 -5.1159076974727213e-13 1.0661542508461095e-15 1 4.1796273405648493e-16 -2.7539999999999814 2.9361888068301651e-15 6.7453545697035765e-16 1 I I 0 1 2.7539999999999814 forward I I I I #
coedge $-1 -1 $-1 $254 $233 $238 $299 reversed $74 $-1 #
DXID-attrib $-1 -1 $-1 $234 $179 @18 ASM_EDGE_FROM_STEP @4 5404 #
point $-1 -1 $-1 698.04372051014889 1647.5230868930521 -4.2632564145606011e-13 #
truecolor-adesk-attrib $-1 -1 $345 $-1 $237 -1024534343 #
straight-curve $-1 -1 $-1 698.04372051014889 1655.5230868930532 -4.2632564145606011e-13 -1.0661542508461098e-14 -10.000000000000004 -4.1796273405648506e-15 F 0 F 0.8000000000000963 #
coedge $-1 -1 $-1 $238 $248 $253 $306 forward $132 $-1 #
edge $346 -1 $-1 $309 -20.319999999999862 $240 -15.769399999999859 $238 $347 forward @7 unknown #
DXID-attrib $-1 -1 $-1 $239 $182 @18 ASM_EDGE_FROM_STEP @4 5401 #
point $-1 -1 $-1 698.04372051014889 1655.5230868930532 -4.2632564145606011e-13 #
DXID-attrib $-1 -1 $-1 $242 $183 @18 ASM_EDGE_FROM_STEP @4 5403 #
coedge $-1 -1 $-1 $264 $256 $248 $304 reversed $312 $-1 #
edge $348 -1 $-1 $270 -20.319999999999986 $314 20.319999999999862 $248 $349 forward @7 unknown #
DXID-attrib $-1 -1 $-1 $249 $194 @18 ASM_EDGE_FROM_STEP @4 5410 #
edge $350 -1 $-1 $314 -0.95250000000000012 $309 0.95250000000000012 $298 $351 forward @7 unknown #
coedge $-1 -1 $-1 $352 $254 $259 $318 forward $74 $-1 #
truecolor-adesk-attrib $-1 -1 $353 $-1 $255 -1024534343 #
vertex $-1 -1 $-1 $306 $354 #
straight-curve $-1 -1 $-1 743.54972051014886 1518.3630868930532 -5.1159076974727213e-13 -1.0661542508461098e-14 -10.000000000000004 -4.1796273405648506e-15 F -13.715999999999989 F 4.572000000000001 #
coedge $-1 -1 $-1 $256 $264 $258 $316 forward $312 $-1 #
loop $-1 -1 $-1 $-1 $311 $329 #
truecolor-adesk-attrib $-1 -1 $355 $-1 $257 -1024534343 #
vertex $-1 -1 $-1 $304 $356 #
straight-curve $-1 -1 $-1 743.54972051014886 1518.3630868930532 19.049999999999471 1.0661542508461098e-14 10.000000000000004 4.1796273405648506e-15 F -4.572000000000001 F 13.715999999999989 #
edge $357 -1 $-1 $267 -20.319999999999986 $261 20.319999999999862 $258 $358 forward @7 unknown #
coedge $-1 -1 $-1 $259 $274 $359 $360 forward $213 $-1 #
edge $361 -1 $-1 $262 -20.319999999999862 $362 -15.769399999999859 $259 $363 forward @7 unknown #
DXID-attrib $-1 -1 $-1 $260 $204 @18 ASM_EDGE_FROM_STEP @4 5423 #
point $-1 -1 $-1 743.54972051014886 1472.6430868930531 19.049999999999443 #
point $-1 -1 $-1 743.54972051014886 1472.6430868930531 -5.6843418860808015e-13 #
truecolor-adesk-attrib $-1 -1 $364 $-1 $265 -1024534343 #
straight-curve $-1 -1 $-1 337.14972051015019 1518.3630868930536 19.049999999999613 -1.0661542508461098e-14 -10.000000000000004 -4.1796273405648506e-15 F -13.715999999999989 F 4.572000000000001 #
DXID-attrib $-1 -1 $-1 $266 $207 @18 ASM_EDGE_FROM_STEP @4 5425 #
point $-1 -1 $-1 337.14972051015019 1472.6430868930536 19.049999999999557 #
DXID-attrib $-1 -1 $-1 $269 $208 @18 ASM_EDGE_FROM_STEP @4 5406 #
point $-1 -1 $-1 337.14972051015036 1655.5230868930535 19.04999999999967 #
truecolor-adesk-attrib $-1 -1 $365 $-1 $275 -1024534343 #
face $366 -1 $-1 $54 $312 $3 $-1 $367 forward single #
plane-surface $-1 -1 $-1 540.34972051015006 1472.6430868930534 9.5249999999995225 1.0661542508461095e-15 1 4.1796273405648493e-16 6.2212057396685419e-15 -1.0616253445034721e-14 25.399999999999995 forward_v I I I I #
coedge $-1 -1 $-1 $277 $352 $368 $369 forward $74 $-1 #
coedge $-1 -1 $-1 $370 $359 $277 $333 reversed $291 $-1 #
edge $371 -1 $-1 $372 -0.80000000000011051 $335 0 $332 $373 forward @7 unknown #
truecolor-adesk-attrib $-1 -1 $374 $-1 $278 -1024534343 #
vertex $-1 -1 $-1 $333 $375 #
straight-curve $-1 -1 $-1 540.34972051015006 1472.6430868930534 -4.8316906031686813e-13 -10.000000000000004 1.0661542508461095e-14 2.4492935982947069e-15 F -15.218599999999876 F 16.234600000000224 #
DXID-attrib $-1 -1 $-1 $279 $218 @18 ASM_EDGE_FROM_STEP @4 5413 #
point $-1 -1 $-1 378.00372051014784 1472.6430868930536 -4.8316906031686813e-13 #
DXID-attrib $-1 -1 $-1 $284 $224 @18 ASM_EDGE_FROM_STEP @4 5412 #
DXID-attrib $-1 -1 $-1 $286 $225 @18 ASM_EDGE_FROM_STEP @4 5414 #
DXID-attrib $-1 -1 $-1 $289 $231 @18 ASM_FACE_FROM_STEP @16 step-1M-587-8549 #
truecolor-adesk-attrib $-1 -1 $376 $-1 $290 -1024534343 #
loop $-1 -1 $-1 $-1 $368 $290 #
plane-surface $-1 -1 $-1 695.28972051014887 1480.6430868930518 -5.1159076974727213e-13 -1.0661542508461095e-15 -1 -4.1796273405648493e-16 -25.399999999999995 2.7080317971491172e-14 6.2212057396685529e-15 forward_v I I I I #
DXID-attrib $-1 -1 $-1 $296 $237 @18 ASM_EDGE_FROM_STEP @4 5402 #
truecolor-adesk-attrib $-1 -1 $377 $-1 $299 -1024534343 #
straight-curve $-1 -1 $-1 540.34972051015029 1655.5230868930535 -3.694822225952521e-13 -10.000000000000004 1.0661542508461095e-14 2.4492935982947069e-15 F -20.319999999999862 F -15.769399999999859 #
truecolor-adesk-attrib $-1 -1 $378 $-1 $304 -1024534343 #
straight-curve $-1 -1 $-1 540.34972051015029 1655.5230868930535 19.049999999999613 10.000000000000004 -1.0661542508461095e-14 -2.4492935982947069e-15 F -20.319999999999986 F 20.319999999999862 #
truecolor-adesk-attrib $-1 -1 $379 $-1 $306 -1024534343 #
straight-curve $-1 -1 $-1 743.54972051014897 1655.523086893053 9.5249999999995225 -2.4492935982947022e-15 4.1796273405648529e-15 -10.000000000000004 F -0.95250000000000012 F 0.95250000000000012 #
coedge $-1 -1 $-1 $331 $307 $380 $381 forward $74 $-1 #
DXID-attrib $-1 -1 $-1 $308 $255 @18 ASM_EDGE_FROM_STEP @4 5430 #
point $-1 -1 $-1 743.54972051014897 1655.523086893053 -4.8316906031686813e-13 #
DXID-attrib $-1 -1 $-1 $313 $257 @18 ASM_EDGE_FROM_STEP @4 5427 #
point $-1 -1 $-1 743.54972051014897 1655.523086893053 19.049999999999528 #
truecolor-adesk-attrib $-1 -1 $382 $-1 $316 -1024534343 #
straight-curve $-1 -1 $-1 540.34972051015006 1472.6430868930534 19.049999999999528 10.000000000000004 -1.0661542508461095e-14 -2.4492935982947069e-15 F -20.319999999999986 F 20.319999999999862 #
coedge $-1 -1 $-1 $332 $380 $317 $360 reversed $291 $-1 #
edge $383 -1 $-1 $335 0 $362 3.1415926535897931 $359 $384 forward @7 unknown #
truecolor-adesk-attrib $-1 -1 $385 $-1 $318 -1024534343 #
vertex $-1 -1 $-1 $381 $386 #
straight-curve $-1 -1 $-1 540.34972051015006 1472.6430868930534 -4.8316906031686813e-13 -10.000000000000004 1.0661542508461095e-14 2.4492935982947069e-15 F -20.319999999999862 F -15.769399999999859 #
DXID-attrib $-1 -1 $-1 $322 $265 @18 ASM_EDGE_FROM_STEP @4 5428 #
DXID-attrib $-1 -1 $-1 $328 $275 @18 ASM_FACE_FROM_STEP @16 step-1M-587-8551 #
truecolor-adesk-attrib $-1 -1 $387 $-1 $329 -1024534343 #
plane-surface $-1 -1 $-1 540.34972051015018 1518.3630868930536 19.049999999999557 2.449293598294702e-16 -4.1796273405648517e-16 1 -2.7080317971491175e-14 -25.399999999999995 -1.0616253445034714e-14 forward_v I I I I #
coedge $-1 -1 $-1 $388 $388 $331 $369 reversed $343 $-1 #
edge $389 -1 $-1 $390 -8.0223999999999869 $372 -7.471600000000004 $368 $391 forward @7 unknown #
coedge $-1 -1 $-1 $380 $332 $388 $392 forward $291 $-1 #
truecolor-adesk-attrib $-1 -1 $393 $-1 $333 -1024534343 #
vertex $-1 -1 $-1 $333 $394 #
straight-curve $-1 -1 $-1 692.53572051014885 1472.6430868930534 -5.1159076974727213e-13 -1.0661542508461098e-14 -10.000000000000004 -4.1796273405648506e-15 F -0.80000000000011051 F 0 #
DXID-attrib $-1 -1 $-1 $334 $278 @18 ASM_EDGE_FROM_STEP @4 5421 #
point $-1 -1 $-1 692.53572051014885 1472.6430868930534 -5.1159076974727213e-13 #
DXID-attrib $-1 -1 $-1 $342 $290 @18 ASM_FACE_FROM_STEP @16 step-1M-587-8550 #
DXID-attrib $-1 -1 $-1 $346 $299 @18 ASM_EDGE_FROM_STEP @4 5409 #
DXID-attrib $-1 -1 $-1 $348 $304 @18 ASM_EDGE_FROM_STEP @4 5407 #
DXID-attrib $-1 -1 $-1 $350 $306 @18 ASM_EDGE_FROM_STEP @4 5408 #
coedge $-1 -1 $-1 $359 $370 $352 $381 reversed $291 $-1 #
edge $395 -1 $-1 $362 0 $390 0.79999999999984051 $380 $396 forward @7 unknown #
DXID-attrib $-1 -1 $-1 $357 $316 @18 ASM_EDGE_FROM_STEP @4 5424 #
truecolor-adesk-attrib $-1 -1 $397 $-1 $360 -1024534343 #
ellipse-curve $-1 -1 $-1 695.28972051014887 1472.6430868930534 -5.1159076974727213e-13 1.0661542508461095e-15 1 4.1796273405648493e-16 -2.7539999999999814 2.9361888068301651e-15 6.7453545697035765e-16 1 F 0 F 3.1415926535897931 #
DXID-attrib $-1 -1 $-1 $361 $318 @18 ASM_EDGE_FROM_STEP @4 5422 #
point $-1 -1 $-1 698.04372051014877 1472.6430868930534 -5.1159076974727213e-13 #
DXID-attrib $-1 -1 $-1 $366 $329 @18 ASM_FACE_FROM_STEP @16 step-1M-587-8552 #
coedge $-1 -1 $-1 $368 $368 $370 $392 reversed $343 $-1 #
truecolor-adesk-attrib $-1 -1 $398 $-1 $369 -1024534343 #
vertex $-1 -1 $-1 $392 $399 #
straight-curve $-1 -1 $-1 617.81972051014895 1480.6430868930545 -5.1159076974727213e-13 -10.000000000000004 1.0661542508461095e-14 2.4492935982947069e-15 F -8.0223999999999869 F -7.471600000000004 #
edge $400 -1 $-1 $372 0 $390 3.1415926535897931 $370 $401 forward @7 unknown #
DXID-attrib $-1 -1 $-1 $371 $333 @18 ASM_EDGE_FROM_STEP @4 5416 #
point $-1 -1 $-1 692.53572051014896 1480.6430868930543 -5.1159076974727213e-13 #
truecolor-adesk-attrib $-1 -1 $402 $-1 $381 -1024534343 #
straight-curve $-1 -1 $-1 698.04372051014877 1472.6430868930534 -5.1159076974727213e-13 1.0661542508461098e-14 10.000000000000004 4.1796273405648506e-15 F 0 F 0.79999999999984051 #
DXID-attrib $-1 -1 $-1 $383 $360 @18 ASM_EDGE_FROM_STEP @4 5419 #
DXID-attrib $-1 -1 $-1 $389 $369 @18 ASM_EDGE_FROM_STEP @4 5420 #
point $-1 -1 $-1 698.04372051014877 1480.6430868930518 -5.1159076974727213e-13 #
truecolor-adesk-attrib $-1 -1 $403 $-1 $392 -1024534343 #
ellipse-curve $-1 -1 $-1 695.28972051014887 1480.6430868930518 -5.1159076974727213e-13 1.0661542508461095e-15 1 4.1796273405648493e-16 -2.7539999999999814 2.9361888068301651e-15 6.7453545697035765e-16 1 F 0 F 3.1415926535897931 #
DXID-attrib $-1 -1 $-1 $395 $381 @18 ASM_EDGE_FROM_STEP @4 5418 #
DXID-attrib $-1 -1 $-1 $400 $392 @18 ASM_EDGE_FROM_STEP @4 5417 #
