700 346 1 0         
5 ZWCAD 12 ACIS 28.0 NT 24 Sat May 11 13:48:06 2024 
1 9.9999999999999995e-07 1e-10 
body $1 -1 $-1 $2 $-1 $-1 #
DXID-attrib $-1 -1 $-1 $-1 $0 @18 ASM_BODY_FROM_STEP @83 F70A4541993E274F35A454998ED5B2891AFDBE88|:|BE76307B32EA9896A750FB780CA2424B133E979E #
lump $-1 -1 $-1 $-1 $3 $0 #
shell $-1 -1 $-1 $-1 $-1 $4 $-1 $2 #
face $5 -1 $-1 $6 $7 $3 $-1 $8 reversed single #
truecolor-adesk-attrib $-1 -1 $9 $-1 $4 -1031733376 #
face $10 -1 $-1 $11 $12 $3 $-1 $13 reversed single #
loop $-1 -1 $-1 $-1 $14 $4 #
cone-surface $-1 -1 $-1 108.7865459921242 20.33037039775401 35.233987449476679 -2.7951707276245734e-17 1 1.8157629590296001e-16 3.9444965747237553 -1.0318188681692787e-17 0.66403823082151336 1 I I 0 1 4 forward I I I I #
DXID-attrib $-1 -1 $-1 $5 $4 @18 ASM_FACE_FROM_STEP @16 step-1M-562-4163 #
truecolor-adesk-attrib $-1 -1 $15 $-1 $6 -1031733376 #
face $16 -1 $-1 $17 $18 $3 $-1 $19 forward single #
loop $-1 -1 $-1 $-1 $20 $6 #
cone-surface $-1 -1 $-1 108.7865459921242 19.33037039775401 35.233987449476679 -2.7951707276245734e-17 1 1.8157629590296001e-16 3.9444965747237553 -1.0318188681692787e-17 0.66403823082151336 1 I I 0.70710678118654091 0.70710678118655412 4 forward I I I I #
coedge $-1 -1 $-1 $21 $22 $23 $24 reversed $7 $-1 #
DXID-attrib $-1 -1 $-1 $10 $6 @18 ASM_FACE_FROM_STEP @16 step-1M-562-4194 #
truecolor-adesk-attrib $-1 -1 $25 $-1 $11 -1031733376 #
face $26 -1 $-1 $27 $28 $3 $-1 $29 forward single #
loop $-1 -1 $-1 $-1 $30 $11 #
cone-surface $-1 -1 $-1 108.7865459921242 20.33037039775401 35.233987449476679 -2.7951707276245734e-17 1 1.8157629590296001e-16 9.8612414368093848 -2.5795471704231958e-17 1.6600955770537829 1 I I 0 1 9.9999999999999964 forward I I I I #
coedge $-1 -1 $-1 $31 $32 $33 $34 reversed $12 $-1 #
coedge $-1 -1 $-1 $33 $14 $35 $36 forward $7 $-1 #
coedge $-1 -1 $-1 $14 $33 $37 $38 reversed $7 $-1 #
coedge $-1 -1 $-1 $39 $39 $14 $24 forward $40 $-1 #
edge $41 -1 $-1 $42 -3.1415926535897931 $43 0 $14 $44 forward @7 unknown #
DXID-attrib $-1 -1 $-1 $16 $11 @18 ASM_FACE_FROM_STEP @16 step-1M-562-6561 #
truecolor-adesk-attrib $-1 -1 $45 $-1 $17 -1031733376 #
face $46 -1 $-1 $47 $48 $3 $-1 $49 forward single #
loop $-1 -1 $-1 $-1 $50 $17 #
cone-surface $-1 -1 $-1 108.7865459921242 -21.169629602245976 35.233987449476672 2.7951707276245734e-17 -1 -1.8157629590296001e-16 -12.326551796011733 3.2244339630289954e-17 -2.0751194713172292 1 I I 0.70710678118655024 0.7071067811865448 12.499999999999998 forward I I I I #
coedge $-1 -1 $-1 $51 $52 $50 $53 forward $18 $-1 #
coedge $-1 -1 $-1 $54 $20 $55 $56 forward $12 $-1 #
coedge $-1 -1 $-1 $20 $54 $57 $58 reversed $12 $-1 #
coedge $-1 -1 $-1 $22 $21 $20 $34 forward $7 $-1 #
edge $59 -1 $-1 $60 -3.1415926535897931 $61 0 $33 $62 forward @7 unknown #
coedge $-1 -1 $-1 $63 $64 $21 $36 reversed $65 $-1 #
edge $66 -1 $-1 $42 -0.021000000000000001 $60 -0.001 $21 $67 forward @7 unknown #
coedge $-1 -1 $-1 $64 $63 $22 $38 forward $65 $-1 #
edge $68 -1 $-1 $43 -0.021000000000000001 $61 -0.001 $22 $69 forward @7 unknown #
coedge $-1 -1 $-1 $23 $23 $63 $70 forward $40 $-1 #
loop $-1 -1 $-1 $-1 $39 $71 #
truecolor-adesk-attrib $-1 -1 $72 $-1 $24 -1031733376 #
vertex $-1 -1 $-1 $24 $73 #
vertex $-1 -1 $-1 $24 $74 #
ellipse-curve $-1 -1 $-1 108.7865459921242 -0.66962960224599044 35.233987449476672 -2.7951707276245734e-17 1 1.8157629590296001e-16 3.944496574723757 -1.0318188681692792e-17 0.6640382308215137 1 F -3.1415926535897931 F 0 #
DXID-attrib $-1 -1 $-1 $26 $17 @18 ASM_FACE_FROM_STEP @16 step-1M-562-1922 #
truecolor-adesk-attrib $-1 -1 $75 $-1 $27 -1031733376 #
face $76 -1 $-1 $77 $78 $3 $-1 $79 forward single #
loop $-1 -1 $-1 $-1 $80 $27 #
cone-surface $-1 -1 $-1 108.7865459921242 20.33037039775401 35.233987449476679 -2.7951707276245734e-17 1 1.8157629590296001e-16 12.326551796011735 -3.2244339630289961e-17 2.0751194713172292 1 I I 0 1 12.5 forward I I I I #
coedge $-1 -1 $-1 $81 $82 $30 $53 reversed $28 $-1 #
coedge $-1 -1 $-1 $83 $30 $84 $85 forward $18 $-1 #
coedge $-1 -1 $-1 $30 $83 $86 $87 reversed $18 $-1 #
edge $88 -1 $-1 $89 1.3777276490407726e-16 $90 3.1415926535897931 $30 $91 forward @7 unknown #
coedge $-1 -1 $-1 $32 $31 $92 $93 forward $12 $-1 #
coedge $-1 -1 $-1 $94 $95 $31 $56 reversed $96 $-1 #
edge $97 -1 $-1 $60 5.302451562355157e-36 $98 0.0014142135623730801 $31 $99 forward @7 unknown #
coedge $-1 -1 $-1 $95 $94 $32 $58 forward $96 $-1 #
edge $100 -1 $-1 $61 0 $101 0.0014142135623730801 $32 $102 forward @7 unknown #
truecolor-adesk-attrib $-1 -1 $103 $-1 $34 -1031733376 #
vertex $-1 -1 $-1 $36 $104 #
vertex $-1 -1 $-1 $34 $105 #
ellipse-curve $-1 -1 $-1 108.7865459921242 19.33037039775401 35.233987449476679 -2.7951707276245734e-17 1 1.8157629590296001e-16 3.9444965747237553 -1.0318188681692787e-17 0.66403823082151336 1 F -3.1415926535897931 F 0 #
coedge $-1 -1 $-1 $37 $35 $39 $70 reversed $65 $-1 #
coedge $-1 -1 $-1 $35 $37 $94 $106 forward $65 $-1 #
loop $-1 -1 $-1 $-1 $35 $107 #
truecolor-adesk-attrib $-1 -1 $108 $-1 $36 -1031733376 #
straight-curve $-1 -1 $-1 104.84204941740045 20.33037039775401 34.569949218655168 -2.7951707276245734e-14 1000 1.8157629590296002e-13 F -0.021000000000000001 F -0.001 #
truecolor-adesk-attrib $-1 -1 $109 $-1 $38 -1031733376 #
straight-curve $-1 -1 $-1 112.73104256684796 20.33037039775401 35.89802568029819 -2.7951707276245734e-14 1000 1.8157629590296002e-13 F -0.021000000000000001 F -0.001 #
edge $110 -1 $-1 $43 0 $42 3.1415926535897931 $63 $111 forward @7 unknown #
face $112 -1 $-1 $-1 $40 $3 $-1 $113 reversed single #
DXID-attrib $-1 -1 $-1 $41 $24 @18 ASM_EDGE_FROM_STEP @4 3978 #
point $-1 -1 $-1 104.84204941740045 -0.66962960224599044 34.569949218655161 #
point $-1 -1 $-1 112.73104256684796 -0.66962960224599044 35.89802568029819 #
DXID-attrib $-1 -1 $-1 $46 $27 @18 ASM_FACE_FROM_STEP @16 step-1M-562-2195 #
truecolor-adesk-attrib $-1 -1 $114 $-1 $47 -1031733376 #
face $115 -1 $-1 $116 $117 $3 $-1 $118 forward single #
loop $-1 -1 $-1 $-1 $119 $47 #
cone-surface $-1 -1 $-1 108.7865459921242 -31.66962960224599 35.233987449476672 -2.7951707276245734e-17 1 1.8157629590296001e-16 12.129326967275551 -3.1728430196205329e-17 2.0419175597761545 1 I I 0.37139067635410261 0.92847669088525975 12.300000000000004 forward I I I I #
coedge $-1 -1 $-1 $120 $121 $122 $123 forward $48 $-1 #
coedge $-1 -1 $-1 $124 $50 $125 $126 forward $28 $-1 #
coedge $-1 -1 $-1 $50 $124 $127 $128 reversed $28 $-1 #
coedge $-1 -1 $-1 $52 $51 $129 $130 reversed $18 $-1 #
coedge $-1 -1 $-1 $131 $132 $51 $85 reversed $133 $-1 #
edge $134 -1 $-1 $90 -0.039000000000000007 $135 -4.3368086899420139e-19 $51 $136 forward @7 unknown #
coedge $-1 -1 $-1 $132 $131 $52 $87 forward $133 $-1 #
edge $137 -1 $-1 $89 -0.039000000000000007 $138 -4.3368086899420139e-19 $52 $139 forward @7 unknown #
truecolor-adesk-attrib $-1 -1 $140 $-1 $53 -1031733376 #
vertex $-1 -1 $-1 $53 $141 #
vertex $-1 -1 $-1 $53 $142 #
ellipse-curve $-1 -1 $-1 108.7865459921242 -18.669629602245998 35.233987449476672 -2.7951707276245734e-17 1 1.8157629590296001e-16 9.8612414368093848 -2.5795471704231958e-17 1.6600955770537829 1 F 1.3777276490407726e-16 F 3.1415926535897931 #
coedge $-1 -1 $-1 $143 $143 $54 $93 reversed $144 $-1 #
edge $145 -1 $-1 $98 -3.1415926535897931 $101 0 $54 $146 forward @7 unknown #
coedge $-1 -1 $-1 $57 $55 $64 $106 reversed $96 $-1 #
coedge $-1 -1 $-1 $55 $57 $143 $147 forward $96 $-1 #
loop $-1 -1 $-1 $-1 $55 $148 #
truecolor-adesk-attrib $-1 -1 $149 $-1 $56 -1031733376 #
vertex $-1 -1 $-1 $56 $150 #
straight-curve $-1 -1 $-1 104.84204941740045 19.33037039775401 34.569949218655168 -697.29506908856263 707.10678118655426 -117.38648399525137 F 5.302451562355157e-36 F 0.0014142135623730801 #
truecolor-adesk-attrib $-1 -1 $151 $-1 $58 -1031733376 #
vertex $-1 -1 $-1 $93 $152 #
straight-curve $-1 -1 $-1 112.73104256684796 19.33037039775401 35.89802568029819 697.29506908856263 707.10678118655426 117.38648399525154 F 0 F 0.0014142135623730801 #
DXID-attrib $-1 -1 $-1 $59 $34 @18 ASM_EDGE_FROM_STEP @3 662 #
point $-1 -1 $-1 104.84204941740045 19.33037039775401 34.569949218655168 #
point $-1 -1 $-1 112.73104256684796 19.33037039775401 35.89802568029819 #
edge $153 -1 $-1 $61 0 $60 3.1415926535897931 $94 $154 forward @7 unknown #
face $155 -1 $-1 $71 $65 $3 $-1 $156 reversed single #
DXID-attrib $-1 -1 $-1 $66 $36 @18 ASM_EDGE_FROM_STEP @4 5126 #
DXID-attrib $-1 -1 $-1 $68 $38 @18 ASM_EDGE_FROM_STEP @4 1166 #
truecolor-adesk-attrib $-1 -1 $157 $-1 $70 -1031733376 #
ellipse-curve $-1 -1 $-1 108.7865459921242 -0.66962960224599044 35.233987449476672 -2.7951707276245734e-17 1 1.8157629590296001e-16 3.944496574723757 -1.0318188681692792e-17 0.6640382308215137 1 F 0 F 3.1415926535897931 #
truecolor-adesk-attrib $-1 -1 $158 $-1 $71 -1031733376 #
plane-surface $-1 -1 $-1 108.7865459921242 -0.66962960224599044 35.233987449476672 2.7951707276245734e-17 -1 -1.8157629590296001e-16 -0.98612414368093881 2.5795471704231967e-18 -0.16600955770537834 forward_v I I I I #
DXID-attrib $-1 -1 $-1 $76 $47 @18 ASM_FACE_FROM_STEP @16 step-1M-562-2784 #
truecolor-adesk-attrib $-1 -1 $159 $-1 $77 -1031733376 #
face $160 -1 $-1 $161 $162 $3 $-1 $163 reversed single #
loop $-1 -1 $-1 $-1 $164 $77 #
cone-surface $-1 -1 $-1 108.7865459921242 -34.66962960224599 35.233987449476672 2.7951707276245734e-17 -1 -1.8157629590296001e-16 -12.326551796011735 3.2244339630289961e-17 -2.0751194713172292 1 I I 0.066519010523773445 0.99778515785660904 12.5 forward I I I I #
coedge $-1 -1 $-1 $165 $166 $164 $167 forward $78 $-1 #
coedge $-1 -1 $-1 $168 $80 $169 $170 forward $48 $-1 #
coedge $-1 -1 $-1 $80 $168 $171 $172 reversed $48 $-1 #
coedge $-1 -1 $-1 $166 $165 $80 $123 reversed $78 $-1 #
edge $173 -1 $-1 $174 0 $175 3.1415926535897931 $80 $176 forward @7 unknown #
coedge $-1 -1 $-1 $82 $81 $168 $177 forward $28 $-1 #
coedge $-1 -1 $-1 $178 $179 $81 $126 reversed $180 $-1 #
edge $181 -1 $-1 $89 -0.0035355339059327229 $182 -1.3256128905888327e-34 $81 $183 forward @7 unknown #
coedge $-1 -1 $-1 $179 $178 $82 $128 forward $180 $-1 #
edge $184 -1 $-1 $90 -0.0035355339059327229 $185 0 $82 $186 forward @7 unknown #
coedge $-1 -1 $-1 $187 $187 $83 $130 forward $188 $-1 #
edge $189 -1 $-1 $138 0 $135 3.1415926535897931 $83 $190 forward @7 unknown #
coedge $-1 -1 $-1 $86 $84 $178 $191 forward $133 $-1 #
coedge $-1 -1 $-1 $84 $86 $187 $192 reversed $133 $-1 #
loop $-1 -1 $-1 $-1 $84 $193 #
truecolor-adesk-attrib $-1 -1 $194 $-1 $85 -1031733376 #
vertex $-1 -1 $-1 $85 $195 #
straight-curve $-1 -1 $-1 98.925304555314824 20.33037039775401 33.573891872422898 -2.7951707276245734e-14 1000 1.8157629590296002e-13 F -0.039000000000000007 F -4.3368086899420139e-19 #
truecolor-adesk-attrib $-1 -1 $196 $-1 $87 -1031733376 #
vertex $-1 -1 $-1 $130 $197 #
straight-curve $-1 -1 $-1 118.64778742893358 20.33037039775401 36.89408302653046 -2.7951707276245734e-14 1000 1.8157629590296002e-13 F -0.039000000000000007 F -4.3368086899420139e-19 #
DXID-attrib $-1 -1 $-1 $88 $53 @18 ASM_EDGE_FROM_STEP @4 1229 #
point $-1 -1 $-1 118.64778742893358 -18.669629602245998 36.894083026530453 #
point $-1 -1 $-1 98.925304555314824 -18.669629602245998 33.573891872422891 #
coedge $-1 -1 $-1 $92 $92 $95 $147 reversed $144 $-1 #
loop $-1 -1 $-1 $-1 $143 $198 #
truecolor-adesk-attrib $-1 -1 $199 $-1 $93 -1031733376 #
ellipse-curve $-1 -1 $-1 108.7865459921242 20.33037039775401 35.233987449476679 -2.7951707276245734e-17 1 1.8157629590296001e-16 4.9306207184046746 -1.2897735852115933e-17 0.83004778852688843 1 F -3.1415926535897931 F 0 #
edge $200 -1 $-1 $101 0 $98 3.1415926535897931 $143 $201 forward @7 unknown #
face $202 -1 $-1 $107 $96 $3 $-1 $203 reversed single #
DXID-attrib $-1 -1 $-1 $97 $56 @18 ASM_EDGE_FROM_STEP @4 6858 #
point $-1 -1 $-1 103.85592527371954 20.33037039775401 34.403939660949789 #
DXID-attrib $-1 -1 $-1 $100 $58 @18 ASM_EDGE_FROM_STEP @3 571 #
point $-1 -1 $-1 113.71716671052887 20.33037039775401 36.064035238003569 #
truecolor-adesk-attrib $-1 -1 $204 $-1 $106 -1031733376 #
ellipse-curve $-1 -1 $-1 108.7865459921242 19.33037039775401 35.233987449476679 -2.7951707276245734e-17 1 1.8157629590296001e-16 3.9444965747237553 -1.0318188681692787e-17 0.66403823082151336 1 F 0 F 3.1415926535897931 #
truecolor-adesk-attrib $-1 -1 $205 $-1 $107 -1031733376 #
cone-surface $-1 -1 $-1 108.7865459921242 20.33037039775401 35.233987449476679 -2.7951707276245734e-17 1 1.8157629590296001e-16 3.9444965747237553 -1.0318188681692787e-17 0.66403823082151336 1 I I 0 1 4 forward I I I I #
DXID-attrib $-1 -1 $-1 $110 $70 @18 ASM_EDGE_FROM_STEP @4 4457 #
DXID-attrib $-1 -1 $-1 $112 $71 @18 ASM_FACE_FROM_STEP @16 step-1M-562-6790 #
DXID-attrib $-1 -1 $-1 $115 $77 @18 ASM_FACE_FROM_STEP @16 step-1M-562-4738 #
truecolor-adesk-attrib $-1 -1 $206 $-1 $116 -1031733376 #
face $207 -1 $-1 $208 $209 $3 $-1 $210 reversed single #
loop $-1 -1 $-1 $-1 $211 $116 #
sphere-surface $-1 -1 $-1 108.7865459921242 -72.732129602245934 35.233987449476672 40.062499999999936 -0.16600955770537834 -1.8369701987210297e-16 0.98612414368093881 0.98612414368093881 -2.5795471704231967e-18 0.16600955770537834 forward_v I I I I #
coedge $-1 -1 $-1 $212 $213 $119 $167 reversed $117 $-1 #
coedge $-1 -1 $-1 $122 $119 $214 $215 forward $78 $-1 #
coedge $-1 -1 $-1 $119 $122 $216 $217 reversed $78 $-1 #
edge $218 -1 $-1 $219 1.2346032771892015e-16 $220 3.1415926535897931 $119 $221 forward @7 unknown #
coedge $-1 -1 $-1 $121 $120 $124 $177 reversed $48 $-1 #
coedge $-1 -1 $-1 $222 $223 $120 $170 reversed $224 $-1 #
edge $225 -1 $-1 $175 -0.051499999999999997 $185 -0.041499999999999988 $120 $226 forward @7 unknown #
coedge $-1 -1 $-1 $223 $222 $121 $172 forward $224 $-1 #
edge $227 -1 $-1 $174 -0.051499999999999997 $182 -0.041499999999999988 $121 $228 forward @7 unknown #
truecolor-adesk-attrib $-1 -1 $229 $-1 $123 -1031733376 #
vertex $-1 -1 $-1 $123 $230 #
vertex $-1 -1 $-1 $123 $231 #
ellipse-curve $-1 -1 $-1 108.7865459921242 -31.169629602245983 35.233987449476672 -2.7951707276245734e-17 1 1.8157629590296001e-16 12.326551796011739 -3.2244339630289967e-17 2.0751194713172301 1 F 0 F 3.1415926535897931 #
edge $232 -1 $-1 $182 0 $185 3.1415926535897931 $124 $233 forward @7 unknown #
coedge $-1 -1 $-1 $127 $125 $131 $191 reversed $180 $-1 #
coedge $-1 -1 $-1 $125 $127 $223 $234 forward $180 $-1 #
loop $-1 -1 $-1 $-1 $125 $235 #
truecolor-adesk-attrib $-1 -1 $236 $-1 $126 -1031733376 #
vertex $-1 -1 $-1 $126 $237 #
straight-curve $-1 -1 $-1 121.11309778813595 -21.169629602245976 37.309106920793901 697.29506908857184 -707.10678118654482 117.38648399525275 F -0.0035355339059327229 F -1.3256128905888327e-34 #
truecolor-adesk-attrib $-1 -1 $238 $-1 $128 -1031733376 #
vertex $-1 -1 $-1 $177 $239 #
straight-curve $-1 -1 $-1 96.459994196112476 -21.169629602245976 33.158867978159442 -697.29506908857184 -707.10678118654482 -117.38648399525309 F -0.0035355339059327229 F 0 #
coedge $-1 -1 $-1 $129 $129 $132 $192 forward $188 $-1 #
loop $-1 -1 $-1 $144 $129 $198 #
truecolor-adesk-attrib $-1 -1 $240 $-1 $130 -1031733376 #
ellipse-curve $-1 -1 $-1 108.7865459921242 20.33037039775401 35.233987449476679 -2.7951707276245734e-17 1 1.8157629590296001e-16 9.8612414368093848 -2.5795471704231958e-17 1.6600955770537829 1 F 0 F 3.1415926535897931 #
edge $241 -1 $-1 $90 -3.1415926535897931 $89 1.3777276490407726e-16 $178 $242 forward @7 unknown #
edge $243 -1 $-1 $135 -3.1415926535897931 $138 0 $132 $244 forward @7 unknown #
face $245 -1 $-1 $198 $133 $3 $-1 $246 forward single #
DXID-attrib $-1 -1 $-1 $134 $85 @18 ASM_EDGE_FROM_STEP @4 4542 #
point $-1 -1 $-1 98.925304555314824 20.33037039775401 33.573891872422898 #
DXID-attrib $-1 -1 $-1 $137 $87 @18 ASM_EDGE_FROM_STEP @4 7095 #
point $-1 -1 $-1 118.64778742893358 20.33037039775401 36.89408302653046 #
face $247 -1 $-1 $148 $188 $3 $-1 $248 reversed single #
DXID-attrib $-1 -1 $-1 $145 $93 @18 ASM_EDGE_FROM_STEP @4 6352 #
truecolor-adesk-attrib $-1 -1 $249 $-1 $147 -1031733376 #
ellipse-curve $-1 -1 $-1 108.7865459921242 20.33037039775401 35.233987449476679 -2.7951707276245734e-17 1 1.8157629590296001e-16 4.9306207184046746 -1.2897735852115933e-17 0.83004778852688843 1 F 0 F 3.1415926535897931 #
truecolor-adesk-attrib $-1 -1 $250 $-1 $148 -1031733376 #
cone-surface $-1 -1 $-1 108.7865459921242 19.33037039775401 35.233987449476679 -2.7951707276245734e-17 1 1.8157629590296001e-16 3.9444965747237553 -1.0318188681692787e-17 0.66403823082151336 1 I I 0.70710678118654091 0.70710678118655412 4 forward I I I I #
DXID-attrib $-1 -1 $-1 $153 $106 @18 ASM_EDGE_FROM_STEP @4 7131 #
DXID-attrib $-1 -1 $-1 $155 $107 @18 ASM_FACE_FROM_STEP @15 step-1M-562-717 #
DXID-attrib $-1 -1 $-1 $160 $116 @18 ASM_FACE_FROM_STEP @16 step-1M-562-5887 #
truecolor-adesk-attrib $-1 -1 $251 $-1 $161 -1031733376 #
face $252 -1 $-1 $253 $254 $3 $-1 $255 forward single #
loop $-1 -1 $-1 $-1 $256 $161 #
sphere-surface $-1 -1 $-1 108.7865459921242 -72.732129602245934 35.233987449476672 40.062499999999936 -0.16600955770537834 -1.8369701987210297e-16 0.98612414368093881 0.98612414368093881 -2.5795471704231967e-18 0.16600955770537834 forward_v I I I I #
coedge $-1 -1 $-1 $257 $258 $259 $260 reversed $162 $-1 #
coedge $-1 -1 $-1 $261 $164 $262 $263 forward $117 $-1 #
coedge $-1 -1 $-1 $164 $259 $264 $265 reversed $117 $-1 #
coedge $-1 -1 $-1 $266 $267 $165 $215 reversed $268 $-1 #
edge $269 -1 $-1 $220 -6.8510606406330739e-35 $175 0.00053851648071345706 $165 $270 forward @7 unknown #
coedge $-1 -1 $-1 $267 $266 $166 $217 forward $268 $-1 #
edge $271 -1 $-1 $219 0 $174 0.00053851648071345706 $166 $272 forward @7 unknown #
truecolor-adesk-attrib $-1 -1 $273 $-1 $167 -1031733376 #
vertex $-1 -1 $-1 $167 $274 #
vertex $-1 -1 $-1 $167 $275 #
ellipse-curve $-1 -1 $-1 108.7865459921242 -31.66962960224599 35.233987449476672 -2.7951707276245734e-17 1 1.8157629590296001e-16 12.129326967275551 -3.1728430196205329e-17 2.0419175597761545 1 F 1.2346032771892015e-16 F 3.1415926535897931 #
coedge $-1 -1 $-1 $171 $169 $267 $276 forward $224 $-1 #
coedge $-1 -1 $-1 $169 $171 $179 $234 reversed $224 $-1 #
loop $-1 -1 $-1 $-1 $169 $277 #
truecolor-adesk-attrib $-1 -1 $278 $-1 $170 -1031733376 #
straight-curve $-1 -1 $-1 96.459994196112461 20.33037039775401 33.158867978159449 -2.7951707276245734e-14 1000 1.8157629590296002e-13 F -0.051499999999999997 F -0.041499999999999988 #
truecolor-adesk-attrib $-1 -1 $279 $-1 $172 -1031733376 #
straight-curve $-1 -1 $-1 121.11309778813595 20.33037039775401 37.309106920793909 -2.7951707276245734e-14 1000 1.8157629590296002e-13 F -0.051499999999999997 F -0.041499999999999988 #
DXID-attrib $-1 -1 $-1 $173 $123 @18 ASM_EDGE_FROM_STEP @4 3315 #
point $-1 -1 $-1 121.11309778813595 -31.169629602245983 37.309106920793901 #
point $-1 -1 $-1 96.459994196112461 -31.169629602245983 33.158867978159435 #
truecolor-adesk-attrib $-1 -1 $280 $-1 $177 -1031733376 #
ellipse-curve $-1 -1 $-1 108.7865459921242 -21.169629602245976 35.233987449476672 -2.7951707276245734e-17 1 1.8157629590296001e-16 12.326551796011733 -3.2244339630289954e-17 2.0751194713172292 1 F 0 F 3.1415926535897931 #
edge $281 -1 $-1 $185 -3.1415926535897931 $182 0 $223 $282 forward @7 unknown #
face $283 -1 $-1 $193 $180 $3 $-1 $284 forward single #
DXID-attrib $-1 -1 $-1 $181 $126 @18 ASM_EDGE_FROM_STEP @3 387 #
point $-1 -1 $-1 121.11309778813595 -21.169629602245976 37.309106920793901 #
DXID-attrib $-1 -1 $-1 $184 $128 @18 ASM_EDGE_FROM_STEP @4 4696 #
point $-1 -1 $-1 96.459994196112476 -21.169629602245976 33.158867978159442 #
DXID-attrib $-1 -1 $-1 $189 $130 @18 ASM_EDGE_FROM_STEP @4 4639 #
truecolor-adesk-attrib $-1 -1 $285 $-1 $191 -1031733376 #
ellipse-curve $-1 -1 $-1 108.7865459921242 -18.669629602245998 35.233987449476672 -2.7951707276245734e-17 1 1.8157629590296001e-16 9.8612414368093848 -2.5795471704231958e-17 1.6600955770537829 1 F -3.1415926535897931 F 1.3777276490407726e-16 #
truecolor-adesk-attrib $-1 -1 $286 $-1 $192 -1031733376 #
ellipse-curve $-1 -1 $-1 108.7865459921242 20.33037039775401 35.233987449476679 -2.7951707276245734e-17 1 1.8157629590296001e-16 9.8612414368093848 -2.5795471704231958e-17 1.6600955770537829 1 F -3.1415926535897931 F 0 #
truecolor-adesk-attrib $-1 -1 $287 $-1 $193 -1031733376 #
cone-surface $-1 -1 $-1 108.7865459921242 20.33037039775401 35.233987449476679 -2.7951707276245734e-17 1 1.8157629590296001e-16 9.8612414368093848 -2.5795471704231958e-17 1.6600955770537829 1 I I 0 1 9.9999999999999964 forward I I I I #
truecolor-adesk-attrib $-1 -1 $288 $-1 $198 -1031733376 #
plane-surface $-1 -1 $-1 108.7865459921242 20.33037039775401 35.233987449476679 2.7951707276245734e-17 -1 -1.8157629590296001e-16 -0.98612414368093881 2.5795471704231967e-18 -0.16600955770537834 forward_v I I I I #
DXID-attrib $-1 -1 $-1 $200 $147 @18 ASM_EDGE_FROM_STEP @4 3701 #
DXID-attrib $-1 -1 $-1 $202 $148 @18 ASM_FACE_FROM_STEP @16 step-1M-562-6605 #
DXID-attrib $-1 -1 $-1 $207 $161 @18 ASM_FACE_FROM_STEP @16 step-1M-562-4712 #
truecolor-adesk-attrib $-1 -1 $289 $-1 $208 -1031733376 #
face $290 -1 $-1 $277 $268 $3 $-1 $291 forward single #
loop $-1 -1 $-1 $-1 $262 $208 #
cone-surface $-1 -1 $-1 108.7865459921242 -34.66962960224599 35.233987449476672 2.7951707276245734e-17 -1 -1.8157629590296001e-16 -12.326551796011735 3.2244339630289961e-17 -2.0751194713172292 1 I I 0.066519010523773445 0.99778515785660904 12.5 forward I I I I #
coedge $-1 -1 $-1 $292 $293 $257 $294 reversed $209 $-1 #
coedge $-1 -1 $-1 $258 $211 $256 $294 forward $162 $-1 #
coedge $-1 -1 $-1 $211 $257 $295 $296 reversed $162 $-1 #
coedge $-1 -1 $-1 $213 $261 $211 $260 forward $117 $-1 #
edge $297 -1 $-1 $298 1.5707963267948966 $299 3.1415926535897931 $259 $300 forward @7 unknown #
coedge $-1 -1 $-1 $259 $212 $292 $301 forward $117 $-1 #
coedge $-1 -1 $-1 $302 $303 $212 $263 reversed $254 $-1 #
edge $304 -1 $-1 $219 -0.0030066592756745792 $305 0 $212 $306 forward @7 unknown #
coedge $-1 -1 $-1 $295 $302 $213 $265 forward $254 $-1 #
edge $307 -1 $-1 $220 -0.0030066592756745792 $299 0 $213 $308 forward @7 unknown #
coedge $-1 -1 $-1 $216 $214 $302 $309 forward $268 $-1 #
coedge $-1 -1 $-1 $214 $216 $222 $276 reversed $268 $-1 #
loop $-1 -1 $-1 $-1 $214 $253 #
truecolor-adesk-attrib $-1 -1 $310 $-1 $215 -1031733376 #
straight-curve $-1 -1 $-1 96.657219024848658 -31.66962960224599 33.192069889700512 -366.23731269077416 928.47669088525981 -61.654401917445774 F -6.8510606406330739e-35 F 0.00053851648071345706 #
truecolor-adesk-attrib $-1 -1 $311 $-1 $217 -1031733376 #
straight-curve $-1 -1 $-1 120.91587295939976 -31.66962960224599 37.275905009252824 366.23731269077416 928.47669088525981 61.654401917446066 F 0 F 0.00053851648071345706 #
DXID-attrib $-1 -1 $-1 $218 $167 @18 ASM_EDGE_FROM_STEP @4 6748 #
point $-1 -1 $-1 120.91587295939976 -31.66962960224599 37.275905009252824 #
point $-1 -1 $-1 96.657219024848658 -31.66962960224599 33.192069889700512 #
edge $312 -1 $-1 $175 -3.1415926535897931 $174 0 $267 $313 forward @7 unknown #
face $314 -1 $-1 $235 $224 $3 $-1 $315 forward single #
DXID-attrib $-1 -1 $-1 $225 $170 @18 ASM_EDGE_FROM_STEP @4 5647 #
DXID-attrib $-1 -1 $-1 $227 $172 @18 ASM_EDGE_FROM_STEP @4 5977 #
DXID-attrib $-1 -1 $-1 $232 $177 @18 ASM_EDGE_FROM_STEP @4 2438 #
truecolor-adesk-attrib $-1 -1 $316 $-1 $234 -1031733376 #
ellipse-curve $-1 -1 $-1 108.7865459921242 -21.169629602245976 35.233987449476672 -2.7951707276245734e-17 1 1.8157629590296001e-16 12.326551796011733 -3.2244339630289954e-17 2.0751194713172292 1 F -3.1415926535897931 F 0 #
truecolor-adesk-attrib $-1 -1 $317 $-1 $235 -1031733376 #
cone-surface $-1 -1 $-1 108.7865459921242 -21.169629602245976 35.233987449476672 2.7951707276245734e-17 -1 -1.8157629590296001e-16 -12.326551796011733 3.2244339630289954e-17 -2.0751194713172292 1 I I 0.70710678118655024 0.7071067811865448 12.499999999999998 forward I I I I #
DXID-attrib $-1 -1 $-1 $241 $191 @18 ASM_EDGE_FROM_STEP @4 3370 #
DXID-attrib $-1 -1 $-1 $243 $192 @18 ASM_EDGE_FROM_STEP @4 2341 #
DXID-attrib $-1 -1 $-1 $245 $193 @18 ASM_FACE_FROM_STEP @15 step-1M-562-934 #
DXID-attrib $-1 -1 $-1 $247 $198 @18 ASM_FACE_FROM_STEP @16 step-1M-562-5960 #
DXID-attrib $-1 -1 $-1 $252 $208 @18 ASM_FACE_FROM_STEP @16 step-1M-562-2062 #
truecolor-adesk-attrib $-1 -1 $318 $-1 $253 -1031733376 #
cone-surface $-1 -1 $-1 108.7865459921242 -31.66962960224599 35.233987449476672 -2.7951707276245734e-17 1 1.8157629590296001e-16 12.129326967275551 -3.1728430196205329e-17 2.0419175597761545 1 I I 0.37139067635410261 0.92847669088525975 12.300000000000004 forward I I I I #
coedge $-1 -1 $-1 $293 $256 $261 $301 reversed $209 $-1 #
coedge $-1 -1 $-1 $256 $292 $303 $319 reversed $209 $-1 #
edge $320 -1 $-1 $298 -1.8881068511676997 $321 -1.2534858024220938 $257 $322 forward @7 unknown #
coedge $-1 -1 $-1 $303 $264 $258 $296 forward $254 $-1 #
edge $323 -1 $-1 $299 -3.1415926535897931 $321 -1.5707963267948966 $258 $324 forward @7 unknown #
truecolor-adesk-attrib $-1 -1 $325 $-1 $260 -1031733376 #
vertex $-1 -1 $-1 $301 $326 #
vertex $-1 -1 $-1 $260 $327 #
ellipse-curve $-1 -1 $-1 108.7865459921242 -34.66962960224599 35.233987449476672 -2.7951707276245734e-17 1 1.8157629590296001e-16 12.326551796011735 -3.2244339630289961e-17 2.0751194713172292 1 F 1.5707963267948966 F 3.1415926535897931 #
edge $328 -1 $-1 $305 1.2246467991473532e-16 $298 1.5707963267948966 $261 $329 forward @7 unknown #
coedge $-1 -1 $-1 $264 $262 $266 $309 reversed $254 $-1 #
coedge $-1 -1 $-1 $262 $295 $293 $319 forward $254 $-1 #
truecolor-adesk-attrib $-1 -1 $330 $-1 $263 -1031733376 #
vertex $-1 -1 $-1 $263 $331 #
straight-curve $-1 -1 $-1 121.11309778813595 -34.66962960224599 37.309106920793894 65.596002291259495 -997.7851578566092 11.042791516050849 F -0.0030066592756745792 F 0 #
truecolor-adesk-attrib $-1 -1 $332 $-1 $265 -1031733376 #
straight-curve $-1 -1 $-1 96.459994196112476 -34.66962960224599 33.158867978159442 -65.596002291259438 -997.7851578566092 -11.042791516051221 F -0.0030066592756745792 F 0 #
edge $333 -1 $-1 $220 -3.1415926535897931 $219 1.2346032771892015e-16 $302 $334 forward @7 unknown #
DXID-attrib $-1 -1 $-1 $269 $215 @18 ASM_EDGE_FROM_STEP @4 5738 #
DXID-attrib $-1 -1 $-1 $271 $217 @18 ASM_EDGE_FROM_STEP @3 307 #
truecolor-adesk-attrib $-1 -1 $335 $-1 $276 -1031733376 #
ellipse-curve $-1 -1 $-1 108.7865459921242 -31.169629602245983 35.233987449476672 -2.7951707276245734e-17 1 1.8157629590296001e-16 12.326551796011739 -3.2244339630289967e-17 2.0751194713172301 1 F -3.1415926535897931 F 0 #
truecolor-adesk-attrib $-1 -1 $336 $-1 $277 -1031733376 #
cone-surface $-1 -1 $-1 108.7865459921242 20.33037039775401 35.233987449476679 -2.7951707276245734e-17 1 1.8157629590296001e-16 12.326551796011735 -3.2244339630289961e-17 2.0751194713172292 1 I I 0 1 12.5 forward I I I I #
DXID-attrib $-1 -1 $-1 $281 $234 @18 ASM_EDGE_FROM_STEP @4 1500 #
DXID-attrib $-1 -1 $-1 $283 $235 @18 ASM_FACE_FROM_STEP @16 step-1M-562-4362 #
DXID-attrib $-1 -1 $-1 $290 $253 @18 ASM_FACE_FROM_STEP @16 step-1M-562-2092 #
edge $337 -1 $-1 $321 -1.5707963267948966 $305 1.2246467991473532e-16 $293 $338 forward @7 unknown #
truecolor-adesk-attrib $-1 -1 $339 $-1 $294 -1031733376 #
vertex $-1 -1 $-1 $294 $340 #
ellipse-curve $-1 -1 $-1 108.7865459921242 -72.732129602245934 35.233987449476672 0.98612414368093881 -2.5795471704232191e-18 0.16600955770537845 -6.6507579055717132 -7.3593618586261129e-15 39.50659850621755 1 F -1.8881068511676997 F -1.2534858024220938 #
truecolor-adesk-attrib $-1 -1 $341 $-1 $296 -1031733376 #
ellipse-curve $-1 -1 $-1 108.7865459921242 -34.66962960224599 35.233987449476672 -2.7951707276245734e-17 1 1.8157629590296001e-16 12.326551796011735 -3.2244339630289961e-17 2.0751194713172292 1 F -3.1415926535897931 F -1.5707963267948966 #
DXID-attrib $-1 -1 $-1 $297 $260 @18 ASM_EDGE_FROM_STEP @4 3787 #
point $-1 -1 $-1 110.86166546344144 -34.66962960224599 22.907435653464944 #
point $-1 -1 $-1 96.459994196112476 -34.66962960224599 33.158867978159442 #
truecolor-adesk-attrib $-1 -1 $342 $-1 $301 -1031733376 #
ellipse-curve $-1 -1 $-1 108.7865459921242 -34.66962960224599 35.233987449476672 -2.7951707276245734e-17 1 1.8157629590296001e-16 12.326551796011735 -3.2244339630289961e-17 2.0751194713172292 1 F 1.2246467991473532e-16 F 1.5707963267948966 #
DXID-attrib $-1 -1 $-1 $304 $263 @18 ASM_EDGE_FROM_STEP @4 1361 #
point $-1 -1 $-1 121.11309778813595 -34.66962960224599 37.309106920793894 #
DXID-attrib $-1 -1 $-1 $307 $265 @18 ASM_EDGE_FROM_STEP @4 1415 #
truecolor-adesk-attrib $-1 -1 $343 $-1 $309 -1031733376 #
ellipse-curve $-1 -1 $-1 108.7865459921242 -31.66962960224599 35.233987449476672 -2.7951707276245734e-17 1 1.8157629590296001e-16 12.129326967275551 -3.1728430196205329e-17 2.0419175597761545 1 F -3.1415926535897931 F 1.2346032771892015e-16 #
DXID-attrib $-1 -1 $-1 $312 $276 @18 ASM_EDGE_FROM_STEP @4 1790 #
DXID-attrib $-1 -1 $-1 $314 $277 @18 ASM_FACE_FROM_STEP @16 step-1M-562-6571 #
truecolor-adesk-attrib $-1 -1 $344 $-1 $319 -1031733376 #
ellipse-curve $-1 -1 $-1 108.7865459921242 -34.66962960224599 35.233987449476672 -2.7951707276245734e-17 1 1.8157629590296001e-16 12.326551796011735 -3.2244339630289961e-17 2.0751194713172292 1 F -1.5707963267948966 F 1.2246467991473532e-16 #
DXID-attrib $-1 -1 $345 $320 $294 @18 ASM_EDGE_FROM_STEP @4 5974 #
point $-1 -1 $-1 106.71142652080698 -34.66962960224599 47.5605392454884 #
DXID-attrib $-1 -1 $-1 $323 $296 @18 ASM_EDGE_FROM_STEP @4 6362 #
DXID-attrib $-1 -1 $-1 $328 $301 @18 ASM_EDGE_FROM_STEP @4 4955 #
DXID-attrib $-1 -1 $-1 $333 $309 @18 ASM_EDGE_FROM_STEP @4 6820 #
DXID-attrib $-1 -1 $-1 $337 $319 @18 ASM_EDGE_FROM_STEP @4 6302 #
DXID-attrib $-1 -1 $-1 $339 $294 @18 ASM_EDGE_FROM_STEP @4 5232 #
