700 319 1 0         
5 ZWCAD 12 ACIS 28.0 NT 24 Mon May 13 14:34:30 2024 
1 9.9999999999999995e-07 1e-10 
body $1 -1 $-1 $2 $-1 $-1 #
DXID-attrib $-1 -1 $-1 $-1 $0 @18 ASM_BODY_FROM_STEP @83 8135AD763A01B98FD5AB4E6D0D3E632DC36DDB97|:|BE76307B32EA9896A750FB780CA2424B133E979E #
lump $-1 -1 $-1 $-1 $3 $0 #
shell $-1 -1 $-1 $-1 $-1 $4 $-1 $2 #
face $5 -1 $-1 $6 $7 $3 $-1 $8 forward single #
color-adesk-attrib $-1 -1 $9 $-1 $4 250 #
face $10 -1 $-1 $11 $12 $3 $-1 $13 forward single #
loop $-1 -1 $-1 $-1 $14 $4 #
cone-surface $-1 -1 $-1 1169.3079348459921 -247.20427379284024 -9.7385407128193579e-15 1.8369701987210297e-16 1 0 0 0 330 1 I I 0 1 330 forward I I I I #
fmesh-eye-attrib $-1 -1 $15 $5 $4 #
color-adesk-attrib $-1 -1 $16 $-1 $6 250 #
face $17 -1 $-1 $18 $19 $3 $-1 $20 reversed single #
loop $-1 -1 $-1 $-1 $21 $6 #
cone-surface $-1 -1 $-1 1169.3079348459921 -247.20427379284024 -9.7385407128193579e-15 1.8369701987210297e-16 1 0 0 0 343.00000000000006 1 I I 0 1 343.00000000000006 forward I I I I #
coedge $-1 -1 $-1 $22 $23 $24 $25 forward $7 $-1 #
DXID-attrib $-1 -1 $-1 $9 $4 @18 ASM_FACE_FROM_STEP @14 step-4M-396-92 #
fmesh-eye-attrib $-1 -1 $26 $10 $6 #
color-adesk-attrib $-1 -1 $27 $-1 $11 250 #
face $28 -1 $-1 $29 $30 $3 $-1 $31 forward single #
loop $-1 -1 $-1 $-1 $32 $11 #
cone-surface $-1 -1 $-1 1169.3079348459921 -247.20427379284024 -9.7385407128193579e-15 1.8369701987210297e-16 1 0 0 0 383.00000000000006 1 I I 0 1 383.00000000000006 forward I I I I #
coedge $-1 -1 $-1 $33 $34 $35 $36 forward $12 $-1 #
coedge $-1 -1 $-1 $37 $14 $38 $39 forward $7 $-1 #
coedge $-1 -1 $-1 $14 $37 $40 $41 reversed $7 $-1 #
coedge $-1 -1 $-1 $42 $42 $14 $25 reversed $43 $-1 #
edge $44 -1 $-1 $45 0 $46 3.1415926535897931 $14 $47 forward @7 unknown #
DXID-attrib $-1 -1 $-1 $16 $6 @18 ASM_FACE_FROM_STEP @17 step-4M-396-32681 #
fmesh-eye-attrib $-1 -1 $48 $17 $11 #
color-adesk-attrib $-1 -1 $49 $-1 $18 250 #
face $50 -1 $-1 $51 $52 $3 $-1 $53 reversed single #
loop $-1 -1 $-1 $-1 $54 $18 #
cone-surface $-1 -1 $-1 1169.3079348459921 -247.20427379284024 -9.7385407128193579e-15 1.8369701987210297e-16 1 0 0 0 386 1 I I 0 1 386 forward I I I I #
coedge $-1 -1 $-1 $55 $56 $57 $58 reversed $19 $-1 #
coedge $-1 -1 $-1 $59 $21 $60 $61 forward $12 $-1 #
coedge $-1 -1 $-1 $21 $59 $62 $63 reversed $12 $-1 #
coedge $-1 -1 $-1 $64 $64 $21 $36 reversed $65 $-1 #
edge $66 -1 $-1 $67 0 $68 3.1415926535897931 $21 $69 forward @7 unknown #
coedge $-1 -1 $-1 $23 $22 $70 $71 reversed $7 $-1 #
coedge $-1 -1 $-1 $72 $73 $22 $39 reversed $74 $-1 #
edge $75 -1 $-1 $46 -0.083320133806801255 $76 -0.037320133806801277 $22 $77 forward @7 unknown #
coedge $-1 -1 $-1 $73 $72 $23 $41 forward $74 $-1 #
edge $78 -1 $-1 $45 -0.083320133806801255 $79 -0.037320133806801277 $23 $80 forward @7 unknown #
coedge $-1 -1 $-1 $24 $24 $72 $81 reversed $43 $-1 #
loop $-1 -1 $-1 $82 $24 $51 #
color-adesk-attrib $-1 -1 $83 $-1 $25 250 #
vertex $-1 -1 $-1 $25 $84 #
vertex $-1 -1 $-1 $25 $85 #
ellipse-curve $-1 -1 $-1 1169.3079348459921 -330.52440759964145 -9.7385407128193579e-15 1.8369701987210297e-16 1 0 0 0 330 1 F 0 F 3.1415926535897931 #
DXID-attrib $-1 -1 $-1 $27 $11 @18 ASM_FACE_FROM_STEP @17 step-4M-396-15088 #
fmesh-eye-attrib $-1 -1 $86 $28 $18 #
color-adesk-attrib $-1 -1 $87 $-1 $29 250 #
face $88 -1 $-1 $89 $43 $3 $-1 $90 reversed single #
loop $-1 -1 $-1 $-1 $91 $29 #
cone-surface $-1 -1 $-1 1169.3079348459921 -247.20427379284024 -9.7385407128193579e-15 1.8369701987210297e-16 1 0 0 0 180 1 I I 0 1 180 forward I I I I #
coedge $-1 -1 $-1 $92 $93 $94 $95 forward $30 $-1 #
coedge $-1 -1 $-1 $96 $32 $97 $98 forward $19 $-1 #
coedge $-1 -1 $-1 $32 $96 $99 $100 reversed $19 $-1 #
coedge $-1 -1 $-1 $101 $101 $32 $58 forward $102 $-1 #
edge $103 -1 $-1 $104 -3.1415926535897931 $105 0 $32 $106 forward @7 unknown #
coedge $-1 -1 $-1 $34 $33 $107 $108 reversed $12 $-1 #
coedge $-1 -1 $-1 $109 $110 $33 $61 reversed $111 $-1 #
edge $112 -1 $-1 $68 -0.037320133806801298 $113 -0.031320133806801292 $33 $114 forward @7 unknown #
coedge $-1 -1 $-1 $110 $109 $34 $63 forward $111 $-1 #
edge $115 -1 $-1 $67 -0.037320133806801298 $116 -0.031320133806801292 $34 $117 forward @7 unknown #
coedge $-1 -1 $-1 $35 $35 $109 $118 reversed $65 $-1 #
loop $-1 -1 $-1 $119 $35 $120 #
color-adesk-attrib $-1 -1 $121 $-1 $36 250 #
vertex $-1 -1 $-1 $36 $122 #
vertex $-1 -1 $-1 $36 $123 #
ellipse-curve $-1 -1 $-1 1169.3079348459921 -284.52440759964145 -9.7385407128193579e-15 1.8369701987210297e-16 1 0 0 0 343.00000000000006 1 F 0 F 3.1415926535897931 #
coedge $-1 -1 $-1 $124 $124 $37 $71 forward $119 $-1 #
edge $125 -1 $-1 $79 0 $76 3.1415926535897931 $37 $126 forward @7 unknown #
coedge $-1 -1 $-1 $40 $38 $42 $81 forward $74 $-1 #
coedge $-1 -1 $-1 $38 $40 $124 $127 reversed $74 $-1 #
loop $-1 -1 $-1 $-1 $38 $128 #
color-adesk-attrib $-1 -1 $129 $-1 $39 250 #
vertex $-1 -1 $-1 $39 $130 #
straight-curve $-1 -1 $-1 1169.3079348459921 -247.20427379284024 -330 1.8369701987210297e-13 1000 0 F -0.083320133806801255 F -0.037320133806801277 #
color-adesk-attrib $-1 -1 $131 $-1 $41 250 #
vertex $-1 -1 $-1 $71 $132 #
straight-curve $-1 -1 $-1 1169.3079348459921 -247.20427379284024 330 1.8369701987210297e-13 1000 0 F -0.083320133806801255 F -0.037320133806801277 #
edge $133 -1 $-1 $46 -3.1415926535897931 $45 0 $42 $134 forward @7 unknown #
loop $-1 -1 $-1 $-1 $135 $51 #
DXID-attrib $-1 -1 $-1 $44 $25 @18 ASM_EDGE_FROM_STEP @5 26466 #
point $-1 -1 $-1 1169.3079348459921 -330.52440759964145 330 #
point $-1 -1 $-1 1169.3079348459921 -330.52440759964145 -330 #
DXID-attrib $-1 -1 $-1 $49 $18 @18 ASM_FACE_FROM_STEP @17 step-4M-396-11417 #
fmesh-eye-attrib $-1 -1 $136 $50 $29 #
color-adesk-attrib $-1 -1 $137 $-1 $51 250 #
face $138 -1 $-1 $139 $140 $3 $-1 $141 reversed single #
plane-surface $-1 -1 $-1 1499.3079348459921 -330.52440759964156 -9.7385407128193579e-15 1.8369701987210297e-16 1 0 0 0 1 forward_v I I I I #
coedge $-1 -1 $-1 $142 $143 $144 $145 reversed $52 $-1 #
coedge $-1 -1 $-1 $146 $54 $147 $148 forward $30 $-1 #
coedge $-1 -1 $-1 $54 $146 $149 $150 reversed $30 $-1 #
coedge $-1 -1 $-1 $151 $151 $54 $95 reversed $152 $-1 #
edge $153 -1 $-1 $154 0 $155 3.1415926535897931 $54 $156 forward @7 unknown #
coedge $-1 -1 $-1 $56 $55 $157 $158 forward $19 $-1 #
coedge $-1 -1 $-1 $159 $160 $55 $98 reversed $161 $-1 #
edge $162 -1 $-1 $104 -0.037320133806801298 $163 -0.031320133806801292 $55 $164 forward @7 unknown #
coedge $-1 -1 $-1 $160 $159 $56 $100 forward $161 $-1 #
edge $165 -1 $-1 $105 -0.037320133806801298 $166 -0.031320133806801292 $56 $167 forward @7 unknown #
coedge $-1 -1 $-1 $57 $57 $159 $168 forward $102 $-1 #
loop $-1 -1 $-1 $-1 $101 $169 #
color-adesk-attrib $-1 -1 $170 $-1 $58 250 #
vertex $-1 -1 $-1 $58 $171 #
vertex $-1 -1 $-1 $58 $172 #
ellipse-curve $-1 -1 $-1 1169.3079348459921 -284.52440759964145 -9.7385407128193579e-15 1.8369701987210297e-16 1 0 0 0 383.00000000000006 1 F -3.1415926535897931 F 0 #
coedge $-1 -1 $-1 $173 $173 $59 $108 forward $174 $-1 #
edge $175 -1 $-1 $116 0 $113 3.1415926535897931 $59 $176 forward @7 unknown #
coedge $-1 -1 $-1 $62 $60 $64 $118 forward $111 $-1 #
coedge $-1 -1 $-1 $60 $62 $173 $177 reversed $111 $-1 #
loop $-1 -1 $-1 $-1 $60 $178 #
color-adesk-attrib $-1 -1 $179 $-1 $61 250 #
vertex $-1 -1 $-1 $61 $180 #
straight-curve $-1 -1 $-1 1169.3079348459921 -247.20427379284024 -343.00000000000006 1.8369701987210297e-13 1000 0 F -0.037320133806801298 F -0.031320133806801292 #
color-adesk-attrib $-1 -1 $181 $-1 $63 250 #
vertex $-1 -1 $-1 $108 $182 #
straight-curve $-1 -1 $-1 1169.3079348459921 -247.20427379284024 343.00000000000006 1.8369701987210297e-13 1000 0 F -0.037320133806801298 F -0.031320133806801292 #
edge $183 -1 $-1 $68 -3.1415926535897931 $67 0 $109 $184 forward @7 unknown #
loop $-1 -1 $-1 $-1 $70 $120 #
face $185 -1 $-1 $128 $65 $3 $-1 $186 reversed single #
DXID-attrib $-1 -1 $-1 $66 $36 @18 ASM_EDGE_FROM_STEP @5 46369 #
point $-1 -1 $-1 1169.3079348459921 -284.52440759964145 343.00000000000006 #
point $-1 -1 $-1 1169.3079348459921 -284.52440759964145 -343.00000000000006 #
coedge $-1 -1 $-1 $70 $70 $73 $127 forward $119 $-1 #
color-adesk-attrib $-1 -1 $187 $-1 $71 250 #
ellipse-curve $-1 -1 $-1 1169.3079348459921 -284.52440759964145 -9.7385407128193579e-15 1.8369701987210297e-16 1 0 0 0 330 1 F 0 F 3.1415926535897931 #
edge $188 -1 $-1 $76 -3.1415926535897931 $79 0 $124 $189 forward @7 unknown #
face $190 -1 $-1 $-1 $74 $3 $-1 $191 forward single #
DXID-attrib $-1 -1 $-1 $75 $39 @18 ASM_EDGE_FROM_STEP @5 54530 #
point $-1 -1 $-1 1169.3079348459921 -284.52440759964145 -330 #
DXID-attrib $-1 -1 $-1 $78 $41 @18 ASM_EDGE_FROM_STEP @5 41304 #
point $-1 -1 $-1 1169.3079348459921 -284.52440759964145 330 #
color-adesk-attrib $-1 -1 $192 $-1 $81 250 #
ellipse-curve $-1 -1 $-1 1169.3079348459921 -330.52440759964145 -9.7385407128193579e-15 1.8369701987210297e-16 1 0 0 0 330 1 F -3.1415926535897931 F 0 #
coedge $-1 -1 $-1 $144 $144 $193 $194 forward $82 $-1 #
DXID-attrib $-1 -1 $-1 $87 $29 @18 ASM_FACE_FROM_STEP @17 step-4M-396-10962 #
fmesh-eye-attrib $-1 -1 $195 $88 $51 #
color-adesk-attrib $-1 -1 $196 $-1 $89 250 #
face $197 -1 $-1 $198 $199 $3 $-1 $200 reversed single #
loop $-1 -1 $-1 $-1 $201 $89 #
cone-surface $-1 -1 $-1 1169.3079348459921 -247.20427379284024 -9.7385407128193579e-15 1.8369701987210297e-16 1 0 0 0 180 1 I I 0 1 180 forward I I I I #
coedge $-1 -1 $-1 $202 $91 $201 $203 forward $52 $-1 #
coedge $-1 -1 $-1 $91 $202 $204 $205 reversed $52 $-1 #
coedge $-1 -1 $-1 $135 $135 $91 $145 forward $82 $-1 #
edge $206 -1 $-1 $207 -3.1415926535897931 $208 0 $91 $209 forward @7 unknown #
coedge $-1 -1 $-1 $93 $92 $210 $211 reversed $30 $-1 #
coedge $-1 -1 $-1 $212 $213 $92 $148 reversed $214 $-1 #
edge $215 -1 $-1 $155 -0.037320133806801298 $216 -0.023320133806801282 $92 $217 forward @7 unknown #
coedge $-1 -1 $-1 $213 $212 $93 $150 forward $214 $-1 #
edge $218 -1 $-1 $154 -0.037320133806801298 $219 -0.023320133806801282 $93 $220 forward @7 unknown #
coedge $-1 -1 $-1 $94 $94 $212 $221 reversed $152 $-1 #
loop $-1 -1 $-1 $102 $94 $169 #
color-adesk-attrib $-1 -1 $222 $-1 $95 250 #
vertex $-1 -1 $-1 $95 $223 #
vertex $-1 -1 $-1 $95 $224 #
ellipse-curve $-1 -1 $-1 1169.3079348459921 -284.52440759964145 -9.7385407128193579e-15 1.8369701987210297e-16 1 0 0 0 386 1 F 0 F 3.1415926535897931 #
coedge $-1 -1 $-1 $225 $225 $96 $158 reversed $226 $-1 #
edge $227 -1 $-1 $163 -3.1415926535897931 $166 0 $96 $228 forward @7 unknown #
coedge $-1 -1 $-1 $99 $97 $101 $168 reversed $161 $-1 #
coedge $-1 -1 $-1 $97 $99 $225 $229 forward $161 $-1 #
loop $-1 -1 $-1 $-1 $97 $230 #
color-adesk-attrib $-1 -1 $231 $-1 $98 250 #
vertex $-1 -1 $-1 $98 $232 #
straight-curve $-1 -1 $-1 1169.3079348459921 -247.20427379284024 -383.00000000000006 1.8369701987210297e-13 1000 0 F -0.037320133806801298 F -0.031320133806801292 #
color-adesk-attrib $-1 -1 $233 $-1 $100 250 #
vertex $-1 -1 $-1 $158 $234 #
straight-curve $-1 -1 $-1 1169.3079348459921 -247.20427379284024 383.00000000000006 1.8369701987210297e-13 1000 0 F -0.037320133806801298 F -0.031320133806801292 #
edge $235 -1 $-1 $105 0 $104 3.1415926535897931 $101 $236 forward @7 unknown #
face $237 -1 $-1 $230 $152 $3 $-1 $238 reversed single #
DXID-attrib $-1 -1 $-1 $103 $58 @18 ASM_EDGE_FROM_STEP @5 14184 #
point $-1 -1 $-1 1169.3079348459921 -284.52440759964145 -383.00000000000006 #
point $-1 -1 $-1 1169.3079348459921 -284.52440759964145 383.00000000000006 #
coedge $-1 -1 $-1 $107 $107 $110 $177 forward $174 $-1 #
loop $-1 -1 $-1 $-1 $107 $239 #
color-adesk-attrib $-1 -1 $240 $-1 $108 250 #
ellipse-curve $-1 -1 $-1 1169.3079348459921 -278.52440759964145 -9.7385407128193579e-15 1.8369701987210297e-16 1 0 0 0 343.00000000000006 1 F 0 F 3.1415926535897931 #
edge $241 -1 $-1 $113 -3.1415926535897931 $116 0 $173 $242 forward @7 unknown #
face $243 -1 $-1 $120 $111 $3 $-1 $244 forward single #
DXID-attrib $-1 -1 $-1 $112 $61 @18 ASM_EDGE_FROM_STEP @5 47828 #
point $-1 -1 $-1 1169.3079348459921 -278.52440759964145 -343.00000000000006 #
DXID-attrib $-1 -1 $-1 $115 $63 @18 ASM_EDGE_FROM_STEP @4 3707 #
point $-1 -1 $-1 1169.3079348459921 -278.52440759964145 343.00000000000006 #
color-adesk-attrib $-1 -1 $245 $-1 $118 250 #
ellipse-curve $-1 -1 $-1 1169.3079348459921 -284.52440759964145 -9.7385407128193579e-15 1.8369701987210297e-16 1 0 0 0 343.00000000000006 1 F -3.1415926535897931 F 0 #
color-adesk-attrib $-1 -1 $246 $-1 $120 250 #
plane-surface $-1 -1 $-1 1512.3079348459921 -284.52440759964156 -9.7385407128193579e-15 1.8369701987210297e-16 1 0 0 0 1 forward_v I I I I #
DXID-attrib $-1 -1 $-1 $125 $71 @18 ASM_EDGE_FROM_STEP @5 10635 #
color-adesk-attrib $-1 -1 $247 $-1 $127 250 #
ellipse-curve $-1 -1 $-1 1169.3079348459921 -284.52440759964145 -9.7385407128193579e-15 1.8369701987210297e-16 1 0 0 0 330 1 F -3.1415926535897931 F 0 #
color-adesk-attrib $-1 -1 $248 $-1 $128 250 #
cone-surface $-1 -1 $-1 1169.3079348459921 -247.20427379284024 -9.7385407128193579e-15 1.8369701987210297e-16 1 0 0 0 330 1 I I 0 1 330 forward I I I I #
DXID-attrib $-1 -1 $-1 $133 $81 @18 ASM_EDGE_FROM_STEP @5 21946 #
coedge $-1 -1 $-1 $204 $201 $135 $194 reversed $140 $-1 #
edge $249 -1 $-1 $208 0 $207 3.1415926535897931 $135 $250 forward @7 unknown #
DXID-attrib $-1 -1 $-1 $137 $51 @18 ASM_FACE_FROM_STEP @17 step-4M-396-10822 #
fmesh-eye-attrib $-1 -1 $251 $138 $89 #
color-adesk-attrib $-1 -1 $252 $-1 $139 250 #
face $253 -1 $-1 $169 $214 $3 $-1 $254 forward single #
loop $-1 -1 $-1 $255 $210 $139 #
plane-surface $-1 -1 $-1 1349.3079348459921 -270.52440759964156 -9.7385407128193579e-15 -1.8369701987210297e-16 -1 0 0 0 -1 forward_v I I I I #
coedge $-1 -1 $-1 $193 $256 $142 $203 reversed $140 $-1 #
coedge $-1 -1 $-1 $143 $142 $257 $258 forward $52 $-1 #
edge $259 -1 $-1 $207 -0.083320133806801297 $260 -0.023320133806801282 $142 $261 forward @7 unknown #
coedge $-1 -1 $-1 $256 $193 $143 $205 forward $140 $-1 #
edge $262 -1 $-1 $208 -0.083320133806801297 $263 -0.023320133806801282 $143 $264 forward @7 unknown #
color-adesk-attrib $-1 -1 $265 $-1 $145 250 #
vertex $-1 -1 $-1 $145 $266 #
vertex $-1 -1 $-1 $145 $267 #
ellipse-curve $-1 -1 $-1 1169.3079348459921 -330.52440759964145 -9.7385407128193579e-15 1.8369701987210297e-16 1 0 0 0 180.00000000000003 1 F -3.1415926535897931 F 0 #
coedge $-1 -1 $-1 $268 $268 $146 $211 forward $199 $-1 #
edge $269 -1 $-1 $219 0 $216 3.1415926535897931 $146 $270 forward @7 unknown #
coedge $-1 -1 $-1 $149 $147 $151 $221 forward $214 $-1 #
coedge $-1 -1 $-1 $147 $149 $268 $271 reversed $214 $-1 #
loop $-1 -1 $-1 $-1 $147 $198 #
color-adesk-attrib $-1 -1 $272 $-1 $148 250 #
vertex $-1 -1 $-1 $148 $273 #
straight-curve $-1 -1 $-1 1169.3079348459921 -247.20427379284024 -386 1.8369701987210297e-13 1000 0 F -0.037320133806801298 F -0.023320133806801282 #
color-adesk-attrib $-1 -1 $274 $-1 $150 250 #
vertex $-1 -1 $-1 $211 $275 #
straight-curve $-1 -1 $-1 1169.3079348459921 -247.20427379284024 386 1.8369701987210297e-13 1000 0 F -0.037320133806801298 F -0.023320133806801282 #
edge $276 -1 $-1 $155 -3.1415926535897931 $154 0 $212 $277 forward @7 unknown #
DXID-attrib $-1 -1 $-1 $153 $95 @18 ASM_EDGE_FROM_STEP @4 2083 #
point $-1 -1 $-1 1169.3079348459921 -284.52440759964145 386 #
point $-1 -1 $-1 1169.3079348459921 -284.52440759964145 -386 #
coedge $-1 -1 $-1 $157 $157 $160 $229 reversed $226 $-1 #
loop $-1 -1 $-1 $174 $225 $239 #
color-adesk-attrib $-1 -1 $278 $-1 $158 250 #
ellipse-curve $-1 -1 $-1 1169.3079348459921 -278.52440759964145 -9.7385407128193579e-15 1.8369701987210297e-16 1 0 0 0 383.00000000000006 1 F -3.1415926535897931 F 0 #
edge $279 -1 $-1 $166 0 $163 3.1415926535897931 $160 $280 forward @7 unknown #
face $281 -1 $-1 $239 $161 $3 $-1 $282 reversed single #
DXID-attrib $-1 -1 $-1 $162 $98 @18 ASM_EDGE_FROM_STEP @5 47993 #
point $-1 -1 $-1 1169.3079348459921 -278.52440759964145 -383.00000000000006 #
DXID-attrib $-1 -1 $-1 $165 $100 @18 ASM_EDGE_FROM_STEP @5 24404 #
point $-1 -1 $-1 1169.3079348459921 -278.52440759964145 383.00000000000006 #
color-adesk-attrib $-1 -1 $283 $-1 $168 250 #
ellipse-curve $-1 -1 $-1 1169.3079348459921 -284.52440759964145 -9.7385407128193579e-15 1.8369701987210297e-16 1 0 0 0 383.00000000000006 1 F 0 F 3.1415926535897931 #
color-adesk-attrib $-1 -1 $284 $-1 $169 250 #
plane-surface $-1 -1 $-1 1555.3079348459921 -284.52440759964156 -9.7385407128193579e-15 1.8369701987210297e-16 1 0 0 0 1 forward_v I I I I #
face $285 -1 $-1 $178 $226 $3 $-1 $286 reversed single #
DXID-attrib $-1 -1 $-1 $175 $108 @18 ASM_EDGE_FROM_STEP @5 24066 #
color-adesk-attrib $-1 -1 $287 $-1 $177 250 #
ellipse-curve $-1 -1 $-1 1169.3079348459921 -278.52440759964145 -9.7385407128193579e-15 1.8369701987210297e-16 1 0 0 0 343.00000000000006 1 F -3.1415926535897931 F 0 #
color-adesk-attrib $-1 -1 $288 $-1 $178 250 #
cone-surface $-1 -1 $-1 1169.3079348459921 -247.20427379284024 -9.7385407128193579e-15 1.8369701987210297e-16 1 0 0 0 343.00000000000006 1 I I 0 1 343.00000000000006 forward I I I I #
DXID-attrib $-1 -1 $-1 $183 $118 @18 ASM_EDGE_FROM_STEP @5 31311 #
fmesh-eye-attrib $-1 -1 $289 $185 $120 #
DXID-attrib $-1 -1 $-1 $188 $127 @18 ASM_EDGE_FROM_STEP @5 53261 #
fmesh-eye-attrib $-1 -1 $290 $190 $128 #
color-adesk-attrib $-1 -1 $291 $-1 $194 250 #
ellipse-curve $-1 -1 $-1 1169.3079348459921 -330.52440759964145 -9.7385407128193579e-15 1.8369701987210297e-16 1 0 0 0 180.00000000000003 1 F 0 F 3.1415926535897931 #
DXID-attrib $-1 -1 $-1 $196 $89 @18 ASM_FACE_FROM_STEP @17 step-4M-396-17297 #
fmesh-eye-attrib $-1 -1 $292 $197 $139 #
color-adesk-attrib $-1 -1 $293 $-1 $198 250 #
cone-surface $-1 -1 $-1 1169.3079348459921 -247.20427379284024 -9.7385407128193579e-15 1.8369701987210297e-16 1 0 0 0 386 1 I I 0 1 386 forward I I I I #
loop $-1 -1 $-1 $-1 $294 $139 #
coedge $-1 -1 $-1 $201 $204 $294 $295 forward $140 $-1 #
coedge $-1 -1 $-1 $294 $294 $202 $258 reversed $255 $-1 #
edge $296 -1 $-1 $260 -3.1415926535897931 $263 0 $202 $297 forward @7 unknown #
color-adesk-attrib $-1 -1 $298 $-1 $203 250 #
vertex $-1 -1 $-1 $203 $299 #
straight-curve $-1 -1 $-1 1169.3079348459921 -247.20427379284024 -180 1.8369701987210297e-13 1000 0 F -0.083320133806801297 F -0.023320133806801282 #
color-adesk-attrib $-1 -1 $300 $-1 $205 250 #
vertex $-1 -1 $-1 $258 $301 #
straight-curve $-1 -1 $-1 1169.3079348459921 -247.20427379284024 180 1.8369701987210297e-13 1000 0 F -0.083320133806801297 F -0.023320133806801282 #
DXID-attrib $-1 -1 $-1 $206 $145 @18 ASM_EDGE_FROM_STEP @5 51898 #
point $-1 -1 $-1 1169.3079348459921 -330.52440759964145 -180.00000000000003 #
point $-1 -1 $-1 1169.3079348459921 -330.52440759964145 180.00000000000003 #
coedge $-1 -1 $-1 $210 $210 $213 $271 forward $199 $-1 #
color-adesk-attrib $-1 -1 $302 $-1 $211 250 #
ellipse-curve $-1 -1 $-1 1169.3079348459921 -270.52440759964145 -9.7385407128193579e-15 1.8369701987210297e-16 1 0 0 0 386 1 F 0 F 3.1415926535897931 #
edge $303 -1 $-1 $216 -3.1415926535897931 $219 0 $268 $304 forward @7 unknown #
DXID-attrib $-1 -1 $-1 $215 $148 @18 ASM_EDGE_FROM_STEP @5 16927 #
point $-1 -1 $-1 1169.3079348459921 -270.52440759964145 -386 #
DXID-attrib $-1 -1 $-1 $218 $150 @18 ASM_EDGE_FROM_STEP @5 11075 #
point $-1 -1 $-1 1169.3079348459921 -270.52440759964145 386 #
color-adesk-attrib $-1 -1 $305 $-1 $221 250 #
ellipse-curve $-1 -1 $-1 1169.3079348459921 -284.52440759964145 -9.7385407128193579e-15 1.8369701987210297e-16 1 0 0 0 386 1 F -3.1415926535897931 F 0 #
DXID-attrib $-1 -1 $-1 $227 $158 @18 ASM_EDGE_FROM_STEP @5 47823 #
color-adesk-attrib $-1 -1 $306 $-1 $229 250 #
ellipse-curve $-1 -1 $-1 1169.3079348459921 -278.52440759964145 -9.7385407128193579e-15 1.8369701987210297e-16 1 0 0 0 383.00000000000006 1 F 0 F 3.1415926535897931 #
color-adesk-attrib $-1 -1 $307 $-1 $230 250 #
cone-surface $-1 -1 $-1 1169.3079348459921 -247.20427379284024 -9.7385407128193579e-15 1.8369701987210297e-16 1 0 0 0 383.00000000000006 1 I I 0 1 383.00000000000006 forward I I I I #
DXID-attrib $-1 -1 $-1 $235 $168 @18 ASM_EDGE_FROM_STEP @5 40201 #
fmesh-eye-attrib $-1 -1 $308 $237 $169 #
color-adesk-attrib $-1 -1 $309 $-1 $239 250 #
plane-surface $-1 -1 $-1 1552.3079348459921 -278.52440759964156 -9.7385407128193579e-15 1.8369701987210297e-16 1 0 0 0 1 forward_v I I I I #
DXID-attrib $-1 -1 $-1 $241 $177 @18 ASM_EDGE_FROM_STEP @5 37435 #
fmesh-eye-attrib $-1 -1 $310 $243 $178 #
DXID-attrib $-1 -1 $-1 $246 $120 @18 ASM_FACE_FROM_STEP @17 step-4M-396-26172 #
DXID-attrib $-1 -1 $-1 $248 $128 @18 ASM_FACE_FROM_STEP @16 step-4M-396-5912 #
DXID-attrib $-1 -1 $-1 $249 $194 @18 ASM_EDGE_FROM_STEP @5 49195 #
DXID-attrib $-1 -1 $-1 $252 $139 @18 ASM_FACE_FROM_STEP @17 step-4M-396-37840 #
fmesh-eye-attrib $-1 -1 $311 $253 $198 #
coedge $-1 -1 $-1 $257 $257 $256 $295 reversed $255 $-1 #
edge $312 -1 $-1 $263 0 $260 3.1415926535897931 $256 $313 forward @7 unknown #
color-adesk-attrib $-1 -1 $314 $-1 $258 250 #
ellipse-curve $-1 -1 $-1 1169.3079348459921 -270.52440759964145 -9.7385407128193579e-15 1.8369701987210297e-16 1 0 0 0 180 1 F -3.1415926535897931 F 0 #
DXID-attrib $-1 -1 $-1 $259 $203 @18 ASM_EDGE_FROM_STEP @5 11503 #
point $-1 -1 $-1 1169.3079348459921 -270.52440759964145 -180 #
DXID-attrib $-1 -1 $-1 $262 $205 @18 ASM_EDGE_FROM_STEP @4 6146 #
point $-1 -1 $-1 1169.3079348459921 -270.52440759964145 180 #
DXID-attrib $-1 -1 $-1 $269 $211 @18 ASM_EDGE_FROM_STEP @5 42862 #
color-adesk-attrib $-1 -1 $315 $-1 $271 250 #
ellipse-curve $-1 -1 $-1 1169.3079348459921 -270.52440759964145 -9.7385407128193579e-15 1.8369701987210297e-16 1 0 0 0 386 1 F -3.1415926535897931 F 0 #
DXID-attrib $-1 -1 $-1 $276 $221 @18 ASM_EDGE_FROM_STEP @5 42974 #
DXID-attrib $-1 -1 $-1 $279 $229 @18 ASM_EDGE_FROM_STEP @5 51977 #
fmesh-eye-attrib $-1 -1 $316 $281 $230 #
DXID-attrib $-1 -1 $-1 $284 $169 @18 ASM_FACE_FROM_STEP @17 step-4M-396-30147 #
fmesh-eye-attrib $-1 -1 $317 $285 $239 #
DXID-attrib $-1 -1 $-1 $288 $178 @18 ASM_FACE_FROM_STEP @17 step-4M-396-27036 #
DXID-attrib $-1 -1 $-1 $293 $198 @18 ASM_FACE_FROM_STEP @17 step-4M-396-25645 #
color-adesk-attrib $-1 -1 $318 $-1 $295 250 #
ellipse-curve $-1 -1 $-1 1169.3079348459921 -270.52440759964145 -9.7385407128193579e-15 1.8369701987210297e-16 1 0 0 0 180 1 F 0 F 3.1415926535897931 #
DXID-attrib $-1 -1 $-1 $296 $258 @18 ASM_EDGE_FROM_STEP @4 5588 #
DXID-attrib $-1 -1 $-1 $303 $271 @18 ASM_EDGE_FROM_STEP @5 37597 #
DXID-attrib $-1 -1 $-1 $307 $230 @18 ASM_FACE_FROM_STEP @17 step-4M-396-17727 #
DXID-attrib $-1 -1 $-1 $309 $239 @18 ASM_FACE_FROM_STEP @17 step-4M-396-20925 #
DXID-attrib $-1 -1 $-1 $312 $295 @18 ASM_EDGE_FROM_STEP @5 17264 #
