700 562 1 0         
5 ZWCAD 12 ACIS 28.0 NT 24 Mon May 13 10:01:30 2024 
1 9.9999999999999995e-07 1e-10 
body $1 -1 $-1 $2 $-1 $-1 #
DXID-attrib $-1 -1 $-1 $-1 $0 @18 ASM_BODY_FROM_STEP @83 0E703B8C26A06DCE3A562AF3BBCBEC254BA8172C|:|B8F79A5476B3872EC029E3055EE8BF59ACC570C1 #
lump $-1 -1 $-1 $-1 $3 $0 #
shell $-1 -1 $-1 $-1 $-1 $4 $-1 $2 #
face $5 -1 $-1 $6 $7 $3 $-1 $8 reversed single #
truecolor-adesk-attrib $-1 -1 $9 $-1 $4 -1027161668 #
face $10 -1 $-1 $11 $12 $3 $-1 $13 reversed single #
loop $-1 -1 $-1 $-1 $14 $4 #
cone-surface $-1 -1 $-1 -1284.3054834010168 291.65013247183782 -539.40192378864685 -1 -4.7923606703259355e-31 -3.4532597966567843e-15 -2.417281857659751e-14 -1.1584486503741008e-44 7.0000000000000062 1 I I 0 1 7.0000000000000062 forward I I I I #
DXID-attrib $-1 -1 $-1 $5 $4 @18 ASM_FACE_FROM_STEP @17 step-3M-341-22238 #
truecolor-adesk-attrib $-1 -1 $15 $-1 $6 -1027161668 #
face $16 -1 $-1 $17 $18 $3 $-1 $19 reversed single #
loop $-1 -1 $-1 $-1 $20 $6 #
cone-surface $-1 -1 $-1 -1284.3054834010168 341.65013247183788 -569.40192378864685 -1 -4.7923606703259355e-31 -3.4532597966567843e-15 -2.417281857659751e-14 -1.1584486503741008e-44 7.0000000000000062 1 I I 0 1 7.0000000000000062 forward I I I I #
coedge $-1 -1 $-1 $21 $22 $23 $24 reversed $7 $-1 #
DXID-attrib $-1 -1 $-1 $10 $6 @18 ASM_FACE_FROM_STEP @17 step-3M-341-13176 #
truecolor-adesk-attrib $-1 -1 $25 $-1 $11 -1027161668 #
face $26 -1 $-1 $27 $28 $3 $-1 $29 reversed single #
loop $-1 -1 $-1 $-1 $30 $11 #
cone-surface $-1 -1 $-1 -1284.3054834010168 291.65013247183782 -569.40192378864685 -1 -4.7923606703259355e-31 -3.4532597966567843e-15 -2.417281857659751e-14 -1.1584486503741008e-44 7.0000000000000062 1 I I 0 1 7.0000000000000062 forward I I I I #
coedge $-1 -1 $-1 $31 $32 $33 $34 reversed $12 $-1 #
coedge $-1 -1 $-1 $35 $14 $36 $37 forward $7 $-1 #
coedge $-1 -1 $-1 $14 $35 $38 $39 reversed $7 $-1 #
coedge $-1 -1 $-1 $40 $40 $14 $24 forward $41 $-1 #
edge $42 -1 $-1 $43 -3.1415926535897931 $44 0 $14 $45 forward @7 unknown #
DXID-attrib $-1 -1 $-1 $16 $11 @18 ASM_FACE_FROM_STEP @17 step-3M-341-35964 #
truecolor-adesk-attrib $-1 -1 $46 $-1 $17 -1027161668 #
face $47 -1 $-1 $48 $49 $3 $-1 $50 reversed single #
loop $-1 -1 $-1 $-1 $51 $17 #
cone-surface $-1 -1 $-1 -1284.3054834010168 341.65013247183788 -539.40192378864685 -1 -4.7923606703259355e-31 -3.4532597966567843e-15 -2.417281857659751e-14 -1.1584486503741008e-44 7.0000000000000062 1 I I 0 1 7.0000000000000062 forward I I I I #
coedge $-1 -1 $-1 $52 $53 $54 $55 reversed $18 $-1 #
coedge $-1 -1 $-1 $56 $20 $57 $58 forward $12 $-1 #
coedge $-1 -1 $-1 $20 $56 $59 $60 reversed $12 $-1 #
coedge $-1 -1 $-1 $61 $61 $20 $34 forward $62 $-1 #
edge $63 -1 $-1 $64 -3.1415926535897931 $65 0 $20 $66 forward @7 unknown #
coedge $-1 -1 $-1 $22 $21 $67 $68 forward $7 $-1 #
coedge $-1 -1 $-1 $69 $70 $21 $37 reversed $71 $-1 #
edge $72 -1 $-1 $43 0 $73 0.0060000000000000851 $21 $74 forward @7 unknown #
coedge $-1 -1 $-1 $70 $69 $22 $39 forward $71 $-1 #
edge $75 -1 $-1 $44 0 $76 0.0060000000000000851 $22 $77 forward @7 unknown #
coedge $-1 -1 $-1 $23 $23 $69 $78 forward $41 $-1 #
loop $-1 -1 $-1 $62 $40 $79 #
truecolor-adesk-attrib $-1 -1 $80 $-1 $24 -1027161668 #
vertex $-1 -1 $-1 $24 $81 #
vertex $-1 -1 $-1 $24 $82 #
ellipse-curve $-1 -1 $-1 -1284.3054834010168 291.65013247183782 -539.40192378864685 -1 -4.7923606703259355e-31 -3.4532597966567843e-15 -2.417281857659751e-14 -1.1584486503741008e-44 7.0000000000000062 1 F -3.1415926535897931 F 0 #
DXID-attrib $-1 -1 $-1 $26 $17 @18 ASM_FACE_FROM_STEP @16 step-3M-341-9616 #
truecolor-adesk-attrib $-1 -1 $83 $-1 $27 -1027161668 #
face $84 -1 $-1 $85 $86 $3 $-1 $87 forward single #
loop $-1 -1 $-1 $-1 $88 $27 #
plane-surface $-1 -1 $-1 -1334.3054834010172 -968.34986752816212 -504.4019237886468 1 0 0 0 0 -1 forward_v I I I I #
coedge $-1 -1 $-1 $89 $90 $91 $92 reversed $28 $-1 #
coedge $-1 -1 $-1 $93 $30 $94 $95 forward $18 $-1 #
coedge $-1 -1 $-1 $30 $93 $96 $97 reversed $18 $-1 #
coedge $-1 -1 $-1 $98 $98 $30 $55 forward $99 $-1 #
edge $100 -1 $-1 $101 -3.1415926535897931 $102 0 $30 $103 forward @7 unknown #
coedge $-1 -1 $-1 $32 $31 $104 $105 forward $12 $-1 #
coedge $-1 -1 $-1 $106 $107 $31 $58 reversed $108 $-1 #
edge $109 -1 $-1 $64 0 $110 0.006000000000000014 $31 $111 forward @7 unknown #
coedge $-1 -1 $-1 $107 $106 $32 $60 forward $108 $-1 #
edge $112 -1 $-1 $65 0 $113 0.006000000000000014 $32 $114 forward @7 unknown #
coedge $-1 -1 $-1 $33 $33 $106 $115 forward $62 $-1 #
loop $-1 -1 $-1 $99 $61 $79 #
truecolor-adesk-attrib $-1 -1 $116 $-1 $34 -1027161668 #
vertex $-1 -1 $-1 $34 $117 #
vertex $-1 -1 $-1 $34 $118 #
ellipse-curve $-1 -1 $-1 -1284.3054834010168 341.65013247183788 -569.40192378864685 -1 -4.7923606703259355e-31 -3.4532597966567843e-15 -2.417281857659751e-14 -1.1584486503741008e-44 7.0000000000000062 1 F -3.1415926535897931 F 0 #
coedge $-1 -1 $-1 $119 $119 $35 $68 reversed $120 $-1 #
edge $121 -1 $-1 $73 -3.1415926535897931 $76 0 $35 $122 forward @7 unknown #
coedge $-1 -1 $-1 $38 $36 $40 $78 reversed $71 $-1 #
coedge $-1 -1 $-1 $36 $38 $119 $123 forward $71 $-1 #
loop $-1 -1 $-1 $-1 $36 $124 #
truecolor-adesk-attrib $-1 -1 $125 $-1 $37 -1027161668 #
vertex $-1 -1 $-1 $37 $126 #
straight-curve $-1 -1 $-1 -1284.3054834010168 291.65013247183782 -546.40192378864674 -1000 -4.7923606703259344e-28 -3.4532597966567848e-12 F 0 F 0.0060000000000000851 #
truecolor-adesk-attrib $-1 -1 $127 $-1 $39 -1027161668 #
vertex $-1 -1 $-1 $68 $128 #
straight-curve $-1 -1 $-1 -1284.3054834010168 291.65013247183782 -532.40192378864674 -1000 -4.7923606703259344e-28 -3.4532597966567848e-12 F 0 F 0.0060000000000000851 #
edge $129 -1 $-1 $44 0 $43 3.1415926535897931 $40 $130 forward @7 unknown #
face $131 -1 $-1 $132 $133 $3 $-1 $134 reversed single #
DXID-attrib $-1 -1 $-1 $42 $24 @18 ASM_EDGE_FROM_STEP @5 32103 #
point $-1 -1 $-1 -1284.3054834010168 291.65013247183782 -546.40192378864674 #
point $-1 -1 $-1 -1284.3054834010168 291.65013247183782 -532.40192378864674 #
DXID-attrib $-1 -1 $-1 $47 $27 @18 ASM_FACE_FROM_STEP @17 step-3M-341-31569 #
truecolor-adesk-attrib $-1 -1 $135 $-1 $48 -1027161668 #
face $136 -1 $-1 $137 $138 $3 $-1 $139 reversed single #
loop $-1 -1 $-1 $-1 $140 $48 #
cone-surface $-1 -1 $-1 -1329.8054834010172 -968.34986752816212 -506.63702947312458 0 1 -8.3475415385350136e-17 0 -3.7563936923408059e-16 -4.5000000000000595 1 I I 0 1 4.5000000000000595 forward I I I I #
coedge $-1 -1 $-1 $141 $142 $143 $144 forward $49 $-1 #
coedge $-1 -1 $-1 $145 $51 $146 $147 forward $28 $-1 #
coedge $-1 -1 $-1 $51 $145 $148 $149 reversed $28 $-1 #
coedge $-1 -1 $-1 $150 $150 $51 $92 forward $151 $-1 #
edge $152 -1 $-1 $153 -3.1415926535897931 $154 0 $51 $155 forward @7 unknown #
coedge $-1 -1 $-1 $53 $52 $156 $157 forward $18 $-1 #
coedge $-1 -1 $-1 $158 $159 $52 $95 reversed $160 $-1 #
edge $161 -1 $-1 $101 0 $162 0.006000000000000014 $52 $163 forward @7 unknown #
coedge $-1 -1 $-1 $159 $158 $53 $97 forward $160 $-1 #
edge $164 -1 $-1 $102 0 $165 0.006000000000000014 $53 $166 forward @7 unknown #
coedge $-1 -1 $-1 $54 $54 $158 $167 forward $99 $-1 #
loop $-1 -1 $-1 $151 $98 $79 #
truecolor-adesk-attrib $-1 -1 $168 $-1 $55 -1027161668 #
vertex $-1 -1 $-1 $55 $169 #
vertex $-1 -1 $-1 $55 $170 #
ellipse-curve $-1 -1 $-1 -1284.3054834010168 291.65013247183782 -569.40192378864685 -1 -4.7923606703259355e-31 -3.4532597966567843e-15 -2.417281857659751e-14 -1.1584486503741008e-44 7.0000000000000062 1 F -3.1415926535897931 F 0 #
coedge $-1 -1 $-1 $171 $171 $56 $105 reversed $172 $-1 #
edge $173 -1 $-1 $110 -3.1415926535897931 $113 0 $56 $174 forward @7 unknown #
coedge $-1 -1 $-1 $59 $57 $61 $115 reversed $108 $-1 #
coedge $-1 -1 $-1 $57 $59 $171 $175 forward $108 $-1 #
loop $-1 -1 $-1 $-1 $57 $176 #
truecolor-adesk-attrib $-1 -1 $177 $-1 $58 -1027161668 #
vertex $-1 -1 $-1 $58 $178 #
straight-curve $-1 -1 $-1 -1284.3054834010168 341.65013247183788 -576.40192378864674 -1000 -4.7923606703259344e-28 -3.4532597966567848e-12 F 0 F 0.006000000000000014 #
truecolor-adesk-attrib $-1 -1 $179 $-1 $60 -1027161668 #
vertex $-1 -1 $-1 $105 $180 #
straight-curve $-1 -1 $-1 -1284.3054834010168 341.65013247183788 -562.40192378864674 -1000 -4.7923606703259344e-28 -3.4532597966567848e-12 F 0 F 0.006000000000000014 #
edge $181 -1 $-1 $65 0 $64 3.1415926535897931 $61 $182 forward @7 unknown #
DXID-attrib $-1 -1 $-1 $63 $34 @18 ASM_EDGE_FROM_STEP @5 29104 #
point $-1 -1 $-1 -1284.3054834010168 341.65013247183788 -576.40192378864674 #
point $-1 -1 $-1 -1284.3054834010168 341.65013247183788 -562.40192378864674 #
coedge $-1 -1 $-1 $67 $67 $70 $123 reversed $120 $-1 #
loop $-1 -1 $-1 $172 $119 $183 #
truecolor-adesk-attrib $-1 -1 $184 $-1 $68 -1027161668 #
ellipse-curve $-1 -1 $-1 -1290.305483401017 291.65013247183782 -539.40192378864685 -1 -4.7923606703259355e-31 -3.4532597966567843e-15 -2.417281857659751e-14 -1.1584486503741008e-44 7.0000000000000062 1 F -3.1415926535897931 F 0 #
edge $185 -1 $-1 $76 0 $73 3.1415926535897931 $119 $186 forward @7 unknown #
face $187 -1 $-1 $-1 $71 $3 $-1 $188 reversed single #
DXID-attrib $-1 -1 $-1 $72 $37 @18 ASM_EDGE_FROM_STEP @3 554 #
point $-1 -1 $-1 -1290.305483401017 291.65013247183782 -546.40192378864674 #
DXID-attrib $-1 -1 $-1 $75 $39 @18 ASM_EDGE_FROM_STEP @5 24251 #
point $-1 -1 $-1 -1290.305483401017 291.65013247183782 -532.40192378864674 #
truecolor-adesk-attrib $-1 -1 $189 $-1 $78 -1027161668 #
ellipse-curve $-1 -1 $-1 -1284.3054834010168 291.65013247183782 -539.40192378864685 -1 -4.7923606703259355e-31 -3.4532597966567843e-15 -2.417281857659751e-14 -1.1584486503741008e-44 7.0000000000000062 1 F 0 F 3.1415926535897931 #
truecolor-adesk-attrib $-1 -1 $190 $-1 $79 -1027161668 #
face $191 -1 $-1 $192 $193 $3 $-1 $194 reversed single #
loop $-1 -1 $-1 $41 $195 $79 #
plane-surface $-1 -1 $-1 -1284.3054834010168 -968.34986752816212 -604.40192378864651 -1 -2.7802898445289429e-31 -3.3306690738754704e-15 -3.3306690738754704e-15 0 1 forward_v I I I I #
DXID-attrib $-1 -1 $-1 $84 $48 @18 ASM_FACE_FROM_STEP @16 step-3M-341-5347 #
truecolor-adesk-attrib $-1 -1 $196 $-1 $85 -1027161668 #
face $197 -1 $-1 $183 $198 $3 $-1 $199 reversed single #
loop $-1 -1 $-1 $-1 $200 $85 #
plane-surface $-1 -1 $-1 -1330.1773136596757 -968.34986752816212 -511.12164119084844 0.082628946368526787 8.3189961328668189e-17 0.99658038171641083 0.99658038171641095 7.7037197775489434e-34 -0.082628946368526801 forward_v I I I I #
coedge $-1 -1 $-1 $201 $202 $203 $204 forward $86 $-1 #
coedge $-1 -1 $-1 $205 $88 $202 $206 reversed $49 $-1 #
coedge $-1 -1 $-1 $88 $205 $207 $208 forward $49 $-1 #
coedge $-1 -1 $-1 $209 $203 $88 $144 reversed $210 $-1 #
edge $211 -1 $-1 $212 0 $213 0.0022351056844777872 $88 $214 forward @7 unknown #
coedge $-1 -1 $-1 $90 $89 $215 $216 forward $28 $-1 #
coedge $-1 -1 $-1 $217 $218 $89 $147 reversed $219 $-1 #
edge $220 -1 $-1 $153 0 $221 0.0060000000000000851 $89 $222 forward @7 unknown #
coedge $-1 -1 $-1 $218 $217 $90 $149 forward $219 $-1 #
edge $223 -1 $-1 $154 0 $224 0.0060000000000000851 $90 $225 forward @7 unknown #
coedge $-1 -1 $-1 $91 $91 $217 $226 forward $151 $-1 #
loop $-1 -1 $-1 $-1 $150 $79 #
truecolor-adesk-attrib $-1 -1 $227 $-1 $92 -1027161668 #
vertex $-1 -1 $-1 $92 $228 #
vertex $-1 -1 $-1 $92 $229 #
ellipse-curve $-1 -1 $-1 -1284.3054834010168 341.65013247183788 -539.40192378864685 -1 -4.7923606703259355e-31 -3.4532597966567843e-15 -2.417281857659751e-14 -1.1584486503741008e-44 7.0000000000000062 1 F -3.1415926535897931 F 0 #
coedge $-1 -1 $-1 $230 $230 $93 $157 reversed $231 $-1 #
edge $232 -1 $-1 $162 -3.1415926535897931 $165 0 $93 $233 forward @7 unknown #
coedge $-1 -1 $-1 $96 $94 $98 $167 reversed $160 $-1 #
coedge $-1 -1 $-1 $94 $96 $230 $234 forward $160 $-1 #
loop $-1 -1 $-1 $-1 $94 $235 #
truecolor-adesk-attrib $-1 -1 $236 $-1 $95 -1027161668 #
vertex $-1 -1 $-1 $95 $237 #
straight-curve $-1 -1 $-1 -1284.3054834010168 291.65013247183782 -576.40192378864674 -1000 -4.7923606703259344e-28 -3.4532597966567848e-12 F 0 F 0.006000000000000014 #
truecolor-adesk-attrib $-1 -1 $238 $-1 $97 -1027161668 #
vertex $-1 -1 $-1 $157 $239 #
straight-curve $-1 -1 $-1 -1284.3054834010168 291.65013247183782 -562.40192378864674 -1000 -4.7923606703259344e-28 -3.4532597966567848e-12 F 0 F 0.006000000000000014 #
edge $240 -1 $-1 $102 0 $101 3.1415926535897931 $98 $241 forward @7 unknown #
DXID-attrib $-1 -1 $-1 $100 $55 @18 ASM_EDGE_FROM_STEP @5 24379 #
point $-1 -1 $-1 -1284.3054834010168 291.65013247183782 -576.40192378864674 #
point $-1 -1 $-1 -1284.3054834010168 291.65013247183782 -562.40192378864674 #
coedge $-1 -1 $-1 $104 $104 $107 $175 reversed $172 $-1 #
loop $-1 -1 $-1 $231 $171 $183 #
truecolor-adesk-attrib $-1 -1 $242 $-1 $105 -1027161668 #
ellipse-curve $-1 -1 $-1 -1290.3054834010168 341.65013247183788 -569.40192378864685 -1 -4.7923606703259355e-31 -3.4532597966567843e-15 -2.417281857659751e-14 -1.1584486503741008e-44 7.0000000000000062 1 F -3.1415926535897931 F 0 #
edge $243 -1 $-1 $113 0 $110 3.1415926535897931 $171 $244 forward @7 unknown #
face $245 -1 $-1 $124 $108 $3 $-1 $246 reversed single #
DXID-attrib $-1 -1 $-1 $109 $58 @18 ASM_EDGE_FROM_STEP @5 41081 #
point $-1 -1 $-1 -1290.3054834010168 341.65013247183788 -576.40192378864674 #
DXID-attrib $-1 -1 $-1 $112 $60 @18 ASM_EDGE_FROM_STEP @5 17703 #
point $-1 -1 $-1 -1290.3054834010168 341.65013247183788 -562.40192378864674 #
truecolor-adesk-attrib $-1 -1 $247 $-1 $115 -1027161668 #
ellipse-curve $-1 -1 $-1 -1284.3054834010168 341.65013247183788 -569.40192378864685 -1 -4.7923606703259355e-31 -3.4532597966567843e-15 -2.417281857659751e-14 -1.1584486503741008e-44 7.0000000000000062 1 F 0 F 3.1415926535897931 #
face $248 -1 $-1 $249 $250 $3 $-1 $251 reversed single #
DXID-attrib $-1 -1 $-1 $121 $68 @18 ASM_EDGE_FROM_STEP @5 39537 #
truecolor-adesk-attrib $-1 -1 $252 $-1 $123 -1027161668 #
ellipse-curve $-1 -1 $-1 -1290.305483401017 291.65013247183782 -539.40192378864685 -1 -4.7923606703259355e-31 -3.4532597966567843e-15 -2.417281857659751e-14 -1.1584486503741008e-44 7.0000000000000062 1 F 0 F 3.1415926535897931 #
truecolor-adesk-attrib $-1 -1 $253 $-1 $124 -1027161668 #
cone-surface $-1 -1 $-1 -1284.3054834010168 291.65013247183782 -539.40192378864685 -1 -4.7923606703259355e-31 -3.4532597966567843e-15 -2.417281857659751e-14 -1.1584486503741008e-44 7.0000000000000062 1 I I 0 1 7.0000000000000062 forward I I I I #
DXID-attrib $-1 -1 $-1 $129 $78 @18 ASM_EDGE_FROM_STEP @3 839 #
DXID-attrib $-1 -1 $-1 $131 $79 @18 ASM_FACE_FROM_STEP @17 step-3M-341-42264 #
truecolor-adesk-attrib $-1 -1 $254 $-1 $132 -1027161668 #
face $255 -1 $-1 $256 $257 $3 $-1 $258 reversed single #
loop $-1 -1 $-1 $-1 $259 $132 #
plane-surface $-1 -1 $-1 -1284.3054834010172 -968.34986752816212 -504.40192378864657 4.4408920985006222e-15 -8.3475415385350124e-17 -1 -1 0 -4.4408920985006222e-15 forward_v I I I I #
coedge $-1 -1 $-1 $260 $261 $262 $263 forward $133 $-1 #
DXID-attrib $-1 -1 $-1 $136 $85 @18 ASM_FACE_FROM_STEP @17 step-3M-341-26459 #
truecolor-adesk-attrib $-1 -1 $264 $-1 $137 -1027161668 #
loop $-1 -1 $-1 $-1 $265 $137 #
cone-surface $-1 -1 $-1 -1298.8054834010172 -968.34986752816212 -522.25192378864665 0 1 -8.3475415385350124e-17 0 -7.0954103077548143e-16 -8.5000000000000639 1 I I 0 1 8.5000000000000639 forward I I I I #
coedge $-1 -1 $-1 $266 $267 $268 $269 forward $138 $-1 #
coedge $-1 -1 $-1 $270 $140 $267 $271 reversed $86 $-1 #
coedge $-1 -1 $-1 $140 $270 $141 $206 forward $86 $-1 #
coedge $-1 -1 $-1 $143 $268 $140 $204 reversed $210 $-1 #
edge $272 -1 $-1 $213 -1.5707963267948966 $273 -0.082723261875620263 $140 $274 forward @7 unknown #
coedge $-1 -1 $-1 $142 $141 $275 $276 reversed $49 $-1 #
edge $277 -1 $-1 $278 0 $213 1.3300000000000001 $141 $279 forward @7 unknown #
coedge $-1 -1 $-1 $280 $259 $142 $208 reversed $193 $-1 #
edge $281 -1 $-1 $282 0 $212 1.3300000000000001 $142 $283 forward @7 unknown #
coedge $-1 -1 $-1 $262 $143 $259 $284 reversed $210 $-1 #
loop $-1 -1 $-1 $-1 $143 $256 #
truecolor-adesk-attrib $-1 -1 $285 $-1 $144 -1027161668 #
vertex $-1 -1 $-1 $144 $286 #
vertex $-1 -1 $-1 $144 $287 #
straight-curve $-1 -1 $-1 -1334.3054834010172 361.65013247183788 -504.40192378864697 0 0 -1000 F 0 F 0.0022351056844777872 #
coedge $-1 -1 $-1 $288 $288 $145 $216 reversed $289 $-1 #
edge $290 -1 $-1 $221 -3.1415926535897931 $224 0 $145 $291 forward @7 unknown #
coedge $-1 -1 $-1 $148 $146 $150 $226 reversed $219 $-1 #
coedge $-1 -1 $-1 $146 $148 $288 $292 forward $219 $-1 #
loop $-1 -1 $-1 $-1 $146 $293 #
truecolor-adesk-attrib $-1 -1 $294 $-1 $147 -1027161668 #
vertex $-1 -1 $-1 $147 $295 #
straight-curve $-1 -1 $-1 -1284.3054834010168 341.65013247183788 -546.40192378864674 -1000 -4.7923606703259344e-28 -3.4532597966567848e-12 F 0 F 0.0060000000000000851 #
truecolor-adesk-attrib $-1 -1 $296 $-1 $149 -1027161668 #
vertex $-1 -1 $-1 $216 $297 #
straight-curve $-1 -1 $-1 -1284.3054834010168 341.65013247183788 -532.40192378864674 -1000 -4.7923606703259344e-28 -3.4532597966567848e-12 F 0 F 0.0060000000000000851 #
edge $298 -1 $-1 $154 0 $153 3.1415926535897931 $150 $299 forward @7 unknown #
DXID-attrib $-1 -1 $-1 $152 $92 @18 ASM_EDGE_FROM_STEP @5 38320 #
point $-1 -1 $-1 -1284.3054834010168 341.65013247183788 -546.40192378864674 #
point $-1 -1 $-1 -1284.3054834010168 341.65013247183788 -532.40192378864674 #
coedge $-1 -1 $-1 $156 $156 $159 $234 reversed $231 $-1 #
loop $-1 -1 $-1 $289 $230 $183 #
truecolor-adesk-attrib $-1 -1 $300 $-1 $157 -1027161668 #
ellipse-curve $-1 -1 $-1 -1290.3054834010168 291.65013247183782 -569.40192378864685 -1 -4.7923606703259355e-31 -3.4532597966567843e-15 -2.417281857659751e-14 -1.1584486503741008e-44 7.0000000000000062 1 F -3.1415926535897931 F 0 #
edge $301 -1 $-1 $165 0 $162 3.1415926535897931 $230 $302 forward @7 unknown #
face $303 -1 $-1 $176 $160 $3 $-1 $304 reversed single #
DXID-attrib $-1 -1 $-1 $161 $95 @18 ASM_EDGE_FROM_STEP @4 4579 #
point $-1 -1 $-1 -1290.3054834010168 291.65013247183782 -576.40192378864674 #
DXID-attrib $-1 -1 $-1 $164 $97 @18 ASM_EDGE_FROM_STEP @4 8950 #
point $-1 -1 $-1 -1290.3054834010168 291.65013247183782 -562.40192378864674 #
truecolor-adesk-attrib $-1 -1 $305 $-1 $167 -1027161668 #
ellipse-curve $-1 -1 $-1 -1284.3054834010168 291.65013247183782 -569.40192378864685 -1 -4.7923606703259355e-31 -3.4532597966567843e-15 -2.417281857659751e-14 -1.1584486503741008e-44 7.0000000000000062 1 F 0 F 3.1415926535897931 #
DXID-attrib $-1 -1 $-1 $173 $105 @18 ASM_EDGE_FROM_STEP @5 23128 #
truecolor-adesk-attrib $-1 -1 $306 $-1 $175 -1027161668 #
ellipse-curve $-1 -1 $-1 -1290.3054834010168 341.65013247183788 -569.40192378864685 -1 -4.7923606703259355e-31 -3.4532597966567843e-15 -2.417281857659751e-14 -1.1584486503741008e-44 7.0000000000000062 1 F 0 F 3.1415926535897931 #
truecolor-adesk-attrib $-1 -1 $307 $-1 $176 -1027161668 #
cone-surface $-1 -1 $-1 -1284.3054834010168 341.65013247183788 -569.40192378864685 -1 -4.7923606703259355e-31 -3.4532597966567843e-15 -2.417281857659751e-14 -1.1584486503741008e-44 7.0000000000000062 1 I I 0 1 7.0000000000000062 forward I I I I #
DXID-attrib $-1 -1 $-1 $181 $115 @18 ASM_EDGE_FROM_STEP @4 4792 #
truecolor-adesk-attrib $-1 -1 $308 $-1 $183 -1027161668 #
face $309 -1 $-1 $310 $311 $3 $-1 $312 reversed single #
loop $-1 -1 $-1 $120 $313 $183 #
plane-surface $-1 -1 $-1 -1290.3054834010172 -968.34986752816212 -522.25192378864665 1 2.8826229595945478e-31 3.4532597966567843e-15 3.4532597966567843e-15 0 -1 forward_v I I I I #
DXID-attrib $-1 -1 $-1 $185 $123 @18 ASM_EDGE_FROM_STEP @5 20032 #
DXID-attrib $-1 -1 $-1 $187 $124 @18 ASM_FACE_FROM_STEP @17 step-3M-341-21880 #
DXID-attrib $-1 -1 $-1 $191 $132 @18 ASM_FACE_FROM_STEP @16 step-3M-341-4099 #
truecolor-adesk-attrib $-1 -1 $314 $-1 $192 -1027161668 #
face $315 -1 $-1 $293 $210 $3 $-1 $316 forward single #
loop $-1 -1 $-1 $-1 $275 $192 #
plane-surface $-1 -1 $-1 -1329.8054834010172 -968.34986752816212 -506.63702947312458 -1.3234889800848438e-23 1 -8.3475415385350124e-17 0 -8.3475415385350124e-17 -1 forward_v I I I I #
coedge $-1 -1 $-1 $207 $317 $209 $284 forward $193 $-1 #
coedge $-1 -1 $-1 $318 $195 $317 $319 reversed $133 $-1 #
coedge $-1 -1 $-1 $195 $318 $320 $321 forward $133 $-1 #
coedge $-1 -1 $-1 $322 $209 $195 $263 reversed $210 $-1 #
edge $323 -1 $-1 $324 0 $325 0.099999999999999922 $195 $326 forward @7 unknown #
DXID-attrib $-1 -1 $-1 $197 $137 @18 ASM_FACE_FROM_STEP @17 step-3M-341-28426 #
coedge $-1 -1 $-1 $327 $328 $329 $330 forward $198 $-1 #
coedge $-1 -1 $-1 $331 $200 $328 $332 reversed $138 $-1 #
coedge $-1 -1 $-1 $200 $331 $201 $271 forward $138 $-1 #
coedge $-1 -1 $-1 $203 $329 $200 $269 reversed $210 $-1 #
edge $333 -1 $-1 $273 0 $334 0.032184234098156322 $200 $335 forward @7 unknown #
coedge $-1 -1 $-1 $202 $201 $336 $337 reversed $86 $-1 #
edge $338 -1 $-1 $339 0 $273 1.3300000000000001 $201 $340 forward @7 unknown #
truecolor-adesk-attrib $-1 -1 $341 $-1 $204 -1027161668 #
vertex $-1 -1 $-1 $204 $342 #
ellipse-curve $-1 -1 $-1 -1329.8054834010172 361.65013247183788 -506.6370294731247 1.3234889800848438e-23 -1 8.3475415385350136e-17 4.9715456566732742e-39 -3.7563936923408059e-16 -4.5000000000000595 1 F -1.5707963267948966 F -0.082723261875620263 #
coedge $-1 -1 $-1 $336 $343 $205 $276 forward $257 $-1 #
edge $344 -1 $-1 $282 0 $278 0.0022351056844777872 $205 $345 forward @7 unknown #
truecolor-adesk-attrib $-1 -1 $346 $-1 $206 -1027161668 #
vertex $-1 -1 $-1 $206 $347 #
straight-curve $-1 -1 $-1 -1334.3054834010172 -968.34986752816212 -506.63702947312458 0 1000 -8.3475415385350121e-14 F 0 F 1.3300000000000001 #
coedge $-1 -1 $-1 $317 $207 $343 $348 reversed $193 $-1 #
truecolor-adesk-attrib $-1 -1 $349 $-1 $208 -1027161668 #
vertex $-1 -1 $-1 $276 $350 #
straight-curve $-1 -1 $-1 -1334.3054834010172 -968.34986752816212 -504.4019237886468 0 1000 -8.3475415385350121e-14 F 0 F 1.3300000000000001 #
edge $351 -1 $-1 $325 0 $212 0.050000000000000072 $259 $352 forward @7 unknown #
DXID-attrib $-1 -1 $-1 $211 $144 @18 ASM_EDGE_FROM_STEP @4 8592 #
point $-1 -1 $-1 -1334.3054834010172 361.65013247183788 -504.40192378864697 #
point $-1 -1 $-1 -1334.3054834010172 361.65013247183788 -506.6370294731247 #
coedge $-1 -1 $-1 $215 $215 $218 $292 reversed $289 $-1 #
loop $-1 -1 $-1 $-1 $288 $183 #
truecolor-adesk-attrib $-1 -1 $353 $-1 $216 -1027161668 #
ellipse-curve $-1 -1 $-1 -1290.305483401017 341.65013247183788 -539.40192378864685 -1 -4.7923606703259355e-31 -3.4532597966567843e-15 -2.417281857659751e-14 -1.1584486503741008e-44 7.0000000000000062 1 F -3.1415926535897931 F 0 #
edge $354 -1 $-1 $224 0 $221 3.1415926535897931 $288 $355 forward @7 unknown #
face $356 -1 $-1 $235 $219 $3 $-1 $357 reversed single #
DXID-attrib $-1 -1 $-1 $220 $147 @18 ASM_EDGE_FROM_STEP @4 9334 #
point $-1 -1 $-1 -1290.305483401017 341.65013247183788 -546.40192378864674 #
DXID-attrib $-1 -1 $-1 $223 $149 @18 ASM_EDGE_FROM_STEP @5 32698 #
point $-1 -1 $-1 -1290.305483401017 341.65013247183788 -532.40192378864674 #
truecolor-adesk-attrib $-1 -1 $358 $-1 $226 -1027161668 #
ellipse-curve $-1 -1 $-1 -1284.3054834010168 341.65013247183788 -539.40192378864685 -1 -4.7923606703259355e-31 -3.4532597966567843e-15 -2.417281857659751e-14 -1.1584486503741008e-44 7.0000000000000062 1 F 0 F 3.1415926535897931 #
DXID-attrib $-1 -1 $-1 $232 $157 @18 ASM_EDGE_FROM_STEP @5 26654 #
truecolor-adesk-attrib $-1 -1 $359 $-1 $234 -1027161668 #
ellipse-curve $-1 -1 $-1 -1290.3054834010168 291.65013247183782 -569.40192378864685 -1 -4.7923606703259355e-31 -3.4532597966567843e-15 -2.417281857659751e-14 -1.1584486503741008e-44 7.0000000000000062 1 F 0 F 3.1415926535897931 #
truecolor-adesk-attrib $-1 -1 $360 $-1 $235 -1027161668 #
cone-surface $-1 -1 $-1 -1284.3054834010168 291.65013247183782 -569.40192378864685 -1 -4.7923606703259355e-31 -3.4532597966567843e-15 -2.417281857659751e-14 -1.1584486503741008e-44 7.0000000000000062 1 I I 0 1 7.0000000000000062 forward I I I I #
DXID-attrib $-1 -1 $-1 $240 $167 @18 ASM_EDGE_FROM_STEP @5 35106 #
DXID-attrib $-1 -1 $-1 $243 $175 @18 ASM_EDGE_FROM_STEP @5 18959 #
DXID-attrib $-1 -1 $-1 $245 $176 @18 ASM_FACE_FROM_STEP @17 step-3M-341-26460 #
DXID-attrib $-1 -1 $-1 $248 $183 @18 ASM_FACE_FROM_STEP @17 step-3M-341-39554 #
truecolor-adesk-attrib $-1 -1 $361 $-1 $249 -1027161668 #
face $362 -1 $-1 $363 $364 $3 $-1 $365 reversed single #
loop $-1 -1 $-1 $-1 $366 $249 #
cone-surface $-1 -1 $-1 -1298.805483401017 -968.34986752816212 -586.5519237886466 0 1 -8.3475415385350124e-17 0 -7.0954103077548143e-16 -8.5000000000000639 1 I I 0 1 8.5000000000000639 forward I I I I #
coedge $-1 -1 $-1 $367 $368 $369 $370 forward $250 $-1 #
DXID-attrib $-1 -1 $-1 $255 $192 @18 ASM_FACE_FROM_STEP @17 step-3M-341-39442 #
truecolor-adesk-attrib $-1 -1 $371 $-1 $256 -1027161668 #
plane-surface $-1 -1 $-1 -1329.8054834010172 361.65013247183788 -506.6370294731247 -1.3234889800848438e-23 1 -8.3475415385350124e-17 0 -8.3475415385350124e-17 -1 forward_v I I I I #
coedge $-1 -1 $-1 $259 $280 $260 $319 forward $193 $-1 #
coedge $-1 -1 $-1 $261 $260 $372 $373 reversed $133 $-1 #
edge $374 -1 $-1 $375 0 $325 1.3300000000000001 $260 $376 forward @7 unknown #
coedge $-1 -1 $-1 $377 $378 $261 $321 reversed $379 $-1 #
edge $380 -1 $-1 $381 0 $324 1.3300000000000001 $320 $382 forward @7 unknown #
coedge $-1 -1 $-1 $383 $262 $378 $384 reversed $210 $-1 #
truecolor-adesk-attrib $-1 -1 $385 $-1 $263 -1027161668 #
vertex $-1 -1 $-1 $384 $386 #
vertex $-1 -1 $-1 $263 $387 #
straight-curve $-1 -1 $-1 -1284.3054834010168 361.65013247183788 -604.40192378864663 -3.3306690738754704e-12 0 1000 F 0 F 0.099999999999999922 #
coedge $-1 -1 $-1 $388 $265 $368 $389 reversed $198 $-1 #
coedge $-1 -1 $-1 $265 $388 $266 $332 forward $198 $-1 #
coedge $-1 -1 $-1 $268 $369 $265 $330 reversed $210 $-1 #
edge $390 -1 $-1 $334 0.082723261875611312 $391 1.5707963267948966 $265 $392 forward @7 unknown #
coedge $-1 -1 $-1 $267 $266 $393 $394 reversed $138 $-1 #
edge $395 -1 $-1 $396 0 $334 1.3300000000000001 $266 $397 forward @7 unknown #
truecolor-adesk-attrib $-1 -1 $398 $-1 $269 -1027161668 #
vertex $-1 -1 $-1 $269 $399 #
straight-curve $-1 -1 $-1 -1330.1773136596757 361.65013247183788 -511.12164119084861 996.58038171641078 0 -82.628946368526783 F 0 F 0.032184234098156322 #
coedge $-1 -1 $-1 $393 $275 $270 $337 forward $257 $-1 #
edge $400 -1 $-1 $278 -1.5707963267948966 $339 -0.082723261875620263 $270 $401 forward @7 unknown #
truecolor-adesk-attrib $-1 -1 $402 $-1 $271 -1027161668 #
vertex $-1 -1 $-1 $271 $403 #
straight-curve $-1 -1 $-1 -1330.1773136596757 -968.34986752816212 -511.12164119084844 0 1000 -8.3475415385350121e-14 F 0 F 1.3300000000000001 #
DXID-attrib $-1 -1 $-1 $272 $204 @18 ASM_EDGE_FROM_STEP @5 22039 #
point $-1 -1 $-1 -1330.1773136596757 361.65013247183788 -511.12164119084861 #
coedge $-1 -1 $-1 $275 $372 $280 $348 forward $257 $-1 #
truecolor-adesk-attrib $-1 -1 $404 $-1 $276 -1027161668 #
straight-curve $-1 -1 $-1 -1334.3054834010172 -968.34986752816212 -504.4019237886468 0 0 -1000 F 0 F 0.0022351056844777872 #
DXID-attrib $-1 -1 $-1 $277 $206 @18 ASM_EDGE_FROM_STEP @4 9476 #
point $-1 -1 $-1 -1334.3054834010172 -968.34986752816212 -506.63702947312458 #
edge $405 -1 $-1 $375 0 $282 0.050000000000000072 $280 $406 forward @7 unknown #
DXID-attrib $-1 -1 $-1 $281 $208 @18 ASM_EDGE_FROM_STEP @5 17532 #
point $-1 -1 $-1 -1334.3054834010172 -968.34986752816212 -504.4019237886468 #
truecolor-adesk-attrib $-1 -1 $407 $-1 $284 -1027161668 #
straight-curve $-1 -1 $-1 -1284.3054834010172 361.65013247183788 -504.40192378864674 -1000 0 -4.4408920985006221e-12 F 0 F 0.050000000000000072 #
DXID-attrib $-1 -1 $-1 $290 $216 @18 ASM_EDGE_FROM_STEP @4 8405 #
truecolor-adesk-attrib $-1 -1 $408 $-1 $292 -1027161668 #
ellipse-curve $-1 -1 $-1 -1290.305483401017 341.65013247183788 -539.40192378864685 -1 -4.7923606703259355e-31 -3.4532597966567843e-15 -2.417281857659751e-14 -1.1584486503741008e-44 7.0000000000000062 1 F 0 F 3.1415926535897931 #
truecolor-adesk-attrib $-1 -1 $409 $-1 $293 -1027161668 #
cone-surface $-1 -1 $-1 -1284.3054834010168 341.65013247183788 -539.40192378864685 -1 -4.7923606703259355e-31 -3.4532597966567843e-15 -2.417281857659751e-14 -1.1584486503741008e-44 7.0000000000000062 1 I I 0 1 7.0000000000000062 forward I I I I #
DXID-attrib $-1 -1 $-1 $298 $226 @18 ASM_EDGE_FROM_STEP @5 30912 #
DXID-attrib $-1 -1 $-1 $301 $234 @18 ASM_EDGE_FROM_STEP @4 6702 #
DXID-attrib $-1 -1 $-1 $303 $235 @18 ASM_FACE_FROM_STEP @17 step-3M-341-38930 #
DXID-attrib $-1 -1 $-1 $309 $249 @18 ASM_FACE_FROM_STEP @17 step-3M-341-40985 #
truecolor-adesk-attrib $-1 -1 $410 $-1 $310 -1027161668 #
face $411 -1 $-1 $412 $413 $3 $-1 $414 forward single #
loop $-1 -1 $-1 $-1 $415 $310 #
plane-surface $-1 -1 $-1 -1330.1773136596753 -968.34986752816212 -597.68220638644493 0.082628946368533657 -8.318996132866814e-17 -0.99658038171641028 -0.99658038171641039 -7.7037197775489434e-34 -0.082628946368533671 forward_v I I I I #
coedge $-1 -1 $-1 $416 $417 $418 $419 forward $311 $-1 #
coedge $-1 -1 $-1 $420 $313 $417 $421 reversed $250 $-1 #
coedge $-1 -1 $-1 $313 $420 $327 $389 forward $250 $-1 #
coedge $-1 -1 $-1 $329 $418 $313 $370 reversed $210 $-1 #
edge $422 -1 $-1 $391 0 $423 0.064299999999999996 $313 $424 forward @7 unknown #
DXID-attrib $-1 -1 $-1 $315 $256 @18 ASM_FACE_FROM_STEP @16 step-3M-341-3210 #
coedge $-1 -1 $-1 $343 $425 $318 $373 forward $257 $-1 #
edge $426 -1 $-1 $381 0 $375 0.099999999999999922 $318 $427 forward @7 unknown #
truecolor-adesk-attrib $-1 -1 $428 $-1 $319 -1027161668 #
vertex $-1 -1 $-1 $319 $429 #
straight-curve $-1 -1 $-1 -1284.3054834010172 -968.34986752816212 -504.40192378864657 0 1000 -8.3475415385350121e-14 F 0 F 1.3300000000000001 #
coedge $-1 -1 $-1 $430 $320 $425 $431 reversed $379 $-1 #
coedge $-1 -1 $-1 $320 $430 $322 $384 forward $379 $-1 #
loop $-1 -1 $-1 $-1 $378 $432 #
truecolor-adesk-attrib $-1 -1 $433 $-1 $321 -1027161668 #
vertex $-1 -1 $-1 $321 $434 #
straight-curve $-1 -1 $-1 -1284.3054834010168 -968.34986752816212 -604.40192378864651 0 1000 -8.3475415385350121e-14 F 0 F 1.3300000000000001 #
coedge $-1 -1 $-1 $435 $322 $436 $437 reversed $210 $-1 #
edge $438 -1 $-1 $439 -0.050000000000000003 $324 0 $378 $440 forward @7 unknown #
DXID-attrib $-1 -1 $-1 $323 $263 @18 ASM_EDGE_FROM_STEP @5 23581 #
point $-1 -1 $-1 -1284.3054834010168 361.65013247183788 -604.40192378864663 #
point $-1 -1 $-1 -1284.3054834010172 361.65013247183788 -504.40192378864674 #
coedge $-1 -1 $-1 $328 $327 $441 $442 reversed $198 $-1 #
edge $443 -1 $-1 $444 0 $391 1.3300000000000001 $327 $445 forward @7 unknown #
truecolor-adesk-attrib $-1 -1 $446 $-1 $330 -1027161668 #
vertex $-1 -1 $-1 $330 $447 #
ellipse-curve $-1 -1 $-1 -1298.8054834010172 361.65013247183788 -522.25192378864676 -1.3234889800848437e-23 1 -8.3475415385350124e-17 -9.390697351493905e-39 7.0954103077548143e-16 8.5000000000000639 1 F 0.082723261875611312 F 1.5707963267948966 #
coedge $-1 -1 $-1 $441 $336 $331 $394 forward $257 $-1 #
edge $448 -1 $-1 $339 0 $396 0.032184234098156322 $331 $449 forward @7 unknown #
truecolor-adesk-attrib $-1 -1 $450 $-1 $332 -1027161668 #
vertex $-1 -1 $-1 $332 $451 #
straight-curve $-1 -1 $-1 -1298.1031373568846 -968.34986752816212 -513.78099054405709 0 1000 -8.3475415385350121e-14 F 0 F 1.3300000000000001 #
DXID-attrib $-1 -1 $-1 $333 $269 @18 ASM_EDGE_FROM_STEP @4 7225 #
point $-1 -1 $-1 -1298.1031373568846 361.65013247183788 -513.7809905440572 #
truecolor-adesk-attrib $-1 -1 $452 $-1 $337 -1027161668 #
ellipse-curve $-1 -1 $-1 -1329.8054834010172 -968.34986752816212 -506.63702947312458 1.3234889800848438e-23 -1 8.3475415385350136e-17 4.9715456566732742e-39 -3.7563936923408059e-16 -4.5000000000000595 1 F -1.5707963267948966 F -0.082723261875620263 #
DXID-attrib $-1 -1 $-1 $338 $271 @18 ASM_EDGE_FROM_STEP @4 1757 #
point $-1 -1 $-1 -1330.1773136596757 -968.34986752816212 -511.12164119084844 #
DXID-attrib $-1 -1 $-1 $344 $276 @18 ASM_EDGE_FROM_STEP @5 37420 #
truecolor-adesk-attrib $-1 -1 $453 $-1 $348 -1027161668 #
straight-curve $-1 -1 $-1 -1284.3054834010172 -968.34986752816212 -504.40192378864657 -1000 0 -4.4408920985006221e-12 F 0 F 0.050000000000000072 #
DXID-attrib $-1 -1 $-1 $351 $284 @18 ASM_EDGE_FROM_STEP @5 19597 #
DXID-attrib $-1 -1 $-1 $354 $292 @18 ASM_EDGE_FROM_STEP @5 28222 #
DXID-attrib $-1 -1 $-1 $356 $293 @18 ASM_FACE_FROM_STEP @16 step-3M-341-1631 #
DXID-attrib $-1 -1 $-1 $362 $310 @18 ASM_FACE_FROM_STEP @17 step-3M-341-31925 #
truecolor-adesk-attrib $-1 -1 $454 $-1 $363 -1027161668 #
face $455 -1 $-1 $432 $456 $3 $-1 $457 reversed single #
loop $-1 -1 $-1 $-1 $458 $363 #
cone-surface $-1 -1 $-1 -1329.8054834010168 -968.34986752816212 -602.16681810416878 0 1 -8.3475415385350136e-17 0 -3.7563936923408059e-16 -4.5000000000000595 1 I I 0 1 4.5000000000000595 forward I I I I #
coedge $-1 -1 $-1 $459 $460 $461 $462 forward $364 $-1 #
coedge $-1 -1 $-1 $463 $366 $460 $464 reversed $311 $-1 #
coedge $-1 -1 $-1 $366 $463 $367 $421 forward $311 $-1 #
coedge $-1 -1 $-1 $369 $461 $366 $419 reversed $210 $-1 #
edge $465 -1 $-1 $423 -1.5707963267948966 $466 -0.082723261875619652 $366 $467 forward @7 unknown #
coedge $-1 -1 $-1 $368 $367 $468 $469 reversed $250 $-1 #
edge $470 -1 $-1 $471 0 $423 1.3300000000000001 $367 $472 forward @7 unknown #
truecolor-adesk-attrib $-1 -1 $473 $-1 $370 -1027161668 #
vertex $-1 -1 $-1 $370 $474 #
straight-curve $-1 -1 $-1 -1290.3054834010172 361.65013247183788 -522.25192378864676 3.4532597966567848e-12 0 -1000 F 0 F 0.064299999999999996 #
coedge $-1 -1 $-1 $372 $475 $377 $431 forward $257 $-1 #
truecolor-adesk-attrib $-1 -1 $476 $-1 $373 -1027161668 #
straight-curve $-1 -1 $-1 -1284.3054834010168 -968.34986752816212 -604.40192378864651 -3.3306690738754704e-12 0 1000 F 0 F 0.099999999999999922 #
DXID-attrib $-1 -1 $-1 $374 $319 @18 ASM_EDGE_FROM_STEP @5 20299 #
point $-1 -1 $-1 -1284.3054834010172 -968.34986752816212 -504.40192378864657 #
coedge $-1 -1 $-1 $378 $377 $477 $478 forward $379 $-1 #
edge $479 -1 $-1 $480 -0.050000000000000003 $381 0 $377 $481 forward @7 unknown #
face $482 -1 $-1 $79 $379 $3 $-1 $483 reversed single #
DXID-attrib $-1 -1 $-1 $380 $321 @18 ASM_EDGE_FROM_STEP @5 24464 #
point $-1 -1 $-1 -1284.3054834010168 -968.34986752816212 -604.40192378864651 #
coedge $-1 -1 $-1 $461 $383 $458 $484 reversed $210 $-1 #
coedge $-1 -1 $-1 $477 $485 $383 $437 forward $456 $-1 #
edge $486 -1 $-1 $487 -0.0022351056844779294 $439 0 $436 $488 forward @7 unknown #
truecolor-adesk-attrib $-1 -1 $489 $-1 $384 -1027161668 #
vertex $-1 -1 $-1 $437 $490 #
straight-curve $-1 -1 $-1 -1284.3054834010168 361.65013247183788 -604.40192378864663 1000 0 4.4408920985006221e-12 F -0.050000000000000003 F 0 #
coedge $-1 -1 $-1 $468 $393 $388 $442 forward $257 $-1 #
edge $491 -1 $-1 $396 0.082723261875611312 $444 1.5707963267948966 $388 $492 forward @7 unknown #
truecolor-adesk-attrib $-1 -1 $493 $-1 $389 -1027161668 #
vertex $-1 -1 $-1 $389 $494 #
straight-curve $-1 -1 $-1 -1290.3054834010172 -968.34986752816212 -522.25192378864665 0 1000 -8.3475415385350121e-14 F 0 F 1.3300000000000001 #
DXID-attrib $-1 -1 $-1 $390 $330 @18 ASM_EDGE_FROM_STEP @5 41965 #
point $-1 -1 $-1 -1290.3054834010172 361.65013247183788 -522.25192378864676 #
truecolor-adesk-attrib $-1 -1 $495 $-1 $394 -1027161668 #
straight-curve $-1 -1 $-1 -1330.1773136596757 -968.34986752816212 -511.12164119084844 996.58038171641078 0 -82.628946368526783 F 0 F 0.032184234098156322 #
DXID-attrib $-1 -1 $-1 $395 $332 @18 ASM_EDGE_FROM_STEP @5 19272 #
point $-1 -1 $-1 -1298.1031373568846 -968.34986752816212 -513.78099054405709 #
DXID-attrib $-1 -1 $-1 $400 $337 @18 ASM_EDGE_FROM_STEP @5 34243 #
DXID-attrib $-1 -1 $-1 $405 $348 @18 ASM_EDGE_FROM_STEP @4 7396 #
DXID-attrib $-1 -1 $-1 $411 $363 @18 ASM_FACE_FROM_STEP @16 step-3M-341-8384 #
truecolor-adesk-attrib $-1 -1 $496 $-1 $412 -1027161668 #
loop $-1 -1 $-1 $-1 $436 $412 #
plane-surface $-1 -1 $-1 -1334.3054834010168 -968.34986752816212 -604.40192378864685 1 0 0 0 0 -1 forward_v I I I I #
coedge $-1 -1 $-1 $497 $498 $435 $484 forward $413 $-1 #
coedge $-1 -1 $-1 $499 $415 $498 $500 reversed $364 $-1 #
coedge $-1 -1 $-1 $415 $499 $416 $464 forward $364 $-1 #
coedge $-1 -1 $-1 $418 $435 $415 $462 reversed $210 $-1 #
edge $501 -1 $-1 $466 -0.032184234098156204 $502 0 $415 $503 forward @7 unknown #
coedge $-1 -1 $-1 $417 $416 $504 $505 reversed $311 $-1 #
edge $506 -1 $-1 $507 0 $466 1.3300000000000001 $416 $508 forward @7 unknown #
truecolor-adesk-attrib $-1 -1 $509 $-1 $419 -1027161668 #
vertex $-1 -1 $-1 $419 $510 #
ellipse-curve $-1 -1 $-1 -1298.805483401017 361.65013247183788 -586.55192378864672 -1.3234889800848437e-23 1 -8.3475415385350124e-17 9.390697351493905e-39 -7.0954103077548143e-16 -8.5000000000000639 1 F -1.5707963267948966 F -0.082723261875619652 #
coedge $-1 -1 $-1 $504 $441 $420 $469 forward $257 $-1 #
edge $511 -1 $-1 $444 0 $471 0.064299999999999927 $420 $512 forward @7 unknown #
truecolor-adesk-attrib $-1 -1 $513 $-1 $421 -1027161668 #
vertex $-1 -1 $-1 $421 $514 #
straight-curve $-1 -1 $-1 -1290.3054834010168 -968.34986752816212 -586.5519237886466 0 1000 -8.3475415385350121e-14 F 0 F 1.3300000000000001 #
DXID-attrib $-1 -1 $-1 $422 $370 @18 ASM_EDGE_FROM_STEP @5 32733 #
point $-1 -1 $-1 -1290.3054834010168 361.65013247183788 -586.55192378864672 #
coedge $-1 -1 $-1 $425 $515 $516 $517 forward $257 $-1 #
DXID-attrib $-1 -1 $-1 $426 $373 @18 ASM_EDGE_FROM_STEP @5 41410 #
coedge $-1 -1 $-1 $516 $436 $430 $478 reversed $456 $-1 #
edge $518 -1 $-1 $480 0 $439 1.3300000000000001 $477 $519 forward @7 unknown #
truecolor-adesk-attrib $-1 -1 $520 $-1 $431 -1027161668 #
vertex $-1 -1 $-1 $478 $521 #
straight-curve $-1 -1 $-1 -1284.3054834010168 -968.34986752816212 -604.40192378864651 1000 0 4.4408920985006221e-12 F -0.050000000000000003 F 0 #
truecolor-adesk-attrib $-1 -1 $522 $-1 $432 -1027161668 #
plane-surface $-1 -1 $-1 -1284.3054834010168 -968.34986752816212 -604.40192378864651 -4.4408920985006222e-15 8.3475415385350124e-17 1 1 0 4.4408920985006222e-15 forward_v I I I I #
edge $523 -1 $-1 $502 0.082723261875620263 $487 1.5707963267948966 $458 $524 forward @7 unknown #
coedge $-1 -1 $-1 $436 $516 $497 $525 forward $456 $-1 #
truecolor-adesk-attrib $-1 -1 $526 $-1 $437 -1027161668 #
vertex $-1 -1 $-1 $484 $527 #
straight-curve $-1 -1 $-1 -1334.3054834010168 361.65013247183788 -604.40192378864685 0 0 -1000 F -0.0022351056844779294 F 0 #
DXID-attrib $-1 -1 $-1 $438 $384 @18 ASM_EDGE_FROM_STEP @5 12710 #
point $-1 -1 $-1 -1334.3054834010168 361.65013247183788 -604.40192378864685 #
truecolor-adesk-attrib $-1 -1 $528 $-1 $442 -1027161668 #
ellipse-curve $-1 -1 $-1 -1298.8054834010172 -968.34986752816212 -522.25192378864665 -1.3234889800848437e-23 1 -8.3475415385350124e-17 -9.390697351493905e-39 7.0954103077548143e-16 8.5000000000000639 1 F 0.082723261875611312 F 1.5707963267948966 #
DXID-attrib $-1 -1 $-1 $443 $389 @18 ASM_EDGE_FROM_STEP @4 5114 #
point $-1 -1 $-1 -1290.3054834010172 -968.34986752816212 -522.25192378864665 #
DXID-attrib $-1 -1 $-1 $448 $394 @18 ASM_EDGE_FROM_STEP @5 39331 #
DXID-attrib $-1 -1 $-1 $455 $412 @18 ASM_FACE_FROM_STEP @17 step-3M-341-27279 #
coedge $-1 -1 $-1 $529 $458 $485 $525 reversed $413 $-1 #
coedge $-1 -1 $-1 $458 $529 $459 $500 forward $413 $-1 #
coedge $-1 -1 $-1 $460 $459 $530 $531 reversed $364 $-1 #
edge $532 -1 $-1 $533 0 $502 1.3300000000000001 $459 $534 forward @7 unknown #
truecolor-adesk-attrib $-1 -1 $535 $-1 $462 -1027161668 #
vertex $-1 -1 $-1 $462 $536 #
straight-curve $-1 -1 $-1 -1330.1773136596753 361.65013247183788 -597.68220638644505 -996.58038171641033 0 -82.628946368533661 F -0.032184234098156204 F 0 #
coedge $-1 -1 $-1 $530 $468 $463 $505 forward $257 $-1 #
edge $537 -1 $-1 $471 -1.5707963267948966 $507 -0.082723261875619652 $463 $538 forward @7 unknown #
truecolor-adesk-attrib $-1 -1 $539 $-1 $464 -1027161668 #
vertex $-1 -1 $-1 $464 $540 #
straight-curve $-1 -1 $-1 -1298.1031373568844 -968.34986752816212 -595.02285703323605 0 1000 -8.3475415385350121e-14 F 0 F 1.3300000000000001 #
DXID-attrib $-1 -1 $-1 $465 $419 @18 ASM_EDGE_FROM_STEP @4 7951 #
point $-1 -1 $-1 -1298.1031373568844 361.65013247183788 -595.02285703323628 #
truecolor-adesk-attrib $-1 -1 $541 $-1 $469 -1027161668 #
straight-curve $-1 -1 $-1 -1290.3054834010172 -968.34986752816212 -522.25192378864665 3.4532597966567848e-12 0 -1000 F 0 F 0.064299999999999927 #
DXID-attrib $-1 -1 $-1 $470 $421 @18 ASM_EDGE_FROM_STEP @5 39960 #
point $-1 -1 $-1 -1290.3054834010168 -968.34986752816212 -586.5519237886466 #
coedge $-1 -1 $-1 $475 $530 $529 $542 forward $257 $-1 #
coedge $-1 -1 $-1 $485 $477 $475 $517 reversed $456 $-1 #
edge $543 -1 $-1 $544 -0.0022351056844780006 $480 0 $516 $545 forward @7 unknown #
truecolor-adesk-attrib $-1 -1 $546 $-1 $478 -1027161668 #
straight-curve $-1 -1 $-1 -1334.3054834010168 -968.34986752816212 -604.40192378864685 0 1000 -8.3475415385350121e-14 F 0 F 1.3300000000000001 #
DXID-attrib $-1 -1 $-1 $479 $431 @18 ASM_EDGE_FROM_STEP @5 17214 #
point $-1 -1 $-1 -1334.3054834010168 -968.34986752816212 -604.40192378864685 #
DXID-attrib $-1 -1 $-1 $482 $432 @18 ASM_FACE_FROM_STEP @17 step-3M-341-11062 #
truecolor-adesk-attrib $-1 -1 $547 $-1 $484 -1027161668 #
ellipse-curve $-1 -1 $-1 -1329.8054834010168 361.65013247183788 -602.1668181041689 1.3234889800848438e-23 -1 8.3475415385350136e-17 -4.9715456566732742e-39 3.7563936923408059e-16 4.5000000000000595 1 F 0.082723261875620263 F 1.5707963267948966 #
edge $548 -1 $-1 $544 0 $487 1.3300000000000001 $497 $549 forward @7 unknown #
DXID-attrib $-1 -1 $-1 $486 $437 @18 ASM_EDGE_FROM_STEP @5 11904 #
point $-1 -1 $-1 -1334.3054834010168 361.65013247183788 -602.1668181041689 #
DXID-attrib $-1 -1 $-1 $491 $442 @18 ASM_EDGE_FROM_STEP @4 9266 #
coedge $-1 -1 $-1 $498 $497 $515 $542 reversed $413 $-1 #
coedge $-1 -1 $-1 $515 $504 $499 $531 forward $257 $-1 #
edge $550 -1 $-1 $507 -0.032184234098156204 $533 0 $499 $551 forward @7 unknown #
truecolor-adesk-attrib $-1 -1 $552 $-1 $500 -1027161668 #
vertex $-1 -1 $-1 $500 $553 #
straight-curve $-1 -1 $-1 -1330.1773136596753 -968.34986752816212 -597.68220638644493 0 1000 -8.3475415385350121e-14 F 0 F 1.3300000000000001 #
DXID-attrib $-1 -1 $-1 $501 $462 @18 ASM_EDGE_FROM_STEP @5 13298 #
point $-1 -1 $-1 -1330.1773136596753 361.65013247183788 -597.68220638644505 #
truecolor-adesk-attrib $-1 -1 $554 $-1 $505 -1027161668 #
ellipse-curve $-1 -1 $-1 -1298.805483401017 -968.34986752816212 -586.5519237886466 -1.3234889800848437e-23 1 -8.3475415385350124e-17 9.390697351493905e-39 -7.0954103077548143e-16 -8.5000000000000639 1 F -1.5707963267948966 F -0.082723261875619652 #
DXID-attrib $-1 -1 $-1 $506 $464 @18 ASM_EDGE_FROM_STEP @5 17669 #
point $-1 -1 $-1 -1298.1031373568844 -968.34986752816212 -595.02285703323605 #
DXID-attrib $-1 -1 $-1 $511 $469 @18 ASM_EDGE_FROM_STEP @5 17629 #
edge $555 -1 $-1 $533 0.082723261875620263 $544 1.5707963267948966 $529 $556 forward @7 unknown #
truecolor-adesk-attrib $-1 -1 $557 $-1 $517 -1027161668 #
vertex $-1 -1 $-1 $525 $558 #
straight-curve $-1 -1 $-1 -1334.3054834010168 -968.34986752816212 -604.40192378864685 0 0 -1000 F -0.0022351056844780006 F 0 #
DXID-attrib $-1 -1 $-1 $518 $478 @18 ASM_EDGE_FROM_STEP @4 2104 #
DXID-attrib $-1 -1 $-1 $523 $484 @18 ASM_EDGE_FROM_STEP @5 16067 #
truecolor-adesk-attrib $-1 -1 $559 $-1 $525 -1027161668 #
straight-curve $-1 -1 $-1 -1334.3054834010168 -968.34986752816212 -602.16681810416878 0 1000 -8.3475415385350121e-14 F 0 F 1.3300000000000001 #
truecolor-adesk-attrib $-1 -1 $560 $-1 $531 -1027161668 #
straight-curve $-1 -1 $-1 -1330.1773136596753 -968.34986752816212 -597.68220638644493 -996.58038171641033 0 -82.628946368533661 F -0.032184234098156204 F 0 #
DXID-attrib $-1 -1 $-1 $532 $500 @18 ASM_EDGE_FROM_STEP @5 25785 #
point $-1 -1 $-1 -1330.1773136596753 -968.34986752816212 -597.68220638644493 #
DXID-attrib $-1 -1 $-1 $537 $505 @18 ASM_EDGE_FROM_STEP @3 846 #
truecolor-adesk-attrib $-1 -1 $561 $-1 $542 -1027161668 #
ellipse-curve $-1 -1 $-1 -1329.8054834010168 -968.34986752816212 -602.16681810416878 1.3234889800848438e-23 -1 8.3475415385350136e-17 -4.9715456566732742e-39 3.7563936923408059e-16 4.5000000000000595 1 F 0.082723261875620263 F 1.5707963267948966 #
DXID-attrib $-1 -1 $-1 $543 $517 @18 ASM_EDGE_FROM_STEP @5 32546 #
point $-1 -1 $-1 -1334.3054834010168 -968.34986752816212 -602.16681810416878 #
DXID-attrib $-1 -1 $-1 $548 $525 @18 ASM_EDGE_FROM_STEP @4 7021 #
DXID-attrib $-1 -1 $-1 $550 $531 @18 ASM_EDGE_FROM_STEP @5 10180 #
DXID-attrib $-1 -1 $-1 $555 $542 @18 ASM_EDGE_FROM_STEP @5 40113 #
