700 128 1 0         
5 ZWCAD 12 ACIS 28.0 NT 24 Mon May 13 10:04:02 2024 
1 9.9999999999999995e-07 1e-10 
body $1 -1 $-1 $2 $-1 $-1 #
DXID-attrib $-1 -1 $-1 $-1 $0 @18 ASM_BODY_FROM_STEP @83 435A4D250D443B6D9956655D47D4905CE38D465A|:|0260B668D889EBDE4E6FB7CDCD265BBE0D083FF9 #
lump $-1 -1 $-1 $-1 $3 $0 #
shell $-1 -1 $-1 $-1 $-1 $4 $-1 $2 #
face $5 -1 $-1 $6 $7 $3 $-1 $8 reversed single #
color-adesk-attrib $-1 -1 $9 $-1 $4 7 #
face $10 -1 $-1 $11 $12 $3 $-1 $13 reversed single #
loop $-1 -1 $-1 $-1 $14 $4 #
plane-surface $-1 -1 $-1 5029.8601374907921 738.39816199967345 -216.70611395931121 0.81914042226609396 0.57359303396199424 -8.1756317453325485e-17 0.57359303396199424 -0.81914042226609407 1.6700697704556761e-16 forward_v I I I I #
fmesh-eye-attrib $-1 -1 $15 $5 $4 #
color-adesk-attrib $-1 -1 $16 $-1 $6 7 #
face $17 -1 $-1 $18 $19 $3 $-1 $20 reversed single #
loop $-1 -1 $-1 $-1 $21 $6 #
plane-surface $-1 -1 $-1 6221.6522183988054 738.39816199967345 -216.70611395931121 -1.1232219075301469e-17 1 -1.8369701987210297e-16 1 1.1232219075301474e-17 2.8824134254750371e-17 forward_v I I I I #
coedge $-1 -1 $-1 $22 $23 $24 $25 reversed $7 $-1 #
DXID-attrib $-1 -1 $-1 $9 $4 @18 ASM_FACE_FROM_STEP @17 step-3M-341-25935 #
fmesh-eye-attrib $-1 -1 $26 $10 $6 #
color-adesk-attrib $-1 -1 $27 $-1 $11 7 #
face $28 -1 $-1 $29 $30 $3 $-1 $31 reversed single #
loop $-1 -1 $-1 $-1 $32 $11 #
plane-surface $-1 -1 $-1 6536.7591991638801 1188.3981619996734 -216.70611395931132 -0.81914042226609429 0.57359303396199357 -1.2897834446310697e-16 0.57359303396199357 0.81914042226609429 -1.3394033180854744e-16 forward_v I I I I #
coedge $-1 -1 $-1 $33 $24 $34 $35 forward $12 $-1 #
coedge $-1 -1 $-1 $36 $14 $37 $38 forward $7 $-1 #
coedge $-1 -1 $-1 $14 $36 $39 $40 forward $7 $-1 #
coedge $-1 -1 $-1 $21 $41 $14 $25 forward $12 $-1 #
edge $42 -1 $-1 $43 0 $44 1.1058000000000003 $14 $45 forward @7 unknown #
DXID-attrib $-1 -1 $-1 $16 $6 @18 ASM_FACE_FROM_STEP @16 step-3M-341-3751 #
fmesh-eye-attrib $-1 -1 $46 $17 $11 #
color-adesk-attrib $-1 -1 $47 $-1 $18 7 #
face $48 -1 $-1 $49 $50 $3 $-1 $51 reversed single #
loop $-1 -1 $-1 $-1 $52 $18 #
plane-surface $-1 -1 $-1 4714.7531567257174 1188.3981619996732 -216.70611395931132 7.2166321310192201e-17 -1 1.8369701987210297e-16 -1 -7.2166321310192201e-17 -2.8824134254750358e-17 forward_v I I I I #
coedge $-1 -1 $-1 $53 $54 $55 $56 reversed $19 $-1 #
coedge $-1 -1 $-1 $41 $21 $57 $58 reversed $12 $-1 #
coedge $-1 -1 $-1 $39 $59 $21 $35 reversed $50 $-1 #
edge $60 -1 $-1 $44 -1.1917920809080136 $61 0 $21 $62 forward @7 unknown #
coedge $-1 -1 $-1 $23 $22 $52 $63 forward $7 $-1 #
coedge $-1 -1 $-1 $64 $65 $22 $38 reversed $66 $-1 #
edge $67 -1 $-1 $43 0 $68 0.77042877061884074 $22 $69 forward @7 unknown #
coedge $-1 -1 $-1 $70 $34 $23 $40 reversed $50 $-1 #
edge $71 -1 $-1 $72 -0.54935635913938485 $44 0 $23 $73 forward @7 unknown #
coedge $-1 -1 $-1 $24 $33 $64 $74 reversed $12 $-1 #
color-adesk-attrib $-1 -1 $75 $-1 $25 7 #
vertex $-1 -1 $-1 $25 $76 #
vertex $-1 -1 $-1 $25 $77 #
straight-curve $-1 -1 $-1 5029.8601374907921 738.39816199967345 -216.70611395931121 2.8824134254750371e-14 -1.8369701987210297e-13 -1000 F 0 F 1.1058000000000003 #
DXID-attrib $-1 -1 $-1 $27 $11 @18 ASM_FACE_FROM_STEP @17 step-3M-341-23209 #
fmesh-eye-attrib $-1 -1 $78 $28 $18 #
color-adesk-attrib $-1 -1 $79 $-1 $29 7 #
face $80 -1 $-1 $-1 $66 $3 $-1 $81 reversed single #
loop $-1 -1 $-1 $-1 $39 $29 #
plane-surface $-1 -1 $-1 5625.7561779447988 538.39816199967322 -1322.5061139593115 -2.8824134254750371e-17 1.8369701987210297e-16 1 1 1.1232219075301474e-17 2.8824134254750371e-17 forward_v I I I I #
coedge $-1 -1 $-1 $82 $83 $36 $63 reversed $30 $-1 #
coedge $-1 -1 $-1 $57 $32 $84 $85 forward $19 $-1 #
coedge $-1 -1 $-1 $32 $57 $59 $86 forward $19 $-1 #
coedge $-1 -1 $-1 $83 $82 $32 $56 forward $30 $-1 #
edge $87 -1 $-1 $88 0.54015560838556265 $89 1.1058000000000003 $32 $90 forward @7 unknown #
coedge $-1 -1 $-1 $54 $53 $33 $58 forward $19 $-1 #
edge $91 -1 $-1 $92 0 $61 1.1058000000000003 $33 $93 forward @7 unknown #
coedge $-1 -1 $-1 $34 $70 $54 $86 reversed $50 $-1 #
color-adesk-attrib $-1 -1 $94 $-1 $35 7 #
vertex $-1 -1 $-1 $35 $95 #
straight-curve $-1 -1 $-1 6221.6522183988054 738.39816199967322 -1322.5061139593115 1000 1.1232219075301473e-14 2.8824134254750371e-14 F -1.1917920809080136 F 0 #
edge $96 -1 $-1 $68 0.54015560838556265 $72 1.1058000000000003 $36 $97 forward @7 unknown #
coedge $-1 -1 $-1 $84 $37 $41 $74 forward $66 $-1 #
coedge $-1 -1 $-1 $37 $84 $82 $98 reversed $66 $-1 #
loop $-1 -1 $-1 $-1 $64 $49 #
color-adesk-attrib $-1 -1 $99 $-1 $38 7 #
vertex $-1 -1 $-1 $38 $100 #
straight-curve $-1 -1 $-1 5029.8601374907921 738.39816199967345 -216.70611395931121 -409.00209439474554 584.0903366557053 -701.11038032975728 F 0 F 0.77042877061884074 #
coedge $-1 -1 $-1 $59 $39 $83 $101 reversed $50 $-1 #
color-adesk-attrib $-1 -1 $102 $-1 $40 7 #
vertex $-1 -1 $-1 $63 $103 #
straight-curve $-1 -1 $-1 5029.8601374907921 738.39816199967322 -1322.5061139593115 573.59303396199425 -819.14042226609399 1.670069770455676e-13 F -0.54935635913938485 F 0 #
edge $104 -1 $-1 $43 -1.1917920809080136 $92 -1.4210854715202004e-16 $41 $105 forward @7 unknown #
DXID-attrib $-1 -1 $-1 $42 $25 @18 ASM_EDGE_FROM_STEP @4 8872 #
point $-1 -1 $-1 5029.8601374907921 738.39816199967345 -216.70611395931121 #
point $-1 -1 $-1 5029.8601374907921 738.39816199967322 -1322.5061139593115 #
DXID-attrib $-1 -1 $-1 $47 $18 @18 ASM_FACE_FROM_STEP @17 step-3M-341-29710 #
fmesh-eye-attrib $-1 -1 $106 $48 $29 #
color-adesk-attrib $-1 -1 $107 $-1 $49 7 #
plane-surface $-1 -1 $-1 4714.7531567257174 1188.3981619996732 -756.86172234487401 2.7079471799746824e-17 -0.768311983289102 -0.64007553955323637 1.4956459070854854e-17 0.64007553955323637 -0.768311983289102 forward_v I I I I #
coedge $-1 -1 $-1 $55 $52 $65 $98 forward $30 $-1 #
coedge $-1 -1 $-1 $52 $55 $70 $101 forward $30 $-1 #
coedge $-1 -1 $-1 $65 $64 $53 $85 reversed $66 $-1 #
edge $108 -1 $-1 $88 -0.37870870403245316 $92 0.39172006658638736 $53 $109 forward @7 unknown #
edge $110 -1 $-1 $61 -0.54935635913938485 $89 0 $54 $111 forward @7 unknown #
color-adesk-attrib $-1 -1 $112 $-1 $56 7 #
vertex $-1 -1 $-1 $56 $113 #
vertex $-1 -1 $-1 $56 $114 #
straight-curve $-1 -1 $-1 6536.7591991638801 1188.3981619996734 -216.70611395931132 2.8824134254750371e-14 -1.8369701987210297e-13 -1000 F 0.54015560838556265 F 1.1058000000000003 #
color-adesk-attrib $-1 -1 $115 $-1 $58 7 #
vertex $-1 -1 $-1 $58 $116 #
straight-curve $-1 -1 $-1 6221.6522183988054 738.39816199967345 -216.70611395931121 2.8824134254750371e-14 -1.8369701987210297e-13 -1000 F 0 F 1.1058000000000003 #
DXID-attrib $-1 -1 $-1 $60 $35 @18 ASM_EDGE_FROM_STEP @5 19871 #
point $-1 -1 $-1 6221.6522183988054 738.39816199967322 -1322.5061139593115 #
color-adesk-attrib $-1 -1 $117 $-1 $63 7 #
straight-curve $-1 -1 $-1 4714.7531567257174 1188.3981619996732 -216.70611395931132 2.8824134254750371e-14 -1.8369701987210297e-13 -1000 F 0.54015560838556265 F 1.1058000000000003 #
edge $118 -1 $-1 $68 0 $88 1.8220060424381626 $82 $119 forward @7 unknown #
DXID-attrib $-1 -1 $-1 $67 $38 @18 ASM_EDGE_FROM_STEP @5 14398 #
point $-1 -1 $-1 4714.7531567257174 1188.3981619996732 -756.86172234487401 #
edge $120 -1 $-1 $89 -1.8220060424381626 $72 0 $83 $121 forward @7 unknown #
DXID-attrib $-1 -1 $-1 $71 $40 @18 ASM_EDGE_FROM_STEP @5 22329 #
point $-1 -1 $-1 4714.7531567257174 1188.398161999673 -1322.5061139593117 #
color-adesk-attrib $-1 -1 $122 $-1 $74 7 #
straight-curve $-1 -1 $-1 6221.6522183988054 738.39816199967345 -216.70611395931121 1000 1.1232219075301473e-14 2.8824134254750371e-14 F -1.1917920809080136 F -1.4210854715202004e-16 #
DXID-attrib $-1 -1 $-1 $79 $29 @18 ASM_FACE_FROM_STEP @17 step-3M-341-30221 #
fmesh-eye-attrib $-1 -1 $123 $80 $49 #
color-adesk-attrib $-1 -1 $124 $-1 $85 7 #
straight-curve $-1 -1 $-1 6381.8665460490865 967.19806756691173 -491.34511882649105 -409.00209439474497 -584.0903366557053 701.1103803297575 F -0.37870870403245316 F 0.39172006658638736 #
color-adesk-attrib $-1 -1 $125 $-1 $86 7 #
straight-curve $-1 -1 $-1 6536.7591991638801 1188.398161999673 -1322.5061139593117 573.59303396199357 819.14042226609445 -1.3394033180854747e-13 F -0.54935635913938485 F 0 #
DXID-attrib $-1 -1 $-1 $87 $56 @18 ASM_EDGE_FROM_STEP @4 1645 #
point $-1 -1 $-1 6536.7591991638801 1188.3981619996732 -756.8617223448739 #
point $-1 -1 $-1 6536.7591991638801 1188.398161999673 -1322.5061139593117 #
DXID-attrib $-1 -1 $-1 $91 $58 @18 ASM_EDGE_FROM_STEP @4 8103 #
point $-1 -1 $-1 6221.6522183988054 738.39816199967333 -216.70611395931121 #
DXID-attrib $-1 -1 $-1 $96 $63 @18 ASM_EDGE_FROM_STEP @5 19662 #
color-adesk-attrib $-1 -1 $126 $-1 $98 7 #
straight-curve $-1 -1 $-1 4714.7531567257174 1188.3981619996732 -756.86172234487401 1000 1.1232219075301473e-14 2.8824134254750371e-14 F 0 F 1.8220060424381626 #
color-adesk-attrib $-1 -1 $127 $-1 $101 7 #
straight-curve $-1 -1 $-1 4714.7531567257174 1188.398161999673 -1322.5061139593117 -1000 -7.2166321310192221e-14 -2.8824134254750359e-14 F -1.8220060424381626 F 0 #
DXID-attrib $-1 -1 $-1 $104 $74 @18 ASM_EDGE_FROM_STEP @5 36110 #
DXID-attrib $-1 -1 $-1 $107 $49 @18 ASM_FACE_FROM_STEP @17 step-3M-341-41921 #
DXID-attrib $-1 -1 $-1 $108 $85 @18 ASM_EDGE_FROM_STEP @5 11568 #
DXID-attrib $-1 -1 $-1 $110 $86 @18 ASM_EDGE_FROM_STEP @5 43064 #
DXID-attrib $-1 -1 $-1 $118 $98 @18 ASM_EDGE_FROM_STEP @5 19121 #
DXID-attrib $-1 -1 $-1 $120 $101 @18 ASM_EDGE_FROM_STEP @5 29876 #
