700 252 1 0         
5 ZWCAD 12 ACIS 28.0 NT 24 Mon May 13 09:58:37 2024 
1 9.9999999999999995e-07 1e-10 
body $1 -1 $-1 $2 $-1 $-1 #
DXID-attrib $-1 -1 $-1 $-1 $0 @18 ASM_BODY_FROM_STEP @83 0ACCE67F8EE6137867C285904DBC537D516F17C0|:|9AF598CEDCDDBBAAB8F96DF43E165D1B110A23C3 #
lump $-1 -1 $-1 $-1 $3 $0 #
shell $-1 -1 $-1 $-1 $-1 $4 $-1 $2 #
face $5 -1 $-1 $6 $7 $3 $-1 $8 forward single #
color-adesk-attrib $-1 -1 $9 $-1 $4 250 #
face $10 -1 $-1 $11 $12 $3 $-1 $13 forward single #
loop $-1 -1 $-1 $-1 $14 $4 #
torus-surface $-1 -1 $-1 -172.63945874760535 130.7972660331221 16.926870278733503 4.3715031594615302e-16 1 1.08420299966596e-18 12.5 2.5 1.8947806286936001e-15 -1.0842029996667884e-18 1 forward_v I I I I #
DXID-attrib $-1 -1 $-1 $5 $4 @18 ASM_FACE_FROM_STEP @16 step-1M-255-6509 #
color-adesk-attrib $-1 -1 $15 $-1 $6 7 #
face $16 -1 $-1 $17 $18 $3 $-1 $19 forward single #
loop $-1 -1 $-1 $-1 $20 $6 #
cone-surface $-1 -1 $-1 -185.13945874760535 130.7972660331221 16.951532462422701 -1.2767564783189399e-15 1.0842029996665114e-18 -1 -1.76776695296637 -1.7677669529663675 2.255091291124828e-15 1 I I 0 1 2.5 forward I I I I #
coedge $-1 -1 $-1 $21 $22 $23 $24 forward $7 $-1 #
DXID-attrib $-1 -1 $-1 $10 $6 @18 ASM_FACE_FROM_STEP @16 step-1M-255-6510 #
color-adesk-attrib $-1 -1 $25 $-1 $11 7 #
face $26 -1 $-1 $27 $28 $3 $-1 $29 reversed single #
loop $-1 -1 $-1 $-1 $30 $11 #
torus-surface $-1 -1 $-1 -172.63945874760535 130.7972660331221 -12.974480986510002 4.3715031594615302e-16 1 1.08420299966596e-18 12.5 2.5 1.8947806286936001e-15 -1.0842029996667884e-18 1 forward_v I I I I #
coedge $-1 -1 $-1 $31 $32 $33 $34 forward $12 $-1 #
coedge $-1 -1 $-1 $35 $14 $36 $37 forward $7 $-1 #
coedge $-1 -1 $-1 $14 $35 $38 $39 forward $7 $-1 #
coedge $-1 -1 $-1 $32 $31 $14 $24 reversed $12 $-1 #
edge $40 -1 $-1 $41 -1.5707963267948961 $42 1.570796326794897 $14 $43 forward @7 unknown #
DXID-attrib $-1 -1 $-1 $16 $11 @18 ASM_FACE_FROM_STEP @16 step-1M-255-6511 #
color-adesk-attrib $-1 -1 $44 $-1 $17 7 #
face $45 -1 $-1 $46 $47 $3 $-1 $48 forward single #
loop $-1 -1 $-1 $-1 $49 $17 #
torus-surface $-1 -1 $-1 -121.36750684923135 130.79726603312201 -25.474480986510081 1 -7.0548075365343282e-14 -1.5853853371953448e-13 0.49999999999999262 -2.0000000000000155 -1.5853853371953448e-13 0 -1 forward_v I I I I #
coedge $-1 -1 $-1 $50 $51 $52 $53 forward $18 $-1 #
coedge $-1 -1 $-1 $23 $20 $54 $55 forward $12 $-1 #
coedge $-1 -1 $-1 $20 $23 $56 $57 forward $12 $-1 #
coedge $-1 -1 $-1 $51 $50 $20 $34 reversed $18 $-1 #
edge $58 -1 $-1 $59 -1.5707963267948961 $60 1.570796326794897 $20 $61 forward @7 unknown #
coedge $-1 -1 $-1 $22 $21 $62 $63 reversed $7 $-1 #
coedge $-1 -1 $-1 $54 $64 $21 $37 reversed $65 $-1 #
edge $66 -1 $-1 $42 -0.78539816339744906 $67 0.78539816339744761 $21 $68 forward @7 unknown #
coedge $-1 -1 $-1 $69 $56 $22 $39 reversed $70 $-1 #
edge $71 -1 $-1 $72 -0.78539816339744761 $41 0.78539816339744906 $22 $73 forward @7 unknown #
color-adesk-attrib $-1 -1 $74 $-1 $24 250 #
vertex $-1 -1 $-1 $24 $75 #
vertex $-1 -1 $-1 $24 $76 #
ellipse-curve $-1 -1 $-1 -185.13945874760535 130.7972660331221 16.926870278733503 1.2767564783189403e-15 -1.0842029996665201e-18 1 -2.5 1.0928757898653849e-15 3.1918911957973507e-15 1 F -1.5707963267948961 F 1.570796326794897 #
DXID-attrib $-1 -1 $-1 $26 $17 @18 ASM_FACE_FROM_STEP @16 step-1M-255-6512 #
color-adesk-attrib $-1 -1 $77 $-1 $27 7 #
face $78 -1 $-1 $79 $80 $3 $-1 $81 reversed single #
loop $-1 -1 $-1 $-1 $82 $27 #
cone-surface $-1 -1 $-1 -121.36750684923138 131.29726603312201 -26.724480986510102 1.2767564783189399e-15 -1.0842029996667086e-18 1 1.414213562373092 1.414213562373098 -1.8040730328998574e-15 1 I I 0 1 2 forward I I I I #
coedge $-1 -1 $-1 $83 $84 $85 $86 forward $28 $-1 #
coedge $-1 -1 $-1 $33 $30 $87 $88 forward $18 $-1 #
coedge $-1 -1 $-1 $30 $33 $89 $90 forward $18 $-1 #
coedge $-1 -1 $-1 $91 $92 $30 $53 reversed $93 $-1 #
edge $94 -1 $-1 $95 -1.5707963267948966 $96 1.5707963267948966 $30 $97 forward @7 unknown #
coedge $-1 -1 $-1 $87 $36 $31 $55 reversed $65 $-1 #
edge $98 -1 $-1 $60 -2.9926013448932705 $42 -0.0024662183689201367 $31 $99 forward @7 unknown #
coedge $-1 -1 $-1 $38 $89 $32 $57 reversed $70 $-1 #
edge $100 -1 $-1 $41 0.0024662183689201367 $59 2.9926013448932705 $32 $101 forward @7 unknown #
color-adesk-attrib $-1 -1 $102 $-1 $34 7 #
vertex $-1 -1 $-1 $34 $103 #
vertex $-1 -1 $-1 $34 $104 #
ellipse-curve $-1 -1 $-1 -185.13945874760535 130.7972660331221 -12.974480986510002 2.1649348980190698e-15 -1.0842029996669001e-18 1 -2.5 1.0928757898653849e-15 5.4123372450476744e-15 1 F -1.5707963267948961 F 1.570796326794897 #
coedge $-1 -1 $-1 $105 $106 $35 $63 forward $107 $-1 #
edge $108 -1 $-1 $72 -1.5707963267948966 $67 1.5707963267948966 $35 $109 forward @7 unknown #
coedge $-1 -1 $-1 $36 $110 $105 $111 reversed $65 $-1 #
loop $-1 -1 $-1 $-1 $110 $112 #
color-adesk-attrib $-1 -1 $113 $-1 $37 250 #
vertex $-1 -1 $-1 $37 $114 #
ellipse-curve $-1 -1 $-1 -172.63945874760535 128.2972660331221 16.926870278733503 4.3715031594615302e-16 1 1.0842029996659198e-18 -8.8388347648318373 3.854316318876497e-15 8.8388347648318497 1 F -0.78539816339744906 F 0.78539816339744761 #
coedge $-1 -1 $-1 $115 $38 $106 $116 forward $70 $-1 #
loop $-1 -1 $-1 $-1 $115 $117 #
color-adesk-attrib $-1 -1 $118 $-1 $39 250 #
vertex $-1 -1 $-1 $63 $119 #
ellipse-curve $-1 -1 $-1 -172.63945874760535 133.2972660331221 16.926870278733503 -4.3715031594615302e-16 -1 -1.0842029996659198e-18 -8.8388347648318373 3.854316318876497e-15 8.8388347648318497 1 F -0.78539816339744761 F 0.78539816339744906 #
DXID-attrib $-1 -1 $-1 $40 $24 @18 ASM_EDGE_FROM_STEP @4 3891 #
point $-1 -1 $-1 -185.13945874760535 133.2972660331221 16.926870278733503 #
point $-1 -1 $-1 -185.13945874760535 128.2972660331221 16.926870278733503 #
DXID-attrib $-1 -1 $-1 $45 $27 @18 ASM_FACE_FROM_STEP @16 step-1M-255-6513 #
color-adesk-attrib $-1 -1 $120 $-1 $46 7 #
face $121 -1 $-1 $117 $122 $3 $-1 $123 forward single #
loop $-1 -1 $-1 $-1 $124 $46 #
torus-surface $-1 -1 $-1 -121.36750684923126 130.79726603312201 29.426870278733507 1 -1.9446019180943363e-14 1.140461583146618e-13 0.50000000000006939 -1.9999999999999178 1.140461583146618e-13 0 -1 forward_v I I I I #
coedge $-1 -1 $-1 $125 $126 $127 $128 forward $47 $-1 #
coedge $-1 -1 $-1 $129 $49 $130 $131 forward $28 $-1 #
coedge $-1 -1 $-1 $49 $129 $132 $133 forward $28 $-1 #
coedge $-1 -1 $-1 $134 $135 $49 $86 reversed $122 $-1 #
edge $136 -1 $-1 $137 1.2303283863413801e-45 $138 1.5707963267948966 $49 $139 forward @7 unknown #
coedge $-1 -1 $-1 $140 $54 $50 $88 reversed $65 $-1 #
edge $141 -1 $-1 $96 -0.78539816339745039 $60 0.78539816339744617 $50 $142 forward @7 unknown #
coedge $-1 -1 $-1 $56 $143 $51 $90 reversed $70 $-1 #
edge $144 -1 $-1 $59 -0.78539816339744617 $95 0.78539816339745039 $51 $145 forward @7 unknown #
coedge $-1 -1 $-1 $130 $52 $143 $146 forward $93 $-1 #
coedge $-1 -1 $-1 $52 $130 $140 $147 forward $93 $-1 #
loop $-1 -1 $-1 $-1 $130 $148 #
color-adesk-attrib $-1 -1 $149 $-1 $53 7 #
vertex $-1 -1 $-1 $53 $150 #
vertex $-1 -1 $-1 $53 $151 #
ellipse-curve $-1 -1 $-1 -172.63945874760535 130.7972660331221 -25.474480986509999 -1 4.3715031594615302e-16 1.2767564783189403e-15 -3.1918911957973507e-15 2.7105074991663001e-18 -2.5 1 F -1.5707963267948966 F 1.5707963267948966 #
color-adesk-attrib $-1 -1 $152 $-1 $55 7 #
straight-curve $-1 -1 $-1 -185.13945874760535 128.2972660331221 16.951532462422701 1.2767564783189403e-14 -1.08420299966652e-17 10 F -2.9926013448932705 F -0.0024662183689201367 #
color-adesk-attrib $-1 -1 $153 $-1 $57 7 #
straight-curve $-1 -1 $-1 -185.13945874760535 133.2972660331221 16.951532462422701 -1.2767564783189403e-14 1.08420299966652e-17 -10 F 0.0024662183689201367 F 2.9926013448932705 #
DXID-attrib $-1 -1 $-1 $58 $34 @18 ASM_EDGE_FROM_STEP @4 3895 #
point $-1 -1 $-1 -185.13945874760535 133.2972660331221 -12.974480986510002 #
point $-1 -1 $-1 -185.13945874760535 128.2972660331221 -12.974480986510002 #
coedge $-1 -1 $-1 $154 $62 $64 $111 forward $107 $-1 #
coedge $-1 -1 $-1 $62 $154 $69 $116 reversed $107 $-1 #
loop $-1 -1 $-1 $-1 $154 $155 #
color-adesk-attrib $-1 -1 $156 $-1 $63 250 #
ellipse-curve $-1 -1 $-1 -172.63945874760535 130.7972660331221 29.426870278733503 1 -4.3715031594615302e-16 -1.2767564783189403e-15 3.1918911957973507e-15 -2.7105074991663001e-18 2.5 1 F -1.5707963267948966 F 1.5707963267948966 #
coedge $-1 -1 $-1 $64 $140 $135 $157 reversed $65 $-1 #
edge $158 -1 $-1 $67 -2.2271951898373992 $159 2.8999999999999986 $64 $160 forward @7 unknown #
face $161 -1 $-1 $155 $65 $3 $-1 $162 forward single #
DXID-attrib $-1 -1 $-1 $66 $37 @18 ASM_EDGE_FROM_STEP @4 3892 #
point $-1 -1 $-1 -172.63945874760535 128.2972660331221 29.426870278733503 #
coedge $-1 -1 $-1 $143 $69 $126 $163 reversed $70 $-1 #
edge $164 -1 $-1 $72 -2.2271951898373992 $165 2.8999999999999986 $69 $166 forward @7 unknown #
face $167 -1 $-1 $148 $70 $3 $-1 $168 forward single #
DXID-attrib $-1 -1 $-1 $71 $39 @18 ASM_EDGE_FROM_STEP @4 3894 #
point $-1 -1 $-1 -172.63945874760535 133.2972660331221 29.426870278733503 #
DXID-attrib $-1 -1 $-1 $78 $46 @18 ASM_FACE_FROM_STEP @16 step-1M-255-6514 #
color-adesk-attrib $-1 -1 $169 $-1 $79 7 #
loop $-1 -1 $-1 $-1 $85 $79 #
cone-surface $-1 -1 $-1 -121.36750684923138 130.29726603312201 0.72619464611169016 -1.2767564783189403e-15 1.08420299966661e-18 -1 1.414213562373092 -1.414213562373098 -1.8071396220728461e-15 1 I I 0 1 2 forward I I I I #
coedge $-1 -1 $-1 $170 $171 $172 $173 forward $80 $-1 #
coedge $-1 -1 $-1 $174 $82 $175 $176 forward $47 $-1 #
coedge $-1 -1 $-1 $82 $174 $115 $163 forward $47 $-1 #
coedge $-1 -1 $-1 $171 $170 $82 $128 reversed $80 $-1 #
edge $177 -1 $-1 $165 1.2303283863413919e-45 $178 1.5707963267948966 $82 $179 forward @7 unknown #
coedge $-1 -1 $-1 $84 $83 $174 $180 forward $28 $-1 #
coedge $-1 -1 $-1 $92 $91 $83 $131 reversed $93 $-1 #
edge $181 -1 $-1 $138 -1.570796326794897 $182 1.5707963267948963 $83 $183 forward @7 unknown #
coedge $-1 -1 $-1 $175 $184 $84 $133 reversed $185 $-1 #
edge $186 -1 $-1 $187 -1.5707963267948963 $137 1.570796326794897 $84 $188 forward @7 unknown #
coedge $-1 -1 $-1 $172 $85 $184 $189 forward $122 $-1 #
coedge $-1 -1 $-1 $85 $172 $110 $157 forward $122 $-1 #
color-adesk-attrib $-1 -1 $190 $-1 $86 7 #
vertex $-1 -1 $-1 $86 $191 #
vertex $-1 -1 $-1 $86 $192 #
ellipse-curve $-1 -1 $-1 -121.36750684923138 130.29726603312201 -25.474480986510102 -2.2204460492503198e-15 5.5409064622703703e-31 -1 1.9999999999999902 2.4606567726827475e-45 -4.4408920985006175e-15 1 F 1.2303283863413801e-45 F 1.5707963267948966 #
coedge $-1 -1 $-1 $110 $87 $92 $147 reversed $65 $-1 #
color-adesk-attrib $-1 -1 $193 $-1 $88 7 #
ellipse-curve $-1 -1 $-1 -172.63945874760535 128.2972660331221 -12.974480986510002 4.3715031594615302e-16 1 1.0842029996659691e-18 -8.8388347648318621 3.8734825012076722e-15 -8.8388347648318248 1 F -0.78539816339745039 F 0.78539816339744617 #
coedge $-1 -1 $-1 $89 $115 $91 $146 reversed $70 $-1 #
color-adesk-attrib $-1 -1 $194 $-1 $90 7 #
ellipse-curve $-1 -1 $-1 -172.63945874760535 133.2972660331221 -12.974480986510002 -4.3715031594615302e-16 -1 -1.0842029996659691e-18 -8.8388347648318621 3.8734825012076722e-15 -8.8388347648318248 1 F -0.78539816339744617 F 0.78539816339745039 #
edge $195 -1 $-1 $95 -2.2271951898373992 $182 2.8999999999999986 $143 $196 forward @7 unknown #
edge $197 -1 $-1 $138 -5.6953963923780009 $96 -0.56820120254060313 $92 $198 forward @7 unknown #
face $199 -1 $-1 $200 $93 $3 $-1 $201 forward single #
DXID-attrib $-1 -1 $-1 $94 $53 @18 ASM_EDGE_FROM_STEP @4 3898 #
point $-1 -1 $-1 -172.63945874760535 133.2972660331221 -25.474480986509999 #
point $-1 -1 $-1 -172.63945874760535 128.2972660331221 -25.474480986509999 #
DXID-attrib $-1 -1 $-1 $98 $55 @18 ASM_EDGE_FROM_STEP @4 3896 #
DXID-attrib $-1 -1 $-1 $100 $57 @18 ASM_EDGE_FROM_STEP @4 3897 #
coedge $-1 -1 $-1 $106 $105 $171 $202 reversed $107 $-1 #
face $203 -1 $-1 $-1 $107 $3 $-1 $204 forward single #
DXID-attrib $-1 -1 $-1 $108 $63 @18 ASM_EDGE_FROM_STEP @4 3893 #
edge $205 -1 $-1 $159 -2.870067563262181 $138 2.6200675632621793 $135 $206 forward @7 unknown #
color-adesk-attrib $-1 -1 $207 $-1 $111 7 #
vertex $-1 -1 $-1 $173 $208 #
straight-curve $-1 -1 $-1 -150.36750684923135 128.2972660331221 29.426870278733503 10 -4.2976375146780302e-15 -1.2892912544034102e-14 F -2.2271951898373992 F 2.8999999999999986 #
color-adesk-attrib $-1 -1 $209 $-1 $112 7 #
plane-surface $-1 -1 $-1 -150.36750684923135 128.2972660331221 29.426870278733503 -4.2976375146780299e-16 -1 -1.08420299966597e-18 -1.2767564783189401e-15 1.0842029996665187e-18 -1 forward_v I I I I #
edge $210 -1 $-1 $182 0.125 $165 5.6151351265243603 $126 $211 forward @7 unknown #
color-adesk-attrib $-1 -1 $212 $-1 $116 7 #
vertex $-1 -1 $-1 $128 $213 #
straight-curve $-1 -1 $-1 -150.36750684923135 133.2972660331221 29.426870278733503 10 -4.2976375146780302e-15 -1.2892912544034102e-14 F -2.2271951898373992 F 2.8999999999999986 #
color-adesk-attrib $-1 -1 $214 $-1 $117 7 #
plane-surface $-1 -1 $-1 -150.36750684923135 133.2972660331221 -25.474480986509999 4.2976375146780299e-16 1 1.08420299966597e-18 1.2767564783189401e-15 -1.0842029996665187e-18 1 forward_v I I I I #
DXID-attrib $-1 -1 $-1 $121 $79 @18 ASM_FACE_FROM_STEP @16 step-1M-255-6515 #
coedge $-1 -1 $-1 $127 $124 $215 $216 forward $80 $-1 #
coedge $-1 -1 $-1 $124 $127 $154 $202 forward $80 $-1 #
coedge $-1 -1 $-1 $135 $134 $124 $173 reversed $122 $-1 #
edge $217 -1 $-1 $159 -1.2303283863413809e-45 $218 1.5707963267948966 $124 $219 forward @7 unknown #
coedge $-1 -1 $-1 $126 $125 $129 $180 reversed $47 $-1 #
coedge $-1 -1 $-1 $215 $132 $125 $176 reversed $185 $-1 #
edge $220 -1 $-1 $178 -5.6151351265243603 $187 -0.125 $125 $221 forward @7 unknown #
color-adesk-attrib $-1 -1 $222 $-1 $128 7 #
vertex $-1 -1 $-1 $128 $223 #
ellipse-curve $-1 -1 $-1 -121.36750684923138 131.29726603312201 29.426870278733503 -2.2204460492503399e-15 5.5409064622703712e-31 -1 3.1115076389305709e-61 2 1.1081812924540742e-30 1 F 1.2303283863413919e-45 F 1.5707963267948966 #
edge $224 -1 $-1 $182 1.2303283863413809e-45 $187 1.5707963267948966 $129 $225 forward @7 unknown #
color-adesk-attrib $-1 -1 $226 $-1 $131 7 #
vertex $-1 -1 $-1 $131 $227 #
ellipse-curve $-1 -1 $-1 -121.36750684923138 130.79726603312201 -25.474480986510102 1 -4.3715031594615307e-16 -1.2767564783189401e-15 -3.1918911957973495e-15 8.7430063189230496e-16 -2.5 1 F -1.570796326794897 F 1.5707963267948963 #
coedge $-1 -1 $-1 $132 $215 $134 $189 reversed $185 $-1 #
loop $-1 -1 $-1 $-1 $132 $200 #
color-adesk-attrib $-1 -1 $228 $-1 $133 7 #
vertex $-1 -1 $-1 $180 $229 #
ellipse-curve $-1 -1 $-1 -119.36750684923138 130.79726603312201 -25.474480986510102 -1 4.3715031594615302e-16 1.2767564783189403e-15 -6.3837823915947004e-16 1.7486012637846102e-16 -0.5 1 F -1.5707963267948963 F 1.570796326794897 #
edge $230 -1 $-1 $137 -2.6200675632621788 $218 2.8700675632621815 $134 $231 forward @7 unknown #
DXID-attrib $-1 -1 $-1 $136 $86 @18 ASM_EDGE_FROM_STEP @4 3901 #
point $-1 -1 $-1 -119.36750684923138 130.29726603312201 -25.474480986510102 #
point $-1 -1 $-1 -121.36750684923138 128.29726603312201 -25.474480986510102 #
DXID-attrib $-1 -1 $-1 $141 $88 @18 ASM_EDGE_FROM_STEP @4 3899 #
DXID-attrib $-1 -1 $-1 $144 $90 @18 ASM_EDGE_FROM_STEP @4 3900 #
color-adesk-attrib $-1 -1 $232 $-1 $146 7 #
straight-curve $-1 -1 $-1 -150.36750684923135 133.2972660331221 -25.474480986510102 10 -4.2976375146780302e-15 -1.2892912544034102e-14 F -2.2271951898373992 F 2.8999999999999986 #
color-adesk-attrib $-1 -1 $233 $-1 $147 7 #
straight-curve $-1 -1 $-1 -178.32147077301138 128.2972660331221 -25.474480986509999 -10 4.3715031594615397e-15 1.3959048424993099e-14 F -5.6953963923780009 F -0.56820120254060313 #
color-adesk-attrib $-1 -1 $234 $-1 $148 7 #
face $235 -1 $-1 $112 $185 $3 $-1 $236 forward single #
cone-surface $-1 -1 $-1 -150.36750684923135 130.7972660331221 -25.474480986510102 1 -4.2976375146780294e-16 -1.2892912544034102e-15 -3.038888629710538e-15 -1.7677669529663689 -1.7677669529663689 1 I I 0 1 2.5 forward I I I I #
edge $237 -1 $-1 $165 -1.5707963267948963 $159 1.570796326794897 $171 $238 forward @7 unknown #
color-adesk-attrib $-1 -1 $239 $-1 $155 7 #
cone-surface $-1 -1 $-1 -150.36750684923135 130.7972660331221 29.426870278733503 1 -4.2976375146780294e-16 -1.2892912544034102e-15 3.038888629710538e-15 1.7677669529663689 1.7677669529663689 1 I I 0 1 2.5 forward I I I I #
color-adesk-attrib $-1 -1 $240 $-1 $157 7 #
straight-curve $-1 -1 $-1 -121.36750684923138 128.29726603312201 0.72619464611169016 -1.2767564783189403e-14 1.08420299966652e-17 -10 F -2.870067563262181 F 2.6200675632621793 #
DXID-attrib $-1 -1 $-1 $158 $111 @18 ASM_EDGE_FROM_STEP @4 3916 #
point $-1 -1 $-1 -121.36750684923138 128.29726603312201 29.426870278733503 #
DXID-attrib $-1 -1 $-1 $161 $112 @18 ASM_FACE_FROM_STEP @16 step-1M-255-6519 #
color-adesk-attrib $-1 -1 $241 $-1 $163 7 #
straight-curve $-1 -1 $-1 -121.36750684923138 133.29726603312201 -26.724480986510102 1.2767564783189403e-14 -1.08420299966652e-17 10 F 0.125 F 5.6151351265243603 #
DXID-attrib $-1 -1 $-1 $164 $116 @18 ASM_EDGE_FROM_STEP @4 3914 #
point $-1 -1 $-1 -121.36750684923138 133.29726603312201 29.426870278733503 #
DXID-attrib $-1 -1 $-1 $167 $117 @18 ASM_FACE_FROM_STEP @16 step-1M-255-6516 #
coedge $-1 -1 $-1 $184 $175 $170 $216 reversed $185 $-1 #
edge $242 -1 $-1 $218 -1.570796326794897 $178 1.5707963267948963 $170 $243 forward @7 unknown #
color-adesk-attrib $-1 -1 $244 $-1 $173 7 #
vertex $-1 -1 $-1 $173 $245 #
ellipse-curve $-1 -1 $-1 -121.36750684923138 130.29726603312201 29.426870278733503 2.2204460492503202e-15 -5.5409064622703712e-31 1 -3.1115076389305709e-61 -2 -1.1081812924540742e-30 1 F -1.2303283863413809e-45 F 1.5707963267948966 #
color-adesk-attrib $-1 -1 $246 $-1 $176 7 #
straight-curve $-1 -1 $-1 -119.36750684923138 131.29726603312201 -26.724480986510102 -1.2767564783189403e-14 1.08420299966652e-17 -10 F -5.6151351265243603 F -0.125 #
DXID-attrib $-1 -1 $-1 $177 $128 @18 ASM_EDGE_FROM_STEP @4 3905 #
point $-1 -1 $-1 -119.36750684923138 131.29726603312201 29.426870278733503 #
color-adesk-attrib $-1 -1 $247 $-1 $180 7 #
ellipse-curve $-1 -1 $-1 -121.36750684923138 131.29726603312201 -25.474480986510102 -2.2204460492503202e-15 5.5409064622703712e-31 -1 3.1115076389305709e-61 2 1.1081812924540742e-30 1 F 1.2303283863413809e-45 F 1.5707963267948966 #
DXID-attrib $-1 -1 $-1 $181 $131 @18 ASM_EDGE_FROM_STEP @4 3902 #
point $-1 -1 $-1 -121.36750684923138 133.29726603312201 -25.474480986510102 #
DXID-attrib $-1 -1 $-1 $186 $133 @18 ASM_EDGE_FROM_STEP @4 3904 #
point $-1 -1 $-1 -119.36750684923138 131.29726603312201 -25.474480986510102 #
color-adesk-attrib $-1 -1 $248 $-1 $189 7 #
straight-curve $-1 -1 $-1 -119.36750684923138 130.29726603312201 0.72619464611168805 1.2767564783189403e-14 -1.08420299966652e-17 10 F -2.6200675632621788 F 2.8700675632621815 #
DXID-attrib $-1 -1 $-1 $195 $146 @18 ASM_EDGE_FROM_STEP @4 3913 #
DXID-attrib $-1 -1 $-1 $197 $147 @18 ASM_EDGE_FROM_STEP @4 3915 #
DXID-attrib $-1 -1 $-1 $199 $148 @18 ASM_FACE_FROM_STEP @16 step-1M-255-6517 #
color-adesk-attrib $-1 -1 $249 $-1 $200 7 #
plane-surface $-1 -1 $-1 -119.36750684923138 133.29726603312201 -27.974480986510102 1 -4.3715031594615302e-16 -1.2767564783189401e-15 1.2767564783189401e-15 -1.0842029996665201e-18 1 forward_v I I I I #
color-adesk-attrib $-1 -1 $250 $-1 $202 7 #
ellipse-curve $-1 -1 $-1 -121.36750684923138 130.79726603312201 29.426870278733503 1 -4.3715031594615302e-16 -1.2767564783189401e-15 3.1918911957973507e-15 8.7430063189230259e-16 2.5 1 F -1.5707963267948963 F 1.570796326794897 #
DXID-attrib $-1 -1 $-1 $203 $155 @18 ASM_FACE_FROM_STEP @16 step-1M-255-6520 #
DXID-attrib $-1 -1 $-1 $205 $157 @18 ASM_EDGE_FROM_STEP @4 3912 #
DXID-attrib $-1 -1 $-1 $210 $163 @18 ASM_EDGE_FROM_STEP @4 3907 #
color-adesk-attrib $-1 -1 $251 $-1 $216 7 #
ellipse-curve $-1 -1 $-1 -119.36750684923138 130.79726603312201 29.426870278733503 -1 4.3715031594615302e-16 1.2767564783189401e-15 6.3837823915947014e-16 1.7486012637846052e-16 0.5 1 F -1.570796326794897 F 1.5707963267948963 #
DXID-attrib $-1 -1 $-1 $217 $173 @18 ASM_EDGE_FROM_STEP @4 3908 #
point $-1 -1 $-1 -119.36750684923138 130.29726603312201 29.426870278733503 #
DXID-attrib $-1 -1 $-1 $220 $176 @18 ASM_EDGE_FROM_STEP @4 3906 #
DXID-attrib $-1 -1 $-1 $224 $180 @18 ASM_EDGE_FROM_STEP @4 3903 #
DXID-attrib $-1 -1 $-1 $230 $189 @18 ASM_EDGE_FROM_STEP @4 3911 #
DXID-attrib $-1 -1 $-1 $235 $200 @18 ASM_FACE_FROM_STEP @16 step-1M-255-6518 #
DXID-attrib $-1 -1 $-1 $237 $202 @18 ASM_EDGE_FROM_STEP @4 3910 #
DXID-attrib $-1 -1 $-1 $242 $216 @18 ASM_EDGE_FROM_STEP @4 3909 #
