700 459 1 0         
5 ZWCAD 12 ACIS 28.0 NT 24 Sat May 11 13:57:57 2024 
1 9.9999999999999995e-07 1e-10 
body $1 -1 $-1 $2 $-1 $3 #
DXID-attrib $-1 -1 $-1 $-1 $0 @18 ASM_BODY_FROM_STEP @83 80A23110DC1164FE9BC09DD2546D34E24264E20F|:|654F87611FAF4AA5F4C95476A893B3161B904202 #
lump $-1 -1 $-1 $-1 $4 $0 #
transform $-1 -1 1 0 0 0 1 0 0 0 1 0 0 0 1 no_rotate no_reflect no_shear #
shell $-1 -1 $-1 $-1 $-1 $5 $-1 $2 #
face $6 -1 $-1 $7 $8 $4 $-1 $9 reversed single #
truecolor-adesk-attrib $-1 -1 $10 $-1 $5 -1056964608 #
face $11 -1 $-1 $12 $13 $4 $-1 $14 reversed single #
loop $-1 -1 $-1 $-1 $15 $5 #
plane-surface $-1 -1 $-1 8.9999999999999911 12.6 -43.5 -1 0 0 0 0 1 forward_v I I I I #
DXID-attrib $-1 -1 $-1 $6 $5 @18 ASM_FACE_FROM_STEP @16 step-1M-811-1480 #
truecolor-adesk-attrib $-1 -1 $16 $-1 $7 -1056964608 #
face $17 -1 $-1 $18 $19 $4 $-1 $20 reversed single #
loop $-1 -1 $-1 $-1 $21 $7 #
plane-surface $-1 -1 $-1 8.9999999999999911 12.6 -43.5 0 0 1 1 0 0 forward_v I I I I #
coedge $-1 -1 $-1 $22 $23 $24 $25 reversed $8 $-1 #
DXID-attrib $-1 -1 $-1 $11 $7 @18 ASM_FACE_FROM_STEP @15 step-1M-811-863 #
truecolor-adesk-attrib $-1 -1 $26 $-1 $12 -1056964608 #
face $27 -1 $-1 $28 $29 $4 $-1 $30 reversed single #
loop $-1 -1 $-1 $31 $32 $12 #
plane-surface $-1 -1 $-1 -7.0000000000000107 12.6 -43.5 1 0 0 0 0 -1 forward_v I I I I #
coedge $-1 -1 $-1 $33 $34 $35 $36 reversed $13 $-1 #
coedge $-1 -1 $-1 $37 $15 $38 $39 forward $8 $-1 #
coedge $-1 -1 $-1 $15 $40 $41 $42 forward $8 $-1 #
coedge $-1 -1 $-1 $34 $33 $15 $25 forward $13 $-1 #
edge $43 -1 $-1 $44 0.0030000000000000092 $45 0.011000000000000001 $15 $46 forward @7 unknown #
DXID-attrib $-1 -1 $-1 $17 $12 @18 ASM_FACE_FROM_STEP @16 step-1M-811-3218 #
truecolor-adesk-attrib $-1 -1 $47 $-1 $18 -1056964608 #
face $48 -1 $-1 $49 $50 $4 $-1 $51 reversed single #
loop $-1 -1 $-1 $-1 $52 $18 #
plane-surface $-1 -1 $-1 8.9999999999999911 12.6 -31.499999999999986 4.3368086899420182e-16 0 -1 -1 0 -4.3368086899420182e-16 forward_v I I I I #
loop $-1 -1 $-1 $-1 $53 $12 #
coedge $-1 -1 $-1 $54 $55 $56 $57 reversed $19 $-1 #
coedge $-1 -1 $-1 $24 $21 $58 $59 forward $13 $-1 #
coedge $-1 -1 $-1 $21 $24 $60 $61 forward $13 $-1 #
coedge $-1 -1 $-1 $62 $54 $21 $36 forward $19 $-1 #
edge $63 -1 $-1 $64 0.0030000000000000092 $65 0.011000000000000001 $21 $66 forward @7 unknown #
coedge $-1 -1 $-1 $67 $22 $68 $69 reversed $8 $-1 #
coedge $-1 -1 $-1 $58 $70 $22 $39 reversed $71 $-1 #
edge $72 -1 $-1 $44 -0.0042426406871192909 $73 0 $22 $74 forward @7 unknown #
coedge $-1 -1 $-1 $23 $67 $52 $75 forward $8 $-1 #
coedge $-1 -1 $-1 $76 $60 $23 $42 reversed $77 $-1 #
edge $78 -1 $-1 $79 -0.012000000000000011 $45 0 $23 $80 forward @7 unknown #
truecolor-adesk-attrib $-1 -1 $81 $-1 $25 -1056964608 #
vertex $-1 -1 $-1 $25 $82 #
vertex $-1 -1 $-1 $25 $83 #
straight-curve $-1 -1 $-1 8.9999999999999911 12.6 -43.5 0 -1000 0 F 0.0030000000000000092 F 0.011000000000000001 #
DXID-attrib $-1 -1 $-1 $27 $18 @18 ASM_FACE_FROM_STEP @17 step-1M-811-10168 #
truecolor-adesk-attrib $-1 -1 $84 $-1 $28 -1056964608 #
face $85 -1 $-1 $86 $77 $4 $-1 $87 forward single #
loop $-1 -1 $-1 $-1 $68 $28 #
plane-surface $-1 -1 $-1 0 12.6 0 0 -1 0 0 0 -1 forward_v I I I I #
coedge $-1 -1 $-1 $88 $89 $40 $75 reversed $29 $-1 #
coedge $-1 -1 $-1 $90 $91 $92 $93 reversed $31 $-1 #
coedge $-1 -1 $-1 $35 $32 $94 $95 forward $19 $-1 #
coedge $-1 -1 $-1 $32 $96 $97 $98 forward $19 $-1 #
coedge $-1 -1 $-1 $99 $100 $32 $57 forward $50 $-1 #
edge $101 -1 $-1 $102 0.0029999999999999983 $103 0.0090000000000000028 $32 $104 forward @7 unknown #
coedge $-1 -1 $-1 $94 $38 $33 $59 reversed $71 $-1 #
edge $105 -1 $-1 $64 -0.016 $44 0 $33 $106 forward @7 unknown #
coedge $-1 -1 $-1 $41 $107 $34 $61 reversed $77 $-1 #
edge $108 -1 $-1 $45 0 $65 0.016 $34 $109 forward @7 unknown #
coedge $-1 -1 $-1 $96 $35 $107 $110 forward $19 $-1 #
truecolor-adesk-attrib $-1 -1 $111 $-1 $36 -1056964608 #
vertex $-1 -1 $-1 $36 $112 #
vertex $-1 -1 $-1 $36 $113 #
straight-curve $-1 -1 $-1 -7.0000000000000107 12.6 -43.5 0 -1000 0 F 0.0030000000000000092 F 0.011000000000000001 #
coedge $-1 -1 $-1 $40 $37 $114 $115 forward $8 $-1 #
coedge $-1 -1 $-1 $100 $99 $37 $69 forward $50 $-1 #
edge $116 -1 $-1 $117 -0.009000000000000008 $73 -0.0029999999999999983 $37 $118 forward @7 unknown #
coedge $-1 -1 $-1 $38 $94 $100 $119 reversed $71 $-1 #
loop $-1 -1 $-1 $-1 $38 $120 #
truecolor-adesk-attrib $-1 -1 $121 $-1 $39 -1056964608 #
vertex $-1 -1 $-1 $39 $122 #
straight-curve $-1 -1 $-1 8.9999999999999911 12.6 -40.5 0 707.10678118654914 707.10678118654596 F -0.0042426406871192909 F 0 #
edge $123 -1 $-1 $124 0.0030000000000000092 $79 0.011000000000000001 $40 $125 forward @7 unknown #
coedge $-1 -1 $-1 $107 $41 $89 $126 reversed $77 $-1 #
loop $-1 -1 $-1 $-1 $41 $49 #
truecolor-adesk-attrib $-1 -1 $127 $-1 $42 -1056964608 #
vertex $-1 -1 $-1 $75 $128 #
straight-curve $-1 -1 $-1 8.9999999999999911 1.6000000000000003 -43.5 0 0 -1000 F -0.012000000000000011 F 0 #
DXID-attrib $-1 -1 $-1 $43 $25 @18 ASM_EDGE_FROM_STEP @4 9219 #
point $-1 -1 $-1 8.9999999999999911 9.5999999999999908 -43.5 #
point $-1 -1 $-1 8.9999999999999911 1.6000000000000003 -43.5 #
DXID-attrib $-1 -1 $-1 $48 $28 @18 ASM_FACE_FROM_STEP @16 step-1M-811-9686 #
truecolor-adesk-attrib $-1 -1 $129 $-1 $49 -1056964608 #
face $130 -1 $-1 $131 $132 $4 $-1 $133 reversed single #
plane-surface $-1 -1 $-1 0 1.6000000000000003 0 0 -1 0 0 0 -1 forward_v I I I I #
coedge $-1 -1 $-1 $134 $52 $135 $136 forward $29 $-1 #
coedge $-1 -1 $-1 $52 $134 $76 $126 forward $29 $-1 #
coedge $-1 -1 $-1 $137 $53 $138 $139 reversed $31 $-1 #
coedge $-1 -1 $-1 $53 $140 $141 $142 reversed $31 $-1 #
coedge $-1 -1 $-1 $143 $144 $53 $93 forward $145 $-1 #
edge $146 -1 $-1 $147 -5.5511151231257828e-19 $148 0.004850000000000001 $53 $149 forward @7 unknown #
coedge $-1 -1 $-1 $70 $58 $54 $95 reversed $71 $-1 #
edge $150 -1 $-1 $102 0 $64 0.0042426406871192909 $54 $151 forward @7 unknown #
coedge $-1 -1 $-1 $55 $62 $134 $152 reversed $19 $-1 #
coedge $-1 -1 $-1 $135 $153 $55 $98 reversed $154 $-1 #
edge $155 -1 $-1 $156 -0.0042426406871192892 $103 1.5700924586837762e-18 $55 $157 forward @7 unknown #
coedge $-1 -1 $-1 $68 $56 $153 $158 forward $50 $-1 #
coedge $-1 -1 $-1 $56 $68 $70 $119 forward $50 $-1 #
truecolor-adesk-attrib $-1 -1 $159 $-1 $57 -1056964608 #
vertex $-1 -1 $-1 $57 $160 #
vertex $-1 -1 $-1 $57 $161 #
straight-curve $-1 -1 $-1 -7.0000000000000107 12.6 -43.5 0 0 1000 F 0.0029999999999999983 F 0.0090000000000000028 #
truecolor-adesk-attrib $-1 -1 $162 $-1 $59 -1056964608 #
straight-curve $-1 -1 $-1 8.9999999999999911 9.5999999999999908 -43.5 1000 0 0 F -0.016 F 0 #
coedge $-1 -1 $-1 $60 $76 $62 $110 reversed $77 $-1 #
truecolor-adesk-attrib $-1 -1 $163 $-1 $61 -1056964608 #
straight-curve $-1 -1 $-1 8.9999999999999911 1.6000000000000003 -43.5 -1000 0 0 F 0 F 0.016 #
edge $164 -1 $-1 $65 0 $165 0.012000000000000002 $62 $166 forward @7 unknown #
DXID-attrib $-1 -1 $-1 $63 $36 @18 ASM_EDGE_FROM_STEP @4 2476 #
point $-1 -1 $-1 -7.0000000000000107 9.5999999999999908 -43.5 #
point $-1 -1 $-1 -7.0000000000000107 1.6000000000000003 -43.5 #
coedge $-1 -1 $-1 $153 $135 $67 $115 reversed $154 $-1 #
edge $167 -1 $-1 $117 4.7102773760513247e-18 $124 0.0042426406871192987 $67 $168 forward @7 unknown #
truecolor-adesk-attrib $-1 -1 $169 $-1 $69 -1056964608 #
vertex $-1 -1 $-1 $69 $170 #
straight-curve $-1 -1 $-1 8.9999999999999911 12.6 -43.5 0 0 -1000 F -0.009000000000000008 F -0.0029999999999999983 #
edge $171 -1 $-1 $73 -0.0089999999999999906 $102 0.0070000000000000106 $100 $172 forward @7 unknown #
face $173 -1 $-1 $174 $71 $4 $-1 $175 reversed single #
DXID-attrib $-1 -1 $-1 $72 $39 @18 ASM_EDGE_FROM_STEP @4 6130 #
point $-1 -1 $-1 8.9999999999999911 12.6 -40.5 #
truecolor-adesk-attrib $-1 -1 $176 $-1 $75 -1056964608 #
vertex $-1 -1 $-1 $115 $177 #
straight-curve $-1 -1 $-1 8.9999999999999911 12.6 -31.499999999999986 0 -1000 0 F 0.0030000000000000092 F 0.011000000000000001 #
edge $178 -1 $-1 $165 -0.016 $79 0 $89 $179 forward @7 unknown #
DXID-attrib $-1 -1 $-1 $78 $42 @18 ASM_EDGE_FROM_STEP @4 1418 #
point $-1 -1 $-1 8.9999999999999911 1.6000000000000003 -31.499999999999986 #
DXID-attrib $-1 -1 $-1 $85 $49 @18 ASM_FACE_FROM_STEP @15 step-1M-811-189 #
truecolor-adesk-attrib $-1 -1 $180 $-1 $86 -1056964608 #
face $181 -1 $-1 $182 $183 $4 $-1 $184 reversed single #
loop $-1 -1 $-1 $-1 $138 $86 #
plane-surface $-1 -1 $-1 -5.0000000000000098 3.8500000000000001 -32.999999999999993 0 -1 1.4456028966473401e-16 0 -1.4456028966473404e-16 -1 forward_v I I I I #
coedge $-1 -1 $-1 $89 $88 $96 $152 forward $29 $-1 #
coedge $-1 -1 $-1 $114 $97 $88 $136 reversed $154 $-1 #
edge $185 -1 $-1 $124 0 $156 0.016 $88 $186 forward @7 unknown #
coedge $-1 -1 $-1 $187 $90 $188 $189 reversed $31 $-1 #
coedge $-1 -1 $-1 $190 $191 $90 $139 forward $132 $-1 #
edge $192 -1 $-1 $193 -0.0089999999999999906 $147 -8.0247081016134895e-35 $90 $194 forward @7 unknown #
coedge $-1 -1 $-1 $91 $187 $195 $196 reversed $31 $-1 #
coedge $-1 -1 $-1 $197 $198 $91 $142 forward $199 $-1 #
edge $200 -1 $-1 $148 0 $201 0.0023334523779156078 $91 $202 forward @7 unknown #
coedge $-1 -1 $-1 $203 $92 $198 $204 reversed $145 $-1 #
coedge $-1 -1 $-1 $92 $203 $190 $205 forward $145 $-1 #
loop $-1 -1 $-1 $-1 $92 $206 #
truecolor-adesk-attrib $-1 -1 $207 $-1 $93 -1056964608 #
vertex $-1 -1 $-1 $93 $208 #
vertex $-1 -1 $-1 $93 $209 #
straight-curve $-1 -1 $-1 -7.0000000000000107 3.8500000000000001 -32.999999999999993 0 1000 0 F -5.5511151231257828e-19 F 0.004850000000000001 #
truecolor-adesk-attrib $-1 -1 $210 $-1 $95 -1056964608 #
straight-curve $-1 -1 $-1 -7.0000000000000107 12.6 -40.5 0 -707.10678118654914 -707.10678118654596 F 0 F 0.0042426406871192909 #
edge $211 -1 $-1 $156 0.0030000000000000092 $165 0.011000000000000001 $96 $212 forward @7 unknown #
coedge $-1 -1 $-1 $97 $114 $99 $158 reversed $154 $-1 #
loop $-1 -1 $-1 $-1 $97 $174 #
truecolor-adesk-attrib $-1 -1 $213 $-1 $98 -1056964608 #
vertex $-1 -1 $-1 $152 $214 #
straight-curve $-1 -1 $-1 -7.0000000000000107 12.599999999999998 -34.499999999999993 0 707.10678118654801 -707.1067811865471 F -0.0042426406871192892 F 1.5700924586837762e-18 #
edge $215 -1 $-1 $103 -0.0070000000000000253 $117 0.0089999999999999768 $99 $216 forward @7 unknown #
DXID-attrib $-1 -1 $-1 $101 $57 @18 ASM_EDGE_FROM_STEP @4 9940 #
point $-1 -1 $-1 -7.0000000000000107 12.6 -40.5 #
point $-1 -1 $-1 -7.0000000000000107 12.6 -34.499999999999993 #
DXID-attrib $-1 -1 $-1 $105 $59 @18 ASM_EDGE_FROM_STEP @4 1033 #
DXID-attrib $-1 -1 $-1 $108 $61 @18 ASM_EDGE_FROM_STEP @5 10059 #
truecolor-adesk-attrib $-1 -1 $217 $-1 $110 -1056964608 #
vertex $-1 -1 $-1 $110 $218 #
straight-curve $-1 -1 $-1 -7.0000000000000107 1.6000000000000003 -43.5 0 0 1000 F 0 F 0.012000000000000002 #
truecolor-adesk-attrib $-1 -1 $219 $-1 $115 -1056964608 #
straight-curve $-1 -1 $-1 8.9999999999999911 12.600000000000001 -34.499999999999993 0 -707.10678118654801 707.1067811865471 F 4.7102773760513247e-18 F 0.0042426406871192987 #
DXID-attrib $-1 -1 $-1 $116 $69 @18 ASM_EDGE_FROM_STEP @4 8183 #
point $-1 -1 $-1 8.9999999999999911 12.6 -34.499999999999986 #
truecolor-adesk-attrib $-1 -1 $220 $-1 $119 -1056964608 #
straight-curve $-1 -1 $-1 0 12.6 -40.5 -1000 0 0 F -0.0089999999999999906 F 0.0070000000000000106 #
truecolor-adesk-attrib $-1 -1 $221 $-1 $120 -1056964608 #
face $222 -1 $-1 $-1 $154 $4 $-1 $223 reversed single #
plane-surface $-1 -1 $-1 0 12.6 -40.5 0 -0.70710678118654591 0.70710678118654913 -1 0 0 forward_v I I I I #
DXID-attrib $-1 -1 $-1 $123 $75 @18 ASM_EDGE_FROM_STEP @4 8926 #
point $-1 -1 $-1 8.9999999999999911 9.5999999999999908 -31.499999999999986 #
truecolor-adesk-attrib $-1 -1 $224 $-1 $126 -1056964608 #
straight-curve $-1 -1 $-1 8.9999999999999911 1.6000000000000003 -31.499999999999986 1000 0 4.3368086899420177e-13 F -0.016 F 0 #
DXID-attrib $-1 -1 $-1 $130 $86 @18 ASM_FACE_FROM_STEP @16 step-1M-811-5696 #
truecolor-adesk-attrib $-1 -1 $225 $-1 $131 -1056964608 #
face $226 -1 $-1 $227 $228 $4 $-1 $229 reversed single #
loop $-1 -1 $-1 $-1 $188 $131 #
plane-surface $-1 -1 $-1 -5.0000000000000098 3.8499999999999983 -41.999999999999986 0 0 -1 -1 0 0 forward_v I I I I #
truecolor-adesk-attrib $-1 -1 $230 $-1 $136 -1056964608 #
straight-curve $-1 -1 $-1 8.9999999999999911 9.5999999999999908 -31.499999999999986 -1000 0 -4.3368086899420182e-13 F 0 F 0.016 #
coedge $-1 -1 $-1 $140 $137 $231 $232 reversed $31 $-1 #
coedge $-1 -1 $-1 $233 $234 $137 $189 forward $183 $-1 #
edge $235 -1 $-1 $236 -0.0048500000000000027 $193 0 $137 $237 forward @7 unknown #
coedge $-1 -1 $-1 $238 $138 $144 $205 reversed $132 $-1 #
coedge $-1 -1 $-1 $138 $238 $233 $239 forward $132 $-1 #
truecolor-adesk-attrib $-1 -1 $240 $-1 $139 -1056964608 #
vertex $-1 -1 $-1 $139 $241 #
straight-curve $-1 -1 $-1 -7.0000000000000107 3.8500000000000001 -32.999999999999993 0 1.4456028966473404e-13 1000 F -0.0089999999999999906 F -8.0247081016134895e-35 #
coedge $-1 -1 $-1 $242 $243 $140 $196 forward $244 $-1 #
edge $245 -1 $-1 $201 0 $246 0.0056999999999999855 $140 $247 forward @7 unknown #
coedge $-1 -1 $-1 $248 $141 $243 $249 reversed $199 $-1 #
coedge $-1 -1 $-1 $141 $248 $143 $204 forward $199 $-1 #
loop $-1 -1 $-1 $-1 $141 $250 #
truecolor-adesk-attrib $-1 -1 $251 $-1 $142 -1056964608 #
vertex $-1 -1 $-1 $196 $252 #
straight-curve $-1 -1 $-1 -7.0000000000000107 8.7000000000000011 -32.999999999999993 0 707.1067811865463 -707.10678118654914 F 0 F 0.0023334523779156078 #
coedge $-1 -1 $-1 $144 $143 $253 $254 reversed $145 $-1 #
edge $255 -1 $-1 $256 0 $148 0.0020000000000000005 $198 $257 forward @7 unknown #
edge $258 -1 $-1 $259 0 $147 0.0020000000000000005 $190 $260 forward @7 unknown #
face $261 -1 $-1 $262 $145 $4 $-1 $263 reversed single #
DXID-attrib $-1 -1 $-1 $146 $93 @18 ASM_EDGE_FROM_STEP @4 7167 #
point $-1 -1 $-1 -7.0000000000000107 3.8499999999999996 -32.999999999999993 #
point $-1 -1 $-1 -7.0000000000000107 8.7000000000000011 -32.999999999999993 #
DXID-attrib $-1 -1 $-1 $150 $95 @18 ASM_EDGE_FROM_STEP @4 1206 #
truecolor-adesk-attrib $-1 -1 $264 $-1 $152 -1056964608 #
straight-curve $-1 -1 $-1 -7.0000000000000107 12.6 -31.499999999999993 0 -1000 0 F 0.0030000000000000092 F 0.011000000000000001 #
DXID-attrib $-1 -1 $-1 $155 $98 @18 ASM_EDGE_FROM_STEP @4 8471 #
point $-1 -1 $-1 -7.0000000000000107 9.5999999999999908 -31.499999999999993 #
truecolor-adesk-attrib $-1 -1 $265 $-1 $158 -1056964608 #
straight-curve $-1 -1 $-1 1.4961989980299961e-14 12.6 -34.499999999999993 1000 0 4.3368086899420182e-13 F -0.0070000000000000253 F 0.0089999999999999768 #
DXID-attrib $-1 -1 $-1 $164 $110 @18 ASM_EDGE_FROM_STEP @4 8143 #
point $-1 -1 $-1 -7.0000000000000107 1.6000000000000003 -31.499999999999993 #
DXID-attrib $-1 -1 $-1 $167 $115 @18 ASM_EDGE_FROM_STEP @4 2962 #
DXID-attrib $-1 -1 $-1 $171 $119 @18 ASM_EDGE_FROM_STEP @4 2102 #
DXID-attrib $-1 -1 $-1 $173 $120 @18 ASM_FACE_FROM_STEP @16 step-1M-811-5720 #
truecolor-adesk-attrib $-1 -1 $266 $-1 $174 -1056964608 #
plane-surface $-1 -1 $-1 1.4961989980299961e-14 12.6 -34.499999999999993 3.0665868333667507e-16 -0.70710678118654702 -0.70710678118654802 1 0 4.3368086899420182e-16 forward_v I I I I #
DXID-attrib $-1 -1 $-1 $178 $126 @18 ASM_EDGE_FROM_STEP @4 5458 #
DXID-attrib $-1 -1 $-1 $181 $131 @18 ASM_FACE_FROM_STEP @16 step-1M-811-6271 #
truecolor-adesk-attrib $-1 -1 $267 $-1 $182 -1056964608 #
face $268 -1 $-1 $250 $244 $4 $-1 $269 reversed single #
loop $-1 -1 $-1 $-1 $231 $182 #
plane-surface $-1 -1 $-1 -5.0000000000000098 10.35 -40.34999999999998 0 0.70710678118654935 -0.70710678118654569 0 0.70710678118654569 0.70710678118654935 forward_v I I I I #
DXID-attrib $-1 -1 $-1 $185 $136 @18 ASM_EDGE_FROM_STEP @4 1527 #
coedge $-1 -1 $-1 $270 $271 $187 $232 forward $228 $-1 #
edge $272 -1 $-1 $246 0 $236 0.0023334523779156052 $187 $273 forward @7 unknown #
coedge $-1 -1 $-1 $274 $188 $191 $239 reversed $183 $-1 #
coedge $-1 -1 $-1 $188 $274 $270 $275 forward $183 $-1 #
truecolor-adesk-attrib $-1 -1 $276 $-1 $189 -1056964608 #
vertex $-1 -1 $-1 $189 $277 #
straight-curve $-1 -1 $-1 -7.0000000000000107 3.8499999999999983 -41.999999999999986 0 -1000 0 F -0.0048500000000000027 F 0 #
coedge $-1 -1 $-1 $191 $190 $278 $279 reversed $132 $-1 #
edge $280 -1 $-1 $281 0 $193 0.0020000000000000005 $191 $282 forward @7 unknown #
DXID-attrib $-1 -1 $-1 $192 $139 @18 ASM_EDGE_FROM_STEP @4 2429 #
point $-1 -1 $-1 -7.0000000000000107 3.8499999999999983 -41.999999999999986 #
coedge $-1 -1 $-1 $283 $195 $271 $284 reversed $244 $-1 #
coedge $-1 -1 $-1 $195 $283 $197 $249 forward $244 $-1 #
loop $-1 -1 $-1 $-1 $195 $227 #
truecolor-adesk-attrib $-1 -1 $285 $-1 $196 -1056964608 #
vertex $-1 -1 $-1 $232 $286 #
straight-curve $-1 -1 $-1 -7.0000000000000107 10.35 -34.649999999999999 0 -3.0433745192575657e-13 -1000 F 0 F 0.0056999999999999855 #
coedge $-1 -1 $-1 $198 $197 $287 $288 reversed $199 $-1 #
edge $289 -1 $-1 $290 0 $201 0.0020000000000000005 $243 $291 forward @7 unknown #
face $292 -1 $-1 $206 $199 $4 $-1 $293 reversed single #
DXID-attrib $-1 -1 $-1 $200 $142 @18 ASM_EDGE_FROM_STEP @4 4643 #
point $-1 -1 $-1 -7.0000000000000107 10.35 -34.649999999999999 #
coedge $-1 -1 $-1 $287 $278 $203 $254 forward $294 $-1 #
edge $295 -1 $-1 $259 0 $256 0.004850000000000001 $203 $296 forward @7 unknown #
truecolor-adesk-attrib $-1 -1 $297 $-1 $204 -1056964608 #
vertex $-1 -1 $-1 $288 $298 #
straight-curve $-1 -1 $-1 -5.0000000000000098 8.7000000000000011 -32.999999999999993 -1000 0 0 F 0 F 0.0020000000000000005 #
truecolor-adesk-attrib $-1 -1 $299 $-1 $205 -1056964608 #
vertex $-1 -1 $-1 $205 $300 #
straight-curve $-1 -1 $-1 -5.0000000000000098 3.8500000000000001 -32.999999999999993 -1000 0 0 F 0 F 0.0020000000000000005 #
truecolor-adesk-attrib $-1 -1 $301 $-1 $206 -1056964608 #
face $302 -1 $-1 $303 $294 $4 $-1 $304 reversed single #
plane-surface $-1 -1 $-1 -5.0000000000000098 3.8500000000000001 -32.999999999999993 0 0 1 1 0 0 forward_v I I I I #
DXID-attrib $-1 -1 $-1 $211 $152 @18 ASM_EDGE_FROM_STEP @4 4992 #
DXID-attrib $-1 -1 $-1 $215 $158 @18 ASM_EDGE_FROM_STEP @4 4740 #
DXID-attrib $-1 -1 $-1 $222 $174 @18 ASM_FACE_FROM_STEP @16 step-1M-811-2382 #
DXID-attrib $-1 -1 $-1 $226 $182 @18 ASM_FACE_FROM_STEP @16 step-1M-811-3771 #
truecolor-adesk-attrib $-1 -1 $305 $-1 $227 -1056964608 #
plane-surface $-1 -1 $-1 -5.0000000000000098 10.35 -34.649999999999999 0 1 -3.0433745192575654e-16 0 3.0433745192575659e-16 1 forward_v I I I I #
coedge $-1 -1 $-1 $306 $231 $234 $275 reversed $228 $-1 #
coedge $-1 -1 $-1 $231 $306 $242 $284 forward $228 $-1 #
truecolor-adesk-attrib $-1 -1 $307 $-1 $232 -1056964608 #
straight-curve $-1 -1 $-1 -7.0000000000000107 10.35 -40.34999999999998 0 -707.10678118654573 -707.1067811865496 F 0 F 0.0023334523779156052 #
coedge $-1 -1 $-1 $234 $233 $308 $309 reversed $183 $-1 #
edge $310 -1 $-1 $311 0 $236 0.0020000000000000005 $234 $312 forward @7 unknown #
DXID-attrib $-1 -1 $-1 $235 $189 @18 ASM_EDGE_FROM_STEP @4 4391 #
point $-1 -1 $-1 -7.0000000000000107 8.7000000000000011 -41.999999999999986 #
coedge $-1 -1 $-1 $253 $308 $238 $279 forward $294 $-1 #
edge $313 -1 $-1 $281 -0.0089999999999999906 $259 0 $238 $314 forward @7 unknown #
truecolor-adesk-attrib $-1 -1 $315 $-1 $239 -1056964608 #
vertex $-1 -1 $-1 $279 $316 #
straight-curve $-1 -1 $-1 -5.0000000000000098 3.8499999999999983 -41.999999999999986 -1000 0 0 F 0 F 0.0020000000000000005 #
coedge $-1 -1 $-1 $243 $242 $317 $318 reversed $244 $-1 #
edge $319 -1 $-1 $320 0 $246 0.0020000000000000005 $271 $321 forward @7 unknown #
DXID-attrib $-1 -1 $-1 $245 $196 @18 ASM_EDGE_FROM_STEP @4 3499 #
point $-1 -1 $-1 -7.0000000000000107 10.35 -40.34999999999998 #
coedge $-1 -1 $-1 $317 $253 $248 $288 forward $294 $-1 #
edge $322 -1 $-1 $256 0 $290 0.0023334523779156078 $248 $323 forward @7 unknown #
truecolor-adesk-attrib $-1 -1 $324 $-1 $249 -1056964608 #
vertex $-1 -1 $-1 $318 $325 #
straight-curve $-1 -1 $-1 -5.0000000000000098 10.35 -34.649999999999999 -1000 0 0 F 0 F 0.0020000000000000005 #
truecolor-adesk-attrib $-1 -1 $326 $-1 $250 -1056964608 #
plane-surface $-1 -1 $-1 -5.0000000000000098 8.7000000000000011 -32.999999999999993 0 0.70710678118654902 0.70710678118654602 0 -0.70710678118654602 0.70710678118654902 forward_v I I I I #
loop $-1 -1 $-1 $327 $278 $262 #
truecolor-adesk-attrib $-1 -1 $328 $-1 $254 -1056964608 #
straight-curve $-1 -1 $-1 -5.0000000000000098 3.8500000000000001 -32.999999999999993 0 1000 0 F 0 F 0.004850000000000001 #
DXID-attrib $-1 -1 $-1 $255 $204 @18 ASM_EDGE_FROM_STEP @3 804 #
point $-1 -1 $-1 -5.0000000000000098 8.7000000000000011 -32.999999999999993 #
DXID-attrib $-1 -1 $-1 $258 $205 @18 ASM_EDGE_FROM_STEP @4 1531 #
point $-1 -1 $-1 -5.0000000000000098 3.8500000000000001 -32.999999999999993 #
DXID-attrib $-1 -1 $-1 $261 $206 @18 ASM_FACE_FROM_STEP @16 step-1M-811-4132 #
truecolor-adesk-attrib $-1 -1 $329 $-1 $262 -1056964608 #
face $330 -1 $-1 $331 $332 $4 $-1 $333 forward single #
plane-surface $-1 -1 $-1 -5.0000000000000098 0 0 1 0 0 0 0 -1 forward_v I I I I #
DXID-attrib $-1 -1 $-1 $268 $227 @18 ASM_FACE_FROM_STEP @16 step-1M-811-2244 #
coedge $-1 -1 $-1 $271 $270 $334 $335 reversed $228 $-1 #
DXID-attrib $-1 -1 $-1 $272 $232 @18 ASM_EDGE_FROM_STEP @4 2787 #
coedge $-1 -1 $-1 $278 $334 $274 $309 forward $294 $-1 #
edge $336 -1 $-1 $311 -0.0048500000000000027 $281 0 $274 $337 forward @7 unknown #
truecolor-adesk-attrib $-1 -1 $338 $-1 $275 -1056964608 #
vertex $-1 -1 $-1 $309 $339 #
straight-curve $-1 -1 $-1 -5.0000000000000098 8.7000000000000011 -41.999999999999986 -1000 0 0 F 0 F 0.0020000000000000005 #
truecolor-adesk-attrib $-1 -1 $340 $-1 $279 -1056964608 #
straight-curve $-1 -1 $-1 -5.0000000000000098 3.8500000000000001 -32.999999999999993 0 1.4456028966473404e-13 1000 F -0.0089999999999999906 F 0 #
DXID-attrib $-1 -1 $-1 $280 $239 @18 ASM_EDGE_FROM_STEP @4 6977 #
point $-1 -1 $-1 -5.0000000000000098 3.8499999999999983 -41.999999999999986 #
coedge $-1 -1 $-1 $334 $287 $283 $318 forward $294 $-1 #
edge $341 -1 $-1 $290 0 $320 0.0056999999999999855 $283 $342 forward @7 unknown #
truecolor-adesk-attrib $-1 -1 $343 $-1 $284 -1056964608 #
vertex $-1 -1 $-1 $335 $344 #
straight-curve $-1 -1 $-1 -5.0000000000000098 10.35 -40.34999999999998 -1000 0 0 F 0 F 0.0020000000000000005 #
truecolor-adesk-attrib $-1 -1 $345 $-1 $288 -1056964608 #
straight-curve $-1 -1 $-1 -5.0000000000000098 8.7000000000000011 -32.999999999999993 0 707.1067811865463 -707.10678118654914 F 0 F 0.0023334523779156078 #
DXID-attrib $-1 -1 $-1 $289 $249 @18 ASM_EDGE_FROM_STEP @4 7586 #
point $-1 -1 $-1 -5.0000000000000098 10.35 -34.649999999999999 #
DXID-attrib $-1 -1 $-1 $292 $250 @18 ASM_FACE_FROM_STEP @16 step-1M-811-4494 #
loop $-1 -1 $-1 $-1 $346 $262 #
DXID-attrib $-1 -1 $-1 $295 $254 @18 ASM_EDGE_FROM_STEP @4 4131 #
DXID-attrib $-1 -1 $-1 $302 $262 @18 ASM_FACE_FROM_STEP @16 step-1M-811-6911 #
truecolor-adesk-attrib $-1 -1 $347 $-1 $303 -1056964608 #
face $348 -1 $-1 $349 $350 $4 $-1 $351 forward single #
loop $-1 -1 $-1 $-1 $352 $303 #
plane-surface $-1 -1 $-1 -5.0000000000000098 5.5999999999999996 -40.249999999999986 0 0 -1 -1 0 0 forward_v I I I I #
coedge $-1 -1 $-1 $308 $317 $306 $335 forward $294 $-1 #
edge $353 -1 $-1 $320 0 $311 0.0023334523779156052 $306 $354 forward @7 unknown #
truecolor-adesk-attrib $-1 -1 $355 $-1 $309 -1056964608 #
straight-curve $-1 -1 $-1 -5.0000000000000098 3.8499999999999983 -41.999999999999986 0 -1000 0 F -0.0048500000000000027 F 0 #
DXID-attrib $-1 -1 $-1 $310 $275 @18 ASM_EDGE_FROM_STEP @4 4973 #
point $-1 -1 $-1 -5.0000000000000098 8.7000000000000011 -41.999999999999986 #
DXID-attrib $-1 -1 $-1 $313 $279 @18 ASM_EDGE_FROM_STEP @4 3899 #
truecolor-adesk-attrib $-1 -1 $356 $-1 $318 -1056964608 #
straight-curve $-1 -1 $-1 -5.0000000000000098 10.35 -34.649999999999999 0 -3.0433745192575657e-13 -1000 F 0 F 0.0056999999999999855 #
DXID-attrib $-1 -1 $-1 $319 $284 @18 ASM_EDGE_FROM_STEP @4 4234 #
point $-1 -1 $-1 -5.0000000000000098 10.35 -40.34999999999998 #
DXID-attrib $-1 -1 $-1 $322 $288 @18 ASM_EDGE_FROM_STEP @4 5351 #
coedge $-1 -1 $-1 $357 $358 $359 $360 reversed $327 $-1 #
DXID-attrib $-1 -1 $-1 $330 $303 @18 ASM_FACE_FROM_STEP @16 step-1M-811-2207 #
truecolor-adesk-attrib $-1 -1 $361 $-1 $331 -1056964608 #
face $362 -1 $-1 $363 $364 $4 $-1 $365 forward single #
loop $-1 -1 $-1 $-1 $366 $331 #
plane-surface $-1 -1 $-1 -5.0000000000000098 8.5999999999999996 -34.749999999999986 0 1 0 0 0 1 forward_v I I I I #
coedge $-1 -1 $-1 $367 $368 $369 $370 reversed $332 $-1 #
truecolor-adesk-attrib $-1 -1 $371 $-1 $335 -1056964608 #
straight-curve $-1 -1 $-1 -5.0000000000000098 10.35 -40.34999999999998 0 -707.10678118654573 -707.1067811865496 F 0 F 0.0023334523779156052 #
DXID-attrib $-1 -1 $-1 $336 $309 @18 ASM_EDGE_FROM_STEP @4 5999 #
DXID-attrib $-1 -1 $-1 $341 $318 @18 ASM_EDGE_FROM_STEP @4 1289 #
coedge $-1 -1 $-1 $372 $346 $373 $374 reversed $327 $-1 #
coedge $-1 -1 $-1 $346 $372 $375 $376 reversed $327 $-1 #
coedge $-1 -1 $-1 $368 $367 $346 $360 forward $332 $-1 #
edge $377 -1 $-1 $378 -0.0030000000000000005 $379 0 $346 $380 forward @7 unknown #
DXID-attrib $-1 -1 $-1 $348 $331 @18 ASM_FACE_FROM_STEP @16 step-1M-811-6277 #
truecolor-adesk-attrib $-1 -1 $381 $-1 $349 -1056964608 #
face $382 -1 $-1 $383 $384 $4 $-1 $385 forward single #
loop $-1 -1 $-1 $-1 $386 $349 #
plane-surface $-1 -1 $-1 -5.0000000000000098 5.5999999999999996 -34.749999999999986 0 0 1 1 0 0 forward_v I I I I #
coedge $-1 -1 $-1 $387 $388 $389 $390 reversed $350 $-1 #
coedge $-1 -1 $-1 $359 $352 $388 $391 reversed $332 $-1 #
coedge $-1 -1 $-1 $352 $359 $392 $393 forward $332 $-1 #
coedge $-1 -1 $-1 $394 $389 $352 $370 forward $395 $-1 #
edge $396 -1 $-1 $397 -0.0030000000000000005 $398 0 $352 $399 forward @7 unknown #
DXID-attrib $-1 -1 $-1 $353 $335 @18 ASM_EDGE_FROM_STEP @4 8631 #
coedge $-1 -1 $-1 $358 $357 $400 $401 reversed $327 $-1 #
coedge $-1 -1 $-1 $388 $387 $357 $374 forward $350 $-1 #
edge $402 -1 $-1 $403 0 $378 0.0054999999999999979 $357 $404 forward @7 unknown #
coedge $-1 -1 $-1 $405 $392 $358 $376 forward $384 $-1 #
edge $406 -1 $-1 $379 -0.0054999999999999979 $407 0 $358 $408 forward @7 unknown #
truecolor-adesk-attrib $-1 -1 $409 $-1 $360 -1056964608 #
vertex $-1 -1 $-1 $360 $410 #
vertex $-1 -1 $-1 $360 $411 #
straight-curve $-1 -1 $-1 -5.0000000000000098 5.5999999999999996 -40.249999999999986 0 -1000 0 F -0.0030000000000000005 F 0 #
DXID-attrib $-1 -1 $-1 $362 $349 @18 ASM_FACE_FROM_STEP @16 step-1M-811-7695 #
truecolor-adesk-attrib $-1 -1 $412 $-1 $363 -1056964608 #
face $413 -1 $-1 $120 $395 $4 $-1 $414 reversed single #
loop $-1 -1 $-1 $-1 $415 $363 #
plane-surface $-1 -1 $-1 -5.0000000000000098 5.5999999999999996 -34.749999999999986 0 -1 0 0 0 -1 forward_v I I I I #
coedge $-1 -1 $-1 $416 $417 $418 $419 reversed $364 $-1 #
coedge $-1 -1 $-1 $373 $366 $417 $420 reversed $350 $-1 #
coedge $-1 -1 $-1 $366 $373 $367 $391 forward $350 $-1 #
coedge $-1 -1 $-1 $369 $418 $366 $390 forward $395 $-1 #
edge $421 -1 $-1 $422 0 $397 0.0054999999999999979 $366 $423 forward @7 unknown #
edge $424 -1 $-1 $378 0 $397 0.0020000000000000005 $367 $425 forward @7 unknown #
coedge $-1 -1 $-1 $375 $415 $368 $393 reversed $384 $-1 #
edge $426 -1 $-1 $379 0 $398 0.0020000000000000005 $368 $427 forward @7 unknown #
coedge $-1 -1 $-1 $418 $369 $415 $428 forward $395 $-1 #
loop $-1 -1 $-1 $-1 $369 $383 #
truecolor-adesk-attrib $-1 -1 $429 $-1 $370 -1056964608 #
vertex $-1 -1 $-1 $370 $430 #
vertex $-1 -1 $-1 $370 $431 #
straight-curve $-1 -1 $-1 -7.0000000000000107 5.5999999999999996 -40.249999999999986 0 -1000 0 F -0.0030000000000000005 F 0 #
coedge $-1 -1 $-1 $417 $416 $372 $401 forward $364 $-1 #
edge $432 -1 $-1 $407 0 $403 0.0030000000000000005 $372 $433 forward @7 unknown #
truecolor-adesk-attrib $-1 -1 $434 $-1 $374 -1056964608 #
vertex $-1 -1 $-1 $374 $435 #
straight-curve $-1 -1 $-1 -5.0000000000000098 8.5999999999999996 -34.749999999999986 0 0 -1000 F 0 F 0.0054999999999999979 #
coedge $-1 -1 $-1 $415 $375 $416 $436 forward $384 $-1 #
truecolor-adesk-attrib $-1 -1 $437 $-1 $376 -1056964608 #
vertex $-1 -1 $-1 $401 $438 #
straight-curve $-1 -1 $-1 -5.0000000000000098 5.5999999999999996 -34.749999999999986 0 0 1000 F -0.0054999999999999979 F 0 #
DXID-attrib $-1 -1 $-1 $377 $360 @18 ASM_EDGE_FROM_STEP @4 9813 #
point $-1 -1 $-1 -5.0000000000000098 8.5999999999999996 -40.249999999999986 #
point $-1 -1 $-1 -5.0000000000000098 5.5999999999999996 -40.249999999999986 #
DXID-attrib $-1 -1 $-1 $382 $363 @18 ASM_FACE_FROM_STEP @16 step-1M-811-2989 #
truecolor-adesk-attrib $-1 -1 $439 $-1 $383 -1056964608 #
plane-surface $-1 -1 $-1 -7.0000000000000107 12.6 -43.5 1 0 0 0 0 -1 forward_v I I I I #
coedge $-1 -1 $-1 $392 $405 $394 $428 reversed $384 $-1 #
coedge $-1 -1 $-1 $400 $386 $405 $436 reversed $364 $-1 #
coedge $-1 -1 $-1 $386 $400 $387 $420 forward $364 $-1 #
coedge $-1 -1 $-1 $389 $394 $386 $419 forward $395 $-1 #
edge $440 -1 $-1 $441 0 $422 0.0030000000000000005 $386 $442 forward @7 unknown #
edge $443 -1 $-1 $403 0 $422 0.0020000000000000005 $387 $444 forward @7 unknown #
truecolor-adesk-attrib $-1 -1 $445 $-1 $390 -1056964608 #
vertex $-1 -1 $-1 $390 $446 #
straight-curve $-1 -1 $-1 -7.0000000000000107 8.5999999999999996 -34.749999999999986 0 0 -1000 F 0 F 0.0054999999999999979 #
truecolor-adesk-attrib $-1 -1 $447 $-1 $391 -1056964608 #
straight-curve $-1 -1 $-1 -5.0000000000000098 8.5999999999999996 -40.249999999999986 -1000 0 0 F 0 F 0.0020000000000000005 #
truecolor-adesk-attrib $-1 -1 $448 $-1 $393 -1056964608 #
straight-curve $-1 -1 $-1 -5.0000000000000098 5.5999999999999996 -40.249999999999986 -1000 0 0 F 0 F 0.0020000000000000005 #
edge $449 -1 $-1 $398 -0.0054999999999999979 $441 0 $415 $450 forward @7 unknown #
DXID-attrib $-1 -1 $-1 $396 $370 @18 ASM_EDGE_FROM_STEP @4 7912 #
point $-1 -1 $-1 -7.0000000000000107 8.5999999999999996 -40.249999999999986 #
point $-1 -1 $-1 -7.0000000000000107 5.5999999999999996 -40.249999999999986 #
truecolor-adesk-attrib $-1 -1 $451 $-1 $401 -1056964608 #
straight-curve $-1 -1 $-1 -5.0000000000000098 5.5999999999999996 -34.749999999999986 0 1000 0 F 0 F 0.0030000000000000005 #
DXID-attrib $-1 -1 $-1 $402 $374 @18 ASM_EDGE_FROM_STEP @4 6398 #
point $-1 -1 $-1 -5.0000000000000098 8.5999999999999996 -34.749999999999986 #
edge $452 -1 $-1 $407 0 $441 0.0020000000000000005 $416 $453 forward @7 unknown #
DXID-attrib $-1 -1 $-1 $406 $376 @18 ASM_EDGE_FROM_STEP @4 7558 #
point $-1 -1 $-1 -5.0000000000000098 5.5999999999999996 -34.749999999999986 #
DXID-attrib $-1 -1 $-1 $413 $383 @18 ASM_FACE_FROM_STEP @16 step-1M-811-9419 #
truecolor-adesk-attrib $-1 -1 $454 $-1 $419 -1056964608 #
vertex $-1 -1 $-1 $419 $455 #
straight-curve $-1 -1 $-1 -7.0000000000000107 5.5999999999999996 -34.749999999999986 0 1000 0 F 0 F 0.0030000000000000005 #
truecolor-adesk-attrib $-1 -1 $456 $-1 $420 -1056964608 #
straight-curve $-1 -1 $-1 -5.0000000000000098 8.5999999999999996 -34.749999999999986 -1000 0 0 F 0 F 0.0020000000000000005 #
DXID-attrib $-1 -1 $-1 $421 $390 @18 ASM_EDGE_FROM_STEP @4 9360 #
point $-1 -1 $-1 -7.0000000000000107 8.5999999999999996 -34.749999999999986 #
DXID-attrib $-1 -1 $-1 $424 $391 @18 ASM_EDGE_FROM_STEP @4 9235 #
DXID-attrib $-1 -1 $-1 $426 $393 @18 ASM_EDGE_FROM_STEP @4 1890 #
truecolor-adesk-attrib $-1 -1 $457 $-1 $428 -1056964608 #
straight-curve $-1 -1 $-1 -7.0000000000000107 5.5999999999999996 -34.749999999999986 0 0 1000 F -0.0054999999999999979 F 0 #
DXID-attrib $-1 -1 $-1 $432 $401 @18 ASM_EDGE_FROM_STEP @4 9265 #
truecolor-adesk-attrib $-1 -1 $458 $-1 $436 -1056964608 #
straight-curve $-1 -1 $-1 -5.0000000000000098 5.5999999999999996 -34.749999999999986 -1000 0 0 F 0 F 0.0020000000000000005 #
DXID-attrib $-1 -1 $-1 $440 $419 @18 ASM_EDGE_FROM_STEP @4 5408 #
point $-1 -1 $-1 -7.0000000000000107 5.5999999999999996 -34.749999999999986 #
DXID-attrib $-1 -1 $-1 $443 $420 @18 ASM_EDGE_FROM_STEP @4 5613 #
DXID-attrib $-1 -1 $-1 $449 $428 @18 ASM_EDGE_FROM_STEP @4 7149 #
DXID-attrib $-1 -1 $-1 $452 $436 @18 ASM_EDGE_FROM_STEP @4 1791 #
