700 414 1 0         
16 Autodesk AutoCAD 20 ASM 229.2.0.65535 NT 24 Wed Mar  6 05:11:17 2024 
1 9.999999999999999547e-07 1.000000000000000036e-10 
body $1 -1 $-1 $2 $-1 $3 #
DXID-attrib $-1 -1 $-1 $-1 $0 @18 ASM_BODY_FROM_STEP @83 ABFA2C9FE15E42F70D5B5C86B19635215547E880|:|1817F654752E9CF1A78D11D3004C9A5611698275 #
lump $-1 -1 $-1 $-1 $4 $0 #
transform $-1 -1 1 0 0 0 1 0 0 0 1 0 0 0 1 no_rotate no_reflect no_shear #
shell $-1 -1 $-1 $-1 $-1 $5 $-1 $2 #
face $6 -1 $-1 $7 $8 $4 $-1 $9 reversed single #
color-adesk-attrib $-1 -1 $10 $-1 $5 7 #
face $11 -1 $-1 $12 $13 $4 $-1 $14 forward single #
loop $-1 -1 $-1 $-1 $15 $5 #
cone-surface $-1 -1 $-1 31.50606683167659838 37.64999985454520015 0 1 0 0 0 0 -2.450000000000000178 1 I I 0.7071067811865472397 0.7071067811865477948 2.450000000000000178 forward I I I I #
DXID-attrib $-1 -1 $-1 $6 $5 @18 ASM_FACE_FROM_STEP @15 step-1M-238-309 #
color-adesk-attrib $-1 -1 $16 $-1 $7 7 #
face $17 -1 $-1 $18 $19 $4 $-1 $20 reversed single #
loop $-1 -1 $-1 $21 $22 $7 #
plane-surface $-1 -1 $-1 32.45606683167660123 37.64999985454520015 8.625 1 -4.284553666988739942e-16 0 0 0 -1 forward_v I I I I #
coedge $-1 -1 $-1 $23 $24 $25 $26 forward $8 $-1 #
DXID-attrib $-1 -1 $-1 $11 $7 @18 ASM_FACE_FROM_STEP @15 step-1M-238-310 #
color-adesk-attrib $-1 -1 $27 $-1 $12 7 #
face $28 -1 $-1 $29 $30 $4 $-1 $31 reversed single #
loop $-1 -1 $-1 $-1 $32 $12 #
cone-surface $-1 -1 $-1 30.45606683167660478 37.64999985454520015 0 1 0 0 0 0 -1.500000000000000222 1 I I 0 1 1.500000000000000222 forward I I I I #
loop $-1 -1 $-1 $33 $34 $7 #
coedge $-1 -1 $-1 $35 $36 $37 $38 reversed $13 $-1 #
coedge $-1 -1 $-1 $39 $15 $24 $40 forward $8 $-1 #
coedge $-1 -1 $-1 $15 $39 $23 $40 reversed $8 $-1 #
coedge $-1 -1 $-1 $25 $25 $15 $26 reversed $41 $-1 #
edge $42 -1 $-1 $43 -3.141592653589793116 $43 3.141592653589793116 $15 $44 forward @7 unknown #
DXID-attrib $-1 -1 $-1 $17 $12 @18 ASM_FACE_FROM_STEP @15 step-1M-238-311 #
color-adesk-attrib $-1 -1 $45 $-1 $18 7 #
face $46 -1 $-1 $47 $48 $4 $-1 $49 reversed single #
loop $-1 -1 $-1 $-1 $50 $18 #
cone-surface $-1 -1 $-1 31.50606683167659838 37.64999985454520015 16.25 1 0 0 0 0 -2.450000000000000178 1 I I 0.7071067811865472397 0.7071067811865477948 2.450000000000000178 forward I I I I #
coedge $-1 -1 $-1 $51 $52 $39 $53 reversed $19 $-1 #
loop $-1 -1 $-1 $54 $55 $7 #
coedge $-1 -1 $-1 $34 $34 $50 $56 reversed $21 $-1 #
coedge $-1 -1 $-1 $57 $22 $58 $59 forward $13 $-1 #
coedge $-1 -1 $-1 $22 $60 $61 $62 forward $13 $-1 #
coedge $-1 -1 $-1 $63 $64 $22 $38 forward $65 $-1 #
edge $66 -1 $-1 $67 -0.7853981633974504994 $68 0.7853981633974460586 $22 $69 forward @7 unknown #
coedge $-1 -1 $-1 $24 $23 $32 $53 forward $8 $-1 #
edge $70 -1 $-1 $43 -0.5483685241854863168 $71 0.5483685241854850956 $23 $72 forward @2 g2 #
loop $-1 -1 $-1 $-1 $25 $7 #
color-adesk-attrib $-1 -1 $73 $-1 $26 7 #
vertex $-1 -1 $-1 $26 $74 #
ellipse-curve $-1 -1 $-1 32.45606683167660123 37.64999985454520015 0 1 -4.284553666988739942e-16 0 0 0 -3.400000000000000355 1 I I #
DXID-attrib $-1 -1 $-1 $28 $18 @18 ASM_FACE_FROM_STEP @15 step-1M-238-312 #
color-adesk-attrib $-1 -1 $75 $-1 $29 7 #
face $76 -1 $-1 $77 $65 $4 $-1 $78 forward single #
loop $-1 -1 $-1 $-1 $79 $29 #
cone-surface $-1 -1 $-1 30.45606683167660478 37.64999985454520015 16.25 1 0 0 0 0 -1.500000000000000222 1 I I 0 1 1.500000000000000222 forward I I I I #
coedge $-1 -1 $-1 $80 $81 $34 $56 forward $30 $-1 #
coedge $-1 -1 $-1 $82 $32 $52 $83 forward $19 $-1 #
coedge $-1 -1 $-1 $32 $82 $51 $83 reversed $19 $-1 #
edge $84 -1 $-1 $71 -3.141592653589793116 $71 3.141592653589793116 $39 $85 forward @7 unknown #
loop $-1 -1 $-1 $86 $87 $7 #
coedge $-1 -1 $-1 $55 $55 $88 $89 forward $33 $-1 #
edge $90 -1 $-1 $91 -3.141592653589793116 $91 3.141592653589793116 $34 $92 forward @7 unknown #
coedge $-1 -1 $-1 $93 $35 $94 $95 reversed $13 $-1 #
coedge $-1 -1 $-1 $96 $97 $35 $59 reversed $98 $-1 #
edge $99 -1 $-1 $67 -0.8000000000000000444 $100 3.725000000000000089 $35 $101 forward @7 unknown #
coedge $-1 -1 $-1 $36 $102 $103 $104 reversed $13 $-1 #
coedge $-1 -1 $-1 $105 $106 $36 $62 reversed $107 $-1 #
edge $108 -1 $-1 $109 -1.000000000000450751 $68 -0.2000000000000001776 $36 $110 forward @7 unknown #
coedge $-1 -1 $-1 $111 $37 $106 $112 forward $65 $-1 #
coedge $-1 -1 $-1 $37 $111 $96 $113 forward $65 $-1 #
loop $-1 -1 $-1 $-1 $37 $47 #
color-adesk-attrib $-1 -1 $114 $-1 $38 7 #
vertex $-1 -1 $-1 $38 $115 #
vertex $-1 -1 $-1 $38 $116 #
ellipse-curve $-1 -1 $-1 32.45606683167660123 41.64999985454750231 -14.00000000000000178 -1 4.284553666988739942e-16 0 6.059273904570840966e-16 1.414213562373092037 -1.414213562373098032 1 F -0.7853981633974504994 F 0.7853981633974460586 #
color-adesk-attrib $-1 -1 $117 $-1 $40 7 #
vertex $-1 -1 $-1 $40 $118 #
straight-curve $-1 -1 $-1 31.50606683167659838 37.64999985454520015 2.450000000000000178 -1.732411613907040238 2.121592337776960633e-16 -1.73241161390704268 F -0.5483685241854863168 F 0.5483685241854850956 #
DXID-attrib $-1 -1 $-1 $42 $26 @18 ASM_EDGE_FROM_STEP @3 178 #
point $-1 -1 $-1 32.45606683167660123 37.64999985454520015 3.400000000000000355 #
DXID-attrib $-1 -1 $-1 $46 $29 @18 ASM_FACE_FROM_STEP @15 step-1M-238-313 #
color-adesk-attrib $-1 -1 $119 $-1 $47 7 #
face $120 -1 $-1 $121 $122 $4 $-1 $123 reversed single #
cone-surface $-1 -1 $-1 30.45606683167660478 41.64999985454750231 -14.00000000000000178 1 0 0 0 1.414213562373092037 -1.414213562373098032 1 I I 0 1 2 forward I I I I #
coedge $-1 -1 $-1 $124 $125 $126 $127 reversed $48 $-1 #
coedge $-1 -1 $-1 $126 $50 $81 $128 forward $30 $-1 #
coedge $-1 -1 $-1 $50 $126 $80 $128 reversed $30 $-1 #
coedge $-1 -1 $-1 $52 $51 $129 $130 forward $19 $-1 #
edge $131 -1 $-1 $71 -0.06666666666666523633 $132 0 $51 $133 forward @2 g2 #
color-adesk-attrib $-1 -1 $134 $-1 $53 7 #
ellipse-curve $-1 -1 $-1 30.55606683167660265 37.64999985454520015 0 -1 4.284553666988739942e-16 0 0 0 -1.500000000000000222 1 I I #
loop $-1 -1 $-1 $41 $135 $7 #
coedge $-1 -1 $-1 $87 $87 $136 $137 forward $54 $-1 #
coedge $-1 -1 $-1 $138 $139 $55 $89 reversed $140 $-1 #
edge $141 -1 $-1 $142 -3.141592653589793116 $142 3.141592653589793116 $55 $143 forward @7 unknown #
color-adesk-attrib $-1 -1 $144 $-1 $56 7 #
vertex $-1 -1 $-1 $56 $145 #
ellipse-curve $-1 -1 $-1 32.45606683167660123 37.64999985454520015 16.25 1 -4.284553666988739942e-16 0 0 0 -3.400000000000000355 1 I I #
coedge $-1 -1 $-1 $146 $57 $147 $148 forward $13 $-1 #
coedge $-1 -1 $-1 $149 $150 $57 $95 forward $151 $-1 #
edge $152 -1 $-1 $153 -0.7853981633974460586 $100 0.7853981633974504994 $57 $154 forward @7 unknown #
coedge $-1 -1 $-1 $155 $58 $64 $113 reversed $98 $-1 #
coedge $-1 -1 $-1 $58 $155 $149 $156 reversed $98 $-1 #
loop $-1 -1 $-1 $-1 $96 $157 #
color-adesk-attrib $-1 -1 $158 $-1 $59 7 #
vertex $-1 -1 $-1 $59 $159 #
straight-curve $-1 -1 $-1 32.45606683167660123 43.64999985454750941 -6.000000000000000888 0 0 10 F -0.8000000000000000444 F 3.725000000000000089 #
coedge $-1 -1 $-1 $60 $146 $160 $161 forward $13 $-1 #
coedge $-1 -1 $-1 $162 $163 $60 $104 forward $164 $-1 #
edge $165 -1 $-1 $109 -0.7853981633974489451 $166 0.7853981633974476129 $60 $167 forward @7 unknown #
coedge $-1 -1 $-1 $168 $61 $163 $169 reversed $107 $-1 #
coedge $-1 -1 $-1 $61 $168 $63 $112 reversed $107 $-1 #
loop $-1 -1 $-1 $-1 $106 $121 #
color-adesk-attrib $-1 -1 $170 $-1 $62 7 #
vertex $-1 -1 $-1 $104 $171 #
straight-curve $-1 -1 $-1 32.45606683167660123 43.64999985454750941 -16 4.284553666988740337e-15 10 0 F -1.000000000000450751 F -0.2000000000000001776 #
coedge $-1 -1 $-1 $64 $63 $172 $173 forward $65 $-1 #
edge $174 -1 $-1 $68 -0.1999999999999997335 $175 0 $63 $176 forward @14 tangent_not_g2 #
edge $177 -1 $-1 $178 0 $67 0.1999999999999997335 $64 $179 forward @14 tangent_not_g2 #
DXID-attrib $-1 -1 $-1 $66 $38 @18 ASM_EDGE_FROM_STEP @3 181 #
point $-1 -1 $-1 32.45606683167660123 43.64999985454750941 -14.00000000000000178 #
point $-1 -1 $-1 32.45606683167660123 41.64999985454750231 -16 #
DXID-attrib $-1 -1 $-1 $70 $40 @18 ASM_EDGE_FROM_STEP @3 179 #
point $-1 -1 $-1 30.55606683167660265 37.64999985454520015 1.500000000000000222 #
DXID-attrib $-1 -1 $-1 $76 $47 @18 ASM_FACE_FROM_STEP @15 step-1M-238-314 #
color-adesk-attrib $-1 -1 $180 $-1 $77 7 #
face $181 -1 $-1 $182 $107 $4 $-1 $183 forward single #
loop $-1 -1 $-1 $184 $172 $77 #
plane-surface $-1 -1 $-1 30.45606683167660478 37.64999985454520015 8.625 1 -4.284553666988739942e-16 0 0 0 -1 forward_v I I I I #
coedge $-1 -1 $-1 $185 $79 $125 $186 forward $48 $-1 #
coedge $-1 -1 $-1 $79 $185 $124 $186 reversed $48 $-1 #
coedge $-1 -1 $-1 $81 $80 $79 $127 forward $30 $-1 #
edge $187 -1 $-1 $188 -3.141592653589793116 $188 3.141592653589793116 $126 $189 forward @7 unknown #
edge $190 -1 $-1 $91 -0.5483685241854853176 $188 0.5483685241854846515 $80 $191 forward @2 g2 #
coedge $-1 -1 $-1 $129 $129 $82 $130 reversed $192 $-1 #
edge $193 -1 $-1 $132 -3.141592653589793116 $132 3.141592653589793116 $82 $194 forward @7 unknown #
color-adesk-attrib $-1 -1 $195 $-1 $83 7 #
vertex $-1 -1 $-1 $83 $196 #
straight-curve $-1 -1 $-1 30.45606683167660478 37.64999985454520015 1.500000000000000222 -1.500000000000000222 0 0 F -0.06666666666666523633 F 0 #
DXID-attrib $-1 -1 $-1 $84 $53 @18 ASM_EDGE_FROM_STEP @3 180 #
coedge $-1 -1 $-1 $135 $135 $197 $198 forward $86 $-1 #
coedge $-1 -1 $-1 $199 $200 $87 $137 reversed $201 $-1 #
edge $202 -1 $-1 $203 -3.141592653589793116 $203 3.141592653589793116 $87 $204 forward @7 unknown #
coedge $-1 -1 $-1 $205 $88 $139 $206 forward $140 $-1 #
coedge $-1 -1 $-1 $88 $205 $138 $206 reversed $140 $-1 #
loop $-1 -1 $-1 $-1 $88 $207 #
color-adesk-attrib $-1 -1 $208 $-1 $89 7 #
vertex $-1 -1 $-1 $89 $209 #
ellipse-curve $-1 -1 $-1 32.45606683167660123 35.14999985449210129 8 -1 4.284553666988739942e-16 0 0 0 -2.25 1 I I #
DXID-attrib $-1 -1 $-1 $90 $56 @18 ASM_EDGE_FROM_STEP @3 189 #
point $-1 -1 $-1 32.45606683167660123 37.64999985454520015 19.64999999999999858 #
coedge $-1 -1 $-1 $102 $93 $210 $211 reversed $13 $-1 #
coedge $-1 -1 $-1 $212 $213 $93 $148 reversed $214 $-1 #
edge $215 -1 $-1 $153 -1.000000000000450306 $216 -0.1999999999999997335 $93 $217 forward @7 unknown #
coedge $-1 -1 $-1 $218 $94 $97 $156 forward $151 $-1 #
coedge $-1 -1 $-1 $94 $218 $212 $219 forward $151 $-1 #
loop $-1 -1 $-1 $-1 $94 $220 #
color-adesk-attrib $-1 -1 $221 $-1 $95 7 #
vertex $-1 -1 $-1 $95 $222 #
ellipse-curve $-1 -1 $-1 32.45606683167660123 41.64999985454750231 31.25 -1 4.284553666988739942e-16 0 6.059273904570840966e-16 1.414213562373092037 1.414213562373098032 1 F -0.7853981633974460586 F 0.7853981633974504994 #
coedge $-1 -1 $-1 $97 $96 $223 $224 forward $98 $-1 #
edge $225 -1 $-1 $100 -0.1999999999999997335 $226 0 $149 $227 forward @14 tangent_not_g2 #
face $228 -1 $-1 $-1 $98 $4 $-1 $229 forward single #
DXID-attrib $-1 -1 $-1 $99 $59 @18 ASM_EDGE_FROM_STEP @3 182 #
point $-1 -1 $-1 32.45606683167660123 43.64999985454750941 31.25 #
coedge $-1 -1 $-1 $230 $231 $102 $161 reversed $232 $-1 #
edge $233 -1 $-1 $234 -0.7999999999999998224 $166 3.725000000000000533 $102 $235 forward @7 unknown #
coedge $-1 -1 $-1 $236 $103 $231 $237 forward $164 $-1 #
coedge $-1 -1 $-1 $103 $236 $105 $169 forward $164 $-1 #
loop $-1 -1 $-1 $-1 $103 $182 #
color-adesk-attrib $-1 -1 $238 $-1 $104 7 #
vertex $-1 -1 $-1 $161 $239 #
ellipse-curve $-1 -1 $-1 32.45606683167660123 33.64999985454299747 -14.00000000000000178 -1 4.284553666988739942e-16 0 -6.059273904570857729e-16 -1.414213562373096256 -1.414213562373094257 1 F -0.7853981633974489451 F 0.7853981633974476129 #
coedge $-1 -1 $-1 $106 $105 $240 $241 reversed $107 $-1 #
edge $242 -1 $-1 $243 0 $109 0.1999999999999997335 $105 $244 forward @14 tangent_not_g2 #
DXID-attrib $-1 -1 $-1 $108 $62 @18 ASM_EDGE_FROM_STEP @3 188 #
point $-1 -1 $-1 32.45606683167660123 33.64999985454299747 -16 #
coedge $-1 -1 $-1 $240 $223 $111 $173 reversed $122 $-1 #
edge $245 -1 $-1 $175 -0.7853981633974460586 $178 0.7853981633974504994 $111 $246 forward @7 unknown #
color-adesk-attrib $-1 -1 $247 $-1 $112 7 #
vertex $-1 -1 $-1 $112 $248 #
straight-curve $-1 -1 $-1 30.45606683167660478 41.64999985454750231 -16 -10 0 0 F -0.1999999999999997335 F 0 #
color-adesk-attrib $-1 -1 $249 $-1 $113 7 #
vertex $-1 -1 $-1 $173 $250 #
straight-curve $-1 -1 $-1 30.45606683167660478 43.64999985454750941 -14.00000000000000178 10 0 0 F 0 F 0.1999999999999997335 #
DXID-attrib $-1 -1 $-1 $120 $77 @18 ASM_FACE_FROM_STEP @15 step-1M-238-315 #
color-adesk-attrib $-1 -1 $251 $-1 $121 7 #
face $252 -1 $-1 $220 $164 $4 $-1 $253 forward single #
plane-surface $-1 -1 $-1 30.45606683167660478 31.64999985454300457 -16 0 0 -1 4.284553666988739942e-16 1 0 forward_v I I I I #
loop $-1 -1 $-1 $192 $254 $77 #
coedge $-1 -1 $-1 $125 $124 $255 $256 forward $48 $-1 #
edge $257 -1 $-1 $188 -0.06666666666666523633 $258 0 $124 $259 forward @2 g2 #
color-adesk-attrib $-1 -1 $260 $-1 $127 7 #
vertex $-1 -1 $-1 $128 $261 #
ellipse-curve $-1 -1 $-1 30.55606683167660265 37.64999985454520015 16.25 -1 4.284553666988739942e-16 0 0 0 -1.500000000000000222 1 I I #
color-adesk-attrib $-1 -1 $262 $-1 $128 7 #
straight-curve $-1 -1 $-1 31.50606683167659838 37.64999985454520015 18.70000000000000284 -1.732411613907042902 2.121592337776958168e-16 -1.732411613907042902 F -0.5483685241854853176 F 0.5483685241854846515 #
loop $-1 -1 $-1 $263 $129 $77 #
color-adesk-attrib $-1 -1 $264 $-1 $130 7 #
ellipse-curve $-1 -1 $-1 30.45606683167660478 37.64999985454520015 0 -1 4.284553666988739942e-16 0 0 0 -1.500000000000000222 1 I I #
DXID-attrib $-1 -1 $-1 $131 $83 @18 ASM_EDGE_FROM_STEP @3 193 #
point $-1 -1 $-1 30.45606683167660478 37.64999985454520015 1.500000000000000222 #
coedge $-1 -1 $-1 $265 $266 $135 $198 reversed $267 $-1 #
edge $268 -1 $-1 $269 -3.141592653589793116 $269 3.141592653589793116 $135 $270 forward @7 unknown #
coedge $-1 -1 $-1 $271 $136 $200 $272 forward $201 $-1 #
coedge $-1 -1 $-1 $136 $271 $199 $272 reversed $201 $-1 #
loop $-1 -1 $-1 $-1 $136 $273 #
color-adesk-attrib $-1 -1 $274 $-1 $137 7 #
vertex $-1 -1 $-1 $137 $275 #
ellipse-curve $-1 -1 $-1 32.45606683167660123 37.64999985454520015 29.25000000000000355 -1 4.284553666988739942e-16 0 0 0 -2 1 I I #
coedge $-1 -1 $-1 $139 $138 $254 $276 forward $140 $-1 #
edge $277 -1 $-1 $142 -0.8888888888888877293 $278 0 $138 $279 forward @2 g2 #
face $280 -1 $-1 $281 $140 $4 $-1 $282 reversed single #
DXID-attrib $-1 -1 $-1 $141 $89 @18 ASM_EDGE_FROM_STEP @3 190 #
point $-1 -1 $-1 32.45606683167660123 35.14999985449210129 10.25000000000000178 #
coedge $-1 -1 $-1 $283 $284 $146 $211 forward $285 $-1 #
edge $286 -1 $-1 $234 -0.785398163397448279 $216 0.785398163397448279 $146 $287 forward @7 unknown #
coedge $-1 -1 $-1 $288 $147 $150 $219 reversed $214 $-1 #
coedge $-1 -1 $-1 $147 $288 $283 $289 reversed $214 $-1 #
loop $-1 -1 $-1 $-1 $212 $290 #
color-adesk-attrib $-1 -1 $291 $-1 $148 7 #
vertex $-1 -1 $-1 $148 $292 #
straight-curve $-1 -1 $-1 32.45606683167660123 31.64999985454300457 33.25 -4.284553666988740337e-15 -10 0 F -1.000000000000450306 F -0.1999999999999997335 #
coedge $-1 -1 $-1 $150 $149 $293 $294 forward $151 $-1 #
edge $295 -1 $-1 $296 0 $153 0.1999999999999997335 $150 $297 forward @14 tangent_not_g2 #
face $298 -1 $-1 $290 $151 $4 $-1 $299 forward single #
DXID-attrib $-1 -1 $-1 $152 $95 @18 ASM_EDGE_FROM_STEP @3 183 #
point $-1 -1 $-1 32.45606683167660123 41.64999985454750231 33.25 #
coedge $-1 -1 $-1 $172 $293 $155 $224 reversed $122 $-1 #
edge $300 -1 $-1 $178 -0.8000000000000000444 $226 3.725000000000000089 $223 $301 forward @7 unknown #
color-adesk-attrib $-1 -1 $302 $-1 $156 7 #
vertex $-1 -1 $-1 $294 $303 #
straight-curve $-1 -1 $-1 30.45606683167660478 43.64999985454750941 31.25 -10 0 0 F -0.1999999999999997335 F 0 #
color-adesk-attrib $-1 -1 $304 $-1 $157 7 #
plane-surface $-1 -1 $-1 30.45606683167660478 43.64999985454750941 -16 0 1 0 0 0 1 forward_v I I I I #
coedge $-1 -1 $-1 $305 $160 $284 $306 reversed $232 $-1 #
coedge $-1 -1 $-1 $160 $305 $162 $237 reversed $232 $-1 #
loop $-1 -1 $-1 $-1 $231 $281 #
color-adesk-attrib $-1 -1 $307 $-1 $161 7 #
vertex $-1 -1 $-1 $211 $308 #
straight-curve $-1 -1 $-1 32.45606683167660123 31.64999985454300457 23.25 0 0 -10 F -0.7999999999999998224 F 3.725000000000000533 #
coedge $-1 -1 $-1 $163 $162 $309 $310 forward $164 $-1 #
edge $311 -1 $-1 $166 -0.1999999999999997335 $312 0 $162 $313 forward @14 tangent_not_g2 #
DXID-attrib $-1 -1 $-1 $165 $104 @18 ASM_EDGE_FROM_STEP @3 187 #
point $-1 -1 $-1 32.45606683167660123 31.64999985454300457 -14.00000000000000178 #
coedge $-1 -1 $-1 $309 $172 $168 $241 forward $122 $-1 #
edge $314 -1 $-1 $175 0.2000000000000001776 $243 1.000000000000450751 $240 $315 forward @7 unknown #
color-adesk-attrib $-1 -1 $316 $-1 $169 7 #
vertex $-1 -1 $-1 $241 $317 #
straight-curve $-1 -1 $-1 30.45606683167660478 33.64999985454299747 -16 10 0 0 F 0 F 0.1999999999999997335 #
color-adesk-attrib $-1 -1 $318 $-1 $173 7 #
ellipse-curve $-1 -1 $-1 30.45606683167660478 41.64999985454750231 -14.00000000000000178 1 -4.284553666988739942e-16 0 6.059273904570840966e-16 1.414213562373092037 -1.414213562373098032 1 F -0.7853981633974460586 F 0.7853981633974504994 #
DXID-attrib $-1 -1 $-1 $174 $112 @18 ASM_EDGE_FROM_STEP @3 199 #
point $-1 -1 $-1 30.45606683167660478 41.64999985454750231 -16 #
DXID-attrib $-1 -1 $-1 $177 $113 @18 ASM_EDGE_FROM_STEP @3 201 #
point $-1 -1 $-1 30.45606683167660478 43.64999985454750941 -14.00000000000000178 #
DXID-attrib $-1 -1 $-1 $181 $121 @18 ASM_FACE_FROM_STEP @15 step-1M-238-316 #
color-adesk-attrib $-1 -1 $319 $-1 $182 7 #
cone-surface $-1 -1 $-1 30.45606683167660478 33.64999985454299747 -14.00000000000000178 1 0 0 0 -1.414213562373096256 -1.414213562373094257 1 I I 0 1 2 forward I I I I #
coedge $-1 -1 $-1 $254 $254 $205 $276 reversed $184 $-1 #
coedge $-1 -1 $-1 $255 $255 $185 $256 reversed $320 $-1 #
edge $321 -1 $-1 $258 -3.141592653589793116 $258 3.141592653589793116 $185 $322 forward @7 unknown #
color-adesk-attrib $-1 -1 $323 $-1 $186 7 #
vertex $-1 -1 $-1 $186 $324 #
straight-curve $-1 -1 $-1 30.45606683167660478 37.64999985454520015 17.75 -1.500000000000000222 0 0 F -0.06666666666666523633 F 0 #
DXID-attrib $-1 -1 $-1 $187 $127 @18 ASM_EDGE_FROM_STEP @3 196 #
point $-1 -1 $-1 30.55606683167660265 37.64999985454520015 17.75 #
DXID-attrib $-1 -1 $-1 $190 $128 @18 ASM_EDGE_FROM_STEP @3 195 #
loop $-1 -1 $-1 $325 $326 $77 #
DXID-attrib $-1 -1 $-1 $193 $130 @18 ASM_EDGE_FROM_STEP @3 194 #
coedge $-1 -1 $-1 $327 $197 $266 $328 forward $267 $-1 #
coedge $-1 -1 $-1 $197 $327 $265 $328 reversed $267 $-1 #
loop $-1 -1 $-1 $-1 $197 $329 #
color-adesk-attrib $-1 -1 $330 $-1 $198 7 #
vertex $-1 -1 $-1 $198 $331 #
ellipse-curve $-1 -1 $-1 32.45606683167660123 37.64999985454520015 -12.00000000000000178 -1 4.284553666988739942e-16 0 0 0 -2 1 I I #
coedge $-1 -1 $-1 $200 $199 $326 $332 forward $201 $-1 #
edge $333 -1 $-1 $203 -0.9999999999999986677 $334 0 $199 $335 forward @2 g2 #
face $336 -1 $-1 $207 $201 $4 $-1 $337 reversed single #
DXID-attrib $-1 -1 $-1 $202 $137 @18 ASM_EDGE_FROM_STEP @3 191 #
point $-1 -1 $-1 32.45606683167660123 37.64999985454520015 31.25 #
edge $338 -1 $-1 $278 -3.141592653589793116 $278 3.141592653589793116 $254 $339 forward @7 unknown #
color-adesk-attrib $-1 -1 $340 $-1 $206 7 #
vertex $-1 -1 $-1 $276 $341 #
straight-curve $-1 -1 $-1 30.45606683167660478 35.14999985449210129 10.25000000000000178 -2.25 0 0 F -0.8888888888888877293 F 0 #
color-adesk-attrib $-1 -1 $342 $-1 $207 7 #
face $343 -1 $-1 $157 $232 $4 $-1 $344 forward single #
cone-surface $-1 -1 $-1 30.45606683167660478 35.14999985449210129 8 1 0 0 0 0 -2.25 1 I I 0 1 2.25 forward I I I I #
coedge $-1 -1 $-1 $345 $210 $213 $289 forward $285 $-1 #
coedge $-1 -1 $-1 $210 $345 $230 $306 forward $285 $-1 #
loop $-1 -1 $-1 $-1 $210 $346 #
color-adesk-attrib $-1 -1 $347 $-1 $211 7 #
ellipse-curve $-1 -1 $-1 32.45606683167660123 33.64999985454299747 31.25 -1 4.284553666988739942e-16 0 -6.059273904570853785e-16 -1.414213562373095368 1.414213562373095368 1 F -0.785398163397448279 F 0.785398163397448279 #
coedge $-1 -1 $-1 $213 $212 $348 $349 reversed $214 $-1 #
edge $350 -1 $-1 $216 -0.1999999999999997335 $351 0 $213 $352 forward @14 tangent_not_g2 #
face $353 -1 $-1 $346 $214 $4 $-1 $354 forward single #
DXID-attrib $-1 -1 $-1 $215 $148 @18 ASM_EDGE_FROM_STEP @3 184 #
point $-1 -1 $-1 32.45606683167660123 33.64999985454299747 33.25 #
coedge $-1 -1 $-1 $223 $348 $218 $294 reversed $122 $-1 #
edge $355 -1 $-1 $226 -0.7853981633974504994 $296 0.7853981633974460586 $293 $356 forward @7 unknown #
color-adesk-attrib $-1 -1 $357 $-1 $219 7 #
vertex $-1 -1 $-1 $349 $358 #
straight-curve $-1 -1 $-1 30.45606683167660478 41.64999985454750231 33.25 10 0 0 F 0 F 0.1999999999999997335 #
color-adesk-attrib $-1 -1 $359 $-1 $220 7 #
cone-surface $-1 -1 $-1 30.45606683167660478 41.64999985454750231 31.25 1 0 0 0 1.414213562373092037 1.414213562373098032 1 I I 0 1 2 forward I I I I #
color-adesk-attrib $-1 -1 $360 $-1 $224 7 #
straight-curve $-1 -1 $-1 30.45606683167660478 43.64999985454750941 -6.000000000000000888 0 0 10 F -0.8000000000000000444 F 3.725000000000000089 #
DXID-attrib $-1 -1 $-1 $225 $156 @18 ASM_EDGE_FROM_STEP @3 214 #
point $-1 -1 $-1 30.45606683167660478 43.64999985454750941 31.25 #
DXID-attrib $-1 -1 $-1 $228 $157 @18 ASM_FACE_FROM_STEP @15 step-1M-238-325 #
coedge $-1 -1 $-1 $231 $230 $361 $362 reversed $232 $-1 #
edge $363 -1 $-1 $364 0 $234 0.1999999999999997335 $284 $365 forward @14 tangent_not_g2 #
DXID-attrib $-1 -1 $-1 $233 $161 @18 ASM_EDGE_FROM_STEP @3 186 #
point $-1 -1 $-1 32.45606683167660123 31.64999985454300457 31.25 #
coedge $-1 -1 $-1 $361 $240 $236 $310 reversed $122 $-1 #
edge $366 -1 $-1 $312 -0.7853981633974476129 $243 0.7853981633974489451 $309 $367 forward @7 unknown #
color-adesk-attrib $-1 -1 $368 $-1 $237 7 #
vertex $-1 -1 $-1 $310 $369 #
straight-curve $-1 -1 $-1 30.45606683167660478 31.64999985454300457 -14.00000000000000178 -10 0 0 F -0.1999999999999997335 F 0 #
color-adesk-attrib $-1 -1 $370 $-1 $241 7 #
straight-curve $-1 -1 $-1 30.45606683167660478 43.64999985454750941 -16 -4.284553666988740337e-15 -10 0 F 0.2000000000000001776 F 1.000000000000450751 #
DXID-attrib $-1 -1 $-1 $242 $169 @18 ASM_EDGE_FROM_STEP @3 212 #
point $-1 -1 $-1 30.45606683167660478 33.64999985454299747 -16 #
DXID-attrib $-1 -1 $-1 $245 $173 @18 ASM_EDGE_FROM_STEP @3 200 #
DXID-attrib $-1 -1 $-1 $252 $182 @18 ASM_FACE_FROM_STEP @15 step-1M-238-317 #
loop $-1 -1 $-1 $-1 $255 $77 #
color-adesk-attrib $-1 -1 $371 $-1 $256 7 #
ellipse-curve $-1 -1 $-1 30.45606683167660478 37.64999985454520015 16.25 -1 4.284553666988739942e-16 0 0 0 -1.500000000000000222 1 I I #
DXID-attrib $-1 -1 $-1 $257 $186 @18 ASM_EDGE_FROM_STEP @3 197 #
point $-1 -1 $-1 30.45606683167660478 37.64999985454520015 17.75 #
loop $-1 -1 $-1 $320 $372 $77 #
coedge $-1 -1 $-1 $326 $326 $271 $332 reversed $263 $-1 #
coedge $-1 -1 $-1 $266 $265 $372 $373 forward $267 $-1 #
edge $374 -1 $-1 $269 -0.9999999999999986677 $375 0 $265 $376 forward @2 g2 #
face $377 -1 $-1 $273 $267 $4 $-1 $378 reversed single #
DXID-attrib $-1 -1 $-1 $268 $198 @18 ASM_EDGE_FROM_STEP @3 192 #
point $-1 -1 $-1 32.45606683167660123 37.64999985454520015 -10 #
edge $379 -1 $-1 $334 -3.141592653589793116 $334 3.141592653589793116 $326 $380 forward @7 unknown #
color-adesk-attrib $-1 -1 $381 $-1 $272 7 #
vertex $-1 -1 $-1 $332 $382 #
straight-curve $-1 -1 $-1 30.45606683167660478 37.64999985454520015 31.25 -2 0 0 F -0.9999999999999986677 F 0 #
color-adesk-attrib $-1 -1 $383 $-1 $273 7 #
cone-surface $-1 -1 $-1 30.45606683167660478 37.64999985454520015 29.25000000000000355 1 0 0 0 0 -2 1 I I 0 1 2 forward I I I I #
color-adesk-attrib $-1 -1 $384 $-1 $276 7 #
ellipse-curve $-1 -1 $-1 30.45606683167660478 35.14999985449210129 8 -1 4.284553666988739942e-16 0 0 0 -2.25 1 I I #
DXID-attrib $-1 -1 $-1 $277 $206 @18 ASM_EDGE_FROM_STEP @3 220 #
point $-1 -1 $-1 30.45606683167660478 35.14999985449210129 10.25000000000000178 #
DXID-attrib $-1 -1 $-1 $280 $207 @18 ASM_FACE_FROM_STEP @15 step-1M-238-323 #
color-adesk-attrib $-1 -1 $385 $-1 $281 7 #
plane-surface $-1 -1 $-1 30.45606683167660478 31.64999985454300457 33.25 0 -1 0 0 0 -1 forward_v I I I I #
coedge $-1 -1 $-1 $284 $283 $386 $387 forward $285 $-1 #
face $388 -1 $-1 $329 $285 $4 $-1 $389 forward single #
DXID-attrib $-1 -1 $-1 $286 $211 @18 ASM_EDGE_FROM_STEP @3 185 #
coedge $-1 -1 $-1 $293 $386 $288 $349 forward $122 $-1 #
edge $390 -1 $-1 $351 0.1999999999999997335 $296 1.000000000000450306 $348 $391 forward @7 unknown #
color-adesk-attrib $-1 -1 $392 $-1 $289 7 #
vertex $-1 -1 $-1 $387 $393 #
straight-curve $-1 -1 $-1 30.45606683167660478 33.64999985454299747 33.25 -10 0 0 F -0.1999999999999997335 F 0 #
color-adesk-attrib $-1 -1 $394 $-1 $290 7 #
plane-surface $-1 -1 $-1 30.45606683167660478 43.64999985454750941 33.25 0 0 1 -4.284553666988739942e-16 -1 0 forward_v I I I I #
color-adesk-attrib $-1 -1 $395 $-1 $294 7 #
ellipse-curve $-1 -1 $-1 30.45606683167660478 41.64999985454750231 31.25 1 -4.284553666988739942e-16 0 6.059273904570840966e-16 1.414213562373092037 1.414213562373098032 1 F -0.7853981633974504994 F 0.7853981633974460586 #
DXID-attrib $-1 -1 $-1 $295 $219 @18 ASM_EDGE_FROM_STEP @3 215 #
point $-1 -1 $-1 30.45606683167660478 41.64999985454750231 33.25 #
DXID-attrib $-1 -1 $-1 $298 $220 @18 ASM_FACE_FROM_STEP @15 step-1M-238-318 #
DXID-attrib $-1 -1 $-1 $300 $224 @18 ASM_EDGE_FROM_STEP @3 208 #
coedge $-1 -1 $-1 $386 $309 $305 $362 forward $122 $-1 #
edge $396 -1 $-1 $312 -3.725000000000000533 $364 0.7999999999999998224 $361 $397 forward @7 unknown #
color-adesk-attrib $-1 -1 $398 $-1 $306 7 #
vertex $-1 -1 $-1 $362 $399 #
straight-curve $-1 -1 $-1 30.45606683167660478 31.64999985454300457 31.25 10 0 0 F 0 F 0.1999999999999997335 #
color-adesk-attrib $-1 -1 $400 $-1 $310 7 #
ellipse-curve $-1 -1 $-1 30.45606683167660478 33.64999985454299747 -14.00000000000000178 1 -4.284553666988739942e-16 0 -6.059273904570857729e-16 -1.414213562373096256 -1.414213562373094257 1 F -0.7853981633974476129 F 0.7853981633974489451 #
DXID-attrib $-1 -1 $-1 $311 $237 @18 ASM_EDGE_FROM_STEP @3 213 #
point $-1 -1 $-1 30.45606683167660478 31.64999985454300457 -14.00000000000000178 #
DXID-attrib $-1 -1 $-1 $314 $241 @18 ASM_EDGE_FROM_STEP @3 202 #
DXID-attrib $-1 -1 $-1 $321 $256 @18 ASM_EDGE_FROM_STEP @3 198 #
coedge $-1 -1 $-1 $372 $372 $327 $373 reversed $325 $-1 #
edge $401 -1 $-1 $375 -3.141592653589793116 $375 3.141592653589793116 $372 $402 forward @7 unknown #
color-adesk-attrib $-1 -1 $403 $-1 $328 7 #
vertex $-1 -1 $-1 $373 $404 #
straight-curve $-1 -1 $-1 30.45606683167660478 37.64999985454520015 -10 -2 0 0 F -0.9999999999999986677 F 0 #
color-adesk-attrib $-1 -1 $405 $-1 $329 7 #
cone-surface $-1 -1 $-1 30.45606683167660478 37.64999985454520015 -12.00000000000000178 1 0 0 0 0 -2 1 I I 0 1 2 forward I I I I #
color-adesk-attrib $-1 -1 $406 $-1 $332 7 #
ellipse-curve $-1 -1 $-1 30.45606683167660478 37.64999985454520015 29.25000000000000355 -1 4.284553666988739942e-16 0 0 0 -2 1 I I #
DXID-attrib $-1 -1 $-1 $333 $272 @18 ASM_EDGE_FROM_STEP @3 219 #
point $-1 -1 $-1 30.45606683167660478 37.64999985454520015 31.25 #
DXID-attrib $-1 -1 $-1 $336 $273 @18 ASM_FACE_FROM_STEP @15 step-1M-238-322 #
DXID-attrib $-1 -1 $-1 $338 $276 @18 ASM_EDGE_FROM_STEP @3 209 #
DXID-attrib $-1 -1 $-1 $343 $281 @18 ASM_FACE_FROM_STEP @15 step-1M-238-324 #
coedge $-1 -1 $-1 $348 $361 $345 $387 reversed $122 $-1 #
edge $407 -1 $-1 $351 -0.785398163397448279 $364 0.785398163397448279 $386 $408 forward @7 unknown #
color-adesk-attrib $-1 -1 $409 $-1 $346 7 #
cone-surface $-1 -1 $-1 30.45606683167660478 33.64999985454299747 31.25 1 0 0 0 -1.414213562373095368 1.414213562373095368 1 I I 0 1 2.000000000000000444 forward I I I I #
color-adesk-attrib $-1 -1 $410 $-1 $349 7 #
straight-curve $-1 -1 $-1 30.45606683167660478 31.64999985454300457 33.25 4.284553666988740337e-15 10 0 F 0.1999999999999997335 F 1.000000000000450306 #
DXID-attrib $-1 -1 $-1 $350 $289 @18 ASM_EDGE_FROM_STEP @3 216 #
point $-1 -1 $-1 30.45606683167660478 33.64999985454299747 33.25 #
DXID-attrib $-1 -1 $-1 $353 $290 @18 ASM_FACE_FROM_STEP @15 step-1M-238-319 #
DXID-attrib $-1 -1 $-1 $355 $294 @18 ASM_EDGE_FROM_STEP @3 207 #
color-adesk-attrib $-1 -1 $411 $-1 $362 7 #
straight-curve $-1 -1 $-1 30.45606683167660478 31.64999985454300457 23.25 0 0 10 F -3.725000000000000533 F 0.7999999999999998224 #
DXID-attrib $-1 -1 $-1 $363 $306 @18 ASM_EDGE_FROM_STEP @3 217 #
point $-1 -1 $-1 30.45606683167660478 31.64999985454300457 31.25 #
DXID-attrib $-1 -1 $-1 $366 $310 @18 ASM_EDGE_FROM_STEP @3 203 #
color-adesk-attrib $-1 -1 $412 $-1 $373 7 #
ellipse-curve $-1 -1 $-1 30.45606683167660478 37.64999985454520015 -12.00000000000000178 -1 4.284553666988739942e-16 0 0 0 -2 1 I I #
DXID-attrib $-1 -1 $-1 $374 $328 @18 ASM_EDGE_FROM_STEP @3 218 #
point $-1 -1 $-1 30.45606683167660478 37.64999985454520015 -10 #
DXID-attrib $-1 -1 $-1 $377 $329 @18 ASM_FACE_FROM_STEP @15 step-1M-238-321 #
DXID-attrib $-1 -1 $-1 $379 $332 @18 ASM_EDGE_FROM_STEP @3 210 #
color-adesk-attrib $-1 -1 $413 $-1 $387 7 #
ellipse-curve $-1 -1 $-1 30.45606683167660478 33.64999985454299747 31.25 1 -4.284553666988739942e-16 0 -6.059273904570853785e-16 -1.414213562373095368 1.414213562373095368 1 F -0.785398163397448279 F 0.785398163397448279 #
DXID-attrib $-1 -1 $-1 $388 $346 @18 ASM_FACE_FROM_STEP @15 step-1M-238-320 #
DXID-attrib $-1 -1 $-1 $390 $349 @18 ASM_EDGE_FROM_STEP @3 206 #
DXID-attrib $-1 -1 $-1 $396 $362 @18 ASM_EDGE_FROM_STEP @3 204 #
DXID-attrib $-1 -1 $-1 $401 $373 @18 ASM_EDGE_FROM_STEP @3 211 #
DXID-attrib $-1 -1 $-1 $407 $387 @18 ASM_EDGE_FROM_STEP @3 205 #
