700 346 1 0         
5 ZWCAD 12 ACIS 28.0 NT 24 Sat May 11 13:50:16 2024 
1 9.9999999999999995e-07 1e-10 
body $1 -1 $-1 $2 $-1 $-1 #
DXID-attrib $-1 -1 $-1 $-1 $0 @18 ASM_BODY_FROM_STEP @83 E03F7AA96061EB16638792DB28E4FE14978AA19A|:|AE1696F70ADD2F7DEA5278A2C8F2D38A85AC4850 #
lump $-1 -1 $-1 $-1 $3 $0 #
shell $-1 -1 $-1 $-1 $-1 $4 $-1 $2 #
face $5 -1 $-1 $6 $7 $3 $-1 $8 reversed single #
truecolor-adesk-attrib $-1 -1 $9 $-1 $4 -1027161668 #
face $10 -1 $-1 $11 $12 $3 $-1 $13 reversed single #
loop $-1 -1 $-1 $-1 $14 $4 #
cone-surface $-1 -1 $-1 111.3341820406749 -114.21087115149501 35.233987449476658 -5.7824115865893557e-16 -1 1.8369701987210294e-16 -12.5 7.2280144832366952e-15 -1.5308084989341917e-15 1 I I 0 1 12.5 forward I I I I #
DXID-attrib $-1 -1 $-1 $5 $4 @18 ASM_FACE_FROM_STEP @16 step-1M-562-4964 #
truecolor-adesk-attrib $-1 -1 $15 $-1 $6 -1027161668 #
face $16 -1 $-1 $17 $18 $3 $-1 $19 reversed single #
loop $-1 -1 $-1 $-1 $20 $6 #
cone-surface $-1 -1 $-1 111.33418204067468 -114.21087115149501 0.23398744947667183 -5.7824115865893557e-16 -1 1.8369701987210294e-16 -12.5 7.2280144832366952e-15 -1.5308084989341917e-15 1 I I 0 1 12.5 forward I I I I #
coedge $-1 -1 $-1 $21 $22 $23 $24 forward $7 $-1 #
DXID-attrib $-1 -1 $-1 $10 $6 @18 ASM_FACE_FROM_STEP @15 step-1M-562-659 #
truecolor-adesk-attrib $-1 -1 $25 $-1 $11 -1027161668 #
face $26 -1 $-1 $27 $28 $3 $-1 $29 reversed single #
loop $-1 -1 $-1 $-1 $30 $11 #
cone-surface $-1 -1 $-1 111.33418204067442 -114.21087115149503 -34.766012550523335 -5.7824115865893557e-16 -1 1.8369701987210294e-16 -12.500000000000004 7.2280144832366968e-15 -1.5308084989341923e-15 1 I I 0 1 12.500000000000004 forward I I I I #
coedge $-1 -1 $-1 $31 $32 $33 $34 forward $12 $-1 #
coedge $-1 -1 $-1 $35 $14 $36 $37 forward $7 $-1 #
coedge $-1 -1 $-1 $14 $35 $38 $39 reversed $7 $-1 #
coedge $-1 -1 $-1 $40 $40 $14 $24 reversed $41 $-1 #
edge $42 -1 $-1 $43 -3.1415926535897931 $44 0 $14 $45 forward @7 unknown #
DXID-attrib $-1 -1 $-1 $16 $11 @18 ASM_FACE_FROM_STEP @16 step-1M-562-1615 #
truecolor-adesk-attrib $-1 -1 $46 $-1 $17 -1027161668 #
face $47 -1 $-1 $48 $49 $3 $-1 $50 forward single #
loop $-1 -1 $-1 $-1 $51 $17 #
cone-surface $-1 -1 $-1 111.33418204067419 -114.21087115149503 -69.766012550523342 -5.7824115865893557e-16 -1 1.8369701987210294e-16 -12.5 7.2280144832366952e-15 -1.5308084989341917e-15 1 I I 0 1 12.5 forward I I I I #
coedge $-1 -1 $-1 $52 $53 $54 $55 forward $18 $-1 #
coedge $-1 -1 $-1 $56 $20 $57 $58 forward $12 $-1 #
coedge $-1 -1 $-1 $20 $56 $59 $60 reversed $12 $-1 #
coedge $-1 -1 $-1 $61 $61 $20 $34 reversed $62 $-1 #
edge $63 -1 $-1 $64 -3.1415926535897931 $65 0 $20 $66 forward @7 unknown #
coedge $-1 -1 $-1 $22 $21 $67 $68 reversed $7 $-1 #
coedge $-1 -1 $-1 $69 $70 $21 $37 reversed $71 $-1 #
edge $72 -1 $-1 $44 0 $73 0.002 $21 $74 forward @7 unknown #
coedge $-1 -1 $-1 $70 $69 $22 $39 forward $71 $-1 #
edge $75 -1 $-1 $43 0 $76 0.002 $22 $77 forward @7 unknown #
coedge $-1 -1 $-1 $23 $23 $69 $78 reversed $41 $-1 #
loop $-1 -1 $-1 $62 $23 $27 #
truecolor-adesk-attrib $-1 -1 $79 $-1 $24 -1027161668 #
vertex $-1 -1 $-1 $24 $80 #
vertex $-1 -1 $-1 $24 $81 #
ellipse-curve $-1 -1 $-1 111.3341820406749 -114.21087115149501 35.233987449476658 5.7824115865893557e-16 1 -1.8369701987210294e-16 12.500000000000002 -7.2280144832366952e-15 1.5308084989341921e-15 1 F -3.1415926535897931 F 0 #
DXID-attrib $-1 -1 $-1 $26 $17 @18 ASM_FACE_FROM_STEP @16 step-1M-562-1367 #
truecolor-adesk-attrib $-1 -1 $82 $-1 $27 -1027161668 #
face $83 -1 $-1 $84 $85 $3 $-1 $86 reversed single #
loop $-1 -1 $-1 $87 $88 $27 #
plane-surface $-1 -1 $-1 128.83418204067419 -114.21087115149504 -89.766012550523342 5.7824115865893557e-16 1 -1.8369701987210294e-16 1 -5.7824115865893557e-16 1.2246467991473535e-16 forward_v I I I I #
coedge $-1 -1 $-1 $89 $90 $91 $92 forward $28 $-1 #
coedge $-1 -1 $-1 $93 $30 $94 $95 forward $18 $-1 #
coedge $-1 -1 $-1 $30 $93 $96 $97 reversed $18 $-1 #
coedge $-1 -1 $-1 $98 $98 $30 $55 reversed $87 $-1 #
edge $99 -1 $-1 $100 -3.1415926535897931 $101 0 $30 $102 forward @7 unknown #
coedge $-1 -1 $-1 $32 $31 $103 $104 reversed $12 $-1 #
coedge $-1 -1 $-1 $105 $106 $31 $58 reversed $107 $-1 #
edge $108 -1 $-1 $65 0 $109 0.002 $31 $110 forward @7 unknown #
coedge $-1 -1 $-1 $106 $105 $32 $60 forward $107 $-1 #
edge $111 -1 $-1 $64 0 $112 0.002 $32 $113 forward @7 unknown #
coedge $-1 -1 $-1 $33 $33 $105 $114 reversed $62 $-1 #
loop $-1 -1 $-1 $115 $33 $27 #
truecolor-adesk-attrib $-1 -1 $116 $-1 $34 -1027161668 #
vertex $-1 -1 $-1 $34 $117 #
vertex $-1 -1 $-1 $34 $118 #
ellipse-curve $-1 -1 $-1 111.33418204067468 -114.21087115149501 0.23398744947667183 5.7824115865893557e-16 1 -1.8369701987210294e-16 12.500000000000002 -7.2280144832366952e-15 1.5308084989341921e-15 1 F -3.1415926535897931 F 0 #
coedge $-1 -1 $-1 $119 $119 $35 $68 forward $120 $-1 #
edge $121 -1 $-1 $76 -3.1415926535897931 $73 0 $35 $122 forward @7 unknown #
coedge $-1 -1 $-1 $38 $36 $40 $78 forward $71 $-1 #
coedge $-1 -1 $-1 $36 $38 $119 $123 reversed $71 $-1 #
loop $-1 -1 $-1 $-1 $36 $124 #
truecolor-adesk-attrib $-1 -1 $125 $-1 $37 -1027161668 #
vertex $-1 -1 $-1 $37 $126 #
straight-curve $-1 -1 $-1 123.83418204067492 -114.21087115149501 35.233987449476658 -5.7824115865893556e-13 -1000 1.8369701987210295e-13 F 0 F 0.002 #
truecolor-adesk-attrib $-1 -1 $127 $-1 $39 -1027161668 #
vertex $-1 -1 $-1 $68 $128 #
straight-curve $-1 -1 $-1 98.834182040674904 -114.210871151495 35.233987449476658 -5.7824115865893556e-13 -1000 1.8369701987210295e-13 F 0 F 0.002 #
edge $129 -1 $-1 $44 0 $43 3.1415926535897931 $40 $130 forward @7 unknown #
DXID-attrib $-1 -1 $-1 $42 $24 @18 ASM_EDGE_FROM_STEP @4 5277 #
point $-1 -1 $-1 98.834182040674904 -114.210871151495 35.233987449476658 #
point $-1 -1 $-1 123.83418204067492 -114.21087115149501 35.233987449476658 #
DXID-attrib $-1 -1 $-1 $47 $27 @18 ASM_FACE_FROM_STEP @16 step-1M-562-5236 #
truecolor-adesk-attrib $-1 -1 $131 $-1 $48 -1027161668 #
face $132 -1 $-1 $133 $134 $3 $-1 $135 reversed single #
loop $-1 -1 $-1 $136 $137 $48 #
plane-surface $-1 -1 $-1 128.83418204067419 -116.21087115149504 -89.766012550523342 5.7824115865893557e-16 1 -1.8369701987210294e-16 1 -5.7824115865893557e-16 1.2246467991473535e-16 forward_v I I I I #
loop $-1 -1 $-1 $41 $54 $27 #
coedge $-1 -1 $-1 $138 $139 $140 $141 forward $49 $-1 #
coedge $-1 -1 $-1 $142 $51 $143 $144 forward $28 $-1 #
coedge $-1 -1 $-1 $51 $142 $145 $146 reversed $28 $-1 #
coedge $-1 -1 $-1 $147 $147 $51 $92 reversed $115 $-1 #
edge $148 -1 $-1 $149 -3.1415926535897931 $150 0 $51 $151 forward @7 unknown #
coedge $-1 -1 $-1 $53 $52 $152 $153 reversed $18 $-1 #
coedge $-1 -1 $-1 $154 $155 $52 $95 reversed $156 $-1 #
edge $157 -1 $-1 $101 0 $158 0.002 $52 $159 forward @7 unknown #
coedge $-1 -1 $-1 $155 $154 $53 $97 forward $156 $-1 #
edge $160 -1 $-1 $100 0 $161 0.002 $53 $162 forward @7 unknown #
coedge $-1 -1 $-1 $54 $54 $154 $163 reversed $87 $-1 #
truecolor-adesk-attrib $-1 -1 $164 $-1 $55 -1027161668 #
vertex $-1 -1 $-1 $55 $165 #
vertex $-1 -1 $-1 $55 $166 #
ellipse-curve $-1 -1 $-1 111.33418204067442 -114.21087115149503 -34.766012550523335 5.7824115865893557e-16 1 -1.8369701987210294e-16 12.500000000000004 -7.2280144832366968e-15 1.5308084989341923e-15 1 F -3.1415926535897931 F 0 #
coedge $-1 -1 $-1 $167 $167 $56 $104 forward $168 $-1 #
edge $169 -1 $-1 $112 -3.1415926535897931 $109 0 $56 $170 forward @7 unknown #
coedge $-1 -1 $-1 $59 $57 $61 $114 forward $107 $-1 #
coedge $-1 -1 $-1 $57 $59 $167 $171 reversed $107 $-1 #
loop $-1 -1 $-1 $-1 $57 $172 #
truecolor-adesk-attrib $-1 -1 $173 $-1 $58 -1027161668 #
vertex $-1 -1 $-1 $58 $174 #
straight-curve $-1 -1 $-1 123.83418204067468 -114.21087115149503 0.23398744947667183 -5.7824115865893556e-13 -1000 1.8369701987210295e-13 F 0 F 0.002 #
truecolor-adesk-attrib $-1 -1 $175 $-1 $60 -1027161668 #
vertex $-1 -1 $-1 $104 $176 #
straight-curve $-1 -1 $-1 98.834182040674662 -114.21087115149501 0.23398744947667183 -5.7824115865893556e-13 -1000 1.8369701987210295e-13 F 0 F 0.002 #
edge $177 -1 $-1 $65 0 $64 3.1415926535897931 $61 $178 forward @7 unknown #
loop $-1 -1 $-1 $-1 $91 $27 #
DXID-attrib $-1 -1 $-1 $63 $34 @18 ASM_EDGE_FROM_STEP @4 1011 #
point $-1 -1 $-1 98.834182040674662 -114.21087115149501 0.23398744947667183 #
point $-1 -1 $-1 123.83418204067468 -114.21087115149503 0.23398744947667183 #
coedge $-1 -1 $-1 $67 $67 $70 $123 forward $120 $-1 #
loop $-1 -1 $-1 $-1 $67 $48 #
truecolor-adesk-attrib $-1 -1 $179 $-1 $68 -1027161668 #
ellipse-curve $-1 -1 $-1 111.3341820406749 -116.21087115149501 35.233987449476658 5.7824115865893557e-16 1 -1.8369701987210294e-16 12.500000000000002 -7.2280144832366952e-15 1.5308084989341921e-15 1 F -3.1415926535897931 F 0 #
edge $180 -1 $-1 $73 0 $76 3.1415926535897931 $119 $181 forward @7 unknown #
face $182 -1 $-1 $-1 $71 $3 $-1 $183 reversed single #
DXID-attrib $-1 -1 $-1 $72 $37 @18 ASM_EDGE_FROM_STEP @2 21 #
point $-1 -1 $-1 123.8341820406749 -116.21087115149501 35.233987449476658 #
DXID-attrib $-1 -1 $-1 $75 $39 @18 ASM_EDGE_FROM_STEP @4 5755 #
point $-1 -1 $-1 98.834182040674904 -116.210871151495 35.233987449476658 #
truecolor-adesk-attrib $-1 -1 $184 $-1 $78 -1027161668 #
ellipse-curve $-1 -1 $-1 111.3341820406749 -114.21087115149501 35.233987449476658 5.7824115865893557e-16 1 -1.8369701987210294e-16 12.500000000000002 -7.2280144832366952e-15 1.5308084989341921e-15 1 F 0 F 3.1415926535897931 #
DXID-attrib $-1 -1 $-1 $83 $48 @18 ASM_FACE_FROM_STEP @16 step-1M-562-3326 #
truecolor-adesk-attrib $-1 -1 $185 $-1 $84 -1027161668 #
face $186 -1 $-1 $187 $188 $3 $-1 $189 reversed single #
loop $-1 -1 $-1 $-1 $190 $84 #
plane-surface $-1 -1 $-1 128.83418204067419 -114.21087115149504 -89.766012550523342 -1.2246467991473525e-16 1.8369701987210302e-16 1 1 -5.7824115865893557e-16 1.2246467991473535e-16 forward_v I I I I #
loop $-1 -1 $-1 $191 $192 $48 #
coedge $-1 -1 $-1 $193 $194 $190 $195 reversed $85 $-1 #
coedge $-1 -1 $-1 $196 $88 $197 $198 forward $49 $-1 #
coedge $-1 -1 $-1 $88 $196 $199 $200 forward $49 $-1 #
coedge $-1 -1 $-1 $201 $202 $88 $141 reversed $134 $-1 #
edge $203 -1 $-1 $204 0 $205 0.035000000000000003 $88 $206 forward @7 unknown #
coedge $-1 -1 $-1 $90 $89 $192 $207 reversed $28 $-1 #
coedge $-1 -1 $-1 $208 $209 $89 $144 reversed $210 $-1 #
edge $211 -1 $-1 $150 0 $212 0.002 $89 $213 forward @7 unknown #
coedge $-1 -1 $-1 $209 $208 $90 $146 forward $210 $-1 #
edge $214 -1 $-1 $149 0 $215 0.002 $90 $216 forward @7 unknown #
coedge $-1 -1 $-1 $91 $91 $208 $217 reversed $115 $-1 #
truecolor-adesk-attrib $-1 -1 $218 $-1 $92 -1027161668 #
vertex $-1 -1 $-1 $92 $219 #
vertex $-1 -1 $-1 $92 $220 #
ellipse-curve $-1 -1 $-1 111.33418204067419 -114.21087115149503 -69.766012550523342 5.7824115865893557e-16 1 -1.8369701987210294e-16 12.5 -7.2280144832366952e-15 1.5308084989341917e-15 1 F -3.1415926535897931 F 0 #
coedge $-1 -1 $-1 $221 $221 $93 $153 forward $191 $-1 #
edge $222 -1 $-1 $161 -3.1415926535897931 $158 0 $93 $223 forward @7 unknown #
coedge $-1 -1 $-1 $96 $94 $98 $163 forward $156 $-1 #
coedge $-1 -1 $-1 $94 $96 $221 $224 reversed $156 $-1 #
loop $-1 -1 $-1 $-1 $94 $225 #
truecolor-adesk-attrib $-1 -1 $226 $-1 $95 -1027161668 #
vertex $-1 -1 $-1 $95 $227 #
straight-curve $-1 -1 $-1 123.83418204067443 -114.21087115149503 -34.766012550523335 -5.7824115865893556e-13 -1000 1.8369701987210295e-13 F 0 F 0.002 #
truecolor-adesk-attrib $-1 -1 $228 $-1 $97 -1027161668 #
vertex $-1 -1 $-1 $153 $229 #
straight-curve $-1 -1 $-1 98.83418204067442 -114.21087115149501 -34.766012550523342 -5.7824115865893556e-13 -1000 1.8369701987210295e-13 F 0 F 0.002 #
edge $230 -1 $-1 $101 0 $100 3.1415926535897931 $98 $231 forward @7 unknown #
DXID-attrib $-1 -1 $-1 $99 $55 @18 ASM_EDGE_FROM_STEP @4 1088 #
point $-1 -1 $-1 98.83418204067442 -114.21087115149501 -34.766012550523342 #
point $-1 -1 $-1 123.83418204067443 -114.21087115149503 -34.766012550523335 #
coedge $-1 -1 $-1 $103 $103 $106 $171 forward $168 $-1 #
loop $-1 -1 $-1 $120 $103 $48 #
truecolor-adesk-attrib $-1 -1 $232 $-1 $104 -1027161668 #
ellipse-curve $-1 -1 $-1 111.33418204067468 -116.21087115149501 0.23398744947667183 5.7824115865893557e-16 1 -1.8369701987210294e-16 12.500000000000002 -7.2280144832366952e-15 1.5308084989341921e-15 1 F -3.1415926535897931 F 0 #
edge $233 -1 $-1 $109 0 $112 3.1415926535897931 $167 $234 forward @7 unknown #
face $235 -1 $-1 $124 $107 $3 $-1 $236 reversed single #
DXID-attrib $-1 -1 $-1 $108 $58 @18 ASM_EDGE_FROM_STEP @4 4174 #
point $-1 -1 $-1 123.83418204067468 -116.21087115149503 0.23398744947667183 #
DXID-attrib $-1 -1 $-1 $111 $60 @18 ASM_EDGE_FROM_STEP @4 2059 #
point $-1 -1 $-1 98.834182040674662 -116.21087115149501 0.23398744947667183 #
truecolor-adesk-attrib $-1 -1 $237 $-1 $114 -1027161668 #
ellipse-curve $-1 -1 $-1 111.33418204067468 -114.21087115149501 0.23398744947667183 5.7824115865893557e-16 1 -1.8369701987210294e-16 12.500000000000002 -7.2280144832366952e-15 1.5308084989341921e-15 1 F 0 F 3.1415926535897931 #
DXID-attrib $-1 -1 $-1 $121 $68 @18 ASM_EDGE_FROM_STEP @4 1514 #
truecolor-adesk-attrib $-1 -1 $238 $-1 $123 -1027161668 #
ellipse-curve $-1 -1 $-1 111.3341820406749 -116.21087115149501 35.233987449476658 5.7824115865893557e-16 1 -1.8369701987210294e-16 12.500000000000002 -7.2280144832366952e-15 1.5308084989341921e-15 1 F 0 F 3.1415926535897931 #
truecolor-adesk-attrib $-1 -1 $239 $-1 $124 -1027161668 #
cone-surface $-1 -1 $-1 111.3341820406749 -114.21087115149501 35.233987449476658 -5.7824115865893557e-16 -1 1.8369701987210294e-16 -12.5 7.2280144832366952e-15 -1.5308084989341917e-15 1 I I 0 1 12.5 forward I I I I #
DXID-attrib $-1 -1 $-1 $129 $78 @18 ASM_EDGE_FROM_STEP @4 3190 #
DXID-attrib $-1 -1 $-1 $132 $84 @18 ASM_FACE_FROM_STEP @16 step-1M-562-7160 #
truecolor-adesk-attrib $-1 -1 $240 $-1 $133 -1027161668 #
face $241 -1 $-1 $242 $243 $3 $-1 $244 reversed single #
loop $-1 -1 $-1 $-1 $245 $133 #
plane-surface $-1 -1 $-1 93.834182040674193 -114.21087115149503 -89.766012550523342 1 -5.7824115865893557e-16 1.0340365963588488e-18 1.0340365963587502e-18 -1.8369701987210294e-16 -1 forward_v I I I I #
coedge $-1 -1 $-1 $202 $201 $137 $195 forward $134 $-1 #
loop $-1 -1 $-1 $168 $152 $48 #
coedge $-1 -1 $-1 $246 $246 $142 $207 forward $136 $-1 #
coedge $-1 -1 $-1 $247 $137 $248 $249 reversed $85 $-1 #
coedge $-1 -1 $-1 $137 $247 $245 $250 reversed $85 $-1 #
edge $251 -1 $-1 $252 0 $253 0.035000000000000003 $137 $254 forward @7 unknown #
coedge $-1 -1 $-1 $139 $138 $255 $256 forward $49 $-1 #
coedge $-1 -1 $-1 $257 $258 $138 $198 reversed $188 $-1 #
edge $259 -1 $-1 $205 0 $260 0.40000000000000002 $138 $261 forward @7 unknown #
coedge $-1 -1 $-1 $262 $263 $139 $200 reversed $264 $-1 #
edge $265 -1 $-1 $266 -0.40000000000000002 $204 0 $139 $267 forward @7 unknown #
coedge $-1 -1 $-1 $190 $140 $263 $268 forward $134 $-1 #
coedge $-1 -1 $-1 $140 $190 $257 $269 reversed $134 $-1 #
truecolor-adesk-attrib $-1 -1 $270 $-1 $141 -1027161668 #
vertex $-1 -1 $-1 $141 $271 #
vertex $-1 -1 $-1 $141 $272 #
straight-curve $-1 -1 $-1 128.83418204067419 -114.21087115149504 -89.766012550523342 -1000 5.7824115865893556e-13 -1.2246467991473535e-13 F 0 F 0.035000000000000003 #
edge $273 -1 $-1 $215 -3.1415926535897931 $212 0 $142 $274 forward @7 unknown #
coedge $-1 -1 $-1 $145 $143 $147 $217 forward $210 $-1 #
coedge $-1 -1 $-1 $143 $145 $246 $275 reversed $210 $-1 #
loop $-1 -1 $-1 $-1 $143 $276 #
truecolor-adesk-attrib $-1 -1 $277 $-1 $144 -1027161668 #
vertex $-1 -1 $-1 $144 $278 #
straight-curve $-1 -1 $-1 123.83418204067419 -114.21087115149504 -69.766012550523342 -5.7824115865893556e-13 -1000 1.8369701987210295e-13 F 0 F 0.002 #
truecolor-adesk-attrib $-1 -1 $279 $-1 $146 -1027161668 #
vertex $-1 -1 $-1 $207 $280 #
straight-curve $-1 -1 $-1 98.834182040674193 -114.21087115149503 -69.766012550523342 -5.7824115865893556e-13 -1000 1.8369701987210295e-13 F 0 F 0.002 #
edge $281 -1 $-1 $150 0 $149 3.1415926535897931 $147 $282 forward @7 unknown #
DXID-attrib $-1 -1 $-1 $148 $92 @18 ASM_EDGE_FROM_STEP @3 678 #
point $-1 -1 $-1 98.834182040674193 -114.21087115149503 -69.766012550523342 #
point $-1 -1 $-1 123.83418204067419 -114.21087115149504 -69.766012550523342 #
coedge $-1 -1 $-1 $152 $152 $155 $224 forward $191 $-1 #
truecolor-adesk-attrib $-1 -1 $283 $-1 $153 -1027161668 #
ellipse-curve $-1 -1 $-1 111.33418204067442 -116.21087115149503 -34.766012550523335 5.7824115865893557e-16 1 -1.8369701987210294e-16 12.500000000000004 -7.2280144832366968e-15 1.5308084989341923e-15 1 F -3.1415926535897931 F 0 #
edge $284 -1 $-1 $158 0 $161 3.1415926535897931 $221 $285 forward @7 unknown #
face $286 -1 $-1 $172 $156 $3 $-1 $287 reversed single #
DXID-attrib $-1 -1 $-1 $157 $95 @18 ASM_EDGE_FROM_STEP @4 2769 #
point $-1 -1 $-1 123.83418204067443 -116.21087115149503 -34.766012550523335 #
DXID-attrib $-1 -1 $-1 $160 $97 @18 ASM_EDGE_FROM_STEP @4 5840 #
point $-1 -1 $-1 98.83418204067442 -116.21087115149501 -34.766012550523342 #
truecolor-adesk-attrib $-1 -1 $288 $-1 $163 -1027161668 #
ellipse-curve $-1 -1 $-1 111.33418204067442 -114.21087115149503 -34.766012550523335 5.7824115865893557e-16 1 -1.8369701987210294e-16 12.500000000000004 -7.2280144832366968e-15 1.5308084989341923e-15 1 F 0 F 3.1415926535897931 #
DXID-attrib $-1 -1 $-1 $169 $104 @18 ASM_EDGE_FROM_STEP @4 2857 #
truecolor-adesk-attrib $-1 -1 $289 $-1 $171 -1027161668 #
ellipse-curve $-1 -1 $-1 111.33418204067468 -116.21087115149501 0.23398744947667183 5.7824115865893557e-16 1 -1.8369701987210294e-16 12.500000000000002 -7.2280144832366952e-15 1.5308084989341921e-15 1 F 0 F 3.1415926535897931 #
truecolor-adesk-attrib $-1 -1 $290 $-1 $172 -1027161668 #
cone-surface $-1 -1 $-1 111.33418204067468 -114.21087115149501 0.23398744947667183 -5.7824115865893557e-16 -1 1.8369701987210294e-16 -12.5 7.2280144832366952e-15 -1.5308084989341917e-15 1 I I 0 1 12.5 forward I I I I #
DXID-attrib $-1 -1 $-1 $177 $114 @18 ASM_EDGE_FROM_STEP @3 247 #
DXID-attrib $-1 -1 $-1 $180 $123 @18 ASM_EDGE_FROM_STEP @4 6522 #
DXID-attrib $-1 -1 $-1 $182 $124 @18 ASM_FACE_FROM_STEP @16 step-1M-562-7092 #
DXID-attrib $-1 -1 $-1 $186 $133 @18 ASM_FACE_FROM_STEP @16 step-1M-562-3980 #
truecolor-adesk-attrib $-1 -1 $291 $-1 $187 -1027161668 #
face $292 -1 $-1 $276 $264 $3 $-1 $293 reversed single #
loop $-1 -1 $-1 $-1 $294 $187 #
plane-surface $-1 -1 $-1 128.83418204067419 -114.21087115149497 310.23398744947667 1.2246467991473525e-16 -1.8369701987210302e-16 -1 -1 5.7824115865893557e-16 -1.2246467991473535e-16 forward_v I I I I #
coedge $-1 -1 $-1 $258 $257 $194 $250 forward $188 $-1 #
coedge $-1 -1 $-1 $192 $192 $209 $275 forward $136 $-1 #
coedge $-1 -1 $-1 $194 $193 $294 $295 reversed $85 $-1 #
coedge $-1 -1 $-1 $263 $262 $193 $249 forward $264 $-1 #
edge $296 -1 $-1 $297 -0.40000000000000002 $252 0 $193 $298 forward @7 unknown #
edge $299 -1 $-1 $253 0 $300 0.40000000000000002 $194 $301 forward @7 unknown #
truecolor-adesk-attrib $-1 -1 $302 $-1 $195 -1027161668 #
vertex $-1 -1 $-1 $195 $303 #
vertex $-1 -1 $-1 $195 $304 #
straight-curve $-1 -1 $-1 128.83418204067419 -116.21087115149504 -89.766012550523342 -1000 5.7824115865893556e-13 -1.2246467991473535e-13 F 0 F 0.035000000000000003 #
coedge $-1 -1 $-1 $305 $306 $196 $256 reversed $243 $-1 #
edge $307 -1 $-1 $260 -0.03500000000000001 $266 0 $196 $308 forward @7 unknown #
coedge $-1 -1 $-1 $245 $197 $202 $269 forward $188 $-1 #
coedge $-1 -1 $-1 $197 $245 $305 $309 reversed $188 $-1 #
truecolor-adesk-attrib $-1 -1 $310 $-1 $198 -1027161668 #
vertex $-1 -1 $-1 $198 $311 #
straight-curve $-1 -1 $-1 93.834182040674193 -114.21087115149503 -89.766012550523342 -1.0340365963587525e-15 1.8369701987210295e-13 1000 F 0 F 0.40000000000000002 #
coedge $-1 -1 $-1 $248 $199 $306 $312 forward $264 $-1 #
coedge $-1 -1 $-1 $199 $248 $201 $268 reversed $264 $-1 #
loop $-1 -1 $-1 $-1 $248 $242 #
truecolor-adesk-attrib $-1 -1 $313 $-1 $200 -1027161668 #
vertex $-1 -1 $-1 $256 $314 #
straight-curve $-1 -1 $-1 128.83418204067419 -114.21087115149504 -89.766012550523342 -5.0487097934144756e-29 -1.8369701987210295e-13 -1000 F -0.40000000000000002 F 0 #
edge $315 -1 $-1 $204 0 $252 0.002 $201 $316 forward @7 unknown #
edge $317 -1 $-1 $205 0 $253 0.002 $202 $318 forward @7 unknown #
DXID-attrib $-1 -1 $-1 $203 $141 @18 ASM_EDGE_FROM_STEP @4 1362 #
point $-1 -1 $-1 128.83418204067419 -114.21087115149504 -89.766012550523342 #
point $-1 -1 $-1 93.834182040674193 -114.21087115149503 -89.766012550523342 #
truecolor-adesk-attrib $-1 -1 $319 $-1 $207 -1027161668 #
ellipse-curve $-1 -1 $-1 111.33418204067419 -116.21087115149503 -69.766012550523342 5.7824115865893557e-16 1 -1.8369701987210294e-16 12.5 -7.2280144832366952e-15 1.5308084989341917e-15 1 F -3.1415926535897931 F 0 #
edge $320 -1 $-1 $212 0 $215 3.1415926535897931 $246 $321 forward @7 unknown #
face $322 -1 $-1 $225 $210 $3 $-1 $323 reversed single #
DXID-attrib $-1 -1 $-1 $211 $144 @18 ASM_EDGE_FROM_STEP @4 1098 #
point $-1 -1 $-1 123.83418204067419 -116.21087115149504 -69.766012550523342 #
DXID-attrib $-1 -1 $-1 $214 $146 @18 ASM_EDGE_FROM_STEP @4 4821 #
point $-1 -1 $-1 98.834182040674193 -116.21087115149503 -69.766012550523342 #
truecolor-adesk-attrib $-1 -1 $324 $-1 $217 -1027161668 #
ellipse-curve $-1 -1 $-1 111.33418204067419 -114.21087115149503 -69.766012550523342 5.7824115865893557e-16 1 -1.8369701987210294e-16 12.5 -7.2280144832366952e-15 1.5308084989341917e-15 1 F 0 F 3.1415926535897931 #
DXID-attrib $-1 -1 $-1 $222 $153 @18 ASM_EDGE_FROM_STEP @4 3368 #
truecolor-adesk-attrib $-1 -1 $325 $-1 $224 -1027161668 #
ellipse-curve $-1 -1 $-1 111.33418204067442 -116.21087115149503 -34.766012550523335 5.7824115865893557e-16 1 -1.8369701987210294e-16 12.500000000000004 -7.2280144832366968e-15 1.5308084989341923e-15 1 F 0 F 3.1415926535897931 #
truecolor-adesk-attrib $-1 -1 $326 $-1 $225 -1027161668 #
cone-surface $-1 -1 $-1 111.33418204067442 -114.21087115149503 -34.766012550523335 -5.7824115865893557e-16 -1 1.8369701987210294e-16 -12.500000000000004 7.2280144832366968e-15 -1.5308084989341923e-15 1 I I 0 1 12.500000000000004 forward I I I I #
DXID-attrib $-1 -1 $-1 $230 $163 @18 ASM_EDGE_FROM_STEP @3 997 #
DXID-attrib $-1 -1 $-1 $233 $171 @18 ASM_EDGE_FROM_STEP @4 4555 #
DXID-attrib $-1 -1 $-1 $235 $172 @18 ASM_FACE_FROM_STEP @15 step-1M-562-758 #
DXID-attrib $-1 -1 $-1 $241 $187 @18 ASM_FACE_FROM_STEP @16 step-1M-562-5197 #
truecolor-adesk-attrib $-1 -1 $327 $-1 $242 -1027161668 #
plane-surface $-1 -1 $-1 128.83418204067419 -114.21087115149504 -89.766012550523342 -1 5.7824115865893557e-16 -4.9303806576313238e-32 4.9303806576313238e-32 1.8369701987210294e-16 1 forward_v I I I I #
coedge $-1 -1 $-1 $306 $305 $247 $295 forward $243 $-1 #
edge $328 -1 $-1 $300 -0.03500000000000001 $297 0 $247 $329 forward @7 unknown #
truecolor-adesk-attrib $-1 -1 $330 $-1 $249 -1027161668 #
vertex $-1 -1 $-1 $249 $331 #
straight-curve $-1 -1 $-1 128.83418204067419 -116.21087115149504 -89.766012550523342 -5.0487097934144756e-29 -1.8369701987210295e-13 -1000 F -0.40000000000000002 F 0 #
truecolor-adesk-attrib $-1 -1 $332 $-1 $250 -1027161668 #
vertex $-1 -1 $-1 $295 $333 #
straight-curve $-1 -1 $-1 93.834182040674193 -116.21087115149503 -89.766012550523342 -1.0340365963587525e-15 1.8369701987210295e-13 1000 F 0 F 0.40000000000000002 #
DXID-attrib $-1 -1 $-1 $251 $195 @18 ASM_EDGE_FROM_STEP @4 3279 #
point $-1 -1 $-1 128.83418204067419 -116.21087115149504 -89.766012550523342 #
point $-1 -1 $-1 93.834182040674193 -116.21087115149503 -89.766012550523342 #
coedge $-1 -1 $-1 $294 $255 $258 $309 forward $243 $-1 #
coedge $-1 -1 $-1 $255 $294 $262 $312 reversed $243 $-1 #
truecolor-adesk-attrib $-1 -1 $334 $-1 $256 -1027161668 #
straight-curve $-1 -1 $-1 128.83418204067419 -114.21087115149497 310.23398744947667 1000 -5.7824115865893556e-13 1.2246467991473535e-13 F -0.03500000000000001 F 0 #
edge $335 -1 $-1 $260 0 $300 0.002 $258 $336 forward @7 unknown #
DXID-attrib $-1 -1 $-1 $259 $198 @18 ASM_EDGE_FROM_STEP @3 391 #
point $-1 -1 $-1 93.834182040674193 -114.21087115149494 310.23398744947667 #
edge $337 -1 $-1 $266 0 $297 0.002 $306 $338 forward @7 unknown #
DXID-attrib $-1 -1 $-1 $265 $200 @18 ASM_EDGE_FROM_STEP @4 1277 #
point $-1 -1 $-1 128.83418204067419 -114.21087115149497 310.23398744947667 #
truecolor-adesk-attrib $-1 -1 $339 $-1 $268 -1027161668 #
straight-curve $-1 -1 $-1 128.83418204067419 -114.21087115149504 -89.766012550523342 -5.7824115865893556e-13 -1000 1.8369701987210295e-13 F 0 F 0.002 #
truecolor-adesk-attrib $-1 -1 $340 $-1 $269 -1027161668 #
straight-curve $-1 -1 $-1 93.834182040674193 -114.21087115149503 -89.766012550523342 -5.7824115865893556e-13 -1000 1.8369701987210295e-13 F 0 F 0.002 #
DXID-attrib $-1 -1 $-1 $273 $207 @18 ASM_EDGE_FROM_STEP @4 1039 #
truecolor-adesk-attrib $-1 -1 $341 $-1 $275 -1027161668 #
ellipse-curve $-1 -1 $-1 111.33418204067419 -116.21087115149503 -69.766012550523342 5.7824115865893557e-16 1 -1.8369701987210294e-16 12.5 -7.2280144832366952e-15 1.5308084989341917e-15 1 F 0 F 3.1415926535897931 #
truecolor-adesk-attrib $-1 -1 $342 $-1 $276 -1027161668 #
cone-surface $-1 -1 $-1 111.33418204067419 -114.21087115149503 -69.766012550523342 -5.7824115865893557e-16 -1 1.8369701987210294e-16 -12.5 7.2280144832366952e-15 -1.5308084989341917e-15 1 I I 0 1 12.5 forward I I I I #
DXID-attrib $-1 -1 $-1 $281 $217 @18 ASM_EDGE_FROM_STEP @4 6437 #
DXID-attrib $-1 -1 $-1 $284 $224 @18 ASM_EDGE_FROM_STEP @4 4312 #
DXID-attrib $-1 -1 $-1 $286 $225 @18 ASM_FACE_FROM_STEP @16 step-1M-562-4668 #
DXID-attrib $-1 -1 $-1 $292 $242 @18 ASM_FACE_FROM_STEP @16 step-1M-562-1803 #
truecolor-adesk-attrib $-1 -1 $343 $-1 $295 -1027161668 #
straight-curve $-1 -1 $-1 128.83418204067419 -116.21087115149497 310.23398744947667 1000 -5.7824115865893556e-13 1.2246467991473535e-13 F -0.03500000000000001 F 0 #
DXID-attrib $-1 -1 $-1 $296 $249 @18 ASM_EDGE_FROM_STEP @4 6081 #
point $-1 -1 $-1 128.83418204067419 -116.21087115149497 310.23398744947667 #
DXID-attrib $-1 -1 $-1 $299 $250 @18 ASM_EDGE_FROM_STEP @4 3976 #
point $-1 -1 $-1 93.834182040674193 -116.21087115149494 310.23398744947667 #
DXID-attrib $-1 -1 $-1 $307 $256 @18 ASM_EDGE_FROM_STEP @4 5084 #
truecolor-adesk-attrib $-1 -1 $344 $-1 $309 -1027161668 #
straight-curve $-1 -1 $-1 93.834182040674193 -114.21087115149494 310.23398744947667 -5.7824115865893556e-13 -1000 1.8369701987210295e-13 F 0 F 0.002 #
truecolor-adesk-attrib $-1 -1 $345 $-1 $312 -1027161668 #
straight-curve $-1 -1 $-1 128.83418204067419 -114.21087115149497 310.23398744947667 -5.7824115865893556e-13 -1000 1.8369701987210295e-13 F 0 F 0.002 #
DXID-attrib $-1 -1 $-1 $315 $268 @18 ASM_EDGE_FROM_STEP @4 3145 #
DXID-attrib $-1 -1 $-1 $317 $269 @18 ASM_EDGE_FROM_STEP @4 1037 #
DXID-attrib $-1 -1 $-1 $320 $275 @18 ASM_EDGE_FROM_STEP @4 6895 #
DXID-attrib $-1 -1 $-1 $322 $276 @18 ASM_FACE_FROM_STEP @16 step-1M-562-6467 #
DXID-attrib $-1 -1 $-1 $328 $295 @18 ASM_EDGE_FROM_STEP @3 776 #
DXID-attrib $-1 -1 $-1 $335 $309 @18 ASM_EDGE_FROM_STEP @4 4017 #
DXID-attrib $-1 -1 $-1 $337 $312 @18 ASM_EDGE_FROM_STEP @4 3747 #
