700 494 1 0         
5 ZWCAD 12 ACIS 28.0 NT 24 Sat May 11 11:42:48 2024 
1 9.9999999999999995e-07 1e-10 
body $1 -1 $-1 $2 $-1 $-1 #
DXID-attrib $-1 -1 $-1 $-1 $0 @18 ASM_BODY_FROM_STEP @83 AF357741008862FD83795730998FA9FC6F464FB6|:|A672822C3EDBA077218AE37043297185481572B2 #
lump $-1 -1 $-1 $-1 $3 $0 #
shell $-1 -1 $-1 $-1 $-1 $4 $-1 $2 #
face $5 -1 $-1 $6 $7 $3 $-1 $8 forward single #
truecolor-adesk-attrib $-1 -1 $9 $-1 $4 -1026831413 #
face $10 -1 $-1 $11 $12 $3 $-1 $13 forward single #
loop $-1 -1 $-1 $-1 $14 $4 #
plane-surface $-1 -1 $-1 7.9500000000000002 1.9364512088507966 0.58365966859991092 -0.70710678118654768 1.5700924586837729e-16 0.70710678118654746 0 1 -2.2204460492503101e-16 forward_v I I I I #
fmesh-eye-attrib $-1 -1 $15 $5 $4 #
truecolor-adesk-attrib $-1 -1 $16 $-1 $6 -1026831413 #
face $17 -1 $-1 $18 $19 $3 $-1 $20 forward single #
loop $-1 -1 $-1 $-1 $21 $6 #
plane-surface $-1 -1 $-1 4.6500000000000004 2.0952225328779446 0.58365966859991047 -0.3535533905932739 0.61237243569579469 0.70710678118654746 0.86602540378443882 0.5 7.8301948256861901e-17 forward_v I I I I #
coedge $-1 -1 $-1 $22 $23 $24 $25 forward $7 $-1 #
DXID-attrib $-1 -1 $-1 $9 $4 @18 ASM_FACE_FROM_STEP @16 step-1M-825-3094 #
fmesh-eye-attrib $-1 -1 $26 $10 $6 #
truecolor-adesk-attrib $-1 -1 $27 $-1 $11 -1026831413 #
face $28 -1 $-1 $29 $30 $3 $-1 $31 forward single #
loop $-1 -1 $-1 $-1 $32 $11 #
plane-surface $-1 -1 $-1 12.650000000000002 3.3509593683653809 0.58365966859991136 0.70710678118654746 1.5700924586837734e-16 0.70710678118654768 0 -1 2.2204460492503101e-16 forward_v I I I I #
coedge $-1 -1 $-1 $33 $34 $35 $36 forward $12 $-1 #
coedge $-1 -1 $-1 $37 $14 $34 $38 forward $7 $-1 #
coedge $-1 -1 $-1 $14 $37 $39 $40 reversed $7 $-1 #
coedge $-1 -1 $-1 $41 $35 $14 $25 reversed $42 $-1 #
edge $43 -1 $-1 $44 -0.059178402591936699 $45 0.20062921854339533 $14 $46 forward @7 unknown #
DXID-attrib $-1 -1 $-1 $16 $6 @18 ASM_FACE_FROM_STEP @16 step-1M-825-3095 #
fmesh-eye-attrib $-1 -1 $47 $17 $11 #
truecolor-adesk-attrib $-1 -1 $48 $-1 $18 -1026831413 #
face $49 -1 $-1 $50 $51 $3 $-1 $52 forward single #
loop $-1 -1 $-1 $-1 $53 $18 #
plane-surface $-1 -1 $-1 8.2250000000000121 -1.2678427851516307 0.58365966859991181 0.3535533905932759 -0.61237243569579491 0.70710678118654613 -0.86602540378443749 -0.50000000000000189 1.9925380789942768e-16 forward_v I I I I #
coedge $-1 -1 $-1 $54 $55 $56 $57 forward $19 $-1 #
coedge $-1 -1 $-1 $58 $21 $59 $60 forward $12 $-1 #
coedge $-1 -1 $-1 $21 $58 $22 $38 reversed $12 $-1 #
coedge $-1 -1 $-1 $24 $61 $21 $36 reversed $42 $-1 #
edge $62 -1 $-1 $45 0.38682468035704937 $63 0.64663230149238082 $21 $64 forward @7 unknown #
coedge $-1 -1 $-1 $23 $22 $65 $66 forward $7 $-1 #
edge $67 -1 $-1 $45 0 $68 0.030550504633038836 $22 $69 forward @7 unknown #
coedge $-1 -1 $-1 $70 $71 $23 $40 forward $72 $-1 #
edge $73 -1 $-1 $44 0 $74 0.030550504633038864 $23 $75 forward @7 unknown #
coedge $-1 -1 $-1 $76 $24 $71 $77 reversed $42 $-1 #
loop $-1 -1 $-1 $78 $56 $79 #
truecolor-adesk-attrib $-1 -1 $80 $-1 $25 -1026831413 #
vertex $-1 -1 $-1 $25 $81 #
vertex $-1 -1 $-1 $25 $82 #
straight-curve $-1 -1 $-1 8.0500000000000007 1.9364512088507966 0.68365966859991123 0 10 -2.2204460492503099e-15 F -0.059178402591936699 F 0.20062921854339533 #
DXID-attrib $-1 -1 $-1 $27 $11 @18 ASM_FACE_FROM_STEP @16 step-1M-825-3096 #
fmesh-eye-attrib $-1 -1 $83 $28 $18 #
truecolor-adesk-attrib $-1 -1 $84 $-1 $29 -1026831413 #
face $85 -1 $-1 $86 $72 $3 $-1 $87 forward single #
loop $-1 -1 $-1 $-1 $88 $29 #
plane-surface $-1 -1 $-1 7.0000000000000009 7.2625074421250888 0.58365966859991003 0.35355339059327279 0.61237243569579491 0.70710678118654768 0.86602540378443937 -0.49999999999999906 3.2810212879752173e-16 forward_v I I I I #
coedge $-1 -1 $-1 $89 $90 $91 $92 forward $30 $-1 #
coedge $-1 -1 $-1 $93 $32 $89 $94 forward $19 $-1 #
coedge $-1 -1 $-1 $32 $93 $95 $96 forward $19 $-1 #
coedge $-1 -1 $-1 $61 $76 $32 $57 reversed $42 $-1 #
edge $97 -1 $-1 $98 -0.059178402591936893 $99 0.2006292185433951 $32 $100 forward @7 unknown #
coedge $-1 -1 $-1 $34 $33 $101 $102 forward $12 $-1 #
coedge $-1 -1 $-1 $88 $103 $33 $60 reversed $51 $-1 #
edge $104 -1 $-1 $63 0 $105 0.030550504633038929 $33 $106 forward @7 unknown #
coedge $-1 -1 $-1 $35 $56 $88 $107 reversed $42 $-1 #
truecolor-adesk-attrib $-1 -1 $108 $-1 $36 -1026831413 #
vertex $-1 -1 $-1 $36 $109 #
straight-curve $-1 -1 $-1 4.7000000000000002 2.0086199924995007 0.68365966859991101 8.6602540378443909 5 -4.9647785900247604e-17 F 0.38682468035704937 F 0.64663230149238082 #
coedge $-1 -1 $-1 $110 $111 $37 $66 reversed $112 $-1 #
edge $113 -1 $-1 $68 -0.21217622392718732 $74 0.070725407975728696 $37 $114 forward @7 unknown #
truecolor-adesk-attrib $-1 -1 $115 $-1 $38 -1026831413 #
vertex $-1 -1 $-1 $38 $116 #
straight-curve $-1 -1 $-1 8.0500000000000007 3.9427433942847498 0.68365966859991079 -6.5465367070797686 3.7796447300922784 -6.5465367070797704 F 0 F 0.030550504633038836 #
coedge $-1 -1 $-1 $117 $39 $118 $119 forward $72 $-1 #
coedge $-1 -1 $-1 $39 $117 $41 $77 forward $72 $-1 #
loop $-1 -1 $-1 $-1 $70 $50 #
truecolor-adesk-attrib $-1 -1 $120 $-1 $40 -1026831413 #
vertex $-1 -1 $-1 $66 $121 #
straight-curve $-1 -1 $-1 8.0500000000000007 1.3446671829314296 0.68365966859991123 -6.5465367070797686 -3.7796447300922611 -6.5465367070797695 F 0 F 0.030550504633038864 #
coedge $-1 -1 $-1 $56 $41 $122 $123 reversed $42 $-1 #
edge $124 -1 $-1 $125 -0.50518148554092301 $44 -0.24537386440559125 $71 $126 forward @7 unknown #
loop $-1 -1 $-1 $-1 $127 $79 #
face $128 -1 $-1 $129 $42 $3 $-1 $130 reversed single #
DXID-attrib $-1 -1 $-1 $43 $25 @18 ASM_EDGE_FROM_STEP @4 1879 #
point $-1 -1 $-1 8.0500000000000007 1.3446671829314296 0.68365966859991123 #
point $-1 -1 $-1 8.0500000000000007 3.9427433942847498 0.68365966859991079 #
DXID-attrib $-1 -1 $-1 $48 $18 @18 ASM_FACE_FROM_STEP @16 step-1M-825-3097 #
fmesh-eye-attrib $-1 -1 $131 $49 $29 #
truecolor-adesk-attrib $-1 -1 $132 $-1 $50 -1026831413 #
face $133 -1 $-1 $134 $135 $3 $-1 $136 forward single #
plane-surface $-1 -1 $-1 5.875 2.4849339645809416 0.58365966859991092 -0.35355339059327412 -0.61237243569579491 0.70710678118654713 -0.8660254037844386 0.50000000000000022 -5.054637264123263e-17 forward_v I I I I #
coedge $-1 -1 $-1 $95 $59 $61 $107 forward $51 $-1 #
coedge $-1 -1 $-1 $122 $53 $54 $94 reversed $30 $-1 #
coedge $-1 -1 $-1 $53 $122 $117 $137 forward $30 $-1 #
coedge $-1 -1 $-1 $138 $139 $53 $92 reversed $140 $-1 #
edge $141 -1 $-1 $142 0.2338268590217974 $143 0.5167284909247144 $53 $144 forward @7 unknown #
coedge $-1 -1 $-1 $55 $54 $145 $146 forward $19 $-1 #
edge $147 -1 $-1 $99 0 $143 0.030550504633038749 $54 $148 forward @7 unknown #
coedge $-1 -1 $-1 $103 $88 $55 $96 reversed $51 $-1 #
edge $149 -1 $-1 $150 0 $98 0.030550504633038763 $55 $151 forward @7 unknown #
truecolor-adesk-attrib $-1 -1 $152 $-1 $57 -1026831413 #
vertex $-1 -1 $-1 $57 $153 #
vertex $-1 -1 $-1 $57 $154 #
straight-curve $-1 -1 $-1 12.550000000000001 3.3509593683653809 0.68365966859991145 0 -10 2.2204460492503099e-15 F -0.059178402591936893 F 0.2006292185433951 #
coedge $-1 -1 $-1 $155 $156 $58 $102 reversed $135 $-1 #
edge $157 -1 $-1 $105 -0.65817930687617332 $68 -0.37527767497325654 $58 $158 forward @7 unknown #
coedge $-1 -1 $-1 $59 $95 $159 $160 forward $51 $-1 #
truecolor-adesk-attrib $-1 -1 $161 $-1 $60 -1026831413 #
vertex $-1 -1 $-1 $60 $162 #
straight-curve $-1 -1 $-1 10.300000000000001 5.2417814999614096 0.68365966859991079 8.0171952238258814e-16 7.5592894601845479 -6.5465367070797615 F 0 F 0.030550504633038929 #
edge $163 -1 $-1 $63 0.38682468035704887 $98 0.64663230149238071 $88 $164 forward @7 unknown #
DXID-attrib $-1 -1 $-1 $62 $36 @18 ASM_EDGE_FROM_STEP @4 1883 #
point $-1 -1 $-1 10.300000000000001 5.2417814999614096 0.68365966859991079 #
coedge $-1 -1 $-1 $165 $65 $156 $166 forward $112 $-1 #
coedge $-1 -1 $-1 $65 $165 $167 $168 reversed $112 $-1 #
loop $-1 -1 $-1 $-1 $65 $169 #
truecolor-adesk-attrib $-1 -1 $170 $-1 $66 -1026831413 #
straight-curve $-1 -1 $-1 7.8500000000000005 1.9364512088507966 0.48365966859991083 0 -10 2.2204460492503099e-15 F -0.21217622392718732 F 0.070725407975728696 #
DXID-attrib $-1 -1 $-1 $67 $38 @18 ASM_EDGE_FROM_STEP @4 1880 #
point $-1 -1 $-1 7.8500000000000005 4.0582134481226699 0.48365966859991039 #
coedge $-1 -1 $-1 $71 $70 $90 $137 reversed $72 $-1 #
coedge $-1 -1 $-1 $167 $171 $70 $119 reversed $172 $-1 #
edge $173 -1 $-1 $74 0.23382685902179839 $142 0.51672849092471551 $70 $174 forward @7 unknown #
DXID-attrib $-1 -1 $-1 $73 $40 @18 ASM_EDGE_FROM_STEP @4 1882 #
point $-1 -1 $-1 7.8500000000000005 1.2291971290935095 0.48365966859991127 #
coedge $-1 -1 $-1 $90 $89 $76 $123 forward $30 $-1 #
edge $175 -1 $-1 $99 -0.50518148554092202 $125 -0.24537386440559028 $122 $176 forward @7 unknown #
truecolor-adesk-attrib $-1 -1 $177 $-1 $77 -1026831413 #
vertex $-1 -1 $-1 $123 $178 #
straight-curve $-1 -1 $-1 5.9250000000000007 2.571536504959385 0.68365966859991079 -8.6602540378443802 4.9999999999999991 -2.1707982633500611e-15 F -0.50518148554092301 F -0.24537386440559125 #
coedge $-1 -1 $-1 $127 $127 $179 $180 reversed $78 $-1 #
truecolor-adesk-attrib $-1 -1 $181 $-1 $79 -1026831413 #
face $182 -1 $-1 $183 $184 $3 $-1 $185 reversed single #
plane-surface $-1 -1 $-1 2.4492935982947064e-16 2.6437052886080878 0.68365966859991012 1.2246467991473532e-16 -2.2204460492503101e-16 -1 0 1 -2.2204460492503101e-16 forward_v I I I I #
DXID-attrib $-1 -1 $-1 $84 $29 @18 ASM_FACE_FROM_STEP @16 step-1M-825-3098 #
fmesh-eye-attrib $-1 -1 $186 $85 $50 #
truecolor-adesk-attrib $-1 -1 $187 $-1 $86 -1026831413 #
face $188 -1 $-1 $189 $190 $3 $-1 $191 forward single #
loop $-1 -1 $-1 $-1 $101 $86 #
plane-surface $-1 -1 $-1 7.8500000000000005 4.0582134481226699 0.68365966859991079 -0.49999999999999989 0.86602540378443882 -2.5352860859572381e-16 0.86602540378443893 0.49999999999999989 -4.964778590024753e-18 forward_v I I I I #
edge $192 -1 $-1 $125 0 $142 0.030550504633038923 $90 $193 forward @7 unknown #
coedge $-1 -1 $-1 $194 $91 $171 $195 forward $140 $-1 #
coedge $-1 -1 $-1 $91 $194 $196 $197 reversed $140 $-1 #
loop $-1 -1 $-1 $-1 $91 $198 #
truecolor-adesk-attrib $-1 -1 $199 $-1 $92 -1026831413 #
vertex $-1 -1 $-1 $92 $200 #
vertex $-1 -1 $-1 $94 $201 #
straight-curve $-1 -1 $-1 8.2750000000000092 -1.354445325530071 0.48365966859991172 8.6602540378443802 5.0000000000000195 -4.9647785900253126e-17 F 0.2338268590217974 F 0.5167284909247144 #
coedge $-1 -1 $-1 $196 $202 $93 $146 reversed $203 $-1 #
edge $204 -1 $-1 $143 -0.2121762239271871 $150 0.070725407975728891 $93 $205 forward @7 unknown #
truecolor-adesk-attrib $-1 -1 $206 $-1 $94 -1026831413 #
straight-curve $-1 -1 $-1 12.550000000000001 1.3446671829314296 0.6836596685999119 6.5465367070797917 -3.7796447300922211 -6.5465367070797891 F 0 F 0.030550504633038749 #
truecolor-adesk-attrib $-1 -1 $207 $-1 $96 -1026831413 #
vertex $-1 -1 $-1 $146 $208 #
straight-curve $-1 -1 $-1 12.750000000000002 4.0582134481226699 0.48365966859991127 -6.5465367070797704 -3.7796447300922784 6.5465367070797695 F 0 F 0.030550504633038763 #
DXID-attrib $-1 -1 $-1 $97 $57 @18 ASM_EDGE_FROM_STEP @4 1886 #
point $-1 -1 $-1 12.550000000000001 3.9427433942847498 0.68365966859991145 #
point $-1 -1 $-1 12.550000000000001 1.3446671829314296 0.6836596685999119 #
coedge $-1 -1 $-1 $209 $101 $210 $211 forward $135 $-1 #
coedge $-1 -1 $-1 $101 $209 $110 $166 reversed $135 $-1 #
truecolor-adesk-attrib $-1 -1 $212 $-1 $102 -1026831413 #
straight-curve $-1 -1 $-1 4.5999999999999996 2.1818250732563884 0.48365966859991039 -8.6602540378443909 -5 4.9647785900247604e-17 F -0.65817930687617332 F -0.37527767497325654 #
coedge $-1 -1 $-1 $213 $210 $103 $160 reversed $190 $-1 #
edge $214 -1 $-1 $150 -0.65817930687617354 $105 -0.37527767497325654 $103 $215 forward @7 unknown #
DXID-attrib $-1 -1 $-1 $104 $60 @18 ASM_EDGE_FROM_STEP @4 1884 #
point $-1 -1 $-1 10.300000000000001 5.4727216076372596 0.48365966859991083 #
truecolor-adesk-attrib $-1 -1 $216 $-1 $107 -1026831413 #
straight-curve $-1 -1 $-1 6.9500000000000011 7.1759049017466499 0.68365966859991012 8.6602540378443909 -4.9999999999999902 2.1707982633500603e-15 F 0.38682468035704887 F 0.64663230149238071 #
coedge $-1 -1 $-1 $111 $110 $217 $218 reversed $112 $-1 #
edge $219 -1 $-1 $68 0.020000000000000018 $220 0.17999999999999999 $156 $221 forward @7 unknown #
coedge $-1 -1 $-1 $222 $118 $111 $168 forward $172 $-1 #
edge $223 -1 $-1 $74 0.020000000000000018 $224 0.17999999999999999 $167 $225 forward @7 unknown #
face $226 -1 $-1 $-1 $112 $3 $-1 $227 forward single #
DXID-attrib $-1 -1 $-1 $113 $66 @18 ASM_EDGE_FROM_STEP @4 1881 #
coedge $-1 -1 $-1 $118 $222 $138 $195 reversed $172 $-1 #
loop $-1 -1 $-1 $-1 $118 $228 #
truecolor-adesk-attrib $-1 -1 $229 $-1 $119 -1026831413 #
straight-curve $-1 -1 $-1 5.8250000000000002 2.3983314242024978 0.48365966859991083 8.6602540378443802 -4.9999999999999991 2.1707982633500611e-15 F 0.23382685902179839 F 0.51672849092471551 #
truecolor-adesk-attrib $-1 -1 $230 $-1 $123 -1026831413 #
straight-curve $-1 -1 $-1 8.1750000000000096 -1.1812402447731909 0.68365966859991212 -8.6602540378443802 -5.0000000000000195 4.9647785900253126e-17 F -0.50518148554092202 F -0.24537386440559028 #
DXID-attrib $-1 -1 $-1 $124 $77 @18 ASM_EDGE_FROM_STEP @4 1896 #
point $-1 -1 $-1 10.300000000000001 0.045629077254769612 0.68365966859991212 #
coedge $-1 -1 $-1 $231 $232 $127 $180 forward $184 $-1 #
edge $233 -1 $-1 $234 -3.1415926535897931 $234 3.1415926535897931 $127 $235 forward @7 unknown #
fmesh-eye-attrib $-1 -1 $236 $128 $79 #
truecolor-adesk-attrib $-1 -1 $237 $-1 $129 -1026831413 #
face $238 -1 $-1 $239 $240 $3 $-1 $241 reversed single #
loop $-1 -1 $-1 $-1 $179 $129 #
cone-surface $-1 -1 $-1 10.300000000000001 2.6437052886080896 0.58365966859991136 -1.2246467991473532e-16 2.2204460492503101e-16 1 1.3500000000000001 3.671003898306601e-32 1.6532731788489269e-16 1 I I 0.70710678118654724 0.70710678118654779 1.3500000000000001 forward I I I I #
DXID-attrib $-1 -1 $-1 $132 $50 @18 ASM_FACE_FROM_STEP @16 step-1M-825-3099 #
fmesh-eye-attrib $-1 -1 $242 $133 $86 #
truecolor-adesk-attrib $-1 -1 $243 $-1 $134 -1026831413 #
face $244 -1 $-1 $79 $203 $3 $-1 $245 forward single #
loop $-1 -1 $-1 $-1 $159 $134 #
plane-surface $-1 -1 $-1 10.300000000000001 5.4727216076372596 0.68365966859991079 0.49999999999999911 0.86602540378443926 -1.3106392868098873e-16 0.86602540378443937 -0.49999999999999911 2.1707982633500607e-16 forward_v I I I I #
truecolor-adesk-attrib $-1 -1 $246 $-1 $137 -1026831413 #
straight-curve $-1 -1 $-1 10.300000000000001 0.045629077254769612 0.68365966859991212 -7.1879438315154809e-14 -7.5592894601845213 -6.5465367070797971 F 0 F 0.030550504633038923 #
coedge $-1 -1 $-1 $139 $138 $247 $248 reversed $140 $-1 #
edge $249 -1 $-1 $142 0.020000000000000018 $250 0.17999999999999999 $138 $251 forward @7 unknown #
coedge $-1 -1 $-1 $252 $145 $139 $197 forward $203 $-1 #
edge $253 -1 $-1 $143 0.020000000000000018 $254 0.17999999999999999 $196 $255 forward @7 unknown #
face $256 -1 $-1 $257 $140 $3 $-1 $258 forward single #
DXID-attrib $-1 -1 $-1 $141 $92 @18 ASM_EDGE_FROM_STEP @4 1890 #
point $-1 -1 $-1 10.300000000000001 -0.18531103042108032 0.48365966859991172 #
point $-1 -1 $-1 12.750000000000002 1.2291971290935095 0.48365966859991216 #
coedge $-1 -1 $-1 $145 $252 $213 $259 reversed $203 $-1 #
loop $-1 -1 $-1 $-1 $145 $189 #
truecolor-adesk-attrib $-1 -1 $260 $-1 $146 -1026831413 #
straight-curve $-1 -1 $-1 12.750000000000002 3.3509593683653809 0.48365966859991172 0 10 -2.2204460492503099e-15 F -0.2121762239271871 F 0.070725407975728891 #
DXID-attrib $-1 -1 $-1 $147 $94 @18 ASM_EDGE_FROM_STEP @4 1887 #
DXID-attrib $-1 -1 $-1 $149 $96 @18 ASM_EDGE_FROM_STEP @4 1889 #
point $-1 -1 $-1 12.750000000000002 4.0582134481226699 0.48365966859991127 #
coedge $-1 -1 $-1 $156 $155 $261 $262 reversed $135 $-1 #
coedge $-1 -1 $-1 $159 $263 $155 $211 reversed $190 $-1 #
edge $264 -1 $-1 $105 0.020000000000000018 $265 0.17999999999999999 $155 $266 forward @7 unknown #
DXID-attrib $-1 -1 $-1 $157 $102 @18 ASM_EDGE_FROM_STEP @4 1885 #
coedge $-1 -1 $-1 $263 $159 $202 $259 forward $190 $-1 #
truecolor-adesk-attrib $-1 -1 $267 $-1 $160 -1026831413 #
straight-curve $-1 -1 $-1 7.0500000000000007 7.3491099825035393 0.48365966859990994 -8.6602540378443909 4.9999999999999902 -2.1707982633500603e-15 F -0.65817930687617354 F -0.37527767497325654 #
DXID-attrib $-1 -1 $-1 $163 $107 @18 ASM_EDGE_FROM_STEP @4 1893 #
coedge $-1 -1 $-1 $268 $269 $165 $218 forward $270 $-1 #
edge $271 -1 $-1 $224 -0.070725407975728696 $220 0.21217622392718732 $217 $272 forward @7 unknown #
truecolor-adesk-attrib $-1 -1 $273 $-1 $166 -1026831413 #
vertex $-1 -1 $-1 $262 $274 #
straight-curve $-1 -1 $-1 7.8500000000000005 4.0582134481226699 0.68365966859991079 1.2246467991473533e-15 -2.2204460492503099e-15 -10 F 0.020000000000000018 F 0.17999999999999999 #
coedge $-1 -1 $-1 $171 $167 $275 $276 reversed $172 $-1 #
truecolor-adesk-attrib $-1 -1 $277 $-1 $168 -1026831413 #
vertex $-1 -1 $-1 $218 $278 #
straight-curve $-1 -1 $-1 7.8500000000000005 1.2291971290935095 0.68365966859991123 1.2246467991473533e-15 -2.2204460492503099e-15 -10 F 0.020000000000000018 F 0.17999999999999999 #
truecolor-adesk-attrib $-1 -1 $279 $-1 $169 -1026831413 #
plane-surface $-1 -1 $-1 7.8500000000000005 1.2291971290935095 0.68365966859991123 -1 -2.7192621468937783e-32 -1.2246467991473532e-16 0 1 -2.2204460492503101e-16 forward_v I I I I #
face $280 -1 $-1 $169 $172 $3 $-1 $281 forward single #
DXID-attrib $-1 -1 $-1 $173 $119 @18 ASM_EDGE_FROM_STEP @4 1895 #
DXID-attrib $-1 -1 $-1 $175 $123 @18 ASM_EDGE_FROM_STEP @4 1891 #
coedge $-1 -1 $-1 $282 $179 $232 $283 forward $184 $-1 #
coedge $-1 -1 $-1 $179 $282 $231 $283 reversed $184 $-1 #
truecolor-adesk-attrib $-1 -1 $284 $-1 $180 -1026831413 #
vertex $-1 -1 $-1 $180 $285 #
ellipse-curve $-1 -1 $-1 10.300000000000001 2.6437052886080896 0.68365966859991145 -1.2246467991473532e-16 2.2204460492503101e-16 1 1.45 3.9429301129959786e-32 1.7757378587636622e-16 1 I I #
DXID-attrib $-1 -1 $-1 $181 $79 @18 ASM_FACE_FROM_STEP @16 step-1M-825-3103 #
fmesh-eye-attrib $-1 -1 $286 $182 $129 #
truecolor-adesk-attrib $-1 -1 $287 $-1 $183 -1026831413 #
face $288 -1 $-1 $289 $290 $3 $-1 $291 forward single #
loop $-1 -1 $-1 $-1 $292 $183 #
cone-surface $-1 -1 $-1 10.300000000000001 2.6437052886080896 0.68365966859991145 1.2246467991473532e-16 -2.2204460492503101e-16 -1 1.25 3.3990776836172228e-32 1.5308084989341916e-16 1 I I 0 1 1.25 forward I I I I #
DXID-attrib $-1 -1 $-1 $187 $86 @18 ASM_FACE_FROM_STEP @16 step-1M-825-3100 #
fmesh-eye-attrib $-1 -1 $293 $188 $134 #
truecolor-adesk-attrib $-1 -1 $294 $-1 $189 -1026831413 #
plane-surface $-1 -1 $-1 12.750000000000002 4.0582134481226699 0.68365966859991145 1 2.7192621468937783e-32 1.2246467991473532e-16 0 -1 2.2204460492503101e-16 forward_v I I I I #
DXID-attrib $-1 -1 $-1 $192 $137 @18 ASM_EDGE_FROM_STEP @4 1892 #
coedge $-1 -1 $-1 $295 $296 $194 $248 forward $290 $-1 #
edge $297 -1 $-1 $254 -0.5167284909247144 $250 -0.2338268590217974 $247 $298 forward @7 unknown #
truecolor-adesk-attrib $-1 -1 $299 $-1 $195 -1026831413 #
vertex $-1 -1 $-1 $248 $300 #
straight-curve $-1 -1 $-1 10.300000000000001 -0.18531103042108032 0.68365966859991212 1.2246467991473533e-15 -2.2204460492503099e-15 -10 F 0.020000000000000018 F 0.17999999999999999 #
coedge $-1 -1 $-1 $202 $196 $301 $302 reversed $203 $-1 #
truecolor-adesk-attrib $-1 -1 $303 $-1 $197 -1026831413 #
vertex $-1 -1 $-1 $197 $304 #
straight-curve $-1 -1 $-1 12.750000000000002 1.2291971290935095 0.6836596685999119 1.2246467991473533e-15 -2.2204460492503099e-15 -10 F 0.020000000000000018 F 0.17999999999999999 #
truecolor-adesk-attrib $-1 -1 $305 $-1 $198 -1026831413 #
face $306 -1 $-1 $307 $308 $3 $-1 $309 forward single #
plane-surface $-1 -1 $-1 12.750000000000002 1.2291971290935095 0.6836596685999119 0.50000000000000178 -0.86602540378443771 2.5352860859572381e-16 -0.86602540378443782 -0.50000000000000178 4.9647785900253077e-18 forward_v I I I I #
edge $310 -1 $-1 $150 0.020000000000000018 $311 0.17999999999999999 $213 $312 forward @7 unknown #
DXID-attrib $-1 -1 $-1 $204 $146 @18 ASM_EDGE_FROM_STEP @4 1888 #
coedge $-1 -1 $-1 $313 $314 $209 $262 forward $315 $-1 #
edge $316 -1 $-1 $220 0.37527767497325654 $265 0.65817930687617332 $209 $317 forward @7 unknown #
coedge $-1 -1 $-1 $210 $213 $318 $319 reversed $190 $-1 #
truecolor-adesk-attrib $-1 -1 $320 $-1 $211 -1026831413 #
vertex $-1 -1 $-1 $211 $321 #
straight-curve $-1 -1 $-1 10.300000000000001 5.4727216076372596 0.68365966859991079 1.2246467991473533e-15 -2.2204460492503099e-15 -10 F 0.020000000000000018 F 0.17999999999999999 #
DXID-attrib $-1 -1 $-1 $214 $160 @18 ASM_EDGE_FROM_STEP @4 1894 #
coedge $-1 -1 $-1 $322 $217 $314 $323 reversed $270 $-1 #
coedge $-1 -1 $-1 $217 $322 $324 $325 forward $270 $-1 #
loop $-1 -1 $-1 $-1 $217 $326 #
truecolor-adesk-attrib $-1 -1 $327 $-1 $218 -1026831413 #
straight-curve $-1 -1 $-1 7.8500000000000014 1.9364512088507961 -1.1163403314000888 0 10 -2.2204460492503099e-15 F -0.070725407975728696 F 0.21217622392718732 #
DXID-attrib $-1 -1 $-1 $219 $166 @18 ASM_EDGE_FROM_STEP @4 1899 #
point $-1 -1 $-1 7.8500000000000014 4.058213448122669 -1.1163403314000893 #
coedge $-1 -1 $-1 $324 $328 $222 $276 forward $329 $-1 #
edge $330 -1 $-1 $250 -0.51672849092471551 $224 -0.23382685902179839 $275 $331 forward @7 unknown #
DXID-attrib $-1 -1 $-1 $223 $168 @18 ASM_EDGE_FROM_STEP @4 1927 #
point $-1 -1 $-1 7.8500000000000014 1.2291971290935091 -1.1163403314000884 #
fmesh-eye-attrib $-1 -1 $332 $226 $169 #
truecolor-adesk-attrib $-1 -1 $333 $-1 $228 -1026831413 #
plane-surface $-1 -1 $-1 10.300000000000001 -0.18531103042108032 0.68365966859991212 -0.50000000000000033 -0.86602540378443849 1.3106392868098841e-16 -0.86602540378443849 0.50000000000000033 -2.1707982633500625e-16 forward_v I I I I #
coedge $-1 -1 $-1 $232 $231 $334 $335 forward $184 $-1 #
edge $336 -1 $-1 $234 -0.1047565601757848 $337 0.10475656017578538 $231 $338 forward @7 unknown #
DXID-attrib $-1 -1 $-1 $233 $180 @18 ASM_EDGE_FROM_STEP @4 1904 #
point $-1 -1 $-1 8.8499999999999996 2.6437052886080896 0.68365966859991123 #
DXID-attrib $-1 -1 $-1 $237 $129 @18 ASM_FACE_FROM_STEP @16 step-1M-825-3104 #
fmesh-eye-attrib $-1 -1 $339 $238 $183 #
truecolor-adesk-attrib $-1 -1 $340 $-1 $239 -1026831413 #
face $341 -1 $-1 $342 $343 $3 $-1 $344 forward single #
loop $-1 -1 $-1 $-1 $345 $239 #
plane-surface $-1 -1 $-1 8.2250000000000121 -1.2678427851516312 -1.2163403314000885 0.35355339059327612 -0.61237243569579514 -0.70710678118654591 -0.86602540378443749 -0.50000000000000189 -1.8932425071937689e-16 forward_v I I I I #
coedge $-1 -1 $-1 $346 $347 $348 $349 reversed $240 $-1 #
DXID-attrib $-1 -1 $-1 $243 $134 @18 ASM_FACE_FROM_STEP @16 step-1M-825-3101 #
fmesh-eye-attrib $-1 -1 $350 $244 $189 #
coedge $-1 -1 $-1 $345 $247 $328 $351 reversed $290 $-1 #
coedge $-1 -1 $-1 $247 $345 $352 $353 forward $290 $-1 #
truecolor-adesk-attrib $-1 -1 $354 $-1 $248 -1026831413 #
straight-curve $-1 -1 $-1 8.2750000000000092 -1.3544453255300715 -1.1163403314000879 -8.6602540378443802 -5.0000000000000195 4.9647785900253126e-17 F -0.5167284909247144 F -0.2338268590217974 #
DXID-attrib $-1 -1 $-1 $249 $195 @18 ASM_EDGE_FROM_STEP @4 1924 #
point $-1 -1 $-1 10.300000000000001 -0.18531103042108077 -1.1163403314000879 #
coedge $-1 -1 $-1 $352 $355 $252 $302 forward $356 $-1 #
edge $357 -1 $-1 $311 -0.070725407975728891 $254 0.2121762239271871 $252 $358 forward @7 unknown #
DXID-attrib $-1 -1 $-1 $253 $197 @18 ASM_EDGE_FROM_STEP @4 1902 #
point $-1 -1 $-1 12.750000000000002 1.2291971290935091 -1.1163403314000875 #
fmesh-eye-attrib $-1 -1 $359 $256 $198 #
truecolor-adesk-attrib $-1 -1 $360 $-1 $257 -1026831413 #
face $361 -1 $-1 $228 $362 $3 $-1 $363 reversed single #
loop $-1 -1 $-1 $364 $365 $257 #
plane-surface $-1 -1 $-1 4.8985871965894128e-16 2.6437052886080874 -1.3163403314000899 1.2246467991473532e-16 -2.2204460492503101e-16 -1 0 1 -2.2204460492503101e-16 forward_v I I I I #
truecolor-adesk-attrib $-1 -1 $366 $-1 $259 -1026831413 #
vertex $-1 -1 $-1 $259 $367 #
straight-curve $-1 -1 $-1 12.750000000000002 4.0582134481226699 0.68365966859991145 1.2246467991473533e-15 -2.2204460492503099e-15 -10 F 0.020000000000000018 F 0.17999999999999999 #
coedge $-1 -1 $-1 $368 $261 $369 $370 reversed $315 $-1 #
coedge $-1 -1 $-1 $261 $368 $268 $323 forward $315 $-1 #
loop $-1 -1 $-1 $-1 $261 $371 #
truecolor-adesk-attrib $-1 -1 $372 $-1 $262 -1026831413 #
straight-curve $-1 -1 $-1 4.6000000000000005 2.1818250732563884 -1.1163403314000893 8.6602540378443909 5 -4.9647785900247604e-17 F 0.37527767497325654 F 0.65817930687617332 #
coedge $-1 -1 $-1 $373 $369 $263 $319 forward $343 $-1 #
edge $374 -1 $-1 $265 0.37527767497325654 $311 0.65817930687617354 $263 $375 forward @7 unknown #
DXID-attrib $-1 -1 $-1 $264 $211 @18 ASM_EDGE_FROM_STEP @4 1897 #
point $-1 -1 $-1 10.300000000000001 5.4727216076372596 -1.1163403314000888 #
coedge $-1 -1 $-1 $269 $268 $376 $377 forward $270 $-1 #
edge $378 -1 $-1 $379 0 $220 0.030550504633038815 $314 $380 forward @7 unknown #
coedge $-1 -1 $-1 $381 $275 $269 $325 reversed $329 $-1 #
edge $382 -1 $-1 $383 0 $224 0.030550504633038864 $269 $384 forward @7 unknown #
face $385 -1 $-1 $386 $270 $3 $-1 $387 forward single #
DXID-attrib $-1 -1 $-1 $271 $218 @18 ASM_EDGE_FROM_STEP @4 1919 #
coedge $-1 -1 $-1 $275 $381 $295 $351 forward $329 $-1 #
loop $-1 -1 $-1 $-1 $275 $386 #
truecolor-adesk-attrib $-1 -1 $388 $-1 $276 -1026831413 #
straight-curve $-1 -1 $-1 5.8250000000000011 2.3983314242024973 -1.1163403314000888 -8.6602540378443802 4.9999999999999991 -2.1707982633500611e-15 F -0.51672849092471551 F -0.23382685902179839 #
DXID-attrib $-1 -1 $-1 $279 $169 @18 ASM_FACE_FROM_STEP @16 step-1M-825-3116 #
fmesh-eye-attrib $-1 -1 $389 $280 $228 #
coedge $-1 -1 $-1 $347 $346 $282 $335 reversed $240 $-1 #
edge $390 -1 $-1 $337 -3.1415926535897931 $337 3.1415926535897931 $282 $391 forward @7 unknown #
truecolor-adesk-attrib $-1 -1 $392 $-1 $283 -1026831413 #
vertex $-1 -1 $-1 $283 $393 #
straight-curve $-1 -1 $-1 8.9499999999999993 2.6437052886080896 0.58365966859991092 0.95459415460184005 -9.5058414330517945e-17 -0.95459415460183972 F -0.1047565601757848 F 0.10475656017578538 #
DXID-attrib $-1 -1 $-1 $287 $183 @18 ASM_FACE_FROM_STEP @16 step-1M-825-3105 #
fmesh-eye-attrib $-1 -1 $394 $288 $239 #
truecolor-adesk-attrib $-1 -1 $395 $-1 $289 -1026831413 #
face $396 -1 $-1 $371 $356 $3 $-1 $397 forward single #
loop $-1 -1 $-1 $-1 $318 $289 #
plane-surface $-1 -1 $-1 7.0000000000000018 7.2625074421250888 -1.2163403314000902 0.35355339059327301 0.61237243569579469 -0.70710678118654791 0.86602540378443937 -0.49999999999999906 1.0605752387249044e-16 forward_v I I I I #
coedge $-1 -1 $-1 $296 $295 $398 $399 forward $290 $-1 #
coedge $-1 -1 $-1 $334 $292 $347 $400 forward $240 $-1 #
coedge $-1 -1 $-1 $292 $334 $346 $400 reversed $240 $-1 #
coedge $-1 -1 $-1 $401 $402 $292 $349 forward $362 $-1 #
edge $403 -1 $-1 $404 -3.1415926535897931 $404 3.1415926535897931 $292 $405 forward @7 unknown #
DXID-attrib $-1 -1 $-1 $294 $189 @18 ASM_FACE_FROM_STEP @16 step-1M-825-3102 #
edge $406 -1 $-1 $407 0 $250 0.030550504633038923 $295 $408 forward @7 unknown #
coedge $-1 -1 $-1 $409 $301 $296 $353 reversed $356 $-1 #
edge $410 -1 $-1 $411 0 $254 0.030550504633038749 $296 $412 forward @7 unknown #
DXID-attrib $-1 -1 $-1 $297 $248 @18 ASM_EDGE_FROM_STEP @4 1911 #
coedge $-1 -1 $-1 $301 $409 $373 $413 reversed $356 $-1 #
loop $-1 -1 $-1 $-1 $409 $342 #
truecolor-adesk-attrib $-1 -1 $414 $-1 $302 -1026831413 #
straight-curve $-1 -1 $-1 12.750000000000002 3.3509593683653804 -1.1163403314000879 0 -10 2.2204460492503099e-15 F -0.070725407975728891 F 0.2121762239271871 #
DXID-attrib $-1 -1 $-1 $305 $198 @18 ASM_FACE_FROM_STEP @16 step-1M-825-3112 #
fmesh-eye-attrib $-1 -1 $415 $306 $257 #
truecolor-adesk-attrib $-1 -1 $416 $-1 $307 -1026831413 #
loop $-1 -1 $-1 $-1 $348 $307 #
cone-surface $-1 -1 $-1 10.300000000000001 2.6437052886080892 -1.2163403314000889 1.2246467991473532e-16 -2.2204460492503101e-16 -1 1.3500000000000001 3.671003898306601e-32 1.6532731788489269e-16 1 I I 0.70710678118654724 0.70710678118654779 1.3500000000000001 forward I I I I #
loop $-1 -1 $-1 $-1 $417 $257 #
coedge $-1 -1 $-1 $418 $419 $420 $421 reversed $308 $-1 #
DXID-attrib $-1 -1 $-1 $310 $259 @18 ASM_EDGE_FROM_STEP @4 1900 #
point $-1 -1 $-1 12.750000000000002 4.058213448122669 -1.1163403314000884 #
coedge $-1 -1 $-1 $314 $313 $419 $422 forward $315 $-1 #
coedge $-1 -1 $-1 $318 $420 $313 $370 forward $343 $-1 #
edge $423 -1 $-1 $424 0 $265 0.030550504633038929 $369 $425 forward @7 unknown #
face $426 -1 $-1 $326 $315 $3 $-1 $427 forward single #
DXID-attrib $-1 -1 $-1 $316 $262 @18 ASM_EDGE_FROM_STEP @4 1898 #
coedge $-1 -1 $-1 $420 $318 $355 $413 forward $343 $-1 #
truecolor-adesk-attrib $-1 -1 $428 $-1 $319 -1026831413 #
straight-curve $-1 -1 $-1 7.0500000000000016 7.3491099825035393 -1.1163403314000897 8.6602540378443909 -4.9999999999999902 2.1707982633500603e-15 F 0.37527767497325654 F 0.65817930687617354 #
coedge $-1 -1 $-1 $419 $429 $322 $377 reversed $308 $-1 #
edge $430 -1 $-1 $379 -0.20062921854339533 $383 0.059178402591936699 $322 $431 forward @7 unknown #
truecolor-adesk-attrib $-1 -1 $432 $-1 $323 -1026831413 #
vertex $-1 -1 $-1 $422 $433 #
straight-curve $-1 -1 $-1 8.0500000000000007 3.942743394284749 -1.3163403314000894 -6.5465367070797713 3.7796447300922917 6.5465367070797678 F 0 F 0.030550504633038815 #
coedge $-1 -1 $-1 $328 $324 $429 $434 forward $329 $-1 #
truecolor-adesk-attrib $-1 -1 $435 $-1 $325 -1026831413 #
vertex $-1 -1 $-1 $377 $436 #
straight-curve $-1 -1 $-1 8.0500000000000007 1.3446671829314292 -1.3163403314000885 -6.5465367070797704 -3.779644730092258 6.5465367070797695 F 0 F 0.030550504633038864 #
truecolor-adesk-attrib $-1 -1 $437 $-1 $326 -1026831413 #
face $438 -1 $-1 $198 $329 $3 $-1 $439 forward single #
plane-surface $-1 -1 $-1 7.9500000000000011 1.9364512088507961 -1.2163403314000893 -0.70710678118654746 -1.5700924586837734e-16 -0.70710678118654768 0 1 -2.2204460492503101e-16 forward_v I I I I #
DXID-attrib $-1 -1 $-1 $330 $276 @18 ASM_EDGE_FROM_STEP @4 1922 #
DXID-attrib $-1 -1 $-1 $333 $228 @18 ASM_FACE_FROM_STEP @16 step-1M-825-3115 #
truecolor-adesk-attrib $-1 -1 $440 $-1 $335 -1026831413 #
ellipse-curve $-1 -1 $-1 10.300000000000001 2.6437052886080896 0.48365966859991127 1.2246467991473532e-16 -2.2204460492503101e-16 -1 1.25 3.3990776836172228e-32 1.5308084989341916e-16 1 I I #
DXID-attrib $-1 -1 $-1 $336 $283 @18 ASM_EDGE_FROM_STEP @4 1905 #
point $-1 -1 $-1 9.0500000000000007 2.6437052886080901 0.48365966859991083 #
DXID-attrib $-1 -1 $-1 $340 $239 @18 ASM_FACE_FROM_STEP @16 step-1M-825-3106 #
fmesh-eye-attrib $-1 -1 $441 $341 $289 #
truecolor-adesk-attrib $-1 -1 $442 $-1 $342 -1026831413 #
plane-surface $-1 -1 $-1 12.650000000000002 3.3509593683653804 -1.2163403314000889 0.70710678118654768 -1.5700924586837729e-16 -0.70710678118654746 0 -1 2.2204460492503101e-16 forward_v I I I I #
coedge $-1 -1 $-1 $429 $418 $345 $399 reversed $308 $-1 #
edge $443 -1 $-1 $407 0.24537386440559028 $411 0.50518148554092202 $345 $444 forward @7 unknown #
edge $445 -1 $-1 $404 -1.4399999999999999 $337 -0.16000000000000014 $346 $446 forward @7 unknown #
coedge $-1 -1 $-1 $447 $348 $402 $448 forward $362 $-1 #
coedge $-1 -1 $-1 $348 $447 $401 $448 reversed $362 $-1 #
truecolor-adesk-attrib $-1 -1 $449 $-1 $349 -1026831413 #
vertex $-1 -1 $-1 $349 $450 #
ellipse-curve $-1 -1 $-1 10.300000000000001 2.6437052886080892 -1.1163403314000884 -1.2246467991473532e-16 2.2204460492503101e-16 1 1.25 3.3990776836172228e-32 1.5308084989341916e-16 1 I I #
truecolor-adesk-attrib $-1 -1 $451 $-1 $351 -1026831413 #
vertex $-1 -1 $-1 $399 $452 #
straight-curve $-1 -1 $-1 10.300000000000001 0.045629077254769168 -1.3163403314000881 -8.0171952238259307e-16 -7.5592894601845178 6.5465367070798024 F 0 F 0.030550504633038923 #
coedge $-1 -1 $-1 $355 $352 $418 $453 forward $356 $-1 #
truecolor-adesk-attrib $-1 -1 $454 $-1 $353 -1026831413 #
vertex $-1 -1 $-1 $399 $455 #
straight-curve $-1 -1 $-1 12.550000000000001 1.3446671829314292 -1.3163403314000881 6.54653670707979 -3.7796447300922185 6.5465367070797917 F 0 F 0.030550504633038749 #
edge $456 -1 $-1 $311 0 $457 0.030550504633038763 $373 $458 forward @7 unknown #
DXID-attrib $-1 -1 $-1 $357 $302 @18 ASM_EDGE_FROM_STEP @4 1903 #
DXID-attrib $-1 -1 $-1 $360 $257 @18 ASM_FACE_FROM_STEP @16 step-1M-825-3113 #
fmesh-eye-attrib $-1 -1 $459 $361 $307 #
coedge $-1 -1 $-1 $417 $417 $447 $460 reversed $364 $-1 #
coedge $-1 -1 $-1 $398 $365 $409 $453 reversed $308 $-1 #
coedge $-1 -1 $-1 $365 $376 $368 $422 reversed $308 $-1 #
coedge $-1 -1 $-1 $369 $373 $365 $421 forward $343 $-1 #
edge $461 -1 $-1 $457 -0.64663230149238071 $424 -0.38682468035704887 $420 $462 forward @7 unknown #
edge $463 -1 $-1 $424 -0.64663230149238082 $379 -0.38682468035704937 $368 $464 forward @7 unknown #
truecolor-adesk-attrib $-1 -1 $465 $-1 $370 -1026831413 #
vertex $-1 -1 $-1 $421 $466 #
straight-curve $-1 -1 $-1 10.300000000000001 5.2417814999614087 -1.316340331400089 -8.0171952238258814e-16 7.5592894601845515 6.5465367070797571 F 0 F 0.030550504633038929 #
truecolor-adesk-attrib $-1 -1 $467 $-1 $371 -1026831413 #
plane-surface $-1 -1 $-1 4.6500000000000012 2.0952225328779441 -1.2163403314000898 -0.3535533905932739 0.61237243569579392 -0.70710678118654813 0.86602540378443882 0.50000000000000022 -4.2129841282445834e-16 forward_v I I I I #
DXID-attrib $-1 -1 $-1 $374 $319 @18 ASM_EDGE_FROM_STEP @4 1901 #
coedge $-1 -1 $-1 $376 $398 $381 $434 reversed $308 $-1 #
truecolor-adesk-attrib $-1 -1 $468 $-1 $377 -1026831413 #
straight-curve $-1 -1 $-1 8.0500000000000007 1.9364512088507961 -1.316340331400089 0 -10 2.2204460492503099e-15 F -0.20062921854339533 F 0.059178402591936699 #
DXID-attrib $-1 -1 $-1 $378 $323 @18 ASM_EDGE_FROM_STEP @4 1918 #
point $-1 -1 $-1 8.0500000000000007 3.942743394284749 -1.3163403314000894 #
edge $469 -1 $-1 $383 0.24537386440559125 $407 0.50518148554092301 $381 $470 forward @7 unknown #
DXID-attrib $-1 -1 $-1 $382 $325 @18 ASM_EDGE_FROM_STEP @4 1921 #
point $-1 -1 $-1 8.0500000000000007 1.3446671829314292 -1.3163403314000885 #
fmesh-eye-attrib $-1 -1 $471 $385 $326 #
truecolor-adesk-attrib $-1 -1 $472 $-1 $386 -1026831413 #
plane-surface $-1 -1 $-1 5.8750000000000009 2.4849339645809412 -1.2163403314000893 -0.3535533905932739 -0.61237243569579514 -0.70710678118654691 -0.8660254037844386 0.50000000000000022 -3.8361328002877985e-16 forward_v I I I I #
DXID-attrib $-1 -1 $-1 $390 $335 @18 ASM_EDGE_FROM_STEP @4 1906 #
DXID-attrib $-1 -1 $-1 $395 $289 @18 ASM_FACE_FROM_STEP @16 step-1M-825-3107 #
fmesh-eye-attrib $-1 -1 $473 $396 $342 #
truecolor-adesk-attrib $-1 -1 $474 $-1 $399 -1026831413 #
straight-curve $-1 -1 $-1 8.1750000000000096 -1.1812402447731913 -1.3163403314000881 8.6602540378443802 5.0000000000000195 -4.9647785900253126e-17 F 0.24537386440559028 F 0.50518148554092202 #
truecolor-adesk-attrib $-1 -1 $475 $-1 $400 -1026831413 #
straight-curve $-1 -1 $-1 9.0500000000000007 2.6437052886080901 0.68365966859991123 -1.5308084989341916e-16 2.7755575615628874e-16 1.25 F -1.4399999999999999 F -0.16000000000000014 #
coedge $-1 -1 $-1 $402 $401 $417 $460 forward $362 $-1 #
edge $476 -1 $-1 $404 -0.10475656017578538 $477 0.1047565601757848 $401 $478 forward @7 unknown #
DXID-attrib $-1 -1 $-1 $403 $349 @18 ASM_EDGE_FROM_STEP @4 1907 #
point $-1 -1 $-1 9.0500000000000007 2.6437052886080892 -1.1163403314000888 #
DXID-attrib $-1 -1 $-1 $406 $351 @18 ASM_EDGE_FROM_STEP @4 1912 #
point $-1 -1 $-1 10.300000000000001 0.045629077254769168 -1.3163403314000881 #
edge $479 -1 $-1 $411 -0.2006292185433951 $457 0.059178402591936893 $409 $480 forward @7 unknown #
DXID-attrib $-1 -1 $-1 $410 $353 @18 ASM_EDGE_FROM_STEP @4 1910 #
point $-1 -1 $-1 12.550000000000001 1.3446671829314292 -1.3163403314000881 #
truecolor-adesk-attrib $-1 -1 $481 $-1 $413 -1026831413 #
vertex $-1 -1 $-1 $413 $482 #
straight-curve $-1 -1 $-1 12.750000000000002 4.058213448122669 -1.1163403314000884 -6.5465367070797686 -3.7796447300922811 -6.5465367070797695 F 0 F 0.030550504633038763 #
DXID-attrib $-1 -1 $-1 $416 $307 @18 ASM_FACE_FROM_STEP @16 step-1M-825-3114 #
edge $483 -1 $-1 $477 -3.1415926535897931 $477 3.1415926535897931 $417 $484 forward @7 unknown #
truecolor-adesk-attrib $-1 -1 $485 $-1 $421 -1026831413 #
straight-curve $-1 -1 $-1 6.950000000000002 7.175904901746649 -1.3163403314000899 -8.6602540378443909 4.9999999999999902 -2.1707982633500603e-15 F -0.64663230149238071 F -0.38682468035704887 #
truecolor-adesk-attrib $-1 -1 $486 $-1 $422 -1026831413 #
straight-curve $-1 -1 $-1 4.7000000000000011 2.0086199924995003 -1.3163403314000894 -8.6602540378443909 -5 4.9647785900247604e-17 F -0.64663230149238082 F -0.38682468035704937 #
DXID-attrib $-1 -1 $-1 $423 $370 @18 ASM_EDGE_FROM_STEP @4 1915 #
point $-1 -1 $-1 10.300000000000001 5.2417814999614087 -1.316340331400089 #
fmesh-eye-attrib $-1 -1 $487 $426 $371 #
DXID-attrib $-1 -1 $-1 $430 $377 @18 ASM_EDGE_FROM_STEP @4 1920 #
truecolor-adesk-attrib $-1 -1 $488 $-1 $434 -1026831413 #
straight-curve $-1 -1 $-1 5.9250000000000016 2.5715365049593846 -1.316340331400089 8.6602540378443802 -4.9999999999999991 2.1707982633500611e-15 F 0.24537386440559125 F 0.50518148554092301 #
DXID-attrib $-1 -1 $-1 $437 $326 @18 ASM_FACE_FROM_STEP @16 step-1M-825-3110 #
fmesh-eye-attrib $-1 -1 $489 $438 $386 #
DXID-attrib $-1 -1 $-1 $442 $342 @18 ASM_FACE_FROM_STEP @16 step-1M-825-3108 #
DXID-attrib $-1 -1 $-1 $443 $399 @18 ASM_EDGE_FROM_STEP @4 1909 #
DXID-attrib $-1 -1 $-1 $445 $400 @18 ASM_EDGE_FROM_STEP @4 1908 #
truecolor-adesk-attrib $-1 -1 $490 $-1 $448 -1026831413 #
vertex $-1 -1 $-1 $460 $491 #
straight-curve $-1 -1 $-1 8.9499999999999993 2.6437052886080892 -1.2163403314000893 -0.95459415460183972 -3.2886654951410106e-16 -0.95459415460184005 F -0.10475656017578538 F 0.1047565601757848 #
truecolor-adesk-attrib $-1 -1 $492 $-1 $453 -1026831413 #
straight-curve $-1 -1 $-1 12.550000000000001 3.3509593683653804 -1.3163403314000885 0 10 -2.2204460492503099e-15 F -0.2006292185433951 F 0.059178402591936893 #
DXID-attrib $-1 -1 $-1 $456 $413 @18 ASM_EDGE_FROM_STEP @4 1913 #
point $-1 -1 $-1 12.550000000000001 3.942743394284749 -1.316340331400089 #
truecolor-adesk-attrib $-1 -1 $493 $-1 $460 -1026831413 #
ellipse-curve $-1 -1 $-1 10.300000000000001 2.6437052886080892 -1.3163403314000885 1.2246467991473532e-16 -2.2204460492503101e-16 -1 1.45 3.9429301129959786e-32 1.7757378587636622e-16 1 I I #
DXID-attrib $-1 -1 $-1 $461 $421 @18 ASM_EDGE_FROM_STEP @4 1914 #
DXID-attrib $-1 -1 $-1 $463 $422 @18 ASM_EDGE_FROM_STEP @4 1917 #
DXID-attrib $-1 -1 $-1 $467 $371 @18 ASM_FACE_FROM_STEP @16 step-1M-825-3109 #
DXID-attrib $-1 -1 $-1 $469 $434 @18 ASM_EDGE_FROM_STEP @4 1923 #
DXID-attrib $-1 -1 $-1 $472 $386 @18 ASM_FACE_FROM_STEP @16 step-1M-825-3111 #
DXID-attrib $-1 -1 $-1 $476 $448 @18 ASM_EDGE_FROM_STEP @4 1926 #
point $-1 -1 $-1 8.8499999999999996 2.6437052886080896 -1.316340331400089 #
DXID-attrib $-1 -1 $-1 $479 $453 @18 ASM_EDGE_FROM_STEP @4 1916 #
DXID-attrib $-1 -1 $-1 $483 $460 @18 ASM_EDGE_FROM_STEP @4 1925 #
