700 284 1 0         
5 ZWCAD 12 ACIS 28.0 NT 24 Sat May 11 13:58:28 2024 
1 9.9999999999999995e-07 1e-10 
body $1 -1 $-1 $2 $-1 $-1 #
DXID-attrib $-1 -1 $-1 $-1 $0 @18 ASM_BODY_FROM_STEP @83 80A23110DC1164FE9BC09DD2546D34E24264E20F|:|45B59F7C27945B71C09AD870330A45E88B49A8E2 #
lump $-1 -1 $-1 $-1 $3 $0 #
shell $-1 -1 $-1 $-1 $-1 $4 $-1 $2 #
face $5 -1 $-1 $6 $7 $3 $-1 $8 forward single #
truecolor-adesk-attrib $-1 -1 $9 $-1 $4 -1056964608 #
face $10 -1 $-1 $11 $12 $3 $-1 $13 reversed single #
loop $-1 -1 $-1 $-1 $14 $4 #
plane-surface $-1 -1 $-1 -12.41658409873283 -25.846228294416541 0 0 1 0 0 0 1 forward_v I I I I #
DXID-attrib $-1 -1 $-1 $5 $4 @18 ASM_FACE_FROM_STEP @16 step-1M-811-1019 #
truecolor-adesk-attrib $-1 -1 $15 $-1 $6 -1056964608 #
face $16 -1 $-1 $17 $18 $3 $-1 $19 reversed single #
loop $-1 -1 $-1 $-1 $20 $6 #
cone-surface $-1 -1 $-1 51.233415901267151 -25.846228294416541 -15.575000000000003 0 -1 0 0 0 -0.99999999999999756 1 I I 0 1 0.99999999999999756 forward I I I I #
coedge $-1 -1 $-1 $21 $22 $23 $24 reversed $7 $-1 #
DXID-attrib $-1 -1 $-1 $10 $6 @18 ASM_FACE_FROM_STEP @16 step-1M-811-2795 #
truecolor-adesk-attrib $-1 -1 $25 $-1 $11 -1056964608 #
face $26 -1 $-1 $27 $28 $3 $-1 $29 forward single #
loop $-1 -1 $-1 $-1 $30 $11 #
plane-surface $-1 -1 $-1 51.233415901267151 -25.846228294416541 0 -1 0 0 0 0 1 forward_v I I I I #
coedge $-1 -1 $-1 $31 $32 $33 $34 reversed $12 $-1 #
coedge $-1 -1 $-1 $35 $14 $30 $36 forward $7 $-1 #
coedge $-1 -1 $-1 $14 $35 $37 $38 reversed $7 $-1 #
coedge $-1 -1 $-1 $39 $40 $14 $24 forward $41 $-1 #
edge $42 -1 $-1 $43 -0.063649999999999984 $44 -0.028199999999999989 $14 $45 forward @7 unknown #
DXID-attrib $-1 -1 $-1 $16 $11 @18 ASM_FACE_FROM_STEP @16 step-1M-811-6345 #
truecolor-adesk-attrib $-1 -1 $46 $-1 $17 -1056964608 #
face $47 -1 $-1 $48 $49 $3 $-1 $50 forward single #
loop $-1 -1 $-1 $-1 $51 $17 #
plane-surface $-1 -1 $-1 -12.41658409873283 -25.846228294416541 -20.75 0 0 -1 -1 0 0 forward_v I I I I #
coedge $-1 -1 $-1 $52 $53 $21 $36 reversed $18 $-1 #
coedge $-1 -1 $-1 $54 $20 $55 $56 forward $12 $-1 #
coedge $-1 -1 $-1 $20 $54 $57 $58 reversed $12 $-1 #
coedge $-1 -1 $-1 $59 $60 $20 $34 forward $61 $-1 #
edge $62 -1 $-1 $63 -3.1415926535897931 $64 0 $20 $65 forward @7 unknown #
coedge $-1 -1 $-1 $22 $21 $66 $67 reversed $7 $-1 #
edge $68 -1 $-1 $43 0.020050000000000002 $69 0.020750000000000001 $21 $70 forward @7 unknown #
coedge $-1 -1 $-1 $71 $72 $22 $38 forward $49 $-1 #
edge $73 -1 $-1 $44 0.020050000000000002 $74 0.020750000000000001 $22 $75 forward @7 unknown #
coedge $-1 -1 $-1 $76 $23 $72 $77 forward $41 $-1 #
coedge $-1 -1 $-1 $23 $76 $52 $78 forward $41 $-1 #
loop $-1 -1 $-1 $-1 $39 $79 #
truecolor-adesk-attrib $-1 -1 $80 $-1 $24 -1056964608 #
vertex $-1 -1 $-1 $24 $81 #
vertex $-1 -1 $-1 $24 $82 #
straight-curve $-1 -1 $-1 -12.41658409873283 -25.846228294416541 -20.050000000000004 -1000 0 0 F -0.063649999999999984 F -0.028199999999999989 #
DXID-attrib $-1 -1 $-1 $26 $17 @18 ASM_FACE_FROM_STEP @16 step-1M-811-9393 #
truecolor-adesk-attrib $-1 -1 $83 $-1 $27 -1056964608 #
face $84 -1 $-1 $85 $86 $3 $-1 $87 reversed single #
loop $-1 -1 $-1 $-1 $72 $27 #
plane-surface $-1 -1 $-1 15.783415901267158 -25.846228294416541 0 -1 0 0 0 0 1 forward_v I I I I #
coedge $-1 -1 $-1 $88 $89 $90 $91 reversed $28 $-1 #
coedge $-1 -1 $-1 $92 $30 $40 $78 reversed $18 $-1 #
coedge $-1 -1 $-1 $30 $93 $89 $94 reversed $18 $-1 #
coedge $-1 -1 $-1 $32 $31 $95 $96 reversed $12 $-1 #
coedge $-1 -1 $-1 $97 $98 $31 $56 reversed $99 $-1 #
edge $100 -1 $-1 $63 0.00125 $101 0.0054999999999999997 $31 $102 forward @7 unknown #
coedge $-1 -1 $-1 $93 $92 $32 $58 forward $18 $-1 #
edge $103 -1 $-1 $64 0.00125 $104 0.0054999999999999997 $32 $105 forward @7 unknown #
coedge $-1 -1 $-1 $106 $33 $92 $107 forward $61 $-1 #
coedge $-1 -1 $-1 $33 $108 $97 $109 forward $61 $-1 #
loop $-1 -1 $-1 $-1 $33 $110 #
truecolor-adesk-attrib $-1 -1 $111 $-1 $34 -1056964608 #
vertex $-1 -1 $-1 $34 $112 #
vertex $-1 -1 $-1 $34 $113 #
ellipse-curve $-1 -1 $-1 51.233415901267151 -27.096228294416541 -15.575000000000003 0 -1 0 0 0 -0.99999999999999756 1 F -3.1415926535897931 F 0 #
coedge $-1 -1 $-1 $89 $88 $35 $67 forward $28 $-1 #
edge $114 -1 $-1 $74 0.028199999999999989 $69 0.063649999999999984 $35 $115 forward @7 unknown #
truecolor-adesk-attrib $-1 -1 $116 $-1 $36 -1056964608 #
vertex $-1 -1 $-1 $36 $117 #
straight-curve $-1 -1 $-1 51.233415901267151 -25.846228294416541 0 0 0 -1000 F 0.020050000000000002 F 0.020750000000000001 #
coedge $-1 -1 $-1 $118 $37 $88 $119 forward $49 $-1 #
coedge $-1 -1 $-1 $37 $120 $39 $77 reversed $49 $-1 #
truecolor-adesk-attrib $-1 -1 $121 $-1 $38 -1056964608 #
vertex $-1 -1 $-1 $67 $122 #
straight-curve $-1 -1 $-1 15.783415901267158 -25.846228294416541 0 0 0 -1000 F 0.020050000000000002 F 0.020750000000000001 #
coedge $-1 -1 $-1 $40 $39 $106 $123 forward $41 $-1 #
edge $124 -1 $-1 $44 0 $125 0.00125 $72 $126 forward @7 unknown #
edge $127 -1 $-1 $128 -0.0025000000000000001 $43 -0.00125 $52 $129 forward @7 unknown #
face $130 -1 $-1 $110 $41 $3 $-1 $131 reversed single #
DXID-attrib $-1 -1 $-1 $42 $24 @18 ASM_EDGE_FROM_STEP @4 1360 #
point $-1 -1 $-1 51.233415901267151 -25.846228294416541 -20.050000000000004 #
point $-1 -1 $-1 15.783415901267158 -25.846228294416541 -20.050000000000004 #
DXID-attrib $-1 -1 $-1 $47 $27 @18 ASM_FACE_FROM_STEP @16 step-1M-811-7960 #
truecolor-adesk-attrib $-1 -1 $132 $-1 $48 -1056964608 #
face $133 -1 $-1 $134 $99 $3 $-1 $135 reversed single #
loop $-1 -1 $-1 $-1 $136 $48 #
plane-surface $-1 -1 $-1 -12.41658409873283 -25.846228294416541 -10.400000000000002 0 0 -1 -1 0 0 forward_v I I I I #
coedge $-1 -1 $-1 $66 $51 $71 $119 reversed $28 $-1 #
coedge $-1 -1 $-1 $51 $66 $53 $94 forward $28 $-1 #
coedge $-1 -1 $-1 $137 $138 $51 $91 forward $139 $-1 #
edge $140 -1 $-1 $141 0.028199999999999989 $142 0.063649999999999984 $51 $143 forward @7 unknown #
coedge $-1 -1 $-1 $57 $52 $59 $107 reversed $18 $-1 #
coedge $-1 -1 $-1 $53 $57 $137 $144 forward $18 $-1 #
edge $145 -1 $-1 $69 0 $142 0.0054999999999999997 $53 $146 forward @7 unknown #
coedge $-1 -1 $-1 $147 $137 $54 $96 forward $139 $-1 #
edge $148 -1 $-1 $104 -3.1415926535897931 $101 0 $54 $149 forward @7 unknown #
coedge $-1 -1 $-1 $150 $55 $60 $109 reversed $99 $-1 #
coedge $-1 -1 $-1 $55 $151 $147 $152 forward $99 $-1 #
loop $-1 -1 $-1 $-1 $55 $85 #
truecolor-adesk-attrib $-1 -1 $153 $-1 $56 -1056964608 #
vertex $-1 -1 $-1 $56 $154 #
straight-curve $-1 -1 $-1 51.233415901267151 -25.846228294416541 -14.575000000000005 0 -1000 0 F 0.00125 F 0.0054999999999999997 #
truecolor-adesk-attrib $-1 -1 $155 $-1 $58 -1056964608 #
vertex $-1 -1 $-1 $96 $156 #
straight-curve $-1 -1 $-1 51.233415901267151 -25.846228294416541 -16.574999999999999 0 -1000 0 F 0.00125 F 0.0054999999999999997 #
coedge $-1 -1 $-1 $157 $59 $76 $123 reversed $61 $-1 #
edge $158 -1 $-1 $64 0.005474999999999999 $128 0.0089500000000000031 $92 $159 forward @7 unknown #
coedge $-1 -1 $-1 $60 $157 $160 $161 forward $61 $-1 #
edge $162 -1 $-1 $163 0 $63 0.0034750000000000037 $97 $164 forward @7 unknown #
face $165 -1 $-1 $166 $61 $3 $-1 $167 reversed single #
DXID-attrib $-1 -1 $-1 $62 $34 @18 ASM_EDGE_FROM_STEP @4 2618 #
point $-1 -1 $-1 51.233415901267151 -27.096228294416541 -14.575000000000005 #
point $-1 -1 $-1 51.233415901267151 -27.096228294416541 -16.574999999999999 #
truecolor-adesk-attrib $-1 -1 $168 $-1 $67 -1056964608 #
straight-curve $-1 -1 $-1 -12.41658409873283 -25.846228294416541 -20.75 1000 0 0 F 0.028199999999999989 F 0.063649999999999984 #
DXID-attrib $-1 -1 $-1 $68 $36 @18 ASM_EDGE_FROM_STEP @4 3259 #
point $-1 -1 $-1 51.233415901267151 -25.846228294416541 -20.75 #
coedge $-1 -1 $-1 $169 $71 $138 $170 reversed $49 $-1 #
edge $171 -1 $-1 $74 0 $141 0.0054999999999999997 $88 $172 forward @7 unknown #
coedge $-1 -1 $-1 $72 $173 $157 $174 reversed $49 $-1 #
DXID-attrib $-1 -1 $-1 $73 $38 @18 ASM_EDGE_FROM_STEP @4 9380 #
point $-1 -1 $-1 15.783415901267158 -25.846228294416541 -20.75 #
edge $175 -1 $-1 $125 0.0015500000000000069 $128 0.037000000000000005 $76 $176 forward @7 unknown #
truecolor-adesk-attrib $-1 -1 $177 $-1 $77 -1056964608 #
vertex $-1 -1 $-1 $77 $178 #
straight-curve $-1 -1 $-1 15.783415901267158 -25.846228294416541 -20.050000000000004 0 -1000 0 F 0 F 0.00125 #
truecolor-adesk-attrib $-1 -1 $179 $-1 $78 -1056964608 #
vertex $-1 -1 $-1 $78 $180 #
straight-curve $-1 -1 $-1 51.233415901267151 -24.596228294416541 -20.050000000000004 0 1000 0 F -0.0025000000000000001 F -0.00125 #
truecolor-adesk-attrib $-1 -1 $181 $-1 $79 -1056964608 #
plane-surface $-1 -1 $-1 14.233415901267154 -24.596228294416541 -20.050000000000004 0 0 -1 -1 0 0 forward_v I I I I #
DXID-attrib $-1 -1 $-1 $84 $48 @18 ASM_FACE_FROM_STEP @16 step-1M-811-7051 #
truecolor-adesk-attrib $-1 -1 $182 $-1 $85 -1056964608 #
face $183 -1 $-1 $184 $185 $3 $-1 $186 forward single #
plane-surface $-1 -1 $-1 51.233415901267151 -25.846228294416541 0 -1 0 0 0 0 1 forward_v I I I I #
coedge $-1 -1 $-1 $187 $188 $189 $190 forward $86 $-1 #
coedge $-1 -1 $-1 $95 $90 $93 $144 reversed $139 $-1 #
coedge $-1 -1 $-1 $90 $189 $118 $170 forward $139 $-1 #
loop $-1 -1 $-1 $-1 $95 $184 #
truecolor-adesk-attrib $-1 -1 $191 $-1 $91 -1056964608 #
vertex $-1 -1 $-1 $91 $192 #
vertex $-1 -1 $-1 $144 $193 #
straight-curve $-1 -1 $-1 -12.41658409873283 -31.346228294416541 -20.75 1000 0 0 F 0.028199999999999989 F 0.063649999999999984 #
edge $194 -1 $-1 $104 0.016574999999999999 $142 0.020750000000000001 $93 $195 forward @7 unknown #
truecolor-adesk-attrib $-1 -1 $196 $-1 $94 -1056964608 #
straight-curve $-1 -1 $-1 51.233415901267151 -25.846228294416541 -20.75 0 -1000 0 F 0 F 0.0054999999999999997 #
coedge $-1 -1 $-1 $189 $95 $98 $152 reversed $139 $-1 #
truecolor-adesk-attrib $-1 -1 $197 $-1 $96 -1056964608 #
ellipse-curve $-1 -1 $-1 51.233415901267151 -31.346228294416541 -15.575000000000003 0 1 0 0 0 0.99999999999999756 1 F -3.1415926535897931 F 0 #
coedge $-1 -1 $-1 $198 $97 $199 $200 reversed $99 $-1 #
coedge $-1 -1 $-1 $98 $198 $187 $201 forward $99 $-1 #
edge $202 -1 $-1 $203 0.010400000000000003 $101 0.014575000000000005 $98 $204 forward @7 unknown #
DXID-attrib $-1 -1 $-1 $100 $56 @18 ASM_EDGE_FROM_STEP @4 2211 #
point $-1 -1 $-1 51.233415901267151 -31.346228294416541 -14.575000000000005 #
DXID-attrib $-1 -1 $-1 $103 $58 @18 ASM_EDGE_FROM_STEP @4 7795 #
point $-1 -1 $-1 51.233415901267151 -31.346228294416541 -16.574999999999999 #
coedge $-1 -1 $-1 $108 $106 $120 $174 forward $61 $-1 #
truecolor-adesk-attrib $-1 -1 $205 $-1 $107 -1056964608 #
straight-curve $-1 -1 $-1 51.233415901267151 -27.096228294416541 -11.100000000000001 0 0 -1000 F 0.005474999999999999 F 0.0089500000000000031 #
coedge $-1 -1 $-1 $206 $199 $108 $161 reversed $207 $-1 #
edge $208 -1 $-1 $209 0.0015500000000000069 $163 0.037000000000000005 $108 $210 forward @7 unknown #
truecolor-adesk-attrib $-1 -1 $211 $-1 $109 -1056964608 #
vertex $-1 -1 $-1 $109 $212 #
straight-curve $-1 -1 $-1 51.233415901267151 -27.096228294416541 -11.100000000000001 0 0 -1000 F 0 F 0.0034750000000000037 #
truecolor-adesk-attrib $-1 -1 $213 $-1 $110 -1056964608 #
face $214 -1 $-1 $-1 $207 $3 $-1 $215 reversed single #
plane-surface $-1 -1 $-1 14.233415901267154 -27.096228294416541 -11.100000000000001 0 -1 0 0 0 -1 forward_v I I I I #
DXID-attrib $-1 -1 $-1 $114 $67 @18 ASM_EDGE_FROM_STEP @4 7628 #
coedge $-1 -1 $-1 $216 $118 $188 $217 reversed $49 $-1 #
edge $218 -1 $-1 $219 0.010400000000000003 $141 0.020750000000000001 $118 $220 forward @7 unknown #
truecolor-adesk-attrib $-1 -1 $221 $-1 $119 -1056964608 #
straight-curve $-1 -1 $-1 15.783415901267158 -25.846228294416541 -20.75 0 -1000 0 F 0 F 0.0054999999999999997 #
coedge $-1 -1 $-1 $120 $216 $206 $222 reversed $49 $-1 #
edge $223 -1 $-1 $125 -0.020050000000000002 $209 -0.0111 $120 $224 forward @7 unknown #
truecolor-adesk-attrib $-1 -1 $225 $-1 $123 -1056964608 #
straight-curve $-1 -1 $-1 14.233415901267154 -27.096228294416541 -20.050000000000004 1000 0 0 F 0.0015500000000000069 F 0.037000000000000005 #
DXID-attrib $-1 -1 $-1 $124 $77 @18 ASM_EDGE_FROM_STEP @2 16 #
point $-1 -1 $-1 15.783415901267158 -27.096228294416541 -20.050000000000004 #
DXID-attrib $-1 -1 $-1 $127 $78 @18 ASM_EDGE_FROM_STEP @4 3559 #
point $-1 -1 $-1 51.233415901267151 -27.096228294416541 -20.050000000000004 #
DXID-attrib $-1 -1 $-1 $130 $79 @18 ASM_FACE_FROM_STEP @16 step-1M-811-5734 #
DXID-attrib $-1 -1 $-1 $133 $85 @18 ASM_FACE_FROM_STEP @15 step-1M-811-534 #
truecolor-adesk-attrib $-1 -1 $226 $-1 $134 -1056964608 #
face $227 -1 $-1 $79 $139 $3 $-1 $228 reversed single #
loop $-1 -1 $-1 $-1 $229 $134 #
plane-surface $-1 -1 $-1 -12.41658409873283 -25.846228294416541 0 0 1 0 0 0 1 forward_v I I I I #
coedge $-1 -1 $-1 $230 $136 $151 $201 reversed $86 $-1 #
coedge $-1 -1 $-1 $136 $230 $169 $217 forward $86 $-1 #
coedge $-1 -1 $-1 $138 $147 $136 $190 reversed $139 $-1 #
edge $231 -1 $-1 $219 0.028199999999999989 $203 0.063649999999999984 $136 $232 forward @7 unknown #
DXID-attrib $-1 -1 $-1 $140 $91 @18 ASM_EDGE_FROM_STEP @4 9328 #
point $-1 -1 $-1 15.783415901267158 -31.346228294416541 -20.75 #
point $-1 -1 $-1 51.233415901267151 -31.346228294416541 -20.75 #
truecolor-adesk-attrib $-1 -1 $233 $-1 $144 -1056964608 #
straight-curve $-1 -1 $-1 51.233415901267151 -31.346228294416541 0 0 0 -1000 F 0.016574999999999999 F 0.020750000000000001 #
DXID-attrib $-1 -1 $-1 $145 $94 @18 ASM_EDGE_FROM_STEP @4 9521 #
DXID-attrib $-1 -1 $-1 $148 $96 @18 ASM_EDGE_FROM_STEP @4 9603 #
coedge $-1 -1 $-1 $151 $150 $234 $235 reversed $99 $-1 #
coedge $-1 -1 $-1 $160 $236 $150 $200 forward $207 $-1 #
edge $237 -1 $-1 $238 0.00125 $163 0.0025000000000000001 $150 $239 forward @7 unknown #
edge $240 -1 $-1 $241 0 $203 0.0054999999999999997 $187 $242 forward @7 unknown #
truecolor-adesk-attrib $-1 -1 $243 $-1 $152 -1056964608 #
vertex $-1 -1 $-1 $190 $244 #
straight-curve $-1 -1 $-1 51.233415901267151 -31.346228294416541 0 0 0 -1000 F 0.010400000000000003 F 0.014575000000000005 #
DXID-attrib $-1 -1 $-1 $158 $107 @18 ASM_EDGE_FROM_STEP @4 7377 #
coedge $-1 -1 $-1 $236 $160 $173 $222 forward $207 $-1 #
loop $-1 -1 $-1 $-1 $206 $166 #
truecolor-adesk-attrib $-1 -1 $245 $-1 $161 -1056964608 #
vertex $-1 -1 $-1 $222 $246 #
straight-curve $-1 -1 $-1 14.233415901267154 -27.096228294416541 -11.100000000000001 1000 0 0 F 0.0015500000000000069 F 0.037000000000000005 #
DXID-attrib $-1 -1 $-1 $162 $109 @18 ASM_EDGE_FROM_STEP @4 6213 #
point $-1 -1 $-1 51.233415901267151 -27.096228294416541 -11.100000000000001 #
DXID-attrib $-1 -1 $-1 $165 $110 @18 ASM_FACE_FROM_STEP @15 step-1M-811-642 #
truecolor-adesk-attrib $-1 -1 $247 $-1 $166 -1056964608 #
plane-surface $-1 -1 $-1 14.233415901267154 -24.596228294416541 -11.099999999999998 0 -6.9388939039072284e-16 1 0 -1 -6.9388939039072284e-16 forward_v I I I I #
coedge $-1 -1 $-1 $173 $169 $248 $249 forward $49 $-1 #
edge $250 -1 $-1 $251 0 $219 0.0054999999999999997 $169 $252 forward @7 unknown #
truecolor-adesk-attrib $-1 -1 $253 $-1 $170 -1056964608 #
vertex $-1 -1 $-1 $170 $254 #
straight-curve $-1 -1 $-1 15.783415901267158 -31.346228294416541 0 0 0 -1000 F 0.010400000000000003 F 0.020750000000000001 #
DXID-attrib $-1 -1 $-1 $171 $119 @18 ASM_EDGE_FROM_STEP @3 763 #
edge $255 -1 $-1 $209 -0.0012500000000000089 $256 -8.8817841970012525e-18 $173 $257 forward @7 unknown #
truecolor-adesk-attrib $-1 -1 $258 $-1 $174 -1056964608 #
straight-curve $-1 -1 $-1 15.783415901267158 -27.096228294416541 0 0 0 1000 F -0.020050000000000002 F -0.0111 #
DXID-attrib $-1 -1 $-1 $175 $123 @18 ASM_EDGE_FROM_STEP @4 3863 #
DXID-attrib $-1 -1 $-1 $183 $134 @18 ASM_FACE_FROM_STEP @14 step-1M-811-25 #
truecolor-adesk-attrib $-1 -1 $259 $-1 $184 -1056964608 #
plane-surface $-1 -1 $-1 -12.41658409873283 -31.346228294416541 0 0 1 0 0 0 1 forward_v I I I I #
coedge $-1 -1 $-1 $248 $234 $236 $260 reversed $185 $-1 #
coedge $-1 -1 $-1 $188 $187 $261 $262 reversed $86 $-1 #
truecolor-adesk-attrib $-1 -1 $263 $-1 $190 -1056964608 #
straight-curve $-1 -1 $-1 -12.41658409873283 -31.346228294416541 -10.400000000000002 1000 0 0 F 0.028199999999999989 F 0.063649999999999984 #
DXID-attrib $-1 -1 $-1 $194 $144 @18 ASM_EDGE_FROM_STEP @4 1082 #
coedge $-1 -1 $-1 $229 $261 $198 $235 forward $185 $-1 #
edge $264 -1 $-1 $241 0.010400000000000003 $238 0.011099999999999999 $198 $265 forward @7 unknown #
coedge $-1 -1 $-1 $199 $206 $229 $260 forward $207 $-1 #
truecolor-adesk-attrib $-1 -1 $266 $-1 $200 -1056964608 #
vertex $-1 -1 $-1 $200 $267 #
straight-curve $-1 -1 $-1 51.233415901267151 -24.596228294416541 -11.099999999999998 0 -1000 -6.9388939039072284e-13 F 0.00125 F 0.0025000000000000001 #
truecolor-adesk-attrib $-1 -1 $268 $-1 $201 -1056964608 #
vertex $-1 -1 $-1 $201 $269 #
straight-curve $-1 -1 $-1 51.233415901267151 -25.846228294416541 -10.400000000000002 0 -1000 0 F 0 F 0.0054999999999999997 #
DXID-attrib $-1 -1 $-1 $202 $152 @18 ASM_EDGE_FROM_STEP @4 3986 #
point $-1 -1 $-1 51.233415901267151 -31.346228294416541 -10.400000000000002 #
DXID-attrib $-1 -1 $-1 $208 $161 @18 ASM_EDGE_FROM_STEP @4 7238 #
point $-1 -1 $-1 15.783415901267158 -27.096228294416541 -11.100000000000001 #
DXID-attrib $-1 -1 $-1 $214 $166 @18 ASM_FACE_FROM_STEP @16 step-1M-811-8076 #
coedge $-1 -1 $-1 $261 $229 $216 $249 reversed $185 $-1 #
edge $270 -1 $-1 $251 0.010400000000000003 $256 0.0111 $216 $271 forward @7 unknown #
truecolor-adesk-attrib $-1 -1 $272 $-1 $217 -1056964608 #
vertex $-1 -1 $-1 $217 $273 #
straight-curve $-1 -1 $-1 15.783415901267158 -25.846228294416541 -10.400000000000002 0 -1000 0 F 0 F 0.0054999999999999997 #
DXID-attrib $-1 -1 $-1 $218 $170 @18 ASM_EDGE_FROM_STEP @4 6247 #
point $-1 -1 $-1 15.783415901267158 -31.346228294416541 -10.400000000000002 #
truecolor-adesk-attrib $-1 -1 $274 $-1 $222 -1056964608 #
vertex $-1 -1 $-1 $249 $275 #
straight-curve $-1 -1 $-1 15.783415901267158 -25.846228294416534 -11.100000000000001 0 1000 6.9388939039072284e-13 F -0.0012500000000000089 F -8.8817841970012525e-18 #
DXID-attrib $-1 -1 $-1 $223 $174 @18 ASM_EDGE_FROM_STEP @4 2460 #
DXID-attrib $-1 -1 $-1 $227 $184 @18 ASM_FACE_FROM_STEP @16 step-1M-811-3310 #
edge $276 -1 $-1 $256 0.028199999999999989 $238 0.063649999999999984 $229 $277 forward @7 unknown #
coedge $-1 -1 $-1 $234 $248 $230 $262 forward $185 $-1 #
edge $278 -1 $-1 $251 0.028199999999999989 $241 0.063649999999999984 $230 $279 forward @7 unknown #
DXID-attrib $-1 -1 $-1 $231 $190 @18 ASM_EDGE_FROM_STEP @4 8338 #
truecolor-adesk-attrib $-1 -1 $280 $-1 $235 -1056964608 #
straight-curve $-1 -1 $-1 51.233415901267151 -25.846228294416541 0 0 0 -1000 F 0.010400000000000003 F 0.011099999999999999 #
DXID-attrib $-1 -1 $-1 $237 $200 @18 ASM_EDGE_FROM_STEP @4 6280 #
point $-1 -1 $-1 51.233415901267151 -25.846228294416541 -11.099999999999998 #
DXID-attrib $-1 -1 $-1 $240 $201 @18 ASM_EDGE_FROM_STEP @4 1922 #
point $-1 -1 $-1 51.233415901267151 -25.846228294416541 -10.400000000000002 #
truecolor-adesk-attrib $-1 -1 $281 $-1 $249 -1056964608 #
straight-curve $-1 -1 $-1 15.783415901267158 -25.846228294416541 0 0 0 -1000 F 0.010400000000000003 F 0.0111 #
DXID-attrib $-1 -1 $-1 $250 $217 @18 ASM_EDGE_FROM_STEP @4 2805 #
point $-1 -1 $-1 15.783415901267158 -25.846228294416541 -10.400000000000002 #
DXID-attrib $-1 -1 $-1 $255 $222 @18 ASM_EDGE_FROM_STEP @4 1633 #
point $-1 -1 $-1 15.783415901267158 -25.846228294416541 -11.100000000000001 #
truecolor-adesk-attrib $-1 -1 $282 $-1 $260 -1056964608 #
straight-curve $-1 -1 $-1 -12.41658409873283 -25.846228294416541 -11.100000000000001 1000 0 0 F 0.028199999999999989 F 0.063649999999999984 #
truecolor-adesk-attrib $-1 -1 $283 $-1 $262 -1056964608 #
straight-curve $-1 -1 $-1 -12.41658409873283 -25.846228294416541 -10.400000000000002 1000 0 0 F 0.028199999999999989 F 0.063649999999999984 #
DXID-attrib $-1 -1 $-1 $264 $235 @18 ASM_EDGE_FROM_STEP @4 1237 #
DXID-attrib $-1 -1 $-1 $270 $249 @18 ASM_EDGE_FROM_STEP @5 10085 #
DXID-attrib $-1 -1 $-1 $276 $260 @18 ASM_EDGE_FROM_STEP @4 1489 #
DXID-attrib $-1 -1 $-1 $278 $262 @18 ASM_EDGE_FROM_STEP @4 6868 #
