700 444 1 0         
5 ZWCAD 12 ACIS 28.0 NT 24 Sat May 11 14:44:23 2024 
1 9.9999999999999995e-07 1e-10 
body $1 -1 $-1 $2 $-1 $-1 #
DXID-attrib $-1 -1 $-1 $-1 $0 @18 ASM_BODY_FROM_STEP @83 066028570739F4442F1FD6AE90092A7F5B739637|:|844D61CBB36E013017CC9F46B6B7844982243937 #
lump $-1 -1 $-1 $-1 $3 $0 #
shell $-1 -1 $-1 $-1 $-1 $4 $-1 $2 #
face $5 -1 $-1 $6 $7 $3 $-1 $8 reversed single #
truecolor-adesk-attrib $-1 -1 $9 $-1 $4 -1027555136 #
face $10 -1 $-1 $11 $12 $3 $-1 $13 reversed single #
loop $-1 -1 $-1 $-1 $14 $4 #
cone-surface $-1 -1 $-1 12.703689697531491 208.35606169623713 323.79970709771777 -4.2751980367795336e-16 0.99750723801175567 0.070564226872818381 1.9768228465726327 0.075825240825228124 -1.0718777757385742 1 I I 0 1 2.2500000000000004 forward I I I I #
DXID-attrib $-1 -1 $-1 $5 $4 @18 ASM_FACE_FROM_STEP @15 step-1M-819-957 #
truecolor-adesk-attrib $-1 -1 $15 $-1 $6 -1027555136 #
face $16 -1 $-1 $17 $18 $3 $-1 $19 reversed single #
loop $-1 -1 $-1 $-1 $20 $6 #
cone-surface $-1 -1 $-1 4.4317507577593229 209.42987912486646 308.62005155792855 -4.2751980367795336e-16 0.99750723801175567 0.070564226872818381 1.9768228465726327 0.075825240825228124 -1.0718777757385742 1 I I 0 1 2.2500000000000004 forward I I I I #
coedge $-1 -1 $-1 $21 $22 $23 $24 reversed $7 $-1 #
DXID-attrib $-1 -1 $-1 $10 $6 @18 ASM_FACE_FROM_STEP @15 step-1M-819-153 #
truecolor-adesk-attrib $-1 -1 $25 $-1 $11 -1027555136 #
face $26 -1 $-1 $27 $28 $3 $-1 $29 reversed single #
loop $-1 -1 $-1 $-1 $30 $11 #
cone-surface $-1 -1 $-1 -4.611098749505441 208.38746880505028 323.35573116608037 -4.2751980367795336e-16 0.99750723801175567 0.070564226872818381 1.9768228465726327 0.075825240825228124 -1.0718777757385742 1 I I 0 1 2.2500000000000004 forward I I I I #
coedge $-1 -1 $-1 $31 $32 $33 $34 reversed $12 $-1 #
coedge $-1 -1 $-1 $35 $14 $36 $37 forward $7 $-1 #
coedge $-1 -1 $-1 $14 $35 $38 $39 reversed $7 $-1 #
coedge $-1 -1 $-1 $40 $40 $14 $24 forward $41 $-1 #
edge $42 -1 $-1 $43 0 $44 3.1415926535897931 $14 $45 forward @7 unknown #
DXID-attrib $-1 -1 $-1 $16 $11 @18 ASM_FACE_FROM_STEP @17 step-1M-819-11552 #
truecolor-adesk-attrib $-1 -1 $46 $-1 $17 -1027555136 #
face $47 -1 $-1 $48 $49 $3 $-1 $50 forward single #
loop $-1 -1 $-1 $-1 $51 $17 #
cone-surface $-1 -1 $-1 4.1747805685951391 227.17935128584011 319.89733870194959 -4.2751980367795336e-16 0.99750723801175567 0.070564226872818381 3.9536456931452655 0.15165048165045625 -2.1437555514771485 1 I I 0.70710678118654879 0.70710678118654635 4.5000000000000009 forward I I I I #
coedge $-1 -1 $-1 $52 $53 $54 $55 reversed $18 $-1 #
coedge $-1 -1 $-1 $56 $20 $57 $58 forward $12 $-1 #
coedge $-1 -1 $-1 $20 $56 $59 $60 reversed $12 $-1 #
coedge $-1 -1 $-1 $61 $61 $20 $34 forward $62 $-1 #
edge $63 -1 $-1 $64 0 $65 3.1415926535897931 $20 $66 forward @7 unknown #
coedge $-1 -1 $-1 $22 $21 $67 $68 forward $7 $-1 #
coedge $-1 -1 $-1 $69 $70 $21 $37 reversed $71 $-1 #
edge $72 -1 $-1 $43 0.017001000000000002 $73 0.018501000000000004 $21 $74 forward @7 unknown #
coedge $-1 -1 $-1 $70 $69 $22 $39 forward $71 $-1 #
edge $75 -1 $-1 $44 0.017001000000000002 $76 0.018501000000000004 $22 $77 forward @7 unknown #
coedge $-1 -1 $-1 $23 $23 $69 $78 forward $41 $-1 #
loop $-1 -1 $-1 $62 $40 $79 #
truecolor-adesk-attrib $-1 -1 $80 $-1 $24 -1027555136 #
vertex $-1 -1 $-1 $24 $81 #
vertex $-1 -1 $-1 $24 $82 #
ellipse-curve $-1 -1 $-1 12.703689697531484 225.314682249675 324.9993695187826 -4.2751980367795336e-16 0.99750723801175567 0.070564226872818381 -1.9768228465726323 -0.07582524082522811 1.071877775738574 1 F 0 F 3.1415926535897931 #
DXID-attrib $-1 -1 $-1 $26 $17 @18 ASM_FACE_FROM_STEP @17 step-1M-819-10534 #
truecolor-adesk-attrib $-1 -1 $83 $-1 $27 -1027555136 #
face $84 -1 $-1 $85 $86 $3 $-1 $87 forward single #
loop $-1 -1 $-1 $-1 $88 $27 #
sphere-surface $-1 -1 $-1 4.1747805685951445 213.7130035726814 318.94472163916657 5.0000000000000036 -0.47758061735975393 0.061996878147965069 -0.87639782121031251 -0.87858793181005879 -0.033700107033434713 0.4763901225504773 forward_v I I I I #
coedge $-1 -1 $-1 $89 $90 $91 $92 reversed $28 $-1 #
coedge $-1 -1 $-1 $93 $30 $94 $95 forward $18 $-1 #
coedge $-1 -1 $-1 $30 $93 $96 $97 reversed $18 $-1 #
coedge $-1 -1 $-1 $98 $98 $30 $55 forward $99 $-1 #
edge $100 -1 $-1 $101 -1.2246467991473522e-16 $102 3.1415926535897931 $30 $103 forward @7 unknown #
coedge $-1 -1 $-1 $32 $31 $104 $105 forward $12 $-1 #
coedge $-1 -1 $-1 $106 $107 $31 $58 reversed $108 $-1 #
edge $109 -1 $-1 $64 0.017001000000000002 $110 0.018501000000000004 $31 $111 forward @7 unknown #
coedge $-1 -1 $-1 $107 $106 $32 $60 forward $108 $-1 #
edge $112 -1 $-1 $65 0.017001000000000002 $113 0.018501000000000004 $32 $114 forward @7 unknown #
coedge $-1 -1 $-1 $33 $33 $106 $115 forward $62 $-1 #
loop $-1 -1 $-1 $99 $61 $79 #
truecolor-adesk-attrib $-1 -1 $116 $-1 $34 -1027555136 #
vertex $-1 -1 $-1 $34 $117 #
vertex $-1 -1 $-1 $34 $118 #
ellipse-curve $-1 -1 $-1 4.4317507577593158 226.3884996783043 309.81971397899332 -4.2751980367795336e-16 0.99750723801175567 0.070564226872818381 -1.9768228465726323 -0.07582524082522811 1.071877775738574 1 F 0 F 3.1415926535897931 #
coedge $-1 -1 $-1 $119 $119 $35 $68 reversed $120 $-1 #
edge $121 -1 $-1 $73 1.047197551196593 $76 4.1887902047863861 $35 $122 forward @7 unknown #
coedge $-1 -1 $-1 $38 $36 $40 $78 reversed $71 $-1 #
coedge $-1 -1 $-1 $36 $38 $119 $123 forward $71 $-1 #
loop $-1 -1 $-1 $-1 $36 $124 #
truecolor-adesk-attrib $-1 -1 $125 $-1 $37 -1027555136 #
vertex $-1 -1 $-1 $37 $126 #
straight-curve $-1 -1 $-1 10.726866850958858 208.28023645541191 324.87158487345636 -4.2751980367795334e-13 997.5072380117557 70.564226872818381 F 0.017001000000000002 F 0.018501000000000004 #
truecolor-adesk-attrib $-1 -1 $127 $-1 $39 -1027555136 #
vertex $-1 -1 $-1 $68 $128 #
straight-curve $-1 -1 $-1 14.680512544104122 208.43188693706236 322.72782932197919 -4.2751980367795334e-13 997.5072380117557 70.564226872818381 F 0.017001000000000002 F 0.018501000000000004 #
edge $129 -1 $-1 $44 -3.1415926535897931 $43 0 $40 $130 forward @7 unknown #
face $131 -1 $-1 $132 $133 $3 $-1 $134 forward single #
DXID-attrib $-1 -1 $-1 $42 $24 @18 ASM_EDGE_FROM_STEP @5 12296 #
point $-1 -1 $-1 10.726866850958851 225.23885700884978 326.07124729452113 #
point $-1 -1 $-1 14.680512544104115 225.39050749050023 323.92749174304402 #
DXID-attrib $-1 -1 $-1 $47 $27 @18 ASM_FACE_FROM_STEP @16 step-1M-819-5371 #
truecolor-adesk-attrib $-1 -1 $135 $-1 $48 -1027555136 #
face $136 -1 $-1 $137 $138 $3 $-1 $139 forward single #
loop $-1 -1 $-1 $-1 $140 $48 #
cone-surface $-1 -1 $-1 4.1747805685951391 227.17935128584011 319.89733870194959 -4.2751980367795336e-16 0.99750723801175567 0.070564226872818381 2.6357637954301762 0.10110032110030415 -1.429170367651432 1 I I 0 1 3.0000000000000004 forward I I I I #
coedge $-1 -1 $-1 $141 $142 $143 $144 reversed $49 $-1 #
coedge $-1 -1 $-1 $145 $51 $146 $147 forward $28 $-1 #
coedge $-1 -1 $-1 $51 $145 $148 $149 reversed $28 $-1 #
coedge $-1 -1 $-1 $150 $150 $51 $92 forward $151 $-1 #
edge $152 -1 $-1 $153 -3.1415926535897931 $154 0 $51 $155 forward @7 unknown #
coedge $-1 -1 $-1 $53 $52 $156 $157 forward $18 $-1 #
coedge $-1 -1 $-1 $158 $159 $52 $95 reversed $160 $-1 #
edge $161 -1 $-1 $101 0.017001000000000002 $162 0.018501000000000004 $52 $163 forward @7 unknown #
coedge $-1 -1 $-1 $159 $158 $53 $97 forward $160 $-1 #
edge $164 -1 $-1 $102 0.017001000000000002 $165 0.018501000000000004 $53 $166 forward @7 unknown #
coedge $-1 -1 $-1 $54 $54 $158 $167 forward $99 $-1 #
loop $-1 -1 $-1 $168 $98 $79 #
truecolor-adesk-attrib $-1 -1 $169 $-1 $55 -1027555136 #
vertex $-1 -1 $-1 $55 $170 #
vertex $-1 -1 $-1 $55 $171 #
ellipse-curve $-1 -1 $-1 -4.6110987495054481 225.34608935848814 324.55539358714515 -4.2751980367795336e-16 0.99750723801175567 0.070564226872818381 -1.9768228465726327 -0.075825240825228124 1.0718777757385742 1 F -1.2246467991473522e-16 F 3.1415926535897931 #
coedge $-1 -1 $-1 $172 $172 $56 $105 reversed $173 $-1 #
edge $174 -1 $-1 $110 -1.047197551196607 $113 2.0943951023931864 $56 $175 forward @7 unknown #
coedge $-1 -1 $-1 $59 $57 $61 $115 reversed $108 $-1 #
coedge $-1 -1 $-1 $57 $59 $172 $176 forward $108 $-1 #
loop $-1 -1 $-1 $-1 $57 $177 #
truecolor-adesk-attrib $-1 -1 $178 $-1 $58 -1027555136 #
vertex $-1 -1 $-1 $58 $179 #
straight-curve $-1 -1 $-1 2.4549279111866915 209.35405388404124 309.69192933366713 -4.2751980367795334e-13 997.5072380117557 70.564226872818381 F 0.017001000000000002 F 0.018501000000000004 #
truecolor-adesk-attrib $-1 -1 $180 $-1 $60 -1027555136 #
vertex $-1 -1 $-1 $105 $181 #
straight-curve $-1 -1 $-1 6.4085736043319574 209.50570436569168 307.54817378218996 -4.2751980367795334e-13 997.5072380117557 70.564226872818381 F 0.017001000000000002 F 0.018501000000000004 #
edge $182 -1 $-1 $65 -3.1415926535897931 $64 0 $61 $183 forward @7 unknown #
DXID-attrib $-1 -1 $-1 $63 $34 @18 ASM_EDGE_FROM_STEP @4 9467 #
point $-1 -1 $-1 2.4549279111866844 226.31267443747907 310.89159175473191 #
point $-1 -1 $-1 6.4085736043319503 226.46432491912955 308.74783620325479 #
coedge $-1 -1 $-1 $67 $67 $70 $123 reversed $120 $-1 #
loop $-1 -1 $-1 $173 $119 $184 #
truecolor-adesk-attrib $-1 -1 $185 $-1 $68 -1027555136 #
ellipse-curve $-1 -1 $-1 12.703689697531484 226.81094310669263 325.1052158590918 -4.2751980367795336e-16 0.99750723801175567 0.070564226872818381 -1.9190045540106779 0.082891840308184056 -1.1717723603569967 1 F 1.047197551196593 F 4.1887902047863861 #
edge $186 -1 $-1 $76 -2.0943951023932001 $73 1.047197551196593 $119 $187 forward @7 unknown #
face $188 -1 $-1 $-1 $71 $3 $-1 $189 reversed single #
DXID-attrib $-1 -1 $-1 $72 $37 @18 ASM_EDGE_FROM_STEP @4 9085 #
point $-1 -1 $-1 10.726866850958851 226.73511786586741 326.17709363483038 #
DXID-attrib $-1 -1 $-1 $75 $39 @18 ASM_EDGE_FROM_STEP @4 6489 #
point $-1 -1 $-1 14.680512544104115 226.88676834751786 324.03333808335321 #
truecolor-adesk-attrib $-1 -1 $190 $-1 $78 -1027555136 #
ellipse-curve $-1 -1 $-1 12.703689697531484 225.314682249675 324.9993695187826 -4.2751980367795336e-16 0.99750723801175567 0.070564226872818381 -1.9768228465726323 -0.07582524082522811 1.071877775738574 1 F -3.1415926535897931 F 0 #
truecolor-adesk-attrib $-1 -1 $191 $-1 $79 -1027555136 #
face $192 -1 $-1 $193 $194 $3 $-1 $195 forward single #
loop $-1 -1 $-1 $41 $196 $79 #
plane-surface $-1 -1 $-1 4.17478056859514 225.68309042882248 319.79149236164039 4.2751980367795336e-16 -0.99750723801175567 -0.070564226872818381 -0.87858793181005879 -0.033700107033434713 0.4763901225504773 forward_v I I I I #
DXID-attrib $-1 -1 $-1 $84 $48 @18 ASM_FACE_FROM_STEP @17 step-1M-819-10628 #
truecolor-adesk-attrib $-1 -1 $197 $-1 $85 -1027555136 #
face $198 -1 $-1 $184 $199 $3 $-1 $200 forward single #
loop $-1 -1 $-1 $-1 $201 $85 #
cone-surface $-1 -1 $-1 4.17478056859514 225.18433680981661 319.75621024820396 -4.2751980367795336e-16 0.99750723801175567 0.070564226872818381 3.9536456931452655 0.15165048165045625 -2.1437555514771485 1 I I 0.70710678118654702 0.70710678118654802 4.5000000000000009 forward I I I I #
coedge $-1 -1 $-1 $202 $203 $204 $205 forward $86 $-1 #
coedge $-1 -1 $-1 $142 $88 $206 $207 reversed $49 $-1 #
coedge $-1 -1 $-1 $88 $141 $202 $208 reversed $49 $-1 #
coedge $-1 -1 $-1 $204 $209 $88 $144 forward $210 $-1 #
edge $211 -1 $-1 $212 -0.92729521800161208 $213 4.0688878715914054 $88 $214 forward @7 unknown #
coedge $-1 -1 $-1 $90 $89 $215 $216 forward $28 $-1 #
coedge $-1 -1 $-1 $217 $218 $89 $147 reversed $219 $-1 #
edge $220 -1 $-1 $153 -0.00070710678118654903 $221 0 $89 $222 forward @7 unknown #
coedge $-1 -1 $-1 $218 $217 $90 $149 forward $219 $-1 #
edge $223 -1 $-1 $154 -0.00070710678118654903 $224 0 $90 $225 forward @7 unknown #
coedge $-1 -1 $-1 $91 $91 $217 $226 forward $151 $-1 #
loop $-1 -1 $-1 $-1 $150 $227 #
truecolor-adesk-attrib $-1 -1 $228 $-1 $92 -1027555136 #
vertex $-1 -1 $-1 $92 $229 #
vertex $-1 -1 $-1 $92 $230 #
ellipse-curve $-1 -1 $-1 4.1747805685951391 226.68059766683425 319.86205658851316 -4.2751980367795336e-16 0.99750723801175567 0.070564226872818381 3.5143517272402343 0.13480042813373883 -1.9055604902019088 1 F -3.1415926535897931 F 0 #
coedge $-1 -1 $-1 $231 $231 $93 $157 reversed $232 $-1 #
edge $233 -1 $-1 $162 -3.1415926535897931 $165 0 $93 $234 forward @7 unknown #
coedge $-1 -1 $-1 $96 $94 $98 $167 reversed $160 $-1 #
coedge $-1 -1 $-1 $94 $96 $231 $235 forward $160 $-1 #
loop $-1 -1 $-1 $-1 $94 $236 #
truecolor-adesk-attrib $-1 -1 $237 $-1 $95 -1027555136 #
vertex $-1 -1 $-1 $95 $238 #
straight-curve $-1 -1 $-1 -6.5879215960780737 208.31164356422505 324.4276089418189 -4.2751980367795334e-13 997.5072380117557 70.564226872818381 F 0.017001000000000002 F 0.018501000000000004 #
truecolor-adesk-attrib $-1 -1 $239 $-1 $97 -1027555136 #
vertex $-1 -1 $-1 $157 $240 #
straight-curve $-1 -1 $-1 -2.6342759029328082 208.4632940458755 322.28385339034179 -4.2751980367795334e-13 997.5072380117557 70.564226872818381 F 0.017001000000000002 F 0.018501000000000004 #
edge $241 -1 $-1 $102 -3.1415926535897931 $101 -1.2246467991473522e-16 $98 $242 forward @7 unknown #
loop $-1 -1 $-1 $-1 $243 $79 #
DXID-attrib $-1 -1 $-1 $100 $55 @18 ASM_EDGE_FROM_STEP @4 1127 #
point $-1 -1 $-1 -6.5879215960780808 225.27026411766289 325.62727136288373 #
point $-1 -1 $-1 -2.6342759029328153 225.42191459931337 323.48351581140656 #
coedge $-1 -1 $-1 $104 $104 $107 $176 reversed $173 $-1 #
loop $-1 -1 $-1 $232 $172 $184 #
truecolor-adesk-attrib $-1 -1 $244 $-1 $105 -1027555136 #
ellipse-curve $-1 -1 $-1 4.4317507577593149 227.88476053532196 309.92556031930258 -4.2751980367795336e-16 0.99750723801175567 0.070564226872818381 -0.057818292561940265 -0.15871708113341279 2.2436501360955794 1 F -1.047197551196607 F 2.0943951023931864 #
edge $245 -1 $-1 $113 2.0943951023931864 $110 5.2359877559829791 $172 $246 forward @7 unknown #
face $247 -1 $-1 $124 $108 $3 $-1 $248 reversed single #
DXID-attrib $-1 -1 $-1 $109 $58 @18 ASM_EDGE_FROM_STEP @5 11093 #
point $-1 -1 $-1 2.4549279111866835 227.80893529449671 310.99743809504116 #
DXID-attrib $-1 -1 $-1 $112 $60 @18 ASM_EDGE_FROM_STEP @4 5292 #
point $-1 -1 $-1 6.4085736043319494 227.96058577614718 308.85368254356399 #
truecolor-adesk-attrib $-1 -1 $249 $-1 $115 -1027555136 #
ellipse-curve $-1 -1 $-1 4.4317507577593158 226.3884996783043 309.81971397899332 -4.2751980367795336e-16 0.99750723801175567 0.070564226872818381 -1.9768228465726323 -0.07582524082522811 1.071877775738574 1 F -3.1415926535897931 F 0 #
face $250 -1 $-1 $251 $252 $3 $-1 $253 reversed single #
DXID-attrib $-1 -1 $-1 $121 $68 @18 ASM_EDGE_FROM_STEP @3 519 #
truecolor-adesk-attrib $-1 -1 $254 $-1 $123 -1027555136 #
ellipse-curve $-1 -1 $-1 12.703689697531484 226.81094310669263 325.1052158590918 -4.2751980367795336e-16 0.99750723801175567 0.070564226872818381 -1.9190045540106779 0.082891840308184056 -1.1717723603569967 1 F -2.0943951023932001 F 1.047197551196593 #
truecolor-adesk-attrib $-1 -1 $255 $-1 $124 -1027555136 #
cone-surface $-1 -1 $-1 12.703689697531491 208.35606169623713 323.79970709771777 -4.2751980367795336e-16 0.99750723801175567 0.070564226872818381 1.9768228465726327 0.075825240825228124 -1.0718777757385742 1 I I 0 1 2.2500000000000004 forward I I I I #
DXID-attrib $-1 -1 $-1 $129 $78 @18 ASM_EDGE_FROM_STEP @4 7967 #
DXID-attrib $-1 -1 $-1 $131 $79 @18 ASM_FACE_FROM_STEP @16 step-1M-819-8031 #
truecolor-adesk-attrib $-1 -1 $256 $-1 $132 -1027555136 #
face $257 -1 $-1 $258 $259 $3 $-1 $260 reversed single #
loop $-1 -1 $-1 $-1 $261 $132 #
cone-surface $-1 -1 $-1 4.17478056859514 225.18433680981661 319.75621024820396 -4.2751980367795336e-16 0.99750723801175567 0.070564226872818381 3.9536456931452655 0.15165048165045625 -2.1437555514771485 1 I I 0.70710678118654702 0.70710678118654802 4.5000000000000009 forward I I I I #
coedge $-1 -1 $-1 $262 $262 $263 $264 reversed $133 $-1 #
DXID-attrib $-1 -1 $-1 $136 $85 @18 ASM_FACE_FROM_STEP @16 step-1M-819-4356 #
truecolor-adesk-attrib $-1 -1 $265 $-1 $137 -1027555136 #
loop $-1 -1 $-1 $-1 $263 $137 #
cone-surface $-1 -1 $-1 4.1747805685951391 227.17935128584011 319.89733870194959 -4.2751980367795336e-16 0.99750723801175567 0.070564226872818381 12.739525011245846 0.48865155198480309 -6.9076567769819173 1 I I 0 1 14.499999999999993 forward I I I I #
coedge $-1 -1 $-1 $266 $267 $268 $269 forward $138 $-1 #
coedge $-1 -1 $-1 $270 $140 $142 $208 forward $86 $-1 #
coedge $-1 -1 $-1 $140 $271 $272 $273 reversed $86 $-1 #
coedge $-1 -1 $-1 $209 $143 $140 $205 reversed $210 $-1 #
edge $274 -1 $-1 $275 0 $213 1.5707963267948966 $140 $276 forward @7 unknown #
coedge $-1 -1 $-1 $277 $278 $141 $207 forward $279 $-1 #
edge $280 -1 $-1 $281 -3.1415926535897931 $212 -1.5707963267948968 $141 $282 forward @7 unknown #
edge $283 -1 $-1 $213 1.5707963267948966 $281 3.1415926535897931 $142 $284 forward @7 unknown #
coedge $-1 -1 $-1 $143 $204 $277 $285 reversed $210 $-1 #
loop $-1 -1 $-1 $-1 $143 $286 #
truecolor-adesk-attrib $-1 -1 $287 $-1 $144 -1027555136 #
vertex $-1 -1 $-1 $144 $288 #
vertex $-1 -1 $-1 $144 $289 #
ellipse-curve $-1 -1 $-1 4.1747805685951445 213.7130035726814 318.94472163916657 0.87858793181005879 0.033700107033434713 -0.4763901225504773 2.3879030867987709 -0.30998439073982553 4.3819891060515648 1 F -0.92729521800161208 F 4.0688878715914054 #
coedge $-1 -1 $-1 $290 $290 $145 $216 reversed $291 $-1 #
edge $292 -1 $-1 $221 -3.1415926535897931 $224 0 $145 $293 forward @7 unknown #
coedge $-1 -1 $-1 $148 $146 $150 $226 reversed $219 $-1 #
coedge $-1 -1 $-1 $146 $148 $290 $294 forward $219 $-1 #
loop $-1 -1 $-1 $-1 $146 $295 #
truecolor-adesk-attrib $-1 -1 $296 $-1 $147 -1027555136 #
vertex $-1 -1 $-1 $147 $297 #
straight-curve $-1 -1 $-1 0.2211348754498732 227.02770080418966 322.04109425342676 -621.255484451558 681.51455807072057 386.75512947668926 F -0.00070710678118654903 F 0 #
truecolor-adesk-attrib $-1 -1 $298 $-1 $149 -1027555136 #
vertex $-1 -1 $-1 $216 $299 #
straight-curve $-1 -1 $-1 8.1284262617404046 227.33100176749056 317.75358315047242 621.25548445155732 729.17370649082886 -286.96224281477777 F -0.00070710678118654903 F 0 #
edge $300 -1 $-1 $154 0 $153 3.1415926535897931 $217 $301 forward @7 unknown #
face $302 -1 $-1 $236 $151 $3 $-1 $303 forward single #
DXID-attrib $-1 -1 $-1 $152 $92 @18 ASM_EDGE_FROM_STEP @4 4009 #
point $-1 -1 $-1 0.66042884135490487 226.54579723870049 321.76761707871509 #
point $-1 -1 $-1 7.6891322958353729 226.81539809496797 317.95649609831128 #
coedge $-1 -1 $-1 $156 $156 $159 $235 reversed $232 $-1 #
loop $-1 -1 $-1 $291 $231 $184 #
truecolor-adesk-attrib $-1 -1 $304 $-1 $157 -1027555136 #
ellipse-curve $-1 -1 $-1 -4.6110987495054481 226.84235021550577 324.66123992745435 -4.2751980367795336e-16 0.99750723801175567 0.070564226872818381 1.9768228465726327 0.075825240825228124 -1.0718777757385742 1 F -3.1415926535897931 F 0 #
edge $305 -1 $-1 $165 0 $162 3.1415926535897931 $231 $306 forward @7 unknown #
face $307 -1 $-1 $177 $160 $3 $-1 $308 reversed single #
DXID-attrib $-1 -1 $-1 $161 $95 @18 ASM_EDGE_FROM_STEP @4 6986 #
point $-1 -1 $-1 -6.5879215960780808 226.76652497468055 325.73311770319293 #
DXID-attrib $-1 -1 $-1 $164 $97 @18 ASM_EDGE_FROM_STEP @4 1751 #
point $-1 -1 $-1 -2.6342759029328162 226.918175456331 323.58936215171582 #
truecolor-adesk-attrib $-1 -1 $309 $-1 $167 -1027555136 #
ellipse-curve $-1 -1 $-1 -4.6110987495054481 225.34608935848814 324.55539358714515 -4.2751980367795336e-16 0.99750723801175567 0.070564226872818381 -1.9768228465726327 -0.075825240825228124 1.0718777757385742 1 F -3.1415926535897931 F -1.2246467991473522e-16 #
coedge $-1 -1 $-1 $310 $310 $311 $312 forward $168 $-1 #
DXID-attrib $-1 -1 $-1 $174 $105 @18 ASM_EDGE_FROM_STEP @5 12507 #
truecolor-adesk-attrib $-1 -1 $313 $-1 $176 -1027555136 #
ellipse-curve $-1 -1 $-1 4.4317507577593149 227.88476053532196 309.92556031930258 -4.2751980367795336e-16 0.99750723801175567 0.070564226872818381 -0.057818292561940265 -0.15871708113341279 2.2436501360955794 1 F 2.0943951023931864 F 5.2359877559829791 #
truecolor-adesk-attrib $-1 -1 $314 $-1 $177 -1027555136 #
cone-surface $-1 -1 $-1 4.4317507577593229 209.42987912486646 308.62005155792855 -4.2751980367795336e-16 0.99750723801175567 0.070564226872818381 1.9768228465726327 0.075825240825228124 -1.0718777757385742 1 I I 0 1 2.2500000000000004 forward I I I I #
DXID-attrib $-1 -1 $-1 $182 $115 @18 ASM_EDGE_FROM_STEP @4 4322 #
truecolor-adesk-attrib $-1 -1 $315 $-1 $184 -1027555136 #
face $316 -1 $-1 $79 $317 $3 $-1 $318 forward single #
loop $-1 -1 $-1 $120 $319 $184 #
plane-surface $-1 -1 $-1 4.1747805685951391 227.17935128584011 319.89733870194959 4.2751980367795336e-16 -0.99750723801175567 -0.070564226872818381 -0.87858793181005879 -0.033700107033434713 0.4763901225504773 forward_v I I I I #
DXID-attrib $-1 -1 $-1 $186 $123 @18 ASM_EDGE_FROM_STEP @4 4414 #
DXID-attrib $-1 -1 $-1 $188 $124 @18 ASM_FACE_FROM_STEP @16 step-1M-819-6371 #
DXID-attrib $-1 -1 $-1 $192 $132 @18 ASM_FACE_FROM_STEP @16 step-1M-819-6930 #
truecolor-adesk-attrib $-1 -1 $320 $-1 $193 -1027555136 #
face $321 -1 $-1 $286 $279 $3 $-1 $322 forward single #
loop $-1 -1 $-1 $323 $268 $193 #
plane-surface $-1 -1 $-1 4.17478056859514 225.18433680981661 319.75621024820396 -4.2751980367795336e-16 0.99750723801175567 0.070564226872818381 0.87858793181005879 0.033700107033434713 -0.4763901225504773 forward_v I I I I #
coedge $-1 -1 $-1 $324 $325 $266 $326 reversed $194 $-1 #
coedge $-1 -1 $-1 $196 $196 $327 $328 reversed $133 $-1 #
coedge $-1 -1 $-1 $329 $330 $196 $264 forward $199 $-1 #
edge $331 -1 $-1 $332 0 $333 3.1415926535897931 $263 $334 forward @7 unknown #
DXID-attrib $-1 -1 $-1 $198 $137 @18 ASM_FACE_FROM_STEP @16 step-1M-819-3116 #
coedge $-1 -1 $-1 $311 $201 $261 $326 forward $138 $-1 #
coedge $-1 -1 $-1 $201 $311 $335 $336 reversed $138 $-1 #
coedge $-1 -1 $-1 $337 $337 $201 $269 reversed $259 $-1 #
edge $338 -1 $-1 $339 0 $340 3.1415926535897931 $201 $341 forward @7 unknown #
coedge $-1 -1 $-1 $271 $202 $278 $342 forward $86 $-1 #
coedge $-1 -1 $-1 $203 $270 $343 $344 reversed $86 $-1 #
coedge $-1 -1 $-1 $345 $277 $203 $273 forward $279 $-1 #
edge $346 -1 $-1 $275 -0.009499999999999998 $347 -0.0019999999999999979 $203 $348 forward @7 unknown #
truecolor-adesk-attrib $-1 -1 $349 $-1 $205 -1027555136 #
vertex $-1 -1 $-1 $205 $350 #
ellipse-curve $-1 -1 $-1 4.1747805685951436 217.70303252472843 319.22697854665785 -4.2751980367795336e-16 0.99750723801175567 0.070564226872818381 2.6357637954301771 0.10110032110030417 -1.4291703676514322 1 F 0 F 1.5707963267948966 #
coedge $-1 -1 $-1 $272 $206 $209 $285 forward $279 $-1 #
coedge $-1 -1 $-1 $206 $345 $270 $342 reversed $279 $-1 #
loop $-1 -1 $-1 $-1 $278 $258 #
truecolor-adesk-attrib $-1 -1 $351 $-1 $207 -1027555136 #
vertex $-1 -1 $-1 $207 $352 #
ellipse-curve $-1 -1 $-1 4.1747805685951436 217.70303252472843 319.22697854665785 -4.2751980367795336e-16 0.99750723801175567 0.070564226872818381 2.6357637954301771 0.10110032110030417 -1.4291703676514322 1 F -3.1415926535897931 F -1.5707963267948968 #
truecolor-adesk-attrib $-1 -1 $353 $-1 $208 -1027555136 #
ellipse-curve $-1 -1 $-1 4.1747805685951436 217.70303252472843 319.22697854665785 -4.2751980367795336e-16 0.99750723801175567 0.070564226872818381 2.6357637954301771 0.10110032110030417 -1.4291703676514322 1 F 1.5707963267948966 F 3.1415926535897931 #
edge $354 -1 $-1 $212 -1.5707963267948968 $275 0 $277 $355 forward @7 unknown #
face $356 -1 $-1 $295 $210 $3 $-1 $357 forward single #
DXID-attrib $-1 -1 $358 $211 $144 @18 ASM_EDGE_FROM_STEP @5 12671 #
point $-1 -1 $-1 5.6075224206744059 217.51704189028453 321.85617201028873 #
point $-1 -1 $-1 2.7420387165158804 217.88902315917232 316.59778508302691 #
coedge $-1 -1 $-1 $215 $215 $218 $294 reversed $291 $-1 #
loop $-1 -1 $-1 $-1 $290 $184 #
truecolor-adesk-attrib $-1 -1 $359 $-1 $216 -1027555136 #
ellipse-curve $-1 -1 $-1 4.1747805685951391 227.17935128584011 319.89733870194959 -4.2751980367795336e-16 0.99750723801175567 0.070564226872818381 3.9536456931452655 0.15165048165045625 -2.1437555514771485 1 F -3.1415926535897931 F 0 #
edge $360 -1 $-1 $224 0 $221 3.1415926535897931 $290 $361 forward @7 unknown #
face $362 -1 $-1 $227 $219 $3 $-1 $363 reversed single #
DXID-attrib $-1 -1 $-1 $220 $147 @18 ASM_EDGE_FROM_STEP @4 4901 #
point $-1 -1 $-1 0.2211348754498732 227.02770080418966 322.04109425342676 #
DXID-attrib $-1 -1 $-1 $223 $149 @18 ASM_EDGE_FROM_STEP @4 7728 #
point $-1 -1 $-1 8.1284262617404046 227.33100176749056 317.75358315047242 #
truecolor-adesk-attrib $-1 -1 $364 $-1 $226 -1027555136 #
ellipse-curve $-1 -1 $-1 4.1747805685951391 226.68059766683425 319.86205658851316 -4.2751980367795336e-16 0.99750723801175567 0.070564226872818381 3.5143517272402343 0.13480042813373883 -1.9055604902019088 1 F 0 F 3.1415926535897931 #
truecolor-adesk-attrib $-1 -1 $365 $-1 $227 -1027555136 #
plane-surface $-1 -1 $-1 4.1747805685951391 226.68059766683425 319.86205658851316 -4.2751980367795336e-16 0.99750723801175567 0.070564226872818381 0.87858793181005879 0.033700107033434713 -0.4763901225504773 forward_v I I I I #
DXID-attrib $-1 -1 $-1 $233 $157 @18 ASM_EDGE_FROM_STEP @4 2633 #
truecolor-adesk-attrib $-1 -1 $366 $-1 $235 -1027555136 #
ellipse-curve $-1 -1 $-1 -4.6110987495054481 226.84235021550577 324.66123992745435 -4.2751980367795336e-16 0.99750723801175567 0.070564226872818381 1.9768228465726327 0.075825240825228124 -1.0718777757385742 1 F 0 F 3.1415926535897931 #
truecolor-adesk-attrib $-1 -1 $367 $-1 $236 -1027555136 #
cone-surface $-1 -1 $-1 -4.611098749505441 208.38746880505028 323.35573116608037 -4.2751980367795336e-16 0.99750723801175567 0.070564226872818381 1.9768228465726327 0.075825240825228124 -1.0718777757385742 1 I I 0 1 2.2500000000000004 forward I I I I #
DXID-attrib $-1 -1 $-1 $241 $167 @18 ASM_EDGE_FROM_STEP @5 10986 #
coedge $-1 -1 $-1 $243 $243 $325 $368 forward $168 $-1 #
coedge $-1 -1 $-1 $267 $266 $243 $312 reversed $138 $-1 #
edge $369 -1 $-1 $370 0 $371 3.1415926535897931 $311 $372 forward @7 unknown #
DXID-attrib $-1 -1 $-1 $245 $176 @18 ASM_EDGE_FROM_STEP @3 717 #
DXID-attrib $-1 -1 $-1 $247 $177 @18 ASM_FACE_FROM_STEP @16 step-1M-819-2663 #
DXID-attrib $-1 -1 $-1 $250 $184 @18 ASM_FACE_FROM_STEP @16 step-1M-819-6007 #
truecolor-adesk-attrib $-1 -1 $373 $-1 $251 -1027555136 #
loop $-1 -1 $-1 $-1 $374 $251 #
cone-surface $-1 -1 $-1 4.1747805685951391 227.17935128584011 319.89733870194959 -4.2751980367795336e-16 0.99750723801175567 0.070564226872818381 12.739525011245846 0.48865155198480309 -6.9076567769819173 1 I I 0 1 14.499999999999993 forward I I I I #
coedge $-1 -1 $-1 $375 $375 $376 $377 forward $252 $-1 #
DXID-attrib $-1 -1 $-1 $257 $193 @18 ASM_FACE_FROM_STEP @16 step-1M-819-5796 #
truecolor-adesk-attrib $-1 -1 $378 $-1 $258 -1027555136 #
cone-surface $-1 -1 $-1 4.1747805685951391 227.17935128584011 319.89733870194959 -4.2751980367795336e-16 0.99750723801175567 0.070564226872818381 2.6357637954301762 0.10110032110030415 -1.429170367651432 1 I I 0 1 3.0000000000000004 forward I I I I #
loop $-1 -1 $-1 $-1 $343 $193 #
coedge $-1 -1 $-1 $335 $261 $337 $379 forward $194 $-1 #
coedge $-1 -1 $-1 $261 $335 $310 $368 reversed $194 $-1 #
edge $380 -1 $-1 $340 2.6512257811776483e-36 $371 0.00070710678118654448 $266 $381 forward @7 unknown #
coedge $-1 -1 $-1 $382 $374 $262 $328 forward $317 $-1 #
edge $383 -1 $-1 $333 -3.1415926535897931 $332 0 $327 $384 forward @7 unknown #
coedge $-1 -1 $-1 $376 $263 $374 $385 forward $199 $-1 #
coedge $-1 -1 $-1 $263 $376 $382 $386 reversed $199 $-1 #
truecolor-adesk-attrib $-1 -1 $387 $-1 $264 -1027555136 #
vertex $-1 -1 $-1 $264 $388 #
vertex $-1 -1 $-1 $264 $389 #
ellipse-curve $-1 -1 $-1 4.17478056859514 225.68309042882248 319.79149236164034 -4.2751980367795336e-16 0.99750723801175567 0.070564226872818381 12.739525011245846 0.48865155198480309 -6.9076567769819173 1 F 0 F 3.1415926535897931 #
coedge $-1 -1 $-1 $325 $324 $267 $336 forward $194 $-1 #
edge $390 -1 $-1 $339 0 $370 0.00070710678118654448 $267 $391 forward @7 unknown #
coedge $-1 -1 $-1 $268 $268 $324 $379 reversed $259 $-1 #
truecolor-adesk-attrib $-1 -1 $392 $-1 $269 -1027555136 #
vertex $-1 -1 $-1 $269 $393 #
vertex $-1 -1 $-1 $269 $394 #
ellipse-curve $-1 -1 $-1 4.17478056859514 225.18433680981661 319.75621024820396 -4.2751980367795336e-16 0.99750723801175567 0.070564226872818381 3.9536456931452655 0.15165048165045625 -2.1437555514771485 1 F 0 F 3.1415926535897931 #
edge $395 -1 $-1 $281 -0.009499999999999998 $396 -0.0019999999999999979 $270 $397 forward @7 unknown #
coedge $-1 -1 $-1 $398 $398 $271 $344 forward $323 $-1 #
edge $399 -1 $-1 $347 0 $396 3.1415926535897931 $271 $400 forward @7 unknown #
coedge $-1 -1 $-1 $278 $272 $398 $401 reversed $279 $-1 #
truecolor-adesk-attrib $-1 -1 $402 $-1 $273 -1027555136 #
vertex $-1 -1 $-1 $344 $403 #
straight-curve $-1 -1 $-1 6.8105443640253158 227.2804516069404 318.46816833429818 -4.2751980367795334e-13 997.5072380117557 70.564226872818381 F -0.009499999999999998 F -0.0019999999999999979 #
DXID-attrib $-1 -1 $-1 $274 $205 @18 ASM_EDGE_FROM_STEP @4 8363 #
point $-1 -1 $-1 6.8105443640253203 217.80413284582875 317.79780817900638 #
DXID-attrib $-1 -1 $-1 $280 $207 @18 ASM_EDGE_FROM_STEP @4 6746 #
point $-1 -1 $-1 1.539016773164966 217.60193220362814 320.65614891430926 #
DXID-attrib $-1 -1 $-1 $283 $208 @18 ASM_EDGE_FROM_STEP @4 7391 #
truecolor-adesk-attrib $-1 -1 $404 $-1 $285 -1027555136 #
ellipse-curve $-1 -1 $-1 4.1747805685951436 217.70303252472843 319.22697854665785 -4.2751980367795336e-16 0.99750723801175567 0.070564226872818381 2.6357637954301771 0.10110032110030417 -1.4291703676514322 1 F -1.5707963267948968 F 0 #
truecolor-adesk-attrib $-1 -1 $405 $-1 $286 -1027555136 #
sphere-surface $-1 -1 $-1 4.1747805685951445 213.7130035726814 318.94472163916657 5.0000000000000036 -0.47758061735975393 0.061996878147965069 -0.87639782121031251 -0.87858793181005879 -0.033700107033434713 0.4763901225504773 forward_v I I I I #
DXID-attrib $-1 -1 $-1 $287 $144 @18 ASM_EDGE_FROM_STEP @4 3951 #
DXID-attrib $-1 -1 $-1 $292 $216 @18 ASM_EDGE_FROM_STEP @4 6377 #
truecolor-adesk-attrib $-1 -1 $406 $-1 $294 -1027555136 #
ellipse-curve $-1 -1 $-1 4.1747805685951391 227.17935128584011 319.89733870194959 -4.2751980367795336e-16 0.99750723801175567 0.070564226872818381 3.9536456931452655 0.15165048165045625 -2.1437555514771485 1 F 0 F 3.1415926535897931 #
truecolor-adesk-attrib $-1 -1 $407 $-1 $295 -1027555136 #
cone-surface $-1 -1 $-1 4.1747805685951391 227.17935128584011 319.89733870194959 -4.2751980367795336e-16 0.99750723801175567 0.070564226872818381 3.9536456931452655 0.15165048165045625 -2.1437555514771485 1 I I 0.70710678118654879 0.70710678118654635 4.5000000000000009 forward I I I I #
DXID-attrib $-1 -1 $-1 $300 $226 @18 ASM_EDGE_FROM_STEP @4 2781 #
DXID-attrib $-1 -1 $-1 $302 $227 @18 ASM_FACE_FROM_STEP @16 step-1M-819-4716 #
DXID-attrib $-1 -1 $-1 $305 $235 @18 ASM_EDGE_FROM_STEP @4 2020 #
DXID-attrib $-1 -1 $-1 $307 $236 @18 ASM_FACE_FROM_STEP @16 step-1M-819-3076 #
edge $408 -1 $-1 $371 -3.1415926535897931 $370 0 $310 $409 forward @7 unknown #
truecolor-adesk-attrib $-1 -1 $410 $-1 $312 -1027555136 #
vertex $-1 -1 $-1 $312 $411 #
vertex $-1 -1 $-1 $326 $412 #
ellipse-curve $-1 -1 $-1 4.17478056859514 225.68309042882248 319.79149236164039 -4.2751980367795336e-16 0.99750723801175567 0.070564226872818381 4.3929396590502927 0.1685005351671735 -2.3819506127523855 1 F 0 F 3.1415926535897931 #
DXID-attrib $-1 -1 $-1 $316 $251 @18 ASM_FACE_FROM_STEP @17 step-1M-819-12656 #
coedge $-1 -1 $-1 $327 $413 $329 $385 reversed $317 $-1 #
coedge $-1 -1 $-1 $319 $319 $413 $414 forward $252 $-1 #
coedge $-1 -1 $-1 $330 $329 $319 $377 reversed $199 $-1 #
edge $415 -1 $-1 $416 0 $417 3.1415926535897931 $376 $418 forward @7 unknown #
DXID-attrib $-1 -1 $-1 $321 $258 @18 ASM_FACE_FROM_STEP @16 step-1M-819-4450 #
edge $419 -1 $-1 $340 -3.1415926535897931 $339 0 $324 $420 forward @7 unknown #
truecolor-adesk-attrib $-1 -1 $421 $-1 $326 -1027555136 #
straight-curve $-1 -1 $-1 0.22113487544987409 225.03268632816614 321.89996579968113 -621.25548445155641 681.51455807072227 386.75512947668847 F 2.6512257811776483e-36 F 0.00070710678118654448 #
coedge $-1 -1 $-1 $413 $327 $330 $386 forward $317 $-1 #
truecolor-adesk-attrib $-1 -1 $422 $-1 $328 -1027555136 #
ellipse-curve $-1 -1 $-1 4.17478056859514 225.68309042882248 319.79149236164034 -4.2751980367795336e-16 0.99750723801175567 0.070564226872818381 12.739525011245846 0.48865155198480309 -6.9076567769819173 1 F -3.1415926535897931 F 0 #
edge $423 -1 $-1 $333 -0.0015000000000000002 $417 -1.7757378587636605e-18 $329 $424 forward @7 unknown #
edge $425 -1 $-1 $332 -0.0015000000000000002 $416 -1.7757378587636605e-18 $330 $426 forward @7 unknown #
DXID-attrib $-1 -1 $-1 $331 $264 @18 ASM_EDGE_FROM_STEP @2 43 #
point $-1 -1 $-1 16.914305579840985 226.17174198080727 312.88383558465847 #
point $-1 -1 $-1 -8.5647444426507082 225.19443887683767 326.69914913862226 #
truecolor-adesk-attrib $-1 -1 $427 $-1 $336 -1027555136 #
straight-curve $-1 -1 $-1 8.1284262617404046 225.33598729146706 317.61245469672679 621.25548445155573 729.17370649083057 -286.96224281477669 F 0 F 0.00070710678118654448 #
DXID-attrib $-1 -1 $-1 $338 $269 @18 ASM_EDGE_FROM_STEP @4 5211 #
point $-1 -1 $-1 8.1284262617404046 225.33598729146706 317.61245469672679 #
point $-1 -1 $-1 0.22113487544987409 225.03268632816614 321.89996579968113 #
truecolor-adesk-attrib $-1 -1 $428 $-1 $342 -1027555136 #
vertex $-1 -1 $-1 $342 $429 #
straight-curve $-1 -1 $-1 1.5390167731649624 227.07825096473982 321.326509069601 -4.2751980367795334e-13 997.5072380117557 70.564226872818381 F -0.009499999999999998 F -0.0019999999999999979 #
coedge $-1 -1 $-1 $343 $343 $345 $401 forward $323 $-1 #
truecolor-adesk-attrib $-1 -1 $430 $-1 $344 -1027555136 #
ellipse-curve $-1 -1 $-1 4.17478056859514 225.18433680981661 319.75621024820396 -4.2751980367795336e-16 0.99750723801175567 0.070564226872818381 2.6357637954301754 0.10110032110030411 -1.4291703676514316 1 F 0 F 3.1415926535897931 #
edge $431 -1 $-1 $396 -3.1415926535897931 $347 0 $398 $432 forward @7 unknown #
DXID-attrib $-1 -1 $-1 $346 $273 @18 ASM_EDGE_FROM_STEP @4 9802 #
point $-1 -1 $-1 6.8105443640253149 225.2854371309169 318.32703988055255 #
DXID-attrib $-1 -1 $-1 $354 $285 @18 ASM_EDGE_FROM_STEP @4 2080 #
DXID-attrib $-1 -1 $-1 $356 $286 @18 ASM_FACE_FROM_STEP @16 step-1M-819-1827 #
DXID-attrib $-1 -1 $-1 $360 $294 @18 ASM_EDGE_FROM_STEP @4 7790 #
DXID-attrib $-1 -1 $-1 $362 $295 @18 ASM_FACE_FROM_STEP @16 step-1M-819-2976 #
truecolor-adesk-attrib $-1 -1 $433 $-1 $368 -1027555136 #
ellipse-curve $-1 -1 $-1 4.17478056859514 225.68309042882248 319.79149236164039 -4.2751980367795336e-16 0.99750723801175567 0.070564226872818381 4.3929396590502927 0.1685005351671735 -2.3819506127523855 1 F -3.1415926535897931 F 0 #
DXID-attrib $-1 -1 $-1 $369 $312 @18 ASM_EDGE_FROM_STEP @4 9961 #
point $-1 -1 $-1 8.5677202276454327 225.85159096398965 317.40954174888799 #
point $-1 -1 $-1 -0.21815909045515358 225.51458989365531 322.17344297439274 #
coedge $-1 -1 $-1 $374 $382 $375 $414 reversed $317 $-1 #
edge $434 -1 $-1 $417 -3.1415926535897931 $416 0 $375 $435 forward @7 unknown #
truecolor-adesk-attrib $-1 -1 $436 $-1 $377 -1027555136 #
vertex $-1 -1 $-1 $377 $437 #
vertex $-1 -1 $-1 $385 $438 #
ellipse-curve $-1 -1 $-1 4.1747805685951391 227.17935128584011 319.89733870194959 -4.2751980367795336e-16 0.99750723801175567 0.070564226872818381 12.739525011245844 0.48865155198480303 -6.9076567769819164 1 F 0 F 3.1415926535897931 #
truecolor-adesk-attrib $-1 -1 $439 $-1 $379 -1027555136 #
ellipse-curve $-1 -1 $-1 4.17478056859514 225.18433680981661 319.75621024820396 -4.2751980367795336e-16 0.99750723801175567 0.070564226872818381 3.9536456931452655 0.15165048165045625 -2.1437555514771485 1 F -3.1415926535897931 F 0 #
DXID-attrib $-1 -1 $-1 $380 $326 @18 ASM_EDGE_FROM_STEP @4 9312 #
DXID-attrib $-1 -1 $-1 $383 $328 @18 ASM_EDGE_FROM_STEP @4 8844 #
truecolor-adesk-attrib $-1 -1 $440 $-1 $385 -1027555136 #
straight-curve $-1 -1 $-1 -8.5647444426507064 226.6906997338553 326.80499547893152 -4.2751980367795334e-13 997.5072380117557 70.564226872818381 F -0.0015000000000000002 F -1.7757378587636605e-18 #
truecolor-adesk-attrib $-1 -1 $441 $-1 $386 -1027555136 #
straight-curve $-1 -1 $-1 16.914305579840985 227.66800283782493 312.98968192496767 -4.2751980367795334e-13 997.5072380117557 70.564226872818381 F -0.0015000000000000002 F -1.7757378587636605e-18 #
DXID-attrib $-1 -1 $-1 $390 $336 @18 ASM_EDGE_FROM_STEP @4 1344 #
DXID-attrib $-1 -1 $-1 $395 $342 @18 ASM_EDGE_FROM_STEP @4 2737 #
point $-1 -1 $-1 1.5390167731649647 225.0832364887163 321.18538061585537 #
DXID-attrib $-1 -1 $-1 $399 $344 @18 ASM_EDGE_FROM_STEP @4 8041 #
truecolor-adesk-attrib $-1 -1 $442 $-1 $401 -1027555136 #
ellipse-curve $-1 -1 $-1 4.17478056859514 225.18433680981661 319.75621024820396 -4.2751980367795336e-16 0.99750723801175567 0.070564226872818381 2.6357637954301754 0.10110032110030411 -1.4291703676514316 1 F -3.1415926535897931 F 0 #
DXID-attrib $-1 -1 $-1 $408 $368 @18 ASM_EDGE_FROM_STEP @4 8214 #
truecolor-adesk-attrib $-1 -1 $443 $-1 $414 -1027555136 #
ellipse-curve $-1 -1 $-1 4.1747805685951391 227.17935128584011 319.89733870194959 -4.2751980367795336e-16 0.99750723801175567 0.070564226872818381 12.739525011245844 0.48865155198480303 -6.9076567769819164 1 F -3.1415926535897931 F 0 #
DXID-attrib $-1 -1 $-1 $415 $377 @18 ASM_EDGE_FROM_STEP @4 7468 #
point $-1 -1 $-1 16.914305579840985 227.6680028378249 312.98968192496767 #
point $-1 -1 $-1 -8.5647444426507047 226.6906997338553 326.80499547893152 #
DXID-attrib $-1 -1 $-1 $419 $379 @18 ASM_EDGE_FROM_STEP @4 1826 #
DXID-attrib $-1 -1 $-1 $423 $385 @18 ASM_EDGE_FROM_STEP @4 7971 #
DXID-attrib $-1 -1 $-1 $425 $386 @18 ASM_EDGE_FROM_STEP @4 6976 #
DXID-attrib $-1 -1 $-1 $431 $401 @18 ASM_EDGE_FROM_STEP @4 3455 #
DXID-attrib $-1 -1 $-1 $434 $414 @18 ASM_EDGE_FROM_STEP @5 10039 #
