700 296 1 0         
5 ZWCAD 12 ACIS 28.0 NT 24 Sat May 11 17:08:22 2024 
1 9.9999999999999995e-07 1e-10 
body $1 -1 $-1 $2 $-1 $-1 #
DXID-attrib $-1 -1 $-1 $-1 $0 @18 ASM_BODY_FROM_STEP @83 60DBCA7FE0AACBC8ADEB83D306C5833477E638F6|:|654F87611FAF4AA5F4C95476A893B3161B904202 #
lump $-1 -1 $-1 $-1 $3 $0 #
shell $-1 -1 $-1 $-1 $-1 $4 $-1 $2 #
face $5 -1 $-1 $6 $7 $3 $-1 $8 forward single #
truecolor-adesk-attrib $-1 -1 $9 $-1 $4 -1056964608 #
face $10 -1 $-1 $11 $12 $3 $-1 $13 forward single #
loop $-1 -1 $-1 $-1 $14 $4 #
torus-surface $-1 -1 $-1 137.10774482400686 308.48997090774304 822.97366669028122 0.9988445682442344 3.7572212272246602e-17 -0.04805755392224309 15.000000000000004 6.0000000000000009 -0.04805755392224309 5.9564989294003955e-17 -0.9988445682442344 forward_v I I I I #
DXID-attrib $-1 -1 $-1 $5 $4 @18 ASM_FACE_FROM_STEP @16 step-2M-560-1088 #
truecolor-adesk-attrib $-1 -1 $15 $-1 $6 -1056964608 #
face $16 -1 $-1 $17 $18 $3 $-1 $19 forward single #
loop $-1 -1 $-1 $-1 $20 $6 #
torus-surface $-1 -1 $-1 137.10774482400686 308.48997090774304 822.97366669028122 0.9988445682442344 3.7572212272246602e-17 -0.04805755392224309 14.999999999999998 6.0000000000000009 -0.04805755392224309 5.9564989294003955e-17 -0.9988445682442344 forward_v I I I I #
coedge $-1 -1 $-1 $21 $22 $23 $24 reversed $7 $-1 #
DXID-attrib $-1 -1 $-1 $10 $6 @18 ASM_FACE_FROM_STEP @17 step-2M-560-25427 #
truecolor-adesk-attrib $-1 -1 $25 $-1 $11 -1056964608 #
face $26 -1 $-1 $27 $28 $3 $-1 $29 forward single #
loop $-1 -1 $-1 $-1 $30 $11 #
torus-surface $-1 -1 $-1 137.76871361957868 329.36665541453192 836.71146725133462 -0.9988445682442344 -3.7572212272246602e-17 0.04805755392224309 10.000000000000016 6.0000000000000009 0.04805755392224309 -5.9564989294003955e-17 0.9988445682442344 forward_v I I I I #
coedge $-1 -1 $-1 $31 $32 $33 $34 reversed $12 $-1 #
coedge $-1 -1 $-1 $35 $14 $36 $37 forward $7 $-1 #
coedge $-1 -1 $-1 $14 $35 $38 $39 reversed $7 $-1 #
coedge $-1 -1 $-1 $32 $31 $14 $24 forward $12 $-1 #
edge $40 -1 $-1 $41 -3.1415926535897931 $42 1.2246467991473532e-16 $14 $43 forward @7 unknown #
DXID-attrib $-1 -1 $-1 $16 $11 @18 ASM_FACE_FROM_STEP @17 step-2M-560-11072 #
truecolor-adesk-attrib $-1 -1 $44 $-1 $17 -1056964608 #
face $45 -1 $-1 $46 $47 $3 $-1 $48 forward single #
loop $-1 -1 $-1 $-1 $49 $17 #
torus-surface $-1 -1 $-1 137.10774482400686 308.48997090774304 822.97366669028122 0.9988445682442344 3.7572212272246602e-17 -0.04805755392224309 14.999999999999998 6.0000000000000009 -0.04805755392224309 5.9564989294003955e-17 -0.9988445682442344 forward_v I I I I #
coedge $-1 -1 $-1 $50 $51 $52 $53 reversed $18 $-1 #
coedge $-1 -1 $-1 $23 $20 $54 $55 forward $12 $-1 #
coedge $-1 -1 $-1 $20 $23 $56 $57 reversed $12 $-1 #
coedge $-1 -1 $-1 $58 $59 $20 $34 forward $28 $-1 #
edge $60 -1 $-1 $61 -1.5707963267948966 $62 1.5707963267948968 $20 $63 forward @7 unknown #
coedge $-1 -1 $-1 $22 $21 $64 $65 forward $7 $-1 #
coedge $-1 -1 $-1 $66 $67 $21 $37 reversed $68 $-1 #
edge $69 -1 $-1 $41 0.64199336946071917 $70 1.0049871729448068 $21 $71 forward @7 unknown #
coedge $-1 -1 $-1 $67 $66 $22 $39 forward $68 $-1 #
edge $72 -1 $-1 $42 0.64199336946071917 $73 1.0049871729448066 $22 $74 forward @7 unknown #
truecolor-adesk-attrib $-1 -1 $75 $-1 $24 -1056964608 #
vertex $-1 -1 $-1 $24 $76 #
vertex $-1 -1 $-1 $24 $77 #
ellipse-curve $-1 -1 $-1 136.53040270829746 317.47186781285865 810.97399152520688 -0.028776532989441547 -0.80090373394580239 -0.59810126241363104 0.23093684628375755 -3.5927587620462607 4.799870066029742 1 F -3.1415926535897931 F 1.2246467991473532e-16 #
DXID-attrib $-1 -1 $-1 $26 $17 @18 ASM_FACE_FROM_STEP @17 step-2M-560-25138 #
truecolor-adesk-attrib $-1 -1 $78 $-1 $27 -1056964608 #
face $79 -1 $-1 $80 $81 $3 $-1 $82 forward single #
loop $-1 -1 $-1 $-1 $83 $27 #
torus-surface $-1 -1 $-1 137.10774482400686 308.48997090774304 822.97366669028122 0.9988445682442344 3.7572212272246602e-17 -0.04805755392224309 14.999999999999998 6.0000000000000009 -0.04805755392224309 5.9564989294003955e-17 -0.9988445682442344 forward_v I I I I #
coedge $-1 -1 $-1 $59 $58 $84 $85 reversed $28 $-1 #
coedge $-1 -1 $-1 $86 $30 $87 $88 forward $18 $-1 #
coedge $-1 -1 $-1 $30 $86 $89 $90 reversed $18 $-1 #
coedge $-1 -1 $-1 $91 $92 $30 $53 forward $93 $-1 #
edge $94 -1 $-1 $95 1.2246467991473535e-16 $96 3.1415926535897931 $30 $97 forward @7 unknown #
coedge $-1 -1 $-1 $98 $99 $31 $55 reversed $100 $-1 #
edge $101 -1 $-1 $61 0 $41 0.64199336946071894 $31 $102 forward @7 unknown #
coedge $-1 -1 $-1 $99 $98 $32 $57 forward $100 $-1 #
edge $103 -1 $-1 $62 0 $42 0.64199336946071905 $32 $104 forward @7 unknown #
coedge $-1 -1 $-1 $49 $33 $105 $106 reversed $28 $-1 #
coedge $-1 -1 $-1 $33 $49 $107 $108 forward $28 $-1 #
truecolor-adesk-attrib $-1 -1 $109 $-1 $34 -1056964608 #
vertex $-1 -1 $-1 $34 $110 #
vertex $-1 -1 $-1 $34 $111 #
ellipse-curve $-1 -1 $-1 136.3868815151732 308.48997090774304 807.99099816661771 3.4666252460178444e-17 -1 -6.1301794631093255e-17 5.9930674094654064 2.2543327363347962e-16 -0.28834532353345854 1 F -1.5707963267948966 F 1.5707963267948968 #
coedge $-1 -1 $-1 $112 $112 $35 $65 reversed $113 $-1 #
edge $114 -1 $-1 $70 -3.1415926535897931 $73 1.2246467991473532e-16 $35 $115 forward @7 unknown #
coedge $-1 -1 $-1 $38 $36 $99 $116 reversed $68 $-1 #
coedge $-1 -1 $-1 $36 $38 $112 $117 forward $68 $-1 #
loop $-1 -1 $-1 $-1 $36 $118 #
truecolor-adesk-attrib $-1 -1 $119 $-1 $37 -1056964608 #
vertex $-1 -1 $-1 $37 $120 #
ellipse-curve $-1 -1 $-1 137.10774482400686 308.48997090774304 822.97366669028122 0.9988445682442344 3.7572212272246602e-17 -0.04805755392224309 -1.0092086323671052 1.2508647751740836e-15 -20.975735933128931 1 F 0.64199336946071917 F 1.0049871729448068 #
truecolor-adesk-attrib $-1 -1 $121 $-1 $39 -1056964608 #
vertex $-1 -1 $-1 $65 $122 #
ellipse-curve $-1 -1 $-1 137.10774482400686 308.48997090774304 822.97366669028122 0.9988445682442344 3.7572212272246602e-17 -0.04805755392224309 -0.43251798530018798 5.3608490364603585e-16 -8.9896011141981127 1 F 0.64199336946071917 F 1.0049871729448066 #
DXID-attrib $-1 -1 $-1 $40 $24 @18 ASM_EDGE_FROM_STEP @5 25083 #
point $-1 -1 $-1 136.2994658620137 321.06462657490493 806.17412145917706 #
point $-1 -1 $-1 136.76133955458121 313.87910905081242 815.7738615912366 #
DXID-attrib $-1 -1 $-1 $45 $27 @18 ASM_FACE_FROM_STEP @16 step-2M-560-5078 #
truecolor-adesk-attrib $-1 -1 $123 $-1 $46 -1056964608 #
face $124 -1 $-1 $125 $126 $3 $-1 $127 forward single #
loop $-1 -1 $-1 $-1 $128 $46 #
cone-surface $-1 -1 $-1 137.28813808035625 438.48997090774299 826.72302156889225 3.3587591510046527e-17 -1 -8.3721051190835768e-17 0.24028776961121495 -4.1005089869775647e-16 4.9942228412211618 1 I I 0.70710678118654591 0.70710678118654913 4.9999999999999893 forward I I I I #
coedge $-1 -1 $-1 $129 $130 $131 $132 reversed $47 $-1 #
coedge $-1 -1 $-1 $130 $129 $49 $85 forward $47 $-1 #
edge $133 -1 $-1 $134 -3.1415926535897931 $135 0 $49 $136 forward @7 unknown #
coedge $-1 -1 $-1 $51 $50 $137 $138 forward $18 $-1 #
coedge $-1 -1 $-1 $139 $131 $50 $88 reversed $140 $-1 #
edge $141 -1 $-1 $95 -3.1415926535897927 $142 -2.1533374030180057 $50 $143 forward @7 unknown #
coedge $-1 -1 $-1 $131 $139 $51 $90 forward $140 $-1 #
edge $144 -1 $-1 $96 -3.1415926535897922 $145 -2.153337403018007 $51 $146 forward @7 unknown #
coedge $-1 -1 $-1 $147 $52 $148 $149 reversed $93 $-1 #
coedge $-1 -1 $-1 $52 $147 $150 $151 forward $93 $-1 #
loop $-1 -1 $-1 $-1 $147 $152 #
truecolor-adesk-attrib $-1 -1 $153 $-1 $53 -1056964608 #
vertex $-1 -1 $-1 $53 $154 #
vertex $-1 -1 $-1 $53 $155 #
ellipse-curve $-1 -1 $-1 137.28813808035625 329.36665541453192 826.72302156889225 -4.2669442890924336e-17 1 -1.0503924102188507e-16 -0.28834532353345854 -6.4181078639861698e-16 -5.9930674094654064 1 F 1.2246467991473535e-16 F 3.1415926535897931 #
coedge $-1 -1 $-1 $56 $54 $156 $157 reversed $100 $-1 #
coedge $-1 -1 $-1 $54 $56 $66 $116 forward $100 $-1 #
loop $-1 -1 $-1 $-1 $54 $158 #
truecolor-adesk-attrib $-1 -1 $159 $-1 $55 -1056964608 #
ellipse-curve $-1 -1 $-1 137.10774482400686 308.48997090774304 822.97366669028122 0.9988445682442344 3.7572212272246602e-17 -0.04805755392224309 -1.0092086323671048 1.2508647751740828e-15 -20.97573593312892 1 F 0 F 0.64199336946071894 #
truecolor-adesk-attrib $-1 -1 $160 $-1 $57 -1056964608 #
ellipse-curve $-1 -1 $-1 137.10774482400686 308.48997090774304 822.97366669028122 0.9988445682442344 3.7572212272246602e-17 -0.04805755392224309 -0.43251798530018765 5.3608490364603536e-16 -8.9896011141981056 1 F 0 F 0.64199336946071905 #
coedge $-1 -1 $-1 $156 $161 $58 $106 forward $162 $-1 #
edge $163 -1 $-1 $135 -3.1415926535897931 $62 0 $58 $164 forward @7 unknown #
coedge $-1 -1 $-1 $161 $156 $59 $108 reversed $162 $-1 #
edge $165 -1 $-1 $134 -3.1415926535897931 $61 0 $59 $166 forward @7 unknown #
DXID-attrib $-1 -1 $-1 $60 $34 @18 ASM_EDGE_FROM_STEP @5 35278 #
point $-1 -1 $-1 136.09853619163977 308.48997090774304 801.99793075715229 #
point $-1 -1 $-1 136.67522683870666 308.48997090774304 813.98406557608303 #
coedge $-1 -1 $-1 $64 $64 $67 $117 reversed $113 $-1 #
loop $-1 -1 $-1 $-1 $112 $167 #
truecolor-adesk-attrib $-1 -1 $168 $-1 $65 -1056964608 #
ellipse-curve $-1 -1 $-1 136.72129069416735 321.15229726093793 814.94147243648501 -0.040568028766646808 -0.53609904277800768 -0.84317972661496832 0.15458165193580226 -5.0649305412779508 3.2128777015184786 1 F -3.1415926535897931 F 1.2246467991473532e-16 #
edge $169 -1 $-1 $42 1.2246467991473532e-16 $41 3.1415926535897931 $66 $170 forward @7 unknown #
edge $171 -1 $-1 $73 1.2246467991473532e-16 $70 3.1415926535897931 $67 $172 forward @7 unknown #
face $173 -1 $-1 $158 $68 $3 $-1 $174 forward single #
DXID-attrib $-1 -1 $-1 $69 $37 @18 ASM_EDGE_FROM_STEP @3 573 #
point $-1 -1 $-1 136.56670904223157 326.21722780221586 811.72859473496646 #
DXID-attrib $-1 -1 $-1 $72 $39 @18 ASM_EDGE_FROM_STEP @5 35978 #
point $-1 -1 $-1 136.87587234610317 316.08736671965994 818.15435013800345 #
DXID-attrib $-1 -1 $-1 $79 $46 @18 ASM_FACE_FROM_STEP @17 step-2M-560-33869 #
truecolor-adesk-attrib $-1 -1 $175 $-1 $80 -1056964608 #
face $176 -1 $-1 $152 $162 $3 $-1 $177 forward single #
loop $-1 -1 $-1 $-1 $178 $80 #
torus-surface $-1 -1 $-1 137.10774482400686 308.48997090774304 822.97366669028122 0.9988445682442344 3.7572212272246602e-17 -0.04805755392224309 14.999999999999998 6.0000000000000009 -0.04805755392224309 5.9564989294003955e-17 -0.9988445682442344 forward_v I I I I #
coedge $-1 -1 $-1 $179 $180 $181 $182 reversed $81 $-1 #
coedge $-1 -1 $-1 $84 $83 $178 $183 forward $47 $-1 #
coedge $-1 -1 $-1 $83 $84 $184 $185 reversed $47 $-1 #
coedge $-1 -1 $-1 $87 $89 $83 $132 forward $140 $-1 #
edge $186 -1 $-1 $145 -3.1415926535897931 $142 1.2246467991473547e-16 $83 $187 forward @7 unknown #
truecolor-adesk-attrib $-1 -1 $188 $-1 $85 -1056964608 #
vertex $-1 -1 $-1 $85 $189 #
vertex $-1 -1 $-1 $85 $190 #
ellipse-curve $-1 -1 $-1 137.82860813284051 308.48997090774304 837.95633521394473 -4.0551605418751079e-17 1 -6.102138570350888e-17 -0.28834532353345854 -3.7739814372438817e-16 -5.9930674094654064 1 F -3.1415926535897931 F 0 #
coedge $-1 -1 $-1 $184 $178 $86 $138 reversed $126 $-1 #
edge $191 -1 $-1 $142 1.2246467991473547e-16 $145 3.1415926535897931 $86 $192 forward @7 unknown #
coedge $-1 -1 $-1 $89 $87 $193 $194 reversed $140 $-1 #
loop $-1 -1 $-1 $-1 $87 $195 #
truecolor-adesk-attrib $-1 -1 $196 $-1 $88 -1056964608 #
vertex $-1 -1 $-1 $88 $197 #
ellipse-curve $-1 -1 $-1 137.76871361957868 329.36665541453192 836.71146725133462 -0.9988445682442344 -3.7572212272246602e-17 0.04805755392224309 0.76892086275589011 -9.5303982870406407e-16 15.981513091907765 1 F -3.1415926535897927 F -2.1533374030180057 #
truecolor-adesk-attrib $-1 -1 $198 $-1 $90 -1056964608 #
vertex $-1 -1 $-1 $138 $199 #
ellipse-curve $-1 -1 $-1 137.76871361957868 329.36665541453192 836.71146725133462 -0.9988445682442344 -3.7572212272246602e-17 0.04805755392224309 0.19223021568897314 -2.3825995717601676e-16 3.9953782729769536 1 F -3.1415926535897922 F -2.153337403018007 #
coedge $-1 -1 $-1 $92 $91 $200 $201 forward $93 $-1 #
coedge $-1 -1 $-1 $193 $202 $91 $149 forward $203 $-1 #
edge $204 -1 $-1 $205 0.0010000000000000141 $96 0.1091233154932111 $91 $206 forward @7 unknown #
coedge $-1 -1 $-1 $202 $193 $92 $151 reversed $203 $-1 #
edge $207 -1 $-1 $208 0.0010000000000000141 $95 0.1091233154932111 $92 $209 forward @7 unknown #
face $210 -1 $-1 $118 $93 $3 $-1 $211 forward single #
DXID-attrib $-1 -1 $-1 $94 $53 @18 ASM_EDGE_FROM_STEP @5 35932 #
point $-1 -1 $-1 136.99979275682279 329.36665541453192 820.72995415942682 #
point $-1 -1 $-1 137.57648340388971 329.36665541453192 832.71608897835767 #
coedge $-1 -1 $-1 $107 $105 $98 $157 forward $162 $-1 #
edge $212 -1 $-1 $62 1.5707963267948968 $61 4.7123889803846897 $156 $213 forward @7 unknown #
face $214 -1 $-1 $195 $100 $3 $-1 $215 forward single #
DXID-attrib $-1 -1 $-1 $101 $55 @18 ASM_EDGE_FROM_STEP @5 28797 #
DXID-attrib $-1 -1 $-1 $103 $57 @18 ASM_EDGE_FROM_STEP @5 16707 #
coedge $-1 -1 $-1 $105 $107 $216 $217 reversed $162 $-1 #
loop $-1 -1 $-1 $-1 $107 $125 #
truecolor-adesk-attrib $-1 -1 $218 $-1 $106 -1056964608 #
ellipse-curve $-1 -1 $-1 137.10774482400686 308.48997090774304 822.97366669028122 0.9988445682442344 3.7572212272246602e-17 -0.04805755392224309 -0.43251798530018765 5.3608490364603536e-16 -8.9896011141981056 1 F -3.1415926535897931 F 0 #
truecolor-adesk-attrib $-1 -1 $219 $-1 $108 -1056964608 #
ellipse-curve $-1 -1 $-1 137.10774482400686 308.48997090774304 822.97366669028122 0.9988445682442344 3.7572212272246602e-17 -0.04805755392224309 -1.0092086323671048 1.2508647751740828e-15 -20.97573593312892 1 F -3.1415926535897931 F 0 #
face $220 -1 $-1 $221 $113 $3 $-1 $222 reversed single #
DXID-attrib $-1 -1 $-1 $114 $65 @18 ASM_EDGE_FROM_STEP @4 3028 #
truecolor-adesk-attrib $-1 -1 $223 $-1 $116 -1056964608 #
ellipse-curve $-1 -1 $-1 136.53040270829746 317.47186781285865 810.97399152520688 -0.028776532989441547 -0.80090373394580239 -0.59810126241363104 0.23093684628375755 -3.5927587620462607 4.799870066029742 1 F 1.2246467991473532e-16 F 3.1415926535897931 #
truecolor-adesk-attrib $-1 -1 $224 $-1 $117 -1056964608 #
ellipse-curve $-1 -1 $-1 136.72129069416735 321.15229726093793 814.94147243648501 -0.040568028766646808 -0.53609904277800768 -0.84317972661496832 0.15458165193580226 -5.0649305412779508 3.2128777015184786 1 F 1.2246467991473532e-16 F 3.1415926535897931 #
truecolor-adesk-attrib $-1 -1 $225 $-1 $118 -1056964608 #
torus-surface $-1 -1 $-1 137.10774482400686 308.48997090774304 822.97366669028122 0.9988445682442344 3.7572212272246602e-17 -0.04805755392224309 15.000000000000004 6.0000000000000009 -0.04805755392224309 5.9564989294003955e-17 -0.9988445682442344 forward_v I I I I #
DXID-attrib $-1 -1 $-1 $124 $80 @18 ASM_FACE_FROM_STEP @17 step-2M-560-10258 #
truecolor-adesk-attrib $-1 -1 $226 $-1 $125 -1056964608 #
torus-surface $-1 -1 $-1 137.10774482400686 308.48997090774304 822.97366669028122 0.9988445682442344 3.7572212272246602e-17 -0.04805755392224309 14.999999999999998 6.0000000000000009 -0.04805755392224309 5.9564989294003955e-17 -0.9988445682442344 forward_v I I I I #
coedge $-1 -1 $-1 $137 $216 $129 $183 reversed $126 $-1 #
coedge $-1 -1 $-1 $200 $128 $227 $228 forward $81 $-1 #
coedge $-1 -1 $-1 $128 $200 $229 $230 reversed $81 $-1 #
coedge $-1 -1 $-1 $231 $231 $128 $182 forward $232 $-1 #
edge $233 -1 $-1 $234 1.34711147906209e-16 $235 3.1415926535897931 $128 $236 forward @7 unknown #
edge $237 -1 $-1 $145 2.1533374030180052 $134 3.1415926535897931 $129 $238 forward @7 unknown #
coedge $-1 -1 $-1 $216 $137 $130 $185 forward $126 $-1 #
edge $239 -1 $-1 $142 2.1533374030180061 $135 3.1415926535897931 $130 $240 forward @7 unknown #
truecolor-adesk-attrib $-1 -1 $241 $-1 $132 -1056964608 #
ellipse-curve $-1 -1 $-1 137.50432610134996 321.01598161181636 831.21634702691324 -0.040131295656106639 0.55014768054259677 -0.83410251690218706 -0.15863251093723674 -5.0104042816293406 -3.2970721346528236 1 F -3.1415926535897931 F 1.2246467991473547e-16 #
DXID-attrib $-1 -1 $-1 $133 $85 @18 ASM_EDGE_FROM_STEP @5 20947 #
point $-1 -1 $-1 138.11695345637398 308.48997090774304 843.94940262341015 #
point $-1 -1 $-1 137.54026280930705 308.48997090774304 831.9632678044793 #
truecolor-adesk-attrib $-1 -1 $242 $-1 $138 -1056964608 #
ellipse-curve $-1 -1 $-1 137.50432610134996 321.01598161181636 831.21634702691324 -0.040131295656106639 0.55014768054259677 -0.83410251690218706 -0.15863251093723674 -5.0104042816293406 -3.2970721346528236 1 F 1.2246467991473547e-16 F 3.1415926535897931 #
coedge $-1 -1 $-1 $150 $148 $139 $194 forward $203 $-1 #
edge $243 -1 $-1 $96 -3.1415926535897931 $95 1.2246467991473535e-16 $139 $244 forward @7 unknown #
face $245 -1 $-1 $246 $140 $3 $-1 $247 forward single #
DXID-attrib $-1 -1 $-1 $141 $88 @18 ASM_EDGE_FROM_STEP @5 27930 #
point $-1 -1 $-1 137.34569359041271 316.00557733018701 827.91927489226043 #
DXID-attrib $-1 -1 $-1 $144 $90 @18 ASM_EDGE_FROM_STEP @4 5128 #
point $-1 -1 $-1 137.66295861228718 326.02638589344571 834.51341916156605 #
coedge $-1 -1 $-1 $180 $179 $147 $201 reversed $81 $-1 #
edge $248 -1 $-1 $205 -3.1415926535897931 $208 -1.2246467991473535e-16 $200 $249 forward @7 unknown #
coedge $-1 -1 $-1 $148 $150 $250 $251 forward $203 $-1 #
loop $-1 -1 $-1 $-1 $150 $246 #
truecolor-adesk-attrib $-1 -1 $252 $-1 $149 -1056964608 #
vertex $-1 -1 $-1 $201 $253 #
straight-curve $-1 -1 $-1 137.57648340388971 438.48997090774299 832.71608897835767 3.3587591510046516e-14 -1000 -8.3721051190835956e-14 F 0.0010000000000000141 F 0.1091233154932111 #
truecolor-adesk-attrib $-1 -1 $254 $-1 $151 -1056964608 #
vertex $-1 -1 $-1 $228 $255 #
straight-curve $-1 -1 $-1 136.99979275682279 438.48997090774299 820.72995415942682 3.3587591510046516e-14 -1000 -8.3721051190835956e-14 F 0.0010000000000000141 F 0.1091233154932111 #
truecolor-adesk-attrib $-1 -1 $256 $-1 $152 -1056964608 #
cone-surface $-1 -1 $-1 137.28813808035625 438.48997090774299 826.72302156889225 3.3587591510046521e-17 -1 -8.3721051190835965e-17 0.28834532353345854 -4.9206107843730989e-16 5.9930674094654064 1 I I 0 1 6.0000000000000009 forward I I I I #
truecolor-adesk-attrib $-1 -1 $257 $-1 $157 -1056964608 #
ellipse-curve $-1 -1 $-1 136.3868815151732 308.48997090774304 807.99099816661771 3.4666252460178444e-17 -1 -6.1301794631093255e-17 5.9930674094654064 2.2543327363347962e-16 -0.28834532353345854 1 F 1.5707963267948968 F 4.7123889803846897 #
truecolor-adesk-attrib $-1 -1 $258 $-1 $158 -1056964608 #
torus-surface $-1 -1 $-1 137.10774482400686 308.48997090774304 822.97366669028122 0.9988445682442344 3.7572212272246602e-17 -0.04805755392224309 14.999999999999998 6.0000000000000009 -0.04805755392224309 5.9564989294003955e-17 -0.9988445682442344 forward_v I I I I #
coedge $-1 -1 $-1 $178 $184 $161 $217 forward $126 $-1 #
edge $259 -1 $-1 $135 0 $134 3.1415926535897931 $216 $260 forward @7 unknown #
DXID-attrib $-1 -1 $-1 $163 $106 @18 ASM_EDGE_FROM_STEP @5 32193 #
DXID-attrib $-1 -1 $-1 $165 $108 @18 ASM_EDGE_FROM_STEP @5 23588 #
truecolor-adesk-attrib $-1 -1 $261 $-1 $167 -1056964608 #
face $262 -1 $-1 $263 $232 $3 $-1 $264 forward single #
plane-surface $-1 -1 $-1 136.72129069416735 321.15229726093793 814.94147243648501 -0.040568028766646808 -0.53609904277800768 -0.84317972661496832 0.025763608655967038 -0.84415509021299173 0.53547961691974644 forward_v I I I I #
DXID-attrib $-1 -1 $-1 $169 $116 @18 ASM_EDGE_FROM_STEP @4 2338 #
DXID-attrib $-1 -1 $-1 $171 $117 @18 ASM_EDGE_FROM_STEP @5 15757 #
DXID-attrib $-1 -1 $-1 $173 $118 @18 ASM_FACE_FROM_STEP @17 step-2M-560-25346 #
DXID-attrib $-1 -1 $-1 $176 $125 @18 ASM_FACE_FROM_STEP @17 step-2M-560-25860 #
coedge $-1 -1 $-1 $265 $250 $179 $228 reversed $266 $-1 #
edge $267 -1 $-1 $234 3.9252311467094286e-19 $208 0.0014142135623731119 $179 $268 forward @7 unknown #
coedge $-1 -1 $-1 $250 $265 $180 $230 forward $266 $-1 #
edge $269 -1 $-1 $235 3.9252311467094286e-19 $205 0.0014142135623731126 $180 $270 forward @7 unknown #
coedge $-1 -1 $-1 $181 $181 $265 $271 forward $232 $-1 #
loop $-1 -1 $-1 $-1 $231 $221 #
truecolor-adesk-attrib $-1 -1 $272 $-1 $182 -1056964608 #
vertex $-1 -1 $-1 $182 $273 #
vertex $-1 -1 $-1 $182 $274 #
ellipse-curve $-1 -1 $-1 137.28813808035625 438.48997090774299 826.72302156889225 -4.2669442890924336e-17 1 -1.0503924102188514e-16 -0.24028776961121498 -5.3484232199884673e-16 -4.9942228412211627 1 F 1.34711147906209e-16 F 3.1415926535897931 #
truecolor-adesk-attrib $-1 -1 $275 $-1 $183 -1056964608 #
ellipse-curve $-1 -1 $-1 137.10774482400686 308.48997090774304 822.97366669028122 0.9988445682442344 3.7572212272246602e-17 -0.04805755392224309 -1.0092086323671048 1.2508647751740828e-15 -20.97573593312892 1 F 2.1533374030180052 F 3.1415926535897931 #
truecolor-adesk-attrib $-1 -1 $276 $-1 $185 -1056964608 #
ellipse-curve $-1 -1 $-1 137.10774482400686 308.48997090774304 822.97366669028122 0.9988445682442344 3.7572212272246602e-17 -0.04805755392224309 -0.43251798530018765 5.3608490364603536e-16 -8.9896011141981056 1 F 2.1533374030180061 F 3.1415926535897931 #
DXID-attrib $-1 -1 $-1 $186 $132 @18 ASM_EDGE_FROM_STEP @5 29926 #
DXID-attrib $-1 -1 $-1 $191 $138 @18 ASM_EDGE_FROM_STEP @5 24495 #
truecolor-adesk-attrib $-1 -1 $277 $-1 $194 -1056964608 #
ellipse-curve $-1 -1 $-1 137.28813808035625 329.36665541453192 826.72302156889225 -4.2669442890924336e-17 1 -1.0503924102188507e-16 -0.28834532353345854 -6.4181078639861698e-16 -5.9930674094654064 1 F -3.1415926535897931 F 1.2246467991473535e-16 #
truecolor-adesk-attrib $-1 -1 $278 $-1 $195 -1056964608 #
face $279 -1 $-1 $167 $203 $3 $-1 $280 forward single #
torus-surface $-1 -1 $-1 137.76871361957868 329.36665541453192 836.71146725133462 -0.9988445682442344 -3.7572212272246602e-17 0.04805755392224309 10.000000000000016 6.0000000000000009 0.04805755392224309 -5.9564989294003955e-17 0.9988445682442344 forward_v I I I I #
truecolor-adesk-attrib $-1 -1 $281 $-1 $201 -1056964608 #
ellipse-curve $-1 -1 $-1 137.28813808035625 437.48997090774299 826.72302156889225 3.3587591510046527e-17 -1 -8.3721051190835768e-17 -0.28834532353345854 4.9206107843730881e-16 -5.9930674094654064 1 F -3.1415926535897931 F -1.2246467991473535e-16 #
coedge $-1 -1 $-1 $227 $229 $202 $251 reversed $266 $-1 #
edge $282 -1 $-1 $208 -1.2246467991473535e-16 $205 3.1415926535897931 $202 $283 forward @7 unknown #
DXID-attrib $-1 -1 $-1 $204 $149 @18 ASM_EDGE_FROM_STEP @4 1574 #
point $-1 -1 $-1 137.57648340388971 437.48997090774299 832.71608897835767 #
DXID-attrib $-1 -1 $-1 $207 $151 @18 ASM_EDGE_FROM_STEP @5 14176 #
point $-1 -1 $-1 136.99979275682279 437.48997090774299 820.72995415942682 #
DXID-attrib $-1 -1 $-1 $210 $152 @18 ASM_FACE_FROM_STEP @17 step-2M-560-16209 #
DXID-attrib $-1 -1 $-1 $212 $157 @18 ASM_EDGE_FROM_STEP @5 14387 #
DXID-attrib $-1 -1 $-1 $214 $158 @18 ASM_FACE_FROM_STEP @17 step-2M-560-14781 #
truecolor-adesk-attrib $-1 -1 $284 $-1 $217 -1056964608 #
ellipse-curve $-1 -1 $-1 137.82860813284051 308.48997090774304 837.95633521394473 -4.0551605418751079e-17 1 -6.102138570350888e-17 -0.28834532353345854 -3.7739814372438817e-16 -5.9930674094654064 1 F 0 F 3.1415926535897931 #
DXID-attrib $-1 -1 $-1 $220 $167 @18 ASM_FACE_FROM_STEP @17 step-2M-560-31032 #
truecolor-adesk-attrib $-1 -1 $285 $-1 $221 -1056964608 #
face $286 -1 $-1 $-1 $266 $3 $-1 $287 forward single #
plane-surface $-1 -1 $-1 137.28813808035625 438.48997090774299 826.72302156889225 -4.8004903178088264e-17 1 -2.1593326479053736e-16 -0.04805755392224309 -2.1799076686228517e-16 -0.9988445682442344 forward_v I I I I #
coedge $-1 -1 $-1 $229 $227 $231 $271 reversed $266 $-1 #
loop $-1 -1 $-1 $-1 $227 $263 #
truecolor-adesk-attrib $-1 -1 $288 $-1 $228 -1056964608 #
straight-curve $-1 -1 $-1 137.04785031074502 438.48997090774299 821.72879872767112 -33.981822265656255 -707.10678118654914 -706.28976755684607 F 3.9252311467094286e-19 F 0.0014142135623731119 #
truecolor-adesk-attrib $-1 -1 $289 $-1 $230 -1056964608 #
straight-curve $-1 -1 $-1 137.52842584996745 438.48997090774299 831.71724441011338 33.981822265656213 -707.10678118654914 706.28976755684607 F 3.9252311467094286e-19 F 0.0014142135623731126 #
edge $290 -1 $-1 $235 -3.1415926535897931 $234 1.34711147906209e-16 $231 $291 forward @7 unknown #
DXID-attrib $-1 -1 $-1 $233 $182 @18 ASM_EDGE_FROM_STEP @4 4962 #
point $-1 -1 $-1 137.04785031074502 438.48997090774299 821.72879872767112 #
point $-1 -1 $-1 137.52842584996745 438.48997090774299 831.71724441011338 #
DXID-attrib $-1 -1 $-1 $237 $183 @18 ASM_EDGE_FROM_STEP @5 17920 #
DXID-attrib $-1 -1 $-1 $239 $185 @18 ASM_EDGE_FROM_STEP @5 27586 #
DXID-attrib $-1 -1 $-1 $243 $194 @18 ASM_EDGE_FROM_STEP @5 11353 #
DXID-attrib $-1 -1 $-1 $245 $195 @18 ASM_FACE_FROM_STEP @17 step-2M-560-13498 #
truecolor-adesk-attrib $-1 -1 $292 $-1 $246 -1056964608 #
cone-surface $-1 -1 $-1 137.28813808035625 438.48997090774299 826.72302156889225 3.3587591510046521e-17 -1 -8.3721051190835965e-17 0.28834532353345854 -4.9206107843730989e-16 5.9930674094654064 1 I I 0 1 6.0000000000000009 forward I I I I #
DXID-attrib $-1 -1 $-1 $248 $201 @18 ASM_EDGE_FROM_STEP @5 12319 #
truecolor-adesk-attrib $-1 -1 $293 $-1 $251 -1056964608 #
ellipse-curve $-1 -1 $-1 137.28813808035625 437.48997090774299 826.72302156889225 3.3587591510046527e-17 -1 -8.3721051190835768e-17 -0.28834532353345854 4.9206107843730881e-16 -5.9930674094654064 1 F -1.2246467991473535e-16 F 3.1415926535897931 #
DXID-attrib $-1 -1 $-1 $259 $217 @18 ASM_EDGE_FROM_STEP @5 13144 #
DXID-attrib $-1 -1 $-1 $262 $221 @18 ASM_FACE_FROM_STEP @16 step-2M-560-2869 #
truecolor-adesk-attrib $-1 -1 $294 $-1 $263 -1056964608 #
cone-surface $-1 -1 $-1 137.28813808035625 438.48997090774299 826.72302156889225 3.3587591510046527e-17 -1 -8.3721051190835768e-17 0.24028776961121495 -4.1005089869775647e-16 4.9942228412211618 1 I I 0.70710678118654591 0.70710678118654913 4.9999999999999893 forward I I I I #
DXID-attrib $-1 -1 $-1 $267 $228 @18 ASM_EDGE_FROM_STEP @5 10633 #
DXID-attrib $-1 -1 $-1 $269 $230 @18 ASM_EDGE_FROM_STEP @5 29033 #
truecolor-adesk-attrib $-1 -1 $295 $-1 $271 -1056964608 #
ellipse-curve $-1 -1 $-1 137.28813808035625 438.48997090774299 826.72302156889225 -4.2669442890924336e-17 1 -1.0503924102188514e-16 -0.24028776961121498 -5.3484232199884673e-16 -4.9942228412211627 1 F -3.1415926535897931 F 1.34711147906209e-16 #
DXID-attrib $-1 -1 $-1 $279 $246 @18 ASM_FACE_FROM_STEP @17 step-2M-560-28845 #
DXID-attrib $-1 -1 $-1 $282 $251 @18 ASM_EDGE_FROM_STEP @5 26964 #
DXID-attrib $-1 -1 $-1 $286 $263 @18 ASM_FACE_FROM_STEP @16 step-2M-560-3775 #
DXID-attrib $-1 -1 $-1 $290 $271 @18 ASM_EDGE_FROM_STEP @5 26297 #
