700 614 1 0         
5 ZWCAD 12 ACIS 28.0 NT 24 Mon May 13 16:07:26 2024 
1 9.9999999999999995e-07 1e-10 
body $1 -1 $-1 $2 $-1 $-1 #
DXID-attrib $-1 -1 $-1 $-1 $0 @18 ASM_BODY_FROM_STEP @83 48432B0E02796ACE0D5AF80D05F96B9A91F38BEF|:|1A803EE03227871CBD4885D6D97CC042F1FC423F #
lump $-1 -1 $-1 $-1 $3 $0 #
shell $-1 -1 $-1 $-1 $-1 $4 $-1 $2 #
face $5 -1 $-1 $6 $7 $3 $-1 $8 reversed single #
truecolor-adesk-attrib $-1 -1 $9 $-1 $4 -1029333354 #
face $10 -1 $-1 $11 $12 $3 $-1 $13 reversed single #
loop $-1 -1 $-1 $-1 $14 $4 #
cone-surface $-1 -1 $-1 6241.7087357713908 660.60608938934638 -71 0 0 0.99999999999999978 8.2069418037809552 -9.4284731653302618 0 1 I I 0 1 12.500000000000011 forward I I I I #
DXID-attrib $-1 -1 $-1 $5 $4 @18 ASM_FACE_FROM_STEP @16 step-3M-249-1683 #
truecolor-adesk-attrib $-1 -1 $15 $-1 $6 -1029333354 #
face $16 -1 $-1 $17 $18 $3 $-1 $19 reversed single #
loop $-1 -1 $-1 $-1 $20 $6 #
cone-surface $-1 -1 $-1 6241.7087357713908 660.60608938934638 71 -0 0 -0.99999999999999978 8.2069418037809552 -9.4284731653302618 0 1 I I 0 1 12.500000000000011 forward I I I I #
coedge $-1 -1 $-1 $21 $22 $23 $24 reversed $7 $-1 #
DXID-attrib $-1 -1 $-1 $10 $6 @18 ASM_FACE_FROM_STEP @16 step-3M-249-3202 #
truecolor-adesk-attrib $-1 -1 $25 $-1 $11 -1029333354 #
face $26 -1 $-1 $27 $28 $3 $-1 $29 forward single #
loop $-1 -1 $-1 $-1 $30 $11 #
cone-surface $-1 -1 $-1 6300.7987167586134 592.72108259896856 191.99999999999997 -0 0 -0.99999999999999978 23.635992394889136 -27.154002716151137 0 1 I I 0 1 36.000000000000007 forward I I I I #
coedge $-1 -1 $-1 $31 $32 $33 $34 forward $12 $-1 #
coedge $-1 -1 $-1 $35 $14 $36 $37 forward $7 $-1 #
coedge $-1 -1 $-1 $14 $35 $38 $39 reversed $7 $-1 #
coedge $-1 -1 $-1 $40 $40 $14 $24 forward $41 $-1 #
edge $42 -1 $-1 $43 -1.2246467991473532e-16 $44 3.1415926535897931 $14 $45 forward @7 unknown #
DXID-attrib $-1 -1 $-1 $16 $11 @18 ASM_FACE_FROM_STEP @17 step-3M-249-23365 #
truecolor-adesk-attrib $-1 -1 $46 $-1 $17 -1029333354 #
face $47 -1 $-1 $48 $49 $3 $-1 $50 forward single #
loop $-1 -1 $-1 $-1 $51 $17 #
cone-surface $-1 -1 $-1 6300.7987167586134 592.72108259896856 191.99999999999997 -0 0 -0.99999999999999978 28.88843514930894 -33.188225541962495 0 1 I I 0 1 44 forward I I I I #
coedge $-1 -1 $-1 $52 $53 $54 $55 forward $18 $-1 #
coedge $-1 -1 $-1 $56 $20 $57 $58 forward $12 $-1 #
coedge $-1 -1 $-1 $20 $56 $59 $60 reversed $12 $-1 #
coedge $-1 -1 $-1 $61 $61 $20 $34 reversed $62 $-1 #
edge $63 -1 $-1 $64 -3.1415926535897931 $65 1.2246467991473532e-16 $20 $66 forward @7 unknown #
coedge $-1 -1 $-1 $22 $21 $67 $68 forward $7 $-1 #
coedge $-1 -1 $-1 $69 $70 $21 $37 reversed $71 $-1 #
edge $72 -1 $-1 $43 0 $73 0.016000000000000014 $21 $74 forward @7 unknown #
coedge $-1 -1 $-1 $70 $69 $22 $39 forward $71 $-1 #
edge $75 -1 $-1 $44 0 $76 0.016000000000000014 $22 $77 forward @7 unknown #
coedge $-1 -1 $-1 $23 $23 $69 $78 forward $41 $-1 #
loop $-1 -1 $-1 $-1 $40 $79 #
truecolor-adesk-attrib $-1 -1 $80 $-1 $24 -1029333354 #
vertex $-1 -1 $-1 $24 $81 #
vertex $-1 -1 $-1 $24 $82 #
ellipse-curve $-1 -1 $-1 6241.7087357713908 660.60608938934638 -71 0 0 0.99999999999999978 -8.2069418037809552 9.4284731653302618 0 1 F -1.2246467991473532e-16 F 3.1415926535897931 #
DXID-attrib $-1 -1 $-1 $26 $17 @18 ASM_FACE_FROM_STEP @17 step-3M-249-38395 #
truecolor-adesk-attrib $-1 -1 $83 $-1 $27 -1029333354 #
face $84 -1 $-1 $85 $86 $3 $-1 $87 reversed single #
loop $-1 -1 $-1 $88 $89 $27 #
plane-surface $-1 -1 $-1 6300.7987167586134 592.72108259896856 191.99999999999997 0 0 0.99999999999999978 -0.65655534430247586 0.75427785322642027 0 forward_v I I I I #
coedge $-1 -1 $-1 $90 $91 $92 $93 reversed $28 $-1 #
coedge $-1 -1 $-1 $94 $30 $95 $96 forward $18 $-1 #
coedge $-1 -1 $-1 $30 $94 $97 $98 reversed $18 $-1 #
coedge $-1 -1 $-1 $99 $99 $30 $55 reversed $88 $-1 #
edge $100 -1 $-1 $101 -3.1415926535897931 $102 1.224646799147353e-16 $30 $103 forward @7 unknown #
coedge $-1 -1 $-1 $32 $31 $104 $105 reversed $12 $-1 #
coedge $-1 -1 $-1 $106 $107 $31 $58 reversed $108 $-1 #
edge $109 -1 $-1 $65 0 $110 0.016000000000000014 $31 $111 forward @7 unknown #
coedge $-1 -1 $-1 $107 $106 $32 $60 forward $108 $-1 #
edge $112 -1 $-1 $64 0 $113 0.016000000000000014 $32 $114 forward @7 unknown #
coedge $-1 -1 $-1 $33 $33 $106 $115 reversed $62 $-1 #
loop $-1 -1 $-1 $-1 $33 $116 #
truecolor-adesk-attrib $-1 -1 $117 $-1 $34 -1029333354 #
vertex $-1 -1 $-1 $34 $118 #
vertex $-1 -1 $-1 $34 $119 #
ellipse-curve $-1 -1 $-1 6241.7087357713908 660.60608938934638 71 0 0 0.99999999999999978 -8.2069418037809552 9.4284731653302618 0 1 F -3.1415926535897931 F 1.2246467991473532e-16 #
coedge $-1 -1 $-1 $120 $120 $35 $68 reversed $121 $-1 #
edge $122 -1 $-1 $73 -1.2246467991473532e-16 $76 3.1415926535897931 $35 $123 forward @7 unknown #
coedge $-1 -1 $-1 $38 $36 $40 $78 reversed $71 $-1 #
coedge $-1 -1 $-1 $36 $38 $120 $124 forward $71 $-1 #
loop $-1 -1 $-1 $-1 $36 $125 #
truecolor-adesk-attrib $-1 -1 $126 $-1 $37 -1029333354 #
vertex $-1 -1 $-1 $37 $127 #
straight-curve $-1 -1 $-1 6233.50179396761 670.03456255467665 -71 0 0 999.99999999999977 F 0 F 0.016000000000000014 #
truecolor-adesk-attrib $-1 -1 $128 $-1 $39 -1029333354 #
vertex $-1 -1 $-1 $68 $129 #
straight-curve $-1 -1 $-1 6249.9156775751717 651.17761622401611 -71 0 0 999.99999999999977 F 0 F 0.016000000000000014 #
edge $130 -1 $-1 $44 -3.1415926535897931 $43 -1.2246467991473532e-16 $69 $131 forward @7 unknown #
face $132 -1 $-1 $133 $134 $3 $-1 $135 forward single #
DXID-attrib $-1 -1 $-1 $42 $24 @18 ASM_EDGE_FROM_STEP @5 31143 #
point $-1 -1 $-1 6233.50179396761 670.03456255467665 -71 #
point $-1 -1 $-1 6249.9156775751717 651.17761622401611 -71 #
DXID-attrib $-1 -1 $-1 $47 $27 @18 ASM_FACE_FROM_STEP @17 step-3M-249-29957 #
truecolor-adesk-attrib $-1 -1 $136 $-1 $48 -1029333354 #
face $137 -1 $-1 $138 $139 $3 $-1 $140 forward single #
loop $-1 -1 $-1 $141 $142 $48 #
plane-surface $-1 -1 $-1 6300.7987167586134 592.72108259896856 -191.99999999999997 0 0 0.99999999999999978 -0.65655534430247586 0.75427785322642027 0 forward_v I I I I #
loop $-1 -1 $-1 $-1 $54 $27 #
coedge $-1 -1 $-1 $92 $92 $143 $144 forward $49 $-1 #
coedge $-1 -1 $-1 $145 $51 $146 $147 forward $28 $-1 #
coedge $-1 -1 $-1 $51 $148 $149 $150 reversed $28 $-1 #
coedge $-1 -1 $-1 $89 $89 $51 $93 forward $49 $-1 #
edge $151 -1 $-1 $152 1.2246467991473532e-16 $153 3.1415926535897931 $51 $154 forward @7 unknown #
coedge $-1 -1 $-1 $53 $52 $155 $156 reversed $18 $-1 #
coedge $-1 -1 $-1 $157 $158 $52 $96 reversed $159 $-1 #
edge $160 -1 $-1 $102 0 $161 0.38400000000000006 $52 $162 forward @7 unknown #
coedge $-1 -1 $-1 $158 $157 $53 $98 forward $159 $-1 #
edge $163 -1 $-1 $101 0 $164 0.38400000000000006 $53 $165 forward @7 unknown #
coedge $-1 -1 $-1 $54 $54 $157 $166 reversed $88 $-1 #
truecolor-adesk-attrib $-1 -1 $167 $-1 $55 -1029333354 #
vertex $-1 -1 $-1 $55 $168 #
vertex $-1 -1 $-1 $55 $169 #
ellipse-curve $-1 -1 $-1 6300.7987167586134 592.72108259896856 191.99999999999997 0 0 0.99999999999999978 -23.635992394889136 27.154002716151137 0 1 F -3.1415926535897931 F 1.224646799147353e-16 #
coedge $-1 -1 $-1 $170 $170 $56 $105 forward $171 $-1 #
edge $172 -1 $-1 $113 -3.1415926535897931 $110 1.2246467991473532e-16 $56 $173 forward @7 unknown #
coedge $-1 -1 $-1 $59 $57 $61 $115 forward $108 $-1 #
coedge $-1 -1 $-1 $57 $59 $170 $174 reversed $108 $-1 #
loop $-1 -1 $-1 $-1 $57 $175 #
truecolor-adesk-attrib $-1 -1 $176 $-1 $58 -1029333354 #
vertex $-1 -1 $-1 $58 $177 #
straight-curve $-1 -1 $-1 6233.50179396761 670.03456255467665 71 -0 0 -999.99999999999977 F 0 F 0.016000000000000014 #
truecolor-adesk-attrib $-1 -1 $178 $-1 $60 -1029333354 #
vertex $-1 -1 $-1 $105 $179 #
straight-curve $-1 -1 $-1 6249.9156775751717 651.17761622401611 71 -0 0 -999.99999999999977 F 0 F 0.016000000000000014 #
edge $180 -1 $-1 $65 1.2246467991473532e-16 $64 3.1415926535897931 $106 $181 forward @7 unknown #
face $182 -1 $-1 $183 $184 $3 $-1 $185 forward single #
DXID-attrib $-1 -1 $-1 $63 $34 @18 ASM_EDGE_FROM_STEP @5 31351 #
point $-1 -1 $-1 6249.9156775751717 651.17761622401611 71 #
point $-1 -1 $-1 6233.50179396761 670.03456255467665 71 #
coedge $-1 -1 $-1 $67 $67 $70 $124 reversed $121 $-1 #
loop $-1 -1 $-1 $-1 $120 $133 #
truecolor-adesk-attrib $-1 -1 $186 $-1 $68 -1029333354 #
ellipse-curve $-1 -1 $-1 6241.7087357713908 660.60608938934638 -54.999999999999986 0 0 0.99999999999999978 -8.2069418037809552 9.4284731653302618 0 1 F -1.2246467991473532e-16 F 3.1415926535897931 #
edge $187 -1 $-1 $76 -3.1415926535897931 $73 -1.2246467991473532e-16 $70 $188 forward @7 unknown #
face $189 -1 $-1 $79 $71 $3 $-1 $190 reversed single #
DXID-attrib $-1 -1 $-1 $72 $37 @18 ASM_EDGE_FROM_STEP @5 18999 #
point $-1 -1 $-1 6233.50179396761 670.03456255467665 -54.999999999999986 #
DXID-attrib $-1 -1 $-1 $75 $39 @18 ASM_EDGE_FROM_STEP @5 36614 #
point $-1 -1 $-1 6249.9156775751717 651.17761622401611 -54.999999999999986 #
truecolor-adesk-attrib $-1 -1 $191 $-1 $78 -1029333354 #
ellipse-curve $-1 -1 $-1 6241.7087357713908 660.60608938934638 -71 0 0 0.99999999999999978 -8.2069418037809552 9.4284731653302618 0 1 F -3.1415926535897931 F -1.2246467991473532e-16 #
truecolor-adesk-attrib $-1 -1 $192 $-1 $79 -1029333354 #
face $193 -1 $-1 $-1 $194 $3 $-1 $195 reversed single #
loop $-1 -1 $-1 $41 $196 $79 #
plane-surface $-1 -1 $-1 6300.7987167586134 592.72108259896856 -71 -0 0 -0.99999999999999978 -0.65655534430247586 0.75427785322642027 0 forward_v I I I I #
DXID-attrib $-1 -1 $-1 $84 $48 @18 ASM_FACE_FROM_STEP @15 step-3M-249-301 #
truecolor-adesk-attrib $-1 -1 $197 $-1 $85 -1029333354 #
face $198 -1 $-1 $199 $159 $3 $-1 $200 reversed single #
loop $-1 -1 $-1 $-1 $146 $85 #
cone-surface $-1 -1 $-1 6300.7987167586134 592.72108259896856 191.99999999999997 -0 0 -0.99999999999999978 28.88843514930894 -33.188225541962495 0 1 I I 0 1 44 forward I I I I #
loop $-1 -1 $-1 $-1 $155 $48 #
coedge $-1 -1 $-1 $201 $201 $202 $203 reversed $86 $-1 #
coedge $-1 -1 $-1 $149 $146 $89 $144 reversed $139 $-1 #
edge $204 -1 $-1 $153 -3.1415926535897931 $152 1.2246467991473532e-16 $89 $205 forward @7 unknown #
coedge $-1 -1 $-1 $206 $90 $207 $208 forward $28 $-1 #
coedge $-1 -1 $-1 $143 $209 $90 $147 reversed $139 $-1 #
edge $210 -1 $-1 $152 0 $211 0.12100000000000001 $90 $212 forward @7 unknown #
coedge $-1 -1 $-1 $91 $213 $201 $214 forward $28 $-1 #
coedge $-1 -1 $-1 $202 $143 $91 $150 forward $139 $-1 #
edge $215 -1 $-1 $153 0 $216 0.38400000000000006 $91 $217 forward @7 unknown #
truecolor-adesk-attrib $-1 -1 $218 $-1 $93 -1029333354 #
vertex $-1 -1 $-1 $93 $219 #
vertex $-1 -1 $-1 $93 $220 #
ellipse-curve $-1 -1 $-1 6300.7987167586134 592.72108259896856 191.99999999999997 0 0 0.99999999999999978 -28.88843514930894 33.188225541962495 0 1 F 1.2246467991473532e-16 F 3.1415926535897931 #
coedge $-1 -1 $-1 $221 $221 $94 $156 forward $141 $-1 #
edge $222 -1 $-1 $164 -3.1415926535897931 $161 1.224646799147353e-16 $94 $223 forward @7 unknown #
coedge $-1 -1 $-1 $97 $95 $99 $166 forward $159 $-1 #
coedge $-1 -1 $-1 $95 $97 $221 $224 reversed $159 $-1 #
loop $-1 -1 $-1 $-1 $95 $138 #
truecolor-adesk-attrib $-1 -1 $225 $-1 $96 -1029333354 #
vertex $-1 -1 $-1 $96 $226 #
straight-curve $-1 -1 $-1 6277.162724363724 619.87508531511969 191.99999999999997 -0 0 -999.99999999999977 F 0 F 0.38400000000000006 #
truecolor-adesk-attrib $-1 -1 $227 $-1 $98 -1029333354 #
vertex $-1 -1 $-1 $156 $228 #
straight-curve $-1 -1 $-1 6324.4347091535028 565.56707988281744 191.99999999999997 -0 0 -999.99999999999977 F 0 F 0.38400000000000006 #
edge $229 -1 $-1 $102 1.224646799147353e-16 $101 3.1415926535897931 $99 $230 forward @7 unknown #
DXID-attrib $-1 -1 $-1 $100 $55 @18 ASM_EDGE_FROM_STEP @5 33614 #
point $-1 -1 $-1 6324.4347091535028 565.56707988281744 191.99999999999997 #
point $-1 -1 $-1 6277.162724363724 619.87508531511969 191.99999999999997 #
coedge $-1 -1 $-1 $104 $104 $107 $174 forward $171 $-1 #
loop $-1 -1 $-1 $-1 $104 $183 #
truecolor-adesk-attrib $-1 -1 $231 $-1 $105 -1029333354 #
ellipse-curve $-1 -1 $-1 6241.7087357713908 660.60608938934638 54.999999999999986 0 0 0.99999999999999978 -8.2069418037809552 9.4284731653302618 0 1 F -3.1415926535897931 F 1.2246467991473532e-16 #
edge $232 -1 $-1 $110 1.2246467991473532e-16 $113 3.1415926535897931 $107 $233 forward @7 unknown #
face $234 -1 $-1 $116 $108 $3 $-1 $235 reversed single #
DXID-attrib $-1 -1 $-1 $109 $58 @18 ASM_EDGE_FROM_STEP @5 29280 #
point $-1 -1 $-1 6233.50179396761 670.03456255467665 54.999999999999986 #
DXID-attrib $-1 -1 $-1 $112 $60 @18 ASM_EDGE_FROM_STEP @4 1626 #
point $-1 -1 $-1 6249.9156775751717 651.17761622401611 54.999999999999986 #
truecolor-adesk-attrib $-1 -1 $236 $-1 $115 -1029333354 #
ellipse-curve $-1 -1 $-1 6241.7087357713908 660.60608938934638 71 0 0 0.99999999999999978 -8.2069418037809552 9.4284731653302618 0 1 F 1.2246467991473532e-16 F 3.1415926535897931 #
truecolor-adesk-attrib $-1 -1 $237 $-1 $116 -1029333354 #
face $238 -1 $-1 $239 $240 $3 $-1 $241 reversed single #
loop $-1 -1 $-1 $62 $242 $116 #
plane-surface $-1 -1 $-1 6300.7987167586134 592.72108259896856 71 0 0 0.99999999999999978 -0.65655534430247586 0.75427785322642027 0 forward_v I I I I #
DXID-attrib $-1 -1 $-1 $122 $68 @18 ASM_EDGE_FROM_STEP @5 38396 #
truecolor-adesk-attrib $-1 -1 $243 $-1 $124 -1029333354 #
ellipse-curve $-1 -1 $-1 6241.7087357713908 660.60608938934638 -54.999999999999986 0 0 0.99999999999999978 -8.2069418037809552 9.4284731653302618 0 1 F -3.1415926535897931 F -1.2246467991473532e-16 #
truecolor-adesk-attrib $-1 -1 $244 $-1 $125 -1029333354 #
cone-surface $-1 -1 $-1 6241.7087357713908 660.60608938934638 -71 0 0 0.99999999999999978 8.2069418037809552 -9.4284731653302618 0 1 I I 0 1 12.500000000000011 forward I I I I #
DXID-attrib $-1 -1 $-1 $130 $78 @18 ASM_EDGE_FROM_STEP @5 13597 #
DXID-attrib $-1 -1 $-1 $132 $79 @18 ASM_FACE_FROM_STEP @17 step-3M-249-29294 #
truecolor-adesk-attrib $-1 -1 $245 $-1 $133 -1029333354 #
loop $-1 -1 $-1 $121 $246 $133 #
plane-surface $-1 -1 $-1 6300.7987167586134 592.72108259896856 -54.999999999999986 -0 0 -0.99999999999999978 -0.65655534430247586 0.75427785322642027 0 forward_v I I I I #
coedge $-1 -1 $-1 $247 $248 $249 $250 forward $134 $-1 #
DXID-attrib $-1 -1 $-1 $137 $85 @18 ASM_FACE_FROM_STEP @17 step-3M-249-29330 #
truecolor-adesk-attrib $-1 -1 $251 $-1 $138 -1029333354 #
face $252 -1 $-1 $253 $254 $3 $-1 $255 reversed single #
cone-surface $-1 -1 $-1 6300.7987167586134 592.72108259896856 191.99999999999997 -0 0 -0.99999999999999978 23.635992394889136 -27.154002716151137 0 1 I I 0 1 36.000000000000007 forward I I I I #
coedge $-1 -1 $-1 $142 $142 $148 $214 reversed $86 $-1 #
coedge $-1 -1 $-1 $256 $149 $142 $203 forward $139 $-1 #
edge $257 -1 $-1 $216 -3.1415926535897931 $258 1.2246467991473532e-16 $142 $259 forward @7 unknown #
truecolor-adesk-attrib $-1 -1 $260 $-1 $144 -1029333354 #
ellipse-curve $-1 -1 $-1 6300.7987167586134 592.72108259896856 191.99999999999997 0 0 0.99999999999999978 -28.88843514930894 33.188225541962495 0 1 F -3.1415926535897931 F 1.2246467991473532e-16 #
coedge $-1 -1 $-1 $261 $145 $262 $263 forward $28 $-1 #
coedge $-1 -1 $-1 $242 $264 $145 $208 reversed $184 $-1 #
edge $265 -1 $-1 $211 1.2246467991473532e-16 $266 1.5707963267948966 $145 $267 forward @7 unknown #
coedge $-1 -1 $-1 $146 $268 $242 $269 forward $139 $-1 #
truecolor-adesk-attrib $-1 -1 $270 $-1 $147 -1029333354 #
vertex $-1 -1 $-1 $147 $271 #
straight-curve $-1 -1 $-1 6271.9102816093045 625.9093081409311 191.99999999999997 -0 0 -999.99999999999977 F 0 F 0.12100000000000001 #
coedge $-1 -1 $-1 $148 $272 $256 $273 forward $28 $-1 #
edge $274 -1 $-1 $258 1.2246467991473532e-16 $216 3.1415926535897931 $148 $275 forward @7 unknown #
truecolor-adesk-attrib $-1 -1 $276 $-1 $150 -1029333354 #
vertex $-1 -1 $-1 $214 $277 #
straight-curve $-1 -1 $-1 6329.6871519079223 559.53285705700603 191.99999999999997 -0 0 -999.99999999999977 F 0 F 0.38400000000000006 #
DXID-attrib $-1 -1 $-1 $151 $93 @18 ASM_EDGE_FROM_STEP @5 30797 #
point $-1 -1 $-1 6271.9102816093045 625.9093081409311 191.99999999999997 #
point $-1 -1 $-1 6329.6871519079223 559.53285705700603 191.99999999999997 #
coedge $-1 -1 $-1 $155 $155 $158 $224 forward $141 $-1 #
truecolor-adesk-attrib $-1 -1 $278 $-1 $156 -1029333354 #
ellipse-curve $-1 -1 $-1 6300.7987167586134 592.72108259896856 -191.99999999999997 0 0 0.99999999999999978 -23.635992394889136 27.154002716151137 0 1 F -3.1415926535897931 F 1.224646799147353e-16 #
edge $279 -1 $-1 $161 1.224646799147353e-16 $164 3.1415926535897931 $221 $280 forward @7 unknown #
DXID-attrib $-1 -1 $-1 $160 $96 @18 ASM_EDGE_FROM_STEP @5 19033 #
point $-1 -1 $-1 6277.162724363724 619.87508531511969 -191.99999999999997 #
DXID-attrib $-1 -1 $-1 $163 $98 @18 ASM_EDGE_FROM_STEP @5 27526 #
point $-1 -1 $-1 6324.4347091535028 565.56707988281744 -191.99999999999997 #
truecolor-adesk-attrib $-1 -1 $281 $-1 $166 -1029333354 #
ellipse-curve $-1 -1 $-1 6300.7987167586134 592.72108259896856 191.99999999999997 0 0 0.99999999999999978 -23.635992394889136 27.154002716151137 0 1 F 1.224646799147353e-16 F 3.1415926535897931 #
DXID-attrib $-1 -1 $-1 $172 $105 @18 ASM_EDGE_FROM_STEP @5 17292 #
truecolor-adesk-attrib $-1 -1 $282 $-1 $174 -1029333354 #
ellipse-curve $-1 -1 $-1 6241.7087357713908 660.60608938934638 54.999999999999986 0 0 0.99999999999999978 -8.2069418037809552 9.4284731653302618 0 1 F 1.2246467991473532e-16 F 3.1415926535897931 #
truecolor-adesk-attrib $-1 -1 $283 $-1 $175 -1029333354 #
cone-surface $-1 -1 $-1 6241.7087357713908 660.60608938934638 71 -0 0 -0.99999999999999978 8.2069418037809552 -9.4284731653302618 0 1 I I 0 1 12.500000000000011 forward I I I I #
DXID-attrib $-1 -1 $-1 $180 $115 @18 ASM_EDGE_FROM_STEP @5 22547 #
DXID-attrib $-1 -1 $-1 $182 $116 @18 ASM_FACE_FROM_STEP @16 step-3M-249-2858 #
truecolor-adesk-attrib $-1 -1 $284 $-1 $183 -1029333354 #
face $285 -1 $-1 $286 $287 $3 $-1 $288 reversed single #
loop $-1 -1 $-1 $171 $289 $183 #
plane-surface $-1 -1 $-1 6300.7987167586134 592.72108259896856 54.999999999999986 0 0 0.99999999999999978 -0.65655534430247586 0.75427785322642027 0 forward_v I I I I #
coedge $-1 -1 $-1 $290 $207 $209 $269 reversed $184 $-1 #
DXID-attrib $-1 -1 $-1 $187 $124 @18 ASM_EDGE_FROM_STEP @5 29882 #
DXID-attrib $-1 -1 $-1 $189 $125 @18 ASM_FACE_FROM_STEP @17 step-3M-249-24241 #
DXID-attrib $-1 -1 $-1 $193 $133 @18 ASM_FACE_FROM_STEP @17 step-3M-249-13032 #
coedge $-1 -1 $-1 $291 $292 $293 $294 reversed $194 $-1 #
coedge $-1 -1 $-1 $295 $196 $272 $296 forward $134 $-1 #
coedge $-1 -1 $-1 $196 $297 $298 $299 reversed $134 $-1 #
coedge $-1 -1 $-1 $300 $256 $196 $250 reversed $139 $-1 #
edge $301 -1 $-1 $302 -1.5707963267948966 $303 1.2246467991473532e-16 $249 $304 forward @7 unknown #
DXID-attrib $-1 -1 $-1 $198 $138 @18 ASM_FACE_FROM_STEP @17 step-3M-249-12766 #
truecolor-adesk-attrib $-1 -1 $305 $-1 $199 -1029333354 #
face $306 -1 $-1 $307 $308 $3 $-1 $309 reversed single #
loop $-1 -1 $-1 $-1 $310 $199 #
plane-surface $-1 -1 $-1 6300.7987167586134 592.72108259896856 71 -0.65655534430247586 0.75427785322642027 0 -0.75427785322642027 -0.65655534430247586 0 forward_v I I I I #
coedge $-1 -1 $-1 $249 $202 $213 $273 reversed $139 $-1 #
truecolor-adesk-attrib $-1 -1 $311 $-1 $203 -1029333354 #
vertex $-1 -1 $-1 $273 $312 #
ellipse-curve $-1 -1 $-1 6300.7987167586134 592.72108259896856 -191.99999999999997 0 0 0.99999999999999978 -28.88843514930894 33.188225541962495 0 1 F -3.1415926535897931 F 1.2246467991473532e-16 #
DXID-attrib $-1 -1 $-1 $204 $144 @18 ASM_EDGE_FROM_STEP @4 5084 #
coedge $-1 -1 $-1 $313 $206 $314 $315 reversed $28 $-1 #
coedge $-1 -1 $-1 $316 $317 $206 $263 reversed $318 $-1 #
edge $319 -1 $-1 $266 0 $320 0.016000000000000014 $206 $321 forward @7 unknown #
coedge $-1 -1 $-1 $207 $322 $316 $323 forward $184 $-1 #
truecolor-adesk-attrib $-1 -1 $324 $-1 $208 -1029333354 #
vertex $-1 -1 $-1 $208 $325 #
ellipse-curve $-1 -1 $-1 6300.7987167586134 592.72108259896856 71 0 0 0.99999999999999978 -28.88843514930894 33.188225541962495 0 1 F 1.2246467991473532e-16 F 1.5707963267948966 #
coedge $-1 -1 $-1 $209 $326 $327 $328 reversed $139 $-1 #
edge $329 -1 $-1 $330 -1.5707963267948966 $211 1.2246467991473532e-16 $209 $331 forward @7 unknown #
DXID-attrib $-1 -1 $-1 $210 $147 @18 ASM_EDGE_FROM_STEP @5 25920 #
point $-1 -1 $-1 6271.9102816093045 625.9093081409311 71 #
coedge $-1 -1 $-1 $213 $332 $247 $296 reversed $28 $-1 #
edge $333 -1 $-1 $303 0.26300000000000007 $258 0.38400000000000006 $213 $334 forward @7 unknown #
truecolor-adesk-attrib $-1 -1 $335 $-1 $214 -1029333354 #
ellipse-curve $-1 -1 $-1 6300.7987167586134 592.72108259896856 -191.99999999999997 0 0 0.99999999999999978 -28.88843514930894 33.188225541962495 0 1 F 1.2246467991473532e-16 F 3.1415926535897931 #
DXID-attrib $-1 -1 $-1 $215 $150 @18 ASM_EDGE_FROM_STEP @5 31892 #
point $-1 -1 $-1 6329.6871519079223 559.53285705700603 -191.99999999999997 #
DXID-attrib $-1 -1 $-1 $222 $156 @18 ASM_EDGE_FROM_STEP @5 18495 #
truecolor-adesk-attrib $-1 -1 $336 $-1 $224 -1029333354 #
ellipse-curve $-1 -1 $-1 6300.7987167586134 592.72108259896856 -191.99999999999997 0 0 0.99999999999999978 -23.635992394889136 27.154002716151137 0 1 F 1.224646799147353e-16 F 3.1415926535897931 #
DXID-attrib $-1 -1 $-1 $229 $166 @18 ASM_EDGE_FROM_STEP @5 26625 #
DXID-attrib $-1 -1 $-1 $232 $174 @18 ASM_EDGE_FROM_STEP @5 29382 #
DXID-attrib $-1 -1 $-1 $234 $175 @18 ASM_FACE_FROM_STEP @17 step-3M-249-34432 #
DXID-attrib $-1 -1 $-1 $238 $183 @18 ASM_FACE_FROM_STEP @17 step-3M-249-32113 #
truecolor-adesk-attrib $-1 -1 $337 $-1 $239 -1029333354 #
face $338 -1 $-1 $339 $340 $3 $-1 $341 reversed single #
loop $-1 -1 $-1 $-1 $342 $239 #
plane-surface $-1 -1 $-1 6300.7987167586134 592.72108259896856 -71 -0.65655534430247586 0.75427785322642027 0 -0.75427785322642027 -0.65655534430247586 0 forward_v I I I I #
coedge $-1 -1 $-1 $314 $343 $326 $344 forward $240 $-1 #
coedge $-1 -1 $-1 $345 $242 $346 $347 forward $184 $-1 #
coedge $-1 -1 $-1 $348 $246 $342 $349 forward $194 $-1 #
coedge $-1 -1 $-1 $246 $350 $351 $352 reversed $194 $-1 #
coedge $-1 -1 $-1 $353 $300 $246 $294 forward $139 $-1 #
edge $354 -1 $-1 $355 -1.5707963267948966 $356 1.2246467991473532e-16 $293 $357 forward @7 unknown #
coedge $-1 -1 $-1 $358 $247 $359 $360 reversed $134 $-1 #
edge $361 -1 $-1 $303 1.2246467991473532e-16 $362 1.5707963267948966 $272 $363 forward @7 unknown #
coedge $-1 -1 $-1 $248 $364 $365 $366 reversed $134 $-1 #
coedge $-1 -1 $-1 $367 $368 $248 $299 forward $287 $-1 #
edge $369 -1 $-1 $302 0.044000000000000004 $370 0.059000000000000004 $298 $371 forward @7 unknown #
coedge $-1 -1 $-1 $293 $249 $368 $372 forward $139 $-1 #
truecolor-adesk-attrib $-1 -1 $373 $-1 $250 -1029333354 #
vertex $-1 -1 $-1 $250 $374 #
vertex $-1 -1 $-1 $296 $375 #
ellipse-curve $-1 -1 $-1 6300.7987167586134 592.72108259896856 -71 0 0 0.99999999999999978 -28.88843514930894 33.188225541962495 0 1 F -1.5707963267948966 F 1.2246467991473532e-16 #
DXID-attrib $-1 -1 $-1 $252 $199 @18 ASM_FACE_FROM_STEP @17 step-3M-249-35390 #
truecolor-adesk-attrib $-1 -1 $376 $-1 $253 -1029333354 #
face $377 -1 $-1 $378 $379 $3 $-1 $380 forward single #
loop $-1 -1 $-1 $-1 $381 $253 #
plane-surface $-1 -1 $-1 6336.0320863207626 638.57933477242568 71 -0.60925211305161375 -0.79297658398097948 0 0.79297658398097959 -0.60925211305161386 0 forward_v I I I I #
coedge $-1 -1 $-1 $382 $327 $343 $383 forward $254 $-1 #
DXID-attrib $-1 -1 $-1 $257 $203 @18 ASM_EDGE_FROM_STEP @5 17815 #
point $-1 -1 $-1 6271.9102816093045 625.9093081409311 -191.99999999999997 #
coedge $-1 -1 $-1 $351 $261 $353 $384 forward $28 $-1 #
coedge $-1 -1 $-1 $385 $289 $261 $315 forward $240 $-1 #
edge $386 -1 $-1 $387 1.2246467991473532e-16 $320 1.5707963267948966 $261 $388 forward @7 unknown #
coedge $-1 -1 $-1 $389 $262 $264 $323 reversed $318 $-1 #
coedge $-1 -1 $-1 $262 $389 $385 $390 forward $318 $-1 #
loop $-1 -1 $-1 $-1 $317 $391 #
truecolor-adesk-attrib $-1 -1 $392 $-1 $263 -1029333354 #
vertex $-1 -1 $-1 $263 $393 #
straight-curve $-1 -1 $-1 6267.6104912166511 563.83264744965959 71 -0 0 -999.99999999999977 F 0 F 0.016000000000000014 #
coedge $-1 -1 $-1 $264 $394 $395 $396 reversed $184 $-1 #
edge $397 -1 $-1 $398 -0.059000000000000004 $266 -0.044000000000000004 $316 $399 forward @7 unknown #
DXID-attrib $-1 -1 $-1 $265 $208 @18 ASM_EDGE_FROM_STEP @5 16102 #
point $-1 -1 $-1 6267.6104912166511 563.83264744965959 71 #
coedge $-1 -1 $-1 $268 $353 $289 $344 reversed $139 $-1 #
coedge $-1 -1 $-1 $310 $346 $268 $328 forward $254 $-1 #
edge $400 -1 $-1 $330 0 $401 0.016000000000000014 $268 $402 forward @7 unknown #
truecolor-adesk-attrib $-1 -1 $403 $-1 $269 -1029333354 #
vertex $-1 -1 $-1 $328 $404 #
ellipse-curve $-1 -1 $-1 6300.7987167586134 592.72108259896856 71 0 0 0.99999999999999978 -28.88843514930894 33.188225541962495 0 1 F -1.5707963267948966 F 1.2246467991473532e-16 #
coedge $-1 -1 $-1 $272 $351 $405 $406 reversed $28 $-1 #
truecolor-adesk-attrib $-1 -1 $407 $-1 $273 -1029333354 #
straight-curve $-1 -1 $-1 6271.9102816093045 625.9093081409311 191.99999999999997 -0 0 -999.99999999999977 F 0.26300000000000007 F 0.38400000000000006 #
DXID-attrib $-1 -1 $-1 $274 $214 @18 ASM_EDGE_FROM_STEP @5 10287 #
DXID-attrib $-1 -1 $-1 $279 $224 @18 ASM_EDGE_FROM_STEP @5 37508 #
DXID-attrib $-1 -1 $-1 $285 $239 @18 ASM_FACE_FROM_STEP @17 step-3M-249-25041 #
truecolor-adesk-attrib $-1 -1 $408 $-1 $286 -1029333354 #
face $409 -1 $-1 $410 $411 $3 $-1 $412 forward single #
loop $-1 -1 $-1 $-1 $413 $286 #
plane-surface $-1 -1 $-1 6336.0320863207626 638.57933477242568 -71 -0.60925211305161375 -0.79297658398097948 0 0.79297658398097959 -0.60925211305161386 0 forward_v I I I I #
coedge $-1 -1 $-1 $368 $367 $291 $349 reversed $287 $-1 #
coedge $-1 -1 $-1 $289 $414 $310 $383 reversed $240 $-1 #
edge $415 -1 $-1 $401 -1.5707963267948966 $387 1.2246467991473532e-16 $326 $416 forward @7 unknown #
coedge $-1 -1 $-1 $394 $290 $417 $418 forward $184 $-1 #
coedge $-1 -1 $-1 $327 $382 $290 $347 reversed $254 $-1 #
edge $419 -1 $-1 $330 0.044000000000000004 $420 0.059000000000000004 $346 $421 forward @7 unknown #
coedge $-1 -1 $-1 $422 $291 $413 $423 forward $194 $-1 #
edge $424 -1 $-1 $355 0.044000000000000004 $425 0.059000000000000004 $342 $426 forward @7 unknown #
coedge $-1 -1 $-1 $292 $427 $428 $429 forward $194 $-1 #
coedge $-1 -1 $-1 $332 $313 $292 $352 forward $28 $-1 #
edge $430 -1 $-1 $356 1.2246467991473532e-16 $431 1.5707963267948966 $351 $432 forward @7 unknown #
coedge $-1 -1 $-1 $326 $293 $313 $384 reversed $139 $-1 #
truecolor-adesk-attrib $-1 -1 $433 $-1 $294 -1029333354 #
vertex $-1 -1 $-1 $372 $434 #
vertex $-1 -1 $-1 $384 $435 #
ellipse-curve $-1 -1 $-1 6300.7987167586134 592.72108259896856 -54.999999999999986 0 0 0.99999999999999978 -28.88843514930894 33.188225541962495 0 1 F -1.5707963267948966 F 1.2246467991473532e-16 #
coedge $-1 -1 $-1 $364 $295 $436 $437 forward $134 $-1 #
coedge $-1 -1 $-1 $405 $438 $295 $360 forward $439 $-1 #
edge $440 -1 $-1 $441 -0.059000000000000004 $362 -0.044000000000000004 $359 $442 forward @7 unknown #
truecolor-adesk-attrib $-1 -1 $443 $-1 $296 -1029333354 #
vertex $-1 -1 $-1 $406 $444 #
ellipse-curve $-1 -1 $-1 6300.7987167586134 592.72108259896856 -71 0 0 0.99999999999999978 -28.88843514930894 33.188225541962495 0 1 F 1.2246467991473532e-16 F 1.5707963267948966 #
coedge $-1 -1 $-1 $297 $358 $445 $446 reversed $134 $-1 #
coedge $-1 -1 $-1 $447 $448 $297 $366 forward $340 $-1 #
edge $449 -1 $-1 $370 -0.011688899729770432 $450 0.088216055102309829 $365 $451 forward @7 unknown #
coedge $-1 -1 $-1 $342 $298 $448 $452 forward $287 $-1 #
coedge $-1 -1 $-1 $298 $342 $300 $372 reversed $287 $-1 #
truecolor-adesk-attrib $-1 -1 $453 $-1 $299 -1029333354 #
vertex $-1 -1 $-1 $299 $454 #
straight-curve $-1 -1 $-1 6300.7987167586134 592.72108259896856 -71 754.27785322642023 656.55534430247587 0 F 0.044000000000000004 F 0.059000000000000004 #
edge $455 -1 $-1 $302 -4.4408920985006264e-17 $355 0.016000000000000014 $300 $456 forward @7 unknown #
DXID-attrib $-1 -1 $-1 $301 $250 @18 ASM_EDGE_FROM_STEP @5 13854 #
point $-1 -1 $-1 6333.9869423005757 621.60951774827754 -71.000000000000043 #
point $-1 -1 $-1 6271.9102816093045 625.9093081409311 -71 #
DXID-attrib $-1 -1 $-1 $306 $253 @18 ASM_FACE_FROM_STEP @17 step-3M-249-14715 #
truecolor-adesk-attrib $-1 -1 $457 $-1 $307 -1029333354 #
face $458 -1 $-1 $391 $459 $3 $-1 $460 forward single #
loop $-1 -1 $-1 $-1 $461 $307 #
cone-surface $-1 -1 $-1 6241.7087357713908 660.60608938934638 71 -0 0 -0.99999999999999978 26.262213772099035 -30.171114129056811 0 1 I I 0 1 40 forward I I I I #
coedge $-1 -1 $-1 $462 $463 $414 $464 forward $308 $-1 #
coedge $-1 -1 $-1 $346 $310 $463 $465 reversed $254 $-1 #
edge $466 -1 $-1 $401 0.044000000000000004 $467 0.059000000000000004 $310 $468 forward @7 unknown #
edge $469 -1 $-1 $387 0.13700000000000004 $356 0.24700000000000003 $313 $470 forward @7 unknown #
coedge $-1 -1 $-1 $471 $314 $317 $390 reversed $240 $-1 #
truecolor-adesk-attrib $-1 -1 $472 $-1 $315 -1029333354 #
vertex $-1 -1 $-1 $315 $473 #
ellipse-curve $-1 -1 $-1 6300.7987167586134 592.72108259896856 54.999999999999986 0 0 0.99999999999999978 -28.88843514930894 33.188225541962495 0 1 F 1.2246467991473532e-16 F 1.5707963267948966 #
coedge $-1 -1 $-1 $317 $316 $474 $475 forward $318 $-1 #
edge $476 -1 $-1 $477 -0.059000000000000004 $320 -0.044000000000000004 $317 $478 forward @7 unknown #
face $479 -1 $-1 $175 $318 $3 $-1 $480 reversed single #
DXID-attrib $-1 -1 $-1 $319 $263 @18 ASM_EDGE_FROM_STEP @5 18390 #
point $-1 -1 $-1 6267.6104912166511 563.83264744965959 54.999999999999986 #
coedge $-1 -1 $-1 $322 $345 $481 $482 forward $184 $-1 #
coedge $-1 -1 $-1 $483 $474 $322 $396 forward $459 $-1 #
edge $484 -1 $-1 $398 -0.011688899729770431 $485 0.088216055102309829 $395 $486 forward @7 unknown #
truecolor-adesk-attrib $-1 -1 $487 $-1 $323 -1029333354 #
vertex $-1 -1 $-1 $475 $488 #
straight-curve $-1 -1 $-1 6300.7987167586134 592.72108259896856 71 754.27785322642023 656.55534430247587 0 F -0.059000000000000004 F -0.044000000000000004 #
truecolor-adesk-attrib $-1 -1 $489 $-1 $328 -1029333354 #
vertex $-1 -1 $-1 $344 $490 #
straight-curve $-1 -1 $-1 6333.9869423005757 621.60951774827754 71 -0 0 -999.99999999999977 F 0 F 0.016000000000000014 #
DXID-attrib $-1 -1 $-1 $329 $269 @18 ASM_EDGE_FROM_STEP @5 41526 #
point $-1 -1 $-1 6333.9869423005757 621.60951774827754 71 #
coedge $-1 -1 $-1 $428 $359 $332 $406 forward $439 $-1 #
edge $491 -1 $-1 $362 -4.4408920985006264e-17 $431 0.016000000000000014 $332 $492 forward @7 unknown #
DXID-attrib $-1 -1 $-1 $333 $273 @18 ASM_EDGE_FROM_STEP @5 27689 #
DXID-attrib $-1 -1 $-1 $338 $286 @18 ASM_FACE_FROM_STEP @17 step-3M-249-31451 #
truecolor-adesk-attrib $-1 -1 $493 $-1 $339 -1029333354 #
face $494 -1 $-1 $495 $496 $3 $-1 $497 forward single #
loop $-1 -1 $-1 $-1 $498 $339 #
cone-surface $-1 -1 $-1 6241.7087357713908 660.60608938934638 -71 0 0 0.99999999999999978 26.262213772099035 -30.171114129056811 0 1 I I 0 1 40 forward I I I I #
coedge $-1 -1 $-1 $448 $447 $348 $423 reversed $340 $-1 #
coedge $-1 -1 $-1 $343 $499 $381 $464 reversed $240 $-1 #
truecolor-adesk-attrib $-1 -1 $500 $-1 $344 -1029333354 #
ellipse-curve $-1 -1 $-1 6300.7987167586134 592.72108259896856 54.999999999999986 0 0 0.99999999999999978 -28.88843514930894 33.188225541962495 0 1 F -1.5707963267948966 F 1.2246467991473532e-16 #
coedge $-1 -1 $-1 $463 $462 $345 $418 reversed $308 $-1 #
edge $501 -1 $-1 $420 -0.011688899729770432 $502 0.088216055102309829 $417 $503 forward @7 unknown #
truecolor-adesk-attrib $-1 -1 $504 $-1 $347 -1029333354 #
vertex $-1 -1 $-1 $465 $505 #
straight-curve $-1 -1 $-1 6300.7987167586134 592.72108259896856 71 754.27785322642023 656.55534430247587 0 F 0.044000000000000004 F 0.059000000000000004 #
coedge $-1 -1 $-1 $427 $348 $498 $506 forward $194 $-1 #
edge $507 -1 $-1 $425 -0.011688899729770432 $508 0.088216055102309829 $413 $509 forward @7 unknown #
truecolor-adesk-attrib $-1 -1 $510 $-1 $349 -1029333354 #
vertex $-1 -1 $-1 $349 $511 #
straight-curve $-1 -1 $-1 6300.7987167586134 592.72108259896856 -54.999999999999986 754.27785322642023 656.55534430247587 0 F 0.044000000000000004 F 0.059000000000000004 #
coedge $-1 -1 $-1 $350 $422 $512 $513 reversed $194 $-1 #
coedge $-1 -1 $-1 $438 $405 $350 $429 reversed $439 $-1 #
edge $514 -1 $-1 $515 -0.059000000000000004 $431 -0.044000000000000004 $428 $516 forward @7 unknown #
truecolor-adesk-attrib $-1 -1 $517 $-1 $352 -1029333354 #
vertex $-1 -1 $-1 $352 $518 #
ellipse-curve $-1 -1 $-1 6300.7987167586134 592.72108259896856 -54.999999999999986 0 0 0.99999999999999978 -28.88843514930894 33.188225541962495 0 1 F 1.2246467991473532e-16 F 1.5707963267948966 #
DXID-attrib $-1 -1 $-1 $354 $294 @18 ASM_EDGE_FROM_STEP @5 30270 #
point $-1 -1 $-1 6333.9869423005757 621.60951774827754 -54.999999999999986 #
point $-1 -1 $-1 6271.9102816093045 625.9093081409311 -54.999999999999986 #
coedge $-1 -1 $-1 $519 $520 $358 $437 reversed $496 $-1 #
edge $521 -1 $-1 $441 -0.011688899729770431 $522 0.088216055102309829 $436 $523 forward @7 unknown #
coedge $-1 -1 $-1 $359 $428 $519 $524 reversed $439 $-1 #
loop $-1 -1 $-1 $-1 $428 $495 #
truecolor-adesk-attrib $-1 -1 $525 $-1 $360 -1029333354 #
vertex $-1 -1 $-1 $437 $526 #
straight-curve $-1 -1 $-1 6300.7987167586134 592.72108259896856 -71 754.27785322642023 656.55534430247587 0 F -0.059000000000000004 F -0.044000000000000004 #
DXID-attrib $-1 -1 $-1 $361 $296 @18 ASM_EDGE_FROM_STEP @5 21695 #
point $-1 -1 $-1 6267.6104912166511 563.83264744965959 -71.000000000000043 #
coedge $-1 -1 $-1 $527 $528 $364 $446 forward $411 $-1 #
edge $529 -1 $-1 $450 -1.3713599157514962 $522 1.3713599157514962 $445 $530 forward @7 unknown #
coedge $-1 -1 $-1 $413 $365 $528 $531 forward $340 $-1 #
coedge $-1 -1 $-1 $365 $413 $367 $452 reversed $340 $-1 #
truecolor-adesk-attrib $-1 -1 $532 $-1 $366 -1029333354 #
vertex $-1 -1 $-1 $366 $533 #
straight-curve $-1 -1 $-1 6336.0320863207626 638.57933477242568 -71 -792.97658398097951 609.25211305161383 0 F -0.011688899729770432 F 0.088216055102309829 #
edge $534 -1 $-1 $370 0 $425 0.016000000000000014 $367 $535 forward @7 unknown #
DXID-attrib $-1 -1 $-1 $369 $299 @18 ASM_EDGE_FROM_STEP @5 31756 #
point $-1 -1 $-1 6345.3011100989725 631.4578479128146 -71 #
truecolor-adesk-attrib $-1 -1 $536 $-1 $372 -1029333354 #
straight-curve $-1 -1 $-1 6333.9869423005757 621.60951774827754 -71 0 0 999.99999999999977 F -4.4408920985006264e-17 F 0.016000000000000014 #
DXID-attrib $-1 -1 $-1 $377 $307 @18 ASM_FACE_FROM_STEP @17 step-3M-249-41528 #
truecolor-adesk-attrib $-1 -1 $537 $-1 $378 -1029333354 #
loop $-1 -1 $-1 $-1 $538 $378 #
plane-surface $-1 -1 $-1 6250.5207663304891 564.1466653021206 71 -0.86940159056336097 -0.4941061367013142 0 0.49410613670131431 -0.86940159056336108 0 forward_v I I I I #
coedge $-1 -1 $-1 $539 $540 $499 $541 forward $379 $-1 #
coedge $-1 -1 $-1 $417 $381 $540 $542 reversed $308 $-1 #
coedge $-1 -1 $-1 $381 $417 $382 $465 forward $308 $-1 #
edge $543 -1 $-1 $467 -0.011688899729770432 $544 0.088216055102309829 $381 $545 forward @7 unknown #
edge $546 -1 $-1 $420 0 $467 0.016000000000000014 $382 $547 forward @7 unknown #
truecolor-adesk-attrib $-1 -1 $548 $-1 $383 -1029333354 #
vertex $-1 -1 $-1 $383 $549 #
straight-curve $-1 -1 $-1 6300.7987167586134 592.72108259896856 54.999999999999986 754.27785322642023 656.55534430247587 0 F 0.044000000000000004 F 0.059000000000000004 #
truecolor-adesk-attrib $-1 -1 $550 $-1 $384 -1029333354 #
straight-curve $-1 -1 $-1 6271.9102816093045 625.9093081409311 191.99999999999997 -0 0 -999.99999999999977 F 0.13700000000000004 F 0.24700000000000003 #
coedge $-1 -1 $-1 $499 $385 $538 $551 forward $240 $-1 #
DXID-attrib $-1 -1 $-1 $386 $315 @18 ASM_EDGE_FROM_STEP @5 10758 #
point $-1 -1 $-1 6271.9102816093045 625.9093081409311 54.999999999999986 #
coedge $-1 -1 $-1 $395 $538 $389 $475 reversed $459 $-1 #
edge $552 -1 $-1 $398 0 $477 0.016000000000000014 $474 $553 forward @7 unknown #
truecolor-adesk-attrib $-1 -1 $554 $-1 $390 -1029333354 #
vertex $-1 -1 $-1 $551 $555 #
straight-curve $-1 -1 $-1 6300.7987167586134 592.72108259896856 54.999999999999986 754.27785322642023 656.55534430247587 0 F -0.059000000000000004 F -0.044000000000000004 #
truecolor-adesk-attrib $-1 -1 $556 $-1 $391 -1029333354 #
plane-surface $-1 -1 $-1 6300.7987167586134 592.72108259896856 71 -0.65655534430247586 0.75427785322642027 0 -0.75427785322642027 -0.65655534430247586 0 forward_v I I I I #
coedge $-1 -1 $-1 $540 $539 $394 $482 reversed $379 $-1 #
edge $557 -1 $-1 $502 -1.3713599157514962 $485 1.3713599157514962 $481 $558 forward @7 unknown #
coedge $-1 -1 $-1 $538 $395 $539 $559 forward $459 $-1 #
truecolor-adesk-attrib $-1 -1 $560 $-1 $396 -1029333354 #
vertex $-1 -1 $-1 $559 $561 #
straight-curve $-1 -1 $-1 6250.5207663304891 564.1466653021206 71 -494.1061367013142 869.40159056336097 0 F -0.011688899729770431 F 0.088216055102309829 #
DXID-attrib $-1 -1 $-1 $397 $323 @18 ASM_EDGE_FROM_STEP @2 46 #
point $-1 -1 $-1 6256.2963234182544 553.98431728512253 71 #
DXID-attrib $-1 -1 $-1 $400 $328 @18 ASM_EDGE_FROM_STEP @5 12279 #
point $-1 -1 $-1 6333.9869423005757 621.60951774827754 54.999999999999986 #
truecolor-adesk-attrib $-1 -1 $562 $-1 $406 -1029333354 #
straight-curve $-1 -1 $-1 6267.6104912166511 563.83264744965959 -71 0 0 999.99999999999977 F -4.4408920985006264e-17 F 0.016000000000000014 #
DXID-attrib $-1 -1 $-1 $409 $339 @18 ASM_FACE_FROM_STEP @17 step-3M-249-19950 #
truecolor-adesk-attrib $-1 -1 $563 $-1 $410 -1029333354 #
face $564 -1 $-1 $125 $439 $3 $-1 $565 reversed single #
loop $-1 -1 $-1 $-1 $512 $410 #
plane-surface $-1 -1 $-1 6250.5207663304891 564.1466653021206 -71 -0.86940159056336097 -0.4941061367013142 0 0.49410613670131431 -0.86940159056336108 0 forward_v I I I I #
coedge $-1 -1 $-1 $528 $527 $422 $506 reversed $411 $-1 #
coedge $-1 -1 $-1 $414 $471 $461 $541 reversed $240 $-1 #
DXID-attrib $-1 -1 $-1 $415 $344 @18 ASM_EDGE_FROM_STEP @5 28186 #
truecolor-adesk-attrib $-1 -1 $566 $-1 $418 -1029333354 #
vertex $-1 -1 $-1 $542 $567 #
straight-curve $-1 -1 $-1 6336.0320863207626 638.57933477242568 71 -792.97658398097951 609.25211305161383 0 F -0.011688899729770432 F 0.088216055102309829 #
DXID-attrib $-1 -1 $-1 $419 $347 @18 ASM_EDGE_FROM_STEP @5 14766 #
point $-1 -1 $-1 6345.3011100989725 631.4578479128146 71 #
edge $568 -1 $-1 $508 -1.3713599157514962 $569 1.3713599157514962 $498 $570 forward @7 unknown #
truecolor-adesk-attrib $-1 -1 $571 $-1 $423 -1029333354 #
vertex $-1 -1 $-1 $423 $572 #
straight-curve $-1 -1 $-1 6336.0320863207626 638.57933477242568 -54.999999999999986 -792.97658398097951 609.25211305161383 0 F -0.011688899729770432 F 0.088216055102309829 #
DXID-attrib $-1 -1 $-1 $424 $349 @18 ASM_EDGE_FROM_STEP @5 26133 #
point $-1 -1 $-1 6345.3011100989725 631.4578479128146 -54.999999999999986 #
coedge $-1 -1 $-1 $520 $519 $427 $513 forward $496 $-1 #
edge $573 -1 $-1 $515 -0.011688899729770431 $569 0.088216055102309829 $512 $574 forward @7 unknown #
truecolor-adesk-attrib $-1 -1 $575 $-1 $429 -1029333354 #
vertex $-1 -1 $-1 $513 $576 #
straight-curve $-1 -1 $-1 6300.7987167586134 592.72108259896856 -54.999999999999986 754.27785322642023 656.55534430247587 0 F -0.059000000000000004 F -0.044000000000000004 #
DXID-attrib $-1 -1 $-1 $430 $352 @18 ASM_EDGE_FROM_STEP @5 20175 #
point $-1 -1 $-1 6267.6104912166511 563.83264744965959 -54.999999999999986 #
coedge $-1 -1 $-1 $512 $436 $438 $524 forward $496 $-1 #
coedge $-1 -1 $-1 $436 $512 $527 $577 reversed $496 $-1 #
truecolor-adesk-attrib $-1 -1 $578 $-1 $437 -1029333354 #
vertex $-1 -1 $-1 $446 $579 #
straight-curve $-1 -1 $-1 6250.5207663304891 564.1466653021206 -71 -494.1061367013142 869.40159056336097 0 F -0.011688899729770431 F 0.088216055102309829 #
edge $580 -1 $-1 $441 0 $515 0.016000000000000014 $519 $581 forward @7 unknown #
DXID-attrib $-1 -1 $-1 $440 $360 @18 ASM_EDGE_FROM_STEP @5 25748 #
point $-1 -1 $-1 6256.2963234182544 553.98431728512253 -71 #
coedge $-1 -1 $-1 $498 $445 $520 $577 forward $411 $-1 #
coedge $-1 -1 $-1 $445 $498 $447 $531 reversed $411 $-1 #
truecolor-adesk-attrib $-1 -1 $582 $-1 $446 -1029333354 #
ellipse-curve $-1 -1 $-1 6241.7087357713908 660.60608938934638 -71 0 0 0.99999999999999978 -26.262213772099038 30.171114129056818 0 1 F -1.3713599157514962 F 1.3713599157514962 #
edge $583 -1 $-1 $450 0 $508 0.016000000000000014 $447 $584 forward @7 unknown #
DXID-attrib $-1 -1 $-1 $449 $366 @18 ASM_EDGE_FROM_STEP @5 36734 #
point $-1 -1 $-1 6266.0788202934555 692.32515274858554 -71 #
truecolor-adesk-attrib $-1 -1 $585 $-1 $452 -1029333354 #
straight-curve $-1 -1 $-1 6345.3011100989725 631.4578479128146 -71 0 0 999.99999999999977 F 0 F 0.016000000000000014 #
DXID-attrib $-1 -1 $-1 $455 $372 @18 ASM_EDGE_FROM_STEP @4 8608 #
DXID-attrib $-1 -1 $-1 $458 $378 @18 ASM_FACE_FROM_STEP @17 step-3M-249-34190 #
coedge $-1 -1 $-1 $474 $483 $471 $551 reversed $459 $-1 #
coedge $-1 -1 $-1 $481 $461 $483 $559 reversed $379 $-1 #
coedge $-1 -1 $-1 $461 $481 $462 $542 forward $379 $-1 #
edge $586 -1 $-1 $544 -1.3713599157514962 $587 1.3713599157514962 $461 $588 forward @7 unknown #
edge $589 -1 $-1 $502 0 $544 0.016000000000000014 $462 $590 forward @7 unknown #
truecolor-adesk-attrib $-1 -1 $591 $-1 $464 -1029333354 #
vertex $-1 -1 $-1 $464 $592 #
straight-curve $-1 -1 $-1 6336.0320863207626 638.57933477242568 54.999999999999986 -792.97658398097951 609.25211305161383 0 F -0.011688899729770432 F 0.088216055102309829 #
truecolor-adesk-attrib $-1 -1 $593 $-1 $465 -1029333354 #
straight-curve $-1 -1 $-1 6345.3011100989725 631.4578479128146 71 -0 0 -999.99999999999977 F 0 F 0.016000000000000014 #
DXID-attrib $-1 -1 $-1 $466 $383 @18 ASM_EDGE_FROM_STEP @4 4564 #
point $-1 -1 $-1 6345.3011100989725 631.4578479128146 54.999999999999986 #
DXID-attrib $-1 -1 $-1 $469 $384 @18 ASM_EDGE_FROM_STEP @5 18386 #
edge $594 -1 $-1 $477 -0.011688899729770431 $587 0.088216055102309829 $538 $595 forward @7 unknown #
truecolor-adesk-attrib $-1 -1 $596 $-1 $475 -1029333354 #
straight-curve $-1 -1 $-1 6256.2963234182544 553.98431728512253 71 -0 0 -999.99999999999977 F 0 F 0.016000000000000014 #
DXID-attrib $-1 -1 $-1 $476 $390 @18 ASM_EDGE_FROM_STEP @5 42819 #
point $-1 -1 $-1 6256.2963234182544 553.98431728512253 54.999999999999986 #
DXID-attrib $-1 -1 $-1 $479 $391 @18 ASM_FACE_FROM_STEP @16 step-3M-249-8151 #
truecolor-adesk-attrib $-1 -1 $597 $-1 $482 -1029333354 #
ellipse-curve $-1 -1 $-1 6241.7087357713908 660.60608938934638 71 0 0 0.99999999999999978 -26.262213772099038 30.171114129056818 0 1 F -1.3713599157514962 F 1.3713599157514962 #
edge $598 -1 $-1 $485 0 $587 0.016000000000000014 $539 $599 forward @7 unknown #
DXID-attrib $-1 -1 $-1 $484 $396 @18 ASM_EDGE_FROM_STEP @4 6315 #
point $-1 -1 $-1 6206.932672148856 640.84184392129384 71 #
DXID-attrib $-1 -1 $-1 $491 $406 @18 ASM_EDGE_FROM_STEP @5 20268 #
DXID-attrib $-1 -1 $-1 $494 $410 @18 ASM_FACE_FROM_STEP @17 step-3M-249-25563 #
truecolor-adesk-attrib $-1 -1 $600 $-1 $495 -1029333354 #
plane-surface $-1 -1 $-1 6300.7987167586134 592.72108259896856 -71 -0.65655534430247586 0.75427785322642027 0 -0.75427785322642027 -0.65655534430247586 0 forward_v I I I I #
DXID-attrib $-1 -1 $-1 $501 $418 @18 ASM_EDGE_FROM_STEP @5 28826 #
point $-1 -1 $-1 6266.0788202934555 692.32515274858554 71 #
truecolor-adesk-attrib $-1 -1 $601 $-1 $506 -1029333354 #
vertex $-1 -1 $-1 $506 $602 #
ellipse-curve $-1 -1 $-1 6241.7087357713908 660.60608938934638 -54.999999999999986 0 0 0.99999999999999978 -26.262213772099038 30.171114129056818 0 1 F -1.3713599157514962 F 1.3713599157514962 #
DXID-attrib $-1 -1 $-1 $507 $423 @18 ASM_EDGE_FROM_STEP @5 41993 #
point $-1 -1 $-1 6266.0788202934555 692.32515274858554 -54.999999999999986 #
truecolor-adesk-attrib $-1 -1 $603 $-1 $513 -1029333354 #
straight-curve $-1 -1 $-1 6250.5207663304891 564.1466653021206 -54.999999999999986 -494.1061367013142 869.40159056336097 0 F -0.011688899729770431 F 0.088216055102309829 #
DXID-attrib $-1 -1 $-1 $514 $429 @18 ASM_EDGE_FROM_STEP @5 22416 #
point $-1 -1 $-1 6256.2963234182544 553.98431728512253 -54.999999999999986 #
edge $604 -1 $-1 $522 0 $569 0.016000000000000014 $527 $605 forward @7 unknown #
DXID-attrib $-1 -1 $-1 $521 $437 @18 ASM_EDGE_FROM_STEP @5 27739 #
point $-1 -1 $-1 6206.932672148856 640.84184392129384 -71 #
truecolor-adesk-attrib $-1 -1 $606 $-1 $524 -1029333354 #
straight-curve $-1 -1 $-1 6256.2963234182544 553.98431728512253 -71 0 0 999.99999999999977 F 0 F 0.016000000000000014 #
DXID-attrib $-1 -1 $-1 $529 $446 @18 ASM_EDGE_FROM_STEP @5 31931 #
truecolor-adesk-attrib $-1 -1 $607 $-1 $531 -1029333354 #
straight-curve $-1 -1 $-1 6266.0788202934555 692.32515274858554 -71 0 0 999.99999999999977 F 0 F 0.016000000000000014 #
DXID-attrib $-1 -1 $-1 $534 $452 @18 ASM_EDGE_FROM_STEP @5 14571 #
truecolor-adesk-attrib $-1 -1 $608 $-1 $541 -1029333354 #
vertex $-1 -1 $-1 $541 $609 #
ellipse-curve $-1 -1 $-1 6241.7087357713908 660.60608938934638 54.999999999999986 0 0 0.99999999999999978 -26.262213772099038 30.171114129056818 0 1 F -1.3713599157514962 F 1.3713599157514962 #
truecolor-adesk-attrib $-1 -1 $610 $-1 $542 -1029333354 #
straight-curve $-1 -1 $-1 6266.0788202934555 692.32515274858554 71 -0 0 -999.99999999999977 F 0 F 0.016000000000000014 #
DXID-attrib $-1 -1 $-1 $543 $464 @18 ASM_EDGE_FROM_STEP @5 12224 #
point $-1 -1 $-1 6266.0788202934555 692.32515274858554 54.999999999999986 #
DXID-attrib $-1 -1 $-1 $546 $465 @18 ASM_EDGE_FROM_STEP @5 12265 #
truecolor-adesk-attrib $-1 -1 $611 $-1 $551 -1029333354 #
straight-curve $-1 -1 $-1 6250.5207663304891 564.1466653021206 54.999999999999986 -494.1061367013142 869.40159056336097 0 F -0.011688899729770431 F 0.088216055102309829 #
DXID-attrib $-1 -1 $-1 $552 $475 @18 ASM_EDGE_FROM_STEP @4 1064 #
DXID-attrib $-1 -1 $-1 $557 $482 @18 ASM_EDGE_FROM_STEP @4 7720 #
truecolor-adesk-attrib $-1 -1 $612 $-1 $559 -1029333354 #
straight-curve $-1 -1 $-1 6206.932672148856 640.84184392129384 71 -0 0 -999.99999999999977 F 0 F 0.016000000000000014 #
DXID-attrib $-1 -1 $-1 $564 $495 @18 ASM_FACE_FROM_STEP @17 step-3M-249-43489 #
DXID-attrib $-1 -1 $-1 $568 $506 @18 ASM_EDGE_FROM_STEP @5 25638 #
point $-1 -1 $-1 6206.932672148856 640.84184392129384 -54.999999999999986 #
DXID-attrib $-1 -1 $-1 $573 $513 @18 ASM_EDGE_FROM_STEP @5 36515 #
truecolor-adesk-attrib $-1 -1 $613 $-1 $577 -1029333354 #
straight-curve $-1 -1 $-1 6206.932672148856 640.84184392129384 -71 0 0 999.99999999999977 F 0 F 0.016000000000000014 #
DXID-attrib $-1 -1 $-1 $580 $524 @18 ASM_EDGE_FROM_STEP @5 43392 #
DXID-attrib $-1 -1 $-1 $583 $531 @18 ASM_EDGE_FROM_STEP @4 4813 #
DXID-attrib $-1 -1 $-1 $586 $541 @18 ASM_EDGE_FROM_STEP @5 34614 #
point $-1 -1 $-1 6206.932672148856 640.84184392129384 54.999999999999986 #
DXID-attrib $-1 -1 $-1 $589 $542 @18 ASM_EDGE_FROM_STEP @5 24967 #
DXID-attrib $-1 -1 $-1 $594 $551 @18 ASM_EDGE_FROM_STEP @5 14023 #
DXID-attrib $-1 -1 $-1 $598 $559 @18 ASM_EDGE_FROM_STEP @5 12807 #
DXID-attrib $-1 -1 $-1 $604 $577 @18 ASM_EDGE_FROM_STEP @5 36576 #
