700 481 1 0         
5 ZWCAD 12 ACIS 28.0 NT 24 Sat May 11 16:19:07 2024 
1 9.9999999999999995e-07 1e-10 
body $1 -1 $-1 $2 $-1 $3 #
DXID-attrib $-1 -1 $-1 $-1 $0 @18 ASM_BODY_FROM_STEP @83 0C739B0A136B4E62BEC8A0CA611B94280E31657C|:|A672822C3EDBA077218AE37043297185481572B2 #
lump $-1 -1 $-1 $-1 $4 $0 #
transform $-1 -1 1 0 0 0 1 0 0 0 1 0 0 0 1 no_rotate no_reflect no_shear #
shell $-1 -1 $-1 $-1 $-1 $5 $-1 $2 #
face $6 -1 $-1 $7 $8 $4 $-1 $9 forward single #
truecolor-adesk-attrib $-1 -1 $10 $-1 $5 -1029660512 #
face $11 -1 $-1 $12 $13 $4 $-1 $14 reversed single #
loop $-1 -1 $-1 $15 $16 $5 #
plane-surface $-1 -1 $-1 7.0483688860548899 88.89976544763482 20.804309476690399 1 1.50157666387707e-14 -8.3627161156107003e-16 -1.50157666387707e-14 1 4.8793219559472804e-29 forward_v I I I I #
DXID-attrib $-1 -1 $-1 $6 $5 @18 ASM_FACE_FROM_STEP @17 step-1M-559-13599 #
truecolor-adesk-attrib $-1 -1 $17 $-1 $7 -1029660512 #
face $18 -1 $-1 $19 $20 $4 $-1 $21 reversed single #
loop $-1 -1 $-1 $-1 $22 $7 #
cone-surface $-1 -1 $-1 7.0483688860548011 95.249765447634815 20.804309476690399 -1 -1.2688263369288701e-14 7.6616632465804808e-16 -2.8199665338244393e-14 2.2225000000000201 1.0447964706551416e-28 1 I I 0 1 2.2225000000000201 forward I I I I #
loop $-1 -1 $-1 $23 $24 $5 #
coedge $-1 -1 $-1 $25 $26 $27 $28 forward $8 $-1 #
DXID-attrib $-1 -1 $-1 $11 $7 @18 ASM_FACE_FROM_STEP @17 step-1M-559-13600 #
truecolor-adesk-attrib $-1 -1 $29 $-1 $12 -1029660512 #
face $30 -1 $-1 $31 $32 $4 $-1 $33 forward single #
loop $-1 -1 $-1 $-1 $34 $12 #
cone-surface $-1 -1 $-1 7.0483688860549112 88.89976544763482 42.073470390690098 -1 -1.2688263369288699e-14 7.6616632465804897e-16 4.9226415937225179e-14 -4.8633048668188739 -16.289513982080088 1 I I 0 1 17.000000000000199 forward I I I I #
coedge $-1 -1 $-1 $35 $36 $37 $38 reversed $13 $-1 #
loop $-1 -1 $-1 $-1 $39 $5 #
coedge $-1 -1 $-1 $24 $24 $40 $41 forward $15 $-1 #
coedge $-1 -1 $-1 $42 $16 $34 $43 reversed $8 $-1 #
coedge $-1 -1 $-1 $16 $42 $44 $45 reversed $8 $-1 #
coedge $-1 -1 $-1 $46 $47 $16 $28 reversed $48 $-1 #
edge $49 -1 $-1 $50 -1.8609262876381145 $51 1.8609262876380932 $16 $52 forward @7 unknown #
DXID-attrib $-1 -1 $-1 $18 $12 @18 ASM_FACE_FROM_STEP @17 step-1M-559-13601 #
truecolor-adesk-attrib $-1 -1 $53 $-1 $19 -1029660512 #
face $54 -1 $-1 $55 $56 $4 $-1 $57 reversed single #
loop $-1 -1 $-1 $-1 $58 $19 #
cone-surface $-1 -1 $-1 7.0483688860549911 82.549765447634798 20.804309476690399 -1 -1.2688263369288698e-14 7.6616632465804788e-16 6.5938874608054537e-14 -5.1968400000000203 -6.3642934716833821e-16 1 I I 0 1 5.1968400000000203 forward I I I I #
coedge $-1 -1 $-1 $59 $60 $25 $43 forward $20 $-1 #
coedge $-1 -1 $-1 $40 $22 $36 $61 forward $13 $-1 #
coedge $-1 -1 $-1 $22 $40 $35 $61 reversed $13 $-1 #
coedge $-1 -1 $-1 $37 $37 $22 $38 forward $62 $-1 #
edge $63 -1 $-1 $64 -3.1415926535897931 $64 3.1415926535897931 $22 $65 forward @7 unknown #
coedge $-1 -1 $-1 $39 $39 $66 $67 forward $23 $-1 #
coedge $-1 -1 $-1 $36 $35 $24 $41 reversed $13 $-1 #
edge $68 -1 $-1 $69 -3.1415926535897931 $69 3.1415926535897931 $24 $70 forward @7 unknown #
coedge $-1 -1 $-1 $26 $25 $58 $71 forward $8 $-1 #
edge $72 -1 $-1 $73 -2.6891215129328412e-15 $51 0.58025992168639662 $25 $74 forward @7 unknown #
coedge $-1 -1 $-1 $75 $76 $26 $45 forward $56 $-1 #
edge $77 -1 $-1 $50 2.6891215129328424e-15 $78 0.58025992168639673 $26 $79 forward @7 unknown #
coedge $-1 -1 $-1 $80 $27 $76 $81 forward $48 $-1 #
coedge $-1 -1 $-1 $27 $80 $59 $82 reversed $48 $-1 #
loop $-1 -1 $-1 $-1 $27 $55 #
truecolor-adesk-attrib $-1 -1 $83 $-1 $28 -1029660512 #
vertex $-1 -1 $-1 $28 $84 #
vertex $-1 -1 $-1 $28 $85 #
ellipse-curve $-1 -1 $-1 7.0483688860548011 95.249765447634815 20.804309476690399 1 1.5015766638770703e-14 -8.3627161156106993e-16 -7.8034536699029439e-14 5.1968400000000203 2.5357055513545165e-28 1 F -1.8609262876381145 F 1.8609262876380932 #
DXID-attrib $-1 -1 $-1 $30 $19 @18 ASM_FACE_FROM_STEP @17 step-1M-559-13602 #
truecolor-adesk-attrib $-1 -1 $86 $-1 $31 -1029660512 #
face $87 -1 $-1 $88 $48 $4 $-1 $89 forward single #
loop $-1 -1 $-1 $-1 $44 $31 #
cone-surface $-1 -1 $-1 7.0483688860548712 88.89976544763482 -0.46485143730924405 -1 -1.2688263369288699e-14 7.6616632465804798e-16 -4.9226415937224504e-14 4.8633048668188215 16.289513982080102 1 I I 0 1 17.000000000000203 forward I I I I #
coedge $-1 -1 $-1 $90 $91 $42 $71 reversed $32 $-1 #
coedge $-1 -1 $-1 $92 $34 $47 $82 forward $20 $-1 #
coedge $-1 -1 $-1 $34 $92 $90 $93 reversed $20 $-1 #
edge $94 -1 $-1 $64 -0.62992125984250502 $69 4.995379188414607e-15 $35 $95 forward @7 unknown #
loop $-1 -1 $-1 $-1 $37 $88 #
truecolor-adesk-attrib $-1 -1 $96 $-1 $38 -1029660512 #
vertex $-1 -1 $-1 $38 $97 #
ellipse-curve $-1 -1 $-1 5.6483688860547998 95.249765447634701 20.804309476690399 1 1.50157666387707e-14 -8.3627161156107013e-16 -3.3372541354668181e-14 2.2225000000000201 1.0844293047092929e-28 1 I I #
coedge $-1 -1 $-1 $98 $99 $39 $67 reversed $100 $-1 #
edge $101 -1 $-1 $102 -3.1415926535897931 $102 3.1415926535897931 $39 $103 forward @7 unknown #
truecolor-adesk-attrib $-1 -1 $104 $-1 $41 -1029660512 #
vertex $-1 -1 $-1 $41 $105 #
ellipse-curve $-1 -1 $-1 7.0483688860548011 95.249765447634815 20.804309476690399 -1 -1.50157666387707e-14 8.3627161156107013e-16 -3.3372541354668181e-14 2.2225000000000201 1.0844293047092929e-28 1 I I #
edge $106 -1 $-1 $73 1.2806663659517037 $78 5.0025189412278825 $42 $107 forward @7 unknown #
truecolor-adesk-attrib $-1 -1 $108 $-1 $43 -1029660512 #
vertex $-1 -1 $-1 $43 $109 #
ellipse-curve $-1 -1 $-1 7.0483688860549112 88.89976544763482 42.073470390690098 1 1.50468058078501e-14 -3.5887316178877087e-16 6.7331334528644421e-14 -4.8633048668188739 -16.289513982080088 1 F -2.6891215129328412e-15 F 0.58025992168639662 #
coedge $-1 -1 $-1 $110 $44 $91 $111 forward $56 $-1 #
coedge $-1 -1 $-1 $44 $110 $46 $81 reversed $56 $-1 #
truecolor-adesk-attrib $-1 -1 $112 $-1 $45 -1029660512 #
vertex $-1 -1 $-1 $71 $113 #
ellipse-curve $-1 -1 $-1 7.0483688860548712 88.89976544763482 -0.46485143730924405 1 1.4779995759687304e-14 -1.2525465236544802e-15 -5.1476251199373321e-14 4.8633048668188215 16.289513982080102 1 F 2.6891215129328424e-15 F 0.58025992168639673 #
coedge $-1 -1 $-1 $47 $46 $114 $115 reversed $48 $-1 #
edge $116 -1 $-1 $50 0 $117 0.1399999999999999 $76 $118 forward @7 unknown #
edge $119 -1 $-1 $51 0 $120 0.13999999999999913 $59 $121 forward @7 unknown #
DXID-attrib $-1 -1 $-1 $49 $28 @18 ASM_EDGE_FROM_STEP @4 7258 #
point $-1 -1 $-1 7.0483688860548197 93.763070314453614 15.824662544770902 #
point $-1 -1 $-1 7.0483688860548313 93.763070314453699 25.783956408610003 #
DXID-attrib $-1 -1 $-1 $54 $31 @18 ASM_FACE_FROM_STEP @17 step-1M-559-13603 #
truecolor-adesk-attrib $-1 -1 $122 $-1 $55 -1029660512 #
face $123 -1 $-1 $124 $125 $4 $-1 $126 reversed single #
cone-surface $-1 -1 $-1 7.0483688860548011 95.249765447634815 20.804309476690399 -1 -1.2688263369288698e-14 7.6616632465804788e-16 -6.5938874608054537e-14 5.1968400000000203 2.4430326616690377e-28 1 I I 0 1 5.1968400000000203 forward I I I I #
coedge $-1 -1 $-1 $127 $58 $60 $93 forward $32 $-1 #
coedge $-1 -1 $-1 $58 $127 $75 $111 reversed $32 $-1 #
coedge $-1 -1 $-1 $60 $59 $128 $129 reversed $20 $-1 #
edge $130 -1 $-1 $73 0 $131 0.1399999999999989 $60 $132 forward @7 unknown #
truecolor-adesk-attrib $-1 -1 $133 $-1 $61 -1029660512 #
straight-curve $-1 -1 $-1 7.0483688860548197 93.027265447634718 20.804309476690399 2.2225000000000201 2.8199665338244393e-14 -1.7028046565525271e-15 F -0.62992125984250502 F 4.995379188414607e-15 #
DXID-attrib $-1 -1 $-1 $63 $38 @18 ASM_EDGE_FROM_STEP @4 7264 #
point $-1 -1 $-1 5.6483688860548398 93.027265447634718 20.804309476690399 #
coedge $-1 -1 $-1 $134 $66 $99 $135 forward $100 $-1 #
coedge $-1 -1 $-1 $66 $134 $98 $135 reversed $100 $-1 #
loop $-1 -1 $-1 $-1 $66 $136 #
truecolor-adesk-attrib $-1 -1 $137 $-1 $67 -1029660512 #
vertex $-1 -1 $-1 $67 $138 #
ellipse-curve $-1 -1 $-1 7.0483688860547797 82.549765447634712 20.804309476690399 -1 -1.4876988760692599e-14 6.6973815786729802e-16 -6.3301587176747003e-14 4.2549999999999999 2.058103467057517e-28 1 I I #
DXID-attrib $-1 -1 $-1 $68 $41 @18 ASM_EDGE_FROM_STEP @4 7262 #
point $-1 -1 $-1 7.0483688860548313 93.027265447634718 20.804309476690399 #
truecolor-adesk-attrib $-1 -1 $139 $-1 $71 -1029660512 #
ellipse-curve $-1 -1 $-1 7.0483688860549911 82.549765447634798 20.804309476690399 1 1.5015766638770703e-14 -8.3627161156106993e-16 -7.8034536699029439e-14 5.1968400000000203 2.5357055513545165e-28 1 F 1.2806663659517037 F 5.0025189412278825 #
DXID-attrib $-1 -1 $-1 $72 $43 @18 ASM_EDGE_FROM_STEP @4 7259 #
point $-1 -1 $-1 7.0483688860549698 84.036460580815898 25.783956408610003 #
coedge $-1 -1 $-1 $76 $75 $140 $141 reversed $56 $-1 #
edge $142 -1 $-1 $78 0 $143 0.14000000000000012 $91 $144 forward @7 unknown #
DXID-attrib $-1 -1 $-1 $77 $45 @18 ASM_EDGE_FROM_STEP @4 7261 #
point $-1 -1 $-1 7.0483688860549609 84.036460580815898 15.824662544770799 #
coedge $-1 -1 $-1 $140 $128 $80 $115 forward $125 $-1 #
edge $145 -1 $-1 $120 -1.8609262876380896 $117 1.8609262876380965 $80 $146 forward @7 unknown #
truecolor-adesk-attrib $-1 -1 $147 $-1 $81 -1029660512 #
vertex $-1 -1 $-1 $141 $148 #
straight-curve $-1 -1 $-1 7.0483688860548197 93.763070314453614 15.824662544770902 -10 -1.2688263369288699e-13 7.6616632465804703e-15 F 0 F 0.1399999999999999 #
truecolor-adesk-attrib $-1 -1 $149 $-1 $82 -1029660512 #
vertex $-1 -1 $-1 $82 $150 #
straight-curve $-1 -1 $-1 7.0483688860548313 93.763070314453699 25.783956408610003 -10 -1.2688263369288699e-13 7.6616632465804703e-15 F 0 F 0.13999999999999913 #
DXID-attrib $-1 -1 $-1 $87 $55 @18 ASM_FACE_FROM_STEP @17 step-1M-559-13604 #
truecolor-adesk-attrib $-1 -1 $151 $-1 $88 -1029660512 #
face $152 -1 $-1 $153 $154 $4 $-1 $155 reversed single #
loop $-1 -1 $-1 $156 $114 $88 #
plane-surface $-1 -1 $-1 5.6483688860549011 88.89976544763482 20.804309476690399 1 1.50157666387707e-14 -8.3627161156107003e-16 -1.50157666387707e-14 1 4.8793219559472804e-29 forward_v I I I I #
coedge $-1 -1 $-1 $91 $90 $157 $158 reversed $32 $-1 #
coedge $-1 -1 $-1 $114 $157 $92 $129 forward $125 $-1 #
edge $159 -1 $-1 $131 -2.6891215129328412e-15 $120 0.58025992168639129 $92 $160 forward @7 unknown #
truecolor-adesk-attrib $-1 -1 $161 $-1 $93 -1029660512 #
vertex $-1 -1 $-1 $129 $162 #
straight-curve $-1 -1 $-1 7.0483688860549698 84.036460580815898 25.783956408610003 -10 -1.2688263369288699e-13 7.6616632465804703e-15 F 0 F 0.1399999999999989 #
DXID-attrib $-1 -1 $-1 $94 $61 @18 ASM_EDGE_FROM_STEP @4 7265 #
coedge $-1 -1 $-1 $99 $98 $163 $164 reversed $100 $-1 #
edge $165 -1 $-1 $102 -1.8566392479435865 $166 0 $98 $167 forward @7 unknown #
face $168 -1 $-1 $169 $100 $4 $-1 $170 forward single #
DXID-attrib $-1 -1 $-1 $101 $67 @18 ASM_EDGE_FROM_STEP @4 7263 #
point $-1 -1 $-1 7.048368886054841 78.294765447634703 20.804309476690399 #
DXID-attrib $-1 -1 $-1 $106 $71 @18 ASM_EDGE_FROM_STEP @4 7260 #
coedge $-1 -1 $-1 $157 $114 $110 $141 forward $125 $-1 #
edge $171 -1 $-1 $117 2.6891215129328424e-15 $143 0.58025992168639673 $110 $172 forward @7 unknown #
truecolor-adesk-attrib $-1 -1 $173 $-1 $111 -1029660512 #
vertex $-1 -1 $-1 $158 $174 #
straight-curve $-1 -1 $-1 7.0483688860549609 84.036460580815898 15.824662544770799 -10 -1.2688263369288699e-13 7.6616632465804703e-15 F 0 F 0.14000000000000012 #
truecolor-adesk-attrib $-1 -1 $175 $-1 $115 -1029660512 #
ellipse-curve $-1 -1 $-1 5.6483688860547998 95.249765447634701 20.804309476690399 -1 -1.5015766638770703e-14 8.3627161156106993e-16 -7.8034536699029439e-14 5.1968400000000203 2.5357055513545165e-28 1 F -1.8609262876380896 F 1.8609262876380965 #
DXID-attrib $-1 -1 $-1 $116 $81 @18 ASM_EDGE_FROM_STEP @4 7272 #
point $-1 -1 $-1 5.6483688860548211 93.763070314453614 15.824662544770902 #
DXID-attrib $-1 -1 $-1 $119 $82 @18 ASM_EDGE_FROM_STEP @4 7266 #
point $-1 -1 $-1 5.6483688860548398 93.763070314453614 25.783956408610003 #
DXID-attrib $-1 -1 $-1 $123 $88 @18 ASM_FACE_FROM_STEP @17 step-1M-559-13605 #
truecolor-adesk-attrib $-1 -1 $176 $-1 $124 -1029660512 #
face $177 -1 $-1 $178 $179 $4 $-1 $180 reversed single #
loop $-1 -1 $-1 $-1 $181 $124 #
cone-surface $-1 -1 $-1 16.448368886054801 95.249765447634815 20.804309476690399 -1 -1.2688263369288701e-14 7.6616632465804808e-16 -2.8199665338244393e-14 2.2225000000000201 1.0447964706551416e-28 1 I I 0 1 2.2225000000000201 forward I I I I #
loop $-1 -1 $-1 $62 $182 $88 #
coedge $-1 -1 $-1 $128 $140 $127 $158 forward $125 $-1 #
edge $183 -1 $-1 $143 1.2806663659517037 $131 5.0025189412278825 $127 $184 forward @7 unknown #
truecolor-adesk-attrib $-1 -1 $185 $-1 $129 -1029660512 #
ellipse-curve $-1 -1 $-1 5.6483688860549197 88.89976544763482 42.073470390690098 1 1.50468058078501e-14 -3.5887316178877087e-16 6.7331334528644421e-14 -4.8633048668188739 -16.289513982080088 1 F -2.6891215129328412e-15 F 0.58025992168639129 #
DXID-attrib $-1 -1 $-1 $130 $93 @18 ASM_EDGE_FROM_STEP @4 7268 #
point $-1 -1 $-1 5.648368886054981 84.036460580815898 25.783956408610003 #
coedge $-1 -1 $-1 $163 $163 $134 $164 forward $186 $-1 #
edge $187 -1 $-1 $166 -3.1415926535897931 $166 3.1415926535897931 $134 $188 forward @7 unknown #
truecolor-adesk-attrib $-1 -1 $189 $-1 $135 -1029660512 #
vertex $-1 -1 $-1 $135 $190 #
straight-curve $-1 -1 $-1 14.948368886054801 78.294765447634802 20.804309476690399 4.2549999999999999 6.2189354507912247e-14 -2.6193506902021079e-15 F -1.8566392479435865 F 0 #
truecolor-adesk-attrib $-1 -1 $191 $-1 $136 -1029660512 #
face $192 -1 $-1 $-1 $186 $4 $-1 $193 forward single #
cone-surface $-1 -1 $-1 14.948368886054801 82.549765447634798 20.804309476690399 -1 -1.4615594478945299e-14 6.1559358171612396e-16 -6.2189354507912247e-14 4.2549999999999999 2.0512566341344216e-28 1 I I 0 1 4.2549999999999999 forward I I I I #
truecolor-adesk-attrib $-1 -1 $194 $-1 $141 -1029660512 #
ellipse-curve $-1 -1 $-1 5.6483688860548797 88.89976544763482 -0.46485143730924405 1 1.4779995759687304e-14 -1.2525465236544802e-15 -5.1476251199373321e-14 4.8633048668188215 16.289513982080102 1 F 2.6891215129328424e-15 F 0.58025992168639673 #
DXID-attrib $-1 -1 $-1 $142 $111 @18 ASM_EDGE_FROM_STEP @4 7270 #
point $-1 -1 $-1 5.6483688860549597 84.036460580815898 15.824662544770799 #
DXID-attrib $-1 -1 $-1 $145 $115 @18 ASM_EDGE_FROM_STEP @4 7273 #
DXID-attrib $-1 -1 $-1 $152 $124 @18 ASM_FACE_FROM_STEP @17 step-1M-559-13606 #
truecolor-adesk-attrib $-1 -1 $195 $-1 $153 -1029660512 #
face $196 -1 $-1 $197 $198 $4 $-1 $199 forward single #
loop $-1 -1 $-1 $-1 $200 $153 #
cone-surface $-1 -1 $-1 16.448368886054901 88.89976544763482 42.073470390690098 -1 -1.2688263369288699e-14 7.6616632465804897e-16 4.9226415937225179e-14 -4.8633048668188739 -16.289513982080088 1 I I 0 1 17.000000000000199 forward I I I I #
coedge $-1 -1 $-1 $201 $202 $203 $204 reversed $154 $-1 #
coedge $-1 -1 $-1 $182 $182 $205 $206 reversed $156 $-1 #
truecolor-adesk-attrib $-1 -1 $207 $-1 $158 -1029660512 #
ellipse-curve $-1 -1 $-1 5.6483688860549996 82.549765447634798 20.804309476690399 -1 -1.5015766638770703e-14 8.3627161156106993e-16 -7.8034536699029439e-14 5.1968400000000203 2.5357055513545165e-28 1 F 1.2806663659517037 F 5.0025189412278825 #
DXID-attrib $-1 -1 $-1 $159 $129 @18 ASM_EDGE_FROM_STEP @4 7267 #
loop $-1 -1 $-1 $208 $163 $169 #
truecolor-adesk-attrib $-1 -1 $209 $-1 $164 -1029660512 #
ellipse-curve $-1 -1 $-1 14.948368886054801 82.549765447634798 20.804309476690399 1 1.4876988760692599e-14 -6.6973815786729802e-16 -6.3301587176747003e-14 4.2549999999999999 2.058103467057517e-28 1 I I #
DXID-attrib $-1 -1 $-1 $165 $135 @18 ASM_EDGE_FROM_STEP @4 7304 #
point $-1 -1 $-1 14.948368886054801 78.294765447634802 20.804309476690399 #
DXID-attrib $-1 -1 $-1 $168 $136 @18 ASM_FACE_FROM_STEP @17 step-1M-559-13620 #
truecolor-adesk-attrib $-1 -1 $210 $-1 $169 -1029660512 #
plane-surface $-1 -1 $-1 14.948368886054801 82.549765447634798 20.804309476690399 1 1.4876988760692599e-14 -6.6973815786729802e-16 -1.4876988760692599e-14 1 4.8369059155288306e-29 forward_v I I I I #
DXID-attrib $-1 -1 $-1 $171 $141 @18 ASM_EDGE_FROM_STEP @4 7271 #
DXID-attrib $-1 -1 $-1 $177 $153 @18 ASM_FACE_FROM_STEP @17 step-1M-559-13607 #
truecolor-adesk-attrib $-1 -1 $211 $-1 $178 -1029660512 #
face $212 -1 $-1 $213 $214 $4 $-1 $215 reversed single #
loop $-1 -1 $-1 $-1 $216 $178 #
cone-surface $-1 -1 $-1 16.448368886055 82.549765447634798 20.804309476690399 -1 -1.2688263369288698e-14 7.6616632465804788e-16 6.5938874608054537e-14 -5.1968400000000203 -6.3642934716833821e-16 1 I I 0 1 5.1968400000000203 forward I I I I #
coedge $-1 -1 $-1 $217 $218 $219 $220 forward $179 $-1 #
coedge $-1 -1 $-1 $221 $181 $202 $222 forward $154 $-1 #
coedge $-1 -1 $-1 $181 $221 $201 $222 reversed $154 $-1 #
coedge $-1 -1 $-1 $203 $203 $181 $204 forward $223 $-1 #
edge $224 -1 $-1 $225 -3.1415926535897931 $225 3.1415926535897931 $181 $226 forward @7 unknown #
coedge $-1 -1 $-1 $227 $228 $182 $206 forward $229 $-1 #
edge $230 -1 $-1 $231 -3.1415926535897931 $231 3.1415926535897931 $182 $232 forward @7 unknown #
DXID-attrib $-1 -1 $-1 $183 $158 @18 ASM_EDGE_FROM_STEP @4 7269 #
loop $-1 -1 $-1 $-1 $233 $169 #
DXID-attrib $-1 -1 $-1 $187 $164 @18 ASM_EDGE_FROM_STEP @4 7305 #
DXID-attrib $-1 -1 $-1 $192 $169 @18 ASM_FACE_FROM_STEP @17 step-1M-559-13621 #
DXID-attrib $-1 -1 $-1 $196 $178 @18 ASM_FACE_FROM_STEP @17 step-1M-559-13608 #
truecolor-adesk-attrib $-1 -1 $234 $-1 $197 -1029660512 #
face $235 -1 $-1 $236 $237 $4 $-1 $238 forward single #
loop $-1 -1 $-1 $-1 $239 $197 #
cone-surface $-1 -1 $-1 16.448368886054901 88.89976544763482 -0.46485143730927297 -1 -1.2688263369288699e-14 7.6616632465804798e-16 -4.9226415937224504e-14 4.8633048668188215 16.289513982080102 1 I I 0 1 17.000000000000203 forward I I I I #
coedge $-1 -1 $-1 $240 $241 $242 $243 reversed $198 $-1 #
coedge $-1 -1 $-1 $244 $200 $245 $246 forward $179 $-1 #
coedge $-1 -1 $-1 $200 $244 $240 $247 reversed $179 $-1 #
coedge $-1 -1 $-1 $242 $248 $200 $220 reversed $249 $-1 #
edge $250 -1 $-1 $251 -5.7624032419989468e-16 $252 0.58025992168639451 $200 $253 forward @7 unknown #
coedge $-1 -1 $-1 $202 $201 $254 $255 reversed $154 $-1 #
edge $256 -1 $-1 $225 -0.62992125984251546 $257 0 $201 $258 forward @7 unknown #
loop $-1 -1 $-1 $-1 $203 $259 #
truecolor-adesk-attrib $-1 -1 $260 $-1 $204 -1029660512 #
vertex $-1 -1 $-1 $204 $261 #
ellipse-curve $-1 -1 $-1 15.048368886054799 95.249765447634701 20.804309476690399 1 1.50157666387707e-14 -8.3627161156107013e-16 -3.3372541354668181e-14 2.2225000000000201 1.0844293047092929e-28 1 I I #
coedge $-1 -1 $-1 $262 $205 $228 $263 reversed $229 $-1 #
coedge $-1 -1 $-1 $205 $264 $227 $263 forward $229 $-1 #
loop $-1 -1 $-1 $-1 $264 $265 #
truecolor-adesk-attrib $-1 -1 $266 $-1 $206 -1029660512 #
vertex $-1 -1 $-1 $206 $267 #
ellipse-curve $-1 -1 $-1 5.6483688860549899 82.549765447634712 20.804309476690399 -1 -1.50157666387707e-14 8.3627161156107013e-16 -3.3372541354668181e-14 2.2225000000000201 1.0863551418032093e-28 1 I I #
coedge $-1 -1 $-1 $233 $233 $268 $269 forward $208 $-1 #
DXID-attrib $-1 -1 $-1 $212 $197 @18 ASM_FACE_FROM_STEP @17 step-1M-559-13609 #
truecolor-adesk-attrib $-1 -1 $270 $-1 $213 -1029660512 #
face $271 -1 $-1 $259 $249 $4 $-1 $272 forward single #
loop $-1 -1 $-1 $-1 $273 $213 #
cone-surface $-1 -1 $-1 16.448368886054801 95.249765447634815 20.804309476690399 -1 -1.2688263369288698e-14 7.6616632465804788e-16 -6.5938874608054537e-14 5.1968400000000203 2.4430326616690377e-28 1 I I 0 1 5.1968400000000203 forward I I I I #
coedge $-1 -1 $-1 $274 $275 $276 $277 forward $214 $-1 #
coedge $-1 -1 $-1 $278 $216 $218 $247 forward $198 $-1 #
coedge $-1 -1 $-1 $216 $278 $274 $279 reversed $198 $-1 #
coedge $-1 -1 $-1 $276 $219 $216 $243 forward $249 $-1 #
edge $280 -1 $-1 $251 1.2806663659516966 $281 5.0025189412278825 $216 $282 forward @7 unknown #
coedge $-1 -1 $-1 $218 $217 $283 $284 reversed $179 $-1 #
coedge $-1 -1 $-1 $273 $285 $217 $246 reversed $237 $-1 #
edge $286 -1 $-1 $252 0 $287 0.14000000000000035 $217 $288 forward @7 unknown #
edge $289 -1 $-1 $251 0 $290 0.1399999999999999 $218 $291 forward @7 unknown #
coedge $-1 -1 $-1 $219 $276 $273 $292 forward $249 $-1 #
loop $-1 -1 $-1 $293 $248 $236 #
truecolor-adesk-attrib $-1 -1 $294 $-1 $220 -1029660512 #
vertex $-1 -1 $-1 $220 $295 #
vertex $-1 -1 $-1 $220 $296 #
ellipse-curve $-1 -1 $-1 16.448368886054901 88.89976544763482 42.073470390690098 1 1.50468058078501e-14 -3.5887316178877087e-16 6.7331334528644421e-14 -4.8633048668188739 -16.289513982080088 1 F -5.7624032419989468e-16 F 0.58025992168639451 #
coedge $-1 -1 $-1 $254 $254 $221 $255 forward $297 $-1 #
edge $298 -1 $-1 $257 -3.1415926535897931 $257 3.1415926535897931 $221 $299 forward @7 unknown #
truecolor-adesk-attrib $-1 -1 $300 $-1 $222 -1029660512 #
vertex $-1 -1 $-1 $222 $301 #
straight-curve $-1 -1 $-1 16.448368886054801 93.027265447634718 20.804309476690399 2.2225000000000201 2.8199665338244393e-14 -1.7028046565525271e-15 F -0.62992125984251546 F 0 #
face $302 -1 $-1 $303 $304 $4 $-1 $305 reversed single #
DXID-attrib $-1 -1 $-1 $224 $204 @18 ASM_EDGE_FROM_STEP @4 7275 #
point $-1 -1 $-1 15.048368886054799 93.027265447634718 20.804309476690399 #
coedge $-1 -1 $-1 $264 $227 $306 $307 reversed $229 $-1 #
edge $308 -1 $-1 $309 -6.9799775028120932 $231 -6.1671541057366683 $228 $310 forward @7 unknown #
coedge $-1 -1 $-1 $228 $262 $311 $312 reversed $229 $-1 #
face $313 -1 $-1 $314 $229 $4 $-1 $315 forward single #
DXID-attrib $-1 -1 $-1 $230 $206 @18 ASM_EDGE_FROM_STEP @4 7274 #
point $-1 -1 $-1 5.6483688860550298 80.327265447634801 20.804309476690399 #
coedge $-1 -1 $-1 $316 $317 $233 $269 reversed $318 $-1 #
edge $319 -1 $-1 $320 -3.1415926535897931 $320 3.1415926535897931 $268 $321 forward @7 unknown #
DXID-attrib $-1 -1 $-1 $235 $213 @18 ASM_FACE_FROM_STEP @17 step-1M-559-13610 #
truecolor-adesk-attrib $-1 -1 $322 $-1 $236 -1029660512 #
plane-surface $-1 -1 $-1 16.448368886054901 88.89976544763482 20.804309476690399 1 1.50157666387707e-14 -8.3627161156107003e-16 -1.50157666387707e-14 1 4.8793219559472804e-29 forward_v I I I I #
coedge $-1 -1 $-1 $323 $245 $248 $292 reversed $237 $-1 #
coedge $-1 -1 $-1 $324 $239 $241 $279 forward $214 $-1 #
coedge $-1 -1 $-1 $239 $324 $323 $325 reversed $214 $-1 #
coedge $-1 -1 $-1 $248 $242 $239 $277 reversed $249 $-1 #
edge $326 -1 $-1 $327 6.1465634581322091e-16 $281 0.58025992168639573 $239 $328 forward @7 unknown #
coedge $-1 -1 $-1 $241 $240 $329 $330 reversed $198 $-1 #
edge $331 -1 $-1 $281 0 $332 0.1399999999999999 $241 $333 forward @7 unknown #
truecolor-adesk-attrib $-1 -1 $334 $-1 $243 -1029660512 #
vertex $-1 -1 $-1 $243 $335 #
ellipse-curve $-1 -1 $-1 16.448368886055 82.549765447634798 20.804309476690399 1 1.5015766638770703e-14 -8.3627161156106993e-16 -7.8034536699029439e-14 5.1968400000000203 2.5357055513545165e-28 1 F 1.2806663659516966 F 5.0025189412278825 #
coedge $-1 -1 $-1 $336 $329 $244 $284 forward $304 $-1 #
edge $337 -1 $-1 $290 -5.7624032419989468e-16 $287 0.58025992168639018 $244 $338 forward @7 unknown #
coedge $-1 -1 $-1 $245 $323 $336 $339 reversed $237 $-1 #
truecolor-adesk-attrib $-1 -1 $340 $-1 $246 -1029660512 #
vertex $-1 -1 $-1 $246 $341 #
straight-curve $-1 -1 $-1 16.448368886054801 93.763070314453699 25.7839564086099 -10 -1.2688263369288699e-13 7.6616632465804703e-15 F 0 F 0.14000000000000035 #
truecolor-adesk-attrib $-1 -1 $342 $-1 $247 -1029660512 #
vertex $-1 -1 $-1 $284 $343 #
straight-curve $-1 -1 $-1 16.448368886055 84.036460580815898 25.7839564086099 -10 -1.2688263369288699e-13 7.6616632465804703e-15 F 0 F 0.1399999999999999 #
edge $344 -1 $-1 $327 -1.8609262876381107 $252 1.8609262876381001 $273 $345 forward @7 unknown #
loop $-1 -1 $-1 $297 $346 $236 #
DXID-attrib $-1 -1 $-1 $250 $220 @18 ASM_EDGE_FROM_STEP @4 7278 #
point $-1 -1 $-1 16.448368886055 84.036460580815898 25.7839564086099 #
point $-1 -1 $-1 16.448368886054801 93.763070314453699 25.7839564086099 #
loop $-1 -1 $-1 $-1 $254 $236 #
truecolor-adesk-attrib $-1 -1 $347 $-1 $255 -1029660512 #
ellipse-curve $-1 -1 $-1 16.448368886054801 95.249765447634815 20.804309476690399 -1 -1.50157666387707e-14 8.3627161156107013e-16 -3.3372541354668181e-14 2.2225000000000201 1.0844293047092929e-28 1 I I #
DXID-attrib $-1 -1 $-1 $256 $222 @18 ASM_EDGE_FROM_STEP @4 7276 #
point $-1 -1 $-1 16.448368886054801 93.027265447634718 20.804309476690399 #
truecolor-adesk-attrib $-1 -1 $348 $-1 $259 -1029660512 #
face $349 -1 $-1 $265 $318 $4 $-1 $350 forward single #
loop $-1 -1 $-1 $351 $336 $259 #
plane-surface $-1 -1 $-1 15.048368886054902 88.89976544763482 20.804309476690399 1 1.50157666387707e-14 -8.3627161156107003e-16 -1.50157666387707e-14 1 4.8793219559472804e-29 forward_v I I I I #
coedge $-1 -1 $-1 $311 $352 $262 $307 forward $353 $-1 #
edge $354 -1 $-1 $355 -1.570796326794897 $309 3.1415926535897931 $262 $356 forward @7 unknown #
truecolor-adesk-attrib $-1 -1 $357 $-1 $263 -1029660512 #
vertex $-1 -1 $-1 $312 $358 #
straight-curve $-1 -1 $-1 19.354868886054899 80.3272654476349 20.804309476690399 2.2225000000000201 3.3070869332210632e-14 -1.8229185582915339e-15 F -6.9799775028120932 F -6.1671541057366683 #
coedge $-1 -1 $-1 $359 $306 $264 $312 forward $353 $-1 #
edge $360 -1 $-1 $309 -3.1415926535897931 $355 -1.570796326794897 $264 $361 forward @7 unknown #
truecolor-adesk-attrib $-1 -1 $362 $-1 $265 -1029660512 #
face $363 -1 $-1 $364 $365 $4 $-1 $366 forward single #
cone-surface $-1 -1 $-1 19.354868886054899 82.549765447634911 20.804309476690399 -1 -1.4880031195595202e-14 8.2021082487807309e-16 -3.3070869332210639e-14 2.2225000000000201 1.0838323443193749e-28 1 I I 0 1 2.2225000000000201 forward I I I I #
coedge $-1 -1 $-1 $367 $268 $317 $368 forward $318 $-1 #
coedge $-1 -1 $-1 $268 $367 $316 $368 reversed $318 $-1 #
loop $-1 -1 $-1 $-1 $268 $303 #
truecolor-adesk-attrib $-1 -1 $369 $-1 $269 -1029660512 #
vertex $-1 -1 $-1 $269 $370 #
ellipse-curve $-1 -1 $-1 14.948368886054801 82.549765447634911 20.804309476690399 -1 -1.4876988760692599e-14 6.6973815786729802e-16 -3.3064107520639601e-14 2.2225000000000201 1.0854072961180552e-28 1 I I #
DXID-attrib $-1 -1 $-1 $271 $236 @18 ASM_FACE_FROM_STEP @17 step-1M-559-13611 #
coedge $-1 -1 $-1 $285 $273 $275 $325 forward $237 $-1 #
coedge $-1 -1 $-1 $275 $274 $371 $372 reversed $214 $-1 #
edge $373 -1 $-1 $327 0 $374 0.14000000000000035 $275 $375 forward @7 unknown #
truecolor-adesk-attrib $-1 -1 $376 $-1 $277 -1029660512 #
vertex $-1 -1 $-1 $277 $377 #
ellipse-curve $-1 -1 $-1 16.448368886054901 88.89976544763482 -0.46485143730927297 1 1.4779995759687304e-14 -1.2525465236544802e-15 -5.1476251199373321e-14 4.8633048668188215 16.289513982080102 1 F 6.1465634581322091e-16 F 0.58025992168639573 #
coedge $-1 -1 $-1 $283 $371 $278 $330 forward $304 $-1 #
edge $378 -1 $-1 $332 1.2806663659517037 $290 5.0025189412278896 $278 $379 forward @7 unknown #
truecolor-adesk-attrib $-1 -1 $380 $-1 $279 -1029660512 #
vertex $-1 -1 $-1 $330 $381 #
straight-curve $-1 -1 $-1 16.448368886055 84.036460580815898 15.824662544770799 -10 -1.2688263369288699e-13 7.6616632465804703e-15 F 0 F 0.1399999999999999 #
DXID-attrib $-1 -1 $-1 $280 $243 @18 ASM_EDGE_FROM_STEP @4 7282 #
point $-1 -1 $-1 16.448368886055 84.036460580815898 15.824662544770799 #
coedge $-1 -1 $-1 $371 $283 $285 $339 forward $304 $-1 #
truecolor-adesk-attrib $-1 -1 $382 $-1 $284 -1029660512 #
ellipse-curve $-1 -1 $-1 15.048368886054902 88.89976544763482 42.073470390690098 1 1.50468058078501e-14 -3.5887316178877087e-16 6.7331334528644421e-14 -4.8633048668188739 -16.289513982080088 1 F -5.7624032419989468e-16 F 0.58025992168639018 #
edge $383 -1 $-1 $287 -1.8609262876380965 $374 1.8609262876380896 $285 $384 forward @7 unknown #
DXID-attrib $-1 -1 $-1 $286 $246 @18 ASM_EDGE_FROM_STEP @4 7279 #
point $-1 -1 $-1 15.048368886054799 93.763070314453614 25.7839564086099 #
DXID-attrib $-1 -1 $-1 $289 $247 @18 ASM_EDGE_FROM_STEP @4 7281 #
point $-1 -1 $-1 15.048368886055002 84.036460580815898 25.7839564086099 #
truecolor-adesk-attrib $-1 -1 $385 $-1 $292 -1029660512 #
ellipse-curve $-1 -1 $-1 16.448368886054801 95.249765447634815 20.804309476690399 1 1.5015766638770703e-14 -8.3627161156106993e-16 -7.8034536699029439e-14 5.1968400000000203 2.5357055513545165e-28 1 F -1.8609262876381107 F 1.8609262876381001 #
coedge $-1 -1 $-1 $346 $346 $386 $387 reversed $293 $-1 #
DXID-attrib $-1 -1 $-1 $298 $255 @18 ASM_EDGE_FROM_STEP @4 7277 #
DXID-attrib $-1 -1 $-1 $302 $259 @18 ASM_FACE_FROM_STEP @17 step-1M-559-13612 #
truecolor-adesk-attrib $-1 -1 $388 $-1 $303 -1029660512 #
cone-surface $-1 -1 $-1 19.354868886054899 82.549765447634911 20.804309476690399 -1 -1.4880031195595202e-14 8.2021082487807309e-16 -3.3070869332210639e-14 2.2225000000000201 1.0838323443193749e-28 1 I I 0 1 2.2225000000000201 forward I I I I #
loop $-1 -1 $-1 $223 $389 $259 #
coedge $-1 -1 $-1 $306 $390 $359 $391 reversed $353 $-1 #
loop $-1 -1 $-1 $-1 $311 $364 #
truecolor-adesk-attrib $-1 -1 $392 $-1 $307 -1029660512 #
vertex $-1 -1 $-1 $312 $393 #
ellipse-curve $-1 -1 $-1 3.8418688860548507 82.549765447634712 20.804309476690399 -1 -1.5057400002194001e-14 8.3627161156107101e-16 -3.3465071504876469e-14 2.2225000000000201 -6.4843421430915861e-16 1 F -1.570796326794897 F 3.1415926535897931 #
DXID-attrib $-1 -1 $-1 $308 $263 @18 ASM_EDGE_FROM_STEP @4 7295 #
point $-1 -1 $-1 3.84186888605488 80.327265447634701 20.804309476690399 #
coedge $-1 -1 $-1 $390 $311 $352 $391 forward $353 $-1 #
truecolor-adesk-attrib $-1 -1 $394 $-1 $312 -1029660512 #
ellipse-curve $-1 -1 $-1 3.8418688860548507 82.549765447634712 20.804309476690399 -1 -1.5057400002194001e-14 8.3627161156107101e-16 -3.3465071504876469e-14 2.2225000000000201 -6.4843421430915861e-16 1 F -3.1415926535897931 F -1.570796326794897 #
DXID-attrib $-1 -1 $-1 $313 $265 @18 ASM_FACE_FROM_STEP @17 step-1M-559-13614 #
truecolor-adesk-attrib $-1 -1 $395 $-1 $314 -1029660512 #
face $396 -1 $-1 $397 $353 $4 $-1 $398 forward single #
loop $-1 -1 $-1 $-1 $386 $314 #
cone-surface $-1 -1 $-1 19.354868886054899 82.549765447634911 20.804309476690399 -1 -1.4880031195595202e-14 8.2021082487807309e-16 -3.3070869332210639e-14 2.2225000000000201 1.0838323443193749e-28 1 I I 0 1 2.2225000000000201 forward I I I I #
coedge $-1 -1 $-1 $317 $316 $389 $399 forward $318 $-1 #
edge $400 -1 $-1 $320 -1.9826771653543565 $401 -1.9376827896512299 $316 $402 forward @7 unknown #
DXID-attrib $-1 -1 $-1 $319 $269 @18 ASM_EDGE_FROM_STEP @4 7292 #
point $-1 -1 $-1 14.948368886054801 80.327265447634801 20.804309476690399 #
coedge $-1 -1 $-1 $329 $336 $324 $372 forward $304 $-1 #
edge $403 -1 $-1 $374 6.1465634581322091e-16 $332 0.58025992168639573 $324 $404 forward @7 unknown #
truecolor-adesk-attrib $-1 -1 $405 $-1 $325 -1029660512 #
vertex $-1 -1 $-1 $372 $406 #
straight-curve $-1 -1 $-1 16.448368886054801 93.763070314453614 15.824662544770799 -10 -1.2688263369288699e-13 7.6616632465804703e-15 F 0 F 0.14000000000000035 #
DXID-attrib $-1 -1 $-1 $326 $277 @18 ASM_EDGE_FROM_STEP @4 7285 #
point $-1 -1 $-1 16.448368886054801 93.763070314453614 15.824662544770799 #
truecolor-adesk-attrib $-1 -1 $407 $-1 $330 -1029660512 #
ellipse-curve $-1 -1 $-1 15.048368886055002 82.549765447634798 20.804309476690399 -1 -1.5015766638770703e-14 8.3627161156106993e-16 -7.8034536699029439e-14 5.1968400000000203 2.5357055513545165e-28 1 F 1.2806663659517037 F 5.0025189412278896 #
DXID-attrib $-1 -1 $-1 $331 $279 @18 ASM_EDGE_FROM_STEP @4 7284 #
point $-1 -1 $-1 15.048368886055002 84.036460580815898 15.824662544770799 #
DXID-attrib $-1 -1 $-1 $337 $284 @18 ASM_EDGE_FROM_STEP @4 7280 #
truecolor-adesk-attrib $-1 -1 $408 $-1 $339 -1029660512 #
ellipse-curve $-1 -1 $-1 15.048368886054799 95.249765447634701 20.804309476690399 -1 -1.5015766638770703e-14 8.3627161156106993e-16 -7.8034536699029439e-14 5.1968400000000203 2.5357055513545165e-28 1 F -1.8609262876380965 F 1.8609262876380896 #
DXID-attrib $-1 -1 $-1 $344 $292 @18 ASM_EDGE_FROM_STEP @4 7288 #
coedge $-1 -1 $-1 $409 $410 $346 $387 forward $365 $-1 #
edge $411 -1 $-1 $412 -3.1415926535897931 $412 3.1415926535897931 $346 $413 forward @7 unknown #
DXID-attrib $-1 -1 $-1 $349 $303 @18 ASM_FACE_FROM_STEP @17 step-1M-559-13613 #
coedge $-1 -1 $-1 $389 $389 $367 $399 reversed $351 $-1 #
coedge $-1 -1 $-1 $352 $359 $414 $415 forward $353 $-1 #
edge $416 -1 $-1 $355 7.4930687826219298e-16 $417 1.5707963267948974 $359 $418 forward @7 unknown #
DXID-attrib $-1 -1 $-1 $354 $307 @18 ASM_EDGE_FROM_STEP @4 7296 #
point $-1 -1 $-1 3.8418688860548507 82.549765447634712 23.026809476690403 #
DXID-attrib $-1 -1 $-1 $360 $312 @18 ASM_EDGE_FROM_STEP @4 7294 #
DXID-attrib $-1 -1 $-1 $363 $314 @18 ASM_FACE_FROM_STEP @17 step-1M-559-13615 #
truecolor-adesk-attrib $-1 -1 $419 $-1 $364 -1029660512 #
face $420 -1 $-1 $421 $422 $4 $-1 $423 reversed single #
torus-surface $-1 -1 $-1 3.8418688860548507 82.549765447634712 20.804309476690399 1 1.5057400002194001e-14 -8.3627161156107101e-16 2.0225000000000199 0.20000000000000004 -8.3627161156107101e-16 -5.572885493393873e-31 -1 forward_v I I I I #
edge $424 -1 $-1 $401 -3.1415926535897931 $401 3.1415926535897931 $389 $425 forward @7 unknown #
truecolor-adesk-attrib $-1 -1 $426 $-1 $368 -1029660512 #
vertex $-1 -1 $-1 $399 $427 #
straight-curve $-1 -1 $-1 19.354868886054899 80.3272654476349 20.804309476690399 2.2225000000000201 3.3070869332210632e-14 -1.8229185582915339e-15 F -1.9826771653543565 F -1.9376827896512299 #
truecolor-adesk-attrib $-1 -1 $428 $-1 $372 -1029660512 #
ellipse-curve $-1 -1 $-1 15.048368886054902 88.89976544763482 -0.46485143730927297 1 1.4779995759687304e-14 -1.2525465236544802e-15 -5.1476251199373321e-14 4.8633048668188215 16.289513982080102 1 F 6.1465634581322091e-16 F 0.58025992168639573 #
DXID-attrib $-1 -1 $-1 $373 $325 @18 ASM_EDGE_FROM_STEP @4 7287 #
point $-1 -1 $-1 15.048368886054799 93.763070314453614 15.824662544770799 #
DXID-attrib $-1 -1 $-1 $378 $330 @18 ASM_EDGE_FROM_STEP @4 7283 #
DXID-attrib $-1 -1 $-1 $383 $339 @18 ASM_EDGE_FROM_STEP @4 7289 #
coedge $-1 -1 $-1 $429 $386 $410 $430 forward $365 $-1 #
coedge $-1 -1 $-1 $386 $431 $409 $430 reversed $365 $-1 #
truecolor-adesk-attrib $-1 -1 $432 $-1 $387 -1029660512 #
vertex $-1 -1 $-1 $387 $433 #
ellipse-curve $-1 -1 $-1 16.448368886055 82.549765447634911 20.804309476690399 1 1.50157666387707e-14 -8.3627161156107013e-16 -3.3372541354668181e-14 2.2225000000000201 1.0863551418032093e-28 1 I I #
coedge $-1 -1 $-1 $414 $414 $390 $415 reversed $422 $-1 #
edge $434 -1 $-1 $417 1.570796326794897 $417 7.8539816339744828 $390 $435 forward @7 unknown #
truecolor-adesk-attrib $-1 -1 $436 $-1 $391 -1029660512 #
vertex $-1 -1 $-1 $391 $437 #
ellipse-curve $-1 -1 $-1 3.8418688860548507 82.549765447634712 22.8268094766904 1.5057400002194001e-14 -1 -1.1282613390389101e-29 1.4986137565243864e-16 5.0446744715693422e-45 0.20000000000000004 1 F 7.4930687826219298e-16 F 1.5707963267948974 #
DXID-attrib $-1 -1 $-1 $396 $364 @18 ASM_FACE_FROM_STEP @17 step-1M-559-13616 #
truecolor-adesk-attrib $-1 -1 $438 $-1 $397 -1029660512 #
face $439 -1 $-1 $440 $441 $4 $-1 $442 forward single #
loop $-1 -1 $-1 $-1 $414 $397 #
plane-surface $-1 -1 $-1 3.6418688860548505 82.549765447634712 20.804309476690399 1 1.5057400002194001e-14 -8.3627161156107101e-16 -1.5057400002194001e-14 1 4.8911839514577098e-29 forward_v I I I I #
truecolor-adesk-attrib $-1 -1 $443 $-1 $399 -1029660512 #
ellipse-curve $-1 -1 $-1 15.048368886055002 82.549765447634911 20.804309476690399 -1 -1.50157666387707e-14 8.3627161156107013e-16 -3.3372541354668181e-14 2.2225000000000201 1.0863551418032093e-28 1 I I #
DXID-attrib $-1 -1 $-1 $400 $368 @18 ASM_EDGE_FROM_STEP @4 7293 #
point $-1 -1 $-1 15.048368886055002 80.327265447634801 20.804309476690399 #
DXID-attrib $-1 -1 $-1 $403 $372 @18 ASM_EDGE_FROM_STEP @4 7286 #
coedge $-1 -1 $-1 $431 $409 $444 $445 reversed $365 $-1 #
edge $446 -1 $-1 $412 -1.3077615298087164 $447 -0.53993250843644003 $409 $448 forward @7 unknown #
coedge $-1 -1 $-1 $410 $429 $449 $450 reversed $365 $-1 #
DXID-attrib $-1 -1 $-1 $411 $387 @18 ASM_EDGE_FROM_STEP @4 7290 #
point $-1 -1 $-1 16.448368886055 80.327265447634801 20.804309476690399 #
truecolor-adesk-attrib $-1 -1 $451 $-1 $415 -1029660512 #
ellipse-curve $-1 -1 $-1 3.6418688860548505 82.549765447634712 20.804309476690399 1 1.5057400002194001e-14 -8.3627161156107101e-16 -3.045359150443767e-14 2.0225000000000199 -5.9008242899449903e-16 1 I I #
DXID-attrib $-1 -1 $-1 $416 $391 @18 ASM_EDGE_FROM_STEP @4 7300 #
point $-1 -1 $-1 3.6418688860548505 82.549765447634712 22.8268094766904 #
DXID-attrib $-1 -1 $-1 $420 $397 @18 ASM_FACE_FROM_STEP @17 step-1M-559-13617 #
truecolor-adesk-attrib $-1 -1 $452 $-1 $421 -1029660512 #
face $453 -1 $-1 $136 $454 $4 $-1 $455 forward single #
loop $-1 -1 $-1 $-1 $449 $421 #
torus-surface $-1 -1 $-1 18.154868886054899 82.549765447634911 20.804309476690399 -1 -1.5057400002194001e-14 8.3627161156107101e-16 2.0225000000000199 0.20000000000000004 8.3627161156107101e-16 1.2592076165754451e-29 1 forward_v I I I I #
DXID-attrib $-1 -1 $-1 $424 $399 @18 ASM_EDGE_FROM_STEP @4 7291 #
coedge $-1 -1 $-1 $449 $456 $429 $445 forward $441 $-1 #
edge $457 -1 $-1 $458 -1.570796326794897 $447 3.1415926535897931 $429 $459 forward @7 unknown #
truecolor-adesk-attrib $-1 -1 $460 $-1 $430 -1029660512 #
vertex $-1 -1 $-1 $430 $461 #
straight-curve $-1 -1 $-1 19.354868886054899 80.3272654476349 20.804309476690399 2.2225000000000201 3.3070869332210632e-14 -1.8229185582915339e-15 F -1.3077615298087164 F -0.53993250843644003 #
coedge $-1 -1 $-1 $462 $444 $431 $450 forward $441 $-1 #
edge $463 -1 $-1 $447 -3.1415926535897931 $458 -1.570796326794897 $431 $464 forward @7 unknown #
DXID-attrib $-1 -1 $-1 $434 $415 @18 ASM_EDGE_FROM_STEP @4 7301 #
DXID-attrib $-1 -1 $-1 $439 $421 @18 ASM_FACE_FROM_STEP @17 step-1M-559-13618 #
truecolor-adesk-attrib $-1 -1 $465 $-1 $440 -1029660512 #
loop $-1 -1 $-1 $-1 $466 $440 #
plane-surface $-1 -1 $-1 18.354868886054902 82.549765447634911 20.804309476690399 1 1.5057400002194001e-14 -8.3627161156107101e-16 -1.5057400002194001e-14 1 4.8911839514577098e-29 forward_v I I I I #
coedge $-1 -1 $-1 $444 $467 $462 $468 reversed $441 $-1 #
truecolor-adesk-attrib $-1 -1 $469 $-1 $445 -1029660512 #
vertex $-1 -1 $-1 $445 $470 #
ellipse-curve $-1 -1 $-1 18.154868886054899 82.549765447634911 20.804309476690399 1 1.5057400002194001e-14 -8.3627161156107101e-16 -3.3465071504876469e-14 2.2225000000000201 6.4843421430938728e-16 1 F -1.570796326794897 F 3.1415926535897931 #
DXID-attrib $-1 -1 $-1 $446 $430 @18 ASM_EDGE_FROM_STEP @4 7297 #
point $-1 -1 $-1 18.154868886054899 80.3272654476349 20.804309476690399 #
coedge $-1 -1 $-1 $467 $449 $456 $468 forward $441 $-1 #
truecolor-adesk-attrib $-1 -1 $471 $-1 $450 -1029660512 #
ellipse-curve $-1 -1 $-1 18.154868886054899 82.549765447634911 20.804309476690399 1 1.5057400002194001e-14 -8.3627161156107101e-16 -3.3465071504876469e-14 2.2225000000000201 6.4843421430938728e-16 1 F -3.1415926535897931 F -1.570796326794897 #
DXID-attrib $-1 -1 $-1 $453 $440 @18 ASM_FACE_FROM_STEP @17 step-1M-559-13619 #
coedge $-1 -1 $-1 $466 $466 $467 $472 reversed $454 $-1 #
coedge $-1 -1 $-1 $456 $462 $466 $472 forward $441 $-1 #
edge $473 -1 $-1 $458 9.9907583768292305e-16 $474 1.5707963267948977 $462 $475 forward @7 unknown #
DXID-attrib $-1 -1 $-1 $457 $445 @18 ASM_EDGE_FROM_STEP @4 7298 #
point $-1 -1 $-1 18.154868886054899 82.549765447634911 18.581809476690403 #
DXID-attrib $-1 -1 $-1 $463 $450 @18 ASM_EDGE_FROM_STEP @4 7299 #
edge $476 -1 $-1 $474 1.570796326794897 $474 7.8539816339744828 $467 $477 forward @7 unknown #
truecolor-adesk-attrib $-1 -1 $478 $-1 $468 -1029660512 #
vertex $-1 -1 $-1 $468 $479 #
ellipse-curve $-1 -1 $-1 18.154868886054899 82.549765447634911 18.781809476690398 1.5057400002194001e-14 -1 -1.50434845205188e-29 -1.9981516753658465e-16 -3.9236357001094882e-45 -0.20000000000000004 1 F 9.9907583768292305e-16 F 1.5707963267948977 #
truecolor-adesk-attrib $-1 -1 $480 $-1 $472 -1029660512 #
ellipse-curve $-1 -1 $-1 18.354868886054902 82.549765447634911 20.804309476690399 -1 -1.5057400002194001e-14 8.3627161156107091e-16 -3.045359150443767e-14 2.0225000000000199 5.9008242899470739e-16 1 I I #
DXID-attrib $-1 -1 $-1 $473 $468 @18 ASM_EDGE_FROM_STEP @4 7302 #
point $-1 -1 $-1 18.354868886054902 82.549765447634911 18.781809476690398 #
DXID-attrib $-1 -1 $-1 $476 $472 @18 ASM_EDGE_FROM_STEP @4 7303 #
