700 553 2 0         
16 Autodesk AutoCAD 20 ASM 229.2.0.65535 NT 24 Wed Mar  6 07:35:14 2024 
1 9.999999999999999547e-07 1.000000000000000036e-10 
body $2 -1 $-1 $3 $-1 $4 #
body $5 -1 $-1 $6 $-1 $7 #
DXID-attrib $-1 -1 $-1 $-1 $0 @18 ASM_BODY_FROM_STEP @83 D0DA28EB1E49EDE241AD11D7581A3DB211DD5510|:|A672822C3EDBA077218AE37043297185481572B2 #
lump $-1 -1 $-1 $-1 $8 $0 #
transform $-1 -1 1 0 0 0 1 0 0 0 1 0 0 0 1 no_rotate no_reflect no_shear #
DXID-attrib $-1 -1 $-1 $-1 $1 @18 ASM_BODY_FROM_STEP @83 D0DA28EB1E49EDE241AD11D7581A3DB211DD5510|:|1817F654752E9CF1A78D11D3004C9A5611698275 #
lump $-1 -1 $-1 $-1 $9 $1 #
transform $-1 -1 1 0 0 0 1 0 0 0 1 0 0 0 1 no_rotate no_reflect no_shear #
shell $-1 -1 $-1 $-1 $-1 $10 $-1 $3 #
shell $-1 -1 $-1 $-1 $-1 $11 $-1 $6 #
face $12 -1 $-1 $13 $14 $8 $-1 $15 forward single #
face $16 -1 $-1 $17 $18 $9 $-1 $19 forward single #
truecolor-adesk-attrib $-1 -1 $20 $-1 $10 -1029660512 #
face $21 -1 $-1 $22 $23 $8 $-1 $24 forward single #
loop $-1 -1 $-1 $-1 $25 $10 #
cone-surface $-1 -1 $-1 0 0 -10 0 0 -1 1.500000000000000222 0 0 1 I I 0 1 1.500000000000000222 forward I I I I #
truecolor-adesk-attrib $-1 -1 $26 $-1 $11 -1029660512 #
face $27 -1 $-1 $28 $29 $9 $-1 $30 forward single #
loop $-1 -1 $-1 $-1 $31 $11 #
cone-surface $-1 -1 $-1 0 0 -8.221687836487030054 0 0 1 6.833684692558705437e-16 -5.580127018922190985 0 1 I I 0.8660254037844398178 0.4999999999999980016 5.580127018922190985 forward I I I I #
color-adesk-attrib $-1 -1 $32 $12 $10 253 #
truecolor-adesk-attrib $-1 -1 $33 $-1 $13 -1029660512 #
face $34 -1 $-1 $-1 $35 $8 $-1 $36 reversed single #
loop $-1 -1 $-1 $-1 $37 $13 #
plane-surface $-1 -1 $-1 0 0 -10 0 0 1 1 0 0 forward_v I I I I #
coedge $-1 -1 $-1 $38 $39 $40 $41 reversed $14 $-1 #
color-adesk-attrib $-1 -1 $42 $16 $11 253 #
truecolor-adesk-attrib $-1 -1 $43 $-1 $17 -1029660512 #
face $44 -1 $-1 $45 $46 $9 $-1 $47 forward single #
loop $-1 -1 $-1 $-1 $48 $17 #
cone-surface $-1 -1 $-1 0 0 -8.221687836487030054 0 0 1 0 5.580127018922190985 0 1 I I 0.8660254037844398178 0.4999999999999980016 5.580127018922190985 forward I I I I #
coedge $-1 -1 $-1 $49 $50 $51 $52 reversed $18 $-1 #
DXID-attrib $-1 -1 $-1 $20 $10 @18 ASM_FACE_FROM_STEP @15 step-1M-688-344 #
color-adesk-attrib $-1 -1 $53 $21 $13 253 #
truecolor-adesk-attrib $-1 -1 $54 $-1 $22 -1029660512 #
loop $-1 -1 $-1 $-1 $40 $22 #
plane-surface $-1 -1 $-1 0 0 -18 0 0 1 1 0 0 forward_v I I I I #
coedge $-1 -1 $-1 $37 $37 $55 $56 forward $23 $-1 #
coedge $-1 -1 $-1 $55 $25 $39 $57 forward $14 $-1 #
coedge $-1 -1 $-1 $25 $55 $38 $57 reversed $14 $-1 #
coedge $-1 -1 $-1 $40 $40 $25 $41 forward $35 $-1 #
edge $58 -1 $-1 $59 -3.141592653589793116 $59 3.141592653589793116 $25 $60 forward @7 unknown #
DXID-attrib $-1 -1 $-1 $26 $11 @18 ASM_FACE_FROM_STEP @15 step-1M-688-322 #
color-adesk-attrib $-1 -1 $61 $27 $17 253 #
truecolor-adesk-attrib $-1 -1 $62 $-1 $28 -1029660512 #
face $63 -1 $-1 $64 $65 $9 $-1 $66 forward single #
loop $-1 -1 $-1 $-1 $67 $28 #
cone-surface $-1 -1 $-1 0 0 -8.221687836487030054 0 0 1 0 5.580127018922190985 0 1 I I 0.8660254037844398178 0.4999999999999980016 5.580127018922190985 forward I I I I #
coedge $-1 -1 $-1 $68 $69 $70 $71 reversed $29 $-1 #
coedge $-1 -1 $-1 $50 $31 $72 $73 reversed $18 $-1 #
coedge $-1 -1 $-1 $31 $49 $74 $75 reversed $18 $-1 #
coedge $-1 -1 $-1 $76 $77 $31 $52 forward $78 $-1 #
edge $79 -1 $-1 $80 0.6585100810698280016 $81 0.9071462449875169476 $31 $82 forward @7 unknown #
DXID-attrib $-1 -1 $-1 $33 $13 @18 ASM_FACE_FROM_STEP @15 step-1M-688-345 #
color-adesk-attrib $-1 -1 $83 $34 $22 253 #
coedge $-1 -1 $-1 $39 $38 $37 $56 reversed $14 $-1 #
edge $84 -1 $-1 $85 -3.141592653589793116 $85 3.141592653589793116 $55 $86 forward @7 unknown #
edge $87 -1 $-1 $59 -5.333333333333333037 $85 0 $38 $88 forward @2 g2 #
truecolor-adesk-attrib $-1 -1 $89 $-1 $41 -1029660512 #
vertex $-1 -1 $-1 $41 $90 #
ellipse-curve $-1 -1 $-1 0 0 -18 0 0 -1 1.500000000000000222 0 0 1 I I #
DXID-attrib $-1 -1 $-1 $43 $17 @18 ASM_FACE_FROM_STEP @15 step-1M-688-323 #
color-adesk-attrib $-1 -1 $91 $44 $28 253 #
truecolor-adesk-attrib $-1 -1 $92 $-1 $45 -1029660512 #
face $93 -1 $-1 $94 $95 $9 $-1 $96 forward single #
loop $-1 -1 $-1 $-1 $97 $45 #
cone-surface $-1 -1 $-1 0 0 -8.221687836487030054 0 0 1 0 5.580127018922190985 0 1 I I 0.8660254037844398178 0.4999999999999980016 5.580127018922190985 forward I I I I #
coedge $-1 -1 $-1 $98 $99 $100 $101 reversed $46 $-1 #
coedge $-1 -1 $-1 $69 $48 $76 $102 reversed $29 $-1 #
coedge $-1 -1 $-1 $48 $68 $103 $104 reversed $29 $-1 #
coedge $-1 -1 $-1 $105 $106 $48 $71 forward $107 $-1 #
edge $108 -1 $-1 $109 0.6585100810698280016 $110 0.9071462449875169476 $48 $111 forward @7 unknown #
coedge $-1 -1 $-1 $112 $113 $49 $73 forward $114 $-1 #
edge $115 -1 $-1 $116 0.9071462449875169476 $80 1.155782408905210001 $49 $117 forward @7 unknown #
coedge $-1 -1 $-1 $118 $103 $50 $75 forward $119 $-1 #
edge $120 -1 $-1 $81 2.617993877991494855 $116 3.665191429188091377 $50 $121 forward @7 unknown #
coedge $-1 -1 $-1 $122 $51 $68 $102 forward $78 $-1 #
coedge $-1 -1 $-1 $51 $123 $112 $124 reversed $78 $-1 #
loop $-1 -1 $-1 $-1 $76 $125 #
truecolor-adesk-attrib $-1 -1 $126 $-1 $52 -1029660512 #
vertex $-1 -1 $-1 $52 $127 #
vertex $-1 -1 $-1 $52 $128 #
intcurve-curve $-1 -1 $-1 forward { exactcur full nurbs 2 open 2 
	0.6585100810698280016 2 0.9071462449875169476 2 
	0 -2.886751345948130432 -9.776709006307399363 1.196577320707119974 
	0.6698729810764083581 -2.500000000000810019 -9.999999999999220179 1.135399884873030008 
	1.25 -2.165063509461099933 -10 1 
	0 
	
	null_surface 
	null_surface 
	nullbs 
	nullbs 
	I I 
	0 
	0 
	0 
	F 1 F 0 } F 0.6585100810698280016 F 0.9071462449875169476 #
DXID-attrib $-1 -1 $-1 $54 $22 @18 ASM_FACE_FROM_STEP @15 step-1M-688-346 #
truecolor-adesk-attrib $-1 -1 $129 $-1 $56 -1029660512 #
vertex $-1 -1 $-1 $57 $130 #
ellipse-curve $-1 -1 $-1 0 0 -10 0 0 1 1.500000000000000222 0 0 1 I I #
truecolor-adesk-attrib $-1 -1 $131 $-1 $57 -1029660512 #
straight-curve $-1 -1 $-1 -1.500000000000000222 1.836970198721030181e-16 -10 0 0 1.500000000000000222 F -5.333333333333333037 F 0 #
color-adesk-attrib $-1 -1 $132 $58 $41 253 #
point $-1 -1 $-1 -1.500000000000000222 -1.836970198721030181e-16 -18 #
DXID-attrib $-1 -1 $-1 $62 $28 @18 ASM_FACE_FROM_STEP @15 step-1M-688-324 #
color-adesk-attrib $-1 -1 $133 $63 $45 253 #
truecolor-adesk-attrib $-1 -1 $134 $-1 $64 -1029660512 #
face $135 -1 $-1 $136 $137 $9 $-1 $138 forward single #
loop $-1 -1 $-1 $-1 $139 $64 #
cone-surface $-1 -1 $-1 0 0 -8.221687836487030054 0 0 1 0 5.580127018922190985 0 1 I I 0.8660254037844398178 0.4999999999999980016 5.580127018922190985 forward I I I I #
coedge $-1 -1 $-1 $140 $141 $142 $143 reversed $65 $-1 #
coedge $-1 -1 $-1 $99 $67 $105 $144 reversed $46 $-1 #
coedge $-1 -1 $-1 $67 $98 $145 $146 reversed $46 $-1 #
coedge $-1 -1 $-1 $142 $147 $67 $101 forward $148 $-1 #
edge $149 -1 $-1 $150 0.6585100810698270024 $151 0.9071462449875169476 $67 $152 forward @7 unknown #
edge $153 -1 $-1 $81 0.9071462449875169476 $109 1.155782408905210001 $68 $154 forward @7 unknown #
coedge $-1 -1 $-1 $74 $145 $69 $104 forward $119 $-1 #
edge $155 -1 $-1 $110 1.570796326794896558 $81 2.617993877991494855 $69 $156 forward @7 unknown #
coedge $-1 -1 $-1 $157 $70 $98 $144 forward $107 $-1 #
coedge $-1 -1 $-1 $70 $158 $122 $159 forward $107 $-1 #
loop $-1 -1 $-1 $-1 $105 $160 #
truecolor-adesk-attrib $-1 -1 $161 $-1 $71 -1029660512 #
vertex $-1 -1 $-1 $71 $162 #
vertex $-1 -1 $-1 $71 $163 #
intcurve-curve $-1 -1 $-1 forward { exactcur full nurbs 2 open 2 
	0.6585100810698280016 2 0.9071462449875169476 2 
	2.499999999999999556 -1.443375672974059887 -9.776709006307399363 1.196577320707119974 
	2.5 -0.6698729810794225026 -9.999999999999220179 1.135399884873030008 
	2.5 0 -10 1 
	0 
	
	null_surface 
	null_surface 
	nullbs 
	nullbs 
	I I 
	0 
	0 
	0 
	F 1 F 0 } F 0.6585100810698280016 F 0.9071462449875169476 #
coedge $-1 -1 $-1 $164 $72 $77 $124 forward $114 $-1 #
coedge $-1 -1 $-1 $72 $165 $166 $167 forward $114 $-1 #
loop $-1 -1 $-1 $-1 $113 $168 #
truecolor-adesk-attrib $-1 -1 $169 $-1 $73 -1029660512 #
vertex $-1 -1 $-1 $73 $170 #
intcurve-curve $-1 -1 $-1 forward { exactcur full nurbs 2 open 2 
	0.9071462449875169476 2 1.155782408905210001 2 
	-1.25 -2.165063509461099933 -10 1 
	-0.6698729810764109116 -2.500000000000810463 -9.999999999999218403 1.135399884873030008 
	0 -2.886751345948130432 -9.776709006307399363 1.196577320707119974 
	0 
	
	null_surface 
	null_surface 
	nullbs 
	nullbs 
	I I 
	0 
	0 
	0 
	F 1 F 0 } F 0.9071462449875169476 F 1.155782408905210001 #
coedge $-1 -1 $-1 $171 $74 $172 $173 forward $119 $-1 #
loop $-1 -1 $-1 $-1 $118 $174 #
truecolor-adesk-attrib $-1 -1 $175 $-1 $75 -1029660512 #
ellipse-curve $-1 -1 $-1 0 0 -10 0 0 -1 0 2.5 0 1 F 2.617993877991494855 F 3.665191429188091377 #
coedge $-1 -1 $-1 $176 $76 $106 $159 reversed $78 $-1 #
coedge $-1 -1 $-1 $77 $176 $177 $178 forward $78 $-1 #
edge $179 -1 $-1 $80 -0.9776709006307400252 $180 0.9776709006307400252 $112 $181 forward @7 unknown #
face $182 -1 $-1 $183 $78 $9 $-1 $184 forward single #
color-adesk-attrib $-1 -1 $185 $79 $52 253 #
point $-1 -1 $-1 0 -2.886751345948130432 -9.776709006307399363 #
point $-1 -1 $-1 1.25 -2.165063509461099933 -10 #
color-adesk-attrib $-1 -1 $186 $84 $56 253 #
point $-1 -1 $-1 -1.500000000000000222 -1.836970198721030181e-16 -10 #
color-adesk-attrib $-1 -1 $187 $87 $57 253 #
DXID-attrib $-1 -1 $-1 $89 $41 @18 ASM_EDGE_FROM_STEP @3 211 #
DXID-attrib $-1 -1 $-1 $92 $45 @18 ASM_FACE_FROM_STEP @15 step-1M-688-325 #
color-adesk-attrib $-1 -1 $188 $93 $64 253 #
truecolor-adesk-attrib $-1 -1 $189 $-1 $94 -1029660512 #
face $190 -1 $-1 $191 $148 $9 $-1 $192 forward single #
loop $-1 -1 $-1 $-1 $193 $94 #
cone-surface $-1 -1 $-1 0 0 -8.221687836487030054 0 0 1 0 5.580127018922190985 0 1 I I 0.8660254037844398178 0.4999999999999980016 5.580127018922190985 forward I I I I #
coedge $-1 -1 $-1 $194 $195 $196 $197 reversed $95 $-1 #
coedge $-1 -1 $-1 $141 $97 $198 $199 reversed $65 $-1 #
coedge $-1 -1 $-1 $97 $140 $200 $201 reversed $65 $-1 #
coedge $-1 -1 $-1 $202 $100 $97 $143 forward $148 $-1 #
edge $203 -1 $-1 $151 0.9071462449875169476 $204 1.155782408905210001 $97 $205 forward @7 unknown #
edge $206 -1 $-1 $110 0.9071462449875169476 $150 1.155782408905210001 $98 $207 forward @7 unknown #
coedge $-1 -1 $-1 $103 $198 $99 $146 forward $119 $-1 #
edge $208 -1 $-1 $151 0.5235987755982981495 $110 1.570796326794896558 $99 $209 forward @7 unknown #
coedge $-1 -1 $-1 $100 $210 $157 $211 reversed $148 $-1 #
loop $-1 -1 $-1 $-1 $100 $136 #
truecolor-adesk-attrib $-1 -1 $212 $-1 $101 -1029660512 #
vertex $-1 -1 $-1 $101 $213 #
vertex $-1 -1 $-1 $101 $214 #
intcurve-curve $-1 -1 $-1 forward { exactcur full nurbs 2 open 2 
	0.6585100810698270024 2 0.9071462449875169476 2 
	2.499999999999999556 1.443375672974059887 -9.776709006307399363 1.196577320707119974 
	1.830127018923589866 1.830127018921390514 -9.999999999999220179 1.135399884873030008 
	1.25 2.165063509461099933 -10 1 
	0 
	
	null_surface 
	null_surface 
	nullbs 
	nullbs 
	I I 
	0 
	0 
	0 
	F 1 F 0 } F 0.6585100810698270024 F 0.9071462449875169476 #
truecolor-adesk-attrib $-1 -1 $215 $-1 $102 -1029660512 #
intcurve-curve $-1 -1 $-1 forward { exactcur full nurbs 2 open 2 
	0.9071462449875169476 2 1.155782408905210001 2 
	1.25 -2.165063509461099933 -10 1 
	1.83012701892359031 -1.83012701892139007 -9.999999999999218403 1.135399884873030008 
	2.499999999999999556 -1.443375672974059887 -9.776709006307399363 1.196577320707119974 
	0 
	
	null_surface 
	null_surface 
	nullbs 
	nullbs 
	I I 
	0 
	0 
	0 
	F 1 F 0 } F 0.9071462449875169476 F 1.155782408905210001 #
truecolor-adesk-attrib $-1 -1 $216 $-1 $104 -1029660512 #
ellipse-curve $-1 -1 $-1 0 0 -10 0 0 -1 0 2.5 0 1 F 1.570796326794896558 F 2.617993877991494855 #
coedge $-1 -1 $-1 $217 $105 $147 $211 forward $107 $-1 #
coedge $-1 -1 $-1 $106 $217 $218 $219 forward $107 $-1 #
edge $220 -1 $-1 $221 -0.9776709006307400252 $109 0.9776709006307400252 $106 $222 forward @7 unknown #
face $223 -1 $-1 $224 $107 $9 $-1 $225 forward single #
color-adesk-attrib $-1 -1 $226 $108 $71 253 #
point $-1 -1 $-1 2.5 -1.443375672974060109 -9.776709006307399363 #
point $-1 -1 $-1 2.5 0 -10 #
coedge $-1 -1 $-1 $227 $112 $228 $229 forward $114 $-1 #
coedge $-1 -1 $-1 $113 $227 $230 $231 reversed $114 $-1 #
coedge $-1 -1 $-1 $193 $172 $113 $167 reversed $137 $-1 #
edge $232 -1 $-1 $233 0.6585100810698270024 $116 0.9071462449875169476 $166 $234 forward @7 unknown #
face $235 -1 $-1 $236 $114 $9 $-1 $237 forward single #
color-adesk-attrib $-1 -1 $238 $115 $73 253 #
point $-1 -1 $-1 -1.25 -2.165063509461099933 -10 #
coedge $-1 -1 $-1 $198 $118 $194 $239 forward $119 $-1 #
coedge $-1 -1 $-1 $166 $193 $118 $173 reversed $137 $-1 #
edge $240 -1 $-1 $116 -2.617993877991494855 $241 -1.570796326794896558 $172 $242 forward @7 unknown #
face $243 -1 $-1 $125 $119 $9 $-1 $244 forward single #
color-adesk-attrib $-1 -1 $245 $120 $75 253 #
coedge $-1 -1 $-1 $123 $122 $246 $247 forward $78 $-1 #
coedge $-1 -1 $-1 $248 $228 $123 $178 reversed $249 $-1 #
edge $250 -1 $-1 $251 0.9071462449875169476 $180 1.155782408905210001 $177 $252 forward @7 unknown #
truecolor-adesk-attrib $-1 -1 $253 $-1 $124 -1029660512 #
vertex $-1 -1 $-1 $124 $254 #
straight-curve $-1 -1 $-1 0 -2.886751345948130432 0 0 0 10 F -0.9776709006307400252 F 0.9776709006307400252 #
truecolor-adesk-attrib $-1 -1 $255 $-1 $125 -1029660512 #
face $256 -1 $-1 $-1 $257 $9 $-1 $258 forward single #
plane-surface $-1 -1 $-1 0 -2.886751345948130432 0 0.499999999999999889 -0.8660254037844388186 0 0.8660254037844389297 0.499999999999999889 0 forward_v I I I I #
DXID-attrib $-1 -1 $-1 $126 $52 @18 ASM_EDGE_FROM_STEP @3 166 #
DXID-attrib $-1 -1 $-1 $129 $56 @18 ASM_EDGE_FROM_STEP @3 213 #
DXID-attrib $-1 -1 $-1 $131 $57 @18 ASM_EDGE_FROM_STEP @3 212 #
DXID-attrib $-1 -1 $-1 $134 $64 @18 ASM_FACE_FROM_STEP @15 step-1M-688-326 #
color-adesk-attrib $-1 -1 $259 $135 $94 253 #
truecolor-adesk-attrib $-1 -1 $260 $-1 $136 -1029660512 #
face $261 -1 $-1 $262 $263 $9 $-1 $264 forward single #
plane-surface $-1 -1 $-1 2.5 1.443375672974060109 0 0.499999999999999889 0.8660254037844388186 0 -0.8660254037844389297 0.499999999999999889 0 forward_v I I I I #
coedge $-1 -1 $-1 $172 $166 $265 $266 reversed $137 $-1 #
coedge $-1 -1 $-1 $195 $139 $171 $239 reversed $95 $-1 #
coedge $-1 -1 $-1 $139 $194 $267 $268 reversed $95 $-1 #
coedge $-1 -1 $-1 $269 $200 $139 $197 forward $263 $-1 #
edge $270 -1 $-1 $271 0.9071462449875169476 $272 1.155782408905210001 $139 $273 forward @7 unknown #
coedge $-1 -1 $-1 $145 $171 $140 $199 forward $119 $-1 #
edge $274 -1 $-1 $271 -0.5235987755982981495 $151 0.5235987755982981495 $140 $275 forward @7 unknown #
coedge $-1 -1 $-1 $196 $276 $141 $201 forward $263 $-1 #
edge $277 -1 $-1 $204 0.6585100810698280016 $271 0.9071462449875169476 $141 $278 forward @7 unknown #
coedge $-1 -1 $-1 $279 $142 $276 $280 forward $148 $-1 #
truecolor-adesk-attrib $-1 -1 $281 $-1 $143 -1029660512 #
vertex $-1 -1 $-1 $143 $282 #
intcurve-curve $-1 -1 $-1 forward { exactcur full nurbs 2 open 2 
	0.9071462449875169476 2 1.155782408905210001 2 
	1.25 2.165063509461099933 -10 1 
	0.6698729810764109116 2.500000000000810463 -9.999999999999218403 1.135399884873030008 
	0 2.886751345948130432 -9.776709006307399363 1.196577320707119974 
	0 
	
	null_surface 
	null_surface 
	nullbs 
	nullbs 
	I I 
	0 
	0 
	0 
	F 1 F 0 } F 0.9071462449875169476 F 1.155782408905210001 #
truecolor-adesk-attrib $-1 -1 $283 $-1 $144 -1029660512 #
intcurve-curve $-1 -1 $-1 forward { exactcur full nurbs 2 open 2 
	0.9071462449875169476 2 1.155782408905210001 2 
	2.5 0 -10 1 
	2.499999999999999556 0.6698729810794177286 -9.999999999999218403 1.135399884873030008 
	2.499999999999999556 1.443375672974059887 -9.776709006307399363 1.196577320707119974 
	0 
	
	null_surface 
	null_surface 
	nullbs 
	nullbs 
	I I 
	0 
	0 
	0 
	F 1 F 0 } F 0.9071462449875169476 F 1.155782408905210001 #
truecolor-adesk-attrib $-1 -1 $284 $-1 $146 -1029660512 #
ellipse-curve $-1 -1 $-1 0 0 -10 0 0 -1 0 2.5 0 1 F 0.5235987755982981495 F 1.570796326794896558 #
coedge $-1 -1 $-1 $147 $279 $285 $286 forward $148 $-1 #
edge $287 -1 $-1 $150 -0.9776709006307400252 $288 0.9776709006307400252 $147 $289 forward @7 unknown #
color-adesk-attrib $-1 -1 $290 $149 $101 253 #
point $-1 -1 $-1 2.5 1.443375672974060109 -9.776709006307399363 #
point $-1 -1 $-1 1.25 2.165063509461099933 -10 #
color-adesk-attrib $-1 -1 $291 $153 $102 253 #
color-adesk-attrib $-1 -1 $292 $155 $104 253 #
coedge $-1 -1 $-1 $158 $157 $293 $294 forward $107 $-1 #
coedge $-1 -1 $-1 $295 $246 $158 $219 reversed $296 $-1 #
edge $297 -1 $-1 $298 0.9071462449875169476 $221 1.155782408905210001 $218 $299 forward @7 unknown #
truecolor-adesk-attrib $-1 -1 $300 $-1 $159 -1029660512 #
vertex $-1 -1 $-1 $219 $301 #
straight-curve $-1 -1 $-1 2.5 -1.443375672974060109 0 0 0 -10 F -0.9776709006307400252 F 0.9776709006307400252 #
truecolor-adesk-attrib $-1 -1 $302 $-1 $160 -1029660512 #
face $303 -1 $-1 $304 $305 $9 $-1 $306 reversed single #
plane-surface $-1 -1 $-1 2.5 -1.443375672974060109 0 1 0 0 0 1 0 forward_v I I I I #
DXID-attrib $-1 -1 $-1 $161 $71 @18 ASM_EDGE_FROM_STEP @3 169 #
coedge $-1 -1 $-1 $165 $164 $307 $308 forward $114 $-1 #
coedge $-1 -1 $-1 $177 $248 $164 $229 reversed $249 $-1 #
edge $309 -1 $-1 $180 0.6585100810698260032 $310 0.9071462449875169476 $164 $311 forward @7 unknown #
coedge $-1 -1 $-1 $312 $265 $165 $231 forward $313 $-1 #
edge $314 -1 $-1 $233 -0.9776709006307400252 $315 0.9776709006307400252 $230 $316 forward @7 unknown #
truecolor-adesk-attrib $-1 -1 $317 $-1 $167 -1029660512 #
vertex $-1 -1 $-1 $266 $318 #
intcurve-curve $-1 -1 $-1 forward { exactcur full nurbs 2 open 2 
	0.6585100810698270024 2 0.9071462449875169476 2 
	-2.499999999999999556 -1.443375672974059887 -9.776709006307399363 1.196577320707119974 
	-1.830127018923589866 -1.830127018921390514 -9.999999999999220179 1.135399884873030008 
	-1.25 -2.165063509461099933 -10 1 
	0 
	
	null_surface 
	null_surface 
	nullbs 
	nullbs 
	I I 
	0 
	0 
	0 
	F 1 F 0 } F 0.6585100810698270024 F 0.9071462449875169476 #
truecolor-adesk-attrib $-1 -1 $319 $-1 $168 -1029660512 #
face $320 -1 $-1 $321 $249 $9 $-1 $322 forward single #
plane-surface $-1 -1 $-1 -2.5 -1.443375672974060109 0 -0.499999999999999889 -0.8660254037844388186 0 0.8660254037844389297 -0.499999999999999889 0 forward_v I I I I #
DXID-attrib $-1 -1 $-1 $169 $73 @18 ASM_EDGE_FROM_STEP @3 167 #
edge $323 -1 $-1 $241 -1.570796326794896558 $271 -0.5235987755982981495 $194 $324 forward @7 unknown #
truecolor-adesk-attrib $-1 -1 $325 $-1 $173 -1029660512 #
vertex $-1 -1 $-1 $239 $326 #
ellipse-curve $-1 -1 $-1 0 0 -10 0 0 -1 0 2.5 0 1 F -2.617993877991494855 F -1.570796326794896558 #
truecolor-adesk-attrib $-1 -1 $327 $-1 $174 -1029660512 #
plane-surface $-1 -1 $-1 0 0 -10 0 0 -1 -1 0 0 forward_v I I I I #
DXID-attrib $-1 -1 $-1 $175 $75 @18 ASM_EDGE_FROM_STEP @3 168 #
coedge $-1 -1 $-1 $218 $295 $176 $247 reversed $296 $-1 #
edge $328 -1 $-1 $221 0.65851008106983 $251 0.9071462449875169476 $246 $329 forward @7 unknown #
coedge $-1 -1 $-1 $228 $177 $330 $331 reversed $249 $-1 #
loop $-1 -1 $-1 $-1 $228 $236 #
truecolor-adesk-attrib $-1 -1 $332 $-1 $178 -1029660512 #
vertex $-1 -1 $-1 $178 $333 #
intcurve-curve $-1 -1 $-1 forward { exactcur full nurbs 2 open 2 
	0.9071462449875169476 2 1.155782408905210001 2 
	1.25 -2.165063509461099933 10 1 
	0.6698729810764092463 -2.500000000000810019 9.999999999999218403 1.135399884873030008 
	0 -2.886751345948130432 9.776709006307399363 1.196577320707119974 
	0 
	
	null_surface 
	null_surface 
	nullbs 
	nullbs 
	I I 
	0 
	0 
	0 
	F 1 F 0 } F 0.9071462449875169476 F 1.155782408905210001 #
color-adesk-attrib $-1 -1 $334 $179 $124 253 #
point $-1 -1 $-1 0 -2.886751345948130432 9.776709006307399363 #
color-adesk-attrib $-1 -1 $335 $182 $125 253 #
truecolor-adesk-attrib $-1 -1 $336 $-1 $183 -1029660512 #
loop $-1 -1 $-1 $337 $338 $183 #
plane-surface $-1 -1 $-1 0 0 10 0 0 1 1 0 0 forward_v I I I I #
DXID-attrib $-1 -1 $-1 $189 $94 @18 ASM_FACE_FROM_STEP @15 step-1M-688-327 #
color-adesk-attrib $-1 -1 $339 $190 $136 253 #
truecolor-adesk-attrib $-1 -1 $340 $-1 $191 -1029660512 #
face $341 -1 $-1 $168 $313 $9 $-1 $342 forward single #
loop $-1 -1 $-1 $-1 $200 $191 #
plane-surface $-1 -1 $-1 0 2.886751345948130432 0 -0.499999999999999889 0.8660254037844388186 0 -0.8660254037844389297 -0.499999999999999889 0 forward_v I I I I #
coedge $-1 -1 $-1 $230 $267 $193 $266 forward $313 $-1 #
edge $343 -1 $-1 $241 0.9071462449875169476 $233 1.155782408905210001 $193 $344 forward @7 unknown #
coedge $-1 -1 $-1 $265 $345 $195 $268 forward $313 $-1 #
edge $346 -1 $-1 $272 0.6585100810698280016 $241 0.9071462449875169476 $195 $347 forward @7 unknown #
coedge $-1 -1 $-1 $348 $196 $345 $349 forward $263 $-1 #
truecolor-adesk-attrib $-1 -1 $350 $-1 $197 -1029660512 #
vertex $-1 -1 $-1 $199 $351 #
vertex $-1 -1 $-1 $197 $352 #
intcurve-curve $-1 -1 $-1 forward { exactcur full nurbs 2 open 2 
	0.9071462449875169476 2 1.155782408905210001 2 
	-1.25 2.165063509461099933 -10 1 
	-1.83012701892359031 1.83012701892139007 -9.999999999999218403 1.135399884873030008 
	-2.499999999999999556 1.443375672974059887 -9.776709006307399363 1.196577320707119974 
	0 
	
	null_surface 
	null_surface 
	nullbs 
	nullbs 
	I I 
	0 
	0 
	0 
	F 1 F 0 } F 0.9071462449875169476 F 1.155782408905210001 #
truecolor-adesk-attrib $-1 -1 $353 $-1 $199 -1029660512 #
ellipse-curve $-1 -1 $-1 0 0 -10 0 0 -1 0 2.5 0 1 F -0.5235987755982981495 F 0.5235987755982981495 #
coedge $-1 -1 $-1 $200 $354 $202 $280 reversed $263 $-1 #
truecolor-adesk-attrib $-1 -1 $355 $-1 $201 -1029660512 #
intcurve-curve $-1 -1 $-1 forward { exactcur full nurbs 2 open 2 
	0.6585100810698280016 2 0.9071462449875169476 2 
	0 2.886751345948130432 -9.776709006307399363 1.196577320707119974 
	-0.6698729810764083581 2.500000000000810019 -9.999999999999220179 1.135399884873030008 
	-1.25 2.165063509461099933 -10 1 
	0 
	
	null_surface 
	null_surface 
	nullbs 
	nullbs 
	I I 
	0 
	0 
	0 
	F 1 F 0 } F 0.6585100810698280016 F 0.9071462449875169476 #
coedge $-1 -1 $-1 $210 $202 $356 $357 forward $148 $-1 #
edge $358 -1 $-1 $204 -0.9776709006307400252 $359 0.9776709006307400252 $202 $360 forward @7 unknown #
color-adesk-attrib $-1 -1 $361 $203 $143 253 #
point $-1 -1 $-1 0 2.886751345948130432 -9.776709006307399363 #
color-adesk-attrib $-1 -1 $362 $206 $144 253 #
color-adesk-attrib $-1 -1 $363 $208 $146 253 #
coedge $-1 -1 $-1 $364 $293 $210 $286 reversed $365 $-1 #
edge $366 -1 $-1 $367 0.9071462449875169476 $288 1.155782408905210001 $210 $368 forward @7 unknown #
truecolor-adesk-attrib $-1 -1 $369 $-1 $211 -1029660512 #
vertex $-1 -1 $-1 $286 $370 #
straight-curve $-1 -1 $-1 2.5 1.443375672974060109 0 0 0 10 F -0.9776709006307400252 F 0.9776709006307400252 #
DXID-attrib $-1 -1 $-1 $212 $101 @18 ASM_EDGE_FROM_STEP @3 172 #
DXID-attrib $-1 -1 $-1 $215 $102 @18 ASM_EDGE_FROM_STEP @3 170 #
DXID-attrib $-1 -1 $-1 $216 $104 @18 ASM_EDGE_FROM_STEP @3 171 #
coedge $-1 -1 $-1 $285 $364 $217 $294 reversed $365 $-1 #
edge $371 -1 $-1 $288 0.6585100810698280016 $298 0.9071462449875169476 $293 $372 forward @7 unknown #
coedge $-1 -1 $-1 $246 $218 $338 $373 reversed $296 $-1 #
loop $-1 -1 $-1 $-1 $218 $374 #
truecolor-adesk-attrib $-1 -1 $375 $-1 $219 -1029660512 #
vertex $-1 -1 $-1 $376 $377 #
intcurve-curve $-1 -1 $-1 forward { exactcur full nurbs 2 open 2 
	0.9071462449875169476 2 1.155782408905210001 2 
	2.5 0 10 1 
	2.499999999999999556 -0.6698729810794177286 9.999999999999218403 1.135399884873030008 
	2.499999999999999556 -1.443375672974059887 9.776709006307399363 1.196577320707119974 
	0 
	
	null_surface 
	null_surface 
	nullbs 
	nullbs 
	I I 
	0 
	0 
	0 
	F 1 F 0 } F 0.9071462449875169476 F 1.155782408905210001 #
color-adesk-attrib $-1 -1 $378 $220 $159 253 #
point $-1 -1 $-1 2.5 -1.443375672974060109 9.776709006307399363 #
color-adesk-attrib $-1 -1 $379 $223 $160 253 #
truecolor-adesk-attrib $-1 -1 $380 $-1 $224 -1029660512 #
face $381 -1 $-1 $174 $382 $9 $-1 $383 forward single #
loop $-1 -1 $-1 $-1 $384 $224 #
cone-surface $-1 -1 $-1 0 0 10 0 0 -1 1.500000000000000222 0 0 1 I I 0 1 1.500000000000000222 forward I I I I #
coedge $-1 -1 $-1 $385 $386 $227 $308 reversed $387 $-1 #
edge $388 -1 $-1 $310 0.9071462449875169476 $315 1.155782408905210001 $227 $389 forward @7 unknown #
truecolor-adesk-attrib $-1 -1 $390 $-1 $229 -1029660512 #
vertex $-1 -1 $-1 $229 $391 #
intcurve-curve $-1 -1 $-1 forward { exactcur full nurbs 2 open 2 
	0.6585100810698260032 2 0.9071462449875169476 2 
	0 -2.886751345948130432 9.776709006307399363 1.196577320707119974 
	-0.6698729810764145753 -2.500000000000799361 9.999999999999220179 1.135399884873030008 
	-1.25 -2.165063509461099933 10 1 
	0 
	
	null_surface 
	null_surface 
	nullbs 
	nullbs 
	I I 
	0 
	0 
	0 
	F 1 F 0 } F 0.6585100810698260032 F 0.9071462449875169476 #
coedge $-1 -1 $-1 $392 $230 $386 $393 forward $313 $-1 #
loop $-1 -1 $-1 $-1 $267 $262 #
truecolor-adesk-attrib $-1 -1 $394 $-1 $231 -1029660512 #
vertex $-1 -1 $-1 $231 $395 #
straight-curve $-1 -1 $-1 -2.5 -1.443375672974060109 0 0 0 10 F -0.9776709006307400252 F 0.9776709006307400252 #
color-adesk-attrib $-1 -1 $396 $232 $167 253 #
point $-1 -1 $-1 -2.5 -1.443375672974060109 -9.776709006307399363 #
color-adesk-attrib $-1 -1 $397 $235 $168 253 #
truecolor-adesk-attrib $-1 -1 $398 $-1 $236 -1029660512 #
face $399 -1 $-1 $400 $387 $9 $-1 $401 forward single #
cone-surface $-1 -1 $-1 0 0 8.221687836487030054 0 0 -1 -6.833684692558705437e-16 -5.580127018922190985 -0 1 I I 0.8660254037844398178 0.4999999999999980016 5.580127018922190985 forward I I I I #
truecolor-adesk-attrib $-1 -1 $402 $-1 $239 -1029660512 #
ellipse-curve $-1 -1 $-1 0 0 -10 0 0 -1 0 2.5 0 1 F -1.570796326794896558 F -0.5235987755982981495 #
color-adesk-attrib $-1 -1 $403 $240 $173 253 #
point $-1 -1 $-1 -2.5 0 -10 #
color-adesk-attrib $-1 -1 $404 $243 $174 253 #
truecolor-adesk-attrib $-1 -1 $405 $-1 $247 -1029660512 #
intcurve-curve $-1 -1 $-1 forward { exactcur full nurbs 2 open 2 
	0.65851008106983 2 0.9071462449875169476 2 
	2.499999999999999556 -1.443375672974059887 9.776709006307399363 1.196577320707119974 
	1.830127018923599636 -1.8301270189213803 9.999999999999220179 1.135399884873030008 
	1.25 -2.165063509461099933 10 1 
	0 
	
	null_surface 
	null_surface 
	nullbs 
	nullbs 
	I I 
	0 
	0 
	0 
	F 1 F 0 } F 0.65851008106983 F 0.9071462449875169476 #
coedge $-1 -1 $-1 $338 $406 $248 $331 forward $257 $-1 #
edge $407 -1 $-1 $310 2.617993877991494855 $251 3.665191429188091377 $248 $408 forward @7 unknown #
color-adesk-attrib $-1 -1 $409 $250 $178 253 #
point $-1 -1 $-1 1.25 -2.165063509461099933 10 #
DXID-attrib $-1 -1 $-1 $253 $124 @18 ASM_EDGE_FROM_STEP @3 194 #
DXID-attrib $-1 -1 $-1 $255 $125 @18 ASM_FACE_FROM_STEP @15 step-1M-688-342 #
color-adesk-attrib $-1 -1 $410 $256 $183 253 #
loop $-1 -1 $-1 $-1 $411 $183 #
coedge $-1 -1 $-1 $412 $330 $295 $373 forward $257 $-1 #
DXID-attrib $-1 -1 $-1 $260 $136 @18 ASM_FACE_FROM_STEP @15 step-1M-688-328 #
color-adesk-attrib $-1 -1 $413 $261 $191 253 #
truecolor-adesk-attrib $-1 -1 $414 $-1 $262 -1029660512 #
plane-surface $-1 -1 $-1 -2.5 1.443375672974060109 0 -1 0 0 0 -1 0 forward_v I I I I #
truecolor-adesk-attrib $-1 -1 $415 $-1 $266 -1029660512 #
intcurve-curve $-1 -1 $-1 forward { exactcur full nurbs 2 open 2 
	0.9071462449875169476 2 1.155782408905210001 2 
	-2.5 0 -10 1 
	-2.499999999999999556 -0.6698729810794177286 -9.999999999999218403 1.135399884873030008 
	-2.499999999999999556 -1.443375672974059887 -9.776709006307399363 1.196577320707119974 
	0 
	
	null_surface 
	null_surface 
	nullbs 
	nullbs 
	I I 
	0 
	0 
	0 
	F 1 F 0 } F 0.9071462449875169476 F 1.155782408905210001 #
coedge $-1 -1 $-1 $267 $392 $269 $349 reversed $313 $-1 #
truecolor-adesk-attrib $-1 -1 $416 $-1 $268 -1029660512 #
intcurve-curve $-1 -1 $-1 forward { exactcur full nurbs 2 open 2 
	0.6585100810698280016 2 0.9071462449875169476 2 
	-2.499999999999999556 1.443375672974059887 -9.776709006307399363 1.196577320707119974 
	-2.5 0.6698729810794225026 -9.999999999999220179 1.135399884873030008 
	-2.5 0 -10 1 
	0 
	
	null_surface 
	null_surface 
	nullbs 
	nullbs 
	I I 
	0 
	0 
	0 
	F 1 F 0 } F 0.6585100810698280016 F 0.9071462449875169476 #
coedge $-1 -1 $-1 $354 $269 $417 $418 forward $263 $-1 #
edge $419 -1 $-1 $272 -0.9776709006307400252 $420 0.9776709006307400252 $269 $421 forward @7 unknown #
color-adesk-attrib $-1 -1 $422 $270 $197 253 #
point $-1 -1 $-1 -1.25 2.165063509461099933 -10 #
point $-1 -1 $-1 -2.5 1.443375672974060109 -9.776709006307399363 #
color-adesk-attrib $-1 -1 $423 $274 $199 253 #
coedge $-1 -1 $-1 $276 $348 $424 $425 forward $263 $-1 #
color-adesk-attrib $-1 -1 $426 $277 $201 253 #
coedge $-1 -1 $-1 $424 $427 $279 $357 reversed $428 $-1 #
edge $429 -1 $-1 $359 0.6585100810698260032 $367 0.9071462449875169476 $279 $430 forward @7 unknown #
truecolor-adesk-attrib $-1 -1 $431 $-1 $280 -1029660512 #
vertex $-1 -1 $-1 $280 $432 #
straight-curve $-1 -1 $-1 0 2.886751345948130432 0 0 0 10 F -0.9776709006307400252 F 0.9776709006307400252 #
DXID-attrib $-1 -1 $-1 $281 $143 @18 ASM_EDGE_FROM_STEP @3 175 #
DXID-attrib $-1 -1 $-1 $283 $144 @18 ASM_EDGE_FROM_STEP @3 173 #
DXID-attrib $-1 -1 $-1 $284 $146 @18 ASM_EDGE_FROM_STEP @3 174 #
coedge $-1 -1 $-1 $293 $285 $412 $376 reversed $365 $-1 #
loop $-1 -1 $-1 $-1 $285 $433 #
truecolor-adesk-attrib $-1 -1 $434 $-1 $286 -1029660512 #
vertex $-1 -1 $-1 $357 $435 #
intcurve-curve $-1 -1 $-1 forward { exactcur full nurbs 2 open 2 
	0.9071462449875169476 2 1.155782408905210001 2 
	1.25 2.165063509461099933 10 1 
	1.83012701892359031 1.83012701892139007 9.999999999999218403 1.13539988487304 
	2.499999999999999556 1.443375672974059887 9.776709006307399363 1.196577320707119974 
	0 
	
	null_surface 
	null_surface 
	nullbs 
	nullbs 
	I I 
	0 
	0 
	0 
	F 1 F 0 } F 0.9071462449875169476 F 1.155782408905210001 #
color-adesk-attrib $-1 -1 $436 $287 $211 253 #
point $-1 -1 $-1 2.5 1.443375672974060109 9.776709006307399363 #
truecolor-adesk-attrib $-1 -1 $437 $-1 $294 -1029660512 #
intcurve-curve $-1 -1 $-1 forward { exactcur full nurbs 2 open 2 
	0.6585100810698280016 2 0.9071462449875169476 2 
	2.499999999999999556 1.443375672974059887 9.776709006307399363 1.196577320707119974 
	2.5 0.6698729810794225026 9.999999999999220179 1.135399884873030008 
	2.5 0 10 1 
	0 
	
	null_surface 
	null_surface 
	nullbs 
	nullbs 
	I I 
	0 
	0 
	0 
	F 1 F 0 } F 0.6585100810698280016 F 0.9071462449875169476 #
edge $438 -1 $-1 $251 -2.617993877991494855 $298 -1.570796326794896558 $295 $439 forward @7 unknown #
face $440 -1 $-1 $160 $296 $9 $-1 $441 forward single #
color-adesk-attrib $-1 -1 $442 $297 $219 253 #
edge $443 -1 $-1 $298 -1.570796326794896558 $367 -0.5235987755982981495 $364 $444 forward @7 unknown #
point $-1 -1 $-1 2.5 0 10 #
DXID-attrib $-1 -1 $-1 $300 $159 @18 ASM_EDGE_FROM_STEP @3 207 #
DXID-attrib $-1 -1 $-1 $302 $160 @18 ASM_FACE_FROM_STEP @15 step-1M-688-338 #
color-adesk-attrib $-1 -1 $445 $303 $224 253 #
truecolor-adesk-attrib $-1 -1 $446 $-1 $304 -1029660512 #
loop $-1 -1 $-1 $-1 $447 $304 #
plane-surface $-1 -1 $-1 0 0 0 0 0 1 1 0 0 forward_v I I I I #
coedge $-1 -1 $-1 $448 $449 $411 $450 reversed $305 $-1 #
coedge $-1 -1 $-1 $386 $307 $406 $451 reversed $387 $-1 #
coedge $-1 -1 $-1 $307 $385 $312 $393 reversed $387 $-1 #
loop $-1 -1 $-1 $-1 $386 $321 #
truecolor-adesk-attrib $-1 -1 $452 $-1 $308 -1029660512 #
intcurve-curve $-1 -1 $-1 forward { exactcur full nurbs 2 open 2 
	0.9071462449875169476 2 1.155782408905210001 2 
	-1.25 -2.165063509461099933 10 1 
	-1.83012701892359031 -1.83012701892139007 9.999999999999218403 1.13539988487304 
	-2.499999999999999556 -1.443375672974059887 9.776709006307399363 1.196577320707119974 
	0 
	
	null_surface 
	null_surface 
	nullbs 
	nullbs 
	I I 
	0 
	0 
	0 
	F 1 F 0 } F 0.9071462449875169476 F 1.155782408905210001 #
color-adesk-attrib $-1 -1 $453 $309 $229 253 #
point $-1 -1 $-1 -1.25 -2.165063509461099933 10 #
coedge $-1 -1 $-1 $345 $312 $454 $455 forward $313 $-1 #
edge $456 -1 $-1 $315 0.6585100810698280016 $457 0.9071462449875169476 $312 $458 forward @7 unknown #
color-adesk-attrib $-1 -1 $459 $314 $231 253 #
point $-1 -1 $-1 -2.5 -1.443375672974060109 9.776709006307399363 #
DXID-attrib $-1 -1 $-1 $317 $167 @18 ASM_EDGE_FROM_STEP @3 183 #
DXID-attrib $-1 -1 $-1 $319 $168 @18 ASM_FACE_FROM_STEP @15 step-1M-688-331 #
color-adesk-attrib $-1 -1 $460 $320 $236 253 #
truecolor-adesk-attrib $-1 -1 $461 $-1 $321 -1029660512 #
face $462 -1 $-1 $463 $464 $9 $-1 $465 forward single #
cone-surface $-1 -1 $-1 0 0 8.221687836487030054 0 0 -1 0 5.580127018922190985 0 1 I I 0.8660254037844398178 0.4999999999999980016 5.580127018922190985 forward I I I I #
color-adesk-attrib $-1 -1 $466 $323 $239 253 #
DXID-attrib $-1 -1 $-1 $325 $173 @18 ASM_EDGE_FROM_STEP @3 182 #
DXID-attrib $-1 -1 $-1 $327 $174 @18 ASM_FACE_FROM_STEP @15 step-1M-688-341 #
color-adesk-attrib $-1 -1 $467 $328 $247 253 #
coedge $-1 -1 $-1 $330 $468 $385 $451 forward $257 $-1 #
truecolor-adesk-attrib $-1 -1 $469 $-1 $331 -1029660512 #
ellipse-curve $-1 -1 $-1 0 0 10 0 0 1 0 2.5 0 1 F 2.617993877991494855 F 3.665191429188091377 #
DXID-attrib $-1 -1 $-1 $332 $178 @18 ASM_EDGE_FROM_STEP @3 197 #
DXID-attrib $-1 -1 $-1 $336 $183 @18 ASM_FACE_FROM_STEP @15 step-1M-688-343 #
coedge $-1 -1 $-1 $411 $411 $384 $450 forward $337 $-1 #
coedge $-1 -1 $-1 $470 $338 $364 $376 forward $257 $-1 #
DXID-attrib $-1 -1 $-1 $340 $191 @18 ASM_FACE_FROM_STEP @15 step-1M-688-329 #
color-adesk-attrib $-1 -1 $471 $341 $262 253 #
color-adesk-attrib $-1 -1 $472 $343 $266 253 #
color-adesk-attrib $-1 -1 $473 $346 $268 253 #
coedge $-1 -1 $-1 $454 $474 $348 $418 reversed $464 $-1 #
edge $475 -1 $-1 $420 0.65851008106983 $476 0.9071462449875169476 $348 $477 forward @7 unknown #
truecolor-adesk-attrib $-1 -1 $478 $-1 $349 -1029660512 #
vertex $-1 -1 $-1 $349 $479 #
straight-curve $-1 -1 $-1 -2.5 1.443375672974060109 0 0 0 10 F -0.9776709006307400252 F 0.9776709006307400252 #
DXID-attrib $-1 -1 $-1 $350 $197 @18 ASM_EDGE_FROM_STEP @3 178 #
DXID-attrib $-1 -1 $-1 $353 $199 @18 ASM_EDGE_FROM_STEP @3 176 #
coedge $-1 -1 $-1 $427 $356 $354 $425 reversed $428 $-1 #
edge $480 -1 $-1 $476 0.9071462449875169476 $359 1.155782408905210001 $354 $481 forward @7 unknown #
DXID-attrib $-1 -1 $-1 $355 $201 @18 ASM_EDGE_FROM_STEP @3 177 #
coedge $-1 -1 $-1 $356 $424 $470 $482 reversed $428 $-1 #
loop $-1 -1 $-1 $-1 $424 $463 #
truecolor-adesk-attrib $-1 -1 $483 $-1 $357 -1029660512 #
intcurve-curve $-1 -1 $-1 forward { exactcur full nurbs 2 open 2 
	0.6585100810698260032 2 0.9071462449875169476 2 
	0 2.886751345948130432 9.776709006307399363 1.196577320707119974 
	0.6698729810764145753 2.500000000000799361 9.999999999999220179 1.135399884873030008 
	1.25 2.165063509461099933 10 1 
	0 
	
	null_surface 
	null_surface 
	nullbs 
	nullbs 
	I I 
	0 
	0 
	0 
	F 1 F 0 } F 0.6585100810698260032 F 0.9071462449875169476 #
color-adesk-attrib $-1 -1 $484 $358 $280 253 #
point $-1 -1 $-1 0 2.886751345948130432 9.776709006307399363 #
face $485 -1 $-1 $374 $365 $9 $-1 $486 forward single #
color-adesk-attrib $-1 -1 $487 $366 $286 253 #
point $-1 -1 $-1 1.25 2.165063509461099933 10 #
DXID-attrib $-1 -1 $-1 $369 $211 @18 ASM_EDGE_FROM_STEP @3 187 #
color-adesk-attrib $-1 -1 $488 $371 $294 253 #
truecolor-adesk-attrib $-1 -1 $489 $-1 $373 -1029660512 #
ellipse-curve $-1 -1 $-1 0 0 10 0 0 1 0 2.5 0 1 F -2.617993877991494855 F -1.570796326794896558 #
truecolor-adesk-attrib $-1 -1 $490 $-1 $374 -1029660512 #
cone-surface $-1 -1 $-1 0 0 8.221687836487030054 0 0 -1 0 5.580127018922190985 0 1 I I 0.8660254037844398178 0.4999999999999980016 5.580127018922190985 forward I I I I #
DXID-attrib $-1 -1 $-1 $375 $219 @18 ASM_EDGE_FROM_STEP @3 204 #
truecolor-adesk-attrib $-1 -1 $491 $-1 $376 -1029660512 #
ellipse-curve $-1 -1 $-1 0 0 10 0 0 1 0 2.5 0 1 F -1.570796326794896558 F -0.5235987755982981495 #
DXID-attrib $-1 -1 $-1 $380 $224 @18 ASM_FACE_FROM_STEP @15 step-1M-688-339 #
color-adesk-attrib $-1 -1 $492 $381 $304 253 #
coedge $-1 -1 $-1 $447 $447 $493 $494 reversed $382 $-1 #
coedge $-1 -1 $-1 $493 $384 $449 $495 forward $305 $-1 #
coedge $-1 -1 $-1 $384 $493 $448 $495 reversed $305 $-1 #
edge $496 -1 $-1 $497 -3.141592653589793116 $497 3.141592653589793116 $384 $498 forward @7 unknown #
edge $499 -1 $-1 $457 1.570796326794896558 $310 2.617993877991494855 $385 $500 forward @7 unknown #
color-adesk-attrib $-1 -1 $501 $388 $308 253 #
DXID-attrib $-1 -1 $-1 $390 $229 @18 ASM_EDGE_FROM_STEP @3 195 #
coedge $-1 -1 $-1 $474 $417 $392 $455 reversed $464 $-1 #
edge $502 -1 $-1 $457 0.9071462449875169476 $420 1.155782408905210001 $392 $503 forward @7 unknown #
truecolor-adesk-attrib $-1 -1 $504 $-1 $393 -1029660512 #
vertex $-1 -1 $-1 $393 $505 #
intcurve-curve $-1 -1 $-1 forward { exactcur full nurbs 2 open 2 
	0.6585100810698280016 2 0.9071462449875169476 2 
	-2.499999999999999556 -1.443375672974059887 9.776709006307399363 1.196577320707119974 
	-2.5 -0.6698729810794225026 9.999999999999220179 1.135399884873030008 
	-2.5 0 10 1 
	0 
	
	null_surface 
	null_surface 
	nullbs 
	nullbs 
	I I 
	0 
	0 
	0 
	F 1 F 0 } F 0.6585100810698280016 F 0.9071462449875169476 #
DXID-attrib $-1 -1 $-1 $394 $231 @18 ASM_EDGE_FROM_STEP @3 191 #
DXID-attrib $-1 -1 $-1 $398 $236 @18 ASM_FACE_FROM_STEP @15 step-1M-688-332 #
color-adesk-attrib $-1 -1 $506 $399 $321 253 #
truecolor-adesk-attrib $-1 -1 $507 $-1 $400 -1029660512 #
face $508 -1 $-1 $433 $428 $9 $-1 $509 forward single #
loop $-1 -1 $-1 $-1 $417 $400 #
cone-surface $-1 -1 $-1 0 0 8.221687836487030054 0 0 -1 0 5.580127018922190985 0 1 I I 0.8660254037844398178 0.4999999999999980016 5.580127018922190985 forward I I I I #
DXID-attrib $-1 -1 $-1 $402 $239 @18 ASM_EDGE_FROM_STEP @3 179 #
DXID-attrib $-1 -1 $-1 $405 $247 @18 ASM_EDGE_FROM_STEP @3 206 #
coedge $-1 -1 $-1 $406 $470 $474 $510 forward $257 $-1 #
color-adesk-attrib $-1 -1 $511 $407 $331 253 #
coedge $-1 -1 $-1 $468 $412 $427 $482 forward $257 $-1 #
DXID-attrib $-1 -1 $-1 $414 $262 @18 ASM_FACE_FROM_STEP @15 step-1M-688-330 #
DXID-attrib $-1 -1 $-1 $415 $266 @18 ASM_EDGE_FROM_STEP @3 181 #
DXID-attrib $-1 -1 $-1 $416 $268 @18 ASM_EDGE_FROM_STEP @3 180 #
coedge $-1 -1 $-1 $417 $454 $468 $510 reversed $464 $-1 #
truecolor-adesk-attrib $-1 -1 $512 $-1 $418 -1029660512 #
vertex $-1 -1 $-1 $418 $513 #
intcurve-curve $-1 -1 $-1 forward { exactcur full nurbs 2 open 2 
	0.65851008106983 2 0.9071462449875169476 2 
	-2.499999999999999556 1.443375672974059887 9.776709006307399363 1.196577320707119974 
	-1.830127018923599636 1.8301270189213803 9.999999999999220179 1.135399884873030008 
	-1.25 2.165063509461099933 10 1 
	0 
	
	null_surface 
	null_surface 
	nullbs 
	nullbs 
	I I 
	0 
	0 
	0 
	F 1 F 0 } F 0.65851008106983 F 0.9071462449875169476 #
color-adesk-attrib $-1 -1 $514 $419 $349 253 #
point $-1 -1 $-1 -2.5 1.443375672974060109 9.776709006307399363 #
truecolor-adesk-attrib $-1 -1 $515 $-1 $425 -1029660512 #
intcurve-curve $-1 -1 $-1 forward { exactcur full nurbs 2 open 2 
	0.9071462449875169476 2 1.155782408905210001 2 
	-1.25 2.165063509461099933 10 1 
	-0.6698729810764092463 2.500000000000810019 9.999999999999218403 1.135399884873030008 
	0 2.886751345948130432 9.776709006307399363 1.196577320707119974 
	0 
	
	null_surface 
	null_surface 
	nullbs 
	nullbs 
	I I 
	0 
	0 
	0 
	F 1 F 0 } F 0.9071462449875169476 F 1.155782408905210001 #
edge $516 -1 $-1 $367 -0.5235987755982981495 $476 0.5235987755982981495 $427 $517 forward @7 unknown #
color-adesk-attrib $-1 -1 $518 $429 $357 253 #
DXID-attrib $-1 -1 $-1 $431 $280 @18 ASM_EDGE_FROM_STEP @3 184 #
truecolor-adesk-attrib $-1 -1 $519 $-1 $433 -1029660512 #
cone-surface $-1 -1 $-1 0 0 8.221687836487030054 0 0 -1 0 5.580127018922190985 0 1 I I 0.8660254037844398178 0.4999999999999980016 5.580127018922190985 forward I I I I #
DXID-attrib $-1 -1 $-1 $434 $286 @18 ASM_EDGE_FROM_STEP @3 186 #
DXID-attrib $-1 -1 $-1 $437 $294 @18 ASM_EDGE_FROM_STEP @3 203 #
color-adesk-attrib $-1 -1 $520 $438 $373 253 #
color-adesk-attrib $-1 -1 $521 $440 $374 253 #
color-adesk-attrib $-1 -1 $522 $443 $376 253 #
DXID-attrib $-1 -1 $-1 $446 $304 @18 ASM_FACE_FROM_STEP @15 step-1M-688-340 #
coedge $-1 -1 $-1 $449 $448 $447 $494 forward $305 $-1 #
edge $523 -1 $-1 $524 -3.141592653589793116 $524 3.141592653589793116 $493 $525 forward @7 unknown #
edge $526 -1 $-1 $497 0 $524 6.666666666666666075 $448 $527 forward @2 g2 #
truecolor-adesk-attrib $-1 -1 $528 $-1 $450 -1029660512 #
vertex $-1 -1 $-1 $450 $529 #
ellipse-curve $-1 -1 $-1 0 0 10 0 0 -1 1.500000000000000222 0 0 1 I I #
truecolor-adesk-attrib $-1 -1 $530 $-1 $451 -1029660512 #
ellipse-curve $-1 -1 $-1 0 0 10 0 0 1 0 2.5 0 1 F 1.570796326794896558 F 2.617993877991494855 #
DXID-attrib $-1 -1 $-1 $452 $308 @18 ASM_EDGE_FROM_STEP @3 196 #
truecolor-adesk-attrib $-1 -1 $531 $-1 $455 -1029660512 #
intcurve-curve $-1 -1 $-1 forward { exactcur full nurbs 2 open 2 
	0.9071462449875169476 2 1.155782408905210001 2 
	-2.5 0 10 1 
	-2.499999999999999556 0.6698729810794177286 9.999999999999218403 1.135399884873030008 
	-2.499999999999999556 1.443375672974059887 9.776709006307399363 1.196577320707119974 
	0 
	
	null_surface 
	null_surface 
	nullbs 
	nullbs 
	I I 
	0 
	0 
	0 
	F 1 F 0 } F 0.9071462449875169476 F 1.155782408905210001 #
color-adesk-attrib $-1 -1 $532 $456 $393 253 #
point $-1 -1 $-1 -2.5 0 10 #
DXID-attrib $-1 -1 $-1 $461 $321 @18 ASM_FACE_FROM_STEP @15 step-1M-688-333 #
color-adesk-attrib $-1 -1 $533 $462 $400 253 #
truecolor-adesk-attrib $-1 -1 $534 $-1 $463 -1029660512 #
cone-surface $-1 -1 $-1 0 0 8.221687836487030054 0 0 -1 0 5.580127018922190985 0 1 I I 0.8660254037844398178 0.4999999999999980016 5.580127018922190985 forward I I I I #
edge $535 -1 $-1 $476 0.5235987755982981495 $457 1.570796326794896558 $474 $536 forward @7 unknown #
DXID-attrib $-1 -1 $-1 $469 $331 @18 ASM_EDGE_FROM_STEP @3 198 #
color-adesk-attrib $-1 -1 $537 $475 $418 253 #
point $-1 -1 $-1 -1.25 2.165063509461099933 10 #
DXID-attrib $-1 -1 $-1 $478 $349 @18 ASM_EDGE_FROM_STEP @3 188 #
color-adesk-attrib $-1 -1 $538 $480 $425 253 #
truecolor-adesk-attrib $-1 -1 $539 $-1 $482 -1029660512 #
ellipse-curve $-1 -1 $-1 0 0 10 0 0 1 0 2.5 0 1 F -0.5235987755982981495 F 0.5235987755982981495 #
DXID-attrib $-1 -1 $-1 $483 $357 @18 ASM_EDGE_FROM_STEP @3 185 #
color-adesk-attrib $-1 -1 $540 $485 $433 253 #
DXID-attrib $-1 -1 $-1 $489 $373 @18 ASM_EDGE_FROM_STEP @3 205 #
DXID-attrib $-1 -1 $-1 $490 $374 @18 ASM_FACE_FROM_STEP @15 step-1M-688-337 #
DXID-attrib $-1 -1 $-1 $491 $376 @18 ASM_EDGE_FROM_STEP @3 202 #
truecolor-adesk-attrib $-1 -1 $541 $-1 $494 -1029660512 #
vertex $-1 -1 $-1 $495 $542 #
ellipse-curve $-1 -1 $-1 0 0 0 0 0 -1 1.500000000000000222 0 0 1 I I #
truecolor-adesk-attrib $-1 -1 $543 $-1 $495 -1029660512 #
straight-curve $-1 -1 $-1 -1.500000000000000222 1.836970198721030181e-16 10 0 0 -1.500000000000000222 F 0 F 6.666666666666666075 #
color-adesk-attrib $-1 -1 $544 $496 $450 253 #
point $-1 -1 $-1 -1.500000000000000222 -1.836970198721030181e-16 10 #
color-adesk-attrib $-1 -1 $545 $499 $451 253 #
color-adesk-attrib $-1 -1 $546 $502 $455 253 #
DXID-attrib $-1 -1 $-1 $504 $393 @18 ASM_EDGE_FROM_STEP @3 192 #
DXID-attrib $-1 -1 $-1 $507 $400 @18 ASM_FACE_FROM_STEP @15 step-1M-688-334 #
color-adesk-attrib $-1 -1 $547 $508 $463 253 #
truecolor-adesk-attrib $-1 -1 $548 $-1 $510 -1029660512 #
ellipse-curve $-1 -1 $-1 0 0 10 0 0 1 0 2.5 0 1 F 0.5235987755982981495 F 1.570796326794896558 #
DXID-attrib $-1 -1 $-1 $512 $418 @18 ASM_EDGE_FROM_STEP @3 189 #
DXID-attrib $-1 -1 $-1 $515 $425 @18 ASM_EDGE_FROM_STEP @3 190 #
color-adesk-attrib $-1 -1 $549 $516 $482 253 #
DXID-attrib $-1 -1 $-1 $519 $433 @18 ASM_FACE_FROM_STEP @15 step-1M-688-336 #
color-adesk-attrib $-1 -1 $550 $523 $494 253 #
point $-1 -1 $-1 -1.500000000000000222 -1.836970198721030181e-16 0 #
color-adesk-attrib $-1 -1 $551 $526 $495 253 #
DXID-attrib $-1 -1 $-1 $528 $450 @18 ASM_EDGE_FROM_STEP @3 208 #
DXID-attrib $-1 -1 $-1 $530 $451 @18 ASM_EDGE_FROM_STEP @3 199 #
DXID-attrib $-1 -1 $-1 $531 $455 @18 ASM_EDGE_FROM_STEP @3 193 #
DXID-attrib $-1 -1 $-1 $534 $463 @18 ASM_FACE_FROM_STEP @15 step-1M-688-335 #
color-adesk-attrib $-1 -1 $552 $535 $510 253 #
DXID-attrib $-1 -1 $-1 $539 $482 @18 ASM_EDGE_FROM_STEP @3 201 #
DXID-attrib $-1 -1 $-1 $541 $494 @18 ASM_EDGE_FROM_STEP @3 210 #
DXID-attrib $-1 -1 $-1 $543 $495 @18 ASM_EDGE_FROM_STEP @3 209 #
DXID-attrib $-1 -1 $-1 $548 $510 @18 ASM_EDGE_FROM_STEP @3 200 #
