700 108 1 0         
5 ZWCAD 12 ACIS 28.0 NT 24 Mon May 13 10:43:31 2024 
1 9.9999999999999995e-07 1e-10 
body $1 -1 $-1 $2 $-1 $-1 #
DXID-attrib $-1 -1 $-1 $-1 $0 @18 ASM_BODY_FROM_STEP @83 7482B1C1D8641CC426B448356A22B38202FF9A72|:|738520664CD01CBAA0A7D8F61C5550DDF0B2A00D #
lump $-1 -1 $-1 $-1 $3 $0 #
shell $-1 -1 $-1 $-1 $-1 $4 $-1 $2 #
face $5 -1 $-1 $6 $7 $3 $-1 $8 forward single #
truecolor-adesk-attrib $-1 -1 $9 $-1 $4 -1029333354 #
face $10 -1 $-1 $11 $12 $3 $-1 $13 forward single #
loop $-1 -1 $-1 $-1 $14 $4 #
cone-surface $-1 -1 $-1 467.68730722471582 370.96576301187184 355.56240261807284 1.6098233857064772e-15 -1.0547118733938989e-15 1 1.2658654816592845 1.5484135695425556 -4.0468967881294665e-16 1 I I 0 1 2.0000000000000027 forward I I I I #
fmesh-eye-attrib $-1 -1 $15 $5 $4 #
truecolor-adesk-attrib $-1 -1 $16 $-1 $6 -1029333354 #
face $17 -1 $-1 $18 $19 $3 $-1 $20 forward single #
loop $-1 -1 $-1 $-1 $21 $6 #
sphere-surface $-1 -1 $-1 467.68730722471577 370.96576301187184 342.9869309199596 10.000000000000011 -0.63293274082964135 -0.7742067847712768 2.0234483940647305e-16 0.7742067847712768 -0.63293274082964135 -1.9138978643101887e-15 forward_v I I I I #
coedge $-1 -1 $-1 $22 $23 $24 $25 forward $7 $-1 #
DXID-attrib $-1 -1 $-1 $9 $4 @18 ASM_FACE_FROM_STEP @17 step-2M-849-25142 #
fmesh-eye-attrib $-1 -1 $26 $10 $6 #
truecolor-adesk-attrib $-1 -1 $27 $-1 $11 -1029333354 #
face $28 -1 $-1 $29 $30 $3 $-1 $31 reversed single #
loop $-1 -1 $-1 $-1 $32 $11 #
sphere-surface $-1 -1 $-1 467.68730722471577 370.96576301187184 342.9869309199596 10.000000000000011 -0.63293274082964135 -0.7742067847712768 2.0234483940647305e-16 0.7742067847712768 -0.63293274082964135 -1.9138978643101887e-15 forward_v I I I I #
coedge $-1 -1 $-1 $33 $33 $32 $34 reversed $12 $-1 #
coedge $-1 -1 $-1 $35 $14 $36 $37 forward $7 $-1 #
coedge $-1 -1 $-1 $14 $35 $38 $39 reversed $7 $-1 #
coedge $-1 -1 $-1 $40 $40 $14 $25 reversed $41 $-1 #
edge $42 -1 $-1 $43 0 $44 3.1415926535897931 $14 $45 forward @7 unknown #
DXID-attrib $-1 -1 $-1 $16 $6 @18 ASM_FACE_FROM_STEP @16 step-2M-849-7896 #
fmesh-eye-attrib $-1 -1 $46 $17 $11 #
truecolor-adesk-attrib $-1 -1 $47 $-1 $18 -1029333354 #
face $48 -1 $-1 $49 $50 $3 $-1 $51 forward single #
loop $-1 -1 $-1 $-1 $52 $18 #
plane-surface $-1 -1 $-1 467.68730722471577 370.96576301187184 339.9869309199596 -1.6098233857064772e-15 1.0547118733938989e-15 -1 -0.63293274082964135 -0.7742067847712768 2.0234483940647305e-16 forward_v I I I I #
coedge $-1 -1 $-1 $53 $53 $21 $34 forward $19 $-1 #
coedge $-1 -1 $-1 $21 $21 $54 $55 reversed $12 $-1 #
edge $56 -1 $-1 $57 -0.6435011087932837 $58 0.64350110879328393 $21 $59 forward @7 unknown #
coedge $-1 -1 $-1 $23 $22 $52 $60 reversed $7 $-1 #
coedge $-1 -1 $-1 $61 $62 $22 $37 reversed $50 $-1 #
edge $63 -1 $-1 $44 -0.020575471698113228 $64 -0.015575471698113227 $22 $65 forward @7 unknown #
coedge $-1 -1 $-1 $62 $61 $23 $39 forward $50 $-1 #
edge $66 -1 $-1 $43 -0.020575471698113228 $67 -0.015575471698113227 $23 $68 forward @7 unknown #
coedge $-1 -1 $-1 $24 $24 $61 $69 reversed $41 $-1 #
loop $-1 -1 $-1 $-1 $24 $49 #
truecolor-adesk-attrib $-1 -1 $70 $-1 $25 -1029333354 #
vertex $-1 -1 $-1 $25 $71 #
vertex $-1 -1 $-1 $25 $72 #
ellipse-curve $-1 -1 $-1 467.68730722471577 370.96576301187184 334.9869309199596 1.6098233857064772e-15 -1.0547118733938989e-15 1 1.2658654816592845 1.5484135695425556 -4.0468967881294665e-16 1 F 0 F 3.1415926535897931 #
DXID-attrib $-1 -1 $-1 $27 $11 @18 ASM_FACE_FROM_STEP @17 step-2M-849-18017 #
fmesh-eye-attrib $-1 -1 $73 $28 $18 #
truecolor-adesk-attrib $-1 -1 $74 $-1 $29 -1029333354 #
face $75 -1 $-1 $-1 $76 $3 $-1 $77 reversed single #
loop $-1 -1 $-1 $-1 $36 $29 #
cone-surface $-1 -1 $-1 467.68730722471582 370.96576301187184 355.56240261807284 1.6098233857064772e-15 -1.0547118733938989e-15 1 1.2658654816592845 1.5484135695425556 -4.0468967881294665e-16 1 I I 0 1 2.0000000000000027 forward I I I I #
coedge $-1 -1 $-1 $78 $78 $35 $60 forward $30 $-1 #
coedge $-1 -1 $-1 $32 $32 $79 $80 reversed $19 $-1 #
coedge $-1 -1 $-1 $79 $79 $33 $55 forward $76 $-1 #
edge $81 -1 $-1 $58 -3.1415926535897931 $57 -1.2246467991473532e-16 $33 $82 forward @7 unknown #
truecolor-adesk-attrib $-1 -1 $83 $-1 $34 -1029333354 #
vertex $-1 -1 $-1 $34 $84 #
vertex $-1 -1 $-1 $34 $85 #
ellipse-curve $-1 -1 $-1 467.68730722471577 370.96576301187184 342.9869309199596 -0.7742067847712768 0.63293274082964135 1.9138978643101887e-15 -1.6098233857064789e-14 1.0547118733939e-14 -10.000000000000011 1 F -0.6435011087932837 F 0.64350110879328393 #
edge $86 -1 $-1 $67 0 $64 3.1415926535897931 $35 $87 forward @7 unknown #
coedge $-1 -1 $-1 $38 $36 $40 $69 forward $50 $-1 #
coedge $-1 -1 $-1 $36 $38 $78 $88 reversed $50 $-1 #
truecolor-adesk-attrib $-1 -1 $89 $-1 $37 -1029333354 #
vertex $-1 -1 $-1 $37 $90 #
straight-curve $-1 -1 $-1 466.4214417430565 369.41734944232928 355.56240261807284 1.6098233857064772e-12 -1.0547118733938989e-12 1000 F -0.020575471698113228 F -0.015575471698113227 #
truecolor-adesk-attrib $-1 -1 $91 $-1 $39 -1029333354 #
vertex $-1 -1 $-1 $60 $92 #
straight-curve $-1 -1 $-1 468.95317270637508 372.5141765814144 355.56240261807284 1.6098233857064772e-12 -1.0547118733938989e-12 1000 F -0.020575471698113228 F -0.015575471698113227 #
edge $93 -1 $-1 $44 -3.1415926535897931 $43 0 $61 $94 forward @7 unknown #
DXID-attrib $-1 -1 $-1 $42 $25 @18 ASM_EDGE_FROM_STEP @4 6042 #
point $-1 -1 $-1 468.95317270637503 372.5141765814144 334.9869309199596 #
point $-1 -1 $-1 466.4214417430565 369.41734944232928 334.9869309199596 #
DXID-attrib $-1 -1 $-1 $47 $18 @18 ASM_FACE_FROM_STEP @17 step-2M-849-29691 #
fmesh-eye-attrib $-1 -1 $95 $48 $29 #
truecolor-adesk-attrib $-1 -1 $96 $-1 $49 -1029333354 #
loop $-1 -1 $-1 $41 $54 $49 #
plane-surface $-1 -1 $-1 466.4214417430565 369.41734944232928 334.9869309199596 -1.6098233857064772e-15 1.0547118733938989e-15 -1 -0.63293274082964135 -0.7742067847712768 2.0234483940647305e-16 forward_v I I I I #
coedge $-1 -1 $-1 $52 $52 $62 $88 forward $30 $-1 #
coedge $-1 -1 $-1 $54 $54 $53 $80 forward $76 $-1 #
edge $97 -1 $-1 $57 -1.2246467991473532e-16 $58 3.1415926535897931 $53 $98 forward @7 unknown #
truecolor-adesk-attrib $-1 -1 $99 $-1 $55 -1029333354 #
ellipse-curve $-1 -1 $-1 467.68730722471577 370.96576301187184 334.9869309199596 1.6098233857064772e-15 -1.0547118733938989e-15 1 3.7975964449778505 4.6452407086276635 -1.2140690364388391e-15 1 F -3.1415926535897931 F -1.2246467991473532e-16 #
DXID-attrib $-1 -1 $100 $56 $34 @18 ASM_EDGE_FROM_STEP @5 11595 #
point $-1 -1 $-1 471.48490366969361 375.61100372049953 334.9869309199596 #
point $-1 -1 $-1 463.88971077973792 366.32052230324416 334.9869309199596 #
truecolor-adesk-attrib $-1 -1 $101 $-1 $60 -1029333354 #
ellipse-curve $-1 -1 $-1 467.68730722471577 370.96576301187184 339.9869309199596 1.6098233857064772e-15 -1.0547118733938989e-15 1 1.265865481659284 1.5484135695425554 -4.0468967881294655e-16 1 F 0 F 3.1415926535897931 #
edge $102 -1 $-1 $64 -3.1415926535897931 $67 0 $78 $103 forward @7 unknown #
DXID-attrib $-1 -1 $-1 $63 $37 @18 ASM_EDGE_FROM_STEP @4 8957 #
point $-1 -1 $-1 466.4214417430565 369.41734944232928 339.9869309199596 #
DXID-attrib $-1 -1 $-1 $66 $39 @18 ASM_EDGE_FROM_STEP @5 27081 #
point $-1 -1 $-1 468.95317270637508 372.5141765814144 339.9869309199596 #
truecolor-adesk-attrib $-1 -1 $104 $-1 $69 -1029333354 #
ellipse-curve $-1 -1 $-1 467.68730722471577 370.96576301187184 334.9869309199596 1.6098233857064772e-15 -1.0547118733938989e-15 1 1.2658654816592845 1.5484135695425556 -4.0468967881294665e-16 1 F -3.1415926535897931 F 0 #
DXID-attrib $-1 -1 $-1 $74 $29 @18 ASM_FACE_FROM_STEP @16 step-2M-849-2467 #
fmesh-eye-attrib $-1 -1 $105 $75 $49 #
truecolor-adesk-attrib $-1 -1 $106 $-1 $80 -1029333354 #
ellipse-curve $-1 -1 $-1 467.68730722471577 370.96576301187184 334.9869309199596 1.6098233857064772e-15 -1.0547118733938989e-15 1 3.7975964449778505 4.6452407086276635 -1.2140690364388391e-15 1 F -1.2246467991473532e-16 F 3.1415926535897931 #
DXID-attrib $-1 -1 $-1 $81 $55 @18 ASM_EDGE_FROM_STEP @5 15664 #
DXID-attrib $-1 -1 $-1 $83 $34 @18 ASM_EDGE_FROM_STEP @4 7918 #
DXID-attrib $-1 -1 $-1 $86 $60 @18 ASM_EDGE_FROM_STEP @5 19776 #
truecolor-adesk-attrib $-1 -1 $107 $-1 $88 -1029333354 #
ellipse-curve $-1 -1 $-1 467.68730722471577 370.96576301187184 339.9869309199596 1.6098233857064772e-15 -1.0547118733938989e-15 1 1.265865481659284 1.5484135695425554 -4.0468967881294655e-16 1 F -3.1415926535897931 F 0 #
DXID-attrib $-1 -1 $-1 $93 $69 @18 ASM_EDGE_FROM_STEP @5 13015 #
DXID-attrib $-1 -1 $-1 $96 $49 @18 ASM_FACE_FROM_STEP @16 step-2M-849-1678 #
DXID-attrib $-1 -1 $-1 $97 $80 @18 ASM_EDGE_FROM_STEP @5 23019 #
DXID-attrib $-1 -1 $-1 $102 $88 @18 ASM_EDGE_FROM_STEP @4 7339 #
