700 234 1 0         
5 ZWCAD 12 ACIS 28.0 NT 24 Mon May 13 11:26:07 2024 
1 9.9999999999999995e-07 1e-10 
body $1 -1 $-1 $2 $-1 $-1 #
DXID-attrib $-1 -1 $-1 $-1 $0 @18 ASM_BODY_FROM_STEP @83 F356F8331E630A21936EBD440DFF582E72624661|:|BD27E99729E6930DA7950040880912736D58F368 #
lump $-1 -1 $-1 $-1 $3 $0 #
shell $-1 -1 $-1 $-1 $-1 $4 $-1 $2 #
face $5 -1 $-1 $6 $7 $3 $-1 $8 forward single #
truecolor-adesk-attrib $-1 -1 $9 $-1 $4 -1026829585 #
face $10 -1 $-1 $11 $12 $3 $-1 $13 forward single #
loop $-1 -1 $-1 $-1 $14 $4 #
torus-surface $-1 -1 $-1 204.45038369333119 -43.364273176791698 127.49999999999989 1 -7.5901360538062043e-17 3.1618639952506307e-15 17.499999999999954 4.9999999999999716 3.1618639952506307e-15 0 -1 forward_v I I I I #
DXID-attrib $-1 -1 $-1 $5 $4 @18 ASM_FACE_FROM_STEP @17 step-2M-515-25075 #
truecolor-adesk-attrib $-1 -1 $15 $-1 $6 -1026829585 #
face $16 -1 $-1 $17 $18 $3 $-1 $19 forward single #
loop $-1 -1 $-1 $-1 $20 $6 #
torus-surface $-1 -1 $-1 204.45038369333119 -43.364273176791698 127.49999999999997 1 -1.5701245941077019e-16 2.78430518179992e-15 17.499999999999957 5.0000000000000213 2.7843051817999204e-15 0 -1 forward_v I I I I #
coedge $-1 -1 $-1 $21 $22 $23 $24 reversed $7 $-1 #
DXID-attrib $-1 -1 $-1 $10 $6 @18 ASM_FACE_FROM_STEP @16 step-2M-515-4892 #
truecolor-adesk-attrib $-1 -1 $25 $-1 $11 -1026829585 #
face $26 -1 $-1 $27 $28 $3 $-1 $29 forward single #
loop $-1 -1 $-1 $-1 $30 $11 #
torus-surface $-1 -1 $-1 204.45038369333128 -43.364273176791698 127.50000000000016 1 1.1319137586695027e-16 3.4847761375606623e-15 17.499999999999922 5.0000000000000169 3.4847761375606623e-15 0 -1 forward_v I I I I #
coedge $-1 -1 $-1 $31 $32 $33 $34 reversed $12 $-1 #
coedge $-1 -1 $-1 $33 $14 $35 $36 forward $7 $-1 #
coedge $-1 -1 $-1 $14 $37 $38 $39 reversed $7 $-1 #
coedge $-1 -1 $-1 $40 $31 $14 $24 forward $12 $-1 #
edge $41 -1 $-1 $42 -3.1415926535897931 $43 -2.7203399219318341e-49 $14 $44 forward @7 unknown #
DXID-attrib $-1 -1 $-1 $16 $11 @18 ASM_FACE_FROM_STEP @17 step-2M-515-17745 #
truecolor-adesk-attrib $-1 -1 $45 $-1 $17 -1026829585 #
face $46 -1 $-1 $47 $48 $3 $-1 $49 forward single #
loop $-1 -1 $-1 $-1 $50 $17 #
cone-surface $-1 -1 $-1 204.45038369333122 -43.364273176791698 105 -5.5511151231257847e-16 0 -1 -12.499999999999998 0 6.93889390390723e-15 1 I I 0.13756837127468774 0.99049227317775157 12.499999999999998 forward I I I I #
coedge $-1 -1 $-1 $51 $52 $31 $53 reversed $18 $-1 #
coedge $-1 -1 $-1 $23 $20 $30 $53 forward $12 $-1 #
coedge $-1 -1 $-1 $20 $54 $55 $56 forward $12 $-1 #
coedge $-1 -1 $-1 $57 $21 $20 $34 forward $7 $-1 #
edge $58 -1 $-1 $59 -3.1415926535897931 $60 -2.1342242521508861 $33 $61 forward @7 unknown #
coedge $-1 -1 $-1 $62 $63 $21 $36 reversed $64 $-1 #
edge $65 -1 $-1 $42 -3.1415926535897931 $59 2.3902048162444585e-31 $21 $66 forward @7 unknown #
coedge $-1 -1 $-1 $22 $67 $68 $69 forward $7 $-1 #
coedge $-1 -1 $-1 $63 $62 $22 $39 forward $64 $-1 #
edge $70 -1 $-1 $43 -3.1415926535897931 $71 1.8488927466117449e-31 $22 $72 forward @7 unknown #
coedge $-1 -1 $-1 $68 $23 $73 $74 reversed $12 $-1 #
truecolor-adesk-attrib $-1 -1 $75 $-1 $24 -1026829585 #
vertex $-1 -1 $-1 $24 $76 #
vertex $-1 -1 $-1 $24 $77 #
ellipse-curve $-1 -1 $-1 204.45038369333122 -43.364273176791698 127.5 1 -6.1230317691118888e-17 6.1230317691118912e-17 7.6537897113898598e-16 12.499999999999998 0 1 F -3.1415926535897931 F -2.7203399219318341e-49 #
DXID-attrib $-1 -1 $-1 $26 $17 @18 ASM_FACE_FROM_STEP @17 step-2M-515-24371 #
truecolor-adesk-attrib $-1 -1 $78 $-1 $27 -1026829585 #
face $79 -1 $-1 $80 $64 $3 $-1 $81 forward single #
loop $-1 -1 $-1 $-1 $82 $27 #
cone-surface $-1 -1 $-1 204.45038369333122 -43.364273176791698 114.00000000001143 0 0 -1 -11.249999999831742 0 0 1 I I 0.99607264069268386 0.088539790283824249 11.249999999831742 forward I I I I #
coedge $-1 -1 $-1 $83 $84 $85 $86 forward $28 $-1 #
coedge $-1 -1 $-1 $73 $30 $63 $87 reversed $18 $-1 #
coedge $-1 -1 $-1 $30 $73 $62 $88 forward $18 $-1 #
edge $89 -1 $-1 $59 2.3902048162444585e-31 $42 3.1415926535897931 $31 $90 forward @7 unknown #
coedge $-1 -1 $-1 $32 $91 $82 $92 forward $12 $-1 #
coedge $-1 -1 $-1 $93 $94 $32 $56 reversed $95 $-1 #
edge $96 -1 $-1 $97 -0.88040498856138738 $60 -3.7359085762209017e-15 $32 $98 forward @7 unknown #
coedge $-1 -1 $-1 $99 $33 $94 $100 forward $7 $-1 #
truecolor-adesk-attrib $-1 -1 $101 $-1 $34 -1026829585 #
vertex $-1 -1 $-1 $36 $102 #
vertex $-1 -1 $-1 $34 $103 #
ellipse-curve $-1 -1 $-1 204.45038369333122 -43.364273176791698 127.5 1 -6.12303176911189e-17 6.12303176911189e-17 1.3776821480501756e-15 22.500000000000007 0 1 F -3.1415926535897931 F -2.1342242521508861 #
coedge $-1 -1 $-1 $38 $35 $52 $88 reversed $64 $-1 #
coedge $-1 -1 $-1 $35 $38 $51 $87 forward $64 $-1 #
loop $-1 -1 $-1 $-1 $35 $47 #
truecolor-adesk-attrib $-1 -1 $104 $-1 $36 -1026829585 #
ellipse-curve $-1 -1 $-1 204.45038369333122 -60.864273176791698 127.5 6.12303176911189e-17 -1.224646799147353e-16 -1 -3.0615158845559481e-16 -4.9999999999999982 6.1232339957367623e-16 1 F -3.1415926535897931 F 2.3902048162444585e-31 #
coedge $-1 -1 $-1 $37 $99 $84 $105 forward $7 $-1 #
coedge $-1 -1 $-1 $106 $40 $37 $69 reversed $12 $-1 #
edge $107 -1 $-1 $108 -1.0073684014389064 $71 -2.5532162342321468e-48 $37 $109 forward @7 unknown #
truecolor-adesk-attrib $-1 -1 $110 $-1 $39 -1026829585 #
vertex $-1 -1 $-1 $69 $111 #
ellipse-curve $-1 -1 $-1 204.45038369333122 -25.864273176791698 127.5 -6.12303176911189e-17 3.7491518045553484e-33 1 3.0615158845559436e-16 5.0000000000000044 -2.7369110631344108e-47 1 F -3.1415926535897931 F 1.8488927466117449e-31 #
coedge $-1 -1 $-1 $52 $51 $40 $74 forward $18 $-1 #
edge $112 -1 $-1 $71 1.8488927466117449e-31 $43 3.1415926535897931 $40 $113 forward @7 unknown #
DXID-attrib $-1 -1 $-1 $41 $24 @18 ASM_EDGE_FROM_STEP @5 23717 #
point $-1 -1 $-1 204.45038369333122 -55.864273176791698 127.5 #
point $-1 -1 $-1 204.45038369333122 -30.864273176791698 127.5 #
DXID-attrib $-1 -1 $-1 $46 $27 @18 ASM_FACE_FROM_STEP @16 step-2M-515-6435 #
truecolor-adesk-attrib $-1 -1 $114 $-1 $47 -1026829585 #
face $115 -1 $-1 $116 $95 $3 $-1 $117 forward single #
torus-surface $-1 -1 $-1 204.45038369333125 -43.364273176791698 127.50000000000057 1 -7.665944081910385e-16 -4.2328240871430117e-15 17.499999999999709 4.9999999999998836 -4.2328240871430117e-15 0 -1 forward_v I I I I #
coedge $-1 -1 $-1 $118 $119 $54 $92 reversed $48 $-1 #
coedge $-1 -1 $-1 $120 $50 $121 $122 forward $28 $-1 #
coedge $-1 -1 $-1 $50 $123 $67 $105 reversed $28 $-1 #
coedge $-1 -1 $-1 $124 $125 $50 $86 reversed $126 $-1 #
edge $127 -1 $-1 $128 0.45646324295492002 $129 1.5707963267948966 $50 $130 forward @7 unknown #
edge $131 -1 $-1 $71 -2.5532162342321468e-48 $59 3.1415926535897931 $51 $132 forward @7 unknown #
edge $133 -1 $-1 $43 -2.7203399219318341e-49 $42 3.1415926535897931 $52 $134 forward @7 unknown #
truecolor-adesk-attrib $-1 -1 $135 $-1 $53 -1026829585 #
ellipse-curve $-1 -1 $-1 204.45038369333122 -60.864273176791698 127.5 6.12303176911189e-17 -1.224646799147353e-16 -1 -3.0615158845559481e-16 -4.9999999999999982 6.1232339957367623e-16 1 F 2.3902048162444585e-31 F 3.1415926535897931 #
coedge $-1 -1 $-1 $54 $106 $136 $137 forward $12 $-1 #
edge $138 -1 $-1 $139 2.1248451902270125 $97 2.9572122326813384 $54 $140 forward @7 unknown #
coedge $-1 -1 $-1 $141 $55 $119 $142 forward $95 $-1 #
coedge $-1 -1 $-1 $55 $143 $57 $100 reversed $95 $-1 #
loop $-1 -1 $-1 $-1 $121 $80 #
truecolor-adesk-attrib $-1 -1 $144 $-1 $56 -1026829585 #
vertex $-1 -1 $-1 $92 $145 #
intcurve-curve $-1 -1 $-1 reversed { surfintcur full nubs 3 periodic 19 
	0 3 0.19546496373042241 2 0.3909349551751013 2 0.58293392755169793 2 0.77428167599701636 2 
	0.9958528566744469 2 1.3178747407705853 2 1.5715486502721978 2 1.7273166971516738 2 1.8445284632910477 2 
	1.9587820148151092 2 2.1155920794394056 2 2.3838814340488002 2 2.7283758327112362 2 2.9515073980203148 2 
	3.1413340431495818 2 3.3252609352073113 2 3.4854361231096318 2 3.6455384742650079 3 
	204.45038369333125 -55.381239645664152 108.47784142411814 
	203.79883381422985 -55.381239645664152 108.47784142411814 
	203.15401040649297 -55.311981076415293 108.5847257751311 
	201.95024287839124 -55.05896919701587 109.00920588162542 
	201.40332584002647 -54.878035477994104 109.32284971181414 
	200.48877400556995 -54.476290859252686 110.13480939567883 
	200.12955949670064 -54.262419530434443 110.620077701727 
	199.62705809104267 -53.88050937185767 111.72791775189738 
	199.4927509355085 -53.721732269216147 112.32572940345224 
	199.41975098378566 -53.477054703533668 113.67918952939915 
	199.51688327452101 -53.411782484289006 114.41602655345399 
	199.97926658062352 -53.361542568897448 116.16702787990634 
	200.45094830651112 -53.421890195056221 117.16722459742228 
	201.43331889743706 -53.537768522488989 118.65927175104787 
	201.95011003191917 -53.596610485415624 119.26833089514653 
	202.86284748056093 -53.665884315734729 119.99422227648469 
	203.25324175019784 -53.688461600783057 120.22988177979119 
	203.99552953913931 -53.710968142239381 120.46712749867405 
	204.32138488204512 -53.714865103557997 120.50862029854198 
	204.9798125102192 -53.709602510803279 120.45287010621334 
	205.29037144060135 -53.700919316747616 120.36091878224505 
	205.98972780889147 -53.669748608029863 120.03382712292162 
	206.3608900064078 -53.643352553770569 119.75973488509929 
	207.24839906798002 -53.565926157407546 118.9414035097394 
	207.75826133572264 -53.502796958365593 118.27215728217233 
	208.71418687450193 -53.391813082892668 116.63727726078115 
	209.16478500949478 -53.344895590144688 115.53193570886697 
	209.47733049879204 -53.482595890850575 113.65493474534652 
	209.48979773898924 -53.59283291318485 112.91423338989254 
	209.2293742932884 -53.918018019194733 111.59468788608703 
	209.00368032488376 -54.107200785227349 111.03631247977196 
	208.342011135955 -54.50767864207171 110.05835155274021 
	207.92371411997237 -54.70971790665476 109.65238726263476 
	207.00406196569639 -55.034311431530966 109.04921818999965 
	206.52746511743476 -55.161020369622065 108.83625778912034 
	205.5142231629348 -55.335053683605224 108.54972875667251 
	204.98405819718249 -55.381239645664152 108.47784142411814 
	204.45038369333125 -55.381239645664152 108.47784142411814 
	0.00060767323016771581 
	torus 204.45038369333119 -43.364273176791698 127.49999999999997 1 -1.5701245941077019e-16 2.78430518179992e-15 17.499999999999957 5.0000000000000213 2.7843051817999204e-15 0 -1 forward_v I I I I 
	cone 204.45038369333122 -43.364273176791698 105 -5.5511151231257847e-16 0 -1 -12.499999999999998 0 6.93889390390723e-15 1 I I 0.13756837127468774 0.99049227317775157 12.499999999999998 forward I I I I 
	nullbs 
	nullbs 
	I I 
	0 
	0 
	0 
	} F -0.88040498856138738 F -3.7359085762209017e-15 #
coedge $-1 -1 $-1 $67 $57 $124 $146 forward $7 $-1 #
edge $147 -1 $-1 $60 -3.6455384742630272 $148 -2.7679567170898949 $57 $149 forward @7 unknown #
DXID-attrib $-1 -1 $-1 $58 $34 @18 ASM_EDGE_FROM_STEP @4 3929 #
point $-1 -1 $-1 204.45038369333122 -65.864273176791698 127.5 #
point $-1 -1 $-1 204.45038369333122 -55.381239645664152 108.47784142411818 #
DXID-attrib $-1 -1 $-1 $65 $36 @18 ASM_EDGE_FROM_STEP @5 16955 #
edge $150 -1 $-1 $128 -0.88040498856102767 $108 4.8167961079564972e-15 $67 $151 forward @7 unknown #
coedge $-1 -1 $-1 $91 $68 $123 $152 forward $12 $-1 #
truecolor-adesk-attrib $-1 -1 $153 $-1 $69 -1026829585 #
vertex $-1 -1 $-1 $105 $154 #
ellipse-curve $-1 -1 $-1 204.45038369333122 -43.364273176791698 127.5 1 -6.12303176911189e-17 6.12303176911189e-17 1.3776821480501756e-15 22.500000000000007 0 1 F -1.0073684014389064 F -2.5532162342321468e-48 #
DXID-attrib $-1 -1 $-1 $70 $39 @18 ASM_EDGE_FROM_STEP @5 18609 #
point $-1 -1 $-1 204.45038369333122 -20.864273176791698 127.5 #
truecolor-adesk-attrib $-1 -1 $155 $-1 $74 -1026829585 #
ellipse-curve $-1 -1 $-1 204.45038369333122 -25.864273176791698 127.5 -6.12303176911189e-17 3.7491518045553484e-33 1 3.0615158845559436e-16 5.0000000000000044 -2.7369110631344108e-47 1 F 1.8488927466117449e-31 F 3.1415926535897931 #
DXID-attrib $-1 -1 $-1 $79 $47 @18 ASM_FACE_FROM_STEP @17 step-2M-515-20063 #
truecolor-adesk-attrib $-1 -1 $156 $-1 $80 -1026829585 #
face $157 -1 $-1 $158 $159 $3 $-1 $160 forward single #
cone-surface $-1 -1 $-1 204.45038369333122 -43.364273176791698 105 -5.5511151231257847e-16 0 -1 -12.499999999999998 0 6.93889390390723e-15 1 I I 0.13756837127468774 0.99049227317775157 12.499999999999998 forward I I I I #
coedge $-1 -1 $-1 $119 $82 $161 $162 forward $48 $-1 #
coedge $-1 -1 $-1 $82 $118 $93 $142 reversed $48 $-1 #
coedge $-1 -1 $-1 $163 $83 $164 $165 forward $28 $-1 #
coedge $-1 -1 $-1 $143 $166 $83 $122 reversed $95 $-1 #
edge $167 -1 $-1 $129 -0.0090863909226931265 $168 -3.0546314649867937e-19 $83 $169 forward @7 unknown #
coedge $-1 -1 $-1 $84 $170 $106 $152 reversed $28 $-1 #
coedge $-1 -1 $-1 $125 $85 $99 $146 reversed $126 $-1 #
coedge $-1 -1 $-1 $85 $124 $143 $171 reversed $126 $-1 #
loop $-1 -1 $-1 $-1 $124 $172 #
truecolor-adesk-attrib $-1 -1 $173 $-1 $86 -1026829585 #
vertex $-1 -1 $-1 $146 $174 #
vertex $-1 -1 $-1 $86 $175 #
ellipse-curve $-1 -1 $-1 204.45038369333122 -43.364273176791698 114 0 0 -1 6.888410740250878e-16 11.249999999999998 0 1 F 0.45646324295492002 F 1.5707963267948966 #
truecolor-adesk-attrib $-1 -1 $176 $-1 $87 -1026829585 #
ellipse-curve $-1 -1 $-1 204.45038369333122 -43.364273176791698 127.5 1 -6.12303176911189e-17 6.12303176911189e-17 1.3776821480501756e-15 22.500000000000007 0 1 F -2.5532162342321468e-48 F 3.1415926535897931 #
truecolor-adesk-attrib $-1 -1 $177 $-1 $88 -1026829585 #
ellipse-curve $-1 -1 $-1 204.45038369333122 -43.364273176791698 127.5 1 -6.1230317691118888e-17 6.1230317691118912e-17 7.6537897113898598e-16 12.499999999999998 0 1 F -2.7203399219318341e-49 F 3.1415926535897931 #
DXID-attrib $-1 -1 $-1 $89 $53 @18 ASM_EDGE_FROM_STEP @4 8535 #
coedge $-1 -1 $-1 $178 $161 $91 $137 reversed $159 $-1 #
edge $179 -1 $-1 $180 0.99267621915165127 $139 2.1248451902270125 $91 $181 forward @7 unknown #
truecolor-adesk-attrib $-1 -1 $182 $-1 $92 -1026829585 #
vertex $-1 -1 $-1 $137 $183 #
intcurve-curve $-1 -1 $-1 reversed { surfintcur full nubs 3 periodic 48 
	-7.4604791599693261 3 -7.4185118516555679 2 -7.3492508902203015 2 -7.2043575653836811 2 -7.0201282194729808 2 
	-6.7905345872249345 2 -6.5072606018834653 2 -6.1628959054417223 2 -5.8441923669616758 2 -5.7057807778972389 2 
	-5.6455787072267318 2 -5.5692767693777485 2 -5.5220167738073886 2 -5.4671688551352187 2 -5.3912966526720725 2 
	-5.3306239613312361 2 -5.2114507380648023 2 -4.8669318566112967 2 -4.5403021152113263 2 -4.314659397854558 2 
	-4.1463449608248863 2 -4.013094909895619 2 -3.8783138725369457 2 -3.8143994437239046 2 -3.7698385120109967 2 
	-3.7249865237659825 2 -3.6597277103567474 2 -3.5103555771080837 2 -3.3549731014569462 2 -3.1475297751333953 2 
	-2.8975987534926233 2 -2.5139471279453427 2 -2.3517793079363298 2 -2.2888074713879702 2 -2.2153933683588316 2 
	-2.1527865420093577 2 -2.0956156030741764 2 -1.9913680355656396 2 -1.927187907383038 2 -1.7999724710739606 2 
	-1.347420176490264 2 -0.94584005125218573 2 -0.66878243097013923 2 -0.46229475070658349 2 -0.29894916510200686 2 
	-0.13305762452868861 2 -0.054548574027044841 2 0 3 
	204.45038369333125 -25.799281683649326 113.43866742282806 
	204.59027472104378 -25.799281683649326 113.43866742282806 
	204.73000395550275 -25.80641339619001 113.43915267728875 
	205.09883850581991 -25.844086165923102 113.44171801921252 
	205.32540249382785 -25.886672197257383 113.44461848328338 
	206.01129081244838 -26.074472715123875 113.45744693141586 
	206.44736984616253 -26.278852093712544 113.47143919954735 
	207.35179658617409 -26.886153788062245 113.5135474177558 
	207.78505529310036 -27.319539619503075 113.54390107630606 
	208.58687414743554 -28.42662280251534 113.62318690918815 
	208.90623954281875 -29.122291062268062 113.67410161977102 
	209.37773071510975 -30.74782636462794 113.79699893227925 
	209.49995073831207 -31.78382519844547 113.87771285076619 
	209.34903919298529 -34.371256497107993 114.09097576246296 
	208.99815567988963 -35.775230180352821 114.21405465808833 
	208.04669073261002 -38.345125327518929 114.45174721741024 
	207.45789036240484 -39.543903109213943 114.56849592268632 
	206.53575733879651 -41.18166863371539 114.73187930315193 
	206.28980971762883 -41.594640312275715 114.77388050280931 
	205.80910797205109 -42.374492132196224 114.85079675763258 
	205.71440843841125 -42.525529047402188 114.86540786888912 
	205.49101527401655 -42.897341519152292 114.89915203430684 
	205.41287939148509 -43.041108383612595 114.91025609476031 
	205.34484828440122 -43.234082165780819 114.91987152796011 
	205.33225552855168 -43.299672153593974 114.921613855632 
	205.33236125323202 -43.440061320855364 114.92159912048413 
	205.3494449995537 -43.516180486069288 114.91924053601858 
	205.43312007193433 -43.727316172715007 114.90735858135203 
	205.5170805180916 -43.876255588956269 114.89531995101461 
	205.74775404340588 -44.256772597871986 114.86026216271659 
	205.85609717533237 -44.429772625195938 114.84340389300709 
	206.28796421276684 -45.132198474785469 114.77385657821807 
	206.52174621574662 -45.524910832971955 114.73411272565312 
	207.49085581958261 -47.235685511419149 114.56329602038505 
	208.14298970046474 -48.573949273747303 114.43315254908137 
	209.07862990090308 -51.255110651570021 114.18732241637673 
	209.38865566369171 -52.619492023486487 114.0687411382482 
	209.4791677519076 -54.935476839137777 113.87899396999154 
	209.39310437987615 -55.886555853419054 113.8042858396917 
	208.95410298195009 -57.468682344752551 113.68439084896615 
	208.67492569418192 -58.116477118984051 113.63674824861752 
	207.98832229237831 -59.160650400735335 113.56154436443276 
	207.62259100078313 -59.576453547401002 113.5322033109685 
	206.7645552037622 -60.273450274190225 113.48355873080637 
	206.27924208764205 -60.545946910585485 113.46485443949489 
	205.50453965944047 -60.800934159331746 113.44740968670334 
	205.24915538829421 -60.859582803444312 113.44341303421467 
	204.80932221635192 -60.917618727049614 113.43945967732532 
	204.62774938982031 -60.929448269695683 113.43865492710505 
	204.26341062960191 -60.929075549342372 113.43868029429645 
	204.08136174430226 -60.916717080150363 113.43952104468156 
	203.63834173184242 -60.857178241709789 113.44357691016675 
	203.38070844190048 -60.796928271588513 113.44768298974734 
	202.55732898936648 -60.522169656433221 113.46648295865558 
	202.03560948809732 -60.213758678594047 113.48766127909315 
	201.10700463216347 -59.407475065570566 113.5440822596284 
	200.71635262945497 -58.912400328793979 113.5791864449557 
	199.99304213871255 -57.642733650017192 113.67142673409609 
	199.72854124973688 -56.840513425065012 113.73128201374293 
	199.41243701375058 -55.026548554118222 113.87169806154985 
	199.39112649509354 -53.867925582858561 113.9643797679703 
	199.93699180258372 -50.508025101731164 114.25115723094976 
	200.74322839151012 -48.580970428500962 114.43201432519638 
	201.96642643419455 -46.235626964123071 114.66278357088362 
	202.33994623184381 -45.583880700295538 114.72854889649538 
	202.9310845671136 -44.612865430107604 114.82538376115016 
	203.07383338797408 -44.384086169189743 114.84791045699225 
	203.30604653408139 -44.006157340264451 114.88371120561501 
	203.39589895879487 -43.855503412624159 114.89692773282161 
	203.51024117224773 -43.62906936049751 114.91346732495145 
	203.54298356104485 -43.544350646048883 114.91804499037698 
	203.57220346320128 -43.395235470836667 114.92213308862262 
	203.57179822832543 -43.32855802497545 114.92207702319288 
	203.53110897603756 -43.128733828471809 114.91638243641927 
	203.4570501353524 -42.980091748125403 114.90610770197296 
	203.23888014705631 -42.611206725046827 114.87342102068547 
	203.13415386813136 -42.442867819347555 114.85739281663771 
	202.73917175546859 -41.803448956012687 114.79469416930974 
	202.55248319251467 -41.495217016684819 114.76339293269015 
	201.53966132454005 -39.752935941648502 114.58892620765309 
	200.82222853971848 -38.320910291744383 114.44864193746504 
	199.83753281535832 -35.533105734908588 114.19258990189013 
	199.51996046087837 -34.161948334194221 114.07322115664327 
	199.41937220484192 -31.834104945641684 113.88225892999029 
	199.50175902144252 -30.878335620208929 113.8070998506708 
	199.9359060023483 -29.287850151079624 113.6864688931088 
	200.21333552131304 -28.636494616450477 113.63853069043431 
	200.89781136792038 -27.586042348503156 113.56283362944123 
	201.26283934939829 -27.167505688821507 113.53328697316948 
	202.12218824950614 -26.463594078593815 113.48414401182312 
	202.60996882638955 -26.187611908870167 113.4651981850634 
	203.38895388552027 -25.929448158063337 113.44753491328618 
	203.64547702998897 -25.870093652889977 113.44349005420983 
	204.08674340918253 -25.811330361376577 113.43948708521833 
	204.26855511324109 -25.799281683649326 113.43866742282806 
	204.45038369333125 -25.799281683649326 113.43866742282806 
	0.00040257833063653617 
	torus 204.45038369333119 -43.364273176791698 127.49999999999997 1 -1.5701245941077019e-16 2.78430518179992e-15 17.499999999999957 5.0000000000000213 2.7843051817999204e-15 0 -1 forward_v I I I I 
	cone 204.45038369333122 -43.364273176791698 114.00000000001143 0 0 -1 -11.249999999831742 0 0 1 I I 0.99607264069268386 0.088539790283824249 11.249999999831742 forward I I I I 
	nullbs 
	nullbs 
	I I 
	0 
	0 
	0 
	} F 2.1248451902270125 F 2.9572122326813384 #
coedge $-1 -1 $-1 $166 $93 $163 $184 forward $95 $-1 #
edge $185 -1 $-1 $97 -2.6851294106348735 $186 -1.5707963267948968 $119 $187 forward @7 unknown #
coedge $-1 -1 $-1 $94 $121 $125 $171 forward $95 $-1 #
DXID-attrib $-1 -1 $-1 $96 $56 @18 ASM_EDGE_FROM_STEP @5 19650 #
point $-1 -1 $-1 199.49165125212511 -53.462464726595613 113.99999999999969 #
edge $188 -1 $-1 $148 4.5822036939238879 $128 6.4818114293212412 $99 $189 forward @7 unknown #
truecolor-adesk-attrib $-1 -1 $190 $-1 $100 -1026829585 #
vertex $-1 -1 $-1 $100 $191 #
intcurve-curve $-1 -1 $-1 reversed { surfintcur full nubs 3 periodic 19 
	0 3 0.19546496373041958 2 0.39093495517511034 2 0.58293392755173556 2 0.77428167599710107 2 
	0.99585285667460766 2 1.3178747407709821 2 1.5715486502723648 2 1.7273166971514993 2 1.8445284632906702 2 
	1.9587820148145421 2 2.1155920794385241 2 2.3838814340474532 2 2.7283758327095526 2 2.9515073980185078 2 
	3.1413340431476966 2 3.325260935205371 2 3.4854361231076596 2 3.6455384742630224 3 
	204.45038369333128 -55.381239645664152 108.47784142411817 
	203.79883381422985 -55.381239645664152 108.47784142411817 
	203.15401040649297 -55.311981076415293 108.58472577513113 
	201.95024287839124 -55.05896919701587 109.00920588162546 
	201.40332584002647 -54.878035477994104 109.32284971181416 
	200.48877400556998 -54.476290859252686 110.13480939567884 
	200.12955949670069 -54.262419530434443 110.62007770172701 
	199.62705809104273 -53.88050937185767 111.72791775189739 
	199.49275093550855 -53.721732269216147 112.32572940345223 
	199.41975098378572 -53.477054703533724 113.67918952939917 
	199.51688327452106 -53.411782484289063 114.41602655345399 
	199.97926658062369 -53.361542568897448 116.16702787990664 
	200.45094830651141 -53.421890195056278 117.16722459742256 
	201.43331889743621 -53.537768522488932 118.65927175104645 
	201.95011003191831 -53.596610485415567 119.26833089514574 
	202.86284748056107 -53.665884315734786 119.99422227648469 
	203.25324175019793 -53.688461600783057 120.2298817797911 
	203.99552953913943 -53.710968142239381 120.46712749867396 
	204.32138488204521 -53.714865103557997 120.50862029854184 
	204.97981251021918 -53.709602510803279 120.45287010621321 
	205.29037144060126 -53.700919316747616 120.36091878224499 
	205.9897278088915 -53.669748608029863 120.03382712292151 
	206.3608900064078 -53.643352553770569 119.75973488509921 
	207.24839906798019 -53.565926157407546 118.94140350973912 
	207.75826133572281 -53.502796958365593 118.27215728217196 
	208.71418687450213 -53.391813082892668 116.63727726078066 
	209.16478500949478 -53.344895590144745 115.53193570886648 
	209.47733049879201 -53.482595890850575 113.65493474534637 
	209.48979773898915 -53.592832913184907 112.91423338989244 
	209.22937429328834 -53.91801801919479 111.59468788608697 
	209.00368032488367 -54.107200785227406 111.03631247977189 
	208.34201113595492 -54.50767864207171 110.05835155274013 
	207.92371411997232 -54.70971790665476 109.65238726263472 
	207.00406196569631 -55.034311431530966 109.04921818999961 
	206.52746511743464 -55.161020369622065 108.83625778912032 
	205.51422316293477 -55.335053683605224 108.54972875667251 
	204.98405819718246 -55.381239645664152 108.47784142411817 
	204.45038369333128 -55.381239645664152 108.47784142411817 
	0.000607673230169526 
	torus 204.45038369333119 -43.364273176791698 127.49999999999989 1 -7.5901360538062043e-17 3.1618639952506307e-15 17.499999999999954 4.9999999999999716 3.1618639952506307e-15 0 -1 forward_v I I I I 
	cone 204.45038369333122 -43.364273176791698 105 -5.5511151231257847e-16 0 -1 -12.499999999999998 0 6.93889390390723e-15 1 I I 0.13756837127468774 0.99049227317775157 12.499999999999998 forward I I I I 
	nullbs 
	nullbs 
	I I 
	0 
	0 
	0 
	} F -3.6455384742630272 F -2.7679567170898949 #
truecolor-adesk-attrib $-1 -1 $192 $-1 $105 -1026829585 #
intcurve-curve $-1 -1 $-1 reversed { surfintcur full nubs 3 periodic 19 
	0 3 0.19546496373039837 2 0.39093495517503185 2 0.58293392755154505 2 0.77428167599673647 2 
	0.99585285667398504 2 1.3178747407697942 2 1.5715486502712446 2 1.7273166971506266 2 1.8445284632899321 2 
	1.9587820148139079 2 2.1155920794380161 2 2.3838814340473258 2 2.7283758327099252 2 2.9515073980190882 2 
	3.1413340431484071 2 3.3252609352061566 2 3.485436123108471 2 3.6455384742638488 3 
	204.45038369333128 -31.347306707919245 108.47784142411813 
	205.10193357243259 -31.347306707919245 108.47784142411813 
	205.74675698016947 -31.416565277168104 108.58472577513106 
	206.95052450827123 -31.669577156567527 109.00920588162541 
	207.497441546636 -31.850510875589237 109.32284971181411 
	208.41199338109243 -32.252255494330655 110.13480939567876 
	208.77120788996177 -32.466126823148954 110.6200777017269 
	209.27370929561974 -32.848036981725727 111.72791775189729 
	209.40801645115391 -33.00681408436725 112.32572940345213 
	209.48101640287678 -33.251491650049672 113.67918952939903 
	209.38388411214143 -33.316763869294391 114.41602655345389 
	208.92150080603895 -33.367003784685949 116.16702787990603 
	208.44981908015143 -33.306656158527176 117.16722459742198 
	207.46744848922515 -33.190777831094351 118.65927175104812 
	206.95065735474302 -33.131935868167716 119.26833089514659 
	206.03791990610165 -33.062662037848668 119.99422227648444 
	205.64752563646468 -33.04008475280034 120.22988177979103 
	204.9052378475231 -33.01757821134396 120.46712749867395 
	204.57938250461731 -33.013681250025343 120.50862029854184 
	203.92095487644332 -33.018943842780118 120.45287010621321 
	203.61039594606123 -33.027627036835725 120.36091878224499 
	202.91103957777096 -33.058797745553534 120.03382712292149 
	202.53987738025458 -33.085193799812828 119.75973488509909 
	201.65236831868205 -33.162620196175851 118.94140350973888 
	201.14250605093949 -33.225749395217804 118.27215728217158 
	200.18658051216059 -33.336733270690672 116.63727726078106 
	199.73598237716777 -33.383650763438652 115.53193570886691 
	199.42343688787048 -33.245950462732765 113.65493474534645 
	199.41096964767331 -33.13571344039849 112.9142333898925 
	199.67139309337415 -32.810528334388607 111.594687886087 
	199.89708706177879 -32.621345568355991 111.03631247977192 
	200.55875625070755 -32.22086771151163 110.05835155274016 
	200.97705326669012 -32.018828446928637 109.65238726263473 
	201.89670542096619 -31.694234922052431 109.04921818999961 
	202.37330226922785 -31.567525983961275 108.83625778912031 
	203.38654422372773 -31.393492669978173 108.54972875667249 
	203.91670918948 -31.347306707919245 108.47784142411813 
	204.45038369333128 -31.347306707919245 108.47784142411813 
	0.00060767323016180301 
	torus 204.45038369333119 -43.364273176791698 127.49999999999989 1 -7.5901360538062043e-17 3.1618639952506307e-15 17.499999999999954 4.9999999999999716 3.1618639952506307e-15 0 -1 forward_v I I I I 
	cone 204.45038369333122 -43.364273176791698 105 -5.5511151231257847e-16 0 -1 -12.499999999999998 0 6.93889390390723e-15 1 I I 0.13756837127468774 0.99049227317775157 12.499999999999998 forward I I I I 
	nullbs 
	nullbs 
	I I 
	0 
	0 
	0 
	} F -0.88040498856102767 F 4.8167961079564972e-15 #
edge $193 -1 $-1 $108 -3.6455384742633576 $180 -2.7679567170902231 $106 $194 forward @7 unknown #
DXID-attrib $-1 -1 $-1 $107 $69 @18 ASM_EDGE_FROM_STEP @5 27689 #
point $-1 -1 $-1 204.45038369333122 -31.347306707919188 108.47784142411818 #
DXID-attrib $-1 -1 $-1 $112 $74 @18 ASM_EDGE_FROM_STEP @4 6031 #
DXID-attrib $-1 -1 $-1 $115 $80 @18 ASM_FACE_FROM_STEP @16 step-2M-515-5378 #
truecolor-adesk-attrib $-1 -1 $195 $-1 $116 -1026829585 #
face $196 -1 $-1 $172 $197 $3 $-1 $198 forward single #
loop $-1 -1 $-1 $-1 $161 $116 #
cone-surface $-1 -1 $-1 204.45038369333122 -43.364273176791698 114.00000000001143 0 0 -1 -11.249999999831742 0 0 1 I I 0.99607264069268386 0.088539790283824249 11.249999999831742 forward I I I I #
coedge $-1 -1 $-1 $136 $178 $118 $162 reversed $159 $-1 #
edge $199 -1 $-1 $139 -0.010408959095033832 $186 1.2899943391891756e-13 $118 $200 forward @7 unknown #
coedge $-1 -1 $-1 $170 $120 $141 $184 reversed $28 $-1 #
coedge $-1 -1 $-1 $201 $201 $120 $165 reversed $197 $-1 #
edge $202 -1 $-1 $168 -3.1415926535897931 $203 0 $120 $204 forward @7 unknown #
coedge $-1 -1 $-1 $121 $141 $201 $205 forward $95 $-1 #
truecolor-adesk-attrib $-1 -1 $206 $-1 $122 -1026829585 #
vertex $-1 -1 $-1 $122 $207 #
straight-curve $-1 -1 $-1 216.95038369333122 -43.364273176791698 105 137.56837127468719 1.6847266554546108e-14 -990.49227317775171 F -0.0090863909226931265 F -3.0546314649867937e-19 #
coedge $-1 -1 $-1 $123 $163 $178 $208 forward $28 $-1 #
edge $209 -1 $-1 $129 1.5707963267948966 $148 2.6851294106348544 $143 $210 forward @7 unknown #
face $211 -1 $-1 $-1 $126 $3 $-1 $212 forward single #
DXID-attrib $-1 -1 $-1 $127 $86 @18 ASM_EDGE_FROM_STEP @5 20565 #
point $-1 -1 $-1 209.4091161345373 -33.266081626987784 113.99999999999966 #
point $-1 -1 $-1 215.70038369333122 -43.364273176791698 114 #
DXID-attrib $-1 -1 $-1 $131 $87 @18 ASM_EDGE_FROM_STEP @3 299 #
DXID-attrib $-1 -1 $-1 $133 $88 @18 ASM_EDGE_FROM_STEP @4 9912 #
coedge $-1 -1 $-1 $161 $136 $170 $208 reversed $159 $-1 #
truecolor-adesk-attrib $-1 -1 $213 $-1 $137 -1026829585 #
vertex $-1 -1 $-1 $152 $214 #
intcurve-curve $-1 -1 $-1 reversed { surfintcur full nubs 3 periodic 48 
	-7.4604791599693261 3 -7.4185118516555679 2 -7.3492508902203015 2 -7.2043575653836811 2 -7.0201282194729808 2 
	-6.7905345872249345 2 -6.5072606018834653 2 -6.1628959054417223 2 -5.8441923669616758 2 -5.7057807778972389 2 
	-5.6455787072267318 2 -5.5692767693777485 2 -5.5220167738073886 2 -5.4671688551352187 2 -5.3912966526720725 2 
	-5.3306239613312361 2 -5.2114507380648023 2 -4.8669318566112967 2 -4.5403021152113263 2 -4.314659397854558 2 
	-4.1463449608248863 2 -4.013094909895619 2 -3.8783138725369457 2 -3.8143994437239046 2 -3.7698385120109967 2 
	-3.7249865237659825 2 -3.6597277103567474 2 -3.5103555771080837 2 -3.3549731014569462 2 -3.1475297751333953 2 
	-2.8975987534926233 2 -2.5139471279453427 2 -2.3517793079363298 2 -2.2888074713879702 2 -2.2153933683588316 2 
	-2.1527865420093577 2 -2.0956156030741764 2 -1.9913680355656396 2 -1.927187907383038 2 -1.7999724710739606 2 
	-1.347420176490264 2 -0.94584005125218573 2 -0.66878243097013923 2 -0.46229475070658349 2 -0.29894916510200686 2 
	-0.13305762452868861 2 -0.054548574027044841 2 0 3 
	204.45038369333125 -25.799281683649326 113.43866742282806 
	204.59027472104378 -25.799281683649326 113.43866742282806 
	204.73000395550275 -25.80641339619001 113.43915267728875 
	205.09883850581991 -25.844086165923102 113.44171801921252 
	205.32540249382785 -25.886672197257383 113.44461848328338 
	206.01129081244838 -26.074472715123875 113.45744693141586 
	206.44736984616253 -26.278852093712544 113.47143919954735 
	207.35179658617409 -26.886153788062245 113.5135474177558 
	207.78505529310036 -27.319539619503075 113.54390107630606 
	208.58687414743554 -28.42662280251534 113.62318690918815 
	208.90623954281875 -29.122291062268062 113.67410161977102 
	209.37773071510975 -30.74782636462794 113.79699893227925 
	209.49995073831207 -31.78382519844547 113.87771285076619 
	209.34903919298529 -34.371256497107993 114.09097576246296 
	208.99815567988963 -35.775230180352821 114.21405465808833 
	208.04669073261002 -38.345125327518929 114.45174721741024 
	207.45789036240484 -39.543903109213943 114.56849592268632 
	206.53575733879651 -41.18166863371539 114.73187930315193 
	206.28980971762883 -41.594640312275715 114.77388050280931 
	205.80910797205109 -42.374492132196224 114.85079675763258 
	205.71440843841125 -42.525529047402188 114.86540786888912 
	205.49101527401655 -42.897341519152292 114.89915203430684 
	205.41287939148509 -43.041108383612595 114.91025609476031 
	205.34484828440122 -43.234082165780819 114.91987152796011 
	205.33225552855168 -43.299672153593974 114.921613855632 
	205.33236125323202 -43.440061320855364 114.92159912048413 
	205.3494449995537 -43.516180486069288 114.91924053601858 
	205.43312007193433 -43.727316172715007 114.90735858135203 
	205.5170805180916 -43.876255588956269 114.89531995101461 
	205.74775404340588 -44.256772597871986 114.86026216271659 
	205.85609717533237 -44.429772625195938 114.84340389300709 
	206.28796421276684 -45.132198474785469 114.77385657821807 
	206.52174621574662 -45.524910832971955 114.73411272565312 
	207.49085581958261 -47.235685511419149 114.56329602038505 
	208.14298970046474 -48.573949273747303 114.43315254908137 
	209.07862990090308 -51.255110651570021 114.18732241637673 
	209.38865566369171 -52.619492023486487 114.0687411382482 
	209.4791677519076 -54.935476839137777 113.87899396999154 
	209.39310437987615 -55.886555853419054 113.8042858396917 
	208.95410298195009 -57.468682344752551 113.68439084896615 
	208.67492569418192 -58.116477118984051 113.63674824861752 
	207.98832229237831 -59.160650400735335 113.56154436443276 
	207.62259100078313 -59.576453547401002 113.5322033109685 
	206.7645552037622 -60.273450274190225 113.48355873080637 
	206.27924208764205 -60.545946910585485 113.46485443949489 
	205.50453965944047 -60.800934159331746 113.44740968670334 
	205.24915538829421 -60.859582803444312 113.44341303421467 
	204.80932221635192 -60.917618727049614 113.43945967732532 
	204.62774938982031 -60.929448269695683 113.43865492710505 
	204.26341062960191 -60.929075549342372 113.43868029429645 
	204.08136174430226 -60.916717080150363 113.43952104468156 
	203.63834173184242 -60.857178241709789 113.44357691016675 
	203.38070844190048 -60.796928271588513 113.44768298974734 
	202.55732898936648 -60.522169656433221 113.46648295865558 
	202.03560948809732 -60.213758678594047 113.48766127909315 
	201.10700463216347 -59.407475065570566 113.5440822596284 
	200.71635262945497 -58.912400328793979 113.5791864449557 
	199.99304213871255 -57.642733650017192 113.67142673409609 
	199.72854124973688 -56.840513425065012 113.73128201374293 
	199.41243701375058 -55.026548554118222 113.87169806154985 
	199.39112649509354 -53.867925582858561 113.9643797679703 
	199.93699180258372 -50.508025101731164 114.25115723094976 
	200.74322839151012 -48.580970428500962 114.43201432519638 
	201.96642643419455 -46.235626964123071 114.66278357088362 
	202.33994623184381 -45.583880700295538 114.72854889649538 
	202.9310845671136 -44.612865430107604 114.82538376115016 
	203.07383338797408 -44.384086169189743 114.84791045699225 
	203.30604653408139 -44.006157340264451 114.88371120561501 
	203.39589895879487 -43.855503412624159 114.89692773282161 
	203.51024117224773 -43.62906936049751 114.91346732495145 
	203.54298356104485 -43.544350646048883 114.91804499037698 
	203.57220346320128 -43.395235470836667 114.92213308862262 
	203.57179822832543 -43.32855802497545 114.92207702319288 
	203.53110897603756 -43.128733828471809 114.91638243641927 
	203.4570501353524 -42.980091748125403 114.90610770197296 
	203.23888014705631 -42.611206725046827 114.87342102068547 
	203.13415386813136 -42.442867819347555 114.85739281663771 
	202.73917175546859 -41.803448956012687 114.79469416930974 
	202.55248319251467 -41.495217016684819 114.76339293269015 
	201.53966132454005 -39.752935941648502 114.58892620765309 
	200.82222853971848 -38.320910291744383 114.44864193746504 
	199.83753281535832 -35.533105734908588 114.19258990189013 
	199.51996046087837 -34.161948334194221 114.07322115664327 
	199.41937220484192 -31.834104945641684 113.88225892999029 
	199.50175902144252 -30.878335620208929 113.8070998506708 
	199.9359060023483 -29.287850151079624 113.6864688931088 
	200.21333552131304 -28.636494616450477 113.63853069043431 
	200.89781136792038 -27.586042348503156 113.56283362944123 
	201.26283934939829 -27.167505688821507 113.53328697316948 
	202.12218824950614 -26.463594078593815 113.48414401182312 
	202.60996882638955 -26.187611908870167 113.4651981850634 
	203.38895388552027 -25.929448158063337 113.44753491328618 
	203.64547702998897 -25.870093652889977 113.44349005420983 
	204.08674340918253 -25.811330361376577 113.43948708521833 
	204.26855511324109 -25.799281683649326 113.43866742282806 
	204.45038369333125 -25.799281683649326 113.43866742282806 
	0.00040257833063653617 
	torus 204.45038369333119 -43.364273176791698 127.49999999999997 1 -1.5701245941077019e-16 2.78430518179992e-15 17.499999999999957 5.0000000000000213 2.7843051817999204e-15 0 -1 forward_v I I I I 
	cone 204.45038369333122 -43.364273176791698 114.00000000001143 0 0 -1 -11.249999999831742 0 0 1 I I 0.99607264069268386 0.088539790283824249 11.249999999831742 forward I I I I 
	nullbs 
	nullbs 
	I I 
	0 
	0 
	0 
	} F 0.99267621915165127 F 2.1248451902270125 #
DXID-attrib $-1 -1 $-1 $138 $92 @18 ASM_EDGE_FROM_STEP @5 27374 #
point $-1 -1 $-1 203.56846306615193 -43.36427317680716 114.92160705535863 #
edge $215 -1 $-1 $186 -0.0090863909226985787 $203 3.0546314649868193e-19 $163 $216 forward @7 unknown #
truecolor-adesk-attrib $-1 -1 $217 $-1 $142 -1026829585 #
vertex $-1 -1 $-1 $184 $218 #
ellipse-curve $-1 -1 $-1 204.45038369333122 -43.364273176791698 114 0 0 -1 6.888410740250878e-16 11.249999999999998 0 1 F -2.6851294106348735 F -1.5707963267948968 #
truecolor-adesk-attrib $-1 -1 $219 $-1 $146 -1026829585 #
intcurve-curve $-1 -1 $-1 reversed { surfintcur full nubs 3 periodic 48 
	-7.4604793095445805 3 -7.4185120096882802 2 -7.3492510531820647 2 -7.2043577529603597 2 -7.0201284179278227 2 
	-6.7905348031977955 2 -6.5072608378026304 2 -6.1628961497480494 2 -5.8441925340061953 2 -5.7057809246738227 2 
	-5.6455788522450128 2 -5.5692769090133751 2 -5.5220169114516091 2 -5.4671689911562744 2 -5.3912967847285236 2 
	-5.3306240908860349 2 -5.2114508640094499 2 -4.8669319639929132 2 -4.5403022080212372 2 -4.3146594809656547 2 
	-4.1463450369685484 2 -4.0130949807336549 2 -3.8783139381592555 2 -3.814399506981367 2 -3.7698385737014499 2 
	-3.7249865839587533 2 -3.6597277684902192 2 -3.5103556306783883 2 -3.3549731505389229 2 -3.1475298185404381 2 
	-2.8975987904348379 2 -2.5139471552836961 2 -2.3517793315437046 2 -2.2888074936388207 2 -2.2153933891274176 2 
	-2.1527865616155371 2 -2.0956156216959259 2 -1.99136805254348 2 -1.9271879234437868 2 -1.7999724855018879 2 
	-1.3474201858144048 2 -0.94584005664734849 2 -0.66878243407164417 2 -0.46229475240952006 2 -0.2989491659444527 2 
	-0.13305762474695076 2 -0.054548574068093984 2 0 3 
	204.45038369333125 -25.799281683650406 113.43866742282673 
	204.59027469285223 -25.799281683650406 113.43866742282673 
	204.73000389921745 -25.806413393316689 113.43915267709187 
	205.09883840591954 -25.844086150976295 113.44171801819297 
	205.32540237908376 -25.886672173339093 113.44461848165179 
	206.01129061003286 -26.074472644015771 113.45744692654964 
	206.44736958221904 -26.278851962297267 113.47143919053094 
	207.35179627517056 -26.886153520977814 113.51354739911278 
	207.78505499355055 -27.319539291681792 113.54390105317987 
	208.58687388738826 -28.426622336574496 113.62318687537865 
	208.90623931884983 -29.12229051817485 113.67410157955223 
	209.37773059528629 -30.747825670123461 113.79699887863892 
	209.49995069031885 -31.78382441324743 113.87771278848818 
	209.34903936334155 -34.371255531138502 114.09097567987874 
	208.99815596684039 -35.775229164449115 114.21405456752402 
	208.04669109759223 -38.345124564608227 114.45174714370486 
	207.45789062276975 -39.543902626064209 114.56849587479712 
	206.5357574395868 -41.181668463696894 114.73187928605921 
	206.2898097833006 -41.594640204977111 114.77388049208771 
	205.80910800185396 -42.374492084155293 114.85079675295863 
	205.71440845935896 -42.525529013582286 114.86540786566735 
	205.49101528426931 -42.897341500708251 114.89915203283374 
	205.41287939683485 -43.041108371665018 114.91025609399981 
	205.34484828609914 -43.234082158853425 114.91987152772447 
	205.33225552935613 -43.299672147022648 114.92161385552086 
	205.33236125222822 -43.440061313600722 114.92159912062499 
	205.34944499720967 -43.516180477659191 114.91924053634554 
	205.43312006649143 -43.727316162575107 114.90735858213552 
	205.51708051204579 -43.876255578706264 114.8953199519127 
	205.74775403717004 -44.25677258784782 114.86026216368305 
	205.85609716661611 -44.429772611165959 114.84340389438344 
	206.28796419983902 -45.132198453511137 114.77385658035742 
	206.52174619767999 -45.52491080237246 114.73411272872849 
	207.49085580516439 -47.235685482253814 114.56329602324679 
	208.14298969343923 -48.573949255213336 114.43315255080272 
	209.0786298991095 -51.255110644918318 114.18732241696736 
	209.38865566291588 -52.619492017428854 114.06874113875828 
	209.47916775209967 -54.935476834524707 113.87899397035979 
	209.39310438063396 -55.88655584928199 113.80428584001025 
	208.95410298312009 -57.468682341583474 113.68439084920135 
	208.67492569566485 -58.116477116223678 113.63674824881755 
	207.98832229400261 -59.160650398663449 113.56154436457915 
	207.62259100256665 -59.576453545675577 113.53220331108847 
	206.76455520542336 -60.273450273118613 113.48355873087911 
	206.27924208913882 -60.54594690997817 113.46485443953517 
	205.50453966032174 -60.800934159094425 113.44740968671813 
	205.2491553890747 -60.859582803310047 113.44341303422242 
	204.80932221693743 -60.917618726992259 113.4394596773278 
	204.62774939038371 -60.92944826967738 113.43865492710489 
	204.26341063016693 -60.929075549359709 113.43868029429386 
	204.08136174488899 -60.916717080207036 113.4395210446763 
	203.63834173263095 -60.857178241845418 113.44357691015611 
	203.38070844279048 -60.796928271829472 113.44768298972949 
	202.55732899054311 -60.522169656950496 113.46648295861876 
	202.03560948911326 -60.213758679348814 113.48766127903941 
	201.10700463311031 -59.407475066523034 113.54408225956021 
	200.71635263024663 -58.912400329974162 113.57918644486983 
	199.99304213947386 -57.642733651630977 113.67142673397679 
	199.72854125019975 -56.840513426918449 113.73128201360123 
	199.41243701398142 -55.026548556408329 113.87169806136933 
	199.39112649485799 -53.867925585571243 113.96437976774487 
	199.93699180186985 -50.508025104188448 114.25115723073114 
	200.74322839082666 -48.580970429725369 114.43201432507533 
	201.96642643416703 -46.235626964218966 114.66278357087675 
	202.3399462317073 -45.583880700519899 114.72854889647536 
	202.93108456708489 -44.61286543017161 114.82538376114638 
	203.07383338797518 -44.38408616920583 114.84791045699393 
	203.30604653406633 -44.006157340311177 114.88371120561361 
	203.39589895882168 -43.855503412618987 114.89692773282678 
	203.51024117226075 -43.629069360505696 114.91346732495421 
	203.54298356107361 -43.544350646056046 114.91804499038201 
	203.57220346322003 -43.395235470861394 114.92213308862617 
	203.57179822836116 -43.328558025004895 114.92207702319881 
	203.53110897607596 -43.128733828558552 114.91638243642566 
	203.45705013546967 -42.980091748290931 114.90610770199154 
	203.23888014713071 -42.611206725150282 114.87342102069786 
	203.13415386823758 -42.442867819501089 114.85739281665579 
	202.73917175566183 -41.803448956314867 114.79469416934178 
	202.55248319266565 -41.495217016935953 114.76339293271762 
	201.53966132512537 -39.752935942648435 114.5889262077548 
	200.82222854010587 -38.320910292838221 114.44864193756671 
	199.83753281570705 -35.533105735895333 114.19258990198125 
	199.51996046092341 -34.161948335231727 114.07322115672858 
	199.41937220487284 -31.834104946358309 113.88225893004878 
	199.50175902125517 -30.87833562089628 113.80709985072244 
	199.9359060022085 -29.287850151592352 113.68646889314688 
	200.21333552102504 -28.636494616893401 113.6385306904653 
	200.89781136769255 -27.586042348853653 113.56283362946539 
	201.26283934907707 -27.167505689085658 113.53328697318673 
	202.12218824917991 -26.463594078862002 113.48414401184053 
	202.60996882599127 -26.187611909003238 113.46519818507117 
	203.3889538853318 -25.929448158126888 113.44753491328913 
	203.64547702979289 -25.870093652917149 113.4434900542103 
	204.08674340904645 -25.81133036139579 113.43948708521822 
	204.26855511310427 -25.799281683650406 113.43866742282673 
	204.45038369333125 -25.799281683650406 113.43866742282673 
	0.00040257841159596337 
	torus 204.45038369333119 -43.364273176791698 127.49999999999989 1 -7.5901360538062043e-17 3.1618639952506307e-15 17.499999999999954 4.9999999999999716 3.1618639952506307e-15 0 -1 forward_v I I I I 
	cone 204.45038369333122 -43.364273176791698 114.00000000001143 0 0 -1 -11.249999999831742 0 0 1 I I 0.99607264069266399 0.088539790284048542 11.249999999831742 forward I I I I 
	nullbs 
	nullbs 
	I I 
	0 
	0 
	0 
	} F 4.5822036939238879 F 6.4818114293212412 #
DXID-attrib $-1 -1 $-1 $147 $100 @18 ASM_EDGE_FROM_STEP @5 26821 #
point $-1 -1 $-1 209.40911613453744 -53.462464726595385 113.99999999999824 #
DXID-attrib $-1 -1 $-1 $150 $105 @18 ASM_EDGE_FROM_STEP @5 27381 #
truecolor-adesk-attrib $-1 -1 $220 $-1 $152 -1026829585 #
intcurve-curve $-1 -1 $-1 reversed { surfintcur full nubs 3 periodic 19 
	0 3 0.19546496373043701 2 0.3909349551751502 2 0.58293392755181228 2 0.77428167599723019 2 
	0.99585285667481971 2 1.3178747407712454 2 1.5715486502726079 2 1.7273166971516904 2 1.8445284632908663 2 
	1.958782014814761 2 2.1155920794387733 2 2.3838814340478081 2 2.7283758327098786 2 2.9515073980188125 2 
	3.1413340431480008 2 3.3252609352056992 2 3.4854361231080144 2 3.6455384742633616 3 
	204.45038369333125 -31.347306707919245 108.47784142411814 
	205.1019335724327 -31.347306707919245 108.47784142411814 
	205.74675698016958 -31.416565277168104 108.58472577513113 
	206.95052450827126 -31.669577156567527 109.00920588162546 
	207.49744154663608 -31.850510875589293 109.32284971181416 
	208.4119933810926 -32.252255494330711 110.13480939567887 
	208.77120788996189 -32.466126823149011 110.62007770172706 
	209.27370929561982 -32.848036981725784 111.72791775189744 
	209.40801645115397 -33.006814084367306 112.3257294034523 
	209.48101640287683 -33.251491650049729 113.6791895293992 
	209.38388411214146 -33.316763869294391 114.41602655345403 
	208.92150080603892 -33.367003784686005 116.16702787990634 
	208.44981908015131 -33.306656158527176 117.16722459742226 
	207.46744848922629 -33.190777831094522 118.65927175104652 
	206.95065735474418 -33.13193586816783 119.26833089514582 
	206.03791990610154 -33.062662037848668 119.99422227648469 
	205.64752563646459 -33.040084752800283 120.22988177979121 
	204.90523784752293 -33.01757821134396 120.46712749867413 
	204.5793825046172 -33.0136812500254 120.50862029854194 
	203.92095487644332 -33.018943842780118 120.45287010621334 
	203.61039594606126 -33.027627036835781 120.36091878224516 
	202.91103957777088 -33.058797745553534 120.03382712292159 
	202.5398773802545 -33.085193799812885 119.75973488509914 
	201.65236831868248 -33.162620196175851 118.94140350973943 
	201.14250605093986 -33.225749395217804 118.27215728217242 
	200.18658051216036 -33.336733270690729 116.63727726078086 
	199.73598237716766 -33.383650763438652 115.53193570886665 
	199.42343688787042 -33.245950462732822 113.65493474534644 
	199.41096964767326 -33.13571344039849 112.91423338989249 
	199.67139309337409 -32.810528334388607 111.594687886087 
	199.89708706177876 -32.621345568355991 111.03631247977192 
	200.55875625070752 -32.22086771151163 110.05835155274013 
	200.97705326669021 -32.01882844692858 109.65238726263473 
	201.89670542096607 -31.694234922052431 109.04921818999969 
	202.37330226922762 -31.567525983961332 108.83625778912035 
	203.38654422372775 -31.393492669978173 108.54972875667247 
	203.91670918948009 -31.347306707919245 108.47784142411814 
	204.45038369333125 -31.347306707919245 108.47784142411814 
	0.00060767323017968356 
	torus 204.45038369333119 -43.364273176791698 127.49999999999997 1 -1.5701245941077019e-16 2.78430518179992e-15 17.499999999999957 5.0000000000000213 2.7843051817999204e-15 0 -1 forward_v I I I I 
	cone 204.45038369333122 -43.364273176791698 105 -5.5511151231257847e-16 0 -1 -12.499999999999998 0 6.93889390390723e-15 1 I I 0.13756837127468774 0.99049227317775157 12.499999999999998 forward I I I I 
	nullbs 
	nullbs 
	I I 
	0 
	0 
	0 
	} F -3.6455384742633576 F -2.7679567170902231 #
DXID-attrib $-1 -1 $-1 $157 $116 @18 ASM_FACE_FROM_STEP @17 step-2M-515-19703 #
truecolor-adesk-attrib $-1 -1 $221 $-1 $158 -1026829585 #
loop $-1 -1 $-1 $-1 $201 $158 #
plane-surface $-1 -1 $-1 204.45038369333122 -37.114273176791698 105 0 0 -1 -1 0 0 forward_v I I I I #
truecolor-adesk-attrib $-1 -1 $222 $-1 $162 -1026829585 #
straight-curve $-1 -1 $-1 193.20038369349948 -43.364273176791698 114.00000000001143 -996.07264069268399 0 -88.539790283824246 F -0.010408959095033832 F 1.2899943391891756e-13 #
coedge $-1 -1 $-1 $164 $164 $166 $205 reversed $197 $-1 #
truecolor-adesk-attrib $-1 -1 $223 $-1 $165 -1026829585 #
vertex $-1 -1 $-1 $165 $224 #
ellipse-curve $-1 -1 $-1 204.45038369333122 -43.364273176791698 105 5.5511151231257847e-16 0 1 -12.499999999999998 0 6.93889390390723e-15 1 F -3.1415926535897931 F 0 #
edge $225 -1 $-1 $203 0 $168 3.1415926535897931 $166 $226 forward @7 unknown #
DXID-attrib $-1 -1 $-1 $167 $122 @18 ASM_EDGE_FROM_STEP @5 25698 #
point $-1 -1 $-1 216.95038369333122 -43.364273176791698 105 #
edge $227 -1 $-1 $186 -1.5707963267948968 $180 -0.45646324295493712 $170 $228 forward @7 unknown #
truecolor-adesk-attrib $-1 -1 $229 $-1 $171 -1026829585 #
ellipse-curve $-1 -1 $-1 204.45038369333122 -43.364273176791698 114 0 0 -1 6.888410740250878e-16 11.249999999999998 0 1 F 1.5707963267948966 F 2.6851294106348544 #
truecolor-adesk-attrib $-1 -1 $230 $-1 $172 -1026829585 #
cone-surface $-1 -1 $-1 204.45038369333122 -43.364273176791698 114.00000000001143 0 0 -1 -11.249999999831742 0 0 1 I I 0.99607264069266399 0.088539790284048542 11.249999999831742 forward I I I I #
DXID-attrib $-1 -1 $-1 $179 $137 @18 ASM_EDGE_FROM_STEP @4 9014 #
point $-1 -1 $-1 199.491651252125 -33.266081626987955 113.99999999999824 #
truecolor-adesk-attrib $-1 -1 $231 $-1 $184 -1026829585 #
straight-curve $-1 -1 $-1 191.95038369333122 -43.364273176791698 105.00000000000001 -137.56837127468833 0 -990.49227317775149 F -0.0090863909226985787 F 3.0546314649868193e-19 #
DXID-attrib $-1 -1 $-1 $185 $142 @18 ASM_EDGE_FROM_STEP @5 11862 #
point $-1 -1 $-1 193.20038369337098 -43.364273176791698 114 #
DXID-attrib $-1 -1 $-1 $188 $146 @18 ASM_EDGE_FROM_STEP @5 17356 #
DXID-attrib $-1 -1 $-1 $193 $152 @18 ASM_EDGE_FROM_STEP @5 18189 #
DXID-attrib $-1 -1 $-1 $196 $158 @18 ASM_FACE_FROM_STEP @17 step-2M-515-24970 #
DXID-attrib $-1 -1 $-1 $199 $162 @18 ASM_EDGE_FROM_STEP @5 16662 #
DXID-attrib $-1 -1 $-1 $202 $165 @18 ASM_EDGE_FROM_STEP @4 7315 #
point $-1 -1 $-1 191.95038369333122 -43.364273176791698 105.00000000000001 #
truecolor-adesk-attrib $-1 -1 $232 $-1 $205 -1026829585 #
ellipse-curve $-1 -1 $-1 204.45038369333122 -43.364273176791698 105 5.5511151231257847e-16 0 1 -12.499999999999998 0 6.93889390390723e-15 1 F 0 F 3.1415926535897931 #
truecolor-adesk-attrib $-1 -1 $233 $-1 $208 -1026829585 #
ellipse-curve $-1 -1 $-1 204.45038369333122 -43.364273176791698 114 0 0 -1 6.888410740250878e-16 11.249999999999998 0 1 F -1.5707963267948968 F -0.45646324295493712 #
DXID-attrib $-1 -1 $-1 $209 $171 @18 ASM_EDGE_FROM_STEP @4 6891 #
DXID-attrib $-1 -1 $-1 $211 $172 @18 ASM_FACE_FROM_STEP @16 step-2M-515-4642 #
DXID-attrib $-1 -1 $-1 $215 $184 @18 ASM_EDGE_FROM_STEP @5 27644 #
DXID-attrib $-1 -1 $-1 $225 $205 @18 ASM_EDGE_FROM_STEP @5 13454 #
DXID-attrib $-1 -1 $-1 $227 $208 @18 ASM_EDGE_FROM_STEP @4 9785 #
