700 68 1 0          
5 ZWCAD 12 ACIS 28.0 NT 24 Mon May 13 09:54:35 2024 
1 9.9999999999999995e-07 1e-10 
body $1 -1 $-1 $2 $-1 $-1 #
DXID-attrib $-1 -1 $-1 $-1 $0 @18 ASM_BODY_FROM_STEP @83 0ACCE67F8EE6137867C285904DBC537D516F17C0|:|4547543E0F51AB4EA59512EE14D3C2421C210371 #
lump $-1 -1 $-1 $-1 $3 $0 #
shell $-1 -1 $-1 $-1 $-1 $4 $-1 $2 #
face $5 -1 $-1 $6 $7 $3 $-1 $8 forward single #
truecolor-adesk-attrib $-1 -1 $9 $-1 $4 -1029660512 #
face $10 -1 $-1 $11 $12 $3 $-1 $13 forward single #
loop $-1 -1 $-1 $-1 $14 $4 #
torus-surface $-1 -1 $-1 -87.553103677799655 -45.997079540908871 -26.921257477290993 7.0808431139296589e-09 0.99999999999999956 -3.210712448282235e-08 0.002170673404559724 1.1500000000558106 0 3.2107124482822343e-08 0.99999999999999956 forward_v I I I I #
DXID-attrib $-1 -1 $-1 $5 $4 @18 ASM_FACE_FROM_STEP @16 step-1M-255-6611 #
truecolor-adesk-attrib $-1 -1 $15 $-1 $6 -1029660512 #
face $16 -1 $-1 $17 $18 $3 $-1 $19 reversed single #
loop $-1 -1 $-1 $-1 $20 $6 #
cone-surface $-1 -1 $-1 -87.553103677784748 -44.147079540964747 -26.921257477339104 0 1 0 1.1521706734292501 0 0 1 I I 0 1 1.1521706734292501 forward I I I I #
coedge $-1 -1 $-1 $21 $22 $23 $24 reversed $7 $-1 #
DXID-attrib $-1 -1 $-1 $10 $6 @18 ASM_FACE_FROM_STEP @16 step-1M-255-6612 #
truecolor-adesk-attrib $-1 -1 $25 $-1 $11 -1029660512 #
face $26 -1 $-1 $-1 $27 $3 $-1 $28 forward single #
loop $-1 -1 $-1 $-1 $23 $11 #
plane-surface $-1 -1 $-1 -87.553103677784748 -47.147079540964739 -26.921257477339104 -5.53363362508678e-35 1 0 1 5.53363362508678e-35 0 forward_v I I I I #
coedge $-1 -1 $-1 $29 $30 $31 $32 forward $12 $-1 #
coedge $-1 -1 $-1 $31 $14 $22 $33 forward $7 $-1 #
coedge $-1 -1 $-1 $14 $34 $21 $33 reversed $7 $-1 #
coedge $-1 -1 $-1 $23 $23 $14 $24 forward $18 $-1 #
edge $35 -1 $-1 $36 -1.5707963267948966 $36 4.7123889803846897 $14 $37 forward @7 unknown #
DXID-attrib $-1 -1 $-1 $16 $11 @18 ASM_FACE_FROM_STEP @16 step-1M-255-6613 #
truecolor-adesk-attrib $-1 -1 $38 $-1 $17 -1029660512 #
loop $-1 -1 $-1 $-1 $39 $17 #
plane-surface $-1 -1 $-1 -87.553103677784748 -44.147079540964747 -26.921257477339104 -5.53363362508678e-35 1 0 1 5.53363362508678e-35 0 forward_v I I I I #
coedge $-1 -1 $-1 $40 $20 $34 $41 forward $12 $-1 #
coedge $-1 -1 $-1 $20 $42 $40 $43 reversed $12 $-1 #
coedge $-1 -1 $-1 $34 $21 $20 $32 reversed $7 $-1 #
edge $44 -1 $-1 $45 -3.1415926535897931 $46 1.5707963267948966 $31 $47 forward @7 unknown #
edge $48 -1 $-1 $36 -1.5707963267948966 $46 0 $21 $49 forward @7 unknown #
coedge $-1 -1 $-1 $22 $31 $29 $41 reversed $7 $-1 #
truecolor-adesk-attrib $-1 -1 $50 $-1 $24 -1029660512 #
vertex $-1 -1 $-1 $24 $51 #
ellipse-curve $-1 -1 $-1 -87.553103677784748 -47.147079540964739 -26.921257477339104 5.5336336250867811e-35 -1 0 0.0021706734292537 1.2011711477200707e-37 0 1 I I #
DXID-attrib $-1 -1 $-1 $26 $17 @18 ASM_FACE_FROM_STEP @16 step-1M-255-6614 #
coedge $-1 -1 $-1 $39 $39 $42 $52 forward $27 $-1 #
coedge $-1 -1 $-1 $42 $29 $30 $43 forward $12 $-1 #
edge $53 -1 $-1 $46 1.5707963267948966 $45 3.1415926535897931 $34 $54 forward @7 unknown #
coedge $-1 -1 $-1 $30 $40 $39 $52 reversed $12 $-1 #
edge $55 -1 $-1 $45 -1.6056648920717358 $56 0 $40 $57 forward @7 unknown #
truecolor-adesk-attrib $-1 -1 $58 $-1 $32 -1029660512 #
vertex $-1 -1 $-1 $32 $59 #
vertex $-1 -1 $-1 $33 $60 #
ellipse-curve $-1 -1 $-1 -87.553103677784748 -45.997079540964741 -26.921257477339104 -5.53363362508678e-35 1 0 1.1521706734292501 6.375690380326977e-35 0 1 F -3.1415926535897931 F 1.5707963267948966 #
truecolor-adesk-attrib $-1 -1 $61 $-1 $33 -1029660512 #
ellipse-curve $-1 -1 $-1 -87.553103677784748 -45.997079540964741 -26.923428150768402 1 5.53363362508678e-35 0 0 0 -1.1499999999999999 1 F -1.5707963267948966 F 0 #
DXID-attrib $-1 -1 $-1 $35 $24 @18 ASM_EDGE_FROM_STEP @4 4117 #
point $-1 -1 $-1 -87.553103677784748 -47.147079540964739 -26.923428150768402 #
edge $62 -1 $-1 $56 -3.1415926535897931 $56 3.1415926535897931 $42 $63 forward @7 unknown #
truecolor-adesk-attrib $-1 -1 $64 $-1 $41 -1029660512 #
ellipse-curve $-1 -1 $-1 -87.553103677784748 -45.997079540964741 -26.921257477339104 -5.53363362508678e-35 1 0 1.1521706734292501 6.375690380326977e-35 0 1 F 1.5707963267948966 F 3.1415926535897931 #
truecolor-adesk-attrib $-1 -1 $65 $-1 $43 -1029660512 #
vertex $-1 -1 $-1 $43 $66 #
straight-curve $-1 -1 $-1 -88.705274351214044 -44.147079540964747 -26.921257477339104 0 1.1521706734292501 0 F -1.6056648920717358 F 0 #
DXID-attrib $-1 -1 $-1 $44 $32 @18 ASM_EDGE_FROM_STEP @4 4119 #
point $-1 -1 $-1 -88.705274351214044 -45.997079540964741 -26.921257477339104 #
point $-1 -1 $-1 -87.553103677784748 -45.997079540964741 -28.0734281507684 #
DXID-attrib $-1 -1 $-1 $48 $33 @18 ASM_EDGE_FROM_STEP @4 4118 #
truecolor-adesk-attrib $-1 -1 $67 $-1 $52 -1029660512 #
ellipse-curve $-1 -1 $-1 -87.553103677784748 -44.147079540964747 -26.921257477339104 -5.53363362508678e-35 1 0 1.1521706734292501 6.375690380326977e-35 0 1 I I #
DXID-attrib $-1 -1 $-1 $53 $41 @18 ASM_EDGE_FROM_STEP @4 4120 #
DXID-attrib $-1 -1 $-1 $55 $43 @18 ASM_EDGE_FROM_STEP @4 4121 #
point $-1 -1 $-1 -88.705274351214044 -44.147079540964747 -26.921257477339104 #
DXID-attrib $-1 -1 $-1 $62 $52 @18 ASM_EDGE_FROM_STEP @4 4122 #
