700 255 2 0         
16 Autodesk AutoCAD 20 ASM 229.2.0.65535 NT 24 Wed Mar  6 08:39:50 2024 
1 9.999999999999999547e-07 1.000000000000000036e-10 
body $2 -1 $-1 $3 $-1 $4 #
body $5 -1 $-1 $6 $-1 $7 #
DXID-attrib $-1 -1 $-1 $-1 $0 @18 ASM_BODY_FROM_STEP @83 CF3BC2F3D85DEDB07F97DAB395BE155A3BF92D38|:|A672822C3EDBA077218AE37043297185481572B2 #
lump $-1 -1 $-1 $-1 $8 $0 #
transform $-1 -1 1 0 0 0 1 0 0 0 1 0 0 0 1 no_rotate no_reflect no_shear #
DXID-attrib $-1 -1 $-1 $-1 $1 @18 ASM_BODY_FROM_STEP @83 CF3BC2F3D85DEDB07F97DAB395BE155A3BF92D38|:|1817F654752E9CF1A78D11D3004C9A5611698275 #
lump $-1 -1 $-1 $-1 $9 $1 #
transform $-1 -1 1 0 0 0 1 0 0 0 1 0 0 0 1 no_rotate no_reflect no_shear #
shell $-1 -1 $-1 $-1 $-1 $10 $-1 $3 #
shell $-1 -1 $-1 $-1 $-1 $11 $-1 $6 #
face $12 -1 $-1 $13 $14 $8 $-1 $15 forward single #
face $16 -1 $-1 $17 $18 $9 $-1 $19 forward single #
truecolor-adesk-attrib $-1 -1 $20 $-1 $10 -1033059110 #
face $21 -1 $-1 $22 $23 $8 $-1 $24 forward single #
loop $-1 -1 $-1 $-1 $25 $10 #
plane-surface $-1 -1 $-1 351.4299492260880129 490.4910788086190223 35 0 0 -1 -1 0 0 forward_v I I I I #
truecolor-adesk-attrib $-1 -1 $26 $-1 $11 -1037026410 #
face $27 -1 $-1 $28 $29 $9 $-1 $30 reversed single #
loop $-1 -1 $-1 $-1 $31 $11 #
spline-surface $-1 -1 $-1 forward { exactsur full nurbs 2 2 both periodic open none none 5 2 
	-3.141592653589790007 2 -1.570796326794900111 2 0 2 1.570796326794900111 2 3.141592653589790007 2 
	0 2 1.570796326794900111 2 
	568.3539927511709493 563.9066138938550239 -653.2113465774230008 1 
	549.4262934874279836 565.56257300606012 -653.2113465774230008 0.7071067811865370256 
	549.4262934874279836 565.56257300606012 -634.2113465774230008 1 
	549.4262934874279836 565.56257300606012 -615.2113465774230008 0.7071067811865550112 
	568.3539927511709493 563.9066138938550239 -615.2113465774230008 1 
	587.2816920149150519 562.2506547816490183 -615.2113465774230008 0.7071067811865550112 
	587.2816920149150519 562.2506547816490183 -634.2113465774230008 1 
	587.2816920149150519 562.2506547816490183 -653.2113465774230008 0.7071067811865370256 
	568.3539927511709493 563.9066138938550239 -653.2113465774230008 1 
	568.3539927511719725 1392.471809417810164 -653.2113465774230008 0.7071067811865480168 
	551.0822525996341028 1413.055467793760272 -653.2113465774230008 0.4999999999999920064 
	551.0822525996341028 1413.055467793760272 -634.2113465774230008 0.7071067811865480168 
	551.0822525996341028 1413.055467793760272 -615.2113465774230008 0.500000000000004996 
	568.3539927511719725 1392.471809417810164 -615.2113465774230008 0.7071067811865480168 
	585.6257329027090464 1371.888151041860056 -615.2113465774230008 0.500000000000004996 
	585.6257329027090464 1371.888151041860056 -634.2113465774230008 0.7071067811865480168 
	585.6257329027090464 1371.888151041860056 -653.2113465774230008 0.4999999999999920064 
	568.3539927511719725 1392.471809417810164 -653.2113465774230008 0.7071067811865480168 
	1396.919188275130182 1392.471809417810164 -653.2113465774230008 1 
	1398.575147387329935 1411.39950868155006 -653.2113465774230008 0.7071067811865370256 
	1398.575147387329935 1411.39950868155006 -634.2113465774230008 1 
	1398.575147387329935 1411.39950868155006 -615.2113465774230008 0.7071067811865550112 
	1396.919188275130182 1392.471809417810164 -615.2113465774230008 1 
	1395.26322916291997 1373.54411015407004 -615.2113465774230008 0.7071067811865550112 
	1395.26322916291997 1373.54411015407004 -634.2113465774230008 1 
	1395.26322916291997 1373.54411015407004 -653.2113465774230008 0.7071067811865370256 
	1396.919188275130182 1392.471809417810164 -653.2113465774230008 1 
	0 
	
	0 
	0 
	0 
	0 
	0 
	0 
	F 1 F 0 F 1 F 0 } I I I I #
color-adesk-attrib $-1 -1 $32 $12 $10 133 #
truecolor-adesk-attrib $-1 -1 $33 $-1 $13 -1033059110 #
face $34 -1 $-1 $35 $36 $8 $-1 $37 forward single #
loop $-1 -1 $-1 $-1 $38 $13 #
cone-surface $-1 -1 $-1 1488.337577275400236 490.4910788086190223 32.5 0 0 -1 -1136.907628049310006 -6.626919248077796663e-14 -0 1 I I 0 1 1136.907628049310006 forward I I I I #
coedge $-1 -1 $-1 $39 $40 $41 $42 reversed $14 $-1 #
color-adesk-attrib $-1 -1 $43 $16 $11 177 #
truecolor-adesk-attrib $-1 -1 $44 $-1 $17 -1037026410 #
face $45 -1 $-1 $-1 $46 $9 $-1 $47 forward single #
loop $-1 -1 $-1 $-1 $48 $17 #
plane-surface $-1 -1 $-1 1396.919188275130182 1392.471809417810164 -634.2113465774230008 -0.9961946980917455452 0.08715574274765836016 1.912869420538149289e-16 1.618002118471576204e-16 -3.453866367556610154e-16 1 forward_v I I I I #
coedge $-1 -1 $-1 $49 $50 $51 $52 reversed $18 $53 #
DXID-attrib $-1 -1 $-1 $20 $10 @18 ASM_FACE_FROM_STEP @18 step-22M-104-90521 #
color-adesk-attrib $-1 -1 $54 $21 $13 133 #
truecolor-adesk-attrib $-1 -1 $55 $-1 $22 -1033059110 #
face $56 -1 $-1 $57 $58 $8 $-1 $59 reversed single #
loop $-1 -1 $-1 $-1 $60 $22 #
plane-surface $-1 -1 $-1 353.4299492260870466 490.4910788086190223 30 0 0 -1 -1 0 0 forward_v I I I I #
coedge $-1 -1 $-1 $61 $62 $63 $64 reversed $23 $-1 #
coedge $-1 -1 $-1 $65 $25 $66 $67 forward $14 $-1 #
coedge $-1 -1 $-1 $25 $65 $61 $68 reversed $14 $-1 #
coedge $-1 -1 $-1 $63 $69 $25 $42 forward $70 $-1 #
edge $71 -1 $-1 $72 0 $73 8.209237195069000848 $25 $74 forward @7 unknown #
DXID-attrib $-1 -1 $-1 $26 $11 @18 ASM_FACE_FROM_STEP @18 step-22M-104-90518 #
color-adesk-attrib $-1 -1 $75 $27 $17 177 #
truecolor-adesk-attrib $-1 -1 $76 $-1 $28 -1037026410 #
loop $-1 -1 $-1 $-1 $51 $28 #
plane-surface $-1 -1 $-1 568.3539927511709493 563.9066138938550239 -634.2113465774230008 -0.08715574274765815199 -0.9961946980917455452 1.912869420538149289e-16 3.453866367556610647e-16 1.618002118471576697e-16 1 forward_v I I I I #
coedge $-1 -1 $-1 $48 $48 $77 $78 forward $29 $-1 #
coedge $-1 -1 $-1 $77 $31 $50 $79 forward $18 $80 #
coedge $-1 -1 $-1 $31 $77 $49 $79 reversed $18 $81 #
coedge $-1 -1 $-1 $51 $51 $31 $52 forward $46 $-1 #
edge $82 -1 $-1 $83 -3.141592653589793116 $83 3.141592653589793116 $31 $84 forward @7 unknown #
pcurve $-1 -1 $-1 0 forward { exppc nubs 1 periodic 2 
	-3.141592653589793116 1 3.141592653589793116 1 
	-3.141592653589790007 0 
	3.141592653589790451 0 
	3.771954002713424159e-10 
	spline forward { ref 0 } I I I I 
	} 0 0 #
DXID-attrib $-1 -1 $-1 $33 $13 @18 ASM_FACE_FROM_STEP @18 step-22M-104-90522 #
color-adesk-attrib $-1 -1 $85 $34 $22 133 #
truecolor-adesk-attrib $-1 -1 $86 $-1 $35 -1033059110 #
face $87 -1 $-1 $88 $89 $8 $-1 $90 forward single #
loop $-1 -1 $-1 $-1 $91 $35 #
cone-surface $-1 -1 $-1 1488.337577275400236 490.4910788086190223 33.5 0 0 -1 -1134.907628049310006 -6.615261450936533804e-14 -0 1 I I 0 1 1134.907628049310006 forward I I I I #
coedge $-1 -1 $-1 $92 $93 $94 $95 reversed $36 $-1 #
coedge $-1 -1 $-1 $96 $38 $40 $68 forward $23 $-1 #
coedge $-1 -1 $-1 $38 $96 $92 $97 reversed $23 $-1 #
coedge $-1 -1 $-1 $94 $41 $38 $64 forward $70 $-1 #
edge $98 -1 $-1 $73 0 $99 0.5 $38 $100 forward @7 unknown #
coedge $-1 -1 $-1 $40 $39 $101 $102 reversed $14 $-1 #
coedge $-1 -1 $-1 $103 $104 $39 $67 reversed $105 $-1 #
edge $106 -1 $-1 $72 2.914449285316240322e-16 $107 1.570796326794897002 $39 $108 forward @7 unknown #
edge $109 -1 $-1 $73 3.749870534227510556e-16 $110 1.570796326794896114 $40 $111 forward @7 unknown #
coedge $-1 -1 $-1 $41 $112 $103 $113 forward $70 $-1 #
loop $-1 -1 $-1 $-1 $69 $114 #
truecolor-adesk-attrib $-1 -1 $115 $-1 $42 -1033059110 #
vertex $-1 -1 $-1 $42 $116 #
vertex $-1 -1 $-1 $42 $117 #
straight-curve $-1 -1 $-1 269.3375772753969954 490.4910788086190223 35 10 3.552713678800529959e-14 3.657559652103359964e-101 F 0 F 8.209237195069000848 #
DXID-attrib $-1 -1 $-1 $44 $17 @18 ASM_FACE_FROM_STEP @18 step-22M-104-90519 #
color-adesk-attrib $-1 -1 $118 $45 $28 177 #
coedge $-1 -1 $-1 $50 $49 $48 $78 reversed $18 $119 #
edge $120 -1 $-1 $121 -3.141592653589793116 $121 3.141592653589793116 $77 $122 forward @7 unknown #
edge $123 -1 $-1 $83 7.718022258703491837e-16 $121 1.570796326794896114 $49 $124 forward @2 g2 #
pcurve $-1 -1 $-1 0 forward { exppc nubs 1 open 2 
	7.718022258703444505e-16 1 1.570796326794896114 1 
	-3.141592653589790007 0 
	-3.141592653589780237 1.570796326794899889 
	3.043965079996269439e-12 
	spline forward { ref 0 } I I I I 
	} 6.283185307179580015 0 #
pcurve $-1 -1 $-1 0 forward { exppc nubs 1 open 2 
	-1.570796326794896114 1 -7.718022258703444505e-16 1 
	-3.141592653589790007 1.570796326794900111 
	-3.141592653589964534 3.298235127721663423e-16 
	2.049912714057511469e-13 
	spline forward { ref 0 } I I I I 
	} 0 0 #
truecolor-adesk-attrib $-1 -1 $125 $-1 $52 -1037026410 #
vertex $-1 -1 $-1 $52 $126 #
ellipse-curve $-1 -1 $-1 568.3539927511709493 563.9066138938550239 -634.2113465774230008 -0.08715574274765815199 -0.9961946980917455452 1.912869420538149289e-16 6.562346098357560575e-15 3.074204025095995896e-15 19 1 I I #
DXID-attrib $-1 -1 $-1 $55 $22 @18 ASM_FACE_FROM_STEP @18 step-22M-104-90523 #
color-adesk-attrib $-1 -1 $127 $56 $35 133 #
truecolor-adesk-attrib $-1 -1 $128 $-1 $57 -1033059110 #
face $129 -1 $-1 $130 $105 $8 $-1 $131 forward single #
loop $-1 -1 $-1 $-1 $132 $57 #
plane-surface $-1 -1 $-1 269.3375772753969954 490.4910788086190223 37 0 0 1 1 0 0 forward_v I I I I #
coedge $-1 -1 $-1 $133 $134 $135 $136 reversed $58 $-1 #
coedge $-1 -1 $-1 $137 $60 $62 $97 forward $36 $-1 #
coedge $-1 -1 $-1 $60 $137 $133 $138 reversed $36 $-1 #
coedge $-1 -1 $-1 $135 $63 $60 $95 forward $70 $-1 #
edge $139 -1 $-1 $99 0 $140 0.2000000000000028422 $60 $141 forward @7 unknown #
coedge $-1 -1 $-1 $62 $61 $142 $143 reversed $23 $-1 #
edge $144 -1 $-1 $99 3.749870534227510556e-16 $145 1.570796326794896114 $62 $146 forward @7 unknown #
truecolor-adesk-attrib $-1 -1 $147 $-1 $64 -1033059110 #
vertex $-1 -1 $-1 $64 $148 #
straight-curve $-1 -1 $-1 351.4299492260869897 490.4910788086190223 35 -3.587324068671569936e-43 1.009741958682900043e-28 -10 F 0 F 0.5 #
coedge $-1 -1 $-1 $149 $142 $65 $102 forward $150 $-1 #
edge $151 -1 $-1 $110 -8.209237195069022164 $107 0 $65 $152 forward @7 unknown #
coedge $-1 -1 $-1 $153 $66 $69 $113 reversed $105 $-1 #
coedge $-1 -1 $-1 $66 $153 $149 $154 reversed $105 $-1 #
loop $-1 -1 $-1 $-1 $103 $88 #
truecolor-adesk-attrib $-1 -1 $155 $-1 $67 -1033059110 #
vertex $-1 -1 $-1 $67 $156 #
ellipse-curve $-1 -1 $-1 1488.337577275400236 490.4910788086190223 35 0 0 -1 -1219 -3.552713678800496386e-13 -0 1 F 2.914449285316240322e-16 F 1.570796326794897002 #
truecolor-adesk-attrib $-1 -1 $157 $-1 $68 -1033059110 #
vertex $-1 -1 $-1 $102 $158 #
ellipse-curve $-1 -1 $-1 1488.337577275400236 490.491078808618056 35 0 0 -1 -1136.907628049310006 5.684341886080805526e-13 0 1 F 3.749870534227510556e-16 F 1.570796326794896114 #
coedge $-1 -1 $-1 $69 $135 $132 $159 forward $70 $-1 #
edge $160 -1 $-1 $161 0 $72 0.2000000000000001776 $103 $162 forward @7 unknown #
face $163 -1 $-1 $-1 $70 $8 $-1 $164 forward single #
color-adesk-attrib $-1 -1 $165 $71 $42 133 #
point $-1 -1 $-1 269.3375772753969954 490.4910788086190223 35 #
point $-1 -1 $-1 351.4299492260869897 490.4910788086190223 35 #
DXID-attrib $-1 -1 $-1 $76 $28 @18 ASM_FACE_FROM_STEP @18 step-22M-104-90520 #
pcurve $-1 -1 $-1 0 forward { exppc nubs 1 periodic 2 
	-3.141592653589793116 1 3.141592653589793116 1 
	3.141592653589790007 1.570796326794900111 
	-3.141592653589790451 1.570796326794900111 
	3.773275602154468591e-10 
	spline forward { ref 0 } I I I I 
	} 0 0 #
truecolor-adesk-attrib $-1 -1 $166 $-1 $78 -1037026410 #
vertex $-1 -1 $-1 $79 $167 #
ellipse-curve $-1 -1 $-1 1396.919188275130182 1392.471809417810164 -634.2113465774230008 0.9961946980917455452 -0.08715574274765836016 -1.912869420538149289e-16 3.074204025095994318e-15 -6.562346098357559786e-15 19 1 I I #
truecolor-adesk-attrib $-1 -1 $168 $-1 $79 -1037026410 #
ellipse-curve $-1 -1 $-1 1396.919188275130182 563.9066138938540007 -653.2113465774230008 0 0 -1 -828.565195523956163 4.263256414560599096e-13 0 1 F 7.718022258703491837e-16 F 1.570796326794896114 #
color-adesk-attrib $-1 -1 $169 $82 $52 177 #
point $-1 -1 $-1 568.3539927511709493 563.9066138938550239 -653.2113465774230008 #
DXID-attrib $-1 -1 $-1 $86 $35 @18 ASM_FACE_FROM_STEP @18 step-22M-104-90524 #
color-adesk-attrib $-1 -1 $170 $87 $57 133 #
truecolor-adesk-attrib $-1 -1 $171 $-1 $88 -1033059110 #
face $172 -1 $-1 $114 $150 $8 $-1 $173 reversed single #
cone-surface $-1 -1 $-1 1488.337577275400236 490.4910788086190223 36 0 0 -1 -1219 -7.105427357601004383e-14 -0 1 I I 0 1 1219 forward I I I I #
coedge $-1 -1 $-1 $174 $175 $112 $159 reversed $89 $-1 #
coedge $-1 -1 $-1 $176 $91 $93 $138 forward $58 $-1 #
coedge $-1 -1 $-1 $91 $176 $174 $177 reversed $58 $-1 #
coedge $-1 -1 $-1 $112 $94 $91 $136 forward $70 $-1 #
edge $178 -1 $-1 $140 0 $179 0.7000000000000001776 $91 $180 forward @7 unknown #
coedge $-1 -1 $-1 $93 $92 $181 $182 reversed $36 $-1 #
edge $183 -1 $-1 $140 -2.504319182280550222e-16 $184 1.570796326794896336 $93 $185 forward @7 unknown #
truecolor-adesk-attrib $-1 -1 $186 $-1 $95 -1033059110 #
vertex $-1 -1 $-1 $95 $187 #
straight-curve $-1 -1 $-1 351.4299492260869897 490.4910788086190223 30 10 3.552713678800529959e-14 0 F 0 F 0.2000000000000028422 #
coedge $-1 -1 $-1 $101 $181 $96 $143 forward $150 $-1 #
edge $188 -1 $-1 $145 -0.5 $110 0 $96 $189 forward @7 unknown #
truecolor-adesk-attrib $-1 -1 $190 $-1 $97 -1033059110 #
vertex $-1 -1 $-1 $143 $191 #
ellipse-curve $-1 -1 $-1 1488.337577275400236 490.491078808618056 30 0 0 -1 -1136.907628049310006 5.684341886080805526e-13 0 1 F 3.749870534227510556e-16 F 1.570796326794896114 #
color-adesk-attrib $-1 -1 $192 $98 $64 133 #
point $-1 -1 $-1 351.4299492260869897 490.4910788086190223 30 #
coedge $-1 -1 $-1 $193 $101 $104 $154 forward $150 $-1 #
loop $-1 -1 $-1 $-1 $149 $130 #
truecolor-adesk-attrib $-1 -1 $194 $-1 $102 -1033059110 #
straight-curve $-1 -1 $-1 1488.337577275400236 1709.491078808620159 35 -4.05803522860796015e-14 10 -3.657559652103359964e-101 F -8.209237195069022164 F 0 #
coedge $-1 -1 $-1 $104 $103 $175 $195 forward $105 $-1 #
edge $196 -1 $-1 $107 -0.2000000000000001776 $197 0 $104 $198 forward @7 unknown #
color-adesk-attrib $-1 -1 $199 $106 $67 133 #
point $-1 -1 $-1 1488.337577275400236 1709.491078808620159 35 #
color-adesk-attrib $-1 -1 $200 $109 $68 133 #
point $-1 -1 $-1 1488.337577275400236 1627.398706857929938 35 #
edge $201 -1 $-1 $179 -0 $161 8.40923719506900369 $132 $202 forward @7 unknown #
truecolor-adesk-attrib $-1 -1 $203 $-1 $113 -1033059110 #
vertex $-1 -1 $-1 $159 $204 #
straight-curve $-1 -1 $-1 269.3375772753969954 490.4910788086190223 37 -3.587324068671569936e-43 1.009741958682900043e-28 -10 F 0 F 0.2000000000000001776 #
truecolor-adesk-attrib $-1 -1 $205 $-1 $114 -1033059110 #
plane-surface $-1 -1 $-1 311.3837632507419926 490.4910788086190223 33.5 3.552713678800530117e-15 -1 -1.009741958682899931e-29 1 3.552713678800530117e-15 0 forward_v I I I I #
DXID-attrib $-1 -1 $-1 $115 $42 @18 ASM_EDGE_FROM_STEP @5 56848 #
color-adesk-attrib $-1 -1 $206 $120 $78 177 #
point $-1 -1 $-1 1396.919188275130182 1392.471809417810164 -653.2113465774230008 #
color-adesk-attrib $-1 -1 $207 $123 $79 177 #
DXID-attrib $-1 -1 $-1 $125 $52 @18 ASM_EDGE_FROM_STEP @5 56845 #
DXID-attrib $-1 -1 $-1 $128 $57 @18 ASM_FACE_FROM_STEP @18 step-22M-104-90525 #
color-adesk-attrib $-1 -1 $208 $129 $88 133 #
truecolor-adesk-attrib $-1 -1 $209 $-1 $130 -1033059110 #
plane-surface $-1 -1 $-1 1488.337577275400236 1667.444892833269932 33.5 -1 -4.058035228607960307e-15 -1.009741958682899931e-29 4.058035228607960307e-15 -1 0 forward_v I I I I #
coedge $-1 -1 $-1 $210 $132 $134 $177 forward $89 $-1 #
coedge $-1 -1 $-1 $132 $210 $153 $195 reversed $89 $-1 #
coedge $-1 -1 $-1 $134 $133 $211 $212 reversed $58 $-1 #
edge $213 -1 $-1 $179 -2.504319182280550222e-16 $214 1.570796326794896336 $134 $215 forward @7 unknown #
truecolor-adesk-attrib $-1 -1 $216 $-1 $136 -1033059110 #
vertex $-1 -1 $-1 $136 $217 #
straight-curve $-1 -1 $-1 353.4299492260870466 490.4910788086190223 30 3.587324068671569936e-43 -1.009741958682900043e-28 10 F 0 F 0.7000000000000001776 #
coedge $-1 -1 $-1 $142 $211 $137 $182 forward $150 $-1 #
edge $218 -1 $-1 $184 -0.1999999999999886313 $145 0 $137 $219 forward @7 unknown #
truecolor-adesk-attrib $-1 -1 $220 $-1 $138 -1033059110 #
vertex $-1 -1 $-1 $182 $221 #
ellipse-curve $-1 -1 $-1 1488.337577275400236 490.4910788086190223 30 0 0 -1 -1134.907628049310006 2.842170943040406802e-13 0 1 F -2.504319182280550222e-16 F 1.570796326794896336 #
color-adesk-attrib $-1 -1 $222 $139 $95 133 #
point $-1 -1 $-1 353.4299492260870466 490.4910788086190223 30 #
truecolor-adesk-attrib $-1 -1 $223 $-1 $143 -1033059110 #
straight-curve $-1 -1 $-1 1488.337577275400236 1627.398706857929938 35 -1.009741958682900043e-28 -4.097568440138810193e-43 10 F -0.5 F 0 #
color-adesk-attrib $-1 -1 $224 $144 $97 133 #
point $-1 -1 $-1 1488.337577275400236 1627.398706857929938 30 #
DXID-attrib $-1 -1 $-1 $147 $64 @18 ASM_EDGE_FROM_STEP @5 56852 #
coedge $-1 -1 $-1 $211 $149 $210 $225 forward $150 $-1 #
color-adesk-attrib $-1 -1 $226 $151 $102 133 #
edge $227 -1 $-1 $161 2.914449285316240322e-16 $197 1.570796326794897002 $175 $228 forward @7 unknown #
truecolor-adesk-attrib $-1 -1 $229 $-1 $154 -1033059110 #
vertex $-1 -1 $-1 $225 $230 #
straight-curve $-1 -1 $-1 1488.337577275400236 1709.491078808620159 37 -1.009741958682900043e-28 -4.097568440138810193e-43 10 F -0.2000000000000001776 F 0 #
DXID-attrib $-1 -1 $-1 $155 $67 @18 ASM_EDGE_FROM_STEP @5 56849 #
DXID-attrib $-1 -1 $-1 $157 $68 @18 ASM_EDGE_FROM_STEP @5 56851 #
truecolor-adesk-attrib $-1 -1 $231 $-1 $159 -1033059110 #
straight-curve $-1 -1 $-1 353.4299492260870466 490.4910788086190223 37 -10 -3.552713678800529959e-14 -5.280969005256069854e-16 F -0 F 8.40923719506900369 #
color-adesk-attrib $-1 -1 $232 $160 $113 133 #
point $-1 -1 $-1 269.3375772753969954 490.4910788086190223 37 #
color-adesk-attrib $-1 -1 $233 $163 $114 133 #
DXID-attrib $-1 -1 $-1 $166 $78 @18 ASM_EDGE_FROM_STEP @5 56847 #
DXID-attrib $-1 -1 $-1 $168 $79 @18 ASM_EDGE_FROM_STEP @5 56846 #
DXID-attrib $-1 -1 $-1 $171 $88 @18 ASM_FACE_FROM_STEP @18 step-22M-104-90526 #
color-adesk-attrib $-1 -1 $234 $172 $130 133 #
coedge $-1 -1 $-1 $175 $174 $193 $225 reversed $89 $-1 #
coedge $-1 -1 $-1 $181 $193 $176 $212 forward $150 $-1 #
edge $235 -1 $-1 $214 -0.7000000000000001776 $184 0 $176 $236 forward @7 unknown #
truecolor-adesk-attrib $-1 -1 $237 $-1 $177 -1033059110 #
vertex $-1 -1 $-1 $212 $238 #
ellipse-curve $-1 -1 $-1 1488.337577275400236 490.4910788086190223 37 0 0 -1 -1134.907628049310006 2.842170943040406802e-13 0 1 F -2.504319182280550222e-16 F 1.570796326794896336 #
color-adesk-attrib $-1 -1 $239 $178 $136 133 #
point $-1 -1 $-1 353.4299492260870466 490.4910788086190223 37 #
truecolor-adesk-attrib $-1 -1 $240 $-1 $182 -1033059110 #
straight-curve $-1 -1 $-1 1488.337577275400236 1627.398706857929938 30 -4.05803522860796015e-14 10 0 F -0.1999999999999886313 F 0 #
color-adesk-attrib $-1 -1 $241 $183 $138 133 #
point $-1 -1 $-1 1488.337577275400236 1625.398706857929938 30 #
DXID-attrib $-1 -1 $-1 $186 $95 @18 ASM_EDGE_FROM_STEP @5 56855 #
color-adesk-attrib $-1 -1 $242 $188 $143 133 #
DXID-attrib $-1 -1 $-1 $190 $97 @18 ASM_EDGE_FROM_STEP @5 56854 #
edge $243 -1 $-1 $197 -8.409237195069010795 $214 0 $210 $244 forward @7 unknown #
DXID-attrib $-1 -1 $-1 $194 $102 @18 ASM_EDGE_FROM_STEP @5 56850 #
truecolor-adesk-attrib $-1 -1 $245 $-1 $195 -1033059110 #
ellipse-curve $-1 -1 $-1 1488.337577275400236 490.4910788086190223 37 0 0 -1 -1219 -3.552713678800496386e-13 -0 1 F 2.914449285316240322e-16 F 1.570796326794897002 #
color-adesk-attrib $-1 -1 $246 $196 $154 133 #
point $-1 -1 $-1 1488.337577275400236 1709.491078808620159 37 #
color-adesk-attrib $-1 -1 $247 $201 $159 133 #
DXID-attrib $-1 -1 $-1 $203 $113 @18 ASM_EDGE_FROM_STEP @5 56864 #
DXID-attrib $-1 -1 $-1 $205 $114 @18 ASM_FACE_FROM_STEP @18 step-22M-104-90528 #
DXID-attrib $-1 -1 $-1 $209 $130 @18 ASM_FACE_FROM_STEP @18 step-22M-104-90527 #
truecolor-adesk-attrib $-1 -1 $248 $-1 $212 -1033059110 #
straight-curve $-1 -1 $-1 1488.337577275400236 1625.398706857929938 30 1.009741958682900043e-28 4.097568440138810193e-43 -10 F -0.7000000000000001776 F 0 #
color-adesk-attrib $-1 -1 $249 $213 $177 133 #
point $-1 -1 $-1 1488.337577275400236 1625.398706857929938 37 #
DXID-attrib $-1 -1 $-1 $216 $136 @18 ASM_EDGE_FROM_STEP @5 56858 #
color-adesk-attrib $-1 -1 $250 $218 $182 133 #
DXID-attrib $-1 -1 $-1 $220 $138 @18 ASM_EDGE_FROM_STEP @5 56857 #
DXID-attrib $-1 -1 $-1 $223 $143 @18 ASM_EDGE_FROM_STEP @5 56853 #
truecolor-adesk-attrib $-1 -1 $251 $-1 $225 -1033059110 #
straight-curve $-1 -1 $-1 1488.337577275400236 1625.398706857929938 37 4.05803522860796015e-14 -10 5.280969005256069854e-16 F -8.409237195069010795 F 0 #
color-adesk-attrib $-1 -1 $252 $227 $195 133 #
DXID-attrib $-1 -1 $-1 $229 $154 @18 ASM_EDGE_FROM_STEP @5 56865 #
DXID-attrib $-1 -1 $-1 $231 $159 @18 ASM_EDGE_FROM_STEP @5 56861 #
color-adesk-attrib $-1 -1 $253 $235 $212 133 #
DXID-attrib $-1 -1 $-1 $237 $177 @18 ASM_EDGE_FROM_STEP @5 56860 #
DXID-attrib $-1 -1 $-1 $240 $182 @18 ASM_EDGE_FROM_STEP @5 56856 #
color-adesk-attrib $-1 -1 $254 $243 $225 133 #
DXID-attrib $-1 -1 $-1 $245 $195 @18 ASM_EDGE_FROM_STEP @5 56863 #
DXID-attrib $-1 -1 $-1 $248 $212 @18 ASM_EDGE_FROM_STEP @5 56859 #
DXID-attrib $-1 -1 $-1 $251 $225 @18 ASM_EDGE_FROM_STEP @5 56862 #
