700 416 1 0         
5 ZWCAD 12 ACIS 28.0 NT 24 Mon May 13 16:15:29 2024 
1 9.9999999999999995e-07 1e-10 
body $1 -1 $-1 $2 $-1 $-1 #
DXID-attrib $-1 -1 $-1 $-1 $0 @18 ASM_BODY_FROM_STEP @83 B33F6CB351400203626AA7DDF3D2BFD98D2DA5A1|:|CBE1C5916EAB30E44C5B921B6ADFD7864AF74C0D #
lump $-1 -1 $-1 $-1 $3 $0 #
shell $-1 -1 $-1 $-1 $-1 $4 $-1 $2 #
face $5 -1 $-1 $6 $7 $3 $-1 $8 forward single #
truecolor-adesk-attrib $-1 -1 $9 $-1 $4 -1031765888 #
face $10 -1 $-1 $11 $12 $3 $-1 $13 forward single #
loop $-1 -1 $-1 $-1 $14 $4 #
torus-surface $-1 -1 $-1 -3.2453763745376385 82.9525000135705 59.500000000000028 0 0 1 4.5000000000000009 0.5 0.99956322897062821 -0.029552517486865233 0 forward_v I I I I #
DXID-attrib $-1 -1 $-1 $5 $4 @18 ASM_FACE_FROM_STEP @16 step-4M-565-8553 #
truecolor-adesk-attrib $-1 -1 $15 $-1 $6 -1031765888 #
face $16 -1 $-1 $17 $18 $3 $-1 $19 forward single #
loop $-1 -1 $-1 $-1 $20 $6 #
torus-surface $-1 -1 $-1 -3.2453763745376385 82.9525000135705 59.500000000000028 0 0 1 7 0.5 0.99956322897062821 -0.029552517486865233 0 forward_v I I I I #
coedge $-1 -1 $-1 $21 $22 $23 $24 reversed $7 $-1 #
DXID-attrib $-1 -1 $-1 $10 $6 @18 ASM_FACE_FROM_STEP @17 step-4M-565-27047 #
truecolor-adesk-attrib $-1 -1 $25 $-1 $11 -1031765888 #
face $26 -1 $-1 $27 $28 $3 $-1 $29 reversed single #
loop $-1 -1 $-1 $-1 $30 $11 #
torus-surface $-1 -1 $-1 -3.2453763745376385 82.9525000135705 50.500000000000028 0 0 1 7 0.5 0.99956322897062821 -0.029552517486865233 0 forward_v I I I I #
coedge $-1 -1 $-1 $31 $32 $33 $34 reversed $12 $-1 #
coedge $-1 -1 $-1 $35 $14 $36 $37 forward $7 $-1 #
coedge $-1 -1 $-1 $14 $35 $38 $39 reversed $7 $-1 #
coedge $-1 -1 $-1 $40 $40 $14 $24 forward $41 $-1 #
edge $42 -1 $-1 $43 -3.1415926535897931 $44 0 $14 $45 forward @7 unknown #
DXID-attrib $-1 -1 $-1 $16 $11 @18 ASM_FACE_FROM_STEP @17 step-4M-565-29808 #
truecolor-adesk-attrib $-1 -1 $46 $-1 $17 -1031765888 #
face $47 -1 $-1 $48 $49 $3 $-1 $50 forward single #
loop $-1 -1 $-1 $-1 $51 $17 #
torus-surface $-1 -1 $-1 -3.2453763745376385 82.9525000135705 49.500000000000028 0 0 1 4.5000000000000009 0.5 0.99956322897062821 -0.029552517486865233 0 forward_v I I I I #
coedge $-1 -1 $-1 $52 $53 $54 $55 reversed $18 $-1 #
coedge $-1 -1 $-1 $56 $20 $57 $58 forward $12 $-1 #
coedge $-1 -1 $-1 $20 $56 $59 $60 reversed $12 $-1 #
coedge $-1 -1 $-1 $61 $62 $20 $34 forward $63 $-1 #
edge $64 -1 $-1 $65 -3.1415926535897931 $66 -1.2246467991473532e-16 $20 $67 forward @7 unknown #
coedge $-1 -1 $-1 $22 $21 $68 $69 reversed $7 $-1 #
coedge $-1 -1 $-1 $70 $71 $21 $37 reversed $72 $-1 #
edge $73 -1 $-1 $43 1.5707963267948966 $74 3.1415926535897931 $21 $75 forward @7 unknown #
coedge $-1 -1 $-1 $71 $70 $22 $39 forward $72 $-1 #
edge $76 -1 $-1 $44 -3.1415926535897931 $77 -1.5707963267948966 $22 $78 forward @7 unknown #
coedge $-1 -1 $-1 $23 $23 $70 $79 forward $41 $-1 #
loop $-1 -1 $-1 $-1 $40 $80 #
truecolor-adesk-attrib $-1 -1 $81 $-1 $24 -1031765888 #
vertex $-1 -1 $-1 $24 $82 #
vertex $-1 -1 $-1 $24 $83 #
ellipse-curve $-1 -1 $-1 -3.2453763745376385 82.9525000135705 60.000000000000028 0 0 -1 4.4980345303678275 -0.13298632869089358 0 1 F -3.1415926535897931 F 0 #
DXID-attrib $-1 -1 $-1 $26 $17 @18 ASM_FACE_FROM_STEP @17 step-4M-565-33836 #
truecolor-adesk-attrib $-1 -1 $84 $-1 $27 -1031765888 #
face $85 -1 $-1 $86 $87 $3 $-1 $88 reversed single #
loop $-1 -1 $-1 $-1 $89 $27 #
torus-surface $-1 -1 $-1 -3.2453763745376385 82.9525000135705 18.500000000000025 0 0 -1 3.5000000000000004 0.5 -0.99956322897062821 0.029552517486865233 0 forward_v I I I I #
coedge $-1 -1 $-1 $90 $91 $92 $93 reversed $28 $-1 #
coedge $-1 -1 $-1 $94 $30 $95 $96 forward $18 $-1 #
coedge $-1 -1 $-1 $30 $94 $97 $98 reversed $18 $-1 #
coedge $-1 -1 $-1 $99 $99 $30 $55 forward $100 $-1 #
edge $101 -1 $-1 $102 -3.1415926535897931 $103 0 $30 $104 forward @7 unknown #
coedge $-1 -1 $-1 $32 $31 $105 $106 reversed $12 $-1 #
coedge $-1 -1 $-1 $107 $108 $31 $58 reversed $109 $-1 #
edge $110 -1 $-1 $65 0 $111 1.5707963267948966 $31 $112 forward @7 unknown #
coedge $-1 -1 $-1 $108 $107 $32 $60 forward $109 $-1 #
edge $113 -1 $-1 $66 1.5707963267948966 $114 3.1415926535897931 $32 $115 forward @7 unknown #
coedge $-1 -1 $-1 $116 $33 $117 $118 forward $63 $-1 #
coedge $-1 -1 $-1 $33 $116 $119 $120 reversed $63 $-1 #
loop $-1 -1 $-1 $-1 $33 $121 #
truecolor-adesk-attrib $-1 -1 $122 $-1 $34 -1031765888 #
vertex $-1 -1 $-1 $34 $123 #
vertex $-1 -1 $-1 $34 $124 #
ellipse-curve $-1 -1 $-1 -3.2453763745376385 82.9525000135705 59.500000000000028 0 0 -1 7.4967242172797119 -0.22164388115148925 0 1 F -3.1415926535897931 F -1.2246467991473532e-16 #
coedge $-1 -1 $-1 $125 $126 $35 $69 forward $127 $-1 #
edge $128 -1 $-1 $77 0 $74 3.1415926535897931 $35 $129 forward @7 unknown #
coedge $-1 -1 $-1 $38 $36 $40 $79 reversed $72 $-1 #
coedge $-1 -1 $-1 $36 $38 $130 $131 reversed $72 $-1 #
loop $-1 -1 $-1 $-1 $36 $132 #
truecolor-adesk-attrib $-1 -1 $133 $-1 $37 -1031765888 #
vertex $-1 -1 $-1 $37 $134 #
ellipse-curve $-1 -1 $-1 -7.743410904905466 83.08548634226139 59.500000000000028 0.029552517486865354 0.99956322897062821 0 -0.49978161448531455 0.014776258743432691 0 1 F 1.5707963267948966 F 3.1415926535897931 #
truecolor-adesk-attrib $-1 -1 $135 $-1 $39 -1031765888 #
vertex $-1 -1 $-1 $69 $136 #
ellipse-curve $-1 -1 $-1 1.252658155830189 82.81951368487961 59.500000000000028 -0.029552517486865233 -0.99956322897062821 0 0 0 -0.50000000000000044 1 F -3.1415926535897931 F -1.5707963267948966 #
edge $137 -1 $-1 $44 0 $43 3.1415926535897931 $40 $138 forward @7 unknown #
face $139 -1 $-1 $140 $141 $3 $-1 $142 forward single #
DXID-attrib $-1 -1 $-1 $42 $24 @18 ASM_EDGE_FROM_STEP @5 54829 #
point $-1 -1 $-1 -7.743410904905466 83.08548634226139 60.000000000000028 #
point $-1 -1 $-1 1.252658155830189 82.81951368487961 60.000000000000028 #
DXID-attrib $-1 -1 $-1 $47 $27 @18 ASM_FACE_FROM_STEP @17 step-4M-565-11656 #
truecolor-adesk-attrib $-1 -1 $143 $-1 $48 -1031765888 #
face $144 -1 $-1 $145 $146 $3 $-1 $147 reversed single #
loop $-1 -1 $-1 $-1 $148 $48 #
torus-surface $-1 -1 $-1 -3.2453763745376385 82.9525000135705 55.500000000000028 0 0 1 3.5000000000000004 0.5 0.99956322897062821 -0.029552517486865233 0 forward_v I I I I #
coedge $-1 -1 $-1 $149 $150 $151 $152 reversed $49 $-1 #
coedge $-1 -1 $-1 $153 $51 $154 $155 forward $28 $-1 #
coedge $-1 -1 $-1 $51 $153 $156 $157 reversed $28 $-1 #
coedge $-1 -1 $-1 $158 $158 $51 $93 forward $159 $-1 #
edge $160 -1 $-1 $161 -3.1415926535897931 $162 0 $51 $163 forward @7 unknown #
coedge $-1 -1 $-1 $53 $52 $116 $164 reversed $18 $-1 #
coedge $-1 -1 $-1 $165 $166 $52 $96 reversed $167 $-1 #
edge $168 -1 $-1 $102 -1.5707963267948966 $169 0 $52 $170 forward @7 unknown #
coedge $-1 -1 $-1 $166 $165 $53 $98 forward $167 $-1 #
edge $171 -1 $-1 $103 0 $172 1.5707963267948966 $53 $173 forward @7 unknown #
coedge $-1 -1 $-1 $54 $54 $165 $174 forward $100 $-1 #
loop $-1 -1 $-1 $159 $99 $140 #
truecolor-adesk-attrib $-1 -1 $175 $-1 $55 -1031765888 #
vertex $-1 -1 $-1 $55 $176 #
vertex $-1 -1 $-1 $55 $177 #
ellipse-curve $-1 -1 $-1 -3.2453763745376385 82.9525000135705 50.000000000000028 0 0 -1 6.9969426027943973 -0.20686762240805662 0 1 F -3.1415926535897931 F 0 #
coedge $-1 -1 $-1 $178 $178 $56 $106 forward $141 $-1 #
edge $179 -1 $-1 $114 0 $111 3.1415926535897931 $56 $180 forward @7 unknown #
coedge $-1 -1 $-1 $59 $57 $181 $182 reversed $109 $-1 #
coedge $-1 -1 $-1 $57 $59 $178 $183 reversed $109 $-1 #
loop $-1 -1 $-1 $-1 $57 $184 #
truecolor-adesk-attrib $-1 -1 $185 $-1 $58 -1031765888 #
vertex $-1 -1 $-1 $58 $186 #
ellipse-curve $-1 -1 $-1 -10.242318977332037 83.159367635978555 59.500000000000028 0.029552517486865354 0.99956322897062821 0 -0.49978161448531455 0.014776258743432691 0 1 F 0 F 1.5707963267948966 #
truecolor-adesk-attrib $-1 -1 $187 $-1 $60 -1031765888 #
vertex $-1 -1 $-1 $106 $188 #
ellipse-curve $-1 -1 $-1 3.7515662282567588 82.745632391162445 59.500000000000028 -0.029552517486865233 -0.99956322897062821 0 0 0 -0.50000000000000044 1 F 1.5707963267948966 F 3.1415926535897931 #
coedge $-1 -1 $-1 $62 $61 $94 $164 forward $63 $-1 #
coedge $-1 -1 $-1 $181 $189 $61 $118 reversed $190 $-1 #
edge $191 -1 $-1 $66 0.00049999999999999936 $172 0.0094999999999999998 $61 $192 forward @7 unknown #
coedge $-1 -1 $-1 $189 $181 $62 $120 forward $190 $-1 #
edge $193 -1 $-1 $65 0.00049999999999999936 $169 0.0094999999999999998 $62 $194 forward @7 unknown #
face $195 -1 $-1 $196 $63 $3 $-1 $197 forward single #
DXID-attrib $-1 -1 $-1 $64 $34 @18 ASM_EDGE_FROM_STEP @4 4391 #
point $-1 -1 $-1 -10.742100591817351 83.174143894721993 59.500000000000028 #
point $-1 -1 $-1 4.2513478427420734 82.730856132419007 59.500000000000028 #
coedge $-1 -1 $-1 $198 $68 $199 $200 reversed $127 $-1 #
coedge $-1 -1 $-1 $68 $198 $201 $202 forward $127 $-1 #
loop $-1 -1 $-1 $-1 $125 $203 #
truecolor-adesk-attrib $-1 -1 $204 $-1 $69 -1031765888 #
ellipse-curve $-1 -1 $-1 -3.2453763745376385 82.9525000135705 59.500000000000028 0 0 1 3.9982529158825129 -0.11821006994746093 0 1 F 0 F 3.1415926535897931 #
coedge $-1 -1 $-1 $201 $199 $71 $131 forward $146 $-1 #
edge $205 -1 $-1 $74 -3.1415926535897931 $77 0 $130 $206 forward @7 unknown #
face $207 -1 $-1 $-1 $72 $3 $-1 $208 forward single #
DXID-attrib $-1 -1 $-1 $73 $37 @18 ASM_EDGE_FROM_STEP @5 23795 #
point $-1 -1 $-1 -7.2436292904201514 83.070710083517966 59.500000000000028 #
DXID-attrib $-1 -1 $-1 $76 $39 @18 ASM_EDGE_FROM_STEP @5 38106 #
point $-1 -1 $-1 0.75287654134487436 82.834289943623034 59.500000000000028 #
truecolor-adesk-attrib $-1 -1 $209 $-1 $79 -1031765888 #
ellipse-curve $-1 -1 $-1 -3.2453763745376385 82.9525000135705 60.000000000000028 0 0 -1 4.4980345303678275 -0.13298632869089358 0 1 F 0 F 3.1415926535897931 #
truecolor-adesk-attrib $-1 -1 $210 $-1 $80 -1031765888 #
face $211 -1 $-1 $212 $100 $3 $-1 $213 reversed single #
loop $-1 -1 $-1 $41 $105 $80 #
plane-surface $-1 -1 $-1 -3.2453763745376385 82.9525000135705 60.000000000000028 0 0 1 0.99956322897062821 -0.029552517486865233 0 forward_v I I I I #
DXID-attrib $-1 -1 $-1 $85 $48 @18 ASM_FACE_FROM_STEP @17 step-4M-565-16242 #
truecolor-adesk-attrib $-1 -1 $214 $-1 $86 -1031765888 #
face $215 -1 $-1 $121 $216 $3 $-1 $217 forward single #
loop $-1 -1 $-1 $-1 $218 $86 #
cone-surface $-1 -1 $-1 -3.2453763745376385 82.9525000135705 55.000000000000028 0 0 1 3.9982529158825129 -0.11821006994746093 0 1 I I 0 1 4 forward I I I I #
coedge $-1 -1 $-1 $219 $220 $221 $222 reversed $87 $-1 #
coedge $-1 -1 $-1 $223 $89 $224 $225 forward $49 $-1 #
coedge $-1 -1 $-1 $89 $223 $226 $227 reversed $49 $-1 #
coedge $-1 -1 $-1 $228 $229 $89 $152 forward $216 $-1 #
edge $230 -1 $-1 $231 -3.1415926535897931 $232 -1.2246467991473532e-16 $89 $233 forward @7 unknown #
coedge $-1 -1 $-1 $91 $90 $234 $235 reversed $28 $-1 #
coedge $-1 -1 $-1 $236 $237 $90 $155 reversed $238 $-1 #
edge $239 -1 $-1 $161 1.5707963267948966 $240 3.1415926535897931 $90 $241 forward @7 unknown #
coedge $-1 -1 $-1 $237 $236 $91 $157 forward $238 $-1 #
edge $242 -1 $-1 $162 -3.1415926535897931 $243 -1.5707963267948966 $91 $244 forward @7 unknown #
coedge $-1 -1 $-1 $92 $92 $236 $245 forward $159 $-1 #
loop $-1 -1 $-1 $-1 $158 $140 #
truecolor-adesk-attrib $-1 -1 $246 $-1 $93 -1031765888 #
vertex $-1 -1 $-1 $93 $247 #
vertex $-1 -1 $-1 $93 $248 #
ellipse-curve $-1 -1 $-1 -3.2453763745376385 82.9525000135705 50.000000000000028 0 0 1 4.4980345303678275 -0.13298632869089358 0 1 F -3.1415926535897931 F 0 #
edge $249 -1 $-1 $172 1.2246467991473532e-16 $169 3.1415926535897931 $94 $250 forward @7 unknown #
coedge $-1 -1 $-1 $97 $95 $99 $174 reversed $167 $-1 #
coedge $-1 -1 $-1 $95 $97 $189 $251 reversed $167 $-1 #
loop $-1 -1 $-1 $-1 $95 $252 #
truecolor-adesk-attrib $-1 -1 $253 $-1 $96 -1031765888 #
vertex $-1 -1 $-1 $96 $254 #
ellipse-curve $-1 -1 $-1 -10.242318977332037 83.159367635978555 50.500000000000028 0.029552517486865354 0.99956322897062821 0 -0.49978161448531455 0.014776258743432691 0 1 F -1.5707963267948966 F 0 #
truecolor-adesk-attrib $-1 -1 $255 $-1 $98 -1031765888 #
vertex $-1 -1 $-1 $164 $256 #
ellipse-curve $-1 -1 $-1 3.7515662282567588 82.745632391162445 50.500000000000028 -0.029552517486865233 -0.99956322897062821 0 0 0 -0.5 1 F 0 F 1.5707963267948966 #
edge $257 -1 $-1 $103 0 $102 3.1415926535897931 $99 $258 forward @7 unknown #
DXID-attrib $-1 -1 $-1 $101 $55 @18 ASM_EDGE_FROM_STEP @5 45191 #
point $-1 -1 $-1 -10.242318977332037 83.159367635978555 50.000000000000028 #
point $-1 -1 $-1 3.7515662282567588 82.745632391162445 50.000000000000028 #
coedge $-1 -1 $-1 $105 $105 $108 $183 forward $141 $-1 #
truecolor-adesk-attrib $-1 -1 $259 $-1 $106 -1031765888 #
ellipse-curve $-1 -1 $-1 -3.2453763745376385 82.9525000135705 60.000000000000028 0 0 1 6.9969426027943973 -0.20686762240805662 0 1 F 0 F 3.1415926535897931 #
coedge $-1 -1 $-1 $119 $117 $107 $182 forward $190 $-1 #
edge $260 -1 $-1 $66 -1.2246467991473532e-16 $65 3.1415926535897931 $181 $261 forward @7 unknown #
edge $262 -1 $-1 $111 -3.1415926535897931 $114 0 $178 $263 forward @7 unknown #
face $264 -1 $-1 $132 $109 $3 $-1 $265 forward single #
DXID-attrib $-1 -1 $-1 $110 $58 @18 ASM_EDGE_FROM_STEP @5 13440 #
point $-1 -1 $-1 -10.242318977332037 83.159367635978555 60.000000000000028 #
DXID-attrib $-1 -1 $-1 $113 $60 @18 ASM_EDGE_FROM_STEP @5 24757 #
point $-1 -1 $-1 3.7515662282567588 82.745632391162445 60.000000000000028 #
coedge $-1 -1 $-1 $117 $119 $166 $251 forward $190 $-1 #
loop $-1 -1 $-1 $-1 $117 $196 #
truecolor-adesk-attrib $-1 -1 $266 $-1 $118 -1031765888 #
straight-curve $-1 -1 $-1 4.2513478427420734 82.730856132419007 60.000000000000028 0 0 -1000 F 0.00049999999999999936 F 0.0094999999999999998 #
truecolor-adesk-attrib $-1 -1 $267 $-1 $120 -1031765888 #
straight-curve $-1 -1 $-1 -10.742100591817351 83.174143894721993 60.000000000000028 0 0 -1000 F 0.00049999999999999936 F 0.0094999999999999998 #
truecolor-adesk-attrib $-1 -1 $268 $-1 $121 -1031765888 #
face $269 -1 $-1 $80 $190 $3 $-1 $270 forward single #
cone-surface $-1 -1 $-1 -3.2453763745376385 82.9525000135705 60.000000000000028 0 0 -1 -7.4967242172797119 0.22164388115148925 0 1 I I 0 1 7.5 forward I I I I #
coedge $-1 -1 $-1 $126 $125 $271 $272 forward $127 $-1 #
coedge $-1 -1 $-1 $130 $218 $125 $200 forward $146 $-1 #
edge $273 -1 $-1 $274 0.00050000000000000044 $74 0.0045000000000000005 $199 $275 forward @7 unknown #
coedge $-1 -1 $-1 $218 $130 $126 $202 reversed $146 $-1 #
edge $276 -1 $-1 $277 0.00050000000000000044 $77 0.0045000000000000005 $201 $278 forward @7 unknown #
face $279 -1 $-1 $280 $127 $3 $-1 $281 reversed single #
DXID-attrib $-1 -1 $-1 $128 $69 @18 ASM_EDGE_FROM_STEP @5 12657 #
truecolor-adesk-attrib $-1 -1 $282 $-1 $131 -1031765888 #
ellipse-curve $-1 -1 $-1 -3.2453763745376385 82.9525000135705 59.500000000000028 0 0 1 3.9982529158825129 -0.11821006994746093 0 1 F -3.1415926535897931 F 0 #
truecolor-adesk-attrib $-1 -1 $283 $-1 $132 -1031765888 #
torus-surface $-1 -1 $-1 -3.2453763745376385 82.9525000135705 59.500000000000028 0 0 1 4.5000000000000009 0.5 0.99956322897062821 -0.029552517486865233 0 forward_v I I I I #
DXID-attrib $-1 -1 $-1 $137 $79 @18 ASM_EDGE_FROM_STEP @5 42921 #
DXID-attrib $-1 -1 $-1 $139 $80 @18 ASM_FACE_FROM_STEP @17 step-4M-565-22149 #
truecolor-adesk-attrib $-1 -1 $284 $-1 $140 -1031765888 #
face $285 -1 $-1 $286 $287 $3 $-1 $288 forward single #
plane-surface $-1 -1 $-1 -3.2453763745376385 82.9525000135705 50.000000000000028 0 0 1 0.99956322897062821 -0.029552517486865233 0 forward_v I I I I #
DXID-attrib $-1 -1 $-1 $144 $86 @18 ASM_FACE_FROM_STEP @17 step-4M-565-22697 #
truecolor-adesk-attrib $-1 -1 $289 $-1 $145 -1031765888 #
loop $-1 -1 $-1 $-1 $151 $145 #
cone-surface $-1 -1 $-1 -3.2453763745376385 82.9525000135705 18.000000000000028 0 0 1 3.9982529158825129 -0.11821006994746093 0 1 I I 0 1 4 forward I I I I #
coedge $-1 -1 $-1 $199 $201 $290 $291 forward $146 $-1 #
coedge $-1 -1 $-1 $290 $148 $292 $293 forward $87 $-1 #
coedge $-1 -1 $-1 $148 $290 $294 $295 reversed $87 $-1 #
coedge $-1 -1 $-1 $296 $296 $148 $222 forward $297 $-1 #
edge $298 -1 $-1 $299 -3.1415926535897931 $300 0 $148 $301 forward @7 unknown #
coedge $-1 -1 $-1 $150 $149 $302 $303 reversed $49 $-1 #
coedge $-1 -1 $-1 $304 $305 $149 $225 reversed $306 $-1 #
edge $307 -1 $-1 $231 -3.1415926535897931 $308 -1.5707963267948966 $149 $309 forward @7 unknown #
coedge $-1 -1 $-1 $305 $304 $150 $227 forward $306 $-1 #
edge $310 -1 $-1 $232 -1.5707963267948966 $311 0 $150 $312 forward @7 unknown #
coedge $-1 -1 $-1 $313 $151 $314 $315 forward $216 $-1 #
coedge $-1 -1 $-1 $151 $313 $316 $317 reversed $216 $-1 #
truecolor-adesk-attrib $-1 -1 $318 $-1 $152 -1031765888 #
vertex $-1 -1 $-1 $152 $319 #
vertex $-1 -1 $-1 $152 $320 #
ellipse-curve $-1 -1 $-1 -3.2453763745376385 82.9525000135705 18.500000000000025 0 0 1 -3.9982529158825129 0.11821006994746093 0 1 F -3.1415926535897931 F -1.2246467991473532e-16 #
coedge $-1 -1 $-1 $314 $316 $153 $235 forward $287 $-1 #
edge $321 -1 $-1 $243 0 $240 3.1415926535897931 $153 $322 forward @7 unknown #
coedge $-1 -1 $-1 $156 $154 $158 $245 reversed $238 $-1 #
coedge $-1 -1 $-1 $154 $156 $313 $323 reversed $238 $-1 #
loop $-1 -1 $-1 $-1 $154 $324 #
truecolor-adesk-attrib $-1 -1 $325 $-1 $155 -1031765888 #
vertex $-1 -1 $-1 $155 $326 #
ellipse-curve $-1 -1 $-1 -7.743410904905466 83.08548634226139 49.500000000000028 0.029552517486865354 0.99956322897062821 0 -0.49978161448531455 0.014776258743432691 0 1 F 1.5707963267948966 F 3.1415926535897931 #
truecolor-adesk-attrib $-1 -1 $327 $-1 $157 -1031765888 #
vertex $-1 -1 $-1 $235 $328 #
ellipse-curve $-1 -1 $-1 1.252658155830189 82.81951368487961 49.500000000000028 -0.029552517486865233 -0.99956322897062821 0 0 0 -0.5 1 F -3.1415926535897931 F -1.5707963267948966 #
edge $329 -1 $-1 $162 0 $161 3.1415926535897931 $158 $330 forward @7 unknown #
DXID-attrib $-1 -1 $-1 $160 $93 @18 ASM_EDGE_FROM_STEP @5 15055 #
point $-1 -1 $-1 -7.743410904905466 83.08548634226139 50.000000000000028 #
point $-1 -1 $-1 1.252658155830189 82.81951368487961 50.000000000000028 #
truecolor-adesk-attrib $-1 -1 $331 $-1 $164 -1031765888 #
ellipse-curve $-1 -1 $-1 -3.2453763745376385 82.9525000135705 50.500000000000028 0 0 1 7.4967242172797119 -0.22164388115148925 0 1 F 1.2246467991473532e-16 F 3.1415926535897931 #
edge $332 -1 $-1 $169 -3.1415926535897931 $172 1.2246467991473532e-16 $189 $333 forward @7 unknown #
face $334 -1 $-1 $184 $167 $3 $-1 $335 forward single #
DXID-attrib $-1 -1 $-1 $168 $96 @18 ASM_EDGE_FROM_STEP @5 52992 #
point $-1 -1 $-1 -10.742100591817351 83.174143894721993 50.500000000000028 #
DXID-attrib $-1 -1 $-1 $171 $98 @18 ASM_EDGE_FROM_STEP @5 29707 #
point $-1 -1 $-1 4.2513478427420734 82.730856132419007 50.500000000000028 #
truecolor-adesk-attrib $-1 -1 $336 $-1 $174 -1031765888 #
ellipse-curve $-1 -1 $-1 -3.2453763745376385 82.9525000135705 50.000000000000028 0 0 -1 6.9969426027943973 -0.20686762240805662 0 1 F 0 F 3.1415926535897931 #
DXID-attrib $-1 -1 $-1 $179 $106 @18 ASM_EDGE_FROM_STEP @5 34249 #
truecolor-adesk-attrib $-1 -1 $337 $-1 $182 -1031765888 #
ellipse-curve $-1 -1 $-1 -3.2453763745376385 82.9525000135705 59.500000000000028 0 0 -1 7.4967242172797119 -0.22164388115148925 0 1 F -1.2246467991473532e-16 F 3.1415926535897931 #
truecolor-adesk-attrib $-1 -1 $338 $-1 $183 -1031765888 #
ellipse-curve $-1 -1 $-1 -3.2453763745376385 82.9525000135705 60.000000000000028 0 0 1 6.9969426027943973 -0.20686762240805662 0 1 F -3.1415926535897931 F 0 #
truecolor-adesk-attrib $-1 -1 $339 $-1 $184 -1031765888 #
torus-surface $-1 -1 $-1 -3.2453763745376385 82.9525000135705 59.500000000000028 0 0 1 7 0.5 0.99956322897062821 -0.029552517486865233 0 forward_v I I I I #
DXID-attrib $-1 -1 $-1 $191 $118 @18 ASM_EDGE_FROM_STEP @5 15070 #
DXID-attrib $-1 -1 $-1 $193 $120 @18 ASM_EDGE_FROM_STEP @5 26221 #
DXID-attrib $-1 -1 $-1 $195 $121 @18 ASM_FACE_FROM_STEP @17 step-4M-565-15595 #
truecolor-adesk-attrib $-1 -1 $340 $-1 $196 -1031765888 #
cone-surface $-1 -1 $-1 -3.2453763745376385 82.9525000135705 60.000000000000028 0 0 -1 -7.4967242172797119 0.22164388115148925 0 1 I I 0 1 7.5 forward I I I I #
coedge $-1 -1 $-1 $292 $294 $198 $272 reversed $341 $-1 #
edge $342 -1 $-1 $274 -3.1415926535897931 $277 0 $198 $343 forward @7 unknown #
truecolor-adesk-attrib $-1 -1 $344 $-1 $200 -1031765888 #
vertex $-1 -1 $-1 $293 $345 #
straight-curve $-1 -1 $-1 -7.2436292904201514 83.070710083517966 55.000000000000028 0 0 1000 F 0.00050000000000000044 F 0.0045000000000000005 #
truecolor-adesk-attrib $-1 -1 $346 $-1 $202 -1031765888 #
vertex $-1 -1 $-1 $291 $347 #
straight-curve $-1 -1 $-1 0.75287654134487436 82.834289943623034 55.000000000000028 0 0 1000 F 0.00050000000000000044 F 0.0045000000000000005 #
truecolor-adesk-attrib $-1 -1 $348 $-1 $203 -1031765888 #
face $349 -1 $-1 $350 $297 $3 $-1 $351 forward single #
cone-surface $-1 -1 $-1 -3.2453763745376385 82.9525000135705 55.000000000000028 0 0 1 3.9982529158825129 -0.11821006994746093 0 1 I I 0 1 4 forward I I I I #
DXID-attrib $-1 -1 $-1 $205 $131 @18 ASM_EDGE_FROM_STEP @5 13677 #
DXID-attrib $-1 -1 $-1 $207 $132 @18 ASM_FACE_FROM_STEP @16 step-4M-565-6631 #
DXID-attrib $-1 -1 $-1 $211 $140 @18 ASM_FACE_FROM_STEP @17 step-4M-565-37443 #
truecolor-adesk-attrib $-1 -1 $352 $-1 $212 -1031765888 #
face $353 -1 $-1 $203 $354 $3 $-1 $355 forward single #
loop $-1 -1 $-1 $-1 $314 $212 #
cone-surface $-1 -1 $-1 -3.2453763745376385 82.9525000135705 18.000000000000028 0 0 1 3.9982529158825129 -0.11821006994746093 0 1 I I 0 1 4 forward I I I I #
DXID-attrib $-1 -1 $-1 $215 $145 @18 ASM_FACE_FROM_STEP @17 step-4M-565-28003 #
coedge $-1 -1 $-1 $220 $219 $218 $291 reversed $87 $-1 #
edge $356 -1 $-1 $277 0 $274 3.1415926535897931 $290 $357 forward @7 unknown #
coedge $-1 -1 $-1 $358 $271 $219 $293 reversed $341 $-1 #
edge $359 -1 $-1 $299 -1.5707963267948966 $274 0 $219 $360 forward @7 unknown #
coedge $-1 -1 $-1 $271 $358 $220 $295 forward $341 $-1 #
edge $361 -1 $-1 $300 0 $277 1.5707963267948966 $220 $362 forward @7 unknown #
coedge $-1 -1 $-1 $221 $221 $358 $363 forward $297 $-1 #
loop $-1 -1 $-1 $-1 $296 $280 #
truecolor-adesk-attrib $-1 -1 $364 $-1 $222 -1031765888 #
vertex $-1 -1 $-1 $222 $365 #
vertex $-1 -1 $-1 $222 $366 #
ellipse-curve $-1 -1 $-1 -3.2453763745376385 82.9525000135705 55.000000000000028 0 0 1 3.4984713013971991 -0.10343381120402832 0 1 F -3.1415926535897931 F 0 #
coedge $-1 -1 $-1 $367 $367 $223 $303 forward $354 $-1 #
edge $368 -1 $-1 $311 0 $308 3.1415926535897931 $223 $369 forward @7 unknown #
coedge $-1 -1 $-1 $226 $224 $370 $371 reversed $306 $-1 #
coedge $-1 -1 $-1 $224 $226 $367 $372 reversed $306 $-1 #
loop $-1 -1 $-1 $-1 $224 $373 #
truecolor-adesk-attrib $-1 -1 $374 $-1 $225 -1031765888 #
vertex $-1 -1 $-1 $225 $375 #
ellipse-curve $-1 -1 $-1 0.25309492685956059 82.849066202366473 18.500000000000025 0.029552517486865111 0.99956322897062821 0 -0.49978161448531411 0.014776258743432556 0 1 F -3.1415926535897931 F -1.5707963267948966 #
truecolor-adesk-attrib $-1 -1 $376 $-1 $227 -1031765888 #
vertex $-1 -1 $-1 $303 $377 #
ellipse-curve $-1 -1 $-1 -6.7438476759348376 83.055933824774527 18.500000000000025 -0.029552517486865233 -0.99956322897062821 0 0 0 -0.50000000000000044 1 F -1.5707963267948966 F 0 #
coedge $-1 -1 $-1 $229 $228 $237 $323 forward $216 $-1 #
coedge $-1 -1 $-1 $370 $234 $228 $315 reversed $287 $-1 #
edge $378 -1 $-1 $232 0.00049999999999999828 $240 0.0315 $228 $379 forward @7 unknown #
coedge $-1 -1 $-1 $234 $370 $229 $317 forward $287 $-1 #
edge $380 -1 $-1 $231 0.00049999999999999828 $243 0.0315 $229 $381 forward @7 unknown #
DXID-attrib $-1 -1 $-1 $230 $152 @18 ASM_EDGE_FROM_STEP @5 16587 #
point $-1 -1 $-1 0.75287654134487436 82.834289943623034 18.500000000000025 #
point $-1 -1 $-1 -7.2436292904201514 83.070710083517966 18.500000000000025 #
truecolor-adesk-attrib $-1 -1 $382 $-1 $235 -1031765888 #
ellipse-curve $-1 -1 $-1 -3.2453763745376385 82.9525000135705 49.500000000000028 0 0 -1 3.9982529158825129 -0.11821006994746093 0 1 F 0 F 3.1415926535897931 #
edge $383 -1 $-1 $240 -3.1415926535897931 $243 0 $313 $384 forward @7 unknown #
face $385 -1 $-1 $252 $238 $3 $-1 $386 reversed single #
DXID-attrib $-1 -1 $-1 $239 $155 @18 ASM_EDGE_FROM_STEP @5 34862 #
point $-1 -1 $-1 -7.2436292904201514 83.070710083517966 49.500000000000028 #
DXID-attrib $-1 -1 $-1 $242 $157 @18 ASM_EDGE_FROM_STEP @4 2517 #
point $-1 -1 $-1 0.75287654134487436 82.834289943623034 49.500000000000028 #
truecolor-adesk-attrib $-1 -1 $387 $-1 $245 -1031765888 #
ellipse-curve $-1 -1 $-1 -3.2453763745376385 82.9525000135705 50.000000000000028 0 0 1 4.4980345303678275 -0.13298632869089358 0 1 F 0 F 3.1415926535897931 #
DXID-attrib $-1 -1 $-1 $249 $164 @18 ASM_EDGE_FROM_STEP @4 7003 #
truecolor-adesk-attrib $-1 -1 $388 $-1 $251 -1031765888 #
ellipse-curve $-1 -1 $-1 -3.2453763745376385 82.9525000135705 50.500000000000028 0 0 1 7.4967242172797119 -0.22164388115148925 0 1 F -3.1415926535897931 F 1.2246467991473532e-16 #
truecolor-adesk-attrib $-1 -1 $389 $-1 $252 -1031765888 #
torus-surface $-1 -1 $-1 -3.2453763745376385 82.9525000135705 50.500000000000028 0 0 1 7 0.5 0.99956322897062821 -0.029552517486865233 0 forward_v I I I I #
DXID-attrib $-1 -1 $-1 $257 $174 @18 ASM_EDGE_FROM_STEP @5 26457 #
DXID-attrib $-1 -1 $-1 $260 $182 @18 ASM_EDGE_FROM_STEP @5 32880 #
DXID-attrib $-1 -1 $-1 $262 $183 @18 ASM_EDGE_FROM_STEP @4 4120 #
DXID-attrib $-1 -1 $-1 $264 $184 @18 ASM_FACE_FROM_STEP @17 step-4M-565-38064 #
DXID-attrib $-1 -1 $-1 $269 $196 @18 ASM_FACE_FROM_STEP @17 step-4M-565-39947 #
loop $-1 -1 $-1 $-1 $292 $350 #
truecolor-adesk-attrib $-1 -1 $390 $-1 $272 -1031765888 #
ellipse-curve $-1 -1 $-1 -3.2453763745376385 82.9525000135705 55.500000000000028 0 0 -1 3.9982529158825129 -0.11821006994746093 0 1 F -3.1415926535897931 F 0 #
DXID-attrib $-1 -1 $-1 $273 $200 @18 ASM_EDGE_FROM_STEP @5 24397 #
point $-1 -1 $-1 -7.2436292904201514 83.070710083517966 55.500000000000028 #
DXID-attrib $-1 -1 $-1 $276 $202 @18 ASM_EDGE_FROM_STEP @5 46556 #
point $-1 -1 $-1 0.75287654134487436 82.834289943623034 55.500000000000028 #
DXID-attrib $-1 -1 $-1 $279 $203 @18 ASM_FACE_FROM_STEP @17 step-4M-565-24238 #
truecolor-adesk-attrib $-1 -1 $391 $-1 $280 -1031765888 #
face $392 -1 $-1 $373 $341 $3 $-1 $393 reversed single #
plane-surface $-1 -1 $-1 -3.2453763745376385 82.9525000135705 55.000000000000028 0 0 1 0.99956322897062821 -0.029552517486865233 0 forward_v I I I I #
DXID-attrib $-1 -1 $-1 $285 $212 @18 ASM_FACE_FROM_STEP @16 step-4M-565-8494 #
truecolor-adesk-attrib $-1 -1 $394 $-1 $286 -1031765888 #
loop $-1 -1 $-1 $-1 $302 $286 #
plane-surface $-1 -1 $-1 -3.2453763745376385 82.9525000135705 18.000000000000028 0 0 -1 -0.99956322897062821 0.029552517486865233 0 forward_v I I I I #
truecolor-adesk-attrib $-1 -1 $395 $-1 $291 -1031765888 #
ellipse-curve $-1 -1 $-1 -3.2453763745376385 82.9525000135705 55.500000000000028 0 0 -1 3.9982529158825129 -0.11821006994746093 0 1 F 0 F 3.1415926535897931 #
coedge $-1 -1 $-1 $294 $292 $296 $363 reversed $341 $-1 #
truecolor-adesk-attrib $-1 -1 $396 $-1 $293 -1031765888 #
ellipse-curve $-1 -1 $-1 -6.7438476759348376 83.055933824774527 55.500000000000028 0.029552517486865354 0.99956322897062821 0 -0.49978161448531411 0.014776258743432677 0 1 F -1.5707963267948966 F 0 #
truecolor-adesk-attrib $-1 -1 $397 $-1 $295 -1031765888 #
ellipse-curve $-1 -1 $-1 0.25309492685956059 82.849066202366473 55.500000000000028 -0.029552517486865233 -0.99956322897062821 0 0 0 -0.50000000000000044 1 F 0 F 1.5707963267948966 #
edge $398 -1 $-1 $300 0 $299 3.1415926535897931 $296 $399 forward @7 unknown #
DXID-attrib $-1 -1 $-1 $298 $222 @18 ASM_EDGE_FROM_STEP @4 9160 #
point $-1 -1 $-1 -6.7438476759348376 83.055933824774527 55.000000000000028 #
point $-1 -1 $-1 0.25309492685956059 82.849066202366473 55.000000000000028 #
coedge $-1 -1 $-1 $302 $302 $305 $372 forward $354 $-1 #
truecolor-adesk-attrib $-1 -1 $400 $-1 $303 -1031765888 #
ellipse-curve $-1 -1 $-1 -3.2453763745376385 82.9525000135705 18.000000000000028 0 0 -1 -3.4984713013971991 0.10343381120402832 0 1 F 0 F 3.1415926535897931 #
coedge $-1 -1 $-1 $316 $314 $304 $371 forward $287 $-1 #
edge $401 -1 $-1 $232 -1.2246467991473532e-16 $231 3.1415926535897931 $370 $402 forward @7 unknown #
edge $403 -1 $-1 $308 -3.1415926535897931 $311 0 $367 $404 forward @7 unknown #
face $405 -1 $-1 $324 $306 $3 $-1 $406 forward single #
DXID-attrib $-1 -1 $-1 $307 $225 @18 ASM_EDGE_FROM_STEP @5 34531 #
point $-1 -1 $-1 0.25309492685956059 82.849066202366473 18.000000000000028 #
DXID-attrib $-1 -1 $-1 $310 $227 @18 ASM_EDGE_FROM_STEP @5 27271 #
point $-1 -1 $-1 -6.7438476759348376 83.055933824774527 18.000000000000028 #
truecolor-adesk-attrib $-1 -1 $407 $-1 $315 -1031765888 #
straight-curve $-1 -1 $-1 -7.2436292904201514 83.070710083517966 18.000000000000028 0 0 1000 F 0.00049999999999999828 F 0.0315 #
truecolor-adesk-attrib $-1 -1 $408 $-1 $317 -1031765888 #
straight-curve $-1 -1 $-1 0.75287654134487436 82.834289943623034 18.000000000000028 0 0 1000 F 0.00049999999999999828 F 0.0315 #
DXID-attrib $-1 -1 $-1 $321 $235 @18 ASM_EDGE_FROM_STEP @5 17436 #
truecolor-adesk-attrib $-1 -1 $409 $-1 $323 -1031765888 #
ellipse-curve $-1 -1 $-1 -3.2453763745376385 82.9525000135705 49.500000000000028 0 0 -1 3.9982529158825129 -0.11821006994746093 0 1 F -3.1415926535897931 F 0 #
truecolor-adesk-attrib $-1 -1 $410 $-1 $324 -1031765888 #
torus-surface $-1 -1 $-1 -3.2453763745376385 82.9525000135705 49.500000000000028 0 0 1 4.5000000000000009 0.5 0.99956322897062821 -0.029552517486865233 0 forward_v I I I I #
DXID-attrib $-1 -1 $-1 $329 $245 @18 ASM_EDGE_FROM_STEP @5 42250 #
DXID-attrib $-1 -1 $-1 $332 $251 @18 ASM_EDGE_FROM_STEP @5 42884 #
DXID-attrib $-1 -1 $-1 $334 $252 @18 ASM_FACE_FROM_STEP @17 step-4M-565-49286 #
DXID-attrib $-1 -1 $-1 $342 $272 @18 ASM_EDGE_FROM_STEP @5 47132 #
DXID-attrib $-1 -1 $-1 $349 $280 @18 ASM_FACE_FROM_STEP @17 step-4M-565-16513 #
truecolor-adesk-attrib $-1 -1 $411 $-1 $350 -1031765888 #
torus-surface $-1 -1 $-1 -3.2453763745376385 82.9525000135705 55.500000000000028 0 0 1 3.5000000000000004 0.5 0.99956322897062821 -0.029552517486865233 0 forward_v I I I I #
DXID-attrib $-1 -1 $-1 $353 $286 @18 ASM_FACE_FROM_STEP @17 step-4M-565-53473 #
DXID-attrib $-1 -1 $-1 $356 $291 @18 ASM_EDGE_FROM_STEP @5 41024 #
DXID-attrib $-1 -1 $-1 $359 $293 @18 ASM_EDGE_FROM_STEP @5 49529 #
DXID-attrib $-1 -1 $-1 $361 $295 @18 ASM_EDGE_FROM_STEP @5 43245 #
truecolor-adesk-attrib $-1 -1 $412 $-1 $363 -1031765888 #
ellipse-curve $-1 -1 $-1 -3.2453763745376385 82.9525000135705 55.000000000000028 0 0 1 3.4984713013971991 -0.10343381120402832 0 1 F 0 F 3.1415926535897931 #
DXID-attrib $-1 -1 $-1 $368 $303 @18 ASM_EDGE_FROM_STEP @4 1018 #
truecolor-adesk-attrib $-1 -1 $413 $-1 $371 -1031765888 #
ellipse-curve $-1 -1 $-1 -3.2453763745376385 82.9525000135705 18.500000000000025 0 0 1 -3.9982529158825129 0.11821006994746093 0 1 F -1.2246467991473532e-16 F 3.1415926535897931 #
truecolor-adesk-attrib $-1 -1 $414 $-1 $372 -1031765888 #
ellipse-curve $-1 -1 $-1 -3.2453763745376385 82.9525000135705 18.000000000000028 0 0 -1 -3.4984713013971991 0.10343381120402832 0 1 F -3.1415926535897931 F 0 #
truecolor-adesk-attrib $-1 -1 $415 $-1 $373 -1031765888 #
torus-surface $-1 -1 $-1 -3.2453763745376385 82.9525000135705 18.500000000000025 0 0 -1 3.5000000000000004 0.5 -0.99956322897062821 0.029552517486865233 0 forward_v I I I I #
DXID-attrib $-1 -1 $-1 $378 $315 @18 ASM_EDGE_FROM_STEP @5 17368 #
DXID-attrib $-1 -1 $-1 $380 $317 @18 ASM_EDGE_FROM_STEP @5 11563 #
DXID-attrib $-1 -1 $-1 $383 $323 @18 ASM_EDGE_FROM_STEP @5 18725 #
DXID-attrib $-1 -1 $-1 $385 $324 @18 ASM_FACE_FROM_STEP @17 step-4M-565-50666 #
DXID-attrib $-1 -1 $-1 $392 $350 @18 ASM_FACE_FROM_STEP @16 step-4M-565-3896 #
DXID-attrib $-1 -1 $-1 $398 $363 @18 ASM_EDGE_FROM_STEP @5 42644 #
DXID-attrib $-1 -1 $-1 $401 $371 @18 ASM_EDGE_FROM_STEP @5 15851 #
DXID-attrib $-1 -1 $-1 $403 $372 @18 ASM_EDGE_FROM_STEP @5 32746 #
DXID-attrib $-1 -1 $-1 $405 $373 @18 ASM_FACE_FROM_STEP @17 step-4M-565-25084 #
