700 376 1 0         
5 ZWCAD 12 ACIS 28.0 NT 24 Sat May 11 16:12:03 2024 
1 9.9999999999999995e-07 1e-10 
body $1 -1 $-1 $2 $-1 $-1 #
DXID-attrib $-1 -1 $-1 $-1 $0 @18 ASM_BODY_FROM_STEP @83 63ADBA2AA2DBEB8016F457B3180B8A9729C624E9|:|65AE24F5B513E9E1F116623F0B61F46B782F4F9D #
lump $-1 -1 $-1 $-1 $3 $0 #
shell $-1 -1 $-1 $-1 $-1 $4 $-1 $2 #
face $5 -1 $-1 $6 $7 $3 $-1 $8 forward single #
truecolor-adesk-attrib $-1 -1 $9 $-1 $4 -1056964608 #
face $10 -1 $-1 $11 $12 $3 $-1 $13 forward single #
loop $-1 -1 $-1 $-1 $14 $4 #
cone-surface $-1 -1 $-1 150.19175312273404 122.41000676303202 8.1159381801161222e-13 1.1714529999999523e-15 -1 -1.9358929633229218e-16 -5.9999968801739092 -7.0287143452700797e-15 -1.1021815461299624e-15 1 I I 0.70710678118655224 0.7071067811865428 5.9999968801739092 forward I I I I #
DXID-attrib $-1 -1 $-1 $5 $4 @18 ASM_FACE_FROM_STEP @16 step-1M-403-6960 #
truecolor-adesk-attrib $-1 -1 $15 $-1 $6 -1056964608 #
face $16 -1 $-1 $17 $18 $3 $-1 $19 forward single #
loop $-1 -1 $-1 $-1 $20 $6 #
cone-surface $-1 -1 $-1 150.19175312273427 -60.259198866766539 9.2401978880532863e-15 1.1714529999999534e-15 -1 -1.9358929633229455e-16 -5.8500000000000005 -6.8530000499997278e-15 -1.0746275662519391e-15 1 I I 0 1 5.8500000000000005 forward I I I I #
coedge $-1 -1 $-1 $21 $22 $23 $24 reversed $7 $-1 #
DXID-attrib $-1 -1 $-1 $10 $6 @18 ASM_FACE_FROM_STEP @16 step-1M-403-2066 #
truecolor-adesk-attrib $-1 -1 $25 $-1 $11 -1056964608 #
face $26 -1 $-1 $27 $28 $3 $-1 $29 forward single #
loop $-1 -1 $-1 $-1 $30 $11 #
sphere-surface $-1 -1 $-1 150.19175312273427 -53.05919886676655 1.4609371061645674e-14 7.2000000000000011 1.8369701987210297e-16 7.4571849633227789e-16 -1 1.4407355450022784e-30 1 7.4571849633227789e-16 forward_v I I I I #
coedge $-1 -1 $-1 $31 $32 $33 $34 forward $12 $-1 #
coedge $-1 -1 $-1 $35 $14 $36 $37 forward $7 $-1 #
coedge $-1 -1 $-1 $14 $35 $38 $39 reversed $7 $-1 #
coedge $-1 -1 $-1 $40 $40 $14 $24 forward $41 $-1 #
edge $42 -1 $-1 $43 -1.5707963267948966 $44 1.5707963267948968 $14 $45 forward @7 unknown #
DXID-attrib $-1 -1 $-1 $16 $11 @18 ASM_FACE_FROM_STEP @16 step-1M-403-2535 #
truecolor-adesk-attrib $-1 -1 $46 $-1 $17 -1056964608 #
face $47 -1 $-1 $48 $49 $3 $-1 $50 forward single #
loop $-1 -1 $-1 $-1 $51 $17 #
sphere-surface $-1 -1 $-1 150.19175312273427 -53.05919886676655 1.4609371061645674e-14 7.2000000000000011 -1.2989340843532299e-16 0.70710678118654702 0.70710678118654813 -0.57735026918962573 0.57735026918962629 -0.57735026918962551 forward_v I I I I #
coedge $-1 -1 $-1 $52 $53 $54 $55 forward $18 $-1 #
coedge $-1 -1 $-1 $54 $20 $56 $57 forward $12 $-1 #
coedge $-1 -1 $-1 $20 $58 $59 $60 reversed $12 $-1 #
coedge $-1 -1 $-1 $61 $62 $20 $34 reversed $63 $-1 #
edge $64 -1 $-1 $65 3.2070226772697698e-16 $66 3.1415926535897931 $20 $67 forward @7 unknown #
coedge $-1 -1 $-1 $22 $21 $68 $69 reversed $7 $-1 #
coedge $-1 -1 $-1 $70 $71 $21 $37 reversed $72 $-1 #
edge $73 -1 $-1 $43 -9.7345732438393635e-17 $74 0.002828429330796336 $21 $75 forward @7 unknown #
coedge $-1 -1 $-1 $71 $70 $22 $39 forward $72 $-1 #
edge $76 -1 $-1 $44 -9.734573243839377e-17 $77 0.002828429330796336 $22 $78 forward @7 unknown #
coedge $-1 -1 $-1 $23 $23 $70 $79 forward $41 $-1 #
loop $-1 -1 $-1 $-1 $40 $80 #
truecolor-adesk-attrib $-1 -1 $81 $-1 $24 -1056964608 #
vertex $-1 -1 $-1 $24 $82 #
vertex $-1 -1 $-1 $24 $83 #
ellipse-curve $-1 -1 $-1 150.19175312273404 122.41000676303213 8.1159381801161232e-13 4.6267421854936843e-29 1 7.4571849633229475e-16 1.1021815461297088e-15 4.4743086514817239e-15 -5.9999968801738781 1 F -1.5707963267948966 F 1.5707963267948968 #
DXID-attrib $-1 -1 $-1 $26 $17 @18 ASM_FACE_FROM_STEP @16 step-1M-403-5732 #
truecolor-adesk-attrib $-1 -1 $84 $-1 $27 -1056964608 #
face $85 -1 $-1 $86 $63 $3 $-1 $87 forward single #
loop $-1 -1 $-1 $-1 $68 $27 #
cone-surface $-1 -1 $-1 150.19175312273427 -60.259198866766539 9.2401978880532863e-15 1.1714529999999532e-15 -1 -1.9358929633229464e-16 -7.999998440086971 -9.3716221726348288e-15 -1.4695758724256355e-15 1 I I 0 1 7.999998440086971 forward I I I I #
coedge $-1 -1 $-1 $88 $88 $89 $90 forward $28 $-1 #
coedge $-1 -1 $-1 $91 $30 $92 $93 forward $18 $-1 #
coedge $-1 -1 $-1 $30 $94 $95 $96 reversed $18 $-1 #
coedge $-1 -1 $-1 $58 $31 $30 $55 reversed $12 $-1 #
edge $97 -1 $-1 $98 1.5707963267948961 $99 3.1415926535897918 $54 $100 forward @7 unknown #
coedge $-1 -1 $-1 $101 $92 $31 $57 reversed $102 $-1 #
edge $103 -1 $-1 $66 -0.014445291999999776 $99 -0.011397320573889869 $31 $104 forward @7 unknown #
coedge $-1 -1 $-1 $32 $54 $105 $106 reversed $12 $-1 #
coedge $-1 -1 $-1 $107 $101 $32 $60 forward $102 $-1 #
edge $108 -1 $-1 $65 -0.014445291999999778 $109 -0.011397320573889867 $32 $110 forward @7 unknown #
coedge $-1 -1 $-1 $111 $33 $112 $113 forward $63 $-1 #
coedge $-1 -1 $-1 $33 $114 $115 $116 reversed $63 $-1 #
loop $-1 -1 $-1 $-1 $33 $48 #
truecolor-adesk-attrib $-1 -1 $117 $-1 $34 -1056964608 #
vertex $-1 -1 $-1 $34 $118 #
vertex $-1 -1 $-1 $34 $119 #
ellipse-curve $-1 -1 $-1 150.19175312273427 -45.813906866766757 2.00123193173738e-14 1.1714529999999534e-15 -1 -1.9358929633229455e-16 -5.8500000000000005 -6.8530000499997278e-15 -1.0746275662519391e-15 1 F 3.2070226772697698e-16 F 3.1415926535897931 #
coedge $-1 -1 $-1 $120 $121 $35 $69 forward $49 $-1 #
edge $122 -1 $-1 $77 -3.1415926535897936 $74 -1.8084493861891141e-13 $35 $123 forward @7 unknown #
coedge $-1 -1 $-1 $38 $36 $40 $79 reversed $72 $-1 #
coedge $-1 -1 $-1 $36 $38 $124 $125 reversed $72 $-1 #
loop $-1 -1 $-1 $-1 $36 $126 #
truecolor-adesk-attrib $-1 -1 $127 $-1 $37 -1056964608 #
vertex $-1 -1 $-1 $37 $128 #
straight-curve $-1 -1 $-1 156.19175000290795 122.41000676303202 8.1196121186032241e-13 707.10678118655312 -707.10678118654198 -9.3590501389903439e-14 F -9.7345732438393635e-17 F 0.002828429330796336 #
truecolor-adesk-attrib $-1 -1 $129 $-1 $39 -1056964608 #
vertex $-1 -1 $-1 $69 $130 #
straight-curve $-1 -1 $-1 144.19175624256013 122.41000676303202 8.1049163646548225e-13 -707.10678118655153 -707.10678118654357 -2.667817126370362e-13 F -9.734573243839377e-17 F 0.002828429330796336 #
edge $131 -1 $-1 $44 1.5707963267948968 $43 4.7123889803846897 $40 $132 forward @7 unknown #
face $133 -1 $-1 $126 $41 $3 $-1 $134 forward single #
DXID-attrib $-1 -1 $-1 $42 $24 @18 ASM_EDGE_FROM_STEP @4 7092 #
point $-1 -1 $-1 156.19175000290792 122.41000676303213 8.1239087671552739e-13 #
point $-1 -1 $-1 144.19175624256016 122.41000676303213 8.1104376609611914e-13 #
DXID-attrib $-1 -1 $-1 $47 $27 @18 ASM_FACE_FROM_STEP @15 step-1M-403-584 #
truecolor-adesk-attrib $-1 -1 $135 $-1 $48 -1056964608 #
face $136 -1 $-1 $137 $138 $3 $-1 $139 forward single #
cone-surface $-1 -1 $-1 150.19175312273427 -45.813906866766757 2.00123193173738e-14 -1.1714529999999534e-15 1 1.9358929633229455e-16 5.8500000000000005 6.8530000499997278e-15 1.0746275662519391e-15 1 I I 0.49999969167774599 0.86602558179430178 5.8500000000000005 forward I I I I #
coedge $-1 -1 $-1 $51 $51 $140 $141 forward $28 $-1 #
coedge $-1 -1 $-1 $142 $95 $51 $90 reversed $143 $-1 #
edge $144 -1 $-1 $145 -1.5707963267948966 $146 1.5707963267948966 $51 $147 forward @7 unknown #
coedge $-1 -1 $-1 $94 $52 $142 $148 forward $18 $-1 #
coedge $-1 -1 $-1 $56 $107 $52 $93 reversed $102 $-1 #
edge $149 -1 $-1 $99 -3.1415926535897944 $150 -1.5707963267948963 $52 $151 forward @7 unknown #
coedge $-1 -1 $-1 $53 $91 $152 $153 reversed $18 $-1 #
coedge $-1 -1 $-1 $89 $105 $53 $96 forward $143 $-1 #
edge $154 -1 $-1 $98 0.9484278382398863 $146 1.5707963267948972 $53 $155 forward @7 unknown #
truecolor-adesk-attrib $-1 -1 $156 $-1 $55 -1056964608 #
vertex $-1 -1 $-1 $55 $157 #
vertex $-1 -1 $-1 $57 $158 #
ellipse-curve $-1 -1 $-1 150.19175312273427 -48.861878292876668 1.7739390648631373e-14 1.1714529999999534e-15 -1 -1.9358929633229455e-16 -5.8500000000000005 -6.8530000499997278e-15 -1.0746275662519391e-15 1 F 1.5707963267948961 F 3.1415926535897918 #
coedge $-1 -1 $-1 $59 $56 $159 $160 forward $102 $-1 #
loop $-1 -1 $-1 $-1 $56 $161 #
truecolor-adesk-attrib $-1 -1 $162 $-1 $57 -1056964608 #
straight-curve $-1 -1 $-1 156.04175312273426 -60.259198866766525 9.5984070768040257e-15 1.1714529999999535e-12 -1000 -1.9358929633229448e-13 F -0.014445291999999776 F -0.011397320573889869 #
coedge $-1 -1 $-1 $95 $163 $58 $106 forward $143 $-1 #
edge $164 -1 $-1 $109 1.2195265817377077e-15 $98 1.5707963267948961 $58 $165 forward @7 unknown #
coedge $-1 -1 $-1 $92 $59 $163 $166 reversed $102 $-1 #
truecolor-adesk-attrib $-1 -1 $167 $-1 $60 -1056964608 #
vertex $-1 -1 $-1 $106 $168 #
straight-curve $-1 -1 $-1 144.34175312273427 -60.259198866766539 8.1655703218013456e-15 1.1714529999999535e-12 -1000 -1.9358929633229448e-13 F -0.014445291999999778 F -0.011397320573889867 #
coedge $-1 -1 $-1 $169 $61 $170 $171 forward $63 $-1 #
coedge $-1 -1 $-1 $159 $172 $61 $113 reversed $138 $-1 #
edge $173 -1 $-1 $65 6.2552549304053844e-34 $174 0.0013000008009983876 $61 $175 forward @7 unknown #
coedge $-1 -1 $-1 $62 $169 $176 $177 reversed $63 $-1 #
coedge $-1 -1 $-1 $178 $159 $62 $116 forward $138 $-1 #
edge $179 -1 $-1 $66 4.9156573344935062e-34 $180 0.0013000008037848945 $62 $181 forward @7 unknown #
DXID-attrib $-1 -1 $-1 $64 $34 @18 ASM_EDGE_FROM_STEP @4 3087 #
point $-1 -1 $-1 144.34175312273427 -45.813906866766757 1.7061583484919047e-14 #
point $-1 -1 $-1 156.04175312273426 -45.813906866766743 2.005890652569609e-14 #
coedge $-1 -1 $-1 $182 $68 $183 $184 forward $49 $-1 #
coedge $-1 -1 $-1 $68 $185 $186 $187 reversed $49 $-1 #
truecolor-adesk-attrib $-1 -1 $188 $-1 $69 -1056964608 #
ellipse-curve $-1 -1 $-1 150.19175312273404 120.41000520311906 8.1010237985569177e-13 1.1714529999999523e-15 -1 -1.9358929633229228e-16 7.999998440086971 9.3716221726346805e-15 7.2622302502865682e-13 1 F -3.1415926535897936 F -1.8084493861891141e-13 #
coedge $-1 -1 $-1 $186 $183 $71 $125 forward $189 $-1 #
edge $190 -1 $-1 $74 -9.0250739809498649e-14 $77 3.1415926535898833 $124 $191 forward @7 unknown #
face $192 -1 $-1 $-1 $72 $3 $-1 $193 forward single #
DXID-attrib $-1 -1 $-1 $73 $37 @18 ASM_EDGE_FROM_STEP @4 2354 #
point $-1 -1 $-1 158.19175156282103 120.41000520311906 8.9566178035432991e-14 #
DXID-attrib $-1 -1 $-1 $76 $39 @18 ASM_EDGE_FROM_STEP @4 3853 #
point $-1 -1 $-1 142.19175468264709 120.41000520311906 8.7606743538855326e-14 #
truecolor-adesk-attrib $-1 -1 $194 $-1 $79 -1056964608 #
ellipse-curve $-1 -1 $-1 150.19175312273404 122.41000676303213 8.1159381801161232e-13 4.6267421854936843e-29 1 7.4571849633229475e-16 1.1021815461297088e-15 4.4743086514817239e-15 -5.9999968801738781 1 F 1.5707963267948968 F 4.7123889803846897 #
truecolor-adesk-attrib $-1 -1 $195 $-1 $80 -1056964608 #
plane-surface $-1 -1 $-1 150.19175312273416 122.41000676303213 8.1159381801161232e-13 4.626742185493686e-29 1 7.4571849633226103e-16 1.8369701987208049e-16 7.4571849633226103e-16 -1 forward_v I I I I #
DXID-attrib $-1 -1 $-1 $85 $48 @18 ASM_FACE_FROM_STEP @16 step-1M-403-7460 #
truecolor-adesk-attrib $-1 -1 $196 $-1 $86 -1056964608 #
face $197 -1 $-1 $198 $189 $3 $-1 $199 forward single #
loop $-1 -1 $-1 $-1 $112 $86 #
cone-surface $-1 -1 $-1 150.19175312273427 -45.813906866766757 2.00123193173738e-14 -1.1714529999999534e-15 1 1.9358929633229455e-16 5.8500000000000005 6.8530000499997278e-15 1.0746275662519391e-15 1 I I 0.49999969167774599 0.86602558179430178 5.8500000000000005 forward I I I I #
coedge $-1 -1 $-1 $152 $152 $88 $141 reversed $200 $-1 #
edge $201 -1 $-1 $146 1.5707963267948972 $145 4.7123889803846897 $88 $202 forward @7 unknown #
coedge $-1 -1 $-1 $163 $89 $91 $148 reversed $143 $-1 #
loop $-1 -1 $-1 $-1 $142 $203 #
truecolor-adesk-attrib $-1 -1 $204 $-1 $90 -1056964608 #
vertex $-1 -1 $-1 $148 $205 #
vertex $-1 -1 $-1 $153 $206 #
ellipse-curve $-1 -1 $-1 150.19175312273427 -53.05919886676655 1.4609371061645674e-14 1.1714529999999532e-15 -1 -1.9358929633229455e-16 -7.2000000000000011 -8.4344615999996654e-15 -1.3226185430793089e-15 1 F -1.5707963267948966 F 1.5707963267948966 #
edge $207 -1 $-1 $150 -2.1931648153499079 $145 -1.570796326794897 $91 $208 forward @7 unknown #
truecolor-adesk-attrib $-1 -1 $209 $-1 $93 -1056964608 #
vertex $-1 -1 $-1 $93 $210 #
ellipse-curve $-1 -1 $-1 150.19175312273427 -48.861878292876668 1.7739390648631373e-14 1.1714529999999534e-15 -1 -1.9358929633229455e-16 -5.8500000000000005 -6.8530000499997278e-15 -1.0746275662519391e-15 1 F -3.1415926535897944 F -1.5707963267948963 #
coedge $-1 -1 $-1 $140 $140 $94 $153 forward $200 $-1 #
edge $211 -1 $-1 $146 1.5707963267948966 $145 4.7123889803846897 $94 $212 forward @7 unknown #
truecolor-adesk-attrib $-1 -1 $213 $-1 $96 -1056964608 #
ellipse-curve $-1 -1 $-1 150.19175312273427 -53.05919886676655 1.4609371061645674e-14 -1 -1.1714529999999536e-15 -1.8369701987208071e-16 -8.4344615999996654e-15 7.1999999999999984 5.3691731735923983e-15 1 F 0.9484278382398863 F 1.5707963267948972 #
DXID-attrib $-1 -1 $-1 $97 $55 @18 ASM_EDGE_FROM_STEP @4 6544 #
point $-1 -1 $-1 150.19175312273427 -48.861878292876668 -5.8499999999999828 #
point $-1 -1 $-1 156.04175312273426 -48.861878292876654 1.0963369334216491e-14 #
coedge $-1 -1 $-1 $115 $112 $101 $160 reversed $138 $-1 #
edge $214 -1 $-1 $66 -3.1415926535897931 $65 3.2070226772697698e-16 $159 $215 forward @7 unknown #
face $216 -1 $-1 $217 $102 $3 $-1 $218 forward single #
DXID-attrib $-1 -1 $-1 $103 $57 @18 ASM_EDGE_FROM_STEP @4 4572 #
coedge $-1 -1 $-1 $105 $142 $107 $166 forward $143 $-1 #
truecolor-adesk-attrib $-1 -1 $219 $-1 $106 -1056964608 #
ellipse-curve $-1 -1 $-1 150.19175312273427 -48.861878292876668 1.7739390648631373e-14 1.1714529999999534e-15 -1 -1.9358929633229455e-16 -5.8500000000000005 -6.8530000499997278e-15 -1.0746275662519391e-15 1 F 1.2195265817377077e-15 F 1.5707963267948961 #
edge $220 -1 $-1 $150 -1.5707963267948963 $109 1.2195265817377077e-15 $163 $221 forward @7 unknown #
DXID-attrib $-1 -1 $-1 $108 $60 @18 ASM_EDGE_FROM_STEP @3 263 #
point $-1 -1 $-1 144.34175312273427 -48.861878292876668 9.5305325792138435e-15 #
tcoedge-coedge $-1 -1 $-1 $114 $111 $222 $223 forward $63 $224 0.62236848855502247 2.5192241650347706 #
coedge $-1 -1 $-1 $225 $226 $111 $171 reversed $227 $-1 #
edge $228 -1 $-1 $174 1.8670956426481857 $229 2.8457553093739376 $111 $230 forward @7 unknown #
coedge $-1 -1 $-1 $112 $231 $225 $232 forward $138 $-1 #
truecolor-adesk-attrib $-1 -1 $233 $-1 $113 -1056964608 #
vertex $-1 -1 $-1 $113 $234 #
straight-curve $-1 -1 $-1 144.34175312273427 -45.813906866766757 1.8221273373620663e-14 -499.99969167774691 866.02558179430139 1.4572527488359566e-14 F 6.2552549304053844e-34 F 0.0013000008009983876 #
coedge $-1 -1 $-1 $235 $236 $114 $177 forward $237 $-1 #
edge $238 -1 $-1 $180 1.8670956412141071 $239 2.8457553093739323 $114 $240 forward @7 unknown #
coedge $-1 -1 $-1 $231 $115 $236 $241 reversed $138 $-1 #
truecolor-adesk-attrib $-1 -1 $242 $-1 $116 -1056964608 #
vertex $-1 -1 $-1 $177 $243 #
straight-curve $-1 -1 $-1 156.04175312273426 -45.813906866766743 2.1086946883625743e-14 499.99969167774498 866.0255817943023 2.5950173628350873e-13 F 4.9156573344935062e-34 F 0.0013000008037848945 #
coedge $-1 -1 $-1 $244 $120 $245 $246 reversed $49 $-1 #
coedge $-1 -1 $-1 $124 $247 $120 $184 reversed $189 $-1 #
edge $248 -1 $-1 $74 -0.18066920406988557 $249 -0.028169205401367137 $120 $250 forward @7 unknown #
coedge $-1 -1 $-1 $121 $251 $252 $253 forward $49 $-1 #
coedge $-1 -1 $-1 $254 $124 $121 $187 forward $189 $-1 #
edge $255 -1 $-1 $77 -0.18066920406988557 $256 -0.028169205401367137 $121 $257 forward @7 unknown #
DXID-attrib $-1 -1 $-1 $122 $69 @18 ASM_EDGE_FROM_STEP @4 4791 #
loop $-1 -1 $-1 $-1 $183 $137 #
truecolor-adesk-attrib $-1 -1 $258 $-1 $125 -1056964608 #
ellipse-curve $-1 -1 $-1 150.19175312273404 120.41000520311906 8.1010237985569177e-13 1.1714529999999521e-15 -1 -1.9358929633229228e-16 7.999998440086971 9.3716221726348193e-15 1.4695758724256481e-15 1 F -9.0250739809498649e-14 F 3.1415926535898833 #
truecolor-adesk-attrib $-1 -1 $259 $-1 $126 -1056964608 #
cone-surface $-1 -1 $-1 150.19175312273404 122.41000676303202 8.1159381801161222e-13 1.1714529999999523e-15 -1 -1.9358929633229218e-16 -5.9999968801739092 -7.0287143452700797e-15 -1.1021815461299624e-15 1 I I 0.70710678118655224 0.7071067811865428 5.9999968801739092 forward I I I I #
DXID-attrib $-1 -1 $-1 $131 $79 @18 ASM_EDGE_FROM_STEP @4 3345 #
DXID-attrib $-1 -1 $-1 $133 $80 @18 ASM_FACE_FROM_STEP @16 step-1M-403-6825 #
DXID-attrib $-1 -1 $-1 $136 $86 @18 ASM_FACE_FROM_STEP @15 step-1M-403-398 #
truecolor-adesk-attrib $-1 -1 $260 $-1 $137 -1056964608 #
face $261 -1 $-1 $203 $200 $3 $-1 $262 forward single #
cone-surface $-1 -1 $-1 150.19175312273427 -60.259198866766539 9.2401978880532863e-15 1.1714529999999532e-15 -1 -1.9358929633229464e-16 -7.999998440086971 -9.3716221726348288e-15 -1.4695758724256355e-15 1 I I 0 1 7.999998440086971 forward I I I I #
loop $-1 -1 $-1 $-1 $140 $198 #
truecolor-adesk-attrib $-1 -1 $263 $-1 $141 -1056964608 #
ellipse-curve $-1 -1 $-1 150.19175312273427 -53.05919886676655 1.4609371061645674e-14 -1 -1.1714529999999536e-15 -6.12323399573454e-17 -8.4344615999996654e-15 7.1999999999999984 5.3691731735923983e-15 1 F 1.5707963267948972 F 4.7123889803846897 #
face $264 -1 $-1 $161 $143 $3 $-1 $265 forward single #
DXID-attrib $-1 -1 $-1 $144 $90 @18 ASM_EDGE_FROM_STEP @4 4144 #
point $-1 -1 $-1 150.19175312273427 -53.05919886676655 7.2000000000000153 #
point $-1 -1 $-1 150.19175312273427 -53.05919886676655 -7.1999999999999869 #
truecolor-adesk-attrib $-1 -1 $266 $-1 $148 -1056964608 #
ellipse-curve $-1 -1 $-1 150.19175312273427 -53.05919886676655 1.4609371061645674e-14 1 1.1714529999999532e-15 6.12323399573454e-17 8.4344615999996654e-15 -7.2000000000000011 -5.3691731735923998e-15 1 F -2.1931648153499079 F -1.570796326794897 #
DXID-attrib $-1 -1 $-1 $149 $93 @18 ASM_EDGE_FROM_STEP @4 2904 #
point $-1 -1 $-1 150.19175312273427 -48.861878292876668 5.8500000000000183 #
truecolor-adesk-attrib $-1 -1 $267 $-1 $153 -1056964608 #
ellipse-curve $-1 -1 $-1 150.19175312273427 -53.05919886676655 1.4609371061645674e-14 1.1714529999999532e-15 -1 -1.9358929633229455e-16 -7.2000000000000011 -8.4344615999996654e-15 -1.3226185430793089e-15 1 F 1.5707963267948966 F 4.7123889803846897 #
DXID-attrib $-1 -1 $-1 $154 $96 @18 ASM_EDGE_FROM_STEP @4 3817 #
truecolor-adesk-attrib $-1 -1 $268 $-1 $160 -1056964608 #
ellipse-curve $-1 -1 $-1 150.19175312273427 -45.813906866766757 2.00123193173738e-14 1.1714529999999534e-15 -1 -1.9358929633229455e-16 -5.8500000000000005 -6.8530000499997278e-15 -1.0746275662519391e-15 1 F -3.1415926535897931 F 3.2070226772697698e-16 #
truecolor-adesk-attrib $-1 -1 $269 $-1 $161 -1056964608 #
face $270 -1 $-1 $271 $272 $3 $-1 $273 forward single #
cone-surface $-1 -1 $-1 150.19175312273427 -60.259198866766539 9.2401978880532863e-15 1.1714529999999534e-15 -1 -1.9358929633229455e-16 -5.8500000000000005 -6.8530000499997278e-15 -1.0746275662519391e-15 1 I I 0 1 5.8500000000000005 forward I I I I #
DXID-attrib $-1 -1 $-1 $164 $106 @18 ASM_EDGE_FROM_STEP @4 1186 #
truecolor-adesk-attrib $-1 -1 $274 $-1 $166 -1056964608 #
ellipse-curve $-1 -1 $-1 150.19175312273427 -48.861878292876668 1.7739390648631373e-14 1.1714529999999534e-15 -1 -1.9358929633229455e-16 -5.8500000000000005 -6.8530000499997278e-15 -1.0746275662519391e-15 1 F -1.5707963267948963 F 1.2195265817377077e-15 #
tcoedge-coedge $-1 -1 $-1 $251 $244 $169 $223 reversed $49 $275 -2.5192241650347706 -0.62236848855502247 #
tedge-edge $276 -1 $-1 $229 0.62236848855502247 $239 2.5192241650347706 $222 $277 forward @7 unknown 1.5599130407180224e-06 #
pcurve $-1 -1 $-1 0 forward { exppc nubs 1 open 2 
	0.62236848855502247 1 2.5192241650347706 1 
	0.73504318754137643 2.5192241650347706 
	0.73504318754137687 0.62236848855502203 
	0 
	cone 150.19175312273427 -45.813906866766757 2.00123193173738e-14 -1.1714529999999534e-15 1 1.9358929633229455e-16 5.8500000000000005 6.8530000499997278e-15 1.0746275662519391e-15 1 I I 0.49999969167774599 0.86602558179430178 5.8500000000000005 forward I I I I 
	} 0 0 #
coedge $-1 -1 $-1 $278 $170 $172 $232 reversed $227 $-1 #
coedge $-1 -1 $-1 $170 $279 $251 $280 forward $227 $-1 #
loop $-1 -1 $-1 $-1 $226 $281 #
truecolor-adesk-attrib $-1 -1 $282 $-1 $171 -1056964608 #
tvertex-vertex $-1 -1 $-1 $223 $283 1.4855359541080714e-06 #
intcurve-curve $-1 -1 $-1 forward { exactcur full nurbs 2 open 2 
	0 2 3.7341912852688823 2 
	143.69175312273433 -31.089993465399274 12.794406946955398 1 
	143.69175312273433 -50.84711760202147 1.5773269601702441e-14 2.2078228271485352 
	143.69175312273433 -31.089993465399274 -12.794406946955359 1 
	0 
	null_surface 
	null_surface 
	nullbs 
	nullbs 
	I I 
	0 
	0 
	0 
	F 1 F 0 } F 1.8670956426481857 F 2.8457553093739376 #
tcoedge-coedge $-1 -1 $-1 $172 $178 $284 $285 forward $138 $286 -2.5192243635004683 -0.62236829404761529 #
edge $287 -1 $-1 $288 0.88843599206961432 $174 1.8670956426481826 $172 $289 forward @7 unknown #
DXID-attrib $-1 -1 $-1 $173 $113 @18 ASM_EDGE_FROM_STEP @4 3217 #
point $-1 -1 $-1 143.69175312305424 -44.688072916749078 -3.9128028581868935e-11 #
coedge $-1 -1 $-1 $290 $176 $244 $291 reversed $237 $-1 #
coedge $-1 -1 $-1 $176 $292 $178 $241 forward $237 $-1 #
loop $-1 -1 $-1 $-1 $290 $271 #
truecolor-adesk-attrib $-1 -1 $293 $-1 $177 -1056964608 #
tvertex-vertex $-1 -1 $-1 $291 $294 1.4855359762095154e-06 #
intcurve-curve $-1 -1 $-1 forward { exactcur full nurbs 2 open 2 
	0 2 3.7341912852688766 2 
	156.69175312273421 -31.089993465399274 12.794406946955382 1 
	156.69175312273421 -50.847117602021427 1.7990510242466721e-14 2.2078228271485361 
	156.69175312273421 -31.089993465399274 -12.794406946955338 1 
	0 
	null_surface 
	null_surface 
	nullbs 
	nullbs 
	I I 
	0 
	0 
	0 
	F 1 F 0 } F 1.8670956412141071 F 2.8457553093739323 #
edge $295 -1 $-1 $296 0.88843600906933506 $180 1.8670956412141031 $178 $297 forward @7 unknown #
DXID-attrib $-1 -1 $-1 $179 $116 @18 ASM_EDGE_FROM_STEP @3 261 #
point $-1 -1 $-1 156.69175312380753 -44.688072914335876 4.0455188945403647e-09 #
coedge $-1 -1 $-1 $222 $182 $235 $291 forward $49 $-1 #
coedge $-1 -1 $-1 $298 $299 $182 $246 forward $272 $-1 #
edge $300 -1 $-1 $301 2.5192244368002514 $249 3.1415926535897865 $182 $302 forward @7 unknown #
coedge $-1 -1 $-1 $183 $303 $298 $304 reversed $189 $-1 #
truecolor-adesk-attrib $-1 -1 $305 $-1 $184 -1056964608 #
vertex $-1 -1 $-1 $184 $306 #
straight-curve $-1 -1 $-1 158.19175156282125 -60.259198866766525 9.7300565121952887e-15 1.1714529999999535e-12 -1000 -1.9358929633229448e-13 F -0.18066920406988557 F -0.028169205401367137 #
coedge $-1 -1 $-1 $185 $222 $226 $280 reversed $49 $-1 #
coedge $-1 -1 $-1 $307 $308 $185 $253 reversed $309 $-1 #
edge $310 -1 $-1 $311 2.5192244368002514 $256 3.1415926535897865 $185 $312 forward @7 unknown #
coedge $-1 -1 $-1 $313 $186 $308 $314 forward $189 $-1 #
truecolor-adesk-attrib $-1 -1 $315 $-1 $187 -1056964608 #
vertex $-1 -1 $-1 $253 $316 #
straight-curve $-1 -1 $-1 142.19175468264729 -60.259198866766539 7.7706220156276498e-15 1.1714529999999535e-12 -1000 -1.9358929633229448e-13 F -0.18066920406988557 F -0.028169205401367137 #
DXID-attrib $-1 -1 $-1 $190 $125 @18 ASM_EDGE_FROM_STEP @3 870 #
DXID-attrib $-1 -1 $-1 $192 $126 @18 ASM_FACE_FROM_STEP @16 step-1M-403-6952 #
DXID-attrib $-1 -1 $-1 $197 $137 @18 ASM_FACE_FROM_STEP @16 step-1M-403-3216 #
truecolor-adesk-attrib $-1 -1 $317 $-1 $198 -1056964608 #
sphere-surface $-1 -1 $-1 150.19175312273427 -53.05919886676655 1.4609371061645674e-14 7.2000000000000011 -1.2989340843532299e-16 0.70710678118654702 0.70710678118654813 -0.57735026918962573 0.57735026918962629 -0.57735026918962551 forward_v I I I I #
DXID-attrib $-1 -1 $318 $201 $141 @18 ASM_EDGE_FROM_STEP @4 6584 #
truecolor-adesk-attrib $-1 -1 $319 $-1 $203 -1056964608 #
sphere-surface $-1 -1 $-1 150.19175312273427 -53.05919886676655 1.4609371061645674e-14 7.2000000000000011 1.8369701987210297e-16 7.4571849633227789e-16 -1 1.4407355450022784e-30 1 7.4571849633227789e-16 forward_v I I I I #
DXID-attrib $-1 -1 $-1 $207 $148 @18 ASM_EDGE_FROM_STEP @4 2906 #
DXID-attrib $-1 -1 $-1 $211 $153 @18 ASM_EDGE_FROM_STEP @4 3778 #
DXID-attrib $-1 -1 $-1 $214 $160 @18 ASM_EDGE_FROM_STEP @4 1663 #
DXID-attrib $-1 -1 $-1 $216 $161 @18 ASM_FACE_FROM_STEP @16 step-1M-403-7366 #
truecolor-adesk-attrib $-1 -1 $320 $-1 $217 -1056964608 #
face $321 -1 $-1 $322 $237 $3 $-1 $323 reversed single #
loop $-1 -1 $-1 $-1 $245 $217 #
plane-surface $-1 -1 $-1 161.69175312273424 -32.089993465399701 -16.37988712949997 1.1714530000000436e-15 -1 -5.2882359633229271e-16 1 1.1714530000000436e-15 1.8369701987212631e-16 forward_v I I I I #
DXID-attrib $-1 -1 $-1 $220 $166 @18 ASM_EDGE_FROM_STEP @4 1155 #
pcurve $-1 -1 $-1 0 forward { exppc nubs 1 open 2 
	-2.5192241650347706 1 -0.62236848855502247 1 
	-2.2711509794622553 2.5192241650347733 
	-2.2711509794622553 0.62236848855502303 
	2.8990143619012088e-14 
	cone 150.19175312273427 -60.259198866766539 9.2401978880532863e-15 1.1714529999999532e-15 -1 -1.9358929633229464e-16 -7.999998440086971 -9.3716221726348288e-15 -1.4695758724256355e-15 1 I I 0 1 7.999998440086971 forward I I I I 
	} 0 0 #
truecolor-adesk-attrib $-1 -1 $324 $-1 $223 -1056964608 #
ellipse-curve $-1 -1 $-1 150.19175312273427 -42.089994573866491 2.2789309592908669e-14 1.1714529999999534e-15 -1 -1.9358929633229455e-16 -8 -9.3716239999996275e-15 -1.4695761589770111e-15 1 F 0.62236848855502247 F 2.5192241650347706 #
coedge $-1 -1 $-1 $279 $225 $313 $325 forward $227 $-1 #
coedge $-1 -1 $-1 $226 $278 $307 $326 reversed $227 $-1 #
edge $327 -1 $-1 $311 -0.02816920540136714 $229 -0.018169203607667671 $251 $328 forward @7 unknown #
face $329 -1 $-1 $80 $227 $3 $-1 $330 forward single #
DXID-attrib $-1 -1 $-1 $228 $171 @18 ASM_EDGE_FROM_STEP @4 4747 #
point $-1 -1 $-1 143.6917531227343 -42.089995259099183 -4.6636882553798094 #
tcoedge-coedge $-1 -1 $-1 $303 $313 $231 $285 reversed $189 $331 0.62236829404761529 2.5192243635004683 #
tedge-edge $332 -1 $-1 $296 -2.5192243635004683 $288 -0.62236829404761529 $231 $333 forward @7 unknown 1.5599130519306742e-06 #
pcurve $-1 -1 $-1 0 forward { exppc nubs 1 open 2 
	-2.5192243635004683 1 -0.62236829404761529 1 
	0.73504318754137732 -0.62236829008932482 
	0.73504318754137699 -2.5192243595421773 
	0 
	cone 150.19175312273427 -45.813906866766757 2.00123193173738e-14 -1.1714529999999534e-15 1 1.9358929633229455e-16 5.8500000000000005 6.8530000499997278e-15 1.0746275662519391e-15 1 I I 0.49999969167774599 0.86602558179430178 5.8500000000000005 forward I I I I 
	} 0 0 #
truecolor-adesk-attrib $-1 -1 $334 $-1 $232 -1056964608 #
tvertex-vertex $-1 -1 $-1 $285 $335 1.0404790152545017e-06 #
intcurve-curve $-1 -1 $-1 forward { exactcur full nurbs 2 open 2 
	0 2 3.7341912852688788 2 
	143.69175312273433 -31.089993465399274 12.794406946955391 1 
	143.69175312273433 -50.84711760202147 1.6712672008754514e-14 2.2078228271485303 
	143.69175312273433 -31.089993465399274 -12.794406946955352 1 
	0 
	null_surface 
	null_surface 
	nullbs 
	nullbs 
	I I 
	0 
	0 
	0 
	F 1 F 0 } F 0.88843599206961432 F 1.8670956426481826 #
coedge $-1 -1 $-1 $292 $235 $299 $336 forward $237 $-1 #
edge $337 -1 $-1 $301 -0.02816920540136714 $239 -0.018169203607667682 $244 $338 forward @7 unknown #
coedge $-1 -1 $-1 $236 $290 $303 $339 reversed $237 $-1 #
DXID-attrib $-1 -1 $-1 $238 $177 @18 ASM_EDGE_FROM_STEP @4 1937 #
point $-1 -1 $-1 156.69175312273424 -42.089995259099183 -4.6636882553798005 #
truecolor-adesk-attrib $-1 -1 $340 $-1 $241 -1056964608 #
tvertex-vertex $-1 -1 $-1 $241 $341 1.0179988671025285e-06 #
intcurve-curve $-1 -1 $-1 forward { exactcur full nurbs 2 open 2 
	0 2 3.7341912852688743 2 
	156.69175312273421 -31.089993465399274 12.794406946955375 1 
	156.69175312273421 -50.847117602021441 1.9464420776184942e-14 2.2078228271485294 
	156.69175312273421 -31.089993465399274 -12.794406946955331 1 
	0 
	null_surface 
	null_surface 
	nullbs 
	nullbs 
	I I 
	0 
	0 
	0 
	F 1 F 0 } F 0.88843600906933506 F 1.8670956412141031 #
coedge $-1 -1 $-1 $299 $245 $247 $304 forward $272 $-1 #
coedge $-1 -1 $-1 $245 $298 $290 $336 reversed $272 $-1 #
truecolor-adesk-attrib $-1 -1 $342 $-1 $246 -1056964608 #
vertex $-1 -1 $-1 $246 $343 #
ellipse-curve $-1 -1 $-1 150.19175312273427 -32.089993465399388 3.0246495382835867e-14 1.1714529999999534e-15 -1 -5.2882359633229271e-16 -7.999998440086971 -9.3716221726348288e-15 -1.4695758724256353e-15 1 F 2.5192244368002514 F 3.1415926535897865 #
coedge $-1 -1 $-1 $247 $284 $292 $339 forward $189 $-1 #
edge $344 -1 $-1 $249 -3.1415926535897998 $345 -2.5192244368002514 $247 $346 forward @7 unknown #
DXID-attrib $-1 -1 $-1 $248 $184 @18 ASM_EDGE_FROM_STEP @4 6504 #
point $-1 -1 $-1 158.19175156282125 -32.089993465399388 -2.4155891662330244e-14 #
coedge $-1 -1 $-1 $308 $252 $279 $326 forward $309 $-1 #
coedge $-1 -1 $-1 $252 $307 $254 $314 reversed $309 $-1 #
loop $-1 -1 $-1 $-1 $307 $322 #
truecolor-adesk-attrib $-1 -1 $347 $-1 $253 -1056964608 #
vertex $-1 -1 $-1 $280 $348 #
ellipse-curve $-1 -1 $-1 150.19175312273427 -32.089993465399388 3.0246495382835867e-14 -1.1714529999999534e-15 1 5.2882359633229271e-16 7.999998440086971 9.3716221726348288e-15 1.4695758724256353e-15 1 F 2.5192244368002514 F 3.1415926535897865 #
coedge $-1 -1 $-1 $284 $254 $278 $325 reversed $189 $-1 #
edge $349 -1 $-1 $256 -3.1415926535897998 $350 -2.5192244368002514 $254 $351 forward @7 unknown #
DXID-attrib $-1 -1 $-1 $255 $187 @18 ASM_EDGE_FROM_STEP @4 5916 #
point $-1 -1 $-1 142.19175468264729 -32.089993465399402 -2.6115326158897023e-14 #
DXID-attrib $-1 -1 $-1 $261 $198 @18 ASM_FACE_FROM_STEP @16 step-1M-403-6629 #
DXID-attrib $-1 -1 $-1 $263 $141 @18 ASM_EDGE_FROM_STEP @4 5909 #
DXID-attrib $-1 -1 $-1 $264 $203 @18 ASM_FACE_FROM_STEP @16 step-1M-403-7327 #
DXID-attrib $-1 -1 $-1 $270 $217 @18 ASM_FACE_FROM_STEP @16 step-1M-403-2758 #
truecolor-adesk-attrib $-1 -1 $352 $-1 $271 -1056964608 #
face $353 -1 $-1 $281 $309 $3 $-1 $354 reversed single #
plane-surface $-1 -1 $-1 156.69175312273421 -46.036648283866541 16.379887129500027 -1 -4.3248964499492528e-29 -1.8369701987208049e-16 1.8369701987208049e-16 7.4571849633226103e-16 -1 forward_v I I I I #
DXID-attrib $-1 -1 $-1 $276 $223 @18 ASM_EDGE_FROM_STEP @3 182 #
edge $355 -1 $-1 $288 0.018169203828491898 $350 0.02816920540136714 $313 $356 forward @7 unknown #
edge $357 -1 $-1 $311 0.011716200278799828 $350 0.021043573980200181 $307 $358 forward @7 unknown #
truecolor-adesk-attrib $-1 -1 $359 $-1 $280 -1056964608 #
straight-curve $-1 -1 $-1 143.69175312273433 -60.259198866766866 -4.6636868507001692 -4.6267421854936857e-26 -1000 -7.4571849633229471e-13 F -0.02816920540136714 F -0.018169203607667671 #
truecolor-adesk-attrib $-1 -1 $360 $-1 $281 -1056964608 #
plane-surface $-1 -1 $-1 143.69175312273433 -46.036648283866541 16.379887129500027 -1 -4.3248964499492528e-29 -1.8369701987208049e-16 1.8369701987208049e-16 7.4571849633226103e-16 -1 forward_v I I I I #
pcurve $-1 -1 $-1 0 forward { exppc nubs 1 open 2 
	0.62236829404761529 1 2.5192243635004683 1 
	-2.2711509794622553 -0.62236829404761773 
	-2.2711509794622553 -2.5192243635004687 
	2.049912714057537e-14 
	cone 150.19175312273427 -60.259198866766539 9.2401978880532863e-15 1.1714529999999532e-15 -1 -1.9358929633229464e-16 -7.999998440086971 -9.3716221726348288e-15 -1.4695758724256355e-15 1 I I 0 1 7.999998440086971 forward I I I I 
	} 0 0 #
truecolor-adesk-attrib $-1 -1 $361 $-1 $285 -1056964608 #
ellipse-curve $-1 -1 $-1 150.19175312273427 -42.089994573866491 2.2789309592908669e-14 1.1714529999999534e-15 -1 -1.9358929633229455e-16 -8 -9.3716239999996275e-15 -1.4695761589770111e-15 1 F -2.5192243635004683 F -0.62236829404761529 #
DXID-attrib $-1 -1 $-1 $287 $232 @18 ASM_EDGE_FROM_STEP @4 7378 #
point $-1 -1 $-1 143.69175280296761 -42.089995038274523 4.6636878408243554 #
edge $362 -1 $-1 $301 0.011716200278799828 $345 0.021043573980200181 $299 $363 forward @7 unknown #
truecolor-adesk-attrib $-1 -1 $364 $-1 $291 -1056964608 #
straight-curve $-1 -1 $-1 156.69175312273421 -60.259198866766866 -4.6636868507001674 -4.6267421854936857e-26 -1000 -7.4571849633229471e-13 F -0.02816920540136714 F -0.018169203607667682 #
edge $365 -1 $-1 $296 0.018169203672028792 $345 0.02816920540136714 $303 $366 forward @7 unknown #
DXID-attrib $-1 -1 $-1 $295 $241 @18 ASM_EDGE_FROM_STEP @3 827 #
point $-1 -1 $-1 156.69175343636903 -42.089995194737625 4.6636877974508568 #
DXID-attrib $-1 -1 $-1 $300 $246 @18 ASM_EDGE_FROM_STEP @4 1661 #
point $-1 -1 $-1 156.69175312273421 -32.089993465399729 -4.6636868507001461 #
truecolor-adesk-attrib $-1 -1 $367 $-1 $304 -1056964608 #
vertex $-1 -1 $-1 $339 $368 #
ellipse-curve $-1 -1 $-1 150.19175312273427 -32.089993465399388 3.0246495382835867e-14 1.1714529999999534e-15 -1 -5.2882359633229271e-16 -7.999998440086971 -9.3716221726348288e-15 -1.4695758724256353e-15 1 F -3.1415926535897998 F -2.5192244368002514 #
DXID-attrib $-1 -1 $-1 $310 $253 @18 ASM_EDGE_FROM_STEP @4 4926 #
point $-1 -1 $-1 143.69175312273433 -32.089993465399729 -4.6636868507001479 #
truecolor-adesk-attrib $-1 -1 $369 $-1 $314 -1056964608 #
vertex $-1 -1 $-1 $314 $370 #
ellipse-curve $-1 -1 $-1 150.19175312273427 -32.089993465399388 3.0246495382835867e-14 -1.1714529999999534e-15 1 5.2882359633229271e-16 7.999998440086971 9.3716221726348288e-15 1.4695758724256353e-15 1 F -3.1415926535897998 F -2.5192244368002514 #
DXID-attrib $-1 -1 $-1 $321 $271 @18 ASM_FACE_FROM_STEP @16 step-1M-403-5546 #
truecolor-adesk-attrib $-1 -1 $371 $-1 $322 -1056964608 #
plane-surface $-1 -1 $-1 138.69175312273433 -32.089993465399701 -16.379887129499977 -1.1714529999999536e-15 1 7.4571849633226053e-16 4.005919198720805e-16 7.4571849633226103e-16 -1 forward_v I I I I #
truecolor-adesk-attrib $-1 -1 $372 $-1 $325 -1056964608 #
straight-curve $-1 -1 $-1 143.69175312273433 -60.259198866766425 4.6636868507001852 4.6267421854936857e-26 1000 7.4571849633229471e-13 F 0.018169203828491898 F 0.02816920540136714 #
truecolor-adesk-attrib $-1 -1 $373 $-1 $326 -1056964608 #
straight-curve $-1 -1 $-1 143.69175312273433 -32.089993465399701 -16.379887129499973 -1.8369701987208048e-13 -7.4571849633226099e-13 1000 F 0.011716200278799828 F 0.021043573980200181 #
DXID-attrib $-1 -1 $-1 $327 $280 @18 ASM_EDGE_FROM_STEP @4 6912 #
DXID-attrib $-1 -1 $-1 $329 $281 @18 ASM_FACE_FROM_STEP @16 step-1M-403-3446 #
DXID-attrib $-1 -1 $-1 $332 $285 @18 ASM_EDGE_FROM_STEP @4 2664 #
truecolor-adesk-attrib $-1 -1 $374 $-1 $336 -1056964608 #
straight-curve $-1 -1 $-1 156.69175312273421 -32.089993465399701 -16.379887129499973 -1.8369701987208048e-13 -7.4571849633226099e-13 1000 F 0.011716200278799828 F 0.021043573980200181 #
DXID-attrib $-1 -1 $-1 $337 $291 @18 ASM_EDGE_FROM_STEP @3 655 #
truecolor-adesk-attrib $-1 -1 $375 $-1 $339 -1056964608 #
straight-curve $-1 -1 $-1 156.69175312273421 -60.259198866766425 4.663686850700187 4.6267421854936857e-26 1000 7.4571849633229471e-13 F 0.018169203672028792 F 0.02816920540136714 #
DXID-attrib $-1 -1 $-1 $344 $304 @18 ASM_EDGE_FROM_STEP @4 1841 #
point $-1 -1 $-1 156.69175312273421 -32.089993465399274 4.6636868507002083 #
DXID-attrib $-1 -1 $-1 $349 $314 @18 ASM_EDGE_FROM_STEP @4 6681 #
point $-1 -1 $-1 143.69175312273433 -32.089993465399274 4.6636868507002065 #
DXID-attrib $-1 -1 $-1 $353 $322 @18 ASM_FACE_FROM_STEP @16 step-1M-403-5409 #
DXID-attrib $-1 -1 $-1 $355 $325 @18 ASM_EDGE_FROM_STEP @4 5808 #
DXID-attrib $-1 -1 $-1 $357 $326 @18 ASM_EDGE_FROM_STEP @4 4560 #
DXID-attrib $-1 -1 $-1 $362 $336 @18 ASM_EDGE_FROM_STEP @4 3081 #
DXID-attrib $-1 -1 $-1 $365 $339 @18 ASM_EDGE_FROM_STEP @4 5367 #
