700 532 1 0         
5 ZWCAD 12 ACIS 28.0 NT 24 Sat May 11 13:47:45 2024 
1 9.9999999999999995e-07 1e-10 
body $1 -1 $-1 $2 $-1 $-1 #
DXID-attrib $-1 -1 $-1 $-1 $0 @18 ASM_BODY_FROM_STEP @83 C68436492743AB4CCA0869F30727829191D27789|:|CBE1C5916EAB30E44C5B921B6ADFD7864AF74C0D #
lump $-1 -1 $-1 $-1 $3 $0 #
shell $-1 -1 $-1 $-1 $-1 $4 $-1 $2 #
face $5 -1 $-1 $6 $7 $3 $-1 $8 forward single #
truecolor-adesk-attrib $-1 -1 $9 $-1 $4 -1026895378 #
face $10 -1 $-1 $11 $12 $3 $-1 $13 forward single #
loop $-1 -1 $-1 $-1 $14 $4 #
torus-surface $-1 -1 $-1 86.050738332845242 140.06294824863588 35.233987449476672 1.662005771759732e-16 -1 1.1051665376996874e-16 17.100000000000001 0.40000000000000008 -0.83525556646160848 -7.8051057034776801e-17 0.5498619269370244 forward_v I I I I #
DXID-attrib $-1 -1 $-1 $5 $4 @18 ASM_FACE_FROM_STEP @15 step-1M-562-969 #
truecolor-adesk-attrib $-1 -1 $15 $-1 $6 -1026895378 #
face $16 -1 $-1 $17 $18 $3 $-1 $19 forward single #
loop $-1 -1 $-1 $-1 $20 $6 #
torus-surface $-1 -1 $-1 86.050738332845242 140.06294824863588 35.233987449476672 1.662005771759732e-16 -1 1.1051665376996874e-16 13 0.40000000000000008 -0.83525556646160848 -7.8051057034776801e-17 0.5498619269370244 forward_v I I I I #
coedge $-1 -1 $-1 $21 $22 $23 $24 reversed $7 $-1 #
DXID-attrib $-1 -1 $-1 $10 $6 @18 ASM_FACE_FROM_STEP @16 step-1M-562-1839 #
truecolor-adesk-attrib $-1 -1 $25 $-1 $11 -1026895378 #
face $26 -1 $-1 $27 $28 $3 $-1 $29 forward single #
loop $-1 -1 $-1 $-1 $30 $11 #
torus-surface $-1 -1 $-1 86.050738332845228 184.26294824863587 35.233987449476665 -1.662005771759732e-16 1 -1.1051665376996874e-16 12.9 0.40000000000000008 0.83525556646160848 7.8051057034776801e-17 -0.5498619269370244 forward_v I I I I #
coedge $-1 -1 $-1 $31 $32 $33 $34 reversed $12 $-1 #
coedge $-1 -1 $-1 $35 $14 $36 $37 forward $7 $-1 #
coedge $-1 -1 $-1 $14 $35 $38 $39 reversed $7 $-1 #
coedge $-1 -1 $-1 $40 $41 $14 $24 forward $42 $-1 #
edge $43 -1 $-1 $44 -3.1415926535897931 $45 0 $14 $46 forward @7 unknown #
DXID-attrib $-1 -1 $-1 $16 $11 @18 ASM_FACE_FROM_STEP @16 step-1M-562-1877 #
truecolor-adesk-attrib $-1 -1 $47 $-1 $17 -1026895378 #
face $48 -1 $-1 $49 $50 $3 $-1 $51 forward single #
loop $-1 -1 $-1 $-1 $52 $17 #
torus-surface $-1 -1 $-1 86.050738332845228 184.26294824863587 35.233987449476665 -1.662005771759732e-16 1 -1.1051665376996874e-16 17.100000000000001 0.40000000000000008 0.83525556646160848 7.8051057034776801e-17 -0.5498619269370244 forward_v I I I I #
coedge $-1 -1 $-1 $53 $54 $55 $56 reversed $18 $-1 #
coedge $-1 -1 $-1 $57 $20 $58 $59 forward $12 $-1 #
coedge $-1 -1 $-1 $20 $57 $60 $61 reversed $12 $-1 #
coedge $-1 -1 $-1 $62 $62 $20 $34 forward $63 $-1 #
edge $64 -1 $-1 $65 -3.1415926535897931 $66 0 $20 $67 forward @7 unknown #
coedge $-1 -1 $-1 $22 $21 $68 $69 reversed $7 $-1 #
coedge $-1 -1 $-1 $70 $71 $21 $37 reversed $72 $-1 #
edge $73 -1 $-1 $44 -3.1415926535897931 $74 -1.5707963267948966 $21 $75 forward @7 unknown #
coedge $-1 -1 $-1 $71 $70 $22 $39 forward $72 $-1 #
edge $76 -1 $-1 $45 -3.1415926535897931 $77 -1.5707963267948966 $22 $78 forward @7 unknown #
coedge $-1 -1 $-1 $79 $23 $80 $81 reversed $42 $-1 #
coedge $-1 -1 $-1 $23 $79 $82 $83 forward $42 $-1 #
loop $-1 -1 $-1 $-1 $79 $84 #
truecolor-adesk-attrib $-1 -1 $85 $-1 $24 -1026895378 #
vertex $-1 -1 $-1 $24 $86 #
vertex $-1 -1 $-1 $24 $87 #
ellipse-curve $-1 -1 $-1 86.050738332845242 140.06294824863588 35.233987449476672 -1.662005771759732e-16 1 -1.1051665376996874e-16 -14.616972413078148 -1.3658934981085939e-15 9.6225837213979268 1 F -3.1415926535897931 F 0 #
DXID-attrib $-1 -1 $-1 $26 $17 @18 ASM_FACE_FROM_STEP @16 step-1M-562-4591 #
truecolor-adesk-attrib $-1 -1 $88 $-1 $27 -1026895378 #
face $89 -1 $-1 $90 $91 $3 $-1 $92 reversed single #
loop $-1 -1 $-1 $-1 $93 $27 #
cone-surface $-1 -1 $-1 86.050738332845242 139.66294824863587 35.233987449476672 1.662005771759732e-16 -1 1.1051665376996874e-16 -14.616972413078148 -1.3658934981085939e-15 9.6225837213979268 1 I I 0 1 17.5 forward I I I I #
coedge $-1 -1 $-1 $94 $95 $93 $96 reversed $28 $-1 #
coedge $-1 -1 $-1 $97 $30 $98 $99 forward $18 $-1 #
coedge $-1 -1 $-1 $30 $97 $100 $101 reversed $18 $-1 #
coedge $-1 -1 $-1 $102 $102 $30 $56 forward $103 $-1 #
edge $104 -1 $-1 $105 -3.1415926535897931 $106 0 $30 $107 forward @7 unknown #
coedge $-1 -1 $-1 $32 $31 $108 $109 reversed $12 $-1 #
coedge $-1 -1 $-1 $110 $111 $31 $59 reversed $112 $-1 #
edge $113 -1 $-1 $65 -1.5707963267948966 $114 0 $31 $115 forward @7 unknown #
coedge $-1 -1 $-1 $111 $110 $32 $61 forward $112 $-1 #
edge $116 -1 $-1 $66 -1.5707963267948966 $117 0 $32 $118 forward @7 unknown #
coedge $-1 -1 $-1 $33 $33 $110 $119 forward $63 $-1 #
loop $-1 -1 $-1 $-1 $62 $120 #
truecolor-adesk-attrib $-1 -1 $121 $-1 $34 -1026895378 #
vertex $-1 -1 $-1 $34 $122 #
vertex $-1 -1 $-1 $34 $123 #
ellipse-curve $-1 -1 $-1 86.050738332845242 139.66294824863587 35.233987449476672 -1.662005771759732e-16 1 -1.1051665376996874e-16 -10.858322364000911 -1.0146637414520984e-15 7.1482050501813177 1 F -3.1415926535897931 F 0 #
coedge $-1 -1 $-1 $124 $124 $35 $69 forward $125 $-1 #
edge $126 -1 $-1 $77 0 $74 3.1415926535897931 $35 $127 forward @7 unknown #
coedge $-1 -1 $-1 $38 $36 $128 $129 reversed $72 $-1 #
coedge $-1 -1 $-1 $36 $38 $124 $130 reversed $72 $-1 #
loop $-1 -1 $-1 $-1 $36 $131 #
truecolor-adesk-attrib $-1 -1 $132 $-1 $37 -1026895378 #
vertex $-1 -1 $-1 $37 $133 #
ellipse-curve $-1 -1 $-1 100.33360851933875 140.06294824863588 25.831348498853551 -0.54986192693702451 -1.8369701987210297e-16 -0.83525556646160837 -0.33410222658464422 -3.1220422813910794e-17 0.21994477077481034 1 F -3.1415926535897931 F -1.5707963267948966 #
truecolor-adesk-attrib $-1 -1 $134 $-1 $39 -1026895378 #
vertex $-1 -1 $-1 $69 $135 #
ellipse-curve $-1 -1 $-1 71.767868146351731 140.06294824863588 44.636626400099786 0.5498619269370244 1.8369701987210297e-16 0.83525556646160848 0.33410222658464422 3.12204228139108e-17 -0.21994477077481031 1 F -3.1415926535897931 F -1.5707963267948966 #
coedge $-1 -1 $-1 $41 $40 $136 $137 forward $42 $-1 #
coedge $-1 -1 $-1 $128 $138 $40 $81 forward $139 $-1 #
edge $140 -1 $-1 $141 -0.027000000000000003 $45 -0.00039999999999999975 $40 $142 forward @7 unknown #
coedge $-1 -1 $-1 $138 $128 $41 $83 reversed $139 $-1 #
edge $143 -1 $-1 $144 -0.027000000000000003 $44 -0.00039999999999999975 $41 $145 forward @7 unknown #
face $146 -1 $-1 $147 $42 $3 $-1 $148 forward single #
DXID-attrib $-1 -1 $-1 $43 $24 @18 ASM_EDGE_FROM_STEP @4 2527 #
point $-1 -1 $-1 100.66771074592339 140.06294824863588 25.611403728078741 #
point $-1 -1 $-1 71.433765919767097 140.06294824863588 44.856571170874602 #
DXID-attrib $-1 -1 $-1 $48 $27 @18 ASM_FACE_FROM_STEP @16 step-1M-562-2159 #
truecolor-adesk-attrib $-1 -1 $149 $-1 $49 -1026895378 #
face $150 -1 $-1 $151 $152 $3 $-1 $153 reversed single #
loop $-1 -1 $-1 $-1 $154 $49 #
cone-surface $-1 -1 $-1 86.050738332845242 139.66294824863587 35.233987449476672 1.662005771759732e-16 -1 1.1051665376996874e-16 -10.440694580770106 -9.7563821293471003e-16 6.8732740867128053 1 I I 0 1 12.5 forward I I I I #
coedge $-1 -1 $-1 $155 $156 $52 $96 forward $50 $-1 #
coedge $-1 -1 $-1 $157 $52 $158 $159 forward $28 $-1 #
coedge $-1 -1 $-1 $52 $157 $160 $161 reversed $28 $-1 #
edge $162 -1 $-1 $163 -3.1415926535897931 $164 -1.2246467991473532e-16 $52 $165 forward @7 unknown #
coedge $-1 -1 $-1 $54 $53 $166 $167 reversed $18 $-1 #
coedge $-1 -1 $-1 $168 $169 $53 $99 reversed $170 $-1 #
edge $171 -1 $-1 $105 1.5707963267948966 $172 3.1415926535897931 $53 $173 forward @7 unknown #
coedge $-1 -1 $-1 $169 $168 $54 $101 forward $170 $-1 #
edge $174 -1 $-1 $106 1.5707963267948966 $175 3.1415926535897931 $54 $176 forward @7 unknown #
coedge $-1 -1 $-1 $55 $55 $168 $177 forward $103 $-1 #
loop $-1 -1 $-1 $-1 $102 $178 #
truecolor-adesk-attrib $-1 -1 $179 $-1 $56 -1026895378 #
vertex $-1 -1 $-1 $56 $180 #
vertex $-1 -1 $-1 $56 $181 #
ellipse-curve $-1 -1 $-1 86.050738332845228 184.66294824863587 35.233987449476665 1.662005771759732e-16 -1 1.1051665376996874e-16 10.77479680735475 1.0068586357486207e-15 -7.0932188574876154 1 F -3.1415926535897931 F 0 #
coedge $-1 -1 $-1 $182 $183 $57 $109 forward $184 $-1 #
edge $185 -1 $-1 $117 0 $114 3.1415926535897931 $57 $186 forward @7 unknown #
coedge $-1 -1 $-1 $60 $58 $62 $119 reversed $112 $-1 #
coedge $-1 -1 $-1 $58 $60 $187 $188 reversed $112 $-1 #
loop $-1 -1 $-1 $-1 $58 $189 #
truecolor-adesk-attrib $-1 -1 $190 $-1 $59 -1026895378 #
vertex $-1 -1 $-1 $59 $191 #
ellipse-curve $-1 -1 $-1 96.909060696846154 140.06294824863588 28.085782399295354 -0.54986192693702451 -1.8369701987210297e-16 -0.83525556646160837 -0.33410222658464278 -3.1220422813910659e-17 0.21994477077480939 1 F -1.5707963267948966 F 0 #
truecolor-adesk-attrib $-1 -1 $192 $-1 $61 -1026895378 #
vertex $-1 -1 $-1 $109 $193 #
ellipse-curve $-1 -1 $-1 75.19241596884433 140.06294824863588 42.38219249965799 0.5498619269370244 1.8369701987210297e-16 0.83525556646160848 0.33410222658464278 3.1220422813910665e-17 -0.21994477077480937 1 F -1.5707963267948966 F 0 #
edge $194 -1 $-1 $66 0 $65 3.1415926535897931 $62 $195 forward @7 unknown #
face $196 -1 $-1 $197 $125 $3 $-1 $198 forward single #
DXID-attrib $-1 -1 $-1 $64 $34 @18 ASM_EDGE_FROM_STEP @4 1830 #
point $-1 -1 $-1 96.909060696846154 139.66294824863587 28.085782399295354 #
point $-1 -1 $-1 75.19241596884433 139.66294824863587 42.38219249965799 #
coedge $-1 -1 $-1 $68 $68 $71 $130 forward $125 $-1 #
loop $-1 -1 $-1 $63 $68 $120 #
truecolor-adesk-attrib $-1 -1 $199 $-1 $69 -1026895378 #
ellipse-curve $-1 -1 $-1 86.050738332845242 139.66294824863587 35.233987449476672 1.662005771759732e-16 -1 1.1051665376996874e-16 -14.282870186493506 -1.3346730752946834e-15 9.4026389506231176 1 F 0 F 3.1415926535897931 #
coedge $-1 -1 $-1 $82 $80 $70 $129 forward $139 $-1 #
edge $200 -1 $-1 $45 0 $44 3.1415926535897931 $128 $201 forward @7 unknown #
edge $202 -1 $-1 $74 -3.1415926535897931 $77 0 $124 $203 forward @7 unknown #
face $204 -1 $-1 $-1 $72 $3 $-1 $205 forward single #
DXID-attrib $-1 -1 $-1 $73 $37 @18 ASM_EDGE_FROM_STEP @4 4773 #
point $-1 -1 $-1 100.33360851933875 139.66294824863587 25.831348498853551 #
DXID-attrib $-1 -1 $-1 $76 $39 @18 ASM_EDGE_FROM_STEP @4 3547 #
point $-1 -1 $-1 71.767868146351731 139.66294824863587 44.636626400099786 #
coedge $-1 -1 $-1 $206 $206 $79 $137 reversed $207 $-1 #
edge $208 -1 $-1 $141 0 $144 3.1415926535897931 $79 $209 forward @7 unknown #
coedge $-1 -1 $-1 $80 $82 $206 $210 forward $139 $-1 #
loop $-1 -1 $-1 $-1 $82 $211 #
truecolor-adesk-attrib $-1 -1 $212 $-1 $81 -1026895378 #
vertex $-1 -1 $-1 $137 $213 #
straight-curve $-1 -1 $-1 71.433765919767097 139.66294824863587 44.856571170874602 1.6620057717597321e-13 -1000 1.1051665376996874e-13 F -0.027000000000000003 F -0.00039999999999999975 #
truecolor-adesk-attrib $-1 -1 $214 $-1 $83 -1026895378 #
vertex $-1 -1 $-1 $137 $215 #
straight-curve $-1 -1 $-1 100.66771074592339 139.66294824863587 25.611403728078741 1.6620057717597321e-13 -1000 1.1051665376996874e-13 F -0.027000000000000003 F -0.00039999999999999975 #
truecolor-adesk-attrib $-1 -1 $216 $-1 $84 -1026895378 #
face $217 -1 $-1 $218 $219 $3 $-1 $220 forward single #
cone-surface $-1 -1 $-1 86.050738332845242 139.66294824863587 35.233987449476672 1.662005771759732e-16 -1 1.1051665376996874e-16 -14.616972413078148 -1.3658934981085939e-15 9.6225837213979268 1 I I 0 1 17.5 forward I I I I #
DXID-attrib $-1 -1 $-1 $89 $49 @18 ASM_FACE_FROM_STEP @16 step-1M-562-6502 #
truecolor-adesk-attrib $-1 -1 $221 $-1 $90 -1026895378 #
face $222 -1 $-1 $223 $224 $3 $-1 $225 reversed single #
loop $-1 -1 $-1 $-1 $226 $90 #
cone-surface $-1 -1 $-1 86.050738332845242 139.66294824863587 35.233987449476672 1.662005771759732e-16 -1 1.1051665376996874e-16 -8.4778439995853283 -7.9221822890298469e-16 5.5810985584107993 1 I I 0 1 10.150000000000002 forward I I I I #
coedge $-1 -1 $-1 $227 $228 $169 $229 forward $91 $-1 #
coedge $-1 -1 $-1 $230 $93 $231 $232 forward $50 $-1 #
coedge $-1 -1 $-1 $93 $230 $233 $234 reversed $50 $-1 #
coedge $-1 -1 $-1 $95 $94 $235 $236 reversed $28 $-1 #
coedge $-1 -1 $-1 $237 $238 $94 $159 reversed $239 $-1 #
edge $240 -1 $-1 $163 0 $241 1.5707963267948966 $94 $242 forward @7 unknown #
coedge $-1 -1 $-1 $238 $237 $95 $161 forward $239 $-1 #
edge $243 -1 $-1 $164 0 $244 1.5707963267948966 $95 $245 forward @7 unknown #
truecolor-adesk-attrib $-1 -1 $246 $-1 $96 -1026895378 #
vertex $-1 -1 $-1 $96 $247 #
vertex $-1 -1 $-1 $96 $248 #
ellipse-curve $-1 -1 $-1 86.050738332845228 184.26294824863587 35.233987449476665 1.662005771759732e-16 -1 1.1051665376996874e-16 14.616972413078148 1.3658934981085939e-15 -9.6225837213979268 1 F -3.1415926535897931 F -1.2246467991473532e-16 #
coedge $-1 -1 $-1 $249 $250 $97 $167 forward $251 $-1 #
edge $252 -1 $-1 $175 1.2246467991473532e-16 $172 3.1415926535897931 $97 $253 forward @7 unknown #
coedge $-1 -1 $-1 $100 $98 $102 $177 reversed $170 $-1 #
coedge $-1 -1 $-1 $98 $100 $154 $229 reversed $170 $-1 #
loop $-1 -1 $-1 $-1 $98 $254 #
truecolor-adesk-attrib $-1 -1 $255 $-1 $99 -1026895378 #
vertex $-1 -1 $-1 $99 $256 #
ellipse-curve $-1 -1 $-1 75.275941525490481 184.26294824863587 42.327206306964278 -0.54986192693702429 -1.8369701987210297e-16 -0.83525556646160859 -0.33410222658464278 -3.1220422813910671e-17 0.21994477077480934 1 F 1.5707963267948966 F 3.1415926535897931 #
truecolor-adesk-attrib $-1 -1 $257 $-1 $101 -1026895378 #
vertex $-1 -1 $-1 $167 $258 #
ellipse-curve $-1 -1 $-1 96.825535140199989 184.26294824863587 28.140768591989051 0.5498619269370244 1.8369701987210297e-16 0.83525556646160848 0.33410222658464278 3.1220422813910665e-17 -0.21994477077480937 1 F 1.5707963267948966 F 3.1415926535897931 #
edge $259 -1 $-1 $106 0 $105 3.1415926535897931 $102 $260 forward @7 unknown #
face $261 -1 $-1 $262 $263 $3 $-1 $264 forward single #
DXID-attrib $-1 -1 $-1 $104 $56 @18 ASM_EDGE_FROM_STEP @4 1123 #
point $-1 -1 $-1 75.275941525490481 184.66294824863587 42.327206306964278 #
point $-1 -1 $-1 96.825535140199989 184.66294824863587 28.140768591989051 #
coedge $-1 -1 $-1 $265 $108 $266 $267 reversed $184 $-1 #
coedge $-1 -1 $-1 $108 $265 $268 $269 forward $184 $-1 #
loop $-1 -1 $-1 $-1 $182 $197 #
truecolor-adesk-attrib $-1 -1 $270 $-1 $109 -1026895378 #
ellipse-curve $-1 -1 $-1 86.050738332845242 140.06294824863588 35.233987449476672 1.662005771759732e-16 -1 1.1051665376996874e-16 -10.524220137416265 -9.834433186381875e-16 6.9282602794065067 1 F 0 F 3.1415926535897931 #
coedge $-1 -1 $-1 $268 $266 $111 $188 forward $271 $-1 #
edge $272 -1 $-1 $114 -3.1415926535897931 $117 0 $187 $273 forward @7 unknown #
face $274 -1 $-1 $131 $112 $3 $-1 $275 forward single #
DXID-attrib $-1 -1 $-1 $113 $59 @18 ASM_EDGE_FROM_STEP @4 4776 #
point $-1 -1 $-1 96.574958470261507 140.06294824863588 28.305727170070163 #
DXID-attrib $-1 -1 $-1 $116 $61 @18 ASM_EDGE_FROM_STEP @4 4602 #
point $-1 -1 $-1 75.526518195428977 140.06294824863588 42.16224772888318 #
truecolor-adesk-attrib $-1 -1 $276 $-1 $119 -1026895378 #
ellipse-curve $-1 -1 $-1 86.050738332845242 139.66294824863587 35.233987449476672 -1.662005771759732e-16 1 -1.1051665376996874e-16 -10.858322364000911 -1.0146637414520984e-15 7.1482050501813177 1 F 0 F 3.1415926535897931 #
truecolor-adesk-attrib $-1 -1 $277 $-1 $120 -1026895378 #
face $278 -1 $-1 $279 $184 $3 $-1 $280 reversed single #
plane-surface $-1 -1 $-1 86.050738332845242 139.66294824863587 35.233987449476672 1.662005771759732e-16 -1 1.1051665376996874e-16 -0.83525556646160848 -7.8051057034776801e-17 0.5498619269370244 forward_v I I I I #
DXID-attrib $-1 -1 $-1 $126 $69 @18 ASM_EDGE_FROM_STEP @4 4171 #
truecolor-adesk-attrib $-1 -1 $281 $-1 $129 -1026895378 #
ellipse-curve $-1 -1 $-1 86.050738332845242 140.06294824863588 35.233987449476672 -1.662005771759732e-16 1 -1.1051665376996874e-16 -14.616972413078148 -1.3658934981085939e-15 9.6225837213979268 1 F 0 F 3.1415926535897931 #
truecolor-adesk-attrib $-1 -1 $282 $-1 $130 -1026895378 #
ellipse-curve $-1 -1 $-1 86.050738332845242 139.66294824863587 35.233987449476672 1.662005771759732e-16 -1 1.1051665376996874e-16 -14.282870186493506 -1.3346730752946834e-15 9.4026389506231176 1 F -3.1415926535897931 F 0 #
truecolor-adesk-attrib $-1 -1 $283 $-1 $131 -1026895378 #
torus-surface $-1 -1 $-1 86.050738332845242 140.06294824863588 35.233987449476672 1.662005771759732e-16 -1 1.1051665376996874e-16 17.100000000000001 0.40000000000000008 -0.83525556646160848 -7.8051057034776801e-17 0.5498619269370244 forward_v I I I I #
coedge $-1 -1 $-1 $136 $136 $138 $210 reversed $207 $-1 #
loop $-1 -1 $-1 $-1 $136 $284 #
truecolor-adesk-attrib $-1 -1 $285 $-1 $137 -1026895378 #
ellipse-curve $-1 -1 $-1 86.050738332845242 166.66294824863587 35.233987449476672 1.662005771759732e-16 -1 1.1051665376996874e-16 -14.616972413078148 -1.3658934981085939e-15 9.6225837213979268 1 F 0 F 3.1415926535897931 #
edge $286 -1 $-1 $144 -3.1415926535897931 $141 0 $206 $287 forward @7 unknown #
face $288 -1 $-1 $120 $139 $3 $-1 $289 forward single #
DXID-attrib $-1 -1 $-1 $140 $81 @18 ASM_EDGE_FROM_STEP @3 733 #
point $-1 -1 $-1 71.433765919767083 166.66294824863587 44.856571170874595 #
DXID-attrib $-1 -1 $-1 $143 $83 @18 ASM_EDGE_FROM_STEP @4 5515 #
point $-1 -1 $-1 100.66771074592339 166.66294824863587 25.611403728078741 #
DXID-attrib $-1 -1 $-1 $146 $84 @18 ASM_FACE_FROM_STEP @15 step-1M-562-457 #
truecolor-adesk-attrib $-1 -1 $290 $-1 $147 -1026895378 #
face $291 -1 $-1 $284 $292 $3 $-1 $293 forward single #
loop $-1 -1 $-1 $-1 $294 $147 #
cone-surface $-1 -1 $-1 86.050738332845242 139.66294824863587 35.233987449476672 1.662005771759732e-16 -1 1.1051665376996874e-16 -18.793250245386204 -1.7561487832824792e-15 12.371893356083056 1 I I 0 1 22.500000000000014 forward I I I I #
DXID-attrib $-1 -1 $-1 $150 $90 @18 ASM_FACE_FROM_STEP @16 step-1M-562-3805 #
truecolor-adesk-attrib $-1 -1 $295 $-1 $151 -1026895378 #
face $296 -1 $-1 $84 $271 $3 $-1 $297 reversed single #
loop $-1 -1 $-1 $-1 $298 $151 #
cone-surface $-1 -1 $-1 86.050738332845242 156.66294824863587 35.233987449476672 1.662005771759732e-16 -1 1.1051665376996874e-16 -10.524220137416265 -9.834433186381875e-16 6.9282602794065067 1 I I 0.7071067811865458 0.70710678118654924 12.599999999999998 forward I I I I #
coedge $-1 -1 $-1 $299 $300 $301 $302 reversed $152 $-1 #
coedge $-1 -1 $-1 $303 $154 $250 $304 forward $91 $-1 #
coedge $-1 -1 $-1 $154 $303 $249 $305 reversed $91 $-1 #
edge $306 -1 $-1 $172 -3.1415926535897931 $175 1.2246467991473532e-16 $154 $307 forward @7 unknown #
coedge $-1 -1 $-1 $156 $155 $308 $309 reversed $50 $-1 #
coedge $-1 -1 $-1 $310 $311 $155 $232 reversed $312 $-1 #
edge $313 -1 $-1 $164 -0.044600000000000001 $314 -0.032000000000000001 $155 $315 forward @7 unknown #
coedge $-1 -1 $-1 $311 $310 $156 $234 forward $312 $-1 #
edge $316 -1 $-1 $163 -0.044600000000000001 $317 -0.032000000000000001 $156 $318 forward @7 unknown #
coedge $-1 -1 $-1 $319 $319 $157 $236 forward $263 $-1 #
edge $320 -1 $-1 $244 0 $241 3.1415926535897931 $157 $321 forward @7 unknown #
coedge $-1 -1 $-1 $160 $158 $310 $322 reversed $239 $-1 #
coedge $-1 -1 $-1 $158 $160 $319 $323 reversed $239 $-1 #
loop $-1 -1 $-1 $-1 $158 $324 #
truecolor-adesk-attrib $-1 -1 $325 $-1 $159 -1026895378 #
vertex $-1 -1 $-1 $159 $326 #
ellipse-curve $-1 -1 $-1 71.767868146351731 184.26294824863587 44.636626400099786 -0.54986192693702429 -1.8369701987210297e-16 -0.83525556646160859 -0.33410222658464422 -3.1220422813910807e-17 0.21994477077481028 1 F 0 F 1.5707963267948966 #
truecolor-adesk-attrib $-1 -1 $327 $-1 $161 -1026895378 #
vertex $-1 -1 $-1 $236 $328 #
ellipse-curve $-1 -1 $-1 100.33360851933874 184.26294824863587 25.831348498853551 0.5498619269370244 1.8369701987210297e-16 0.83525556646160848 0.33410222658464422 3.12204228139108e-17 -0.21994477077481031 1 F 0 F 1.5707963267948966 #
DXID-attrib $-1 -1 $-1 $162 $96 @18 ASM_EDGE_FROM_STEP @3 485 #
point $-1 -1 $-1 71.433765919767083 184.26294824863587 44.856571170874595 #
point $-1 -1 $-1 100.66771074592339 184.26294824863587 25.611403728078738 #
coedge $-1 -1 $-1 $329 $166 $228 $305 forward $251 $-1 #
coedge $-1 -1 $-1 $166 $329 $227 $304 reversed $251 $-1 #
loop $-1 -1 $-1 $-1 $250 $330 #
truecolor-adesk-attrib $-1 -1 $331 $-1 $167 -1026895378 #
ellipse-curve $-1 -1 $-1 86.050738332845228 184.26294824863587 35.233987449476665 -1.662005771759732e-16 1 -1.1051665376996874e-16 10.440694580770106 9.7563821293471003e-16 -6.8732740867128053 1 F 1.2246467991473532e-16 F 3.1415926535897931 #
face $332 -1 $-1 $189 $170 $3 $-1 $333 forward single #
DXID-attrib $-1 -1 $-1 $171 $99 @18 ASM_EDGE_FROM_STEP @4 5917 #
point $-1 -1 $-1 75.610043752075129 184.26294824863587 42.107261536189469 #
DXID-attrib $-1 -1 $-1 $174 $101 @18 ASM_EDGE_FROM_STEP @4 5737 #
point $-1 -1 $-1 96.491432913615341 184.26294824863587 28.36071336276386 #
truecolor-adesk-attrib $-1 -1 $334 $-1 $177 -1026895378 #
ellipse-curve $-1 -1 $-1 86.050738332845228 184.66294824863587 35.233987449476665 1.662005771759732e-16 -1 1.1051665376996874e-16 10.77479680735475 1.0068586357486207e-15 -7.0932188574876154 1 F 0 F 3.1415926535897931 #
truecolor-adesk-attrib $-1 -1 $335 $-1 $178 -1026895378 #
face $336 -1 $-1 $337 $312 $3 $-1 $338 forward single #
loop $-1 -1 $-1 $103 $235 $178 #
plane-surface $-1 -1 $-1 86.050738332845228 184.66294824863587 35.233987449476665 -1.662005771759732e-16 1 -1.1051665376996874e-16 0.83525556646160848 7.8051057034776801e-17 -0.5498619269370244 forward_v I I I I #
coedge $-1 -1 $-1 $183 $182 $339 $340 reversed $184 $-1 #
coedge $-1 -1 $-1 $187 $341 $182 $267 forward $271 $-1 #
edge $342 -1 $-1 $343 -0.017000000000000001 $114 -0.00039999999999999975 $266 $344 forward @7 unknown #
coedge $-1 -1 $-1 $341 $187 $183 $269 reversed $271 $-1 #
edge $345 -1 $-1 $346 -0.017000000000000001 $117 -0.00039999999999999975 $268 $347 forward @7 unknown #
DXID-attrib $-1 -1 $-1 $185 $109 @18 ASM_EDGE_FROM_STEP @3 621 #
loop $-1 -1 $-1 $-1 $341 $223 #
truecolor-adesk-attrib $-1 -1 $348 $-1 $188 -1026895378 #
ellipse-curve $-1 -1 $-1 86.050738332845242 140.06294824863588 35.233987449476672 1.662005771759732e-16 -1 1.1051665376996874e-16 -10.524220137416265 -9.834433186381875e-16 6.9282602794065067 1 F -3.1415926535897931 F 0 #
truecolor-adesk-attrib $-1 -1 $349 $-1 $189 -1026895378 #
torus-surface $-1 -1 $-1 86.050738332845242 140.06294824863588 35.233987449476672 1.662005771759732e-16 -1 1.1051665376996874e-16 13 0.40000000000000008 -0.83525556646160848 -7.8051057034776801e-17 0.5498619269370244 forward_v I I I I #
DXID-attrib $-1 -1 $-1 $194 $119 @18 ASM_EDGE_FROM_STEP @3 433 #
DXID-attrib $-1 -1 $-1 $196 $120 @18 ASM_FACE_FROM_STEP @16 step-1M-562-5387 #
truecolor-adesk-attrib $-1 -1 $350 $-1 $197 -1026895378 #
face $351 -1 $-1 $352 $353 $3 $-1 $354 reversed single #
cone-surface $-1 -1 $-1 86.050738332845242 139.66294824863587 35.233987449476672 1.662005771759732e-16 -1 1.1051665376996874e-16 -10.524220137416265 -9.834433186381875e-16 6.9282602794065067 1 I I 0 1 12.6 forward I I I I #
DXID-attrib $-1 -1 $-1 $200 $129 @18 ASM_EDGE_FROM_STEP @4 5474 #
DXID-attrib $-1 -1 $-1 $202 $130 @18 ASM_EDGE_FROM_STEP @3 812 #
DXID-attrib $-1 -1 $-1 $204 $131 @18 ASM_FACE_FROM_STEP @16 step-1M-562-6978 #
face $355 -1 $-1 $211 $356 $3 $-1 $357 reversed single #
DXID-attrib $-1 -1 $-1 $208 $137 @18 ASM_EDGE_FROM_STEP @4 4640 #
truecolor-adesk-attrib $-1 -1 $358 $-1 $210 -1026895378 #
ellipse-curve $-1 -1 $-1 86.050738332845242 166.66294824863587 35.233987449476672 1.662005771759732e-16 -1 1.1051665376996874e-16 -14.616972413078148 -1.3658934981085939e-15 9.6225837213979268 1 F -3.1415926535897931 F 0 #
truecolor-adesk-attrib $-1 -1 $359 $-1 $211 -1026895378 #
cone-surface $-1 -1 $-1 86.050738332845242 139.66294824863587 35.233987449476672 1.662005771759732e-16 -1 1.1051665376996874e-16 -14.616972413078148 -1.3658934981085939e-15 9.6225837213979268 1 I I 0 1 17.5 forward I I I I #
DXID-attrib $-1 -1 $-1 $217 $147 @18 ASM_FACE_FROM_STEP @16 step-1M-562-6401 #
truecolor-adesk-attrib $-1 -1 $360 $-1 $218 -1026895378 #
loop $-1 -1 $-1 $-1 $361 $218 #
cone-surface $-1 -1 $-1 86.050738332845242 139.66294824863587 35.233987449476672 1.662005771759732e-16 -1 1.1051665376996874e-16 -18.793250245386204 -1.7561487832824792e-15 12.371893356083056 1 I I 0 1 22.500000000000014 forward I I I I #
coedge $-1 -1 $-1 $362 $363 $364 $365 forward $219 $-1 #
DXID-attrib $-1 -1 $-1 $222 $151 @18 ASM_FACE_FROM_STEP @16 step-1M-562-5646 #
truecolor-adesk-attrib $-1 -1 $366 $-1 $223 -1026895378 #
cone-surface $-1 -1 $-1 86.050738332845242 139.66294824863587 35.233987449476672 1.662005771759732e-16 -1 1.1051665376996874e-16 -10.524220137416265 -9.834433186381875e-16 6.9282602794065067 1 I I 0 1 12.6 forward I I I I #
coedge $-1 -1 $-1 $367 $368 $369 $370 reversed $224 $-1 #
coedge $-1 -1 $-1 $369 $226 $371 $372 forward $152 $-1 #
coedge $-1 -1 $-1 $226 $369 $373 $374 reversed $152 $-1 #
coedge $-1 -1 $-1 $375 $375 $226 $302 forward $376 $-1 #
edge $377 -1 $-1 $378 -3.1415926535897931 $379 0 $226 $380 forward @7 unknown #
coedge $-1 -1 $-1 $228 $227 $381 $382 forward $91 $-1 #
edge $383 -1 $-1 $175 -0.044600000000000001 $384 -0.024450000000000017 $227 $385 forward @7 unknown #
edge $386 -1 $-1 $172 -0.044600000000000001 $387 -0.024450000000000017 $228 $388 forward @7 unknown #
truecolor-adesk-attrib $-1 -1 $389 $-1 $229 -1026895378 #
ellipse-curve $-1 -1 $-1 86.050738332845228 184.26294824863587 35.233987449476665 -1.662005771759732e-16 1 -1.1051665376996874e-16 10.440694580770106 9.7563821293471003e-16 -6.8732740867128053 1 F -3.1415926535897931 F 1.2246467991473532e-16 #
coedge $-1 -1 $-1 $390 $390 $230 $309 forward $391 $-1 #
edge $392 -1 $-1 $317 0 $314 3.1415926535897931 $230 $393 forward @7 unknown #
coedge $-1 -1 $-1 $233 $231 $237 $322 forward $312 $-1 #
coedge $-1 -1 $-1 $231 $233 $390 $394 reversed $312 $-1 #
loop $-1 -1 $-1 $-1 $231 $262 #
truecolor-adesk-attrib $-1 -1 $395 $-1 $232 -1026895378 #
vertex $-1 -1 $-1 $232 $396 #
straight-curve $-1 -1 $-1 100.66771074592339 139.66294824863587 25.611403728078741 1.6620057717597321e-13 -1000 1.1051665376996874e-13 F -0.044600000000000001 F -0.032000000000000001 #
truecolor-adesk-attrib $-1 -1 $397 $-1 $234 -1026895378 #
vertex $-1 -1 $-1 $309 $398 #
straight-curve $-1 -1 $-1 71.433765919767097 139.66294824863587 44.856571170874602 1.6620057717597321e-13 -1000 1.1051665376996874e-13 F -0.044600000000000001 F -0.032000000000000001 #
coedge $-1 -1 $-1 $235 $235 $238 $323 forward $263 $-1 #
truecolor-adesk-attrib $-1 -1 $399 $-1 $236 -1026895378 #
ellipse-curve $-1 -1 $-1 86.050738332845228 184.66294824863587 35.233987449476665 -1.662005771759732e-16 1 -1.1051665376996874e-16 14.282870186493506 1.3346730752946834e-15 -9.4026389506231176 1 F 0 F 3.1415926535897931 #
edge $400 -1 $-1 $164 -1.2246467991473532e-16 $163 3.1415926535897931 $310 $401 forward @7 unknown #
edge $402 -1 $-1 $241 -3.1415926535897931 $244 0 $319 $403 forward @7 unknown #
face $404 -1 $-1 $254 $239 $3 $-1 $405 forward single #
DXID-attrib $-1 -1 $-1 $240 $159 @18 ASM_EDGE_FROM_STEP @4 4018 #
point $-1 -1 $-1 71.767868146351731 184.66294824863587 44.636626400099786 #
DXID-attrib $-1 -1 $-1 $243 $161 @18 ASM_EDGE_FROM_STEP @4 1136 #
point $-1 -1 $-1 100.33360851933874 184.66294824863587 25.831348498853551 #
coedge $-1 -1 $-1 $250 $249 $406 $407 forward $251 $-1 #
face $408 -1 $-1 $178 $251 $3 $-1 $409 reversed single #
DXID-attrib $-1 -1 $-1 $252 $167 @18 ASM_EDGE_FROM_STEP @4 1871 #
truecolor-adesk-attrib $-1 -1 $410 $-1 $254 -1026895378 #
torus-surface $-1 -1 $-1 86.050738332845228 184.26294824863587 35.233987449476665 -1.662005771759732e-16 1 -1.1051665376996874e-16 12.9 0.40000000000000008 0.83525556646160848 7.8051057034776801e-17 -0.5498619269370244 forward_v I I I I #
DXID-attrib $-1 -1 $-1 $259 $177 @18 ASM_EDGE_FROM_STEP @4 5275 #
DXID-attrib $-1 -1 $-1 $261 $178 @18 ASM_FACE_FROM_STEP @16 step-1M-562-2741 #
truecolor-adesk-attrib $-1 -1 $411 $-1 $262 -1026895378 #
face $412 -1 $-1 $324 $413 $3 $-1 $414 reversed single #
cone-surface $-1 -1 $-1 86.050738332845242 139.66294824863587 35.233987449476672 1.662005771759732e-16 -1 1.1051665376996874e-16 -14.616972413078148 -1.3658934981085939e-15 9.6225837213979268 1 I I 0 1 17.5 forward I I I I #
coedge $-1 -1 $-1 $415 $416 $265 $340 forward $353 $-1 #
edge $417 -1 $-1 $346 0 $343 3.1415926535897931 $265 $418 forward @7 unknown #
coedge $-1 -1 $-1 $266 $268 $419 $420 reversed $271 $-1 #
truecolor-adesk-attrib $-1 -1 $421 $-1 $267 -1026895378 #
vertex $-1 -1 $-1 $422 $423 #
straight-curve $-1 -1 $-1 96.574958470261507 139.66294824863587 28.305727170070163 1.6620057717597321e-13 -1000 1.1051665376996874e-13 F -0.017000000000000001 F -0.00039999999999999975 #
truecolor-adesk-attrib $-1 -1 $424 $-1 $269 -1026895378 #
vertex $-1 -1 $-1 $420 $425 #
straight-curve $-1 -1 $-1 75.526518195428977 139.66294824863587 42.16224772888318 1.6620057717597321e-13 -1000 1.1051665376996874e-13 F -0.017000000000000001 F -0.00039999999999999975 #
DXID-attrib $-1 -1 $-1 $272 $188 @18 ASM_EDGE_FROM_STEP @4 3711 #
DXID-attrib $-1 -1 $-1 $274 $189 @18 ASM_FACE_FROM_STEP @16 step-1M-562-2220 #
DXID-attrib $-1 -1 $-1 $278 $197 @18 ASM_FACE_FROM_STEP @16 step-1M-562-4629 #
truecolor-adesk-attrib $-1 -1 $426 $-1 $279 -1026895378 #
face $427 -1 $-1 $428 $429 $3 $-1 $430 reversed single #
loop $-1 -1 $-1 $-1 $415 $279 #
cone-surface $-1 -1 $-1 86.050738332845242 156.66294824863587 35.233987449476672 1.662005771759732e-16 -1 1.1051665376996874e-16 -10.524220137416265 -9.834433186381875e-16 6.9282602794065067 1 I I 0.7071067811865458 0.70710678118654924 12.599999999999998 forward I I I I #
truecolor-adesk-attrib $-1 -1 $431 $-1 $284 -1026895378 #
loop $-1 -1 $-1 $207 $432 $284 #
plane-surface $-1 -1 $-1 86.050738332845242 166.66294824863587 35.233987449476672 -1.662005771759732e-16 1 -1.1051665376996874e-16 0.83525556646160848 7.8051057034776801e-17 -0.5498619269370244 forward_v I I I I #
DXID-attrib $-1 -1 $-1 $286 $210 @18 ASM_EDGE_FROM_STEP @4 1556 #
DXID-attrib $-1 -1 $-1 $288 $211 @18 ASM_FACE_FROM_STEP @16 step-1M-562-4705 #
DXID-attrib $-1 -1 $-1 $291 $218 @18 ASM_FACE_FROM_STEP @16 step-1M-562-6255 #
coedge $-1 -1 $-1 $433 $434 $362 $435 reversed $292 $-1 #
coedge $-1 -1 $-1 $436 $294 $361 $435 forward $219 $-1 #
coedge $-1 -1 $-1 $294 $436 $437 $438 reversed $219 $-1 #
coedge $-1 -1 $-1 $439 $439 $294 $365 reversed $413 $-1 #
edge $440 -1 $-1 $441 0 $442 3.1415926535897931 $294 $443 forward @7 unknown #
DXID-attrib $-1 -1 $-1 $296 $223 @18 ASM_FACE_FROM_STEP @16 step-1M-562-3337 #
coedge $-1 -1 $-1 $419 $298 $415 $422 forward $224 $-1 #
coedge $-1 -1 $-1 $298 $419 $416 $444 reversed $224 $-1 #
coedge $-1 -1 $-1 $300 $299 $298 $370 forward $152 $-1 #
edge $445 -1 $-1 $446 -3.1415926535897931 $447 0 $369 $448 forward @7 unknown #
coedge $-1 -1 $-1 $449 $450 $299 $372 reversed $429 $-1 #
edge $451 -1 $-1 $378 -0.024450000000000013 $446 -0.019450000000000012 $299 $452 forward @7 unknown #
coedge $-1 -1 $-1 $450 $449 $300 $374 forward $429 $-1 #
edge $453 -1 $-1 $379 -0.024450000000000013 $447 -0.019450000000000012 $300 $454 forward @7 unknown #
coedge $-1 -1 $-1 $301 $301 $449 $455 forward $376 $-1 #
loop $-1 -1 $-1 $-1 $375 $428 #
truecolor-adesk-attrib $-1 -1 $456 $-1 $302 -1026895378 #
vertex $-1 -1 $-1 $302 $457 #
vertex $-1 -1 $-1 $302 $458 #
ellipse-curve $-1 -1 $-1 86.050738332845242 164.11294824863589 35.233987449476672 1.662005771759732e-16 -1 1.1051665376996874e-16 -8.4778439995853248 -7.9221822890298439e-16 5.5810985584107966 1 F -3.1415926535897931 F 0 #
coedge $-1 -1 $-1 $406 $406 $303 $382 reversed $459 $-1 #
edge $460 -1 $-1 $384 -3.1415926535897931 $387 0 $303 $461 forward @7 unknown #
truecolor-adesk-attrib $-1 -1 $462 $-1 $304 -1026895378 #
vertex $-1 -1 $-1 $304 $463 #
straight-curve $-1 -1 $-1 96.491432913615341 139.66294824863587 28.360713362763867 1.6620057717597321e-13 -1000 1.1051665376996874e-13 F -0.044600000000000001 F -0.024450000000000017 #
truecolor-adesk-attrib $-1 -1 $464 $-1 $305 -1026895378 #
vertex $-1 -1 $-1 $382 $465 #
straight-curve $-1 -1 $-1 75.610043752075143 139.66294824863587 42.107261536189476 1.6620057717597321e-13 -1000 1.1051665376996874e-13 F -0.044600000000000001 F -0.024450000000000017 #
DXID-attrib $-1 -1 $-1 $306 $229 @18 ASM_EDGE_FROM_STEP @4 6531 #
coedge $-1 -1 $-1 $308 $308 $311 $394 forward $391 $-1 #
loop $-1 -1 $-1 $-1 $308 $337 #
truecolor-adesk-attrib $-1 -1 $466 $-1 $309 -1026895378 #
ellipse-curve $-1 -1 $-1 86.050738332845242 171.66294824863587 35.233987449476672 1.662005771759732e-16 -1 1.1051665376996874e-16 -14.616972413078148 -1.3658934981085939e-15 9.6225837213979268 1 F 0 F 3.1415926535897931 #
edge $467 -1 $-1 $314 -3.1415926535897931 $317 0 $311 $468 forward @7 unknown #
DXID-attrib $-1 -1 $-1 $313 $232 @18 ASM_EDGE_FROM_STEP @4 3329 #
point $-1 -1 $-1 100.66771074592339 171.66294824863587 25.611403728078741 #
DXID-attrib $-1 -1 $-1 $316 $234 @18 ASM_EDGE_FROM_STEP @4 2390 #
point $-1 -1 $-1 71.433765919767083 171.66294824863587 44.856571170874595 #
DXID-attrib $-1 -1 $-1 $320 $236 @18 ASM_EDGE_FROM_STEP @4 1595 #
truecolor-adesk-attrib $-1 -1 $469 $-1 $322 -1026895378 #
ellipse-curve $-1 -1 $-1 86.050738332845228 184.26294824863587 35.233987449476665 1.662005771759732e-16 -1 1.1051665376996874e-16 14.616972413078148 1.3658934981085939e-15 -9.6225837213979268 1 F -1.2246467991473532e-16 F 3.1415926535897931 #
truecolor-adesk-attrib $-1 -1 $470 $-1 $323 -1026895378 #
ellipse-curve $-1 -1 $-1 86.050738332845228 184.66294824863587 35.233987449476665 -1.662005771759732e-16 1 -1.1051665376996874e-16 14.282870186493506 1.3346730752946834e-15 -9.4026389506231176 1 F -3.1415926535897931 F 0 #
truecolor-adesk-attrib $-1 -1 $471 $-1 $324 -1026895378 #
torus-surface $-1 -1 $-1 86.050738332845228 184.26294824863587 35.233987449476665 -1.662005771759732e-16 1 -1.1051665376996874e-16 17.100000000000001 0.40000000000000008 0.83525556646160848 7.8051057034776801e-17 -0.5498619269370244 forward_v I I I I #
coedge $-1 -1 $-1 $381 $381 $329 $407 reversed $459 $-1 #
edge $472 -1 $-1 $387 0 $384 3.1415926535897931 $406 $473 forward @7 unknown #
truecolor-adesk-attrib $-1 -1 $474 $-1 $330 -1026895378 #
cone-surface $-1 -1 $-1 86.050738332845242 139.66294824863587 35.233987449476672 1.662005771759732e-16 -1 1.1051665376996874e-16 -10.440694580770106 -9.7563821293471003e-16 6.8732740867128053 1 I I 0 1 12.5 forward I I I I #
DXID-attrib $-1 -1 $-1 $332 $254 @18 ASM_FACE_FROM_STEP @16 step-1M-562-6431 #
DXID-attrib $-1 -1 $-1 $336 $262 @18 ASM_FACE_FROM_STEP @16 step-1M-562-4154 #
truecolor-adesk-attrib $-1 -1 $475 $-1 $337 -1026895378 #
loop $-1 -1 $-1 $391 $364 $337 #
plane-surface $-1 -1 $-1 86.050738332845214 171.66294824863587 35.233987449476629 1.662005771759732e-16 -1 1.1051665376996874e-16 -0.83525556646160848 -7.8051057034776801e-17 0.5498619269370244 forward_v I I I I #
coedge $-1 -1 $-1 $476 $339 $367 $422 reversed $353 $-1 #
coedge $-1 -1 $-1 $339 $476 $368 $444 forward $353 $-1 #
truecolor-adesk-attrib $-1 -1 $477 $-1 $340 -1026895378 #
ellipse-curve $-1 -1 $-1 86.050738332845242 156.66294824863587 35.233987449476672 1.662005771759732e-16 -1 1.1051665376996874e-16 -10.524220137416265 -9.834433186381875e-16 6.9282602794065067 1 F 0 F 3.1415926535897931 #
coedge $-1 -1 $-1 $368 $367 $341 $420 forward $224 $-1 #
edge $478 -1 $-1 $343 -3.1415926535897931 $346 0 $419 $479 forward @7 unknown #
DXID-attrib $-1 -1 $-1 $342 $267 @18 ASM_EDGE_FROM_STEP @4 3014 #
edge $480 -1 $-1 $446 -0.0034648232278140863 $343 0 $367 $481 forward @7 unknown #
point $-1 -1 $-1 96.574958470261507 156.66294824863587 28.305727170070163 #
DXID-attrib $-1 -1 $-1 $345 $269 @18 ASM_EDGE_FROM_STEP @4 2541 #
point $-1 -1 $-1 75.526518195428977 156.66294824863587 42.162247728883173 #
DXID-attrib $-1 -1 $-1 $351 $279 @18 ASM_FACE_FROM_STEP @16 step-1M-562-6342 #
truecolor-adesk-attrib $-1 -1 $482 $-1 $352 -1026895378 #
face $483 -1 $-1 $330 $459 $3 $-1 $484 reversed single #
loop $-1 -1 $-1 $-1 $371 $352 #
cone-surface $-1 -1 $-1 86.050738332845242 139.66294824863587 35.233987449476672 1.662005771759732e-16 -1 1.1051665376996874e-16 -8.4778439995853283 -7.9221822890298469e-16 5.5810985584107993 1 I I 0 1 10.150000000000002 forward I I I I #
DXID-attrib $-1 -1 $-1 $355 $284 @18 ASM_FACE_FROM_STEP @16 step-1M-562-4870 #
coedge $-1 -1 $-1 $485 $485 $436 $486 forward $356 $-1 #
coedge $-1 -1 $-1 $437 $361 $439 $487 forward $292 $-1 #
coedge $-1 -1 $-1 $361 $437 $485 $488 reversed $292 $-1 #
edge $489 -1 $-1 $442 -0.032000000000000001 $490 -0.027000000000000003 $362 $491 forward @7 unknown #
coedge $-1 -1 $-1 $363 $362 $432 $486 reversed $219 $-1 #
coedge $-1 -1 $-1 $434 $433 $363 $438 forward $292 $-1 #
edge $492 -1 $-1 $441 -0.032000000000000001 $493 -0.027000000000000003 $363 $494 forward @7 unknown #
coedge $-1 -1 $-1 $364 $364 $433 $487 reversed $413 $-1 #
truecolor-adesk-attrib $-1 -1 $495 $-1 $365 -1026895378 #
vertex $-1 -1 $-1 $365 $496 #
vertex $-1 -1 $-1 $365 $497 #
ellipse-curve $-1 -1 $-1 86.050738332845242 171.66294824863587 35.233987449476672 1.662005771759732e-16 -1 1.1051665376996874e-16 -18.793250245386204 -1.7561487832824792e-15 12.371893356083056 1 F 0 F 3.1415926535897931 #
edge $498 -1 $-1 $447 -0.0034648232278140863 $346 0 $368 $499 forward @7 unknown #
truecolor-adesk-attrib $-1 -1 $500 $-1 $370 -1026895378 #
vertex $-1 -1 $-1 $372 $501 #
vertex $-1 -1 $-1 $370 $502 #
ellipse-curve $-1 -1 $-1 86.050738332845242 159.11294824863589 35.233987449476672 1.662005771759732e-16 -1 1.1051665376996874e-16 -8.4778439995853301 -7.9221822890298479e-16 5.5810985584108002 1 F -3.1415926535897931 F 0 #
coedge $-1 -1 $-1 $373 $371 $375 $455 reversed $429 $-1 #
coedge $-1 -1 $-1 $371 $373 $476 $503 forward $429 $-1 #
truecolor-adesk-attrib $-1 -1 $504 $-1 $372 -1026895378 #
straight-curve $-1 -1 $-1 94.528582332430574 139.66294824863587 29.652888891065871 1.6620057717597321e-13 -1000 1.1051665376996874e-13 F -0.024450000000000013 F -0.019450000000000012 #
truecolor-adesk-attrib $-1 -1 $505 $-1 $374 -1026895378 #
straight-curve $-1 -1 $-1 77.57289433325991 139.66294824863587 40.815086007887473 1.6620057717597321e-13 -1000 1.1051665376996874e-13 F -0.024450000000000013 F -0.019450000000000012 #
edge $506 -1 $-1 $379 0 $378 3.1415926535897931 $449 $507 forward @7 unknown #
DXID-attrib $-1 -1 $-1 $377 $302 @18 ASM_EDGE_FROM_STEP @4 1690 #
point $-1 -1 $-1 94.52858233243056 164.11294824863589 29.652888891065871 #
point $-1 -1 $-1 77.57289433325991 164.11294824863589 40.815086007887466 #
loop $-1 -1 $-1 $376 $406 $428 #
truecolor-adesk-attrib $-1 -1 $508 $-1 $382 -1026895378 #
ellipse-curve $-1 -1 $-1 86.050738332845242 164.11294824863589 35.233987449476672 1.662005771759732e-16 -1 1.1051665376996874e-16 -10.440694580770106 -9.7563821293471003e-16 6.8732740867128053 1 F -3.1415926535897931 F 0 #
DXID-attrib $-1 -1 $-1 $383 $304 @18 ASM_EDGE_FROM_STEP @4 5593 #
point $-1 -1 $-1 96.491432913615341 164.11294824863589 28.360713362763864 #
DXID-attrib $-1 -1 $-1 $386 $305 @18 ASM_EDGE_FROM_STEP @4 5524 #
point $-1 -1 $-1 75.610043752075129 164.11294824863589 42.107261536189476 #
DXID-attrib $-1 -1 $-1 $392 $309 @18 ASM_EDGE_FROM_STEP @4 4995 #
truecolor-adesk-attrib $-1 -1 $509 $-1 $394 -1026895378 #
ellipse-curve $-1 -1 $-1 86.050738332845242 171.66294824863587 35.233987449476672 1.662005771759732e-16 -1 1.1051665376996874e-16 -14.616972413078148 -1.3658934981085939e-15 9.6225837213979268 1 F -3.1415926535897931 F 0 #
DXID-attrib $-1 -1 $-1 $400 $322 @18 ASM_EDGE_FROM_STEP @3 766 #
DXID-attrib $-1 -1 $-1 $402 $323 @18 ASM_EDGE_FROM_STEP @4 5093 #
DXID-attrib $-1 -1 $-1 $404 $324 @18 ASM_FACE_FROM_STEP @15 step-1M-562-243 #
truecolor-adesk-attrib $-1 -1 $510 $-1 $407 -1026895378 #
ellipse-curve $-1 -1 $-1 86.050738332845242 164.11294824863589 35.233987449476672 1.662005771759732e-16 -1 1.1051665376996874e-16 -10.440694580770106 -9.7563821293471003e-16 6.8732740867128053 1 F 0 F 3.1415926535897931 #
DXID-attrib $-1 -1 $-1 $408 $330 @18 ASM_FACE_FROM_STEP @16 step-1M-562-3704 #
DXID-attrib $-1 -1 $-1 $412 $337 @18 ASM_FACE_FROM_STEP @16 step-1M-562-1096 #
coedge $-1 -1 $-1 $416 $415 $450 $503 reversed $353 $-1 #
DXID-attrib $-1 -1 $-1 $417 $340 @18 ASM_EDGE_FROM_STEP @3 188 #
truecolor-adesk-attrib $-1 -1 $511 $-1 $420 -1026895378 #
ellipse-curve $-1 -1 $-1 86.050738332845242 156.66294824863587 35.233987449476672 1.662005771759732e-16 -1 1.1051665376996874e-16 -10.524220137416265 -9.834433186381875e-16 6.9282602794065067 1 F -3.1415926535897931 F 0 #
truecolor-adesk-attrib $-1 -1 $512 $-1 $422 -1026895378 #
straight-curve $-1 -1 $-1 96.574958470261507 156.66294824863587 28.305727170070163 590.61487506881315 -707.10678118654926 -388.81109725347096 F -0.0034648232278140863 F 0 #
DXID-attrib $-1 -1 $-1 $427 $352 @18 ASM_FACE_FROM_STEP @16 step-1M-562-5117 #
truecolor-adesk-attrib $-1 -1 $513 $-1 $428 -1026895378 #
plane-surface $-1 -1 $-1 86.050738332845214 164.11294824863589 35.233987449476636 1.662005771759732e-16 -1 1.1051665376996874e-16 -0.83525556646160848 -7.8051057034776801e-17 0.5498619269370244 forward_v I I I I #
coedge $-1 -1 $-1 $432 $432 $434 $488 forward $356 $-1 #
edge $514 -1 $-1 $493 0 $490 3.1415926535897931 $436 $515 forward @7 unknown #
edge $516 -1 $-1 $442 -3.1415926535897931 $441 0 $433 $517 forward @7 unknown #
edge $518 -1 $-1 $490 -3.1415926535897931 $493 0 $434 $519 forward @7 unknown #
truecolor-adesk-attrib $-1 -1 $520 $-1 $435 -1026895378 #
vertex $-1 -1 $-1 $435 $521 #
straight-curve $-1 -1 $-1 104.84398857823145 139.66294824863587 22.862094093393615 1.6620057717597321e-13 -1000 1.1051665376996874e-13 F -0.032000000000000001 F -0.027000000000000003 #
truecolor-adesk-attrib $-1 -1 $522 $-1 $438 -1026895378 #
vertex $-1 -1 $-1 $486 $523 #
straight-curve $-1 -1 $-1 67.257488087459038 139.66294824863587 47.605880805559728 1.6620057717597321e-13 -1000 1.1051665376996874e-13 F -0.032000000000000001 F -0.027000000000000003 #
DXID-attrib $-1 -1 $-1 $440 $365 @18 ASM_EDGE_FROM_STEP @4 2494 #
point $-1 -1 $-1 67.257488087459038 171.66294824863587 47.605880805559721 #
point $-1 -1 $-1 104.84398857823143 171.66294824863587 22.862094093393608 #
truecolor-adesk-attrib $-1 -1 $524 $-1 $444 -1026895378 #
straight-curve $-1 -1 $-1 75.526518195428977 156.66294824863587 42.162247728883173 -590.61487506881292 -707.10678118654926 388.81109725347102 F -0.0034648232278140863 F 0 #
DXID-attrib $-1 -1 $-1 $445 $370 @18 ASM_EDGE_FROM_STEP @3 292 #
point $-1 -1 $-1 94.528582332430574 159.11294824863589 29.652888891065867 #
point $-1 -1 $-1 77.57289433325991 159.11294824863589 40.815086007887473 #
edge $525 -1 $-1 $447 0 $446 3.1415926535897931 $476 $526 forward @7 unknown #
DXID-attrib $-1 -1 $-1 $451 $372 @18 ASM_EDGE_FROM_STEP @4 2625 #
DXID-attrib $-1 -1 $-1 $453 $374 @18 ASM_EDGE_FROM_STEP @4 6586 #
truecolor-adesk-attrib $-1 -1 $527 $-1 $455 -1026895378 #
ellipse-curve $-1 -1 $-1 86.050738332845242 164.11294824863589 35.233987449476672 1.662005771759732e-16 -1 1.1051665376996874e-16 -8.4778439995853248 -7.9221822890298439e-16 5.5810985584107966 1 F 0 F 3.1415926535897931 #
DXID-attrib $-1 -1 $-1 $460 $382 @18 ASM_EDGE_FROM_STEP @4 5798 #
DXID-attrib $-1 -1 $-1 $467 $394 @18 ASM_EDGE_FROM_STEP @4 2450 #
DXID-attrib $-1 -1 $-1 $472 $407 @18 ASM_EDGE_FROM_STEP @2 11 #
DXID-attrib $-1 -1 $-1 $478 $420 @18 ASM_EDGE_FROM_STEP @4 3613 #
DXID-attrib $-1 -1 $-1 $480 $422 @18 ASM_EDGE_FROM_STEP @4 5391 #
DXID-attrib $-1 -1 $-1 $483 $428 @18 ASM_FACE_FROM_STEP @16 step-1M-562-2443 #
truecolor-adesk-attrib $-1 -1 $528 $-1 $486 -1026895378 #
ellipse-curve $-1 -1 $-1 86.050738332845242 166.66294824863587 35.233987449476672 1.662005771759732e-16 -1 1.1051665376996874e-16 -18.793250245386204 -1.7561487832824792e-15 12.371893356083056 1 F 0 F 3.1415926535897931 #
truecolor-adesk-attrib $-1 -1 $529 $-1 $487 -1026895378 #
ellipse-curve $-1 -1 $-1 86.050738332845242 171.66294824863587 35.233987449476672 1.662005771759732e-16 -1 1.1051665376996874e-16 -18.793250245386204 -1.7561487832824792e-15 12.371893356083056 1 F -3.1415926535897931 F 0 #
truecolor-adesk-attrib $-1 -1 $530 $-1 $488 -1026895378 #
ellipse-curve $-1 -1 $-1 86.050738332845242 166.66294824863587 35.233987449476672 1.662005771759732e-16 -1 1.1051665376996874e-16 -18.793250245386204 -1.7561487832824792e-15 12.371893356083056 1 F -3.1415926535897931 F 0 #
DXID-attrib $-1 -1 $-1 $489 $435 @18 ASM_EDGE_FROM_STEP @4 3648 #
point $-1 -1 $-1 104.84398857823143 166.66294824863587 22.862094093393608 #
DXID-attrib $-1 -1 $-1 $492 $438 @18 ASM_EDGE_FROM_STEP @4 1125 #
point $-1 -1 $-1 67.257488087459038 166.66294824863587 47.605880805559721 #
DXID-attrib $-1 -1 $-1 $498 $444 @18 ASM_EDGE_FROM_STEP @4 6019 #
truecolor-adesk-attrib $-1 -1 $531 $-1 $503 -1026895378 #
ellipse-curve $-1 -1 $-1 86.050738332845242 159.11294824863589 35.233987449476672 1.662005771759732e-16 -1 1.1051665376996874e-16 -8.4778439995853301 -7.9221822890298479e-16 5.5810985584108002 1 F 0 F 3.1415926535897931 #
DXID-attrib $-1 -1 $-1 $506 $455 @18 ASM_EDGE_FROM_STEP @4 4323 #
DXID-attrib $-1 -1 $-1 $514 $486 @18 ASM_EDGE_FROM_STEP @4 6995 #
DXID-attrib $-1 -1 $-1 $516 $487 @18 ASM_EDGE_FROM_STEP @4 5178 #
DXID-attrib $-1 -1 $-1 $518 $488 @18 ASM_EDGE_FROM_STEP @4 5422 #
DXID-attrib $-1 -1 $-1 $525 $503 @18 ASM_EDGE_FROM_STEP @4 2249 #
