700 584 1 0         
5 ZWCAD 12 ACIS 28.0 NT 24 Mon May 13 10:02:15 2024 
1 9.9999999999999995e-07 1e-10 
body $1 -1 $-1 $2 $-1 $-1 #
DXID-attrib $-1 -1 $-1 $-1 $0 @18 ASM_BODY_FROM_STEP @83 8B7C7C05BEA4AE3C1687DA5FE3841EEB07A2AFED|:|5B4635D1F42358AAAD3A3AF58A0FB330002D5BD1 #
lump $-1 -1 $-1 $-1 $3 $0 #
shell $-1 -1 $-1 $-1 $-1 $4 $-1 $2 #
face $5 -1 $-1 $6 $7 $3 $-1 $8 reversed single #
truecolor-adesk-attrib $-1 -1 $9 $-1 $4 -1027161668 #
face $10 -1 $-1 $11 $12 $3 $-1 $13 reversed single #
loop $-1 -1 $-1 $-1 $14 $4 #
cone-surface $-1 -1 $-1 -1067.5991290078664 438.90922138246992 -539.40192378864685 -1 0 -3.4532597966567843e-15 -2.417281857659751e-14 0 7.0000000000000062 1 I I 0 1 7.0000000000000062 forward I I I I #
fmesh-eye-attrib $-1 -1 $15 $5 $4 #
truecolor-adesk-attrib $-1 -1 $16 $-1 $6 -1027161668 #
face $17 -1 $-1 $18 $19 $3 $-1 $20 reversed single #
loop $-1 -1 $-1 $-1 $21 $6 #
cone-surface $-1 -1 $-1 -1067.5991290078662 488.90922138246992 -569.40192378864685 -1 0 -3.4532597966567843e-15 -2.417281857659751e-14 0 7.0000000000000062 1 I I 0 1 7.0000000000000062 forward I I I I #
coedge $-1 -1 $-1 $22 $23 $24 $25 reversed $7 $-1 #
DXID-attrib $-1 -1 $-1 $9 $4 @18 ASM_FACE_FROM_STEP @16 step-3M-341-6069 #
fmesh-eye-attrib $-1 -1 $26 $10 $6 #
truecolor-adesk-attrib $-1 -1 $27 $-1 $11 -1027161668 #
face $28 -1 $-1 $29 $30 $3 $-1 $31 reversed single #
loop $-1 -1 $-1 $-1 $32 $11 #
cone-surface $-1 -1 $-1 -1067.5991290078664 488.90922138246992 -539.40192378864685 -1 0 -3.4532597966567843e-15 -2.417281857659751e-14 0 7.0000000000000062 1 I I 0 1 7.0000000000000062 forward I I I I #
coedge $-1 -1 $-1 $33 $34 $35 $36 reversed $12 $-1 #
coedge $-1 -1 $-1 $37 $14 $38 $39 forward $7 $-1 #
coedge $-1 -1 $-1 $14 $37 $40 $41 reversed $7 $-1 #
coedge $-1 -1 $-1 $42 $42 $14 $25 forward $43 $-1 #
edge $44 -1 $-1 $45 -3.1415926535897931 $46 0 $14 $47 forward @7 unknown #
DXID-attrib $-1 -1 $-1 $16 $6 @18 ASM_FACE_FROM_STEP @17 step-3M-341-14865 #
fmesh-eye-attrib $-1 -1 $48 $17 $11 #
truecolor-adesk-attrib $-1 -1 $49 $-1 $18 -1027161668 #
face $50 -1 $-1 $51 $52 $3 $-1 $53 reversed single #
loop $-1 -1 $-1 $-1 $54 $18 #
cone-surface $-1 -1 $-1 -1067.5991290078662 438.90922138246992 -569.40192378864685 -1 0 -3.4532597966567843e-15 -2.417281857659751e-14 0 7.0000000000000062 1 I I 0 1 7.0000000000000062 forward I I I I #
coedge $-1 -1 $-1 $55 $56 $57 $58 reversed $19 $-1 #
coedge $-1 -1 $-1 $59 $21 $60 $61 forward $12 $-1 #
coedge $-1 -1 $-1 $21 $59 $62 $63 reversed $12 $-1 #
coedge $-1 -1 $-1 $64 $64 $21 $36 forward $65 $-1 #
edge $66 -1 $-1 $67 -3.1415926535897931 $68 0 $21 $69 forward @7 unknown #
coedge $-1 -1 $-1 $23 $22 $70 $71 forward $7 $-1 #
coedge $-1 -1 $-1 $72 $73 $22 $39 reversed $74 $-1 #
edge $75 -1 $-1 $45 0.0040000000000001276 $76 0.010000000000000071 $22 $77 forward @7 unknown #
coedge $-1 -1 $-1 $73 $72 $23 $41 forward $74 $-1 #
edge $78 -1 $-1 $46 0.0040000000000001276 $79 0.010000000000000071 $23 $80 forward @7 unknown #
coedge $-1 -1 $-1 $24 $24 $72 $81 forward $43 $-1 #
loop $-1 -1 $-1 $65 $42 $82 #
truecolor-adesk-attrib $-1 -1 $83 $-1 $25 -1027161668 #
vertex $-1 -1 $-1 $25 $84 #
vertex $-1 -1 $-1 $25 $85 #
ellipse-curve $-1 -1 $-1 -1071.5991290078664 438.90922138246992 -539.40192378864685 -1 0 -3.3306690738754712e-15 -2.3314683517128319e-14 0 7.0000000000000062 1 F -3.1415926535897931 F 0 #
DXID-attrib $-1 -1 $-1 $27 $11 @18 ASM_FACE_FROM_STEP @17 step-3M-341-40262 #
fmesh-eye-attrib $-1 -1 $86 $28 $18 #
truecolor-adesk-attrib $-1 -1 $87 $-1 $29 -1027161668 #
face $88 -1 $-1 $89 $90 $3 $-1 $91 forward single #
loop $-1 -1 $-1 $-1 $92 $29 #
plane-surface $-1 -1 $-1 -1121.5991290078666 418.90922138246992 -504.40192378864697 1 0 0 0 0 -1 forward_v I I I I #
coedge $-1 -1 $-1 $93 $94 $95 $96 reversed $30 $-1 #
coedge $-1 -1 $-1 $97 $32 $98 $99 forward $19 $-1 #
coedge $-1 -1 $-1 $32 $97 $100 $101 reversed $19 $-1 #
coedge $-1 -1 $-1 $102 $102 $32 $58 forward $103 $-1 #
edge $104 -1 $-1 $105 -3.1415926535897931 $106 0 $32 $107 forward @7 unknown #
coedge $-1 -1 $-1 $34 $33 $108 $109 forward $12 $-1 #
coedge $-1 -1 $-1 $110 $111 $33 $61 reversed $112 $-1 #
edge $113 -1 $-1 $67 0.0040000000000001276 $114 0.010000000000000142 $33 $115 forward @7 unknown #
coedge $-1 -1 $-1 $111 $110 $34 $63 forward $112 $-1 #
edge $116 -1 $-1 $68 0.0040000000000001276 $117 0.010000000000000142 $34 $118 forward @7 unknown #
coedge $-1 -1 $-1 $35 $35 $110 $119 forward $65 $-1 #
loop $-1 -1 $-1 $103 $64 $82 #
truecolor-adesk-attrib $-1 -1 $120 $-1 $36 -1027161668 #
vertex $-1 -1 $-1 $36 $121 #
vertex $-1 -1 $-1 $36 $122 #
ellipse-curve $-1 -1 $-1 -1071.5991290078664 488.90922138246992 -569.40192378864685 -1 0 -3.3306690738754712e-15 -2.3314683517128319e-14 0 7.0000000000000062 1 F -3.1415926535897931 F 0 #
coedge $-1 -1 $-1 $123 $123 $37 $71 reversed $124 $-1 #
edge $125 -1 $-1 $76 -3.1415926535897931 $79 0 $37 $126 forward @7 unknown #
coedge $-1 -1 $-1 $40 $38 $42 $81 reversed $74 $-1 #
coedge $-1 -1 $-1 $38 $40 $123 $127 forward $74 $-1 #
loop $-1 -1 $-1 $-1 $38 $128 #
truecolor-adesk-attrib $-1 -1 $129 $-1 $39 -1027161668 #
vertex $-1 -1 $-1 $39 $130 #
straight-curve $-1 -1 $-1 -1067.5991290078664 438.90922138246992 -546.40192378864674 -1000 0 -3.4532597966567848e-12 F 0.0040000000000001276 F 0.010000000000000071 #
truecolor-adesk-attrib $-1 -1 $131 $-1 $41 -1027161668 #
vertex $-1 -1 $-1 $71 $132 #
straight-curve $-1 -1 $-1 -1067.5991290078664 438.90922138246992 -532.40192378864674 -1000 0 -3.4532597966567848e-12 F 0.0040000000000001276 F 0.010000000000000071 #
edge $133 -1 $-1 $46 0 $45 3.1415926535897931 $42 $134 forward @7 unknown #
face $135 -1 $-1 $136 $137 $3 $-1 $138 reversed single #
DXID-attrib $-1 -1 $-1 $44 $25 @18 ASM_EDGE_FROM_STEP @5 40374 #
point $-1 -1 $-1 -1071.5991290078664 438.90922138246992 -546.40192378864674 #
point $-1 -1 $-1 -1071.5991290078664 438.90922138246992 -532.40192378864674 #
DXID-attrib $-1 -1 $-1 $49 $18 @18 ASM_FACE_FROM_STEP @17 step-3M-341-11865 #
fmesh-eye-attrib $-1 -1 $139 $50 $29 #
truecolor-adesk-attrib $-1 -1 $140 $-1 $51 -1027161668 #
face $141 -1 $-1 $142 $143 $3 $-1 $144 reversed single #
loop $-1 -1 $-1 $-1 $145 $51 #
cone-surface $-1 -1 $-1 -1117.0991290078666 418.90922138246992 -506.6370294731247 0 1 0 0 0 -4.5000000000000595 1 I I 0 1 4.5000000000000595 forward I I I I #
coedge $-1 -1 $-1 $146 $147 $148 $149 forward $52 $-1 #
coedge $-1 -1 $-1 $150 $54 $151 $152 forward $30 $-1 #
coedge $-1 -1 $-1 $54 $150 $153 $154 reversed $30 $-1 #
coedge $-1 -1 $-1 $155 $155 $54 $96 forward $156 $-1 #
edge $157 -1 $-1 $158 -3.1415926535897931 $159 0 $54 $160 forward @7 unknown #
coedge $-1 -1 $-1 $56 $55 $161 $162 forward $19 $-1 #
coedge $-1 -1 $-1 $163 $164 $55 $99 reversed $165 $-1 #
edge $166 -1 $-1 $105 0.0040000000000001276 $167 0.010000000000000071 $55 $168 forward @7 unknown #
coedge $-1 -1 $-1 $164 $163 $56 $101 forward $165 $-1 #
edge $169 -1 $-1 $106 0.0040000000000001276 $170 0.010000000000000071 $56 $171 forward @7 unknown #
coedge $-1 -1 $-1 $57 $57 $163 $172 forward $103 $-1 #
loop $-1 -1 $-1 $156 $102 $82 #
truecolor-adesk-attrib $-1 -1 $173 $-1 $58 -1027161668 #
vertex $-1 -1 $-1 $58 $174 #
vertex $-1 -1 $-1 $58 $175 #
ellipse-curve $-1 -1 $-1 -1071.5991290078664 488.90922138246992 -539.40192378864685 -1 0 -3.3306690738754712e-15 -2.3314683517128319e-14 0 7.0000000000000062 1 F -3.1415926535897931 F 0 #
coedge $-1 -1 $-1 $176 $176 $59 $109 reversed $177 $-1 #
edge $178 -1 $-1 $114 -3.1415926535897931 $117 0 $59 $179 forward @7 unknown #
coedge $-1 -1 $-1 $62 $60 $64 $119 reversed $112 $-1 #
coedge $-1 -1 $-1 $60 $62 $176 $180 forward $112 $-1 #
loop $-1 -1 $-1 $-1 $60 $181 #
truecolor-adesk-attrib $-1 -1 $182 $-1 $61 -1027161668 #
vertex $-1 -1 $-1 $61 $183 #
straight-curve $-1 -1 $-1 -1067.5991290078662 488.90922138246992 -576.40192378864674 -1000 0 -3.4532597966567848e-12 F 0.0040000000000001276 F 0.010000000000000142 #
truecolor-adesk-attrib $-1 -1 $184 $-1 $63 -1027161668 #
vertex $-1 -1 $-1 $109 $185 #
straight-curve $-1 -1 $-1 -1067.5991290078662 488.90922138246992 -562.40192378864674 -1000 0 -3.4532597966567848e-12 F 0.0040000000000001276 F 0.010000000000000142 #
edge $186 -1 $-1 $68 0 $67 3.1415926535897931 $64 $187 forward @7 unknown #
DXID-attrib $-1 -1 $-1 $66 $36 @18 ASM_EDGE_FROM_STEP @5 36454 #
point $-1 -1 $-1 -1071.5991290078664 488.90922138246992 -576.40192378864674 #
point $-1 -1 $-1 -1071.5991290078664 488.90922138246992 -562.40192378864674 #
coedge $-1 -1 $-1 $70 $70 $73 $127 reversed $124 $-1 #
loop $-1 -1 $-1 $177 $123 $188 #
truecolor-adesk-attrib $-1 -1 $189 $-1 $71 -1027161668 #
ellipse-curve $-1 -1 $-1 -1077.5991290078664 438.90922138246992 -539.40192378864685 -1 0 -3.4532597966567843e-15 -2.417281857659751e-14 0 7.0000000000000062 1 F -3.1415926535897931 F 0 #
edge $190 -1 $-1 $79 0 $76 3.1415926535897931 $123 $191 forward @7 unknown #
face $192 -1 $-1 $-1 $74 $3 $-1 $193 reversed single #
DXID-attrib $-1 -1 $-1 $75 $39 @18 ASM_EDGE_FROM_STEP @5 23269 #
point $-1 -1 $-1 -1077.5991290078664 438.90922138246992 -546.40192378864674 #
DXID-attrib $-1 -1 $-1 $78 $41 @18 ASM_EDGE_FROM_STEP @5 34204 #
point $-1 -1 $-1 -1077.5991290078664 438.90922138246992 -532.40192378864674 #
truecolor-adesk-attrib $-1 -1 $194 $-1 $81 -1027161668 #
ellipse-curve $-1 -1 $-1 -1071.5991290078664 438.90922138246992 -539.40192378864685 -1 0 -3.3306690738754712e-15 -2.3314683517128319e-14 0 7.0000000000000062 1 F 0 F 3.1415926535897931 #
truecolor-adesk-attrib $-1 -1 $195 $-1 $82 -1027161668 #
face $196 -1 $-1 $197 $198 $3 $-1 $199 reversed single #
loop $-1 -1 $-1 $43 $200 $82 #
plane-surface $-1 -1 $-1 -1071.5991290078664 418.90922138246992 -604.40192378864663 -1 0 -3.3306690738754708e-15 -3.3306690738754712e-15 0 1 forward_v I I I I #
DXID-attrib $-1 -1 $-1 $87 $29 @18 ASM_FACE_FROM_STEP @16 step-3M-341-3605 #
fmesh-eye-attrib $-1 -1 $201 $88 $51 #
truecolor-adesk-attrib $-1 -1 $202 $-1 $89 -1027161668 #
face $203 -1 $-1 $188 $204 $3 $-1 $205 reversed single #
loop $-1 -1 $-1 $-1 $206 $89 #
plane-surface $-1 -1 $-1 -1117.4709592665249 418.90922138246992 -511.12164119084861 0.082628946368526773 0 0.99658038171641083 0.99658038171641095 0 -0.082628946368526773 forward_v I I I I #
coedge $-1 -1 $-1 $207 $208 $209 $210 forward $90 $-1 #
coedge $-1 -1 $-1 $211 $92 $208 $212 reversed $52 $-1 #
coedge $-1 -1 $-1 $92 $211 $213 $214 forward $52 $-1 #
coedge $-1 -1 $-1 $215 $209 $92 $149 reversed $216 $-1 #
edge $217 -1 $-1 $218 0 $219 0.0022351056844777872 $92 $220 forward @7 unknown #
coedge $-1 -1 $-1 $94 $93 $221 $222 forward $30 $-1 #
coedge $-1 -1 $-1 $223 $224 $93 $152 reversed $225 $-1 #
edge $226 -1 $-1 $158 0.0040000000000001276 $227 0.010000000000000142 $93 $228 forward @7 unknown #
coedge $-1 -1 $-1 $224 $223 $94 $154 forward $225 $-1 #
edge $229 -1 $-1 $159 0.0040000000000001276 $230 0.010000000000000142 $94 $231 forward @7 unknown #
coedge $-1 -1 $-1 $95 $95 $223 $232 forward $156 $-1 #
loop $-1 -1 $-1 $-1 $155 $82 #
truecolor-adesk-attrib $-1 -1 $233 $-1 $96 -1027161668 #
vertex $-1 -1 $-1 $96 $234 #
vertex $-1 -1 $-1 $96 $235 #
ellipse-curve $-1 -1 $-1 -1071.5991290078664 438.90922138246992 -569.40192378864685 -1 0 -3.3306690738754712e-15 -2.3314683517128319e-14 0 7.0000000000000062 1 F -3.1415926535897931 F 0 #
coedge $-1 -1 $-1 $236 $236 $97 $162 reversed $237 $-1 #
edge $238 -1 $-1 $167 -3.1415926535897931 $170 0 $97 $239 forward @7 unknown #
coedge $-1 -1 $-1 $100 $98 $102 $172 reversed $165 $-1 #
coedge $-1 -1 $-1 $98 $100 $236 $240 forward $165 $-1 #
loop $-1 -1 $-1 $-1 $98 $241 #
truecolor-adesk-attrib $-1 -1 $242 $-1 $99 -1027161668 #
vertex $-1 -1 $-1 $99 $243 #
straight-curve $-1 -1 $-1 -1067.5991290078664 488.90922138246992 -546.40192378864674 -1000 0 -3.4532597966567848e-12 F 0.0040000000000001276 F 0.010000000000000071 #
truecolor-adesk-attrib $-1 -1 $244 $-1 $101 -1027161668 #
vertex $-1 -1 $-1 $162 $245 #
straight-curve $-1 -1 $-1 -1067.5991290078664 488.90922138246992 -532.40192378864674 -1000 0 -3.4532597966567848e-12 F 0.0040000000000001276 F 0.010000000000000071 #
edge $246 -1 $-1 $106 0 $105 3.1415926535897931 $102 $247 forward @7 unknown #
DXID-attrib $-1 -1 $-1 $104 $58 @18 ASM_EDGE_FROM_STEP @5 35437 #
point $-1 -1 $-1 -1071.5991290078664 488.90922138246992 -546.40192378864674 #
point $-1 -1 $-1 -1071.5991290078664 488.90922138246992 -532.40192378864674 #
coedge $-1 -1 $-1 $108 $108 $111 $180 reversed $177 $-1 #
loop $-1 -1 $-1 $237 $176 $188 #
truecolor-adesk-attrib $-1 -1 $248 $-1 $109 -1027161668 #
ellipse-curve $-1 -1 $-1 -1077.5991290078664 488.90922138246992 -569.40192378864685 -1 0 -3.4532597966567843e-15 -2.417281857659751e-14 0 7.0000000000000062 1 F -3.1415926535897931 F 0 #
edge $249 -1 $-1 $117 0 $114 3.1415926535897931 $176 $250 forward @7 unknown #
face $251 -1 $-1 $128 $112 $3 $-1 $252 reversed single #
DXID-attrib $-1 -1 $-1 $113 $61 @18 ASM_EDGE_FROM_STEP @5 15614 #
point $-1 -1 $-1 -1077.5991290078664 488.90922138246992 -576.40192378864674 #
DXID-attrib $-1 -1 $-1 $116 $63 @18 ASM_EDGE_FROM_STEP @4 7621 #
point $-1 -1 $-1 -1077.5991290078664 488.90922138246992 -562.40192378864674 #
truecolor-adesk-attrib $-1 -1 $253 $-1 $119 -1027161668 #
ellipse-curve $-1 -1 $-1 -1071.5991290078664 488.90922138246992 -569.40192378864685 -1 0 -3.3306690738754712e-15 -2.3314683517128319e-14 0 7.0000000000000062 1 F 0 F 3.1415926535897931 #
face $254 -1 $-1 $255 $256 $3 $-1 $257 reversed single #
DXID-attrib $-1 -1 $-1 $125 $71 @18 ASM_EDGE_FROM_STEP @4 1343 #
truecolor-adesk-attrib $-1 -1 $258 $-1 $127 -1027161668 #
ellipse-curve $-1 -1 $-1 -1077.5991290078664 438.90922138246992 -539.40192378864685 -1 0 -3.4532597966567843e-15 -2.417281857659751e-14 0 7.0000000000000062 1 F 0 F 3.1415926535897931 #
truecolor-adesk-attrib $-1 -1 $259 $-1 $128 -1027161668 #
cone-surface $-1 -1 $-1 -1067.5991290078664 438.90922138246992 -539.40192378864685 -1 0 -3.4532597966567843e-15 -2.417281857659751e-14 0 7.0000000000000062 1 I I 0 1 7.0000000000000062 forward I I I I #
DXID-attrib $-1 -1 $-1 $133 $81 @18 ASM_EDGE_FROM_STEP @5 33893 #
fmesh-eye-attrib $-1 -1 $260 $135 $82 #
truecolor-adesk-attrib $-1 -1 $261 $-1 $136 -1027161668 #
face $262 -1 $-1 $263 $264 $3 $-1 $265 reversed single #
loop $-1 -1 $-1 $-1 $266 $136 #
plane-surface $-1 -1 $-1 -1071.5991290078664 418.90922138246992 -504.40192378864674 4.4408920985006222e-15 0 -1 -1 0 -4.4408920985006222e-15 forward_v I I I I #
coedge $-1 -1 $-1 $267 $268 $269 $270 forward $137 $-1 #
DXID-attrib $-1 -1 $-1 $140 $51 @18 ASM_FACE_FROM_STEP @17 step-3M-341-27213 #
fmesh-eye-attrib $-1 -1 $271 $141 $89 #
truecolor-adesk-attrib $-1 -1 $272 $-1 $142 -1027161668 #
loop $-1 -1 $-1 $-1 $273 $142 #
cone-surface $-1 -1 $-1 -1086.0991290078664 418.90922138246992 -522.25192378864676 0 1 0 0 0 -8.5000000000000639 1 I I 0 1 8.5000000000000639 forward I I I I #
coedge $-1 -1 $-1 $274 $275 $276 $277 forward $143 $-1 #
coedge $-1 -1 $-1 $278 $145 $275 $279 reversed $90 $-1 #
coedge $-1 -1 $-1 $145 $278 $146 $212 forward $90 $-1 #
coedge $-1 -1 $-1 $148 $276 $145 $210 reversed $216 $-1 #
edge $280 -1 $-1 $219 -3.1415926535897931 $281 -1.653519588670517 $145 $282 forward @7 unknown #
coedge $-1 -1 $-1 $147 $146 $283 $284 reversed $52 $-1 #
edge $285 -1 $-1 $286 0 $219 0.22 $146 $287 forward @7 unknown #
coedge $-1 -1 $-1 $288 $266 $147 $214 reversed $198 $-1 #
edge $289 -1 $-1 $290 0 $218 0.22 $147 $291 forward @7 unknown #
coedge $-1 -1 $-1 $269 $148 $266 $292 reversed $216 $-1 #
loop $-1 -1 $-1 $-1 $148 $263 #
truecolor-adesk-attrib $-1 -1 $293 $-1 $149 -1027161668 #
vertex $-1 -1 $-1 $149 $294 #
vertex $-1 -1 $-1 $149 $295 #
straight-curve $-1 -1 $-1 -1121.5991290078666 638.90922138246992 -504.40192378864697 0 0 -1000 F 0 F 0.0022351056844777872 #
coedge $-1 -1 $-1 $296 $296 $150 $222 reversed $297 $-1 #
edge $298 -1 $-1 $227 -3.1415926535897931 $230 0 $150 $299 forward @7 unknown #
coedge $-1 -1 $-1 $153 $151 $155 $232 reversed $225 $-1 #
coedge $-1 -1 $-1 $151 $153 $296 $300 forward $225 $-1 #
loop $-1 -1 $-1 $-1 $151 $301 #
truecolor-adesk-attrib $-1 -1 $302 $-1 $152 -1027161668 #
vertex $-1 -1 $-1 $152 $303 #
straight-curve $-1 -1 $-1 -1067.5991290078662 438.90922138246992 -576.40192378864674 -1000 0 -3.4532597966567848e-12 F 0.0040000000000001276 F 0.010000000000000142 #
truecolor-adesk-attrib $-1 -1 $304 $-1 $154 -1027161668 #
vertex $-1 -1 $-1 $222 $305 #
straight-curve $-1 -1 $-1 -1067.5991290078662 438.90922138246992 -562.40192378864674 -1000 0 -3.4532597966567848e-12 F 0.0040000000000001276 F 0.010000000000000142 #
edge $306 -1 $-1 $159 0 $158 3.1415926535897931 $155 $307 forward @7 unknown #
DXID-attrib $-1 -1 $-1 $157 $96 @18 ASM_EDGE_FROM_STEP @5 23571 #
point $-1 -1 $-1 -1071.5991290078664 438.90922138246992 -576.40192378864674 #
point $-1 -1 $-1 -1071.5991290078664 438.90922138246992 -562.40192378864674 #
coedge $-1 -1 $-1 $161 $161 $164 $240 reversed $237 $-1 #
loop $-1 -1 $-1 $297 $236 $188 #
truecolor-adesk-attrib $-1 -1 $308 $-1 $162 -1027161668 #
ellipse-curve $-1 -1 $-1 -1077.5991290078664 488.90922138246992 -539.40192378864685 -1 0 -3.4532597966567843e-15 -2.417281857659751e-14 0 7.0000000000000062 1 F -3.1415926535897931 F 0 #
edge $309 -1 $-1 $170 0 $167 3.1415926535897931 $236 $310 forward @7 unknown #
face $311 -1 $-1 $181 $165 $3 $-1 $312 reversed single #
DXID-attrib $-1 -1 $-1 $166 $99 @18 ASM_EDGE_FROM_STEP @5 31242 #
point $-1 -1 $-1 -1077.5991290078664 488.90922138246992 -546.40192378864674 #
DXID-attrib $-1 -1 $-1 $169 $101 @18 ASM_EDGE_FROM_STEP @4 5672 #
point $-1 -1 $-1 -1077.5991290078664 488.90922138246992 -532.40192378864674 #
truecolor-adesk-attrib $-1 -1 $313 $-1 $172 -1027161668 #
ellipse-curve $-1 -1 $-1 -1071.5991290078664 488.90922138246992 -539.40192378864685 -1 0 -3.3306690738754712e-15 -2.3314683517128319e-14 0 7.0000000000000062 1 F 0 F 3.1415926535897931 #
DXID-attrib $-1 -1 $-1 $178 $109 @18 ASM_EDGE_FROM_STEP @4 3783 #
truecolor-adesk-attrib $-1 -1 $314 $-1 $180 -1027161668 #
ellipse-curve $-1 -1 $-1 -1077.5991290078664 488.90922138246992 -569.40192378864685 -1 0 -3.4532597966567843e-15 -2.417281857659751e-14 0 7.0000000000000062 1 F 0 F 3.1415926535897931 #
truecolor-adesk-attrib $-1 -1 $315 $-1 $181 -1027161668 #
cone-surface $-1 -1 $-1 -1067.5991290078662 488.90922138246992 -569.40192378864685 -1 0 -3.4532597966567843e-15 -2.417281857659751e-14 0 7.0000000000000062 1 I I 0 1 7.0000000000000062 forward I I I I #
DXID-attrib $-1 -1 $-1 $186 $119 @18 ASM_EDGE_FROM_STEP @5 19232 #
truecolor-adesk-attrib $-1 -1 $316 $-1 $188 -1027161668 #
face $317 -1 $-1 $318 $319 $3 $-1 $320 reversed single #
loop $-1 -1 $-1 $124 $321 $188 #
plane-surface $-1 -1 $-1 -1077.5991290078664 418.90922138246992 -522.25192378864676 1 0 3.4532597966567843e-15 3.4532597966567843e-15 0 -1 forward_v I I I I #
DXID-attrib $-1 -1 $-1 $190 $127 @18 ASM_EDGE_FROM_STEP @5 32455 #
fmesh-eye-attrib $-1 -1 $322 $192 $128 #
DXID-attrib $-1 -1 $-1 $195 $82 @18 ASM_FACE_FROM_STEP @16 step-3M-341-1147 #
fmesh-eye-attrib $-1 -1 $323 $196 $136 #
truecolor-adesk-attrib $-1 -1 $324 $-1 $197 -1027161668 #
face $325 -1 $-1 $301 $216 $3 $-1 $326 forward single #
loop $-1 -1 $-1 $-1 $283 $197 #
plane-surface $-1 -1 $-1 -1117.0991290078666 418.90922138246992 -506.6370294731247 1.3234889800848443e-23 1 0 1 -1.3234889800848443e-23 0 forward_v I I I I #
coedge $-1 -1 $-1 $213 $327 $215 $292 forward $198 $-1 #
coedge $-1 -1 $-1 $328 $200 $327 $329 reversed $137 $-1 #
coedge $-1 -1 $-1 $200 $328 $330 $331 forward $137 $-1 #
coedge $-1 -1 $-1 $332 $215 $200 $270 reversed $216 $-1 #
edge $333 -1 $-1 $334 0 $335 0.099999999999999922 $200 $336 forward @7 unknown #
DXID-attrib $-1 -1 $-1 $202 $89 @18 ASM_FACE_FROM_STEP @16 step-3M-341-2732 #
fmesh-eye-attrib $-1 -1 $337 $203 $142 #
coedge $-1 -1 $-1 $338 $339 $340 $341 forward $204 $-1 #
coedge $-1 -1 $-1 $342 $206 $339 $343 reversed $143 $-1 #
coedge $-1 -1 $-1 $206 $342 $207 $279 forward $143 $-1 #
coedge $-1 -1 $-1 $209 $340 $206 $277 reversed $216 $-1 #
edge $344 -1 $-1 $281 0 $345 0.032184234098156322 $206 $346 forward @7 unknown #
coedge $-1 -1 $-1 $208 $207 $347 $348 reversed $90 $-1 #
edge $349 -1 $-1 $350 0 $281 0.22 $207 $351 forward @7 unknown #
truecolor-adesk-attrib $-1 -1 $352 $-1 $210 -1027161668 #
vertex $-1 -1 $-1 $210 $353 #
ellipse-curve $-1 -1 $-1 -1117.0991290078666 638.90922138246992 -506.6370294731247 -1.3234889800848443e-23 -1 0 4.5000000000000595 -5.955700410381878e-23 0 1 F -3.1415926535897931 F -1.653519588670517 #
coedge $-1 -1 $-1 $347 $354 $211 $284 forward $264 $-1 #
edge $355 -1 $-1 $290 0 $286 0.0022351056844777872 $211 $356 forward @7 unknown #
truecolor-adesk-attrib $-1 -1 $357 $-1 $212 -1027161668 #
vertex $-1 -1 $-1 $212 $358 #
straight-curve $-1 -1 $-1 -1121.5991290078666 418.90922138246992 -506.6370294731247 0 1000 0 F 0 F 0.22 #
coedge $-1 -1 $-1 $327 $213 $354 $359 reversed $198 $-1 #
truecolor-adesk-attrib $-1 -1 $360 $-1 $214 -1027161668 #
vertex $-1 -1 $-1 $284 $361 #
straight-curve $-1 -1 $-1 -1121.5991290078666 418.90922138246992 -504.40192378864697 0 1000 0 F 0 F 0.22 #
edge $362 -1 $-1 $335 0 $218 0.050000000000000072 $266 $363 forward @7 unknown #
DXID-attrib $-1 -1 $-1 $217 $149 @18 ASM_EDGE_FROM_STEP @5 27693 #
point $-1 -1 $-1 -1121.5991290078666 638.90922138246992 -504.40192378864697 #
point $-1 -1 $-1 -1121.5991290078666 638.90922138246992 -506.6370294731247 #
coedge $-1 -1 $-1 $221 $221 $224 $300 reversed $297 $-1 #
loop $-1 -1 $-1 $-1 $296 $188 #
truecolor-adesk-attrib $-1 -1 $364 $-1 $222 -1027161668 #
ellipse-curve $-1 -1 $-1 -1077.5991290078664 438.90922138246992 -569.40192378864685 -1 0 -3.4532597966567843e-15 -2.417281857659751e-14 0 7.0000000000000062 1 F -3.1415926535897931 F 0 #
edge $365 -1 $-1 $230 0 $227 3.1415926535897931 $296 $366 forward @7 unknown #
face $367 -1 $-1 $241 $225 $3 $-1 $368 reversed single #
DXID-attrib $-1 -1 $-1 $226 $152 @18 ASM_EDGE_FROM_STEP @5 26370 #
point $-1 -1 $-1 -1077.5991290078664 438.90922138246992 -576.40192378864674 #
DXID-attrib $-1 -1 $-1 $229 $154 @18 ASM_EDGE_FROM_STEP @5 39144 #
point $-1 -1 $-1 -1077.5991290078664 438.90922138246992 -562.40192378864674 #
truecolor-adesk-attrib $-1 -1 $369 $-1 $232 -1027161668 #
ellipse-curve $-1 -1 $-1 -1071.5991290078664 438.90922138246992 -569.40192378864685 -1 0 -3.3306690738754712e-15 -2.3314683517128319e-14 0 7.0000000000000062 1 F 0 F 3.1415926535897931 #
DXID-attrib $-1 -1 $-1 $238 $162 @18 ASM_EDGE_FROM_STEP @3 883 #
truecolor-adesk-attrib $-1 -1 $370 $-1 $240 -1027161668 #
ellipse-curve $-1 -1 $-1 -1077.5991290078664 488.90922138246992 -539.40192378864685 -1 0 -3.4532597966567843e-15 -2.417281857659751e-14 0 7.0000000000000062 1 F 0 F 3.1415926535897931 #
truecolor-adesk-attrib $-1 -1 $371 $-1 $241 -1027161668 #
cone-surface $-1 -1 $-1 -1067.5991290078664 488.90922138246992 -539.40192378864685 -1 0 -3.4532597966567843e-15 -2.417281857659751e-14 0 7.0000000000000062 1 I I 0 1 7.0000000000000062 forward I I I I #
DXID-attrib $-1 -1 $-1 $246 $172 @18 ASM_EDGE_FROM_STEP @5 20860 #
DXID-attrib $-1 -1 $-1 $249 $180 @18 ASM_EDGE_FROM_STEP @5 40513 #
fmesh-eye-attrib $-1 -1 $372 $251 $181 #
fmesh-eye-attrib $-1 -1 $373 $254 $188 #
truecolor-adesk-attrib $-1 -1 $374 $-1 $255 -1027161668 #
face $375 -1 $-1 $376 $377 $3 $-1 $378 reversed single #
loop $-1 -1 $-1 $-1 $379 $255 #
cone-surface $-1 -1 $-1 -1086.0991290078664 418.90922138246992 -586.55192378864672 0 1 0 0 0 -8.5000000000000639 1 I I 0 1 8.5000000000000639 forward I I I I #
coedge $-1 -1 $-1 $380 $381 $382 $383 forward $256 $-1 #
DXID-attrib $-1 -1 $-1 $259 $128 @18 ASM_FACE_FROM_STEP @17 step-3M-341-31228 #
DXID-attrib $-1 -1 $-1 $261 $136 @18 ASM_FACE_FROM_STEP @16 step-3M-341-5391 #
fmesh-eye-attrib $-1 -1 $384 $262 $197 #
truecolor-adesk-attrib $-1 -1 $385 $-1 $263 -1027161668 #
plane-surface $-1 -1 $-1 -1117.0991290078666 638.90922138246992 -506.6370294731247 1.3234889800848443e-23 1 0 1 -1.3234889800848443e-23 0 forward_v I I I I #
coedge $-1 -1 $-1 $266 $288 $267 $329 forward $198 $-1 #
coedge $-1 -1 $-1 $268 $267 $386 $387 reversed $137 $-1 #
edge $388 -1 $-1 $389 0 $335 0.22 $267 $390 forward @7 unknown #
coedge $-1 -1 $-1 $391 $392 $268 $331 reversed $393 $-1 #
edge $394 -1 $-1 $395 0 $334 0.22 $330 $396 forward @7 unknown #
coedge $-1 -1 $-1 $397 $269 $392 $398 reversed $216 $-1 #
truecolor-adesk-attrib $-1 -1 $399 $-1 $270 -1027161668 #
vertex $-1 -1 $-1 $398 $400 #
vertex $-1 -1 $-1 $270 $401 #
straight-curve $-1 -1 $-1 -1071.5991290078664 638.90922138246992 -604.40192378864663 -3.3306690738754704e-12 0 1000 F 0 F 0.099999999999999922 #
DXID-attrib $-1 -1 $-1 $272 $142 @18 ASM_FACE_FROM_STEP @17 step-3M-341-36778 #
coedge $-1 -1 $-1 $402 $273 $381 $403 reversed $204 $-1 #
coedge $-1 -1 $-1 $273 $402 $274 $343 forward $204 $-1 #
coedge $-1 -1 $-1 $276 $382 $273 $341 reversed $216 $-1 #
edge $404 -1 $-1 $345 1.6535195886705079 $405 3.1415926535897931 $273 $406 forward @7 unknown #
coedge $-1 -1 $-1 $275 $274 $407 $408 reversed $143 $-1 #
edge $409 -1 $-1 $410 0 $345 0.22 $274 $411 forward @7 unknown #
truecolor-adesk-attrib $-1 -1 $412 $-1 $277 -1027161668 #
vertex $-1 -1 $-1 $277 $413 #
straight-curve $-1 -1 $-1 -1117.4709592665249 638.90922138246992 -511.12164119084861 996.58038171641078 0 -82.628946368526783 F 0 F 0.032184234098156322 #
coedge $-1 -1 $-1 $407 $283 $278 $348 forward $264 $-1 #
edge $414 -1 $-1 $286 -3.1415926535897931 $350 -1.653519588670517 $278 $415 forward @7 unknown #
truecolor-adesk-attrib $-1 -1 $416 $-1 $279 -1027161668 #
vertex $-1 -1 $-1 $279 $417 #
straight-curve $-1 -1 $-1 -1117.4709592665249 418.90922138246992 -511.12164119084861 0 1000 0 F 0 F 0.22 #
DXID-attrib $-1 -1 $-1 $280 $210 @18 ASM_EDGE_FROM_STEP @5 31836 #
point $-1 -1 $-1 -1117.4709592665249 638.90922138246992 -511.12164119084861 #
coedge $-1 -1 $-1 $283 $386 $288 $359 forward $264 $-1 #
truecolor-adesk-attrib $-1 -1 $418 $-1 $284 -1027161668 #
straight-curve $-1 -1 $-1 -1121.5991290078666 418.90922138246992 -504.40192378864697 0 0 -1000 F 0 F 0.0022351056844777872 #
DXID-attrib $-1 -1 $-1 $285 $212 @18 ASM_EDGE_FROM_STEP @5 34102 #
point $-1 -1 $-1 -1121.5991290078666 418.90922138246992 -506.6370294731247 #
edge $419 -1 $-1 $389 0 $290 0.050000000000000072 $288 $420 forward @7 unknown #
DXID-attrib $-1 -1 $-1 $289 $214 @18 ASM_EDGE_FROM_STEP @5 13070 #
point $-1 -1 $-1 -1121.5991290078666 418.90922138246992 -504.40192378864697 #
truecolor-adesk-attrib $-1 -1 $421 $-1 $292 -1027161668 #
straight-curve $-1 -1 $-1 -1071.5991290078664 638.90922138246992 -504.40192378864674 -1000 0 -4.4408920985006221e-12 F 0 F 0.050000000000000072 #
DXID-attrib $-1 -1 $-1 $298 $222 @18 ASM_EDGE_FROM_STEP @5 30508 #
truecolor-adesk-attrib $-1 -1 $422 $-1 $300 -1027161668 #
ellipse-curve $-1 -1 $-1 -1077.5991290078664 438.90922138246992 -569.40192378864685 -1 0 -3.4532597966567843e-15 -2.417281857659751e-14 0 7.0000000000000062 1 F 0 F 3.1415926535897931 #
truecolor-adesk-attrib $-1 -1 $423 $-1 $301 -1027161668 #
cone-surface $-1 -1 $-1 -1067.5991290078662 438.90922138246992 -569.40192378864685 -1 0 -3.4532597966567843e-15 -2.417281857659751e-14 0 7.0000000000000062 1 I I 0 1 7.0000000000000062 forward I I I I #
DXID-attrib $-1 -1 $-1 $306 $232 @18 ASM_EDGE_FROM_STEP @5 10936 #
DXID-attrib $-1 -1 $-1 $309 $240 @18 ASM_EDGE_FROM_STEP @5 38514 #
fmesh-eye-attrib $-1 -1 $424 $311 $241 #
DXID-attrib $-1 -1 $-1 $315 $181 @18 ASM_FACE_FROM_STEP @16 step-3M-341-4218 #
DXID-attrib $-1 -1 $-1 $316 $188 @18 ASM_FACE_FROM_STEP @17 step-3M-341-23870 #
fmesh-eye-attrib $-1 -1 $425 $317 $255 #
truecolor-adesk-attrib $-1 -1 $426 $-1 $318 -1027161668 #
face $427 -1 $-1 $428 $429 $3 $-1 $430 forward single #
loop $-1 -1 $-1 $-1 $431 $318 #
plane-surface $-1 -1 $-1 -1117.4709592665245 418.90922138246992 -597.68220638644505 0.082628946368533657 0 -0.99658038171641028 -0.99658038171641039 0 -0.082628946368533671 forward_v I I I I #
coedge $-1 -1 $-1 $432 $433 $434 $435 forward $319 $-1 #
coedge $-1 -1 $-1 $436 $321 $433 $437 reversed $256 $-1 #
coedge $-1 -1 $-1 $321 $436 $338 $403 forward $256 $-1 #
coedge $-1 -1 $-1 $340 $434 $321 $383 reversed $216 $-1 #
edge $438 -1 $-1 $405 0 $439 0.064299999999999996 $321 $440 forward @7 unknown #
DXID-attrib $-1 -1 $-1 $324 $197 @18 ASM_FACE_FROM_STEP @17 step-3M-341-32606 #
fmesh-eye-attrib $-1 -1 $441 $325 $263 #
coedge $-1 -1 $-1 $354 $442 $328 $387 forward $264 $-1 #
edge $443 -1 $-1 $395 0 $389 0.099999999999999922 $328 $444 forward @7 unknown #
truecolor-adesk-attrib $-1 -1 $445 $-1 $329 -1027161668 #
vertex $-1 -1 $-1 $329 $446 #
straight-curve $-1 -1 $-1 -1071.5991290078664 418.90922138246992 -504.40192378864674 0 1000 0 F 0 F 0.22 #
coedge $-1 -1 $-1 $447 $330 $442 $448 reversed $393 $-1 #
coedge $-1 -1 $-1 $330 $447 $332 $398 forward $393 $-1 #
loop $-1 -1 $-1 $-1 $392 $449 #
truecolor-adesk-attrib $-1 -1 $450 $-1 $331 -1027161668 #
vertex $-1 -1 $-1 $331 $451 #
straight-curve $-1 -1 $-1 -1071.5991290078664 418.90922138246992 -604.40192378864663 0 1000 0 F 0 F 0.22 #
coedge $-1 -1 $-1 $452 $332 $453 $454 reversed $216 $-1 #
edge $455 -1 $-1 $456 -0.050000000000000003 $334 0 $392 $457 forward @7 unknown #
DXID-attrib $-1 -1 $-1 $333 $270 @18 ASM_EDGE_FROM_STEP @5 11115 #
point $-1 -1 $-1 -1071.5991290078664 638.90922138246992 -604.40192378864663 #
point $-1 -1 $-1 -1071.5991290078664 638.90922138246992 -504.40192378864674 #
coedge $-1 -1 $-1 $339 $338 $458 $459 reversed $204 $-1 #
edge $460 -1 $-1 $461 0 $405 0.22 $338 $462 forward @7 unknown #
truecolor-adesk-attrib $-1 -1 $463 $-1 $341 -1027161668 #
vertex $-1 -1 $-1 $341 $464 #
ellipse-curve $-1 -1 $-1 -1086.0991290078664 638.90922138246992 -522.25192378864676 1.3234889800848443e-23 1 0 -8.5000000000000639 1.1249656330721261e-22 0 1 F 1.6535195886705079 F 3.1415926535897931 #
coedge $-1 -1 $-1 $458 $347 $342 $408 forward $264 $-1 #
edge $465 -1 $-1 $350 0 $410 0.032184234098156322 $342 $466 forward @7 unknown #
truecolor-adesk-attrib $-1 -1 $467 $-1 $343 -1027161668 #
vertex $-1 -1 $-1 $343 $468 #
straight-curve $-1 -1 $-1 -1085.396782963734 418.90922138246992 -513.7809905440572 0 1000 0 F 0 F 0.22 #
DXID-attrib $-1 -1 $-1 $344 $277 @18 ASM_EDGE_FROM_STEP @5 30875 #
point $-1 -1 $-1 -1085.396782963734 638.90922138246992 -513.7809905440572 #
truecolor-adesk-attrib $-1 -1 $469 $-1 $348 -1027161668 #
ellipse-curve $-1 -1 $-1 -1117.0991290078666 418.90922138246992 -506.6370294731247 -1.3234889800848443e-23 -1 0 4.5000000000000595 -5.955700410381878e-23 0 1 F -3.1415926535897931 F -1.653519588670517 #
DXID-attrib $-1 -1 $-1 $349 $279 @18 ASM_EDGE_FROM_STEP @5 13966 #
point $-1 -1 $-1 -1117.4709592665249 418.90922138246992 -511.12164119084861 #
DXID-attrib $-1 -1 $-1 $355 $284 @18 ASM_EDGE_FROM_STEP @5 41740 #
truecolor-adesk-attrib $-1 -1 $470 $-1 $359 -1027161668 #
straight-curve $-1 -1 $-1 -1071.5991290078664 418.90922138246992 -504.40192378864674 -1000 0 -4.4408920985006221e-12 F 0 F 0.050000000000000072 #
DXID-attrib $-1 -1 $-1 $362 $292 @18 ASM_EDGE_FROM_STEP @5 26929 #
DXID-attrib $-1 -1 $-1 $365 $300 @18 ASM_EDGE_FROM_STEP @4 1121 #
fmesh-eye-attrib $-1 -1 $471 $367 $301 #
DXID-attrib $-1 -1 $-1 $371 $241 @18 ASM_FACE_FROM_STEP @17 step-3M-341-13955 #
DXID-attrib $-1 -1 $-1 $374 $255 @18 ASM_FACE_FROM_STEP @16 step-3M-341-4339 #
fmesh-eye-attrib $-1 -1 $472 $375 $318 #
truecolor-adesk-attrib $-1 -1 $473 $-1 $376 -1027161668 #
face $474 -1 $-1 $449 $475 $3 $-1 $476 reversed single #
loop $-1 -1 $-1 $-1 $477 $376 #
cone-surface $-1 -1 $-1 -1117.0991290078662 418.90922138246992 -602.1668181041689 0 1 0 0 0 -4.5000000000000595 1 I I 0 1 4.5000000000000595 forward I I I I #
coedge $-1 -1 $-1 $478 $479 $480 $481 forward $377 $-1 #
coedge $-1 -1 $-1 $482 $379 $479 $483 reversed $319 $-1 #
coedge $-1 -1 $-1 $379 $482 $380 $437 forward $319 $-1 #
coedge $-1 -1 $-1 $382 $480 $379 $435 reversed $216 $-1 #
edge $484 -1 $-1 $439 0 $485 1.488073064919277 $379 $486 forward @7 unknown #
coedge $-1 -1 $-1 $381 $380 $487 $488 reversed $256 $-1 #
edge $489 -1 $-1 $490 0 $439 0.22 $380 $491 forward @7 unknown #
truecolor-adesk-attrib $-1 -1 $492 $-1 $383 -1027161668 #
vertex $-1 -1 $-1 $383 $493 #
straight-curve $-1 -1 $-1 -1077.5991290078664 638.90922138246992 -522.25192378864676 3.4532597966567848e-12 0 -1000 F 0 F 0.064299999999999996 #
DXID-attrib $-1 -1 $-1 $385 $263 @18 ASM_FACE_FROM_STEP @17 step-3M-341-28278 #
coedge $-1 -1 $-1 $386 $494 $391 $448 forward $264 $-1 #
truecolor-adesk-attrib $-1 -1 $495 $-1 $387 -1027161668 #
straight-curve $-1 -1 $-1 -1071.5991290078664 418.90922138246992 -604.40192378864663 -3.3306690738754704e-12 0 1000 F 0 F 0.099999999999999922 #
DXID-attrib $-1 -1 $-1 $388 $329 @18 ASM_EDGE_FROM_STEP @5 13209 #
point $-1 -1 $-1 -1071.5991290078664 418.90922138246992 -504.40192378864674 #
coedge $-1 -1 $-1 $392 $391 $496 $497 forward $393 $-1 #
edge $498 -1 $-1 $499 -0.050000000000000003 $395 0 $391 $500 forward @7 unknown #
face $501 -1 $-1 $82 $393 $3 $-1 $502 reversed single #
DXID-attrib $-1 -1 $-1 $394 $331 @18 ASM_EDGE_FROM_STEP @5 13351 #
point $-1 -1 $-1 -1071.5991290078664 418.90922138246992 -604.40192378864663 #
coedge $-1 -1 $-1 $480 $397 $477 $503 reversed $216 $-1 #
coedge $-1 -1 $-1 $496 $504 $397 $454 forward $475 $-1 #
edge $505 -1 $-1 $506 -0.0022351056844779294 $456 0 $453 $507 forward @7 unknown #
truecolor-adesk-attrib $-1 -1 $508 $-1 $398 -1027161668 #
vertex $-1 -1 $-1 $454 $509 #
straight-curve $-1 -1 $-1 -1071.5991290078664 638.90922138246992 -604.40192378864663 1000 0 4.4408920985006221e-12 F -0.050000000000000003 F 0 #
coedge $-1 -1 $-1 $487 $407 $402 $459 forward $264 $-1 #
edge $510 -1 $-1 $410 1.6535195886705079 $461 3.1415926535897931 $402 $511 forward @7 unknown #
truecolor-adesk-attrib $-1 -1 $512 $-1 $403 -1027161668 #
vertex $-1 -1 $-1 $403 $513 #
straight-curve $-1 -1 $-1 -1077.5991290078664 418.90922138246992 -522.25192378864676 0 1000 0 F 0 F 0.22 #
DXID-attrib $-1 -1 $-1 $404 $341 @18 ASM_EDGE_FROM_STEP @5 42882 #
point $-1 -1 $-1 -1077.5991290078664 638.90922138246992 -522.25192378864676 #
truecolor-adesk-attrib $-1 -1 $514 $-1 $408 -1027161668 #
straight-curve $-1 -1 $-1 -1117.4709592665249 418.90922138246992 -511.12164119084861 996.58038171641078 0 -82.628946368526783 F 0 F 0.032184234098156322 #
DXID-attrib $-1 -1 $-1 $409 $343 @18 ASM_EDGE_FROM_STEP @5 40991 #
point $-1 -1 $-1 -1085.396782963734 418.90922138246992 -513.7809905440572 #
DXID-attrib $-1 -1 $-1 $414 $348 @18 ASM_EDGE_FROM_STEP @5 21197 #
DXID-attrib $-1 -1 $-1 $419 $359 @18 ASM_EDGE_FROM_STEP @5 28782 #
DXID-attrib $-1 -1 $-1 $423 $301 @18 ASM_FACE_FROM_STEP @17 step-3M-341-40681 #
DXID-attrib $-1 -1 $-1 $426 $318 @18 ASM_FACE_FROM_STEP @17 step-3M-341-27532 #
fmesh-eye-attrib $-1 -1 $515 $427 $376 #
truecolor-adesk-attrib $-1 -1 $516 $-1 $428 -1027161668 #
loop $-1 -1 $-1 $-1 $453 $428 #
plane-surface $-1 -1 $-1 -1121.5991290078664 418.90922138246992 -604.40192378864685 1 0 0 0 0 -1 forward_v I I I I #
coedge $-1 -1 $-1 $517 $518 $452 $503 forward $429 $-1 #
coedge $-1 -1 $-1 $519 $431 $518 $520 reversed $377 $-1 #
coedge $-1 -1 $-1 $431 $519 $432 $483 forward $377 $-1 #
coedge $-1 -1 $-1 $434 $452 $431 $481 reversed $216 $-1 #
edge $521 -1 $-1 $485 -0.032184234098156204 $522 0 $431 $523 forward @7 unknown #
coedge $-1 -1 $-1 $433 $432 $524 $525 reversed $319 $-1 #
edge $526 -1 $-1 $527 0 $485 0.22 $432 $528 forward @7 unknown #
truecolor-adesk-attrib $-1 -1 $529 $-1 $435 -1027161668 #
vertex $-1 -1 $-1 $435 $530 #
ellipse-curve $-1 -1 $-1 -1086.0991290078664 638.90922138246992 -586.55192378864672 1.3234889800848443e-23 1 0 8.5000000000000639 -1.1249656330721261e-22 0 1 F 0 F 1.488073064919277 #
coedge $-1 -1 $-1 $524 $458 $436 $488 forward $264 $-1 #
edge $531 -1 $-1 $461 0 $490 0.064299999999999996 $436 $532 forward @7 unknown #
truecolor-adesk-attrib $-1 -1 $533 $-1 $437 -1027161668 #
vertex $-1 -1 $-1 $437 $534 #
straight-curve $-1 -1 $-1 -1077.5991290078664 418.90922138246992 -586.55192378864672 0 1000 0 F 0 F 0.22 #
DXID-attrib $-1 -1 $-1 $438 $383 @18 ASM_EDGE_FROM_STEP @5 19810 #
point $-1 -1 $-1 -1077.5991290078664 638.90922138246992 -586.55192378864672 #
coedge $-1 -1 $-1 $442 $535 $536 $537 forward $264 $-1 #
DXID-attrib $-1 -1 $-1 $443 $387 @18 ASM_EDGE_FROM_STEP @5 31823 #
coedge $-1 -1 $-1 $536 $453 $447 $497 reversed $475 $-1 #
edge $538 -1 $-1 $499 0 $456 0.22 $496 $539 forward @7 unknown #
truecolor-adesk-attrib $-1 -1 $540 $-1 $448 -1027161668 #
vertex $-1 -1 $-1 $497 $541 #
straight-curve $-1 -1 $-1 -1071.5991290078664 418.90922138246992 -604.40192378864663 1000 0 4.4408920985006221e-12 F -0.050000000000000003 F 0 #
truecolor-adesk-attrib $-1 -1 $542 $-1 $449 -1027161668 #
plane-surface $-1 -1 $-1 -1071.5991290078664 418.90922138246992 -604.40192378864663 -4.4408920985006222e-15 0 1 1 0 4.4408920985006222e-15 forward_v I I I I #
edge $543 -1 $-1 $522 -1.4880730649192764 $506 0 $477 $544 forward @7 unknown #
coedge $-1 -1 $-1 $453 $536 $517 $545 forward $475 $-1 #
truecolor-adesk-attrib $-1 -1 $546 $-1 $454 -1027161668 #
vertex $-1 -1 $-1 $503 $547 #
straight-curve $-1 -1 $-1 -1121.5991290078664 638.90922138246992 -604.40192378864685 0 0 -1000 F -0.0022351056844779294 F 0 #
DXID-attrib $-1 -1 $-1 $455 $398 @18 ASM_EDGE_FROM_STEP @5 37330 #
point $-1 -1 $-1 -1121.5991290078664 638.90922138246992 -604.40192378864685 #
truecolor-adesk-attrib $-1 -1 $548 $-1 $459 -1027161668 #
ellipse-curve $-1 -1 $-1 -1086.0991290078664 418.90922138246992 -522.25192378864676 1.3234889800848443e-23 1 0 -8.5000000000000639 1.1249656330721261e-22 0 1 F 1.6535195886705079 F 3.1415926535897931 #
DXID-attrib $-1 -1 $-1 $460 $403 @18 ASM_EDGE_FROM_STEP @5 40020 #
point $-1 -1 $-1 -1077.5991290078664 418.90922138246992 -522.25192378864676 #
DXID-attrib $-1 -1 $-1 $465 $408 @18 ASM_EDGE_FROM_STEP @5 38322 #
DXID-attrib $-1 -1 $-1 $473 $376 @18 ASM_FACE_FROM_STEP @17 step-3M-341-12822 #
fmesh-eye-attrib $-1 -1 $549 $474 $428 #
coedge $-1 -1 $-1 $550 $477 $504 $545 reversed $429 $-1 #
coedge $-1 -1 $-1 $477 $550 $478 $520 forward $429 $-1 #
coedge $-1 -1 $-1 $479 $478 $551 $552 reversed $377 $-1 #
edge $553 -1 $-1 $554 0 $522 0.22 $478 $555 forward @7 unknown #
truecolor-adesk-attrib $-1 -1 $556 $-1 $481 -1027161668 #
vertex $-1 -1 $-1 $481 $557 #
straight-curve $-1 -1 $-1 -1117.4709592665245 638.90922138246992 -597.68220638644505 -996.58038171641033 0 -82.628946368533661 F -0.032184234098156204 F 0 #
coedge $-1 -1 $-1 $551 $487 $482 $525 forward $264 $-1 #
edge $558 -1 $-1 $490 0 $527 1.488073064919277 $482 $559 forward @7 unknown #
truecolor-adesk-attrib $-1 -1 $560 $-1 $483 -1027161668 #
vertex $-1 -1 $-1 $483 $561 #
straight-curve $-1 -1 $-1 -1085.3967829637338 418.90922138246992 -595.02285703323628 0 1000 0 F 0 F 0.22 #
DXID-attrib $-1 -1 $-1 $484 $435 @18 ASM_EDGE_FROM_STEP @5 35893 #
point $-1 -1 $-1 -1085.3967829637338 638.90922138246992 -595.02285703323628 #
truecolor-adesk-attrib $-1 -1 $562 $-1 $488 -1027161668 #
straight-curve $-1 -1 $-1 -1077.5991290078664 418.90922138246992 -522.25192378864676 3.4532597966567848e-12 0 -1000 F 0 F 0.064299999999999996 #
DXID-attrib $-1 -1 $-1 $489 $437 @18 ASM_EDGE_FROM_STEP @4 4167 #
point $-1 -1 $-1 -1077.5991290078664 418.90922138246992 -586.55192378864672 #
coedge $-1 -1 $-1 $494 $551 $550 $563 forward $264 $-1 #
coedge $-1 -1 $-1 $504 $496 $494 $537 reversed $475 $-1 #
edge $564 -1 $-1 $565 -0.0022351056844779294 $499 0 $536 $566 forward @7 unknown #
truecolor-adesk-attrib $-1 -1 $567 $-1 $497 -1027161668 #
straight-curve $-1 -1 $-1 -1121.5991290078664 418.90922138246992 -604.40192378864685 0 1000 0 F 0 F 0.22 #
DXID-attrib $-1 -1 $-1 $498 $448 @18 ASM_EDGE_FROM_STEP @5 36223 #
point $-1 -1 $-1 -1121.5991290078664 418.90922138246992 -604.40192378864685 #
fmesh-eye-attrib $-1 -1 $568 $501 $449 #
truecolor-adesk-attrib $-1 -1 $569 $-1 $503 -1027161668 #
ellipse-curve $-1 -1 $-1 -1117.0991290078662 638.90922138246992 -602.1668181041689 -1.3234889800848443e-23 -1 0 -4.5000000000000595 5.955700410381878e-23 0 1 F -1.4880730649192764 F 0 #
edge $570 -1 $-1 $565 0 $506 0.22 $517 $571 forward @7 unknown #
DXID-attrib $-1 -1 $-1 $505 $454 @18 ASM_EDGE_FROM_STEP @5 15499 #
point $-1 -1 $-1 -1121.5991290078664 638.90922138246992 -602.1668181041689 #
DXID-attrib $-1 -1 $-1 $510 $459 @18 ASM_EDGE_FROM_STEP @5 13725 #
DXID-attrib $-1 -1 $-1 $516 $428 @18 ASM_FACE_FROM_STEP @17 step-3M-341-42786 #
coedge $-1 -1 $-1 $518 $517 $535 $563 reversed $429 $-1 #
coedge $-1 -1 $-1 $535 $524 $519 $552 forward $264 $-1 #
edge $572 -1 $-1 $527 -0.032184234098156204 $554 0 $519 $573 forward @7 unknown #
truecolor-adesk-attrib $-1 -1 $574 $-1 $520 -1027161668 #
vertex $-1 -1 $-1 $520 $575 #
straight-curve $-1 -1 $-1 -1117.4709592665245 418.90922138246992 -597.68220638644505 0 1000 0 F 0 F 0.22 #
DXID-attrib $-1 -1 $-1 $521 $481 @18 ASM_EDGE_FROM_STEP @5 35664 #
point $-1 -1 $-1 -1117.4709592665245 638.90922138246992 -597.68220638644505 #
truecolor-adesk-attrib $-1 -1 $576 $-1 $525 -1027161668 #
ellipse-curve $-1 -1 $-1 -1086.0991290078664 418.90922138246992 -586.55192378864672 1.3234889800848443e-23 1 0 8.5000000000000639 -1.1249656330721261e-22 0 1 F 0 F 1.488073064919277 #
DXID-attrib $-1 -1 $-1 $526 $483 @18 ASM_EDGE_FROM_STEP @5 31024 #
point $-1 -1 $-1 -1085.3967829637338 418.90922138246992 -595.02285703323628 #
DXID-attrib $-1 -1 $-1 $531 $488 @18 ASM_EDGE_FROM_STEP @5 37662 #
edge $577 -1 $-1 $554 -1.4880730649192764 $565 0 $550 $578 forward @7 unknown #
truecolor-adesk-attrib $-1 -1 $579 $-1 $537 -1027161668 #
vertex $-1 -1 $-1 $545 $580 #
straight-curve $-1 -1 $-1 -1121.5991290078664 418.90922138246992 -604.40192378864685 0 0 -1000 F -0.0022351056844779294 F 0 #
DXID-attrib $-1 -1 $-1 $538 $497 @18 ASM_EDGE_FROM_STEP @5 12477 #
DXID-attrib $-1 -1 $-1 $542 $449 @18 ASM_FACE_FROM_STEP @17 step-3M-341-38642 #
DXID-attrib $-1 -1 $-1 $543 $503 @18 ASM_EDGE_FROM_STEP @4 1108 #
truecolor-adesk-attrib $-1 -1 $581 $-1 $545 -1027161668 #
straight-curve $-1 -1 $-1 -1121.5991290078664 418.90922138246992 -602.1668181041689 0 1000 0 F 0 F 0.22 #
truecolor-adesk-attrib $-1 -1 $582 $-1 $552 -1027161668 #
straight-curve $-1 -1 $-1 -1117.4709592665245 418.90922138246992 -597.68220638644505 -996.58038171641033 0 -82.628946368533661 F -0.032184234098156204 F 0 #
DXID-attrib $-1 -1 $-1 $553 $520 @18 ASM_EDGE_FROM_STEP @5 28097 #
point $-1 -1 $-1 -1117.4709592665245 418.90922138246992 -597.68220638644505 #
DXID-attrib $-1 -1 $-1 $558 $525 @18 ASM_EDGE_FROM_STEP @5 13566 #
truecolor-adesk-attrib $-1 -1 $583 $-1 $563 -1027161668 #
ellipse-curve $-1 -1 $-1 -1117.0991290078662 418.90922138246992 -602.1668181041689 -1.3234889800848443e-23 -1 0 -4.5000000000000595 5.955700410381878e-23 0 1 F -1.4880730649192764 F 0 #
DXID-attrib $-1 -1 $-1 $564 $537 @18 ASM_EDGE_FROM_STEP @5 32736 #
point $-1 -1 $-1 -1121.5991290078664 418.90922138246992 -602.1668181041689 #
DXID-attrib $-1 -1 $-1 $570 $545 @18 ASM_EDGE_FROM_STEP @5 20608 #
DXID-attrib $-1 -1 $-1 $572 $552 @18 ASM_EDGE_FROM_STEP @5 10596 #
DXID-attrib $-1 -1 $-1 $577 $563 @18 ASM_EDGE_FROM_STEP @4 9920 #
