700 307 1 0         
5 ZWCAD 12 ACIS 28.0 NT 24 Mon May 13 11:26:02 2024 
1 9.9999999999999995e-07 1e-10 
body $1 -1 $-1 $2 $-1 $-1 #
DXID-attrib $-1 -1 $-1 $-1 $0 @18 ASM_BODY_FROM_STEP @83 AF14442C21E7610342E5E11344E982BF451B6655|:|D340325C789DFC71DDDF1237B3F0DF9B08C89366 #
lump $-1 -1 $-1 $-1 $3 $0 #
shell $-1 -1 $-1 $-1 $-1 $4 $-1 $2 #
face $5 -1 $-1 $6 $7 $3 $-1 $8 forward single #
truecolor-adesk-attrib $-1 -1 $9 $-1 $4 -1026829585 #
face $10 -1 $-1 $11 $12 $3 $-1 $13 forward single #
loop $-1 -1 $-1 $14 $15 $4 #
cone-surface $-1 -1 $-1 150.24000000000001 -2.3426182087927292e-14 -9.8716129956156765e-15 -1 1.22460635382238e-16 -7.4983036091106899e-33 -2.7553642961003547e-15 -22.5 -2.0660558045864027e-47 1 I I 0 1 22.5 forward I I I I #
DXID-attrib $-1 -1 $-1 $5 $4 @18 ASM_FACE_FROM_STEP @17 step-2M-515-20953 #
truecolor-adesk-attrib $-1 -1 $16 $-1 $6 -1026829585 #
face $17 -1 $-1 $18 $19 $3 $-1 $20 forward single #
loop $-1 -1 $-1 $-1 $21 $6 #
cone-surface $-1 -1 $-1 194.49000000000004 -2.8845065203591264e-14 -9.8716129956156765e-15 -1 6.1679056923619756e-16 9.5107651574678134e-32 -1.3877787807814458e-14 -22.500000000000021 1.3198838074529339e-45 1 I I 0.4999999999999985 0.86602540378443948 22.500000000000021 forward I I I I #
loop $-1 -1 $-1 $-1 $22 $4 #
coedge $-1 -1 $-1 $23 $24 $25 $26 forward $7 $-1 #
DXID-attrib $-1 -1 $-1 $10 $6 @18 ASM_FACE_FROM_STEP @17 step-2M-515-12899 #
truecolor-adesk-attrib $-1 -1 $27 $-1 $11 -1026829585 #
face $28 -1 $-1 $29 $30 $3 $-1 $31 forward single #
loop $-1 -1 $-1 $-1 $32 $11 #
cone-surface $-1 -1 $-1 117.99000000000004 -1.9476826596850122e-14 21.499999999999989 0 0 -1 -7.0000000000000062 0 0 1 I I 0 1 7.0000000000000062 forward I I I I #
coedge $-1 -1 $-1 $33 $34 $35 $36 forward $12 $-1 #
coedge $-1 -1 $-1 $37 $38 $39 $40 forward $14 $-1 #
coedge $-1 -1 $-1 $41 $15 $42 $43 forward $7 $-1 #
coedge $-1 -1 $-1 $15 $41 $44 $45 reversed $7 $-1 #
coedge $-1 -1 $-1 $34 $33 $15 $26 reversed $12 $-1 #
edge $46 -1 $-1 $47 -3.1492875158264863e-32 $48 3.1415926535897931 $15 $49 forward @7 unknown #
DXID-attrib $-1 -1 $-1 $17 $11 @18 ASM_FACE_FROM_STEP @17 step-2M-515-20406 #
truecolor-adesk-attrib $-1 -1 $50 $-1 $18 -1026829585 #
face $51 -1 $-1 $52 $53 $3 $-1 $54 forward single #
loop $-1 -1 $-1 $-1 $55 $18 #
cone-surface $-1 -1 $-1 102.99000000000004 -1.7639917066116556e-14 -9.8716129956156765e-15 -1 1.22460635382238e-16 -7.4983036091106899e-33 -3.367667473011545e-15 -27.5 -2.5251793167167147e-47 1 I I 0 1 27.5 forward I I I I #
coedge $-1 -1 $-1 $56 $57 $58 $59 forward $19 $-1 #
coedge $-1 -1 $-1 $25 $21 $60 $61 forward $12 $-1 #
coedge $-1 -1 $-1 $21 $25 $62 $63 reversed $12 $-1 #
coedge $-1 -1 $-1 $64 $64 $21 $36 reversed $65 $-1 #
edge $66 -1 $-1 $67 5.8194534871186375e-47 $68 3.1415926535897931 $21 $69 forward @7 unknown #
coedge $-1 -1 $-1 $70 $22 $71 $72 forward $14 $-1 #
coedge $-1 -1 $-1 $22 $73 $74 $75 forward $14 $-1 #
coedge $-1 -1 $-1 $76 $77 $22 $40 reversed $78 $-1 #
edge $79 -1 $-1 $80 -0.033750000000000016 $81 0.03224999999999998 $22 $82 forward @7 unknown #
coedge $-1 -1 $-1 $24 $23 $83 $84 forward $7 $-1 #
coedge $-1 -1 $-1 $85 $86 $23 $43 reversed $53 $-1 #
edge $87 -1 $-1 $48 -0.044250000000000025 $88 0.044249999999999991 $23 $89 forward @7 unknown #
coedge $-1 -1 $-1 $86 $85 $24 $45 forward $53 $-1 #
edge $90 -1 $-1 $47 -0.044250000000000025 $91 0.044249999999999991 $24 $92 forward @7 unknown #
truecolor-adesk-attrib $-1 -1 $93 $-1 $26 -1026829585 #
vertex $-1 -1 $-1 $26 $94 #
vertex $-1 -1 $-1 $26 $95 #
ellipse-curve $-1 -1 $-1 194.49000000000004 -2.8845065203591327e-14 -9.8716129956156765e-15 -1 1.22460635382238e-16 -7.4983036091106899e-33 -2.7553642961003547e-15 -22.5 -2.0660558045864027e-47 1 F -3.1492875158264863e-32 F 3.1415926535897931 #
DXID-attrib $-1 -1 $-1 $28 $18 @18 ASM_FACE_FROM_STEP @17 step-2M-515-23419 #
truecolor-adesk-attrib $-1 -1 $96 $-1 $29 -1026829585 #
face $97 -1 $-1 $98 $99 $3 $-1 $100 forward single #
loop $-1 -1 $-1 $-1 $42 $29 #
cone-surface $-1 -1 $-1 150.24000000000001 -2.3426182087927292e-14 -9.8716129956156765e-15 -1 1.22460635382238e-16 -7.4983036091106899e-33 -2.7553642961003547e-15 -22.5 -2.0660558045864027e-47 1 I I 0 1 22.5 forward I I I I #
coedge $-1 -1 $-1 $101 $102 $103 $104 reversed $30 $-1 #
coedge $-1 -1 $-1 $71 $32 $105 $106 forward $19 $-1 #
coedge $-1 -1 $-1 $32 $71 $77 $107 forward $19 $-1 #
coedge $-1 -1 $-1 $108 $109 $32 $59 reversed $110 $-1 #
edge $111 -1 $-1 $112 -1.5707963267948966 $113 0 $32 $114 forward @7 unknown #
coedge $-1 -1 $-1 $115 $116 $33 $61 reversed $99 $-1 #
edge $117 -1 $-1 $68 -0.001732050807568867 $48 -3.0189874454731067e-50 $33 $118 forward @7 unknown #
coedge $-1 -1 $-1 $116 $115 $34 $63 forward $99 $-1 #
edge $119 -1 $-1 $67 -0.001732050807568862 $47 2.1133822292966868e-80 $34 $120 forward @7 unknown #
coedge $-1 -1 $-1 $35 $35 $115 $121 reversed $65 $-1 #
loop $-1 -1 $-1 $-1 $35 $122 #
truecolor-adesk-attrib $-1 -1 $123 $-1 $36 -1026829585 #
vertex $-1 -1 $-1 $36 $124 #
vertex $-1 -1 $-1 $36 $125 #
ellipse-curve $-1 -1 $-1 195.99000000000001 -2.9770251057445565e-14 -9.8716129956156765e-15 -1 6.1679056923619766e-16 9.5107651574678145e-32 -1.3343631506041249e-14 -21.633974596215584 1.2690814560174686e-45 1 F 5.8194534871186375e-47 F 3.1415926535897931 #
coedge $-1 -1 $-1 $73 $37 $126 $127 forward $14 $-1 #
coedge $-1 -1 $-1 $57 $56 $37 $72 reversed $19 $-1 #
edge $128 -1 $-1 $81 -4.2495221520314015 $129 -3.1871416140235516 $37 $130 forward @7 unknown #
coedge $-1 -1 $-1 $38 $70 $131 $132 forward $14 $-1 #
coedge $-1 -1 $-1 $133 $134 $38 $75 reversed $135 $-1 #
edge $136 -1 $-1 $137 -2.1247610760156981 $80 0 $38 $138 forward @7 unknown #
coedge $-1 -1 $-1 $139 $39 $134 $140 reversed $78 $-1 #
coedge $-1 -1 $-1 $39 $139 $57 $107 reversed $78 $-1 #
loop $-1 -1 $-1 $-1 $76 $141 #
truecolor-adesk-attrib $-1 -1 $142 $-1 $40 -1026829585 #
vertex $-1 -1 $-1 $40 $143 #
vertex $-1 -1 $-1 $40 $144 #
straight-curve $-1 -1 $-1 150.24000000000001 -7.0000000000000231 21.383404780343088 -1000 1.2246063538223803e-13 -7.4983036091106914e-30 F -0.033750000000000016 F 0.03224999999999998 #
coedge $-1 -1 $-1 $145 $145 $41 $84 reversed $146 $-1 #
edge $147 -1 $-1 $88 -3.1415926535897931 $91 9.1230368771146924e-49 $41 $148 forward @7 unknown #
coedge $-1 -1 $-1 $44 $42 $116 $149 forward $53 $-1 #
coedge $-1 -1 $-1 $42 $44 $145 $150 forward $53 $-1 #
truecolor-adesk-attrib $-1 -1 $151 $-1 $43 -1026829585 #
vertex $-1 -1 $-1 $43 $152 #
straight-curve $-1 -1 $-1 150.24000000000001 22.499999999999979 -7.1161576975341309e-15 -1000 1.2246063538223803e-13 -7.4983036091106914e-30 F -0.044250000000000025 F 0.044249999999999991 #
truecolor-adesk-attrib $-1 -1 $153 $-1 $45 -1026829585 #
vertex $-1 -1 $-1 $84 $154 #
straight-curve $-1 -1 $-1 150.24000000000001 -22.500000000000025 -9.8716129956156765e-15 -1000 1.2246063538223803e-13 -7.4983036091106914e-30 F -0.044250000000000025 F 0.044249999999999991 #
DXID-attrib $-1 -1 $-1 $46 $26 @18 ASM_EDGE_FROM_STEP @5 27556 #
point $-1 -1 $-1 194.49000000000004 -22.50000000000005 -9.8716129956156765e-15 #
point $-1 -1 $-1 194.49000000000004 22.499999999999996 -7.1161576975341293e-15 #
DXID-attrib $-1 -1 $-1 $51 $29 @18 ASM_FACE_FROM_STEP @17 step-2M-515-25171 #
truecolor-adesk-attrib $-1 -1 $155 $-1 $52 -1026829585 #
face $156 -1 $-1 $157 $135 $3 $-1 $158 forward single #
loop $-1 -1 $-1 $-1 $60 $52 #
cone-surface $-1 -1 $-1 194.49000000000004 -2.8845065203591264e-14 -9.8716129956156765e-15 -1 6.1679056923619756e-16 9.5107651574678134e-32 -1.3877787807814458e-14 -22.500000000000021 1.3198838074529339e-45 1 I I 0.4999999999999985 0.86602540378443948 22.500000000000021 forward I I I I #
coedge $-1 -1 $-1 $159 $55 $160 $161 forward $30 $-1 #
coedge $-1 -1 $-1 $55 $159 $162 $163 reversed $30 $-1 #
coedge $-1 -1 $-1 $164 $164 $55 $104 forward $165 $-1 #
edge $166 -1 $-1 $167 -3.1415926535897931 $168 9.9524038659433018e-49 $55 $169 forward @7 unknown #
coedge $-1 -1 $-1 $170 $126 $56 $106 reversed $171 $-1 #
edge $172 -1 $-1 $113 -0.0045000000000000066 $129 -0.0010000000000000009 $56 $173 forward @7 unknown #
edge $174 -1 $-1 $81 -0.00011659521965690089 $112 0.0045000000000000066 $57 $175 forward @7 unknown #
coedge $-1 -1 $-1 $176 $58 $139 $177 forward $110 $-1 #
coedge $-1 -1 $-1 $58 $178 $170 $179 reversed $110 $-1 #
loop $-1 -1 $-1 $-1 $58 $180 #
truecolor-adesk-attrib $-1 -1 $181 $-1 $59 -1026829585 #
vertex $-1 -1 $-1 $59 $182 #
vertex $-1 -1 $-1 $59 $183 #
ellipse-curve $-1 -1 $-1 117.99000000000004 -1.9476826596850122e-14 25.999999999999996 0 0 -1 -7.0000000000000062 0 0 1 F -1.5707963267948966 F 0 #
coedge $-1 -1 $-1 $62 $60 $64 $121 forward $99 $-1 #
coedge $-1 -1 $-1 $60 $62 $85 $149 reversed $99 $-1 #
truecolor-adesk-attrib $-1 -1 $184 $-1 $61 -1026829585 #
straight-curve $-1 -1 $-1 194.49000000000004 22.499999999999996 -7.1161576975341293e-15 -866.02540378443916 499.99999999999909 6.1232339957367561e-14 F -0.001732050807568867 F -3.0189874454731067e-50 #
truecolor-adesk-attrib $-1 -1 $185 $-1 $63 -1026829585 #
straight-curve $-1 -1 $-1 194.49000000000004 -22.50000000000005 -9.8716129956156765e-15 -866.02540378443996 -499.99999999999801 8.2365642357950405e-29 F -0.001732050807568862 F 2.1133822292966868e-80 #
edge $186 -1 $-1 $68 -3.1415926535897931 $67 5.8194534871186375e-47 $115 $187 forward @7 unknown #
face $188 -1 $-1 $141 $65 $3 $-1 $189 forward single #
DXID-attrib $-1 -1 $-1 $66 $36 @18 ASM_EDGE_FROM_STEP @5 21806 #
point $-1 -1 $-1 195.99000000000001 -21.633974596215616 -9.8716129956156765e-15 #
point $-1 -1 $-1 195.99000000000001 21.633974596215552 -7.1691864594703737e-15 #
coedge $-1 -1 $-1 $105 $190 $70 $127 reversed $171 $-1 #
edge $191 -1 $-1 $129 -3.1871416140235516 $192 -2.1247610760157016 $70 $193 forward @7 unknown #
truecolor-adesk-attrib $-1 -1 $194 $-1 $72 -1026829585 #
vertex $-1 -1 $-1 $72 $195 #
intcurve-curve $-1 -1 $-1 reversed { surfintcur full nubs 3 periodic 17 
	0 3 0.26564121006898456 2 0.53128242013796911 2 0.79683147907290997 2 1.0623805380078508 2 
	1.3279295969427918 2 1.5934786558777325 2 1.8591198659467172 2 2.1247610760157016 2 2.3904022860846861 2 
	2.6560434961536705 2 2.921592555088611 2 3.1871416140235516 2 3.4526906729584921 2 3.7182397318934326 2 
	3.983880941962417 2 4.2495221520314015 3 
	117.99000000000004 -7.0000000000000258 21.383404780343081 
	118.87547070022998 -7.0000000000000258 21.383404780343081 
	119.81558691767184 -6.8218295289655044 21.444168936946479 
	121.53828836512048 -6.1057172005965477 21.658946212135874 
	122.32143702111574 -5.5680579154960101 21.809366831743265 
	123.55784342314041 -4.3316515134713311 22.088192932671443 
	124.09566849810524 -3.5484162494112437 22.235369965639322 
	124.81190361663224 -1.8253979656751611 22.442612540084163 
	124.99000000000004 -0.88516352978315638 22.499999999999989 
	124.99000000000004 0.88516352978311619 22.499999999999989 
	124.81190361663224 1.8253979656751211 22.442612540084163 
	124.09566849810524 3.5484162494112024 22.235369965639322 
	123.55784342314041 4.3316515134712903 22.088192932671443 
	122.32143702111574 5.5680579154959693 21.809366831743265 
	121.53828836512048 6.1057172005965095 21.658946212135874 
	119.81558691767184 6.8218295289654654 21.444168936946479 
	118.87547070022998 6.9999999999999867 21.383404780343081 
	117.10452929977008 6.9999999999999867 21.383404780343081 
	116.16441308232822 6.8218295289654636 21.444168936946479 
	114.44171163487958 6.1057172005965077 21.658946212135874 
	113.65856297888433 5.5680579154959684 21.809366831743265 
	112.42215657685966 4.3316515134712894 22.088192932671443 
	111.88433150189482 3.5484162494112019 22.235369965639322 
	111.16809638336782 1.8253979656751205 22.442612540084163 
	110.99000000000002 0.88516352978311719 22.499999999999989 
	110.99000000000002 -0.88516352978315338 22.499999999999989 
	111.16809638336782 -1.8253979656751587 22.442612540084163 
	111.88433150189482 -3.5484162494112401 22.235369965639322 
	112.42215657685966 -4.3316515134713258 22.088192932671443 
	113.65856297888433 -5.5680579154960048 21.809366831743265 
	114.44171163487958 -6.1057172005965477 21.658946212135874 
	116.16441308232822 -6.8218295289655044 21.444168936946479 
	117.10452929977008 -7.0000000000000258 21.383404780343081 
	117.99000000000004 -7.0000000000000258 21.383404780343081 
	0.003230695447475296 
	cone 117.99000000000004 -1.9476826596850122e-14 21.499999999999989 0 0 -1 -7.0000000000000062 0 0 1 I I 0 1 7.0000000000000062 forward I I I I 
	cone 150.24000000000001 -2.3426182087927292e-14 -9.8716129956156765e-15 -1 1.22460635382238e-16 -7.4983036091106899e-33 -2.7553642961003547e-15 -22.5 -2.0660558045864027e-47 1 I I 0 -1 22.5 forward I I I I 
	nullbs 
	nullbs 
	I I 
	0 
	0 
	0 
	} F -4.2495221520314015 F -3.1871416140235516 #
coedge $-1 -1 $-1 $196 $197 $73 $132 reversed $198 $-1 #
edge $199 -1 $-1 $192 -0.03224999999999998 $137 0.033750000000000016 $73 $200 forward @7 unknown #
coedge $-1 -1 $-1 $201 $74 $197 $202 forward $135 $-1 #
coedge $-1 -1 $-1 $74 $201 $76 $140 forward $135 $-1 #
loop $-1 -1 $-1 $-1 $133 $98 #
truecolor-adesk-attrib $-1 -1 $203 $-1 $75 -1026829585 #
vertex $-1 -1 $-1 $132 $204 #
intcurve-curve $-1 -1 $-1 reversed { surfintcur full nubs 3 periodic 17 
	0 3 0.2656412100689835 2 0.531282420137967 2 0.79683147907290808 2 1.062380538007849 2 
	1.32792959694279 2 1.593478655877731 2 1.8591198659467145 2 2.1247610760156981 2 2.3904022860846816 2 
	2.6560434961536652 2 2.9215925550886066 2 3.1871416140235476 2 3.4526906729584885 2 3.7182397318934299 2 
	3.9838809419624135 2 4.249522152031397 3 
	183.99000000000004 -7.0000000000000346 21.383404780343081 
	184.87547070022998 -7.0000000000000346 21.383404780343081 
	185.81558691767188 -6.8218295289655115 21.444168936946475 
	187.53828836512048 -6.105717200596561 21.65894621213587 
	188.32143702111571 -5.5680579154960164 21.809366831743262 
	189.55784342314038 -4.3316515134713427 22.088192932671436 
	190.09566849810523 -3.548416249411257 22.235369965639322 
	190.81190361663224 -1.8253979656751884 22.442612540084163 
	190.99000000000001 -0.88516352978316515 22.499999999999989 
	190.99000000000001 0.88516352978310819 22.499999999999989 
	190.81190361663224 1.8253979656751365 22.442612540084163 
	190.09566849810523 3.5484162494112059 22.235369965639322 
	189.55784342314038 4.3316515134712841 22.088192932671443 
	188.32143702111571 5.5680579154959586 21.809366831743265 
	187.53828836512048 6.1057172005965077 21.658946212135863 
	185.81558691767188 6.8218295289654582 21.444168936946472 
	184.87547070022998 6.9999999999999778 21.383404780343081 
	183.10452929977009 6.9999999999999778 21.383404780343081 
	182.1644130823282 6.8218295289654582 21.444168936946475 
	180.4417116348796 6.1057172005965077 21.65894621213587 
	179.65856297888433 5.5680579154959657 21.809366831743262 
	178.42215657685966 4.3316515134712912 22.088192932671436 
	177.88433150189482 3.5484162494112028 22.235369965639322 
	177.16809638336781 1.8253979656751338 22.442612540084163 
	176.99000000000004 0.88516352978311053 22.499999999999989 
	176.99000000000004 -0.88516352978316237 22.499999999999989 
	177.16809638336781 -1.8253979656751913 22.442612540084159 
	177.88433150189482 -3.5484162494112614 22.235369965639318 
	178.42215657685966 -4.3316515134713409 22.088192932671436 
	179.65856297888433 -5.5680579154960155 21.809366831743262 
	180.4417116348796 -6.105717200596561 21.65894621213587 
	182.1644130823282 -6.8218295289655115 21.444168936946475 
	183.10452929977009 -7.0000000000000346 21.383404780343081 
	183.99000000000004 -7.0000000000000346 21.383404780343081 
	0.0032306954474700619 
	cone 183.99000000000004 -2.7559228532077844e-14 21.499999999999989 0 0 -1 -7.0000000000000062 0 0 1 I I 0 1 7.0000000000000062 forward I I I I 
	cone 150.24000000000001 -2.3426182087927292e-14 -9.8716129956156765e-15 -1 1.22460635382238e-16 -7.4983036091106899e-33 -2.7553642961003547e-15 -22.5 -2.0660558045864027e-47 1 I I 0 -1 22.5 forward I I I I 
	nullbs 
	nullbs 
	I I 
	0 
	0 
	0 
	} F -2.1247610760156981 F 0 #
coedge $-1 -1 $-1 $77 $76 $108 $177 reversed $78 $-1 #
edge $205 -1 $-1 $206 -0.0045000000000000066 $80 0.00011659521965690089 $134 $207 forward @7 unknown #
face $208 -1 $-1 $180 $78 $3 $-1 $209 reversed single #
DXID-attrib $-1 -1 $-1 $79 $40 @18 ASM_EDGE_FROM_STEP @5 18074 #
point $-1 -1 $-1 183.99000000000004 -7.0000000000000293 21.383404780343088 #
point $-1 -1 $-1 117.99000000000004 -7.0000000000000187 21.383404780343088 #
coedge $-1 -1 $-1 $83 $83 $86 $150 reversed $146 $-1 #
loop $-1 -1 $-1 $-1 $145 $210 #
truecolor-adesk-attrib $-1 -1 $211 $-1 $84 -1026829585 #
ellipse-curve $-1 -1 $-1 105.99000000000002 -1.8007298972263263e-14 -9.8716129956156765e-15 1 -1.22460635382238e-16 7.4983036091106899e-33 -2.7553642961003547e-15 -22.5 -2.0660558045864027e-47 1 F -3.1415926535897931 F 9.1230368771146924e-49 #
edge $212 -1 $-1 $48 -3.1415926535897931 $47 -3.1492875158264863e-32 $85 $213 forward @7 unknown #
edge $214 -1 $-1 $91 9.1230368771146924e-49 $88 3.1415926535897931 $86 $215 forward @7 unknown #
DXID-attrib $-1 -1 $-1 $87 $43 @18 ASM_EDGE_FROM_STEP @5 25853 #
point $-1 -1 $-1 105.99000000000002 22.499999999999979 -7.1161576975341309e-15 #
DXID-attrib $-1 -1 $-1 $90 $45 @18 ASM_EDGE_FROM_STEP @5 25100 #
point $-1 -1 $-1 105.99000000000002 -22.500000000000018 -9.8716129956156765e-15 #
DXID-attrib $-1 -1 $-1 $97 $52 @18 ASM_FACE_FROM_STEP @17 step-2M-515-17550 #
truecolor-adesk-attrib $-1 -1 $216 $-1 $98 -1026829585 #
face $217 -1 $-1 $218 $198 $3 $-1 $219 reversed single #
cone-surface $-1 -1 $-1 183.99000000000004 -2.7559228532077844e-14 21.499999999999989 0 0 -1 -7.0000000000000062 0 0 1 I I 0 1 7.0000000000000062 forward I I I I #
coedge $-1 -1 $-1 $102 $101 $220 $221 forward $30 $-1 #
coedge $-1 -1 $-1 $222 $223 $101 $161 reversed $224 $-1 #
edge $225 -1 $-1 $167 -0.0029999999999999892 $226 0.0030000000000000248 $101 $227 forward @7 unknown #
coedge $-1 -1 $-1 $223 $222 $102 $163 forward $224 $-1 #
edge $228 -1 $-1 $168 -0.0029999999999999892 $229 0.0030000000000000248 $102 $230 forward @7 unknown #
coedge $-1 -1 $-1 $103 $103 $222 $231 forward $165 $-1 #
loop $-1 -1 $-1 $146 $164 $210 #
truecolor-adesk-attrib $-1 -1 $232 $-1 $104 -1026829585 #
vertex $-1 -1 $-1 $104 $233 #
vertex $-1 -1 $-1 $104 $234 #
ellipse-curve $-1 -1 $-1 105.99000000000002 -1.8007298972263269e-14 -9.8716129956156765e-15 1 -1.22460635382238e-16 7.4983036091106899e-33 -3.367667473011545e-15 -27.5 -2.5251793167167147e-47 1 F -3.1415926535897931 F 9.9524038659433018e-49 #
coedge $-1 -1 $-1 $190 $105 $109 $179 forward $171 $-1 #
loop $-1 -1 $-1 $-1 $105 $218 #
truecolor-adesk-attrib $-1 -1 $235 $-1 $106 -1026829585 #
straight-curve $-1 -1 $-1 110.99000000000002 -1.9476826596850122e-14 21.499999999999989 0 0 -1000 F -0.0045000000000000066 F -0.0010000000000000009 #
truecolor-adesk-attrib $-1 -1 $236 $-1 $107 -1026829585 #
straight-curve $-1 -1 $-1 117.99000000000004 -7.0000000000000195 21.499999999999989 0 0 1000 F -0.00011659521965690089 F 0.0045000000000000066 #
coedge $-1 -1 $-1 $178 $108 $201 $237 reversed $110 $-1 #
edge $238 -1 $-1 $112 -0.032999999999999988 $206 0.033000000000000008 $139 $239 forward @7 unknown #
coedge $-1 -1 $-1 $109 $176 $240 $241 forward $110 $-1 #
edge $242 -1 $-1 $113 0 $243 1.5707963267948966 $170 $244 forward @7 unknown #
face $245 -1 $-1 $246 $110 $3 $-1 $247 forward single #
DXID-attrib $-1 -1 $-1 $111 $59 @18 ASM_EDGE_FROM_STEP @4 6743 #
point $-1 -1 $-1 117.99000000000004 -7.0000000000000222 25.999999999999996 #
point $-1 -1 $-1 110.99000000000002 -1.9476826596850122e-14 25.999999999999996 #
DXID-attrib $-1 -1 $-1 $117 $61 @18 ASM_EDGE_FROM_STEP @5 22893 #
DXID-attrib $-1 -1 $-1 $119 $63 @18 ASM_EDGE_FROM_STEP @5 12895 #
truecolor-adesk-attrib $-1 -1 $248 $-1 $121 -1026829585 #
ellipse-curve $-1 -1 $-1 195.99000000000001 -2.9770251057445565e-14 -9.8716129956156765e-15 -1 6.1679056923619766e-16 9.5107651574678145e-32 -1.3343631506041249e-14 -21.633974596215584 1.2690814560174686e-45 1 F -3.1415926535897931 F 5.8194534871186375e-47 #
truecolor-adesk-attrib $-1 -1 $249 $-1 $122 -1026829585 #
plane-surface $-1 -1 $-1 195.99000000000001 -2.8366428587940742e-14 -10.816987298107811 1 -1.22460635382238e-16 7.4983036091106899e-33 1.22460635382238e-16 1 0 forward_v I I I I #
coedge $-1 -1 $-1 $126 $170 $196 $250 forward $171 $-1 #
truecolor-adesk-attrib $-1 -1 $251 $-1 $127 -1026829585 #
vertex $-1 -1 $-1 $127 $252 #
intcurve-curve $-1 -1 $-1 reversed { surfintcur full nubs 3 periodic 17 
	0 3 0.26564121006898456 2 0.53128242013796911 2 0.79683147907290997 2 1.0623805380078508 2 
	1.3279295969427918 2 1.5934786558777325 2 1.8591198659467172 2 2.1247610760157016 2 2.3904022860846861 2 
	2.6560434961536705 2 2.921592555088611 2 3.1871416140235516 2 3.4526906729584921 2 3.7182397318934326 2 
	3.983880941962417 2 4.2495221520314015 3 
	117.99000000000004 -7.0000000000000258 21.383404780343081 
	118.87547070022998 -7.0000000000000258 21.383404780343081 
	119.81558691767184 -6.8218295289655044 21.444168936946479 
	121.53828836512048 -6.1057172005965477 21.658946212135874 
	122.32143702111574 -5.5680579154960101 21.809366831743265 
	123.55784342314041 -4.3316515134713311 22.088192932671443 
	124.09566849810524 -3.5484162494112437 22.235369965639322 
	124.81190361663224 -1.8253979656751611 22.442612540084163 
	124.99000000000004 -0.88516352978315638 22.499999999999989 
	124.99000000000004 0.88516352978311619 22.499999999999989 
	124.81190361663224 1.8253979656751211 22.442612540084163 
	124.09566849810524 3.5484162494112024 22.235369965639322 
	123.55784342314041 4.3316515134712903 22.088192932671443 
	122.32143702111574 5.5680579154959693 21.809366831743265 
	121.53828836512048 6.1057172005965095 21.658946212135874 
	119.81558691767184 6.8218295289654654 21.444168936946479 
	118.87547070022998 6.9999999999999867 21.383404780343081 
	117.10452929977008 6.9999999999999867 21.383404780343081 
	116.16441308232822 6.8218295289654636 21.444168936946479 
	114.44171163487958 6.1057172005965077 21.658946212135874 
	113.65856297888433 5.5680579154959684 21.809366831743265 
	112.42215657685966 4.3316515134712894 22.088192932671443 
	111.88433150189482 3.5484162494112019 22.235369965639322 
	111.16809638336782 1.8253979656751205 22.442612540084163 
	110.99000000000002 0.88516352978311719 22.499999999999989 
	110.99000000000002 -0.88516352978315338 22.499999999999989 
	111.16809638336782 -1.8253979656751587 22.442612540084163 
	111.88433150189482 -3.5484162494112401 22.235369965639322 
	112.42215657685966 -4.3316515134713258 22.088192932671443 
	113.65856297888433 -5.5680579154960048 21.809366831743265 
	114.44171163487958 -6.1057172005965477 21.658946212135874 
	116.16441308232822 -6.8218295289655044 21.444168936946479 
	117.10452929977008 -7.0000000000000258 21.383404780343081 
	117.99000000000004 -7.0000000000000258 21.383404780343081 
	0.003230695447475296 
	cone 117.99000000000004 -1.9476826596850122e-14 21.499999999999989 0 0 -1 -7.0000000000000062 0 0 1 I I 0 1 7.0000000000000062 forward I I I I 
	cone 150.24000000000001 -2.3426182087927292e-14 -9.8716129956156765e-15 -1 1.22460635382238e-16 -7.4983036091106899e-33 -2.7553642961003547e-15 -22.5 -2.0660558045864027e-47 1 I I 0 -1 22.5 forward I I I I 
	nullbs 
	nullbs 
	I I 
	0 
	0 
	0 
	} F -3.1871416140235516 F -2.1247610760157016 #
DXID-attrib $-1 -1 $-1 $128 $72 @18 ASM_EDGE_FROM_STEP @4 5135 #
point $-1 -1 $-1 110.99000000000002 -1.9476826596850122e-14 22.499999999999989 #
coedge $-1 -1 $-1 $240 $131 $190 $250 reversed $198 $-1 #
coedge $-1 -1 $-1 $131 $240 $133 $202 reversed $198 $-1 #
loop $-1 -1 $-1 $-1 $196 $157 #
truecolor-adesk-attrib $-1 -1 $253 $-1 $132 -1026829585 #
straight-curve $-1 -1 $-1 150.24000000000001 6.9999999999999805 21.383404780343088 1000 -1.2246063538223803e-13 7.4983036091106914e-30 F -0.03224999999999998 F 0.033750000000000016 #
coedge $-1 -1 $-1 $134 $133 $176 $237 forward $135 $-1 #
edge $254 -1 $-1 $137 -0.00011659521965690089 $255 0.0045000000000000066 $133 $256 forward @7 unknown #
DXID-attrib $-1 -1 $-1 $136 $75 @18 ASM_EDGE_FROM_STEP @4 5082 #
point $-1 -1 $-1 183.99000000000004 6.9999999999999742 21.383404780343088 #
truecolor-adesk-attrib $-1 -1 $257 $-1 $140 -1026829585 #
vertex $-1 -1 $-1 $237 $258 #
straight-curve $-1 -1 $-1 183.99000000000004 -7.000000000000032 21.499999999999989 0 0 -1000 F -0.0045000000000000066 F 0.00011659521965690089 #
truecolor-adesk-attrib $-1 -1 $259 $-1 $141 -1026829585 #
plane-surface $-1 -1 $-1 150.99000000000001 -7.0000000000000275 21.499999999999989 1.22460635382238e-16 1 0 -1 1.22460635382238e-16 0 forward_v I I I I #
face $260 -1 $-1 $122 $165 $3 $-1 $261 forward single #
DXID-attrib $-1 -1 $-1 $147 $84 @18 ASM_EDGE_FROM_STEP @4 9669 #
truecolor-adesk-attrib $-1 -1 $262 $-1 $149 -1026829585 #
ellipse-curve $-1 -1 $-1 194.49000000000004 -2.8845065203591327e-14 -9.8716129956156765e-15 -1 1.22460635382238e-16 -7.4983036091106899e-33 -2.7553642961003547e-15 -22.5 -2.0660558045864027e-47 1 F -3.1415926535897931 F -3.1492875158264863e-32 #
truecolor-adesk-attrib $-1 -1 $263 $-1 $150 -1026829585 #
ellipse-curve $-1 -1 $-1 105.99000000000002 -1.8007298972263263e-14 -9.8716129956156765e-15 1 -1.22460635382238e-16 7.4983036091106899e-33 -2.7553642961003547e-15 -22.5 -2.0660558045864027e-47 1 F 9.1230368771146924e-49 F 3.1415926535897931 #
DXID-attrib $-1 -1 $-1 $156 $98 @18 ASM_FACE_FROM_STEP @17 step-2M-515-25474 #
truecolor-adesk-attrib $-1 -1 $264 $-1 $157 -1026829585 #
face $265 -1 $-1 $210 $171 $3 $-1 $266 forward single #
plane-surface $-1 -1 $-1 150.99000000000001 6.9999999999999742 21.499999999999989 -1.22460635382238e-16 -1 0 1 -1.22460635382238e-16 0 forward_v I I I I #
coedge $-1 -1 $-1 $267 $267 $159 $221 reversed $268 $-1 #
edge $269 -1 $-1 $226 -3.1415926535897931 $229 9.1824702426062319e-49 $159 $270 forward @7 unknown #
coedge $-1 -1 $-1 $162 $160 $164 $231 reversed $224 $-1 #
coedge $-1 -1 $-1 $160 $162 $267 $271 forward $224 $-1 #
loop $-1 -1 $-1 $-1 $160 $246 #
truecolor-adesk-attrib $-1 -1 $272 $-1 $161 -1026829585 #
vertex $-1 -1 $-1 $161 $273 #
straight-curve $-1 -1 $-1 102.99000000000004 27.499999999999982 -6.5038342979604552e-15 -1000 1.2246063538223803e-13 -7.4983036091106914e-30 F -0.0029999999999999892 F 0.0030000000000000248 #
truecolor-adesk-attrib $-1 -1 $274 $-1 $163 -1026829585 #
vertex $-1 -1 $-1 $221 $275 #
straight-curve $-1 -1 $-1 102.99000000000004 -27.500000000000018 -9.8716129956156765e-15 -1000 1.2246063538223803e-13 -7.4983036091106914e-30 F -0.0029999999999999892 F 0.0030000000000000248 #
edge $276 -1 $-1 $168 9.9524038659433018e-49 $167 3.1415926535897931 $164 $277 forward @7 unknown #
DXID-attrib $-1 -1 $-1 $166 $104 @18 ASM_EDGE_FROM_STEP @4 7815 #
point $-1 -1 $-1 105.99000000000002 27.499999999999982 -6.5038342979604552e-15 #
point $-1 -1 $-1 105.99000000000002 -27.500000000000018 -9.8716129956156765e-15 #
DXID-attrib $-1 -1 $-1 $172 $106 @18 ASM_EDGE_FROM_STEP @4 3846 #
DXID-attrib $-1 -1 $-1 $174 $107 @18 ASM_EDGE_FROM_STEP @5 24935 #
edge $278 -1 $-1 $255 1.5707963267948966 $206 4.7123889803846897 $201 $279 forward @7 unknown #
truecolor-adesk-attrib $-1 -1 $280 $-1 $177 -1026829585 #
straight-curve $-1 -1 $-1 150.99000000000001 -7.0000000000000275 25.999999999999996 1000 -1.2246063538223803e-13 0 F -0.032999999999999988 F 0.033000000000000008 #
coedge $-1 -1 $-1 $197 $196 $178 $241 reversed $198 $-1 #
edge $281 -1 $-1 $255 -0.033000000000000008 $243 0.032999999999999988 $240 $282 forward @7 unknown #
truecolor-adesk-attrib $-1 -1 $283 $-1 $179 -1026829585 #
vertex $-1 -1 $-1 $250 $284 #
ellipse-curve $-1 -1 $-1 117.99000000000004 -1.9476826596850122e-14 25.999999999999996 0 0 -1 -7.0000000000000062 0 0 1 F 0 F 1.5707963267948966 #
truecolor-adesk-attrib $-1 -1 $285 $-1 $180 -1026829585 #
face $286 -1 $-1 $287 $224 $3 $-1 $288 forward single #
plane-surface $-1 -1 $-1 183.99000000000004 -2.7559228532077844e-14 25.999999999999996 0 0 1 1 0 0 forward_v I I I I #
DXID-attrib $-1 -1 $-1 $186 $121 @18 ASM_EDGE_FROM_STEP @5 16250 #
DXID-attrib $-1 -1 $-1 $188 $122 @18 ASM_FACE_FROM_STEP @16 step-2M-515-2472 #
edge $289 -1 $-1 $243 -0.0045000000000000066 $192 0.00011659521965690089 $196 $290 forward @7 unknown #
DXID-attrib $-1 -1 $-1 $191 $127 @18 ASM_EDGE_FROM_STEP @4 9066 #
point $-1 -1 $-1 117.99000000000004 6.9999999999999805 21.383404780343088 #
DXID-attrib $-1 -1 $-1 $199 $132 @18 ASM_EDGE_FROM_STEP @5 26662 #
truecolor-adesk-attrib $-1 -1 $291 $-1 $202 -1026829585 #
vertex $-1 -1 $-1 $202 $292 #
straight-curve $-1 -1 $-1 183.99000000000004 6.9999999999999725 21.499999999999989 0 0 1000 F -0.00011659521965690089 F 0.0045000000000000066 #
DXID-attrib $-1 -1 $-1 $205 $140 @18 ASM_EDGE_FROM_STEP @5 15564 #
point $-1 -1 $-1 183.99000000000004 -7.000000000000032 25.999999999999996 #
DXID-attrib $-1 -1 $-1 $208 $141 @18 ASM_FACE_FROM_STEP @17 step-2M-515-10472 #
truecolor-adesk-attrib $-1 -1 $293 $-1 $210 -1026829585 #
plane-surface $-1 -1 $-1 105.99000000000002 -1.6476541029985298e-14 -25.000000000000011 1 -1.22460635382238e-16 7.4983036091106899e-33 1.22460635382238e-16 1 0 forward_v I I I I #
DXID-attrib $-1 -1 $-1 $212 $149 @18 ASM_EDGE_FROM_STEP @5 25141 #
DXID-attrib $-1 -1 $-1 $214 $150 @18 ASM_EDGE_FROM_STEP @5 25162 #
DXID-attrib $-1 -1 $-1 $217 $157 @18 ASM_FACE_FROM_STEP @17 step-2M-515-15007 #
truecolor-adesk-attrib $-1 -1 $294 $-1 $218 -1026829585 #
cone-surface $-1 -1 $-1 117.99000000000004 -1.9476826596850122e-14 21.499999999999989 0 0 -1 -7.0000000000000062 0 0 1 I I 0 1 7.0000000000000062 forward I I I I #
coedge $-1 -1 $-1 $220 $220 $223 $271 reversed $268 $-1 #
loop $-1 -1 $-1 $-1 $267 $287 #
truecolor-adesk-attrib $-1 -1 $295 $-1 $221 -1026829585 #
ellipse-curve $-1 -1 $-1 99.990000000000009 -1.7272535159969843e-14 -9.8716129956156765e-15 1 -1.22460635382238e-16 7.4983036091106899e-33 -3.367667473011545e-15 -27.5 -2.5251793167167147e-47 1 F -3.1415926535897931 F 9.1824702426062319e-49 #
edge $296 -1 $-1 $229 9.1824702426062319e-49 $226 3.1415926535897931 $223 $297 forward @7 unknown #
DXID-attrib $-1 -1 $-1 $225 $161 @18 ASM_EDGE_FROM_STEP @4 3795 #
point $-1 -1 $-1 99.990000000000009 27.499999999999982 -6.5038342979604552e-15 #
DXID-attrib $-1 -1 $-1 $228 $163 @18 ASM_EDGE_FROM_STEP @4 5171 #
point $-1 -1 $-1 99.990000000000009 -27.500000000000018 -9.8716129956156765e-15 #
truecolor-adesk-attrib $-1 -1 $298 $-1 $231 -1026829585 #
ellipse-curve $-1 -1 $-1 105.99000000000002 -1.8007298972263269e-14 -9.8716129956156765e-15 1 -1.22460635382238e-16 7.4983036091106899e-33 -3.367667473011545e-15 -27.5 -2.5251793167167147e-47 1 F 9.9524038659433018e-49 F 3.1415926535897931 #
truecolor-adesk-attrib $-1 -1 $299 $-1 $237 -1026829585 #
ellipse-curve $-1 -1 $-1 183.99000000000004 -2.7559228532077844e-14 25.999999999999996 0 0 -1 -7.0000000000000062 0 0 1 F 1.5707963267948966 F 4.7123889803846897 #
DXID-attrib $-1 -1 $-1 $238 $177 @18 ASM_EDGE_FROM_STEP @5 24469 #
truecolor-adesk-attrib $-1 -1 $300 $-1 $241 -1026829585 #
straight-curve $-1 -1 $-1 150.99000000000001 6.9999999999999742 25.999999999999996 -1000 1.2246063538223803e-13 0 F -0.033000000000000008 F 0.032999999999999988 #
DXID-attrib $-1 -1 $-1 $242 $179 @18 ASM_EDGE_FROM_STEP @5 27071 #
point $-1 -1 $-1 117.99000000000004 6.9999999999999778 25.999999999999996 #
DXID-attrib $-1 -1 $-1 $245 $180 @18 ASM_FACE_FROM_STEP @15 step-2M-515-988 #
truecolor-adesk-attrib $-1 -1 $301 $-1 $246 -1026829585 #
face $302 -1 $-1 $-1 $268 $3 $-1 $303 forward single #
cone-surface $-1 -1 $-1 102.99000000000004 -1.7639917066116556e-14 -9.8716129956156765e-15 -1 1.22460635382238e-16 -7.4983036091106899e-33 -3.367667473011545e-15 -27.5 -2.5251793167167147e-47 1 I I 0 1 27.5 forward I I I I #
truecolor-adesk-attrib $-1 -1 $304 $-1 $250 -1026829585 #
straight-curve $-1 -1 $-1 117.99000000000004 6.9999999999999778 21.499999999999989 0 0 -1000 F -0.0045000000000000066 F 0.00011659521965690089 #
DXID-attrib $-1 -1 $-1 $254 $202 @18 ASM_EDGE_FROM_STEP @5 19165 #
point $-1 -1 $-1 183.99000000000004 6.9999999999999716 25.999999999999996 #
DXID-attrib $-1 -1 $-1 $260 $210 @18 ASM_FACE_FROM_STEP @17 step-2M-515-11354 #
DXID-attrib $-1 -1 $-1 $265 $218 @18 ASM_FACE_FROM_STEP @17 step-2M-515-27445 #
DXID-attrib $-1 -1 $-1 $269 $221 @18 ASM_EDGE_FROM_STEP @5 24916 #
truecolor-adesk-attrib $-1 -1 $305 $-1 $271 -1026829585 #
ellipse-curve $-1 -1 $-1 99.990000000000009 -1.7272535159969843e-14 -9.8716129956156765e-15 1 -1.22460635382238e-16 7.4983036091106899e-33 -3.367667473011545e-15 -27.5 -2.5251793167167147e-47 1 F 9.1824702426062319e-49 F 3.1415926535897931 #
DXID-attrib $-1 -1 $-1 $276 $231 @18 ASM_EDGE_FROM_STEP @3 232 #
DXID-attrib $-1 -1 $-1 $278 $237 @18 ASM_EDGE_FROM_STEP @5 27402 #
DXID-attrib $-1 -1 $-1 $281 $241 @18 ASM_EDGE_FROM_STEP @5 27209 #
DXID-attrib $-1 -1 $-1 $286 $246 @18 ASM_FACE_FROM_STEP @17 step-2M-515-26626 #
truecolor-adesk-attrib $-1 -1 $306 $-1 $287 -1026829585 #
plane-surface $-1 -1 $-1 99.990000000000009 -1.6430618291716959e-14 -13.750000000000011 -1 1.22460635382238e-16 -7.4983036091106899e-33 -1.22460635382238e-16 -1 0 forward_v I I I I #
DXID-attrib $-1 -1 $-1 $289 $250 @18 ASM_EDGE_FROM_STEP @4 1527 #
DXID-attrib $-1 -1 $-1 $296 $271 @18 ASM_EDGE_FROM_STEP @5 16001 #
DXID-attrib $-1 -1 $-1 $302 $287 @18 ASM_FACE_FROM_STEP @17 step-2M-515-10880 #
