700 612 1 0         
5 ZWCAD 12 ACIS 28.0 NT 24 Mon May 13 09:44:07 2024 
1 9.9999999999999995e-07 1e-10 
body $1 -1 $-1 $2 $-1 $-1 #
DXID-attrib $-1 -1 $-1 $-1 $0 @18 ASM_BODY_FROM_STEP @83 9D26B5EF3F24819D2ECE697D406CA60E25F3896F|:|ACAC7D4042F79C88FA01A14C422751934A0CF923 #
lump $-1 -1 $-1 $-1 $3 $0 #
shell $-1 -1 $-1 $-1 $-1 $4 $-1 $2 #
face $5 -1 $-1 $6 $7 $3 $-1 $8 reversed single #
truecolor-adesk-attrib $-1 -1 $9 $-1 $4 -1056964608 #
face $10 -1 $-1 $11 $12 $3 $-1 $13 reversed single #
loop $-1 -1 $-1 $-1 $14 $4 #
torus-surface $-1 -1 $-1 0.94999999999993667 -27.499999999999996 14.850000000000001 6.0400903359079537e-19 1 -1.6142006477399717e-17 1 0.50000000000000022 0.14449219838831107 -1.605988588038433e-17 -0.98950593965115397 forward_v I I I I #
DXID-attrib $-1 -1 $-1 $5 $4 @18 ASM_FACE_FROM_STEP @17 step-2M-302-17165 #
truecolor-adesk-attrib $-1 -1 $15 $-1 $6 -1056964608 #
face $16 -1 $-1 $17 $18 $3 $-1 $19 forward single #
loop $-1 -1 $-1 $-1 $20 $6 #
cone-surface $-1 -1 $-1 0.94999999999993667 -27.999999999999996 14.850000000000001 6.0400903359079229e-19 1 -1.6142006477399693e-17 0.2167382975824666 -2.4089828820576495e-17 -1.4842589094767309 1 I I 0 1 1.5000000000000002 forward I I I I #
coedge $-1 -1 $-1 $21 $22 $23 $24 reversed $7 $-1 #
DXID-attrib $-1 -1 $-1 $10 $6 @18 ASM_FACE_FROM_STEP @16 step-2M-302-3889 #
truecolor-adesk-attrib $-1 -1 $25 $-1 $11 -1056964608 #
face $26 -1 $-1 $27 $28 $3 $-1 $29 forward single #
loop $-1 -1 $-1 $-1 $30 $11 #
torus-surface $-1 -1 $-1 0.94999999999993667 -27.249999999999996 14.850000000000001 6.0400903359079537e-19 1 -1.6142006477399717e-17 2 0.49999999999999989 0.14449219838831107 -1.605988588038433e-17 -0.98950593965115397 forward_v I I I I #
coedge $-1 -1 $-1 $31 $32 $33 $34 reversed $12 $-1 #
coedge $-1 -1 $-1 $33 $14 $35 $36 forward $7 $-1 #
coedge $-1 -1 $-1 $14 $33 $37 $38 reversed $7 $-1 #
coedge $-1 -1 $-1 $39 $39 $14 $24 forward $40 $-1 #
edge $41 -1 $-1 $42 -3.1415926535897931 $43 0 $14 $44 forward @7 unknown #
DXID-attrib $-1 -1 $-1 $16 $11 @18 ASM_FACE_FROM_STEP @16 step-2M-302-4485 #
truecolor-adesk-attrib $-1 -1 $45 $-1 $17 -1056964608 #
face $46 -1 $-1 $47 $48 $3 $-1 $49 forward single #
loop $-1 -1 $-1 $-1 $50 $17 #
torus-surface $-1 -1 $-1 0.94999999999993667 -26.999999999999996 14.850000000000001 6.0400903359079537e-19 1 -1.6142006477399717e-17 4.2499999999999991 0.25000000000000011 0.14449219838831107 -1.605988588038433e-17 -0.98950593965115397 forward_v I I I I #
coedge $-1 -1 $-1 $51 $52 $53 $54 forward $18 $-1 #
coedge $-1 -1 $-1 $55 $20 $56 $57 forward $12 $-1 #
coedge $-1 -1 $-1 $20 $55 $58 $59 reversed $12 $-1 #
coedge $-1 -1 $-1 $22 $21 $20 $34 forward $7 $-1 #
edge $60 -1 $-1 $61 -3.1415926535897931 $62 0 $33 $63 forward @7 unknown #
coedge $-1 -1 $-1 $64 $65 $21 $36 reversed $66 $-1 #
edge $67 -1 $-1 $42 -1.570796326794903 $61 7.6327832942979481e-15 $21 $68 forward @7 unknown #
coedge $-1 -1 $-1 $65 $64 $22 $38 forward $66 $-1 #
edge $69 -1 $-1 $43 -6.3837823915946477e-15 $62 1.5707963267949037 $22 $70 forward @7 unknown #
coedge $-1 -1 $-1 $23 $23 $64 $71 forward $40 $-1 #
loop $-1 -1 $-1 $-1 $39 $72 #
truecolor-adesk-attrib $-1 -1 $73 $-1 $24 -1056964608 #
vertex $-1 -1 $-1 $24 $74 #
vertex $-1 -1 $-1 $24 $75 #
ellipse-curve $-1 -1 $-1 0.94999999999993667 -27.999999999999996 14.850000000000001 6.0400903359079229e-19 1 -1.6142006477399693e-17 0.14449219838831062 -1.6059885880384256e-17 -0.98950593965115086 1 F -3.1415926535897931 F 0 #
DXID-attrib $-1 -1 $-1 $26 $17 @18 ASM_FACE_FROM_STEP @17 step-2M-302-24625 #
truecolor-adesk-attrib $-1 -1 $76 $-1 $27 -1056964608 #
face $77 -1 $-1 $78 $79 $3 $-1 $80 forward single #
loop $-1 -1 $-1 $-1 $81 $27 #
cone-surface $-1 -1 $-1 0.94999999999993667 -27.999999999999996 14.850000000000001 6.0400903359079537e-19 1 -1.6142006477399717e-17 0.65021489274739985 -7.2269486461729461e-17 -4.4527767284301927 1 I I 0 1 4.5 forward I I I I #
coedge $-1 -1 $-1 $82 $83 $84 $85 forward $28 $-1 #
coedge $-1 -1 $-1 $86 $30 $87 $88 forward $18 $-1 #
coedge $-1 -1 $-1 $30 $86 $89 $90 reversed $18 $-1 #
coedge $-1 -1 $-1 $91 $91 $30 $54 reversed $92 $-1 #
edge $93 -1 $-1 $94 0 $95 3.1415926535897931 $30 $96 forward @7 unknown #
coedge $-1 -1 $-1 $32 $31 $97 $98 forward $12 $-1 #
coedge $-1 -1 $-1 $99 $100 $31 $57 reversed $101 $-1 #
edge $102 -1 $-1 $61 0.00050000000000000381 $103 0.00074999999999999655 $31 $104 forward @7 unknown #
coedge $-1 -1 $-1 $100 $99 $32 $59 forward $101 $-1 #
edge $105 -1 $-1 $62 0.00050000000000000381 $106 0.00074999999999999655 $32 $107 forward @7 unknown #
truecolor-adesk-attrib $-1 -1 $108 $-1 $34 -1056964608 #
vertex $-1 -1 $-1 $36 $109 #
vertex $-1 -1 $-1 $34 $110 #
ellipse-curve $-1 -1 $-1 0.94999999999993667 -27.499999999999993 14.850000000000001 6.0400903359079229e-19 1 -1.6142006477399693e-17 0.2167382975824666 -2.4089828820576495e-17 -1.4842589094767309 1 F -3.1415926535897931 F 0 #
coedge $-1 -1 $-1 $37 $35 $39 $71 reversed $66 $-1 #
coedge $-1 -1 $-1 $35 $37 $99 $111 forward $66 $-1 #
loop $-1 -1 $-1 $-1 $35 $112 #
truecolor-adesk-attrib $-1 -1 $113 $-1 $36 -1056964608 #
ellipse-curve $-1 -1 $-1 0.8055078016116255 -27.499999999999996 15.839505939651156 -0.98950593965115397 -1.7347234759767998e-18 -0.14449219838831118 -0.072246099194155589 -6.1358996098880119e-17 0.49475296982557698 1 F -1.570796326794903 F 7.6327832942979481e-15 #
truecolor-adesk-attrib $-1 -1 $114 $-1 $38 -1056964608 #
ellipse-curve $-1 -1 $-1 1.0944921983882479 -27.499999999999996 13.860494060348847 0.98950593965115397 1.7347234759767978e-18 0.14449219838831107 9.724155828792662e-18 -0.50000000000000022 -6.0589764086554028e-17 1 F -6.3837823915946477e-15 F 1.5707963267949037 #
edge $115 -1 $-1 $43 0 $42 3.1415926535897931 $39 $116 forward @7 unknown #
face $117 -1 $-1 $118 $40 $3 $-1 $119 forward single #
DXID-attrib $-1 -1 $-1 $41 $24 @18 ASM_EDGE_FROM_STEP @4 1003 #
point $-1 -1 $-1 0.80550780161162594 -27.999999999999996 15.839505939651152 #
point $-1 -1 $-1 1.0944921983882474 -27.999999999999996 13.86049406034885 #
DXID-attrib $-1 -1 $-1 $46 $27 @18 ASM_FACE_FROM_STEP @17 step-2M-302-18257 #
truecolor-adesk-attrib $-1 -1 $120 $-1 $47 -1056964608 #
face $121 -1 $-1 $122 $123 $3 $-1 $124 reversed single #
loop $-1 -1 $-1 $-1 $125 $47 #
torus-surface $-1 -1 $-1 0.94999999999993667 -27.499999999999996 14.850000000000001 6.0400903359079537e-19 1 -1.6142006477399717e-17 4.2499999999999991 0.25000000000000011 0.14449219838831107 -1.605988588038433e-17 -0.98950593965115397 forward_v I I I I #
coedge $-1 -1 $-1 $126 $127 $128 $129 forward $48 $-1 #
coedge $-1 -1 $-1 $130 $50 $131 $132 forward $28 $-1 #
coedge $-1 -1 $-1 $50 $130 $133 $134 reversed $28 $-1 #
coedge $-1 -1 $-1 $127 $126 $50 $85 reversed $48 $-1 #
edge $135 -1 $-1 $136 0 $137 3.1415926535897931 $50 $138 forward @7 unknown #
coedge $-1 -1 $-1 $52 $51 $100 $139 reversed $18 $-1 #
coedge $-1 -1 $-1 $140 $97 $51 $88 reversed $141 $-1 #
edge $142 -1 $-1 $95 1.5707963267948932 $103 3.1415926535898007 $51 $143 forward @7 unknown #
coedge $-1 -1 $-1 $97 $140 $52 $90 forward $141 $-1 #
edge $144 -1 $-1 $94 -3.1415926535897962 $106 -1.5707963267948897 $52 $145 forward @7 unknown #
coedge $-1 -1 $-1 $53 $53 $140 $146 reversed $92 $-1 #
loop $-1 -1 $-1 $-1 $53 $147 #
truecolor-adesk-attrib $-1 -1 $148 $-1 $54 -1056964608 #
vertex $-1 -1 $-1 $54 $149 #
vertex $-1 -1 $-1 $54 $150 #
ellipse-curve $-1 -1 $-1 0.94999999999993667 -26.749999999999996 14.850000000000001 6.0400903359079537e-19 1 -1.6142006477399717e-17 0.28898439677662263 -3.211977176076871e-17 -1.9790118793023115 1 F 0 F 3.1415926535897931 #
coedge $-1 -1 $-1 $87 $89 $55 $98 reversed $141 $-1 #
edge $151 -1 $-1 $103 -3.1415926535897931 $106 0 $55 $152 forward @7 unknown #
coedge $-1 -1 $-1 $58 $56 $65 $111 reversed $101 $-1 #
coedge $-1 -1 $-1 $56 $58 $86 $139 forward $101 $-1 #
loop $-1 -1 $-1 $-1 $56 $153 #
truecolor-adesk-attrib $-1 -1 $154 $-1 $57 -1056964608 #
vertex $-1 -1 $-1 $57 $155 #
straight-curve $-1 -1 $-1 0.73326170241746991 -27.999999999999996 16.334258909476734 6.0400903359079496e-16 1000 -1.6142006477399712e-14 F 0.00050000000000000381 F 0.00074999999999999655 #
truecolor-adesk-attrib $-1 -1 $156 $-1 $59 -1056964608 #
vertex $-1 -1 $-1 $98 $157 #
straight-curve $-1 -1 $-1 1.1667382975824032 -27.999999999999996 13.365741090523271 6.0400903359079496e-16 1000 -1.6142006477399712e-14 F 0.00050000000000000381 F 0.00074999999999999655 #
DXID-attrib $-1 -1 $-1 $60 $34 @18 ASM_EDGE_FROM_STEP @5 27089 #
point $-1 -1 $-1 0.7332617024174698 -27.499999999999993 16.334258909476734 #
point $-1 -1 $-1 1.1667382975824032 -27.499999999999993 13.365741090523271 #
edge $158 -1 $-1 $62 0 $61 3.1415926535897931 $99 $159 forward @7 unknown #
face $160 -1 $-1 $-1 $66 $3 $-1 $161 reversed single #
DXID-attrib $-1 -1 $-1 $67 $36 @18 ASM_EDGE_FROM_STEP @5 27378 #
DXID-attrib $-1 -1 $-1 $69 $38 @18 ASM_EDGE_FROM_STEP @5 24378 #
truecolor-adesk-attrib $-1 -1 $162 $-1 $71 -1056964608 #
ellipse-curve $-1 -1 $-1 0.94999999999993667 -27.999999999999996 14.850000000000001 6.0400903359079229e-19 1 -1.6142006477399693e-17 0.14449219838831062 -1.6059885880384256e-17 -0.98950593965115086 1 F 0 F 3.1415926535897931 #
truecolor-adesk-attrib $-1 -1 $163 $-1 $72 -1056964608 #
face $164 -1 $-1 $165 $166 $3 $-1 $167 forward single #
plane-surface $-1 -1 $-1 1.0944921983882472 -27.999999999999996 13.86049406034885 6.0400903359079537e-19 1 -1.6142006477399717e-17 0.14449219838831107 -1.605988588038433e-17 -0.98950593965115397 forward_v I I I I #
DXID-attrib $-1 -1 $-1 $77 $47 @18 ASM_FACE_FROM_STEP @17 step-2M-302-27011 #
truecolor-adesk-attrib $-1 -1 $168 $-1 $78 -1056964608 #
face $169 -1 $-1 $170 $171 $3 $-1 $172 forward single #
loop $-1 -1 $-1 $-1 $173 $78 #
torus-surface $-1 -1 $-1 0.94999999999993667 -27.999999999999996 14.850000000000001 6.0400903359079537e-19 1 -1.6142006477399717e-17 2.75 0.24999999999999992 0.14449219838831107 -1.605988588038433e-17 -0.98950593965115397 forward_v I I I I #
coedge $-1 -1 $-1 $174 $175 $176 $177 forward $79 $-1 #
coedge $-1 -1 $-1 $84 $81 $178 $179 forward $48 $-1 #
coedge $-1 -1 $-1 $81 $84 $180 $181 reversed $48 $-1 #
coedge $-1 -1 $-1 $175 $174 $81 $129 reversed $79 $-1 #
edge $182 -1 $-1 $183 0 $184 3.1415926535897931 $81 $185 forward @7 unknown #
coedge $-1 -1 $-1 $83 $82 $186 $187 reversed $28 $-1 #
coedge $-1 -1 $-1 $188 $189 $82 $132 reversed $190 $-1 #
edge $191 -1 $-1 $137 -6.6613381477509337e-15 $192 1.5707963267949032 $82 $193 forward @7 unknown #
coedge $-1 -1 $-1 $189 $188 $83 $134 forward $190 $-1 #
edge $194 -1 $-1 $136 1.5707963267948899 $195 3.1415926535897998 $83 $196 forward @7 unknown #
truecolor-adesk-attrib $-1 -1 $197 $-1 $85 -1056964608 #
vertex $-1 -1 $-1 $85 $198 #
vertex $-1 -1 $-1 $85 $199 #
ellipse-curve $-1 -1 $-1 0.94999999999993667 -26.999999999999996 14.850000000000001 6.0400903359079537e-19 1 -1.6142006477399717e-17 0.65021489274739985 -7.2269486461729461e-17 -4.4527767284301927 1 F 0 F 3.1415926535897931 #
edge $200 -1 $-1 $106 0 $103 3.1415926535897931 $86 $201 forward @7 unknown #
coedge $-1 -1 $-1 $89 $87 $91 $146 forward $141 $-1 #
loop $-1 -1 $-1 $-1 $87 $202 #
truecolor-adesk-attrib $-1 -1 $203 $-1 $88 -1056964608 #
ellipse-curve $-1 -1 $-1 0.66101560322331432 -27.249999999999996 16.82901187930231 -0.98950593965115397 -1.7347234759767998e-18 -0.14449219838831118 -0.072246099194155589 -6.1358996098880119e-17 0.49475296982557698 1 F 1.5707963267948932 F 3.1415926535898007 #
truecolor-adesk-attrib $-1 -1 $204 $-1 $90 -1056964608 #
ellipse-curve $-1 -1 $-1 1.2389843967765588 -27.249999999999996 12.870988120697694 0.98950593965115397 1.7347234759767978e-18 0.14449219838831107 9.7241558287926558e-18 -0.49999999999999989 -6.0589764086553991e-17 1 F -3.1415926535897962 F -1.5707963267948897 #
edge $205 -1 $-1 $95 -3.1415926535897931 $94 0 $91 $206 forward @7 unknown #
face $207 -1 $-1 $202 $208 $3 $-1 $209 forward single #
DXID-attrib $-1 -1 $-1 $93 $54 @18 ASM_EDGE_FROM_STEP @4 9607 #
point $-1 -1 $-1 1.238984396776559 -26.749999999999996 12.870988120697692 #
point $-1 -1 $-1 0.6610156032233141 -26.749999999999996 16.82901187930231 #
truecolor-adesk-attrib $-1 -1 $210 $-1 $98 -1056964608 #
ellipse-curve $-1 -1 $-1 0.94999999999993667 -27.25 14.850000000000001 6.0400903359079229e-19 1 -1.6142006477399693e-17 0.2167382975824666 -2.4089828820576495e-17 -1.4842589094767309 1 F -3.1415926535897931 F 0 #
face $211 -1 $-1 $112 $101 $3 $-1 $212 reversed single #
DXID-attrib $-1 -1 $-1 $102 $57 @18 ASM_EDGE_FROM_STEP @5 13934 #
point $-1 -1 $-1 0.7332617024174698 -27.25 16.334258909476734 #
DXID-attrib $-1 -1 $-1 $105 $59 @18 ASM_EDGE_FROM_STEP @4 7569 #
point $-1 -1 $-1 1.1667382975824032 -27.25 13.365741090523271 #
truecolor-adesk-attrib $-1 -1 $213 $-1 $111 -1056964608 #
ellipse-curve $-1 -1 $-1 0.94999999999993667 -27.499999999999993 14.850000000000001 6.0400903359079229e-19 1 -1.6142006477399693e-17 0.2167382975824666 -2.4089828820576495e-17 -1.4842589094767309 1 F 0 F 3.1415926535897931 #
truecolor-adesk-attrib $-1 -1 $214 $-1 $112 -1056964608 #
torus-surface $-1 -1 $-1 0.94999999999993667 -27.499999999999996 14.850000000000001 6.0400903359079537e-19 1 -1.6142006477399717e-17 1 0.50000000000000022 0.14449219838831107 -1.605988588038433e-17 -0.98950593965115397 forward_v I I I I #
DXID-attrib $-1 -1 $-1 $115 $71 @18 ASM_EDGE_FROM_STEP @5 15003 #
DXID-attrib $-1 -1 $-1 $117 $72 @18 ASM_FACE_FROM_STEP @16 step-2M-302-6403 #
truecolor-adesk-attrib $-1 -1 $215 $-1 $118 -1056964608 #
face $216 -1 $-1 $217 $218 $3 $-1 $219 forward single #
loop $-1 -1 $-1 $-1 $220 $118 #
plane-surface $-1 -1 $-1 0.94999999999993667 -34.25 14.850000000000001 -6.0400903359079537e-19 -1 1.6142006477399717e-17 -0.14449219838831107 1.605988588038433e-17 0.98950593965115397 forward_v I I I I #
DXID-attrib $-1 -1 $-1 $121 $78 @18 ASM_FACE_FROM_STEP @16 step-2M-302-9004 #
truecolor-adesk-attrib $-1 -1 $221 $-1 $122 -1056964608 #
face $222 -1 $-1 $223 $224 $3 $-1 $225 reversed single #
loop $-1 -1 $-1 $-1 $226 $122 #
cone-surface $-1 -1 $-1 0.94999999999993667 -27.999999999999996 14.850000000000001 6.0400903359079537e-19 1 -1.6142006477399717e-17 0.36123049597077767 -4.0149714700960801e-17 -2.473764849127885 1 I I 0 1 2.5 forward I I I I #
coedge $-1 -1 $-1 $227 $228 $229 $230 reversed $123 $-1 #
coedge $-1 -1 $-1 $128 $125 $231 $232 forward $79 $-1 #
coedge $-1 -1 $-1 $125 $128 $233 $234 reversed $79 $-1 #
coedge $-1 -1 $-1 $235 $235 $125 $177 reversed $236 $-1 #
edge $237 -1 $-1 $238 0 $239 3.1415926535897931 $125 $240 forward @7 unknown #
coedge $-1 -1 $-1 $241 $242 $126 $179 reversed $243 $-1 #
edge $244 -1 $-1 $184 0.00050000000000000185 $137 0.00099999999999999872 $126 $245 forward @7 unknown #
coedge $-1 -1 $-1 $242 $241 $127 $181 forward $243 $-1 #
edge $246 -1 $-1 $183 0.00050000000000000196 $136 0.00099999999999999872 $127 $247 forward @7 unknown #
truecolor-adesk-attrib $-1 -1 $248 $-1 $129 -1056964608 #
vertex $-1 -1 $-1 $129 $249 #
vertex $-1 -1 $-1 $129 $250 #
ellipse-curve $-1 -1 $-1 0.94999999999993667 -27.499999999999993 14.850000000000001 6.0400903359079537e-19 1 -1.6142006477399717e-17 0.65021489274739985 -7.2269486461729461e-17 -4.4527767284301927 1 F 0 F 3.1415926535897931 #
coedge $-1 -1 $-1 $251 $251 $130 $187 forward $208 $-1 #
edge $252 -1 $-1 $195 0 $192 3.1415926535897931 $130 $253 forward @7 unknown #
coedge $-1 -1 $-1 $133 $131 $242 $254 forward $190 $-1 #
coedge $-1 -1 $-1 $131 $133 $251 $255 reversed $190 $-1 #
loop $-1 -1 $-1 $-1 $131 $256 #
truecolor-adesk-attrib $-1 -1 $257 $-1 $132 -1056964608 #
vertex $-1 -1 $-1 $132 $258 #
ellipse-curve $-1 -1 $-1 0.33590815684961417 -26.999999999999996 19.055400243517404 -0.98950593965115397 -1.7347234759767998e-18 -0.14449219838831118 -0.036123049597077829 -3.0679498049440084e-17 0.24737648491278871 1 F -6.6613381477509337e-15 F 1.5707963267949032 #
truecolor-adesk-attrib $-1 -1 $259 $-1 $134 -1056964608 #
vertex $-1 -1 $-1 $187 $260 #
ellipse-curve $-1 -1 $-1 1.5640918431502586 -26.999999999999996 10.644599756482599 0.98950593965115397 1.7347234759767978e-18 0.14449219838831107 4.862077914396331e-18 -0.25000000000000011 -3.0294882043277014e-17 1 F 1.5707963267948899 F 3.1415926535897998 #
DXID-attrib $-1 -1 $-1 $135 $85 @18 ASM_EDGE_FROM_STEP @4 9412 #
point $-1 -1 $-1 1.6002148927473365 -26.999999999999996 10.397223271569809 #
point $-1 -1 $-1 0.29978510725253626 -26.999999999999996 19.302776728430196 #
truecolor-adesk-attrib $-1 -1 $261 $-1 $139 -1056964608 #
ellipse-curve $-1 -1 $-1 0.94999999999993667 -27.25 14.850000000000001 6.0400903359079229e-19 1 -1.6142006477399693e-17 0.2167382975824666 -2.4089828820576495e-17 -1.4842589094767309 1 F 0 F 3.1415926535897931 #
face $262 -1 $-1 $153 $141 $3 $-1 $263 forward single #
DXID-attrib $-1 -1 $-1 $142 $88 @18 ASM_EDGE_FROM_STEP @5 13732 #
DXID-attrib $-1 -1 $-1 $144 $90 @18 ASM_EDGE_FROM_STEP @5 12516 #
truecolor-adesk-attrib $-1 -1 $264 $-1 $146 -1056964608 #
ellipse-curve $-1 -1 $-1 0.94999999999993667 -26.749999999999996 14.850000000000001 6.0400903359079537e-19 1 -1.6142006477399717e-17 0.28898439677662263 -3.211977176076871e-17 -1.9790118793023115 1 F -3.1415926535897931 F 0 #
truecolor-adesk-attrib $-1 -1 $265 $-1 $147 -1056964608 #
loop $-1 -1 $-1 $92 $186 $147 #
plane-surface $-1 -1 $-1 1.5640918431502584 -26.749999999999996 10.644599756482599 6.0400903359079537e-19 1 -1.6142006477399717e-17 0.14449219838831107 -1.605988588038433e-17 -0.98950593965115397 forward_v I I I I #
DXID-attrib $-1 -1 $-1 $151 $98 @18 ASM_EDGE_FROM_STEP @5 23608 #
truecolor-adesk-attrib $-1 -1 $266 $-1 $153 -1056964608 #
cone-surface $-1 -1 $-1 0.94999999999993667 -27.999999999999996 14.850000000000001 6.0400903359079229e-19 1 -1.6142006477399693e-17 0.2167382975824666 -2.4089828820576495e-17 -1.4842589094767309 1 I I 0 1 1.5000000000000002 forward I I I I #
DXID-attrib $-1 -1 $-1 $158 $111 @18 ASM_EDGE_FROM_STEP @5 15356 #
DXID-attrib $-1 -1 $-1 $160 $112 @18 ASM_FACE_FROM_STEP @17 step-2M-302-19156 #
DXID-attrib $-1 -1 $-1 $164 $118 @18 ASM_FACE_FROM_STEP @17 step-2M-302-12975 #
truecolor-adesk-attrib $-1 -1 $267 $-1 $165 -1056964608 #
face $268 -1 $-1 $269 $270 $3 $-1 $271 forward single #
loop $-1 -1 $-1 $-1 $272 $165 #
torus-surface $-1 -1 $-1 0.94999999999993667 -34.125 14.850000000000001 6.0400903359079537e-19 1 -1.6142006477399717e-17 5.5000000000000018 0.12500000000000011 0.14449219838831107 -1.605988588038433e-17 -0.98950593965115397 forward_v I I I I #
coedge $-1 -1 $-1 $273 $273 $274 $275 reversed $166 $-1 #
DXID-attrib $-1 -1 $-1 $169 $122 @18 ASM_FACE_FROM_STEP @17 step-2M-302-23187 #
truecolor-adesk-attrib $-1 -1 $276 $-1 $170 -1056964608 #
face $277 -1 $-1 $278 $279 $3 $-1 $280 forward single #
loop $-1 -1 $-1 $-1 $281 $170 #
torus-surface $-1 -1 $-1 0.94999999999993667 -29.499999999999996 14.850000000000001 6.0400903359079537e-19 1 -1.6142006477399717e-17 2.75 0.24999999999999992 0.14449219838831107 -1.605988588038433e-17 -0.98950593965115397 forward_v I I I I #
coedge $-1 -1 $-1 $282 $283 $284 $285 forward $171 $-1 #
coedge $-1 -1 $-1 $286 $173 $287 $288 forward $123 $-1 #
coedge $-1 -1 $-1 $173 $286 $289 $290 reversed $123 $-1 #
coedge $-1 -1 $-1 $291 $291 $173 $230 forward $292 $-1 #
edge $293 -1 $-1 $294 -3.1415926535897931 $295 0 $173 $296 forward @7 unknown #
coedge $-1 -1 $-1 $297 $298 $174 $232 reversed $299 $-1 #
edge $300 -1 $-1 $239 -1.5707963267949032 $184 7.4940054162198003e-15 $174 $301 forward @7 unknown #
coedge $-1 -1 $-1 $298 $297 $175 $234 forward $299 $-1 #
edge $302 -1 $-1 $238 -6.6613381477509369e-15 $183 1.5707963267949041 $175 $303 forward @7 unknown #
coedge $-1 -1 $-1 $176 $176 $297 $304 reversed $236 $-1 #
loop $-1 -1 $-1 $292 $176 $305 #
truecolor-adesk-attrib $-1 -1 $306 $-1 $177 -1056964608 #
vertex $-1 -1 $-1 $177 $307 #
vertex $-1 -1 $-1 $177 $308 #
ellipse-curve $-1 -1 $-1 0.94999999999993667 -27.749999999999996 14.850000000000001 6.0400903359079229e-19 1 -1.6142006477399693e-17 0.61409184315032161 -6.8254514991633194e-17 -4.2054002435174018 1 F 0 F 3.1415926535897931 #
coedge $-1 -1 $-1 $180 $178 $298 $309 forward $243 $-1 #
coedge $-1 -1 $-1 $178 $180 $188 $254 reversed $243 $-1 #
loop $-1 -1 $-1 $-1 $178 $310 #
truecolor-adesk-attrib $-1 -1 $311 $-1 $179 -1056964608 #
straight-curve $-1 -1 $-1 0.29978510725253626 -27.999999999999996 19.302776728430196 6.0400903359079496e-16 1000 -1.6142006477399712e-14 F 0.00050000000000000185 F 0.00099999999999999872 #
truecolor-adesk-attrib $-1 -1 $312 $-1 $181 -1056964608 #
straight-curve $-1 -1 $-1 1.6002148927473365 -27.999999999999996 10.397223271569809 6.0400903359079496e-16 1000 -1.6142006477399712e-14 F 0.00050000000000000196 F 0.00099999999999999872 #
DXID-attrib $-1 -1 $-1 $182 $129 @18 ASM_EDGE_FROM_STEP @4 8953 #
point $-1 -1 $-1 1.6002148927473365 -27.499999999999993 10.397223271569809 #
point $-1 -1 $-1 0.29978510725253626 -27.499999999999993 19.302776728430196 #
coedge $-1 -1 $-1 $186 $186 $189 $255 forward $208 $-1 #
truecolor-adesk-attrib $-1 -1 $313 $-1 $187 -1056964608 #
ellipse-curve $-1 -1 $-1 0.94999999999993667 -26.749999999999996 14.850000000000001 6.0400903359079229e-19 1 -1.6142006477399693e-17 0.61409184315032161 -6.8254514991633194e-17 -4.2054002435174018 1 F 0 F 3.1415926535897931 #
edge $314 -1 $-1 $137 -3.1415926535897931 $136 0 $242 $315 forward @7 unknown #
edge $316 -1 $-1 $192 -3.1415926535897931 $195 0 $189 $317 forward @7 unknown #
face $318 -1 $-1 $147 $190 $3 $-1 $319 forward single #
DXID-attrib $-1 -1 $-1 $191 $132 @18 ASM_EDGE_FROM_STEP @5 26889 #
point $-1 -1 $-1 0.3359081568496145 -26.749999999999996 19.055400243517404 #
DXID-attrib $-1 -1 $-1 $194 $134 @18 ASM_EDGE_FROM_STEP @5 10653 #
point $-1 -1 $-1 1.5640918431502584 -26.749999999999996 10.644599756482599 #
DXID-attrib $-1 -1 $-1 $200 $139 @18 ASM_EDGE_FROM_STEP @5 22586 #
truecolor-adesk-attrib $-1 -1 $320 $-1 $202 -1056964608 #
torus-surface $-1 -1 $-1 0.94999999999993667 -27.249999999999996 14.850000000000001 6.0400903359079537e-19 1 -1.6142006477399717e-17 2 0.49999999999999989 0.14449219838831107 -1.605988588038433e-17 -0.98950593965115397 forward_v I I I I #
DXID-attrib $-1 -1 $-1 $205 $146 @18 ASM_EDGE_FROM_STEP @4 1653 #
DXID-attrib $-1 -1 $-1 $207 $147 @18 ASM_FACE_FROM_STEP @17 step-2M-302-14395 #
DXID-attrib $-1 -1 $-1 $211 $153 @18 ASM_FACE_FROM_STEP @16 step-2M-302-7407 #
DXID-attrib $-1 -1 $-1 $216 $165 @18 ASM_FACE_FROM_STEP @16 step-2M-302-9518 #
truecolor-adesk-attrib $-1 -1 $321 $-1 $217 -1056964608 #
face $322 -1 $-1 $323 $324 $3 $-1 $325 forward single #
loop $-1 -1 $-1 $-1 $326 $217 #
cone-surface $-1 -1 $-1 0.94999999999993667 -27.999999999999996 14.850000000000001 6.0400903359079537e-19 1 -1.6142006477399717e-17 0.81276861593424998 -9.0336858077161876e-17 -5.5659709105377431 1 I I 0 1 5.6250000000000018 forward I I I I #
coedge $-1 -1 $-1 $327 $328 $329 $330 reversed $218 $-1 #
coedge $-1 -1 $-1 $220 $220 $327 $331 reversed $166 $-1 #
coedge $-1 -1 $-1 $329 $332 $220 $275 forward $333 $-1 #
edge $334 -1 $-1 $335 0 $336 3.1415926535897931 $274 $337 forward @7 unknown #
DXID-attrib $-1 -1 $-1 $222 $170 @18 ASM_FACE_FROM_STEP @17 step-2M-302-15176 #
truecolor-adesk-attrib $-1 -1 $338 $-1 $223 -1056964608 #
face $339 -1 $-1 $340 $341 $3 $-1 $342 forward single #
loop $-1 -1 $-1 $-1 $343 $223 #
cone-surface $-1 -1 $-1 0.94999999999993667 -27.999999999999996 14.850000000000001 6.0400903359079229e-19 1 -1.6142006477399693e-17 0.54184574395616647 -6.0224572051441152e-17 -3.7106472736918272 1 I I 0 1 3.75 forward I I I I #
coedge $-1 -1 $-1 $344 $345 $346 $347 reversed $224 $-1 #
coedge $-1 -1 $-1 $348 $226 $349 $350 forward $171 $-1 #
coedge $-1 -1 $-1 $226 $348 $351 $352 reversed $171 $-1 #
coedge $-1 -1 $-1 $353 $354 $226 $285 reversed $355 $-1 #
edge $356 -1 $-1 $357 0 $358 3.1415926535897931 $226 $359 forward @7 unknown #
coedge $-1 -1 $-1 $228 $227 $360 $361 forward $123 $-1 #
coedge $-1 -1 $-1 $362 $363 $227 $288 reversed $364 $-1 #
edge $365 -1 $-1 $294 1.5707963267948966 $366 3.1415926535898007 $227 $367 forward @7 unknown #
coedge $-1 -1 $-1 $363 $362 $228 $290 forward $364 $-1 #
edge $368 -1 $-1 $295 -3.1415926535897931 $369 -1.5707963267948892 $228 $370 forward @7 unknown #
coedge $-1 -1 $-1 $229 $229 $362 $371 forward $292 $-1 #
loop $-1 -1 $-1 $-1 $291 $305 #
truecolor-adesk-attrib $-1 -1 $372 $-1 $230 -1056964608 #
vertex $-1 -1 $-1 $230 $373 #
vertex $-1 -1 $-1 $230 $374 #
ellipse-curve $-1 -1 $-1 0.94999999999993667 -27.749999999999996 14.850000000000001 6.0400903359079537e-19 1 -1.6142006477399717e-17 0.3973535455678554 -4.416468617105692e-17 -2.7211413340406736 1 F -3.1415926535897931 F 0 #
coedge $-1 -1 $-1 $233 $231 $235 $304 forward $299 $-1 #
coedge $-1 -1 $-1 $231 $233 $241 $309 reversed $299 $-1 #
loop $-1 -1 $-1 $-1 $231 $375 #
truecolor-adesk-attrib $-1 -1 $376 $-1 $232 -1056964608 #
ellipse-curve $-1 -1 $-1 0.33590815684961417 -27.499999999999996 19.055400243517404 -0.98950593965115397 -1.7347234759767998e-18 -0.14449219838831118 -0.036123049597077829 -3.0679498049440084e-17 0.24737648491278871 1 F -1.5707963267949032 F 7.4940054162198003e-15 #
truecolor-adesk-attrib $-1 -1 $377 $-1 $234 -1056964608 #
ellipse-curve $-1 -1 $-1 1.5640918431502586 -27.499999999999996 10.644599756482599 0.98950593965115397 1.7347234759767978e-18 0.14449219838831107 4.862077914396331e-18 -0.25000000000000011 -3.0294882043277014e-17 1 F -6.6613381477509369e-15 F 1.5707963267949041 #
edge $378 -1 $-1 $239 -3.1415926535897931 $238 0 $235 $379 forward @7 unknown #
face $380 -1 $-1 $375 $236 $3 $-1 $381 forward single #
DXID-attrib $-1 -1 $-1 $237 $177 @18 ASM_EDGE_FROM_STEP @4 5201 #
point $-1 -1 $-1 1.5640918431502584 -27.749999999999996 10.644599756482599 #
point $-1 -1 $-1 0.3359081568496145 -27.749999999999996 19.055400243517404 #
edge $382 -1 $-1 $184 -3.1415926535897931 $183 0 $298 $383 forward @7 unknown #
face $384 -1 $-1 $256 $243 $3 $-1 $385 forward single #
DXID-attrib $-1 -1 $-1 $244 $179 @18 ASM_EDGE_FROM_STEP @5 16603 #
DXID-attrib $-1 -1 $-1 $246 $181 @18 ASM_EDGE_FROM_STEP @5 21936 #
DXID-attrib $-1 -1 $-1 $252 $187 @18 ASM_EDGE_FROM_STEP @5 10440 #
truecolor-adesk-attrib $-1 -1 $386 $-1 $254 -1056964608 #
ellipse-curve $-1 -1 $-1 0.94999999999993667 -26.999999999999996 14.850000000000001 6.0400903359079537e-19 1 -1.6142006477399717e-17 0.65021489274739985 -7.2269486461729461e-17 -4.4527767284301927 1 F -3.1415926535897931 F 0 #
truecolor-adesk-attrib $-1 -1 $387 $-1 $255 -1056964608 #
ellipse-curve $-1 -1 $-1 0.94999999999993667 -26.749999999999996 14.850000000000001 6.0400903359079229e-19 1 -1.6142006477399693e-17 0.61409184315032161 -6.8254514991633194e-17 -4.2054002435174018 1 F -3.1415926535897931 F 0 #
truecolor-adesk-attrib $-1 -1 $388 $-1 $256 -1056964608 #
torus-surface $-1 -1 $-1 0.94999999999993667 -26.999999999999996 14.850000000000001 6.0400903359079537e-19 1 -1.6142006477399717e-17 4.2499999999999991 0.25000000000000011 0.14449219838831107 -1.605988588038433e-17 -0.98950593965115397 forward_v I I I I #
DXID-attrib $-1 -1 $-1 $262 $202 @18 ASM_FACE_FROM_STEP @17 step-2M-302-21291 #
DXID-attrib $-1 -1 $-1 $268 $217 @18 ASM_FACE_FROM_STEP @16 step-2M-302-2478 #
truecolor-adesk-attrib $-1 -1 $389 $-1 $269 -1056964608 #
face $390 -1 $-1 $391 $392 $3 $-1 $393 forward single #
loop $-1 -1 $-1 $-1 $394 $269 #
torus-surface $-1 -1 $-1 0.94999999999993667 -32.75 14.850000000000001 6.0400903359079537e-19 1 -1.6142006477399717e-17 5.1250000000000009 0.50000000000000044 0.14449219838831107 -1.605988588038433e-17 -0.98950593965115397 forward_v I I I I #
coedge $-1 -1 $-1 $395 $396 $397 $398 reversed $270 $-1 #
coedge $-1 -1 $-1 $399 $272 $273 $331 forward $218 $-1 #
coedge $-1 -1 $-1 $272 $399 $395 $400 reversed $218 $-1 #
coedge $-1 -1 $-1 $401 $274 $272 $330 forward $333 $-1 #
edge $402 -1 $-1 $336 -1.5707963267948966 $403 -7.1216758093198045e-64 $329 $404 forward @7 unknown #
edge $405 -1 $-1 $336 -3.1415926535897931 $335 0 $273 $406 forward @7 unknown #
coedge $-1 -1 $-1 $274 $401 $399 $407 reversed $333 $-1 #
loop $-1 -1 $-1 $-1 $274 $408 #
truecolor-adesk-attrib $-1 -1 $409 $-1 $275 -1056964608 #
vertex $-1 -1 $-1 $275 $410 #
vertex $-1 -1 $-1 $275 $411 #
ellipse-curve $-1 -1 $-1 0.94999999999993667 -34.25 14.850000000000001 6.0400903359079229e-19 1 -1.6142006477399693e-17 0.79470709113571114 -8.8329372342113742e-17 -5.442282668081349 1 F 0 F 3.1415926535897931 #
DXID-attrib $-1 -1 $-1 $277 $223 @18 ASM_FACE_FROM_STEP @16 step-2M-302-8616 #
truecolor-adesk-attrib $-1 -1 $412 $-1 $278 -1056964608 #
face $413 -1 $-1 $408 $414 $3 $-1 $415 forward single #
loop $-1 -1 $-1 $-1 $416 $278 #
torus-surface $-1 -1 $-1 0.94999999999993667 -32.75 14.850000000000001 6.0400903359079537e-19 1 -1.6142006477399717e-17 5.1250000000000009 0.50000000000000044 0.14449219838831107 -1.605988588038433e-17 -0.98950593965115397 forward_v I I I I #
coedge $-1 -1 $-1 $417 $418 $419 $420 forward $279 $-1 #
coedge $-1 -1 $-1 $421 $281 $354 $422 forward $224 $-1 #
coedge $-1 -1 $-1 $281 $421 $353 $423 reversed $224 $-1 #
coedge $-1 -1 $-1 $351 $349 $281 $347 forward $424 $-1 #
edge $425 -1 $-1 $358 -3.1415926535897931 $357 0 $281 $426 forward @7 unknown #
coedge $-1 -1 $-1 $283 $282 $363 $427 reversed $171 $-1 #
coedge $-1 -1 $-1 $346 $360 $282 $350 reversed $424 $-1 #
edge $428 -1 $-1 $358 -0.0014999999999999983 $366 -1.8756697583999227e-18 $282 $429 forward @7 unknown #
coedge $-1 -1 $-1 $360 $346 $283 $352 forward $424 $-1 #
edge $430 -1 $-1 $357 -0.0014999999999999985 $369 -1.8756697583999227e-18 $283 $431 forward @7 unknown #
coedge $-1 -1 $-1 $432 $284 $345 $423 forward $355 $-1 #
coedge $-1 -1 $-1 $284 $432 $344 $422 reversed $355 $-1 #
loop $-1 -1 $-1 $-1 $354 $433 #
truecolor-adesk-attrib $-1 -1 $434 $-1 $285 -1056964608 #
vertex $-1 -1 $-1 $285 $435 #
vertex $-1 -1 $-1 $285 $436 #
ellipse-curve $-1 -1 $-1 0.94999999999993667 -29.499999999999996 14.850000000000001 6.0400903359079537e-19 1 -1.6142006477399717e-17 0.36123049597077767 -4.0149714700960801e-17 -2.473764849127885 1 F 0 F 3.1415926535897931 #
coedge $-1 -1 $-1 $349 $351 $286 $361 reversed $424 $-1 #
edge $437 -1 $-1 $366 -3.1415926535897931 $369 0 $286 $438 forward @7 unknown #
coedge $-1 -1 $-1 $289 $287 $291 $371 reversed $364 $-1 #
coedge $-1 -1 $-1 $287 $289 $348 $427 forward $364 $-1 #
loop $-1 -1 $-1 $-1 $287 $439 #
truecolor-adesk-attrib $-1 -1 $440 $-1 $288 -1056964608 #
vertex $-1 -1 $-1 $288 $441 #
ellipse-curve $-1 -1 $-1 0.55264645443208094 -27.999999999999996 17.571141334040675 -0.98950593965115397 -1.7347234759767998e-18 -0.14449219838831118 -0.036123049597077767 -3.0679498049440035e-17 0.2473764849127883 1 F 1.5707963267948966 F 3.1415926535898007 #
truecolor-adesk-attrib $-1 -1 $442 $-1 $290 -1056964608 #
vertex $-1 -1 $-1 $361 $443 #
ellipse-curve $-1 -1 $-1 1.3473535455677921 -27.999999999999996 12.128858665959328 0.98950593965115397 1.7347234759767978e-18 0.14449219838831107 4.8620779143963271e-18 -0.24999999999999992 -3.0294882043276989e-17 1 F -3.1415926535897931 F -1.5707963267948892 #
edge $444 -1 $-1 $295 0 $294 3.1415926535897931 $362 $445 forward @7 unknown #
DXID-attrib $-1 -1 $-1 $293 $230 @18 ASM_EDGE_FROM_STEP @5 24682 #
point $-1 -1 $-1 0.55264645443208094 -27.749999999999996 17.571141334040675 #
point $-1 -1 $-1 1.3473535455677921 -27.749999999999996 12.128858665959328 #
face $446 -1 $-1 $310 $299 $3 $-1 $447 forward single #
DXID-attrib $-1 -1 $-1 $300 $232 @18 ASM_EDGE_FROM_STEP @5 15525 #
DXID-attrib $-1 -1 $-1 $302 $234 @18 ASM_EDGE_FROM_STEP @5 20995 #
truecolor-adesk-attrib $-1 -1 $448 $-1 $304 -1056964608 #
ellipse-curve $-1 -1 $-1 0.94999999999993667 -27.749999999999996 14.850000000000001 6.0400903359079229e-19 1 -1.6142006477399693e-17 0.61409184315032161 -6.8254514991633194e-17 -4.2054002435174018 1 F -3.1415926535897931 F 0 #
truecolor-adesk-attrib $-1 -1 $449 $-1 $305 -1056964608 #
plane-surface $-1 -1 $-1 1.3473535455677925 -27.749999999999996 12.128858665959326 -6.0400903359079537e-19 -1 1.6142006477399717e-17 -0.14449219838831107 1.605988588038433e-17 0.98950593965115397 forward_v I I I I #
truecolor-adesk-attrib $-1 -1 $450 $-1 $309 -1056964608 #
ellipse-curve $-1 -1 $-1 0.94999999999993667 -27.499999999999993 14.850000000000001 6.0400903359079537e-19 1 -1.6142006477399717e-17 0.65021489274739985 -7.2269486461729461e-17 -4.4527767284301927 1 F -3.1415926535897931 F 0 #
truecolor-adesk-attrib $-1 -1 $451 $-1 $310 -1056964608 #
cone-surface $-1 -1 $-1 0.94999999999993667 -27.999999999999996 14.850000000000001 6.0400903359079537e-19 1 -1.6142006477399717e-17 0.65021489274739985 -7.2269486461729461e-17 -4.4527767284301927 1 I I 0 1 4.5 forward I I I I #
DXID-attrib $-1 -1 $-1 $314 $254 @18 ASM_EDGE_FROM_STEP @4 1887 #
DXID-attrib $-1 -1 $-1 $316 $255 @18 ASM_EDGE_FROM_STEP @4 9619 #
DXID-attrib $-1 -1 $-1 $318 $256 @18 ASM_FACE_FROM_STEP @17 step-2M-302-16213 #
DXID-attrib $-1 -1 $-1 $322 $269 @18 ASM_FACE_FROM_STEP @16 step-2M-302-8968 #
truecolor-adesk-attrib $-1 -1 $452 $-1 $323 -1056964608 #
face $453 -1 $-1 $454 $455 $3 $-1 $456 forward single #
loop $-1 -1 $-1 $457 $458 $323 #
plane-surface $-1 -1 $-1 1.6905225167400308 -32.249999999999993 9.7787820592878365 6.0400903359079537e-19 1 -1.6142006477399717e-17 0.14449219838831107 -1.605988588038433e-17 -0.98950593965115397 forward_v I I I I #
coedge $-1 -1 $-1 $459 $460 $461 $462 reversed $324 $-1 #
coedge $-1 -1 $-1 $463 $326 $328 $400 forward $270 $-1 #
coedge $-1 -1 $-1 $326 $463 $459 $464 reversed $270 $-1 #
coedge $-1 -1 $-1 $465 $466 $326 $398 forward $414 $-1 #
edge $467 -1 $-1 $403 -0.0061250000000000002 $468 -0.0047499999999999999 $397 $469 forward @7 unknown #
coedge $-1 -1 $-1 $328 $327 $332 $407 forward $218 $-1 #
edge $470 -1 $-1 $403 -3.1415926535897931 $471 0 $328 $472 forward @7 unknown #
coedge $-1 -1 $-1 $332 $329 $466 $473 reversed $333 $-1 #
truecolor-adesk-attrib $-1 -1 $474 $-1 $330 -1056964608 #
vertex $-1 -1 $-1 $473 $475 #
ellipse-curve $-1 -1 $-1 0.15529290886422498 -34.125 20.292282668081349 -0.98950593965115397 -1.7347234759767998e-18 -0.14449219838831118 -0.018061524798538914 -1.5339749024720042e-17 0.12368824245639436 1 F -1.5707963267948966 F -7.1216758093198045e-64 #
truecolor-adesk-attrib $-1 -1 $476 $-1 $331 -1056964608 #
ellipse-curve $-1 -1 $-1 0.94999999999993667 -34.25 14.850000000000001 6.0400903359079229e-19 1 -1.6142006477399693e-17 0.79470709113571114 -8.8329372342113742e-17 -5.442282668081349 1 F -3.1415926535897931 F 0 #
edge $477 -1 $-1 $335 0 $471 1.5707963267948966 $332 $478 forward @7 unknown #
face $479 -1 $-1 $72 $333 $3 $-1 $480 forward single #
DXID-attrib $-1 -1 $-1 $334 $275 @18 ASM_EDGE_FROM_STEP @5 10528 #
point $-1 -1 $-1 1.7447070911356475 -34.25 9.4077173319186542 #
point $-1 -1 $-1 0.15529290886422498 -34.25 20.292282668081349 #
DXID-attrib $-1 -1 $-1 $339 $278 @18 ASM_FACE_FROM_STEP @17 step-2M-302-12085 #
truecolor-adesk-attrib $-1 -1 $481 $-1 $340 -1056964608 #
loop $-1 -1 $-1 $-1 $466 $340 #
cone-surface $-1 -1 $-1 0.94999999999993667 -27.999999999999996 14.850000000000001 6.0400903359079537e-19 1 -1.6142006477399717e-17 0.81276861593424998 -9.0336858077161876e-17 -5.5659709105377431 1 I I 0 1 5.6250000000000018 forward I I I I #
coedge $-1 -1 $-1 $461 $482 $465 $483 forward $341 $-1 #
coedge $-1 -1 $-1 $484 $343 $485 $486 forward $279 $-1 #
coedge $-1 -1 $-1 $343 $484 $487 $488 reversed $279 $-1 #
coedge $-1 -1 $-1 $489 $489 $343 $420 reversed $457 $-1 #
edge $490 -1 $-1 $491 0 $492 3.1415926535897931 $343 $493 forward @7 unknown #
coedge $-1 -1 $-1 $345 $344 $494 $495 forward $224 $-1 #
edge $496 -1 $-1 $358 -3.1415926535898007 $497 -1.5707963267948899 $344 $498 forward @7 unknown #
edge $499 -1 $-1 $357 -1.5707963267949043 $500 2.2204460492503135e-15 $345 $501 forward @7 unknown #
loop $-1 -1 $-1 $-1 $349 $502 #
truecolor-adesk-attrib $-1 -1 $503 $-1 $347 -1056964608 #
ellipse-curve $-1 -1 $-1 0.94999999999993667 -29.499999999999996 14.850000000000001 6.0400903359079537e-19 1 -1.6142006477399717e-17 0.36123049597077767 -4.0149714700960801e-17 -2.473764849127885 1 F -3.1415926535897931 F 0 #
edge $504 -1 $-1 $369 0 $366 3.1415926535897931 $348 $505 forward @7 unknown #
truecolor-adesk-attrib $-1 -1 $506 $-1 $350 -1056964608 #
straight-curve $-1 -1 $-1 0.58876950402915873 -27.999999999999996 17.323764849127887 6.0400903359079496e-16 1000 -1.6142006477399712e-14 F -0.0014999999999999983 F -1.8756697583999227e-18 #
truecolor-adesk-attrib $-1 -1 $507 $-1 $352 -1056964608 #
straight-curve $-1 -1 $-1 1.3112304959707144 -27.999999999999996 12.376235150872116 6.0400903359079496e-16 1000 -1.6142006477399712e-14 F -0.0014999999999999985 F -1.8756697583999227e-18 #
coedge $-1 -1 $-1 $354 $353 $508 $509 forward $355 $-1 #
face $510 -1 $-1 $502 $355 $3 $-1 $511 reversed single #
DXID-attrib $-1 -1 $-1 $356 $285 @18 ASM_EDGE_FROM_STEP @4 3609 #
point $-1 -1 $-1 1.3112304959707144 -29.499999999999996 12.376235150872116 #
point $-1 -1 $-1 0.58876950402915873 -29.499999999999993 17.323764849127887 #
truecolor-adesk-attrib $-1 -1 $512 $-1 $361 -1056964608 #
ellipse-curve $-1 -1 $-1 0.94999999999993667 -28 14.850000000000001 6.0400903359079537e-19 1 -1.6142006477399717e-17 0.36123049597077767 -4.0149714700960801e-17 -2.473764849127885 1 F -3.1415926535897931 F 0 #
face $513 -1 $-1 $305 $364 $3 $-1 $514 reversed single #
DXID-attrib $-1 -1 $-1 $365 $288 @18 ASM_EDGE_FROM_STEP @4 3524 #
point $-1 -1 $-1 0.58876950402915873 -28 17.323764849127887 #
DXID-attrib $-1 -1 $-1 $368 $290 @18 ASM_EDGE_FROM_STEP @4 3485 #
point $-1 -1 $-1 1.3112304959707144 -28 12.376235150872116 #
truecolor-adesk-attrib $-1 -1 $515 $-1 $371 -1056964608 #
ellipse-curve $-1 -1 $-1 0.94999999999993667 -27.749999999999996 14.850000000000001 6.0400903359079537e-19 1 -1.6142006477399717e-17 0.3973535455678554 -4.416468617105692e-17 -2.7211413340406736 1 F 0 F 3.1415926535897931 #
truecolor-adesk-attrib $-1 -1 $516 $-1 $375 -1056964608 #
torus-surface $-1 -1 $-1 0.94999999999993667 -27.499999999999996 14.850000000000001 6.0400903359079537e-19 1 -1.6142006477399717e-17 4.2499999999999991 0.25000000000000011 0.14449219838831107 -1.605988588038433e-17 -0.98950593965115397 forward_v I I I I #
DXID-attrib $-1 -1 $-1 $378 $304 @18 ASM_EDGE_FROM_STEP @4 8600 #
DXID-attrib $-1 -1 $-1 $380 $305 @18 ASM_FACE_FROM_STEP @17 step-2M-302-16225 #
DXID-attrib $-1 -1 $-1 $382 $309 @18 ASM_EDGE_FROM_STEP @4 2466 #
DXID-attrib $-1 -1 $-1 $384 $310 @18 ASM_FACE_FROM_STEP @17 step-2M-302-20453 #
DXID-attrib $-1 -1 $-1 $390 $323 @18 ASM_FACE_FROM_STEP @16 step-2M-302-8455 #
truecolor-adesk-attrib $-1 -1 $517 $-1 $391 -1056964608 #
face $518 -1 $-1 $433 $519 $3 $-1 $520 forward single #
loop $-1 -1 $-1 $-1 $485 $391 #
cone-surface $-1 -1 $-1 0.94999999999993667 -27.999999999999996 14.850000000000001 6.0400903359079229e-19 1 -1.6142006477399693e-17 0.54184574395616647 -6.0224572051441152e-17 -3.7106472736918272 1 I I 0 1 3.75 forward I I I I #
loop $-1 -1 $-1 $-1 $419 $323 #
coedge $-1 -1 $-1 $521 $521 $522 $523 forward $392 $-1 #
coedge $-1 -1 $-1 $524 $394 $396 $464 forward $324 $-1 #
coedge $-1 -1 $-1 $394 $524 $521 $525 reversed $324 $-1 #
coedge $-1 -1 $-1 $522 $416 $394 $462 forward $341 $-1 #
edge $526 -1 $-1 $468 1.8991135491519565e-63 $527 1.5707963267948966 $461 $528 forward @7 unknown #
coedge $-1 -1 $-1 $396 $395 $529 $530 forward $270 $-1 #
edge $531 -1 $-1 $468 -3.1415926535897931 $532 0 $396 $533 forward @7 unknown #
coedge $-1 -1 $-1 $529 $397 $416 $483 reversed $414 $-1 #
coedge $-1 -1 $-1 $397 $529 $401 $473 forward $414 $-1 #
truecolor-adesk-attrib $-1 -1 $534 $-1 $398 -1056964608 #
vertex $-1 -1 $-1 $483 $535 #
straight-curve $-1 -1 $-1 0.13723138406568602 -27.999999999999996 20.415970910537744 6.0400903359079496e-16 1000 -1.6142006477399712e-14 F -0.0061250000000000002 F -0.0047499999999999999 #
truecolor-adesk-attrib $-1 -1 $536 $-1 $400 -1056964608 #
vertex $-1 -1 $-1 $473 $537 #
ellipse-curve $-1 -1 $-1 0.94999999999993667 -34.125 14.850000000000001 6.0400903359079537e-19 1 -1.6142006477399717e-17 0.81276861593424987 -9.0336858077161876e-17 -5.5659709105377422 1 F -3.1415926535897931 F 0 #
edge $538 -1 $-1 $471 0 $403 3.1415926535897931 $466 $539 forward @7 unknown #
DXID-attrib $-1 -1 $-1 $402 $330 @18 ASM_EDGE_FROM_STEP @5 22668 #
point $-1 -1 $-1 0.13723138406568614 -34.125 20.415970910537744 #
DXID-attrib $-1 -1 $-1 $405 $331 @18 ASM_EDGE_FROM_STEP @5 18574 #
truecolor-adesk-attrib $-1 -1 $540 $-1 $407 -1056964608 #
ellipse-curve $-1 -1 $-1 1.7447070911356475 -34.125 9.4077173319186542 0.98950593965115397 1.7347234759767978e-18 0.14449219838831107 2.4310389571981667e-18 -0.12500000000000011 -1.5147441021638513e-17 1 F 0 F 1.5707963267948966 #
truecolor-adesk-attrib $-1 -1 $541 $-1 $408 -1056964608 #
torus-surface $-1 -1 $-1 0.94999999999993667 -34.125 14.850000000000001 6.0400903359079537e-19 1 -1.6142006477399717e-17 5.5000000000000018 0.12500000000000011 0.14449219838831107 -1.605988588038433e-17 -0.98950593965115397 forward_v I I I I #
DXID-attrib $-1 -1 $-1 $413 $340 @18 ASM_FACE_FROM_STEP @17 step-2M-302-24223 #
coedge $-1 -1 $-1 $416 $522 $524 $542 reversed $341 $-1 #
edge $543 -1 $-1 $532 0 $468 3.1415926535897931 $416 $544 forward @7 unknown #
coedge $-1 -1 $-1 $418 $417 $545 $546 reversed $279 $-1 #
coedge $-1 -1 $-1 $547 $548 $417 $486 reversed $455 $-1 #
edge $549 -1 $-1 $492 -0.0042500000000000003 $550 -0.0017499999999999998 $417 $551 forward @7 unknown #
coedge $-1 -1 $-1 $548 $547 $418 $488 forward $455 $-1 #
edge $552 -1 $-1 $491 -0.0042500000000000003 $553 -0.0017499999999999998 $418 $554 forward @7 unknown #
coedge $-1 -1 $-1 $419 $419 $547 $555 reversed $457 $-1 #
truecolor-adesk-attrib $-1 -1 $556 $-1 $420 -1056964608 #
vertex $-1 -1 $-1 $420 $557 #
vertex $-1 -1 $-1 $420 $558 #
ellipse-curve $-1 -1 $-1 0.94999999999993667 -32.25 14.850000000000001 6.0400903359079537e-19 1 -1.6142006477399717e-17 0.54184574395616647 -6.0224572051441152e-17 -3.7106472736918268 1 F 0 F 3.1415926535897931 #
coedge $-1 -1 $-1 $508 $508 $421 $495 reversed $559 $-1 #
edge $560 -1 $-1 $497 -3.1415926535897931 $500 0 $421 $561 forward @7 unknown #
truecolor-adesk-attrib $-1 -1 $562 $-1 $422 -1056964608 #
vertex $-1 -1 $-1 $422 $563 #
ellipse-curve $-1 -1 $-1 0.55264645443208105 -29.499999999999996 17.571141334040675 -0.98950593965115397 -1.7347234759767998e-18 -0.14449219838831118 -0.036123049597077767 -3.0679498049440035e-17 0.2473764849127883 1 F -3.1415926535898007 F -1.5707963267948899 #
truecolor-adesk-attrib $-1 -1 $564 $-1 $423 -1056964608 #
vertex $-1 -1 $-1 $495 $565 #
ellipse-curve $-1 -1 $-1 1.3473535455677921 -29.499999999999996 12.128858665959328 0.98950593965115397 1.7347234759767978e-18 0.14449219838831107 4.8620779143963287e-18 -0.25 -3.0294882043277002e-17 1 F -1.5707963267949043 F 2.2204460492503135e-15 #
face $566 -1 $-1 $439 $424 $3 $-1 $567 forward single #
DXID-attrib $-1 -1 $-1 $425 $347 @18 ASM_EDGE_FROM_STEP @4 9356 #
truecolor-adesk-attrib $-1 -1 $568 $-1 $427 -1056964608 #
ellipse-curve $-1 -1 $-1 0.94999999999993667 -28 14.850000000000001 6.0400903359079537e-19 1 -1.6142006477399717e-17 0.36123049597077767 -4.0149714700960801e-17 -2.473764849127885 1 F 0 F 3.1415926535897931 #
DXID-attrib $-1 -1 $-1 $428 $350 @18 ASM_EDGE_FROM_STEP @5 25194 #
DXID-attrib $-1 -1 $-1 $430 $352 @18 ASM_EDGE_FROM_STEP @5 24491 #
coedge $-1 -1 $-1 $494 $494 $432 $509 reversed $559 $-1 #
edge $569 -1 $-1 $500 0 $497 3.1415926535897931 $508 $570 forward @7 unknown #
truecolor-adesk-attrib $-1 -1 $571 $-1 $433 -1056964608 #
torus-surface $-1 -1 $-1 0.94999999999993667 -29.499999999999996 14.850000000000001 6.0400903359079537e-19 1 -1.6142006477399717e-17 2.75 0.24999999999999992 0.14449219838831107 -1.605988588038433e-17 -0.98950593965115397 forward_v I I I I #
DXID-attrib $-1 -1 $-1 $437 $361 @18 ASM_EDGE_FROM_STEP @5 28134 #
truecolor-adesk-attrib $-1 -1 $572 $-1 $439 -1056964608 #
torus-surface $-1 -1 $-1 0.94999999999993667 -27.999999999999996 14.850000000000001 6.0400903359079537e-19 1 -1.6142006477399717e-17 2.75 0.24999999999999992 0.14449219838831107 -1.605988588038433e-17 -0.98950593965115397 forward_v I I I I #
DXID-attrib $-1 -1 $-1 $444 $371 @18 ASM_EDGE_FROM_STEP @5 10601 #
DXID-attrib $-1 -1 $-1 $446 $375 @18 ASM_FACE_FROM_STEP @17 step-2M-302-13420 #
DXID-attrib $-1 -1 $-1 $453 $391 @18 ASM_FACE_FROM_STEP @17 step-2M-302-22112 #
truecolor-adesk-attrib $-1 -1 $573 $-1 $454 -1056964608 #
loop $-1 -1 $-1 $559 $545 $454 #
plane-surface $-1 -1 $-1 1.491845743956103 -29.749999999999996 11.139352726308175 6.0400903359079537e-19 1 -1.6142006477399717e-17 0.14449219838831107 -1.605988588038433e-17 -0.98950593965115397 forward_v I I I I #
coedge $-1 -1 $-1 $458 $458 $460 $525 forward $392 $-1 #
coedge $-1 -1 $-1 $482 $461 $458 $523 reversed $341 $-1 #
edge $574 -1 $-1 $575 0 $527 3.1415926535897931 $522 $576 forward @7 unknown #
coedge $-1 -1 $-1 $460 $459 $482 $542 forward $324 $-1 #
edge $577 -1 $-1 $527 -3.1415926535897931 $575 0 $460 $578 forward @7 unknown #
truecolor-adesk-attrib $-1 -1 $579 $-1 $462 -1056964608 #
vertex $-1 -1 $-1 $462 $580 #
ellipse-curve $-1 -1 $-1 0.20947748325984172 -32.75 19.921217940712165 -0.98950593965115397 -1.7347234759767998e-18 -0.14449219838831118 -0.072246099194155658 -6.1358996098880168e-17 0.49475296982557743 1 F 1.8991135491519565e-63 F 1.5707963267948966 #
coedge $-1 -1 $-1 $466 $465 $463 $530 reversed $414 $-1 #
edge $581 -1 $-1 $471 -0.0061250000000000002 $532 -0.0047500000000000007 $529 $582 forward @7 unknown #
truecolor-adesk-attrib $-1 -1 $583 $-1 $464 -1056964608 #
vertex $-1 -1 $-1 $483 $584 #
ellipse-curve $-1 -1 $-1 0.94999999999993667 -32.75 14.850000000000001 6.0400903359079537e-19 1 -1.6142006477399717e-17 0.81276861593424998 -9.0336858077161876e-17 -5.5659709105377431 1 F -3.1415926535897931 F 0 #
DXID-attrib $-1 -1 $-1 $467 $398 @18 ASM_EDGE_FROM_STEP @4 8164 #
point $-1 -1 $-1 0.13723138406568591 -32.75 20.415970910537744 #
DXID-attrib $-1 -1 $-1 $470 $400 @18 ASM_EDGE_FROM_STEP @3 149 #
point $-1 -1 $-1 1.7627686159341867 -34.125 9.2840290894622584 #
truecolor-adesk-attrib $-1 -1 $585 $-1 $473 -1056964608 #
ellipse-curve $-1 -1 $-1 0.94999999999993667 -34.125 14.850000000000001 6.0400903359079537e-19 1 -1.6142006477399717e-17 0.81276861593424987 -9.0336858077161876e-17 -5.5659709105377422 1 F 0 F 3.1415926535897931 #
DXID-attrib $-1 -1 $-1 $477 $407 @18 ASM_EDGE_FROM_STEP @5 13221 #
DXID-attrib $-1 -1 $-1 $479 $408 @18 ASM_FACE_FROM_STEP @16 step-2M-302-5891 #
edge $586 -1 $-1 $532 1.5707963267948966 $575 3.1415926535897931 $482 $587 forward @7 unknown #
truecolor-adesk-attrib $-1 -1 $588 $-1 $483 -1056964608 #
ellipse-curve $-1 -1 $-1 0.94999999999993667 -32.75 14.850000000000001 6.0400903359079537e-19 1 -1.6142006477399717e-17 0.81276861593424998 -9.0336858077161876e-17 -5.5659709105377431 1 F 0 F 3.1415926535897931 #
coedge $-1 -1 $-1 $589 $589 $484 $546 forward $519 $-1 #
edge $590 -1 $-1 $553 0 $550 3.1415926535897931 $484 $591 forward @7 unknown #
coedge $-1 -1 $-1 $487 $485 $489 $555 forward $455 $-1 #
coedge $-1 -1 $-1 $485 $487 $589 $592 reversed $455 $-1 #
truecolor-adesk-attrib $-1 -1 $593 $-1 $486 -1056964608 #
vertex $-1 -1 $-1 $486 $594 #
straight-curve $-1 -1 $-1 0.40815425604376976 -27.999999999999996 18.560647273691828 6.0400903359079496e-16 1000 -1.6142006477399712e-14 F -0.0042500000000000003 F -0.0017499999999999998 #
truecolor-adesk-attrib $-1 -1 $595 $-1 $488 -1056964608 #
vertex $-1 -1 $-1 $546 $596 #
straight-curve $-1 -1 $-1 1.491845743956103 -27.999999999999996 11.139352726308175 6.0400903359079496e-16 1000 -1.6142006477399712e-14 F -0.0042500000000000003 F -0.0017499999999999998 #
edge $597 -1 $-1 $492 -3.1415926535897931 $491 0 $489 $598 forward @7 unknown #
DXID-attrib $-1 -1 $-1 $490 $420 @18 ASM_EDGE_FROM_STEP @5 23786 #
point $-1 -1 $-1 1.491845743956103 -32.25 11.139352726308175 #
point $-1 -1 $-1 0.40815425604376987 -32.25 18.560647273691828 #
loop $-1 -1 $-1 $-1 $508 $454 #
truecolor-adesk-attrib $-1 -1 $599 $-1 $495 -1056964608 #
ellipse-curve $-1 -1 $-1 0.94999999999993667 -29.749999999999996 14.850000000000001 6.0400903359079537e-19 1 -1.6142006477399717e-17 0.39735354556785579 -4.4164686171057019e-17 -2.7211413340406758 1 F -3.1415926535897931 F 0 #
DXID-attrib $-1 -1 $-1 $496 $422 @18 ASM_EDGE_FROM_STEP @5 26677 #
point $-1 -1 $-1 0.55264645443208071 -29.749999999999996 17.571141334040675 #
DXID-attrib $-1 -1 $-1 $499 $423 @18 ASM_EDGE_FROM_STEP @5 25997 #
point $-1 -1 $-1 1.3473535455677923 -29.749999999999996 12.128858665959328 #
truecolor-adesk-attrib $-1 -1 $600 $-1 $502 -1056964608 #
cone-surface $-1 -1 $-1 0.94999999999993667 -27.999999999999996 14.850000000000001 6.0400903359079537e-19 1 -1.6142006477399717e-17 0.36123049597077767 -4.0149714700960801e-17 -2.473764849127885 1 I I 0 1 2.5 forward I I I I #
DXID-attrib $-1 -1 $-1 $504 $427 @18 ASM_EDGE_FROM_STEP @5 12037 #
truecolor-adesk-attrib $-1 -1 $601 $-1 $509 -1056964608 #
ellipse-curve $-1 -1 $-1 0.94999999999993667 -29.749999999999996 14.850000000000001 6.0400903359079537e-19 1 -1.6142006477399717e-17 0.39735354556785579 -4.4164686171057019e-17 -2.7211413340406758 1 F 0 F 3.1415926535897931 #
DXID-attrib $-1 -1 $-1 $510 $433 @18 ASM_FACE_FROM_STEP @16 step-2M-302-1863 #
DXID-attrib $-1 -1 $-1 $513 $439 @18 ASM_FACE_FROM_STEP @17 step-2M-302-19786 #
DXID-attrib $-1 -1 $-1 $518 $454 @18 ASM_FACE_FROM_STEP @17 step-2M-302-13686 #
truecolor-adesk-attrib $-1 -1 $602 $-1 $523 -1056964608 #
vertex $-1 -1 $-1 $523 $603 #
ellipse-curve $-1 -1 $-1 0.94999999999993667 -32.249999999999993 14.850000000000001 6.0400903359079229e-19 1 -1.6142006477399693e-17 0.74052251674009439 -8.2306915136969538e-17 -5.0712179407121649 1 F 0 F 3.1415926535897931 #
truecolor-adesk-attrib $-1 -1 $604 $-1 $525 -1056964608 #
ellipse-curve $-1 -1 $-1 0.94999999999993667 -32.249999999999993 14.850000000000001 6.0400903359079229e-19 1 -1.6142006477399693e-17 0.74052251674009439 -8.2306915136969538e-17 -5.0712179407121649 1 F -3.1415926535897931 F 0 #
DXID-attrib $-1 -1 $-1 $526 $462 @18 ASM_EDGE_FROM_STEP @5 16094 #
point $-1 -1 $-1 0.20947748325984172 -32.249999999999993 19.921217940712165 #
truecolor-adesk-attrib $-1 -1 $605 $-1 $530 -1056964608 #
straight-curve $-1 -1 $-1 1.7627686159341867 -27.999999999999996 9.2840290894622584 6.0400903359079496e-16 1000 -1.6142006477399712e-14 F -0.0061250000000000002 F -0.0047500000000000007 #
DXID-attrib $-1 -1 $-1 $531 $464 @18 ASM_EDGE_FROM_STEP @5 24554 #
point $-1 -1 $-1 1.7627686159341867 -32.75 9.2840290894622584 #
DXID-attrib $-1 -1 $-1 $538 $473 @18 ASM_EDGE_FROM_STEP @3 461 #
truecolor-adesk-attrib $-1 -1 $606 $-1 $542 -1056964608 #
ellipse-curve $-1 -1 $-1 1.6905225167400308 -32.75 9.7787820592878365 0.98950593965115397 1.7347234759767978e-18 0.14449219838831107 9.7241558287926666e-18 -0.50000000000000044 -6.0589764086554053e-17 1 F 1.5707963267948966 F 3.1415926535897931 #
DXID-attrib $-1 -1 $-1 $543 $483 @18 ASM_EDGE_FROM_STEP @5 23228 #
coedge $-1 -1 $-1 $545 $545 $548 $592 forward $519 $-1 #
truecolor-adesk-attrib $-1 -1 $607 $-1 $546 -1056964608 #
ellipse-curve $-1 -1 $-1 0.94999999999993667 -29.749999999999996 14.850000000000001 6.0400903359079537e-19 1 -1.6142006477399717e-17 0.54184574395616647 -6.022457205144125e-17 -3.7106472736918272 1 F 0 F 3.1415926535897931 #
edge $608 -1 $-1 $550 -3.1415926535897931 $553 0 $548 $609 forward @7 unknown #
DXID-attrib $-1 -1 $-1 $549 $486 @18 ASM_EDGE_FROM_STEP @5 22202 #
point $-1 -1 $-1 0.40815425604376965 -29.749999999999996 18.560647273691828 #
DXID-attrib $-1 -1 $-1 $552 $488 @18 ASM_EDGE_FROM_STEP @5 27875 #
point $-1 -1 $-1 1.491845743956103 -29.749999999999996 11.139352726308175 #
truecolor-adesk-attrib $-1 -1 $610 $-1 $555 -1056964608 #
ellipse-curve $-1 -1 $-1 0.94999999999993667 -32.25 14.850000000000001 6.0400903359079537e-19 1 -1.6142006477399717e-17 0.54184574395616647 -6.0224572051441152e-17 -3.7106472736918268 1 F -3.1415926535897931 F 0 #
DXID-attrib $-1 -1 $-1 $560 $495 @18 ASM_EDGE_FROM_STEP @5 19292 #
DXID-attrib $-1 -1 $-1 $566 $502 @18 ASM_FACE_FROM_STEP @17 step-2M-302-16449 #
DXID-attrib $-1 -1 $-1 $569 $509 @18 ASM_EDGE_FROM_STEP @5 25088 #
DXID-attrib $-1 -1 $-1 $574 $523 @18 ASM_EDGE_FROM_STEP @5 16050 #
point $-1 -1 $-1 1.6905225167400308 -32.249999999999993 9.7787820592878365 #
DXID-attrib $-1 -1 $-1 $577 $525 @18 ASM_EDGE_FROM_STEP @5 17329 #
DXID-attrib $-1 -1 $-1 $581 $530 @18 ASM_EDGE_FROM_STEP @5 19455 #
DXID-attrib $-1 -1 $-1 $586 $542 @18 ASM_EDGE_FROM_STEP @4 2857 #
DXID-attrib $-1 -1 $-1 $590 $546 @18 ASM_EDGE_FROM_STEP @5 23247 #
truecolor-adesk-attrib $-1 -1 $611 $-1 $592 -1056964608 #
ellipse-curve $-1 -1 $-1 0.94999999999993667 -29.749999999999996 14.850000000000001 6.0400903359079537e-19 1 -1.6142006477399717e-17 0.54184574395616647 -6.022457205144125e-17 -3.7106472736918272 1 F -3.1415926535897931 F 0 #
DXID-attrib $-1 -1 $-1 $597 $555 @18 ASM_EDGE_FROM_STEP @5 15309 #
DXID-attrib $-1 -1 $-1 $608 $592 @18 ASM_EDGE_FROM_STEP @5 16017 #
