700 608 1 0         
5 ZWCAD 12 ACIS 28.0 NT 24 Sat May 11 14:41:03 2024 
1 9.9999999999999995e-07 1e-10 
body $1 -1 $-1 $2 $-1 $-1 #
DXID-attrib $-1 -1 $-1 $-1 $0 @18 ASM_BODY_FROM_STEP @83 F0B010828344AFABE0706D313E3D13D310EA09C3|:|34F152941116B0B4D5215AB7B0C8DF54949619B2 #
lump $-1 -1 $-1 $-1 $3 $0 #
shell $-1 -1 $-1 $-1 $-1 $4 $-1 $2 #
face $5 -1 $-1 $6 $7 $3 $-1 $8 forward single #
truecolor-adesk-attrib $-1 -1 $9 $-1 $4 -1024534343 #
face $10 -1 $-1 $11 $12 $3 $-1 $13 forward single #
loop $-1 -1 $-1 $-1 $14 $4 #
cone-surface $-1 -1 $-1 1481.0903644915265 1600.3198817307887 -1.8189894035458565e-12 -1.1100563497664416e-15 6.1232339957368314e-17 1 4.4901280605345635 -4.4901280605345884 5.2592362127156416e-15 1 I I 0 1 6.3499999999999988 forward I I I I #
DXID-attrib $-1 -1 $-1 $5 $4 @18 ASM_FACE_FROM_STEP @16 step-1M-587-8600 #
truecolor-adesk-attrib $-1 -1 $15 $-1 $6 -1024534343 #
face $16 -1 $-1 $17 $18 $3 $-1 $19 reversed single #
loop $-1 -1 $-1 $-1 $20 $6 #
plane-surface $-1 -1 $-1 1487.4403644915265 1593.9698817307885 -1.8189894035458565e-12 1 -1.4364989961173317e-15 1.1100563497664416e-15 3.648707450138022e-14 25.399999999999995 -1.5553014349171146e-15 forward_v I I I I #
coedge $-1 -1 $-1 $21 $22 $23 $24 forward $7 $-1 #
DXID-attrib $-1 -1 $-1 $10 $6 @18 ASM_FACE_FROM_STEP @16 step-1M-587-8601 #
truecolor-adesk-attrib $-1 -1 $25 $-1 $11 -1024534343 #
face $26 -1 $-1 $27 $28 $3 $-1 $29 forward single #
loop $-1 -1 $-1 $-1 $30 $11 #
plane-surface $-1 -1 $-1 1458.8653644915266 1632.0698817307887 -1.8189894035458565e-12 -1.1100563497664416e-15 6.1232339957368314e-17 1 -1.7592455668616911e-14 -25.399999999999995 1.5553014349171355e-15 forward_v I I I I #
coedge $-1 -1 $-1 $31 $32 $22 $33 reversed $12 $-1 #
coedge $-1 -1 $-1 $34 $14 $35 $36 forward $7 $-1 #
coedge $-1 -1 $-1 $14 $34 $20 $33 forward $7 $-1 #
coedge $-1 -1 $-1 $37 $38 $14 $24 reversed $39 $-1 #
edge $40 -1 $-1 $41 -0.7853981633974505 $42 0.78539816339744617 $14 $43 forward @7 unknown #
DXID-attrib $-1 -1 $-1 $16 $11 @18 ASM_FACE_FROM_STEP @16 step-1M-587-8602 #
truecolor-adesk-attrib $-1 -1 $44 $-1 $17 -1024534343 #
face $45 -1 $-1 $46 $47 $3 $-1 $48 forward single #
loop $-1 -1 $-1 $-1 $49 $17 #
cone-surface $-1 -1 $-1 1525.5403644915268 1651.6996907125781 -1.8189894035458565e-12 -1.1100563497664416e-15 6.1232339957368314e-17 1 4.2899978183594385 -4.681711088744291 5.0488114437222471e-15 1 I I 0 1 6.3499999999999988 forward I I I I #
coedge $-1 -1 $-1 $50 $51 $34 $52 reversed $18 $-1 #
coedge $-1 -1 $-1 $53 $20 $51 $54 reversed $12 $-1 #
coedge $-1 -1 $-1 $20 $53 $37 $55 reversed $12 $-1 #
edge $56 -1 $-1 $57 0 $41 1.9049999999999931 $22 $58 forward @7 unknown #
coedge $-1 -1 $-1 $22 $21 $30 $52 forward $7 $-1 #
coedge $-1 -1 $-1 $59 $60 $21 $36 reversed $61 $-1 #
edge $62 -1 $-1 $42 -1.9049999999999931 $63 0 $21 $64 forward @7 unknown #
coedge $-1 -1 $-1 $65 $23 $32 $55 forward $39 $-1 #
coedge $-1 -1 $-1 $23 $66 $59 $67 forward $39 $-1 #
loop $-1 -1 $-1 $-1 $23 $68 #
truecolor-adesk-attrib $-1 -1 $69 $-1 $24 -1024534343 #
vertex $-1 -1 $-1 $24 $70 #
vertex $-1 -1 $-1 $24 $71 #
ellipse-curve $-1 -1 $-1 1481.0903644915265 1600.3198817307887 19.049999999998136 1.1100563497664416e-15 -6.1232339957368314e-17 -1 4.4901280605345635 -4.4901280605345884 5.2592362127156416e-15 1 F -0.7853981633974505 F 0.78539816339744617 #
DXID-attrib $-1 -1 $-1 $26 $17 @18 ASM_FACE_FROM_STEP @16 step-1M-587-8603 #
truecolor-adesk-attrib $-1 -1 $72 $-1 $27 -1024534343 #
face $73 -1 $-1 $74 $75 $3 $-1 $76 forward single #
loop $-1 -1 $-1 $-1 $77 $27 #
plane-surface $-1 -1 $-1 1531.8903644915267 1644.7698817307887 -1.8189894035458565e-12 1 -6.9261636490617748e-16 1.1100563497664416e-15 1.7592455668616911e-14 25.399999999999995 -1.5553014349171355e-15 forward_v I I I I #
coedge $-1 -1 $-1 $78 $79 $80 $81 forward $28 $-1 #
coedge $-1 -1 $-1 $82 $30 $60 $83 forward $18 $-1 #
coedge $-1 -1 $-1 $30 $84 $31 $54 forward $18 $-1 #
edge $85 -1 $-1 $63 -0.78539816339744617 $57 0.7853981633974505 $34 $86 forward @7 unknown #
coedge $-1 -1 $-1 $32 $31 $87 $88 forward $12 $-1 #
edge $89 -1 $-1 $90 0 $57 4.1409062111938706 $31 $91 forward @7 unknown #
edge $92 -1 $-1 $41 -4.1409062111938706 $93 0 $32 $94 forward @7 unknown #
truecolor-adesk-attrib $-1 -1 $95 $-1 $33 -1024534343 #
vertex $-1 -1 $-1 $52 $96 #
straight-curve $-1 -1 $-1 1487.4403644915265 1600.3198817307887 -1.8189894035458565e-12 -1.1100563497664419e-14 6.1232339957368333e-16 10.000000000000004 F 0 F 1.9049999999999931 #
coedge $-1 -1 $-1 $97 $35 $38 $67 reversed $61 $-1 #
coedge $-1 -1 $-1 $35 $97 $50 $83 reversed $61 $-1 #
loop $-1 -1 $-1 $-1 $35 $98 #
truecolor-adesk-attrib $-1 -1 $99 $-1 $36 -1024534343 #
vertex $-1 -1 $-1 $36 $100 #
straight-curve $-1 -1 $-1 1481.0903644915265 1593.9698817307885 -1.8189894035458565e-12 1.1100563497664419e-14 -6.1232339957368333e-16 -10.000000000000004 F -1.9049999999999931 F 0 #
coedge $-1 -1 $-1 $101 $37 $102 $103 forward $39 $-1 #
coedge $-1 -1 $-1 $38 $104 $105 $106 reversed $39 $-1 #
edge $107 -1 $-1 $108 -5.0799999999999956 $42 -0.63499999999999768 $59 $109 forward @7 unknown #
face $110 -1 $-1 $-1 $39 $3 $-1 $111 forward single #
DXID-attrib $-1 -1 $-1 $40 $24 @18 ASM_EDGE_FROM_STEP @4 5545 #
point $-1 -1 $-1 1487.4403644915265 1600.3198817307887 19.049999999998136 #
point $-1 -1 $-1 1481.0903644915265 1593.9698817307885 19.049999999998136 #
DXID-attrib $-1 -1 $-1 $45 $27 @18 ASM_FACE_FROM_STEP @16 step-1M-587-8604 #
truecolor-adesk-attrib $-1 -1 $112 $-1 $46 -1024534343 #
face $113 -1 $-1 $114 $115 $3 $-1 $116 forward single #
loop $-1 -1 $-1 $-1 $117 $46 #
cone-surface $-1 -1 $-1 1525.5403644915268 1663.8198817307884 -1.8189894035458565e-12 -1.1100563497664416e-15 6.1232339957368314e-17 1 4.4901280605345688 4.4901280605345821 4.7093541170061024e-15 1 I I 0 1 6.3499999999999988 forward I I I I #
coedge $-1 -1 $-1 $118 $119 $79 $120 reversed $47 $-1 #
coedge $-1 -1 $-1 $121 $49 $122 $123 forward $28 $-1 #
coedge $-1 -1 $-1 $49 $121 $77 $120 forward $28 $-1 #
coedge $-1 -1 $-1 $124 $101 $49 $81 reversed $39 $-1 #
edge $125 -1 $-1 $126 -0.82903139469730669 $127 0.82903139469727505 $49 $128 forward @7 unknown #
coedge $-1 -1 $-1 $129 $50 $130 $131 reversed $18 $-1 #
edge $132 -1 $-1 $63 0.63499999999999768 $133 5.0799999999999956 $50 $134 forward @7 unknown #
coedge $-1 -1 $-1 $51 $135 $136 $137 forward $18 $-1 #
truecolor-adesk-attrib $-1 -1 $138 $-1 $52 -1024534343 #
ellipse-curve $-1 -1 $-1 1481.0903644915265 1600.3198817307887 -1.8189894035458565e-12 -1.1100563497664416e-15 6.1232339957368314e-17 1 4.4901280605345635 -4.4901280605345884 5.2592362127156416e-15 1 F -0.78539816339744617 F 0.7853981633974505 #
coedge $-1 -1 $-1 $136 $102 $53 $88 reversed $139 $-1 #
edge $140 -1 $-1 $90 0 $93 1.9049999999999931 $53 $141 forward @7 unknown #
truecolor-adesk-attrib $-1 -1 $142 $-1 $54 -1024534343 #
vertex $-1 -1 $-1 $54 $143 #
straight-curve $-1 -1 $-1 1487.4403644915265 1641.7289438427274 -1.8189894035458565e-12 -1.4364989961173322e-14 -10.000000000000004 6.1232339957366736e-16 F 0 F 4.1409062111938706 #
truecolor-adesk-attrib $-1 -1 $144 $-1 $55 -1024534343 #
vertex $-1 -1 $-1 $88 $145 #
straight-curve $-1 -1 $-1 1487.4403644915265 1641.7289438427274 19.049999999998136 1.4364989961173322e-14 10.000000000000004 -6.1232339957366736e-16 F -4.1409062111938706 F 0 #
DXID-attrib $-1 -1 $-1 $56 $33 @18 ASM_EDGE_FROM_STEP @4 5548 #
point $-1 -1 $-1 1487.4403644915265 1600.3198817307887 -1.8189894035458565e-12 #
coedge $-1 -1 $-1 $60 $59 $146 $147 reversed $61 $-1 #
face $148 -1 $-1 $149 $61 $3 $-1 $150 forward single #
DXID-attrib $-1 -1 $-1 $62 $36 @18 ASM_EDGE_FROM_STEP @4 5546 #
point $-1 -1 $-1 1481.0903644915265 1593.9698817307885 -1.8189894035458565e-12 #
coedge $-1 -1 $-1 $80 $65 $151 $152 forward $39 $-1 #
coedge $-1 -1 $-1 $87 $153 $65 $103 reversed $139 $-1 #
edge $154 -1 $-1 $93 -1.6580627893946125 $155 -5.3157029621599588e-14 $102 $156 forward @7 unknown #
coedge $-1 -1 $-1 $66 $157 $158 $159 forward $39 $-1 #
coedge $-1 -1 $-1 $160 $146 $66 $106 forward $161 $-1 #
edge $162 -1 $-1 $108 -0.7853981633974475 $163 0.78539816339744906 $105 $164 forward @7 unknown #
truecolor-adesk-attrib $-1 -1 $165 $-1 $67 -1024534343 #
vertex $-1 -1 $-1 $106 $166 #
straight-curve $-1 -1 $-1 1487.4403644915265 1593.9698817307885 19.049999999998136 10.000000000000004 7.0608980784993061e-15 1.1100563497664417e-14 F -5.0799999999999956 F -0.63499999999999768 #
truecolor-adesk-attrib $-1 -1 $167 $-1 $68 -1024534343 #
plane-surface $-1 -1 $-1 1458.8653644915266 1632.0698817307887 19.049999999998022 -1.1100563497664416e-15 6.1232339957368314e-17 1 -1.7592455668616911e-14 -25.399999999999995 1.5553014349171355e-15 forward_v I I I I #
DXID-attrib $-1 -1 $-1 $73 $46 @18 ASM_FACE_FROM_STEP @16 step-1M-587-8605 #
truecolor-adesk-attrib $-1 -1 $168 $-1 $74 -1024534343 #
face $169 -1 $-1 $170 $171 $3 $-1 $172 forward single #
loop $-1 -1 $-1 $-1 $173 $74 #
plane-surface $-1 -1 $-1 1531.8903644915267 1670.1698817307886 -1.8189894035458565e-12 6.9261636490617768e-16 1 -6.1232339957367549e-17 -25.399999999999995 1.7592455668616908e-14 -2.8195431284067611e-14 forward_v I I I I #
coedge $-1 -1 $-1 $174 $175 $176 $177 forward $75 $-1 #
coedge $-1 -1 $-1 $178 $77 $179 $180 reversed $47 $-1 #
coedge $-1 -1 $-1 $77 $178 $124 $181 reversed $47 $-1 #
edge $182 -1 $-1 $183 0 $126 1.9049999999999931 $79 $184 forward @7 unknown #
coedge $-1 -1 $-1 $79 $78 $185 $186 forward $28 $-1 #
coedge $-1 -1 $-1 $151 $187 $78 $123 reversed $188 $-1 #
edge $189 -1 $-1 $127 -1.9049999999999931 $190 0 $78 $191 forward @7 unknown #
coedge $-1 -1 $-1 $176 $80 $119 $181 forward $39 $-1 #
truecolor-adesk-attrib $-1 -1 $192 $-1 $81 -1024534343 #
vertex $-1 -1 $-1 $81 $193 #
vertex $-1 -1 $-1 $81 $194 #
ellipse-curve $-1 -1 $-1 1525.5403644915268 1651.6996907125781 19.049999999998136 1.1100563497664416e-15 -6.1232339957368314e-17 -1 4.2899978183594385 -4.681711088744291 5.0488114437222471e-15 1 F -0.82903139469730669 F 0.82903139469727505 #
coedge $-1 -1 $-1 $195 $82 $196 $197 forward $18 $-1 #
coedge $-1 -1 $-1 $146 $160 $82 $131 forward $161 $-1 #
edge $198 -1 $-1 $199 -0.78539816339744906 $133 0.7853981633974475 $82 $200 forward @7 unknown #
truecolor-adesk-attrib $-1 -1 $201 $-1 $83 -1024534343 #
vertex $-1 -1 $-1 $83 $202 #
straight-curve $-1 -1 $-1 1487.4403644915265 1593.9698817307885 -1.8189894035458565e-12 -10.000000000000004 -7.0608980784993061e-15 -1.1100563497664417e-14 F 0.63499999999999768 F 5.0799999999999956 #
coedge $-1 -1 $-1 $84 $185 $187 $203 forward $18 $-1 #
coedge $-1 -1 $-1 $153 $87 $84 $137 reversed $139 $-1 #
edge $204 -1 $-1 $205 5.3157029621599588e-14 $90 1.6580627893946125 $84 $206 forward @7 unknown #
DXID-attrib $-1 -1 $-1 $85 $52 @18 ASM_EDGE_FROM_STEP @4 5547 #
loop $-1 -1 $-1 $-1 $136 $207 #
truecolor-adesk-attrib $-1 -1 $208 $-1 $88 -1024534343 #
straight-curve $-1 -1 $-1 1487.4403644915265 1641.7289438427274 -1.8189894035458565e-12 -1.1100563497664419e-14 6.1232339957368333e-16 10.000000000000004 F 0 F 1.9049999999999931 #
DXID-attrib $-1 -1 $-1 $89 $54 @18 ASM_EDGE_FROM_STEP @4 5549 #
point $-1 -1 $-1 1487.4403644915265 1641.7289438427274 -1.8189894035458565e-12 #
DXID-attrib $-1 -1 $-1 $92 $55 @18 ASM_EDGE_FROM_STEP @4 5551 #
point $-1 -1 $-1 1487.4403644915265 1641.7289438427274 19.049999999998136 #
coedge $-1 -1 $-1 $105 $130 $97 $147 forward $161 $-1 #
edge $209 -1 $-1 $133 0 $108 1.9049999999999931 $146 $210 forward @7 unknown #
truecolor-adesk-attrib $-1 -1 $211 $-1 $98 -1024534343 #
face $212 -1 $-1 $68 $213 $3 $-1 $214 reversed single #
plane-surface $-1 -1 $-1 1430.2903644915268 1593.9698817307885 -1.8189894035458565e-12 7.0608980784993025e-16 -1 6.1232339957369102e-17 25.399999999999995 1.7934681119388228e-14 2.8195431284067605e-14 forward_v I I I I #
coedge $-1 -1 $-1 $215 $122 $101 $152 reversed $188 $-1 #
edge $216 -1 $-1 $155 -3.7689982797012274 $127 -0.69298089817894759 $151 $217 forward @7 unknown #
coedge $-1 -1 $-1 $102 $136 $215 $218 forward $139 $-1 #
truecolor-adesk-attrib $-1 -1 $219 $-1 $103 -1024534343 #
vertex $-1 -1 $-1 $152 $220 #
ellipse-curve $-1 -1 $-1 1493.7903644915268 1641.7289438427274 19.049999999998136 1.1100563497664416e-15 -6.1232339957368314e-17 -1 0.55343896644762991 6.3258363328825826 2.2700267806362963e-16 1 F -1.6580627893946125 F -5.3157029621599588e-14 #
coedge $-1 -1 $-1 $104 $221 $222 $223 forward $39 $-1 #
coedge $-1 -1 $-1 $224 $225 $104 $159 reversed $226 $-1 #
edge $227 -1 $-1 $228 -4.7759062111938722 $163 -0.63500000000000123 $158 $229 forward @7 unknown #
coedge $-1 -1 $-1 $130 $105 $225 $230 forward $161 $-1 #
loop $-1 -1 $-1 $-1 $105 $231 #
truecolor-adesk-attrib $-1 -1 $232 $-1 $106 -1024534343 #
vertex $-1 -1 $-1 $106 $233 #
ellipse-curve $-1 -1 $-1 1436.6403644915267 1600.3198817307887 19.049999999998022 1.1100563497664416e-15 -6.1232339957368314e-17 -1 -4.4901280605345759 -4.4901280605345768 -4.7093541170061103e-15 1 F -0.7853981633974475 F 0.78539816339744906 #
DXID-attrib $-1 -1 $-1 $107 $67 @18 ASM_EDGE_FROM_STEP @4 5609 #
point $-1 -1 $-1 1436.6403644915267 1593.9698817307885 19.049999999998022 #
DXID-attrib $-1 -1 $-1 $110 $68 @18 ASM_FACE_FROM_STEP @16 step-1M-587-8623 #
DXID-attrib $-1 -1 $-1 $113 $74 @18 ASM_FACE_FROM_STEP @16 step-1M-587-8606 #
truecolor-adesk-attrib $-1 -1 $234 $-1 $114 -1024534343 #
face $235 -1 $-1 $236 $237 $3 $-1 $238 forward single #
loop $-1 -1 $-1 $-1 $239 $114 #
cone-surface $-1 -1 $-1 1474.7403644915266 1663.8198817307887 -1.8189894035458565e-12 -1.1100563497664416e-15 6.1232339957368314e-17 1 -4.4901280605345768 4.4901280605345759 -5.2592362127156558e-15 1 I I 0 1 6.3499999999999988 forward I I I I #
coedge $-1 -1 $-1 $240 $241 $175 $242 reversed $115 $-1 #
coedge $-1 -1 $-1 $243 $117 $178 $244 forward $75 $-1 #
coedge $-1 -1 $-1 $117 $243 $173 $242 forward $75 $-1 #
coedge $-1 -1 $-1 $245 $124 $117 $177 reversed $39 $-1 #
edge $246 -1 $-1 $247 -0.78539816339744617 $248 0.78539816339745039 $117 $249 forward @7 unknown #
coedge $-1 -1 $-1 $119 $118 $174 $244 reversed $47 $-1 #
coedge $-1 -1 $-1 $185 $250 $118 $180 forward $18 $-1 #
edge $251 -1 $-1 $252 0.63499999999999768 $183 1.8470191018210533 $179 $253 forward @7 unknown #
edge $254 -1 $-1 $126 -1.8470191018210533 $248 -0.63499999999999768 $119 $255 forward @7 unknown #
truecolor-adesk-attrib $-1 -1 $256 $-1 $120 -1024534343 #
vertex $-1 -1 $-1 $180 $257 #
straight-curve $-1 -1 $-1 1531.8903644915267 1651.6996907125781 -1.8189894035458565e-12 -1.1100563497664419e-14 6.1232339957368333e-16 10.000000000000004 F 0 F 1.9049999999999931 #
coedge $-1 -1 $-1 $135 $179 $121 $186 reversed $18 $-1 #
edge $258 -1 $-1 $190 -0.82903139469727505 $183 0.82903139469730669 $185 $259 forward @7 unknown #
coedge $-1 -1 $-1 $122 $215 $135 $203 reversed $188 $-1 #
loop $-1 -1 $-1 $-1 $122 $260 #
truecolor-adesk-attrib $-1 -1 $261 $-1 $123 -1024534343 #
vertex $-1 -1 $-1 $186 $262 #
straight-curve $-1 -1 $-1 1524.9869255250794 1645.3738543796962 -1.8189894035458565e-12 1.1100563497664419e-14 -6.1232339957368333e-16 -10.000000000000004 F -1.9049999999999931 F 0 #
DXID-attrib $-1 -1 $-1 $125 $81 @18 ASM_EDGE_FROM_STEP @4 5572 #
point $-1 -1 $-1 1531.8903644915267 1651.6996907125781 19.049999999998136 #
point $-1 -1 $-1 1524.9869255250794 1645.3738543796962 19.049999999998136 #
coedge $-1 -1 $-1 $263 $129 $264 $265 forward $18 $-1 #
coedge $-1 -1 $-1 $225 $224 $129 $197 reversed $226 $-1 #
edge $266 -1 $-1 $199 0.63500000000000123 $267 4.7759062111938722 $129 $268 forward @7 unknown #
truecolor-adesk-attrib $-1 -1 $269 $-1 $131 -1024534343 #
vertex $-1 -1 $-1 $131 $270 #
ellipse-curve $-1 -1 $-1 1436.6403644915267 1600.3198817307887 -1.8189894035458565e-12 -1.1100563497664416e-15 6.1232339957368314e-17 1 -4.4901280605345759 -4.4901280605345768 -4.7093541170061103e-15 1 F -0.78539816339744906 F 0.7853981633974475 #
DXID-attrib $-1 -1 $-1 $132 $83 @18 ASM_EDGE_FROM_STEP @4 5552 #
point $-1 -1 $-1 1436.6403644915267 1593.9698817307885 -1.8189894035458565e-12 #
edge $271 -1 $-1 $190 0.69298089817894759 $205 3.7689982797012274 $135 $272 forward @7 unknown #
truecolor-adesk-attrib $-1 -1 $273 $-1 $137 -1024534343 #
vertex $-1 -1 $-1 $203 $274 #
ellipse-curve $-1 -1 $-1 1493.7903644915268 1641.7289438427274 -1.8189894035458565e-12 -1.1100563497664416e-15 6.1232339957368314e-17 1 0.55343896644762991 6.3258363328825826 2.2700267806362963e-16 1 F 5.3157029621599588e-14 F 1.6580627893946125 #
face $275 -1 $-1 $98 $139 $3 $-1 $276 reversed single #
DXID-attrib $-1 -1 $-1 $140 $88 @18 ASM_EDGE_FROM_STEP @4 5550 #
truecolor-adesk-attrib $-1 -1 $277 $-1 $147 -1024534343 #
straight-curve $-1 -1 $-1 1436.6403644915267 1593.9698817307885 -1.8189894035458565e-12 -1.1100563497664419e-14 6.1232339957368333e-16 10.000000000000004 F 0 F 1.9049999999999931 #
DXID-attrib $-1 -1 $-1 $148 $98 @18 ASM_FACE_FROM_STEP @16 step-1M-587-8621 #
truecolor-adesk-attrib $-1 -1 $278 $-1 $149 -1024534343 #
loop $-1 -1 $-1 $-1 $264 $149 #
cone-surface $-1 -1 $-1 1423.9403644915267 1641.7289438427274 -1.8189894035458565e-12 -1.1100563497664416e-15 6.1232339957368314e-17 1 6.349999999999973 -8.8390060156548271e-15 7.0488578210168752e-15 1 I I 0 1 6.349999999999973 forward I I I I #
coedge $-1 -1 $-1 $187 $151 $153 $218 reversed $188 $-1 #
truecolor-adesk-attrib $-1 -1 $279 $-1 $152 -1024534343 #
straight-curve $-1 -1 $-1 1531.8903644915267 1644.7698817307887 19.049999999998136 9.9619469809174621 -0.8715574274765896 1.1111690002895676e-14 F -3.7689982797012274 F -0.69298089817894759 #
edge $280 -1 $-1 $205 0 $155 1.9049999999999931 $215 $281 forward @7 unknown #
DXID-attrib $-1 -1 $-1 $154 $103 @18 ASM_EDGE_FROM_STEP @4 5608 #
point $-1 -1 $-1 1494.343803457974 1648.054780175609 19.049999999998136 #
coedge $-1 -1 $-1 $157 $282 $283 $284 forward $39 $-1 #
coedge $-1 -1 $-1 $285 $286 $157 $223 reversed $213 $-1 #
edge $287 -1 $-1 $288 -1.6580627893945714 $228 -7.8149313174489103e-16 $222 $289 forward @7 unknown #
coedge $-1 -1 $-1 $196 $158 $286 $290 reversed $226 $-1 #
coedge $-1 -1 $-1 $158 $196 $160 $230 reversed $226 $-1 #
loop $-1 -1 $-1 $-1 $225 $291 #
truecolor-adesk-attrib $-1 -1 $292 $-1 $159 -1024534343 #
vertex $-1 -1 $-1 $159 $293 #
straight-curve $-1 -1 $-1 1430.2903644915268 1593.9698817307885 19.049999999998022 -5.066457071033891e-15 -10.000000000000004 6.1232339957367771e-16 F -4.7759062111938722 F -0.63500000000000123 #
edge $294 -1 $-1 $163 -1.9049999999999931 $199 0 $160 $295 forward @7 unknown #
face $296 -1 $-1 $291 $161 $3 $-1 $297 forward single #
DXID-attrib $-1 -1 $-1 $162 $106 @18 ASM_EDGE_FROM_STEP @4 5598 #
point $-1 -1 $-1 1430.2903644915268 1600.3198817307887 19.049999999998022 #
DXID-attrib $-1 -1 $-1 $169 $114 @18 ASM_FACE_FROM_STEP @16 step-1M-587-8607 #
truecolor-adesk-attrib $-1 -1 $298 $-1 $170 -1024534343 #
face $299 -1 $-1 $300 $301 $3 $-1 $302 forward single #
loop $-1 -1 $-1 $-1 $303 $170 #
plane-surface $-1 -1 $-1 1468.3903644915267 1670.1698817307886 -1.8189894035458565e-12 -1 6.9261636490617748e-16 -1.1100563497664416e-15 -1.7592455668616911e-14 -25.399999999999995 1.5553014349171355e-15 forward_v I I I I #
coedge $-1 -1 $-1 $304 $305 $306 $307 forward $171 $-1 #
coedge $-1 -1 $-1 $308 $173 $309 $310 reversed $115 $-1 #
coedge $-1 -1 $-1 $173 $308 $245 $311 reversed $115 $-1 #
edge $312 -1 $-1 $313 0 $247 1.9049999999999931 $175 $314 forward @7 unknown #
coedge $-1 -1 $-1 $175 $174 $250 $315 forward $75 $-1 #
edge $316 -1 $-1 $248 -1.9049999999999931 $252 0 $178 $317 forward @7 unknown #
coedge $-1 -1 $-1 $306 $176 $241 $311 forward $39 $-1 #
truecolor-adesk-attrib $-1 -1 $318 $-1 $177 -1024534343 #
vertex $-1 -1 $-1 $177 $319 #
vertex $-1 -1 $-1 $244 $320 #
ellipse-curve $-1 -1 $-1 1525.5403644915268 1663.8198817307884 19.049999999998136 1.1100563497664416e-15 -6.1232339957368314e-17 -1 4.4901280605345688 4.4901280605345821 4.7093541170061024e-15 1 F -0.78539816339744617 F 0.78539816339745039 #
coedge $-1 -1 $-1 $179 $309 $243 $315 reversed $18 $-1 #
truecolor-adesk-attrib $-1 -1 $321 $-1 $180 -1024534343 #
vertex $-1 -1 $-1 $315 $322 #
straight-curve $-1 -1 $-1 1531.8903644915267 1670.1698817307886 -1.8189894035458565e-12 -6.9261636490617784e-15 -10.000000000000004 6.1232339957367554e-16 F 0.63499999999999768 F 1.8470191018210533 #
truecolor-adesk-attrib $-1 -1 $323 $-1 $181 -1024534343 #
straight-curve $-1 -1 $-1 1531.8903644915267 1670.1698817307886 19.049999999998136 6.9261636490617784e-15 10.000000000000004 -6.1232339957367554e-16 F -1.8470191018210533 F -0.63499999999999768 #
DXID-attrib $-1 -1 $-1 $182 $120 @18 ASM_EDGE_FROM_STEP @4 5574 #
point $-1 -1 $-1 1531.8903644915267 1651.6996907125781 -1.8189894035458565e-12 #
truecolor-adesk-attrib $-1 -1 $324 $-1 $186 -1024534343 #
ellipse-curve $-1 -1 $-1 1525.5403644915268 1651.6996907125781 -1.8189894035458565e-12 -1.1100563497664416e-15 6.1232339957368314e-17 1 4.2899978183594385 -4.681711088744291 5.0488114437222471e-15 1 F -0.82903139469727505 F 0.82903139469730669 #
face $325 -1 $-1 $207 $188 $3 $-1 $326 forward single #
DXID-attrib $-1 -1 $-1 $189 $123 @18 ASM_EDGE_FROM_STEP @4 5573 #
point $-1 -1 $-1 1524.9869255250794 1645.3738543796962 -1.8189894035458565e-12 #
coedge $-1 -1 $-1 $327 $195 $328 $329 reversed $18 $-1 #
coedge $-1 -1 $-1 $286 $285 $195 $265 reversed $213 $-1 #
edge $330 -1 $-1 $267 7.8149313174489103e-16 $331 1.6580627893945714 $195 $332 forward @7 unknown #
truecolor-adesk-attrib $-1 -1 $333 $-1 $197 -1024534343 #
vertex $-1 -1 $-1 $197 $334 #
straight-curve $-1 -1 $-1 1430.2903644915268 1593.9698817307885 -1.8189894035458565e-12 5.066457071033891e-15 10.000000000000004 -6.1232339957367771e-16 F 0.63500000000000123 F 4.7759062111938722 #
DXID-attrib $-1 -1 $-1 $198 $131 @18 ASM_EDGE_FROM_STEP @4 5553 #
point $-1 -1 $-1 1430.2903644915268 1600.3198817307887 -1.8189894035458565e-12 #
truecolor-adesk-attrib $-1 -1 $335 $-1 $203 -1024534343 #
straight-curve $-1 -1 $-1 1531.8903644915267 1644.7698817307887 -1.8189894035458565e-12 -9.9619469809174621 0.8715574274765896 -1.1111690002895676e-14 F 0.69298089817894759 F 3.7689982797012274 #
DXID-attrib $-1 -1 $-1 $204 $137 @18 ASM_EDGE_FROM_STEP @4 5571 #
point $-1 -1 $-1 1494.343803457974 1648.054780175609 -1.8189894035458565e-12 #
truecolor-adesk-attrib $-1 -1 $336 $-1 $207 -1024534343 #
cone-surface $-1 -1 $-1 1493.7903644915268 1641.7289438427274 -1.8189894035458565e-12 -1.1100563497664416e-15 6.1232339957368314e-17 1 0.55343896644762991 6.3258363328825826 2.2700267806362963e-16 1 I I 0 1 6.3499999999999988 forward I I I I #
DXID-attrib $-1 -1 $-1 $209 $147 @18 ASM_EDGE_FROM_STEP @4 5600 #
DXID-attrib $-1 -1 $-1 $212 $149 @18 ASM_FACE_FROM_STEP @16 step-1M-587-8622 #
DXID-attrib $-1 -1 $-1 $216 $152 @18 ASM_EDGE_FROM_STEP @4 5606 #
truecolor-adesk-attrib $-1 -1 $337 $-1 $218 -1024534343 #
straight-curve $-1 -1 $-1 1494.343803457974 1648.054780175609 -1.8189894035458565e-12 -1.1100563497664419e-14 6.1232339957368333e-16 10.000000000000004 F 0 F 1.9049999999999931 #
coedge $-1 -1 $-1 $221 $338 $339 $340 reversed $39 $-1 #
coedge $-1 -1 $-1 $341 $342 $221 $284 reversed $343 $-1 #
edge $344 -1 $-1 $345 0.6929808981789547 $288 3.7689982797012274 $283 $346 forward @7 unknown #
coedge $-1 -1 $-1 $264 $222 $342 $347 reversed $213 $-1 #
coedge $-1 -1 $-1 $222 $264 $224 $290 forward $213 $-1 #
truecolor-adesk-attrib $-1 -1 $348 $-1 $223 -1024534343 #
vertex $-1 -1 $-1 $347 $349 #
ellipse-curve $-1 -1 $-1 1423.9403644915267 1641.7289438427274 19.049999999998022 1.1100563497664416e-15 -6.1232339957368314e-17 -1 6.349999999999973 -8.8390060156548271e-15 7.0488578210168752e-15 1 F -1.6580627893945714 F -7.8149313174489103e-16 #
edge $350 -1 $-1 $267 0 $228 1.9049999999999931 $224 $351 forward @7 unknown #
face $352 -1 $-1 $353 $226 $3 $-1 $354 forward single #
DXID-attrib $-1 -1 $-1 $227 $159 @18 ASM_EDGE_FROM_STEP @4 5601 #
point $-1 -1 $-1 1430.2903644915268 1641.7289438427274 19.049999999998022 #
truecolor-adesk-attrib $-1 -1 $355 $-1 $230 -1024534343 #
straight-curve $-1 -1 $-1 1430.2903644915268 1600.3198817307887 -1.8189894035458565e-12 1.1100563497664419e-14 -6.1232339957368333e-16 -10.000000000000004 F -1.9049999999999931 F 0 #
truecolor-adesk-attrib $-1 -1 $356 $-1 $231 -1024534343 #
cone-surface $-1 -1 $-1 1436.6403644915267 1600.3198817307887 -1.8189894035458565e-12 -1.1100563497664416e-15 6.1232339957368314e-17 1 -4.4901280605345759 -4.4901280605345768 -4.7093541170061103e-15 1 I I 0 1 6.3499999999999988 forward I I I I #
DXID-attrib $-1 -1 $-1 $235 $170 @18 ASM_FACE_FROM_STEP @16 step-1M-587-8608 #
truecolor-adesk-attrib $-1 -1 $357 $-1 $236 -1024534343 #
face $358 -1 $-1 $359 $360 $3 $-1 $361 forward single #
loop $-1 -1 $-1 $-1 $362 $236 #
cone-surface $-1 -1 $-1 1442.9903644915266 1663.8198817307887 -1.8189894035458565e-12 -1.1100563497664416e-15 6.1232339957368314e-17 1 4.4901280605345821 4.4901280605345697 4.709354117006119e-15 1 I I 0 1 6.3499999999999988 forward I I I I #
coedge $-1 -1 $-1 $363 $364 $305 $365 reversed $237 $-1 #
coedge $-1 -1 $-1 $366 $239 $308 $367 forward $171 $-1 #
coedge $-1 -1 $-1 $239 $366 $303 $365 forward $171 $-1 #
coedge $-1 -1 $-1 $368 $245 $239 $307 reversed $39 $-1 #
edge $369 -1 $-1 $370 -0.7853981633974475 $371 0.78539816339744906 $239 $372 forward @7 unknown #
coedge $-1 -1 $-1 $241 $240 $304 $367 reversed $115 $-1 #
coedge $-1 -1 $-1 $250 $373 $240 $310 forward $18 $-1 #
edge $374 -1 $-1 $375 0.63499999999999768 $313 5.7150000000000007 $309 $376 forward @7 unknown #
edge $377 -1 $-1 $247 -5.7150000000000007 $371 -0.63499999999999768 $241 $378 forward @7 unknown #
truecolor-adesk-attrib $-1 -1 $379 $-1 $242 -1024534343 #
vertex $-1 -1 $-1 $310 $380 #
straight-curve $-1 -1 $-1 1525.5403644915268 1670.1698817307886 -1.8189894035458565e-12 -1.1100563497664419e-14 6.1232339957368333e-16 10.000000000000004 F 0 F 1.9049999999999931 #
edge $381 -1 $-1 $252 -0.78539816339745039 $313 0.78539816339744617 $250 $382 forward @7 unknown #
truecolor-adesk-attrib $-1 -1 $383 $-1 $244 -1024534343 #
straight-curve $-1 -1 $-1 1531.8903644915267 1663.8198817307884 -1.8189894035458565e-12 1.1100563497664419e-14 -6.1232339957368333e-16 -10.000000000000004 F -1.9049999999999931 F 0 #
DXID-attrib $-1 -1 $-1 $246 $177 @18 ASM_EDGE_FROM_STEP @4 5577 #
point $-1 -1 $-1 1525.5403644915268 1670.1698817307886 19.049999999998136 #
point $-1 -1 $-1 1531.8903644915267 1663.8198817307884 19.049999999998136 #
DXID-attrib $-1 -1 $-1 $251 $180 @18 ASM_EDGE_FROM_STEP @4 5568 #
point $-1 -1 $-1 1531.8903644915267 1663.8198817307884 -1.8189894035458565e-12 #
DXID-attrib $-1 -1 $-1 $254 $181 @18 ASM_EDGE_FROM_STEP @4 5576 #
DXID-attrib $-1 -1 $-1 $258 $186 @18 ASM_EDGE_FROM_STEP @4 5569 #
truecolor-adesk-attrib $-1 -1 $384 $-1 $260 -1024534343 #
plane-surface $-1 -1 $-1 1494.343803457974 1648.054780175609 -1.8189894035458565e-12 -0.087155742747658874 -0.99619469809174555 -3.5748453238367555e-17 25.30334533153033 -2.2137558657905347 2.8223692607354992e-14 forward_v I I I I #
coedge $-1 -1 $-1 $385 $263 $386 $387 reversed $18 $-1 #
coedge $-1 -1 $-1 $342 $341 $263 $329 forward $343 $-1 #
edge $388 -1 $-1 $389 0.6929808981789547 $331 3.7689982797012274 $263 $390 forward @7 unknown #
truecolor-adesk-attrib $-1 -1 $391 $-1 $265 -1024534343 #
vertex $-1 -1 $-1 $265 $392 #
ellipse-curve $-1 -1 $-1 1423.9403644915267 1641.7289438427274 -1.8189894035458565e-12 -1.1100563497664416e-15 6.1232339957368314e-17 1 6.349999999999973 -8.8390060156548271e-15 7.0488578210168752e-15 1 F 7.8149313174489103e-16 F 1.6580627893945714 #
DXID-attrib $-1 -1 $-1 $266 $197 @18 ASM_EDGE_FROM_STEP @4 5554 #
point $-1 -1 $-1 1430.2903644915268 1641.7289438427274 -1.8189894035458565e-12 #
DXID-attrib $-1 -1 $-1 $271 $203 @18 ASM_EDGE_FROM_STEP @4 5570 #
DXID-attrib $-1 -1 $-1 $275 $207 @18 ASM_FACE_FROM_STEP @16 step-1M-587-8620 #
DXID-attrib $-1 -1 $-1 $280 $218 @18 ASM_EDGE_FROM_STEP @4 5607 #
coedge $-1 -1 $-1 $282 $393 $394 $395 forward $39 $-1 #
coedge $-1 -1 $-1 $396 $397 $282 $340 forward $398 $-1 #
edge $399 -1 $-1 $345 -0.82903139469726383 $400 0.82903139469730658 $339 $401 forward @7 unknown #
coedge $-1 -1 $-1 $328 $283 $397 $402 reversed $343 $-1 #
coedge $-1 -1 $-1 $283 $328 $285 $347 forward $343 $-1 #
loop $-1 -1 $-1 $-1 $341 $403 #
truecolor-adesk-attrib $-1 -1 $404 $-1 $284 -1024534343 #
vertex $-1 -1 $-1 $340 $405 #
straight-curve $-1 -1 $-1 1385.8403644915265 1644.7698817307887 19.049999999998022 9.9619469809174621 0.87155742747657539 1.1004955001512446e-14 F 0.6929808981789547 F 3.7689982797012274 #
edge $406 -1 $-1 $331 0 $288 1.9049999999999931 $342 $407 forward @7 unknown #
DXID-attrib $-1 -1 $-1 $287 $223 @18 ASM_EDGE_FROM_STEP @4 5610 #
point $-1 -1 $-1 1423.3869255250793 1648.054780175609 19.049999999998022 #
truecolor-adesk-attrib $-1 -1 $408 $-1 $290 -1024534343 #
straight-curve $-1 -1 $-1 1430.2903644915268 1641.7289438427274 -1.8189894035458565e-12 -1.1100563497664419e-14 6.1232339957368333e-16 10.000000000000004 F 0 F 1.9049999999999931 #
truecolor-adesk-attrib $-1 -1 $409 $-1 $291 -1024534343 #
face $410 -1 $-1 $411 $412 $3 $-1 $413 forward single #
plane-surface $-1 -1 $-1 1430.2903644915268 1641.7289438427274 -1.8189894035458565e-12 -1 5.0664570710338878e-16 -1.1100563497664416e-15 -1.2868800960426073e-14 -25.399999999999995 1.5553014349171404e-15 forward_v I I I I #
DXID-attrib $-1 -1 $-1 $294 $230 @18 ASM_EDGE_FROM_STEP @4 5599 #
DXID-attrib $-1 -1 $-1 $296 $231 @18 ASM_FACE_FROM_STEP @16 step-1M-587-8615 #
DXID-attrib $-1 -1 $-1 $299 $236 @18 ASM_FACE_FROM_STEP @16 step-1M-587-8609 #
truecolor-adesk-attrib $-1 -1 $414 $-1 $300 -1024534343 #
face $415 -1 $-1 $416 $417 $3 $-1 $418 forward single #
loop $-1 -1 $-1 $-1 $419 $300 #
plane-surface $-1 -1 $-1 1449.3403644915268 1670.1698817307886 -1.8189894035458565e-12 6.6812342892323057e-16 1 -6.1232339957367574e-17 -25.399999999999995 1.6970335094650052e-14 -2.8195431284067611e-14 forward_v I I I I #
coedge $-1 -1 $-1 $420 $421 $422 $423 forward $301 $-1 #
coedge $-1 -1 $-1 $424 $303 $425 $426 reversed $237 $-1 #
coedge $-1 -1 $-1 $303 $424 $368 $427 reversed $237 $-1 #
edge $428 -1 $-1 $429 0 $370 1.9049999999999931 $305 $430 forward @7 unknown #
coedge $-1 -1 $-1 $305 $304 $373 $431 forward $171 $-1 #
edge $432 -1 $-1 $371 -1.9049999999999931 $375 0 $308 $433 forward @7 unknown #
coedge $-1 -1 $-1 $434 $306 $364 $427 forward $39 $-1 #
truecolor-adesk-attrib $-1 -1 $435 $-1 $307 -1024534343 #
vertex $-1 -1 $-1 $307 $436 #
vertex $-1 -1 $-1 $367 $437 #
ellipse-curve $-1 -1 $-1 1474.7403644915266 1663.8198817307887 19.049999999998136 1.1100563497664416e-15 -6.1232339957368314e-17 -1 -4.4901280605345768 4.4901280605345759 -5.2592362127156558e-15 1 F -0.7853981633974475 F 0.78539816339744906 #
coedge $-1 -1 $-1 $309 $425 $366 $431 reversed $18 $-1 #
truecolor-adesk-attrib $-1 -1 $438 $-1 $310 -1024534343 #
vertex $-1 -1 $-1 $431 $439 #
straight-curve $-1 -1 $-1 1468.3903644915267 1670.1698817307886 -1.8189894035458565e-12 10.000000000000004 -6.9261636490617784e-15 1.1100563497664419e-14 F 0.63499999999999768 F 5.7150000000000007 #
truecolor-adesk-attrib $-1 -1 $440 $-1 $311 -1024534343 #
straight-curve $-1 -1 $-1 1468.3903644915267 1670.1698817307886 19.049999999998136 -10.000000000000004 6.9261636490617784e-15 -1.1100563497664419e-14 F -5.7150000000000007 F -0.63499999999999768 #
DXID-attrib $-1 -1 $-1 $312 $242 @18 ASM_EDGE_FROM_STEP @4 5578 #
point $-1 -1 $-1 1525.5403644915268 1670.1698817307886 -1.8189894035458565e-12 #
truecolor-adesk-attrib $-1 -1 $441 $-1 $315 -1024534343 #
ellipse-curve $-1 -1 $-1 1525.5403644915268 1663.8198817307884 -1.8189894035458565e-12 -1.1100563497664416e-15 6.1232339957368314e-17 1 4.4901280605345688 4.4901280605345821 4.7093541170061024e-15 1 F -0.78539816339745039 F 0.78539816339744617 #
DXID-attrib $-1 -1 $-1 $316 $244 @18 ASM_EDGE_FROM_STEP @4 5575 #
DXID-attrib $-1 -1 $-1 $325 $260 @18 ASM_FACE_FROM_STEP @16 step-1M-587-8619 #
coedge $-1 -1 $-1 $442 $327 $443 $444 reversed $18 $-1 #
coedge $-1 -1 $-1 $397 $396 $327 $387 forward $398 $-1 #
edge $445 -1 $-1 $446 -0.82903139469730658 $389 0.82903139469726383 $327 $447 forward @7 unknown #
truecolor-adesk-attrib $-1 -1 $448 $-1 $329 -1024534343 #
vertex $-1 -1 $-1 $329 $449 #
straight-curve $-1 -1 $-1 1385.8403644915265 1644.7698817307887 -1.8189894035458565e-12 9.9619469809174621 0.87155742747657539 1.1004955001512446e-14 F 0.6929808981789547 F 3.7689982797012274 #
DXID-attrib $-1 -1 $-1 $330 $265 @18 ASM_EDGE_FROM_STEP @4 5555 #
point $-1 -1 $-1 1423.3869255250793 1648.054780175609 -1.8189894035458565e-12 #
coedge $-1 -1 $-1 $338 $450 $451 $452 reversed $39 $-1 #
coedge $-1 -1 $-1 $453 $454 $338 $395 reversed $455 $-1 #
edge $456 -1 $-1 $457 0.63499999999999768 $400 1.8470191018210533 $394 $458 forward @7 unknown #
coedge $-1 -1 $-1 $386 $339 $454 $459 forward $398 $-1 #
coedge $-1 -1 $-1 $339 $386 $341 $402 forward $398 $-1 #
loop $-1 -1 $-1 $-1 $339 $460 #
truecolor-adesk-attrib $-1 -1 $461 $-1 $340 -1024534343 #
vertex $-1 -1 $-1 $459 $462 #
ellipse-curve $-1 -1 $-1 1392.1903644915267 1651.6996907125781 19.049999999998022 1.1100563497664416e-15 -6.1232339957368314e-17 -1 -4.2899978183594438 -4.6817110887442848 -4.4754671937859106e-15 1 F -0.82903139469726383 F 0.82903139469730658 #
edge $463 -1 $-1 $389 0 $345 1.9049999999999931 $397 $464 forward @7 unknown #
face $465 -1 $-1 $231 $343 $3 $-1 $466 forward single #
DXID-attrib $-1 -1 $-1 $344 $284 @18 ASM_EDGE_FROM_STEP @4 5597 #
point $-1 -1 $-1 1392.7438034579741 1645.3738543796965 19.049999999998022 #
truecolor-adesk-attrib $-1 -1 $467 $-1 $347 -1024534343 #
straight-curve $-1 -1 $-1 1423.3869255250793 1648.054780175609 -1.8189894035458565e-12 -1.1100563497664419e-14 6.1232339957368333e-16 10.000000000000004 F 0 F 1.9049999999999931 #
DXID-attrib $-1 -1 $-1 $350 $290 @18 ASM_EDGE_FROM_STEP @4 5602 #
DXID-attrib $-1 -1 $-1 $352 $291 @18 ASM_FACE_FROM_STEP @16 step-1M-587-8616 #
truecolor-adesk-attrib $-1 -1 $468 $-1 $353 -1024534343 #
face $469 -1 $-1 $260 $470 $3 $-1 $471 forward single #
loop $-1 -1 $-1 $-1 $472 $353 #
plane-surface $-1 -1 $-1 1449.3403644915265 1619.3698817307886 -1.8189894035458565e-12 1 -6.9261636490617748e-16 1.1100563497664416e-15 1.7592455668616911e-14 25.399999999999995 -1.5553014349171355e-15 forward_v I I I I #
DXID-attrib $-1 -1 $-1 $358 $300 @18 ASM_FACE_FROM_STEP @16 step-1M-587-8610 #
truecolor-adesk-attrib $-1 -1 $473 $-1 $359 -1024534343 #
face $474 -1 $-1 $460 $455 $3 $-1 $475 forward single #
loop $-1 -1 $-1 $-1 $451 $359 #
cone-surface $-1 -1 $-1 1392.1903644915267 1663.8198817307887 -1.8189894035458565e-12 -1.1100563497664416e-15 6.1232339957368314e-17 1 -4.4901280605345697 4.4901280605345821 -5.2592362127156487e-15 1 I I 0 1 6.3499999999999988 forward I I I I #
coedge $-1 -1 $-1 $476 $477 $421 $478 reversed $360 $-1 #
coedge $-1 -1 $-1 $479 $362 $472 $480 forward $301 $-1 #
coedge $-1 -1 $-1 $362 $479 $419 $478 forward $301 $-1 #
coedge $-1 -1 $-1 $450 $481 $362 $423 reversed $39 $-1 #
edge $482 -1 $-1 $483 -0.78539816339744906 $484 0.7853981633974475 $362 $485 forward @7 unknown #
coedge $-1 -1 $-1 $364 $363 $486 $487 forward $237 $-1 #
coedge $-1 -1 $-1 $373 $488 $363 $426 forward $18 $-1 #
edge $489 -1 $-1 $490 0 $429 4.4449999999999985 $425 $491 forward @7 unknown #
edge $492 -1 $-1 $370 -4.4449999999999985 $493 0 $364 $494 forward @7 unknown #
truecolor-adesk-attrib $-1 -1 $495 $-1 $365 -1024534343 #
vertex $-1 -1 $-1 $426 $496 #
straight-curve $-1 -1 $-1 1468.3903644915267 1663.8198817307887 -1.8189894035458565e-12 -1.1100563497664419e-14 6.1232339957368333e-16 10.000000000000004 F 0 F 1.9049999999999931 #
edge $497 -1 $-1 $375 -0.78539816339744906 $429 0.7853981633974475 $373 $498 forward @7 unknown #
truecolor-adesk-attrib $-1 -1 $499 $-1 $367 -1024534343 #
straight-curve $-1 -1 $-1 1474.7403644915266 1670.1698817307886 -1.8189894035458565e-12 1.1100563497664419e-14 -6.1232339957368333e-16 -10.000000000000004 F -1.9049999999999931 F 0 #
coedge $-1 -1 $-1 $481 $368 $500 $501 forward $39 $-1 #
DXID-attrib $-1 -1 $-1 $369 $307 @18 ASM_EDGE_FROM_STEP @4 5581 #
point $-1 -1 $-1 1468.3903644915267 1663.8198817307887 19.049999999998136 #
point $-1 -1 $-1 1474.7403644915266 1670.1698817307886 19.049999999998136 #
DXID-attrib $-1 -1 $-1 $374 $310 @18 ASM_EDGE_FROM_STEP @4 5566 #
point $-1 -1 $-1 1474.7403644915266 1670.1698817307886 -1.8189894035458565e-12 #
DXID-attrib $-1 -1 $-1 $377 $311 @18 ASM_EDGE_FROM_STEP @4 5580 #
DXID-attrib $-1 -1 $-1 $381 $315 @18 ASM_EDGE_FROM_STEP @4 5567 #
coedge $-1 -1 $-1 $502 $385 $503 $504 reversed $18 $-1 #
coedge $-1 -1 $-1 $454 $453 $385 $444 forward $455 $-1 #
edge $505 -1 $-1 $506 0.63499999999999768 $446 1.8470191018210533 $385 $507 forward @7 unknown #
truecolor-adesk-attrib $-1 -1 $508 $-1 $387 -1024534343 #
vertex $-1 -1 $-1 $387 $509 #
ellipse-curve $-1 -1 $-1 1392.1903644915267 1651.6996907125781 -1.8189894035458565e-12 -1.1100563497664416e-15 6.1232339957368314e-17 1 -4.2899978183594438 -4.6817110887442848 -4.4754671937859106e-15 1 F -0.82903139469730658 F 0.82903139469726383 #
DXID-attrib $-1 -1 $-1 $388 $329 @18 ASM_EDGE_FROM_STEP @4 5556 #
point $-1 -1 $-1 1392.7438034579741 1645.3738543796965 -1.8189894035458565e-12 #
coedge $-1 -1 $-1 $393 $422 $477 $510 forward $39 $-1 #
coedge $-1 -1 $-1 $511 $512 $393 $452 forward $417 $-1 #
edge $513 -1 $-1 $457 -0.78539816339744906 $514 0.7853981633974475 $451 $515 forward @7 unknown #
coedge $-1 -1 $-1 $443 $394 $512 $516 reversed $455 $-1 #
coedge $-1 -1 $-1 $394 $443 $396 $459 reversed $455 $-1 #
loop $-1 -1 $-1 $-1 $453 $416 #
truecolor-adesk-attrib $-1 -1 $517 $-1 $395 -1024534343 #
vertex $-1 -1 $-1 $452 $518 #
straight-curve $-1 -1 $-1 1385.8403644915265 1670.1698817307886 19.049999999998022 -6.3138402494881011e-15 -10.000000000000004 6.1232339957367633e-16 F 0.63499999999999768 F 1.8470191018210533 #
edge $519 -1 $-1 $400 -1.9049999999999931 $446 0 $454 $520 forward @7 unknown #
face $521 -1 $-1 $403 $398 $3 $-1 $522 forward single #
DXID-attrib $-1 -1 $-1 $399 $340 @18 ASM_EDGE_FROM_STEP @4 5594 #
point $-1 -1 $-1 1385.8403644915265 1651.6996907125781 19.049999999998022 #
truecolor-adesk-attrib $-1 -1 $523 $-1 $402 -1024534343 #
straight-curve $-1 -1 $-1 1392.7438034579741 1645.3738543796965 -1.8189894035458565e-12 -1.1100563497664419e-14 6.1232339957368333e-16 10.000000000000004 F 0 F 1.9049999999999931 #
truecolor-adesk-attrib $-1 -1 $524 $-1 $403 -1024534343 #
plane-surface $-1 -1 $-1 1385.8403644915265 1644.7698817307887 -1.8189894035458565e-12 0.087155742747657444 -0.99619469809174555 1.5774711807292929e-16 25.30334533153033 2.2137558657904988 2.7952585703841587e-14 forward_v I I I I #
DXID-attrib $-1 -1 $-1 $406 $347 @18 ASM_EDGE_FROM_STEP @4 5596 #
DXID-attrib $-1 -1 $-1 $410 $353 @18 ASM_FACE_FROM_STEP @16 step-1M-587-8617 #
truecolor-adesk-attrib $-1 -1 $525 $-1 $411 -1024534343 #
loop $-1 -1 $-1 $-1 $526 $411 #
plane-surface $-1 -1 $-1 1468.3903644915267 1619.3698817307886 -1.8189894035458565e-12 6.9261636490617768e-16 1 -6.1232339957367549e-17 -25.399999999999995 1.7592455668616908e-14 -2.8195431284067611e-14 forward_v I I I I #
coedge $-1 -1 $-1 $527 $528 $420 $480 reversed $412 $-1 #
DXID-attrib $-1 -1 $-1 $415 $359 @18 ASM_FACE_FROM_STEP @16 step-1M-587-8611 #
truecolor-adesk-attrib $-1 -1 $529 $-1 $416 -1024534343 #
plane-surface $-1 -1 $-1 1385.8403644915268 1670.1698817307886 -1.8189894035458565e-12 -1 6.3138402494880981e-16 -1.1100563497664416e-15 -1.6037154233699767e-14 -25.399999999999995 1.5553014349171371e-15 forward_v I I I I #
coedge $-1 -1 $-1 $530 $419 $502 $531 reversed $360 $-1 #
coedge $-1 -1 $-1 $419 $530 $450 $510 reversed $360 $-1 #
edge $532 -1 $-1 $533 0 $483 1.9049999999999931 $421 $534 forward @7 unknown #
coedge $-1 -1 $-1 $421 $420 $535 $536 forward $301 $-1 #
edge $537 -1 $-1 $484 -1.9049999999999931 $538 0 $420 $539 forward @7 unknown #
coedge $-1 -1 $-1 $422 $434 $527 $540 forward $39 $-1 #
truecolor-adesk-attrib $-1 -1 $541 $-1 $423 -1024534343 #
vertex $-1 -1 $-1 $423 $542 #
vertex $-1 -1 $-1 $423 $543 #
ellipse-curve $-1 -1 $-1 1442.9903644915266 1663.8198817307887 19.049999999998022 1.1100563497664416e-15 -6.1232339957368314e-17 -1 4.4901280605345821 4.4901280605345697 4.709354117006119e-15 1 F -0.78539816339744906 F 0.7853981633974475 #
coedge $-1 -1 $-1 $526 $500 $424 $487 reversed $470 $-1 #
edge $544 -1 $-1 $490 0 $493 1.9049999999999931 $424 $545 forward @7 unknown #
coedge $-1 -1 $-1 $425 $546 $526 $547 forward $18 $-1 #
truecolor-adesk-attrib $-1 -1 $548 $-1 $426 -1024534343 #
vertex $-1 -1 $-1 $547 $549 #
straight-curve $-1 -1 $-1 1468.3903644915267 1619.3698817307886 -1.8189894035458565e-12 6.9261636490617784e-15 10.000000000000004 -6.1232339957367554e-16 F 0 F 4.4449999999999985 #
truecolor-adesk-attrib $-1 -1 $550 $-1 $427 -1024534343 #
vertex $-1 -1 $-1 $487 $551 #
straight-curve $-1 -1 $-1 1468.3903644915267 1619.3698817307886 19.049999999998136 -6.9261636490617784e-15 -10.000000000000004 6.1232339957367554e-16 F -4.4449999999999985 F 0 #
DXID-attrib $-1 -1 $-1 $428 $365 @18 ASM_EDGE_FROM_STEP @4 5582 #
point $-1 -1 $-1 1468.3903644915267 1663.8198817307887 -1.8189894035458565e-12 #
truecolor-adesk-attrib $-1 -1 $552 $-1 $431 -1024534343 #
ellipse-curve $-1 -1 $-1 1474.7403644915266 1663.8198817307887 -1.8189894035458565e-12 -1.1100563497664416e-15 6.1232339957368314e-17 1 -4.4901280605345768 4.4901280605345759 -5.2592362127156558e-15 1 F -0.78539816339744906 F 0.7853981633974475 #
DXID-attrib $-1 -1 $-1 $432 $367 @18 ASM_EDGE_FROM_STEP @4 5579 #
coedge $-1 -1 $-1 $486 $553 $434 $501 reversed $470 $-1 #
edge $554 -1 $-1 $493 -1.9050000000000002 $555 0 $500 $556 forward @7 unknown #
coedge $-1 -1 $-1 $535 $442 $476 $531 forward $18 $-1 #
coedge $-1 -1 $-1 $512 $511 $442 $504 forward $417 $-1 #
edge $557 -1 $-1 $558 -0.7853981633974475 $506 0.78539816339744906 $442 $559 forward @7 unknown #
truecolor-adesk-attrib $-1 -1 $560 $-1 $444 -1024534343 #
vertex $-1 -1 $-1 $444 $561 #
straight-curve $-1 -1 $-1 1385.8403644915268 1670.1698817307886 -1.8189894035458565e-12 -6.3138402494881011e-15 -10.000000000000004 6.1232339957367633e-16 F 0.63499999999999768 F 1.8470191018210533 #
DXID-attrib $-1 -1 $-1 $445 $387 @18 ASM_EDGE_FROM_STEP @4 5557 #
point $-1 -1 $-1 1385.8403644915265 1651.6996907125781 -1.8189894035458565e-12 #
edge $562 -1 $-1 $483 -5.7149999999999936 $514 -0.63499999999999768 $477 $563 forward @7 unknown #
coedge $-1 -1 $-1 $503 $451 $530 $564 forward $417 $-1 #
coedge $-1 -1 $-1 $451 $503 $453 $516 forward $417 $-1 #
truecolor-adesk-attrib $-1 -1 $565 $-1 $452 -1024534343 #
vertex $-1 -1 $-1 $564 $566 #
ellipse-curve $-1 -1 $-1 1392.1903644915267 1663.8198817307887 19.049999999998022 1.1100563497664416e-15 -6.1232339957368314e-17 -1 -4.4901280605345697 4.4901280605345821 -5.2592362127156487e-15 1 F -0.78539816339744906 F 0.7853981633974475 #
edge $567 -1 $-1 $506 0 $457 1.9049999999999931 $512 $568 forward @7 unknown #
DXID-attrib $-1 -1 $-1 $456 $395 @18 ASM_EDGE_FROM_STEP @4 5593 #
point $-1 -1 $-1 1385.8403644915265 1663.8198817307887 19.049999999998022 #
truecolor-adesk-attrib $-1 -1 $569 $-1 $459 -1024534343 #
straight-curve $-1 -1 $-1 1385.8403644915265 1651.6996907125781 -1.8189894035458565e-12 1.1100563497664419e-14 -6.1232339957368333e-16 -10.000000000000004 F -1.9049999999999931 F 0 #
truecolor-adesk-attrib $-1 -1 $570 $-1 $460 -1024534343 #
cone-surface $-1 -1 $-1 1392.1903644915267 1651.6996907125781 -1.8189894035458565e-12 -1.1100563497664416e-15 6.1232339957368314e-17 1 -4.2899978183594438 -4.6817110887442848 -4.4754671937859106e-15 1 I I 0 1 6.3499999999999988 forward I I I I #
DXID-attrib $-1 -1 $-1 $463 $402 @18 ASM_EDGE_FROM_STEP @4 5595 #
DXID-attrib $-1 -1 $-1 $465 $403 @18 ASM_FACE_FROM_STEP @16 step-1M-587-8614 #
DXID-attrib $-1 -1 $-1 $469 $411 @18 ASM_FACE_FROM_STEP @16 step-1M-587-8618 #
coedge $-1 -1 $-1 $553 $486 $488 $547 reversed $470 $-1 #
coedge $-1 -1 $-1 $571 $472 $481 $540 reversed $412 $-1 #
coedge $-1 -1 $-1 $472 $571 $546 $572 reversed $412 $-1 #
DXID-attrib $-1 -1 $-1 $474 $416 @18 ASM_FACE_FROM_STEP @16 step-1M-587-8612 #
coedge $-1 -1 $-1 $477 $476 $511 $564 reversed $360 $-1 #
edge $573 -1 $-1 $558 0.63499999999999768 $533 5.7149999999999936 $502 $574 forward @7 unknown #
truecolor-adesk-attrib $-1 -1 $575 $-1 $478 -1024534343 #
vertex $-1 -1 $-1 $531 $576 #
straight-curve $-1 -1 $-1 1442.9903644915266 1670.1698817307886 -1.8189894035458565e-12 -1.1100563497664419e-14 6.1232339957368333e-16 10.000000000000004 F 0 F 1.9049999999999931 #
coedge $-1 -1 $-1 $546 $502 $479 $536 reversed $18 $-1 #
edge $577 -1 $-1 $538 -0.7853981633974475 $533 0.78539816339744906 $535 $578 forward @7 unknown #
truecolor-adesk-attrib $-1 -1 $579 $-1 $480 -1024534343 #
vertex $-1 -1 $-1 $536 $580 #
straight-curve $-1 -1 $-1 1449.3403644915265 1663.8198817307887 -1.8189894035458565e-12 1.1100563497664419e-14 -6.1232339957368333e-16 -10.000000000000004 F -1.9049999999999931 F 0 #
edge $581 -1 $-1 $555 -5.0799999999999956 $484 -0.63499999999999768 $527 $582 forward @7 unknown #
DXID-attrib $-1 -1 $-1 $482 $423 @18 ASM_EDGE_FROM_STEP @4 5585 #
point $-1 -1 $-1 1442.9903644915266 1670.1698817307886 19.049999999998022 #
point $-1 -1 $-1 1449.3403644915265 1663.8198817307887 19.049999999998022 #
truecolor-adesk-attrib $-1 -1 $583 $-1 $487 -1024534343 #
straight-curve $-1 -1 $-1 1468.3903644915267 1619.3698817307886 -1.8189894035458565e-12 -1.1100563497664419e-14 6.1232339957368333e-16 10.000000000000004 F 0 F 1.9049999999999931 #
coedge $-1 -1 $-1 $488 $535 $528 $572 forward $18 $-1 #
edge $584 -1 $-1 $585 0 $490 1.9050000000000002 $488 $586 forward @7 unknown #
DXID-attrib $-1 -1 $-1 $489 $426 @18 ASM_EDGE_FROM_STEP @4 5564 #
point $-1 -1 $-1 1468.3903644915267 1619.3698817307886 -1.8189894035458565e-12 #
DXID-attrib $-1 -1 $-1 $492 $427 @18 ASM_EDGE_FROM_STEP @4 5584 #
point $-1 -1 $-1 1468.3903644915267 1619.3698817307886 19.049999999998136 #
DXID-attrib $-1 -1 $-1 $497 $431 @18 ASM_EDGE_FROM_STEP @4 5565 #
coedge $-1 -1 $-1 $500 $526 $571 $587 forward $470 $-1 #
truecolor-adesk-attrib $-1 -1 $588 $-1 $501 -1024534343 #
vertex $-1 -1 $-1 $540 $589 #
straight-curve $-1 -1 $-1 1449.3403644915265 1619.3698817307886 19.049999999998022 -10.000000000000004 6.9261636490617784e-15 -1.1100563497664419e-14 F -1.9050000000000002 F 0 #
truecolor-adesk-attrib $-1 -1 $590 $-1 $504 -1024534343 #
vertex $-1 -1 $-1 $504 $591 #
ellipse-curve $-1 -1 $-1 1392.1903644915267 1663.8198817307887 -1.8189894035458565e-12 -1.1100563497664416e-15 6.1232339957368314e-17 1 -4.4901280605345697 4.4901280605345821 -5.2592362127156487e-15 1 F -0.7853981633974475 F 0.78539816339744906 #
DXID-attrib $-1 -1 $-1 $505 $444 @18 ASM_EDGE_FROM_STEP @4 5558 #
point $-1 -1 $-1 1385.8403644915265 1663.8198817307887 -1.8189894035458565e-12 #
truecolor-adesk-attrib $-1 -1 $592 $-1 $510 -1024534343 #
straight-curve $-1 -1 $-1 1385.8403644915265 1670.1698817307886 19.049999999998022 -10.000000000000004 6.6812342892323065e-15 -1.1100563497664419e-14 F -5.7149999999999936 F -0.63499999999999768 #
edge $593 -1 $-1 $514 -1.9049999999999931 $558 0 $530 $594 forward @7 unknown #
DXID-attrib $-1 -1 $-1 $513 $452 @18 ASM_EDGE_FROM_STEP @4 5590 #
point $-1 -1 $-1 1392.1903644915267 1670.1698817307886 19.049999999998022 #
truecolor-adesk-attrib $-1 -1 $595 $-1 $516 -1024534343 #
straight-curve $-1 -1 $-1 1385.8403644915265 1663.8198817307887 -1.8189894035458565e-12 -1.1100563497664419e-14 6.1232339957368333e-16 10.000000000000004 F 0 F 1.9049999999999931 #
DXID-attrib $-1 -1 $-1 $519 $459 @18 ASM_EDGE_FROM_STEP @4 5592 #
DXID-attrib $-1 -1 $-1 $521 $460 @18 ASM_FACE_FROM_STEP @16 step-1M-587-8613 #
coedge $-1 -1 $-1 $528 $527 $553 $587 reversed $412 $-1 #
edge $596 -1 $-1 $538 0.63499999999999768 $585 5.0799999999999956 $546 $597 forward @7 unknown #
truecolor-adesk-attrib $-1 -1 $598 $-1 $531 -1024534343 #
straight-curve $-1 -1 $-1 1385.8403644915268 1670.1698817307886 -1.8189894035458565e-12 10.000000000000004 -6.6812342892323065e-15 1.1100563497664419e-14 F 0.63499999999999768 F 5.7149999999999936 #
DXID-attrib $-1 -1 $-1 $532 $478 @18 ASM_EDGE_FROM_STEP @4 5587 #
point $-1 -1 $-1 1442.9903644915266 1670.1698817307886 -1.8189894035458565e-12 #
truecolor-adesk-attrib $-1 -1 $599 $-1 $536 -1024534343 #
ellipse-curve $-1 -1 $-1 1442.9903644915266 1663.8198817307887 -1.8189894035458565e-12 -1.1100563497664416e-15 6.1232339957368314e-17 1 4.4901280605345821 4.4901280605345697 4.709354117006119e-15 1 F -0.7853981633974475 F 0.78539816339744906 #
DXID-attrib $-1 -1 $-1 $537 $480 @18 ASM_EDGE_FROM_STEP @4 5586 #
point $-1 -1 $-1 1449.3403644915265 1663.8198817307887 -1.8189894035458565e-12 #
truecolor-adesk-attrib $-1 -1 $600 $-1 $540 -1024534343 #
straight-curve $-1 -1 $-1 1449.3403644915265 1670.1698817307886 19.049999999998022 6.9261636490617784e-15 10.000000000000004 -6.1232339957367554e-16 F -5.0799999999999956 F -0.63499999999999768 #
DXID-attrib $-1 -1 $-1 $544 $487 @18 ASM_EDGE_FROM_STEP @4 5583 #
truecolor-adesk-attrib $-1 -1 $601 $-1 $547 -1024534343 #
vertex $-1 -1 $-1 $572 $602 #
straight-curve $-1 -1 $-1 1449.3403644915265 1619.3698817307886 -1.8189894035458565e-12 10.000000000000004 -6.9261636490617784e-15 1.1100563497664419e-14 F 0 F 1.9050000000000002 #
edge $603 -1 $-1 $585 0 $555 1.9049999999999931 $571 $604 forward @7 unknown #
DXID-attrib $-1 -1 $-1 $554 $501 @18 ASM_EDGE_FROM_STEP @4 5605 #
point $-1 -1 $-1 1449.3403644915265 1619.3698817307886 19.049999999998022 #
DXID-attrib $-1 -1 $-1 $557 $504 @18 ASM_EDGE_FROM_STEP @4 5559 #
point $-1 -1 $-1 1392.1903644915267 1670.1698817307886 -1.8189894035458565e-12 #
DXID-attrib $-1 -1 $-1 $562 $510 @18 ASM_EDGE_FROM_STEP @4 5589 #
truecolor-adesk-attrib $-1 -1 $605 $-1 $564 -1024534343 #
straight-curve $-1 -1 $-1 1392.1903644915267 1670.1698817307886 -1.8189894035458565e-12 1.1100563497664419e-14 -6.1232339957368333e-16 -10.000000000000004 F -1.9049999999999931 F 0 #
DXID-attrib $-1 -1 $-1 $567 $516 @18 ASM_EDGE_FROM_STEP @4 5591 #
truecolor-adesk-attrib $-1 -1 $606 $-1 $572 -1024534343 #
straight-curve $-1 -1 $-1 1449.3403644915268 1670.1698817307886 -1.8189894035458565e-12 -6.9261636490617784e-15 -10.000000000000004 6.1232339957367554e-16 F 0.63499999999999768 F 5.0799999999999956 #
DXID-attrib $-1 -1 $-1 $573 $531 @18 ASM_EDGE_FROM_STEP @4 5560 #
DXID-attrib $-1 -1 $-1 $577 $536 @18 ASM_EDGE_FROM_STEP @4 5561 #
DXID-attrib $-1 -1 $-1 $581 $540 @18 ASM_EDGE_FROM_STEP @4 5603 #
DXID-attrib $-1 -1 $-1 $584 $547 @18 ASM_EDGE_FROM_STEP @4 5563 #
point $-1 -1 $-1 1449.3403644915265 1619.3698817307886 -1.8189894035458565e-12 #
truecolor-adesk-attrib $-1 -1 $607 $-1 $587 -1024534343 #
straight-curve $-1 -1 $-1 1449.3403644915265 1619.3698817307886 -1.8189894035458565e-12 -1.1100563497664419e-14 6.1232339957368333e-16 10.000000000000004 F 0 F 1.9049999999999931 #
DXID-attrib $-1 -1 $-1 $593 $564 @18 ASM_EDGE_FROM_STEP @4 5588 #
DXID-attrib $-1 -1 $-1 $596 $572 @18 ASM_EDGE_FROM_STEP @4 5562 #
DXID-attrib $-1 -1 $-1 $603 $587 @18 ASM_EDGE_FROM_STEP @4 5604 #
