700 288 1 0         
5 ZWCAD 12 ACIS 28.0 NT 24 Mon May 13 14:09:52 2024 
1 9.9999999999999995e-07 1e-10 
body $1 -1 $-1 $2 $-1 $-1 #
DXID-attrib $-1 -1 $-1 $-1 $0 @18 ASM_BODY_FROM_STEP @83 1BBA54D36CD6996F3918737F74EB8DFA55BFE818|:|AA2E89703934A647983A797151AD4B96D44A19CC #
lump $-1 -1 $-1 $-1 $3 $0 #
shell $-1 -1 $-1 $-1 $-1 $4 $-1 $2 #
face $5 -1 $-1 $6 $7 $3 $-1 $8 forward single #
truecolor-adesk-attrib $-1 -1 $9 $-1 $4 -1056964608 #
face $10 -1 $-1 $11 $12 $3 $-1 $13 reversed single #
loop $-1 -1 $-1 $-1 $14 $4 #
plane-surface $-1 -1 $-1 1358.6149334045733 381.43388196259946 309.48497719514302 1.6882460088193921e-16 1 -1.0841838056273606e-14 25.399999999999995 -4.2881448624011713e-15 7.7496480340342981e-15 forward_v I I I I #
fmesh-eye-attrib $-1 -1 $15 $5 $4 #
truecolor-adesk-attrib $-1 -1 $16 $-1 $6 -1056964608 #
face $17 -1 $-1 $18 $19 $3 $-1 $20 forward single #
loop $-1 -1 $-1 $-1 $21 $6 #
plane-surface $-1 -1 $-1 1358.6149334045731 -532.96611803740041 309.48497719515291 1 -1.688246008819359e-16 3.0510425330843697e-16 7.7496480340342508e-15 -2.7538268662934951e-13 -25.399999999999995 forward_v I I I I #
coedge $-1 -1 $-1 $22 $23 $24 $25 forward $7 $-1 #
DXID-attrib $-1 -1 $-1 $9 $4 @18 ASM_FACE_FROM_STEP @17 step-3M-378-39102 #
fmesh-eye-attrib $-1 -1 $26 $10 $6 #
truecolor-adesk-attrib $-1 -1 $27 $-1 $11 -1056964608 #
face $28 -1 $-1 $29 $30 $3 $-1 $31 forward single #
loop $-1 -1 $-1 $-1 $32 $11 #
plane-surface $-1 -1 $-1 1361.6527734045731 -532.96611803740041 309.48497719515291 1 -1.688246008819359e-16 3.0510425330843697e-16 7.7496480340342508e-15 -2.7538268662934951e-13 -25.399999999999995 forward_v I I I I #
coedge $-1 -1 $-1 $24 $33 $34 $35 reversed $12 $-1 #
coedge $-1 -1 $-1 $36 $14 $37 $38 forward $7 $-1 #
coedge $-1 -1 $-1 $14 $36 $39 $40 reversed $7 $-1 #
coedge $-1 -1 $-1 $41 $21 $14 $25 reversed $12 $-1 #
edge $42 -1 $-1 $43 -0.1016 $44 -0.0056978399999999905 $14 $45 forward @7 unknown #
DXID-attrib $-1 -1 $-1 $16 $6 @18 ASM_FACE_FROM_STEP @17 step-3M-378-19481 #
fmesh-eye-attrib $-1 -1 $46 $17 $11 #
truecolor-adesk-attrib $-1 -1 $47 $-1 $18 -1056964608 #
face $48 -1 $-1 $49 $50 $3 $-1 $51 forward single #
loop $-1 -1 $-1 $-1 $52 $18 #
plane-surface $-1 -1 $-1 1358.6149334045731 -532.96611803740041 309.48497719515291 -1.6882460088193921e-16 -1 1.0841838056273606e-14 -25.399999999999995 4.2881448624011713e-15 -7.7496480340342981e-15 forward_v I I I I #
coedge $-1 -1 $-1 $53 $54 $36 $55 forward $19 $-1 #
coedge $-1 -1 $-1 $21 $41 $56 $57 reversed $12 $-1 #
coedge $-1 -1 $-1 $58 $59 $21 $35 forward $60 $-1 #
edge $61 -1 $-1 $44 0 $62 0.91439999999999999 $21 $63 forward @7 unknown #
coedge $-1 -1 $-1 $23 $22 $32 $55 reversed $7 $-1 #
coedge $-1 -1 $-1 $64 $65 $22 $38 reversed $66 $-1 #
edge $67 -1 $-1 $44 0 $68 0.0030378400000000004 $22 $69 forward @7 unknown #
coedge $-1 -1 $-1 $70 $71 $23 $40 forward $50 $-1 #
edge $72 -1 $-1 $43 0 $73 0.00303784 $23 $74 forward @7 unknown #
coedge $-1 -1 $-1 $33 $24 $71 $75 reversed $12 $-1 #
truecolor-adesk-attrib $-1 -1 $76 $-1 $25 -1056964608 #
vertex $-1 -1 $-1 $25 $77 #
vertex $-1 -1 $-1 $25 $78 #
straight-curve $-1 -1 $-1 1358.6149334045733 381.43388196259946 309.48497719514302 -3.0510425330843509e-13 1.0841838056273604e-11 999.99999999999989 F -0.1016 F -0.0056978399999999905 #
DXID-attrib $-1 -1 $-1 $27 $11 @18 ASM_FACE_FROM_STEP @17 step-3M-378-15742 #
fmesh-eye-attrib $-1 -1 $79 $28 $18 #
truecolor-adesk-attrib $-1 -1 $80 $-1 $29 -1056964608 #
face $81 -1 $-1 $82 $83 $3 $-1 $84 forward single #
loop $-1 -1 $-1 $-1 $70 $29 #
plane-surface $-1 -1 $-1 1358.6149334045731 -532.96611803740097 258.6849771951529 2.95269796599128e-16 -0.055470019622533721 -0.99846035320541193 4.7114157624246582e-15 25.360892971417456 -1.4089384984123563 forward_v I I I I #
coedge $-1 -1 $-1 $56 $85 $86 $87 reversed $30 $-1 #
coedge $-1 -1 $-1 $88 $32 $89 $90 forward $19 $-1 #
coedge $-1 -1 $-1 $32 $88 $70 $91 forward $19 $-1 #
edge $92 -1 $-1 $73 -0.1016 $68 -0.0056978399999999922 $36 $93 forward @7 unknown #
coedge $-1 -1 $-1 $94 $52 $33 $57 forward $30 $-1 #
edge $95 -1 $-1 $62 0.0056978399999999905 $96 0.050799999999999998 $33 $97 forward @7 unknown #
coedge $-1 -1 $-1 $98 $34 $99 $100 forward $60 $-1 #
coedge $-1 -1 $-1 $34 $98 $64 $101 forward $60 $-1 #
loop $-1 -1 $-1 $-1 $34 $102 #
truecolor-adesk-attrib $-1 -1 $103 $-1 $35 -1056964608 #
vertex $-1 -1 $-1 $35 $104 #
straight-curve $-1 -1 $-1 1358.6149334045733 381.43388196259946 303.78713719514303 -1.6882460088193918e-13 -999.99999999999989 1.0841838056273604e-11 F 0 F 0.91439999999999999 #
coedge $-1 -1 $-1 $105 $37 $59 $101 reversed $66 $-1 #
coedge $-1 -1 $-1 $37 $105 $106 $107 forward $66 $-1 #
loop $-1 -1 $-1 $-1 $64 $82 #
truecolor-adesk-attrib $-1 -1 $108 $-1 $38 -1056964608 #
vertex $-1 -1 $-1 $38 $109 #
straight-curve $-1 -1 $-1 1358.6149334045733 381.43388196259946 303.78713719514303 999.99999999999989 -1.6882460088193588e-13 3.0510425330843691e-13 F 0 F 0.0030378400000000004 #
coedge $-1 -1 $-1 $110 $39 $54 $91 reversed $50 $-1 #
coedge $-1 -1 $-1 $39 $110 $41 $75 forward $50 $-1 #
truecolor-adesk-attrib $-1 -1 $111 $-1 $40 -1056964608 #
vertex $-1 -1 $-1 $55 $112 #
straight-curve $-1 -1 $-1 1358.6149334045733 381.43388196259832 207.88497719514302 999.99999999999989 -1.6882460088193588e-13 3.0510425330843691e-13 F 0 F 0.00303784 #
edge $113 -1 $-1 $96 0 $43 0.91581002396785305 $41 $114 forward @7 unknown #
DXID-attrib $-1 -1 $-1 $42 $25 @18 ASM_EDGE_FROM_STEP @5 33789 #
point $-1 -1 $-1 1358.6149334045733 381.43388196259832 207.88497719514302 #
point $-1 -1 $-1 1358.6149334045733 381.43388196259946 303.78713719514303 #
DXID-attrib $-1 -1 $-1 $47 $18 @18 ASM_FACE_FROM_STEP @17 step-3M-378-33987 #
fmesh-eye-attrib $-1 -1 $115 $48 $29 #
truecolor-adesk-attrib $-1 -1 $116 $-1 $49 -1056964608 #
face $117 -1 $-1 $118 $66 $3 $-1 $119 reversed single #
loop $-1 -1 $-1 $-1 $120 $49 #
plane-surface $-1 -1 $-1 1355.954933404573 -532.96611803740052 303.78713719515292 -1.6882460088193921e-16 -1 1.0841838056273606e-14 -25.399999999999995 4.2881448624011713e-15 -7.7496480340342981e-15 forward_v I I I I #
coedge $-1 -1 $-1 $52 $94 $88 $121 reversed $30 $-1 #
coedge $-1 -1 $-1 $122 $99 $52 $87 forward $83 $-1 #
edge $123 -1 $-1 $62 0 $124 0.0030378399999999996 $52 $125 forward @7 unknown #
coedge $-1 -1 $-1 $54 $53 $85 $121 forward $19 $-1 #
coedge $-1 -1 $-1 $106 $126 $53 $90 reversed $127 $-1 #
edge $128 -1 $-1 $68 0 $124 0.91439999999999999 $53 $129 forward @7 unknown #
edge $130 -1 $-1 $131 0 $73 0.91581002396785305 $54 $132 forward @7 unknown #
truecolor-adesk-attrib $-1 -1 $133 $-1 $55 -1056964608 #
straight-curve $-1 -1 $-1 1361.6527734045733 381.43388196259946 309.48497719514302 -3.0510425330843509e-13 1.0841838056273604e-11 999.99999999999989 F -0.1016 F -0.0056978399999999922 #
coedge $-1 -1 $-1 $85 $56 $110 $134 forward $30 $-1 #
truecolor-adesk-attrib $-1 -1 $135 $-1 $57 -1056964608 #
vertex $-1 -1 $-1 $75 $136 #
straight-curve $-1 -1 $-1 1358.6149334045731 -532.96611803740041 309.48497719515291 3.0510425330843509e-13 -1.0841838056273604e-11 -999.99999999999989 F 0.0056978399999999905 F 0.050799999999999998 #
coedge $-1 -1 $-1 $59 $58 $137 $138 forward $60 $-1 #
coedge $-1 -1 $-1 $86 $120 $58 $100 reversed $83 $-1 #
edge $139 -1 $-1 $62 0 $140 1.5707963267948928 $99 $141 forward @7 unknown #
edge $142 -1 $-1 $143 -1.5707963267948928 $44 0 $64 $144 forward @7 unknown #
face $145 -1 $-1 $146 $60 $3 $-1 $147 reversed single #
DXID-attrib $-1 -1 $-1 $61 $35 @18 ASM_EDGE_FROM_STEP @5 22330 #
point $-1 -1 $-1 1358.6149334045731 -532.96611803740052 303.78713719515292 #
coedge $-1 -1 $-1 $65 $64 $148 $149 forward $66 $-1 #
coedge $-1 -1 $-1 $150 $89 $65 $107 reversed $127 $-1 #
edge $151 -1 $-1 $152 -1.5707963267948932 $68 1.9484980705410408e-16 $65 $153 forward @7 unknown #
DXID-attrib $-1 -1 $-1 $67 $38 @18 ASM_EDGE_FROM_STEP @5 12106 #
point $-1 -1 $-1 1361.6527734045733 381.43388196259946 303.78713719514298 #
coedge $-1 -1 $-1 $71 $70 $94 $134 reversed $50 $-1 #
DXID-attrib $-1 -1 $-1 $72 $40 @18 ASM_EDGE_FROM_STEP @5 33156 #
point $-1 -1 $-1 1361.6527734045733 381.43388196259832 207.88497719514302 #
truecolor-adesk-attrib $-1 -1 $154 $-1 $75 -1056964608 #
straight-curve $-1 -1 $-1 1358.6149334045731 -532.96611803740097 258.6849771951529 1.8548880954427791e-13 998.46035320541205 -55.470019622533741 F 0 F 0.91581002396785305 #
DXID-attrib $-1 -1 $-1 $80 $29 @18 ASM_FACE_FROM_STEP @16 step-3M-378-1337 #
fmesh-eye-attrib $-1 -1 $155 $81 $49 #
truecolor-adesk-attrib $-1 -1 $156 $-1 $82 -1056964608 #
face $157 -1 $-1 $102 $127 $3 $-1 $158 forward single #
plane-surface $-1 -1 $-1 1355.9549334045732 381.43388196259946 303.78713719514298 -1.6882460088193921e-16 -1 1.0841838056273606e-14 -25.399999999999995 4.2881448624011713e-15 -7.7496480340342981e-15 forward_v I I I I #
coedge $-1 -1 $-1 $99 $122 $159 $160 reversed $83 $-1 #
edge $161 -1 $-1 $124 0.0056978399999999905 $131 0.050799999999999998 $88 $162 forward @7 unknown #
coedge $-1 -1 $-1 $120 $86 $126 $163 forward $83 $-1 #
truecolor-adesk-attrib $-1 -1 $164 $-1 $87 -1056964608 #
vertex $-1 -1 $-1 $90 $165 #
straight-curve $-1 -1 $-1 1358.6149334045731 -532.96611803740052 303.78713719515292 999.99999999999989 -1.6882460088193588e-13 3.0510425330843691e-13 F 0 F 0.0030378399999999996 #
coedge $-1 -1 $-1 $89 $150 $122 $163 reversed $127 $-1 #
loop $-1 -1 $-1 $-1 $89 $118 #
truecolor-adesk-attrib $-1 -1 $166 $-1 $90 -1056964608 #
straight-curve $-1 -1 $-1 1361.6527734045733 381.43388196259946 303.78713719514298 -1.6882460088193918e-13 -999.99999999999989 1.0841838056273604e-11 F 0 F 0.91439999999999999 #
truecolor-adesk-attrib $-1 -1 $167 $-1 $91 -1056964608 #
vertex $-1 -1 $-1 $121 $168 #
straight-curve $-1 -1 $-1 1361.6527734045731 -532.96611803740097 258.6849771951529 1.8548880954427791e-13 998.46035320541205 -55.470019622533741 F 0 F 0.91581002396785305 #
DXID-attrib $-1 -1 $-1 $92 $55 @18 ASM_EDGE_FROM_STEP @4 5609 #
edge $169 -1 $-1 $96 0 $131 0.00303784 $94 $170 forward @7 unknown #
DXID-attrib $-1 -1 $-1 $95 $57 @18 ASM_EDGE_FROM_STEP @5 37065 #
point $-1 -1 $-1 1358.6149334045731 -532.96611803740097 258.6849771951529 #
coedge $-1 -1 $-1 $171 $172 $98 $138 reversed $173 $-1 #
edge $174 -1 $-1 $140 0 $143 0.91439999999999999 $98 $175 forward @7 unknown #
truecolor-adesk-attrib $-1 -1 $176 $-1 $100 -1056964608 #
vertex $-1 -1 $-1 $160 $177 #
ellipse-curve $-1 -1 $-1 1355.954933404573 -532.96611803740052 303.78713719515292 -1.6882460088193921e-16 -1 1.0841838056273606e-14 2.6599999999999997 -4.4907343834594938e-16 8.1157731380044229e-16 1 F 0 F 1.5707963267948928 #
truecolor-adesk-attrib $-1 -1 $178 $-1 $101 -1056964608 #
vertex $-1 -1 $-1 $101 $179 #
ellipse-curve $-1 -1 $-1 1355.9549334045732 381.43388196259946 303.78713719514298 1.6882460088193921e-16 1 -1.0841838056273606e-14 2.6599999999999997 -4.4907343834594938e-16 8.1157731380044229e-16 1 F -1.5707963267948928 F 0 #
truecolor-adesk-attrib $-1 -1 $180 $-1 $102 -1056964608 #
face $181 -1 $-1 $182 $183 $3 $-1 $184 reversed single #
cone-surface $-1 -1 $-1 1355.9549334045732 381.43388196259946 303.78713719514298 1.6882460088193921e-16 1 -1.0841838056273606e-14 8.7294018040720005e-15 2.8839289229687785e-14 2.6599999999999997 1 I I 0 1 2.6599999999999997 forward I I I I #
coedge $-1 -1 $-1 $185 $186 $105 $149 reversed $183 $-1 #
edge $187 -1 $-1 $143 5.5511151231258213e-19 $152 0.0030378400000000004 $105 $188 forward @7 unknown #
coedge $-1 -1 $-1 $126 $106 $189 $190 forward $127 $-1 #
truecolor-adesk-attrib $-1 -1 $191 $-1 $107 -1056964608 #
vertex $-1 -1 $-1 $149 $192 #
ellipse-curve $-1 -1 $-1 1355.9549334045732 381.43388196259946 303.78713719514298 1.6882460088193921e-16 1 -1.0841838056273606e-14 5.6978399999999993 -9.6193556388912944e-16 1.7384352186709445e-15 1 F -1.5707963267948932 F 1.9484980705410408e-16 #
DXID-attrib $-1 -1 $-1 $113 $75 @18 ASM_EDGE_FROM_STEP @4 3139 #
DXID-attrib $-1 -1 $-1 $116 $49 @18 ASM_FACE_FROM_STEP @17 step-3M-378-19216 #
fmesh-eye-attrib $-1 -1 $193 $117 $82 #
truecolor-adesk-attrib $-1 -1 $194 $-1 $118 -1056964608 #
cone-surface $-1 -1 $-1 1355.9549334045732 381.43388196259946 303.78713719514298 1.6882460088193921e-16 1 -1.0841838056273606e-14 1.8210884755062343e-14 6.1775058550558e-14 5.6978399999999993 1 I I 0 1 5.6978399999999993 forward I I I I #
coedge $-1 -1 $-1 $195 $196 $120 $160 forward $197 $-1 #
edge $198 -1 $-1 $140 -0.0030378399999999996 $199 5.1852135707712967e-19 $120 $200 forward @7 unknown #
truecolor-adesk-attrib $-1 -1 $201 $-1 $121 -1056964608 #
straight-curve $-1 -1 $-1 1361.6527734045731 -532.96611803740041 309.48497719515291 3.0510425330843509e-13 -1.0841838056273604e-11 -999.99999999999989 F 0.0056978399999999905 F 0.050799999999999998 #
edge $202 -1 $-1 $124 0 $199 1.570796326794893 $122 $203 forward @7 unknown #
DXID-attrib $-1 -1 $-1 $123 $87 @18 ASM_EDGE_FROM_STEP @5 21270 #
point $-1 -1 $-1 1361.6527734045731 -532.96611803740052 303.78713719515292 #
DXID-attrib $-1 -1 $-1 $128 $90 @18 ASM_EDGE_FROM_STEP @5 18383 #
DXID-attrib $-1 -1 $-1 $130 $91 @18 ASM_EDGE_FROM_STEP @5 38339 #
point $-1 -1 $-1 1361.6527734045731 -532.96611803740097 258.6849771951529 #
truecolor-adesk-attrib $-1 -1 $204 $-1 $134 -1056964608 #
straight-curve $-1 -1 $-1 1358.6149334045731 -532.96611803740097 258.6849771951529 999.99999999999989 -1.6882460088193588e-13 3.0510425330843691e-13 F 0 F 0.00303784 #
coedge $-1 -1 $-1 $205 $137 $196 $206 reversed $173 $-1 #
coedge $-1 -1 $-1 $137 $205 $185 $207 reversed $173 $-1 #
loop $-1 -1 $-1 $-1 $172 $208 #
truecolor-adesk-attrib $-1 -1 $209 $-1 $138 -1056964608 #
straight-curve $-1 -1 $-1 1355.954933404573 -532.96611803740041 306.44713719515289 1.6882460088193918e-13 999.99999999999989 -1.0841838056273604e-11 F 0 F 0.91439999999999999 #
DXID-attrib $-1 -1 $-1 $139 $100 @18 ASM_EDGE_FROM_STEP @4 2096 #
point $-1 -1 $-1 1355.954933404573 -532.96611803740041 306.44713719515289 #
DXID-attrib $-1 -1 $-1 $142 $101 @18 ASM_EDGE_FROM_STEP @4 7454 #
point $-1 -1 $-1 1355.9549334045732 381.43388196259946 306.447137195143 #
fmesh-eye-attrib $-1 -1 $210 $145 $102 #
truecolor-adesk-attrib $-1 -1 $211 $-1 $146 -1056964608 #
face $212 -1 $-1 $213 $197 $3 $-1 $214 reversed single #
loop $-1 -1 $-1 $-1 $148 $146 #
plane-surface $-1 -1 $-1 1257.0149334045732 381.43388196259946 309.4849771951433 -1.6882460088193921e-16 -1 1.0841838056273606e-14 -25.399999999999995 4.2881448624011713e-15 -7.7496480340342981e-15 forward_v I I I I #
coedge $-1 -1 $-1 $215 $148 $172 $207 forward $183 $-1 #
coedge $-1 -1 $-1 $148 $215 $216 $217 reversed $183 $-1 #
truecolor-adesk-attrib $-1 -1 $218 $-1 $149 -1056964608 #
straight-curve $-1 -1 $-1 1355.9549334045732 381.43388196259946 306.447137195143 3.0867971605244032e-12 1.0841838056273604e-11 999.99999999999989 F 5.5511151231258213e-19 F 0.0030378400000000004 #
coedge $-1 -1 $-1 $216 $219 $150 $190 reversed $220 $-1 #
edge $221 -1 $-1 $152 -0.91439999999999999 $199 0 $150 $222 forward @7 unknown #
DXID-attrib $-1 -1 $-1 $151 $107 @18 ASM_EDGE_FROM_STEP @5 18340 #
point $-1 -1 $-1 1355.9549334045732 381.43388196259946 309.48497719514302 #
DXID-attrib $-1 -1 $-1 $156 $82 @18 ASM_FACE_FROM_STEP @17 step-3M-378-29235 #
fmesh-eye-attrib $-1 -1 $223 $157 $118 #
coedge $-1 -1 $-1 $224 $159 $219 $225 reversed $197 $-1 #
coedge $-1 -1 $-1 $159 $224 $171 $206 forward $197 $-1 #
loop $-1 -1 $-1 $-1 $159 $182 #
truecolor-adesk-attrib $-1 -1 $226 $-1 $160 -1056964608 #
vertex $-1 -1 $-1 $160 $227 #
straight-curve $-1 -1 $-1 1355.954933404573 -532.96611803740041 309.48497719515291 3.0867971605244032e-12 1.0841838056273604e-11 999.99999999999989 F -0.0030378399999999996 F 5.1852135707712967e-19 #
DXID-attrib $-1 -1 $-1 $161 $121 @18 ASM_EDGE_FROM_STEP @5 41594 #
truecolor-adesk-attrib $-1 -1 $228 $-1 $163 -1056964608 #
ellipse-curve $-1 -1 $-1 1355.954933404573 -532.96611803740052 303.78713719515292 -1.6882460088193921e-16 -1 1.0841838056273606e-14 5.6978399999999993 -9.6193556388912944e-16 1.7384352186709445e-15 1 F 0 F 1.570796326794893 #
DXID-attrib $-1 -1 $-1 $169 $134 @18 ASM_EDGE_FROM_STEP @5 15944 #
coedge $-1 -1 $-1 $172 $171 $229 $230 reversed $173 $-1 #
edge $231 -1 $-1 $232 -0.050799999999999998 $140 -0.0026599999999999896 $196 $233 forward @7 unknown #
edge $234 -1 $-1 $143 -0.098940000000000014 $235 -1.7763568394002505e-17 $185 $236 forward @7 unknown #
face $237 -1 $-1 $238 $173 $3 $-1 $239 forward single #
DXID-attrib $-1 -1 $-1 $174 $138 @18 ASM_EDGE_FROM_STEP @5 23132 #
DXID-attrib $-1 -1 $-1 $180 $102 @18 ASM_FACE_FROM_STEP @17 step-3M-378-41652 #
fmesh-eye-attrib $-1 -1 $240 $181 $146 #
truecolor-adesk-attrib $-1 -1 $241 $-1 $182 -1056964608 #
face $242 -1 $-1 $208 $220 $3 $-1 $243 reversed single #
plane-surface $-1 -1 $-1 1358.6149334045731 -532.96611803740041 309.48497719515291 1.6882460088193921e-16 1 -1.0841838056273606e-14 25.399999999999995 -4.2881448624011713e-15 7.7496480340342981e-15 forward_v I I I I #
coedge $-1 -1 $-1 $186 $185 $244 $245 reversed $183 $-1 #
coedge $-1 -1 $-1 $246 $189 $186 $217 forward $220 $-1 #
edge $247 -1 $-1 $152 0.0056978399999999922 $248 0.10463784000000001 $186 $249 forward @7 unknown #
DXID-attrib $-1 -1 $-1 $187 $149 @18 ASM_EDGE_FROM_STEP @5 31183 #
coedge $-1 -1 $-1 $189 $246 $195 $225 forward $220 $-1 #
loop $-1 -1 $-1 $-1 $189 $213 #
truecolor-adesk-attrib $-1 -1 $250 $-1 $190 -1056964608 #
straight-curve $-1 -1 $-1 1355.954933404573 -532.96611803740041 309.48497719515291 -1.6882460088193918e-13 -999.99999999999989 1.0841838056273604e-11 F -0.91439999999999999 F 0 #
DXID-attrib $-1 -1 $-1 $194 $118 @18 ASM_FACE_FROM_STEP @17 step-3M-378-12373 #
coedge $-1 -1 $-1 $196 $195 $251 $252 forward $197 $-1 #
edge $253 -1 $-1 $254 -0.053837839999999998 $199 -0.0056978399999999896 $195 $255 forward @7 unknown #
DXID-attrib $-1 -1 $-1 $198 $160 @18 ASM_EDGE_FROM_STEP @4 1639 #
point $-1 -1 $-1 1355.954933404573 -532.96611803740041 309.48497719515291 #
DXID-attrib $-1 -1 $-1 $202 $163 @18 ASM_EDGE_FROM_STEP @4 1505 #
coedge $-1 -1 $-1 $251 $244 $205 $230 forward $256 $-1 #
edge $257 -1 $-1 $235 -0.91581002396785338 $232 4.5224163755811529e-20 $205 $258 forward @7 unknown #
truecolor-adesk-attrib $-1 -1 $259 $-1 $206 -1056964608 #
vertex $-1 -1 $-1 $252 $260 #
straight-curve $-1 -1 $-1 1358.6149334045731 -532.96611803740041 306.44713719515289 999.99999999999989 -1.6882460088197372e-13 -3.1863770855346963e-12 F -0.050799999999999998 F -0.0026599999999999896 #
truecolor-adesk-attrib $-1 -1 $261 $-1 $207 -1056964608 #
vertex $-1 -1 $-1 $207 $262 #
straight-curve $-1 -1 $-1 1257.0149334045732 381.43388196259946 306.44713719514334 -999.99999999999989 1.6882460088197372e-13 3.1863770855346963e-12 F -0.098940000000000014 F -1.7763568394002505e-17 #
truecolor-adesk-attrib $-1 -1 $263 $-1 $208 -1056964608 #
face $264 -1 $-1 $-1 $256 $3 $-1 $265 reversed single #
plane-surface $-1 -1 $-1 1361.6527734045731 -532.96611803740041 306.44713719515289 -3.1863770855346979e-15 -1.0841838056273606e-14 -1 -25.399999999999995 4.2881448624021329e-15 8.093397797258127e-14 forward_v I I I I #
DXID-attrib $-1 -1 $-1 $211 $146 @18 ASM_FACE_FROM_STEP @17 step-3M-378-29209 #
fmesh-eye-attrib $-1 -1 $266 $212 $182 #
truecolor-adesk-attrib $-1 -1 $267 $-1 $213 -1056964608 #
plane-surface $-1 -1 $-1 1361.6527734045731 -532.96611803740041 309.48497719515291 -3.1863770855346979e-15 -1.0841838056273606e-14 -1 -25.399999999999995 4.2881448624021329e-15 8.093397797258127e-14 forward_v I I I I #
coedge $-1 -1 $-1 $229 $268 $215 $245 forward $256 $-1 #
edge $269 -1 $-1 $248 -1.8999740913314521e-19 $235 0.00303784 $215 $270 forward @7 unknown #
coedge $-1 -1 $-1 $219 $216 $268 $271 forward $220 $-1 #
truecolor-adesk-attrib $-1 -1 $272 $-1 $217 -1056964608 #
vertex $-1 -1 $-1 $245 $273 #
straight-curve $-1 -1 $-1 1361.6527734045733 381.43388196259946 309.48497719514296 -999.99999999999989 1.6882460088197372e-13 3.1863770855346963e-12 F 0.0056978399999999922 F 0.10463784000000001 #
DXID-attrib $-1 -1 $-1 $221 $190 @18 ASM_EDGE_FROM_STEP @5 10430 #
coedge $-1 -1 $-1 $268 $229 $224 $252 reversed $256 $-1 #
edge $274 -1 $-1 $254 -1.9822081453043936e-19 $232 0.0030378400000000004 $224 $275 forward @7 unknown #
truecolor-adesk-attrib $-1 -1 $276 $-1 $225 -1056964608 #
vertex $-1 -1 $-1 $225 $277 #
straight-curve $-1 -1 $-1 1361.6527734045731 -532.96611803740041 309.48497719515291 999.99999999999989 -1.6882460088197372e-13 -3.1863770855346963e-12 F -0.053837839999999998 F -0.0056978399999999896 #
loop $-1 -1 $-1 $-1 $229 $238 #
truecolor-adesk-attrib $-1 -1 $278 $-1 $230 -1056964608 #
straight-curve $-1 -1 $-1 1307.8149334045731 -532.96611803740041 306.44713719515306 55.47001962252272 -998.4603532054125 1.0648397055603461e-11 F -0.91581002396785338 F 4.5224163755811529e-20 #
DXID-attrib $-1 -1 $-1 $231 $206 @18 ASM_EDGE_FROM_STEP @4 7794 #
point $-1 -1 $-1 1307.8149334045731 -532.96611803740041 306.44713719515306 #
DXID-attrib $-1 -1 $-1 $234 $207 @18 ASM_EDGE_FROM_STEP @5 13123 #
point $-1 -1 $-1 1257.0149334045732 381.4338819625998 306.44713719514334 #
fmesh-eye-attrib $-1 -1 $279 $237 $208 #
truecolor-adesk-attrib $-1 -1 $280 $-1 $238 -1056964608 #
plane-surface $-1 -1 $-1 1307.8149334045731 -532.96611803740041 309.48497719515308 0.99846035320541249 0.05547001962252273 -3.782868159994318e-15 1.408938498412077 -25.360892971417471 2.7538856768711132e-13 forward_v I I I I #
DXID-attrib $-1 -1 $-1 $241 $182 @18 ASM_FACE_FROM_STEP @17 step-3M-378-14618 #
fmesh-eye-attrib $-1 -1 $281 $242 $213 #
coedge $-1 -1 $-1 $244 $251 $246 $271 reversed $256 $-1 #
truecolor-adesk-attrib $-1 -1 $282 $-1 $245 -1056964608 #
straight-curve $-1 -1 $-1 1257.0149334045732 381.43388196259946 309.4849771951433 -3.1863770855346976e-12 -1.0841838056273604e-11 -999.99999999999989 F -1.8999740913314521e-19 F 0.00303784 #
edge $283 -1 $-1 $248 -0.91879641000908763 $254 -0.0029863860412342479 $246 $284 forward @7 unknown #
DXID-attrib $-1 -1 $-1 $247 $217 @18 ASM_EDGE_FROM_STEP @5 19250 #
point $-1 -1 $-1 1257.0149334045732 381.4338819625998 309.4849771951433 #
truecolor-adesk-attrib $-1 -1 $285 $-1 $252 -1056964608 #
straight-curve $-1 -1 $-1 1307.8149334045731 -532.96611803740041 309.48497719515308 -3.1863770855346976e-12 -1.0841838056273604e-11 -999.99999999999989 F -1.9822081453043936e-19 F 0.0030378400000000004 #
DXID-attrib $-1 -1 $-1 $253 $225 @18 ASM_EDGE_FROM_STEP @5 29004 #
point $-1 -1 $-1 1307.8149334045731 -532.96611803740041 309.48497719515308 #
DXID-attrib $-1 -1 $-1 $257 $230 @18 ASM_EDGE_FROM_STEP @5 14255 #
DXID-attrib $-1 -1 $-1 $263 $208 @18 ASM_FACE_FROM_STEP @16 step-3M-378-6544 #
fmesh-eye-attrib $-1 -1 $286 $264 $238 #
DXID-attrib $-1 -1 $-1 $267 $213 @18 ASM_FACE_FROM_STEP @17 step-3M-378-43064 #
DXID-attrib $-1 -1 $-1 $269 $245 @18 ASM_EDGE_FROM_STEP @5 39946 #
truecolor-adesk-attrib $-1 -1 $287 $-1 $271 -1056964608 #
straight-curve $-1 -1 $-1 1307.9805882968808 -535.9479060989388 309.48497719515308 55.47001962252272 -998.4603532054125 1.0648397055603461e-11 F -0.91879641000908763 F -0.0029863860412342479 #
DXID-attrib $-1 -1 $-1 $274 $252 @18 ASM_EDGE_FROM_STEP @5 13309 #
DXID-attrib $-1 -1 $-1 $280 $238 @18 ASM_FACE_FROM_STEP @17 step-3M-378-13470 #
DXID-attrib $-1 -1 $-1 $283 $271 @18 ASM_EDGE_FROM_STEP @5 28955 #
