700 349 1 0         
5 ZWCAD 12 ACIS 28.0 NT 24 Sat May 11 14:40:55 2024 
1 9.9999999999999995e-07 1e-10 
body $1 -1 $-1 $2 $-1 $-1 #
DXID-attrib $-1 -1 $-1 $-1 $0 @18 ASM_BODY_FROM_STEP @83 17073C4AD80059325749D5CB642C225BF3163F78|:|39D34A9A9C6CE165543E4A36610F44E1D1111527 #
lump $-1 -1 $-1 $-1 $3 $0 #
shell $-1 -1 $-1 $-1 $-1 $4 $-1 $2 #
face $5 -1 $-1 $6 $7 $3 $-1 $8 reversed single #
truecolor-adesk-attrib $-1 -1 $9 $-1 $4 -1024534343 #
face $10 -1 $-1 $11 $12 $3 $-1 $13 forward single #
loop $-1 -1 $-1 $-1 $14 $4 #
cone-surface $-1 -1 $-1 1371.9206110642031 1159.4975159940486 -2.7284841053187847e-12 -6.2824596741250957e-15 7.4072191571716393e-15 1 0.34729635533385828 -1.969615506024446 1.6771249055842176e-14 1 I I 0 1 2.0000000000000289 forward I I I I #
DXID-attrib $-1 -1 $-1 $5 $4 @18 ASM_FACE_FROM_STEP @16 step-1M-587-8454 #
truecolor-adesk-attrib $-1 -1 $15 $-1 $6 -1024534343 #
face $16 -1 $-1 $17 $18 $3 $-1 $19 reversed single #
loop $-1 -1 $-1 $-1 $20 $6 #
plane-surface $-1 -1 $-1 1371.9206110642028 1159.4975159940484 12.699999999997203 4.683596079770233e-15 -8.6974988084717343e-15 -1 4.410663712739936 -25.014116926510095 2.382180194374678e-13 forward_v I I I I #
coedge $-1 -1 $-1 $21 $22 $23 $24 reversed $7 $-1 #
DXID-attrib $-1 -1 $-1 $10 $6 @18 ASM_FACE_FROM_STEP @16 step-1M-587-8455 #
truecolor-adesk-attrib $-1 -1 $25 $-1 $11 -1024534343 #
face $26 -1 $-1 $27 $28 $3 $-1 $29 forward single #
loop $-1 -1 $-1 $-1 $30 $11 #
cone-surface $-1 -1 $-1 1326.9206110642026 1159.4975159940495 -2.7284841053187847e-12 -6.2824596741250957e-15 7.4072191571716393e-15 1 0.34729635533385828 -1.969615506024446 1.6771249055842176e-14 1 I I 0 1 2.0000000000000289 forward I I I I #
coedge $-1 -1 $-1 $20 $20 $31 $32 reversed $12 $-1 #
coedge $-1 -1 $-1 $31 $14 $22 $33 forward $7 $-1 #
coedge $-1 -1 $-1 $14 $31 $21 $33 reversed $7 $-1 #
coedge $-1 -1 $-1 $23 $23 $14 $24 forward $34 $-1 #
edge $35 -1 $-1 $36 -3.1415926535896541 $36 3.1415926535899321 $14 $37 forward @7 unknown #
DXID-attrib $-1 -1 $-1 $16 $11 @18 ASM_FACE_FROM_STEP @16 step-1M-587-8456 #
truecolor-adesk-attrib $-1 -1 $38 $-1 $17 -1024534343 #
face $39 -1 $-1 $40 $41 $3 $-1 $42 reversed single #
loop $-1 -1 $-1 $-1 $43 $17 #
plane-surface $-1 -1 $-1 1326.9206110642024 1159.4975159940495 12.699999999994816 4.683596079770233e-15 -8.6974988084717343e-15 -1 4.410663712739936 -25.014116926510095 2.382180194374678e-13 forward_v I I I I #
coedge $-1 -1 $-1 $44 $45 $46 $47 reversed $18 $-1 #
coedge $-1 -1 $-1 $22 $21 $20 $32 forward $7 $-1 #
edge $48 -1 $-1 $49 -3.1415926535897785 $49 3.1415926535898078 $31 $50 forward @7 unknown #
edge $51 -1 $-1 $36 6.0938550575245131e-28 $49 6.3499999999998877 $21 $52 forward @7 unknown #
loop $-1 -1 $-1 $53 $23 $54 #
truecolor-adesk-attrib $-1 -1 $55 $-1 $24 -1024534343 #
vertex $-1 -1 $-1 $24 $56 #
ellipse-curve $-1 -1 $-1 1371.9206110642031 1159.4975159940486 7.503331289626658e-12 -6.8763498310066796e-16 4.6098068116594758e-15 1 0.34729635533385828 -1.969615506024446 9.3183600994525355e-15 1 I I #
DXID-attrib $-1 -1 $-1 $26 $17 @18 ASM_FACE_FROM_STEP @16 step-1M-587-8457 #
truecolor-adesk-attrib $-1 -1 $57 $-1 $27 -1024534343 #
face $58 -1 $-1 $59 $60 $3 $-1 $61 forward single #
loop $-1 -1 $-1 $-1 $62 $27 #
cone-surface $-1 -1 $-1 1003.6206110641928 1159.4975159940504 -5.2295945351943374e-12 -4.8837535013689954e-15 7.4072191571716503e-15 1 0.34729635533385828 -1.969615506024446 1.6285483499861029e-14 1 I I 0 1 2.0000000000000289 forward I I I I #
coedge $-1 -1 $-1 $43 $43 $63 $64 reversed $28 $-1 #
coedge $-1 -1 $-1 $63 $30 $45 $65 forward $18 $-1 #
coedge $-1 -1 $-1 $30 $63 $44 $65 reversed $18 $-1 #
coedge $-1 -1 $-1 $46 $46 $30 $47 forward $53 $-1 #
edge $66 -1 $-1 $67 -3.1415926535897785 $67 3.1415926535898078 $30 $68 forward @7 unknown #
truecolor-adesk-attrib $-1 -1 $69 $-1 $32 -1024534343 #
vertex $-1 -1 $-1 $33 $70 #
ellipse-curve $-1 -1 $-1 1371.9206110642028 1159.4975159940484 12.699999999997203 -4.683596079770233e-15 8.6974988084717343e-15 1 0.34729635533385828 -1.969615506024446 1.8757324365155218e-14 1 I I #
truecolor-adesk-attrib $-1 -1 $71 $-1 $33 -1024534343 #
straight-curve $-1 -1 $-1 1371.5733147088692 1161.4671315000726 -2.7284841053187847e-12 -1.2564919348250393e-14 1.481443831434349e-14 2.0000000000000289 F 6.0938550575245131e-28 F 6.3499999999998877 #
loop $-1 -1 $-1 $72 $46 $54 #
face $73 -1 $-1 $74 $75 $3 $-1 $76 forward single #
DXID-attrib $-1 -1 $-1 $35 $24 @18 ASM_EDGE_FROM_STEP @4 5191 #
point $-1 -1 $-1 1371.573314708869 1161.4671315000726 -2.7284841053187847e-12 #
DXID-attrib $-1 -1 $-1 $39 $27 @18 ASM_FACE_FROM_STEP @16 step-1M-587-8458 #
truecolor-adesk-attrib $-1 -1 $77 $-1 $40 -1024534343 #
face $78 -1 $-1 $79 $80 $3 $-1 $81 reversed single #
loop $-1 -1 $-1 $-1 $82 $40 #
plane-surface $-1 -1 $-1 1003.6206110641928 1159.4975159940504 12.699999999994816 4.683596079770233e-15 -8.6974988084717343e-15 -1 4.410663712739936 -25.014116926510095 2.382180194374678e-13 forward_v I I I I #
coedge $-1 -1 $-1 $83 $84 $85 $86 reversed $41 $-1 #
coedge $-1 -1 $-1 $45 $44 $43 $64 forward $18 $-1 #
edge $87 -1 $-1 $88 -3.1415926535899024 $88 3.1415926535896839 $63 $89 forward @7 unknown #
edge $90 -1 $-1 $67 0 $88 6.3499999999986798 $44 $91 forward @7 unknown #
truecolor-adesk-attrib $-1 -1 $92 $-1 $47 -1024534343 #
vertex $-1 -1 $-1 $47 $93 #
ellipse-curve $-1 -1 $-1 1326.9206110642026 1159.4975159940495 7.503331289626658e-12 -6.8763498310066796e-16 4.6098068116594758e-15 1 0.34729635533385828 -1.969615506024446 9.3183600994525355e-15 1 I I #
DXID-attrib $-1 -1 $-1 $48 $32 @18 ASM_EDGE_FROM_STEP @4 5193 #
point $-1 -1 $-1 1371.573314708869 1161.4671315000726 12.699999999997203 #
DXID-attrib $-1 -1 $-1 $51 $33 @18 ASM_EDGE_FROM_STEP @4 5192 #
loop $-1 -1 $-1 $94 $85 $54 #
truecolor-adesk-attrib $-1 -1 $95 $-1 $54 -1024534343 #
face $96 -1 $-1 $97 $98 $3 $-1 $99 reversed single #
loop $-1 -1 $-1 $34 $100 $54 #
plane-surface $-1 -1 $-1 1165.2706110642025 1230.9600159940564 4.8885340220294893e-12 6.8763498310066806e-16 -4.6098068116594766e-15 -1 1.8752777108943516e-13 -25.399999999999995 1.1708909301615081e-13 forward_v I I I I #
DXID-attrib $-1 -1 $-1 $58 $40 @18 ASM_FACE_FROM_STEP @16 step-1M-587-8459 #
truecolor-adesk-attrib $-1 -1 $101 $-1 $59 -1024534343 #
face $102 -1 $-1 $103 $104 $3 $-1 $105 forward single #
loop $-1 -1 $-1 $-1 $106 $59 #
cone-surface $-1 -1 $-1 958.62061106419151 1159.4975159940516 -5.2295945351943374e-12 -4.8837535013689954e-15 7.4072191571716503e-15 1 0.34729635533385828 -1.969615506024446 1.6285483499861029e-14 1 I I 0 1 2.0000000000000289 forward I I I I #
coedge $-1 -1 $-1 $82 $82 $107 $108 reversed $60 $-1 #
coedge $-1 -1 $-1 $107 $62 $84 $109 forward $41 $-1 #
coedge $-1 -1 $-1 $62 $107 $83 $109 reversed $41 $-1 #
coedge $-1 -1 $-1 $85 $85 $62 $86 forward $72 $-1 #
edge $110 -1 $-1 $111 -3.1415926535897785 $111 3.1415926535898078 $62 $112 forward @7 unknown #
truecolor-adesk-attrib $-1 -1 $113 $-1 $64 -1024534343 #
vertex $-1 -1 $-1 $65 $114 #
ellipse-curve $-1 -1 $-1 1326.9206110642024 1159.4975159940495 12.699999999994816 -4.683596079770233e-15 8.6974988084717343e-15 1 0.34729635533385828 -1.969615506024446 1.8757324365155218e-14 1 I I #
truecolor-adesk-attrib $-1 -1 $115 $-1 $65 -1024534343 #
straight-curve $-1 -1 $-1 1326.5733147088688 1161.4671315000737 -2.7284841053187847e-12 -1.2564919348250393e-14 1.481443831434349e-14 2.0000000000000289 F 0 F 6.3499999999986798 #
DXID-attrib $-1 -1 $-1 $66 $47 @18 ASM_EDGE_FROM_STEP @4 5194 #
point $-1 -1 $-1 1326.5733147088688 1161.4671315000737 -2.7284841053187847e-12 #
loop $-1 -1 $-1 $116 $117 $54 #
DXID-attrib $-1 -1 $-1 $73 $54 @18 ASM_FACE_FROM_STEP @16 step-1M-587-8467 #
truecolor-adesk-attrib $-1 -1 $118 $-1 $74 -1024534343 #
face $119 -1 $-1 $120 $121 $3 $-1 $122 reversed single #
loop $-1 -1 $-1 $123 $124 $74 #
plane-surface $-1 -1 $-1 1165.2706110642025 1230.9600159940564 19.05000000000507 6.8763498310066806e-16 -4.6098068116594766e-15 -1 1.8752777108943516e-13 -25.399999999999995 1.1708909301615081e-13 forward_v I I I I #
coedge $-1 -1 $-1 $125 $126 $127 $128 forward $75 $-1 #
DXID-attrib $-1 -1 $-1 $78 $59 @18 ASM_FACE_FROM_STEP @16 step-1M-587-8460 #
truecolor-adesk-attrib $-1 -1 $129 $-1 $79 -1024534343 #
face $130 -1 $-1 $131 $132 $3 $-1 $133 reversed single #
loop $-1 -1 $-1 $-1 $134 $79 #
plane-surface $-1 -1 $-1 958.62061106419151 1159.4975159940516 12.699999999994816 4.683596079770233e-15 -8.6974988084717343e-15 -1 4.410663712739936 -25.014116926510095 2.382180194374678e-13 forward_v I I I I #
coedge $-1 -1 $-1 $135 $136 $117 $137 reversed $80 $-1 #
coedge $-1 -1 $-1 $84 $83 $82 $108 forward $41 $-1 #
edge $138 -1 $-1 $139 -3.1415926535897785 $139 3.1415926535898078 $107 $140 forward @7 unknown #
edge $141 -1 $-1 $111 0 $139 6.3499999999999588 $83 $142 forward @7 unknown #
truecolor-adesk-attrib $-1 -1 $143 $-1 $86 -1024534343 #
vertex $-1 -1 $-1 $86 $144 #
ellipse-curve $-1 -1 $-1 1003.6206110641928 1159.4975159940504 4.8885340220294893e-12 -6.8763498310066796e-16 4.6098068116594758e-15 1 0.34729635533385828 -1.969615506024446 9.3183600994525355e-15 1 I I #
DXID-attrib $-1 -1 $-1 $87 $64 @18 ASM_EDGE_FROM_STEP @4 5196 #
point $-1 -1 $-1 1326.5733147088688 1161.4671315000737 12.699999999994816 #
DXID-attrib $-1 -1 $-1 $90 $65 @18 ASM_EDGE_FROM_STEP @4 5195 #
loop $-1 -1 $-1 $145 $146 $54 #
coedge $-1 -1 $-1 $117 $117 $106 $137 forward $94 $-1 #
DXID-attrib $-1 -1 $-1 $96 $74 @18 ASM_FACE_FROM_STEP @16 step-1M-587-8468 #
truecolor-adesk-attrib $-1 -1 $147 $-1 $97 -1024534343 #
face $148 -1 $-1 $149 $150 $3 $-1 $151 reversed single #
loop $-1 -1 $-1 $-1 $152 $97 #
plane-surface $-1 -1 $-1 1431.9706110642032 1230.9600159940587 9.5250000000049795 -1 -7.5772721430666934e-15 -6.8763498310063266e-16 1.746592857075695e-14 -1.1708909301615071e-13 -25.399999999999995 forward_v I I I I #
loop $-1 -1 $-1 $-1 $153 $74 #
coedge $-1 -1 $-1 $154 $155 $156 $157 forward $98 $-1 #
coedge $-1 -1 $-1 $158 $100 $159 $160 forward $75 $-1 #
coedge $-1 -1 $-1 $100 $158 $161 $162 forward $75 $-1 #
coedge $-1 -1 $-1 $163 $164 $100 $128 reversed $165 $-1 #
edge $166 -1 $-1 $167 -26.670000000000002 $168 26.670000000000055 $100 $169 forward @7 unknown #
DXID-attrib $-1 -1 $-1 $102 $79 @18 ASM_FACE_FROM_STEP @16 step-1M-587-8461 #
truecolor-adesk-attrib $-1 -1 $170 $-1 $103 -1024534343 #
face $171 -1 $-1 $172 $173 $3 $-1 $174 forward single #
loop $-1 -1 $-1 $-1 $175 $103 #
cone-surface $-1 -1 $-1 981.12061106420015 1149.9975159940504 2.3874235921539366e-12 -4.5729299074231945e-15 7.718042751117456e-15 1 3.0389472980778094 -17.234726562365431 1.469152493986189e-13 1 I I 0 1 17.50059999999997 forward I I I I #
coedge $-1 -1 $-1 $134 $134 $176 $177 reversed $104 $-1 #
coedge $-1 -1 $-1 $176 $106 $136 $178 forward $80 $-1 #
coedge $-1 -1 $-1 $106 $176 $135 $178 reversed $80 $-1 #
edge $179 -1 $-1 $180 -3.1415926535897785 $180 3.1415926535898078 $106 $181 forward @7 unknown #
truecolor-adesk-attrib $-1 -1 $182 $-1 $108 -1024534343 #
vertex $-1 -1 $-1 $109 $183 #
ellipse-curve $-1 -1 $-1 1003.6206110641928 1159.4975159940504 12.699999999994816 -4.683596079770233e-15 8.6974988084717343e-15 1 0.34729635533385828 -1.969615506024446 1.8757324365155218e-14 1 I I #
truecolor-adesk-attrib $-1 -1 $184 $-1 $109 -1024534343 #
straight-curve $-1 -1 $-1 1003.2733147088589 1161.4671315000746 -5.2295945351943374e-12 -9.7675070027381313e-15 1.4814438314343512e-14 2.0000000000000289 F 0 F 6.3499999999999588 #
DXID-attrib $-1 -1 $-1 $110 $86 @18 ASM_EDGE_FROM_STEP @4 5197 #
point $-1 -1 $-1 1003.2733147088589 1161.4671315000746 -5.2295945351943374e-12 #
loop $-1 -1 $-1 $185 $186 $54 #
coedge $-1 -1 $-1 $146 $146 $175 $187 forward $116 $-1 #
DXID-attrib $-1 -1 $-1 $119 $97 @18 ASM_FACE_FROM_STEP @16 step-1M-587-8469 #
truecolor-adesk-attrib $-1 -1 $188 $-1 $120 -1024534343 #
face $189 -1 $-1 $190 $191 $3 $-1 $192 reversed single #
loop $-1 -1 $-1 $-1 $193 $120 #
plane-surface $-1 -1 $-1 1165.2706110642025 1332.5600159940559 9.5250000000049795 7.5772721430666934e-15 -1 4.6098068116594774e-15 -1.7465928570756965e-14 1.1708909301615058e-13 25.399999999999995 forward_v I I I I #
coedge $-1 -1 $-1 $194 $161 $195 $196 forward $121 $-1 #
coedge $-1 -1 $-1 $153 $153 $197 $198 forward $123 $-1 #
coedge $-1 -1 $-1 $199 $124 $194 $200 forward $98 $-1 #
coedge $-1 -1 $-1 $124 $199 $201 $202 forward $98 $-1 #
coedge $-1 -1 $-1 $164 $163 $124 $157 reversed $165 $-1 #
edge $203 -1 $-1 $204 -26.670000000000055 $205 26.670000000000002 $124 $206 forward @7 unknown #
coedge $-1 -1 $-1 $126 $125 $207 $208 forward $75 $-1 #
coedge $-1 -1 $-1 $209 $210 $125 $160 reversed $191 $-1 #
edge $211 -1 $-1 $168 -10.159999999999949 $212 10.159999999999904 $125 $213 forward @7 unknown #
coedge $-1 -1 $-1 $152 $214 $126 $162 reversed $121 $-1 #
edge $215 -1 $-1 $216 -10.159999999999934 $167 10.159999999999929 $126 $217 forward @7 unknown #
coedge $-1 -1 $-1 $156 $127 $214 $218 forward $165 $-1 #
coedge $-1 -1 $-1 $127 $156 $209 $219 reversed $165 $-1 #
loop $-1 -1 $-1 $-1 $163 $190 #
truecolor-adesk-attrib $-1 -1 $220 $-1 $128 -1024534343 #
vertex $-1 -1 $-1 $128 $221 #
vertex $-1 -1 $-1 $128 $222 #
straight-curve $-1 -1 $-1 1165.2706110642039 1129.3600159940574 7.503331289626658e-12 -10 -7.4024120166882287e-14 -6.8763498310063331e-15 F -26.670000000000002 F 26.670000000000055 #
DXID-attrib $-1 -1 $-1 $130 $103 @18 ASM_FACE_FROM_STEP @16 step-1M-587-8462 #
truecolor-adesk-attrib $-1 -1 $223 $-1 $131 -1024534343 #
face $224 -1 $-1 $225 $226 $3 $-1 $227 reversed single #
loop $-1 -1 $-1 $-1 $228 $131 #
plane-surface $-1 -1 $-1 981.12061106420015 1149.9975159940504 11.430000000002337 4.6835960797703757e-15 -8.6974988084716791e-15 -1 4.4106637127399333 -25.014116926510095 2.3821801943746705e-13 forward_v I I I I #
coedge $-1 -1 $-1 $229 $230 $146 $187 reversed $132 $-1 #
coedge $-1 -1 $-1 $136 $135 $134 $177 forward $80 $-1 #
edge $231 -1 $-1 $232 -3.1415926535897785 $232 3.1415926535898078 $176 $233 forward @7 unknown #
edge $234 -1 $-1 $180 0 $232 6.3499999999999588 $135 $235 forward @7 unknown #
truecolor-adesk-attrib $-1 -1 $236 $-1 $137 -1024534343 #
vertex $-1 -1 $-1 $137 $237 #
ellipse-curve $-1 -1 $-1 958.62061106419151 1159.4975159940516 4.8885340220294893e-12 -6.8763498310066796e-16 4.6098068116594758e-15 1 0.34729635533385828 -1.969615506024446 9.3183600994525355e-15 1 I I #
DXID-attrib $-1 -1 $-1 $138 $108 @18 ASM_EDGE_FROM_STEP @4 5199 #
point $-1 -1 $-1 1003.2733147088589 1161.4671315000746 12.699999999994816 #
DXID-attrib $-1 -1 $-1 $141 $109 @18 ASM_EDGE_FROM_STEP @4 5198 #
loop $-1 -1 $-1 $-1 $238 $54 #
coedge $-1 -1 $-1 $186 $186 $239 $240 forward $145 $-1 #
edge $241 -1 $-1 $242 -3.141592653589778 $242 3.1415926535898082 $175 $243 forward @7 unknown #
DXID-attrib $-1 -1 $-1 $148 $120 @18 ASM_FACE_FROM_STEP @16 step-1M-587-8470 #
truecolor-adesk-attrib $-1 -1 $244 $-1 $149 -1024534343 #
face $245 -1 $-1 $-1 $165 $3 $-1 $246 reversed single #
loop $-1 -1 $-1 $-1 $209 $149 #
plane-surface $-1 -1 $-1 898.5706110642044 1230.9600159940546 9.5250000000049795 1 7.5772721430666934e-15 6.8763498310063266e-16 -1.746592857075695e-14 1.1708909301615071e-13 25.399999999999995 forward_v I I I I #
coedge $-1 -1 $-1 $247 $207 $210 $248 forward $150 $-1 #
coedge $-1 -1 $-1 $214 $152 $154 $200 reversed $121 $-1 #
coedge $-1 -1 $-1 $207 $247 $152 $196 reversed $150 $-1 #
edge $249 -1 $-1 $216 -0.95250000000000012 $250 0.95250000000000012 $152 $251 forward @7 unknown #
coedge $-1 -1 $-1 $252 $253 $153 $198 reversed $254 $-1 #
edge $255 -1 $-1 $256 -3.1415926535897225 $256 3.1415926535898637 $197 $257 forward @7 unknown #
coedge $-1 -1 $-1 $155 $154 $247 $258 forward $98 $-1 #
edge $259 -1 $-1 $205 -10.159999999999929 $250 10.159999999999934 $154 $260 forward @7 unknown #
coedge $-1 -1 $-1 $210 $209 $155 $202 reversed $191 $-1 #
edge $261 -1 $-1 $262 -10.159999999999904 $204 10.159999999999949 $155 $263 forward @7 unknown #
truecolor-adesk-attrib $-1 -1 $264 $-1 $157 -1024534343 #
vertex $-1 -1 $-1 $157 $265 #
vertex $-1 -1 $-1 $157 $266 #
straight-curve $-1 -1 $-1 1165.2706110642039 1129.3600159940574 19.050000000007572 10 7.4024120166882287e-14 6.8763498310063331e-15 F -26.670000000000055 F 26.670000000000002 #
coedge $-1 -1 $-1 $193 $195 $158 $208 reversed $150 $-1 #
edge $267 -1 $-1 $212 -26.669999999999987 $216 26.670000000000005 $158 $268 forward @7 unknown #
coedge $-1 -1 $-1 $201 $159 $164 $219 forward $191 $-1 #
coedge $-1 -1 $-1 $159 $201 $193 $248 reversed $191 $-1 #
truecolor-adesk-attrib $-1 -1 $269 $-1 $160 -1024534343 #
vertex $-1 -1 $-1 $160 $270 #
straight-curve $-1 -1 $-1 898.5706110642044 1230.9600159940546 4.8885340220294893e-12 -7.4024120166882287e-14 10 -4.6098068116594811e-14 F -10.159999999999949 F 10.159999999999904 #
coedge $-1 -1 $-1 $161 $194 $163 $218 reversed $121 $-1 #
truecolor-adesk-attrib $-1 -1 $271 $-1 $162 -1024534343 #
vertex $-1 -1 $-1 $208 $272 #
straight-curve $-1 -1 $-1 1431.9706110642032 1230.9600159940587 4.8885340220294893e-12 7.4024120166882287e-14 -10 4.6098068116594811e-14 F -10.159999999999934 F 10.159999999999929 #
edge $273 -1 $-1 $167 -0.95250000000000012 $205 0.95250000000000012 $214 $274 forward @7 unknown #
edge $275 -1 $-1 $168 -0.95250000000025592 $204 0.95250000000000012 $209 $276 forward @7 unknown #
DXID-attrib $-1 -1 $-1 $166 $128 @18 ASM_EDGE_FROM_STEP @4 5212 #
point $-1 -1 $-1 1431.9706110642037 1129.3600159940595 7.503331289626658e-12 #
point $-1 -1 $-1 898.57061106420338 1129.3600159940552 4.8885340220294893e-12 #
DXID-attrib $-1 -1 $-1 $171 $131 @18 ASM_FACE_FROM_STEP @16 step-1M-587-8463 #
truecolor-adesk-attrib $-1 -1 $277 $-1 $172 -1024534343 #
face $278 -1 $-1 $279 $280 $3 $-1 $281 forward single #
loop $-1 -1 $-1 $-1 $239 $172 #
cone-surface $-1 -1 $-1 1349.4206110642049 1149.9975159940527 2.3874235921539366e-12 -6.9041068620166999e-15 7.7180427511174339e-15 1 3.0389472980778094 -17.234726562365431 1.539995733061217e-13 1 I I 0 1 17.50059999999997 forward I I I I #
coedge $-1 -1 $-1 $228 $228 $282 $283 reversed $173 $-1 #
coedge $-1 -1 $-1 $282 $175 $230 $284 forward $132 $-1 #
coedge $-1 -1 $-1 $175 $282 $229 $284 reversed $132 $-1 #
truecolor-adesk-attrib $-1 -1 $285 $-1 $177 -1024534343 #
vertex $-1 -1 $-1 $178 $286 #
ellipse-curve $-1 -1 $-1 958.62061106419151 1159.4975159940516 12.699999999994816 -4.683596079770233e-15 8.6974988084717343e-15 1 0.34729635533385828 -1.969615506024446 1.8757324365155218e-14 1 I I #
truecolor-adesk-attrib $-1 -1 $287 $-1 $178 -1024534343 #
straight-curve $-1 -1 $-1 958.2733147088577 1161.4671315000755 -5.2295945351943374e-12 -9.7675070027381313e-15 1.4814438314343512e-14 2.0000000000000289 F 0 F 6.3499999999999588 #
DXID-attrib $-1 -1 $-1 $179 $137 @18 ASM_EDGE_FROM_STEP @4 5200 #
point $-1 -1 $-1 958.2733147088577 1161.4671315000755 -5.2295945351943374e-12 #
coedge $-1 -1 $-1 $238 $238 $288 $289 forward $185 $-1 #
coedge $-1 -1 $-1 $290 $291 $186 $240 reversed $226 $-1 #
edge $292 -1 $-1 $293 -3.1415926535897922 $293 3.141592653589794 $239 $294 forward @7 unknown #
truecolor-adesk-attrib $-1 -1 $295 $-1 $187 -1024534343 #
vertex $-1 -1 $-1 $187 $296 #
ellipse-curve $-1 -1 $-1 981.12061106420015 1149.9975159940504 4.8885340220294893e-12 -6.8763498310066806e-16 4.6098068116594766e-15 1 3.0389472980778094 -17.234726562365431 8.1538446378238219e-14 1 I I #
DXID-attrib $-1 -1 $-1 $189 $149 @18 ASM_FACE_FROM_STEP @16 step-1M-587-8471 #
truecolor-adesk-attrib $-1 -1 $297 $-1 $190 -1024534343 #
plane-surface $-1 -1 $-1 1165.2706110642039 1129.3600159940574 9.5250000000075943 -7.5772721430666934e-15 1 -4.6098068116594774e-15 1.7465928570756965e-14 -1.1708909301615058e-13 -25.399999999999995 forward_v I I I I #
coedge $-1 -1 $-1 $195 $193 $199 $258 reversed $150 $-1 #
edge $298 -1 $-1 $212 -0.95250000000000012 $262 0.95250000000000012 $193 $299 forward @7 unknown #
truecolor-adesk-attrib $-1 -1 $300 $-1 $196 -1024534343 #
vertex $-1 -1 $-1 $200 $301 #
straight-curve $-1 -1 $-1 1431.9706110642026 1332.5600159940582 9.5250000000049795 -6.8763498310066834e-15 4.6098068116594785e-14 10.000000000000004 F -0.95250000000000012 F 0.95250000000000012 #
coedge $-1 -1 $-1 $288 $197 $253 $302 forward $254 $-1 #
coedge $-1 -1 $-1 $197 $288 $252 $302 reversed $254 $-1 #
loop $-1 -1 $-1 $-1 $197 $279 #
truecolor-adesk-attrib $-1 -1 $303 $-1 $198 -1024534343 #
vertex $-1 -1 $-1 $198 $304 #
ellipse-curve $-1 -1 $-1 1165.2706110642025 1300.8100159940575 19.05000000000507 6.8763498310066806e-16 -4.6098068116594782e-15 -1 -12.699999999999998 -9.3763885544717578e-14 -8.7329642853780488e-15 1 I I #
edge $305 -1 $-1 $250 -26.670000000000005 $262 26.669999999999987 $199 $306 forward @7 unknown #
truecolor-adesk-attrib $-1 -1 $307 $-1 $200 -1024534343 #
straight-curve $-1 -1 $-1 1431.9706110642032 1230.9600159940587 19.05000000000507 -7.4024120166882287e-14 10 -4.6098068116594811e-14 F -10.159999999999929 F 10.159999999999934 #
truecolor-adesk-attrib $-1 -1 $308 $-1 $202 -1024534343 #
vertex $-1 -1 $-1 $258 $309 #
straight-curve $-1 -1 $-1 898.5706110642044 1230.9600159940546 19.05000000000507 7.4024120166882287e-14 -10 4.6098068116594811e-14 F -10.159999999999904 F 10.159999999999949 #
DXID-attrib $-1 -1 $-1 $203 $157 @18 ASM_EDGE_FROM_STEP @4 5216 #
point $-1 -1 $-1 898.57061106420338 1129.3600159940552 19.050000000007572 #
point $-1 -1 $-1 1431.9706110642037 1129.3600159940595 19.050000000007572 #
truecolor-adesk-attrib $-1 -1 $310 $-1 $208 -1024534343 #
straight-curve $-1 -1 $-1 1165.2706110642025 1332.5600159940559 4.8885340220294893e-12 10 7.4024120166882287e-14 6.8763498310063331e-15 F -26.669999999999987 F 26.670000000000005 #
DXID-attrib $-1 -1 $-1 $211 $160 @18 ASM_EDGE_FROM_STEP @4 5213 #
point $-1 -1 $-1 898.57061106420269 1332.5600159940536 4.8885340220294893e-12 #
DXID-attrib $-1 -1 $-1 $215 $162 @18 ASM_EDGE_FROM_STEP @4 5215 #
point $-1 -1 $-1 1431.9706110642026 1332.5600159940582 4.8885340220294893e-12 #
truecolor-adesk-attrib $-1 -1 $311 $-1 $218 -1024534343 #
straight-curve $-1 -1 $-1 1431.9706110642037 1129.3600159940595 9.5250000000075943 -6.8763498310066834e-15 4.6098068116594785e-14 10.000000000000004 F -0.95250000000000012 F 0.95250000000000012 #
truecolor-adesk-attrib $-1 -1 $312 $-1 $219 -1024534343 #
straight-curve $-1 -1 $-1 898.57061106420338 1129.3600159940552 9.5250000000075943 -6.8763498310066834e-15 4.6098068116594785e-14 10.000000000000004 F -0.95250000000025592 F 0.95250000000000012 #
DXID-attrib $-1 -1 $-1 $224 $172 @18 ASM_FACE_FROM_STEP @16 step-1M-587-8464 #
truecolor-adesk-attrib $-1 -1 $313 $-1 $225 -1024534343 #
face $314 -1 $-1 $54 $254 $3 $-1 $315 reversed single #
loop $-1 -1 $-1 $-1 $316 $225 #
plane-surface $-1 -1 $-1 1349.4206110642049 1149.9975159940527 11.430000000002337 4.6835960797703757e-15 -8.6974988084716791e-15 -1 4.4106637127399333 -25.014116926510095 2.3821801943746705e-13 forward_v I I I I #
coedge $-1 -1 $-1 $230 $229 $228 $283 forward $132 $-1 #
edge $317 -1 $-1 $318 -3.141592653589778 $318 3.1415926535898082 $282 $319 forward @7 unknown #
edge $320 -1 $-1 $242 0 $318 0.65312046444122052 $229 $321 forward @7 unknown #
DXID-attrib $-1 -1 $-1 $231 $177 @18 ASM_EDGE_FROM_STEP @4 5202 #
point $-1 -1 $-1 958.2733147088577 1161.4671315000755 12.699999999994816 #
DXID-attrib $-1 -1 $-1 $234 $178 @18 ASM_EDGE_FROM_STEP @4 5201 #
coedge $-1 -1 $-1 $253 $252 $238 $289 reversed $254 $-1 #
edge $322 -1 $-1 $323 -3.1415926535898637 $323 3.1415926535897225 $288 $324 forward @7 unknown #
coedge $-1 -1 $-1 $325 $239 $291 $326 forward $226 $-1 #
coedge $-1 -1 $-1 $239 $325 $290 $326 reversed $226 $-1 #
truecolor-adesk-attrib $-1 -1 $327 $-1 $240 -1024534343 #
vertex $-1 -1 $-1 $240 $328 #
ellipse-curve $-1 -1 $-1 1349.4206110642049 1149.9975159940527 7.503331289626658e-12 -6.8763498310066806e-16 4.6098068116594766e-15 1 3.0389472980778094 -17.234726562365431 8.1538446378238219e-14 1 I I #
DXID-attrib $-1 -1 $-1 $241 $187 @18 ASM_EDGE_FROM_STEP @4 5203 #
point $-1 -1 $-1 978.08166376612201 1167.2322425564159 2.3874235921539366e-12 #
DXID-attrib $-1 -1 $-1 $245 $190 @18 ASM_FACE_FROM_STEP @16 step-1M-587-8472 #
truecolor-adesk-attrib $-1 -1 $329 $-1 $248 -1024534343 #
straight-curve $-1 -1 $-1 898.57061106420269 1332.5600159940536 9.5250000000049795 -6.8763498310066834e-15 4.6098068116594785e-14 10.000000000000004 F -0.95250000000000012 F 0.95250000000000012 #
DXID-attrib $-1 -1 $-1 $249 $196 @18 ASM_EDGE_FROM_STEP @4 5220 #
point $-1 -1 $-1 1431.9706110642026 1332.5600159940582 19.05000000000507 #
edge $330 -1 $-1 $256 0 $323 1.5000000000000009 $252 $331 forward @7 unknown #
DXID-attrib $-1 -1 $-1 $255 $198 @18 ASM_EDGE_FROM_STEP @4 5209 #
point $-1 -1 $-1 1177.9706110642026 1300.8100159940568 19.05000000000507 #
truecolor-adesk-attrib $-1 -1 $332 $-1 $258 -1024534343 #
straight-curve $-1 -1 $-1 1165.2706110642025 1332.5600159940559 19.05000000000507 -10 -7.4024120166882287e-14 -6.8763498310063331e-15 F -26.670000000000005 F 26.669999999999987 #
DXID-attrib $-1 -1 $-1 $259 $200 @18 ASM_EDGE_FROM_STEP @4 5217 #
DXID-attrib $-1 -1 $-1 $261 $202 @18 ASM_EDGE_FROM_STEP @4 5219 #
point $-1 -1 $-1 898.57061106420269 1332.5600159940536 19.05000000000507 #
DXID-attrib $-1 -1 $-1 $267 $208 @18 ASM_EDGE_FROM_STEP @4 5214 #
DXID-attrib $-1 -1 $-1 $273 $218 @18 ASM_EDGE_FROM_STEP @4 5221 #
DXID-attrib $-1 -1 $-1 $275 $219 @18 ASM_EDGE_FROM_STEP @4 5223 #
DXID-attrib $-1 -1 $-1 $278 $225 @18 ASM_FACE_FROM_STEP @16 step-1M-587-8465 #
truecolor-adesk-attrib $-1 -1 $333 $-1 $279 -1024534343 #
cone-surface $-1 -1 $-1 1165.2706110642025 1300.8100159940575 19.05000000000507 6.8763498310066806e-16 -4.6098068116594782e-15 -1 -12.699999999999998 -9.3763885544717578e-14 -8.7329642853780488e-15 1 I I 0 1 12.699999999999998 forward I I I I #
coedge $-1 -1 $-1 $316 $316 $325 $334 reversed $280 $-1 #
truecolor-adesk-attrib $-1 -1 $335 $-1 $283 -1024534343 #
vertex $-1 -1 $-1 $284 $336 #
ellipse-curve $-1 -1 $-1 981.12061106420015 1149.9975159940504 11.430000000002337 -4.683596079770375e-15 8.6974988084716806e-15 1 3.0389472980778094 -17.234726562365431 1.6413221539241454e-13 1 I I #
truecolor-adesk-attrib $-1 -1 $337 $-1 $284 -1024534343 #
straight-curve $-1 -1 $-1 978.08166376612201 1167.2322425564159 2.3874235921539366e-12 -8.0029017137850232e-14 1.3507037897020594e-13 17.50059999999997 F 0 F 0.65312046444122052 #
truecolor-adesk-attrib $-1 -1 $338 $-1 $289 -1024534343 #
vertex $-1 -1 $-1 $302 $339 #
ellipse-curve $-1 -1 $-1 1165.2706110642025 1300.8100159940575 4.8885340220294893e-12 -6.8763498310066806e-16 4.6098068116594782e-15 1 -12.699999999999998 -9.3763885544717578e-14 -8.7329642853780488e-15 1 I I #
coedge $-1 -1 $-1 $291 $290 $316 $334 forward $226 $-1 #
edge $340 -1 $-1 $293 0 $341 0.65312046444122052 $290 $342 forward @7 unknown #
DXID-attrib $-1 -1 $-1 $292 $240 @18 ASM_EDGE_FROM_STEP @4 5206 #
point $-1 -1 $-1 1346.3816637661271 1167.2322425564182 2.3874235921539366e-12 #
DXID-attrib $-1 -1 $-1 $298 $248 @18 ASM_EDGE_FROM_STEP @4 5222 #
truecolor-adesk-attrib $-1 -1 $343 $-1 $302 -1024534343 #
straight-curve $-1 -1 $-1 1177.9706110642026 1300.8100159940568 19.05000000000507 8.7329642853784827e-15 -5.8544546508075355e-14 -12.699999999999998 F 0 F 1.5000000000000009 #
DXID-attrib $-1 -1 $-1 $305 $258 @18 ASM_EDGE_FROM_STEP @4 5218 #
DXID-attrib $-1 -1 $-1 $314 $279 @18 ASM_FACE_FROM_STEP @16 step-1M-587-8466 #
edge $344 -1 $-1 $341 -3.141592653589778 $341 3.1415926535898082 $325 $345 forward @7 unknown #
DXID-attrib $-1 -1 $-1 $317 $283 @18 ASM_EDGE_FROM_STEP @4 5205 #
point $-1 -1 $-1 978.08166376612201 1167.2322425564159 11.430000000002337 #
DXID-attrib $-1 -1 $-1 $320 $284 @18 ASM_EDGE_FROM_STEP @4 5204 #
DXID-attrib $-1 -1 $-1 $322 $289 @18 ASM_EDGE_FROM_STEP @4 5211 #
point $-1 -1 $-1 1177.9706110642026 1300.8100159940568 4.8885340220294893e-12 #
truecolor-adesk-attrib $-1 -1 $346 $-1 $326 -1024534343 #
vertex $-1 -1 $-1 $326 $347 #
straight-curve $-1 -1 $-1 1346.3816637661271 1167.2322425564182 2.3874235921539366e-12 -1.2082601254940925e-13 1.3507037897020553e-13 17.50059999999997 F 0 F 0.65312046444122052 #
DXID-attrib $-1 -1 $-1 $330 $302 @18 ASM_EDGE_FROM_STEP @4 5210 #
truecolor-adesk-attrib $-1 -1 $348 $-1 $334 -1024534343 #
ellipse-curve $-1 -1 $-1 1349.4206110642049 1149.9975159940527 11.430000000002337 -4.683596079770375e-15 8.6974988084716806e-15 1 3.0389472980778094 -17.234726562365431 1.6413221539241454e-13 1 I I #
DXID-attrib $-1 -1 $-1 $340 $326 @18 ASM_EDGE_FROM_STEP @4 5207 #
point $-1 -1 $-1 1346.3816637661268 1167.232242556418 11.430000000002337 #
DXID-attrib $-1 -1 $-1 $344 $334 @18 ASM_EDGE_FROM_STEP @4 5208 #
