700 141 1 0         
16 Autodesk AutoCAD 20 ASM 229.2.0.65535 NT 24 Wed Mar  6 06:46:36 2024 
1 9.999999999999999547e-07 1.000000000000000036e-10 
body $1 -1 $-1 $2 $-1 $3 #
DXID-attrib $-1 -1 $-1 $-1 $0 @18 ASM_BODY_FROM_STEP @83 1A9C4C654BCE3AFF210D98616D8991BCE1B1A7E8|:|1817F654752E9CF1A78D11D3004C9A5611698275 #
lump $-1 -1 $-1 $-1 $4 $0 #
transform $-1 -1 1 0 0 0 1 0 0 0 1 0 0 0 1 no_rotate no_reflect no_shear #
shell $-1 -1 $-1 $-1 $-1 $5 $-1 $2 #
face $6 -1 $-1 $7 $8 $4 $-1 $9 forward single #
truecolor-adesk-attrib $-1 -1 $10 $-1 $5 -1028410445 #
face $11 -1 $-1 $12 $13 $4 $-1 $14 forward single #
loop $-1 -1 $-1 $-1 $15 $5 #
plane-surface $-1 -1 $-1 2438.400000000010095 -7.105427357601011956e-13 19.05000000000019966 -2.151057110211249918e-16 -1 2.210685600907069975e-16 -25.39999999999999503 5.463685059936574344e-15 6.418123021071565086e-30 forward_v I I I I #
color-adesk-attrib $-1 -1 $16 $6 $5 253 #
truecolor-adesk-attrib $-1 -1 $17 $-1 $7 -1028410445 #
face $18 -1 $-1 $19 $20 $4 $-1 $21 forward single #
loop $-1 -1 $-1 $-1 $22 $7 #
plane-surface $-1 -1 $-1 2438.400000000010095 2438.399999999996908 19.05000000000141824 1 -2.151057110211249918e-16 4.338770815164520144e-17 -5.463685059936572766e-15 -25.39999999999999503 -1.271464071025735732e-14 forward_v I I I I #
coedge $-1 -1 $-1 $23 $24 $25 $26 reversed $8 $-1 #
DXID-attrib $-1 -1 $-1 $10 $5 @18 ASM_FACE_FROM_STEP @16 step-1M-549-3607 #
color-adesk-attrib $-1 -1 $27 $11 $7 253 #
truecolor-adesk-attrib $-1 -1 $28 $-1 $12 -1028410445 #
face $29 -1 $-1 $30 $31 $4 $-1 $32 forward single #
loop $-1 -1 $-1 $-1 $33 $12 #
plane-surface $-1 -1 $-1 1219.200000000009823 2438.399999999996908 19.05000000000141824 2.151057110211249918e-16 1 -2.210685600907069975e-16 25.39999999999999503 -5.463685059936574344e-15 -6.418123021071565086e-30 forward_v I I I I #
coedge $-1 -1 $-1 $34 $35 $36 $37 reversed $13 $-1 #
coedge $-1 -1 $-1 $38 $15 $39 $40 forward $8 $-1 #
coedge $-1 -1 $-1 $15 $38 $34 $41 reversed $8 $-1 #
coedge $-1 -1 $-1 $36 $42 $15 $26 forward $43 $-1 #
edge $44 -1 $-1 $45 0 $46 121.9199999999999591 $15 $47 forward @7 unknown #
DXID-attrib $-1 -1 $-1 $17 $7 @18 ASM_FACE_FROM_STEP @16 step-1M-549-3608 #
color-adesk-attrib $-1 -1 $48 $18 $12 253 #
truecolor-adesk-attrib $-1 -1 $49 $-1 $19 -1028410445 #
face $50 -1 $-1 $51 $43 $4 $-1 $52 forward single #
loop $-1 -1 $-1 $-1 $53 $19 #
plane-surface $-1 -1 $-1 1219.200000000009823 -1.421085471520199867e-13 19.05000000000019966 -1 2.151057110211249918e-16 -4.338770815164520144e-17 5.463685059936572766e-15 25.39999999999999503 1.271464071025735732e-14 forward_v I I I I #
coedge $-1 -1 $-1 $54 $55 $56 $57 reversed $20 $-1 #
coedge $-1 -1 $-1 $58 $22 $24 $41 forward $13 $-1 #
coedge $-1 -1 $-1 $22 $58 $54 $59 reversed $13 $-1 #
coedge $-1 -1 $-1 $56 $25 $22 $37 forward $43 $-1 #
edge $60 -1 $-1 $46 0 $61 243.8399999999996908 $22 $62 forward @7 unknown #
coedge $-1 -1 $-1 $24 $23 $63 $64 reversed $8 $-1 #
coedge $-1 -1 $-1 $53 $65 $23 $40 reversed $31 $-1 #
edge $66 -1 $-1 $45 0 $67 0.2539999999999996705 $23 $68 forward @7 unknown #
edge $69 -1 $-1 $46 0 $70 0.2539999999999996705 $24 $71 forward @7 unknown #
coedge $-1 -1 $-1 $25 $56 $53 $72 forward $43 $-1 #
loop $-1 -1 $-1 $-1 $42 $30 #
truecolor-adesk-attrib $-1 -1 $73 $-1 $26 -1028410445 #
vertex $-1 -1 $-1 $26 $74 #
vertex $-1 -1 $-1 $26 $75 #
straight-curve $-1 -1 $-1 1219.200000000009823 -4.263256414560592532e-13 19.05000000000019966 10.00000000000000355 -2.151057110211251052e-15 -2.526820087036050987e-30 F 0 F 121.9199999999999591 #
DXID-attrib $-1 -1 $-1 $28 $12 @18 ASM_FACE_FROM_STEP @16 step-1M-549-3609 #
color-adesk-attrib $-1 -1 $76 $29 $19 253 #
truecolor-adesk-attrib $-1 -1 $77 $-1 $30 -1028410445 #
face $78 -1 $-1 $-1 $79 $4 $-1 $80 forward single #
plane-surface $-1 -1 $-1 1828.800000000010186 1219.199999999999818 19.05000000000081073 1.479114197289399982e-31 -5.005764059156439649e-16 1 -25.39999999999999503 5.463685059936574344e-15 6.491941891473124536e-30 forward_v I I I I #
coedge $-1 -1 $-1 $81 $39 $42 $72 reversed $31 $-1 #
coedge $-1 -1 $-1 $82 $33 $35 $59 forward $20 $-1 #
coedge $-1 -1 $-1 $33 $82 $81 $83 reversed $20 $-1 #
coedge $-1 -1 $-1 $42 $36 $33 $57 forward $43 $-1 #
edge $84 -1 $-1 $61 0 $85 121.9199999999999591 $33 $86 forward @7 unknown #
coedge $-1 -1 $-1 $35 $34 $87 $88 reversed $13 $-1 #
edge $89 -1 $-1 $61 0 $90 0.2539999999999998925 $35 $91 forward @7 unknown #
truecolor-adesk-attrib $-1 -1 $92 $-1 $37 -1028410445 #
vertex $-1 -1 $-1 $37 $93 #
straight-curve $-1 -1 $-1 2438.400000000010095 -5.68434188608079038e-13 19.05000000000019966 2.151057110211251052e-15 10.00000000000000355 5.005764059156442213e-15 F 0 F 243.8399999999996908 #
coedge $-1 -1 $-1 $94 $87 $38 $64 forward $79 $-1 #
edge $95 -1 $-1 $70 -121.9199999999999591 $67 0 $38 $96 forward @7 unknown #
coedge $-1 -1 $-1 $39 $81 $94 $97 reversed $31 $-1 #
truecolor-adesk-attrib $-1 -1 $98 $-1 $40 -1028410445 #
vertex $-1 -1 $-1 $40 $99 #
straight-curve $-1 -1 $-1 1219.200000000009823 -4.263256414560592532e-13 19.05000000000019966 4.338770815164512255e-16 -2.210685600907070961e-15 -10.00000000000000355 F 0 F 0.2539999999999996705 #
truecolor-adesk-attrib $-1 -1 $100 $-1 $41 -1028410445 #
vertex $-1 -1 $-1 $64 $101 #
straight-curve $-1 -1 $-1 2438.400000000010095 -5.68434188608079038e-13 19.05000000000019966 4.338770815164512255e-16 -2.210685600907070961e-15 -10.00000000000000355 F 0 F 0.2539999999999996705 #
edge $102 -1 $-1 $85 -0 $45 243.8399999999999181 $53 $103 forward @7 unknown #
color-adesk-attrib $-1 -1 $104 $44 $26 253 #
point $-1 -1 $-1 1219.200000000009823 -4.263256414560592532e-13 19.05000000000019966 #
point $-1 -1 $-1 2438.400000000010095 -5.68434188608079038e-13 19.05000000000019966 #
DXID-attrib $-1 -1 $-1 $49 $19 @18 ASM_FACE_FROM_STEP @16 step-1M-549-3610 #
color-adesk-attrib $-1 -1 $105 $50 $30 253 #
truecolor-adesk-attrib $-1 -1 $106 $-1 $51 -1028410445 #
loop $-1 -1 $-1 $-1 $94 $51 #
plane-surface $-1 -1 $-1 1828.800000000010186 1219.199999999999818 16.51000000000172463 4.338770815164510283e-17 -2.210685600907069975e-16 -1 3.908383625019427234e-15 25.39999999999999503 -5.615141426303957599e-15 forward_v I I I I #
coedge $-1 -1 $-1 $65 $53 $55 $83 forward $31 $-1 #
coedge $-1 -1 $-1 $55 $54 $107 $108 reversed $20 $-1 #
edge $109 -1 $-1 $85 0 $110 0.2539999999999998925 $55 $111 forward @7 unknown #
truecolor-adesk-attrib $-1 -1 $112 $-1 $57 -1028410445 #
vertex $-1 -1 $-1 $57 $113 #
straight-curve $-1 -1 $-1 2438.400000000010095 2438.399999999996908 19.05000000000141824 -10.00000000000000355 2.151057110211251052e-15 2.526820087036050987e-30 F 0 F 121.9199999999999591 #
coedge $-1 -1 $-1 $63 $107 $58 $88 forward $79 $-1 #
edge $114 -1 $-1 $90 -243.8399999999996908 $70 -0 $58 $115 forward @7 unknown #
truecolor-adesk-attrib $-1 -1 $116 $-1 $59 -1028410445 #
vertex $-1 -1 $-1 $88 $117 #
straight-curve $-1 -1 $-1 2438.400000000010095 2438.399999999996908 19.05000000000141824 4.338770815164512255e-16 -2.210685600907070961e-15 -10.00000000000000355 F 0 F 0.2539999999999998925 #
color-adesk-attrib $-1 -1 $118 $60 $37 253 #
point $-1 -1 $-1 2438.400000000010095 2438.399999999996908 19.05000000000141824 #
coedge $-1 -1 $-1 $107 $63 $65 $97 forward $79 $-1 #
truecolor-adesk-attrib $-1 -1 $119 $-1 $64 -1028410445 #
straight-curve $-1 -1 $-1 1219.200000000009823 -4.263256414560592532e-13 16.51000000000020407 -10.00000000000000355 2.151057110211251052e-15 2.526820087036050987e-30 F -121.9199999999999591 F 0 #
edge $120 -1 $-1 $67 -243.8399999999999181 $110 0 $65 $121 forward @7 unknown #
color-adesk-attrib $-1 -1 $122 $66 $40 253 #
point $-1 -1 $-1 1219.200000000009823 -4.263256414560592532e-13 16.51000000000020407 #
color-adesk-attrib $-1 -1 $123 $69 $41 253 #
point $-1 -1 $-1 2438.400000000010095 -5.68434188608079038e-13 16.51000000000020407 #
truecolor-adesk-attrib $-1 -1 $124 $-1 $72 -1028410445 #
straight-curve $-1 -1 $-1 1219.200000000009823 2438.399999999999636 19.05000000000141824 -2.151057110211251052e-15 -10.00000000000000355 -5.005764059156442213e-15 F -0 F 243.8399999999999181 #
DXID-attrib $-1 -1 $-1 $73 $26 @18 ASM_EDGE_FROM_STEP @4 2381 #
DXID-attrib $-1 -1 $-1 $77 $30 @18 ASM_FACE_FROM_STEP @16 step-1M-549-3611 #
color-adesk-attrib $-1 -1 $125 $78 $51 253 #
coedge $-1 -1 $-1 $87 $94 $82 $108 forward $79 $-1 #
edge $126 -1 $-1 $110 -121.9199999999999591 $90 0 $82 $127 forward @7 unknown #
truecolor-adesk-attrib $-1 -1 $128 $-1 $83 -1028410445 #
vertex $-1 -1 $-1 $108 $129 #
straight-curve $-1 -1 $-1 1219.200000000009823 2438.399999999999636 19.05000000000141824 4.338770815164512255e-16 -2.210685600907070961e-15 -10.00000000000000355 F 0 F 0.2539999999999998925 #
color-adesk-attrib $-1 -1 $130 $84 $57 253 #
point $-1 -1 $-1 1219.200000000009823 2438.399999999999636 19.05000000000141824 #
truecolor-adesk-attrib $-1 -1 $131 $-1 $88 -1028410445 #
straight-curve $-1 -1 $-1 2438.400000000010095 -5.68434188608079038e-13 16.51000000000020407 -2.151057110211251052e-15 -10.00000000000000355 -5.005764059156442213e-15 F -243.8399999999996908 F -0 #
color-adesk-attrib $-1 -1 $132 $89 $59 253 #
point $-1 -1 $-1 2438.400000000010095 2438.399999999996908 16.5100000000014191 #
DXID-attrib $-1 -1 $-1 $92 $37 @18 ASM_EDGE_FROM_STEP @4 2385 #
color-adesk-attrib $-1 -1 $133 $95 $64 253 #
truecolor-adesk-attrib $-1 -1 $134 $-1 $97 -1028410445 #
straight-curve $-1 -1 $-1 1219.200000000009823 2438.399999999999636 16.5100000000014191 2.151057110211251052e-15 10.00000000000000355 5.005764059156442213e-15 F -243.8399999999999181 F 0 #
DXID-attrib $-1 -1 $-1 $98 $40 @18 ASM_EDGE_FROM_STEP @4 2382 #
DXID-attrib $-1 -1 $-1 $100 $41 @18 ASM_EDGE_FROM_STEP @4 2384 #
color-adesk-attrib $-1 -1 $135 $102 $72 253 #
DXID-attrib $-1 -1 $-1 $106 $51 @18 ASM_FACE_FROM_STEP @16 step-1M-549-3612 #
truecolor-adesk-attrib $-1 -1 $136 $-1 $108 -1028410445 #
straight-curve $-1 -1 $-1 2438.400000000010095 2438.399999999996908 16.5100000000014191 10.00000000000000355 -2.151057110211251052e-15 -2.526820087036050987e-30 F -121.9199999999999591 F 0 #
color-adesk-attrib $-1 -1 $137 $109 $83 253 #
point $-1 -1 $-1 1219.200000000009823 2438.399999999999636 16.5100000000014191 #
DXID-attrib $-1 -1 $-1 $112 $57 @18 ASM_EDGE_FROM_STEP @4 2388 #
color-adesk-attrib $-1 -1 $138 $114 $88 253 #
DXID-attrib $-1 -1 $-1 $116 $59 @18 ASM_EDGE_FROM_STEP @4 2387 #
DXID-attrib $-1 -1 $-1 $119 $64 @18 ASM_EDGE_FROM_STEP @4 2383 #
color-adesk-attrib $-1 -1 $139 $120 $97 253 #
DXID-attrib $-1 -1 $-1 $124 $72 @18 ASM_EDGE_FROM_STEP @4 2391 #
color-adesk-attrib $-1 -1 $140 $126 $108 253 #
DXID-attrib $-1 -1 $-1 $128 $83 @18 ASM_EDGE_FROM_STEP @4 2390 #
DXID-attrib $-1 -1 $-1 $131 $88 @18 ASM_EDGE_FROM_STEP @4 2386 #
DXID-attrib $-1 -1 $-1 $134 $97 @18 ASM_EDGE_FROM_STEP @4 2392 #
DXID-attrib $-1 -1 $-1 $136 $108 @18 ASM_EDGE_FROM_STEP @4 2389 #
