700 731 1 0         
5 ZWCAD 12 ACIS 28.0 NT 24 Sat May 11 17:08:05 2024 
1 9.9999999999999995e-07 1e-10 
body $1 -1 $-1 $2 $-1 $-1 #
DXID-attrib $-1 -1 $-1 $-1 $0 @18 ASM_BODY_FROM_STEP @83 1ED5E6045E3D5A2B80862CAD69810F866580645B|:|6E19996B3307052B3DCA675570386138392D75B3 #
lump $-1 -1 $-1 $-1 $3 $0 #
shell $-1 -1 $-1 $-1 $-1 $4 $-1 $2 #
face $5 -1 $-1 $6 $7 $3 $-1 $8 forward single #
truecolor-adesk-attrib $-1 -1 $9 $-1 $4 -1056964608 #
face $10 -1 $-1 $11 $12 $3 $-1 $13 reversed single #
loop $-1 -1 $-1 $-1 $14 $4 #
cone-surface $-1 -1 $-1 3198.9385561170711 -2527.7368297970074 5.5511151231257827e-14 -0.85564655496712694 -0.5175605983581899 -5.5523228784859602e-17 2.5878029917909511 -4.2782327748356366 -3.0814879110195782e-31 1 I I 0 1 5.0000000000000018 forward I I I I #
fmesh-eye-attrib $-1 -1 $15 $5 $4 #
truecolor-adesk-attrib $-1 -1 $16 $-1 $6 -1056964608 #
face $17 -1 $-1 $18 $19 $3 $-1 $20 forward single #
loop $-1 -1 $-1 $-1 $21 $6 #
cone-surface $-1 -1 $-1 2914.2735081725159 -2057.1201167667377 -4.2531447680563019e-12 -0.85564655496712694 -0.51756059835818979 0 207.02423934327598 -342.25862198685087 0 1 I I 0 1 400.00000000000011 forward I I I I #
coedge $-1 -1 $-1 $22 $23 $24 $25 reversed $7 $-1 #
DXID-attrib $-1 -1 $-1 $9 $4 @18 ASM_FACE_FROM_STEP @17 step-2M-560-19384 #
fmesh-eye-attrib $-1 -1 $26 $10 $6 #
truecolor-adesk-attrib $-1 -1 $27 $-1 $11 -1056964608 #
face $28 -1 $-1 $29 $30 $3 $-1 $31 reversed single #
loop $-1 -1 $-1 $-1 $32 $11 #
cone-surface $-1 -1 $-1 2986.0120749656307 -3262.2200932223391 80.000000000000085 0 1 -6.123233995736766e-17 0 1.2246467991473535e-15 20.000000000000004 1 I I 0 1 20.000000000000004 forward I I I I #
coedge $-1 -1 $-1 $33 $34 $35 $36 reversed $12 $-1 #
coedge $-1 -1 $-1 $37 $14 $38 $39 forward $7 $-1 #
coedge $-1 -1 $-1 $14 $37 $40 $41 reversed $7 $-1 #
coedge $-1 -1 $-1 $42 $43 $14 $25 forward $44 $-1 #
edge $45 -1 $-1 $46 -3.1415926535897931 $47 -2.0483935180309629 $14 $48 forward @7 unknown #
DXID-attrib $-1 -1 $-1 $16 $6 @18 ASM_FACE_FROM_STEP @16 step-2M-560-4743 #
fmesh-eye-attrib $-1 -1 $49 $17 $11 #
truecolor-adesk-attrib $-1 -1 $50 $-1 $18 -1056964608 #
face $51 -1 $-1 $52 $53 $3 $-1 $54 forward single #
loop $-1 -1 $-1 $-1 $55 $18 #
plane-surface $-1 -1 $-1 2966.0120749656307 -3262.2200932223391 80.000000000000085 1 0 0 0 0 -1 forward_v I I I I #
coedge $-1 -1 $-1 $56 $57 $58 $59 forward $19 $-1 #
coedge $-1 -1 $-1 $60 $21 $61 $62 forward $12 $-1 #
coedge $-1 -1 $-1 $21 $63 $64 $65 forward $12 $-1 #
coedge $-1 -1 $-1 $66 $67 $21 $36 forward $44 $-1 #
edge $68 -1 $-1 $69 -3.1415926535897931 $70 -2.9450492806933224 $21 $71 forward @7 unknown #
coedge $-1 -1 $-1 $23 $22 $72 $73 reversed $7 $-1 #
coedge $-1 -1 $-1 $74 $75 $22 $39 reversed $76 $-1 #
edge $77 -1 $-1 $46 0 $78 0.01000000000000003 $22 $79 forward @7 unknown #
coedge $-1 -1 $-1 $80 $81 $23 $41 forward $82 $-1 #
edge $83 -1 $-1 $47 0 $84 0.0099999999999998319 $23 $85 forward @7 unknown #
coedge $-1 -1 $-1 $86 $24 $81 $87 forward $44 $-1 #
coedge $-1 -1 $-1 $24 $88 $74 $89 forward $44 $-1 #
loop $-1 -1 $-1 $-1 $42 $90 #
truecolor-adesk-attrib $-1 -1 $91 $-1 $25 -1056964608 #
vertex $-1 -1 $-1 $25 $92 #
vertex $-1 -1 $-1 $25 $93 #
ellipse-curve $-1 -1 $-1 3198.9385561170711 -2527.7368297970074 5.5511151231257827e-14 0.85564655496712694 0.51756059835818979 0 -2.5878029917909502 4.2782327748356366 0 1 F -3.1415926535897931 F -2.0483935180309629 #
DXID-attrib $-1 -1 $-1 $27 $11 @18 ASM_FACE_FROM_STEP @17 step-2M-560-20952 #
fmesh-eye-attrib $-1 -1 $94 $28 $18 #
truecolor-adesk-attrib $-1 -1 $95 $-1 $29 -1056964608 #
face $96 -1 $-1 $97 $98 $3 $-1 $99 reversed single #
loop $-1 -1 $-1 $-1 $100 $29 #
cone-surface $-1 -1 $-1 2986.0120749656307 -3262.2200932223391 -79.999999999999915 0 1 -6.1232339957367648e-17 0 1.2246467991473538e-15 20.000000000000011 1 I I 0 1 20.000000000000014 forward I I I I #
coedge $-1 -1 $-1 $101 $102 $103 $104 forward $30 $-1 #
coedge $-1 -1 $-1 $105 $32 $102 $106 reversed $19 $-1 #
coedge $-1 -1 $-1 $32 $105 $107 $108 forward $19 $-1 #
coedge $-1 -1 $-1 $109 $103 $32 $59 reversed $110 $-1 #
edge $111 -1 $-1 $112 -3.1415926535897931 $113 -1.5707963267948966 $32 $114 forward @7 unknown #
coedge $-1 -1 $-1 $63 $33 $115 $116 forward $12 $-1 #
coedge $-1 -1 $-1 $117 $118 $33 $62 reversed $119 $-1 #
edge $120 -1 $-1 $69 0 $121 0.010000000000000038 $33 $122 forward @7 unknown #
coedge $-1 -1 $-1 $34 $60 $123 $124 forward $12 $-1 #
coedge $-1 -1 $-1 $125 $126 $34 $65 reversed $127 $-1 #
edge $128 -1 $-1 $129 -0.0099999999999999169 $70 0 $34 $130 forward @7 unknown #
coedge $-1 -1 $-1 $88 $35 $126 $131 forward $44 $-1 #
coedge $-1 -1 $-1 $35 $86 $117 $132 forward $44 $-1 #
truecolor-adesk-attrib $-1 -1 $133 $-1 $36 -1056964608 #
vertex $-1 -1 $-1 $36 $134 #
vertex $-1 -1 $-1 $36 $135 #
ellipse-curve $-1 -1 $-1 2914.2735081725159 -2057.1201167667377 -4.2531447680563019e-12 -0.85564655496712694 -0.51756059835818979 0 -207.02423934327598 342.25862198685087 0 1 F -3.1415926535897931 F -2.9450492806933224 #
coedge $-1 -1 $-1 $136 $137 $37 $73 forward $138 $-1 #
edge $139 -1 $-1 $84 2.0483935180309509 $78 3.1415926535897523 $37 $140 forward @7 unknown #
coedge $-1 -1 $-1 $141 $38 $43 $89 reversed $76 $-1 #
coedge $-1 -1 $-1 $38 $141 $136 $142 reversed $76 $-1 #
loop $-1 -1 $-1 $-1 $38 $143 #
truecolor-adesk-attrib $-1 -1 $144 $-1 $39 -1056964608 #
vertex $-1 -1 $-1 $39 $145 #
straight-curve $-1 -1 $-1 3201.5263591088624 -2532.0150625718434 5.5511151231257827e-14 -855.64655496712692 -517.56059835818985 -5.5523228784859587e-14 F 0 F 0.01000000000000003 #
coedge $-1 -1 $-1 $146 $40 $147 $148 forward $82 $-1 #
coedge $-1 -1 $-1 $40 $146 $42 $87 reversed $82 $-1 #
loop $-1 -1 $-1 $-1 $80 $149 #
truecolor-adesk-attrib $-1 -1 $150 $-1 $41 -1056964608 #
vertex $-1 -1 $-1 $73 $151 #
straight-curve $-1 -1 $-1 3200.1280308741289 -2529.703304797858 -4.4405096411733593 -855.64655496712703 -517.56059835818985 0 F 0 F 0.0099999999999998319 #
coedge $-1 -1 $-1 $67 $42 $152 $153 forward $44 $-1 #
edge $154 -1 $-1 $47 -0.1826356255652751 $155 -0.010571743282325545 $81 $156 forward @7 unknown #
coedge $-1 -1 $-1 $43 $66 $157 $158 forward $44 $-1 #
edge $159 -1 $-1 $160 2.0483935180309616 $46 3.1415926535897931 $43 $161 forward @7 unknown #
face $162 -1 $-1 $163 $44 $3 $-1 $164 forward single #
DXID-attrib $-1 -1 $-1 $45 $25 @18 ASM_EDGE_FROM_STEP @5 33114 #
point $-1 -1 $-1 3201.5263591088624 -2532.0150625718434 5.5511151231257827e-14 #
point $-1 -1 $-1 3200.1280308741289 -2529.703304797858 -4.4405096411733593 #
DXID-attrib $-1 -1 $-1 $50 $18 @18 ASM_FACE_FROM_STEP @17 step-2M-560-31603 #
fmesh-eye-attrib $-1 -1 $165 $51 $29 #
truecolor-adesk-attrib $-1 -1 $166 $-1 $52 -1056964608 #
face $167 -1 $-1 $168 $169 $3 $-1 $170 forward single #
loop $-1 -1 $-1 $-1 $171 $52 #
plane-surface $-1 -1 $-1 2986.0120749656307 -3262.2200932223391 -99.999999999999929 0 6.123233995736766e-17 1 0 -1 6.123233995736766e-17 forward_v I I I I #
coedge $-1 -1 $-1 $172 $173 $174 $175 forward $53 $-1 #
coedge $-1 -1 $-1 $176 $55 $173 $177 reversed $30 $-1 #
coedge $-1 -1 $-1 $55 $176 $56 $106 forward $30 $-1 #
coedge $-1 -1 $-1 $58 $174 $55 $104 reversed $110 $-1 #
edge $178 -1 $-1 $113 0 $179 0.16 $55 $180 forward @7 unknown #
coedge $-1 -1 $-1 $57 $56 $181 $182 reversed $19 $-1 #
edge $183 -1 $-1 $184 0 $113 0.02 $56 $185 forward @7 unknown #
coedge $-1 -1 $-1 $186 $187 $57 $108 reversed $188 $-1 #
edge $189 -1 $-1 $190 0 $112 0.02 $57 $191 forward @7 unknown #
coedge $-1 -1 $-1 $192 $58 $187 $193 reversed $110 $-1 #
loop $-1 -1 $-1 $194 $58 $195 #
truecolor-adesk-attrib $-1 -1 $196 $-1 $59 -1056964608 #
vertex $-1 -1 $-1 $59 $197 #
vertex $-1 -1 $-1 $59 $198 #
ellipse-curve $-1 -1 $-1 2986.0120749656307 -3242.2200932223391 80.000000000000085 0 -1 6.1232339957367648e-17 0 -1.2246467991473538e-15 -20.000000000000011 1 F -3.1415926535897931 F -1.5707963267948966 #
coedge $-1 -1 $-1 $199 $200 $60 $116 reversed $201 $-1 #
edge $202 -1 $-1 $121 -3.1415926535897931 $203 -2.9511993646239514 $60 $204 forward @7 unknown #
coedge $-1 -1 $-1 $205 $61 $67 $132 reversed $119 $-1 #
coedge $-1 -1 $-1 $61 $206 $199 $207 forward $119 $-1 #
loop $-1 -1 $-1 $-1 $61 $208 #
truecolor-adesk-attrib $-1 -1 $209 $-1 $62 -1056964608 #
vertex $-1 -1 $-1 $62 $210 #
straight-curve $-1 -1 $-1 3121.2977475157913 -2399.378738753589 -4.2531447680563019e-12 -855.64655496712703 -517.56059835818985 0 F 0 F 0.010000000000000038 #
coedge $-1 -1 $-1 $211 $212 $63 $124 reversed $213 $-1 #
edge $214 -1 $-1 $203 -2.9511993646239514 $129 -2.9450492806933224 $63 $215 forward @7 unknown #
coedge $-1 -1 $-1 $216 $64 $212 $217 reversed $127 $-1 #
coedge $-1 -1 $-1 $64 $216 $66 $131 reversed $127 $-1 #
loop $-1 -1 $-1 $-1 $126 $218 #
truecolor-adesk-attrib $-1 -1 $219 $-1 $65 -1056964608 #
vertex $-1 -1 $-1 $124 $220 #
straight-curve $-1 -1 $-1 3117.312002421615 -2392.7893865702345 78.112170387498523 855.64655496712703 517.56059835818985 0 F -0.0099999999999999169 F 0 #
edge $221 -1 $-1 $70 -0.19654337289647328 $222 2.048393518030946 $66 $223 forward @7 unknown #
edge $224 -1 $-1 $225 2.9450492806933415 $69 3.1415926535897931 $117 $226 forward @7 unknown #
DXID-attrib $-1 -1 $-1 $68 $36 @18 ASM_EDGE_FROM_STEP @5 26764 #
point $-1 -1 $-1 3121.2977475157913 -2399.378738753589 -4.2531447680563019e-12 #
point $-1 -1 $-1 3117.312002421615 -2392.7893865702345 78.112170387498509 #
coedge $-1 -1 $-1 $227 $72 $75 $142 forward $138 $-1 #
coedge $-1 -1 $-1 $72 $227 $228 $229 reversed $138 $-1 #
loop $-1 -1 $-1 $-1 $137 $230 #
truecolor-adesk-attrib $-1 -1 $231 $-1 $73 -1056964608 #
ellipse-curve $-1 -1 $-1 3190.3820905674002 -2532.9124357805895 5.4955918943409236e-14 -0.85564655496712694 -0.51756059835818979 0 -2.5878029917909502 4.2782327748356366 -2.0428103653102883e-13 1 F 2.0483935180309509 F 3.1415926535897523 #
coedge $-1 -1 $-1 $75 $74 $232 $233 reversed $76 $-1 #
edge $234 -1 $-1 $78 -3.1415926535897878 $235 -2.0483935180309825 $136 $236 forward @7 unknown #
face $237 -1 $-1 $-1 $76 $3 $-1 $238 forward single #
DXID-attrib $-1 -1 $-1 $77 $39 @18 ASM_EDGE_FROM_STEP @5 20345 #
point $-1 -1 $-1 3192.9698935591914 -2537.1906685554254 5.4955918943409236e-14 #
coedge $-1 -1 $-1 $81 $80 $239 $240 forward $82 $-1 #
coedge $-1 -1 $-1 $228 $241 $80 $148 reversed $242 $-1 #
edge $243 -1 $-1 $84 -0.18263562556527513 $244 -0.010571743282325545 $147 $245 forward @7 unknown #
face $246 -1 $-1 $90 $82 $3 $-1 $247 reversed single #
DXID-attrib $-1 -1 $-1 $83 $41 @18 ASM_EDGE_FROM_STEP @5 15305 #
point $-1 -1 $-1 3191.5715653244579 -2534.8789107814396 -4.4405096411733593 #
coedge $-1 -1 $-1 $239 $248 $86 $153 reversed $249 $-1 #
edge $250 -1 $-1 $155 -2.048393518030974 $225 0.1965433728964576 $86 $251 forward @7 unknown #
truecolor-adesk-attrib $-1 -1 $252 $-1 $87 -1056964608 #
vertex $-1 -1 $-1 $240 $253 #
straight-curve $-1 -1 $-1 3116.1801928669847 -2390.9182453949393 -88.388347648318785 -459.64656538020802 759.90135535367415 -459.64656538021359 F -0.1826356255652751 F -0.010571743282325545 #
coedge $-1 -1 $-1 $254 $232 $88 $158 reversed $255 $-1 #
edge $256 -1 $-1 $222 -0.18172458677989436 $160 -0.0096607044969439313 $157 $257 forward @7 unknown #
truecolor-adesk-attrib $-1 -1 $258 $-1 $89 -1056964608 #
vertex $-1 -1 $-1 $158 $259 #
ellipse-curve $-1 -1 $-1 3198.9385561170711 -2527.7368297970074 5.5511151231257827e-14 0.85564655496712694 0.51756059835818979 0 -2.5878029917909502 4.2782327748356366 0 1 F 2.0483935180309616 F 3.1415926535897931 #
truecolor-adesk-attrib $-1 -1 $260 $-1 $90 -1056964608 #
face $261 -1 $-1 $262 $201 $3 $-1 $263 reversed single #
plane-surface $-1 -1 $-1 2914.2735081725159 -2057.1201167667377 -4.2531447680563019e-12 0.85564655496712694 0.5175605983581899 0 -0.5175605983581899 0.85564655496712705 0 forward_v I I I I #
DXID-attrib $-1 -1 $-1 $95 $29 @18 ASM_FACE_FROM_STEP @16 step-2M-560-8088 #
fmesh-eye-attrib $-1 -1 $264 $96 $52 #
truecolor-adesk-attrib $-1 -1 $265 $-1 $97 -1056964608 #
face $266 -1 $-1 $267 $268 $3 $-1 $269 reversed single #
loop $-1 -1 $-1 $-1 $270 $97 #
cone-surface $-1 -1 $-1 3196.0120749656307 -3262.2200932223391 -79.999999999999915 0 1 -6.1232339957367648e-17 0 1.2246467991473538e-15 20.000000000000011 1 I I 0 1 20.000000000000014 forward I I I I #
coedge $-1 -1 $-1 $271 $272 $273 $274 forward $98 $-1 #
coedge $-1 -1 $-1 $275 $100 $272 $276 reversed $53 $-1 #
coedge $-1 -1 $-1 $100 $275 $101 $177 forward $53 $-1 #
coedge $-1 -1 $-1 $103 $273 $100 $175 reversed $110 $-1 #
edge $277 -1 $-1 $179 -1.5707963267948966 $278 0 $100 $279 forward @7 unknown #
coedge $-1 -1 $-1 $102 $101 $280 $281 reversed $30 $-1 #
edge $282 -1 $-1 $283 0 $179 0.02 $101 $284 forward @7 unknown #
truecolor-adesk-attrib $-1 -1 $285 $-1 $104 -1056964608 #
vertex $-1 -1 $-1 $104 $286 #
straight-curve $-1 -1 $-1 2966.0120749656307 -3242.2200932223391 80.000000000000085 0 0 -1000 F 0 F 0.16 #
coedge $-1 -1 $-1 $280 $287 $105 $182 forward $288 $-1 #
edge $289 -1 $-1 $190 -3.1415926535897931 $184 -1.5707963267948966 $105 $290 forward @7 unknown #
truecolor-adesk-attrib $-1 -1 $291 $-1 $106 -1056964608 #
vertex $-1 -1 $-1 $106 $292 #
straight-curve $-1 -1 $-1 2966.0120749656307 -3262.2200932223391 80.000000000000085 0 1000 -6.1232339957367675e-14 F 0 F 0.02 #
coedge $-1 -1 $-1 $293 $107 $287 $294 reversed $188 $-1 #
coedge $-1 -1 $-1 $107 $293 $109 $193 forward $188 $-1 #
loop $-1 -1 $-1 $-1 $187 $295 #
truecolor-adesk-attrib $-1 -1 $296 $-1 $108 -1056964608 #
vertex $-1 -1 $-1 $182 $297 #
straight-curve $-1 -1 $-1 2986.0120749656307 -3262.2200932223391 100.00000000000009 0 1000 -6.1232339957367675e-14 F 0 F 0.02 #
coedge $-1 -1 $-1 $298 $109 $299 $300 reversed $110 $-1 #
edge $301 -1 $-1 $302 -0.20999999999999999 $112 0 $187 $303 forward @7 unknown #
loop $-1 -1 $-1 $-1 $304 $195 #
face $305 -1 $-1 $306 $110 $3 $-1 $307 reversed single #
DXID-attrib $-1 -1 $-1 $111 $59 @18 ASM_EDGE_FROM_STEP @4 8559 #
point $-1 -1 $-1 2986.0120749656307 -3242.2200932223391 100.00000000000009 #
point $-1 -1 $-1 2966.0120749656307 -3242.2200932223391 80.000000000000085 #
coedge $-1 -1 $-1 $308 $115 $118 $207 reversed $201 $-1 #
coedge $-1 -1 $-1 $115 $309 $310 $311 reversed $201 $-1 #
loop $-1 -1 $-1 $-1 $308 $163 #
truecolor-adesk-attrib $-1 -1 $312 $-1 $116 -1056964608 #
vertex $-1 -1 $-1 $116 $313 #
ellipse-curve $-1 -1 $-1 2905.7170426228449 -2062.2957227503198 -4.2531447680563019e-12 -0.85564655496712694 -0.51756059835818979 0 -207.02423934327598 342.25862198685087 0 1 F -3.1415926535897931 F -2.9511993646239514 #
coedge $-1 -1 $-1 $206 $117 $248 $314 forward $119 $-1 #
coedge $-1 -1 $-1 $118 $205 $315 $316 forward $119 $-1 #
edge $317 -1 $-1 $318 2.9511993646239718 $121 3.1415926535897931 $118 $319 forward @7 unknown #
face $320 -1 $-1 $321 $119 $3 $-1 $322 reversed single #
DXID-attrib $-1 -1 $-1 $120 $62 @18 ASM_EDGE_FROM_STEP @5 36428 #
point $-1 -1 $-1 3112.7412819661204 -2404.5543447371706 -4.2531447680563019e-12 #
coedge $-1 -1 $-1 $323 $123 $324 $325 reversed $213 $-1 #
coedge $-1 -1 $-1 $123 $326 $125 $217 forward $213 $-1 #
loop $-1 -1 $-1 $-1 $123 $327 #
truecolor-adesk-attrib $-1 -1 $328 $-1 $124 -1056964608 #
ellipse-curve $-1 -1 $-1 2905.7170426228449 -2062.2957227503198 -4.2531447680563019e-12 -0.85564655496712694 -0.51756059835818979 0 -207.02423934327598 342.25862198685087 0 1 F -2.9511993646239514 F -2.9450492806933224 #
coedge $-1 -1 $-1 $126 $125 $254 $329 reversed $127 $-1 #
edge $330 -1 $-1 $331 -2.0483935180309381 $129 0.19654337289648161 $212 $332 forward @7 unknown #
face $333 -1 $-1 $143 $127 $3 $-1 $334 forward single #
DXID-attrib $-1 -1 $-1 $128 $65 @18 ASM_EDGE_FROM_STEP @4 1053 #
point $-1 -1 $-1 3108.7555368719431 -2397.964992553816 78.112170387498509 #
truecolor-adesk-attrib $-1 -1 $335 $-1 $131 -1056964608 #
vertex $-1 -1 $-1 $158 $336 #
ellipse-curve $-1 -1 $-1 3119.8499835997281 -2396.9852524427779 79.0885725173423 0.85564655496712694 0.51756059835818979 0 -2.5878029917909502 4.2782327748356366 0 1 F -0.19654337289647328 F 2.048393518030946 #
truecolor-adesk-attrib $-1 -1 $337 $-1 $132 -1056964608 #
vertex $-1 -1 $-1 $132 $338 #
ellipse-curve $-1 -1 $-1 2914.2735081725159 -2057.1201167667377 -4.2531447680563019e-12 -0.85564655496712694 -0.51756059835818979 0 -207.02423934327598 342.25862198685087 0 1 F 2.9450492806933415 F 3.1415926535897931 #
coedge $-1 -1 $-1 $137 $136 $339 $340 reversed $138 $-1 #
coedge $-1 -1 $-1 $341 $147 $137 $229 forward $242 $-1 #
edge $342 -1 $-1 $84 -0.46033685241215316 $343 -0.45067614791520916 $228 $344 forward @7 unknown #
face $345 -1 $-1 $208 $138 $3 $-1 $346 reversed single #
DXID-attrib $-1 -1 $-1 $139 $73 @18 ASM_EDGE_FROM_STEP @5 25095 #
coedge $-1 -1 $-1 $157 $347 $141 $233 forward $255 $-1 #
edge $348 -1 $-1 $235 -0.0099999999999999534 $160 0 $232 $349 forward @7 unknown #
truecolor-adesk-attrib $-1 -1 $350 $-1 $142 -1056964608 #
vertex $-1 -1 $-1 $340 $351 #
ellipse-curve $-1 -1 $-1 3190.3820905674002 -2532.9124357805895 5.4955918943409236e-14 -0.85564655496712694 -0.51756059835818979 -3.944304526105059e-31 -2.5878029917909502 4.2782327748356366 2.6645352591003754e-14 1 F -3.1415926535897878 F -2.0483935180309825 #
truecolor-adesk-attrib $-1 -1 $352 $-1 $143 -1056964608 #
cone-surface $-1 -1 $-1 3198.9385561170711 -2527.7368297970074 5.5511151231257827e-14 -0.85564655496712694 -0.5175605983581899 -5.5523228784859602e-17 2.5878029917909511 -4.2782327748356366 -3.0814879110195782e-31 1 I I 0 1 5.0000000000000018 forward I I I I #
coedge $-1 -1 $-1 $353 $152 $146 $240 reversed $249 $-1 #
edge $354 -1 $-1 $244 -0.0099999999999999915 $155 0 $146 $355 forward @7 unknown #
coedge $-1 -1 $-1 $147 $356 $357 $358 forward $242 $-1 #
loop $-1 -1 $-1 $-1 $356 $359 #
truecolor-adesk-attrib $-1 -1 $360 $-1 $148 -1056964608 #
vertex $-1 -1 $-1 $361 $362 #
straight-curve $-1 -1 $-1 3107.6237273173128 -2396.0938513785209 -88.388347648318785 -459.64656538020802 759.90135535367415 -459.64656538021359 F -0.18263562556527513 F -0.010571743282325545 #
truecolor-adesk-attrib $-1 -1 $363 $-1 $149 -1056964608 #
plane-surface $-1 -1 $-1 3116.1801928669847 -2390.9182453949393 -88.388347648318785 -0.23789495141147021 0.39329500017005203 0.88810192823468925 0 -0.91435216556002019 0.40491989002233675 forward_v I I I I #
coedge $-1 -1 $-1 $152 $353 $205 $314 reversed $249 $-1 #
loop $-1 -1 $-1 $-1 $152 $262 #
truecolor-adesk-attrib $-1 -1 $364 $-1 $153 -1056964608 #
ellipse-curve $-1 -1 $-1 3119.8499835997291 -2396.9852524427793 -79.08857251734311 0.85564655496712694 0.51756059835818979 0 -2.5878029917909502 4.2782327748356366 0 1 F -2.048393518030974 F 0.1965433728964576 #
DXID-attrib $-1 -1 $-1 $154 $87 @18 ASM_EDGE_FROM_STEP @5 34600 #
point $-1 -1 $-1 3121.0394583567868 -2398.9517274436294 -83.529082158516502 #
coedge $-1 -1 $-1 $347 $157 $216 $329 forward $255 $-1 #
loop $-1 -1 $-1 $-1 $157 $321 #
truecolor-adesk-attrib $-1 -1 $365 $-1 $158 -1056964608 #
straight-curve $-1 -1 $-1 3204.5685405153017 -2537.044487238757 1.1933195137154616e-13 459.64656538021006 -759.90135535367801 -459.6465653802062 F -0.18172458677989436 F -0.0096607044969439313 #
DXID-attrib $-1 -1 $-1 $159 $89 @18 ASM_EDGE_FROM_STEP @5 32486 #
point $-1 -1 $-1 3200.1280308741289 -2529.703304797858 4.4405096411735396 #
fmesh-eye-attrib $-1 -1 $366 $162 $90 #
truecolor-adesk-attrib $-1 -1 $367 $-1 $163 -1056964608 #
face $368 -1 $-1 $218 $249 $3 $-1 $369 forward single #
plane-surface $-1 -1 $-1 2905.7170426228449 -2062.2957227503198 -4.2531447680563019e-12 0.85564655496712694 0.5175605983581899 0 -0.5175605983581899 0.85564655496712705 0 forward_v I I I I #
DXID-attrib $-1 -1 $-1 $166 $52 @18 ASM_FACE_FROM_STEP @17 step-2M-560-13646 #
fmesh-eye-attrib $-1 -1 $370 $167 $97 #
truecolor-adesk-attrib $-1 -1 $371 $-1 $168 -1056964608 #
face $372 -1 $-1 $295 $373 $3 $-1 $374 forward single #
loop $-1 -1 $-1 $-1 $375 $168 #
plane-surface $-1 -1 $-1 3216.0120749656307 -3262.2200932223391 80.000000000000085 -1 0 0 0 0 1 forward_v I I I I #
coedge $-1 -1 $-1 $376 $377 $378 $379 forward $169 $-1 #
coedge $-1 -1 $-1 $380 $171 $377 $381 reversed $98 $-1 #
coedge $-1 -1 $-1 $171 $380 $172 $276 forward $98 $-1 #
coedge $-1 -1 $-1 $174 $378 $171 $274 reversed $110 $-1 #
edge $382 -1 $-1 $278 0 $383 0.20999999999999999 $171 $384 forward @7 unknown #
coedge $-1 -1 $-1 $173 $172 $385 $386 reversed $53 $-1 #
edge $387 -1 $-1 $388 0 $278 0.02 $172 $389 forward @7 unknown #
truecolor-adesk-attrib $-1 -1 $390 $-1 $175 -1056964608 #
vertex $-1 -1 $-1 $175 $391 #
ellipse-curve $-1 -1 $-1 2986.0120749656307 -3242.2200932223391 -79.999999999999915 0 -1 6.123233995736766e-17 0 -1.2246467991473535e-15 -20.000000000000004 1 F -1.5707963267948966 F 0 #
coedge $-1 -1 $-1 $385 $181 $176 $281 forward $288 $-1 #
edge $392 -1 $-1 $184 0 $283 0.16 $176 $393 forward @7 unknown #
truecolor-adesk-attrib $-1 -1 $394 $-1 $177 -1056964608 #
vertex $-1 -1 $-1 $177 $395 #
straight-curve $-1 -1 $-1 2966.0120749656307 -3262.2200932223391 -79.999999999999915 0 1000 -6.1232339957367675e-14 F 0 F 0.02 #
DXID-attrib $-1 -1 $-1 $178 $104 @18 ASM_EDGE_FROM_STEP @5 31737 #
point $-1 -1 $-1 2966.0120749656307 -3242.2200932223391 -79.999999999999915 #
coedge $-1 -1 $-1 $181 $396 $186 $294 forward $288 $-1 #
loop $-1 -1 $-1 $-1 $181 $397 #
truecolor-adesk-attrib $-1 -1 $398 $-1 $182 -1056964608 #
ellipse-curve $-1 -1 $-1 2986.0120749656307 -3262.2200932223391 80.000000000000085 0 -1 6.1232339957367648e-17 0 -1.2246467991473538e-15 -20.000000000000011 1 F -3.1415926535897931 F -1.5707963267948966 #
DXID-attrib $-1 -1 $-1 $183 $106 @18 ASM_EDGE_FROM_STEP @4 9990 #
point $-1 -1 $-1 2966.0120749656307 -3262.2200932223391 80.000000000000085 #
coedge $-1 -1 $-1 $187 $186 $399 $400 forward $188 $-1 #
edge $401 -1 $-1 $402 -0.20999999999999999 $190 0 $186 $403 forward @7 unknown #
face $404 -1 $-1 $397 $188 $3 $-1 $405 reversed single #
DXID-attrib $-1 -1 $-1 $189 $108 @18 ASM_EDGE_FROM_STEP @3 810 #
point $-1 -1 $-1 2986.0120749656307 -3262.2200932223391 100.00000000000009 #
coedge $-1 -1 $-1 $378 $192 $375 $406 reversed $110 $-1 #
coedge $-1 -1 $-1 $399 $407 $192 $300 forward $373 $-1 #
edge $408 -1 $-1 $409 -1.5707963267948966 $302 0 $299 $410 forward @7 unknown #
truecolor-adesk-attrib $-1 -1 $411 $-1 $193 -1056964608 #
vertex $-1 -1 $-1 $300 $412 #
straight-curve $-1 -1 $-1 2986.0120749656307 -3242.2200932223391 100.00000000000009 -1000 0 0 F -0.20999999999999999 F 0 #
coedge $-1 -1 $-1 $413 $414 $415 $416 forward $194 $-1 #
truecolor-adesk-attrib $-1 -1 $417 $-1 $195 -1056964608 #
face $418 -1 $-1 $327 $419 $3 $-1 $420 reversed single #
plane-surface $-1 -1 $-1 2986.0120749656307 -3242.2200932223391 80.000000000000085 0 -1 6.123233995736766e-17 0 -6.123233995736766e-17 -1 forward_v I I I I #
coedge $-1 -1 $-1 $309 $199 $421 $422 reversed $201 $-1 #
coedge $-1 -1 $-1 $200 $308 $423 $424 reversed $201 $-1 #
coedge $-1 -1 $-1 $425 $324 $200 $311 forward $426 $-1 #
edge $427 -1 $-1 $203 -0.70238124993025697 $428 -0.5576925835289015 $310 $429 forward @7 unknown #
DXID-attrib $-1 -1 $-1 $202 $116 @18 ASM_EDGE_FROM_STEP @5 26558 #
point $-1 -1 $-1 3109.0003297503954 -2398.3696914118668 75.698036716250513 #
edge $430 -1 $-1 $225 0 $431 0.0099999999999999534 $205 $432 forward @7 unknown #
coedge $-1 -1 $-1 $433 $434 $206 $316 reversed $419 $-1 #
edge $435 -1 $-1 $431 2.9450492806933415 $318 2.9511993646239718 $315 $436 forward @7 unknown #
truecolor-adesk-attrib $-1 -1 $437 $-1 $207 -1056964608 #
vertex $-1 -1 $-1 $316 $438 #
ellipse-curve $-1 -1 $-1 2905.7170426228449 -2062.2957227503198 -4.2531447680563019e-12 -0.85564655496712694 -0.51756059835818979 0 -207.02423934327598 342.25862198685087 0 1 F 2.9511993646239718 F 3.1415926535897931 #
truecolor-adesk-attrib $-1 -1 $439 $-1 $208 -1056964608 #
face $440 -1 $-1 $149 $255 $3 $-1 $441 reversed single #
cone-surface $-1 -1 $-1 2914.2735081725159 -2057.1201167667377 -4.2531447680563019e-12 -0.85564655496712694 -0.51756059835818979 0 207.02423934327598 -342.25862198685087 0 1 I I 0 1 400.00000000000011 forward I I I I #
coedge $-1 -1 $-1 $326 $211 $442 $443 reversed $213 $-1 #
coedge $-1 -1 $-1 $310 $444 $211 $325 forward $426 $-1 #
edge $445 -1 $-1 $446 -0.70537616501668665 $203 -0.70238124993025697 $211 $447 forward @7 unknown #
coedge $-1 -1 $-1 $212 $323 $448 $449 reversed $213 $-1 #
face $450 -1 $-1 $451 $213 $3 $-1 $452 reversed single #
DXID-attrib $-1 -1 $-1 $214 $124 @18 ASM_EDGE_FROM_STEP @5 19018 #
edge $453 -1 $-1 $222 9.6292161616996357e-34 $331 0.010000000000000075 $254 $454 forward @7 unknown #
truecolor-adesk-attrib $-1 -1 $455 $-1 $217 -1056964608 #
vertex $-1 -1 $-1 $449 $456 #
ellipse-curve $-1 -1 $-1 3111.2935180500572 -2402.1608584263599 79.0885725173423 -0.85564655496712694 -0.51756059835818979 7.8886090522101181e-31 -2.5878029917909502 4.2782327748356366 4.163336342344337e-14 1 F -2.0483935180309381 F 0.19654337289648161 #
truecolor-adesk-attrib $-1 -1 $457 $-1 $218 -1056964608 #
cone-surface $-1 -1 $-1 3119.8499835997281 -2396.9852524427779 79.0885725173423 -0.85564655496712694 -0.51756059835818979 0 2.5878029917909502 -4.2782327748356366 0 1 I I 0 1 5.0000000000000018 forward I I I I #
DXID-attrib $-1 -1 $-1 $221 $131 @18 ASM_EDGE_FROM_STEP @5 21623 #
point $-1 -1 $-1 3121.0394583567859 -2398.951727443628 83.529082158515791 #
DXID-attrib $-1 -1 $-1 $224 $132 @18 ASM_EDGE_FROM_STEP @5 30652 #
point $-1 -1 $-1 3117.312002421615 -2392.7893865702358 -78.112170387499418 #
coedge $-1 -1 $-1 $458 $459 $227 $340 forward $460 $-1 #
edge $461 -1 $-1 $343 0.45067614791521193 $235 0.46033685241215599 $339 $462 forward @7 unknown #
coedge $-1 -1 $-1 $415 $228 $459 $463 reversed $242 $-1 #
truecolor-adesk-attrib $-1 -1 $464 $-1 $229 -1056964608 #
vertex $-1 -1 $-1 $463 $465 #
straight-curve $-1 -1 $-1 3403.1638184536396 -2884.6895088486795 207.15174348801085 459.64656538020802 -759.90135535367472 459.64656538021308 F -0.46033685241215316 F -0.45067614791520916 #
truecolor-adesk-attrib $-1 -1 $466 $-1 $230 -1056964608 #
plane-surface $-1 -1 $-1 3105.2805815668044 -2392.2200932223391 -135.00000000000003 -0.85564655496712694 -0.5175605983581899 0 0.5175605983581899 -0.85564655496712705 0 forward_v I I I I #
coedge $-1 -1 $-1 $232 $254 $458 $467 forward $255 $-1 #
truecolor-adesk-attrib $-1 -1 $468 $-1 $233 -1056964608 #
straight-curve $-1 -1 $-1 3200.1280308741289 -2529.703304797858 4.4405096411735396 855.64655496712703 517.56059835818985 4.8134056661279637e-14 F -0.0099999999999999534 F 0 #
DXID-attrib $-1 -1 $-1 $234 $142 @18 ASM_EDGE_FROM_STEP @5 17050 #
point $-1 -1 $-1 3191.571565324457 -2534.8789107814396 4.4405096411735396 #
fmesh-eye-attrib $-1 -1 $469 $237 $143 #
coedge $-1 -1 $-1 $248 $239 $433 $361 reversed $249 $-1 #
truecolor-adesk-attrib $-1 -1 $470 $-1 $240 -1056964608 #
straight-curve $-1 -1 $-1 3121.0394583567868 -2398.9517274436294 -83.529082158516502 855.64655496712703 517.56059835818985 -6.0736112358465908e-15 F -0.0099999999999999915 F 0 #
coedge $-1 -1 $-1 $241 $415 $471 $472 forward $242 $-1 #
coedge $-1 -1 $-1 $473 $433 $241 $358 reversed $419 $-1 #
edge $474 -1 $-1 $475 -0.64297247797742829 $244 -0.63240073469510272 $357 $476 forward @7 unknown #
face $477 -1 $-1 $230 $242 $3 $-1 $478 reversed single #
DXID-attrib $-1 -1 $-1 $243 $148 @18 ASM_EDGE_FROM_STEP @5 30937 #
edge $479 -1 $-1 $431 -0.19654337289642668 $244 2.0483935180309825 $433 $480 forward @7 unknown #
point $-1 -1 $-1 3112.4829928071149 -2404.1273334272114 -83.529082158516502 #
fmesh-eye-attrib $-1 -1 $481 $246 $149 #
DXID-attrib $-1 -1 $-1 $250 $153 @18 ASM_EDGE_FROM_STEP @5 11593 #
DXID-attrib $-1 -1 $-1 $256 $158 @18 ASM_EDGE_FROM_STEP @5 15744 #
DXID-attrib $-1 -1 $-1 $260 $90 @18 ASM_FACE_FROM_STEP @17 step-2M-560-17596 #
fmesh-eye-attrib $-1 -1 $482 $261 $163 #
truecolor-adesk-attrib $-1 -1 $483 $-1 $262 -1056964608 #
cone-surface $-1 -1 $-1 3119.8499835997291 -2396.9852524427793 -79.08857251734311 -0.85564655496712694 -0.51756059835818979 0 2.5878029917909502 -4.2782327748356366 0 1 I I 0 1 5.0000000000000018 forward I I I I #
DXID-attrib $-1 -1 $-1 $265 $97 @18 ASM_FACE_FROM_STEP @16 step-2M-560-2460 #
fmesh-eye-attrib $-1 -1 $484 $266 $168 #
truecolor-adesk-attrib $-1 -1 $485 $-1 $267 -1056964608 #
loop $-1 -1 $-1 $-1 $299 $267 #
cone-surface $-1 -1 $-1 3196.0120749656307 -3262.2200932223391 80.000000000000085 0 1 -6.123233995736766e-17 0 1.2246467991473535e-15 20.000000000000004 1 I I 0 1 20.000000000000004 forward I I I I #
coedge $-1 -1 $-1 $486 $487 $298 $406 forward $268 $-1 #
coedge $-1 -1 $-1 $488 $270 $487 $489 reversed $169 $-1 #
coedge $-1 -1 $-1 $270 $488 $271 $381 forward $169 $-1 #
coedge $-1 -1 $-1 $273 $298 $270 $379 reversed $110 $-1 #
edge $490 -1 $-1 $383 0 $491 1.5707963267948966 $270 $492 forward @7 unknown #
coedge $-1 -1 $-1 $272 $271 $493 $494 reversed $98 $-1 #
edge $495 -1 $-1 $496 0 $383 0.02 $271 $497 forward @7 unknown #
truecolor-adesk-attrib $-1 -1 $498 $-1 $274 -1056964608 #
vertex $-1 -1 $-1 $274 $499 #
straight-curve $-1 -1 $-1 2986.0120749656307 -3242.2200932223391 -99.999999999999929 1000 0 0 F 0 F 0.20999999999999999 #
coedge $-1 -1 $-1 $493 $280 $275 $386 forward $288 $-1 #
edge $500 -1 $-1 $283 -1.5707963267948966 $388 0 $275 $501 forward @7 unknown #
truecolor-adesk-attrib $-1 -1 $502 $-1 $276 -1056964608 #
vertex $-1 -1 $-1 $276 $503 #
straight-curve $-1 -1 $-1 2986.0120749656307 -3262.2200932223391 -99.999999999999929 0 1000 -6.1232339957367675e-14 F 0 F 0.02 #
DXID-attrib $-1 -1 $-1 $277 $175 @18 ASM_EDGE_FROM_STEP @4 2232 #
point $-1 -1 $-1 2986.0120749656307 -3242.2200932223391 -99.999999999999929 #
truecolor-adesk-attrib $-1 -1 $504 $-1 $281 -1056964608 #
straight-curve $-1 -1 $-1 2966.0120749656307 -3262.2200932223391 80.000000000000085 0 0 -1000 F 0 F 0.16 #
DXID-attrib $-1 -1 $-1 $282 $177 @18 ASM_EDGE_FROM_STEP @5 28575 #
point $-1 -1 $-1 2966.0120749656307 -3262.2200932223391 -79.999999999999915 #
coedge $-1 -1 $-1 $287 $505 $506 $507 forward $288 $-1 #
face $508 -1 $-1 $195 $288 $3 $-1 $509 forward single #
DXID-attrib $-1 -1 $-1 $289 $182 @18 ASM_EDGE_FROM_STEP @4 7056 #
coedge $-1 -1 $-1 $506 $299 $293 $400 reversed $373 $-1 #
edge $510 -1 $-1 $402 0 $302 0.02 $399 $511 forward @7 unknown #
truecolor-adesk-attrib $-1 -1 $512 $-1 $294 -1056964608 #
vertex $-1 -1 $-1 $400 $513 #
straight-curve $-1 -1 $-1 2986.0120749656307 -3262.2200932223391 100.00000000000009 -1000 0 0 F -0.20999999999999999 F 0 #
truecolor-adesk-attrib $-1 -1 $514 $-1 $295 -1056964608 #
plane-surface $-1 -1 $-1 2986.0120749656307 -3262.2200932223391 100.00000000000009 0 -6.123233995736766e-17 -1 0 1 -6.123233995736766e-17 forward_v I I I I #
edge $515 -1 $-1 $491 -0.16 $409 0 $375 $516 forward @7 unknown #
coedge $-1 -1 $-1 $299 $506 $486 $517 forward $373 $-1 #
truecolor-adesk-attrib $-1 -1 $518 $-1 $300 -1056964608 #
vertex $-1 -1 $-1 $406 $519 #
ellipse-curve $-1 -1 $-1 3196.0120749656307 -3242.2200932223391 80.000000000000085 0 -1 6.123233995736766e-17 0 1.2246467991473535e-15 20.000000000000004 1 F -1.5707963267948966 F 0 #
DXID-attrib $-1 -1 $-1 $301 $193 @18 ASM_EDGE_FROM_STEP @5 33392 #
point $-1 -1 $-1 3196.0120749656307 -3242.2200932223391 100.00000000000009 #
coedge $-1 -1 $-1 $520 $304 $521 $522 forward $194 $-1 #
coedge $-1 -1 $-1 $304 $523 $524 $525 forward $194 $-1 #
coedge $-1 -1 $-1 $356 $341 $304 $416 reversed $242 $-1 #
edge $526 -1 $-1 $527 0 $528 0.12499999999999993 $304 $529 forward @7 unknown #
fmesh-eye-attrib $-1 -1 $530 $305 $195 #
truecolor-adesk-attrib $-1 -1 $531 $-1 $306 -1056964608 #
loop $-1 -1 $-1 $-1 $315 $306 #
plane-surface $-1 -1 $-1 3105.2805815668044 -2392.2200932223391 -135.00000000000003 -0.85564655496712694 -0.5175605983581899 0 0.5175605983581899 -0.85564655496712705 0 forward_v I I I I #
coedge $-1 -1 $-1 $532 $533 $308 $422 forward $534 $-1 #
edge $535 -1 $-1 $536 0.4952888964896443 $318 0.63997756289099861 $421 $537 forward @7 unknown #
coedge $-1 -1 $-1 $538 $539 $309 $424 forward $540 $-1 #
edge $541 -1 $-1 $428 -0.7853981633971967 $536 0.78539816339719937 $423 $542 forward @7 unknown #
coedge $-1 -1 $-1 $543 $310 $539 $544 reversed $426 $-1 #
loop $-1 -1 $-1 $-1 $444 $545 #
truecolor-adesk-attrib $-1 -1 $546 $-1 $311 -1056964608 #
vertex $-1 -1 $-1 $311 $547 #
straight-curve $-1 -1 $-1 3431.8474588682966 -2932.1101552088799 -247.14909240164775 459.64656538021018 -759.90135535367824 -459.64656538020552 F -0.70238124993025697 F -0.5576925835289015 #
truecolor-adesk-attrib $-1 -1 $548 $-1 $314 -1056964608 #
vertex $-1 -1 $-1 $316 $549 #
straight-curve $-1 -1 $-1 3117.312002421615 -2392.7893865702358 -78.112170387499418 -855.64655496712703 -517.56059835818985 0 F 0 F 0.0099999999999999534 #
coedge $-1 -1 $-1 $357 $315 $353 $361 forward $419 $-1 #
coedge $-1 -1 $-1 $315 $473 $532 $550 reversed $419 $-1 #
truecolor-adesk-attrib $-1 -1 $551 $-1 $316 -1056964608 #
ellipse-curve $-1 -1 $-1 2905.7170426228449 -2062.2957227503198 -4.2531447680563019e-12 -0.85564655496712694 -0.51756059835818979 0 -207.02423934327598 342.25862198685087 0 1 F 2.9450492806933415 F 2.9511993646239718 #
DXID-attrib $-1 -1 $-1 $317 $207 @18 ASM_EDGE_FROM_STEP @5 19891 #
point $-1 -1 $-1 3109.0003297503954 -2398.3696914118682 -75.698036716251025 #
fmesh-eye-attrib $-1 -1 $552 $320 $208 #
truecolor-adesk-attrib $-1 -1 $553 $-1 $321 -1056964608 #
plane-surface $-1 -1 $-1 3204.5685405153017 -2537.044487238757 1.1933195137154616e-13 -0.23789495141146622 0.39329500017004565 -0.88810192823469325 1.3877787807814452e-17 0.91435216556002341 0.40491989002232986 forward_v I I I I #
coedge $-1 -1 $-1 $554 $555 $323 $443 forward $556 $-1 #
edge $557 -1 $-1 $558 2.356194490192332 $446 3.9269908169872378 $323 $559 forward @7 unknown #
coedge $-1 -1 $-1 $324 $543 $554 $560 forward $426 $-1 #
truecolor-adesk-attrib $-1 -1 $561 $-1 $325 -1056964608 #
vertex $-1 -1 $-1 $325 $562 #
straight-curve $-1 -1 $-1 3431.8474588682966 -2932.1101552088799 -247.14909240164775 459.64656538021018 -759.90135535367824 -459.64656538020552 F -0.70537616501668665 F -0.70238124993025697 #
coedge $-1 -1 $-1 $563 $458 $326 $449 forward $460 $-1 #
edge $564 -1 $-1 $331 0.63240073469510649 $558 0.64297247797743207 $326 $565 forward @7 unknown #
truecolor-adesk-attrib $-1 -1 $566 $-1 $327 -1056964608 #
face $567 -1 $-1 $568 $460 $3 $-1 $569 reversed single #
plane-surface $-1 -1 $-1 3105.2805815668044 -2392.2200932223391 -135.00000000000003 -0.85564655496712694 -0.5175605983581899 0 0.5175605983581899 -0.85564655496712705 0 forward_v I I I I #
truecolor-adesk-attrib $-1 -1 $570 $-1 $329 -1056964608 #
straight-curve $-1 -1 $-1 3121.0394583567859 -2398.951727443628 83.52908215851582 -855.64655496712703 -517.56059835818985 -5.4207667897125565e-14 F 9.6292161616996357e-34 F 0.010000000000000075 #
DXID-attrib $-1 -1 $-1 $330 $217 @18 ASM_EDGE_FROM_STEP @5 19886 #
point $-1 -1 $-1 3112.482992807114 -2404.12733342721 83.529082158515791 #
fmesh-eye-attrib $-1 -1 $571 $333 $218 #
coedge $-1 -1 $-1 $448 $339 $347 $467 reversed $460 $-1 #
coedge $-1 -1 $-1 $339 $521 $341 $463 forward $460 $-1 #
loop $-1 -1 $-1 $-1 $459 $451 #
truecolor-adesk-attrib $-1 -1 $572 $-1 $340 -1056964608 #
straight-curve $-1 -1 $-1 3403.1638184536414 -2884.6895088486835 -207.15174348800829 -459.64656538021023 759.90135535367824 459.64656538020529 F 0.45067614791521193 F 0.46033685241215599 #
edge $573 -1 $-1 $528 0 $343 0.70000000000000018 $459 $574 forward @7 unknown #
DXID-attrib $-1 -1 $-1 $342 $229 @18 ASM_EDGE_FROM_STEP @5 22682 #
point $-1 -1 $-1 3196.0120749656307 -2542.2200932223391 1.1933195137154616e-13 #
fmesh-eye-attrib $-1 -1 $575 $345 $230 #
edge $576 -1 $-1 $331 -0.18172458677989448 $235 -0.0096607044969439729 $458 $577 forward @7 unknown #
DXID-attrib $-1 -1 $-1 $348 $233 @18 ASM_EDGE_FROM_STEP @5 29304 #
DXID-attrib $-1 -1 $-1 $352 $143 @18 ASM_FACE_FROM_STEP @17 step-2M-560-18710 #
DXID-attrib $-1 -1 $-1 $354 $240 @18 ASM_EDGE_FROM_STEP @5 22126 #
coedge $-1 -1 $-1 $524 $578 $356 $472 reversed $579 $-1 #
edge $580 -1 $-1 $527 0 $475 0.84612624184381791 $471 $581 forward @7 unknown #
coedge $-1 -1 $-1 $434 $357 $578 $582 reversed $419 $-1 #
truecolor-adesk-attrib $-1 -1 $583 $-1 $358 -1056964608 #
vertex $-1 -1 $-1 $358 $584 #
straight-curve $-1 -1 $-1 3403.1638184536396 -2884.6895088486795 207.15174348801085 459.64656538020802 -759.90135535367472 459.64656538021308 F -0.64297247797742829 F -0.63240073469510272 #
truecolor-adesk-attrib $-1 -1 $585 $-1 $359 -1056964608 #
plane-surface $-1 -1 $-1 3107.6237273173128 -3242.2200932223391 -88.388347648318785 -0.70710678118655146 3.5993948214614036e-17 0.70710678118654369 0.7071067811865438 0 0.70710678118655157 forward_v I I I I #
truecolor-adesk-attrib $-1 -1 $586 $-1 $361 -1056964608 #
ellipse-curve $-1 -1 $-1 3111.2935180500581 -2402.1608584263613 -79.08857251734311 -0.85564655496712694 -0.51756059835818979 0 -2.5878029917909502 4.2782327748356366 1.1102230246251567e-13 1 F -0.19654337289642668 F 2.0483935180309825 #
DXID-attrib $-1 -1 $-1 $363 $149 @18 ASM_FACE_FROM_STEP @17 step-2M-560-23269 #
DXID-attrib $-1 -1 $-1 $367 $163 @18 ASM_FACE_FROM_STEP @16 step-2M-560-8136 #
fmesh-eye-attrib $-1 -1 $587 $368 $262 #
DXID-attrib $-1 -1 $-1 $371 $168 @18 ASM_FACE_FROM_STEP @16 step-2M-560-6365 #
fmesh-eye-attrib $-1 -1 $588 $372 $267 #
coedge $-1 -1 $-1 $589 $375 $407 $517 reversed $268 $-1 #
coedge $-1 -1 $-1 $375 $589 $376 $489 forward $268 $-1 #
coedge $-1 -1 $-1 $377 $376 $590 $591 reversed $169 $-1 #
edge $592 -1 $-1 $593 0 $491 0.02 $376 $594 forward @7 unknown #
truecolor-adesk-attrib $-1 -1 $595 $-1 $379 -1056964608 #
vertex $-1 -1 $-1 $379 $596 #
ellipse-curve $-1 -1 $-1 3196.0120749656307 -3242.2200932223391 -79.999999999999915 0 -1 6.123233995736766e-17 0 -1.2246467991473535e-15 -20.000000000000004 1 F 0 F 1.5707963267948966 #
coedge $-1 -1 $-1 $590 $385 $380 $494 forward $288 $-1 #
edge $597 -1 $-1 $388 0 $496 0.20999999999999999 $380 $598 forward @7 unknown #
truecolor-adesk-attrib $-1 -1 $599 $-1 $381 -1056964608 #
vertex $-1 -1 $-1 $381 $600 #
straight-curve $-1 -1 $-1 3196.0120749656307 -3262.2200932223391 -99.999999999999929 0 1000 -6.1232339957367675e-14 F 0 F 0.02 #
DXID-attrib $-1 -1 $-1 $382 $274 @18 ASM_EDGE_FROM_STEP @4 9294 #
point $-1 -1 $-1 3196.0120749656307 -3242.2200932223391 -99.999999999999929 #
truecolor-adesk-attrib $-1 -1 $601 $-1 $386 -1056964608 #
ellipse-curve $-1 -1 $-1 2986.0120749656307 -3262.2200932223391 -79.999999999999915 0 -1 6.123233995736766e-17 0 -1.2246467991473535e-15 -20.000000000000004 1 F -1.5707963267948966 F 0 #
DXID-attrib $-1 -1 $-1 $387 $276 @18 ASM_EDGE_FROM_STEP @4 3548 #
point $-1 -1 $-1 2986.0120749656307 -3262.2200932223391 -99.999999999999929 #
DXID-attrib $-1 -1 $-1 $392 $281 @18 ASM_EDGE_FROM_STEP @5 33565 #
coedge $-1 -1 $-1 $396 $590 $589 $602 forward $288 $-1 #
coedge $-1 -1 $-1 $407 $399 $396 $507 reversed $373 $-1 #
edge $603 -1 $-1 $604 -1.5707963267948966 $402 0 $506 $605 forward @7 unknown #
truecolor-adesk-attrib $-1 -1 $606 $-1 $397 -1056964608 #
plane-surface $-1 -1 $-1 2986.0120749656307 -3262.2200932223391 80.000000000000085 0 -1 6.123233995736766e-17 0 -6.123233995736766e-17 -1 forward_v I I I I #
truecolor-adesk-attrib $-1 -1 $607 $-1 $400 -1056964608 #
straight-curve $-1 -1 $-1 3196.0120749656307 -3262.2200932223391 100.00000000000009 0 1000 -6.1232339957367675e-14 F 0 F 0.02 #
DXID-attrib $-1 -1 $-1 $401 $294 @18 ASM_EDGE_FROM_STEP @5 28987 #
point $-1 -1 $-1 3196.0120749656307 -3262.2200932223391 100.00000000000009 #
fmesh-eye-attrib $-1 -1 $608 $404 $295 #
truecolor-adesk-attrib $-1 -1 $609 $-1 $406 -1056964608 #
straight-curve $-1 -1 $-1 3216.0120749656307 -3242.2200932223391 80.000000000000085 0 0 1000 F -0.16 F 0 #
edge $610 -1 $-1 $604 0 $409 0.02 $486 $611 forward @7 unknown #
DXID-attrib $-1 -1 $-1 $408 $300 @18 ASM_EDGE_FROM_STEP @5 32703 #
point $-1 -1 $-1 3216.0120749656307 -3242.2200932223391 80.000000000000085 #
coedge $-1 -1 $-1 $612 $413 $613 $614 forward $194 $-1 #
coedge $-1 -1 $-1 $459 $563 $413 $522 reversed $460 $-1 #
edge $615 -1 $-1 $528 -0.12499999999999994 $616 -1.2560739669470133e-17 $413 $617 forward @7 unknown #
coedge $-1 -1 $-1 $414 $618 $619 $620 forward $194 $-1 #
coedge $-1 -1 $-1 $621 $471 $414 $525 reversed $579 $-1 #
edge $622 -1 $-1 $623 -2.3561944901923448 $527 -0.78539816339742474 $414 $624 forward @7 unknown #
truecolor-adesk-attrib $-1 -1 $625 $-1 $416 -1056964608 #
vertex $-1 -1 $-1 $416 $626 #
vertex $-1 -1 $-1 $416 $627 #
straight-curve $-1 -1 $-1 3107.6237273173128 -3242.2200932223391 -88.388347648318785 707.10678118654369 0 707.10678118655142 F 0 F 0.12499999999999993 #
DXID-attrib $-1 -1 $-1 $417 $195 @18 ASM_FACE_FROM_STEP @17 step-2M-560-25405 #
fmesh-eye-attrib $-1 -1 $628 $418 $306 #
coedge $-1 -1 $-1 $629 $421 $434 $550 forward $534 $-1 #
coedge $-1 -1 $-1 $421 $619 $538 $630 forward $534 $-1 #
loop $-1 -1 $-1 $-1 $533 $631 #
truecolor-adesk-attrib $-1 -1 $632 $-1 $422 -1056964608 #
vertex $-1 -1 $-1 $424 $633 #
straight-curve $-1 -1 $-1 3403.1638184536396 -2884.6895088486795 218.46545198699562 -459.64656538020819 759.90135535367483 -459.64656538021296 F 0.4952888964896443 F 0.63997756289099861 #
coedge $-1 -1 $-1 $634 $423 $533 $630 reversed $540 $-1 #
coedge $-1 -1 $-1 $423 $634 $425 $544 forward $540 $-1 #
loop $-1 -1 $-1 $-1 $539 $635 #
truecolor-adesk-attrib $-1 -1 $636 $-1 $424 -1056964608 #
ellipse-curve $-1 -1 $-1 3166.313590155788 -2493.1216759628023 -3.7747582837255322e-14 0.85564655496712616 0.51756059835819124 -3.944304526105059e-31 13.000000000008463 -21.491986155564415 6.5824109259861614e-14 0.51756059835798585 F -0.7853981633971967 F 0.78539816339719937 #
coedge $-1 -1 $-1 $444 $425 $612 $637 reversed $426 $-1 #
edge $638 -1 $-1 $639 0 $428 0.733901288107766 $425 $640 forward @7 unknown #
face $641 -1 $-1 $635 $426 $3 $-1 $642 reversed single #
DXID-attrib $-1 -1 $-1 $427 $311 @18 ASM_EDGE_FROM_STEP @5 20483 #
point $-1 -1 $-1 3175.505978311221 -2508.318805114573 9.1923881554251103 #
DXID-attrib $-1 -1 $-1 $430 $314 @18 ASM_EDGE_FROM_STEP @5 18448 #
point $-1 -1 $-1 3108.7555368719441 -2397.9649925538174 -78.112170387499432 #
edge $643 -1 $-1 $318 0.63997756289099861 $644 0.64297247797742874 $434 $645 forward @7 unknown #
DXID-attrib $-1 -1 $-1 $435 $316 @18 ASM_EDGE_FROM_STEP @5 11541 #
DXID-attrib $-1 -1 $-1 $439 $208 @18 ASM_FACE_FROM_STEP @17 step-2M-560-33884 #
fmesh-eye-attrib $-1 -1 $646 $440 $321 #
coedge $-1 -1 $-1 $613 $442 $444 $560 reversed $556 $-1 #
coedge $-1 -1 $-1 $442 $613 $563 $647 forward $556 $-1 #
loop $-1 -1 $-1 $-1 $442 $568 #
truecolor-adesk-attrib $-1 -1 $648 $-1 $443 -1056964608 #
vertex $-1 -1 $-1 $443 $649 #
ellipse-curve $-1 -1 $-1 3113.2805815668034 -2405.4459308565242 82.731493398825933 -0.85564655496715181 -0.51756059835814872 3.2504719695759669e-15 7.9999999999991536 -13.225837634184961 2.9435067284903328e-13 0.51756059835819845 F 2.356194490192332 F 3.9269908169872378 #
edge $650 -1 $-1 $651 0 $446 0.84612624184381924 $554 $652 forward @7 unknown #
DXID-attrib $-1 -1 $-1 $445 $325 @18 ASM_EDGE_FROM_STEP @5 13859 #
point $-1 -1 $-1 3107.6237273173119 -2396.09385137852 77.07463914933335 #
coedge $-1 -1 $-1 $521 $448 $555 $647 reversed $460 $-1 #
truecolor-adesk-attrib $-1 -1 $653 $-1 $449 -1056964608 #
straight-curve $-1 -1 $-1 3403.1638184536414 -2884.6895088486835 -207.15174348800829 -459.64656538021023 759.90135535367824 459.64656538020529 F 0.63240073469510649 F 0.64297247797743207 #
fmesh-eye-attrib $-1 -1 $654 $450 $327 #
truecolor-adesk-attrib $-1 -1 $655 $-1 $451 -1056964608 #
face $656 -1 $-1 $545 $556 $3 $-1 $657 forward single #
plane-surface $-1 -1 $-1 3107.6237273173119 -3242.2200932223391 88.388347648318131 -0.70710678118654369 -3.5993948214614412e-17 -0.70710678118655135 -0.70710678118655146 0 0.7071067811865438 forward_v I I I I #
DXID-attrib $-1 -1 $-1 $453 $329 @18 ASM_EDGE_FROM_STEP @4 6572 #
DXID-attrib $-1 -1 $-1 $457 $218 @18 ASM_FACE_FROM_STEP @17 step-2M-560-36817 #
DXID-attrib $-1 -1 $-1 $461 $340 @18 ASM_EDGE_FROM_STEP @4 6870 #
truecolor-adesk-attrib $-1 -1 $658 $-1 $463 -1056964608 #
straight-curve $-1 -1 $-1 3196.0120749656307 -3242.2200932223391 1.3551821547487136e-13 0 1000 -5.0903129728462289e-14 F 0 F 0.70000000000000018 #
DXID-attrib $-1 -1 $-1 $466 $230 @18 ASM_FACE_FROM_STEP @17 step-2M-560-17976 #
truecolor-adesk-attrib $-1 -1 $659 $-1 $467 -1056964608 #
straight-curve $-1 -1 $-1 3196.0120749656307 -2542.2200932223391 1.1933195137154616e-13 459.64656538021006 -759.90135535367801 -459.6465653802062 F -0.18172458677989448 F -0.0096607044969439729 #
coedge $-1 -1 $-1 $471 $621 $473 $582 forward $579 $-1 #
loop $-1 -1 $-1 $-1 $578 $660 #
truecolor-adesk-attrib $-1 -1 $661 $-1 $472 -1056964608 #
straight-curve $-1 -1 $-1 3107.6237273173128 -3242.2200932223391 -88.388347648318785 0 1000 -5.0903129728462289e-14 F 0 F 0.84612624184381791 #
edge $662 -1 $-1 $644 2.3561944901920495 $475 3.92699081698755 $473 $663 forward @7 unknown #
DXID-attrib $-1 -1 $-1 $474 $358 @18 ASM_EDGE_FROM_STEP @5 36221 #
point $-1 -1 $-1 3107.6237273173128 -2396.0938513785213 -88.388347648318785 #
fmesh-eye-attrib $-1 -1 $664 $477 $359 #
DXID-attrib $-1 -1 $-1 $479 $361 @18 ASM_EDGE_FROM_STEP @5 35166 #
DXID-attrib $-1 -1 $-1 $483 $262 @18 ASM_FACE_FROM_STEP @17 step-2M-560-14441 #
DXID-attrib $-1 -1 $-1 $485 $267 @18 ASM_FACE_FROM_STEP @16 step-2M-560-3848 #
coedge $-1 -1 $-1 $487 $486 $505 $602 reversed $268 $-1 #
coedge $-1 -1 $-1 $505 $493 $488 $591 forward $288 $-1 #
edge $665 -1 $-1 $496 0 $593 1.5707963267948966 $488 $666 forward @7 unknown #
truecolor-adesk-attrib $-1 -1 $667 $-1 $489 -1056964608 #
vertex $-1 -1 $-1 $489 $668 #
straight-curve $-1 -1 $-1 3216.0120749656307 -3262.2200932223391 -79.999999999999915 0 1000 -6.1232339957367675e-14 F 0 F 0.02 #
DXID-attrib $-1 -1 $-1 $490 $379 @18 ASM_EDGE_FROM_STEP @4 9288 #
point $-1 -1 $-1 3216.0120749656307 -3242.2200932223391 -79.999999999999915 #
truecolor-adesk-attrib $-1 -1 $669 $-1 $494 -1056964608 #
straight-curve $-1 -1 $-1 2986.0120749656307 -3262.2200932223391 -99.999999999999929 1000 0 0 F 0 F 0.20999999999999999 #
DXID-attrib $-1 -1 $-1 $495 $381 @18 ASM_EDGE_FROM_STEP @5 13413 #
point $-1 -1 $-1 3196.0120749656307 -3262.2200932223391 -99.999999999999929 #
DXID-attrib $-1 -1 $-1 $500 $386 @18 ASM_EDGE_FROM_STEP @4 2412 #
edge $670 -1 $-1 $593 -0.16 $604 0 $589 $671 forward @7 unknown #
truecolor-adesk-attrib $-1 -1 $672 $-1 $507 -1056964608 #
vertex $-1 -1 $-1 $517 $673 #
ellipse-curve $-1 -1 $-1 3196.0120749656307 -3262.2200932223391 80.000000000000085 0 -1 6.123233995736766e-17 0 1.2246467991473535e-15 20.000000000000004 1 F -1.5707963267948966 F 0 #
fmesh-eye-attrib $-1 -1 $674 $508 $397 #
DXID-attrib $-1 -1 $-1 $510 $400 @18 ASM_EDGE_FROM_STEP @5 23361 #
DXID-attrib $-1 -1 $-1 $514 $295 @18 ASM_FACE_FROM_STEP @16 step-2M-560-4263 #
DXID-attrib $-1 -1 $-1 $515 $406 @18 ASM_EDGE_FROM_STEP @5 28580 #
truecolor-adesk-attrib $-1 -1 $675 $-1 $517 -1056964608 #
straight-curve $-1 -1 $-1 3216.0120749656307 -3262.2200932223391 80.000000000000085 0 1000 -6.1232339957367675e-14 F 0 F 0.02 #
coedge $-1 -1 $-1 $618 $520 $543 $637 forward $194 $-1 #
coedge $-1 -1 $-1 $555 $554 $520 $614 reversed $556 $-1 #
edge $676 -1 $-1 $616 -2.3561944901923479 $651 -0.78539816339744362 $520 $677 forward @7 unknown #
truecolor-adesk-attrib $-1 -1 $678 $-1 $522 -1056964608 #
vertex $-1 -1 $-1 $522 $679 #
straight-curve $-1 -1 $-1 3107.6237273173119 -3242.2200932223391 88.388347648318131 -707.10678118655142 0 707.10678118654391 F -0.12499999999999994 F -1.2560739669470133e-17 #
coedge $-1 -1 $-1 $523 $612 $634 $680 forward $194 $-1 #
coedge $-1 -1 $-1 $533 $629 $523 $620 reversed $534 $-1 #
edge $681 -1 $-1 $682 -0.09599999999999996 $623 1.2560739669470264e-17 $523 $683 forward @7 unknown #
coedge $-1 -1 $-1 $578 $524 $629 $684 forward $579 $-1 #
truecolor-adesk-attrib $-1 -1 $685 $-1 $525 -1056964608 #
vertex $-1 -1 $-1 $620 $686 #
ellipse-curve $-1 -1 $-1 3113.2805815668053 -3242.2200932223391 -82.731493398826345 0 -1 6.123233995736766e-17 0 -4.8985871965894256e-16 -8.0000000000000213 1 F -2.3561944901923448 F -0.78539816339742474 #
DXID-attrib $-1 -1 $-1 $526 $416 @18 ASM_EDGE_FROM_STEP @5 21429 #
point $-1 -1 $-1 3107.6237273173128 -3242.2200932223391 -88.388347648318785 #
point $-1 -1 $-1 3196.0120749656307 -3242.2200932223391 1.3551821547487136e-13 #
DXID-attrib $-1 -1 $-1 $531 $306 @18 ASM_FACE_FROM_STEP @17 step-2M-560-35447 #
coedge $-1 -1 $-1 $619 $532 $621 $684 reversed $534 $-1 #
edge $687 -1 $-1 $682 0 $536 0.733901288107766 $538 $688 forward @7 unknown #
face $689 -1 $-1 $660 $534 $3 $-1 $690 reversed single #
DXID-attrib $-1 -1 $-1 $535 $422 @18 ASM_EDGE_FROM_STEP @4 2360 #
point $-1 -1 $-1 3175.505978311221 -2508.318805114573 -9.1923881554251139 #
coedge $-1 -1 $-1 $539 $538 $618 $680 reversed $540 $-1 #
face $691 -1 $-1 $631 $540 $3 $-1 $692 reversed single #
DXID-attrib $-1 -1 $-1 $541 $424 @18 ASM_EDGE_FROM_STEP @5 28951 #
edge $693 -1 $-1 $651 -0.096000000000000044 $639 -5.4953236053931848e-18 $612 $694 forward @7 unknown #
truecolor-adesk-attrib $-1 -1 $695 $-1 $544 -1056964608 #
vertex $-1 -1 $-1 $637 $696 #
straight-curve $-1 -1 $-1 3175.505978311221 -3242.2200932223391 9.1923881554251494 0 1000 -5.0903129728462289e-14 F 0 F 0.733901288107766 #
truecolor-adesk-attrib $-1 -1 $697 $-1 $545 -1056964608 #
plane-surface $-1 -1 $-1 3175.505978311221 -3242.2200932223391 9.1923881554251405 0.70710678118654402 3.5993948214614412e-17 0.70710678118655113 0.70710678118655113 0 -0.70710678118654402 forward_v I I I I #
truecolor-adesk-attrib $-1 -1 $698 $-1 $550 -1056964608 #
vertex $-1 -1 $-1 $582 $699 #
straight-curve $-1 -1 $-1 3403.1638184536396 -2884.6895088486795 218.46545198699562 -459.64656538020819 759.90135535367483 -459.64656538021296 F 0.63997756289099861 F 0.64297247797742874 #
DXID-attrib $-1 -1 $-1 $553 $321 @18 ASM_FACE_FROM_STEP @17 step-2M-560-28483 #
edge $700 -1 $-1 $616 0 $558 0.84612624184381924 $563 $701 forward @7 unknown #
DXID-attrib $-1 -1 $-1 $557 $443 @18 ASM_EDGE_FROM_STEP @5 27990 #
point $-1 -1 $-1 3107.6237273173119 -2396.09385137852 88.388347648318103 #
truecolor-adesk-attrib $-1 -1 $702 $-1 $560 -1056964608 #
vertex $-1 -1 $-1 $614 $703 #
straight-curve $-1 -1 $-1 3107.6237273173119 -3242.2200932223391 77.074639149333336 0 1000 -5.0903129728462289e-14 F 0 F 0.84612624184381924 #
DXID-attrib $-1 -1 $-1 $564 $449 @18 ASM_EDGE_FROM_STEP @4 7293 #
DXID-attrib $-1 -1 $-1 $566 $327 @18 ASM_FACE_FROM_STEP @17 step-2M-560-29607 #
fmesh-eye-attrib $-1 -1 $704 $567 $451 #
truecolor-adesk-attrib $-1 -1 $705 $-1 $568 -1056964608 #
cone-surface $-1 -1 $-1 3113.2805815668044 -3242.2200932223391 82.731493398825762 0 1 -5.0903129728462289e-17 0 4.0722503782770014e-16 8.0000000000000355 1 I I 0 1 8.0000000000000355 forward I I I I #
DXID-attrib $-1 -1 $-1 $573 $463 @18 ASM_EDGE_FROM_STEP @5 31076 #
DXID-attrib $-1 -1 $-1 $576 $467 @18 ASM_EDGE_FROM_STEP @5 18666 #
face $706 -1 $-1 $359 $579 $3 $-1 $707 forward single #
DXID-attrib $-1 -1 $-1 $580 $472 @18 ASM_EDGE_FROM_STEP @5 12836 #
truecolor-adesk-attrib $-1 -1 $708 $-1 $582 -1056964608 #
ellipse-curve $-1 -1 $-1 3113.2805815667989 -2405.445930856516 -82.731493398826203 -0.85564655496715947 -0.51756059835813606 1.3001887878303593e-14 7.9999999999931051 -13.225837634175402 2.2395352736394803e-13 0.51756059835841917 F 2.3561944901920495 F 3.92699081698755 #
DXID-attrib $-1 -1 $-1 $585 $359 @18 ASM_FACE_FROM_STEP @17 step-2M-560-20272 #
truecolor-adesk-attrib $-1 -1 $709 $-1 $591 -1056964608 #
ellipse-curve $-1 -1 $-1 3196.0120749656307 -3262.2200932223391 -79.999999999999915 0 -1 6.123233995736766e-17 0 -1.2246467991473535e-15 -20.000000000000004 1 F 0 F 1.5707963267948966 #
DXID-attrib $-1 -1 $-1 $592 $489 @18 ASM_EDGE_FROM_STEP @5 27185 #
point $-1 -1 $-1 3216.0120749656307 -3262.2200932223391 -79.999999999999915 #
DXID-attrib $-1 -1 $-1 $597 $494 @18 ASM_EDGE_FROM_STEP @5 33190 #
truecolor-adesk-attrib $-1 -1 $710 $-1 $602 -1056964608 #
straight-curve $-1 -1 $-1 3216.0120749656307 -3262.2200932223391 80.000000000000085 0 0 1000 F -0.16 F 0 #
DXID-attrib $-1 -1 $-1 $603 $507 @18 ASM_EDGE_FROM_STEP @5 32253 #
point $-1 -1 $-1 3216.0120749656307 -3262.2200932223391 80.000000000000085 #
DXID-attrib $-1 -1 $-1 $606 $397 @18 ASM_FACE_FROM_STEP @16 step-2M-560-5206 #
DXID-attrib $-1 -1 $-1 $610 $517 @18 ASM_EDGE_FROM_STEP @5 19672 #
truecolor-adesk-attrib $-1 -1 $711 $-1 $614 -1056964608 #
ellipse-curve $-1 -1 $-1 3113.2805815668044 -3242.2200932223391 82.731493398825762 0 -1 6.123233995736766e-17 0 -4.8985871965894345e-16 -8.0000000000000355 1 F -2.3561944901923479 F -0.78539816339744362 #
DXID-attrib $-1 -1 $-1 $615 $522 @18 ASM_EDGE_FROM_STEP @5 26953 #
point $-1 -1 $-1 3107.6237273173119 -3242.2200932223391 88.388347648318103 #
edge $712 -1 $-1 $639 0.78539816339743851 $682 2.3561944901923519 $618 $713 forward @7 unknown #
truecolor-adesk-attrib $-1 -1 $714 $-1 $620 -1056964608 #
vertex $-1 -1 $-1 $680 $715 #
straight-curve $-1 -1 $-1 3107.6237273173128 -3242.2200932223391 -77.074639149334004 -707.10678118654403 0 -707.10678118655107 F -0.09599999999999996 F 1.2560739669470264e-17 #
edge $716 -1 $-1 $623 0 $644 0.84612624184381813 $629 $717 forward @7 unknown #
DXID-attrib $-1 -1 $-1 $622 $525 @18 ASM_EDGE_FROM_STEP @5 25141 #
point $-1 -1 $-1 3107.6237273173128 -3242.2200932223391 -77.074639149334018 #
truecolor-adesk-attrib $-1 -1 $718 $-1 $630 -1056964608 #
straight-curve $-1 -1 $-1 3175.505978311221 -3242.2200932223391 -9.1923881554250908 0 1000 -5.0903129728462289e-14 F 0 F 0.733901288107766 #
truecolor-adesk-attrib $-1 -1 $719 $-1 $631 -1056964608 #
plane-surface $-1 -1 $-1 3107.6237273173128 -3242.2200932223391 -77.074639149334004 0.70710678118655113 -3.5993948214614042e-17 -0.70710678118654402 -0.70710678118654402 0 -0.70710678118655113 forward_v I I I I #
truecolor-adesk-attrib $-1 -1 $720 $-1 $635 -1056964608 #
cone-surface $-1 -1 $-1 3166.3135901557962 -3242.2200932223391 -2.234162083901809e-14 0 1 -5.0903129728462295e-17 0 6.6174068647000754e-16 12.999999999999956 1 I I 0 1 12.999999999999956 forward I I I I #
truecolor-adesk-attrib $-1 -1 $721 $-1 $637 -1056964608 #
straight-curve $-1 -1 $-1 3175.505978311221 -3242.2200932223391 9.1923881554251405 707.10678118655107 0 -707.10678118654403 F -0.096000000000000044 F -5.4953236053931848e-18 #
DXID-attrib $-1 -1 $-1 $638 $544 @18 ASM_EDGE_FROM_STEP @5 36490 #
point $-1 -1 $-1 3175.505978311221 -3242.2200932223391 9.1923881554251494 #
fmesh-eye-attrib $-1 -1 $722 $641 $545 #
DXID-attrib $-1 -1 $-1 $643 $550 @18 ASM_EDGE_FROM_STEP @5 35997 #
point $-1 -1 $-1 3107.6237273173128 -2396.0938513785209 -77.074639149334061 #
truecolor-adesk-attrib $-1 -1 $723 $-1 $647 -1056964608 #
straight-curve $-1 -1 $-1 3107.6237273173119 -3242.2200932223391 88.388347648318103 0 1000 -5.0903129728462289e-14 F 0 F 0.84612624184381924 #
DXID-attrib $-1 -1 $-1 $650 $560 @18 ASM_EDGE_FROM_STEP @4 3458 #
point $-1 -1 $-1 3107.6237273173119 -3242.2200932223391 77.074639149333336 #
DXID-attrib $-1 -1 $-1 $655 $451 @18 ASM_FACE_FROM_STEP @17 step-2M-560-28172 #
fmesh-eye-attrib $-1 -1 $724 $656 $568 #
truecolor-adesk-attrib $-1 -1 $725 $-1 $660 -1056964608 #
cone-surface $-1 -1 $-1 3113.2805815668053 -3242.2200932223391 -82.731493398826345 0 1 -5.0903129728462289e-17 0 4.072250378276994e-16 8.0000000000000213 1 I I 0 1 8.0000000000000213 forward I I I I #
DXID-attrib $-1 -1 $-1 $662 $582 @18 ASM_EDGE_FROM_STEP @5 24210 #
DXID-attrib $-1 -1 $-1 $665 $591 @18 ASM_EDGE_FROM_STEP @4 5248 #
DXID-attrib $-1 -1 $-1 $670 $602 @18 ASM_EDGE_FROM_STEP @5 19629 #
DXID-attrib $-1 -1 $-1 $676 $614 @18 ASM_EDGE_FROM_STEP @4 7924 #
truecolor-adesk-attrib $-1 -1 $726 $-1 $680 -1056964608 #
ellipse-curve $-1 -1 $-1 3166.3135901557962 -3242.2200932223391 -2.234162083901809e-14 0 1 -6.1232339957367673e-17 0 7.9602041944577698e-16 12.999999999999956 1 F 0.78539816339743851 F 2.3561944901923519 #
DXID-attrib $-1 -1 $-1 $681 $620 @18 ASM_EDGE_FROM_STEP @5 35287 #
point $-1 -1 $-1 3175.505978311221 -3242.2200932223391 -9.1923881554250908 #
truecolor-adesk-attrib $-1 -1 $727 $-1 $684 -1056964608 #
straight-curve $-1 -1 $-1 3107.6237273173128 -3242.2200932223391 -77.074639149334018 0 1000 -5.0903129728462289e-14 F 0 F 0.84612624184381813 #
DXID-attrib $-1 -1 $-1 $687 $630 @18 ASM_EDGE_FROM_STEP @5 19477 #
fmesh-eye-attrib $-1 -1 $728 $689 $631 #
fmesh-eye-attrib $-1 -1 $729 $691 $635 #
DXID-attrib $-1 -1 $-1 $693 $637 @18 ASM_EDGE_FROM_STEP @5 23635 #
DXID-attrib $-1 -1 $-1 $697 $545 @18 ASM_FACE_FROM_STEP @17 step-2M-560-30913 #
DXID-attrib $-1 -1 $-1 $700 $647 @18 ASM_EDGE_FROM_STEP @5 27678 #
DXID-attrib $-1 -1 $-1 $705 $568 @18 ASM_FACE_FROM_STEP @16 step-2M-560-4985 #
fmesh-eye-attrib $-1 -1 $730 $706 $660 #
DXID-attrib $-1 -1 $-1 $712 $680 @18 ASM_EDGE_FROM_STEP @5 36219 #
DXID-attrib $-1 -1 $-1 $716 $684 @18 ASM_EDGE_FROM_STEP @5 26808 #
DXID-attrib $-1 -1 $-1 $719 $631 @18 ASM_FACE_FROM_STEP @17 step-2M-560-11126 #
DXID-attrib $-1 -1 $-1 $720 $635 @18 ASM_FACE_FROM_STEP @17 step-2M-560-18205 #
DXID-attrib $-1 -1 $-1 $725 $660 @18 ASM_FACE_FROM_STEP @15 step-2M-560-537 #
