700 532 1 0         
5 ZWCAD 12 ACIS 28.0 NT 24 Sat May 11 13:49:52 2024 
1 9.9999999999999995e-07 1e-10 
body $1 -1 $-1 $2 $-1 $-1 #
DXID-attrib $-1 -1 $-1 $-1 $0 @18 ASM_BODY_FROM_STEP @83 6CD17E14C7CF26DF92A23AF38497B7BDF278580E|:|CBE1C5916EAB30E44C5B921B6ADFD7864AF74C0D #
lump $-1 -1 $-1 $-1 $3 $0 #
shell $-1 -1 $-1 $-1 $-1 $4 $-1 $2 #
face $5 -1 $-1 $6 $7 $3 $-1 $8 forward single #
truecolor-adesk-attrib $-1 -1 $9 $-1 $4 -1023410304 #
face $10 -1 $-1 $11 $12 $3 $-1 $13 forward single #
loop $-1 -1 $-1 $-1 $14 $4 #
torus-surface $-1 -1 $-1 -39.807455148263898 -65.337967951247592 35.233987449476643 6.541758334038516e-17 1 4.6249524700757546e-18 17.900000000000002 0.29999999999999999 -0.42303198587149254 2.3482992543371747e-17 0.90611474931689606 forward_v I I I I #
DXID-attrib $-1 -1 $-1 $5 $4 @18 ASM_FACE_FROM_STEP @16 step-1M-562-4266 #
truecolor-adesk-attrib $-1 -1 $15 $-1 $6 -1023410304 #
face $16 -1 $-1 $17 $18 $3 $-1 $19 forward single #
loop $-1 -1 $-1 $-1 $20 $6 #
torus-surface $-1 -1 $-1 -39.807455148263898 -65.337967951247592 35.233987449476643 6.541758334038516e-17 1 4.6249524700757546e-18 19.299999999999997 0.29999999999999999 -0.42303198587149254 2.3482992543371747e-17 0.90611474931689606 forward_v I I I I #
coedge $-1 -1 $-1 $21 $22 $23 $24 reversed $7 $-1 #
DXID-attrib $-1 -1 $-1 $10 $6 @18 ASM_FACE_FROM_STEP @16 step-1M-562-4298 #
truecolor-adesk-attrib $-1 -1 $25 $-1 $11 -1023410304 #
face $26 -1 $-1 $27 $28 $3 $-1 $29 reversed single #
loop $-1 -1 $-1 $-1 $30 $11 #
torus-surface $-1 -1 $-1 -39.807455148263898 -37.937967951247593 35.233987449476643 -6.541758334038516e-17 -1 -4.6249524700757546e-18 19.299999999999997 0.29999999999999999 0.42303198587149254 -2.3482992543371747e-17 -0.90611474931689606 forward_v I I I I #
coedge $-1 -1 $-1 $31 $32 $33 $34 reversed $12 $-1 #
coedge $-1 -1 $-1 $35 $14 $36 $37 forward $7 $-1 #
coedge $-1 -1 $-1 $14 $35 $38 $39 reversed $7 $-1 #
coedge $-1 -1 $-1 $40 $41 $14 $24 forward $42 $-1 #
edge $43 -1 $-1 $44 -3.1415926535897931 $45 -1.2246467991473532e-16 $14 $46 forward @7 unknown #
DXID-attrib $-1 -1 $-1 $16 $11 @18 ASM_FACE_FROM_STEP @15 step-1M-562-346 #
truecolor-adesk-attrib $-1 -1 $47 $-1 $17 -1023410304 #
face $48 -1 $-1 $49 $50 $3 $-1 $51 reversed single #
loop $-1 -1 $-1 $-1 $52 $17 #
torus-surface $-1 -1 $-1 -39.807455148263898 -45.937967951247586 35.233987449476643 6.541758334038516e-17 1 4.6249524700757546e-18 17.300000000000001 0.29999999999999999 -0.42303198587149254 2.3482992543371747e-17 0.90611474931689606 forward_v I I I I #
coedge $-1 -1 $-1 $53 $54 $55 $56 reversed $18 $-1 #
coedge $-1 -1 $-1 $57 $20 $58 $59 forward $12 $-1 #
coedge $-1 -1 $-1 $20 $57 $60 $61 reversed $12 $-1 #
coedge $-1 -1 $-1 $62 $62 $20 $34 forward $63 $-1 #
edge $64 -1 $-1 $65 -3.1415926535897931 $66 0 $20 $67 forward @7 unknown #
coedge $-1 -1 $-1 $22 $21 $68 $69 reversed $7 $-1 #
coedge $-1 -1 $-1 $70 $71 $21 $37 reversed $72 $-1 #
edge $73 -1 $-1 $44 -3.1415926535897931 $74 -1.5707963267948966 $21 $75 forward @7 unknown #
coedge $-1 -1 $-1 $71 $70 $22 $39 forward $72 $-1 #
edge $76 -1 $-1 $45 -3.1415926535897931 $77 -1.5707963267948966 $22 $78 forward @7 unknown #
coedge $-1 -1 $-1 $79 $23 $80 $81 reversed $42 $-1 #
coedge $-1 -1 $-1 $23 $79 $82 $83 forward $42 $-1 #
loop $-1 -1 $-1 $-1 $40 $84 #
truecolor-adesk-attrib $-1 -1 $85 $-1 $24 -1023410304 #
vertex $-1 -1 $-1 $24 $86 #
vertex $-1 -1 $-1 $24 $87 #
ellipse-curve $-1 -1 $-1 -39.807455148263898 -65.337967951247592 35.233987449476643 -6.541758334038516e-17 -1 -4.6249524700757546e-18 -7.4453629513382698 4.133006687633428e-16 15.947619587977371 1 F -3.1415926535897931 F -1.2246467991473532e-16 #
DXID-attrib $-1 -1 $-1 $26 $17 @18 ASM_FACE_FROM_STEP @16 step-1M-562-5919 #
truecolor-adesk-attrib $-1 -1 $88 $-1 $27 -1023410304 #
face $89 -1 $-1 $90 $91 $3 $-1 $92 reversed single #
loop $-1 -1 $-1 $-1 $93 $27 #
cone-surface $-1 -1 $-1 -39.807455148263898 -65.637967951247589 35.233987449476643 -6.541758334038516e-17 -1 -4.6249524700757546e-18 1.7978859399538434 -9.9802718309329929e-17 -3.8509876845968081 1 I I 0 1 4.25 forward I I I I #
coedge $-1 -1 $-1 $94 $95 $96 $97 reversed $28 $-1 #
coedge $-1 -1 $-1 $98 $30 $99 $100 forward $18 $-1 #
coedge $-1 -1 $-1 $30 $98 $101 $102 reversed $18 $-1 #
coedge $-1 -1 $-1 $103 $103 $30 $56 forward $104 $-1 #
edge $105 -1 $-1 $106 -3.1415926535897931 $107 0 $30 $108 forward @7 unknown #
coedge $-1 -1 $-1 $32 $31 $109 $110 reversed $12 $-1 #
coedge $-1 -1 $-1 $111 $112 $31 $59 reversed $113 $-1 #
edge $114 -1 $-1 $65 -1.5707963267948966 $115 0 $31 $116 forward @7 unknown #
coedge $-1 -1 $-1 $112 $111 $32 $61 forward $113 $-1 #
edge $117 -1 $-1 $66 -1.5707963267948966 $118 0 $32 $119 forward @7 unknown #
coedge $-1 -1 $-1 $33 $33 $111 $120 forward $63 $-1 #
loop $-1 -1 $-1 $121 $62 $122 #
truecolor-adesk-attrib $-1 -1 $123 $-1 $34 -1023410304 #
vertex $-1 -1 $-1 $34 $124 #
vertex $-1 -1 $-1 $34 $125 #
ellipse-curve $-1 -1 $-1 -39.807455148263898 -65.637967951247589 35.233987449476643 -6.541758334038516e-17 -1 -4.6249524700757546e-18 -8.1645173273198051 4.5322175608707466e-16 17.488014661816091 1 F -3.1415926535897931 F 0 #
coedge $-1 -1 $-1 $126 $126 $35 $69 forward $121 $-1 #
edge $127 -1 $-1 $77 0 $74 3.1415926535897931 $35 $128 forward @7 unknown #
coedge $-1 -1 $-1 $38 $36 $129 $130 reversed $72 $-1 #
coedge $-1 -1 $-1 $36 $38 $126 $131 reversed $72 $-1 #
loop $-1 -1 $-1 $-1 $36 $132 #
truecolor-adesk-attrib $-1 -1 $133 $-1 $37 -1023410304 #
vertex $-1 -1 $-1 $37 $134 #
ellipse-curve $-1 -1 $-1 -32.235182601164176 -65.337967951247592 19.014533436704202 0.90611474931689606 -6.123233995736766e-17 0.42303198587149266 0.1269095957614485 -7.0448977630115651e-18 -0.27183442479507031 1 F -3.1415926535897931 F -1.5707963267948966 #
truecolor-adesk-attrib $-1 -1 $135 $-1 $39 -1023410304 #
vertex $-1 -1 $-1 $69 $136 #
ellipse-curve $-1 -1 $-1 -47.379727695363613 -65.337967951247592 51.453441462249089 -0.90611474931689606 6.123233995736766e-17 -0.42303198587149254 -0.12690959576144847 7.0448977630115635e-18 0.27183442479507031 1 F -3.1415926535897931 F -1.5707963267948966 #
coedge $-1 -1 $-1 $41 $40 $137 $138 reversed $42 $-1 #
coedge $-1 -1 $-1 $129 $139 $40 $81 forward $140 $-1 #
edge $141 -1 $-1 $142 -0.002 $45 -0.00029999999999999997 $80 $143 forward @7 unknown #
coedge $-1 -1 $-1 $139 $129 $41 $83 reversed $140 $-1 #
edge $144 -1 $-1 $145 -0.002 $44 -0.00029999999999999997 $82 $146 forward @7 unknown #
face $147 -1 $-1 $148 $42 $3 $-1 $149 reversed single #
DXID-attrib $-1 -1 $-1 $43 $24 @18 ASM_EDGE_FROM_STEP @4 6312 #
point $-1 -1 $-1 -32.36209219692563 -65.337967951247592 19.286367861499272 #
point $-1 -1 $-1 -47.252818099602166 -65.337967951247592 51.181607037454015 #
DXID-attrib $-1 -1 $-1 $48 $27 @18 ASM_FACE_FROM_STEP @16 step-1M-562-5666 #
truecolor-adesk-attrib $-1 -1 $150 $-1 $49 -1023410304 #
face $151 -1 $-1 $152 $153 $3 $-1 $154 reversed single #
loop $-1 -1 $-1 $-1 $96 $49 #
cone-surface $-1 -1 $-1 -39.807455148263898 -65.637967951247589 35.233987449476643 -6.541758334038516e-17 -1 -4.6249524700757546e-18 7.4453629513382698 -4.133006687633428e-16 -15.947619587977371 1 I I 0 1 17.600000000000001 forward I I I I #
coedge $-1 -1 $-1 $155 $156 $157 $158 reversed $50 $-1 #
coedge $-1 -1 $-1 $159 $52 $160 $161 forward $28 $-1 #
coedge $-1 -1 $-1 $52 $159 $162 $163 reversed $28 $-1 #
coedge $-1 -1 $-1 $164 $165 $52 $97 forward $91 $-1 #
edge $166 -1 $-1 $167 -3.1415926535897931 $168 1.2246467991473532e-16 $52 $169 forward @7 unknown #
coedge $-1 -1 $-1 $54 $53 $170 $171 reversed $18 $-1 #
coedge $-1 -1 $-1 $172 $173 $53 $100 reversed $174 $-1 #
edge $175 -1 $-1 $106 1.5707963267948966 $176 3.1415926535897931 $53 $177 forward @7 unknown #
coedge $-1 -1 $-1 $173 $172 $54 $102 forward $174 $-1 #
edge $178 -1 $-1 $107 1.5707963267948966 $179 3.1415926535897931 $54 $180 forward @7 unknown #
coedge $-1 -1 $-1 $55 $55 $172 $181 forward $104 $-1 #
loop $-1 -1 $-1 $182 $103 $183 #
truecolor-adesk-attrib $-1 -1 $184 $-1 $56 -1023410304 #
vertex $-1 -1 $-1 $56 $185 #
vertex $-1 -1 $-1 $56 $186 #
ellipse-curve $-1 -1 $-1 -39.807455148263898 -37.637967951247589 35.233987449476643 6.541758334038516e-17 1 4.6249524700757546e-18 8.1645173273198051 -4.5322175608707466e-16 -17.488014661816091 1 F -3.1415926535897931 F 0 #
coedge $-1 -1 $-1 $187 $188 $57 $110 forward $189 $-1 #
edge $190 -1 $-1 $118 1.2246467991473532e-16 $115 3.1415926535897931 $57 $191 forward @7 unknown #
coedge $-1 -1 $-1 $60 $58 $62 $120 reversed $113 $-1 #
coedge $-1 -1 $-1 $58 $60 $192 $193 reversed $113 $-1 #
loop $-1 -1 $-1 $-1 $58 $194 #
truecolor-adesk-attrib $-1 -1 $195 $-1 $59 -1023410304 #
vertex $-1 -1 $-1 $59 $196 #
ellipse-curve $-1 -1 $-1 -31.642937820944091 -65.337967951247592 17.745972787660552 0.90611474931689606 -6.123233995736766e-17 0.42303198587149266 0.1269095957614485 -7.0448977630115651e-18 -0.27183442479507031 1 F -1.5707963267948966 F 0 #
truecolor-adesk-attrib $-1 -1 $197 $-1 $61 -1023410304 #
vertex $-1 -1 $-1 $110 $198 #
ellipse-curve $-1 -1 $-1 -47.971972475583705 -65.337967951247592 52.722002111292738 -0.90611474931689606 6.123233995736766e-17 -0.42303198587149254 -0.12690959576144847 7.0448977630115635e-18 0.27183442479507031 1 F -1.5707963267948966 F 0 #
edge $199 -1 $-1 $66 0 $65 3.1415926535897931 $62 $200 forward @7 unknown #
loop $-1 -1 $-1 $-1 $68 $122 #
face $201 -1 $-1 $84 $63 $3 $-1 $202 reversed single #
DXID-attrib $-1 -1 $-1 $64 $34 @18 ASM_EDGE_FROM_STEP @4 6164 #
point $-1 -1 $-1 -31.642937820944091 -65.637967951247589 17.745972787660552 #
point $-1 -1 $-1 -47.971972475583705 -65.637967951247589 52.722002111292738 #
coedge $-1 -1 $-1 $68 $68 $71 $131 forward $121 $-1 #
truecolor-adesk-attrib $-1 -1 $203 $-1 $69 -1023410304 #
ellipse-curve $-1 -1 $-1 -39.807455148263898 -65.637967951247589 35.233987449476643 6.541758334038516e-17 1 4.6249524700757546e-18 -7.5722725470997174 4.2034556652635432e-16 16.219454012772442 1 F 0 F 3.1415926535897931 #
coedge $-1 -1 $-1 $82 $80 $70 $130 forward $140 $-1 #
edge $204 -1 $-1 $45 -1.2246467991473532e-16 $44 3.1415926535897931 $129 $205 forward @7 unknown #
edge $206 -1 $-1 $74 -3.1415926535897931 $77 0 $126 $207 forward @7 unknown #
face $208 -1 $-1 $-1 $72 $3 $-1 $209 forward single #
DXID-attrib $-1 -1 $-1 $73 $37 @18 ASM_EDGE_FROM_STEP @3 576 #
point $-1 -1 $-1 -32.235182601164176 -65.637967951247589 19.014533436704202 #
DXID-attrib $-1 -1 $-1 $76 $39 @18 ASM_EDGE_FROM_STEP @4 1405 #
point $-1 -1 $-1 -47.379727695363613 -65.637967951247589 51.453441462249089 #
coedge $-1 -1 $-1 $210 $210 $79 $138 forward $211 $-1 #
edge $212 -1 $-1 $145 0 $142 3.1415926535897931 $79 $213 forward @7 unknown #
coedge $-1 -1 $-1 $80 $82 $210 $214 reversed $140 $-1 #
loop $-1 -1 $-1 $-1 $139 $152 #
truecolor-adesk-attrib $-1 -1 $215 $-1 $81 -1023410304 #
vertex $-1 -1 $-1 $214 $216 #
straight-curve $-1 -1 $-1 -47.252818099602166 -65.637967951247589 51.181607037454015 -6.5417583340385163e-14 -1000 -4.6249524700757542e-15 F -0.002 F -0.00029999999999999997 #
truecolor-adesk-attrib $-1 -1 $217 $-1 $83 -1023410304 #
vertex $-1 -1 $-1 $214 $218 #
straight-curve $-1 -1 $-1 -32.36209219692563 -65.637967951247589 19.286367861499272 -6.5417583340385163e-14 -1000 -4.6249524700757542e-15 F -0.002 F -0.00029999999999999997 #
truecolor-adesk-attrib $-1 -1 $219 $-1 $84 -1023410304 #
face $220 -1 $-1 $221 $222 $3 $-1 $223 reversed single #
cone-surface $-1 -1 $-1 -39.807455148263898 -65.637967951247589 35.233987449476643 -6.541758334038516e-17 -1 -4.6249524700757546e-18 7.4453629513382698 -4.133006687633428e-16 -15.947619587977371 1 I I 0 1 17.600000000000001 forward I I I I #
DXID-attrib $-1 -1 $-1 $89 $49 @18 ASM_FACE_FROM_STEP @16 step-1M-562-3524 #
truecolor-adesk-attrib $-1 -1 $224 $-1 $90 -1023410304 #
face $225 -1 $-1 $226 $140 $3 $-1 $227 reversed single #
loop $-1 -1 $-1 $-1 $228 $90 #
cone-surface $-1 -1 $-1 -39.807455148263898 -65.637967951247589 35.233987449476643 -6.541758334038516e-17 -1 -4.6249524700757546e-18 7.6568789442740153 -4.2504216503502863e-16 -16.400676962635821 1 I I 0 1 18.100000000000001 forward I I I I #
coedge $-1 -1 $-1 $229 $93 $230 $231 forward $50 $-1 #
coedge $-1 -1 $-1 $93 $229 $232 $233 reversed $50 $-1 #
coedge $-1 -1 $-1 $234 $235 $93 $158 forward $236 $-1 #
edge $237 -1 $-1 $238 -3.1415926535897931 $239 1.7649321517123616e-16 $93 $240 forward @7 unknown #
coedge $-1 -1 $-1 $95 $94 $241 $242 reversed $28 $-1 #
coedge $-1 -1 $-1 $243 $244 $94 $161 reversed $245 $-1 #
edge $246 -1 $-1 $167 0 $247 1.5707963267948966 $94 $248 forward @7 unknown #
coedge $-1 -1 $-1 $244 $243 $95 $163 forward $245 $-1 #
edge $249 -1 $-1 $168 0 $250 1.5707963267948966 $95 $251 forward @7 unknown #
coedge $-1 -1 $-1 $252 $96 $253 $254 forward $91 $-1 #
coedge $-1 -1 $-1 $96 $252 $255 $256 reversed $91 $-1 #
truecolor-adesk-attrib $-1 -1 $257 $-1 $97 -1023410304 #
vertex $-1 -1 $-1 $97 $258 #
vertex $-1 -1 $-1 $97 $259 #
ellipse-curve $-1 -1 $-1 -39.807455148263898 -45.937967951247586 35.233987449476643 6.541758334038516e-17 1 4.6249524700757546e-18 -7.4453629513382698 4.133006687633428e-16 15.947619587977371 1 F -3.1415926535897931 F 1.2246467991473532e-16 #
coedge $-1 -1 $-1 $188 $187 $98 $171 forward $189 $-1 #
edge $260 -1 $-1 $179 0 $176 3.1415926535897931 $98 $261 forward @7 unknown #
coedge $-1 -1 $-1 $101 $99 $103 $181 reversed $174 $-1 #
coedge $-1 -1 $-1 $99 $101 $262 $263 reversed $174 $-1 #
loop $-1 -1 $-1 $-1 $99 $264 #
truecolor-adesk-attrib $-1 -1 $265 $-1 $100 -1023410304 #
vertex $-1 -1 $-1 $100 $266 #
ellipse-curve $-1 -1 $-1 -47.971972475583698 -37.937967951247593 52.722002111292738 0.90611474931689606 -6.123233995736766e-17 0.42303198587149243 0.12690959576144845 -7.044897763011562e-18 -0.27183442479507031 1 F 1.5707963267948966 F 3.1415926535897931 #
truecolor-adesk-attrib $-1 -1 $267 $-1 $102 -1023410304 #
vertex $-1 -1 $-1 $171 $268 #
ellipse-curve $-1 -1 $-1 -31.642937820944091 -37.937967951247593 17.745972787660552 -0.90611474931689606 6.123233995736766e-17 -0.42303198587149254 -0.12690959576144847 7.0448977630115635e-18 0.27183442479507031 1 F 1.5707963267948966 F 3.1415926535897931 #
edge $269 -1 $-1 $107 0 $106 3.1415926535897931 $103 $270 forward @7 unknown #
loop $-1 -1 $-1 $-1 $271 $183 #
face $272 -1 $-1 $273 $104 $3 $-1 $274 reversed single #
DXID-attrib $-1 -1 $-1 $105 $56 @18 ASM_EDGE_FROM_STEP @4 1680 #
point $-1 -1 $-1 -47.971972475583698 -37.637967951247589 52.722002111292738 #
point $-1 -1 $-1 -31.642937820944091 -37.637967951247589 17.745972787660552 #
coedge $-1 -1 $-1 $170 $109 $275 $276 reversed $189 $-1 #
coedge $-1 -1 $-1 $109 $170 $277 $278 forward $189 $-1 #
loop $-1 -1 $-1 $-1 $170 $226 #
truecolor-adesk-attrib $-1 -1 $279 $-1 $110 -1023410304 #
ellipse-curve $-1 -1 $-1 -39.807455148263898 -65.337967951247592 35.233987449476643 6.541758334038516e-17 1 4.6249524700757546e-18 -8.2914269230812536 4.6026665385008623e-16 17.759849086611165 1 F 1.2246467991473532e-16 F 3.1415926535897931 #
coedge $-1 -1 $-1 $277 $275 $112 $193 forward $280 $-1 #
edge $281 -1 $-1 $115 -3.1415926535897931 $118 1.2246467991473532e-16 $192 $282 forward @7 unknown #
face $283 -1 $-1 $132 $113 $3 $-1 $284 forward single #
DXID-attrib $-1 -1 $-1 $114 $59 @18 ASM_EDGE_FROM_STEP @4 5042 #
point $-1 -1 $-1 -31.516028225182644 -65.337967951247592 17.474138362865478 #
DXID-attrib $-1 -1 $-1 $117 $61 @18 ASM_EDGE_FROM_STEP @4 3894 #
point $-1 -1 $-1 -48.098882071345152 -65.337967951247592 52.993836536087812 #
truecolor-adesk-attrib $-1 -1 $285 $-1 $120 -1023410304 #
ellipse-curve $-1 -1 $-1 -39.807455148263898 -65.637967951247589 35.233987449476643 -6.541758334038516e-17 -1 -4.6249524700757546e-18 -8.1645173273198051 4.5322175608707466e-16 17.488014661816091 1 F 0 F 3.1415926535897931 #
truecolor-adesk-attrib $-1 -1 $286 $-1 $122 -1023410304 #
plane-surface $-1 -1 $-1 -39.807455148263898 -65.637967951247589 35.233987449476643 6.541758334038516e-17 1 4.6249524700757546e-18 -0.42303198587149254 2.3482992543371747e-17 0.90611474931689606 forward_v I I I I #
DXID-attrib $-1 -1 $-1 $127 $69 @18 ASM_EDGE_FROM_STEP @4 4506 #
truecolor-adesk-attrib $-1 -1 $287 $-1 $130 -1023410304 #
ellipse-curve $-1 -1 $-1 -39.807455148263898 -65.337967951247592 35.233987449476643 -6.541758334038516e-17 -1 -4.6249524700757546e-18 -7.4453629513382698 4.133006687633428e-16 15.947619587977371 1 F -1.2246467991473532e-16 F 3.1415926535897931 #
truecolor-adesk-attrib $-1 -1 $288 $-1 $131 -1023410304 #
ellipse-curve $-1 -1 $-1 -39.807455148263898 -65.637967951247589 35.233987449476643 6.541758334038516e-17 1 4.6249524700757546e-18 -7.5722725470997174 4.2034556652635432e-16 16.219454012772442 1 F -3.1415926535897931 F 0 #
truecolor-adesk-attrib $-1 -1 $289 $-1 $132 -1023410304 #
torus-surface $-1 -1 $-1 -39.807455148263898 -65.337967951247592 35.233987449476643 6.541758334038516e-17 1 4.6249524700757546e-18 17.900000000000002 0.29999999999999999 -0.42303198587149254 2.3482992543371747e-17 0.90611474931689606 forward_v I I I I #
coedge $-1 -1 $-1 $137 $137 $139 $214 forward $211 $-1 #
loop $-1 -1 $-1 $-1 $137 $148 #
truecolor-adesk-attrib $-1 -1 $290 $-1 $138 -1023410304 #
ellipse-curve $-1 -1 $-1 -39.807455148263898 -63.637967951247589 35.233987449476643 -6.541758334038516e-17 -1 -4.6249524700757546e-18 7.4453629513382698 -4.133006687633428e-16 -15.947619587977371 1 F 0 F 3.1415926535897931 #
edge $291 -1 $-1 $142 -3.1415926535897931 $145 0 $139 $292 forward @7 unknown #
DXID-attrib $-1 -1 $-1 $141 $81 @18 ASM_EDGE_FROM_STEP @4 3421 #
point $-1 -1 $-1 -47.252818099602166 -63.637967951247589 51.181607037454015 #
DXID-attrib $-1 -1 $-1 $144 $83 @18 ASM_EDGE_FROM_STEP @4 5189 #
point $-1 -1 $-1 -32.36209219692563 -63.637967951247589 19.286367861499272 #
DXID-attrib $-1 -1 $-1 $147 $84 @18 ASM_FACE_FROM_STEP @16 step-1M-562-2296 #
truecolor-adesk-attrib $-1 -1 $293 $-1 $148 -1023410304 #
face $294 -1 $-1 $295 $296 $3 $-1 $297 reversed single #
loop $-1 -1 $-1 $211 $298 $148 #
plane-surface $-1 -1 $-1 -39.807455148263898 -63.637967951247589 35.233987449476643 -6.541758334038516e-17 -1 -4.6249524700757546e-18 0.42303198587149254 -2.3482992543371747e-17 -0.90611474931689606 forward_v I I I I #
DXID-attrib $-1 -1 $-1 $151 $90 @18 ASM_FACE_FROM_STEP @16 step-1M-562-3165 #
truecolor-adesk-attrib $-1 -1 $299 $-1 $152 -1023410304 #
face $300 -1 $-1 $301 $189 $3 $-1 $302 forward single #
cone-surface $-1 -1 $-1 -39.807455148263898 -65.637967951247589 35.233987449476643 -6.541758334038516e-17 -1 -4.6249524700757546e-18 7.4453629513382698 -4.133006687633428e-16 -15.947619587977371 1 I I 0 1 17.600000000000001 forward I I I I #
coedge $-1 -1 $-1 $303 $304 $305 $306 reversed $153 $-1 #
coedge $-1 -1 $-1 $156 $155 $307 $308 forward $50 $-1 #
coedge $-1 -1 $-1 $309 $310 $155 $231 reversed $311 $-1 #
edge $312 -1 $-1 $238 -0.023250000000000007 $313 -0.02 $155 $314 forward @7 unknown #
coedge $-1 -1 $-1 $310 $309 $156 $233 forward $311 $-1 #
edge $315 -1 $-1 $239 -0.023250000000000007 $316 -0.02 $156 $317 forward @7 unknown #
coedge $-1 -1 $-1 $318 $157 $319 $320 forward $236 $-1 #
coedge $-1 -1 $-1 $157 $318 $321 $322 reversed $236 $-1 #
loop $-1 -1 $-1 $-1 $157 $323 #
truecolor-adesk-attrib $-1 -1 $324 $-1 $158 -1023410304 #
vertex $-1 -1 $-1 $158 $325 #
vertex $-1 -1 $-1 $158 $326 #
ellipse-curve $-1 -1 $-1 -39.807455148263898 -42.387967951247582 35.233987449476643 -6.541758334038516e-17 -1 -4.6249524700757546e-18 1.7978859399538429 -9.9802718309329904e-17 -3.8509876845968076 1 F -3.1415926535897931 F 1.7649321517123616e-16 #
coedge $-1 -1 $-1 $327 $327 $159 $242 forward $328 $-1 #
edge $329 -1 $-1 $250 0 $247 3.1415926535897931 $159 $330 forward @7 unknown #
coedge $-1 -1 $-1 $162 $160 $331 $332 reversed $245 $-1 #
coedge $-1 -1 $-1 $160 $162 $327 $333 reversed $245 $-1 #
loop $-1 -1 $-1 $-1 $160 $334 #
truecolor-adesk-attrib $-1 -1 $335 $-1 $161 -1023410304 #
vertex $-1 -1 $-1 $161 $336 #
ellipse-curve $-1 -1 $-1 -32.489001792687077 -45.937967951247586 19.558202286294343 0.90611474931689606 -6.123233995736766e-17 0.42303198587149266 0.1269095957614485 -7.0448977630115651e-18 -0.27183442479507031 1 F 0 F 1.5707963267948966 #
truecolor-adesk-attrib $-1 -1 $337 $-1 $163 -1023410304 #
vertex $-1 -1 $-1 $242 $338 #
ellipse-curve $-1 -1 $-1 -47.125908503840719 -45.937967951247586 50.909772612658948 -0.90611474931689606 6.123233995736766e-17 -0.42303198587149254 -0.12690959576144847 7.0448977630115635e-18 0.27183442479507031 1 F 0 F 1.5707963267948966 #
coedge $-1 -1 $-1 $165 $164 $339 $340 forward $91 $-1 #
coedge $-1 -1 $-1 $331 $341 $164 $254 reversed $342 $-1 #
edge $343 -1 $-1 $168 -0.019699999999999999 $344 -0.0024999999999999996 $164 $345 forward @7 unknown #
coedge $-1 -1 $-1 $341 $331 $165 $256 forward $342 $-1 #
edge $346 -1 $-1 $167 -0.019699999999999999 $347 -0.0024999999999999996 $165 $348 forward @7 unknown #
DXID-attrib $-1 -1 $-1 $166 $97 @18 ASM_EDGE_FROM_STEP @4 4269 #
point $-1 -1 $-1 -32.36209219692563 -45.937967951247586 19.286367861499272 #
point $-1 -1 $-1 -47.252818099602166 -45.937967951247586 51.181607037454015 #
truecolor-adesk-attrib $-1 -1 $349 $-1 $171 -1023410304 #
ellipse-curve $-1 -1 $-1 -39.807455148263898 -37.937967951247593 35.233987449476643 -6.541758334038516e-17 -1 -4.6249524700757546e-18 8.2914269230812536 -4.6026665385008623e-16 -17.759849086611165 1 F 0 F 3.1415926535897931 #
coedge $-1 -1 $-1 $275 $277 $173 $263 forward $280 $-1 #
edge $350 -1 $-1 $176 -3.1415926535897931 $179 0 $262 $351 forward @7 unknown #
face $352 -1 $-1 $194 $174 $3 $-1 $353 forward single #
DXID-attrib $-1 -1 $-1 $175 $100 @18 ASM_EDGE_FROM_STEP @4 4966 #
point $-1 -1 $-1 -48.098882071345145 -37.937967951247593 52.993836536087812 #
DXID-attrib $-1 -1 $-1 $178 $102 @18 ASM_EDGE_FROM_STEP @2 51 #
point $-1 -1 $-1 -31.516028225182644 -37.937967951247593 17.474138362865478 #
truecolor-adesk-attrib $-1 -1 $354 $-1 $181 -1023410304 #
ellipse-curve $-1 -1 $-1 -39.807455148263898 -37.637967951247589 35.233987449476643 6.541758334038516e-17 1 4.6249524700757546e-18 8.1645173273198051 -4.5322175608707466e-16 -17.488014661816091 1 F 0 F 3.1415926535897931 #
coedge $-1 -1 $-1 $355 $355 $356 $357 forward $182 $-1 #
truecolor-adesk-attrib $-1 -1 $358 $-1 $183 -1023410304 #
face $359 -1 $-1 $122 $280 $3 $-1 $360 forward single #
plane-surface $-1 -1 $-1 -39.807455148263898 -37.637967951247589 35.233987449476643 -6.541758334038516e-17 -1 -4.6249524700757546e-18 0.42303198587149254 -2.3482992543371747e-17 -0.90611474931689606 forward_v I I I I #
coedge $-1 -1 $-1 $192 $262 $187 $276 forward $280 $-1 #
edge $361 -1 $-1 $179 -0.027699999999999995 $115 -0.00029999999999999997 $187 $362 forward @7 unknown #
coedge $-1 -1 $-1 $262 $192 $188 $278 reversed $280 $-1 #
edge $363 -1 $-1 $176 -0.027699999999999995 $118 -0.00029999999999999997 $188 $364 forward @7 unknown #
DXID-attrib $-1 -1 $-1 $190 $110 @18 ASM_EDGE_FROM_STEP @4 1742 #
loop $-1 -1 $-1 $-1 $277 $273 #
truecolor-adesk-attrib $-1 -1 $365 $-1 $193 -1023410304 #
ellipse-curve $-1 -1 $-1 -39.807455148263898 -65.337967951247592 35.233987449476643 6.541758334038516e-17 1 4.6249524700757546e-18 -8.2914269230812536 4.6026665385008623e-16 17.759849086611165 1 F -3.1415926535897931 F 1.2246467991473532e-16 #
truecolor-adesk-attrib $-1 -1 $366 $-1 $194 -1023410304 #
torus-surface $-1 -1 $-1 -39.807455148263898 -65.337967951247592 35.233987449476643 6.541758334038516e-17 1 4.6249524700757546e-18 19.299999999999997 0.29999999999999999 -0.42303198587149254 2.3482992543371747e-17 0.90611474931689606 forward_v I I I I #
DXID-attrib $-1 -1 $-1 $199 $120 @18 ASM_EDGE_FROM_STEP @3 947 #
DXID-attrib $-1 -1 $-1 $201 $122 @18 ASM_FACE_FROM_STEP @16 step-1M-562-1040 #
DXID-attrib $-1 -1 $-1 $204 $130 @18 ASM_EDGE_FROM_STEP @4 6210 #
DXID-attrib $-1 -1 $-1 $206 $131 @18 ASM_EDGE_FROM_STEP @4 6659 #
DXID-attrib $-1 -1 $-1 $208 $132 @18 ASM_FACE_FROM_STEP @16 step-1M-562-1472 #
DXID-attrib $-1 -1 $-1 $212 $138 @18 ASM_EDGE_FROM_STEP @3 355 #
truecolor-adesk-attrib $-1 -1 $367 $-1 $214 -1023410304 #
ellipse-curve $-1 -1 $-1 -39.807455148263898 -63.637967951247589 35.233987449476643 -6.541758334038516e-17 -1 -4.6249524700757546e-18 7.4453629513382698 -4.133006687633428e-16 -15.947619587977371 1 F -3.1415926535897931 F 0 #
DXID-attrib $-1 -1 $-1 $220 $148 @18 ASM_FACE_FROM_STEP @15 step-1M-562-385 #
truecolor-adesk-attrib $-1 -1 $368 $-1 $221 -1023410304 #
face $369 -1 $-1 $370 $371 $3 $-1 $372 forward single #
loop $-1 -1 $-1 $-1 $373 $221 #
cone-surface $-1 -1 $-1 -39.807455148263898 -65.637967951247589 35.233987449476643 -6.541758334038516e-17 -1 -4.6249524700757546e-18 7.6568789442740153 -4.2504216503502863e-16 -16.400676962635821 1 I I 0 1 18.100000000000001 forward I I I I #
coedge $-1 -1 $-1 $374 $374 $375 $376 reversed $222 $-1 #
DXID-attrib $-1 -1 $-1 $225 $152 @18 ASM_FACE_FROM_STEP @15 step-1M-562-791 #
truecolor-adesk-attrib $-1 -1 $377 $-1 $226 -1023410304 #
face $378 -1 $-1 $323 $379 $3 $-1 $380 reversed single #
cone-surface $-1 -1 $-1 -39.807455148263898 -65.637967951247589 35.233987449476643 -6.541758334038516e-17 -1 -4.6249524700757546e-18 8.2914269230812536 -4.6026665385008623e-16 -17.759849086611165 1 I I 0 1 19.600000000000001 forward I I I I #
coedge $-1 -1 $-1 $381 $228 $373 $382 forward $153 $-1 #
coedge $-1 -1 $-1 $228 $381 $383 $384 reversed $153 $-1 #
coedge $-1 -1 $-1 $385 $385 $228 $306 forward $371 $-1 #
edge $386 -1 $-1 $387 -3.1415926535897931 $388 0 $228 $389 forward @7 unknown #
coedge $-1 -1 $-1 $390 $390 $229 $308 reversed $391 $-1 #
edge $392 -1 $-1 $313 -3.1415926535897931 $316 0 $229 $393 forward @7 unknown #
coedge $-1 -1 $-1 $232 $230 $394 $395 reversed $311 $-1 #
coedge $-1 -1 $-1 $230 $232 $390 $396 forward $311 $-1 #
loop $-1 -1 $-1 $-1 $230 $397 #
truecolor-adesk-attrib $-1 -1 $398 $-1 $231 -1023410304 #
vertex $-1 -1 $-1 $231 $399 #
straight-curve $-1 -1 $-1 -41.605341088217742 -65.637967951247589 39.084975134073453 -6.5417583340385163e-14 -1000 -4.6249524700757542e-15 F -0.023250000000000007 F -0.02 #
truecolor-adesk-attrib $-1 -1 $400 $-1 $233 -1023410304 #
vertex $-1 -1 $-1 $308 $401 #
straight-curve $-1 -1 $-1 -38.009569208310054 -65.637967951247589 31.382999764879834 -6.5417583340385163e-14 -1000 -4.6249524700757542e-15 F -0.023250000000000007 F -0.02 #
coedge $-1 -1 $-1 $235 $234 $402 $403 reversed $236 $-1 #
coedge $-1 -1 $-1 $394 $404 $234 $320 reversed $405 $-1 #
edge $406 -1 $-1 $239 1.9884193358832297e-35 $407 0.0053033008588991319 $234 $408 forward @7 unknown #
coedge $-1 -1 $-1 $404 $394 $235 $322 forward $405 $-1 #
edge $409 -1 $-1 $238 0 $410 0.0053033008588991319 $235 $411 forward @7 unknown #
face $412 -1 $-1 $413 $236 $3 $-1 $414 reversed single #
DXID-attrib $-1 -1 $-1 $237 $158 @18 ASM_EDGE_FROM_STEP @3 497 #
point $-1 -1 $-1 -41.605341088217742 -42.387967951247582 39.084975134073453 #
point $-1 -1 $-1 -38.009569208310054 -42.387967951247582 31.382999764879838 #
coedge $-1 -1 $-1 $241 $241 $244 $333 forward $328 $-1 #
loop $-1 -1 $-1 $391 $241 $415 #
truecolor-adesk-attrib $-1 -1 $416 $-1 $242 -1023410304 #
ellipse-curve $-1 -1 $-1 -39.807455148263898 -45.637967951247589 35.233987449476643 -6.541758334038516e-17 -1 -4.6249524700757546e-18 -7.3184533555768212 4.0625577100033123e-16 15.675785163182303 1 F 0 F 3.1415926535897931 #
coedge $-1 -1 $-1 $255 $253 $243 $332 forward $342 $-1 #
edge $417 -1 $-1 $168 1.2246467991473532e-16 $167 3.1415926535897931 $331 $418 forward @7 unknown #
edge $419 -1 $-1 $247 -3.1415926535897931 $250 0 $327 $420 forward @7 unknown #
face $421 -1 $-1 $264 $245 $3 $-1 $422 reversed single #
DXID-attrib $-1 -1 $-1 $246 $161 @18 ASM_EDGE_FROM_STEP @4 1980 #
point $-1 -1 $-1 -32.489001792687077 -45.637967951247589 19.558202286294343 #
DXID-attrib $-1 -1 $-1 $249 $163 @18 ASM_EDGE_FROM_STEP @4 4736 #
point $-1 -1 $-1 -47.125908503840719 -45.637967951247589 50.909772612658948 #
coedge $-1 -1 $-1 $423 $423 $252 $340 reversed $424 $-1 #
edge $425 -1 $-1 $344 -3.1415926535897931 $347 0 $252 $426 forward @7 unknown #
coedge $-1 -1 $-1 $253 $255 $423 $427 forward $342 $-1 #
loop $-1 -1 $-1 $-1 $253 $370 #
truecolor-adesk-attrib $-1 -1 $428 $-1 $254 -1023410304 #
vertex $-1 -1 $-1 $254 $429 #
straight-curve $-1 -1 $-1 -47.252818099602166 -65.637967951247589 51.181607037454015 -6.5417583340385163e-14 -1000 -4.6249524700757542e-15 F -0.019699999999999999 F -0.0024999999999999996 #
truecolor-adesk-attrib $-1 -1 $430 $-1 $256 -1023410304 #
vertex $-1 -1 $-1 $340 $431 #
straight-curve $-1 -1 $-1 -32.36209219692563 -65.637967951247589 19.286367861499272 -6.5417583340385163e-14 -1000 -4.6249524700757542e-15 F -0.019699999999999999 F -0.0024999999999999996 #
DXID-attrib $-1 -1 $-1 $260 $171 @18 ASM_EDGE_FROM_STEP @4 5513 #
truecolor-adesk-attrib $-1 -1 $432 $-1 $263 -1023410304 #
ellipse-curve $-1 -1 $-1 -39.807455148263898 -37.937967951247593 35.233987449476643 -6.541758334038516e-17 -1 -4.6249524700757546e-18 8.2914269230812536 -4.6026665385008623e-16 -17.759849086611165 1 F -3.1415926535897931 F 0 #
truecolor-adesk-attrib $-1 -1 $433 $-1 $264 -1023410304 #
torus-surface $-1 -1 $-1 -39.807455148263898 -37.937967951247593 35.233987449476643 -6.541758334038516e-17 -1 -4.6249524700757546e-18 19.299999999999997 0.29999999999999999 0.42303198587149254 -2.3482992543371747e-17 -0.90611474931689606 forward_v I I I I #
DXID-attrib $-1 -1 $-1 $269 $181 @18 ASM_EDGE_FROM_STEP @4 5791 #
coedge $-1 -1 $-1 $271 $271 $434 $435 forward $182 $-1 #
coedge $-1 -1 $-1 $436 $437 $271 $357 reversed $438 $-1 #
edge $439 -1 $-1 $440 0 $441 3.1415926535897931 $356 $442 forward @7 unknown #
DXID-attrib $-1 -1 $-1 $272 $183 @18 ASM_FACE_FROM_STEP @16 step-1M-562-1198 #
truecolor-adesk-attrib $-1 -1 $443 $-1 $273 -1023410304 #
cone-surface $-1 -1 $-1 -39.807455148263898 -65.637967951247589 35.233987449476643 -6.541758334038516e-17 -1 -4.6249524700757546e-18 8.2914269230812536 -4.6026665385008623e-16 -17.759849086611165 1 I I 0 1 19.600000000000001 forward I I I I #
truecolor-adesk-attrib $-1 -1 $444 $-1 $276 -1023410304 #
straight-curve $-1 -1 $-1 -31.516028225182644 -65.637967951247589 17.474138362865478 -6.5417583340385163e-14 -1000 -4.6249524700757542e-15 F -0.027699999999999995 F -0.00029999999999999997 #
truecolor-adesk-attrib $-1 -1 $445 $-1 $278 -1023410304 #
straight-curve $-1 -1 $-1 -48.098882071345152 -65.637967951247589 52.993836536087812 -6.5417583340385163e-14 -1000 -4.6249524700757542e-15 F -0.027699999999999995 F -0.00029999999999999997 #
DXID-attrib $-1 -1 $-1 $281 $193 @18 ASM_EDGE_FROM_STEP @4 2109 #
DXID-attrib $-1 -1 $-1 $283 $194 @18 ASM_FACE_FROM_STEP @16 step-1M-562-5481 #
DXID-attrib $-1 -1 $-1 $291 $214 @18 ASM_EDGE_FROM_STEP @4 3290 #
DXID-attrib $-1 -1 $-1 $294 $221 @18 ASM_FACE_FROM_STEP @15 step-1M-562-420 #
truecolor-adesk-attrib $-1 -1 $446 $-1 $295 -1023410304 #
face $447 -1 $-1 $415 $342 $3 $-1 $448 reversed single #
loop $-1 -1 $-1 $424 $385 $295 #
plane-surface $-1 -1 $-1 -39.807455148263898 -63.137967951247589 35.233987449476643 -6.541758334038516e-17 -1 -4.6249524700757546e-18 0.42303198587149254 -2.3482992543371747e-17 -0.90611474931689606 forward_v I I I I #
coedge $-1 -1 $-1 $449 $375 $303 $382 reversed $296 $-1 #
coedge $-1 -1 $-1 $298 $298 $381 $450 reversed $222 $-1 #
coedge $-1 -1 $-1 $373 $383 $298 $376 forward $296 $-1 #
edge $451 -1 $-1 $452 0 $453 3.1415926535897931 $298 $454 forward @7 unknown #
DXID-attrib $-1 -1 $-1 $300 $226 @18 ASM_FACE_FROM_STEP @16 step-1M-562-6874 #
truecolor-adesk-attrib $-1 -1 $455 $-1 $301 -1023410304 #
loop $-1 -1 $-1 $-1 $434 $301 #
cone-surface $-1 -1 $-1 -39.807455148263898 -65.637967951247589 35.233987449476643 -6.541758334038516e-17 -1 -4.6249524700757546e-18 3.384255886971939 -1.878639403469739e-16 -7.2489179945351658 1 I I 0 1 7.9999999999999973 forward I I I I #
coedge $-1 -1 $-1 $304 $303 $374 $450 forward $153 $-1 #
edge $456 -1 $-1 $387 -0.0024999999999999996 $453 -0.0019999999999999996 $303 $457 forward @7 unknown #
coedge $-1 -1 $-1 $375 $449 $304 $384 forward $296 $-1 #
edge $458 -1 $-1 $388 -0.0024999999999999996 $452 -0.0019999999999999996 $304 $459 forward @7 unknown #
coedge $-1 -1 $-1 $305 $305 $449 $460 forward $371 $-1 #
truecolor-adesk-attrib $-1 -1 $461 $-1 $306 -1023410304 #
vertex $-1 -1 $-1 $306 $462 #
vertex $-1 -1 $-1 $306 $463 #
ellipse-curve $-1 -1 $-1 -39.807455148263898 -63.137967951247589 35.233987449476643 -6.541758334038516e-17 -1 -4.6249524700757546e-18 7.6568789442740153 -4.2504216503502863e-16 -16.400676962635821 1 F -3.1415926535897931 F 0 #
coedge $-1 -1 $-1 $307 $307 $310 $396 reversed $391 $-1 #
loop $-1 -1 $-1 $-1 $390 $415 #
truecolor-adesk-attrib $-1 -1 $464 $-1 $308 -1023410304 #
ellipse-curve $-1 -1 $-1 -39.807455148263898 -45.637967951247589 35.233987449476643 -6.541758334038516e-17 -1 -4.6249524700757546e-18 1.7978859399538434 -9.9802718309329929e-17 -3.8509876845968081 1 F -3.1415926535897931 F 0 #
coedge $-1 -1 $-1 $321 $319 $309 $395 forward $405 $-1 #
edge $465 -1 $-1 $239 1.7649321517123616e-16 $238 3.1415926535897931 $394 $466 forward @7 unknown #
edge $467 -1 $-1 $316 0 $313 3.1415926535897931 $390 $468 forward @7 unknown #
face $469 -1 $-1 $334 $311 $3 $-1 $470 reversed single #
DXID-attrib $-1 -1 $-1 $312 $231 @18 ASM_EDGE_FROM_STEP @4 3379 #
point $-1 -1 $-1 -41.605341088217742 -45.637967951247589 39.084975134073453 #
DXID-attrib $-1 -1 $-1 $315 $233 @18 ASM_EDGE_FROM_STEP @4 3550 #
point $-1 -1 $-1 -38.009569208310054 -45.637967951247589 31.382999764879834 #
coedge $-1 -1 $-1 $471 $472 $318 $403 forward $379 $-1 #
edge $473 -1 $-1 $410 -3.1415926535897931 $407 1.2246467991473532e-16 $402 $474 forward @7 unknown #
coedge $-1 -1 $-1 $319 $321 $475 $476 reversed $405 $-1 #
loop $-1 -1 $-1 $-1 $319 $413 #
truecolor-adesk-attrib $-1 -1 $477 $-1 $320 -1023410304 #
vertex $-1 -1 $-1 $403 $478 #
straight-curve $-1 -1 $-1 -38.009569208310054 -42.387967951247582 31.382999764879838 299.12878586854254 707.10678118655153 -640.71988377512207 F 1.9884193358832297e-35 F 0.0053033008588991319 #
truecolor-adesk-attrib $-1 -1 $479 $-1 $322 -1023410304 #
vertex $-1 -1 $-1 $480 $481 #
straight-curve $-1 -1 $-1 -41.605341088217742 -42.387967951247582 39.084975134073453 -299.12878586854237 707.10678118655153 640.71988377512207 F 0 F 0.0053033008588991319 #
truecolor-adesk-attrib $-1 -1 $482 $-1 $323 -1023410304 #
face $483 -1 $-1 $484 $405 $3 $-1 $485 reversed single #
cone-surface $-1 -1 $-1 -39.807455148263898 -42.387967951247582 35.233987449476643 6.541758334038516e-17 1 4.6249524700757546e-18 -1.7978859399538429 9.9802718309329904e-17 3.8509876845968076 1 I I 0.70710678118654346 0.70710678118655157 4.2499999999999991 forward I I I I #
face $486 -1 $-1 $397 $328 $3 $-1 $487 reversed single #
DXID-attrib $-1 -1 $-1 $329 $242 @18 ASM_EDGE_FROM_STEP @3 147 #
truecolor-adesk-attrib $-1 -1 $488 $-1 $332 -1023410304 #
ellipse-curve $-1 -1 $-1 -39.807455148263898 -45.937967951247586 35.233987449476643 6.541758334038516e-17 1 4.6249524700757546e-18 -7.4453629513382698 4.133006687633428e-16 15.947619587977371 1 F 1.2246467991473532e-16 F 3.1415926535897931 #
truecolor-adesk-attrib $-1 -1 $489 $-1 $333 -1023410304 #
ellipse-curve $-1 -1 $-1 -39.807455148263898 -45.637967951247589 35.233987449476643 -6.541758334038516e-17 -1 -4.6249524700757546e-18 -7.3184533555768212 4.0625577100033123e-16 15.675785163182303 1 F -3.1415926535897931 F 0 #
truecolor-adesk-attrib $-1 -1 $490 $-1 $334 -1023410304 #
torus-surface $-1 -1 $-1 -39.807455148263898 -45.937967951247586 35.233987449476643 6.541758334038516e-17 1 4.6249524700757546e-18 17.300000000000001 0.29999999999999999 -0.42303198587149254 2.3482992543371747e-17 0.90611474931689606 forward_v I I I I #
coedge $-1 -1 $-1 $339 $339 $341 $427 reversed $424 $-1 #
loop $-1 -1 $-1 $-1 $423 $295 #
truecolor-adesk-attrib $-1 -1 $491 $-1 $340 -1023410304 #
ellipse-curve $-1 -1 $-1 -39.807455148263898 -63.137967951247589 35.233987449476643 -6.541758334038516e-17 -1 -4.6249524700757546e-18 7.4453629513382698 -4.133006687633428e-16 -15.947619587977371 1 F -3.1415926535897931 F 0 #
edge $492 -1 $-1 $347 0 $344 3.1415926535897931 $423 $493 forward @7 unknown #
DXID-attrib $-1 -1 $-1 $343 $254 @18 ASM_EDGE_FROM_STEP @4 7047 #
point $-1 -1 $-1 -47.252818099602166 -63.137967951247589 51.181607037454015 #
DXID-attrib $-1 -1 $-1 $346 $256 @18 ASM_EDGE_FROM_STEP @4 1546 #
point $-1 -1 $-1 -32.36209219692563 -63.137967951247589 19.286367861499272 #
DXID-attrib $-1 -1 $-1 $350 $263 @18 ASM_EDGE_FROM_STEP @3 148 #
DXID-attrib $-1 -1 $-1 $352 $264 @18 ASM_FACE_FROM_STEP @16 step-1M-562-1438 #
coedge $-1 -1 $-1 $472 $471 $355 $435 reversed $379 $-1 #
edge $494 -1 $-1 $441 -3.1415926535897931 $440 0 $434 $495 forward @7 unknown #
coedge $-1 -1 $-1 $475 $356 $471 $496 forward $438 $-1 #
coedge $-1 -1 $-1 $356 $475 $472 $480 reversed $438 $-1 #
loop $-1 -1 $-1 $-1 $437 $484 #
truecolor-adesk-attrib $-1 -1 $497 $-1 $357 -1023410304 #
vertex $-1 -1 $-1 $435 $498 #
vertex $-1 -1 $-1 $435 $499 #
ellipse-curve $-1 -1 $-1 -39.807455148263898 -37.637967951247589 35.233987449476643 -6.541758334038516e-17 -1 -4.6249524700757546e-18 3.3842558869719404 -1.8786394034697398e-16 -7.2489179945351685 1 F 0 F 3.1415926535897931 #
DXID-attrib $-1 -1 $-1 $359 $273 @18 ASM_FACE_FROM_STEP @16 step-1M-562-6331 #
DXID-attrib $-1 -1 $-1 $361 $276 @18 ASM_EDGE_FROM_STEP @4 5637 #
DXID-attrib $-1 -1 $-1 $363 $278 @18 ASM_EDGE_FROM_STEP @4 3412 #
DXID-attrib $-1 -1 $-1 $369 $295 @18 ASM_FACE_FROM_STEP @16 step-1M-562-1989 #
truecolor-adesk-attrib $-1 -1 $500 $-1 $370 -1023410304 #
cone-surface $-1 -1 $-1 -39.807455148263898 -65.637967951247589 35.233987449476643 -6.541758334038516e-17 -1 -4.6249524700757546e-18 7.4453629513382698 -4.133006687633428e-16 -15.947619587977371 1 I I 0 1 17.600000000000001 forward I I I I #
coedge $-1 -1 $-1 $383 $373 $385 $460 reversed $296 $-1 #
edge $501 -1 $-1 $453 -3.1415926535897931 $452 0 $381 $502 forward @7 unknown #
truecolor-adesk-attrib $-1 -1 $503 $-1 $376 -1023410304 #
vertex $-1 -1 $-1 $450 $504 #
vertex $-1 -1 $-1 $382 $505 #
ellipse-curve $-1 -1 $-1 -39.807455148263898 -63.637967951247589 35.233987449476643 -6.541758334038516e-17 -1 -4.6249524700757546e-18 7.6568789442740153 -4.2504216503502863e-16 -16.400676962635821 1 F 0 F 3.1415926535897931 #
DXID-attrib $-1 -1 $-1 $378 $301 @18 ASM_FACE_FROM_STEP @16 step-1M-562-4112 #
truecolor-adesk-attrib $-1 -1 $506 $-1 $382 -1023410304 #
straight-curve $-1 -1 $-1 -47.464334092537911 -65.637967951247589 51.634664412112464 -6.5417583340385163e-14 -1000 -4.6249524700757542e-15 F -0.0024999999999999996 F -0.0019999999999999996 #
truecolor-adesk-attrib $-1 -1 $507 $-1 $384 -1023410304 #
straight-curve $-1 -1 $-1 -32.150576203989885 -65.637967951247589 18.833310486840823 -6.5417583340385163e-14 -1000 -4.6249524700757542e-15 F -0.0024999999999999996 F -0.0019999999999999996 #
edge $508 -1 $-1 $388 0 $387 3.1415926535897931 $449 $509 forward @7 unknown #
DXID-attrib $-1 -1 $-1 $386 $306 @18 ASM_EDGE_FROM_STEP @4 3504 #
point $-1 -1 $-1 -47.464334092537911 -63.137967951247589 51.634664412112464 #
point $-1 -1 $-1 -32.150576203989885 -63.137967951247589 18.833310486840823 #
DXID-attrib $-1 -1 $-1 $392 $308 @18 ASM_EDGE_FROM_STEP @4 7142 #
truecolor-adesk-attrib $-1 -1 $510 $-1 $395 -1023410304 #
ellipse-curve $-1 -1 $-1 -39.807455148263898 -42.387967951247582 35.233987449476643 -6.541758334038516e-17 -1 -4.6249524700757546e-18 1.7978859399538429 -9.9802718309329904e-17 -3.8509876845968076 1 F 1.7649321517123616e-16 F 3.1415926535897931 #
truecolor-adesk-attrib $-1 -1 $511 $-1 $396 -1023410304 #
ellipse-curve $-1 -1 $-1 -39.807455148263898 -45.637967951247589 35.233987449476643 -6.541758334038516e-17 -1 -4.6249524700757546e-18 1.7978859399538434 -9.9802718309329929e-17 -3.8509876845968081 1 F 0 F 3.1415926535897931 #
truecolor-adesk-attrib $-1 -1 $512 $-1 $397 -1023410304 #
cone-surface $-1 -1 $-1 -39.807455148263898 -65.637967951247589 35.233987449476643 -6.541758334038516e-17 -1 -4.6249524700757546e-18 1.7978859399538434 -9.9802718309329929e-17 -3.8509876845968081 1 I I 0 1 4.25 forward I I I I #
coedge $-1 -1 $-1 $434 $402 $436 $496 reversed $379 $-1 #
coedge $-1 -1 $-1 $402 $434 $437 $480 forward $379 $-1 #
truecolor-adesk-attrib $-1 -1 $513 $-1 $403 -1023410304 #
ellipse-curve $-1 -1 $-1 -39.807455148263898 -38.637967951247546 35.233987449476643 -6.541758334038516e-17 -1 -4.6249524700757546e-18 3.3842558869719381 -1.8786394034697385e-16 -7.2489179945351641 1 F -3.1415926535897931 F 1.2246467991473532e-16 #
coedge $-1 -1 $-1 $437 $436 $404 $476 forward $438 $-1 #
edge $514 -1 $-1 $407 1.2246467991473532e-16 $410 3.1415926535897931 $404 $515 forward @7 unknown #
DXID-attrib $-1 -1 $-1 $406 $320 @18 ASM_EDGE_FROM_STEP @4 4421 #
point $-1 -1 $-1 -36.423199261291956 -38.637967951247546 27.985069454941481 #
DXID-attrib $-1 -1 $-1 $409 $322 @18 ASM_EDGE_FROM_STEP @4 3850 #
edge $516 -1 $-1 $441 -0.028000000000000004 $410 -0.027000000000000045 $472 $517 forward @7 unknown #
point $-1 -1 $-1 -43.191711035235834 -38.637967951247546 42.482905444011806 #
DXID-attrib $-1 -1 $-1 $412 $323 @18 ASM_FACE_FROM_STEP @16 step-1M-562-5272 #
truecolor-adesk-attrib $-1 -1 $518 $-1 $413 -1023410304 #
face $519 -1 $-1 $183 $438 $3 $-1 $520 reversed single #
cone-surface $-1 -1 $-1 -39.807455148263898 -42.387967951247582 35.233987449476643 6.541758334038516e-17 1 4.6249524700757546e-18 -1.7978859399538429 9.9802718309329904e-17 3.8509876845968076 1 I I 0.70710678118654346 0.70710678118655157 4.2499999999999991 forward I I I I #
truecolor-adesk-attrib $-1 -1 $521 $-1 $415 -1023410304 #
plane-surface $-1 -1 $-1 -39.807455148263898 -45.637967951247589 35.233987449476643 6.541758334038516e-17 1 4.6249524700757546e-18 -0.42303198587149254 2.3482992543371747e-17 0.90611474931689606 forward_v I I I I #
DXID-attrib $-1 -1 $-1 $417 $332 @18 ASM_EDGE_FROM_STEP @4 3744 #
DXID-attrib $-1 -1 $-1 $419 $333 @18 ASM_EDGE_FROM_STEP @4 2719 #
DXID-attrib $-1 -1 $-1 $421 $334 @18 ASM_FACE_FROM_STEP @16 step-1M-562-2845 #
DXID-attrib $-1 -1 $-1 $425 $340 @18 ASM_EDGE_FROM_STEP @4 3760 #
truecolor-adesk-attrib $-1 -1 $522 $-1 $427 -1023410304 #
ellipse-curve $-1 -1 $-1 -39.807455148263898 -63.137967951247589 35.233987449476643 -6.541758334038516e-17 -1 -4.6249524700757546e-18 7.4453629513382698 -4.133006687633428e-16 -15.947619587977371 1 F 0 F 3.1415926535897931 #
truecolor-adesk-attrib $-1 -1 $523 $-1 $435 -1023410304 #
ellipse-curve $-1 -1 $-1 -39.807455148263898 -37.637967951247589 35.233987449476643 -6.541758334038516e-17 -1 -4.6249524700757546e-18 3.3842558869719404 -1.8786394034697398e-16 -7.2489179945351685 1 F -3.1415926535897931 F 0 #
edge $524 -1 $-1 $440 -0.028000000000000004 $407 -0.027000000000000045 $471 $525 forward @7 unknown #
DXID-attrib $-1 -1 $-1 $439 $357 @18 ASM_EDGE_FROM_STEP @4 5198 #
point $-1 -1 $-1 -36.423199261291956 -37.637967951247589 27.985069454941474 #
point $-1 -1 $-1 -43.191711035235834 -37.637967951247589 42.482905444011813 #
DXID-attrib $-1 -1 $-1 $447 $370 @18 ASM_FACE_FROM_STEP @16 step-1M-562-2650 #
truecolor-adesk-attrib $-1 -1 $526 $-1 $450 -1023410304 #
ellipse-curve $-1 -1 $-1 -39.807455148263898 -63.637967951247589 35.233987449476643 -6.541758334038516e-17 -1 -4.6249524700757546e-18 7.6568789442740153 -4.2504216503502863e-16 -16.400676962635821 1 F -3.1415926535897931 F 0 #
DXID-attrib $-1 -1 $-1 $451 $376 @18 ASM_EDGE_FROM_STEP @4 4409 #
point $-1 -1 $-1 -32.150576203989885 -63.637967951247589 18.833310486840823 #
point $-1 -1 $-1 -47.464334092537911 -63.637967951247589 51.634664412112464 #
DXID-attrib $-1 -1 $-1 $456 $382 @18 ASM_EDGE_FROM_STEP @3 402 #
DXID-attrib $-1 -1 $-1 $458 $384 @18 ASM_EDGE_FROM_STEP @4 6574 #
truecolor-adesk-attrib $-1 -1 $527 $-1 $460 -1023410304 #
ellipse-curve $-1 -1 $-1 -39.807455148263898 -63.137967951247589 35.233987449476643 -6.541758334038516e-17 -1 -4.6249524700757546e-18 7.6568789442740153 -4.2504216503502863e-16 -16.400676962635821 1 F 0 F 3.1415926535897931 #
DXID-attrib $-1 -1 $-1 $465 $395 @18 ASM_EDGE_FROM_STEP @4 5380 #
DXID-attrib $-1 -1 $-1 $467 $396 @18 ASM_EDGE_FROM_STEP @2 62 #
DXID-attrib $-1 -1 $-1 $469 $397 @18 ASM_FACE_FROM_STEP @16 step-1M-562-3230 #
DXID-attrib $-1 -1 $-1 $473 $403 @18 ASM_EDGE_FROM_STEP @4 2284 #
truecolor-adesk-attrib $-1 -1 $528 $-1 $476 -1023410304 #
ellipse-curve $-1 -1 $-1 -39.807455148263898 -38.637967951247546 35.233987449476643 -6.541758334038516e-17 -1 -4.6249524700757546e-18 3.3842558869719381 -1.8786394034697385e-16 -7.2489179945351641 1 F 1.2246467991473532e-16 F 3.1415926535897931 #
truecolor-adesk-attrib $-1 -1 $529 $-1 $480 -1023410304 #
straight-curve $-1 -1 $-1 -43.191711035235834 -65.637967951247589 42.482905444011806 -6.5417583340385163e-14 -1000 -4.6249524700757542e-15 F -0.028000000000000004 F -0.027000000000000045 #
DXID-attrib $-1 -1 $-1 $483 $413 @18 ASM_FACE_FROM_STEP @16 step-1M-562-5158 #
truecolor-adesk-attrib $-1 -1 $530 $-1 $484 -1023410304 #
cone-surface $-1 -1 $-1 -39.807455148263898 -65.637967951247589 35.233987449476643 -6.541758334038516e-17 -1 -4.6249524700757546e-18 3.384255886971939 -1.878639403469739e-16 -7.2489179945351658 1 I I 0 1 7.9999999999999973 forward I I I I #
DXID-attrib $-1 -1 $-1 $486 $415 @18 ASM_FACE_FROM_STEP @16 step-1M-562-1398 #
DXID-attrib $-1 -1 $-1 $492 $427 @18 ASM_EDGE_FROM_STEP @4 6393 #
DXID-attrib $-1 -1 $-1 $494 $435 @18 ASM_EDGE_FROM_STEP @4 5289 #
truecolor-adesk-attrib $-1 -1 $531 $-1 $496 -1023410304 #
straight-curve $-1 -1 $-1 -36.423199261291956 -65.637967951247589 27.985069454941478 -6.5417583340385163e-14 -1000 -4.6249524700757542e-15 F -0.028000000000000004 F -0.027000000000000045 #
DXID-attrib $-1 -1 $-1 $501 $450 @18 ASM_EDGE_FROM_STEP @4 3464 #
DXID-attrib $-1 -1 $-1 $508 $460 @18 ASM_EDGE_FROM_STEP @4 3503 #
DXID-attrib $-1 -1 $-1 $514 $476 @18 ASM_EDGE_FROM_STEP @3 999 #
DXID-attrib $-1 -1 $-1 $516 $480 @18 ASM_EDGE_FROM_STEP @4 6710 #
DXID-attrib $-1 -1 $-1 $519 $484 @18 ASM_FACE_FROM_STEP @16 step-1M-562-1258 #
DXID-attrib $-1 -1 $-1 $524 $496 @18 ASM_EDGE_FROM_STEP @4 7199 #
