700 281 1 0         
16 Autodesk AutoCAD 20 ASM 229.2.0.65535 NT 24 Wed Mar  6 05:58:57 2024 
1 9.999999999999999547e-07 1.000000000000000036e-10 
body $1 -1 $-1 $2 $-1 $3 #
DXID-attrib $-1 -1 $-1 $-1 $0 @18 ASM_BODY_FROM_STEP @83 E8BDCC94411810C979173CF298A377511F7199AE|:|5D368B7F15F18E71DD987CF371EF451DEE6AE0FC #
lump $-1 -1 $-1 $-1 $4 $0 #
transform $-1 -1 1 0 0 0 1 0 0 0 1 0 0 0 1 no_rotate no_reflect no_shear #
shell $-1 -1 $-1 $-1 $-1 $5 $-1 $2 #
face $6 -1 $-1 $7 $8 $4 $-1 $9 reversed single #
color-adesk-attrib $-1 -1 $10 $-1 $5 0 #
face $11 -1 $-1 $12 $13 $4 $-1 $14 forward single #
loop $-1 -1 $-1 $-1 $15 $5 #
torus-surface $-1 -1 $-1 -63.00000000000000711 -7.715274834628325378e-15 0 -1 -1.224646799147353207e-16 -0 27.00000000000000711 2 1.224646799147353207e-16 -1 0 forward_v I I I I #
DXID-attrib $-1 -1 $-1 $6 $5 @18 ASM_FACE_FROM_STEP @15 step-1M-417-419 #
color-adesk-attrib $-1 -1 $16 $-1 $7 0 #
face $17 -1 $-1 $18 $19 $4 $-1 $20 forward single #
loop $-1 -1 $-1 $-1 $21 $7 #
cone-surface $-1 -1 $-1 -75 -9.184850993605150311e-15 0 1 1.224646799147364794e-16 0 -4.776122516674722843e-15 39 0 1 I I 0.7071067811865475727 0.7071067811865475727 39 forward I I I I #
coedge $-1 -1 $-1 $22 $23 $24 $25 reversed $8 $-1 #
DXID-attrib $-1 -1 $-1 $11 $7 @18 ASM_FACE_FROM_STEP @15 step-1M-417-194 #
color-adesk-attrib $-1 -1 $26 $-1 $12 0 #
face $27 -1 $-1 $28 $29 $4 $-1 $30 forward single #
loop $-1 -1 $-1 $-1 $31 $12 #
cone-surface $-1 -1 $-1 -66 -8.0826688743725324e-15 0 -1 -1.224646799147364794e-16 -0 4.898587196589460358e-15 -40 0 1 I I 0.7071067811865426878 0.7071067811865523467 40 forward I I I I #
coedge $-1 -1 $-1 $32 $33 $34 $35 reversed $13 $-1 #
coedge $-1 -1 $-1 $36 $15 $37 $38 forward $8 $-1 #
coedge $-1 -1 $-1 $15 $36 $39 $40 reversed $8 $-1 #
coedge $-1 -1 $-1 $41 $41 $15 $25 forward $42 $-1 #
edge $43 -1 $-1 $44 -3.141592653589793116 $45 0 $15 $46 forward @14 tangent_not_g2 #
DXID-attrib $-1 -1 $-1 $17 $12 @18 ASM_FACE_FROM_STEP @14 step-1M-417-56 #
color-adesk-attrib $-1 -1 $47 $-1 $18 0 #
face $48 -1 $-1 $49 $50 $4 $-1 $51 forward single #
loop $-1 -1 $-1 $-1 $52 $18 #
cone-surface $-1 -1 $-1 -3.000000000000030198 -3.673940397442098325e-16 0 -1 -1.224646799147353454e-16 -0 3.06161699786838462e-15 -25.00000000000000355 0 1 I I 0.7071067811865475727 0.7071067811865475727 25.00000000000000355 forward I I I I #
coedge $-1 -1 $-1 $53 $54 $55 $56 reversed $19 $-1 #
coedge $-1 -1 $-1 $57 $21 $58 $59 forward $13 $-1 #
coedge $-1 -1 $-1 $21 $57 $60 $61 reversed $13 $-1 #
coedge $-1 -1 $-1 $62 $62 $21 $35 forward $63 $-1 #
edge $64 -1 $-1 $65 -3.141592653589793116 $66 0 $21 $67 forward @7 unknown #
coedge $-1 -1 $-1 $23 $22 $68 $69 reversed $8 $-1 #
coedge $-1 -1 $-1 $70 $71 $22 $38 reversed $72 $-1 #
edge $73 -1 $-1 $44 -1.570796326794896558 $74 4.27300548559190188e-63 $22 $75 forward @2 g2 #
coedge $-1 -1 $-1 $71 $70 $23 $40 forward $72 $-1 #
edge $76 -1 $-1 $45 0 $77 1.570796326794896558 $23 $78 forward @2 g2 #
coedge $-1 -1 $-1 $24 $24 $70 $79 forward $42 $-1 #
loop $-1 -1 $-1 $-1 $41 $80 #
color-adesk-attrib $-1 -1 $81 $-1 $25 0 #
vertex $-1 -1 $-1 $25 $82 #
vertex $-1 -1 $-1 $25 $83 #
ellipse-curve $-1 -1 $-1 -65 -7.960204194457797252e-15 0 -1 -1.224646799147353207e-16 -0 3.306546357697854128e-15 -27.00000000000000711 0 1 F -3.141592653589793116 F 0 #
DXID-attrib $-1 -1 $-1 $27 $18 @18 ASM_FACE_FROM_STEP @15 step-1M-417-139 #
color-adesk-attrib $-1 -1 $84 $-1 $28 0 #
face $85 -1 $-1 $86 $87 $4 $-1 $88 forward single #
loop $-1 -1 $-1 $-1 $89 $28 #
cone-surface $-1 -1 $-1 -75 -9.184850993605150311e-15 0 -1 -1.224646799147353207e-16 -0 4.898587196589413026e-15 -40 0 1 I I 0 1 40 forward I I I I #
coedge $-1 -1 $-1 $90 $91 $92 $93 reversed $29 $-1 #
coedge $-1 -1 $-1 $94 $31 $95 $96 forward $19 $-1 #
coedge $-1 -1 $-1 $31 $94 $97 $98 reversed $19 $-1 #
coedge $-1 -1 $-1 $99 $99 $31 $56 forward $100 $-1 #
edge $101 -1 $-1 $102 -3.141592653589793116 $103 0 $31 $104 forward @7 unknown #
coedge $-1 -1 $-1 $33 $32 $105 $106 reversed $13 $-1 #
coedge $-1 -1 $-1 $107 $108 $32 $59 reversed $109 $-1 #
edge $110 -1 $-1 $65 6.280369834735099558e-18 $111 0.001414213562373093291 $32 $112 forward @2 g2 #
coedge $-1 -1 $-1 $108 $107 $33 $61 forward $109 $-1 #
edge $113 -1 $-1 $66 6.280369834735101869e-18 $114 0.001414213562373093291 $33 $115 forward @2 g2 #
coedge $-1 -1 $-1 $34 $34 $107 $116 forward $63 $-1 #
loop $-1 -1 $-1 $-1 $62 $117 #
color-adesk-attrib $-1 -1 $118 $-1 $35 0 #
vertex $-1 -1 $-1 $35 $119 #
vertex $-1 -1 $-1 $35 $120 #
ellipse-curve $-1 -1 $-1 -75 -9.184850993605150311e-15 0 -1 -1.224646799147353207e-16 -0 -4.776122516674679455e-15 39.00000000000000711 0 1 F -3.141592653589793116 F 0 #
coedge $-1 -1 $-1 $121 $122 $36 $69 forward $123 $-1 #
edge $124 -1 $-1 $77 0 $74 3.141592653589793116 $36 $125 forward @14 tangent_not_g2 #
coedge $-1 -1 $-1 $39 $37 $41 $79 reversed $72 $-1 #
coedge $-1 -1 $-1 $37 $39 $126 $127 reversed $72 $-1 #
loop $-1 -1 $-1 $-1 $37 $128 #
color-adesk-attrib $-1 -1 $129 $-1 $38 0 #
vertex $-1 -1 $-1 $38 $130 #
ellipse-curve $-1 -1 $-1 -63.00000000000000711 26.99999999999999645 3.306546357697854128e-15 1.499759782661857608e-32 -1.224646799147353207e-16 1 -4.861730685829021277e-63 -2.000000000000001776 -2.449293598294708386e-16 1 F -1.570796326794896558 F 4.27300548559190188e-63 #
color-adesk-attrib $-1 -1 $131 $-1 $40 0 #
vertex $-1 -1 $-1 $69 $132 #
ellipse-curve $-1 -1 $-1 -63.00000000000000711 -27.00000000000001066 0 0 0 -1 -2.000000000000001776 0 0 1 F 0 F 1.570796326794896558 #
edge $133 -1 $-1 $45 0 $44 3.141592653589793116 $41 $134 forward @14 tangent_not_g2 #
face $135 -1 $-1 $136 $100 $4 $-1 $137 reversed single #
DXID-attrib $-1 -1 $-1 $43 $25 @18 ASM_EDGE_FROM_STEP @3 403 #
point $-1 -1 $-1 -65 26.99999999999999645 3.306546357697854128e-15 #
point $-1 -1 $-1 -65 -27.00000000000001066 0 #
DXID-attrib $-1 -1 $-1 $48 $28 @18 ASM_FACE_FROM_STEP @15 step-1M-417-396 #
color-adesk-attrib $-1 -1 $138 $-1 $49 0 #
face $139 -1 $-1 $140 $141 $4 $-1 $142 reversed single #
loop $-1 -1 $-1 $-1 $143 $49 #
cone-surface $-1 -1 $-1 -75 -9.184850993605150311e-15 0 -1 -1.224646799147353207e-16 -0 3.061616997868383437e-15 -25.00000000000000355 0 1 I I 0 1 25.00000000000000355 forward I I I I #
coedge $-1 -1 $-1 $144 $145 $94 $146 forward $50 $-1 #
coedge $-1 -1 $-1 $147 $52 $148 $149 forward $29 $-1 #
coedge $-1 -1 $-1 $52 $147 $150 $151 reversed $29 $-1 #
coedge $-1 -1 $-1 $152 $152 $52 $93 forward $141 $-1 #
edge $153 -1 $-1 $154 -3.141592653589793116 $155 0 $52 $156 forward @7 unknown #
coedge $-1 -1 $-1 $54 $53 $89 $146 reversed $19 $-1 #
coedge $-1 -1 $-1 $157 $158 $53 $96 reversed $159 $-1 #
edge $160 -1 $-1 $102 -0.001414213562373090038 $161 0 $53 $162 forward @2 g2 #
coedge $-1 -1 $-1 $158 $157 $54 $98 forward $159 $-1 #
edge $163 -1 $-1 $103 -0.001414213562373089822 $164 0 $54 $165 forward @2 g2 #
coedge $-1 -1 $-1 $55 $55 $157 $166 forward $100 $-1 #
loop $-1 -1 $-1 $42 $99 $80 #
color-adesk-attrib $-1 -1 $167 $-1 $56 0 #
vertex $-1 -1 $-1 $56 $168 #
vertex $-1 -1 $-1 $56 $169 #
ellipse-curve $-1 -1 $-1 -65 -7.960204194457797252e-15 0 1 1.224646799147353207e-16 0 4.776122516674679455e-15 -39.00000000000001421 0 1 F -3.141592653589793116 F 0 #
coedge $-1 -1 $-1 $145 $144 $57 $106 forward $50 $-1 #
edge $170 -1 $-1 $114 1.224646799147352961e-16 $111 3.141592653589793116 $57 $171 forward @7 unknown #
coedge $-1 -1 $-1 $60 $58 $62 $116 reversed $109 $-1 #
coedge $-1 -1 $-1 $58 $60 $172 $173 reversed $109 $-1 #
loop $-1 -1 $-1 $-1 $58 $174 #
color-adesk-attrib $-1 -1 $175 $-1 $59 0 #
vertex $-1 -1 $-1 $59 $176 #
straight-curve $-1 -1 $-1 -75 -39.00000000000000711 4.776122516674678667e-15 707.1067811865476642 -707.1067811865474368 8.65956056235493414e-14 F 6.280369834735099558e-18 F 0.001414213562373093291 #
color-adesk-attrib $-1 -1 $177 $-1 $61 0 #
vertex $-1 -1 $-1 $106 $178 #
straight-curve $-1 -1 $-1 -75 38.99999999999999289 0 707.1067811865474368 707.1067811865476642 0 F 6.280369834735101869e-18 F 0.001414213562373093291 #
edge $179 -1 $-1 $66 0 $65 3.141592653589793116 $62 $180 forward @7 unknown #
face $181 -1 $-1 $182 $63 $4 $-1 $183 reversed single #
DXID-attrib $-1 -1 $-1 $64 $35 @18 ASM_EDGE_FROM_STEP @3 100 #
point $-1 -1 $-1 -75 -39.00000000000001421 4.837354856632046241e-15 #
point $-1 -1 $-1 -75 39 0 #
coedge $-1 -1 $-1 $184 $68 $185 $186 reversed $123 $-1 #
coedge $-1 -1 $-1 $68 $184 $187 $188 forward $123 $-1 #
loop $-1 -1 $-1 $-1 $121 $140 #
color-adesk-attrib $-1 -1 $189 $-1 $69 0 #
ellipse-curve $-1 -1 $-1 -63.00000000000000711 -7.715274834628325378e-15 0 1 1.224646799147353207e-16 0 3.061616997868383437e-15 -25.00000000000000355 0 1 F 0 F 3.141592653589793116 #
coedge $-1 -1 $-1 $187 $185 $71 $127 forward $87 $-1 #
edge $190 -1 $-1 $74 -3.141592653589793116 $77 0 $126 $191 forward @14 tangent_not_g2 #
face $192 -1 $-1 $-1 $72 $4 $-1 $193 reversed single #
DXID-attrib $-1 -1 $-1 $73 $38 @18 ASM_EDGE_FROM_STEP @3 386 #
point $-1 -1 $-1 -63.00000000000000711 25 3.061616997868383437e-15 #
DXID-attrib $-1 -1 $-1 $76 $40 @18 ASM_EDGE_FROM_STEP @2 21 #
point $-1 -1 $-1 -63.00000000000000711 -25.00000000000001421 0 #
color-adesk-attrib $-1 -1 $194 $-1 $79 0 #
ellipse-curve $-1 -1 $-1 -65 -7.960204194457797252e-15 0 -1 -1.224646799147353207e-16 -0 3.306546357697854128e-15 -27.00000000000000711 0 1 F 0 F 3.141592653589793116 #
color-adesk-attrib $-1 -1 $195 $-1 $80 0 #
face $196 -1 $-1 $117 $197 $4 $-1 $198 forward single #
plane-surface $-1 -1 $-1 -65 25 0 -1 -1.224646799147353207e-16 0 1.224646799147353207e-16 -1 0 forward_v I I I I #
DXID-attrib $-1 -1 $-1 $85 $49 @18 ASM_FACE_FROM_STEP @15 step-1M-417-271 #
color-adesk-attrib $-1 -1 $199 $-1 $86 0 #
face $200 -1 $-1 $80 $123 $4 $-1 $201 forward single #
loop $-1 -1 $-1 $-1 $152 $86 #
plane-surface $-1 -1 $-1 1.530808498934191521e-15 1.874699728327322338e-31 0 -1 -1.224646799147353207e-16 0 1.224646799147353207e-16 -1 0 forward_v I I I I #
coedge $-1 -1 $-1 $185 $187 $147 $202 forward $87 $-1 #
coedge $-1 -1 $-1 $105 $89 $203 $204 forward $50 $-1 #
coedge $-1 -1 $-1 $89 $105 $205 $206 reversed $50 $-1 #
edge $207 -1 $-1 $164 0 $161 3.141592653589793116 $94 $208 forward @7 unknown #
coedge $-1 -1 $-1 $91 $90 $143 $202 reversed $29 $-1 #
coedge $-1 -1 $-1 $209 $210 $90 $149 reversed $211 $-1 #
edge $212 -1 $-1 $154 -0.004242640687119332565 $213 3.140184917367549779e-18 $90 $214 forward @2 g2 #
coedge $-1 -1 $-1 $210 $209 $91 $151 forward $211 $-1 #
edge $215 -1 $-1 $155 -0.004242640687119332565 $216 0 $91 $217 forward @2 g2 #
coedge $-1 -1 $-1 $92 $92 $209 $218 forward $141 $-1 #
color-adesk-attrib $-1 -1 $219 $-1 $93 0 #
vertex $-1 -1 $-1 $93 $220 #
vertex $-1 -1 $-1 $93 $221 #
ellipse-curve $-1 -1 $-1 1.530808498934191521e-15 1.874699728327322776e-31 0 1 1.224646799147353207e-16 0 2.694222958124174048e-15 -21.99999999999997158 0 1 F -3.141592653589793116 F 0 #
coedge $-1 -1 $-1 $97 $95 $99 $166 reversed $159 $-1 #
coedge $-1 -1 $-1 $95 $97 $222 $223 reversed $159 $-1 #
loop $-1 -1 $-1 $-1 $95 $224 #
color-adesk-attrib $-1 -1 $225 $-1 $96 0 #
vertex $-1 -1 $-1 $96 $226 #
straight-curve $-1 -1 $-1 -66 39.99999999999999289 4.898587196589413026e-15 -707.1067811865525528 707.1067811865425483 8.65956056235487608e-14 F -0.001414213562373090038 F 0 #
color-adesk-attrib $-1 -1 $227 $-1 $98 0 #
vertex $-1 -1 $-1 $146 $228 #
straight-curve $-1 -1 $-1 -66 -40.00000000000000711 0 -707.1067811865523254 -707.1067811865428894 0 F -0.001414213562373089822 F 0 #
edge $229 -1 $-1 $103 0 $102 3.141592653589793116 $99 $230 forward @7 unknown #
DXID-attrib $-1 -1 $-1 $101 $56 @18 ASM_EDGE_FROM_STEP @2 34 #
point $-1 -1 $-1 -65 39.00000000000000711 4.83735485663204703e-15 #
point $-1 -1 $-1 -65 -39.00000000000002132 0 #
color-adesk-attrib $-1 -1 $231 $-1 $106 0 #
ellipse-curve $-1 -1 $-1 -74 -9.062386313690413585e-15 0 1 1.224646799147364794e-16 0 -4.898587196589460358e-15 40 0 1 F 1.224646799147352961e-16 F 3.141592653589793116 #
coedge $-1 -1 $-1 $203 $205 $108 $173 forward $197 $-1 #
edge $232 -1 $-1 $111 -3.141592653589793116 $114 1.224646799147352961e-16 $172 $233 forward @7 unknown #
face $234 -1 $-1 $128 $109 $4 $-1 $235 forward single #
DXID-attrib $-1 -1 $-1 $110 $59 @18 ASM_EDGE_FROM_STEP @3 373 #
point $-1 -1 $-1 -74 -40.00000000000000711 0 #
DXID-attrib $-1 -1 $-1 $113 $61 @18 ASM_EDGE_FROM_STEP @3 244 #
point $-1 -1 $-1 -74 39.99999999999999289 4.898587196589413026e-15 #
color-adesk-attrib $-1 -1 $236 $-1 $116 0 #
ellipse-curve $-1 -1 $-1 -75 -9.184850993605150311e-15 0 -1 -1.224646799147353207e-16 -0 -4.776122516674679455e-15 39.00000000000000711 0 1 F 0 F 3.141592653589793116 #
color-adesk-attrib $-1 -1 $237 $-1 $117 0 #
face $238 -1 $-1 $224 $211 $4 $-1 $239 forward single #
plane-surface $-1 -1 $-1 -75 39.99999999999999289 0 1 1.224646799147353207e-16 0 -1.224646799147353207e-16 1 0 forward_v I I I I #
coedge $-1 -1 $-1 $122 $121 $210 $240 forward $123 $-1 #
coedge $-1 -1 $-1 $126 $143 $121 $186 forward $87 $-1 #
edge $241 -1 $-1 $213 -0.0719999999999999668 $74 -0.01199999999999999331 $185 $242 forward @2 g2 #
coedge $-1 -1 $-1 $143 $126 $122 $188 reversed $87 $-1 #
edge $243 -1 $-1 $216 -0.07199999999999998068 $77 -0.01199999999999999331 $187 $244 forward @2 g2 #
DXID-attrib $-1 -1 $-1 $124 $69 @18 ASM_EDGE_FROM_STEP @3 372 #
color-adesk-attrib $-1 -1 $245 $-1 $127 0 #
ellipse-curve $-1 -1 $-1 -63.00000000000000711 -7.715274834628325378e-15 0 1 1.224646799147353207e-16 0 3.061616997868383437e-15 -25.00000000000000355 0 1 F -3.141592653589793116 F 0 #
color-adesk-attrib $-1 -1 $246 $-1 $128 0 #
torus-surface $-1 -1 $-1 -63.00000000000000711 -7.715274834628325378e-15 0 -1 -1.224646799147353207e-16 -0 27.00000000000000711 2 1.224646799147353207e-16 -1 0 forward_v I I I I #
DXID-attrib $-1 -1 $-1 $133 $79 @18 ASM_EDGE_FROM_STEP @3 415 #
DXID-attrib $-1 -1 $-1 $135 $80 @18 ASM_FACE_FROM_STEP @15 step-1M-417-156 #
color-adesk-attrib $-1 -1 $247 $-1 $136 0 #
loop $-1 -1 $-1 $-1 $203 $136 #
cone-surface $-1 -1 $-1 -75 -9.184850993605150311e-15 0 -1 -1.224646799147353207e-16 -0 4.898587196589413026e-15 -40 0 1 I I 0 1 40 forward I I I I #
DXID-attrib $-1 -1 $-1 $139 $86 @18 ASM_FACE_FROM_STEP @15 step-1M-417-342 #
color-adesk-attrib $-1 -1 $248 $-1 $140 0 #
cone-surface $-1 -1 $-1 -75 -9.184850993605150311e-15 0 -1 -1.224646799147353207e-16 -0 3.061616997868383437e-15 -25.00000000000000355 0 1 I I 0 1 25.00000000000000355 forward I I I I #
edge $249 -1 $-1 $216 0 $213 3.141592653589793116 $147 $250 forward @7 unknown #
coedge $-1 -1 $-1 $222 $172 $144 $204 reversed $197 $-1 #
edge $251 -1 $-1 $161 -0.008999999999999994116 $114 -0.0009999999999999965514 $144 $252 forward @2 g2 #
coedge $-1 -1 $-1 $172 $222 $145 $206 forward $197 $-1 #
edge $253 -1 $-1 $164 -0.008999999999999994116 $111 -0.0009999999999999965514 $145 $254 forward @2 g2 #
color-adesk-attrib $-1 -1 $255 $-1 $146 0 #
ellipse-curve $-1 -1 $-1 -66 -8.0826688743725324e-15 0 -1 -1.224646799147364794e-16 -0 4.898587196589460358e-15 -40 0 1 F 0 F 3.141592653589793116 #
coedge $-1 -1 $-1 $150 $148 $152 $218 reversed $211 $-1 #
coedge $-1 -1 $-1 $148 $150 $184 $240 reversed $211 $-1 #
loop $-1 -1 $-1 $-1 $148 $182 #
color-adesk-attrib $-1 -1 $256 $-1 $149 0 #
vertex $-1 -1 $-1 $149 $257 #
straight-curve $-1 -1 $-1 -3.000000000000033751 25.00000000000000355 3.061616997868383437e-15 -707.1067811865476642 707.1067811865474368 8.65956056235493414e-14 F -0.004242640687119332565 F 3.140184917367549779e-18 #
color-adesk-attrib $-1 -1 $258 $-1 $151 0 #
vertex $-1 -1 $-1 $202 $259 #
straight-curve $-1 -1 $-1 -3.000000000000027534 -25.00000000000000355 0 -707.1067811865474368 -707.1067811865476642 0 F -0.004242640687119332565 F 0 #
edge $260 -1 $-1 $155 0 $154 3.141592653589793116 $152 $261 forward @7 unknown #
DXID-attrib $-1 -1 $-1 $153 $93 @18 ASM_EDGE_FROM_STEP @3 449 #
point $-1 -1 $-1 -1.163414459189981541e-15 21.99999999999997158 2.877919977996278743e-15 #
point $-1 -1 $-1 4.225031457058365767e-15 -21.99999999999997158 0 #
coedge $-1 -1 $-1 $205 $203 $158 $223 forward $197 $-1 #
edge $262 -1 $-1 $161 -3.141592653589793116 $164 0 $222 $263 forward @7 unknown #
face $264 -1 $-1 $174 $159 $4 $-1 $265 forward single #
DXID-attrib $-1 -1 $-1 $160 $96 @18 ASM_EDGE_FROM_STEP @3 104 #
point $-1 -1 $-1 -66 39.99999999999999289 4.898587196589413026e-15 #
DXID-attrib $-1 -1 $-1 $163 $98 @18 ASM_EDGE_FROM_STEP @3 228 #
point $-1 -1 $-1 -66 -40.00000000000000711 0 #
color-adesk-attrib $-1 -1 $266 $-1 $166 0 #
ellipse-curve $-1 -1 $-1 -65 -7.960204194457797252e-15 0 1 1.224646799147353207e-16 0 4.776122516674679455e-15 -39.00000000000001421 0 1 F 0 F 3.141592653589793116 #
DXID-attrib $-1 -1 $-1 $170 $106 @18 ASM_EDGE_FROM_STEP @3 208 #
color-adesk-attrib $-1 -1 $267 $-1 $173 0 #
ellipse-curve $-1 -1 $-1 -74 -9.062386313690413585e-15 0 1 1.224646799147364794e-16 0 -4.898587196589460358e-15 40 0 1 F -3.141592653589793116 F 1.224646799147352961e-16 #
color-adesk-attrib $-1 -1 $268 $-1 $174 0 #
cone-surface $-1 -1 $-1 -75 -9.184850993605150311e-15 0 1 1.224646799147364794e-16 0 -4.776122516674722843e-15 39 0 1 I I 0.7071067811865475727 0.7071067811865475727 39 forward I I I I #
DXID-attrib $-1 -1 $-1 $179 $116 @18 ASM_EDGE_FROM_STEP @3 289 #
DXID-attrib $-1 -1 $-1 $181 $117 @18 ASM_FACE_FROM_STEP @15 step-1M-417-355 #
color-adesk-attrib $-1 -1 $269 $-1 $182 0 #
cone-surface $-1 -1 $-1 -3.000000000000030198 -3.673940397442098325e-16 0 -1 -1.224646799147353454e-16 -0 3.06161699786838462e-15 -25.00000000000000355 0 1 I I 0.7071067811865475727 0.7071067811865475727 25.00000000000000355 forward I I I I #
edge $270 -1 $-1 $213 -3.141592653589793116 $216 0 $184 $271 forward @7 unknown #
color-adesk-attrib $-1 -1 $272 $-1 $186 0 #
straight-curve $-1 -1 $-1 -75 24.99999999999999645 3.061616997868383437e-15 -1000 -1.224646799147353501e-13 -0 F -0.0719999999999999668 F -0.01199999999999999331 #
color-adesk-attrib $-1 -1 $273 $-1 $188 0 #
straight-curve $-1 -1 $-1 -75 -25.00000000000001776 0 -1000 -1.224646799147353501e-13 -0 F -0.07199999999999998068 F -0.01199999999999999331 #
DXID-attrib $-1 -1 $-1 $190 $127 @18 ASM_EDGE_FROM_STEP @3 434 #
DXID-attrib $-1 -1 $-1 $192 $128 @18 ASM_FACE_FROM_STEP @15 step-1M-417-238 #
DXID-attrib $-1 -1 $-1 $196 $136 @18 ASM_FACE_FROM_STEP @14 step-1M-417-36 #
DXID-attrib $-1 -1 $-1 $200 $140 @18 ASM_FACE_FROM_STEP @15 step-1M-417-275 #
color-adesk-attrib $-1 -1 $274 $-1 $202 0 #
ellipse-curve $-1 -1 $-1 -3.000000000000030198 -3.673940397442098325e-16 0 -1 -1.224646799147353454e-16 -0 3.06161699786838462e-15 -25.00000000000000355 0 1 F 0 F 3.141592653589793116 #
color-adesk-attrib $-1 -1 $275 $-1 $204 0 #
straight-curve $-1 -1 $-1 -75 39.99999999999999289 4.898587196589413026e-15 -1000 -1.224646799147353501e-13 -0 F -0.008999999999999994116 F -0.0009999999999999965514 #
color-adesk-attrib $-1 -1 $276 $-1 $206 0 #
straight-curve $-1 -1 $-1 -75 -40.00000000000000711 0 -1000 -1.224646799147353501e-13 -0 F -0.008999999999999994116 F -0.0009999999999999965514 #
DXID-attrib $-1 -1 $-1 $207 $146 @18 ASM_EDGE_FROM_STEP @3 349 #
DXID-attrib $-1 -1 $-1 $212 $149 @18 ASM_EDGE_FROM_STEP @3 427 #
point $-1 -1 $-1 -3.000000000000033751 25.00000000000000711 3.06161699786838462e-15 #
DXID-attrib $-1 -1 $-1 $215 $151 @18 ASM_EDGE_FROM_STEP @2 66 #
point $-1 -1 $-1 -3.000000000000027534 -25.00000000000000355 0 #
color-adesk-attrib $-1 -1 $277 $-1 $218 0 #
ellipse-curve $-1 -1 $-1 1.530808498934191521e-15 1.874699728327322776e-31 0 1 1.224646799147353207e-16 0 2.694222958124174048e-15 -21.99999999999997158 0 1 F 0 F 3.141592653589793116 #
color-adesk-attrib $-1 -1 $278 $-1 $223 0 #
ellipse-curve $-1 -1 $-1 -66 -8.0826688743725324e-15 0 -1 -1.224646799147364794e-16 -0 4.898587196589460358e-15 -40 0 1 F -3.141592653589793116 F 0 #
color-adesk-attrib $-1 -1 $279 $-1 $224 0 #
cone-surface $-1 -1 $-1 -66 -8.0826688743725324e-15 0 -1 -1.224646799147364794e-16 -0 4.898587196589460358e-15 -40 0 1 I I 0.7071067811865426878 0.7071067811865523467 40 forward I I I I #
DXID-attrib $-1 -1 $-1 $229 $166 @18 ASM_EDGE_FROM_STEP @3 322 #
DXID-attrib $-1 -1 $-1 $232 $173 @18 ASM_EDGE_FROM_STEP @3 177 #
DXID-attrib $-1 -1 $-1 $234 $174 @18 ASM_FACE_FROM_STEP @15 step-1M-417-119 #
DXID-attrib $-1 -1 $-1 $238 $182 @18 ASM_FACE_FROM_STEP @15 step-1M-417-186 #
color-adesk-attrib $-1 -1 $280 $-1 $240 0 #
ellipse-curve $-1 -1 $-1 -3.000000000000030198 -3.673940397442098325e-16 0 -1 -1.224646799147353454e-16 -0 3.06161699786838462e-15 -25.00000000000000355 0 1 F -3.141592653589793116 F 0 #
DXID-attrib $-1 -1 $-1 $241 $186 @18 ASM_EDGE_FROM_STEP @3 220 #
DXID-attrib $-1 -1 $-1 $243 $188 @18 ASM_EDGE_FROM_STEP @3 317 #
DXID-attrib $-1 -1 $-1 $249 $202 @18 ASM_EDGE_FROM_STEP @2 92 #
DXID-attrib $-1 -1 $-1 $251 $204 @18 ASM_EDGE_FROM_STEP @2 86 #
DXID-attrib $-1 -1 $-1 $253 $206 @18 ASM_EDGE_FROM_STEP @2 15 #
DXID-attrib $-1 -1 $-1 $260 $218 @18 ASM_EDGE_FROM_STEP @3 452 #
DXID-attrib $-1 -1 $-1 $262 $223 @18 ASM_EDGE_FROM_STEP @3 255 #
DXID-attrib $-1 -1 $-1 $264 $224 @18 ASM_FACE_FROM_STEP @13 step-1M-417-7 #
DXID-attrib $-1 -1 $-1 $270 $240 @18 ASM_EDGE_FROM_STEP @3 377 #
