700 448 1 0         
5 ZWCAD 12 ACIS 28.0 NT 24 Mon May 13 09:57:19 2024 
1 9.9999999999999995e-07 1e-10 
body $1 -1 $-1 $2 $-1 $-1 #
DXID-attrib $-1 -1 $-1 $-1 $0 @18 ASM_BODY_FROM_STEP @83 FB23F61B467D419A77172C2B1D9206A39EC1A770|:|1817F654752E9CF1A78D11D3004C9A5611698275 #
lump $-1 -1 $-1 $-1 $3 $0 #
shell $-1 -1 $-1 $-1 $-1 $4 $-1 $2 #
face $5 -1 $-1 $6 $7 $3 $-1 $8 reversed single #
color-adesk-attrib $-1 -1 $9 $-1 $4 7 #
face $10 -1 $-1 $11 $12 $3 $-1 $13 reversed single #
loop $-1 -1 $-1 $-1 $14 $4 #
plane-surface $-1 -1 $-1 -77.659445382493843 157.5162361910329 14.084779215896422 -0.99985037063110715 -0.017298449318877702 0 0 0 1 forward_v I I I I #
DXID-attrib $-1 -1 $-1 $5 $4 @18 ASM_FACE_FROM_STEP @16 step-1M-255-6217 #
color-adesk-attrib $-1 -1 $15 $-1 $6 7 #
face $16 -1 $-1 $17 $18 $3 $-1 $19 reversed single #
loop $-1 -1 $-1 $-1 $20 $6 #
plane-surface $-1 -1 $-1 -61.310697156262947 157.7990865063656 14.084779215896422 0 0 -1 -0.99985037063110727 -0.017298449318877203 0 forward_v I I I I #
coedge $-1 -1 $-1 $21 $22 $23 $24 reversed $7 $-1 #
DXID-attrib $-1 -1 $-1 $10 $6 @18 ASM_FACE_FROM_STEP @16 step-1M-255-6218 #
color-adesk-attrib $-1 -1 $25 $-1 $11 7 #
face $26 -1 $-1 $27 $28 $3 $-1 $29 reversed single #
loop $-1 -1 $-1 $-1 $30 $11 #
plane-surface $-1 -1 $-1 -61.310697156262947 157.7990865063656 21.182275879470623 0.99985037063110715 0.017298449318877702 0 0 0 -1 forward_v I I I I #
coedge $-1 -1 $-1 $31 $32 $33 $34 reversed $12 $-1 #
coedge $-1 -1 $-1 $35 $14 $36 $37 reversed $7 $-1 #
coedge $-1 -1 $-1 $14 $35 $31 $38 forward $7 $-1 #
coedge $-1 -1 $-1 $33 $39 $14 $24 forward $40 $-1 #
edge $41 -1 $-1 $42 -1.4139886271522399 $43 -0.70423896079482007 $14 $44 forward @7 unknown #
DXID-attrib $-1 -1 $-1 $16 $11 @18 ASM_FACE_FROM_STEP @16 step-1M-255-6219 #
color-adesk-attrib $-1 -1 $45 $-1 $17 7 #
face $46 -1 $-1 $47 $48 $3 $-1 $49 reversed single #
loop $-1 -1 $-1 $-1 $50 $17 #
plane-surface $-1 -1 $-1 -77.659445382493843 157.5162361910329 21.182275879470623 0 0 1 0.99985037063110727 0.017298449318877203 0 forward_v I I I I #
coedge $-1 -1 $-1 $51 $52 $53 $54 reversed $18 $-1 #
coedge $-1 -1 $-1 $55 $20 $22 $38 reversed $12 $-1 #
coedge $-1 -1 $-1 $20 $55 $51 $56 forward $12 $-1 #
coedge $-1 -1 $-1 $53 $23 $20 $34 forward $40 $-1 #
edge $57 -1 $-1 $43 -6.1135505512464086 $58 -4.4784310667267864 $20 $59 forward @7 unknown #
coedge $-1 -1 $-1 $22 $21 $60 $61 reversed $7 $-1 #
coedge $-1 -1 $-1 $50 $62 $21 $37 forward $28 $-1 #
edge $63 -1 $-1 $64 0 $42 0.099999999999999464 $21 $65 forward @7 unknown #
edge $66 -1 $-1 $67 0 $43 0.099999999999999464 $22 $68 forward @7 unknown #
coedge $-1 -1 $-1 $23 $53 $50 $69 forward $40 $-1 #
loop $-1 -1 $-1 $-1 $53 $70 #
color-adesk-attrib $-1 -1 $71 $-1 $24 7 #
vertex $-1 -1 $-1 $24 $72 #
vertex $-1 -1 $-1 $24 $73 #
straight-curve $-1 -1 $-1 -77.676743831812743 158.516086561664 7.0423896079482216 0 0 -10 F -1.4139886271522399 F -0.70423896079482007 #
DXID-attrib $-1 -1 $-1 $26 $17 @18 ASM_FACE_FROM_STEP @16 step-1M-255-6220 #
color-adesk-attrib $-1 -1 $74 $-1 $27 7 #
face $75 -1 $-1 $76 $77 $3 $-1 $78 reversed single #
loop $-1 -1 $-1 $-1 $79 $27 #
cone-surface $-1 -1 $-1 -11.445649558976427 159.1377062308157 -9.4999999999999787 -0.90825784101742357 -0.41841091552488024 -5.5511151231257827e-17 4.2899873375066591 -9.3124115375144605 -10.253048327204944 1 I I 0 1 14.5 forward I I I I #
coedge $-1 -1 $-1 $80 $36 $39 $69 reversed $28 $-1 #
coedge $-1 -1 $-1 $81 $30 $32 $56 reversed $18 $-1 #
coedge $-1 -1 $-1 $30 $81 $80 $82 forward $18 $-1 #
coedge $-1 -1 $-1 $39 $33 $30 $54 forward $40 $-1 #
edge $83 -1 $-1 $58 0.34936412761611013 $84 1.05911379397353 $30 $85 forward @7 unknown #
coedge $-1 -1 $-1 $32 $31 $86 $87 reversed $12 $-1 #
edge $88 -1 $-1 $89 0 $58 0.099999999999999478 $32 $90 forward @7 unknown #
color-adesk-attrib $-1 -1 $91 $-1 $34 7 #
vertex $-1 -1 $-1 $34 $92 #
straight-curve $-1 -1 $-1 -16.550385986455439 159.5736360053553 14.084779215896422 9.9985037063110695 0.17298449318877199 0 F -6.1135505512464086 F -4.4784310667267864 #
coedge $-1 -1 $-1 $93 $86 $35 $61 forward $94 $-1 #
edge $95 -1 $-1 $67 0.70423896079482007 $64 1.4139886271522399 $35 $96 forward @7 unknown #
coedge $-1 -1 $-1 $36 $80 $93 $97 reversed $28 $-1 #
color-adesk-attrib $-1 -1 $98 $-1 $37 7 #
vertex $-1 -1 $-1 $37 $99 #
straight-curve $-1 -1 $-1 -77.659445382493843 157.5162361910329 21.182275879470623 -0.17298449318877698 9.9985037063110695 0 F 0 F 0.099999999999999464 #
color-adesk-attrib $-1 -1 $100 $-1 $38 7 #
vertex $-1 -1 $-1 $61 $101 #
straight-curve $-1 -1 $-1 -77.659445382493843 157.5162361910329 14.084779215896422 -0.17298449318877698 9.9985037063110695 0 F 0 F 0.099999999999999464 #
edge $102 -1 $-1 $84 3.6608713244669691 $42 5.2959908089865921 $50 $103 forward @7 unknown #
face $104 -1 $-1 $105 $106 $3 $-1 $107 forward single #
DXID-attrib $-1 -1 $-1 $41 $24 @18 ASM_EDGE_FROM_STEP @4 3195 #
point $-1 -1 $-1 -77.676743831812743 158.516086561664 21.182275879470623 #
point $-1 -1 $-1 -77.676743831812743 158.516086561664 14.084779215896422 #
DXID-attrib $-1 -1 $-1 $46 $27 @18 ASM_FACE_FROM_STEP @16 step-1M-255-6221 #
color-adesk-attrib $-1 -1 $108 $-1 $47 7 #
face $109 -1 $-1 $110 $111 $3 $-1 $112 reversed single #
loop $-1 -1 $-1 $-1 $113 $47 #
plane-surface $-1 -1 $-1 10.185163821562668 153.13783337114799 2.1316282072803006e-14 0.4184109155248803 -0.90825784101742357 0 0.90825784101742357 0.4184109155248803 0 forward_v I I I I #
coedge $-1 -1 $-1 $114 $115 $116 $117 reversed $48 $-1 #
coedge $-1 -1 $-1 $62 $50 $52 $82 reversed $28 $-1 #
coedge $-1 -1 $-1 $52 $51 $118 $119 reversed $18 $-1 #
edge $120 -1 $-1 $121 0 $84 0.099999999999999478 $52 $122 forward @7 unknown #
color-adesk-attrib $-1 -1 $123 $-1 $54 7 #
vertex $-1 -1 $-1 $54 $124 #
straight-curve $-1 -1 $-1 -61.327995605581847 158.79893687699669 10.591137939735322 0 0 10 F 0.34936412761611013 F 1.05911379397353 #
coedge $-1 -1 $-1 $60 $118 $55 $87 forward $94 $-1 #
edge $125 -1 $-1 $89 4.4784310667267766 $67 6.1135505512463997 $55 $126 forward @7 unknown #
color-adesk-attrib $-1 -1 $127 $-1 $56 7 #
vertex $-1 -1 $-1 $87 $128 #
straight-curve $-1 -1 $-1 -61.310697156262947 157.7990865063656 14.084779215896422 -0.17298449318877698 9.9985037063110695 0 F 0 F 0.099999999999999478 #
DXID-attrib $-1 -1 $-1 $57 $34 @18 ASM_EDGE_FROM_STEP @4 3199 #
point $-1 -1 $-1 -61.327995605581847 158.79893687699669 14.084779215896422 #
coedge $-1 -1 $-1 $118 $60 $62 $97 forward $94 $-1 #
loop $-1 -1 $-1 $-1 $118 $76 #
color-adesk-attrib $-1 -1 $129 $-1 $61 7 #
straight-curve $-1 -1 $-1 -77.659445382493928 157.5162361910329 7.0423896079482216 0 0 10 F 0.70423896079482007 F 1.4139886271522399 #
edge $130 -1 $-1 $64 -5.2959908089865939 $121 -3.6608713244669695 $62 $131 forward @7 unknown #
DXID-attrib $-1 -1 $-1 $63 $37 @18 ASM_EDGE_FROM_STEP @4 3196 #
point $-1 -1 $-1 -77.659445382493843 157.5162361910329 21.182275879470623 #
DXID-attrib $-1 -1 $-1 $66 $38 @18 ASM_EDGE_FROM_STEP @4 3198 #
point $-1 -1 $-1 -77.659445382493843 157.5162361910329 14.084779215896422 #
color-adesk-attrib $-1 -1 $132 $-1 $69 7 #
straight-curve $-1 -1 $-1 -24.724760099570929 159.43221084768899 21.182275879470623 -9.9985037063110695 -0.17298449318877199 0 F 3.6608713244669691 F 5.2959908089865921 #
color-adesk-attrib $-1 -1 $133 $-1 $70 7 #
face $134 -1 $-1 $135 $136 $3 $-1 $137 forward single #
loop $-1 -1 $-1 $40 $138 $70 #
plane-surface $-1 -1 $-1 28.227223632670871 160.3483351337139 2.1316282072803006e-14 -0.017298449318877203 0.99985037063110715 0 -0.99985037063110727 -0.017298449318877203 0 forward_v I I I I #
DXID-attrib $-1 -1 $-1 $75 $47 @18 ASM_FACE_FROM_STEP @16 step-1M-255-6222 #
color-adesk-attrib $-1 -1 $139 $-1 $76 7 #
face $140 -1 $-1 $141 $142 $3 $-1 $143 reversed single #
loop $-1 -1 $-1 $94 $144 $76 #
plane-surface $-1 -1 $-1 28.244522081989764 159.34848476308281 2.1316282072803006e-14 -0.017298449318877203 0.99985037063110715 0 -0.99985037063110727 -0.017298449318877203 0 forward_v I I I I #
coedge $-1 -1 $-1 $145 $146 $114 $147 forward $77 $-1 #
coedge $-1 -1 $-1 $148 $79 $113 $147 reversed $48 $-1 #
coedge $-1 -1 $-1 $79 $148 $149 $150 reversed $48 $-1 #
coedge $-1 -1 $-1 $151 $152 $79 $117 forward $153 $-1 #
edge $154 -1 $-1 $155 -7.6567105146562525e-17 $156 1.5707963267948966 $79 $157 forward @7 unknown #
coedge $-1 -1 $-1 $86 $93 $81 $119 forward $94 $-1 #
edge $158 -1 $-1 $121 -1.05911379397353 $89 -0.34936412761611013 $81 $159 forward @7 unknown #
color-adesk-attrib $-1 -1 $160 $-1 $82 7 #
vertex $-1 -1 $-1 $119 $161 #
straight-curve $-1 -1 $-1 -61.310697156262947 157.7990865063656 21.182275879470623 -0.17298449318877698 9.9985037063110695 0 F 0 F 0.099999999999999478 #
DXID-attrib $-1 -1 $-1 $83 $54 @18 ASM_EDGE_FROM_STEP @4 3202 #
point $-1 -1 $-1 -61.327995605581847 158.79893687699669 21.182275879470623 #
color-adesk-attrib $-1 -1 $162 $-1 $87 7 #
straight-curve $-1 -1 $-1 -16.533087537136637 158.5737856347242 14.084779215896422 -9.9985037063110695 -0.17298449318877199 0 F 4.4784310667267766 F 6.1135505512463997 #
DXID-attrib $-1 -1 $-1 $88 $56 @18 ASM_EDGE_FROM_STEP @4 3201 #
point $-1 -1 $-1 -61.310697156262947 157.7990865063656 14.084779215896422 #
DXID-attrib $-1 -1 $-1 $95 $61 @18 ASM_EDGE_FROM_STEP @4 3197 #
color-adesk-attrib $-1 -1 $163 $-1 $97 7 #
straight-curve $-1 -1 $-1 -24.707461650252029 158.4323604770579 21.182275879470623 9.9985037063110695 0.17298449318877199 0 F -5.2959908089865939 F -3.6608713244669695 #
DXID-attrib $-1 -1 $-1 $102 $69 @18 ASM_EDGE_FROM_STEP @4 3205 #
DXID-attrib $-1 -1 $-1 $104 $70 @18 ASM_FACE_FROM_STEP @16 step-1M-255-6230 #
color-adesk-attrib $-1 -1 $164 $-1 $105 7 #
face $165 -1 $-1 $166 $167 $3 $-1 $168 forward single #
loop $-1 -1 $-1 $-1 $169 $105 #
cone-surface $-1 -1 $-1 -11.445649558976427 159.1377062308157 9.5000000000000213 0.90825784101742357 0.4184109155248803 5.5511151231257827e-17 4.5858485331967724 -9.9546468159637325 10.960155108391493 1 I I 0 1 15.5 forward I I I I #
coedge $-1 -1 $-1 $170 $171 $172 $173 reversed $106 $-1 #
DXID-attrib $-1 -1 $-1 $109 $76 @18 ASM_FACE_FROM_STEP @16 step-1M-255-6223 #
color-adesk-attrib $-1 -1 $174 $-1 $110 7 #
face $175 -1 $-1 $176 $177 $3 $-1 $178 reversed single #
loop $-1 -1 $-1 $-1 $179 $110 #
cone-surface $-1 -1 $-1 -11.445649558976427 159.1377062308157 9.5000000000000213 0.90825784101742357 0.41841091552488024 -5.5511151231257827e-17 4.2899873375066591 -9.3124115375144605 10.253048327204944 1 I I 0 1 14.5 forward I I I I #
coedge $-1 -1 $-1 $180 $181 $148 $182 forward $111 $-1 #
coedge $-1 -1 $-1 $183 $113 $152 $184 reversed $77 $-1 #
coedge $-1 -1 $-1 $113 $183 $180 $185 reversed $77 $-1 #
edge $186 -1 $-1 $187 -3.1782698087253203 $155 -1.4965211856895719 $114 $188 forward @7 unknown #
coedge $-1 -1 $-1 $115 $114 $144 $182 reversed $48 $-1 #
coedge $-1 -1 $-1 $189 $190 $115 $150 forward $191 $-1 #
edge $192 -1 $-1 $156 -1.6510397899201861 $193 -0.11817880579589865 $115 $194 forward @7 unknown #
coedge $-1 -1 $-1 $195 $116 $190 $196 forward $153 $-1 #
coedge $-1 -1 $-1 $116 $197 $145 $184 forward $153 $-1 #
loop $-1 -1 $-1 $-1 $198 $199 #
color-adesk-attrib $-1 -1 $200 $-1 $117 7 #
vertex $-1 -1 $-1 $117 $201 #
vertex $-1 -1 $-1 $117 $202 #
ellipse-curve $-1 -1 $-1 -26.441347909244129 152.2295755301306 -9.4999999999999787 0 1 0 34.654927636890896 0 -1.1102230246251563e-15 0.4184109155248803 F -7.6567105146562525e-17 F 1.5707963267948966 #
color-adesk-attrib $-1 -1 $203 $-1 $119 7 #
straight-curve $-1 -1 $-1 -61.310697156262947 157.7990865063656 10.591137939735322 0 0 -10 F -1.05911379397353 F -0.34936412761611013 #
DXID-attrib $-1 -1 $-1 $120 $82 @18 ASM_EDGE_FROM_STEP @4 3204 #
point $-1 -1 $-1 -61.310697156262947 157.7990865063656 21.182275879470623 #
DXID-attrib $-1 -1 $-1 $125 $87 @18 ASM_EDGE_FROM_STEP @4 3200 #
DXID-attrib $-1 -1 $-1 $130 $97 @18 ASM_EDGE_FROM_STEP @4 3206 #
DXID-attrib $-1 -1 $-1 $134 $105 @18 ASM_FACE_FROM_STEP @16 step-1M-255-6231 #
color-adesk-attrib $-1 -1 $204 $-1 $135 7 #
face $205 -1 $-1 $206 $207 $3 $-1 $208 forward single #
loop $-1 -1 $-1 $-1 $209 $135 #
plane-surface $-1 -1 $-1 -29.000130646245836 156.28895533192218 25.000000000000021 0 0 1 1 0 0 forward_v I I I I #
coedge $-1 -1 $-1 $210 $211 $212 $213 forward $136 $-1 #
coedge $-1 -1 $-1 $214 $138 $215 $216 reversed $106 $-1 #
coedge $-1 -1 $-1 $138 $212 $217 $218 reversed $106 $-1 #
coedge $-1 -1 $-1 $219 $220 $138 $173 forward $221 $-1 #
edge $222 -1 $-1 $223 -1.5707963267948941 $224 0 $172 $225 forward @7 unknown #
DXID-attrib $-1 -1 $-1 $140 $110 @18 ASM_FACE_FROM_STEP @16 step-1M-255-6224 #
color-adesk-attrib $-1 -1 $226 $-1 $141 7 #
face $227 -1 $-1 $199 $191 $3 $-1 $228 reversed single #
loop $-1 -1 $-1 $-1 $229 $141 #
plane-surface $-1 -1 $-1 -29.000130646245836 156.28895533192218 24.000000000000025 0 0 1 1 0 0 forward_v I I I I #
coedge $-1 -1 $-1 $230 $231 $232 $233 reversed $142 $-1 #
coedge $-1 -1 $-1 $232 $144 $146 $185 forward $111 $-1 #
coedge $-1 -1 $-1 $144 $234 $189 $235 forward $111 $-1 #
edge $236 -1 $-1 $193 -1.5707963267948966 $187 7.6567105146562636e-17 $148 $237 forward @7 unknown #
coedge $-1 -1 $-1 $146 $145 $230 $238 forward $77 $-1 #
edge $239 -1 $-1 $240 -0.95000000000000007 $155 0.95000000000000007 $145 $241 forward @7 unknown #
edge $242 -1 $-1 $187 -0.95000000000000007 $243 0.95000000000000007 $146 $244 forward @7 unknown #
color-adesk-attrib $-1 -1 $245 $-1 $147 7 #
vertex $-1 -1 $-1 $147 $246 #
straight-curve $-1 -1 $-1 -5.3786912838656349 145.96796753606299 -9.4999999999999787 -9.0825784101742393 -4.1841091552488106 0 F -3.1782698087253203 F -1.4965211856895719 #
coedge $-1 -1 $-1 $247 $149 $181 $235 reversed $191 $-1 #
coedge $-1 -1 $-1 $149 $247 $151 $196 reversed $191 $-1 #
loop $-1 -1 $-1 $-1 $149 $176 #
color-adesk-attrib $-1 -1 $248 $-1 $150 7 #
vertex $-1 -1 $-1 $182 $249 #
straight-curve $-1 -1 $-1 -11.445649558976427 159.1377062308157 -23.999999999999982 9.0825784101742393 4.1841091552488106 0 F -1.6510397899201861 F -0.11817880579589865 #
coedge $-1 -1 $-1 $250 $151 $251 $252 reversed $153 $-1 #
edge $253 -1 $-1 $156 -0.35488753715849963 $254 0.099009263458340158 $190 $255 forward @7 unknown #
coedge $-1 -1 $-1 $152 $198 $256 $257 forward $153 $-1 #
coedge $-1 -1 $-1 $197 $258 $259 $260 forward $153 $-1 #
face $261 -1 $-1 $262 $153 $3 $-1 $263 forward single #
DXID-attrib $-1 -1 $-1 $154 $117 @18 ASM_EDGE_FROM_STEP @4 3207 #
point $-1 -1 $-1 8.2135797276467954 152.2295755301306 -9.4999999999999787 #
point $-1 -1 $-1 -26.441347909244129 152.2295755301306 -23.999999999999982 #
DXID-attrib $-1 -1 $-1 $158 $119 @18 ASM_EDGE_FROM_STEP @4 3203 #
DXID-attrib $-1 -1 $-1 $165 $135 @18 ASM_FACE_FROM_STEP @16 step-1M-255-6232 #
color-adesk-attrib $-1 -1 $264 $-1 $166 7 #
face $265 -1 $-1 $-1 $266 $3 $-1 $267 forward single #
loop $-1 -1 $-1 $-1 $268 $166 #
plane-surface $-1 -1 $-1 -29.000130646245836 156.28895533192218 -24.999999999999979 0 0 -1 -1 0 0 forward_v I I I I #
coedge $-1 -1 $-1 $269 $270 $210 $271 reversed $167 $-1 #
coedge $-1 -1 $-1 $272 $169 $209 $271 forward $136 $-1 #
coedge $-1 -1 $-1 $169 $272 $273 $274 forward $136 $-1 #
coedge $-1 -1 $-1 $171 $275 $169 $213 reversed $106 $-1 #
edge $276 -1 $-1 $277 0 $278 1.5707963267948941 $212 $279 forward @7 unknown #
coedge $-1 -1 $-1 $275 $170 $280 $281 reversed $106 $-1 #
coedge $-1 -1 $-1 $268 $282 $170 $216 forward $207 $-1 #
edge $283 -1 $-1 $284 0 $223 7.59756094975784 $170 $285 forward @7 unknown #
coedge $-1 -1 $-1 $273 $286 $171 $218 forward $287 $-1 #
edge $288 -1 $-1 $224 -0.95000000000000007 $277 0.95000000000000007 $217 $289 forward @7 unknown #
coedge $-1 -1 $-1 $290 $172 $286 $291 forward $221 $-1 #
coedge $-1 -1 $-1 $172 $290 $268 $292 forward $221 $-1 #
loop $-1 -1 $-1 $-1 $290 $262 #
color-adesk-attrib $-1 -1 $293 $-1 $173 7 #
vertex $-1 -1 $-1 $292 $294 #
vertex $-1 -1 $-1 $173 $295 #
ellipse-curve $-1 -1 $-1 -10.263243610084629 159.68241009491189 -9.4999999999999787 0.017298449318877206 -0.99985037063110715 0 38.490467242755443 0.66592503880199416 0 0.40263685673234034 F -1.5707963267948941 F 0 #
DXID-attrib $-1 -1 $-1 $175 $141 @18 ASM_FACE_FROM_STEP @16 step-1M-255-6225 #
color-adesk-attrib $-1 -1 $296 $-1 $176 7 #
plane-surface $-1 -1 $-1 -29.000130646245836 156.28895533192218 -23.999999999999982 0 0 -1 -1 0 0 forward_v I I I I #
coedge $-1 -1 $-1 $259 $297 $231 $298 forward $177 $-1 #
coedge $-1 -1 $-1 $256 $179 $183 $238 reversed $142 $-1 #
coedge $-1 -1 $-1 $179 $256 $229 $298 reversed $142 $-1 #
coedge $-1 -1 $-1 $299 $180 $179 $233 forward $111 $-1 #
edge $300 -1 $-1 $243 -7.6567105146562636e-17 $301 1.5707963267948966 $232 $302 reversed @7 unknown #
coedge $-1 -1 $-1 $181 $299 $303 $304 reversed $111 $-1 #
edge $305 -1 $-1 $306 -7.8054875635835455 $193 -1.2125134065678331 $181 $307 reversed @7 unknown #
color-adesk-attrib $-1 -1 $308 $-1 $182 7 #
ellipse-curve $-1 -1 $-1 -12.519017829038432 158.64323320752868 -9.4999999999999787 0.017298449318877203 -0.99985037063110715 -9.6296497219361814e-35 36.00721129161002 0.62296213307283466 -1.1102230246251581e-15 0.40263685673233934 F -1.5707963267948966 F 7.6567105146562636e-17 #
edge $309 -1 $-1 $240 1.4965211856895719 $243 3.1782698087253203 $183 $310 forward @7 unknown #
color-adesk-attrib $-1 -1 $311 $-1 $184 7 #
vertex $-1 -1 $-1 $184 $312 #
straight-curve $-1 -1 $-1 8.2135797276467954 152.2295755301306 2.1316282072803006e-14 0 0 -10 F -0.95000000000000007 F 0.95000000000000007 #
color-adesk-attrib $-1 -1 $313 $-1 $185 7 #
vertex $-1 -1 $-1 $238 $314 #
straight-curve $-1 -1 $-1 23.488193462571566 159.26619534060148 2.1316282072803006e-14 0 0 10 F -0.95000000000000007 F 0.95000000000000007 #
DXID-attrib $-1 -1 $-1 $186 $147 @18 ASM_EDGE_FROM_STEP @4 3208 #
point $-1 -1 $-1 23.488193462571566 159.26619534060148 -9.4999999999999787 #
coedge $-1 -1 $-1 $190 $189 $315 $316 reversed $191 $-1 #
DXID-attrib $-1 -1 $-1 $192 $150 @18 ASM_EDGE_FROM_STEP @4 3210 #
point $-1 -1 $-1 -12.519017829038432 158.64323320752868 -23.999999999999982 #
coedge $-1 -1 $-1 $317 $195 $318 $319 reversed $153 $-1 #
coedge $-1 -1 $-1 $315 $320 $195 $252 forward $266 $-1 #
edge $321 -1 $-1 $322 -2.5 $254 -2.4000000000000004 $195 $323 forward @7 unknown #
color-adesk-attrib $-1 -1 $324 $-1 $196 7 #
vertex $-1 -1 $-1 $316 $325 #
straight-curve $-1 -1 $-1 -29.990223280829142 152.2295755301306 -23.999999999999982 -10 0 0 F -0.35488753715849963 F 0.099009263458340158 #
coedge $-1 -1 $-1 $231 $230 $197 $257 reversed $142 $-1 #
edge $326 -1 $-1 $327 -1.5707963267948966 $240 7.6567105146562525e-17 $256 $328 forward @7 unknown #
coedge $-1 -1 $-1 $198 $329 $330 $331 reversed $153 $-1 #
coedge $-1 -1 $-1 $332 $229 $198 $260 reversed $177 $-1 #
edge $333 -1 $-1 $334 -0.099009263458340158 $327 0.35488753715849963 $259 $335 forward @7 unknown #
color-adesk-attrib $-1 -1 $336 $-1 $199 7 #
face $337 -1 $-1 $338 $221 $3 $-1 $339 forward single #
plane-surface $-1 -1 $-1 -30.980315915412532 152.2295755301306 2.1316282072803006e-14 0 -1 0 1 0 0 forward_v I I I I #
DXID-attrib $-1 -1 $-1 $205 $166 @18 ASM_FACE_FROM_STEP @16 step-1M-255-6233 #
color-adesk-attrib $-1 -1 $340 $-1 $206 7 #
loop $-1 -1 $-1 $-1 $341 $206 #
plane-surface $-1 -1 $-1 -86.227484925162528 158.36814986454721 2.1316282072803006e-14 -0.11043152607484701 -0.99388373467361901 0 0.99388373467361901 -0.11043152607484702 0 forward_v I I I I #
coedge $-1 -1 $-1 $318 $215 $220 $292 reversed $207 $-1 #
coedge $-1 -1 $-1 $342 $209 $275 $343 forward $167 $-1 #
coedge $-1 -1 $-1 $209 $342 $329 $344 forward $167 $-1 #
edge $345 -1 $-1 $278 -0.13018395168131464 $346 1.6510397899201861 $210 $347 forward @7 unknown #
coedge $-1 -1 $-1 $211 $210 $348 $349 forward $136 $-1 #
coedge $-1 -1 $-1 $350 $217 $211 $274 reversed $287 $-1 #
edge $351 -1 $-1 $352 1.7135943564212854 $277 3.653973849962616 $273 $353 forward @7 unknown #
coedge $-1 -1 $-1 $212 $214 $269 $343 reversed $106 $-1 #
color-adesk-attrib $-1 -1 $354 $-1 $213 7 #
vertex $-1 -1 $-1 $218 $355 #
vertex $-1 -1 $-1 $343 $356 #
ellipse-curve $-1 -1 $-1 -10.263243610084629 159.68241009491189 9.5000000000000213 0.017298449318877206 -0.99985037063110715 0 38.490467242755443 0.66592503880199416 0 0.40263685673234034 F 0 F 1.5707963267948941 #
coedge $-1 -1 $-1 $320 $357 $214 $281 forward $266 $-1 #
edge $358 -1 $-1 $359 -2.5 $284 2.5 $214 $360 forward @7 unknown #
coedge $-1 -1 $-1 $215 $318 $320 $361 forward $207 $-1 #
color-adesk-attrib $-1 -1 $362 $-1 $216 7 #
vertex $-1 -1 $-1 $216 $363 #
straight-curve $-1 -1 $-1 -86.227484925162528 158.36814986454721 -24.999999999999979 9.9985037063110695 0.17298449318877199 0 F 0 F 7.59756094975784 #
coedge $-1 -1 $-1 $217 $350 $219 $291 reversed $287 $-1 #
loop $-1 -1 $-1 $-1 $286 $338 #
color-adesk-attrib $-1 -1 $364 $-1 $218 7 #
straight-curve $-1 -1 $-1 28.227223632670871 160.3483351337139 2.1316282072803006e-14 0 0 10 F -0.95000000000000007 F 0.95000000000000007 #
coedge $-1 -1 $-1 $220 $219 $317 $365 forward $221 $-1 #
edge $366 -1 $-1 $224 -3.653973849962616 $367 -1.7135943564212854 $219 $368 forward @7 unknown #
edge $369 -1 $-1 $370 -1.6510397899201861 $223 0.13018395168131464 $220 $371 forward @7 unknown #
DXID-attrib $-1 -1 $-1 $222 $173 @18 ASM_EDGE_FROM_STEP @4 3232 #
point $-1 -1 $-1 -10.26324361008453 159.68241009491189 -24.999999999999979 #
point $-1 -1 $-1 28.227223632670871 160.3483351337139 -9.4999999999999787 #
DXID-attrib $-1 -1 $-1 $227 $176 @18 ASM_FACE_FROM_STEP @16 step-1M-255-6226 #
coedge $-1 -1 $-1 $229 $332 $299 $372 reversed $177 $-1 #
edge $373 -1 $-1 $301 0.11817880579589865 $327 1.6510397899201861 $231 $374 forward @7 unknown #
coedge $-1 -1 $-1 $234 $232 $297 $372 forward $111 $-1 #
color-adesk-attrib $-1 -1 $375 $-1 $233 7 #
vertex $-1 -1 $-1 $233 $376 #
ellipse-curve $-1 -1 $-1 -12.519017829038432 158.64323320752868 9.5000000000000213 -0.017298449318877203 0.99985037063110715 -9.6296497219361814e-35 36.00721129161002 0.62296213307283466 1.1102230246251581e-15 0.40263685673233934 F -1.5707963267948966 F 7.6567105146562636e-17 #
coedge $-1 -1 $-1 $341 $315 $234 $304 forward $266 $-1 #
edge $377 -1 $-1 $306 -2.4000000000000004 $378 2.4000000000000004 $234 $379 forward @7 unknown #
color-adesk-attrib $-1 -1 $380 $-1 $235 7 #
vertex $-1 -1 $-1 $304 $381 #
straight-curve $-1 -1 $-1 -0.3956980395180949 158.85297922464838 -23.999999999999982 -9.9985037063110695 -0.17298449318877199 0 F 1.2125134065678331 F 7.8054875635835455 #
DXID-attrib $-1 -1 $-1 $236 $182 @18 ASM_EDGE_FROM_STEP @4 3209 #
color-adesk-attrib $-1 -1 $382 $-1 $238 7 #
straight-curve $-1 -1 $-1 -5.3786912838656349 145.96796753606299 9.5000000000000213 9.0825784101742393 4.1841091552488106 0 F 1.4965211856895719 F 3.1782698087253203 #
DXID-attrib $-1 -1 $-1 $239 $184 @18 ASM_EDGE_FROM_STEP @4 3211 #
point $-1 -1 $-1 8.2135797276467954 152.2295755301306 9.5000000000000213 #
DXID-attrib $-1 -1 $-1 $242 $185 @18 ASM_EDGE_FROM_STEP @4 3213 #
point $-1 -1 $-1 23.488193462571566 159.26619534060148 9.5000000000000213 #
coedge $-1 -1 $-1 $303 $251 $247 $316 forward $266 $-1 #
edge $383 -1 $-1 $254 -2.7033682186496284 $306 2.0716951818743268 $247 $384 forward @7 unknown #
coedge $-1 -1 $-1 $385 $250 $290 $365 reversed $153 $-1 #
coedge $-1 -1 $-1 $282 $268 $250 $319 forward $207 $-1 #
edge $386 -1 $-1 $370 3.7044922646331684 $322 4.1583890652500086 $250 $387 forward @7 unknown #
coedge $-1 -1 $-1 $251 $280 $282 $361 reversed $266 $-1 #
color-adesk-attrib $-1 -1 $388 $-1 $252 7 #
vertex $-1 -1 $-1 $252 $389 #
straight-curve $-1 -1 $-1 -30.980315915412532 152.2295755301306 2.1316282072803006e-14 0 0 10 F -2.5 F -2.4000000000000004 #
DXID-attrib $-1 -1 $-1 $253 $196 @18 ASM_EDGE_FROM_STEP @4 3223 #
point $-1 -1 $-1 -30.980315915412532 152.2295755301306 -23.999999999999982 #
color-adesk-attrib $-1 -1 $390 $-1 $257 7 #
vertex $-1 -1 $-1 $257 $391 #
ellipse-curve $-1 -1 $-1 -26.441347909244129 152.2295755301306 9.5000000000000213 0 1 0 34.654927636890896 0 1.1102230246251563e-15 0.4184109155248803 F -1.5707963267948966 F 7.6567105146562525e-17 #
coedge $-1 -1 $-1 $258 $348 $270 $344 reversed $153 $-1 #
coedge $-1 -1 $-1 $357 $341 $258 $331 forward $266 $-1 #
edge $392 -1 $-1 $334 2.4000000000000004 $393 2.5 $258 $394 forward @7 unknown #
coedge $-1 -1 $-1 $297 $259 $341 $395 reversed $177 $-1 #
color-adesk-attrib $-1 -1 $396 $-1 $260 7 #
vertex $-1 -1 $-1 $260 $397 #
straight-curve $-1 -1 $-1 -29.990223280829142 152.2295755301306 24.000000000000025 10 0 0 F -0.099009263458340158 F 0.35488753715849963 #
DXID-attrib $-1 -1 $-1 $261 $199 @18 ASM_FACE_FROM_STEP @16 step-1M-255-6227 #
color-adesk-attrib $-1 -1 $398 $-1 $262 7 #
face $399 -1 $-1 $70 $287 $3 $-1 $400 forward single #
cone-surface $-1 -1 $-1 -11.445649558976427 159.1377062308157 -9.4999999999999787 -0.90825784101742357 -0.4184109155248803 5.5511151231257827e-17 4.5858485331967724 -9.9546468159637325 -10.960155108391493 1 I I 0 1 15.5 forward I I I I #
DXID-attrib $-1 -1 $-1 $265 $206 @18 ASM_FACE_FROM_STEP @16 step-1M-255-6234 #
coedge $-1 -1 $-1 $330 $303 $332 $395 forward $266 $-1 #
coedge $-1 -1 $-1 $270 $269 $357 $401 forward $167 $-1 #
edge $402 -1 $-1 $278 -7.59756094975784 $359 0 $275 $403 forward @7 unknown #
edge $404 -1 $-1 $393 -4.1583890652500086 $346 -3.7044922646331684 $329 $405 forward @7 unknown #
color-adesk-attrib $-1 -1 $406 $-1 $271 7 #
vertex $-1 -1 $-1 $349 $407 #
straight-curve $-1 -1 $-1 -11.445649558976427 159.1377062308157 25.000000000000021 -9.0825784101742393 -4.1841091552488106 0 F -0.13018395168131464 F 1.6510397899201861 #
coedge $-1 -1 $-1 $329 $385 $272 $349 reversed $153 $-1 #
edge $408 -1 $-1 $346 -1.5707963267948966 $352 -1.4325458382260077e-16 $348 $409 forward @7 unknown #
coedge $-1 -1 $-1 $286 $273 $385 $410 reversed $287 $-1 #
color-adesk-attrib $-1 -1 $411 $-1 $274 7 #
vertex $-1 -1 $-1 $410 $412 #
straight-curve $-1 -1 $-1 -4.9602803683408325 145.0597096950456 9.5000000000000213 9.0825784101742393 4.1841091552488106 0 F 1.7135943564212854 F 3.653973849962616 #
DXID-attrib $-1 -1 $-1 $276 $213 @18 ASM_EDGE_FROM_STEP @4 3239 #
point $-1 -1 $-1 28.227223632670871 160.3483351337139 9.5000000000000213 #
point $-1 -1 $-1 -10.26324361008453 159.68241009491189 25.000000000000021 #
coedge $-1 -1 $-1 $280 $330 $342 $401 reversed $266 $-1 #
color-adesk-attrib $-1 -1 $413 $-1 $281 7 #
vertex $-1 -1 $-1 $281 $414 #
straight-curve $-1 -1 $-1 -86.227484925162528 158.36814986454721 2.1316282072803006e-14 0 0 -10 F -2.5 F 2.5 #
edge $415 -1 $-1 $322 0 $284 5.5587154797228475 $282 $416 forward @7 unknown #
DXID-attrib $-1 -1 $-1 $283 $216 @18 ASM_EDGE_FROM_STEP @4 3236 #
point $-1 -1 $-1 -86.227484925162528 158.36814986454721 -24.999999999999979 #
DXID-attrib $-1 -1 $-1 $288 $218 @18 ASM_EDGE_FROM_STEP @4 3234 #
edge $417 -1 $-1 $367 1.4325458382260077e-16 $370 1.5707963267948966 $317 $418 forward @7 unknown #
color-adesk-attrib $-1 -1 $419 $-1 $291 7 #
vertex $-1 -1 $-1 $365 $420 #
straight-curve $-1 -1 $-1 -4.9602803683408325 145.0597096950456 -9.4999999999999787 -9.0825784101742393 -4.1841091552488106 0 F -3.653973849962616 F -1.7135943564212854 #
color-adesk-attrib $-1 -1 $421 $-1 $292 7 #
vertex $-1 -1 $-1 $319 $422 #
straight-curve $-1 -1 $-1 -11.445649558976427 159.1377062308157 -24.999999999999979 9.0825784101742393 4.1841091552488106 0 F -1.6510397899201861 F 0.13018395168131464 #
edge $423 -1 $-1 $301 1.2125134065678331 $378 7.8054875635835455 $299 $424 reversed @7 unknown #
color-adesk-attrib $-1 -1 $425 $-1 $298 7 #
straight-curve $-1 -1 $-1 -11.445649558976427 159.1377062308157 24.000000000000025 -9.0825784101742393 -4.1841091552488106 0 F 0.11817880579589865 F 1.6510397899201861 #
DXID-attrib $-1 -1 $-1 $300 $233 @18 ASM_EDGE_FROM_STEP @4 3214 #
point $-1 -1 $-1 -12.519017829038432 158.64323320752868 24.000000000000025 #
color-adesk-attrib $-1 -1 $426 $-1 $304 7 #
vertex $-1 -1 $-1 $372 $427 #
straight-curve $-1 -1 $-1 -78.43889437357312 157.50275091437061 2.1316282072803006e-14 0 0 10 F -2.4000000000000004 F 2.4000000000000004 #
DXID-attrib $-1 -1 $-1 $305 $235 @18 ASM_EDGE_FROM_STEP @4 3217 #
point $-1 -1 $-1 -78.43889437357312 157.50275091437061 -23.999999999999982 #
DXID-attrib $-1 -1 $-1 $309 $238 @18 ASM_EDGE_FROM_STEP @4 3212 #
color-adesk-attrib $-1 -1 $428 $-1 $316 7 #
straight-curve $-1 -1 $-1 -57.848652928907129 155.21494630940779 -23.999999999999982 -9.9388373467361895 1.1043152607484701 0 F -2.7033682186496284 F 2.0716951818743268 #
coedge $-1 -1 $-1 $348 $317 $350 $410 forward $153 $-1 #
color-adesk-attrib $-1 -1 $429 $-1 $319 7 #
straight-curve $-1 -1 $-1 10.603574737087548 152.2295755301306 -24.999999999999979 -10 0 0 F 3.7044922646331684 F 4.1583890652500086 #
DXID-attrib $-1 -1 $-1 $321 $252 @18 ASM_EDGE_FROM_STEP @4 3224 #
point $-1 -1 $-1 -30.980315915412532 152.2295755301306 -24.999999999999979 #
DXID-attrib $-1 -1 $-1 $326 $257 @18 ASM_EDGE_FROM_STEP @4 3218 #
point $-1 -1 $-1 -26.441347909244129 152.2295755301306 24.000000000000025 #
color-adesk-attrib $-1 -1 $430 $-1 $331 7 #
vertex $-1 -1 $-1 $344 $431 #
straight-curve $-1 -1 $-1 -30.980315915412532 152.2295755301306 2.1316282072803006e-14 0 0 10 F 2.4000000000000004 F 2.5 #
edge $432 -1 $-1 $378 -2.0716951818743268 $334 2.7033682186496284 $332 $433 forward @7 unknown #
DXID-attrib $-1 -1 $-1 $333 $260 @18 ASM_EDGE_FROM_STEP @4 3220 #
point $-1 -1 $-1 -30.980315915412532 152.2295755301306 24.000000000000025 #
DXID-attrib $-1 -1 $-1 $337 $262 @18 ASM_FACE_FROM_STEP @16 step-1M-255-6228 #
color-adesk-attrib $-1 -1 $434 $-1 $338 7 #
plane-surface $-1 -1 $-1 10.603574737087548 152.2295755301306 2.1316282072803006e-14 0.4184109155248803 -0.90825784101742357 0 0.90825784101742357 0.4184109155248803 0 forward_v I I I I #
edge $435 -1 $-1 $359 -5.5587154797228475 $393 0 $342 $436 forward @7 unknown #
color-adesk-attrib $-1 -1 $437 $-1 $343 7 #
straight-curve $-1 -1 $-1 -86.227484925162528 158.36814986454721 25.000000000000021 -9.9985037063110695 -0.17298449318877199 0 F -7.59756094975784 F 0 #
color-adesk-attrib $-1 -1 $438 $-1 $344 7 #
straight-curve $-1 -1 $-1 10.603574737087548 152.2295755301306 25.000000000000021 10 0 0 F -4.1583890652500086 F -3.7044922646331684 #
DXID-attrib $-1 -1 $-1 $345 $271 @18 ASM_EDGE_FROM_STEP @4 3240 #
point $-1 -1 $-1 -26.441347909244129 152.2295755301306 25.000000000000021 #
color-adesk-attrib $-1 -1 $439 $-1 $349 7 #
ellipse-curve $-1 -1 $-1 -26.441347909244129 152.2295755301306 9.5000000000000213 0 1 0 37.044922646331599 0 -2.2204460492503123e-15 0.41841091552488097 F -1.5707963267948966 F -1.4325458382260077e-16 #
edge $440 -1 $-1 $367 -0.95000000000000007 $352 0.95000000000000007 $385 $441 forward @7 unknown #
DXID-attrib $-1 -1 $-1 $351 $274 @18 ASM_EDGE_FROM_STEP @4 3235 #
point $-1 -1 $-1 10.603574737087548 152.2295755301306 9.5000000000000213 #
DXID-attrib $-1 -1 $-1 $358 $281 @18 ASM_EDGE_FROM_STEP @4 3237 #
point $-1 -1 $-1 -86.227484925162528 158.36814986454721 25.000000000000021 #
color-adesk-attrib $-1 -1 $442 $-1 $361 7 #
straight-curve $-1 -1 $-1 -30.980315915412532 152.2295755301306 -24.999999999999979 -9.9388373467361895 1.1043152607484701 0 F 0 F 5.5587154797228475 #
color-adesk-attrib $-1 -1 $443 $-1 $365 7 #
ellipse-curve $-1 -1 $-1 -26.441347909244129 152.2295755301306 -9.4999999999999787 0 1 0 37.044922646331599 0 2.2204460492503123e-15 0.41841091552488097 F 1.4325458382260077e-16 F 1.5707963267948966 #
DXID-attrib $-1 -1 $-1 $366 $291 @18 ASM_EDGE_FROM_STEP @4 3233 #
point $-1 -1 $-1 10.603574737087548 152.2295755301306 -9.4999999999999787 #
DXID-attrib $-1 -1 $-1 $369 $292 @18 ASM_EDGE_FROM_STEP @4 3231 #
point $-1 -1 $-1 -26.441347909244129 152.2295755301306 -24.999999999999979 #
color-adesk-attrib $-1 -1 $444 $-1 $372 7 #
straight-curve $-1 -1 $-1 -0.3956980395180949 158.85297922464838 24.000000000000025 9.9985037063110695 0.17298449318877199 0 F -7.8054875635835455 F -1.2125134065678331 #
DXID-attrib $-1 -1 $-1 $373 $298 @18 ASM_EDGE_FROM_STEP @4 3219 #
DXID-attrib $-1 -1 $-1 $377 $304 @18 ASM_EDGE_FROM_STEP @4 3216 #
point $-1 -1 $-1 -78.43889437357312 157.50275091437061 24.000000000000025 #
DXID-attrib $-1 -1 $-1 $383 $316 @18 ASM_EDGE_FROM_STEP @4 3222 #
DXID-attrib $-1 -1 $-1 $386 $319 @18 ASM_EDGE_FROM_STEP @4 3225 #
DXID-attrib $-1 -1 $-1 $392 $331 @18 ASM_EDGE_FROM_STEP @4 3230 #
point $-1 -1 $-1 -30.980315915412532 152.2295755301306 25.000000000000021 #
color-adesk-attrib $-1 -1 $445 $-1 $395 7 #
straight-curve $-1 -1 $-1 -57.848652928907129 155.21494630940779 24.000000000000025 9.9388373467361895 -1.1043152607484701 0 F -2.0716951818743268 F 2.7033682186496284 #
DXID-attrib $-1 -1 $-1 $399 $338 @18 ASM_FACE_FROM_STEP @16 step-1M-255-6229 #
color-adesk-attrib $-1 -1 $446 $-1 $401 7 #
straight-curve $-1 -1 $-1 -30.980315915412532 152.2295755301306 25.000000000000021 9.9388373467361895 -1.1043152607484701 0 F -5.5587154797228475 F 0 #
DXID-attrib $-1 -1 $-1 $402 $343 @18 ASM_EDGE_FROM_STEP @4 3238 #
DXID-attrib $-1 -1 $-1 $404 $344 @18 ASM_EDGE_FROM_STEP @4 3229 #
DXID-attrib $-1 -1 $-1 $408 $349 @18 ASM_EDGE_FROM_STEP @4 3228 #
color-adesk-attrib $-1 -1 $447 $-1 $410 7 #
straight-curve $-1 -1 $-1 10.603574737087548 152.2295755301306 2.1316282072803006e-14 0 0 10 F -0.95000000000000007 F 0.95000000000000007 #
DXID-attrib $-1 -1 $-1 $415 $361 @18 ASM_EDGE_FROM_STEP @4 3242 #
DXID-attrib $-1 -1 $-1 $417 $365 @18 ASM_EDGE_FROM_STEP @4 3226 #
DXID-attrib $-1 -1 $-1 $423 $372 @18 ASM_EDGE_FROM_STEP @4 3215 #
DXID-attrib $-1 -1 $-1 $432 $395 @18 ASM_EDGE_FROM_STEP @4 3221 #
DXID-attrib $-1 -1 $-1 $435 $401 @18 ASM_EDGE_FROM_STEP @4 3241 #
DXID-attrib $-1 -1 $-1 $440 $410 @18 ASM_EDGE_FROM_STEP @4 3227 #
