700 296 1 0         
5 ZWCAD 12 ACIS 28.0 NT 24 Mon May 13 10:04:27 2024 
1 9.9999999999999995e-07 1e-10 
body $1 -1 $-1 $2 $-1 $-1 #
DXID-attrib $-1 -1 $-1 $-1 $0 @18 ASM_BODY_FROM_STEP @83 CF3CBEF63CF70A0C23DCF338F20721EE98F47134|:|654F87611FAF4AA5F4C95476A893B3161B904202 #
lump $-1 -1 $-1 $-1 $3 $0 #
shell $-1 -1 $-1 $-1 $-1 $4 $-1 $2 #
face $5 -1 $-1 $6 $7 $3 $-1 $8 forward single #
truecolor-adesk-attrib $-1 -1 $9 $-1 $4 -1030055270 #
face $10 -1 $-1 $11 $12 $3 $-1 $13 forward single #
loop $-1 -1 $-1 $-1 $14 $4 #
plane-surface $-1 -1 $-1 3161.3500505613692 893.836131608095 285.24439161443723 -1.1232219075301469e-17 1 -1.8369701987210297e-16 1 1.1232219075301474e-17 2.8824134254750371e-17 forward_v I I I I #
fmesh-eye-attrib $-1 -1 $15 $5 $4 #
truecolor-adesk-attrib $-1 -1 $16 $-1 $6 -1030055270 #
face $17 -1 $-1 $18 $19 $3 $-1 $20 reversed single #
loop $-1 -1 $-1 $-1 $21 $6 #
plane-surface $-1 -1 $-1 3068.6277843689822 674.25090510646578 285.24439161443723 0.81914042226609418 -0.5735930339619939 1.2897834446310704e-16 -0.5735930339619939 -0.81914042226609418 1.3394033180854742e-16 forward_v I I I I #
coedge $-1 -1 $-1 $22 $23 $24 $25 reversed $7 $-1 #
DXID-attrib $-1 -1 $-1 $9 $4 @18 ASM_FACE_FROM_STEP @17 step-3M-341-32182 #
fmesh-eye-attrib $-1 -1 $26 $10 $6 #
truecolor-adesk-attrib $-1 -1 $27 $-1 $11 -1030055270 #
face $28 -1 $-1 $29 $30 $3 $-1 $31 forward single #
loop $-1 -1 $-1 $-1 $32 $11 #
cone-surface $-1 -1 $-1 3109.5848054822868 645.57125340836603 285.24439161443723 -2.8824134254750371e-17 1.8369701987210297e-16 1 50.000000000000043 5.6161095376507414e-16 1.4412067127375197e-15 1 I I 0 1 50.000000000000043 forward I I I I #
coedge $-1 -1 $-1 $33 $34 $35 $36 forward $12 $-1 #
coedge $-1 -1 $-1 $37 $14 $38 $39 forward $7 $-1 #
coedge $-1 -1 $-1 $14 $37 $40 $41 forward $7 $-1 #
coedge $-1 -1 $-1 $42 $43 $14 $25 forward $44 $-1 #
edge $45 -1 $-1 $46 -0.041039595459931771 $47 0 $14 $48 forward @7 unknown #
DXID-attrib $-1 -1 $-1 $16 $6 @18 ASM_FACE_FROM_STEP @17 step-3M-341-22681 #
fmesh-eye-attrib $-1 -1 $49 $17 $11 #
truecolor-adesk-attrib $-1 -1 $50 $-1 $18 -1030055270 #
face $51 -1 $-1 $52 $53 $3 $-1 $54 forward single #
loop $-1 -1 $-1 $-1 $55 $18 #
plane-surface $-1 -1 $-1 3059.5848054822868 548.10224612015872 285.24439161443729 1 1.1232219075301474e-17 2.8824134254750371e-17 2.8824134254750371e-17 -1.8369701987210297e-16 -1 forward_v I I I I #
coedge $-1 -1 $-1 $56 $57 $58 $59 reversed $19 $-1 #
coedge $-1 -1 $-1 $60 $21 $61 $62 forward $12 $-1 #
coedge $-1 -1 $-1 $21 $60 $57 $63 reversed $12 $-1 #
coedge $-1 -1 $-1 $64 $65 $21 $36 reversed $66 $-1 #
edge $67 -1 $-1 $68 2.910171383043171e-17 $69 0.25370761833417221 $21 $70 forward @7 unknown #
coedge $-1 -1 $-1 $23 $22 $71 $72 forward $7 $-1 #
coedge $-1 -1 $-1 $73 $74 $22 $39 reversed $75 $-1 #
edge $76 -1 $-1 $46 -0.01 $77 0 $22 $78 forward @7 unknown #
coedge $-1 -1 $-1 $79 $80 $23 $41 reversed $81 $-1 #
edge $82 -1 $-1 $83 0 $47 0.01 $23 $84 forward @7 unknown #
coedge $-1 -1 $-1 $85 $24 $80 $86 forward $44 $-1 #
coedge $-1 -1 $-1 $24 $87 $73 $88 forward $44 $-1 #
loop $-1 -1 $-1 $-1 $87 $89 #
truecolor-adesk-attrib $-1 -1 $90 $-1 $25 -1030055270 #
vertex $-1 -1 $-1 $25 $91 #
vertex $-1 -1 $-1 $25 $92 #
straight-curve $-1 -1 $-1 3161.3500505613692 893.836131608095 295.24439161443723 -1000 -1.1232219075301473e-14 -2.8824134254750371e-14 F -0.041039595459931771 F 0 #
DXID-attrib $-1 -1 $-1 $27 $11 @18 ASM_FACE_FROM_STEP @17 step-3M-341-15702 #
fmesh-eye-attrib $-1 -1 $93 $28 $18 #
truecolor-adesk-attrib $-1 -1 $94 $-1 $29 -1030055270 #
face $95 -1 $-1 $96 $97 $3 $-1 $98 forward single #
loop $-1 -1 $-1 $-1 $99 $29 #
plane-surface $-1 -1 $-1 3039.5848054822868 528.1022461201585 285.24439161443729 0.70710678118655068 -0.70710678118654435 1.5027514922868894e-16 -0.70710678118654435 -0.70710678118655068 1.0951166764195922e-16 forward_v I I I I #
coedge $-1 -1 $-1 $100 $101 $102 $103 reversed $30 $-1 #
coedge $-1 -1 $-1 $104 $32 $101 $105 reversed $19 $-1 #
coedge $-1 -1 $-1 $32 $104 $34 $63 forward $19 $-1 #
coedge $-1 -1 $-1 $87 $102 $32 $59 forward $44 $-1 #
edge $106 -1 $-1 $107 -3.1415926535897931 $108 -2.5307071533063605 $32 $109 forward @7 unknown #
coedge $-1 -1 $-1 $34 $33 $87 $110 reversed $12 $-1 #
coedge $-1 -1 $-1 $74 $73 $33 $62 reversed $75 $-1 #
edge $111 -1 $-1 $69 0 $112 0.01 $33 $113 forward @7 unknown #
edge $114 -1 $-1 $68 0 $108 0.01 $34 $115 forward @7 unknown #
coedge $-1 -1 $-1 $116 $35 $104 $117 reversed $66 $-1 #
coedge $-1 -1 $-1 $35 $71 $74 $118 forward $66 $-1 #
loop $-1 -1 $-1 $-1 $71 $119 #
truecolor-adesk-attrib $-1 -1 $120 $-1 $36 -1030055270 #
vertex $-1 -1 $-1 $36 $121 #
vertex $-1 -1 $-1 $36 $122 #
straight-curve $-1 -1 $-1 3068.6277843689822 674.25090510646578 285.24439161443723 573.59303396199402 819.14042226609422 -1.3394033180854742e-13 F 2.910171383043171e-17 F 0.25370761833417221 #
coedge $-1 -1 $-1 $65 $123 $37 $72 reversed $66 $-1 #
edge $124 -1 $-1 $77 -0.041039595459931771 $83 0 $37 $125 forward @7 unknown #
coedge $-1 -1 $-1 $61 $38 $43 $88 reversed $75 $-1 #
coedge $-1 -1 $-1 $38 $61 $65 $118 reversed $75 $-1 #
loop $-1 -1 $-1 $-1 $74 $126 #
truecolor-adesk-attrib $-1 -1 $127 $-1 $39 -1030055270 #
vertex $-1 -1 $-1 $39 $128 #
straight-curve $-1 -1 $-1 3202.3896460213009 893.836131608095 285.24439161443723 2.8824134254750371e-14 -1.8369701987210297e-13 -1000 F -0.01 F 0 #
coedge $-1 -1 $-1 $129 $40 $123 $130 forward $81 $-1 #
coedge $-1 -1 $-1 $40 $129 $42 $86 reversed $81 $-1 #
loop $-1 -1 $-1 $-1 $80 $131 #
truecolor-adesk-attrib $-1 -1 $132 $-1 $41 -1030055270 #
vertex $-1 -1 $-1 $72 $133 #
straight-curve $-1 -1 $-1 3161.3500505613692 893.836131608095 285.24439161443723 -2.8824134254750371e-14 1.8369701987210297e-13 1000 F 0 F 0.01 #
coedge $-1 -1 $-1 $134 $42 $135 $136 forward $44 $-1 #
edge $137 -1 $-1 $47 0 $138 0.2630104242172665 $80 $139 forward @7 unknown #
coedge $-1 -1 $-1 $43 $58 $60 $110 forward $44 $-1 #
edge $140 -1 $-1 $112 0.093291366591636685 $46 0.10992684683340675 $43 $141 forward @7 unknown #
face $142 -1 $-1 $126 $44 $3 $-1 $143 forward single #
DXID-attrib $-1 -1 $-1 $45 $25 @18 ASM_EDGE_FROM_STEP @5 41323 #
point $-1 -1 $-1 3202.3896460213009 893.836131608095 295.24439161443723 #
point $-1 -1 $-1 3161.3500505613692 893.836131608095 295.24439161443723 #
DXID-attrib $-1 -1 $-1 $50 $18 @18 ASM_FACE_FROM_STEP @17 step-3M-341-32991 #
fmesh-eye-attrib $-1 -1 $144 $51 $29 #
truecolor-adesk-attrib $-1 -1 $145 $-1 $52 -1030055270 #
face $146 -1 $-1 $147 $148 $3 $-1 $149 forward single #
loop $-1 -1 $-1 $-1 $150 $52 #
plane-surface $-1 -1 $-1 3009.5848054822868 528.1022461201585 285.24439161443729 -2.2006424438827263e-16 -1 1.8369701987210297e-16 -1 2.2006424438827263e-16 -2.8824134254750414e-17 forward_v I I I I #
coedge $-1 -1 $-1 $151 $152 $153 $154 reversed $53 $-1 #
coedge $-1 -1 $-1 $155 $55 $152 $156 reversed $30 $-1 #
coedge $-1 -1 $-1 $55 $155 $56 $105 forward $30 $-1 #
coedge $-1 -1 $-1 $58 $153 $55 $103 forward $44 $-1 #
edge $157 -1 $-1 $158 0 $107 0.097469007288207343 $55 $159 forward @7 unknown #
coedge $-1 -1 $-1 $57 $56 $64 $117 forward $19 $-1 #
edge $160 -1 $-1 $161 0 $107 0.01 $56 $162 forward @7 unknown #
truecolor-adesk-attrib $-1 -1 $163 $-1 $59 -1030055270 #
vertex $-1 -1 $-1 $59 $164 #
vertex $-1 -1 $-1 $110 $165 #
ellipse-curve $-1 -1 $-1 3109.5848054822868 645.57125340836603 295.24439161443723 2.8824134254750371e-17 -1.8369701987210297e-16 -1 50.000000000000043 5.6161095376507414e-16 1.4412067127375197e-15 1 F -3.1415926535897931 F -2.5307071533063605 #
edge $166 -1 $-1 $108 2.910171383043171e-17 $112 0.25370761833417221 $60 $167 forward @7 unknown #
truecolor-adesk-attrib $-1 -1 $168 $-1 $62 -1030055270 #
vertex $-1 -1 $-1 $62 $169 #
straight-curve $-1 -1 $-1 3214.1527069085514 882.0730707208445 285.24439161443723 -2.8824134254750371e-14 1.8369701987210297e-13 1000 F 0 F 0.01 #
truecolor-adesk-attrib $-1 -1 $170 $-1 $63 -1030055270 #
straight-curve $-1 -1 $-1 3068.6277843689822 674.25090510646578 285.24439161443723 -2.8824134254750371e-14 1.8369701987210297e-13 1000 F 0 F 0.01 #
coedge $-1 -1 $-1 $171 $64 $155 $172 reversed $66 $-1 #
edge $173 -1 $-1 $161 -3.1415926535897931 $68 -2.5307071533063605 $104 $174 forward @7 unknown #
edge $175 -1 $-1 $77 -0.016635480241770185 $69 -1.0048591735576136e-16 $65 $176 forward @7 unknown #
face $177 -1 $-1 $89 $66 $3 $-1 $178 reversed single #
DXID-attrib $-1 -1 $-1 $67 $36 @18 ASM_EDGE_FROM_STEP @5 10791 #
point $-1 -1 $-1 3068.6277843689822 674.25090510646578 285.24439161443723 #
point $-1 -1 $-1 3214.1527069085514 882.07307072084461 285.24439161443723 #
coedge $-1 -1 $-1 $71 $179 $79 $130 reversed $66 $-1 #
truecolor-adesk-attrib $-1 -1 $180 $-1 $72 -1030055270 #
straight-curve $-1 -1 $-1 3161.3500505613692 893.836131608095 285.24439161443723 -1000 -1.1232219075301473e-14 -2.8824134254750371e-14 F -0.041039595459931771 F 0 #
face $181 -1 $-1 $-1 $75 $3 $-1 $182 reversed single #
DXID-attrib $-1 -1 $-1 $76 $39 @18 ASM_EDGE_FROM_STEP @5 31287 #
point $-1 -1 $-1 3202.3896460213009 893.836131608095 285.24439161443723 #
coedge $-1 -1 $-1 $80 $79 $183 $184 forward $81 $-1 #
edge $185 -1 $-1 $83 0 $186 0.2630104242172665 $79 $187 forward @7 unknown #
face $188 -1 $-1 $119 $81 $3 $-1 $189 forward single #
DXID-attrib $-1 -1 $-1 $82 $41 @18 ASM_EDGE_FROM_STEP @4 4300 #
point $-1 -1 $-1 3161.3500505613692 893.836131608095 285.24439161443723 #
coedge $-1 -1 $-1 $190 $85 $191 $192 forward $44 $-1 #
coedge $-1 -1 $-1 $183 $193 $85 $136 reversed $194 $-1 #
edge $195 -1 $-1 $138 2.530707153306389 $196 3.1415926535897931 $135 $197 forward @7 unknown #
truecolor-adesk-attrib $-1 -1 $198 $-1 $86 -1030055270 #
vertex $-1 -1 $-1 $136 $199 #
straight-curve $-1 -1 $-1 3161.3500505613692 893.836131608095 295.24439161443723 -573.59303396199437 -819.14042226609376 1.3394033180854732e-13 F 0 F 0.2630104242172665 #
truecolor-adesk-attrib $-1 -1 $200 $-1 $88 -1030055270 #
straight-curve $-1 -1 $-1 3280.1196648516579 816.10611277773819 295.24439161443723 -707.10678118654926 707.10678118654596 -1.5027514922868919e-13 F 0.093291366591636685 F 0.10992684683340675 #
truecolor-adesk-attrib $-1 -1 $201 $-1 $89 -1030055270 #
plane-surface $-1 -1 $-1 3109.5848054822868 645.57125340836603 295.24439161443723 -2.8824134254750371e-17 1.8369701987210297e-16 1 1 1.1232219075301474e-17 2.8824134254750371e-17 forward_v I I I I #
DXID-attrib $-1 -1 $-1 $94 $29 @18 ASM_FACE_FROM_STEP @17 step-3M-341-15995 #
fmesh-eye-attrib $-1 -1 $202 $95 $52 #
truecolor-adesk-attrib $-1 -1 $203 $-1 $96 -1030055270 #
face $204 -1 $-1 $131 $194 $3 $-1 $205 forward single #
loop $-1 -1 $-1 $-1 $191 $96 #
plane-surface $-1 -1 $-1 3009.5848054822868 675.52569648456904 285.24439161443723 -1 -1.1232219075301474e-17 -2.8824134254750371e-17 -2.8824134254750371e-17 1.8369701987210297e-16 1 forward_v I I I I #
coedge $-1 -1 $-1 $206 $207 $190 $208 reversed $97 $-1 #
coedge $-1 -1 $-1 $209 $99 $207 $210 reversed $53 $-1 #
coedge $-1 -1 $-1 $99 $209 $100 $156 forward $53 $-1 #
coedge $-1 -1 $-1 $102 $190 $99 $154 forward $44 $-1 #
edge $211 -1 $-1 $212 0 $158 0.028284271247462037 $99 $213 forward @7 unknown #
coedge $-1 -1 $-1 $101 $100 $116 $172 forward $30 $-1 #
edge $214 -1 $-1 $215 0 $158 0.01 $100 $216 forward @7 unknown #
truecolor-adesk-attrib $-1 -1 $217 $-1 $103 -1030055270 #
vertex $-1 -1 $-1 $103 $218 #
straight-curve $-1 -1 $-1 3059.5848054822868 548.10224612015872 295.24439161443729 -1.123221907530147e-14 1000 -1.8369701987210297e-13 F 0 F 0.097469007288207343 #
truecolor-adesk-attrib $-1 -1 $219 $-1 $105 -1030055270 #
vertex $-1 -1 $-1 $105 $220 #
straight-curve $-1 -1 $-1 3059.5848054822868 645.57125340836603 285.24439161443723 -2.8824134254750371e-14 1.8369701987210297e-13 1000 F 0 F 0.01 #
DXID-attrib $-1 -1 $-1 $106 $59 @18 ASM_EDGE_FROM_STEP @5 39095 #
point $-1 -1 $-1 3059.5848054822868 645.57125340836603 295.24439161443723 #
point $-1 -1 $-1 3068.6277843689822 674.25090510646578 295.24439161443723 #
truecolor-adesk-attrib $-1 -1 $221 $-1 $110 -1030055270 #
straight-curve $-1 -1 $-1 3068.6277843689822 674.25090510646578 295.24439161443723 573.59303396199402 819.14042226609422 -1.3394033180854742e-13 F 2.910171383043171e-17 F 0.25370761833417221 #
DXID-attrib $-1 -1 $-1 $111 $62 @18 ASM_EDGE_FROM_STEP @5 36563 #
point $-1 -1 $-1 3214.1527069085514 882.07307072084461 295.24439161443723 #
DXID-attrib $-1 -1 $-1 $114 $63 @18 ASM_EDGE_FROM_STEP @5 31088 #
coedge $-1 -1 $-1 $222 $116 $209 $223 reversed $66 $-1 #
edge $224 -1 $-1 $215 0 $161 0.097469007288207343 $155 $225 forward @7 unknown #
truecolor-adesk-attrib $-1 -1 $226 $-1 $117 -1030055270 #
ellipse-curve $-1 -1 $-1 3109.5848054822868 645.57125340836603 285.24439161443723 2.8824134254750371e-17 -1.8369701987210297e-16 -1 50.000000000000043 5.6161095376507414e-16 1.4412067127375197e-15 1 F -3.1415926535897931 F -2.5307071533063605 #
truecolor-adesk-attrib $-1 -1 $227 $-1 $118 -1030055270 #
straight-curve $-1 -1 $-1 3214.1527069085514 882.0730707208445 285.24439161443723 707.10678118654926 -707.10678118654596 1.5027514922868919e-13 F -0.016635480241770185 F -1.0048591735576136e-16 #
truecolor-adesk-attrib $-1 -1 $228 $-1 $119 -1030055270 #
plane-surface $-1 -1 $-1 3109.5848054822868 645.57125340836603 285.24439161443723 -2.8824134254750371e-17 1.8369701987210297e-16 1 1 1.1232219075301474e-17 2.8824134254750371e-17 forward_v I I I I #
coedge $-1 -1 $-1 $123 $229 $230 $231 reversed $66 $-1 #
DXID-attrib $-1 -1 $-1 $124 $72 @18 ASM_EDGE_FROM_STEP @4 4839 #
truecolor-adesk-attrib $-1 -1 $232 $-1 $126 -1030055270 #
plane-surface $-1 -1 $-1 3214.1527069085514 882.0730707208445 285.24439161443723 -0.70710678118654591 -0.70710678118654924 1.0951166764195891e-16 -2.8824134254750371e-17 1.8369701987210297e-16 1 forward_v I I I I #
coedge $-1 -1 $-1 $230 $135 $129 $184 reversed $194 $-1 #
edge $233 -1 $-1 $186 0 $138 0.01 $183 $234 forward @7 unknown #
truecolor-adesk-attrib $-1 -1 $235 $-1 $130 -1030055270 #
vertex $-1 -1 $-1 $184 $236 #
straight-curve $-1 -1 $-1 3161.3500505613692 893.836131608095 285.24439161443723 -573.59303396199437 -819.14042226609376 1.3394033180854732e-13 F 0 F 0.2630104242172665 #
truecolor-adesk-attrib $-1 -1 $237 $-1 $131 -1030055270 #
plane-surface $-1 -1 $-1 3161.3500505613692 893.836131608095 285.24439161443723 -0.81914042226609374 0.57359303396199435 -1.2897834446310711e-16 0.57359303396199435 0.81914042226609374 -1.3394033180854732e-16 forward_v I I I I #
coedge $-1 -1 $-1 $153 $134 $150 $208 forward $44 $-1 #
coedge $-1 -1 $-1 $238 $239 $134 $192 reversed $148 $-1 #
edge $240 -1 $-1 $196 0 $241 0.14742345036441049 $191 $242 forward @7 unknown #
coedge $-1 -1 $-1 $135 $230 $238 $243 forward $194 $-1 #
loop $-1 -1 $-1 $-1 $135 $147 #
truecolor-adesk-attrib $-1 -1 $244 $-1 $136 -1030055270 #
vertex $-1 -1 $-1 $192 $245 #
ellipse-curve $-1 -1 $-1 3014.5848054822864 675.52569648456904 295.24439161443723 -2.8824134254750371e-17 1.8369701987210297e-16 1 4.9999999999998934 5.6161095376506174e-17 1.4412067127374877e-16 1 F 2.530707153306389 F 3.1415926535897931 #
DXID-attrib $-1 -1 $-1 $137 $86 @18 ASM_EDGE_FROM_STEP @4 7321 #
point $-1 -1 $-1 3010.4891033709564 678.39366165437877 295.24439161443723 #
DXID-attrib $-1 -1 $-1 $140 $88 @18 ASM_EDGE_FROM_STEP @5 42415 #
fmesh-eye-attrib $-1 -1 $246 $142 $89 #
DXID-attrib $-1 -1 $-1 $145 $52 @18 ASM_FACE_FROM_STEP @16 step-3M-341-3504 #
fmesh-eye-attrib $-1 -1 $247 $146 $96 #
truecolor-adesk-attrib $-1 -1 $248 $-1 $147 -1030055270 #
cone-surface $-1 -1 $-1 3014.5848054822864 675.52569648456904 285.24439161443723 -2.8824134254750371e-17 1.8369701987210297e-16 1 4.9999999999998934 5.6161095376506174e-17 1.4412067127374877e-16 1 I I 0 1 4.9999999999998934 forward I I I I #
coedge $-1 -1 $-1 $249 $150 $239 $250 reversed $97 $-1 #
coedge $-1 -1 $-1 $150 $249 $151 $210 forward $97 $-1 #
edge $251 -1 $-1 $241 0 $212 0.029999999999999999 $150 $252 forward @7 unknown #
coedge $-1 -1 $-1 $152 $151 $171 $223 forward $53 $-1 #
edge $253 -1 $-1 $254 0 $212 0.01 $151 $255 forward @7 unknown #
truecolor-adesk-attrib $-1 -1 $256 $-1 $154 -1030055270 #
vertex $-1 -1 $-1 $154 $257 #
straight-curve $-1 -1 $-1 3039.5848054822868 528.1022461201585 295.24439161443729 707.10678118654437 707.10678118655085 -1.0951166764195925e-13 F 0 F 0.028284271247462037 #
truecolor-adesk-attrib $-1 -1 $258 $-1 $156 -1030055270 #
vertex $-1 -1 $-1 $156 $259 #
straight-curve $-1 -1 $-1 3059.5848054822868 548.10224612015872 285.24439161443729 -2.8824134254750371e-14 1.8369701987210297e-13 1000 F 0 F 0.01 #
DXID-attrib $-1 -1 $-1 $157 $103 @18 ASM_EDGE_FROM_STEP @4 8061 #
point $-1 -1 $-1 3059.5848054822868 548.10224612015872 295.24439161443729 #
DXID-attrib $-1 -1 $-1 $160 $105 @18 ASM_EDGE_FROM_STEP @5 23260 #
point $-1 -1 $-1 3059.5848054822868 645.57125340836603 285.24439161443723 #
DXID-attrib $-1 -1 $-1 $166 $110 @18 ASM_EDGE_FROM_STEP @5 22283 #
coedge $-1 -1 $-1 $229 $171 $249 $260 reversed $66 $-1 #
edge $261 -1 $-1 $254 0 $215 0.028284271247462037 $209 $262 forward @7 unknown #
truecolor-adesk-attrib $-1 -1 $263 $-1 $172 -1030055270 #
straight-curve $-1 -1 $-1 3059.5848054822868 548.10224612015872 285.24439161443729 -1.123221907530147e-14 1000 -1.8369701987210297e-13 F 0 F 0.097469007288207343 #
DXID-attrib $-1 -1 $-1 $173 $117 @18 ASM_EDGE_FROM_STEP @5 18905 #
DXID-attrib $-1 -1 $-1 $175 $118 @18 ASM_EDGE_FROM_STEP @5 35860 #
fmesh-eye-attrib $-1 -1 $264 $177 $119 #
coedge $-1 -1 $-1 $179 $222 $265 $266 reversed $66 $-1 #
coedge $-1 -1 $-1 $193 $183 $179 $231 forward $194 $-1 #
edge $267 -1 $-1 $186 2.530707153306389 $268 3.1415926535897931 $230 $269 forward @7 unknown #
fmesh-eye-attrib $-1 -1 $270 $181 $126 #
truecolor-adesk-attrib $-1 -1 $271 $-1 $184 -1030055270 #
straight-curve $-1 -1 $-1 3010.4891033709564 678.39366165437877 285.24439161443723 -2.8824134254750371e-14 1.8369701987210297e-13 1000 F 0 F 0.01 #
DXID-attrib $-1 -1 $-1 $185 $130 @18 ASM_EDGE_FROM_STEP @5 11979 #
point $-1 -1 $-1 3010.4891033709564 678.39366165437877 285.24439161443723 #
fmesh-eye-attrib $-1 -1 $272 $188 $131 #
coedge $-1 -1 $-1 $265 $191 $193 $243 reversed $148 $-1 #
coedge $-1 -1 $-1 $191 $265 $206 $250 forward $148 $-1 #
truecolor-adesk-attrib $-1 -1 $273 $-1 $192 -1030055270 #
vertex $-1 -1 $-1 $208 $274 #
straight-curve $-1 -1 $-1 3009.5848054822868 675.52569648456904 295.24439161443723 1.123221907530147e-14 -1000 1.8369701987210297e-13 F 0 F 0.14742345036441049 #
edge $275 -1 $-1 $268 0 $196 0.01 $238 $276 forward @7 unknown #
DXID-attrib $-1 -1 $-1 $195 $136 @18 ASM_EDGE_FROM_STEP @4 5764 #
point $-1 -1 $-1 3009.5848054822868 675.52569648456904 295.24439161443723 #
DXID-attrib $-1 -1 $-1 $201 $89 @18 ASM_FACE_FROM_STEP @16 step-3M-341-1055 #
DXID-attrib $-1 -1 $-1 $203 $96 @18 ASM_FACE_FROM_STEP @16 step-3M-341-3048 #
fmesh-eye-attrib $-1 -1 $277 $204 $147 #
coedge $-1 -1 $-1 $207 $206 $222 $260 forward $97 $-1 #
edge $278 -1 $-1 $279 0 $241 0.01 $206 $280 forward @7 unknown #
truecolor-adesk-attrib $-1 -1 $281 $-1 $208 -1030055270 #
straight-curve $-1 -1 $-1 3009.5848054822868 528.1022461201585 295.24439161443729 1000 -2.2006424438827263e-13 2.8824134254750416e-14 F 0 F 0.029999999999999999 #
truecolor-adesk-attrib $-1 -1 $282 $-1 $210 -1030055270 #
vertex $-1 -1 $-1 $210 $283 #
straight-curve $-1 -1 $-1 3039.5848054822868 528.1022461201585 285.24439161443729 -2.8824134254750371e-14 1.8369701987210297e-13 1000 F 0 F 0.01 #
DXID-attrib $-1 -1 $-1 $211 $154 @18 ASM_EDGE_FROM_STEP @5 27425 #
point $-1 -1 $-1 3039.5848054822868 528.1022461201585 295.24439161443729 #
DXID-attrib $-1 -1 $-1 $214 $156 @18 ASM_EDGE_FROM_STEP @5 33547 #
point $-1 -1 $-1 3059.5848054822868 548.10224612015872 285.24439161443729 #
edge $284 -1 $-1 $279 0 $254 0.029999999999999999 $249 $285 forward @7 unknown #
truecolor-adesk-attrib $-1 -1 $286 $-1 $223 -1030055270 #
straight-curve $-1 -1 $-1 3039.5848054822868 528.1022461201585 285.24439161443729 707.10678118654437 707.10678118655085 -1.0951166764195925e-13 F 0 F 0.028284271247462037 #
DXID-attrib $-1 -1 $-1 $224 $172 @18 ASM_EDGE_FROM_STEP @5 19510 #
DXID-attrib $-1 -1 $-1 $228 $119 @18 ASM_FACE_FROM_STEP @17 step-3M-341-22048 #
coedge $-1 -1 $-1 $239 $238 $229 $266 forward $148 $-1 #
edge $287 -1 $-1 $268 0 $279 0.14742345036441049 $265 $288 forward @7 unknown #
truecolor-adesk-attrib $-1 -1 $289 $-1 $231 -1030055270 #
vertex $-1 -1 $-1 $243 $290 #
ellipse-curve $-1 -1 $-1 3014.5848054822864 675.52569648456904 285.24439161443723 -2.8824134254750371e-17 1.8369701987210297e-16 1 4.9999999999998934 5.6161095376506174e-17 1.4412067127374877e-16 1 F 2.530707153306389 F 3.1415926535897931 #
DXID-attrib $-1 -1 $-1 $232 $126 @18 ASM_FACE_FROM_STEP @17 step-3M-341-24192 #
DXID-attrib $-1 -1 $-1 $233 $184 @18 ASM_EDGE_FROM_STEP @5 13623 #
DXID-attrib $-1 -1 $-1 $237 $131 @18 ASM_FACE_FROM_STEP @17 step-3M-341-25451 #
DXID-attrib $-1 -1 $-1 $240 $192 @18 ASM_EDGE_FROM_STEP @4 1528 #
point $-1 -1 $-1 3009.5848054822868 528.1022461201585 295.24439161443729 #
truecolor-adesk-attrib $-1 -1 $291 $-1 $243 -1030055270 #
straight-curve $-1 -1 $-1 3009.5848054822868 675.52569648456904 285.24439161443723 -2.8824134254750371e-14 1.8369701987210297e-13 1000 F 0 F 0.01 #
DXID-attrib $-1 -1 $-1 $248 $147 @18 ASM_FACE_FROM_STEP @17 step-3M-341-42645 #
truecolor-adesk-attrib $-1 -1 $292 $-1 $250 -1030055270 #
vertex $-1 -1 $-1 $250 $293 #
straight-curve $-1 -1 $-1 3009.5848054822868 528.1022461201585 285.24439161443729 -2.8824134254750371e-14 1.8369701987210297e-13 1000 F 0 F 0.01 #
DXID-attrib $-1 -1 $-1 $251 $208 @18 ASM_EDGE_FROM_STEP @4 3697 #
DXID-attrib $-1 -1 $-1 $253 $210 @18 ASM_EDGE_FROM_STEP @5 10933 #
point $-1 -1 $-1 3039.5848054822868 528.1022461201585 285.24439161443729 #
truecolor-adesk-attrib $-1 -1 $294 $-1 $260 -1030055270 #
straight-curve $-1 -1 $-1 3009.5848054822868 528.1022461201585 285.24439161443729 1000 -2.2006424438827263e-13 2.8824134254750416e-14 F 0 F 0.029999999999999999 #
DXID-attrib $-1 -1 $-1 $261 $223 @18 ASM_EDGE_FROM_STEP @5 23471 #
truecolor-adesk-attrib $-1 -1 $295 $-1 $266 -1030055270 #
straight-curve $-1 -1 $-1 3009.5848054822868 675.52569648456904 285.24439161443723 1.123221907530147e-14 -1000 1.8369701987210297e-13 F 0 F 0.14742345036441049 #
DXID-attrib $-1 -1 $-1 $267 $231 @18 ASM_EDGE_FROM_STEP @5 34252 #
point $-1 -1 $-1 3009.5848054822868 675.52569648456904 285.24439161443723 #
DXID-attrib $-1 -1 $-1 $275 $243 @18 ASM_EDGE_FROM_STEP @5 14796 #
DXID-attrib $-1 -1 $-1 $278 $250 @18 ASM_EDGE_FROM_STEP @5 41304 #
point $-1 -1 $-1 3009.5848054822868 528.1022461201585 285.24439161443729 #
DXID-attrib $-1 -1 $-1 $284 $260 @18 ASM_EDGE_FROM_STEP @5 40617 #
DXID-attrib $-1 -1 $-1 $287 $266 @18 ASM_EDGE_FROM_STEP @5 13839 #
