700 418 1 0         
5 ZWCAD 12 ACIS 28.0 NT 24 Mon May 13 09:27:48 2024 
1 9.9999999999999995e-07 1e-10 
body $1 -1 $-1 $2 $-1 $-1 #
DXID-attrib $-1 -1 $-1 $-1 $0 @18 ASM_BODY_FROM_STEP @83 AD94CDF85D5623386AB21D883FBFC4A37FD662EF|:|456E16B12E0E24A8FF236C5EF0B2F44ACFCE15E0 #
lump $-1 -1 $-1 $-1 $3 $0 #
shell $-1 -1 $-1 $-1 $-1 $4 $-1 $2 #
face $5 -1 $-1 $6 $7 $3 $-1 $8 forward single #
color-adesk-attrib $-1 -1 $9 $-1 $4 250 #
face $10 -1 $-1 $11 $12 $3 $-1 $13 forward single #
loop $-1 -1 $-1 $-1 $14 $4 #
cone-surface $-1 -1 $-1 77.872630628163421 39.097145026950173 -8 1 0 0 0 -1.1664760761878536e-15 -6.3499999999999988 1 I I 0.70710678118654724 0.70710678118654779 6.3499999999999996 forward I I I I #
DXID-attrib $-1 -1 $-1 $5 $4 @18 ASM_FACE_FROM_STEP @17 step-1M-461-17240 #
color-adesk-attrib $-1 -1 $15 $-1 $6 250 #
face $16 -1 $-1 $17 $18 $3 $-1 $19 forward single #
loop $-1 -1 $-1 $-1 $20 $6 #
cone-surface $-1 -1 $-1 76.872630628163392 39.097145026950173 -8 -1 0 0 0 5.8783046359072745e-16 3.1999999999999891 1 I I 0 1 3.1999999999999895 forward I I I I #
coedge $-1 -1 $-1 $21 $22 $23 $24 reversed $7 $-1 #
DXID-attrib $-1 -1 $-1 $10 $6 @18 ASM_FACE_FROM_STEP @16 step-1M-461-5677 #
color-adesk-attrib $-1 -1 $25 $-1 $11 250 #
face $26 -1 $-1 $27 $28 $3 $-1 $29 forward single #
loop $-1 -1 $-1 $-1 $30 $11 #
cone-surface $-1 -1 $-1 121.87263062816339 39.097145026950173 -8 -1 0 0 0 1.1664760761878536e-15 6.3499999999999988 1 I I 0.70710678118654935 0.7071067811865458 6.3499999999999996 forward I I I I #
coedge $-1 -1 $-1 $31 $32 $33 $34 reversed $12 $-1 #
coedge $-1 -1 $-1 $35 $14 $36 $37 forward $7 $-1 #
coedge $-1 -1 $-1 $14 $35 $38 $39 reversed $7 $-1 #
coedge $-1 -1 $-1 $40 $40 $14 $24 forward $41 $-1 #
edge $42 -1 $-1 $43 -3.1415926535897931 $44 0 $14 $45 forward @7 unknown #
DXID-attrib $-1 -1 $-1 $16 $11 @18 ASM_FACE_FROM_STEP @17 step-1M-461-10912 #
color-adesk-attrib $-1 -1 $46 $-1 $17 7 #
face $47 -1 $-1 $48 $49 $3 $-1 $50 reversed single #
loop $-1 -1 $-1 $-1 $51 $17 #
cone-surface $-1 -1 $-1 121.87263062816339 39.097145026950173 -8 -1 0 0 0 1.1664760761878536e-15 6.3499999999999988 1 I I 0 1 6.3499999999999996 forward I I I I #
coedge $-1 -1 $-1 $52 $53 $54 $55 forward $18 $-1 #
coedge $-1 -1 $-1 $54 $20 $56 $57 forward $12 $-1 #
coedge $-1 -1 $-1 $20 $54 $58 $59 reversed $12 $-1 #
coedge $-1 -1 $-1 $60 $60 $20 $34 forward $61 $-1 #
edge $62 -1 $-1 $63 1.5707963267948997 $64 4.712388980384687 $20 $65 forward @7 unknown #
coedge $-1 -1 $-1 $22 $21 $66 $67 reversed $7 $-1 #
coedge $-1 -1 $-1 $68 $69 $21 $37 reversed $70 $-1 #
edge $71 -1 $-1 $43 -0.0014142135623731549 $72 -6.7341134841912415e-35 $21 $73 forward @7 unknown #
coedge $-1 -1 $-1 $69 $68 $22 $39 forward $70 $-1 #
edge $74 -1 $-1 $44 -0.0014142135623731549 $75 0 $22 $76 forward @7 unknown #
coedge $-1 -1 $-1 $23 $23 $68 $77 forward $41 $-1 #
loop $-1 -1 $-1 $-1 $40 $78 #
color-adesk-attrib $-1 -1 $79 $-1 $24 250 #
vertex $-1 -1 $-1 $24 $80 #
vertex $-1 -1 $-1 $24 $81 #
ellipse-curve $-1 -1 $-1 76.872630628163392 39.097145026950173 -8 -1 0 0 0 -9.8277905631574321e-16 -5.3499999999999579 1 F -3.1415926535897931 F 0 #
DXID-attrib $-1 -1 $-1 $26 $17 @18 ASM_FACE_FROM_STEP @16 step-1M-461-2354 #
color-adesk-attrib $-1 -1 $82 $-1 $27 7 #
face $83 -1 $-1 $78 $84 $3 $-1 $85 forward single #
loop $-1 -1 $-1 $-1 $86 $27 #
plane-surface $-1 -1 $-1 147.87263062816339 39.097145026950173 -9 1 0 0 0 -1.8369701987210297e-16 -1 forward_v I I I I #
coedge $-1 -1 $-1 $87 $88 $89 $90 reversed $28 $-1 #
coedge $-1 -1 $-1 $89 $30 $91 $92 forward $18 $-1 #
coedge $-1 -1 $-1 $30 $89 $93 $94 reversed $18 $-1 #
coedge $-1 -1 $-1 $32 $31 $30 $55 reversed $12 $-1 #
edge $95 -1 $-1 $96 0 $97 3.1415926535897931 $54 $98 forward @7 unknown #
coedge $-1 -1 $-1 $99 $100 $31 $57 reversed $101 $-1 #
edge $102 -1 $-1 $63 -0.071000000000000008 $97 -0.048149999999999998 $31 $103 forward @7 unknown #
coedge $-1 -1 $-1 $100 $104 $32 $59 forward $101 $-1 #
edge $105 -1 $-1 $64 -0.071000000000000008 $96 -0.048149999999999998 $32 $106 forward @7 unknown #
coedge $-1 -1 $-1 $33 $33 $107 $108 reversed $61 $-1 #
loop $-1 -1 $-1 $-1 $33 $109 #
color-adesk-attrib $-1 -1 $110 $-1 $34 250 #
vertex $-1 -1 $-1 $34 $111 #
vertex $-1 -1 $-1 $34 $112 #
ellipse-curve $-1 -1 $-1 147.87263062816339 39.097145026950166 -7.9999999999999991 0.70710678118654802 0.70710678118654702 -1.2989340843532393e-16 3.1999999999999877 -3.1999999999999922 2.8465849896022103e-15 0.70710678118654724 F 1.5707963267948997 F 4.712388980384687 #
coedge $-1 -1 $-1 $88 $87 $35 $67 forward $28 $-1 #
edge $113 -1 $-1 $75 1.224646799147353e-16 $72 3.1415926535897931 $35 $114 forward @7 unknown #
coedge $-1 -1 $-1 $38 $36 $40 $77 reversed $70 $-1 #
coedge $-1 -1 $-1 $36 $38 $115 $116 reversed $70 $-1 #
loop $-1 -1 $-1 $-1 $36 $117 #
truecolor-adesk-attrib $-1 -1 $118 $-1 $37 -1023410169 #
vertex $-1 -1 $-1 $37 $119 #
straight-curve $-1 -1 $-1 77.872630628163421 39.097145026950173 -1.6500000000000004 707.10678118654801 2.1648901405887327e-13 707.10678118654732 F -0.0014142135623731549 F -6.7341134841912415e-35 #
truecolor-adesk-attrib $-1 -1 $120 $-1 $39 -1023410169 #
vertex $-1 -1 $-1 $67 $121 #
straight-curve $-1 -1 $-1 77.872630628163421 39.097145026950173 -14.35 707.10678118654801 -1.2989340843532395e-13 -707.10678118654732 F -0.0014142135623731549 F 0 #
edge $122 -1 $-1 $44 0 $43 3.1415926535897931 $40 $123 forward @7 unknown #
face $124 -1 $-1 $125 $41 $3 $-1 $126 reversed single #
DXID-attrib $-1 -1 $-1 $42 $24 @18 ASM_EDGE_FROM_STEP @5 11150 #
point $-1 -1 $-1 76.872630628163392 39.097145026950173 -2.6500000000000421 #
point $-1 -1 $-1 76.872630628163392 39.097145026950173 -13.349999999999959 #
DXID-attrib $-1 -1 $-1 $47 $27 @18 ASM_FACE_FROM_STEP @16 step-1M-461-6293 #
color-adesk-attrib $-1 -1 $127 $-1 $48 250 #
loop $-1 -1 $-1 $-1 $128 $48 #
cone-surface $-1 -1 $-1 121.87263062816339 39.097145026950173 -8 -1 0 0 0 1.1664760761878536e-15 6.3499999999999988 1 I I 0 1 6.3499999999999996 forward I I I I #
coedge $-1 -1 $-1 $129 $130 $131 $132 reversed $49 $-1 #
coedge $-1 -1 $-1 $66 $51 $128 $133 forward $28 $-1 #
coedge $-1 -1 $-1 $51 $66 $134 $135 reversed $28 $-1 #
coedge $-1 -1 $-1 $53 $52 $51 $90 forward $18 $-1 #
edge $136 -1 $-1 $137 1.224646799147353e-16 $138 3.1415926535897931 $89 $139 forward @7 unknown #
coedge $-1 -1 $-1 $140 $141 $52 $92 reversed $142 $-1 #
edge $143 -1 $-1 $97 -0.004454772721475252 $137 -2.1347464950110946e-50 $52 $144 forward @7 unknown #
coedge $-1 -1 $-1 $141 $140 $53 $94 forward $142 $-1 #
edge $145 -1 $-1 $96 -0.004454772721475252 $138 0 $53 $146 forward @7 unknown #
color-adesk-attrib $-1 -1 $147 $-1 $55 250 #
vertex $-1 -1 $-1 $55 $148 #
vertex $-1 -1 $-1 $57 $149 #
ellipse-curve $-1 -1 $-1 125.02263062816337 39.097145026950173 -8 -1 0 0 0 5.8783046359072774e-16 3.1999999999999904 1 F 0 F 3.1415926535897931 #
coedge $-1 -1 $-1 $150 $56 $130 $151 forward $101 $-1 #
coedge $-1 -1 $-1 $56 $58 $140 $152 reversed $101 $-1 #
loop $-1 -1 $-1 $-1 $56 $153 #
color-adesk-attrib $-1 -1 $154 $-1 $57 250 #
straight-curve $-1 -1 $-1 76.872630628163392 39.097145026950173 -11.199999999999989 -1000 0 0 F -0.071000000000000008 F -0.048149999999999998 #
coedge $-1 -1 $-1 $58 $150 $155 $156 forward $101 $-1 #
color-adesk-attrib $-1 -1 $157 $-1 $59 250 #
straight-curve $-1 -1 $-1 76.872630628163392 39.097145026950173 -4.8000000000000105 -1000 0 0 F -0.071000000000000008 F -0.048149999999999998 #
coedge $-1 -1 $-1 $158 $131 $60 $108 forward $159 $-1 #
edge $160 -1 $-1 $63 -0.0066999999999999881 $64 -0.0003000000000000119 $107 $161 forward @7 unknown #
face $162 -1 $-1 $163 $61 $3 $-1 $164 reversed single #
DXID-attrib $-1 -1 $-1 $62 $34 @18 ASM_EDGE_FROM_STEP @4 6822 #
point $-1 -1 $-1 147.87263062816339 39.097145026950173 -11.199999999999989 #
point $-1 -1 $-1 147.87263062816339 39.097145026950173 -4.8000000000000114 #
truecolor-adesk-attrib $-1 -1 $165 $-1 $67 -1023410169 #
ellipse-curve $-1 -1 $-1 77.872630628163421 39.097145026950173 -8 1 0 0 0 -1.1664760761878536e-15 -6.3499999999999988 1 F 1.224646799147353e-16 F 3.1415926535897931 #
coedge $-1 -1 $-1 $128 $134 $69 $116 forward $84 $-1 #
edge $166 -1 $-1 $72 -3.1415926535897931 $75 1.224646799147353e-16 $115 $167 forward @7 unknown #
face $168 -1 $-1 $169 $70 $3 $-1 $170 forward single #
color-adesk-attrib $-1 -1 $171 $71 $37 7 #
point $-1 -1 $-1 77.872630628163421 39.097145026950173 -1.6500000000000004 #
color-adesk-attrib $-1 -1 $172 $74 $39 7 #
point $-1 -1 $-1 77.872630628163421 39.097145026950173 -14.35 #
truecolor-adesk-attrib $-1 -1 $173 $-1 $77 -1023410169 #
ellipse-curve $-1 -1 $-1 76.872630628163392 39.097145026950173 -8 -1 0 0 0 -9.8277905631574321e-16 -5.3499999999999579 1 F 0 F 3.1415926535897931 #
color-adesk-attrib $-1 -1 $174 $-1 $78 250 #
face $175 -1 $-1 $153 $142 $3 $-1 $176 forward single #
plane-surface $-1 -1 $-1 76.872630628163392 39.097145026950173 -8 1 0 0 0 -1.8369701987210297e-16 -1 forward_v I I I I #
DXID-attrib $-1 -1 $-1 $83 $48 @18 ASM_FACE_FROM_STEP @16 step-1M-461-9966 #
coedge $-1 -1 $-1 $177 $115 $87 $133 reversed $84 $-1 #
coedge $-1 -1 $-1 $178 $86 $179 $180 forward $49 $-1 #
coedge $-1 -1 $-1 $86 $181 $99 $151 reversed $49 $-1 #
coedge $-1 -1 $-1 $107 $182 $86 $132 forward $159 $-1 #
edge $183 -1 $-1 $184 -0.008499176494937144 $63 -0.0066999999999999881 $86 $185 forward @7 unknown #
edge $186 -1 $-1 $137 0 $75 0.043999999999999956 $87 $187 forward @7 unknown #
coedge $-1 -1 $-1 $115 $177 $88 $135 forward $84 $-1 #
edge $188 -1 $-1 $138 0 $72 0.043999999999999956 $88 $189 forward @7 unknown #
truecolor-adesk-attrib $-1 -1 $190 $-1 $90 -1023410169 #
vertex $-1 -1 $-1 $92 $191 #
vertex $-1 -1 $-1 $90 $192 #
ellipse-curve $-1 -1 $-1 121.87263062816339 39.097145026950173 -8 1 0 0 0 -1.1664760761878536e-15 -6.3499999999999988 1 F 1.224646799147353e-16 F 3.1415926535897931 #
coedge $-1 -1 $-1 $93 $91 $100 $152 forward $142 $-1 #
coedge $-1 -1 $-1 $91 $93 $177 $193 forward $142 $-1 #
loop $-1 -1 $-1 $-1 $91 $125 #
color-adesk-attrib $-1 -1 $194 $-1 $92 250 #
straight-curve $-1 -1 $-1 121.87263062816339 39.097145026950173 -14.35 -707.10678118654585 -4.3297802811774759e-14 -707.10678118654937 F -0.004454772721475252 F -2.1347464950110946e-50 #
color-adesk-attrib $-1 -1 $195 $-1 $94 250 #
straight-curve $-1 -1 $-1 121.87263062816339 39.097145026950173 -1.6500000000000004 -707.10678118654585 1.2989340843532433e-13 707.10678118654937 F -0.004454772721475252 F 0 #
DXID-attrib $-1 -1 $-1 $95 $55 @18 ASM_EDGE_FROM_STEP @4 8970 #
point $-1 -1 $-1 125.02263062816337 39.097145026950173 -4.8000000000000096 #
point $-1 -1 $-1 125.02263062816337 39.097145026950173 -11.19999999999999 #
coedge $-1 -1 $-1 $104 $99 $196 $197 forward $101 $-1 #
edge $198 -1 $-1 $63 -3.1415926535897931 $199 -1.4422466104282134 $130 $200 forward @7 unknown #
edge $201 -1 $-1 $97 -3.1415926535897931 $96 0 $140 $202 forward @7 unknown #
face $203 -1 $-1 $117 $101 $3 $-1 $204 forward single #
DXID-attrib $-1 -1 $-1 $102 $57 @18 ASM_EDGE_FROM_STEP @5 12331 #
coedge $-1 -1 $-1 $205 $206 $104 $156 reversed $207 $-1 #
edge $208 -1 $-1 $209 -0.063197265324913529 $64 0 $104 $210 forward @7 unknown #
DXID-attrib $-1 -1 $-1 $105 $59 @18 ASM_EDGE_FROM_STEP @4 2508 #
coedge $-1 -1 $-1 $211 $107 $206 $212 forward $159 $-1 #
loop $-1 -1 $-1 $-1 $213 $214 #
color-adesk-attrib $-1 -1 $215 $-1 $108 250 #
straight-curve $-1 -1 $-1 147.87263062816339 39.097145026950173 -4.5 0 1.8369701987210297e-13 1000 F -0.0066999999999999881 F -0.0003000000000000119 #
truecolor-adesk-attrib $-1 -1 $216 $-1 $109 -1027555136 #
face $217 -1 $-1 $218 $219 $3 $-1 $220 forward single #
plane-surface $-1 -1 $-1 147.87263062816339 39.097145026950173 -1.6500000000000004 -0.70710678118654891 -0.70710678118654613 1.2989340843532373e-16 -0.70710678118654613 0.70710678118654891 -1.2989340843532425e-16 forward_v I I I I #
color-adesk-attrib $-1 -1 $221 $113 $67 7 #
truecolor-adesk-attrib $-1 -1 $222 $-1 $116 -1023410169 #
ellipse-curve $-1 -1 $-1 77.872630628163421 39.097145026950173 -8 1 0 0 0 -1.1664760761878536e-15 -6.3499999999999988 1 F -3.1415926535897931 F 1.224646799147353e-16 #
color-adesk-attrib $-1 -1 $223 $-1 $117 7 #
face $224 -1 $-1 $225 $226 $3 $-1 $227 forward single #
cone-surface $-1 -1 $-1 77.872630628163421 39.097145026950173 -8 1 0 0 0 -1.1664760761878536e-15 -6.3499999999999988 1 I I 0.70710678118654724 0.70710678118654779 6.3499999999999996 forward I I I I #
DXID-attrib $-1 -1 $-1 $118 $37 @18 ASM_EDGE_FROM_STEP @5 18950 #
DXID-attrib $-1 -1 $-1 $120 $39 @18 ASM_EDGE_FROM_STEP @4 1099 #
color-adesk-attrib $-1 -1 $228 $122 $77 7 #
DXID-attrib $-1 -1 $-1 $124 $78 @18 ASM_FACE_FROM_STEP @16 step-1M-461-2959 #
color-adesk-attrib $-1 -1 $229 $-1 $125 250 #
cone-surface $-1 -1 $-1 121.87263062816339 39.097145026950173 -8 -1 0 0 0 1.1664760761878536e-15 6.3499999999999988 1 I I 0.70710678118654935 0.7071067811865458 6.3499999999999996 forward I I I I #
coedge $-1 -1 $-1 $134 $128 $141 $193 reversed $84 $-1 #
coedge $-1 -1 $-1 $181 $129 $230 $231 reversed $49 $-1 #
coedge $-1 -1 $-1 $232 $233 $129 $180 reversed $219 $-1 #
edge $234 -1 $-1 $184 1.5909893760825584 $235 3.0036963948503632 $129 $236 forward @7 unknown #
coedge $-1 -1 $-1 $130 $178 $237 $238 reversed $49 $-1 #
coedge $-1 -1 $-1 $131 $213 $232 $239 forward $159 $-1 #
truecolor-adesk-attrib $-1 -1 $240 $-1 $132 -1023409926 #
vertex $-1 -1 $-1 $132 $241 #
straight-curve $-1 -1 $-1 147.87263062816339 39.097145026950173 -4.5 0 1.8369701987210297e-13 1000 F -0.008499176494937144 F -0.0066999999999999881 #
truecolor-adesk-attrib $-1 -1 $242 $-1 $133 -1023409926 #
straight-curve $-1 -1 $-1 121.87263062816339 39.097145026950173 -14.35 -1000 0 0 F 0 F 0.043999999999999956 #
truecolor-adesk-attrib $-1 -1 $243 $-1 $135 -1023409926 #
straight-curve $-1 -1 $-1 121.87263062816339 39.097145026950173 -1.6500000000000004 -1000 0 0 F 0 F 0.043999999999999956 #
color-adesk-attrib $-1 -1 $244 $136 $90 7 #
point $-1 -1 $-1 121.87263062816339 39.097145026950173 -14.35 #
point $-1 -1 $-1 121.87263062816339 39.097145026950173 -1.6500000000000004 #
edge $245 -1 $-1 $138 -3.1415926535897931 $137 1.224646799147353e-16 $177 $246 forward @7 unknown #
DXID-attrib $-1 -1 $-1 $143 $92 @18 ASM_EDGE_FROM_STEP @5 17748 #
DXID-attrib $-1 -1 $-1 $145 $94 @18 ASM_EDGE_FROM_STEP @5 13696 #
coedge $-1 -1 $-1 $237 $247 $150 $197 reversed $226 $248 #
edge $249 -1 $-1 $199 9.9999977925977601e-07 $209 0.80339508916227853 $150 $250 forward @7 unknown #
truecolor-adesk-attrib $-1 -1 $251 $-1 $151 -1023409926 #
vertex $-1 -1 $-1 $238 $252 #
ellipse-curve $-1 -1 $-1 147.87263062816339 39.097145026950173 -8 -1 0 0 0 5.8783046359072745e-16 3.1999999999999886 1 F -3.1415926535897931 F -1.4422466104282134 #
color-adesk-attrib $-1 -1 $253 $-1 $152 250 #
ellipse-curve $-1 -1 $-1 125.02263062816337 39.097145026950173 -8 -1 0 0 0 5.8783046359072774e-16 3.1999999999999904 1 F -3.1415926535897931 F 0 #
color-adesk-attrib $-1 -1 $254 $-1 $153 250 #
cone-surface $-1 -1 $-1 76.872630628163392 39.097145026950173 -8 -1 0 0 0 5.8783046359072745e-16 3.1999999999999891 1 I I 0 1 3.1999999999999895 forward I I I I #
tcoedge-coedge $-1 -1 $-1 $206 $155 $247 $255 reversed $207 $256 1.9341689749966995e-16 0.04594428208246875 #
coedge $-1 -1 $-1 $155 $205 $158 $212 reversed $207 $-1 #
loop $-1 -1 $-1 $-1 $155 $257 #
truecolor-adesk-attrib $-1 -1 $258 $-1 $156 -1023410169 #
tvertex-vertex $-1 -1 $-1 $197 $259 1.8412729289196362e-11 #
ellipse-curve $-1 -1 $-1 147.87263062816339 39.097145026950173 -8 -1 0 0 0 5.8783046359072745e-16 3.1999999999999886 1 F -0.063197265324913529 F 0 #
coedge $-1 -1 $-1 $260 $158 $261 $262 reversed $159 $-1 #
edge $263 -1 $-1 $64 -0.0003000000000000119 $264 -0.00025380609020484281 $158 $265 forward @7 unknown #
coedge $-1 -1 $-1 $182 $260 $266 $267 forward $159 $-1 #
face $268 -1 $-1 $269 $159 $3 $-1 $270 reversed single #
DXID-attrib $-1 -1 $-1 $160 $108 @18 ASM_EDGE_FROM_STEP @5 18388 #
DXID-attrib $-1 -1 $-1 $162 $109 @18 ASM_FACE_FROM_STEP @17 step-1M-461-12596 #
truecolor-adesk-attrib $-1 -1 $271 $-1 $163 -1027555136 #
face $272 -1 $-1 $-1 $273 $3 $-1 $274 forward single #
loop $-1 -1 $-1 $-1 $232 $163 #
cone-surface $-1 -1 $-1 155.19829570319405 38.574449803110603 -8.8872296868721605 -0.98744972299915124 0.15639667172583932 -0.021980118789025439 0.62573786016092492 3.9507533623805511 -8.3329447442955975e-16 1 I I 0 1 4 forward I I I I #
DXID-attrib $-1 -1 $-1 $165 $67 @18 ASM_EDGE_FROM_STEP @5 16493 #
color-adesk-attrib $-1 -1 $275 $166 $116 7 #
DXID-attrib $-1 -1 $-1 $168 $117 @18 ASM_FACE_FROM_STEP @16 step-1M-461-9029 #
color-adesk-attrib $-1 -1 $276 $-1 $169 7 #
face $277 -1 $-1 $278 $279 $3 $-1 $280 forward single #
loop $-1 -1 $-1 $-1 $281 $169 #
spline-surface $-1 -1 $-1 forward { exactsur full nubs 1 3 open open none none 2 5 
	0 1 1 1 
	4.7123889803846897 3 5.1050880620834143 2 5.497787143782138 2 5.8904862254808616 2 6.2831853071795862 3 
	155.37263062816336 39.097145026950173 -4.5 
	147.29117385714682 40.232919707160136 -4.6424486531530187 
	155.28983031755453 38.507990203847932 -4.5000000000012896 
	147.21094359907491 39.662051758079166 -4.6424486531543092 
	155.20709242987064 37.919279542928592 -4.6171229568170897 
	147.13077485582556 39.091621509678511 -4.7559427697092831 
	155.05412498535381 36.83085961968596 -5.0679612505813232 
	146.98257612080712 38.037132717591987 -5.1927263287487397 
	154.98397053723642 36.331684783668393 -5.4014992126028547 
	146.91461959182234 37.553596888844162 -5.5158367390051941 
	154.86689432382522 35.498644239553045 -6.2345397567181982 
	146.80123111368493 36.746795944621063 -6.3226376832031308 
	154.82001862023247 35.165106277505842 -6.7337145927970825 
	146.7558430125741 36.42384282424733 -6.806004814508392 
	154.75665743012195 34.714267983792922 -7.8221345159170967 
	146.69449849210747 35.987353880648179 -7.8597823419388018 
	154.74019687200263 34.597145026951964 -8.410845176943516 
	146.67856512177704 35.873982059814857 -8.4296802205366852 
	154.74019687200263 34.597145026950173 -9.0000000000000071 
	146.67856512177295 35.873982059812811 -9.0000000000000071 
	0 
	0 
	0 
	0 
	0 
	3 5.1050880620834143 5.497787143782138 5.8904862254808616 
	0 
	F 1 F 0 F 1 F 0 } F 0 F 0.91007692051797096 F 4.7123889803846897 F 6.2831853071795862 #
DXID-attrib $-1 -1 $-1 $173 $77 @18 ASM_EDGE_FROM_STEP @4 8958 #
DXID-attrib $-1 -1 $-1 $175 $125 @18 ASM_FACE_FROM_STEP @16 step-1M-461-2405 #
coedge $-1 -1 $-1 $282 $283 $178 $231 forward $279 $-1 #
edge $284 -1 $-1 $285 -0.0032065285868119043 $235 -0.0031701619944035542 $178 $286 forward @7 unknown #
coedge $-1 -1 $-1 $287 $179 $182 $239 reversed $219 $-1 #
coedge $-1 -1 $-1 $179 $288 $282 $289 reversed $219 $-1 #
color-adesk-attrib $-1 -1 $290 $-1 $180 7 #
vertex $-1 -1 $-1 $180 $291 #
ellipse-curve $-1 -1 $-1 147.87263062816339 39.734721166024322 -9.0502951926973711 -1 0 0 0 4.011416665281244 -0.56376784647860001 0.98744972299914779 F 1.5909893760825584 F 3.0036963948503632 #
coedge $-1 -1 $-1 $281 $196 $181 $238 forward $226 $292 #
edge $293 -1 $-1 $199 -0.14371045410547487 $285 0 $181 $294 forward @7 unknown #
edge $295 -1 $-1 $296 -0.0032298977670885643 $184 0 $182 $297 forward @7 unknown #
color-adesk-attrib $-1 -1 $298 $183 $132 250 #
point $-1 -1 $-1 147.87263062816339 39.097145026950173 -12.999176494937144 #
color-adesk-attrib $-1 -1 $299 $186 $133 250 #
color-adesk-attrib $-1 -1 $300 $188 $135 250 #
DXID-attrib $-1 -1 $-1 $190 $90 @18 ASM_EDGE_FROM_STEP @4 5617 #
color-adesk-attrib $-1 -1 $301 $-1 $193 250 #
ellipse-curve $-1 -1 $-1 121.87263062816339 39.097145026950173 -8 1 0 0 0 -1.1664760761878536e-15 -6.3499999999999988 1 F -3.1415926535897931 F 1.224646799147353e-16 #
tcoedge-coedge $-1 -1 $-1 $196 $261 $205 $255 forward $226 $302 -0.045944282082468466 -1.9341689749966995e-16 #
pcurve $-1 -1 $-1 -2 $303 0 0 #
truecolor-adesk-attrib $-1 -1 $304 $-1 $197 -1023410169 #
intcurve-curve $-1 -1 $-1 reversed { surfintcur full nubs 3 open 9 
	-0.8033961688317427 3 -0.64773758645028079 2 -0.53477844935570484 2 -0.48276378203190645 2 -0.43271071198505751 2 
	-0.37190623881952412 2 -0.29215886571062066 2 -0.16606064535625148 2 0 3 
	147.87262095947696 38.895050913719651 -4.8063879431907353 
	148.33727364123308 38.77261664337022 -4.81413567361483 
	148.77340457450813 38.631002169847335 -4.8295029897130224 
	149.39844262626031 38.341268901511846 -4.8880709316133863 
	149.65322427871811 38.190922473726076 -4.9248735610526708 
	149.92459997987581 37.924470319025893 -5.0212728454260454 
	149.99755888413702 37.831729041935475 -5.0586868157880112 
	150.09951185007895 37.632562796786743 -5.1527790289723985 
	150.12717030955002 37.532482917107899 -5.206086602025632 
	150.14041959624413 37.307793003067665 -5.3431115619412601 
	150.11529532812492 37.190887318618245 -5.4260624215356419 
	150.01368050523453 36.943405062201045 -5.6263866341697897 
	149.92292717240841 36.817795609611466 -5.7482087352869549 
	149.66237805766579 36.540569629557808 -6.0586285369249016 
	149.4411690305389 36.377503263162438 -6.2872563660680409 
	148.76089739439672 36.063698689150527 -6.9072114844097925 
	148.31829078665544 35.965634149812381 -7.2641868404522638 
	147.8726225768539 35.923547923790252 -7.5897788074527179 
	0.00033413690500694668 
	cone 76.872630628163392 39.097145026950173 -8 -1 0 0 0 5.8783046359072745e-16 3.1999999999999891 1 I I 0 1 3.1999999999999895 forward I I I I 
	spline forward { ref 0 } I I I I 
	nullbs 
	nubs 3 open 9 
	-0.8033961688317427 3 -0.64773758645028079 3 -0.53477844935570484 3 -0.48276378203190645 3 -0.43271071198505751 3 
	-0.37190623881952412 3 -0.29215886571062066 3 -0.16606064535625148 3 0 3 
	0.90662967151639906 4.9979292744121011 
	0.84815921303589437 5.0107321668365588 
	0.79282258511005632 5.0289299286611309 
	0.74600917083946228 5.0561178083436404 
	0.71203736665395156 5.0758476515773481 
	0.67855735166802111 5.1026306293743264 
	0.65289880436728343 5.1404911112390588 
	0.6410837282593419 5.1579248524977581 
	0.63064907090263733 5.1781191047856234 
	0.62261363724975716 5.2017074997509374 
	0.61488123898253999 5.2244063200306439 
	0.60981833801967966 5.2489348000468672 
	0.60736235778629388 5.2753158583505613 
	0.60437883281857041 5.307363569913587 
	0.60543382150698644 5.3400119309747698 
	0.60894221920280012 5.3719243224319646 
	0.61354361586815376 5.4137786343903302 
	0.62241382220193653 5.4550213300083783 
	0.63283066361743068 5.4934152938798748 
	0.64930199192580906 5.554124635489587 
	0.67336334748721027 5.6212648600166295 
	0.70668131324232675 5.6937115874944491 
	0.7505582440959383 5.7891177739188588 
	0.80259323974350882 5.8771695704401203 
	0.85595437730595314 5.955141674125656 
	
	I I 
	0 
	3 -0.57376609683377755 -0.28913967820926562 -0.044360616913090067 
	0 
	} F 9.9999977925977601e-07 F 0.80339508916227853 #
color-adesk-attrib $-1 -1 $305 $198 $151 250 #
point $-1 -1 $-1 147.87263062816336 35.923548684109505 -7.5897729254181874 #
DXID-attrib $-1 -1 $-1 $201 $152 @18 ASM_EDGE_FROM_STEP @4 8227 #
DXID-attrib $-1 -1 $-1 $203 $153 @18 ASM_FACE_FROM_STEP @16 step-1M-461-2592 #
tedge-edge $306 -1 $-1 $264 -0.04594428208246875 $209 -1.9341689749966995e-16 $247 $307 forward @7 unknown 3.5156712187498144e-07 #
pcurve $-1 -1 $-1 0 forward { exppc nurbs 2 open 2 
	1.9341689749966995e-16 2 0.04594428208246875 2 
	-4.1936118955951791 -0.20209666087945441 1 
	-4.2222246076104781 -0.10165239742576211 0.99973615197143761 
	-4.2461939097951529 -2.8685674350671578e-16 1 
	0 
	plane 147.87263062816339 39.097145026950173 -9 -1 0 0 0 -1.8369701987210297e-16 -1 reverse_v I I I I 
	} 0 0 #
face $308 -1 $-1 $109 $207 $3 $-1 $309 reversed single #
color-adesk-attrib $-1 -1 $310 $208 $156 7 #
point $-1 -1 $-1 147.87263062816336 38.895048366071272 -4.8063881044067509 #
coedge $-1 -1 $-1 $213 $211 $311 $312 reversed $159 $-1 #
coedge $-1 -1 $-1 $247 $313 $211 $262 forward $226 $314 #
edge $315 -1 $-1 $316 -0.74936160720755718 $264 -9.9999998864339174e-07 $261 $317 forward @7 unknown #
truecolor-adesk-attrib $-1 -1 $318 $-1 $212 -1023410169 #
tvertex-vertex $-1 -1 $-1 $262 $319 4.2915446567183305e-14 #
straight-curve $-1 -1 $-1 147.87263062816339 39.097145026950173 -4.5 0 1.8369701987210297e-13 1000 F -0.0003000000000000119 F -0.00025380609020484281 #
coedge $-1 -1 $-1 $320 $321 $213 $267 reversed $322 $-1 #
edge $323 -1 $-1 $324 0 $296 0.0069893201941543474 $266 $325 forward @7 unknown #
color-adesk-attrib $-1 -1 $326 $-1 $214 250 #
face $327 -1 $-1 $257 $328 $3 $-1 $329 forward single #
plane-surface $-1 -1 $-1 155.37263062816336 39.097145026950173 -4.5 0 -1 1.8369701987210297e-16 -1 0 0 forward_v I I I I #
DXID-attrib $-1 -1 $-1 $217 $163 @18 ASM_FACE_FROM_STEP @16 step-1M-461-3999 #
truecolor-adesk-attrib $-1 -1 $330 $-1 $218 -1027555136 #
loop $-1 -1 $-1 $-1 $331 $218 #
spline-surface $-1 -1 $-1 forward { exactsur full nurbs 3 2 both open open none none 4 2 
	-4.9652495476351567e-06 3 0.0013329627314049427 2 0.0026659254628098854 2 0.0053318509256197709 3 
	0 2 1.0000049652495477 2 
	150.12722295058327 38.82093643788474 -12.961181414341475 1 
	150.5676013573329 38.751183964018153 -12.951378343441711 1 
	151.00805152051507 38.681876640039661 -12.941637834278129 1 
	151.88741423101564 38.54413061495179 -12.922278892935344 1 
	152.32632747864233 38.475695033251839 -12.912660899159786 1 
	153.64318381628405 38.271120445311119 -12.883909815811698 1 
	154.52124155999496 38.135705502792121 -12.864878486758947 1 
	155.39941121999118 38.001009679827682 -12.845948223368598 1 
	149.57726960771552 35.416084785960436 -12.482660721147537 0.75425515798555098 
	150.00834309579088 35.235249416746811 -12.457245966926271 0.74395631030297138 
	150.43479623154792 35.073443158924078 -12.434505580873966 0.73518481334805141 
	151.2900147653049 34.761050956405484 -12.390601719977731 0.71903773645425773 
	151.71714195327482 34.612107206457146 -12.369669041030843 0.7116795277048592 
	153.01478870540004 34.16981522774325 -12.307508957176179 0.69074125703670453 
	153.87075491846483 33.892065123927999 -12.268473725803663 0.6783083067693515 
	154.71432721387555 33.621014022820226 -12.230379977739922 0.66636588021668286 
	149.50148635917003 35.426875497414422 -9.0014845973932225 1.0000024403689314 
	149.94169587081328 35.357109599023637 -8.8657120450703992 1.0000025426416288 
	150.3830635551937 35.293147604122709 -8.7526902683472212 1.0000026297469713 
	151.26453577658137 35.170398645453226 -8.5457451004112812 1.000002790095504 
	151.70483341159473 35.111807784948056 -8.4525939166089525 1.0000028631661895 
	153.02643142168495 34.940961880049535 -8.1901796224448695 1.0000030710936674 
	153.90835938020069 34.833575255585899 -8.0376647408406399 1.0000031945590686 
	154.79099905476284 34.730200658218358 -7.8948923751126019 1.0000033131533246 
	0 
	0 
	2 0.0013329627314049427 0.0026659254628098854 
	0 
	0 
	0 
	0 
	F 1 F 0 F 1 F 0 } F -3.4632836560672569e-15 F 0.0053318509256197709 F 0 F 1.0000049652495477 #
DXID-attrib $-1 -1 $-1 $222 $116 @18 ASM_EDGE_FROM_STEP @4 3791 #
DXID-attrib $-1 -1 $-1 $224 $169 @18 ASM_FACE_FROM_STEP @16 step-1M-461-7549 #
color-adesk-attrib $-1 -1 $332 $-1 $225 7 #
face $333 -1 $-1 $214 $322 $3 $-1 $334 forward single #
loop $-1 -1 $-1 $-1 $230 $225 #
plane-surface $-1 -1 $-1 154.74019687200263 34.597145026950173 -12.206528586811906 -0.1564344650402312 -0.98768834059513777 -9.1680013707713471e-17 -0.98768834059513777 0.1564344650402312 -2.8736545033177153e-17 forward_v I I I I #
coedge $-1 -1 $-1 $335 $237 $283 $336 reversed $226 $337 #
coedge $-1 -1 $-1 $283 $230 $233 $289 forward $279 $-1 #
coedge $-1 -1 $-1 $230 $282 $281 $336 forward $279 $-1 #
color-adesk-attrib $-1 -1 $338 $-1 $231 7 #
vertex $-1 -1 $-1 $231 $339 #
straight-curve $-1 -1 $-1 147.87263062816339 35.684860662872332 -12.206528586811906 0 9.2822816610825879e-14 -1000 F -0.0032065285868119043 F -0.0031701619944035542 #
coedge $-1 -1 $-1 $288 $232 $321 $340 reversed $219 $-1 #
coedge $-1 -1 $-1 $233 $287 $341 $342 reversed $219 $-1 #
edge $343 -1 $-1 $235 -0.0068818109531823025 $344 -0.0052272888481821895 $282 $345 forward @7 unknown #
DXID-attrib $-1 -1 $-1 $234 $180 @18 ASM_EDGE_FROM_STEP @4 5076 #
point $-1 -1 $-1 147.87263062816339 35.684860662872332 -9.0363665924083509 #
pcurve $-1 -1 $-1 2 $346 0 0 #
color-adesk-attrib $-1 -1 $347 $-1 $238 7 #
intcurve-curve $-1 -1 $-1 forward { surfintcur full nubs 3 open 3 
	-0.1437114540866968 3 -0.071868281480031243 2 0 3 
	147.87263062816339 35.923551966233326 -7.5897634793786342 
	147.87263062816339 35.844950790485619 -7.8159787728100625 
	147.87263062816345 35.785273978786613 -8.0486931746717616 
	147.87263062816345 35.705209711026875 -8.5209948944095242 
	147.87263062816339 35.684860662873398 -8.7604390617332299 
	147.87263062816339 35.684860662872325 -9 
	5.0125272477503443e-08 
	plane 147.87263062816339 39.097145026950173 -9 1 0 0 0 -1.8369701987210297e-16 -1 forward_v I I I I 
	spline forward { ref 0 } I I I I 
	nullbs 
	nubs 3 open 3 
	-0.1437114540866968 3 -0.071868281480031243 3 0 3 
	0.85595346927185734 5.9551379854661048 
	0.85461302899855196 6.0097408139820878 
	0.85359531900852703 6.064381505981336 
	0.85291274258998051 6.11906230102508 
	0.85222992761397287 6.1737622067665905 
	0.85188290120607901 6.2284689753468188 
	0.85188290120589816 6.2831853071795845 
	
	I I 
	0 
	0 
	0 
	} F -0.14371045410547487 F 0 #
color-adesk-attrib $-1 -1 $348 $-1 $239 250 #
vertex $-1 -1 $-1 $340 $349 #
ellipse-curve $-1 -1 $-1 148.38293350713357 39.097145026950201 145.11048170211728 0 1 -1.8369701987210297e-16 -0.51030287897017246 -2.9044273023795714e-14 -158.10965819705442 1 F -0.0032298977670885643 F 0 #
DXID-attrib $-1 -1 $-1 $240 $132 @18 ASM_EDGE_FROM_STEP @5 15910 #
DXID-attrib $-1 -1 $-1 $242 $133 @18 ASM_EDGE_FROM_STEP @4 4257 #
DXID-attrib $-1 -1 $-1 $243 $135 @18 ASM_EDGE_FROM_STEP @5 11412 #
DXID-attrib $-1 -1 $-1 $245 $193 @18 ASM_EDGE_FROM_STEP @5 10337 #
pcurve $-1 -1 $-1 0 forward { exppc nubs 3 open 2 
	-0.045944282082468466 3 4.1659687245129712e-17 3 
	0.91007494912846054 4.9510318323085363 
	0.90891945571145882 4.9666615600762265 
	0.90777022511542271 4.9822939514775175 
	0.90662845483901799 4.9979295408166733 
	4.8862284184484569e-09 
	spline forward { ref 0 } I I I I 
	} 0 0 #
intcurve-curve $-1 -1 $-1 reversed { ref 1 } I I #
color-adesk-attrib $-1 -1 $350 $249 $197 7 #
DXID-attrib $-1 -1 $-1 $251 $151 @18 ASM_EDGE_FROM_STEP @5 16213 #
DXID-attrib $-1 -1 $351 $-1 $255 @18 ASM_EDGE_FROM_STEP @4 9674 #
ellipse-curve $-1 -1 $-1 147.87274234480981 40.140368887995535 -9.1780569806383561 0.99999999969782671 -6.1900983824915515e-06 2.3791369591186363e-05 -0.00011171664654696656 -1.2453205219248198 4.3716688762335361 1 F -0.04594428208246875 F -1.9341689749966995e-16 #
color-adesk-attrib $-1 -1 $352 $-1 $257 7 #
plane-surface $-1 -1 $-1 147.87263062816339 39.097145026950173 -9 1 0 0 0 -1.8369701987210297e-16 -1 forward_v I I I I #
DXID-attrib $-1 -1 $-1 $258 $156 @18 ASM_EDGE_FROM_STEP @5 12163 #
coedge $-1 -1 $-1 $353 $354 $260 $312 forward $328 $-1 #
edge $355 -1 $-1 $324 -0.0085000000000000006 $316 0 $260 $356 forward @7 unknown #
coedge $-1 -1 $-1 $261 $335 $353 $357 reversed $226 $358 #
pcurve $-1 -1 $-1 1 $359 0 0 #
truecolor-adesk-attrib $-1 -1 $360 $-1 $262 -1023409926 #
vertex $-1 -1 $-1 $357 $361 #
intcurve-curve $-1 -1 $-1 reversed { surfintcur full nubs 3 open 3 
	0 3 0.37463900425594931 2 0.74936160720755718 3 
	147.87262064128078 39.097145026950173 -4.7538066022366952 
	149.11977921970802 39.097145026950173 -4.6898642034294529 
	150.37323698877691 39.097145026950621 -4.6372307229999539 
	152.87015566991445 39.097145026950621 -4.5532579729524407 
	154.12338363857728 39.097145026950173 -4.5215934758649876 
	155.37263062816336 39.097145026950173 -4.5 
	3.4022468671852705e-07 
	spline forward { ref 0 } I I I I 
	plane 155.37263062816336 39.097145026950173 -4.5 0 -1 1.8369701987210297e-16 -1 0 0 forward_v I I I I 
	nubs 3 open 3 
	0 3 0.37463900425594931 3 0.74936160720755718 3 
	0.91007616097001331 4.9510321656872698 
	0.75874179032766453 4.909399936771055 
	0.60664305493833348 4.8687882932140578 
	0.45516774594438808 4.8291801055216492 
	0.30365863604313592 4.7895630794734076 
	0.15158778539952511 4.7506419877944461 
	0 4.7123889803846897 
	
	nullbs 
	I I 
	0 
	0 
	0 
	} F -0.74936160720755718 F -9.9999998864339174e-07 #
color-adesk-attrib $-1 -1 $362 $263 $212 7 #
point $-1 -1 $-1 147.87263062816334 39.097145026950173 -4.7538060902048427 #
coedge $-1 -1 $-1 $363 $266 $354 $364 reversed $322 $-1 #
coedge $-1 -1 $-1 $266 $363 $287 $340 forward $322 $-1 #
loop $-1 -1 $-1 $-1 $320 $278 #
truecolor-adesk-attrib $-1 -1 $365 $-1 $267 -1023409926 #
vertex $-1 -1 $-1 $364 $366 #
straight-curve $-1 -1 $-1 155.37263062816336 39.097145026950173 -13 -1000 0 0 F 0 F 0.0069893201941543474 #
DXID-attrib $-1 -1 $-1 $268 $214 @18 ASM_FACE_FROM_STEP @17 step-1M-461-13086 #
color-adesk-attrib $-1 -1 $367 $-1 $269 7 #
loop $-1 -1 $-1 $-1 $353 $269 #
plane-surface $-1 -1 $-1 155.37263062816336 39.097145026950173 -4.5 0.99026806874157036 -0.13917310096006574 2.5565683892723389e-17 -0.13917310096006574 -0.99026806874157047 1.8190929310232931e-16 forward_v I I I I #
DXID-attrib $-1 -1 $-1 $272 $218 @18 ASM_FACE_FROM_STEP @16 step-1M-461-9601 #
tcoedge-coedge $-1 -1 $-1 $368 $369 $370 $371 reversed $273 $372 0.6694127023002705 2.3511967213143823 #
DXID-attrib $-1 -1 $-1 $277 $225 @18 ASM_FACE_FROM_STEP @15 step-1M-461-321 #
color-adesk-attrib $-1 -1 $373 $-1 $278 7 #
plane-surface $-1 -1 $-1 155.37263062816336 39.097145026950173 -13 0 -0.13917310096006594 -0.99026806874157036 0 0.99026806874157047 -0.13917310096006594 forward_v I I I I #
tcoedge-coedge $-1 -1 $-1 $313 $281 $368 $374 forward $226 $375 -6.0000000000500684e-08 0.0054174677976652034 #
edge $376 -1 $-1 $344 0.0052990489352210584 $285 0.0069531713209261201 $281 $377 forward @7 unknown #
pcurve $-1 -1 $-1 0 forward { exppc nubs 1 open 2 
	-0.0069531713209261201 1 -0.0052990489352210584 1 
	0.85188290120589816 6.2831853071795845 
	0.6492245009097346 6.2831853071795845 
	6.2283511681471283e-15 
	spline forward { ref 0 } I I I I 
	} 0 0 #
DXID-attrib $-1 -1 $-1 $284 $231 @18 ASM_EDGE_FROM_STEP @3 889 #
point $-1 -1 $-1 147.87263062816339 35.684860662872332 -9.0000000000000018 #
edge $378 -1 $-1 $379 0.0051305597667718646 $296 0.0069016022896700811 $321 $380 forward @7 unknown #
coedge $-1 -1 $-1 $369 $368 $288 $342 forward $273 $381 #
edge $382 -1 $-1 $344 -3.4447339186845227e-13 $379 1.4329000680556787 $288 $383 forward @7 unknown #
color-adesk-attrib $-1 -1 $384 $-1 $289 7 #
tvertex-vertex $-1 -1 $-1 $336 $385 6.9784360130941011e-11 #
straight-curve $-1 -1 $-1 154.66807294761577 34.608568334348192 -8.8851035701737882 987.44972299915139 -156.39667172583933 21.980118789025436 F -0.0068818109531823025 F -0.0052272888481821895 #
intcurve-curve $-1 -1 $-1 forward { ref 4 } I I #
DXID-attrib $-1 -1 $-1 $293 $238 @18 ASM_EDGE_FROM_STEP @4 2748 #
DXID-attrib $-1 -1 $-1 $295 $239 @18 ASM_EDGE_FROM_STEP @4 9612 #
point $-1 -1 $-1 148.38331043400902 39.097145026950173 -13 #
DXID-attrib $-1 -1 $-1 $304 $197 @18 ASM_EDGE_FROM_STEP @5 14602 #
color-adesk-attrib $-1 -1 $-1 $306 $255 7 #
DXID-attrib $-1 -1 $-1 $308 $257 @18 ASM_FACE_FROM_STEP @16 step-1M-461-1533 #
coedge $-1 -1 $-1 $370 $311 $313 $357 forward $328 $-1 #
coedge $-1 -1 $-1 $311 $370 $320 $364 forward $328 $-1 #
truecolor-adesk-attrib $-1 -1 $386 $-1 $312 -1023410169 #
straight-curve $-1 -1 $-1 155.37263062816336 39.097145026950173 -4.5 0 1.8369701987210297e-13 1000 F -0.0085000000000000006 F 0 #
edge $387 -1 $-1 $316 0 $388 0.0059660254180864871 $313 $389 forward @7 unknown #
pcurve $-1 -1 $-1 0 reversed { exppc nubs 1 open 2 
	0 1 0.0059660254180864871 1 
	0 4.7123889803846897 
	0 6.0362414297587792 
	0 
	spline forward { ref 0 } I I I I 
	} 0 0 #
intcurve-curve $-1 -1 $-1 reversed { ref 6 } I I #
color-adesk-attrib $-1 -1 $390 $315 $262 250 #
point $-1 -1 $-1 155.37263062816336 39.097145026950173 -4.5 #
DXID-attrib $-1 -1 $-1 $318 $212 @18 ASM_EDGE_FROM_STEP @5 12453 #
coedge $-1 -1 $-1 $321 $320 $369 $391 forward $322 $-1 #
edge $392 -1 $-1 $393 -0.0010898838676270488 $324 0 $320 $394 forward @7 unknown #
color-adesk-attrib $-1 -1 $395 $323 $267 250 #
point $-1 -1 $-1 155.37263062816336 39.097145026950173 -13 #
DXID-attrib $-1 -1 $-1 $327 $269 @18 ASM_FACE_FROM_STEP @17 step-1M-461-18424 #
tcoedge-coedge $-1 -1 $-1 $341 $331 $335 $374 reversed $273 $396 -0.0054174677976652034 6.0000000000500684e-08 #
coedge $-1 -1 $-1 $331 $341 $363 $391 reversed $273 $397 #
tcoedge-coedge $-1 -1 $-1 $354 $353 $331 $371 forward $328 $398 -2.3511967213143823 -0.6694127023002705 #
tedge-edge $399 -1 $-1 $388 -2.3511967213143823 $393 -0.6694127023002705 $370 $400 forward @7 unknown 0.00010439222531623194 #
pcurve $-1 -1 $-1 0 forward { exppc nubs 3 open 2 
	0.6694127023002705 3 2.3511967213143823 3 
	0.0051527233434128213 0 
	0.0051874762085696172 0.37701621152086912 
	0.0052608016229341095 0.62482843924129849 
	0.0053000529806152118 0.99999993316281632 
	0.00010598263941349759 
	spline forward { ref 3 } I I I I 
	} 0 0 #
DXID-attrib $-1 -1 $-1 $333 $278 @18 ASM_FACE_FROM_STEP @17 step-1M-461-18198 #
tedge-edge $401 -1 $-1 $344 -6.0000000000500684e-08 $388 0.0054174677976652034 $335 $402 forward @7 unknown 9.9822906771405596e-05 #
pcurve $-1 -1 $-1 0 forward { exppc nubs 3 open 4 
	-6.0000000000500684e-08 3 0.0013543219494162903 3 0.0027087038988325811 3 0.0054174677976652034 3 
	0.6492245009097346 6.2831853071795845 
	0.59630770100064434 6.2533703632113129 
	0.54265493622354988 6.2281959624720775 
	0.48881857307851084 6.2051155636073112 
	0.43498220993347186 6.1820351647425449 
	0.38088963440770851 6.1611770957640513 
	0.32664996204257668 6.1415857121678883 
	0.21817061731231124 6.1024029449755623 
	0.1091680129081644 6.0682327769450728 
	0 6.0362414297587792 
	0 
	spline forward { ref 0 } I I I I 
	} 0 0 #
color-adesk-attrib $-1 -1 $403 $-1 $336 7 #
straight-curve $-1 -1 $-1 154.74019687200263 34.597145026950173 -9 -987.68834059513779 156.4344650402312 -2.3969297671453914e-14 F 0.0052990489352210584 F 0.0069531713209261201 #
color-adesk-attrib $-1 -1 $404 $-1 $340 7 #
vertex $-1 -1 $-1 $391 $405 #
straight-curve $-1 -1 $-1 155.19829570319405 38.017757399270337 -12.848301961838441 -987.44972299915139 156.39667172583933 -21.98011878902544 F 0.0051305597667718646 F 0.0069016022896700811 #
pcurve $-1 -1 $-1 0 forward { exppc nubs 1 open 2 
	-3.4446526035215858e-13 1 1.4329000680556787 1 
	0 0.99999999995887101 
	3.6226078101462116e-16 1.2722242129415558e-14 
	2.0745221015230287e-14 
	spline forward { ref 3 } I I I I 
	} 0 0 #
truecolor-adesk-attrib $-1 -1 $406 $-1 $342 -1027555136 #
ellipse-curve $-1 -1 $-1 150.13212588266458 39.376852274724222 -9 0.98744972299915112 -0.15639667172584054 0.021980118789025702 -0.62573786016092969 -3.9507533623805502 7.2747634239497432e-16 1 F -3.4447339186845227e-13 F 1.4329000680556787 #
DXID-attrib $-1 -1 $-1 $343 $289 @18 ASM_EDGE_FROM_STEP @4 6153 #
point $-1 -1 $-1 149.50638802244168 35.426098912353481 -9.0000000000000018 #
color-adesk-attrib $-1 -1 $407 $355 $312 7 #
color-adesk-attrib $-1 -1 $408 $-1 $357 7 #
tvertex-vertex $-1 -1 $-1 $374 $409 1.077710195936628e-07 #
intcurve-curve $-1 -1 $-1 forward { exactcur full nubs 3 open 5 
	0 3 0.0017697234341950275 2 0.0035394468683900512 2 0.0053091703025850744 2 0.0059660254180864871 3 
	155.37263062816336 39.097145026950173 -4.5 
	155.28983031755689 38.507990203847591 -4.500000000001247 
	155.20709242987303 37.919279542928251 -4.6171229568170498 
	155.0541249853562 36.830859619685597 -5.0679612505812868 
	154.9839705372388 36.331684783668024 -5.4014992126028201 
	154.86689432382761 35.498644239552675 -6.2345397567181724 
	154.82001862023489 35.165106277505473 -6.7337145927970612 
	154.77657937378689 34.856019978548503 -7.479914927683466 
	154.76691745995842 34.787271889431963 -7.6880357912706465 
	154.75941571398823 34.733894193306107 -7.9000344474186353 
	0 
	null_surface 
	null_surface 
	nullbs 
	nullbs 
	I I 
	0 
	2 0.0017697234341950275 0.0053091703025850744 
	1 0.0035394468683900512 
	F 1 F 0 } F 0 F 0.0059660254180864871 #
DXID-attrib $-1 -1 $-1 $360 $262 @18 ASM_EDGE_FROM_STEP @4 2700 #
edge $410 -1 $-1 $393 0 $379 0.0051527208949185424 $363 $411 forward @7 unknown #
color-adesk-attrib $-1 -1 $412 $-1 $364 7 #
tvertex-vertex $-1 -1 $-1 $364 $413 2.1445576685135164e-09 #
straight-curve $-1 -1 $-1 155.37263062816336 39.097145026950173 -13 137.8445374916289 980.81484846398916 -137.84453749162907 F -0.0010898838676270488 F 0 #
DXID-attrib $-1 -1 $-1 $365 $267 @18 ASM_EDGE_FROM_STEP @5 12769 #
pcurve $-1 -1 $-1 0 reversed { exppc nubs 3 open 4 
	-6.0000000000500684e-08 3 0.0013543219494162903 3 0.0027087038988325811 3 0.0054174677976652034 3 
	0 0.99999999996221822 
	0.00043217552966843501 0.99999980693292223 
	0.00087003857460844747 0.99999246193978075 
	0.0013095441783959286 0.99999623096989043 
	0.0017490497821834098 1 
	0.0021906499194285617 0.99999771330782083 
	0.0026334430143313751 0.99999847553854726 
	0.0035190292041370154 1 
	0.004408936436359227 0.99999622401977861 
	0.0053000529806152084 0.99999993316281599 
	0 
	spline forward { ref 3 } I I I I 
	} 0 0 #
pcurve $-1 -1 $-1 -1 $414 0 0 #
pcurve $-1 -1 $-1 0 forward { exppc nurbs 2 open 3 
	-2.3511967213143823 2 -1.5103047118073265 2 -0.6694127023002705 2 
	4.4061312056121267 3.4000343945371632 1 
	4.8469029769206573 5.1336052158176688 0.9129069864020406 
	3.848986360682475 6.6184072382929191 1 
	2.8510697444442936 8.1032092607681694 0.9129069864020416 
	1.0794797034822619 8.3497654623018569 1 
	0 
	plane 155.37263062816336 39.097145026950173 -4.5 0.99026806874157036 -0.13917310096006574 2.5565683892723389e-17 -0.13917310096006574 -0.99026806874157047 1.8190929310232931e-16 forward_v I I I I 
	} 0 0 #
DXID-attrib $-1 -1 $415 $-1 $371 @18 ASM_EDGE_FROM_STEP @5 16125 #
ellipse-curve $-1 -1 $-1 155.29898961862321 38.573162192923107 -8.8870039156736791 0.99026806964406189 -0.13917309453850521 4.505315320010883e-09 0.28212547015921102 2.0074270110633137 -3.4497300806025208 0.99970518916280815 F -2.3511967213143823 F -0.6694127023002705 #
color-adesk-attrib $-1 -1 $416 $-1 $374 7 #
intcurve-curve $-1 -1 $-1 forward { exactcur full nubs 3 open 4 
	-6.0000000000500684e-08 3 0.0013543219494162903 2 0.0027087038988325811 2 0.0054174677976652034 3 
	149.50638802244168 35.426098912353481 -9.0000000000000018 
	149.93298377670996 35.358532782569412 -8.8685937661938681 
	150.36629339533158 35.295582530968105 -8.757034554483786 
	151.23657282728013 35.174193863894374 -8.5519770356443452 
	151.67415553960234 35.115858487113272 -8.4590177605725714 
	152.99117210655908 34.945347276360714 -8.1966315400171457 
	153.87433676707823 34.837659946137045 -8.0434634311916753 
	154.75941571398823 34.733894193306107 -7.9000344474186353 
	0 
	null_surface 
	null_surface 
	nullbs 
	nullbs 
	I I 
	0 
	2 0.0013543219494162903 0.0027087038988325811 
	0 
	F 1 F 0 } F -6.0000000000500684e-08 F 0.0054174677976652034 #
DXID-attrib $-1 -1 $-1 $376 $336 @18 ASM_EDGE_FROM_STEP @4 7369 #
DXID-attrib $-1 -1 $-1 $378 $340 @18 ASM_EDGE_FROM_STEP @4 3202 #
point $-1 -1 $-1 150.13212588266458 38.820159870883955 -12.961072274966281 #
DXID-attrib $-1 -1 $-1 $382 $342 @18 ASM_EDGE_FROM_STEP @4 8971 #
DXID-attrib $-1 -1 $-1 $386 $312 @18 ASM_EDGE_FROM_STEP @5 12103 #
DXID-attrib $-1 -1 $-1 $387 $357 @18 ASM_EDGE_FROM_STEP @5 18408 #
point $-1 -1 $-1 154.75941569833901 34.733894090923805 -7.9000344210867093 #
color-adesk-attrib $-1 -1 $417 $-1 $391 7 #
intcurve-curve $-1 -1 $-1 forward { parcur summary 6 0 0.002089911034162732 0.0024867968091532092 0.0038197585478789986 0.0045401596843792557 0.0051527208949185424 2.8977654976083742e-09 OPEN 
	spline forward { ref 3 } I I I I 
	null_surface 
	nubs 3 open 4 
	0 3 0.002089911034162732 2 0.0045401596843792557 2 0.0051527208949185424 3 
	0.0051527233434128222 0 
	0.004456085938111135 0 
	0.0037594485760946879 0 
	0.0022460616642795308 3.8502019236040098e-07 
	0.0014293108600454622 0 
	0.00040837430599451052 0 
	0.00020418712986162426 3.7978411503766929e-12 
	3.7033997770009158e-16 1.2559185974853079e-14 
	
	nullbs 
	I I 
	0 
	4 0.002089911034162732 0.0024867968091532092 0.0038197585478789986 0.0045401596843792557 
	0 
	surf1 } F 0 F 0.0051527208949185424 #
DXID-attrib $-1 -1 $-1 $392 $364 @18 ASM_EDGE_FROM_STEP @5 18907 #
point $-1 -1 $-1 155.22239608852033 38.028170746754519 -12.849765462385907 #
intcurve-curve $-1 -1 $-1 forward { ref 16 } I I #
color-adesk-attrib $-1 -1 $-1 $399 $371 7 #
DXID-attrib $-1 -1 $-1 $401 $374 @18 ASM_EDGE_FROM_STEP @5 12045 #
DXID-attrib $-1 -1 $-1 $410 $391 @18 ASM_EDGE_FROM_STEP @4 2287 #
