700 406 1 0         
5 ZWCAD 12 ACIS 28.0 NT 24 Mon May 13 09:34:24 2024 
1 9.9999999999999995e-07 1e-10 
body $1 -1 $-1 $2 $-1 $-1 #
DXID-attrib $-1 -1 $-1 $-1 $0 @18 ASM_BODY_FROM_STEP @83 BC61172642075F564100B738CC22DCA82ECDD7B9|:|141FA5BACB0EF306972F07EAE8CE77B569221E6A #
lump $-1 -1 $-1 $-1 $3 $0 #
shell $-1 -1 $-1 $-1 $-1 $4 $-1 $2 #
face $5 -1 $-1 $6 $7 $3 $-1 $8 forward single #
truecolor-adesk-attrib $-1 -1 $9 $-1 $4 -1056964608 #
face $10 -1 $-1 $11 $12 $3 $-1 $13 forward single #
loop $-1 -1 $-1 $14 $15 $4 #
cone-surface $-1 -1 $-1 -757.06902253162912 554.29909508983894 -80.001548590984939 -7.1028886336835918e-17 -1 -8.457913650082283e-17 -3.4532053062038019 5.5111451540621591e-16 -3.6159885388653978 1 I I 0 1 5 forward I I I I #
DXID-attrib $-1 -1 $-1 $5 $4 @18 ASM_FACE_FROM_STEP @17 step-2M-555-30143 #
truecolor-adesk-attrib $-1 -1 $16 $-1 $6 -1056964608 #
face $17 -1 $-1 $18 $19 $3 $-1 $20 forward single #
loop $-1 -1 $-1 $-1 $21 $6 #
cone-surface $-1 -1 $-1 -757.06902253162912 312.06609508983513 -80.001548590984953 7.1028886336835918e-17 1 8.457913650082283e-17 3.4532053062006614 -5.5111451540571469e-16 3.6159885388621089 1 I I 0.70710678118654757 0.70710678118654757 4.9999999999954525 forward I I I I #
loop $-1 -1 $-1 $22 $23 $4 #
coedge $-1 -1 $-1 $24 $25 $26 $27 forward $7 $-1 #
DXID-attrib $-1 -1 $-1 $10 $6 @18 ASM_FACE_FROM_STEP @16 step-2M-555-6249 #
truecolor-adesk-attrib $-1 -1 $28 $-1 $11 -1056964608 #
face $29 -1 $-1 $30 $31 $3 $-1 $32 forward single #
loop $-1 -1 $-1 $-1 $33 $11 #
cone-surface $-1 -1 $-1 -757.06902253162912 554.29909508983894 -80.001548590984939 -7.1028886336835918e-17 -1 -8.457913650082283e-17 -8.4603530001993139 1.3502305627452288e-15 -8.8591719202202235 1 I I 0 1 12.25 forward I I I I #
coedge $-1 -1 $-1 $34 $35 $36 $37 forward $12 $-1 #
loop $-1 -1 $-1 $-1 $38 $4 #
coedge $-1 -1 $-1 $39 $40 $41 $42 forward $14 $-1 #
coedge $-1 -1 $-1 $43 $15 $44 $45 forward $7 $-1 #
coedge $-1 -1 $-1 $15 $43 $46 $47 reversed $7 $-1 #
coedge $-1 -1 $-1 $48 $48 $15 $27 reversed $49 $-1 #
edge $50 -1 $-1 $51 0 $52 3.1415926535897931 $15 $53 forward @7 unknown #
DXID-attrib $-1 -1 $-1 $17 $11 @18 ASM_FACE_FROM_STEP @17 step-2M-555-13445 #
truecolor-adesk-attrib $-1 -1 $54 $-1 $18 -1056964608 #
face $55 -1 $-1 $56 $57 $3 $-1 $58 forward single #
loop $-1 -1 $-1 $59 $44 $18 #
cone-surface $-1 -1 $-1 -757.06902253162912 554.29909508983894 -80.001548590984939 -7.1028886336835918e-17 -1 -8.457913650082283e-17 -3.4532053062038019 5.5111451540621591e-16 -3.6159885388653978 1 I I 0 1 5 forward I I I I #
coedge $-1 -1 $-1 $60 $61 $62 $63 forward $19 $-1 #
coedge $-1 -1 $-1 $64 $21 $65 $66 forward $12 $-1 #
coedge $-1 -1 $-1 $21 $64 $67 $68 reversed $12 $-1 #
coedge $-1 -1 $-1 $69 $69 $21 $37 reversed $70 $-1 #
edge $71 -1 $-1 $72 0 $73 3.1415926535897931 $21 $74 forward @7 unknown #
coedge $-1 -1 $-1 $75 $76 $77 $78 forward $22 $-1 #
coedge $-1 -1 $-1 $79 $23 $80 $81 forward $14 $-1 #
coedge $-1 -1 $-1 $23 $79 $82 $83 forward $14 $-1 #
coedge $-1 -1 $-1 $84 $84 $23 $42 reversed $85 $-1 #
edge $86 -1 $-1 $87 -0.64350110879330757 $88 0.64350110879330313 $23 $89 forward @7 unknown #
coedge $-1 -1 $-1 $25 $24 $64 $90 forward $7 $-1 #
coedge $-1 -1 $-1 $91 $92 $24 $45 reversed $31 $-1 #
edge $93 -1 $-1 $52 0.021999999999999992 $94 0.24223300000000003 $24 $95 forward @7 unknown #
coedge $-1 -1 $-1 $92 $91 $25 $47 forward $31 $-1 #
edge $96 -1 $-1 $51 0.021999999999999992 $97 0.24223300000000003 $25 $98 forward @7 unknown #
coedge $-1 -1 $-1 $26 $26 $91 $99 reversed $49 $-1 #
loop $-1 -1 $-1 $-1 $26 $100 #
truecolor-adesk-attrib $-1 -1 $101 $-1 $27 -1056964608 #
vertex $-1 -1 $-1 $27 $102 #
vertex $-1 -1 $-1 $27 $103 #
ellipse-curve $-1 -1 $-1 -757.06902253162912 532.29909508983894 -80.001548590984939 -7.1028886336835918e-17 -1 -8.457913650082283e-17 -3.4532053062038019 5.5111451540621591e-16 -3.6159885388653978 1 F 0 F 3.1415926535897931 #
DXID-attrib $-1 -1 $-1 $29 $18 @18 ASM_FACE_FROM_STEP @16 step-2M-555-1001 #
truecolor-adesk-attrib $-1 -1 $104 $-1 $30 -1056964608 #
face $105 -1 $-1 $106 $107 $3 $-1 $108 forward single #
loop $-1 -1 $-1 $-1 $109 $30 #
plane-surface $-1 -1 $-1 -753.1621667094754 339.69909508983892 -75.910524564545653 0.99973498107412695 -7.2957160798845628e-17 0.023021025535697126 0.023021025535697071 8.2921563622783719e-17 -0.99973498107412717 forward_v I I I I #
loop $-1 -1 $-1 $110 $111 $18 #
coedge $-1 -1 $-1 $112 $33 $113 $114 forward $19 $-1 #
coedge $-1 -1 $-1 $33 $112 $115 $116 reversed $19 $-1 #
coedge $-1 -1 $-1 $117 $117 $33 $63 reversed $118 $-1 #
edge $119 -1 $-1 $120 0 $121 3.1415926535897931 $33 $122 forward @7 unknown #
coedge $-1 -1 $-1 $35 $34 $43 $90 reversed $12 $-1 #
coedge $-1 -1 $-1 $123 $124 $34 $66 reversed $125 $-1 #
edge $126 -1 $-1 $73 -0.0010847018023347722 $97 5.3775666709919304e-15 $34 $127 forward @7 unknown #
coedge $-1 -1 $-1 $124 $123 $35 $68 forward $125 $-1 #
edge $128 -1 $-1 $72 -0.0010847018023347722 $94 5.3775666709919304e-15 $35 $129 forward @7 unknown #
coedge $-1 -1 $-1 $36 $36 $123 $130 reversed $70 $-1 #
loop $-1 -1 $-1 $-1 $36 $131 #
truecolor-adesk-attrib $-1 -1 $132 $-1 $37 -1056964608 #
vertex $-1 -1 $-1 $37 $133 #
vertex $-1 -1 $-1 $37 $134 #
ellipse-curve $-1 -1 $-1 -757.06902253162912 311.29909508983894 -80.001548590984953 7.1028886336835918e-17 1 8.457913650082283e-17 2.9234836122316312 -4.6657354874282142e-16 3.0612958970029145 1 F 0 F 3.1415926535897931 #
coedge $-1 -1 $-1 $135 $38 $109 $136 forward $22 $-1 #
coedge $-1 -1 $-1 $38 $135 $137 $138 forward $22 $-1 #
coedge $-1 -1 $-1 $139 $139 $38 $78 reversed $107 $-1 #
edge $140 -1 $-1 $141 2.4980915447964933 $142 3.785093762383088 $38 $143 forward @7 unknown #
coedge $-1 -1 $-1 $40 $39 $144 $145 forward $14 $-1 #
coedge $-1 -1 $-1 $146 $147 $39 $81 reversed $148 $-1 #
edge $149 -1 $-1 $88 0.21460000000000001 $150 0.221 $39 $151 forward @7 unknown #
coedge $-1 -1 $-1 $147 $146 $40 $83 reversed $148 $-1 #
edge $152 -1 $-1 $153 -0.221 $87 -0.21460000000000001 $40 $154 forward @7 unknown #
coedge $-1 -1 $-1 $41 $41 $146 $155 reversed $85 $-1 #
loop $-1 -1 $-1 $-1 $41 $156 #
truecolor-adesk-attrib $-1 -1 $157 $-1 $42 -1056964608 #
vertex $-1 -1 $-1 $42 $158 #
vertex $-1 -1 $-1 $42 $159 #
ellipse-curve $-1 -1 $-1 -757.06902253162912 335.69909508983926 -80.001548590985252 -0.016278323266162131 0.70710678118654557 0.70691938450692215 0.1151051276784254 4.999999999999722 -4.9986749053703292 0.70710678118657078 F -0.64350110879330757 F 0.64350110879330313 #
edge $160 -1 $-1 $94 -3.1415926535897931 $97 -1.2246467991473532e-16 $43 $161 forward @7 unknown #
coedge $-1 -1 $-1 $46 $44 $48 $99 forward $31 $-1 #
coedge $-1 -1 $-1 $44 $46 $124 $162 forward $31 $-1 #
truecolor-adesk-attrib $-1 -1 $163 $-1 $45 -1056964608 #
vertex $-1 -1 $-1 $45 $164 #
straight-curve $-1 -1 $-1 -753.6158172254253 554.29909508983894 -76.38556005211953 -7.102888633683592e-14 -1000 -8.4579136500822831e-14 F 0.021999999999999992 F 0.24223300000000003 #
truecolor-adesk-attrib $-1 -1 $165 $-1 $47 -1056964608 #
vertex $-1 -1 $-1 $90 $166 #
straight-curve $-1 -1 $-1 -760.52222783783293 554.29909508983894 -83.617537129850334 -7.102888633683592e-14 -1000 -8.4579136500822831e-14 F 0.021999999999999992 F 0.24223300000000003 #
edge $167 -1 $-1 $52 -3.1415926535897931 $51 0 $91 $168 forward @7 unknown #
face $169 -1 $-1 $131 $170 $3 $-1 $171 reversed single #
DXID-attrib $-1 -1 $-1 $50 $27 @18 ASM_EDGE_FROM_STEP @4 9685 #
point $-1 -1 $-1 -760.52222783783293 532.29909508983894 -83.617537129850334 #
point $-1 -1 $-1 -753.6158172254253 532.29909508983894 -76.38556005211953 #
DXID-attrib $-1 -1 $-1 $55 $30 @18 ASM_FACE_FROM_STEP @17 step-2M-555-12486 #
truecolor-adesk-attrib $-1 -1 $172 $-1 $56 -1056964608 #
face $173 -1 $-1 $174 $175 $3 $-1 $176 forward single #
loop $-1 -1 $-1 $-1 $77 $56 #
plane-surface $-1 -1 $-1 -753.1621667094754 333.29909508983894 -75.910524564545653 0.70691938450692027 0.70710678118654724 0.016278323266159744 0.56390606515137687 -0.57735026918962618 0.59048845573148812 forward_v I I I I #
coedge $-1 -1 $-1 $177 $178 $75 $136 reversed $57 $-1 #
loop $-1 -1 $-1 $-1 $179 $18 #
coedge $-1 -1 $-1 $180 $181 $182 $183 forward $59 $-1 #
coedge $-1 -1 $-1 $61 $60 $184 $185 forward $19 $-1 #
coedge $-1 -1 $-1 $186 $187 $60 $114 reversed $188 $-1 #
edge $189 -1 $-1 $121 0 $190 0.021999999999999992 $60 $191 forward @7 unknown #
coedge $-1 -1 $-1 $187 $186 $61 $116 forward $188 $-1 #
edge $192 -1 $-1 $120 0 $193 0.021999999999999992 $61 $194 forward @7 unknown #
coedge $-1 -1 $-1 $62 $62 $186 $195 reversed $118 $-1 #
loop $-1 -1 $-1 $-1 $62 $196 #
truecolor-adesk-attrib $-1 -1 $197 $-1 $63 -1056964608 #
vertex $-1 -1 $-1 $63 $198 #
vertex $-1 -1 $-1 $63 $199 #
ellipse-curve $-1 -1 $-1 -757.06902253162912 554.29909508983894 -80.001548590984939 -7.1028886336835918e-17 -1 -8.457913650082283e-17 -8.4603530001993139 1.3502305627452288e-15 -8.8591719202202235 1 F 0 F 3.1415926535897931 #
coedge $-1 -1 $-1 $67 $65 $69 $130 forward $125 $-1 #
coedge $-1 -1 $-1 $65 $67 $92 $162 reversed $125 $-1 #
loop $-1 -1 $-1 $-1 $65 $200 #
truecolor-adesk-attrib $-1 -1 $201 $-1 $66 -1056964608 #
straight-curve $-1 -1 $-1 -760.52222783782975 312.06609508983513 -83.617537129847065 -488.35697776921518 707.10678118654766 -511.3780033049116 F -0.0010847018023347722 F 5.3775666709919304e-15 #
truecolor-adesk-attrib $-1 -1 $202 $-1 $68 -1056964608 #
straight-curve $-1 -1 $-1 -753.61581722542849 312.06609508983513 -76.385560052122841 488.35697776921535 707.10678118654744 511.37800330491166 F -0.0010847018023347722 F 5.3775666709919304e-15 #
edge $203 -1 $-1 $73 -3.1415926535897931 $72 0 $123 $204 forward @7 unknown #
face $205 -1 $-1 $206 $70 $3 $-1 $207 reversed single #
DXID-attrib $-1 -1 $-1 $71 $37 @18 ASM_EDGE_FROM_STEP @5 18024 #
point $-1 -1 $-1 -754.1455389193975 311.29909508983894 -76.940252693982032 #
point $-1 -1 $-1 -759.99250614386074 311.29909508983894 -83.062844487987874 #
coedge $-1 -1 $-1 $76 $75 $208 $209 forward $22 $-1 #
edge $210 -1 $-1 $142 -0.221 $211 -0.21460000000000004 $75 $212 forward @7 unknown #
coedge $-1 -1 $-1 $178 $177 $76 $138 reversed $57 $-1 #
edge $213 -1 $-1 $214 0.21460000000000001 $141 0.22100000000000006 $76 $215 forward @7 unknown #
coedge $-1 -1 $-1 $77 $77 $177 $216 reversed $107 $-1 #
truecolor-adesk-attrib $-1 -1 $217 $-1 $78 -1056964608 #
vertex $-1 -1 $-1 $78 $218 #
vertex $-1 -1 $-1 $78 $219 #
ellipse-curve $-1 -1 $-1 -757.06902253162889 337.29909508983883 -80.001548590984967 -0.7069193845069266 -0.70710678118654124 -0.016278323266157135 -4.9986749053704447 4.9999999999999005 -0.11510512767852266 0.7071067811865589 F 2.4980915447964933 F 3.785093762383088 #
coedge $-1 -1 $-1 $220 $220 $79 $145 reversed $221 $-1 #
edge $222 -1 $-1 $150 2.4980915447964853 $153 3.7850937623830982 $79 $223 forward @7 unknown #
coedge $-1 -1 $-1 $82 $80 $84 $155 forward $148 $-1 #
coedge $-1 -1 $-1 $80 $82 $220 $224 forward $148 $-1 #
loop $-1 -1 $-1 $-1 $82 $225 #
truecolor-adesk-attrib $-1 -1 $226 $-1 $81 -1056964608 #
vertex $-1 -1 $-1 $81 $227 #
straight-curve $-1 -1 $-1 -759.97614337270875 554.29909508983894 -84.069551591888512 -7.102888633683592e-14 -1000 -8.4579136500822831e-14 F 0.21460000000000001 F 0.221 #
truecolor-adesk-attrib $-1 -1 $228 $-1 $83 -1056964608 #
vertex $-1 -1 $-1 $145 $229 #
straight-curve $-1 -1 $-1 -753.9777334862639 554.29909508983894 -83.931425438674353 7.102888633683592e-14 1000 8.4579136500822831e-14 F -0.221 F -0.21460000000000001 #
edge $230 -1 $-1 $88 0.00099999999999998831 $87 0.0070000000000000019 $146 $231 forward @7 unknown #
face $232 -1 $-1 $233 $85 $3 $-1 $234 forward single #
DXID-attrib $-1 -1 $-1 $86 $42 @18 ASM_EDGE_FROM_STEP @4 5965 #
point $-1 -1 $-1 -753.9777334862639 339.69909508983898 -83.931425438674367 #
point $-1 -1 $-1 -759.97614337270875 339.69909508983892 -84.069551591888541 #
truecolor-adesk-attrib $-1 -1 $235 $-1 $90 -1056964608 #
ellipse-curve $-1 -1 $-1 -757.06902253162912 312.06609508983894 -80.001548590984953 7.1028886336835918e-17 1 8.457913650082283e-17 -3.4532053062038019 5.5111451540621591e-16 -3.6159885388653978 1 F -3.1415926535897931 F -1.2246467991473532e-16 #
edge $236 -1 $-1 $97 -1.2246467991473532e-16 $94 3.1415926535897931 $92 $237 forward @7 unknown #
DXID-attrib $-1 -1 $-1 $93 $45 @18 ASM_EDGE_FROM_STEP @4 6610 #
point $-1 -1 $-1 -753.61581722542587 312.06609508983894 -76.385560052120098 #
DXID-attrib $-1 -1 $-1 $96 $47 @18 ASM_EDGE_FROM_STEP @3 708 #
point $-1 -1 $-1 -760.52222783783236 312.06609508983894 -83.617537129849808 #
truecolor-adesk-attrib $-1 -1 $238 $-1 $99 -1056964608 #
ellipse-curve $-1 -1 $-1 -757.06902253162912 532.29909508983894 -80.001548590984939 -7.1028886336835918e-17 -1 -8.457913650082283e-17 -3.4532053062038019 5.5111451540621591e-16 -3.6159885388653978 1 F -3.1415926535897931 F 0 #
truecolor-adesk-attrib $-1 -1 $239 $-1 $100 -1056964608 #
loop $-1 -1 $-1 $49 $240 $100 #
plane-surface $-1 -1 $-1 -753.45303399276372 532.29909508983894 -83.454753897188738 7.1028886336835918e-17 1 8.457913650082283e-17 0.69064106124076041 -1.1022290308124318e-16 0.72319770777307957 forward_v I I I I #
DXID-attrib $-1 -1 $-1 $105 $56 @18 ASM_FACE_FROM_STEP @17 step-2M-555-32142 #
truecolor-adesk-attrib $-1 -1 $241 $-1 $106 -1056964608 #
face $242 -1 $-1 $243 $244 $3 $-1 $245 forward single #
loop $-1 -1 $-1 $-1 $208 $106 #
plane-surface $-1 -1 $-1 -745.16428686088238 347.69909508983892 -75.726356360260056 0.70691938450692027 -0.70710678118654735 0.016278323266159522 -0.59048845573148812 -0.57735026918962595 0.56390606515137698 forward_v I I I I #
coedge $-1 -1 $-1 $137 $109 $139 $216 forward $57 $-1 #
coedge $-1 -1 $-1 $109 $137 $246 $247 forward $57 $-1 #
coedge $-1 -1 $-1 $248 $249 $250 $251 forward $110 $-1 #
coedge $-1 -1 $-1 $252 $111 $253 $254 forward $59 $-1 #
coedge $-1 -1 $-1 $111 $252 $255 $256 forward $59 $-1 #
coedge $-1 -1 $-1 $257 $257 $111 $183 reversed $258 $-1 #
edge $259 -1 $-1 $260 2.4980915447965026 $261 3.7850937623830774 $111 $262 forward @7 unknown #
coedge $-1 -1 $-1 $240 $240 $112 $185 reversed $170 $-1 #
edge $263 -1 $-1 $190 -3.1415926535897931 $193 0 $112 $264 forward @7 unknown #
coedge $-1 -1 $-1 $115 $113 $117 $195 forward $188 $-1 #
coedge $-1 -1 $-1 $113 $115 $240 $265 forward $188 $-1 #
loop $-1 -1 $-1 $-1 $113 $206 #
truecolor-adesk-attrib $-1 -1 $266 $-1 $114 -1056964608 #
vertex $-1 -1 $-1 $114 $267 #
straight-curve $-1 -1 $-1 -748.60866953142977 554.29909508983894 -71.142376670764705 -7.102888633683592e-14 -1000 -8.4579136500822831e-14 F 0 F 0.021999999999999992 #
truecolor-adesk-attrib $-1 -1 $268 $-1 $116 -1056964608 #
vertex $-1 -1 $-1 $185 $269 #
straight-curve $-1 -1 $-1 -765.52937553182846 554.29909508983894 -88.860720511205159 -7.102888633683592e-14 -1000 -8.4579136500822831e-14 F 0 F 0.021999999999999992 #
edge $270 -1 $-1 $121 -3.1415926535897931 $120 0 $186 $271 forward @7 unknown #
face $272 -1 $-1 $-1 $118 $3 $-1 $273 reversed single #
DXID-attrib $-1 -1 $-1 $119 $63 @18 ASM_EDGE_FROM_STEP @4 5106 #
point $-1 -1 $-1 -765.52937553182846 554.29909508983894 -88.860720511205159 #
point $-1 -1 $-1 -748.60866953142977 554.29909508983894 -71.142376670764705 #
face $274 -1 $-1 $225 $125 $3 $-1 $275 forward single #
DXID-attrib $-1 -1 $-1 $126 $66 @18 ASM_EDGE_FROM_STEP @5 19406 #
DXID-attrib $-1 -1 $-1 $128 $68 @18 ASM_EDGE_FROM_STEP @5 32875 #
truecolor-adesk-attrib $-1 -1 $276 $-1 $130 -1056964608 #
ellipse-curve $-1 -1 $-1 -757.06902253162912 311.29909508983894 -80.001548590984953 7.1028886336835918e-17 1 8.457913650082283e-17 2.9234836122316312 -4.6657354874282142e-16 3.0612958970029145 1 F -3.1415926535897931 F 0 #
truecolor-adesk-attrib $-1 -1 $277 $-1 $131 -1056964608 #
face $278 -1 $-1 $196 $188 $3 $-1 $279 forward single #
plane-surface $-1 -1 $-1 -757.06902253162912 311.29909508983894 -80.001548590984953 7.1028886336835918e-17 1 8.457913650082283e-17 0.69064106124076041 -1.1022290308124318e-16 0.72319770777307957 forward_v I I I I #
coedge $-1 -1 $-1 $246 $246 $135 $209 reversed $175 $-1 #
edge $280 -1 $-1 $211 -0.64350110879320144 $214 0.64350110879320199 $135 $281 forward @7 unknown #
truecolor-adesk-attrib $-1 -1 $282 $-1 $136 -1056964608 #
vertex $-1 -1 $-1 $136 $283 #
straight-curve $-1 -1 $-1 -753.13914568393966 554.29909508983894 -76.910259545619766 7.102888633683592e-14 1000 8.4579136500822831e-14 F -0.221 F -0.21460000000000004 #
truecolor-adesk-attrib $-1 -1 $284 $-1 $138 -1056964608 #
vertex $-1 -1 $-1 $209 $285 #
straight-curve $-1 -1 $-1 -753.00101953072544 554.29909508983894 -82.908669432064528 -7.102888633683592e-14 -1000 -8.4579136500822831e-14 F 0.21460000000000001 F 0.22100000000000006 #
edge $286 -1 $-1 $142 0.00099999999999998528 $141 0.0070000000000000097 $177 $287 forward @7 unknown #
DXID-attrib $-1 -1 $-1 $140 $78 @18 ASM_EDGE_FROM_STEP @5 34351 #
point $-1 -1 $-1 -753.00101953072556 333.29909508983894 -82.908669432064556 #
point $-1 -1 $-1 -753.13914568393966 333.29909508983894 -76.910259545619766 #
coedge $-1 -1 $-1 $144 $144 $147 $224 reversed $221 $-1 #
loop $-1 -1 $-1 $-1 $144 $233 #
truecolor-adesk-attrib $-1 -1 $288 $-1 $145 -1056964608 #
ellipse-curve $-1 -1 $-1 -757.06902253162912 337.29909508983854 -80.001548590985294 -0.016278323266160466 -0.70710678118655446 0.70691938450691305 -0.11510512767847159 4.9999999999995612 4.9986749053702946 0.70710678118658032 F 2.4980915447964853 F 3.7850937623830982 #
edge $289 -1 $-1 $153 -0.0069999999999999889 $150 -0.0010000000000000011 $147 $290 forward @7 unknown #
face $291 -1 $-1 $156 $148 $3 $-1 $292 forward single #
DXID-attrib $-1 -1 $-1 $149 $81 @18 ASM_EDGE_FROM_STEP @4 8088 #
point $-1 -1 $-1 -759.97614337270875 333.29909508983894 -84.069551591888541 #
DXID-attrib $-1 -1 $-1 $152 $83 @18 ASM_EDGE_FROM_STEP @4 3087 #
point $-1 -1 $-1 -753.97773348626401 333.29909508983894 -83.931425438674367 #
truecolor-adesk-attrib $-1 -1 $293 $-1 $155 -1056964608 #
straight-curve $-1 -1 $-1 -760.97587835378283 339.69909508983892 -84.092572617424239 999.73498107412706 -7.2957160798845618e-14 23.021025535697106 F 0.00099999999999998831 F 0.0070000000000000019 #
truecolor-adesk-attrib $-1 -1 $294 $-1 $156 -1056964608 #
face $295 -1 $-1 $296 $221 $3 $-1 $297 forward single #
plane-surface $-1 -1 $-1 -760.97587835378283 339.69909508983892 -84.092572617424239 0.016278323266159411 -0.70710678118654724 -0.70691938450692027 -0.56390606515137698 0.57735026918962618 -0.590488455731488 forward_v I I I I #
DXID-attrib $-1 -1 $-1 $160 $90 @18 ASM_EDGE_FROM_STEP @5 31609 #
truecolor-adesk-attrib $-1 -1 $298 $-1 $162 -1056964608 #
ellipse-curve $-1 -1 $-1 -757.06902253162912 312.06609508983894 -80.001548590984953 7.1028886336835918e-17 1 8.457913650082283e-17 -3.4532053062038019 5.5111451540621591e-16 -3.6159885388653978 1 F -1.2246467991473532e-16 F 3.1415926535897931 #
DXID-attrib $-1 -1 $-1 $167 $99 @18 ASM_EDGE_FROM_STEP @3 467 #
DXID-attrib $-1 -1 $-1 $169 $100 @18 ASM_FACE_FROM_STEP @17 step-2M-555-36961 #
coedge $-1 -1 $-1 $184 $184 $187 $265 reversed $170 $-1 #
DXID-attrib $-1 -1 $-1 $173 $106 @18 ASM_FACE_FROM_STEP @17 step-2M-555-26351 #
truecolor-adesk-attrib $-1 -1 $299 $-1 $174 -1056964608 #
face $300 -1 $-1 $301 $258 $3 $-1 $302 forward single #
loop $-1 -1 $-1 $-1 $253 $174 #
plane-surface $-1 -1 $-1 -761.16004655806842 339.69909508983892 -76.094692768831223 -0.023021025535697126 -8.2921563622783694e-17 0.99973498107412695 0.99973498107412717 -7.2957160798845641e-17 0.023021025535697071 forward_v I I I I #
coedge $-1 -1 $-1 $208 $208 $178 $247 reversed $175 $-1 #
edge $303 -1 $-1 $214 -0.0069999999999999793 $211 -0.0010000000000000124 $178 $304 forward @7 unknown #
coedge $-1 -1 $-1 $305 $179 $306 $307 forward $110 $-1 #
coedge $-1 -1 $-1 $179 $305 $308 $309 forward $110 $-1 #
coedge $-1 -1 $-1 $310 $310 $179 $251 reversed $311 $-1 #
edge $312 -1 $-1 $313 -0.64350110879330846 $314 0.64350110879330324 $179 $315 forward @7 unknown #
coedge $-1 -1 $-1 $181 $180 $316 $317 forward $59 $-1 #
coedge $-1 -1 $-1 $318 $319 $180 $254 reversed $244 $-1 #
edge $320 -1 $-1 $261 -0.221 $321 -0.21460000000000001 $180 $322 forward @7 unknown #
coedge $-1 -1 $-1 $319 $318 $181 $256 reversed $244 $-1 #
edge $323 -1 $-1 $324 0.21460000000000001 $260 0.22100000000000006 $181 $325 forward @7 unknown #
coedge $-1 -1 $-1 $182 $182 $318 $326 reversed $258 $-1 #
loop $-1 -1 $-1 $-1 $182 $243 #
truecolor-adesk-attrib $-1 -1 $327 $-1 $183 -1056964608 #
vertex $-1 -1 $-1 $183 $328 #
vertex $-1 -1 $-1 $183 $329 #
ellipse-curve $-1 -1 $-1 -757.06902253162912 337.29909508983894 -80.00154859098491 0.016278323266158634 -0.70710678118654358 -0.70691938450692393 0.1151051276785231 5.0000000000000142 -4.998674905370593 0.70710678118654891 F 2.4980915447965026 F 3.7850937623830774 #
truecolor-adesk-attrib $-1 -1 $330 $-1 $185 -1056964608 #
ellipse-curve $-1 -1 $-1 -757.06902253162912 532.29909508983894 -80.001548590984939 7.1028886336835918e-17 1 8.457913650082283e-17 -8.4603530001993139 1.3502305627452288e-15 -8.8591719202202235 1 F -3.1415926535897931 F 0 #
edge $331 -1 $-1 $193 0 $190 3.1415926535897931 $240 $332 forward @7 unknown #
DXID-attrib $-1 -1 $-1 $189 $114 @18 ASM_EDGE_FROM_STEP @5 25839 #
point $-1 -1 $-1 -748.60866953142977 532.29909508983894 -71.142376670764705 #
DXID-attrib $-1 -1 $-1 $192 $116 @18 ASM_EDGE_FROM_STEP @5 11406 #
point $-1 -1 $-1 -765.52937553182846 532.29909508983894 -88.860720511205159 #
truecolor-adesk-attrib $-1 -1 $333 $-1 $195 -1056964608 #
ellipse-curve $-1 -1 $-1 -757.06902253162912 554.29909508983894 -80.001548590984939 -7.1028886336835918e-17 -1 -8.457913650082283e-17 -8.4603530001993139 1.3502305627452288e-15 -8.8591719202202235 1 F -3.1415926535897931 F 0 #
truecolor-adesk-attrib $-1 -1 $334 $-1 $196 -1056964608 #
plane-surface $-1 -1 $-1 -748.20985061140891 554.29909508983894 -88.461901591184244 -7.1028886336835918e-17 -1 -8.457913650082283e-17 -0.69064106124076041 1.1022290308124318e-16 -0.72319770777307957 forward_v I I I I #
truecolor-adesk-attrib $-1 -1 $335 $-1 $200 -1056964608 #
cone-surface $-1 -1 $-1 -757.06902253162912 312.06609508983513 -80.001548590984953 7.1028886336835918e-17 1 8.457913650082283e-17 3.4532053062006614 -5.5111451540571469e-16 3.6159885388621089 1 I I 0.70710678118654757 0.70710678118654757 4.9999999999954525 forward I I I I #
DXID-attrib $-1 -1 $-1 $203 $130 @18 ASM_EDGE_FROM_STEP @5 32097 #
DXID-attrib $-1 -1 $-1 $205 $131 @18 ASM_FACE_FROM_STEP @16 step-2M-555-9733 #
truecolor-adesk-attrib $-1 -1 $336 $-1 $206 -1056964608 #
cone-surface $-1 -1 $-1 -757.06902253162912 554.29909508983894 -80.001548590984939 -7.1028886336835918e-17 -1 -8.457913650082283e-17 -8.4603530001993139 1.3502305627452288e-15 -8.8591719202202235 1 I I 0 1 12.25 forward I I I I #
truecolor-adesk-attrib $-1 -1 $337 $-1 $209 -1056964608 #
ellipse-curve $-1 -1 $-1 -757.06902253163037 335.69909508983778 -80.001548590984982 -0.70691938450691172 0.70710678118655568 -0.016278323266158412 4.9986749053718338 5.0000000000010836 0.11510512767852621 0.70710678118645942 F -0.64350110879320144 F 0.64350110879320199 #
DXID-attrib $-1 -1 $-1 $210 $136 @18 ASM_EDGE_FROM_STEP @5 35254 #
point $-1 -1 $-1 -753.13914568393966 339.69909508983892 -76.910259545619795 #
DXID-attrib $-1 -1 $-1 $213 $138 @18 ASM_EDGE_FROM_STEP @5 13825 #
point $-1 -1 $-1 -753.00101953072556 339.69909508983892 -82.908669432064528 #
truecolor-adesk-attrib $-1 -1 $338 $-1 $216 -1056964608 #
straight-curve $-1 -1 $-1 -753.1621667094754 333.29909508983894 -75.910524564545653 23.021025535697106 8.2921563622783702e-14 -999.73498107412706 F 0.00099999999999998528 F 0.0070000000000000097 #
DXID-attrib $-1 -1 $-1 $222 $145 @18 ASM_EDGE_FROM_STEP @5 15937 #
truecolor-adesk-attrib $-1 -1 $339 $-1 $224 -1056964608 #
straight-curve $-1 -1 $-1 -760.97587835378283 333.29909508983894 -84.092572617424253 -999.73498107412706 7.2957160798845618e-14 -23.021025535697106 F -0.0069999999999999889 F -0.0010000000000000011 #
truecolor-adesk-attrib $-1 -1 $340 $-1 $225 -1056964608 #
plane-surface $-1 -1 $-1 -760.97587835378283 333.29909508983894 -84.092572617424253 0.023021025535697126 8.2921563622783694e-17 -0.99973498107412695 -0.99973498107412717 7.2957160798845641e-17 -0.023021025535697071 forward_v I I I I #
DXID-attrib $-1 -1 $-1 $230 $155 @18 ASM_EDGE_FROM_STEP @4 8670 #
DXID-attrib $-1 -1 $-1 $232 $156 @18 ASM_FACE_FROM_STEP @17 step-2M-555-11061 #
truecolor-adesk-attrib $-1 -1 $341 $-1 $233 -1056964608 #
face $342 -1 $-1 $343 $344 $3 $-1 $345 forward single #
plane-surface $-1 -1 $-1 -760.92523209760429 331.09909508983895 -86.291989575787312 0.016278323266159633 0.70710678118654791 -0.7069193845069196 0.56390606515137731 0.57735026918962529 0.59048845573148845 forward_v I I I I #
DXID-attrib $-1 -1 $-1 $236 $162 @18 ASM_EDGE_FROM_STEP @5 18117 #
DXID-attrib $-1 -1 $-1 $242 $174 @18 ASM_FACE_FROM_STEP @17 step-2M-555-23180 #
truecolor-adesk-attrib $-1 -1 $346 $-1 $243 -1056964608 #
face $347 -1 $-1 $200 $348 $3 $-1 $349 forward single #
plane-surface $-1 -1 $-1 -761.16004655806842 333.29909508983894 -76.094692768831223 -0.016278323266159633 0.70710678118654735 0.70691938450692027 0.56390606515137709 -0.57735026918962606 0.59048845573148812 forward_v I I I I #
truecolor-adesk-attrib $-1 -1 $350 $-1 $247 -1056964608 #
straight-curve $-1 -1 $-1 -753.1621667094754 339.69909508983892 -75.910524564545653 -23.021025535697106 -8.2921563622783702e-14 999.73498107412706 F -0.0069999999999999793 F -0.0010000000000000124 #
coedge $-1 -1 $-1 $249 $248 $351 $352 forward $110 $-1 #
coedge $-1 -1 $-1 $353 $354 $248 $307 reversed $344 $-1 #
edge $355 -1 $-1 $314 0.21460000000000001 $356 0.221 $248 $357 forward @7 unknown #
coedge $-1 -1 $-1 $354 $353 $249 $309 reversed $344 $-1 #
edge $358 -1 $-1 $359 -0.221 $313 -0.21459999999999999 $249 $360 forward @7 unknown #
coedge $-1 -1 $-1 $250 $250 $353 $361 reversed $311 $-1 #
loop $-1 -1 $-1 $-1 $250 $343 #
truecolor-adesk-attrib $-1 -1 $362 $-1 $251 -1056964608 #
vertex $-1 -1 $-1 $251 $363 #
vertex $-1 -1 $-1 $251 $364 #
ellipse-curve $-1 -1 $-1 -757.06902253162946 335.69909508983926 -80.001548590984982 0.70691938450692338 0.70710678118654424 0.01627832326616091 -4.9986749053703177 4.9999999999997291 -0.11510512767842762 0.70710678118657255 F -0.64350110879330846 F 0.64350110879330324 #
coedge $-1 -1 $-1 $365 $365 $252 $317 reversed $348 $-1 #
edge $366 -1 $-1 $321 -0.64350110879325884 $324 0.64350110879326516 $252 $367 forward @7 unknown #
coedge $-1 -1 $-1 $255 $253 $257 $326 forward $244 $-1 #
coedge $-1 -1 $-1 $253 $255 $365 $368 forward $244 $-1 #
truecolor-adesk-attrib $-1 -1 $369 $-1 $254 -1056964608 #
vertex $-1 -1 $-1 $254 $370 #
straight-curve $-1 -1 $-1 -760.16031157699422 554.29909508983894 -76.071671743295525 7.102888633683592e-14 1000 8.4579136500822831e-14 F -0.221 F -0.21460000000000001 #
truecolor-adesk-attrib $-1 -1 $371 $-1 $256 -1056964608 #
vertex $-1 -1 $-1 $317 $372 #
straight-curve $-1 -1 $-1 -754.16190169054948 554.29909508983894 -75.933545590081337 -7.102888633683592e-14 -1000 -8.4579136500822831e-14 F 0.21460000000000001 F 0.22100000000000006 #
edge $373 -1 $-1 $261 0.00099999999999998571 $260 0.0070000000000000088 $318 $374 forward @7 unknown #
DXID-attrib $-1 -1 $-1 $259 $183 @18 ASM_EDGE_FROM_STEP @5 23155 #
point $-1 -1 $-1 -754.16190169054948 333.29909508983894 -75.933545590081351 #
point $-1 -1 $-1 -760.16031157699433 333.29909508983894 -76.071671743295539 #
DXID-attrib $-1 -1 $-1 $263 $185 @18 ASM_EDGE_FROM_STEP @5 10845 #
truecolor-adesk-attrib $-1 -1 $375 $-1 $265 -1056964608 #
ellipse-curve $-1 -1 $-1 -757.06902253162912 532.29909508983894 -80.001548590984939 7.1028886336835918e-17 1 8.457913650082283e-17 -8.4603530001993139 1.3502305627452288e-15 -8.8591719202202235 1 F 0 F 3.1415926535897931 #
DXID-attrib $-1 -1 $-1 $270 $195 @18 ASM_EDGE_FROM_STEP @5 38079 #
DXID-attrib $-1 -1 $-1 $272 $196 @18 ASM_FACE_FROM_STEP @16 step-2M-555-8737 #
DXID-attrib $-1 -1 $-1 $274 $200 @18 ASM_FACE_FROM_STEP @16 step-2M-555-8976 #
DXID-attrib $-1 -1 $-1 $278 $206 @18 ASM_FACE_FROM_STEP @17 step-2M-555-18037 #
DXID-attrib $-1 -1 $-1 $280 $209 @18 ASM_EDGE_FROM_STEP @5 23869 #
DXID-attrib $-1 -1 $-1 $286 $216 @18 ASM_EDGE_FROM_STEP @4 7274 #
DXID-attrib $-1 -1 $-1 $289 $224 @18 ASM_EDGE_FROM_STEP @4 1133 #
DXID-attrib $-1 -1 $-1 $291 $225 @18 ASM_FACE_FROM_STEP @17 step-2M-555-38137 #
DXID-attrib $-1 -1 $-1 $295 $233 @18 ASM_FACE_FROM_STEP @17 step-2M-555-36588 #
truecolor-adesk-attrib $-1 -1 $376 $-1 $296 -1056964608 #
face $377 -1 $-1 $378 $311 $3 $-1 $379 forward single #
loop $-1 -1 $-1 $-1 $308 $296 #
plane-surface $-1 -1 $-1 -761.16004655806842 333.29909508983894 -76.094692768831223 -0.99973498107412695 7.2957160798845628e-17 -0.023021025535697126 -0.023021025535697071 -8.2921563622783719e-17 0.99973498107412717 forward_v I I I I #
DXID-attrib $-1 -1 $-1 $300 $243 @18 ASM_FACE_FROM_STEP @17 step-2M-555-30521 #
truecolor-adesk-attrib $-1 -1 $380 $-1 $301 -1056964608 #
loop $-1 -1 $-1 $-1 $316 $301 #
plane-surface $-1 -1 $-1 -761.344214762354 347.69909508983892 -68.096812920238179 -0.016278323266159522 -0.70710678118654724 0.70691938450692016 -0.56390606515137709 -0.57735026918962595 -0.59048845573148812 forward_v I I I I #
DXID-attrib $-1 -1 $-1 $303 $247 @18 ASM_EDGE_FROM_STEP @4 9257 #
coedge $-1 -1 $-1 $381 $381 $305 $352 reversed $382 $-1 #
edge $383 -1 $-1 $356 2.4980915447965275 $359 3.7850937623830587 $305 $384 forward @7 unknown #
coedge $-1 -1 $-1 $308 $306 $310 $361 forward $344 $-1 #
coedge $-1 -1 $-1 $306 $308 $381 $385 forward $344 $-1 #
truecolor-adesk-attrib $-1 -1 $386 $-1 $307 -1056964608 #
vertex $-1 -1 $-1 $307 $387 #
straight-curve $-1 -1 $-1 -761.13702553253268 554.29909508983894 -77.094427749905321 -7.102888633683592e-14 -1000 -8.4579136500822831e-14 F 0.21460000000000001 F 0.221 #
truecolor-adesk-attrib $-1 -1 $388 $-1 $309 -1056964608 #
vertex $-1 -1 $-1 $352 $389 #
straight-curve $-1 -1 $-1 -760.99889937931857 554.29909508983894 -83.092837636350097 7.102888633683592e-14 1000 8.4579136500822831e-14 F -0.221 F -0.21459999999999999 #
edge $390 -1 $-1 $314 0.0009999999999999779 $313 0.0070000000000000097 $353 $391 forward @7 unknown #
DXID-attrib $-1 -1 $-1 $312 $251 @18 ASM_EDGE_FROM_STEP @3 877 #
point $-1 -1 $-1 -760.99889937931857 339.69909508983898 -83.092837636350126 #
point $-1 -1 $-1 -761.13702553253268 339.69909508983898 -77.094427749905336 #
coedge $-1 -1 $-1 $316 $316 $319 $368 reversed $348 $-1 #
truecolor-adesk-attrib $-1 -1 $392 $-1 $317 -1056964608 #
ellipse-curve $-1 -1 $-1 -757.06902253162912 335.69909508983858 -80.001548590985294 0.016278323266157746 0.70710678118654657 -0.70691938450692082 -0.11510512767854175 5.0000000000003473 4.9986749053709687 0.70710678118652104 F -0.64350110879325884 F 0.64350110879326516 #
edge $393 -1 $-1 $324 -0.007000000000000001 $321 -0.00099999999999999417 $319 $394 forward @7 unknown #
DXID-attrib $-1 -1 $-1 $320 $254 @18 ASM_EDGE_FROM_STEP @4 4672 #
point $-1 -1 $-1 -760.16031157699433 339.69909508983892 -76.071671743295539 #
DXID-attrib $-1 -1 $-1 $323 $256 @18 ASM_EDGE_FROM_STEP @5 17045 #
point $-1 -1 $-1 -754.16190169054948 339.69909508983898 -75.933545590081351 #
truecolor-adesk-attrib $-1 -1 $395 $-1 $326 -1056964608 #
straight-curve $-1 -1 $-1 -761.16004655806842 333.29909508983894 -76.094692768831223 999.73498107412706 -7.2957160798845618e-14 23.021025535697106 F 0.00099999999999998571 F 0.0070000000000000088 #
DXID-attrib $-1 -1 $-1 $331 $265 @18 ASM_EDGE_FROM_STEP @5 36658 #
DXID-attrib $-1 -1 $-1 $342 $296 @18 ASM_FACE_FROM_STEP @17 step-2M-555-30869 #
truecolor-adesk-attrib $-1 -1 $396 $-1 $343 -1056964608 #
face $397 -1 $-1 $100 $382 $3 $-1 $398 forward single #
plane-surface $-1 -1 $-1 -761.16004655806842 339.69909508983892 -76.094692768831223 -0.70691938450692038 -0.70710678118654735 -0.016278323266159633 -0.59048845573148812 0.57735026918962595 0.56390606515137698 forward_v I I I I #
DXID-attrib $-1 -1 $-1 $347 $301 @18 ASM_FACE_FROM_STEP @17 step-2M-555-35364 #
coedge $-1 -1 $-1 $351 $351 $354 $385 reversed $382 $-1 #
loop $-1 -1 $-1 $-1 $351 $378 #
truecolor-adesk-attrib $-1 -1 $399 $-1 $352 -1056964608 #
ellipse-curve $-1 -1 $-1 -757.06902253162878 337.29909508983917 -80.001548590984953 0.70691938450691416 -0.70710678118655335 0.016278323266160188 4.998674905370919 5.0000000000001998 0.11510512767846715 0.7071067811865297 F 2.4980915447965275 F 3.7850937623830587 #
edge $400 -1 $-1 $359 -0.0069999999999999863 $356 -0.0009999999999999998 $354 $401 forward @7 unknown #
DXID-attrib $-1 -1 $-1 $355 $307 @18 ASM_EDGE_FROM_STEP @5 28295 #
point $-1 -1 $-1 -761.13702553253268 333.29909508983894 -77.09442774990535 #
DXID-attrib $-1 -1 $-1 $358 $309 @18 ASM_EDGE_FROM_STEP @4 7461 #
point $-1 -1 $-1 -760.99889937931857 333.29909508983894 -83.092837636350112 #
truecolor-adesk-attrib $-1 -1 $402 $-1 $361 -1056964608 #
straight-curve $-1 -1 $-1 -761.16004655806842 339.69909508983892 -76.094692768831223 23.021025535697106 8.2921563622783702e-14 -999.73498107412706 F 0.0009999999999999779 F 0.0070000000000000097 #
DXID-attrib $-1 -1 $-1 $366 $317 @18 ASM_EDGE_FROM_STEP @5 21442 #
truecolor-adesk-attrib $-1 -1 $403 $-1 $368 -1056964608 #
straight-curve $-1 -1 $-1 -761.16004655806842 339.69909508983892 -76.094692768831223 -999.73498107412706 7.2957160798845618e-14 -23.021025535697106 F -0.007000000000000001 F -0.00099999999999999417 #
DXID-attrib $-1 -1 $-1 $373 $326 @18 ASM_EDGE_FROM_STEP @4 6296 #
DXID-attrib $-1 -1 $-1 $377 $343 @18 ASM_FACE_FROM_STEP @16 step-2M-555-5757 #
truecolor-adesk-attrib $-1 -1 $404 $-1 $378 -1056964608 #
plane-surface $-1 -1 $-1 -763.35946351643145 331.09909508983895 -76.145339025009761 -0.7069193845069196 0.70710678118654791 -0.016278323266159522 0.56390606515137731 0.57735026918962529 0.59048845573148845 forward_v I I I I #
DXID-attrib $-1 -1 $-1 $383 $352 @18 ASM_EDGE_FROM_STEP @5 35963 #
truecolor-adesk-attrib $-1 -1 $405 $-1 $385 -1056964608 #
straight-curve $-1 -1 $-1 -761.16004655806842 333.29909508983894 -76.094692768831223 -23.021025535697106 -8.2921563622783702e-14 999.73498107412706 F -0.0069999999999999863 F -0.0009999999999999998 #
DXID-attrib $-1 -1 $-1 $390 $361 @18 ASM_EDGE_FROM_STEP @5 32701 #
DXID-attrib $-1 -1 $-1 $393 $368 @18 ASM_EDGE_FROM_STEP @5 15443 #
DXID-attrib $-1 -1 $-1 $397 $378 @18 ASM_FACE_FROM_STEP @17 step-2M-555-22619 #
DXID-attrib $-1 -1 $-1 $400 $385 @18 ASM_EDGE_FROM_STEP @4 6947 #
