700 204 1 0         
5 ZWCAD 12 ACIS 28.0 NT 24 Mon May 13 16:15:49 2024 
1 9.9999999999999995e-07 1e-10 
body $1 -1 $-1 $2 $-1 $-1 #
DXID-attrib $-1 -1 $-1 $-1 $0 @18 ASM_BODY_FROM_STEP @83 4507147F3008F30AE77332BF0CCF8C92D60BD09D|:|CBE1C5916EAB30E44C5B921B6ADFD7864AF74C0D #
lump $-1 -1 $-1 $-1 $3 $0 #
shell $-1 -1 $-1 $-1 $-1 $4 $-1 $2 #
face $5 -1 $-1 $6 $7 $3 $-1 $8 forward single #
truecolor-adesk-attrib $-1 -1 $9 $-1 $4 -1033290435 #
face $10 -1 $-1 $11 $12 $3 $-1 $13 forward single #
loop $-1 -1 $-1 $-1 $14 $4 #
torus-surface $-1 -1 $-1 57.754623625454499 74 -2.9999999999999751 -5.4160475785049874e-33 1.362923403370711e-32 -1 19.000000000000004 1 0.36929444355482388 -0.92931244151767012 -1.466593303265053e-32 forward_v I I I I #
DXID-attrib $-1 -1 $-1 $5 $4 @18 ASM_FACE_FROM_STEP @17 step-4M-565-34944 #
truecolor-adesk-attrib $-1 -1 $15 $-1 $6 -1033290435 #
face $16 -1 $-1 $17 $18 $3 $-1 $19 forward single #
loop $-1 -1 $-1 $-1 $20 $6 #
torus-surface $-1 -1 $-1 57.754623625454499 74 -10.999999999999979 5.4160475785049874e-33 -1.362923403370711e-32 1 19.000000000000004 1 -0.36929444355482388 0.92931244151767012 1.466593303265053e-32 forward_v I I I I #
coedge $-1 -1 $-1 $21 $22 $23 $24 reversed $7 $-1 #
DXID-attrib $-1 -1 $-1 $10 $6 @18 ASM_FACE_FROM_STEP @17 step-4M-565-50477 #
truecolor-adesk-attrib $-1 -1 $25 $-1 $11 -1033290435 #
face $26 -1 $-1 $27 $28 $3 $-1 $29 forward single #
loop $-1 -1 $-1 $-1 $30 $11 #
cone-surface $-1 -1 $-1 57.754623625454499 74 18.000000000000025 5.4160475785049874e-33 -1.362923403370711e-32 1 -7.385888871096479 18.586248830353405 2.9331866065301065e-31 1 I I 0 1 20.000000000000004 forward I I I I #
coedge $-1 -1 $-1 $31 $32 $33 $34 reversed $12 $-1 #
coedge $-1 -1 $-1 $35 $14 $36 $37 forward $7 $-1 #
coedge $-1 -1 $-1 $14 $35 $38 $39 reversed $7 $-1 #
coedge $-1 -1 $-1 $40 $40 $14 $24 forward $41 $-1 #
edge $42 -1 $-1 $43 -3.1415926535897931 $44 0 $14 $45 forward @7 unknown #
DXID-attrib $-1 -1 $-1 $16 $11 @18 ASM_FACE_FROM_STEP @17 step-4M-565-56414 #
truecolor-adesk-attrib $-1 -1 $46 $-1 $17 -1033290435 #
face $47 -1 $-1 $48 $49 $3 $-1 $50 reversed single #
loop $-1 -1 $-1 $-1 $51 $17 #
cone-surface $-1 -1 $-1 57.754623625454499 74 18.000000000000025 5.4160475785049874e-33 -1.362923403370711e-32 1 -2.7697083266611799 6.9698433113825278 1.0999449774487901e-31 1 I I 0 1 7.5000000000000018 forward I I I I #
coedge $-1 -1 $-1 $52 $53 $54 $55 forward $18 $-1 #
coedge $-1 -1 $-1 $54 $20 $56 $57 forward $12 $-1 #
coedge $-1 -1 $-1 $20 $54 $58 $59 reversed $12 $-1 #
coedge $-1 -1 $-1 $60 $60 $20 $34 forward $61 $-1 #
edge $62 -1 $-1 $63 -3.1415926535897931 $64 0 $20 $65 forward @7 unknown #
coedge $-1 -1 $-1 $22 $21 $66 $67 reversed $7 $-1 #
coedge $-1 -1 $-1 $68 $69 $21 $37 reversed $70 $-1 #
edge $71 -1 $-1 $43 1.5707963267948966 $72 3.1415926535897931 $21 $73 forward @7 unknown #
coedge $-1 -1 $-1 $69 $68 $22 $39 forward $70 $-1 #
edge $74 -1 $-1 $44 1.5707963267948966 $75 3.1415926535897931 $22 $76 forward @7 unknown #
coedge $-1 -1 $-1 $23 $23 $68 $77 forward $41 $-1 #
loop $-1 -1 $-1 $78 $40 $79 #
truecolor-adesk-attrib $-1 -1 $80 $-1 $24 -1033290435 #
vertex $-1 -1 $-1 $24 $81 #
vertex $-1 -1 $-1 $24 $82 #
ellipse-curve $-1 -1 $-1 57.754623625454499 74 -1.9999999999999751 5.4160475785049874e-33 -1.362923403370711e-32 1 7.016594427541655 -17.656936388835735 -2.7865272762036014e-31 1 F -3.1415926535897931 F 0 #
DXID-attrib $-1 -1 $-1 $26 $17 @18 ASM_FACE_FROM_STEP @17 step-4M-565-19001 #
truecolor-adesk-attrib $-1 -1 $83 $-1 $27 -1033290435 #
face $84 -1 $-1 $79 $85 $3 $-1 $86 forward single #
loop $-1 -1 $-1 $-1 $87 $27 #
plane-surface $-1 -1 $-1 57.754623625454499 74 18.000000000000025 -5.4160475785049874e-33 1.362923403370711e-32 -1 0.36929444355482388 -0.92931244151767012 -1.466593303265053e-32 forward_v I I I I #
coedge $-1 -1 $-1 $88 $89 $90 $91 forward $28 $-1 #
coedge $-1 -1 $-1 $66 $30 $92 $93 forward $18 $-1 #
coedge $-1 -1 $-1 $30 $66 $94 $95 reversed $18 $-1 #
coedge $-1 -1 $-1 $32 $31 $30 $55 reversed $12 $-1 #
edge $96 -1 $-1 $97 0 $98 3.1415926535897931 $54 $99 forward @7 unknown #
coedge $-1 -1 $-1 $100 $101 $31 $57 reversed $102 $-1 #
edge $103 -1 $-1 $63 -1.5707963267948966 $98 0 $31 $104 forward @7 unknown #
coedge $-1 -1 $-1 $101 $100 $32 $59 forward $102 $-1 #
edge $105 -1 $-1 $64 -1.5707963267948966 $97 0 $32 $106 forward @7 unknown #
coedge $-1 -1 $-1 $33 $33 $100 $107 forward $61 $-1 #
loop $-1 -1 $-1 $-1 $60 $108 #
truecolor-adesk-attrib $-1 -1 $109 $-1 $34 -1033290435 #
vertex $-1 -1 $-1 $34 $110 #
vertex $-1 -1 $-1 $34 $111 #
ellipse-curve $-1 -1 $-1 57.754623625454499 74 -11.999999999999979 -5.4160475785049874e-33 1.362923403370711e-32 -1 -7.016594427541655 17.656936388835735 2.7865272762036014e-31 1 F -3.1415926535897931 F 0 #
coedge $-1 -1 $-1 $53 $52 $35 $67 forward $18 $-1 #
edge $112 -1 $-1 $75 1.2246467991473532e-16 $72 3.1415926535897931 $35 $113 forward @7 unknown #
coedge $-1 -1 $-1 $38 $36 $40 $77 reversed $70 $-1 #
coedge $-1 -1 $-1 $36 $38 $114 $115 reversed $70 $-1 #
loop $-1 -1 $-1 $-1 $36 $116 #
truecolor-adesk-attrib $-1 -1 $117 $-1 $37 -1033290435 #
vertex $-1 -1 $-1 $37 $118 #
ellipse-curve $-1 -1 $-1 50.738029197912844 91.656936388835732 -2.9999999999999751 -0.92931244151767012 -0.36929444355482399 -1.7960587944944908e-48 0.36929444355482433 -0.9293124415176709 -1.4665933032650544e-32 1 F 1.5707963267948966 F 3.1415926535897931 #
truecolor-adesk-attrib $-1 -1 $119 $-1 $39 -1033290435 #
vertex $-1 -1 $-1 $67 $120 #
ellipse-curve $-1 -1 $-1 64.771218052996147 56.343063611164268 -2.9999999999999751 0.92931244151767012 0.36929444355482388 0 -0.36929444355482421 0.9293124415176709 1.4665933032650544e-32 1 F 1.5707963267948966 F 3.1415926535897931 #
edge $121 -1 $-1 $44 0 $43 3.1415926535897931 $40 $122 forward @7 unknown #
loop $-1 -1 $-1 $-1 $90 $79 #
face $123 -1 $-1 $124 $41 $3 $-1 $125 reversed single #
DXID-attrib $-1 -1 $-1 $42 $24 @18 ASM_EDGE_FROM_STEP @5 27109 #
point $-1 -1 $-1 50.738029197912844 91.656936388835732 -1.9999999999999751 #
point $-1 -1 $-1 64.771218052996147 56.343063611164268 -1.9999999999999751 #
DXID-attrib $-1 -1 $-1 $47 $27 @18 ASM_FACE_FROM_STEP @16 step-4M-565-7032 #
truecolor-adesk-attrib $-1 -1 $126 $-1 $48 -1033290435 #
loop $-1 -1 $-1 $-1 $127 $48 #
cone-surface $-1 -1 $-1 57.754623625454499 74 18.000000000000025 5.4160475785049874e-33 -1.362923403370711e-32 1 -2.7697083266611799 6.9698433113825278 1.0999449774487901e-31 1 I I 0 1 7.5000000000000018 forward I I I I #
coedge $-1 -1 $-1 $128 $128 $129 $130 forward $49 $-1 #
coedge $-1 -1 $-1 $129 $51 $127 $131 forward $28 $-1 #
coedge $-1 -1 $-1 $51 $129 $132 $133 reversed $28 $-1 #
coedge $-1 -1 $-1 $134 $134 $51 $91 reversed $78 $-1 #
edge $135 -1 $-1 $136 0 $137 3.1415926535897931 $51 $138 forward @7 unknown #
coedge $-1 -1 $-1 $139 $114 $52 $93 reversed $140 $-1 #
edge $141 -1 $-1 $98 -0.029000000000000005 $75 -0.021000000000000001 $52 $142 forward @7 unknown #
coedge $-1 -1 $-1 $114 $139 $53 $95 forward $140 $-1 #
edge $143 -1 $-1 $97 -0.029000000000000005 $72 -0.021000000000000001 $53 $144 forward @7 unknown #
truecolor-adesk-attrib $-1 -1 $145 $-1 $55 -1033290435 #
vertex $-1 -1 $-1 $55 $146 #
vertex $-1 -1 $-1 $57 $147 #
ellipse-curve $-1 -1 $-1 57.754623625454499 74 -10.999999999999979 5.4160475785049874e-33 -1.362923403370711e-32 1 -7.385888871096479 18.586248830353405 2.9331866065301065e-31 1 F 0 F 3.1415926535897931 #
coedge $-1 -1 $-1 $58 $56 $60 $107 reversed $102 $-1 #
coedge $-1 -1 $-1 $56 $58 $139 $148 reversed $102 $-1 #
loop $-1 -1 $-1 $-1 $56 $149 #
truecolor-adesk-attrib $-1 -1 $150 $-1 $57 -1033290435 #
ellipse-curve $-1 -1 $-1 64.771218052996147 56.343063611164268 -10.999999999999979 -0.92931244151767012 -0.36929444355482377 1.7960587944944908e-48 0.3692944435548241 -0.9293124415176709 -1.4665933032650544e-32 1 F -1.5707963267948966 F 0 #
truecolor-adesk-attrib $-1 -1 $151 $-1 $59 -1033290435 #
ellipse-curve $-1 -1 $-1 50.738029197912844 91.656936388835732 -10.999999999999979 0.92931244151767012 0.36929444355482388 0 -0.36929444355482421 0.9293124415176709 1.4665933032650544e-32 1 F -1.5707963267948966 F 0 #
edge $152 -1 $-1 $64 0 $63 3.1415926535897931 $60 $153 forward @7 unknown #
face $154 -1 $-1 $149 $61 $3 $-1 $155 reversed single #
DXID-attrib $-1 -1 $-1 $62 $34 @18 ASM_EDGE_FROM_STEP @5 29061 #
point $-1 -1 $-1 64.771218052996147 56.343063611164268 -11.999999999999979 #
point $-1 -1 $-1 50.738029197912844 91.656936388835732 -11.999999999999979 #
truecolor-adesk-attrib $-1 -1 $156 $-1 $67 -1033290435 #
ellipse-curve $-1 -1 $-1 57.754623625454499 74 -2.9999999999999751 -5.4160475785049874e-33 1.362923403370711e-32 -1 7.385888871096479 -18.586248830353405 -2.9331866065301065e-31 1 F 1.2246467991473532e-16 F 3.1415926535897931 #
coedge $-1 -1 $-1 $92 $94 $69 $115 forward $140 $-1 #
edge $157 -1 $-1 $72 -3.1415926535897931 $75 1.2246467991473532e-16 $114 $158 forward @7 unknown #
face $159 -1 $-1 $-1 $70 $3 $-1 $160 forward single #
DXID-attrib $-1 -1 $-1 $71 $37 @18 ASM_EDGE_FROM_STEP @5 20905 #
point $-1 -1 $-1 50.368734754358023 92.586248830353412 -2.9999999999999751 #
DXID-attrib $-1 -1 $-1 $74 $39 @18 ASM_EDGE_FROM_STEP @4 6661 #
point $-1 -1 $-1 65.140512496550969 55.413751169646595 -2.9999999999999751 #
truecolor-adesk-attrib $-1 -1 $161 $-1 $77 -1033290435 #
ellipse-curve $-1 -1 $-1 57.754623625454499 74 -1.9999999999999751 5.4160475785049874e-33 -1.362923403370711e-32 1 7.016594427541655 -17.656936388835735 -2.7865272762036014e-31 1 F 0 F 3.1415926535897931 #
truecolor-adesk-attrib $-1 -1 $162 $-1 $79 -1033290435 #
face $163 -1 $-1 $108 $140 $3 $-1 $164 forward single #
plane-surface $-1 -1 $-1 50.784780314071966 71.230291673338826 -1.9999999999999751 -5.4160475785049874e-33 1.362923403370711e-32 -1 0.36929444355482388 -0.92931244151767012 -1.466593303265053e-32 forward_v I I I I #
DXID-attrib $-1 -1 $-1 $84 $48 @18 ASM_FACE_FROM_STEP @16 step-4M-565-5624 #
coedge $-1 -1 $-1 $165 $166 $88 $131 reversed $85 $-1 #
coedge $-1 -1 $-1 $87 $87 $166 $167 forward $49 $-1 #
coedge $-1 -1 $-1 $89 $88 $87 $130 reversed $28 $-1 #
edge $168 -1 $-1 $169 0 $170 3.1415926535897931 $129 $171 forward @7 unknown #
edge $172 -1 $-1 $137 -0.02 $170 0 $88 $173 forward @7 unknown #
coedge $-1 -1 $-1 $166 $165 $89 $133 forward $85 $-1 #
edge $174 -1 $-1 $136 -0.02 $169 0 $89 $175 forward @7 unknown #
coedge $-1 -1 $-1 $90 $90 $165 $176 reversed $78 $-1 #
truecolor-adesk-attrib $-1 -1 $177 $-1 $91 -1033290435 #
vertex $-1 -1 $-1 $91 $178 #
vertex $-1 -1 $-1 $91 $179 #
ellipse-curve $-1 -1 $-1 57.754623625454499 74 -1.9999999999999751 5.4160475785049874e-33 -1.362923403370711e-32 1 -2.7697083266611804 6.9698433113825295 1.0999449774487903e-31 1 F 0 F 3.1415926535897931 #
coedge $-1 -1 $-1 $94 $92 $101 $148 forward $140 $-1 #
loop $-1 -1 $-1 $-1 $92 $124 #
truecolor-adesk-attrib $-1 -1 $180 $-1 $93 -1033290435 #
straight-curve $-1 -1 $-1 65.140512496550969 55.413751169646595 18.000000000000025 5.4160475785049871e-30 -1.362923403370711e-29 1000 F -0.029000000000000005 F -0.021000000000000001 #
truecolor-adesk-attrib $-1 -1 $181 $-1 $95 -1033290435 #
straight-curve $-1 -1 $-1 50.368734754358023 92.586248830353412 18.000000000000025 5.4160475785049871e-30 -1.362923403370711e-29 1000 F -0.029000000000000005 F -0.021000000000000001 #
DXID-attrib $-1 -1 $-1 $96 $55 @18 ASM_EDGE_FROM_STEP @5 33851 #
point $-1 -1 $-1 50.368734754358023 92.586248830353412 -10.999999999999979 #
point $-1 -1 $-1 65.140512496550969 55.413751169646595 -10.999999999999979 #
edge $182 -1 $-1 $98 -3.1415926535897931 $97 0 $139 $183 forward @7 unknown #
face $184 -1 $-1 $116 $102 $3 $-1 $185 forward single #
DXID-attrib $-1 -1 $-1 $103 $57 @18 ASM_EDGE_FROM_STEP @5 32495 #
DXID-attrib $-1 -1 $-1 $105 $59 @18 ASM_EDGE_FROM_STEP @5 46659 #
truecolor-adesk-attrib $-1 -1 $186 $-1 $107 -1033290435 #
ellipse-curve $-1 -1 $-1 57.754623625454499 74 -11.999999999999979 -5.4160475785049874e-33 1.362923403370711e-32 -1 -7.016594427541655 17.656936388835735 2.7865272762036014e-31 1 F 0 F 3.1415926535897931 #
truecolor-adesk-attrib $-1 -1 $187 $-1 $108 -1033290435 #
plane-surface $-1 -1 $-1 39.168374795101094 66.614111128903517 -11.999999999999979 5.4160475785049874e-33 -1.362923403370711e-32 1 -0.36929444355482388 0.92931244151767012 1.466593303265053e-32 forward_v I I I I #
DXID-attrib $-1 -1 $-1 $112 $67 @18 ASM_EDGE_FROM_STEP @5 40233 #
truecolor-adesk-attrib $-1 -1 $188 $-1 $115 -1033290435 #
ellipse-curve $-1 -1 $-1 57.754623625454499 74 -2.9999999999999751 -5.4160475785049874e-33 1.362923403370711e-32 -1 7.385888871096479 -18.586248830353405 -2.9331866065301065e-31 1 F -3.1415926535897931 F 1.2246467991473532e-16 #
truecolor-adesk-attrib $-1 -1 $189 $-1 $116 -1033290435 #
torus-surface $-1 -1 $-1 57.754623625454499 74 -2.9999999999999751 -5.4160475785049874e-33 1.362923403370711e-32 -1 19.000000000000004 1 0.36929444355482388 -0.92931244151767012 -1.466593303265053e-32 forward_v I I I I #
DXID-attrib $-1 -1 $-1 $121 $77 @18 ASM_EDGE_FROM_STEP @5 16065 #
DXID-attrib $-1 -1 $-1 $123 $79 @18 ASM_FACE_FROM_STEP @17 step-4M-565-48365 #
truecolor-adesk-attrib $-1 -1 $190 $-1 $124 -1033290435 #
cone-surface $-1 -1 $-1 57.754623625454499 74 18.000000000000025 5.4160475785049874e-33 -1.362923403370711e-32 1 -7.385888871096479 18.586248830353405 2.9331866065301065e-31 1 I I 0 1 20.000000000000004 forward I I I I #
coedge $-1 -1 $-1 $132 $127 $134 $176 forward $85 $-1 #
coedge $-1 -1 $-1 $127 $132 $128 $167 reversed $85 $-1 #
edge $191 -1 $-1 $170 -3.1415926535897931 $169 0 $128 $192 forward @7 unknown #
truecolor-adesk-attrib $-1 -1 $193 $-1 $130 -1033290435 #
vertex $-1 -1 $-1 $130 $194 #
vertex $-1 -1 $-1 $131 $195 #
ellipse-curve $-1 -1 $-1 57.754623625454499 74 18.000000000000025 5.4160475785049874e-33 -1.362923403370711e-32 1 -2.7697083266611791 6.969843311382526 1.0999449774487898e-31 1 F 0 F 3.1415926535897931 #
truecolor-adesk-attrib $-1 -1 $196 $-1 $131 -1033290435 #
straight-curve $-1 -1 $-1 60.524331952115681 67.030156688617467 18.000000000000025 5.4160475785049871e-30 -1.362923403370711e-29 1000 F -0.02 F 0 #
truecolor-adesk-attrib $-1 -1 $197 $-1 $133 -1033290435 #
straight-curve $-1 -1 $-1 54.984915298793318 80.969843311382533 18.000000000000025 5.4160475785049871e-30 -1.362923403370711e-29 1000 F -0.02 F 0 #
edge $198 -1 $-1 $137 -3.1415926535897931 $136 0 $165 $199 forward @7 unknown #
DXID-attrib $-1 -1 $-1 $135 $91 @18 ASM_EDGE_FROM_STEP @5 51627 #
point $-1 -1 $-1 54.984915298793318 80.969843311382533 -1.9999999999999751 #
point $-1 -1 $-1 60.524331952115681 67.030156688617467 -1.9999999999999751 #
DXID-attrib $-1 -1 $-1 $141 $93 @18 ASM_EDGE_FROM_STEP @4 9462 #
DXID-attrib $-1 -1 $-1 $143 $95 @18 ASM_EDGE_FROM_STEP @5 34207 #
truecolor-adesk-attrib $-1 -1 $200 $-1 $148 -1033290435 #
ellipse-curve $-1 -1 $-1 57.754623625454499 74 -10.999999999999979 5.4160475785049874e-33 -1.362923403370711e-32 1 -7.385888871096479 18.586248830353405 2.9331866065301065e-31 1 F -3.1415926535897931 F 0 #
truecolor-adesk-attrib $-1 -1 $201 $-1 $149 -1033290435 #
torus-surface $-1 -1 $-1 57.754623625454499 74 -10.999999999999979 5.4160475785049874e-33 -1.362923403370711e-32 1 19.000000000000004 1 -0.36929444355482388 0.92931244151767012 1.466593303265053e-32 forward_v I I I I #
DXID-attrib $-1 -1 $-1 $152 $107 @18 ASM_EDGE_FROM_STEP @5 34433 #
DXID-attrib $-1 -1 $-1 $154 $108 @18 ASM_FACE_FROM_STEP @16 step-4M-565-9613 #
DXID-attrib $-1 -1 $-1 $157 $115 @18 ASM_EDGE_FROM_STEP @5 44479 #
DXID-attrib $-1 -1 $-1 $159 $116 @18 ASM_FACE_FROM_STEP @17 step-4M-565-37404 #
DXID-attrib $-1 -1 $-1 $163 $124 @18 ASM_FACE_FROM_STEP @17 step-4M-565-53171 #
truecolor-adesk-attrib $-1 -1 $202 $-1 $167 -1033290435 #
ellipse-curve $-1 -1 $-1 57.754623625454499 74 18.000000000000025 5.4160475785049874e-33 -1.362923403370711e-32 1 -2.7697083266611791 6.969843311382526 1.0999449774487898e-31 1 F -3.1415926535897931 F 0 #
DXID-attrib $-1 -1 $-1 $168 $130 @18 ASM_EDGE_FROM_STEP @5 48963 #
point $-1 -1 $-1 54.984915298793318 80.969843311382533 18.000000000000025 #
point $-1 -1 $-1 60.524331952115681 67.030156688617467 18.000000000000025 #
DXID-attrib $-1 -1 $-1 $172 $131 @18 ASM_EDGE_FROM_STEP @4 5174 #
DXID-attrib $-1 -1 $-1 $174 $133 @18 ASM_EDGE_FROM_STEP @5 55974 #
truecolor-adesk-attrib $-1 -1 $203 $-1 $176 -1033290435 #
ellipse-curve $-1 -1 $-1 57.754623625454499 74 -1.9999999999999751 5.4160475785049874e-33 -1.362923403370711e-32 1 -2.7697083266611804 6.9698433113825295 1.0999449774487903e-31 1 F -3.1415926535897931 F 0 #
DXID-attrib $-1 -1 $-1 $182 $148 @18 ASM_EDGE_FROM_STEP @5 19009 #
DXID-attrib $-1 -1 $-1 $184 $149 @18 ASM_FACE_FROM_STEP @17 step-4M-565-49606 #
DXID-attrib $-1 -1 $-1 $191 $167 @18 ASM_EDGE_FROM_STEP @5 20558 #
DXID-attrib $-1 -1 $-1 $198 $176 @18 ASM_EDGE_FROM_STEP @5 40902 #
