700 663 1 0         
5 ZWCAD 12 ACIS 28.0 NT 24 Sat May 11 14:33:45 2024 
1 9.9999999999999995e-07 1e-10 
body $1 -1 $-1 $2 $-1 $3 #
DXID-attrib $-1 -1 $-1 $-1 $0 @18 ASM_BODY_FROM_STEP @83 45FA547A2C700166D4BF37934B3B2D3329578D1B|:|E2DB12E551E024BA957DA24E9C0061A2498AEF03 #
lump $-1 -1 $-1 $-1 $4 $0 #
transform $-1 -1 1 0 0 0 1 0 0 0 1 0 0 0 1 no_rotate no_reflect no_shear #
shell $-1 -1 $-1 $-1 $-1 $5 $-1 $2 #
face $6 -1 $-1 $7 $8 $4 $-1 $9 reversed single #
truecolor-adesk-attrib $-1 -1 $10 $-1 $5 -1026765108 #
face $11 -1 $-1 $12 $13 $4 $-1 $14 reversed single #
loop $-1 -1 $-1 $-1 $15 $5 #
plane-surface $-1 -1 $-1 4.535000000000001 3.1000000000000001 0.50000000000000178 0 0 -1 -1 0 0 forward_v I I I I #
color-adesk-attrib $-1 -1 $16 $6 $5 254 #
truecolor-adesk-attrib $-1 -1 $17 $-1 $7 -1026765108 #
face $18 -1 $-1 $19 $20 $4 $-1 $21 forward single #
loop $-1 -1 $-1 $-1 $22 $7 #
plane-surface $-1 -1 $-1 4.535000000000001 2.7999999999999998 0.50000000000000178 0 -1 5.9818050895751962e-16 0 -5.9818050895751962e-16 -1 forward_v I I I I #
coedge $-1 -1 $-1 $23 $24 $25 $26 forward $8 $-1 #
DXID-attrib $-1 -1 $-1 $10 $5 @18 ASM_FACE_FROM_STEP @17 step-1M-212-14174 #
color-adesk-attrib $-1 -1 $27 $11 $7 254 #
truecolor-adesk-attrib $-1 -1 $28 $-1 $12 -1026765108 #
face $29 -1 $-1 $30 $31 $4 $-1 $32 reversed single #
loop $-1 -1 $-1 $-1 $33 $12 #
cone-surface $-1 -1 $-1 4.535000000000001 2.6499999999999995 1.2250000000000019 -1 0 0 0 0 0.15000000000000019 1 I I 0 1 0.15000000000000019 forward I I I I #
coedge $-1 -1 $-1 $34 $35 $36 $37 forward $13 $-1 #
coedge $-1 -1 $-1 $38 $15 $35 $39 reversed $8 $-1 #
coedge $-1 -1 $-1 $15 $38 $40 $41 forward $8 $-1 #
coedge $-1 -1 $-1 $42 $36 $15 $26 reversed $43 $-1 #
edge $44 -1 $-1 $45 0 $46 0.00030000000000000024 $15 $47 forward @7 unknown #
DXID-attrib $-1 -1 $-1 $17 $7 @18 ASM_FACE_FROM_STEP @17 step-1M-212-16610 #
color-adesk-attrib $-1 -1 $48 $18 $12 254 #
truecolor-adesk-attrib $-1 -1 $49 $-1 $19 -1026765108 #
face $50 -1 $-1 $51 $52 $4 $-1 $53 forward single #
loop $-1 -1 $-1 $-1 $54 $19 #
plane-surface $-1 -1 $-1 4.535000000000001 2.6499999999999995 1.3750000000000018 0 3.3360066845707861e-16 -1 0 1 3.3360066845707866e-16 forward_v I I I I #
coedge $-1 -1 $-1 $55 $56 $57 $58 forward $20 $-1 #
coedge $-1 -1 $-1 $59 $22 $56 $60 reversed $13 $-1 #
coedge $-1 -1 $-1 $22 $59 $23 $39 forward $13 $-1 #
coedge $-1 -1 $-1 $25 $57 $22 $37 reversed $43 $-1 #
edge $61 -1 $-1 $46 0 $62 0.00072500000000000006 $22 $63 forward @7 unknown #
coedge $-1 -1 $-1 $24 $23 $64 $65 reversed $8 $-1 #
edge $66 -1 $-1 $67 0 $46 0.0003200000000000003 $23 $68 forward @7 unknown #
coedge $-1 -1 $-1 $69 $70 $24 $41 reversed $71 $-1 #
edge $72 -1 $-1 $73 0 $45 0.0003200000000000003 $24 $74 forward @7 unknown #
coedge $-1 -1 $-1 $75 $25 $70 $76 reversed $43 $-1 #
loop $-1 -1 $-1 $-1 $77 $78 #
truecolor-adesk-attrib $-1 -1 $79 $-1 $26 -1026765108 #
vertex $-1 -1 $-1 $26 $80 #
vertex $-1 -1 $-1 $26 $81 #
straight-curve $-1 -1 $-1 4.2150000000000007 3.1000000000000001 0.50000000000000178 0 -1000 0 F 0 F 0.00030000000000000024 #
DXID-attrib $-1 -1 $-1 $28 $12 @18 ASM_FACE_FROM_STEP @17 step-1M-212-13372 #
color-adesk-attrib $-1 -1 $82 $29 $19 254 #
truecolor-adesk-attrib $-1 -1 $83 $-1 $30 -1026765108 #
face $84 -1 $-1 $85 $86 $4 $-1 $87 forward single #
loop $-1 -1 $-1 $-1 $88 $30 #
plane-surface $-1 -1 $-1 4.535000000000001 2 1.7750000000000017 0 1 0 0 0 1 forward_v I I I I #
coedge $-1 -1 $-1 $89 $90 $91 $92 forward $31 $-1 #
coedge $-1 -1 $-1 $93 $33 $90 $94 reversed $20 $-1 #
coedge $-1 -1 $-1 $33 $93 $34 $60 forward $20 $-1 #
coedge $-1 -1 $-1 $36 $91 $33 $58 reversed $43 $-1 #
edge $95 -1 $-1 $62 1.5707963267948966 $96 3.1415926535897931 $33 $97 forward @7 unknown #
coedge $-1 -1 $-1 $35 $34 $98 $99 reversed $13 $-1 #
edge $100 -1 $-1 $101 0 $62 0.0003200000000000003 $34 $102 forward @7 unknown #
truecolor-adesk-attrib $-1 -1 $103 $-1 $37 -1026765108 #
vertex $-1 -1 $-1 $37 $104 #
straight-curve $-1 -1 $-1 4.2150000000000007 2.7999999999999998 0.50000000000000178 0 5.9818050895751953e-13 1000 F 0 F 0.00072500000000000006 #
coedge $-1 -1 $-1 $98 $105 $38 $65 forward $106 $-1 #
edge $107 -1 $-1 $73 0 $67 0.00030000000000000024 $38 $108 forward @7 unknown #
truecolor-adesk-attrib $-1 -1 $109 $-1 $39 -1026765108 #
vertex $-1 -1 $-1 $39 $110 #
straight-curve $-1 -1 $-1 4.535000000000001 2.7999999999999998 0.50000000000000178 -1000 0 0 F 0 F 0.0003200000000000003 #
coedge $-1 -1 $-1 $111 $40 $105 $112 reversed $71 $-1 #
coedge $-1 -1 $-1 $40 $111 $42 $76 forward $71 $-1 #
loop $-1 -1 $-1 $-1 $70 $113 #
truecolor-adesk-attrib $-1 -1 $114 $-1 $41 -1026765108 #
vertex $-1 -1 $-1 $65 $115 #
straight-curve $-1 -1 $-1 4.535000000000001 3.1000000000000001 0.50000000000000178 -1000 0 0 F 0 F 0.0003200000000000003 #
coedge $-1 -1 $-1 $116 $42 $117 $118 reversed $43 $-1 #
edge $119 -1 $-1 $120 0 $45 0.00029999999999999997 $70 $121 forward @7 unknown #
coedge $-1 -1 $-1 $122 $123 $124 $125 reversed $43 $-1 #
face $126 -1 $-1 $127 $43 $4 $-1 $128 reversed single #
color-adesk-attrib $-1 -1 $129 $44 $26 254 #
point $-1 -1 $-1 4.2150000000000007 3.1000000000000001 0.50000000000000178 #
point $-1 -1 $-1 4.2150000000000007 2.7999999999999998 0.50000000000000178 #
DXID-attrib $-1 -1 $-1 $49 $19 @18 ASM_FACE_FROM_STEP @16 step-1M-212-2160 #
color-adesk-attrib $-1 -1 $130 $50 $30 254 #
truecolor-adesk-attrib $-1 -1 $131 $-1 $51 -1026765108 #
face $132 -1 $-1 $133 $134 $4 $-1 $135 forward single #
loop $-1 -1 $-1 $-1 $136 $51 #
plane-surface $-1 -1 $-1 4.535000000000001 1.5000000000000002 1.7750000000000019 0 4.3368086899420182e-16 1 0 -1 4.3368086899420182e-16 forward_v I I I I #
coedge $-1 -1 $-1 $137 $138 $139 $140 reversed $52 $-1 #
coedge $-1 -1 $-1 $141 $54 $138 $142 reversed $31 $-1 #
coedge $-1 -1 $-1 $54 $141 $55 $94 forward $31 $-1 #
coedge $-1 -1 $-1 $57 $139 $54 $92 reversed $43 $-1 #
edge $143 -1 $-1 $96 -9.2592785787847955e-35 $144 0.00064999999999999943 $54 $145 forward @7 unknown #
coedge $-1 -1 $-1 $56 $55 $146 $147 reversed $20 $-1 #
edge $148 -1 $-1 $149 0 $96 0.0003200000000000003 $55 $150 forward @7 unknown #
truecolor-adesk-attrib $-1 -1 $151 $-1 $58 -1026765108 #
vertex $-1 -1 $-1 $58 $152 #
ellipse-curve $-1 -1 $-1 4.2150000000000007 2.6499999999999995 1.2250000000000019 1 0 0 0 0 -0.15000000000000019 1 F 1.5707963267948966 F 3.1415926535897931 #
coedge $-1 -1 $-1 $146 $64 $59 $99 forward $106 $-1 #
edge $153 -1 $-1 $67 0 $101 0.00072500000000000006 $59 $154 forward @7 unknown #
truecolor-adesk-attrib $-1 -1 $155 $-1 $60 -1026765108 #
vertex $-1 -1 $-1 $60 $156 #
straight-curve $-1 -1 $-1 4.535000000000001 2.7999999999999998 1.2250000000000019 -1000 0 0 F 0 F 0.0003200000000000003 #
color-adesk-attrib $-1 -1 $157 $61 $37 254 #
point $-1 -1 $-1 4.2150000000000007 2.7999999999999998 1.2250000000000019 #
coedge $-1 -1 $-1 $64 $158 $69 $112 forward $106 $-1 #
loop $-1 -1 $-1 $-1 $159 $160 #
truecolor-adesk-attrib $-1 -1 $161 $-1 $65 -1026765108 #
straight-curve $-1 -1 $-1 4.535000000000001 3.1000000000000001 0.50000000000000178 0 -1000 0 F 0 F 0.00030000000000000024 #
color-adesk-attrib $-1 -1 $162 $66 $39 254 #
point $-1 -1 $-1 4.535000000000001 2.7999999999999998 0.50000000000000178 #
coedge $-1 -1 $-1 $70 $69 $163 $164 forward $71 $-1 #
edge $165 -1 $-1 $166 0 $73 0.00029999999999999997 $69 $167 forward @7 unknown #
face $168 -1 $-1 $160 $71 $4 $-1 $169 reversed single #
color-adesk-attrib $-1 -1 $170 $72 $41 254 #
point $-1 -1 $-1 4.535000000000001 3.1000000000000001 0.50000000000000178 #
coedge $-1 -1 $-1 $171 $75 $172 $173 reversed $43 $-1 #
coedge $-1 -1 $-1 $163 $174 $75 $118 forward $175 $-1 #
edge $176 -1 $-1 $177 0 $120 0.00028284271247461874 $117 $178 forward @7 unknown #
truecolor-adesk-attrib $-1 -1 $179 $-1 $76 -1026765108 #
vertex $-1 -1 $-1 $118 $180 #
straight-curve $-1 -1 $-1 4.2150000000000007 3.1000000000000001 0.20000000000000187 0 0 1000 F 0 F 0.00029999999999999997 #
coedge $-1 -1 $-1 $181 $77 $182 $183 forward $43 $-1 #
coedge $-1 -1 $-1 $77 $184 $185 $186 reversed $43 $-1 #
coedge $-1 -1 $-1 $187 $188 $77 $125 forward $189 $-1 #
edge $190 -1 $-1 $191 0.00050000000000000435 $192 0.0029000000000000002 $124 $193 forward @7 unknown #
truecolor-adesk-attrib $-1 -1 $194 $-1 $78 -1026765108 #
face $195 -1 $-1 $196 $197 $4 $-1 $198 reversed single #
plane-surface $-1 -1 $-1 4.2150000000000007 2.6499999999999995 1.2250000000000019 1 0 0 0 0 -1 forward_v I I I I #
DXID-attrib $-1 -1 $-1 $79 $26 @18 ASM_EDGE_FROM_STEP @5 15551 #
DXID-attrib $-1 -1 $-1 $83 $30 @18 ASM_FACE_FROM_STEP @16 step-1M-212-4408 #
color-adesk-attrib $-1 -1 $199 $84 $51 254 #
truecolor-adesk-attrib $-1 -1 $200 $-1 $85 -1026765108 #
face $201 -1 $-1 $202 $203 $4 $-1 $204 reversed single #
loop $-1 -1 $-1 $-1 $205 $85 #
plane-surface $-1 -1 $-1 4.535000000000001 1.5000000000000002 1.6999999999999991 0 -1 0 0 0 -1 forward_v I I I I #
coedge $-1 -1 $-1 $206 $207 $208 $209 reversed $86 $-1 #
coedge $-1 -1 $-1 $210 $88 $207 $211 reversed $52 $-1 #
coedge $-1 -1 $-1 $88 $210 $89 $142 forward $52 $-1 #
coedge $-1 -1 $-1 $91 $208 $88 $140 forward $43 $-1 #
edge $212 -1 $-1 $213 0 $144 0.00040000000000000007 $88 $214 forward @7 unknown #
coedge $-1 -1 $-1 $90 $89 $215 $216 reversed $31 $-1 #
edge $217 -1 $-1 $218 0 $144 0.0003200000000000003 $89 $219 forward @7 unknown #
truecolor-adesk-attrib $-1 -1 $220 $-1 $92 -1026765108 #
vertex $-1 -1 $-1 $92 $221 #
straight-curve $-1 -1 $-1 4.2150000000000007 2.6499999999999995 1.3750000000000018 0 -1000 -3.3360066845707855e-13 F -9.2592785787847955e-35 F 0.00064999999999999943 #
coedge $-1 -1 $-1 $215 $98 $93 $147 forward $106 $-1 #
edge $222 -1 $-1 $101 1.5707963267948966 $149 3.1415926535897931 $93 $223 forward @7 unknown #
truecolor-adesk-attrib $-1 -1 $224 $-1 $94 -1026765108 #
vertex $-1 -1 $-1 $94 $225 #
straight-curve $-1 -1 $-1 4.535000000000001 2.6499999999999995 1.375000000000002 -1000 0 0 F 0 F 0.0003200000000000003 #
color-adesk-attrib $-1 -1 $226 $95 $58 254 #
point $-1 -1 $-1 4.2150000000000007 2.6499999999999995 1.375000000000002 #
truecolor-adesk-attrib $-1 -1 $227 $-1 $99 -1026765108 #
straight-curve $-1 -1 $-1 4.535000000000001 2.7999999999999998 0.50000000000000178 0 5.9818050895751953e-13 1000 F 0 F 0.00072500000000000006 #
color-adesk-attrib $-1 -1 $228 $100 $60 254 #
point $-1 -1 $-1 4.535000000000001 2.7999999999999998 1.2250000000000019 #
DXID-attrib $-1 -1 $-1 $103 $37 @18 ASM_EDGE_FROM_STEP @5 15445 #
coedge $-1 -1 $-1 $105 $229 $230 $231 forward $106 $-1 #
coedge $-1 -1 $-1 $232 $233 $234 $235 forward $106 $-1 #
face $236 -1 $-1 $78 $106 $4 $-1 $237 forward single #
color-adesk-attrib $-1 -1 $238 $107 $65 254 #
DXID-attrib $-1 -1 $-1 $109 $39 @18 ASM_EDGE_FROM_STEP @5 13943 #
coedge $-1 -1 $-1 $230 $117 $111 $164 reversed $175 $-1 #
edge $239 -1 $-1 $166 0 $120 0.0003200000000000003 $163 $240 forward @7 unknown #
truecolor-adesk-attrib $-1 -1 $241 $-1 $112 -1026765108 #
vertex $-1 -1 $-1 $164 $242 #
straight-curve $-1 -1 $-1 4.535000000000001 3.1000000000000001 0.20000000000000187 0 0 1000 F 0 F 0.00029999999999999997 #
truecolor-adesk-attrib $-1 -1 $243 $-1 $113 -1026765108 #
plane-surface $-1 -1 $-1 4.535000000000001 3.1000000000000001 0.20000000000000187 0 -1 0 0 0 -1 forward_v I I I I #
DXID-attrib $-1 -1 $-1 $114 $41 @18 ASM_EDGE_FROM_STEP @5 12119 #
coedge $-1 -1 $-1 $244 $116 $245 $246 reversed $43 $-1 #
coedge $-1 -1 $-1 $247 $248 $116 $173 forward $249 $-1 #
edge $250 -1 $-1 $251 0 $177 0.00040000000000000062 $172 $252 forward @7 unknown #
coedge $-1 -1 $-1 $117 $230 $247 $253 forward $175 $-1 #
loop $-1 -1 $-1 $-1 $117 $254 #
truecolor-adesk-attrib $-1 -1 $255 $-1 $118 -1026765108 #
vertex $-1 -1 $-1 $173 $256 #
straight-curve $-1 -1 $-1 4.2150000000000007 2.9000000000000004 1.7889335846010823e-15 0 707.10678118654619 707.10678118654914 F 0 F 0.00028284271247461874 #
color-adesk-attrib $-1 -1 $257 $119 $76 254 #
point $-1 -1 $-1 4.2150000000000007 3.1000000000000001 0.20000000000000187 #
coedge $-1 -1 $-1 $258 $122 $259 $260 reversed $43 $-1 #
coedge $-1 -1 $-1 $261 $262 $122 $183 reversed $263 $-1 #
edge $264 -1 $-1 $191 -0.0002750000000000037 $265 0.00047499999999999653 $122 $266 forward @7 unknown #
coedge $-1 -1 $-1 $123 $267 $268 $269 reversed $43 $-1 #
coedge $-1 -1 $-1 $270 $271 $123 $186 forward $272 $-1 #
edge $273 -1 $-1 $192 0 $274 7.4999999999996456e-05 $185 $275 forward @7 unknown #
coedge $-1 -1 $-1 $276 $124 $271 $277 reversed $189 $-1 #
coedge $-1 -1 $-1 $124 $276 $278 $279 forward $189 $-1 #
loop $-1 -1 $-1 $-1 $276 $280 #
truecolor-adesk-attrib $-1 -1 $281 $-1 $125 -1026765108 #
vertex $-1 -1 $-1 $279 $282 #
vertex $-1 -1 $-1 $125 $283 #
straight-curve $-1 -1 $-1 4.2150000000000007 -1.4000000000000001 0.94999999999999818 0 1000 3.7386281809844977e-14 F 0.00050000000000000435 F 0.0029000000000000002 #
color-adesk-attrib $-1 -1 $284 $126 $78 254 #
truecolor-adesk-attrib $-1 -1 $285 $-1 $127 -1026765108 #
face $286 -1 $-1 $287 $288 $4 $-1 $289 reversed single #
loop $-1 -1 $-1 $-1 $290 $127 #
plane-surface $-1 -1 $-1 4.535000000000001 -1.4000000000000001 1.5249999999999984 0 0.33035042472810378 -0.94385835636601834 -1 0 0 forward_v I I I I #
DXID-attrib $-1 -1 $-1 $131 $51 @18 ASM_FACE_FROM_STEP @16 step-1M-212-6436 #
color-adesk-attrib $-1 -1 $291 $132 $85 254 #
truecolor-adesk-attrib $-1 -1 $292 $-1 $133 -1026765108 #
face $293 -1 $-1 $280 $294 $4 $-1 $295 reversed single #
loop $-1 -1 $-1 $-1 $259 $133 #
plane-surface $-1 -1 $-1 4.535000000000001 1.5000000000000002 1.6999999999999991 0 1.4954512723937993e-16 -1 0 1 1.4954512723937993e-16 forward_v I I I I #
coedge $-1 -1 $-1 $296 $297 $258 $298 reversed $134 $-1 #
coedge $-1 -1 $-1 $299 $136 $297 $300 reversed $86 $-1 #
coedge $-1 -1 $-1 $136 $299 $137 $211 forward $86 $-1 #
coedge $-1 -1 $-1 $139 $258 $136 $209 forward $43 $-1 #
edge $301 -1 $-1 $302 0 $213 0.0004999999999999999 $136 $303 forward @7 unknown #
coedge $-1 -1 $-1 $138 $137 $304 $305 forward $52 $-1 #
edge $306 -1 $-1 $307 0 $213 0.0003200000000000003 $137 $308 forward @7 unknown #
truecolor-adesk-attrib $-1 -1 $309 $-1 $140 -1026765108 #
vertex $-1 -1 $-1 $140 $310 #
straight-curve $-1 -1 $-1 4.2150000000000007 2 1.7750000000000017 0 0 -1000 F 0 F 0.00040000000000000007 #
coedge $-1 -1 $-1 $304 $146 $141 $216 forward $106 $-1 #
edge $311 -1 $-1 $149 -9.2592785787847955e-35 $218 0.00064999999999999943 $141 $312 forward @7 unknown #
truecolor-adesk-attrib $-1 -1 $313 $-1 $142 -1026765108 #
vertex $-1 -1 $-1 $142 $314 #
straight-curve $-1 -1 $-1 4.535000000000001 2 1.3750000000000016 -1000 0 0 F 0 F 0.0003200000000000003 #
color-adesk-attrib $-1 -1 $315 $143 $92 254 #
point $-1 -1 $-1 4.2150000000000007 2 1.3750000000000016 #
truecolor-adesk-attrib $-1 -1 $316 $-1 $147 -1026765108 #
ellipse-curve $-1 -1 $-1 4.535000000000001 2.6499999999999995 1.2250000000000019 1 0 0 0 0 -0.15000000000000019 1 F 1.5707963267948966 F 3.1415926535897931 #
color-adesk-attrib $-1 -1 $317 $148 $94 254 #
point $-1 -1 $-1 4.535000000000001 2.6499999999999995 1.375000000000002 #
DXID-attrib $-1 -1 $-1 $151 $58 @18 ASM_EDGE_FROM_STEP @5 13219 #
color-adesk-attrib $-1 -1 $318 $153 $99 254 #
DXID-attrib $-1 -1 $-1 $155 $60 @18 ASM_EDGE_FROM_STEP @4 3611 #
coedge $-1 -1 $-1 $158 $319 $320 $321 forward $106 $-1 #
coedge $-1 -1 $-1 $174 $163 $158 $231 reversed $175 $-1 #
edge $322 -1 $-1 $323 0 $166 0.00028284271247461874 $230 $324 forward @7 unknown #
coedge $-1 -1 $-1 $325 $159 $326 $327 forward $106 $-1 #
coedge $-1 -1 $-1 $159 $328 $329 $330 reversed $106 $-1 #
coedge $-1 -1 $-1 $331 $332 $159 $235 reversed $203 $-1 #
edge $333 -1 $-1 $334 0 $335 0.0023999999999999955 $234 $336 forward @7 unknown #
truecolor-adesk-attrib $-1 -1 $337 $-1 $160 -1026765108 #
plane-surface $-1 -1 $-1 4.535000000000001 2.6499999999999995 1.2250000000000019 1 0 0 0 0 -1 forward_v I I I I #
DXID-attrib $-1 -1 $-1 $161 $65 @18 ASM_EDGE_FROM_STEP @4 1051 #
truecolor-adesk-attrib $-1 -1 $338 $-1 $164 -1026765108 #
straight-curve $-1 -1 $-1 4.535000000000001 3.1000000000000001 0.20000000000000187 -1000 0 0 F 0 F 0.0003200000000000003 #
color-adesk-attrib $-1 -1 $339 $165 $112 254 #
point $-1 -1 $-1 4.535000000000001 3.1000000000000001 0.20000000000000187 #
color-adesk-attrib $-1 -1 $340 $168 $113 254 #
coedge $-1 -1 $-1 $267 $171 $341 $342 reversed $43 $-1 #
coedge $-1 -1 $-1 $343 $344 $171 $246 forward $345 $-1 #
edge $346 -1 $-1 $347 0 $251 0.00028284271247461967 $245 $348 forward @7 unknown #
coedge $-1 -1 $-1 $320 $172 $174 $253 reversed $249 $-1 #
coedge $-1 -1 $-1 $172 $320 $343 $349 forward $249 $-1 #
loop $-1 -1 $-1 $-1 $172 $350 #
truecolor-adesk-attrib $-1 -1 $351 $-1 $173 -1026765108 #
vertex $-1 -1 $-1 $246 $352 #
straight-curve $-1 -1 $-1 4.2150000000000007 2.4999999999999996 1.7347234759768071e-15 0 1000 1.3552527156068785e-13 F 0 F 0.00040000000000000062 #
edge $353 -1 $-1 $323 0 $177 0.0003200000000000003 $247 $354 forward @7 unknown #
face $355 -1 $-1 $113 $175 $4 $-1 $356 reversed single #
color-adesk-attrib $-1 -1 $357 $176 $118 254 #
point $-1 -1 $-1 4.2150000000000007 2.9000000000000004 1.7889335846010823e-15 #
DXID-attrib $-1 -1 $-1 $179 $76 @18 ASM_EDGE_FROM_STEP @4 3184 #
coedge $-1 -1 $-1 $208 $181 $205 $298 forward $43 $-1 #
coedge $-1 -1 $-1 $332 $331 $181 $260 forward $203 $-1 #
edge $358 -1 $-1 $359 0 $265 0.0023999999999999955 $259 $360 forward @7 unknown #
coedge $-1 -1 $-1 $361 $182 $362 $363 reversed $263 $-1 #
coedge $-1 -1 $-1 $182 $361 $364 $365 reversed $263 $-1 #
loop $-1 -1 $-1 $-1 $262 $287 #
truecolor-adesk-attrib $-1 -1 $366 $-1 $183 -1026765108 #
vertex $-1 -1 $-1 $260 $367 #
straight-curve $-1 -1 $-1 4.2150000000000007 -0.89999999999999325 1.2250000000000019 0 0 1000 F -0.0002750000000000037 F 0.00047499999999999653 #
coedge $-1 -1 $-1 $184 $244 $368 $369 reversed $43 $-1 #
coedge $-1 -1 $-1 $370 $371 $184 $269 forward $372 $-1 #
edge $373 -1 $-1 $274 0 $374 0.00059999999999999941 $268 $375 forward @7 unknown #
coedge $-1 -1 $-1 $376 $185 $371 $377 reversed $272 $-1 #
coedge $-1 -1 $-1 $185 $376 $187 $277 forward $272 $-1 #
loop $-1 -1 $-1 $-1 $185 $378 #
truecolor-adesk-attrib $-1 -1 $379 $-1 $186 -1026765108 #
vertex $-1 -1 $-1 $186 $380 #
straight-curve $-1 -1 $-1 4.2150000000000007 1.5000000000000002 0.9499999999999984 0 0 -1000 F 0 F 7.4999999999996456e-05 #
coedge $-1 -1 $-1 $188 $187 $325 $381 reversed $189 $-1 #
edge $382 -1 $-1 $383 0 $192 0.0003200000000000003 $187 $384 forward @7 unknown #
coedge $-1 -1 $-1 $385 $362 $188 $279 reversed $288 $-1 #
edge $386 -1 $-1 $387 0 $191 0.0003200000000000003 $188 $388 forward @7 unknown #
face $389 -1 $-1 $378 $189 $4 $-1 $390 reversed single #
color-adesk-attrib $-1 -1 $391 $190 $125 254 #
point $-1 -1 $-1 4.2150000000000007 -0.8999999999999958 0.94999999999999818 #
point $-1 -1 $-1 4.2150000000000007 1.5000000000000002 0.9499999999999984 #
DXID-attrib $-1 -1 $-1 $194 $78 @18 ASM_FACE_FROM_STEP @17 step-1M-212-14308 #
color-adesk-attrib $-1 -1 $392 $195 $127 254 #
truecolor-adesk-attrib $-1 -1 $393 $-1 $196 -1026765108 #
face $394 -1 $-1 $395 $263 $4 $-1 $396 reversed single #
loop $-1 -1 $-1 $-1 $278 $196 #
plane-surface $-1 -1 $-1 4.535000000000001 -0.8999999999999958 0.94999999999999818 0 0.33035042472810466 0.94385835636601789 -1 0 0 forward_v I I I I #
coedge $-1 -1 $-1 $397 $364 $398 $399 reversed $197 $-1 #
DXID-attrib $-1 -1 $-1 $200 $85 @18 ASM_FACE_FROM_STEP @17 step-1M-212-16201 #
color-adesk-attrib $-1 -1 $400 $201 $133 254 #
truecolor-adesk-attrib $-1 -1 $401 $-1 $202 -1026765108 #
loop $-1 -1 $-1 $-1 $402 $202 #
plane-surface $-1 -1 $-1 4.535000000000001 -1.4000000000000001 1.6999999999999984 0 1 0 0 0 1 forward_v I I I I #
coedge $-1 -1 $-1 $329 $205 $331 $403 reversed $134 $-1 #
coedge $-1 -1 $-1 $205 $329 $206 $300 forward $134 $-1 #
edge $404 -1 $-1 $359 0 $302 7.5000000000002839e-05 $205 $405 forward @7 unknown #
coedge $-1 -1 $-1 $207 $206 $328 $406 forward $86 $-1 #
edge $407 -1 $-1 $408 0 $302 0.0003200000000000003 $206 $409 forward @7 unknown #
truecolor-adesk-attrib $-1 -1 $410 $-1 $209 -1026765108 #
vertex $-1 -1 $-1 $209 $411 #
straight-curve $-1 -1 $-1 4.2150000000000007 1.5000000000000002 1.7750000000000019 0 1000 -4.3368086899420177e-13 F 0 F 0.0004999999999999999 #
coedge $-1 -1 $-1 $328 $215 $210 $305 reversed $106 $-1 #
edge $412 -1 $-1 $307 0 $218 0.00040000000000000007 $210 $413 forward @7 unknown #
truecolor-adesk-attrib $-1 -1 $414 $-1 $211 -1026765108 #
vertex $-1 -1 $-1 $211 $415 #
straight-curve $-1 -1 $-1 4.535000000000001 2 1.7750000000000017 -1000 0 0 F 0 F 0.0003200000000000003 #
color-adesk-attrib $-1 -1 $416 $212 $140 254 #
point $-1 -1 $-1 4.2150000000000007 2 1.7750000000000017 #
truecolor-adesk-attrib $-1 -1 $417 $-1 $216 -1026765108 #
straight-curve $-1 -1 $-1 4.535000000000001 2.6499999999999995 1.3750000000000018 0 -1000 -3.3360066845707855e-13 F -9.2592785787847955e-35 F 0.00064999999999999943 #
color-adesk-attrib $-1 -1 $418 $217 $142 254 #
point $-1 -1 $-1 4.535000000000001 2 1.3750000000000016 #
DXID-attrib $-1 -1 $-1 $220 $92 @18 ASM_EDGE_FROM_STEP @5 11758 #
color-adesk-attrib $-1 -1 $419 $222 $147 254 #
DXID-attrib $-1 -1 $-1 $224 $94 @18 ASM_EDGE_FROM_STEP @4 2198 #
DXID-attrib $-1 -1 $-1 $227 $99 @18 ASM_EDGE_FROM_STEP @4 7938 #
coedge $-1 -1 $-1 $229 $420 $421 $422 forward $106 $-1 #
coedge $-1 -1 $-1 $248 $247 $229 $321 reversed $249 $-1 #
edge $423 -1 $-1 $424 0 $323 0.00040000000000000062 $320 $425 forward @7 unknown #
truecolor-adesk-attrib $-1 -1 $426 $-1 $231 -1026765108 #
vertex $-1 -1 $-1 $253 $427 #
straight-curve $-1 -1 $-1 4.535000000000001 2.9000000000000004 1.7889335846010823e-15 0 707.10678118654619 707.10678118654914 F 0 F 0.00028284271247461874 #
coedge $-1 -1 $-1 $428 $232 $276 $381 forward $106 $-1 #
coedge $-1 -1 $-1 $429 $430 $232 $327 reversed $431 $-1 #
edge $432 -1 $-1 $335 -0.00057499999999999956 $387 0.0001750000000000007 $232 $433 forward @7 unknown #
coedge $-1 -1 $-1 $233 $304 $299 $406 reversed $106 $-1 #
coedge $-1 -1 $-1 $297 $296 $233 $330 forward $134 $-1 #
edge $434 -1 $-1 $334 0 $408 7.5000000000002839e-05 $329 $435 forward @7 unknown #
coedge $-1 -1 $-1 $259 $234 $296 $403 forward $203 $-1 #
coedge $-1 -1 $-1 $234 $259 $436 $437 forward $203 $-1 #
truecolor-adesk-attrib $-1 -1 $438 $-1 $235 -1026765108 #
vertex $-1 -1 $-1 $403 $439 #
vertex $-1 -1 $-1 $437 $440 #
straight-curve $-1 -1 $-1 4.535000000000001 1.5000000000000002 1.6999999999999991 0 -1000 -1.4954512723937991e-13 F 0 F 0.0023999999999999955 #
color-adesk-attrib $-1 -1 $441 $236 $160 254 #
color-adesk-attrib $-1 -1 $442 $239 $164 254 #
DXID-attrib $-1 -1 $-1 $241 $112 @18 ASM_EDGE_FROM_STEP @4 6635 #
DXID-attrib $-1 -1 $-1 $243 $113 @18 ASM_FACE_FROM_STEP @16 step-1M-212-2258 #
coedge $-1 -1 $-1 $443 $444 $244 $342 forward $445 $-1 #
edge $446 -1 $-1 $447 0 $347 0.00047499999999999957 $341 $448 forward @7 unknown #
coedge $-1 -1 $-1 $421 $245 $248 $349 reversed $345 $-1 #
coedge $-1 -1 $-1 $245 $421 $443 $449 forward $345 $-1 #
loop $-1 -1 $-1 $-1 $245 $450 #
truecolor-adesk-attrib $-1 -1 $451 $-1 $246 -1026765108 #
vertex $-1 -1 $-1 $342 $452 #
straight-curve $-1 -1 $-1 4.2150000000000007 2.2999999999999994 0.20000000000000254 0 707.1067811865463 -707.1067811865488 F 0 F 0.00028284271247461967 #
edge $453 -1 $-1 $424 0 $251 0.0003200000000000003 $343 $454 forward @7 unknown #
face $455 -1 $-1 $254 $249 $4 $-1 $456 reversed single #
color-adesk-attrib $-1 -1 $457 $250 $173 254 #
point $-1 -1 $-1 4.2150000000000007 2.4999999999999996 1.7347234759768071e-15 #
truecolor-adesk-attrib $-1 -1 $458 $-1 $253 -1026765108 #
straight-curve $-1 -1 $-1 4.535000000000001 2.9000000000000004 1.7889335846010823e-15 -1000 0 0 F 0 F 0.0003200000000000003 #
truecolor-adesk-attrib $-1 -1 $459 $-1 $254 -1026765108 #
plane-surface $-1 -1 $-1 4.535000000000001 2.9000000000000004 1.7889335846010823e-15 0 -0.70710678118654913 0.70710678118654591 0 -0.70710678118654602 -0.70710678118654924 forward_v I I I I #
DXID-attrib $-1 -1 $-1 $255 $118 @18 ASM_EDGE_FROM_STEP @4 9944 #
truecolor-adesk-attrib $-1 -1 $460 $-1 $260 -1026765108 #
vertex $-1 -1 $-1 $298 $461 #
straight-curve $-1 -1 $-1 4.2150000000000007 1.5000000000000002 1.6999999999999991 0 -1000 -1.4954512723937991e-13 F 0 F 0.0023999999999999955 #
coedge $-1 -1 $-1 $262 $261 $462 $463 reversed $263 $-1 #
coedge $-1 -1 $-1 $278 $464 $261 $363 forward $288 $-1 #
edge $465 -1 $-1 $466 -0.00047598085907398039 $191 6.5059804832166897e-05 $362 $467 forward @7 unknown #
coedge $-1 -1 $-1 $290 $436 $262 $365 forward $197 $-1 #
edge $468 -1 $-1 $265 -0.00058373616082725728 $469 -4.2695496921109597e-05 $364 $470 forward @7 unknown #
color-adesk-attrib $-1 -1 $471 $264 $183 254 #
point $-1 -1 $-1 4.2150000000000007 -0.89999999999999514 1.6999999999999984 #
coedge $-1 -1 $-1 $472 $473 $267 $369 forward $474 $-1 #
edge $475 -1 $-1 $374 0 $447 1.5707963267948966 $368 $476 forward @7 unknown #
coedge $-1 -1 $-1 $477 $268 $473 $478 reversed $372 $-1 #
coedge $-1 -1 $-1 $268 $477 $270 $377 forward $372 $-1 #
loop $-1 -1 $-1 $-1 $268 $479 #
truecolor-adesk-attrib $-1 -1 $480 $-1 $269 -1026765108 #
vertex $-1 -1 $-1 $269 $481 #
straight-curve $-1 -1 $-1 4.2150000000000007 1.5000000000000002 0.87500000000000189 0 1000 0 F 0 F 0.00059999999999999941 #
coedge $-1 -1 $-1 $271 $270 $428 $482 reversed $272 $-1 #
edge $483 -1 $-1 $484 0 $274 0.0003200000000000003 $270 $485 forward @7 unknown #
face $486 -1 $-1 $479 $272 $4 $-1 $487 reversed single #
color-adesk-attrib $-1 -1 $488 $273 $186 254 #
point $-1 -1 $-1 4.2150000000000007 1.5000000000000002 0.87500000000000189 #
edge $489 -1 $-1 $387 0.00050000000000000435 $383 0.0029000000000000002 $276 $490 forward @7 unknown #
truecolor-adesk-attrib $-1 -1 $491 $-1 $277 -1026765108 #
vertex $-1 -1 $-1 $381 $492 #
straight-curve $-1 -1 $-1 4.535000000000001 1.5000000000000002 0.9499999999999984 -1000 0 0 F 0 F 0.0003200000000000003 #
coedge $-1 -1 $-1 $464 $278 $430 $493 forward $288 $-1 #
truecolor-adesk-attrib $-1 -1 $494 $-1 $279 -1026765108 #
vertex $-1 -1 $-1 $381 $495 #
straight-curve $-1 -1 $-1 4.535000000000001 -0.8999999999999958 0.94999999999999818 -1000 0 0 F 0 F 0.0003200000000000003 #
truecolor-adesk-attrib $-1 -1 $496 $-1 $280 -1026765108 #
plane-surface $-1 -1 $-1 4.535000000000001 -1.4000000000000001 0.94999999999999818 0 -3.7386281809844982e-17 1 0 -1 -3.7386281809844982e-17 forward_v I I I I #
DXID-attrib $-1 -1 $-1 $281 $125 @18 ASM_EDGE_FROM_STEP @5 10584 #
DXID-attrib $-1 -1 $-1 $285 $127 @18 ASM_FACE_FROM_STEP @15 step-1M-212-231 #
color-adesk-attrib $-1 -1 $497 $286 $196 254 #
truecolor-adesk-attrib $-1 -1 $498 $-1 $287 -1026765108 #
face $499 -1 $-1 $-1 $431 $4 $-1 $500 forward single #
plane-surface $-1 -1 $-1 4.3250000000000011 -1.4000000000000001 1.6999999999999984 0.97664446670509064 0.21486178267511669 0 0 0 -1 forward_v I I I I #
coedge $-1 -1 $-1 $436 $290 $429 $501 forward $197 $-1 #
coedge $-1 -1 $-1 $462 $502 $290 $399 forward $294 $-1 #
edge $503 -1 $-1 $504 0.0001100000000000001 $469 0.0002100000000000002 $398 $505 forward @7 unknown #
DXID-attrib $-1 -1 $-1 $292 $133 @18 ASM_FACE_FROM_STEP @17 step-1M-212-10320 #
color-adesk-attrib $-1 -1 $506 $293 $202 254 #
coedge $-1 -1 $-1 $502 $462 $464 $507 forward $294 $-1 #
edge $508 -1 $-1 $334 0 $359 0.0003200000000000003 $296 $509 forward @7 unknown #
truecolor-adesk-attrib $-1 -1 $510 $-1 $298 -1026765108 #
straight-curve $-1 -1 $-1 4.2150000000000007 1.5000000000000002 1.6999999999999991 0 0 1000 F 0 F 7.5000000000002839e-05 #
edge $511 -1 $-1 $408 0 $307 0.0004999999999999999 $299 $512 forward @7 unknown #
truecolor-adesk-attrib $-1 -1 $513 $-1 $300 -1026765108 #
vertex $-1 -1 $-1 $300 $514 #
straight-curve $-1 -1 $-1 4.535000000000001 1.5000000000000002 1.7750000000000019 -1000 0 0 F 0 F 0.0003200000000000003 #
color-adesk-attrib $-1 -1 $515 $301 $209 254 #
point $-1 -1 $-1 4.2150000000000007 1.5000000000000002 1.7750000000000019 #
truecolor-adesk-attrib $-1 -1 $516 $-1 $305 -1026765108 #
straight-curve $-1 -1 $-1 4.535000000000001 2 1.7750000000000017 0 0 -1000 F 0 F 0.00040000000000000007 #
color-adesk-attrib $-1 -1 $517 $306 $211 254 #
point $-1 -1 $-1 4.535000000000001 2 1.7750000000000017 #
DXID-attrib $-1 -1 $-1 $309 $140 @18 ASM_EDGE_FROM_STEP @5 16225 #
color-adesk-attrib $-1 -1 $518 $311 $216 254 #
DXID-attrib $-1 -1 $-1 $313 $142 @18 ASM_EDGE_FROM_STEP @4 9503 #
DXID-attrib $-1 -1 $-1 $316 $147 @18 ASM_EDGE_FROM_STEP @4 7410 #
coedge $-1 -1 $-1 $319 $519 $520 $521 forward $106 $-1 #
coedge $-1 -1 $-1 $344 $343 $319 $422 reversed $345 $-1 #
edge $522 -1 $-1 $523 0 $424 0.00028284271247461967 $421 $524 forward @7 unknown #
truecolor-adesk-attrib $-1 -1 $525 $-1 $321 -1026765108 #
vertex $-1 -1 $-1 $349 $526 #
straight-curve $-1 -1 $-1 4.535000000000001 2.4999999999999996 1.7347234759768071e-15 0 1000 1.3552527156068785e-13 F 0 F 0.00040000000000000062 #
color-adesk-attrib $-1 -1 $527 $322 $231 254 #
point $-1 -1 $-1 4.535000000000001 2.9000000000000004 1.7889335846010823e-15 #
coedge $-1 -1 $-1 $528 $325 $376 $482 forward $106 $-1 #
coedge $-1 -1 $-1 $529 $326 $397 $501 reversed $431 $-1 #
coedge $-1 -1 $-1 $326 $529 $385 $493 reversed $431 $-1 #
loop $-1 -1 $-1 $-1 $429 $395 #
truecolor-adesk-attrib $-1 -1 $530 $-1 $327 -1026765108 #
straight-curve $-1 -1 $-1 4.535000000000001 -0.89999999999999147 1.1249999999999989 0 0 -1000 F -0.00057499999999999956 F 0.0001750000000000007 #
truecolor-adesk-attrib $-1 -1 $531 $-1 $330 -1026765108 #
straight-curve $-1 -1 $-1 4.535000000000001 1.5000000000000002 1.6999999999999991 0 0 1000 F 0 F 7.5000000000002839e-05 #
coedge $-1 -1 $-1 $364 $397 $332 $437 reversed $197 $-1 #
edge $532 -1 $-1 $265 -0.0003200000000000003 $335 0 $332 $533 forward @7 unknown #
color-adesk-attrib $-1 -1 $534 $333 $235 254 #
point $-1 -1 $-1 4.535000000000001 1.5000000000000002 1.6999999999999991 #
point $-1 -1 $-1 4.535000000000001 -0.89999999999999514 1.6999999999999984 #
DXID-attrib $-1 -1 $-1 $337 $160 @18 ASM_FACE_FROM_STEP @16 step-1M-212-1037 #
DXID-attrib $-1 -1 $-1 $338 $164 @18 ASM_EDGE_FROM_STEP @5 14196 #
coedge $-1 -1 $-1 $520 $341 $344 $449 reversed $445 $-1 #
coedge $-1 -1 $-1 $341 $520 $472 $535 forward $445 $-1 #
loop $-1 -1 $-1 $-1 $341 $536 #
truecolor-adesk-attrib $-1 -1 $537 $-1 $342 -1026765108 #
vertex $-1 -1 $-1 $369 $538 #
straight-curve $-1 -1 $-1 4.2150000000000007 2.2999999999999994 0.67500000000000215 0 0 -1000 F 0 F 0.00047499999999999957 #
edge $539 -1 $-1 $523 0 $347 0.0003200000000000003 $443 $540 forward @7 unknown #
face $541 -1 $-1 $350 $345 $4 $-1 $542 reversed single #
color-adesk-attrib $-1 -1 $543 $346 $246 254 #
point $-1 -1 $-1 4.2150000000000007 2.2999999999999994 0.20000000000000254 #
truecolor-adesk-attrib $-1 -1 $544 $-1 $349 -1026765108 #
straight-curve $-1 -1 $-1 4.535000000000001 2.4999999999999996 1.7347234759768071e-15 -1000 0 0 F 0 F 0.0003200000000000003 #
truecolor-adesk-attrib $-1 -1 $545 $-1 $350 -1026765108 #
plane-surface $-1 -1 $-1 4.535000000000001 2.4999999999999996 1.7347234759768071e-15 0 -1.3552527156068788e-16 1 0 -1 -1.3552527156068788e-16 forward_v I I I I #
DXID-attrib $-1 -1 $-1 $351 $173 @18 ASM_EDGE_FROM_STEP @4 4409 #
color-adesk-attrib $-1 -1 $546 $353 $253 254 #
color-adesk-attrib $-1 -1 $547 $355 $254 254 #
color-adesk-attrib $-1 -1 $548 $358 $260 254 #
point $-1 -1 $-1 4.2150000000000007 1.5000000000000002 1.6999999999999991 #
coedge $-1 -1 $-1 $402 $398 $361 $463 forward $294 $-1 #
edge $549 -1 $-1 $469 0.00017500000000000016 $466 0.00057499999999999956 $462 $550 forward @7 unknown #
coedge $-1 -1 $-1 $362 $385 $402 $507 reversed $288 $-1 #
truecolor-adesk-attrib $-1 -1 $551 $-1 $363 -1026765108 #
vertex $-1 -1 $-1 $507 $552 #
straight-curve $-1 -1 $-1 4.2282274318900006 -0.9601246904090821 0.97104364164317836 -203.31189010052069 924.14495500238058 -323.45073425083166 F -0.00047598085907398039 F 6.5059804832166897e-05 #
truecolor-adesk-attrib $-1 -1 $553 $-1 $365 -1026765108 #
vertex $-1 -1 $-1 $399 $554 #
straight-curve $-1 -1 $-1 4.3336805021778124 -1.4394568280809632 1.5111901101716612 203.31189010052071 -924.14495500238081 -323.45073425083058 F -0.00058373616082725728 F -4.2695496921109597e-05 #
DXID-attrib $-1 -1 $-1 $366 $183 @18 ASM_EDGE_FROM_STEP @4 6141 #
coedge $-1 -1 $-1 $555 $368 $444 $535 reversed $474 $-1 #
coedge $-1 -1 $-1 $368 $555 $370 $478 forward $474 $-1 #
loop $-1 -1 $-1 $-1 $368 $556 #
truecolor-adesk-attrib $-1 -1 $557 $-1 $369 -1026765108 #
ellipse-curve $-1 -1 $-1 4.2150000000000007 2.0999999999999996 0.67500000000000215 -1 0 0 0 0 0.1999999999999999 1 F 0 F 1.5707963267948966 #
coedge $-1 -1 $-1 $371 $370 $528 $558 reversed $372 $-1 #
edge $559 -1 $-1 $560 0 $374 0.0003200000000000003 $370 $561 forward @7 unknown #
face $562 -1 $-1 $556 $372 $4 $-1 $563 reversed single #
color-adesk-attrib $-1 -1 $564 $373 $269 254 #
point $-1 -1 $-1 4.2150000000000007 2.0999999999999996 0.87500000000000189 #
edge $565 -1 $-1 $383 0 $484 7.4999999999996456e-05 $376 $566 forward @7 unknown #
truecolor-adesk-attrib $-1 -1 $567 $-1 $377 -1026765108 #
vertex $-1 -1 $-1 $377 $568 #
straight-curve $-1 -1 $-1 4.535000000000001 1.5000000000000002 0.87500000000000189 -1000 0 0 F 0 F 0.0003200000000000003 #
truecolor-adesk-attrib $-1 -1 $569 $-1 $378 -1026765108 #
plane-surface $-1 -1 $-1 4.535000000000001 1.5000000000000002 0.9499999999999984 0 1 0 0 0 1 forward_v I I I I #
DXID-attrib $-1 -1 $-1 $379 $186 @18 ASM_EDGE_FROM_STEP @5 14827 #
truecolor-adesk-attrib $-1 -1 $570 $-1 $381 -1026765108 #
straight-curve $-1 -1 $-1 4.535000000000001 -1.4000000000000001 0.94999999999999818 0 1000 3.7386281809844977e-14 F 0.00050000000000000435 F 0.0029000000000000002 #
color-adesk-attrib $-1 -1 $571 $382 $277 254 #
point $-1 -1 $-1 4.535000000000001 1.5000000000000002 0.9499999999999984 #
edge $572 -1 $-1 $387 -1.8083373500750838e-19 $573 0.00054104066390614708 $385 $574 forward @7 unknown #
color-adesk-attrib $-1 -1 $575 $386 $279 254 #
point $-1 -1 $-1 4.535000000000001 -0.8999999999999958 0.94999999999999818 #
color-adesk-attrib $-1 -1 $576 $389 $280 254 #
DXID-attrib $-1 -1 $-1 $393 $196 @18 ASM_FACE_FROM_STEP @17 step-1M-212-13567 #
color-adesk-attrib $-1 -1 $577 $394 $287 254 #
truecolor-adesk-attrib $-1 -1 $578 $-1 $395 -1026765108 #
plane-surface $-1 -1 $-1 4.535000000000001 -0.89999999999999147 1.2250000000000019 0.97664446670509086 -0.21486178267511596 0 0 0 1 forward_v I I I I #
edge $579 -1 $-1 $504 -2.2364307911056818e-05 $335 0.00051867635599509086 $397 $580 forward @7 unknown #
coedge $-1 -1 $-1 $398 $402 $529 $581 forward $294 $-1 #
truecolor-adesk-attrib $-1 -1 $582 $-1 $399 -1026765108 #
vertex $-1 -1 $-1 $581 $583 #
straight-curve $-1 -1 $-1 4.535000000000001 -1.4000000000000001 1.5249999999999984 -1000 0 0 F 0.0001100000000000001 F 0.0002100000000000002 #
DXID-attrib $-1 -1 $-1 $401 $202 @18 ASM_FACE_FROM_STEP @17 step-1M-212-16432 #
edge $584 -1 $-1 $466 -0.0002100000000000002 $573 -0.0001100000000000001 $402 $585 forward @7 unknown #
truecolor-adesk-attrib $-1 -1 $586 $-1 $403 -1026765108 #
straight-curve $-1 -1 $-1 4.535000000000001 1.5000000000000002 1.6999999999999991 -1000 0 0 F 0 F 0.0003200000000000003 #
color-adesk-attrib $-1 -1 $587 $404 $298 254 #
truecolor-adesk-attrib $-1 -1 $588 $-1 $406 -1026765108 #
straight-curve $-1 -1 $-1 4.535000000000001 1.5000000000000002 1.7750000000000019 0 1000 -4.3368086899420177e-13 F 0 F 0.0004999999999999999 #
color-adesk-attrib $-1 -1 $589 $407 $300 254 #
point $-1 -1 $-1 4.535000000000001 1.5000000000000002 1.7750000000000019 #
DXID-attrib $-1 -1 $-1 $410 $209 @18 ASM_EDGE_FROM_STEP @4 8742 #
color-adesk-attrib $-1 -1 $590 $412 $305 254 #
DXID-attrib $-1 -1 $-1 $414 $211 @18 ASM_EDGE_FROM_STEP @2 48 #
DXID-attrib $-1 -1 $-1 $417 $216 @18 ASM_EDGE_FROM_STEP @5 12888 #
coedge $-1 -1 $-1 $420 $528 $555 $591 forward $106 $-1 #
coedge $-1 -1 $-1 $444 $443 $420 $521 reversed $445 $-1 #
edge $592 -1 $-1 $593 0 $523 0.00047499999999999957 $520 $594 forward @7 unknown #
truecolor-adesk-attrib $-1 -1 $595 $-1 $422 -1026765108 #
vertex $-1 -1 $-1 $449 $596 #
straight-curve $-1 -1 $-1 4.535000000000001 2.2999999999999994 0.20000000000000254 0 707.1067811865463 -707.1067811865488 F 0 F 0.00028284271247461967 #
color-adesk-attrib $-1 -1 $597 $423 $321 254 #
point $-1 -1 $-1 4.535000000000001 2.4999999999999996 1.7347234759768071e-15 #
DXID-attrib $-1 -1 $-1 $426 $231 @18 ASM_EDGE_FROM_STEP @5 15037 #
coedge $-1 -1 $-1 $519 $428 $477 $558 forward $106 $-1 #
coedge $-1 -1 $-1 $430 $429 $502 $581 reversed $431 $-1 #
color-adesk-attrib $-1 -1 $598 $432 $327 254 #
color-adesk-attrib $-1 -1 $599 $434 $330 254 #
truecolor-adesk-attrib $-1 -1 $600 $-1 $437 -1026765108 #
straight-curve $-1 -1 $-1 4.535000000000001 -0.89999999999999514 1.6999999999999984 1000 0 0 F -0.0003200000000000003 F 0 #
DXID-attrib $-1 -1 $-1 $438 $235 @18 ASM_EDGE_FROM_STEP @3 382 #
edge $601 -1 $-1 $593 0 $447 0.0003200000000000003 $472 $602 forward @7 unknown #
face $603 -1 $-1 $450 $445 $4 $-1 $604 reversed single #
color-adesk-attrib $-1 -1 $605 $446 $342 254 #
point $-1 -1 $-1 4.2150000000000007 2.2999999999999994 0.67500000000000215 #
truecolor-adesk-attrib $-1 -1 $606 $-1 $449 -1026765108 #
straight-curve $-1 -1 $-1 4.535000000000001 2.2999999999999994 0.20000000000000254 -1000 0 0 F 0 F 0.0003200000000000003 #
truecolor-adesk-attrib $-1 -1 $607 $-1 $450 -1026765108 #
plane-surface $-1 -1 $-1 4.535000000000001 2.2999999999999994 0.20000000000000254 0 0.70710678118654891 0.70710678118654624 0 -0.70710678118654624 0.70710678118654891 forward_v I I I I #
DXID-attrib $-1 -1 $-1 $451 $246 @18 ASM_EDGE_FROM_STEP @4 4950 #
color-adesk-attrib $-1 -1 $608 $453 $349 254 #
color-adesk-attrib $-1 -1 $609 $455 $350 254 #
DXID-attrib $-1 -1 $-1 $458 $253 @18 ASM_EDGE_FROM_STEP @4 3043 #
DXID-attrib $-1 -1 $-1 $459 $254 @18 ASM_FACE_FROM_STEP @17 step-1M-212-10570 #
DXID-attrib $-1 -1 $-1 $460 $260 @18 ASM_EDGE_FROM_STEP @4 9818 #
truecolor-adesk-attrib $-1 -1 $610 $-1 $463 -1026765108 #
straight-curve $-1 -1 $-1 4.3250000000000011 -1.4000000000000001 1.6999999999999984 0 0 -1000 F 0.00017500000000000016 F 0.00057499999999999956 #
color-adesk-attrib $-1 -1 $611 $465 $363 254 #
point $-1 -1 $-1 4.3250000000000011 -1.4000000000000001 1.1249999999999989 #
color-adesk-attrib $-1 -1 $612 $468 $365 254 #
point $-1 -1 $-1 4.3250000000000011 -1.4000000000000001 1.5249999999999984 #
coedge $-1 -1 $-1 $473 $472 $519 $591 reversed $474 $-1 #
face $613 -1 $-1 $536 $474 $4 $-1 $614 reversed single #
color-adesk-attrib $-1 -1 $615 $475 $369 254 #
edge $616 -1 $-1 $484 0 $560 0.00059999999999999941 $477 $617 forward @7 unknown #
truecolor-adesk-attrib $-1 -1 $618 $-1 $478 -1026765108 #
vertex $-1 -1 $-1 $478 $619 #
straight-curve $-1 -1 $-1 4.535000000000001 2.0999999999999996 0.87500000000000189 -1000 0 0 F 0 F 0.0003200000000000003 #
truecolor-adesk-attrib $-1 -1 $620 $-1 $479 -1026765108 #
plane-surface $-1 -1 $-1 4.535000000000001 1.5000000000000002 0.87500000000000189 0 0 1 1 0 0 forward_v I I I I #
DXID-attrib $-1 -1 $-1 $480 $269 @18 ASM_EDGE_FROM_STEP @4 9862 #
truecolor-adesk-attrib $-1 -1 $621 $-1 $482 -1026765108 #
straight-curve $-1 -1 $-1 4.535000000000001 1.5000000000000002 0.9499999999999984 0 0 -1000 F 0 F 7.4999999999996456e-05 #
color-adesk-attrib $-1 -1 $622 $483 $377 254 #
point $-1 -1 $-1 4.535000000000001 1.5000000000000002 0.87500000000000189 #
color-adesk-attrib $-1 -1 $623 $486 $378 254 #
color-adesk-attrib $-1 -1 $624 $489 $381 254 #
DXID-attrib $-1 -1 $-1 $491 $277 @18 ASM_EDGE_FROM_STEP @5 13097 #
truecolor-adesk-attrib $-1 -1 $625 $-1 $493 -1026765108 #
vertex $-1 -1 $-1 $507 $626 #
straight-curve $-1 -1 $-1 4.5350000000000001 -0.8999999999999958 0.94999999999999807 -203.31189010051997 -924.14495500238081 323.45073425083172 F -1.8083373500750838e-19 F 0.00054104066390614708 #
DXID-attrib $-1 -1 $-1 $494 $279 @18 ASM_EDGE_FROM_STEP @4 7122 #
DXID-attrib $-1 -1 $-1 $496 $280 @18 ASM_FACE_FROM_STEP @17 step-1M-212-14993 #
DXID-attrib $-1 -1 $-1 $498 $287 @18 ASM_FACE_FROM_STEP @16 step-1M-212-4757 #
color-adesk-attrib $-1 -1 $627 $499 $395 254 #
truecolor-adesk-attrib $-1 -1 $628 $-1 $501 -1026765108 #
straight-curve $-1 -1 $-1 4.4295469297121874 -1.379332137671877 1.5322337518148412 203.31189010052003 924.14495500238104 323.45073425083069 F -2.2364307911056818e-05 F 0.00051867635599509086 #
edge $629 -1 $-1 $573 -0.00039999999999999937 $504 0 $502 $630 forward @7 unknown #
color-adesk-attrib $-1 -1 $631 $503 $399 254 #
point $-1 -1 $-1 4.4250000000000007 -1.4000000000000001 1.5249999999999984 #
truecolor-adesk-attrib $-1 -1 $632 $-1 $507 -1026765108 #
straight-curve $-1 -1 $-1 4.535000000000001 -1.4000000000000001 1.1249999999999989 1000 0 0 F -0.0002100000000000002 F -0.0001100000000000001 #
color-adesk-attrib $-1 -1 $633 $508 $403 254 #
DXID-attrib $-1 -1 $-1 $510 $298 @18 ASM_EDGE_FROM_STEP @5 12556 #
color-adesk-attrib $-1 -1 $634 $511 $406 254 #
DXID-attrib $-1 -1 $-1 $513 $300 @18 ASM_EDGE_FROM_STEP @5 15608 #
DXID-attrib $-1 -1 $-1 $516 $305 @18 ASM_EDGE_FROM_STEP @4 6191 #
edge $635 -1 $-1 $560 0 $593 1.5707963267948966 $555 $636 forward @7 unknown #
truecolor-adesk-attrib $-1 -1 $637 $-1 $521 -1026765108 #
vertex $-1 -1 $-1 $535 $638 #
straight-curve $-1 -1 $-1 4.535000000000001 2.2999999999999994 0.67500000000000215 0 0 -1000 F 0 F 0.00047499999999999957 #
color-adesk-attrib $-1 -1 $639 $522 $422 254 #
point $-1 -1 $-1 4.535000000000001 2.2999999999999994 0.20000000000000254 #
DXID-attrib $-1 -1 $-1 $525 $321 @18 ASM_EDGE_FROM_STEP @4 6469 #
DXID-attrib $-1 -1 $-1 $530 $327 @18 ASM_EDGE_FROM_STEP @5 12722 #
DXID-attrib $-1 -1 $-1 $531 $330 @18 ASM_EDGE_FROM_STEP @5 16643 #
color-adesk-attrib $-1 -1 $640 $532 $437 254 #
truecolor-adesk-attrib $-1 -1 $641 $-1 $535 -1026765108 #
straight-curve $-1 -1 $-1 4.535000000000001 2.2999999999999994 0.67500000000000215 -1000 0 0 F 0 F 0.0003200000000000003 #
truecolor-adesk-attrib $-1 -1 $642 $-1 $536 -1026765108 #
plane-surface $-1 -1 $-1 4.535000000000001 2.2999999999999994 0.67500000000000215 0 1 0 0 0 1 forward_v I I I I #
DXID-attrib $-1 -1 $-1 $537 $342 @18 ASM_EDGE_FROM_STEP @4 9173 #
color-adesk-attrib $-1 -1 $643 $539 $449 254 #
color-adesk-attrib $-1 -1 $644 $541 $450 254 #
DXID-attrib $-1 -1 $-1 $544 $349 @18 ASM_EDGE_FROM_STEP @5 10280 #
DXID-attrib $-1 -1 $-1 $545 $350 @18 ASM_FACE_FROM_STEP @16 step-1M-212-2014 #
color-adesk-attrib $-1 -1 $645 $549 $463 254 #
DXID-attrib $-1 -1 $-1 $551 $363 @18 ASM_EDGE_FROM_STEP @4 6824 #
DXID-attrib $-1 -1 $-1 $553 $365 @18 ASM_EDGE_FROM_STEP @5 10374 #
truecolor-adesk-attrib $-1 -1 $646 $-1 $556 -1026765108 #
cone-surface $-1 -1 $-1 4.535000000000001 2.0999999999999996 0.67500000000000215 -1 0 0 0 0 0.1999999999999999 1 I I 0 1 0.1999999999999999 forward I I I I #
DXID-attrib $-1 -1 $-1 $557 $369 @18 ASM_EDGE_FROM_STEP @5 11041 #
truecolor-adesk-attrib $-1 -1 $647 $-1 $558 -1026765108 #
straight-curve $-1 -1 $-1 4.535000000000001 1.5000000000000002 0.87500000000000189 0 1000 0 F 0 F 0.00059999999999999941 #
color-adesk-attrib $-1 -1 $648 $559 $478 254 #
point $-1 -1 $-1 4.535000000000001 2.0999999999999996 0.87500000000000189 #
color-adesk-attrib $-1 -1 $649 $562 $479 254 #
color-adesk-attrib $-1 -1 $650 $565 $482 254 #
DXID-attrib $-1 -1 $-1 $567 $377 @18 ASM_EDGE_FROM_STEP @4 2085 #
DXID-attrib $-1 -1 $-1 $569 $378 @18 ASM_FACE_FROM_STEP @16 step-1M-212-9053 #
DXID-attrib $-1 -1 $-1 $570 $381 @18 ASM_EDGE_FROM_STEP @4 8532 #
color-adesk-attrib $-1 -1 $651 $572 $493 254 #
point $-1 -1 $-1 4.4250000000000007 -1.4000000000000001 1.1249999999999989 #
DXID-attrib $-1 -1 $-1 $578 $395 @18 ASM_FACE_FROM_STEP @16 step-1M-212-3565 #
color-adesk-attrib $-1 -1 $652 $579 $501 254 #
truecolor-adesk-attrib $-1 -1 $653 $-1 $581 -1026765108 #
straight-curve $-1 -1 $-1 4.4250000000000007 -1.4000000000000001 1.5249999999999984 0 0 1000 F -0.00039999999999999937 F 0 #
DXID-attrib $-1 -1 $-1 $582 $399 @18 ASM_EDGE_FROM_STEP @5 16032 #
color-adesk-attrib $-1 -1 $654 $584 $507 254 #
DXID-attrib $-1 -1 $-1 $586 $403 @18 ASM_EDGE_FROM_STEP @5 14178 #
DXID-attrib $-1 -1 $-1 $588 $406 @18 ASM_EDGE_FROM_STEP @4 9154 #
truecolor-adesk-attrib $-1 -1 $655 $-1 $591 -1026765108 #
ellipse-curve $-1 -1 $-1 4.535000000000001 2.0999999999999996 0.67500000000000215 -1 0 0 0 0 0.1999999999999999 1 F 0 F 1.5707963267948966 #
color-adesk-attrib $-1 -1 $656 $592 $521 254 #
point $-1 -1 $-1 4.535000000000001 2.2999999999999994 0.67500000000000215 #
DXID-attrib $-1 -1 $-1 $595 $422 @18 ASM_EDGE_FROM_STEP @2 70 #
DXID-attrib $-1 -1 $-1 $600 $437 @18 ASM_EDGE_FROM_STEP @5 14056 #
color-adesk-attrib $-1 -1 $657 $601 $535 254 #
color-adesk-attrib $-1 -1 $658 $603 $536 254 #
DXID-attrib $-1 -1 $-1 $606 $449 @18 ASM_EDGE_FROM_STEP @5 12583 #
DXID-attrib $-1 -1 $-1 $607 $450 @18 ASM_FACE_FROM_STEP @16 step-1M-212-2712 #
DXID-attrib $-1 -1 $-1 $610 $463 @18 ASM_EDGE_FROM_STEP @4 3329 #
color-adesk-attrib $-1 -1 $659 $613 $556 254 #
color-adesk-attrib $-1 -1 $660 $616 $558 254 #
DXID-attrib $-1 -1 $-1 $618 $478 @18 ASM_EDGE_FROM_STEP @4 5915 #
DXID-attrib $-1 -1 $-1 $620 $479 @18 ASM_FACE_FROM_STEP @16 step-1M-212-3068 #
DXID-attrib $-1 -1 $-1 $621 $482 @18 ASM_EDGE_FROM_STEP @4 6414 #
DXID-attrib $-1 -1 $-1 $625 $493 @18 ASM_EDGE_FROM_STEP @5 12897 #
DXID-attrib $-1 -1 $-1 $628 $501 @18 ASM_EDGE_FROM_STEP @4 8705 #
color-adesk-attrib $-1 -1 $661 $629 $581 254 #
DXID-attrib $-1 -1 $-1 $632 $507 @18 ASM_EDGE_FROM_STEP @4 4726 #
color-adesk-attrib $-1 -1 $662 $635 $591 254 #
DXID-attrib $-1 -1 $-1 $637 $521 @18 ASM_EDGE_FROM_STEP @4 1493 #
DXID-attrib $-1 -1 $-1 $641 $535 @18 ASM_EDGE_FROM_STEP @5 12679 #
DXID-attrib $-1 -1 $-1 $642 $536 @18 ASM_FACE_FROM_STEP @17 step-1M-212-12563 #
DXID-attrib $-1 -1 $-1 $646 $556 @18 ASM_FACE_FROM_STEP @16 step-1M-212-2332 #
DXID-attrib $-1 -1 $-1 $647 $558 @18 ASM_EDGE_FROM_STEP @4 9382 #
DXID-attrib $-1 -1 $-1 $653 $581 @18 ASM_EDGE_FROM_STEP @4 8277 #
DXID-attrib $-1 -1 $-1 $655 $591 @18 ASM_EDGE_FROM_STEP @5 16021 #
