700 209 1 0         
5 ZWCAD 12 ACIS 28.0 NT 24 Sat May 11 14:41:34 2024 
1 9.9999999999999995e-07 1e-10 
body $1 -1 $-1 $2 $-1 $-1 #
DXID-attrib $-1 -1 $-1 $-1 $0 @18 ASM_BODY_FROM_STEP @83 57E1CBE2E9FBDE0F2513C7D8794223DB47C0EAB4|:|964C7B8CAEC018E2815A933DC77256F5A590C22F #
lump $-1 -1 $-1 $-1 $3 $0 #
shell $-1 -1 $-1 $-1 $-1 $4 $-1 $2 #
face $5 -1 $-1 $6 $7 $3 $-1 $8 reversed single #
truecolor-adesk-attrib $-1 -1 $9 $-1 $4 -1024534343 #
face $10 -1 $-1 $11 $12 $3 $-1 $13 reversed single #
loop $-1 -1 $-1 $-1 $14 $4 #
cone-surface $-1 -1 $-1 2960.973403967123 1646.6060729542714 9.5249999999995225 1.0000000000000002 -1.1102230246251605e-16 0 0 9.7837241174871562e-33 -2.7781250000000255 1 I I 0 1 2.778125000000025 forward I I I I #
DXID-attrib $-1 -1 $-1 $5 $4 @18 ASM_FACE_FROM_STEP @16 step-1M-587-8515 #
truecolor-adesk-attrib $-1 -1 $15 $-1 $6 -1024534343 #
face $16 -1 $-1 $17 $18 $3 $-1 $19 reversed single #
loop $-1 -1 $-1 $-1 $20 $6 #
cone-surface $-1 -1 $-1 2960.973403967123 1325.9310729542713 9.5249999999995225 1.0000000000000002 -1.1102230246251605e-16 0 0 9.7837241174871562e-33 -2.7781250000000255 1 I I 0 1 2.778125000000025 forward I I I I #
coedge $-1 -1 $-1 $21 $22 $23 $24 reversed $7 $-1 #
DXID-attrib $-1 -1 $-1 $10 $6 @18 ASM_FACE_FROM_STEP @16 step-1M-587-8516 #
truecolor-adesk-attrib $-1 -1 $25 $-1 $11 -1024534343 #
face $26 -1 $-1 $27 $28 $3 $-1 $29 forward single #
loop $-1 -1 $-1 $-1 $30 $11 #
cone-surface $-1 -1 $-1 2960.973403967123 1005.2560729542715 9.5249999999995225 1.0000000000000002 -1.1102230246251605e-16 0 0 9.7837241174871562e-33 -2.7781250000000255 1 I I 0 1 2.778125000000025 forward I I I I #
coedge $-1 -1 $-1 $31 $32 $33 $34 reversed $12 $-1 #
coedge $-1 -1 $-1 $35 $14 $22 $36 forward $7 $-1 #
coedge $-1 -1 $-1 $14 $35 $21 $36 reversed $7 $-1 #
coedge $-1 -1 $-1 $23 $23 $14 $24 forward $37 $-1 #
edge $38 -1 $-1 $39 -3.1415926535897931 $39 3.1415926535897931 $14 $40 forward @7 unknown #
DXID-attrib $-1 -1 $-1 $16 $11 @18 ASM_FACE_FROM_STEP @16 step-1M-587-8517 #
truecolor-adesk-attrib $-1 -1 $41 $-1 $17 -1024534343 #
face $42 -1 $-1 $43 $44 $3 $-1 $45 reversed single #
loop $-1 -1 $-1 $-1 $46 $17 #
plane-surface $-1 -1 $-1 2992.7234039671239 1325.9310729542713 6.8212102632969618e-13 -5.5511151231257827e-17 9.2444637330587321e-33 -1 -2.8199664825479065e-15 -25.399999999999995 -7.826979293989725e-32 forward_v I I I I #
coedge $-1 -1 $-1 $47 $48 $49 $50 reversed $18 $-1 #
coedge $-1 -1 $-1 $51 $20 $32 $52 forward $12 $-1 #
coedge $-1 -1 $-1 $20 $51 $31 $52 reversed $12 $-1 #
coedge $-1 -1 $-1 $33 $33 $20 $34 forward $53 $-1 #
edge $54 -1 $-1 $55 -3.1415926535897931 $55 3.1415926535897931 $20 $56 forward @7 unknown #
coedge $-1 -1 $-1 $22 $21 $57 $58 reversed $7 $-1 #
edge $59 -1 $-1 $39 0 $60 22.857142857142417 $21 $61 forward @7 unknown #
loop $-1 -1 $-1 $53 $23 $62 #
truecolor-adesk-attrib $-1 -1 $63 $-1 $24 -1024534343 #
vertex $-1 -1 $-1 $24 $64 #
ellipse-curve $-1 -1 $-1 2960.973403967123 1646.6060729542714 9.5249999999995225 1.0000000000000002 -1.1102230246251605e-16 0 0 9.7837241174871562e-33 -2.7781250000000255 1 I I #
DXID-attrib $-1 -1 $-1 $26 $17 @18 ASM_FACE_FROM_STEP @16 step-1M-587-8518 #
truecolor-adesk-attrib $-1 -1 $65 $-1 $27 -1024534343 #
face $66 -1 $-1 $67 $68 $3 $-1 $69 reversed single #
loop $-1 -1 $-1 $-1 $70 $27 #
plane-surface $-1 -1 $-1 2992.7234039671243 1325.9310729542713 19.049999999999329 -5.5511151231257827e-17 9.2444637330587321e-33 -1 -2.8199664825479065e-15 -25.399999999999995 -7.826979293989725e-32 forward_v I I I I #
coedge $-1 -1 $-1 $71 $72 $73 $74 forward $28 $-1 #
coedge $-1 -1 $-1 $75 $30 $48 $76 forward $18 $-1 #
coedge $-1 -1 $-1 $30 $75 $47 $76 reversed $18 $-1 #
coedge $-1 -1 $-1 $49 $49 $30 $50 forward $77 $-1 #
edge $78 -1 $-1 $79 -3.1415926535897931 $79 3.1415926535897931 $30 $80 forward @7 unknown #
coedge $-1 -1 $-1 $32 $31 $81 $82 reversed $12 $-1 #
edge $83 -1 $-1 $55 0 $84 22.857142857142417 $31 $85 forward @7 unknown #
loop $-1 -1 $-1 $77 $33 $62 #
truecolor-adesk-attrib $-1 -1 $86 $-1 $34 -1024534343 #
vertex $-1 -1 $-1 $34 $87 #
ellipse-curve $-1 -1 $-1 2960.973403967123 1325.9310729542713 9.5249999999995225 1.0000000000000002 -1.1102230246251605e-16 0 0 9.7837241174871562e-33 -2.7781250000000255 1 I I #
coedge $-1 -1 $-1 $57 $57 $35 $58 forward $88 $-1 #
edge $89 -1 $-1 $60 -3.1415926535897931 $60 3.1415926535897931 $35 $90 forward @7 unknown #
truecolor-adesk-attrib $-1 -1 $91 $-1 $36 -1024534343 #
vertex $-1 -1 $-1 $36 $92 #
straight-curve $-1 -1 $-1 2960.973403967123 1646.6060729542714 12.303124999999227 2.7781250000000246 -3.0843383402868007e-16 -8.8123952579621783e-17 F 0 F 22.857142857142417 #
face $93 -1 $-1 $94 $95 $3 $-1 $96 reversed single #
DXID-attrib $-1 -1 $-1 $38 $24 @18 ASM_EDGE_FROM_STEP @4 5332 #
point $-1 -1 $-1 2960.973403967123 1646.6060729542714 12.303124999999227 #
DXID-attrib $-1 -1 $-1 $42 $27 @18 ASM_FACE_FROM_STEP @16 step-1M-587-8519 #
truecolor-adesk-attrib $-1 -1 $97 $-1 $43 -1024534343 #
face $98 -1 $-1 $62 $99 $3 $-1 $100 reversed single #
loop $-1 -1 $-1 $88 $101 $43 #
plane-surface $-1 -1 $-1 3024.4734039671225 1325.9310729542713 9.5250000000001478 -1 1.1102230246251602e-16 5.5511151231257827e-17 -2.1149748619109229e-15 3.13079171759589e-31 -25.399999999999995 forward_v I I I I #
coedge $-1 -1 $-1 $102 $103 $104 $105 forward $44 $-1 #
coedge $-1 -1 $-1 $106 $46 $107 $108 forward $28 $-1 #
coedge $-1 -1 $-1 $46 $106 $109 $110 forward $28 $-1 #
coedge $-1 -1 $-1 $111 $112 $46 $74 reversed $113 $-1 #
edge $114 -1 $-1 $115 -3.1749999999998715 $116 3.1750000000000775 $46 $117 forward @7 unknown #
coedge $-1 -1 $-1 $48 $47 $118 $119 reversed $18 $-1 #
edge $120 -1 $-1 $79 0 $121 22.857142857142417 $47 $122 forward @7 unknown #
loop $-1 -1 $-1 $-1 $49 $62 #
truecolor-adesk-attrib $-1 -1 $123 $-1 $50 -1024534343 #
vertex $-1 -1 $-1 $50 $124 #
ellipse-curve $-1 -1 $-1 2960.973403967123 1005.2560729542715 9.5249999999995225 1.0000000000000002 -1.1102230246251605e-16 0 0 9.7837241174871562e-33 -2.7781250000000255 1 I I #
coedge $-1 -1 $-1 $81 $81 $51 $82 forward $125 $-1 #
edge $126 -1 $-1 $84 -3.1415926535897931 $84 3.1415926535897931 $51 $127 forward @7 unknown #
truecolor-adesk-attrib $-1 -1 $128 $-1 $52 -1024534343 #
vertex $-1 -1 $-1 $52 $129 #
straight-curve $-1 -1 $-1 2960.973403967123 1325.9310729542713 12.303124999999227 2.7781250000000246 -3.0843383402868007e-16 -8.8123952579621783e-17 F 0 F 22.857142857142417 #
DXID-attrib $-1 -1 $-1 $54 $34 @18 ASM_EDGE_FROM_STEP @4 5335 #
point $-1 -1 $-1 2960.973403967123 1325.9310729542713 12.303124999999227 #
loop $-1 -1 $-1 $125 $57 $43 #
truecolor-adesk-attrib $-1 -1 $130 $-1 $58 -1024534343 #
ellipse-curve $-1 -1 $-1 3024.4734039671225 1646.6060729542714 9.5250000000001478 -1.0000000000000002 1.1102230246251605e-16 0 0 9.7837241174871562e-33 -2.7781250000000255 1 I I #
DXID-attrib $-1 -1 $-1 $59 $36 @18 ASM_EDGE_FROM_STEP @4 5333 #
point $-1 -1 $-1 3024.4734039671221 1646.6060729542714 12.303124999999852 #
truecolor-adesk-attrib $-1 -1 $131 $-1 $62 -1024534343 #
face $132 -1 $-1 $-1 $113 $3 $-1 $133 reversed single #
loop $-1 -1 $-1 $37 $134 $62 #
plane-surface $-1 -1 $-1 2960.973403967123 1325.9310729542713 9.5249999999995225 1 -1.1102230246251602e-16 -5.5511151231257827e-17 2.1149748619109229e-15 -3.13079171759589e-31 25.399999999999995 forward_v I I I I #
DXID-attrib $-1 -1 $-1 $66 $43 @18 ASM_FACE_FROM_STEP @16 step-1M-587-8520 #
truecolor-adesk-attrib $-1 -1 $135 $-1 $67 -1024534343 #
loop $-1 -1 $-1 $-1 $136 $67 #
plane-surface $-1 -1 $-1 2992.7234039671243 1672.0060729542713 9.5249999999988404 -1.1102230246251602e-16 -1 -3.0814879110195774e-33 2.1149748619109229e-15 -3.13079171759589e-31 25.399999999999995 forward_v I I I I #
coedge $-1 -1 $-1 $137 $109 $138 $139 forward $68 $-1 #
coedge $-1 -1 $-1 $140 $70 $137 $141 forward $44 $-1 #
coedge $-1 -1 $-1 $70 $140 $142 $143 forward $44 $-1 #
coedge $-1 -1 $-1 $112 $111 $70 $105 reversed $113 $-1 #
edge $144 -1 $-1 $145 -3.1750000000001242 $146 3.1749999999998257 $70 $147 forward @7 unknown #
coedge $-1 -1 $-1 $72 $71 $148 $149 forward $28 $-1 #
coedge $-1 -1 $-1 $134 $150 $71 $108 reversed $95 $-1 #
edge $151 -1 $-1 $116 -34.607499999999987 $152 34.607499999999987 $71 $153 forward @7 unknown #
coedge $-1 -1 $-1 $101 $154 $72 $110 reversed $68 $-1 #
edge $155 -1 $-1 $156 -34.607499999999987 $115 34.607499999999987 $72 $157 forward @7 unknown #
coedge $-1 -1 $-1 $104 $73 $154 $158 forward $113 $-1 #
coedge $-1 -1 $-1 $73 $104 $134 $159 reversed $113 $-1 #
loop $-1 -1 $-1 $-1 $111 $94 #
truecolor-adesk-attrib $-1 -1 $160 $-1 $74 -1024534343 #
vertex $-1 -1 $-1 $74 $161 #
vertex $-1 -1 $-1 $74 $162 #
straight-curve $-1 -1 $-1 2992.7234039671239 979.85607295427144 6.8212102632969618e-13 -10.000000000000004 1.1102230246251605e-15 3.5249581031848713e-16 F -3.1749999999998715 F 3.1750000000000775 #
coedge $-1 -1 $-1 $118 $118 $75 $119 forward $163 $-1 #
edge $164 -1 $-1 $121 -3.1415926535897931 $121 3.1415926535897931 $75 $165 forward @7 unknown #
truecolor-adesk-attrib $-1 -1 $166 $-1 $76 -1024534343 #
vertex $-1 -1 $-1 $76 $167 #
straight-curve $-1 -1 $-1 2960.9734039671225 1005.2560729542715 12.303124999999227 2.7781250000000246 -3.0843383402868007e-16 -8.8123952579621783e-17 F 0 F 22.857142857142417 #
DXID-attrib $-1 -1 $-1 $78 $50 @18 ASM_EDGE_FROM_STEP @4 5338 #
point $-1 -1 $-1 2960.9734039671225 1005.2560729542715 12.303124999999227 #
loop $-1 -1 $-1 $163 $81 $43 #
truecolor-adesk-attrib $-1 -1 $168 $-1 $82 -1024534343 #
ellipse-curve $-1 -1 $-1 3024.4734039671225 1325.9310729542713 9.5250000000001478 -1.0000000000000002 1.1102230246251605e-16 0 0 9.7837241174871562e-33 -2.7781250000000255 1 I I #
DXID-attrib $-1 -1 $-1 $83 $52 @18 ASM_EDGE_FROM_STEP @4 5336 #
point $-1 -1 $-1 3024.4734039671221 1325.9310729542713 12.303124999999852 #
DXID-attrib $-1 -1 $-1 $89 $58 @18 ASM_EDGE_FROM_STEP @4 5334 #
DXID-attrib $-1 -1 $-1 $93 $62 @18 ASM_FACE_FROM_STEP @16 step-1M-587-8522 #
truecolor-adesk-attrib $-1 -1 $169 $-1 $94 -1024534343 #
plane-surface $-1 -1 $-1 2992.7234039671243 979.85607295427144 9.5249999999988404 1.1102230246251602e-16 1 3.0814879110195774e-33 -2.1149748619109229e-15 3.13079171759589e-31 -25.399999999999995 forward_v I I I I #
coedge $-1 -1 $-1 $142 $107 $112 $159 forward $95 $-1 #
DXID-attrib $-1 -1 $-1 $98 $67 @18 ASM_FACE_FROM_STEP @16 step-1M-587-8521 #
coedge $-1 -1 $-1 $170 $148 $150 $171 forward $99 $-1 #
coedge $-1 -1 $-1 $154 $101 $102 $141 reversed $68 $-1 #
coedge $-1 -1 $-1 $148 $170 $101 $139 reversed $99 $-1 #
edge $172 -1 $-1 $156 -0.95250000000005408 $173 0.9525000000000553 $101 $174 forward @7 unknown #
coedge $-1 -1 $-1 $103 $102 $170 $175 forward $44 $-1 #
edge $176 -1 $-1 $146 -34.607499999999987 $173 34.607499999999987 $102 $177 forward @7 unknown #
coedge $-1 -1 $-1 $150 $134 $103 $143 reversed $95 $-1 #
edge $178 -1 $-1 $179 -34.607499999999987 $145 34.607499999999987 $103 $180 forward @7 unknown #
truecolor-adesk-attrib $-1 -1 $181 $-1 $105 -1024534343 #
vertex $-1 -1 $-1 $105 $182 #
vertex $-1 -1 $-1 $105 $183 #
straight-curve $-1 -1 $-1 2992.7234039671243 979.85607295427144 19.049999999999329 10.000000000000004 -1.1102230246251605e-15 -3.5249581031848713e-16 F -3.1750000000001242 F 3.1749999999998257 #
coedge $-1 -1 $-1 $136 $138 $106 $149 reversed $99 $-1 #
edge $184 -1 $-1 $152 -3.1750000000000775 $156 3.1749999999998715 $106 $185 forward @7 unknown #
coedge $-1 -1 $-1 $107 $142 $136 $171 reversed $95 $-1 #
truecolor-adesk-attrib $-1 -1 $186 $-1 $108 -1024534343 #
vertex $-1 -1 $-1 $108 $187 #
straight-curve $-1 -1 $-1 2960.973403967123 1325.9310729542713 -9.6633812063373625e-13 1.1102230246251607e-15 10.000000000000004 3.0814879110195785e-32 F -34.607499999999987 F 34.607499999999987 #
coedge $-1 -1 $-1 $109 $137 $111 $158 reversed $68 $-1 #
truecolor-adesk-attrib $-1 -1 $188 $-1 $110 -1024534343 #
vertex $-1 -1 $-1 $149 $189 #
straight-curve $-1 -1 $-1 3024.473403967123 1325.9310729542713 -3.979039320256561e-13 -1.1102230246251607e-15 -10.000000000000004 -3.0814879110195785e-32 F -34.607499999999987 F 34.607499999999987 #
edge $190 -1 $-1 $115 -0.95250000000005408 $146 0.9525000000000553 $154 $191 forward @7 unknown #
edge $192 -1 $-1 $116 -0.9525000000000553 $145 0.95250000000006108 $134 $193 forward @7 unknown #
DXID-attrib $-1 -1 $-1 $114 $74 @18 ASM_EDGE_FROM_STEP @4 5341 #
point $-1 -1 $-1 3024.4734039671225 979.85607295427144 -3.979039320256561e-13 #
point $-1 -1 $-1 2960.973403967123 979.85607295427144 -9.6633812063373625e-13 #
loop $-1 -1 $-1 $-1 $118 $43 #
truecolor-adesk-attrib $-1 -1 $194 $-1 $119 -1024534343 #
ellipse-curve $-1 -1 $-1 3024.4734039671225 1005.2560729542715 9.5250000000001478 -1.0000000000000002 1.1102230246251605e-16 0 0 9.7837241174871562e-33 -2.7781250000000255 1 I I #
DXID-attrib $-1 -1 $-1 $120 $76 @18 ASM_EDGE_FROM_STEP @4 5339 #
point $-1 -1 $-1 3024.4734039671221 1005.2560729542715 12.303124999999852 #
DXID-attrib $-1 -1 $-1 $126 $82 @18 ASM_EDGE_FROM_STEP @4 5337 #
DXID-attrib $-1 -1 $-1 $132 $94 @18 ASM_FACE_FROM_STEP @16 step-1M-587-8523 #
coedge $-1 -1 $-1 $138 $136 $140 $175 reversed $99 $-1 #
edge $195 -1 $-1 $152 -0.9525000000000553 $179 0.95250000000006108 $136 $196 forward @7 unknown #
truecolor-adesk-attrib $-1 -1 $197 $-1 $139 -1024534343 #
vertex $-1 -1 $-1 $141 $198 #
straight-curve $-1 -1 $-1 3024.4734039671225 1672.0060729542713 9.5250000000001478 3.5249581031848713e-16 -1.1740468940984588e-31 10.000000000000004 F -0.95250000000005408 F 0.9525000000000553 #
edge $199 -1 $-1 $173 -3.1749999999998257 $179 3.1750000000001242 $140 $200 forward @7 unknown #
truecolor-adesk-attrib $-1 -1 $201 $-1 $141 -1024534343 #
straight-curve $-1 -1 $-1 3024.4734039671225 1325.9310729542713 19.050000000000693 1.1102230246251607e-15 10.000000000000004 3.0814879110195785e-32 F -34.607499999999987 F 34.607499999999987 #
truecolor-adesk-attrib $-1 -1 $202 $-1 $143 -1024534343 #
vertex $-1 -1 $-1 $175 $203 #
straight-curve $-1 -1 $-1 2960.973403967123 1325.9310729542713 19.050000000000125 -1.1102230246251607e-15 -10.000000000000004 -3.0814879110195785e-32 F -34.607499999999987 F 34.607499999999987 #
DXID-attrib $-1 -1 $-1 $144 $105 @18 ASM_EDGE_FROM_STEP @4 5345 #
point $-1 -1 $-1 2960.973403967123 979.85607295427144 19.050000000000125 #
point $-1 -1 $-1 3024.4734039671225 979.85607295427144 19.050000000000693 #
truecolor-adesk-attrib $-1 -1 $204 $-1 $149 -1024534343 #
straight-curve $-1 -1 $-1 2992.7234039671239 1672.0060729542713 6.8212102632969618e-13 10.000000000000004 -1.1102230246251605e-15 -3.5249581031848713e-16 F -3.1750000000000775 F 3.1749999999998715 #
DXID-attrib $-1 -1 $-1 $151 $108 @18 ASM_EDGE_FROM_STEP @4 5342 #
point $-1 -1 $-1 2960.973403967123 1672.0060729542713 -9.6633812063373625e-13 #
DXID-attrib $-1 -1 $-1 $155 $110 @18 ASM_EDGE_FROM_STEP @4 5344 #
point $-1 -1 $-1 3024.473403967123 1672.0060729542713 -3.979039320256561e-13 #
truecolor-adesk-attrib $-1 -1 $205 $-1 $158 -1024534343 #
straight-curve $-1 -1 $-1 3024.4734039671225 979.85607295427144 9.5250000000001478 3.5249581031848713e-16 -1.1740468940984588e-31 10.000000000000004 F -0.95250000000005408 F 0.9525000000000553 #
truecolor-adesk-attrib $-1 -1 $206 $-1 $159 -1024534343 #
straight-curve $-1 -1 $-1 2960.973403967123 979.85607295427144 9.5249999999995225 3.5249581031848713e-16 -1.1740468940984588e-31 10.000000000000004 F -0.9525000000000553 F 0.95250000000006108 #
DXID-attrib $-1 -1 $-1 $164 $119 @18 ASM_EDGE_FROM_STEP @4 5340 #
truecolor-adesk-attrib $-1 -1 $207 $-1 $171 -1024534343 #
straight-curve $-1 -1 $-1 2960.973403967123 1672.0060729542713 9.5249999999995225 3.5249581031848713e-16 -1.1740468940984588e-31 10.000000000000004 F -0.9525000000000553 F 0.95250000000006108 #
DXID-attrib $-1 -1 $-1 $172 $139 @18 ASM_EDGE_FROM_STEP @4 5349 #
point $-1 -1 $-1 3024.4734039671225 1672.0060729542713 19.050000000000693 #
truecolor-adesk-attrib $-1 -1 $208 $-1 $175 -1024534343 #
straight-curve $-1 -1 $-1 2992.7234039671243 1672.0060729542713 19.049999999999329 -10.000000000000004 1.1102230246251605e-15 3.5249581031848713e-16 F -3.1749999999998257 F 3.1750000000001242 #
DXID-attrib $-1 -1 $-1 $176 $141 @18 ASM_EDGE_FROM_STEP @4 5346 #
DXID-attrib $-1 -1 $-1 $178 $143 @18 ASM_EDGE_FROM_STEP @4 5348 #
point $-1 -1 $-1 2960.973403967123 1672.0060729542713 19.050000000000125 #
DXID-attrib $-1 -1 $-1 $184 $149 @18 ASM_EDGE_FROM_STEP @4 5343 #
DXID-attrib $-1 -1 $-1 $190 $158 @18 ASM_EDGE_FROM_STEP @4 5350 #
DXID-attrib $-1 -1 $-1 $192 $159 @18 ASM_EDGE_FROM_STEP @4 5352 #
DXID-attrib $-1 -1 $-1 $195 $171 @18 ASM_EDGE_FROM_STEP @4 5351 #
DXID-attrib $-1 -1 $-1 $199 $175 @18 ASM_EDGE_FROM_STEP @4 5347 #
