700 606 1 0         
5 ZWCAD 12 ACIS 28.0 NT 24 Mon May 13 16:07:31 2024 
1 9.9999999999999995e-07 1e-10 
body $1 -1 $-1 $2 $-1 $-1 #
DXID-attrib $-1 -1 $-1 $-1 $0 @18 ASM_BODY_FROM_STEP @83 7D0FB3FB9CF12FF91C708904F99B530914E09D99|:|0260B668D889EBDE4E6FB7CDCD265BBE0D083FF9 #
lump $-1 -1 $-1 $-1 $3 $0 #
shell $-1 -1 $-1 $-1 $-1 $4 $-1 $2 #
face $5 -1 $-1 $6 $7 $3 $-1 $8 reversed single #
truecolor-adesk-attrib $-1 -1 $9 $-1 $4 -1029333354 #
face $10 -1 $-1 $11 $12 $3 $-1 $13 reversed single #
loop $-1 -1 $-1 $-1 $14 $4 #
cone-surface $-1 -1 $-1 6799.7818311352585 711.43406765570057 354.99999999999943 -1.6820606479597362e-11 0.99999999999999989 -3.9053989469493073e-18 -12.207249309888892 -2.0533334734329686e-10 -2.6894356817401492 1 I I 0 1 12.499999999999998 forward I I I I #
fmesh-eye-attrib $-1 -1 $15 $5 $4 #
truecolor-adesk-attrib $-1 -1 $16 $-1 $6 -1029333354 #
face $17 -1 $-1 $18 $19 $3 $-1 $20 forward single #
loop $-1 -1 $-1 $-1 $21 $6 #
cone-surface $-1 -1 $-1 6696.4150936012393 747.43406765396196 280.00372778609449 0.21515485453921193 3.6190313264448084e-12 -0.97657994479111143 -12.207249309888894 -2.0532997627442078e-10 -2.6894356817401497 1 I I 0 1 12.5 forward I I I I #
coedge $-1 -1 $-1 $22 $23 $24 $25 reversed $7 $-1 #
DXID-attrib $-1 -1 $-1 $9 $4 @18 ASM_FACE_FROM_STEP @17 step-3M-249-31380 #
fmesh-eye-attrib $-1 -1 $26 $10 $6 #
truecolor-adesk-attrib $-1 -1 $27 $-1 $11 -1029333354 #
face $28 -1 $-1 $29 $30 $3 $-1 $31 reversed single #
loop $-1 -1 $-1 $-1 $32 $11 #
cone-surface $-1 -1 $-1 6696.4150936012393 747.43406765396196 280.00372778609449 0.21515485453921193 3.6190313264448084e-12 -0.97657994479111143 -35.156878012480014 -5.9135033167033186e-10 -7.7455747634116303 1 I I 0 1 36 forward I I I I #
coedge $-1 -1 $-1 $33 $34 $35 $36 forward $12 $-1 #
coedge $-1 -1 $-1 $37 $14 $38 $39 forward $7 $-1 #
coedge $-1 -1 $-1 $14 $37 $40 $41 reversed $7 $-1 #
coedge $-1 -1 $-1 $42 $42 $14 $25 forward $43 $-1 #
edge $44 -1 $-1 $45 -3.1415926535897931 $46 0 $14 $47 forward @7 unknown #
DXID-attrib $-1 -1 $-1 $16 $6 @18 ASM_FACE_FROM_STEP @17 step-3M-249-18556 #
fmesh-eye-attrib $-1 -1 $48 $17 $11 #
truecolor-adesk-attrib $-1 -1 $49 $-1 $18 -1029333354 #
face $50 -1 $-1 $51 $52 $3 $-1 $53 forward single #
loop $-1 -1 $-1 $-1 $54 $18 #
cone-surface $-1 -1 $-1 6670.1662013474561 747.4340676535204 399.14648105061013 0.21515485453921193 3.6190313264448084e-12 -0.97657994479111143 -12.207249309888894 -2.0532997627442078e-10 -2.6894356817401497 1 I I 0 1 12.5 forward I I I I #
coedge $-1 -1 $-1 $55 $56 $57 $58 reversed $19 $-1 #
coedge $-1 -1 $-1 $59 $21 $60 $61 forward $12 $-1 #
coedge $-1 -1 $-1 $21 $59 $62 $63 reversed $12 $-1 #
coedge $-1 -1 $-1 $64 $64 $21 $36 reversed $65 $-1 #
edge $66 -1 $-1 $67 -3.1415926535897931 $68 1.2246467991473532e-16 $21 $69 forward @7 unknown #
coedge $-1 -1 $-1 $23 $22 $70 $71 forward $7 $-1 #
coedge $-1 -1 $-1 $72 $73 $22 $39 reversed $74 $-1 #
edge $75 -1 $-1 $45 0.21600000000000008 $76 0.316 $22 $77 forward @7 unknown #
coedge $-1 -1 $-1 $73 $72 $23 $41 forward $74 $-1 #
edge $78 -1 $-1 $46 0.21600000000000008 $79 0.316 $23 $80 forward @7 unknown #
coedge $-1 -1 $-1 $24 $24 $72 $81 forward $43 $-1 #
loop $-1 -1 $-1 $-1 $42 $82 #
truecolor-adesk-attrib $-1 -1 $83 $-1 $25 -1029333354 #
vertex $-1 -1 $-1 $25 $84 #
vertex $-1 -1 $-1 $25 $85 #
ellipse-curve $-1 -1 $-1 6799.781831131625 927.43406765570057 354.99999999999943 -1.6820606479597362e-11 0.99999999999999989 -3.9053989469493073e-18 -12.207249309888892 -2.0533334734329686e-10 -2.6894356817401492 1 F -3.1415926535897931 F 0 #
DXID-attrib $-1 -1 $-1 $27 $11 @18 ASM_FACE_FROM_STEP @17 step-3M-249-43186 #
fmesh-eye-attrib $-1 -1 $86 $28 $18 #
truecolor-adesk-attrib $-1 -1 $87 $-1 $29 -1029333354 #
face $88 -1 $-1 $89 $90 $3 $-1 $91 forward single #
loop $-1 -1 $-1 $-1 $92 $29 #
cone-surface $-1 -1 $-1 6670.1662013474561 747.4340676535204 399.14648105061013 0.21515485453921193 3.6190313264448084e-12 -0.97657994479111143 -35.156878012480014 -5.9135033167033186e-10 -7.7455747634116303 1 I I 0 1 36 forward I I I I #
coedge $-1 -1 $-1 $93 $94 $95 $96 forward $30 $-1 #
coedge $-1 -1 $-1 $97 $32 $98 $99 forward $19 $-1 #
coedge $-1 -1 $-1 $32 $97 $100 $101 reversed $19 $-1 #
coedge $-1 -1 $-1 $102 $103 $32 $58 forward $104 $-1 #
edge $105 -1 $-1 $106 -3.1415926535897931 $107 -1.2217304763960299 $32 $108 forward @7 unknown #
coedge $-1 -1 $-1 $34 $33 $109 $110 reversed $12 $-1 #
coedge $-1 -1 $-1 $111 $112 $33 $61 reversed $113 $-1 #
edge $114 -1 $-1 $68 0 $115 0.02 $33 $116 forward @7 unknown #
coedge $-1 -1 $-1 $112 $111 $34 $63 forward $113 $-1 #
edge $117 -1 $-1 $67 0 $118 0.02 $34 $119 forward @7 unknown #
coedge $-1 -1 $-1 $35 $35 $111 $120 reversed $65 $-1 #
loop $-1 -1 $-1 $-1 $35 $121 #
truecolor-adesk-attrib $-1 -1 $122 $-1 $36 -1029333354 #
vertex $-1 -1 $-1 $36 $123 #
vertex $-1 -1 $-1 $36 $124 #
ellipse-curve $-1 -1 $-1 6696.4150936012393 747.43406765396196 280.00372778609449 -0.21515485453921193 -3.6190313264448084e-12 0.97657994479111143 12.207249309888894 2.0532997627442078e-10 2.6894356817401497 1 F -3.1415926535897931 F 1.2246467991473532e-16 #
coedge $-1 -1 $-1 $125 $125 $37 $71 reversed $126 $-1 #
edge $127 -1 $-1 $76 -3.1415926535897931 $79 0 $37 $128 forward @7 unknown #
coedge $-1 -1 $-1 $40 $38 $42 $81 reversed $74 $-1 #
coedge $-1 -1 $-1 $38 $40 $125 $129 forward $74 $-1 #
loop $-1 -1 $-1 $-1 $38 $130 #
truecolor-adesk-attrib $-1 -1 $131 $-1 $39 -1029333354 #
vertex $-1 -1 $-1 $39 $132 #
straight-curve $-1 -1 $-1 6811.989080445147 711.43406765590589 357.68943568173961 -1.6820606479597359e-08 999.99999999999989 -3.905398946949307e-15 F 0.21600000000000008 F 0.316 #
truecolor-adesk-attrib $-1 -1 $133 $-1 $41 -1029333354 #
vertex $-1 -1 $-1 $71 $134 #
straight-curve $-1 -1 $-1 6787.5745818253699 711.43406765549526 352.31056431825931 -1.6820606479597359e-08 999.99999999999989 -3.905398946949307e-15 F 0.21600000000000008 F 0.316 #
edge $135 -1 $-1 $46 0 $45 3.1415926535897931 $42 $136 forward @7 unknown #
face $137 -1 $-1 $138 $139 $3 $-1 $140 reversed single #
DXID-attrib $-1 -1 $-1 $44 $25 @18 ASM_EDGE_FROM_STEP @5 15514 #
point $-1 -1 $-1 6811.9890804415145 927.43406765590589 357.68943568173961 #
point $-1 -1 $-1 6787.5745818217365 927.43406765549526 352.31056431825931 #
DXID-attrib $-1 -1 $-1 $49 $18 @18 ASM_FACE_FROM_STEP @17 step-3M-249-12490 #
fmesh-eye-attrib $-1 -1 $141 $50 $29 #
truecolor-adesk-attrib $-1 -1 $142 $-1 $51 -1029333354 #
face $143 -1 $-1 $144 $145 $3 $-1 $146 reversed single #
loop $-1 -1 $-1 $147 $148 $51 #
plane-surface $-1 -1 $-1 6670.1662013474561 747.4340676535204 399.14648105061013 -0.21515485453921193 -3.6190313264448084e-12 0.97657994479111143 0.97657994479111154 1.6426398101953662e-11 0.21515485453921196 forward_v I I I I #
coedge $-1 -1 $-1 $149 $150 $151 $152 reversed $52 $-1 #
coedge $-1 -1 $-1 $153 $54 $154 $155 forward $30 $-1 #
coedge $-1 -1 $-1 $54 $153 $156 $157 reversed $30 $-1 #
coedge $-1 -1 $-1 $158 $158 $54 $96 reversed $147 $-1 #
edge $159 -1 $-1 $160 -3.1415926535897931 $161 1.2246467991473532e-16 $54 $162 forward @7 unknown #
coedge $-1 -1 $-1 $56 $55 $163 $164 forward $19 $-1 #
coedge $-1 -1 $-1 $165 $166 $55 $99 reversed $167 $-1 #
edge $168 -1 $-1 $106 0 $169 0.02 $55 $170 forward @7 unknown #
coedge $-1 -1 $-1 $171 $172 $56 $101 forward $173 $-1 #
edge $174 -1 $-1 $107 0 $175 0.02 $56 $176 forward @7 unknown #
coedge $-1 -1 $-1 $177 $57 $172 $178 forward $104 $-1 #
coedge $-1 -1 $-1 $57 $179 $165 $180 forward $104 $-1 #
loop $-1 -1 $-1 $65 $103 $121 #
truecolor-adesk-attrib $-1 -1 $181 $-1 $58 -1029333354 #
vertex $-1 -1 $-1 $58 $182 #
vertex $-1 -1 $-1 $58 $183 #
ellipse-curve $-1 -1 $-1 6696.4150936012393 747.43406765396196 280.00372778609449 -0.21515485453921193 -3.6190313264448084e-12 0.97657994479111143 35.156878012480014 5.9135033167033186e-10 7.7455747634116303 1 F -3.1415926535897931 F -1.2217304763960299 #
coedge $-1 -1 $-1 $184 $184 $59 $110 forward $185 $-1 #
edge $186 -1 $-1 $118 -3.1415926535897931 $115 1.2246467991473532e-16 $59 $187 forward @7 unknown #
coedge $-1 -1 $-1 $62 $60 $64 $120 forward $113 $-1 #
coedge $-1 -1 $-1 $60 $62 $184 $188 reversed $113 $-1 #
loop $-1 -1 $-1 $-1 $60 $189 #
truecolor-adesk-attrib $-1 -1 $190 $-1 $61 -1029333354 #
vertex $-1 -1 $-1 $61 $191 #
straight-curve $-1 -1 $-1 6708.6223429111287 747.43406765416728 282.69316346783467 215.15485453921193 3.6190313264448083e-09 -976.57994479111142 F 0 F 0.02 #
truecolor-adesk-attrib $-1 -1 $192 $-1 $63 -1029333354 #
vertex $-1 -1 $-1 $110 $193 #
straight-curve $-1 -1 $-1 6684.2078442913507 747.43406765375664 277.31429210435437 215.15485453921193 3.6190313264448083e-09 -976.57994479111142 F 0 F 0.02 #
edge $194 -1 $-1 $68 1.2246467991473532e-16 $67 3.1415926535897931 $64 $195 forward @7 unknown #
face $196 -1 $-1 $197 $104 $3 $-1 $198 forward single #
DXID-attrib $-1 -1 $-1 $66 $36 @18 ASM_EDGE_FROM_STEP @5 43205 #
point $-1 -1 $-1 6684.2078442913507 747.43406765375664 277.31429210435437 #
point $-1 -1 $-1 6708.6223429111287 747.43406765416728 282.69316346783467 #
coedge $-1 -1 $-1 $70 $70 $73 $129 reversed $126 $-1 #
loop $-1 -1 $-1 $-1 $125 $199 #
truecolor-adesk-attrib $-1 -1 $200 $-1 $71 -1029333354 #
ellipse-curve $-1 -1 $-1 6799.7818311299434 1027.4340676557006 354.99999999999943 -1.6820606479597362e-11 0.99999999999999989 -3.9053989469493073e-18 -12.207249309888892 -2.0533334734329686e-10 -2.6894356817401492 1 F -3.1415926535897931 F 0 #
edge $201 -1 $-1 $79 0 $76 3.1415926535897931 $125 $202 forward @7 unknown #
face $203 -1 $-1 $-1 $74 $3 $-1 $204 reversed single #
DXID-attrib $-1 -1 $-1 $75 $39 @18 ASM_EDGE_FROM_STEP @5 25905 #
point $-1 -1 $-1 6811.9890804398319 1027.4340676559059 357.68943568173961 #
DXID-attrib $-1 -1 $-1 $78 $41 @18 ASM_EDGE_FROM_STEP @5 33351 #
point $-1 -1 $-1 6787.5745818200539 1027.4340676554953 352.31056431825931 #
truecolor-adesk-attrib $-1 -1 $205 $-1 $81 -1029333354 #
ellipse-curve $-1 -1 $-1 6799.781831131625 927.43406765570057 354.99999999999943 -1.6820606479597362e-11 0.99999999999999989 -3.9053989469493073e-18 -12.207249309888892 -2.0533334734329686e-10 -2.6894356817401492 1 F 0 F 3.1415926535897931 #
truecolor-adesk-attrib $-1 -1 $206 $-1 $82 -1029333354 #
face $207 -1 $-1 $208 $209 $3 $-1 $210 reversed single #
loop $-1 -1 $-1 $43 $211 $82 #
plane-surface $-1 -1 $-1 6674.4692984352123 927.43406765359282 379.61488215478789 -1.6820606479597362e-11 0.99999999999999989 -3.9053989469493073e-18 -0.97657994479111154 -1.6426667787463749e-11 -0.21515485453921196 forward_v I I I I #
DXID-attrib $-1 -1 $-1 $87 $29 @18 ASM_FACE_FROM_STEP @17 step-3M-249-21914 #
fmesh-eye-attrib $-1 -1 $212 $88 $51 #
truecolor-adesk-attrib $-1 -1 $213 $-1 $89 -1029333354 #
face $214 -1 $-1 $215 $216 $3 $-1 $217 forward single #
loop $-1 -1 $-1 $218 $219 $89 #
plane-surface $-1 -1 $-1 6674.46929843824 747.43406765359282 379.61488215478789 -0.21515485453921193 -3.6190313264448084e-12 0.97657994479111143 0.97657994479111154 1.6426398101953662e-11 0.21515485453921196 forward_v I I I I #
loop $-1 -1 $-1 $-1 $95 $51 #
coedge $-1 -1 $-1 $151 $220 $221 $222 forward $90 $-1 #
coedge $-1 -1 $-1 $223 $92 $224 $225 forward $52 $-1 #
coedge $-1 -1 $-1 $92 $223 $226 $227 reversed $52 $-1 #
coedge $-1 -1 $-1 $228 $148 $92 $152 forward $90 $-1 #
edge $229 -1 $-1 $230 -3.1415926535897931 $231 -1.2217304763960299 $92 $232 forward @7 unknown #
coedge $-1 -1 $-1 $94 $93 $233 $234 reversed $30 $-1 #
coedge $-1 -1 $-1 $235 $236 $93 $155 reversed $237 $-1 #
edge $238 -1 $-1 $161 0 $239 0.02 $93 $240 forward @7 unknown #
coedge $-1 -1 $-1 $236 $235 $94 $157 forward $237 $-1 #
edge $241 -1 $-1 $160 0 $242 0.02 $94 $243 forward @7 unknown #
coedge $-1 -1 $-1 $95 $95 $235 $244 reversed $147 $-1 #
truecolor-adesk-attrib $-1 -1 $245 $-1 $96 -1029333354 #
vertex $-1 -1 $-1 $96 $246 #
vertex $-1 -1 $-1 $96 $247 #
ellipse-curve $-1 -1 $-1 6670.1662013474561 747.4340676535204 399.14648105061013 -0.21515485453921193 -3.6190313264448084e-12 0.97657994479111143 12.207249309888894 2.0532997627442078e-10 2.6894356817401497 1 F -3.1415926535897931 F 1.2246467991473532e-16 #
coedge $-1 -1 $-1 $248 $249 $97 $164 reversed $250 $-1 #
edge $251 -1 $-1 $169 -3.1415926535897931 $175 -1.2217304763960299 $97 $252 forward @7 unknown #
coedge $-1 -1 $-1 $253 $98 $103 $180 reversed $167 $-1 #
coedge $-1 -1 $-1 $98 $253 $248 $254 forward $167 $-1 #
loop $-1 -1 $-1 $-1 $98 $197 #
truecolor-adesk-attrib $-1 -1 $255 $-1 $99 -1029333354 #
vertex $-1 -1 $-1 $99 $256 #
straight-curve $-1 -1 $-1 6661.2582155887594 747.43406765337056 272.2581530226829 215.15485453921193 3.6190313264448083e-09 -976.57994479111142 F 0 F 0.02 #
coedge $-1 -1 $-1 $257 $100 $249 $258 forward $173 $-1 #
coedge $-1 -1 $-1 $100 $257 $102 $178 reversed $173 $-1 #
loop $-1 -1 $-1 $-1 $171 $259 #
truecolor-adesk-attrib $-1 -1 $260 $-1 $101 -1029333354 #
vertex $-1 -1 $-1 $164 $261 #
straight-curve $-1 -1 $-1 6708.4394540585199 713.6051333058715 282.65287037681628 215.15485453921193 3.6190313264448083e-09 -976.57994479111142 F 0 F 0.02 #
coedge $-1 -1 $-1 $262 $102 $263 $264 forward $104 $-1 #
edge $265 -1 $-1 $107 0 $266 0.11348692442262134 $102 $267 forward @7 unknown #
coedge $-1 -1 $-1 $103 $262 $268 $269 forward $104 $-1 #
edge $270 -1 $-1 $271 2.8623399732707 $106 3.1415926535897931 $103 $272 forward @7 unknown #
DXID-attrib $-1 -1 $-1 $105 $58 @18 ASM_EDGE_FROM_STEP @5 15545 #
point $-1 -1 $-1 6661.2582155887594 747.43406765337056 272.2581530226829 #
point $-1 -1 $-1 6708.4394540585199 713.6051333058715 282.65287037681628 #
coedge $-1 -1 $-1 $109 $109 $112 $188 forward $185 $-1 #
loop $-1 -1 $-1 $-1 $109 $273 #
truecolor-adesk-attrib $-1 -1 $274 $-1 $110 -1029333354 #
ellipse-curve $-1 -1 $-1 6700.7181906920241 747.43406765403438 260.4721288902723 -0.21515485453921193 -3.6190313264448084e-12 0.97657994479111143 12.207249309888894 2.0532997627442078e-10 2.6894356817401497 1 F -3.1415926535897931 F 1.2246467991473532e-16 #
edge $275 -1 $-1 $115 1.2246467991473532e-16 $118 3.1415926535897931 $184 $276 forward @7 unknown #
face $277 -1 $-1 $130 $113 $3 $-1 $278 reversed single #
DXID-attrib $-1 -1 $-1 $114 $61 @18 ASM_EDGE_FROM_STEP @5 13572 #
point $-1 -1 $-1 6712.9254400019126 747.4340676542397 263.16156457201242 #
DXID-attrib $-1 -1 $-1 $117 $63 @18 ASM_EDGE_FROM_STEP @5 12863 #
point $-1 -1 $-1 6688.5109413821347 747.43406765382906 257.78269320853212 #
truecolor-adesk-attrib $-1 -1 $279 $-1 $120 -1029333354 #
ellipse-curve $-1 -1 $-1 6696.4150936012393 747.43406765396196 280.00372778609449 -0.21515485453921193 -3.6190313264448084e-12 0.97657994479111143 12.207249309888894 2.0532997627442078e-10 2.6894356817401497 1 F 1.2246467991473532e-16 F 3.1415926535897931 #
truecolor-adesk-attrib $-1 -1 $280 $-1 $121 -1029333354 #
face $281 -1 $-1 $259 $167 $3 $-1 $282 forward single #
plane-surface $-1 -1 $-1 6696.4150936012393 747.43406765396196 280.00372778609449 -0.21515485453921193 -3.6190313264448084e-12 0.97657994479111143 0.97657994479111154 1.6426398101953662e-11 0.21515485453921196 forward_v I I I I #
face $283 -1 $-1 $121 $284 $3 $-1 $285 forward single #
DXID-attrib $-1 -1 $-1 $127 $71 @18 ASM_EDGE_FROM_STEP @5 17505 #
truecolor-adesk-attrib $-1 -1 $286 $-1 $129 -1029333354 #
ellipse-curve $-1 -1 $-1 6799.7818311299434 1027.4340676557006 354.99999999999943 -1.6820606479597362e-11 0.99999999999999989 -3.9053989469493073e-18 -12.207249309888892 -2.0533334734329686e-10 -2.6894356817401492 1 F 0 F 3.1415926535897931 #
truecolor-adesk-attrib $-1 -1 $287 $-1 $130 -1029333354 #
cone-surface $-1 -1 $-1 6799.7818311352585 711.43406765570057 354.99999999999943 -1.6820606479597362e-11 0.99999999999999989 -3.9053989469493073e-18 -12.207249309888892 -2.0533334734329686e-10 -2.6894356817401492 1 I I 0 1 12.499999999999998 forward I I I I #
DXID-attrib $-1 -1 $-1 $135 $81 @18 ASM_EDGE_FROM_STEP @5 34991 #
fmesh-eye-attrib $-1 -1 $288 $137 $82 #
truecolor-adesk-attrib $-1 -1 $289 $-1 $138 -1029333354 #
face $290 -1 $-1 $273 $291 $3 $-1 $292 reversed single #
loop $-1 -1 $-1 $-1 $293 $138 #
plane-surface $-1 -1 $-1 6714.5498730630961 1027.434067654267 263.51945095076212 0.97657994479111154 1.6426667787463749e-11 0.21515485453921196 -1.6820606479597362e-11 0.99999999999999989 -3.9053989469493319e-18 forward_v I I I I #
coedge $-1 -1 $-1 $294 $295 $296 $297 reversed $139 $-1 #
DXID-attrib $-1 -1 $-1 $142 $51 @18 ASM_FACE_FROM_STEP @17 step-3M-249-32272 #
fmesh-eye-attrib $-1 -1 $298 $143 $89 #
truecolor-adesk-attrib $-1 -1 $299 $-1 $144 -1029333354 #
face $300 -1 $-1 $301 $302 $3 $-1 $303 reversed single #
loop $-1 -1 $-1 $-1 $224 $144 #
cone-surface $-1 -1 $-1 6670.1662013474561 747.4340676535204 399.14648105061013 0.21515485453921193 3.6190313264448084e-12 -0.97657994479111143 -35.156878012480014 -5.9135033167033186e-10 -7.7455747634116303 1 I I 0 1 36 forward I I I I #
loop $-1 -1 $-1 $-1 $233 $89 #
coedge $-1 -1 $-1 $304 $305 $306 $307 reversed $145 $-1 #
coedge $-1 -1 $-1 $148 $308 $309 $310 forward $90 $-1 #
coedge $-1 -1 $-1 $311 $224 $148 $222 reversed $216 $-1 #
edge $312 -1 $-1 $313 2.8623399732707 $230 3.1415926535897931 $148 $314 forward @7 unknown #
coedge $-1 -1 $-1 $150 $149 $305 $315 forward $52 $-1 #
coedge $-1 -1 $-1 $221 $306 $149 $225 reversed $216 $-1 #
edge $316 -1 $-1 $230 0 $317 0.02 $149 $318 forward @7 unknown #
coedge $-1 -1 $-1 $319 $320 $150 $227 forward $302 $-1 #
edge $321 -1 $-1 $231 0 $322 0.02 $150 $323 forward @7 unknown #
coedge $-1 -1 $-1 $324 $151 $320 $325 forward $90 $-1 #
truecolor-adesk-attrib $-1 -1 $326 $-1 $152 -1029333354 #
vertex $-1 -1 $-1 $152 $327 #
vertex $-1 -1 $-1 $152 $328 #
ellipse-curve $-1 -1 $-1 6670.1662013474561 747.4340676535204 399.14648105061013 -0.21515485453921193 -3.6190313264448084e-12 0.97657994479111143 35.156878012480014 5.9135033167033186e-10 7.7455747634116303 1 F -3.1415926535897931 F -1.2217304763960299 #
coedge $-1 -1 $-1 $329 $329 $153 $234 forward $218 $-1 #
edge $330 -1 $-1 $242 -3.1415926535897931 $239 1.2246467991473532e-16 $153 $331 forward @7 unknown #
coedge $-1 -1 $-1 $156 $154 $158 $244 forward $237 $-1 #
coedge $-1 -1 $-1 $154 $156 $329 $332 reversed $237 $-1 #
loop $-1 -1 $-1 $-1 $154 $333 #
truecolor-adesk-attrib $-1 -1 $334 $-1 $155 -1029333354 #
vertex $-1 -1 $-1 $155 $335 #
straight-curve $-1 -1 $-1 6682.3734506573446 747.43406765372572 401.83591673235026 215.15485453921193 3.6190313264448083e-09 -976.57994479111142 F 0 F 0.02 #
truecolor-adesk-attrib $-1 -1 $336 $-1 $157 -1029333354 #
vertex $-1 -1 $-1 $234 $337 #
straight-curve $-1 -1 $-1 6657.9589520375666 747.43406765331508 396.45704536886996 215.15485453921193 3.6190313264448083e-09 -976.57994479111142 F 0 F 0.02 #
edge $338 -1 $-1 $161 1.2246467991473532e-16 $160 3.1415926535897931 $158 $339 forward @7 unknown #
DXID-attrib $-1 -1 $-1 $159 $96 @18 ASM_EDGE_FROM_STEP @5 12338 #
point $-1 -1 $-1 6657.9589520375666 747.43406765331508 396.45704536886996 #
point $-1 -1 $-1 6682.3734506573446 747.43406765372572 401.83591673235026 #
coedge $-1 -1 $-1 $340 $163 $166 $254 reversed $250 $-1 #
coedge $-1 -1 $-1 $163 $341 $171 $258 reversed $250 $-1 #
loop $-1 -1 $-1 $185 $342 $273 #
truecolor-adesk-attrib $-1 -1 $343 $-1 $164 -1029333354 #
ellipse-curve $-1 -1 $-1 6700.7181906920241 747.43406765403438 260.4721288902723 -0.21515485453921193 -3.6190313264448084e-12 0.97657994479111143 35.156878012480014 5.9135033167033186e-10 7.7455747634116303 1 F -3.1415926535897931 F -1.2217304763960299 #
coedge $-1 -1 $-1 $166 $165 $344 $345 forward $167 $-1 #
edge $346 -1 $-1 $347 2.8623399732707 $169 3.1415926535897931 $248 $348 forward @7 unknown #
DXID-attrib $-1 -1 $-1 $168 $99 @18 ASM_EDGE_FROM_STEP @4 8364 #
point $-1 -1 $-1 6665.5613126795442 747.43406765344298 252.72655412686066 #
coedge $-1 -1 $-1 $172 $171 $349 $350 reversed $173 $-1 #
edge $351 -1 $-1 $175 0 $352 0.11348692442262134 $249 $353 forward @7 unknown #
face $354 -1 $-1 $355 $173 $3 $-1 $356 reversed single #
DXID-attrib $-1 -1 $-1 $174 $101 @18 ASM_EDGE_FROM_STEP @5 20480 #
point $-1 -1 $-1 6712.7425511493047 713.60513330594392 263.12127148099404 #
coedge $-1 -1 $-1 $179 $177 $294 $357 forward $104 $-1 #
coedge $-1 -1 $-1 $349 $358 $177 $264 reversed $359 $-1 #
edge $360 -1 $-1 $266 0 $361 0.20208889880930181 $177 $362 forward @7 unknown #
truecolor-adesk-attrib $-1 -1 $363 $-1 $178 -1029333354 #
vertex $-1 -1 $-1 $178 $364 #
straight-curve $-1 -1 $-1 6708.4394540585199 713.6051333058715 282.65287037681628 917.6849677219642 342.0201433411051 202.17942913676296 F 0 F 0.11348692442262134 #
coedge $-1 -1 $-1 $365 $344 $179 $269 reversed $366 $-1 #
edge $367 -1 $-1 $368 -0.17693106456777122 $271 0 $179 $369 forward @7 unknown #
truecolor-adesk-attrib $-1 -1 $370 $-1 $180 -1029333354 #
vertex $-1 -1 $-1 $180 $371 #
ellipse-curve $-1 -1 $-1 6696.4150936012393 747.43406765396196 280.00372778609449 -0.21515485453921193 -3.6190313264448084e-12 0.97657994479111143 35.156878012480014 5.9135033167033186e-10 7.7455747634116303 1 F 2.8623399732707 F 3.1415926535897931 #
face $372 -1 $-1 $199 $250 $3 $-1 $373 reversed single #
DXID-attrib $-1 -1 $-1 $186 $110 @18 ASM_EDGE_FROM_STEP @5 37503 #
truecolor-adesk-attrib $-1 -1 $374 $-1 $188 -1029333354 #
ellipse-curve $-1 -1 $-1 6700.7181906920241 747.43406765403438 260.4721288902723 -0.21515485453921193 -3.6190313264448084e-12 0.97657994479111143 12.207249309888894 2.0532997627442078e-10 2.6894356817401497 1 F 1.2246467991473532e-16 F 3.1415926535897931 #
truecolor-adesk-attrib $-1 -1 $375 $-1 $189 -1029333354 #
cone-surface $-1 -1 $-1 6696.4150936012393 747.43406765396196 280.00372778609449 0.21515485453921193 3.6190313264448084e-12 -0.97657994479111143 -12.207249309888894 -2.0532997627442078e-10 -2.6894356817401497 1 I I 0 1 12.5 forward I I I I #
DXID-attrib $-1 -1 $-1 $194 $120 @18 ASM_EDGE_FROM_STEP @5 24662 #
fmesh-eye-attrib $-1 -1 $376 $196 $121 #
truecolor-adesk-attrib $-1 -1 $377 $-1 $197 -1029333354 #
cone-surface $-1 -1 $-1 6696.4150936012393 747.43406765396196 280.00372778609449 0.21515485453921193 3.6190313264448084e-12 -0.97657994479111143 -35.156878012480014 -5.9135033167033186e-10 -7.7455747634116303 1 I I 0 1 36 forward I I I I #
truecolor-adesk-attrib $-1 -1 $378 $-1 $199 -1029333354 #
loop $-1 -1 $-1 $126 $379 $199 #
plane-surface $-1 -1 $-1 6674.4692984335306 1027.4340676535926 379.61488215478789 -1.6820606479597362e-11 0.99999999999999989 -3.9053989469493073e-18 -0.97657994479111154 -1.6426667787463749e-11 -0.21515485453921196 forward_v I I I I #
DXID-attrib $-1 -1 $-1 $201 $129 @18 ASM_EDGE_FROM_STEP @5 12505 #
fmesh-eye-attrib $-1 -1 $380 $203 $130 #
DXID-attrib $-1 -1 $-1 $206 $82 @18 ASM_FACE_FROM_STEP @16 step-3M-249-8284 #
fmesh-eye-attrib $-1 -1 $381 $207 $138 #
truecolor-adesk-attrib $-1 -1 $382 $-1 $208 -1029333354 #
loop $-1 -1 $-1 $-1 $383 $208 #
plane-surface $-1 -1 $-1 6915.5657785413587 1027.434067657648 307.80619688889891 -0.97657994479111154 -1.6426667787463749e-11 -0.21515485453921196 1.6820606479597362e-11 -0.99999999999999989 3.9053989469493319e-18 forward_v I I I I #
coedge $-1 -1 $-1 $296 $384 $365 $385 forward $209 $-1 #
coedge $-1 -1 $-1 $386 $211 $262 $357 reversed $139 $-1 #
coedge $-1 -1 $-1 $211 $386 $387 $388 forward $139 $-1 #
coedge $-1 -1 $-1 $389 $293 $211 $297 forward $209 $-1 #
edge $390 -1 $-1 $368 0.02 $391 0.12200000000000001 $211 $392 forward @7 unknown #
DXID-attrib $-1 -1 $-1 $213 $89 @18 ASM_FACE_FROM_STEP @17 step-3M-249-13874 #
fmesh-eye-attrib $-1 -1 $393 $214 $144 #
truecolor-adesk-attrib $-1 -1 $394 $-1 $215 -1029333354 #
face $395 -1 $-1 $396 $397 $3 $-1 $398 reversed single #
loop $-1 -1 $-1 $-1 $319 $215 #
plane-surface $-1 -1 $-1 6682.1905618047367 713.60513330543006 401.79562364133187 -0.33401001270223624 0.93969262078028992 -0.073587294186714766 -0.91768496772196428 -0.34202014334110514 -0.20217942913676298 forward_v I I I I #
coedge $-1 -1 $-1 $387 $219 $399 $400 reversed $145 $-1 #
coedge $-1 -1 $-1 $219 $401 $223 $315 reversed $145 $-1 #
coedge $-1 -1 $-1 $224 $311 $219 $307 forward $216 $-1 #
edge $402 -1 $-1 $403 2.8623399732707 $317 3.1415926535897931 $219 $404 forward @7 unknown #
coedge $-1 -1 $-1 $220 $405 $406 $407 forward $90 $-1 #
coedge $-1 -1 $-1 $408 $409 $220 $310 reversed $410 $-1 #
edge $411 -1 $-1 $412 -0.17693106456777122 $313 0 $220 $413 forward @7 unknown #
coedge $-1 -1 $-1 $306 $221 $409 $414 forward $216 $-1 #
truecolor-adesk-attrib $-1 -1 $415 $-1 $222 -1029333354 #
vertex $-1 -1 $-1 $222 $416 #
ellipse-curve $-1 -1 $-1 6670.1662013474561 747.4340676535204 399.14648105061013 -0.21515485453921193 -3.6190313264448084e-12 0.97657994479111143 35.156878012480014 5.9135033167033186e-10 7.7455747634116303 1 F 2.8623399732707 F 3.1415926535897931 #
edge $417 -1 $-1 $317 -3.1415926535897931 $322 -1.2217304763960299 $223 $418 forward @7 unknown #
truecolor-adesk-attrib $-1 -1 $419 $-1 $225 -1029333354 #
vertex $-1 -1 $-1 $225 $420 #
straight-curve $-1 -1 $-1 6635.0093233349753 747.43406765292912 391.4009062871985 215.15485453921193 3.6190313264448083e-09 -976.57994479111142 F 0 F 0.02 #
coedge $-1 -1 $-1 $421 $226 $401 $422 forward $302 $-1 #
coedge $-1 -1 $-1 $226 $421 $228 $325 reversed $302 $-1 #
truecolor-adesk-attrib $-1 -1 $423 $-1 $227 -1029333354 #
vertex $-1 -1 $-1 $315 $424 #
straight-curve $-1 -1 $-1 6682.1905618047367 713.60513330543006 401.79562364133187 215.15485453921193 3.6190313264448083e-09 -976.57994479111142 F 0 F 0.02 #
coedge $-1 -1 $-1 $425 $228 $426 $427 forward $90 $-1 #
edge $428 -1 $-1 $231 0 $429 0.11348692442262134 $228 $430 forward @7 unknown #
DXID-attrib $-1 -1 $-1 $229 $152 @18 ASM_EDGE_FROM_STEP @5 37247 #
point $-1 -1 $-1 6635.0093233349753 747.43406765292912 391.4009062871985 #
point $-1 -1 $-1 6682.1905618047367 713.60513330543006 401.79562364133187 #
coedge $-1 -1 $-1 $233 $233 $236 $332 forward $218 $-1 #
truecolor-adesk-attrib $-1 -1 $431 $-1 $234 -1029333354 #
ellipse-curve $-1 -1 $-1 6674.46929843824 747.43406765359282 379.61488215478789 -0.21515485453921193 -3.6190313264448084e-12 0.97657994479111143 12.207249309888894 2.0532997627442078e-10 2.6894356817401497 1 F -3.1415926535897931 F 1.2246467991473532e-16 #
edge $432 -1 $-1 $239 1.2246467991473532e-16 $242 3.1415926535897931 $329 $433 forward @7 unknown #
face $434 -1 $-1 $82 $237 $3 $-1 $435 reversed single #
DXID-attrib $-1 -1 $-1 $238 $155 @18 ASM_EDGE_FROM_STEP @5 13705 #
point $-1 -1 $-1 6686.6765477481285 747.43406765379814 382.30431783652801 #
DXID-attrib $-1 -1 $-1 $241 $157 @18 ASM_EDGE_FROM_STEP @5 18596 #
point $-1 -1 $-1 6662.2620491283515 747.4340676533875 376.92544647304777 #
truecolor-adesk-attrib $-1 -1 $436 $-1 $244 -1029333354 #
ellipse-curve $-1 -1 $-1 6670.1662013474561 747.4340676535204 399.14648105061013 -0.21515485453921193 -3.6190313264448084e-12 0.97657994479111143 12.207249309888894 2.0532997627442078e-10 2.6894356817401497 1 F 1.2246467991473532e-16 F 3.1415926535897931 #
coedge $-1 -1 $-1 $437 $248 $438 $439 reversed $250 $-1 #
coedge $-1 -1 $-1 $249 $342 $440 $441 reversed $250 $-1 #
coedge $-1 -1 $-1 $341 $442 $443 $444 forward $250 $-1 #
DXID-attrib $-1 -1 $-1 $251 $164 @18 ASM_EDGE_FROM_STEP @5 25803 #
coedge $-1 -1 $-1 $268 $438 $253 $345 reversed $366 $-1 #
edge $445 -1 $-1 $271 0 $347 0.02 $253 $446 forward @7 unknown #
truecolor-adesk-attrib $-1 -1 $447 $-1 $254 -1029333354 #
vertex $-1 -1 $-1 $254 $448 #
ellipse-curve $-1 -1 $-1 6700.7181906920241 747.43406765403438 260.4721288902723 -0.21515485453921193 -3.6190313264448084e-12 0.97657994479111143 35.156878012480014 5.9135033167033186e-10 7.7455747634116303 1 F 2.8623399732707 F 3.1415926535897931 #
coedge $-1 -1 $-1 $440 $263 $257 $350 forward $359 $-1 #
edge $449 -1 $-1 $266 0 $352 0.02 $257 $450 forward @7 unknown #
truecolor-adesk-attrib $-1 -1 $451 $-1 $258 -1029333354 #
vertex $-1 -1 $-1 $441 $452 #
straight-curve $-1 -1 $-1 6712.7425511493047 713.60513330594392 263.12127148099404 917.6849677219642 342.0201433411051 202.17942913676296 F 0 F 0.11348692442262134 #
truecolor-adesk-attrib $-1 -1 $453 $-1 $259 -1029333354 #
face $454 -1 $-1 $455 $359 $3 $-1 $456 reversed single #
plane-surface $-1 -1 $-1 6708.4394540585199 713.6051333058715 282.65287037681628 -0.33401001270223624 0.93969262078028992 -0.073587294186714766 -0.91768496772196428 -0.34202014334110514 -0.20217942913676298 forward_v I I I I #
edge $457 -1 $-1 $361 0 $368 0.20583661025443212 $294 $458 forward @7 unknown #
coedge $-1 -1 $-1 $263 $440 $459 $460 reversed $359 $-1 #
loop $-1 -1 $-1 $-1 $440 $355 #
truecolor-adesk-attrib $-1 -1 $461 $-1 $264 -1029333354 #
vertex $-1 -1 $-1 $357 $462 #
straight-curve $-1 -1 $-1 6812.5846986341585 752.41994746423768 305.59759197106882 488.28997238098731 866.02540379265304 107.57742726960566 F 0 F 0.20208889880930181 #
DXID-attrib $-1 -1 $-1 $265 $178 @18 ASM_EDGE_FROM_STEP @5 44043 #
point $-1 -1 $-1 6812.5846986341585 752.41994746423768 305.59759197106882 #
coedge $-1 -1 $-1 $438 $268 $293 $385 reversed $366 $-1 #
loop $-1 -1 $-1 $-1 $438 $455 #
truecolor-adesk-attrib $-1 -1 $463 $-1 $269 -1029333354 #
vertex $-1 -1 $-1 $297 $464 #
straight-curve $-1 -1 $-1 6662.6201334189 757.35701246280553 272.55820345300037 -269.18191370996493 -961.26169594284647 -59.304715196379661 F -0.17693106456777122 F 0 #
DXID-attrib $-1 -1 $-1 $270 $180 @18 ASM_EDGE_FROM_STEP @5 39986 #
point $-1 -1 $-1 6662.6201334189 757.35701246280553 272.55820345300037 #
truecolor-adesk-attrib $-1 -1 $465 $-1 $273 -1029333354 #
plane-surface $-1 -1 $-1 6714.5498730630961 1027.434067654267 263.51945095076212 -0.21515485453921193 -3.6190313264448084e-12 0.97657994479111143 0.97657994479111154 1.6426398101953662e-11 0.21515485453921196 forward_v I I I I #
DXID-attrib $-1 -1 $-1 $275 $188 @18 ASM_EDGE_FROM_STEP @5 28196 #
fmesh-eye-attrib $-1 -1 $466 $277 $189 #
DXID-attrib $-1 -1 $-1 $280 $121 @18 ASM_FACE_FROM_STEP @17 step-3M-249-25462 #
fmesh-eye-attrib $-1 -1 $467 $281 $197 #
fmesh-eye-attrib $-1 -1 $468 $283 $199 #
coedge $-1 -1 $-1 $469 $470 $471 $472 forward $284 $-1 #
DXID-attrib $-1 -1 $-1 $287 $130 @18 ASM_FACE_FROM_STEP @17 step-3M-249-30424 #
DXID-attrib $-1 -1 $-1 $289 $138 @18 ASM_FACE_FROM_STEP @17 step-3M-249-23071 #
fmesh-eye-attrib $-1 -1 $473 $290 $208 #
coedge $-1 -1 $-1 $474 $475 $476 $477 forward $291 $-1 #
coedge $-1 -1 $-1 $293 $471 $437 $478 forward $209 $-1 #
edge $479 -1 $-1 $480 0 $368 0.02 $293 $481 forward @7 unknown #
coedge $-1 -1 $-1 $295 $294 $474 $482 reversed $139 $-1 #
coedge $-1 -1 $-1 $483 $304 $295 $388 reversed $145 $-1 #
edge $484 -1 $-1 $485 0 $391 0.20583661025443212 $387 $486 forward @7 unknown #
coedge $-1 -1 $-1 $406 $296 $408 $487 reversed $209 $-1 #
truecolor-adesk-attrib $-1 -1 $488 $-1 $297 -1029333354 #
vertex $-1 -1 $-1 $400 $489 #
straight-curve $-1 -1 $-1 6714.5498730647778 927.43406765426698 263.51945095076212 -215.15485453921193 -3.6190313264448083e-09 976.57994479111142 F 0.02 F 0.12200000000000001 #
DXID-attrib $-1 -1 $-1 $299 $144 @18 ASM_FACE_FROM_STEP @16 step-3M-249-6423 #
fmesh-eye-attrib $-1 -1 $490 $300 $215 #
truecolor-adesk-attrib $-1 -1 $491 $-1 $301 -1029333354 #
face $492 -1 $-1 $333 $410 $3 $-1 $493 reversed single #
loop $-1 -1 $-1 $-1 $494 $301 #
plane-surface $-1 -1 $-1 6786.3358063803744 752.41994746379612 424.74034523558441 -0.8457430410239184 0.49999999998577255 -0.1863295697785034 -0.48828997238098726 -0.8660254037926528 -0.10757742726960565 forward_v I I I I #
coedge $-1 -1 $-1 $409 $408 $304 $400 forward $410 $-1 #
edge $495 -1 $-1 $391 -0.17693106456777122 $403 0 $304 $496 forward @7 unknown #
coedge $-1 -1 $-1 $305 $483 $319 $422 reversed $145 $-1 #
truecolor-adesk-attrib $-1 -1 $497 $-1 $307 -1029333354 #
vertex $-1 -1 $-1 $307 $498 #
ellipse-curve $-1 -1 $-1 6674.46929843824 747.43406765359282 379.61488215478789 -0.21515485453921193 -3.6190313264448084e-12 0.97657994479111143 35.156878012480014 5.9135033167033186e-10 7.7455747634116303 1 F 2.8623399732707 F 3.1415926535897931 #
coedge $-1 -1 $-1 $308 $425 $469 $499 reversed $90 $-1 #
coedge $-1 -1 $-1 $471 $389 $308 $407 reversed $209 $-1 #
edge $500 -1 $-1 $501 0 $412 0.099999999999999964 $308 $502 forward @7 unknown #
coedge $-1 -1 $-1 $399 $309 $389 $487 forward $410 $-1 #
coedge $-1 -1 $-1 $309 $399 $311 $414 reversed $410 $-1 #
loop $-1 -1 $-1 $-1 $399 $396 #
truecolor-adesk-attrib $-1 -1 $503 $-1 $310 -1029333354 #
vertex $-1 -1 $-1 $407 $504 #
straight-curve $-1 -1 $-1 6636.3712411651159 757.35701246236397 391.70095671751602 -269.18191370996493 -961.26169594284647 -59.304715196379661 F -0.17693106456777122 F 0 #
edge $505 -1 $-1 $313 0 $403 0.02 $311 $506 forward @7 unknown #
DXID-attrib $-1 -1 $-1 $312 $222 @18 ASM_EDGE_FROM_STEP @5 33139 #
point $-1 -1 $-1 6636.3712411651159 757.35701246236397 391.70095671751602 #
truecolor-adesk-attrib $-1 -1 $507 $-1 $315 -1029333354 #
ellipse-curve $-1 -1 $-1 6674.46929843824 747.43406765359282 379.61488215478789 -0.21515485453921193 -3.6190313264448084e-12 0.97657994479111143 35.156878012480014 5.9135033167033186e-10 7.7455747634116303 1 F -3.1415926535897931 F -1.2217304763960299 #
DXID-attrib $-1 -1 $-1 $316 $225 @18 ASM_EDGE_FROM_STEP @5 17022 #
point $-1 -1 $-1 6639.3124204257601 747.43406765300142 371.86930739137625 #
coedge $-1 -1 $-1 $320 $319 $508 $509 reversed $302 $-1 #
edge $510 -1 $-1 $322 0 $511 0.11348692442262134 $401 $512 forward @7 unknown #
DXID-attrib $-1 -1 $-1 $321 $227 @18 ASM_EDGE_FROM_STEP @5 33142 #
point $-1 -1 $-1 6686.4936588955206 713.60513330550236 382.26402474550963 #
coedge $-1 -1 $-1 $405 $324 $475 $513 reversed $90 $-1 #
coedge $-1 -1 $-1 $508 $476 $324 $427 reversed $397 $-1 #
edge $514 -1 $-1 $429 0 $515 0.20208889880930181 $324 $516 forward @7 unknown #
truecolor-adesk-attrib $-1 -1 $517 $-1 $325 -1029333354 #
vertex $-1 -1 $-1 $325 $518 #
straight-curve $-1 -1 $-1 6682.1905618047367 713.60513330543006 401.79562364133187 917.6849677219642 342.0201433411051 202.17942913676296 F 0 F 0.11348692442262134 #
DXID-attrib $-1 -1 $-1 $330 $234 @18 ASM_EDGE_FROM_STEP @5 43848 #
truecolor-adesk-attrib $-1 -1 $519 $-1 $332 -1029333354 #
ellipse-curve $-1 -1 $-1 6674.46929843824 747.43406765359282 379.61488215478789 -0.21515485453921193 -3.6190313264448084e-12 0.97657994479111143 12.207249309888894 2.0532997627442078e-10 2.6894356817401497 1 F 1.2246467991473532e-16 F 3.1415926535897931 #
truecolor-adesk-attrib $-1 -1 $520 $-1 $333 -1029333354 #
cone-surface $-1 -1 $-1 6670.1662013474561 747.4340676535204 399.14648105061013 0.21515485453921193 3.6190313264448084e-12 -0.97657994479111143 -12.207249309888894 -2.0532997627442078e-10 -2.6894356817401497 1 I I 0 1 12.5 forward I I I I #
DXID-attrib $-1 -1 $-1 $338 $244 @18 ASM_EDGE_FROM_STEP @5 32796 #
coedge $-1 -1 $-1 $442 $340 $384 $478 reversed $250 $-1 #
coedge $-1 -1 $-1 $344 $365 $340 $439 forward $366 $-1 #
edge $521 -1 $-1 $480 -0.17693106456777122 $347 0 $340 $522 forward @7 unknown #
coedge $-1 -1 $-1 $358 $349 $341 $441 forward $359 $-1 #
edge $523 -1 $-1 $352 0 $524 0.20208889880930181 $341 $525 forward @7 unknown #
coedge $-1 -1 $-1 $342 $437 $470 $526 reversed $250 $-1 #
coedge $-1 -1 $-1 $527 $459 $342 $444 reversed $291 $-1 #
edge $528 -1 $-1 $529 0 $524 0.099999999999999922 $443 $530 forward @7 unknown #
truecolor-adesk-attrib $-1 -1 $531 $-1 $345 -1029333354 #
straight-curve $-1 -1 $-1 6662.6201334189 757.35701246280553 272.55820345300037 215.15485453921193 3.6190313264448083e-09 -976.57994479111142 F 0 F 0.02 #
DXID-attrib $-1 -1 $-1 $346 $254 @18 ASM_EDGE_FROM_STEP @5 38996 #
point $-1 -1 $-1 6666.9232305096839 757.35701246287795 253.02660455717819 #
truecolor-adesk-attrib $-1 -1 $532 $-1 $350 -1029333354 #
straight-curve $-1 -1 $-1 6812.5846986341585 752.41994746423768 305.59759197106882 215.15485453921193 3.6190313264448083e-09 -976.57994479111142 F 0 F 0.02 #
DXID-attrib $-1 -1 $-1 $351 $258 @18 ASM_EDGE_FROM_STEP @5 12718 #
point $-1 -1 $-1 6816.8877957249424 752.41994746430998 286.06599307524652 #
fmesh-eye-attrib $-1 -1 $533 $354 $259 #
truecolor-adesk-attrib $-1 -1 $534 $-1 $355 -1029333354 #
face $535 -1 $-1 $189 $366 $3 $-1 $536 reversed single #
plane-surface $-1 -1 $-1 6812.5846986341585 752.41994746423768 305.59759197106882 -0.8457430410239184 0.49999999998577255 -0.1863295697785034 -0.48828997238098726 -0.8660254037926528 -0.10757742726960565 forward_v I I I I #
truecolor-adesk-attrib $-1 -1 $537 $-1 $357 -1029333354 #
straight-curve $-1 -1 $-1 6911.2626814522564 927.43406765757584 327.33779578472115 -976.57994479111153 -1.6426667787463749e-08 -215.15485453921195 F 0 F 0.20583661025443212 #
coedge $-1 -1 $-1 $443 $474 $358 $460 forward $291 $-1 #
edge $538 -1 $-1 $361 0 $524 0.02 $459 $539 forward @7 unknown #
DXID-attrib $-1 -1 $-1 $360 $264 @18 ASM_EDGE_FROM_STEP @4 1959 #
point $-1 -1 $-1 6911.2626814522564 927.43406765757584 327.33779578472115 #
DXID-attrib $-1 -1 $-1 $367 $269 @18 ASM_EDGE_FROM_STEP @5 14129 #
point $-1 -1 $-1 6710.2467759739939 927.43406765419456 283.05104984658436 #
fmesh-eye-attrib $-1 -1 $540 $372 $273 #
DXID-attrib $-1 -1 $-1 $375 $189 @18 ASM_FACE_FROM_STEP @17 step-3M-249-19683 #
DXID-attrib $-1 -1 $-1 $377 $197 @18 ASM_FACE_FROM_STEP @17 step-3M-249-17154 #
DXID-attrib $-1 -1 $-1 $378 $199 @18 ASM_FACE_FROM_STEP @17 step-3M-249-18319 #
coedge $-1 -1 $-1 $541 $379 $405 $499 forward $284 $-1 #
coedge $-1 -1 $-1 $379 $541 $442 $526 forward $284 $-1 #
coedge $-1 -1 $-1 $384 $406 $379 $472 reversed $209 $-1 #
edge $542 -1 $-1 $543 0 $501 0.14200000000000002 $471 $544 forward @7 unknown #
DXID-attrib $-1 -1 $-1 $382 $208 @18 ASM_FACE_FROM_STEP @17 step-3M-249-16116 #
coedge $-1 -1 $-1 $459 $383 $386 $482 forward $291 $-1 #
coedge $-1 -1 $-1 $383 $527 $425 $513 forward $291 $-1 #
coedge $-1 -1 $-1 $426 $494 $383 $477 reversed $397 $-1 #
edge $545 -1 $-1 $515 0 $485 0.02 $476 $546 forward @7 unknown #
edge $547 -1 $-1 $543 0 $480 0.099999999999999964 $384 $548 forward @7 unknown #
truecolor-adesk-attrib $-1 -1 $549 $-1 $385 -1029333354 #
vertex $-1 -1 $-1 $385 $550 #
straight-curve $-1 -1 $-1 6714.5498730647778 927.43406765426698 263.51945095076212 -215.15485453921193 -3.6190313264448083e-09 976.57994479111142 F 0 F 0.02 #
edge $551 -1 $-1 $485 -0.12200000000000001 $361 -0.02 $386 $552 forward @7 unknown #
coedge $-1 -1 $-1 $401 $387 $494 $553 reversed $145 $-1 #
truecolor-adesk-attrib $-1 -1 $554 $-1 $388 -1029333354 #
vertex $-1 -1 $-1 $388 $555 #
straight-curve $-1 -1 $-1 6889.3168862892571 927.4340676572067 426.94895015341456 -976.57994479111153 -1.6426667787463749e-08 -215.15485453921195 F 0 F 0.20583661025443212 #
edge $556 -1 $-1 $412 0 $391 0.02 $408 $557 forward @7 unknown #
DXID-attrib $-1 -1 $-1 $390 $297 @18 ASM_EDGE_FROM_STEP @5 33405 #
point $-1 -1 $-1 6688.3009808109937 927.43406765382542 382.66220421527771 #
DXID-attrib $-1 -1 $-1 $394 $215 @18 ASM_FACE_FROM_STEP @17 step-3M-249-28976 #
fmesh-eye-attrib $-1 -1 $558 $395 $301 #
truecolor-adesk-attrib $-1 -1 $559 $-1 $396 -1029333354 #
plane-surface $-1 -1 $-1 6636.3712411651159 757.35701246236397 391.70095671751602 0.93874889395388994 -0.27563735580120968 0.20682012036372516 0.26918191370996497 0.96126169594284649 0.05930471519637967 forward_v I I I I #
coedge $-1 -1 $-1 $476 $508 $483 $553 forward $397 $-1 #
truecolor-adesk-attrib $-1 -1 $560 $-1 $400 -1029333354 #
straight-curve $-1 -1 $-1 6640.6743382558998 757.35701246243639 372.16935782169378 -269.18191370996493 -961.26169594284647 -59.304715196379661 F -0.17693106456777122 F 0 #
DXID-attrib $-1 -1 $-1 $402 $307 @18 ASM_EDGE_FROM_STEP @5 19369 #
point $-1 -1 $-1 6640.6743382558998 757.35701246243639 372.16935782169378 #
edge $561 -1 $-1 $501 0 $562 0.20583661025443212 $405 $563 forward @7 unknown #
truecolor-adesk-attrib $-1 -1 $564 $-1 $407 -1029333354 #
vertex $-1 -1 $-1 $499 $565 #
straight-curve $-1 -1 $-1 6683.9978837185281 1027.4340676537531 402.19380311109995 1.6820606479597359e-08 -999.99999999999989 3.9053989469493196e-15 F 0 F 0.099999999999999964 #
DXID-attrib $-1 -1 $-1 $411 $310 @18 ASM_EDGE_FROM_STEP @5 27218 #
point $-1 -1 $-1 6683.9978837202098 927.43406765375312 402.19380311109995 #
truecolor-adesk-attrib $-1 -1 $566 $-1 $414 -1029333354 #
straight-curve $-1 -1 $-1 6636.3712411651159 757.35701246236397 391.70095671751602 215.15485453921193 3.6190313264448083e-09 -976.57994479111142 F 0 F 0.02 #
DXID-attrib $-1 -1 $-1 $417 $315 @18 ASM_EDGE_FROM_STEP @5 20160 #
coedge $-1 -1 $-1 $494 $426 $421 $509 forward $397 $-1 #
edge $567 -1 $-1 $429 0 $511 0.02 $421 $568 forward @7 unknown #
truecolor-adesk-attrib $-1 -1 $569 $-1 $422 -1029333354 #
vertex $-1 -1 $-1 $553 $570 #
straight-curve $-1 -1 $-1 6686.4936588955206 713.60513330550236 382.26402474550963 917.6849677219642 342.0201433411051 202.17942913676296 F 0 F 0.11348692442262134 #
edge $571 -1 $-1 $562 0 $515 0.099999999999999922 $425 $572 forward @7 unknown #
truecolor-adesk-attrib $-1 -1 $573 $-1 $427 -1029333354 #
vertex $-1 -1 $-1 $427 $574 #
straight-curve $-1 -1 $-1 6786.3358063803744 752.41994746379612 424.74034523558441 488.28997238098731 866.02540379265304 107.57742726960566 F 0 F 0.20208889880930181 #
DXID-attrib $-1 -1 $-1 $428 $325 @18 ASM_EDGE_FROM_STEP @5 13566 #
point $-1 -1 $-1 6786.3358063803744 752.41994746379612 424.74034523558441 #
DXID-attrib $-1 -1 $-1 $432 $332 @18 ASM_EDGE_FROM_STEP @4 7631 #
fmesh-eye-attrib $-1 -1 $575 $434 $333 #
truecolor-adesk-attrib $-1 -1 $576 $-1 $439 -1029333354 #
straight-curve $-1 -1 $-1 6666.9232305096839 757.35701246287795 253.02660455717819 -269.18191370996493 -961.26169594284647 -59.304715196379661 F -0.17693106456777122 F 0 #
truecolor-adesk-attrib $-1 -1 $577 $-1 $441 -1029333354 #
vertex $-1 -1 $-1 $460 $578 #
straight-curve $-1 -1 $-1 6816.8877957249424 752.41994746430998 286.06599307524652 488.28997238098731 866.02540379265304 107.57742726960566 F 0 F 0.20208889880930181 #
edge $579 -1 $-1 $529 -0.20583661025443212 $543 0 $442 $580 forward @7 unknown #
coedge $-1 -1 $-1 $475 $443 $541 $581 reversed $291 $-1 #
truecolor-adesk-attrib $-1 -1 $582 $-1 $444 -1029333354 #
vertex $-1 -1 $-1 $444 $583 #
straight-curve $-1 -1 $-1 6915.5657785413587 1027.434067657648 307.80619688889891 1.6820606479597359e-08 -999.99999999999989 3.9053989469493196e-15 F 0 F 0.099999999999999922 #
DXID-attrib $-1 -1 $-1 $445 $345 @18 ASM_EDGE_FROM_STEP @5 37829 #
DXID-attrib $-1 -1 $-1 $449 $350 @18 ASM_EDGE_FROM_STEP @5 22415 #
DXID-attrib $-1 -1 $-1 $453 $259 @18 ASM_FACE_FROM_STEP @17 step-3M-249-24462 #
fmesh-eye-attrib $-1 -1 $584 $454 $355 #
truecolor-adesk-attrib $-1 -1 $585 $-1 $455 -1029333354 #
plane-surface $-1 -1 $-1 6662.6201334189 757.35701246280553 272.55820345300037 0.93874889395388994 -0.27563735580120968 0.20682012036372516 0.26918191370996497 0.96126169594284649 0.05930471519637967 forward_v I I I I #
DXID-attrib $-1 -1 $-1 $457 $357 @18 ASM_EDGE_FROM_STEP @5 23690 #
truecolor-adesk-attrib $-1 -1 $586 $-1 $460 -1029333354 #
straight-curve $-1 -1 $-1 6911.2626814522564 927.43406765757584 327.33779578472115 215.15485453921193 3.6190313264448083e-09 -976.57994479111142 F 0 F 0.02 #
DXID-attrib $-1 -1 $-1 $465 $273 @18 ASM_FACE_FROM_STEP @16 step-3M-249-4100 #
coedge $-1 -1 $-1 $470 $469 $527 $581 forward $284 $-1 #
truecolor-adesk-attrib $-1 -1 $587 $-1 $472 -1029333354 #
vertex $-1 -1 $-1 $472 $588 #
straight-curve $-1 -1 $-1 6714.5498730630961 1027.434067654267 263.51945095076212 -215.15485453921193 -3.6190313264448083e-09 976.57994479111142 F 0 F 0.14200000000000002 #
truecolor-adesk-attrib $-1 -1 $589 $-1 $477 -1029333354 #
straight-curve $-1 -1 $-1 6885.0137891984723 927.43406765713428 446.48054904923674 215.15485453921193 3.6190313264448083e-09 -976.57994479111142 F 0 F 0.02 #
truecolor-adesk-attrib $-1 -1 $590 $-1 $478 -1029333354 #
straight-curve $-1 -1 $-1 6714.5498730630961 1027.434067654267 263.51945095076212 1.6820606479597359e-08 -999.99999999999989 3.9053989469493196e-15 F 0 F 0.099999999999999964 #
DXID-attrib $-1 -1 $-1 $479 $385 @18 ASM_EDGE_FROM_STEP @4 8269 #
point $-1 -1 $-1 6714.5498730647778 927.43406765426698 263.51945095076212 #
truecolor-adesk-attrib $-1 -1 $591 $-1 $482 -1029333354 #
straight-curve $-1 -1 $-1 6915.5657785430403 927.43406765764826 307.80619688889891 215.15485453921193 3.6190313264448083e-09 -976.57994479111142 F -0.12200000000000001 F -0.02 #
edge $592 -1 $-1 $511 0 $485 0.20208889880930181 $483 $593 forward @7 unknown #
DXID-attrib $-1 -1 $-1 $484 $388 @18 ASM_EDGE_FROM_STEP @5 25702 #
point $-1 -1 $-1 6889.3168862892571 927.4340676572067 426.94895015341456 #
truecolor-adesk-attrib $-1 -1 $594 $-1 $487 -1029333354 #
straight-curve $-1 -1 $-1 6683.9978837202098 927.43406765375312 402.19380311109995 215.15485453921193 3.6190313264448083e-09 -976.57994479111142 F 0 F 0.02 #
DXID-attrib $-1 -1 $-1 $491 $301 @18 ASM_FACE_FROM_STEP @16 step-3M-249-6843 #
fmesh-eye-attrib $-1 -1 $595 $492 $396 #
DXID-attrib $-1 -1 $-1 $495 $400 @18 ASM_EDGE_FROM_STEP @5 41210 #
truecolor-adesk-attrib $-1 -1 $596 $-1 $499 -1029333354 #
vertex $-1 -1 $-1 $513 $597 #
straight-curve $-1 -1 $-1 6683.9978837185281 1027.4340676537531 402.19380311109995 976.57994479111153 1.6426667787463749e-08 215.15485453921195 F 0 F 0.20583661025443212 #
DXID-attrib $-1 -1 $-1 $500 $407 @18 ASM_EDGE_FROM_STEP @5 21355 #
point $-1 -1 $-1 6683.9978837185281 1027.4340676537531 402.19380311109995 #
DXID-attrib $-1 -1 $-1 $505 $414 @18 ASM_EDGE_FROM_STEP @5 22792 #
truecolor-adesk-attrib $-1 -1 $598 $-1 $509 -1029333354 #
straight-curve $-1 -1 $-1 6786.3358063803744 752.41994746379612 424.74034523558441 215.15485453921193 3.6190313264448083e-09 -976.57994479111142 F 0 F 0.02 #
DXID-attrib $-1 -1 $-1 $510 $422 @18 ASM_EDGE_FROM_STEP @4 8329 #
point $-1 -1 $-1 6790.6389034711592 752.41994746386854 405.20874633976217 #
truecolor-adesk-attrib $-1 -1 $599 $-1 $513 -1029333354 #
straight-curve $-1 -1 $-1 6885.0137891967906 1027.4340676571342 446.48054904923674 1.6820606479597359e-08 -999.99999999999989 3.9053989469493196e-15 F 0 F 0.099999999999999922 #
DXID-attrib $-1 -1 $-1 $514 $427 @18 ASM_EDGE_FROM_STEP @5 37798 #
point $-1 -1 $-1 6885.0137891984723 927.43406765713428 446.48054904923674 #
DXID-attrib $-1 -1 $-1 $520 $333 @18 ASM_FACE_FROM_STEP @17 step-3M-249-29404 #
DXID-attrib $-1 -1 $-1 $521 $439 @18 ASM_EDGE_FROM_STEP @5 16938 #
DXID-attrib $-1 -1 $-1 $523 $441 @18 ASM_EDGE_FROM_STEP @4 8385 #
point $-1 -1 $-1 6915.5657785430403 927.43406765764826 307.80619688889891 #
truecolor-adesk-attrib $-1 -1 $600 $-1 $526 -1029333354 #
straight-curve $-1 -1 $-1 6714.5498730630961 1027.434067654267 263.51945095076212 -976.57994479111153 -1.6426667787463749e-08 -215.15485453921195 F -0.20583661025443212 F 0 #
edge $601 -1 $-1 $562 -0.14200000000000002 $529 0 $527 $602 forward @7 unknown #
DXID-attrib $-1 -1 $-1 $528 $444 @18 ASM_EDGE_FROM_STEP @5 19973 #
point $-1 -1 $-1 6915.5657785413587 1027.434067657648 307.80619688889891 #
DXID-attrib $-1 -1 $-1 $534 $355 @18 ASM_FACE_FROM_STEP @17 step-3M-249-24313 #
fmesh-eye-attrib $-1 -1 $603 $535 $455 #
DXID-attrib $-1 -1 $-1 $538 $460 @18 ASM_EDGE_FROM_STEP @5 28087 #
DXID-attrib $-1 -1 $-1 $542 $472 @18 ASM_EDGE_FROM_STEP @5 39334 #
point $-1 -1 $-1 6714.5498730630961 1027.434067654267 263.51945095076212 #
DXID-attrib $-1 -1 $-1 $545 $477 @18 ASM_EDGE_FROM_STEP @5 15278 #
DXID-attrib $-1 -1 $-1 $547 $478 @18 ASM_EDGE_FROM_STEP @5 18812 #
DXID-attrib $-1 -1 $-1 $551 $482 @18 ASM_EDGE_FROM_STEP @5 22453 #
truecolor-adesk-attrib $-1 -1 $604 $-1 $553 -1029333354 #
straight-curve $-1 -1 $-1 6790.6389034711592 752.41994746386854 405.20874633976217 488.28997238098731 866.02540379265304 107.57742726960566 F 0 F 0.20208889880930181 #
DXID-attrib $-1 -1 $-1 $556 $487 @18 ASM_EDGE_FROM_STEP @3 745 #
DXID-attrib $-1 -1 $-1 $559 $396 @18 ASM_FACE_FROM_STEP @16 step-3M-249-3295 #
DXID-attrib $-1 -1 $-1 $561 $499 @18 ASM_EDGE_FROM_STEP @5 34416 #
point $-1 -1 $-1 6885.0137891967906 1027.4340676571342 446.48054904923674 #
DXID-attrib $-1 -1 $-1 $567 $509 @18 ASM_EDGE_FROM_STEP @5 18351 #
DXID-attrib $-1 -1 $-1 $571 $513 @18 ASM_EDGE_FROM_STEP @4 9481 #
DXID-attrib $-1 -1 $-1 $579 $526 @18 ASM_EDGE_FROM_STEP @4 2412 #
truecolor-adesk-attrib $-1 -1 $605 $-1 $581 -1029333354 #
straight-curve $-1 -1 $-1 6915.5657785413587 1027.434067657648 307.80619688889891 215.15485453921193 3.6190313264448083e-09 -976.57994479111142 F -0.14200000000000002 F 0 #
DXID-attrib $-1 -1 $-1 $585 $455 @18 ASM_FACE_FROM_STEP @17 step-3M-249-34140 #
DXID-attrib $-1 -1 $-1 $592 $553 @18 ASM_EDGE_FROM_STEP @4 1602 #
DXID-attrib $-1 -1 $-1 $601 $581 @18 ASM_EDGE_FROM_STEP @5 38213 #
