700 304 1 0         
5 ZWCAD 12 ACIS 28.0 NT 24 Mon May 13 14:35:02 2024 
1 9.9999999999999995e-07 1e-10 
body $1 -1 $-1 $2 $-1 $-1 #
DXID-attrib $-1 -1 $-1 $-1 $0 @18 ASM_BODY_FROM_STEP @83 93363625230CE025BA1A704894557F09C6542C57|:|BE76307B32EA9896A750FB780CA2424B133E979E #
lump $-1 -1 $-1 $-1 $3 $0 #
shell $-1 -1 $-1 $-1 $-1 $4 $-1 $2 #
face $5 -1 $-1 $6 $7 $3 $-1 $8 reversed single #
truecolor-adesk-attrib $-1 -1 $9 $-1 $4 -1031765888 #
face $10 -1 $-1 $11 $12 $3 $-1 $13 reversed single #
loop $-1 -1 $-1 $-1 $14 $4 #
cone-surface $-1 -1 $-1 -953.16830656956631 -1575.7723981228085 0 -2.7343315262644017e-16 0.99999999999999989 0 -61.948856584492752 -1.6938871157501065e-14 125.5481547768582 1 I I 0 1 140 forward I I I I #
DXID-attrib $-1 -1 $-1 $5 $4 @18 ASM_FACE_FROM_STEP @17 step-4M-396-39117 #
truecolor-adesk-attrib $-1 -1 $15 $-1 $6 -1031765888 #
face $16 -1 $-1 $17 $18 $3 $-1 $19 forward single #
loop $-1 -1 $-1 $-1 $20 $6 #
cone-surface $-1 -1 $-1 -953.16830656956631 -1575.7723981228085 0 -2.7343315262644017e-16 0.99999999999999989 0 -57.523938257028959 -1.5728951789108124e-14 116.58042943565398 1 I I 0 1 129.99999999999994 forward I I I I #
coedge $-1 -1 $-1 $21 $22 $23 $24 reversed $7 $-1 #
DXID-attrib $-1 -1 $-1 $10 $6 @18 ASM_FACE_FROM_STEP @17 step-4M-396-55775 #
truecolor-adesk-attrib $-1 -1 $25 $-1 $11 -1031765888 #
face $26 -1 $-1 $27 $28 $3 $-1 $29 forward single #
loop $-1 -1 $-1 $-1 $30 $11 #
cone-surface $-1 -1 $-1 -953.16830656956631 -1575.7723981228085 0 -2.7343315262644017e-16 0.99999999999999989 0 -66.373774911956517 -1.8148790525893997e-14 134.51588011806234 1 I I 0 1 150 forward I I I I #
coedge $-1 -1 $-1 $31 $32 $33 $34 reversed $12 $-1 #
coedge $-1 -1 $-1 $35 $14 $36 $37 forward $7 $-1 #
coedge $-1 -1 $-1 $14 $35 $38 $39 reversed $7 $-1 #
coedge $-1 -1 $-1 $40 $40 $14 $24 forward $41 $-1 #
edge $42 -1 $-1 $43 -3.1415926535897931 $44 0 $14 $45 forward @7 unknown #
DXID-attrib $-1 -1 $-1 $16 $11 @18 ASM_FACE_FROM_STEP @17 step-4M-396-12504 #
truecolor-adesk-attrib $-1 -1 $46 $-1 $17 -1031765888 #
face $47 -1 $-1 $48 $49 $3 $-1 $50 forward single #
loop $-1 -1 $-1 $-1 $51 $17 #
cone-surface $-1 -1 $-1 -953.16830656956631 -1575.7723981228085 0 -2.7343315262644017e-16 0.99999999999999989 0 -77.436070730615938 -2.117358894687633e-14 156.93519347107275 1 I I 0 1 175 forward I I I I #
coedge $-1 -1 $-1 $52 $53 $54 $55 forward $18 $-1 #
coedge $-1 -1 $-1 $56 $20 $57 $58 forward $12 $-1 #
coedge $-1 -1 $-1 $20 $56 $59 $60 reversed $12 $-1 #
coedge $-1 -1 $-1 $61 $61 $20 $34 forward $62 $-1 #
edge $63 -1 $-1 $64 -3.1415926535897931 $65 0 $20 $66 forward @7 unknown #
coedge $-1 -1 $-1 $22 $21 $67 $68 forward $7 $-1 #
coedge $-1 -1 $-1 $69 $70 $21 $37 reversed $71 $-1 #
edge $72 -1 $-1 $43 -0.16005854054367361 $73 -0.080058540543673631 $21 $74 forward @7 unknown #
coedge $-1 -1 $-1 $70 $69 $22 $39 forward $71 $-1 #
edge $75 -1 $-1 $44 -0.16005854054367361 $76 -0.080058540543673631 $22 $77 forward @7 unknown #
coedge $-1 -1 $-1 $23 $23 $69 $78 forward $41 $-1 #
loop $-1 -1 $-1 $79 $40 $80 #
truecolor-adesk-attrib $-1 -1 $81 $-1 $24 -1031765888 #
vertex $-1 -1 $-1 $24 $82 #
vertex $-1 -1 $-1 $24 $83 #
ellipse-curve $-1 -1 $-1 -953.16830656956631 -1735.8309386664821 0 -2.7343315262644017e-16 0.99999999999999989 0 -61.948856584492752 -1.6938871157501065e-14 125.5481547768582 1 F -3.1415926535897931 F 0 #
DXID-attrib $-1 -1 $-1 $26 $17 @18 ASM_FACE_FROM_STEP @17 step-4M-396-44706 #
truecolor-adesk-attrib $-1 -1 $84 $-1 $27 -1031765888 #
face $85 -1 $-1 $86 $87 $3 $-1 $88 forward single #
loop $-1 -1 $-1 $-1 $89 $27 #
cone-surface $-1 -1 $-1 -953.16830656956631 -1575.7723981228085 0 -2.7343315262644017e-16 0.99999999999999989 0 -91.042694587567041 -2.4894091004684604e-14 184.51094889527556 1 I I 0 1 205.75000000000003 forward I I I I #
coedge $-1 -1 $-1 $90 $91 $92 $93 forward $28 $-1 #
coedge $-1 -1 $-1 $94 $30 $95 $96 forward $18 $-1 #
coedge $-1 -1 $-1 $30 $94 $97 $98 reversed $18 $-1 #
coedge $-1 -1 $-1 $99 $99 $30 $55 reversed $100 $-1 #
edge $101 -1 $-1 $102 0 $103 3.1415926535897931 $30 $104 forward @7 unknown #
coedge $-1 -1 $-1 $32 $31 $105 $106 forward $12 $-1 #
coedge $-1 -1 $-1 $107 $108 $31 $58 reversed $109 $-1 #
edge $110 -1 $-1 $64 -0.5585585405436736 $111 -0.16005854054367361 $31 $112 forward @7 unknown #
coedge $-1 -1 $-1 $108 $107 $32 $60 forward $109 $-1 #
edge $113 -1 $-1 $65 -0.5585585405436736 $114 -0.16005854054367361 $32 $115 forward @7 unknown #
coedge $-1 -1 $-1 $33 $33 $107 $116 forward $62 $-1 #
loop $-1 -1 $-1 $-1 $61 $117 #
truecolor-adesk-attrib $-1 -1 $118 $-1 $34 -1031765888 #
vertex $-1 -1 $-1 $34 $119 #
vertex $-1 -1 $-1 $34 $120 #
ellipse-curve $-1 -1 $-1 -953.1683065695662 -2134.3309386664819 0 -2.7343315262644017e-16 0.99999999999999989 0 -57.523938257028973 -1.5728951789108127e-14 116.58042943565401 1 F -3.1415926535897931 F 0 #
coedge $-1 -1 $-1 $121 $121 $35 $68 reversed $122 $-1 #
edge $123 -1 $-1 $73 -3.1415926535897931 $76 0 $35 $124 forward @7 unknown #
coedge $-1 -1 $-1 $38 $36 $40 $78 reversed $71 $-1 #
coedge $-1 -1 $-1 $36 $38 $121 $125 forward $71 $-1 #
loop $-1 -1 $-1 $-1 $36 $126 #
truecolor-adesk-attrib $-1 -1 $127 $-1 $37 -1031765888 #
vertex $-1 -1 $-1 $37 $128 #
straight-curve $-1 -1 $-1 -891.21944998507354 -1575.7723981228085 -125.54815477685818 -2.7343315262644019e-13 999.99999999999989 0 F -0.16005854054367361 F -0.080058540543673631 #
truecolor-adesk-attrib $-1 -1 $129 $-1 $39 -1031765888 #
vertex $-1 -1 $-1 $68 $130 #
straight-curve $-1 -1 $-1 -1015.1171631540591 -1575.7723981228085 125.5481547768582 -2.7343315262644019e-13 999.99999999999989 0 F -0.16005854054367361 F -0.080058540543673631 #
edge $131 -1 $-1 $44 0 $43 3.1415926535897931 $40 $132 forward @7 unknown #
loop $-1 -1 $-1 $-1 $133 $80 #
face $134 -1 $-1 $126 $41 $3 $-1 $135 reversed single #
DXID-attrib $-1 -1 $-1 $42 $24 @18 ASM_EDGE_FROM_STEP @5 38860 #
point $-1 -1 $-1 -891.21944998507354 -1735.8309386664821 -125.54815477685818 #
point $-1 -1 $-1 -1015.1171631540591 -1735.8309386664821 125.5481547768582 #
DXID-attrib $-1 -1 $-1 $47 $27 @18 ASM_FACE_FROM_STEP @17 step-4M-396-29307 #
truecolor-adesk-attrib $-1 -1 $136 $-1 $48 -1031765888 #
face $137 -1 $-1 $138 $139 $3 $-1 $140 reversed single #
loop $-1 -1 $-1 $-1 $141 $48 #
cone-surface $-1 -1 $-1 -953.16830656956631 -1575.7723981228085 0 -2.7343315262644017e-16 0.99999999999999989 0 -91.042694587567041 -2.4894091004684604e-14 184.51094889527556 1 I I 0 1 205.75000000000003 forward I I I I #
coedge $-1 -1 $-1 $142 $143 $144 $145 forward $49 $-1 #
coedge $-1 -1 $-1 $146 $51 $147 $148 forward $28 $-1 #
coedge $-1 -1 $-1 $51 $146 $149 $150 reversed $28 $-1 #
coedge $-1 -1 $-1 $151 $151 $51 $93 reversed $152 $-1 #
edge $153 -1 $-1 $154 0 $155 3.1415926535897931 $51 $156 forward @7 unknown #
coedge $-1 -1 $-1 $53 $52 $157 $158 reversed $18 $-1 #
coedge $-1 -1 $-1 $159 $160 $52 $96 reversed $161 $-1 #
edge $162 -1 $-1 $103 -0.5585585405436736 $163 -0.18005854054367365 $52 $164 forward @7 unknown #
coedge $-1 -1 $-1 $160 $159 $53 $98 forward $161 $-1 #
edge $165 -1 $-1 $102 -0.5585585405436736 $166 -0.18005854054367365 $53 $167 forward @7 unknown #
coedge $-1 -1 $-1 $54 $54 $159 $168 reversed $100 $-1 #
loop $-1 -1 $-1 $62 $54 $117 #
truecolor-adesk-attrib $-1 -1 $169 $-1 $55 -1031765888 #
vertex $-1 -1 $-1 $55 $170 #
vertex $-1 -1 $-1 $55 $171 #
ellipse-curve $-1 -1 $-1 -953.1683065695662 -2134.3309386664819 0 -2.7343315262644017e-16 0.99999999999999989 0 -66.373774911956517 -1.8148790525893997e-14 134.51588011806234 1 F 0 F 3.1415926535897931 #
coedge $-1 -1 $-1 $133 $133 $56 $106 reversed $79 $-1 #
edge $172 -1 $-1 $111 -3.1415926535897931 $114 0 $56 $173 forward @7 unknown #
coedge $-1 -1 $-1 $59 $57 $61 $116 reversed $109 $-1 #
coedge $-1 -1 $-1 $57 $59 $133 $174 forward $109 $-1 #
loop $-1 -1 $-1 $-1 $57 $175 #
truecolor-adesk-attrib $-1 -1 $176 $-1 $58 -1031765888 #
vertex $-1 -1 $-1 $58 $177 #
straight-curve $-1 -1 $-1 -895.64436831253738 -1575.7723981228085 -116.58042943565398 -2.7343315262644019e-13 999.99999999999989 0 F -0.5585585405436736 F -0.16005854054367361 #
truecolor-adesk-attrib $-1 -1 $178 $-1 $60 -1031765888 #
vertex $-1 -1 $-1 $106 $179 #
straight-curve $-1 -1 $-1 -1010.6922448265952 -1575.7723981228085 116.58042943565398 -2.7343315262644019e-13 999.99999999999989 0 F -0.5585585405436736 F -0.16005854054367361 #
edge $180 -1 $-1 $65 0 $64 3.1415926535897931 $61 $181 forward @7 unknown #
face $182 -1 $-1 $175 $100 $3 $-1 $183 reversed single #
DXID-attrib $-1 -1 $-1 $63 $34 @18 ASM_EDGE_FROM_STEP @5 50906 #
point $-1 -1 $-1 -895.64436831253715 -2134.3309386664819 -116.58042943565401 #
point $-1 -1 $-1 -1010.6922448265951 -2134.3309386664819 116.58042943565401 #
coedge $-1 -1 $-1 $67 $67 $70 $125 reversed $122 $-1 #
loop $-1 -1 $-1 $-1 $121 $184 #
truecolor-adesk-attrib $-1 -1 $185 $-1 $68 -1031765888 #
ellipse-curve $-1 -1 $-1 -953.16830656956631 -1655.8309386664821 0 -2.7343315262644017e-16 0.99999999999999989 0 -61.948856584492745 -1.6938871157501059e-14 125.54815477685817 1 F -3.1415926535897931 F 0 #
edge $186 -1 $-1 $76 0 $73 3.1415926535897931 $70 $187 forward @7 unknown #
face $188 -1 $-1 $184 $71 $3 $-1 $189 reversed single #
DXID-attrib $-1 -1 $-1 $72 $37 @18 ASM_EDGE_FROM_STEP @5 33083 #
point $-1 -1 $-1 -891.21944998507354 -1655.8309386664821 -125.54815477685815 #
DXID-attrib $-1 -1 $-1 $75 $39 @18 ASM_EDGE_FROM_STEP @5 40943 #
point $-1 -1 $-1 -1015.1171631540591 -1655.8309386664821 125.54815477685817 #
truecolor-adesk-attrib $-1 -1 $190 $-1 $78 -1031765888 #
ellipse-curve $-1 -1 $-1 -953.16830656956631 -1735.8309386664821 0 -2.7343315262644017e-16 0.99999999999999989 0 -61.948856584492752 -1.6938871157501065e-14 125.5481547768582 1 F 0 F 3.1415926535897931 #
coedge $-1 -1 $-1 $105 $105 $108 $174 reversed $79 $-1 #
truecolor-adesk-attrib $-1 -1 $191 $-1 $80 -1031765888 #
plane-surface $-1 -1 $-1 -836.58787713391234 -1735.8309386664821 57.523938257028966 2.7343315262644017e-16 -0.99999999999999989 0 0.44249183274637682 1.2099193683929331e-16 -0.89677253412041569 forward_v I I I I #
DXID-attrib $-1 -1 $-1 $85 $48 @18 ASM_FACE_FROM_STEP @17 step-4M-396-30928 #
truecolor-adesk-attrib $-1 -1 $192 $-1 $86 -1031765888 #
face $193 -1 $-1 $194 $195 $3 $-1 $196 forward single #
loop $-1 -1 $-1 $197 $144 $86 #
plane-surface $-1 -1 $-1 -768.65735767429078 -1675.8309386664821 91.042694587567055 -2.7343315262644017e-16 0.99999999999999989 0 -0.44249183274637682 -1.2099193683929331e-16 0.89677253412041569 forward_v I I I I #
coedge $-1 -1 $-1 $198 $199 $142 $200 reversed $87 $-1 #
coedge $-1 -1 $-1 $201 $89 $141 $200 forward $49 $-1 #
coedge $-1 -1 $-1 $89 $201 $202 $203 reversed $49 $-1 #
coedge $-1 -1 $-1 $204 $204 $89 $145 reversed $139 $-1 #
edge $205 -1 $-1 $206 0 $207 3.1415926535897931 $89 $208 forward @7 unknown #
coedge $-1 -1 $-1 $91 $90 $209 $210 reversed $28 $-1 #
coedge $-1 -1 $-1 $211 $212 $90 $148 reversed $195 $-1 #
edge $213 -1 $-1 $155 -0.18005854054367365 $214 -0.10005854054367364 $90 $215 forward @7 unknown #
coedge $-1 -1 $-1 $212 $211 $91 $150 forward $195 $-1 #
edge $216 -1 $-1 $154 -0.18005854054367365 $217 -0.10005854054367364 $91 $218 forward @7 unknown #
coedge $-1 -1 $-1 $92 $92 $211 $219 reversed $152 $-1 #
loop $-1 -1 $-1 $220 $92 $194 #
truecolor-adesk-attrib $-1 -1 $221 $-1 $93 -1031765888 #
vertex $-1 -1 $-1 $93 $222 #
vertex $-1 -1 $-1 $93 $223 #
ellipse-curve $-1 -1 $-1 -953.16830656956631 -1755.8309386664821 0 -2.7343315262644017e-16 0.99999999999999989 0 -77.436070730615938 -2.117358894687633e-14 156.93519347107275 1 F 0 F 3.1415926535897931 #
coedge $-1 -1 $-1 $224 $224 $94 $158 forward $220 $-1 #
edge $225 -1 $-1 $166 0 $163 3.1415926535897931 $94 $226 forward @7 unknown #
coedge $-1 -1 $-1 $97 $95 $99 $168 forward $161 $-1 #
coedge $-1 -1 $-1 $95 $97 $224 $227 reversed $161 $-1 #
loop $-1 -1 $-1 $-1 $95 $228 #
truecolor-adesk-attrib $-1 -1 $229 $-1 $96 -1031765888 #
vertex $-1 -1 $-1 $96 $230 #
straight-curve $-1 -1 $-1 -886.79453165760981 -1575.7723981228085 -134.51588011806234 -2.7343315262644019e-13 999.99999999999989 0 F -0.5585585405436736 F -0.18005854054367365 #
truecolor-adesk-attrib $-1 -1 $231 $-1 $98 -1031765888 #
vertex $-1 -1 $-1 $158 $232 #
straight-curve $-1 -1 $-1 -1019.5420814815228 -1575.7723981228085 134.51588011806234 -2.7343315262644019e-13 999.99999999999989 0 F -0.5585585405436736 F -0.18005854054367365 #
edge $233 -1 $-1 $103 -3.1415926535897931 $102 0 $159 $234 forward @7 unknown #
DXID-attrib $-1 -1 $-1 $101 $55 @18 ASM_EDGE_FROM_STEP @4 7064 #
point $-1 -1 $-1 -1019.5420814815227 -2134.3309386664819 134.51588011806234 #
point $-1 -1 $-1 -886.7945316576097 -2134.3309386664819 -134.51588011806234 #
truecolor-adesk-attrib $-1 -1 $235 $-1 $106 -1031765888 #
ellipse-curve $-1 -1 $-1 -953.16830656956631 -1735.8309386664821 0 -2.7343315262644017e-16 0.99999999999999989 0 -57.523938257028959 -1.5728951789108124e-14 116.58042943565398 1 F -3.1415926535897931 F 0 #
edge $236 -1 $-1 $114 0 $111 3.1415926535897931 $108 $237 forward @7 unknown #
face $238 -1 $-1 $80 $109 $3 $-1 $239 reversed single #
DXID-attrib $-1 -1 $-1 $110 $58 @18 ASM_EDGE_FROM_STEP @5 41167 #
point $-1 -1 $-1 -895.64436831253727 -1735.8309386664821 -116.58042943565398 #
DXID-attrib $-1 -1 $-1 $113 $60 @18 ASM_EDGE_FROM_STEP @5 13549 #
point $-1 -1 $-1 -1010.6922448265952 -1735.8309386664821 116.58042943565398 #
truecolor-adesk-attrib $-1 -1 $240 $-1 $116 -1031765888 #
ellipse-curve $-1 -1 $-1 -953.1683065695662 -2134.3309386664819 0 -2.7343315262644017e-16 0.99999999999999989 0 -57.523938257028973 -1.5728951789108127e-14 116.58042943565401 1 F 0 F 3.1415926535897931 #
truecolor-adesk-attrib $-1 -1 $241 $-1 $117 -1031765888 #
plane-surface $-1 -1 $-1 -818.65242645150374 -2134.3309386664819 66.373774911956531 -2.7343315262644017e-16 0.99999999999999989 0 -0.44249183274637682 -1.2099193683929331e-16 0.89677253412041569 forward_v I I I I #
face $242 -1 $-1 $-1 $243 $3 $-1 $244 reversed single #
DXID-attrib $-1 -1 $-1 $123 $68 @18 ASM_EDGE_FROM_STEP @5 20241 #
truecolor-adesk-attrib $-1 -1 $245 $-1 $125 -1031765888 #
ellipse-curve $-1 -1 $-1 -953.16830656956631 -1655.8309386664821 0 -2.7343315262644017e-16 0.99999999999999989 0 -61.948856584492745 -1.6938871157501059e-14 125.54815477685817 1 F 0 F 3.1415926535897931 #
truecolor-adesk-attrib $-1 -1 $246 $-1 $126 -1031765888 #
cone-surface $-1 -1 $-1 -953.16830656956631 -1575.7723981228085 0 -2.7343315262644017e-16 0.99999999999999989 0 -61.948856584492752 -1.6938871157501065e-14 125.5481547768582 1 I I 0 1 140 forward I I I I #
DXID-attrib $-1 -1 $-1 $131 $78 @18 ASM_EDGE_FROM_STEP @5 19968 #
DXID-attrib $-1 -1 $-1 $134 $80 @18 ASM_FACE_FROM_STEP @17 step-4M-396-50899 #
DXID-attrib $-1 -1 $-1 $137 $86 @18 ASM_FACE_FROM_STEP @17 step-4M-396-54037 #
truecolor-adesk-attrib $-1 -1 $247 $-1 $138 -1031765888 #
face $248 -1 $-1 $228 $152 $3 $-1 $249 reversed single #
loop $-1 -1 $-1 $-1 $147 $138 #
cone-surface $-1 -1 $-1 -953.16830656956631 -1575.7723981228085 0 -2.7343315262644017e-16 0.99999999999999989 0 -77.436070730615938 -2.117358894687633e-14 156.93519347107275 1 I I 0 1 175 forward I I I I #
loop $-1 -1 $-1 $-1 $209 $86 #
coedge $-1 -1 $-1 $202 $141 $204 $250 forward $87 $-1 #
coedge $-1 -1 $-1 $141 $202 $251 $252 reversed $87 $-1 #
edge $253 -1 $-1 $207 -0.10005854054367364 $254 -0.080058540543673631 $142 $255 forward @7 unknown #
coedge $-1 -1 $-1 $143 $142 $256 $257 reversed $49 $-1 #
coedge $-1 -1 $-1 $199 $198 $143 $203 forward $87 $-1 #
edge $258 -1 $-1 $206 -0.10005854054367364 $259 -0.080058540543673631 $143 $260 forward @7 unknown #
coedge $-1 -1 $-1 $144 $144 $198 $250 reversed $139 $-1 #
truecolor-adesk-attrib $-1 -1 $261 $-1 $145 -1031765888 #
vertex $-1 -1 $-1 $145 $262 #
vertex $-1 -1 $-1 $145 $263 #
ellipse-curve $-1 -1 $-1 -953.16830656956631 -1675.8309386664821 0 -2.7343315262644017e-16 0.99999999999999989 0 -91.042694587567041 -2.4894091004684604e-14 184.51094889527556 1 F 0 F 3.1415926535897931 #
coedge $-1 -1 $-1 $264 $264 $146 $210 forward $197 $-1 #
edge $265 -1 $-1 $217 0 $214 3.1415926535897931 $146 $266 forward @7 unknown #
coedge $-1 -1 $-1 $149 $147 $151 $219 forward $195 $-1 #
coedge $-1 -1 $-1 $147 $149 $264 $267 reversed $195 $-1 #
truecolor-adesk-attrib $-1 -1 $268 $-1 $148 -1031765888 #
vertex $-1 -1 $-1 $148 $269 #
straight-curve $-1 -1 $-1 -875.73223583895037 -1575.7723981228085 -156.93519347107275 -2.7343315262644019e-13 999.99999999999989 0 F -0.18005854054367365 F -0.10005854054367364 #
truecolor-adesk-attrib $-1 -1 $270 $-1 $150 -1031765888 #
vertex $-1 -1 $-1 $210 $271 #
straight-curve $-1 -1 $-1 -1030.6043773001823 -1575.7723981228085 156.93519347107275 -2.7343315262644019e-13 999.99999999999989 0 F -0.18005854054367365 F -0.10005854054367364 #
edge $272 -1 $-1 $155 -3.1415926535897931 $154 0 $211 $273 forward @7 unknown #
loop $-1 -1 $-1 $-1 $157 $194 #
DXID-attrib $-1 -1 $-1 $153 $93 @18 ASM_EDGE_FROM_STEP @5 14898 #
point $-1 -1 $-1 -1030.6043773001823 -1755.8309386664821 156.93519347107275 #
point $-1 -1 $-1 -875.73223583895037 -1755.8309386664821 -156.93519347107275 #
coedge $-1 -1 $-1 $157 $157 $160 $227 forward $220 $-1 #
truecolor-adesk-attrib $-1 -1 $274 $-1 $158 -1031765888 #
ellipse-curve $-1 -1 $-1 -953.16830656956631 -1755.8309386664821 0 -2.7343315262644017e-16 0.99999999999999989 0 -66.373774911956517 -1.8148790525893997e-14 134.51588011806234 1 F 0 F 3.1415926535897931 #
edge $275 -1 $-1 $163 -3.1415926535897931 $166 0 $224 $276 forward @7 unknown #
face $277 -1 $-1 $117 $161 $3 $-1 $278 forward single #
DXID-attrib $-1 -1 $-1 $162 $96 @18 ASM_EDGE_FROM_STEP @5 19364 #
point $-1 -1 $-1 -886.7945316576097 -1755.8309386664821 -134.51588011806234 #
DXID-attrib $-1 -1 $-1 $165 $98 @18 ASM_EDGE_FROM_STEP @5 31238 #
point $-1 -1 $-1 -1019.5420814815228 -1755.8309386664821 134.51588011806234 #
truecolor-adesk-attrib $-1 -1 $279 $-1 $168 -1031765888 #
ellipse-curve $-1 -1 $-1 -953.1683065695662 -2134.3309386664819 0 -2.7343315262644017e-16 0.99999999999999989 0 -66.373774911956517 -1.8148790525893997e-14 134.51588011806234 1 F -3.1415926535897931 F 0 #
DXID-attrib $-1 -1 $-1 $172 $106 @18 ASM_EDGE_FROM_STEP @4 1620 #
truecolor-adesk-attrib $-1 -1 $280 $-1 $174 -1031765888 #
ellipse-curve $-1 -1 $-1 -953.16830656956631 -1735.8309386664821 0 -2.7343315262644017e-16 0.99999999999999989 0 -57.523938257028959 -1.5728951789108124e-14 116.58042943565398 1 F 0 F 3.1415926535897931 #
truecolor-adesk-attrib $-1 -1 $281 $-1 $175 -1031765888 #
cone-surface $-1 -1 $-1 -953.16830656956631 -1575.7723981228085 0 -2.7343315262644017e-16 0.99999999999999989 0 -57.523938257028959 -1.5728951789108124e-14 116.58042943565398 1 I I 0 1 129.99999999999994 forward I I I I #
DXID-attrib $-1 -1 $-1 $180 $116 @18 ASM_EDGE_FROM_STEP @5 48508 #
DXID-attrib $-1 -1 $-1 $182 $117 @18 ASM_FACE_FROM_STEP @17 step-4M-396-38834 #
truecolor-adesk-attrib $-1 -1 $282 $-1 $184 -1031765888 #
loop $-1 -1 $-1 $122 $256 $184 #
plane-surface $-1 -1 $-1 -827.62015179270816 -1655.8309386664821 61.948856584492752 2.7343315262644017e-16 -0.99999999999999989 0 0.44249183274637682 1.2099193683929331e-16 -0.89677253412041569 forward_v I I I I #
DXID-attrib $-1 -1 $-1 $186 $125 @18 ASM_EDGE_FROM_STEP @5 29848 #
DXID-attrib $-1 -1 $-1 $188 $126 @18 ASM_FACE_FROM_STEP @17 step-4M-396-41834 #
DXID-attrib $-1 -1 $-1 $193 $138 @18 ASM_FACE_FROM_STEP @17 step-4M-396-36510 #
truecolor-adesk-attrib $-1 -1 $283 $-1 $194 -1031765888 #
plane-surface $-1 -1 $-1 -796.2331130984935 -1755.8309386664821 77.436070730615953 -2.7343315262644017e-16 0.99999999999999989 0 -0.44249183274637682 -1.2099193683929331e-16 0.89677253412041569 forward_v I I I I #
edge $284 -1 $-1 $207 -3.1415926535897931 $206 0 $198 $285 forward @7 unknown #
coedge $-1 -1 $-1 $256 $256 $199 $252 forward $243 $-1 #
edge $286 -1 $-1 $254 -3.1415926535897931 $259 0 $199 $287 forward @7 unknown #
truecolor-adesk-attrib $-1 -1 $288 $-1 $200 -1031765888 #
vertex $-1 -1 $-1 $200 $289 #
straight-curve $-1 -1 $-1 -862.12561198199933 -1575.7723981228085 -184.51094889527556 -2.7343315262644019e-13 999.99999999999989 0 F -0.10005854054367364 F -0.080058540543673631 #
coedge $-1 -1 $-1 $251 $251 $201 $257 forward $243 $-1 #
edge $290 -1 $-1 $259 0 $254 3.1415926535897931 $201 $291 forward @7 unknown #
truecolor-adesk-attrib $-1 -1 $292 $-1 $203 -1031765888 #
vertex $-1 -1 $-1 $257 $293 #
straight-curve $-1 -1 $-1 -1044.2110011571333 -1575.7723981228085 184.51094889527556 -2.7343315262644019e-13 999.99999999999989 0 F -0.10005854054367364 F -0.080058540543673631 #
DXID-attrib $-1 -1 $-1 $205 $145 @18 ASM_EDGE_FROM_STEP @5 13724 #
point $-1 -1 $-1 -1044.2110011571333 -1675.8309386664821 184.51094889527556 #
point $-1 -1 $-1 -862.12561198199921 -1675.8309386664821 -184.51094889527556 #
coedge $-1 -1 $-1 $209 $209 $212 $267 forward $197 $-1 #
truecolor-adesk-attrib $-1 -1 $294 $-1 $210 -1031765888 #
ellipse-curve $-1 -1 $-1 -953.16830656956631 -1675.8309386664821 0 -2.7343315262644017e-16 0.99999999999999989 0 -77.436070730615938 -2.117358894687633e-14 156.93519347107275 1 F 0 F 3.1415926535897931 #
edge $295 -1 $-1 $214 -3.1415926535897931 $217 0 $264 $296 forward @7 unknown #
DXID-attrib $-1 -1 $-1 $213 $148 @18 ASM_EDGE_FROM_STEP @5 29379 #
point $-1 -1 $-1 -875.73223583895037 -1675.8309386664821 -156.93519347107275 #
DXID-attrib $-1 -1 $-1 $216 $150 @18 ASM_EDGE_FROM_STEP @5 24276 #
point $-1 -1 $-1 -1030.6043773001823 -1675.8309386664821 156.93519347107275 #
truecolor-adesk-attrib $-1 -1 $297 $-1 $219 -1031765888 #
ellipse-curve $-1 -1 $-1 -953.16830656956631 -1755.8309386664821 0 -2.7343315262644017e-16 0.99999999999999989 0 -77.436070730615938 -2.117358894687633e-14 156.93519347107275 1 F -3.1415926535897931 F 0 #
DXID-attrib $-1 -1 $-1 $225 $158 @18 ASM_EDGE_FROM_STEP @5 37376 #
truecolor-adesk-attrib $-1 -1 $298 $-1 $227 -1031765888 #
ellipse-curve $-1 -1 $-1 -953.16830656956631 -1755.8309386664821 0 -2.7343315262644017e-16 0.99999999999999989 0 -66.373774911956517 -1.8148790525893997e-14 134.51588011806234 1 F -3.1415926535897931 F 0 #
truecolor-adesk-attrib $-1 -1 $299 $-1 $228 -1031765888 #
cone-surface $-1 -1 $-1 -953.16830656956631 -1575.7723981228085 0 -2.7343315262644017e-16 0.99999999999999989 0 -66.373774911956517 -1.8148790525893997e-14 134.51588011806234 1 I I 0 1 150 forward I I I I #
DXID-attrib $-1 -1 $-1 $233 $168 @18 ASM_EDGE_FROM_STEP @5 55225 #
DXID-attrib $-1 -1 $-1 $236 $174 @18 ASM_EDGE_FROM_STEP @4 6260 #
DXID-attrib $-1 -1 $-1 $238 $175 @18 ASM_FACE_FROM_STEP @16 step-4M-396-3233 #
DXID-attrib $-1 -1 $-1 $242 $184 @18 ASM_FACE_FROM_STEP @16 step-4M-396-9394 #
DXID-attrib $-1 -1 $-1 $248 $194 @18 ASM_FACE_FROM_STEP @17 step-4M-396-29254 #
truecolor-adesk-attrib $-1 -1 $300 $-1 $250 -1031765888 #
ellipse-curve $-1 -1 $-1 -953.16830656956631 -1675.8309386664821 0 -2.7343315262644017e-16 0.99999999999999989 0 -91.042694587567041 -2.4894091004684604e-14 184.51094889527556 1 F -3.1415926535897931 F 0 #
truecolor-adesk-attrib $-1 -1 $301 $-1 $252 -1031765888 #
ellipse-curve $-1 -1 $-1 -953.16830656956631 -1655.8309386664821 0 -2.7343315262644017e-16 0.99999999999999989 0 -91.042694587567041 -2.4894091004684604e-14 184.51094889527556 1 F -3.1415926535897931 F 0 #
DXID-attrib $-1 -1 $-1 $253 $200 @18 ASM_EDGE_FROM_STEP @4 7252 #
point $-1 -1 $-1 -862.12561198199921 -1655.8309386664821 -184.51094889527556 #
truecolor-adesk-attrib $-1 -1 $302 $-1 $257 -1031765888 #
ellipse-curve $-1 -1 $-1 -953.16830656956631 -1655.8309386664821 0 -2.7343315262644017e-16 0.99999999999999989 0 -91.042694587567041 -2.4894091004684604e-14 184.51094889527556 1 F 0 F 3.1415926535897931 #
DXID-attrib $-1 -1 $-1 $258 $203 @18 ASM_EDGE_FROM_STEP @5 48193 #
point $-1 -1 $-1 -1044.2110011571333 -1655.8309386664821 184.51094889527556 #
DXID-attrib $-1 -1 $-1 $265 $210 @18 ASM_EDGE_FROM_STEP @4 6200 #
truecolor-adesk-attrib $-1 -1 $303 $-1 $267 -1031765888 #
ellipse-curve $-1 -1 $-1 -953.16830656956631 -1675.8309386664821 0 -2.7343315262644017e-16 0.99999999999999989 0 -77.436070730615938 -2.117358894687633e-14 156.93519347107275 1 F -3.1415926535897931 F 0 #
DXID-attrib $-1 -1 $-1 $272 $219 @18 ASM_EDGE_FROM_STEP @5 50507 #
DXID-attrib $-1 -1 $-1 $275 $227 @18 ASM_EDGE_FROM_STEP @5 55519 #
DXID-attrib $-1 -1 $-1 $277 $228 @18 ASM_FACE_FROM_STEP @17 step-4M-396-31197 #
DXID-attrib $-1 -1 $-1 $284 $250 @18 ASM_EDGE_FROM_STEP @5 25676 #
DXID-attrib $-1 -1 $-1 $286 $252 @18 ASM_EDGE_FROM_STEP @5 38085 #
DXID-attrib $-1 -1 $-1 $290 $257 @18 ASM_EDGE_FROM_STEP @5 29695 #
DXID-attrib $-1 -1 $-1 $295 $267 @18 ASM_EDGE_FROM_STEP @5 34123 #
