700 460 1 0         
5 ZWCAD 12 ACIS 28.0 NT 24 Mon May 13 14:09:47 2024 
1 9.9999999999999995e-07 1e-10 
body $1 -1 $-1 $2 $-1 $-1 #
DXID-attrib $-1 -1 $-1 $-1 $0 @18 ASM_BODY_FROM_STEP @83 2A90D622D05A9B8977DA07D531E11B8C70F97143|:|746263B85D636F665FAA5F3FBDB3E84EC9FE782F #
lump $-1 -1 $-1 $-1 $3 $0 #
shell $-1 -1 $-1 $-1 $-1 $4 $-1 $2 #
face $5 -1 $-1 $6 $7 $3 $-1 $8 reversed single #
truecolor-adesk-attrib $-1 -1 $9 $-1 $4 -1056964608 #
face $10 -1 $-1 $11 $12 $3 $-1 $13 reversed single #
loop $-1 -1 $-1 $-1 $14 $4 #
cone-surface $-1 -1 $-1 984.29828188479325 -466.70330246569642 309.48497719514035 1.2246467991473532e-16 -1.0374712035357282e-14 -1 -1.1998171016178713e-30 2.3812500000045875 -2.4704783034242125e-14 1 I I 0 1 2.3812500000045875 forward I I I I #
DXID-attrib $-1 -1 $-1 $5 $4 @18 ASM_FACE_FROM_STEP @17 step-3M-378-29750 #
truecolor-adesk-attrib $-1 -1 $15 $-1 $6 -1056964608 #
face $16 -1 $-1 $17 $18 $3 $-1 $19 reversed single #
loop $-1 -1 $-1 $-1 $20 $6 #
cone-surface $-1 -1 $-1 984.29828188479814 -380.59222246569641 309.48497719513949 1.2246467991473532e-16 -1.0374712035357282e-14 -1 -1.1998171016201088e-30 2.3812500000090284 -2.4704783034288194e-14 1 I I 0 1 2.3812500000090289 forward I I I I #
coedge $-1 -1 $-1 $21 $22 $23 $24 reversed $7 $-1 #
DXID-attrib $-1 -1 $-1 $10 $6 @18 ASM_FACE_FROM_STEP @17 step-3M-378-17824 #
truecolor-adesk-attrib $-1 -1 $25 $-1 $11 -1056964608 #
face $26 -1 $-1 $27 $28 $3 $-1 $29 reversed single #
loop $-1 -1 $-1 $-1 $30 $11 #
cone-surface $-1 -1 $-1 1058.8726647121148 -337.53668246570066 309.48497719513904 1.2246467991473532e-16 -1.0374712035357282e-14 -1 -1.199817101620553e-30 2.3812500000099099 -2.4704783034297342e-14 1 I I 0 1 2.3812500000099099 forward I I I I #
coedge $-1 -1 $-1 $31 $32 $33 $34 reversed $12 $-1 #
coedge $-1 -1 $-1 $35 $14 $36 $37 forward $7 $-1 #
coedge $-1 -1 $-1 $14 $35 $38 $39 reversed $7 $-1 #
coedge $-1 -1 $-1 $40 $40 $14 $24 forward $41 $-1 #
edge $42 -1 $-1 $43 -3.1415926535897931 $44 0 $14 $45 forward @7 unknown #
DXID-attrib $-1 -1 $-1 $16 $11 @18 ASM_FACE_FROM_STEP @17 step-3M-378-25538 #
truecolor-adesk-attrib $-1 -1 $46 $-1 $17 -1056964608 #
face $47 -1 $-1 $48 $49 $3 $-1 $50 reversed single #
loop $-1 -1 $-1 $-1 $51 $17 #
cone-surface $-1 -1 $-1 1133.4470475394262 -380.59222246570494 309.48497719513949 1.2246467991473532e-16 -1.0374712035357282e-14 -1 -1.1998171016186618e-30 2.3812500000061561 -2.4704783034258394e-14 1 I I 0 1 2.3812500000061561 forward I I I I #
coedge $-1 -1 $-1 $52 $53 $54 $55 reversed $18 $-1 #
coedge $-1 -1 $-1 $56 $20 $57 $58 forward $12 $-1 #
coedge $-1 -1 $-1 $20 $56 $59 $60 reversed $12 $-1 #
coedge $-1 -1 $-1 $61 $61 $20 $34 forward $62 $-1 #
edge $63 -1 $-1 $64 -3.1415926535897931 $65 0 $20 $66 forward @7 unknown #
coedge $-1 -1 $-1 $22 $21 $67 $68 forward $7 $-1 #
coedge $-1 -1 $-1 $69 $70 $21 $37 reversed $71 $-1 #
edge $72 -1 $-1 $43 0 $73 0.00303784 $21 $74 forward @7 unknown #
coedge $-1 -1 $-1 $70 $69 $22 $39 forward $71 $-1 #
edge $75 -1 $-1 $44 0 $76 0.00303784 $22 $77 forward @7 unknown #
coedge $-1 -1 $-1 $23 $23 $69 $78 forward $41 $-1 #
loop $-1 -1 $-1 $62 $40 $79 #
truecolor-adesk-attrib $-1 -1 $80 $-1 $24 -1056964608 #
vertex $-1 -1 $-1 $24 $81 #
vertex $-1 -1 $-1 $24 $82 #
ellipse-curve $-1 -1 $-1 984.29828188479325 -466.70330246569642 309.48497719514035 1.2246467991473532e-16 -1.0374712035357282e-14 -1 -1.1998171016178713e-30 2.3812500000045875 -2.4704783034242125e-14 1 F -3.1415926535897931 F 0 #
DXID-attrib $-1 -1 $-1 $26 $17 @18 ASM_FACE_FROM_STEP @17 step-3M-378-22468 #
truecolor-adesk-attrib $-1 -1 $83 $-1 $27 -1056964608 #
face $84 -1 $-1 $85 $86 $3 $-1 $87 reversed single #
loop $-1 -1 $-1 $-1 $88 $27 #
cone-surface $-1 -1 $-1 1133.4470475394214 -466.70330246570495 309.4849771951404 1.2246467991473532e-16 -1.0374712035357282e-14 -1 -1.1998171016162176e-30 2.3812500000013057 -2.4704783034208071e-14 1 I I 0 1 2.3812500000013057 forward I I I I #
coedge $-1 -1 $-1 $89 $90 $91 $92 reversed $28 $-1 #
coedge $-1 -1 $-1 $93 $30 $94 $95 forward $18 $-1 #
coedge $-1 -1 $-1 $30 $93 $96 $97 reversed $18 $-1 #
coedge $-1 -1 $-1 $98 $98 $30 $55 forward $99 $-1 #
edge $100 -1 $-1 $101 -3.1415926535897931 $102 0 $30 $103 forward @7 unknown #
coedge $-1 -1 $-1 $32 $31 $104 $105 forward $12 $-1 #
coedge $-1 -1 $-1 $106 $107 $31 $58 reversed $108 $-1 #
edge $109 -1 $-1 $64 0 $110 0.00303784 $31 $111 forward @7 unknown #
coedge $-1 -1 $-1 $107 $106 $32 $60 forward $108 $-1 #
edge $112 -1 $-1 $65 0 $113 0.00303784 $32 $114 forward @7 unknown #
coedge $-1 -1 $-1 $33 $33 $106 $115 forward $62 $-1 #
loop $-1 -1 $-1 $99 $61 $79 #
truecolor-adesk-attrib $-1 -1 $116 $-1 $34 -1056964608 #
vertex $-1 -1 $-1 $34 $117 #
vertex $-1 -1 $-1 $34 $118 #
ellipse-curve $-1 -1 $-1 984.29828188479814 -380.59222246569641 309.48497719513949 1.2246467991473532e-16 -1.0374712035357282e-14 -1 -1.1998171016201088e-30 2.3812500000090284 -2.4704783034288194e-14 1 F -3.1415926535897931 F 0 #
coedge $-1 -1 $-1 $119 $119 $35 $68 reversed $120 $-1 #
edge $121 -1 $-1 $73 -3.1415926535897931 $76 0 $35 $122 forward @7 unknown #
coedge $-1 -1 $-1 $38 $36 $40 $78 reversed $71 $-1 #
coedge $-1 -1 $-1 $36 $38 $119 $123 forward $71 $-1 #
loop $-1 -1 $-1 $-1 $36 $124 #
truecolor-adesk-attrib $-1 -1 $125 $-1 $37 -1056964608 #
vertex $-1 -1 $-1 $37 $126 #
straight-curve $-1 -1 $-1 984.29828188479325 -469.08455246570099 309.4849771951404 1.224646799147353e-13 -1.0374712035357281e-11 -999.99999999999989 F 0 F 0.00303784 #
truecolor-adesk-attrib $-1 -1 $127 $-1 $39 -1056964608 #
vertex $-1 -1 $-1 $68 $128 #
straight-curve $-1 -1 $-1 984.29828188479325 -464.32205246569185 309.48497719514035 1.224646799147353e-13 -1.0374712035357281e-11 -999.99999999999989 F 0 F 0.00303784 #
edge $129 -1 $-1 $44 0 $43 3.1415926535897931 $40 $130 forward @7 unknown #
face $131 -1 $-1 $132 $133 $3 $-1 $134 reversed single #
DXID-attrib $-1 -1 $-1 $42 $24 @18 ASM_EDGE_FROM_STEP @5 12223 #
point $-1 -1 $-1 984.29828188479325 -469.08455246570099 309.4849771951404 #
point $-1 -1 $-1 984.29828188479325 -464.32205246569185 309.48497719514035 #
DXID-attrib $-1 -1 $-1 $47 $27 @18 ASM_FACE_FROM_STEP @16 step-3M-378-1325 #
truecolor-adesk-attrib $-1 -1 $135 $-1 $48 -1056964608 #
face $136 -1 $-1 $137 $138 $3 $-1 $139 reversed single #
loop $-1 -1 $-1 $-1 $140 $48 #
cone-surface $-1 -1 $-1 1058.8726647121048 -509.7588424657007 309.4849771951408 1.2246467991473532e-16 -1.0374712035357282e-14 -1 -1.1998171016155602e-30 2.381250000000001 -2.4704783034194538e-14 1 I I 0 1 2.381250000000001 forward I I I I #
coedge $-1 -1 $-1 $141 $142 $143 $144 reversed $49 $-1 #
coedge $-1 -1 $-1 $145 $51 $146 $147 forward $28 $-1 #
coedge $-1 -1 $-1 $51 $145 $148 $149 reversed $28 $-1 #
coedge $-1 -1 $-1 $150 $150 $51 $92 forward $151 $-1 #
edge $152 -1 $-1 $153 -3.1415926535897931 $154 0 $51 $155 forward @7 unknown #
coedge $-1 -1 $-1 $53 $52 $156 $157 forward $18 $-1 #
coedge $-1 -1 $-1 $158 $159 $52 $95 reversed $160 $-1 #
edge $161 -1 $-1 $101 0 $162 0.00303784 $52 $163 forward @7 unknown #
coedge $-1 -1 $-1 $159 $158 $53 $97 forward $160 $-1 #
edge $164 -1 $-1 $102 0 $165 0.00303784 $53 $166 forward @7 unknown #
coedge $-1 -1 $-1 $54 $54 $158 $167 forward $99 $-1 #
loop $-1 -1 $-1 $151 $98 $79 #
truecolor-adesk-attrib $-1 -1 $168 $-1 $55 -1056964608 #
vertex $-1 -1 $-1 $55 $169 #
vertex $-1 -1 $-1 $55 $170 #
ellipse-curve $-1 -1 $-1 1058.8726647121148 -337.53668246570066 309.48497719513904 1.2246467991473532e-16 -1.0374712035357282e-14 -1 -1.199817101620553e-30 2.3812500000099099 -2.4704783034297342e-14 1 F -3.1415926535897931 F 0 #
coedge $-1 -1 $-1 $171 $171 $56 $105 reversed $172 $-1 #
edge $173 -1 $-1 $110 -3.1415926535897931 $113 0 $56 $174 forward @7 unknown #
coedge $-1 -1 $-1 $59 $57 $61 $115 reversed $108 $-1 #
coedge $-1 -1 $-1 $57 $59 $171 $175 forward $108 $-1 #
loop $-1 -1 $-1 $-1 $57 $176 #
truecolor-adesk-attrib $-1 -1 $177 $-1 $58 -1056964608 #
vertex $-1 -1 $-1 $58 $178 #
straight-curve $-1 -1 $-1 984.29828188479814 -382.97347246570547 309.48497719513949 1.224646799147353e-13 -1.0374712035357281e-11 -999.99999999999989 F 0 F 0.00303784 #
truecolor-adesk-attrib $-1 -1 $179 $-1 $60 -1056964608 #
vertex $-1 -1 $-1 $105 $180 #
straight-curve $-1 -1 $-1 984.29828188479814 -378.21097246568741 309.48497719513944 1.224646799147353e-13 -1.0374712035357281e-11 -999.99999999999989 F 0 F 0.00303784 #
edge $181 -1 $-1 $65 0 $64 3.1415926535897931 $61 $182 forward @7 unknown #
DXID-attrib $-1 -1 $-1 $63 $34 @18 ASM_EDGE_FROM_STEP @5 28821 #
point $-1 -1 $-1 984.29828188479814 -382.97347246570547 309.48497719513949 #
point $-1 -1 $-1 984.29828188479814 -378.21097246568741 309.48497719513944 #
coedge $-1 -1 $-1 $67 $67 $70 $123 reversed $120 $-1 #
loop $-1 -1 $-1 $172 $119 $132 #
truecolor-adesk-attrib $-1 -1 $183 $-1 $68 -1056964608 #
ellipse-curve $-1 -1 $-1 984.29828188479325 -466.70330246569642 306.44713719514039 1.2246467991473532e-16 -1.0374712035357282e-14 -1 -1.1998171016178713e-30 2.3812500000045875 -2.4704783034242125e-14 1 F -3.1415926535897931 F 0 #
edge $184 -1 $-1 $76 0 $73 3.1415926535897931 $119 $185 forward @7 unknown #
face $186 -1 $-1 $-1 $71 $3 $-1 $187 reversed single #
DXID-attrib $-1 -1 $-1 $72 $37 @18 ASM_EDGE_FROM_STEP @5 37156 #
point $-1 -1 $-1 984.29828188479325 -469.08455246570105 306.44713719514039 #
DXID-attrib $-1 -1 $-1 $75 $39 @18 ASM_EDGE_FROM_STEP @5 18223 #
point $-1 -1 $-1 984.29828188479325 -464.32205246569185 306.44713719514033 #
truecolor-adesk-attrib $-1 -1 $188 $-1 $78 -1056964608 #
ellipse-curve $-1 -1 $-1 984.29828188479325 -466.70330246569642 309.48497719514035 1.2246467991473532e-16 -1.0374712035357282e-14 -1 -1.1998171016178713e-30 2.3812500000045875 -2.4704783034242125e-14 1 F 0 F 3.1415926535897931 #
truecolor-adesk-attrib $-1 -1 $189 $-1 $79 -1056964608 #
face $190 -1 $-1 $191 $192 $3 $-1 $193 forward single #
loop $-1 -1 $-1 $41 $194 $79 #
plane-surface $-1 -1 $-1 1058.8726647121048 -423.64776246570068 309.48497719513995 1.2246467991473532e-16 -1.0374712035357282e-14 -1 -1.2798049083899303e-29 25.399999999999995 -2.6351768569807493e-13 forward_v I I I I #
DXID-attrib $-1 -1 $-1 $84 $48 @18 ASM_FACE_FROM_STEP @17 step-3M-378-10682 #
truecolor-adesk-attrib $-1 -1 $195 $-1 $85 -1056964608 #
face $196 -1 $-1 $197 $198 $3 $-1 $199 forward single #
loop $-1 -1 $-1 $-1 $200 $85 #
cone-surface $-1 -1 $-1 1058.8726647121048 -423.64776246570068 309.48497719513995 1.2246467991473532e-16 -1.0374712035357282e-14 -1 -3.5583695672873635e-29 70.622160000000008 -7.3268457331492776e-13 1 I I 0 1 70.622160000000008 forward I I I I #
coedge $-1 -1 $-1 $201 $202 $203 $204 reversed $86 $-1 #
coedge $-1 -1 $-1 $205 $88 $206 $207 forward $49 $-1 #
coedge $-1 -1 $-1 $88 $205 $208 $209 reversed $49 $-1 #
coedge $-1 -1 $-1 $210 $210 $88 $144 forward $211 $-1 #
edge $212 -1 $-1 $213 -3.1415926535897931 $214 0 $88 $215 forward @7 unknown #
coedge $-1 -1 $-1 $90 $89 $216 $217 forward $28 $-1 #
coedge $-1 -1 $-1 $218 $219 $89 $147 reversed $220 $-1 #
edge $221 -1 $-1 $153 0 $222 0.00303784 $89 $223 forward @7 unknown #
coedge $-1 -1 $-1 $219 $218 $90 $149 forward $220 $-1 #
edge $224 -1 $-1 $154 0 $225 0.00303784 $90 $226 forward @7 unknown #
coedge $-1 -1 $-1 $91 $91 $218 $227 forward $151 $-1 #
loop $-1 -1 $-1 $211 $150 $79 #
truecolor-adesk-attrib $-1 -1 $228 $-1 $92 -1056964608 #
vertex $-1 -1 $-1 $92 $229 #
vertex $-1 -1 $-1 $92 $230 #
ellipse-curve $-1 -1 $-1 1133.4470475394262 -380.59222246570494 309.48497719513949 1.2246467991473532e-16 -1.0374712035357282e-14 -1 -1.1998171016186618e-30 2.3812500000061561 -2.4704783034258394e-14 1 F -3.1415926535897931 F 0 #
coedge $-1 -1 $-1 $231 $231 $93 $157 reversed $232 $-1 #
edge $233 -1 $-1 $162 -3.1415926535897931 $165 0 $93 $234 forward @7 unknown #
coedge $-1 -1 $-1 $96 $94 $98 $167 reversed $160 $-1 #
coedge $-1 -1 $-1 $94 $96 $231 $235 forward $160 $-1 #
loop $-1 -1 $-1 $-1 $94 $236 #
truecolor-adesk-attrib $-1 -1 $237 $-1 $95 -1056964608 #
vertex $-1 -1 $-1 $95 $238 #
straight-curve $-1 -1 $-1 1058.8726647121148 -339.91793246571058 309.48497719513904 1.224646799147353e-13 -1.0374712035357281e-11 -999.99999999999989 F 0 F 0.00303784 #
truecolor-adesk-attrib $-1 -1 $239 $-1 $97 -1056964608 #
vertex $-1 -1 $-1 $157 $240 #
straight-curve $-1 -1 $-1 1058.8726647121148 -335.15543246569081 309.48497719513904 1.224646799147353e-13 -1.0374712035357281e-11 -999.99999999999989 F 0 F 0.00303784 #
edge $241 -1 $-1 $102 0 $101 3.1415926535897931 $98 $242 forward @7 unknown #
DXID-attrib $-1 -1 $-1 $100 $55 @18 ASM_EDGE_FROM_STEP @5 41363 #
point $-1 -1 $-1 1058.8726647121148 -339.91793246571058 309.48497719513904 #
point $-1 -1 $-1 1058.8726647121148 -335.15543246569081 309.48497719513904 #
coedge $-1 -1 $-1 $104 $104 $107 $175 reversed $172 $-1 #
loop $-1 -1 $-1 $232 $171 $132 #
truecolor-adesk-attrib $-1 -1 $243 $-1 $105 -1056964608 #
ellipse-curve $-1 -1 $-1 984.29828188479814 -380.59222246569647 306.44713719513948 1.2246467991473532e-16 -1.0374712035357282e-14 -1 -1.1998171016201088e-30 2.3812500000090284 -2.4704783034288194e-14 1 F -3.1415926535897931 F 0 #
edge $244 -1 $-1 $113 0 $110 3.1415926535897931 $171 $245 forward @7 unknown #
face $246 -1 $-1 $124 $108 $3 $-1 $247 reversed single #
DXID-attrib $-1 -1 $-1 $109 $58 @18 ASM_EDGE_FROM_STEP @5 30310 #
point $-1 -1 $-1 984.29828188479814 -382.97347246570553 306.44713719513948 #
DXID-attrib $-1 -1 $-1 $112 $60 @18 ASM_EDGE_FROM_STEP @5 16760 #
point $-1 -1 $-1 984.29828188479814 -378.21097246568746 306.44713719513948 #
truecolor-adesk-attrib $-1 -1 $248 $-1 $115 -1056964608 #
ellipse-curve $-1 -1 $-1 984.29828188479814 -380.59222246569641 309.48497719513949 1.2246467991473532e-16 -1.0374712035357282e-14 -1 -1.1998171016201088e-30 2.3812500000090284 -2.4704783034288194e-14 1 F 0 F 3.1415926535897931 #
DXID-attrib $-1 -1 $-1 $121 $68 @18 ASM_EDGE_FROM_STEP @5 23409 #
truecolor-adesk-attrib $-1 -1 $249 $-1 $123 -1056964608 #
ellipse-curve $-1 -1 $-1 984.29828188479325 -466.70330246569642 306.44713719514039 1.2246467991473532e-16 -1.0374712035357282e-14 -1 -1.1998171016178713e-30 2.3812500000045875 -2.4704783034242125e-14 1 F 0 F 3.1415926535897931 #
truecolor-adesk-attrib $-1 -1 $250 $-1 $124 -1056964608 #
cone-surface $-1 -1 $-1 984.29828188479325 -466.70330246569642 309.48497719514035 1.2246467991473532e-16 -1.0374712035357282e-14 -1 -1.1998171016178713e-30 2.3812500000045875 -2.4704783034242125e-14 1 I I 0 1 2.3812500000045875 forward I I I I #
DXID-attrib $-1 -1 $-1 $129 $78 @18 ASM_EDGE_FROM_STEP @4 4947 #
DXID-attrib $-1 -1 $-1 $131 $79 @18 ASM_FACE_FROM_STEP @17 step-3M-378-35069 #
truecolor-adesk-attrib $-1 -1 $251 $-1 $132 -1056964608 #
face $252 -1 $-1 $253 $254 $3 $-1 $255 reversed single #
loop $-1 -1 $-1 $120 $256 $132 #
plane-surface $-1 -1 $-1 1058.8726647121048 -423.64776246570074 306.44713719513993 1.2246467991473532e-16 -1.0374712035357282e-14 -1 -1.2798049083899303e-29 25.399999999999995 -2.6351768569807493e-13 forward_v I I I I #
coedge $-1 -1 $-1 $257 $257 $258 $259 reversed $133 $-1 #
DXID-attrib $-1 -1 $-1 $136 $85 @18 ASM_FACE_FROM_STEP @17 step-3M-378-26098 #
truecolor-adesk-attrib $-1 -1 $260 $-1 $137 -1056964608 #
face $261 -1 $-1 $79 $262 $3 $-1 $263 forward single #
loop $-1 -1 $-1 $-1 $258 $137 #
cone-surface $-1 -1 $-1 1058.8726647121048 -423.64776246570068 309.48497719513995 1.2246467991473532e-16 -1.0374712035357282e-14 -1 -5.1192196335597213e-29 101.59999999999998 -1.0540707427922997e-12 1 I I 0 1 101.59999999999998 forward I I I I #
coedge $-1 -1 $-1 $264 $265 $266 $267 reversed $138 $-1 #
coedge $-1 -1 $-1 $268 $140 $269 $270 forward $86 $-1 #
coedge $-1 -1 $-1 $140 $268 $271 $272 reversed $86 $-1 #
coedge $-1 -1 $-1 $273 $273 $140 $204 forward $274 $-1 #
edge $275 -1 $-1 $276 -3.1415926535897931 $277 0 $140 $278 forward @7 unknown #
coedge $-1 -1 $-1 $142 $141 $279 $280 forward $49 $-1 #
coedge $-1 -1 $-1 $281 $282 $141 $207 reversed $283 $-1 #
edge $284 -1 $-1 $213 0 $285 0.00303784 $141 $286 forward @7 unknown #
coedge $-1 -1 $-1 $282 $281 $142 $209 forward $283 $-1 #
edge $287 -1 $-1 $214 0 $288 0.00303784 $142 $289 forward @7 unknown #
coedge $-1 -1 $-1 $143 $143 $281 $290 forward $211 $-1 #
loop $-1 -1 $-1 $274 $210 $79 #
truecolor-adesk-attrib $-1 -1 $291 $-1 $144 -1056964608 #
vertex $-1 -1 $-1 $144 $292 #
vertex $-1 -1 $-1 $144 $293 #
ellipse-curve $-1 -1 $-1 1133.4470475394214 -466.70330246570495 309.4849771951404 1.2246467991473532e-16 -1.0374712035357282e-14 -1 -1.1998171016162176e-30 2.3812500000013057 -2.4704783034208071e-14 1 F -3.1415926535897931 F 0 #
coedge $-1 -1 $-1 $294 $294 $145 $217 reversed $295 $-1 #
edge $296 -1 $-1 $222 -3.1415926535897931 $225 0 $145 $297 forward @7 unknown #
coedge $-1 -1 $-1 $148 $146 $150 $227 reversed $220 $-1 #
coedge $-1 -1 $-1 $146 $148 $294 $298 forward $220 $-1 #
loop $-1 -1 $-1 $-1 $146 $299 #
truecolor-adesk-attrib $-1 -1 $300 $-1 $147 -1056964608 #
vertex $-1 -1 $-1 $147 $301 #
straight-curve $-1 -1 $-1 1133.4470475394262 -382.9734724657111 309.48497719513949 1.224646799147353e-13 -1.0374712035357281e-11 -999.99999999999989 F 0 F 0.00303784 #
truecolor-adesk-attrib $-1 -1 $302 $-1 $149 -1056964608 #
vertex $-1 -1 $-1 $217 $303 #
straight-curve $-1 -1 $-1 1133.4470475394262 -378.21097246569877 309.48497719513949 1.224646799147353e-13 -1.0374712035357281e-11 -999.99999999999989 F 0 F 0.00303784 #
edge $304 -1 $-1 $154 0 $153 3.1415926535897931 $150 $305 forward @7 unknown #
DXID-attrib $-1 -1 $-1 $152 $92 @18 ASM_EDGE_FROM_STEP @5 20437 #
point $-1 -1 $-1 1133.4470475394262 -382.9734724657111 309.48497719513949 #
point $-1 -1 $-1 1133.4470475394262 -378.21097246569877 309.48497719513949 #
coedge $-1 -1 $-1 $156 $156 $159 $235 reversed $232 $-1 #
loop $-1 -1 $-1 $295 $231 $132 #
truecolor-adesk-attrib $-1 -1 $306 $-1 $157 -1056964608 #
ellipse-curve $-1 -1 $-1 1058.8726647121148 -337.53668246570072 306.44713719513902 1.2246467991473532e-16 -1.0374712035357282e-14 -1 -1.199817101620553e-30 2.3812500000099099 -2.4704783034297342e-14 1 F -3.1415926535897931 F 0 #
edge $307 -1 $-1 $165 0 $162 3.1415926535897931 $231 $308 forward @7 unknown #
face $309 -1 $-1 $176 $160 $3 $-1 $310 reversed single #
DXID-attrib $-1 -1 $-1 $161 $95 @18 ASM_EDGE_FROM_STEP @5 23918 #
point $-1 -1 $-1 1058.8726647121148 -339.91793246571063 306.44713719513908 #
DXID-attrib $-1 -1 $-1 $164 $97 @18 ASM_EDGE_FROM_STEP @4 1832 #
point $-1 -1 $-1 1058.8726647121148 -335.15543246569086 306.44713719513902 #
truecolor-adesk-attrib $-1 -1 $311 $-1 $167 -1056964608 #
ellipse-curve $-1 -1 $-1 1058.8726647121148 -337.53668246570066 309.48497719513904 1.2246467991473532e-16 -1.0374712035357282e-14 -1 -1.199817101620553e-30 2.3812500000099099 -2.4704783034297342e-14 1 F 0 F 3.1415926535897931 #
DXID-attrib $-1 -1 $-1 $173 $105 @18 ASM_EDGE_FROM_STEP @4 9060 #
truecolor-adesk-attrib $-1 -1 $312 $-1 $175 -1056964608 #
ellipse-curve $-1 -1 $-1 984.29828188479814 -380.59222246569647 306.44713719513948 1.2246467991473532e-16 -1.0374712035357282e-14 -1 -1.1998171016201088e-30 2.3812500000090284 -2.4704783034288194e-14 1 F 0 F 3.1415926535897931 #
truecolor-adesk-attrib $-1 -1 $313 $-1 $176 -1056964608 #
cone-surface $-1 -1 $-1 984.29828188479814 -380.59222246569641 309.48497719513949 1.2246467991473532e-16 -1.0374712035357282e-14 -1 -1.1998171016201088e-30 2.3812500000090284 -2.4704783034288194e-14 1 I I 0 1 2.3812500000090289 forward I I I I #
DXID-attrib $-1 -1 $-1 $181 $115 @18 ASM_EDGE_FROM_STEP @4 9301 #
DXID-attrib $-1 -1 $-1 $184 $123 @18 ASM_EDGE_FROM_STEP @5 18938 #
DXID-attrib $-1 -1 $-1 $186 $124 @18 ASM_FACE_FROM_STEP @17 step-3M-378-33604 #
DXID-attrib $-1 -1 $-1 $190 $132 @18 ASM_FACE_FROM_STEP @15 step-3M-378-822 #
truecolor-adesk-attrib $-1 -1 $314 $-1 $191 -1056964608 #
face $315 -1 $-1 $316 $317 $3 $-1 $318 reversed single #
loop $-1 -1 $-1 $-1 $319 $191 #
cone-surface $-1 -1 $-1 1058.8726647121048 -423.64776246570068 309.48497719513995 1.2246467991473532e-16 -1.0374712035357282e-14 -1 -3.5583695672873635e-29 70.622160000000008 -7.3268457331492776e-13 1 I I 0 1 70.622160000000008 forward I I I I #
coedge $-1 -1 $-1 $320 $320 $321 $322 forward $192 $-1 #
coedge $-1 -1 $-1 $194 $194 $323 $324 reversed $133 $-1 #
coedge $-1 -1 $-1 $325 $326 $194 $259 forward $198 $-1 #
edge $327 -1 $-1 $328 0 $329 3.1415926535897931 $258 $330 forward @7 unknown #
DXID-attrib $-1 -1 $-1 $196 $137 @18 ASM_FACE_FROM_STEP @17 step-3M-378-36323 #
truecolor-adesk-attrib $-1 -1 $331 $-1 $197 -1056964608 #
loop $-1 -1 $-1 $-1 $332 $197 #
cone-surface $-1 -1 $-1 1058.8726647121048 -423.64776246570068 309.48497719513995 1.2246467991473532e-16 -1.0374712035357282e-14 -1 -5.1192196335597213e-29 101.59999999999998 -1.0540707427922997e-12 1 I I 0 1 101.59999999999998 forward I I I I #
coedge $-1 -1 $-1 $333 $200 $319 $334 forward $138 $-1 #
coedge $-1 -1 $-1 $200 $333 $335 $336 reversed $138 $-1 #
coedge $-1 -1 $-1 $337 $337 $200 $267 forward $338 $-1 #
edge $339 -1 $-1 $340 -3.1415926535897931 $341 0 $200 $342 forward @7 unknown #
coedge $-1 -1 $-1 $202 $201 $343 $344 forward $86 $-1 #
coedge $-1 -1 $-1 $345 $346 $201 $270 reversed $317 $-1 #
edge $347 -1 $-1 $276 0 $348 0.00303784 $201 $349 forward @7 unknown #
coedge $-1 -1 $-1 $346 $345 $202 $272 forward $317 $-1 #
edge $350 -1 $-1 $277 0 $351 0.00303784 $202 $352 forward @7 unknown #
coedge $-1 -1 $-1 $203 $203 $345 $353 forward $274 $-1 #
loop $-1 -1 $-1 $338 $273 $79 #
truecolor-adesk-attrib $-1 -1 $354 $-1 $204 -1056964608 #
vertex $-1 -1 $-1 $204 $355 #
vertex $-1 -1 $-1 $204 $356 #
ellipse-curve $-1 -1 $-1 1058.8726647121048 -509.7588424657007 309.4849771951408 1.2246467991473532e-16 -1.0374712035357282e-14 -1 -1.1998171016155602e-30 2.381250000000001 -2.4704783034194538e-14 1 F -3.1415926535897931 F 0 #
coedge $-1 -1 $-1 $357 $357 $205 $280 reversed $358 $-1 #
edge $359 -1 $-1 $285 -3.1415926535897931 $288 0 $205 $360 forward @7 unknown #
coedge $-1 -1 $-1 $208 $206 $210 $290 reversed $283 $-1 #
coedge $-1 -1 $-1 $206 $208 $357 $361 forward $283 $-1 #
loop $-1 -1 $-1 $-1 $206 $316 #
truecolor-adesk-attrib $-1 -1 $362 $-1 $207 -1056964608 #
vertex $-1 -1 $-1 $207 $363 #
straight-curve $-1 -1 $-1 1133.4470475394214 -469.08455246570622 309.4849771951404 1.224646799147353e-13 -1.0374712035357281e-11 -999.99999999999989 F 0 F 0.00303784 #
truecolor-adesk-attrib $-1 -1 $364 $-1 $209 -1056964608 #
vertex $-1 -1 $-1 $280 $365 #
straight-curve $-1 -1 $-1 1133.4470475394214 -464.32205246570362 309.48497719514035 1.224646799147353e-13 -1.0374712035357281e-11 -999.99999999999989 F 0 F 0.00303784 #
edge $366 -1 $-1 $214 0 $213 3.1415926535897931 $210 $367 forward @7 unknown #
DXID-attrib $-1 -1 $-1 $212 $144 @18 ASM_EDGE_FROM_STEP @4 1644 #
point $-1 -1 $-1 1133.4470475394214 -469.08455246570622 309.4849771951404 #
point $-1 -1 $-1 1133.4470475394214 -464.32205246570362 309.48497719514035 #
coedge $-1 -1 $-1 $216 $216 $219 $298 reversed $295 $-1 #
loop $-1 -1 $-1 $358 $294 $132 #
truecolor-adesk-attrib $-1 -1 $368 $-1 $217 -1056964608 #
ellipse-curve $-1 -1 $-1 1133.4470475394262 -380.59222246570494 306.44713719513948 1.2246467991473532e-16 -1.0374712035357282e-14 -1 -1.1998171016186618e-30 2.3812500000061561 -2.4704783034258394e-14 1 F -3.1415926535897931 F 0 #
edge $369 -1 $-1 $225 0 $222 3.1415926535897931 $294 $370 forward @7 unknown #
face $371 -1 $-1 $236 $220 $3 $-1 $372 reversed single #
DXID-attrib $-1 -1 $-1 $221 $147 @18 ASM_EDGE_FROM_STEP @4 7356 #
point $-1 -1 $-1 1133.4470475394262 -382.9734724657111 306.44713719513953 #
DXID-attrib $-1 -1 $-1 $224 $149 @18 ASM_EDGE_FROM_STEP @5 18827 #
point $-1 -1 $-1 1133.4470475394262 -378.21097246569883 306.44713719513948 #
truecolor-adesk-attrib $-1 -1 $373 $-1 $227 -1056964608 #
ellipse-curve $-1 -1 $-1 1133.4470475394262 -380.59222246570494 309.48497719513949 1.2246467991473532e-16 -1.0374712035357282e-14 -1 -1.1998171016186618e-30 2.3812500000061561 -2.4704783034258394e-14 1 F 0 F 3.1415926535897931 #
DXID-attrib $-1 -1 $-1 $233 $157 @18 ASM_EDGE_FROM_STEP @5 25841 #
truecolor-adesk-attrib $-1 -1 $374 $-1 $235 -1056964608 #
ellipse-curve $-1 -1 $-1 1058.8726647121148 -337.53668246570072 306.44713719513902 1.2246467991473532e-16 -1.0374712035357282e-14 -1 -1.199817101620553e-30 2.3812500000099099 -2.4704783034297342e-14 1 F 0 F 3.1415926535897931 #
truecolor-adesk-attrib $-1 -1 $375 $-1 $236 -1056964608 #
cone-surface $-1 -1 $-1 1058.8726647121148 -337.53668246570066 309.48497719513904 1.2246467991473532e-16 -1.0374712035357282e-14 -1 -1.199817101620553e-30 2.3812500000099099 -2.4704783034297342e-14 1 I I 0 1 2.3812500000099099 forward I I I I #
DXID-attrib $-1 -1 $-1 $241 $167 @18 ASM_EDGE_FROM_STEP @5 12431 #
DXID-attrib $-1 -1 $-1 $244 $175 @18 ASM_EDGE_FROM_STEP @5 29604 #
DXID-attrib $-1 -1 $-1 $246 $176 @18 ASM_FACE_FROM_STEP @17 step-3M-378-37102 #
DXID-attrib $-1 -1 $-1 $252 $191 @18 ASM_FACE_FROM_STEP @17 step-3M-378-28938 #
truecolor-adesk-attrib $-1 -1 $376 $-1 $253 -1056964608 #
face $377 -1 $-1 $299 $283 $3 $-1 $378 reversed single #
loop $-1 -1 $-1 $-1 $269 $253 #
cone-surface $-1 -1 $-1 1058.8726647121048 -509.7588424657007 309.4849771951408 1.2246467991473532e-16 -1.0374712035357282e-14 -1 -1.1998171016155602e-30 2.381250000000001 -2.4704783034194538e-14 1 I I 0 1 2.381250000000001 forward I I I I #
coedge $-1 -1 $-1 $379 $380 $264 $334 reversed $254 $-1 #
coedge $-1 -1 $-1 $256 $256 $381 $382 forward $192 $-1 #
coedge $-1 -1 $-1 $326 $325 $256 $322 reversed $198 $-1 #
edge $383 -1 $-1 $384 0 $385 3.1415926535897931 $321 $386 forward @7 unknown #
coedge $-1 -1 $-1 $387 $332 $257 $324 forward $262 $-1 #
edge $388 -1 $-1 $329 -3.1415926535897931 $328 0 $323 $389 forward @7 unknown #
coedge $-1 -1 $-1 $321 $258 $332 $390 forward $198 $-1 #
coedge $-1 -1 $-1 $258 $321 $387 $391 reversed $198 $-1 #
truecolor-adesk-attrib $-1 -1 $392 $-1 $259 -1056964608 #
vertex $-1 -1 $-1 $259 $393 #
vertex $-1 -1 $-1 $259 $394 #
ellipse-curve $-1 -1 $-1 1058.8726647121048 -423.64776246570068 309.48497719513995 1.2246467991473532e-16 -1.0374712035357282e-14 -1 -5.1192196335597213e-29 101.59999999999998 -1.0540707427922997e-12 1 F 0 F 3.1415926535897931 #
DXID-attrib $-1 -1 $-1 $261 $197 @18 ASM_FACE_FROM_STEP @17 step-3M-378-10757 #
coedge $-1 -1 $-1 $323 $381 $325 $390 reversed $262 $-1 #
coedge $-1 -1 $-1 $265 $264 $395 $396 forward $138 $-1 #
edge $397 -1 $-1 $340 0 $398 0.00303784 $264 $399 forward @7 unknown #
coedge $-1 -1 $-1 $380 $379 $265 $336 forward $254 $-1 #
edge $400 -1 $-1 $341 0 $401 0.00303784 $265 $402 forward @7 unknown #
coedge $-1 -1 $-1 $266 $266 $379 $403 forward $338 $-1 #
loop $-1 -1 $-1 $-1 $337 $79 #
truecolor-adesk-attrib $-1 -1 $404 $-1 $267 -1056964608 #
vertex $-1 -1 $-1 $267 $405 #
vertex $-1 -1 $-1 $267 $406 #
ellipse-curve $-1 -1 $-1 1058.8726647121048 -423.64776246570068 309.48497719513995 1.2246467991473532e-16 -1.0374712035357282e-14 -1 -3.5583695672873635e-29 70.622160000000008 -7.3268457331492776e-13 1 F -3.1415926535897931 F 0 #
coedge $-1 -1 $-1 $407 $407 $268 $344 reversed $408 $-1 #
edge $409 -1 $-1 $348 -3.1415926535897931 $351 0 $268 $410 forward @7 unknown #
coedge $-1 -1 $-1 $271 $269 $273 $353 reversed $317 $-1 #
coedge $-1 -1 $-1 $269 $271 $407 $411 forward $317 $-1 #
truecolor-adesk-attrib $-1 -1 $412 $-1 $270 -1056964608 #
vertex $-1 -1 $-1 $270 $413 #
straight-curve $-1 -1 $-1 1058.8726647121048 -512.14009246570072 309.48497719514086 1.224646799147353e-13 -1.0374712035357281e-11 -999.99999999999989 F 0 F 0.00303784 #
truecolor-adesk-attrib $-1 -1 $414 $-1 $272 -1056964608 #
vertex $-1 -1 $-1 $344 $415 #
straight-curve $-1 -1 $-1 1058.8726647121048 -507.37759246570067 309.4849771951408 1.224646799147353e-13 -1.0374712035357281e-11 -999.99999999999989 F 0 F 0.00303784 #
edge $416 -1 $-1 $277 0 $276 3.1415926535897931 $273 $417 forward @7 unknown #
DXID-attrib $-1 -1 $-1 $275 $204 @18 ASM_EDGE_FROM_STEP @4 6446 #
point $-1 -1 $-1 1058.8726647121048 -512.14009246570072 309.48497719514086 #
point $-1 -1 $-1 1058.8726647121048 -507.37759246570067 309.4849771951408 #
coedge $-1 -1 $-1 $279 $279 $282 $361 reversed $358 $-1 #
loop $-1 -1 $-1 $408 $357 $132 #
truecolor-adesk-attrib $-1 -1 $418 $-1 $280 -1056964608 #
ellipse-curve $-1 -1 $-1 1133.4470475394214 -466.70330246570495 306.44713719514039 1.2246467991473532e-16 -1.0374712035357282e-14 -1 -1.1998171016162176e-30 2.3812500000013057 -2.4704783034208071e-14 1 F -3.1415926535897931 F 0 #
edge $419 -1 $-1 $288 0 $285 3.1415926535897931 $357 $420 forward @7 unknown #
DXID-attrib $-1 -1 $-1 $284 $207 @18 ASM_EDGE_FROM_STEP @5 10403 #
point $-1 -1 $-1 1133.4470475394214 -469.08455246570628 306.44713719514039 #
DXID-attrib $-1 -1 $-1 $287 $209 @18 ASM_EDGE_FROM_STEP @5 15272 #
point $-1 -1 $-1 1133.4470475394214 -464.32205246570368 306.44713719514039 #
truecolor-adesk-attrib $-1 -1 $421 $-1 $290 -1056964608 #
ellipse-curve $-1 -1 $-1 1133.4470475394214 -466.70330246570495 309.4849771951404 1.2246467991473532e-16 -1.0374712035357282e-14 -1 -1.1998171016162176e-30 2.3812500000013057 -2.4704783034208071e-14 1 F 0 F 3.1415926535897931 #
DXID-attrib $-1 -1 $-1 $296 $217 @18 ASM_EDGE_FROM_STEP @5 41399 #
truecolor-adesk-attrib $-1 -1 $422 $-1 $298 -1056964608 #
ellipse-curve $-1 -1 $-1 1133.4470475394262 -380.59222246570494 306.44713719513948 1.2246467991473532e-16 -1.0374712035357282e-14 -1 -1.1998171016186618e-30 2.3812500000061561 -2.4704783034258394e-14 1 F 0 F 3.1415926535897931 #
truecolor-adesk-attrib $-1 -1 $423 $-1 $299 -1056964608 #
cone-surface $-1 -1 $-1 1133.4470475394262 -380.59222246570494 309.48497719513949 1.2246467991473532e-16 -1.0374712035357282e-14 -1 -1.1998171016186618e-30 2.3812500000061561 -2.4704783034258394e-14 1 I I 0 1 2.3812500000061561 forward I I I I #
DXID-attrib $-1 -1 $-1 $304 $227 @18 ASM_EDGE_FROM_STEP @5 41558 #
DXID-attrib $-1 -1 $-1 $307 $235 @18 ASM_EDGE_FROM_STEP @5 37150 #
DXID-attrib $-1 -1 $-1 $309 $236 @18 ASM_FACE_FROM_STEP @17 step-3M-378-37214 #
DXID-attrib $-1 -1 $-1 $315 $253 @18 ASM_FACE_FROM_STEP @17 step-3M-378-21275 #
truecolor-adesk-attrib $-1 -1 $424 $-1 $316 -1056964608 #
cone-surface $-1 -1 $-1 1133.4470475394214 -466.70330246570495 309.4849771951404 1.2246467991473532e-16 -1.0374712035357282e-14 -1 -1.1998171016162176e-30 2.3812500000013057 -2.4704783034208071e-14 1 I I 0 1 2.3812500000013057 forward I I I I #
coedge $-1 -1 $-1 $335 $319 $337 $403 reversed $254 $-1 #
coedge $-1 -1 $-1 $319 $335 $425 $426 forward $254 $-1 #
coedge $-1 -1 $-1 $332 $387 $320 $382 reversed $262 $-1 #
edge $427 -1 $-1 $385 -3.1415926535897931 $384 0 $381 $428 forward @7 unknown #
truecolor-adesk-attrib $-1 -1 $429 $-1 $322 -1056964608 #
vertex $-1 -1 $-1 $322 $430 #
vertex $-1 -1 $-1 $390 $431 #
ellipse-curve $-1 -1 $-1 1058.8726647121048 -423.64776246570074 306.44713719513993 1.2246467991473532e-16 -1.0374712035357282e-14 -1 -5.1192196335597213e-29 101.59999999999998 -1.0540707427922997e-12 1 F 0 F 3.1415926535897931 #
coedge $-1 -1 $-1 $381 $323 $326 $391 forward $262 $-1 #
truecolor-adesk-attrib $-1 -1 $432 $-1 $324 -1056964608 #
ellipse-curve $-1 -1 $-1 1058.8726647121048 -423.64776246570068 309.48497719513995 1.2246467991473532e-16 -1.0374712035357282e-14 -1 -5.1192196335597213e-29 101.59999999999998 -1.0540707427922997e-12 1 F -3.1415926535897931 F 0 #
edge $433 -1 $-1 $329 0 $385 0.00303784 $325 $434 forward @7 unknown #
edge $435 -1 $-1 $328 0 $384 0.00303784 $326 $436 forward @7 unknown #
DXID-attrib $-1 -1 $-1 $327 $259 @18 ASM_EDGE_FROM_STEP @4 9396 #
point $-1 -1 $-1 1058.8726647121048 -322.04776246570071 309.48497719513887 #
point $-1 -1 $-1 1058.8726647121048 -525.2477624657007 309.48497719514097 #
coedge $-1 -1 $-1 $425 $425 $333 $396 reversed $437 $-1 #
edge $438 -1 $-1 $398 -3.1415926535897931 $401 0 $333 $439 forward @7 unknown #
truecolor-adesk-attrib $-1 -1 $440 $-1 $334 -1056964608 #
vertex $-1 -1 $-1 $334 $441 #
straight-curve $-1 -1 $-1 1058.8726647121048 -494.26992246570069 309.48497719514069 1.224646799147353e-13 -1.0374712035357281e-11 -999.99999999999989 F 0 F 0.00303784 #
truecolor-adesk-attrib $-1 -1 $442 $-1 $336 -1056964608 #
vertex $-1 -1 $-1 $396 $443 #
straight-curve $-1 -1 $-1 1058.8726647121048 -353.02560246570067 309.48497719513921 1.224646799147353e-13 -1.0374712035357281e-11 -999.99999999999989 F 0 F 0.00303784 #
edge $444 -1 $-1 $341 0 $340 3.1415926535897931 $337 $445 forward @7 unknown #
DXID-attrib $-1 -1 $-1 $339 $267 @18 ASM_EDGE_FROM_STEP @5 36611 #
point $-1 -1 $-1 1058.8726647121048 -494.26992246570069 309.48497719514069 #
point $-1 -1 $-1 1058.8726647121048 -353.02560246570067 309.48497719513921 #
coedge $-1 -1 $-1 $343 $343 $346 $411 reversed $408 $-1 #
loop $-1 -1 $-1 $437 $407 $132 #
truecolor-adesk-attrib $-1 -1 $446 $-1 $344 -1056964608 #
ellipse-curve $-1 -1 $-1 1058.8726647121048 -509.75884246570075 306.44713719514084 1.2246467991473532e-16 -1.0374712035357282e-14 -1 -1.1998171016155602e-30 2.381250000000001 -2.4704783034194538e-14 1 F -3.1415926535897931 F 0 #
edge $447 -1 $-1 $351 0 $348 3.1415926535897931 $407 $448 forward @7 unknown #
DXID-attrib $-1 -1 $-1 $347 $270 @18 ASM_EDGE_FROM_STEP @5 38647 #
point $-1 -1 $-1 1058.8726647121048 -512.14009246570072 306.44713719514084 #
DXID-attrib $-1 -1 $-1 $350 $272 @18 ASM_EDGE_FROM_STEP @5 38476 #
point $-1 -1 $-1 1058.8726647121048 -507.37759246570073 306.44713719514078 #
truecolor-adesk-attrib $-1 -1 $449 $-1 $353 -1056964608 #
ellipse-curve $-1 -1 $-1 1058.8726647121048 -509.7588424657007 309.4849771951408 1.2246467991473532e-16 -1.0374712035357282e-14 -1 -1.1998171016155602e-30 2.381250000000001 -2.4704783034194538e-14 1 F 0 F 3.1415926535897931 #
DXID-attrib $-1 -1 $-1 $359 $280 @18 ASM_EDGE_FROM_STEP @5 12545 #
truecolor-adesk-attrib $-1 -1 $450 $-1 $361 -1056964608 #
ellipse-curve $-1 -1 $-1 1133.4470475394214 -466.70330246570495 306.44713719514039 1.2246467991473532e-16 -1.0374712035357282e-14 -1 -1.1998171016162176e-30 2.3812500000013057 -2.4704783034208071e-14 1 F 0 F 3.1415926535897931 #
DXID-attrib $-1 -1 $-1 $366 $290 @18 ASM_EDGE_FROM_STEP @4 2050 #
DXID-attrib $-1 -1 $-1 $369 $298 @18 ASM_EDGE_FROM_STEP @4 3989 #
DXID-attrib $-1 -1 $-1 $371 $299 @18 ASM_FACE_FROM_STEP @16 step-3M-378-8475 #
DXID-attrib $-1 -1 $-1 $377 $316 @18 ASM_FACE_FROM_STEP @17 step-3M-378-28908 #
coedge $-1 -1 $-1 $395 $395 $380 $426 reversed $437 $-1 #
edge $451 -1 $-1 $401 0 $398 3.1415926535897931 $425 $452 forward @7 unknown #
truecolor-adesk-attrib $-1 -1 $453 $-1 $382 -1056964608 #
ellipse-curve $-1 -1 $-1 1058.8726647121048 -423.64776246570074 306.44713719513993 1.2246467991473532e-16 -1.0374712035357282e-14 -1 -5.1192196335597213e-29 101.59999999999998 -1.0540707427922997e-12 1 F -3.1415926535897931 F 0 #
DXID-attrib $-1 -1 $-1 $383 $322 @18 ASM_EDGE_FROM_STEP @5 28308 #
point $-1 -1 $-1 1058.8726647121048 -322.04776246570077 306.44713719513885 #
point $-1 -1 $-1 1058.8726647121048 -525.2477624657007 306.44713719514101 #
DXID-attrib $-1 -1 $-1 $388 $324 @18 ASM_EDGE_FROM_STEP @5 39254 #
truecolor-adesk-attrib $-1 -1 $454 $-1 $390 -1056964608 #
straight-curve $-1 -1 $-1 1058.8726647121048 -525.2477624657007 309.48497719514097 1.224646799147353e-13 -1.0374712035357281e-11 -999.99999999999989 F 0 F 0.00303784 #
truecolor-adesk-attrib $-1 -1 $455 $-1 $391 -1056964608 #
straight-curve $-1 -1 $-1 1058.8726647121048 -322.04776246570071 309.48497719513887 1.224646799147353e-13 -1.0374712035357281e-11 -999.99999999999989 F 0 F 0.00303784 #
loop $-1 -1 $-1 $-1 $425 $132 #
truecolor-adesk-attrib $-1 -1 $456 $-1 $396 -1056964608 #
ellipse-curve $-1 -1 $-1 1058.8726647121048 -423.64776246570074 306.44713719513993 1.2246467991473532e-16 -1.0374712035357282e-14 -1 -3.5583695672873635e-29 70.622160000000008 -7.3268457331492776e-13 1 F -3.1415926535897931 F 0 #
DXID-attrib $-1 -1 $-1 $397 $334 @18 ASM_EDGE_FROM_STEP @5 24138 #
point $-1 -1 $-1 1058.8726647121048 -494.26992246570074 306.44713719514067 #
DXID-attrib $-1 -1 $-1 $400 $336 @18 ASM_EDGE_FROM_STEP @5 33807 #
point $-1 -1 $-1 1058.8726647121048 -353.02560246570073 306.44713719513919 #
truecolor-adesk-attrib $-1 -1 $457 $-1 $403 -1056964608 #
ellipse-curve $-1 -1 $-1 1058.8726647121048 -423.64776246570068 309.48497719513995 1.2246467991473532e-16 -1.0374712035357282e-14 -1 -3.5583695672873635e-29 70.622160000000008 -7.3268457331492776e-13 1 F 0 F 3.1415926535897931 #
DXID-attrib $-1 -1 $-1 $409 $344 @18 ASM_EDGE_FROM_STEP @5 40954 #
truecolor-adesk-attrib $-1 -1 $458 $-1 $411 -1056964608 #
ellipse-curve $-1 -1 $-1 1058.8726647121048 -509.75884246570075 306.44713719514084 1.2246467991473532e-16 -1.0374712035357282e-14 -1 -1.1998171016155602e-30 2.381250000000001 -2.4704783034194538e-14 1 F 0 F 3.1415926535897931 #
DXID-attrib $-1 -1 $-1 $416 $353 @18 ASM_EDGE_FROM_STEP @5 36712 #
DXID-attrib $-1 -1 $-1 $419 $361 @18 ASM_EDGE_FROM_STEP @5 43048 #
truecolor-adesk-attrib $-1 -1 $459 $-1 $426 -1056964608 #
ellipse-curve $-1 -1 $-1 1058.8726647121048 -423.64776246570074 306.44713719513993 1.2246467991473532e-16 -1.0374712035357282e-14 -1 -3.5583695672873635e-29 70.622160000000008 -7.3268457331492776e-13 1 F 0 F 3.1415926535897931 #
DXID-attrib $-1 -1 $-1 $427 $382 @18 ASM_EDGE_FROM_STEP @4 1311 #
DXID-attrib $-1 -1 $-1 $433 $390 @18 ASM_EDGE_FROM_STEP @5 42577 #
DXID-attrib $-1 -1 $-1 $435 $391 @18 ASM_EDGE_FROM_STEP @4 2337 #
DXID-attrib $-1 -1 $-1 $438 $396 @18 ASM_EDGE_FROM_STEP @5 28863 #
DXID-attrib $-1 -1 $-1 $444 $403 @18 ASM_EDGE_FROM_STEP @5 25353 #
DXID-attrib $-1 -1 $-1 $447 $411 @18 ASM_EDGE_FROM_STEP @5 35516 #
DXID-attrib $-1 -1 $-1 $451 $426 @18 ASM_EDGE_FROM_STEP @5 41694 #
