700 438 2 0         
5 ZWCAD 12 ACIS 28.0 NT 24 Mon May 13 14:34:47 2024 
1 9.9999999999999995e-07 1e-10 
body $2 -1 $-1 $3 $-1 $-1 #
body $4 -1 $-1 $5 $-1 $-1 #
DXID-attrib $-1 -1 $-1 $-1 $0 @18 ASM_BODY_FROM_STEP @83 AC60612530960B5589D63B8A785DE1CABFC39595|:|5465A5176E9F11F3C54BF4A4AD427E186A857E10 #
lump $-1 -1 $-1 $-1 $6 $0 #
DXID-attrib $-1 -1 $-1 $-1 $1 @18 ASM_BODY_FROM_STEP @83 AC60612530960B5589D63B8A785DE1CABFC39595|:|CBE1C5916EAB30E44C5B921B6ADFD7864AF74C0D #
lump $-1 -1 $-1 $-1 $7 $1 #
shell $-1 -1 $-1 $-1 $-1 $8 $-1 $3 #
shell $-1 -1 $-1 $-1 $-1 $9 $-1 $5 #
face $10 -1 $-1 $11 $12 $6 $-1 $13 reversed single #
face $14 -1 $-1 $15 $16 $7 $-1 $17 forward single #
color-adesk-attrib $-1 -1 $18 $-1 $8 7 #
face $19 -1 $-1 $20 $21 $6 $-1 $22 reversed single #
loop $-1 -1 $-1 $-1 $23 $8 #
cone-surface $-1 -1 $-1 1591.2957208522889 -1120.717353680978 0 -7.2050554532632876e-15 0.99999999999999989 3.1294255745237109e-16 -92.467654255025494 -6.4985069856215936e-13 -52.354266264887777 1 I I 0.21043858132221149 0.97760708031964205 106.26022905848504 forward I I I I #
color-adesk-attrib $-1 -1 $24 $-1 $9 7 #
face $25 -1 $-1 $26 $27 $7 $-1 $28 forward single #
loop $-1 -1 $-1 $-1 $29 $9 #
torus-surface $-1 -1 $-1 1591.2957208522903 -1309.5378893782965 -5.9089981340645627e-14 7.2050554532632876e-15 -0.99999999999999989 -3.1294255745237109e-16 104.75000000000001 50 0.87020002755811687 6.1156530935434473e-15 0.49269860161954177 forward_v I I I I #
DXID-attrib $-1 -1 $-1 $10 $8 @18 ASM_FACE_FROM_STEP @17 step-4M-396-35495 #
color-adesk-attrib $-1 -1 $30 $-1 $11 7 #
face $31 -1 $-1 $32 $33 $6 $-1 $34 forward single #
loop $-1 -1 $-1 $-1 $35 $11 #
cone-surface $-1 -1 $-1 1591.2957208522889 -1120.717353680978 0 -7.2050554532632876e-15 0.99999999999999989 3.1294255745237109e-16 -58.094553839779898 -4.0828100052496068e-13 -32.892558644120619 1 I I 0 1 66.760000000000019 forward I I I I #
coedge $-1 -1 $-1 $36 $37 $38 $39 reversed $12 $-1 #
DXID-attrib $-1 -1 $-1 $14 $9 @18 ASM_FACE_FROM_STEP @17 step-4M-396-13114 #
color-adesk-attrib $-1 -1 $40 $-1 $15 7 #
face $41 -1 $-1 $42 $43 $7 $-1 $44 forward single #
loop $-1 -1 $-1 $-1 $45 $15 #
cone-surface $-1 -1 $-1 1591.2957208522903 -1304.217353680978 -5.742495929251011e-14 -7.2050554532632876e-15 0.99999999999999989 3.1294255745237109e-16 -58.085851839504315 -4.0821984399402521e-13 -32.887631658104418 1 I I 0.21043858132221166 0.97760708031964205 66.750000000000014 forward I I I I #
coedge $-1 -1 $-1 $46 $47 $48 $49 reversed $16 $-1 #
DXID-attrib $-1 -1 $-1 $19 $11 @18 ASM_FACE_FROM_STEP @17 step-4M-396-15143 #
color-adesk-attrib $-1 -1 $50 $-1 $20 7 #
face $51 -1 $-1 $52 $53 $6 $-1 $54 forward single #
loop $-1 -1 $-1 $-1 $55 $20 #
cone-surface $-1 -1 $-1 1591.2957208522889 -1120.717353680978 0 -7.2050554532632876e-15 0.99999999999999989 3.1294255745237109e-16 -83.10410263180016 -5.8404487043339927e-13 -47.052716454666239 1 I I 0 1 95.5 forward I I I I #
coedge $-1 -1 $-1 $56 $57 $58 $59 reversed $21 $-1 #
coedge $-1 -1 $-1 $60 $23 $61 $62 forward $12 $-1 #
coedge $-1 -1 $-1 $23 $60 $63 $64 reversed $12 $-1 #
coedge $-1 -1 $-1 $57 $56 $23 $39 forward $21 $-1 #
edge $65 -1 $-1 $66 -3.1415926535897931 $67 0 $23 $68 forward @7 unknown #
DXID-attrib $-1 -1 $-1 $25 $15 @18 ASM_FACE_FROM_STEP @17 step-4M-396-12323 #
color-adesk-attrib $-1 -1 $69 $-1 $26 7 #
face $70 -1 $-1 $71 $72 $7 $-1 $73 reversed single #
loop $-1 -1 $-1 $-1 $74 $26 #
cone-surface $-1 -1 $-1 1591.2957208522889 -1120.717353680978 0 -7.2050554532632876e-15 0.99999999999999989 3.1294255745237109e-16 -58.085851839504301 -4.0821984399402511e-13 -32.887631658104411 1 I I 0 1 66.75 forward I I I I #
coedge $-1 -1 $-1 $75 $76 $77 $78 forward $27 $-1 #
coedge $-1 -1 $-1 $79 $29 $80 $81 forward $16 $-1 #
coedge $-1 -1 $-1 $29 $79 $82 $83 reversed $16 $-1 #
coedge $-1 -1 $-1 $84 $85 $29 $49 forward $86 $-1 #
edge $87 -1 $-1 $88 -3.1415926535897931 $89 -1.2246467991473532e-16 $29 $90 forward @7 unknown #
DXID-attrib $-1 -1 $-1 $31 $20 @18 ASM_FACE_FROM_STEP @17 step-4M-396-26604 #
color-adesk-attrib $-1 -1 $91 $-1 $32 7 #
face $92 -1 $-1 $93 $94 $6 $-1 $95 reversed single #
loop $-1 -1 $-1 $-1 $96 $32 #
cone-surface $-1 -1 $-1 1591.2957208522896 -1213.217353680978 -2.8947186564344327e-14 -7.2050554532632876e-15 0.99999999999999989 3.1294255745237109e-16 -83.10410263180016 -5.8404487043339927e-13 -47.052716454666239 1 I I 0.1756064581276838 0.98446044707943958 95.5 forward I I I I #
coedge $-1 -1 $-1 $97 $98 $99 $100 forward $33 $-1 #
coedge $-1 -1 $-1 $38 $35 $101 $102 forward $21 $-1 #
coedge $-1 -1 $-1 $35 $38 $103 $104 reversed $21 $-1 #
coedge $-1 -1 $-1 $105 $105 $35 $59 forward $106 $-1 #
edge $107 -1 $-1 $108 -3.1415926535897931 $109 0 $35 $110 forward @7 unknown #
coedge $-1 -1 $-1 $37 $36 $111 $112 forward $12 $-1 #
coedge $-1 -1 $-1 $113 $114 $36 $62 reversed $115 $-1 #
edge $116 -1 $-1 $66 -0.18770431168229809 $117 0 $36 $118 forward @7 unknown #
coedge $-1 -1 $-1 $114 $113 $37 $64 forward $115 $-1 #
edge $119 -1 $-1 $67 -0.18770431168229809 $120 0 $37 $121 forward @7 unknown #
color-adesk-attrib $-1 -1 $122 $-1 $39 7 #
vertex $-1 -1 $-1 $39 $123 #
vertex $-1 -1 $-1 $39 $124 #
ellipse-curve $-1 -1 $-1 1591.2957208522903 -1304.2184177881174 -5.7425292296919738e-14 -7.2050554532632876e-15 0.99999999999999989 3.1294255745237109e-16 -58.094553839779898 -4.0828100052496068e-13 -32.892558644120619 1 F -3.1415926535897931 F 0 #
DXID-attrib $-1 -1 $-1 $41 $26 @18 ASM_FACE_FROM_STEP @17 step-4M-396-22587 #
color-adesk-attrib $-1 -1 $125 $-1 $42 7 #
face $126 -1 $-1 $127 $128 $7 $-1 $129 reversed single #
loop $-1 -1 $-1 $-1 $130 $42 #
cone-surface $-1 -1 $-1 1591.2957208522889 -1120.717353680978 0 -7.2050554532632876e-15 0.99999999999999989 3.1294255745237109e-16 -47.643451508806898 -3.3483200687150374e-13 -26.975248438669912 1 I I 0 1 54.75 forward I I I I #
coedge $-1 -1 $-1 $131 $132 $133 $134 forward $43 $-1 #
coedge $-1 -1 $-1 $135 $45 $136 $137 forward $27 $-1 #
coedge $-1 -1 $-1 $45 $135 $138 $139 reversed $27 $-1 #
coedge $-1 -1 $-1 $132 $131 $45 $78 reversed $43 $-1 #
edge $140 -1 $-1 $141 0 $142 3.1415926535897931 $45 $143 forward @7 unknown #
coedge $-1 -1 $-1 $47 $46 $144 $145 reversed $16 $-1 #
coedge $-1 -1 $-1 $146 $147 $46 $81 reversed $148 $-1 #
edge $149 -1 $-1 $88 -3.1415926535897931 $150 -2.9295690880772267 $46 $151 forward @7 unknown #
coedge $-1 -1 $-1 $147 $146 $47 $83 forward $148 $-1 #
edge $152 -1 $-1 $89 -3.1415926535897931 $153 -2.9295690880772267 $47 $154 forward @7 unknown #
coedge $-1 -1 $-1 $155 $48 $156 $157 reversed $86 $-1 #
coedge $-1 -1 $-1 $48 $155 $158 $159 forward $86 $-1 #
loop $-1 -1 $-1 $-1 $84 $160 #
color-adesk-attrib $-1 -1 $161 $-1 $49 7 #
vertex $-1 -1 $-1 $49 $162 #
vertex $-1 -1 $-1 $49 $163 #
ellipse-curve $-1 -1 $-1 1591.2957208522903 -1309.5378893782965 -5.9089981340645627e-14 -7.2050554532632876e-15 0.99999999999999989 3.1294255745237109e-16 47.643451508806898 3.3483200687150374e-13 26.975248438669912 1 F -3.1415926535897931 F -1.2246467991473532e-16 #
DXID-attrib $-1 -1 $-1 $51 $32 @18 ASM_FACE_FROM_STEP @17 step-4M-396-33073 #
color-adesk-attrib $-1 -1 $164 $-1 $52 7 #
face $165 -1 $-1 $166 $167 $6 $-1 $168 forward single #
loop $-1 -1 $-1 $169 $170 $52 #
plane-surface $-1 -1 $-1 1643.6499871171768 -1120.7173536809776 -92.467654255025508 7.2050554532632876e-15 -0.99999999999999989 -3.1294255745237109e-16 0.87020002755811687 6.1156530935434473e-15 0.49269860161954177 forward_v I I I I #
coedge $-1 -1 $-1 $171 $172 $173 $174 forward $53 $-1 #
coedge $-1 -1 $-1 $173 $55 $175 $176 forward $33 $-1 #
coedge $-1 -1 $-1 $55 $173 $177 $178 reversed $33 $-1 #
coedge $-1 -1 $-1 $179 $179 $55 $100 reversed $180 $-1 #
edge $181 -1 $-1 $182 0 $183 3.1415926535897931 $55 $184 forward @7 unknown #
coedge $-1 -1 $-1 $185 $186 $56 $102 reversed $187 $-1 #
edge $188 -1 $-1 $108 -0.20150000000000001 $66 -0.18350106410713951 $56 $189 forward @7 unknown #
coedge $-1 -1 $-1 $186 $185 $57 $104 forward $187 $-1 #
edge $190 -1 $-1 $109 -0.20150000000000001 $67 -0.18350106410713951 $57 $191 forward @7 unknown #
coedge $-1 -1 $-1 $58 $58 $185 $192 forward $106 $-1 #
loop $-1 -1 $-1 $-1 $105 $193 #
color-adesk-attrib $-1 -1 $194 $-1 $59 7 #
vertex $-1 -1 $-1 $59 $195 #
vertex $-1 -1 $-1 $59 $196 #
ellipse-curve $-1 -1 $-1 1591.2957208522903 -1322.217353680978 -6.3057925326652785e-14 -7.2050554532632876e-15 0.99999999999999989 3.1294255745237109e-16 -58.094553839779898 -4.0828100052496068e-13 -32.892558644120619 1 F -3.1415926535897931 F 0 #
coedge $-1 -1 $-1 $197 $197 $60 $112 reversed $169 $-1 #
edge $198 -1 $-1 $117 -3.1415926535897931 $120 0 $60 $199 forward @7 unknown #
coedge $-1 -1 $-1 $63 $61 $186 $200 reversed $115 $-1 #
coedge $-1 -1 $-1 $61 $63 $197 $201 forward $115 $-1 #
loop $-1 -1 $-1 $-1 $61 $202 #
color-adesk-attrib $-1 -1 $203 $-1 $62 7 #
vertex $-1 -1 $-1 $62 $204 #
straight-curve $-1 -1 $-1 1683.7633751073145 -1120.7173536809773 52.354266264887791 183.12365926587242 977.60708031964327 103.68279474425415 F -0.18770431168229809 F 0 #
color-adesk-attrib $-1 -1 $205 $-1 $64 7 #
vertex $-1 -1 $-1 $112 $206 #
straight-curve $-1 -1 $-1 1498.8280665972634 -1120.7173536809787 -52.354266264887777 -183.12365926588652 977.60708031964077 -103.68279474425351 F -0.18770431168229809 F 0 #
DXID-attrib $-1 -1 $-1 $65 $39 @18 ASM_EDGE_FROM_STEP @5 46275 #
point $-1 -1 $-1 1649.3902746920701 -1304.2184177881172 32.89255864412057 #
point $-1 -1 $-1 1533.2011670125103 -1304.2184177881179 -32.892558644120676 #
DXID-attrib $-1 -1 $-1 $70 $42 @18 ASM_FACE_FROM_STEP @17 step-4M-396-40326 #
color-adesk-attrib $-1 -1 $207 $-1 $71 7 #
face $208 -1 $-1 $209 $210 $7 $-1 $211 reversed single #
loop $-1 -1 $-1 $-1 $212 $71 #
cone-surface $-1 -1 $-1 1591.2957208522889 -1120.717353680978 0 -7.2050554532632876e-15 0.99999999999999989 3.1294255745237109e-16 -82.016352597352508 -5.7640030406646989e-13 -46.436843202641811 1 I I 0.21043858132221177 0.97760708031964194 94.25 forward I I I I #
coedge $-1 -1 $-1 $156 $158 $213 $214 reversed $72 $-1 #
coedge $-1 -1 $-1 $77 $74 $215 $216 forward $43 $-1 #
coedge $-1 -1 $-1 $74 $77 $217 $218 reversed $43 $-1 #
coedge $-1 -1 $-1 $219 $219 $74 $134 reversed $220 $-1 #
edge $221 -1 $-1 $222 0 $223 3.1415926535897931 $74 $224 forward @7 unknown #
coedge $-1 -1 $-1 $76 $75 $225 $226 reversed $27 $-1 #
coedge $-1 -1 $-1 $227 $228 $75 $137 reversed $229 $-1 #
edge $230 -1 $-1 $142 0 $231 0.18770322320088167 $75 $232 forward @7 unknown #
coedge $-1 -1 $-1 $228 $227 $76 $139 forward $229 $-1 #
edge $233 -1 $-1 $141 0 $234 0.18770322320088167 $76 $235 forward @7 unknown #
color-adesk-attrib $-1 -1 $236 $-1 $78 7 #
vertex $-1 -1 $-1 $78 $237 #
vertex $-1 -1 $-1 $78 $238 #
ellipse-curve $-1 -1 $-1 1591.2957208522903 -1304.217353680978 -5.742495929251011e-14 -7.2050554532632876e-15 0.99999999999999989 3.1294255745237109e-16 -58.085851839504315 -4.0821984399402521e-13 -32.887631658104418 1 F 0 F 3.1415926535897931 #
coedge $-1 -1 $-1 $239 $240 $79 $145 forward $241 $-1 #
edge $242 -1 $-1 $153 1.6452900381367349e-16 $150 3.1415926535897931 $79 $243 forward @7 unknown #
coedge $-1 -1 $-1 $82 $80 $244 $245 reversed $148 $-1 #
coedge $-1 -1 $-1 $80 $82 $212 $246 reversed $148 $-1 #
loop $-1 -1 $-1 $-1 $80 $247 #
color-adesk-attrib $-1 -1 $248 $-1 $81 7 #
vertex $-1 -1 $-1 $81 $249 #
ellipse-curve $-1 -1 $-1 1500.1422679655775 -1309.5378893782972 -51.610178519647057 -0.49269860161954171 -3.8222433685332367e-15 0.8702000275581171 -43.510001377905844 -3.0578265467717236e-13 -24.634930080977085 1 F -3.1415926535897931 F -2.9295690880772267 #
color-adesk-attrib $-1 -1 $250 $-1 $83 7 #
vertex $-1 -1 $-1 $145 $251 #
ellipse-curve $-1 -1 $-1 1682.4491737390031 -1309.5378893782959 51.610178519646951 0.49269860161954182 3.8222433685332375e-15 -0.87020002755811698 43.510001377905844 3.0578265467717236e-13 24.634930080977089 1 F -3.1415926535897931 F -2.9295690880772267 #
coedge $-1 -1 $-1 $85 $84 $252 $253 reversed $86 $-1 #
coedge $-1 -1 $-1 $244 $130 $84 $157 forward $72 $-1 #
edge $254 -1 $-1 $255 -0.20150000000000001 $89 -0.18882053569731863 $156 $256 forward @7 unknown #
coedge $-1 -1 $-1 $130 $244 $85 $159 reversed $72 $-1 #
edge $257 -1 $-1 $258 -0.20150000000000001 $88 -0.18882053569731863 $158 $259 forward @7 unknown #
face $260 -1 $-1 $261 $86 $7 $-1 $262 reversed single #
DXID-attrib $-1 -1 $-1 $87 $49 @18 ASM_EDGE_FROM_STEP @4 8752 #
point $-1 -1 $-1 1543.6522693434833 -1309.537889378297 -26.975248438669972 #
point $-1 -1 $-1 1638.9391723610972 -1309.5378893782963 26.975248438669858 #
DXID-attrib $-1 -1 $-1 $92 $52 @18 ASM_FACE_FROM_STEP @17 step-4M-396-37761 #
color-adesk-attrib $-1 -1 $263 $-1 $93 7 #
face $264 -1 $-1 $193 $265 $6 $-1 $266 forward single #
loop $-1 -1 $-1 $-1 $267 $93 #
cone-surface $-1 -1 $-1 1591.2957208522896 -1213.217353680978 -2.8947186564344327e-14 -7.2050554532632876e-15 0.99999999999999989 3.1294255745237109e-16 -83.10410263180016 -5.8404487043339927e-13 -47.052716454666239 1 I I 0.1756064581276838 0.98446044707943958 95.5 forward I I I I #
loop $-1 -1 $-1 $-1 $197 $52 #
coedge $-1 -1 $-1 $268 $268 $269 $270 forward $94 $-1 #
coedge $-1 -1 $-1 $269 $96 $267 $271 forward $53 $-1 #
coedge $-1 -1 $-1 $96 $269 $272 $273 reversed $53 $-1 #
coedge $-1 -1 $-1 $98 $97 $96 $174 reversed $33 $-1 #
edge $274 -1 $-1 $275 0 $276 3.1415926535897931 $173 $277 forward @7 unknown #
coedge $-1 -1 $-1 $278 $279 $97 $176 reversed $265 $-1 #
edge $280 -1 $-1 $183 -0.20150000000000001 $276 -0.092500000000000013 $97 $281 forward @7 unknown #
coedge $-1 -1 $-1 $279 $278 $98 $178 forward $265 $-1 #
edge $282 -1 $-1 $182 -0.20150000000000001 $275 -0.092500000000000013 $98 $283 forward @7 unknown #
coedge $-1 -1 $-1 $99 $99 $278 $284 reversed $180 $-1 #
loop $-1 -1 $-1 $106 $99 $193 #
color-adesk-attrib $-1 -1 $285 $-1 $100 7 #
vertex $-1 -1 $-1 $100 $286 #
vertex $-1 -1 $-1 $100 $287 #
ellipse-curve $-1 -1 $-1 1591.2957208522903 -1322.217353680978 -6.3057925326652785e-14 -7.2050554532632876e-15 0.99999999999999989 3.1294255745237109e-16 -83.10410263180016 -5.8404487043339927e-13 -47.052716454666239 1 F 0 F 3.1415926535897931 #
coedge $-1 -1 $-1 $103 $101 $105 $192 reversed $187 $-1 #
coedge $-1 -1 $-1 $101 $103 $113 $200 forward $187 $-1 #
loop $-1 -1 $-1 $-1 $101 $288 #
color-adesk-attrib $-1 -1 $289 $-1 $102 7 #
straight-curve $-1 -1 $-1 1649.3902746920687 -1120.7173536809776 32.892558644120626 -7.2050554532632887e-12 999.99999999999989 3.1294255745237108e-13 F -0.20150000000000001 F -0.18350106410713951 #
color-adesk-attrib $-1 -1 $290 $-1 $104 7 #
straight-curve $-1 -1 $-1 1533.2011670125091 -1120.7173536809785 -32.892558644120619 -7.2050554532632887e-12 999.99999999999989 3.1294255745237108e-13 F -0.20150000000000001 F -0.18350106410713951 #
edge $291 -1 $-1 $109 0 $108 3.1415926535897931 $105 $292 forward @7 unknown #
face $293 -1 $-1 $288 $180 $6 $-1 $294 reversed single #
DXID-attrib $-1 -1 $-1 $107 $59 @18 ASM_EDGE_FROM_STEP @5 16457 #
point $-1 -1 $-1 1649.3902746920703 -1322.2173536809776 32.892558644120562 #
point $-1 -1 $-1 1533.2011670125105 -1322.2173536809785 -32.892558644120683 #
coedge $-1 -1 $-1 $111 $111 $114 $201 reversed $169 $-1 #
color-adesk-attrib $-1 -1 $295 $-1 $112 7 #
ellipse-curve $-1 -1 $-1 1591.2957208522889 -1120.717353680978 0 -7.2050554532632876e-15 0.99999999999999989 3.1294255745237109e-16 -92.467654255025494 -6.4985069856215936e-13 -52.354266264887777 1 F -3.1415926535897931 F 0 #
edge $296 -1 $-1 $67 0 $66 3.1415926535897931 $186 $297 forward @7 unknown #
edge $298 -1 $-1 $120 0 $117 3.1415926535897931 $197 $299 forward @7 unknown #
face $300 -1 $-1 $-1 $115 $6 $-1 $301 reversed single #
DXID-attrib $-1 -1 $-1 $116 $62 @18 ASM_EDGE_FROM_STEP @5 16210 #
point $-1 -1 $-1 1683.7633751073145 -1120.7173536809773 52.354266264887791 #
DXID-attrib $-1 -1 $-1 $119 $64 @18 ASM_EDGE_FROM_STEP @5 31962 #
point $-1 -1 $-1 1498.8280665972634 -1120.7173536809787 -52.354266264887777 #
DXID-attrib $-1 -1 $-1 $126 $71 @18 ASM_FACE_FROM_STEP @17 step-4M-396-28327 #
color-adesk-attrib $-1 -1 $302 $-1 $127 7 #
face $303 -1 $-1 $160 $241 $7 $-1 $304 reversed single #
loop $-1 -1 $-1 $305 $225 $127 #
plane-surface $-1 -1 $-1 1643.6449472743652 -1120.7173536809776 -92.458752928049933 7.2050554532632876e-15 -0.99999999999999989 -3.1294255745237109e-16 0.87020002755811687 6.1156530935434473e-15 0.49269860161954177 forward_v I I I I #
coedge $-1 -1 $-1 $306 $307 $147 $246 forward $128 $-1 #
coedge $-1 -1 $-1 $252 $252 $130 $214 forward $308 $-1 #
edge $309 -1 $-1 $255 -3.1415926535897931 $258 0 $130 $310 forward @7 unknown #
coedge $-1 -1 $-1 $311 $312 $131 $216 reversed $313 $-1 #
edge $314 -1 $-1 $223 -0.20150000000000001 $142 -0.18350000000000005 $131 $315 forward @7 unknown #
coedge $-1 -1 $-1 $312 $311 $132 $218 forward $313 $-1 #
edge $316 -1 $-1 $222 -0.20150000000000001 $141 -0.18350000000000005 $132 $317 forward @7 unknown #
coedge $-1 -1 $-1 $133 $133 $311 $318 reversed $220 $-1 #
loop $-1 -1 $-1 $308 $133 $261 #
color-adesk-attrib $-1 -1 $319 $-1 $134 7 #
vertex $-1 -1 $-1 $134 $320 #
vertex $-1 -1 $-1 $134 $321 #
ellipse-curve $-1 -1 $-1 1591.2957208522903 -1322.217353680978 -6.3057925326652785e-14 -7.2050554532632876e-15 0.99999999999999989 3.1294255745237109e-16 -58.085851839504301 -4.0821984399402511e-13 -32.887631658104411 1 F 0 F 3.1415926535897931 #
coedge $-1 -1 $-1 $322 $322 $135 $226 forward $210 $-1 #
edge $323 -1 $-1 $234 0 $231 3.1415926535897931 $135 $324 forward @7 unknown #
coedge $-1 -1 $-1 $138 $136 $312 $325 forward $229 $-1 #
coedge $-1 -1 $-1 $136 $138 $322 $326 reversed $229 $-1 #
loop $-1 -1 $-1 $-1 $136 $327 #
color-adesk-attrib $-1 -1 $328 $-1 $137 7 #
vertex $-1 -1 $-1 $137 $329 #
straight-curve $-1 -1 $-1 1649.3815726917946 -1304.2173536809776 32.887631658104368 183.12365926587262 977.60708031964327 103.68279474425427 F 0 F 0.18770322320088167 #
color-adesk-attrib $-1 -1 $330 $-1 $139 7 #
vertex $-1 -1 $-1 $226 $331 #
straight-curve $-1 -1 $-1 1533.2098690127859 -1304.2173536809785 -32.887631658104475 -183.12365926588672 977.60708031964077 -103.68279474425363 F 0 F 0.18770322320088167 #
DXID-attrib $-1 -1 $-1 $140 $78 @18 ASM_EDGE_FROM_STEP @5 40083 #
point $-1 -1 $-1 1533.2098690127859 -1304.2173536809785 -32.887631658104475 #
point $-1 -1 $-1 1649.3815726917946 -1304.2173536809776 32.887631658104368 #
coedge $-1 -1 $-1 $332 $144 $307 $333 forward $241 $-1 #
coedge $-1 -1 $-1 $144 $332 $306 $334 reversed $241 $-1 #
loop $-1 -1 $-1 $-1 $240 $209 #
color-adesk-attrib $-1 -1 $335 $-1 $145 7 #
ellipse-curve $-1 -1 $-1 1591.2957208522903 -1299.0159603121861 -5.5797221949364522e-14 7.2050554532632876e-15 -0.99999999999999989 -3.1294255745237109e-16 48.617767474954597 3.4167937329733621e-13 27.526896449304459 1 F 1.6452900381367349e-16 F 3.1415926535897931 #
coedge $-1 -1 $-1 $158 $156 $146 $245 forward $72 $-1 #
edge $336 -1 $-1 $89 -1.2246467991473532e-16 $88 3.1415926535897931 $244 $337 forward @7 unknown #
edge $338 -1 $-1 $150 -3.1415926535897931 $153 1.6452900381367349e-16 $212 $339 forward @7 unknown #
face $340 -1 $-1 $-1 $148 $7 $-1 $341 forward single #
DXID-attrib $-1 -1 $-1 $149 $81 @18 ASM_EDGE_FROM_STEP @5 38287 #
point $-1 -1 $-1 1542.6779533773356 -1299.0159603121863 -27.52689644930452 #
DXID-attrib $-1 -1 $-1 $152 $83 @18 ASM_EDGE_FROM_STEP @5 34779 #
point $-1 -1 $-1 1639.9134883272447 -1299.0159603121856 27.526896449304417 #
coedge $-1 -1 $-1 $213 $213 $155 $253 forward $308 $-1 #
edge $342 -1 $-1 $258 0 $255 3.1415926535897931 $155 $343 forward @7 unknown #
color-adesk-attrib $-1 -1 $344 $-1 $157 7 #
vertex $-1 -1 $-1 $214 $345 #
straight-curve $-1 -1 $-1 1638.9391723610959 -1120.7173536809778 26.975248438669919 -7.2050554532632887e-12 999.99999999999989 3.1294255745237108e-13 F -0.20150000000000001 F -0.18882053569731863 #
color-adesk-attrib $-1 -1 $346 $-1 $159 7 #
vertex $-1 -1 $-1 $214 $347 #
straight-curve $-1 -1 $-1 1543.652269343482 -1120.7173536809782 -26.975248438669912 -7.2050554532632887e-12 999.99999999999989 3.1294255745237108e-13 F -0.20150000000000001 F -0.18882053569731863 #
color-adesk-attrib $-1 -1 $348 $-1 $160 7 #
face $349 -1 $-1 $350 $220 $7 $-1 $351 reversed single #
cone-surface $-1 -1 $-1 1591.2957208522889 -1120.717353680978 0 -7.2050554532632876e-15 0.99999999999999989 3.1294255745237109e-16 -47.643451508806898 -3.3483200687150374e-13 -26.975248438669912 1 I I 0 1 54.75 forward I I I I #
DXID-attrib $-1 -1 $-1 $165 $93 @18 ASM_FACE_FROM_STEP @17 step-4M-396-26944 #
color-adesk-attrib $-1 -1 $352 $-1 $166 7 #
loop $-1 -1 $-1 $-1 $175 $166 #
cone-surface $-1 -1 $-1 1591.2957208522889 -1120.717353680978 0 -7.2050554532632876e-15 0.99999999999999989 3.1294255745237109e-16 -83.10410263180016 -5.8404487043339927e-13 -47.052716454666239 1 I I 0 1 95.5 forward I I I I #
coedge $-1 -1 $-1 $353 $354 $171 $271 reversed $167 $-1 #
coedge $-1 -1 $-1 $170 $170 $354 $355 forward $94 $-1 #
coedge $-1 -1 $-1 $172 $171 $170 $270 reversed $53 $-1 #
edge $356 -1 $-1 $357 0 $358 3.1415926535897931 $269 $359 forward @7 unknown #
edge $360 -1 $-1 $276 2.1727819036736417e-35 $358 0.093960097913954946 $171 $361 forward @7 unknown #
coedge $-1 -1 $-1 $354 $353 $172 $273 forward $167 $-1 #
edge $362 -1 $-1 $275 0 $357 0.093960097913954946 $172 $363 forward @7 unknown #
color-adesk-attrib $-1 -1 $364 $-1 $174 7 #
vertex $-1 -1 $-1 $174 $365 #
vertex $-1 -1 $-1 $176 $366 #
ellipse-curve $-1 -1 $-1 1591.2957208522896 -1213.217353680978 -2.8947186564344327e-14 -7.2050554532632876e-15 0.99999999999999989 3.1294255745237109e-16 -83.10410263180016 -5.8404487043339927e-13 -47.052716454666239 1 F 0 F 3.1415926535897931 #
coedge $-1 -1 $-1 $177 $175 $179 $284 forward $265 $-1 #
coedge $-1 -1 $-1 $175 $177 $353 $367 reversed $265 $-1 #
color-adesk-attrib $-1 -1 $368 $-1 $176 7 #
straight-curve $-1 -1 $-1 1674.399823484089 -1120.7173536809773 47.052716454666246 -7.2050554532632887e-12 999.99999999999989 3.1294255745237108e-13 F -0.20150000000000001 F -0.092500000000000013 #
color-adesk-attrib $-1 -1 $369 $-1 $178 7 #
straight-curve $-1 -1 $-1 1508.1916182204889 -1120.7173536809787 -47.052716454666239 -7.2050554532632887e-12 999.99999999999989 3.1294255745237108e-13 F -0.20150000000000001 F -0.092500000000000013 #
edge $370 -1 $-1 $183 -3.1415926535897931 $182 0 $278 $371 forward @7 unknown #
DXID-attrib $-1 -1 $-1 $181 $100 @18 ASM_EDGE_FROM_STEP @5 47955 #
point $-1 -1 $-1 1508.1916182204902 -1322.2173536809787 -47.052716454666303 #
point $-1 -1 $-1 1674.3998234840906 -1322.2173536809773 47.052716454666189 #
face $372 -1 $-1 $202 $187 $6 $-1 $373 reversed single #
DXID-attrib $-1 -1 $-1 $188 $102 @18 ASM_EDGE_FROM_STEP @5 19888 #
DXID-attrib $-1 -1 $-1 $190 $104 @18 ASM_EDGE_FROM_STEP @5 23245 #
color-adesk-attrib $-1 -1 $374 $-1 $192 7 #
ellipse-curve $-1 -1 $-1 1591.2957208522903 -1322.217353680978 -6.3057925326652785e-14 -7.2050554532632876e-15 0.99999999999999989 3.1294255745237109e-16 -58.094553839779898 -4.0828100052496068e-13 -32.892558644120619 1 F 0 F 3.1415926535897931 #
color-adesk-attrib $-1 -1 $375 $-1 $193 7 #
plane-surface $-1 -1 $-1 1624.188279496411 -1322.2173536809778 -58.094553839779969 -7.2050554532632876e-15 0.99999999999999989 3.1294255745237109e-16 -0.87020002755811687 -6.1156530935434473e-15 -0.49269860161954177 forward_v I I I I #
DXID-attrib $-1 -1 $-1 $198 $112 @18 ASM_EDGE_FROM_STEP @5 36971 #
color-adesk-attrib $-1 -1 $376 $-1 $200 7 #
ellipse-curve $-1 -1 $-1 1591.2957208522903 -1304.2184177881174 -5.7425292296919738e-14 -7.2050554532632876e-15 0.99999999999999989 3.1294255745237109e-16 -58.094553839779898 -4.0828100052496068e-13 -32.892558644120619 1 F 0 F 3.1415926535897931 #
color-adesk-attrib $-1 -1 $377 $-1 $201 7 #
ellipse-curve $-1 -1 $-1 1591.2957208522889 -1120.717353680978 0 -7.2050554532632876e-15 0.99999999999999989 3.1294255745237109e-16 -92.467654255025494 -6.4985069856215936e-13 -52.354266264887777 1 F 0 F 3.1415926535897931 #
color-adesk-attrib $-1 -1 $378 $-1 $202 7 #
cone-surface $-1 -1 $-1 1591.2957208522889 -1120.717353680978 0 -7.2050554532632876e-15 0.99999999999999989 3.1294255745237109e-16 -92.467654255025494 -6.4985069856215936e-13 -52.354266264887777 1 I I 0.21043858132221149 0.97760708031964205 106.26022905848504 forward I I I I #
DXID-attrib $-1 -1 $-1 $208 $127 @18 ASM_FACE_FROM_STEP @17 step-4M-396-24492 #
color-adesk-attrib $-1 -1 $379 $-1 $209 7 #
cone-surface $-1 -1 $-1 1591.2957208522889 -1120.717353680978 0 -7.2050554532632876e-15 0.99999999999999989 3.1294255745237109e-16 -82.016352597352508 -5.7640030406646989e-13 -46.436843202641811 1 I I 0.21043858132221177 0.97760708031964194 94.25 forward I I I I #
loop $-1 -1 $-1 $-1 $380 $127 #
coedge $-1 -1 $-1 $381 $212 $240 $334 forward $128 $-1 #
coedge $-1 -1 $-1 $212 $381 $239 $333 reversed $128 $-1 #
loop $-1 -1 $-1 $-1 $252 $261 #
color-adesk-attrib $-1 -1 $382 $-1 $214 7 #
ellipse-curve $-1 -1 $-1 1591.2957208522903 -1322.217353680978 -6.3057925326652785e-14 -7.2050554532632876e-15 0.99999999999999989 3.1294255745237109e-16 -47.643451508806905 -3.3483200687150379e-13 -26.975248438669915 1 F -3.1415926535897931 F 0 #
coedge $-1 -1 $-1 $217 $215 $219 $318 forward $313 $-1 #
coedge $-1 -1 $-1 $215 $217 $227 $325 reversed $313 $-1 #
loop $-1 -1 $-1 $-1 $215 $350 #
color-adesk-attrib $-1 -1 $383 $-1 $216 7 #
straight-curve $-1 -1 $-1 1649.3815726917933 -1120.7173536809776 32.887631658104418 -7.2050554532632887e-12 999.99999999999989 3.1294255745237108e-13 F -0.20150000000000001 F -0.18350000000000005 #
color-adesk-attrib $-1 -1 $384 $-1 $218 7 #
straight-curve $-1 -1 $-1 1533.2098690127846 -1120.7173536809785 -32.887631658104411 -7.2050554532632887e-12 999.99999999999989 3.1294255745237108e-13 F -0.20150000000000001 F -0.18350000000000005 #
edge $385 -1 $-1 $223 -3.1415926535897931 $222 0 $219 $386 forward @7 unknown #
DXID-attrib $-1 -1 $-1 $221 $134 @18 ASM_EDGE_FROM_STEP @5 43891 #
point $-1 -1 $-1 1533.2098690127862 -1322.2173536809785 -32.887631658104475 #
point $-1 -1 $-1 1649.3815726917946 -1322.2173536809776 32.887631658104354 #
coedge $-1 -1 $-1 $225 $225 $228 $326 forward $210 $-1 #
color-adesk-attrib $-1 -1 $387 $-1 $226 7 #
ellipse-curve $-1 -1 $-1 1591.2957208522889 -1120.717353680978 0 -7.2050554532632876e-15 0.99999999999999989 3.1294255745237109e-16 -92.458752928049904 -6.4978814118899121e-13 -52.349226422076306 1 F 0 F 3.1415926535897931 #
edge $388 -1 $-1 $142 -3.1415926535897931 $141 0 $312 $389 forward @7 unknown #
edge $390 -1 $-1 $231 -3.1415926535897931 $234 0 $322 $391 forward @7 unknown #
face $392 -1 $-1 $247 $229 $7 $-1 $393 forward single #
DXID-attrib $-1 -1 $-1 $230 $137 @18 ASM_EDGE_FROM_STEP @5 17806 #
point $-1 -1 $-1 1683.7544737803389 -1120.7173536809773 52.349226422076335 #
DXID-attrib $-1 -1 $-1 $233 $139 @18 ASM_EDGE_FROM_STEP @5 51629 #
point $-1 -1 $-1 1498.8369679242389 -1120.7173536809787 -52.34922642207632 #
coedge $-1 -1 $-1 $240 $239 $380 $394 forward $241 $-1 #
edge $395 -1 $-1 $150 -0.1823826875035631 $396 0 $307 $397 forward @7 unknown #
edge $398 -1 $-1 $153 -0.1823826875035631 $399 0 $306 $400 forward @7 unknown #
DXID-attrib $-1 -1 $-1 $242 $145 @18 ASM_EDGE_FROM_STEP @4 6851 #
color-adesk-attrib $-1 -1 $401 $-1 $245 7 #
ellipse-curve $-1 -1 $-1 1591.2957208522903 -1309.5378893782965 -5.9089981340645627e-14 -7.2050554532632876e-15 0.99999999999999989 3.1294255745237109e-16 47.643451508806898 3.3483200687150374e-13 26.975248438669912 1 F -1.2246467991473532e-16 F 3.1415926535897931 #
color-adesk-attrib $-1 -1 $402 $-1 $246 7 #
ellipse-curve $-1 -1 $-1 1591.2957208522903 -1299.0159603121861 -5.5797221949364522e-14 7.2050554532632876e-15 -0.99999999999999989 -3.1294255745237109e-16 48.617767474954597 3.4167937329733621e-13 27.526896449304459 1 F -3.1415926535897931 F 1.6452900381367349e-16 #
color-adesk-attrib $-1 -1 $403 $-1 $247 7 #
torus-surface $-1 -1 $-1 1591.2957208522903 -1309.5378893782965 -5.9089981340645627e-14 7.2050554532632876e-15 -0.99999999999999989 -3.1294255745237109e-16 104.75000000000001 50 0.87020002755811687 6.1156530935434473e-15 0.49269860161954177 forward_v I I I I #
color-adesk-attrib $-1 -1 $404 $-1 $253 7 #
ellipse-curve $-1 -1 $-1 1591.2957208522903 -1322.217353680978 -6.3057925326652785e-14 -7.2050554532632876e-15 0.99999999999999989 3.1294255745237109e-16 -47.643451508806905 -3.3483200687150379e-13 -26.975248438669915 1 F 0 F 3.1415926535897931 #
DXID-attrib $-1 -1 $-1 $254 $157 @18 ASM_EDGE_FROM_STEP @5 46211 #
point $-1 -1 $-1 1638.9391723610972 -1322.2173536809778 26.975248438669862 #
DXID-attrib $-1 -1 $-1 $257 $159 @18 ASM_EDGE_FROM_STEP @4 7571 #
point $-1 -1 $-1 1543.6522693434836 -1322.2173536809782 -26.975248438669979 #
DXID-attrib $-1 -1 $-1 $260 $160 @18 ASM_FACE_FROM_STEP @16 step-4M-396-5480 #
color-adesk-attrib $-1 -1 $405 $-1 $261 7 #
face $406 -1 $-1 $327 $313 $7 $-1 $407 forward single #
plane-surface $-1 -1 $-1 1618.2709692909602 -1322.2173536809778 -47.643451508806976 -7.2050554532632876e-15 0.99999999999999989 3.1294255745237109e-16 -0.87020002755811687 -6.1156530935434473e-15 -0.49269860161954177 forward_v I I I I #
DXID-attrib $-1 -1 $-1 $264 $166 @18 ASM_FACE_FROM_STEP @17 step-4M-396-54091 #
coedge $-1 -1 $-1 $272 $267 $279 $367 forward $167 $-1 #
coedge $-1 -1 $-1 $267 $272 $268 $355 reversed $167 $-1 #
edge $408 -1 $-1 $358 -3.1415926535897931 $357 0 $268 $409 forward @7 unknown #
color-adesk-attrib $-1 -1 $410 $-1 $270 7 #
vertex $-1 -1 $-1 $270 $411 #
vertex $-1 -1 $-1 $271 $412 #
ellipse-curve $-1 -1 $-1 1591.2957208522889 -1120.717353680978 2.1997333561546878e-31 -7.2050554532632876e-15 0.99999999999999989 3.1294255745237109e-16 -97.462403086509099 -6.8495314647686614e-13 -55.182243381388687 1 F 0 F 3.1415926535897931 #
color-adesk-attrib $-1 -1 $413 $-1 $271 7 #
straight-curve $-1 -1 $-1 1674.3998234840897 -1213.2173536809773 47.052716454666218 152.81274470208666 984.46044707944066 86.521056354870765 F 2.1727819036736417e-35 F 0.093960097913954946 #
color-adesk-attrib $-1 -1 $414 $-1 $273 7 #
straight-curve $-1 -1 $-1 1508.1916182204895 -1213.2173536809787 -47.052716454666268 -152.81274470210087 984.46044707943861 -86.521056354870126 F 0 F 0.093960097913954946 #
DXID-attrib $-1 -1 $-1 $274 $174 @18 ASM_EDGE_FROM_STEP @5 17042 #
point $-1 -1 $-1 1508.1916182204895 -1213.2173536809787 -47.052716454666268 #
point $-1 -1 $-1 1674.3998234840897 -1213.2173536809773 47.052716454666218 #
edge $415 -1 $-1 $276 -3.1415926535897931 $275 0 $353 $416 forward @7 unknown #
DXID-attrib $-1 -1 $-1 $280 $176 @18 ASM_EDGE_FROM_STEP @5 27946 #
DXID-attrib $-1 -1 $-1 $282 $178 @18 ASM_EDGE_FROM_STEP @5 53060 #
color-adesk-attrib $-1 -1 $417 $-1 $284 7 #
ellipse-curve $-1 -1 $-1 1591.2957208522903 -1322.217353680978 -6.3057925326652785e-14 -7.2050554532632876e-15 0.99999999999999989 3.1294255745237109e-16 -83.10410263180016 -5.8404487043339927e-13 -47.052716454666239 1 F -3.1415926535897931 F 0 #
color-adesk-attrib $-1 -1 $418 $-1 $288 7 #
cone-surface $-1 -1 $-1 1591.2957208522889 -1120.717353680978 0 -7.2050554532632876e-15 0.99999999999999989 3.1294255745237109e-16 -58.094553839779898 -4.0828100052496068e-13 -32.892558644120619 1 I I 0 1 66.760000000000019 forward I I I I #
DXID-attrib $-1 -1 $-1 $291 $192 @18 ASM_EDGE_FROM_STEP @5 43425 #
DXID-attrib $-1 -1 $-1 $293 $193 @18 ASM_FACE_FROM_STEP @16 step-4M-396-3227 #
DXID-attrib $-1 -1 $-1 $296 $200 @18 ASM_EDGE_FROM_STEP @5 25024 #
DXID-attrib $-1 -1 $-1 $298 $201 @18 ASM_EDGE_FROM_STEP @5 47306 #
DXID-attrib $-1 -1 $-1 $300 $202 @18 ASM_FACE_FROM_STEP @16 step-4M-396-1748 #
DXID-attrib $-1 -1 $-1 $303 $209 @18 ASM_FACE_FROM_STEP @17 step-4M-396-47807 #
coedge $-1 -1 $-1 $419 $419 $332 $394 reversed $305 $-1 #
coedge $-1 -1 $-1 $307 $306 $419 $420 forward $128 $-1 #
DXID-attrib $-1 -1 $-1 $309 $214 @18 ASM_EDGE_FROM_STEP @4 4595 #
DXID-attrib $-1 -1 $-1 $314 $216 @18 ASM_EDGE_FROM_STEP @5 18304 #
DXID-attrib $-1 -1 $-1 $316 $218 @18 ASM_EDGE_FROM_STEP @5 28791 #
color-adesk-attrib $-1 -1 $421 $-1 $318 7 #
ellipse-curve $-1 -1 $-1 1591.2957208522903 -1322.217353680978 -6.3057925326652785e-14 -7.2050554532632876e-15 0.99999999999999989 3.1294255745237109e-16 -58.085851839504301 -4.0821984399402511e-13 -32.887631658104411 1 F -3.1415926535897931 F 0 #
DXID-attrib $-1 -1 $-1 $323 $226 @18 ASM_EDGE_FROM_STEP @4 5800 #
color-adesk-attrib $-1 -1 $422 $-1 $325 7 #
ellipse-curve $-1 -1 $-1 1591.2957208522903 -1304.217353680978 -5.742495929251011e-14 -7.2050554532632876e-15 0.99999999999999989 3.1294255745237109e-16 -58.085851839504315 -4.0821984399402521e-13 -32.887631658104418 1 F -3.1415926535897931 F 0 #
color-adesk-attrib $-1 -1 $423 $-1 $326 7 #
ellipse-curve $-1 -1 $-1 1591.2957208522889 -1120.717353680978 0 -7.2050554532632876e-15 0.99999999999999989 3.1294255745237109e-16 -92.458752928049904 -6.4978814118899121e-13 -52.349226422076306 1 F -3.1415926535897931 F 0 #
color-adesk-attrib $-1 -1 $424 $-1 $327 7 #
cone-surface $-1 -1 $-1 1591.2957208522903 -1304.217353680978 -5.742495929251011e-14 -7.2050554532632876e-15 0.99999999999999989 3.1294255745237109e-16 -58.085851839504315 -4.0821984399402521e-13 -32.887631658104418 1 I I 0.21043858132221166 0.97760708031964205 66.750000000000014 forward I I I I #
edge $425 -1 $-1 $396 0 $399 3.1415926535897931 $380 $426 forward @7 unknown #
color-adesk-attrib $-1 -1 $427 $-1 $333 7 #
vertex $-1 -1 $-1 $420 $428 #
straight-curve $-1 -1 $-1 1509.2793682549363 -1120.7173536809787 -46.436843202641811 -183.12365926588674 977.60708031964066 -103.68279474425366 F -0.1823826875035631 F 0 #
color-adesk-attrib $-1 -1 $429 $-1 $334 7 #
vertex $-1 -1 $-1 $334 $430 #
straight-curve $-1 -1 $-1 1673.3120734496415 -1120.7173536809773 46.436843202641818 183.12365926587265 977.60708031964316 103.68279474425429 F -0.1823826875035631 F 0 #
DXID-attrib $-1 -1 $-1 $336 $245 @18 ASM_EDGE_FROM_STEP @5 53703 #
DXID-attrib $-1 -1 $-1 $338 $246 @18 ASM_EDGE_FROM_STEP @5 41140 #
DXID-attrib $-1 -1 $-1 $340 $247 @18 ASM_FACE_FROM_STEP @17 step-4M-396-18639 #
DXID-attrib $-1 -1 $-1 $342 $253 @18 ASM_EDGE_FROM_STEP @4 4980 #
DXID-attrib $-1 -1 $-1 $349 $261 @18 ASM_FACE_FROM_STEP @16 step-4M-396-7950 #
color-adesk-attrib $-1 -1 $431 $-1 $350 7 #
cone-surface $-1 -1 $-1 1591.2957208522889 -1120.717353680978 0 -7.2050554532632876e-15 0.99999999999999989 3.1294255745237109e-16 -58.085851839504301 -4.0821984399402511e-13 -32.887631658104411 1 I I 0 1 66.75 forward I I I I #
color-adesk-attrib $-1 -1 $432 $-1 $355 7 #
ellipse-curve $-1 -1 $-1 1591.2957208522889 -1120.717353680978 2.1997333561546878e-31 -7.2050554532632876e-15 0.99999999999999989 3.1294255745237109e-16 -97.462403086509099 -6.8495314647686614e-13 -55.182243381388687 1 F -3.1415926535897931 F 0 #
DXID-attrib $-1 -1 $-1 $356 $270 @18 ASM_EDGE_FROM_STEP @5 10900 #
point $-1 -1 $-1 1493.8333177657798 -1120.7173536809787 -55.182243381388687 #
point $-1 -1 $-1 1688.758123938798 -1120.7173536809773 55.182243381388702 #
DXID-attrib $-1 -1 $-1 $360 $271 @18 ASM_EDGE_FROM_STEP @5 47536 #
DXID-attrib $-1 -1 $-1 $362 $273 @18 ASM_EDGE_FROM_STEP @5 29033 #
color-adesk-attrib $-1 -1 $433 $-1 $367 7 #
ellipse-curve $-1 -1 $-1 1591.2957208522896 -1213.217353680978 -2.8947186564344327e-14 -7.2050554532632876e-15 0.99999999999999989 3.1294255745237109e-16 -83.10410263180016 -5.8404487043339927e-13 -47.052716454666239 1 F -3.1415926535897931 F 0 #
DXID-attrib $-1 -1 $-1 $370 $284 @18 ASM_EDGE_FROM_STEP @5 12538 #
DXID-attrib $-1 -1 $-1 $372 $288 @18 ASM_FACE_FROM_STEP @16 step-4M-396-7850 #
coedge $-1 -1 $-1 $380 $380 $381 $420 reversed $305 $-1 #
edge $434 -1 $-1 $399 -3.1415926535897931 $396 0 $381 $435 forward @7 unknown #
DXID-attrib $-1 -1 $-1 $385 $318 @18 ASM_EDGE_FROM_STEP @5 46521 #
DXID-attrib $-1 -1 $-1 $388 $325 @18 ASM_EDGE_FROM_STEP @5 50182 #
DXID-attrib $-1 -1 $-1 $390 $326 @18 ASM_EDGE_FROM_STEP @3 536 #
DXID-attrib $-1 -1 $-1 $392 $327 @18 ASM_FACE_FROM_STEP @17 step-4M-396-49315 #
color-adesk-attrib $-1 -1 $436 $-1 $394 7 #
ellipse-curve $-1 -1 $-1 1591.2957208522889 -1120.717353680978 0 -7.2050554532632876e-15 0.99999999999999989 3.1294255745237109e-16 -82.016352597352508 -5.7640030406646989e-13 -46.436843202641811 1 F 0 F 3.1415926535897931 #
DXID-attrib $-1 -1 $-1 $395 $333 @18 ASM_EDGE_FROM_STEP @5 23387 #
point $-1 -1 $-1 1509.2793682549363 -1120.7173536809787 -46.436843202641811 #
DXID-attrib $-1 -1 $-1 $398 $334 @18 ASM_EDGE_FROM_STEP @5 50660 #
point $-1 -1 $-1 1673.3120734496415 -1120.7173536809773 46.436843202641818 #
DXID-attrib $-1 -1 $-1 $406 $350 @18 ASM_FACE_FROM_STEP @17 step-4M-396-28204 #
DXID-attrib $-1 -1 $-1 $408 $355 @18 ASM_EDGE_FROM_STEP @4 1010 #
DXID-attrib $-1 -1 $-1 $415 $367 @18 ASM_EDGE_FROM_STEP @4 6025 #
color-adesk-attrib $-1 -1 $437 $-1 $420 7 #
ellipse-curve $-1 -1 $-1 1591.2957208522889 -1120.717353680978 0 -7.2050554532632876e-15 0.99999999999999989 3.1294255745237109e-16 -82.016352597352508 -5.7640030406646989e-13 -46.436843202641811 1 F -3.1415926535897931 F 0 #
DXID-attrib $-1 -1 $-1 $425 $394 @18 ASM_EDGE_FROM_STEP @5 32007 #
DXID-attrib $-1 -1 $-1 $434 $420 @18 ASM_EDGE_FROM_STEP @5 53715 #
