700 242 1 0         
5 ZWCAD 12 ACIS 28.0 NT 24 Mon May 13 11:35:22 2024 
1 9.9999999999999995e-07 1e-10 
body $1 -1 $-1 $2 $-1 $-1 #
DXID-attrib $-1 -1 $-1 $-1 $0 @18 ASM_BODY_FROM_STEP @83 DBC3ABD5D386D9ADF886854EB15DB45C07736A86|:|ECEE91B0887B0656EC8519EDE45215015041C1ED #
lump $-1 -1 $-1 $-1 $3 $0 #
shell $-1 -1 $-1 $-1 $-1 $4 $-1 $2 #
face $5 -1 $-1 $6 $7 $3 $-1 $8 forward single #
truecolor-adesk-attrib $-1 -1 $9 $-1 $4 -1056964608 #
face $10 -1 $-1 $11 $12 $3 $-1 $13 reversed single #
loop $-1 -1 $-1 $-1 $14 $4 #
cone-surface $-1 -1 $-1 2502.8678760700755 -2381.0716892937335 -2597.4671168258169 0 1 0 35.000000000000014 0 -1.214306433183765e-13 1 I I 0 1 35.000000000000014 forward I I I I #
fmesh-eye-attrib $-1 -1 $15 $5 $4 #
truecolor-adesk-attrib $-1 -1 $16 $-1 $6 -1056964608 #
face $17 -1 $-1 $18 $19 $3 $-1 $20 reversed single #
loop $-1 -1 $-1 $-1 $21 $6 #
torus-surface $-1 -1 $-1 2502.8678760700755 -2329.6413543749422 -2597.4671168258169 0 1 0 -2.9233414247276608 51.513350453494681 1 0 -3.498721322424108e-15 forward_v I I I I #
coedge $-1 -1 $-1 $22 $23 $24 $25 forward $7 $-1 #
DXID-attrib $-1 -1 $-1 $9 $4 @18 ASM_FACE_FROM_STEP @17 step-3M-821-16317 #
fmesh-eye-attrib $-1 -1 $26 $10 $6 #
truecolor-adesk-attrib $-1 -1 $27 $-1 $11 -1056964608 #
face $28 -1 $-1 $29 $30 $3 $-1 $31 reversed single #
loop $-1 -1 $-1 $-1 $32 $11 #
plane-surface $-1 -1 $-1 2502.8678760700755 -2399.2605273140052 -2597.4671168258169 0 1 0 1 0 -3.4914813388431334e-15 forward_v I I I I #
coedge $-1 -1 $-1 $33 $34 $35 $36 forward $12 $-1 #
coedge $-1 -1 $-1 $37 $14 $38 $39 forward $7 $-1 #
coedge $-1 -1 $-1 $14 $40 $41 $42 forward $7 $-1 #
coedge $-1 -1 $-1 $43 $44 $14 $25 reversed $45 $-1 #
edge $46 -1 $-1 $47 -2.3663992802794316 $48 -1.5707963267948968 $14 $49 forward @7 unknown #
DXID-attrib $-1 -1 $-1 $16 $6 @18 ASM_FACE_FROM_STEP @16 step-3M-821-6527 #
fmesh-eye-attrib $-1 -1 $50 $17 $11 #
truecolor-adesk-attrib $-1 -1 $51 $-1 $18 -1056964608 #
face $52 -1 $-1 $53 $54 $3 $-1 $55 reversed single #
loop $-1 -1 $-1 $-1 $56 $18 #
torus-surface $-1 -1 $-1 2502.8678760700755 -2329.6413543749422 -2597.4671168258169 0 1 0 -2.9233414247276608 51.513350453494681 1 0 -3.498721322424108e-15 forward_v I I I I #
coedge $-1 -1 $-1 $57 $57 $58 $59 reversed $19 $-1 #
coedge $-1 -1 $-1 $60 $21 $56 $61 forward $12 $-1 #
coedge $-1 -1 $-1 $21 $60 $62 $63 reversed $12 $-1 #
coedge $-1 -1 $-1 $64 $64 $21 $36 reversed $65 $-1 #
edge $66 -1 $-1 $67 -1.570796326794899 $68 1.5707963267948934 $21 $69 forward @7 unknown #
coedge $-1 -1 $-1 $70 $22 $71 $72 reversed $7 $-1 #
coedge $-1 -1 $-1 $73 $74 $22 $39 reversed $75 $-1 #
edge $76 -1 $-1 $48 0.001811161979728313 $77 0.011811161979728313 $22 $78 forward @7 unknown #
coedge $-1 -1 $-1 $23 $79 $80 $81 forward $7 $-1 #
coedge $-1 -1 $-1 $82 $83 $23 $42 reversed $84 $-1 #
edge $85 -1 $-1 $86 -0.018188838020271686 $47 0.0018111619797283218 $23 $87 forward @7 unknown #
coedge $-1 -1 $-1 $88 $24 $83 $89 forward $45 $-1 #
coedge $-1 -1 $-1 $24 $90 $73 $91 reversed $45 $-1 #
loop $-1 -1 $-1 $65 $90 $92 #
truecolor-adesk-attrib $-1 -1 $93 $-1 $25 -1056964608 #
vertex $-1 -1 $-1 $25 $94 #
vertex $-1 -1 $-1 $25 $95 #
ellipse-curve $-1 -1 $-1 2502.8678760700755 -2379.2605273140052 -2597.4671168258169 4.8454037155408923e-31 1 1.3877787807814457e-16 1.2490009027033009e-13 -4.8572257327350599e-15 35 1 F -2.3663992802794316 F -1.5707963267948968 #
DXID-attrib $-1 -1 $-1 $27 $11 @18 ASM_FACE_FROM_STEP @17 step-3M-821-41101 #
fmesh-eye-attrib $-1 -1 $96 $28 $18 #
truecolor-adesk-attrib $-1 -1 $97 $-1 $29 -1056964608 #
face $98 -1 $-1 $99 $75 $3 $-1 $100 forward single #
loop $-1 -1 $-1 $101 $71 $29 #
plane-surface $-1 -1 $-1 2502.8678760700755 -2369.2605273140052 -2632.4671168258169 0 -1 0 -1 0 3.4914813388431334e-15 forward_v I I I I #
coedge $-1 -1 $-1 $102 $103 $33 $61 reversed $30 $-1 #
coedge $-1 -1 $-1 $32 $32 $104 $105 forward $19 $-1 #
coedge $-1 -1 $-1 $106 $107 $32 $59 forward $75 $-1 #
edge $108 -1 $-1 $109 -2.3459897001052576 $110 -0.7956029534845348 $32 $111 forward @7 unknown #
coedge $-1 -1 $-1 $34 $33 $112 $113 forward $12 $-1 #
edge $114 -1 $-1 $68 -1.2987735475193543 $115 -0.87743953689798826 $33 $116 forward @7 unknown #
coedge $-1 -1 $-1 $103 $102 $34 $63 forward $30 $-1 #
edge $117 -1 $-1 $67 -1.2987735475193545 $118 -0.87743953689798837 $34 $119 forward @7 unknown #
coedge $-1 -1 $-1 $35 $35 $102 $120 reversed $65 $-1 #
loop $-1 -1 $-1 $-1 $35 $92 #
truecolor-adesk-attrib $-1 -1 $121 $-1 $36 -1056964608 #
vertex $-1 -1 $-1 $36 $122 #
vertex $-1 -1 $-1 $36 $123 #
ellipse-curve $-1 -1 $-1 2502.8678760700755 -2379.2605273140052 -2597.4671168258169 -4.8454037155408932e-31 -1 -1.3877787807814457e-16 4.1633363423443377e-14 -1.5150777066302152e-15 10.917285432027493 1 F -1.570796326794899 F 1.5707963267948934 #
coedge $-1 -1 $-1 $124 $37 $125 $126 reversed $7 $-1 #
coedge $-1 -1 $-1 $127 $127 $37 $72 forward $54 $-1 #
edge $128 -1 $-1 $129 8.3266726846887172e-17 $77 3.1415926535897931 $37 $130 forward @7 unknown #
coedge $-1 -1 $-1 $107 $38 $44 $91 forward $75 $-1 #
coedge $-1 -1 $-1 $38 $125 $127 $131 reversed $75 $-1 #
loop $-1 -1 $-1 $-1 $38 $53 #
truecolor-adesk-attrib $-1 -1 $132 $-1 $39 -1056964608 #
vertex $-1 -1 $-1 $39 $133 #
straight-curve $-1 -1 $-1 2467.8678760700755 -2381.0716892937335 -2597.4671168258169 0 1000 0 F 0.001811161979728313 F 0.011811161979728313 #
coedge $-1 -1 $-1 $40 $124 $134 $135 forward $7 $-1 #
coedge $-1 -1 $-1 $136 $136 $40 $81 reversed $137 $-1 #
edge $138 -1 $-1 $139 0.79560295348453547 $86 2.3459897001052581 $40 $140 forward @7 unknown #
coedge $-1 -1 $-1 $134 $41 $136 $141 reversed $84 $-1 #
coedge $-1 -1 $-1 $41 $134 $43 $89 reversed $84 $-1 #
loop $-1 -1 $-1 $-1 $82 $142 #
truecolor-adesk-attrib $-1 -1 $143 $-1 $42 -1056964608 #
vertex $-1 -1 $-1 $81 $144 #
straight-curve $-1 -1 $-1 2478.3729786422437 -2381.0716892937335 -2622.4671168258169 0 1000 0 F -0.018188838020271686 F 0.0018111619797283218 #
coedge $-1 -1 $-1 $145 $43 $124 $146 reversed $45 $-1 #
edge $147 -1 $-1 $47 0.01050510257216823 $148 0.059494897427831803 $43 $149 forward @7 unknown #
coedge $-1 -1 $-1 $44 $145 $150 $151 reversed $45 $-1 #
edge $152 -1 $-1 $48 -1.5707963267948968 $153 -0.77519337331036098 $73 $154 forward @7 unknown #
face $155 -1 $-1 $156 $45 $3 $-1 $157 reversed single #
DXID-attrib $-1 -1 $-1 $46 $25 @18 ASM_EDGE_FROM_STEP @5 16557 #
point $-1 -1 $-1 2478.3729786422437 -2379.2605273140052 -2622.4671168258169 #
point $-1 -1 $-1 2467.8678760700755 -2379.2605273140052 -2597.4671168258169 #
DXID-attrib $-1 -1 $-1 $51 $18 @18 ASM_FACE_FROM_STEP @17 step-3M-821-18797 #
fmesh-eye-attrib $-1 -1 $158 $52 $29 #
truecolor-adesk-attrib $-1 -1 $159 $-1 $53 -1056964608 #
face $160 -1 $-1 $92 $137 $3 $-1 $161 reversed single #
cone-surface $-1 -1 $-1 2502.8678760700755 -2381.0716892937335 -2597.4671168258169 0 1 0 35.000000000000014 0 -1.214306433183765e-13 1 I I 0 1 35.000000000000014 forward I I I I #
loop $-1 -1 $-1 $-1 $162 $29 #
coedge $-1 -1 $-1 $62 $56 $64 $120 forward $30 $-1 #
coedge $-1 -1 $-1 $56 $62 $162 $163 forward $30 $-1 #
coedge $-1 -1 $-1 $164 $165 $57 $105 reversed $166 $-1 #
edge $167 -1 $-1 $109 -0.024494897427831751 $110 0.024494897427831824 $57 $168 forward @7 unknown #
coedge $-1 -1 $-1 $169 $58 $165 $170 forward $75 $-1 #
coedge $-1 -1 $-1 $58 $73 $164 $171 forward $75 $-1 #
truecolor-adesk-attrib $-1 -1 $172 $-1 $59 -1056964608 #
vertex $-1 -1 $-1 $59 $173 #
vertex $-1 -1 $-1 $59 $174 #
ellipse-curve $-1 -1 $-1 2502.8678760700755 -2399.2605273140052 -2597.4671168258169 0 1 0 35.000000000000014 0 -1.214306433183765e-13 1 F -2.3459897001052576 F -0.7956029534845348 #
coedge $-1 -1 $-1 $162 $162 $60 $113 reversed $101 $-1 #
edge $175 -1 $-1 $115 -3.1415926535897931 $118 8.3266726846886642e-17 $60 $176 forward @7 unknown #
truecolor-adesk-attrib $-1 -1 $177 $-1 $61 -1056964608 #
vertex $-1 -1 $-1 $61 $178 #
ellipse-curve $-1 -1 $-1 2505.7912174948033 -2329.6413543749422 -2597.4671168258169 -3.3690166589283986e-15 0 -1 -51.513350453494674 0 1.7354933583504035e-13 1 F -1.2987735475193543 F -0.87743953689798826 #
truecolor-adesk-attrib $-1 -1 $179 $-1 $63 -1056964608 #
vertex $-1 -1 $-1 $113 $180 #
ellipse-curve $-1 -1 $-1 2499.9445346453476 -2329.6413543749422 -2597.4671168258169 3.4914813388431334e-15 0 1 51.513350453494695 0 -1.798579018096632e-13 1 F -1.2987735475193545 F -0.87743953689798837 #
edge $181 -1 $-1 $68 1.5707963267948934 $67 4.712388980384687 $102 $182 forward @7 unknown #
DXID-attrib $-1 -1 $-1 $66 $36 @18 ASM_EDGE_FROM_STEP @5 14716 #
point $-1 -1 $-1 2513.7851615021032 -2379.2605273140052 -2597.4671168258169 #
point $-1 -1 $-1 2491.9505906380482 -2379.2605273140052 -2597.4671168258169 #
coedge $-1 -1 $-1 $79 $70 $88 $146 forward $7 $-1 #
coedge $-1 -1 $-1 $74 $169 $70 $126 forward $75 $-1 #
edge $183 -1 $-1 $184 0.001811161979728313 $129 0.011811161979728313 $70 $185 forward @7 unknown #
coedge $-1 -1 $-1 $71 $71 $74 $131 forward $54 $-1 #
truecolor-adesk-attrib $-1 -1 $186 $-1 $72 -1056964608 #
vertex $-1 -1 $-1 $72 $187 #
ellipse-curve $-1 -1 $-1 2502.8678760700755 -2369.2605273140052 -2597.4671168258169 0 1 0 35.000000000000014 0 -1.214306433183765e-13 1 F 8.3266726846887172e-17 F 3.1415926535897931 #
edge $188 -1 $-1 $77 -3.1415926535897931 $129 8.3266726846887172e-17 $127 $189 forward @7 unknown #
DXID-attrib $-1 -1 $-1 $76 $39 @18 ASM_EDGE_FROM_STEP @5 24819 #
point $-1 -1 $-1 2467.8678760700755 -2369.2605273140052 -2597.4671168258169 #
coedge $-1 -1 $-1 $83 $82 $79 $135 reversed $84 $-1 #
edge $190 -1 $-1 $148 -0.0018111619797283218 $139 0.018188838020271686 $79 $191 forward @7 unknown #
coedge $-1 -1 $-1 $80 $80 $82 $141 forward $137 $-1 #
loop $-1 -1 $-1 $-1 $80 $99 #
truecolor-adesk-attrib $-1 -1 $192 $-1 $81 -1056964608 #
vertex $-1 -1 $-1 $135 $193 #
ellipse-curve $-1 -1 $-1 2502.8678760700755 -2399.2605273140052 -2597.4671168258169 0 1 0 35.000000000000014 0 -1.214306433183765e-13 1 F 0.79560295348453547 F 2.3459897001052581 #
edge $194 -1 $-1 $139 -0.024494897427831789 $86 0.024494897427831789 $136 $195 forward @7 unknown #
face $196 -1 $-1 $-1 $84 $3 $-1 $197 reversed single #
DXID-attrib $-1 -1 $-1 $85 $42 @18 ASM_EDGE_FROM_STEP @5 27099 #
point $-1 -1 $-1 2478.3729786422437 -2399.2605273140052 -2622.4671168258169 #
coedge $-1 -1 $-1 $90 $88 $169 $198 reversed $45 $-1 #
edge $199 -1 $-1 $184 1.5707963267948966 $148 2.366399280279432 $124 $200 forward @7 unknown #
truecolor-adesk-attrib $-1 -1 $201 $-1 $89 -1056964608 #
vertex $-1 -1 $-1 $146 $202 #
straight-curve $-1 -1 $-1 2467.8678760700755 -2379.2605273140052 -2622.4671168258169 1000 0 -3.4914813388431333e-12 F 0.01050510257216823 F 0.059494897427831803 #
coedge $-1 -1 $-1 $165 $164 $90 $151 forward $166 $-1 #
edge $203 -1 $-1 $153 0.01050510257216823 $204 0.059494897427831803 $90 $205 forward @7 unknown #
truecolor-adesk-attrib $-1 -1 $206 $-1 $91 -1056964608 #
vertex $-1 -1 $-1 $91 $207 #
ellipse-curve $-1 -1 $-1 2502.8678760700755 -2379.2605273140052 -2597.4671168258169 4.8454037155408923e-31 1 1.3877787807814457e-16 1.2490009027033009e-13 -4.8572257327350599e-15 35 1 F -1.5707963267948968 F -0.77519337331036098 #
truecolor-adesk-attrib $-1 -1 $208 $-1 $92 -1056964608 #
face $209 -1 $-1 $142 $166 $3 $-1 $210 reversed single #
plane-surface $-1 -1 $-1 2467.8678760700755 -2379.2605273140052 -2622.4671168258169 4.8454037155408932e-31 1 1.3877787807814457e-16 3.4914813388431334e-15 -1.3877787807814457e-16 1 forward_v I I I I #
DXID-attrib $-1 -1 $-1 $97 $29 @18 ASM_FACE_FROM_STEP @16 step-3M-821-1616 #
fmesh-eye-attrib $-1 -1 $211 $98 $53 #
truecolor-adesk-attrib $-1 -1 $212 $-1 $99 -1056964608 #
plane-surface $-1 -1 $-1 2502.8678760700755 -2399.2605273140052 -2597.4671168258169 0 1 0 1 0 -3.4914813388431334e-15 forward_v I I I I #
coedge $-1 -1 $-1 $112 $112 $103 $163 reversed $101 $-1 #
edge $213 -1 $-1 $118 8.3266726846886642e-17 $115 3.1415926535897931 $103 $214 forward @7 unknown #
coedge $-1 -1 $-1 $150 $104 $107 $171 reversed $166 $-1 #
coedge $-1 -1 $-1 $104 $150 $106 $170 reversed $166 $-1 #
loop $-1 -1 $-1 $-1 $104 $156 #
truecolor-adesk-attrib $-1 -1 $215 $-1 $105 -1056964608 #
straight-curve $-1 -1 $-1 2502.8678760700759 -2399.2605273140052 -2572.4671168258169 1000 0 -3.4914813388431333e-12 F -0.024494897427831751 F 0.024494897427831824 #
coedge $-1 -1 $-1 $125 $106 $145 $198 forward $75 $-1 #
edge $216 -1 $-1 $110 -0.018188838020271686 $204 0.0018111619797283041 $106 $217 forward @7 unknown #
edge $218 -1 $-1 $153 -0.0018111619797283041 $109 0.018188838020271686 $107 $219 forward @7 unknown #
DXID-attrib $-1 -1 $-1 $108 $59 @18 ASM_EDGE_FROM_STEP @5 31159 #
point $-1 -1 $-1 2478.3729786422437 -2399.2605273140052 -2572.4671168258169 #
point $-1 -1 $-1 2527.3627734979073 -2399.2605273140052 -2572.4671168258169 #
truecolor-adesk-attrib $-1 -1 $220 $-1 $113 -1056964608 #
ellipse-curve $-1 -1 $-1 2502.8678760700755 -2369.2605273140052 -2597.4671168258169 0 1 0 30.000000000000018 0 -1.0408340855860841e-13 1 F -3.1415926535897931 F 8.3266726846886642e-17 #
DXID-attrib $-1 -1 $-1 $114 $61 @18 ASM_EDGE_FROM_STEP @4 7754 #
point $-1 -1 $-1 2472.8678760700755 -2369.2605273140052 -2597.4671168258169 #
DXID-attrib $-1 -1 $-1 $117 $63 @18 ASM_EDGE_FROM_STEP @5 33977 #
point $-1 -1 $-1 2532.8678760700755 -2369.2605273140052 -2597.4671168258169 #
truecolor-adesk-attrib $-1 -1 $221 $-1 $120 -1056964608 #
ellipse-curve $-1 -1 $-1 2502.8678760700755 -2379.2605273140052 -2597.4671168258169 -4.8454037155408932e-31 -1 -1.3877787807814457e-16 4.1633363423443377e-14 -1.5150777066302152e-15 10.917285432027493 1 F 1.5707963267948934 F 4.712388980384687 #
truecolor-adesk-attrib $-1 -1 $222 $-1 $126 -1056964608 #
vertex $-1 -1 $-1 $126 $223 #
straight-curve $-1 -1 $-1 2537.8678760700755 -2381.0716892937335 -2597.4671168258169 0 1000 0 F 0.001811161979728313 F 0.011811161979728313 #
DXID-attrib $-1 -1 $-1 $128 $72 @18 ASM_EDGE_FROM_STEP @5 31541 #
point $-1 -1 $-1 2537.8678760700755 -2369.2605273140052 -2597.4671168258169 #
truecolor-adesk-attrib $-1 -1 $224 $-1 $131 -1056964608 #
ellipse-curve $-1 -1 $-1 2502.8678760700755 -2369.2605273140052 -2597.4671168258169 0 1 0 35.000000000000014 0 -1.214306433183765e-13 1 F -3.1415926535897931 F 8.3266726846887172e-17 #
truecolor-adesk-attrib $-1 -1 $225 $-1 $135 -1056964608 #
straight-curve $-1 -1 $-1 2527.3627734979073 -2381.0716892937335 -2622.4671168258169 0 -1000 0 F -0.0018111619797283218 F 0.018188838020271686 #
DXID-attrib $-1 -1 $-1 $138 $81 @18 ASM_EDGE_FROM_STEP @5 30152 #
point $-1 -1 $-1 2527.3627734979073 -2399.2605273140052 -2622.4671168258169 #
truecolor-adesk-attrib $-1 -1 $226 $-1 $141 -1056964608 #
straight-curve $-1 -1 $-1 2502.8678760700755 -2399.2605273140052 -2622.4671168258169 -1000 0 3.4914813388431333e-12 F -0.024494897427831789 F 0.024494897427831789 #
truecolor-adesk-attrib $-1 -1 $227 $-1 $142 -1056964608 #
plane-surface $-1 -1 $-1 2467.8678760700755 -2399.2605273140052 -2622.4671168258169 -3.4914813388431334e-15 0 -1 -1 0 3.4914813388431334e-15 forward_v I I I I #
edge $228 -1 $-1 $204 0.77519337331036164 $184 1.5707963267948966 $169 $229 forward @7 unknown #
truecolor-adesk-attrib $-1 -1 $230 $-1 $146 -1056964608 #
ellipse-curve $-1 -1 $-1 2502.8678760700755 -2379.2605273140052 -2597.4671168258169 4.8454037155408923e-31 1 1.3877787807814457e-16 1.2490009027033009e-13 -4.8572257327350599e-15 35 1 F 1.5707963267948966 F 2.366399280279432 #
DXID-attrib $-1 -1 $-1 $147 $89 @18 ASM_EDGE_FROM_STEP @4 9363 #
point $-1 -1 $-1 2527.3627734979073 -2379.2605273140052 -2622.4671168258169 #
truecolor-adesk-attrib $-1 -1 $231 $-1 $151 -1056964608 #
vertex $-1 -1 $-1 $170 $232 #
straight-curve $-1 -1 $-1 2467.8678760700759 -2379.2605273140052 -2572.4671168258169 1000 0 -3.4914813388431333e-12 F 0.01050510257216823 F 0.059494897427831803 #
DXID-attrib $-1 -1 $-1 $152 $91 @18 ASM_EDGE_FROM_STEP @5 25397 #
point $-1 -1 $-1 2478.3729786422437 -2379.2605273140052 -2572.4671168258169 #
fmesh-eye-attrib $-1 -1 $233 $155 $92 #
truecolor-adesk-attrib $-1 -1 $234 $-1 $156 -1056964608 #
plane-surface $-1 -1 $-1 2467.8678760700759 -2379.2605273140052 -2572.4671168258169 3.4914813388431334e-15 0 1 1 0 -3.4914813388431334e-15 forward_v I I I I #
DXID-attrib $-1 -1 $-1 $159 $53 @18 ASM_FACE_FROM_STEP @17 step-3M-821-36378 #
fmesh-eye-attrib $-1 -1 $235 $160 $99 #
truecolor-adesk-attrib $-1 -1 $236 $-1 $163 -1056964608 #
ellipse-curve $-1 -1 $-1 2502.8678760700755 -2369.2605273140052 -2597.4671168258169 0 1 0 30.000000000000018 0 -1.0408340855860841e-13 1 F 8.3266726846886642e-17 F 3.1415926535897931 #
DXID-attrib $-1 -1 $-1 $167 $105 @18 ASM_EDGE_FROM_STEP @4 6994 #
truecolor-adesk-attrib $-1 -1 $237 $-1 $170 -1056964608 #
straight-curve $-1 -1 $-1 2527.3627734979073 -2381.0716892937335 -2572.4671168258169 0 1000 0 F -0.018188838020271686 F 0.0018111619797283041 #
truecolor-adesk-attrib $-1 -1 $238 $-1 $171 -1056964608 #
straight-curve $-1 -1 $-1 2478.3729786422437 -2381.0716892937335 -2572.4671168258169 0 -1000 0 F -0.0018111619797283041 F 0.018188838020271686 #
DXID-attrib $-1 -1 $-1 $175 $113 @18 ASM_EDGE_FROM_STEP @5 18998 #
DXID-attrib $-1 -1 $-1 $181 $120 @18 ASM_EDGE_FROM_STEP @5 11278 #
DXID-attrib $-1 -1 $-1 $183 $126 @18 ASM_EDGE_FROM_STEP @5 27876 #
point $-1 -1 $-1 2537.8678760700755 -2379.2605273140052 -2597.4671168258169 #
DXID-attrib $-1 -1 $-1 $188 $131 @18 ASM_EDGE_FROM_STEP @5 41667 #
DXID-attrib $-1 -1 $-1 $190 $135 @18 ASM_EDGE_FROM_STEP @5 33788 #
DXID-attrib $-1 -1 $-1 $194 $141 @18 ASM_EDGE_FROM_STEP @5 21627 #
fmesh-eye-attrib $-1 -1 $239 $196 $142 #
truecolor-adesk-attrib $-1 -1 $240 $-1 $198 -1056964608 #
ellipse-curve $-1 -1 $-1 2502.8678760700755 -2379.2605273140052 -2597.4671168258169 4.8454037155408923e-31 1 1.3877787807814457e-16 1.2490009027033009e-13 -4.8572257327350599e-15 35 1 F 0.77519337331036164 F 1.5707963267948966 #
DXID-attrib $-1 -1 $-1 $199 $146 @18 ASM_EDGE_FROM_STEP @5 30274 #
DXID-attrib $-1 -1 $-1 $203 $151 @18 ASM_EDGE_FROM_STEP @5 31187 #
point $-1 -1 $-1 2527.3627734979073 -2379.2605273140052 -2572.4671168258169 #
DXID-attrib $-1 -1 $-1 $208 $92 @18 ASM_FACE_FROM_STEP @17 step-3M-821-35019 #
fmesh-eye-attrib $-1 -1 $241 $209 $156 #
DXID-attrib $-1 -1 $-1 $212 $99 @18 ASM_FACE_FROM_STEP @17 step-3M-821-43909 #
DXID-attrib $-1 -1 $-1 $213 $163 @18 ASM_EDGE_FROM_STEP @5 27674 #
DXID-attrib $-1 -1 $-1 $216 $170 @18 ASM_EDGE_FROM_STEP @4 6654 #
DXID-attrib $-1 -1 $-1 $218 $171 @18 ASM_EDGE_FROM_STEP @5 26675 #
DXID-attrib $-1 -1 $-1 $227 $142 @18 ASM_FACE_FROM_STEP @17 step-3M-821-42020 #
DXID-attrib $-1 -1 $-1 $228 $198 @18 ASM_EDGE_FROM_STEP @4 4425 #
DXID-attrib $-1 -1 $-1 $234 $156 @18 ASM_FACE_FROM_STEP @17 step-3M-821-14999 #
