700 429 1 0         
16 Autodesk AutoCAD 20 ASM 229.2.0.65535 NT 24 Wed Mar  6 06:39:56 2024 
1 9.999999999999999547e-07 1.000000000000000036e-10 
body $1 -1 $-1 $2 $-1 $3 #
DXID-attrib $-1 -1 $-1 $-1 $0 @18 ASM_BODY_FROM_STEP @83 0764E9B2654C8A331530D2094C3C0D109341AF49|:|33A2E9DC135DDB85445CBE9660E662864B2A9F75 #
lump $-1 -1 $-1 $-1 $4 $0 #
transform $-1 -1 1 0 0 0 1 0 0 0 1 0 0 0 1 no_rotate no_reflect no_shear #
shell $-1 -1 $-1 $-1 $-1 $5 $-1 $2 #
face $6 -1 $-1 $7 $8 $4 $-1 $9 forward single #
color-adesk-attrib $-1 -1 $10 $-1 $5 7 #
face $11 -1 $-1 $12 $13 $4 $-1 $14 reversed single #
loop $-1 -1 $-1 $-1 $15 $5 #
plane-surface $-1 -1 $-1 7.258564973136468979 -0.8264338933156178957 -0.3760759116806875468 0.8658946229231527791 0.4954138490758505098 -0.06922152942995096758 -0.06008266963755595075 -0.03437576102206146844 -0.9976013130822246611 forward_v I I I I #
DXID-attrib $-1 -1 $-1 $6 $5 @18 ASM_FACE_FROM_STEP @15 step-1M-530-625 #
color-adesk-attrib $-1 -1 $16 $-1 $7 7 #
face $17 -1 $-1 $18 $19 $4 $-1 $20 reversed single #
loop $-1 -1 $-1 $-1 $21 $7 #
plane-surface $-1 -1 $-1 -7.115280223532328918 -0.7686719738080592945 -0.3621736041820555196 0.8571220535388404116 -0.5105203171792450645 0.06863520295419942019 0.05896780256025205974 -0.03512249059761102937 -0.9976418239606016369 forward_v I I I I #
coedge $-1 -1 $-1 $22 $23 $24 $25 forward $8 $-1 #
DXID-attrib $-1 -1 $-1 $11 $7 @18 ASM_FACE_FROM_STEP @15 step-1M-530-479 #
color-adesk-attrib $-1 -1 $26 $-1 $12 7 #
face $27 -1 $-1 $28 $29 $4 $-1 $30 reversed single #
loop $-1 -1 $-1 $-1 $31 $12 #
plane-surface $-1 -1 $-1 -0.06108413691092301478 -6.150911278109731484 -129.8652111433100629 0.7744164624549619846 -0.2860991079550774807 0.5642928699762664868 -0.2312250592811283811 -0.9582000315316780981 -0.1684864134971414407 forward_v I I I I #
coedge $-1 -1 $-1 $32 $33 $34 $35 forward $13 $-1 #
coedge $-1 -1 $-1 $23 $15 $36 $37 reversed $8 $-1 #
coedge $-1 -1 $-1 $15 $22 $38 $39 reversed $8 $-1 #
coedge $-1 -1 $-1 $40 $41 $15 $25 reversed $42 $-1 #
edge $43 -1 $-1 $44 -0.0001261942896492839329 $45 0 $15 $46 forward @7 unknown #
DXID-attrib $-1 -1 $-1 $17 $12 @18 ASM_FACE_FROM_STEP @15 step-1M-530-295 #
color-adesk-attrib $-1 -1 $47 $-1 $18 7 #
face $48 -1 $-1 $49 $50 $4 $-1 $51 forward single #
loop $-1 -1 $-1 $-1 $52 $18 #
plane-surface $-1 -1 $-1 -0.05506893529834432782 -6.136467579040632003 -129.8661431801344577 0.1343365091654912524 -0.7237764090064434663 0.6768318935089919774 -0.9909357710291974985 -0.09811896900368896612 0.09175492148339098319 forward_v I I I I #
coedge $-1 -1 $-1 $53 $54 $55 $56 forward $19 $-1 #
coedge $-1 -1 $-1 $33 $21 $57 $58 reversed $13 $-1 #
coedge $-1 -1 $-1 $21 $32 $59 $60 forward $13 $-1 #
coedge $-1 -1 $-1 $61 $62 $21 $35 reversed $63 $-1 #
edge $64 -1 $-1 $65 -0.0001252723576707309261 $66 0 $21 $67 forward @7 unknown #
coedge $-1 -1 $-1 $68 $69 $22 $37 forward $70 $-1 #
edge $71 -1 $-1 $72 0 $45 0.0001261706763692426164 $22 $73 forward @7 unknown #
coedge $-1 -1 $-1 $74 $75 $23 $39 forward $76 $-1 #
edge $77 -1 $-1 $44 -0.0003806218283598193099 $72 -0.0003721661794772971742 $23 $78 forward @7 unknown #
coedge $-1 -1 $-1 $79 $24 $75 $80 forward $42 $-1 #
coedge $-1 -1 $-1 $24 $81 $82 $83 reversed $42 $-1 #
loop $-1 -1 $-1 $-1 $24 $49 #
color-adesk-attrib $-1 -1 $84 $-1 $25 7 #
vertex $-1 -1 $-1 $25 $85 #
vertex $-1 -1 $-1 $25 $86 #
straight-curve $-1 -1 $-1 7.342435046584863123 -0.9204766737541220101 0 494.6707468778274688 -868.6063456227867619 -28.70311006076802229 F -0.0001261942896492839329 F 0 #
DXID-attrib $-1 -1 $-1 $27 $18 @18 ASM_FACE_FROM_STEP @15 step-1M-530-692 #
color-adesk-attrib $-1 -1 $87 $-1 $28 7 #
face $88 -1 $-1 $89 $42 $4 $-1 $90 reversed single #
loop $-1 -1 $-1 $-1 $91 $28 #
plane-surface $-1 -1 $-1 7.383930346609936635 -1.045285483381383607 -0.3741820763138703487 -0.8658946229231543334 -0.4954138490758476787 0.06922152942995093983 -0.06008266963755604095 -0.03437576102206126721 -0.99760131308222455 forward_v I I I I #
coedge $-1 -1 $-1 $55 $92 $93 $94 forward $29 $-1 #
coedge $-1 -1 $-1 $54 $31 $95 $96 reversed $19 $-1 #
coedge $-1 -1 $-1 $31 $53 $97 $98 forward $19 $-1 #
coedge $-1 -1 $-1 $92 $52 $31 $56 reversed $29 $-1 #
edge $99 -1 $-1 $100 -0.0001848366722194555998 $101 0 $31 $102 forward @7 unknown #
coedge $-1 -1 $-1 $103 $104 $32 $58 forward $105 $-1 #
edge $106 -1 $-1 $107 -0 $66 0.0001252941389410035017 $32 $108 forward @7 unknown #
coedge $-1 -1 $-1 $109 $110 $33 $60 reversed $111 $-1 #
edge $112 -1 $-1 $107 -0.0003665994684326628894 $65 -0.0003583184888580718554 $33 $113 forward @7 unknown #
coedge $-1 -1 $-1 $114 $34 $115 $116 forward $63 $-1 #
coedge $-1 -1 $-1 $34 $117 $118 $119 reversed $63 $-1 #
loop $-1 -1 $-1 $-1 $34 $120 #
color-adesk-attrib $-1 -1 $121 $-1 $35 7 #
vertex $-1 -1 $-1 $35 $122 #
vertex $-1 -1 $-1 $35 $123 #
straight-curve $-1 -1 $-1 -7.199414715115146635 -0.8612357127642698007 0 -513.5856934128985358 -857.2143268865584105 37.59432539649134952 F -0.0001252723576707309261 F 0 #
coedge $-1 -1 $-1 $124 $36 $91 $125 forward $70 $-1 #
coedge $-1 -1 $-1 $36 $126 $127 $128 forward $70 $-1 #
loop $-1 -1 $-1 $-1 $69 $129 #
color-adesk-attrib $-1 -1 $130 $-1 $37 7 #
vertex $-1 -1 $-1 $37 $131 #
straight-curve $-1 -1 $-1 7.279534004797620916 -0.8112094145036086168 -0.004812958906209896179 498.5393087943776891 -866.0273717701226133 38.14641440238175818 F 0 F 0.0001261706763692426164 #
coedge $-1 -1 $-1 $97 $38 $132 $133 forward $76 $-1 #
coedge $-1 -1 $-1 $38 $134 $40 $80 reversed $76 $-1 #
loop $-1 -1 $-1 $-1 $134 $135 #
color-adesk-attrib $-1 -1 $136 $-1 $39 7 #
straight-curve $-1 -1 $-1 7.258564973136468979 -0.8264338933156178957 -0.3760759116806875468 -56.34319510333761372 -40.90774404431839173 -997.5730553913092535 F -0.0003806218283598193099 F -0.0003721661794772971742 #
tcoedge-coedge $-1 -1 $-1 $81 $40 $137 $138 forward $42 $139 1.341302669081285663e-09 0.05223381549981988281 #
edge $140 -1 $-1 $44 -0.002065446109673840618 $141 0.01677026138940777497 $40 $142 forward @7 unknown #
coedge $-1 -1 $-1 $41 $79 $143 $144 reversed $42 $-1 #
coedge $-1 -1 $-1 $145 $91 $41 $83 forward $50 $-1 #
edge $146 -1 $-1 $45 0 $147 0.0001261942896492838516 $82 $148 forward @7 unknown #
DXID-attrib $-1 -1 $-1 $43 $25 @18 ASM_EDGE_FROM_STEP @3 186 #
point $-1 -1 $-1 7.280010423072335257 -0.8108635129833939859 0.003622168584843838985 #
point $-1 -1 $-1 7.342435046584863123 -0.9204766737541220101 0 #
DXID-attrib $-1 -1 $-1 $48 $28 @18 ASM_FACE_FROM_STEP @15 step-1M-530-402 #
color-adesk-attrib $-1 -1 $149 $-1 $49 7 #
face $150 -1 $-1 $151 $105 $4 $-1 $152 reversed single #
plane-surface $-1 -1 $-1 7.342435046584860459 -0.9204766737541220101 0 -0.0334077278848923867 0.01399765134841868264 -0.9993437794244266481 -0.386443949820255872 -0.922312893571004988 0 forward_v I I I I #
coedge $-1 -1 $-1 $82 $145 $68 $125 reversed $50 $-1 #
coedge $-1 -1 $-1 $52 $55 $153 $154 forward $29 $-1 #
coedge $-1 -1 $-1 $155 $156 $52 $94 reversed $157 $-1 #
edge $158 -1 $-1 $159 -0.0001465707918984084481 $101 -0 $52 $160 forward @7 unknown #
coedge $-1 -1 $-1 $161 $162 $53 $96 forward $163 $-1 #
edge $164 -1 $-1 $165 0 $101 0.0001788898363454910999 $53 $166 forward @7 unknown #
coedge $-1 -1 $-1 $167 $74 $54 $98 reversed $76 $-1 #
edge $168 -1 $-1 $165 0 $100 0.001567392056508682199 $54 $169 forward @7 unknown #
color-adesk-attrib $-1 -1 $170 $-1 $56 7 #
vertex $-1 -1 $-1 $56 $171 #
vertex $-1 -1 $-1 $56 $172 #
straight-curve $-1 -1 $-1 0 -6.25142130685203945 -130 297.932951492210691 -621.9205660385355259 -724.1897306324136707 F -0.0001848366722194555998 F 0 #
coedge $-1 -1 $-1 $173 $57 $174 $175 forward $105 $-1 #
coedge $-1 -1 $-1 $57 $137 $109 $176 forward $105 $-1 #
loop $-1 -1 $-1 $-1 $137 $89 #
color-adesk-attrib $-1 -1 $177 $-1 $58 7 #
vertex $-1 -1 $-1 $58 $178 #
straight-curve $-1 -1 $-1 -7.135534132480922942 -0.7535079177620206403 0.003551703708505604684 -509.8449390701503603 -859.7991567105522108 -28.3469261892448614 F -0 F 0.0001252941389410035017 #
coedge $-1 -1 $-1 $179 $59 $104 $176 reversed $111 $-1 #
coedge $-1 -1 $-1 $59 $179 $180 $181 reversed $111 $-1 #
loop $-1 -1 $-1 $-1 $110 $182 #
color-adesk-attrib $-1 -1 $183 $-1 $60 7 #
straight-curve $-1 -1 $-1 -7.115280223532328918 -0.7686719738080592945 -0.3621736041820555196 55.24805869246651469 -41.36409720087721098 -997.6154887898796915 F -0.0003665994684326628894 F -0.0003583184888580718554 #
coedge $-1 -1 $-1 $117 $61 $184 $185 forward $63 $-1 #
coedge $-1 -1 $-1 $180 $186 $61 $116 reversed $187 $-1 #
edge $188 -1 $-1 $65 0.00717477710436999986 $189 0.04725023015995014758 $61 $190 forward @7 unknown #
coedge $-1 -1 $-1 $62 $114 $191 $192 reversed $63 $-1 #
coedge $-1 -1 $-1 $193 $174 $62 $119 forward $194 $-1 #
edge $195 -1 $-1 $66 0 $196 0.0001252723576707302484 $118 $197 forward @7 unknown #
face $198 -1 $-1 $199 $63 $4 $-1 $200 reversed single #
DXID-attrib $-1 -1 $-1 $64 $35 @18 ASM_EDGE_FROM_STEP @3 534 #
point $-1 -1 $-1 -7.135076624435354731 -0.7538504530060624598 -0.004709529777459082849 #
point $-1 -1 $-1 -7.199414715115146635 -0.8612357127642698007 0 #
coedge $-1 -1 $-1 $126 $68 $201 $202 reversed $70 $-1 #
edge $203 -1 $-1 $45 0 $204 0.0001261706763692416948 $91 $205 forward @7 unknown #
coedge $-1 -1 $-1 $69 $124 $206 $207 reversed $70 $-1 #
coedge $-1 -1 $-1 $208 $132 $69 $128 reversed $209 $-1 #
edge $210 -1 $-1 $211 -0.04739958825422958127 $72 -0.007322652959497740616 $69 $212 forward @7 unknown #
face $213 -1 $-1 $214 $70 $4 $-1 $215 reversed single #
DXID-attrib $-1 -1 $-1 $71 $37 @18 ASM_EDGE_FROM_STEP @2 55 #
point $-1 -1 $-1 7.279534004797620916 -0.8112094145036086168 -0.004812958906209896179 #
coedge $-1 -1 $-1 $127 $153 $74 $133 reversed $209 $-1 #
edge $216 -1 $-1 $72 -0.0003721661794772971742 $100 0.129805097048917184 $132 $217 forward @7 unknown #
coedge $-1 -1 $-1 $75 $167 $179 $218 reversed $76 $-1 #
face $219 -1 $-1 $182 $76 $4 $-1 $220 forward single #
DXID-attrib $-1 -1 $-1 $77 $39 @18 ASM_EDGE_FROM_STEP @3 134 #
tcoedge-coedge $-1 -1 $-1 $104 $173 $79 $138 reversed $105 $221 -0.05223381549981988281 -1.341302669081285663e-09 #
tedge-edge $222 -1 $-1 $141 1.341302669081285663e-09 $223 0.05223381549981988281 $79 $224 forward @7 unknown 3.525558179162111884e-05 #
pcurve $-1 -1 $-1 0 forward { exppc nubs 1 open 2 
	1.341302669081285663e-09 1 0.05223381549981988281 1 
	18.75873399882523884 0.09999999486423631623 
	19.24126600117476471 -0.09999999486423492845 
	0 
	plane 7.342435046584860459 -0.9204766737541220101 0 0.0334077278848923867 -0.01399765134841868264 0.9993437794244266481 -0.386443949820255872 -0.922312893571004988 0 reverse_v I I I I 
	} 0 0 #
color-adesk-attrib $-1 -1 $225 $-1 $80 7 #
tvertex-vertex $-1 -1 $-1 $80 $226 3.525874840841342186e-05 #
straight-curve $-1 -1 $-1 6.481831270309093895 -2.715851090911649113 0.003622168584843838985 -386.4439498202558525 -922.3128935710049063 0 F -0.002065446109673840618 F 0.01677026138940777497 #
coedge $-1 -1 $-1 $227 $228 $81 $144 forward $229 $-1 #
edge $230 -1 $-1 $147 -0.00191149808285845965 $223 0.01725279441805993227 $81 $231 forward @7 unknown #
coedge $-1 -1 $-1 $91 $82 $232 $233 reversed $50 $-1 #
color-adesk-attrib $-1 -1 $234 $-1 $83 7 #
vertex $-1 -1 $-1 $83 $235 #
straight-curve $-1 -1 $-1 7.342435046584863123 -0.9204766737541220101 0 494.6707468778149632 -868.6063456227940378 -28.70311006076766702 F 0 F 0.0001261942896492838516 #
DXID-attrib $-1 -1 $-1 $88 $49 @18 ASM_FACE_FROM_STEP @15 step-1M-530-184 #
color-adesk-attrib $-1 -1 $236 $-1 $89 7 #
face $237 -1 $-1 $120 $194 $4 $-1 $238 reversed single #
plane-surface $-1 -1 $-1 -7.199414715115146635 -0.8612357127642698007 0 0.03286856142437544898 0.01345799365407496055 -0.9993690710026497115 -0.3789165639534286534 0.9254308388862603207 -1.734723475976807094e-18 forward_v I I I I #
coedge $-1 -1 $-1 $132 $208 $92 $154 reversed $209 $-1 #
edge $239 -1 $-1 $100 0 $159 0.01126126030222017807 $92 $240 forward @7 unknown #
coedge $-1 -1 $-1 $206 $93 $208 $241 reversed $157 $-1 #
coedge $-1 -1 $-1 $93 $242 $243 $244 reversed $157 $-1 #
loop $-1 -1 $-1 $-1 $93 $245 #
color-adesk-attrib $-1 -1 $246 $-1 $94 7 #
vertex $-1 -1 $-1 $94 $247 #
straight-curve $-1 -1 $-1 0 -6.25142130685203945 -130 -339.5454535169875498 -675.2951639940949917 -654.740655895242071 F -0.0001465707918984084481 F -0 #
coedge $-1 -1 $-1 $248 $95 $249 $250 forward $163 $-1 #
coedge $-1 -1 $-1 $95 $184 $186 $251 forward $163 $-1 #
loop $-1 -1 $-1 $-1 $184 $199 #
color-adesk-attrib $-1 -1 $252 $-1 $96 7 #
vertex $-1 -1 $-1 $96 $253 #
straight-curve $-1 -1 $-1 -0.06108413691092301478 -6.150911278109729707 -129.8652111433100345 341.4623108768861925 -561.8543277561499281 -753.4740902196318757 F 0 F 0.0001788898363454910999 #
coedge $-1 -1 $-1 $134 $97 $254 $255 reversed $76 $-1 #
color-adesk-attrib $-1 -1 $256 $-1 $98 7 #
straight-curve $-1 -1 $-1 -0.06108413691092301478 -6.150911278109729707 -129.8652111433100345 3.837713472899423106 9.215115649668931042 -0.5946417939844330647 F 0 F 0.001567392056508682199 #
DXID-attrib $-1 -1 $-1 $99 $56 @18 ASM_EDGE_FROM_STEP @3 906 #
point $-1 -1 $-1 -0.05506893529834411272 -6.136467579040630227 -129.8661431801344008 #
point $-1 -1 $-1 0 -6.25142130685203945 -130 #
coedge $-1 -1 $-1 $137 $103 $257 $258 reversed $105 $-1 #
coedge $-1 -1 $-1 $118 $193 $103 $175 reversed $194 $-1 #
edge $259 -1 $-1 $66 -0 $260 0.0001252941389410036101 $103 $261 forward @7 unknown #
edge $262 -1 $-1 $141 -0.01682777111379616525 $107 0.002006452611010134997 $104 $263 forward @7 unknown #
DXID-attrib $-1 -1 $-1 $106 $58 @18 ASM_EDGE_FROM_STEP @3 733 #
point $-1 -1 $-1 -7.135534132480922942 -0.7535079177620206403 0.003551703708505604684 #
coedge $-1 -1 $-1 $110 $109 $134 $218 forward $111 $-1 #
coedge $-1 -1 $-1 $254 $115 $110 $181 forward $187 $-1 #
edge $264 -1 $-1 $65 -0.0003583184888580718554 $265 0.1288071335010808893 $110 $266 forward @7 unknown #
face $267 -1 $-1 $268 $111 $4 $-1 $269 forward single #
DXID-attrib $-1 -1 $-1 $112 $60 @18 ASM_EDGE_FROM_STEP @2 51 #
coedge $-1 -1 $-1 $162 $248 $114 $185 reversed $163 $-1 #
edge $270 -1 $-1 $189 -9.999999999999986927e-05 $271 0.0001000000000000005062 $114 $272 forward @7 unknown #
coedge $-1 -1 $-1 $115 $254 $162 $251 reversed $187 $-1 #
loop $-1 -1 $-1 $-1 $186 $268 #
color-adesk-attrib $-1 -1 $273 $-1 $116 7 #
vertex $-1 -1 $-1 $116 $274 #
straight-curve $-1 -1 $-1 -0.001444478785270809224 0.01342974870630156761 -0.004709529777459009123 -994.2653328289661658 -106.9413294031156028 0 F 0.00717477710436999986 F 0.04725023015995014758 #
coedge $-1 -1 $-1 $275 $276 $117 $192 forward $277 $-1 #
edge $278 -1 $-1 $196 0.007325683215530330063 $271 0.04725023015995014758 $117 $279 forward @7 unknown #
coedge $-1 -1 $-1 $174 $118 $276 $280 forward $194 $-1 #
loop $-1 -1 $-1 $-1 $174 $151 #
color-adesk-attrib $-1 -1 $281 $-1 $119 7 #
vertex $-1 -1 $-1 $119 $282 #
straight-curve $-1 -1 $-1 -7.199414715115146635 -0.8612357127642698007 0 -513.5856934129116098 -857.2143268865505661 37.5943253964903974 F 0 F 0.0001252723576707302484 #
color-adesk-attrib $-1 -1 $283 $-1 $120 7 #
face $284 -1 $-1 $285 $163 $4 $-1 $286 reversed single #
plane-surface $-1 -1 $-1 -46.97002802827378076 -5.138888888888892836 0 0.005036433752650236288 -0.04682522191653190613 -0.9988904008586341199 -0.9942653328289658976 -0.1069413294031155703 0 forward_v I I I I #
coedge $-1 -1 $-1 $232 $287 $124 $202 forward $288 $-1 #
edge $289 -1 $-1 $290 -0.04739958825422958127 $204 -0.007476523548961382104 $124 $291 forward @7 unknown #
color-adesk-attrib $-1 -1 $292 $-1 $125 7 #
vertex $-1 -1 $-1 $125 $293 #
straight-curve $-1 -1 $-1 7.342435046584863123 -0.9204766737541220101 0 498.5393087943781438 -866.0273717701224996 38.14641440238154502 F 0 F 0.0001261706763692416948 #
coedge $-1 -1 $-1 $242 $155 $126 $207 forward $157 $-1 #
edge $294 -1 $-1 $211 -0.000100000000000000181 $290 9.999999999999982861e-05 $206 $295 forward @7 unknown #
coedge $-1 -1 $-1 $153 $127 $155 $241 forward $209 $-1 #
loop $-1 -1 $-1 $-1 $132 $296 #
color-adesk-attrib $-1 -1 $297 $-1 $128 7 #
vertex $-1 -1 $-1 $241 $298 #
straight-curve $-1 -1 $-1 0.02252648864279094276 0.1670994711318811166 -0.004812958906209848474 -991.035292303758979 133.6003346118688171 0 F -0.04739958825422958127 F -0.007322652959497740616 #
color-adesk-attrib $-1 -1 $299 $-1 $129 7 #
face $300 -1 $-1 $301 $288 $4 $-1 $302 reversed single #
plane-surface $-1 -1 $-1 46.98384673873522388 -6.264490058228874503 0 -0.006430129203428105664 -0.04769812136461663854 -0.9988410998035240906 -0.9910352923037589745 0.1336003346118687374 0 forward_v I I I I #
color-adesk-attrib $-1 -1 $303 $-1 $133 7 #
straight-curve $-1 -1 $-1 7.258564973136468979 -0.8264338933156178957 -0.3760759116806875468 -56.34319510333761372 -40.90774404431839173 -997.5730553913092535 F -0.0003721661794772971742 F 0.129805097048917184 #
edge $304 -1 $-1 $141 -0.001701570750570518403 $265 0.1277297559702291474 $134 $305 forward @7 unknown #
color-adesk-attrib $-1 -1 $306 $-1 $135 7 #
plane-surface $-1 -1 $-1 6.473206110442399464 -2.712237197112754128 -0.2543869929187904666 -0.921707652873126837 0.3861903573490779173 0.03622168584843758754 -0.3864439498202559276 -0.922312893571004988 -1.734723475976807865e-18 forward_v I I I I #
pcurve $-1 -1 $-1 0 forward { exppc nubs 1 open 2 
	-0.05223381549981988281 1 -1.341302669081285663e-09 1 
	-19.24126600117489616 -0.09999999486423609418 
	-18.75873399882511094 0.09999999486423609418 
	4.09982542811507393e-13 
	plane -7.199414715115146635 -0.8612357127642698007 0 -0.03286856142437544898 -0.01345799365407496055 0.9993690710026497115 -0.3789165639534286534 0.9254308388862603207 -1.734723475976807094e-18 reverse_v I I I I 
	} 0 0 #
color-adesk-attrib $-1 -1 $307 $-1 $138 7 #
tvertex-vertex $-1 -1 $-1 $138 $308 3.525874840842515835e-05 #
straight-curve $-1 -1 $-1 0.001063848143760882155 -18.18327936728103822 0.003586936146674613198 -0.04073407643168276693 -9.998973849316183049 -0.1373415294380897489 F 1.341302669081285663e-09 F 0.05223381549981988281 #
DXID-attrib $-1 -1 $-1 $140 $80 @18 ASM_EDGE_FROM_STEP @3 144 #
point $-1 -1 $-1 0.001063851245618046507 -18.18327938071213978 0.003586936408220865735 #
coedge $-1 -1 $-1 $309 $143 $310 $311 forward $229 $-1 #
coedge $-1 -1 $-1 $143 $309 $312 $313 reversed $229 $-1 #
loop $-1 -1 $-1 $-1 $227 $301 #
color-adesk-attrib $-1 -1 $314 $-1 $144 7 #
straight-curve $-1 -1 $-1 6.666172800883719773 -2.793089162381464874 -0.003622168584843730565 -386.4439498202558525 -922.3128935710049063 0 F -0.00191149808285845965 F 0.01725279441805993227 #
coedge $-1 -1 $-1 $312 $201 $145 $233 forward $288 $-1 #
edge $315 -1 $-1 $204 -0.0003799170729119335588 $147 -0.0003714614240294114231 $145 $316 forward @7 unknown #
DXID-attrib $-1 -1 $-1 $146 $83 @18 ASM_EDGE_FROM_STEP @3 688 #
point $-1 -1 $-1 7.404859670097390101 -1.030089834524850589 -0.003622168584843784775 #
DXID-attrib $-1 -1 $-1 $150 $89 @18 ASM_FACE_FROM_STEP @15 step-1M-530-324 #
color-adesk-attrib $-1 -1 $317 $-1 $151 7 #
plane-surface $-1 -1 $-1 -7.24353530859311423 -0.9837577671756575493 -0.360358290349532373 -0.8571220535388329731 0.5105203171792578321 -0.06863520295419954509 0.05896780256025165035 -0.03512249059761196612 -0.9976418239606016369 forward_v I I I I #
color-adesk-attrib $-1 -1 $318 $-1 $154 7 #
straight-curve $-1 -1 $-1 -0.05506893529834411272 -6.136467579040630227 -129.8661431801344008 9.309471452779526146 -1.418596181146027702 -3.364717840283333761 F 0 F 0.01126126030222017807 #
edge $319 -1 $-1 $211 -6.046248900733500981e-18 $159 0.1381226572305529754 $155 $320 forward @7 unknown #
coedge $-1 -1 $-1 $156 $206 $287 $321 forward $157 $-1 #
coedge $-1 -1 $-1 $322 $323 $156 $244 forward $324 $-1 #
edge $325 -1 $-1 $101 0 $326 0.0002840531885652442965 $243 $327 forward @7 unknown #
face $328 -1 $-1 $129 $157 $4 $-1 $329 forward single #
DXID-attrib $-1 -1 $-1 $158 $94 @18 ASM_EDGE_FROM_STEP @3 783 #
point $-1 -1 $-1 0.04976744600749399838 -6.152442759900250913 -129.9040341435773485 #
coedge $-1 -1 $-1 $184 $161 $275 $330 reversed $163 $-1 #
coedge $-1 -1 $-1 $331 $332 $161 $250 reversed $333 $-1 #
edge $334 -1 $-1 $101 0 $335 0.0002792642959030066209 $161 $336 forward @7 unknown #
edge $337 -1 $-1 $189 6.045428782198100905e-18 $165 0.1380812669105255797 $162 $338 forward @7 unknown #
DXID-attrib $-1 -1 $-1 $164 $96 @18 ASM_EDGE_FROM_STEP @3 628 #
point $-1 -1 $-1 -0.06108413691092301478 -6.150911278109729707 -129.8652111433100345 #
coedge $-1 -1 $-1 $186 $180 $167 $255 forward $187 $-1 #
edge $339 -1 $-1 $265 0.1287571067911180978 $165 0.1297635394692642219 $167 $340 forward @7 unknown #
DXID-attrib $-1 -1 $-1 $168 $98 @18 ASM_EDGE_FROM_STEP @3 510 #
coedge $-1 -1 $-1 $341 $310 $173 $258 forward $342 $-1 #
edge $343 -1 $-1 $223 -0.01731030208983396629 $260 0.001855474185359745534 $173 $344 forward @7 unknown #
color-adesk-attrib $-1 -1 $345 $-1 $175 7 #
vertex $-1 -1 $-1 $175 $346 #
straight-curve $-1 -1 $-1 -7.199414715115146635 -0.8612357127642698007 0 -509.8449390701730977 -859.7991567105386821 -28.34692618924026419 F -0 F 0.0001252941389410036101 #
color-adesk-attrib $-1 -1 $347 $-1 $176 7 #
straight-curve $-1 -1 $-1 -6.375256003381576164 -2.610341040754656561 0.003551703708505604684 -378.916563953428863 925.4308388862602897 0 F -0.01682777111379616525 F 0.002006452611010134997 #
color-adesk-attrib $-1 -1 $348 $-1 $181 7 #
vertex $-1 -1 $-1 $218 $349 #
straight-curve $-1 -1 $-1 -7.115280223532328918 -0.7686719738080592945 -0.3621736041820555196 55.24805869246651469 -41.36409720087721098 -997.6154887898796915 F -0.0003583184888580718554 F 0.1288071335010808893 #
color-adesk-attrib $-1 -1 $350 $-1 $182 7 #
face $351 -1 $-1 $-1 $187 $4 $-1 $352 forward single #
plane-surface $-1 -1 $-1 -6.367097207695290528 -2.607000431497279447 -0.2445165935385598954 0.9248469577349646142 0.3786774945056541331 0.03551703708505347251 -0.3789165639534286534 0.9254308388862603207 0 forward_v I I I I #
color-adesk-attrib $-1 -1 $353 $-1 $185 7 #
vertex $-1 -1 $-1 $185 $354 #
straight-curve $-1 -1 $-1 -46.97002802827378076 -5.138888888888892836 0 106.8226673958333777 -993.1620968693691793 47.09529777458992328 F -9.999999999999986927e-05 F 0.0001000000000000005062 #
DXID-attrib $-1 -1 $-1 $188 $116 @18 ASM_EDGE_FROM_STEP @2 44 #
point $-1 -1 $-1 -46.98071029501335261 -5.039572679201954841 -0.004709529777459009123 #
coedge $-1 -1 $-1 $355 $191 $248 $330 forward $277 $-1 #
coedge $-1 -1 $-1 $191 $355 $193 $280 reversed $277 $-1 #
loop $-1 -1 $-1 $-1 $275 $356 #
color-adesk-attrib $-1 -1 $357 $-1 $192 7 #
straight-curve $-1 -1 $-1 0.01992005469389586045 -0.1852026706675722056 0.004709529777458972694 -994.2653328289661658 -106.9413294031156028 0 F 0.007325683215530330063 F 0.04725023015995014758 #
edge $358 -1 $-1 $196 -0.0003659404091348093476 $260 -0.00035765942956021891 $193 $359 forward @7 unknown #
DXID-attrib $-1 -1 $-1 $195 $119 @18 ASM_EDGE_FROM_STEP @3 279 #
point $-1 -1 $-1 -7.263752805794938538 -0.9686209725224761424 0.004709529777458972694 #
DXID-attrib $-1 -1 $-1 $198 $120 @18 ASM_FACE_FROM_STEP @15 step-1M-530-407 #
color-adesk-attrib $-1 -1 $360 $-1 $199 7 #
face $361 -1 $-1 $362 $333 $4 $-1 $363 forward single #
plane-surface $-1 -1 $-1 -46.97002802827378076 -5.138888888888892836 0 0.9344125368494341499 0.116465754529377602 0.336613931679168199 0.339797187612028595 -0.008048438602666518893 -0.9404642969975069988 forward_v I I I I #
coedge $-1 -1 $-1 $201 $312 $242 $321 reversed $288 $-1 #
loop $-1 -1 $-1 $-1 $312 $214 #
color-adesk-attrib $-1 -1 $364 $-1 $202 7 #
vertex $-1 -1 $-1 $207 $365 #
straight-curve $-1 -1 $-1 -0.004162612388776629375 -0.03087788512987759207 0.004812958906209864954 -991.035292303758979 133.6003346118688171 0 F -0.04739958825422958127 F -0.007476523548961382104 #
DXID-attrib $-1 -1 $-1 $203 $125 @18 ASM_EDGE_FROM_STEP @3 919 #
point $-1 -1 $-1 7.405336088372104442 -1.029743933004634959 0.004812958906209864954 #
color-adesk-attrib $-1 -1 $366 $-1 $207 7 #
straight-curve $-1 -1 $-1 46.98384673873522388 -6.264490058228874503 0 -133.4455051578378857 -989.8867813087935019 48.12958906209856735 F -0.000100000000000000181 F 9.999999999999982861e-05 #
face $367 -1 $-1 $135 $209 $4 $-1 $368 forward single #
DXID-attrib $-1 -1 $-1 $210 $128 @18 ASM_EDGE_FROM_STEP @3 486 #
point $-1 -1 $-1 46.99719128925102751 -6.165501380097997419 -0.004812958906209848474 #
DXID-attrib $-1 -1 $-1 $213 $129 @18 ASM_FACE_FROM_STEP @14 step-1M-530-48 #
color-adesk-attrib $-1 -1 $369 $-1 $214 7 #
face $370 -1 $-1 $371 $229 $4 $-1 $372 reversed single #
plane-surface $-1 -1 $-1 -0.004183881956776536876 -0.03103566087648182426 0.001508994394571830334 0.1334455051578378459 0.9898867813087934842 -0.04812958906209856974 -0.9910352923037590855 0.1336003346118688206 0 forward_v I I I I #
DXID-attrib $-1 -1 $-1 $216 $133 @18 ASM_EDGE_FROM_STEP @3 649 #
color-adesk-attrib $-1 -1 $373 $-1 $218 7 #
straight-curve $-1 -1 $-1 0.001063848143761751686 -18.0243824928895009 -1.690548476536374967 2.430340831711485615e-15 93.38246705455571828 -995.6303103294942503 F -0.001701570750570518403 F 0.1277297559702291474 #
DXID-attrib $-1 -1 $-1 $219 $135 @18 ASM_FACE_FROM_STEP @15 step-1M-530-596 #
DXID-attrib $-1 -1 $-1 $222 $138 @18 ASM_EDGE_FROM_STEP @1 7 #
point $-1 -1 $-1 -0.001063851245621093115 -18.70556392249428868 -0.003586936408220725223 #
coedge $-1 -1 $-1 $228 $227 $322 $374 forward $229 $-1 #
coedge $-1 -1 $-1 $257 $375 $227 $311 reversed $342 $-1 #
edge $376 -1 $-1 $223 -0.001743200443871823716 $377 0.1286025077602214739 $227 $378 forward @7 unknown #
coedge $-1 -1 $-1 $287 $232 $228 $313 forward $288 $-1 #
edge $379 -1 $-1 $147 -0.0003714614240294114231 $326 0.1296857052801554666 $312 $380 forward @7 unknown #
DXID-attrib $-1 -1 $-1 $230 $144 @18 ASM_EDGE_FROM_STEP @2 30 #
color-adesk-attrib $-1 -1 $381 $-1 $233 7 #
straight-curve $-1 -1 $-1 7.383930346609936635 -1.045285483381383607 -0.3741820763138703487 -56.34319510333761372 -40.90774404431839173 -997.5730553913092535 F -0.0003799170729119335588 F -0.0003714614240294114231 #
DXID-attrib $-1 -1 $-1 $237 $151 @18 ASM_FACE_FROM_STEP @15 step-1M-530-554 #
DXID-attrib $-1 -1 $-1 $239 $154 @18 ASM_EDGE_FROM_STEP @3 645 #
color-adesk-attrib $-1 -1 $382 $-1 $241 7 #
straight-curve $-1 -1 $-1 46.9971912892510062 -6.165501380097993867 -0.004812958906209857148 -339.8966164173872357 0.09454365025679563328 -940.4628016086069238 F -6.046248900733500981e-18 F 0.1381226572305529754 #
edge $383 -1 $-1 $290 -6.045634110289830398e-18 $326 0.1379639471866317968 $242 $384 forward @7 unknown #
coedge $-1 -1 $-1 $323 $243 $309 $374 reversed $324 $-1 #
coedge $-1 -1 $-1 $243 $322 $331 $385 reversed $324 $-1 #
loop $-1 -1 $-1 $-1 $323 $362 #
color-adesk-attrib $-1 -1 $386 $-1 $244 7 #
vertex $-1 -1 $-1 $244 $387 #
straight-curve $-1 -1 $-1 0 -6.25142130685203945 -130 271.1582020439034295 -348.5749089350662189 897.2005140018745806 F 0 F 0.0002840531885652442965 #
color-adesk-attrib $-1 -1 $388 $-1 $245 7 #
plane-surface $-1 -1 $-1 46.98384673873522388 -6.264490058228874503 0 0.9309471452779588541 -0.1418596181145825308 -0.3364717840283249495 -0.3398966164173871651 9.454365025680229429e-05 -0.9404628016086069575 forward_v I I I I #
edge $389 -1 $-1 $271 3.033809919344204922e-18 $335 0.1379688500495074022 $248 $390 forward @7 unknown #
coedge $-1 -1 $-1 $332 $249 $323 $385 forward $333 $-1 #
coedge $-1 -1 $-1 $249 $331 $375 $391 reversed $333 $-1 #
loop $-1 -1 $-1 $-1 $249 $285 #
color-adesk-attrib $-1 -1 $392 $-1 $250 7 #
vertex $-1 -1 $-1 $250 $393 #
straight-curve $-1 -1 $-1 0 -6.25142130685203945 -130 -279.0136003385214849 -348.1204430856188878 894.9656797509101125 F 0 F 0.0002792642959030066209 #
color-adesk-attrib $-1 -1 $394 $-1 $251 7 #
straight-curve $-1 -1 $-1 -46.98071029501336682 -5.039572679201955729 -0.004709529777458990041 339.7971876120285515 -8.048438602666522002 -940.4642969975071765 F 6.045428782198100905e-18 F 0.1380812669105255797 #
color-adesk-attrib $-1 -1 $395 $-1 $255 7 #
straight-curve $-1 -1 $-1 7.951913340907513117 0.8435746323762310928 -0.53831829476218096 -61.75076227568833787 -53.9017811867152119 -996.6350592585388313 F 0.1287571067911180978 F 0.1297635394692642219 #
coedge $-1 -1 $-1 $375 $257 $355 $396 forward $342 $-1 #
loop $-1 -1 $-1 $-1 $341 $371 #
color-adesk-attrib $-1 -1 $397 $-1 $258 7 #
straight-curve $-1 -1 $-1 -6.560225394928568932 -2.686076539655787965 -0.003551703708505062583 -378.916563953428863 925.4308388862602897 0 F -0.01731030208983396629 F 0.001855474185359745534 #
DXID-attrib $-1 -1 $-1 $259 $175 @18 ASM_EDGE_FROM_STEP @3 810 #
point $-1 -1 $-1 -7.263295297749371215 -0.968963507766518295 -0.003551703708505062583 #
DXID-attrib $-1 -1 $-1 $262 $176 @18 ASM_EDGE_FROM_STEP @3 179 #
DXID-attrib $-1 -1 $-1 $264 $181 @18 ASM_EDGE_FROM_STEP @3 124 #
point $-1 -1 $-1 0.001063848143762062201 -6.096662764113141897 -128.8621650514861585 #
DXID-attrib $-1 -1 $-1 $267 $182 @18 ASM_FACE_FROM_STEP @15 step-1M-530-751 #
color-adesk-attrib $-1 -1 $398 $-1 $268 7 #
plane-surface $-1 -1 $-1 -0.001464967894776001735 0.01362024204872822573 -0.0006458657222912692454 -0.1068226673958333345 0.99316209686936896 -0.04709529777458991429 -0.9942653328289658976 -0.1069413294031155842 8.673617379884039324e-19 forward_v I I I I #
DXID-attrib $-1 -1 $-1 $270 $185 @18 ASM_EDGE_FROM_STEP @2 95 #
point $-1 -1 $-1 -46.9593457615341876 -5.238205098575829055 0.004709529777458972694 #
coedge $-1 -1 $-1 $276 $275 $341 $396 reversed $277 $-1 #
face $399 -1 $-1 $296 $277 $4 $-1 $400 reversed single #
DXID-attrib $-1 -1 $-1 $278 $192 @18 ASM_EDGE_FROM_STEP @3 812 #
color-adesk-attrib $-1 -1 $401 $-1 $280 7 #
straight-curve $-1 -1 $-1 -7.24353530859311423 -0.9837577671756575493 -0.360358290349532373 55.24805869246651469 -41.36409720087721098 -997.6154887898796915 F -0.0003659404091348093476 F -0.00035765942956021891 #
DXID-attrib $-1 -1 $-1 $284 $199 @18 ASM_FACE_FROM_STEP @15 step-1M-530-900 #
color-adesk-attrib $-1 -1 $402 $-1 $285 7 #
face $403 -1 $-1 $245 $324 $4 $-1 $404 forward single #
plane-surface $-1 -1 $-1 -9.484524522827411985 16.28473654947974225 -126.1202321761813181 -0.8713751711073536299 -0.29987592028480059 -0.3883036744752411673 0.2739102712882935386 -0.9539782138148356072 0.1220603574033336108 forward_v I I I I #
DXID-attrib $-1 -1 $-1 $289 $202 @18 ASM_EDGE_FROM_STEP @3 879 #
point $-1 -1 $-1 46.97050218821945577 -6.363478736359756027 0.004812958906209864954 #
DXID-attrib $-1 -1 $-1 $294 $207 @18 ASM_EDGE_FROM_STEP @3 832 #
color-adesk-attrib $-1 -1 $405 $-1 $296 7 #
plane-surface $-1 -1 $-1 0.02250521907479103439 0.166941695385276867 -0.008116923417847882877 0.1334455051578378459 0.9898867813087934842 -0.04812958906209856974 -0.9910352923037590855 0.1336003346118688206 0 forward_v I I I I #
DXID-attrib $-1 -1 $-1 $300 $214 @18 ASM_FACE_FROM_STEP @15 step-1M-530-178 #
color-adesk-attrib $-1 -1 $406 $-1 $301 7 #
face $407 -1 $-1 $356 $342 $4 $-1 $408 reversed single #
plane-surface $-1 -1 $-1 6.657547641017025342 -2.789475268582570333 -0.2616313300884780535 -0.921707652873126837 0.3861903573490779173 0.03622168584843758754 -0.3864439498202559276 -0.922312893571004988 -1.734723475976807865e-18 forward_v I I I I #
DXID-attrib $-1 -1 $-1 $304 $218 @18 ASM_EDGE_FROM_STEP @3 875 #
edge $409 -1 $-1 $377 -0.02813035523865421023 $326 -0.02792829587734936211 $322 $410 forward @7 unknown #
coedge $-1 -1 $-1 $310 $341 $332 $391 forward $342 $-1 #
color-adesk-attrib $-1 -1 $411 $-1 $311 7 #
vertex $-1 -1 $-1 $385 $412 #
straight-curve $-1 -1 $-1 -0.001063848143763486409 -18.54277957774143815 -1.739170136800356703 2.430340831711485615e-15 93.38246705455571828 -995.6303103294942503 F -0.001743200443871823716 F 0.1286025077602214739 #
color-adesk-attrib $-1 -1 $413 $-1 $313 7 #
straight-curve $-1 -1 $-1 7.383930346609936635 -1.045285483381383607 -0.3741820763138703487 -56.34319510333761372 -40.90774404431839173 -997.5730553913092535 F -0.0003714614240294114231 F 0.1296857052801554666 #
DXID-attrib $-1 -1 $-1 $315 $233 @18 ASM_EDGE_FROM_STEP @3 379 #
DXID-attrib $-1 -1 $-1 $319 $241 @18 ASM_EDGE_FROM_STEP @2 79 #
color-adesk-attrib $-1 -1 $414 $-1 $321 7 #
straight-curve $-1 -1 $-1 46.97050218821943446 -6.363478736359753363 0.004812958906209857148 -339.8966164173872357 0.09454365025679563328 -940.4628016086069238 F -6.045634110289830398e-18 F 0.1379639471866317968 #
edge $415 -1 $-1 $101 0 $377 0.0003579449570761229034 $331 $416 forward @7 unknown #
DXID-attrib $-1 -1 $-1 $325 $244 @18 ASM_EDGE_FROM_STEP @3 872 #
point $-1 -1 $-1 0.07702335189619519129 -6.350435121188891863 -129.7451473332153853 #
DXID-attrib $-1 -1 $-1 $328 $245 @18 ASM_FACE_FROM_STEP @15 step-1M-530-830 #
color-adesk-attrib $-1 -1 $417 $-1 $330 7 #
straight-curve $-1 -1 $-1 -46.95934576153419471 -5.238205098575829055 0.004709529777458990041 339.7971876120285515 -8.048438602666522002 -940.4642969975071765 F 3.033809919344204922e-18 F 0.1379688500495074022 #
edge $418 -1 $-1 $335 0.02477760338680568691 $377 0.0249800435647954816 $332 $419 forward @7 unknown #
DXID-attrib $-1 -1 $-1 $334 $250 @18 ASM_EDGE_FROM_STEP @3 375 #
point $-1 -1 $-1 -0.07791853664590453477 -6.348638917279792793 -129.7500680395870063 #
DXID-attrib $-1 -1 $-1 $337 $251 @18 ASM_EDGE_FROM_STEP @3 322 #
DXID-attrib $-1 -1 $-1 $339 $255 @18 ASM_EDGE_FROM_STEP @3 265 #
edge $420 -1 $-1 $260 -0.00035765942956021891 $335 0.1296989784172145055 $341 $421 forward @7 unknown #
DXID-attrib $-1 -1 $-1 $343 $258 @18 ASM_EDGE_FROM_STEP @3 459 #
DXID-attrib $-1 -1 $-1 $351 $268 @18 ASM_FACE_FROM_STEP @15 step-1M-530-484 #
color-adesk-attrib $-1 -1 $422 $-1 $356 7 #
plane-surface $-1 -1 $-1 0.0198995655843906688 -0.185012177325145577 0.008773193832626712679 -0.1068226673958333345 0.99316209686936896 -0.04709529777458991429 -0.9942653328289658976 -0.1069413294031155842 8.673617379884039324e-19 forward_v I I I I #
DXID-attrib $-1 -1 $-1 $358 $280 @18 ASM_EDGE_FROM_STEP @3 583 #
DXID-attrib $-1 -1 $-1 $361 $285 @18 ASM_FACE_FROM_STEP @15 step-1M-530-760 #
color-adesk-attrib $-1 -1 $423 $-1 $362 7 #
plane-surface $-1 -1 $-1 10.87010125170950481 18.96078777206196619 -124.965903071880291 0.8742274813988009097 -0.3008262977816096306 -0.3810903427405628596 -0.2757643091615249453 -0.9536789494179949145 0.1202102625804325753 forward_v I I I I #
DXID-attrib $-1 -1 $-1 $367 $296 @18 ASM_FACE_FROM_STEP @15 step-1M-530-687 #
DXID-attrib $-1 -1 $-1 $370 $301 @18 ASM_FACE_FROM_STEP @15 step-1M-530-256 #
color-adesk-attrib $-1 -1 $424 $-1 $371 7 #
plane-surface $-1 -1 $-1 -6.552066599242283296 -2.682735930398409963 -0.2516200009555705774 0.9248469577349646142 0.3786774945056541331 0.03551703708505347251 -0.3789165639534286534 0.9254308388862603207 0 forward_v I I I I #
color-adesk-attrib $-1 -1 $425 $-1 $374 7 #
straight-curve $-1 -1 $-1 10.87010125170950481 18.96078777206196619 -124.965903071880291 386.4567300207814924 906.293137411902535 171.1255238172702491 F -0.02813035523865421023 F -0.02792829587734936211 #
DXID-attrib $-1 -1 $-1 $376 $311 @18 ASM_EDGE_FROM_STEP @3 693 #
point $-1 -1 $-1 -0.001063848143761751686 -6.533560133689311655 -129.7797248472608658 #
DXID-attrib $-1 -1 $-1 $379 $313 @18 ASM_EDGE_FROM_STEP @3 451 #
DXID-attrib $-1 -1 $-1 $383 $321 @18 ASM_EDGE_FROM_STEP @3 828 #
color-adesk-attrib $-1 -1 $426 $-1 $385 7 #
straight-curve $-1 -1 $-1 0 -6.25142130685203945 -130 -2.972099823536442198 -788.2184711915271009 615.388339420833745 F 0 F 0.0003579449570761229034 #
DXID-attrib $-1 -1 $-1 $389 $330 @18 ASM_EDGE_FROM_STEP @3 327 #
color-adesk-attrib $-1 -1 $427 $-1 $391 7 #
straight-curve $-1 -1 $-1 -9.484524522827411985 16.28473654947974225 -126.1202321761813181 379.641478610099341 -913.4610443725175628 -146.4966488784213823 F 0.02477760338680568691 F 0.0249800435647954816 #
color-adesk-attrib $-1 -1 $428 $-1 $396 7 #
straight-curve $-1 -1 $-1 -7.24353530859311423 -0.9837577671756575493 -0.360358290349532373 55.24805869246651469 -41.36409720087721098 -997.6154887898796915 F -0.00035765942956021891 F 0.1296989784172145055 #
DXID-attrib $-1 -1 $-1 $399 $356 @18 ASM_FACE_FROM_STEP @15 step-1M-530-118 #
DXID-attrib $-1 -1 $-1 $403 $362 @18 ASM_FACE_FROM_STEP @14 step-1M-530-54 #
DXID-attrib $-1 -1 $-1 $407 $371 @18 ASM_FACE_FROM_STEP @15 step-1M-530-114 #
DXID-attrib $-1 -1 $-1 $409 $374 @18 ASM_EDGE_FROM_STEP @3 505 #
DXID-attrib $-1 -1 $-1 $415 $385 @18 ASM_EDGE_FROM_STEP @3 233 #
DXID-attrib $-1 -1 $-1 $418 $391 @18 ASM_EDGE_FROM_STEP @3 536 #
DXID-attrib $-1 -1 $-1 $420 $396 @18 ASM_EDGE_FROM_STEP @3 556 #
