700 572 1 0         
5 ZWCAD 12 ACIS 28.0 NT 24 Mon May 13 09:35:57 2024 
1 9.9999999999999995e-07 1e-10 
body $1 -1 $-1 $2 $-1 $-1 #
DXID-attrib $-1 -1 $-1 $-1 $0 @18 ASM_BODY_FROM_STEP @83 CD6BF7359768857912CB82B6F89F6ABDB29C59DB|:|02EF4A427734DEEC790894D0B2CAED06FB79B00F #
lump $-1 -1 $-1 $-1 $3 $0 #
shell $-1 -1 $-1 $-1 $-1 $4 $-1 $2 #
face $5 -1 $-1 $6 $7 $3 $-1 $8 reversed single #
truecolor-adesk-attrib $-1 -1 $9 $-1 $4 -1056964608 #
face $10 -1 $-1 $11 $12 $3 $-1 $13 reversed single #
loop $-1 -1 $-1 $-1 $14 $4 #
cone-surface $-1 -1 $-1 -171.64828771397632 -212.49770708250384 -80.001548590984939 -9.3858736284186117e-17 1 0 -4.2499999999999991 -3.9889962920779092e-16 0 1 I I 0 1 4.2499999999999991 forward I I I I #
DXID-attrib $-1 -1 $-1 $5 $4 @18 ASM_FACE_FROM_STEP @17 step-2M-555-19889 #
truecolor-adesk-attrib $-1 -1 $15 $-1 $6 -1056964608 #
face $16 -1 $-1 $17 $18 $3 $-1 $19 reversed single #
loop $-1 -1 $-1 $-1 $20 $6 #
cone-surface $-1 -1 $-1 -164.14828771397632 -212.49770708250384 -92.001548590984925 -9.3858736284186117e-17 1 0 -3.4999999999999956 -3.2850557699465102e-16 0 1 I I 0 1 3.4999999999999956 forward I I I I #
coedge $-1 -1 $-1 $21 $22 $23 $24 reversed $7 $-1 #
DXID-attrib $-1 -1 $-1 $10 $6 @18 ASM_FACE_FROM_STEP @17 step-2M-555-22022 #
truecolor-adesk-attrib $-1 -1 $25 $-1 $11 -1056964608 #
face $26 -1 $-1 $27 $28 $3 $-1 $29 reversed single #
loop $-1 -1 $-1 $-1 $30 $11 #
cone-surface $-1 -1 $-1 -164.14828771397632 -212.49770708250384 -92.001548590984925 -9.3858736284186117e-17 1 0 -2.2499999999999987 -2.1118215663941864e-16 0 1 I I 0 1 2.2499999999999987 forward I I I I #
coedge $-1 -1 $-1 $31 $32 $33 $34 reversed $12 $-1 #
coedge $-1 -1 $-1 $35 $14 $36 $37 forward $7 $-1 #
coedge $-1 -1 $-1 $14 $35 $38 $39 reversed $7 $-1 #
coedge $-1 -1 $-1 $40 $40 $14 $24 forward $41 $-1 #
edge $42 -1 $-1 $43 -3.1415926535897931 $44 0 $14 $45 forward @7 unknown #
DXID-attrib $-1 -1 $-1 $16 $11 @18 ASM_FACE_FROM_STEP @17 step-2M-555-38614 #
truecolor-adesk-attrib $-1 -1 $46 $-1 $17 -1056964608 #
face $47 -1 $-1 $48 $49 $3 $-1 $50 reversed single #
loop $-1 -1 $-1 $-1 $51 $17 #
cone-surface $-1 -1 $-1 -179.14828771397632 -212.49770708250384 -92.001548590984925 -9.3858736284186117e-17 1 0 -3.4999999999999956 -3.2850557699465102e-16 0 1 I I 0 1 3.4999999999999956 forward I I I I #
coedge $-1 -1 $-1 $52 $53 $54 $55 reversed $18 $-1 #
coedge $-1 -1 $-1 $56 $20 $57 $58 forward $12 $-1 #
coedge $-1 -1 $-1 $20 $56 $59 $60 reversed $12 $-1 #
coedge $-1 -1 $-1 $61 $61 $20 $34 forward $62 $-1 #
edge $63 -1 $-1 $64 -3.1415926535897931 $65 0 $20 $66 forward @7 unknown #
coedge $-1 -1 $-1 $22 $21 $67 $68 forward $7 $-1 #
coedge $-1 -1 $-1 $69 $70 $21 $37 reversed $71 $-1 #
edge $72 -1 $-1 $43 -0.01 $73 0 $21 $74 forward @7 unknown #
coedge $-1 -1 $-1 $70 $69 $22 $39 forward $71 $-1 #
edge $75 -1 $-1 $44 -0.01 $76 0 $22 $77 forward @7 unknown #
coedge $-1 -1 $-1 $23 $23 $69 $78 forward $41 $-1 #
loop $-1 -1 $-1 $-1 $40 $48 #
truecolor-adesk-attrib $-1 -1 $79 $-1 $24 -1056964608 #
vertex $-1 -1 $-1 $24 $80 #
vertex $-1 -1 $-1 $24 $81 #
ellipse-curve $-1 -1 $-1 -171.64828771397632 -222.49770708250384 -80.001548590984939 -9.3858736284186117e-17 1 0 -4.2499999999999982 -3.9889962920779082e-16 0 1 F -3.1415926535897931 F 0 #
DXID-attrib $-1 -1 $-1 $26 $17 @18 ASM_FACE_FROM_STEP @17 step-2M-555-14079 #
truecolor-adesk-attrib $-1 -1 $82 $-1 $27 -1056964608 #
face $83 -1 $-1 $84 $85 $3 $-1 $86 reversed single #
loop $-1 -1 $-1 $-1 $87 $27 #
cone-surface $-1 -1 $-1 -179.14828771397632 -212.49770708250384 -92.001548590984925 -9.3858736284186117e-17 1 0 -2.2499999999999978 -2.1118215663941857e-16 0 1 I I 0 1 2.2499999999999978 forward I I I I #
coedge $-1 -1 $-1 $88 $89 $90 $91 reversed $28 $-1 #
coedge $-1 -1 $-1 $92 $30 $93 $94 forward $18 $-1 #
coedge $-1 -1 $-1 $30 $92 $95 $96 reversed $18 $-1 #
coedge $-1 -1 $-1 $97 $97 $30 $55 forward $98 $-1 #
edge $99 -1 $-1 $100 -3.1415926535897931 $101 0 $30 $102 forward @7 unknown #
coedge $-1 -1 $-1 $32 $31 $103 $104 forward $12 $-1 #
coedge $-1 -1 $-1 $105 $106 $31 $58 reversed $107 $-1 #
edge $108 -1 $-1 $64 -0.0059999999999999984 $109 0 $31 $110 forward @7 unknown #
coedge $-1 -1 $-1 $106 $105 $32 $60 forward $107 $-1 #
edge $111 -1 $-1 $65 -0.0059999999999999984 $112 0 $32 $113 forward @7 unknown #
coedge $-1 -1 $-1 $33 $33 $105 $114 forward $62 $-1 #
loop $-1 -1 $-1 $115 $61 $116 #
truecolor-adesk-attrib $-1 -1 $117 $-1 $34 -1056964608 #
vertex $-1 -1 $-1 $34 $118 #
vertex $-1 -1 $-1 $34 $119 #
ellipse-curve $-1 -1 $-1 -164.14828771397632 -218.49770708250384 -92.001548590984925 -9.3858736284186117e-17 1 0 -3.4999999999999956 -3.2850557699465102e-16 0 1 F -3.1415926535897931 F 0 #
coedge $-1 -1 $-1 $120 $120 $35 $68 reversed $121 $-1 #
edge $122 -1 $-1 $73 -3.1415926535897931 $76 0 $35 $123 forward @7 unknown #
coedge $-1 -1 $-1 $38 $36 $40 $78 reversed $71 $-1 #
coedge $-1 -1 $-1 $36 $38 $120 $124 forward $71 $-1 #
loop $-1 -1 $-1 $-1 $36 $125 #
truecolor-adesk-attrib $-1 -1 $126 $-1 $37 -1056964608 #
vertex $-1 -1 $-1 $37 $127 #
straight-curve $-1 -1 $-1 -167.39828771397632 -212.49770708250384 -80.001548590984939 -9.3858736284186123e-14 1000 0 F -0.01 F 0 #
truecolor-adesk-attrib $-1 -1 $128 $-1 $39 -1056964608 #
vertex $-1 -1 $-1 $68 $129 #
straight-curve $-1 -1 $-1 -175.89828771397632 -212.49770708250384 -80.001548590984939 -9.3858736284186123e-14 1000 0 F -0.01 F 0 #
edge $130 -1 $-1 $44 0 $43 3.1415926535897931 $40 $131 forward @7 unknown #
DXID-attrib $-1 -1 $-1 $42 $24 @18 ASM_EDGE_FROM_STEP @5 22939 #
point $-1 -1 $-1 -167.39828771397632 -222.49770708250384 -80.001548590984939 #
point $-1 -1 $-1 -175.89828771397632 -222.49770708250384 -80.001548590984939 #
DXID-attrib $-1 -1 $-1 $47 $27 @18 ASM_FACE_FROM_STEP @17 step-2M-555-37061 #
truecolor-adesk-attrib $-1 -1 $132 $-1 $48 -1056964608 #
face $133 -1 $-1 $134 $135 $3 $-1 $136 reversed single #
loop $-1 -1 $-1 $41 $137 $48 #
plane-surface $-1 -1 $-1 -171.64828771397632 -222.49770708250384 -84.001548590984925 -9.3858736284186117e-17 1 0 -1 -9.3858736284186117e-17 0 forward_v I I I I #
coedge $-1 -1 $-1 $138 $139 $140 $141 reversed $49 $-1 #
coedge $-1 -1 $-1 $142 $51 $143 $144 forward $28 $-1 #
coedge $-1 -1 $-1 $51 $142 $145 $146 reversed $28 $-1 #
coedge $-1 -1 $-1 $147 $147 $51 $91 forward $148 $-1 #
edge $149 -1 $-1 $150 -3.1415926535897931 $151 0 $51 $152 forward @7 unknown #
coedge $-1 -1 $-1 $53 $52 $153 $154 forward $18 $-1 #
coedge $-1 -1 $-1 $155 $156 $52 $94 reversed $157 $-1 #
edge $158 -1 $-1 $100 -0.0080000000000000002 $159 -0.0059999999999999984 $52 $160 forward @7 unknown #
coedge $-1 -1 $-1 $156 $155 $53 $96 forward $157 $-1 #
edge $161 -1 $-1 $101 -0.0080000000000000002 $162 -0.0059999999999999984 $53 $163 forward @7 unknown #
coedge $-1 -1 $-1 $54 $54 $155 $164 forward $98 $-1 #
loop $-1 -1 $-1 $165 $97 $166 #
truecolor-adesk-attrib $-1 -1 $167 $-1 $55 -1056964608 #
vertex $-1 -1 $-1 $55 $168 #
vertex $-1 -1 $-1 $55 $169 #
ellipse-curve $-1 -1 $-1 -164.14828771397632 -220.49770708250384 -92.001548590984925 -9.3858736284186117e-17 1 0 -2.2499999999999987 -2.1118215663941864e-16 0 1 F -3.1415926535897931 F 0 #
coedge $-1 -1 $-1 $170 $170 $56 $104 reversed $171 $-1 #
edge $172 -1 $-1 $109 -3.1415926535897931 $112 0 $56 $173 forward @7 unknown #
coedge $-1 -1 $-1 $59 $57 $61 $114 reversed $107 $-1 #
coedge $-1 -1 $-1 $57 $59 $170 $174 forward $107 $-1 #
loop $-1 -1 $-1 $-1 $57 $175 #
truecolor-adesk-attrib $-1 -1 $176 $-1 $58 -1056964608 #
vertex $-1 -1 $-1 $58 $177 #
straight-curve $-1 -1 $-1 -160.64828771397632 -212.49770708250384 -92.001548590984925 -9.3858736284186123e-14 1000 0 F -0.0059999999999999984 F 0 #
truecolor-adesk-attrib $-1 -1 $178 $-1 $60 -1056964608 #
vertex $-1 -1 $-1 $104 $179 #
straight-curve $-1 -1 $-1 -167.64828771397632 -212.49770708250384 -92.001548590984925 -9.3858736284186123e-14 1000 0 F -0.0059999999999999984 F 0 #
edge $180 -1 $-1 $65 0 $64 3.1415926535897931 $61 $181 forward @7 unknown #
loop $-1 -1 $-1 $-1 $182 $116 #
face $183 -1 $-1 $175 $62 $3 $-1 $184 reversed single #
DXID-attrib $-1 -1 $-1 $63 $34 @18 ASM_EDGE_FROM_STEP @5 15010 #
point $-1 -1 $-1 -160.64828771397632 -218.49770708250384 -92.001548590984925 #
point $-1 -1 $-1 -167.64828771397632 -218.49770708250384 -92.001548590984925 #
coedge $-1 -1 $-1 $67 $67 $70 $124 reversed $121 $-1 #
loop $-1 -1 $-1 $171 $120 $185 #
truecolor-adesk-attrib $-1 -1 $186 $-1 $68 -1056964608 #
ellipse-curve $-1 -1 $-1 -171.64828771397632 -212.49770708250384 -80.001548590984939 -9.3858736284186117e-17 1 0 -4.25 -3.9889962920779097e-16 0 1 F -3.1415926535897931 F 0 #
edge $187 -1 $-1 $76 0 $73 3.1415926535897931 $120 $188 forward @7 unknown #
face $189 -1 $-1 $-1 $71 $3 $-1 $190 reversed single #
DXID-attrib $-1 -1 $-1 $72 $37 @18 ASM_EDGE_FROM_STEP @5 26953 #
point $-1 -1 $-1 -167.39828771397632 -212.49770708250384 -80.001548590984939 #
DXID-attrib $-1 -1 $-1 $75 $39 @18 ASM_EDGE_FROM_STEP @5 17004 #
point $-1 -1 $-1 -175.89828771397632 -212.49770708250384 -80.001548590984939 #
truecolor-adesk-attrib $-1 -1 $191 $-1 $78 -1056964608 #
ellipse-curve $-1 -1 $-1 -171.64828771397632 -222.49770708250384 -80.001548590984939 -9.3858736284186117e-17 1 0 -4.2499999999999982 -3.9889962920779082e-16 0 1 F 0 F 3.1415926535897931 #
DXID-attrib $-1 -1 $-1 $83 $48 @18 ASM_FACE_FROM_STEP @17 step-2M-555-20096 #
truecolor-adesk-attrib $-1 -1 $192 $-1 $84 -1056964608 #
face $193 -1 $-1 $194 $195 $3 $-1 $196 reversed single #
loop $-1 -1 $-1 $-1 $197 $84 #
plane-surface $-1 -1 $-1 -184.14828771397632 -212.49770708250384 -69.001548590984925 1 9.3858736284186117e-17 -1.1564823173178715e-16 -1.1564823173178717e-16 -1.0854596883846258e-32 -1 forward_v I I I I #
coedge $-1 -1 $-1 $198 $199 $200 $201 reversed $85 $-1 #
coedge $-1 -1 $-1 $202 $87 $203 $204 forward $49 $-1 #
coedge $-1 -1 $-1 $87 $202 $205 $206 reversed $49 $-1 #
coedge $-1 -1 $-1 $207 $207 $87 $141 forward $165 $-1 #
edge $208 -1 $-1 $209 -3.1415926535897931 $210 0 $87 $211 forward @7 unknown #
coedge $-1 -1 $-1 $89 $88 $212 $213 forward $28 $-1 #
coedge $-1 -1 $-1 $214 $215 $88 $144 reversed $216 $-1 #
edge $217 -1 $-1 $150 -0.0059999999999999984 $218 0 $88 $219 forward @7 unknown #
coedge $-1 -1 $-1 $215 $214 $89 $146 forward $216 $-1 #
edge $220 -1 $-1 $151 -0.0059999999999999984 $221 0 $89 $222 forward @7 unknown #
coedge $-1 -1 $-1 $90 $90 $214 $223 forward $148 $-1 #
loop $-1 -1 $-1 $224 $147 $225 #
truecolor-adesk-attrib $-1 -1 $226 $-1 $91 -1056964608 #
vertex $-1 -1 $-1 $91 $227 #
vertex $-1 -1 $-1 $91 $228 #
ellipse-curve $-1 -1 $-1 -179.14828771397632 -218.49770708250384 -92.001548590984925 -9.3858736284186117e-17 1 0 -3.4999999999999956 -3.2850557699465102e-16 0 1 F -3.1415926535897931 F 0 #
coedge $-1 -1 $-1 $182 $182 $92 $154 reversed $115 $-1 #
edge $229 -1 $-1 $159 -3.1415926535897931 $162 0 $92 $230 forward @7 unknown #
coedge $-1 -1 $-1 $95 $93 $97 $164 reversed $157 $-1 #
coedge $-1 -1 $-1 $93 $95 $182 $231 forward $157 $-1 #
loop $-1 -1 $-1 $-1 $93 $232 #
truecolor-adesk-attrib $-1 -1 $233 $-1 $94 -1056964608 #
vertex $-1 -1 $-1 $94 $234 #
straight-curve $-1 -1 $-1 -161.89828771397632 -212.49770708250384 -92.001548590984925 -9.3858736284186123e-14 1000 0 F -0.0080000000000000002 F -0.0059999999999999984 #
truecolor-adesk-attrib $-1 -1 $235 $-1 $96 -1056964608 #
vertex $-1 -1 $-1 $154 $236 #
straight-curve $-1 -1 $-1 -166.39828771397632 -212.49770708250384 -92.001548590984925 -9.3858736284186123e-14 1000 0 F -0.0080000000000000002 F -0.0059999999999999984 #
edge $237 -1 $-1 $101 0 $100 3.1415926535897931 $97 $238 forward @7 unknown #
loop $-1 -1 $-1 $-1 $207 $166 #
face $239 -1 $-1 $240 $241 $3 $-1 $242 reversed single #
DXID-attrib $-1 -1 $-1 $99 $55 @18 ASM_EDGE_FROM_STEP @3 929 #
point $-1 -1 $-1 -161.89828771397632 -220.49770708250384 -92.001548590984925 #
point $-1 -1 $-1 -166.39828771397632 -220.49770708250384 -92.001548590984925 #
coedge $-1 -1 $-1 $103 $103 $106 $174 reversed $171 $-1 #
loop $-1 -1 $-1 $243 $170 $185 #
truecolor-adesk-attrib $-1 -1 $244 $-1 $104 -1056964608 #
ellipse-curve $-1 -1 $-1 -164.14828771397632 -212.49770708250384 -92.001548590984925 -9.3858736284186117e-17 1 0 -3.4999999999999964 -3.2850557699465106e-16 0 1 F -3.1415926535897931 F 0 #
edge $245 -1 $-1 $112 0 $109 3.1415926535897931 $170 $246 forward @7 unknown #
face $247 -1 $-1 $125 $107 $3 $-1 $248 reversed single #
DXID-attrib $-1 -1 $-1 $108 $58 @18 ASM_EDGE_FROM_STEP @5 11000 #
point $-1 -1 $-1 -160.64828771397632 -212.49770708250384 -92.001548590984925 #
DXID-attrib $-1 -1 $-1 $111 $60 @18 ASM_EDGE_FROM_STEP @4 4974 #
point $-1 -1 $-1 -167.64828771397632 -212.49770708250384 -92.001548590984925 #
truecolor-adesk-attrib $-1 -1 $249 $-1 $114 -1056964608 #
ellipse-curve $-1 -1 $-1 -164.14828771397632 -218.49770708250384 -92.001548590984925 -9.3858736284186117e-17 1 0 -3.4999999999999956 -3.2850557699465102e-16 0 1 F 0 F 3.1415926535897931 #
coedge $-1 -1 $-1 $153 $153 $156 $231 reversed $115 $-1 #
truecolor-adesk-attrib $-1 -1 $250 $-1 $116 -1056964608 #
plane-surface $-1 -1 $-1 -166.39828771397632 -218.49770708250384 -92.001548590984925 9.3858736284186117e-17 -1 0 1 9.3858736284186117e-17 0 forward_v I I I I #
face $251 -1 $-1 $252 $253 $3 $-1 $254 forward single #
DXID-attrib $-1 -1 $-1 $122 $68 @18 ASM_EDGE_FROM_STEP @5 20928 #
truecolor-adesk-attrib $-1 -1 $255 $-1 $124 -1056964608 #
ellipse-curve $-1 -1 $-1 -171.64828771397632 -212.49770708250384 -80.001548590984939 -9.3858736284186117e-17 1 0 -4.25 -3.9889962920779097e-16 0 1 F 0 F 3.1415926535897931 #
truecolor-adesk-attrib $-1 -1 $256 $-1 $125 -1056964608 #
cone-surface $-1 -1 $-1 -171.64828771397632 -212.49770708250384 -80.001548590984939 -9.3858736284186117e-17 1 0 -4.2499999999999991 -3.9889962920779092e-16 0 1 I I 0 1 4.2499999999999991 forward I I I I #
DXID-attrib $-1 -1 $-1 $130 $78 @18 ASM_EDGE_FROM_STEP @5 26446 #
DXID-attrib $-1 -1 $-1 $133 $84 @18 ASM_FACE_FROM_STEP @16 step-2M-555-9338 #
truecolor-adesk-attrib $-1 -1 $257 $-1 $134 -1056964608 #
face $258 -1 $-1 $259 $260 $3 $-1 $261 reversed single #
loop $-1 -1 $-1 $-1 $262 $134 #
plane-surface $-1 -1 $-1 -159.14828771397632 -212.49770708250384 -69.001548590984925 -0 0 -1 9.3858736284186117e-17 -1 0 forward_v I I I I #
coedge $-1 -1 $-1 $263 $264 $265 $266 reversed $135 $-1 #
coedge $-1 -1 $-1 $267 $137 $268 $269 forward $85 $-1 #
coedge $-1 -1 $-1 $137 $270 $271 $272 forward $85 $-1 #
coedge $-1 -1 $-1 $273 $263 $137 $201 forward $135 $-1 #
edge $274 -1 $-1 $275 -0.018500000000000003 $276 -0.0020000000000000039 $137 $277 forward @7 unknown #
coedge $-1 -1 $-1 $139 $138 $278 $279 forward $49 $-1 #
coedge $-1 -1 $-1 $280 $281 $138 $204 reversed $282 $-1 #
edge $283 -1 $-1 $209 -0.0080000000000000002 $284 -0.0059999999999999984 $138 $285 forward @7 unknown #
coedge $-1 -1 $-1 $281 $280 $139 $206 forward $282 $-1 #
edge $286 -1 $-1 $210 -0.0080000000000000002 $287 -0.0059999999999999984 $139 $288 forward @7 unknown #
coedge $-1 -1 $-1 $140 $140 $280 $289 forward $165 $-1 #
truecolor-adesk-attrib $-1 -1 $290 $-1 $141 -1056964608 #
vertex $-1 -1 $-1 $141 $291 #
vertex $-1 -1 $-1 $141 $292 #
ellipse-curve $-1 -1 $-1 -179.14828771397632 -220.49770708250384 -92.001548590984925 -9.3858736284186117e-17 1 0 -2.2499999999999978 -2.1118215663941857e-16 0 1 F -3.1415926535897931 F 0 #
coedge $-1 -1 $-1 $293 $293 $142 $213 reversed $243 $-1 #
edge $294 -1 $-1 $218 -3.1415926535897931 $221 0 $142 $295 forward @7 unknown #
coedge $-1 -1 $-1 $145 $143 $147 $223 reversed $216 $-1 #
coedge $-1 -1 $-1 $143 $145 $293 $296 forward $216 $-1 #
loop $-1 -1 $-1 $-1 $143 $297 #
truecolor-adesk-attrib $-1 -1 $298 $-1 $144 -1056964608 #
vertex $-1 -1 $-1 $144 $299 #
straight-curve $-1 -1 $-1 -175.64828771397632 -212.49770708250384 -92.001548590984925 -9.3858736284186123e-14 1000 0 F -0.0059999999999999984 F 0 #
truecolor-adesk-attrib $-1 -1 $300 $-1 $146 -1056964608 #
vertex $-1 -1 $-1 $213 $301 #
straight-curve $-1 -1 $-1 -182.64828771397632 -212.49770708250384 -92.001548590984925 -9.3858736284186123e-14 1000 0 F -0.0059999999999999984 F 0 #
edge $302 -1 $-1 $151 0 $150 3.1415926535897931 $147 $303 forward @7 unknown #
loop $-1 -1 $-1 $-1 $304 $225 #
face $305 -1 $-1 $297 $148 $3 $-1 $306 reversed single #
DXID-attrib $-1 -1 $-1 $149 $91 @18 ASM_EDGE_FROM_STEP @5 21697 #
point $-1 -1 $-1 -175.64828771397632 -218.49770708250384 -92.001548590984925 #
point $-1 -1 $-1 -182.64828771397632 -218.49770708250384 -92.001548590984925 #
truecolor-adesk-attrib $-1 -1 $307 $-1 $154 -1056964608 #
ellipse-curve $-1 -1 $-1 -164.14828771397632 -218.49770708250384 -92.001548590984925 -9.3858736284186117e-17 1 0 -2.25 -2.1118215663941876e-16 0 1 F -3.1415926535897931 F 0 #
edge $308 -1 $-1 $162 0 $159 3.1415926535897931 $156 $309 forward @7 unknown #
face $310 -1 $-1 $116 $157 $3 $-1 $311 reversed single #
DXID-attrib $-1 -1 $-1 $158 $94 @18 ASM_EDGE_FROM_STEP @5 31691 #
point $-1 -1 $-1 -161.89828771397632 -218.49770708250384 -92.001548590984925 #
DXID-attrib $-1 -1 $-1 $161 $96 @18 ASM_EDGE_FROM_STEP @5 27704 #
point $-1 -1 $-1 -166.39828771397632 -218.49770708250384 -92.001548590984925 #
truecolor-adesk-attrib $-1 -1 $312 $-1 $164 -1056964608 #
ellipse-curve $-1 -1 $-1 -164.14828771397632 -220.49770708250384 -92.001548590984925 -9.3858736284186117e-17 1 0 -2.2499999999999987 -2.1118215663941864e-16 0 1 F 0 F 3.1415926535897931 #
truecolor-adesk-attrib $-1 -1 $313 $-1 $166 -1056964608 #
face $314 -1 $-1 $225 $282 $3 $-1 $315 reversed single #
loop $-1 -1 $-1 $98 $265 $166 #
plane-surface $-1 -1 $-1 -159.14828771397632 -220.49770708250384 -87.501548590984925 -9.3858736284186117e-17 1 0 -1 -9.3858736284186117e-17 0 forward_v I I I I #
loop $-1 -1 $-1 $-1 $293 $185 #
DXID-attrib $-1 -1 $-1 $172 $104 @18 ASM_EDGE_FROM_STEP @4 6984 #
truecolor-adesk-attrib $-1 -1 $316 $-1 $174 -1056964608 #
ellipse-curve $-1 -1 $-1 -164.14828771397632 -212.49770708250384 -92.001548590984925 -9.3858736284186117e-17 1 0 -3.4999999999999964 -3.2850557699465106e-16 0 1 F 0 F 3.1415926535897931 #
truecolor-adesk-attrib $-1 -1 $317 $-1 $175 -1056964608 #
cone-surface $-1 -1 $-1 -164.14828771397632 -212.49770708250384 -92.001548590984925 -9.3858736284186117e-17 1 0 -3.4999999999999956 -3.2850557699465102e-16 0 1 I I 0 1 3.4999999999999956 forward I I I I #
DXID-attrib $-1 -1 $-1 $180 $114 @18 ASM_EDGE_FROM_STEP @5 33374 #
DXID-attrib $-1 -1 $-1 $183 $116 @18 ASM_FACE_FROM_STEP @17 step-2M-555-18904 #
truecolor-adesk-attrib $-1 -1 $318 $-1 $185 -1056964608 #
face $319 -1 $-1 $320 $321 $3 $-1 $322 reversed single #
loop $-1 -1 $-1 $121 $323 $185 #
plane-surface $-1 -1 $-1 -171.64828771397632 -212.49770708250384 -84.001548590984925 -9.3858736284186117e-17 1 0 -1 -9.3858736284186117e-17 0 forward_v I I I I #
DXID-attrib $-1 -1 $-1 $187 $124 @18 ASM_EDGE_FROM_STEP @4 3935 #
DXID-attrib $-1 -1 $-1 $189 $125 @18 ASM_FACE_FROM_STEP @17 step-2M-555-20829 #
DXID-attrib $-1 -1 $-1 $193 $134 @18 ASM_FACE_FROM_STEP @17 step-2M-555-26949 #
truecolor-adesk-attrib $-1 -1 $324 $-1 $194 -1056964608 #
face $325 -1 $-1 $185 $326 $3 $-1 $327 reversed single #
loop $-1 -1 $-1 $-1 $328 $194 #
plane-surface $-1 -1 $-1 -159.14828771397632 -212.49770708250384 -69.001548590984925 -1 -9.3858736284186117e-17 1.1564823173178715e-16 1.1564823173178717e-16 1.0854596883846258e-32 1 forward_v I I I I #
coedge $-1 -1 $-1 $329 $330 $270 $331 forward $195 $-1 #
coedge $-1 -1 $-1 $200 $197 $332 $333 reversed $135 $-1 #
coedge $-1 -1 $-1 $197 $334 $335 $336 reversed $135 $-1 #
coedge $-1 -1 $-1 $337 $338 $197 $266 forward $241 $-1 #
edge $339 -1 $-1 $340 0 $341 0.01 $197 $342 forward @7 unknown #
coedge $-1 -1 $-1 $343 $198 $328 $344 reversed $85 $-1 #
coedge $-1 -1 $-1 $332 $345 $198 $269 reversed $346 $-1 #
edge $347 -1 $-1 $275 -0.012500000000000001 $348 0.012500000000000002 $198 $349 forward @7 unknown #
coedge $-1 -1 $-1 $199 $343 $262 $331 reversed $85 $-1 #
coedge $-1 -1 $-1 $350 $351 $199 $272 reversed $352 $-1 #
edge $353 -1 $-1 $354 -1.5700924586837722e-18 $276 0.0028284271247461922 $199 $355 forward @7 unknown #
coedge $-1 -1 $-1 $356 $200 $351 $357 forward $135 $-1 #
truecolor-adesk-attrib $-1 -1 $358 $-1 $201 -1056964608 #
vertex $-1 -1 $-1 $201 $359 #
vertex $-1 -1 $-1 $201 $360 #
straight-curve $-1 -1 $-1 -184.14828771397632 -222.49770708250384 -69.001548590984925 1.1564823173178717e-13 1.0854596883846257e-29 1000 F -0.018500000000000003 F -0.0020000000000000039 #
coedge $-1 -1 $-1 $304 $304 $202 $279 reversed $224 $-1 #
edge $361 -1 $-1 $284 -3.1415926535897931 $287 0 $202 $362 forward @7 unknown #
coedge $-1 -1 $-1 $205 $203 $207 $289 reversed $282 $-1 #
coedge $-1 -1 $-1 $203 $205 $304 $363 forward $282 $-1 #
loop $-1 -1 $-1 $-1 $203 $240 #
truecolor-adesk-attrib $-1 -1 $364 $-1 $204 -1056964608 #
vertex $-1 -1 $-1 $204 $365 #
straight-curve $-1 -1 $-1 -176.89828771397632 -212.49770708250384 -92.001548590984925 -9.3858736284186123e-14 1000 0 F -0.0080000000000000002 F -0.0059999999999999984 #
truecolor-adesk-attrib $-1 -1 $366 $-1 $206 -1056964608 #
vertex $-1 -1 $-1 $279 $367 #
straight-curve $-1 -1 $-1 -181.39828771397632 -212.49770708250384 -92.001548590984925 -9.3858736284186123e-14 1000 0 F -0.0080000000000000002 F -0.0059999999999999984 #
edge $368 -1 $-1 $210 0 $209 3.1415926535897931 $207 $369 forward @7 unknown #
DXID-attrib $-1 -1 $-1 $208 $141 @18 ASM_EDGE_FROM_STEP @4 5729 #
point $-1 -1 $-1 -176.89828771397632 -220.49770708250384 -92.001548590984925 #
point $-1 -1 $-1 -181.39828771397632 -220.49770708250384 -92.001548590984925 #
coedge $-1 -1 $-1 $212 $212 $215 $296 reversed $243 $-1 #
truecolor-adesk-attrib $-1 -1 $370 $-1 $213 -1056964608 #
ellipse-curve $-1 -1 $-1 -179.14828771397632 -212.49770708250384 -92.001548590984925 -9.3858736284186117e-17 1 0 -3.4999999999999956 -3.2850557699465102e-16 0 1 F -3.1415926535897931 F 0 #
edge $371 -1 $-1 $221 0 $218 3.1415926535897931 $293 $372 forward @7 unknown #
face $373 -1 $-1 $232 $216 $3 $-1 $374 reversed single #
DXID-attrib $-1 -1 $-1 $217 $144 @18 ASM_EDGE_FROM_STEP @5 19727 #
point $-1 -1 $-1 -175.64828771397632 -212.49770708250384 -92.001548590984925 #
DXID-attrib $-1 -1 $-1 $220 $146 @18 ASM_EDGE_FROM_STEP @4 9724 #
point $-1 -1 $-1 -182.64828771397632 -212.49770708250384 -92.001548590984925 #
truecolor-adesk-attrib $-1 -1 $375 $-1 $223 -1056964608 #
ellipse-curve $-1 -1 $-1 -179.14828771397632 -218.49770708250384 -92.001548590984925 -9.3858736284186117e-17 1 0 -3.4999999999999956 -3.2850557699465102e-16 0 1 F 0 F 3.1415926535897931 #
coedge $-1 -1 $-1 $278 $278 $281 $363 reversed $224 $-1 #
truecolor-adesk-attrib $-1 -1 $376 $-1 $225 -1056964608 #
plane-surface $-1 -1 $-1 -181.39828771397632 -218.49770708250384 -92.001548590984925 9.3858736284186117e-17 -1 0 1 9.3858736284186117e-17 0 forward_v I I I I #
DXID-attrib $-1 -1 $-1 $229 $154 @18 ASM_EDGE_FROM_STEP @5 29708 #
truecolor-adesk-attrib $-1 -1 $377 $-1 $231 -1056964608 #
ellipse-curve $-1 -1 $-1 -164.14828771397632 -218.49770708250384 -92.001548590984925 -9.3858736284186117e-17 1 0 -2.25 -2.1118215663941876e-16 0 1 F 0 F 3.1415926535897931 #
truecolor-adesk-attrib $-1 -1 $378 $-1 $232 -1056964608 #
cone-surface $-1 -1 $-1 -164.14828771397632 -212.49770708250384 -92.001548590984925 -9.3858736284186117e-17 1 0 -2.2499999999999987 -2.1118215663941864e-16 0 1 I I 0 1 2.2499999999999987 forward I I I I #
DXID-attrib $-1 -1 $-1 $237 $164 @18 ASM_EDGE_FROM_STEP @5 10720 #
DXID-attrib $-1 -1 $-1 $239 $166 @18 ASM_FACE_FROM_STEP @17 step-2M-555-28643 #
truecolor-adesk-attrib $-1 -1 $379 $-1 $240 -1056964608 #
cone-surface $-1 -1 $-1 -179.14828771397632 -212.49770708250384 -92.001548590984925 -9.3858736284186117e-17 1 0 -2.2499999999999978 -2.1118215663941857e-16 0 1 I I 0 1 2.2499999999999978 forward I I I I #
DXID-attrib $-1 -1 $-1 $245 $174 @18 ASM_EDGE_FROM_STEP @4 1929 #
DXID-attrib $-1 -1 $-1 $247 $175 @18 ASM_FACE_FROM_STEP @17 step-2M-555-17137 #
DXID-attrib $-1 -1 $-1 $251 $185 @18 ASM_FACE_FROM_STEP @17 step-2M-555-13506 #
truecolor-adesk-attrib $-1 -1 $380 $-1 $252 -1056964608 #
face $381 -1 $-1 $382 $383 $3 $-1 $384 reversed single #
loop $-1 -1 $-1 $-1 $385 $252 #
plane-surface $-1 -1 $-1 -171.64828771397632 -222.49770708250384 -84.001548590984925 -9.3858736284186117e-17 1 0 -1 -9.3858736284186117e-17 0 forward_v I I I I #
coedge $-1 -1 $-1 $386 $387 $388 $389 forward $253 $-1 #
DXID-attrib $-1 -1 $-1 $258 $194 @18 ASM_FACE_FROM_STEP @16 step-2M-555-3448 #
truecolor-adesk-attrib $-1 -1 $390 $-1 $259 -1056964608 #
loop $-1 -1 $-1 $-1 $391 $259 #
plane-surface $-1 -1 $-1 -159.14828771397632 -212.49770708250384 -99.001548590984925 0 0 1 -9.3858736284186117e-17 1 0 forward_v I I I I #
coedge $-1 -1 $-1 $392 $393 $267 $344 forward $260 $-1 #
coedge $-1 -1 $-1 $388 $262 $394 $395 forward $195 $-1 #
coedge $-1 -1 $-1 $262 $388 $350 $396 forward $195 $-1 #
edge $397 -1 $-1 $354 -0.023 $398 -0.0020000000000000061 $270 $399 forward @7 unknown #
coedge $-1 -1 $-1 $400 $268 $263 $333 forward $346 $-1 #
edge $401 -1 $-1 $275 0.017971546893987625 $340 0.019971546893987627 $263 $402 forward @7 unknown #
coedge $-1 -1 $-1 $264 $403 $404 $405 forward $135 $-1 #
coedge $-1 -1 $-1 $406 $407 $264 $336 forward $408 $-1 #
edge $409 -1 $-1 $341 -0.019971546893987627 $410 -0.017971546893987625 $264 $411 forward @7 unknown #
coedge $-1 -1 $-1 $412 $265 $407 $413 reversed $241 $-1 #
coedge $-1 -1 $-1 $265 $412 $400 $414 forward $241 $-1 #
truecolor-adesk-attrib $-1 -1 $415 $-1 $266 -1056964608 #
vertex $-1 -1 $-1 $266 $416 #
vertex $-1 -1 $-1 $266 $417 #
straight-curve $-1 -1 $-1 -184.14828771397632 -220.49770708250384 -87.501548590984925 -1.7347234759768073e-13 -1.6281895325769382e-29 -1000 F 0 F 0.01 #
coedge $-1 -1 $-1 $270 $267 $418 $419 forward $85 $-1 #
edge $420 -1 $-1 $421 0.0020000000000000018 $348 0.018500000000000006 $267 $422 forward @7 unknown #
coedge $-1 -1 $-1 $268 $400 $392 $423 reversed $346 $-1 #
loop $-1 -1 $-1 $-1 $332 $424 #
truecolor-adesk-attrib $-1 -1 $425 $-1 $269 -1056964608 #
vertex $-1 -1 $-1 $269 $426 #
straight-curve $-1 -1 $-1 -171.64828771397632 -222.49770708250384 -87.501548590984925 1000 9.3858736284186123e-14 -1.1564823173178717e-13 F -0.012500000000000001 F 0.012500000000000002 #
coedge $-1 -1 $-1 $427 $271 $330 $396 reversed $352 $-1 #
coedge $-1 -1 $-1 $271 $427 $273 $357 reversed $352 $-1 #
loop $-1 -1 $-1 $-1 $427 $382 #
truecolor-adesk-attrib $-1 -1 $428 $-1 $272 -1056964608 #
vertex $-1 -1 $-1 $331 $429 #
straight-curve $-1 -1 $-1 -182.14828771397632 -222.49770708250384 -69.001548590984925 -707.1067811865463 -6.6368148900147751e-14 -707.1067811865488 F -1.5700924586837722e-18 F 0.0028284271247461922 #
coedge $-1 -1 $-1 $403 $273 $430 $431 reversed $135 $-1 #
edge $432 -1 $-1 $276 -0.01 $433 0 $273 $434 forward @7 unknown #
DXID-attrib $-1 -1 $-1 $274 $201 @18 ASM_EDGE_FROM_STEP @5 24445 #
point $-1 -1 $-1 -184.14828771397632 -222.49770708250384 -87.501548590984925 #
point $-1 -1 $-1 -184.14828771397632 -222.49770708250384 -71.001548590984925 #
truecolor-adesk-attrib $-1 -1 $435 $-1 $279 -1056964608 #
ellipse-curve $-1 -1 $-1 -179.14828771397632 -218.49770708250384 -92.001548590984925 -9.3858736284186117e-17 1 0 -2.25 -2.1118215663941876e-16 0 1 F -3.1415926535897931 F 0 #
edge $436 -1 $-1 $287 0 $284 3.1415926535897931 $281 $437 forward @7 unknown #
DXID-attrib $-1 -1 $-1 $283 $204 @18 ASM_EDGE_FROM_STEP @4 3695 #
point $-1 -1 $-1 -176.89828771397632 -218.49770708250384 -92.001548590984925 #
DXID-attrib $-1 -1 $-1 $286 $206 @18 ASM_EDGE_FROM_STEP @5 34391 #
point $-1 -1 $-1 -181.39828771397632 -218.49770708250384 -92.001548590984925 #
truecolor-adesk-attrib $-1 -1 $438 $-1 $289 -1056964608 #
ellipse-curve $-1 -1 $-1 -179.14828771397632 -220.49770708250384 -92.001548590984925 -9.3858736284186117e-17 1 0 -2.2499999999999978 -2.1118215663941857e-16 0 1 F 0 F 3.1415926535897931 #
DXID-attrib $-1 -1 $-1 $294 $213 @18 ASM_EDGE_FROM_STEP @5 15744 #
truecolor-adesk-attrib $-1 -1 $439 $-1 $296 -1056964608 #
ellipse-curve $-1 -1 $-1 -179.14828771397632 -212.49770708250384 -92.001548590984925 -9.3858736284186117e-17 1 0 -3.4999999999999956 -3.2850557699465102e-16 0 1 F 0 F 3.1415926535897931 #
truecolor-adesk-attrib $-1 -1 $440 $-1 $297 -1056964608 #
cone-surface $-1 -1 $-1 -179.14828771397632 -212.49770708250384 -92.001548590984925 -9.3858736284186117e-17 1 0 -3.4999999999999956 -3.2850557699465102e-16 0 1 I I 0 1 3.4999999999999956 forward I I I I #
DXID-attrib $-1 -1 $-1 $302 $223 @18 ASM_EDGE_FROM_STEP @3 639 #
DXID-attrib $-1 -1 $-1 $305 $225 @18 ASM_FACE_FROM_STEP @15 step-2M-555-403 #
DXID-attrib $-1 -1 $-1 $308 $231 @18 ASM_EDGE_FROM_STEP @5 35340 #
DXID-attrib $-1 -1 $-1 $310 $232 @18 ASM_FACE_FROM_STEP @17 step-2M-555-10172 #
DXID-attrib $-1 -1 $-1 $314 $240 @18 ASM_FACE_FROM_STEP @17 step-2M-555-11839 #
DXID-attrib $-1 -1 $-1 $319 $252 @18 ASM_FACE_FROM_STEP @16 step-2M-555-7362 #
truecolor-adesk-attrib $-1 -1 $441 $-1 $320 -1056964608 #
face $442 -1 $-1 $424 $352 $3 $-1 $443 reversed single #
loop $-1 -1 $-1 $-1 $444 $320 #
plane-surface $-1 -1 $-1 -159.14828771397632 -212.49770708250384 -71.001548590984925 -0.70710678118654691 -6.6368148900147798e-17 -0.70710678118654813 9.3858736284186117e-17 -1 0 forward_v I I I I #
coedge $-1 -1 $-1 $445 $446 $447 $448 reversed $321 $-1 #
coedge $-1 -1 $-1 $449 $323 $444 $450 forward $253 $-1 #
coedge $-1 -1 $-1 $323 $430 $427 $451 forward $253 $-1 #
coedge $-1 -1 $-1 $330 $329 $323 $389 reversed $195 $-1 #
edge $452 -1 $-1 $453 -0.023 $454 -0.0020000000000000039 $388 $455 forward @7 unknown #
DXID-attrib $-1 -1 $-1 $325 $259 @18 ASM_FACE_FROM_STEP @16 step-2M-555-7408 #
coedge $-1 -1 $-1 $456 $457 $446 $458 forward $326 $-1 #
coedge $-1 -1 $-1 $459 $328 $345 $423 forward $260 $-1 #
coedge $-1 -1 $-1 $328 $460 $461 $462 forward $260 $-1 #
coedge $-1 -1 $-1 $418 $444 $329 $395 reversed $383 $-1 #
edge $463 -1 $-1 $398 -0.01 $454 0 $329 $464 forward @7 unknown #
edge $465 -1 $-1 $453 0 $354 0.01 $330 $466 forward @7 unknown #
truecolor-adesk-attrib $-1 -1 $467 $-1 $331 -1056964608 #
vertex $-1 -1 $-1 $419 $468 #
straight-curve $-1 -1 $-1 -159.14828771397632 -222.49770708250384 -69.001548590984925 1000 9.3858736284186123e-14 0 F -0.023 F -0.0020000000000000061 #
coedge $-1 -1 $-1 $345 $332 $338 $414 reversed $346 $-1 #
truecolor-adesk-attrib $-1 -1 $469 $-1 $333 -1056964608 #
straight-curve $-1 -1 $-1 -184.14828771397632 -240.46925397649147 -87.501548590984925 -9.3858736284186123e-14 1000 -1.3028961791380121e-13 F 0.017971546893987625 F 0.019971546893987627 #
coedge $-1 -1 $-1 $334 $356 $456 $470 forward $135 $-1 #
coedge $-1 -1 $-1 $446 $445 $334 $405 reversed $321 $-1 #
edge $471 -1 $-1 $472 -0.029999999999999999 $410 -0.028500000000000004 $334 $473 forward @7 unknown #
coedge $-1 -1 $-1 $474 $335 $445 $475 reversed $408 $-1 #
coedge $-1 -1 $-1 $335 $474 $337 $413 forward $408 $-1 #
loop $-1 -1 $-1 $-1 $474 $476 #
truecolor-adesk-attrib $-1 -1 $477 $-1 $336 -1056964608 #
vertex $-1 -1 $-1 $405 $478 #
straight-curve $-1 -1 $-1 -184.14828771397632 -240.46925397649147 -97.501548590984925 9.3858736284186123e-14 -1000 8.685974527586747e-14 F -0.019971546893987627 F -0.017971546893987625 #
coedge $-1 -1 $-1 $338 $337 $459 $479 reversed $241 $-1 #
edge $480 -1 $-1 $481 0 $341 0.025000000000000001 $407 $482 forward @7 unknown #
edge $483 -1 $-1 $484 0 $340 0.025000000000000001 $400 $485 forward @7 unknown #
DXID-attrib $-1 -1 $-1 $339 $266 @18 ASM_EDGE_FROM_STEP @3 398 #
point $-1 -1 $-1 -184.14828771397632 -220.49770708250384 -87.501548590984925 #
point $-1 -1 $-1 -184.14828771397632 -220.49770708250384 -97.501548590984925 #
coedge $-1 -1 $-1 $461 $394 $343 $419 reversed $383 $-1 #
edge $486 -1 $-1 $421 0 $398 0.0028284271247461961 $343 $487 forward @7 unknown #
truecolor-adesk-attrib $-1 -1 $488 $-1 $344 -1056964608 #
vertex $-1 -1 $-1 $344 $489 #
straight-curve $-1 -1 $-1 -159.14828771397632 -222.49770708250384 -69.001548590984925 -1.1564823173178717e-13 -1.0854596883846257e-29 -1000 F 0.0020000000000000018 F 0.018500000000000006 #
edge $490 -1 $-1 $348 0.017971546893987625 $484 0.019971546893987627 $392 $491 forward @7 unknown #
face $492 -1 $-1 $476 $346 $3 $-1 $493 reversed single #
DXID-attrib $-1 -1 $-1 $347 $269 @18 ASM_EDGE_FROM_STEP @5 22430 #
point $-1 -1 $-1 -159.14828771397632 -222.49770708250384 -87.501548590984925 #
coedge $-1 -1 $-1 $351 $350 $387 $451 reversed $352 $-1 #
DXID-attrib $-1 -1 $-1 $353 $272 @18 ASM_EDGE_FROM_STEP @4 2443 #
point $-1 -1 $-1 -182.14828771397632 -222.49770708250384 -69.001548590984925 #
coedge $-1 -1 $-1 $387 $494 $356 $431 forward $253 $-1 #
edge $495 -1 $-1 $496 -0.029999999999999999 $433 -0.0020000000000000039 $356 $497 forward @7 unknown #
truecolor-adesk-attrib $-1 -1 $498 $-1 $357 -1056964608 #
vertex $-1 -1 $-1 $357 $499 #
straight-curve $-1 -1 $-1 -184.14828771397632 -212.49770708250384 -71.001548590984925 -9.3858736284186123e-14 1000 0 F -0.01 F 0 #
DXID-attrib $-1 -1 $-1 $361 $279 @18 ASM_EDGE_FROM_STEP @5 36353 #
truecolor-adesk-attrib $-1 -1 $500 $-1 $363 -1056964608 #
ellipse-curve $-1 -1 $-1 -179.14828771397632 -218.49770708250384 -92.001548590984925 -9.3858736284186117e-17 1 0 -2.25 -2.1118215663941876e-16 0 1 F 0 F 3.1415926535897931 #
DXID-attrib $-1 -1 $-1 $368 $289 @18 ASM_EDGE_FROM_STEP @4 6713 #
DXID-attrib $-1 -1 $-1 $371 $296 @18 ASM_EDGE_FROM_STEP @5 38589 #
DXID-attrib $-1 -1 $-1 $373 $297 @18 ASM_FACE_FROM_STEP @17 step-2M-555-12898 #
DXID-attrib $-1 -1 $-1 $381 $320 @18 ASM_FACE_FROM_STEP @17 step-2M-555-14403 #
truecolor-adesk-attrib $-1 -1 $501 $-1 $382 -1056964608 #
plane-surface $-1 -1 $-1 -182.14828771397632 -212.49770708250384 -69.001548590984925 0.70710678118654879 6.6368148900147983e-17 -0.70710678118654624 9.3858736284186117e-17 -1 0 forward_v I I I I #
coedge $-1 -1 $-1 $394 $461 $386 $450 reversed $383 $-1 #
coedge $-1 -1 $-1 $404 $385 $406 $475 forward $321 $-1 #
coedge $-1 -1 $-1 $385 $404 $391 $458 reversed $321 $-1 #
coedge $-1 -1 $-1 $502 $503 $385 $448 forward $260 $-1 #
edge $504 -1 $-1 $505 0.028500000000000004 $506 0.029999999999999999 $447 $507 forward @7 unknown #
coedge $-1 -1 $-1 $494 $386 $460 $508 forward $253 $-1 #
edge $509 -1 $-1 $454 -0.0031819805153394504 $510 -0.0003535533905932569 $386 $511 forward @7 unknown #
edge $512 -1 $-1 $433 0.00035355339059330233 $453 0.0031819805153394999 $387 $513 forward @7 unknown #
truecolor-adesk-attrib $-1 -1 $514 $-1 $389 -1056964608 #
vertex $-1 -1 $-1 $389 $515 #
vertex $-1 -1 $-1 $395 $516 #
straight-curve $-1 -1 $-1 -159.14828771397632 -212.49770708250384 -69.001548590984925 1000 9.3858736284186123e-14 0 F -0.023 F -0.0020000000000000039 #
coedge $-1 -1 $-1 $517 $391 $403 $470 reversed $326 $-1 #
coedge $-1 -1 $-1 $391 $517 $502 $518 forward $326 $-1 #
edge $519 -1 $-1 $506 0 $472 0.025000000000000001 $391 $520 forward @7 unknown #
coedge $-1 -1 $-1 $503 $392 $412 $479 forward $260 $-1 #
coedge $-1 -1 $-1 $393 $502 $449 $508 reversed $260 $-1 #
coedge $-1 -1 $-1 $444 $418 $393 $462 reversed $383 $-1 #
edge $521 -1 $-1 $510 0 $421 0.01 $393 $522 forward @7 unknown #
truecolor-adesk-attrib $-1 -1 $523 $-1 $395 -1056964608 #
straight-curve $-1 -1 $-1 -161.14828771397632 -212.49770708250384 -69.001548590984925 -9.3858736284186123e-14 1000 0 F -0.01 F 0 #
truecolor-adesk-attrib $-1 -1 $524 $-1 $396 -1056964608 #
straight-curve $-1 -1 $-1 -182.14828771397632 -212.49770708250384 -69.001548590984925 9.3858736284186123e-14 -1000 0 F 0 F 0.01 #
DXID-attrib $-1 -1 $-1 $397 $331 @18 ASM_EDGE_FROM_STEP @4 8454 #
point $-1 -1 $-1 -161.14828771397632 -222.49770708250384 -69.001548590984925 #
DXID-attrib $-1 -1 $-1 $401 $333 @18 ASM_EDGE_FROM_STEP @5 35126 #
edge $525 -1 $-1 $496 0 $472 0.01 $403 $526 forward @7 unknown #
truecolor-adesk-attrib $-1 -1 $527 $-1 $405 -1056964608 #
vertex $-1 -1 $-1 $470 $528 #
straight-curve $-1 -1 $-1 -184.14828771397632 -222.49770708250384 -69.001548590984925 1.1564823173178717e-13 1.0854596883846257e-29 1000 F -0.029999999999999999 F -0.028500000000000004 #
coedge $-1 -1 $-1 $407 $406 $503 $529 reversed $408 $-1 #
edge $530 -1 $-1 $505 -0.012500000000000002 $410 0.012499999999999997 $445 $531 forward @7 unknown #
face $532 -1 $-1 $166 $408 $3 $-1 $533 reversed single #
DXID-attrib $-1 -1 $-1 $409 $336 @18 ASM_EDGE_FROM_STEP @5 17223 #
point $-1 -1 $-1 -184.14828771397632 -222.49770708250384 -97.501548590984925 #
edge $534 -1 $-1 $484 0 $481 0.0099999999999999985 $459 $535 forward @7 unknown #
truecolor-adesk-attrib $-1 -1 $536 $-1 $413 -1056964608 #
vertex $-1 -1 $-1 $479 $537 #
straight-curve $-1 -1 $-1 -159.14828771397632 -220.49770708250384 -97.501548590984925 -1000 -9.3858736284186123e-14 1.1564823173178717e-13 F 0 F 0.025000000000000001 #
truecolor-adesk-attrib $-1 -1 $538 $-1 $414 -1056964608 #
vertex $-1 -1 $-1 $423 $539 #
straight-curve $-1 -1 $-1 -159.14828771397632 -220.49770708250384 -87.501548590984925 -1000 -9.3858736284186123e-14 1.1564823173178717e-13 F 0 F 0.025000000000000001 #
truecolor-adesk-attrib $-1 -1 $540 $-1 $419 -1056964608 #
straight-curve $-1 -1 $-1 -159.14828771397632 -222.49770708250384 -71.001548590984925 -707.10678118654812 -6.6368148900147915e-14 707.10678118654687 F 0 F 0.0028284271247461961 #
DXID-attrib $-1 -1 $-1 $420 $344 @18 ASM_EDGE_FROM_STEP @5 14500 #
point $-1 -1 $-1 -159.14828771397632 -222.49770708250384 -71.001548590984925 #
truecolor-adesk-attrib $-1 -1 $541 $-1 $423 -1056964608 #
straight-curve $-1 -1 $-1 -159.14828771397632 -240.46925397649147 -87.501548590984925 -9.3858736284186123e-14 1000 -1.3028961791380121e-13 F 0.017971546893987625 F 0.019971546893987627 #
truecolor-adesk-attrib $-1 -1 $542 $-1 $424 -1056964608 #
plane-surface $-1 -1 $-1 -159.14828771397632 -240.46925397649147 -87.501548590984925 1.1564823173178717e-16 1.3028961791380124e-16 1 -9.3858736284186117e-17 1 -1.3028961791380124e-16 forward_v I I I I #
coedge $-1 -1 $-1 $430 $449 $517 $543 forward $253 $-1 #
truecolor-adesk-attrib $-1 -1 $544 $-1 $431 -1056964608 #
vertex $-1 -1 $-1 $431 $545 #
straight-curve $-1 -1 $-1 -184.14828771397632 -212.49770708250384 -69.001548590984925 1.1564823173178717e-13 1.0854596883846257e-29 1000 F -0.029999999999999999 F -0.0020000000000000039 #
DXID-attrib $-1 -1 $-1 $432 $357 @18 ASM_EDGE_FROM_STEP @5 31193 #
point $-1 -1 $-1 -184.14828771397632 -212.49770708250384 -71.001548590984925 #
DXID-attrib $-1 -1 $-1 $436 $363 @18 ASM_EDGE_FROM_STEP @4 4692 #
DXID-attrib $-1 -1 $-1 $442 $382 @18 ASM_FACE_FROM_STEP @16 step-2M-555-5956 #
coedge $-1 -1 $-1 $460 $447 $457 $518 reversed $260 $-1 #
coedge $-1 -1 $-1 $447 $459 $474 $529 forward $260 $-1 #
truecolor-adesk-attrib $-1 -1 $546 $-1 $448 -1056964608 #
vertex $-1 -1 $-1 $529 $547 #
vertex $-1 -1 $-1 $448 $548 #
straight-curve $-1 -1 $-1 -159.14828771397632 -222.49770708250384 -69.001548590984925 -1.1564823173178717e-13 -1.0854596883846257e-29 -1000 F 0.028500000000000004 F 0.029999999999999999 #
edge $549 -1 $-1 $510 0.0019999999999999996 $550 0.029999999999999999 $460 $551 forward @7 unknown #
truecolor-adesk-attrib $-1 -1 $552 $-1 $450 -1056964608 #
vertex $-1 -1 $-1 $508 $553 #
straight-curve $-1 -1 $-1 -158.89828771397632 -212.49770708250384 -71.25154859098491 707.10678118654812 6.6368148900147915e-14 -707.10678118654687 F -0.0031819805153394504 F -0.0003535533905932569 #
truecolor-adesk-attrib $-1 -1 $554 $-1 $451 -1056964608 #
straight-curve $-1 -1 $-1 -184.39828771397634 -212.49770708250384 -71.251548590984953 707.1067811865463 6.6368148900147751e-14 707.1067811865488 F 0.00035355339059330233 F 0.0031819805153394999 #
DXID-attrib $-1 -1 $-1 $452 $389 @18 ASM_EDGE_FROM_STEP @5 13250 #
point $-1 -1 $-1 -182.14828771397632 -212.49770708250384 -69.001548590984925 #
point $-1 -1 $-1 -161.14828771397632 -212.49770708250384 -69.001548590984925 #
coedge $-1 -1 $-1 $457 $456 $494 $543 reversed $326 $-1 #
edge $555 -1 $-1 $550 0 $506 0.01 $502 $556 forward @7 unknown #
truecolor-adesk-attrib $-1 -1 $557 $-1 $458 -1056964608 #
straight-curve $-1 -1 $-1 -159.14828771397632 -222.49770708250384 -99.001548590984925 -1000 -9.3858736284186123e-14 0 F 0 F 0.025000000000000001 #
truecolor-adesk-attrib $-1 -1 $558 $-1 $462 -1056964608 #
straight-curve $-1 -1 $-1 -159.14828771397632 -212.49770708250384 -71.001548590984925 9.3858736284186123e-14 -1000 0 F 0 F 0.01 #
DXID-attrib $-1 -1 $-1 $463 $395 @18 ASM_EDGE_FROM_STEP @5 15237 #
DXID-attrib $-1 -1 $-1 $465 $396 @18 ASM_EDGE_FROM_STEP @4 5207 #
truecolor-adesk-attrib $-1 -1 $559 $-1 $470 -1056964608 #
straight-curve $-1 -1 $-1 -184.14828771397632 -212.49770708250384 -99.001548590984925 9.3858736284186123e-14 -1000 0 F 0 F 0.01 #
DXID-attrib $-1 -1 $-1 $471 $405 @18 ASM_EDGE_FROM_STEP @5 21176 #
point $-1 -1 $-1 -184.14828771397632 -222.49770708250384 -99.001548590984925 #
edge $560 -1 $-1 $481 -0.019971546893987627 $505 -0.017971546893987625 $503 $561 forward @7 unknown #
truecolor-adesk-attrib $-1 -1 $562 $-1 $475 -1056964608 #
straight-curve $-1 -1 $-1 -171.64828771397632 -222.49770708250384 -97.501548590984925 -1000 -9.3858736284186123e-14 1.1564823173178717e-13 F -0.012500000000000002 F 0.012499999999999997 #
truecolor-adesk-attrib $-1 -1 $563 $-1 $476 -1056964608 #
plane-surface $-1 -1 $-1 -159.14828771397632 -240.46925397649147 -97.501548590984925 -1.1564823173178717e-16 -8.6859745275867498e-17 -1 -1 -9.3858736284186117e-17 1.1564823173178717e-16 forward_v I I I I #
truecolor-adesk-attrib $-1 -1 $564 $-1 $479 -1056964608 #
straight-curve $-1 -1 $-1 -159.14828771397632 -220.49770708250384 -87.501548590984925 -1.7347234759768073e-13 -1.6281895325769382e-29 -1000 F 0 F 0.0099999999999999985 #
DXID-attrib $-1 -1 $-1 $480 $413 @18 ASM_EDGE_FROM_STEP @5 12708 #
point $-1 -1 $-1 -159.14828771397632 -220.49770708250384 -97.501548590984925 #
DXID-attrib $-1 -1 $-1 $483 $414 @18 ASM_EDGE_FROM_STEP @5 14735 #
point $-1 -1 $-1 -159.14828771397632 -220.49770708250384 -87.501548590984925 #
DXID-attrib $-1 -1 $-1 $486 $419 @18 ASM_EDGE_FROM_STEP @5 12478 #
DXID-attrib $-1 -1 $-1 $490 $423 @18 ASM_EDGE_FROM_STEP @4 3178 #
DXID-attrib $-1 -1 $-1 $492 $424 @18 ASM_FACE_FROM_STEP @17 step-2M-555-27350 #
edge $565 -1 $-1 $550 0 $496 0.025000000000000001 $517 $566 forward @7 unknown #
DXID-attrib $-1 -1 $-1 $495 $431 @18 ASM_EDGE_FROM_STEP @5 27193 #
point $-1 -1 $-1 -184.14828771397632 -212.49770708250384 -99.001548590984925 #
DXID-attrib $-1 -1 $-1 $504 $448 @18 ASM_EDGE_FROM_STEP @5 23917 #
point $-1 -1 $-1 -159.14828771397632 -222.49770708250384 -97.501548590984925 #
point $-1 -1 $-1 -159.14828771397632 -222.49770708250384 -99.001548590984925 #
truecolor-adesk-attrib $-1 -1 $567 $-1 $508 -1056964608 #
vertex $-1 -1 $-1 $518 $568 #
straight-curve $-1 -1 $-1 -159.14828771397632 -212.49770708250384 -69.001548590984925 -1.1564823173178717e-13 -1.0854596883846257e-29 -1000 F 0.0019999999999999996 F 0.029999999999999999 #
DXID-attrib $-1 -1 $-1 $509 $450 @18 ASM_EDGE_FROM_STEP @5 36583 #
point $-1 -1 $-1 -159.14828771397632 -212.49770708250384 -71.001548590984925 #
DXID-attrib $-1 -1 $-1 $512 $451 @18 ASM_EDGE_FROM_STEP @5 22663 #
truecolor-adesk-attrib $-1 -1 $569 $-1 $518 -1056964608 #
straight-curve $-1 -1 $-1 -159.14828771397632 -212.49770708250384 -99.001548590984925 9.3858736284186123e-14 -1000 0 F 0 F 0.01 #
DXID-attrib $-1 -1 $-1 $519 $458 @18 ASM_EDGE_FROM_STEP @4 9968 #
DXID-attrib $-1 -1 $-1 $521 $462 @18 ASM_EDGE_FROM_STEP @5 15984 #
DXID-attrib $-1 -1 $-1 $525 $470 @18 ASM_EDGE_FROM_STEP @5 23170 #
truecolor-adesk-attrib $-1 -1 $570 $-1 $529 -1056964608 #
straight-curve $-1 -1 $-1 -159.14828771397632 -240.46925397649147 -97.501548590984925 9.3858736284186123e-14 -1000 8.685974527586747e-14 F -0.019971546893987627 F -0.017971546893987625 #
DXID-attrib $-1 -1 $-1 $530 $475 @18 ASM_EDGE_FROM_STEP @5 20669 #
DXID-attrib $-1 -1 $-1 $532 $476 @18 ASM_FACE_FROM_STEP @17 step-2M-555-34699 #
DXID-attrib $-1 -1 $-1 $534 $479 @18 ASM_EDGE_FROM_STEP @5 31922 #
truecolor-adesk-attrib $-1 -1 $571 $-1 $543 -1056964608 #
straight-curve $-1 -1 $-1 -159.14828771397632 -212.49770708250384 -99.001548590984925 -1000 -9.3858736284186123e-14 0 F 0 F 0.025000000000000001 #
DXID-attrib $-1 -1 $-1 $549 $508 @18 ASM_EDGE_FROM_STEP @5 19949 #
point $-1 -1 $-1 -159.14828771397632 -212.49770708250384 -99.001548590984925 #
DXID-attrib $-1 -1 $-1 $555 $518 @18 ASM_EDGE_FROM_STEP @5 21910 #
DXID-attrib $-1 -1 $-1 $560 $529 @18 ASM_EDGE_FROM_STEP @5 29926 #
DXID-attrib $-1 -1 $-1 $565 $543 @18 ASM_EDGE_FROM_STEP @4 7956 #
