700 300 1 0         
5 ZWCAD 12 ACIS 28.0 NT 24 Mon May 13 10:42:32 2024 
1 9.9999999999999995e-07 1e-10 
body $1 -1 $-1 $2 $-1 $-1 #
DXID-attrib $-1 -1 $-1 $-1 $0 @18 ASM_BODY_FROM_STEP @83 C073F3B7828D8F021E2670D85EB42A91FECFC753|:|768CA999E784C93E06FE4F46DB271910397F67AA #
lump $-1 -1 $-1 $-1 $3 $0 #
shell $-1 -1 $-1 $-1 $-1 $4 $-1 $2 #
face $5 -1 $-1 $6 $7 $3 $-1 $8 reversed single #
truecolor-adesk-attrib $-1 -1 $9 $-1 $4 -1029333354 #
face $10 -1 $-1 $11 $12 $3 $-1 $13 reversed single #
loop $-1 -1 $-1 $-1 $14 $4 #
cone-surface $-1 -1 $-1 274.80746589017264 145.2162970598273 334.98693091995762 6.401998600993611e-17 2.8159227259147147e-16 1 1.7510124662480622 2.4359711293535264 -7.9805043987429752e-16 1 I I 0 1 3.0000000000000027 forward I I I I #
fmesh-eye-attrib $-1 -1 $15 $5 $4 #
truecolor-adesk-attrib $-1 -1 $16 $-1 $6 -1029333354 #
face $17 -1 $-1 $18 $19 $3 $-1 $20 forward single #
loop $-1 -1 $-1 $-1 $21 $6 #
cone-surface $-1 -1 $-1 376.30626294656946 72.257444299491453 334.98693091995762 6.401998600993611e-17 2.8159227259147147e-16 1 1.7510124662480604 2.4359711293535242 -7.9805043987429673e-16 1 I I 0 1 3.0000000000000004 forward I I I I #
coedge $-1 -1 $-1 $22 $23 $24 $25 forward $7 $-1 #
DXID-attrib $-1 -1 $-1 $9 $4 @18 ASM_FACE_FROM_STEP @17 step-2M-849-29762 #
fmesh-eye-attrib $-1 -1 $26 $10 $6 #
truecolor-adesk-attrib $-1 -1 $27 $-1 $11 -1029333354 #
face $28 -1 $-1 $29 $30 $3 $-1 $31 forward single #
loop $-1 -1 $-1 $-1 $32 $11 #
cone-surface $-1 -1 $-1 376.30626294656946 72.257444299491453 334.98693091995762 6.401998600993611e-17 2.8159227259147147e-16 1 7.0040498649922514 9.7438845174141111 -3.1922017594971913e-15 1 I I 0 1 12.000000000000018 forward I I I I #
coedge $-1 -1 $-1 $33 $34 $35 $36 forward $12 $-1 #
coedge $-1 -1 $-1 $37 $14 $38 $39 forward $7 $-1 #
coedge $-1 -1 $-1 $14 $37 $40 $41 reversed $7 $-1 #
coedge $-1 -1 $-1 $42 $42 $14 $25 reversed $43 $-1 #
edge $44 -1 $-1 $45 -3.1415926535897931 $46 0 $14 $47 forward @7 unknown #
DXID-attrib $-1 -1 $-1 $16 $6 @18 ASM_FACE_FROM_STEP @16 step-2M-849-5230 #
fmesh-eye-attrib $-1 -1 $48 $17 $11 #
truecolor-adesk-attrib $-1 -1 $49 $-1 $18 -1029333354 #
face $50 -1 $-1 $51 $52 $3 $-1 $53 reversed single #
loop $-1 -1 $-1 $-1 $54 $18 #
cone-surface $-1 -1 $-1 274.80746589017264 145.2162970598273 334.98693091995762 6.401998600993611e-17 2.8159227259147147e-16 1 7.0040498649922514 9.7438845174141111 -3.1922017594971913e-15 1 I I 0 1 12.000000000000018 forward I I I I #
coedge $-1 -1 $-1 $55 $56 $57 $58 reversed $19 $-1 #
coedge $-1 -1 $-1 $59 $21 $60 $61 forward $12 $-1 #
coedge $-1 -1 $-1 $21 $59 $62 $63 reversed $12 $-1 #
coedge $-1 -1 $-1 $64 $64 $21 $36 reversed $65 $-1 #
edge $66 -1 $-1 $67 -3.1415926535897931 $68 1.2246467991473535e-16 $21 $69 forward @7 unknown #
coedge $-1 -1 $-1 $23 $22 $70 $71 reversed $7 $-1 #
coedge $-1 -1 $-1 $72 $73 $22 $39 reversed $74 $-1 #
edge $75 -1 $-1 $46 0 $76 0.006000000000000001 $22 $77 forward @7 unknown #
coedge $-1 -1 $-1 $73 $72 $23 $41 forward $74 $-1 #
edge $78 -1 $-1 $45 0 $79 0.006000000000000001 $23 $80 forward @7 unknown #
coedge $-1 -1 $-1 $24 $24 $72 $81 reversed $43 $-1 #
loop $-1 -1 $-1 $-1 $24 $29 #
truecolor-adesk-attrib $-1 -1 $82 $-1 $25 -1029333354 #
vertex $-1 -1 $-1 $25 $83 #
vertex $-1 -1 $-1 $25 $84 #
ellipse-curve $-1 -1 $-1 274.80746589017264 145.2162970598273 334.98693091995762 -6.401998600993611e-17 -2.8159227259147147e-16 -1 -1.7510124662480622 -2.4359711293535264 7.9805043987429752e-16 1 F -3.1415926535897931 F 0 #
DXID-attrib $-1 -1 $-1 $27 $11 @18 ASM_FACE_FROM_STEP @17 step-2M-849-19287 #
fmesh-eye-attrib $-1 -1 $85 $28 $18 #
truecolor-adesk-attrib $-1 -1 $86 $-1 $29 -1029333354 #
face $87 -1 $-1 $88 $89 $3 $-1 $90 forward single #
loop $-1 -1 $-1 $65 $91 $29 #
plane-surface $-1 -1 $-1 390.08294553148033 144.96372337464845 334.98693091995762 6.401998600993611e-17 2.8159227259147147e-16 1 0.58367082208268684 0.81199037645117478 -2.6601681329143226e-16 forward_v I I I I #
coedge $-1 -1 $-1 $92 $93 $94 $95 reversed $30 $-1 #
coedge $-1 -1 $-1 $96 $32 $97 $98 forward $19 $-1 #
coedge $-1 -1 $-1 $32 $96 $99 $100 reversed $19 $-1 #
coedge $-1 -1 $-1 $91 $101 $32 $58 forward $52 $-1 #
edge $102 -1 $-1 $103 -3.1415926535897931 $104 -0.43597819714859154 $32 $105 forward @7 unknown #
coedge $-1 -1 $-1 $34 $33 $106 $107 reversed $12 $-1 #
coedge $-1 -1 $-1 $108 $109 $33 $61 reversed $110 $-1 #
edge $111 -1 $-1 $68 0 $112 0.006000000000000001 $33 $113 forward @7 unknown #
coedge $-1 -1 $-1 $109 $108 $34 $63 forward $110 $-1 #
edge $114 -1 $-1 $67 0 $115 0.006000000000000001 $34 $116 forward @7 unknown #
coedge $-1 -1 $-1 $35 $35 $108 $117 reversed $65 $-1 #
loop $-1 -1 $-1 $43 $35 $29 #
truecolor-adesk-attrib $-1 -1 $118 $-1 $36 -1029333354 #
vertex $-1 -1 $-1 $36 $119 #
vertex $-1 -1 $-1 $36 $120 #
ellipse-curve $-1 -1 $-1 376.30626294656946 72.257444299491453 334.98693091995762 -6.401998600993611e-17 -2.8159227259147147e-16 -1 -1.7510124662480604 -2.4359711293535242 7.9805043987429673e-16 1 F -3.1415926535897931 F 1.2246467991473535e-16 #
coedge $-1 -1 $-1 $121 $121 $37 $71 forward $122 $-1 #
edge $123 -1 $-1 $79 -3.1415926535897931 $76 0 $37 $124 forward @7 unknown #
coedge $-1 -1 $-1 $40 $38 $42 $81 forward $74 $-1 #
coedge $-1 -1 $-1 $38 $40 $121 $125 reversed $74 $-1 #
loop $-1 -1 $-1 $-1 $38 $126 #
truecolor-adesk-attrib $-1 -1 $127 $-1 $39 -1029333354 #
vertex $-1 -1 $-1 $39 $128 #
straight-curve $-1 -1 $-1 273.05645342392455 142.78032593047379 334.98693091995762 6.4019986009936105e-14 2.8159227259147146e-13 1000 F 0 F 0.006000000000000001 #
truecolor-adesk-attrib $-1 -1 $129 $-1 $41 -1029333354 #
vertex $-1 -1 $-1 $71 $130 #
straight-curve $-1 -1 $-1 276.55847835642066 147.65226818918086 334.98693091995762 6.4019986009936105e-14 2.8159227259147146e-13 1000 F 0 F 0.006000000000000001 #
edge $131 -1 $-1 $46 0 $45 3.1415926535897931 $42 $132 forward @7 unknown #
DXID-attrib $-1 -1 $-1 $44 $25 @18 ASM_EDGE_FROM_STEP @5 14336 #
point $-1 -1 $-1 276.55847835642066 147.65226818918086 334.98693091995762 #
point $-1 -1 $-1 273.05645342392455 142.78032593047379 334.98693091995762 #
DXID-attrib $-1 -1 $-1 $49 $18 @18 ASM_FACE_FROM_STEP @17 step-2M-849-11684 #
fmesh-eye-attrib $-1 -1 $133 $50 $29 #
truecolor-adesk-attrib $-1 -1 $134 $-1 $51 -1029333354 #
face $135 -1 $-1 $136 $137 $3 $-1 $138 forward single #
loop $-1 -1 $-1 $122 $139 $51 #
plane-surface $-1 -1 $-1 390.08294553148033 144.96372337464845 340.98693091995762 6.401998600993611e-17 2.8159227259147147e-16 1 0.58367082208268684 0.81199037645117478 -2.6601681329143226e-16 forward_v I I I I #
coedge $-1 -1 $-1 $140 $57 $141 $142 forward $52 $-1 #
coedge $-1 -1 $-1 $143 $54 $144 $145 forward $30 $-1 #
coedge $-1 -1 $-1 $54 $143 $146 $147 reversed $30 $-1 #
coedge $-1 -1 $-1 $148 $140 $54 $95 forward $52 $-1 #
edge $149 -1 $-1 $150 0 $151 0.83822572364699299 $54 $152 forward @7 unknown #
coedge $-1 -1 $-1 $56 $55 $153 $154 forward $19 $-1 #
coedge $-1 -1 $-1 $155 $156 $55 $98 reversed $157 $-1 #
edge $158 -1 $-1 $103 0 $159 0.006000000000000001 $55 $160 forward @7 unknown #
coedge $-1 -1 $-1 $161 $141 $56 $100 forward $137 $-1 #
edge $162 -1 $-1 $104 0 $163 0.006000000000000001 $56 $164 forward @7 unknown #
coedge $-1 -1 $-1 $57 $148 $155 $165 forward $52 $-1 #
truecolor-adesk-attrib $-1 -1 $166 $-1 $58 -1029333354 #
vertex $-1 -1 $-1 $58 $167 #
vertex $-1 -1 $-1 $58 $168 #
ellipse-curve $-1 -1 $-1 376.30626294656946 72.257444299491453 334.98693091995762 -6.401998600993611e-17 -2.8159227259147147e-16 -1 -7.0040498649922514 -9.7438845174141111 3.1922017594971913e-15 1 F -3.1415926535897931 F -0.43597819714859154 #
coedge $-1 -1 $-1 $169 $169 $59 $107 forward $170 $-1 #
edge $171 -1 $-1 $115 -3.1415926535897931 $112 1.2246467991473535e-16 $59 $172 forward @7 unknown #
coedge $-1 -1 $-1 $62 $60 $64 $117 forward $110 $-1 #
coedge $-1 -1 $-1 $60 $62 $169 $173 reversed $110 $-1 #
loop $-1 -1 $-1 $-1 $60 $174 #
truecolor-adesk-attrib $-1 -1 $175 $-1 $61 -1029333354 #
vertex $-1 -1 $-1 $61 $176 #
straight-curve $-1 -1 $-1 374.55525048032138 69.821473170137921 334.98693091995762 6.4019986009936105e-14 2.8159227259147146e-13 1000 F 0 F 0.006000000000000001 #
truecolor-adesk-attrib $-1 -1 $177 $-1 $63 -1029333354 #
vertex $-1 -1 $-1 $107 $178 #
straight-curve $-1 -1 $-1 378.05727541281755 74.693415428844986 334.98693091995762 6.4019986009936105e-14 2.8159227259147146e-13 1000 F 0 F 0.006000000000000001 #
edge $179 -1 $-1 $68 1.2246467991473535e-16 $67 3.1415926535897931 $64 $180 forward @7 unknown #
DXID-attrib $-1 -1 $-1 $66 $36 @18 ASM_EDGE_FROM_STEP @4 6843 #
point $-1 -1 $-1 378.05727541281755 74.693415428844986 334.98693091995762 #
point $-1 -1 $-1 374.55525048032138 69.821473170137921 334.98693091995762 #
coedge $-1 -1 $-1 $70 $70 $73 $125 forward $122 $-1 #
loop $-1 -1 $-1 $170 $70 $51 #
truecolor-adesk-attrib $-1 -1 $181 $-1 $71 -1029333354 #
ellipse-curve $-1 -1 $-1 274.80746589017264 145.2162970598273 340.98693091995762 -6.401998600993611e-17 -2.8159227259147147e-16 -1 -1.7510124662480622 -2.4359711293535264 7.9805043987429752e-16 1 F -3.1415926535897931 F 0 #
edge $182 -1 $-1 $76 0 $79 3.1415926535897931 $121 $183 forward @7 unknown #
face $184 -1 $-1 $-1 $74 $3 $-1 $185 reversed single #
DXID-attrib $-1 -1 $-1 $75 $39 @18 ASM_EDGE_FROM_STEP @4 2744 #
point $-1 -1 $-1 273.05645342392455 142.78032593047379 340.98693091995762 #
DXID-attrib $-1 -1 $-1 $78 $41 @18 ASM_EDGE_FROM_STEP @5 28226 #
point $-1 -1 $-1 276.55847835642066 147.65226818918086 340.98693091995762 #
truecolor-adesk-attrib $-1 -1 $186 $-1 $81 -1029333354 #
ellipse-curve $-1 -1 $-1 274.80746589017264 145.2162970598273 334.98693091995762 -6.401998600993611e-17 -2.8159227259147147e-16 -1 -1.7510124662480622 -2.4359711293535264 7.9805043987429752e-16 1 F 0 F 3.1415926535897931 #
DXID-attrib $-1 -1 $-1 $86 $29 @18 ASM_FACE_FROM_STEP @17 step-2M-849-20828 #
fmesh-eye-attrib $-1 -1 $187 $87 $51 #
truecolor-adesk-attrib $-1 -1 $188 $-1 $88 -1029333354 #
face $189 -1 $-1 $190 $191 $3 $-1 $192 forward single #
loop $-1 -1 $-1 $-1 $161 $88 #
cone-surface $-1 -1 $-1 403.85962811639121 217.67000244980545 334.98693091995756 6.401998600993611e-17 2.8159227259147147e-16 1 93.387331533229897 129.91846023218795 -4.2562690126629163e-14 1 I I 0 1 160 forward I I I I #
coedge $-1 -1 $-1 $153 $193 $161 $194 reversed $89 $-1 #
coedge $-1 -1 $-1 $94 $91 $195 $196 forward $52 $-1 #
coedge $-1 -1 $-1 $99 $197 $91 $142 reversed $137 $-1 #
edge $198 -1 $-1 $104 2.7056144564412019 $199 3.5775708507383843 $91 $200 forward @7 unknown #
coedge $-1 -1 $-1 $93 $92 $201 $202 forward $30 $-1 #
coedge $-1 -1 $-1 $195 $203 $92 $145 reversed $191 $-1 #
edge $204 -1 $-1 $150 0 $205 0.006000000000000001 $92 $206 forward @7 unknown #
coedge $-1 -1 $-1 $207 $208 $93 $147 forward $209 $-1 #
edge $210 -1 $-1 $151 0 $211 0.006000000000000001 $93 $212 forward @7 unknown #
coedge $-1 -1 $-1 $101 $94 $208 $213 forward $52 $-1 #
truecolor-adesk-attrib $-1 -1 $214 $-1 $95 -1029333354 #
vertex $-1 -1 $-1 $95 $215 #
vertex $-1 -1 $-1 $95 $216 #
ellipse-curve $-1 -1 $-1 274.80746589017264 145.2162970598273 334.98693091995762 -6.401998600993611e-17 -2.8159227259147147e-16 -1 7.0040498649922514 9.7438845174141111 -3.1922017594971913e-15 1 F 0 F 0.83822572364699299 #
coedge $-1 -1 $-1 $217 $139 $96 $154 reversed $89 $-1 #
edge $218 -1 $-1 $159 -3.1415926535897931 $163 -0.43597819714859154 $96 $219 forward @7 unknown #
coedge $-1 -1 $-1 $220 $97 $101 $165 reversed $157 $-1 #
coedge $-1 -1 $-1 $97 $220 $217 $221 forward $157 $-1 #
loop $-1 -1 $-1 $-1 $97 $222 #
truecolor-adesk-attrib $-1 -1 $223 $-1 $98 -1029333354 #
vertex $-1 -1 $-1 $98 $224 #
straight-curve $-1 -1 $-1 383.31031281156169 82.001328816905556 334.98693091995762 6.4019986009936105e-14 2.8159227259147146e-13 1000 F 0 F 0.006000000000000001 #
coedge $-1 -1 $-1 $197 $99 $139 $194 forward $137 $-1 #
truecolor-adesk-attrib $-1 -1 $225 $-1 $100 -1029333354 #
vertex $-1 -1 $-1 $154 $226 #
straight-curve $-1 -1 $-1 374.07220631117849 60.467236881898401 334.98693091995762 6.4019986009936105e-14 2.8159227259147146e-13 1000 F 0 F 0.006000000000000001 #
edge $227 -1 $-1 $228 2.3033669299428006 $103 3.1415926535897931 $101 $229 forward @7 unknown #
DXID-attrib $-1 -1 $-1 $102 $58 @18 ASM_EDGE_FROM_STEP @5 13285 #
point $-1 -1 $-1 383.31031281156169 82.001328816905556 334.98693091995762 #
point $-1 -1 $-1 374.07220631117849 60.467236881898401 334.98693091995762 #
coedge $-1 -1 $-1 $106 $106 $109 $173 forward $170 $-1 #
loop $-1 -1 $-1 $-1 $106 $51 #
truecolor-adesk-attrib $-1 -1 $230 $-1 $107 -1029333354 #
ellipse-curve $-1 -1 $-1 376.30626294656946 72.257444299491453 340.98693091995762 -6.401998600993611e-17 -2.8159227259147147e-16 -1 -1.7510124662480604 -2.4359711293535242 7.9805043987429673e-16 1 F -3.1415926535897931 F 1.2246467991473535e-16 #
edge $231 -1 $-1 $112 1.2246467991473535e-16 $115 3.1415926535897931 $169 $232 forward @7 unknown #
face $233 -1 $-1 $126 $110 $3 $-1 $234 reversed single #
DXID-attrib $-1 -1 $-1 $111 $61 @18 ASM_EDGE_FROM_STEP @5 23610 #
point $-1 -1 $-1 374.55525048032138 69.821473170137921 340.98693091995762 #
DXID-attrib $-1 -1 $-1 $114 $63 @18 ASM_EDGE_FROM_STEP @4 2192 #
point $-1 -1 $-1 378.05727541281755 74.693415428844986 340.98693091995762 #
truecolor-adesk-attrib $-1 -1 $235 $-1 $117 -1029333354 #
ellipse-curve $-1 -1 $-1 376.30626294656946 72.257444299491453 334.98693091995762 -6.401998600993611e-17 -2.8159227259147147e-16 -1 -1.7510124662480604 -2.4359711293535242 7.9805043987429673e-16 1 F 1.2246467991473535e-16 F 3.1415926535897931 #
DXID-attrib $-1 -1 $-1 $123 $71 @18 ASM_EDGE_FROM_STEP @4 7083 #
truecolor-adesk-attrib $-1 -1 $236 $-1 $125 -1029333354 #
ellipse-curve $-1 -1 $-1 274.80746589017264 145.2162970598273 340.98693091995762 -6.401998600993611e-17 -2.8159227259147147e-16 -1 -1.7510124662480622 -2.4359711293535264 7.9805043987429752e-16 1 F 0 F 3.1415926535897931 #
truecolor-adesk-attrib $-1 -1 $237 $-1 $126 -1029333354 #
cone-surface $-1 -1 $-1 274.80746589017264 145.2162970598273 334.98693091995762 6.401998600993611e-17 2.8159227259147147e-16 1 1.7510124662480622 2.4359711293535264 -7.9805043987429752e-16 1 I I 0 1 3.0000000000000027 forward I I I I #
DXID-attrib $-1 -1 $-1 $131 $81 @18 ASM_EDGE_FROM_STEP @4 2002 #
DXID-attrib $-1 -1 $-1 $134 $51 @18 ASM_FACE_FROM_STEP @17 step-2M-849-17140 #
fmesh-eye-attrib $-1 -1 $238 $135 $88 #
truecolor-adesk-attrib $-1 -1 $239 $-1 $136 -1029333354 #
face $240 -1 $-1 $222 $209 $3 $-1 $241 reversed single #
loop $-1 -1 $-1 $-1 $144 $136 #
cone-surface $-1 -1 $-1 274.80746589017264 145.2162970598273 334.98693091995762 6.401998600993611e-17 2.8159227259147147e-16 1 7.0040498649922514 9.7438845174141111 -3.1922017594971913e-15 1 I I 0 1 12.000000000000018 forward I I I I #
coedge $-1 -1 $-1 $139 $201 $203 $242 reversed $89 $-1 #
edge $243 -1 $-1 $163 2.7056144564412019 $244 3.5775708507383843 $139 $245 forward @7 unknown #
coedge $-1 -1 $-1 $246 $144 $140 $196 reversed $191 $-1 #
edge $247 -1 $-1 $199 -2.7056144564412015 $150 0 $140 $248 forward @7 unknown #
coedge $-1 -1 $-1 $141 $161 $246 $249 reversed $137 $-1 #
truecolor-adesk-attrib $-1 -1 $250 $-1 $142 -1029333354 #
vertex $-1 -1 $-1 $142 $251 #
ellipse-curve $-1 -1 $-1 403.85962811639121 217.67000244980545 334.98693091995756 -6.401998600993611e-17 -2.8159227259147147e-16 -1 93.387331533229897 129.91846023218795 -4.2562690126629163e-14 1 F 2.7056144564412019 F 3.5775708507383843 #
coedge $-1 -1 $-1 $193 $252 $143 $202 reversed $89 $-1 #
edge $253 -1 $-1 $205 0 $211 0.83822572364699299 $143 $254 forward @7 unknown #
coedge $-1 -1 $-1 $144 $246 $193 $242 forward $191 $-1 #
truecolor-adesk-attrib $-1 -1 $255 $-1 $145 -1029333354 #
vertex $-1 -1 $-1 $145 $256 #
straight-curve $-1 -1 $-1 281.81151575516486 154.96018157724143 334.98693091995762 6.4019986009936105e-14 2.8159227259147146e-13 1000 F 0 F 0.006000000000000001 #
coedge $-1 -1 $-1 $257 $146 $252 $258 forward $209 $-1 #
coedge $-1 -1 $-1 $146 $257 $148 $213 reversed $209 $-1 #
loop $-1 -1 $-1 $-1 $207 $190 #
truecolor-adesk-attrib $-1 -1 $259 $-1 $147 -1029333354 #
vertex $-1 -1 $-1 $202 $260 #
straight-curve $-1 -1 $-1 286.73582103766813 146.5256264588777 334.98693091995762 6.4019986009936105e-14 2.8159227259147146e-13 1000 F 0 F 0.006000000000000001 #
edge $261 -1 $-1 $151 2.3033669299428001 $228 3.9798183772367861 $148 $262 forward @7 unknown #
DXID-attrib $-1 -1 $-1 $149 $95 @18 ASM_EDGE_FROM_STEP @5 17966 #
point $-1 -1 $-1 281.81151575516486 154.96018157724143 334.98693091995762 #
point $-1 -1 $-1 286.73582103766813 146.5256264588777 334.98693091995762 #
coedge $-1 -1 $-1 $252 $153 $156 $221 reversed $89 $-1 #
truecolor-adesk-attrib $-1 -1 $263 $-1 $154 -1029333354 #
ellipse-curve $-1 -1 $-1 376.30626294656946 72.257444299491453 340.98693091995762 -6.401998600993611e-17 -2.8159227259147147e-16 -1 -7.0040498649922514 -9.7438845174141111 3.1922017594971913e-15 1 F -3.1415926535897931 F -0.43597819714859154 #
coedge $-1 -1 $-1 $156 $155 $257 $264 forward $157 $-1 #
edge $265 -1 $-1 $266 2.3033669299428006 $159 3.1415926535897931 $217 $267 forward @7 unknown #
face $268 -1 $-1 $174 $157 $3 $-1 $269 forward single #
DXID-attrib $-1 -1 $-1 $158 $98 @18 ASM_EDGE_FROM_STEP @4 9052 #
point $-1 -1 $-1 383.31031281156169 82.001328816905556 340.98693091995762 #
DXID-attrib $-1 -1 $-1 $162 $100 @18 ASM_EDGE_FROM_STEP @5 29603 #
point $-1 -1 $-1 374.07220631117849 60.467236881898401 340.98693091995762 #
truecolor-adesk-attrib $-1 -1 $270 $-1 $165 -1029333354 #
vertex $-1 -1 $-1 $213 $271 #
ellipse-curve $-1 -1 $-1 376.30626294656946 72.257444299491453 334.98693091995762 -6.401998600993611e-17 -2.8159227259147147e-16 -1 -7.0040498649922514 -9.7438845174141111 3.1922017594971913e-15 1 F 2.3033669299428006 F 3.1415926535897931 #
DXID-attrib $-1 -1 $-1 $171 $107 @18 ASM_EDGE_FROM_STEP @5 10623 #
truecolor-adesk-attrib $-1 -1 $272 $-1 $173 -1029333354 #
ellipse-curve $-1 -1 $-1 376.30626294656946 72.257444299491453 340.98693091995762 -6.401998600993611e-17 -2.8159227259147147e-16 -1 -1.7510124662480604 -2.4359711293535242 7.9805043987429673e-16 1 F 1.2246467991473535e-16 F 3.1415926535897931 #
truecolor-adesk-attrib $-1 -1 $273 $-1 $174 -1029333354 #
cone-surface $-1 -1 $-1 376.30626294656946 72.257444299491453 334.98693091995762 6.401998600993611e-17 2.8159227259147147e-16 1 1.7510124662480604 2.4359711293535242 -7.9805043987429673e-16 1 I I 0 1 3.0000000000000004 forward I I I I #
DXID-attrib $-1 -1 $-1 $179 $117 @18 ASM_EDGE_FROM_STEP @5 26233 #
DXID-attrib $-1 -1 $-1 $182 $125 @18 ASM_EDGE_FROM_STEP @4 9803 #
fmesh-eye-attrib $-1 -1 $274 $184 $126 #
DXID-attrib $-1 -1 $-1 $188 $88 @18 ASM_FACE_FROM_STEP @15 step-2M-849-892 #
fmesh-eye-attrib $-1 -1 $275 $189 $136 #
truecolor-adesk-attrib $-1 -1 $276 $-1 $190 -1029333354 #
cone-surface $-1 -1 $-1 358.37220801396262 154.38887552800907 334.98693091995762 6.401998600993611e-17 2.8159227259147147e-16 1 42.063203209974404 58.517429545879821 -1.9170941653071276e-14 1 I I 0 1 72.066654042910926 forward I I I I #
edge $277 -1 $-1 $244 -2.7056144564412015 $205 0 $193 $278 forward @7 unknown #
truecolor-adesk-attrib $-1 -1 $279 $-1 $194 -1029333354 #
vertex $-1 -1 $-1 $194 $280 #
ellipse-curve $-1 -1 $-1 403.85962811639121 217.67000244980545 340.98693091995756 -6.401998600993611e-17 -2.8159227259147147e-16 -1 93.387331533229897 129.91846023218795 -4.2562690126629163e-14 1 F 2.7056144564412019 F 3.5775708507383843 #
coedge $-1 -1 $-1 $203 $195 $197 $249 forward $191 $-1 #
truecolor-adesk-attrib $-1 -1 $281 $-1 $196 -1029333354 #
ellipse-curve $-1 -1 $-1 274.80746589017264 145.2162970598273 334.98693091995762 -6.401998600993611e-17 -2.8159227259147147e-16 -1 7.0040498649922514 9.7438845174141111 -3.1922017594971913e-15 1 F -2.7056144564412015 F 0 #
edge $282 -1 $-1 $199 0 $244 0.006000000000000001 $197 $283 forward @7 unknown #
DXID-attrib $-1 -1 $-1 $198 $142 @18 ASM_EDGE_FROM_STEP @4 1250 #
point $-1 -1 $-1 264.34377706101975 139.34167229847773 334.98693091995762 #
coedge $-1 -1 $-1 $201 $217 $207 $258 reversed $89 $-1 #
truecolor-adesk-attrib $-1 -1 $284 $-1 $202 -1029333354 #
ellipse-curve $-1 -1 $-1 274.80746589017264 145.2162970598273 340.98693091995762 -6.401998600993611e-17 -2.8159227259147147e-16 -1 7.0040498649922514 9.7438845174141111 -3.1922017594971913e-15 1 F 0 F 0.83822572364699299 #
DXID-attrib $-1 -1 $-1 $204 $145 @18 ASM_EDGE_FROM_STEP @5 12795 #
point $-1 -1 $-1 281.81151575516486 154.96018157724143 340.98693091995762 #
coedge $-1 -1 $-1 $208 $207 $220 $264 reversed $209 $-1 #
edge $285 -1 $-1 $211 2.3033669299428001 $266 3.9798183772367861 $252 $286 forward @7 unknown #
DXID-attrib $-1 -1 $-1 $210 $147 @18 ASM_EDGE_FROM_STEP @4 9826 #
point $-1 -1 $-1 286.73582103766813 146.5256264588777 340.98693091995762 #
truecolor-adesk-attrib $-1 -1 $287 $-1 $213 -1029333354 #
ellipse-curve $-1 -1 $-1 358.37220801396262 154.38887552800907 334.98693091995762 6.401998600993611e-17 2.8159227259147147e-16 1 42.063203209974404 58.517429545879821 -1.9170941653071276e-14 1 F 2.3033669299428001 F 3.9798183772367861 #
DXID-attrib $-1 -1 $-1 $218 $154 @18 ASM_EDGE_FROM_STEP @5 13768 #
edge $288 -1 $-1 $228 0 $266 0.006000000000000001 $257 $289 forward @7 unknown #
truecolor-adesk-attrib $-1 -1 $290 $-1 $221 -1029333354 #
vertex $-1 -1 $-1 $221 $291 #
ellipse-curve $-1 -1 $-1 376.30626294656946 72.257444299491453 340.98693091995762 -6.401998600993611e-17 -2.8159227259147147e-16 -1 -7.0040498649922514 -9.7438845174141111 3.1922017594971913e-15 1 F 2.3033669299428006 F 3.1415926535897931 #
truecolor-adesk-attrib $-1 -1 $292 $-1 $222 -1029333354 #
cone-surface $-1 -1 $-1 376.30626294656946 72.257444299491453 334.98693091995762 6.401998600993611e-17 2.8159227259147147e-16 1 7.0040498649922514 9.7438845174141111 -3.1922017594971913e-15 1 I I 0 1 12.000000000000018 forward I I I I #
DXID-attrib $-1 -1 $-1 $227 $165 @18 ASM_EDGE_FROM_STEP @4 6451 #
point $-1 -1 $-1 373.74628644171855 83.981203094972187 334.98693091995762 #
DXID-attrib $-1 -1 $-1 $231 $173 @18 ASM_EDGE_FROM_STEP @5 25015 #
fmesh-eye-attrib $-1 -1 $293 $233 $174 #
DXID-attrib $-1 -1 $-1 $237 $126 @18 ASM_FACE_FROM_STEP @17 step-2M-849-12611 #
DXID-attrib $-1 -1 $-1 $239 $136 @18 ASM_FACE_FROM_STEP @16 step-2M-849-2674 #
fmesh-eye-attrib $-1 -1 $294 $240 $190 #
truecolor-adesk-attrib $-1 -1 $295 $-1 $242 -1029333354 #
ellipse-curve $-1 -1 $-1 274.80746589017264 145.2162970598273 340.98693091995762 -6.401998600993611e-17 -2.8159227259147147e-16 -1 7.0040498649922514 9.7438845174141111 -3.1922017594971913e-15 1 F -2.7056144564412015 F 0 #
DXID-attrib $-1 -1 $-1 $243 $194 @18 ASM_EDGE_FROM_STEP @4 7461 #
point $-1 -1 $-1 264.34377706101975 139.34167229847773 340.98693091995762 #
DXID-attrib $-1 -1 $-1 $247 $196 @18 ASM_EDGE_FROM_STEP @4 3758 #
truecolor-adesk-attrib $-1 -1 $296 $-1 $249 -1029333354 #
straight-curve $-1 -1 $-1 264.34377706101975 139.34167229847773 334.98693091995762 6.4019986009936105e-14 2.8159227259147146e-13 1000 F 0 F 0.006000000000000001 #
DXID-attrib $-1 -1 $-1 $253 $202 @18 ASM_EDGE_FROM_STEP @5 16698 #
truecolor-adesk-attrib $-1 -1 $297 $-1 $258 -1029333354 #
ellipse-curve $-1 -1 $-1 358.37220801396262 154.38887552800907 340.98693091995762 6.401998600993611e-17 2.8159227259147147e-16 1 42.063203209974404 58.517429545879821 -1.9170941653071276e-14 1 F 2.3033669299428001 F 3.9798183772367861 #
DXID-attrib $-1 -1 $-1 $261 $213 @18 ASM_EDGE_FROM_STEP @5 23887 #
truecolor-adesk-attrib $-1 -1 $298 $-1 $264 -1029333354 #
straight-curve $-1 -1 $-1 373.74628644171855 83.981203094972187 334.98693091995762 6.4019986009936105e-14 2.8159227259147146e-13 1000 F 0 F 0.006000000000000001 #
DXID-attrib $-1 -1 $-1 $265 $221 @18 ASM_EDGE_FROM_STEP @5 16304 #
point $-1 -1 $-1 373.74628644171855 83.981203094972187 340.98693091995762 #
fmesh-eye-attrib $-1 -1 $299 $268 $222 #
DXID-attrib $-1 -1 $-1 $273 $174 @18 ASM_FACE_FROM_STEP @17 step-2M-849-27346 #
DXID-attrib $-1 -1 $-1 $276 $190 @18 ASM_FACE_FROM_STEP @17 step-2M-849-11923 #
DXID-attrib $-1 -1 $-1 $277 $242 @18 ASM_EDGE_FROM_STEP @4 9321 #
DXID-attrib $-1 -1 $-1 $282 $249 @18 ASM_EDGE_FROM_STEP @5 13859 #
DXID-attrib $-1 -1 $-1 $285 $258 @18 ASM_EDGE_FROM_STEP @5 26901 #
DXID-attrib $-1 -1 $-1 $288 $264 @18 ASM_EDGE_FROM_STEP @5 31190 #
DXID-attrib $-1 -1 $-1 $292 $222 @18 ASM_FACE_FROM_STEP @17 step-2M-849-16072 #
