700 458 1 0         
5 ZWCAD 12 ACIS 28.0 NT 24 Sat May 11 14:41:18 2024 
1 9.9999999999999995e-07 1e-10 
body $1 -1 $-1 $2 $-1 $-1 #
DXID-attrib $-1 -1 $-1 $-1 $0 @18 ASM_BODY_FROM_STEP @83 84C587BBE563532F8C36AE551ED458B99EA461E0|:|75E001B0538D5BBD0130C7957F1892158B62196C #
lump $-1 -1 $-1 $-1 $3 $0 #
shell $-1 -1 $-1 $-1 $-1 $4 $-1 $2 #
face $5 -1 $-1 $6 $7 $3 $-1 $8 forward single #
truecolor-adesk-attrib $-1 -1 $9 $-1 $4 -1024534343 #
face $10 -1 $-1 $11 $12 $3 $-1 $13 forward single #
loop $-1 -1 $-1 $-1 $14 $4 #
cone-surface $-1 -1 $-1 2428.7566266155491 1744.8655851671169 7.617018127348274e-12 -1.7480184361790729e-30 -8.2140045366837793e-17 1 4.4901280605345288 4.4901280605346239 3.6881932259523323e-16 1 I I 0 1 6.3499999999999988 forward I I I I #
DXID-attrib $-1 -1 $-1 $5 $4 @18 ASM_FACE_FROM_STEP @16 step-1M-587-8556 #
truecolor-adesk-attrib $-1 -1 $15 $-1 $6 -1024534343 #
face $16 -1 $-1 $17 $18 $3 $-1 $19 reversed single #
loop $-1 -1 $-1 $-1 $20 $6 #
plane-surface $-1 -1 $-1 2435.1066266155485 1751.2155851671168 7.617018127348274e-12 3.4450928483976636e-16 1 8.2140045366837805e-17 -25.399999999999995 8.7505358349300639e-15 -4.4010157835928152e-29 forward_v I I I I #
coedge $-1 -1 $-1 $21 $22 $23 $24 forward $7 $-1 #
DXID-attrib $-1 -1 $-1 $10 $6 @18 ASM_FACE_FROM_STEP @16 step-1M-587-8557 #
truecolor-adesk-attrib $-1 -1 $25 $-1 $11 -1024534343 #
face $26 -1 $-1 $27 $28 $3 $-1 $29 forward single #
loop $-1 -1 $-1 $-1 $30 $11 #
plane-surface $-1 -1 $-1 2244.6066266155485 1725.8155851671168 7.617018127348274e-12 -1.7609813876532815e-30 -8.2140045366837805e-17 1 -25.399999999999995 8.7505358349300639e-15 -4.4010157835928052e-29 forward_v I I I I #
coedge $-1 -1 $-1 $31 $32 $22 $33 reversed $12 $-1 #
coedge $-1 -1 $-1 $34 $14 $35 $36 forward $7 $-1 #
coedge $-1 -1 $-1 $14 $34 $20 $33 forward $7 $-1 #
coedge $-1 -1 $-1 $37 $38 $14 $24 reversed $39 $-1 #
edge $40 -1 $-1 $41 -0.78539816339743773 $42 0.78539816339745894 $14 $43 forward @7 unknown #
DXID-attrib $-1 -1 $-1 $16 $11 @18 ASM_FACE_FROM_STEP @16 step-1M-587-8558 #
truecolor-adesk-attrib $-1 -1 $44 $-1 $17 -1024534343 #
face $45 -1 $-1 $46 $47 $3 $-1 $48 reversed single #
loop $-1 -1 $-1 $-1 $49 $17 #
cone-surface $-1 -1 $-1 2060.4566266155489 1744.8655851671169 7.617018127348274e-12 -1.7541814120011121e-30 -8.2140045366837793e-17 1 -4.4901280605345724 4.4901280605345804 3.6881932259521395e-16 1 I I 0 1 6.3499999999999988 forward I I I I #
coedge $-1 -1 $-1 $50 $51 $34 $52 reversed $18 $-1 #
coedge $-1 -1 $-1 $53 $20 $51 $54 forward $12 $-1 #
coedge $-1 -1 $-1 $20 $53 $37 $55 reversed $12 $-1 #
edge $56 -1 $-1 $57 0 $41 1.9050000000000002 $22 $58 forward @7 unknown #
coedge $-1 -1 $-1 $22 $21 $30 $52 forward $7 $-1 #
coedge $-1 -1 $-1 $59 $60 $21 $36 reversed $61 $-1 #
edge $62 -1 $-1 $42 -1.9050000000000002 $63 0 $21 $64 forward @7 unknown #
coedge $-1 -1 $-1 $65 $23 $32 $55 forward $39 $-1 #
coedge $-1 -1 $-1 $23 $66 $59 $67 forward $39 $-1 #
loop $-1 -1 $-1 $-1 $23 $68 #
truecolor-adesk-attrib $-1 -1 $69 $-1 $24 -1024534343 #
vertex $-1 -1 $-1 $24 $70 #
vertex $-1 -1 $-1 $24 $71 #
ellipse-curve $-1 -1 $-1 2428.7566266155491 1744.8655851671169 19.050000000007685 1.7480184361790729e-30 8.2140045366837793e-17 -1 4.4901280605345288 4.4901280605346239 3.6881932259523323e-16 1 F -0.78539816339743773 F 0.78539816339745894 #
DXID-attrib $-1 -1 $-1 $26 $17 @18 ASM_FACE_FROM_STEP @16 step-1M-587-8559 #
truecolor-adesk-attrib $-1 -1 $72 $-1 $27 -1024534343 #
face $73 -1 $-1 $74 $75 $3 $-1 $76 forward single #
loop $-1 -1 $-1 $-1 $77 $27 #
cone-surface $-1 -1 $-1 2409.7066266155489 1700.4155851671169 9.5250000000075943 3.4450928483976636e-16 1 8.2140045366837793e-17 2.6669999999999994 -9.1880626266765653e-16 4.7196865118767126e-30 1 I I 0 1 2.6669999999999994 forward I I I I #
coedge $-1 -1 $-1 $78 $79 $65 $80 forward $28 $-1 #
coedge $-1 -1 $-1 $81 $30 $60 $82 reversed $18 $-1 #
coedge $-1 -1 $-1 $30 $83 $31 $54 reversed $18 $-1 #
edge $84 -1 $-1 $63 -0.78539816339745894 $57 0.78539816339743773 $34 $85 forward @7 unknown #
coedge $-1 -1 $-1 $32 $31 $78 $86 reversed $12 $-1 #
edge $87 -1 $-1 $57 0.63499999999999057 $88 37.464999999999989 $31 $89 forward @7 unknown #
edge $90 -1 $-1 $41 0.63499999999999057 $91 37.464999999999989 $32 $92 forward @7 unknown #
truecolor-adesk-attrib $-1 -1 $93 $-1 $33 -1024534343 #
vertex $-1 -1 $-1 $52 $94 #
straight-curve $-1 -1 $-1 2428.7566266155491 1751.2155851671168 7.617018127348274e-12 -1.7609813876532821e-29 -8.2140045366837855e-16 10.000000000000004 F 0 F 1.9050000000000002 #
coedge $-1 -1 $-1 $95 $35 $38 $67 reversed $61 $-1 #
coedge $-1 -1 $-1 $35 $95 $50 $82 forward $61 $-1 #
loop $-1 -1 $-1 $-1 $35 $96 #
truecolor-adesk-attrib $-1 -1 $97 $-1 $36 -1024534343 #
vertex $-1 -1 $-1 $36 $98 #
straight-curve $-1 -1 $-1 2435.1066266155485 1744.8655851671169 7.617018127348274e-12 1.7609813876532821e-29 8.2140045366837855e-16 -10.000000000000004 F -1.9050000000000002 F 0 #
coedge $-1 -1 $-1 $99 $37 $49 $80 reversed $39 $-1 #
coedge $-1 -1 $-1 $38 $100 $101 $102 forward $39 $-1 #
edge $103 -1 $-1 $104 0 $42 4.4449999999999985 $59 $105 forward @7 unknown #
face $106 -1 $-1 $-1 $39 $3 $-1 $107 forward single #
DXID-attrib $-1 -1 $-1 $40 $24 @18 ASM_EDGE_FROM_STEP @4 5431 #
point $-1 -1 $-1 2428.7566266155491 1751.2155851671168 19.050000000007685 #
point $-1 -1 $-1 2435.1066266155485 1744.8655851671169 19.050000000007685 #
DXID-attrib $-1 -1 $-1 $45 $27 @18 ASM_FACE_FROM_STEP @16 step-1M-587-8560 #
truecolor-adesk-attrib $-1 -1 $108 $-1 $46 -1024534343 #
face $109 -1 $-1 $110 $111 $3 $-1 $112 reversed single #
loop $-1 -1 $-1 $-1 $113 $46 #
plane-surface $-1 -1 $-1 2409.7066266155489 1725.8155851671168 9.5250000000075943 -1.7797583114599312e-16 -1 -8.2140045366837805e-17 25.399999999999995 -4.5205861111082244e-15 4.529684361342114e-29 forward_v I I I I #
coedge $-1 -1 $-1 $114 $115 $116 $117 reversed $47 $-1 #
coedge $-1 -1 $-1 $118 $49 $53 $86 forward $28 $-1 #
coedge $-1 -1 $-1 $49 $118 $119 $120 forward $28 $-1 #
edge $121 -1 $-1 $122 -0.78539816339744906 $91 0.7853981633974475 $49 $123 forward @7 unknown #
coedge $-1 -1 $-1 $124 $50 $125 $126 reversed $18 $-1 #
edge $127 -1 $-1 $128 0 $63 4.4449999999999985 $50 $129 forward @7 unknown #
coedge $-1 -1 $-1 $51 $130 $118 $131 reversed $18 $-1 #
truecolor-adesk-attrib $-1 -1 $132 $-1 $52 -1024534343 #
ellipse-curve $-1 -1 $-1 2428.7566266155491 1744.8655851671169 7.617018127348274e-12 -1.7480184361790729e-30 -8.2140045366837793e-17 1 4.4901280605345288 4.4901280605346239 3.6881932259523323e-16 1 F -0.78539816339745894 F 0.78539816339743773 #
edge $133 -1 $-1 $91 -1.9050000000000002 $88 0 $53 $134 forward @7 unknown #
truecolor-adesk-attrib $-1 -1 $135 $-1 $54 -1024534343 #
vertex $-1 -1 $-1 $54 $136 #
straight-curve $-1 -1 $-1 2435.1066266155485 1751.2155851671168 7.617018127348274e-12 -10.000000000000004 3.445092848397665e-15 -1.7326833793672507e-29 F 0.63499999999999057 F 37.464999999999989 #
truecolor-adesk-attrib $-1 -1 $137 $-1 $55 -1024534343 #
vertex $-1 -1 $-1 $86 $138 #
straight-curve $-1 -1 $-1 2435.1066266155485 1751.2155851671168 19.050000000007685 -10.000000000000004 3.445092848397665e-15 -1.7326833793672507e-29 F 0.63499999999999057 F 37.464999999999989 #
DXID-attrib $-1 -1 $-1 $56 $33 @18 ASM_EDGE_FROM_STEP @4 5434 #
point $-1 -1 $-1 2428.7566266155491 1751.2155851671168 7.617018127348274e-12 #
coedge $-1 -1 $-1 $60 $59 $139 $140 reversed $61 $-1 #
face $141 -1 $-1 $142 $61 $3 $-1 $143 forward single #
DXID-attrib $-1 -1 $-1 $62 $36 @18 ASM_EDGE_FROM_STEP @4 5432 #
point $-1 -1 $-1 2435.1066266155485 1744.8655851671169 7.617018127348274e-12 #
coedge $-1 -1 $-1 $144 $65 $145 $146 forward $39 $-1 #
coedge $-1 -1 $-1 $66 $147 $148 $149 forward $39 $-1 #
coedge $-1 -1 $-1 $150 $139 $66 $102 reversed $151 $-1 #
edge $152 -1 $-1 $153 0 $104 5.0799999999999956 $101 $154 forward @7 unknown #
truecolor-adesk-attrib $-1 -1 $155 $-1 $67 -1024534343 #
vertex $-1 -1 $-1 $67 $156 #
straight-curve $-1 -1 $-1 2435.1066266155485 1700.4155851671169 19.050000000007685 3.445092848397665e-15 10.000000000000004 8.2140045366837855e-16 F 0 F 4.4449999999999985 #
truecolor-adesk-attrib $-1 -1 $157 $-1 $68 -1024534343 #
plane-surface $-1 -1 $-1 2244.6066266155485 1725.8155851671168 19.050000000007685 -1.7609813876532815e-30 -8.2140045366837805e-17 1 -25.399999999999995 8.7505358349300639e-15 -4.4010157835928052e-29 forward_v I I I I #
DXID-attrib $-1 -1 $-1 $73 $46 @18 ASM_FACE_FROM_STEP @16 step-1M-587-8561 #
truecolor-adesk-attrib $-1 -1 $158 $-1 $74 -1024534343 #
face $159 -1 $-1 $160 $161 $3 $-1 $162 forward single #
loop $-1 -1 $-1 $-1 $163 $74 #
cone-surface $-1 -1 $-1 2071.8866266155487 1700.4155851671169 9.5250000000075943 3.4450928483976636e-16 1 8.2140045366837793e-17 2.6669999999999994 -9.1880626266765653e-16 4.7196865118767126e-30 1 I I 0 1 2.6669999999999994 forward I I I I #
coedge $-1 -1 $-1 $113 $113 $164 $165 reversed $75 $-1 #
coedge $-1 -1 $-1 $164 $77 $115 $166 forward $47 $-1 #
coedge $-1 -1 $-1 $77 $164 $114 $166 reversed $47 $-1 #
coedge $-1 -1 $-1 $116 $116 $77 $117 forward $167 $-1 #
edge $168 -1 $-1 $169 -3.1415926535897931 $169 3.1415926535897931 $77 $170 forward @7 unknown #
coedge $-1 -1 $-1 $79 $78 $83 $131 forward $28 $-1 #
coedge $-1 -1 $-1 $171 $145 $79 $120 reversed $172 $-1 #
edge $173 -1 $-1 $174 0 $122 1.9050000000000002 $79 $175 forward @7 unknown #
truecolor-adesk-attrib $-1 -1 $176 $-1 $80 -1024534343 #
vertex $-1 -1 $-1 $80 $177 #
ellipse-curve $-1 -1 $-1 2060.4566266155489 1744.8655851671169 19.050000000007685 1.7541814120011121e-30 8.2140045366837793e-17 -1 -4.4901280605345724 4.4901280605345804 3.6881932259521395e-16 1 F -0.78539816339744906 F 0.7853981633974475 #
coedge $-1 -1 $-1 $178 $81 $179 $180 forward $18 $-1 #
coedge $-1 -1 $-1 $139 $150 $81 $126 forward $151 $-1 #
edge $181 -1 $-1 $182 0 $128 5.0799999999999956 $81 $183 forward @7 unknown #
truecolor-adesk-attrib $-1 -1 $184 $-1 $82 -1024534343 #
vertex $-1 -1 $-1 $82 $185 #
straight-curve $-1 -1 $-1 2435.1066266155485 1700.4155851671169 7.617018127348274e-12 3.445092848397665e-15 10.000000000000004 8.2140045366837855e-16 F 0 F 4.4449999999999985 #
coedge $-1 -1 $-1 $83 $186 $171 $187 reversed $18 $-1 #
edge $188 -1 $-1 $88 -0.7853981633974475 $174 0.78539816339744906 $83 $189 forward @7 unknown #
DXID-attrib $-1 -1 $-1 $84 $52 @18 ASM_EDGE_FROM_STEP @4 5433 #
truecolor-adesk-attrib $-1 -1 $190 $-1 $86 -1024534343 #
straight-curve $-1 -1 $-1 2060.4566266155489 1751.2155851671168 7.617018127348274e-12 1.7609813876532821e-29 8.2140045366837855e-16 -10.000000000000004 F -1.9050000000000002 F 0 #
DXID-attrib $-1 -1 $-1 $87 $54 @18 ASM_EDGE_FROM_STEP @4 5435 #
point $-1 -1 $-1 2060.4566266155489 1751.2155851671168 7.617018127348274e-12 #
DXID-attrib $-1 -1 $-1 $90 $55 @18 ASM_EDGE_FROM_STEP @4 5437 #
point $-1 -1 $-1 2060.4566266155489 1751.2155851671168 19.050000000007685 #
coedge $-1 -1 $-1 $101 $125 $95 $140 forward $151 $-1 #
edge $191 -1 $-1 $128 0 $104 1.9050000000000002 $95 $192 forward @7 unknown #
truecolor-adesk-attrib $-1 -1 $193 $-1 $96 -1024534343 #
face $194 -1 $-1 $68 $151 $3 $-1 $195 forward single #
plane-surface $-1 -1 $-1 2435.1066266155485 1700.4155851671169 7.617018127348274e-12 1 -3.4450928483976636e-16 1.73268337936725e-30 8.7505358349300639e-15 25.399999999999995 2.08635715231768e-15 forward_v I I I I #
coedge $-1 -1 $-1 $196 $99 $197 $198 forward $39 $-1 #
coedge $-1 -1 $-1 $119 $199 $99 $146 reversed $172 $-1 #
edge $200 -1 $-1 $122 0.63500000000000123 $201 5.0799999999999992 $145 $202 forward @7 unknown #
coedge $-1 -1 $-1 $100 $203 $204 $205 forward $39 $-1 #
coedge $-1 -1 $-1 $206 $207 $100 $149 reversed $208 $-1 #
edge $209 -1 $-1 $210 -2.5399999999999978 $153 0 $148 $211 forward @7 unknown #
coedge $-1 -1 $-1 $125 $101 $207 $212 reversed $151 $-1 #
loop $-1 -1 $-1 $167 $125 $142 #
truecolor-adesk-attrib $-1 -1 $213 $-1 $102 -1024534343 #
vertex $-1 -1 $-1 $212 $214 #
straight-curve $-1 -1 $-1 2384.3066266155488 1700.4155851671169 19.050000000007685 10.000000000000004 -3.445092848397665e-15 1.7326833793672507e-29 F 0 F 5.0799999999999956 #
DXID-attrib $-1 -1 $-1 $103 $67 @18 ASM_EDGE_FROM_STEP @4 5476 #
point $-1 -1 $-1 2435.1066266155485 1700.4155851671169 19.050000000007685 #
DXID-attrib $-1 -1 $-1 $106 $68 @18 ASM_FACE_FROM_STEP @16 step-1M-587-8575 #
DXID-attrib $-1 -1 $-1 $109 $74 @18 ASM_FACE_FROM_STEP @16 step-1M-587-8562 #
truecolor-adesk-attrib $-1 -1 $215 $-1 $110 -1024534343 #
face $216 -1 $-1 $217 $208 $3 $-1 $218 forward single #
loop $-1 -1 $-1 $-1 $219 $110 #
plane-surface $-1 -1 $-1 2071.8866266155487 1725.8155851671168 9.5250000000075943 -1.7797583114599312e-16 -1 -8.2140045366837805e-17 25.399999999999995 -4.5205861111082244e-15 4.529684361342114e-29 forward_v I I I I #
coedge $-1 -1 $-1 $220 $221 $222 $223 reversed $111 $-1 #
coedge $-1 -1 $-1 $115 $114 $113 $165 forward $47 $-1 #
edge $224 -1 $-1 $225 -3.1415926535897931 $225 3.1415926535897931 $164 $226 forward @7 unknown #
edge $227 -1 $-1 $169 0 $225 9.5238095238095202 $114 $228 forward @7 unknown #
loop $-1 -1 $-1 $-1 $116 $142 #
truecolor-adesk-attrib $-1 -1 $229 $-1 $117 -1024534343 #
vertex $-1 -1 $-1 $117 $230 #
ellipse-curve $-1 -1 $-1 2409.7066266155489 1700.4155851671169 9.5250000000075943 3.4450928483976636e-16 1 8.2140045366837793e-17 2.6669999999999994 -9.1880626266765653e-16 4.7196865118767126e-30 1 I I #
coedge $-1 -1 $-1 $199 $119 $130 $187 forward $172 $-1 #
loop $-1 -1 $-1 $-1 $119 $231 #
truecolor-adesk-attrib $-1 -1 $232 $-1 $120 -1024534343 #
vertex $-1 -1 $-1 $187 $233 #
straight-curve $-1 -1 $-1 2054.1066266155485 1744.8655851671169 7.617018127348274e-12 -1.7609813876532821e-29 -8.2140045366837855e-16 10.000000000000004 F 0 F 1.9050000000000002 #
DXID-attrib $-1 -1 $-1 $121 $80 @18 ASM_EDGE_FROM_STEP @4 5450 #
point $-1 -1 $-1 2054.1066266155485 1744.8655851671169 19.050000000007685 #
coedge $-1 -1 $-1 $234 $124 $235 $236 forward $18 $-1 #
coedge $-1 -1 $-1 $207 $206 $124 $180 reversed $208 $-1 #
edge $237 -1 $-1 $182 0 $238 2.5399999999999978 $124 $239 forward @7 unknown #
truecolor-adesk-attrib $-1 -1 $240 $-1 $126 -1024534343 #
vertex $-1 -1 $-1 $126 $241 #
straight-curve $-1 -1 $-1 2384.3066266155488 1700.4155851671169 7.617018127348274e-12 10.000000000000004 -3.445092848397665e-15 1.7326833793672507e-29 F 0 F 5.0799999999999956 #
DXID-attrib $-1 -1 $-1 $127 $82 @18 ASM_EDGE_FROM_STEP @4 5438 #
point $-1 -1 $-1 2435.1066266155485 1700.4155851671169 7.617018127348274e-12 #
coedge $-1 -1 $-1 $130 $242 $243 $244 reversed $18 $-1 #
edge $245 -1 $-1 $174 0.63500000000000123 $246 5.0799999999999992 $130 $247 forward @7 unknown #
truecolor-adesk-attrib $-1 -1 $248 $-1 $131 -1024534343 #
ellipse-curve $-1 -1 $-1 2060.4566266155489 1744.8655851671169 7.617018127348274e-12 -1.7541814120011121e-30 -8.2140045366837793e-17 1 -4.4901280605345724 4.4901280605345804 3.6881932259521395e-16 1 F -0.7853981633974475 F 0.78539816339744906 #
DXID-attrib $-1 -1 $-1 $133 $86 @18 ASM_EDGE_FROM_STEP @4 5436 #
truecolor-adesk-attrib $-1 -1 $249 $-1 $140 -1024534343 #
straight-curve $-1 -1 $-1 2435.1066266155485 1700.4155851671169 7.617018127348274e-12 -1.7609813876532821e-29 -8.2140045366837855e-16 10.000000000000004 F 0 F 1.9050000000000002 #
DXID-attrib $-1 -1 $-1 $141 $96 @18 ASM_FACE_FROM_STEP @16 step-1M-587-8573 #
truecolor-adesk-attrib $-1 -1 $250 $-1 $142 -1024534343 #
plane-surface $-1 -1 $-1 2384.3066266155488 1700.4155851671169 7.617018127348274e-12 -3.4450928483976636e-16 -1 -8.2140045366837805e-17 25.399999999999995 -8.7505358349300639e-15 4.4010157835928152e-29 forward_v I I I I #
coedge $-1 -1 $-1 $251 $144 $252 $253 forward $39 $-1 #
coedge $-1 -1 $-1 $254 $255 $144 $198 reversed $256 $-1 #
edge $257 -1 $-1 $201 0 $258 5.0800000000000027 $197 $259 forward @7 unknown #
coedge $-1 -1 $-1 $145 $171 $254 $260 forward $172 $-1 #
truecolor-adesk-attrib $-1 -1 $261 $-1 $146 -1024534343 #
vertex $-1 -1 $-1 $198 $262 #
straight-curve $-1 -1 $-1 2054.1066266155485 1751.2155851671168 19.050000000007685 -3.445092848397665e-15 -10.000000000000004 -8.2140045366837855e-16 F 0.63500000000000123 F 5.0799999999999992 #
coedge $-1 -1 $-1 $147 $263 $264 $265 forward $39 $-1 #
coedge $-1 -1 $-1 $266 $267 $147 $205 reversed $268 $-1 #
edge $269 -1 $-1 $270 -1.9050000000000002 $210 0 $204 $271 forward @7 unknown #
coedge $-1 -1 $-1 $179 $148 $267 $272 reversed $208 $-1 #
coedge $-1 -1 $-1 $148 $179 $150 $212 forward $208 $-1 #
loop $-1 -1 $-1 $-1 $179 $160 #
truecolor-adesk-attrib $-1 -1 $273 $-1 $149 -1024534343 #
vertex $-1 -1 $-1 $149 $274 #
straight-curve $-1 -1 $-1 2384.3066266155488 1700.4155851671169 19.050000000007685 -3.445092848397665e-15 -10.000000000000004 -8.2140045366837855e-16 F -2.5399999999999978 F 0 #
edge $275 -1 $-1 $182 0 $153 1.9050000000000002 $207 $276 forward @7 unknown #
DXID-attrib $-1 -1 $-1 $152 $102 @18 ASM_EDGE_FROM_STEP @4 5478 #
point $-1 -1 $-1 2384.3066266155488 1700.4155851671169 19.050000000007685 #
DXID-attrib $-1 -1 $-1 $159 $110 @18 ASM_FACE_FROM_STEP @16 step-1M-587-8563 #
truecolor-adesk-attrib $-1 -1 $277 $-1 $160 -1024534343 #
face $278 -1 $-1 $279 $268 $3 $-1 $280 forward single #
plane-surface $-1 -1 $-1 2384.3066266155488 1725.8155851671168 7.617018127348274e-12 -1 3.4450928483976636e-16 -1.73268337936725e-30 -8.7505358349300639e-15 -25.399999999999995 -2.08635715231768e-15 forward_v I I I I #
coedge $-1 -1 $-1 $219 $219 $281 $282 reversed $161 $-1 #
coedge $-1 -1 $-1 $281 $163 $221 $283 forward $111 $-1 #
coedge $-1 -1 $-1 $163 $281 $220 $283 reversed $111 $-1 #
coedge $-1 -1 $-1 $222 $222 $163 $223 forward $284 $-1 #
edge $285 -1 $-1 $286 -3.1415926535897931 $286 3.1415926535897931 $163 $287 forward @7 unknown #
truecolor-adesk-attrib $-1 -1 $288 $-1 $165 -1024534343 #
vertex $-1 -1 $-1 $166 $289 #
ellipse-curve $-1 -1 $-1 2409.7066266155489 1725.8155851671168 9.5250000000075943 1.7797583114599312e-16 1 8.2140045366837793e-17 2.6669999999999994 -4.7466154166636347e-16 4.7561685794092206e-30 1 I I #
truecolor-adesk-attrib $-1 -1 $290 $-1 $166 -1024534343 #
straight-curve $-1 -1 $-1 2407.0396266155485 1700.4155851671169 9.5250000000075943 9.1880626266765653e-16 2.6669999999999994 2.1906750099335637e-16 F 0 F 9.5238095238095202 #
DXID-attrib $-1 -1 $-1 $168 $117 @18 ASM_EDGE_FROM_STEP @4 5452 #
point $-1 -1 $-1 2407.0396266155485 1700.4155851671169 9.5250000000075943 #
face $291 -1 $-1 $96 $172 $3 $-1 $292 forward single #
DXID-attrib $-1 -1 $-1 $173 $120 @18 ASM_EDGE_FROM_STEP @4 5451 #
point $-1 -1 $-1 2054.1066266155485 1744.8655851671169 7.617018127348274e-12 #
coedge $-1 -1 $-1 $293 $178 $294 $295 forward $18 $-1 #
coedge $-1 -1 $-1 $267 $266 $178 $236 reversed $268 $-1 #
edge $296 -1 $-1 $238 0 $297 1.9050000000000002 $178 $298 forward @7 unknown #
truecolor-adesk-attrib $-1 -1 $299 $-1 $180 -1024534343 #
vertex $-1 -1 $-1 $180 $300 #
straight-curve $-1 -1 $-1 2384.3066266155488 1700.4155851671169 7.617018127348274e-12 3.445092848397665e-15 10.000000000000004 8.2140045366837855e-16 F 0 F 2.5399999999999978 #
DXID-attrib $-1 -1 $-1 $181 $126 @18 ASM_EDGE_FROM_STEP @4 5439 #
point $-1 -1 $-1 2384.3066266155488 1700.4155851671169 7.617018127348274e-12 #
coedge $-1 -1 $-1 $186 $301 $302 $303 reversed $18 $-1 #
coedge $-1 -1 $-1 $255 $254 $186 $244 forward $256 $-1 #
edge $304 -1 $-1 $246 0 $305 5.0800000000000027 $186 $306 forward @7 unknown #
truecolor-adesk-attrib $-1 -1 $307 $-1 $187 -1024534343 #
vertex $-1 -1 $-1 $244 $308 #
straight-curve $-1 -1 $-1 2054.1066266155485 1751.2155851671168 7.617018127348274e-12 -3.445092848397665e-15 -10.000000000000004 -8.2140045366837855e-16 F 0.63500000000000123 F 5.0799999999999992 #
DXID-attrib $-1 -1 $-1 $188 $131 @18 ASM_EDGE_FROM_STEP @4 5449 #
DXID-attrib $-1 -1 $-1 $191 $140 @18 ASM_EDGE_FROM_STEP @4 5477 #
DXID-attrib $-1 -1 $-1 $194 $142 @18 ASM_FACE_FROM_STEP @16 step-1M-587-8574 #
coedge $-1 -1 $-1 $309 $196 $310 $311 forward $39 $-1 #
coedge $-1 -1 $-1 $312 $313 $196 $253 reversed $314 $-1 #
edge $315 -1 $-1 $258 0 $316 2.5399999999999978 $252 $317 forward @7 unknown #
coedge $-1 -1 $-1 $243 $197 $199 $260 reversed $256 $-1 #
coedge $-1 -1 $-1 $197 $243 $312 $318 forward $256 $-1 #
loop $-1 -1 $-1 $284 $243 $319 #
truecolor-adesk-attrib $-1 -1 $320 $-1 $198 -1024534343 #
vertex $-1 -1 $-1 $253 $321 #
straight-curve $-1 -1 $-1 2054.1066266155485 1700.4155851671169 19.050000000007685 10.000000000000004 -3.445092848397665e-15 1.7326833793672507e-29 F 0 F 5.0800000000000027 #
edge $322 -1 $-1 $246 0 $201 1.9050000000000002 $254 $323 forward @7 unknown #
DXID-attrib $-1 -1 $-1 $200 $146 @18 ASM_EDGE_FROM_STEP @4 5475 #
point $-1 -1 $-1 2054.1066266155485 1700.4155851671169 19.050000000007685 #
coedge $-1 -1 $-1 $203 $309 $324 $325 forward $39 $-1 #
coedge $-1 -1 $-1 $326 $327 $203 $265 reversed $328 $-1 #
edge $329 -1 $-1 $330 -2.5399999999999978 $270 0 $264 $331 forward @7 unknown #
coedge $-1 -1 $-1 $235 $204 $327 $332 reversed $268 $-1 #
coedge $-1 -1 $-1 $204 $235 $206 $272 forward $268 $-1 #
loop $-1 -1 $-1 $-1 $235 $217 #
truecolor-adesk-attrib $-1 -1 $333 $-1 $205 -1024534343 #
vertex $-1 -1 $-1 $205 $334 #
straight-curve $-1 -1 $-1 2384.3066266155488 1725.8155851671168 19.050000000007685 10.000000000000004 -3.445092848397665e-15 1.7326833793672507e-29 F -1.9050000000000002 F 0 #
edge $335 -1 $-1 $238 0 $210 1.9050000000000002 $206 $336 forward @7 unknown #
DXID-attrib $-1 -1 $-1 $209 $149 @18 ASM_EDGE_FROM_STEP @4 5459 #
point $-1 -1 $-1 2384.3066266155488 1725.8155851671168 19.050000000007685 #
truecolor-adesk-attrib $-1 -1 $337 $-1 $212 -1024534343 #
straight-curve $-1 -1 $-1 2384.3066266155488 1700.4155851671169 7.617018127348274e-12 -1.7609813876532821e-29 -8.2140045366837855e-16 10.000000000000004 F 0 F 1.9050000000000002 #
DXID-attrib $-1 -1 $-1 $216 $160 @18 ASM_FACE_FROM_STEP @16 step-1M-587-8564 #
truecolor-adesk-attrib $-1 -1 $338 $-1 $217 -1024534343 #
face $339 -1 $-1 $340 $328 $3 $-1 $341 forward single #
plane-surface $-1 -1 $-1 2365.2566266155491 1725.8155851671168 7.617018127348274e-12 -3.4450928483976636e-16 -1 -8.2140045366837805e-17 25.399999999999995 -8.7505358349300639e-15 4.4010157835928152e-29 forward_v I I I I #
coedge $-1 -1 $-1 $221 $220 $219 $282 forward $111 $-1 #
edge $342 -1 $-1 $343 -3.1415926535897931 $343 3.1415926535897931 $281 $344 forward @7 unknown #
edge $345 -1 $-1 $286 0 $343 9.5238095238095202 $220 $346 forward @7 unknown #
loop $-1 -1 $-1 $-1 $222 $319 #
truecolor-adesk-attrib $-1 -1 $347 $-1 $223 -1024534343 #
vertex $-1 -1 $-1 $223 $348 #
ellipse-curve $-1 -1 $-1 2071.8866266155487 1700.4155851671169 9.5250000000075943 3.4450928483976636e-16 1 8.2140045366837793e-17 2.6669999999999994 -9.1880626266765653e-16 4.7196865118767126e-30 1 I I #
DXID-attrib $-1 -1 $-1 $224 $165 @18 ASM_EDGE_FROM_STEP @4 5454 #
point $-1 -1 $-1 2407.0396266155485 1725.8155851671168 9.5250000000075943 #
DXID-attrib $-1 -1 $-1 $227 $166 @18 ASM_EDGE_FROM_STEP @4 5453 #
truecolor-adesk-attrib $-1 -1 $349 $-1 $231 -1024534343 #
plane-surface $-1 -1 $-1 2054.1066266155485 1751.2155851671168 7.617018127348274e-12 -1 3.4450928483976636e-16 -1.73268337936725e-30 -8.7505358349300639e-15 -25.399999999999995 -2.08635715231768e-15 forward_v I I I I #
coedge $-1 -1 $-1 $350 $234 $351 $352 reversed $18 $-1 #
coedge $-1 -1 $-1 $327 $326 $234 $295 reversed $328 $-1 #
edge $353 -1 $-1 $297 0 $354 2.5399999999999978 $234 $355 forward @7 unknown #
truecolor-adesk-attrib $-1 -1 $356 $-1 $236 -1024534343 #
vertex $-1 -1 $-1 $236 $357 #
straight-curve $-1 -1 $-1 2384.3066266155488 1725.8155851671168 7.617018127348274e-12 -10.000000000000004 3.445092848397665e-15 -1.7326833793672507e-29 F 0 F 1.9050000000000002 #
DXID-attrib $-1 -1 $-1 $237 $180 @18 ASM_EDGE_FROM_STEP @4 5440 #
point $-1 -1 $-1 2384.3066266155488 1725.8155851671168 7.617018127348274e-12 #
coedge $-1 -1 $-1 $242 $350 $358 $359 reversed $18 $-1 #
coedge $-1 -1 $-1 $313 $312 $242 $303 forward $314 $-1 #
edge $360 -1 $-1 $305 0 $361 2.5399999999999978 $242 $362 forward @7 unknown #
truecolor-adesk-attrib $-1 -1 $363 $-1 $244 -1024534343 #
vertex $-1 -1 $-1 $303 $364 #
straight-curve $-1 -1 $-1 2054.1066266155485 1700.4155851671169 7.617018127348274e-12 10.000000000000004 -3.445092848397665e-15 1.7326833793672507e-29 F 0 F 5.0800000000000027 #
DXID-attrib $-1 -1 $-1 $245 $187 @18 ASM_EDGE_FROM_STEP @4 5448 #
point $-1 -1 $-1 2054.1066266155485 1700.4155851671169 7.617018127348274e-12 #
coedge $-1 -1 $-1 $263 $251 $365 $366 forward $39 $-1 #
coedge $-1 -1 $-1 $367 $368 $251 $311 reversed $369 $-1 #
edge $370 -1 $-1 $316 0 $371 1.9049999999999931 $310 $372 forward @7 unknown #
coedge $-1 -1 $-1 $302 $252 $255 $318 reversed $314 $-1 #
coedge $-1 -1 $-1 $252 $302 $367 $373 forward $314 $-1 #
loop $-1 -1 $-1 $-1 $302 $374 #
truecolor-adesk-attrib $-1 -1 $375 $-1 $253 -1024534343 #
vertex $-1 -1 $-1 $311 $376 #
straight-curve $-1 -1 $-1 2104.9066266155487 1700.4155851671169 19.050000000007685 3.445092848397665e-15 10.000000000000004 8.2140045366837855e-16 F 0 F 2.5399999999999978 #
edge $377 -1 $-1 $305 0 $258 1.9050000000000002 $312 $378 forward @7 unknown #
face $379 -1 $-1 $231 $256 $3 $-1 $380 forward single #
DXID-attrib $-1 -1 $-1 $257 $198 @18 ASM_EDGE_FROM_STEP @4 5473 #
point $-1 -1 $-1 2104.9066266155487 1700.4155851671169 19.050000000007685 #
truecolor-adesk-attrib $-1 -1 $381 $-1 $260 -1024534343 #
straight-curve $-1 -1 $-1 2054.1066266155485 1700.4155851671169 7.617018127348274e-12 -1.7609813876532821e-29 -8.2140045366837855e-16 10.000000000000004 F 0 F 1.9050000000000002 #
coedge $-1 -1 $-1 $382 $383 $263 $325 reversed $384 $-1 #
edge $385 -1 $-1 $386 0 $330 24.129999999999999 $324 $387 forward @7 unknown #
coedge $-1 -1 $-1 $294 $264 $383 $388 reversed $328 $-1 #
coedge $-1 -1 $-1 $264 $294 $266 $332 forward $328 $-1 #
loop $-1 -1 $-1 $-1 $294 $279 #
truecolor-adesk-attrib $-1 -1 $389 $-1 $265 -1024534343 #
vertex $-1 -1 $-1 $265 $390 #
straight-curve $-1 -1 $-1 2365.2566266155491 1725.8155851671168 19.050000000007685 3.445092848397665e-15 10.000000000000004 8.2140045366837855e-16 F -2.5399999999999978 F 0 #
edge $391 -1 $-1 $297 0 $270 1.9050000000000002 $266 $392 forward @7 unknown #
DXID-attrib $-1 -1 $-1 $269 $205 @18 ASM_EDGE_FROM_STEP @4 5461 #
point $-1 -1 $-1 2365.2566266155491 1725.8155851671168 19.050000000007685 #
truecolor-adesk-attrib $-1 -1 $393 $-1 $272 -1024534343 #
straight-curve $-1 -1 $-1 2384.3066266155488 1725.8155851671168 7.617018127348274e-12 -1.7609813876532821e-29 -8.2140045366837855e-16 10.000000000000004 F 0 F 1.9050000000000002 #
DXID-attrib $-1 -1 $-1 $275 $212 @18 ASM_EDGE_FROM_STEP @4 5458 #
DXID-attrib $-1 -1 $-1 $278 $217 @18 ASM_FACE_FROM_STEP @16 step-1M-587-8565 #
truecolor-adesk-attrib $-1 -1 $394 $-1 $279 -1024534343 #
face $395 -1 $-1 $396 $384 $3 $-1 $397 forward single #
plane-surface $-1 -1 $-1 2365.2566266155491 1700.4155851671169 7.617018127348274e-12 1 -3.4450928483976636e-16 1.73268337936725e-30 8.7505358349300639e-15 25.399999999999995 2.08635715231768e-15 forward_v I I I I #
truecolor-adesk-attrib $-1 -1 $398 $-1 $282 -1024534343 #
vertex $-1 -1 $-1 $283 $399 #
ellipse-curve $-1 -1 $-1 2071.8866266155487 1725.8155851671168 9.5250000000075943 1.7797583114599312e-16 1 8.2140045366837793e-17 2.6669999999999994 -4.7466154166636347e-16 4.7561685794092206e-30 1 I I #
truecolor-adesk-attrib $-1 -1 $400 $-1 $283 -1024534343 #
straight-curve $-1 -1 $-1 2069.2196266155488 1700.4155851671169 9.5250000000075943 9.1880626266765653e-16 2.6669999999999994 2.1906750099335637e-16 F 0 F 9.5238095238095202 #
DXID-attrib $-1 -1 $-1 $285 $223 @18 ASM_EDGE_FROM_STEP @4 5455 #
point $-1 -1 $-1 2069.2196266155488 1700.4155851671169 9.5250000000075943 #
DXID-attrib $-1 -1 $-1 $291 $231 @18 ASM_FACE_FROM_STEP @16 step-1M-587-8572 #
coedge $-1 -1 $-1 $301 $293 $401 $402 reversed $18 $-1 #
coedge $-1 -1 $-1 $383 $382 $293 $352 forward $384 $-1 #
edge $403 -1 $-1 $404 0 $354 24.129999999999999 $293 $405 forward @7 unknown #
truecolor-adesk-attrib $-1 -1 $406 $-1 $295 -1024534343 #
vertex $-1 -1 $-1 $295 $407 #
straight-curve $-1 -1 $-1 2365.2566266155491 1725.8155851671168 7.617018127348274e-12 -3.445092848397665e-15 -10.000000000000004 -8.2140045366837855e-16 F 0 F 2.5399999999999978 #
DXID-attrib $-1 -1 $-1 $296 $236 @18 ASM_EDGE_FROM_STEP @4 5441 #
point $-1 -1 $-1 2365.2566266155491 1725.8155851671168 7.617018127348274e-12 #
coedge $-1 -1 $-1 $368 $367 $301 $359 forward $369 $-1 #
edge $408 -1 $-1 $361 0 $409 1.9049999999999931 $301 $410 forward @7 unknown #
truecolor-adesk-attrib $-1 -1 $411 $-1 $303 -1024534343 #
vertex $-1 -1 $-1 $359 $412 #
straight-curve $-1 -1 $-1 2104.9066266155487 1700.4155851671169 7.617018127348274e-12 3.445092848397665e-15 10.000000000000004 8.2140045366837855e-16 F 0 F 2.5399999999999978 #
DXID-attrib $-1 -1 $-1 $304 $244 @18 ASM_EDGE_FROM_STEP @4 5447 #
point $-1 -1 $-1 2104.9066266155487 1700.4155851671169 7.617018127348274e-12 #
coedge $-1 -1 $-1 $413 $414 $309 $366 reversed $415 $-1 #
edge $416 -1 $-1 $371 0 $386 2.5399999999999978 $365 $417 forward @7 unknown #
coedge $-1 -1 $-1 $358 $310 $313 $373 reversed $369 $-1 #
coedge $-1 -1 $-1 $310 $358 $413 $418 forward $369 $-1 #
loop $-1 -1 $-1 $-1 $358 $419 #
truecolor-adesk-attrib $-1 -1 $420 $-1 $311 -1024534343 #
vertex $-1 -1 $-1 $366 $421 #
straight-curve $-1 -1 $-1 2104.9066266155487 1725.8155851671168 19.050000000007685 10.000000000000004 -3.445092848397665e-15 1.7326833793672507e-29 F 0 F 1.9049999999999931 #
edge $422 -1 $-1 $361 0 $316 1.9050000000000002 $367 $423 forward @7 unknown #
face $424 -1 $-1 $319 $314 $3 $-1 $425 forward single #
DXID-attrib $-1 -1 $-1 $315 $253 @18 ASM_EDGE_FROM_STEP @4 5471 #
point $-1 -1 $-1 2104.9066266155487 1725.8155851671168 19.050000000007685 #
truecolor-adesk-attrib $-1 -1 $426 $-1 $318 -1024534343 #
straight-curve $-1 -1 $-1 2104.9066266155487 1700.4155851671169 7.617018127348274e-12 -1.7609813876532821e-29 -8.2140045366837855e-16 10.000000000000004 F 0 F 1.9050000000000002 #
truecolor-adesk-attrib $-1 -1 $427 $-1 $319 -1024534343 #
plane-surface $-1 -1 $-1 2054.1066266155485 1700.4155851671169 7.617018127348274e-12 -3.4450928483976636e-16 -1 -8.2140045366837805e-17 25.399999999999995 -8.7505358349300639e-15 4.4010157835928152e-29 forward_v I I I I #
DXID-attrib $-1 -1 $-1 $322 $260 @18 ASM_EDGE_FROM_STEP @4 5474 #
coedge $-1 -1 $-1 $351 $324 $414 $428 reversed $384 $-1 #
coedge $-1 -1 $-1 $324 $351 $326 $388 forward $384 $-1 #
loop $-1 -1 $-1 $-1 $351 $340 #
truecolor-adesk-attrib $-1 -1 $429 $-1 $325 -1024534343 #
vertex $-1 -1 $-1 $325 $430 #
straight-curve $-1 -1 $-1 2123.9566266155489 1700.4155851671169 19.050000000007685 10.000000000000004 -3.445092848397665e-15 1.7326833793672507e-29 F 0 F 24.129999999999999 #
edge $431 -1 $-1 $354 0 $330 1.9050000000000002 $326 $432 forward @7 unknown #
DXID-attrib $-1 -1 $-1 $329 $265 @18 ASM_EDGE_FROM_STEP @4 5463 #
point $-1 -1 $-1 2365.2566266155491 1700.4155851671169 19.050000000007685 #
truecolor-adesk-attrib $-1 -1 $433 $-1 $332 -1024534343 #
straight-curve $-1 -1 $-1 2365.2566266155491 1725.8155851671168 7.617018127348274e-12 -1.7609813876532821e-29 -8.2140045366837855e-16 10.000000000000004 F 0 F 1.9050000000000002 #
DXID-attrib $-1 -1 $-1 $335 $272 @18 ASM_EDGE_FROM_STEP @4 5460 #
DXID-attrib $-1 -1 $-1 $339 $279 @18 ASM_FACE_FROM_STEP @16 step-1M-587-8566 #
truecolor-adesk-attrib $-1 -1 $434 $-1 $340 -1024534343 #
face $435 -1 $-1 $419 $415 $3 $-1 $436 forward single #
plane-surface $-1 -1 $-1 2123.9566266155489 1700.4155851671169 7.617018127348274e-12 -3.4450928483976636e-16 -1 -8.2140045366837805e-17 25.399999999999995 -8.7505358349300639e-15 4.4010157835928152e-29 forward_v I I I I #
DXID-attrib $-1 -1 $-1 $342 $282 @18 ASM_EDGE_FROM_STEP @4 5457 #
point $-1 -1 $-1 2069.2196266155488 1725.8155851671168 9.5250000000075943 #
DXID-attrib $-1 -1 $-1 $345 $283 @18 ASM_EDGE_FROM_STEP @4 5456 #
coedge $-1 -1 $-1 $414 $413 $350 $402 forward $415 $-1 #
edge $437 -1 $-1 $409 0 $404 2.5399999999999978 $350 $438 forward @7 unknown #
truecolor-adesk-attrib $-1 -1 $439 $-1 $352 -1024534343 #
vertex $-1 -1 $-1 $352 $440 #
straight-curve $-1 -1 $-1 2123.9566266155489 1700.4155851671169 7.617018127348274e-12 10.000000000000004 -3.445092848397665e-15 1.7326833793672507e-29 F 0 F 24.129999999999999 #
DXID-attrib $-1 -1 $-1 $353 $295 @18 ASM_EDGE_FROM_STEP @4 5442 #
point $-1 -1 $-1 2365.2566266155491 1700.4155851671169 7.617018127348274e-12 #
truecolor-adesk-attrib $-1 -1 $441 $-1 $359 -1024534343 #
vertex $-1 -1 $-1 $402 $442 #
straight-curve $-1 -1 $-1 2104.9066266155487 1725.8155851671168 7.617018127348274e-12 10.000000000000004 -3.445092848397665e-15 1.7326833793672507e-29 F 0 F 1.9049999999999931 #
DXID-attrib $-1 -1 $-1 $360 $303 @18 ASM_EDGE_FROM_STEP @4 5446 #
point $-1 -1 $-1 2104.9066266155487 1725.8155851671168 7.617018127348274e-12 #
coedge $-1 -1 $-1 $401 $365 $368 $418 reversed $415 $-1 #
coedge $-1 -1 $-1 $365 $401 $382 $428 forward $415 $-1 #
loop $-1 -1 $-1 $-1 $401 $396 #
truecolor-adesk-attrib $-1 -1 $443 $-1 $366 -1024534343 #
straight-curve $-1 -1 $-1 2123.9566266155489 1725.8155851671168 19.050000000007685 -3.445092848397665e-15 -10.000000000000004 -8.2140045366837855e-16 F 0 F 2.5399999999999978 #
edge $444 -1 $-1 $409 0 $371 1.9050000000000002 $413 $445 forward @7 unknown #
face $446 -1 $-1 $374 $369 $3 $-1 $447 forward single #
DXID-attrib $-1 -1 $-1 $370 $311 @18 ASM_EDGE_FROM_STEP @4 5469 #
point $-1 -1 $-1 2123.9566266155489 1725.8155851671168 19.050000000007685 #
truecolor-adesk-attrib $-1 -1 $448 $-1 $373 -1024534343 #
straight-curve $-1 -1 $-1 2104.9066266155487 1725.8155851671168 7.617018127348274e-12 -1.7609813876532821e-29 -8.2140045366837855e-16 10.000000000000004 F 0 F 1.9050000000000002 #
truecolor-adesk-attrib $-1 -1 $449 $-1 $374 -1024534343 #
plane-surface $-1 -1 $-1 2104.9066266155487 1700.4155851671169 7.617018127348274e-12 1 -3.4450928483976636e-16 1.73268337936725e-30 8.7505358349300639e-15 25.399999999999995 2.08635715231768e-15 forward_v I I I I #
DXID-attrib $-1 -1 $-1 $377 $318 @18 ASM_EDGE_FROM_STEP @4 5472 #
DXID-attrib $-1 -1 $-1 $379 $319 @18 ASM_FACE_FROM_STEP @16 step-1M-587-8571 #
edge $450 -1 $-1 $404 0 $386 1.9050000000000002 $382 $451 forward @7 unknown #
DXID-attrib $-1 -1 $-1 $385 $325 @18 ASM_EDGE_FROM_STEP @4 5465 #
point $-1 -1 $-1 2123.9566266155489 1700.4155851671169 19.050000000007685 #
truecolor-adesk-attrib $-1 -1 $452 $-1 $388 -1024534343 #
straight-curve $-1 -1 $-1 2365.2566266155491 1700.4155851671169 7.617018127348274e-12 -1.7609813876532821e-29 -8.2140045366837855e-16 10.000000000000004 F 0 F 1.9050000000000002 #
DXID-attrib $-1 -1 $-1 $391 $332 @18 ASM_EDGE_FROM_STEP @4 5462 #
DXID-attrib $-1 -1 $-1 $395 $340 @18 ASM_FACE_FROM_STEP @16 step-1M-587-8567 #
truecolor-adesk-attrib $-1 -1 $453 $-1 $396 -1024534343 #
plane-surface $-1 -1 $-1 2123.9566266155489 1725.8155851671168 7.617018127348274e-12 -1 3.4450928483976636e-16 -1.73268337936725e-30 -8.7505358349300639e-15 -25.399999999999995 -2.08635715231768e-15 forward_v I I I I #
truecolor-adesk-attrib $-1 -1 $454 $-1 $402 -1024534343 #
straight-curve $-1 -1 $-1 2123.9566266155489 1725.8155851671168 7.617018127348274e-12 -3.445092848397665e-15 -10.000000000000004 -8.2140045366837855e-16 F 0 F 2.5399999999999978 #
DXID-attrib $-1 -1 $-1 $403 $352 @18 ASM_EDGE_FROM_STEP @4 5443 #
point $-1 -1 $-1 2123.9566266155489 1700.4155851671169 7.617018127348274e-12 #
DXID-attrib $-1 -1 $-1 $408 $359 @18 ASM_EDGE_FROM_STEP @4 5445 #
point $-1 -1 $-1 2123.9566266155489 1725.8155851671168 7.617018127348274e-12 #
DXID-attrib $-1 -1 $-1 $416 $366 @18 ASM_EDGE_FROM_STEP @4 5467 #
truecolor-adesk-attrib $-1 -1 $455 $-1 $418 -1024534343 #
straight-curve $-1 -1 $-1 2123.9566266155489 1725.8155851671168 7.617018127348274e-12 -1.7609813876532821e-29 -8.2140045366837855e-16 10.000000000000004 F 0 F 1.9050000000000002 #
truecolor-adesk-attrib $-1 -1 $456 $-1 $419 -1024534343 #
plane-surface $-1 -1 $-1 2104.9066266155487 1725.8155851671168 7.617018127348274e-12 -3.4450928483976636e-16 -1 -8.2140045366837805e-17 25.399999999999995 -8.7505358349300639e-15 4.4010157835928152e-29 forward_v I I I I #
DXID-attrib $-1 -1 $-1 $422 $373 @18 ASM_EDGE_FROM_STEP @4 5470 #
DXID-attrib $-1 -1 $-1 $424 $374 @18 ASM_FACE_FROM_STEP @16 step-1M-587-8570 #
truecolor-adesk-attrib $-1 -1 $457 $-1 $428 -1024534343 #
straight-curve $-1 -1 $-1 2123.9566266155489 1700.4155851671169 7.617018127348274e-12 -1.7609813876532821e-29 -8.2140045366837855e-16 10.000000000000004 F 0 F 1.9050000000000002 #
DXID-attrib $-1 -1 $-1 $431 $388 @18 ASM_EDGE_FROM_STEP @4 5464 #
DXID-attrib $-1 -1 $-1 $435 $396 @18 ASM_FACE_FROM_STEP @16 step-1M-587-8568 #
DXID-attrib $-1 -1 $-1 $437 $402 @18 ASM_EDGE_FROM_STEP @4 5444 #
DXID-attrib $-1 -1 $-1 $444 $418 @18 ASM_EDGE_FROM_STEP @4 5468 #
DXID-attrib $-1 -1 $-1 $446 $419 @18 ASM_FACE_FROM_STEP @16 step-1M-587-8569 #
DXID-attrib $-1 -1 $-1 $450 $428 @18 ASM_EDGE_FROM_STEP @4 5466 #
