700 172 1 0         
16 Autodesk AutoCAD 20 ASM 229.2.0.65535 NT 24 Wed Mar  6 07:11:24 2024 
1 9.999999999999999547e-07 1.000000000000000036e-10 
body $1 -1 $-1 $2 $-1 $3 #
DXID-attrib $-1 -1 $-1 $-1 $0 @18 ASM_BODY_FROM_STEP @83 6A0B94C40131C03C8C55FD0C22457E776AAD52C0|:|00F17E67A45FEF768271B39AEAEBA8C0F73A753E #
lump $-1 -1 $-1 $-1 $4 $0 #
transform $-1 -1 1 0 0 0 1 0 0 0 1 0 0 0 1 no_rotate no_reflect no_shear #
shell $-1 -1 $-1 $-1 $-1 $5 $-1 $2 #
face $6 -1 $-1 $7 $8 $4 $-1 $9 forward single #
truecolor-adesk-attrib $-1 -1 $10 $-1 $5 -1025055002 #
face $11 -1 $-1 $12 $13 $4 $-1 $14 reversed single #
loop $-1 -1 $-1 $-1 $15 $5 #
plane-surface $-1 -1 $-1 1.5 0.8599999999999999867 0.4400000000000000577 -4.517509052022940401e-16 -1 0 -1000 4.517509052022940527e-13 0 forward_v I I I I #
color-adesk-attrib $-1 -1 $16 $6 $5 254 #
truecolor-adesk-attrib $-1 -1 $17 $-1 $7 -1025055002 #
face $18 -1 $-1 $19 $20 $4 $-1 $21 reversed single #
loop $-1 -1 $-1 $-1 $22 $7 #
plane-surface $-1 -1 $-1 1.260000000000000009 1.68000000000000016 0.4400000000000000577 1 -3.966593313971360115e-16 0 -3.966593313971360296e-13 -1000 0 forward_v I I I I #
coedge $-1 -1 $-1 $23 $24 $25 $26 forward $8 $-1 #
DXID-attrib $-1 -1 $-1 $10 $5 @18 ASM_FACE_FROM_STEP @16 step-1M-630-1074 #
color-adesk-attrib $-1 -1 $27 $11 $7 254 #
truecolor-adesk-attrib $-1 -1 $28 $-1 $12 -1025055002 #
face $29 -1 $-1 $30 $31 $4 $-1 $32 forward single #
loop $-1 -1 $-1 $-1 $33 $12 #
plane-surface $-1 -1 $-1 1.5 2.5 0.4400000000000000577 0 -1 0 0 0 1000 forward_v I I I I #
coedge $-1 -1 $-1 $34 $35 $36 $37 forward $13 $-1 #
coedge $-1 -1 $-1 $38 $15 $39 $40 reversed $8 $-1 #
coedge $-1 -1 $-1 $15 $38 $41 $42 forward $8 $-1 #
coedge $-1 -1 $-1 $43 $44 $15 $26 reversed $45 $-1 #
edge $46 -1 $-1 $47 -0.0002399999999999999248 $48 0.0002399999999999999248 $15 $49 forward @7 unknown #
DXID-attrib $-1 -1 $-1 $17 $7 @18 ASM_FACE_FROM_STEP @16 step-1M-630-1075 #
color-adesk-attrib $-1 -1 $50 $18 $12 254 #
truecolor-adesk-attrib $-1 -1 $51 $-1 $19 -1025055002 #
face $52 -1 $-1 $53 $54 $4 $-1 $55 forward single #
loop $-1 -1 $-1 $-1 $56 $19 #
plane-surface $-1 -1 $-1 1.739999999999999991 1.68000000000000016 0.4400000000000000577 1 -3.966593313971360115e-16 0 -3.966593313971360296e-13 -1000 0 forward_v I I I I #
coedge $-1 -1 $-1 $57 $58 $59 $60 forward $20 $-1 #
coedge $-1 -1 $-1 $41 $22 $43 $61 reversed $13 $-1 #
coedge $-1 -1 $-1 $22 $62 $63 $64 reversed $13 $-1 #
coedge $-1 -1 $-1 $58 $57 $22 $37 reversed $20 $-1 #
edge $65 -1 $-1 $66 0.0002200000000000000349 $67 0.0004400000000000000699 $22 $68 forward @7 unknown #
coedge $-1 -1 $-1 $24 $23 $69 $70 reversed $8 $-1 #
coedge $-1 -1 $-1 $71 $56 $23 $40 forward $31 $-1 #
edge $72 -1 $-1 $73 0 $48 0.0004400000000000000699 $23 $74 forward @7 unknown #
coedge $-1 -1 $-1 $62 $34 $24 $42 reversed $13 $-1 #
edge $75 -1 $-1 $76 0 $47 0.0004400000000000000699 $24 $77 forward @7 unknown #
coedge $-1 -1 $-1 $78 $25 $34 $61 forward $45 $-1 #
coedge $-1 -1 $-1 $25 $78 $71 $79 reversed $45 $-1 #
loop $-1 -1 $-1 $-1 $25 $53 #
truecolor-adesk-attrib $-1 -1 $80 $-1 $26 -1025055002 #
vertex $-1 -1 $-1 $26 $81 #
vertex $-1 -1 $-1 $26 $82 #
straight-curve $-1 -1 $-1 1.5 0.8599999999999999867 0 1000 -4.517509052022940527e-13 0 F -0.0002399999999999999248 F 0.0002399999999999999248 #
DXID-attrib $-1 -1 $-1 $28 $12 @18 ASM_FACE_FROM_STEP @16 step-1M-630-1076 #
color-adesk-attrib $-1 -1 $83 $29 $19 254 #
truecolor-adesk-attrib $-1 -1 $84 $-1 $30 -1025055002 #
face $85 -1 $-1 $86 $45 $4 $-1 $87 reversed single #
loop $-1 -1 $-1 $-1 $88 $30 #
plane-surface $-1 -1 $-1 0 0.2999999999999999889 0.4400000000000000577 0 0 1 1000 0 0 forward_v I I I I #
coedge $-1 -1 $-1 $39 $89 $90 $91 reversed $31 $-1 #
coedge $-1 -1 $-1 $36 $33 $78 $92 reversed $20 $-1 #
coedge $-1 -1 $-1 $33 $36 $93 $94 reversed $20 $-1 #
coedge $-1 -1 $-1 $89 $71 $33 $60 reversed $31 $-1 #
edge $95 -1 $-1 $96 0.0002200000000000000349 $97 0.0004400000000000000699 $33 $98 forward @7 unknown #
edge $99 -1 $-1 $47 -0.0008200000000000001992 $67 0.000819999999999999874 $34 $100 forward @7 unknown #
coedge $-1 -1 $-1 $35 $41 $88 $101 forward $13 $-1 #
coedge $-1 -1 $-1 $102 $93 $35 $64 forward $103 $-1 #
edge $104 -1 $-1 $66 -0.000311126983722081064 $105 0 $35 $106 forward @7 unknown #
truecolor-adesk-attrib $-1 -1 $107 $-1 $37 -1025055002 #
vertex $-1 -1 $-1 $37 $108 #
vertex $-1 -1 $-1 $37 $109 #
straight-curve $-1 -1 $-1 1.260000000000000009 2.5 0.4400000000000000577 0 0 -1000 F 0.0002200000000000000349 F 0.0004400000000000000699 #
coedge $-1 -1 $-1 $90 $88 $38 $70 forward $54 $-1 #
edge $110 -1 $-1 $76 -0.0002399999999999999248 $73 0.0002399999999999999248 $38 $111 forward @7 unknown #
coedge $-1 -1 $-1 $59 $39 $44 $79 forward $31 $-1 #
truecolor-adesk-attrib $-1 -1 $112 $-1 $40 -1025055002 #
vertex $-1 -1 $-1 $40 $113 #
straight-curve $-1 -1 $-1 1.739999999999999991 0.8599999999999999867 0.4400000000000000577 0 0 -1000 F 0 F 0.0004400000000000000699 #
truecolor-adesk-attrib $-1 -1 $114 $-1 $42 -1025055002 #
vertex $-1 -1 $-1 $70 $115 #
straight-curve $-1 -1 $-1 1.260000000000000009 0.8599999999999999867 0.4400000000000000577 0 0 -1000 F 0 F 0.0004400000000000000699 #
coedge $-1 -1 $-1 $44 $43 $57 $92 forward $45 $-1 #
edge $116 -1 $-1 $48 -0.0008200000000000001992 $97 0.000819999999999999874 $71 $117 forward @7 unknown #
color-adesk-attrib $-1 -1 $118 $46 $26 254 #
point $-1 -1 $-1 1.260000000000000009 0.8599999999999999867 0 #
point $-1 -1 $-1 1.739999999999999991 0.8599999999999999867 0 #
DXID-attrib $-1 -1 $-1 $51 $19 @18 ASM_FACE_FROM_STEP @16 step-1M-630-1077 #
color-adesk-attrib $-1 -1 $119 $52 $30 254 #
truecolor-adesk-attrib $-1 -1 $120 $-1 $53 -1025055002 #
face $121 -1 $-1 $-1 $103 $4 $-1 $122 forward single #
plane-surface $-1 -1 $-1 0 0.2999999999999999889 0 0 0 1 1000 0 0 forward_v I I I I #
coedge $-1 -1 $-1 $69 $123 $62 $101 reversed $54 $-1 #
coedge $-1 -1 $-1 $56 $59 $124 $125 reversed $31 $-1 #
coedge $-1 -1 $-1 $123 $69 $56 $91 forward $54 $-1 #
edge $126 -1 $-1 $73 -0.0008200000000000001992 $127 0.0005999999999999997306 $56 $128 forward @7 unknown #
edge $129 -1 $-1 $67 -0.0002399999999999999248 $97 0.0002399999999999999248 $57 $130 forward @7 unknown #
coedge $-1 -1 $-1 $63 $124 $58 $94 forward $103 $-1 #
edge $131 -1 $-1 $96 -0.0004799999999999998495 $66 0 $58 $132 forward @7 unknown #
truecolor-adesk-attrib $-1 -1 $133 $-1 $60 -1025055002 #
vertex $-1 -1 $-1 $60 $134 #
vertex $-1 -1 $-1 $60 $135 #
straight-curve $-1 -1 $-1 1.739999999999999991 2.5 0.4400000000000000577 0 0 -1000 F 0.0002200000000000000349 F 0.0004400000000000000699 #
truecolor-adesk-attrib $-1 -1 $136 $-1 $61 -1025055002 #
straight-curve $-1 -1 $-1 1.260000000000000009 1.68000000000000016 0 3.966593313971360296e-13 1000 0 F -0.0008200000000000001992 F 0.000819999999999999874 #
edge $137 -1 $-1 $76 -0.0008200000000000001992 $105 0.0005999999999999997306 $62 $138 forward @7 unknown #
coedge $-1 -1 $-1 $124 $63 $123 $139 forward $103 $-1 #
loop $-1 -1 $-1 $-1 $63 $86 #
truecolor-adesk-attrib $-1 -1 $140 $-1 $64 -1025055002 #
vertex $-1 -1 $-1 $101 $141 #
straight-curve $-1 -1 $-1 1.260000000000000009 2.279999999999999805 0.4400000000000000577 -2.804805030518369957e-13 -707.1067811865480053 707.1067811865469821 F -0.000311126983722081064 F 0 #
color-adesk-attrib $-1 -1 $142 $65 $37 254 #
point $-1 -1 $-1 1.260000000000000009 2.5 0.2200000000000000289 #
point $-1 -1 $-1 1.260000000000000009 2.5 0 #
truecolor-adesk-attrib $-1 -1 $143 $-1 $70 -1025055002 #
straight-curve $-1 -1 $-1 1.5 0.8599999999999999867 0.4400000000000000577 1000 -4.517509052022940527e-13 0 F -0.0002399999999999999248 F 0.0002399999999999999248 #
color-adesk-attrib $-1 -1 $144 $72 $40 254 #
point $-1 -1 $-1 1.739999999999999991 0.8599999999999999867 0.4400000000000000577 #
color-adesk-attrib $-1 -1 $145 $75 $42 254 #
point $-1 -1 $-1 1.260000000000000009 0.8599999999999999867 0.4400000000000000577 #
truecolor-adesk-attrib $-1 -1 $146 $-1 $79 -1025055002 #
straight-curve $-1 -1 $-1 1.739999999999999991 1.68000000000000016 0 3.966593313971360296e-13 1000 0 F -0.0008200000000000001992 F 0.000819999999999999874 #
DXID-attrib $-1 -1 $-1 $80 $26 @18 ASM_EDGE_FROM_STEP @3 372 #
DXID-attrib $-1 -1 $-1 $84 $30 @18 ASM_FACE_FROM_STEP @16 step-1M-630-1078 #
color-adesk-attrib $-1 -1 $147 $85 $53 254 #
truecolor-adesk-attrib $-1 -1 $148 $-1 $86 -1025055002 #
plane-surface $-1 -1 $-1 0 2.279999999999999805 0.4400000000000000577 0 0.7071067811865470176 0.7071067811865480168 -1000 0 0 forward_v I I I I #
coedge $-1 -1 $-1 $88 $90 $102 $139 reversed $54 $-1 #
coedge $-1 -1 $-1 $93 $102 $89 $125 forward $103 $-1 #
edge $149 -1 $-1 $127 0.0004242640687119282801 $96 0.000735391052434009344 $89 $150 forward @7 unknown #
truecolor-adesk-attrib $-1 -1 $151 $-1 $91 -1025055002 #
vertex $-1 -1 $-1 $91 $152 #
straight-curve $-1 -1 $-1 1.739999999999999991 1.68000000000000016 0.4400000000000000577 3.966593313971360296e-13 1000 0 F -0.0008200000000000001992 F 0.0005999999999999997306 #
truecolor-adesk-attrib $-1 -1 $153 $-1 $92 -1025055002 #
straight-curve $-1 -1 $-1 1.5 2.5 0 1000 0 0 F -0.0002399999999999999248 F 0.0002399999999999999248 #
truecolor-adesk-attrib $-1 -1 $154 $-1 $94 -1025055002 #
straight-curve $-1 -1 $-1 1.260000000000000009 2.5 0.2200000000000000289 -1000 0 0 F -0.0004799999999999998495 F 0 #
color-adesk-attrib $-1 -1 $155 $95 $60 254 #
point $-1 -1 $-1 1.739999999999999991 2.5 0.2200000000000000289 #
point $-1 -1 $-1 1.739999999999999991 2.5 0 #
color-adesk-attrib $-1 -1 $156 $99 $61 254 #
truecolor-adesk-attrib $-1 -1 $157 $-1 $101 -1025055002 #
straight-curve $-1 -1 $-1 1.260000000000000009 1.68000000000000016 0.4400000000000000577 3.966593313971360296e-13 1000 0 F -0.0008200000000000001992 F 0.0005999999999999997306 #
edge $158 -1 $-1 $105 -0.0004799999999999998495 $127 0 $123 $159 forward @7 unknown #
color-adesk-attrib $-1 -1 $160 $104 $64 254 #
point $-1 -1 $-1 1.260000000000000009 2.279999999999999805 0.4400000000000000577 #
DXID-attrib $-1 -1 $-1 $107 $37 @18 ASM_EDGE_FROM_STEP @3 376 #
color-adesk-attrib $-1 -1 $161 $110 $70 254 #
DXID-attrib $-1 -1 $-1 $112 $40 @18 ASM_EDGE_FROM_STEP @3 373 #
DXID-attrib $-1 -1 $-1 $114 $42 @18 ASM_EDGE_FROM_STEP @3 375 #
color-adesk-attrib $-1 -1 $162 $116 $79 254 #
DXID-attrib $-1 -1 $-1 $120 $53 @18 ASM_FACE_FROM_STEP @16 step-1M-630-1079 #
color-adesk-attrib $-1 -1 $163 $121 $86 254 #
truecolor-adesk-attrib $-1 -1 $164 $-1 $125 -1025055002 #
straight-curve $-1 -1 $-1 1.739999999999999991 1.979999999999999982 0.7399999999999999911 2.804805030518359859e-13 707.1067811865480053 -707.1067811865469821 F 0.0004242640687119282801 F 0.000735391052434009344 #
color-adesk-attrib $-1 -1 $165 $126 $91 254 #
point $-1 -1 $-1 1.739999999999999991 2.279999999999999805 0.4400000000000000577 #
color-adesk-attrib $-1 -1 $166 $129 $92 254 #
color-adesk-attrib $-1 -1 $167 $131 $94 254 #
DXID-attrib $-1 -1 $-1 $133 $60 @18 ASM_EDGE_FROM_STEP @3 380 #
DXID-attrib $-1 -1 $-1 $136 $61 @18 ASM_EDGE_FROM_STEP @3 377 #
color-adesk-attrib $-1 -1 $168 $137 $101 254 #
truecolor-adesk-attrib $-1 -1 $169 $-1 $139 -1025055002 #
straight-curve $-1 -1 $-1 1.739999999999999991 2.279999999999999805 0.4400000000000000577 1000 0 0 F -0.0004799999999999998495 F 0 #
DXID-attrib $-1 -1 $-1 $140 $64 @18 ASM_EDGE_FROM_STEP @3 379 #
DXID-attrib $-1 -1 $-1 $143 $70 @18 ASM_EDGE_FROM_STEP @3 374 #
DXID-attrib $-1 -1 $-1 $146 $79 @18 ASM_EDGE_FROM_STEP @3 384 #
DXID-attrib $-1 -1 $-1 $148 $86 @18 ASM_FACE_FROM_STEP @16 step-1M-630-1080 #
color-adesk-attrib $-1 -1 $170 $149 $125 254 #
DXID-attrib $-1 -1 $-1 $151 $91 @18 ASM_EDGE_FROM_STEP @3 383 #
DXID-attrib $-1 -1 $-1 $153 $92 @18 ASM_EDGE_FROM_STEP @3 381 #
DXID-attrib $-1 -1 $-1 $154 $94 @18 ASM_EDGE_FROM_STEP @3 382 #
DXID-attrib $-1 -1 $-1 $157 $101 @18 ASM_EDGE_FROM_STEP @3 378 #
color-adesk-attrib $-1 -1 $171 $158 $139 254 #
DXID-attrib $-1 -1 $-1 $164 $125 @18 ASM_EDGE_FROM_STEP @3 385 #
DXID-attrib $-1 -1 $-1 $169 $139 @18 ASM_EDGE_FROM_STEP @3 386 #
