700 328 1 0         
5 ZWCAD 12 ACIS 28.0 NT 24 Mon May 13 09:34:54 2024 
1 9.9999999999999995e-07 1e-10 
body $1 -1 $-1 $2 $-1 $-1 #
DXID-attrib $-1 -1 $-1 $-1 $0 @18 ASM_BODY_FROM_STEP @83 F44BF18D90B446AC7F2FF811DC7481105D47CBD6|:|141FA5BACB0EF306972F07EAE8CE77B569221E6A #
lump $-1 -1 $-1 $-1 $3 $0 #
shell $-1 -1 $-1 $-1 $-1 $4 $-1 $2 #
face $5 -1 $-1 $6 $7 $3 $-1 $8 forward single #
truecolor-adesk-attrib $-1 -1 $9 $-1 $4 -1056964608 #
face $10 -1 $-1 $11 $12 $3 $-1 $13 forward single #
loop $-1 -1 $-1 $-1 $14 $4 #
cone-surface $-1 -1 $-1 -652.13590255301256 -165.69861263331981 27.498451409015203 -1.2246469956281628e-16 1 0 -0.52934933137343843 -6.4826606830425814e-17 -2.9529289333430455 1 I I 0 1 3.0000000000000004 forward I I I I #
DXID-attrib $-1 -1 $-1 $5 $4 @18 ASM_FACE_FROM_STEP @17 step-2M-555-25094 #
truecolor-adesk-attrib $-1 -1 $15 $-1 $6 -1056964608 #
face $16 -1 $-1 $17 $18 $3 $-1 $19 forward single #
loop $-1 -1 $-1 $-1 $20 $6 #
cone-surface $-1 -1 $-1 -652.13590255301256 -58.312112633305645 27.498451409015203 1.2246469956281628e-16 -1 0 0.52934933138098095 6.4826606831349508e-17 2.9529289333851203 1 I I 0.7071067812193057 0.70710678115378933 3.0000000000427463 forward I I I I #
coedge $-1 -1 $-1 $21 $22 $23 $24 forward $7 $-1 #
DXID-attrib $-1 -1 $-1 $10 $6 @18 ASM_FACE_FROM_STEP @17 step-2M-555-35813 #
truecolor-adesk-attrib $-1 -1 $25 $-1 $11 -1056964608 #
face $26 -1 $-1 $27 $28 $3 $-1 $29 forward single #
loop $-1 -1 $-1 $-1 $30 $11 #
cone-surface $-1 -1 $-1 -652.13590255301256 -165.69861263331981 27.498451409015203 -1.2246469956281628e-16 1 0 -1.3674857727147161 -1.6746873431193335e-16 -7.6283997444695339 1 I I 0 1 7.75 forward I I I I #
coedge $-1 -1 $-1 $31 $32 $33 $34 forward $12 $-1 #
coedge $-1 -1 $-1 $35 $14 $36 $37 forward $7 $-1 #
coedge $-1 -1 $-1 $14 $38 $39 $40 reversed $7 $-1 #
coedge $-1 -1 $-1 $41 $41 $14 $24 reversed $42 $-1 #
edge $43 -1 $-1 $44 0 $45 3.1415926535897931 $14 $46 forward @7 unknown #
DXID-attrib $-1 -1 $-1 $16 $11 @18 ASM_FACE_FROM_STEP @17 step-2M-555-25168 #
truecolor-adesk-attrib $-1 -1 $47 $-1 $17 -1056964608 #
face $48 -1 $-1 $49 $50 $3 $-1 $51 forward single #
loop $-1 -1 $-1 $-1 $36 $17 #
cone-surface $-1 -1 $-1 -652.13590255301256 -165.69861263331981 27.498451409015203 -1.2246469956281628e-16 1 0 -0.52934933137343843 -6.4826606830425814e-17 -2.9529289333430455 1 I I 0 1 3.0000000000000004 forward I I I I #
coedge $-1 -1 $-1 $52 $53 $54 $55 forward $18 $-1 #
coedge $-1 -1 $-1 $56 $20 $57 $58 forward $12 $-1 #
coedge $-1 -1 $-1 $20 $56 $59 $60 reversed $12 $-1 #
coedge $-1 -1 $-1 $61 $61 $20 $34 reversed $62 $-1 #
edge $63 -1 $-1 $64 0 $65 3.1415926535897931 $20 $66 forward @7 unknown #
coedge $-1 -1 $-1 $67 $21 $68 $69 forward $7 $-1 #
coedge $-1 -1 $-1 $70 $71 $21 $37 reversed $28 $-1 #
edge $72 -1 $-1 $45 0.02 $73 0.086699999999999985 $21 $74 forward @7 unknown #
coedge $-1 -1 $-1 $22 $75 $76 $77 forward $7 $-1 #
coedge $-1 -1 $-1 $78 $70 $22 $40 forward $28 $-1 #
edge $79 -1 $-1 $44 0.02 $80 0.086699999999999985 $22 $81 forward @7 unknown #
coedge $-1 -1 $-1 $23 $23 $70 $82 reversed $42 $-1 #
loop $-1 -1 $-1 $-1 $23 $83 #
truecolor-adesk-attrib $-1 -1 $84 $-1 $24 -1056964608 #
vertex $-1 -1 $-1 $24 $85 #
vertex $-1 -1 $-1 $24 $86 #
ellipse-curve $-1 -1 $-1 -652.13590255301256 -145.69861263331981 27.498451409015203 -1.2246469956281628e-16 1 0 -0.52934933137343843 -6.4826606830425814e-17 -2.9529289333430455 1 F 0 F 3.1415926535897931 #
DXID-attrib $-1 -1 $-1 $26 $17 @18 ASM_FACE_FROM_STEP @17 step-2M-555-26920 #
truecolor-adesk-attrib $-1 -1 $87 $-1 $27 -1056964608 #
face $88 -1 $-1 $89 $90 $3 $-1 $91 forward single #
loop $-1 -1 $-1 $-1 $92 $27 #
plane-surface $-1 -1 $-1 -655.03780110694299 -78.498612633319823 25.478801740707198 -0.17644977712447948 -2.1608868943475272e-17 -0.98430964444768176 1.2246469956281628e-16 -1 0 forward_v I I I I #
coedge $-1 -1 $-1 $93 $30 $94 $95 forward $18 $-1 #
coedge $-1 -1 $-1 $30 $93 $96 $97 reversed $18 $-1 #
coedge $-1 -1 $-1 $98 $98 $30 $55 reversed $99 $-1 #
edge $100 -1 $-1 $101 0 $102 3.1415926535897931 $30 $103 forward @7 unknown #
coedge $-1 -1 $-1 $32 $31 $104 $105 reversed $12 $-1 #
coedge $-1 -1 $-1 $106 $107 $31 $58 reversed $108 $-1 #
edge $109 -1 $-1 $65 -0.00086762002053605413 $110 2.0038305003951683e-14 $31 $111 forward @7 unknown #
coedge $-1 -1 $-1 $107 $106 $32 $60 forward $108 $-1 #
edge $112 -1 $-1 $64 -0.00086762002053605413 $113 2.0038305003951683e-14 $32 $114 forward @7 unknown #
coedge $-1 -1 $-1 $33 $33 $106 $115 reversed $62 $-1 #
loop $-1 -1 $-1 $-1 $33 $116 #
truecolor-adesk-attrib $-1 -1 $117 $-1 $34 -1056964608 #
vertex $-1 -1 $-1 $34 $118 #
vertex $-1 -1 $-1 $34 $119 #
ellipse-curve $-1 -1 $-1 -652.13590255301256 -57.698612633319811 27.498451409015203 1.2246469956281628e-16 -1 0 0.42109739310758248 5.1569565733605233e-17 2.3490549664744607 1 F 0 F 3.1415926535897931 #
coedge $-1 -1 $-1 $120 $35 $121 $122 forward $7 $-1 #
coedge $-1 -1 $-1 $123 $124 $35 $69 reversed $125 $-1 #
edge $126 -1 $-1 $73 -2.2081525898203635e-12 $127 0.5856855434526026 $35 $128 forward @7 unknown #
coedge $-1 -1 $-1 $39 $36 $41 $82 forward $28 $-1 #
coedge $-1 -1 $-1 $36 $129 $123 $130 forward $28 $-1 #
truecolor-adesk-attrib $-1 -1 $131 $-1 $37 -1056964608 #
vertex $-1 -1 $-1 $37 $132 #
straight-curve $-1 -1 $-1 -651.60655322163905 -165.69861263331981 30.451380342358249 -1.2246469956281629e-13 1000 0 F 0.02 F 0.086699999999999985 #
coedge $-1 -1 $-1 $38 $133 $92 $134 forward $7 $-1 #
coedge $-1 -1 $-1 $135 $136 $38 $77 reversed $137 $-1 #
edge $138 -1 $-1 $139 -0.58568554345393431 $80 1.5588205508850735e-12 $38 $140 forward @7 unknown #
coedge $-1 -1 $-1 $141 $39 $136 $142 forward $28 $-1 #
truecolor-adesk-attrib $-1 -1 $143 $-1 $40 -1056964608 #
vertex $-1 -1 $-1 $77 $144 #
straight-curve $-1 -1 $-1 -652.66525188438607 -165.69861263331981 24.545522475672158 -1.2246469956281629e-13 1000 0 F 0.02 F 0.086699999999999985 #
edge $145 -1 $-1 $45 -3.1415926535897931 $44 0 $70 $146 forward @7 unknown #
face $147 -1 $-1 $116 $148 $3 $-1 $149 reversed single #
DXID-attrib $-1 -1 $-1 $43 $24 @18 ASM_EDGE_FROM_STEP @5 35618 #
point $-1 -1 $-1 -652.66525188438607 -145.69861263331981 24.545522475672158 #
point $-1 -1 $-1 -651.60655322163905 -145.69861263331981 30.451380342358249 #
DXID-attrib $-1 -1 $-1 $48 $27 @18 ASM_FACE_FROM_STEP @17 step-2M-555-26717 #
truecolor-adesk-attrib $-1 -1 $150 $-1 $49 -1056964608 #
face $151 -1 $-1 $152 $137 $3 $-1 $153 forward single #
loop $-1 -1 $-1 $-1 $154 $49 #
plane-surface $-1 -1 $-1 -655.03780110694299 -73.698612633319811 25.478801740707198 -0.12476883394357421 -0.70710678118654802 -0.69601202437627485 0.12476883394357459 -0.70710678118654713 0.69601202437627585 forward_v I I I I #
coedge $-1 -1 $-1 $155 $156 $75 $134 reversed $50 $-1 #
coedge $-1 -1 $-1 $53 $52 $157 $158 forward $18 $-1 #
coedge $-1 -1 $-1 $159 $160 $52 $95 reversed $161 $-1 #
edge $162 -1 $-1 $102 0 $163 0.02 $52 $164 forward @7 unknown #
coedge $-1 -1 $-1 $160 $159 $53 $97 forward $161 $-1 #
edge $165 -1 $-1 $101 0 $166 0.02 $53 $167 forward @7 unknown #
coedge $-1 -1 $-1 $54 $54 $159 $168 reversed $99 $-1 #
loop $-1 -1 $-1 $-1 $54 $169 #
truecolor-adesk-attrib $-1 -1 $170 $-1 $55 -1056964608 #
vertex $-1 -1 $-1 $55 $171 #
vertex $-1 -1 $-1 $55 $172 #
ellipse-curve $-1 -1 $-1 -652.13590255301256 -165.69861263331981 27.498451409015203 -1.2246469956281628e-16 1 0 -1.3674857727147161 -1.6746873431193335e-16 -7.6283997444695339 1 F 0 F 3.1415926535897931 #
coedge $-1 -1 $-1 $173 $174 $56 $105 forward $7 $-1 #
edge $175 -1 $-1 $113 -3.1415926535897931 $110 -1.2246467991473535e-16 $104 $176 forward @7 unknown #
coedge $-1 -1 $-1 $59 $57 $61 $115 forward $108 $-1 #
coedge $-1 -1 $-1 $57 $59 $177 $178 reversed $108 $-1 #
loop $-1 -1 $-1 $-1 $57 $152 #
truecolor-adesk-attrib $-1 -1 $179 $-1 $58 -1056964608 #
vertex $-1 -1 $-1 $105 $180 #
straight-curve $-1 -1 $-1 -652.66525188439357 -58.312112633305645 24.545522475630083 -124.76883394935457 -707.10678115378937 -696.01202440851955 F -0.00086762002053605413 F 2.0038305003951683e-14 #
truecolor-adesk-attrib $-1 -1 $181 $-1 $60 -1056964608 #
vertex $-1 -1 $-1 $182 $183 #
straight-curve $-1 -1 $-1 -651.60655322163154 -58.312112633305645 30.451380342400324 124.76883394935466 -707.10678115378937 696.01202440851955 F -0.00086762002053605413 F 2.0038305003951683e-14 #
edge $184 -1 $-1 $65 -3.1415926535897931 $64 0 $106 $185 forward @7 unknown #
face $186 -1 $-1 $187 $62 $3 $-1 $188 reversed single #
DXID-attrib $-1 -1 $-1 $63 $34 @18 ASM_EDGE_FROM_STEP @5 17958 #
point $-1 -1 $-1 -651.71480515990504 -57.698612633319811 29.847506375489665 #
point $-1 -1 $-1 -652.55699994612007 -57.698612633319811 25.149396442540741 #
coedge $-1 -1 $-1 $174 $67 $189 $190 forward $7 $-1 #
coedge $-1 -1 $-1 $191 $192 $67 $122 reversed $193 $-1 #
edge $194 -1 $-1 $127 0.0872 $195 0.092000000000000012 $67 $196 forward @7 unknown #
coedge $-1 -1 $-1 $124 $68 $71 $130 reversed $125 $-1 #
coedge $-1 -1 $-1 $68 $123 $191 $197 reversed $125 $-1 #
loop $-1 -1 $-1 $-1 $123 $198 #
truecolor-adesk-attrib $-1 -1 $199 $-1 $69 -1056964608 #
vertex $-1 -1 $-1 $69 $200 #
ellipse-curve $-1 -1 $-1 -652.13590255300971 -75.998612633296972 27.498451408991563 -0.12476883394357591 -0.70710678118653791 -0.69601202437628473 0.52934933136410611 -3.0000000000228546 2.9529289333678541 0.70710678118416082 F -2.2081525898203635e-12 F 0.5856855434526026 #
coedge $-1 -1 $-1 $71 $201 $202 $203 forward $28 $-1 #
edge $204 -1 $-1 $205 -0.58568554345564061 $73 7.177677148770109e-13 $71 $206 forward @7 unknown #
DXID-attrib $-1 -1 $-1 $72 $37 @18 ASM_EDGE_FROM_STEP @5 13008 #
point $-1 -1 $-1 -651.60655322163905 -78.998612633319823 30.451380342358249 #
coedge $-1 -1 $-1 $75 $173 $207 $208 forward $7 $-1 #
edge $209 -1 $-1 $210 -0.092000000000000026 $139 -0.087199999999999986 $75 $211 forward @7 unknown #
coedge $-1 -1 $-1 $136 $76 $156 $212 reversed $137 $-1 #
coedge $-1 -1 $-1 $76 $135 $78 $142 reversed $137 $-1 #
loop $-1 -1 $-1 $-1 $76 $89 #
truecolor-adesk-attrib $-1 -1 $213 $-1 $77 -1056964608 #
vertex $-1 -1 $-1 $134 $214 #
ellipse-curve $-1 -1 $-1 -652.13590255300483 -75.998612633303793 27.49845140903016 0.12476883394356593 -0.70710678118655135 0.69601202437627296 -0.52934933138574802 -3.0000000000160507 -2.9529289333571778 0.70710678118488057 F -0.58568554345393431 F 1.5588205508850735e-12 #
coedge $-1 -1 $-1 $215 $78 $216 $217 forward $28 $-1 #
edge $218 -1 $-1 $80 1.767134648972175e-12 $219 0.58568554346084345 $78 $220 forward @7 unknown #
DXID-attrib $-1 -1 $-1 $79 $40 @18 ASM_EDGE_FROM_STEP @5 25933 #
point $-1 -1 $-1 -652.66525188438607 -78.998612633319823 24.545522475672158 #
truecolor-adesk-attrib $-1 -1 $221 $-1 $82 -1056964608 #
ellipse-curve $-1 -1 $-1 -652.13590255301256 -145.69861263331981 27.498451409015203 -1.2246469956281628e-16 1 0 -0.52934933137343843 -6.4826606830425814e-17 -2.9529289333430455 1 F -3.1415926535897931 F 0 #
truecolor-adesk-attrib $-1 -1 $222 $-1 $83 -1056964608 #
loop $-1 -1 $-1 $42 $223 $83 #
plane-surface $-1 -1 $-1 -655.08883148635562 -145.69861263331981 28.027800740388642 1.2246469956281628e-16 -1 0 0.17644977712447948 2.1608868943475272e-17 0.98430964444768176 forward_v I I I I #
DXID-attrib $-1 -1 $-1 $88 $49 @18 ASM_FACE_FROM_STEP @17 step-2M-555-25738 #
truecolor-adesk-attrib $-1 -1 $224 $-1 $89 -1056964608 #
face $225 -1 $-1 $226 $108 $3 $-1 $227 forward single #
plane-surface $-1 -1 $-1 -656.71407398962549 -87.998612633319823 16.127860118454223 -0.12476883394357438 0.70710678118654802 -0.69601202437627485 -0.12476883394357442 -0.70710678118654713 -0.69601202437627585 forward_v I I I I #
coedge $-1 -1 $-1 $228 $207 $215 $229 reversed $90 $-1 #
coedge $-1 -1 $-1 $216 $92 $228 $230 forward $50 $-1 #
coedge $-1 -1 $-1 $92 $216 $135 $212 forward $50 $-1 #
coedge $-1 -1 $-1 $223 $223 $93 $158 reversed $148 $-1 #
edge $231 -1 $-1 $163 -3.1415926535897931 $166 0 $93 $232 forward @7 unknown #
coedge $-1 -1 $-1 $96 $94 $98 $168 forward $161 $-1 #
coedge $-1 -1 $-1 $94 $96 $223 $233 forward $161 $-1 #
loop $-1 -1 $-1 $-1 $94 $187 #
truecolor-adesk-attrib $-1 -1 $234 $-1 $95 -1056964608 #
vertex $-1 -1 $-1 $95 $235 #
straight-curve $-1 -1 $-1 -650.7684167802978 -165.69861263331981 35.126851153484736 -1.2246469956281629e-13 1000 0 F 0 F 0.02 #
truecolor-adesk-attrib $-1 -1 $236 $-1 $97 -1056964608 #
vertex $-1 -1 $-1 $158 $237 #
straight-curve $-1 -1 $-1 -653.50338832572731 -165.69861263331981 19.87005166454567 -1.2246469956281629e-13 1000 0 F 0 F 0.02 #
edge $238 -1 $-1 $102 -3.1415926535897931 $101 0 $159 $239 forward @7 unknown #
face $240 -1 $-1 $-1 $99 $3 $-1 $241 reversed single #
DXID-attrib $-1 -1 $-1 $100 $55 @18 ASM_EDGE_FROM_STEP @5 26669 #
point $-1 -1 $-1 -653.50338832572731 -165.69861263331981 19.87005166454567 #
point $-1 -1 $-1 -650.7684167802978 -165.69861263331981 35.126851153484736 #
coedge $-1 -1 $-1 $133 $104 $242 $243 reversed $7 $-1 #
coedge $-1 -1 $-1 $104 $120 $244 $182 forward $7 $-1 #
truecolor-adesk-attrib $-1 -1 $245 $-1 $105 -1056964608 #
ellipse-curve $-1 -1 $-1 -652.13590255301256 -58.312112633319799 27.498451409015203 1.2246469956281628e-16 -1 0 -0.52934933137343843 -6.4826606830425814e-17 -2.9529289333430455 1 F -3.1415926535897931 F -1.2246467991473535e-16 #
coedge $-1 -1 $-1 $244 $242 $107 $178 forward $28 $-1 #
edge $246 -1 $-1 $110 -1.2246467991473535e-16 $113 3.1415926535897931 $177 $247 forward @7 unknown #
DXID-attrib $-1 -1 $-1 $109 $58 @18 ASM_EDGE_FROM_STEP @5 11975 #
point $-1 -1 $-1 -652.66525188439607 -58.312112633319799 24.545522475616135 #
DXID-attrib $-1 -1 $-1 $112 $60 @18 ASM_EDGE_FROM_STEP @5 30668 #
edge $248 -1 $-1 $249 0.092499999999999999 $113 0.1073865 $174 $250 forward @7 unknown #
point $-1 -1 $-1 -651.60655322162904 -58.312112633319799 30.451380342414271 #
truecolor-adesk-attrib $-1 -1 $251 $-1 $115 -1056964608 #
ellipse-curve $-1 -1 $-1 -652.13590255301256 -57.698612633319811 27.498451409015203 1.2246469956281628e-16 -1 0 0.42109739310758248 5.1569565733605233e-17 2.3490549664744607 1 F -3.1415926535897931 F 0 #
truecolor-adesk-attrib $-1 -1 $252 $-1 $116 -1056964608 #
face $253 -1 $-1 $169 $161 $3 $-1 $254 forward single #
plane-surface $-1 -1 $-1 -652.13590255301256 -57.698612633319811 27.498451409015203 1.2246469956281628e-16 -1 0 0.17644977712447948 2.1608868943475272e-17 0.98430964444768176 forward_v I I I I #
coedge $-1 -1 $-1 $255 $256 $120 $190 reversed $257 $-1 #
edge $258 -1 $-1 $195 2.555907110132202 $249 3.1415926535896386 $120 $259 forward @7 unknown #
coedge $-1 -1 $-1 $202 $121 $124 $197 forward $193 $-1 #
coedge $-1 -1 $-1 $121 $202 $255 $260 forward $193 $-1 #
loop $-1 -1 $-1 $-1 $202 $226 #
truecolor-adesk-attrib $-1 -1 $261 $-1 $122 -1056964608 #
vertex $-1 -1 $-1 $122 $262 #
straight-curve $-1 -1 $-1 -653.32707099428183 -165.69861263331981 30.25183437266627 -1.2246469956281629e-13 1000 0 F 0.0872 F 0.092000000000000012 #
edge $263 -1 $-1 $127 0.00084168760482229352 $205 0.0041583123951776987 $191 $264 forward @7 unknown #
face $265 -1 $-1 $266 $125 $3 $-1 $267 forward single #
DXID-attrib $-1 -1 $-1 $126 $69 @18 ASM_EDGE_FROM_STEP @5 13758 #
point $-1 -1 $-1 -653.32707099428183 -78.498612633319823 30.251834372666274 #
coedge $-1 -1 $-1 $129 $244 $256 $268 forward $28 $-1 #
coedge $-1 -1 $-1 $192 $191 $129 $203 reversed $193 $-1 #
edge $269 -1 $-1 $270 -0.092000000000000012 $205 -0.0872 $129 $271 forward @7 unknown #
truecolor-adesk-attrib $-1 -1 $272 $-1 $130 -1056964608 #
vertex $-1 -1 $-1 $203 $273 #
ellipse-curve $-1 -1 $-1 -652.13590255301608 -75.998612633312092 27.498451409007931 -0.12476883394356257 -0.70710678118655657 -0.69601202437626819 0.52934933137915197 -3.0000000000077165 2.9529289333499382 0.70710678118572456 F -0.58568554345564061 F 7.177677148770109e-13 #
coedge $-1 -1 $-1 $154 $228 $133 $208 reversed $90 $-1 #
edge $274 -1 $-1 $275 -3.141592653589683 $210 -2.5559071101323925 $133 $276 forward @7 unknown #
truecolor-adesk-attrib $-1 -1 $277 $-1 $134 -1056964608 #
vertex $-1 -1 $-1 $208 $278 #
straight-curve $-1 -1 $-1 -654.20931987990423 -165.69861263331981 25.33028615042786 1.2246469956281629e-13 -1000 0 F -0.092000000000000026 F -0.087199999999999986 #
edge $279 -1 $-1 $219 -0.0041583123951777082 $139 -0.00084168760482229656 $156 $280 forward @7 unknown #
DXID-attrib $-1 -1 $-1 $138 $77 @18 ASM_EDGE_FROM_STEP @5 33896 #
point $-1 -1 $-1 -654.20931987990423 -78.498612633319823 25.330286150427863 #
coedge $-1 -1 $-1 $242 $141 $154 $229 forward $28 $-1 #
coedge $-1 -1 $-1 $156 $155 $141 $217 reversed $50 $-1 #
edge $281 -1 $-1 $219 0.087199999999999986 $282 0.092000000000000012 $141 $283 forward @7 unknown #
truecolor-adesk-attrib $-1 -1 $284 $-1 $142 -1056964608 #
vertex $-1 -1 $-1 $142 $285 #
ellipse-curve $-1 -1 $-1 -652.13590255301051 -75.998612633338695 27.498451408995674 0.12476883394357705 -0.70710678118654269 0.69601202437627974 -0.52934933138071383 -2.9999999999811831 -2.9529289333225823 0.70710678118854964 F 1.767134648972175e-12 F 0.58568554346084345 #
DXID-attrib $-1 -1 $-1 $145 $82 @18 ASM_EDGE_FROM_STEP @4 8183 #
DXID-attrib $-1 -1 $-1 $147 $83 @18 ASM_FACE_FROM_STEP @17 step-2M-555-16617 #
coedge $-1 -1 $-1 $157 $157 $160 $233 reversed $148 $-1 #
DXID-attrib $-1 -1 $-1 $151 $89 @18 ASM_FACE_FROM_STEP @16 step-2M-555-1828 #
truecolor-adesk-attrib $-1 -1 $286 $-1 $152 -1056964608 #
face $287 -1 $-1 $198 $193 $3 $-1 $288 forward single #
cone-surface $-1 -1 $-1 -652.13590255301256 -58.312112633305645 27.498451409015203 1.2246469956281628e-16 -1 0 0.52934933138098095 6.4826606831349508e-17 2.9529289333851203 1 I I 0.7071067812193057 0.70710678115378933 3.0000000000427463 forward I I I I #
coedge $-1 -1 $-1 $207 $154 $155 $230 reversed $90 $-1 #
edge $289 -1 $-1 $282 2.5559071101292812 $275 3.1415926535881646 $215 $290 forward @7 unknown #
edge $291 -1 $-1 $210 0.00084168760482230046 $282 0.0041583123951777039 $155 $292 forward @7 unknown #
truecolor-adesk-attrib $-1 -1 $293 $-1 $158 -1056964608 #
ellipse-curve $-1 -1 $-1 -652.13590255301256 -145.69861263331981 27.498451409015203 1.2246469956281628e-16 -1 0 -1.3674857727147161 -1.6746873431193335e-16 -7.6283997444695339 1 F -3.1415926535897931 F 0 #
edge $294 -1 $-1 $166 0 $163 3.1415926535897931 $223 $295 forward @7 unknown #
DXID-attrib $-1 -1 $-1 $162 $95 @18 ASM_EDGE_FROM_STEP @5 16713 #
point $-1 -1 $-1 -650.7684167802978 -145.69861263331981 35.126851153484736 #
DXID-attrib $-1 -1 $-1 $165 $97 @18 ASM_EDGE_FROM_STEP @5 27419 #
point $-1 -1 $-1 -653.50338832572731 -145.69861263331981 19.87005166454567 #
truecolor-adesk-attrib $-1 -1 $296 $-1 $168 -1056964608 #
ellipse-curve $-1 -1 $-1 -652.13590255301256 -165.69861263331981 27.498451409015203 -1.2246469956281628e-16 1 0 -1.3674857727147161 -1.6746873431193335e-16 -7.6283997444695339 1 F -3.1415926535897931 F 0 #
truecolor-adesk-attrib $-1 -1 $297 $-1 $169 -1056964608 #
plane-surface $-1 -1 $-1 -659.764302297482 -165.69861263331981 28.865937181729919 -1.2246469956281628e-16 1 0 -0.17644977712447948 -2.1608868943475272e-17 -0.98430964444768176 forward_v I I I I #
coedge $-1 -1 $-1 $177 $215 $173 $243 forward $28 $-1 #
edge $298 -1 $-1 $275 0.092499999999999999 $110 0.1073865 $173 $299 forward @7 unknown #
coedge $-1 -1 $-1 $201 $177 $174 $182 reversed $28 $-1 #
DXID-attrib $-1 -1 $-1 $175 $105 @18 ASM_EDGE_FROM_STEP @5 33148 #
truecolor-adesk-attrib $-1 -1 $300 $-1 $178 -1056964608 #
ellipse-curve $-1 -1 $-1 -652.13590255301256 -58.312112633319799 27.498451409015203 1.2246469956281628e-16 -1 0 -0.52934933137343843 -6.4826606830425814e-17 -2.9529289333430455 1 F -1.2246467991473535e-16 F 3.1415926535897931 #
truecolor-adesk-attrib $-1 -1 $301 $-1 $182 -1056964608 #
vertex $-1 -1 $-1 $190 $302 #
straight-curve $-1 -1 $-1 -651.60655322163905 -165.69861263331981 30.451380342358249 -1.2246469956281629e-13 1000 0 F 0.092499999999999999 F 0.1073865 #
DXID-attrib $-1 -1 $-1 $184 $115 @18 ASM_EDGE_FROM_STEP @5 28173 #
DXID-attrib $-1 -1 $-1 $186 $116 @18 ASM_FACE_FROM_STEP @17 step-2M-555-37236 #
truecolor-adesk-attrib $-1 -1 $303 $-1 $187 -1056964608 #
cone-surface $-1 -1 $-1 -652.13590255301256 -165.69861263331981 27.498451409015203 -1.2246469956281628e-16 1 0 -1.3674857727147161 -1.6746873431193335e-16 -7.6283997444695339 1 I I 0 1 7.75 forward I I I I #
coedge $-1 -1 $-1 $256 $189 $192 $260 reversed $257 $-1 #
coedge $-1 -1 $-1 $189 $255 $201 $268 reversed $257 $-1 #
loop $-1 -1 $-1 $-1 $189 $266 #
truecolor-adesk-attrib $-1 -1 $304 $-1 $190 -1056964608 #
ellipse-curve $-1 -1 $-1 -652.13590255301244 -76.198612633317026 27.498451409018131 -0.12476883394356868 0.70710678118653592 -0.69601202437628829 -0.52934933137383777 -2.9999999999972071 -2.9529289333400359 0.7071067811868833 F 2.555907110132202 F 3.1415926535896386 #
edge $305 -1 $-1 $270 -0.0041583123951777021 $195 -0.00084168760482229319 $192 $306 forward @7 unknown #
DXID-attrib $-1 -1 $-1 $194 $122 @18 ASM_EDGE_FROM_STEP @5 38370 #
point $-1 -1 $-1 -653.32707099428183 -73.698612633319811 30.251834372666274 #
truecolor-adesk-attrib $-1 -1 $307 $-1 $197 -1056964608 #
straight-curve $-1 -1 $-1 -654.15555222132059 -78.498612633319823 30.400349962945604 984.30964444768176 1.2054318488406788e-13 -176.44977712447948 F 0.00084168760482229352 F 0.0041583123951776987 #
truecolor-adesk-attrib $-1 -1 $308 $-1 $198 -1056964608 #
face $309 -1 $-1 $83 $257 $3 $-1 $310 forward single #
plane-surface $-1 -1 $-1 -654.15555222132059 -78.498612633319823 30.400349962945604 0.12476883394357433 0.70710678118654757 0.6960120243762753 -0.12476883394357451 0.70710678118654768 -0.69601202437627541 forward_v I I I I #
edge $311 -1 $-1 $249 -3.14159265358871 $270 -2.5559071101303732 $201 $312 forward @7 unknown #
truecolor-adesk-attrib $-1 -1 $313 $-1 $203 -1056964608 #
vertex $-1 -1 $-1 $268 $314 #
straight-curve $-1 -1 $-1 -650.06248522612088 -165.69861263331981 29.66661666760254 1.2246469956281629e-13 -1000 0 F -0.092000000000000012 F -0.0872 #
DXID-attrib $-1 -1 $-1 $204 $130 @18 ASM_EDGE_FROM_STEP @5 33608 #
point $-1 -1 $-1 -650.06248522612088 -78.498612633319823 29.66661666760254 #
truecolor-adesk-attrib $-1 -1 $315 $-1 $208 -1056964608 #
vertex $-1 -1 $-1 $243 $316 #
ellipse-curve $-1 -1 $-1 -652.13590255301312 -76.198612633318561 27.498451409013903 0.12476883394359319 0.70710678118652903 0.69601202437629073 0.52934933137247042 -2.9999999999987632 2.952928933341803 0.70710678118668058 F -3.141592653589683 F -2.5559071101323925 #
DXID-attrib $-1 -1 $-1 $209 $134 @18 ASM_EDGE_FROM_STEP @5 37848 #
point $-1 -1 $-1 -654.20931987990423 -73.698612633319811 25.330286150427863 #
truecolor-adesk-attrib $-1 -1 $317 $-1 $212 -1056964608 #
straight-curve $-1 -1 $-1 -655.03780110694299 -78.498612633319823 25.478801740707198 -984.30964444768176 -1.2054318488406788e-13 176.44977712447948 F -0.0041583123951777082 F -0.00084168760482229656 #
truecolor-adesk-attrib $-1 -1 $318 $-1 $217 -1056964608 #
vertex $-1 -1 $-1 $217 $319 #
straight-curve $-1 -1 $-1 -650.94473411174317 -165.69861263331981 24.745068445364133 -1.2246469956281629e-13 1000 0 F 0.087199999999999986 F 0.092000000000000012 #
DXID-attrib $-1 -1 $-1 $218 $142 @18 ASM_EDGE_FROM_STEP @4 3127 #
point $-1 -1 $-1 -650.94473411174317 -78.498612633319823 24.745068445364133 #
DXID-attrib $-1 -1 $-1 $225 $152 @18 ASM_FACE_FROM_STEP @17 step-2M-555-12645 #
truecolor-adesk-attrib $-1 -1 $320 $-1 $226 -1056964608 #
plane-surface $-1 -1 $-1 -654.15555222132059 -73.698612633319811 30.400349962945604 0.17644977712447948 2.1608868943475272e-17 0.98430964444768176 -1.2246469956281628e-16 1 0 forward_v I I I I #
truecolor-adesk-attrib $-1 -1 $321 $-1 $229 -1056964608 #
ellipse-curve $-1 -1 $-1 -652.1359025530104 -76.198612633303043 27.49845140899772 0.12476883394357131 0.70710678118654058 0.69601202437628307 0.52934933138033491 -2.9999999999832196 2.9529289333247006 0.70710678118830017 F 2.5559071101292812 F 3.1415926535881646 #
truecolor-adesk-attrib $-1 -1 $322 $-1 $230 -1056964608 #
straight-curve $-1 -1 $-1 -655.03780110694299 -73.698612633319811 25.478801740707198 984.30964444768176 1.2054318488406788e-13 -176.44977712447948 F 0.00084168760482230046 F 0.0041583123951777039 #
DXID-attrib $-1 -1 $-1 $231 $158 @18 ASM_EDGE_FROM_STEP @4 8687 #
truecolor-adesk-attrib $-1 -1 $323 $-1 $233 -1056964608 #
ellipse-curve $-1 -1 $-1 -652.13590255301256 -145.69861263331981 27.498451409015203 1.2246469956281628e-16 -1 0 -1.3674857727147161 -1.6746873431193335e-16 -7.6283997444695339 1 F 0 F 3.1415926535897931 #
DXID-attrib $-1 -1 $-1 $238 $168 @18 ASM_EDGE_FROM_STEP @4 9437 #
DXID-attrib $-1 -1 $-1 $240 $169 @18 ASM_FACE_FROM_STEP @15 step-2M-555-481 #
truecolor-adesk-attrib $-1 -1 $324 $-1 $243 -1056964608 #
straight-curve $-1 -1 $-1 -652.66525188438607 -165.69861263331981 24.545522475672158 -1.2246469956281629e-13 1000 0 F 0.092499999999999999 F 0.1073865 #
DXID-attrib $-1 -1 $-1 $246 $178 @18 ASM_EDGE_FROM_STEP @5 33094 #
DXID-attrib $-1 -1 $-1 $248 $182 @18 ASM_EDGE_FROM_STEP @5 37117 #
point $-1 -1 $-1 -651.60655322163905 -73.198612633319811 30.451380342358249 #
DXID-attrib $-1 -1 $-1 $253 $187 @18 ASM_FACE_FROM_STEP @17 step-2M-555-15950 #
DXID-attrib $-1 -1 $-1 $258 $190 @18 ASM_EDGE_FROM_STEP @5 18478 #
truecolor-adesk-attrib $-1 -1 $325 $-1 $260 -1056964608 #
straight-curve $-1 -1 $-1 -654.15555222132059 -73.698612633319811 30.400349962945604 -984.30964444768176 -1.2054318488406788e-13 176.44977712447948 F -0.0041583123951777021 F -0.00084168760482229319 #
DXID-attrib $-1 -1 $-1 $263 $197 @18 ASM_EDGE_FROM_STEP @4 3642 #
DXID-attrib $-1 -1 $-1 $265 $198 @18 ASM_FACE_FROM_STEP @17 step-2M-555-32898 #
truecolor-adesk-attrib $-1 -1 $326 $-1 $266 -1056964608 #
plane-surface $-1 -1 $-1 -653.87323257792139 -72.098612633319846 31.975245394061897 0.12476883394357438 -0.70710678118654802 0.69601202437627485 0.12476883394357442 0.70710678118654713 0.69601202437627585 forward_v I I I I #
truecolor-adesk-attrib $-1 -1 $327 $-1 $268 -1056964608 #
ellipse-curve $-1 -1 $-1 -652.13590255300721 -76.198612633308386 27.498451409025979 -0.12476883394358504 0.70710678118653347 -0.69601202437628773 -0.52934933136482276 -2.9999999999885585 -2.9529289333328448 0.70710678118775228 F -3.14159265358871 F -2.5559071101303732 #
DXID-attrib $-1 -1 $-1 $269 $203 @18 ASM_EDGE_FROM_STEP @4 6430 #
point $-1 -1 $-1 -650.06248522612088 -73.698612633319811 29.66661666760254 #
DXID-attrib $-1 -1 $-1 $274 $208 @18 ASM_EDGE_FROM_STEP @4 9219 #
point $-1 -1 $-1 -652.66525188438607 -73.198612633319811 24.545522475672158 #
DXID-attrib $-1 -1 $-1 $279 $212 @18 ASM_EDGE_FROM_STEP @5 23111 #
DXID-attrib $-1 -1 $-1 $281 $217 @18 ASM_EDGE_FROM_STEP @5 16662 #
point $-1 -1 $-1 -650.94473411174329 -73.698612633319811 24.745068445364133 #
DXID-attrib $-1 -1 $-1 $287 $226 @18 ASM_FACE_FROM_STEP @17 step-2M-555-30670 #
DXID-attrib $-1 -1 $-1 $289 $229 @18 ASM_EDGE_FROM_STEP @5 13925 #
DXID-attrib $-1 -1 $-1 $291 $230 @18 ASM_EDGE_FROM_STEP @4 9902 #
DXID-attrib $-1 -1 $-1 $294 $233 @18 ASM_EDGE_FROM_STEP @4 3422 #
DXID-attrib $-1 -1 $-1 $298 $243 @18 ASM_EDGE_FROM_STEP @5 19217 #
DXID-attrib $-1 -1 $-1 $305 $260 @18 ASM_EDGE_FROM_STEP @4 8909 #
DXID-attrib $-1 -1 $-1 $309 $266 @18 ASM_FACE_FROM_STEP @17 step-2M-555-34276 #
DXID-attrib $-1 -1 $-1 $311 $268 @18 ASM_EDGE_FROM_STEP @3 865 #
