700 244 1 0         
5 ZWCAD 12 ACIS 28.0 NT 24 Sat May 11 16:59:20 2024 
1 9.9999999999999995e-07 1e-10 
body $1 -1 $-1 $2 $-1 $-1 #
DXID-attrib $-1 -1 $-1 $-1 $0 @18 ASM_BODY_FROM_STEP @83 FD2E71AFD090DA52C32E4D55D3059AA5CAEDC756|:|1E2D653B7876E2AB559E961FE77E73998E79B975 #
lump $-1 -1 $-1 $-1 $3 $0 #
shell $-1 -1 $-1 $-1 $-1 $4 $-1 $2 #
face $5 -1 $-1 $6 $7 $3 $-1 $8 forward single #
color-adesk-attrib $-1 -1 $9 $-1 $4 7 #
face $10 -1 $-1 $11 $12 $3 $-1 $13 forward single #
loop $-1 -1 $-1 $-1 $14 $4 #
cone-surface $-1 -1 $-1 21.184901312501815 -1.8254868023941935 0 -1 0 0 0 0 2.160000000000001 1 I I 0 1 2.160000000000001 forward I I I I #
DXID-attrib $-1 -1 $-1 $5 $4 @18 ASM_FACE_FROM_STEP @16 step-1M-242-7635 #
color-adesk-attrib $-1 -1 $15 $-1 $6 7 #
face $16 -1 $-1 $17 $18 $3 $-1 $19 forward single #
loop $-1 -1 $-1 $-1 $20 $6 #
cone-surface $-1 -1 $-1 21.184901312501815 -1.8254868023941935 0 -1 0 0 0 0 2.8000000000000016 1 I I 0 1 2.8000000000000016 forward I I I I #
coedge $-1 -1 $-1 $21 $22 $23 $24 forward $7 $-1 #
DXID-attrib $-1 -1 $-1 $10 $6 @18 ASM_FACE_FROM_STEP @15 step-1M-242-736 #
color-adesk-attrib $-1 -1 $25 $-1 $11 7 #
face $26 -1 $-1 $27 $28 $3 $-1 $29 reversed single #
loop $-1 -1 $-1 $-1 $30 $11 #
cone-surface $-1 -1 $-1 21.184901312501815 -1.8254868023941935 0 -1 0 0 0 0 2.6500000000000004 1 I I 0 1 2.6500000000000004 forward I I I I #
coedge $-1 -1 $-1 $31 $32 $33 $34 forward $12 $-1 #
coedge $-1 -1 $-1 $35 $14 $36 $37 forward $7 $-1 #
coedge $-1 -1 $-1 $14 $35 $38 $39 reversed $7 $-1 #
coedge $-1 -1 $-1 $40 $40 $14 $24 reversed $41 $-1 #
edge $42 -1 $-1 $43 0 $44 3.1415926535897931 $14 $45 forward @7 unknown #
DXID-attrib $-1 -1 $-1 $16 $11 @18 ASM_FACE_FROM_STEP @16 step-1M-242-1928 #
color-adesk-attrib $-1 -1 $46 $-1 $17 7 #
face $47 -1 $-1 $48 $49 $3 $-1 $50 reversed single #
loop $-1 -1 $-1 $-1 $51 $17 #
cone-surface $-1 -1 $-1 21.184901312501815 -1.8254868023941935 0 -1 0 0 0 0 1.7499999999999993 1 I I 0 1 1.7499999999999993 forward I I I I #
coedge $-1 -1 $-1 $52 $53 $54 $55 forward $18 $-1 #
coedge $-1 -1 $-1 $56 $20 $57 $58 forward $12 $-1 #
coedge $-1 -1 $-1 $20 $56 $59 $60 reversed $12 $-1 #
coedge $-1 -1 $-1 $61 $61 $20 $34 reversed $62 $-1 #
edge $63 -1 $-1 $64 0 $65 3.1415926535897931 $20 $66 forward @7 unknown #
coedge $-1 -1 $-1 $22 $21 $67 $68 reversed $7 $-1 #
coedge $-1 -1 $-1 $69 $70 $21 $37 reversed $71 $-1 #
edge $72 -1 $-1 $44 -0.014480000000000003 $73 -0.009140000000000004 $21 $74 forward @7 unknown #
coedge $-1 -1 $-1 $70 $69 $22 $39 forward $71 $-1 #
edge $75 -1 $-1 $43 -0.014480000000000003 $76 -0.009140000000000004 $22 $77 forward @7 unknown #
coedge $-1 -1 $-1 $23 $23 $69 $78 reversed $41 $-1 #
loop $-1 -1 $-1 $-1 $23 $79 #
color-adesk-attrib $-1 -1 $80 $-1 $24 7 #
vertex $-1 -1 $-1 $24 $81 #
vertex $-1 -1 $-1 $24 $82 #
ellipse-curve $-1 -1 $-1 35.664901312501819 -1.8254868023941935 0 -1 0 0 0 0 2.160000000000001 1 F 0 F 3.1415926535897931 #
DXID-attrib $-1 -1 $-1 $26 $17 @18 ASM_FACE_FROM_STEP @17 step-1M-242-18603 #
color-adesk-attrib $-1 -1 $83 $-1 $27 7 #
face $84 -1 $-1 $85 $86 $3 $-1 $87 reversed single #
loop $-1 -1 $-1 $-1 $88 $27 #
cone-surface $-1 -1 $-1 21.184901312501815 -1.8254868023941935 0 -1 0 0 0 0 1.7499999999999993 1 I I 0 1 1.7499999999999993 forward I I I I #
coedge $-1 -1 $-1 $89 $90 $91 $92 reversed $28 $-1 #
coedge $-1 -1 $-1 $93 $30 $94 $95 forward $18 $-1 #
coedge $-1 -1 $-1 $30 $93 $96 $97 reversed $18 $-1 #
coedge $-1 -1 $-1 $98 $98 $30 $55 reversed $86 $-1 #
edge $99 -1 $-1 $100 0 $101 3.1415926535897931 $30 $102 forward @7 unknown #
coedge $-1 -1 $-1 $32 $31 $103 $104 reversed $12 $-1 #
coedge $-1 -1 $-1 $105 $106 $31 $58 reversed $107 $-1 #
edge $108 -1 $-1 $65 -0.024750000000000005 $109 -0.014480000000000003 $31 $110 forward @7 unknown #
coedge $-1 -1 $-1 $106 $105 $32 $60 forward $107 $-1 #
edge $111 -1 $-1 $64 -0.024750000000000005 $112 -0.014480000000000003 $32 $113 forward @7 unknown #
coedge $-1 -1 $-1 $33 $33 $105 $114 reversed $62 $-1 #
loop $-1 -1 $-1 $115 $33 $116 #
color-adesk-attrib $-1 -1 $117 $-1 $34 7 #
vertex $-1 -1 $-1 $34 $118 #
vertex $-1 -1 $-1 $34 $119 #
ellipse-curve $-1 -1 $-1 45.934901312501822 -1.8254868023941935 0 -1 0 0 0 0 2.800000000000002 1 F 0 F 3.1415926535897931 #
coedge $-1 -1 $-1 $120 $120 $35 $68 forward $121 $-1 #
edge $122 -1 $-1 $76 0 $73 3.1415926535897931 $35 $123 forward @7 unknown #
coedge $-1 -1 $-1 $38 $36 $40 $78 forward $71 $-1 #
coedge $-1 -1 $-1 $36 $38 $120 $124 reversed $71 $-1 #
loop $-1 -1 $-1 $-1 $36 $125 #
color-adesk-attrib $-1 -1 $126 $-1 $37 7 #
vertex $-1 -1 $-1 $37 $127 #
straight-curve $-1 -1 $-1 21.184901312501815 -1.8254868023941933 -2.160000000000001 -1000 0 0 F -0.014480000000000003 F -0.009140000000000004 #
color-adesk-attrib $-1 -1 $128 $-1 $39 7 #
vertex $-1 -1 $-1 $68 $129 #
straight-curve $-1 -1 $-1 21.184901312501815 -1.8254868023941935 2.160000000000001 -1000 0 0 F -0.014480000000000003 F -0.009140000000000004 #
edge $130 -1 $-1 $44 -3.1415926535897931 $43 0 $40 $131 forward @7 unknown #
face $132 -1 $-1 $125 $133 $3 $-1 $134 reversed single #
DXID-attrib $-1 -1 $-1 $42 $24 @18 ASM_EDGE_FROM_STEP @5 16271 #
point $-1 -1 $-1 35.664901312501819 -1.8254868023941935 2.160000000000001 #
point $-1 -1 $-1 35.664901312501819 -1.8254868023941933 -2.160000000000001 #
DXID-attrib $-1 -1 $-1 $47 $27 @18 ASM_FACE_FROM_STEP @17 step-1M-242-17934 #
color-adesk-attrib $-1 -1 $135 $-1 $48 7 #
face $136 -1 $-1 $116 $137 $3 $-1 $138 forward single #
loop $-1 -1 $-1 $139 $54 $48 #
plane-surface $-1 -1 $-1 46.184901312501822 -1.8254868023941866 0 -1 0 0 0 0 1 forward_v I I I I #
coedge $-1 -1 $-1 $140 $141 $89 $142 reversed $49 $-1 #
coedge $-1 -1 $-1 $143 $51 $88 $142 forward $28 $-1 #
coedge $-1 -1 $-1 $51 $143 $144 $145 reversed $28 $-1 #
coedge $-1 -1 $-1 $146 $146 $51 $92 forward $139 $-1 #
edge $147 -1 $-1 $148 -3.1415926535897931 $149 0 $51 $150 forward @7 unknown #
coedge $-1 -1 $-1 $53 $52 $151 $152 reversed $18 $-1 #
coedge $-1 -1 $-1 $153 $154 $52 $95 reversed $137 $-1 #
edge $155 -1 $-1 $101 -0.025000000000000005 $156 -0.024750000000000005 $52 $157 forward @7 unknown #
coedge $-1 -1 $-1 $154 $153 $53 $97 forward $137 $-1 #
edge $158 -1 $-1 $100 -0.025000000000000005 $159 -0.024750000000000005 $53 $160 forward @7 unknown #
coedge $-1 -1 $-1 $54 $54 $153 $161 reversed $86 $-1 #
color-adesk-attrib $-1 -1 $162 $-1 $55 7 #
vertex $-1 -1 $-1 $55 $163 #
vertex $-1 -1 $-1 $55 $164 #
ellipse-curve $-1 -1 $-1 46.184901312501822 -1.8254868023941935 0 -1 0 0 0 0 2.6500000000000004 1 F 0 F 3.1415926535897931 #
coedge $-1 -1 $-1 $165 $165 $56 $104 forward $133 $-1 #
edge $166 -1 $-1 $112 0 $109 3.1415926535897931 $56 $167 forward @7 unknown #
coedge $-1 -1 $-1 $59 $57 $61 $114 forward $107 $-1 #
coedge $-1 -1 $-1 $57 $59 $165 $168 reversed $107 $-1 #
loop $-1 -1 $-1 $-1 $57 $169 #
color-adesk-attrib $-1 -1 $170 $-1 $58 7 #
vertex $-1 -1 $-1 $58 $171 #
straight-curve $-1 -1 $-1 21.184901312501815 -1.825486802394193 -2.8000000000000016 -1000 0 0 F -0.024750000000000005 F -0.014480000000000003 #
color-adesk-attrib $-1 -1 $172 $-1 $60 7 #
vertex $-1 -1 $-1 $104 $173 #
straight-curve $-1 -1 $-1 21.184901312501815 -1.8254868023941935 2.8000000000000016 -1000 0 0 F -0.024750000000000005 F -0.014480000000000003 #
edge $174 -1 $-1 $65 -3.1415926535897931 $64 0 $61 $175 forward @7 unknown #
loop $-1 -1 $-1 $-1 $151 $116 #
face $176 -1 $-1 $169 $62 $3 $-1 $177 forward single #
DXID-attrib $-1 -1 $-1 $63 $34 @18 ASM_EDGE_FROM_STEP @4 5842 #
point $-1 -1 $-1 45.934901312501822 -1.8254868023941935 2.800000000000002 #
point $-1 -1 $-1 45.934901312501822 -1.825486802394193 -2.800000000000002 #
coedge $-1 -1 $-1 $67 $67 $70 $124 forward $121 $-1 #
loop $-1 -1 $-1 $178 $67 $179 #
color-adesk-attrib $-1 -1 $180 $-1 $68 7 #
ellipse-curve $-1 -1 $-1 30.324901312501819 -1.8254868023941935 0 -1 0 0 0 0 2.1600000000000001 1 F 0 F 3.1415926535897931 #
edge $181 -1 $-1 $73 -3.1415926535897931 $76 0 $70 $182 forward @7 unknown #
face $183 -1 $-1 $179 $71 $3 $-1 $184 forward single #
DXID-attrib $-1 -1 $-1 $72 $37 @18 ASM_EDGE_FROM_STEP @5 10316 #
point $-1 -1 $-1 30.324901312501819 -1.8254868023941933 -2.1600000000000001 #
DXID-attrib $-1 -1 $-1 $75 $39 @18 ASM_EDGE_FROM_STEP @5 17887 #
point $-1 -1 $-1 30.324901312501819 -1.8254868023941935 2.1600000000000001 #
color-adesk-attrib $-1 -1 $185 $-1 $78 7 #
ellipse-curve $-1 -1 $-1 35.664901312501819 -1.8254868023941935 0 -1 0 0 0 0 2.160000000000001 1 F -3.1415926535897931 F 0 #
color-adesk-attrib $-1 -1 $186 $-1 $79 7 #
loop $-1 -1 $-1 $41 $103 $79 #
plane-surface $-1 -1 $-1 35.664901312501819 -1.8254868023941935 0 1 0 0 0 0 -1 forward_v I I I I #
DXID-attrib $-1 -1 $-1 $84 $48 @18 ASM_FACE_FROM_STEP @17 step-1M-242-14338 #
color-adesk-attrib $-1 -1 $187 $-1 $85 7 #
loop $-1 -1 $-1 $-1 $94 $85 #
cone-surface $-1 -1 $-1 21.184901312501815 -1.8254868023941935 0 -1 0 0 0 0 2.6500000000000004 1 I I 0 1 2.6500000000000004 forward I I I I #
loop $-1 -1 $-1 $-1 $146 $48 #
coedge $-1 -1 $-1 $144 $88 $146 $188 reversed $49 $-1 #
coedge $-1 -1 $-1 $88 $144 $189 $190 forward $49 $-1 #
edge $191 -1 $-1 $148 -0.025000000000000005 $192 -0.009140000000000004 $89 $193 forward @7 unknown #
coedge $-1 -1 $-1 $90 $89 $194 $195 forward $28 $-1 #
coedge $-1 -1 $-1 $141 $140 $90 $145 forward $49 $-1 #
edge $196 -1 $-1 $149 -0.025000000000000005 $197 -0.009140000000000004 $90 $198 forward @7 unknown #
coedge $-1 -1 $-1 $91 $91 $140 $188 forward $139 $-1 #
color-adesk-attrib $-1 -1 $199 $-1 $92 7 #
vertex $-1 -1 $-1 $92 $200 #
vertex $-1 -1 $-1 $92 $201 #
ellipse-curve $-1 -1 $-1 46.184901312501822 -1.8254868023941935 0 -1 0 0 0 0 1.75 1 F -3.1415926535897931 F 0 #
coedge $-1 -1 $-1 $202 $202 $93 $152 forward $115 $-1 #
edge $203 -1 $-1 $159 0 $156 3.1415926535897931 $93 $204 forward @7 unknown #
coedge $-1 -1 $-1 $96 $94 $98 $161 forward $137 $-1 #
coedge $-1 -1 $-1 $94 $96 $202 $205 reversed $137 $-1 #
color-adesk-attrib $-1 -1 $206 $-1 $95 7 #
vertex $-1 -1 $-1 $95 $207 #
straight-curve $-1 -1 $-1 21.184901312501815 -1.8254868023941933 -2.6500000000000004 -1000 0 0 F -0.025000000000000005 F -0.024750000000000005 #
color-adesk-attrib $-1 -1 $208 $-1 $97 7 #
vertex $-1 -1 $-1 $152 $209 #
straight-curve $-1 -1 $-1 21.184901312501815 -1.8254868023941935 2.6500000000000004 -1000 0 0 F -0.025000000000000005 F -0.024750000000000005 #
edge $210 -1 $-1 $101 -3.1415926535897931 $100 0 $98 $211 forward @7 unknown #
DXID-attrib $-1 -1 $-1 $99 $55 @18 ASM_EDGE_FROM_STEP @5 12563 #
point $-1 -1 $-1 46.184901312501822 -1.8254868023941935 2.6500000000000004 #
point $-1 -1 $-1 46.184901312501822 -1.8254868023941933 -2.6500000000000004 #
coedge $-1 -1 $-1 $103 $103 $106 $168 forward $133 $-1 #
color-adesk-attrib $-1 -1 $212 $-1 $104 7 #
ellipse-curve $-1 -1 $-1 35.664901312501819 -1.8254868023941935 0 -1 0 0 0 0 2.8000000000000016 1 F 0 F 3.1415926535897931 #
edge $213 -1 $-1 $109 -3.1415926535897931 $112 0 $106 $214 forward @7 unknown #
face $215 -1 $-1 $79 $107 $3 $-1 $216 forward single #
DXID-attrib $-1 -1 $-1 $108 $58 @18 ASM_EDGE_FROM_STEP @5 19136 #
point $-1 -1 $-1 35.664901312501819 -1.825486802394193 -2.8000000000000016 #
DXID-attrib $-1 -1 $-1 $111 $60 @18 ASM_EDGE_FROM_STEP @4 4183 #
point $-1 -1 $-1 35.664901312501819 -1.8254868023941935 2.8000000000000016 #
color-adesk-attrib $-1 -1 $217 $-1 $114 7 #
ellipse-curve $-1 -1 $-1 45.934901312501822 -1.8254868023941935 0 -1 0 0 0 0 2.800000000000002 1 F -3.1415926535897931 F 0 #
color-adesk-attrib $-1 -1 $218 $-1 $116 7 #
plane-surface $-1 -1 $-1 45.934901312501822 -1.8254868023941935 0 1 0 0 0 0 -1 forward_v I I I I #
loop $-1 -1 $-1 $-1 $189 $179 #
face $219 -1 $-1 $-1 $121 $3 $-1 $220 reversed single #
DXID-attrib $-1 -1 $-1 $122 $68 @18 ASM_EDGE_FROM_STEP @5 10939 #
color-adesk-attrib $-1 -1 $221 $-1 $124 7 #
ellipse-curve $-1 -1 $-1 30.324901312501819 -1.8254868023941935 0 -1 0 0 0 0 2.1600000000000001 1 F -3.1415926535897931 F 0 #
color-adesk-attrib $-1 -1 $222 $-1 $125 7 #
cone-surface $-1 -1 $-1 21.184901312501815 -1.8254868023941935 0 -1 0 0 0 0 2.160000000000001 1 I I 0 1 2.160000000000001 forward I I I I #
DXID-attrib $-1 -1 $-1 $130 $78 @18 ASM_EDGE_FROM_STEP @4 8098 #
DXID-attrib $-1 -1 $-1 $132 $79 @18 ASM_FACE_FROM_STEP @16 step-1M-242-4482 #
DXID-attrib $-1 -1 $-1 $136 $85 @18 ASM_FACE_FROM_STEP @17 step-1M-242-13941 #
edge $223 -1 $-1 $149 0 $148 3.1415926535897931 $140 $224 forward @7 unknown #
coedge $-1 -1 $-1 $194 $194 $141 $190 reversed $178 $-1 #
edge $225 -1 $-1 $197 0 $192 3.1415926535897931 $141 $226 forward @7 unknown #
color-adesk-attrib $-1 -1 $227 $-1 $142 7 #
vertex $-1 -1 $-1 $142 $228 #
straight-curve $-1 -1 $-1 21.184901312501815 -1.8254868023941933 -1.7499999999999993 -1000 0 0 F -0.025000000000000005 F -0.009140000000000004 #
coedge $-1 -1 $-1 $189 $189 $143 $195 reversed $178 $-1 #
edge $229 -1 $-1 $192 -3.1415926535897931 $197 0 $143 $230 forward @7 unknown #
color-adesk-attrib $-1 -1 $231 $-1 $145 7 #
vertex $-1 -1 $-1 $195 $232 #
straight-curve $-1 -1 $-1 21.184901312501815 -1.8254868023941935 1.7499999999999993 -1000 0 0 F -0.025000000000000005 F -0.009140000000000004 #
DXID-attrib $-1 -1 $-1 $147 $92 @18 ASM_EDGE_FROM_STEP @5 12470 #
point $-1 -1 $-1 46.184901312501822 -1.8254868023941933 -1.75 #
point $-1 -1 $-1 46.184901312501822 -1.8254868023941935 1.75 #
coedge $-1 -1 $-1 $151 $151 $154 $205 forward $115 $-1 #
color-adesk-attrib $-1 -1 $233 $-1 $152 7 #
ellipse-curve $-1 -1 $-1 45.934901312501822 -1.8254868023941935 0 -1 0 0 0 0 2.6500000000000004 1 F 0 F 3.1415926535897931 #
edge $234 -1 $-1 $156 -3.1415926535897931 $159 0 $154 $235 forward @7 unknown #
DXID-attrib $-1 -1 $-1 $155 $95 @18 ASM_EDGE_FROM_STEP @4 6567 #
point $-1 -1 $-1 45.934901312501822 -1.8254868023941933 -2.6500000000000004 #
DXID-attrib $-1 -1 $-1 $158 $97 @18 ASM_EDGE_FROM_STEP @2 64 #
point $-1 -1 $-1 45.934901312501822 -1.8254868023941935 2.6500000000000004 #
color-adesk-attrib $-1 -1 $236 $-1 $161 7 #
ellipse-curve $-1 -1 $-1 46.184901312501822 -1.8254868023941935 0 -1 0 0 0 0 2.6500000000000004 1 F -3.1415926535897931 F 0 #
DXID-attrib $-1 -1 $-1 $166 $104 @18 ASM_EDGE_FROM_STEP @4 9251 #
color-adesk-attrib $-1 -1 $237 $-1 $168 7 #
ellipse-curve $-1 -1 $-1 35.664901312501819 -1.8254868023941935 0 -1 0 0 0 0 2.8000000000000016 1 F -3.1415926535897931 F 0 #
color-adesk-attrib $-1 -1 $238 $-1 $169 7 #
cone-surface $-1 -1 $-1 21.184901312501815 -1.8254868023941935 0 -1 0 0 0 0 2.8000000000000016 1 I I 0 1 2.8000000000000016 forward I I I I #
DXID-attrib $-1 -1 $-1 $174 $114 @18 ASM_EDGE_FROM_STEP @5 18005 #
DXID-attrib $-1 -1 $-1 $176 $116 @18 ASM_FACE_FROM_STEP @16 step-1M-242-9907 #
color-adesk-attrib $-1 -1 $239 $-1 $179 7 #
plane-surface $-1 -1 $-1 30.324901312501819 -1.8254868023941935 0 1 0 0 0 0 -1 forward_v I I I I #
DXID-attrib $-1 -1 $-1 $181 $124 @18 ASM_EDGE_FROM_STEP @4 4053 #
DXID-attrib $-1 -1 $-1 $183 $125 @18 ASM_FACE_FROM_STEP @17 step-1M-242-12405 #
color-adesk-attrib $-1 -1 $240 $-1 $188 7 #
ellipse-curve $-1 -1 $-1 46.184901312501822 -1.8254868023941935 0 -1 0 0 0 0 1.75 1 F 0 F 3.1415926535897931 #
color-adesk-attrib $-1 -1 $241 $-1 $190 7 #
ellipse-curve $-1 -1 $-1 30.324901312501819 -1.8254868023941935 0 -1 0 0 0 0 1.7499999999999993 1 F 0 F 3.1415926535897931 #
DXID-attrib $-1 -1 $-1 $191 $142 @18 ASM_EDGE_FROM_STEP @4 2435 #
point $-1 -1 $-1 30.324901312501819 -1.8254868023941933 -1.7499999999999993 #
color-adesk-attrib $-1 -1 $242 $-1 $195 7 #
ellipse-curve $-1 -1 $-1 30.324901312501819 -1.8254868023941935 0 -1 0 0 0 0 1.7499999999999993 1 F -3.1415926535897931 F 0 #
DXID-attrib $-1 -1 $-1 $196 $145 @18 ASM_EDGE_FROM_STEP @5 12814 #
point $-1 -1 $-1 30.324901312501819 -1.8254868023941935 1.7499999999999993 #
DXID-attrib $-1 -1 $-1 $203 $152 @18 ASM_EDGE_FROM_STEP @4 3075 #
color-adesk-attrib $-1 -1 $243 $-1 $205 7 #
ellipse-curve $-1 -1 $-1 45.934901312501822 -1.8254868023941935 0 -1 0 0 0 0 2.6500000000000004 1 F -3.1415926535897931 F 0 #
DXID-attrib $-1 -1 $-1 $210 $161 @18 ASM_EDGE_FROM_STEP @5 11683 #
DXID-attrib $-1 -1 $-1 $213 $168 @18 ASM_EDGE_FROM_STEP @5 10075 #
DXID-attrib $-1 -1 $-1 $215 $169 @18 ASM_FACE_FROM_STEP @16 step-1M-242-4876 #
DXID-attrib $-1 -1 $-1 $219 $179 @18 ASM_FACE_FROM_STEP @16 step-1M-242-5888 #
DXID-attrib $-1 -1 $-1 $223 $188 @18 ASM_EDGE_FROM_STEP @4 1284 #
DXID-attrib $-1 -1 $-1 $225 $190 @18 ASM_EDGE_FROM_STEP @5 14661 #
DXID-attrib $-1 -1 $-1 $229 $195 @18 ASM_EDGE_FROM_STEP @4 2422 #
DXID-attrib $-1 -1 $-1 $234 $205 @18 ASM_EDGE_FROM_STEP @4 7710 #
