700 726 2 0         
16 Autodesk AutoCAD 20 ASM 229.2.0.65535 NT 24 Wed Mar  6 08:19:44 2024 
1 9.999999999999999547e-07 1.000000000000000036e-10 
body $2 -1 $-1 $3 $-1 $4 #
body $5 -1 $-1 $6 $-1 $7 #
DXID-attrib $-1 -1 $-1 $-1 $0 @18 ASM_BODY_FROM_STEP @83 684AE991F50CBB7E8174DEED9A612EAE32F89175|:|7B854F4408FFF57AD19338239F2D6F980E58EF2B #
lump $-1 -1 $-1 $-1 $8 $0 #
transform $-1 -1 1 0 0 0 1 0 0 0 1 0 0 0 1 no_rotate no_reflect no_shear #
DXID-attrib $-1 -1 $-1 $-1 $1 @18 ASM_BODY_FROM_STEP @83 684AE991F50CBB7E8174DEED9A612EAE32F89175|:|29B6F58A4B7FF29DF3BCA9B106C7E5F3C0D192EA #
lump $-1 -1 $-1 $-1 $9 $1 #
transform $-1 -1 1 0 0 0 1 0 0 0 1 0 0 0 1 no_rotate no_reflect no_shear #
shell $-1 -1 $-1 $-1 $-1 $10 $-1 $3 #
shell $-1 -1 $-1 $-1 $-1 $11 $-1 $6 #
face $12 -1 $-1 $13 $14 $8 $-1 $15 forward single #
face $16 -1 $-1 $17 $18 $9 $-1 $19 forward single #
color-adesk-attrib $-1 -1 $20 $-1 $10 0 #
face $21 -1 $-1 $22 $23 $8 $-1 $24 forward single #
loop $-1 -1 $-1 $-1 $25 $10 #
plane-surface $-1 -1 $-1 -900 650 400.0000000000002274 -0.8660254037844380415 -0.5000000000000009992 0 0.5000000000000009992 -0.8660254037844381525 0 forward_v I I I I #
color-adesk-attrib $-1 -1 $26 $-1 $11 0 #
face $27 -1 $-1 $28 $29 $9 $-1 $30 forward single #
loop $-1 -1 $-1 $-1 $31 $11 #
cone-surface $-1 -1 $-1 -520 103.007270526392773 -193.891919367750063 1 0 0 0 0 -30.00000000000003197 1 I I 0 1 30.00000000000003197 forward I I I I #
DXID-attrib $-1 -1 $-1 $12 $10 @18 ASM_FACE_FROM_STEP @15 step-1M-791-508 #
color-adesk-attrib $-1 -1 $32 $-1 $13 0 #
face $33 -1 $-1 $34 $35 $8 $-1 $36 forward single #
loop $-1 -1 $-1 $-1 $37 $13 #
plane-surface $-1 -1 $-1 900 650 -400.0000000000000568 -1.068312603546423644e-16 -0.5000000000000009992 -0.8660254037844380415 0 0.8660254037844381525 -0.5000000000000009992 forward_v I I I I #
coedge $-1 -1 $-1 $38 $39 $40 $41 reversed $14 $-1 #
DXID-attrib $-1 -1 $-1 $16 $11 @18 ASM_FACE_FROM_STEP @15 step-1M-791-896 #
color-adesk-attrib $-1 -1 $42 $-1 $17 0 #
face $43 -1 $-1 $44 $45 $9 $-1 $46 forward single #
loop $-1 -1 $-1 $-1 $47 $17 #
cone-surface $-1 -1 $-1 -520 103.007270526392773 -193.891919367750063 1 0 0 0 0 -30.00000000000003197 1 I I 0 1 30.00000000000003197 forward I I I I #
coedge $-1 -1 $-1 $48 $49 $50 $51 reversed $18 $-1 #
DXID-attrib $-1 -1 $-1 $21 $13 @18 ASM_FACE_FROM_STEP @14 step-1M-791-56 #
color-adesk-attrib $-1 -1 $52 $-1 $22 0 #
face $53 -1 $-1 $54 $55 $8 $-1 $56 forward single #
loop $-1 -1 $-1 $-1 $57 $22 #
plane-surface $-1 -1 $-1 900 650 400 0.8660254037844380415 -0.5000000000000009992 1.201851678989726584e-16 0.5000000000000009992 0.8660254037844381525 0 forward_v I I I I #
coedge $-1 -1 $-1 $58 $59 $60 $61 reversed $23 $-1 #
coedge $-1 -1 $-1 $62 $25 $59 $63 reversed $14 $-1 #
coedge $-1 -1 $-1 $25 $62 $64 $65 forward $14 $-1 #
coedge $-1 -1 $-1 $66 $60 $25 $41 forward $67 $-1 #
edge $68 -1 $-1 $69 -0.8000000000000000444 $70 0 $25 $71 forward @7 unknown #
DXID-attrib $-1 -1 $-1 $27 $17 @18 ASM_FACE_FROM_STEP @15 step-1M-791-120 #
color-adesk-attrib $-1 -1 $72 $-1 $28 0 #
face $73 -1 $-1 $74 $75 $9 $-1 $76 forward single #
loop $-1 -1 $-1 $-1 $77 $28 #
plane-surface $-1 -1 $-1 507.6133226616730099 101.4864769128287634 225 -0.931654555106779414 -0.3633452764916438316 0 0.3633452764916438871 -0.931654555106779525 0 forward_v I I I I #
tcoedge-coedge $-1 -1 $-1 $78 $79 $77 $80 forward $29 $81 -0.04725307224065927736 -4.788925678662931733e-16 #
coedge $-1 -1 $-1 $82 $31 $83 $84 forward $18 $-1 #
coedge $-1 -1 $-1 $31 $85 $86 $87 reversed $18 $-1 #
coedge $-1 -1 $-1 $88 $89 $31 $51 forward $90 $-1 #
edge $91 -1 $-1 $92 1.570796326794896558 $93 1.671207322738961443 $31 $94 forward @7 unknown #
DXID-attrib $-1 -1 $-1 $33 $22 @18 ASM_FACE_FROM_STEP @15 step-1M-791-186 #
color-adesk-attrib $-1 -1 $95 $-1 $34 0 #
face $96 -1 $-1 $97 $98 $8 $-1 $99 reversed single #
loop $-1 -1 $-1 $-1 $100 $34 #
plane-surface $-1 -1 $-1 900 650 400 1.068312603546423644e-16 -0.5000000000000009992 0.8660254037844380415 0 -0.8660254037844381525 -0.5000000000000009992 forward_v I I I I #
coedge $-1 -1 $-1 $101 $102 $103 $104 reversed $35 $-1 #
coedge $-1 -1 $-1 $105 $37 $102 $106 reversed $23 $-1 #
coedge $-1 -1 $-1 $37 $105 $38 $63 forward $23 $-1 #
coedge $-1 -1 $-1 $40 $103 $37 $61 forward $67 $-1 #
edge $107 -1 $-1 $108 0 $69 1.800000000000000044 $37 $109 forward @7 unknown #
coedge $-1 -1 $-1 $39 $38 $110 $111 forward $14 $-1 #
edge $112 -1 $-1 $113 0.7404347494631351445 $69 0.8049844718999255022 $38 $114 forward @7 unknown #
coedge $-1 -1 $-1 $115 $100 $39 $65 reversed $55 $-1 #
edge $116 -1 $-1 $117 -0.06454972243679031607 $70 0 $39 $118 forward @7 unknown #
coedge $-1 -1 $-1 $103 $40 $100 $119 forward $67 $-1 #
loop $-1 -1 $-1 $-1 $40 $97 #
color-adesk-attrib $-1 -1 $120 $-1 $41 0 #
vertex $-1 -1 $-1 $41 $121 #
vertex $-1 -1 $-1 $41 $122 #
straight-curve $-1 -1 $-1 -900 650 400.0000000000002274 0 0 1000 F -0.8000000000000000444 F 0 #
DXID-attrib $-1 -1 $-1 $43 $28 @18 ASM_FACE_FROM_STEP @15 step-1M-791-279 #
color-adesk-attrib $-1 -1 $123 $-1 $44 0 #
face $124 -1 $-1 $125 $126 $9 $-1 $127 reversed single #
loop $-1 -1 $-1 $-1 $128 $44 #
plane-surface $-1 -1 $-1 -507.6133226616730099 101.486476912828806 225 0.931654555106779303 -0.3633452764916439426 0 0.3633452764916439426 0.931654555106779414 0 forward_v I I I I #
tcoedge-coedge $-1 -1 $-1 $129 $130 $47 $80 reversed $45 $131 4.788925678662931733e-16 0.04725307224065927736 #
coedge $-1 -1 $-1 $132 $47 $133 $134 forward $29 $-1 #
coedge $-1 -1 $-1 $47 $135 $136 $137 forward $29 $-1 #
tedge-edge $138 -1 $-1 $139 -0.04725307224065927736 $140 -4.788925678662931733e-16 $47 $141 forward @7 unknown 3.613589786546056431e-07 #
pcurve $-1 -1 $-1 0 forward { exppc nubs 3 open 2 
	-0.04725307224065927736 3 -4.788925678662931733e-16 3 
	34.25377742205573384 -0.05071485739807100185 
	34.24719222180501532 -0.03380799331410266895 
	34.24059966359894247 -0.01690399620396060634 
	34.23400710507939948 0 
	7.724573209211325433e-09 
	cone -520 103.007270526392773 -193.891919367750063 1 0 0 0 0 -30.00000000000003197 1 I I 0 1 30.00000000000003197 forward I I I I 
	} 0 0 #
tcoedge-coedge $-1 -1 $-1 $142 $48 $143 $144 forward $18 $145 -0.04725307224066400968 -2.603001347678368401e-16 #
coedge $-1 -1 $-1 $146 $147 $48 $84 reversed $148 $-1 #
edge $149 -1 $-1 $92 0.00117283550529315053 $150 0.01297978684761687956 $48 $151 forward @2 g2 #
coedge $-1 -1 $-1 $49 $142 $152 $153 reversed $18 $-1 #
coedge $-1 -1 $-1 $154 $155 $49 $87 forward $156 $-1 #
edge $157 -1 $-1 $93 -1.470385330949909086 $158 -1.190289949761180965 $49 $159 forward @7 unknown #
coedge $-1 -1 $-1 $160 $50 $155 $161 reversed $90 $-1 #
coedge $-1 -1 $-1 $50 $162 $146 $163 forward $90 $-1 #
loop $-1 -1 $-1 $-1 $162 $164 #
color-adesk-attrib $-1 -1 $165 $-1 $51 0 #
vertex $-1 -1 $-1 $51 $166 #
vertex $-1 -1 $-1 $51 $167 #
ellipse-curve $-1 -1 $-1 -518.8271644947068353 103.007270526392773 -193.891919367750063 -0.931654555106779303 0.3633452764916438871 0 11.70000000000000995 30.00000000000003197 0 0.931654555106779303 F 1.570796326794896558 F 1.671207322738961443 #
DXID-attrib $-1 -1 $-1 $53 $34 @18 ASM_FACE_FROM_STEP @15 step-1M-791-733 #
color-adesk-attrib $-1 -1 $168 $-1 $54 0 #
face $169 -1 $-1 $-1 $67 $8 $-1 $170 forward single #
loop $-1 -1 $-1 $-1 $110 $54 #
plane-surface $-1 -1 $-1 0 600 0 0 1 0 0 0 1 forward_v I I I I #
coedge $-1 -1 $-1 $64 $171 $66 $119 reversed $55 $-1 #
coedge $-1 -1 $-1 $172 $57 $171 $173 reversed $35 $-1 #
coedge $-1 -1 $-1 $57 $172 $58 $106 forward $35 $-1 #
coedge $-1 -1 $-1 $60 $66 $57 $104 forward $67 $-1 #
edge $174 -1 $-1 $175 0 $108 0.8000000000000000444 $57 $176 forward @7 unknown #
coedge $-1 -1 $-1 $59 $58 $177 $178 forward $23 $-1 #
edge $179 -1 $-1 $180 0.2932211539631766617 $108 0.3577708763999669639 $58 $181 forward @7 unknown #
color-adesk-attrib $-1 -1 $182 $-1 $61 0 #
vertex $-1 -1 $-1 $61 $183 #
straight-curve $-1 -1 $-1 900 650 -400.0000000000000568 -1000 0 1.233581138472396128e-13 F 0 F 1.800000000000000044 #
coedge $-1 -1 $-1 $177 $184 $62 $111 reversed $98 $-1 #
edge $185 -1 $-1 $113 -0.3711324865405185025 $117 0.3711324865405187801 $62 $186 forward @7 unknown #
color-adesk-attrib $-1 -1 $187 $-1 $63 0 #
vertex $-1 -1 $-1 $63 $188 #
straight-curve $-1 -1 $-1 -539.9999999999988631 26.46170927520385874 -39.99999999999875655 -447.2135954999587284 774.5966692414826866 -447.2135954999586716 F 0.7404347494631351445 F 0.8049844718999255022 #
coedge $-1 -1 $-1 $171 $64 $184 $189 forward $55 $-1 #
color-adesk-attrib $-1 -1 $190 $-1 $65 0 #
vertex $-1 -1 $-1 $111 $191 #
straight-curve $-1 -1 $-1 -900 650 400.0000000000002274 -447.2135954999587284 774.5966692414826866 447.2135954999588421 F -0.06454972243679031607 F 0 #
edge $192 -1 $-1 $70 -1.800000000000000044 $175 0 $100 $193 forward @7 unknown #
DXID-attrib $-1 -1 $-1 $68 $41 @18 ASM_EDGE_FROM_STEP @3 797 #
point $-1 -1 $-1 -900 650 -399.9999999999998863 #
point $-1 -1 $-1 -900 650 400.0000000000002274 #
DXID-attrib $-1 -1 $-1 $73 $44 @18 ASM_FACE_FROM_STEP @15 step-1M-791-582 #
color-adesk-attrib $-1 -1 $194 $-1 $74 0 #
face $195 -1 $-1 $196 $197 $9 $-1 $198 reversed single #
loop $-1 -1 $-1 $-1 $199 $74 #
plane-surface $-1 -1 $-1 0 0 225 0 1 0 0 0 1 forward_v I I I I #
coedge $-1 -1 $-1 $200 $143 $147 $201 reversed $75 $-1 #
coedge $-1 -1 $-1 $202 $77 $203 $204 reversed $45 $-1 #
coedge $-1 -1 $-1 $77 $205 $206 $207 reversed $45 $-1 #
pcurve $-1 -1 $-1 0 forward { exppc nurbs 2 open 2 
	4.788925678662931733e-16 2 0.04725307224065927736 2 
	-1.632357836096986148 -448.8919193677498924 1 
	-0.8157231756121063881 -448.8919205957554368 0.9997209063786519634 
	0 -448.853347684586538 1 
	0 
	plane 507.6133226616730099 101.4864769128287634 225 -0.931654555106779414 -0.3633452764916438316 0 0.3633452764916438871 -0.931654555106779525 0 forward_v I I I I 
	} 0 0 #
coedge $-1 -1 $-1 $208 $78 $209 $210 reversed $29 $-1 #
coedge $-1 -1 $-1 $206 $211 $78 $134 reversed $212 $-1 #
edge $213 -1 $-1 $140 1.027020213152383121 $214 1.038827164494707134 $78 $215 forward @2 g2 #
coedge $-1 -1 $-1 $79 $208 $216 $217 reversed $29 $-1 #
coedge $-1 -1 $-1 $218 $203 $79 $137 reversed $219 $-1 #
edge $220 -1 $-1 $221 -1.951302703904056246 $139 -1.621511184189133203 $79 $222 forward @7 unknown #
color-adesk-attrib $-1 -1 $223 $-1 $80 0 #
tvertex-vertex $-1 -1 $-1 $80 $224 1.014281732235759926e-11 #
tvertex-vertex $-1 -1 $-1 $80 $225 1.010247593068765962e-11 #
ellipse-curve $-1 -1 $-1 507.0202320338481741 103.0072221119627187 -189.3340519517800544 0.9316545551067575426 0.3633452764916998978 4.384094481389203142e-12 -1.888146506701104954e-05 4.84144300649802517e-05 -34.55786741597005829 1 F -0.04725307224065927736 F -4.788925678662931733e-16 #
coedge $-1 -1 $-1 $85 $82 $226 $227 forward $18 $-1 #
tcoedge-coedge $-1 -1 $-1 $128 $228 $82 $144 reversed $75 $229 2.603001347678368401e-16 0.04725307224066400968 #
tedge-edge $230 -1 $-1 $150 -0.04725307224066400968 $231 -2.603001347678368401e-16 $82 $232 forward @7 unknown 3.613590420542570861e-07 #
pcurve $-1 -1 $-1 0 forward { exppc nubs 3 open 2 
	-0.04725307224066400968 3 -2.603001347678368401e-16 3 
	0.4326595615872288469 4.736951571733997229e-16 
	0.4260670030676835807 -0.01690399620395996103 
	0.4194744448616174459 -0.03380799331410178077 
	0.4128892446108992087 -0.05071485739806958631 
	7.724848254824301087e-09 
	cone -520 103.007270526392773 -193.891919367750063 1 0 0 0 0 -30.00000000000003197 1 I I 0 1 30.00000000000003197 forward I I I I 
	} 0 0 #
coedge $-1 -1 $-1 $233 $83 $89 $163 reversed $148 $-1 #
coedge $-1 -1 $-1 $83 $233 $128 $201 forward $148 $-1 #
loop $-1 -1 $-1 $-1 $83 $234 #
color-adesk-attrib $-1 -1 $235 $-1 $84 0 #
tvertex-vertex $-1 -1 $-1 $84 $236 1.015888218580782442e-11 #
straight-curve $-1 -1 $-1 -520 103.007270526392773 -223.8919193677500914 1000 0 0 F 0.00117283550529315053 F 0.01297978684761687956 #
coedge $-1 -1 $-1 $237 $238 $85 $153 forward $239 $-1 #
edge $240 -1 $-1 $158 0.005694114834961112523 $241 0.01912132601226851011 $85 $242 forward @14 tangent_not_g2 #
coedge $-1 -1 $-1 $243 $86 $238 $244 forward $156 $-1 #
coedge $-1 -1 $-1 $86 $245 $88 $161 forward $156 $-1 #
loop $-1 -1 $-1 $-1 $155 $246 #
color-adesk-attrib $-1 -1 $247 $-1 $87 0 #
vertex $-1 -1 $-1 $153 $248 #
ellipse-curve $-1 -1 $-1 -522.1050893677222575 103.0072705253230936 -193.8919193719788723 -0.8192319205190609077 -0.5734623443632991258 1.020364272364133518e-13 20.99999999838491505 -29.99999999769501358 3.170296607354004003e-09 0.8192319204664871846 F -1.470385330949909086 F -1.190289949761180965 #
coedge $-1 -1 $-1 $249 $88 $250 $251 forward $90 $-1 #
edge $252 -1 $-1 $253 0.001259189128860889158 $93 0.4487408108711390953 $88 $254 forward @7 unknown #
coedge $-1 -1 $-1 $89 $255 $256 $257 forward $90 $-1 #
edge $258 -1 $-1 $259 1.383034380487865977 $92 1.570796327028520123 $89 $260 forward @7 unknown #
face $261 -1 $-1 $246 $90 $9 $-1 $262 reversed single #
DXID-attrib $-1 -1 $-1 $91 $51 @18 ASM_EDGE_FROM_STEP @3 692 #
point $-1 -1 $-1 -518.8271644947068353 103.007270526392773 -223.8919193677500914 #
point $-1 -1 $-1 -520 100 -223.7408108711391037 #
DXID-attrib $-1 -1 $-1 $96 $54 @18 ASM_FACE_FROM_STEP @15 step-1M-791-364 #
color-adesk-attrib $-1 -1 $263 $-1 $97 0 #
plane-surface $-1 -1 $-1 0 650 0 0 1 0 0 0 1 forward_v I I I I #
coedge $-1 -1 $-1 $100 $115 $101 $173 forward $55 $-1 #
coedge $-1 -1 $-1 $102 $101 $264 $265 forward $35 $-1 #
edge $266 -1 $-1 $267 -0.06454972243679038546 $175 0 $101 $268 forward @7 unknown #
color-adesk-attrib $-1 -1 $269 $-1 $104 0 #
vertex $-1 -1 $-1 $104 $270 #
straight-curve $-1 -1 $-1 900 650 400 1.387778780781445676e-13 0 -1000 F 0 F 0.8000000000000000444 #
coedge $-1 -1 $-1 $264 $110 $105 $178 reversed $98 $-1 #
edge $271 -1 $-1 $180 -0.8711324865405187801 $113 0.8711324865405187801 $105 $272 forward @7 unknown #
color-adesk-attrib $-1 -1 $273 $-1 $106 0 #
vertex $-1 -1 $-1 $106 $274 #
straight-curve $-1 -1 $-1 739.9999999999994316 372.8718707889794359 -239.9999999999994884 447.2135954999588421 774.5966692414826866 -447.2135954999588421 F 0.2932211539631766617 F 0.3577708763999669639 #
DXID-attrib $-1 -1 $-1 $107 $61 @18 ASM_EDGE_FROM_STEP @3 963 #
point $-1 -1 $-1 900 650 -400.0000000000000568 #
coedge $-1 -1 $-1 $110 $264 $115 $189 reversed $98 $-1 #
color-adesk-attrib $-1 -1 $275 $-1 $111 0 #
straight-curve $-1 -1 $-1 -871.1324865405186983 600 0 0 0 1000 F -0.3711324865405185025 F 0.3711324865405187801 #
DXID-attrib $-1 -1 $-1 $112 $63 @18 ASM_EDGE_FROM_STEP @3 391 #
point $-1 -1 $-1 -871.1324865405186983 600 -371.1324865405185278 #
edge $276 -1 $-1 $117 -0.8711324865405187801 $267 0.871132486540518558 $115 $277 forward @7 unknown #
DXID-attrib $-1 -1 $-1 $116 $65 @18 ASM_EDGE_FROM_STEP @3 608 #
point $-1 -1 $-1 -871.1324865405186983 600 371.132486540518812 #
color-adesk-attrib $-1 -1 $278 $-1 $119 0 #
straight-curve $-1 -1 $-1 900 650 400 1000 0 -1.233581138472396128e-13 F -1.800000000000000044 F 0 #
DXID-attrib $-1 -1 $-1 $124 $74 @18 ASM_FACE_FROM_STEP @15 step-1M-791-889 #
color-adesk-attrib $-1 -1 $279 $-1 $125 0 #
face $280 -1 $-1 $281 $282 $9 $-1 $283 reversed single #
loop $-1 -1 $-1 $-1 $284 $125 #
plane-surface $-1 -1 $-1 450 0 225 -0.8192319205190404796 0.5734623443633283246 0 -0.5734623443633283246 -0.8192319205190405906 0 forward_v I I I I #
coedge $-1 -1 $-1 $285 $286 $243 $287 forward $126 $-1 #
coedge $-1 -1 $-1 $288 $128 $289 $290 reversed $75 $-1 #
edge $291 -1 $-1 $292 1.383034380398436847 $150 1.570796326922029973 $128 $293 forward @7 unknown #
coedge $-1 -1 $-1 $294 $129 $295 $296 reversed $45 $-1 #
coedge $-1 -1 $-1 $136 $297 $129 $204 forward $219 $-1 #
edge $298 -1 $-1 $299 0.001146652315413234551 $139 0.4488533476845866232 $129 $300 forward @7 unknown #
coedge $-1 -1 $-1 $130 $301 $302 $303 reversed $45 $-1 #
coedge $-1 -1 $-1 $304 $133 $130 $207 forward $212 $-1 #
edge $305 -1 $-1 $140 1.570796327935941594 $306 1.758558274300042079 $130 $307 forward @7 unknown #
coedge $-1 -1 $-1 $135 $132 $308 $309 reversed $29 $-1 #
coedge $-1 -1 $-1 $310 $311 $132 $210 forward $282 $-1 #
edge $312 -1 $-1 $313 -1.671207322738964329 $214 -1.570796326794900999 $132 $314 forward @7 unknown #
coedge $-1 -1 $-1 $133 $304 $310 $315 reversed $212 $-1 #
loop $-1 -1 $-1 $-1 $133 $316 #
color-adesk-attrib $-1 -1 $317 $-1 $134 0 #
vertex $-1 -1 $-1 $134 $318 #
straight-curve $-1 -1 $-1 -520 103.007270526392773 -223.8919193677500914 1000 0 0 F 1.027020213152383121 F 1.038827164494707134 #
coedge $-1 -1 $-1 $319 $320 $135 $217 forward $239 $-1 #
edge $321 -1 $-1 $221 1.020878673987731355 $322 1.03430588516503863 $135 $323 forward @14 tangent_not_g2 #
coedge $-1 -1 $-1 $324 $136 $320 $325 reversed $219 $-1 #
loop $-1 -1 $-1 $-1 $136 $326 #
color-adesk-attrib $-1 -1 $327 $-1 $137 0 #
vertex $-1 -1 $-1 $217 $328 #
ellipse-curve $-1 -1 $-1 508.6778781911334022 103.0072705263564359 -193.8919193678538306 0.8192319205190644604 -0.5734623443632940187 2.423337180695380388e-13 20.99999999995517541 29.99999999993863753 -1.156014005824300837e-10 0.8192319205179010577 F -1.951302703904056246 F -1.621511184189133203 #
DXID-attrib $-1 -1 $-1 $138 $80 @18 ASM_EDGE_FROM_STEP @3 134 #
point $-1 -1 $-1 507.6133226616730099 101.4864769128287634 -223.8533476845866232 #
point $-1 -1 $-1 507.0202131523831213 103.007270526392773 -223.8919193677500914 #
coedge $-1 -1 $-1 $329 $330 $142 $227 reversed $331 $-1 #
edge $332 -1 $-1 $231 -1.52008146940749822 $241 -1.190289949690786164 $142 $333 forward @7 unknown #
coedge $-1 -1 $-1 $143 $334 $329 $335 forward $75 $-1 #
pcurve $-1 -1 $-1 0 forward { exppc nurbs 2 open 2 
	2.603001347678368401e-16 2 0.04725307224066400968 2 
	1.421085471520200372e-14 -448.8533476845866517 1 
	0.815723175612120599 -448.8919205957555505 0.9997209063786519634 
	1.632357836097000359 -448.8919193677501198 1 
	0 
	plane -507.6133226616730099 101.486476912828806 225 0.931654555106779303 -0.3633452764916439426 0 0.3633452764916439426 0.931654555106779414 0 forward_v I I I I 
	} 0 0 #
color-adesk-attrib $-1 -1 $336 $-1 $144 0 #
tvertex-vertex $-1 -1 $-1 $144 $337 1.014281732235759926e-11 #
ellipse-curve $-1 -1 $-1 -507.0202320338906929 103.0072221119810081 -189.3340519517843461 -0.9316545551067662023 0.3633452764916775823 3.045733980160905515e-12 -0.5930906277823311257 -1.520745199152209182 -34.51929573280228425 1 F -0.04725307224066400968 F -2.603001347678368401e-16 #
coedge $-1 -1 $-1 $147 $146 $338 $339 forward $148 $-1 #
face $340 -1 $-1 $341 $148 $9 $-1 $342 forward single #
DXID-attrib $-1 -1 $-1 $149 $84 @18 ASM_EDGE_FROM_STEP @3 744 #
point $-1 -1 $-1 -507.0202131523831213 103.007270526392773 -223.8919193677500914 #
coedge $-1 -1 $-1 $343 $152 $330 $344 forward $239 $-1 #
coedge $-1 -1 $-1 $152 $345 $154 $244 reversed $239 $-1 #
loop $-1 -1 $-1 $-1 $345 $341 #
color-adesk-attrib $-1 -1 $346 $-1 $153 0 #
vertex $-1 -1 $-1 $227 $347 #
straight-curve $-1 -1 $-1 -520 91.86555023576956103 -221.7462200943078301 1000 0 0 F 0.005694114834961112523 F 0.01912132601226851011 #
coedge $-1 -1 $-1 $348 $154 $199 $287 reversed $156 $-1 #
edge $349 -1 $-1 $158 -0.2456772627170404066 $350 -0.1276738268424897904 $154 $351 forward @7 unknown #
coedge $-1 -1 $-1 $155 $348 $352 $353 forward $156 $-1 #
face $354 -1 $-1 $326 $156 $9 $-1 $355 reversed single #
DXID-attrib $-1 -1 $-1 $157 $87 @18 ASM_EDGE_FROM_STEP @2 94 #
point $-1 -1 $-1 -514.3058851650389443 91.86555023576957524 -221.7462200943078301 #
coedge $-1 -1 $-1 $255 $160 $356 $357 forward $90 $-1 #
coedge $-1 -1 $-1 $352 $358 $160 $251 reversed $359 $-1 #
edge $360 -1 $-1 $253 -1.671207322778181403 $361 -1.383034380302346822 $160 $362 forward @7 unknown #
color-adesk-attrib $-1 -1 $363 $-1 $161 0 #
vertex $-1 -1 $-1 $161 $364 #
straight-curve $-1 -1 $-1 -520 100 225 -0 -0 -1000 F 0.001259189128860889158 F 0.4487408108711390953 #
coedge $-1 -1 $-1 $162 $249 $365 $366 forward $90 $-1 #
coedge $-1 -1 $-1 $367 $338 $162 $257 reversed $368 $-1 #
edge $369 -1 $-1 $370 -0.4665858692007526787 $259 0.06905494329195008274 $162 $371 forward @7 unknown #
color-adesk-attrib $-1 -1 $372 $-1 $163 0 #
vertex $-1 -1 $-1 $257 $373 #
ellipse-curve $-1 -1 $-1 -518.8271644943381489 103.0072705273180986 -193.8919193763382509 -0.931654555106789406 0.3633452764916181854 2.425228844824256993e-13 11.69999999829888715 29.99999999564062136 7.005614386378411868e-09 0.931654554975464344 F 1.383034380487865977 F 1.570796327028520123 #
color-adesk-attrib $-1 -1 $374 $-1 $164 0 #
plane-surface $-1 -1 $-1 -520 100 225 0.931654555106779303 -0.3633452764916438871 0 0.3633452764916438871 0.931654555106779414 0 forward_v I I I I #
DXID-attrib $-1 -1 $-1 $169 $97 @18 ASM_FACE_FROM_STEP @15 step-1M-791-285 #
coedge $-1 -1 $-1 $184 $177 $172 $265 reversed $98 $-1 #
edge $375 -1 $-1 $267 -0.371132486540518447 $180 0.3711324865405187801 $172 $376 forward @7 unknown #
color-adesk-attrib $-1 -1 $377 $-1 $173 0 #
vertex $-1 -1 $-1 $173 $378 #
straight-curve $-1 -1 $-1 900 650 400 447.2135954999586716 774.5966692414826866 447.2135954999586716 F -0.06454972243679038546 F 0 #
DXID-attrib $-1 -1 $-1 $174 $104 @18 ASM_EDGE_FROM_STEP @3 418 #
point $-1 -1 $-1 900 650 400 #
color-adesk-attrib $-1 -1 $379 $-1 $178 0 #
straight-curve $-1 -1 $-1 -4.578220352707441237e-14 600 -371.1324865405185847 -1000 0 1.233581138472396128e-13 F -0.8711324865405187801 F 0.8711324865405187801 #
DXID-attrib $-1 -1 $-1 $179 $106 @18 ASM_EDGE_FROM_STEP @3 580 #
point $-1 -1 $-1 871.1324865405186983 600 -371.1324865405186415 #
DXID-attrib $-1 -1 $-1 $185 $111 @18 ASM_EDGE_FROM_STEP @3 317 #
color-adesk-attrib $-1 -1 $380 $-1 $189 0 #
straight-curve $-1 -1 $-1 4.578220352707443131e-14 600 371.1324865405186415 1000 0 -1.233581138472396128e-13 F -0.8711324865405187801 F 0.871132486540518558 #
DXID-attrib $-1 -1 $-1 $192 $119 @18 ASM_EDGE_FROM_STEP @3 837 #
DXID-attrib $-1 -1 $-1 $195 $125 @18 ASM_FACE_FROM_STEP @15 step-1M-791-262 #
color-adesk-attrib $-1 -1 $381 $-1 $196 0 #
face $382 -1 $-1 $164 $383 $9 $-1 $384 reversed single #
loop $-1 -1 $-1 $-1 $311 $196 #
plane-surface $-1 -1 $-1 520 100 225 -0.931654555106779303 -0.3633452764916438871 0 0.3633452764916438871 -0.931654555106779414 0 forward_v I I I I #
coedge $-1 -1 $-1 $308 $385 $319 $386 forward $197 $-1 #
coedge $-1 -1 $-1 $387 $199 $345 $388 forward $126 $-1 #
coedge $-1 -1 $-1 $199 $387 $389 $390 reversed $126 $-1 #
edge $391 -1 $-1 $392 0.04000000000000000083 $350 0.4099999999999999756 $199 $393 forward @7 unknown #
coedge $-1 -1 $-1 $394 $200 $395 $396 reversed $75 $-1 #
coedge $-1 -1 $-1 $338 $397 $200 $290 forward $368 $-1 #
edge $398 -1 $-1 $399 -0.4530242655563038179 $292 0.07062604235986001677 $200 $400 forward @7 unknown #
color-adesk-attrib $-1 -1 $401 $-1 $201 0 #
vertex $-1 -1 $-1 $201 $402 #
ellipse-curve $-1 -1 $-1 -507.0202131521984938 103.0072705269036106 -193.891919370907317 -0.9316545551067630937 0.3633452764916855759 -4.545991730774306917e-13 11.69999999936719703 29.9999999983734682 3.811292793870259177e-09 0.9316545550592273406 F 1.383034380398436847 F 1.570796326922029973 #
coedge $-1 -1 $-1 $301 $202 $403 $404 reversed $45 $-1 #
coedge $-1 -1 $-1 $405 $406 $202 $296 forward $407 $-1 #
edge $408 -1 $-1 $409 -1.758558273287470719 $299 -1.520081469372132954 $202 $410 forward @7 unknown #
coedge $-1 -1 $-1 $203 $411 $405 $412 reversed $219 $-1 #
color-adesk-attrib $-1 -1 $413 $-1 $204 0 #
vertex $-1 -1 $-1 $204 $414 #
straight-curve $-1 -1 $-1 507.6133226616730099 101.4864769128287634 225 -0 -0 -1000 F 0.001146652315413234551 F 0.4488533476845866232 #
coedge $-1 -1 $-1 $205 $294 $415 $416 forward $45 $-1 #
coedge $-1 -1 $-1 $397 $417 $205 $303 forward $368 $-1 #
edge $418 -1 $-1 $306 -0.07062604235986010004 $419 0.4530242655563039289 $205 $420 forward @7 unknown #
coedge $-1 -1 $-1 $211 $206 $417 $421 forward $212 $-1 #
color-adesk-attrib $-1 -1 $422 $-1 $207 0 #
vertex $-1 -1 $-1 $303 $423 #
ellipse-curve $-1 -1 $-1 507.0202131541510084 103.00727052186636 -193.8919193202191877 0.9316545551067826336 0.3633452764916352828 -7.979107887731411307e-14 11.70000000937163342 -30.00000002403064769 3.422201310237272741e-08 0.9316545558365867397 F 1.570796327935941594 F 1.758558274300042079 #
coedge $-1 -1 $-1 $424 $284 $208 $309 forward $197 $-1 #
edge $425 -1 $-1 $322 -1.951302703993589516 $313 -1.671207322850042587 $208 $426 forward @7 unknown #
coedge $-1 -1 $-1 $427 $209 $211 $315 forward $282 $-1 #
coedge $-1 -1 $-1 $209 $428 $424 $429 forward $282 $-1 #
color-adesk-attrib $-1 -1 $430 $-1 $210 0 #
vertex $-1 -1 $-1 $210 $431 #
ellipse-curve $-1 -1 $-1 518.8271644947066079 103.007270526392773 -193.891919367750063 0.931654555106779303 0.3633452764916438871 0 -11.70000000000000995 30.00000000000003197 0 0.931654555106779303 F -1.671207322738964329 F -1.570796326794900999 #
edge $432 -1 $-1 $214 1.57079632789604684 $433 1.758558274266919019 $310 $434 forward @7 unknown #
face $435 -1 $-1 $234 $212 $9 $-1 $436 forward single #
DXID-attrib $-1 -1 $-1 $213 $134 @18 ASM_EDGE_FROM_STEP @3 678 #
point $-1 -1 $-1 518.827164494706949 103.007270526392773 -223.8919193677500914 #
coedge $-1 -1 $-1 $345 $216 $284 $386 reversed $239 $-1 #
coedge $-1 -1 $-1 $216 $343 $218 $325 forward $239 $-1 #
color-adesk-attrib $-1 -1 $437 $-1 $217 0 #
vertex $-1 -1 $-1 $309 $438 #
straight-curve $-1 -1 $-1 -520 91.86555023576956103 -221.7462200943078301 1000 0 0 F 1.020878673987731355 F 1.03430588516503863 #
coedge $-1 -1 $-1 $411 $218 $439 $440 reversed $219 $-1 #
edge $441 -1 $-1 $442 0.1290439849842140996 $221 0.2329176650222328226 $218 $443 forward @7 unknown #
face $444 -1 $-1 $445 $219 $9 $-1 $446 forward single #
DXID-attrib $-1 -1 $-1 $220 $137 @18 ASM_EDGE_FROM_STEP @3 459 #
point $-1 -1 $-1 500.8786739877314744 91.86555023576948997 -221.7462200943078301 #
coedge $-1 -1 $-1 $447 $226 $228 $335 reversed $331 $-1 #
coedge $-1 -1 $-1 $226 $448 $237 $344 reversed $331 $-1 #
loop $-1 -1 $-1 $-1 $226 $449 #
color-adesk-attrib $-1 -1 $450 $-1 $227 0 #
ellipse-curve $-1 -1 $-1 -508.6778781910825273 103.0072705262862911 -193.8919193681710169 -0.8192319205190703446 -0.5734623443632858031 2.897174059602262404e-13 20.9999999998366107 -29.99999999976990495 3.280630916488828751e-10 0.8192319205138512972 F -1.52008146940749822 F -1.190289949690786164 #
coedge $-1 -1 $-1 $228 $394 $451 $452 reversed $75 $-1 #
edge $453 -1 $-1 $454 0.001146652315413234551 $231 0.4488533476845866232 $228 $455 forward @7 unknown #
DXID-attrib $-1 -1 $-1 $230 $144 @18 ASM_EDGE_FROM_STEP @3 713 #
point $-1 -1 $-1 -507.6133226616730099 101.486476912828806 -223.8533476845866232 #
coedge $-1 -1 $-1 $256 $289 $233 $339 reversed $368 $-1 #
edge $456 -1 $-1 $259 0.003356765061425406264 $292 0.0151637164037492049 $338 $457 forward @14 tangent_not_g2 #
color-adesk-attrib $-1 -1 $458 $-1 $234 0 #
face $459 -1 $-1 $-1 $239 $9 $-1 $460 reversed single #
cone-surface $-1 -1 $-1 -520 103.007270526392773 -193.891919367750063 1 0 0 0 0 -30.00000000000003197 1 I I 0 1 30.00000000000003197 forward I I I I #
coedge $-1 -1 $-1 $320 $237 $461 $462 forward $239 $-1 #
edge $463 -1 $-1 $241 -0.2329176650222329337 $464 -0.1290439849842141551 $330 $465 forward @7 unknown #
coedge $-1 -1 $-1 $238 $319 $285 $388 reversed $239 $-1 #
DXID-attrib $-1 -1 $-1 $240 $153 @18 ASM_EDGE_FROM_STEP @3 280 #
point $-1 -1 $-1 -500.8786739877314744 91.86555023576948997 -221.7462200943078301 #
coedge $-1 -1 $-1 $245 $243 $466 $467 forward $156 $-1 #
color-adesk-attrib $-1 -1 $468 $-1 $244 0 #
vertex $-1 -1 $-1 $287 $469 #
straight-curve $-1 -1 $-1 -380.4242424242424931 -99.39393939393940514 -145.2424242424241925 544.9492609130661549 -778.4989441615231271 311.3995776646092963 F -0.2456772627170404066 F -0.1276738268424897904 #
coedge $-1 -1 $-1 $470 $250 $245 $353 reversed $359 $-1 #
edge $471 -1 $-1 $472 1.190289949706488937 $253 1.470385330881435859 $245 $473 forward @7 unknown #
color-adesk-attrib $-1 -1 $474 $-1 $246 0 #
plane-surface $-1 -1 $-1 -450 0 225 0.8192319205190404796 0.5734623443633283246 0 -0.5734623443633283246 0.8192319205190405906 0 forward_v I I I I #
coedge $-1 -1 $-1 $475 $476 $249 $357 reversed $477 $-1 #
edge $478 -1 $-1 $361 0.009382122804519379619 $479 0.5450229352972220109 $249 $480 forward @7 unknown #
coedge $-1 -1 $-1 $250 $451 $475 $481 reversed $359 $-1 #
loop $-1 -1 $-1 $-1 $352 $482 #
color-adesk-attrib $-1 -1 $483 $-1 $251 0 #
vertex $-1 -1 $-1 $251 $484 #
ellipse-curve $-1 -1 $-1 -518.8271644946557899 103.0072705265225181 193.8919193715268534 -0.9316545551067769715 0.3633452764916498268 -1.160520339426787269e-14 11.69999999926673873 29.99999999811928575 -9.868433112856241017e-10 0.931654555047894517 F -1.671207322778181403 F -1.383034380302346822 #
DXID-attrib $-1 -1 $-1 $252 $161 @18 ASM_EDGE_FROM_STEP @3 406 #
point $-1 -1 $-1 -520 100 223.7408108711391037 #
coedge $-1 -1 $-1 $485 $486 $255 $366 reversed $383 $-1 #
edge $487 -1 $-1 $479 0.09500000000000000111 $370 0.3549999999999999822 $365 $488 forward @7 unknown #
coedge $-1 -1 $-1 $489 $256 $486 $490 forward $368 $-1 #
loop $-1 -1 $-1 $-1 $417 $491 #
color-adesk-attrib $-1 -1 $492 $-1 $257 0 #
vertex $-1 -1 $-1 $490 $493 #
straight-curve $-1 -1 $-1 -491.9365426695842416 171.9575828985019257 -211.328059249284621 -357.783108510211548 -917.3925859236194356 -174.3045913254877348 F -0.4665858692007526787 F 0.06905494329195008274 #
DXID-attrib $-1 -1 $-1 $258 $163 @18 ASM_EDGE_FROM_STEP @3 784 #
point $-1 -1 $-1 -516.6432349385745511 108.6070899010909727 -223.364652918792757 #
DXID-attrib $-1 -1 $-1 $261 $164 @18 ASM_FACE_FROM_STEP @15 step-1M-791-266 #
color-adesk-attrib $-1 -1 $494 $-1 $265 0 #
straight-curve $-1 -1 $-1 871.1324865405186983 600 1.208939180070310269e-13 1.387778780781445676e-13 0 -1000 F -0.371132486540518447 F 0.3711324865405187801 #
DXID-attrib $-1 -1 $-1 $266 $173 @18 ASM_EDGE_FROM_STEP @3 428 #
point $-1 -1 $-1 871.1324865405185847 600 371.1324865405185847 #
DXID-attrib $-1 -1 $-1 $271 $178 @18 ASM_EDGE_FROM_STEP @3 248 #
DXID-attrib $-1 -1 $-1 $276 $189 @18 ASM_EDGE_FROM_STEP @3 866 #
DXID-attrib $-1 -1 $-1 $280 $196 @18 ASM_FACE_FROM_STEP @14 step-1M-791-66 #
color-adesk-attrib $-1 -1 $495 $-1 $281 0 #
loop $-1 -1 $-1 $-1 $496 $281 #
plane-surface $-1 -1 $-1 -325 600 225 0 -1 0 0 0 -1 forward_v I I I I #
coedge $-1 -1 $-1 $284 $497 $387 $498 forward $197 $-1 #
edge $499 -1 $-1 $500 0.1276738268424897071 $322 0.2456772627170401013 $284 $501 forward @7 unknown #
coedge $-1 -1 $-1 $286 $285 $385 $498 reversed $126 $-1 #
edge $502 -1 $-1 $350 0.06999999999999992339 $500 0.9699999999999999734 $285 $503 forward @7 unknown #
coedge $-1 -1 $-1 $504 $466 $286 $390 forward $505 $-1 #
edge $506 -1 $-1 $392 0.07000000000000000666 $507 0.9699999999999999734 $286 $508 forward @7 unknown #
color-adesk-attrib $-1 -1 $509 $-1 $287 0 #
vertex $-1 -1 $-1 $287 $510 #
straight-curve $-1 -1 $-1 -450 0 225 -0 -0 -1000 F 0.04000000000000000083 F 0.4099999999999999756 #
coedge $-1 -1 $-1 $334 $288 $511 $512 reversed $75 $-1 #
coedge $-1 -1 $-1 $513 $514 $288 $396 forward $515 $-1 #
edge $516 -1 $-1 $517 0.09291000000000002035 $399 0.357089999999999963 $288 $518 forward @7 unknown #
coedge $-1 -1 $-1 $289 $302 $513 $519 forward $368 $-1 #
color-adesk-attrib $-1 -1 $520 $-1 $290 0 #
vertex $-1 -1 $-1 $290 $521 #
straight-curve $-1 -1 $-1 -479.56747861896622 173.3988975351540489 -211.0542094683207779 -357.783108510211548 -917.3925859236193219 -174.3045913254877064 F -0.4530242655563038179 F 0.07062604235986001677 #
DXID-attrib $-1 -1 $-1 $291 $201 @18 ASM_EDGE_FROM_STEP @3 489 #
point $-1 -1 $-1 -504.8362835962507802 108.6070899010909727 -223.364652918792757 #
coedge $-1 -1 $-1 $522 $523 $294 $404 forward $477 $-1 #
edge $524 -1 $-1 $525 -0.5314613316527733167 $409 -0.007811023736609403953 $294 $526 forward @7 unknown #
coedge $-1 -1 $-1 $527 $295 $297 $412 forward $407 $-1 #
coedge $-1 -1 $-1 $295 $528 $522 $529 reversed $407 $-1 #
loop $-1 -1 $-1 $-1 $528 $530 #
color-adesk-attrib $-1 -1 $531 $-1 $296 0 #
vertex $-1 -1 $-1 $296 $532 #
ellipse-curve $-1 -1 $-1 507.020213152346173 103.0072705264873605 193.8919193686701306 0.9316545551067813014 0.3633452764916387245 0 11.69999999981888372 -29.99999999953609375 7.172368077871072483e-10 0.9316545550926155217 F -1.758558273287470719 F -1.520081469372132954 #
coedge $-1 -1 $-1 $297 $324 $533 $534 reversed $219 $-1 #
edge $535 -1 $-1 $299 1.62151118422242857 $536 1.951302703929042925 $297 $537 forward @7 unknown #
DXID-attrib $-1 -1 $-1 $298 $204 @18 ASM_EDGE_FROM_STEP @3 568 #
point $-1 -1 $-1 507.6133226616730099 101.4864769128287634 223.8533476845867654 #
coedge $-1 -1 $-1 $514 $513 $301 $416 reversed $515 $-1 #
edge $538 -1 $-1 $525 0.09291000000000002035 $419 0.357089999999999963 $301 $539 forward @7 unknown #
coedge $-1 -1 $-1 $302 $489 $304 $421 reversed $368 $-1 #
color-adesk-attrib $-1 -1 $540 $-1 $303 0 #
vertex $-1 -1 $-1 $416 $541 #
straight-curve $-1 -1 $-1 479.56747861896622 173.3988975351540489 -211.0542094683207779 -357.7831085102113207 917.3925859236194356 174.3045913254877348 F -0.07062604235986010004 F 0.4530242655563039289 #
edge $542 -1 $-1 $306 1.024836283596251008 $433 1.036643234938574576 $417 $543 forward @14 tangent_not_g2 #
DXID-attrib $-1 -1 $-1 $305 $207 @18 ASM_EDGE_FROM_STEP @3 951 #
point $-1 -1 $-1 504.8362835962509507 108.6070899010909585 -223.364652918792757 #
coedge $-1 -1 $-1 $544 $308 $311 $429 reversed $197 $-1 #
color-adesk-attrib $-1 -1 $545 $-1 $309 0 #
ellipse-curve $-1 -1 $-1 522.1050893693102353 103.0072705275995162 -193.891919362589249 0.8192319205190646825 -0.5734623443632936857 2.546230110853764078e-13 21.00000000193873007 30.00000000277231038 3.580839041139353692e-09 0.8192319205843189289 F -1.951302703993589516 F -1.671207322850042587 #
coedge $-1 -1 $-1 $546 $310 $489 $547 forward $282 $-1 #
coedge $-1 -1 $-1 $311 $548 $528 $549 forward $282 $-1 #
edge $550 -1 $-1 $551 0.001259189128860889158 $313 0.4487408108711390953 $424 $552 forward @7 unknown #
DXID-attrib $-1 -1 $-1 $312 $210 @18 ASM_EDGE_FROM_STEP @3 321 #
point $-1 -1 $-1 520 100 -223.7408108711391037 #
color-adesk-attrib $-1 -1 $553 $-1 $315 0 #
vertex $-1 -1 $-1 $315 $554 #
ellipse-curve $-1 -1 $-1 518.8271644963986091 103.0072705220185298 -193.8919193223766797 0.9316545551067909603 0.3633452764916140221 4.451502295260735202e-13 11.70000000894820325 -30.00000002294695634 3.302508294450694375e-08 0.9316545558032475194 F 1.57079632789604684 F 1.758558274266919019 #
color-adesk-attrib $-1 -1 $555 $-1 $316 0 #
cone-surface $-1 -1 $-1 -520 103.007270526392773 -193.891919367750063 1 0 0 0 0 -30.00000000000003197 1 I I 0 1 30.00000000000003197 forward I I I I #
DXID-attrib $-1 -1 $-1 $321 $217 @18 ASM_EDGE_FROM_STEP @3 632 #
point $-1 -1 $-1 514.3058851650384895 91.86555023576948997 -221.7462200943078017 #
coedge $-1 -1 $-1 $461 $556 $324 $440 forward $557 $-1 #
edge $558 -1 $-1 $559 0.03559999999999998582 $442 0.4144000000000000461 $324 $560 forward @7 unknown #
color-adesk-attrib $-1 -1 $561 $-1 $325 0 #
vertex $-1 -1 $-1 $325 $562 #
straight-curve $-1 -1 $-1 373.9503645802687402 -89.4606060606061817 -149.2157575757576069 544.9492609130657002 778.4989441615232408 -311.39957766460941 F 0.1290439849842140996 F 0.2329176650222328226 #
color-adesk-attrib $-1 -1 $563 $-1 $326 0 #
face $564 -1 $-1 $449 $515 $9 $-1 $565 forward single #
plane-surface $-1 -1 $-1 444.2727888226929167 11 225 -0.8192319205190408127 0.5734623443633279916 0 -0.5734623443633279916 -0.8192319205190408127 0 forward_v I I I I #
coedge $-1 -1 $-1 $566 $329 $567 $568 reversed $331 $-1 #
coedge $-1 -1 $-1 $330 $566 $569 $570 forward $331 $-1 #
face $571 -1 $-1 $572 $331 $9 $-1 $573 forward single #
DXID-attrib $-1 -1 $-1 $332 $227 @18 ASM_EDGE_FROM_STEP @3 103 #
coedge $-1 -1 $-1 $358 $567 $334 $452 forward $359 $-1 #
edge $574 -1 $-1 $454 -1.621511184217474311 $575 -1.383034380303919342 $334 $576 forward @7 unknown #
color-adesk-attrib $-1 -1 $577 $-1 $335 0 #
vertex $-1 -1 $-1 $452 $578 #
straight-curve $-1 -1 $-1 -507.6133226616730099 101.486476912828806 225 -0 -0 -1000 F 0.001146652315413234551 F 0.4488533476845866232 #
color-adesk-attrib $-1 -1 $579 $-1 $339 0 #
straight-curve $-1 -1 $-1 -520 108.6070899010909727 -223.364652918792757 1000 0 0 F 0.003356765061425406264 F 0.0151637164037492049 #
DXID-attrib $-1 -1 $-1 $340 $234 @18 ASM_FACE_FROM_STEP @15 step-1M-791-202 #
color-adesk-attrib $-1 -1 $580 $-1 $341 0 #
plane-surface $-1 -1 $-1 -520 91.86555023576956103 -221.7462200943078301 0 0.371390676354103888 0.9284766908852593037 0 -0.9284766908852593037 0.371390676354103888 forward_v I I I I #
coedge $-1 -1 $-1 $569 $439 $343 $462 reversed $557 $-1 #
edge $581 -1 $-1 $464 -0.4442727888226929434 $442 0.4442727888226929434 $461 $582 forward @7 unknown #
color-adesk-attrib $-1 -1 $583 $-1 $344 0 #
vertex $-1 -1 $-1 $570 $584 #
straight-curve $-1 -1 $-1 -373.9503645802687402 -89.46060606060621012 -149.2157575757575216 544.9492609130655865 -778.4989441615233545 311.3995776646094669 F -0.2329176650222329337 F -0.1290439849842141551 #
coedge $-1 -1 $-1 $389 $585 $348 $467 reversed $505 $-1 #
edge $586 -1 $-1 $392 -0.0124559831065844083 $472 0.1055474527679661489 $348 $587 forward @7 unknown #
DXID-attrib $-1 -1 $-1 $349 $244 @18 ASM_EDGE_FROM_STEP @2 79 #
point $-1 -1 $-1 -450.0000000000000568 0 -184.9999999999999716 #
coedge $-1 -1 $-1 $567 $352 $585 $588 forward $359 $-1 #
color-adesk-attrib $-1 -1 $589 $-1 $353 0 #
vertex $-1 -1 $-1 $467 $590 #
ellipse-curve $-1 -1 $-1 -522.1050893682353262 103.007270526066435 193.8919193691296812 -0.8192319205190767839 -0.5734623443632763662 -2.976842556071591245e-13 20.99999999947596052 -29.99999999925542227 -9.834609179340591349e-10 0.8192319205017241091 F 1.190289949706488937 F 1.470385330881435859 #
DXID-attrib $-1 -1 $-1 $354 $246 @18 ASM_FACE_FROM_STEP @15 step-1M-791-975 #
coedge $-1 -1 $-1 $511 $356 $358 $481 forward $477 $-1 #
coedge $-1 -1 $-1 $356 $591 $485 $592 reversed $477 $-1 #
loop $-1 -1 $-1 $-1 $476 $593 #
color-adesk-attrib $-1 -1 $594 $-1 $357 0 #
vertex $-1 -1 $-1 $366 $595 #
straight-curve $-1 -1 $-1 -520 100 225 357.783108510211548 917.3925859236194356 -174.3045913254877348 F 0.009382122804519379619 F 0.5450229352972220109 #
edge $596 -1 $-1 $361 0.003356765061425548511 $575 0.0151637164037492049 $475 $597 forward @14 tangent_not_g2 #
face $598 -1 $-1 $599 $359 $9 $-1 $600 forward single #
DXID-attrib $-1 -1 $-1 $360 $251 @18 ASM_EDGE_FROM_STEP @2 59 #
point $-1 -1 $-1 -516.6432349385744374 108.6070899010909727 223.364652918792757 #
coedge $-1 -1 $-1 $496 $365 $476 $592 forward $383 $-1 #
coedge $-1 -1 $-1 $365 $496 $367 $490 reversed $383 $-1 #
color-adesk-attrib $-1 -1 $601 $-1 $366 0 #
straight-curve $-1 -1 $-1 -325 600 225 -0 -0 -1000 F 0.09500000000000000111 F 0.3549999999999999822 #
coedge $-1 -1 $-1 $417 $367 $427 $547 reversed $368 $-1 #
edge $602 -1 $-1 $370 0.1950000000000000067 $603 0.8449999999999999734 $486 $604 forward @7 unknown #
face $605 -1 $-1 $316 $368 $9 $-1 $606 reversed single #
DXID-attrib $-1 -1 $-1 $369 $257 @18 ASM_EDGE_FROM_STEP @3 473 #
point $-1 -1 $-1 -325 600 -130 #
DXID-attrib $-1 -1 $-1 $375 $265 @18 ASM_EDGE_FROM_STEP @3 367 #
DXID-attrib $-1 -1 $-1 $382 $281 @18 ASM_FACE_FROM_STEP @15 step-1M-791-652 #
coedge $-1 -1 $-1 $486 $485 $546 $607 forward $383 $-1 #
coedge $-1 -1 $-1 $385 $544 $504 $608 forward $197 $-1 #
edge $609 -1 $-1 $507 0.04000000000000000083 $500 0.4099999999999999756 $387 $610 forward @7 unknown #
color-adesk-attrib $-1 -1 $611 $-1 $386 0 #
vertex $-1 -1 $-1 $388 $612 #
straight-curve $-1 -1 $-1 380.4242424242424931 -99.39393939393940514 -145.2424242424241925 544.9492609130661549 778.4989441615231271 -311.3995776646092963 F 0.1276738268424897071 F 0.2456772627170401013 #
color-adesk-attrib $-1 -1 $613 $-1 $388 0 #
straight-curve $-1 -1 $-1 -520 0 -185 1000 0 0 F 0.06999999999999992339 F 0.9699999999999999734 #
coedge $-1 -1 $-1 $614 $389 $497 $608 reversed $505 $-1 #
loop $-1 -1 $-1 $-1 $614 $599 #
color-adesk-attrib $-1 -1 $615 $-1 $390 0 #
vertex $-1 -1 $-1 $498 $616 #
straight-curve $-1 -1 $-1 -520 0 185 1000 0 0 F 0.07000000000000000666 F 0.9699999999999999734 #
DXID-attrib $-1 -1 $-1 $391 $287 @18 ASM_EDGE_FROM_STEP @3 813 #
point $-1 -1 $-1 -450 0 185 #
coedge $-1 -1 $-1 $523 $475 $394 $512 forward $477 $-1 #
edge $617 -1 $-1 $575 0.007811023736609381402 $517 0.5314613316527733167 $394 $618 forward @7 unknown #
coedge $-1 -1 $-1 $415 $395 $397 $519 reversed $515 $-1 #
coedge $-1 -1 $-1 $395 $415 $523 $619 reversed $515 $-1 #
loop $-1 -1 $-1 $-1 $513 $445 #
color-adesk-attrib $-1 -1 $620 $-1 $396 0 #
vertex $-1 -1 $-1 $396 $621 #
straight-curve $-1 -1 $-1 -317.4830486576763064 589 225 -0 -0 -1000 F 0.09291000000000002035 F 0.357089999999999963 #
edge $622 -1 $-1 $419 -0.6349660973153526955 $399 0 $513 $623 forward @7 unknown #
DXID-attrib $-1 -1 $-1 $398 $290 @18 ASM_EDGE_FROM_STEP @3 591 #
point $-1 -1 $-1 -317.4830486576763064 589 -132.089999999999975 #
coedge $-1 -1 $-1 $591 $403 $406 $529 forward $477 $-1 #
coedge $-1 -1 $-1 $403 $511 $514 $619 forward $477 $-1 #
color-adesk-attrib $-1 -1 $624 $-1 $404 0 #
vertex $-1 -1 $-1 $404 $625 #
straight-curve $-1 -1 $-1 507.6309359493819784 101.441314636652109 224.7261502190361 357.7831085102113207 -917.3925859236194356 174.3045913254877348 F -0.5314613316527733167 F -0.007811023736609403953 #
coedge $-1 -1 $-1 $626 $405 $614 $627 forward $407 $-1 #
coedge $-1 -1 $-1 $406 $626 $428 $549 reversed $407 $-1 #
edge $628 -1 $-1 $409 1.024836283596250786 $629 1.036643234938574576 $522 $630 forward @14 tangent_not_g2 #
face $631 -1 $-1 $482 $407 $9 $-1 $632 forward single #
DXID-attrib $-1 -1 $-1 $408 $296 @18 ASM_EDGE_FROM_STEP @3 872 #
point $-1 -1 $-1 504.8362835962507802 108.6070899010909727 223.364652918792757 #
coedge $-1 -1 $-1 $633 $614 $411 $534 forward $505 $-1 #
edge $634 -1 $-1 $536 -0.09278785507315873149 $559 0.01108582496486011475 $411 $635 forward @7 unknown #
color-adesk-attrib $-1 -1 $636 $-1 $412 0 #
vertex $-1 -1 $-1 $534 $637 #
ellipse-curve $-1 -1 $-1 508.6778781913783973 103.0072705267013475 193.8919193663883505 0.8192319205190554676 -0.5734623443633071194 -1.462125226341466296e-13 21.00000000050765792 30.00000000072688522 -9.152661261639935545e-10 0.8192319205363961521 F 1.62151118422242857 F 1.951302703929042925 #
color-adesk-attrib $-1 -1 $638 $-1 $416 0 #
straight-curve $-1 -1 $-1 317.4830486576763633 589 225 -0 -0 -1000 F 0.09291000000000002035 F 0.357089999999999963 #
DXID-attrib $-1 -1 $-1 $418 $303 @18 ASM_EDGE_FROM_STEP @3 498 #
point $-1 -1 $-1 317.4830486576763064 589 -132.089999999999975 #
color-adesk-attrib $-1 -1 $639 $-1 $421 0 #
straight-curve $-1 -1 $-1 -520 108.6070899010909727 -223.364652918792757 1000 0 0 F 1.024836283596251008 F 1.036643234938574576 #
coedge $-1 -1 $-1 $497 $424 $626 $640 forward $197 $-1 #
DXID-attrib $-1 -1 $-1 $425 $309 @18 ASM_EDGE_FROM_STEP @3 216 #
coedge $-1 -1 $-1 $548 $427 $496 $607 reversed $282 $-1 #
edge $641 -1 $-1 $433 -0.06905494329195013825 $603 0.4665858692007526787 $427 $642 forward @7 unknown #
coedge $-1 -1 $-1 $428 $546 $591 $643 forward $282 $-1 #
edge $644 -1 $-1 $629 -1.758558273319297038 $551 -1.470385330869407259 $428 $645 forward @7 unknown #
color-adesk-attrib $-1 -1 $646 $-1 $429 0 #
vertex $-1 -1 $-1 $429 $647 #
straight-curve $-1 -1 $-1 520 100 225 -0 -0 -1000 F 0.001259189128860889158 F 0.4487408108711390953 #
DXID-attrib $-1 -1 $-1 $432 $315 @18 ASM_EDGE_FROM_STEP @3 561 #
point $-1 -1 $-1 516.6432349385746647 108.6070899010909443 -223.364652918792757 #
DXID-attrib $-1 -1 $-1 $435 $316 @18 ASM_FACE_FROM_STEP @15 step-1M-791-575 #
coedge $-1 -1 $-1 $439 $569 $633 $648 reversed $557 $-1 #
loop $-1 -1 $-1 $-1 $461 $572 #
color-adesk-attrib $-1 -1 $649 $-1 $440 0 #
vertex $-1 -1 $-1 $440 $650 #
straight-curve $-1 -1 $-1 444.2727888226929167 11 225 -0 -0 -1000 F 0.03559999999999998582 F 0.4144000000000000461 #
DXID-attrib $-1 -1 $-1 $441 $325 @18 ASM_EDGE_FROM_STEP @3 463 #
point $-1 -1 $-1 444.2727888226929167 11 -189.4000000000000341 #
DXID-attrib $-1 -1 $-1 $444 $326 @18 ASM_FACE_FROM_STEP @15 step-1M-791-431 #
color-adesk-attrib $-1 -1 $651 $-1 $445 0 #
plane-surface $-1 -1 $-1 -317.4830486576763064 589 225 0 -1 0 0 0 -1 forward_v I I I I #
coedge $-1 -1 $-1 $448 $447 $652 $653 reversed $331 $-1 #
coedge $-1 -1 $-1 $451 $470 $447 $568 forward $359 $-1 #
edge $654 -1 $-1 $655 1.19028994968120605 $454 1.520081469396171059 $447 $656 forward @7 unknown #
coedge $-1 -1 $-1 $556 $461 $448 $570 reversed $557 $-1 #
edge $657 -1 $-1 $658 0.03559999999999998582 $464 0.4144000000000000461 $448 $659 forward @7 unknown #
color-adesk-attrib $-1 -1 $660 $-1 $449 0 #
face $661 -1 $-1 $593 $557 $9 $-1 $662 forward single #
plane-surface $-1 -1 $-1 -444.2727888226929167 11 225 0.8192319205190408127 0.5734623443633278805 0 -0.5734623443633278805 0.8192319205190408127 0 forward_v I I I I #
color-adesk-attrib $-1 -1 $663 $-1 $452 0 #
vertex $-1 -1 $-1 $512 $664 #
ellipse-curve $-1 -1 $-1 -507.0202131523457183 103.0072705264884689 193.8919193682161506 -0.9316545551067807462 0.3633452764916402788 0 11.69999999990549355 29.99999999975802467 -7.225347700959674645e-10 0.9316545550998229785 F -1.621511184217474311 F -1.383034380303919342 #
DXID-attrib $-1 -1 $-1 $453 $335 @18 ASM_EDGE_FROM_STEP @3 394 #
point $-1 -1 $-1 -507.6133226616730099 101.486476912828806 223.8533476845867654 #
DXID-attrib $-1 -1 $-1 $456 $339 @18 ASM_EDGE_FROM_STEP @3 116 #
DXID-attrib $-1 -1 $-1 $459 $341 @18 ASM_FACE_FROM_STEP @15 step-1M-791-275 #
color-adesk-attrib $-1 -1 $665 $-1 $462 0 #
straight-curve $-1 -1 $-1 0 11 -189.4000000000000341 1000 0 0 F -0.4442727888226929434 F 0.4442727888226929434 #
DXID-attrib $-1 -1 $-1 $463 $344 @18 ASM_EDGE_FROM_STEP @3 141 #
point $-1 -1 $-1 -444.2727888226929167 11 -189.4000000000000341 #
coedge $-1 -1 $-1 $466 $652 $470 $588 reversed $505 $-1 #
color-adesk-attrib $-1 -1 $666 $-1 $467 0 #
straight-curve $-1 -1 $-1 -456.7878787878788671 9.696969696969699015 188.8787878787878753 -544.9492609130661549 778.4989441615231271 311.3995776646092963 F -0.0124559831065844083 F 0.1055474527679661489 #
edge $667 -1 $-1 $472 0.00569411483496125477 $655 0.01912132601226844072 $470 $668 forward @14 tangent_not_g2 #
DXID-attrib $-1 -1 $-1 $471 $353 @18 ASM_EDGE_FROM_STEP @3 968 #
point $-1 -1 $-1 -514.3058851650387169 91.86555023576957524 221.7462200943078301 #
coedge $-1 -1 $-1 $476 $522 $548 $643 reversed $477 $-1 #
edge $669 -1 $-1 $479 0.1949999999999999234 $670 0.8449999999999999734 $485 $671 forward @7 unknown #
face $672 -1 $-1 $530 $477 $9 $-1 $673 reversed single #
DXID-attrib $-1 -1 $-1 $478 $357 @18 ASM_EDGE_FROM_STEP @3 677 #
point $-1 -1 $-1 -325.0000000000000568 600 130 #
color-adesk-attrib $-1 -1 $674 $-1 $481 0 #
straight-curve $-1 -1 $-1 -520 108.6070899010909727 223.364652918792757 1000 0 0 F 0.003356765061425548511 F 0.0151637164037492049 #
color-adesk-attrib $-1 -1 $675 $-1 $482 0 #
face $676 -1 $-1 $491 $505 $9 $-1 $677 reversed single #
cone-surface $-1 -1 $-1 -520 103.007270526392773 193.891919367750063 1 0 0 0 0 -30.00000000000003197 1 I I 0 1 30.00000000000003197 forward I I I I #
DXID-attrib $-1 -1 $-1 $487 $366 @18 ASM_EDGE_FROM_STEP @3 836 #
color-adesk-attrib $-1 -1 $678 $-1 $490 0 #
vertex $-1 -1 $-1 $547 $679 #
straight-curve $-1 -1 $-1 -520 600 -130 1000 0 0 F 0.1950000000000000067 F 0.8449999999999999734 #
color-adesk-attrib $-1 -1 $680 $-1 $491 0 #
plane-surface $-1 -1 $-1 -520 600 -130 0 -0.1866606458232702159 0.982424451701422119 0 -0.98242445170142223 -0.1866606458232702437 forward_v I I I I #
edge $681 -1 $-1 $670 0.09500000000000000111 $603 0.3549999999999999822 $546 $682 forward @7 unknown #
edge $683 -1 $-1 $684 -0.1055474527679659547 $507 0.0124559831065844083 $497 $685 forward @7 unknown #
color-adesk-attrib $-1 -1 $686 $-1 $498 0 #
straight-curve $-1 -1 $-1 450 0 225 -0 -0 -1000 F 0.04000000000000000083 F 0.4099999999999999756 #
DXID-attrib $-1 -1 $-1 $499 $386 @18 ASM_EDGE_FROM_STEP @3 730 #
point $-1 -1 $-1 450 -2.775557561562891351e-14 -184.9999999999999716 #
DXID-attrib $-1 -1 $-1 $502 $388 @18 ASM_EDGE_FROM_STEP @3 762 #
coedge $-1 -1 $-1 $533 $504 $527 $627 reversed $505 $-1 #
DXID-attrib $-1 -1 $-1 $506 $390 @18 ASM_EDGE_FROM_STEP @3 540 #
point $-1 -1 $-1 450 0 185 #
color-adesk-attrib $-1 -1 $687 $-1 $512 0 #
straight-curve $-1 -1 $-1 -507.6309359493819784 101.4413146366521232 224.7261502190360716 357.783108510211548 917.3925859236193219 -174.3045913254877064 F 0.007811023736609381402 F 0.5314613316527733167 #
edge $688 -1 $-1 $517 0 $525 0.6349660973153526955 $514 $689 forward @7 unknown #
DXID-attrib $-1 -1 $-1 $516 $396 @18 ASM_EDGE_FROM_STEP @3 664 #
point $-1 -1 $-1 -317.4830486576763064 589 132.089999999999975 #
color-adesk-attrib $-1 -1 $690 $-1 $519 0 #
straight-curve $-1 -1 $-1 -317.4830486576763064 589 -132.089999999999975 -1000 0 0 F -0.6349660973153526955 F 0 #
DXID-attrib $-1 -1 $-1 $524 $404 @18 ASM_EDGE_FROM_STEP @2 15 #
point $-1 -1 $-1 317.4830486576763064 589 132.089999999999975 #
coedge $-1 -1 $-1 $528 $527 $544 $640 reversed $407 $-1 #
edge $691 -1 $-1 $536 1.020878673987731577 $684 1.03430588516503863 $527 $692 forward @14 tangent_not_g2 #
color-adesk-attrib $-1 -1 $693 $-1 $529 0 #
vertex $-1 -1 $-1 $643 $694 #
straight-curve $-1 -1 $-1 -520 108.6070899010909727 223.364652918792757 1000 0 0 F 1.024836283596250786 F 1.036643234938574576 #
color-adesk-attrib $-1 -1 $695 $-1 $530 0 #
cone-surface $-1 -1 $-1 -520 103.007270526392773 193.891919367750063 1 0 0 0 0 -30.00000000000003197 1 I I 0 1 30.00000000000003197 forward I I I I #
coedge $-1 -1 $-1 $652 $533 $556 $648 forward $505 $-1 #
color-adesk-attrib $-1 -1 $696 $-1 $534 0 #
straight-curve $-1 -1 $-1 450.3140009439050573 19.63030303030303969 192.8521212121212614 -544.9492609130657002 -778.4989441615232408 -311.39957766460941 F -0.09278785507315873149 F 0.01108582496486011475 #
DXID-attrib $-1 -1 $-1 $535 $412 @18 ASM_EDGE_FROM_STEP @3 413 #
point $-1 -1 $-1 500.8786739877315313 91.86555023576956103 221.7462200943078301 #
DXID-attrib $-1 -1 $-1 $538 $416 @18 ASM_EDGE_FROM_STEP @3 231 #
DXID-attrib $-1 -1 $-1 $542 $421 @18 ASM_EDGE_FROM_STEP @3 890 #
edge $697 -1 $-1 $551 1.671207322834393771 $684 1.951302703982727538 $544 $698 forward @7 unknown #
color-adesk-attrib $-1 -1 $699 $-1 $547 0 #
straight-curve $-1 -1 $-1 491.9365426695842416 171.9575828985019257 -211.328059249284621 -357.783108510211548 917.3925859236194356 174.3045913254877348 F -0.06905494329195013825 F 0.4665858692007526787 #
edge $700 -1 $-1 $670 -0.545022935297222122 $629 -0.009382122804519327577 $548 $701 forward @7 unknown #
color-adesk-attrib $-1 -1 $702 $-1 $549 0 #
ellipse-curve $-1 -1 $-1 518.8271644947296863 103.0072705263297763 193.8919193661323561 0.9316545551067827446 0.3633452764916349498 -5.266976925090180692e-14 11.70000000031348719 -30.00000000080466123 -4.76332588688407952e-10 0.931654555132033102 F -1.758558273319297038 F -1.470385330869407259 #
DXID-attrib $-1 -1 $-1 $550 $429 @18 ASM_EDGE_FROM_STEP @3 783 #
point $-1 -1 $-1 520 100 223.7408108711391037 #
edge $703 -1 $-1 $559 -0.4442727888226929434 $658 0.4442727888226929434 $556 $704 forward @7 unknown #
DXID-attrib $-1 -1 $-1 $558 $440 @18 ASM_EDGE_FROM_STEP @3 581 #
point $-1 -1 $-1 444.2727888226929167 11 189.4000000000000057 #
DXID-attrib $-1 -1 $-1 $564 $445 @18 ASM_FACE_FROM_STEP @15 step-1M-791-127 #
coedge $-1 -1 $-1 $585 $633 $566 $653 forward $505 $-1 #
edge $705 -1 $-1 $658 -0.01108582496486011822 $655 0.09278785507315873149 $566 $706 forward @7 unknown #
color-adesk-attrib $-1 -1 $707 $-1 $568 0 #
vertex $-1 -1 $-1 $568 $708 #
ellipse-curve $-1 -1 $-1 -508.6778781911673377 103.0072705264024222 193.8919193678738679 -0.8192319205190614628 -0.5734623443632984596 -1.949500301788597326e-13 20.99999999995981526 -29.99999999994492939 1.578537595947931455e-11 0.8192319205171864072 F 1.19028994968120605 F 1.520081469396171059 #
color-adesk-attrib $-1 -1 $709 $-1 $570 0 #
vertex $-1 -1 $-1 $653 $710 #
straight-curve $-1 -1 $-1 -444.2727888226929167 11 225 -0 -0 -1000 F 0.03559999999999998582 F 0.4144000000000000461 #
DXID-attrib $-1 -1 $-1 $571 $449 @18 ASM_FACE_FROM_STEP @15 step-1M-791-965 #
color-adesk-attrib $-1 -1 $711 $-1 $572 0 #
plane-surface $-1 -1 $-1 0 11 225 0 1 0 0 0 1 forward_v I I I I #
DXID-attrib $-1 -1 $-1 $574 $452 @18 ASM_EDGE_FROM_STEP @3 156 #
point $-1 -1 $-1 -504.8362835962507802 108.6070899010909727 223.364652918792757 #
DXID-attrib $-1 -1 $-1 $581 $462 @18 ASM_EDGE_FROM_STEP @2 26 #
DXID-attrib $-1 -1 $-1 $586 $467 @18 ASM_EDGE_FROM_STEP @3 729 #
color-adesk-attrib $-1 -1 $712 $-1 $588 0 #
straight-curve $-1 -1 $-1 -520 91.86555023576956103 221.7462200943078301 1000 0 0 F 0.00569411483496125477 F 0.01912132601226844072 #
color-adesk-attrib $-1 -1 $713 $-1 $592 0 #
vertex $-1 -1 $-1 $607 $714 #
straight-curve $-1 -1 $-1 -520 600 130 1000 0 0 F 0.1949999999999999234 F 0.8449999999999999734 #
color-adesk-attrib $-1 -1 $715 $-1 $593 0 #
plane-surface $-1 -1 $-1 -520 600 130 0 -0.1866606458232702159 -0.982424451701422119 0 0.98242445170142223 -0.1866606458232702437 forward_v I I I I #
DXID-attrib $-1 -1 $-1 $596 $481 @18 ASM_EDGE_FROM_STEP @3 974 #
DXID-attrib $-1 -1 $-1 $598 $482 @18 ASM_FACE_FROM_STEP @15 step-1M-791-804 #
color-adesk-attrib $-1 -1 $716 $-1 $599 0 #
plane-surface $-1 -1 $-1 -520 91.86555023576956103 221.7462200943078301 0 0.371390676354103888 -0.9284766908852593037 0 0.9284766908852593037 0.371390676354103888 forward_v I I I I #
DXID-attrib $-1 -1 $-1 $602 $490 @18 ASM_EDGE_FROM_STEP @3 178 #
point $-1 -1 $-1 324.9999999999999432 600 -130 #
DXID-attrib $-1 -1 $-1 $605 $491 @18 ASM_FACE_FROM_STEP @15 step-1M-791-369 #
color-adesk-attrib $-1 -1 $717 $-1 $607 0 #
straight-curve $-1 -1 $-1 325 600 225 -0 -0 -1000 F 0.09500000000000000111 F 0.3549999999999999822 #
color-adesk-attrib $-1 -1 $718 $-1 $608 0 #
vertex $-1 -1 $-1 $640 $719 #
straight-curve $-1 -1 $-1 456.7878787878788671 9.696969696969699015 188.8787878787878753 -544.9492609130661549 -778.4989441615231271 -311.3995776646092963 F -0.1055474527679659547 F 0.0124559831065844083 #
DXID-attrib $-1 -1 $-1 $609 $498 @18 ASM_EDGE_FROM_STEP @3 852 #
DXID-attrib $-1 -1 $-1 $617 $512 @18 ASM_EDGE_FROM_STEP @3 513 #
color-adesk-attrib $-1 -1 $720 $-1 $619 0 #
straight-curve $-1 -1 $-1 -317.4830486576763064 589 132.089999999999975 1000 0 0 F 0 F 0.6349660973153526955 #
DXID-attrib $-1 -1 $-1 $622 $519 @18 ASM_EDGE_FROM_STEP @3 594 #
color-adesk-attrib $-1 -1 $721 $-1 $627 0 #
straight-curve $-1 -1 $-1 -520 91.86555023576956103 221.7462200943078301 1000 0 0 F 1.020878673987731577 F 1.03430588516503863 #
DXID-attrib $-1 -1 $-1 $628 $529 @18 ASM_EDGE_FROM_STEP @3 748 #
point $-1 -1 $-1 516.6432349385745511 108.6070899010909727 223.364652918792757 #
DXID-attrib $-1 -1 $-1 $631 $530 @18 ASM_FACE_FROM_STEP @15 step-1M-791-205 #
DXID-attrib $-1 -1 $-1 $634 $534 @18 ASM_EDGE_FROM_STEP @3 861 #
color-adesk-attrib $-1 -1 $722 $-1 $640 0 #
ellipse-curve $-1 -1 $-1 522.1050893691877945 103.0072705274286591 193.891919363596827 0.8192319205190728981 -0.5734623443632820283 -3.304482460041260538e-13 21.00000000157332991 30.00000000225121966 -3.060915305910568986e-09 0.8192319205710423269 F 1.671207322834393771 F 1.951302703982727538 #
DXID-attrib $-1 -1 $-1 $641 $547 @18 ASM_EDGE_FROM_STEP @3 107 #
color-adesk-attrib $-1 -1 $723 $-1 $643 0 #
straight-curve $-1 -1 $-1 520 100 225 357.783108510211548 -917.3925859236194356 174.3045913254877348 F -0.545022935297222122 F -0.009382122804519327577 #
DXID-attrib $-1 -1 $-1 $644 $549 @18 ASM_EDGE_FROM_STEP @3 618 #
color-adesk-attrib $-1 -1 $724 $-1 $648 0 #
straight-curve $-1 -1 $-1 0 11 189.4000000000000057 -1000 0 0 F -0.4442727888226929434 F 0.4442727888226929434 #
color-adesk-attrib $-1 -1 $725 $-1 $653 0 #
straight-curve $-1 -1 $-1 -450.3140009439050573 19.63030303030304324 192.8521212121212614 -544.9492609130655865 778.4989441615233545 311.3995776646094669 F -0.01108582496486011822 F 0.09278785507315873149 #
DXID-attrib $-1 -1 $-1 $654 $568 @18 ASM_EDGE_FROM_STEP @3 898 #
point $-1 -1 $-1 -500.8786739877315313 91.86555023576956103 221.7462200943078301 #
DXID-attrib $-1 -1 $-1 $657 $570 @18 ASM_EDGE_FROM_STEP @3 771 #
point $-1 -1 $-1 -444.2727888226929167 11 189.4000000000000057 #
DXID-attrib $-1 -1 $-1 $661 $572 @18 ASM_FACE_FROM_STEP @15 step-1M-791-348 #
DXID-attrib $-1 -1 $-1 $667 $588 @18 ASM_EDGE_FROM_STEP @3 322 #
DXID-attrib $-1 -1 $-1 $669 $592 @18 ASM_EDGE_FROM_STEP @3 174 #
point $-1 -1 $-1 324.9999999999999432 600 130 #
DXID-attrib $-1 -1 $-1 $672 $593 @18 ASM_FACE_FROM_STEP @15 step-1M-791-819 #
DXID-attrib $-1 -1 $-1 $676 $599 @18 ASM_FACE_FROM_STEP @15 step-1M-791-959 #
DXID-attrib $-1 -1 $-1 $681 $607 @18 ASM_EDGE_FROM_STEP @3 153 #
DXID-attrib $-1 -1 $-1 $683 $608 @18 ASM_EDGE_FROM_STEP @3 477 #
point $-1 -1 $-1 514.3058851650384895 91.86555023576950418 221.7462200943078017 #
DXID-attrib $-1 -1 $-1 $688 $619 @18 ASM_EDGE_FROM_STEP @3 378 #
DXID-attrib $-1 -1 $-1 $691 $627 @18 ASM_EDGE_FROM_STEP @3 821 #
DXID-attrib $-1 -1 $-1 $697 $640 @18 ASM_EDGE_FROM_STEP @3 876 #
DXID-attrib $-1 -1 $-1 $700 $643 @18 ASM_EDGE_FROM_STEP @1 8 #
DXID-attrib $-1 -1 $-1 $703 $648 @18 ASM_EDGE_FROM_STEP @3 217 #
DXID-attrib $-1 -1 $-1 $705 $653 @18 ASM_EDGE_FROM_STEP @3 377 #
