700 358 1 0         
16 Autodesk AutoCAD 20 ASM 229.2.0.65535 NT 24 Wed Mar  6 07:11:56 2024 
1 9.999999999999999547e-07 1.000000000000000036e-10 
body $1 -1 $-1 $2 $-1 $3 #
DXID-attrib $-1 -1 $-1 $-1 $0 @18 ASM_BODY_FROM_STEP @83 F2F77623C5509D3A96083C12859D4754DCA0049B|:|2F6B91AD853C570661EA5E72BC2C18C4145C7717 #
lump $-1 -1 $-1 $-1 $4 $0 #
transform $-1 -1 1 0 0 0 1 0 0 0 1 0 0 0 1 no_rotate no_reflect no_shear #
shell $-1 -1 $-1 $-1 $-1 $5 $-1 $2 #
face $6 -1 $-1 $7 $8 $4 $-1 $9 reversed single #
truecolor-adesk-attrib $-1 -1 $10 $-1 $5 -1025055002 #
face $11 -1 $-1 $12 $13 $4 $-1 $14 reversed single #
loop $-1 -1 $-1 $-1 $15 $5 #
plane-surface $-1 -1 $-1 -0.2400000000000000189 -1.65473525814711997 0.4400000000000000577 1 2.974944985478519839e-16 0 -2.974944985478520222e-13 1000 0 forward_v I I I I #
color-adesk-attrib $-1 -1 $16 $6 $5 254 #
truecolor-adesk-attrib $-1 -1 $17 $-1 $7 -1025055002 #
face $18 -1 $-1 $19 $20 $4 $-1 $21 reversed single #
loop $-1 -1 $-1 $-1 $22 $7 #
plane-surface $-1 -1 $-1 0 -2.474735258147120032 0.4400000000000000577 0 1 0 0 0 1000 forward_v I I I I #
coedge $-1 -1 $-1 $23 $24 $25 $26 reversed $8 $-1 #
DXID-attrib $-1 -1 $-1 $10 $5 @18 ASM_FACE_FROM_STEP @15 step-1M-631-858 #
color-adesk-attrib $-1 -1 $27 $11 $7 254 #
truecolor-adesk-attrib $-1 -1 $28 $-1 $12 -1025055002 #
face $29 -1 $-1 $30 $31 $4 $-1 $32 reversed single #
loop $-1 -1 $-1 $-1 $33 $12 #
plane-surface $-1 -1 $-1 0.2400000000000000189 -1.65473525814711997 0.4400000000000000577 -1 0 0 0 0 1000 forward_v I I I I #
coedge $-1 -1 $-1 $34 $35 $36 $37 reversed $13 $-1 #
coedge $-1 -1 $-1 $38 $15 $39 $40 forward $8 $-1 #
coedge $-1 -1 $-1 $15 $41 $42 $43 forward $8 $-1 #
coedge $-1 -1 $-1 $35 $34 $15 $26 forward $13 $-1 #
edge $44 -1 $-1 $45 0.0002200000000000000349 $46 0.0004400000000000000699 $15 $47 forward @7 unknown #
DXID-attrib $-1 -1 $-1 $17 $7 @18 ASM_FACE_FROM_STEP @15 step-1M-631-859 #
color-adesk-attrib $-1 -1 $48 $18 $12 254 #
truecolor-adesk-attrib $-1 -1 $49 $-1 $19 -1025055002 #
face $50 -1 $-1 $51 $52 $4 $-1 $53 reversed single #
loop $-1 -1 $-1 $-1 $54 $19 #
plane-surface $-1 -1 $-1 0.5775000000000000133 -0.4972352581471210509 0.4400000000000000577 -0.7071067811865470176 0.7071067811865480168 0 -707.1067811865480053 -707.1067811865469821 0 forward_v I I I I #
coedge $-1 -1 $-1 $55 $56 $57 $58 reversed $20 $-1 #
coedge $-1 -1 $-1 $25 $22 $59 $60 forward $13 $-1 #
coedge $-1 -1 $-1 $22 $25 $61 $62 forward $13 $-1 #
coedge $-1 -1 $-1 $63 $55 $22 $37 forward $20 $-1 #
edge $64 -1 $-1 $65 0.0002200000000000000349 $66 0.0004400000000000000699 $22 $67 forward @7 unknown #
coedge $-1 -1 $-1 $41 $23 $68 $69 reversed $8 $-1 #
coedge $-1 -1 $-1 $59 $70 $23 $40 reversed $71 $-1 #
edge $72 -1 $-1 $45 -0.0003111269837220808471 $73 0 $23 $74 forward @7 unknown #
coedge $-1 -1 $-1 $24 $38 $75 $76 forward $8 $-1 #
coedge $-1 -1 $-1 $77 $61 $24 $43 reversed $78 $-1 #
edge $79 -1 $-1 $80 -0.0008199999999999999824 $46 0.000819999999999999874 $24 $81 forward @7 unknown #
truecolor-adesk-attrib $-1 -1 $82 $-1 $26 -1025055002 #
vertex $-1 -1 $-1 $26 $83 #
vertex $-1 -1 $-1 $26 $84 #
straight-curve $-1 -1 $-1 -0.2400000000000000189 -2.474735258147120032 0.4400000000000000577 0 0 -1000 F 0.0002200000000000000349 F 0.0004400000000000000699 #
DXID-attrib $-1 -1 $-1 $28 $12 @18 ASM_FACE_FROM_STEP @15 step-1M-631-860 #
color-adesk-attrib $-1 -1 $85 $29 $19 254 #
truecolor-adesk-attrib $-1 -1 $86 $-1 $30 -1025055002 #
face $87 -1 $-1 $88 $89 $4 $-1 $90 reversed single #
loop $-1 -1 $-1 $-1 $91 $30 #
plane-surface $-1 -1 $-1 0.9150000000000000355 0.5876323709264390516 0.4400000000000000577 -1 0 0 0 0 1000 forward_v I I I I #
coedge $-1 -1 $-1 $92 $93 $94 $95 forward $31 $-1 #
coedge $-1 -1 $-1 $36 $33 $96 $97 forward $20 $-1 #
coedge $-1 -1 $-1 $33 $63 $93 $98 reversed $20 $-1 #
coedge $-1 -1 $-1 $99 $100 $33 $58 forward $101 $-1 #
edge $102 -1 $-1 $103 -0.0005999999999999999474 $104 0.0008199999999999988982 $33 $105 forward @7 unknown #
coedge $-1 -1 $-1 $96 $39 $34 $60 reversed $71 $-1 #
edge $106 -1 $-1 $65 -0.0004800000000000000122 $45 0 $34 $107 forward @7 unknown #
coedge $-1 -1 $-1 $42 $108 $35 $62 reversed $78 $-1 #
edge $109 -1 $-1 $46 -0.0002400000000000000061 $66 0.0002400000000000000061 $35 $110 forward @7 unknown #
coedge $-1 -1 $-1 $56 $36 $108 $111 forward $20 $-1 #
truecolor-adesk-attrib $-1 -1 $112 $-1 $37 -1025055002 #
vertex $-1 -1 $-1 $37 $113 #
vertex $-1 -1 $-1 $37 $114 #
straight-curve $-1 -1 $-1 0.2400000000000000189 -2.474735258147120032 0.4400000000000000577 0 0 -1000 F 0.0002200000000000000349 F 0.0004400000000000000699 #
coedge $-1 -1 $-1 $100 $115 $38 $69 forward $101 $-1 #
edge $116 -1 $-1 $117 -0.0008199999999999999824 $73 0.0005999999999999999474 $38 $118 forward @7 unknown #
coedge $-1 -1 $-1 $39 $96 $100 $119 reversed $71 $-1 #
loop $-1 -1 $-1 $-1 $39 $120 #
truecolor-adesk-attrib $-1 -1 $121 $-1 $40 -1025055002 #
vertex $-1 -1 $-1 $40 $122 #
straight-curve $-1 -1 $-1 -0.2400000000000000189 -2.254735258147119836 0.4400000000000000577 -2.103603772888770021e-13 707.1067811865480053 707.1067811865469821 F -0.0003111269837220808471 F 0 #
coedge $-1 -1 $-1 $123 $124 $41 $76 reversed $125 $-1 #
edge $126 -1 $-1 $117 0 $80 0.0004400000000000000699 $41 $127 forward @7 unknown #
coedge $-1 -1 $-1 $128 $42 $124 $129 reversed $78 $-1 #
loop $-1 -1 $-1 $-1 $42 $130 #
truecolor-adesk-attrib $-1 -1 $131 $-1 $43 -1025055002 #
vertex $-1 -1 $-1 $76 $132 #
straight-curve $-1 -1 $-1 -0.2400000000000000189 -1.65473525814711997 0 2.974944985478520222e-13 -1000 0 F -0.0008199999999999999824 F 0.000819999999999999874 #
color-adesk-attrib $-1 -1 $133 $44 $26 254 #
point $-1 -1 $-1 -0.2400000000000000189 -2.474735258147120032 0.2200000000000000289 #
point $-1 -1 $-1 -0.2400000000000000189 -2.474735258147120032 0 #
DXID-attrib $-1 -1 $-1 $49 $19 @18 ASM_FACE_FROM_STEP @15 step-1M-631-861 #
color-adesk-attrib $-1 -1 $134 $50 $30 254 #
truecolor-adesk-attrib $-1 -1 $135 $-1 $51 -1025055002 #
face $136 -1 $-1 $137 $138 $4 $-1 $139 reversed single #
loop $-1 -1 $-1 $-1 $140 $51 #
plane-surface $-1 -1 $-1 0.7075000000000001288 1.542499999999999982 0.4400000000000000577 -0.7071067811865475727 -0.7071067811865475727 0 707.1067811865475505 -707.1067811865475505 0 forward_v I I I I #
coedge $-1 -1 $-1 $141 $142 $143 $144 forward $52 $-1 #
coedge $-1 -1 $-1 $145 $54 $142 $146 reversed $31 $-1 #
coedge $-1 -1 $-1 $54 $145 $56 $98 forward $31 $-1 #
coedge $-1 -1 $-1 $108 $143 $54 $95 reversed $78 $-1 #
edge $147 -1 $-1 $148 -0.0004772970773009196878 $149 0.0004772970773009188746 $54 $150 forward @7 unknown #
coedge $-1 -1 $-1 $70 $59 $55 $97 reversed $71 $-1 #
edge $151 -1 $-1 $103 0 $65 0.0003111269837220808471 $55 $152 forward @7 unknown #
edge $153 -1 $-1 $104 0 $148 0.0004400000000000000699 $56 $154 forward @7 unknown #
coedge $-1 -1 $-1 $155 $57 $145 $156 forward $101 $-1 #
coedge $-1 -1 $-1 $57 $68 $70 $119 forward $101 $-1 #
loop $-1 -1 $-1 $-1 $68 $157 #
truecolor-adesk-attrib $-1 -1 $158 $-1 $58 -1025055002 #
vertex $-1 -1 $-1 $58 $159 #
vertex $-1 -1 $-1 $58 $160 #
straight-curve $-1 -1 $-1 0.2400000000000000189 -1.65473525814711997 0.4400000000000000577 0 1000 0 F -0.0005999999999999999474 F 0.0008199999999999988982 #
truecolor-adesk-attrib $-1 -1 $161 $-1 $60 -1025055002 #
straight-curve $-1 -1 $-1 -0.2400000000000000189 -2.474735258147120032 0.2200000000000000289 -1000 0 0 F -0.0004800000000000000122 F 0 #
coedge $-1 -1 $-1 $61 $94 $63 $111 reversed $78 $-1 #
truecolor-adesk-attrib $-1 -1 $162 $-1 $62 -1025055002 #
straight-curve $-1 -1 $-1 0 -2.474735258147120032 0 1000 0 0 F -0.0002400000000000000061 F 0.0002400000000000000061 #
edge $163 -1 $-1 $66 -0.000819999999999999874 $148 0.0008199999999999988982 $63 $164 forward @7 unknown #
color-adesk-attrib $-1 -1 $165 $64 $37 254 #
point $-1 -1 $-1 0.2400000000000000189 -2.474735258147120032 0.2200000000000000289 #
point $-1 -1 $-1 0.2400000000000000189 -2.474735258147120032 0 #
coedge $-1 -1 $-1 $68 $166 $123 $167 forward $101 $-1 #
truecolor-adesk-attrib $-1 -1 $168 $-1 $69 -1025055002 #
vertex $-1 -1 $-1 $69 $169 #
straight-curve $-1 -1 $-1 -0.2400000000000000189 -1.65473525814711997 0.4400000000000000577 2.974944985478520222e-13 -1000 0 F -0.0008199999999999999824 F 0.0005999999999999999474 #
edge $170 -1 $-1 $73 -0.0004800000000000000122 $103 0 $100 $171 forward @7 unknown #
face $172 -1 $-1 $-1 $71 $4 $-1 $173 forward single #
color-adesk-attrib $-1 -1 $174 $72 $40 254 #
point $-1 -1 $-1 -0.2400000000000000189 -2.254735258147119836 0.4400000000000000577 #
coedge $-1 -1 $-1 $175 $75 $115 $167 reversed $125 $-1 #
coedge $-1 -1 $-1 $75 $175 $77 $129 forward $125 $-1 #
loop $-1 -1 $-1 $-1 $124 $176 #
truecolor-adesk-attrib $-1 -1 $177 $-1 $76 -1025055002 #
straight-curve $-1 -1 $-1 -0.2400000000000000189 -0.8347352581471200184 0.4400000000000000577 0 0 -1000 F 0 F 0.0004400000000000000699 #
coedge $-1 -1 $-1 $178 $77 $179 $180 reversed $78 $-1 #
edge $181 -1 $-1 $182 -0.0004772970773009188746 $80 0.0004772970773009188746 $124 $183 forward @7 unknown #
face $184 -1 $-1 $120 $78 $4 $-1 $185 reversed single #
color-adesk-attrib $-1 -1 $186 $79 $43 254 #
point $-1 -1 $-1 -0.2400000000000000189 -0.8347352581471200184 0 #
DXID-attrib $-1 -1 $-1 $82 $26 @18 ASM_EDGE_FROM_STEP @3 308 #
DXID-attrib $-1 -1 $-1 $86 $30 @18 ASM_FACE_FROM_STEP @15 step-1M-631-862 #
color-adesk-attrib $-1 -1 $187 $87 $51 254 #
truecolor-adesk-attrib $-1 -1 $188 $-1 $88 -1025055002 #
face $189 -1 $-1 $190 $191 $4 $-1 $192 reversed single #
loop $-1 -1 $-1 $-1 $193 $88 #
plane-surface $-1 -1 $-1 0 1.750000000000000222 0.4400000000000000577 4.336808689942020201e-16 -1 0 1000 4.33680868994202026e-13 0 forward_v I I I I #
coedge $-1 -1 $-1 $194 $195 $196 $197 forward $89 $-1 #
coedge $-1 -1 $-1 $198 $91 $195 $199 reversed $52 $-1 #
coedge $-1 -1 $-1 $91 $198 $92 $146 forward $52 $-1 #
coedge $-1 -1 $-1 $94 $196 $91 $144 reversed $78 $-1 #
edge $200 -1 $-1 $149 -0.0007473676290735610126 $201 0.0007473676290735610126 $91 $202 forward @7 unknown #
coedge $-1 -1 $-1 $93 $92 $99 $156 reversed $31 $-1 #
edge $203 -1 $-1 $204 0 $149 0.0004400000000000000699 $92 $205 forward @7 unknown #
truecolor-adesk-attrib $-1 -1 $206 $-1 $95 -1025055002 #
vertex $-1 -1 $-1 $111 $207 #
vertex $-1 -1 $-1 $95 $208 #
straight-curve $-1 -1 $-1 0.5775000000000000133 -0.4972352581471210509 0 707.1067811865480053 707.1067811865469821 0 F -0.0004772970773009196878 F 0.0004772970773009188746 #
truecolor-adesk-attrib $-1 -1 $209 $-1 $97 -1025055002 #
straight-curve $-1 -1 $-1 0.2400000000000000189 -2.254735258147119836 0.4400000000000000577 0 -707.1067811865480053 -707.1067811865469821 F 0 F 0.0003111269837220808471 #
truecolor-adesk-attrib $-1 -1 $210 $-1 $98 -1025055002 #
straight-curve $-1 -1 $-1 0.2400000000000000189 -0.8347352581471211286 0.4400000000000000577 0 0 -1000 F 0 F 0.0004400000000000000699 #
coedge $-1 -1 $-1 $211 $99 $198 $212 forward $101 $-1 #
edge $213 -1 $-1 $104 -0.0004772970773009196878 $204 0.0004772970773009188746 $145 $214 forward @7 unknown #
face $215 -1 $-1 $130 $101 $4 $-1 $216 forward single #
color-adesk-attrib $-1 -1 $217 $102 $58 254 #
point $-1 -1 $-1 0.2400000000000000189 -2.254735258147119836 0.4400000000000000577 #
point $-1 -1 $-1 0.2400000000000000189 -0.8347352581471211286 0.4400000000000000577 #
color-adesk-attrib $-1 -1 $218 $106 $60 254 #
color-adesk-attrib $-1 -1 $219 $109 $62 254 #
truecolor-adesk-attrib $-1 -1 $220 $-1 $111 -1025055002 #
straight-curve $-1 -1 $-1 0.2400000000000000189 -1.65473525814711997 0 0 1000 0 F -0.000819999999999999874 F 0.0008199999999999988982 #
DXID-attrib $-1 -1 $-1 $112 $37 @18 ASM_EDGE_FROM_STEP @3 313 #
coedge $-1 -1 $-1 $115 $221 $222 $223 forward $101 $-1 #
edge $224 -1 $-1 $225 -0.0004772970773009188746 $117 0.0004772970773009188746 $123 $226 forward @7 unknown #
color-adesk-attrib $-1 -1 $227 $116 $69 254 #
point $-1 -1 $-1 -0.2400000000000000189 -0.8347352581471200184 0.4400000000000000577 #
truecolor-adesk-attrib $-1 -1 $228 $-1 $119 -1025055002 #
straight-curve $-1 -1 $-1 0.2400000000000000189 -2.254735258147119836 0.4400000000000000577 1000 0 0 F -0.0004800000000000000122 F 0 #
truecolor-adesk-attrib $-1 -1 $229 $-1 $120 -1025055002 #
plane-surface $-1 -1 $-1 0 -2.254735258147119836 0.4400000000000000577 0 -0.7071067811865470176 0.7071067811865480168 -1000 0 0 forward_v I I I I #
DXID-attrib $-1 -1 $-1 $121 $40 @18 ASM_EDGE_FROM_STEP @3 309 #
coedge $-1 -1 $-1 $124 $123 $230 $231 forward $125 $-1 #
face $232 -1 $-1 $157 $125 $4 $-1 $233 reversed single #
color-adesk-attrib $-1 -1 $234 $126 $76 254 #
coedge $-1 -1 $-1 $235 $128 $236 $237 reversed $78 $-1 #
coedge $-1 -1 $-1 $230 $238 $128 $180 forward $239 $-1 #
edge $240 -1 $-1 $241 -0.0007473676290735610126 $182 0.0007473676290735610126 $179 $242 forward @7 unknown #
truecolor-adesk-attrib $-1 -1 $243 $-1 $129 -1025055002 #
vertex $-1 -1 $-1 $180 $244 #
straight-curve $-1 -1 $-1 -0.5775000000000000133 -0.4972352581471210509 0 707.1067811865480053 -707.1067811865469821 0 F -0.0004772970773009188746 F 0.0004772970773009188746 #
truecolor-adesk-attrib $-1 -1 $245 $-1 $130 -1025055002 #
plane-surface $-1 -1 $-1 0 -0.375 0 0 0 1 1000 0 0 forward_v I I I I #
DXID-attrib $-1 -1 $-1 $131 $43 @18 ASM_EDGE_FROM_STEP @3 312 #
DXID-attrib $-1 -1 $-1 $135 $51 @18 ASM_FACE_FROM_STEP @15 step-1M-631-863 #
color-adesk-attrib $-1 -1 $246 $136 $88 254 #
truecolor-adesk-attrib $-1 -1 $247 $-1 $137 -1025055002 #
face $248 -1 $-1 $176 $239 $4 $-1 $249 reversed single #
loop $-1 -1 $-1 $-1 $236 $137 #
plane-surface $-1 -1 $-1 -0.7075000000000001288 1.542499999999999982 0.4400000000000000577 0.7071067811865480168 -0.7071067811865470176 0 707.1067811865469821 707.1067811865480053 0 forward_v I I I I #
coedge $-1 -1 $-1 $250 $251 $235 $252 forward $138 $-1 #
coedge $-1 -1 $-1 $253 $140 $251 $254 reversed $89 $-1 #
coedge $-1 -1 $-1 $140 $253 $141 $199 forward $89 $-1 #
coedge $-1 -1 $-1 $143 $235 $140 $197 reversed $78 $-1 #
edge $255 -1 $-1 $201 -0.0002934493141924169723 $256 0.0002934493141924172433 $140 $257 forward @7 unknown #
coedge $-1 -1 $-1 $142 $141 $155 $212 reversed $52 $-1 #
edge $258 -1 $-1 $259 0 $201 0.0004400000000000000699 $141 $260 forward @7 unknown #
truecolor-adesk-attrib $-1 -1 $261 $-1 $144 -1025055002 #
vertex $-1 -1 $-1 $144 $262 #
straight-curve $-1 -1 $-1 0.9150000000000000355 0.5876323709264390516 0 0 1000 0 F -0.0007473676290735610126 F 0.0007473676290735610126 #
truecolor-adesk-attrib $-1 -1 $263 $-1 $146 -1025055002 #
vertex $-1 -1 $-1 $146 $264 #
straight-curve $-1 -1 $-1 0.9150000000000000355 -0.1597352581471220001 0.4400000000000000577 0 0 -1000 F 0 F 0.0004400000000000000699 #
color-adesk-attrib $-1 -1 $265 $147 $95 254 #
point $-1 -1 $-1 0.2400000000000000189 -0.8347352581471211286 0 #
point $-1 -1 $-1 0.9150000000000000355 -0.1597352581471220001 0 #
color-adesk-attrib $-1 -1 $266 $151 $97 254 #
color-adesk-attrib $-1 -1 $267 $153 $98 254 #
coedge $-1 -1 $-1 $268 $155 $253 $269 forward $101 $-1 #
edge $270 -1 $-1 $204 -0.0007473676290735610126 $259 0.0007473676290735610126 $198 $271 forward @7 unknown #
truecolor-adesk-attrib $-1 -1 $272 $-1 $156 -1025055002 #
straight-curve $-1 -1 $-1 0.5775000000000000133 -0.4972352581471210509 0.4400000000000000577 707.1067811865480053 707.1067811865469821 0 F -0.0004772970773009196878 F 0.0004772970773009188746 #
truecolor-adesk-attrib $-1 -1 $273 $-1 $157 -1025055002 #
plane-surface $-1 -1 $-1 0 -0.375 0.4400000000000000577 0 0 1 1000 0 0 forward_v I I I I #
DXID-attrib $-1 -1 $-1 $158 $58 @18 ASM_EDGE_FROM_STEP @3 316 #
DXID-attrib $-1 -1 $-1 $161 $60 @18 ASM_EDGE_FROM_STEP @3 314 #
DXID-attrib $-1 -1 $-1 $162 $62 @18 ASM_EDGE_FROM_STEP @3 315 #
color-adesk-attrib $-1 -1 $274 $163 $111 254 #
coedge $-1 -1 $-1 $166 $268 $275 $276 forward $101 $-1 #
coedge $-1 -1 $-1 $238 $230 $166 $223 reversed $239 $-1 #
edge $277 -1 $-1 $278 -0.0007473676290735610126 $225 0.0007473676290735610126 $222 $279 forward @7 unknown #
truecolor-adesk-attrib $-1 -1 $280 $-1 $167 -1025055002 #
vertex $-1 -1 $-1 $231 $281 #
straight-curve $-1 -1 $-1 -0.5775000000000000133 -0.4972352581471210509 0.4400000000000000577 707.1067811865480053 -707.1067811865469821 0 F -0.0004772970773009188746 F 0.0004772970773009188746 #
DXID-attrib $-1 -1 $-1 $168 $69 @18 ASM_EDGE_FROM_STEP @3 310 #
color-adesk-attrib $-1 -1 $282 $170 $119 254 #
color-adesk-attrib $-1 -1 $283 $172 $120 254 #
coedge $-1 -1 $-1 $222 $179 $175 $231 reversed $239 $-1 #
edge $284 -1 $-1 $225 0 $182 0.0004400000000000000699 $230 $285 forward @7 unknown #
truecolor-adesk-attrib $-1 -1 $286 $-1 $176 -1025055002 #
plane-surface $-1 -1 $-1 -0.5775000000000000133 -0.4972352581471210509 0.4400000000000000577 0.7071067811865470176 0.7071067811865480168 0 -707.1067811865480053 707.1067811865469821 0 forward_v I I I I #
DXID-attrib $-1 -1 $-1 $177 $76 @18 ASM_EDGE_FROM_STEP @3 311 #
coedge $-1 -1 $-1 $196 $178 $193 $252 reversed $78 $-1 #
coedge $-1 -1 $-1 $287 $288 $178 $237 forward $191 $-1 #
edge $289 -1 $-1 $290 -0.0002934493141924173517 $241 0.0002934493141924170807 $236 $291 forward @7 unknown #
coedge $-1 -1 $-1 $179 $222 $287 $292 forward $239 $-1 #
loop $-1 -1 $-1 $-1 $179 $190 #
truecolor-adesk-attrib $-1 -1 $293 $-1 $180 -1025055002 #
vertex $-1 -1 $-1 $237 $294 #
straight-curve $-1 -1 $-1 -0.9150000000000000355 0.5876323709264390516 0 1.450694584978860045e-13 -1000 0 F -0.0007473676290735610126 F 0.0007473676290735610126 #
color-adesk-attrib $-1 -1 $295 $181 $129 254 #
point $-1 -1 $-1 -0.9150000000000000355 -0.1597352581471220001 0 #
color-adesk-attrib $-1 -1 $296 $184 $130 254 #
DXID-attrib $-1 -1 $-1 $188 $88 @18 ASM_FACE_FROM_STEP @15 step-1M-631-864 #
color-adesk-attrib $-1 -1 $297 $189 $137 254 #
truecolor-adesk-attrib $-1 -1 $298 $-1 $190 -1025055002 #
plane-surface $-1 -1 $-1 -0.9150000000000000355 0.5876323709264390516 0.4400000000000000577 1 1.450694584978860031e-16 0 -1.450694584978860045e-13 1000 0 forward_v I I I I #
coedge $-1 -1 $-1 $299 $193 $288 $300 reversed $138 $-1 #
coedge $-1 -1 $-1 $193 $299 $194 $254 forward $138 $-1 #
edge $301 -1 $-1 $256 -0.0005000000000000000104 $290 0.0005000000000000000104 $193 $302 forward @7 unknown #
coedge $-1 -1 $-1 $195 $194 $211 $269 reversed $89 $-1 #
edge $303 -1 $-1 $304 0 $256 0.0004400000000000000699 $194 $305 forward @7 unknown #
truecolor-adesk-attrib $-1 -1 $306 $-1 $197 -1025055002 #
vertex $-1 -1 $-1 $197 $307 #
straight-curve $-1 -1 $-1 0.7075000000000001288 1.542499999999999982 0 -707.1067811865480053 707.1067811865480053 0 F -0.0002934493141924169723 F 0.0002934493141924172433 #
truecolor-adesk-attrib $-1 -1 $308 $-1 $199 -1025055002 #
vertex $-1 -1 $-1 $199 $309 #
straight-curve $-1 -1 $-1 0.9150000000000000355 1.334999999999999964 0.4400000000000000577 0 0 -1000 F 0 F 0.0004400000000000000699 #
color-adesk-attrib $-1 -1 $310 $200 $144 254 #
point $-1 -1 $-1 0.9150000000000000355 1.334999999999999964 0 #
color-adesk-attrib $-1 -1 $311 $203 $146 254 #
point $-1 -1 $-1 0.9150000000000000355 -0.1597352581471220001 0.4400000000000000577 #
DXID-attrib $-1 -1 $-1 $206 $95 @18 ASM_EDGE_FROM_STEP @3 320 #
DXID-attrib $-1 -1 $-1 $209 $97 @18 ASM_EDGE_FROM_STEP @3 317 #
DXID-attrib $-1 -1 $-1 $210 $98 @18 ASM_EDGE_FROM_STEP @3 319 #
coedge $-1 -1 $-1 $221 $211 $299 $312 forward $101 $-1 #
edge $313 -1 $-1 $259 -0.0002934493141924169723 $304 0.0002934493141924172433 $253 $314 forward @7 unknown #
truecolor-adesk-attrib $-1 -1 $315 $-1 $212 -1025055002 #
straight-curve $-1 -1 $-1 0.9150000000000000355 0.5876323709264390516 0.4400000000000000577 0 1000 0 F -0.0007473676290735610126 F 0.0007473676290735610126 #
color-adesk-attrib $-1 -1 $316 $213 $156 254 #
color-adesk-attrib $-1 -1 $317 $215 $157 254 #
DXID-attrib $-1 -1 $-1 $220 $111 @18 ASM_EDGE_FROM_STEP @3 318 #
coedge $-1 -1 $-1 $288 $287 $221 $276 reversed $191 $-1 #
edge $318 -1 $-1 $319 -0.0002934493141924173517 $278 0.0002934493141924170807 $275 $320 forward @7 unknown #
truecolor-adesk-attrib $-1 -1 $321 $-1 $223 -1025055002 #
vertex $-1 -1 $-1 $292 $322 #
straight-curve $-1 -1 $-1 -0.9150000000000000355 0.5876323709264390516 0.4400000000000000577 1.450694584978860045e-13 -1000 0 F -0.0007473676290735610126 F 0.0007473676290735610126 #
color-adesk-attrib $-1 -1 $323 $224 $167 254 #
point $-1 -1 $-1 -0.9150000000000000355 -0.1597352581471220001 0.4400000000000000577 #
DXID-attrib $-1 -1 $-1 $228 $119 @18 ASM_EDGE_FROM_STEP @3 340 #
DXID-attrib $-1 -1 $-1 $229 $120 @18 ASM_FACE_FROM_STEP @15 step-1M-631-870 #
truecolor-adesk-attrib $-1 -1 $324 $-1 $231 -1025055002 #
straight-curve $-1 -1 $-1 -0.9150000000000000355 -0.1597352581471220001 0.4400000000000000577 0 0 -1000 F 0 F 0.0004400000000000000699 #
color-adesk-attrib $-1 -1 $325 $232 $176 254 #
coedge $-1 -1 $-1 $275 $236 $238 $292 reversed $191 $-1 #
coedge $-1 -1 $-1 $236 $275 $250 $300 forward $191 $-1 #
truecolor-adesk-attrib $-1 -1 $326 $-1 $237 -1025055002 #
vertex $-1 -1 $-1 $252 $327 #
straight-curve $-1 -1 $-1 -0.7075000000000001288 1.542499999999999982 0 -707.1067811865469821 -707.1067811865480053 0 F -0.0002934493141924173517 F 0.0002934493141924170807 #
edge $328 -1 $-1 $278 0 $241 0.0004400000000000000699 $287 $329 forward @7 unknown #
color-adesk-attrib $-1 -1 $330 $240 $180 254 #
point $-1 -1 $-1 -0.9150000000000000355 1.334999999999999964 0 #
DXID-attrib $-1 -1 $-1 $243 $129 @18 ASM_EDGE_FROM_STEP @3 338 #
DXID-attrib $-1 -1 $-1 $245 $130 @18 ASM_FACE_FROM_STEP @15 step-1M-631-869 #
DXID-attrib $-1 -1 $-1 $247 $137 @18 ASM_FACE_FROM_STEP @15 step-1M-631-865 #
color-adesk-attrib $-1 -1 $331 $248 $190 254 #
coedge $-1 -1 $-1 $251 $250 $268 $312 reversed $138 $-1 #
edge $332 -1 $-1 $319 0 $290 0.0004400000000000000699 $250 $333 forward @7 unknown #
truecolor-adesk-attrib $-1 -1 $334 $-1 $252 -1025055002 #
straight-curve $-1 -1 $-1 0 1.750000000000000222 0 -1000 -4.33680868994202026e-13 0 F -0.0005000000000000000104 F 0.0005000000000000000104 #
truecolor-adesk-attrib $-1 -1 $335 $-1 $254 -1025055002 #
vertex $-1 -1 $-1 $254 $336 #
straight-curve $-1 -1 $-1 0.5 1.750000000000000222 0.4400000000000000577 0 0 -1000 F 0 F 0.0004400000000000000699 #
color-adesk-attrib $-1 -1 $337 $255 $197 254 #
point $-1 -1 $-1 0.5 1.750000000000000222 0 #
color-adesk-attrib $-1 -1 $338 $258 $199 254 #
point $-1 -1 $-1 0.9150000000000000355 1.334999999999999964 0.4400000000000000577 #
DXID-attrib $-1 -1 $-1 $261 $144 @18 ASM_EDGE_FROM_STEP @3 323 #
DXID-attrib $-1 -1 $-1 $263 $146 @18 ASM_EDGE_FROM_STEP @3 321 #
edge $339 -1 $-1 $304 -0.0005000000000000000104 $319 0.0005000000000000000104 $299 $340 forward @7 unknown #
truecolor-adesk-attrib $-1 -1 $341 $-1 $269 -1025055002 #
straight-curve $-1 -1 $-1 0.7075000000000001288 1.542499999999999982 0.4400000000000000577 -707.1067811865480053 707.1067811865480053 0 F -0.0002934493141924169723 F 0.0002934493141924172433 #
color-adesk-attrib $-1 -1 $342 $270 $212 254 #
DXID-attrib $-1 -1 $-1 $272 $156 @18 ASM_EDGE_FROM_STEP @3 322 #
DXID-attrib $-1 -1 $-1 $273 $157 @18 ASM_FACE_FROM_STEP @15 step-1M-631-868 #
truecolor-adesk-attrib $-1 -1 $343 $-1 $276 -1025055002 #
vertex $-1 -1 $-1 $300 $344 #
straight-curve $-1 -1 $-1 -0.7075000000000001288 1.542499999999999982 0.4400000000000000577 -707.1067811865469821 -707.1067811865480053 0 F -0.0002934493141924173517 F 0.0002934493141924170807 #
color-adesk-attrib $-1 -1 $345 $277 $223 254 #
point $-1 -1 $-1 -0.9150000000000000355 1.334999999999999964 0.4400000000000000577 #
DXID-attrib $-1 -1 $-1 $280 $167 @18 ASM_EDGE_FROM_STEP @3 339 #
color-adesk-attrib $-1 -1 $346 $284 $231 254 #
DXID-attrib $-1 -1 $-1 $286 $176 @18 ASM_FACE_FROM_STEP @15 step-1M-631-867 #
color-adesk-attrib $-1 -1 $347 $289 $237 254 #
point $-1 -1 $-1 -0.5 1.750000000000000222 0 #
truecolor-adesk-attrib $-1 -1 $348 $-1 $292 -1025055002 #
straight-curve $-1 -1 $-1 -0.9150000000000000355 1.334999999999999964 0.4400000000000000577 0 0 -1000 F 0 F 0.0004400000000000000699 #
DXID-attrib $-1 -1 $-1 $293 $180 @18 ASM_EDGE_FROM_STEP @3 335 #
DXID-attrib $-1 -1 $-1 $298 $190 @18 ASM_FACE_FROM_STEP @15 step-1M-631-866 #
truecolor-adesk-attrib $-1 -1 $349 $-1 $300 -1025055002 #
straight-curve $-1 -1 $-1 -0.5 1.750000000000000222 0.4400000000000000577 0 0 -1000 F 0 F 0.0004400000000000000699 #
color-adesk-attrib $-1 -1 $350 $301 $252 254 #
color-adesk-attrib $-1 -1 $351 $303 $254 254 #
point $-1 -1 $-1 0.5 1.750000000000000222 0.4400000000000000577 #
DXID-attrib $-1 -1 $-1 $306 $197 @18 ASM_EDGE_FROM_STEP @3 326 #
DXID-attrib $-1 -1 $-1 $308 $199 @18 ASM_EDGE_FROM_STEP @3 324 #
truecolor-adesk-attrib $-1 -1 $352 $-1 $312 -1025055002 #
straight-curve $-1 -1 $-1 0 1.750000000000000222 0.4400000000000000577 -1000 -4.33680868994202026e-13 0 F -0.0005000000000000000104 F 0.0005000000000000000104 #
color-adesk-attrib $-1 -1 $353 $313 $269 254 #
DXID-attrib $-1 -1 $-1 $315 $212 @18 ASM_EDGE_FROM_STEP @3 325 #
color-adesk-attrib $-1 -1 $354 $318 $276 254 #
point $-1 -1 $-1 -0.5 1.750000000000000222 0.4400000000000000577 #
DXID-attrib $-1 -1 $-1 $321 $223 @18 ASM_EDGE_FROM_STEP @3 337 #
DXID-attrib $-1 -1 $-1 $324 $231 @18 ASM_EDGE_FROM_STEP @3 336 #
DXID-attrib $-1 -1 $-1 $326 $237 @18 ASM_EDGE_FROM_STEP @3 332 #
color-adesk-attrib $-1 -1 $355 $328 $292 254 #
color-adesk-attrib $-1 -1 $356 $332 $300 254 #
DXID-attrib $-1 -1 $-1 $334 $252 @18 ASM_EDGE_FROM_STEP @3 329 #
DXID-attrib $-1 -1 $-1 $335 $254 @18 ASM_EDGE_FROM_STEP @3 327 #
color-adesk-attrib $-1 -1 $357 $339 $312 254 #
DXID-attrib $-1 -1 $-1 $341 $269 @18 ASM_EDGE_FROM_STEP @3 328 #
DXID-attrib $-1 -1 $-1 $343 $276 @18 ASM_EDGE_FROM_STEP @3 334 #
DXID-attrib $-1 -1 $-1 $348 $292 @18 ASM_EDGE_FROM_STEP @3 333 #
DXID-attrib $-1 -1 $-1 $349 $300 @18 ASM_EDGE_FROM_STEP @3 330 #
DXID-attrib $-1 -1 $-1 $352 $312 @18 ASM_EDGE_FROM_STEP @3 331 #
