700 600 1 0         
5 ZWCAD 12 ACIS 28.0 NT 24 Mon May 13 17:02:22 2024 
1 9.9999999999999995e-07 1e-10 
body $1 -1 $-1 $2 $-1 $-1 #
DXID-attrib $-1 -1 $-1 $-1 $0 @18 ASM_BODY_FROM_STEP @83 DFB87C87E1F5DB22BD96D5E6B3D04280C910CDEE|:|AE1696F70ADD2F7DEA5278A2C8F2D38A85AC4850 #
lump $-1 -1 $-1 $-1 $3 $0 #
shell $-1 -1 $-1 $-1 $-1 $4 $-1 $2 #
face $5 -1 $-1 $6 $7 $3 $-1 $8 reversed single #
truecolor-adesk-attrib $-1 -1 $9 $-1 $4 -1038345188 #
face $10 -1 $-1 $11 $12 $3 $-1 $13 forward single #
loop $-1 -1 $-1 $-1 $14 $4 #
torus-surface $-1 -1 $-1 137.106079805321 161.79341274906233 120.61392201202742 -4.5924254968025693e-17 -1 0 3.0000000000000009 0.25 1 -4.5924254968025693e-17 0 forward_v I I I I #
color-adesk-attrib $-1 -1 $15 $5 $4 250 #
truecolor-adesk-attrib $-1 -1 $16 $-1 $6 -1038345188 #
face $17 -1 $-1 $18 $19 $3 $-1 $20 reversed single #
loop $-1 -1 $-1 $-1 $21 $6 #
torus-surface $-1 -1 $-1 137.106079805321 162.29341274906233 120.61392201202742 -4.5924254968025693e-17 -1 0 2.9999999999999991 0.25 1 -4.5924254968025693e-17 0 forward_v I I I I #
coedge $-1 -1 $-1 $22 $23 $24 $25 reversed $7 $-1 #
DXID-attrib $-1 -1 $-1 $9 $4 @18 ASM_FACE_FROM_STEP @17 step-4M-286-48752 #
color-adesk-attrib $-1 -1 $26 $10 $6 250 #
truecolor-adesk-attrib $-1 -1 $27 $-1 $11 -1038345188 #
face $28 -1 $-1 $29 $30 $3 $-1 $31 forward single #
loop $-1 -1 $-1 $-1 $32 $11 #
torus-surface $-1 -1 $-1 137.106079805321 160.99341274906232 120.61392201202742 4.5924254968025693e-17 1 0 3.0000000000000009 0.25 -1 4.5924254968025693e-17 0 forward_v I I I I #
coedge $-1 -1 $-1 $33 $34 $35 $36 reversed $12 $-1 #
coedge $-1 -1 $-1 $37 $14 $38 $39 forward $7 $-1 #
coedge $-1 -1 $-1 $14 $37 $40 $41 reversed $7 $-1 #
coedge $-1 -1 $-1 $42 $43 $14 $25 forward $44 $-1 #
edge $45 -1 $-1 $46 -3.1415926535897931 $47 0 $14 $48 forward @7 unknown #
DXID-attrib $-1 -1 $-1 $16 $6 @18 ASM_FACE_FROM_STEP @17 step-4M-286-11789 #
color-adesk-attrib $-1 -1 $49 $17 $11 250 #
truecolor-adesk-attrib $-1 -1 $50 $-1 $18 -1038345188 #
face $51 -1 $-1 $52 $53 $3 $-1 $54 forward single #
loop $-1 -1 $-1 $-1 $55 $18 #
torus-surface $-1 -1 $-1 137.106079805321 160.49341274906232 120.61392201202742 4.5924254968025699e-17 1 0 3.0000000000000022 0.25 -1 4.5924254968025693e-17 0 forward_v I I I I #
coedge $-1 -1 $-1 $56 $57 $58 $59 reversed $19 $-1 #
coedge $-1 -1 $-1 $60 $21 $61 $62 forward $12 $-1 #
coedge $-1 -1 $-1 $21 $60 $63 $64 reversed $12 $-1 #
coedge $-1 -1 $-1 $65 $66 $21 $36 forward $67 $-1 #
edge $68 -1 $-1 $69 -3.1415926535897931 $70 0 $21 $71 forward @7 unknown #
coedge $-1 -1 $-1 $23 $22 $72 $73 forward $7 $-1 #
coedge $-1 -1 $-1 $74 $75 $22 $39 reversed $76 $-1 #
edge $77 -1 $-1 $46 -1.6617243555079618e-63 $78 1.5707963267948899 $22 $79 forward @7 unknown #
coedge $-1 -1 $-1 $75 $74 $23 $41 forward $76 $-1 #
edge $80 -1 $-1 $47 0 $81 1.5707963267948899 $23 $82 forward @7 unknown #
coedge $-1 -1 $-1 $58 $24 $83 $84 forward $44 $-1 #
coedge $-1 -1 $-1 $24 $58 $85 $86 reversed $44 $-1 #
loop $-1 -1 $-1 $-1 $43 $87 #
truecolor-adesk-attrib $-1 -1 $88 $-1 $25 -1038345188 #
vertex $-1 -1 $-1 $25 $89 #
vertex $-1 -1 $-1 $25 $90 #
ellipse-curve $-1 -1 $-1 137.106079805321 161.79341274906233 120.61392201202742 -4.5924254968025699e-17 -1 0 2.7500000000000013 -1.2629170116207074e-16 0 1 F -3.1415926535897931 F 0 #
DXID-attrib $-1 -1 $-1 $27 $11 @18 ASM_FACE_FROM_STEP @17 step-4M-286-43021 #
color-adesk-attrib $-1 -1 $91 $28 $18 250 #
truecolor-adesk-attrib $-1 -1 $92 $-1 $29 -1038345188 #
face $93 -1 $-1 $94 $95 $3 $-1 $96 forward single #
loop $-1 -1 $-1 $-1 $97 $29 #
torus-surface $-1 -1 $-1 137.106079805321 166.74341274906232 120.61392201202742 4.5924254968025699e-17 1 0 2.7499999999999996 0.5 -1 4.5924254968025693e-17 0 forward_v I I I I #
coedge $-1 -1 $-1 $98 $99 $100 $101 reversed $30 $-1 #
coedge $-1 -1 $-1 $102 $32 $103 $104 forward $19 $-1 #
coedge $-1 -1 $-1 $32 $102 $105 $106 reversed $19 $-1 #
coedge $-1 -1 $-1 $43 $42 $32 $59 forward $44 $-1 #
edge $107 -1 $-1 $108 -3.1415926535897931 $109 1.224646799147353e-16 $32 $110 forward @7 unknown #
coedge $-1 -1 $-1 $34 $33 $75 $111 reversed $12 $-1 #
coedge $-1 -1 $-1 $112 $72 $33 $62 reversed $113 $-1 #
edge $114 -1 $-1 $69 -3.1415926535897931 $78 -1.5707963267948966 $33 $115 forward @7 unknown #
coedge $-1 -1 $-1 $72 $112 $34 $64 forward $113 $-1 #
edge $116 -1 $-1 $70 -3.1415926535897931 $81 -1.5707963267948966 $34 $117 forward @7 unknown #
coedge $-1 -1 $-1 $118 $35 $119 $120 reversed $67 $-1 #
coedge $-1 -1 $-1 $35 $118 $121 $122 forward $67 $-1 #
loop $-1 -1 $-1 $-1 $118 $94 #
truecolor-adesk-attrib $-1 -1 $123 $-1 $36 -1038345188 #
vertex $-1 -1 $-1 $36 $124 #
vertex $-1 -1 $-1 $36 $125 #
ellipse-curve $-1 -1 $-1 137.106079805321 162.29341274906233 120.61392201202742 4.5924254968025699e-17 1 0 3.2499999999999991 -1.4925382864608349e-16 0 1 F -3.1415926535897931 F 0 #
coedge $-1 -1 $-1 $61 $63 $37 $73 reversed $113 $-1 #
edge $126 -1 $-1 $78 -3.1415926535897931 $81 0 $37 $127 forward @7 unknown #
coedge $-1 -1 $-1 $40 $38 $128 $129 reversed $76 $-1 #
coedge $-1 -1 $-1 $38 $40 $60 $111 forward $76 $-1 #
loop $-1 -1 $-1 $-1 $38 $130 #
truecolor-adesk-attrib $-1 -1 $131 $-1 $39 -1038345188 #
vertex $-1 -1 $-1 $39 $132 #
ellipse-curve $-1 -1 $-1 134.106079805321 161.79341274906233 120.61392201202742 1.2246467991473532e-16 -5.6240991849819599e-33 1 0.25000000000000022 2.658758968812746e-64 -3.0616169978683855e-17 1 F -1.6617243555079618e-63 F 1.5707963267948899 #
truecolor-adesk-attrib $-1 -1 $133 $-1 $41 -1038345188 #
vertex $-1 -1 $-1 $73 $134 #
ellipse-curve $-1 -1 $-1 140.106079805321 161.79341274906233 120.61392201202742 0 0 -1 -0.25000000000000022 0 0 1 F 0 F 1.5707963267948899 #
coedge $-1 -1 $-1 $128 $135 $42 $84 reversed $95 $-1 #
edge $136 -1 $-1 $47 -0.0025500000000000006 $108 -0.0017500000000000007 $83 $137 forward @7 unknown #
coedge $-1 -1 $-1 $135 $128 $43 $86 forward $95 $-1 #
edge $138 -1 $-1 $46 -0.0025500000000000006 $109 -0.0017500000000000013 $85 $139 forward @7 unknown #
face $140 -1 $-1 $141 $44 $3 $-1 $142 forward single #
color-adesk-attrib $-1 -1 $143 $45 $25 250 #
point $-1 -1 $-1 134.356079805321 161.79341274906233 120.61392201202742 #
point $-1 -1 $-1 139.856079805321 161.79341274906233 120.61392201202742 #
DXID-attrib $-1 -1 $-1 $50 $18 @18 ASM_FACE_FROM_STEP @17 step-4M-286-20202 #
color-adesk-attrib $-1 -1 $144 $51 $29 250 #
truecolor-adesk-attrib $-1 -1 $145 $-1 $52 -1038345188 #
face $146 -1 $-1 $147 $67 $3 $-1 $148 forward single #
loop $-1 -1 $-1 $-1 $128 $52 #
cone-surface $-1 -1 $-1 137.106079805321 159.24341274906232 120.61392201202742 -4.5924254968025699e-17 -1 0 2.7500000000000013 -1.2629170116207074e-16 0 1 I I 0 1 2.7500000000000013 forward I I I I #
coedge $-1 -1 $-1 $149 $150 $118 $151 reversed $53 $-1 #
coedge $-1 -1 $-1 $152 $55 $153 $154 forward $30 $-1 #
coedge $-1 -1 $-1 $55 $152 $155 $156 reversed $30 $-1 #
coedge $-1 -1 $-1 $157 $158 $55 $101 forward $159 $-1 #
edge $160 -1 $-1 $161 -3.1415926535897931 $162 -1.224646799147353e-16 $55 $163 forward @7 unknown #
coedge $-1 -1 $-1 $57 $56 $164 $165 forward $19 $-1 #
coedge $-1 -1 $-1 $166 $167 $56 $104 reversed $168 $-1 #
edge $169 -1 $-1 $108 -3.141592653589794 $170 -1.5707963267948921 $56 $171 forward @7 unknown #
coedge $-1 -1 $-1 $167 $166 $57 $106 forward $168 $-1 #
edge $172 -1 $-1 $109 -3.141592653589794 $173 -1.5707963267948921 $57 $174 forward @7 unknown #
truecolor-adesk-attrib $-1 -1 $175 $-1 $59 -1038345188 #
vertex $-1 -1 $-1 $59 $176 #
vertex $-1 -1 $-1 $59 $177 #
ellipse-curve $-1 -1 $-1 137.106079805321 160.99341274906232 120.61392201202742 4.5924254968025699e-17 1 0 -2.7500000000000013 1.2629170116207074e-16 0 1 F -3.1415926535897931 F 1.224646799147353e-16 #
edge $178 -1 $-1 $81 0 $78 3.1415926535897931 $60 $179 forward @7 unknown #
coedge $-1 -1 $-1 $63 $61 $180 $181 reversed $113 $-1 #
loop $-1 -1 $-1 $-1 $61 $182 #
truecolor-adesk-attrib $-1 -1 $183 $-1 $62 -1038345188 #
ellipse-curve $-1 -1 $-1 134.106079805321 162.29341274906233 120.61392201202742 1.2246467991473532e-16 -5.6240991849819599e-33 1 0.25000000000000022 2.658758968812746e-64 -3.0616169978683855e-17 1 F -3.1415926535897931 F -1.5707963267948966 #
truecolor-adesk-attrib $-1 -1 $184 $-1 $64 -1038345188 #
ellipse-curve $-1 -1 $-1 140.106079805321 162.29341274906233 120.61392201202742 0 0 -1 -0.25000000000000022 0 0 1 F -3.1415926535897931 F -1.5707963267948966 #
coedge $-1 -1 $-1 $66 $65 $97 $151 forward $67 $-1 #
coedge $-1 -1 $-1 $180 $185 $65 $120 forward $186 $-1 #
edge $187 -1 $-1 $188 -0.0074999999999999997 $70 -0.0030500000000000011 $65 $189 forward @7 unknown #
coedge $-1 -1 $-1 $185 $180 $66 $122 reversed $186 $-1 #
edge $190 -1 $-1 $191 -0.0074999999999999997 $69 -0.0030500000000000011 $66 $192 forward @7 unknown #
color-adesk-attrib $-1 -1 $193 $68 $36 250 #
point $-1 -1 $-1 133.856079805321 162.29341274906233 120.61392201202742 #
point $-1 -1 $-1 140.356079805321 162.29341274906233 120.61392201202742 #
truecolor-adesk-attrib $-1 -1 $194 $-1 $73 -1038345188 #
ellipse-curve $-1 -1 $-1 137.106079805321 162.04341274906233 120.61392201202742 -4.5924254968025693e-17 -1 0 2.9999999999999991 -1.3777276490407704e-16 0 1 F -3.1415926535897931 F 0 #
coedge $-1 -1 $-1 $85 $83 $74 $129 forward $95 $-1 #
edge $195 -1 $-1 $47 0 $46 3.1415926535897931 $128 $196 forward @7 unknown #
face $197 -1 $-1 $198 $76 $3 $-1 $199 reversed single #
color-adesk-attrib $-1 -1 $200 $77 $39 250 #
point $-1 -1 $-1 134.106079805321 162.04341274906233 120.61392201202742 #
color-adesk-attrib $-1 -1 $201 $80 $41 250 #
point $-1 -1 $-1 140.106079805321 162.04341274906233 120.61392201202742 #
coedge $-1 -1 $-1 $83 $85 $166 $202 forward $95 $-1 #
truecolor-adesk-attrib $-1 -1 $203 $-1 $84 -1038345188 #
straight-curve $-1 -1 $-1 139.856079805321 159.24341274906232 120.61392201202742 -4.5924254968025693e-14 -1000 0 F -0.0025500000000000006 F -0.0017500000000000007 #
truecolor-adesk-attrib $-1 -1 $204 $-1 $86 -1038345188 #
straight-curve $-1 -1 $-1 134.356079805321 159.24341274906232 120.61392201202742 -4.5924254968025693e-14 -1000 0 F -0.0025500000000000006 F -0.0017500000000000013 #
truecolor-adesk-attrib $-1 -1 $205 $-1 $87 -1025119507 #
face $206 -1 $-1 $207 $208 $3 $-1 $209 forward single #
cone-surface $-1 -1 $-1 137.106079805321 159.24341274906232 120.61392201202742 -4.5924254968025699e-17 -1 0 2.7500000000000013 -1.2629170116207074e-16 0 1 I I 0 1 2.7500000000000013 forward I I I I #
DXID-attrib $-1 -1 $-1 $88 $25 @18 ASM_EDGE_FROM_STEP @4 3706 #
DXID-attrib $-1 -1 $-1 $92 $29 @18 ASM_FACE_FROM_STEP @17 step-4M-286-33829 #
color-adesk-attrib $-1 -1 $210 $93 $52 250 #
truecolor-adesk-attrib $-1 -1 $211 $-1 $94 -1038345188 #
face $212 -1 $-1 $213 $159 $3 $-1 $214 forward single #
cone-surface $-1 -1 $-1 137.106079805321 159.24341274906232 120.61392201202742 -4.5924254968025699e-17 -1 0 3.2499999999999991 -1.4925382864608349e-16 0 1 I I 0 1 3.2499999999999996 forward I I I I #
coedge $-1 -1 $-1 $215 $97 $216 $217 forward $53 $-1 #
coedge $-1 -1 $-1 $97 $215 $218 $219 reversed $53 $-1 #
edge $220 -1 $-1 $188 -3.1415926535897931 $191 -1.2246467991473532e-16 $97 $221 forward @7 unknown #
coedge $-1 -1 $-1 $99 $98 $167 $222 reversed $30 $-1 #
coedge $-1 -1 $-1 $223 $164 $98 $154 reversed $224 $-1 #
edge $225 -1 $-1 $161 -1.6617243555079618e-63 $170 1.5707963267948966 $98 $226 forward @7 unknown #
coedge $-1 -1 $-1 $164 $223 $99 $156 forward $224 $-1 #
edge $227 -1 $-1 $162 0 $173 1.5707963267948966 $99 $228 forward @7 unknown #
coedge $-1 -1 $-1 $229 $100 $230 $231 forward $159 $-1 #
coedge $-1 -1 $-1 $100 $232 $233 $234 reversed $159 $-1 #
loop $-1 -1 $-1 $-1 $100 $147 #
truecolor-adesk-attrib $-1 -1 $235 $-1 $101 -1038345188 #
vertex $-1 -1 $-1 $101 $236 #
vertex $-1 -1 $-1 $101 $237 #
ellipse-curve $-1 -1 $-1 137.106079805321 160.49341274906232 120.61392201202742 -4.5924254968025693e-17 -1 0 -3.2500000000000022 1.4925382864608361e-16 0 1 F -3.1415926535897931 F -1.224646799147353e-16 #
coedge $-1 -1 $-1 $153 $155 $102 $165 reversed $224 $-1 #
edge $238 -1 $-1 $170 -3.1415926535897931 $173 0 $102 $239 forward @7 unknown #
coedge $-1 -1 $-1 $105 $103 $135 $202 reversed $168 $-1 #
coedge $-1 -1 $-1 $103 $105 $152 $222 forward $168 $-1 #
loop $-1 -1 $-1 $-1 $103 $240 #
truecolor-adesk-attrib $-1 -1 $241 $-1 $104 -1038345188 #
vertex $-1 -1 $-1 $104 $242 #
ellipse-curve $-1 -1 $-1 140.106079805321 160.99341274906232 120.61392201202742 -1.2246467991473532e-16 5.6240991849819599e-33 1 0.25000000000000022 2.658758968812746e-64 3.0616169978683855e-17 1 F -3.141592653589794 F -1.5707963267948921 #
truecolor-adesk-attrib $-1 -1 $243 $-1 $106 -1038345188 #
vertex $-1 -1 $-1 $165 $244 #
ellipse-curve $-1 -1 $-1 134.106079805321 160.99341274906232 120.61392201202742 0 0 -1 -0.25000000000000022 0 0 1 F -3.141592653589794 F -1.5707963267948921 #
color-adesk-attrib $-1 -1 $245 $107 $59 250 #
point $-1 -1 $-1 139.856079805321 160.99341274906232 120.61392201202742 #
point $-1 -1 $-1 134.356079805321 160.99341274906232 120.61392201202742 #
truecolor-adesk-attrib $-1 -1 $246 $-1 $111 -1038345188 #
ellipse-curve $-1 -1 $-1 137.106079805321 162.04341274906233 120.61392201202742 -4.5924254968025693e-17 -1 0 2.9999999999999991 -1.3777276490407704e-16 0 1 F 0 F 3.1415926535897931 #
coedge $-1 -1 $-1 $121 $119 $112 $181 forward $186 $-1 #
edge $247 -1 $-1 $70 0 $69 3.1415926535897931 $180 $248 forward @7 unknown #
face $249 -1 $-1 $130 $113 $3 $-1 $250 forward single #
color-adesk-attrib $-1 -1 $251 $114 $62 250 #
color-adesk-attrib $-1 -1 $252 $116 $64 250 #
coedge $-1 -1 $-1 $119 $121 $253 $254 forward $186 $-1 #
loop $-1 -1 $-1 $-1 $121 $255 #
truecolor-adesk-attrib $-1 -1 $256 $-1 $120 -1038345188 #
vertex $-1 -1 $-1 $151 $257 #
straight-curve $-1 -1 $-1 140.356079805321 159.24341274906232 120.61392201202742 -4.5924254968025693e-14 -1000 0 F -0.0074999999999999997 F -0.0030500000000000011 #
truecolor-adesk-attrib $-1 -1 $258 $-1 $122 -1038345188 #
vertex $-1 -1 $-1 $151 $259 #
straight-curve $-1 -1 $-1 133.856079805321 159.24341274906232 120.61392201202742 -4.5924254968025693e-14 -1000 0 F -0.0074999999999999997 F -0.0030500000000000011 #
DXID-attrib $-1 -1 $-1 $123 $36 @18 ASM_EDGE_FROM_STEP @5 55210 #
color-adesk-attrib $-1 -1 $260 $126 $73 250 #
truecolor-adesk-attrib $-1 -1 $261 $-1 $129 -1038345188 #
ellipse-curve $-1 -1 $-1 137.106079805321 161.79341274906233 120.61392201202742 -4.5924254968025699e-17 -1 0 2.7500000000000013 -1.2629170116207074e-16 0 1 F 0 F 3.1415926535897931 #
truecolor-adesk-attrib $-1 -1 $262 $-1 $130 -1025119507 #
face $263 -1 $-1 $264 $265 $3 $-1 $266 reversed single #
torus-surface $-1 -1 $-1 137.106079805321 161.79341274906233 120.61392201202742 -4.5924254968025693e-17 -1 0 3.0000000000000009 0.25 1 -4.5924254968025693e-17 0 forward_v I I I I #
DXID-attrib $-1 -1 $-1 $131 $39 @18 ASM_EDGE_FROM_STEP @5 31812 #
DXID-attrib $-1 -1 $-1 $133 $41 @18 ASM_EDGE_FROM_STEP @5 21970 #
edge $267 -1 $-1 $109 1.224646799147353e-16 $108 3.1415926535897931 $135 $268 forward @7 unknown #
color-adesk-attrib $-1 -1 $269 $136 $84 250 #
color-adesk-attrib $-1 -1 $270 $138 $86 250 #
DXID-attrib $-1 -1 $-1 $140 $87 @18 ASM_FACE_FROM_STEP @17 step-4M-286-27522 #
truecolor-adesk-attrib $-1 -1 $271 $-1 $141 -1025119507 #
face $272 -1 $-1 $240 $224 $3 $-1 $273 forward single #
loop $-1 -1 $-1 $-1 $216 $141 #
torus-surface $-1 -1 $-1 137.106079805321 166.74341274906232 120.61392201202742 4.5924254968025699e-17 1 0 2.7499999999999996 0.5 -1 4.5924254968025693e-17 0 forward_v I I I I #
DXID-attrib $-1 -1 $-1 $145 $52 @18 ASM_FACE_FROM_STEP @17 step-4M-286-35911 #
color-adesk-attrib $-1 -1 $274 $146 $94 250 #
truecolor-adesk-attrib $-1 -1 $275 $-1 $147 -1038345188 #
face $276 -1 $-1 $277 $278 $3 $-1 $279 forward single #
cone-surface $-1 -1 $-1 137.106079805321 159.24341274906232 120.61392201202742 -4.5924254968025693e-17 -1 0 3.2500000000000022 -1.4925382864608361e-16 0 1 I I 0 1 3.2500000000000022 forward I I I I #
coedge $-1 -1 $-1 $150 $149 $280 $281 reversed $53 $-1 #
coedge $-1 -1 $-1 $253 $282 $149 $217 reversed $208 $-1 #
edge $283 -1 $-1 $188 2.37389193643995e-64 $284 1.5707963267948966 $149 $285 forward @7 unknown #
coedge $-1 -1 $-1 $282 $253 $150 $219 forward $208 $-1 #
edge $286 -1 $-1 $191 0 $287 1.5707963267948966 $150 $288 forward @7 unknown #
truecolor-adesk-attrib $-1 -1 $289 $-1 $151 -1038345188 #
ellipse-curve $-1 -1 $-1 137.106079805321 166.74341274906232 120.61392201202742 -4.5924254968025699e-17 -1 0 -3.2499999999999991 1.4925382864608349e-16 0 1 F -3.1415926535897931 F -1.2246467991473532e-16 #
edge $290 -1 $-1 $173 0 $170 3.1415926535897931 $152 $291 forward @7 unknown #
coedge $-1 -1 $-1 $155 $153 $292 $293 reversed $224 $-1 #
loop $-1 -1 $-1 $-1 $153 $207 #
truecolor-adesk-attrib $-1 -1 $294 $-1 $154 -1038345188 #
ellipse-curve $-1 -1 $-1 140.106079805321 160.49341274906232 120.61392201202742 -1.2246467991473532e-16 5.6240991849819599e-33 1 0.25000000000000022 2.658758968812746e-64 3.0616169978683855e-17 1 F -1.6617243555079618e-63 F 1.5707963267948966 #
truecolor-adesk-attrib $-1 -1 $295 $-1 $156 -1038345188 #
ellipse-curve $-1 -1 $-1 134.106079805321 160.49341274906232 120.61392201202742 0 0 -1 -0.25000000000000022 0 0 1 F 0 F 1.5707963267948966 #
coedge $-1 -1 $-1 $232 $157 $296 $297 forward $159 $-1 #
coedge $-1 -1 $-1 $292 $298 $157 $231 reversed $278 $-1 #
edge $299 -1 $-1 $162 -0.0012500000000000005 $300 -0.001 $157 $301 forward @7 unknown #
coedge $-1 -1 $-1 $158 $229 $302 $303 forward $159 $-1 #
coedge $-1 -1 $-1 $304 $292 $158 $234 forward $278 $-1 #
edge $305 -1 $-1 $161 -0.0012500000000000009 $306 -0.0010000000000000002 $158 $307 forward @7 unknown #
color-adesk-attrib $-1 -1 $308 $160 $101 250 #
point $-1 -1 $-1 140.356079805321 160.49341274906232 120.61392201202742 #
point $-1 -1 $-1 133.856079805321 160.49341274906232 120.61392201202742 #
truecolor-adesk-attrib $-1 -1 $309 $-1 $165 -1038345188 #
ellipse-curve $-1 -1 $-1 137.106079805321 160.74341274906232 120.61392201202742 4.5924254968025699e-17 1 0 -3.0000000000000022 1.3777276490407719e-16 0 1 F -3.1415926535897931 F 0 #
face $310 -1 $-1 $182 $168 $3 $-1 $311 reversed single #
color-adesk-attrib $-1 -1 $312 $169 $104 250 #
point $-1 -1 $-1 140.106079805321 160.74341274906232 120.61392201202742 #
color-adesk-attrib $-1 -1 $313 $172 $106 250 #
point $-1 -1 $-1 134.106079805321 160.74341274906232 120.61392201202742 #
DXID-attrib $-1 -1 $-1 $175 $59 @18 ASM_EDGE_FROM_STEP @5 19344 #
color-adesk-attrib $-1 -1 $314 $178 $111 250 #
truecolor-adesk-attrib $-1 -1 $315 $-1 $181 -1025119507 #
ellipse-curve $-1 -1 $-1 137.106079805321 162.29341274906233 120.61392201202742 4.5924254968025699e-17 1 0 3.2499999999999991 -1.4925382864608349e-16 0 1 F 0 F 3.1415926535897931 #
truecolor-adesk-attrib $-1 -1 $316 $-1 $182 -1025119507 #
torus-surface $-1 -1 $-1 137.106079805321 162.29341274906233 120.61392201202742 -4.5924254968025693e-17 -1 0 2.9999999999999991 0.25 1 -4.5924254968025693e-17 0 forward_v I I I I #
DXID-attrib $-1 -1 $-1 $183 $62 @18 ASM_EDGE_FROM_STEP @5 39365 #
DXID-attrib $-1 -1 $-1 $184 $64 @18 ASM_EDGE_FROM_STEP @5 30833 #
coedge $-1 -1 $-1 $218 $216 $185 $254 reversed $208 $-1 #
edge $317 -1 $-1 $191 -1.2246467991473532e-16 $188 3.1415926535897931 $185 $318 forward @7 unknown #
face $319 -1 $-1 $87 $186 $3 $-1 $320 forward single #
color-adesk-attrib $-1 -1 $321 $187 $120 250 #
point $-1 -1 $-1 140.356079805321 166.74341274906232 120.61392201202742 #
color-adesk-attrib $-1 -1 $322 $190 $122 250 #
point $-1 -1 $-1 133.856079805321 166.74341274906232 120.61392201202742 #
DXID-attrib $-1 -1 $-1 $194 $73 @18 ASM_EDGE_FROM_STEP @3 233 #
color-adesk-attrib $-1 -1 $323 $195 $129 250 #
DXID-attrib $-1 -1 $-1 $197 $130 @18 ASM_FACE_FROM_STEP @17 step-4M-286-16696 #
truecolor-adesk-attrib $-1 -1 $324 $-1 $198 -1025119507 #
face $325 -1 $-1 $326 $327 $3 $-1 $328 reversed single #
loop $-1 -1 $-1 $-1 $329 $198 #
plane-surface $-1 -1 $-1 137.106079805321 160.24341274906232 120.61392201202742 0 -1 0 0 0 -1 forward_v I I I I #
truecolor-adesk-attrib $-1 -1 $330 $-1 $202 -1038345188 #
ellipse-curve $-1 -1 $-1 137.106079805321 160.99341274906232 120.61392201202742 4.5924254968025699e-17 1 0 -2.7500000000000013 1.2629170116207074e-16 0 1 F 1.224646799147353e-16 F 3.1415926535897931 #
DXID-attrib $-1 -1 $-1 $203 $84 @18 ASM_EDGE_FROM_STEP @5 41931 #
DXID-attrib $-1 -1 $-1 $204 $86 @18 ASM_EDGE_FROM_STEP @5 15086 #
DXID-attrib $-1 -1 $-1 $206 $141 @18 ASM_FACE_FROM_STEP @17 step-4M-286-12262 #
truecolor-adesk-attrib $-1 -1 $331 $-1 $207 -1025119507 #
torus-surface $-1 -1 $-1 137.106079805321 160.49341274906232 120.61392201202742 4.5924254968025699e-17 1 0 3.0000000000000022 0.25 -1 4.5924254968025693e-17 0 forward_v I I I I #
DXID-attrib $-1 -1 $-1 $211 $94 @18 ASM_FACE_FROM_STEP @17 step-4M-286-51309 #
color-adesk-attrib $-1 -1 $332 $212 $147 250 #
truecolor-adesk-attrib $-1 -1 $333 $-1 $213 -1038345188 #
face $334 -1 $-1 $255 $335 $3 $-1 $336 forward single #
loop $-1 -1 $-1 $-1 $230 $213 #
cone-surface $-1 -1 $-1 137.106079805321 159.24341274906232 120.61392201202742 -4.5924254968025693e-17 -1 0 3.2500000000000022 -1.4925382864608361e-16 0 1 I I 0 1 3.2500000000000022 forward I I I I #
coedge $-1 -1 $-1 $337 $337 $215 $281 forward $335 $-1 #
edge $338 -1 $-1 $287 0 $284 3.1415926535897931 $215 $339 forward @7 unknown #
coedge $-1 -1 $-1 $216 $218 $337 $340 reversed $208 $-1 #
truecolor-adesk-attrib $-1 -1 $341 $-1 $217 -1038345188 #
vertex $-1 -1 $-1 $217 $342 #
ellipse-curve $-1 -1 $-1 139.856079805321 166.74341274906232 120.61392201202742 -1.2246467991473532e-16 5.6240991849819599e-33 1 0.5 -7.596454196607839e-65 6.123233995736766e-17 1 F 2.37389193643995e-64 F 1.5707963267948966 #
truecolor-adesk-attrib $-1 -1 $343 $-1 $219 -1038345188 #
vertex $-1 -1 $-1 $281 $344 #
ellipse-curve $-1 -1 $-1 134.356079805321 166.74341274906232 120.61392201202742 0 0 -1 -0.5 0 0 1 F 0 F 1.5707963267948966 #
color-adesk-attrib $-1 -1 $345 $220 $151 250 #
truecolor-adesk-attrib $-1 -1 $346 $-1 $222 -1038345188 #
ellipse-curve $-1 -1 $-1 137.106079805321 160.74341274906232 120.61392201202742 4.5924254968025699e-17 1 0 -3.0000000000000022 1.3777276490407719e-16 0 1 F 0 F 3.1415926535897931 #
coedge $-1 -1 $-1 $233 $230 $223 $293 forward $278 $-1 #
edge $347 -1 $-1 $162 -1.224646799147353e-16 $161 3.1415926535897931 $292 $348 forward @7 unknown #
color-adesk-attrib $-1 -1 $349 $225 $154 250 #
color-adesk-attrib $-1 -1 $350 $227 $156 250 #
coedge $-1 -1 $-1 $351 $352 $229 $297 reversed $327 $-1 #
edge $353 -1 $-1 $300 1.5707963267948966 $354 3.1415926535897931 $229 $355 forward @7 unknown #
coedge $-1 -1 $-1 $230 $304 $329 $356 forward $278 $-1 #
truecolor-adesk-attrib $-1 -1 $357 $-1 $231 -1038345188 #
vertex $-1 -1 $-1 $231 $358 #
straight-curve $-1 -1 $-1 133.856079805321 159.24341274906232 120.61392201202742 -4.5924254968025693e-14 -1000 0 F -0.0012500000000000005 F -0.001 #
coedge $-1 -1 $-1 $359 $360 $232 $303 reversed $361 $-1 #
edge $362 -1 $-1 $354 -3.1415926535897931 $306 -1.5707963267948966 $232 $363 forward @7 unknown #
coedge $-1 -1 $-1 $298 $233 $364 $365 forward $278 $-1 #
truecolor-adesk-attrib $-1 -1 $366 $-1 $234 -1038345188 #
vertex $-1 -1 $-1 $303 $367 #
straight-curve $-1 -1 $-1 140.356079805321 159.24341274906232 120.61392201202742 -4.5924254968025693e-14 -1000 0 F -0.0012500000000000009 F -0.0010000000000000002 #
DXID-attrib $-1 -1 $-1 $235 $101 @18 ASM_EDGE_FROM_STEP @5 21672 #
color-adesk-attrib $-1 -1 $368 $238 $165 250 #
truecolor-adesk-attrib $-1 -1 $369 $-1 $240 -1025119507 #
torus-surface $-1 -1 $-1 137.106079805321 160.99341274906232 120.61392201202742 4.5924254968025693e-17 1 0 3.0000000000000009 0.25 -1 4.5924254968025693e-17 0 forward_v I I I I #
DXID-attrib $-1 -1 $-1 $241 $104 @18 ASM_EDGE_FROM_STEP @4 4019 #
DXID-attrib $-1 -1 $-1 $243 $106 @18 ASM_EDGE_FROM_STEP @5 45522 #
DXID-attrib $-1 -1 $-1 $246 $111 @18 ASM_EDGE_FROM_STEP @5 24708 #
DXID-attrib $-1 -1 $-1 $247 $181 @18 ASM_EDGE_FROM_STEP @4 5061 #
DXID-attrib $-1 -1 $-1 $249 $182 @18 ASM_FACE_FROM_STEP @17 step-4M-286-30974 #
truecolor-adesk-attrib $-1 -1 $370 $-1 $254 -1025119507 #
ellipse-curve $-1 -1 $-1 137.106079805321 166.74341274906232 120.61392201202742 -4.5924254968025699e-17 -1 0 -3.2499999999999991 1.4925382864608349e-16 0 1 F -1.2246467991473532e-16 F 3.1415926535897931 #
truecolor-adesk-attrib $-1 -1 $371 $-1 $255 -1025119507 #
cone-surface $-1 -1 $-1 137.106079805321 159.24341274906232 120.61392201202742 -4.5924254968025699e-17 -1 0 3.2499999999999991 -1.4925382864608349e-16 0 1 I I 0 1 3.2499999999999996 forward I I I I #
DXID-attrib $-1 -1 $-1 $256 $120 @18 ASM_EDGE_FROM_STEP @5 32443 #
DXID-attrib $-1 -1 $-1 $258 $122 @18 ASM_EDGE_FROM_STEP @5 20914 #
DXID-attrib $-1 -1 $-1 $261 $129 @18 ASM_EDGE_FROM_STEP @5 42542 #
DXID-attrib $-1 -1 $-1 $263 $198 @18 ASM_FACE_FROM_STEP @17 step-4M-286-52616 #
truecolor-adesk-attrib $-1 -1 $372 $-1 $264 -1025119507 #
face $373 -1 $-1 $374 $361 $3 $-1 $375 reversed single #
loop $-1 -1 $-1 $-1 $296 $264 #
plane-surface $-1 -1 $-1 137.106079805321 160.24341274906232 120.61392201202742 0 -1 0 0 0 -1 forward_v I I I I #
coedge $-1 -1 $-1 $376 $377 $298 $356 reversed $265 $-1 #
color-adesk-attrib $-1 -1 $378 $267 $202 250 #
DXID-attrib $-1 -1 $-1 $272 $207 @18 ASM_FACE_FROM_STEP @17 step-4M-286-56694 #
DXID-attrib $-1 -1 $-1 $275 $147 @18 ASM_FACE_FROM_STEP @17 step-4M-286-24682 #
color-adesk-attrib $-1 -1 $379 $276 $213 250 #
truecolor-adesk-attrib $-1 -1 $380 $-1 $277 -1038345188 #
loop $-1 -1 $-1 $-1 $280 $277 #
plane-surface $-1 -1 $-1 137.106079805321 167.24341274906232 120.61392201202742 4.5924254968025693e-17 1 0 -1 4.5924254968025699e-17 0 forward_v I I I I #
coedge $-1 -1 $-1 $280 $280 $282 $340 forward $335 $-1 #
truecolor-adesk-attrib $-1 -1 $381 $-1 $281 -1038345188 #
ellipse-curve $-1 -1 $-1 137.106079805321 167.24341274906232 120.61392201202742 4.5924254968025705e-17 1 0 -2.7499999999999996 1.2629170116207067e-16 0 1 F 0 F 3.1415926535897931 #
edge $382 -1 $-1 $284 -3.1415926535897931 $287 0 $337 $383 forward @7 unknown #
color-adesk-attrib $-1 -1 $384 $283 $217 250 #
point $-1 -1 $-1 139.856079805321 167.24341274906232 120.61392201202742 #
color-adesk-attrib $-1 -1 $385 $286 $219 250 #
point $-1 -1 $-1 134.356079805321 167.24341274906232 120.61392201202742 #
DXID-attrib $-1 -1 $-1 $289 $151 @18 ASM_EDGE_FROM_STEP @5 45282 #
color-adesk-attrib $-1 -1 $386 $290 $222 250 #
truecolor-adesk-attrib $-1 -1 $387 $-1 $293 -1038345188 #
ellipse-curve $-1 -1 $-1 137.106079805321 160.49341274906232 120.61392201202742 -4.5924254968025693e-17 -1 0 -3.2500000000000022 1.4925382864608361e-16 0 1 F -1.224646799147353e-16 F 3.1415926535897931 #
DXID-attrib $-1 -1 $-1 $294 $154 @18 ASM_EDGE_FROM_STEP @5 56051 #
DXID-attrib $-1 -1 $-1 $295 $156 @18 ASM_EDGE_FROM_STEP @4 6336 #
coedge $-1 -1 $-1 $352 $296 $388 $389 forward $327 $-1 #
coedge $-1 -1 $-1 $296 $351 $390 $391 forward $327 $-1 #
truecolor-adesk-attrib $-1 -1 $392 $-1 $297 -1038345188 #
vertex $-1 -1 $-1 $297 $393 #
ellipse-curve $-1 -1 $-1 137.106079805321 160.24341274906232 120.61392201202742 0 1 0 0 0 -3.2500000000000022 1 F 1.5707963267948966 F 3.1415926535897931 #
edge $394 -1 $-1 $395 0 $300 1.5707963267948966 $298 $396 forward @7 unknown #
color-adesk-attrib $-1 -1 $397 $299 $231 250 #
point $-1 -1 $-1 133.856079805321 160.24341274906232 120.61392201202742 #
coedge $-1 -1 $-1 $398 $302 $399 $400 forward $361 $-1 #
coedge $-1 -1 $-1 $302 $398 $401 $402 forward $361 $-1 #
loop $-1 -1 $-1 $-1 $302 $326 #
truecolor-adesk-attrib $-1 -1 $403 $-1 $303 -1038345188 #
ellipse-curve $-1 -1 $-1 137.106079805321 160.24341274906232 120.61392201202742 0 1 0 0 0 -3.2500000000000022 1 F -3.1415926535897931 F -1.5707963267948966 #
coedge $-1 -1 $-1 $404 $405 $304 $365 reversed $406 $-1 #
edge $407 -1 $-1 $306 -1.5707963267948966 $395 0 $304 $408 forward @7 unknown #
color-adesk-attrib $-1 -1 $409 $305 $234 250 #
point $-1 -1 $-1 140.356079805321 160.24341274906232 120.61392201202742 #
DXID-attrib $-1 -1 $-1 $309 $165 @18 ASM_EDGE_FROM_STEP @5 28861 #
DXID-attrib $-1 -1 $-1 $310 $240 @18 ASM_FACE_FROM_STEP @17 step-4M-286-37782 #
DXID-attrib $-1 -1 $-1 $317 $254 @18 ASM_EDGE_FROM_STEP @5 43857 #
DXID-attrib $-1 -1 $-1 $319 $255 @18 ASM_FACE_FROM_STEP @17 step-4M-286-57609 #
DXID-attrib $-1 -1 $-1 $325 $264 @18 ASM_FACE_FROM_STEP @17 step-4M-286-45983 #
truecolor-adesk-attrib $-1 -1 $410 $-1 $326 -1025119507 #
face $411 -1 $-1 $412 $413 $3 $-1 $414 reversed single #
plane-surface $-1 -1 $-1 137.106079805321 160.24341274906232 120.61392201202742 0 -1 0 0 0 -1 forward_v I I I I #
coedge $-1 -1 $-1 $377 $329 $415 $416 forward $265 $-1 #
coedge $-1 -1 $-1 $329 $376 $417 $418 forward $265 $-1 #
DXID-attrib $-1 -1 $-1 $330 $202 @18 ASM_EDGE_FROM_STEP @5 46717 #
DXID-attrib $-1 -1 $-1 $333 $213 @18 ASM_FACE_FROM_STEP @16 step-4M-286-6162 #
color-adesk-attrib $-1 -1 $419 $334 $277 250 #
color-adesk-attrib $-1 -1 $420 $338 $281 250 #
truecolor-adesk-attrib $-1 -1 $421 $-1 $340 -1038345188 #
ellipse-curve $-1 -1 $-1 137.106079805321 167.24341274906232 120.61392201202742 4.5924254968025705e-17 1 0 -2.7499999999999996 1.2629170116207067e-16 0 1 F -3.1415926535897931 F 0 #
DXID-attrib $-1 -1 $-1 $341 $217 @18 ASM_EDGE_FROM_STEP @4 4398 #
DXID-attrib $-1 -1 $-1 $343 $219 @18 ASM_EDGE_FROM_STEP @4 1612 #
DXID-attrib $-1 -1 $-1 $346 $222 @18 ASM_EDGE_FROM_STEP @5 56583 #
color-adesk-attrib $-1 -1 $422 $347 $293 250 #
coedge $-1 -1 $-1 $417 $423 $351 $389 reversed $413 $-1 #
edge $424 -1 $-1 $300 -0.0032500000000000003 $425 0 $351 $426 forward @7 unknown #
coedge $-1 -1 $-1 $427 $399 $352 $391 reversed $428 $-1 #
edge $429 -1 $-1 $425 0 $354 0.0032500000000000003 $352 $430 forward @7 unknown #
color-adesk-attrib $-1 -1 $431 $353 $297 250 #
point $-1 -1 $-1 137.106079805321 160.24341274906232 123.86392201202742 #
truecolor-adesk-attrib $-1 -1 $432 $-1 $356 -1038345188 #
vertex $-1 -1 $-1 $365 $433 #
ellipse-curve $-1 -1 $-1 137.106079805321 160.24341274906232 120.61392201202742 0 1 0 0 0 -3.2500000000000022 1 F 0 F 1.5707963267948966 #
DXID-attrib $-1 -1 $-1 $357 $231 @18 ASM_EDGE_FROM_STEP @5 24324 #
coedge $-1 -1 $-1 $360 $359 $434 $435 forward $361 $-1 #
coedge $-1 -1 $-1 $390 $436 $359 $400 reversed $428 $-1 #
edge $437 -1 $-1 $354 0.0032500000000000003 $438 0.0055000000000000005 $359 $439 forward @7 unknown #
coedge $-1 -1 $-1 $440 $441 $360 $402 reversed $442 $-1 #
edge $443 -1 $-1 $444 0 $306 0.0022500000000000003 $360 $445 forward @7 unknown #
color-adesk-attrib $-1 -1 $446 $362 $303 250 #
coedge $-1 -1 $-1 $447 $364 $441 $448 forward $406 $-1 #
coedge $-1 -1 $-1 $364 $447 $449 $450 forward $406 $-1 #
loop $-1 -1 $-1 $-1 $364 $451 #
truecolor-adesk-attrib $-1 -1 $452 $-1 $365 -1038345188 #
ellipse-curve $-1 -1 $-1 137.106079805321 160.24341274906232 120.61392201202742 0 1 0 0 0 -3.2500000000000022 1 F -1.5707963267948966 F 0 #
DXID-attrib $-1 -1 $-1 $366 $234 @18 ASM_EDGE_FROM_STEP @4 6785 #
DXID-attrib $-1 -1 $-1 $373 $326 @18 ASM_FACE_FROM_STEP @17 step-4M-286-45992 #
truecolor-adesk-attrib $-1 -1 $453 $-1 $374 -1025119507 #
face $454 -1 $-1 $455 $428 $3 $-1 $456 reversed single #
loop $-1 -1 $-1 $-1 $457 $374 #
plane-surface $-1 -1 $-1 133.856079805321 160.24341274906232 123.86392201202742 1 0 0 0 0 -1 forward_v I I I I #
coedge $-1 -1 $-1 $449 $458 $376 $416 reversed $459 $-1 #
edge $460 -1 $-1 $395 -0.0032500000000000003 $461 0 $376 $462 forward @7 unknown #
coedge $-1 -1 $-1 $463 $388 $377 $418 reversed $413 $-1 #
edge $464 -1 $-1 $461 -0.0065000000000000006 $300 -0.0032500000000000003 $377 $465 forward @7 unknown #
DXID-attrib $-1 -1 $-1 $380 $277 @18 ASM_FACE_FROM_STEP @17 step-4M-286-60591 #
DXID-attrib $-1 -1 $-1 $381 $281 @18 ASM_EDGE_FROM_STEP @5 14247 #
color-adesk-attrib $-1 -1 $466 $382 $340 250 #
DXID-attrib $-1 -1 $-1 $387 $293 @18 ASM_EDGE_FROM_STEP @5 10411 #
coedge $-1 -1 $-1 $388 $457 $427 $467 reversed $413 $-1 #
truecolor-adesk-attrib $-1 -1 $468 $-1 $389 -1025119507 #
vertex $-1 -1 $-1 $389 $469 #
straight-curve $-1 -1 $-1 133.856079805321 160.24341274906232 123.86392201202742 0 0 1000 F -0.0032500000000000003 F 0 #
coedge $-1 -1 $-1 $470 $390 $423 $467 forward $428 $-1 #
loop $-1 -1 $-1 $-1 $470 $412 #
truecolor-adesk-attrib $-1 -1 $471 $-1 $391 -1025119507 #
straight-curve $-1 -1 $-1 133.856079805321 160.24341274906232 123.86392201202742 1000 0 0 F 0 F 0.0032500000000000003 #
DXID-attrib $-1 -1 $-1 $392 $297 @18 ASM_EDGE_FROM_STEP @4 7040 #
color-adesk-attrib $-1 -1 $472 $394 $356 250 #
point $-1 -1 $-1 137.106079805321 160.24341274906232 117.36392201202742 #
coedge $-1 -1 $-1 $473 $474 $398 $435 reversed $475 $-1 #
edge $476 -1 $-1 $438 0 $444 0.0014142135623730948 $398 $477 forward @7 unknown #
coedge $-1 -1 $-1 $399 $470 $473 $478 reversed $428 $-1 #
truecolor-adesk-attrib $-1 -1 $479 $-1 $400 -1025119507 #
vertex $-1 -1 $-1 $400 $480 #
straight-curve $-1 -1 $-1 133.856079805321 160.24341274906232 123.86392201202742 1000 0 0 F 0.0032500000000000003 F 0.0055000000000000005 #
coedge $-1 -1 $-1 $481 $401 $474 $482 forward $442 $-1 #
coedge $-1 -1 $-1 $401 $483 $404 $448 reversed $442 $-1 #
loop $-1 -1 $-1 $-1 $481 $455 #
truecolor-adesk-attrib $-1 -1 $484 $-1 $402 -1025119507 #
vertex $-1 -1 $-1 $435 $485 #
straight-curve $-1 -1 $-1 140.356079805321 160.24341274906232 122.86392201202742 0 0 -1000 F 0 F 0.0022500000000000003 #
DXID-attrib $-1 -1 $-1 $403 $303 @18 ASM_EDGE_FROM_STEP @4 3093 #
coedge $-1 -1 $-1 $405 $404 $486 $487 forward $406 $-1 #
edge $488 -1 $-1 $306 0.0022500000000000003 $489 0.0045000000000000005 $441 $490 forward @7 unknown #
coedge $-1 -1 $-1 $491 $415 $405 $450 reversed $459 $-1 #
edge $492 -1 $-1 $493 -0.0055000000000000005 $395 -0.0032500000000000003 $449 $494 forward @7 unknown #
face $495 -1 $-1 $496 $406 $3 $-1 $497 reversed single #
color-adesk-attrib $-1 -1 $498 $407 $365 250 #
DXID-attrib $-1 -1 $-1 $411 $374 @18 ASM_FACE_FROM_STEP @17 step-4M-286-29660 #
truecolor-adesk-attrib $-1 -1 $499 $-1 $412 -1025119507 #
face $500 -1 $-1 $501 $442 $3 $-1 $502 reversed single #
plane-surface $-1 -1 $-1 133.856079805321 160.24341274906232 123.86392201202742 0 0 -1 -1 0 0 forward_v I I I I #
coedge $-1 -1 $-1 $423 $463 $503 $504 forward $413 $-1 #
coedge $-1 -1 $-1 $415 $505 $463 $506 reversed $459 $-1 #
loop $-1 -1 $-1 $-1 $505 $501 #
truecolor-adesk-attrib $-1 -1 $507 $-1 $416 -1025119507 #
vertex $-1 -1 $-1 $416 $508 #
straight-curve $-1 -1 $-1 133.856079805321 160.24341274906232 117.36392201202742 -1000 0 0 F -0.0032500000000000003 F 0 #
coedge $-1 -1 $-1 $457 $417 $458 $506 forward $413 $-1 #
truecolor-adesk-attrib $-1 -1 $509 $-1 $418 -1025119507 #
straight-curve $-1 -1 $-1 133.856079805321 160.24341274906232 123.86392201202742 0 0 1000 F -0.0065000000000000006 F -0.0032500000000000003 #
DXID-attrib $-1 -1 $-1 $421 $340 @18 ASM_EDGE_FROM_STEP @5 36618 #
edge $510 -1 $-1 $425 0 $511 0.001 $423 $512 forward @7 unknown #
DXID-attrib $-1 -1 $-1 $424 $389 @18 ASM_EDGE_FROM_STEP @5 28869 #
point $-1 -1 $-1 133.856079805321 160.24341274906232 123.86392201202742 #
coedge $-1 -1 $-1 $436 $427 $513 $514 forward $428 $-1 #
DXID-attrib $-1 -1 $-1 $429 $391 @18 ASM_EDGE_FROM_STEP @5 18223 #
DXID-attrib $-1 -1 $-1 $432 $356 @18 ASM_EDGE_FROM_STEP @5 26144 #
coedge $-1 -1 $-1 $515 $434 $436 $478 forward $475 $-1 #
coedge $-1 -1 $-1 $434 $515 $440 $482 reversed $475 $-1 #
loop $-1 -1 $-1 $-1 $515 $516 #
truecolor-adesk-attrib $-1 -1 $517 $-1 $435 -1025119507 #
straight-curve $-1 -1 $-1 139.356079805321 160.24341274906232 123.86392201202742 707.10678118654744 0 -707.10678118654766 F 0 F 0.0014142135623730948 #
edge $518 -1 $-1 $438 0 $519 0.001 $436 $520 forward @7 unknown #
DXID-attrib $-1 -1 $-1 $437 $400 @18 ASM_EDGE_FROM_STEP @5 60926 #
point $-1 -1 $-1 139.356079805321 160.24341274906232 123.86392201202742 #
coedge $-1 -1 $-1 $483 $440 $521 $522 forward $442 $-1 #
edge $523 -1 $-1 $444 0 $524 0.001 $440 $525 forward @7 unknown #
coedge $-1 -1 $-1 $441 $481 $526 $527 reversed $442 $-1 #
DXID-attrib $-1 -1 $-1 $443 $402 @18 ASM_EDGE_FROM_STEP @5 54398 #
point $-1 -1 $-1 140.356079805321 160.24341274906232 122.86392201202742 #
coedge $-1 -1 $-1 $526 $528 $447 $487 reversed $529 $-1 #
edge $530 -1 $-1 $489 -0.0014142135623730944 $493 0 $486 $531 forward @7 unknown #
truecolor-adesk-attrib $-1 -1 $532 $-1 $448 -1025119507 #
vertex $-1 -1 $-1 $527 $533 #
straight-curve $-1 -1 $-1 140.356079805321 160.24341274906232 122.86392201202742 0 0 -1000 F 0.0022500000000000003 F 0.0045000000000000005 #
coedge $-1 -1 $-1 $505 $449 $528 $534 forward $459 $-1 #
truecolor-adesk-attrib $-1 -1 $535 $-1 $450 -1025119507 #
vertex $-1 -1 $-1 $450 $536 #
straight-curve $-1 -1 $-1 133.856079805321 160.24341274906232 117.36392201202742 -1000 0 0 F -0.0055000000000000005 F -0.0032500000000000003 #
truecolor-adesk-attrib $-1 -1 $537 $-1 $451 -1025119507 #
face $538 -1 $-1 $-1 $539 $3 $-1 $540 forward single #
plane-surface $-1 -1 $-1 137.106079805321 160.24341274906232 120.61392201202742 0 -1 0 0 0 -1 forward_v I I I I #
DXID-attrib $-1 -1 $-1 $452 $365 @18 ASM_EDGE_FROM_STEP @5 33136 #
DXID-attrib $-1 -1 $-1 $454 $412 @18 ASM_FACE_FROM_STEP @17 step-4M-286-50547 #
truecolor-adesk-attrib $-1 -1 $541 $-1 $455 -1025119507 #
face $542 -1 $-1 $516 $459 $3 $-1 $543 reversed single #
plane-surface $-1 -1 $-1 140.356079805321 160.24341274906232 122.86392201202742 -1 0 0 0 0 1 forward_v I I I I #
coedge $-1 -1 $-1 $544 $513 $457 $504 reversed $539 $-1 #
edge $545 -1 $-1 $546 -0.0065000000000000006 $511 0 $457 $547 forward @7 unknown #
coedge $-1 -1 $-1 $458 $491 $544 $548 forward $459 $-1 #
edge $549 -1 $-1 $461 0 $546 0.001 $463 $550 forward @7 unknown #
DXID-attrib $-1 -1 $-1 $460 $416 @18 ASM_EDGE_FROM_STEP @5 48836 #
point $-1 -1 $-1 133.856079805321 160.24341274906232 117.36392201202742 #
DXID-attrib $-1 -1 $-1 $464 $418 @18 ASM_EDGE_FROM_STEP @5 60976 #
truecolor-adesk-attrib $-1 -1 $551 $-1 $467 -1025119507 #
vertex $-1 -1 $-1 $504 $552 #
straight-curve $-1 -1 $-1 133.856079805321 160.24341274906232 123.86392201202742 0 -1000 0 F 0 F 0.001 #
coedge $-1 -1 $-1 $503 $553 $470 $514 reversed $539 $-1 #
edge $554 -1 $-1 $511 0 $519 0.0055000000000000005 $470 $555 forward @7 unknown #
coedge $-1 -1 $-1 $474 $473 $553 $556 forward $475 $-1 #
face $557 -1 $-1 $558 $475 $3 $-1 $559 reversed single #
DXID-attrib $-1 -1 $-1 $476 $435 @18 ASM_EDGE_FROM_STEP @5 19420 #
truecolor-adesk-attrib $-1 -1 $560 $-1 $478 -1025119507 #
vertex $-1 -1 $-1 $514 $561 #
straight-curve $-1 -1 $-1 139.356079805321 160.24341274906232 123.86392201202742 0 -1000 0 F 0 F 0.001 #
coedge $-1 -1 $-1 $553 $562 $481 $522 reversed $539 $-1 #
edge $563 -1 $-1 $524 0 $564 0.0045000000000000005 $481 $565 forward @7 unknown #
truecolor-adesk-attrib $-1 -1 $566 $-1 $482 -1025119507 #
vertex $-1 -1 $-1 $522 $567 #
straight-curve $-1 -1 $-1 140.356079805321 160.24341274906232 122.86392201202742 0 -1000 0 F 0 F 0.001 #
coedge $-1 -1 $-1 $568 $486 $483 $527 forward $529 $-1 #
edge $569 -1 $-1 $489 0 $564 0.001 $483 $570 forward @7 unknown #
coedge $-1 -1 $-1 $486 $568 $491 $534 reversed $529 $-1 #
loop $-1 -1 $-1 $-1 $568 $558 #
truecolor-adesk-attrib $-1 -1 $571 $-1 $487 -1025119507 #
straight-curve $-1 -1 $-1 139.356079805321 160.24341274906232 117.36392201202742 -707.10678118654755 0 -707.10678118654755 F -0.0014142135623730944 F 0 #
DXID-attrib $-1 -1 $-1 $488 $448 @18 ASM_EDGE_FROM_STEP @5 42414 #
point $-1 -1 $-1 140.356079805321 160.24341274906232 118.36392201202742 #
edge $572 -1 $-1 $493 0 $573 0.001 $491 $574 forward @7 unknown #
DXID-attrib $-1 -1 $-1 $492 $450 @18 ASM_EDGE_FROM_STEP @4 4253 #
point $-1 -1 $-1 139.356079805321 160.24341274906232 117.36392201202742 #
DXID-attrib $-1 -1 $-1 $495 $451 @18 ASM_FACE_FROM_STEP @17 step-4M-286-57392 #
truecolor-adesk-attrib $-1 -1 $575 $-1 $496 -1025119507 #
loop $-1 -1 $-1 $-1 $562 $496 #
plane-surface $-1 -1 $-1 140.356079805321 159.24341274906232 120.61392201202742 -4.5924254968025693e-17 -1 0 1 -4.5924254968025699e-17 0 forward_v I I I I #
DXID-attrib $-1 -1 $-1 $500 $455 @18 ASM_FACE_FROM_STEP @17 step-4M-286-37319 #
truecolor-adesk-attrib $-1 -1 $576 $-1 $501 -1025119507 #
plane-surface $-1 -1 $-1 133.856079805321 160.24341274906232 117.36392201202742 0 0 1 1 0 0 forward_v I I I I #
coedge $-1 -1 $-1 $562 $503 $505 $548 reversed $539 $-1 #
truecolor-adesk-attrib $-1 -1 $577 $-1 $504 -1025119507 #
vertex $-1 -1 $-1 $504 $578 #
straight-curve $-1 -1 $-1 133.856079805321 159.24341274906232 123.86392201202742 0 0 1000 F -0.0065000000000000006 F 0 #
edge $579 -1 $-1 $573 -0.0055000000000000005 $546 0 $505 $580 forward @7 unknown #
truecolor-adesk-attrib $-1 -1 $581 $-1 $506 -1025119507 #
straight-curve $-1 -1 $-1 133.856079805321 160.24341274906232 117.36392201202742 0 -1000 0 F 0 F 0.001 #
DXID-attrib $-1 -1 $-1 $510 $467 @18 ASM_EDGE_FROM_STEP @5 51066 #
point $-1 -1 $-1 133.856079805321 159.24341274906232 123.86392201202742 #
coedge $-1 -1 $-1 $513 $521 $515 $556 reversed $539 $-1 #
truecolor-adesk-attrib $-1 -1 $582 $-1 $514 -1025119507 #
straight-curve $-1 -1 $-1 133.856079805321 159.24341274906232 123.86392201202742 1000 0 0 F 0 F 0.0055000000000000005 #
edge $583 -1 $-1 $519 0 $524 0.0014142135623730948 $515 $584 forward @7 unknown #
truecolor-adesk-attrib $-1 -1 $585 $-1 $516 -1025119507 #
face $586 -1 $-1 $451 $529 $3 $-1 $587 reversed single #
plane-surface $-1 -1 $-1 139.356079805321 160.24341274906232 123.86392201202742 -0.70710678118654779 0 -0.70710678118654735 -0.70710678118654735 0 0.70710678118654779 forward_v I I I I #
DXID-attrib $-1 -1 $-1 $518 $478 @18 ASM_EDGE_FROM_STEP @5 29220 #
point $-1 -1 $-1 139.356079805321 159.24341274906232 123.86392201202742 #
coedge $-1 -1 $-1 $521 $544 $568 $588 reversed $539 $-1 #
truecolor-adesk-attrib $-1 -1 $589 $-1 $522 -1025119507 #
vertex $-1 -1 $-1 $522 $590 #
straight-curve $-1 -1 $-1 140.356079805321 159.24341274906232 122.86392201202742 0 0 -1000 F 0 F 0.0045000000000000005 #
DXID-attrib $-1 -1 $-1 $523 $482 @18 ASM_EDGE_FROM_STEP @5 43346 #
point $-1 -1 $-1 140.356079805321 159.24341274906232 122.86392201202742 #
coedge $-1 -1 $-1 $528 $526 $562 $588 forward $529 $-1 #
truecolor-adesk-attrib $-1 -1 $591 $-1 $527 -1025119507 #
straight-curve $-1 -1 $-1 140.356079805321 160.24341274906232 118.36392201202742 0 -1000 0 F 0 F 0.001 #
DXID-attrib $-1 -1 $-1 $530 $487 @18 ASM_EDGE_FROM_STEP @4 9072 #
truecolor-adesk-attrib $-1 -1 $592 $-1 $534 -1025119507 #
vertex $-1 -1 $-1 $548 $593 #
straight-curve $-1 -1 $-1 139.356079805321 160.24341274906232 117.36392201202742 0 -1000 0 F 0 F 0.001 #
DXID-attrib $-1 -1 $-1 $538 $496 @18 ASM_FACE_FROM_STEP @17 step-4M-286-13091 #
DXID-attrib $-1 -1 $-1 $542 $501 @18 ASM_FACE_FROM_STEP @17 step-4M-286-55985 #
DXID-attrib $-1 -1 $-1 $545 $504 @18 ASM_EDGE_FROM_STEP @4 4225 #
point $-1 -1 $-1 133.856079805321 159.24341274906232 117.36392201202742 #
truecolor-adesk-attrib $-1 -1 $594 $-1 $548 -1025119507 #
straight-curve $-1 -1 $-1 133.856079805321 159.24341274906232 117.36392201202742 -1000 0 0 F -0.0055000000000000005 F 0 #
DXID-attrib $-1 -1 $-1 $549 $506 @18 ASM_EDGE_FROM_STEP @4 5065 #
DXID-attrib $-1 -1 $-1 $554 $514 @18 ASM_EDGE_FROM_STEP @5 16427 #
truecolor-adesk-attrib $-1 -1 $595 $-1 $556 -1025119507 #
straight-curve $-1 -1 $-1 139.356079805321 159.24341274906232 123.86392201202742 707.10678118654744 0 -707.10678118654766 F 0 F 0.0014142135623730948 #
DXID-attrib $-1 -1 $-1 $557 $516 @18 ASM_FACE_FROM_STEP @17 step-4M-286-57869 #
truecolor-adesk-attrib $-1 -1 $596 $-1 $558 -1025119507 #
plane-surface $-1 -1 $-1 139.356079805321 160.24341274906232 117.36392201202742 -0.70710678118654757 0 0.70710678118654757 0.70710678118654768 0 0.70710678118654768 forward_v I I I I #
edge $597 -1 $-1 $564 -0.0014142135623730944 $573 0 $568 $598 forward @7 unknown #
DXID-attrib $-1 -1 $-1 $563 $522 @18 ASM_EDGE_FROM_STEP @5 52222 #
point $-1 -1 $-1 140.356079805321 159.24341274906232 118.36392201202742 #
DXID-attrib $-1 -1 $-1 $569 $527 @18 ASM_EDGE_FROM_STEP @5 32837 #
DXID-attrib $-1 -1 $-1 $572 $534 @18 ASM_EDGE_FROM_STEP @5 44301 #
point $-1 -1 $-1 139.356079805321 159.24341274906232 117.36392201202742 #
DXID-attrib $-1 -1 $-1 $579 $548 @18 ASM_EDGE_FROM_STEP @4 4989 #
DXID-attrib $-1 -1 $-1 $583 $556 @18 ASM_EDGE_FROM_STEP @5 27986 #
DXID-attrib $-1 -1 $-1 $586 $558 @18 ASM_FACE_FROM_STEP @17 step-4M-286-43357 #
truecolor-adesk-attrib $-1 -1 $599 $-1 $588 -1025119507 #
straight-curve $-1 -1 $-1 139.356079805321 159.24341274906232 117.36392201202742 -707.10678118654755 0 -707.10678118654755 F -0.0014142135623730944 F 0 #
DXID-attrib $-1 -1 $-1 $597 $588 @18 ASM_EDGE_FROM_STEP @5 25129 #
