700 302 1 0         
5 ZWCAD 12 ACIS 28.0 NT 24 Mon May 13 09:36:54 2024 
1 9.9999999999999995e-07 1e-10 
body $1 -1 $-1 $2 $-1 $-1 #
DXID-attrib $-1 -1 $-1 $-1 $0 @18 ASM_BODY_FROM_STEP @83 D461AAF25960D93784AF58F4084599C310B417FA|:|4AF57802534EAC44E294A272D701FF822128FC27 #
lump $-1 -1 $-1 $-1 $3 $0 #
shell $-1 -1 $-1 $-1 $-1 $4 $-1 $2 #
face $5 -1 $-1 $6 $7 $3 $-1 $8 reversed single #
truecolor-adesk-attrib $-1 -1 $9 $-1 $4 -1056964608 #
face $10 -1 $-1 $11 $12 $3 $-1 $13 reversed single #
loop $-1 -1 $-1 $-1 $14 $4 #
cone-surface $-1 -1 $-1 125.48540617321275 -367.07582787485501 27.498451409015097 2.4492935984362399e-16 -1 -2.2523926344419651e-26 -1.8532912754958928 -4.5392544573322658e-16 0.98757857822594486 1 I I 0 1 2.0999999999999934 forward I I I I #
DXID-attrib $-1 -1 $-1 $5 $4 @18 ASM_FACE_FROM_STEP @16 step-2M-555-8557 #
truecolor-adesk-attrib $-1 -1 $15 $-1 $6 -1056964608 #
face $16 -1 $-1 $17 $18 $3 $-1 $19 reversed single #
loop $-1 -1 $-1 $-1 $20 $6 #
cone-surface $-1 -1 $-1 125.48540617321274 -355.07582787485501 27.498451409015097 2.4492935984362399e-16 -1 -2.2523926344419651e-26 -1.8532912754958963 -4.5392544573322747e-16 0.98757857822594675 1 I I 0.85716730070211178 0.51503807491005504 2.0999999999999974 forward I I I I #
coedge $-1 -1 $-1 $21 $22 $23 $24 reversed $7 $-1 #
DXID-attrib $-1 -1 $-1 $10 $6 @18 ASM_FACE_FROM_STEP @17 step-2M-555-22632 #
truecolor-adesk-attrib $-1 -1 $25 $-1 $11 -1056964608 #
face $26 -1 $-1 $27 $28 $3 $-1 $29 reversed single #
loop $-1 -1 $-1 $-1 $30 $11 #
cone-surface $-1 -1 $-1 125.48540617321274 -313.07582787485501 27.498451409015097 -2.4492935984362399e-16 1 2.2523926344419651e-26 1.8532912754958928 4.5392544573322658e-16 -0.98757857822594486 1 I I 0 1 2.0999999999999934 forward I I I I #
coedge $-1 -1 $-1 $31 $23 $32 $33 reversed $12 $-1 #
coedge $-1 -1 $-1 $34 $14 $35 $36 forward $7 $-1 #
coedge $-1 -1 $-1 $14 $34 $37 $38 reversed $7 $-1 #
coedge $-1 -1 $-1 $20 $31 $14 $24 forward $12 $-1 #
edge $39 -1 $-1 $40 -3.1415926535897931 $41 0 $14 $42 forward @7 unknown #
DXID-attrib $-1 -1 $-1 $16 $11 @18 ASM_FACE_FROM_STEP @17 step-2M-555-11637 #
truecolor-adesk-attrib $-1 -1 $43 $-1 $17 -1056964608 #
face $44 -1 $-1 $45 $46 $3 $-1 $47 forward single #
loop $-1 -1 $-1 $-1 $48 $17 #
cone-surface $-1 -1 $-1 125.48540617321274 -325.07582787485501 27.498451409015097 -2.4492935984362399e-16 1 2.2523926344419651e-26 1.8532912754958963 4.5392544573322747e-16 -0.98757857822594675 1 I I 0.85716730070211178 0.51503807491005504 2.0999999999999974 forward I I I I #
coedge $-1 -1 $-1 $49 $50 $51 $52 reversed $18 $-1 #
coedge $-1 -1 $-1 $23 $20 $53 $54 forward $12 $-1 #
coedge $-1 -1 $-1 $55 $53 $20 $33 forward $56 $-1 #
edge $57 -1 $-1 $58 -0.002449930134152194 $41 0 $20 $59 forward @7 unknown #
coedge $-1 -1 $-1 $22 $21 $60 $61 forward $7 $-1 #
coedge $-1 -1 $-1 $62 $63 $21 $36 reversed $64 $-1 #
edge $65 -1 $-1 $40 -0.012000000000000002 $66 0 $21 $67 forward @7 unknown #
coedge $-1 -1 $-1 $63 $62 $22 $38 forward $64 $-1 #
edge $68 -1 $-1 $41 -0.012000000000000002 $69 0 $22 $70 forward @7 unknown #
truecolor-adesk-attrib $-1 -1 $71 $-1 $24 -1056964608 #
vertex $-1 -1 $-1 $24 $72 #
vertex $-1 -1 $-1 $24 $73 #
ellipse-curve $-1 -1 $-1 125.48540617321274 -355.07582787485501 27.498451409015097 2.4492935984362399e-16 -1 -2.2523926344419651e-26 -1.8532912754958963 -4.5392544573322747e-16 0.98757857822594675 1 F -3.1415926535897931 F 0 #
DXID-attrib $-1 -1 $-1 $26 $17 @18 ASM_FACE_FROM_STEP @17 step-2M-555-34647 #
truecolor-adesk-attrib $-1 -1 $74 $-1 $27 -1056964608 #
face $75 -1 $-1 $76 $77 $3 $-1 $78 forward single #
loop $-1 -1 $-1 $-1 $79 $27 #
cone-surface $-1 -1 $-1 125.48540617321275 -367.07582787485501 27.498451409015097 -2.4492935984362399e-16 1 2.2523926344419651e-26 4.1478423784908234 1.0159283785457967e-15 -2.210294913172361 1 I I 0.70710678118653836 0.70710678118655679 4.7000000000000028 forward I I I I #
coedge $-1 -1 $-1 $80 $51 $81 $82 reversed $28 $-1 #
coedge $-1 -1 $-1 $83 $30 $84 $85 forward $18 $-1 #
coedge $-1 -1 $-1 $30 $83 $86 $87 reversed $18 $-1 #
coedge $-1 -1 $-1 $48 $80 $30 $52 forward $28 $-1 #
edge $88 -1 $-1 $89 -3.1415926535897931 $90 0 $30 $91 forward @7 unknown #
coedge $-1 -1 $-1 $32 $55 $31 $54 reversed $56 $-1 #
edge $92 -1 $-1 $58 -0.0024499301341521884 $40 0 $31 $93 forward @7 unknown #
coedge $-1 -1 $-1 $53 $32 $62 $94 forward $56 $-1 #
loop $-1 -1 $-1 $-1 $53 $95 #
truecolor-adesk-attrib $-1 -1 $96 $-1 $33 -1056964608 #
vertex $-1 -1 $-1 $33 $97 #
straight-curve $-1 -1 $-1 123.63211489771685 -355.07582787485501 28.486029987241043 -756.46699049123481 -515.03807491005523 403.1047924424596 F -0.002449930134152194 F 0 #
coedge $-1 -1 $-1 $98 $98 $34 $61 reversed $99 $-1 #
edge $100 -1 $-1 $66 -3.1415926535897931 $69 0 $34 $101 forward @7 unknown #
coedge $-1 -1 $-1 $37 $35 $55 $94 reversed $64 $-1 #
coedge $-1 -1 $-1 $35 $37 $98 $102 forward $64 $-1 #
loop $-1 -1 $-1 $-1 $35 $103 #
truecolor-adesk-attrib $-1 -1 $104 $-1 $36 -1056964608 #
vertex $-1 -1 $-1 $36 $105 #
straight-curve $-1 -1 $-1 127.33869744870864 -367.07582787485501 26.51087283078915 2.44929359843624e-13 -1000 -2.2523926344419651e-23 F -0.012000000000000002 F 0 #
truecolor-adesk-attrib $-1 -1 $106 $-1 $38 -1056964608 #
vertex $-1 -1 $-1 $61 $107 #
straight-curve $-1 -1 $-1 123.63211489771686 -367.07582787485501 28.486029987241043 2.44929359843624e-13 -1000 -2.2523926344419651e-23 F -0.012000000000000002 F 0 #
DXID-attrib $-1 -1 $-1 $39 $24 @18 ASM_EDGE_FROM_STEP @5 19098 #
point $-1 -1 $-1 127.33869744870864 -355.07582787485501 26.51087283078915 #
point $-1 -1 $-1 123.63211489771685 -355.07582787485501 28.486029987241043 #
DXID-attrib $-1 -1 $-1 $44 $27 @18 ASM_FACE_FROM_STEP @16 step-2M-555-5016 #
truecolor-adesk-attrib $-1 -1 $108 $-1 $45 -1056964608 #
face $109 -1 $-1 $110 $111 $3 $-1 $112 forward single #
loop $-1 -1 $-1 $-1 $113 $45 #
cone-surface $-1 -1 $-1 125.48540617321274 -313.37582787485502 27.498451409015097 2.4492935984362399e-16 -1 -2.2523926344419651e-26 -4.412598274990235 -1.0807748707933999e-15 2.3513775672046382 1 I I 0.70710678118655068 0.70710678118654435 5 forward I I I I #
coedge $-1 -1 $-1 $114 $115 $116 $117 reversed $46 $-1 #
coedge $-1 -1 $-1 $51 $48 $118 $119 forward $28 $-1 #
coedge $-1 -1 $-1 $120 $118 $48 $82 forward $121 $-1 #
edge $122 -1 $-1 $123 -0.0024499301341521884 $90 0 $48 $124 forward @7 unknown #
coedge $-1 -1 $-1 $50 $49 $125 $126 forward $18 $-1 #
coedge $-1 -1 $-1 $127 $128 $49 $85 reversed $129 $-1 #
edge $130 -1 $-1 $89 -0.012000000000000002 $131 0 $49 $132 forward @7 unknown #
coedge $-1 -1 $-1 $128 $127 $50 $87 forward $129 $-1 #
edge $133 -1 $-1 $90 -0.012000000000000002 $134 0 $50 $135 forward @7 unknown #
truecolor-adesk-attrib $-1 -1 $136 $-1 $52 -1056964608 #
vertex $-1 -1 $-1 $52 $137 #
vertex $-1 -1 $-1 $52 $138 #
ellipse-curve $-1 -1 $-1 125.48540617321274 -325.07582787485501 27.498451409015097 -2.4492935984362399e-16 1 2.2523926344419651e-26 1.8532912754958963 4.5392544573322747e-16 -0.98757857822594675 1 F -3.1415926535897931 F 0 #
truecolor-adesk-attrib $-1 -1 $139 $-1 $54 -1056964608 #
straight-curve $-1 -1 $-1 127.33869744870864 -355.07582787485501 26.51087283078915 756.46699049123504 -515.03807491005477 -403.10479244245971 F -0.0024499301341521884 F 0 #
edge $140 -1 $-1 $41 0 $40 3.1415926535897931 $55 $141 forward @7 unknown #
face $142 -1 $-1 $103 $56 $3 $-1 $143 reversed single #
DXID-attrib $-1 -1 $-1 $57 $33 @18 ASM_EDGE_FROM_STEP @4 7100 #
point $-1 -1 $-1 125.48540617321275 -353.81402057489714 27.498451409015097 #
coedge $-1 -1 $-1 $60 $60 $63 $102 reversed $99 $-1 #
loop $-1 -1 $-1 $-1 $98 $144 #
truecolor-adesk-attrib $-1 -1 $145 $-1 $61 -1056964608 #
ellipse-curve $-1 -1 $-1 125.48540617321275 -367.07582787485501 27.498451409015097 2.4492935984362399e-16 -1 -2.2523926344419651e-26 -1.853291275495889 -4.539254457332256e-16 0.98757857822594275 1 F -3.1415926535897931 F 0 #
edge $146 -1 $-1 $69 0 $66 3.1415926535897931 $98 $147 forward @7 unknown #
face $148 -1 $-1 $-1 $64 $3 $-1 $149 reversed single #
DXID-attrib $-1 -1 $-1 $65 $36 @18 ASM_EDGE_FROM_STEP @5 21047 #
point $-1 -1 $-1 127.33869744870864 -367.07582787485501 26.510872830789154 #
DXID-attrib $-1 -1 $-1 $68 $38 @18 ASM_EDGE_FROM_STEP @4 9100 #
point $-1 -1 $-1 123.63211489771686 -367.07582787485501 28.486029987241039 #
DXID-attrib $-1 -1 $-1 $75 $45 @18 ASM_FACE_FROM_STEP @17 step-2M-555-33928 #
truecolor-adesk-attrib $-1 -1 $150 $-1 $76 -1056964608 #
face $151 -1 $-1 $144 $152 $3 $-1 $153 forward single #
loop $-1 -1 $-1 $-1 $154 $76 #
cone-surface $-1 -1 $-1 125.48540617321275 -367.07582787485501 27.498451409015097 -2.4492935984362399e-16 1 2.2523926344419651e-26 4.412598274990235 1.0807748707933999e-15 -2.3513775672046382 1 I I 0 1 5 forward I I I I #
coedge $-1 -1 $-1 $155 $156 $157 $158 reversed $77 $-1 #
coedge $-1 -1 $-1 $159 $79 $160 $161 forward $46 $-1 #
coedge $-1 -1 $-1 $79 $159 $162 $163 reversed $46 $-1 #
coedge $-1 -1 $-1 $164 $164 $79 $117 forward $165 $-1 #
edge $166 -1 $-1 $167 1.2637312714605658e-16 $168 3.1415926535897931 $79 $169 forward @7 unknown #
coedge $-1 -1 $-1 $81 $120 $80 $119 reversed $121 $-1 #
edge $170 -1 $-1 $123 -0.002449930134152194 $89 0 $80 $171 forward @7 unknown #
coedge $-1 -1 $-1 $118 $81 $127 $172 forward $121 $-1 #
loop $-1 -1 $-1 $-1 $118 $173 #
truecolor-adesk-attrib $-1 -1 $174 $-1 $82 -1056964608 #
vertex $-1 -1 $-1 $82 $175 #
straight-curve $-1 -1 $-1 127.33869744870863 -325.07582787485501 26.51087283078915 756.46699049123481 515.03807491005523 -403.1047924424596 F -0.0024499301341521884 F 0 #
coedge $-1 -1 $-1 $176 $176 $83 $126 reversed $177 $-1 #
edge $178 -1 $-1 $131 -3.1415926535897931 $134 0 $83 $179 forward @7 unknown #
coedge $-1 -1 $-1 $86 $84 $120 $172 reversed $129 $-1 #
coedge $-1 -1 $-1 $84 $86 $176 $180 forward $129 $-1 #
loop $-1 -1 $-1 $-1 $84 $181 #
truecolor-adesk-attrib $-1 -1 $182 $-1 $85 -1056964608 #
vertex $-1 -1 $-1 $85 $183 #
straight-curve $-1 -1 $-1 123.63211489771685 -313.07582787485501 28.486029987241043 -2.44929359843624e-13 1000 2.2523926344419651e-23 F -0.012000000000000002 F 0 #
truecolor-adesk-attrib $-1 -1 $184 $-1 $87 -1056964608 #
vertex $-1 -1 $-1 $126 $185 #
straight-curve $-1 -1 $-1 127.33869744870863 -313.07582787485501 26.51087283078915 -2.44929359843624e-13 1000 2.2523926344419651e-23 F -0.012000000000000002 F 0 #
DXID-attrib $-1 -1 $-1 $88 $52 @18 ASM_EDGE_FROM_STEP @4 3057 #
point $-1 -1 $-1 123.63211489771685 -325.07582787485501 28.486029987241043 #
point $-1 -1 $-1 127.33869744870863 -325.07582787485501 26.51087283078915 #
DXID-attrib $-1 -1 $-1 $92 $54 @18 ASM_EDGE_FROM_STEP @4 5096 #
truecolor-adesk-attrib $-1 -1 $186 $-1 $94 -1056964608 #
ellipse-curve $-1 -1 $-1 125.48540617321274 -355.07582787485501 27.498451409015097 2.4492935984362399e-16 -1 -2.2523926344419651e-26 -1.8532912754958963 -4.5392544573322747e-16 0.98757857822594675 1 F 0 F 3.1415926535897931 #
truecolor-adesk-attrib $-1 -1 $187 $-1 $95 -1056964608 #
cone-surface $-1 -1 $-1 125.48540617321274 -355.07582787485501 27.498451409015097 2.4492935984362399e-16 -1 -2.2523926344419651e-26 -1.8532912754958963 -4.5392544573322747e-16 0.98757857822594675 1 I I 0.85716730070211178 0.51503807491005504 2.0999999999999974 forward I I I I #
face $188 -1 $-1 $189 $165 $3 $-1 $190 forward single #
DXID-attrib $-1 -1 $-1 $100 $61 @18 ASM_EDGE_FROM_STEP @5 17119 #
truecolor-adesk-attrib $-1 -1 $191 $-1 $102 -1056964608 #
ellipse-curve $-1 -1 $-1 125.48540617321275 -367.07582787485501 27.498451409015097 2.4492935984362399e-16 -1 -2.2523926344419651e-26 -1.853291275495889 -4.539254457332256e-16 0.98757857822594275 1 F 0 F 3.1415926535897931 #
truecolor-adesk-attrib $-1 -1 $192 $-1 $103 -1056964608 #
cone-surface $-1 -1 $-1 125.48540617321275 -367.07582787485501 27.498451409015097 2.4492935984362399e-16 -1 -2.2523926344419651e-26 -1.8532912754958928 -4.5392544573322658e-16 0.98757857822594486 1 I I 0 1 2.0999999999999934 forward I I I I #
DXID-attrib $-1 -1 $-1 $109 $76 @18 ASM_FACE_FROM_STEP @17 step-2M-555-28983 #
truecolor-adesk-attrib $-1 -1 $193 $-1 $110 -1056964608 #
loop $-1 -1 $-1 $-1 $194 $110 #
cone-surface $-1 -1 $-1 125.48540617321275 -367.07582787485501 27.498451409015097 -2.4492935984362399e-16 1 2.2523926344419651e-26 4.412598274990235 1.0807748707933999e-15 -2.3513775672046382 1 I I 0 1 5 forward I I I I #
coedge $-1 -1 $-1 $195 $196 $159 $197 forward $111 $-1 #
coedge $-1 -1 $-1 $198 $113 $199 $200 forward $77 $-1 #
coedge $-1 -1 $-1 $113 $198 $201 $202 reversed $77 $-1 #
coedge $-1 -1 $-1 $203 $203 $113 $158 forward $204 $-1 #
edge $205 -1 $-1 $206 -3.1415926535897931 $207 0 $113 $208 forward @7 unknown #
coedge $-1 -1 $-1 $115 $114 $154 $197 reversed $46 $-1 #
coedge $-1 -1 $-1 $209 $210 $114 $161 reversed $211 $-1 #
edge $212 -1 $-1 $167 1.5907354687065585e-36 $213 0.00042426406871192812 $114 $214 forward @7 unknown #
coedge $-1 -1 $-1 $210 $209 $115 $163 forward $211 $-1 #
edge $215 -1 $-1 $168 0 $216 0.00042426406871192812 $115 $217 forward @7 unknown #
coedge $-1 -1 $-1 $116 $116 $209 $218 forward $165 $-1 #
loop $-1 -1 $-1 $99 $164 $144 #
truecolor-adesk-attrib $-1 -1 $219 $-1 $117 -1056964608 #
vertex $-1 -1 $-1 $117 $220 #
vertex $-1 -1 $-1 $117 $221 #
ellipse-curve $-1 -1 $-1 125.48540617321275 -367.07582787485501 27.498451409015097 2.4492935984362399e-16 -1 -2.2523926344419651e-26 -4.1478423784908234 -1.0159283785457967e-15 2.210294913172361 1 F 1.2637312714605658e-16 F 3.1415926535897931 #
truecolor-adesk-attrib $-1 -1 $222 $-1 $119 -1056964608 #
straight-curve $-1 -1 $-1 123.63211489771685 -325.07582787485501 28.486029987241043 -756.46699049123504 515.03807491005477 403.10479244245948 F -0.002449930134152194 F 0 #
edge $223 -1 $-1 $90 0 $89 3.1415926535897931 $120 $224 forward @7 unknown #
face $225 -1 $-1 $181 $121 $3 $-1 $226 reversed single #
DXID-attrib $-1 -1 $-1 $122 $82 @18 ASM_EDGE_FROM_STEP @5 27815 #
point $-1 -1 $-1 125.48540617321274 -326.33763517481287 27.498451409015097 #
coedge $-1 -1 $-1 $125 $125 $128 $180 reversed $177 $-1 #
loop $-1 -1 $-1 $-1 $176 $189 #
truecolor-adesk-attrib $-1 -1 $227 $-1 $126 -1056964608 #
ellipse-curve $-1 -1 $-1 125.48540617321274 -313.07582787485501 27.498451409015097 -2.4492935984362399e-16 1 2.2523926344419651e-26 1.853291275495889 4.539254457332256e-16 -0.98757857822594275 1 F -3.1415926535897931 F 0 #
edge $228 -1 $-1 $134 0 $131 3.1415926535897931 $176 $229 forward @7 unknown #
face $230 -1 $-1 $95 $129 $3 $-1 $231 reversed single #
DXID-attrib $-1 -1 $-1 $130 $85 @18 ASM_EDGE_FROM_STEP @4 1049 #
point $-1 -1 $-1 123.63211489771685 -313.07582787485501 28.486029987241039 #
DXID-attrib $-1 -1 $-1 $133 $87 @18 ASM_EDGE_FROM_STEP @5 31811 #
point $-1 -1 $-1 127.33869744870863 -313.07582787485501 26.510872830789154 #
DXID-attrib $-1 -1 $-1 $140 $94 @18 ASM_EDGE_FROM_STEP @4 4571 #
DXID-attrib $-1 -1 $-1 $142 $95 @18 ASM_FACE_FROM_STEP @17 step-2M-555-22577 #
truecolor-adesk-attrib $-1 -1 $232 $-1 $144 -1056964608 #
face $233 -1 $-1 $234 $204 $3 $-1 $235 reversed single #
plane-surface $-1 -1 $-1 125.48540617321275 -367.07582787485501 27.498451409015097 2.4492935984362399e-16 -1 -2.2523926344419651e-26 -0.88251965499804697 -2.1615497415868001e-16 0.47027551344092761 forward_v I I I I #
DXID-attrib $-1 -1 $-1 $146 $102 @18 ASM_EDGE_FROM_STEP @5 18581 #
DXID-attrib $-1 -1 $-1 $148 $103 @18 ASM_FACE_FROM_STEP @17 step-2M-555-17679 #
DXID-attrib $-1 -1 $-1 $151 $110 @18 ASM_FACE_FROM_STEP @17 step-2M-555-23368 #
coedge $-1 -1 $-1 $236 $237 $195 $238 reversed $152 $-1 #
coedge $-1 -1 $-1 $239 $154 $194 $238 forward $111 $-1 #
coedge $-1 -1 $-1 $154 $239 $240 $241 reversed $111 $-1 #
edge $242 -1 $-1 $216 -3.1415926535897931 $213 -1.2246467991473532e-16 $159 $243 forward @7 unknown #
coedge $-1 -1 $-1 $156 $155 $239 $244 reversed $77 $-1 #
coedge $-1 -1 $-1 $245 $246 $155 $200 reversed $247 $-1 #
edge $248 -1 $-1 $206 -0.00042426406871195235 $249 -5.3024515623553341e-35 $155 $250 forward @7 unknown #
coedge $-1 -1 $-1 $246 $245 $156 $202 forward $247 $-1 #
edge $251 -1 $-1 $207 -0.00042426406871195235 $252 0 $156 $253 forward @7 unknown #
coedge $-1 -1 $-1 $157 $157 $245 $254 forward $204 $-1 #
loop $-1 -1 $-1 $177 $203 $189 #
truecolor-adesk-attrib $-1 -1 $255 $-1 $158 -1056964608 #
vertex $-1 -1 $-1 $158 $256 #
vertex $-1 -1 $-1 $158 $257 #
ellipse-curve $-1 -1 $-1 125.48540617321274 -313.07582787485501 27.498451409015097 -2.4492935984362399e-16 1 2.2523926344419651e-26 -4.1478423784908047 -1.0159283785457921e-15 2.2102949131723513 1 F -3.1415926535897931 F 0 #
coedge $-1 -1 $-1 $162 $160 $164 $218 reversed $211 $-1 #
coedge $-1 -1 $-1 $160 $162 $236 $258 reversed $211 $-1 #
loop $-1 -1 $-1 $-1 $160 $259 #
truecolor-adesk-attrib $-1 -1 $260 $-1 $161 -1056964608 #
vertex $-1 -1 $-1 $161 $261 #
straight-curve $-1 -1 $-1 121.33756379472192 -367.07582787485501 29.708746322187459 -624.03563257952351 707.10678118655653 332.5350045800609 F 1.5907354687065585e-36 F 0.00042426406871192812 #
truecolor-adesk-attrib $-1 -1 $262 $-1 $163 -1056964608 #
vertex $-1 -1 $-1 $197 $263 #
straight-curve $-1 -1 $-1 129.63324855170356 -367.07582787485501 25.288156495842735 624.03563257952305 707.10678118655676 -332.53500458006096 F 0 F 0.00042426406871192812 #
edge $264 -1 $-1 $168 -3.1415926535897931 $167 1.2637312714605658e-16 $164 $265 forward @7 unknown #
DXID-attrib $-1 -1 $-1 $166 $117 @18 ASM_EDGE_FROM_STEP @5 17827 #
point $-1 -1 $-1 121.33756379472192 -367.07582787485501 29.708746322187459 #
point $-1 -1 $-1 129.63324855170356 -367.07582787485501 25.288156495842735 #
DXID-attrib $-1 -1 $-1 $170 $119 @18 ASM_EDGE_FROM_STEP @5 23788 #
truecolor-adesk-attrib $-1 -1 $266 $-1 $172 -1056964608 #
ellipse-curve $-1 -1 $-1 125.48540617321274 -325.07582787485501 27.498451409015097 -2.4492935984362399e-16 1 2.2523926344419651e-26 1.8532912754958963 4.5392544573322747e-16 -0.98757857822594675 1 F 0 F 3.1415926535897931 #
truecolor-adesk-attrib $-1 -1 $267 $-1 $173 -1056964608 #
cone-surface $-1 -1 $-1 125.48540617321274 -325.07582787485501 27.498451409015097 -2.4492935984362399e-16 1 2.2523926344419651e-26 1.8532912754958963 4.5392544573322747e-16 -0.98757857822594675 1 I I 0.85716730070211178 0.51503807491005504 2.0999999999999974 forward I I I I #
DXID-attrib $-1 -1 $-1 $178 $126 @18 ASM_EDGE_FROM_STEP @5 37726 #
truecolor-adesk-attrib $-1 -1 $268 $-1 $180 -1056964608 #
ellipse-curve $-1 -1 $-1 125.48540617321274 -313.07582787485501 27.498451409015097 -2.4492935984362399e-16 1 2.2523926344419651e-26 1.853291275495889 4.539254457332256e-16 -0.98757857822594275 1 F 0 F 3.1415926535897931 #
truecolor-adesk-attrib $-1 -1 $269 $-1 $181 -1056964608 #
cone-surface $-1 -1 $-1 125.48540617321274 -313.07582787485501 27.498451409015097 -2.4492935984362399e-16 1 2.2523926344419651e-26 1.8532912754958928 4.5392544573322658e-16 -0.98757857822594486 1 I I 0 1 2.0999999999999934 forward I I I I #
DXID-attrib $-1 -1 $-1 $188 $144 @18 ASM_FACE_FROM_STEP @17 step-2M-555-20663 #
truecolor-adesk-attrib $-1 -1 $270 $-1 $189 -1056964608 #
face $271 -1 $-1 $259 $247 $3 $-1 $272 forward single #
plane-surface $-1 -1 $-1 125.48540617321274 -313.07582787485501 27.498451409015097 2.4492935984362399e-16 -1 -2.2523926344419651e-26 -0.88251965499804697 -2.1615497415868001e-16 0.47027551344092761 forward_v I I I I #
coedge $-1 -1 $-1 $240 $194 $210 $258 forward $152 $-1 #
coedge $-1 -1 $-1 $194 $240 $246 $273 forward $152 $-1 #
edge $274 -1 $-1 $213 0.00030000000000000247 $252 0.053699999999999991 $195 $275 forward @7 unknown #
coedge $-1 -1 $-1 $196 $195 $198 $244 forward $111 $-1 #
coedge $-1 -1 $-1 $237 $236 $196 $241 forward $152 $-1 #
edge $276 -1 $-1 $216 0.00030000000000000247 $249 0.053699999999999991 $196 $277 forward @7 unknown #
truecolor-adesk-attrib $-1 -1 $278 $-1 $197 -1056964608 #
ellipse-curve $-1 -1 $-1 125.48540617321275 -366.775827874855 27.498451409015097 -2.4492935984362399e-16 1 2.2523926344419651e-26 -4.412598274990235 -1.0807748707933999e-15 2.3513775672046382 1 F -3.1415926535897931 F -1.2246467991473532e-16 #
edge $279 -1 $-1 $252 1.2246467991473532e-16 $249 3.1415926535897931 $198 $280 forward @7 unknown #
coedge $-1 -1 $-1 $201 $199 $203 $254 reversed $247 $-1 #
coedge $-1 -1 $-1 $199 $201 $237 $273 reversed $247 $-1 #
loop $-1 -1 $-1 $-1 $199 $234 #
truecolor-adesk-attrib $-1 -1 $281 $-1 $200 -1056964608 #
vertex $-1 -1 $-1 $200 $282 #
straight-curve $-1 -1 $-1 129.89800444820298 -313.37582787485502 25.147073841810457 624.03563257953454 -707.10678118654448 -332.53500458006692 F -0.00042426406871195235 F -5.3024515623553341e-35 #
truecolor-adesk-attrib $-1 -1 $283 $-1 $202 -1056964608 #
vertex $-1 -1 $-1 $244 $284 #
straight-curve $-1 -1 $-1 121.07280789822249 -313.37582787485502 29.849828976219733 -624.03563257953408 -707.10678118654471 332.53500458006687 F -0.00042426406871195235 F 0 #
edge $285 -1 $-1 $207 0 $206 3.1415926535897931 $203 $286 forward @7 unknown #
DXID-attrib $-1 -1 $-1 $205 $158 @18 ASM_EDGE_FROM_STEP @4 1810 #
point $-1 -1 $-1 129.63324855170353 -313.07582787485501 25.288156495842745 #
point $-1 -1 $-1 121.33756379472193 -313.07582787485501 29.708746322187448 #
edge $287 -1 $-1 $213 -1.2246467991473532e-16 $216 3.1415926535897931 $236 $288 forward @7 unknown #
face $289 -1 $-1 $173 $211 $3 $-1 $290 forward single #
DXID-attrib $-1 -1 $-1 $212 $161 @18 ASM_EDGE_FROM_STEP @5 13874 #
point $-1 -1 $-1 121.07280789822251 -366.775827874855 29.849828976219733 #
DXID-attrib $-1 -1 $-1 $215 $163 @18 ASM_EDGE_FROM_STEP @4 3810 #
point $-1 -1 $-1 129.89800444820298 -366.775827874855 25.14707384181046 #
truecolor-adesk-attrib $-1 -1 $291 $-1 $218 -1056964608 #
ellipse-curve $-1 -1 $-1 125.48540617321275 -367.07582787485501 27.498451409015097 2.4492935984362399e-16 -1 -2.2523926344419651e-26 -4.1478423784908234 -1.0159283785457967e-15 2.210294913172361 1 F -3.1415926535897931 F 1.2637312714605658e-16 #
DXID-attrib $-1 -1 $-1 $223 $172 @18 ASM_EDGE_FROM_STEP @4 6595 #
DXID-attrib $-1 -1 $-1 $225 $173 @18 ASM_FACE_FROM_STEP @17 step-2M-555-34503 #
DXID-attrib $-1 -1 $-1 $228 $180 @18 ASM_EDGE_FROM_STEP @5 12585 #
DXID-attrib $-1 -1 $-1 $230 $181 @18 ASM_FACE_FROM_STEP @16 step-2M-555-1895 #
DXID-attrib $-1 -1 $-1 $233 $189 @18 ASM_FACE_FROM_STEP @17 step-2M-555-29938 #
truecolor-adesk-attrib $-1 -1 $292 $-1 $234 -1056964608 #
cone-surface $-1 -1 $-1 125.48540617321274 -313.37582787485502 27.498451409015097 2.4492935984362399e-16 -1 -2.2523926344419651e-26 -4.412598274990235 -1.0807748707933999e-15 2.3513775672046382 1 I I 0.70710678118655068 0.70710678118654435 5 forward I I I I #
edge $293 -1 $-1 $249 -3.1415926535897931 $252 1.2246467991473532e-16 $237 $294 forward @7 unknown #
truecolor-adesk-attrib $-1 -1 $295 $-1 $238 -1056964608 #
straight-curve $-1 -1 $-1 121.07280789822251 -367.07582787485501 29.849828976219733 -2.44929359843624e-13 1000 2.2523926344419651e-23 F 0.00030000000000000247 F 0.053699999999999991 #
truecolor-adesk-attrib $-1 -1 $296 $-1 $241 -1056964608 #
straight-curve $-1 -1 $-1 129.89800444820298 -367.07582787485501 25.14707384181046 -2.44929359843624e-13 1000 2.2523926344419651e-23 F 0.00030000000000000247 F 0.053699999999999991 #
DXID-attrib $-1 -1 $-1 $242 $197 @18 ASM_EDGE_FROM_STEP @4 5842 #
truecolor-adesk-attrib $-1 -1 $297 $-1 $244 -1056964608 #
ellipse-curve $-1 -1 $-1 125.48540617321274 -313.37582787485502 27.498451409015097 2.4492935984362399e-16 -1 -2.2523926344419651e-26 -4.412598274990235 -1.0807748707933999e-15 2.3513775672046382 1 F 1.2246467991473532e-16 F 3.1415926535897931 #
DXID-attrib $-1 -1 $-1 $248 $200 @18 ASM_EDGE_FROM_STEP @5 38477 #
point $-1 -1 $-1 129.89800444820298 -313.37582787485502 25.14707384181046 #
DXID-attrib $-1 -1 $-1 $251 $202 @18 ASM_EDGE_FROM_STEP @5 34498 #
point $-1 -1 $-1 121.07280789822249 -313.37582787485502 29.849828976219733 #
truecolor-adesk-attrib $-1 -1 $298 $-1 $254 -1056964608 #
ellipse-curve $-1 -1 $-1 125.48540617321274 -313.07582787485501 27.498451409015097 -2.4492935984362399e-16 1 2.2523926344419651e-26 -4.1478423784908047 -1.0159283785457921e-15 2.2102949131723513 1 F 0 F 3.1415926535897931 #
truecolor-adesk-attrib $-1 -1 $299 $-1 $258 -1056964608 #
ellipse-curve $-1 -1 $-1 125.48540617321275 -366.775827874855 27.498451409015097 -2.4492935984362399e-16 1 2.2523926344419651e-26 -4.412598274990235 -1.0807748707933999e-15 2.3513775672046382 1 F -1.2246467991473532e-16 F 3.1415926535897931 #
truecolor-adesk-attrib $-1 -1 $300 $-1 $259 -1056964608 #
cone-surface $-1 -1 $-1 125.48540617321275 -367.07582787485501 27.498451409015097 -2.4492935984362399e-16 1 2.2523926344419651e-26 4.1478423784908234 1.0159283785457967e-15 -2.210294913172361 1 I I 0.70710678118653836 0.70710678118655679 4.7000000000000028 forward I I I I #
DXID-attrib $-1 -1 $-1 $264 $218 @18 ASM_EDGE_FROM_STEP @5 14616 #
DXID-attrib $-1 -1 $-1 $271 $234 @18 ASM_FACE_FROM_STEP @17 step-2M-555-21648 #
truecolor-adesk-attrib $-1 -1 $301 $-1 $273 -1056964608 #
ellipse-curve $-1 -1 $-1 125.48540617321274 -313.37582787485502 27.498451409015097 2.4492935984362399e-16 -1 -2.2523926344419651e-26 -4.412598274990235 -1.0807748707933999e-15 2.3513775672046382 1 F -3.1415926535897931 F 1.2246467991473532e-16 #
DXID-attrib $-1 -1 $-1 $274 $238 @18 ASM_EDGE_FROM_STEP @5 30554 #
DXID-attrib $-1 -1 $-1 $276 $241 @18 ASM_EDGE_FROM_STEP @5 28554 #
DXID-attrib $-1 -1 $-1 $279 $244 @18 ASM_EDGE_FROM_STEP @5 36468 #
DXID-attrib $-1 -1 $-1 $285 $254 @18 ASM_EDGE_FROM_STEP @4 8573 #
DXID-attrib $-1 -1 $-1 $287 $258 @18 ASM_EDGE_FROM_STEP @5 24547 #
DXID-attrib $-1 -1 $-1 $289 $259 @18 ASM_FACE_FROM_STEP @17 step-2M-555-10267 #
DXID-attrib $-1 -1 $-1 $293 $273 @18 ASM_EDGE_FROM_STEP @5 22558 #
