700 639 1 0         
5 ZWCAD 12 ACIS 28.0 NT 24 Mon May 13 13:55:15 2024 
1 9.9999999999999995e-07 1e-10 
body $1 -1 $-1 $2 $-1 $-1 #
DXID-attrib $-1 -1 $-1 $-1 $0 @18 ASM_BODY_FROM_STEP @83 F9119782C284BF3BB44F6483D5067AB76363F6B4|:|CB3F4465172827E081BA929996141FA75C981A59 #
lump $-1 -1 $-1 $-1 $3 $0 #
shell $-1 -1 $-1 $-1 $-1 $4 $-1 $2 #
face $5 -1 $-1 $6 $7 $3 $-1 $8 forward single #
truecolor-adesk-attrib $-1 -1 $9 $-1 $4 -1056964608 #
face $10 -1 $-1 $11 $12 $3 $-1 $13 forward single #
loop $-1 -1 $-1 $-1 $14 $4 #
cone-surface $-1 -1 $-1 166.35980473782408 -46.100999999999992 31.342250312995475 0 -1 0 5.8419999999999987 0 0 1 I I 0 1 5.8419999999999996 forward I I I I #
DXID-attrib $-1 -1 $-1 $5 $4 @18 ASM_FACE_FROM_STEP @16 step-3M-824-5718 #
truecolor-adesk-attrib $-1 -1 $15 $-1 $6 -1056964608 #
face $16 -1 $-1 $17 $18 $3 $-1 $19 reversed single #
loop $-1 -1 $-1 $-1 $20 $6 #
cone-surface $-1 -1 $-1 166.35980473782408 -46.100999999999992 31.342250312995475 0 -1 0 5.8419999999999987 0 0 1 I I 0 1 5.8419999999999996 forward I I I I #
coedge $-1 -1 $-1 $21 $22 $23 $24 forward $7 $-1 #
DXID-attrib $-1 -1 $-1 $10 $6 @18 ASM_FACE_FROM_STEP @17 step-3M-824-37488 #
truecolor-adesk-attrib $-1 -1 $25 $-1 $11 -1056964608 #
face $26 -1 $-1 $27 $28 $3 $-1 $29 reversed single #
loop $-1 -1 $-1 $-1 $30 $11 #
cone-surface $-1 -1 $-1 160.45087809756282 -46.100999999999992 29.843650312995475 0 -1 0 0.25399999999999989 0 0 1 I I 0 1 0.25399999999999989 forward I I I I #
coedge $-1 -1 $-1 $31 $32 $33 $34 forward $12 $-1 #
coedge $-1 -1 $-1 $35 $14 $36 $37 forward $7 $-1 #
coedge $-1 -1 $-1 $14 $35 $31 $38 reversed $7 $-1 #
coedge $-1 -1 $-1 $33 $39 $14 $24 reversed $40 $-1 #
edge $41 -1 $-1 $42 0 $43 3.1415926535897931 $14 $44 forward @7 unknown #
DXID-attrib $-1 -1 $-1 $16 $11 @18 ASM_FACE_FROM_STEP @17 step-3M-824-33037 #
truecolor-adesk-attrib $-1 -1 $45 $-1 $17 -1056964608 #
face $46 -1 $-1 $47 $48 $3 $-1 $49 reversed single #
loop $-1 -1 $-1 $-1 $50 $17 #
cone-surface $-1 -1 $-1 166.35980473782408 -46.100999999999992 31.342250312995475 0 -1 0 3.8099999999999996 0 0 1 I I 0 1 3.8099999999999996 forward I I I I #
coedge $-1 -1 $-1 $51 $52 $53 $54 forward $18 $-1 #
coedge $-1 -1 $-1 $55 $20 $22 $38 forward $12 $-1 #
coedge $-1 -1 $-1 $20 $55 $56 $57 forward $12 $-1 #
coedge $-1 -1 $-1 $58 $23 $20 $34 reversed $40 $-1 #
edge $59 -1 $-1 $60 -1.5707963267948968 $42 0 $20 $61 forward @7 unknown #
coedge $-1 -1 $-1 $22 $21 $62 $63 forward $7 $-1 #
coedge $-1 -1 $-1 $64 $65 $21 $37 reversed $66 $-1 #
edge $67 -1 $-1 $43 0 $68 0.012699999999999999 $21 $69 forward @7 unknown #
edge $70 -1 $-1 $42 0 $71 0.012699999999999999 $22 $72 forward @7 unknown #
coedge $-1 -1 $-1 $23 $53 $64 $73 reversed $40 $-1 #
loop $-1 -1 $-1 $-1 $74 $75 #
truecolor-adesk-attrib $-1 -1 $76 $-1 $24 -1056964608 #
vertex $-1 -1 $-1 $24 $77 #
vertex $-1 -1 $-1 $24 $78 #
ellipse-curve $-1 -1 $-1 166.35980473782408 -46.100999999999992 31.342250312995475 0 -1 0 5.8419999999999987 0 0 1 F 0 F 3.1415926535897931 #
DXID-attrib $-1 -1 $-1 $26 $17 @18 ASM_FACE_FROM_STEP @17 step-3M-824-35025 #
truecolor-adesk-attrib $-1 -1 $79 $-1 $27 -1056964608 #
face $80 -1 $-1 $81 $82 $3 $-1 $83 forward single #
loop $-1 -1 $-1 $-1 $84 $27 #
cone-surface $-1 -1 $-1 166.35980473782408 -46.100999999999992 31.342250312995475 0 -1 0 3.8099999999999996 0 0 1 I I 0 1 3.8099999999999996 forward I I I I #
coedge $-1 -1 $-1 $85 $86 $74 $87 forward $28 $-1 #
coedge $-1 -1 $-1 $88 $30 $89 $90 forward $18 $-1 #
coedge $-1 -1 $-1 $30 $88 $91 $92 reversed $18 $-1 #
coedge $-1 -1 $-1 $39 $93 $30 $54 reversed $40 $-1 #
edge $94 -1 $-1 $95 -0.24837931514225808 $96 2.5611074940602481e-15 $30 $97 forward @7 unknown #
coedge $-1 -1 $-1 $32 $31 $98 $99 forward $12 $-1 #
coedge $-1 -1 $-1 $100 $101 $32 $57 reversed $102 $-1 #
edge $103 -1 $-1 $104 -0.012699999999999999 $60 0 $32 $105 forward @7 unknown #
coedge $-1 -1 $-1 $106 $33 $101 $107 reversed $40 $-1 #
truecolor-adesk-attrib $-1 -1 $108 $-1 $34 -1056964608 #
vertex $-1 -1 $-1 $34 $109 #
ellipse-curve $-1 -1 $-1 166.35980473782408 -46.100999999999992 31.342250312995475 0 -1 0 5.8419999999999987 0 0 1 F -1.5707963267948968 F 0 #
coedge $-1 -1 $-1 $110 $98 $35 $63 reversed $111 $-1 #
edge $112 -1 $-1 $68 -3.1415926535897931 $71 0 $35 $113 forward @7 unknown #
coedge $-1 -1 $-1 $91 $36 $39 $73 forward $66 $-1 #
coedge $-1 -1 $-1 $36 $91 $110 $114 forward $66 $-1 #
loop $-1 -1 $-1 $-1 $36 $115 #
truecolor-adesk-attrib $-1 -1 $116 $-1 $37 -1056964608 #
vertex $-1 -1 $-1 $37 $117 #
straight-curve $-1 -1 $-1 160.51780473782406 -46.100999999999992 31.342250312995475 0 -999.99999999999989 0 F 0 F 0.012699999999999999 #
truecolor-adesk-attrib $-1 -1 $118 $-1 $38 -1056964608 #
vertex $-1 -1 $-1 $63 $119 #
straight-curve $-1 -1 $-1 172.20180473782409 -46.100999999999992 31.342250312995475 0 -999.99999999999989 0 F 0 F 0.012699999999999999 #
edge $120 -1 $-1 $43 -3.1415926535897931 $95 -2.8932133384478482 $64 $121 forward @7 unknown #
coedge $-1 -1 $-1 $122 $123 $50 $87 reversed $40 $-1 #
face $124 -1 $-1 $125 $40 $3 $-1 $126 reversed single #
DXID-attrib $-1 -1 $-1 $41 $24 @18 ASM_EDGE_FROM_STEP @5 27525 #
point $-1 -1 $-1 172.20180473782409 -46.100999999999992 31.342250312995475 #
point $-1 -1 $-1 160.51780473782406 -46.100999999999992 31.342250312995475 #
DXID-attrib $-1 -1 $-1 $46 $27 @18 ASM_FACE_FROM_STEP @16 step-3M-824-9043 #
truecolor-adesk-attrib $-1 -1 $127 $-1 $47 -1056964608 #
face $128 -1 $-1 $129 $130 $3 $-1 $131 forward single #
loop $-1 -1 $-1 $-1 $132 $47 #
cone-surface $-1 -1 $-1 160.45087809756282 -46.100999999999992 29.843650312995475 0 -1 0 2.2859999999999996 0 0 1 I I 0 1 2.286 forward I I I I #
coedge $-1 -1 $-1 $133 $134 $85 $135 reversed $48 $-1 #
coedge $-1 -1 $-1 $136 $50 $84 $135 forward $28 $-1 #
coedge $-1 -1 $-1 $50 $136 $137 $138 reversed $28 $-1 #
edge $139 -1 $-1 $140 2.8932133384478713 $141 3.1415926535897984 $50 $142 forward @7 unknown #
coedge $-1 -1 $-1 $52 $51 $143 $144 reversed $18 $-1 #
coedge $-1 -1 $-1 $145 $146 $51 $90 reversed $147 $-1 #
edge $148 -1 $-1 $96 0 $149 0.012699999999999999 $51 $150 forward @7 unknown #
coedge $-1 -1 $-1 $65 $64 $52 $92 forward $66 $-1 #
edge $151 -1 $-1 $95 0 $152 0.012699999999999999 $52 $153 forward @7 unknown #
coedge $-1 -1 $-1 $53 $154 $145 $155 reversed $40 $-1 #
truecolor-adesk-attrib $-1 -1 $156 $-1 $54 -1056964608 #
vertex $-1 -1 $-1 $54 $157 #
vertex $-1 -1 $-1 $54 $158 #
ellipse-curve $-1 -1 $-1 160.45087809756282 -46.100999999999992 29.843650312995475 0 1 0 0.25399999999999989 0 6.5052130349130246e-16 1 F -0.24837931514225808 F 2.5611074940602481e-15 #
coedge $-1 -1 $-1 $62 $159 $55 $99 reversed $111 $-1 #
edge $160 -1 $-1 $71 0 $104 1.5707963267948968 $55 $161 forward @7 unknown #
coedge $-1 -1 $-1 $162 $56 $159 $163 forward $102 $-1 #
coedge $-1 -1 $-1 $56 $162 $58 $107 forward $102 $-1 #
loop $-1 -1 $-1 $164 $100 $125 #
truecolor-adesk-attrib $-1 -1 $165 $-1 $57 -1056964608 #
vertex $-1 -1 $-1 $99 $166 #
straight-curve $-1 -1 $-1 166.35980473782408 -46.100999999999992 25.500250312995476 0 999.99999999999989 0 F -0.012699999999999999 F 0 #
coedge $-1 -1 $-1 $167 $58 $168 $169 reversed $40 $-1 #
edge $170 -1 $-1 $171 -0.016763999999999918 $60 -5.365789950464128e-19 $58 $172 forward @7 unknown #
DXID-attrib $-1 -1 $-1 $59 $34 @18 ASM_EDGE_FROM_STEP @5 37921 #
point $-1 -1 $-1 166.35980473782408 -46.100999999999992 25.500250312995476 #
coedge $-1 -1 $-1 $143 $62 $65 $114 reversed $111 $-1 #
loop $-1 -1 $-1 $-1 $173 $174 #
truecolor-adesk-attrib $-1 -1 $175 $-1 $63 -1056964608 #
ellipse-curve $-1 -1 $-1 166.35980473782408 -58.800999999999995 31.342250312995475 0 1 0 5.8419999999999987 0 0 1 F -3.1415926535897931 F 0 #
edge $176 -1 $-1 $152 2.8932133384478536 $68 3.1415926535897984 $65 $177 forward @7 unknown #
face $178 -1 $-1 $75 $66 $3 $-1 $179 forward single #
DXID-attrib $-1 -1 $-1 $67 $37 @18 ASM_EDGE_FROM_STEP @5 32998 #
point $-1 -1 $-1 160.51780473782406 -58.800999999999995 31.342250312995475 #
DXID-attrib $-1 -1 $-1 $70 $38 @18 ASM_EDGE_FROM_STEP @5 34828 #
point $-1 -1 $-1 172.20180473782409 -58.800999999999995 31.342250312995475 #
truecolor-adesk-attrib $-1 -1 $180 $-1 $73 -1056964608 #
ellipse-curve $-1 -1 $-1 166.35980473782408 -46.100999999999992 31.342250312995475 0 -1 0 5.8419999999999987 0 0 1 F -3.1415926535897931 F -2.8932133384478482 #
coedge $-1 -1 $-1 $181 $74 $182 $183 reversed $40 $-1 #
coedge $-1 -1 $-1 $74 $184 $133 $185 reversed $40 $-1 #
truecolor-adesk-attrib $-1 -1 $186 $-1 $75 -1056964608 #
face $187 -1 $-1 $174 $102 $3 $-1 $188 forward single #
plane-surface $-1 -1 $-1 166.35980473782408 -46.100999999999992 31.342250312995475 0 -1 0 25.399999999999995 0 0 forward_v I I I I #
DXID-attrib $-1 -1 $-1 $80 $47 @18 ASM_FACE_FROM_STEP @16 step-3M-824-1179 #
truecolor-adesk-attrib $-1 -1 $189 $-1 $81 -1056964608 #
face $190 -1 $-1 $191 $192 $3 $-1 $193 reversed single #
loop $-1 -1 $-1 $-1 $194 $81 #
cone-surface $-1 -1 $-1 156.51024918226796 -52.450999999999993 29.589650312995474 0 0 1 -9.9624444444438787 0 0 1 I I 0 1 9.9624444444438787 forward I I I I #
coedge $-1 -1 $-1 $195 $196 $181 $197 forward $82 $-1 #
coedge $-1 -1 $-1 $198 $84 $123 $185 forward $48 $-1 #
coedge $-1 -1 $-1 $84 $198 $199 $200 reversed $48 $-1 #
edge $201 -1 $-1 $141 0 $202 0.012699999999999999 $85 $203 forward @7 unknown #
coedge $-1 -1 $-1 $86 $85 $204 $205 reversed $28 $-1 #
coedge $-1 -1 $-1 $206 $182 $86 $138 forward $207 $-1 #
edge $208 -1 $-1 $140 0 $209 0.012699999999999999 $86 $210 forward @7 unknown #
truecolor-adesk-attrib $-1 -1 $211 $-1 $87 -1056964608 #
vertex $-1 -1 $-1 $87 $212 #
vertex $-1 -1 $-1 $87 $213 #
ellipse-curve $-1 -1 $-1 166.35980473782408 -46.100999999999992 31.342250312995475 0 1 0 3.8099999999999996 0 2.0303758674344859e-14 1 F 2.8932133384478713 F 3.1415926535897984 #
coedge $-1 -1 $-1 $214 $110 $88 $144 forward $111 $-1 #
edge $215 -1 $-1 $152 -0.24837931514225808 $149 2.5611074940602481e-15 $88 $216 forward @7 unknown #
coedge $-1 -1 $-1 $217 $89 $93 $155 forward $147 $-1 #
coedge $-1 -1 $-1 $89 $217 $214 $218 reversed $147 $-1 #
loop $-1 -1 $-1 $-1 $89 $219 #
truecolor-adesk-attrib $-1 -1 $220 $-1 $90 -1056964608 #
vertex $-1 -1 $-1 $90 $221 #
straight-curve $-1 -1 $-1 160.70487809756281 -46.100999999999992 29.843650312995475 0 -999.99999999999989 0 F 0 F 0.012699999999999999 #
truecolor-adesk-attrib $-1 -1 $222 $-1 $92 -1056964608 #
vertex $-1 -1 $-1 $144 $223 #
straight-curve $-1 -1 $-1 160.69708337423953 -46.100999999999992 29.906091979662083 0 -999.99999999999989 0 F 0 F 0.012699999999999999 #
coedge $-1 -1 $-1 $93 $224 $225 $226 reversed $40 $-1 #
edge $227 -1 $-1 $96 0 $228 1.5707963267948966 $93 $229 forward @7 unknown #
DXID-attrib $-1 -1 $-1 $94 $54 @18 ASM_EDGE_FROM_STEP @5 35050 #
point $-1 -1 $-1 160.69708337423995 -46.100999999999992 29.906091979662115 #
point $-1 -1 $-1 160.70487809756281 -46.100999999999992 29.843650312995475 #
coedge $-1 -1 $-1 $98 $230 $100 $163 reversed $111 $-1 #
truecolor-adesk-attrib $-1 -1 $231 $-1 $99 -1056964608 #
ellipse-curve $-1 -1 $-1 166.35980473782408 -58.800999999999995 31.342250312995475 0 1 0 5.8419999999999987 0 0 1 F 0 F 1.5707963267948968 #
coedge $-1 -1 $-1 $101 $100 $232 $233 forward $102 $-1 #
edge $234 -1 $-1 $104 -0.019049999999999997 $235 -0.0022860000000000792 $100 $236 forward @7 unknown #
loop $-1 -1 $-1 $-1 $237 $125 #
DXID-attrib $-1 -1 $-1 $103 $57 @18 ASM_EDGE_FROM_STEP @5 16021 #
point $-1 -1 $-1 166.35980473782408 -58.800999999999995 25.500250312995476 #
coedge $-1 -1 $-1 $184 $106 $238 $239 reversed $40 $-1 #
coedge $-1 -1 $-1 $232 $240 $106 $169 forward $241 $-1 #
edge $242 -1 $-1 $243 0.00381 $171 0.0058420000000000008 $106 $244 forward @7 unknown #
truecolor-adesk-attrib $-1 -1 $245 $-1 $107 -1056964608 #
vertex $-1 -1 $-1 $107 $246 #
straight-curve $-1 -1 $-1 166.35980473782408 -46.100999999999992 25.500250312995476 999.99999999999989 0 0 F -0.016763999999999918 F -5.365789950464128e-19 #
coedge $-1 -1 $-1 $230 $247 $248 $249 forward $111 $-1 #
face $250 -1 $-1 $219 $111 $3 $-1 $251 forward single #
DXID-attrib $-1 -1 $-1 $112 $63 @18 ASM_EDGE_FROM_STEP @5 13287 #
truecolor-adesk-attrib $-1 -1 $252 $-1 $114 -1056964608 #
ellipse-curve $-1 -1 $-1 166.35980473782408 -58.800999999999995 31.342250312995475 0 1 0 5.8419999999999987 0 3.1132429967328789e-14 1 F 2.8932133384478536 F 3.1415926535897984 #
truecolor-adesk-attrib $-1 -1 $253 $-1 $115 -1056964608 #
cone-surface $-1 -1 $-1 166.35980473782408 -46.100999999999992 31.342250312995475 0 -1 0 5.8419999999999987 0 0 1 I I 0 1 5.8419999999999996 forward I I I I #
DXID-attrib $-1 -1 $-1 $120 $73 @18 ASM_EDGE_FROM_STEP @5 16296 #
coedge $-1 -1 $-1 $254 $122 $132 $197 reversed $40 $-1 #
coedge $-1 -1 $-1 $137 $255 $122 $183 forward $207 $-1 #
edge $256 -1 $-1 $257 0 $140 0.24837931514200959 $122 $258 forward @7 unknown #
coedge $-1 -1 $-1 $123 $167 $259 $260 reversed $40 $-1 #
edge $261 -1 $-1 $141 -3.1415926535897931 $262 0 $133 $263 forward @7 unknown #
DXID-attrib $-1 -1 $-1 $124 $75 @18 ASM_FACE_FROM_STEP @17 step-3M-824-36988 #
truecolor-adesk-attrib $-1 -1 $264 $-1 $125 -1056964608 #
plane-surface $-1 -1 $-1 147.30980473782409 -46.100999999999992 25.500250312995476 0 0 -1 25.399999999999995 0 0 forward_v I I I I #
DXID-attrib $-1 -1 $-1 $128 $81 @18 ASM_FACE_FROM_STEP @16 step-3M-824-4282 #
truecolor-adesk-attrib $-1 -1 $265 $-1 $129 -1056964608 #
face $266 -1 $-1 $115 $267 $3 $-1 $268 reversed single #
loop $-1 -1 $-1 $-1 $269 $129 #
cone-surface $-1 -1 $-1 152.13580473782409 -52.450999999999993 29.589650312995474 0 0 1 -2.4129999999999985 0 0 1 I I 0 1 2.4129999999999985 forward I I I I #
coedge $-1 -1 $-1 $270 $271 $272 $273 reversed $130 $-1 #
coedge $-1 -1 $-1 $274 $132 $255 $275 forward $82 $-1 #
coedge $-1 -1 $-1 $132 $274 $276 $277 forward $82 $-1 #
edge $278 -1 $-1 $279 -1.5707963267948966 $257 0 $132 $280 forward @7 unknown #
coedge $-1 -1 $-1 $134 $133 $281 $282 forward $48 $-1 #
coedge $-1 -1 $-1 $247 $204 $134 $200 forward $111 $-1 #
edge $283 -1 $-1 $202 -3.1415926535897931 $284 0 $134 $285 forward @7 unknown #
truecolor-adesk-attrib $-1 -1 $286 $-1 $135 -1056964608 #
vertex $-1 -1 $-1 $135 $287 #
straight-curve $-1 -1 $-1 162.54980473782408 -46.100999999999992 31.342250312995475 0 -999.99999999999989 0 F 0 F 0.012699999999999999 #
coedge $-1 -1 $-1 $199 $288 $136 $205 forward $111 $-1 #
edge $289 -1 $-1 $209 2.8932133384478713 $202 3.1415926535897984 $136 $290 forward @7 unknown #
coedge $-1 -1 $-1 $255 $137 $288 $291 reversed $207 $-1 #
loop $-1 -1 $-1 $-1 $255 $292 #
truecolor-adesk-attrib $-1 -1 $293 $-1 $138 -1056964608 #
vertex $-1 -1 $-1 $205 $294 #
straight-curve $-1 -1 $-1 162.66672558766021 -46.100999999999992 30.405625312995568 0 -999.99999999999989 0 F 0 F 0.012699999999999999 #
DXID-attrib $-1 -1 $-1 $139 $87 @18 ASM_EDGE_FROM_STEP @5 14978 #
point $-1 -1 $-1 162.66672558766066 -46.100999999999992 30.405625312995561 #
point $-1 -1 $-1 162.54980473782408 -46.100999999999992 31.342250312995475 #
coedge $-1 -1 $-1 $295 $143 $146 $218 forward $111 $-1 #
truecolor-adesk-attrib $-1 -1 $296 $-1 $144 -1056964608 #
ellipse-curve $-1 -1 $-1 160.45087809756282 -58.800999999999995 29.843650312995475 0 1 0 0.25399999999999989 0 6.5052130349130246e-16 1 F -0.24837931514225808 F 2.5611074940602481e-15 #
coedge $-1 -1 $-1 $146 $145 $297 $298 reversed $147 $-1 #
edge $299 -1 $-1 $149 0 $300 1.5707963267948966 $214 $301 forward @7 unknown #
face $302 -1 $-1 $303 $147 $3 $-1 $304 reversed single #
DXID-attrib $-1 -1 $-1 $148 $90 @18 ASM_EDGE_FROM_STEP @5 15118 #
point $-1 -1 $-1 160.70487809756281 -58.800999999999995 29.843650312995475 #
DXID-attrib $-1 -1 $-1 $151 $92 @18 ASM_EDGE_FROM_STEP @5 32111 #
point $-1 -1 $-1 160.69708337423995 -58.800999999999995 29.906091979662115 #
coedge $-1 -1 $-1 $154 $254 $271 $305 reversed $40 $-1 #
coedge $-1 -1 $-1 $306 $297 $154 $226 forward $307 $-1 #
edge $308 -1 $-1 $228 0.0059089266402612591 $309 0.017525999999999917 $154 $310 forward @7 unknown #
truecolor-adesk-attrib $-1 -1 $311 $-1 $155 -1056964608 #
vertex $-1 -1 $-1 $226 $312 #
ellipse-curve $-1 -1 $-1 160.45087809756282 -46.100999999999992 29.843650312995475 0 1 0 0.25399999999999989 0 0 1 F 0 F 1.5707963267948966 #
coedge $-1 -1 $-1 $159 $173 $313 $314 forward $111 $-1 #
DXID-attrib $-1 -1 $-1 $160 $99 @18 ASM_EDGE_FROM_STEP @5 18231 #
coedge $-1 -1 $-1 $313 $168 $162 $233 reversed $241 $-1 #
edge $315 -1 $-1 $235 2.4504814924263276 $171 3.8327038147532586 $162 $316 forward @7 unknown #
truecolor-adesk-attrib $-1 -1 $317 $-1 $163 -1056964608 #
vertex $-1 -1 $-1 $163 $318 #
straight-curve $-1 -1 $-1 147.30980473782409 -58.800999999999995 25.500250312995476 -999.99999999999989 0 0 F -0.019049999999999997 F -0.0022860000000000792 #
coedge $-1 -1 $-1 $319 $320 $321 $322 forward $164 $-1 #
coedge $-1 -1 $-1 $323 $324 $167 $239 forward $325 $-1 #
edge $326 -1 $-1 $327 0 $243 0.016763999999999918 $167 $328 forward @7 unknown #
coedge $-1 -1 $-1 $168 $313 $323 $329 reversed $241 $-1 #
loop $-1 -1 $-1 $-1 $313 $330 #
truecolor-adesk-attrib $-1 -1 $331 $-1 $169 -1056964608 #
vertex $-1 -1 $-1 $169 $332 #
straight-curve $-1 -1 $-1 149.5958047378241 -46.100999999999992 31.342250312995475 0 0 -999.99999999999989 F 0.00381 F 0.0058420000000000008 #
DXID-attrib $-1 -1 $-1 $170 $107 @18 ASM_EDGE_FROM_STEP @5 31753 #
point $-1 -1 $-1 149.59580473782415 -46.100999999999992 25.500250312995476 #
coedge $-1 -1 $-1 $173 $199 $333 $334 forward $111 $-1 #
coedge $-1 -1 $-1 $324 $323 $173 $249 reversed $325 $-1 #
edge $335 -1 $-1 $336 0 $337 0.016763999999999918 $173 $338 forward @7 unknown #
truecolor-adesk-attrib $-1 -1 $339 $-1 $174 -1056964608 #
plane-surface $-1 -1 $-1 166.35980473782408 -58.800999999999995 31.342250312995475 0 -1 0 25.399999999999995 0 0 forward_v I I I I #
DXID-attrib $-1 -1 $-1 $176 $114 @18 ASM_EDGE_FROM_STEP @5 19399 #
DXID-attrib $-1 -1 $-1 $178 $115 @18 ASM_FACE_FROM_STEP @17 step-3M-824-11869 #
coedge $-1 -1 $-1 $224 $181 $340 $341 reversed $40 $-1 #
coedge $-1 -1 $-1 $182 $206 $195 $275 reversed $207 $-1 #
truecolor-adesk-attrib $-1 -1 $342 $-1 $183 -1056964608 #
vertex $-1 -1 $-1 $197 $343 #
ellipse-curve $-1 -1 $-1 160.45087809756282 -46.100999999999992 29.843650312995475 0 -1 0 2.2859999999999996 0 0 1 F 0 F 0.24837931514200959 #
coedge $-1 -1 $-1 $344 $281 $184 $260 forward $345 $-1 #
edge $346 -1 $-1 $262 0 $327 1.5707963267948966 $184 $347 forward @7 unknown #
truecolor-adesk-attrib $-1 -1 $348 $-1 $185 -1056964608 #
vertex $-1 -1 $-1 $185 $349 #
ellipse-curve $-1 -1 $-1 166.35980473782408 -46.100999999999992 31.342250312995475 0 1 0 3.8099999999999996 0 0 1 F -3.1415926535897931 F 0 #
DXID-attrib $-1 -1 $-1 $187 $125 @18 ASM_FACE_FROM_STEP @16 step-3M-824-8111 #
DXID-attrib $-1 -1 $-1 $190 $129 @18 ASM_FACE_FROM_STEP @17 step-3M-824-19656 #
truecolor-adesk-attrib $-1 -1 $350 $-1 $191 -1056964608 #
loop $-1 -1 $-1 $-1 $351 $191 #
cone-surface $-1 -1 $-1 152.13580473782409 -52.450999999999993 29.589650312995474 0 0 1 -2.4129999999999985 0 0 1 I I 0 1 2.4129999999999985 forward I I I I #
coedge $-1 -1 $-1 $352 $353 $319 $354 reversed $192 $-1 #
coedge $-1 -1 $-1 $355 $194 $356 $357 forward $130 $-1 #
coedge $-1 -1 $-1 $194 $355 $224 $305 forward $130 $-1 #
coedge $-1 -1 $-1 $340 $358 $194 $273 forward $359 $-1 #
edge $360 -1 $-1 $361 0 $362 0.69111116116346571 $194 $363 forward @7 unknown #
coedge $-1 -1 $-1 $196 $195 $364 $365 reversed $82 $-1 #
edge $366 -1 $-1 $257 0 $367 0.012699999999999999 $195 $368 forward @7 unknown #
coedge $-1 -1 $-1 $369 $340 $196 $277 reversed $359 $-1 #
edge $370 -1 $-1 $371 -0.012699999999999999 $279 0 $196 $372 forward @7 unknown #
truecolor-adesk-attrib $-1 -1 $373 $-1 $197 -1056964608 #
vertex $-1 -1 $-1 $197 $374 #
ellipse-curve $-1 -1 $-1 160.45087809756282 -46.100999999999992 29.843650312995475 0 -1 0 2.2859999999999996 0 0 1 F -1.5707963267948966 F 0 #
coedge $-1 -1 $-1 $259 $333 $198 $282 reversed $345 $-1 #
edge $375 -1 $-1 $262 0 $284 0.012699999999999999 $198 $376 forward @7 unknown #
truecolor-adesk-attrib $-1 -1 $377 $-1 $200 -1056964608 #
vertex $-1 -1 $-1 $282 $378 #
ellipse-curve $-1 -1 $-1 166.35980473782408 -58.800999999999995 31.342250312995475 0 1 0 3.8099999999999996 0 0 1 F -3.1415926535897931 F 0 #
DXID-attrib $-1 -1 $-1 $201 $135 @18 ASM_EDGE_FROM_STEP @4 2537 #
point $-1 -1 $-1 162.54980473782408 -58.800999999999995 31.342250312995475 #
coedge $-1 -1 $-1 $204 $364 $206 $291 forward $111 $-1 #
truecolor-adesk-attrib $-1 -1 $379 $-1 $205 -1056964608 #
ellipse-curve $-1 -1 $-1 166.35980473782408 -58.800999999999995 31.342250312995475 0 1 0 3.8099999999999996 0 2.0303758674344859e-14 1 F 2.8932133384478713 F 3.1415926535897984 #
edge $380 -1 $-1 $367 0 $209 0.24837931514200964 $288 $381 forward @7 unknown #
face $382 -1 $-1 $383 $207 $3 $-1 $384 forward single #
DXID-attrib $-1 -1 $-1 $208 $138 @18 ASM_EDGE_FROM_STEP @5 33742 #
point $-1 -1 $-1 162.66672558766024 -58.800999999999995 30.405625312995454 #
coedge $-1 -1 $-1 $385 $214 $386 $387 forward $111 $-1 #
DXID-attrib $-1 -1 $-1 $215 $144 @18 ASM_EDGE_FROM_STEP @5 24171 #
coedge $-1 -1 $-1 $225 $386 $217 $298 forward $307 $-1 #
edge $388 -1 $-1 $300 -0.012699999999999999 $228 0 $217 $389 forward @7 unknown #
truecolor-adesk-attrib $-1 -1 $390 $-1 $218 -1056964608 #
vertex $-1 -1 $-1 $218 $391 #
ellipse-curve $-1 -1 $-1 160.45087809756282 -58.800999999999995 29.843650312995475 0 1 0 0.25399999999999989 0 0 1 F 0 F 1.5707963267948966 #
truecolor-adesk-attrib $-1 -1 $392 $-1 $219 -1056964608 #
face $393 -1 $-1 $394 $325 $3 $-1 $395 forward single #
cone-surface $-1 -1 $-1 160.45087809756282 -46.100999999999992 29.843650312995475 0 -1 0 0.25399999999999989 0 0 1 I I 0 1 0.25399999999999989 forward I I I I #
edge $396 -1 $-1 $309 0.0017526000000000002 $362 0.0037845999999999995 $271 $397 forward @7 unknown #
coedge $-1 -1 $-1 $398 $225 $355 $399 reversed $307 $-1 #
loop $-1 -1 $-1 $400 $225 $401 #
truecolor-adesk-attrib $-1 -1 $402 $-1 $226 -1056964608 #
vertex $-1 -1 $-1 $399 $403 #
straight-curve $-1 -1 $-1 166.35980473782408 -46.100999999999992 29.589650312995474 -999.99999999999989 0 0 F 0.0059089266402612591 F 0.017525999999999917 #
DXID-attrib $-1 -1 $-1 $227 $155 @18 ASM_EDGE_FROM_STEP @4 5007 #
point $-1 -1 $-1 160.45087809756282 -46.100999999999992 29.589650312995474 #
coedge $-1 -1 $-1 $240 $232 $230 $314 reversed $241 $-1 #
edge $404 -1 $-1 $337 0.00381 $235 0.0058420000000000008 $230 $405 forward @7 unknown #
truecolor-adesk-attrib $-1 -1 $406 $-1 $233 -1056964608 #
ellipse-curve $-1 -1 $-1 157.27224918226796 -52.450999999999993 25.500250312995476 0 0 -1 9.9624444444438787 0 0 1 F 2.4504814924263276 F 3.8327038147532586 #
DXID-attrib $-1 -1 $-1 $234 $163 @18 ASM_EDGE_FROM_STEP @5 31229 #
point $-1 -1 $-1 149.59580473782415 -58.800999999999995 25.500250312995476 #
coedge $-1 -1 $-1 $320 $237 $269 $354 forward $164 $-1 #
coedge $-1 -1 $-1 $237 $319 $407 $408 forward $164 $-1 #
coedge $-1 -1 $-1 $409 $410 $237 $322 reversed $411 $-1 #
edge $412 -1 $-1 $413 -1.5707963267948966 $414 0 $237 $415 forward @7 unknown #
coedge $-1 -1 $-1 $248 $238 $240 $329 forward $325 $-1 #
coedge $-1 -1 $-1 $238 $248 $344 $416 forward $325 $-1 #
loop $-1 -1 $-1 $417 $238 $303 #
truecolor-adesk-attrib $-1 -1 $418 $-1 $239 -1056964608 #
vertex $-1 -1 $-1 $239 $419 #
straight-curve $-1 -1 $-1 166.35980473782408 -46.100999999999992 27.532250312995476 -999.99999999999989 0 0 F 0 F 0.016763999999999918 #
edge $420 -1 $-1 $243 2.4504814924263294 $337 3.8327038147532604 $323 $421 forward @7 unknown #
face $422 -1 $-1 $423 $241 $3 $-1 $424 forward single #
DXID-attrib $-1 -1 $-1 $242 $169 @18 ASM_EDGE_FROM_STEP @5 36434 #
point $-1 -1 $-1 149.59580473782415 -46.100999999999992 27.532250312995476 #
coedge $-1 -1 $-1 $281 $344 $247 $334 reversed $345 $-1 #
edge $425 -1 $-1 $284 0 $336 1.5707963267948966 $247 $426 forward @7 unknown #
truecolor-adesk-attrib $-1 -1 $427 $-1 $249 -1056964608 #
vertex $-1 -1 $-1 $249 $428 #
vertex $-1 -1 $-1 $249 $429 #
straight-curve $-1 -1 $-1 166.35980473782408 -58.800999999999995 27.532250312995476 -999.99999999999989 0 0 F 0 F 0.016763999999999918 #
DXID-attrib $-1 -1 $-1 $250 $174 @18 ASM_FACE_FROM_STEP @17 step-3M-824-15226 #
coedge $-1 -1 $-1 $276 $272 $254 $341 forward $359 $-1 #
edge $430 -1 $-1 $362 -0.017525999999999917 $279 -0.0059089266402612591 $254 $431 forward @7 unknown #
DXID-attrib $-1 -1 $-1 $256 $183 @18 ASM_EDGE_FROM_STEP @5 30712 #
point $-1 -1 $-1 162.73687809756282 -46.100999999999992 29.843650312995475 #
coedge $-1 -1 $-1 $333 $259 $324 $416 reversed $345 $-1 #
loop $-1 -1 $-1 $-1 $281 $394 #
truecolor-adesk-attrib $-1 -1 $432 $-1 $260 -1056964608 #
ellipse-curve $-1 -1 $-1 166.35980473782408 -46.100999999999992 31.342250312995475 0 1 0 3.8099999999999996 0 0 1 F 0 F 1.5707963267948966 #
DXID-attrib $-1 -1 $-1 $261 $185 @18 ASM_EDGE_FROM_STEP @4 2504 #
point $-1 -1 $-1 170.16980473782408 -46.100999999999992 31.342250312995475 #
DXID-attrib $-1 -1 $-1 $266 $191 @18 ASM_FACE_FROM_STEP @16 step-3M-824-8359 #
coedge $-1 -1 $-1 $433 $434 $435 $436 reversed $267 $-1 #
coedge $-1 -1 $-1 $437 $269 $410 $438 forward $192 $-1 #
coedge $-1 -1 $-1 $269 $437 $439 $440 forward $192 $-1 #
edge $441 -1 $-1 $414 0 $442 1.5707963267948966 $269 $443 forward @7 unknown #
coedge $-1 -1 $-1 $271 $270 $306 $399 forward $130 $-1 #
coedge $-1 -1 $-1 $444 $445 $270 $357 reversed $446 $-1 #
edge $447 -1 $-1 $361 -0.0020319999999999995 $448 0 $270 $449 forward @7 unknown #
coedge $-1 -1 $-1 $272 $369 $444 $450 forward $359 $-1 #
loop $-1 -1 $-1 $451 $369 $383 #
truecolor-adesk-attrib $-1 -1 $452 $-1 $273 -1056964608 #
vertex $-1 -1 $-1 $273 $453 #
vertex $-1 -1 $-1 $273 $454 #
ellipse-curve $-1 -1 $-1 156.51024918226796 -52.450999999999993 27.557650312995477 0 0 -1 -9.9624444444438787 0 0 1 F 0 F 0.69111116116346571 #
coedge $-1 -1 $-1 $288 $455 $274 $365 forward $111 $-1 #
edge $456 -1 $-1 $371 -1.5707963267948966 $367 0 $274 $457 forward @7 unknown #
truecolor-adesk-attrib $-1 -1 $458 $-1 $275 -1056964608 #
vertex $-1 -1 $-1 $275 $459 #
straight-curve $-1 -1 $-1 162.73687809756282 -46.100999999999992 29.843650312995475 0 -999.99999999999989 0 F 0 F 0.012699999999999999 #
coedge $-1 -1 $-1 $358 $276 $455 $460 reversed $359 $-1 #
truecolor-adesk-attrib $-1 -1 $461 $-1 $277 -1056964608 #
vertex $-1 -1 $-1 $365 $462 #
straight-curve $-1 -1 $-1 160.45087809756282 -46.100999999999992 27.557650312995477 0 999.99999999999989 0 F -0.012699999999999999 F 0 #
DXID-attrib $-1 -1 $-1 $278 $197 @18 ASM_EDGE_FROM_STEP @5 32802 #
point $-1 -1 $-1 160.45087809756282 -46.100999999999992 27.557650312995477 #
truecolor-adesk-attrib $-1 -1 $463 $-1 $282 -1056964608 #
straight-curve $-1 -1 $-1 170.16980473782408 -46.100999999999992 31.342250312995475 0 -999.99999999999989 0 F 0 F 0.012699999999999999 #
DXID-attrib $-1 -1 $-1 $283 $200 @18 ASM_EDGE_FROM_STEP @5 22477 #
point $-1 -1 $-1 170.16980473782408 -58.800999999999995 31.342250312995475 #
DXID-attrib $-1 -1 $-1 $289 $205 @18 ASM_EDGE_FROM_STEP @5 29700 #
truecolor-adesk-attrib $-1 -1 $464 $-1 $291 -1056964608 #
ellipse-curve $-1 -1 $-1 160.45087809756282 -58.800999999999995 29.843650312995475 0 -1 0 2.2859999999999996 0 0 1 F 0 F 0.24837931514200964 #
truecolor-adesk-attrib $-1 -1 $465 $-1 $292 -1056964608 #
face $466 -1 $-1 $467 $359 $3 $-1 $468 forward single #
cone-surface $-1 -1 $-1 160.45087809756282 -46.100999999999992 29.843650312995475 0 -1 0 2.2859999999999996 0 0 1 I I 0 1 2.286 forward I I I I #
coedge $-1 -1 $-1 $455 $295 $469 $470 forward $111 $-1 #
coedge $-1 -1 $-1 $297 $398 $295 $387 reversed $307 $-1 #
edge $471 -1 $-1 $300 0.0059089266402612591 $472 0.017525999999999917 $295 $473 forward @7 unknown #
truecolor-adesk-attrib $-1 -1 $474 $-1 $298 -1056964608 #
straight-curve $-1 -1 $-1 160.45087809756282 -46.100999999999992 29.589650312995474 0 999.99999999999989 0 F -0.012699999999999999 F 0 #
DXID-attrib $-1 -1 $-1 $299 $218 @18 ASM_EDGE_FROM_STEP @4 9536 #
point $-1 -1 $-1 160.45087809756282 -58.800999999999995 29.589650312995474 #
DXID-attrib $-1 -1 $-1 $302 $219 @18 ASM_FACE_FROM_STEP @17 step-3M-824-23570 #
truecolor-adesk-attrib $-1 -1 $475 $-1 $303 -1056964608 #
face $476 -1 $-1 $292 $345 $3 $-1 $477 reversed single #
plane-surface $-1 -1 $-1 166.35980473782408 -46.100999999999992 27.532250312995476 0 0 1 -25.399999999999995 0 0 forward_v I I I I #
truecolor-adesk-attrib $-1 -1 $478 $-1 $305 -1056964608 #
straight-curve $-1 -1 $-1 148.8338047378241 -46.100999999999992 31.342250312995475 0 0 -999.99999999999989 F 0.0017526000000000002 F 0.0037845999999999995 #
coedge $-1 -1 $-1 $386 $306 $445 $479 reversed $307 $-1 #
edge $480 -1 $-1 $448 0 $309 0.69111116116346571 $355 $481 forward @7 unknown #
loop $-1 -1 $-1 $-1 $482 $401 #
face $483 -1 $-1 $330 $307 $3 $-1 $484 forward single #
DXID-attrib $-1 -1 $-1 $308 $226 @18 ASM_EDGE_FROM_STEP @4 1140 #
point $-1 -1 $-1 148.83380473782415 -46.100999999999992 29.589650312995474 #
truecolor-adesk-attrib $-1 -1 $485 $-1 $314 -1056964608 #
straight-curve $-1 -1 $-1 149.5958047378241 -58.800999999999995 31.342250312995475 0 0 -999.99999999999989 F 0.00381 F 0.0058420000000000008 #
DXID-attrib $-1 -1 $-1 $315 $233 @18 ASM_EDGE_FROM_STEP @5 15485 #
coedge $-1 -1 $-1 $439 $486 $320 $408 reversed $487 $-1 #
edge $488 -1 $-1 $442 1.5707963267948966 $413 4.7123889803846897 $320 $489 forward @7 unknown #
coedge $-1 -1 $-1 $490 $321 $486 $491 forward $411 $-1 #
coedge $-1 -1 $-1 $321 $490 $352 $438 reversed $411 $-1 #
loop $-1 -1 $-1 $-1 $410 $492 #
truecolor-adesk-attrib $-1 -1 $493 $-1 $322 -1056964608 #
vertex $-1 -1 $-1 $322 $494 #
vertex $-1 -1 $-1 $354 $495 #
ellipse-curve $-1 -1 $-1 152.13580473782409 -52.450999999999993 25.500250312995476 0 0 1 -2.4129999999999985 0 0 1 F -1.5707963267948966 F 0 #
edge $496 -1 $-1 $336 -0.012699999999999999 $327 0 $324 $497 forward @7 unknown #
loop $-1 -1 $-1 $-1 $498 $303 #
DXID-attrib $-1 -1 $-1 $326 $239 @18 ASM_EDGE_FROM_STEP @4 2458 #
point $-1 -1 $-1 166.35980473782408 -46.100999999999992 27.532250312995476 #
truecolor-adesk-attrib $-1 -1 $499 $-1 $329 -1056964608 #
ellipse-curve $-1 -1 $-1 157.27224918226796 -52.450999999999993 27.532250312995476 0 0 1 9.9624444444438787 -1.7696856326032912e-14 0 1 F 2.4504814924263294 F 3.8327038147532604 #
truecolor-adesk-attrib $-1 -1 $500 $-1 $330 -1056964608 #
face $501 -1 $-1 $492 $487 $3 $-1 $502 reversed single #
cone-surface $-1 -1 $-1 157.27224918226796 -52.450999999999993 25.500250312995476 0 0 -1 9.9624444444438787 0 0 1 I I 0 1 9.9624444444438787 forward I I I I #
truecolor-adesk-attrib $-1 -1 $503 $-1 $334 -1056964608 #
ellipse-curve $-1 -1 $-1 166.35980473782408 -58.800999999999995 31.342250312995475 0 1 0 3.8099999999999996 0 0 1 F 0 F 1.5707963267948966 #
DXID-attrib $-1 -1 $-1 $335 $249 @18 ASM_EDGE_FROM_STEP @5 11346 #
point $-1 -1 $-1 166.35980473782408 -58.800999999999995 27.532250312995476 #
point $-1 -1 $-1 149.59580473782415 -58.800999999999995 27.532250312995476 #
truecolor-adesk-attrib $-1 -1 $504 $-1 $341 -1056964608 #
straight-curve $-1 -1 $-1 166.35980473782408 -46.100999999999992 27.557650312995477 999.99999999999989 0 0 F -0.017525999999999917 F -0.0059089266402612591 #
DXID-attrib $-1 -1 $-1 $346 $260 @18 ASM_EDGE_FROM_STEP @4 6263 #
coedge $-1 -1 $-1 $505 $351 $506 $507 forward $267 $-1 #
coedge $-1 -1 $-1 $351 $505 $508 $509 forward $267 $-1 #
coedge $-1 -1 $-1 $510 $511 $351 $436 forward $451 $-1 #
edge $512 -1 $-1 $513 0 $514 1.5707963267948966 $351 $515 forward @7 unknown #
coedge $-1 -1 $-1 $353 $352 $498 $516 reversed $192 $-1 #
edge $517 -1 $-1 $414 -0.0040894 $518 -0.0020573999999999996 $352 $519 forward @7 unknown #
coedge $-1 -1 $-1 $520 $407 $353 $440 reversed $487 $-1 #
edge $521 -1 $-1 $522 0.0020573999999999996 $442 0.0040894 $353 $523 forward @7 unknown #
truecolor-adesk-attrib $-1 -1 $524 $-1 $354 -1056964608 #
vertex $-1 -1 $-1 $354 $525 #
ellipse-curve $-1 -1 $-1 152.13580473782409 -52.450999999999993 25.500250312995476 0 0 1 -2.4129999999999985 0 0 1 F 0 F 1.5707963267948966 #
coedge $-1 -1 $-1 $469 $356 $358 $450 reversed $446 $-1 #
coedge $-1 -1 $-1 $356 $469 $398 $479 forward $446 $-1 #
loop $-1 -1 $-1 $-1 $356 $467 #
truecolor-adesk-attrib $-1 -1 $526 $-1 $357 -1056964608 #
vertex $-1 -1 $-1 $357 $527 #
straight-curve $-1 -1 $-1 146.54780473782409 -52.450999999999993 29.589650312995474 0 0 999.99999999999989 F -0.0020319999999999995 F 0 #
edge $528 -1 $-1 $529 -0.69111116116346749 $361 -1.7763568394002505e-15 $358 $530 forward @7 unknown #
loop $-1 -1 $-1 $-1 $511 $383 #
DXID-attrib $-1 -1 $-1 $360 $273 @18 ASM_EDGE_FROM_STEP @5 12469 #
point $-1 -1 $-1 146.54780473782409 -52.450999999999993 27.557650312995477 #
point $-1 -1 $-1 148.83380473782415 -46.100999999999992 27.557650312995477 #
coedge $-1 -1 $-1 $364 $385 $369 $460 forward $111 $-1 #
truecolor-adesk-attrib $-1 -1 $531 $-1 $365 -1056964608 #
ellipse-curve $-1 -1 $-1 160.45087809756282 -58.800999999999995 29.843650312995475 0 -1 0 2.2859999999999996 0 0 1 F -1.5707963267948966 F 0 #
DXID-attrib $-1 -1 $-1 $366 $275 @18 ASM_EDGE_FROM_STEP @4 8720 #
point $-1 -1 $-1 162.73687809756282 -58.800999999999995 29.843650312995475 #
edge $532 -1 $-1 $529 -0.017525999999999917 $371 -0.0059089266402612591 $455 $533 forward @7 unknown #
DXID-attrib $-1 -1 $-1 $370 $277 @18 ASM_EDGE_FROM_STEP @5 17819 #
point $-1 -1 $-1 160.45087809756282 -58.800999999999995 27.557650312995477 #
DXID-attrib $-1 -1 $-1 $375 $282 @18 ASM_EDGE_FROM_STEP @5 32382 #
DXID-attrib $-1 -1 $-1 $380 $291 @18 ASM_EDGE_FROM_STEP @5 23071 #
DXID-attrib $-1 -1 $-1 $382 $292 @18 ASM_FACE_FROM_STEP @17 step-3M-824-16968 #
truecolor-adesk-attrib $-1 -1 $534 $-1 $383 -1056964608 #
face $535 -1 $-1 $401 $446 $3 $-1 $536 forward single #
plane-surface $-1 -1 $-1 146.54780473782409 -46.100999999999992 27.557650312995477 0 0 -1 25.399999999999995 0 0 forward_v I I I I #
coedge $-1 -1 $-1 $445 $444 $385 $470 reversed $446 $-1 #
edge $537 -1 $-1 $472 0.0017526000000000002 $529 0.0037845999999999995 $385 $538 forward @7 unknown #
truecolor-adesk-attrib $-1 -1 $539 $-1 $387 -1056964608 #
vertex $-1 -1 $-1 $387 $540 #
straight-curve $-1 -1 $-1 166.35980473782408 -58.800999999999995 29.589650312995474 -999.99999999999989 0 0 F 0.0059089266402612591 F 0.017525999999999917 #
DXID-attrib $-1 -1 $-1 $388 $298 @18 ASM_EDGE_FROM_STEP @5 30571 #
DXID-attrib $-1 -1 $-1 $393 $303 @18 ASM_FACE_FROM_STEP @17 step-3M-824-37202 #
truecolor-adesk-attrib $-1 -1 $541 $-1 $394 -1056964608 #
cone-surface $-1 -1 $-1 166.35980473782408 -46.100999999999992 31.342250312995475 0 -1 0 3.8099999999999996 0 0 1 I I 0 1 3.8099999999999996 forward I I I I #
DXID-attrib $-1 -1 $-1 $396 $305 @18 ASM_EDGE_FROM_STEP @4 8845 #
edge $542 -1 $-1 $472 -0.69111116116346749 $448 -1.7763568394002505e-15 $445 $543 forward @7 unknown #
truecolor-adesk-attrib $-1 -1 $544 $-1 $399 -1056964608 #
ellipse-curve $-1 -1 $-1 156.51024918226796 -52.450999999999993 29.589650312995474 0 0 -1 -9.9624444444438787 0 0 1 F 0 F 0.69111116116346571 #
coedge $-1 -1 $-1 $545 $546 $505 $547 forward $400 $-1 #
truecolor-adesk-attrib $-1 -1 $548 $-1 $401 -1056964608 #
plane-surface $-1 -1 $-1 160.45087809756282 -46.100999999999992 29.589650312995474 0 0 1 -25.399999999999995 0 0 forward_v I I I I #
DXID-attrib $-1 -1 $-1 $404 $314 @18 ASM_EDGE_FROM_STEP @5 28011 #
coedge $-1 -1 $-1 $407 $520 $409 $491 reversed $487 $-1 #
loop $-1 -1 $-1 $-1 $520 $423 #
truecolor-adesk-attrib $-1 -1 $549 $-1 $408 -1056964608 #
ellipse-curve $-1 -1 $-1 152.13580473782409 -52.450999999999993 25.500250312995476 0 0 1 -2.4129999999999985 0 0 1 F 1.5707963267948966 F 4.7123889803846897 #
coedge $-1 -1 $-1 $410 $409 $550 $551 reversed $411 $-1 #
edge $552 -1 $-1 $413 -0.0040894 $553 -0.0020573999999999996 $486 $554 forward @7 unknown #
face $555 -1 $-1 $556 $411 $3 $-1 $557 reversed single #
DXID-attrib $-1 -1 $-1 $412 $322 @18 ASM_EDGE_FROM_STEP @4 1965 #
point $-1 -1 $-1 152.13580473782409 -50.037999999999997 25.500250312995476 #
point $-1 -1 $-1 149.72280473782408 -52.450999999999993 25.500250312995476 #
truecolor-adesk-attrib $-1 -1 $558 $-1 $416 -1056964608 #
straight-curve $-1 -1 $-1 166.35980473782408 -46.100999999999992 27.532250312995476 0 999.99999999999989 0 F -0.012699999999999999 F 0 #
coedge $-1 -1 $-1 $550 $559 $437 $516 forward $417 $-1 #
DXID-attrib $-1 -1 $-1 $420 $329 @18 ASM_EDGE_FROM_STEP @5 21032 #
DXID-attrib $-1 -1 $-1 $422 $330 @18 ASM_FACE_FROM_STEP @17 step-3M-824-27036 #
truecolor-adesk-attrib $-1 -1 $560 $-1 $423 -1056964608 #
cone-surface $-1 -1 $-1 152.13580473782409 -52.450999999999993 29.589650312995474 0 0 1 -2.4129999999999985 0 0 1 I I 0 1 2.4129999999999985 forward I I I I #
DXID-attrib $-1 -1 $-1 $425 $334 @18 ASM_EDGE_FROM_STEP @5 17953 #
DXID-attrib $-1 -1 $-1 $430 $341 @18 ASM_EDGE_FROM_STEP @5 23396 #
coedge $-1 -1 $-1 $434 $433 $482 $547 reversed $267 $-1 #
coedge $-1 -1 $-1 $561 $562 $433 $507 reversed $563 $-1 #
edge $564 -1 $-1 $513 -0.0020319999999999995 $565 0 $433 $566 forward @7 unknown #
coedge $-1 -1 $-1 $567 $568 $434 $509 reversed $569 $-1 #
edge $570 -1 $-1 $571 0 $514 0.0020319999999999995 $434 $572 forward @7 unknown #
coedge $-1 -1 $-1 $511 $435 $568 $573 forward $451 $-1 #
coedge $-1 -1 $-1 $435 $510 $561 $574 forward $451 $-1 #
truecolor-adesk-attrib $-1 -1 $575 $-1 $436 -1056964608 #
vertex $-1 -1 $-1 $436 $576 #
vertex $-1 -1 $-1 $436 $577 #
ellipse-curve $-1 -1 $-1 152.13580473782409 -52.450999999999993 27.557650312995477 0 0 1 -2.4129999999999985 0 0 1 F 0 F 1.5707963267948966 #
edge $578 -1 $-1 $522 -1.5707963267948966 $518 0 $437 $579 forward @7 unknown #
truecolor-adesk-attrib $-1 -1 $580 $-1 $438 -1056964608 #
vertex $-1 -1 $-1 $438 $581 #
straight-curve $-1 -1 $-1 149.72280473782408 -52.450999999999993 29.589650312995474 0 0 999.99999999999989 F -0.0040894 F -0.0020573999999999996 #
coedge $-1 -1 $-1 $486 $439 $559 $582 reversed $487 $-1 #
truecolor-adesk-attrib $-1 -1 $583 $-1 $440 -1056964608 #
vertex $-1 -1 $-1 $516 $584 #
straight-curve $-1 -1 $-1 152.13580473782409 -54.86399999999999 29.589650312995474 0 0 -999.99999999999989 F 0.0020573999999999996 F 0.0040894 #
DXID-attrib $-1 -1 $-1 $441 $354 @18 ASM_EDGE_FROM_STEP @4 2310 #
point $-1 -1 $-1 152.13580473782409 -54.86399999999999 25.500250312995476 #
DXID-attrib $-1 -1 $-1 $447 $357 @18 ASM_EDGE_FROM_STEP @5 31173 #
point $-1 -1 $-1 146.54780473782409 -52.450999999999993 29.589650312995474 #
truecolor-adesk-attrib $-1 -1 $585 $-1 $450 -1056964608 #
vertex $-1 -1 $-1 $470 $586 #
ellipse-curve $-1 -1 $-1 156.51024918226796 -52.450999999999993 27.557650312995477 0 0 -1 -9.9624444444438787 1.7696856326032912e-14 0 1 F -0.69111116116346749 F -1.7763568394002505e-15 #
DXID-attrib $-1 -1 $-1 $456 $365 @18 ASM_EDGE_FROM_STEP @5 28394 #
truecolor-adesk-attrib $-1 -1 $587 $-1 $460 -1056964608 #
straight-curve $-1 -1 $-1 166.35980473782408 -58.800999999999995 27.557650312995477 999.99999999999989 0 0 F -0.017525999999999917 F -0.0059089266402612591 #
DXID-attrib $-1 -1 $-1 $466 $383 @18 ASM_FACE_FROM_STEP @17 step-3M-824-13240 #
truecolor-adesk-attrib $-1 -1 $588 $-1 $467 -1056964608 #
cone-surface $-1 -1 $-1 156.51024918226796 -52.450999999999993 29.589650312995474 0 0 1 -9.9624444444438787 0 0 1 I I 0 1 9.9624444444438787 forward I I I I #
truecolor-adesk-attrib $-1 -1 $589 $-1 $470 -1056964608 #
straight-curve $-1 -1 $-1 148.8338047378241 -58.800999999999995 31.342250312995475 0 0 -999.99999999999989 F 0.0017526000000000002 F 0.0037845999999999995 #
DXID-attrib $-1 -1 $-1 $471 $387 @18 ASM_EDGE_FROM_STEP @5 15517 #
point $-1 -1 $-1 148.83380473782415 -58.800999999999995 29.589650312995474 #
DXID-attrib $-1 -1 $-1 $476 $394 @18 ASM_FACE_FROM_STEP @17 step-3M-824-26306 #
truecolor-adesk-attrib $-1 -1 $590 $-1 $479 -1056964608 #
ellipse-curve $-1 -1 $-1 156.51024918226796 -52.450999999999993 29.589650312995474 0 0 -1 -9.9624444444438787 1.7696856326032912e-14 0 1 F -0.69111116116346749 F -1.7763568394002505e-15 #
DXID-attrib $-1 -1 $-1 $480 $399 @18 ASM_EDGE_FROM_STEP @5 17628 #
coedge $-1 -1 $-1 $546 $482 $562 $591 forward $400 $-1 #
coedge $-1 -1 $-1 $482 $545 $567 $592 forward $400 $-1 #
edge $593 -1 $-1 $571 -1.5707963267948966 $565 0 $505 $594 forward @7 unknown #
DXID-attrib $-1 -1 $-1 $483 $401 @18 ASM_FACE_FROM_STEP @17 step-3M-824-35248 #
DXID-attrib $-1 -1 $-1 $488 $408 @18 ASM_EDGE_FROM_STEP @3 251 #
coedge $-1 -1 $-1 $559 $498 $490 $551 forward $417 $-1 #
edge $595 -1 $-1 $518 0 $553 1.5707963267948966 $550 $596 forward @7 unknown #
truecolor-adesk-attrib $-1 -1 $597 $-1 $491 -1056964608 #
vertex $-1 -1 $-1 $551 $598 #
straight-curve $-1 -1 $-1 152.13580473782409 -50.037999999999997 29.589650312995474 0 0 999.99999999999989 F -0.0040894 F -0.0020573999999999996 #
truecolor-adesk-attrib $-1 -1 $599 $-1 $492 -1056964608 #
face $600 -1 $-1 $601 $569 $3 $-1 $602 reversed single #
cone-surface $-1 -1 $-1 152.13580473782409 -52.450999999999993 29.589650312995474 0 0 1 -2.4129999999999985 0 0 1 I I 0 1 2.4129999999999985 forward I I I I #
DXID-attrib $-1 -1 $-1 $496 $416 @18 ASM_EDGE_FROM_STEP @5 24051 #
coedge $-1 -1 $-1 $498 $550 $520 $582 forward $417 $-1 #
DXID-attrib $-1 -1 $-1 $501 $423 @18 ASM_FACE_FROM_STEP @17 step-3M-824-11485 #
coedge $-1 -1 $-1 $603 $506 $511 $574 reversed $563 $-1 #
coedge $-1 -1 $-1 $506 $603 $545 $591 reversed $563 $-1 #
loop $-1 -1 $-1 $-1 $506 $601 #
truecolor-adesk-attrib $-1 -1 $604 $-1 $507 -1056964608 #
vertex $-1 -1 $-1 $507 $605 #
straight-curve $-1 -1 $-1 149.72280473782408 -52.450999999999993 29.589650312995474 0 0 999.99999999999989 F -0.0020319999999999995 F 0 #
coedge $-1 -1 $-1 $606 $508 $546 $592 reversed $569 $-1 #
coedge $-1 -1 $-1 $508 $606 $510 $573 reversed $569 $-1 #
loop $-1 -1 $-1 $-1 $568 $556 #
truecolor-adesk-attrib $-1 -1 $607 $-1 $509 -1056964608 #
vertex $-1 -1 $-1 $547 $608 #
straight-curve $-1 -1 $-1 152.13580473782409 -54.86399999999999 29.589650312995474 0 0 -999.99999999999989 F 0 F 0.0020319999999999995 #
edge $609 -1 $-1 $514 1.5707963267948966 $610 4.7123889803846897 $510 $611 forward @7 unknown #
edge $612 -1 $-1 $610 -1.5707963267948966 $513 0 $511 $613 forward @7 unknown #
DXID-attrib $-1 -1 $-1 $512 $436 @18 ASM_EDGE_FROM_STEP @5 22933 #
point $-1 -1 $-1 149.72280473782408 -52.450999999999993 27.557650312995477 #
point $-1 -1 $-1 152.13580473782409 -54.86399999999999 27.557650312995477 #
truecolor-adesk-attrib $-1 -1 $614 $-1 $516 -1056964608 #
ellipse-curve $-1 -1 $-1 152.13580473782409 -52.450999999999993 27.532250312995476 0 0 -1 -2.4129999999999985 0 0 1 F -1.5707963267948966 F 0 #
DXID-attrib $-1 -1 $-1 $517 $438 @18 ASM_EDGE_FROM_STEP @5 38088 #
point $-1 -1 $-1 149.72280473782408 -52.450999999999993 27.532250312995476 #
edge $615 -1 $-1 $553 1.5707963267948966 $522 4.7123889803846897 $559 $616 forward @7 unknown #
DXID-attrib $-1 -1 $-1 $521 $440 @18 ASM_EDGE_FROM_STEP @4 3852 #
point $-1 -1 $-1 152.13580473782409 -54.86399999999999 27.532250312995476 #
DXID-attrib $-1 -1 $-1 $528 $450 @18 ASM_EDGE_FROM_STEP @4 9965 #
point $-1 -1 $-1 148.83380473782415 -58.800999999999995 27.557650312995477 #
DXID-attrib $-1 -1 $-1 $532 $460 @18 ASM_EDGE_FROM_STEP @5 31801 #
DXID-attrib $-1 -1 $-1 $535 $467 @18 ASM_FACE_FROM_STEP @17 step-3M-824-38846 #
DXID-attrib $-1 -1 $-1 $537 $470 @18 ASM_EDGE_FROM_STEP @5 35912 #
DXID-attrib $-1 -1 $-1 $542 $479 @18 ASM_EDGE_FROM_STEP @5 17958 #
edge $617 -1 $-1 $565 0 $618 1.5707963267948966 $545 $619 forward @7 unknown #
edge $620 -1 $-1 $618 1.5707963267948966 $571 4.7123889803846897 $546 $621 forward @7 unknown #
truecolor-adesk-attrib $-1 -1 $622 $-1 $547 -1056964608 #
ellipse-curve $-1 -1 $-1 152.13580473782409 -52.450999999999993 29.589650312995474 0 0 -1 -2.4129999999999985 0 0 1 F -1.5707963267948966 F 0 #
truecolor-adesk-attrib $-1 -1 $623 $-1 $551 -1056964608 #
ellipse-curve $-1 -1 $-1 152.13580473782409 -52.450999999999993 27.532250312995476 0 0 -1 -2.4129999999999985 0 0 1 F 0 F 1.5707963267948966 #
DXID-attrib $-1 -1 $-1 $552 $491 @18 ASM_EDGE_FROM_STEP @5 17662 #
point $-1 -1 $-1 152.13580473782409 -50.037999999999997 27.532250312995476 #
DXID-attrib $-1 -1 $-1 $555 $492 @18 ASM_FACE_FROM_STEP @17 step-3M-824-32769 #
truecolor-adesk-attrib $-1 -1 $624 $-1 $556 -1056964608 #
face $625 -1 $-1 $-1 $563 $3 $-1 $626 reversed single #
cone-surface $-1 -1 $-1 152.13580473782409 -52.450999999999993 29.589650312995474 0 0 1 -2.4129999999999985 0 0 1 I I 0 1 2.4129999999999985 forward I I I I #
coedge $-1 -1 $-1 $562 $561 $606 $627 forward $563 $-1 #
DXID-attrib $-1 -1 $-1 $564 $507 @18 ASM_EDGE_FROM_STEP @5 23168 #
point $-1 -1 $-1 149.72280473782408 -52.450999999999993 29.589650312995474 #
coedge $-1 -1 $-1 $568 $567 $603 $627 reversed $569 $-1 #
DXID-attrib $-1 -1 $-1 $570 $509 @18 ASM_EDGE_FROM_STEP @5 17850 #
point $-1 -1 $-1 152.13580473782409 -54.86399999999999 29.589650312995474 #
truecolor-adesk-attrib $-1 -1 $628 $-1 $573 -1056964608 #
vertex $-1 -1 $-1 $574 $629 #
ellipse-curve $-1 -1 $-1 152.13580473782409 -52.450999999999993 27.557650312995477 0 0 1 -2.4129999999999985 0 0 1 F 1.5707963267948966 F 4.7123889803846897 #
truecolor-adesk-attrib $-1 -1 $630 $-1 $574 -1056964608 #
ellipse-curve $-1 -1 $-1 152.13580473782409 -52.450999999999993 27.557650312995477 0 0 1 -2.4129999999999985 0 0 1 F -1.5707963267948966 F 0 #
DXID-attrib $-1 -1 $-1 $578 $516 @18 ASM_EDGE_FROM_STEP @4 5379 #
truecolor-adesk-attrib $-1 -1 $631 $-1 $582 -1056964608 #
ellipse-curve $-1 -1 $-1 152.13580473782409 -52.450999999999993 27.532250312995476 0 0 -1 -2.4129999999999985 0 0 1 F 1.5707963267948966 F 4.7123889803846897 #
truecolor-adesk-attrib $-1 -1 $632 $-1 $591 -1056964608 #
vertex $-1 -1 $-1 $591 $633 #
ellipse-curve $-1 -1 $-1 152.13580473782409 -52.450999999999993 29.589650312995474 0 0 -1 -2.4129999999999985 0 0 1 F 0 F 1.5707963267948966 #
truecolor-adesk-attrib $-1 -1 $634 $-1 $592 -1056964608 #
ellipse-curve $-1 -1 $-1 152.13580473782409 -52.450999999999993 29.589650312995474 0 0 -1 -2.4129999999999985 0 0 1 F 1.5707963267948966 F 4.7123889803846897 #
DXID-attrib $-1 -1 $-1 $593 $547 @18 ASM_EDGE_FROM_STEP @5 16139 #
DXID-attrib $-1 -1 $-1 $595 $551 @18 ASM_EDGE_FROM_STEP @5 35427 #
DXID-attrib $-1 -1 $-1 $600 $556 @18 ASM_FACE_FROM_STEP @17 step-3M-824-13334 #
truecolor-adesk-attrib $-1 -1 $635 $-1 $601 -1056964608 #
cone-surface $-1 -1 $-1 152.13580473782409 -52.450999999999993 29.589650312995474 0 0 1 -2.4129999999999985 0 0 1 I I 0 1 2.4129999999999985 forward I I I I #
edge $636 -1 $-1 $610 -0.0020319999999999995 $618 0 $606 $637 forward @7 unknown #
DXID-attrib $-1 -1 $-1 $609 $573 @18 ASM_EDGE_FROM_STEP @5 22765 #
point $-1 -1 $-1 152.13580473782409 -50.037999999999997 27.557650312995477 #
DXID-attrib $-1 -1 $-1 $612 $574 @18 ASM_EDGE_FROM_STEP @4 5678 #
DXID-attrib $-1 -1 $-1 $615 $582 @18 ASM_EDGE_FROM_STEP @5 32051 #
DXID-attrib $-1 -1 $-1 $617 $591 @18 ASM_EDGE_FROM_STEP @5 37499 #
point $-1 -1 $-1 152.13580473782409 -50.037999999999997 29.589650312995474 #
DXID-attrib $-1 -1 $-1 $620 $592 @18 ASM_EDGE_FROM_STEP @5 15531 #
DXID-attrib $-1 -1 $-1 $625 $601 @18 ASM_FACE_FROM_STEP @17 step-3M-824-16647 #
truecolor-adesk-attrib $-1 -1 $638 $-1 $627 -1056964608 #
straight-curve $-1 -1 $-1 152.13580473782409 -50.037999999999997 29.589650312995474 0 0 999.99999999999989 F -0.0020319999999999995 F 0 #
DXID-attrib $-1 -1 $-1 $636 $627 @18 ASM_EDGE_FROM_STEP @5 38983 #
