700 368 1 0         
5 ZWCAD 12 ACIS 28.0 NT 24 Mon May 13 16:07:01 2024 
1 9.9999999999999995e-07 1e-10 
body $1 -1 $-1 $2 $-1 $-1 #
DXID-attrib $-1 -1 $-1 $-1 $0 @18 ASM_BODY_FROM_STEP @83 796E1F4DB6804F334B7F6622B90F83BED868F1E8|:|BE76307B32EA9896A750FB780CA2424B133E979E #
lump $-1 -1 $-1 $-1 $3 $0 #
shell $-1 -1 $-1 $-1 $-1 $4 $-1 $2 #
face $5 -1 $-1 $6 $7 $3 $-1 $8 forward single #
truecolor-adesk-attrib $-1 -1 $9 $-1 $4 -1030121063 #
face $10 -1 $-1 $11 $12 $3 $-1 $13 forward single #
loop $-1 -1 $-1 $-1 $14 $4 #
cone-surface $-1 -1 $-1 3426.5222841055406 318.31468214479474 240.69641154630884 0.86518441077453034 1.4553476872710899e-11 -0.50145382175503372 17.97926642683213 3.2358161803775927 31.020565313994428 1 I I 0.70710678118654757 0.70710678118654757 36 forward I I I I #
color-adesk-attrib $-1 -1 $15 $5 $4 253 #
truecolor-adesk-attrib $-1 -1 $16 $-1 $6 -1030121063 #
face $17 -1 $-1 $18 $19 $3 $-1 $20 forward single #
loop $-1 -1 $-1 $-1 $21 $6 #
cone-surface $-1 -1 $-1 3469.7440121989507 318.31468214552183 215.64545077380222 0.86518441077453034 1.4553476872710899e-11 -0.50145382175503372 17.97926642683213 3.2358161803775927 31.020565313994428 1 I I 0 1 36 forward I I I I #
coedge $-1 -1 $-1 $22 $23 $24 $25 forward $7 $-1 #
DXID-attrib $-1 -1 $-1 $9 $4 @18 ASM_FACE_FROM_STEP @17 step-3M-249-10391 #
color-adesk-attrib $-1 -1 $26 $10 $6 253 #
truecolor-adesk-attrib $-1 -1 $27 $-1 $11 -1030121063 #
face $28 -1 $-1 $29 $30 $3 $-1 $31 reversed single #
loop $-1 -1 $-1 $-1 $32 $11 #
cone-surface $-1 -1 $-1 3469.7815046442679 318.31468214552245 215.62372045855716 -0.86518441077453034 -1.4553476872710899e-11 0.50145382175503372 -17.479842359420122 -3.1459323975893256 -30.158882944161245 1 I I 0.70710678118654757 0.70710678118654757 34.999999999999993 forward I I I I #
coedge $-1 -1 $-1 $33 $34 $35 $36 forward $12 $-1 #
coedge $-1 -1 $-1 $35 $14 $37 $38 forward $7 $-1 #
coedge $-1 -1 $-1 $14 $35 $39 $40 reversed $7 $-1 #
coedge $-1 -1 $-1 $41 $41 $14 $25 reversed $42 $-1 #
edge $43 -1 $-1 $44 0 $45 3.1415926535897931 $14 $46 forward @7 unknown #
DXID-attrib $-1 -1 $-1 $16 $6 @18 ASM_FACE_FROM_STEP @17 step-3M-249-41862 #
color-adesk-attrib $-1 -1 $47 $17 $11 253 #
truecolor-adesk-attrib $-1 -1 $48 $-1 $18 -1030121063 #
face $49 -1 $-1 $50 $51 $3 $-1 $52 reversed single #
loop $-1 -1 $-1 $-1 $53 $18 #
cone-surface $-1 -1 $-1 3469.7440121989507 318.31468214552183 215.64545077380222 0.86518441077453034 1.4553476872710899e-11 -0.50145382175503372 12.985025752712101 2.3369783524949295 22.403741615662657 1 I I 0 1 26.000000000000014 forward I I I I #
coedge $-1 -1 $-1 $54 $55 $56 $57 reversed $19 $-1 #
coedge $-1 -1 $-1 $58 $21 $59 $60 forward $12 $-1 #
coedge $-1 -1 $-1 $21 $58 $61 $62 reversed $12 $-1 #
coedge $-1 -1 $-1 $23 $22 $21 $36 reversed $7 $-1 #
edge $63 -1 $-1 $64 0 $65 3.1415926535897931 $35 $66 forward @7 unknown #
coedge $-1 -1 $-1 $67 $68 $22 $38 reversed $69 $-1 #
edge $70 -1 $-1 $45 -0.0014142135623731028 $65 0 $22 $71 forward @7 unknown #
coedge $-1 -1 $-1 $68 $67 $23 $40 forward $69 $-1 #
edge $72 -1 $-1 $44 -0.0014142135623731028 $64 0 $23 $73 forward @7 unknown #
coedge $-1 -1 $-1 $24 $24 $67 $74 reversed $42 $-1 #
loop $-1 -1 $-1 $75 $24 $76 #
truecolor-adesk-attrib $-1 -1 $77 $-1 $25 -1030121063 #
vertex $-1 -1 $-1 $25 $78 #
vertex $-1 -1 $-1 $25 $79 #
ellipse-curve $-1 -1 $-1 3425.6570996947662 318.31468214478019 241.19786536806387 0.86518441077453034 1.4553476872710899e-11 -0.50145382175503372 17.479842359420122 3.1459323975893256 30.158882944161245 1 F 0 F 3.1415926535897931 #
DXID-attrib $-1 -1 $-1 $27 $11 @18 ASM_FACE_FROM_STEP @17 step-3M-249-43959 #
color-adesk-attrib $-1 -1 $80 $28 $18 253 #
truecolor-adesk-attrib $-1 -1 $81 $-1 $29 -1030121063 #
face $82 -1 $-1 $76 $83 $3 $-1 $84 reversed single #
loop $-1 -1 $-1 $-1 $85 $29 #
cone-surface $-1 -1 $-1 3469.7440121989507 318.31468214552183 215.64545077380222 0.86518441077453034 1.4553476872710899e-11 -0.50145382175503372 10.487905415652079 1.8875594385535963 18.095329766496757 1 I I 0 1 21.000000000000007 forward I I I I #
coedge $-1 -1 $-1 $86 $87 $88 $89 reversed $30 $-1 #
coedge $-1 -1 $-1 $90 $32 $91 $92 forward $19 $-1 #
coedge $-1 -1 $-1 $32 $90 $93 $94 reversed $19 $-1 #
coedge $-1 -1 $-1 $95 $95 $32 $57 forward $96 $-1 #
edge $97 -1 $-1 $98 1.2421417534208868e-16 $99 3.1415926535897931 $32 $100 forward @7 unknown #
coedge $-1 -1 $-1 $34 $33 $90 $101 reversed $12 $-1 #
coedge $-1 -1 $-1 $102 $103 $33 $60 reversed $104 $-1 #
edge $105 -1 $-1 $65 -0.049956665371162078 $106 -0.00095666537116208424 $33 $107 forward @7 unknown #
coedge $-1 -1 $-1 $103 $102 $34 $62 forward $104 $-1 #
edge $108 -1 $-1 $64 -0.049956665371162078 $109 -0.00095666537116208424 $34 $110 forward @7 unknown #
truecolor-adesk-attrib $-1 -1 $111 $-1 $36 -1030121063 #
vertex $-1 -1 $-1 $36 $112 #
vertex $-1 -1 $-1 $38 $113 #
ellipse-curve $-1 -1 $-1 3426.5222841055406 318.31468214479474 240.69641154630884 0.86518441077453034 1.4553476872710899e-11 -0.50145382175503372 17.97926642683213 3.2358161803775927 31.020565313994428 1 F 0 F 3.1415926535897931 #
coedge $-1 -1 $-1 $39 $37 $41 $74 forward $69 $-1 #
coedge $-1 -1 $-1 $37 $39 $102 $114 reversed $69 $-1 #
loop $-1 -1 $-1 $-1 $37 $115 #
truecolor-adesk-attrib $-1 -1 $116 $-1 $38 -1030121063 #
straight-curve $-1 -1 $-1 3408.543017678709 315.07886596441716 209.67584623231437 258.63161908076273 -63.557432317991122 -963.88284475282978 F -0.0014142135623731028 F 0 #
truecolor-adesk-attrib $-1 -1 $117 $-1 $40 -1030121063 #
straight-curve $-1 -1 $-1 3444.5015505323731 321.55049832517233 271.71697686030325 964.92390859035322 63.557432338572767 254.72004912304041 F -0.0014142135623731028 F 0 #
edge $118 -1 $-1 $45 -3.1415926535897931 $44 0 $41 $119 forward @7 unknown #
loop $-1 -1 $-1 $-1 $120 $76 #
face $121 -1 $-1 $122 $42 $3 $-1 $123 forward single #
color-adesk-attrib $-1 -1 $124 $43 $25 253 #
point $-1 -1 $-1 3443.1369420541864 321.46061454236951 271.35674831222514 #
point $-1 -1 $-1 3408.177257335346 315.16874974719087 211.03898242390261 #
DXID-attrib $-1 -1 $-1 $48 $18 @18 ASM_FACE_FROM_STEP @17 step-3M-249-19927 #
color-adesk-attrib $-1 -1 $125 $49 $29 253 #
truecolor-adesk-attrib $-1 -1 $126 $-1 $50 -1030121063 #
loop $-1 -1 $-1 $-1 $127 $50 #
cone-surface $-1 -1 $-1 3469.7440121989507 318.31468214552183 215.64545077380222 0.86518441077453034 1.4553476872710899e-11 -0.50145382175503372 12.985025752712101 2.3369783524949295 22.403741615662657 1 I I 0 1 26.000000000000014 forward I I I I #
coedge $-1 -1 $-1 $128 $129 $130 $131 reversed $51 $-1 #
coedge $-1 -1 $-1 $132 $53 $133 $134 forward $30 $-1 #
coedge $-1 -1 $-1 $53 $132 $135 $136 reversed $30 $-1 #
coedge $-1 -1 $-1 $137 $137 $53 $89 forward $138 $-1 #
edge $139 -1 $-1 $140 -3.1415926535897931 $141 0 $53 $142 forward @7 unknown #
coedge $-1 -1 $-1 $55 $54 $58 $101 forward $19 $-1 #
coedge $-1 -1 $-1 $143 $144 $54 $92 reversed $145 $-1 #
edge $146 -1 $-1 $98 5.3024515623552786e-36 $109 0.0014142135623731028 $54 $147 forward @7 unknown #
coedge $-1 -1 $-1 $144 $143 $55 $94 forward $145 $-1 #
edge $148 -1 $-1 $99 0 $106 0.0014142135623731028 $55 $149 forward @7 unknown #
coedge $-1 -1 $-1 $56 $56 $143 $150 forward $96 $-1 #
loop $-1 -1 $-1 $151 $95 $152 #
truecolor-adesk-attrib $-1 -1 $153 $-1 $57 -1030121063 #
vertex $-1 -1 $-1 $57 $154 #
vertex $-1 -1 $-1 $57 $155 #
ellipse-curve $-1 -1 $-1 3469.7815046442679 318.31468214552245 215.62372045855716 0.86518441077453034 1.4553476872710899e-11 -0.50145382175503372 17.479842359420122 3.1459323975893256 30.158882944161245 1 F 1.2421417534208868e-16 F 3.1415926535897931 #
edge $156 -1 $-1 $109 1.224646799147353e-16 $106 3.1415926535897931 $58 $157 forward @7 unknown #
coedge $-1 -1 $-1 $61 $59 $68 $114 forward $104 $-1 #
coedge $-1 -1 $-1 $59 $61 $144 $158 reversed $104 $-1 #
loop $-1 -1 $-1 $-1 $59 $159 #
truecolor-adesk-attrib $-1 -1 $160 $-1 $60 -1030121063 #
vertex $-1 -1 $-1 $60 $161 #
straight-curve $-1 -1 $-1 3451.7647457721182 315.07886596514419 184.62488545980784 865.18441077453031 1.4553476872710899e-08 -501.45382175503374 F -0.049956665371162078 F -0.00095666537116208424 #
truecolor-adesk-attrib $-1 -1 $162 $-1 $62 -1030121063 #
vertex $-1 -1 $-1 $101 $163 #
straight-curve $-1 -1 $-1 3487.7232786257823 321.55049832589941 246.66601608779666 865.18441077453031 1.4553476872710899e-08 -501.45382175503374 F -0.049956665371162078 F -0.00095666537116208424 #
color-adesk-attrib $-1 -1 $164 $63 $36 253 #
point $-1 -1 $-1 3444.5015505323731 321.55049832517233 271.71697686030325 #
point $-1 -1 $-1 3408.543017678709 315.07886596441716 209.67584623231437 #
edge $165 -1 $-1 $65 -3.1415926535897931 $64 0 $102 $166 forward @7 unknown #
face $167 -1 $-1 $-1 $69 $3 $-1 $168 forward single #
color-adesk-attrib $-1 -1 $169 $70 $38 253 #
color-adesk-attrib $-1 -1 $170 $72 $40 253 #
truecolor-adesk-attrib $-1 -1 $171 $-1 $74 -1030121063 #
ellipse-curve $-1 -1 $-1 3425.6570996947662 318.31468214478019 241.19786536806387 0.86518441077453034 1.4553476872710899e-11 -0.50145382175503372 17.479842359420122 3.1459323975893256 30.158882944161245 1 F -3.1415926535897931 F 0 #
coedge $-1 -1 $-1 $172 $172 $173 $174 forward $75 $-1 #
truecolor-adesk-attrib $-1 -1 $175 $-1 $76 -1030121063 #
face $176 -1 $-1 $177 $178 $3 $-1 $179 reversed single #
plane-surface $-1 -1 $-1 3427.2346395189593 283.45635302031127 243.91967703555429 -0.86518441077453034 -1.4553476872710899e-11 0.50145382175503372 -0.49942406741200362 -0.089883782788266461 -0.86168236983317859 forward_v I I I I #
DXID-attrib $-1 -1 $-1 $77 $25 @18 ASM_EDGE_FROM_STEP @4 8887 #
DXID-attrib $-1 -1 $-1 $81 $29 @18 ASM_FACE_FROM_STEP @16 step-3M-249-3214 #
color-adesk-attrib $-1 -1 $180 $82 $50 253 #
coedge $-1 -1 $-1 $181 $182 $172 $183 reversed $83 $-1 #
coedge $-1 -1 $-1 $184 $85 $185 $186 forward $51 $-1 #
coedge $-1 -1 $-1 $85 $184 $187 $188 reversed $51 $-1 #
coedge $-1 -1 $-1 $189 $189 $85 $131 forward $190 $-1 #
edge $191 -1 $-1 $192 -3.1415926535897931 $193 0 $85 $194 forward @7 unknown #
coedge $-1 -1 $-1 $87 $86 $195 $196 forward $30 $-1 #
coedge $-1 -1 $-1 $197 $198 $86 $134 reversed $199 $-1 #
edge $200 -1 $-1 $140 -0.014956665371162079 $201 4.3334628837921055e-05 $86 $202 forward @7 unknown #
coedge $-1 -1 $-1 $198 $197 $87 $136 forward $199 $-1 #
edge $203 -1 $-1 $141 -0.014956665371162079 $204 4.3334628837921055e-05 $87 $205 forward @7 unknown #
coedge $-1 -1 $-1 $88 $88 $197 $206 forward $138 $-1 #
loop $-1 -1 $-1 $207 $137 $208 #
truecolor-adesk-attrib $-1 -1 $209 $-1 $89 -1030121063 #
vertex $-1 -1 $-1 $89 $210 #
vertex $-1 -1 $-1 $89 $211 #
ellipse-curve $-1 -1 $-1 3456.8037384826498 318.31468214530412 223.14552778488263 0.86518441077453034 1.4553476872710899e-11 -0.50145382175503372 12.985025752712097 2.3369783524949286 22.40374161566265 1 F -3.1415926535897931 F 0 #
coedge $-1 -1 $-1 $93 $91 $95 $150 reversed $145 $-1 #
coedge $-1 -1 $-1 $91 $93 $103 $158 forward $145 $-1 #
loop $-1 -1 $-1 $-1 $91 $212 #
truecolor-adesk-attrib $-1 -1 $213 $-1 $92 -1030121063 #
straight-curve $-1 -1 $-1 3487.2613470036881 321.46061454311177 245.78260340271839 -258.63161908076273 63.557432317990958 963.88284475282978 F 5.3024515623552786e-36 F 0.0014142135623731028 #
truecolor-adesk-attrib $-1 -1 $214 $-1 $94 -1030121063 #
straight-curve $-1 -1 $-1 3452.3016622848477 315.16874974793313 185.46483751439587 -964.92390859035322 -63.557432338572767 -254.72004912304041 F 0 F 0.0014142135623731028 #
edge $215 -1 $-1 $99 -3.1415926535897931 $98 1.2421417534208868e-16 $95 $216 forward @7 unknown #
loop $-1 -1 $-1 $-1 $217 $152 #
face $218 -1 $-1 $212 $96 $3 $-1 $219 forward single #
color-adesk-attrib $-1 -1 $220 $97 $57 253 #
point $-1 -1 $-1 3487.2613470036881 321.46061454311177 245.78260340271839 #
point $-1 -1 $-1 3452.3016622848477 315.16874974793313 185.46483751439587 #
truecolor-adesk-attrib $-1 -1 $221 $-1 $101 -1030121063 #
ellipse-curve $-1 -1 $-1 3468.9163202334935 318.3146821455079 216.12517428031219 0.86518441077453034 1.4553476872710899e-11 -0.50145382175503372 17.97926642683213 3.2358161803775927 31.020565313994428 1 F 1.224646799147353e-16 F 3.1415926535897931 #
edge $222 -1 $-1 $106 -3.1415926535897931 $109 1.224646799147353e-16 $144 $223 forward @7 unknown #
face $224 -1 $-1 $115 $104 $3 $-1 $225 forward single #
color-adesk-attrib $-1 -1 $226 $105 $60 253 #
point $-1 -1 $-1 3450.937053806661 315.07886596513032 185.10460896631776 #
color-adesk-attrib $-1 -1 $227 $108 $62 253 #
point $-1 -1 $-1 3486.8955866603251 321.55049832588548 247.1457395943066 #
DXID-attrib $-1 -1 $-1 $111 $36 @18 ASM_EDGE_FROM_STEP @4 2152 #
truecolor-adesk-attrib $-1 -1 $228 $-1 $114 -1030121063 #
ellipse-curve $-1 -1 $-1 3426.5222841055406 318.31468214479474 240.69641154630884 0.86518441077453034 1.4553476872710899e-11 -0.50145382175503372 17.97926642683213 3.2358161803775927 31.020565313994428 1 F -3.1415926535897931 F 0 #
truecolor-adesk-attrib $-1 -1 $229 $-1 $115 -1030121063 #
cone-surface $-1 -1 $-1 3426.5222841055406 318.31468214479474 240.69641154630884 0.86518441077453034 1.4553476872710899e-11 -0.50145382175503372 17.97926642683213 3.2358161803775927 31.020565313994428 1 I I 0.70710678118654757 0.70710678118654757 36 forward I I I I #
DXID-attrib $-1 -1 $-1 $116 $38 @18 ASM_EDGE_FROM_STEP @5 31511 #
DXID-attrib $-1 -1 $-1 $117 $40 @18 ASM_EDGE_FROM_STEP @5 23127 #
color-adesk-attrib $-1 -1 $230 $118 $74 253 #
coedge $-1 -1 $-1 $120 $120 $127 $183 forward $75 $-1 #
coedge $-1 -1 $-1 $231 $232 $120 $174 reversed $178 $-1 #
edge $233 -1 $-1 $234 0 $235 3.1415926535897931 $120 $236 forward @7 unknown #
color-adesk-attrib $-1 -1 $237 $121 $76 253 #
truecolor-adesk-attrib $-1 -1 $238 $-1 $122 -1030121063 #
face $239 -1 $-1 $240 $241 $3 $-1 $242 forward single #
loop $-1 -1 $-1 $-1 $232 $122 #
cone-surface $-1 -1 $-1 3469.7440121989507 318.31468214552183 215.64545077380222 0.86518441077453034 1.4553476872710899e-11 -0.50145382175503372 12.985025752712101 2.3369783524949295 22.403741615662657 1 I I 0 1 26.000000000000014 forward I I I I #
DXID-attrib $-1 -1 $-1 $126 $50 @18 ASM_FACE_FROM_STEP @17 step-3M-249-19873 #
coedge $-1 -1 $-1 $243 $127 $232 $244 forward $83 $-1 #
coedge $-1 -1 $-1 $127 $243 $231 $245 reversed $83 $-1 #
edge $246 -1 $-1 $235 -3.1415926535897931 $234 0 $127 $247 forward @7 unknown #
coedge $-1 -1 $-1 $129 $128 $248 $249 forward $51 $-1 #
coedge $-1 -1 $-1 $250 $251 $128 $186 reversed $252 $-1 #
edge $253 -1 $-1 $192 -0.035956665371162086 $254 -0.014956665371162079 $128 $255 forward @7 unknown #
coedge $-1 -1 $-1 $251 $250 $129 $188 forward $252 $-1 #
edge $256 -1 $-1 $193 -0.035956665371162086 $257 -0.014956665371162079 $129 $258 forward @7 unknown #
coedge $-1 -1 $-1 $130 $130 $250 $259 forward $190 $-1 #
loop $-1 -1 $-1 $-1 $189 $177 #
truecolor-adesk-attrib $-1 -1 $260 $-1 $131 -1030121063 #
vertex $-1 -1 $-1 $131 $261 #
vertex $-1 -1 $-1 $131 $262 #
ellipse-curve $-1 -1 $-1 3438.6348658563843 318.31468214499853 233.67605804173837 0.86518441077453034 1.4553476872710899e-11 -0.50145382175503372 10.487905415652079 1.8875594385535963 18.095329766496757 1 F -3.1415926535897931 F 0 #
coedge $-1 -1 $-1 $217 $217 $132 $196 reversed $151 $-1 #
edge $263 -1 $-1 $201 -3.1415926535897931 $204 0 $132 $264 forward @7 unknown #
coedge $-1 -1 $-1 $135 $133 $137 $206 reversed $199 $-1 #
coedge $-1 -1 $-1 $133 $135 $217 $265 forward $199 $-1 #
loop $-1 -1 $-1 $-1 $133 $266 #
truecolor-adesk-attrib $-1 -1 $267 $-1 $134 -1030121063 #
vertex $-1 -1 $-1 $134 $268 #
straight-curve $-1 -1 $-1 3456.7589864462384 315.97770379302688 193.2417091581396 865.18441077453031 1.4553476872710899e-08 -501.45382175503374 F -0.014956665371162079 F 4.3334628837921055e-05 #
truecolor-adesk-attrib $-1 -1 $269 $-1 $136 -1030121063 #
vertex $-1 -1 $-1 $196 $270 #
straight-curve $-1 -1 $-1 3482.7290379516621 320.65166049801672 238.04919238946491 865.18441077453031 1.4553476872710899e-08 -501.45382175503374 F -0.014956665371162079 F 4.3334628837921055e-05 #
edge $271 -1 $-1 $141 0 $140 3.1415926535897931 $137 $272 forward @7 unknown #
loop $-1 -1 $-1 $-1 $273 $208 #
face $274 -1 $-1 $266 $138 $3 $-1 $275 forward single #
color-adesk-attrib $-1 -1 $276 $139 $89 253 #
point $-1 -1 $-1 3443.8187127299375 315.97770379280922 200.74178616922001 #
point $-1 -1 $-1 3469.7887642353621 320.65166049779907 245.54926940054531 #
face $277 -1 $-1 $159 $145 $3 $-1 $278 forward single #
color-adesk-attrib $-1 -1 $279 $146 $92 253 #
color-adesk-attrib $-1 -1 $280 $148 $94 253 #
truecolor-adesk-attrib $-1 -1 $281 $-1 $150 -1030121063 #
ellipse-curve $-1 -1 $-1 3469.7815046442679 318.31468214552245 215.62372045855716 0.86518441077453034 1.4553476872710899e-11 -0.50145382175503372 17.479842359420122 3.1459323975893256 30.158882944161245 1 F -3.1415926535897931 F 1.2421417534208868e-16 #
coedge $-1 -1 $-1 $195 $195 $198 $265 reversed $151 $-1 #
truecolor-adesk-attrib $-1 -1 $282 $-1 $152 -1030121063 #
plane-surface $-1 -1 $-1 3470.9533913708106 292.41992336734552 217.64563769726431 0.86518441077453034 1.4553476872710899e-11 -0.50145382175503372 0.49942406741200362 0.089883782788266461 0.86168236983317859 forward_v I I I I #
DXID-attrib $-1 -1 $-1 $153 $57 @18 ASM_EDGE_FROM_STEP @5 33965 #
color-adesk-attrib $-1 -1 $283 $156 $101 253 #
truecolor-adesk-attrib $-1 -1 $284 $-1 $158 -1030121063 #
ellipse-curve $-1 -1 $-1 3468.9163202334935 318.3146821455079 216.12517428031219 0.86518441077453034 1.4553476872710899e-11 -0.50145382175503372 17.97926642683213 3.2358161803775927 31.020565313994428 1 F -3.1415926535897931 F 1.224646799147353e-16 #
truecolor-adesk-attrib $-1 -1 $285 $-1 $159 -1030121063 #
cone-surface $-1 -1 $-1 3469.7440121989507 318.31468214552183 215.64545077380222 0.86518441077453034 1.4553476872710899e-11 -0.50145382175503372 17.97926642683213 3.2358161803775927 31.020565313994428 1 I I 0 1 36 forward I I I I #
DXID-attrib $-1 -1 $-1 $160 $60 @18 ASM_EDGE_FROM_STEP @4 1819 #
DXID-attrib $-1 -1 $-1 $162 $62 @18 ASM_EDGE_FROM_STEP @5 13659 #
color-adesk-attrib $-1 -1 $286 $165 $114 253 #
color-adesk-attrib $-1 -1 $287 $167 $115 253 #
DXID-attrib $-1 -1 $-1 $171 $74 @18 ASM_EDGE_FROM_STEP @5 32358 #
coedge $-1 -1 $-1 $288 $173 $182 $245 forward $178 $-1 #
coedge $-1 -1 $-1 $173 $288 $181 $244 reversed $178 $-1 #
truecolor-adesk-attrib $-1 -1 $289 $-1 $174 -1030121063 #
vertex $-1 -1 $-1 $183 $290 #
vertex $-1 -1 $-1 $183 $291 #
ellipse-curve $-1 -1 $-1 3425.6570996947662 318.31468214478019 241.19786536806387 0.86518441077453034 1.4553476872710899e-11 -0.50145382175503372 12.985025752712101 2.3369783524949295 22.403741615662657 1 F 0 F 3.1415926535897931 #
DXID-attrib $-1 -1 $-1 $175 $76 @18 ASM_FACE_FROM_STEP @17 step-3M-249-27228 #
color-adesk-attrib $-1 -1 $292 $176 $122 253 #
truecolor-adesk-attrib $-1 -1 $293 $-1 $177 -1030121063 #
face $294 -1 $-1 $208 $252 $3 $-1 $295 reversed single #
loop $-1 -1 $-1 $190 $296 $177 #
plane-surface $-1 -1 $-1 3439.8067525829279 292.41992336682159 235.69797528044552 -0.86518441077453034 -1.4553476872710899e-11 0.50145382175503372 -0.49942406741200362 -0.089883782788266461 -0.86168236983317859 forward_v I I I I #
coedge $-1 -1 $-1 $182 $181 $297 $298 forward $83 $-1 #
edge $299 -1 $-1 $235 -0.050956665371162078 $300 -0.035956665371162086 $181 $301 forward @7 unknown #
edge $302 -1 $-1 $234 -0.050956665371162078 $303 -0.035956665371162086 $182 $304 forward @7 unknown #
truecolor-adesk-attrib $-1 -1 $305 $-1 $183 -1030121063 #
ellipse-curve $-1 -1 $-1 3425.6570996947662 318.31468214478019 241.19786536806387 0.86518441077453034 1.4553476872710899e-11 -0.50145382175503372 12.985025752712101 2.3369783524949295 22.403741615662657 1 F -3.1415926535897931 F 0 #
coedge $-1 -1 $-1 $273 $273 $184 $249 reversed $207 $-1 #
edge $306 -1 $-1 $254 -3.1415926535897931 $257 0 $184 $307 forward @7 unknown #
coedge $-1 -1 $-1 $187 $185 $189 $259 reversed $252 $-1 #
coedge $-1 -1 $-1 $185 $187 $273 $308 forward $252 $-1 #
loop $-1 -1 $-1 $-1 $185 $240 #
truecolor-adesk-attrib $-1 -1 $309 $-1 $186 -1030121063 #
vertex $-1 -1 $-1 $186 $310 #
straight-curve $-1 -1 $-1 3459.256106783298 316.42712270696819 197.55012100730551 865.18441077453031 1.4553476872710899e-08 -501.45382175503374 F -0.035956665371162086 F -0.014956665371162079 #
truecolor-adesk-attrib $-1 -1 $311 $-1 $188 -1030121063 #
vertex $-1 -1 $-1 $249 $312 #
straight-curve $-1 -1 $-1 3480.2319176146025 320.20224158407541 233.740780540299 865.18441077453031 1.4553476872710899e-08 -501.45382175503374 F -0.035956665371162086 F -0.014956665371162079 #
edge $313 -1 $-1 $193 0 $192 3.1415926535897931 $189 $314 forward @7 unknown #
color-adesk-attrib $-1 -1 $315 $191 $131 253 #
point $-1 -1 $-1 3428.1469604407325 316.42712270644489 215.5807282752416 #
point $-1 -1 $-1 3449.122771272037 320.20224158355211 251.77138780823512 #
truecolor-adesk-attrib $-1 -1 $316 $-1 $196 -1030121063 #
ellipse-curve $-1 -1 $-1 3469.7815046442679 318.31468214552245 215.62372045855716 0.86518441077453034 1.4553476872710899e-11 -0.50145382175503372 12.985025752712101 2.3369783524949295 22.403741615662657 1 F -3.1415926535897931 F 0 #
edge $317 -1 $-1 $204 0 $201 3.1415926535897931 $198 $318 forward @7 unknown #
face $319 -1 $-1 $152 $199 $3 $-1 $320 reversed single #
color-adesk-attrib $-1 -1 $321 $200 $134 253 #
point $-1 -1 $-1 3456.7964788915556 315.9777037930275 193.21997884289448 #
color-adesk-attrib $-1 -1 $322 $203 $136 253 #
point $-1 -1 $-1 3482.7665303969793 320.65166049801735 238.02746207421978 #
truecolor-adesk-attrib $-1 -1 $323 $-1 $206 -1030121063 #
ellipse-curve $-1 -1 $-1 3456.8037384826498 318.31468214530412 223.14552778488263 0.86518441077453034 1.4553476872710899e-11 -0.50145382175503372 12.985025752712097 2.3369783524949286 22.40374161566265 1 F 0 F 3.1415926535897931 #
coedge $-1 -1 $-1 $248 $248 $251 $308 reversed $207 $-1 #
truecolor-adesk-attrib $-1 -1 $324 $-1 $208 -1030121063 #
plane-surface $-1 -1 $-1 3457.7502623771657 297.39968467062278 224.77861478537693 0.86518441077453034 1.4553476872710899e-11 -0.50145382175503372 0.49942406741200362 0.089883782788266461 0.86168236983317859 forward_v I I I I #
DXID-attrib $-1 -1 $-1 $209 $89 @18 ASM_EDGE_FROM_STEP @5 36222 #
truecolor-adesk-attrib $-1 -1 $325 $-1 $212 -1030121063 #
cone-surface $-1 -1 $-1 3469.7815046442679 318.31468214552245 215.62372045855716 -0.86518441077453034 -1.4553476872710899e-11 0.50145382175503372 -17.479842359420122 -3.1459323975893256 -30.158882944161245 1 I I 0.70710678118654757 0.70710678118654757 34.999999999999993 forward I I I I #
DXID-attrib $-1 -1 $-1 $213 $92 @18 ASM_EDGE_FROM_STEP @5 31280 #
DXID-attrib $-1 -1 $-1 $214 $94 @18 ASM_EDGE_FROM_STEP @5 11147 #
color-adesk-attrib $-1 -1 $326 $215 $150 253 #
color-adesk-attrib $-1 -1 $327 $218 $152 253 #
DXID-attrib $-1 -1 $-1 $221 $101 @18 ASM_EDGE_FROM_STEP @5 20500 #
color-adesk-attrib $-1 -1 $328 $222 $158 253 #
color-adesk-attrib $-1 -1 $329 $224 $159 253 #
DXID-attrib $-1 -1 $-1 $228 $114 @18 ASM_EDGE_FROM_STEP @5 39595 #
DXID-attrib $-1 -1 $-1 $229 $115 @18 ASM_FACE_FROM_STEP @17 step-3M-249-21403 #
coedge $-1 -1 $-1 $232 $231 $296 $330 forward $178 $-1 #
color-adesk-attrib $-1 -1 $331 $233 $174 253 #
point $-1 -1 $-1 3438.6421254474785 320.65166049727515 263.60160698372653 #
point $-1 -1 $-1 3412.6720739420548 315.9777037922853 218.79412375240122 #
DXID-attrib $-1 -1 $-1 $238 $122 @18 ASM_FACE_FROM_STEP @17 step-3M-249-18900 #
color-adesk-attrib $-1 -1 $332 $239 $177 253 #
truecolor-adesk-attrib $-1 -1 $333 $-1 $240 -1030121063 #
cone-surface $-1 -1 $-1 3469.7440121989507 318.31468214552183 215.64545077380222 0.86518441077453034 1.4553476872710899e-11 -0.50145382175503372 10.487905415652079 1.8875594385535963 18.095329766496757 1 I I 0 1 21.000000000000007 forward I I I I #
coedge $-1 -1 $-1 $297 $297 $288 $330 reversed $241 $-1 #
coedge $-1 -1 $-1 $296 $296 $243 $298 reversed $241 $-1 #
edge $334 -1 $-1 $300 -3.1415926535897931 $303 0 $243 $335 forward @7 unknown #
truecolor-adesk-attrib $-1 -1 $336 $-1 $244 -1030121063 #
vertex $-1 -1 $-1 $244 $337 #
straight-curve $-1 -1 $-1 3456.7589864462384 315.97770379302688 193.2417091581396 865.18441077453031 1.4553476872710899e-08 -501.45382175503374 F -0.050956665371162078 F -0.035956665371162086 #
truecolor-adesk-attrib $-1 -1 $338 $-1 $245 -1030121063 #
vertex $-1 -1 $-1 $298 $339 #
straight-curve $-1 -1 $-1 3482.7290379516621 320.65166049801672 238.04919238946491 865.18441077453031 1.4553476872710899e-08 -501.45382175503374 F -0.050956665371162078 F -0.035956665371162086 #
color-adesk-attrib $-1 -1 $340 $246 $183 253 #
truecolor-adesk-attrib $-1 -1 $341 $-1 $249 -1030121063 #
ellipse-curve $-1 -1 $-1 3456.8037384826498 318.31468214530412 223.14552778488263 0.86518441077453034 1.4553476872710899e-11 -0.50145382175503372 10.487905415652079 1.8875594385535963 18.095329766496757 1 F -3.1415926535897931 F 0 #
edge $342 -1 $-1 $257 0 $254 3.1415926535897931 $251 $343 forward @7 unknown #
color-adesk-attrib $-1 -1 $344 $253 $186 253 #
point $-1 -1 $-1 3446.3158330669971 316.42712270675054 205.05019801838591 #
color-adesk-attrib $-1 -1 $345 $256 $188 253 #
point $-1 -1 $-1 3467.2916438983016 320.20224158385776 241.24085755137941 #
truecolor-adesk-attrib $-1 -1 $346 $-1 $259 -1030121063 #
ellipse-curve $-1 -1 $-1 3438.6348658563843 318.31468214499853 233.67605804173837 0.86518441077453034 1.4553476872710899e-11 -0.50145382175503372 10.487905415652079 1.8875594385535963 18.095329766496757 1 F 0 F 3.1415926535897931 #
DXID-attrib $-1 -1 $-1 $260 $131 @18 ASM_EDGE_FROM_STEP @5 25157 #
color-adesk-attrib $-1 -1 $347 $263 $196 253 #
truecolor-adesk-attrib $-1 -1 $348 $-1 $265 -1030121063 #
ellipse-curve $-1 -1 $-1 3469.7815046442679 318.31468214552245 215.62372045855716 0.86518441077453034 1.4553476872710899e-11 -0.50145382175503372 12.985025752712101 2.3369783524949295 22.403741615662657 1 F 0 F 3.1415926535897931 #
truecolor-adesk-attrib $-1 -1 $349 $-1 $266 -1030121063 #
cone-surface $-1 -1 $-1 3469.7440121989507 318.31468214552183 215.64545077380222 0.86518441077453034 1.4553476872710899e-11 -0.50145382175503372 12.985025752712101 2.3369783524949295 22.403741615662657 1 I I 0 1 26.000000000000014 forward I I I I #
DXID-attrib $-1 -1 $-1 $267 $134 @18 ASM_EDGE_FROM_STEP @4 6917 #
DXID-attrib $-1 -1 $-1 $269 $136 @18 ASM_EDGE_FROM_STEP @5 12143 #
color-adesk-attrib $-1 -1 $350 $271 $206 253 #
color-adesk-attrib $-1 -1 $351 $274 $208 253 #
color-adesk-attrib $-1 -1 $352 $277 $212 253 #
DXID-attrib $-1 -1 $-1 $281 $150 @18 ASM_EDGE_FROM_STEP @5 27744 #
DXID-attrib $-1 -1 $-1 $282 $152 @18 ASM_FACE_FROM_STEP @17 step-3M-249-26005 #
DXID-attrib $-1 -1 $-1 $284 $158 @18 ASM_EDGE_FROM_STEP @5 20325 #
DXID-attrib $-1 -1 $-1 $285 $159 @18 ASM_FACE_FROM_STEP @17 step-3M-249-16638 #
edge $353 -1 $-1 $303 0 $300 3.1415926535897931 $288 $354 forward @7 unknown #
DXID-attrib $-1 -1 $-1 $289 $174 @18 ASM_EDGE_FROM_STEP @5 41026 #
DXID-attrib $-1 -1 $-1 $293 $177 @18 ASM_FACE_FROM_STEP @17 step-3M-249-18446 #
color-adesk-attrib $-1 -1 $355 $294 $240 253 #
truecolor-adesk-attrib $-1 -1 $356 $-1 $298 -1030121063 #
ellipse-curve $-1 -1 $-1 3438.6348658563843 318.31468214499853 233.67605804173837 0.86518441077453034 1.4553476872710899e-11 -0.50145382175503372 12.985025752712097 2.3369783524949286 22.40374161566265 1 F -3.1415926535897931 F 0 #
color-adesk-attrib $-1 -1 $357 $299 $244 253 #
point $-1 -1 $-1 3425.649840103672 315.97770379250358 211.27231642607569 #
color-adesk-attrib $-1 -1 $358 $302 $245 253 #
point $-1 -1 $-1 3451.6198916090966 320.65166049749342 256.079799657401 #
DXID-attrib $-1 -1 $-1 $305 $183 @18 ASM_EDGE_FROM_STEP @5 33338 #
color-adesk-attrib $-1 -1 $359 $306 $249 253 #
truecolor-adesk-attrib $-1 -1 $360 $-1 $308 -1030121063 #
ellipse-curve $-1 -1 $-1 3456.8037384826498 318.31468214530412 223.14552778488263 0.86518441077453034 1.4553476872710899e-11 -0.50145382175503372 10.487905415652079 1.8875594385535963 18.095329766496757 1 F 0 F 3.1415926535897931 #
DXID-attrib $-1 -1 $-1 $309 $186 @18 ASM_EDGE_FROM_STEP @5 23196 #
DXID-attrib $-1 -1 $-1 $311 $188 @18 ASM_EDGE_FROM_STEP @5 21626 #
color-adesk-attrib $-1 -1 $361 $313 $259 253 #
DXID-attrib $-1 -1 $-1 $316 $196 @18 ASM_EDGE_FROM_STEP @5 10243 #
color-adesk-attrib $-1 -1 $362 $317 $265 253 #
color-adesk-attrib $-1 -1 $363 $319 $266 253 #
DXID-attrib $-1 -1 $-1 $323 $206 @18 ASM_EDGE_FROM_STEP @5 45037 #
DXID-attrib $-1 -1 $-1 $324 $208 @18 ASM_FACE_FROM_STEP @17 step-3M-249-39738 #
DXID-attrib $-1 -1 $-1 $325 $212 @18 ASM_FACE_FROM_STEP @16 step-3M-249-5638 #
truecolor-adesk-attrib $-1 -1 $364 $-1 $330 -1030121063 #
ellipse-curve $-1 -1 $-1 3438.6348658563843 318.31468214499853 233.67605804173837 0.86518441077453034 1.4553476872710899e-11 -0.50145382175503372 12.985025752712097 2.3369783524949286 22.40374161566265 1 F 0 F 3.1415926535897931 #
DXID-attrib $-1 -1 $-1 $333 $240 @18 ASM_FACE_FROM_STEP @16 step-3M-249-4975 #
color-adesk-attrib $-1 -1 $365 $334 $298 253 #
DXID-attrib $-1 -1 $-1 $336 $244 @18 ASM_EDGE_FROM_STEP @5 42345 #
DXID-attrib $-1 -1 $-1 $338 $245 @18 ASM_EDGE_FROM_STEP @4 2224 #
DXID-attrib $-1 -1 $-1 $341 $249 @18 ASM_EDGE_FROM_STEP @5 42350 #
color-adesk-attrib $-1 -1 $366 $342 $308 253 #
DXID-attrib $-1 -1 $-1 $346 $259 @18 ASM_EDGE_FROM_STEP @4 2303 #
DXID-attrib $-1 -1 $-1 $348 $265 @18 ASM_EDGE_FROM_STEP @5 33555 #
DXID-attrib $-1 -1 $-1 $349 $266 @18 ASM_FACE_FROM_STEP @16 step-3M-249-8227 #
color-adesk-attrib $-1 -1 $367 $353 $330 253 #
DXID-attrib $-1 -1 $-1 $356 $298 @18 ASM_EDGE_FROM_STEP @5 39352 #
DXID-attrib $-1 -1 $-1 $360 $308 @18 ASM_EDGE_FROM_STEP @5 24706 #
DXID-attrib $-1 -1 $-1 $364 $330 @18 ASM_EDGE_FROM_STEP @4 9643 #
