700 597 1 0         
5 ZWCAD 12 ACIS 28.0 NT 24 Sat May 11 14:44:31 2024 
1 9.9999999999999995e-07 1e-10 
body $1 -1 $-1 $2 $-1 $-1 #
DXID-attrib $-1 -1 $-1 $-1 $0 @18 ASM_BODY_FROM_STEP @83 2DCE00830B5B9E04A02E70DEDD456D3CA4712134|:|0260B668D889EBDE4E6FB7CDCD265BBE0D083FF9 #
lump $-1 -1 $-1 $-1 $3 $0 #
shell $-1 -1 $-1 $-1 $-1 $4 $-1 $2 #
face $5 -1 $-1 $6 $7 $3 $-1 $8 forward single #
color-adesk-attrib $-1 -1 $9 $-1 $4 7 #
face $10 -1 $-1 $11 $12 $3 $-1 $13 forward single #
loop $-1 -1 $-1 $-1 $14 $4 #
cone-surface $-1 -1 $-1 71.67502788479274 199.04059759695136 318.20379725700269 -1.7742117283564717e-12 -0.99750723801175567 -0.070564226872819519 1.2550874234226645e-12 0.70564226872819513 -9.975072380117556 1 I I 0 1 10 forward I I I I #
DXID-attrib $-1 -1 $-1 $5 $4 @18 ASM_FACE_FROM_STEP @16 step-1M-819-2175 #
color-adesk-attrib $-1 -1 $15 $-1 $6 7 #
face $16 -1 $-1 $17 $18 $3 $-1 $19 forward single #
loop $-1 -1 $-1 $-1 $20 $6 #
torus-surface $-1 -1 $-1 71.675027885146605 397.98804604218105 332.27745241748016 -1.7742117283564717e-12 -0.99750723801175567 -0.070564226872819519 -14.894461640376102 200 1.2550874234226645e-13 0.070564226872819519 -0.99750723801175567 forward_v I I I I #
coedge $-1 -1 $-1 $21 $22 $23 $24 forward $7 $-1 #
DXID-attrib $-1 -1 $-1 $10 $6 @18 ASM_FACE_FROM_STEP @15 step-1M-819-720 #
color-adesk-attrib $-1 -1 $25 $-1 $11 7 #
face $26 -1 $-1 $27 $28 $3 $-1 $29 reversed single #
loop $-1 -1 $-1 $-1 $30 $11 #
cone-surface $-1 -1 $-1 71.67502788479274 199.04059759695136 318.20379725700269 -1.7742117283564717e-12 -0.99750723801175567 -0.070564226872819519 9.4131556756699838e-13 0.5292317015461464 -7.4813042850881679 1 I I 0 1 7.5 forward I I I I #
coedge $-1 -1 $-1 $31 $32 $33 $34 forward $12 $-1 #
coedge $-1 -1 $-1 $33 $14 $35 $36 forward $7 $-1 #
coedge $-1 -1 $-1 $14 $33 $37 $38 reversed $7 $-1 #
coedge $-1 -1 $-1 $39 $39 $14 $24 reversed $40 $-1 #
edge $41 -1 $-1 $42 0 $43 3.1415926535897931 $14 $44 forward @7 unknown #
DXID-attrib $-1 -1 $-1 $16 $11 @18 ASM_FACE_FROM_STEP @17 step-1M-819-11699 #
color-adesk-attrib $-1 -1 $45 $-1 $17 7 #
face $46 -1 $-1 $47 $48 $3 $-1 $49 forward single #
loop $-1 -1 $-1 $-1 $50 $17 #
cone-surface $-1 -1 $-1 71.67502788479274 199.04059759695136 318.20379725700269 -1.7742117283564717e-12 -0.99750723801175567 -0.070564226872819519 8.1580682522473193e-13 0.45866747467332686 -6.4837970470764121 1 I I 0 1 6.5 forward I I I I #
coedge $-1 -1 $-1 $51 $52 $53 $54 forward $18 $-1 #
coedge $-1 -1 $-1 $32 $20 $55 $56 forward $12 $-1 #
coedge $-1 -1 $-1 $20 $31 $57 $58 reversed $12 $-1 #
coedge $-1 -1 $-1 $22 $21 $20 $34 reversed $7 $-1 #
edge $59 -1 $-1 $60 0 $61 3.1415926535897931 $33 $62 forward @7 unknown #
coedge $-1 -1 $-1 $63 $64 $21 $36 reversed $65 $-1 #
edge $66 -1 $-1 $43 -0.002 $61 -0.0010000000000000135 $21 $67 forward @7 unknown #
coedge $-1 -1 $-1 $64 $63 $22 $38 forward $65 $-1 #
edge $68 -1 $-1 $42 -0.002 $60 -0.0010000000000000135 $22 $69 forward @7 unknown #
coedge $-1 -1 $-1 $23 $23 $63 $70 reversed $40 $-1 #
loop $-1 -1 $-1 $71 $23 $72 #
color-adesk-attrib $-1 -1 $73 $-1 $24 7 #
vertex $-1 -1 $-1 $24 $74 #
vertex $-1 -1 $-1 $24 $75 #
ellipse-curve $-1 -1 $-1 71.675027884796293 201.03561207297486 318.34492571074833 -1.7742117283564717e-12 -0.99750723801175567 -0.070564226872819519 1.2550874234226645e-12 0.70564226872819513 -9.975072380117556 1 F 0 F 3.1415926535897931 #
DXID-attrib $-1 -1 $-1 $26 $17 @18 ASM_FACE_FROM_STEP @17 step-1M-819-10445 #
color-adesk-attrib $-1 -1 $76 $-1 $27 7 #
face $77 -1 $-1 $78 $79 $3 $-1 $80 forward single #
loop $-1 -1 $-1 $-1 $81 $27 #
plane-surface $-1 -1 $-1 71.675027884817567 213.00569892911594 319.19169643322215 1.7742117283564717e-12 0.99750723801175567 0.070564226872819519 -1.2550874234226645e-13 -0.070564226872819519 0.99750723801175567 forward_v I I I I #
coedge $-1 -1 $-1 $82 $83 $84 $85 reversed $28 $-1 #
coedge $-1 -1 $-1 $86 $30 $87 $88 forward $18 $-1 #
coedge $-1 -1 $-1 $30 $86 $89 $90 reversed $18 $-1 #
coedge $-1 -1 $-1 $91 $92 $30 $54 reversed $79 $-1 #
edge $93 -1 $-1 $94 -0.33983690945412193 $95 0 $30 $96 forward @7 unknown #
coedge $-1 -1 $-1 $97 $57 $31 $56 reversed $98 $-1 #
edge $99 -1 $-1 $61 -1.6955923124166739 $100 -1.6453376461554434 $31 $101 forward @7 unknown #
coedge $-1 -1 $-1 $55 $97 $32 $58 forward $98 $-1 #
edge $102 -1 $-1 $60 -1.6955923124166739 $100 -1.6453376461554434 $32 $103 forward @7 unknown #
color-adesk-attrib $-1 -1 $104 $-1 $34 7 #
vertex $-1 -1 $-1 $34 $105 #
vertex $-1 -1 $-1 $36 $106 #
ellipse-curve $-1 -1 $-1 71.675027884794517 200.03810483496309 318.27436148387551 -1.7742117283564717e-12 -0.99750723801175567 -0.070564226872819519 1.2550874234226645e-12 0.70564226872819513 -9.975072380117556 1 F 0 F 3.1415926535897931 #
coedge $-1 -1 $-1 $37 $35 $39 $70 forward $65 $-1 #
coedge $-1 -1 $-1 $35 $37 $97 $107 reversed $65 $-1 #
loop $-1 -1 $-1 $-1 $35 $108 #
color-adesk-attrib $-1 -1 $109 $-1 $36 7 #
straight-curve $-1 -1 $-1 71.67502788479149 198.33495532822315 328.17886963712027 -1.7742117283564716e-09 -997.5072380117557 -70.564226872819518 F -0.002 F -0.0010000000000000135 #
color-adesk-attrib $-1 -1 $110 $-1 $38 7 #
straight-curve $-1 -1 $-1 71.675027884794005 199.74623986567954 308.22872487688511 -1.7742117283564716e-09 -997.5072380117557 -70.564226872819518 F -0.002 F -0.0010000000000000135 #
edge $111 -1 $-1 $43 -3.1415926535897931 $42 0 $39 $112 forward @7 unknown #
loop $-1 -1 $-1 $113 $114 $72 #
face $115 -1 $-1 $116 $40 $3 $-1 $117 reversed single #
DXID-attrib $-1 -1 $-1 $41 $24 @18 ASM_EDGE_FROM_STEP @4 5710 #
point $-1 -1 $-1 71.675027884797544 201.74125434170304 308.36985333063075 #
point $-1 -1 $-1 71.675027884795043 200.32996980424667 328.31999809086591 #
DXID-attrib $-1 -1 $-1 $46 $27 @18 ASM_FACE_FROM_STEP @16 step-1M-819-4324 #
color-adesk-attrib $-1 -1 $118 $-1 $47 7 #
face $119 -1 $-1 $120 $121 $3 $-1 $122 forward single #
loop $-1 -1 $-1 $-1 $123 $47 #
plane-surface $-1 -1 $-1 71.675027884817567 213.00569892911594 319.19169643322215 1.7742117283564717e-12 0.99750723801175567 0.070564226872819519 -1.2550874234226645e-13 -0.070564226872819519 0.99750723801175567 forward_v I I I I #
coedge $-1 -1 $-1 $124 $125 $126 $127 forward $48 $-1 #
coedge $-1 -1 $-1 $128 $50 $129 $130 forward $28 $-1 #
coedge $-1 -1 $-1 $50 $128 $131 $132 reversed $28 $-1 #
coedge $-1 -1 $-1 $123 $133 $50 $85 forward $79 $-1 #
edge $134 -1 $-1 $135 0 $136 0.39479111969976149 $50 $137 forward @7 unknown #
coedge $-1 -1 $-1 $52 $51 $138 $139 reversed $18 $-1 #
coedge $-1 -1 $-1 $140 $141 $51 $88 reversed $142 $-1 #
edge $143 -1 $-1 $95 -0.013999999999999999 $144 -0.002 $51 $145 forward @7 unknown #
coedge $-1 -1 $-1 $146 $147 $52 $90 forward $148 $-1 #
edge $149 -1 $-1 $94 0 $150 0.012 $52 $151 forward @7 unknown #
coedge $-1 -1 $-1 $133 $53 $147 $152 reversed $79 $-1 #
coedge $-1 -1 $-1 $53 $123 $140 $153 reversed $79 $-1 #
color-adesk-attrib $-1 -1 $154 $-1 $54 7 #
vertex $-1 -1 $-1 $54 $155 #
vertex $-1 -1 $-1 $54 $156 #
ellipse-curve $-1 -1 $-1 71.675027884817581 213.00569892911594 319.19169643322215 -1.7742117283564717e-12 -0.99750723801175567 -0.070564226872819519 9.4131556756699838e-13 0.5292317015461464 -7.4813042850881679 1 F -0.33983690945412193 F 0 #
coedge $-1 -1 $-1 $57 $55 $64 $107 forward $98 $-1 #
loop $-1 -1 $-1 $-1 $55 $116 #
color-adesk-attrib $-1 -1 $157 $-1 $56 7 #
vertex $-1 -1 $-1 $56 $158 #
ellipse-curve $-1 -1 $-1 71.675027885148467 399.03906221252112 317.42011912491654 1 -1.7786368265446317e-12 -1.2215940461574135e-16 2.5077255532470343e-11 14.112845374563904 -199.50144760235113 1 F -1.6955923124166739 F -1.6453376461554434 #
color-adesk-attrib $-1 -1 $159 $-1 $58 7 #
ellipse-curve $-1 -1 $-1 71.675027885144729 396.9370298718411 347.13478571004373 -1 1.7786454681700891e-12 0 -2.510174846845329e-11 -14.112845374563904 199.50144760235113 1 F -1.6955923124166739 F -1.6453376461554434 #
DXID-attrib $-1 -1 $-1 $59 $34 @18 ASM_EDGE_FROM_STEP @4 3068 #
point $-1 -1 $-1 71.675027884795767 200.74374710369131 308.29928910375799 #
point $-1 -1 $-1 71.675027884793266 199.33246256623491 328.24943386399303 #
edge $160 -1 $-1 $61 -3.1415926535897931 $60 0 $97 $161 forward @7 unknown #
face $162 -1 $-1 $163 $65 $3 $-1 $164 forward single #
DXID-attrib $-1 -1 $-1 $66 $36 @18 ASM_EDGE_FROM_STEP @4 6361 #
DXID-attrib $-1 -1 $-1 $68 $38 @18 ASM_EDGE_FROM_STEP @3 698 #
color-adesk-attrib $-1 -1 $165 $-1 $70 7 #
ellipse-curve $-1 -1 $-1 71.675027884796293 201.03561207297486 318.34492571074833 -1.7742117283564717e-12 -0.99750723801175567 -0.070564226872819519 1.2550874234226645e-12 0.70564226872819513 -9.975072380117556 1 F -3.1415926535897931 F 0 #
loop $-1 -1 $-1 $166 $167 $72 #
coedge $-1 -1 $-1 $168 $169 $170 $171 reversed $71 $-1 #
color-adesk-attrib $-1 -1 $172 $-1 $72 7 #
face $173 -1 $-1 $108 $98 $3 $-1 $174 forward single #
plane-surface $-1 -1 $-1 71.675027884796293 201.03561207297486 318.34492571074833 -1.7742117283564717e-12 -0.99750723801175567 -0.070564226872819519 1.2550874234226645e-13 0.070564226872819519 -0.99750723801175567 forward_v I I I I #
DXID-attrib $-1 -1 $-1 $77 $47 @18 ASM_FACE_FROM_STEP @16 step-1M-819-1502 #
color-adesk-attrib $-1 -1 $175 $-1 $78 7 #
face $176 -1 $-1 $177 $178 $3 $-1 $179 forward single #
loop $-1 -1 $-1 $-1 $180 $78 #
plane-surface $-1 -1 $-1 71.675027884817567 213.00569892911594 319.19169643322215 1.7742117283564717e-12 0.99750723801175567 0.070564226872819519 -1.2550874234226645e-13 -0.070564226872819519 0.99750723801175567 forward_v I I I I #
coedge $-1 -1 $-1 $92 $84 $181 $182 forward $79 $-1 #
coedge $-1 -1 $-1 $183 $81 $184 $185 forward $48 $-1 #
coedge $-1 -1 $-1 $81 $183 $186 $187 reversed $48 $-1 #
coedge $-1 -1 $-1 $188 $189 $81 $127 reversed $190 $-1 #
edge $191 -1 $-1 $192 -0.0070710678118654753 $193 -0.0060000000000000001 $81 $194 forward @7 unknown #
coedge $-1 -1 $-1 $83 $82 $195 $196 forward $28 $-1 #
coedge $-1 -1 $-1 $197 $198 $82 $130 reversed $199 $-1 #
edge $200 -1 $-1 $135 -0.013999999999999999 $201 -0.002 $82 $202 forward @7 unknown #
coedge $-1 -1 $-1 $203 $181 $83 $132 forward $204 $-1 #
edge $205 -1 $-1 $136 0 $206 0.012 $83 $207 forward @7 unknown #
coedge $-1 -1 $-1 $84 $91 $197 $208 forward $79 $-1 #
color-adesk-attrib $-1 -1 $209 $-1 $85 7 #
vertex $-1 -1 $-1 $85 $210 #
vertex $-1 -1 $-1 $85 $211 #
ellipse-curve $-1 -1 $-1 71.675027884817581 213.00569892911594 319.19169643322215 -1.7742117283564717e-12 -0.99750723801175567 -0.070564226872819519 8.1580682522473193e-13 0.45866747467332686 -6.4837970470764121 1 F 0 F 0.39479111969976149 #
coedge $-1 -1 $-1 $212 $213 $86 $139 forward $113 $-1 #
edge $214 -1 $-1 $150 -0.33983690945412182 $144 0 $86 $215 forward @7 unknown #
coedge $-1 -1 $-1 $216 $87 $92 $153 forward $142 $-1 #
coedge $-1 -1 $-1 $87 $216 $212 $217 reversed $142 $-1 #
loop $-1 -1 $-1 $-1 $87 $218 #
color-adesk-attrib $-1 -1 $219 $-1 $88 7 #
vertex $-1 -1 $-1 $88 $220 #
straight-curve $-1 -1 $-1 71.675027884793693 199.5698292984975 310.72249297191451 -1.7742117283564716e-09 -997.5072380117557 -70.564226872819518 F -0.013999999999999999 F -0.002 #
coedge $-1 -1 $-1 $221 $89 $213 $222 reversed $148 $-1 #
coedge $-1 -1 $-1 $89 $221 $91 $152 forward $148 $-1 #
loop $-1 -1 $-1 $-1 $146 $163 #
color-adesk-attrib $-1 -1 $223 $-1 $90 7 #
vertex $-1 -1 $-1 $139 $224 #
straight-curve $-1 -1 $-1 69.175027884818476 213.50466336242994 312.13825511041438 -1.7742117283564716e-09 -997.5072380117557 -70.564226872819518 F 0 F 0.012 #
edge $225 -1 $-1 $226 0.0060000000000000001 $94 0.0070710678118654753 $91 $227 forward @7 unknown #
edge $228 -1 $-1 $95 0 $229 0.33983690945412193 $92 $230 forward @7 unknown #
DXID-attrib $-1 -1 $-1 $93 $54 @18 ASM_EDGE_FROM_STEP @5 11884 #
point $-1 -1 $-1 69.175027884818476 213.50466336242994 312.13825511041438 #
point $-1 -1 $-1 71.675027884818519 213.53493063066207 311.71039214813402 #
DXID-attrib $-1 -1 $-1 $99 $56 @18 ASM_EDGE_FROM_STEP @5 10786 #
point $-1 -1 $-1 71.67502788479274 199.04059759695136 318.20379725700269 #
DXID-attrib $-1 -1 $-1 $102 $58 @18 ASM_EDGE_FROM_STEP @4 5603 #
color-adesk-attrib $-1 -1 $231 $-1 $107 7 #
ellipse-curve $-1 -1 $-1 71.675027884794517 200.03810483496309 318.27436148387551 -1.7742117283564717e-12 -0.99750723801175567 -0.070564226872819519 1.2550874234226645e-12 0.70564226872819513 -9.975072380117556 1 F -3.1415926535897931 F 0 #
color-adesk-attrib $-1 -1 $232 $-1 $108 7 #
face $233 -1 $-1 $234 $148 $3 $-1 $235 forward single #
cone-surface $-1 -1 $-1 71.67502788479274 199.04059759695136 318.20379725700269 -1.7742117283564717e-12 -0.99750723801175567 -0.070564226872819519 1.2550874234226645e-12 0.70564226872819513 -9.975072380117556 1 I I 0 1 10 forward I I I I #
DXID-attrib $-1 -1 $-1 $111 $70 @18 ASM_EDGE_FROM_STEP @4 8815 #
loop $-1 -1 $-1 $236 $237 $72 #
coedge $-1 -1 $-1 $195 $212 $203 $238 reversed $113 $-1 #
coedge $-1 -1 $-1 $239 $114 $240 $241 reversed $71 $-1 #
coedge $-1 -1 $-1 $114 $239 $242 $243 forward $71 $-1 #
coedge $-1 -1 $-1 $244 $245 $114 $171 forward $246 $-1 #
edge $247 -1 $-1 $248 1.176005207095135 $249 1.9655874464946581 $170 $250 forward @7 unknown #
DXID-attrib $-1 -1 $-1 $115 $72 @18 ASM_FACE_FROM_STEP @16 step-1M-819-3302 #
color-adesk-attrib $-1 -1 $251 $-1 $116 7 #
torus-surface $-1 -1 $-1 71.675027885146605 397.98804604218105 332.27745241748016 -1.7742117283564717e-12 -0.99750723801175567 -0.070564226872819519 -14.894461640376102 200 1.2550874234226645e-13 0.070564226872819519 -0.99750723801175567 forward_v I I I I #
DXID-attrib $-1 -1 $-1 $119 $78 @18 ASM_FACE_FROM_STEP @16 step-1M-819-5333 #
color-adesk-attrib $-1 -1 $252 $-1 $120 7 #
face $253 -1 $-1 $254 $246 $3 $-1 $255 reversed single #
loop $-1 -1 $-1 $-1 $256 $120 #
plane-surface $-1 -1 $-1 71.675027884817567 213.00569892911594 319.19169643322215 1.7742117283564717e-12 0.99750723801175567 0.070564226872819519 -1.2550874234226645e-13 -0.070564226872819519 0.99750723801175567 forward_v I I I I #
coedge $-1 -1 $-1 $257 $258 $259 $260 reversed $121 $-1 #
coedge $-1 -1 $-1 $131 $261 $123 $182 reversed $204 $-1 #
edge $262 -1 $-1 $136 0.0060000000000000001 $229 0.0070710678118654753 $123 $263 forward @7 unknown #
coedge $-1 -1 $-1 $125 $124 $264 $265 reversed $48 $-1 #
coedge $-1 -1 $-1 $245 $244 $124 $185 reversed $246 $-1 #
edge $266 -1 $-1 $193 1.176005207095135 $267 1.9655874464946581 $124 $268 forward @7 unknown #
coedge $-1 -1 $-1 $269 $270 $125 $187 forward $271 $-1 #
edge $272 -1 $-1 $192 1.2309594173407747 $273 1.9106332362490186 $125 $274 forward @7 unknown #
coedge $-1 -1 $-1 $240 $126 $270 $275 forward $190 $-1 #
coedge $-1 -1 $-1 $126 $240 $245 $276 reversed $190 $-1 #
loop $-1 -1 $-1 $-1 $240 $277 #
color-adesk-attrib $-1 -1 $278 $-1 $127 7 #
vertex $-1 -1 $-1 $127 $279 #
vertex $-1 -1 $-1 $127 $280 #
straight-curve $-1 -1 $-1 71.675027884817894 213.18210949629798 316.69792833819275 -1000 1.7786454681700891e-09 0 F -0.0070710678118654753 F -0.0060000000000000001 #
coedge $-1 -1 $-1 $281 $167 $128 $196 reversed $113 $-1 #
edge $282 -1 $-1 $201 0 $206 0.39479111969976149 $128 $283 forward @7 unknown #
coedge $-1 -1 $-1 $284 $129 $133 $208 reversed $199 $-1 #
coedge $-1 -1 $-1 $129 $284 $281 $285 forward $199 $-1 #
loop $-1 -1 $-1 $-1 $129 $254 #
color-adesk-attrib $-1 -1 $286 $-1 $130 7 #
vertex $-1 -1 $-1 $130 $287 #
straight-curve $-1 -1 $-1 71.675027884793565 199.49926507162468 311.7200002099263 -1.7742117283564716e-09 -997.5072380117557 -70.564226872819518 F -0.013999999999999999 F -0.002 #
coedge $-1 -1 $-1 $261 $131 $167 $238 forward $204 $-1 #
loop $-1 -1 $-1 $-1 $203 $288 #
color-adesk-attrib $-1 -1 $289 $-1 $132 7 #
vertex $-1 -1 $-1 $196 $290 #
straight-curve $-1 -1 $-1 74.175027884818334 213.42908429034838 313.20665300515162 -1.7742117283564716e-09 -997.5072380117557 -70.564226872819518 F 0 F 0.012 #
edge $291 -1 $-1 $226 -0.39479111969976149 $135 0 $133 $292 forward @7 unknown #
DXID-attrib $-1 -1 $-1 $134 $85 @18 ASM_EDGE_FROM_STEP @5 12980 #
point $-1 -1 $-1 71.675027884818405 213.46436640378926 312.70789938614575 #
point $-1 -1 $-1 74.175027884818334 213.42908429034838 313.20665300515162 #
coedge $-1 -1 $-1 $167 $138 $141 $217 forward $113 $-1 #
coedge $-1 -1 $-1 $138 $281 $146 $222 forward $113 $-1 #
color-adesk-attrib $-1 -1 $293 $-1 $139 7 #
ellipse-curve $-1 -1 $-1 71.675027884796293 201.03561207297486 318.34492571074833 -1.7742117283564717e-12 -0.99750723801175567 -0.070564226872819519 9.4131556756699838e-13 0.5292317015461464 -7.4813042850881679 1 F -0.33983690945412182 F 0 #
coedge $-1 -1 $-1 $141 $140 $261 $294 forward $142 $-1 #
edge $295 -1 $-1 $144 0 $296 0.33983690945412193 $141 $297 forward @7 unknown #
face $298 -1 $-1 $299 $142 $3 $-1 $300 forward single #
DXID-attrib $-1 -1 $-1 $143 $88 @18 ASM_EDGE_FROM_STEP @4 3134 #
point $-1 -1 $-1 71.675027884797231 201.56484377452099 310.86362142566014 #
coedge $-1 -1 $-1 $147 $146 $284 $301 reversed $148 $-1 #
edge $302 -1 $-1 $303 0.0060000000000000001 $150 0.0070710678118654771 $213 $304 forward @7 unknown #
DXID-attrib $-1 -1 $-1 $149 $90 @18 ASM_EDGE_FROM_STEP @4 6102 #
point $-1 -1 $-1 69.175027884797174 201.53457650628886 311.29148438794056 #
color-adesk-attrib $-1 -1 $305 $-1 $152 7 #
vertex $-1 -1 $-1 $152 $306 #
straight-curve $-1 -1 $-1 69.175027884817581 213.00569892912037 319.19169643322215 1.2550874234226645e-10 70.564226872819518 -997.5072380117557 F 0.0060000000000000001 F 0.0070710678118654753 #
color-adesk-attrib $-1 -1 $307 $-1 $153 7 #
vertex $-1 -1 $-1 $182 $308 #
ellipse-curve $-1 -1 $-1 71.675027884817581 213.00569892911594 319.19169643322215 -1.7742117283564717e-12 -0.99750723801175567 -0.070564226872819519 9.4131556756699838e-13 0.5292317015461464 -7.4813042850881679 1 F 0 F 0.33983690945412193 #
DXID-attrib $-1 -1 $-1 $160 $107 @18 ASM_EDGE_FROM_STEP @5 10768 #
DXID-attrib $-1 -1 $-1 $162 $108 @18 ASM_FACE_FROM_STEP @16 step-1M-819-4998 #
color-adesk-attrib $-1 -1 $309 $-1 $163 7 #
face $310 -1 $-1 $311 $312 $3 $-1 $313 reversed single #
plane-surface $-1 -1 $-1 69.175027884817581 213.00569892912037 319.19169643322215 -1 1.7786454681700891e-12 0 -1.2550874234226645e-13 -0.070564226872819519 0.99750723801175567 forward_v I I I I #
loop $-1 -1 $-1 $-1 $314 $72 #
coedge $-1 -1 $-1 $315 $316 $317 $318 forward $166 $-1 #
edge $319 -1 $-1 $206 0.0060000000000000001 $296 0.0070710678118654753 $167 $320 forward @7 unknown #
coedge $-1 -1 $-1 $169 $168 $321 $322 forward $71 $-1 #
coedge $-1 -1 $-1 $189 $188 $168 $241 forward $190 $-1 #
edge $323 -1 $-1 $324 -0.0070710678118654771 $248 -0.0060000000000000001 $168 $325 forward @7 unknown #
coedge $-1 -1 $-1 $326 $327 $169 $243 reversed $328 $-1 #
edge $329 -1 $-1 $330 -0.0070710678118654753 $249 -0.0060000000000000001 $169 $331 forward @7 unknown #
coedge $-1 -1 $-1 $184 $170 $327 $332 reversed $246 $-1 #
coedge $-1 -1 $-1 $170 $184 $189 $276 forward $246 $-1 #
loop $-1 -1 $-1 $-1 $184 $177 #
color-adesk-attrib $-1 -1 $333 $-1 $171 7 #
vertex $-1 -1 $-1 $276 $334 #
vertex $-1 -1 $-1 $171 $335 #
ellipse-curve $-1 -1 $-1 71.675027884796293 201.03561207297486 318.34492571074833 -1.7742117283564717e-12 -0.99750723801175567 -0.070564226872819519 8.1580682522473193e-13 0.45866747467332686 -6.4837970470764121 1 F 1.176005207095135 F 1.9655874464946581 #
DXID-attrib $-1 -1 $-1 $173 $116 @18 ASM_FACE_FROM_STEP @16 step-1M-819-4079 #
DXID-attrib $-1 -1 $-1 $176 $120 @18 ASM_FACE_FROM_STEP @16 step-1M-819-7341 #
color-adesk-attrib $-1 -1 $336 $-1 $177 7 #
face $337 -1 $-1 $338 $199 $3 $-1 $339 reversed single #
cone-surface $-1 -1 $-1 71.67502788479274 199.04059759695136 318.20379725700269 -1.7742117283564717e-12 -0.99750723801175567 -0.070564226872819519 8.1580682522473193e-13 0.45866747467332686 -6.4837970470764121 1 I I 0 1 6.5 forward I I I I #
coedge $-1 -1 $-1 $340 $341 $342 $343 forward $178 $-1 #
coedge $-1 -1 $-1 $344 $180 $345 $346 reversed $121 $-1 #
coedge $-1 -1 $-1 $180 $344 $347 $348 forward $121 $-1 #
coedge $-1 -1 $-1 $349 $350 $180 $260 forward $351 $-1 #
edge $352 -1 $-1 $353 -1.9106332362490186 $354 -1.2309594173407747 $180 $355 forward @7 unknown #
coedge $-1 -1 $-1 $181 $203 $216 $294 reversed $204 $-1 #
color-adesk-attrib $-1 -1 $356 $-1 $182 7 #
straight-curve $-1 -1 $-1 74.175027884817581 213.00569892911147 319.19169643322215 1.2550874234226645e-10 70.564226872819518 -997.5072380117557 F 0.0060000000000000001 F 0.0070710678118654753 #
coedge $-1 -1 $-1 $327 $326 $183 $265 forward $328 $-1 #
edge $357 -1 $-1 $273 -0.0070710678118654753 $267 -0.0060000000000000001 $183 $358 forward @7 unknown #
color-adesk-attrib $-1 -1 $359 $-1 $185 7 #
vertex $-1 -1 $-1 $185 $360 #
ellipse-curve $-1 -1 $-1 71.675027884817581 213.00569892911594 319.19169643322215 -1.7742117283564717e-12 -0.99750723801175567 -0.070564226872819519 8.1580682522473193e-13 0.45866747467332686 -6.4837970470764121 1 F 1.176005207095135 F 1.9655874464946581 #
coedge $-1 -1 $-1 $321 $186 $326 $361 forward $271 $-1 #
coedge $-1 -1 $-1 $186 $321 $188 $275 reversed $271 $-1 #
loop $-1 -1 $-1 $-1 $270 $362 #
color-adesk-attrib $-1 -1 $363 $-1 $187 7 #
vertex $-1 -1 $-1 $265 $364 #
ellipse-curve $-1 -1 $-1 71.675027884817581 213.00569892911594 319.19169643322215 -1.7742117283564717e-12 -0.99750723801175567 -0.070564226872819519 9.4131556756699838e-13 0.5292317015461464 -7.4813042850881679 1 F 1.2309594173407747 F 1.9106332362490186 #
edge $365 -1 $-1 $192 0 $324 0.012 $270 $366 forward @7 unknown #
edge $367 -1 $-1 $193 0 $248 0.012 $245 $368 forward @7 unknown #
face $369 -1 $-1 $288 $190 $3 $-1 $370 reversed single #
DXID-attrib $-1 -1 $-1 $191 $127 @18 ASM_EDGE_FROM_STEP @4 1375 #
point $-1 -1 $-1 78.746095696683369 213.18210949628539 316.69792833819275 #
point $-1 -1 $-1 77.675027884817894 213.1821094962873 316.69792833819275 #
coedge $-1 -1 $-1 $213 $195 $198 $285 reversed $113 $-1 #
color-adesk-attrib $-1 -1 $371 $-1 $196 7 #
ellipse-curve $-1 -1 $-1 71.675027884796293 201.03561207297486 318.34492571074833 -1.7742117283564717e-12 -0.99750723801175567 -0.070564226872819519 8.1580682522473193e-13 0.45866747467332686 -6.4837970470764121 1 F 0 F 0.39479111969976149 #
coedge $-1 -1 $-1 $198 $197 $221 $301 forward $199 $-1 #
edge $372 -1 $-1 $303 -0.39479111969976149 $201 0 $198 $373 forward @7 unknown #
DXID-attrib $-1 -1 $-1 $200 $130 @18 ASM_EDGE_FROM_STEP @5 12743 #
point $-1 -1 $-1 71.675027884797103 201.49427954764818 311.86112866367193 #
face $374 -1 $-1 $-1 $204 $3 $-1 $375 reversed single #
DXID-attrib $-1 -1 $-1 $205 $132 @18 ASM_EDGE_FROM_STEP @4 7227 #
point $-1 -1 $-1 74.175027884797046 201.45899743420733 312.3598822826778 #
color-adesk-attrib $-1 -1 $376 $-1 $208 7 #
ellipse-curve $-1 -1 $-1 71.675027884817581 213.00569892911594 319.19169643322215 -1.7742117283564717e-12 -0.99750723801175567 -0.070564226872819519 8.1580682522473193e-13 0.45866747467332686 -6.4837970470764121 1 F -0.39479111969976149 F 0 #
DXID-attrib $-1 -1 $-1 $214 $139 @18 ASM_EDGE_FROM_STEP @4 2644 #
edge $377 -1 $-1 $229 0 $296 0.012 $216 $378 forward @7 unknown #
color-adesk-attrib $-1 -1 $379 $-1 $217 7 #
vertex $-1 -1 $-1 $294 $380 #
ellipse-curve $-1 -1 $-1 71.675027884796293 201.03561207297486 318.34492571074833 -1.7742117283564717e-12 -0.99750723801175567 -0.070564226872819519 9.4131556756699838e-13 0.5292317015461464 -7.4813042850881679 1 F 0 F 0.33983690945412193 #
color-adesk-attrib $-1 -1 $381 $-1 $218 7 #
face $382 -1 $-1 $383 $351 $3 $-1 $384 forward single #
cone-surface $-1 -1 $-1 71.67502788479274 199.04059759695136 318.20379725700269 -1.7742117283564717e-12 -0.99750723801175567 -0.070564226872819519 9.4131556756699838e-13 0.5292317015461464 -7.4813042850881679 1 I I 0 1 7.5 forward I I I I #
edge $385 -1 $-1 $226 0 $303 0.012 $284 $386 forward @7 unknown #
color-adesk-attrib $-1 -1 $387 $-1 $222 7 #
vertex $-1 -1 $-1 $301 $388 #
straight-curve $-1 -1 $-1 69.175027884796293 201.03561207297929 318.34492571074833 1.2550874234226645e-10 70.564226872819518 -997.5072380117557 F 0.0060000000000000001 F 0.0070710678118654771 #
DXID-attrib $-1 -1 $-1 $225 $152 @18 ASM_EDGE_FROM_STEP @4 6610 #
point $-1 -1 $-1 69.175027884818334 213.42908429035728 313.20665300515162 #
DXID-attrib $-1 -1 $-1 $228 $153 @18 ASM_EDGE_FROM_STEP @5 12373 #
point $-1 -1 $-1 74.175027884818476 213.50466336242104 312.13825511041438 #
DXID-attrib $-1 -1 $-1 $233 $163 @18 ASM_FACE_FROM_STEP @16 step-1M-819-1686 #
color-adesk-attrib $-1 -1 $389 $-1 $234 7 #
face $390 -1 $-1 $391 $392 $3 $-1 $393 forward single #
loop $-1 -1 $-1 $-1 $394 $234 #
plane-surface $-1 -1 $-1 71.675027884817894 213.18210949629798 316.69792833819275 -1.2550874234226645e-13 -0.070564226872819519 0.99750723801175567 1 -1.7786454681700891e-12 0 forward_v I I I I #
coedge $-1 -1 $-1 $395 $396 $397 $398 reversed $236 $-1 #
coedge $-1 -1 $-1 $399 $237 $400 $401 reversed $166 $-1 #
coedge $-1 -1 $-1 $237 $399 $402 $403 forward $166 $-1 #
coedge $-1 -1 $-1 $404 $405 $237 $318 reversed $406 $-1 #
edge $407 -1 $-1 $408 -0.0070710678118654753 $409 -0.0060000000000000001 $237 $410 forward @7 unknown #
color-adesk-attrib $-1 -1 $411 $-1 $238 7 #
straight-curve $-1 -1 $-1 74.175027884796293 201.03561207297042 318.34492571074833 1.2550874234226645e-10 70.564226872819518 -997.5072380117557 F 0.0060000000000000001 F 0.0070710678118654753 #
coedge $-1 -1 $-1 $270 $269 $239 $322 reversed $271 $-1 #
edge $412 -1 $-1 $324 1.2309594173407747 $330 1.9106332362490186 $321 $413 forward @7 unknown #
color-adesk-attrib $-1 -1 $414 $-1 $241 7 #
vertex $-1 -1 $-1 $275 $415 #
straight-curve $-1 -1 $-1 71.675027884796606 201.2120226401569 315.85115761571893 -1000 1.7786454681700891e-09 0 F -0.0070710678118654771 F -0.0060000000000000001 #
coedge $-1 -1 $-1 $264 $242 $269 $361 reversed $328 $-1 #
coedge $-1 -1 $-1 $242 $264 $244 $332 forward $328 $-1 #
loop $-1 -1 $-1 $-1 $242 $416 #
color-adesk-attrib $-1 -1 $417 $-1 $243 7 #
vertex $-1 -1 $-1 $361 $418 #
straight-curve $-1 -1 $-1 71.675027884795981 200.85920150579281 320.83869380577772 -1000 1.7786454681700891e-09 0 F -0.0070710678118654753 F -0.0060000000000000001 #
edge $419 -1 $-1 $267 0 $249 0.012 $244 $420 forward @7 unknown #
DXID-attrib $-1 -1 $-1 $247 $171 @18 ASM_EDGE_FROM_STEP @5 11481 #
point $-1 -1 $-1 77.675027884796606 201.21202264014624 315.85115761571893 #
point $-1 -1 $-1 77.675027884795981 200.85920150578212 320.83869380577772 #
DXID-attrib $-1 -1 $-1 $253 $177 @18 ASM_FACE_FROM_STEP @17 step-1M-819-11074 #
color-adesk-attrib $-1 -1 $421 $-1 $254 7 #
face $422 -1 $-1 $423 $424 $3 $-1 $425 reversed single #
cone-surface $-1 -1 $-1 71.67502788479274 199.04059759695136 318.20379725700269 -1.7742117283564717e-12 -0.99750723801175567 -0.070564226872819519 8.1580682522473193e-13 0.45866747467332686 -6.4837970470764121 1 I I 0 1 6.5 forward I I I I #
coedge $-1 -1 $-1 $426 $256 $427 $428 forward $178 $-1 #
coedge $-1 -1 $-1 $256 $426 $429 $430 reversed $178 $-1 #
coedge $-1 -1 $-1 $431 $432 $256 $343 reversed $433 $-1 #
edge $434 -1 $-1 $435 -0.0070710678118654753 $436 -0.0060000000000000001 $256 $437 forward @7 unknown #
coedge $-1 -1 $-1 $258 $257 $438 $439 forward $121 $-1 #
coedge $-1 -1 $-1 $440 $441 $257 $346 forward $392 $-1 #
edge $442 -1 $-1 $443 0.0060000000000000001 $353 0.0070710678118654753 $257 $444 forward @7 unknown #
coedge $-1 -1 $-1 $445 $446 $258 $348 reversed $312 $-1 #
edge $447 -1 $-1 $448 0.0060000000000000001 $354 0.0070710678118654753 $258 $449 forward @7 unknown #
coedge $-1 -1 $-1 $450 $259 $446 $451 forward $351 $-1 #
coedge $-1 -1 $-1 $259 $450 $440 $452 reversed $351 $-1 #
loop $-1 -1 $-1 $-1 $450 $299 #
color-adesk-attrib $-1 -1 $453 $-1 $260 7 #
vertex $-1 -1 $-1 $260 $454 #
vertex $-1 -1 $-1 $260 $455 #
ellipse-curve $-1 -1 $-1 71.675027884817581 213.00569892911594 319.19169643322215 -1.7742117283564717e-12 -0.99750723801175567 -0.070564226872819519 9.4131556756699838e-13 0.5292317015461464 -7.4813042850881679 1 F -1.9106332362490186 F -1.2309594173407747 #
DXID-attrib $-1 -1 $-1 $262 $182 @18 ASM_EDGE_FROM_STEP @5 10034 #
color-adesk-attrib $-1 -1 $456 $-1 $265 7 #
straight-curve $-1 -1 $-1 71.675027884817268 212.82928836193386 321.68546452825154 -1000 1.7786454681700891e-09 0 F -0.0070710678118654753 F -0.0060000000000000001 #
DXID-attrib $-1 -1 $-1 $266 $185 @18 ASM_EDGE_FROM_STEP @4 9231 #
point $-1 -1 $-1 77.675027884817268 212.8292883619232 321.68546452825154 #
edge $457 -1 $-1 $273 0 $330 0.012 $269 $458 forward @7 unknown #
face $459 -1 $-1 $218 $271 $3 $-1 $460 forward single #
DXID-attrib $-1 -1 $-1 $272 $187 @18 ASM_EDGE_FROM_STEP @5 10862 #
point $-1 -1 $-1 78.746095696682744 212.8292883619213 321.68546452825154 #
color-adesk-attrib $-1 -1 $461 $-1 $275 7 #
straight-curve $-1 -1 $-1 78.746095696683369 213.18210949628539 316.69792833819275 -1.7742117283564716e-09 -997.5072380117557 -70.564226872819518 F 0 F 0.012 #
color-adesk-attrib $-1 -1 $462 $-1 $276 7 #
straight-curve $-1 -1 $-1 77.675027884817894 213.1821094962873 316.69792833819275 -1.7742117283564716e-09 -997.5072380117557 -70.564226872819518 F 0 F 0.012 #
color-adesk-attrib $-1 -1 $463 $-1 $277 7 #
plane-surface $-1 -1 $-1 71.675027884817894 213.18210949629798 316.69792833819275 -1.2550874234226645e-13 -0.070564226872819519 0.99750723801175567 1 -1.7786454681700891e-12 0 forward_v I I I I #
DXID-attrib $-1 -1 $-1 $282 $196 @18 ASM_EDGE_FROM_STEP @3 838 #
color-adesk-attrib $-1 -1 $464 $-1 $285 7 #
ellipse-curve $-1 -1 $-1 71.675027884796293 201.03561207297486 318.34492571074833 -1.7742117283564717e-12 -0.99750723801175567 -0.070564226872819519 8.1580682522473193e-13 0.45866747467332686 -6.4837970470764121 1 F -0.39479111969976149 F 0 #
color-adesk-attrib $-1 -1 $465 $-1 $288 7 #
plane-surface $-1 -1 $-1 74.175027884817581 213.00569892911147 319.19169643322215 -1 1.7786454681700891e-12 0 -1.2550874234226645e-13 -0.070564226872819519 0.99750723801175567 forward_v I I I I #
DXID-attrib $-1 -1 $-1 $291 $208 @18 ASM_EDGE_FROM_STEP @4 9710 #
color-adesk-attrib $-1 -1 $466 $-1 $294 7 #
straight-curve $-1 -1 $-1 74.175027884818476 213.50466336242104 312.13825511041438 -1.7742117283564716e-09 -997.5072380117557 -70.564226872819518 F 0 F 0.012 #
DXID-attrib $-1 -1 $-1 $295 $217 @18 ASM_EDGE_FROM_STEP @4 9720 #
point $-1 -1 $-1 74.175027884797174 201.53457650627999 311.29148438794056 #
DXID-attrib $-1 -1 $-1 $298 $218 @18 ASM_FACE_FROM_STEP @16 step-1M-819-3550 #
color-adesk-attrib $-1 -1 $467 $-1 $299 7 #
face $468 -1 $-1 $72 $469 $3 $-1 $470 forward single #
cone-surface $-1 -1 $-1 71.67502788479274 199.04059759695136 318.20379725700269 -1.7742117283564717e-12 -0.99750723801175567 -0.070564226872819519 9.4131556756699838e-13 0.5292317015461464 -7.4813042850881679 1 I I 0 1 7.5 forward I I I I #
color-adesk-attrib $-1 -1 $471 $-1 $301 7 #
straight-curve $-1 -1 $-1 69.175027884818334 213.42908429035728 313.20665300515162 -1.7742117283564716e-09 -997.5072380117557 -70.564226872819518 F 0 F 0.012 #
DXID-attrib $-1 -1 $-1 $302 $222 @18 ASM_EDGE_FROM_STEP @4 5530 #
point $-1 -1 $-1 69.175027884797046 201.45899743421623 312.3598822826778 #
DXID-attrib $-1 -1 $-1 $310 $234 @18 ASM_FACE_FROM_STEP @16 step-1M-819-3021 #
color-adesk-attrib $-1 -1 $472 $-1 $311 7 #
face $473 -1 $-1 $474 $406 $3 $-1 $475 forward single #
loop $-1 -1 $-1 $-1 $476 $311 #
plane-surface $-1 -1 $-1 71.675027884817268 212.82928836193386 321.68546452825154 -1.2550874234226645e-13 -0.070564226872819519 0.99750723801175567 1 -1.7786454681700891e-12 0 forward_v I I I I #
coedge $-1 -1 $-1 $446 $445 $396 $477 forward $312 $-1 #
coedge $-1 -1 $-1 $478 $314 $476 $479 forward $236 $-1 #
coedge $-1 -1 $-1 $314 $478 $394 $477 reversed $236 $-1 #
coedge $-1 -1 $-1 $480 $481 $314 $398 forward $424 $-1 #
edge $482 -1 $-1 $483 -1.9655874464946581 $484 -1.176005207095135 $397 $485 forward @7 unknown #
coedge $-1 -1 $-1 $316 $315 $486 $487 reversed $166 $-1 #
coedge $-1 -1 $-1 $488 $489 $315 $401 forward $490 $-1 #
edge $491 -1 $-1 $492 2.7468015338900318 $409 3.5363837732895544 $400 $493 forward @7 unknown #
coedge $-1 -1 $-1 $494 $495 $316 $403 reversed $469 $-1 #
edge $496 -1 $-1 $497 2.8017557441356713 $408 3.4814295630439149 $402 $498 forward @7 unknown #
coedge $-1 -1 $-1 $499 $317 $495 $500 reversed $406 $-1 #
coedge $-1 -1 $-1 $317 $499 $488 $501 forward $406 $-1 #
loop $-1 -1 $-1 $-1 $317 $391 #
color-adesk-attrib $-1 -1 $502 $-1 $318 7 #
vertex $-1 -1 $-1 $500 $503 #
vertex $-1 -1 $-1 $401 $504 #
straight-curve $-1 -1 $-1 69.175027884796293 201.03561207297929 318.34492571074833 1.2550874234226645e-10 70.564226872819518 -997.5072380117557 F -0.0070710678118654753 F -0.0060000000000000001 #
DXID-attrib $-1 -1 $-1 $319 $238 @18 ASM_EDGE_FROM_STEP @4 9948 #
color-adesk-attrib $-1 -1 $505 $-1 $322 7 #
ellipse-curve $-1 -1 $-1 71.675027884796293 201.03561207297486 318.34492571074833 -1.7742117283564717e-12 -0.99750723801175567 -0.070564226872819519 9.4131556756699838e-13 0.5292317015461464 -7.4813042850881679 1 F 1.2309594173407747 F 1.9106332362490186 #
DXID-attrib $-1 -1 $-1 $323 $241 @18 ASM_EDGE_FROM_STEP @4 9707 #
point $-1 -1 $-1 78.746095696662081 201.21202264014434 315.85115761571893 #
face $506 -1 $-1 $277 $328 $3 $-1 $507 forward single #
DXID-attrib $-1 -1 $-1 $329 $243 @18 ASM_EDGE_FROM_STEP @5 12579 #
point $-1 -1 $-1 78.746095696661456 200.85920150578022 320.83869380577772 #
color-adesk-attrib $-1 -1 $508 $-1 $332 7 #
straight-curve $-1 -1 $-1 77.675027884817268 212.8292883619232 321.68546452825154 -1.7742117283564716e-09 -997.5072380117557 -70.564226872819518 F 0 F 0.012 #
DXID-attrib $-1 -1 $-1 $337 $254 @18 ASM_FACE_FROM_STEP @16 step-1M-819-2995 #
color-adesk-attrib $-1 -1 $509 $-1 $338 7 #
face $510 -1 $-1 $362 $490 $3 $-1 $511 reversed single #
loop $-1 -1 $-1 $-1 $481 $338 #
cone-surface $-1 -1 $-1 71.67502788479274 199.04059759695136 318.20379725700269 -1.7742117283564717e-12 -0.99750723801175567 -0.070564226872819519 8.1580682522473193e-13 0.45866747467332686 -6.4837970470764121 1 I I 0 1 6.5 forward I I I I #
coedge $-1 -1 $-1 $341 $340 $499 $512 reversed $178 $-1 #
coedge $-1 -1 $-1 $489 $488 $340 $428 reversed $490 $-1 #
edge $513 -1 $-1 $436 2.7468015338900318 $514 3.5363837732895544 $340 $515 forward @7 unknown #
coedge $-1 -1 $-1 $495 $494 $341 $430 forward $469 $-1 #
edge $516 -1 $-1 $435 2.8017557441356713 $517 3.4814295630439149 $341 $518 forward @7 unknown #
coedge $-1 -1 $-1 $486 $342 $494 $519 forward $433 $-1 #
coedge $-1 -1 $-1 $342 $486 $489 $520 reversed $433 $-1 #
loop $-1 -1 $-1 $-1 $486 $474 #
color-adesk-attrib $-1 -1 $521 $-1 $343 7 #
vertex $-1 -1 $-1 $343 $522 #
vertex $-1 -1 $-1 $343 $523 #
straight-curve $-1 -1 $-1 74.175027884817581 213.00569892911147 319.19169643322215 1.2550874234226645e-10 70.564226872819518 -997.5072380117557 F -0.0070710678118654753 F -0.0060000000000000001 #
coedge $-1 -1 $-1 $481 $480 $344 $439 reversed $424 $-1 #
edge $524 -1 $-1 $443 -1.9655874464946581 $448 -1.176005207095135 $344 $525 forward @7 unknown #
coedge $-1 -1 $-1 $476 $345 $350 $452 forward $392 $-1 #
coedge $-1 -1 $-1 $345 $476 $481 $526 reversed $392 $-1 #
color-adesk-attrib $-1 -1 $527 $-1 $346 7 #
vertex $-1 -1 $-1 $346 $528 #
straight-curve $-1 -1 $-1 71.675027884817268 212.82928836193386 321.68546452825154 -1000 1.7786454681700891e-09 0 F 0.0060000000000000001 F 0.0070710678118654753 #
coedge $-1 -1 $-1 $394 $347 $480 $529 forward $312 $-1 #
coedge $-1 -1 $-1 $347 $394 $349 $451 reversed $312 $-1 #
color-adesk-attrib $-1 -1 $530 $-1 $348 7 #
vertex $-1 -1 $-1 $439 $531 #
straight-curve $-1 -1 $-1 71.675027884817894 213.18210949629798 316.69792833819275 -1000 1.7786454681700891e-09 0 F 0.0060000000000000001 F 0.0070710678118654753 #
coedge $-1 -1 $-1 $350 $349 $478 $532 reversed $351 $-1 #
edge $533 -1 $-1 $354 0 $534 0.012 $349 $535 forward @7 unknown #
edge $536 -1 $-1 $353 0 $537 0.012 $350 $538 forward @7 unknown #
DXID-attrib $-1 -1 $-1 $352 $260 @18 ASM_EDGE_FROM_STEP @4 6022 #
point $-1 -1 $-1 64.603960072951793 212.82928836194645 321.68546452825154 #
point $-1 -1 $-1 64.603960072952418 213.18210949631055 316.69792833819275 #
DXID-attrib $-1 -1 $-1 $357 $265 @18 ASM_EDGE_FROM_STEP @4 3320 #
color-adesk-attrib $-1 -1 $539 $-1 $361 7 #
straight-curve $-1 -1 $-1 78.746095696682744 212.8292883619213 321.68546452825154 -1.7742117283564716e-09 -997.5072380117557 -70.564226872819518 F 0 F 0.012 #
color-adesk-attrib $-1 -1 $540 $-1 $362 7 #
cone-surface $-1 -1 $-1 71.67502788479274 199.04059759695136 318.20379725700269 -1.7742117283564717e-12 -0.99750723801175567 -0.070564226872819519 9.4131556756699838e-13 0.5292317015461464 -7.4813042850881679 1 I I 0 1 7.5 forward I I I I #
DXID-attrib $-1 -1 $-1 $365 $275 @18 ASM_EDGE_FROM_STEP @4 1901 #
DXID-attrib $-1 -1 $-1 $367 $276 @18 ASM_EDGE_FROM_STEP @4 1134 #
DXID-attrib $-1 -1 $-1 $369 $277 @18 ASM_FACE_FROM_STEP @16 step-1M-819-8978 #
DXID-attrib $-1 -1 $-1 $372 $285 @18 ASM_EDGE_FROM_STEP @4 4919 #
DXID-attrib $-1 -1 $-1 $374 $288 @18 ASM_FACE_FROM_STEP @16 step-1M-819-9003 #
DXID-attrib $-1 -1 $-1 $377 $294 @18 ASM_EDGE_FROM_STEP @4 3604 #
DXID-attrib $-1 -1 $-1 $382 $299 @18 ASM_FACE_FROM_STEP @16 step-1M-819-9396 #
color-adesk-attrib $-1 -1 $541 $-1 $383 7 #
loop $-1 -1 $-1 $-1 $494 $383 #
cone-surface $-1 -1 $-1 71.67502788479274 199.04059759695136 318.20379725700269 -1.7742117283564717e-12 -0.99750723801175567 -0.070564226872819519 9.4131556756699838e-13 0.5292317015461464 -7.4813042850881679 1 I I 0 1 7.5 forward I I I I #
DXID-attrib $-1 -1 $-1 $385 $301 @18 ASM_EDGE_FROM_STEP @4 3843 #
DXID-attrib $-1 -1 $-1 $390 $311 @18 ASM_FACE_FROM_STEP @16 step-1M-819-8375 #
color-adesk-attrib $-1 -1 $542 $-1 $391 7 #
face $543 -1 $-1 $416 $433 $3 $-1 $544 reversed single #
plane-surface $-1 -1 $-1 69.175027884817581 213.00569892912037 319.19169643322215 -1 1.7786454681700891e-12 0 -1.2550874234226645e-13 -0.070564226872819519 0.99750723801175567 forward_v I I I I #
coedge $-1 -1 $-1 $441 $440 $395 $479 reversed $392 $-1 #
edge $545 -1 $-1 $484 0.0060000000000000001 $534 0.0070710678118654753 $396 $546 forward @7 unknown #
coedge $-1 -1 $-1 $396 $395 $450 $532 forward $236 $-1 #
edge $547 -1 $-1 $483 0.0060000000000000001 $537 0.0070710678118654771 $395 $548 forward @7 unknown #
coedge $-1 -1 $-1 $438 $397 $445 $529 reversed $424 $-1 #
coedge $-1 -1 $-1 $397 $438 $441 $526 forward $424 $-1 #
color-adesk-attrib $-1 -1 $549 $-1 $398 7 #
vertex $-1 -1 $-1 $526 $550 #
vertex $-1 -1 $-1 $398 $551 #
ellipse-curve $-1 -1 $-1 71.675027884796293 201.03561207297486 318.34492571074833 -1.7742117283564717e-12 -0.99750723801175567 -0.070564226872819519 8.1580682522473193e-13 0.45866747467332686 -6.4837970470764121 1 F -1.9655874464946581 F -1.176005207095135 #
coedge $-1 -1 $-1 $432 $431 $399 $487 forward $433 $-1 #
edge $552 -1 $-1 $497 -0.0070710678118654771 $492 -0.0060000000000000001 $399 $553 forward @7 unknown #
coedge $-1 -1 $-1 $427 $400 $405 $501 reversed $490 $-1 #
coedge $-1 -1 $-1 $400 $427 $432 $520 forward $490 $-1 #
loop $-1 -1 $-1 $-1 $427 $423 #
color-adesk-attrib $-1 -1 $554 $-1 $401 7 #
vertex $-1 -1 $-1 $520 $555 #
ellipse-curve $-1 -1 $-1 71.675027884796293 201.03561207297486 318.34492571074833 -1.7742117283564717e-12 -0.99750723801175567 -0.070564226872819519 8.1580682522473193e-13 0.45866747467332686 -6.4837970470764121 1 F 2.7468015338900318 F 3.5363837732895544 #
coedge $-1 -1 $-1 $429 $402 $431 $519 reversed $469 $-1 #
coedge $-1 -1 $-1 $402 $429 $404 $500 forward $469 $-1 #
color-adesk-attrib $-1 -1 $556 $-1 $403 7 #
vertex $-1 -1 $-1 $519 $557 #
ellipse-curve $-1 -1 $-1 71.675027884796293 201.03561207297486 318.34492571074833 -1.7742117283564717e-12 -0.99750723801175567 -0.070564226872819519 9.4131556756699838e-13 0.5292317015461464 -7.4813042850881679 1 F 2.8017557441356713 F 3.4814295630439149 #
coedge $-1 -1 $-1 $405 $404 $426 $512 forward $406 $-1 #
edge $558 -1 $-1 $517 0 $408 0.012 $495 $559 forward @7 unknown #
edge $560 -1 $-1 $514 0 $409 0.012 $488 $561 forward @7 unknown #
DXID-attrib $-1 -1 $-1 $407 $318 @18 ASM_EDGE_FROM_STEP @4 5388 #
point $-1 -1 $-1 69.175027884795412 200.53664763966972 325.3983670335561 #
point $-1 -1 $-1 69.17502788479554 200.61222671174238 324.32996913881885 #
DXID-attrib $-1 -1 $-1 $412 $322 @18 ASM_EDGE_FROM_STEP @4 9251 #
color-adesk-attrib $-1 -1 $562 $-1 $416 7 #
plane-surface $-1 -1 $-1 71.675027884817268 212.82928836193386 321.68546452825154 -1.2550874234226645e-13 -0.070564226872819519 0.99750723801175567 1 -1.7786454681700891e-12 0 forward_v I I I I #
DXID-attrib $-1 -1 $-1 $419 $332 @18 ASM_EDGE_FROM_STEP @4 3779 #
DXID-attrib $-1 -1 $-1 $422 $338 @18 ASM_FACE_FROM_STEP @16 step-1M-819-7537 #
color-adesk-attrib $-1 -1 $563 $-1 $423 7 #
cone-surface $-1 -1 $-1 71.67502788479274 199.04059759695136 318.20379725700269 -1.7742117283564717e-12 -0.99750723801175567 -0.070564226872819519 8.1580682522473193e-13 0.45866747467332686 -6.4837970470764121 1 I I 0 1 6.5 forward I I I I #
edge $564 -1 $-1 $517 -0.0070710678118654753 $514 -0.0060000000000000001 $426 $565 forward @7 unknown #
color-adesk-attrib $-1 -1 $566 $-1 $428 7 #
vertex $-1 -1 $-1 $428 $567 #
ellipse-curve $-1 -1 $-1 71.675027884817581 213.00569892911594 319.19169643322215 -1.7742117283564717e-12 -0.99750723801175567 -0.070564226872819519 8.1580682522473193e-13 0.45866747467332686 -6.4837970470764121 1 F 2.7468015338900318 F 3.5363837732895544 #
color-adesk-attrib $-1 -1 $568 $-1 $430 7 #
vertex $-1 -1 $-1 $512 $569 #
ellipse-curve $-1 -1 $-1 71.675027884817581 213.00569892911594 319.19169643322215 -1.7742117283564717e-12 -0.99750723801175567 -0.070564226872819519 9.4131556756699838e-13 0.5292317015461464 -7.4813042850881679 1 F 2.8017557441356713 F 3.4814295630439149 #
edge $570 -1 $-1 $435 0 $497 0.012 $494 $571 forward @7 unknown #
edge $572 -1 $-1 $436 0 $492 0.012 $489 $573 forward @7 unknown #
DXID-attrib $-1 -1 $-1 $434 $343 @18 ASM_EDGE_FROM_STEP @5 11715 #
point $-1 -1 $-1 74.1750278848167 212.50673449580191 326.24513775602992 #
point $-1 -1 $-1 74.175027884816828 212.58231356787456 325.17673986129267 #
color-adesk-attrib $-1 -1 $574 $-1 $439 7 #
ellipse-curve $-1 -1 $-1 71.675027884817581 213.00569892911594 319.19169643322215 -1.7742117283564717e-12 -0.99750723801175567 -0.070564226872819519 8.1580682522473193e-13 0.45866747467332686 -6.4837970470764121 1 F -1.9655874464946581 F -1.176005207095135 #
edge $575 -1 $-1 $443 0 $483 0.012 $481 $576 forward @7 unknown #
DXID-attrib $-1 -1 $-1 $442 $346 @18 ASM_EDGE_FROM_STEP @5 10023 #
point $-1 -1 $-1 65.675027884817268 212.82928836194455 321.68546452825154 #
edge $577 -1 $-1 $448 0 $484 0.012 $480 $578 forward @7 unknown #
DXID-attrib $-1 -1 $-1 $447 $348 @18 ASM_EDGE_FROM_STEP @4 9004 #
point $-1 -1 $-1 65.675027884817894 213.18210949630864 316.69792833819275 #
edge $579 -1 $-1 $537 -1.9106332362490184 $534 -1.2309594173407747 $450 $580 forward @7 unknown #
color-adesk-attrib $-1 -1 $581 $-1 $451 7 #
vertex $-1 -1 $-1 $532 $582 #
straight-curve $-1 -1 $-1 64.603960072952418 213.18210949631055 316.69792833819275 -1.7742117283564716e-09 -997.5072380117557 -70.564226872819518 F 0 F 0.012 #
color-adesk-attrib $-1 -1 $583 $-1 $452 7 #
vertex $-1 -1 $-1 $532 $584 #
straight-curve $-1 -1 $-1 64.603960072951793 212.82928836194645 321.68546452825154 -1.7742117283564716e-09 -997.5072380117557 -70.564226872819518 F 0 F 0.012 #
DXID-attrib $-1 -1 $-1 $457 $361 @18 ASM_EDGE_FROM_STEP @4 1179 #
DXID-attrib $-1 -1 $-1 $459 $362 @18 ASM_FACE_FROM_STEP @17 step-1M-819-11858 #
DXID-attrib $-1 -1 $-1 $468 $383 @18 ASM_FACE_FROM_STEP @16 step-1M-819-4023 #
DXID-attrib $-1 -1 $-1 $473 $391 @18 ASM_FACE_FROM_STEP @16 step-1M-819-6177 #
color-adesk-attrib $-1 -1 $585 $-1 $474 7 #
plane-surface $-1 -1 $-1 74.175027884817581 213.00569892911147 319.19169643322215 -1 1.7786454681700891e-12 0 -1.2550874234226645e-13 -0.070564226872819519 0.99750723801175567 forward_v I I I I #
color-adesk-attrib $-1 -1 $586 $-1 $477 7 #
straight-curve $-1 -1 $-1 71.675027884796606 201.2120226401569 315.85115761571893 -1000 1.7786454681700891e-09 0 F 0.0060000000000000001 F 0.0070710678118654753 #
color-adesk-attrib $-1 -1 $587 $-1 $479 7 #
straight-curve $-1 -1 $-1 71.675027884795981 200.85920150579281 320.83869380577772 -1000 1.7786454681700891e-09 0 F 0.0060000000000000001 F 0.0070710678118654771 #
DXID-attrib $-1 -1 $-1 $482 $398 @18 ASM_EDGE_FROM_STEP @4 3513 #
point $-1 -1 $-1 65.675027884795981 200.85920150580347 320.83869380577772 #
point $-1 -1 $-1 65.675027884796606 201.21202264016759 315.85115761571893 #
color-adesk-attrib $-1 -1 $588 $-1 $487 7 #
straight-curve $-1 -1 $-1 74.175027884796293 201.03561207297042 318.34492571074833 1.2550874234226645e-10 70.564226872819518 -997.5072380117557 F -0.0070710678118654771 F -0.0060000000000000001 #
DXID-attrib $-1 -1 $-1 $491 $401 @18 ASM_EDGE_FROM_STEP @5 12847 #
point $-1 -1 $-1 74.17502788479554 200.61222671173348 324.32996913881885 #
DXID-attrib $-1 -1 $-1 $496 $403 @18 ASM_EDGE_FROM_STEP @4 4108 #
point $-1 -1 $-1 74.175027884795412 200.53664763966086 325.3983670335561 #
color-adesk-attrib $-1 -1 $589 $-1 $500 7 #
straight-curve $-1 -1 $-1 69.1750278848167 212.5067344958108 326.24513775602992 -1.7742117283564716e-09 -997.5072380117557 -70.564226872819518 F 0 F 0.012 #
color-adesk-attrib $-1 -1 $590 $-1 $501 7 #
straight-curve $-1 -1 $-1 69.175027884816828 212.58231356788346 325.17673986129267 -1.7742117283564716e-09 -997.5072380117557 -70.564226872819518 F 0 F 0.012 #
DXID-attrib $-1 -1 $-1 $506 $416 @18 ASM_FACE_FROM_STEP @15 step-1M-819-944 #
DXID-attrib $-1 -1 $-1 $510 $423 @18 ASM_FACE_FROM_STEP @16 step-1M-819-9479 #
color-adesk-attrib $-1 -1 $591 $-1 $512 7 #
straight-curve $-1 -1 $-1 69.175027884817581 213.00569892912037 319.19169643322215 1.2550874234226645e-10 70.564226872819518 -997.5072380117557 F -0.0070710678118654753 F -0.0060000000000000001 #
DXID-attrib $-1 -1 $-1 $513 $428 @18 ASM_EDGE_FROM_STEP @5 12831 #
point $-1 -1 $-1 69.175027884816828 212.58231356788346 325.17673986129267 #
DXID-attrib $-1 -1 $-1 $516 $430 @18 ASM_EDGE_FROM_STEP @5 10900 #
point $-1 -1 $-1 69.1750278848167 212.5067344958108 326.24513775602992 #
color-adesk-attrib $-1 -1 $592 $-1 $519 7 #
straight-curve $-1 -1 $-1 74.1750278848167 212.50673449580191 326.24513775602992 -1.7742117283564716e-09 -997.5072380117557 -70.564226872819518 F 0 F 0.012 #
color-adesk-attrib $-1 -1 $593 $-1 $520 7 #
straight-curve $-1 -1 $-1 74.175027884816828 212.58231356787456 325.17673986129267 -1.7742117283564716e-09 -997.5072380117557 -70.564226872819518 F 0 F 0.012 #
DXID-attrib $-1 -1 $-1 $524 $439 @18 ASM_EDGE_FROM_STEP @5 12901 #
color-adesk-attrib $-1 -1 $594 $-1 $526 7 #
straight-curve $-1 -1 $-1 65.675027884817268 212.82928836194455 321.68546452825154 -1.7742117283564716e-09 -997.5072380117557 -70.564226872819518 F 0 F 0.012 #
color-adesk-attrib $-1 -1 $595 $-1 $529 7 #
straight-curve $-1 -1 $-1 65.675027884817894 213.18210949630864 316.69792833819275 -1.7742117283564716e-09 -997.5072380117557 -70.564226872819518 F 0 F 0.012 #
color-adesk-attrib $-1 -1 $596 $-1 $532 7 #
ellipse-curve $-1 -1 $-1 71.675027884796293 201.03561207297486 318.34492571074833 -1.7742117283564717e-12 -0.99750723801175567 -0.070564226872819519 9.4131556756699838e-13 0.5292317015461464 -7.4813042850881679 1 F -1.9106332362490184 F -1.2309594173407747 #
DXID-attrib $-1 -1 $-1 $533 $451 @18 ASM_EDGE_FROM_STEP @4 3515 #
point $-1 -1 $-1 64.60396007293113 201.21202264016949 315.85115761571893 #
DXID-attrib $-1 -1 $-1 $536 $452 @18 ASM_EDGE_FROM_STEP @5 11797 #
point $-1 -1 $-1 64.603960072930505 200.85920150580537 320.83869380577772 #
DXID-attrib $-1 -1 $-1 $543 $474 @18 ASM_FACE_FROM_STEP @16 step-1M-819-4649 #
DXID-attrib $-1 -1 $-1 $545 $477 @18 ASM_EDGE_FROM_STEP @4 9499 #
DXID-attrib $-1 -1 $-1 $547 $479 @18 ASM_EDGE_FROM_STEP @4 6281 #
DXID-attrib $-1 -1 $-1 $552 $487 @18 ASM_EDGE_FROM_STEP @5 12816 #
DXID-attrib $-1 -1 $-1 $558 $500 @18 ASM_EDGE_FROM_STEP @4 4269 #
DXID-attrib $-1 -1 $-1 $560 $501 @18 ASM_EDGE_FROM_STEP @4 2538 #
DXID-attrib $-1 -1 $-1 $564 $512 @18 ASM_EDGE_FROM_STEP @3 684 #
DXID-attrib $-1 -1 $-1 $570 $519 @18 ASM_EDGE_FROM_STEP @4 4277 #
DXID-attrib $-1 -1 $-1 $572 $520 @18 ASM_EDGE_FROM_STEP @4 6357 #
DXID-attrib $-1 -1 $-1 $575 $526 @18 ASM_EDGE_FROM_STEP @5 10430 #
DXID-attrib $-1 -1 $-1 $577 $529 @18 ASM_EDGE_FROM_STEP @4 5515 #
DXID-attrib $-1 -1 $-1 $579 $532 @18 ASM_EDGE_FROM_STEP @4 9325 #
