700 354 1 0         
5 ZWCAD 12 ACIS 28.0 NT 24 Mon May 13 11:35:11 2024 
1 9.9999999999999995e-07 1e-10 
body $1 -1 $-1 $2 $-1 $-1 #
DXID-attrib $-1 -1 $-1 $-1 $0 @18 ASM_BODY_FROM_STEP @83 2AFFADC9E52682CD6D3637466CCB9F7FE2CD5356|:|AE1696F70ADD2F7DEA5278A2C8F2D38A85AC4850 #
lump $-1 -1 $-1 $-1 $3 $0 #
shell $-1 -1 $-1 $-1 $-1 $4 $-1 $2 #
face $5 -1 $-1 $6 $7 $3 $-1 $8 reversed single #
truecolor-adesk-attrib $-1 -1 $9 $-1 $4 -1056964608 #
face $10 -1 $-1 $11 $12 $3 $-1 $13 forward single #
loop $-1 -1 $-1 $-1 $14 $4 #
plane-surface $-1 -1 $-1 -135.15566279570896 -482.69140943074967 -2535.9457053821588 1 0 0 0 0 -1 forward_v I I I I #
fmesh-eye-attrib $-1 -1 $15 $5 $4 #
truecolor-adesk-attrib $-1 -1 $16 $-1 $6 -1056964608 #
face $17 -1 $-1 $18 $19 $3 $-1 $20 forward single #
loop $-1 -1 $-1 $-1 $21 $6 #
plane-surface $-1 -1 $-1 -127.15566279570896 -482.69140943074967 -2535.9457053821588 1 0 0 0 0 -1 forward_v I I I I #
coedge $-1 -1 $-1 $22 $23 $24 $25 forward $7 $-1 #
DXID-attrib $-1 -1 $-1 $9 $4 @18 ASM_FACE_FROM_STEP @17 step-3M-821-22597 #
fmesh-eye-attrib $-1 -1 $26 $10 $6 #
truecolor-adesk-attrib $-1 -1 $27 $-1 $11 -1056964608 #
face $28 -1 $-1 $29 $30 $3 $-1 $31 forward single #
loop $-1 -1 $-1 $-1 $32 $11 #
plane-surface $-1 -1 $-1 -247.15566279570896 -482.69140943074967 -2535.9457053821588 0 1 0 0 0 1 forward_v I I I I #
coedge $-1 -1 $-1 $33 $34 $35 $36 reversed $12 $-1 #
coedge $-1 -1 $-1 $37 $14 $38 $39 reversed $7 $-1 #
coedge $-1 -1 $-1 $14 $37 $40 $41 forward $7 $-1 #
coedge $-1 -1 $-1 $42 $43 $14 $25 reversed $44 $-1 #
edge $45 -1 $-1 $46 0.0079999999999999984 $47 0.074999999999999997 $14 $48 forward @7 unknown #
DXID-attrib $-1 -1 $-1 $16 $6 @18 ASM_FACE_FROM_STEP @17 step-3M-821-37546 #
fmesh-eye-attrib $-1 -1 $49 $17 $11 #
truecolor-adesk-attrib $-1 -1 $50 $-1 $18 -1056964608 #
face $51 -1 $-1 $52 $53 $3 $-1 $54 reversed single #
loop $-1 -1 $-1 $-1 $55 $18 #
plane-surface $-1 -1 $-1 -247.15566279570896 -557.69140943074967 -2535.9457053821588 -1 0 0 0 0 1 forward_v I I I I #
coedge $-1 -1 $-1 $56 $57 $58 $59 reversed $19 $-1 #
coedge $-1 -1 $-1 $60 $21 $57 $61 reversed $12 $-1 #
coedge $-1 -1 $-1 $21 $60 $62 $63 forward $12 $-1 #
coedge $-1 -1 $-1 $64 $58 $21 $36 forward $65 $-1 #
edge $66 -1 $-1 $67 0 $68 0.074999999999999997 $21 $69 forward @7 unknown #
coedge $-1 -1 $-1 $23 $22 $70 $71 reversed $7 $-1 #
coedge $-1 -1 $-1 $72 $73 $22 $39 forward $74 $-1 #
edge $75 -1 $-1 $76 0 $47 0.12 $22 $77 forward @7 unknown #
coedge $-1 -1 $-1 $78 $79 $23 $41 reversed $80 $-1 #
edge $81 -1 $-1 $82 0 $46 0.12 $23 $83 forward @7 unknown #
coedge $-1 -1 $-1 $84 $24 $79 $85 reversed $44 $-1 #
coedge $-1 -1 $-1 $24 $84 $72 $86 forward $44 $-1 #
loop $-1 -1 $-1 $-1 $43 $87 #
truecolor-adesk-attrib $-1 -1 $88 $-1 $25 -1056964608 #
vertex $-1 -1 $-1 $25 $89 #
vertex $-1 -1 $-1 $25 $90 #
straight-curve $-1 -1 $-1 -135.15566279570896 -482.69140943074967 -2655.9457053821588 0 -1000 0 F 0.0079999999999999984 F 0.074999999999999997 #
DXID-attrib $-1 -1 $-1 $27 $11 @18 ASM_FACE_FROM_STEP @17 step-3M-821-11646 #
fmesh-eye-attrib $-1 -1 $91 $28 $18 #
truecolor-adesk-attrib $-1 -1 $92 $-1 $29 -1056964608 #
face $93 -1 $-1 $94 $80 $3 $-1 $95 reversed single #
loop $-1 -1 $-1 $-1 $96 $29 #
plane-surface $-1 -1 $-1 -239.15566279570896 -557.69140943074967 -2535.9457053821588 -1 0 0 0 0 1 forward_v I I I I #
coedge $-1 -1 $-1 $97 $98 $99 $100 reversed $30 $-1 #
coedge $-1 -1 $-1 $101 $32 $98 $102 reversed $19 $-1 #
coedge $-1 -1 $-1 $32 $101 $33 $61 forward $19 $-1 #
coedge $-1 -1 $-1 $35 $99 $32 $59 forward $65 $-1 #
edge $103 -1 $-1 $104 0 $67 0.12 $32 $105 forward @7 unknown #
coedge $-1 -1 $-1 $34 $33 $106 $107 forward $12 $-1 #
edge $108 -1 $-1 $109 0 $67 0.12 $33 $110 forward @7 unknown #
coedge $-1 -1 $-1 $111 $112 $34 $63 reversed $113 $-1 #
edge $114 -1 $-1 $115 0 $68 0.12 $34 $116 forward @7 unknown #
coedge $-1 -1 $-1 $117 $35 $112 $118 forward $65 $-1 #
loop $-1 -1 $-1 $44 $35 $87 #
truecolor-adesk-attrib $-1 -1 $119 $-1 $36 -1056964608 #
vertex $-1 -1 $-1 $36 $120 #
vertex $-1 -1 $-1 $36 $121 #
straight-curve $-1 -1 $-1 -127.15566279570896 -482.69140943074967 -2655.9457053821588 0 -1000 0 F 0 F 0.074999999999999997 #
coedge $-1 -1 $-1 $122 $123 $37 $71 forward $124 $-1 #
edge $125 -1 $-1 $82 0.0079999999999999984 $76 0.074999999999999997 $37 $126 forward @7 unknown #
coedge $-1 -1 $-1 $127 $38 $43 $86 reversed $74 $-1 #
coedge $-1 -1 $-1 $38 $127 $122 $128 reversed $74 $-1 #
loop $-1 -1 $-1 $-1 $38 $129 #
truecolor-adesk-attrib $-1 -1 $130 $-1 $39 -1056964608 #
vertex $-1 -1 $-1 $39 $131 #
straight-curve $-1 -1 $-1 -135.15566279570896 -557.69140943074967 -2535.9457053821588 0 0 -1000 F 0 F 0.12 #
coedge $-1 -1 $-1 $132 $40 $123 $133 reversed $80 $-1 #
coedge $-1 -1 $-1 $40 $132 $42 $85 forward $80 $-1 #
loop $-1 -1 $-1 $-1 $79 $52 #
truecolor-adesk-attrib $-1 -1 $134 $-1 $41 -1056964608 #
vertex $-1 -1 $-1 $71 $135 #
straight-curve $-1 -1 $-1 -135.15566279570896 -490.69140943074967 -2535.9457053821588 0 0 -1000 F 0 F 0.12 #
coedge $-1 -1 $-1 $43 $42 $96 $136 reversed $44 $-1 #
edge $137 -1 $-1 $138 0.0080000000000000002 $46 0.11199999999999999 $79 $139 forward @7 unknown #
edge $140 -1 $-1 $141 -0.15199999999999991 $47 -0.047999999999999987 $43 $142 forward @7 unknown #
face $143 -1 $-1 $129 $65 $3 $-1 $144 reversed single #
DXID-attrib $-1 -1 $-1 $45 $25 @18 ASM_EDGE_FROM_STEP @4 6661 #
point $-1 -1 $-1 -135.15566279570896 -490.69140943074967 -2655.9457053821588 #
point $-1 -1 $-1 -135.15566279570896 -557.69140943074967 -2655.9457053821588 #
DXID-attrib $-1 -1 $-1 $50 $18 @18 ASM_FACE_FROM_STEP @16 step-3M-821-4985 #
fmesh-eye-attrib $-1 -1 $145 $51 $29 #
truecolor-adesk-attrib $-1 -1 $146 $-1 $52 -1056964608 #
face $147 -1 $-1 $87 $148 $3 $-1 $149 forward single #
plane-surface $-1 -1 $-1 -247.15566279570896 -490.69140943074967 -2535.9457053821588 0 1 0 0 0 1 forward_v I I I I #
coedge $-1 -1 $-1 $150 $151 $84 $136 forward $53 $-1 #
coedge $-1 -1 $-1 $152 $55 $153 $154 reversed $30 $-1 #
coedge $-1 -1 $-1 $55 $152 $56 $102 forward $30 $-1 #
coedge $-1 -1 $-1 $58 $155 $55 $100 forward $65 $-1 #
edge $156 -1 $-1 $157 0 $104 0.074999999999999997 $55 $158 forward @7 unknown #
coedge $-1 -1 $-1 $57 $56 $159 $160 forward $19 $-1 #
edge $161 -1 $-1 $162 0 $104 0.12 $56 $163 forward @7 unknown #
truecolor-adesk-attrib $-1 -1 $164 $-1 $59 -1056964608 #
vertex $-1 -1 $-1 $59 $165 #
straight-curve $-1 -1 $-1 -247.15566279570896 -482.69140943074967 -2655.9457053821588 1000 0 0 F 0 F 0.12 #
coedge $-1 -1 $-1 $159 $166 $60 $107 reversed $148 $-1 #
edge $167 -1 $-1 $109 0 $115 0.074999999999999997 $60 $168 forward @7 unknown #
truecolor-adesk-attrib $-1 -1 $169 $-1 $61 -1056964608 #
vertex $-1 -1 $-1 $61 $170 #
straight-curve $-1 -1 $-1 -127.15566279570896 -482.69140943074967 -2535.9457053821588 0 0 -1000 F 0 F 0.12 #
coedge $-1 -1 $-1 $171 $62 $166 $172 reversed $113 $-1 #
coedge $-1 -1 $-1 $62 $171 $64 $118 reversed $113 $-1 #
loop $-1 -1 $-1 $-1 $112 $173 #
truecolor-adesk-attrib $-1 -1 $174 $-1 $63 -1056964608 #
vertex $-1 -1 $-1 $107 $175 #
straight-curve $-1 -1 $-1 -127.15566279570896 -557.69140943074967 -2535.9457053821588 0 0 -1000 F 0 F 0.12 #
coedge $-1 -1 $-1 $176 $64 $177 $178 reversed $65 $-1 #
edge $179 -1 $-1 $68 -0.039999999999999966 $180 0 $64 $181 forward @7 unknown #
DXID-attrib $-1 -1 $-1 $66 $36 @18 ASM_EDGE_FROM_STEP @5 27796 #
point $-1 -1 $-1 -127.15566279570896 -482.69140943074967 -2655.9457053821588 #
point $-1 -1 $-1 -127.15566279570896 -557.69140943074967 -2655.9457053821588 #
coedge $-1 -1 $-1 $182 $70 $73 $128 forward $124 $-1 #
coedge $-1 -1 $-1 $70 $182 $78 $133 forward $124 $-1 #
loop $-1 -1 $-1 $-1 $70 $94 #
truecolor-adesk-attrib $-1 -1 $183 $-1 $71 -1056964608 #
straight-curve $-1 -1 $-1 -135.15566279570896 -482.69140943074967 -2535.9457053821588 0 -1000 0 F 0.0079999999999999984 F 0.074999999999999997 #
coedge $-1 -1 $-1 $73 $72 $151 $184 reversed $74 $-1 #
edge $185 -1 $-1 $76 0.047999999999999973 $186 0.15199999999999991 $122 $187 forward @7 unknown #
face $188 -1 $-1 $173 $74 $3 $-1 $189 forward single #
DXID-attrib $-1 -1 $-1 $75 $39 @18 ASM_EDGE_FROM_STEP @5 18468 #
point $-1 -1 $-1 -135.15566279570896 -557.69140943074967 -2535.9457053821588 #
coedge $-1 -1 $-1 $79 $78 $150 $190 forward $80 $-1 #
edge $191 -1 $-1 $192 0.0080000000000000002 $82 0.11199999999999999 $78 $193 forward @7 unknown #
DXID-attrib $-1 -1 $-1 $81 $41 @18 ASM_EDGE_FROM_STEP @4 5012 #
point $-1 -1 $-1 -135.15566279570896 -490.69140943074967 -2535.9457053821588 #
edge $194 -1 $-1 $141 0 $138 0.067000000000000004 $96 $195 forward @7 unknown #
truecolor-adesk-attrib $-1 -1 $196 $-1 $85 -1056964608 #
vertex $-1 -1 $-1 $136 $197 #
straight-curve $-1 -1 $-1 -247.15566279570896 -490.69140943074967 -2655.9457053821588 1000 0 0 F 0.0080000000000000002 F 0.11199999999999999 #
truecolor-adesk-attrib $-1 -1 $198 $-1 $86 -1056964608 #
vertex $-1 -1 $-1 $136 $199 #
straight-curve $-1 -1 $-1 -87.155662795708963 -557.69140943074967 -2655.9457053821588 1000 0 0 F -0.15199999999999991 F -0.047999999999999987 #
truecolor-adesk-attrib $-1 -1 $200 $-1 $87 -1056964608 #
plane-surface $-1 -1 $-1 -247.15566279570896 -557.69140943074967 -2655.9457053821588 0 0 1 1 0 0 forward_v I I I I #
DXID-attrib $-1 -1 $-1 $92 $29 @18 ASM_FACE_FROM_STEP @17 step-3M-821-30911 #
fmesh-eye-attrib $-1 -1 $201 $93 $52 #
truecolor-adesk-attrib $-1 -1 $202 $-1 $94 -1056964608 #
loop $-1 -1 $-1 $124 $166 $94 #
plane-surface $-1 -1 $-1 -247.15566279570896 -557.69140943074967 -2535.9457053821588 0 0 1 1 0 0 forward_v I I I I #
coedge $-1 -1 $-1 $203 $96 $132 $190 reversed $53 $-1 #
coedge $-1 -1 $-1 $96 $203 $127 $184 forward $53 $-1 #
coedge $-1 -1 $-1 $98 $97 $204 $205 forward $30 $-1 #
coedge $-1 -1 $-1 $206 $207 $97 $154 forward $208 $-1 #
edge $209 -1 $-1 $210 0 $157 0.12 $97 $211 forward @7 unknown #
coedge $-1 -1 $-1 $99 $212 $206 $213 forward $65 $-1 #
truecolor-adesk-attrib $-1 -1 $214 $-1 $100 -1056964608 #
vertex $-1 -1 $-1 $100 $215 #
straight-curve $-1 -1 $-1 -247.15566279570896 -557.69140943074967 -2655.9457053821588 0 1000 0 F 0 F 0.074999999999999997 #
coedge $-1 -1 $-1 $204 $106 $101 $160 reversed $148 $-1 #
edge $216 -1 $-1 $162 0 $109 0.12 $101 $217 forward @7 unknown #
truecolor-adesk-attrib $-1 -1 $218 $-1 $102 -1056964608 #
vertex $-1 -1 $-1 $102 $219 #
straight-curve $-1 -1 $-1 -247.15566279570896 -482.69140943074967 -2535.9457053821588 0 0 -1000 F 0 F 0.12 #
DXID-attrib $-1 -1 $-1 $103 $59 @18 ASM_EDGE_FROM_STEP @5 11628 #
point $-1 -1 $-1 -247.15566279570896 -482.69140943074967 -2655.9457053821588 #
coedge $-1 -1 $-1 $106 $220 $111 $172 forward $148 $-1 #
truecolor-adesk-attrib $-1 -1 $221 $-1 $107 -1056964608 #
straight-curve $-1 -1 $-1 -127.15566279570896 -482.69140943074967 -2535.9457053821588 0 -1000 0 F 0 F 0.074999999999999997 #
DXID-attrib $-1 -1 $-1 $108 $61 @18 ASM_EDGE_FROM_STEP @4 4012 #
point $-1 -1 $-1 -127.15566279570896 -482.69140943074967 -2535.9457053821588 #
coedge $-1 -1 $-1 $112 $111 $222 $223 reversed $113 $-1 #
edge $224 -1 $-1 $225 0 $115 0.039999999999999966 $166 $226 forward @7 unknown #
face $227 -1 $-1 $228 $113 $3 $-1 $229 forward single #
DXID-attrib $-1 -1 $-1 $114 $63 @18 ASM_EDGE_FROM_STEP @5 15240 #
point $-1 -1 $-1 -127.15566279570896 -557.69140943074967 -2535.9457053821588 #
coedge $-1 -1 $-1 $212 $117 $230 $231 reversed $65 $-1 #
coedge $-1 -1 $-1 $222 $232 $117 $178 forward $233 $-1 #
edge $234 -1 $-1 $235 0 $180 0.0080000000000000002 $117 $236 forward @7 unknown #
truecolor-adesk-attrib $-1 -1 $237 $-1 $118 -1056964608 #
vertex $-1 -1 $-1 $118 $238 #
straight-curve $-1 -1 $-1 -87.155662795708963 -557.69140943074967 -2655.9457053821588 1000 0 0 F -0.039999999999999966 F 0 #
coedge $-1 -1 $-1 $123 $122 $203 $239 forward $124 $-1 #
DXID-attrib $-1 -1 $-1 $125 $71 @18 ASM_EDGE_FROM_STEP @4 1509 #
edge $240 -1 $-1 $186 0 $141 0.12 $151 $241 forward @7 unknown #
truecolor-adesk-attrib $-1 -1 $242 $-1 $128 -1056964608 #
vertex $-1 -1 $-1 $239 $243 #
straight-curve $-1 -1 $-1 -87.155662795708963 -557.69140943074967 -2535.9457053821588 -1000 0 0 F 0.047999999999999973 F 0.15199999999999991 #
truecolor-adesk-attrib $-1 -1 $244 $-1 $129 -1056964608 #
plane-surface $-1 -1 $-1 -247.15566279570896 -557.69140943074967 -2655.9457053821588 0 1 0 0 0 1 forward_v I I I I #
edge $245 -1 $-1 $192 0 $138 0.12 $150 $246 forward @7 unknown #
truecolor-adesk-attrib $-1 -1 $247 $-1 $133 -1056964608 #
vertex $-1 -1 $-1 $190 $248 #
straight-curve $-1 -1 $-1 -247.15566279570896 -490.69140943074967 -2535.9457053821588 1000 0 0 F 0.0080000000000000002 F 0.11199999999999999 #
truecolor-adesk-attrib $-1 -1 $249 $-1 $136 -1056964608 #
straight-curve $-1 -1 $-1 -239.15566279570896 -557.69140943074967 -2655.9457053821588 0 1000 0 F 0 F 0.067000000000000004 #
DXID-attrib $-1 -1 $-1 $137 $85 @18 ASM_EDGE_FROM_STEP @5 18397 #
point $-1 -1 $-1 -239.15566279570896 -490.69140943074967 -2655.9457053821588 #
DXID-attrib $-1 -1 $-1 $140 $86 @18 ASM_EDGE_FROM_STEP @5 32829 #
point $-1 -1 $-1 -239.15566279570885 -557.69140943074967 -2655.9457053821588 #
fmesh-eye-attrib $-1 -1 $250 $143 $87 #
DXID-attrib $-1 -1 $-1 $146 $52 @18 ASM_FACE_FROM_STEP @17 step-3M-821-12199 #
fmesh-eye-attrib $-1 -1 $251 $147 $94 #
coedge $-1 -1 $-1 $151 $150 $182 $239 reversed $53 $-1 #
coedge $-1 -1 $-1 $252 $159 $152 $205 reversed $148 $-1 #
edge $253 -1 $-1 $210 0 $162 0.074999999999999997 $152 $254 forward @7 unknown #
coedge $-1 -1 $-1 $255 $153 $155 $213 reversed $208 $-1 #
coedge $-1 -1 $-1 $153 $255 $252 $256 reversed $208 $-1 #
loop $-1 -1 $-1 $-1 $207 $257 #
truecolor-adesk-attrib $-1 -1 $258 $-1 $154 -1056964608 #
vertex $-1 -1 $-1 $154 $259 #
straight-curve $-1 -1 $-1 -247.15566279570896 -557.69140943074967 -2535.9457053821588 0 0 -1000 F 0 F 0.12 #
coedge $-1 -1 $-1 $155 $176 $260 $261 forward $65 $-1 #
edge $262 -1 $-1 $263 -0.20000000000000001 $157 -0.15999999999999998 $155 $264 forward @7 unknown #
DXID-attrib $-1 -1 $-1 $156 $100 @18 ASM_EDGE_FROM_STEP @5 20265 #
point $-1 -1 $-1 -247.15566279570896 -557.69140943074967 -2655.9457053821588 #
truecolor-adesk-attrib $-1 -1 $265 $-1 $160 -1056964608 #
straight-curve $-1 -1 $-1 -247.15566279570896 -482.69140943074967 -2535.9457053821588 1000 0 0 F 0 F 0.12 #
DXID-attrib $-1 -1 $-1 $161 $102 @18 ASM_EDGE_FROM_STEP @5 35989 #
point $-1 -1 $-1 -247.15566279570896 -482.69140943074967 -2535.9457053821588 #
coedge $-1 -1 $-1 $166 $266 $267 $268 forward $148 $-1 #
DXID-attrib $-1 -1 $-1 $167 $107 @18 ASM_EDGE_FROM_STEP @5 25724 #
coedge $-1 -1 $-1 $267 $177 $171 $223 forward $233 $-1 #
edge $269 -1 $-1 $180 -0.12 $225 0 $171 $270 forward @7 unknown #
truecolor-adesk-attrib $-1 -1 $271 $-1 $172 -1056964608 #
vertex $-1 -1 $-1 $172 $272 #
straight-curve $-1 -1 $-1 -87.155662795708963 -557.69140943074967 -2535.9457053821588 -1000 0 0 F 0 F 0.039999999999999966 #
truecolor-adesk-attrib $-1 -1 $273 $-1 $173 -1056964608 #
face $274 -1 $-1 $275 $276 $3 $-1 $277 reversed single #
plane-surface $-1 -1 $-1 -247.15566279570896 -557.69140943074967 -2655.9457053821588 0 1 0 0 0 1 forward_v I I I I #
coedge $-1 -1 $-1 $278 $279 $176 $231 forward $280 $-1 #
edge $281 -1 $-1 $282 -0.20000000000000001 $235 0 $176 $283 forward @7 unknown #
coedge $-1 -1 $-1 $177 $267 $278 $284 reversed $233 $-1 #
loop $-1 -1 $-1 $-1 $222 $275 #
truecolor-adesk-attrib $-1 -1 $285 $-1 $178 -1056964608 #
vertex $-1 -1 $-1 $178 $286 #
straight-curve $-1 -1 $-1 -87.155662795708963 -565.69140943074967 -2655.9457053821588 0 1000 0 F 0 F 0.0080000000000000002 #
DXID-attrib $-1 -1 $-1 $179 $118 @18 ASM_EDGE_FROM_STEP @5 30317 #
point $-1 -1 $-1 -87.155662795708963 -557.69140943074967 -2655.9457053821588 #
edge $287 -1 $-1 $186 0 $192 0.067000000000000004 $203 $288 forward @7 unknown #
truecolor-adesk-attrib $-1 -1 $289 $-1 $184 -1056964608 #
straight-curve $-1 -1 $-1 -239.15566279570896 -557.69140943074967 -2535.9457053821588 0 0 -1000 F 0 F 0.12 #
DXID-attrib $-1 -1 $-1 $185 $128 @18 ASM_EDGE_FROM_STEP @5 44444 #
point $-1 -1 $-1 -239.15566279570885 -557.69140943074967 -2535.9457053821588 #
fmesh-eye-attrib $-1 -1 $290 $188 $129 #
truecolor-adesk-attrib $-1 -1 $291 $-1 $190 -1056964608 #
straight-curve $-1 -1 $-1 -239.15566279570896 -490.69140943074967 -2535.9457053821588 0 0 -1000 F 0 F 0.12 #
DXID-attrib $-1 -1 $-1 $191 $133 @18 ASM_EDGE_FROM_STEP @4 3105 #
point $-1 -1 $-1 -239.15566279570896 -490.69140943074967 -2535.9457053821588 #
DXID-attrib $-1 -1 $-1 $194 $136 @18 ASM_EDGE_FROM_STEP @4 2253 #
DXID-attrib $-1 -1 $-1 $200 $87 @18 ASM_FACE_FROM_STEP @16 step-3M-821-9026 #
DXID-attrib $-1 -1 $-1 $202 $94 @18 ASM_FACE_FROM_STEP @17 step-3M-821-44397 #
coedge $-1 -1 $-1 $292 $204 $207 $256 forward $148 $-1 #
truecolor-adesk-attrib $-1 -1 $293 $-1 $205 -1056964608 #
straight-curve $-1 -1 $-1 -247.15566279570896 -557.69140943074967 -2535.9457053821588 0 1000 0 F 0 F 0.074999999999999997 #
coedge $-1 -1 $-1 $207 $206 $294 $295 reversed $208 $-1 #
edge $296 -1 $-1 $210 0.15999999999999992 $297 0.20000000000000001 $252 $298 forward @7 unknown #
face $299 -1 $-1 $-1 $208 $3 $-1 $300 forward single #
DXID-attrib $-1 -1 $-1 $209 $154 @18 ASM_EDGE_FROM_STEP @5 14900 #
point $-1 -1 $-1 -247.15566279570896 -557.69140943074967 -2535.9457053821588 #
coedge $-1 -1 $-1 $301 $294 $212 $261 reversed $276 $-1 #
edge $302 -1 $-1 $282 0 $263 0.0080000000000000002 $212 $303 forward @7 unknown #
truecolor-adesk-attrib $-1 -1 $304 $-1 $213 -1056964608 #
vertex $-1 -1 $-1 $261 $305 #
straight-curve $-1 -1 $-1 -87.155662795708963 -557.69140943074967 -2655.9457053821588 1000 0 0 F -0.20000000000000001 F -0.15999999999999998 #
DXID-attrib $-1 -1 $-1 $216 $160 @18 ASM_EDGE_FROM_STEP @5 15116 #
coedge $-1 -1 $-1 $220 $292 $306 $307 reversed $148 $-1 #
coedge $-1 -1 $-1 $232 $222 $220 $268 reversed $233 $-1 #
edge $308 -1 $-1 $309 0 $225 0.0080000000000000002 $220 $310 forward @7 unknown #
truecolor-adesk-attrib $-1 -1 $311 $-1 $223 -1056964608 #
straight-curve $-1 -1 $-1 -87.155662795708963 -557.69140943074967 -2535.9457053821588 0 0 1000 F -0.12 F 0 #
DXID-attrib $-1 -1 $-1 $224 $172 @18 ASM_EDGE_FROM_STEP @5 17177 #
point $-1 -1 $-1 -87.155662795708963 -557.69140943074967 -2535.9457053821588 #
fmesh-eye-attrib $-1 -1 $312 $227 $173 #
truecolor-adesk-attrib $-1 -1 $313 $-1 $228 -1056964608 #
face $314 -1 $-1 $315 $233 $3 $-1 $316 reversed single #
loop $-1 -1 $-1 $-1 $294 $228 #
plane-surface $-1 -1 $-1 -287.15566279570896 -565.69140943074967 -2535.9457053821588 1 0 0 0 0 -1 forward_v I I I I #
coedge $-1 -1 $-1 $306 $230 $232 $284 forward $280 $-1 #
coedge $-1 -1 $-1 $230 $306 $301 $317 forward $280 $-1 #
loop $-1 -1 $-1 $-1 $279 $315 #
truecolor-adesk-attrib $-1 -1 $318 $-1 $231 -1056964608 #
vertex $-1 -1 $-1 $231 $319 #
straight-curve $-1 -1 $-1 -87.155662795708963 -565.69140943074967 -2655.9457053821588 1000 0 0 F -0.20000000000000001 F 0 #
edge $320 -1 $-1 $235 -0.12 $309 0 $232 $321 forward @7 unknown #
DXID-attrib $-1 -1 $-1 $234 $178 @18 ASM_EDGE_FROM_STEP @5 20211 #
point $-1 -1 $-1 -87.155662795708963 -565.69140943074967 -2655.9457053821588 #
truecolor-adesk-attrib $-1 -1 $322 $-1 $239 -1056964608 #
straight-curve $-1 -1 $-1 -239.15566279570896 -557.69140943074967 -2535.9457053821588 0 1000 0 F 0 F 0.067000000000000004 #
DXID-attrib $-1 -1 $-1 $240 $184 @18 ASM_EDGE_FROM_STEP @4 7443 #
DXID-attrib $-1 -1 $-1 $244 $129 @18 ASM_FACE_FROM_STEP @16 step-3M-821-5040 #
DXID-attrib $-1 -1 $-1 $245 $190 @18 ASM_EDGE_FROM_STEP @4 4605 #
coedge $-1 -1 $-1 $266 $252 $323 $324 reversed $148 $-1 #
DXID-attrib $-1 -1 $-1 $253 $205 @18 ASM_EDGE_FROM_STEP @5 43347 #
coedge $-1 -1 $-1 $260 $323 $255 $295 forward $276 $-1 #
edge $325 -1 $-1 $297 0 $263 0.12 $294 $326 forward @7 unknown #
truecolor-adesk-attrib $-1 -1 $327 $-1 $256 -1056964608 #
vertex $-1 -1 $-1 $256 $328 #
straight-curve $-1 -1 $-1 -87.155662795708963 -557.69140943074967 -2535.9457053821588 -1000 0 0 F 0.15999999999999992 F 0.20000000000000001 #
truecolor-adesk-attrib $-1 -1 $329 $-1 $257 -1056964608 #
plane-surface $-1 -1 $-1 -247.15566279570896 -557.69140943074967 -2655.9457053821588 0 1 0 0 0 1 forward_v I I I I #
coedge $-1 -1 $-1 $323 $260 $279 $317 reversed $276 $-1 #
truecolor-adesk-attrib $-1 -1 $330 $-1 $261 -1056964608 #
straight-curve $-1 -1 $-1 -287.15566279570896 -565.69140943074967 -2655.9457053821588 0 1000 0 F 0 F 0.0080000000000000002 #
DXID-attrib $-1 -1 $-1 $262 $213 @18 ASM_EDGE_FROM_STEP @4 3242 #
point $-1 -1 $-1 -287.15566279570896 -557.69140943074967 -2655.9457053821588 #
coedge $-1 -1 $-1 $279 $278 $266 $307 forward $280 $-1 #
edge $331 -1 $-1 $309 0 $332 0.20000000000000001 $266 $333 forward @7 unknown #
truecolor-adesk-attrib $-1 -1 $334 $-1 $268 -1056964608 #
vertex $-1 -1 $-1 $307 $335 #
straight-curve $-1 -1 $-1 -87.155662795708963 -565.69140943074967 -2535.9457053821588 0 1000 0 F 0 F 0.0080000000000000002 #
DXID-attrib $-1 -1 $-1 $269 $223 @18 ASM_EDGE_FROM_STEP @5 12934 #
DXID-attrib $-1 -1 $-1 $273 $173 @18 ASM_FACE_FROM_STEP @17 step-3M-821-12413 #
fmesh-eye-attrib $-1 -1 $336 $274 $228 #
truecolor-adesk-attrib $-1 -1 $337 $-1 $275 -1056964608 #
face $338 -1 $-1 $257 $280 $3 $-1 $339 reversed single #
plane-surface $-1 -1 $-1 -87.155662795708963 -565.69140943074967 -2535.9457053821588 -1 0 0 0 0 1 forward_v I I I I #
edge $340 -1 $-1 $332 0 $282 0.12 $301 $341 forward @7 unknown #
DXID-attrib $-1 -1 $-1 $281 $231 @18 ASM_EDGE_FROM_STEP @4 1793 #
point $-1 -1 $-1 -287.15566279570896 -565.69140943074967 -2655.9457053821588 #
truecolor-adesk-attrib $-1 -1 $342 $-1 $284 -1056964608 #
straight-curve $-1 -1 $-1 -87.155662795708963 -565.69140943074967 -2535.9457053821588 0 0 1000 F -0.12 F 0 #
DXID-attrib $-1 -1 $-1 $287 $239 @18 ASM_EDGE_FROM_STEP @5 38569 #
coedge $-1 -1 $-1 $294 $301 $292 $324 forward $276 $-1 #
edge $343 -1 $-1 $332 0 $297 0.0080000000000000002 $292 $344 forward @7 unknown #
truecolor-adesk-attrib $-1 -1 $345 $-1 $295 -1056964608 #
straight-curve $-1 -1 $-1 -287.15566279570896 -557.69140943074967 -2535.9457053821588 0 0 -1000 F 0 F 0.12 #
DXID-attrib $-1 -1 $-1 $296 $256 @18 ASM_EDGE_FROM_STEP @4 8039 #
point $-1 -1 $-1 -287.15566279570896 -557.69140943074967 -2535.9457053821588 #
fmesh-eye-attrib $-1 -1 $346 $299 $257 #
DXID-attrib $-1 -1 $-1 $302 $261 @18 ASM_EDGE_FROM_STEP @5 19398 #
truecolor-adesk-attrib $-1 -1 $347 $-1 $307 -1056964608 #
vertex $-1 -1 $-1 $324 $348 #
straight-curve $-1 -1 $-1 -87.155662795708963 -565.69140943074967 -2535.9457053821588 -1000 0 0 F 0 F 0.20000000000000001 #
DXID-attrib $-1 -1 $-1 $308 $268 @18 ASM_EDGE_FROM_STEP @5 28366 #
point $-1 -1 $-1 -87.155662795708963 -565.69140943074967 -2535.9457053821588 #
DXID-attrib $-1 -1 $-1 $313 $228 @18 ASM_FACE_FROM_STEP @17 step-3M-821-29725 #
fmesh-eye-attrib $-1 -1 $349 $314 $275 #
truecolor-adesk-attrib $-1 -1 $350 $-1 $315 -1056964608 #
plane-surface $-1 -1 $-1 -247.15566279570896 -565.69140943074967 -2655.9457053821588 0 1 0 0 0 1 forward_v I I I I #
truecolor-adesk-attrib $-1 -1 $351 $-1 $317 -1056964608 #
straight-curve $-1 -1 $-1 -287.15566279570896 -565.69140943074967 -2535.9457053821588 0 0 -1000 F 0 F 0.12 #
DXID-attrib $-1 -1 $-1 $320 $284 @18 ASM_EDGE_FROM_STEP @5 31184 #
truecolor-adesk-attrib $-1 -1 $352 $-1 $324 -1056964608 #
straight-curve $-1 -1 $-1 -287.15566279570896 -565.69140943074967 -2535.9457053821588 0 1000 0 F 0 F 0.0080000000000000002 #
DXID-attrib $-1 -1 $-1 $325 $295 @18 ASM_EDGE_FROM_STEP @5 23486 #
DXID-attrib $-1 -1 $-1 $329 $257 @18 ASM_FACE_FROM_STEP @17 step-3M-821-14145 #
DXID-attrib $-1 -1 $-1 $331 $307 @18 ASM_EDGE_FROM_STEP @4 4725 #
point $-1 -1 $-1 -287.15566279570896 -565.69140943074967 -2535.9457053821588 #
DXID-attrib $-1 -1 $-1 $337 $275 @18 ASM_FACE_FROM_STEP @16 step-3M-821-4273 #
fmesh-eye-attrib $-1 -1 $353 $338 $315 #
DXID-attrib $-1 -1 $-1 $340 $317 @18 ASM_EDGE_FROM_STEP @5 24561 #
DXID-attrib $-1 -1 $-1 $343 $324 @18 ASM_EDGE_FROM_STEP @5 39536 #
DXID-attrib $-1 -1 $-1 $350 $315 @18 ASM_FACE_FROM_STEP @17 step-3M-821-35700 #
