700 398 1 0         
5 ZWCAD 12 ACIS 28.0 NT 24 Mon May 13 09:36:27 2024 
1 9.9999999999999995e-07 1e-10 
body $1 -1 $-1 $2 $-1 $-1 #
DXID-attrib $-1 -1 $-1 $-1 $0 @18 ASM_BODY_FROM_STEP @83 0A8603F3E930F26D0F4276E7C4C7F52F3DB6FFAE|:|4AF57802534EAC44E294A272D701FF822128FC27 #
lump $-1 -1 $-1 $-1 $3 $0 #
shell $-1 -1 $-1 $-1 $-1 $4 $-1 $2 #
face $5 -1 $-1 $6 $7 $3 $-1 $8 reversed single #
truecolor-adesk-attrib $-1 -1 $9 $-1 $4 -1056964608 #
face $10 -1 $-1 $11 $12 $3 $-1 $13 reversed single #
loop $-1 -1 $-1 $-1 $14 $4 #
cone-surface $-1 -1 $-1 -24.524647065593854 -245.61704481425627 27.498451409015097 2.4492935982947069e-16 -1 1.0947644252537633e-47 2.7499999999999991 6.735557395310442e-16 0 1 I I 0 1 2.7499999999999991 forward I I I I #
DXID-attrib $-1 -1 $-1 $5 $4 @18 ASM_FACE_FROM_STEP @17 step-2M-555-15636 #
truecolor-adesk-attrib $-1 -1 $15 $-1 $6 -1056964608 #
face $16 -1 $-1 $17 $18 $3 $-1 $19 reversed single #
loop $-1 -1 $-1 $-1 $20 $6 #
cone-surface $-1 -1 $-1 -64.524647065593854 -245.61704481425627 27.498451409015097 2.4492935982947069e-16 -1 1.0947644252537633e-47 2.7499999999999991 6.735557395310442e-16 0 1 I I 0 1 2.7499999999999991 forward I I I I #
coedge $-1 -1 $-1 $21 $22 $23 $24 forward $7 $-1 #
DXID-attrib $-1 -1 $-1 $10 $6 @18 ASM_FACE_FROM_STEP @17 step-2M-555-20593 #
truecolor-adesk-attrib $-1 -1 $25 $-1 $11 -1056964608 #
face $26 -1 $-1 $27 $28 $3 $-1 $29 reversed single #
loop $-1 -1 $-1 $-1 $30 $11 #
cone-surface $-1 -1 $-1 -44.524647065593854 -245.61704481425627 27.498451409015097 2.4492935982947069e-16 -1 1.0947644252537633e-47 8.25 2.0206672185931331e-15 0 1 I I 0 1 8.25 forward I I I I #
coedge $-1 -1 $-1 $31 $32 $33 $34 reversed $12 $-1 #
coedge $-1 -1 $-1 $35 $14 $36 $37 forward $7 $-1 #
coedge $-1 -1 $-1 $14 $35 $38 $39 reversed $7 $-1 #
coedge $-1 -1 $-1 $40 $40 $14 $24 reversed $41 $-1 #
edge $42 -1 $-1 $43 -3.1415926535897931 $44 1.2246467991473525e-16 $14 $45 forward @7 unknown #
DXID-attrib $-1 -1 $-1 $16 $11 @18 ASM_FACE_FROM_STEP @17 step-2M-555-14008 #
truecolor-adesk-attrib $-1 -1 $46 $-1 $17 -1056964608 #
face $47 -1 $-1 $48 $49 $3 $-1 $50 forward single #
loop $-1 -1 $-1 $51 $52 $17 #
plane-surface $-1 -1 $-1 -44.524647065593854 -245.61704481425627 27.498451409015097 2.4492935982947069e-16 -1 1.0947644252537633e-47 1 2.4492935982947069e-16 0 forward_v I I I I #
coedge $-1 -1 $-1 $53 $54 $55 $56 reversed $18 $-1 #
coedge $-1 -1 $-1 $57 $20 $58 $59 forward $12 $-1 #
coedge $-1 -1 $-1 $20 $57 $60 $61 reversed $12 $-1 #
coedge $-1 -1 $-1 $62 $62 $20 $34 forward $63 $-1 #
edge $64 -1 $-1 $65 -3.1415926535897931 $66 0 $20 $67 forward @7 unknown #
coedge $-1 -1 $-1 $22 $21 $68 $69 reversed $7 $-1 #
coedge $-1 -1 $-1 $70 $71 $21 $37 reversed $72 $-1 #
edge $73 -1 $-1 $44 0 $74 0.0040000000000000001 $21 $75 forward @7 unknown #
coedge $-1 -1 $-1 $71 $70 $22 $39 forward $72 $-1 #
edge $76 -1 $-1 $43 0 $77 0.0040000000000000001 $22 $78 forward @7 unknown #
coedge $-1 -1 $-1 $23 $23 $70 $79 reversed $41 $-1 #
loop $-1 -1 $-1 $-1 $23 $17 #
truecolor-adesk-attrib $-1 -1 $80 $-1 $24 -1056964608 #
vertex $-1 -1 $-1 $24 $81 #
vertex $-1 -1 $-1 $24 $82 #
ellipse-curve $-1 -1 $-1 -24.524647065593854 -245.61704481425627 27.498451409015097 -2.4492935982947069e-16 1 -1.0947644252537633e-47 -2.7499999999999991 -6.735557395310442e-16 0 1 F -3.1415926535897931 F 1.2246467991473525e-16 #
DXID-attrib $-1 -1 $-1 $26 $17 @18 ASM_FACE_FROM_STEP @17 step-2M-555-15233 #
truecolor-adesk-attrib $-1 -1 $83 $-1 $27 -1056964608 #
face $84 -1 $-1 $85 $86 $3 $-1 $87 forward single #
loop $-1 -1 $-1 $88 $89 $27 #
plane-surface $-1 -1 $-1 -44.524647065593854 -249.61704481425627 27.498451409015097 2.4492935982947069e-16 -1 1.0947644252537633e-47 1 2.4492935982947069e-16 0 forward_v I I I I #
loop $-1 -1 $-1 $63 $90 $17 #
coedge $-1 -1 $-1 $91 $92 $93 $94 reversed $28 $-1 #
coedge $-1 -1 $-1 $95 $30 $96 $97 forward $18 $-1 #
coedge $-1 -1 $-1 $30 $95 $98 $99 reversed $18 $-1 #
coedge $-1 -1 $-1 $90 $90 $30 $56 forward $51 $-1 #
edge $100 -1 $-1 $101 -3.1415926535897931 $102 0 $30 $103 forward @7 unknown #
coedge $-1 -1 $-1 $32 $31 $104 $105 forward $12 $-1 #
coedge $-1 -1 $-1 $106 $107 $31 $59 reversed $108 $-1 #
edge $109 -1 $-1 $65 0 $110 0.0040000000000000001 $31 $111 forward @7 unknown #
coedge $-1 -1 $-1 $107 $106 $32 $61 forward $108 $-1 #
edge $112 -1 $-1 $66 0 $113 0.0040000000000000001 $32 $114 forward @7 unknown #
coedge $-1 -1 $-1 $33 $33 $106 $115 forward $63 $-1 #
loop $-1 -1 $-1 $41 $62 $17 #
truecolor-adesk-attrib $-1 -1 $116 $-1 $34 -1056964608 #
vertex $-1 -1 $-1 $34 $117 #
vertex $-1 -1 $-1 $34 $118 #
ellipse-curve $-1 -1 $-1 -64.524647065593854 -245.61704481425627 27.498451409015097 2.4492935982947069e-16 -1 1.0947644252537633e-47 2.7499999999999991 6.735557395310442e-16 0 1 F -3.1415926535897931 F 0 #
coedge $-1 -1 $-1 $119 $119 $35 $69 forward $120 $-1 #
edge $121 -1 $-1 $77 -3.1415926535897931 $74 1.2246467991473525e-16 $35 $122 forward @7 unknown #
coedge $-1 -1 $-1 $38 $36 $40 $79 forward $72 $-1 #
coedge $-1 -1 $-1 $36 $38 $119 $123 reversed $72 $-1 #
loop $-1 -1 $-1 $-1 $36 $124 #
truecolor-adesk-attrib $-1 -1 $125 $-1 $37 -1056964608 #
vertex $-1 -1 $-1 $37 $126 #
straight-curve $-1 -1 $-1 -27.274647065593854 -245.61704481425627 27.498451409015097 2.449293598294707e-13 -1000 1.0947644252537633e-44 F 0 F 0.0040000000000000001 #
truecolor-adesk-attrib $-1 -1 $127 $-1 $39 -1056964608 #
vertex $-1 -1 $-1 $69 $128 #
straight-curve $-1 -1 $-1 -21.774647065593854 -245.61704481425627 27.498451409015097 2.449293598294707e-13 -1000 1.0947644252537633e-44 F 0 F 0.0040000000000000001 #
edge $129 -1 $-1 $44 1.2246467991473525e-16 $43 3.1415926535897931 $40 $130 forward @7 unknown #
DXID-attrib $-1 -1 $-1 $42 $24 @18 ASM_EDGE_FROM_STEP @5 33772 #
point $-1 -1 $-1 -21.774647065593854 -245.61704481425627 27.498451409015097 #
point $-1 -1 $-1 -27.274647065593854 -245.61704481425627 27.498451409015097 #
DXID-attrib $-1 -1 $-1 $47 $27 @18 ASM_FACE_FROM_STEP @17 step-2M-555-16424 #
truecolor-adesk-attrib $-1 -1 $131 $-1 $48 -1056964608 #
face $132 -1 $-1 $133 $134 $3 $-1 $135 forward single #
loop $-1 -1 $-1 $-1 $136 $48 #
plane-surface $-1 -1 $-1 -17.024647065593854 -245.61704481425627 39.998451409015104 1 2.4492935982947069e-16 0 -2.4492935982947069e-16 1 -1.0947644252537633e-47 forward_v I I I I #
loop $-1 -1 $-1 $137 $138 $27 #
coedge $-1 -1 $-1 $139 $140 $141 $142 forward $49 $-1 #
coedge $-1 -1 $-1 $55 $55 $143 $144 forward $51 $-1 #
coedge $-1 -1 $-1 $145 $52 $146 $147 forward $28 $-1 #
coedge $-1 -1 $-1 $52 $148 $149 $150 forward $28 $-1 #
coedge $-1 -1 $-1 $151 $152 $52 $94 forward $153 $-1 #
edge $154 -1 $-1 $155 -0.051999999999999977 $156 -0.0029999999999999805 $52 $157 forward @7 unknown #
coedge $-1 -1 $-1 $54 $53 $158 $159 forward $18 $-1 #
coedge $-1 -1 $-1 $143 $160 $53 $97 reversed $161 $-1 #
edge $162 -1 $-1 $101 0 $163 0.0040000000000000001 $53 $164 forward @7 unknown #
coedge $-1 -1 $-1 $160 $143 $54 $99 forward $161 $-1 #
edge $165 -1 $-1 $102 0 $166 0.0040000000000000001 $54 $167 forward @7 unknown #
truecolor-adesk-attrib $-1 -1 $168 $-1 $56 -1056964608 #
vertex $-1 -1 $-1 $56 $169 #
vertex $-1 -1 $-1 $56 $170 #
ellipse-curve $-1 -1 $-1 -44.524647065593854 -245.61704481425627 27.498451409015097 2.4492935982947069e-16 -1 1.0947644252537633e-47 8.25 2.0206672185931331e-15 0 1 F -3.1415926535897931 F 0 #
coedge $-1 -1 $-1 $171 $171 $57 $105 reversed $137 $-1 #
edge $172 -1 $-1 $110 -3.1415926535897931 $113 0 $57 $173 forward @7 unknown #
coedge $-1 -1 $-1 $60 $58 $62 $115 reversed $108 $-1 #
coedge $-1 -1 $-1 $58 $60 $171 $174 forward $108 $-1 #
loop $-1 -1 $-1 $-1 $58 $175 #
truecolor-adesk-attrib $-1 -1 $176 $-1 $59 -1056964608 #
vertex $-1 -1 $-1 $59 $177 #
straight-curve $-1 -1 $-1 -67.274647065593854 -245.61704481425627 27.498451409015097 2.449293598294707e-13 -1000 1.0947644252537633e-44 F 0 F 0.0040000000000000001 #
truecolor-adesk-attrib $-1 -1 $178 $-1 $61 -1056964608 #
vertex $-1 -1 $-1 $105 $179 #
straight-curve $-1 -1 $-1 -61.774647065593854 -245.61704481425627 27.498451409015097 2.449293598294707e-13 -1000 1.0947644252537633e-44 F 0 F 0.0040000000000000001 #
edge $180 -1 $-1 $66 0 $65 3.1415926535897931 $62 $181 forward @7 unknown #
DXID-attrib $-1 -1 $-1 $64 $34 @18 ASM_EDGE_FROM_STEP @5 23783 #
point $-1 -1 $-1 -67.274647065593854 -245.61704481425627 27.498451409015097 #
point $-1 -1 $-1 -61.774647065593854 -245.61704481425627 27.498451409015097 #
coedge $-1 -1 $-1 $68 $68 $71 $123 forward $120 $-1 #
loop $-1 -1 $-1 $-1 $68 $27 #
truecolor-adesk-attrib $-1 -1 $182 $-1 $69 -1056964608 #
ellipse-curve $-1 -1 $-1 -24.524647065593854 -249.61704481425627 27.498451409015097 -2.4492935982947069e-16 1 -1.0947644252537633e-47 -2.7499999999999991 -6.735557395310442e-16 0 1 F -3.1415926535897931 F 1.2246467991473525e-16 #
edge $183 -1 $-1 $74 1.2246467991473525e-16 $77 3.1415926535897931 $119 $184 forward @7 unknown #
face $185 -1 $-1 $-1 $72 $3 $-1 $186 reversed single #
DXID-attrib $-1 -1 $-1 $73 $37 @18 ASM_EDGE_FROM_STEP @5 35716 #
point $-1 -1 $-1 -27.274647065593854 -249.61704481425627 27.498451409015097 #
DXID-attrib $-1 -1 $-1 $76 $39 @18 ASM_EDGE_FROM_STEP @5 25816 #
point $-1 -1 $-1 -21.774647065593854 -249.61704481425627 27.498451409015097 #
truecolor-adesk-attrib $-1 -1 $187 $-1 $79 -1056964608 #
ellipse-curve $-1 -1 $-1 -24.524647065593854 -245.61704481425627 27.498451409015097 -2.4492935982947069e-16 1 -1.0947644252537633e-47 -2.7499999999999991 -6.735557395310442e-16 0 1 F 1.2246467991473525e-16 F 3.1415926535897931 #
DXID-attrib $-1 -1 $-1 $84 $48 @18 ASM_FACE_FROM_STEP @15 step-2M-555-275 #
truecolor-adesk-attrib $-1 -1 $188 $-1 $85 -1056964608 #
face $189 -1 $-1 $190 $191 $3 $-1 $192 forward single #
loop $-1 -1 $-1 $-1 $193 $85 #
plane-surface $-1 -1 $-1 -72.024647065593854 -245.61704481425627 14.998451409015098 2.6813994984148267e-63 -1.0947644252537633e-47 -1 -2.4492935982947069e-16 1 -1.0947644252537633e-47 forward_v I I I I #
coedge $-1 -1 $-1 $194 $195 $145 $196 forward $86 $-1 #
loop $-1 -1 $-1 $120 $171 $27 #
coedge $-1 -1 $-1 $158 $158 $160 $197 reversed $88 $-1 #
coedge $-1 -1 $-1 $198 $89 $199 $200 forward $49 $-1 #
coedge $-1 -1 $-1 $89 $201 $202 $203 forward $49 $-1 #
coedge $-1 -1 $-1 $195 $194 $89 $142 reversed $86 $-1 #
edge $204 -1 $-1 $205 -0.021999999999999992 $206 -0.0030000000000000061 $89 $207 forward @7 unknown #
coedge $-1 -1 $-1 $98 $96 $90 $144 reversed $161 $-1 #
edge $208 -1 $-1 $102 0 $101 3.1415926535897931 $90 $209 forward @7 unknown #
coedge $-1 -1 $-1 $210 $91 $136 $196 reversed $28 $-1 #
coedge $-1 -1 $-1 $211 $212 $91 $147 reversed $213 $-1 #
edge $214 -1 $-1 $155 -0.0042426406871193031 $215 0 $91 $216 forward @7 unknown #
coedge $-1 -1 $-1 $92 $217 $218 $219 reversed $28 $-1 #
coedge $-1 -1 $-1 $220 $221 $92 $150 reversed $222 $-1 #
edge $223 -1 $-1 $224 -0.0042426406871192675 $156 0 $92 $225 forward @7 unknown #
coedge $-1 -1 $-1 $226 $93 $221 $227 forward $153 $-1 #
coedge $-1 -1 $-1 $93 $226 $211 $228 forward $153 $-1 #
loop $-1 -1 $-1 $-1 $226 $190 #
truecolor-adesk-attrib $-1 -1 $229 $-1 $94 -1056964608 #
vertex $-1 -1 $-1 $94 $230 #
vertex $-1 -1 $-1 $94 $231 #
straight-curve $-1 -1 $-1 -72.024647065593854 -245.61704481425627 39.998451409015104 -1000 -2.449293598294707e-13 0 F -0.051999999999999977 F -0.0029999999999999805 #
coedge $-1 -1 $-1 $138 $138 $95 $159 reversed $88 $-1 #
edge $232 -1 $-1 $163 -3.1415926535897931 $166 0 $95 $233 forward @7 unknown #
coedge $-1 -1 $-1 $96 $98 $138 $197 forward $161 $-1 #
loop $-1 -1 $-1 $-1 $96 $234 #
truecolor-adesk-attrib $-1 -1 $235 $-1 $97 -1056964608 #
vertex $-1 -1 $-1 $97 $236 #
straight-curve $-1 -1 $-1 -52.774647065593854 -245.61704481425627 27.498451409015097 2.449293598294707e-13 -1000 1.0947644252537633e-44 F 0 F 0.0040000000000000001 #
truecolor-adesk-attrib $-1 -1 $237 $-1 $99 -1056964608 #
vertex $-1 -1 $-1 $159 $238 #
straight-curve $-1 -1 $-1 -36.274647065593854 -245.61704481425627 27.498451409015097 2.449293598294707e-13 -1000 1.0947644252537633e-44 F 0 F 0.0040000000000000001 #
DXID-attrib $-1 -1 $-1 $100 $56 @18 ASM_EDGE_FROM_STEP @4 5833 #
point $-1 -1 $-1 -52.774647065593854 -245.61704481425627 27.498451409015097 #
point $-1 -1 $-1 -36.274647065593854 -245.61704481425627 27.498451409015097 #
coedge $-1 -1 $-1 $104 $104 $107 $174 reversed $137 $-1 #
truecolor-adesk-attrib $-1 -1 $239 $-1 $105 -1056964608 #
ellipse-curve $-1 -1 $-1 -64.524647065593854 -249.61704481425627 27.498451409015097 2.4492935982947069e-16 -1 1.0947644252537633e-47 2.7499999999999991 6.735557395310442e-16 0 1 F -3.1415926535897931 F 0 #
edge $240 -1 $-1 $113 0 $110 3.1415926535897931 $171 $241 forward @7 unknown #
face $242 -1 $-1 $124 $108 $3 $-1 $243 reversed single #
DXID-attrib $-1 -1 $-1 $109 $59 @18 ASM_EDGE_FROM_STEP @5 21788 #
point $-1 -1 $-1 -67.274647065593854 -249.61704481425627 27.498451409015097 #
DXID-attrib $-1 -1 $-1 $112 $61 @18 ASM_EDGE_FROM_STEP @5 15854 #
point $-1 -1 $-1 -61.774647065593854 -249.61704481425627 27.498451409015097 #
truecolor-adesk-attrib $-1 -1 $244 $-1 $115 -1056964608 #
ellipse-curve $-1 -1 $-1 -64.524647065593854 -245.61704481425627 27.498451409015097 2.4492935982947069e-16 -1 1.0947644252537633e-47 2.7499999999999991 6.735557395310442e-16 0 1 F 0 F 3.1415926535897931 #
DXID-attrib $-1 -1 $-1 $121 $69 @18 ASM_EDGE_FROM_STEP @5 27807 #
truecolor-adesk-attrib $-1 -1 $245 $-1 $123 -1056964608 #
ellipse-curve $-1 -1 $-1 -24.524647065593854 -249.61704481425627 27.498451409015097 -2.4492935982947069e-16 1 -1.0947644252537633e-47 -2.7499999999999991 -6.735557395310442e-16 0 1 F 1.2246467991473525e-16 F 3.1415926535897931 #
truecolor-adesk-attrib $-1 -1 $246 $-1 $124 -1056964608 #
cone-surface $-1 -1 $-1 -24.524647065593854 -245.61704481425627 27.498451409015097 2.4492935982947069e-16 -1 1.0947644252537633e-47 2.7499999999999991 6.735557395310442e-16 0 1 I I 0 1 2.7499999999999991 forward I I I I #
DXID-attrib $-1 -1 $-1 $129 $79 @18 ASM_EDGE_FROM_STEP @5 37223 #
DXID-attrib $-1 -1 $-1 $132 $85 @18 ASM_FACE_FROM_STEP @17 step-2M-555-18608 #
truecolor-adesk-attrib $-1 -1 $247 $-1 $133 -1056964608 #
face $248 -1 $-1 $249 $153 $3 $-1 $250 forward single #
loop $-1 -1 $-1 $-1 $218 $133 #
plane-surface $-1 -1 $-1 -72.024647065593854 -245.61704481425627 39.998451409015104 -1 -2.4492935982947069e-16 -1.3877787807814457e-16 1.3877787807814457e-16 3.3990776836172272e-32 -1 forward_v I I I I #
coedge $-1 -1 $-1 $251 $252 $253 $254 forward $134 $-1 #
coedge $-1 -1 $-1 $141 $136 $212 $255 forward $86 $-1 #
coedge $-1 -1 $-1 $136 $141 $256 $257 forward $86 $-1 #
edge $258 -1 $-1 $259 -0.021999999999999992 $215 -0.0030000000000000027 $145 $260 forward @7 unknown #
edge $261 -1 $-1 $166 0 $163 3.1415926535897931 $138 $262 forward @7 unknown #
coedge $-1 -1 $-1 $263 $139 $226 $264 forward $49 $-1 #
coedge $-1 -1 $-1 $212 $211 $139 $200 reversed $213 $-1 #
edge $265 -1 $-1 $206 -0.01272792206135792 $266 -0.0084852813742386183 $139 $267 forward @7 unknown #
coedge $-1 -1 $-1 $140 $268 $269 $270 forward $49 $-1 #
coedge $-1 -1 $-1 $271 $256 $140 $203 reversed $272 $-1 #
edge $273 -1 $-1 $274 0.0084852813742385073 $205 0.012727922061357786 $140 $275 forward @7 unknown #
truecolor-adesk-attrib $-1 -1 $276 $-1 $142 -1056964608 #
vertex $-1 -1 $-1 $142 $277 #
vertex $-1 -1 $-1 $142 $278 #
straight-curve $-1 -1 $-1 -17.024647065593854 -249.61704481425627 39.998451409015104 -2.6813994984148268e-60 1.0947644252537633e-44 1000 F -0.021999999999999992 F -0.0030000000000000061 #
truecolor-adesk-attrib $-1 -1 $279 $-1 $144 -1056964608 #
ellipse-curve $-1 -1 $-1 -44.524647065593854 -245.61704481425627 27.498451409015097 2.4492935982947069e-16 -1 1.0947644252537633e-47 8.25 2.0206672185931331e-15 0 1 F 0 F 3.1415926535897931 #
coedge $-1 -1 $-1 $253 $145 $280 $281 forward $28 $-1 #
coedge $-1 -1 $-1 $199 $146 $152 $228 reversed $213 $-1 #
coedge $-1 -1 $-1 $146 $199 $194 $255 reversed $213 $-1 #
loop $-1 -1 $-1 $-1 $146 $249 #
truecolor-adesk-attrib $-1 -1 $282 $-1 $147 -1056964608 #
vertex $-1 -1 $-1 $147 $283 #
straight-curve $-1 -1 $-1 -17.024647065593854 -245.61704481425627 36.998451409015097 707.10678118654914 1.7319121124709909e-13 -707.10678118654596 F -0.0042426406871193031 F 0 #
coedge $-1 -1 $-1 $148 $253 $284 $285 forward $28 $-1 #
coedge $-1 -1 $-1 $286 $287 $148 $219 forward $191 $-1 #
edge $288 -1 $-1 $224 0.0029999999999999949 $289 0.022000000000000006 $148 $290 forward @7 unknown #
coedge $-1 -1 $-1 $291 $149 $287 $292 reversed $222 $-1 #
coedge $-1 -1 $-1 $149 $291 $151 $227 reversed $222 $-1 #
loop $-1 -1 $-1 $-1 $149 $293 #
truecolor-adesk-attrib $-1 -1 $294 $-1 $150 -1056964608 #
vertex $-1 -1 $-1 $219 $295 #
straight-curve $-1 -1 $-1 -69.024647065593882 -245.61704481425627 39.998451409015104 707.10678118654596 1.731912112470983e-13 707.10678118654926 F -0.0042426406871192675 F 0 #
coedge $-1 -1 $-1 $152 $151 $198 $264 reversed $153 $-1 #
edge $296 -1 $-1 $156 0 $297 0.0040000000000000001 $151 $298 forward @7 unknown #
edge $299 -1 $-1 $266 -0.0040000000000000001 $155 0 $152 $300 forward @7 unknown #
DXID-attrib $-1 -1 $-1 $154 $94 @18 ASM_EDGE_FROM_STEP @5 28548 #
point $-1 -1 $-1 -20.024647065593875 -245.61704481425627 39.998451409015104 #
point $-1 -1 $-1 -69.024647065593882 -245.61704481425627 39.998451409015104 #
truecolor-adesk-attrib $-1 -1 $301 $-1 $159 -1056964608 #
ellipse-curve $-1 -1 $-1 -44.524647065593854 -249.61704481425627 27.498451409015097 2.4492935982947069e-16 -1 1.0947644252537633e-47 8.25 2.0206672185931331e-15 0 1 F -3.1415926535897931 F 0 #
face $302 -1 $-1 $175 $161 $3 $-1 $303 reversed single #
DXID-attrib $-1 -1 $-1 $162 $97 @18 ASM_EDGE_FROM_STEP @4 1804 #
point $-1 -1 $-1 -52.774647065593854 -249.61704481425627 27.498451409015097 #
DXID-attrib $-1 -1 $-1 $165 $99 @18 ASM_EDGE_FROM_STEP @5 34493 #
point $-1 -1 $-1 -36.274647065593854 -249.61704481425627 27.498451409015097 #
DXID-attrib $-1 -1 $-1 $172 $105 @18 ASM_EDGE_FROM_STEP @5 19836 #
truecolor-adesk-attrib $-1 -1 $304 $-1 $174 -1056964608 #
ellipse-curve $-1 -1 $-1 -64.524647065593854 -249.61704481425627 27.498451409015097 2.4492935982947069e-16 -1 1.0947644252537633e-47 2.7499999999999991 6.735557395310442e-16 0 1 F 0 F 3.1415926535897931 #
truecolor-adesk-attrib $-1 -1 $305 $-1 $175 -1056964608 #
cone-surface $-1 -1 $-1 -64.524647065593854 -245.61704481425627 27.498451409015097 2.4492935982947069e-16 -1 1.0947644252537633e-47 2.7499999999999991 6.735557395310442e-16 0 1 I I 0 1 2.7499999999999991 forward I I I I #
DXID-attrib $-1 -1 $-1 $180 $115 @18 ASM_EDGE_FROM_STEP @4 2539 #
DXID-attrib $-1 -1 $-1 $183 $123 @18 ASM_EDGE_FROM_STEP @4 1290 #
DXID-attrib $-1 -1 $-1 $185 $124 @18 ASM_FACE_FROM_STEP @16 step-2M-555-4654 #
DXID-attrib $-1 -1 $-1 $189 $133 @18 ASM_FACE_FROM_STEP @17 step-2M-555-13291 #
truecolor-adesk-attrib $-1 -1 $306 $-1 $190 -1056964608 #
face $307 -1 $-1 $308 $213 $3 $-1 $309 reversed single #
plane-surface $-1 -1 $-1 -72.024647065593854 -245.61704481425627 39.998451409015104 -2.6813994984148267e-63 1.0947644252537633e-47 1 2.4492935982947069e-16 -1 1.0947644252537633e-47 forward_v I I I I #
coedge $-1 -1 $-1 $269 $193 $271 $310 forward $134 $-1 #
coedge $-1 -1 $-1 $193 $269 $311 $312 forward $134 $-1 #
coedge $-1 -1 $-1 $217 $210 $193 $254 reversed $28 $-1 #
edge $313 -1 $-1 $314 0.0030000000000000113 $315 0.052000000000000011 $253 $316 forward @7 unknown #
edge $317 -1 $-1 $215 0 $206 0.0040000000000000001 $194 $318 forward @7 unknown #
coedge $-1 -1 $-1 $202 $280 $195 $257 reversed $272 $-1 #
edge $319 -1 $-1 $205 -0.0040000000000000001 $259 0 $195 $320 forward @7 unknown #
truecolor-adesk-attrib $-1 -1 $321 $-1 $196 -1056964608 #
vertex $-1 -1 $-1 $196 $322 #
straight-curve $-1 -1 $-1 -17.024647065593854 -245.61704481425627 39.998451409015104 -2.6813994984148268e-60 1.0947644252537633e-44 1000 F -0.021999999999999992 F -0.0030000000000000027 #
truecolor-adesk-attrib $-1 -1 $323 $-1 $197 -1056964608 #
ellipse-curve $-1 -1 $-1 -44.524647065593854 -249.61704481425627 27.498451409015097 2.4492935982947069e-16 -1 1.0947644252537633e-47 8.25 2.0206672185931331e-15 0 1 F 0 F 3.1415926535897931 #
coedge $-1 -1 $-1 $324 $198 $291 $325 forward $49 $-1 #
edge $326 -1 $-1 $266 -0.051999999999999984 $297 -0.0029999999999999805 $198 $327 forward @7 unknown #
truecolor-adesk-attrib $-1 -1 $328 $-1 $200 -1056964608 #
vertex $-1 -1 $-1 $200 $329 #
straight-curve $-1 -1 $-1 -26.024647065593918 -249.61704481425627 45.998451409015118 -707.10678118654914 -1.7319121124709909e-13 707.10678118654596 F -0.01272792206135792 F -0.0084852813742386183 #
coedge $-1 -1 $-1 $201 $324 $330 $331 forward $49 $-1 #
coedge $-1 -1 $-1 $252 $251 $201 $270 reversed $134 $-1 #
edge $332 -1 $-1 $333 0.0030000000000000113 $274 0.052000000000000011 $201 $334 forward @7 unknown #
coedge $-1 -1 $-1 $280 $202 $251 $310 reversed $272 $-1 #
loop $-1 -1 $-1 $-1 $280 $308 #
truecolor-adesk-attrib $-1 -1 $335 $-1 $203 -1056964608 #
vertex $-1 -1 $-1 $270 $336 #
straight-curve $-1 -1 $-1 -26.024647065593776 -249.61704481425627 8.9984514090151251 707.1067811865455 1.731912112470982e-13 707.10678118654971 F 0.0084852813742385073 F 0.012727922061357786 #
DXID-attrib $-1 -1 $-1 $204 $142 @18 ASM_EDGE_FROM_STEP @5 35222 #
point $-1 -1 $-1 -17.024647065593854 -249.61704481425627 17.998451409015107 #
point $-1 -1 $-1 -17.024647065593854 -249.61704481425627 36.998451409015097 #
DXID-attrib $-1 -1 $-1 $208 $144 @18 ASM_EDGE_FROM_STEP @4 4565 #
coedge $-1 -1 $-1 $256 $271 $210 $281 reversed $272 $-1 #
edge $337 -1 $-1 $259 -0.004242640687119284 $315 0 $210 $338 forward @7 unknown #
DXID-attrib $-1 -1 $-1 $214 $147 @18 ASM_EDGE_FROM_STEP @5 20541 #
point $-1 -1 $-1 -17.024647065593854 -245.61704481425627 36.998451409015097 #
coedge $-1 -1 $-1 $311 $339 $217 $285 reversed $340 $-1 #
edge $341 -1 $-1 $314 -0.0042426406871192909 $289 0 $217 $342 forward @7 unknown #
coedge $-1 -1 $-1 $343 $218 $339 $344 forward $191 $-1 #
coedge $-1 -1 $-1 $218 $343 $220 $292 forward $191 $-1 #
truecolor-adesk-attrib $-1 -1 $345 $-1 $219 -1056964608 #
vertex $-1 -1 $-1 $285 $346 #
straight-curve $-1 -1 $-1 -72.024647065593854 -245.61704481425627 39.998451409015104 1.3877787807814457e-13 3.3990776836172273e-29 -1000 F 0.0029999999999999949 F 0.022000000000000006 #
coedge $-1 -1 $-1 $221 $220 $263 $325 reversed $222 $-1 #
edge $347 -1 $-1 $348 -0.0040000000000000001 $224 0 $287 $349 forward @7 unknown #
face $350 -1 $-1 $234 $222 $3 $-1 $351 reversed single #
DXID-attrib $-1 -1 $-1 $223 $150 @18 ASM_EDGE_FROM_STEP @4 6587 #
point $-1 -1 $-1 -72.024647065593854 -245.61704481425627 36.998451409015104 #
truecolor-adesk-attrib $-1 -1 $352 $-1 $227 -1056964608 #
vertex $-1 -1 $-1 $264 $353 #
straight-curve $-1 -1 $-1 -69.024647065593882 -245.61704481425627 39.998451409015104 2.449293598294707e-13 -1000 1.0947644252537633e-44 F 0 F 0.0040000000000000001 #
truecolor-adesk-attrib $-1 -1 $354 $-1 $228 -1056964608 #
straight-curve $-1 -1 $-1 -20.024647065593868 -245.61704481425627 39.998451409015104 -2.449293598294707e-13 1000 -1.0947644252537633e-44 F -0.0040000000000000001 F 0 #
DXID-attrib $-1 -1 $-1 $232 $159 @18 ASM_EDGE_FROM_STEP @5 38470 #
truecolor-adesk-attrib $-1 -1 $355 $-1 $234 -1056964608 #
cone-surface $-1 -1 $-1 -44.524647065593854 -245.61704481425627 27.498451409015097 2.4492935982947069e-16 -1 1.0947644252537633e-47 8.25 2.0206672185931331e-15 0 1 I I 0 1 8.25 forward I I I I #
DXID-attrib $-1 -1 $-1 $240 $174 @18 ASM_EDGE_FROM_STEP @4 3288 #
DXID-attrib $-1 -1 $-1 $242 $175 @18 ASM_FACE_FROM_STEP @17 step-2M-555-25373 #
DXID-attrib $-1 -1 $-1 $248 $190 @18 ASM_FACE_FROM_STEP @17 step-2M-555-10841 #
truecolor-adesk-attrib $-1 -1 $356 $-1 $249 -1056964608 #
face $357 -1 $-1 $358 $272 $3 $-1 $359 reversed single #
plane-surface $-1 -1 $-1 -17.024647065593854 -245.61704481425627 36.998451409015097 -0.70710678118654591 -1.7319121124709829e-16 -0.70710678118654913 2.4492935982947069e-16 -1 1.0947644252537633e-47 forward_v I I I I #
edge $360 -1 $-1 $315 0 $274 0.0040000000000000001 $251 $361 forward @7 unknown #
coedge $-1 -1 $-1 $330 $284 $252 $312 reversed $340 $-1 #
edge $362 -1 $-1 $333 -0.0040000000000000001 $314 0 $252 $363 forward @7 unknown #
truecolor-adesk-attrib $-1 -1 $364 $-1 $254 -1056964608 #
vertex $-1 -1 $-1 $254 $365 #
vertex $-1 -1 $-1 $281 $366 #
straight-curve $-1 -1 $-1 -72.024647065593854 -245.61704481425627 14.998451409015098 1000 2.449293598294707e-13 0 F 0.0030000000000000113 F 0.052000000000000011 #
truecolor-adesk-attrib $-1 -1 $367 $-1 $255 -1056964608 #
straight-curve $-1 -1 $-1 -17.024647065593854 -245.61704481425627 36.998451409015097 2.449293598294707e-13 -1000 1.0947644252537633e-44 F 0 F 0.0040000000000000001 #
truecolor-adesk-attrib $-1 -1 $368 $-1 $257 -1056964608 #
straight-curve $-1 -1 $-1 -17.024647065593854 -245.61704481425627 17.998451409015107 -2.449293598294707e-13 1000 -1.0947644252537633e-44 F -0.0040000000000000001 F 0 #
DXID-attrib $-1 -1 $-1 $258 $196 @18 ASM_EDGE_FROM_STEP @5 18572 #
point $-1 -1 $-1 -17.024647065593854 -245.61704481425627 17.998451409015107 #
DXID-attrib $-1 -1 $-1 $261 $197 @18 ASM_EDGE_FROM_STEP @4 9314 #
coedge $-1 -1 $-1 $268 $263 $343 $369 forward $49 $-1 #
edge $370 -1 $-1 $297 0.0084852813742385194 $348 0.012727922061357786 $263 $371 forward @7 unknown #
truecolor-adesk-attrib $-1 -1 $372 $-1 $264 -1056964608 #
straight-curve $-1 -1 $-1 -72.024647065593854 -249.61704481425627 39.998451409015104 -1000 -2.449293598294707e-13 0 F -0.051999999999999984 F -0.0029999999999999805 #
DXID-attrib $-1 -1 $-1 $265 $200 @18 ASM_EDGE_FROM_STEP @5 33256 #
point $-1 -1 $-1 -20.024647065593868 -249.61704481425627 39.998451409015104 #
coedge $-1 -1 $-1 $339 $311 $268 $331 reversed $340 $-1 #
edge $373 -1 $-1 $374 -0.01272792206135792 $333 -0.0084852813742386252 $268 $375 forward @7 unknown #
truecolor-adesk-attrib $-1 -1 $376 $-1 $270 -1056964608 #
vertex $-1 -1 $-1 $331 $377 #
straight-curve $-1 -1 $-1 -72.024647065593854 -249.61704481425627 14.998451409015098 1000 2.449293598294707e-13 0 F 0.0030000000000000113 F 0.052000000000000011 #
DXID-attrib $-1 -1 $-1 $273 $203 @18 ASM_EDGE_FROM_STEP @5 11320 #
point $-1 -1 $-1 -20.02464706559384 -249.61704481425627 14.9984514090151 #
truecolor-adesk-attrib $-1 -1 $378 $-1 $281 -1056964608 #
straight-curve $-1 -1 $-1 -20.024647065593843 -245.61704481425627 14.998451409015098 -707.1067811865455 -1.731912112470982e-13 -707.10678118654971 F -0.004242640687119284 F 0 #
coedge $-1 -1 $-1 $284 $330 $286 $344 reversed $340 $-1 #
loop $-1 -1 $-1 $-1 $284 $358 #
truecolor-adesk-attrib $-1 -1 $379 $-1 $285 -1056964608 #
straight-curve $-1 -1 $-1 -72.024647065593854 -245.61704481425627 17.998451409015097 -707.10678118654914 -1.7319121124709909e-13 707.10678118654596 F -0.0042426406871192909 F 0 #
coedge $-1 -1 $-1 $287 $286 $324 $369 reversed $191 $-1 #
edge $380 -1 $-1 $289 0 $374 0.0040000000000000001 $286 $381 forward @7 unknown #
DXID-attrib $-1 -1 $-1 $288 $219 @18 ASM_EDGE_FROM_STEP @4 8566 #
point $-1 -1 $-1 -72.024647065593854 -245.61704481425627 17.998451409015097 #
truecolor-adesk-attrib $-1 -1 $382 $-1 $292 -1056964608 #
vertex $-1 -1 $-1 $325 $383 #
straight-curve $-1 -1 $-1 -72.024647065593854 -245.61704481425627 36.998451409015104 -2.449293598294707e-13 1000 -1.0947644252537633e-44 F -0.0040000000000000001 F 0 #
truecolor-adesk-attrib $-1 -1 $384 $-1 $293 -1056964608 #
plane-surface $-1 -1 $-1 -69.024647065593882 -245.61704481425627 39.998451409015104 0.70710678118654913 1.7319121124709908e-16 -0.70710678118654591 2.4492935982947069e-16 -1 1.0947644252537633e-47 forward_v I I I I #
DXID-attrib $-1 -1 $-1 $296 $227 @18 ASM_EDGE_FROM_STEP @5 16096 #
point $-1 -1 $-1 -69.024647065593882 -249.61704481425627 39.998451409015104 #
DXID-attrib $-1 -1 $-1 $299 $228 @18 ASM_EDGE_FROM_STEP @5 18060 #
DXID-attrib $-1 -1 $-1 $302 $234 @18 ASM_FACE_FROM_STEP @16 step-2M-555-3963 #
DXID-attrib $-1 -1 $-1 $307 $249 @18 ASM_FACE_FROM_STEP @17 step-2M-555-26136 #
truecolor-adesk-attrib $-1 -1 $385 $-1 $308 -1056964608 #
face $386 -1 $-1 $293 $340 $3 $-1 $387 reversed single #
plane-surface $-1 -1 $-1 -20.024647065593843 -245.61704481425627 14.998451409015098 -0.70710678118654957 -1.731912112470992e-16 0.70710678118654546 2.4492935982947069e-16 -1 1.0947644252537633e-47 forward_v I I I I #
truecolor-adesk-attrib $-1 -1 $388 $-1 $310 -1056964608 #
straight-curve $-1 -1 $-1 -20.024647065593843 -245.61704481425627 14.998451409015098 2.449293598294707e-13 -1000 1.0947644252537633e-44 F 0 F 0.0040000000000000001 #
truecolor-adesk-attrib $-1 -1 $389 $-1 $312 -1056964608 #
straight-curve $-1 -1 $-1 -69.02464706559384 -245.61704481425627 14.998451409015098 -2.449293598294707e-13 1000 -1.0947644252537633e-44 F -0.0040000000000000001 F 0 #
DXID-attrib $-1 -1 $-1 $313 $254 @18 ASM_EDGE_FROM_STEP @5 14608 #
point $-1 -1 $-1 -69.02464706559384 -245.61704481425627 14.998451409015098 #
point $-1 -1 $-1 -20.024647065593843 -245.61704481425627 14.998451409015098 #
DXID-attrib $-1 -1 $-1 $317 $255 @18 ASM_EDGE_FROM_STEP @5 35935 #
DXID-attrib $-1 -1 $-1 $319 $257 @18 ASM_EDGE_FROM_STEP @5 32022 #
edge $390 -1 $-1 $348 0.0029999999999999949 $374 0.022000000000000002 $324 $391 forward @7 unknown #
truecolor-adesk-attrib $-1 -1 $392 $-1 $325 -1056964608 #
straight-curve $-1 -1 $-1 -63.024647065593925 -249.61704481425627 45.998451409015075 -707.10678118654596 -1.731912112470983e-13 -707.10678118654926 F 0.0084852813742385194 F 0.012727922061357786 #
DXID-attrib $-1 -1 $-1 $326 $264 @18 ASM_EDGE_FROM_STEP @5 29286 #
truecolor-adesk-attrib $-1 -1 $393 $-1 $331 -1056964608 #
vertex $-1 -1 $-1 $369 $394 #
straight-curve $-1 -1 $-1 -63.02464706559379 -249.61704481425627 8.9984514090150753 707.10678118654914 1.7319121124709909e-13 -707.10678118654596 F -0.01272792206135792 F -0.0084852813742386252 #
DXID-attrib $-1 -1 $-1 $332 $270 @18 ASM_EDGE_FROM_STEP @5 13359 #
point $-1 -1 $-1 -69.02464706559384 -249.61704481425627 14.998451409015098 #
DXID-attrib $-1 -1 $-1 $337 $281 @18 ASM_EDGE_FROM_STEP @5 16598 #
DXID-attrib $-1 -1 $-1 $341 $285 @18 ASM_EDGE_FROM_STEP @5 12576 #
truecolor-adesk-attrib $-1 -1 $395 $-1 $344 -1056964608 #
straight-curve $-1 -1 $-1 -72.024647065593854 -245.61704481425627 17.998451409015097 2.449293598294707e-13 -1000 1.0947644252537633e-44 F 0 F 0.0040000000000000001 #
DXID-attrib $-1 -1 $-1 $347 $292 @18 ASM_EDGE_FROM_STEP @5 24011 #
point $-1 -1 $-1 -72.024647065593854 -249.61704481425627 36.998451409015104 #
DXID-attrib $-1 -1 $-1 $350 $293 @18 ASM_FACE_FROM_STEP @17 step-2M-555-27334 #
DXID-attrib $-1 -1 $-1 $357 $308 @18 ASM_FACE_FROM_STEP @16 step-2M-555-2471 #
truecolor-adesk-attrib $-1 -1 $396 $-1 $358 -1056964608 #
plane-surface $-1 -1 $-1 -72.024647065593854 -245.61704481425627 17.998451409015097 0.70710678118654591 1.7319121124709829e-16 0.70710678118654913 2.4492935982947069e-16 -1 1.0947644252537633e-47 forward_v I I I I #
DXID-attrib $-1 -1 $-1 $360 $310 @18 ASM_EDGE_FROM_STEP @5 30039 #
DXID-attrib $-1 -1 $-1 $362 $312 @18 ASM_EDGE_FROM_STEP @5 28042 #
truecolor-adesk-attrib $-1 -1 $397 $-1 $369 -1056964608 #
straight-curve $-1 -1 $-1 -72.024647065593854 -249.61704481425627 39.998451409015104 1.3877787807814457e-13 3.3990776836172273e-29 -1000 F 0.0029999999999999949 F 0.022000000000000002 #
DXID-attrib $-1 -1 $-1 $370 $325 @18 ASM_EDGE_FROM_STEP @5 25290 #
DXID-attrib $-1 -1 $-1 $373 $331 @18 ASM_EDGE_FROM_STEP @5 19331 #
point $-1 -1 $-1 -72.024647065593854 -249.61704481425627 17.998451409015097 #
DXID-attrib $-1 -1 $-1 $380 $344 @18 ASM_EDGE_FROM_STEP @5 26028 #
DXID-attrib $-1 -1 $-1 $386 $358 @18 ASM_FACE_FROM_STEP @17 step-2M-555-20233 #
DXID-attrib $-1 -1 $-1 $390 $369 @18 ASM_EDGE_FROM_STEP @5 23257 #
