700 389 1 0         
16 Autodesk AutoCAD 20 ASM 229.2.0.65535 NT 24 Wed Mar  6 05:27:50 2024 
1 9.999999999999999547e-07 1.000000000000000036e-10 
body $1 -1 $-1 $2 $-1 $3 #
DXID-attrib $-1 -1 $-1 $-1 $0 @18 ASM_BODY_FROM_STEP @83 0556A40D90F9C04E4D824375456A35FACAD46369|:|A6FEAF782C5EAB7344AD8492AAD1303E61FEC070 #
lump $-1 -1 $-1 $-1 $4 $0 #
transform $-1 -1 1 0 0 0 1 0 0 0 1 0 0 0 1 no_rotate no_reflect no_shear #
shell $-1 -1 $-1 $-1 $-1 $5 $-1 $2 #
face $6 -1 $-1 $7 $8 $4 $-1 $9 reversed single #
truecolor-adesk-attrib $-1 -1 $10 $-1 $5 -1025055002 #
face $11 -1 $-1 $12 $13 $4 $-1 $14 reversed single #
loop $-1 -1 $-1 $-1 $15 $5 #
plane-surface $-1 -1 $-1 3.888599999999999834 -4.320000000000000284 2.666666666666670071 0 -1 0 0 0 -1000 forward_v I I I I #
color-adesk-attrib $-1 -1 $16 $6 $5 254 #
truecolor-adesk-attrib $-1 -1 $17 $-1 $7 -1025055002 #
face $18 -1 $-1 $19 $20 $4 $-1 $21 reversed single #
loop $-1 -1 $-1 $-1 $22 $7 #
plane-surface $-1 -1 $-1 3.888599999999999834 -6.112478947368420457 3.046666666666660195 0 1.209723744959179928e-16 -1 0 1000 1.20972374495918004e-13 forward_v I I I I #
coedge $-1 -1 $-1 $23 $24 $25 $26 forward $8 $-1 #
DXID-attrib $-1 -1 $-1 $10 $5 @18 ASM_FACE_FROM_STEP @16 step-1M-308-1572 #
color-adesk-attrib $-1 -1 $27 $11 $7 254 #
truecolor-adesk-attrib $-1 -1 $28 $-1 $12 -1025055002 #
face $29 -1 $-1 $30 $31 $4 $-1 $32 reversed single #
loop $-1 -1 $-1 $-1 $33 $12 #
plane-surface $-1 -1 $-1 3.888599999999999834 -7.904957894736840629 1.903333333333339983 0 1 0 0 0 1000 forward_v I I I I #
coedge $-1 -1 $-1 $34 $35 $36 $37 forward $13 $-1 #
coedge $-1 -1 $-1 $38 $15 $39 $40 forward $8 $-1 #
coedge $-1 -1 $-1 $15 $38 $41 $42 reversed $8 $-1 #
coedge $-1 -1 $-1 $43 $44 $15 $26 reversed $45 $-1 #
edge $46 -1 $-1 $47 0 $48 0.0009699999999999997253 $15 $49 forward @7 unknown #
DXID-attrib $-1 -1 $-1 $17 $7 @18 ASM_FACE_FROM_STEP @16 step-1M-308-1573 #
color-adesk-attrib $-1 -1 $50 $18 $12 254 #
truecolor-adesk-attrib $-1 -1 $51 $-1 $19 -1025055002 #
face $52 -1 $-1 $53 $54 $4 $-1 $55 reversed single #
loop $-1 -1 $-1 $-1 $56 $19 #
plane-surface $-1 -1 $-1 3.888599999999999834 -8.514957894736840061 0.7600000000000000089 0 4.443451526579940456e-16 -1 0 1000 4.443451526579940401e-13 forward_v I I I I #
coedge $-1 -1 $-1 $57 $58 $59 $60 reversed $20 $-1 #
coedge $-1 -1 $-1 $61 $22 $62 $63 forward $13 $-1 #
coedge $-1 -1 $-1 $22 $61 $38 $64 forward $13 $-1 #
coedge $-1 -1 $-1 $39 $65 $22 $37 reversed $66 $-1 #
edge $67 -1 $-1 $68 -0.001792478947368420601 $69 0.0007924789473684190622 $22 $70 forward @7 unknown #
coedge $-1 -1 $-1 $24 $23 $35 $64 reversed $8 $-1 #
coedge $-1 -1 $-1 $71 $36 $23 $40 reversed $66 $-1 #
edge $72 -1 $-1 $48 -0.0003800000000000000751 $68 0.0003799999999999903715 $23 $73 forward @7 unknown #
coedge $-1 -1 $-1 $74 $75 $24 $42 forward $76 $-1 #
edge $77 -1 $-1 $47 -0.0003800000000000000751 $78 0.0003799999999999903715 $24 $79 forward @7 unknown #
coedge $-1 -1 $-1 $80 $25 $75 $81 reversed $45 $-1 #
coedge $-1 -1 $-1 $25 $80 $71 $82 forward $45 $-1 #
loop $-1 -1 $-1 $-1 $43 $83 #
truecolor-adesk-attrib $-1 -1 $84 $-1 $26 -1025055002 #
vertex $-1 -1 $-1 $26 $85 #
vertex $-1 -1 $-1 $26 $86 #
straight-curve $-1 -1 $-1 3.888599999999999834 -4.320000000000000284 2.286666666666669734 -1000 0 0 F 0 F 0.0009699999999999997253 #
DXID-attrib $-1 -1 $-1 $28 $12 @18 ASM_FACE_FROM_STEP @16 step-1M-308-1574 #
color-adesk-attrib $-1 -1 $87 $29 $19 254 #
truecolor-adesk-attrib $-1 -1 $88 $-1 $30 -1025055002 #
face $89 -1 $-1 $90 $91 $4 $-1 $92 reversed single #
loop $-1 -1 $-1 $-1 $93 $30 #
plane-surface $-1 -1 $-1 3.888599999999999834 -9.124957894736839492 0.3800000000000000044 0 1 0 0 0 1000 forward_v I I I I #
coedge $-1 -1 $-1 $94 $95 $96 $97 reversed $31 $-1 #
coedge $-1 -1 $-1 $98 $33 $99 $100 forward $20 $-1 #
coedge $-1 -1 $-1 $33 $98 $101 $102 forward $20 $-1 #
coedge $-1 -1 $-1 $103 $104 $33 $60 forward $76 $-1 #
edge $105 -1 $-1 $106 -0.0001433333333333203284 $107 0.0006433333333333399358 $33 $108 forward @7 unknown #
coedge $-1 -1 $-1 $35 $34 $74 $109 reversed $13 $-1 #
coedge $-1 -1 $-1 $110 $111 $34 $63 reversed $112 $-1 #
edge $113 -1 $-1 $69 -0.0009699999999999997253 $114 -0 $34 $115 reversed @14 tangent_not_g2 #
edge $116 -1 $-1 $78 0 $68 0.0009699999999999997253 $38 $117 forward @7 unknown #
coedge $-1 -1 $-1 $36 $118 $110 $119 forward $66 $-1 #
loop $-1 -1 $-1 $-1 $118 $120 #
truecolor-adesk-attrib $-1 -1 $121 $-1 $37 -1025055002 #
vertex $-1 -1 $-1 $40 $122 #
vertex $-1 -1 $-1 $37 $123 #
straight-curve $-1 -1 $-1 2.918600000000000527 -6.112478947368420457 3.046666666666660195 0 -1000 -1.20972374495918004e-13 F -0.001792478947368420601 F 0.0007924789473684190622 #
coedge $-1 -1 $-1 $124 $39 $44 $82 reversed $66 $-1 #
truecolor-adesk-attrib $-1 -1 $125 $-1 $40 -1025055002 #
straight-curve $-1 -1 $-1 2.918600000000000527 -4.320000000000000284 2.666666666666670071 0 0 1000 F -0.0003800000000000000751 F 0.0003799999999999903715 #
coedge $-1 -1 $-1 $104 $41 $61 $109 forward $76 $-1 #
coedge $-1 -1 $-1 $41 $126 $43 $81 forward $76 $-1 #
loop $-1 -1 $-1 $-1 $74 $127 #
truecolor-adesk-attrib $-1 -1 $128 $-1 $42 -1025055002 #
vertex $-1 -1 $-1 $64 $129 #
straight-curve $-1 -1 $-1 3.888599999999999834 -4.320000000000000284 2.666666666666670071 0 0 1000 F -0.0003800000000000000751 F 0.0003799999999999903715 #
coedge $-1 -1 $-1 $44 $43 $130 $131 forward $45 $-1 #
edge $132 -1 $-1 $133 -0.0009124789473684202443 $47 0.001412478947368420255 $43 $134 forward @7 unknown #
edge $135 -1 $-1 $136 -0.0009124789473684202443 $48 0.001412478947368420255 $44 $137 forward @7 unknown #
face $138 -1 $-1 $127 $45 $4 $-1 $139 reversed single #
color-adesk-attrib $-1 -1 $140 $46 $26 254 #
point $-1 -1 $-1 3.888599999999999834 -4.320000000000000284 2.286666666666669734 #
point $-1 -1 $-1 2.918600000000000527 -4.320000000000000284 2.286666666666669734 #
DXID-attrib $-1 -1 $-1 $51 $19 @18 ASM_FACE_FROM_STEP @16 step-1M-308-1575 #
color-adesk-attrib $-1 -1 $141 $52 $30 254 #
truecolor-adesk-attrib $-1 -1 $142 $-1 $53 -1025055002 #
face $143 -1 $-1 $83 $144 $4 $-1 $145 reversed single #
loop $-1 -1 $-1 $-1 $146 $53 #
plane-surface $-1 -1 $-1 3.888599999999999834 -8.134957894736839279 0 0 0 1 1000 0 0 forward_v I I I I #
coedge $-1 -1 $-1 $147 $148 $95 $149 forward $54 $-1 #
coedge $-1 -1 $-1 $150 $56 $151 $152 forward $31 $-1 #
coedge $-1 -1 $-1 $56 $150 $93 $149 reversed $31 $-1 #
coedge $-1 -1 $-1 $153 $103 $56 $97 forward $76 $-1 #
edge $154 -1 $-1 $155 -0.0001100000000000000988 $156 0.0006099999999999994316 $56 $157 forward @7 unknown #
coedge $-1 -1 $-1 $58 $57 $118 $158 forward $20 $-1 #
coedge $-1 -1 $-1 $111 $110 $57 $100 reversed $112 $-1 #
edge $159 -1 $-1 $106 0 $160 0.0009699999999999997253 $57 $161 forward @14 tangent_not_g2 #
coedge $-1 -1 $-1 $162 $163 $58 $102 reversed $164 $-1 #
edge $165 -1 $-1 $166 -0.0009699999999999997253 $107 -0 $58 $167 reversed @14 tangent_not_g2 #
coedge $-1 -1 $-1 $96 $59 $163 $168 forward $76 $-1 #
coedge $-1 -1 $-1 $59 $74 $111 $169 forward $76 $-1 #
truecolor-adesk-attrib $-1 -1 $170 $-1 $60 -1025055002 #
vertex $-1 -1 $-1 $60 $171 #
vertex $-1 -1 $-1 $60 $172 #
straight-curve $-1 -1 $-1 3.888599999999999834 -7.904957894736840629 1.903333333333339983 0 0 -1000 F -0.0001433333333333203284 F 0.0006433333333333399358 #
edge $173 -1 $-1 $78 -0.001792478947368420601 $114 0.0007924789473684190622 $61 $174 forward @7 unknown #
coedge $-1 -1 $-1 $99 $62 $65 $119 reversed $112 $-1 #
coedge $-1 -1 $-1 $62 $99 $104 $169 reversed $112 $-1 #
loop $-1 -1 $-1 $-1 $111 $175 #
truecolor-adesk-attrib $-1 -1 $176 $-1 $63 -1025055002 #
vertex $-1 -1 $-1 $63 $177 #
straight-curve $-1 -1 $-1 3.888599999999999834 -6.904957894736839741 3.046666666666660195 -1000 0 0 F 0 F 0.0009699999999999997253 #
truecolor-adesk-attrib $-1 -1 $178 $-1 $64 -1025055002 #
straight-curve $-1 -1 $-1 3.888599999999999834 -4.320000000000000284 3.046666666666660195 -1000 0 0 F 0 F 0.0009699999999999997253 #
coedge $-1 -1 $-1 $65 $179 $98 $158 reversed $66 $-1 #
edge $180 -1 $-1 $160 1.570796326794896558 $69 3.141592653589793116 $65 $181 reversed @7 unknown #
face $182 -1 $-1 $183 $66 $4 $-1 $184 reversed single #
color-adesk-attrib $-1 -1 $185 $67 $37 254 #
point $-1 -1 $-1 2.918600000000000527 -4.320000000000000284 3.046666666666660195 #
point $-1 -1 $-1 2.918600000000000527 -6.904957894736839741 3.046666666666660195 #
coedge $-1 -1 $-1 $186 $71 $187 $188 forward $66 $-1 #
color-adesk-attrib $-1 -1 $189 $72 $40 254 #
coedge $-1 -1 $-1 $75 $190 $191 $192 forward $76 $-1 #
face $193 -1 $-1 $120 $76 $4 $-1 $194 forward single #
color-adesk-attrib $-1 -1 $195 $77 $42 254 #
point $-1 -1 $-1 3.888599999999999834 -4.320000000000000284 3.046666666666660195 #
coedge $-1 -1 $-1 $191 $187 $80 $131 reversed $196 $-1 #
edge $197 -1 $-1 $133 -0.0009699999999999997253 $136 0 $80 $198 forward @14 tangent_not_g2 #
truecolor-adesk-attrib $-1 -1 $199 $-1 $81 -1025055002 #
vertex $-1 -1 $-1 $81 $200 #
straight-curve $-1 -1 $-1 3.888599999999999834 -5.732478947368419675 2.286666666666669734 0 1000 1.535176399627720075e-13 F -0.0009124789473684202443 F 0.001412478947368420255 #
truecolor-adesk-attrib $-1 -1 $201 $-1 $82 -1025055002 #
vertex $-1 -1 $-1 $131 $202 #
straight-curve $-1 -1 $-1 2.918600000000000527 -5.732478947368419675 2.286666666666669734 0 1000 1.535176399627720075e-13 F -0.0009124789473684202443 F 0.001412478947368420255 #
truecolor-adesk-attrib $-1 -1 $203 $-1 $83 -1025055002 #
plane-surface $-1 -1 $-1 3.888599999999999834 -5.732478947368419675 2.286666666666669734 0 -1.535176399627720108e-16 1 0 -1000 -1.535176399627720075e-13 forward_v I I I I #
DXID-attrib $-1 -1 $-1 $84 $26 @18 ASM_EDGE_FROM_STEP @3 557 #
DXID-attrib $-1 -1 $-1 $88 $30 @18 ASM_FACE_FROM_STEP @16 step-1M-308-1576 #
color-adesk-attrib $-1 -1 $204 $89 $53 254 #
truecolor-adesk-attrib $-1 -1 $205 $-1 $90 -1025055002 #
loop $-1 -1 $-1 $-1 $206 $90 #
plane-surface $-1 -1 $-1 3.888599999999999834 -7.144957894736839954 1.143333333333329982 0 -1 0 0 0 -1000 forward_v I I I I #
coedge $-1 -1 $-1 $207 $208 $209 $210 forward $91 $-1 #
coedge $-1 -1 $-1 $211 $93 $212 $213 forward $54 $-1 #
coedge $-1 -1 $-1 $93 $211 $153 $214 reversed $54 $-1 #
edge $215 -1 $-1 $156 0 $216 0.0009699999999999997253 $95 $217 forward @7 unknown #
coedge $-1 -1 $-1 $95 $94 $218 $219 forward $31 $-1 #
coedge $-1 -1 $-1 $163 $162 $94 $152 reversed $164 $-1 #
edge $220 -1 $-1 $155 -0.0009699999999999997253 $221 0 $94 $222 forward @14 tangent_not_g2 #
coedge $-1 -1 $-1 $223 $96 $148 $214 forward $76 $-1 #
truecolor-adesk-attrib $-1 -1 $224 $-1 $97 -1025055002 #
vertex $-1 -1 $-1 $97 $225 #
vertex $-1 -1 $-1 $97 $226 #
straight-curve $-1 -1 $-1 3.888599999999999834 -8.514957894736840061 0.7600000000000000089 0 -1000 -4.443451526579940401e-13 F -0.0001100000000000000988 F 0.0006099999999999994316 #
edge $227 -1 $-1 $160 -0.0001433333333333203284 $166 0.0006433333333333399358 $98 $228 forward @7 unknown #
truecolor-adesk-attrib $-1 -1 $229 $-1 $100 -1025055002 #
vertex $-1 -1 $-1 $100 $230 #
straight-curve $-1 -1 $-1 3.888599999999999834 -7.904957894736840629 2.046666666666660195 -1000 0 0 F 0 F 0.0009699999999999997253 #
coedge $-1 -1 $-1 $151 $101 $179 $231 reversed $164 $-1 #
coedge $-1 -1 $-1 $101 $151 $103 $168 reversed $164 $-1 #
loop $-1 -1 $-1 $-1 $163 $232 #
truecolor-adesk-attrib $-1 -1 $233 $-1 $102 -1025055002 #
vertex $-1 -1 $-1 $158 $234 #
straight-curve $-1 -1 $-1 3.888599999999999834 -7.904957894736840629 1.260000000000000009 -1000 0 0 F 0 F 0.0009699999999999997253 #
edge $235 -1 $-1 $107 -1.570796326794896558 $155 -0 $103 $236 reversed @7 unknown #
edge $237 -1 $-1 $114 -3.141592653589793116 $106 -1.570796326794896558 $104 $238 forward @7 unknown #
color-adesk-attrib $-1 -1 $239 $105 $60 254 #
point $-1 -1 $-1 3.888599999999999834 -7.904957894736840629 2.046666666666660195 #
point $-1 -1 $-1 3.888599999999999834 -7.904957894736840629 1.260000000000000009 #
truecolor-adesk-attrib $-1 -1 $240 $-1 $109 -1025055002 #
straight-curve $-1 -1 $-1 3.888599999999999834 -6.112478947368420457 3.046666666666660195 0 -1000 -1.20972374495918004e-13 F -0.001792478947368420601 F 0.0007924789473684190622 #
face $241 -1 $-1 $242 $112 $4 $-1 $243 forward single #
color-adesk-attrib $-1 -1 $244 $113 $63 254 #
point $-1 -1 $-1 3.888599999999999834 -6.904957894736839741 3.046666666666660195 #
color-adesk-attrib $-1 -1 $245 $116 $64 254 #
coedge $-1 -1 $-1 $118 $218 $162 $231 forward $66 $-1 #
truecolor-adesk-attrib $-1 -1 $246 $-1 $119 -1025055002 #
ellipse-curve $-1 -1 $-1 2.918600000000000527 -6.904957894736839741 2.046666666666660195 1 0 0 0 0 -1 1 F -3.141592653589793116 F -1.570796326794896558 #
truecolor-adesk-attrib $-1 -1 $247 $-1 $120 -1025055002 #
face $248 -1 $-1 $232 $196 $4 $-1 $249 reversed single #
plane-surface $-1 -1 $-1 2.918600000000000527 -6.722478947368419888 1.523333333333330097 1 0 0 0 1000 0 forward_v I I I I #
DXID-attrib $-1 -1 $-1 $121 $37 @18 ASM_EDGE_FROM_STEP @3 561 #
coedge $-1 -1 $-1 $250 $124 $251 $252 reversed $66 $-1 #
coedge $-1 -1 $-1 $130 $253 $124 $188 reversed $196 $-1 #
edge $254 -1 $-1 $136 -3.141592653589793116 $255 -1.570796326794896558 $124 $256 forward @7 unknown #
DXID-attrib $-1 -1 $-1 $125 $40 @18 ASM_EDGE_FROM_STEP @3 558 #
coedge $-1 -1 $-1 $126 $257 $206 $258 forward $76 $-1 #
coedge $-1 -1 $-1 $253 $130 $126 $192 reversed $196 $-1 #
edge $259 -1 $-1 $260 1.570796326794896558 $133 3.141592653589793116 $126 $261 reversed @7 unknown #
truecolor-adesk-attrib $-1 -1 $262 $-1 $127 -1025055002 #
plane-surface $-1 -1 $-1 3.888599999999999834 -6.722478947368419888 1.523333333333330097 1 0 0 0 1000 0 forward_v I I I I #
DXID-attrib $-1 -1 $-1 $128 $42 @18 ASM_EDGE_FROM_STEP @3 560 #
loop $-1 -1 $-1 $-1 $191 $183 #
truecolor-adesk-attrib $-1 -1 $263 $-1 $131 -1025055002 #
straight-curve $-1 -1 $-1 2.918600000000000527 -6.644957894736839954 2.286666666666669734 -1000 0 0 F -0.0009699999999999997253 F 0 #
color-adesk-attrib $-1 -1 $264 $132 $81 254 #
point $-1 -1 $-1 3.888599999999999834 -6.644957894736839954 2.286666666666669734 #
color-adesk-attrib $-1 -1 $265 $135 $82 254 #
point $-1 -1 $-1 2.918600000000000527 -6.644957894736839954 2.286666666666669734 #
color-adesk-attrib $-1 -1 $266 $138 $83 254 #
DXID-attrib $-1 -1 $-1 $142 $53 @18 ASM_FACE_FROM_STEP @16 step-1M-308-1577 #
color-adesk-attrib $-1 -1 $267 $143 $90 254 #
coedge $-1 -1 $-1 $268 $269 $190 $258 reversed $144 $-1 #
coedge $-1 -1 $-1 $270 $146 $271 $272 forward $91 $-1 #
coedge $-1 -1 $-1 $146 $270 $211 $273 forward $91 $-1 #
coedge $-1 -1 $-1 $212 $250 $146 $210 reversed $66 $-1 #
edge $274 -1 $-1 $275 -0.0009899999999999986935 $276 -9.999999999998897981e-06 $146 $277 forward @7 unknown #
coedge $-1 -1 $-1 $148 $147 $208 $273 reversed $54 $-1 #
coedge $-1 -1 $-1 $218 $209 $147 $213 reversed $66 $-1 #
edge $278 -1 $-1 $216 -0.0003799999999999999667 $275 0.0003799999999999999667 $147 $279 forward @7 unknown #
edge $280 -1 $-1 $156 -0.0003799999999999999667 $281 0.0003799999999999999667 $148 $282 forward @7 unknown #
truecolor-adesk-attrib $-1 -1 $283 $-1 $149 -1025055002 #
vertex $-1 -1 $-1 $219 $284 #
straight-curve $-1 -1 $-1 3.888599999999999834 -9.124957894736839492 0.7600000000000000089 -1000 0 0 F 0 F 0.0009699999999999997253 #
coedge $-1 -1 $-1 $179 $212 $150 $219 reversed $66 $-1 #
edge $285 -1 $-1 $221 -0.0001100000000000000988 $216 0.0006099999999999994316 $150 $286 forward @7 unknown #
truecolor-adesk-attrib $-1 -1 $287 $-1 $152 -1025055002 #
vertex $-1 -1 $-1 $152 $288 #
straight-curve $-1 -1 $-1 2.918600000000000527 -8.404957894736838853 0.7600000000000000089 -1000 0 0 F -0.0009699999999999997253 F 0 #
coedge $-1 -1 $-1 $257 $153 $270 $289 forward $76 $-1 #
color-adesk-attrib $-1 -1 $290 $154 $97 254 #
point $-1 -1 $-1 3.888599999999999834 -8.404957894736838853 0.7600000000000000089 #
point $-1 -1 $-1 3.888599999999999834 -9.124957894736839492 0.7600000000000000089 #
truecolor-adesk-attrib $-1 -1 $291 $-1 $158 -1025055002 #
straight-curve $-1 -1 $-1 2.918600000000000527 -7.904957894736840629 1.903333333333339983 0 0 -1000 F -0.0001433333333333203284 F 0.0006433333333333399358 #
color-adesk-attrib $-1 -1 $292 $159 $100 254 #
point $-1 -1 $-1 2.918600000000000527 -7.904957894736840629 2.046666666666660195 #
edge $293 -1 $-1 $221 0 $166 1.570796326794896558 $179 $294 forward @7 unknown #
face $295 -1 $-1 $175 $164 $4 $-1 $296 reversed single #
color-adesk-attrib $-1 -1 $297 $165 $102 254 #
point $-1 -1 $-1 2.918600000000000527 -7.904957894736840629 1.260000000000000009 #
truecolor-adesk-attrib $-1 -1 $298 $-1 $168 -1025055002 #
ellipse-curve $-1 -1 $-1 3.888599999999999834 -8.404957894736838853 1.260000000000000009 1 0 0 0 0 -0.5 1 F 0 F 1.570796326794896558 #
truecolor-adesk-attrib $-1 -1 $299 $-1 $169 -1025055002 #
ellipse-curve $-1 -1 $-1 3.888599999999999834 -6.904957894736839741 2.046666666666660195 1 0 0 0 0 -1 1 F -3.141592653589793116 F -1.570796326794896558 #
DXID-attrib $-1 -1 $-1 $170 $60 @18 ASM_EDGE_FROM_STEP @3 564 #
color-adesk-attrib $-1 -1 $300 $173 $109 254 #
truecolor-adesk-attrib $-1 -1 $301 $-1 $175 -1025055002 #
face $302 -1 $-1 $-1 $303 $4 $-1 $304 forward single #
cone-surface $-1 -1 $-1 3.888599999999999834 -6.904957894736839741 2.046666666666660195 -1 0 0 0 0 1 1 I I 0 1 1 forward I I I I #
DXID-attrib $-1 -1 $-1 $176 $63 @18 ASM_EDGE_FROM_STEP @3 562 #
DXID-attrib $-1 -1 $-1 $178 $64 @18 ASM_EDGE_FROM_STEP @3 559 #
color-adesk-attrib $-1 -1 $305 $180 $119 254 #
color-adesk-attrib $-1 -1 $306 $182 $120 254 #
truecolor-adesk-attrib $-1 -1 $307 $-1 $183 -1025055002 #
cone-surface $-1 -1 $-1 3.888599999999999834 -6.644957894736839954 1.786666666666670178 1 0 0 0 0 -0.5 1 I I 0 1 0.5 forward I I I I #
coedge $-1 -1 $-1 $209 $186 $308 $309 forward $66 $-1 #
coedge $-1 -1 $-1 $269 $268 $186 $252 forward $144 $-1 #
edge $310 -1 $-1 $311 -0.0001433333333333298965 $255 0.0006433333333333400442 $251 $312 forward @7 unknown #
coedge $-1 -1 $-1 $187 $191 $269 $313 reversed $196 $-1 #
truecolor-adesk-attrib $-1 -1 $314 $-1 $188 -1025055002 #
vertex $-1 -1 $-1 $252 $315 #
ellipse-curve $-1 -1 $-1 2.918600000000000527 -6.644957894736839954 1.786666666666670178 1 0 0 0 0 -0.5 1 F -3.141592653589793116 F -1.570796326794896558 #
coedge $-1 -1 $-1 $190 $223 $316 $317 forward $76 $-1 #
edge $318 -1 $-1 $319 -0.0001433333333333298965 $260 0.0006433333333333400442 $206 $320 forward @7 unknown #
truecolor-adesk-attrib $-1 -1 $321 $-1 $192 -1025055002 #
vertex $-1 -1 $-1 $258 $322 #
ellipse-curve $-1 -1 $-1 3.888599999999999834 -6.644957894736839954 1.786666666666670178 1 0 0 0 0 -0.5 1 F -3.141592653589793116 F -1.570796326794896558 #
color-adesk-attrib $-1 -1 $323 $193 $127 254 #
color-adesk-attrib $-1 -1 $324 $197 $131 254 #
DXID-attrib $-1 -1 $-1 $199 $81 @18 ASM_EDGE_FROM_STEP @3 582 #
DXID-attrib $-1 -1 $-1 $201 $82 @18 ASM_EDGE_FROM_STEP @3 584 #
DXID-attrib $-1 -1 $-1 $203 $83 @18 ASM_FACE_FROM_STEP @16 step-1M-308-1579 #
DXID-attrib $-1 -1 $-1 $205 $90 @18 ASM_FACE_FROM_STEP @16 step-1M-308-1578 #
coedge $-1 -1 $-1 $251 $206 $325 $326 forward $144 $-1 #
coedge $-1 -1 $-1 $206 $251 $253 $313 forward $144 $-1 #
coedge $-1 -1 $-1 $208 $207 $223 $289 reversed $91 $-1 #
coedge $-1 -1 $-1 $308 $316 $207 $272 reversed $303 $-1 #
edge $327 -1 $-1 $276 -0.0009699999999999997253 $328 -0 $207 $329 reversed @14 tangent_not_g2 #
edge $330 -1 $-1 $281 0 $275 0.0009699999999999997253 $211 $331 forward @7 unknown #
truecolor-adesk-attrib $-1 -1 $332 $-1 $210 -1025055002 #
vertex $-1 -1 $-1 $213 $333 #
vertex $-1 -1 $-1 $210 $334 #
straight-curve $-1 -1 $-1 2.918600000000000527 -8.134957894736839279 0 0 1000 0 F -0.0009899999999999986935 F -9.999999999998897981e-06 #
truecolor-adesk-attrib $-1 -1 $335 $-1 $213 -1025055002 #
straight-curve $-1 -1 $-1 2.918600000000000527 -9.124957894736839492 0.3800000000000000044 0 0 -1000 F -0.0003799999999999999667 F 0.0003799999999999999667 #
truecolor-adesk-attrib $-1 -1 $336 $-1 $214 -1025055002 #
vertex $-1 -1 $-1 $273 $337 #
straight-curve $-1 -1 $-1 3.888599999999999834 -9.124957894736839492 0.3800000000000000044 0 0 -1000 F -0.0003799999999999999667 F 0.0003799999999999999667 #
color-adesk-attrib $-1 -1 $338 $215 $149 254 #
point $-1 -1 $-1 2.918600000000000527 -9.124957894736839492 0.7600000000000000089 #
truecolor-adesk-attrib $-1 -1 $339 $-1 $219 -1025055002 #
straight-curve $-1 -1 $-1 2.918600000000000527 -8.514957894736840061 0.7600000000000000089 0 -1000 -4.443451526579940401e-13 F -0.0001100000000000000988 F 0.0006099999999999994316 #
color-adesk-attrib $-1 -1 $340 $220 $152 254 #
point $-1 -1 $-1 2.918600000000000527 -8.404957894736838853 0.7600000000000000089 #
edge $341 -1 $-1 $281 -0.0009899999999999986935 $328 -9.999999999998897981e-06 $270 $342 forward @7 unknown #
DXID-attrib $-1 -1 $-1 $224 $97 @18 ASM_EDGE_FROM_STEP @3 568 #
color-adesk-attrib $-1 -1 $343 $227 $158 254 #
DXID-attrib $-1 -1 $-1 $229 $100 @18 ASM_EDGE_FROM_STEP @3 565 #
truecolor-adesk-attrib $-1 -1 $344 $-1 $231 -1025055002 #
ellipse-curve $-1 -1 $-1 2.918600000000000527 -8.404957894736838853 1.260000000000000009 1 0 0 0 0 -0.5 1 F 0 F 1.570796326794896558 #
truecolor-adesk-attrib $-1 -1 $345 $-1 $232 -1025055002 #
cone-surface $-1 -1 $-1 3.888599999999999834 -8.404957894736838853 1.260000000000000009 1 0 0 0 0 -0.5 1 I I 0 1 0.5 forward I I I I #
DXID-attrib $-1 -1 $-1 $233 $102 @18 ASM_EDGE_FROM_STEP @3 567 #
color-adesk-attrib $-1 -1 $346 $235 $168 254 #
color-adesk-attrib $-1 -1 $347 $237 $169 254 #
DXID-attrib $-1 -1 $-1 $240 $109 @18 ASM_EDGE_FROM_STEP @3 563 #
color-adesk-attrib $-1 -1 $348 $241 $175 254 #
truecolor-adesk-attrib $-1 -1 $349 $-1 $242 -1025055002 #
loop $-1 -1 $-1 $-1 $316 $242 #
cone-surface $-1 -1 $-1 3.888599999999999834 -8.144957894736839066 1 -1 0 0 0 0 1 1 I I 0 1 1 forward I I I I #
DXID-attrib $-1 -1 $-1 $246 $119 @18 ASM_EDGE_FROM_STEP @3 589 #
DXID-attrib $-1 -1 $-1 $247 $120 @18 ASM_FACE_FROM_STEP @16 step-1M-308-1581 #
color-adesk-attrib $-1 -1 $350 $248 $183 254 #
coedge $-1 -1 $-1 $325 $271 $250 $309 reversed $303 $-1 #
edge $351 -1 $-1 $311 -1.570796326794896558 $276 -0 $250 $352 reversed @7 unknown #
truecolor-adesk-attrib $-1 -1 $353 $-1 $252 -1025055002 #
vertex $-1 -1 $-1 $326 $354 #
straight-curve $-1 -1 $-1 2.918600000000000527 -7.144957894736839954 1.143333333333329982 0 0 1000 F -0.0001433333333333298965 F 0.0006433333333333400442 #
edge $355 -1 $-1 $255 -0.0009699999999999997253 $260 -0 $269 $356 reversed @14 tangent_not_g2 #
color-adesk-attrib $-1 -1 $357 $254 $188 254 #
point $-1 -1 $-1 2.918600000000000527 -7.144957894736839954 1.786666666666670178 #
coedge $-1 -1 $-1 $271 $325 $257 $317 reversed $303 $-1 #
edge $358 -1 $-1 $328 0 $319 1.570796326794896558 $257 $359 forward @7 unknown #
truecolor-adesk-attrib $-1 -1 $360 $-1 $258 -1025055002 #
vertex $-1 -1 $-1 $258 $361 #
straight-curve $-1 -1 $-1 3.888599999999999834 -7.144957894736839954 1.143333333333329982 0 0 1000 F -0.0001433333333333298965 F 0.0006433333333333400442 #
color-adesk-attrib $-1 -1 $362 $259 $192 254 #
point $-1 -1 $-1 3.888599999999999834 -7.144957894736839954 1.786666666666670178 #
DXID-attrib $-1 -1 $-1 $262 $127 @18 ASM_FACE_FROM_STEP @16 step-1M-308-1580 #
DXID-attrib $-1 -1 $-1 $263 $131 @18 ASM_EDGE_FROM_STEP @3 583 #
coedge $-1 -1 $-1 $316 $308 $268 $326 reversed $303 $-1 #
edge $363 -1 $-1 $319 0 $311 0.0009699999999999997253 $268 $364 forward @14 tangent_not_g2 #
truecolor-adesk-attrib $-1 -1 $365 $-1 $272 -1025055002 #
vertex $-1 -1 $-1 $272 $366 #
straight-curve $-1 -1 $-1 3.888599999999999834 -8.144957894736839066 0 -1000 0 0 F 0 F 0.0009699999999999997253 #
truecolor-adesk-attrib $-1 -1 $367 $-1 $273 -1025055002 #
straight-curve $-1 -1 $-1 3.888599999999999834 -9.124957894736839492 0 -1000 0 0 F 0 F 0.0009699999999999997253 #
color-adesk-attrib $-1 -1 $368 $274 $210 254 #
point $-1 -1 $-1 2.918600000000000527 -9.124957894736839492 0 #
point $-1 -1 $-1 2.918600000000000527 -8.144957894736839066 0 #
color-adesk-attrib $-1 -1 $369 $278 $213 254 #
color-adesk-attrib $-1 -1 $370 $280 $214 254 #
point $-1 -1 $-1 3.888599999999999834 -9.124957894736839492 0 #
DXID-attrib $-1 -1 $-1 $283 $149 @18 ASM_EDGE_FROM_STEP @3 571 #
color-adesk-attrib $-1 -1 $371 $285 $219 254 #
DXID-attrib $-1 -1 $-1 $287 $152 @18 ASM_EDGE_FROM_STEP @3 569 #
truecolor-adesk-attrib $-1 -1 $372 $-1 $289 -1025055002 #
straight-curve $-1 -1 $-1 3.888599999999999834 -8.134957894736839279 0 0 1000 0 F -0.0009899999999999986935 F -9.999999999998897981e-06 #
DXID-attrib $-1 -1 $-1 $291 $158 @18 ASM_EDGE_FROM_STEP @3 566 #
color-adesk-attrib $-1 -1 $373 $293 $231 254 #
color-adesk-attrib $-1 -1 $374 $295 $232 254 #
DXID-attrib $-1 -1 $-1 $298 $168 @18 ASM_EDGE_FROM_STEP @3 586 #
DXID-attrib $-1 -1 $-1 $299 $169 @18 ASM_EDGE_FROM_STEP @3 585 #
DXID-attrib $-1 -1 $-1 $301 $175 @18 ASM_FACE_FROM_STEP @16 step-1M-308-1584 #
color-adesk-attrib $-1 -1 $375 $302 $242 254 #
DXID-attrib $-1 -1 $-1 $307 $183 @18 ASM_FACE_FROM_STEP @16 step-1M-308-1582 #
truecolor-adesk-attrib $-1 -1 $376 $-1 $309 -1025055002 #
ellipse-curve $-1 -1 $-1 2.918600000000000527 -8.144957894736839066 1 1 0 0 0 0 -1 1 F 0 F 1.570796326794896558 #
color-adesk-attrib $-1 -1 $377 $310 $252 254 #
point $-1 -1 $-1 2.918600000000000527 -7.144957894736839954 1 #
truecolor-adesk-attrib $-1 -1 $378 $-1 $313 -1025055002 #
straight-curve $-1 -1 $-1 3.888599999999999834 -7.144957894736839954 1.786666666666670178 -1000 0 0 F 0 F 0.0009699999999999997253 #
DXID-attrib $-1 -1 $-1 $314 $188 @18 ASM_EDGE_FROM_STEP @3 590 #
truecolor-adesk-attrib $-1 -1 $379 $-1 $317 -1025055002 #
ellipse-curve $-1 -1 $-1 3.888599999999999834 -8.144957894736839066 1 1 0 0 0 0 -1 1 F 0 F 1.570796326794896558 #
color-adesk-attrib $-1 -1 $380 $318 $258 254 #
point $-1 -1 $-1 3.888599999999999834 -7.144957894736839954 1 #
DXID-attrib $-1 -1 $-1 $321 $192 @18 ASM_EDGE_FROM_STEP @3 588 #
truecolor-adesk-attrib $-1 -1 $381 $-1 $326 -1025055002 #
straight-curve $-1 -1 $-1 3.888599999999999834 -7.144957894736839954 1 -1000 0 0 F 0 F 0.0009699999999999997253 #
color-adesk-attrib $-1 -1 $382 $327 $272 254 #
point $-1 -1 $-1 3.888599999999999834 -8.144957894736839066 0 #
color-adesk-attrib $-1 -1 $383 $330 $273 254 #
DXID-attrib $-1 -1 $-1 $332 $210 @18 ASM_EDGE_FROM_STEP @3 575 #
DXID-attrib $-1 -1 $-1 $335 $213 @18 ASM_EDGE_FROM_STEP @3 572 #
DXID-attrib $-1 -1 $-1 $336 $214 @18 ASM_EDGE_FROM_STEP @3 574 #
DXID-attrib $-1 -1 $-1 $339 $219 @18 ASM_EDGE_FROM_STEP @3 570 #
color-adesk-attrib $-1 -1 $384 $341 $289 254 #
DXID-attrib $-1 -1 $-1 $344 $231 @18 ASM_EDGE_FROM_STEP @3 592 #
DXID-attrib $-1 -1 $-1 $345 $232 @18 ASM_FACE_FROM_STEP @16 step-1M-308-1583 #
DXID-attrib $-1 -1 $-1 $349 $242 @18 ASM_FACE_FROM_STEP @16 step-1M-308-1585 #
color-adesk-attrib $-1 -1 $385 $351 $309 254 #
DXID-attrib $-1 -1 $-1 $353 $252 @18 ASM_EDGE_FROM_STEP @3 580 #
color-adesk-attrib $-1 -1 $386 $355 $313 254 #
color-adesk-attrib $-1 -1 $387 $358 $317 254 #
DXID-attrib $-1 -1 $-1 $360 $258 @18 ASM_EDGE_FROM_STEP @3 578 #
color-adesk-attrib $-1 -1 $388 $363 $326 254 #
DXID-attrib $-1 -1 $-1 $365 $272 @18 ASM_EDGE_FROM_STEP @3 576 #
DXID-attrib $-1 -1 $-1 $367 $273 @18 ASM_EDGE_FROM_STEP @3 573 #
DXID-attrib $-1 -1 $-1 $372 $289 @18 ASM_EDGE_FROM_STEP @3 577 #
DXID-attrib $-1 -1 $-1 $376 $309 @18 ASM_EDGE_FROM_STEP @3 591 #
DXID-attrib $-1 -1 $-1 $378 $313 @18 ASM_EDGE_FROM_STEP @3 581 #
DXID-attrib $-1 -1 $-1 $379 $317 @18 ASM_EDGE_FROM_STEP @3 587 #
DXID-attrib $-1 -1 $-1 $381 $326 @18 ASM_EDGE_FROM_STEP @3 579 #
