700 685 1 0         
5 ZWCAD 12 ACIS 28.0 NT 24 Mon May 13 09:35:27 2024 
1 9.9999999999999995e-07 1e-10 
body $1 -1 $-1 $2 $-1 $-1 #
DXID-attrib $-1 -1 $-1 $-1 $0 @18 ASM_BODY_FROM_STEP @83 69888C1E30229438303C74874236D9CBF29D6195|:|8FFA06EABE1D103DBB9209663EBEC513715EBCFF #
lump $-1 -1 $-1 $-1 $3 $0 #
shell $-1 -1 $-1 $-1 $-1 $4 $-1 $2 #
face $5 -1 $-1 $6 $7 $3 $-1 $8 reversed single #
truecolor-adesk-attrib $-1 -1 $9 $-1 $4 -1056964608 #
face $10 -1 $-1 $11 $12 $3 $-1 $13 reversed single #
loop $-1 -1 $-1 $-1 $14 $4 #
cone-surface $-1 -1 $-1 -316.07104803808033 -252.95286696469287 -118.50154859098492 0 0 -1 3.0310008278896874e-16 1.6499999999999937 0 1 I I 0 1 1.6499999999999937 forward I I I I #
DXID-attrib $-1 -1 $-1 $5 $4 @18 ASM_FACE_FROM_STEP @16 step-2M-555-9227 #
truecolor-adesk-attrib $-1 -1 $15 $-1 $6 -1056964608 #
face $16 -1 $-1 $17 $18 $3 $-1 $19 reversed single #
loop $-1 -1 $-1 $-1 $20 $6 #
cone-surface $-1 -1 $-1 -316.07104803808033 -252.95286696469287 -104.40154859098493 0 0 -1 3.0310008278896933e-16 1.649999999999997 0 1 I I 0.85716730070211122 0.51503807491005604 1.649999999999997 forward I I I I #
coedge $-1 -1 $-1 $21 $22 $23 $24 reversed $7 $-1 #
DXID-attrib $-1 -1 $-1 $10 $6 @18 ASM_FACE_FROM_STEP @17 step-2M-555-22179 #
truecolor-adesk-attrib $-1 -1 $25 $-1 $11 -1056964608 #
face $26 -1 $-1 $27 $28 $3 $-1 $29 reversed single #
loop $-1 -1 $-1 $-1 $30 $11 #
cone-surface $-1 -1 $-1 -403.57104803808033 -252.95286696469287 -118.50154859098492 0 0 -1 3.0310008278896874e-16 1.6499999999999937 0 1 I I 0 1 1.6499999999999937 forward I I I I #
coedge $-1 -1 $-1 $31 $23 $32 $33 reversed $12 $-1 #
coedge $-1 -1 $-1 $34 $14 $35 $36 forward $7 $-1 #
coedge $-1 -1 $-1 $14 $34 $37 $38 reversed $7 $-1 #
coedge $-1 -1 $-1 $20 $31 $14 $24 forward $12 $-1 #
edge $39 -1 $-1 $40 -3.1415926535897931 $41 0 $14 $42 forward @7 unknown #
DXID-attrib $-1 -1 $-1 $16 $11 @18 ASM_FACE_FROM_STEP @16 step-2M-555-8884 #
truecolor-adesk-attrib $-1 -1 $43 $-1 $17 -1056964608 #
face $44 -1 $-1 $45 $46 $3 $-1 $47 reversed single #
loop $-1 -1 $-1 $-1 $48 $17 #
cone-surface $-1 -1 $-1 -403.57104803808033 -252.95286696469287 -104.40154859098493 0 0 -1 3.0310008278896933e-16 1.649999999999997 0 1 I I 0.85716730070211122 0.51503807491005604 1.649999999999997 forward I I I I #
coedge $-1 -1 $-1 $49 $50 $51 $52 reversed $18 $-1 #
coedge $-1 -1 $-1 $23 $20 $53 $54 forward $12 $-1 #
coedge $-1 -1 $-1 $55 $53 $20 $33 forward $56 $-1 #
edge $57 -1 $-1 $58 -0.0019249451054052899 $41 0 $20 $59 forward @7 unknown #
coedge $-1 -1 $-1 $22 $21 $60 $61 forward $7 $-1 #
coedge $-1 -1 $-1 $62 $63 $21 $36 reversed $64 $-1 #
edge $65 -1 $-1 $40 -0.014099999999999996 $66 0 $21 $67 forward @7 unknown #
coedge $-1 -1 $-1 $63 $62 $22 $38 forward $64 $-1 #
edge $68 -1 $-1 $41 -0.014099999999999996 $69 0 $22 $70 forward @7 unknown #
truecolor-adesk-attrib $-1 -1 $71 $-1 $24 -1056964608 #
vertex $-1 -1 $-1 $24 $72 #
vertex $-1 -1 $-1 $24 $73 #
ellipse-curve $-1 -1 $-1 -316.07104803808033 -252.95286696469287 -104.40154859098493 0 0 -1 3.0310008278896933e-16 1.649999999999997 0 1 F -3.1415926535897931 F 0 #
DXID-attrib $-1 -1 $-1 $26 $17 @18 ASM_FACE_FROM_STEP @17 step-2M-555-33761 #
truecolor-adesk-attrib $-1 -1 $74 $-1 $27 -1056964608 #
face $75 -1 $-1 $76 $77 $3 $-1 $78 reversed single #
loop $-1 -1 $-1 $-1 $79 $27 #
cone-surface $-1 -1 $-1 -359.82104803808033 -252.95286696469287 -118.50154859098492 0 0 -1 3.0310008278896874e-16 1.6499999999999937 0 1 I I 0 1 1.6499999999999937 forward I I I I #
coedge $-1 -1 $-1 $80 $51 $81 $82 reversed $28 $-1 #
coedge $-1 -1 $-1 $83 $30 $84 $85 forward $18 $-1 #
coedge $-1 -1 $-1 $30 $83 $86 $87 reversed $18 $-1 #
coedge $-1 -1 $-1 $48 $80 $30 $52 forward $28 $-1 #
edge $88 -1 $-1 $89 -3.1415926535897931 $90 0 $30 $91 forward @7 unknown #
coedge $-1 -1 $-1 $32 $55 $31 $54 reversed $56 $-1 #
edge $92 -1 $-1 $58 -0.001924945105405296 $40 0 $31 $93 forward @7 unknown #
coedge $-1 -1 $-1 $53 $32 $62 $94 forward $56 $-1 #
loop $-1 -1 $-1 $-1 $53 $95 #
truecolor-adesk-attrib $-1 -1 $96 $-1 $33 -1056964608 #
vertex $-1 -1 $-1 $33 $97 #
straight-curve $-1 -1 $-1 -316.07104803808033 -251.3028669646929 -104.40154859098493 1.5745907867079261e-13 857.16730070211133 -515.03807491005603 F -0.0019249451054052899 F 0 #
coedge $-1 -1 $-1 $98 $98 $34 $61 reversed $99 $-1 #
edge $100 -1 $-1 $66 -3.1415926535897931 $69 0 $34 $101 forward @7 unknown #
coedge $-1 -1 $-1 $37 $35 $55 $94 reversed $64 $-1 #
coedge $-1 -1 $-1 $35 $37 $98 $102 forward $64 $-1 #
loop $-1 -1 $-1 $-1 $35 $103 #
truecolor-adesk-attrib $-1 -1 $104 $-1 $36 -1056964608 #
vertex $-1 -1 $-1 $36 $105 #
straight-curve $-1 -1 $-1 -316.07104803808033 -254.60286696469288 -118.50154859098492 0 0 -1000 F -0.014099999999999996 F 0 #
truecolor-adesk-attrib $-1 -1 $106 $-1 $38 -1056964608 #
vertex $-1 -1 $-1 $61 $107 #
straight-curve $-1 -1 $-1 -316.07104803808033 -251.3028669646929 -118.50154859098492 0 0 -1000 F -0.014099999999999996 F 0 #
DXID-attrib $-1 -1 $-1 $39 $24 @18 ASM_EDGE_FROM_STEP @4 2497 #
point $-1 -1 $-1 -316.07104803808033 -254.60286696469288 -104.40154859098493 #
point $-1 -1 $-1 -316.07104803808033 -251.3028669646929 -104.40154859098493 #
DXID-attrib $-1 -1 $-1 $44 $27 @18 ASM_FACE_FROM_STEP @16 step-2M-555-1044 #
truecolor-adesk-attrib $-1 -1 $108 $-1 $45 -1056964608 #
face $109 -1 $-1 $110 $111 $3 $-1 $112 reversed single #
loop $-1 -1 $-1 $-1 $113 $45 #
cone-surface $-1 -1 $-1 -359.82104803808033 -252.95286696469287 -104.40154859098493 0 0 -1 3.0310008278896933e-16 1.649999999999997 0 1 I I 0.85716730070211122 0.51503807491005604 1.649999999999997 forward I I I I #
coedge $-1 -1 $-1 $114 $115 $116 $117 reversed $46 $-1 #
coedge $-1 -1 $-1 $51 $48 $118 $119 forward $28 $-1 #
coedge $-1 -1 $-1 $120 $118 $48 $82 forward $121 $-1 #
edge $122 -1 $-1 $123 -0.0019249451054052899 $90 0 $48 $124 forward @7 unknown #
coedge $-1 -1 $-1 $50 $49 $125 $126 forward $18 $-1 #
coedge $-1 -1 $-1 $127 $128 $49 $85 reversed $129 $-1 #
edge $130 -1 $-1 $89 -0.014099999999999996 $131 0 $49 $132 forward @7 unknown #
coedge $-1 -1 $-1 $128 $127 $50 $87 forward $129 $-1 #
edge $133 -1 $-1 $90 -0.014099999999999996 $134 0 $50 $135 forward @7 unknown #
truecolor-adesk-attrib $-1 -1 $136 $-1 $52 -1056964608 #
vertex $-1 -1 $-1 $52 $137 #
vertex $-1 -1 $-1 $52 $138 #
ellipse-curve $-1 -1 $-1 -403.57104803808033 -252.95286696469287 -104.40154859098493 0 0 -1 3.0310008278896933e-16 1.649999999999997 0 1 F -3.1415926535897931 F 0 #
truecolor-adesk-attrib $-1 -1 $139 $-1 $54 -1056964608 #
straight-curve $-1 -1 $-1 -316.07104803808033 -254.60286696469288 -104.40154859098493 -5.2486359556930868e-14 -857.16730070211133 -515.03807491005603 F -0.001924945105405296 F 0 #
edge $140 -1 $-1 $41 0 $40 3.1415926535897931 $55 $141 forward @7 unknown #
face $142 -1 $-1 $103 $56 $3 $-1 $143 reversed single #
DXID-attrib $-1 -1 $-1 $57 $33 @18 ASM_EDGE_FROM_STEP @5 23211 #
point $-1 -1 $-1 -316.07104803808033 -252.95286696469287 -103.41012856958945 #
coedge $-1 -1 $-1 $60 $60 $63 $102 reversed $99 $-1 #
loop $-1 -1 $-1 $-1 $98 $144 #
truecolor-adesk-attrib $-1 -1 $145 $-1 $61 -1056964608 #
ellipse-curve $-1 -1 $-1 -316.07104803808033 -252.95286696469287 -118.50154859098492 0 0 -1 3.0310008278896805e-16 1.6499999999999899 0 1 F -3.1415926535897931 F 0 #
edge $146 -1 $-1 $69 0 $66 3.1415926535897931 $98 $147 forward @7 unknown #
face $148 -1 $-1 $-1 $64 $3 $-1 $149 reversed single #
DXID-attrib $-1 -1 $-1 $65 $36 @18 ASM_EDGE_FROM_STEP @5 24544 #
point $-1 -1 $-1 -316.07104803808033 -254.60286696469288 -118.50154859098492 #
DXID-attrib $-1 -1 $-1 $68 $38 @18 ASM_EDGE_FROM_STEP @5 16550 #
point $-1 -1 $-1 -316.07104803808033 -251.3028669646929 -118.50154859098492 #
DXID-attrib $-1 -1 $-1 $75 $45 @18 ASM_FACE_FROM_STEP @15 step-2M-555-256 #
truecolor-adesk-attrib $-1 -1 $150 $-1 $76 -1056964608 #
face $151 -1 $-1 $152 $153 $3 $-1 $154 reversed single #
loop $-1 -1 $-1 $-1 $155 $76 #
cone-surface $-1 -1 $-1 -359.82104803808033 -257.95286696469293 -92.50154859098491 -1.8369701987210297e-16 -1 0 0 0 -2.4999999999999929 1 I I 0 1 2.4999999999999929 forward I I I I #
coedge $-1 -1 $-1 $156 $116 $157 $158 reversed $77 $-1 #
coedge $-1 -1 $-1 $159 $79 $160 $161 forward $46 $-1 #
coedge $-1 -1 $-1 $79 $159 $162 $163 reversed $46 $-1 #
coedge $-1 -1 $-1 $113 $156 $79 $117 forward $77 $-1 #
edge $164 -1 $-1 $165 -3.1415926535897931 $166 0 $79 $167 forward @7 unknown #
coedge $-1 -1 $-1 $81 $120 $80 $119 reversed $121 $-1 #
edge $168 -1 $-1 $123 -0.001924945105405296 $89 0 $80 $169 forward @7 unknown #
coedge $-1 -1 $-1 $118 $81 $127 $170 forward $121 $-1 #
loop $-1 -1 $-1 $-1 $118 $171 #
truecolor-adesk-attrib $-1 -1 $172 $-1 $82 -1056964608 #
vertex $-1 -1 $-1 $82 $173 #
straight-curve $-1 -1 $-1 -403.57104803808033 -251.30286696469287 -104.40154859098493 1.5745907867079261e-13 857.16730070211133 -515.03807491005603 F -0.0019249451054052899 F 0 #
coedge $-1 -1 $-1 $174 $174 $83 $126 reversed $175 $-1 #
edge $176 -1 $-1 $131 -3.1415926535897931 $134 0 $83 $177 forward @7 unknown #
coedge $-1 -1 $-1 $86 $84 $120 $170 reversed $129 $-1 #
coedge $-1 -1 $-1 $84 $86 $174 $178 forward $129 $-1 #
loop $-1 -1 $-1 $-1 $84 $179 #
truecolor-adesk-attrib $-1 -1 $180 $-1 $85 -1056964608 #
vertex $-1 -1 $-1 $85 $181 #
straight-curve $-1 -1 $-1 -403.57104803808033 -254.60286696469285 -118.50154859098492 0 0 -1000 F -0.014099999999999996 F 0 #
truecolor-adesk-attrib $-1 -1 $182 $-1 $87 -1056964608 #
vertex $-1 -1 $-1 $126 $183 #
straight-curve $-1 -1 $-1 -403.57104803808033 -251.30286696469287 -118.50154859098492 0 0 -1000 F -0.014099999999999996 F 0 #
DXID-attrib $-1 -1 $-1 $88 $52 @18 ASM_EDGE_FROM_STEP @4 1984 #
point $-1 -1 $-1 -403.57104803808033 -254.60286696469285 -104.40154859098493 #
point $-1 -1 $-1 -403.57104803808033 -251.30286696469287 -104.40154859098493 #
DXID-attrib $-1 -1 $-1 $92 $54 @18 ASM_EDGE_FROM_STEP @5 12656 #
truecolor-adesk-attrib $-1 -1 $184 $-1 $94 -1056964608 #
ellipse-curve $-1 -1 $-1 -316.07104803808033 -252.95286696469287 -104.40154859098493 0 0 -1 3.0310008278896933e-16 1.649999999999997 0 1 F 0 F 3.1415926535897931 #
truecolor-adesk-attrib $-1 -1 $185 $-1 $95 -1056964608 #
cone-surface $-1 -1 $-1 -316.07104803808033 -252.95286696469287 -104.40154859098493 0 0 -1 3.0310008278896933e-16 1.649999999999997 0 1 I I 0.85716730070211122 0.51503807491005604 1.649999999999997 forward I I I I #
face $186 -1 $-1 $187 $188 $3 $-1 $189 reversed single #
DXID-attrib $-1 -1 $-1 $100 $61 @18 ASM_EDGE_FROM_STEP @5 20488 #
truecolor-adesk-attrib $-1 -1 $190 $-1 $102 -1056964608 #
ellipse-curve $-1 -1 $-1 -316.07104803808033 -252.95286696469287 -118.50154859098492 0 0 -1 3.0310008278896805e-16 1.6499999999999899 0 1 F 0 F 3.1415926535897931 #
truecolor-adesk-attrib $-1 -1 $191 $-1 $103 -1056964608 #
cone-surface $-1 -1 $-1 -316.07104803808033 -252.95286696469287 -118.50154859098492 0 0 -1 3.0310008278896874e-16 1.6499999999999937 0 1 I I 0 1 1.6499999999999937 forward I I I I #
DXID-attrib $-1 -1 $-1 $109 $76 @18 ASM_FACE_FROM_STEP @17 step-2M-555-13213 #
truecolor-adesk-attrib $-1 -1 $192 $-1 $110 -1056964608 #
face $193 -1 $-1 $144 $194 $3 $-1 $195 reversed single #
loop $-1 -1 $-1 $175 $196 $110 #
plane-surface $-1 -1 $-1 -359.82104803808033 -252.95286696469293 -118.50154859098492 0 0 1 -1.8369701987210297e-16 -1 0 forward_v I I I I #
coedge $-1 -1 $-1 $197 $198 $199 $200 reversed $111 $-1 #
coedge $-1 -1 $-1 $116 $113 $201 $202 forward $77 $-1 #
coedge $-1 -1 $-1 $203 $201 $113 $158 forward $204 $-1 #
edge $205 -1 $-1 $206 -0.0019249451054052899 $166 0 $113 $207 forward @7 unknown #
coedge $-1 -1 $-1 $115 $114 $208 $209 forward $46 $-1 #
coedge $-1 -1 $-1 $210 $211 $114 $161 reversed $212 $-1 #
edge $213 -1 $-1 $165 -0.014099999999999996 $214 0 $114 $215 forward @7 unknown #
coedge $-1 -1 $-1 $211 $210 $115 $163 forward $212 $-1 #
edge $216 -1 $-1 $166 -0.014099999999999996 $217 0 $115 $218 forward @7 unknown #
truecolor-adesk-attrib $-1 -1 $219 $-1 $117 -1056964608 #
vertex $-1 -1 $-1 $117 $220 #
vertex $-1 -1 $-1 $117 $221 #
ellipse-curve $-1 -1 $-1 -359.82104803808033 -252.95286696469287 -104.40154859098493 0 0 -1 3.0310008278896933e-16 1.649999999999997 0 1 F -3.1415926535897931 F 0 #
truecolor-adesk-attrib $-1 -1 $222 $-1 $119 -1056964608 #
straight-curve $-1 -1 $-1 -403.57104803808033 -254.60286696469285 -104.40154859098493 -5.2486359556930868e-14 -857.16730070211133 -515.03807491005603 F -0.001924945105405296 F 0 #
edge $223 -1 $-1 $90 0 $89 3.1415926535897931 $120 $224 forward @7 unknown #
face $225 -1 $-1 $179 $121 $3 $-1 $226 reversed single #
DXID-attrib $-1 -1 $-1 $122 $82 @18 ASM_EDGE_FROM_STEP @5 37904 #
point $-1 -1 $-1 -403.57104803808033 -252.95286696469287 -103.41012856958945 #
coedge $-1 -1 $-1 $125 $125 $128 $178 reversed $175 $-1 #
loop $-1 -1 $-1 $-1 $174 $110 #
truecolor-adesk-attrib $-1 -1 $227 $-1 $126 -1056964608 #
ellipse-curve $-1 -1 $-1 -403.57104803808033 -252.95286696469287 -118.50154859098492 0 0 -1 3.0310008278896805e-16 1.6499999999999899 0 1 F -3.1415926535897931 F 0 #
edge $228 -1 $-1 $134 0 $131 3.1415926535897931 $174 $229 forward @7 unknown #
face $230 -1 $-1 $95 $129 $3 $-1 $231 reversed single #
DXID-attrib $-1 -1 $-1 $130 $85 @18 ASM_EDGE_FROM_STEP @5 28720 #
point $-1 -1 $-1 -403.57104803808033 -254.60286696469285 -118.50154859098492 #
DXID-attrib $-1 -1 $-1 $133 $87 @18 ASM_EDGE_FROM_STEP @5 34668 #
point $-1 -1 $-1 -403.57104803808033 -251.3028669646929 -118.50154859098492 #
DXID-attrib $-1 -1 $-1 $140 $94 @18 ASM_EDGE_FROM_STEP @5 32926 #
DXID-attrib $-1 -1 $-1 $142 $95 @18 ASM_FACE_FROM_STEP @17 step-2M-555-27731 #
truecolor-adesk-attrib $-1 -1 $232 $-1 $144 -1056964608 #
face $233 -1 $-1 $234 $235 $3 $-1 $236 reversed single #
loop $-1 -1 $-1 $99 $237 $144 #
plane-surface $-1 -1 $-1 -359.82104803808033 -252.95286696469293 -118.50154859098492 0 0 1 -1.8369701987210297e-16 -1 0 forward_v I I I I #
DXID-attrib $-1 -1 $-1 $146 $102 @18 ASM_EDGE_FROM_STEP @5 15287 #
DXID-attrib $-1 -1 $-1 $148 $103 @18 ASM_FACE_FROM_STEP @17 step-2M-555-35029 #
DXID-attrib $-1 -1 $-1 $151 $110 @18 ASM_FACE_FROM_STEP @17 step-2M-555-21179 #
truecolor-adesk-attrib $-1 -1 $238 $-1 $152 -1056964608 #
loop $-1 -1 $-1 $239 $240 $152 #
plane-surface $-1 -1 $-1 -359.82104803808033 -252.95286696469293 -118.50154859098492 0 0 1 -1.8369701987210297e-16 -1 0 forward_v I I I I #
coedge $-1 -1 $-1 $241 $242 $243 $244 forward $153 $-1 #
coedge $-1 -1 $-1 $245 $155 $246 $247 forward $111 $-1 #
coedge $-1 -1 $-1 $155 $245 $248 $249 reversed $111 $-1 #
coedge $-1 -1 $-1 $250 $250 $155 $200 forward $251 $-1 #
edge $252 -1 $-1 $253 1.5707963267948966 $254 4.7123889803846897 $155 $255 forward @7 unknown #
coedge $-1 -1 $-1 $157 $203 $156 $202 reversed $204 $-1 #
edge $256 -1 $-1 $206 -0.001924945105405296 $165 0 $156 $257 forward @7 unknown #
coedge $-1 -1 $-1 $201 $157 $210 $258 forward $204 $-1 #
loop $-1 -1 $-1 $-1 $201 $259 #
truecolor-adesk-attrib $-1 -1 $260 $-1 $158 -1056964608 #
vertex $-1 -1 $-1 $158 $261 #
straight-curve $-1 -1 $-1 -359.82104803808033 -251.3028669646929 -104.40154859098493 1.5745907867079261e-13 857.16730070211133 -515.03807491005603 F -0.0019249451054052899 F 0 #
coedge $-1 -1 $-1 $262 $262 $159 $209 reversed $239 $-1 #
edge $263 -1 $-1 $214 -3.1415926535897931 $217 0 $159 $264 forward @7 unknown #
coedge $-1 -1 $-1 $162 $160 $203 $258 reversed $212 $-1 #
coedge $-1 -1 $-1 $160 $162 $262 $265 forward $212 $-1 #
loop $-1 -1 $-1 $-1 $160 $266 #
truecolor-adesk-attrib $-1 -1 $267 $-1 $161 -1056964608 #
vertex $-1 -1 $-1 $161 $268 #
straight-curve $-1 -1 $-1 -359.82104803808033 -254.60286696469285 -118.50154859098492 0 0 -1000 F -0.014099999999999996 F 0 #
truecolor-adesk-attrib $-1 -1 $269 $-1 $163 -1056964608 #
vertex $-1 -1 $-1 $209 $270 #
straight-curve $-1 -1 $-1 -359.82104803808033 -251.3028669646929 -118.50154859098492 0 0 -1000 F -0.014099999999999996 F 0 #
DXID-attrib $-1 -1 $-1 $164 $117 @18 ASM_EDGE_FROM_STEP @5 15797 #
point $-1 -1 $-1 -359.82104803808033 -254.60286696469285 -104.40154859098493 #
point $-1 -1 $-1 -359.82104803808033 -251.3028669646929 -104.40154859098493 #
DXID-attrib $-1 -1 $-1 $168 $119 @18 ASM_EDGE_FROM_STEP @5 27248 #
truecolor-adesk-attrib $-1 -1 $271 $-1 $170 -1056964608 #
ellipse-curve $-1 -1 $-1 -403.57104803808033 -252.95286696469287 -104.40154859098493 0 0 -1 3.0310008278896933e-16 1.649999999999997 0 1 F 0 F 3.1415926535897931 #
truecolor-adesk-attrib $-1 -1 $272 $-1 $171 -1056964608 #
cone-surface $-1 -1 $-1 -403.57104803808033 -252.95286696469287 -104.40154859098493 0 0 -1 3.0310008278896933e-16 1.649999999999997 0 1 I I 0.85716730070211122 0.51503807491005604 1.649999999999997 forward I I I I #
DXID-attrib $-1 -1 $-1 $176 $126 @18 ASM_EDGE_FROM_STEP @5 23970 #
truecolor-adesk-attrib $-1 -1 $273 $-1 $178 -1056964608 #
ellipse-curve $-1 -1 $-1 -403.57104803808033 -252.95286696469287 -118.50154859098492 0 0 -1 3.0310008278896805e-16 1.6499999999999899 0 1 F 0 F 3.1415926535897931 #
truecolor-adesk-attrib $-1 -1 $274 $-1 $179 -1056964608 #
cone-surface $-1 -1 $-1 -403.57104803808033 -252.95286696469287 -118.50154859098492 0 0 -1 3.0310008278896874e-16 1.6499999999999937 0 1 I I 0 1 1.6499999999999937 forward I I I I #
DXID-attrib $-1 -1 $-1 $186 $144 @18 ASM_FACE_FROM_STEP @17 step-2M-555-10652 #
truecolor-adesk-attrib $-1 -1 $275 $-1 $187 -1056964608 #
face $276 -1 $-1 $277 $278 $3 $-1 $279 reversed single #
loop $-1 -1 $-1 $280 $281 $187 #
plane-surface $-1 -1 $-1 -309.82104803808033 -257.95286696469293 -83.501548590984925 6.2266376553726472e-17 1 0 -1 6.2266376553726472e-17 0 forward_v I I I I #
coedge $-1 -1 $-1 $282 $283 $284 $285 reversed $188 $-1 #
DXID-attrib $-1 -1 $-1 $193 $152 @18 ASM_FACE_FROM_STEP @17 step-2M-555-35221 #
loop $-1 -1 $-1 $-1 $262 $152 #
coedge $-1 -1 $-1 $286 $287 $288 $289 reversed $194 $-1 #
coedge $-1 -1 $-1 $290 $196 $291 $292 reversed $153 $-1 #
coedge $-1 -1 $-1 $196 $290 $293 $294 reversed $153 $-1 #
coedge $-1 -1 $-1 $295 $296 $196 $244 reversed $297 $-1 #
edge $298 -1 $-1 $299 0.015074813431681343 $300 0.025074813431681334 $196 $301 forward @7 unknown #
coedge $-1 -1 $-1 $198 $197 $302 $303 forward $111 $-1 #
coedge $-1 -1 $-1 $304 $305 $197 $247 reversed $306 $-1 #
edge $307 -1 $-1 $253 -0.0099999999999999985 $308 1.1102230246251566e-18 $197 $309 forward @7 unknown #
coedge $-1 -1 $-1 $305 $304 $198 $249 forward $306 $-1 #
edge $310 -1 $-1 $254 -0.0099999999999999985 $311 1.1102230246251566e-18 $198 $312 forward @7 unknown #
coedge $-1 -1 $-1 $199 $199 $304 $313 forward $251 $-1 #
loop $-1 -1 $-1 $-1 $250 $277 #
truecolor-adesk-attrib $-1 -1 $314 $-1 $200 -1056964608 #
vertex $-1 -1 $-1 $200 $315 #
vertex $-1 -1 $-1 $200 $316 #
ellipse-curve $-1 -1 $-1 -359.82104803808033 -247.95286696469293 -92.50154859098491 -6.2266376553726472e-17 -1 0 2.4999999999999929 -1.5566594138431576e-16 0 1 F 1.5707963267948966 F 4.7123889803846897 #
truecolor-adesk-attrib $-1 -1 $317 $-1 $202 -1056964608 #
straight-curve $-1 -1 $-1 -359.82104803808033 -254.60286696469285 -104.40154859098493 -5.2486359556930868e-14 -857.16730070211133 -515.03807491005603 F -0.001924945105405296 F 0 #
edge $318 -1 $-1 $166 0 $165 3.1415926535897931 $203 $319 forward @7 unknown #
face $320 -1 $-1 $266 $204 $3 $-1 $321 reversed single #
DXID-attrib $-1 -1 $-1 $205 $158 @18 ASM_EDGE_FROM_STEP @4 4568 #
point $-1 -1 $-1 -359.82104803808033 -252.95286696469287 -103.41012856958945 #
coedge $-1 -1 $-1 $208 $208 $211 $265 reversed $239 $-1 #
truecolor-adesk-attrib $-1 -1 $322 $-1 $209 -1056964608 #
ellipse-curve $-1 -1 $-1 -359.82104803808033 -252.95286696469287 -118.50154859098492 0 0 -1 3.0310008278896805e-16 1.6499999999999899 0 1 F -3.1415926535897931 F 0 #
edge $323 -1 $-1 $217 0 $214 3.1415926535897931 $262 $324 forward @7 unknown #
face $325 -1 $-1 $171 $212 $3 $-1 $326 reversed single #
DXID-attrib $-1 -1 $-1 $213 $161 @18 ASM_EDGE_FROM_STEP @4 9776 #
point $-1 -1 $-1 -359.82104803808033 -254.60286696469285 -118.50154859098492 #
DXID-attrib $-1 -1 $-1 $216 $163 @18 ASM_EDGE_FROM_STEP @5 31749 #
point $-1 -1 $-1 -359.82104803808033 -251.3028669646929 -118.50154859098492 #
DXID-attrib $-1 -1 $-1 $223 $170 @18 ASM_EDGE_FROM_STEP @5 34883 #
DXID-attrib $-1 -1 $-1 $225 $171 @18 ASM_FACE_FROM_STEP @17 step-2M-555-14788 #
DXID-attrib $-1 -1 $-1 $228 $178 @18 ASM_EDGE_FROM_STEP @5 32472 #
DXID-attrib $-1 -1 $-1 $230 $179 @18 ASM_FACE_FROM_STEP @17 step-2M-555-15357 #
DXID-attrib $-1 -1 $-1 $233 $187 @18 ASM_FACE_FROM_STEP @17 step-2M-555-30570 #
truecolor-adesk-attrib $-1 -1 $327 $-1 $234 -1056964608 #
face $328 -1 $-1 $329 $330 $3 $-1 $331 reversed single #
loop $-1 -1 $-1 $-1 $332 $234 #
plane-surface $-1 -1 $-1 -309.82104803808033 -247.95286696469293 -83.501548590984925 -1 1.8369701987210297e-16 0 0 0 -1 forward_v I I I I #
loop $-1 -1 $-1 $-1 $333 $187 #
coedge $-1 -1 $-1 $334 $335 $336 $337 reversed $235 $-1 #
coedge $-1 -1 $-1 $338 $237 $339 $340 reversed $188 $-1 #
coedge $-1 -1 $-1 $237 $338 $341 $342 reversed $188 $-1 #
coedge $-1 -1 $-1 $343 $344 $237 $285 forward $345 $-1 #
edge $346 -1 $-1 $347 0.015074813431681338 $348 0.025074813431681338 $237 $349 forward @7 unknown #
coedge $-1 -1 $-1 $350 $240 $351 $352 reversed $194 $-1 #
coedge $-1 -1 $-1 $240 $350 $353 $354 reversed $194 $-1 #
coedge $-1 -1 $-1 $355 $356 $240 $289 forward $357 $-1 #
edge $358 -1 $-1 $359 0.015074813431681336 $360 0.025074813431681334 $240 $361 forward @7 unknown #
coedge $-1 -1 $-1 $242 $241 $362 $363 reversed $153 $-1 #
coedge $-1 -1 $-1 $364 $365 $241 $292 forward $235 $-1 #
edge $366 -1 $-1 $367 -0.10000000000000001 $300 -0.087499999999999994 $241 $368 forward @7 unknown #
coedge $-1 -1 $-1 $369 $370 $242 $294 forward $330 $-1 #
edge $371 -1 $-1 $299 0.087499999999999994 $372 0.10000000000000001 $242 $373 forward @7 unknown #
coedge $-1 -1 $-1 $374 $243 $370 $375 forward $297 $-1 #
coedge $-1 -1 $-1 $243 $374 $364 $376 forward $297 $-1 #
loop $-1 -1 $-1 $-1 $243 $377 #
truecolor-adesk-attrib $-1 -1 $378 $-1 $244 -1056964608 #
vertex $-1 -1 $-1 $244 $379 #
vertex $-1 -1 $-1 $244 $380 #
straight-curve $-1 -1 $-1 -397.32104803808033 -232.87805353301158 -118.50154859098492 -3.0512766319047947e-13 -1000 0 F 0.015074813431681343 F 0.025074813431681334 #
coedge $-1 -1 $-1 $333 $333 $245 $303 reversed $280 $-1 #
edge $381 -1 $-1 $308 -3.1415926535897931 $311 0 $245 $382 forward @7 unknown #
coedge $-1 -1 $-1 $248 $246 $250 $313 reversed $306 $-1 #
coedge $-1 -1 $-1 $246 $248 $333 $383 forward $306 $-1 #
loop $-1 -1 $-1 $-1 $246 $384 #
truecolor-adesk-attrib $-1 -1 $385 $-1 $247 -1056964608 #
vertex $-1 -1 $-1 $247 $386 #
straight-curve $-1 -1 $-1 -359.82104803808033 -257.95286696469293 -90.001548590984925 -1.8369701987210297e-13 -1000 0 F -0.0099999999999999985 F 1.1102230246251566e-18 #
truecolor-adesk-attrib $-1 -1 $387 $-1 $249 -1056964608 #
vertex $-1 -1 $-1 $303 $388 #
straight-curve $-1 -1 $-1 -359.82104803808033 -257.95286696469293 -95.001548590984896 -1.8369701987210297e-13 -1000 0 F -0.0099999999999999985 F 1.1102230246251566e-18 #
edge $389 -1 $-1 $254 -1.5707963267948966 $253 1.5707963267948966 $250 $390 forward @7 unknown #
DXID-attrib $-1 -1 $-1 $252 $200 @18 ASM_EDGE_FROM_STEP @5 22715 #
point $-1 -1 $-1 -359.82104803808033 -247.95286696469293 -90.001548590984925 #
point $-1 -1 $-1 -359.82104803808033 -247.95286696469293 -95.001548590984896 #
DXID-attrib $-1 -1 $-1 $256 $202 @18 ASM_EDGE_FROM_STEP @5 34442 #
truecolor-adesk-attrib $-1 -1 $391 $-1 $258 -1056964608 #
ellipse-curve $-1 -1 $-1 -359.82104803808033 -252.95286696469287 -104.40154859098493 0 0 -1 3.0310008278896933e-16 1.649999999999997 0 1 F 0 F 3.1415926535897931 #
truecolor-adesk-attrib $-1 -1 $392 $-1 $259 -1056964608 #
cone-surface $-1 -1 $-1 -359.82104803808033 -252.95286696469287 -104.40154859098493 0 0 -1 3.0310008278896933e-16 1.649999999999997 0 1 I I 0.85716730070211122 0.51503807491005604 1.649999999999997 forward I I I I #
DXID-attrib $-1 -1 $-1 $263 $209 @18 ASM_EDGE_FROM_STEP @5 35226 #
truecolor-adesk-attrib $-1 -1 $393 $-1 $265 -1056964608 #
ellipse-curve $-1 -1 $-1 -359.82104803808033 -252.95286696469287 -118.50154859098492 0 0 -1 3.0310008278896805e-16 1.6499999999999899 0 1 F 0 F 3.1415926535897931 #
truecolor-adesk-attrib $-1 -1 $394 $-1 $266 -1056964608 #
cone-surface $-1 -1 $-1 -359.82104803808033 -252.95286696469287 -118.50154859098492 0 0 -1 3.0310008278896874e-16 1.6499999999999937 0 1 I I 0 1 1.6499999999999937 forward I I I I #
DXID-attrib $-1 -1 $-1 $276 $234 @18 ASM_FACE_FROM_STEP @17 step-2M-555-35276 #
truecolor-adesk-attrib $-1 -1 $395 $-1 $277 -1056964608 #
face $396 -1 $-1 $397 $398 $3 $-1 $399 reversed single #
loop $-1 -1 $-1 $251 $369 $277 #
plane-surface $-1 -1 $-1 -309.82104803808033 -247.95286696469293 -83.501548590984925 -6.2266376553726472e-17 -1 0 1 -6.2266376553726472e-17 0 forward_v I I I I #
coedge $-1 -1 $-1 $400 $401 $402 $403 reversed $278 $-1 #
coedge $-1 -1 $-1 $302 $302 $305 $383 reversed $280 $-1 #
coedge $-1 -1 $-1 $365 $281 $404 $405 forward $235 $-1 #
coedge $-1 -1 $-1 $281 $406 $407 $408 forward $235 $-1 #
coedge $-1 -1 $-1 $409 $410 $281 $337 forward $411 $-1 #
edge $412 -1 $-1 $413 -0.095000000000000001 $414 -0.0049999999999999819 $281 $415 forward @7 unknown #
coedge $-1 -1 $-1 $283 $282 $401 $416 reversed $188 $-1 #
coedge $-1 -1 $-1 $417 $402 $282 $340 forward $330 $-1 #
edge $418 -1 $-1 $419 0 $347 0.01249999999999999 $282 $420 forward @7 unknown #
coedge $-1 -1 $-1 $406 $421 $283 $342 forward $235 $-1 #
edge $422 -1 $-1 $348 -0.01249999999999999 $423 0 $283 $424 forward @7 unknown #
coedge $-1 -1 $-1 $425 $284 $421 $426 reversed $345 $-1 #
coedge $-1 -1 $-1 $284 $425 $417 $427 reversed $345 $-1 #
loop $-1 -1 $-1 $-1 $344 $428 #
truecolor-adesk-attrib $-1 -1 $429 $-1 $285 -1056964608 #
vertex $-1 -1 $-1 $285 $430 #
vertex $-1 -1 $-1 $285 $431 #
straight-curve $-1 -1 $-1 -322.32104803808033 -232.87805353301161 -118.50154859098492 -6.2266376553726453e-14 -1000 0 F 0.015074813431681338 F 0.025074813431681338 #
coedge $-1 -1 $-1 $287 $286 $432 $433 forward $194 $-1 #
coedge $-1 -1 $-1 $434 $435 $286 $352 forward $330 $-1 #
edge $436 -1 $-1 $437 0.02749999999999999 $359 0.072500000000000009 $286 $438 forward @7 unknown #
coedge $-1 -1 $-1 $439 $440 $287 $354 forward $235 $-1 #
edge $441 -1 $-1 $360 -0.072500000000000009 $442 -0.02749999999999999 $287 $443 forward @7 unknown #
coedge $-1 -1 $-1 $444 $288 $440 $445 forward $357 $-1 #
coedge $-1 -1 $-1 $288 $444 $434 $446 forward $357 $-1 #
loop $-1 -1 $-1 $-1 $444 $447 #
truecolor-adesk-attrib $-1 -1 $448 $-1 $289 -1056964608 #
vertex $-1 -1 $-1 $289 $449 #
vertex $-1 -1 $-1 $289 $450 #
straight-curve $-1 -1 $-1 -382.32104803808033 -232.87805353301161 -118.50154859098492 -3.0512766319047947e-13 -1000 0 F 0.015074813431681336 F 0.025074813431681334 #
coedge $-1 -1 $-1 $451 $452 $290 $363 forward $398 $-1 #
edge $453 -1 $-1 $372 0 $367 0.01 $290 $454 forward @7 unknown #
coedge $-1 -1 $-1 $455 $291 $296 $376 reversed $235 $-1 #
coedge $-1 -1 $-1 $291 $334 $451 $456 forward $235 $-1 #
truecolor-adesk-attrib $-1 -1 $457 $-1 $292 -1056964608 #
vertex $-1 -1 $-1 $292 $458 #
straight-curve $-1 -1 $-1 -309.82104803808033 -257.95286696469293 -118.50154859098492 1000 -6.2266376553726478e-14 0 F -0.10000000000000001 F -0.087499999999999994 #
coedge $-1 -1 $-1 $459 $293 $452 $460 reversed $330 $-1 #
coedge $-1 -1 $-1 $293 $461 $295 $375 reversed $330 $-1 #
truecolor-adesk-attrib $-1 -1 $462 $-1 $294 -1056964608 #
vertex $-1 -1 $-1 $363 $463 #
straight-curve $-1 -1 $-1 -309.82104803808033 -247.95286696469293 -118.50154859098492 -1000 6.2266376553726478e-14 0 F 0.087499999999999994 F 0.10000000000000001 #
coedge $-1 -1 $-1 $296 $295 $464 $465 forward $297 $-1 #
edge $466 -1 $-1 $299 -0.0015000000000000035 $467 0 $370 $468 forward @7 unknown #
edge $469 -1 $-1 $470 0 $300 0.0015000000000000035 $364 $471 forward @7 unknown #
face $472 -1 $-1 $473 $297 $3 $-1 $474 reversed single #
DXID-attrib $-1 -1 $-1 $298 $244 @18 ASM_EDGE_FROM_STEP @5 30497 #
point $-1 -1 $-1 -397.32104803808033 -247.95286696469293 -118.50154859098492 #
point $-1 -1 $-1 -397.32104803808033 -257.95286696469293 -118.50154859098492 #
truecolor-adesk-attrib $-1 -1 $475 $-1 $303 -1056964608 #
ellipse-curve $-1 -1 $-1 -359.82104803808033 -257.95286696469293 -92.50154859098491 -1.8369701987210297e-16 -1 0 0 0 -2.4999999999999885 1 F -3.1415926535897931 F 0 #
edge $476 -1 $-1 $311 0 $308 3.1415926535897931 $333 $477 forward @7 unknown #
face $478 -1 $-1 $259 $306 $3 $-1 $479 reversed single #
DXID-attrib $-1 -1 $-1 $307 $247 @18 ASM_EDGE_FROM_STEP @5 20722 #
point $-1 -1 $-1 -359.82104803808033 -257.95286696469293 -90.001548590984925 #
DXID-attrib $-1 -1 $-1 $310 $249 @18 ASM_EDGE_FROM_STEP @5 36408 #
point $-1 -1 $-1 -359.82104803808033 -257.95286696469293 -95.001548590984896 #
truecolor-adesk-attrib $-1 -1 $480 $-1 $313 -1056964608 #
ellipse-curve $-1 -1 $-1 -359.82104803808033 -247.95286696469293 -92.50154859098491 -6.2266376553726472e-17 -1 0 2.4999999999999929 -1.5566594138431576e-16 0 1 F -1.5707963267948966 F 1.5707963267948966 #
DXID-attrib $-1 -1 $-1 $318 $258 @18 ASM_EDGE_FROM_STEP @5 36894 #
DXID-attrib $-1 -1 $-1 $320 $259 @18 ASM_FACE_FROM_STEP @17 step-2M-555-37619 #
DXID-attrib $-1 -1 $-1 $323 $265 @18 ASM_EDGE_FROM_STEP @5 29240 #
DXID-attrib $-1 -1 $-1 $325 $266 @18 ASM_FACE_FROM_STEP @16 step-2M-555-4793 #
DXID-attrib $-1 -1 $-1 $328 $277 @18 ASM_FACE_FROM_STEP @17 step-2M-555-35015 #
truecolor-adesk-attrib $-1 -1 $481 $-1 $329 -1056964608 #
face $482 -1 $-1 $428 $411 $3 $-1 $483 forward single #
loop $-1 -1 $-1 $-1 $451 $329 #
plane-surface $-1 -1 $-1 -409.82104803808033 -247.95286696469293 -83.501548590984925 1 -1.8369701987210297e-16 0 0 0 1 forward_v I I I I #
coedge $-1 -1 $-1 $484 $332 $485 $486 forward $278 $-1 #
coedge $-1 -1 $-1 $332 $484 $338 $416 forward $278 $-1 #
coedge $-1 -1 $-1 $339 $487 $332 $403 forward $330 $-1 #
edge $488 -1 $-1 $489 0.0050000000000000157 $419 0.035000000000000003 $332 $490 forward @7 unknown #
coedge $-1 -1 $-1 $491 $492 $334 $405 reversed $493 $-1 #
edge $494 -1 $-1 $413 -2.669157179762414e-17 $495 0.0070710678118654701 $334 $496 forward @7 unknown #
coedge $-1 -1 $-1 $335 $341 $484 $497 reversed $235 $-1 #
coedge $-1 -1 $-1 $485 $498 $335 $408 reversed $499 $-1 #
edge $500 -1 $-1 $501 -0.0070710678118654701 $414 0 $335 $502 forward @7 unknown #
coedge $-1 -1 $-1 $503 $336 $498 $504 forward $411 $-1 #
coedge $-1 -1 $-1 $336 $503 $491 $505 forward $411 $-1 #
loop $-1 -1 $-1 $-1 $503 $397 #
truecolor-adesk-attrib $-1 -1 $506 $-1 $337 -1056964608 #
vertex $-1 -1 $-1 $337 $507 #
vertex $-1 -1 $-1 $337 $508 #
straight-curve $-1 -1 $-1 -309.82104803808033 -257.95286696469293 -83.501548590984925 1000 -6.2266376553726478e-14 0 F -0.095000000000000001 F -0.0049999999999999819 #
edge $509 -1 $-1 $423 -0.01 $419 0 $338 $510 forward @7 unknown #
coedge $-1 -1 $-1 $511 $339 $344 $427 forward $330 $-1 #
truecolor-adesk-attrib $-1 -1 $512 $-1 $340 -1056964608 #
vertex $-1 -1 $-1 $340 $513 #
straight-curve $-1 -1 $-1 -309.82104803808033 -247.95286696469293 -118.50154859098492 -1000 6.2266376553726478e-14 0 F 0 F 0.01249999999999999 #
coedge $-1 -1 $-1 $341 $514 $343 $426 forward $235 $-1 #
truecolor-adesk-attrib $-1 -1 $515 $-1 $342 -1056964608 #
vertex $-1 -1 $-1 $416 $516 #
straight-curve $-1 -1 $-1 -309.82104803808033 -257.95286696469293 -118.50154859098492 1000 -6.2266376553726478e-14 0 F -0.01249999999999999 F 0 #
coedge $-1 -1 $-1 $344 $343 $517 $518 reversed $345 $-1 #
edge $519 -1 $-1 $520 0 $348 0.0015000000000000035 $421 $521 forward @7 unknown #
edge $522 -1 $-1 $347 -0.0015000000000000035 $523 0 $417 $524 forward @7 unknown #
face $525 -1 $-1 $526 $345 $3 $-1 $527 forward single #
DXID-attrib $-1 -1 $-1 $346 $285 @18 ASM_EDGE_FROM_STEP @5 11276 #
point $-1 -1 $-1 -322.32104803808033 -247.95286696469293 -118.50154859098492 #
point $-1 -1 $-1 -322.32104803808033 -257.95286696469293 -118.50154859098492 #
coedge $-1 -1 $-1 $528 $529 $350 $433 reversed $530 $-1 #
edge $531 -1 $-1 $437 0.015074813431681338 $442 0.025074813431681341 $350 $532 forward @7 unknown #
coedge $-1 -1 $-1 $461 $351 $356 $446 reversed $330 $-1 #
coedge $-1 -1 $-1 $351 $511 $528 $533 forward $330 $-1 #
truecolor-adesk-attrib $-1 -1 $534 $-1 $352 -1056964608 #
vertex $-1 -1 $-1 $352 $535 #
straight-curve $-1 -1 $-1 -309.82104803808033 -247.95286696469293 -118.50154859098492 -1000 6.2266376553726478e-14 0 F 0.02749999999999999 F 0.072500000000000009 #
coedge $-1 -1 $-1 $514 $353 $529 $536 forward $235 $-1 #
coedge $-1 -1 $-1 $353 $455 $355 $445 reversed $235 $-1 #
truecolor-adesk-attrib $-1 -1 $537 $-1 $354 -1056964608 #
vertex $-1 -1 $-1 $433 $538 #
straight-curve $-1 -1 $-1 -309.82104803808033 -257.95286696469293 -118.50154859098492 1000 -6.2266376553726478e-14 0 F -0.072500000000000009 F -0.02749999999999999 #
coedge $-1 -1 $-1 $356 $355 $539 $540 reversed $357 $-1 #
edge $541 -1 $-1 $360 -0.0015000000000000035 $542 0 $440 $543 forward @7 unknown #
edge $544 -1 $-1 $545 0 $359 0.0015000000000000035 $434 $546 forward @7 unknown #
face $547 -1 $-1 $548 $357 $3 $-1 $549 reversed single #
DXID-attrib $-1 -1 $-1 $358 $289 @18 ASM_EDGE_FROM_STEP @5 25240 #
point $-1 -1 $-1 -382.32104803808033 -247.95286696469293 -118.50154859098492 #
point $-1 -1 $-1 -382.32104803808033 -257.95286696469293 -118.50154859098492 #
coedge $-1 -1 $-1 $550 $362 $365 $456 reversed $398 $-1 #
coedge $-1 -1 $-1 $362 $550 $369 $460 forward $398 $-1 #
truecolor-adesk-attrib $-1 -1 $551 $-1 $363 -1056964608 #
straight-curve $-1 -1 $-1 -409.82104803808033 -247.95286696469293 -118.50154859098492 -1.8369701987210297e-13 -1000 0 F 0 F 0.01 #
coedge $-1 -1 $-1 $440 $364 $552 $553 reversed $235 $-1 #
edge $554 -1 $-1 $495 0.0050000000000000157 $367 0.035000000000000003 $365 $555 forward @7 unknown #
DXID-attrib $-1 -1 $-1 $366 $292 @18 ASM_EDGE_FROM_STEP @5 10557 #
point $-1 -1 $-1 -409.82104803808033 -257.95286696469293 -118.50154859098492 #
coedge $-1 -1 $-1 $556 $369 $557 $558 forward $330 $-1 #
edge $559 -1 $-1 $560 0.0050000000000000157 $372 0.035000000000000003 $369 $561 forward @7 unknown #
coedge $-1 -1 $-1 $370 $434 $562 $563 reversed $330 $-1 #
DXID-attrib $-1 -1 $-1 $371 $294 @18 ASM_EDGE_FROM_STEP @3 454 #
point $-1 -1 $-1 -409.82104803808033 -247.95286696469293 -118.50154859098492 #
coedge $-1 -1 $-1 $562 $552 $374 $465 reversed $564 $-1 #
edge $565 -1 $-1 $467 0.015074813431681343 $470 0.025074813431681334 $374 $566 forward @7 unknown #
truecolor-adesk-attrib $-1 -1 $567 $-1 $375 -1056964608 #
vertex $-1 -1 $-1 $563 $568 #
straight-curve $-1 -1 $-1 -397.32104803808033 -247.95286696469293 -120.00154859098492 0 0 -1000 F -0.0015000000000000035 F 0 #
truecolor-adesk-attrib $-1 -1 $569 $-1 $376 -1056964608 #
vertex $-1 -1 $-1 $376 $570 #
straight-curve $-1 -1 $-1 -397.32104803808033 -257.95286696469293 -120.00154859098492 0 0 1000 F 0 F 0.0015000000000000035 #
truecolor-adesk-attrib $-1 -1 $571 $-1 $377 -1056964608 #
face $572 -1 $-1 $447 $564 $3 $-1 $573 reversed single #
plane-surface $-1 -1 $-1 -397.32104803808033 -232.87805353301158 -120.00154859098492 1 -3.0512766319047947e-16 0 3.0512766319047947e-16 1 0 forward_v I I I I #
DXID-attrib $-1 -1 $-1 $381 $303 @18 ASM_EDGE_FROM_STEP @4 3748 #
truecolor-adesk-attrib $-1 -1 $574 $-1 $383 -1056964608 #
ellipse-curve $-1 -1 $-1 -359.82104803808033 -257.95286696469293 -92.50154859098491 -1.8369701987210297e-16 -1 0 0 0 -2.4999999999999885 1 F 0 F 3.1415926535897931 #
truecolor-adesk-attrib $-1 -1 $575 $-1 $384 -1056964608 #
cone-surface $-1 -1 $-1 -359.82104803808033 -257.95286696469293 -92.50154859098491 -1.8369701987210297e-16 -1 0 0 0 -2.4999999999999929 1 I I 0 1 2.4999999999999929 forward I I I I #
DXID-attrib $-1 -1 $-1 $389 $313 @18 ASM_EDGE_FROM_STEP @5 27469 #
DXID-attrib $-1 -1 $-1 $396 $329 @18 ASM_FACE_FROM_STEP @17 step-2M-555-17312 #
truecolor-adesk-attrib $-1 -1 $576 $-1 $397 -1056964608 #
plane-surface $-1 -1 $-1 -359.82104803808033 -252.95286696469293 -83.501548590984925 0 0 1 -1.8369701987210297e-16 -1 0 forward_v I I I I #
coedge $-1 -1 $-1 $401 $400 $406 $497 forward $278 $-1 #
coedge $-1 -1 $-1 $577 $407 $400 $486 reversed $499 $-1 #
edge $578 -1 $-1 $489 -0.01 $501 0 $400 $579 forward @7 unknown #
coedge $-1 -1 $-1 $402 $556 $577 $580 forward $330 $-1 #
truecolor-adesk-attrib $-1 -1 $581 $-1 $403 -1056964608 #
vertex $-1 -1 $-1 $403 $582 #
straight-curve $-1 -1 $-1 -309.82104803808033 -247.95286696469293 -83.501548590984925 0 0 -1000 F 0.0050000000000000157 F 0.035000000000000003 #
coedge $-1 -1 $-1 $557 $404 $410 $505 reversed $493 $-1 #
coedge $-1 -1 $-1 $404 $557 $550 $583 reversed $493 $-1 #
loop $-1 -1 $-1 $-1 $557 $548 #
truecolor-adesk-attrib $-1 -1 $584 $-1 $405 -1056964608 #
vertex $-1 -1 $-1 $405 $585 #
straight-curve $-1 -1 $-1 -404.82104803808033 -257.95286696469293 -83.501548590984925 -707.10678118654573 4.4028977101054916e-14 -707.10678118654971 F -2.669157179762414e-17 F 0.0070710678118654701 #
edge $586 -1 $-1 $501 0.0050000000000000157 $423 0.035000000000000003 $406 $587 forward @7 unknown #
coedge $-1 -1 $-1 $407 $577 $409 $504 reversed $499 $-1 #
loop $-1 -1 $-1 $-1 $407 $588 #
truecolor-adesk-attrib $-1 -1 $589 $-1 $408 -1056964608 #
vertex $-1 -1 $-1 $497 $590 #
straight-curve $-1 -1 $-1 -314.82104803808033 -257.95286696469293 -83.501548590984925 -707.10678118654573 4.4028977101054916e-14 707.10678118654971 F -0.0070710678118654701 F 0 #
coedge $-1 -1 $-1 $410 $409 $556 $591 forward $411 $-1 #
edge $592 -1 $-1 $414 -0.010000000000000002 $593 -1.1102230246251566e-18 $409 $594 forward @7 unknown #
edge $595 -1 $-1 $596 -0.010000000000000002 $413 -1.1102230246251566e-18 $410 $597 forward @7 unknown #
DXID-attrib $-1 -1 $-1 $412 $337 @18 ASM_EDGE_FROM_STEP @5 27985 #
point $-1 -1 $-1 -404.82104803808033 -257.95286696469293 -83.50154859098491 #
point $-1 -1 $-1 -314.82104803808033 -257.95286696469293 -83.501548590984925 #
truecolor-adesk-attrib $-1 -1 $598 $-1 $416 -1056964608 #
straight-curve $-1 -1 $-1 -309.82104803808033 -247.95286696469293 -118.50154859098492 1.8369701987210297e-13 1000 0 F -0.01 F 0 #
coedge $-1 -1 $-1 $435 $417 $599 $600 forward $330 $-1 #
DXID-attrib $-1 -1 $-1 $418 $340 @18 ASM_EDGE_FROM_STEP @4 7294 #
point $-1 -1 $-1 -309.82104803808033 -247.95286696469293 -118.50154859098492 #
coedge $-1 -1 $-1 $421 $439 $601 $602 forward $235 $-1 #
DXID-attrib $-1 -1 $-1 $422 $342 @18 ASM_EDGE_FROM_STEP @5 35891 #
point $-1 -1 $-1 -309.82104803808033 -257.95286696469293 -118.50154859098492 #
coedge $-1 -1 $-1 $601 $599 $425 $518 forward $603 $-1 #
edge $604 -1 $-1 $523 0.015074813431681338 $520 0.025074813431681338 $425 $605 forward @7 unknown #
truecolor-adesk-attrib $-1 -1 $606 $-1 $426 -1056964608 #
vertex $-1 -1 $-1 $602 $607 #
straight-curve $-1 -1 $-1 -322.32104803808033 -257.95286696469293 -120.00154859098492 0 0 1000 F 0 F 0.0015000000000000035 #
truecolor-adesk-attrib $-1 -1 $608 $-1 $427 -1056964608 #
vertex $-1 -1 $-1 $427 $609 #
straight-curve $-1 -1 $-1 -322.32104803808033 -247.95286696469293 -120.00154859098492 0 0 -1000 F -0.0015000000000000035 F 0 #
truecolor-adesk-attrib $-1 -1 $610 $-1 $428 -1056964608 #
face $611 -1 $-1 $612 $603 $3 $-1 $613 forward single #
plane-surface $-1 -1 $-1 -322.32104803808033 -232.87805353301161 -120.00154859098492 1 -6.2266376553726447e-17 0 6.2266376553726447e-17 1 0 forward_v I I I I #
coedge $-1 -1 $-1 $614 $432 $435 $533 reversed $530 $-1 #
coedge $-1 -1 $-1 $432 $614 $439 $536 reversed $530 $-1 #
loop $-1 -1 $-1 $-1 $528 $612 #
truecolor-adesk-attrib $-1 -1 $615 $-1 $433 -1056964608 #
straight-curve $-1 -1 $-1 -337.32104803808033 -232.87805353301161 -118.50154859098492 -6.2266376553726453e-14 -1000 0 F 0.015074813431681338 F 0.025074813431681341 #
edge $616 -1 $-1 $617 0 $437 0.0015000000000000081 $435 $618 forward @7 unknown #
DXID-attrib $-1 -1 $-1 $436 $352 @18 ASM_EDGE_FROM_STEP @5 31305 #
point $-1 -1 $-1 -337.32104803808033 -247.95286696469293 -118.50154859098492 #
edge $619 -1 $-1 $442 -0.0015000000000000081 $620 0 $439 $621 forward @7 unknown #
DXID-attrib $-1 -1 $-1 $441 $354 @18 ASM_EDGE_FROM_STEP @5 17270 #
point $-1 -1 $-1 -337.32104803808033 -257.95286696469293 -118.50154859098492 #
coedge $-1 -1 $-1 $552 $562 $444 $540 forward $564 $-1 #
edge $622 -1 $-1 $545 0.015074813431681336 $542 0.025074813431681334 $539 $623 forward @7 unknown #
truecolor-adesk-attrib $-1 -1 $624 $-1 $445 -1056964608 #
vertex $-1 -1 $-1 $553 $625 #
straight-curve $-1 -1 $-1 -382.32104803808033 -257.95286696469293 -120.00154859098492 0 0 -1000 F -0.0015000000000000035 F 0 #
truecolor-adesk-attrib $-1 -1 $626 $-1 $446 -1056964608 #
vertex $-1 -1 $-1 $446 $627 #
straight-curve $-1 -1 $-1 -382.32104803808033 -247.95286696469293 -120.00154859098492 0 0 1000 F 0 F 0.0015000000000000035 #
truecolor-adesk-attrib $-1 -1 $628 $-1 $447 -1056964608 #
face $629 -1 $-1 $588 $493 $3 $-1 $630 forward single #
plane-surface $-1 -1 $-1 -382.32104803808033 -232.87805353301161 -120.00154859098492 -1 3.0512766319047947e-16 0 -3.0512766319047947e-16 -1 0 forward_v I I I I #
coedge $-1 -1 $-1 $452 $451 $492 $583 forward $398 $-1 #
DXID-attrib $-1 -1 $-1 $453 $363 @18 ASM_EDGE_FROM_STEP @4 6538 #
coedge $-1 -1 $-1 $464 $539 $455 $553 forward $564 $-1 #
edge $631 -1 $-1 $542 -0.014999999999999999 $470 0 $455 $632 forward @7 unknown #
truecolor-adesk-attrib $-1 -1 $633 $-1 $456 -1056964608 #
straight-curve $-1 -1 $-1 -409.82104803808033 -257.95286696469293 -83.501548590984925 0 0 -1000 F 0.0050000000000000157 F 0.035000000000000003 #
coedge $-1 -1 $-1 $487 $459 $503 $591 reversed $330 $-1 #
coedge $-1 -1 $-1 $492 $491 $459 $558 reversed $493 $-1 #
edge $634 -1 $-1 $560 -0.0070710678118654701 $596 2.669157179762414e-17 $459 $635 forward @7 unknown #
truecolor-adesk-attrib $-1 -1 $636 $-1 $460 -1056964608 #
vertex $-1 -1 $-1 $460 $637 #
straight-curve $-1 -1 $-1 -409.82104803808033 -247.95286696469293 -83.501548590984925 0 0 -1000 F 0.0050000000000000157 F 0.035000000000000003 #
coedge $-1 -1 $-1 $539 $464 $461 $563 forward $564 $-1 #
edge $638 -1 $-1 $467 0 $545 0.015000000000000008 $461 $639 forward @7 unknown #
loop $-1 -1 $-1 $-1 $464 $473 #
truecolor-adesk-attrib $-1 -1 $640 $-1 $465 -1056964608 #
straight-curve $-1 -1 $-1 -397.32104803808033 -232.87805353301158 -120.00154859098492 -3.0512766319047947e-13 -1000 0 F 0.015074813431681343 F 0.025074813431681334 #
DXID-attrib $-1 -1 $-1 $466 $375 @18 ASM_EDGE_FROM_STEP @5 32199 #
point $-1 -1 $-1 -397.32104803808033 -247.95286696469293 -120.00154859098492 #
DXID-attrib $-1 -1 $-1 $469 $376 @18 ASM_EDGE_FROM_STEP @5 24721 #
point $-1 -1 $-1 -397.32104803808033 -257.95286696469293 -120.00154859098492 #
DXID-attrib $-1 -1 $-1 $472 $377 @18 ASM_FACE_FROM_STEP @17 step-2M-555-19484 #
truecolor-adesk-attrib $-1 -1 $641 $-1 $473 -1056964608 #
plane-surface $-1 -1 $-1 -397.32104803808033 -232.87805353301158 -120.00154859098492 2.312964634635743e-16 -7.0574949400862537e-32 1 -1 1.8369701987210297e-16 2.3129646346357434e-16 forward_v I I I I #
DXID-attrib $-1 -1 $-1 $476 $383 @18 ASM_EDGE_FROM_STEP @5 29983 #
DXID-attrib $-1 -1 $-1 $478 $384 @18 ASM_FACE_FROM_STEP @17 step-2M-555-16788 #
DXID-attrib $-1 -1 $-1 $482 $397 @18 ASM_FACE_FROM_STEP @17 step-2M-555-24387 #
coedge $-1 -1 $-1 $498 $485 $487 $580 reversed $499 $-1 #
truecolor-adesk-attrib $-1 -1 $642 $-1 $486 -1056964608 #
straight-curve $-1 -1 $-1 -309.82104803808033 -257.95286696469293 -88.501548590984939 -1.8369701987210297e-13 -1000 0 F -0.01 F 0 #
edge $643 -1 $-1 $593 0 $489 0.0070710678118654701 $487 $644 forward @7 unknown #
DXID-attrib $-1 -1 $-1 $488 $403 @18 ASM_EDGE_FROM_STEP @5 35392 #
point $-1 -1 $-1 -309.82104803808033 -247.95286696469293 -88.501548590984939 #
edge $645 -1 $-1 $495 -0.01 $560 0 $550 $646 forward @7 unknown #
DXID-attrib $-1 -1 $-1 $494 $405 @18 ASM_EDGE_FROM_STEP @5 19991 #
point $-1 -1 $-1 -409.82104803808033 -257.95286696469293 -88.501548590984939 #
truecolor-adesk-attrib $-1 -1 $647 $-1 $497 -1056964608 #
straight-curve $-1 -1 $-1 -309.82104803808033 -257.95286696469293 -83.501548590984925 0 0 -1000 F 0.0050000000000000157 F 0.035000000000000003 #
face $648 -1 $-1 $384 $499 $3 $-1 $649 forward single #
DXID-attrib $-1 -1 $-1 $500 $408 @18 ASM_EDGE_FROM_STEP @5 37404 #
point $-1 -1 $-1 -309.82104803808033 -257.95286696469293 -88.501548590984939 #
edge $650 -1 $-1 $593 0.0049999999999999819 $596 0.095000000000000001 $556 $651 forward @7 unknown #
truecolor-adesk-attrib $-1 -1 $652 $-1 $504 -1056964608 #
vertex $-1 -1 $-1 $591 $653 #
straight-curve $-1 -1 $-1 -314.82104803808033 -247.95286696469293 -83.501548590984925 1.8369701987210297e-13 1000 0 F -0.010000000000000002 F -1.1102230246251566e-18 #
truecolor-adesk-attrib $-1 -1 $654 $-1 $505 -1056964608 #
vertex $-1 -1 $-1 $558 $655 #
straight-curve $-1 -1 $-1 -404.82104803808033 -257.95286696469293 -83.501548590984925 -1.8369701987210297e-13 -1000 0 F -0.010000000000000002 F -1.1102230246251566e-18 #
DXID-attrib $-1 -1 $-1 $509 $416 @18 ASM_EDGE_FROM_STEP @4 1239 #
coedge $-1 -1 $-1 $517 $656 $511 $600 reversed $603 $-1 #
edge $657 -1 $-1 $523 0 $617 0.014999999999999999 $511 $658 forward @7 unknown #
coedge $-1 -1 $-1 $656 $517 $514 $602 reversed $603 $-1 #
edge $659 -1 $-1 $620 -0.014999999999999999 $520 0 $514 $660 forward @7 unknown #
loop $-1 -1 $-1 $-1 $599 $526 #
truecolor-adesk-attrib $-1 -1 $661 $-1 $518 -1056964608 #
straight-curve $-1 -1 $-1 -322.32104803808033 -232.87805353301161 -120.00154859098492 -6.2266376553726453e-14 -1000 0 F 0.015074813431681338 F 0.025074813431681338 #
DXID-attrib $-1 -1 $-1 $519 $426 @18 ASM_EDGE_FROM_STEP @5 10774 #
point $-1 -1 $-1 -322.32104803808033 -257.95286696469293 -120.00154859098492 #
DXID-attrib $-1 -1 $-1 $522 $427 @18 ASM_EDGE_FROM_STEP @4 5495 #
point $-1 -1 $-1 -322.32104803808033 -247.95286696469293 -120.00154859098492 #
DXID-attrib $-1 -1 $-1 $525 $428 @18 ASM_FACE_FROM_STEP @17 step-2M-555-13010 #
truecolor-adesk-attrib $-1 -1 $662 $-1 $526 -1056964608 #
face $663 -1 $-1 $377 $530 $3 $-1 $664 forward single #
plane-surface $-1 -1 $-1 -322.32104803808033 -232.87805353301161 -120.00154859098492 2.312964634635743e-16 -1.4401992689568149e-32 -1 1 -1.8369701987210297e-16 2.3129646346357434e-16 forward_v I I I I #
coedge $-1 -1 $-1 $529 $528 $656 $665 forward $530 $-1 #
DXID-attrib $-1 -1 $-1 $531 $433 @18 ASM_EDGE_FROM_STEP @5 19274 #
truecolor-adesk-attrib $-1 -1 $666 $-1 $533 -1056964608 #
vertex $-1 -1 $-1 $600 $667 #
straight-curve $-1 -1 $-1 -337.32104803808033 -247.95286696469293 -120.00154859098492 0 0 1000 F 0 F 0.0015000000000000081 #
truecolor-adesk-attrib $-1 -1 $668 $-1 $536 -1056964608 #
vertex $-1 -1 $-1 $536 $669 #
straight-curve $-1 -1 $-1 -337.32104803808033 -257.95286696469293 -120.00154859098492 0 0 -1000 F -0.0015000000000000081 F 0 #
truecolor-adesk-attrib $-1 -1 $670 $-1 $540 -1056964608 #
straight-curve $-1 -1 $-1 -382.32104803808033 -232.87805353301161 -120.00154859098492 -3.0512766319047947e-13 -1000 0 F 0.015074813431681336 F 0.025074813431681334 #
DXID-attrib $-1 -1 $-1 $541 $445 @18 ASM_EDGE_FROM_STEP @5 19786 #
point $-1 -1 $-1 -382.32104803808033 -257.95286696469293 -120.00154859098492 #
DXID-attrib $-1 -1 $-1 $544 $446 @18 ASM_EDGE_FROM_STEP @5 36127 #
point $-1 -1 $-1 -382.32104803808033 -247.95286696469293 -120.00154859098492 #
DXID-attrib $-1 -1 $-1 $547 $447 @18 ASM_FACE_FROM_STEP @17 step-2M-555-18090 #
truecolor-adesk-attrib $-1 -1 $671 $-1 $548 -1056964608 #
plane-surface $-1 -1 $-1 -404.82104803808033 -252.95286696469293 -83.501548590984925 -0.70710678118654957 1.2989340843532435e-16 0.70710678118654557 1.8369701987210297e-16 1 0 forward_v I I I I #
truecolor-adesk-attrib $-1 -1 $672 $-1 $553 -1056964608 #
straight-curve $-1 -1 $-1 -397.32104803808033 -257.95286696469293 -120.00154859098492 -1000 2.9934525160389015e-13 2.3129646346357435e-13 F -0.014999999999999999 F 0 #
DXID-attrib $-1 -1 $-1 $554 $456 @18 ASM_EDGE_FROM_STEP @5 18012 #
truecolor-adesk-attrib $-1 -1 $673 $-1 $558 -1056964608 #
straight-curve $-1 -1 $-1 -404.82104803808033 -247.95286696469293 -83.501548590984925 707.10678118654573 -4.4028977101054916e-14 707.10678118654971 F -0.0070710678118654701 F 2.669157179762414e-17 #
DXID-attrib $-1 -1 $-1 $559 $460 @18 ASM_EDGE_FROM_STEP @5 21459 #
point $-1 -1 $-1 -409.82104803808033 -247.95286696469293 -88.501548590984939 #
truecolor-adesk-attrib $-1 -1 $674 $-1 $563 -1056964608 #
straight-curve $-1 -1 $-1 -397.32104803808033 -247.95286696469293 -120.00154859098492 1000 -6.2266376553726478e-14 -2.3129646346357435e-13 F 0 F 0.015000000000000008 #
DXID-attrib $-1 -1 $-1 $565 $465 @18 ASM_EDGE_FROM_STEP @4 8234 #
DXID-attrib $-1 -1 $-1 $572 $473 @18 ASM_FACE_FROM_STEP @17 step-2M-555-14603 #
DXID-attrib $-1 -1 $-1 $578 $486 @18 ASM_EDGE_FROM_STEP @5 29467 #
truecolor-adesk-attrib $-1 -1 $675 $-1 $580 -1056964608 #
straight-curve $-1 -1 $-1 -314.82104803808033 -247.95286696469293 -83.501548590984925 707.10678118654573 -4.4028977101054916e-14 -707.10678118654971 F 0 F 0.0070710678118654701 #
truecolor-adesk-attrib $-1 -1 $676 $-1 $583 -1056964608 #
straight-curve $-1 -1 $-1 -409.82104803808033 -247.95286696469293 -88.501548590984939 1.8369701987210297e-13 1000 0 F -0.01 F 0 #
DXID-attrib $-1 -1 $-1 $586 $497 @18 ASM_EDGE_FROM_STEP @4 4747 #
truecolor-adesk-attrib $-1 -1 $677 $-1 $588 -1056964608 #
plane-surface $-1 -1 $-1 -314.82104803808033 -252.95286696469293 -83.501548590984925 0.70710678118654957 -1.2989340843532435e-16 0.70710678118654557 -1.8369701987210297e-16 -1 0 forward_v I I I I #
truecolor-adesk-attrib $-1 -1 $678 $-1 $591 -1056964608 #
straight-curve $-1 -1 $-1 -309.82104803808033 -247.95286696469293 -83.501548590984925 -1000 6.2266376553726478e-14 0 F 0.0049999999999999819 F 0.095000000000000001 #
DXID-attrib $-1 -1 $-1 $592 $504 @18 ASM_EDGE_FROM_STEP @5 16271 #
point $-1 -1 $-1 -314.82104803808033 -247.95286696469293 -83.501548590984925 #
DXID-attrib $-1 -1 $-1 $595 $505 @18 ASM_EDGE_FROM_STEP @5 20224 #
point $-1 -1 $-1 -404.82104803808033 -247.95286696469293 -83.50154859098491 #
coedge $-1 -1 $-1 $599 $601 $614 $665 reversed $603 $-1 #
truecolor-adesk-attrib $-1 -1 $679 $-1 $600 -1056964608 #
straight-curve $-1 -1 $-1 -322.32104803808033 -247.95286696469293 -120.00154859098492 -1000 6.2266376553726478e-14 -2.3129646346357435e-13 F 0 F 0.014999999999999999 #
truecolor-adesk-attrib $-1 -1 $680 $-1 $602 -1056964608 #
straight-curve $-1 -1 $-1 -322.32104803808033 -257.95286696469293 -120.00154859098492 1000 -6.8048788140315801e-14 2.3129646346357435e-13 F -0.014999999999999999 F 0 #
DXID-attrib $-1 -1 $-1 $604 $518 @18 ASM_EDGE_FROM_STEP @5 14274 #
DXID-attrib $-1 -1 $-1 $611 $526 @18 ASM_FACE_FROM_STEP @17 step-2M-555-34324 #
truecolor-adesk-attrib $-1 -1 $681 $-1 $612 -1056964608 #
plane-surface $-1 -1 $-1 -337.32104803808033 -232.87805353301161 -120.00154859098492 -1 6.2266376553726447e-17 0 -6.2266376553726447e-17 -1 0 forward_v I I I I #
edge $682 -1 $-1 $617 0.015074813431681336 $620 0.025074813431681341 $656 $683 forward @7 unknown #
DXID-attrib $-1 -1 $-1 $616 $533 @18 ASM_EDGE_FROM_STEP @4 1480 #
point $-1 -1 $-1 -337.32104803808033 -247.95286696469293 -120.00154859098492 #
DXID-attrib $-1 -1 $-1 $619 $536 @18 ASM_EDGE_FROM_STEP @5 16046 #
point $-1 -1 $-1 -337.32104803808033 -257.95286696469293 -120.00154859098492 #
DXID-attrib $-1 -1 $-1 $622 $540 @18 ASM_EDGE_FROM_STEP @4 4226 #
DXID-attrib $-1 -1 $-1 $629 $548 @18 ASM_FACE_FROM_STEP @17 step-2M-555-15827 #
DXID-attrib $-1 -1 $-1 $631 $553 @18 ASM_EDGE_FROM_STEP @5 23732 #
DXID-attrib $-1 -1 $-1 $634 $558 @18 ASM_EDGE_FROM_STEP @5 17500 #
DXID-attrib $-1 -1 $-1 $638 $563 @18 ASM_EDGE_FROM_STEP @5 34175 #
DXID-attrib $-1 -1 $-1 $643 $580 @18 ASM_EDGE_FROM_STEP @5 11515 #
DXID-attrib $-1 -1 $-1 $645 $583 @18 ASM_EDGE_FROM_STEP @5 22203 #
DXID-attrib $-1 -1 $-1 $648 $588 @18 ASM_FACE_FROM_STEP @17 step-2M-555-31167 #
DXID-attrib $-1 -1 $-1 $650 $591 @18 ASM_EDGE_FROM_STEP @5 15523 #
DXID-attrib $-1 -1 $-1 $657 $600 @18 ASM_EDGE_FROM_STEP @4 3483 #
DXID-attrib $-1 -1 $-1 $659 $602 @18 ASM_EDGE_FROM_STEP @4 8008 #
DXID-attrib $-1 -1 $-1 $663 $612 @18 ASM_FACE_FROM_STEP @17 step-2M-555-25571 #
truecolor-adesk-attrib $-1 -1 $684 $-1 $665 -1056964608 #
straight-curve $-1 -1 $-1 -337.32104803808033 -232.87805353301161 -120.00154859098492 -6.2266376553726453e-14 -1000 0 F 0.015074813431681336 F 0.025074813431681341 #
DXID-attrib $-1 -1 $-1 $682 $665 @18 ASM_EDGE_FROM_STEP @5 10261 #
