700 422 1 0         
5 ZWCAD 12 ACIS 28.0 NT 24 Mon May 13 16:15:42 2024 
1 9.9999999999999995e-07 1e-10 
body $1 -1 $-1 $2 $-1 $-1 #
DXID-attrib $-1 -1 $-1 $-1 $0 @18 ASM_BODY_FROM_STEP @83 2415F01D19EAB5566CFA1B7EFDDD3FBD42DC6BDA|:|C3217815505396D37B4FFA6A288CA0B80160386B #
lump $-1 -1 $-1 $-1 $3 $0 #
shell $-1 -1 $-1 $-1 $-1 $4 $-1 $2 #
face $5 -1 $-1 $6 $7 $3 $-1 $8 forward single #
truecolor-adesk-attrib $-1 -1 $9 $-1 $4 -1026895378 #
face $10 -1 $-1 $11 $12 $3 $-1 $13 reversed single #
loop $-1 -1 $-1 $-1 $14 $4 #
torus-surface $-1 -1 $-1 14.563780533947945 11.044590992476358 18.500000000000028 -5.5952877820716801e-18 1.7096105029124321e-16 -1 9.5 0.5 0.66852003894876411 -0.74369412901000032 -1.3088329139698107e-16 forward_v I I I I #
color-adesk-attrib $-1 -1 $15 $5 $4 254 #
truecolor-adesk-attrib $-1 -1 $16 $-1 $6 -1026895378 #
face $17 -1 $-1 $18 $19 $3 $-1 $20 forward single #
loop $-1 -1 $-1 $-1 $21 $6 #
torus-surface $-1 -1 $-1 14.563780533947945 11.044590992476358 27.500000000000028 -5.5952877820716801e-18 1.7096105029124321e-16 -1 10.5 0.5 0.66852003894876411 -0.74369412901000032 -1.3088329139698107e-16 forward_v I I I I #
coedge $-1 -1 $-1 $22 $23 $24 $25 reversed $7 $-1 #
DXID-attrib $-1 -1 $-1 $9 $4 @18 ASM_FACE_FROM_STEP @17 step-4M-565-10419 #
color-adesk-attrib $-1 -1 $26 $10 $6 254 #
truecolor-adesk-attrib $-1 -1 $27 $-1 $11 -1031765888 #
face $28 -1 $-1 $29 $30 $3 $-1 $31 forward single #
loop $-1 -1 $-1 $-1 $32 $11 #
torus-surface $-1 -1 $-1 14.563780533947945 11.044590992476358 31.500000000000028 -5.5952877820716801e-18 1.7096105029124321e-16 -1 11.500000000000002 0.5 0.66852003894876411 -0.74369412901000032 -1.3088329139698107e-16 forward_v I I I I #
coedge $-1 -1 $-1 $33 $34 $35 $36 reversed $12 $-1 #
coedge $-1 -1 $-1 $37 $14 $38 $39 forward $7 $-1 #
coedge $-1 -1 $-1 $14 $37 $40 $41 reversed $7 $-1 #
coedge $-1 -1 $-1 $42 $43 $14 $25 forward $44 $-1 #
edge $45 -1 $-1 $46 -3.1415926535897931 $47 -1.2246467991473532e-16 $14 $48 forward @7 unknown #
DXID-attrib $-1 -1 $-1 $16 $6 @18 ASM_FACE_FROM_STEP @17 step-4M-565-40916 #
DXID-attrib $-1 -1 $-1 $17 $11 @18 ASM_FACE_FROM_STEP @16 step-4M-565-7692 #
truecolor-adesk-attrib $-1 -1 $49 $-1 $18 -1031765888 #
face $50 -1 $-1 $51 $52 $3 $-1 $53 forward single #
loop $-1 -1 $-1 $-1 $54 $18 #
torus-surface $-1 -1 $-1 14.563780533947945 11.044590992476358 28.500000000000028 -5.5952877820716801e-18 1.7096105029124321e-16 -1 11.500000000000002 0.5 0.66852003894876411 -0.74369412901000032 -1.3088329139698107e-16 forward_v I I I I #
coedge $-1 -1 $-1 $55 $56 $57 $58 reversed $19 $-1 #
coedge $-1 -1 $-1 $59 $21 $60 $61 forward $12 $-1 #
coedge $-1 -1 $-1 $21 $59 $62 $63 reversed $12 $-1 #
coedge $-1 -1 $-1 $64 $65 $21 $36 forward $66 $-1 #
edge $67 -1 $-1 $68 -3.1415926535897931 $69 1.2246467991473532e-16 $21 $70 forward @7 unknown #
coedge $-1 -1 $-1 $23 $22 $71 $72 reversed $7 $-1 #
coedge $-1 -1 $-1 $73 $74 $22 $39 reversed $75 $-1 #
edge $76 -1 $-1 $46 0 $77 1.5707963267948966 $22 $78 forward @7 unknown #
coedge $-1 -1 $-1 $74 $73 $23 $41 forward $75 $-1 #
edge $79 -1 $-1 $47 1.5707963267948966 $80 3.1415926535897931 $23 $81 forward @7 unknown #
coedge $-1 -1 $-1 $82 $24 $64 $83 forward $44 $-1 #
coedge $-1 -1 $-1 $24 $82 $65 $84 reversed $44 $-1 #
loop $-1 -1 $-1 $-1 $24 $85 #
truecolor-adesk-attrib $-1 -1 $86 $-1 $25 -1026895378 #
vertex $-1 -1 $-1 $25 $87 #
vertex $-1 -1 $-1 $25 $88 #
ellipse-curve $-1 -1 $-1 14.563780533947945 11.044590992476358 18.500000000000028 5.5952877820716801e-18 -1.7096105029124321e-16 1 6.6852003894876413 -7.4369412901000036 -1.3088329139698106e-15 1 F -3.1415926535897931 F -1.2246467991473532e-16 #
DXID-attrib $-1 -1 $-1 $28 $18 @18 ASM_FACE_FROM_STEP @17 step-4M-565-16008 #
truecolor-adesk-attrib $-1 -1 $89 $-1 $29 -1031765888 #
face $90 -1 $-1 $91 $92 $3 $-1 $93 forward single #
loop $-1 -1 $-1 $-1 $94 $29 #
torus-surface $-1 -1 $-1 14.563780533947945 11.044590992476358 31.500000000000028 -5.5952877820716801e-18 1.7096105029124321e-16 -1 3.8999999999999977 0.5 0.66852003894876411 -0.74369412901000032 -1.3088329139698107e-16 forward_v I I I I #
coedge $-1 -1 $-1 $95 $96 $97 $98 reversed $30 $-1 #
coedge $-1 -1 $-1 $99 $32 $100 $101 forward $19 $-1 #
coedge $-1 -1 $-1 $32 $99 $102 $103 reversed $19 $-1 #
coedge $-1 -1 $-1 $104 $104 $32 $58 forward $105 $-1 #
edge $106 -1 $-1 $107 -3.1415926535897931 $108 0 $32 $109 forward @7 unknown #
coedge $-1 -1 $-1 $34 $33 $110 $111 reversed $12 $-1 #
coedge $-1 -1 $-1 $112 $113 $33 $61 reversed $114 $-1 #
edge $115 -1 $-1 $68 -3.1415926535897931 $116 -1.5707963267948966 $33 $117 forward @7 unknown #
coedge $-1 -1 $-1 $113 $112 $34 $63 forward $114 $-1 #
edge $118 -1 $-1 $69 -1.5707963267948966 $119 0 $34 $120 forward @7 unknown #
coedge $-1 -1 $-1 $121 $35 $42 $83 reversed $66 $-1 #
coedge $-1 -1 $-1 $35 $121 $43 $84 forward $66 $-1 #
loop $-1 -1 $-1 $-1 $64 $122 #
truecolor-adesk-attrib $-1 -1 $123 $-1 $36 -1026895378 #
vertex $-1 -1 $-1 $36 $124 #
vertex $-1 -1 $-1 $36 $125 #
ellipse-curve $-1 -1 $-1 14.563780533947945 11.044590992476358 27.500000000000028 -5.5952877820716801e-18 1.7096105029124321e-16 -1 6.6852003894876413 -7.4369412901000036 -1.3088329139698106e-15 1 F -3.1415926535897931 F 1.2246467991473532e-16 #
coedge $-1 -1 $-1 $126 $126 $37 $72 forward $127 $-1 #
edge $128 -1 $-1 $80 0 $77 3.1415926535897931 $37 $129 forward @7 unknown #
coedge $-1 -1 $-1 $40 $38 $121 $130 reversed $75 $-1 #
coedge $-1 -1 $-1 $38 $40 $126 $131 reversed $75 $-1 #
loop $-1 -1 $-1 $-1 $38 $132 #
truecolor-adesk-attrib $-1 -1 $133 $-1 $39 -1026895378 #
vertex $-1 -1 $-1 $39 $134 #
ellipse-curve $-1 -1 $-1 8.2128401639346862 18.109685218071363 18.500000000000028 -0.7436941290100002 -0.66852003894876422 -1.1012970532577544e-16 -0.33426001947438239 0.37184706450500044 6.5441645698490587e-17 1 F 0 F 1.5707963267948966 #
truecolor-adesk-attrib $-1 -1 $135 $-1 $41 -1026895378 #
vertex $-1 -1 $-1 $72 $136 #
ellipse-curve $-1 -1 $-1 20.914720903961204 3.9794967668813541 18.500000000000028 0.74369412901000032 0.66852003894876411 1.1012970532577543e-16 2.7976438910358424e-18 -8.5480525145621679e-17 0.50000000000000044 1 F 1.5707963267948966 F 3.1415926535897931 #
coedge $-1 -1 $-1 $43 $42 $112 $137 forward $44 $-1 #
edge $138 -1 $-1 $47 0.00049999999999999936 $69 0.0094999999999999998 $42 $139 forward @7 unknown #
edge $140 -1 $-1 $46 0.00049999999999999936 $68 0.0094999999999999998 $43 $141 forward @7 unknown #
face $142 -1 $-1 $122 $44 $3 $-1 $143 forward single #
color-adesk-attrib $-1 -1 $144 $45 $25 254 #
point $-1 -1 $-1 7.8785801444603045 18.481532282576367 18.500000000000028 #
point $-1 -1 $-1 21.248980923435585 3.6076497023763494 18.500000000000028 #
DXID-attrib $-1 -1 $-1 $50 $29 @18 ASM_FACE_FROM_STEP @17 step-4M-565-47618 #
truecolor-adesk-attrib $-1 -1 $145 $-1 $51 -1031765888 #
face $146 -1 $-1 $147 $148 $3 $-1 $149 reversed single #
loop $-1 -1 $-1 $-1 $150 $51 #
torus-surface $-1 -1 $-1 14.563780533947945 11.044590992476358 18.500000000000028 -5.5952877820716801e-18 1.7096105029124321e-16 -1 3.8999999999999977 0.5 0.66852003894876411 -0.74369412901000032 -1.3088329139698107e-16 forward_v I I I I #
coedge $-1 -1 $-1 $151 $152 $153 $154 reversed $52 $-1 #
coedge $-1 -1 $-1 $155 $54 $156 $157 forward $30 $-1 #
coedge $-1 -1 $-1 $54 $155 $158 $159 reversed $30 $-1 #
coedge $-1 -1 $-1 $160 $161 $54 $98 forward $162 $-1 #
edge $163 -1 $-1 $164 -3.1415926535897931 $165 0 $54 $166 forward @7 unknown #
coedge $-1 -1 $-1 $56 $55 $167 $168 reversed $19 $-1 #
coedge $-1 -1 $-1 $169 $170 $55 $101 reversed $171 $-1 #
edge $172 -1 $-1 $107 -1.5707963267948966 $173 0 $55 $174 forward @7 unknown #
coedge $-1 -1 $-1 $170 $169 $56 $103 forward $171 $-1 #
edge $175 -1 $-1 $108 0 $176 1.5707963267948966 $56 $177 forward @7 unknown #
coedge $-1 -1 $-1 $57 $57 $169 $178 forward $105 $-1 #
loop $-1 -1 $-1 $179 $104 $180 #
truecolor-adesk-attrib $-1 -1 $181 $-1 $58 -1031765888 #
vertex $-1 -1 $-1 $58 $182 #
vertex $-1 -1 $-1 $58 $183 #
ellipse-curve $-1 -1 $-1 14.563780533947945 11.044590992476358 32.000000000000028 5.5952877820716801e-18 -1.7096105029124321e-16 1 7.6879804479107881 -8.5524824836150053 -1.5051578510652827e-15 1 F -3.1415926535897931 F 0 #
coedge $-1 -1 $-1 $184 $184 $59 $111 forward $185 $-1 #
edge $186 -1 $-1 $119 0 $116 3.1415926535897931 $59 $187 forward @7 unknown #
coedge $-1 -1 $-1 $62 $60 $82 $137 reversed $114 $-1 #
coedge $-1 -1 $-1 $60 $62 $184 $188 reversed $114 $-1 #
loop $-1 -1 $-1 $-1 $60 $189 #
truecolor-adesk-attrib $-1 -1 $190 $-1 $61 -1026895378 #
vertex $-1 -1 $-1 $61 $191 #
ellipse-curve $-1 -1 $-1 7.5443201249859211 18.853379347081358 27.500000000000028 -0.7436941290100002 -0.66852003894876422 -1.1012970532577544e-16 -0.33426001947438239 0.37184706450500044 6.5441645698490587e-17 1 F -3.1415926535897931 F -1.5707963267948966 #
truecolor-adesk-attrib $-1 -1 $192 $-1 $63 -1026895378 #
vertex $-1 -1 $-1 $111 $193 #
ellipse-curve $-1 -1 $-1 21.583240942909967 3.2358026378713589 27.500000000000028 0.74369412901000032 0.66852003894876411 1.1012970532577543e-16 2.7976438910358401e-18 -8.5480525145621605e-17 0.5 1 F -1.5707963267948966 F 0 #
coedge $-1 -1 $-1 $65 $64 $73 $130 forward $66 $-1 #
face $194 -1 $-1 $195 $66 $3 $-1 $196 forward single #
color-adesk-attrib $-1 -1 $197 $67 $36 254 #
point $-1 -1 $-1 7.8785801444603045 18.481532282576367 27.500000000000028 #
point $-1 -1 $-1 21.248980923435585 3.6076497023763494 27.500000000000028 #
coedge $-1 -1 $-1 $71 $71 $74 $131 forward $127 $-1 #
loop $-1 -1 $-1 $198 $71 $195 #
truecolor-adesk-attrib $-1 -1 $199 $-1 $72 -1026895378 #
ellipse-curve $-1 -1 $-1 14.563780533947945 11.044590992476358 18.000000000000028 -5.5952877820716801e-18 1.7096105029124321e-16 -1 6.3509403700132587 -7.0650942255950033 -1.2433912682713202e-15 1 F 0 F 3.1415926535897931 #
edge $200 -1 $-1 $47 -1.2246467991473532e-16 $46 3.1415926535897931 $121 $201 forward @7 unknown #
edge $202 -1 $-1 $77 -3.1415926535897931 $80 0 $126 $203 forward @7 unknown #
face $204 -1 $-1 $-1 $75 $3 $-1 $205 forward single #
color-adesk-attrib $-1 -1 $206 $76 $39 254 #
point $-1 -1 $-1 8.2128401639346862 18.109685218071363 18.000000000000028 #
color-adesk-attrib $-1 -1 $207 $79 $41 254 #
point $-1 -1 $-1 20.914720903961204 3.9794967668813541 18.000000000000028 #
edge $208 -1 $-1 $69 1.2246467991473532e-16 $68 3.1415926535897931 $82 $209 forward @7 unknown #
truecolor-adesk-attrib $-1 -1 $210 $-1 $83 -1031765888 #
straight-curve $-1 -1 $-1 21.248980923435585 3.6076497023763494 18.000000000000028 5.5952877820716803e-15 -1.7096105029124322e-13 1000 F 0.00049999999999999936 F 0.0094999999999999998 #
truecolor-adesk-attrib $-1 -1 $211 $-1 $84 -1031765888 #
straight-curve $-1 -1 $-1 7.8785801444603045 18.481532282576367 18.000000000000028 5.5952877820716803e-15 -1.7096105029124322e-13 1000 F 0.00049999999999999936 F 0.0094999999999999998 #
truecolor-adesk-attrib $-1 -1 $212 $-1 $85 -1031765888 #
cone-surface $-1 -1 $-1 14.563780533947945 11.044590992476358 18.000000000000028 5.5952877820716801e-18 -1.7096105029124321e-16 1 -6.6852003894876413 7.4369412901000036 1.3088329139698106e-15 1 I I 0 1 10 forward I I I I #
DXID-attrib $-1 -1 $-1 $86 $25 @18 ASM_EDGE_FROM_STEP @5 25436 #
DXID-attrib $-1 -1 $-1 $90 $51 @18 ASM_FACE_FROM_STEP @17 step-4M-565-43427 #
truecolor-adesk-attrib $-1 -1 $213 $-1 $91 -1031765888 #
face $214 -1 $-1 $85 $162 $3 $-1 $215 forward single #
loop $-1 -1 $-1 $-1 $216 $91 #
cone-surface $-1 -1 $-1 14.563780533947945 11.044590992476358 18.000000000000028 -5.5952877820716801e-18 1.7096105029124321e-16 -1 2.2729681324257967 -2.5285600386339997 -4.4500319074973543e-16 1 I I 0 1 3.3999999999999981 forward I I I I #
coedge $-1 -1 $-1 $217 $218 $219 $220 reversed $92 $-1 #
coedge $-1 -1 $-1 $221 $94 $222 $223 forward $52 $-1 #
coedge $-1 -1 $-1 $94 $221 $224 $225 reversed $52 $-1 #
coedge $-1 -1 $-1 $226 $227 $94 $154 forward $228 $-1 #
edge $229 -1 $-1 $230 -3.1415926535897931 $231 0 $94 $232 forward @7 unknown #
coedge $-1 -1 $-1 $96 $95 $233 $234 reversed $30 $-1 #
coedge $-1 -1 $-1 $235 $236 $95 $157 reversed $237 $-1 #
edge $238 -1 $-1 $164 0 $239 1.5707963267948966 $95 $240 forward @7 unknown #
coedge $-1 -1 $-1 $236 $235 $96 $159 forward $237 $-1 #
edge $241 -1 $-1 $165 1.5707963267948966 $242 3.1415926535897931 $96 $243 forward @7 unknown #
coedge $-1 -1 $-1 $167 $97 $244 $245 reversed $162 $-1 #
coedge $-1 -1 $-1 $97 $167 $246 $247 forward $162 $-1 #
loop $-1 -1 $-1 $-1 $167 $147 #
truecolor-adesk-attrib $-1 -1 $248 $-1 $98 -1031765888 #
vertex $-1 -1 $-1 $98 $249 #
vertex $-1 -1 $-1 $98 $250 #
ellipse-curve $-1 -1 $-1 14.563780533947945 11.044590992476358 28.500000000000028 5.5952877820716801e-18 -1.7096105029124321e-16 1 8.0222404673851688 -8.9243295481200029 -1.5705994967637729e-15 1 F -3.1415926535897931 F 0 #
coedge $-1 -1 $-1 $161 $160 $99 $168 forward $162 $-1 #
edge $251 -1 $-1 $176 0 $173 3.1415926535897931 $99 $252 forward @7 unknown #
coedge $-1 -1 $-1 $102 $100 $104 $178 reversed $171 $-1 #
coedge $-1 -1 $-1 $100 $102 $253 $254 reversed $171 $-1 #
loop $-1 -1 $-1 $-1 $100 $255 #
truecolor-adesk-attrib $-1 -1 $256 $-1 $101 -1031765888 #
vertex $-1 -1 $-1 $101 $257 #
ellipse-curve $-1 -1 $-1 6.875800086037156 19.597073476091367 31.500000000000028 -0.7436941290100002 -0.66852003894876422 -1.1012970532577544e-16 -0.33426001947438239 0.37184706450500044 6.5441645698490587e-17 1 F -1.5707963267948966 F 0 #
truecolor-adesk-attrib $-1 -1 $258 $-1 $103 -1031765888 #
vertex $-1 -1 $-1 $168 $259 #
ellipse-curve $-1 -1 $-1 22.251760981858734 2.4921085088613495 31.500000000000028 0.74369412901000032 0.66852003894876411 1.1012970532577543e-16 2.7976438910358401e-18 -8.5480525145621605e-17 0.5 1 F 0 F 1.5707963267948966 #
edge $260 -1 $-1 $108 0 $107 3.1415926535897931 $104 $261 forward @7 unknown #
loop $-1 -1 $-1 $-1 $262 $180 #
face $263 -1 $-1 $264 $105 $3 $-1 $265 reversed single #
DXID-attrib $-1 -1 $-1 $106 $58 @18 ASM_EDGE_FROM_STEP @5 28270 #
point $-1 -1 $-1 6.875800086037156 19.597073476091367 32.000000000000028 #
point $-1 -1 $-1 22.251760981858734 2.4921085088613495 32.000000000000028 #
coedge $-1 -1 $-1 $110 $110 $113 $188 forward $185 $-1 #
loop $-1 -1 $-1 $-1 $110 $264 #
truecolor-adesk-attrib $-1 -1 $266 $-1 $111 -1026895378 #
ellipse-curve $-1 -1 $-1 14.563780533947945 11.044590992476358 28.000000000000028 5.5952877820716801e-18 -1.7096105029124321e-16 1 7.0194604089620229 -7.808788354605003 -1.3742745596683013e-15 1 F 0 F 3.1415926535897931 #
edge $267 -1 $-1 $116 -3.1415926535897931 $119 0 $184 $268 forward @7 unknown #
face $269 -1 $-1 $132 $114 $3 $-1 $270 reversed single #
color-adesk-attrib $-1 -1 $271 $115 $61 254 #
point $-1 -1 $-1 7.5443201249859211 18.853379347081358 28.000000000000028 #
color-adesk-attrib $-1 -1 $272 $118 $63 254 #
point $-1 -1 $-1 21.583240942909967 3.2358026378713589 28.000000000000028 #
truecolor-adesk-attrib $-1 -1 $273 $-1 $122 -1031765888 #
face $274 -1 $-1 $275 $127 $3 $-1 $276 forward single #
cone-surface $-1 -1 $-1 14.563780533947945 11.044590992476358 18.000000000000028 5.5952877820716801e-18 -1.7096105029124321e-16 1 -6.6852003894876413 7.4369412901000036 1.3088329139698106e-15 1 I I 0 1 10 forward I I I I #
DXID-attrib $-1 -1 $-1 $123 $36 @18 ASM_EDGE_FROM_STEP @5 27614 #
loop $-1 -1 $-1 $-1 $277 $195 #
color-adesk-attrib $-1 -1 $278 $128 $72 254 #
truecolor-adesk-attrib $-1 -1 $279 $-1 $130 -1031765888 #
ellipse-curve $-1 -1 $-1 14.563780533947945 11.044590992476358 18.500000000000028 5.5952877820716801e-18 -1.7096105029124321e-16 1 6.6852003894876413 -7.4369412901000036 -1.3088329139698106e-15 1 F -1.2246467991473532e-16 F 3.1415926535897931 #
truecolor-adesk-attrib $-1 -1 $280 $-1 $131 -1031765888 #
ellipse-curve $-1 -1 $-1 14.563780533947945 11.044590992476358 18.000000000000028 -5.5952877820716801e-18 1.7096105029124321e-16 -1 6.3509403700132587 -7.0650942255950033 -1.2433912682713202e-15 1 F -3.1415926535897931 F 0 #
truecolor-adesk-attrib $-1 -1 $281 $-1 $132 -1031765888 #
torus-surface $-1 -1 $-1 14.563780533947945 11.044590992476358 18.500000000000028 -5.5952877820716801e-18 1.7096105029124321e-16 -1 9.5 0.5 0.66852003894876411 -0.74369412901000032 -1.3088329139698107e-16 forward_v I I I I #
DXID-attrib $-1 -1 $-1 $133 $39 @18 ASM_EDGE_FROM_STEP @5 28149 #
DXID-attrib $-1 -1 $-1 $135 $41 @18 ASM_EDGE_FROM_STEP @5 42457 #
truecolor-adesk-attrib $-1 -1 $282 $-1 $137 -1031765888 #
ellipse-curve $-1 -1 $-1 14.563780533947945 11.044590992476358 27.500000000000028 -5.5952877820716801e-18 1.7096105029124321e-16 -1 6.6852003894876413 -7.4369412901000036 -1.3088329139698106e-15 1 F 1.2246467991473532e-16 F 3.1415926535897931 #
DXID-attrib $-1 -1 $-1 $138 $83 @18 ASM_EDGE_FROM_STEP @5 46666 #
DXID-attrib $-1 -1 $-1 $140 $84 @18 ASM_EDGE_FROM_STEP @4 1950 #
DXID-attrib $-1 -1 $-1 $142 $85 @18 ASM_FACE_FROM_STEP @17 step-4M-565-30702 #
DXID-attrib $-1 -1 $-1 $146 $91 @18 ASM_FACE_FROM_STEP @17 step-4M-565-29596 #
truecolor-adesk-attrib $-1 -1 $283 $-1 $147 -1031765888 #
cone-surface $-1 -1 $-1 14.563780533947945 11.044590992476358 32.000000000000028 -5.5952877820716801e-18 1.7096105029124321e-16 -1 8.0222404673851688 -8.9243295481200029 -1.5705994967637729e-15 1 I I 0 1 12.000000000000002 forward I I I I #
coedge $-1 -1 $-1 $284 $285 $286 $287 forward $148 $-1 #
coedge $-1 -1 $-1 $288 $150 $289 $290 forward $92 $-1 #
coedge $-1 -1 $-1 $150 $288 $291 $292 reversed $92 $-1 #
coedge $-1 -1 $-1 $277 $277 $150 $220 forward $198 $-1 #
edge $293 -1 $-1 $294 -3.1415926535897931 $295 0 $150 $296 forward @7 unknown #
coedge $-1 -1 $-1 $152 $151 $262 $297 reversed $52 $-1 #
coedge $-1 -1 $-1 $286 $298 $151 $223 reversed $299 $-1 #
edge $300 -1 $-1 $230 -3.1415926535897931 $301 -1.5707963267948966 $151 $302 forward @7 unknown #
coedge $-1 -1 $-1 $298 $286 $152 $225 forward $299 $-1 #
edge $303 -1 $-1 $231 -1.5707963267948966 $304 0 $152 $305 forward @7 unknown #
coedge $-1 -1 $-1 $306 $153 $285 $307 forward $228 $-1 #
coedge $-1 -1 $-1 $153 $306 $284 $308 reversed $228 $-1 #
loop $-1 -1 $-1 $-1 $227 $309 #
truecolor-adesk-attrib $-1 -1 $310 $-1 $154 -1031765888 #
vertex $-1 -1 $-1 $154 $311 #
vertex $-1 -1 $-1 $154 $312 #
ellipse-curve $-1 -1 $-1 14.563780533947945 11.044590992476358 31.500000000000028 5.5952877820716801e-18 -1.7096105029124321e-16 1 2.2729681324257967 -2.5285600386339997 -4.4500319074973543e-16 1 F -3.1415926535897931 F 0 #
coedge $-1 -1 $-1 $313 $313 $155 $234 forward $314 $-1 #
edge $315 -1 $-1 $242 0 $239 3.1415926535897931 $155 $316 forward @7 unknown #
coedge $-1 -1 $-1 $158 $156 $317 $318 reversed $237 $-1 #
coedge $-1 -1 $-1 $156 $158 $313 $319 reversed $237 $-1 #
loop $-1 -1 $-1 $-1 $156 $320 #
truecolor-adesk-attrib $-1 -1 $321 $-1 $157 -1031765888 #
vertex $-1 -1 $-1 $157 $322 #
ellipse-curve $-1 -1 $-1 6.875800086037156 19.597073476091367 28.500000000000028 -0.7436941290100002 -0.66852003894876422 -1.1012970532577544e-16 -0.33426001947438239 0.37184706450500044 6.5441645698490587e-17 1 F 0 F 1.5707963267948966 #
truecolor-adesk-attrib $-1 -1 $323 $-1 $159 -1031765888 #
vertex $-1 -1 $-1 $234 $324 #
ellipse-curve $-1 -1 $-1 22.251760981858734 2.4921085088613495 28.500000000000028 0.74369412901000032 0.66852003894876411 1.1012970532577543e-16 2.7976438910358401e-18 -8.5480525145621605e-17 0.5 1 F 1.5707963267948966 F 3.1415926535897931 #
coedge $-1 -1 $-1 $317 $253 $160 $245 forward $325 $-1 #
edge $326 -1 $-1 $176 0.0004999999999999999 $165 0.0035000000000000005 $160 $327 forward @7 unknown #
coedge $-1 -1 $-1 $253 $317 $161 $247 reversed $325 $-1 #
edge $328 -1 $-1 $173 0.0004999999999999999 $164 0.0035000000000000005 $161 $329 forward @7 unknown #
DXID-attrib $-1 -1 $-1 $163 $98 @18 ASM_EDGE_FROM_STEP @5 15243 #
point $-1 -1 $-1 6.5415400665627725 19.968920540596358 28.500000000000028 #
point $-1 -1 $-1 22.586021001333116 2.120261444356359 28.500000000000028 #
truecolor-adesk-attrib $-1 -1 $330 $-1 $168 -1031765888 #
ellipse-curve $-1 -1 $-1 14.563780533947945 11.044590992476358 31.500000000000028 -5.5952877820716801e-18 1.7096105029124321e-16 -1 8.0222404673851688 -8.9243295481200029 -1.5705994967637729e-15 1 F 0 F 3.1415926535897931 #
coedge $-1 -1 $-1 $244 $246 $170 $254 forward $325 $-1 #
edge $331 -1 $-1 $173 -3.1415926535897931 $176 0 $253 $332 forward @7 unknown #
face $333 -1 $-1 $189 $171 $3 $-1 $334 forward single #
DXID-attrib $-1 -1 $-1 $172 $101 @18 ASM_EDGE_FROM_STEP @5 25184 #
point $-1 -1 $-1 6.5415400665627725 19.968920540596358 31.500000000000032 #
DXID-attrib $-1 -1 $-1 $175 $103 @18 ASM_EDGE_FROM_STEP @5 17029 #
point $-1 -1 $-1 22.586021001333116 2.120261444356359 31.500000000000028 #
truecolor-adesk-attrib $-1 -1 $335 $-1 $178 -1031765888 #
ellipse-curve $-1 -1 $-1 14.563780533947945 11.044590992476358 32.000000000000028 5.5952877820716801e-18 -1.7096105029124321e-16 1 7.6879804479107881 -8.5524824836150053 -1.5051578510652827e-15 1 F 0 F 3.1415926535897931 #
coedge $-1 -1 $-1 $336 $336 $221 $297 forward $179 $-1 #
truecolor-adesk-attrib $-1 -1 $337 $-1 $180 -1031765888 #
face $338 -1 $-1 $309 $314 $3 $-1 $339 forward single #
plane-surface $-1 -1 $-1 14.563780533947945 11.044590992476358 32.000000000000028 -5.5952877820716801e-18 1.7096105029124321e-16 -1 0.66852003894876411 -0.74369412901000032 -1.3088329139698107e-16 forward_v I I I I #
color-adesk-attrib $-1 -1 $340 $186 $111 254 #
truecolor-adesk-attrib $-1 -1 $341 $-1 $188 -1031765888 #
ellipse-curve $-1 -1 $-1 14.563780533947945 11.044590992476358 28.000000000000028 5.5952877820716801e-18 -1.7096105029124321e-16 1 7.0194604089620229 -7.808788354605003 -1.3742745596683013e-15 1 F -3.1415926535897931 F 0 #
truecolor-adesk-attrib $-1 -1 $342 $-1 $189 -1031765888 #
torus-surface $-1 -1 $-1 14.563780533947945 11.044590992476358 27.500000000000028 -5.5952877820716801e-18 1.7096105029124321e-16 -1 10.5 0.5 0.66852003894876411 -0.74369412901000032 -1.3088329139698107e-16 forward_v I I I I #
DXID-attrib $-1 -1 $-1 $190 $61 @18 ASM_EDGE_FROM_STEP @5 56470 #
DXID-attrib $-1 -1 $-1 $192 $63 @18 ASM_EDGE_FROM_STEP @5 28646 #
DXID-attrib $-1 -1 $-1 $194 $122 @18 ASM_FACE_FROM_STEP @17 step-4M-565-13488 #
truecolor-adesk-attrib $-1 -1 $343 $-1 $195 -1031765888 #
face $344 -1 $-1 $180 $325 $3 $-1 $345 forward single #
plane-surface $-1 -1 $-1 14.563780533947945 11.044590992476358 18.000000000000028 -5.5952877820716801e-18 1.7096105029124321e-16 -1 0.66852003894876411 -0.74369412901000032 -1.3088329139698107e-16 forward_v I I I I #
coedge $-1 -1 $-1 $219 $219 $346 $347 forward $198 $-1 #
DXID-attrib $-1 -1 $-1 $199 $72 @18 ASM_EDGE_FROM_STEP @5 49936 #
DXID-attrib $-1 -1 $-1 $200 $130 @18 ASM_EDGE_FROM_STEP @5 44157 #
DXID-attrib $-1 -1 $-1 $202 $131 @18 ASM_EDGE_FROM_STEP @4 4274 #
DXID-attrib $-1 -1 $-1 $204 $132 @18 ASM_FACE_FROM_STEP @17 step-4M-565-42954 #
DXID-attrib $-1 -1 $-1 $208 $137 @18 ASM_EDGE_FROM_STEP @5 29502 #
DXID-attrib $-1 -1 $-1 $214 $147 @18 ASM_FACE_FROM_STEP @17 step-4M-565-12497 #
coedge $-1 -1 $-1 $348 $216 $227 $308 forward $148 $-1 #
coedge $-1 -1 $-1 $216 $348 $226 $307 reversed $148 $-1 #
coedge $-1 -1 $-1 $224 $222 $216 $287 reversed $299 $-1 #
edge $349 -1 $-1 $231 0 $230 3.1415926535897931 $216 $350 forward @7 unknown #
coedge $-1 -1 $-1 $218 $217 $306 $351 reversed $92 $-1 #
coedge $-1 -1 $-1 $346 $352 $217 $290 reversed $353 $-1 #
edge $354 -1 $-1 $294 1.5707963267948966 $355 3.1415926535897931 $217 $356 forward @7 unknown #
coedge $-1 -1 $-1 $352 $346 $218 $292 forward $353 $-1 #
edge $357 -1 $-1 $295 -3.1415926535897931 $358 -1.5707963267948966 $218 $359 forward @7 unknown #
truecolor-adesk-attrib $-1 -1 $360 $-1 $220 -1031765888 #
vertex $-1 -1 $-1 $220 $361 #
vertex $-1 -1 $-1 $220 $362 #
ellipse-curve $-1 -1 $-1 14.563780533947945 11.044590992476358 18.000000000000028 5.5952877820716801e-18 -1.7096105029124321e-16 1 2.6072281519001783 -2.9004071031389995 -5.1044483644822584e-16 1 F -3.1415926535897931 F 0 #
edge $363 -1 $-1 $304 0 $301 3.1415926535897931 $221 $364 forward @7 unknown #
coedge $-1 -1 $-1 $222 $224 $336 $365 reversed $299 $-1 #
loop $-1 -1 $-1 $-1 $222 $366 #
truecolor-adesk-attrib $-1 -1 $367 $-1 $223 -1031765888 #
vertex $-1 -1 $-1 $223 $368 #
ellipse-curve $-1 -1 $-1 11.956552382047766 13.944998095615361 31.500000000000028 -0.7436941290100002 -0.66852003894876422 -1.1012970532577544e-16 -0.33426001947438211 0.3718470645050001 6.5441645698490525e-17 1 F -3.1415926535897931 F -1.5707963267948966 #
truecolor-adesk-attrib $-1 -1 $369 $-1 $225 -1031765888 #
vertex $-1 -1 $-1 $297 $370 #
ellipse-curve $-1 -1 $-1 17.171008685848122 8.1441838893373557 31.500000000000028 0.74369412901000032 0.66852003894876411 1.1012970532577543e-16 2.7976438910358424e-18 -8.5480525145621679e-17 0.50000000000000044 1 F -1.5707963267948966 F 0 #
coedge $-1 -1 $-1 $227 $226 $288 $351 forward $228 $-1 #
edge $371 -1 $-1 $231 -0.013500000000000002 $358 -0.00049999999999999936 $285 $372 forward @7 unknown #
edge $373 -1 $-1 $230 -0.013500000000000002 $355 -0.00049999999999999936 $284 $374 forward @7 unknown #
face $375 -1 $-1 $376 $228 $3 $-1 $377 reversed single #
DXID-attrib $-1 -1 $-1 $229 $154 @18 ASM_EDGE_FROM_STEP @5 12207 #
point $-1 -1 $-1 12.290812401522148 13.573151031110356 31.500000000000028 #
point $-1 -1 $-1 16.83674866637374 8.5160309538423604 31.500000000000028 #
coedge $-1 -1 $-1 $233 $233 $236 $319 forward $314 $-1 #
loop $-1 -1 $-1 $185 $233 $264 #
truecolor-adesk-attrib $-1 -1 $378 $-1 $234 -1031765888 #
ellipse-curve $-1 -1 $-1 14.563780533947945 11.044590992476358 28.000000000000028 -5.5952877820716801e-18 1.7096105029124321e-16 -1 7.6879804479107881 -8.5524824836150053 -1.5051578510652827e-15 1 F 0 F 3.1415926535897931 #
coedge $-1 -1 $-1 $246 $244 $235 $318 forward $325 $-1 #
edge $379 -1 $-1 $165 0 $164 3.1415926535897931 $317 $380 forward @7 unknown #
edge $381 -1 $-1 $239 -3.1415926535897931 $242 0 $313 $382 forward @7 unknown #
face $383 -1 $-1 $255 $237 $3 $-1 $384 forward single #
DXID-attrib $-1 -1 $-1 $238 $157 @18 ASM_EDGE_FROM_STEP @5 31074 #
point $-1 -1 $-1 6.875800086037156 19.597073476091367 28.000000000000028 #
DXID-attrib $-1 -1 $-1 $241 $159 @18 ASM_EDGE_FROM_STEP @5 20780 #
point $-1 -1 $-1 22.251760981858734 2.4921085088613495 28.000000000000028 #
loop $-1 -1 $-1 $-1 $246 $275 #
truecolor-adesk-attrib $-1 -1 $385 $-1 $245 -1031765888 #
straight-curve $-1 -1 $-1 22.586021001333116 2.120261444356359 32.000000000000028 -5.5952877820716803e-15 1.7096105029124322e-13 -1000 F 0.0004999999999999999 F 0.0035000000000000005 #
truecolor-adesk-attrib $-1 -1 $386 $-1 $247 -1031765888 #
straight-curve $-1 -1 $-1 6.5415400665627725 19.968920540596358 32.000000000000028 -5.5952877820716803e-15 1.7096105029124322e-13 -1000 F 0.0004999999999999999 F 0.0035000000000000005 #
DXID-attrib $-1 -1 $-1 $251 $168 @18 ASM_EDGE_FROM_STEP @4 1192 #
truecolor-adesk-attrib $-1 -1 $387 $-1 $254 -1031765888 #
ellipse-curve $-1 -1 $-1 14.563780533947945 11.044590992476358 31.500000000000028 -5.5952877820716801e-18 1.7096105029124321e-16 -1 8.0222404673851688 -8.9243295481200029 -1.5705994967637729e-15 1 F -3.1415926535897931 F 0 #
truecolor-adesk-attrib $-1 -1 $388 $-1 $255 -1031765888 #
torus-surface $-1 -1 $-1 14.563780533947945 11.044590992476358 31.500000000000028 -5.5952877820716801e-18 1.7096105029124321e-16 -1 11.500000000000002 0.5 0.66852003894876411 -0.74369412901000032 -1.3088329139698107e-16 forward_v I I I I #
DXID-attrib $-1 -1 $-1 $260 $178 @18 ASM_EDGE_FROM_STEP @5 56988 #
coedge $-1 -1 $-1 $262 $262 $298 $365 forward $179 $-1 #
DXID-attrib $-1 -1 $-1 $263 $180 @18 ASM_FACE_FROM_STEP @16 step-4M-565-2113 #
truecolor-adesk-attrib $-1 -1 $389 $-1 $264 -1031765888 #
plane-surface $-1 -1 $-1 14.563780533947945 11.044590992476358 28.000000000000028 -5.5952877820716801e-18 1.7096105029124321e-16 -1 0.66852003894876411 -0.74369412901000032 -1.3088329139698107e-16 forward_v I I I I #
DXID-attrib $-1 -1 $-1 $266 $111 @18 ASM_EDGE_FROM_STEP @5 43312 #
DXID-attrib $-1 -1 $-1 $267 $188 @18 ASM_EDGE_FROM_STEP @5 11623 #
DXID-attrib $-1 -1 $-1 $269 $189 @18 ASM_FACE_FROM_STEP @17 step-4M-565-32133 #
DXID-attrib $-1 -1 $-1 $274 $195 @18 ASM_FACE_FROM_STEP @17 step-4M-565-22805 #
truecolor-adesk-attrib $-1 -1 $390 $-1 $275 -1031765888 #
cone-surface $-1 -1 $-1 14.563780533947945 11.044590992476358 32.000000000000028 -5.5952877820716801e-18 1.7096105029124321e-16 -1 8.0222404673851688 -8.9243295481200029 -1.5705994967637729e-15 1 I I 0 1 12.000000000000002 forward I I I I #
coedge $-1 -1 $-1 $291 $289 $277 $347 reversed $353 $-1 #
edge $391 -1 $-1 $295 0 $294 3.1415926535897931 $277 $392 forward @7 unknown #
coedge $-1 -1 $-1 $285 $284 $352 $393 forward $148 $-1 #
truecolor-adesk-attrib $-1 -1 $394 $-1 $287 -1031765888 #
ellipse-curve $-1 -1 $-1 14.563780533947945 11.044590992476358 31.500000000000028 5.5952877820716801e-18 -1.7096105029124321e-16 1 2.2729681324257967 -2.5285600386339997 -4.4500319074973543e-16 1 F 0 F 3.1415926535897931 #
edge $395 -1 $-1 $358 0 $355 3.1415926535897931 $288 $396 forward @7 unknown #
coedge $-1 -1 $-1 $289 $291 $348 $393 reversed $353 $-1 #
loop $-1 -1 $-1 $-1 $289 $376 #
truecolor-adesk-attrib $-1 -1 $397 $-1 $290 -1031765888 #
vertex $-1 -1 $-1 $290 $398 #
ellipse-curve $-1 -1 $-1 11.956552382047766 13.944998095615361 18.500000000000028 -0.7436941290100002 -0.66852003894876422 -1.1012970532577544e-16 -0.33426001947438211 0.3718470645050001 6.5441645698490525e-17 1 F 1.5707963267948966 F 3.1415926535897931 #
truecolor-adesk-attrib $-1 -1 $399 $-1 $292 -1031765888 #
vertex $-1 -1 $-1 $351 $400 #
ellipse-curve $-1 -1 $-1 17.171008685848122 8.1441838893373557 18.500000000000028 0.74369412901000032 0.66852003894876411 1.1012970532577543e-16 2.7976438910358424e-18 -8.5480525145621679e-17 0.50000000000000044 1 F -3.1415926535897931 F -1.5707963267948966 #
DXID-attrib $-1 -1 $-1 $293 $220 @18 ASM_EDGE_FROM_STEP @5 34383 #
point $-1 -1 $-1 11.956552382047766 13.944998095615361 18.000000000000028 #
point $-1 -1 $-1 17.171008685848122 8.1441838893373557 18.000000000000028 #
truecolor-adesk-attrib $-1 -1 $401 $-1 $297 -1031765888 #
ellipse-curve $-1 -1 $-1 14.563780533947945 11.044590992476358 32.000000000000028 -5.5952877820716801e-18 1.7096105029124321e-16 -1 2.6072281519001783 -2.9004071031389995 -5.1044483644822584e-16 1 F 0 F 3.1415926535897931 #
edge $402 -1 $-1 $301 -3.1415926535897931 $304 0 $336 $403 forward @7 unknown #
face $404 -1 $-1 $320 $299 $3 $-1 $405 forward single #
DXID-attrib $-1 -1 $-1 $300 $223 @18 ASM_EDGE_FROM_STEP @4 2052 #
point $-1 -1 $-1 11.956552382047766 13.944998095615361 32.000000000000028 #
DXID-attrib $-1 -1 $-1 $303 $225 @18 ASM_EDGE_FROM_STEP @5 45979 #
point $-1 -1 $-1 17.171008685848122 8.1441838893373557 32.000000000000028 #
truecolor-adesk-attrib $-1 -1 $406 $-1 $307 -1031765888 #
straight-curve $-1 -1 $-1 16.83674866637374 8.5160309538423604 18.000000000000028 -5.5952877820716803e-15 1.7096105029124322e-13 -1000 F -0.013500000000000002 F -0.00049999999999999936 #
truecolor-adesk-attrib $-1 -1 $407 $-1 $308 -1031765888 #
straight-curve $-1 -1 $-1 12.290812401522148 13.573151031110356 18.000000000000028 -5.5952877820716803e-15 1.7096105029124322e-13 -1000 F -0.013500000000000002 F -0.00049999999999999936 #
truecolor-adesk-attrib $-1 -1 $408 $-1 $309 -1031765888 #
face $409 -1 $-1 $366 $353 $3 $-1 $410 forward single #
cone-surface $-1 -1 $-1 14.563780533947945 11.044590992476358 18.000000000000028 -5.5952877820716801e-18 1.7096105029124321e-16 -1 2.2729681324257967 -2.5285600386339997 -4.4500319074973543e-16 1 I I 0 1 3.3999999999999981 forward I I I I #
DXID-attrib $-1 -1 $-1 $315 $234 @18 ASM_EDGE_FROM_STEP @5 36861 #
truecolor-adesk-attrib $-1 -1 $411 $-1 $318 -1031765888 #
ellipse-curve $-1 -1 $-1 14.563780533947945 11.044590992476358 28.500000000000028 5.5952877820716801e-18 -1.7096105029124321e-16 1 8.0222404673851688 -8.9243295481200029 -1.5705994967637729e-15 1 F 0 F 3.1415926535897931 #
truecolor-adesk-attrib $-1 -1 $412 $-1 $319 -1031765888 #
ellipse-curve $-1 -1 $-1 14.563780533947945 11.044590992476358 28.000000000000028 -5.5952877820716801e-18 1.7096105029124321e-16 -1 7.6879804479107881 -8.5524824836150053 -1.5051578510652827e-15 1 F -3.1415926535897931 F 0 #
truecolor-adesk-attrib $-1 -1 $413 $-1 $320 -1031765888 #
torus-surface $-1 -1 $-1 14.563780533947945 11.044590992476358 28.500000000000028 -5.5952877820716801e-18 1.7096105029124321e-16 -1 11.500000000000002 0.5 0.66852003894876411 -0.74369412901000032 -1.3088329139698107e-16 forward_v I I I I #
DXID-attrib $-1 -1 $-1 $326 $245 @18 ASM_EDGE_FROM_STEP @5 24363 #
DXID-attrib $-1 -1 $-1 $328 $247 @18 ASM_EDGE_FROM_STEP @5 36681 #
DXID-attrib $-1 -1 $-1 $331 $254 @18 ASM_EDGE_FROM_STEP @5 14818 #
DXID-attrib $-1 -1 $-1 $333 $255 @18 ASM_FACE_FROM_STEP @17 step-4M-565-53350 #
DXID-attrib $-1 -1 $-1 $338 $264 @18 ASM_FACE_FROM_STEP @17 step-4M-565-36817 #
DXID-attrib $-1 -1 $-1 $344 $275 @18 ASM_FACE_FROM_STEP @17 step-4M-565-32705 #
truecolor-adesk-attrib $-1 -1 $414 $-1 $347 -1031765888 #
ellipse-curve $-1 -1 $-1 14.563780533947945 11.044590992476358 18.000000000000028 5.5952877820716801e-18 -1.7096105029124321e-16 1 2.6072281519001783 -2.9004071031389995 -5.1044483644822584e-16 1 F 0 F 3.1415926535897931 #
edge $415 -1 $-1 $355 -3.1415926535897931 $358 0 $348 $416 forward @7 unknown #
DXID-attrib $-1 -1 $-1 $349 $287 @18 ASM_EDGE_FROM_STEP @5 45708 #
truecolor-adesk-attrib $-1 -1 $417 $-1 $351 -1031765888 #
ellipse-curve $-1 -1 $-1 14.563780533947945 11.044590992476358 18.500000000000028 -5.5952877820716801e-18 1.7096105029124321e-16 -1 2.2729681324257967 -2.5285600386339997 -4.4500319074973543e-16 1 F 0 F 3.1415926535897931 #
DXID-attrib $-1 -1 $-1 $354 $290 @18 ASM_EDGE_FROM_STEP @4 7324 #
point $-1 -1 $-1 12.290812401522148 13.573151031110356 18.500000000000028 #
DXID-attrib $-1 -1 $-1 $357 $292 @18 ASM_EDGE_FROM_STEP @5 14040 #
point $-1 -1 $-1 16.83674866637374 8.5160309538423604 18.500000000000028 #
DXID-attrib $-1 -1 $-1 $363 $297 @18 ASM_EDGE_FROM_STEP @4 3493 #
truecolor-adesk-attrib $-1 -1 $418 $-1 $365 -1031765888 #
ellipse-curve $-1 -1 $-1 14.563780533947945 11.044590992476358 32.000000000000028 -5.5952877820716801e-18 1.7096105029124321e-16 -1 2.6072281519001783 -2.9004071031389995 -5.1044483644822584e-16 1 F -3.1415926535897931 F 0 #
truecolor-adesk-attrib $-1 -1 $419 $-1 $366 -1031765888 #
torus-surface $-1 -1 $-1 14.563780533947945 11.044590992476358 31.500000000000028 -5.5952877820716801e-18 1.7096105029124321e-16 -1 3.8999999999999977 0.5 0.66852003894876411 -0.74369412901000032 -1.3088329139698107e-16 forward_v I I I I #
DXID-attrib $-1 -1 $-1 $371 $307 @18 ASM_EDGE_FROM_STEP @5 12538 #
DXID-attrib $-1 -1 $-1 $373 $308 @18 ASM_EDGE_FROM_STEP @4 9212 #
DXID-attrib $-1 -1 $-1 $375 $309 @18 ASM_FACE_FROM_STEP @17 step-4M-565-20742 #
truecolor-adesk-attrib $-1 -1 $420 $-1 $376 -1031765888 #
torus-surface $-1 -1 $-1 14.563780533947945 11.044590992476358 18.500000000000028 -5.5952877820716801e-18 1.7096105029124321e-16 -1 3.8999999999999977 0.5 0.66852003894876411 -0.74369412901000032 -1.3088329139698107e-16 forward_v I I I I #
DXID-attrib $-1 -1 $-1 $379 $318 @18 ASM_EDGE_FROM_STEP @5 15104 #
DXID-attrib $-1 -1 $-1 $381 $319 @18 ASM_EDGE_FROM_STEP @5 22732 #
DXID-attrib $-1 -1 $-1 $383 $320 @18 ASM_FACE_FROM_STEP @17 step-4M-565-32936 #
DXID-attrib $-1 -1 $-1 $391 $347 @18 ASM_EDGE_FROM_STEP @5 55163 #
truecolor-adesk-attrib $-1 -1 $421 $-1 $393 -1031765888 #
ellipse-curve $-1 -1 $-1 14.563780533947945 11.044590992476358 18.500000000000028 -5.5952877820716801e-18 1.7096105029124321e-16 -1 2.2729681324257967 -2.5285600386339997 -4.4500319074973543e-16 1 F -3.1415926535897931 F 0 #
DXID-attrib $-1 -1 $-1 $395 $351 @18 ASM_EDGE_FROM_STEP @5 31861 #
DXID-attrib $-1 -1 $-1 $402 $365 @18 ASM_EDGE_FROM_STEP @5 41304 #
DXID-attrib $-1 -1 $-1 $404 $366 @18 ASM_FACE_FROM_STEP @16 step-4M-565-8442 #
DXID-attrib $-1 -1 $-1 $409 $376 @18 ASM_FACE_FROM_STEP @17 step-4M-565-24113 #
DXID-attrib $-1 -1 $-1 $415 $393 @18 ASM_EDGE_FROM_STEP @5 33104 #
