700 521 1 0         
5 ZWCAD 12 ACIS 28.0 NT 24 Sat May 11 13:49:10 2024 
1 9.9999999999999995e-07 1e-10 
body $1 -1 $-1 $2 $-1 $-1 #
DXID-attrib $-1 -1 $-1 $-1 $0 @18 ASM_BODY_FROM_STEP @83 4E46FF2DA0DE0D6557721F922443690979CC1AB5|:|2EB18B6C522D039C3C0DCD7089256C0AD6492059 #
lump $-1 -1 $-1 $-1 $3 $0 #
shell $-1 -1 $-1 $-1 $-1 $4 $-1 $2 #
face $5 -1 $-1 $6 $7 $3 $-1 $8 reversed single #
truecolor-adesk-attrib $-1 -1 $9 $-1 $4 -1027161668 #
face $10 -1 $-1 $11 $12 $3 $-1 $13 reversed single #
loop $-1 -1 $-1 $-1 $14 $4 #
cone-surface $-1 -1 $-1 50.940924633386956 8.1494580493050108 35.233987449476636 1.2241125243812116e-16 1 -3.6170572499140599e-18 0.074134139766709184 1.933633664164785e-33 2.5089049661796783 1 I I 0.86602540378443604 0.50000000000000455 2.5100000000000007 forward I I I I #
DXID-attrib $-1 -1 $-1 $5 $4 @18 ASM_FACE_FROM_STEP @16 step-1M-562-3777 #
truecolor-adesk-attrib $-1 -1 $15 $-1 $6 -1027161668 #
face $16 -1 $-1 $17 $18 $3 $-1 $19 forward single #
loop $-1 -1 $-1 $-1 $20 $6 #
torus-surface $-1 -1 $-1 50.940924633386956 7.0423512681184608 35.233987449476636 1.2241125243812116e-16 1 -3.6170572499140599e-18 4.5000000000000027 0.5 0.029535513851278554 7.7037197775489434e-34 0.99956373154568845 forward_v I I I I #
coedge $-1 -1 $-1 $21 $22 $23 $24 reversed $7 $-1 #
DXID-attrib $-1 -1 $-1 $10 $6 @18 ASM_FACE_FROM_STEP @16 step-1M-562-6130 #
truecolor-adesk-attrib $-1 -1 $25 $-1 $11 -1027161668 #
face $26 -1 $-1 $27 $28 $3 $-1 $29 forward single #
loop $-1 -1 $-1 $-1 $30 $11 #
cone-surface $-1 -1 $-1 50.940924633386956 -13.350541950694989 35.233987449476636 1.2241125243812116e-16 1 -3.6170572499140599e-18 0.097747783090806381 2.5495460603798231e-33 3.3080561695504564 1 I I 0.70710678118655734 0.70710678118653769 3.3095000000000003 forward I I I I #
coedge $-1 -1 $-1 $31 $32 $33 $34 reversed $12 $-1 #
coedge $-1 -1 $-1 $35 $14 $36 $37 forward $7 $-1 #
coedge $-1 -1 $-1 $14 $38 $39 $40 forward $7 $-1 #
coedge $-1 -1 $-1 $41 $36 $14 $24 forward $42 $-1 #
edge $43 -1 $-1 $44 -0.0028982983513319302 $45 0 $14 $46 forward @7 unknown #
DXID-attrib $-1 -1 $-1 $16 $11 @18 ASM_FACE_FROM_STEP @16 step-1M-562-6736 #
truecolor-adesk-attrib $-1 -1 $47 $-1 $17 -1027161668 #
face $48 -1 $-1 $49 $50 $3 $-1 $51 forward single #
loop $-1 -1 $-1 $-1 $52 $17 #
cone-surface $-1 -1 $-1 50.940924633386956 11.649458049305011 35.233987449476636 1.2241125243812116e-16 1 -3.6170572499140599e-18 0.11814205540511427 3.0814879110195787e-33 3.9982549261827556 1 I I 0 1 4.0000000000000018 forward I I I I #
coedge $-1 -1 $-1 $53 $54 $55 $56 forward $18 $-1 #
coedge $-1 -1 $-1 $57 $20 $58 $59 forward $12 $-1 #
coedge $-1 -1 $-1 $20 $57 $60 $61 reversed $12 $-1 #
coedge $-1 -1 $-1 $62 $63 $20 $34 forward $64 $-1 #
edge $65 -1 $-1 $66 -3.1415926535897931 $67 0 $20 $68 forward @7 unknown #
coedge $-1 -1 $-1 $38 $21 $69 $70 forward $7 $-1 #
coedge $-1 -1 $-1 $23 $71 $21 $37 reversed $42 $-1 #
edge $72 -1 $-1 $44 -0.0028982983513319302 $73 -1.4422220147876683e-18 $21 $74 forward @7 unknown #
coedge $-1 -1 $-1 $22 $35 $75 $76 forward $7 $-1 #
coedge $-1 -1 $-1 $77 $78 $22 $40 reversed $79 $-1 #
edge $80 -1 $-1 $81 -1.0471975511965961 $45 -2.9926585632214349e-16 $22 $82 forward @7 unknown #
coedge $-1 -1 $-1 $83 $23 $84 $85 forward $42 $-1 #
loop $-1 -1 $-1 $-1 $36 $86 #
truecolor-adesk-attrib $-1 -1 $87 $-1 $24 -1027161668 #
vertex $-1 -1 $-1 $24 $88 #
vertex $-1 -1 $-1 $24 $89 #
straight-curve $-1 -1 $-1 51.015058773153662 8.1494580493050108 37.742892415656314 25.57850530903438 500.00000000000449 865.64758422013267 F -0.0028982983513319302 F 0 #
DXID-attrib $-1 -1 $-1 $26 $17 @18 ASM_FACE_FROM_STEP @16 step-1M-562-3200 #
truecolor-adesk-attrib $-1 -1 $90 $-1 $27 -1027161668 #
face $91 -1 $-1 $92 $93 $3 $-1 $94 forward single #
loop $-1 -1 $-1 $-1 $95 $27 #
cone-surface $-1 -1 $-1 50.940924633386956 11.034458049304991 35.233987449476636 1.2241125243812116e-16 1 -3.6170572499140599e-18 0.22993397533220358 5.9973458468218532e-33 7.781603650083186 1 I I 0.70710678118654913 0.70710678118654602 7.785000000000001 forward I I I I #
coedge $-1 -1 $-1 $96 $97 $98 $99 forward $28 $-1 #
coedge $-1 -1 $-1 $98 $30 $100 $101 forward $18 $-1 #
coedge $-1 -1 $-1 $30 $98 $102 $103 reversed $18 $-1 #
coedge $-1 -1 $-1 $104 $104 $30 $56 reversed $105 $-1 #
edge $106 -1 $-1 $107 0 $108 3.1415926535897931 $30 $109 forward @7 unknown #
coedge $-1 -1 $-1 $32 $31 $110 $111 reversed $12 $-1 #
coedge $-1 -1 $-1 $112 $113 $31 $59 reversed $114 $-1 #
edge $115 -1 $-1 $66 -0.78539816339744983 $116 0 $31 $117 forward @7 unknown #
coedge $-1 -1 $-1 $113 $112 $32 $61 forward $114 $-1 #
edge $118 -1 $-1 $67 -0.78539816339744983 $119 0 $32 $120 forward @7 unknown #
coedge $-1 -1 $-1 $121 $33 $122 $123 forward $64 $-1 #
coedge $-1 -1 $-1 $33 $121 $124 $125 reversed $64 $-1 #
loop $-1 -1 $-1 $-1 $63 $126 #
truecolor-adesk-attrib $-1 -1 $127 $-1 $34 -1027161668 #
vertex $-1 -1 $-1 $34 $128 #
vertex $-1 -1 $-1 $34 $129 #
ellipse-curve $-1 -1 $-1 50.940924633386956 7.3959046587117339 35.233987449476636 1.2241125243812116e-16 1 -3.6170572499140599e-18 0.12246743126571949 3.1943062751437388e-33 4.1446376455535594 1 F -3.1415926535897931 F 0 #
coedge $-1 -1 $-1 $130 $131 $35 $70 reversed $132 $-1 #
edge $133 -1 $-1 $73 -3.1415926535897936 $134 -2.0943951023931966 $35 $135 forward @7 unknown #
coedge $-1 -1 $-1 $36 $83 $136 $137 forward $42 $-1 #
truecolor-adesk-attrib $-1 -1 $138 $-1 $37 -1027161668 #
vertex $-1 -1 $-1 $37 $139 #
straight-curve $-1 -1 $-1 50.866790493620243 8.1494580493050108 32.725082483296958 -25.578505309034153 500.00000000000449 -865.64758422013267 F -0.0028982983513319302 F -1.4422220147876683e-18 #
coedge $-1 -1 $-1 $140 $141 $38 $76 reversed $142 $-1 #
edge $143 -1 $-1 $134 -2.0943951023931966 $81 -1.0471975511965961 $38 $144 forward @7 unknown #
coedge $-1 -1 $-1 $78 $39 $145 $146 reversed $79 $-1 #
coedge $-1 -1 $-1 $39 $77 $147 $148 reversed $79 $-1 #
loop $-1 -1 $-1 $-1 $39 $149 #
truecolor-adesk-attrib $-1 -1 $150 $-1 $40 -1027161668 #
vertex $-1 -1 $-1 $76 $151 #
ellipse-curve $-1 -1 $-1 50.940924633386956 8.1494580493050108 35.233987449476636 1.2241125243812116e-16 1 -3.6170572499140599e-18 0.074134139766709184 1.933633664164785e-33 2.5089049661796783 1 F -1.0471975511965961 F -2.9926585632214349e-16 #
coedge $-1 -1 $-1 $71 $41 $152 $153 forward $42 $-1 #
coedge $-1 -1 $-1 $154 $155 $41 $85 reversed $156 $-1 #
edge $157 -1 $-1 $45 -2.9926585632214349e-16 $158 1.0471975511965981 $84 $159 forward @7 unknown #
face $160 -1 $-1 $-1 $42 $3 $-1 $161 reversed single #
DXID-attrib $-1 -1 $-1 $43 $24 @18 ASM_EDGE_FROM_STEP @4 2283 #
point $-1 -1 $-1 50.940924633386956 6.7003088736390328 35.233987449476636 #
point $-1 -1 $-1 51.015058773153662 8.1494580493050108 37.742892415656314 #
DXID-attrib $-1 -1 $-1 $48 $27 @18 ASM_FACE_FROM_STEP @16 step-1M-562-2353 #
truecolor-adesk-attrib $-1 -1 $162 $-1 $49 -1027161668 #
face $163 -1 $-1 $164 $165 $3 $-1 $166 forward single #
loop $-1 -1 $-1 $-1 $167 $49 #
cone-surface $-1 -1 $-1 50.940924633386956 11.649458049305011 35.233987449476636 1.2241125243812116e-16 1 -3.6170572499140599e-18 0.22993397533220358 5.9973458468218532e-33 7.781603650083186 1 I I 0 1 7.785000000000001 forward I I I I #
coedge $-1 -1 $-1 $124 $122 $112 $168 forward $50 $-1 #
coedge $-1 -1 $-1 $169 $52 $170 $171 forward $28 $-1 #
coedge $-1 -1 $-1 $52 $169 $172 $173 reversed $28 $-1 #
coedge $-1 -1 $-1 $54 $53 $52 $99 reversed $18 $-1 #
edge $174 -1 $-1 $175 0 $176 3.1415926535897931 $98 $177 forward @7 unknown #
coedge $-1 -1 $-1 $178 $179 $53 $101 reversed $180 $-1 #
edge $181 -1 $-1 $108 3.6613428038064007e-36 $176 0.00097651446481860954 $53 $182 forward @7 unknown #
coedge $-1 -1 $-1 $179 $178 $54 $103 forward $180 $-1 #
edge $183 -1 $-1 $107 0 $175 0.00097651446481860954 $54 $184 forward @7 unknown #
coedge $-1 -1 $-1 $55 $55 $178 $185 reversed $105 $-1 #
loop $-1 -1 $-1 $-1 $55 $186 #
truecolor-adesk-attrib $-1 -1 $187 $-1 $56 -1027161668 #
vertex $-1 -1 $-1 $56 $188 #
vertex $-1 -1 $-1 $56 $189 #
ellipse-curve $-1 -1 $-1 50.940924633386956 -13.350541950694989 35.233987449476636 1.2241125243812116e-16 1 -3.6170572499140599e-18 0.097747783090806381 2.5495460603798231e-33 3.3080561695504564 1 F 0 F 3.1415926535897931 #
coedge $-1 -1 $-1 $170 $172 $57 $111 forward $190 $-1 #
edge $191 -1 $-1 $119 0 $116 3.1415926535897931 $57 $192 forward @7 unknown #
coedge $-1 -1 $-1 $60 $58 $95 $168 reversed $114 $-1 #
coedge $-1 -1 $-1 $58 $60 $169 $193 reversed $114 $-1 #
loop $-1 -1 $-1 $-1 $58 $194 #
truecolor-adesk-attrib $-1 -1 $195 $-1 $59 -1027161668 #
vertex $-1 -1 $-1 $59 $196 #
ellipse-curve $-1 -1 $-1 50.808014821056204 7.0423512681184608 30.735950657521037 0.99956373154568845 -1.2246467991473535e-16 -0.029535513851278433 0.01476775692563923 7.8839849021867434e-33 0.49978186577284467 1 F -0.78539816339744983 F 0 #
truecolor-adesk-attrib $-1 -1 $197 $-1 $61 -1027161668 #
vertex $-1 -1 $-1 $111 $198 #
ellipse-curve $-1 -1 $-1 51.073834445717708 7.0423512681184608 39.732024241432235 -0.99956373154568845 1.2246467991473535e-16 0.029535513851278554 -0.014767756925639291 -3.8518598887744751e-34 -0.49978186577284467 1 F -0.78539816339744983 F 0 #
coedge $-1 -1 $-1 $63 $62 $199 $200 reversed $64 $-1 #
coedge $-1 -1 $-1 $95 $201 $62 $123 reversed $50 $-1 #
edge $202 -1 $-1 $67 -0.0051456915523956006 $203 0 $122 $204 forward @7 unknown #
coedge $-1 -1 $-1 $201 $95 $63 $125 forward $50 $-1 #
edge $205 -1 $-1 $66 -0.0051456915523956006 $206 0 $124 $207 forward @7 unknown #
face $208 -1 $-1 $209 $64 $3 $-1 $210 forward single #
DXID-attrib $-1 -1 $-1 $65 $34 @18 ASM_EDGE_FROM_STEP @4 3790 #
point $-1 -1 $-1 50.818457202121238 7.3959046587117339 31.089349803923078 #
point $-1 -1 $-1 51.063392064652675 7.3959046587117339 39.378625095030195 #
coedge $-1 -1 $-1 $131 $69 $211 $212 reversed $132 $-1 #
coedge $-1 -1 $-1 $69 $130 $213 $214 reversed $132 $-1 #
loop $-1 -1 $-1 $-1 $69 $215 #
truecolor-adesk-attrib $-1 -1 $216 $-1 $70 -1027161668 #
vertex $-1 -1 $-1 $70 $217 #
ellipse-curve $-1 -1 $-1 50.940924633386956 8.1494580493050108 35.233987449476636 1.2241125243812116e-16 1 -3.6170572499140599e-18 0.074134139766709184 1.933633664164785e-33 2.5089049661796783 1 F -3.1415926535897936 F -2.0943951023931966 #
coedge $-1 -1 $-1 $218 $219 $71 $137 reversed $220 $-1 #
edge $221 -1 $-1 $222 2.0943951023931957 $73 3.1415926535897927 $136 $223 forward @7 unknown #
DXID-attrib $-1 -1 $-1 $72 $37 @18 ASM_EDGE_FROM_STEP @4 4812 #
point $-1 -1 $-1 50.86679049362025 8.1494580493050108 32.725082483296958 #
coedge $-1 -1 $-1 $141 $75 $224 $225 reversed $142 $-1 #
coedge $-1 -1 $-1 $75 $140 $226 $227 reversed $142 $-1 #
loop $-1 -1 $-1 $-1 $75 $228 #
truecolor-adesk-attrib $-1 -1 $229 $-1 $76 -1027161668 #
ellipse-curve $-1 -1 $-1 50.940924633386956 8.1494580493050108 35.233987449476636 1.2241125243812116e-16 1 -3.6170572499140599e-18 0.074134139766709184 1.933633664164785e-33 2.5089049661796783 1 F -2.0943951023931966 F -1.0471975511965961 #
coedge $-1 -1 $-1 $226 $230 $77 $146 forward $231 $-1 #
edge $232 -1 $-1 $233 0 $81 0.0014491491756659575 $145 $234 forward @7 unknown #
coedge $-1 -1 $-1 $235 $236 $78 $148 forward $237 $-1 #
edge $238 -1 $-1 $45 0.0014491491756659616 $233 0.0028982983513319194 $147 $239 forward @7 unknown #
face $240 -1 $-1 $228 $79 $3 $-1 $241 forward single #
DXID-attrib $-1 -1 $-1 $80 $40 @18 ASM_EDGE_FROM_STEP @4 4992 #
point $-1 -1 $-1 48.805216266877771 8.1494580493050108 36.552641980892155 #
coedge $-1 -1 $-1 $242 $243 $83 $153 reversed $244 $-1 #
edge $245 -1 $-1 $158 1.0471975511965981 $222 2.0943951023931957 $152 $246 forward @7 unknown #
coedge $-1 -1 $-1 $155 $84 $236 $247 reversed $156 $-1 #
coedge $-1 -1 $-1 $84 $154 $248 $249 reversed $156 $-1 #
loop $-1 -1 $-1 $-1 $84 $250 #
truecolor-adesk-attrib $-1 -1 $251 $-1 $85 -1027161668 #
vertex $-1 -1 $-1 $252 $253 #
ellipse-curve $-1 -1 $-1 50.940924633386956 8.1494580493050108 35.233987449476636 1.2241125243812116e-16 1 -3.6170572499140599e-18 0.074134139766709184 1.933633664164785e-33 2.5089049661796783 1 F -2.9926585632214349e-16 F 1.0471975511965981 #
truecolor-adesk-attrib $-1 -1 $254 $-1 $86 -1027161668 #
cone-surface $-1 -1 $-1 50.940924633386956 8.1494580493050108 35.233987449476636 1.2241125243812116e-16 1 -3.6170572499140599e-18 0.074134139766709184 1.933633664164785e-33 2.5089049661796783 1 I I 0.86602540378443604 0.50000000000000455 2.5100000000000007 forward I I I I #
DXID-attrib $-1 -1 $-1 $91 $49 @18 ASM_FACE_FROM_STEP @16 step-1M-562-4338 #
truecolor-adesk-attrib $-1 -1 $255 $-1 $92 -1027161668 #
face $256 -1 $-1 $126 $257 $3 $-1 $258 forward single #
loop $-1 -1 $-1 $259 $260 $92 #
plane-surface $-1 -1 $-1 50.940924633386956 11.649458049305011 35.233987449476636 1.2241125243812116e-16 1 -3.6170572499140599e-18 0.029535513851278554 7.7037197775489434e-34 0.99956373154568845 forward_v I I I I #
coedge $-1 -1 $-1 $261 $262 $201 $263 forward $93 $-1 #
edge $264 -1 $-1 $67 0 $66 3.1415926535897931 $95 $265 forward @7 unknown #
coedge $-1 -1 $-1 $97 $96 $113 $193 forward $28 $-1 #
coedge $-1 -1 $-1 $266 $110 $96 $171 reversed $190 $-1 #
edge $267 -1 $-1 $176 -0.024309500000000019 $116 -0.0046071067811865492 $96 $268 forward @7 unknown #
coedge $-1 -1 $-1 $110 $266 $97 $173 forward $190 $-1 #
edge $269 -1 $-1 $175 -0.024309500000000019 $119 -0.0046071067811865492 $97 $270 forward @7 unknown #
truecolor-adesk-attrib $-1 -1 $271 $-1 $99 -1027161668 #
vertex $-1 -1 $-1 $99 $272 #
vertex $-1 -1 $-1 $101 $273 #
ellipse-curve $-1 -1 $-1 50.940924633386956 -12.66004195069501 35.233987449476636 1.2241125243812116e-16 1 -3.6170572499140599e-18 0.11814205540511427 3.0814879110195787e-33 3.9982549261827556 1 F 0 F 3.1415926535897931 #
coedge $-1 -1 $-1 $102 $100 $104 $185 forward $180 $-1 #
coedge $-1 -1 $-1 $100 $102 $266 $274 reversed $180 $-1 #
loop $-1 -1 $-1 $-1 $100 $275 #
truecolor-adesk-attrib $-1 -1 $276 $-1 $101 -1027161668 #
straight-curve $-1 -1 $-1 50.843176850296146 -13.350541950694989 31.925931279926179 -20.884762130068385 707.10678118653777 -706.79829280409581 F 3.6613428038064007e-36 F 0.00097651446481860954 #
truecolor-adesk-attrib $-1 -1 $277 $-1 $103 -1027161668 #
straight-curve $-1 -1 $-1 51.038672416477759 -13.350541950694989 38.542043619027091 20.884762130068644 707.10678118653777 706.79829280409581 F 0 F 0.00097651446481860954 #
edge $278 -1 $-1 $108 -3.1415926535897931 $107 0 $178 $279 forward @7 unknown #
face $280 -1 $-1 $194 $105 $3 $-1 $281 forward single #
DXID-attrib $-1 -1 $-1 $106 $56 @18 ASM_EDGE_FROM_STEP @3 619 #
point $-1 -1 $-1 51.038672416477759 -13.350541950694989 38.542043619027091 #
point $-1 -1 $-1 50.843176850296146 -13.350541950694989 31.925931279926179 #
loop $-1 -1 $-1 $-1 $170 $209 #
truecolor-adesk-attrib $-1 -1 $282 $-1 $111 -1027161668 #
ellipse-curve $-1 -1 $-1 50.940924633386956 7.0423512681184608 35.233987449476636 -1.2241125243812116e-16 -1 3.6170572499140599e-18 0.11814205540511427 3.0814879110195787e-33 3.9982549261827556 1 F 0 F 3.1415926535897931 #
edge $283 -1 $-1 $116 -3.1415926535897931 $119 0 $169 $284 forward @7 unknown #
face $285 -1 $-1 $286 $114 $3 $-1 $287 reversed single #
DXID-attrib $-1 -1 $-1 $115 $59 @18 ASM_EDGE_FROM_STEP @4 4125 #
point $-1 -1 $-1 50.82278257798184 7.0423512681184608 31.23573252329388 #
DXID-attrib $-1 -1 $-1 $118 $61 @18 ASM_EDGE_FROM_STEP @4 6115 #
point $-1 -1 $-1 51.059066688792072 7.0423512681184608 39.232242375659389 #
coedge $-1 -1 $-1 $288 $289 $121 $200 forward $257 $-1 #
edge $290 -1 $-1 $206 -3.1415926535897931 $203 0 $199 $291 forward @7 unknown #
coedge $-1 -1 $-1 $122 $124 $167 $263 reversed $50 $-1 #
truecolor-adesk-attrib $-1 -1 $292 $-1 $123 -1027161668 #
vertex $-1 -1 $-1 $263 $293 #
straight-curve $-1 -1 $-1 51.170858608719158 11.034458049304991 43.015591099559821 20.884762130068403 707.10678118654619 706.79829280408762 F -0.0051456915523956006 F 0 #
truecolor-adesk-attrib $-1 -1 $294 $-1 $125 -1027161668 #
vertex $-1 -1 $-1 $125 $295 #
straight-curve $-1 -1 $-1 50.710990658054754 11.034458049304991 27.452383799393452 -20.884762130068143 707.10678118654619 -706.79829280408762 F -0.0051456915523956006 F 0 #
truecolor-adesk-attrib $-1 -1 $296 $-1 $126 -1027161668 #
face $297 -1 $-1 $275 $190 $3 $-1 $298 forward single #
cone-surface $-1 -1 $-1 50.940924633386956 11.034458049304991 35.233987449476636 1.2241125243812116e-16 1 -3.6170572499140599e-18 0.22993397533220358 5.9973458468218532e-33 7.781603650083186 1 I I 0.70710678118654913 0.70710678118654602 7.785000000000001 forward I I I I #
coedge $-1 -1 $-1 $299 $300 $130 $212 forward $301 $-1 #
edge $302 -1 $-1 $303 0 $73 0.001449149175665961 $211 $304 forward @7 unknown #
coedge $-1 -1 $-1 $305 $224 $131 $214 forward $306 $-1 #
edge $307 -1 $-1 $134 0.0014491491756659643 $303 0.0028982983513319229 $213 $308 forward @7 unknown #
face $309 -1 $-1 $310 $132 $3 $-1 $311 forward single #
DXID-attrib $-1 -1 $-1 $133 $70 @18 ASM_EDGE_FROM_STEP @4 5875 #
point $-1 -1 $-1 48.731082127111065 8.1494580493050108 34.04373701471247 #
coedge $-1 -1 $-1 $219 $136 $312 $313 reversed $220 $-1 #
coedge $-1 -1 $-1 $136 $218 $299 $314 reversed $220 $-1 #
loop $-1 -1 $-1 $-1 $136 $310 #
truecolor-adesk-attrib $-1 -1 $315 $-1 $137 -1027161668 #
vertex $-1 -1 $-1 $313 $316 #
ellipse-curve $-1 -1 $-1 50.940924633386956 8.1494580493050108 35.233987449476636 1.2241125243812116e-16 1 -3.6170572499140599e-18 0.074134139766709184 1.933633664164785e-33 2.5089049661796783 1 F 2.0943951023931957 F 3.1415926535897927 #
coedge $-1 -1 $-1 $213 $317 $140 $225 forward $306 $-1 #
edge $318 -1 $-1 $319 0 $134 0.0014491491756659643 $224 $320 forward @7 unknown #
coedge $-1 -1 $-1 $321 $145 $141 $227 forward $231 $-1 #
edge $322 -1 $-1 $81 0.0014491491756659575 $319 0.0028982983513319233 $226 $323 forward @7 unknown #
face $324 -1 $-1 $215 $142 $3 $-1 $325 forward single #
DXID-attrib $-1 -1 $-1 $143 $76 @18 ASM_EDGE_FROM_STEP @3 915 #
coedge $-1 -1 $-1 $145 $326 $235 $327 reversed $231 $-1 #
loop $-1 -1 $-1 $-1 $326 $328 #
truecolor-adesk-attrib $-1 -1 $329 $-1 $146 -1027161668 #
vertex $-1 -1 $-1 $148 $330 #
straight-curve $-1 -1 $-1 49.566541815558644 8.1494580493050108 37.785693781206767 -525.36037108187986 6.1232339957367827e-14 -850.87982729449516 F 0 F 0.0014491491756659575 #
coedge $-1 -1 $-1 $331 $147 $230 $327 forward $237 $-1 #
coedge $-1 -1 $-1 $147 $332 $154 $247 forward $237 $-1 #
loop $-1 -1 $-1 $-1 $331 $333 #
truecolor-adesk-attrib $-1 -1 $334 $-1 $148 -1027161668 #
straight-curve $-1 -1 $-1 52.463575730748694 8.1494580493050108 37.700091050105861 -999.56373154568848 1.2246467991473535e-13 29.535513851278257 F 0.0014491491756659616 F 0.0028982983513319194 #
truecolor-adesk-attrib $-1 -1 $335 $-1 $149 -1027161668 #
plane-surface $-1 -1 $-1 48.043890718196899 8.1494580493050108 35.319590180577542 1.2241125243812116e-16 1 -3.6170572499140599e-18 0.029535513851278554 7.7037197775489434e-34 0.99956373154568845 forward_v I I I I #
coedge $-1 -1 $-1 $243 $152 $336 $252 reversed $244 $-1 #
coedge $-1 -1 $-1 $152 $242 $337 $338 reversed $244 $-1 #
loop $-1 -1 $-1 $-1 $152 $339 #
truecolor-adesk-attrib $-1 -1 $340 $-1 $153 -1027161668 #
ellipse-curve $-1 -1 $-1 50.940924633386956 8.1494580493050108 35.233987449476636 1.2241125243812116e-16 1 -3.6170572499140599e-18 0.074134139766709184 1.933633664164785e-33 2.5089049661796783 1 F 1.0471975511965981 F 2.0943951023931957 #
edge $341 -1 $-1 $342 0 $45 0.0014491491756659616 $236 $343 forward @7 unknown #
coedge $-1 -1 $-1 $344 $336 $155 $249 forward $345 $-1 #
edge $346 -1 $-1 $158 0.0014491491756659593 $342 0.0028982983513319211 $248 $347 forward @7 unknown #
face $348 -1 $-1 $86 $156 $3 $-1 $349 forward single #
DXID-attrib $-1 -1 $-1 $157 $85 @18 ASM_EDGE_FROM_STEP @4 6154 #
edge $350 -1 $-1 $351 0 $158 0.0014491491756659593 $336 $352 forward @7 unknown #
point $-1 -1 $-1 53.150767139662847 8.1494580493050108 36.424237884240796 #
DXID-attrib $-1 -1 $-1 $160 $86 @18 ASM_FACE_FROM_STEP @15 step-1M-562-521 #
DXID-attrib $-1 -1 $-1 $163 $92 @18 ASM_FACE_FROM_STEP @16 step-1M-562-4228 #
truecolor-adesk-attrib $-1 -1 $353 $-1 $164 -1027161668 #
loop $-1 -1 $-1 $-1 $289 $164 #
cone-surface $-1 -1 $-1 50.940924633386956 11.649458049305011 35.233987449476636 1.2241125243812116e-16 1 -3.6170572499140599e-18 0.22993397533220358 5.9973458468218532e-33 7.781603650083186 1 I I 0 1 7.785000000000001 forward I I I I #
loop $-1 -1 $-1 $-1 $354 $92 #
coedge $-1 -1 $-1 $355 $355 $356 $357 forward $165 $-1 #
coedge $-1 -1 $-1 $356 $167 $289 $358 forward $93 $-1 #
coedge $-1 -1 $-1 $167 $356 $288 $359 reversed $93 $-1 #
edge $360 -1 $-1 $203 0 $206 3.1415926535897931 $201 $361 forward @7 unknown #
truecolor-adesk-attrib $-1 -1 $362 $-1 $168 -1027161668 #
ellipse-curve $-1 -1 $-1 50.940924633386956 7.3959046587117339 35.233987449476636 1.2241125243812116e-16 1 -3.6170572499140599e-18 0.12246743126571949 3.1943062751437388e-33 4.1446376455535594 1 F 0 F 3.1415926535897931 #
coedge $-1 -1 $-1 $172 $170 $179 $274 forward $190 $-1 #
truecolor-adesk-attrib $-1 -1 $363 $-1 $171 -1027161668 #
straight-curve $-1 -1 $-1 50.82278257798184 11.649458049305011 31.23573252329388 1.2241125243812116e-13 1000 -3.6170572499140601e-15 F -0.024309500000000019 F -0.0046071067811865492 #
truecolor-adesk-attrib $-1 -1 $364 $-1 $173 -1027161668 #
straight-curve $-1 -1 $-1 51.059066688792072 11.649458049305011 39.232242375659389 1.2241125243812116e-13 1000 -3.6170572499140601e-15 F -0.024309500000000019 F -0.0046071067811865492 #
DXID-attrib $-1 -1 $-1 $174 $99 @18 ASM_EDGE_FROM_STEP @4 3470 #
point $-1 -1 $-1 51.059066688792065 -12.66004195069501 39.232242375659389 #
point $-1 -1 $-1 50.82278257798184 -12.66004195069501 31.23573252329388 #
edge $365 -1 $-1 $176 -3.1415926535897931 $175 0 $266 $366 forward @7 unknown #
face $367 -1 $-1 $186 $180 $3 $-1 $368 forward single #
DXID-attrib $-1 -1 $-1 $181 $101 @18 ASM_EDGE_FROM_STEP @4 3883 #
DXID-attrib $-1 -1 $-1 $183 $103 @18 ASM_EDGE_FROM_STEP @4 2940 #
truecolor-adesk-attrib $-1 -1 $369 $-1 $185 -1027161668 #
ellipse-curve $-1 -1 $-1 50.940924633386956 -13.350541950694989 35.233987449476636 1.2241125243812116e-16 1 -3.6170572499140599e-18 0.097747783090806381 2.5495460603798231e-33 3.3080561695504564 1 F -3.1415926535897931 F 0 #
truecolor-adesk-attrib $-1 -1 $370 $-1 $186 -1027161668 #
plane-surface $-1 -1 $-1 54.24898080293741 -13.350541950694989 35.136239666385833 -1.2241125243812116e-16 -1 3.6170572499140599e-18 -0.029535513851278554 -7.7037197775489434e-34 -0.99956373154568845 forward_v I I I I #
DXID-attrib $-1 -1 $-1 $191 $111 @18 ASM_EDGE_FROM_STEP @4 5030 #
truecolor-adesk-attrib $-1 -1 $371 $-1 $193 -1027161668 #
ellipse-curve $-1 -1 $-1 50.940924633386956 7.0423512681184608 35.233987449476636 -1.2241125243812116e-16 -1 3.6170572499140599e-18 0.11814205540511427 3.0814879110195787e-33 3.9982549261827556 1 F -3.1415926535897931 F 0 #
truecolor-adesk-attrib $-1 -1 $372 $-1 $194 -1027161668 #
face $373 -1 $-1 $374 $306 $3 $-1 $375 forward single #
torus-surface $-1 -1 $-1 50.940924633386956 7.0423512681184608 35.233987449476636 1.2241125243812116e-16 1 -3.6170572499140599e-18 4.5000000000000027 0.5 0.029535513851278554 7.7037197775489434e-34 0.99956373154568845 forward_v I I I I #
coedge $-1 -1 $-1 $376 $199 $262 $359 forward $257 $-1 #
coedge $-1 -1 $-1 $199 $376 $261 $358 reversed $257 $-1 #
truecolor-adesk-attrib $-1 -1 $377 $-1 $200 -1027161668 #
ellipse-curve $-1 -1 $-1 50.940924633386956 11.034458049304991 35.233987449476636 1.2241125243812116e-16 1 -3.6170572499140599e-18 0.22993397533220358 5.9973458468218532e-33 7.781603650083186 1 F -3.1415926535897931 F 0 #
DXID-attrib $-1 -1 $-1 $202 $123 @18 ASM_EDGE_FROM_STEP @4 5138 #
point $-1 -1 $-1 51.170858608719158 11.034458049304991 43.015591099559821 #
DXID-attrib $-1 -1 $-1 $205 $125 @18 ASM_EDGE_FROM_STEP @4 2210 #
point $-1 -1 $-1 50.710990658054754 11.034458049304991 27.452383799393452 #
DXID-attrib $-1 -1 $-1 $208 $126 @18 ASM_FACE_FROM_STEP @16 step-1M-562-3020 #
truecolor-adesk-attrib $-1 -1 $378 $-1 $209 -1027161668 #
cone-surface $-1 -1 $-1 50.940924633386956 11.649458049305011 35.233987449476636 1.2241125243812116e-16 1 -3.6170572499140599e-18 0.11814205540511427 3.0814879110195787e-33 3.9982549261827556 1 I I 0 1 4.0000000000000018 forward I I I I #
coedge $-1 -1 $-1 $379 $211 $219 $314 forward $301 $-1 #
coedge $-1 -1 $-1 $211 $380 $305 $381 reversed $301 $-1 #
loop $-1 -1 $-1 $-1 $380 $374 #
truecolor-adesk-attrib $-1 -1 $382 $-1 $212 -1027161668 #
vertex $-1 -1 $-1 $214 $383 #
straight-curve $-1 -1 $-1 49.418273536025218 8.1494580493050108 32.767883848847411 999.56373154568848 -1.2246467991473535e-13 -29.535513851278107 F 0 F 0.001449149175665961 #
coedge $-1 -1 $-1 $384 $213 $300 $381 forward $306 $-1 #
loop $-1 -1 $-1 $-1 $384 $286 #
truecolor-adesk-attrib $-1 -1 $385 $-1 $214 -1027161668 #
straight-curve $-1 -1 $-1 48.043890718196899 8.1494580493050108 35.319590180577535 474.20336046381095 -6.1232339957367801e-14 -880.41534114577416 F 0.0014491491756659643 F 0.0028982983513319229 #
truecolor-adesk-attrib $-1 -1 $386 $-1 $215 -1027161668 #
face $387 -1 $-1 $339 $220 $3 $-1 $388 forward single #
plane-surface $-1 -1 $-1 48.043890718196899 8.1494580493050108 35.319590180577542 1.2241125243812116e-16 1 -3.6170572499140599e-18 0.029535513851278554 7.7037197775489434e-34 0.99956373154568845 forward_v I I I I #
coedge $-1 -1 $-1 $337 $389 $218 $313 forward $390 $-1 #
edge $391 -1 $-1 $392 0 $222 0.0014491491756659593 $312 $393 forward @7 unknown #
edge $394 -1 $-1 $73 0.001449149175665961 $392 0.0028982983513319207 $299 $395 forward @7 unknown #
DXID-attrib $-1 -1 $-1 $221 $137 @18 ASM_EDGE_FROM_STEP @4 5431 #
point $-1 -1 $-1 53.076632999896141 8.1494580493050108 33.915332918061118 #
coedge $-1 -1 $-1 $224 $384 $321 $396 reversed $306 $-1 #
truecolor-adesk-attrib $-1 -1 $397 $-1 $225 -1027161668 #
vertex $-1 -1 $-1 $396 $398 #
straight-curve $-1 -1 $-1 48.043890718196899 8.1494580493050108 35.319590180577535 474.20336046381095 -6.1232339957367801e-14 -880.41534114577416 F 0 F 0.0014491491756659643 #
coedge $-1 -1 $-1 $326 $226 $317 $396 forward $231 $-1 #
truecolor-adesk-attrib $-1 -1 $399 $-1 $227 -1027161668 #
straight-curve $-1 -1 $-1 49.566541815558644 8.1494580493050108 37.785693781206767 -525.36037108187986 6.1232339957367827e-14 -850.87982729449516 F 0.0014491491756659575 F 0.0028982983513319233 #
truecolor-adesk-attrib $-1 -1 $400 $-1 $228 -1027161668 #
plane-surface $-1 -1 $-1 48.043890718196899 8.1494580493050108 35.319590180577542 1.2241125243812116e-16 1 -3.6170572499140599e-18 0.029535513851278554 7.7037197775489434e-34 0.99956373154568845 forward_v I I I I #
coedge $-1 -1 $-1 $230 $321 $354 $401 reversed $231 $-1 #
edge $402 -1 $-1 $233 0 $403 0.0035000000000000005 $235 $404 forward @7 unknown #
face $405 -1 $-1 $149 $231 $3 $-1 $406 forward single #
DXID-attrib $-1 -1 $-1 $232 $146 @18 ASM_EDGE_FROM_STEP @4 2017 #
point $-1 -1 $-1 49.566541815558644 8.1494580493050108 37.785693781206767 #
coedge $-1 -1 $-1 $332 $235 $407 $408 reversed $237 $-1 #
coedge $-1 -1 $-1 $236 $331 $344 $409 reversed $237 $-1 #
face $410 -1 $-1 $328 $237 $3 $-1 $411 forward single #
DXID-attrib $-1 -1 $-1 $238 $148 @18 ASM_EDGE_FROM_STEP @4 1455 #
DXID-attrib $-1 -1 $-1 $240 $149 @18 ASM_FACE_FROM_STEP @15 step-1M-562-314 #
coedge $-1 -1 $-1 $248 $412 $242 $252 forward $345 $-1 #
coedge $-1 -1 $-1 $413 $312 $243 $338 forward $390 $-1 #
edge $414 -1 $-1 $222 0.0014491491756659593 $351 0.002898298351331919 $337 $415 forward @7 unknown #
face $416 -1 $-1 $250 $244 $3 $-1 $417 forward single #
DXID-attrib $-1 -1 $-1 $245 $153 @18 ASM_EDGE_FROM_STEP @4 3197 #
truecolor-adesk-attrib $-1 -1 $418 $-1 $247 -1027161668 #
vertex $-1 -1 $-1 $249 $419 #
straight-curve $-1 -1 $-1 52.463575730748694 8.1494580493050108 37.700091050105861 -999.56373154568848 1.2246467991473535e-13 29.535513851278257 F 0 F 0.0014491491756659616 #
coedge $-1 -1 $-1 $420 $248 $332 $409 forward $345 $-1 #
loop $-1 -1 $-1 $-1 $420 $421 #
truecolor-adesk-attrib $-1 -1 $422 $-1 $249 -1027161668 #
straight-curve $-1 -1 $-1 53.837958548577006 8.1494580493050108 35.148384718375738 -474.20336046380953 6.1232339957367637e-14 880.41534114577462 F 0.0014491491756659593 F 0.0028982983513319211 #
truecolor-adesk-attrib $-1 -1 $423 $-1 $250 -1027161668 #
plane-surface $-1 -1 $-1 48.043890718196899 8.1494580493050108 35.319590180577542 1.2241125243812116e-16 1 -3.6170572499140599e-18 0.029535513851278554 7.7037197775489434e-34 0.99956373154568845 forward_v I I I I #
truecolor-adesk-attrib $-1 -1 $424 $-1 $252 -1027161668 #
vertex $-1 -1 $-1 $338 $425 #
straight-curve $-1 -1 $-1 53.837958548577006 8.1494580493050108 35.148384718375738 -474.20336046380953 6.1232339957367637e-14 880.41534114577462 F 0 F 0.0014491491756659593 #
DXID-attrib $-1 -1 $-1 $256 $164 @18 ASM_FACE_FROM_STEP @15 step-1M-562-864 #
coedge $-1 -1 $-1 $426 $407 $326 $401 forward $259 $-1 #
coedge $-1 -1 $-1 $260 $260 $376 $427 forward $165 $-1 #
coedge $-1 -1 $-1 $262 $261 $260 $357 reversed $93 $-1 #
edge $428 -1 $-1 $429 0 $430 3.1415926535897931 $356 $431 forward @7 unknown #
edge $432 -1 $-1 $206 -0.00061500000000001994 $430 0 $261 $433 forward @7 unknown #
edge $434 -1 $-1 $203 -0.00061500000000001994 $429 0 $262 $435 forward @7 unknown #
truecolor-adesk-attrib $-1 -1 $436 $-1 $263 -1027161668 #
ellipse-curve $-1 -1 $-1 50.940924633386956 11.034458049304991 35.233987449476636 1.2241125243812116e-16 1 -3.6170572499140599e-18 0.22993397533220358 5.9973458468218532e-33 7.781603650083186 1 F 0 F 3.1415926535897931 #
DXID-attrib $-1 -1 $-1 $264 $168 @18 ASM_EDGE_FROM_STEP @4 5606 #
DXID-attrib $-1 -1 $-1 $267 $171 @18 ASM_EDGE_FROM_STEP @3 294 #
DXID-attrib $-1 -1 $-1 $269 $173 @18 ASM_EDGE_FROM_STEP @3 861 #
truecolor-adesk-attrib $-1 -1 $437 $-1 $274 -1027161668 #
ellipse-curve $-1 -1 $-1 50.940924633386956 -12.66004195069501 35.233987449476636 1.2241125243812116e-16 1 -3.6170572499140599e-18 0.11814205540511427 3.0814879110195787e-33 3.9982549261827556 1 F -3.1415926535897931 F 0 #
truecolor-adesk-attrib $-1 -1 $438 $-1 $275 -1027161668 #
cone-surface $-1 -1 $-1 50.940924633386956 -13.350541950694989 35.233987449476636 1.2241125243812116e-16 1 -3.6170572499140599e-18 0.097747783090806381 2.5495460603798231e-33 3.3080561695504564 1 I I 0.70710678118655734 0.70710678118653769 3.3095000000000003 forward I I I I #
DXID-attrib $-1 -1 $-1 $278 $185 @18 ASM_EDGE_FROM_STEP @3 246 #
DXID-attrib $-1 -1 $-1 $280 $186 @18 ASM_FACE_FROM_STEP @16 step-1M-562-6644 #
DXID-attrib $-1 -1 $-1 $283 $193 @18 ASM_EDGE_FROM_STEP @4 5636 #
DXID-attrib $-1 -1 $-1 $285 $194 @18 ASM_FACE_FROM_STEP @16 step-1M-562-1549 #
truecolor-adesk-attrib $-1 -1 $439 $-1 $286 -1027161668 #
face $440 -1 $-1 $441 $301 $3 $-1 $442 forward single #
plane-surface $-1 -1 $-1 48.043890718196899 8.1494580493050108 35.319590180577535 0.8804153411457738 -1.0605752387249065e-16 0.47420336046381073 -0.47420336046381073 6.1232339957367784e-17 0.88041534114577391 forward_v I I I I #
coedge $-1 -1 $-1 $289 $288 $355 $427 reversed $257 $-1 #
DXID-attrib $-1 -1 $-1 $290 $200 @18 ASM_EDGE_FROM_STEP @4 4272 #
DXID-attrib $-1 -1 $-1 $297 $209 @18 ASM_FACE_FROM_STEP @16 step-1M-562-5704 #
coedge $-1 -1 $-1 $380 $299 $389 $443 forward $301 $-1 #
coedge $-1 -1 $-1 $300 $379 $444 $445 reversed $301 $-1 #
edge $446 -1 $-1 $303 0 $447 0.0035000000000000005 $305 $448 forward @7 unknown #
DXID-attrib $-1 -1 $-1 $302 $212 @18 ASM_EDGE_FROM_STEP @4 6021 #
point $-1 -1 $-1 49.418273536025218 8.1494580493050108 32.767883848847411 #
coedge $-1 -1 $-1 $317 $305 $426 $449 reversed $306 $-1 #
DXID-attrib $-1 -1 $-1 $307 $214 @18 ASM_EDGE_FROM_STEP @4 3046 #
DXID-attrib $-1 -1 $-1 $309 $215 @18 ASM_FACE_FROM_STEP @16 step-1M-562-6200 #
truecolor-adesk-attrib $-1 -1 $450 $-1 $310 -1027161668 #
plane-surface $-1 -1 $-1 48.043890718196899 8.1494580493050108 35.319590180577542 1.2241125243812116e-16 1 -3.6170572499140599e-18 0.029535513851278554 7.7037197775489434e-34 0.99956373154568845 forward_v I I I I #
coedge $-1 -1 $-1 $312 $451 $379 $443 reversed $390 $-1 #
loop $-1 -1 $-1 $-1 $451 $441 #
truecolor-adesk-attrib $-1 -1 $452 $-1 $313 -1027161668 #
vertex $-1 -1 $-1 $314 $453 #
straight-curve $-1 -1 $-1 52.315307451215276 8.1494580493050108 32.682281117746506 525.36037108187872 -6.1232339957367688e-14 850.87982729449607 F 0 F 0.0014491491756659593 #
truecolor-adesk-attrib $-1 -1 $454 $-1 $314 -1027161668 #
straight-curve $-1 -1 $-1 49.418273536025218 8.1494580493050108 32.767883848847411 999.56373154568848 -1.2246467991473535e-13 -29.535513851278107 F 0.001449149175665961 F 0.0028982983513319207 #
edge $455 -1 $-1 $319 0 $456 0.0035000000000000005 $317 $457 forward @7 unknown #
DXID-attrib $-1 -1 $-1 $318 $225 @18 ASM_EDGE_FROM_STEP @3 906 #
point $-1 -1 $-1 48.043890718196899 8.1494580493050108 35.319590180577535 #
DXID-attrib $-1 -1 $-1 $322 $227 @18 ASM_EDGE_FROM_STEP @4 3659 #
DXID-attrib $-1 -1 $-1 $324 $228 @18 ASM_FACE_FROM_STEP @16 step-1M-562-2183 #
edge $458 -1 $-1 $403 0 $456 0.0028982983513319233 $354 $459 forward @7 unknown #
truecolor-adesk-attrib $-1 -1 $460 $-1 $327 -1027161668 #
vertex $-1 -1 $-1 $401 $461 #
straight-curve $-1 -1 $-1 49.566541815558644 8.1494580493050108 37.785693781206767 1.2241125243812116e-13 1000 -3.6170572499140601e-15 F 0 F 0.0035000000000000005 #
truecolor-adesk-attrib $-1 -1 $462 $-1 $328 -1027161668 #
plane-surface $-1 -1 $-1 49.566541815558644 8.1494580493050108 37.785693781206767 0.85087982729449507 -1.0605752387249064e-16 -0.52536037108187983 0.52536037108187994 -6.1232339957367833e-17 0.85087982729449518 forward_v I I I I #
coedge $-1 -1 $-1 $354 $463 $331 $408 forward $259 $-1 #
edge $464 -1 $-1 $465 0 $403 0.0028982983513319194 $407 $466 forward @7 unknown #
edge $467 -1 $-1 $342 0 $465 0.0035000000000000005 $344 $468 forward @7 unknown #
truecolor-adesk-attrib $-1 -1 $469 $-1 $333 -1027161668 #
plane-surface $-1 -1 $-1 52.463575730748694 8.1494580493050108 37.700091050105861 -0.029535513851278256 -3.741986928165538e-32 -0.99956373154568845 0.99956373154568845 -1.2246467991473535e-16 -0.029535513851278256 forward_v I I I I #
coedge $-1 -1 $-1 $336 $420 $413 $470 reversed $345 $-1 #
coedge $-1 -1 $-1 $451 $337 $412 $470 forward $390 $-1 #
truecolor-adesk-attrib $-1 -1 $471 $-1 $338 -1027161668 #
straight-curve $-1 -1 $-1 52.315307451215276 8.1494580493050108 32.682281117746506 525.36037108187872 -6.1232339957367688e-14 850.87982729449607 F 0.0014491491756659593 F 0.002898298351331919 #
truecolor-adesk-attrib $-1 -1 $472 $-1 $339 -1027161668 #
plane-surface $-1 -1 $-1 48.043890718196899 8.1494580493050108 35.319590180577542 1.2241125243812116e-16 1 -3.6170572499140599e-18 0.029535513851278554 7.7037197775489434e-34 0.99956373154568845 forward_v I I I I #
DXID-attrib $-1 -1 $-1 $341 $247 @18 ASM_EDGE_FROM_STEP @4 6122 #
point $-1 -1 $-1 52.463575730748694 8.1494580493050108 37.700091050105861 #
coedge $-1 -1 $-1 $412 $344 $463 $473 reversed $345 $-1 #
face $474 -1 $-1 $333 $345 $3 $-1 $475 forward single #
DXID-attrib $-1 -1 $-1 $346 $249 @18 ASM_EDGE_FROM_STEP @4 2897 #
DXID-attrib $-1 -1 $-1 $348 $250 @18 ASM_FACE_FROM_STEP @16 step-1M-562-4801 #
DXID-attrib $-1 -1 $-1 $350 $252 @18 ASM_EDGE_FROM_STEP @4 2406 #
point $-1 -1 $-1 53.837958548577006 8.1494580493050108 35.148384718375738 #
coedge $-1 -1 $-1 $444 $354 $384 $449 forward $259 $-1 #
edge $476 -1 $-1 $430 -3.1415926535897931 $429 0 $355 $477 forward @7 unknown #
truecolor-adesk-attrib $-1 -1 $478 $-1 $357 -1027161668 #
vertex $-1 -1 $-1 $357 $479 #
vertex $-1 -1 $-1 $358 $480 #
ellipse-curve $-1 -1 $-1 50.940924633386956 11.649458049305011 35.233987449476636 1.2241125243812116e-16 1 -3.6170572499140599e-18 0.22993397533220358 5.9973458468218532e-33 7.781603650083186 1 F 0 F 3.1415926535897931 #
truecolor-adesk-attrib $-1 -1 $481 $-1 $358 -1027161668 #
straight-curve $-1 -1 $-1 50.710990658054754 11.649458049305011 27.452383799393452 1.2241125243812116e-13 1000 -3.6170572499140601e-15 F -0.00061500000000001994 F 0 #
truecolor-adesk-attrib $-1 -1 $482 $-1 $359 -1027161668 #
straight-curve $-1 -1 $-1 51.170858608719158 11.649458049305011 43.015591099559821 1.2241125243812116e-13 1000 -3.6170572499140601e-15 F -0.00061500000000001994 F 0 #
DXID-attrib $-1 -1 $-1 $360 $263 @18 ASM_EDGE_FROM_STEP @4 2440 #
DXID-attrib $-1 -1 $-1 $365 $274 @18 ASM_EDGE_FROM_STEP @4 4784 #
DXID-attrib $-1 -1 $-1 $367 $275 @18 ASM_FACE_FROM_STEP @16 step-1M-562-1129 #
DXID-attrib $-1 -1 $-1 $373 $286 @18 ASM_FACE_FROM_STEP @16 step-1M-562-4036 #
truecolor-adesk-attrib $-1 -1 $483 $-1 $374 -1027161668 #
face $484 -1 $-1 $421 $390 $3 $-1 $485 forward single #
plane-surface $-1 -1 $-1 49.418273536025218 8.1494580493050108 32.767883848847411 0.029535513851278106 5.5744617933605596e-32 0.99956373154568845 -0.99956373154568845 1.2246467991473535e-16 0.029535513851278106 forward_v I I I I #
edge $486 -1 $-1 $392 0 $487 0.0035000000000000005 $379 $488 forward @7 unknown #
coedge $-1 -1 $-1 $489 $426 $380 $445 forward $259 $-1 #
edge $490 -1 $-1 $447 0 $487 0.0028982983513319207 $444 $491 forward @7 unknown #
truecolor-adesk-attrib $-1 -1 $492 $-1 $381 -1027161668 #
vertex $-1 -1 $-1 $449 $493 #
straight-curve $-1 -1 $-1 49.418273536025218 8.1494580493050108 32.767883848847411 1.2241125243812116e-13 1000 -3.6170572499140601e-15 F 0 F 0.0035000000000000005 #
edge $494 -1 $-1 $456 4.3284950695044185e-19 $447 0.0028982983513319229 $426 $495 forward @7 unknown #
DXID-attrib $-1 -1 $-1 $387 $310 @18 ASM_FACE_FROM_STEP @16 step-1M-562-2535 #
coedge $-1 -1 $-1 $389 $413 $489 $496 reversed $390 $-1 #
DXID-attrib $-1 -1 $-1 $391 $313 @18 ASM_EDGE_FROM_STEP @4 6712 #
point $-1 -1 $-1 52.315307451215276 8.1494580493050108 32.682281117746506 #
DXID-attrib $-1 -1 $-1 $394 $314 @18 ASM_EDGE_FROM_STEP @4 4866 #
truecolor-adesk-attrib $-1 -1 $497 $-1 $396 -1027161668 #
vertex $-1 -1 $-1 $401 $498 #
straight-curve $-1 -1 $-1 48.043890718196899 8.1494580493050108 35.319590180577535 1.2241125243812116e-13 1000 -3.6170572499140601e-15 F 0 F 0.0035000000000000005 #
truecolor-adesk-attrib $-1 -1 $499 $-1 $401 -1027161668 #
straight-curve $-1 -1 $-1 49.566541815558644 11.649458049305011 37.785693781206767 -525.36037108187986 6.1232339957367827e-14 -850.87982729449516 F 0 F 0.0028982983513319233 #
DXID-attrib $-1 -1 $-1 $402 $327 @18 ASM_EDGE_FROM_STEP @4 3056 #
point $-1 -1 $-1 49.566541815558644 11.649458049305011 37.785693781206767 #
DXID-attrib $-1 -1 $-1 $405 $328 @18 ASM_FACE_FROM_STEP @16 step-1M-562-2977 #
coedge $-1 -1 $-1 $407 $489 $420 $473 forward $259 $-1 #
truecolor-adesk-attrib $-1 -1 $500 $-1 $408 -1027161668 #
vertex $-1 -1 $-1 $473 $501 #
straight-curve $-1 -1 $-1 52.463575730748694 11.649458049305011 37.700091050105861 -999.56373154568848 1.2246467991473535e-13 29.535513851278257 F 0 F 0.0028982983513319194 #
truecolor-adesk-attrib $-1 -1 $502 $-1 $409 -1027161668 #
straight-curve $-1 -1 $-1 52.463575730748694 8.1494580493050108 37.700091050105861 1.2241125243812116e-13 1000 -3.6170572499140601e-15 F 0 F 0.0035000000000000005 #
DXID-attrib $-1 -1 $-1 $410 $333 @18 ASM_FACE_FROM_STEP @16 step-1M-562-2579 #
edge $503 -1 $-1 $351 0 $504 0.0035000000000000005 $413 $505 forward @7 unknown #
DXID-attrib $-1 -1 $-1 $414 $338 @18 ASM_EDGE_FROM_STEP @4 6404 #
DXID-attrib $-1 -1 $-1 $416 $339 @18 ASM_FACE_FROM_STEP @16 step-1M-562-5812 #
edge $506 -1 $-1 $504 0 $465 0.0028982983513319211 $463 $507 forward @7 unknown #
truecolor-adesk-attrib $-1 -1 $508 $-1 $421 -1027161668 #
plane-surface $-1 -1 $-1 53.837958548577006 8.1494580493050108 35.148384718375738 -0.88041534114577447 1.0605752387249073e-16 -0.47420336046380956 0.47420336046380962 -6.1232339957367648e-17 -0.88041534114577458 forward_v I I I I #
truecolor-adesk-attrib $-1 -1 $509 $-1 $427 -1027161668 #
ellipse-curve $-1 -1 $-1 50.940924633386956 11.649458049305011 35.233987449476636 1.2241125243812116e-16 1 -3.6170572499140599e-18 0.22993397533220358 5.9973458468218532e-33 7.781603650083186 1 F -3.1415926535897931 F 0 #
DXID-attrib $-1 -1 $-1 $428 $357 @18 ASM_EDGE_FROM_STEP @4 6667 #
point $-1 -1 $-1 51.170858608719158 11.649458049305011 43.015591099559821 #
point $-1 -1 $-1 50.710990658054754 11.649458049305011 27.452383799393452 #
DXID-attrib $-1 -1 $-1 $432 $358 @18 ASM_EDGE_FROM_STEP @4 7189 #
DXID-attrib $-1 -1 $-1 $434 $359 @18 ASM_EDGE_FROM_STEP @4 2855 #
DXID-attrib $-1 -1 $-1 $440 $374 @18 ASM_FACE_FROM_STEP @16 step-1M-562-5846 #
truecolor-adesk-attrib $-1 -1 $510 $-1 $441 -1027161668 #
plane-surface $-1 -1 $-1 52.315307451215276 8.1494580493050108 32.682281117746506 -0.85087982729449585 1.0605752387249072e-16 0.52536037108187872 -0.52536037108187883 6.1232339957367697e-17 -0.85087982729449596 forward_v I I I I #
truecolor-adesk-attrib $-1 -1 $511 $-1 $443 -1027161668 #
vertex $-1 -1 $-1 $445 $512 #
straight-curve $-1 -1 $-1 52.315307451215276 8.1494580493050108 32.682281117746506 1.2241125243812116e-13 1000 -3.6170572499140601e-15 F 0 F 0.0035000000000000005 #
coedge $-1 -1 $-1 $463 $444 $451 $496 forward $259 $-1 #
truecolor-adesk-attrib $-1 -1 $513 $-1 $445 -1027161668 #
straight-curve $-1 -1 $-1 49.418273536025218 11.649458049305011 32.767883848847411 999.56373154568848 -1.2246467991473535e-13 -29.535513851278107 F 0 F 0.0028982983513319207 #
DXID-attrib $-1 -1 $-1 $446 $381 @18 ASM_EDGE_FROM_STEP @4 5707 #
point $-1 -1 $-1 49.418273536025218 11.649458049305011 32.767883848847411 #
truecolor-adesk-attrib $-1 -1 $514 $-1 $449 -1027161668 #
straight-curve $-1 -1 $-1 48.043890718196899 11.649458049305011 35.319590180577535 474.20336046381095 -6.1232339957367801e-14 -880.41534114577416 F 4.3284950695044185e-19 F 0.0028982983513319229 #
edge $515 -1 $-1 $487 0 $504 0.002898298351331919 $489 $516 forward @7 unknown #
DXID-attrib $-1 -1 $-1 $455 $396 @18 ASM_EDGE_FROM_STEP @4 2354 #
point $-1 -1 $-1 48.043890718196899 11.649458049305011 35.319590180577535 #
DXID-attrib $-1 -1 $-1 $458 $401 @18 ASM_EDGE_FROM_STEP @4 2392 #
DXID-attrib $-1 -1 $-1 $464 $408 @18 ASM_EDGE_FROM_STEP @4 7104 #
point $-1 -1 $-1 52.463575730748694 11.649458049305011 37.700091050105861 #
DXID-attrib $-1 -1 $-1 $467 $409 @18 ASM_EDGE_FROM_STEP @4 4080 #
truecolor-adesk-attrib $-1 -1 $517 $-1 $470 -1027161668 #
vertex $-1 -1 $-1 $496 $518 #
straight-curve $-1 -1 $-1 53.837958548577006 8.1494580493050108 35.148384718375738 1.2241125243812116e-13 1000 -3.6170572499140601e-15 F 0 F 0.0035000000000000005 #
truecolor-adesk-attrib $-1 -1 $519 $-1 $473 -1027161668 #
straight-curve $-1 -1 $-1 53.837958548577006 11.649458049305011 35.148384718375738 -474.20336046380953 6.1232339957367637e-14 880.41534114577462 F 0 F 0.0028982983513319211 #
DXID-attrib $-1 -1 $-1 $474 $421 @18 ASM_FACE_FROM_STEP @16 step-1M-562-2500 #
DXID-attrib $-1 -1 $-1 $476 $427 @18 ASM_EDGE_FROM_STEP @4 4649 #
DXID-attrib $-1 -1 $-1 $484 $441 @18 ASM_FACE_FROM_STEP @15 step-1M-562-236 #
DXID-attrib $-1 -1 $-1 $486 $443 @18 ASM_EDGE_FROM_STEP @4 6251 #
point $-1 -1 $-1 52.315307451215276 11.649458049305011 32.682281117746506 #
DXID-attrib $-1 -1 $-1 $490 $445 @18 ASM_EDGE_FROM_STEP @4 2811 #
DXID-attrib $-1 -1 $-1 $494 $449 @18 ASM_EDGE_FROM_STEP @4 2761 #
truecolor-adesk-attrib $-1 -1 $520 $-1 $496 -1027161668 #
straight-curve $-1 -1 $-1 52.315307451215276 11.649458049305011 32.682281117746506 525.36037108187872 -6.1232339957367688e-14 850.87982729449607 F 0 F 0.002898298351331919 #
DXID-attrib $-1 -1 $-1 $503 $470 @18 ASM_EDGE_FROM_STEP @4 2672 #
point $-1 -1 $-1 53.837958548577006 11.649458049305011 35.148384718375738 #
DXID-attrib $-1 -1 $-1 $506 $473 @18 ASM_EDGE_FROM_STEP @4 6028 #
DXID-attrib $-1 -1 $-1 $515 $496 @18 ASM_EDGE_FROM_STEP @4 2118 #
