700 350 1 0         
5 ZWCAD 12 ACIS 28.0 NT 24 Mon May 13 09:27:35 2024 
1 9.9999999999999995e-07 1e-10 
body $1 -1 $-1 $2 $-1 $-1 #
DXID-attrib $-1 -1 $-1 $-1 $0 @18 ASM_BODY_FROM_STEP @83 B5D4BAA6FCADFCF3F9E9413A2D3FB8EE63E66115|:|2EB18B6C522D039C3C0DCD7089256C0AD6492059 #
lump $-1 -1 $-1 $-1 $3 $0 #
shell $-1 -1 $-1 $-1 $-1 $4 $-1 $2 #
face $5 -1 $-1 $6 $7 $3 $-1 $8 forward single #
truecolor-adesk-attrib $-1 -1 $9 $-1 $4 -1027161668 #
face $10 -1 $-1 $11 $12 $3 $-1 $13 forward single #
loop $-1 -1 $-1 $-1 $14 $4 #
cone-surface $-1 -1 $-1 25.115022477405393 96.306468245397241 -13 0 -1 0 3.4365055114148122 0 -1.659806371995123 1 I I 0.70710678118654824 0.7071067811865468 3.816349999999999 forward I I I I #
DXID-attrib $-1 -1 $-1 $5 $4 @18 ASM_FACE_FROM_STEP @17 step-1M-461-11655 #
truecolor-adesk-attrib $-1 -1 $15 $-1 $6 -1027161668 #
face $16 -1 $-1 $17 $18 $3 $-1 $19 forward single #
loop $-1 -1 $-1 $-1 $20 $6 #
cone-surface $-1 -1 $-1 25.115022477405393 109.00646824539722 -13 0 1 0 -4.2884844152431123 0 2.0713057886794388 1 I I 0 1 4.7625000000000011 forward I I I I #
coedge $-1 -1 $-1 $21 $22 $23 $24 reversed $7 $-1 #
DXID-attrib $-1 -1 $-1 $10 $6 @18 ASM_FACE_FROM_STEP @17 step-1M-461-11617 #
truecolor-adesk-attrib $-1 -1 $25 $-1 $11 -1027161668 #
face $26 -1 $-1 $27 $28 $3 $-1 $29 forward single #
loop $-1 -1 $-1 $-1 $30 $11 #
cone-surface $-1 -1 $-1 25.115022477405393 68.18264771230514 -13 0 1 0 -4.2884844152431123 0 2.0713057886794388 1 I I 0.81915204428899302 0.57357643635104438 4.7625000000000011 forward I I I I #
coedge $-1 -1 $-1 $31 $32 $33 $34 forward $12 $-1 #
coedge $-1 -1 $-1 $35 $14 $36 $37 forward $7 $-1 #
coedge $-1 -1 $-1 $14 $35 $38 $39 reversed $7 $-1 #
coedge $-1 -1 $-1 $40 $40 $14 $24 forward $41 $-1 #
edge $42 -1 $-1 $43 1.3764540978769334e-16 $44 3.1415926535897931 $14 $45 forward @7 unknown #
DXID-attrib $-1 -1 $-1 $16 $11 @18 ASM_FACE_FROM_STEP @16 step-1M-461-8792 #
truecolor-adesk-attrib $-1 -1 $46 $-1 $17 -1027161668 #
face $47 -1 $-1 $48 $41 $3 $-1 $49 forward single #
loop $-1 -1 $-1 $-1 $50 $17 #
cone-surface $-1 -1 $-1 25.115022477405393 109.00646824539722 -13 0 1 0 -2.8589896101620735 0 1.3808705257862921 1 I I 0 1 3.1749999999999998 forward I I I I #
coedge $-1 -1 $-1 $51 $52 $53 $54 forward $18 $-1 #
coedge $-1 -1 $-1 $55 $20 $56 $57 forward $12 $-1 #
coedge $-1 -1 $-1 $20 $55 $58 $59 reversed $12 $-1 #
coedge $-1 -1 $-1 $52 $51 $20 $34 reversed $18 $-1 #
edge $60 -1 $-1 $61 0 $62 3.1415926535897931 $20 $63 forward @7 unknown #
coedge $-1 -1 $-1 $22 $21 $55 $64 forward $7 $-1 #
coedge $-1 -1 $-1 $65 $66 $21 $37 reversed $67 $-1 #
edge $68 -1 $-1 $43 5.0169145457224903e-36 $69 0.001338058162039305 $21 $70 forward @7 unknown #
coedge $-1 -1 $-1 $66 $65 $22 $39 forward $67 $-1 #
edge $71 -1 $-1 $44 0 $72 0.001338058162039305 $22 $73 forward @7 unknown #
coedge $-1 -1 $-1 $23 $23 $65 $74 forward $41 $-1 #
loop $-1 -1 $-1 $75 $40 $27 #
truecolor-adesk-attrib $-1 -1 $76 $-1 $24 -1027161668 #
vertex $-1 -1 $-1 $24 $77 #
vertex $-1 -1 $-1 $24 $78 #
ellipse-curve $-1 -1 $-1 25.115022477405393 96.306468245397241 -13 0 1 0 -3.4365055114148122 0 1.659806371995123 1 F 1.3764540978769334e-16 F 3.1415926535897931 #
DXID-attrib $-1 -1 $-1 $26 $17 @18 ASM_FACE_FROM_STEP @17 step-1M-461-10438 #
truecolor-adesk-attrib $-1 -1 $79 $-1 $27 -1027161668 #
face $80 -1 $-1 $81 $82 $3 $-1 $83 forward single #
plane-surface $-1 -1 $-1 25.115022477405393 96.306468245397241 -13 0 1 0 -0.90046916855498393 0 0.43491985064135191 forward_v I I I I #
coedge $-1 -1 $-1 $84 $85 $86 $87 forward $28 $-1 #
coedge $-1 -1 $-1 $33 $30 $88 $89 forward $18 $-1 #
coedge $-1 -1 $-1 $30 $33 $90 $91 reversed $18 $-1 #
coedge $-1 -1 $-1 $85 $84 $30 $54 reversed $28 $-1 #
edge $92 -1 $-1 $93 0 $94 3.1415926535897931 $30 $95 forward @7 unknown #
coedge $-1 -1 $-1 $32 $31 $35 $64 reversed $12 $-1 #
coedge $-1 -1 $-1 $96 $97 $31 $57 reversed $98 $-1 #
edge $99 -1 $-1 $62 -0.040823820533092074 $72 -0.013646149999999982 $31 $100 forward @7 unknown #
coedge $-1 -1 $-1 $97 $96 $32 $59 forward $98 $-1 #
edge $101 -1 $-1 $61 -0.040823820533092074 $69 -0.013646149999999982 $32 $102 forward @7 unknown #
truecolor-adesk-attrib $-1 -1 $103 $-1 $34 -1027161668 #
vertex $-1 -1 $-1 $34 $104 #
vertex $-1 -1 $-1 $34 $105 #
ellipse-curve $-1 -1 $-1 25.115022477405393 68.18264771230514 -13 0 1 0 -4.2884844152431123 0 2.0713057886794388 1 F 0 F 3.1415926535897931 #
edge $106 -1 $-1 $69 0 $72 3.1415926535897931 $35 $107 forward @7 unknown #
coedge $-1 -1 $-1 $38 $36 $40 $74 reversed $67 $-1 #
coedge $-1 -1 $-1 $36 $38 $97 $108 forward $67 $-1 #
loop $-1 -1 $-1 $-1 $36 $109 #
truecolor-adesk-attrib $-1 -1 $110 $-1 $37 -1027161668 #
vertex $-1 -1 $-1 $37 $111 #
straight-curve $-1 -1 $-1 21.678516965990578 96.306468245397241 -11.340193628004876 -636.72785533464207 -707.10678118654687 307.53477566114071 F 5.0169145457224903e-36 F 0.001338058162039305 #
truecolor-adesk-attrib $-1 -1 $112 $-1 $39 -1027161668 #
vertex $-1 -1 $-1 $64 $113 #
straight-curve $-1 -1 $-1 28.551527988820208 96.306468245397241 -14.659806371995122 636.72785533464207 -707.10678118654687 -307.53477566114066 F 0 F 0.001338058162039305 #
edge $114 -1 $-1 $44 -3.1415926535897931 $43 1.3764540978769334e-16 $40 $115 forward @7 unknown #
loop $-1 -1 $-1 $-1 $116 $27 #
DXID-attrib $-1 -1 $-1 $42 $24 @18 ASM_EDGE_FROM_STEP @4 8395 #
point $-1 -1 $-1 21.678516965990578 96.306468245397241 -11.340193628004876 #
point $-1 -1 $-1 28.551527988820208 96.306468245397241 -14.659806371995122 #
DXID-attrib $-1 -1 $-1 $47 $27 @18 ASM_FACE_FROM_STEP @16 step-1M-461-5000 #
truecolor-adesk-attrib $-1 -1 $117 $-1 $48 -1027161668 #
face $118 -1 $-1 $119 $120 $3 $-1 $121 forward single #
loop $-1 -1 $-1 $-1 $86 $48 #
plane-surface $-1 -1 $-1 26.495893003191686 64.556468245397241 -10.141010389837927 0 -1 0 0.90046916855498393 0 -0.43491985064135191 forward_v I I I I #
coedge $-1 -1 $-1 $53 $50 $122 $123 forward $28 $-1 #
coedge $-1 -1 $-1 $50 $53 $124 $125 reversed $28 $-1 #
coedge $-1 -1 $-1 $126 $126 $50 $87 reversed $82 $-1 #
edge $127 -1 $-1 $128 0 $129 3.1415926535897931 $50 $130 forward @7 unknown #
coedge $-1 -1 $-1 $131 $132 $51 $89 reversed $133 $-1 #
edge $134 -1 $-1 $94 -0.00193797965965881 $62 0 $51 $135 forward @7 unknown #
coedge $-1 -1 $-1 $132 $131 $52 $91 forward $133 $-1 #
edge $136 -1 $-1 $93 -0.00193797965965881 $61 0 $52 $137 forward @7 unknown #
truecolor-adesk-attrib $-1 -1 $138 $-1 $54 -1027161668 #
vertex $-1 -1 $-1 $54 $139 #
vertex $-1 -1 $-1 $54 $140 #
ellipse-curve $-1 -1 $-1 25.115022477405393 67.071068245397242 -13 0 1 0 -2.8589896101620735 0 1.3808705257862921 1 F 0 F 3.1415926535897931 #
coedge $-1 -1 $-1 $58 $56 $132 $141 forward $98 $-1 #
coedge $-1 -1 $-1 $56 $58 $66 $108 reversed $98 $-1 #
loop $-1 -1 $-1 $-1 $56 $142 #
truecolor-adesk-attrib $-1 -1 $143 $-1 $57 -1027161668 #
straight-curve $-1 -1 $-1 29.403506892648505 109.00646824539722 -15.071305788679439 0 1000 0 F -0.040823820533092074 F -0.013646149999999982 #
truecolor-adesk-attrib $-1 -1 $144 $-1 $59 -1027161668 #
straight-curve $-1 -1 $-1 20.826538062162282 109.00646824539722 -10.928694211320561 0 1000 0 F -0.040823820533092074 F -0.013646149999999982 #
DXID-attrib $-1 -1 $-1 $60 $34 @18 ASM_EDGE_FROM_STEP @4 7123 #
point $-1 -1 $-1 20.826538062162282 68.18264771230514 -10.928694211320561 #
point $-1 -1 $-1 29.403506892648505 68.18264771230514 -15.071305788679439 #
truecolor-adesk-attrib $-1 -1 $145 $-1 $64 -1027161668 #
ellipse-curve $-1 -1 $-1 25.115022477405393 95.360318245397238 -13 0 1 0 -4.2884844152431123 0 2.0713057886794388 1 F 0 F 3.1415926535897931 #
edge $146 -1 $-1 $72 -3.1415926535897931 $69 0 $97 $147 forward @7 unknown #
face $148 -1 $-1 $149 $67 $3 $-1 $150 forward single #
DXID-attrib $-1 -1 $-1 $68 $37 @18 ASM_EDGE_FROM_STEP @4 1338 #
point $-1 -1 $-1 20.826538062162282 95.360318245397238 -10.928694211320561 #
DXID-attrib $-1 -1 $-1 $71 $39 @18 ASM_EDGE_FROM_STEP @3 729 #
point $-1 -1 $-1 29.403506892648505 95.360318245397238 -15.071305788679439 #
truecolor-adesk-attrib $-1 -1 $151 $-1 $74 -1027161668 #
ellipse-curve $-1 -1 $-1 25.115022477405393 96.306468245397241 -13 0 1 0 -3.4365055114148122 0 1.659806371995123 1 F -3.1415926535897931 F 1.3764540978769334e-16 #
coedge $-1 -1 $-1 $152 $153 $154 $155 reversed $75 $-1 #
DXID-attrib $-1 -1 $-1 $80 $48 @18 ASM_FACE_FROM_STEP @16 step-1M-461-4866 #
truecolor-adesk-attrib $-1 -1 $156 $-1 $81 -1027161668 #
face $157 -1 $-1 $142 $133 $3 $-1 $158 forward single #
loop $-1 -1 $-1 $-1 $122 $81 #
cone-surface $-1 -1 $-1 25.115022477405393 109.00646824539722 -13 0 1 0 -2.8589896101620735 0 1.3808705257862921 1 I I 0 1 3.1749999999999998 forward I I I I #
coedge $-1 -1 $-1 $159 $160 $84 $123 reversed $120 $-1 #
edge $161 -1 $-1 $129 -0.044449999999999983 $94 -0.041935399999999984 $84 $162 forward @7 unknown #
coedge $-1 -1 $-1 $160 $159 $85 $125 forward $120 $-1 #
edge $163 -1 $-1 $128 -0.044449999999999983 $93 -0.041935399999999984 $85 $164 forward @7 unknown #
coedge $-1 -1 $-1 $86 $86 $159 $165 reversed $82 $-1 #
truecolor-adesk-attrib $-1 -1 $166 $-1 $87 -1027161668 #
vertex $-1 -1 $-1 $87 $167 #
vertex $-1 -1 $-1 $87 $168 #
ellipse-curve $-1 -1 $-1 25.115022477405393 64.556468245397241 -13 0 1 0 -2.8589896101620735 0 1.3808705257862921 1 F 0 F 3.1415926535897931 #
coedge $-1 -1 $-1 $90 $88 $160 $169 forward $133 $-1 #
coedge $-1 -1 $-1 $88 $90 $96 $141 reversed $133 $-1 #
loop $-1 -1 $-1 $-1 $88 $119 #
truecolor-adesk-attrib $-1 -1 $170 $-1 $89 -1027161668 #
straight-curve $-1 -1 $-1 29.403506892648505 68.18264771230514 -15.071305788679439 737.62116024102488 573.57643635104455 -356.2654847547268 F -0.00193797965965881 F 0 #
truecolor-adesk-attrib $-1 -1 $171 $-1 $91 -1027161668 #
straight-curve $-1 -1 $-1 20.826538062162282 68.18264771230514 -10.928694211320561 -737.62116024102488 573.57643635104455 356.26548475472691 F -0.00193797965965881 F 0 #
DXID-attrib $-1 -1 $-1 $92 $54 @18 ASM_EDGE_FROM_STEP @5 12095 #
point $-1 -1 $-1 22.256032867243317 67.071068245397242 -11.619129474213707 #
point $-1 -1 $-1 27.97401208756747 67.071068245397242 -14.380870525786293 #
edge $172 -1 $-1 $62 -3.1415926535897931 $61 0 $132 $173 forward @7 unknown #
face $174 -1 $-1 $109 $98 $3 $-1 $175 forward single #
DXID-attrib $-1 -1 $-1 $99 $57 @18 ASM_EDGE_FROM_STEP @4 6533 #
DXID-attrib $-1 -1 $-1 $101 $59 @18 ASM_EDGE_FROM_STEP @4 8451 #
DXID-attrib $-1 -1 $-1 $106 $64 @18 ASM_EDGE_FROM_STEP @4 8633 #
truecolor-adesk-attrib $-1 -1 $176 $-1 $108 -1027161668 #
ellipse-curve $-1 -1 $-1 25.115022477405393 95.360318245397238 -13 0 1 0 -4.2884844152431123 0 2.0713057886794388 1 F -3.1415926535897931 F 0 #
truecolor-adesk-attrib $-1 -1 $177 $-1 $109 -1027161668 #
face $178 -1 $-1 $179 $180 $3 $-1 $181 forward single #
cone-surface $-1 -1 $-1 25.115022477405393 96.306468245397241 -13 0 -1 0 3.4365055114148122 0 -1.659806371995123 1 I I 0.70710678118654824 0.7071067811865468 3.816349999999999 forward I I I I #
DXID-attrib $-1 -1 $-1 $114 $74 @18 ASM_EDGE_FROM_STEP @4 9320 #
coedge $-1 -1 $-1 $182 $116 $183 $184 forward $75 $-1 #
coedge $-1 -1 $-1 $116 $185 $186 $187 reversed $75 $-1 #
coedge $-1 -1 $-1 $188 $189 $116 $155 forward $190 $-1 #
edge $191 -1 $-1 $192 0 $193 0.002749630657015595 $116 $194 forward @7 unknown #
DXID-attrib $-1 -1 $-1 $118 $81 @18 ASM_FACE_FROM_STEP @17 step-1M-461-11270 #
truecolor-adesk-attrib $-1 -1 $195 $-1 $119 -1027161668 #
cone-surface $-1 -1 $-1 25.115022477405393 68.18264771230514 -13 0 1 0 -4.2884844152431123 0 2.0713057886794388 1 I I 0.81915204428899302 0.57357643635104438 4.7625000000000011 forward I I I I #
coedge $-1 -1 $-1 $124 $122 $126 $165 forward $120 $-1 #
coedge $-1 -1 $-1 $122 $124 $131 $169 reversed $120 $-1 #
truecolor-adesk-attrib $-1 -1 $196 $-1 $123 -1027161668 #
straight-curve $-1 -1 $-1 27.97401208756747 109.00646824539722 -14.380870525786293 0 1000 0 F -0.044449999999999983 F -0.041935399999999984 #
truecolor-adesk-attrib $-1 -1 $197 $-1 $125 -1027161668 #
straight-curve $-1 -1 $-1 22.256032867243317 109.00646824539722 -11.619129474213707 0 1000 0 F -0.044449999999999983 F -0.041935399999999984 #
edge $198 -1 $-1 $129 -3.1415926535897931 $128 0 $126 $199 forward @7 unknown #
DXID-attrib $-1 -1 $-1 $127 $87 @18 ASM_EDGE_FROM_STEP @4 1499 #
point $-1 -1 $-1 22.256032867243317 64.556468245397241 -11.619129474213707 #
point $-1 -1 $-1 27.97401208756747 64.556468245397241 -14.380870525786293 #
edge $200 -1 $-1 $94 -3.1415926535897931 $93 0 $160 $201 forward @7 unknown #
DXID-attrib $-1 -1 $-1 $134 $89 @18 ASM_EDGE_FROM_STEP @5 16970 #
DXID-attrib $-1 -1 $-1 $136 $91 @18 ASM_EDGE_FROM_STEP @5 14830 #
truecolor-adesk-attrib $-1 -1 $202 $-1 $141 -1027161668 #
ellipse-curve $-1 -1 $-1 25.115022477405393 68.18264771230514 -13 0 1 0 -4.2884844152431123 0 2.0713057886794388 1 F -3.1415926535897931 F 0 #
truecolor-adesk-attrib $-1 -1 $203 $-1 $142 -1027161668 #
cone-surface $-1 -1 $-1 25.115022477405393 109.00646824539722 -13 0 1 0 -4.2884844152431123 0 2.0713057886794388 1 I I 0 1 4.7625000000000011 forward I I I I #
DXID-attrib $-1 -1 $-1 $146 $108 @18 ASM_EDGE_FROM_STEP @4 4504 #
DXID-attrib $-1 -1 $-1 $148 $109 @18 ASM_FACE_FROM_STEP @16 step-1M-461-1248 #
truecolor-adesk-attrib $-1 -1 $204 $-1 $149 -1027161668 #
face $205 -1 $-1 $206 $207 $3 $-1 $208 reversed single #
loop $-1 -1 $-1 $-1 $183 $149 #
plane-surface $-1 -1 $-1 24.912696555967049 91.531268245397243 -10.257823315044384 0.56236924997259374 0 -0.8268862235430352 0.8268862235430352 0 0.56236924997259385 forward_v I I I I #
coedge $-1 -1 $-1 $209 $152 $210 $211 reversed $75 $-1 #
coedge $-1 -1 $-1 $212 $213 $152 $184 reversed $180 $-1 #
edge $214 -1 $-1 $192 0 $215 0.0027496306570155937 $152 $216 forward @7 unknown #
coedge $-1 -1 $-1 $153 $209 $217 $218 forward $75 $-1 #
coedge $-1 -1 $-1 $219 $220 $153 $187 forward $221 $-1 #
edge $222 -1 $-1 $193 0 $223 0.0027496306570155946 $153 $224 forward @7 unknown #
coedge $-1 -1 $-1 $225 $154 $220 $226 reversed $190 $-1 #
coedge $-1 -1 $-1 $154 $225 $212 $227 forward $190 $-1 #
loop $-1 -1 $-1 $-1 $154 $228 #
truecolor-adesk-attrib $-1 -1 $229 $-1 $155 -1027161668 #
vertex $-1 -1 $-1 $155 $230 #
vertex $-1 -1 $-1 $155 $231 #
straight-curve $-1 -1 $-1 24.912696555967049 96.306468245397241 -10.257823315044384 900.46916855498387 0 -434.91985064135218 F 0 F 0.002749630657015595 #
DXID-attrib $-1 -1 $-1 $157 $119 @18 ASM_FACE_FROM_STEP @16 step-1M-461-8646 #
DXID-attrib $-1 -1 $-1 $161 $123 @18 ASM_EDGE_FROM_STEP @5 12105 #
DXID-attrib $-1 -1 $-1 $163 $125 @18 ASM_EDGE_FROM_STEP @4 9788 #
truecolor-adesk-attrib $-1 -1 $232 $-1 $165 -1027161668 #
ellipse-curve $-1 -1 $-1 25.115022477405393 64.556468245397241 -13 0 1 0 -2.8589896101620735 0 1.3808705257862921 1 F -3.1415926535897931 F 0 #
truecolor-adesk-attrib $-1 -1 $233 $-1 $169 -1027161668 #
ellipse-curve $-1 -1 $-1 25.115022477405393 67.071068245397242 -13 0 1 0 -2.8589896101620735 0 1.3808705257862921 1 F -3.1415926535897931 F 0 #
DXID-attrib $-1 -1 $-1 $172 $141 @18 ASM_EDGE_FROM_STEP @4 2035 #
DXID-attrib $-1 -1 $-1 $174 $142 @18 ASM_FACE_FROM_STEP @15 step-1M-461-622 #
DXID-attrib $-1 -1 $-1 $178 $149 @18 ASM_FACE_FROM_STEP @17 step-1M-461-11524 #
truecolor-adesk-attrib $-1 -1 $234 $-1 $179 -1027161668 #
face $235 -1 $-1 $236 $237 $3 $-1 $238 forward single #
loop $-1 -1 $-1 $-1 $210 $179 #
plane-surface $-1 -1 $-1 22.84139076728761 91.531268245397243 -14.546307730287504 -0.99728910061394371 0 -0.073582945011947232 0.073582945011947232 0 -0.99728910061394382 forward_v I I I I #
coedge $-1 -1 $-1 $185 $182 $239 $240 forward $75 $-1 #
coedge $-1 -1 $-1 $241 $242 $182 $211 forward $207 $-1 #
edge $243 -1 $-1 $244 0 $215 0.0027496306570155946 $182 $245 forward @7 unknown #
coedge $-1 -1 $-1 $246 $183 $189 $227 reversed $180 $-1 #
coedge $-1 -1 $-1 $183 $246 $241 $247 forward $180 $-1 #
truecolor-adesk-attrib $-1 -1 $248 $-1 $184 -1027161668 #
vertex $-1 -1 $-1 $184 $249 #
straight-curve $-1 -1 $-1 24.912696555967049 96.306468245397241 -10.257823315044384 -826.88622354303527 0 -562.36924997259382 F 0 F 0.0027496306570155937 #
coedge $-1 -1 $-1 $250 $251 $185 $218 reversed $252 $-1 #
edge $253 -1 $-1 $254 0 $223 0.0027496306570155933 $185 $255 forward @7 unknown #
coedge $-1 -1 $-1 $256 $186 $251 $257 reversed $221 $-1 #
coedge $-1 -1 $-1 $186 $256 $188 $226 forward $221 $-1 #
loop $-1 -1 $-1 $-1 $186 $258 #
truecolor-adesk-attrib $-1 -1 $259 $-1 $187 -1027161668 #
vertex $-1 -1 $-1 $218 $260 #
straight-curve $-1 -1 $-1 27.388654187523176 96.306468245397241 -11.453692269712491 73.582945011947402 0 -997.28910061394402 F 0 F 0.0027496306570155946 #
coedge $-1 -1 $-1 $189 $188 $261 $262 reversed $190 $-1 #
edge $263 -1 $-1 $264 0 $193 0.0047752000000000003 $220 $265 forward @7 unknown #
edge $266 -1 $-1 $267 0 $192 0.0047752000000000003 $212 $268 forward @7 unknown #
face $269 -1 $-1 $270 $190 $3 $-1 $271 reversed single #
DXID-attrib $-1 -1 $-1 $191 $155 @18 ASM_EDGE_FROM_STEP @4 7695 #
point $-1 -1 $-1 24.912696555967049 96.306468245397241 -10.257823315044384 #
point $-1 -1 $-1 27.388654187523176 96.306468245397241 -11.453692269712491 #
DXID-attrib $-1 -1 $-1 $198 $165 @18 ASM_EDGE_FROM_STEP @5 10814 #
DXID-attrib $-1 -1 $-1 $200 $169 @18 ASM_EDGE_FROM_STEP @5 17605 #
DXID-attrib $-1 -1 $-1 $205 $179 @18 ASM_FACE_FROM_STEP @16 step-1M-461-4283 #
truecolor-adesk-attrib $-1 -1 $272 $-1 $206 -1027161668 #
face $273 -1 $-1 $258 $252 $3 $-1 $274 forward single #
loop $-1 -1 $-1 $-1 $239 $206 #
plane-surface $-1 -1 $-1 22.84139076728761 91.531268245397243 -14.546307730287504 0.43491985064135191 0 0.90046916855498393 -0.90046916855498393 0 0.43491985064135191 forward_v I I I I #
coedge $-1 -1 $-1 $275 $276 $209 $240 reversed $237 $-1 #
edge $277 -1 $-1 $244 0 $254 0.002749630657015595 $209 $278 forward @7 unknown #
coedge $-1 -1 $-1 $279 $210 $213 $247 reversed $207 $-1 #
coedge $-1 -1 $-1 $210 $279 $275 $280 forward $207 $-1 #
truecolor-adesk-attrib $-1 -1 $281 $-1 $211 -1027161668 #
vertex $-1 -1 $-1 $211 $282 #
straight-curve $-1 -1 $-1 22.84139076728761 96.306468245397241 -14.546307730287504 -73.582945011947345 0 997.2891006139439 F 0 F 0.0027496306570155946 #
coedge $-1 -1 $-1 $213 $212 $283 $284 forward $180 $-1 #
edge $285 -1 $-1 $286 0 $215 0.0047752000000000003 $213 $287 forward @7 unknown #
DXID-attrib $-1 -1 $-1 $214 $184 @18 ASM_EDGE_FROM_STEP @5 17092 #
point $-1 -1 $-1 22.639064845849266 96.306468245397241 -11.804131045331895 #
coedge $-1 -1 $-1 $288 $217 $276 $289 reversed $252 $-1 #
coedge $-1 -1 $-1 $217 $288 $219 $257 forward $252 $-1 #
loop $-1 -1 $-1 $-1 $217 $236 #
truecolor-adesk-attrib $-1 -1 $290 $-1 $218 -1027161668 #
vertex $-1 -1 $-1 $240 $291 #
straight-curve $-1 -1 $-1 25.317348398843738 96.306468245397241 -15.742176684955609 826.88622354303538 0 562.36924997259348 F 0 F 0.0027496306570155933 #
coedge $-1 -1 $-1 $220 $219 $292 $293 reversed $221 $-1 #
edge $294 -1 $-1 $295 0 $223 0.0047752000000000003 $251 $296 forward @7 unknown #
face $297 -1 $-1 $228 $221 $3 $-1 $298 reversed single #
DXID-attrib $-1 -1 $-1 $222 $187 @18 ASM_EDGE_FROM_STEP @5 18372 #
point $-1 -1 $-1 27.590980108961521 96.306468245397241 -14.1958689546681 #
coedge $-1 -1 $-1 $292 $283 $225 $262 forward $299 $-1 #
edge $300 -1 $-1 $267 0 $264 0.002749630657015595 $225 $301 forward @7 unknown #
truecolor-adesk-attrib $-1 -1 $302 $-1 $226 -1027161668 #
vertex $-1 -1 $-1 $293 $303 #
straight-curve $-1 -1 $-1 27.388654187523176 91.531268245397243 -11.453692269712491 0 1000 0 F 0 F 0.0047752000000000003 #
truecolor-adesk-attrib $-1 -1 $304 $-1 $227 -1027161668 #
vertex $-1 -1 $-1 $227 $305 #
straight-curve $-1 -1 $-1 24.912696555967049 91.531268245397243 -10.257823315044384 0 1000 0 F 0 F 0.0047752000000000003 #
truecolor-adesk-attrib $-1 -1 $306 $-1 $228 -1027161668 #
face $307 -1 $-1 $-1 $299 $3 $-1 $308 reversed single #
plane-surface $-1 -1 $-1 24.912696555967049 91.531268245397243 -10.257823315044384 0.43491985064135219 0 0.90046916855498382 -0.90046916855498382 0 0.43491985064135219 forward_v I I I I #
DXID-attrib $-1 -1 $-1 $235 $206 @18 ASM_FACE_FROM_STEP @16 step-1M-461-3261 #
truecolor-adesk-attrib $-1 -1 $309 $-1 $236 -1027161668 #
plane-surface $-1 -1 $-1 25.317348398843738 91.531268245397243 -15.742176684955609 -0.56236924997259352 0 0.82688622354303531 -0.82688622354303543 0 -0.56236924997259352 forward_v I I I I #
coedge $-1 -1 $-1 $310 $239 $242 $280 reversed $237 $-1 #
coedge $-1 -1 $-1 $239 $310 $250 $289 forward $237 $-1 #
truecolor-adesk-attrib $-1 -1 $311 $-1 $240 -1027161668 #
straight-curve $-1 -1 $-1 22.84139076728761 96.306468245397241 -14.546307730287504 900.46916855498398 0 -434.9198506413519 F 0 F 0.002749630657015595 #
coedge $-1 -1 $-1 $242 $241 $312 $313 reversed $207 $-1 #
edge $314 -1 $-1 $315 0 $244 0.0047752000000000003 $242 $316 forward @7 unknown #
DXID-attrib $-1 -1 $-1 $243 $211 @18 ASM_EDGE_FROM_STEP @4 2274 #
point $-1 -1 $-1 22.84139076728761 96.306468245397241 -14.546307730287504 #
coedge $-1 -1 $-1 $261 $312 $246 $284 reversed $299 $-1 #
edge $317 -1 $-1 $267 0 $286 0.0027496306570155937 $246 $318 forward @7 unknown #
truecolor-adesk-attrib $-1 -1 $319 $-1 $247 -1027161668 #
vertex $-1 -1 $-1 $284 $320 #
straight-curve $-1 -1 $-1 22.639064845849266 91.531268245397243 -11.804131045331895 0 1000 0 F 0 F 0.0047752000000000003 #
coedge $-1 -1 $-1 $251 $250 $321 $322 forward $252 $-1 #
edge $323 -1 $-1 $324 0 $254 0.0047752000000000003 $276 $325 forward @7 unknown #
DXID-attrib $-1 -1 $-1 $253 $218 @18 ASM_EDGE_FROM_STEP @5 13854 #
point $-1 -1 $-1 25.317348398843738 96.306468245397241 -15.742176684955609 #
coedge $-1 -1 $-1 $321 $261 $256 $293 forward $299 $-1 #
edge $326 -1 $-1 $264 0 $295 0.0027496306570155946 $256 $327 forward @7 unknown #
truecolor-adesk-attrib $-1 -1 $328 $-1 $257 -1027161668 #
vertex $-1 -1 $-1 $322 $329 #
straight-curve $-1 -1 $-1 27.590980108961521 91.531268245397243 -14.1958689546681 0 1000 0 F 0 F 0.0047752000000000003 #
truecolor-adesk-attrib $-1 -1 $330 $-1 $258 -1027161668 #
plane-surface $-1 -1 $-1 27.388654187523176 91.531268245397243 -11.453692269712491 0.99728910061394371 0 0.073582945011947398 -0.073582945011947343 0 0.99728910061394382 forward_v I I I I #
loop $-1 -1 $-1 $-1 $283 $270 #
truecolor-adesk-attrib $-1 -1 $331 $-1 $262 -1027161668 #
straight-curve $-1 -1 $-1 24.912696555967049 91.531268245397243 -10.257823315044384 900.46916855498387 0 -434.91985064135218 F 0 F 0.002749630657015595 #
DXID-attrib $-1 -1 $-1 $263 $226 @18 ASM_EDGE_FROM_STEP @4 8900 #
point $-1 -1 $-1 27.388654187523176 91.531268245397243 -11.453692269712491 #
DXID-attrib $-1 -1 $-1 $266 $227 @18 ASM_EDGE_FROM_STEP @5 15020 #
point $-1 -1 $-1 24.912696555967049 91.531268245397243 -10.257823315044384 #
DXID-attrib $-1 -1 $-1 $269 $228 @18 ASM_FACE_FROM_STEP @16 step-1M-461-6080 #
truecolor-adesk-attrib $-1 -1 $332 $-1 $270 -1027161668 #
plane-surface $-1 -1 $-1 24.912696555967049 91.531268245397243 -10.257823315044384 0 -1 0 0.90046916855498393 0 -0.43491985064135191 forward_v I I I I #
DXID-attrib $-1 -1 $-1 $273 $236 @18 ASM_FACE_FROM_STEP @16 step-1M-461-2600 #
coedge $-1 -1 $-1 $276 $275 $333 $334 forward $237 $-1 #
DXID-attrib $-1 -1 $-1 $277 $240 @18 ASM_EDGE_FROM_STEP @5 13375 #
coedge $-1 -1 $-1 $283 $333 $279 $313 forward $299 $-1 #
edge $335 -1 $-1 $315 0 $286 0.0027496306570155946 $279 $336 forward @7 unknown #
truecolor-adesk-attrib $-1 -1 $337 $-1 $280 -1027161668 #
vertex $-1 -1 $-1 $313 $338 #
straight-curve $-1 -1 $-1 22.84139076728761 91.531268245397243 -14.546307730287504 0 1000 0 F 0 F 0.0047752000000000003 #
truecolor-adesk-attrib $-1 -1 $339 $-1 $284 -1027161668 #
straight-curve $-1 -1 $-1 24.912696555967049 91.531268245397243 -10.257823315044384 -826.88622354303527 0 -562.36924997259382 F 0 F 0.0027496306570155937 #
DXID-attrib $-1 -1 $-1 $285 $247 @18 ASM_EDGE_FROM_STEP @5 18124 #
point $-1 -1 $-1 22.639064845849266 91.531268245397243 -11.804131045331895 #
coedge $-1 -1 $-1 $333 $292 $288 $322 reversed $299 $-1 #
edge $340 -1 $-1 $324 0 $295 0.0027496306570155933 $288 $341 forward @7 unknown #
truecolor-adesk-attrib $-1 -1 $342 $-1 $289 -1027161668 #
vertex $-1 -1 $-1 $334 $343 #
straight-curve $-1 -1 $-1 25.317348398843738 91.531268245397243 -15.742176684955609 0 1000 0 F 0 F 0.0047752000000000003 #
truecolor-adesk-attrib $-1 -1 $344 $-1 $293 -1027161668 #
straight-curve $-1 -1 $-1 27.388654187523176 91.531268245397243 -11.453692269712491 73.582945011947402 0 -997.28910061394402 F 0 F 0.0027496306570155946 #
DXID-attrib $-1 -1 $-1 $294 $257 @18 ASM_EDGE_FROM_STEP @4 7416 #
point $-1 -1 $-1 27.590980108961521 91.531268245397243 -14.1958689546681 #
DXID-attrib $-1 -1 $-1 $297 $258 @18 ASM_FACE_FROM_STEP @17 step-1M-461-15185 #
DXID-attrib $-1 -1 $-1 $300 $262 @18 ASM_EDGE_FROM_STEP @4 9860 #
DXID-attrib $-1 -1 $-1 $307 $270 @18 ASM_FACE_FROM_STEP @16 step-1M-461-3906 #
coedge $-1 -1 $-1 $312 $321 $310 $334 reversed $299 $-1 #
edge $345 -1 $-1 $315 0 $324 0.002749630657015595 $310 $346 forward @7 unknown #
truecolor-adesk-attrib $-1 -1 $347 $-1 $313 -1027161668 #
straight-curve $-1 -1 $-1 22.84139076728761 91.531268245397243 -14.546307730287504 -73.582945011947345 0 997.2891006139439 F 0 F 0.0027496306570155946 #
DXID-attrib $-1 -1 $-1 $314 $280 @18 ASM_EDGE_FROM_STEP @4 8132 #
point $-1 -1 $-1 22.84139076728761 91.531268245397243 -14.546307730287504 #
DXID-attrib $-1 -1 $-1 $317 $284 @18 ASM_EDGE_FROM_STEP @5 11778 #
truecolor-adesk-attrib $-1 -1 $348 $-1 $322 -1027161668 #
straight-curve $-1 -1 $-1 25.317348398843738 91.531268245397243 -15.742176684955609 826.88622354303538 0 562.36924997259348 F 0 F 0.0027496306570155933 #
DXID-attrib $-1 -1 $-1 $323 $289 @18 ASM_EDGE_FROM_STEP @4 9482 #
point $-1 -1 $-1 25.317348398843738 91.531268245397243 -15.742176684955609 #
DXID-attrib $-1 -1 $-1 $326 $293 @18 ASM_EDGE_FROM_STEP @5 13160 #
truecolor-adesk-attrib $-1 -1 $349 $-1 $334 -1027161668 #
straight-curve $-1 -1 $-1 22.84139076728761 91.531268245397243 -14.546307730287504 900.46916855498398 0 -434.9198506413519 F 0 F 0.002749630657015595 #
DXID-attrib $-1 -1 $-1 $335 $313 @18 ASM_EDGE_FROM_STEP @5 16470 #
DXID-attrib $-1 -1 $-1 $340 $322 @18 ASM_EDGE_FROM_STEP @2 54 #
DXID-attrib $-1 -1 $-1 $345 $334 @18 ASM_EDGE_FROM_STEP @4 9943 #
