700 744 1 0         
5 ZWCAD 12 ACIS 28.0 NT 24 Mon May 13 10:59:24 2024 
1 9.9999999999999995e-07 1e-10 
body $1 -1 $-1 $2 $-1 $-1 #
DXID-attrib $-1 -1 $-1 $-1 $0 @18 ASM_BODY_FROM_STEP @83 74ECD0A66CEE545DA3EFF0DE40A75399F2C0C04F|:|03BEA658F2ADC87259C2466FA4B74F5CFF9EC1B0 #
lump $-1 -1 $-1 $-1 $3 $0 #
shell $-1 -1 $-1 $-1 $-1 $4 $-1 $2 #
face $5 -1 $-1 $6 $7 $3 $-1 $8 reversed single #
truecolor-adesk-attrib $-1 -1 $9 $-1 $4 -1030722213 #
face $10 -1 $-1 $11 $12 $3 $-1 $13 reversed single #
loop $-1 -1 $-1 $-1 $14 $4 #
plane-surface $-1 -1 $-1 -2730.433907157716 -585.27356320523506 50.999999999999616 0 1 -2.2152418788224399e-15 1 2.71288887623707e-31 1.2246467991473532e-16 forward_v I I I I #
fmesh-eye-attrib $-1 -1 $15 $5 $4 #
truecolor-adesk-attrib $-1 -1 $16 $-1 $6 -1030722213 #
face $17 -1 $-1 $18 $19 $3 $-1 $20 forward single #
loop $-1 -1 $-1 $-1 $21 $6 #
plane-surface $-1 -1 $-1 -2730.433907157716 -585.27356320523506 50.999999999999616 0 1 -2.2152418788224399e-15 1 2.71288887623707e-31 1.2246467991473532e-16 forward_v I I I I #
coedge $-1 -1 $-1 $22 $23 $24 $25 forward $7 $-1 #
DXID-attrib $-1 -1 $-1 $9 $4 @18 ASM_FACE_FROM_STEP @16 stp-2M-184-29666 #
fmesh-eye-attrib $-1 -1 $26 $10 $6 #
truecolor-adesk-attrib $-1 -1 $27 $-1 $11 -1030722213 #
face $28 -1 $-1 $29 $30 $3 $-1 $31 forward single #
loop $-1 -1 $-1 $-1 $32 $11 #
plane-surface $-1 -1 $-1 -2953.933907157716 -775.27356320523415 477 1 2.71288887623707e-31 1.2246467991473532e-16 1.2246467991473532e-16 -2.2152418788224399e-15 -1 forward_v I I I I #
coedge $-1 -1 $-1 $33 $34 $35 $36 forward $12 $-1 #
coedge $-1 -1 $-1 $37 $14 $38 $39 forward $7 $-1 #
coedge $-1 -1 $-1 $14 $37 $40 $41 forward $7 $-1 #
coedge $-1 -1 $-1 $42 $43 $14 $25 reversed $44 $-1 #
edge $45 -1 $-1 $46 -0.30653266331658297 $47 0.69346733668341709 $14 $48 forward @7 unknown #
DXID-attrib $-1 -1 $-1 $16 $6 @18 ASM_FACE_FROM_STEP @16 stp-2M-184-29667 #
fmesh-eye-attrib $-1 -1 $49 $17 $11 #
truecolor-adesk-attrib $-1 -1 $50 $-1 $18 -1030722213 #
face $51 -1 $-1 $52 $53 $3 $-1 $54 forward single #
loop $-1 -1 $-1 $-1 $55 $18 #
plane-surface $-1 -1 $-1 -2963.933907157716 -775.27356320523415 477 -1.2246467991473532e-16 2.2152418788224399e-15 1 1 2.71288887623707e-31 1.2246467991473532e-16 forward_v I I I I #
coedge $-1 -1 $-1 $56 $57 $58 $59 reversed $19 $-1 #
coedge $-1 -1 $-1 $60 $21 $61 $62 forward $12 $-1 #
coedge $-1 -1 $-1 $21 $60 $63 $64 forward $12 $-1 #
coedge $-1 -1 $-1 $65 $66 $21 $36 reversed $67 $-1 #
edge $68 -1 $-1 $69 -0.93840579710144922 $70 0.061594202898550825 $21 $71 forward @7 unknown #
coedge $-1 -1 $-1 $23 $22 $72 $73 forward $7 $-1 #
coedge $-1 -1 $-1 $74 $75 $22 $39 reversed $76 $-1 #
edge $77 -1 $-1 $47 5.9750000000000014 $78 6.9750000000000014 $22 $79 forward @7 unknown #
coedge $-1 -1 $-1 $80 $81 $23 $41 reversed $82 $-1 #
edge $83 -1 $-1 $84 -6.1250000000000036 $46 -5.1250000000000036 $23 $85 forward @7 unknown #
coedge $-1 -1 $-1 $86 $24 $81 $87 reversed $44 $-1 #
coedge $-1 -1 $-1 $24 $88 $74 $89 forward $44 $-1 #
loop $-1 -1 $-1 $-1 $90 $91 #
truecolor-adesk-attrib $-1 -1 $92 $-1 $25 -1030722213 #
vertex $-1 -1 $-1 $25 $93 #
vertex $-1 -1 $-1 $25 $94 #
straight-curve $-1 -1 $-1 -2610.933907157716 -585.27356320523506 81.499999999999616 1.2185235651516166e-14 -2.204165669428328e-13 -99.500000000000014 F -0.30653266331658297 F 0.69346733668341709 #
DXID-attrib $-1 -1 $-1 $27 $11 @18 ASM_FACE_FROM_STEP @16 stp-2M-184-29668 #
fmesh-eye-attrib $-1 -1 $95 $28 $18 #
truecolor-adesk-attrib $-1 -1 $96 $-1 $29 -1030722213 #
face $97 -1 $-1 $98 $99 $3 $-1 $100 reversed single #
loop $-1 -1 $-1 $-1 $101 $29 #
plane-surface $-1 -1 $-1 -2963.933907157716 -775.27356320523518 -9.9999999999999822 -1 -1.1636526312086842e-31 -5.2529371276930222e-17 -5.252937127693021e-17 2.2152418788224399e-15 1 forward_v I I I I #
coedge $-1 -1 $-1 $102 $103 $104 $105 reversed $30 $-1 #
coedge $-1 -1 $-1 $106 $32 $107 $108 forward $19 $-1 #
coedge $-1 -1 $-1 $32 $106 $109 $110 forward $19 $-1 #
coedge $-1 -1 $-1 $103 $102 $32 $59 forward $30 $-1 #
edge $111 -1 $-1 $112 0 $113 1 $32 $114 forward @7 unknown #
coedge $-1 -1 $-1 $34 $33 $115 $116 forward $12 $-1 #
coedge $-1 -1 $-1 $117 $118 $33 $62 reversed $119 $-1 #
edge $120 -1 $-1 $70 -3.0500000000000003 $121 -2.0500000000000003 $33 $122 forward @7 unknown #
coedge $-1 -1 $-1 $123 $124 $34 $64 reversed $125 $-1 #
edge $126 -1 $-1 $127 2.5500000000000003 $69 3.5500000000000003 $34 $128 forward @7 unknown #
coedge $-1 -1 $-1 $129 $35 $124 $130 reversed $67 $-1 #
coedge $-1 -1 $-1 $35 $131 $117 $132 forward $67 $-1 #
loop $-1 -1 $-1 $-1 $133 $134 #
truecolor-adesk-attrib $-1 -1 $135 $-1 $36 -1030722213 #
vertex $-1 -1 $-1 $36 $136 #
vertex $-1 -1 $-1 $36 $137 #
straight-curve $-1 -1 $-1 -2795.183907157716 -585.27356320523529 -10.000000000000401 69 3.3475408479931171e-29 1.511140106186768e-14 F -0.93840579710144922 F 0.061594202898550825 #
coedge $-1 -1 $-1 $138 $139 $37 $73 reversed $140 $-1 #
edge $141 -1 $-1 $78 -0.19346733668341709 $84 0.80653266331658291 $37 $142 forward @7 unknown #
coedge $-1 -1 $-1 $143 $38 $43 $89 reversed $76 $-1 #
coedge $-1 -1 $-1 $38 $143 $138 $144 forward $76 $-1 #
loop $-1 -1 $-1 $-1 $38 $145 #
truecolor-adesk-attrib $-1 -1 $146 $-1 $39 -1030722213 #
vertex $-1 -1 $-1 $39 $147 #
straight-curve $-1 -1 $-1 -2670.683907157716 -585.27356320523518 12.499999999999615 10 2.71288887623707e-30 1.2246467991473533e-15 F 5.9750000000000014 F 6.9750000000000014 #
coedge $-1 -1 $-1 $148 $40 $139 $149 forward $82 $-1 #
coedge $-1 -1 $-1 $40 $150 $42 $87 forward $82 $-1 #
loop $-1 -1 $-1 $-1 $151 $152 #
truecolor-adesk-attrib $-1 -1 $153 $-1 $41 -1030722213 #
vertex $-1 -1 $-1 $73 $154 #
straight-curve $-1 -1 $-1 -2662.183907157716 -585.27356320523495 111.99999999999963 -10 -2.71288887623707e-30 -1.2246467991473533e-15 F -6.1250000000000036 F -5.1250000000000036 #
coedge $-1 -1 $-1 $90 $42 $155 $156 forward $44 $-1 #
edge $157 -1 $-1 $158 -3.8787878787878789 $46 -2.8787878787878785 $42 $159 forward @7 unknown #
coedge $-1 -1 $-1 $43 $90 $160 $161 forward $44 $-1 #
edge $162 -1 $-1 $163 0 $47 1 $43 $164 forward @7 unknown #
coedge $-1 -1 $-1 $88 $86 $165 $166 reversed $44 $-1 #
face $167 -1 $-1 $168 $44 $3 $-1 $169 forward single #
DXID-attrib $-1 -1 $-1 $45 $25 @18 ASM_EDGE_FROM_STEP @5 15502 #
point $-1 -1 $-1 -2610.933907157716 -585.27356320523495 111.99999999999963 #
point $-1 -1 $-1 -2610.933907157716 -585.27356320523518 12.499999999999622 #
DXID-attrib $-1 -1 $-1 $50 $18 @18 ASM_FACE_FROM_STEP @16 stp-2M-184-29669 #
fmesh-eye-attrib $-1 -1 $170 $51 $29 #
truecolor-adesk-attrib $-1 -1 $171 $-1 $52 -1030722213 #
face $172 -1 $-1 $91 $125 $3 $-1 $173 forward single #
loop $-1 -1 $-1 $-1 $174 $52 #
plane-surface $-1 -1 $-1 -2911.933907157716 -775.27356320523484 180.5 0 1 -2.2152418788224399e-15 1 2.71288887623707e-31 1.2246467991473532e-16 forward_v I I I I #
coedge $-1 -1 $-1 $175 $176 $177 $178 reversed $53 $-1 #
coedge $-1 -1 $-1 $58 $55 $179 $180 forward $30 $-1 #
coedge $-1 -1 $-1 $55 $58 $181 $182 forward $30 $-1 #
coedge $-1 -1 $-1 $176 $175 $55 $105 forward $53 $-1 #
edge $183 -1 $-1 $184 0 $185 1 $55 $186 forward @7 unknown #
coedge $-1 -1 $-1 $57 $56 $187 $188 forward $19 $-1 #
coedge $-1 -1 $-1 $179 $174 $56 $108 reversed $99 $-1 #
edge $189 -1 $-1 $112 -0.22222222222222224 $190 0.77777777777777779 $56 $191 forward @7 unknown #
coedge $-1 -1 $-1 $192 $181 $57 $110 reversed $193 $-1 #
edge $194 -1 $-1 $195 -0.71776729559748431 $113 0.28223270440251569 $57 $196 forward @7 unknown #
truecolor-adesk-attrib $-1 -1 $197 $-1 $59 -1030722213 #
vertex $-1 -1 $-1 $59 $198 #
vertex $-1 -1 $-1 $59 $199 #
straight-curve $-1 -1 $-1 -2953.933907157716 -775.27356320523415 477 0 256 -5.671019209785446e-13 F 0 F 1 #
coedge $-1 -1 $-1 $200 $201 $60 $116 reversed $202 $-1 #
edge $203 -1 $-1 $121 0.43840579710144956 $127 1.4384057971014497 $60 $204 forward @7 unknown #
coedge $-1 -1 $-1 $205 $61 $66 $132 reversed $119 $-1 #
coedge $-1 -1 $-1 $61 $205 $200 $206 forward $119 $-1 #
loop $-1 -1 $-1 $-1 $61 $207 #
truecolor-adesk-attrib $-1 -1 $208 $-1 $62 -1030722213 #
vertex $-1 -1 $-1 $62 $209 #
straight-curve $-1 -1 $-1 -2790.933907157716 -585.27356320523518 20.499999999999606 -1.2246467991473533e-15 2.2152418788224398e-14 10 F -3.0500000000000003 F -2.0500000000000003 #
coedge $-1 -1 $-1 $210 $63 $201 $211 reversed $125 $-1 #
coedge $-1 -1 $-1 $63 $210 $65 $130 forward $125 $-1 #
loop $-1 -1 $-1 $-1 $63 $98 #
truecolor-adesk-attrib $-1 -1 $212 $-1 $64 -1030722213 #
vertex $-1 -1 $-1 $116 $213 #
straight-curve $-1 -1 $-1 -2859.933907157716 -585.27356320523518 25.499999999999595 1.2246467991473533e-15 -2.2152418788224398e-14 -10 F 2.5500000000000003 F 3.5500000000000003 #
coedge $-1 -1 $-1 $177 $65 $214 $215 forward $67 $-1 #
edge $216 -1 $-1 $217 0 $69 1 $124 $218 forward @7 unknown #
coedge $-1 -1 $-1 $66 $133 $219 $220 forward $67 $-1 #
edge $221 -1 $-1 $222 0 $70 1 $117 $223 forward @7 unknown #
coedge $-1 -1 $-1 $131 $224 $225 $226 reversed $67 $-1 #
face $227 -1 $-1 $228 $67 $3 $-1 $229 forward single #
DXID-attrib $-1 -1 $-1 $68 $36 @18 ASM_EDGE_FROM_STEP @5 15506 #
point $-1 -1 $-1 -2859.933907157716 -585.27356320523529 -10.00000000000041 #
point $-1 -1 $-1 -2790.933907157716 -585.27356320523529 -10.000000000000401 #
coedge $-1 -1 $-1 $230 $72 $75 $144 reversed $140 $-1 #
coedge $-1 -1 $-1 $72 $231 $80 $149 reversed $140 $-1 #
loop $-1 -1 $-1 $-1 $138 $232 #
truecolor-adesk-attrib $-1 -1 $233 $-1 $73 -1030722213 #
straight-curve $-1 -1 $-1 -2600.933907157716 -585.27356320523518 31.749999999999627 -1.2185235651516166e-14 2.204165669428328e-13 99.500000000000014 F -0.19346733668341709 F 0.80653266331658291 #
coedge $-1 -1 $-1 $75 $74 $234 $235 forward $76 $-1 #
edge $236 -1 $-1 $237 0 $78 1 $138 $238 forward @7 unknown #
face $239 -1 $-1 $240 $76 $3 $-1 $241 forward single #
DXID-attrib $-1 -1 $-1 $77 $39 @18 ASM_EDGE_FROM_STEP @5 15503 #
point $-1 -1 $-1 -2600.933907157716 -585.27356320523518 12.499999999999622 #
coedge $-1 -1 $-1 $242 $80 $243 $244 forward $82 $-1 #
edge $245 -1 $-1 $84 2.8787878787878785 $246 3.8787878787878789 $139 $247 forward @7 unknown #
coedge $-1 -1 $-1 $81 $248 $249 $250 forward $82 $-1 #
coedge $-1 -1 $-1 $248 $242 $251 $252 forward $82 $-1 #
face $253 -1 $-1 $254 $82 $3 $-1 $255 forward single #
DXID-attrib $-1 -1 $-1 $83 $41 @18 ASM_EDGE_FROM_STEP @5 15505 #
point $-1 -1 $-1 -2600.933907157716 -585.27356320523495 111.99999999999963 #
coedge $-1 -1 $-1 $249 $256 $86 $156 reversed $193 $-1 #
edge $257 -1 $-1 $158 -0.18654434250764529 $258 0.81345565749235471 $86 $259 forward @7 unknown #
truecolor-adesk-attrib $-1 -1 $260 $-1 $87 -1030722213 #
vertex $-1 -1 $-1 $87 $261 #
straight-curve $-1 -1 $-1 -2610.933907157716 -775.27356320523495 112.00000000000006 0 -66 1.4620596400228104e-13 F -3.8787878787878789 F -2.8787878787878785 #
coedge $-1 -1 $-1 $262 $234 $88 $161 reversed $263 $-1 #
edge $264 -1 $-1 $265 0 $163 1 $88 $266 forward @7 unknown #
truecolor-adesk-attrib $-1 -1 $267 $-1 $89 -1030722213 #
vertex $-1 -1 $-1 $161 $268 #
straight-curve $-1 -1 $-1 -2610.933907157716 -775.27356320523518 12.500000000000043 0 190 -4.2089595697626356e-13 F 0 F 1 #
coedge $-1 -1 $-1 $269 $270 $90 $166 forward $271 $-1 #
edge $272 -1 $-1 $265 0 $258 1 $90 $273 forward @7 unknown #
truecolor-adesk-attrib $-1 -1 $274 $-1 $91 -1030722213 #
face $275 -1 $-1 $276 $271 $3 $-1 $277 forward single #
plane-surface $-1 -1 $-1 -2610.933907157716 -775.2735632052354 -51.499999999999957 -1 2.1881236513588648e-30 9.8775834471042474e-16 9.8775834471042494e-16 2.2152418788224399e-15 1 forward_v I I I I #
DXID-attrib $-1 -1 $-1 $96 $29 @18 ASM_FACE_FROM_STEP @16 stp-2M-184-29670 #
fmesh-eye-attrib $-1 -1 $278 $97 $52 #
truecolor-adesk-attrib $-1 -1 $279 $-1 $98 -1030722213 #
plane-surface $-1 -1 $-1 -2859.933907157716 -775.27356320523518 1.151167991198512e-14 1 2.71288887623707e-31 1.2246467991473532e-16 1.2246467991473532e-16 -2.2152418788224399e-15 -1 forward_v I I I I #
coedge $-1 -1 $-1 $107 $280 $281 $282 reversed $99 $-1 #
coedge $-1 -1 $-1 $104 $101 $283 $284 forward $53 $-1 #
coedge $-1 -1 $-1 $101 $104 $285 $286 forward $53 $-1 #
coedge $-1 -1 $-1 $224 $129 $101 $178 forward $67 $-1 #
edge $287 -1 $-1 $288 0 $289 1 $101 $290 forward @7 unknown #
coedge $-1 -1 $-1 $283 $107 $102 $180 reversed $99 $-1 #
edge $291 -1 $-1 $184 0 $112 0.99999999999999711 $102 $292 forward @7 unknown #
coedge $-1 -1 $-1 $109 $285 $103 $182 reversed $193 $-1 #
edge $293 -1 $-1 $113 8.2499999999999112 $185 9.2499999999999076 $103 $294 forward @7 unknown #
truecolor-adesk-attrib $-1 -1 $295 $-1 $105 -1030722213 #
vertex $-1 -1 $-1 $105 $296 #
vertex $-1 -1 $-1 $105 $297 #
straight-curve $-1 -1 $-1 -2963.933907157716 -775.27356320523415 477 0 256 -5.671019209785446e-13 F 0 F 1 #
coedge $-1 -1 $-1 $281 $298 $106 $188 reversed $202 $-1 #
edge $299 -1 $-1 $190 0 $195 1 $106 $300 forward @7 unknown #
truecolor-adesk-attrib $-1 -1 $301 $-1 $108 -1030722213 #
vertex $-1 -1 $-1 $108 $302 #
straight-curve $-1 -1 $-1 -2953.933907157716 -775.27356320523438 371 5.8415652319328754e-14 -1.0566703761983038e-12 -477 F -0.22222222222222224 F 0.77777777777777779 #
coedge $-1 -1 $-1 $303 $109 $298 $304 reversed $193 $-1 #
loop $-1 -1 $-1 $-1 $305 $306 #
truecolor-adesk-attrib $-1 -1 $307 $-1 $110 -1030722213 #
vertex $-1 -1 $-1 $188 $308 #
straight-curve $-1 -1 $-1 -2953.933907157716 -519.2735632052345 342.37499999999949 -5.8415652319328754e-14 1.0566703761983038e-12 477 F -0.71776729559748431 F 0.28223270440251569 #
DXID-attrib $-1 -1 $-1 $111 $59 @18 ASM_EDGE_FROM_STEP @5 15510 #
point $-1 -1 $-1 -2953.933907157716 -775.27356320523415 477 #
point $-1 -1 $-1 -2953.933907157716 -519.27356320523415 476.99999999999943 #
coedge $-1 -1 $-1 $309 $115 $118 $206 reversed $202 $-1 #
coedge $-1 -1 $-1 $115 $281 $123 $211 forward $202 $-1 #
loop $-1 -1 $-1 $-1 $200 $310 #
truecolor-adesk-attrib $-1 -1 $311 $-1 $116 -1030722213 #
straight-curve $-1 -1 $-1 -2760.683907157716 -585.27356320523518 -3.9722965758274096e-13 -69 -1.8718933246035783e-29 -8.4500629141167378e-15 F 0.43840579710144956 F 1.4384057971014497 #
coedge $-1 -1 $-1 $118 $117 $312 $313 forward $119 $-1 #
edge $314 -1 $-1 $315 0 $121 1 $200 $316 forward @7 unknown #
face $317 -1 $-1 $134 $119 $3 $-1 $318 forward single #
DXID-attrib $-1 -1 $-1 $120 $62 @18 ASM_EDGE_FROM_STEP @5 15507 #
point $-1 -1 $-1 -2790.933907157716 -585.27356320523518 -4.0093421415016171e-13 #
coedge $-1 -1 $-1 $124 $123 $280 $319 forward $125 $-1 #
edge $320 -1 $-1 $321 0 $127 1 $123 $322 forward @7 unknown #
DXID-attrib $-1 -1 $-1 $126 $64 @18 ASM_EDGE_FROM_STEP @5 15509 #
point $-1 -1 $-1 -2859.933907157716 -585.27356320523518 -4.0938427706427846e-13 #
coedge $-1 -1 $-1 $280 $283 $129 $215 reversed $99 $-1 #
edge $323 -1 $-1 $217 0 $288 1 $214 $324 forward @7 unknown #
truecolor-adesk-attrib $-1 -1 $325 $-1 $130 -1030722213 #
vertex $-1 -1 $-1 $215 $326 #
straight-curve $-1 -1 $-1 -2859.933907157716 -775.27356320523518 -9.9999999999999893 0 190 -4.2089595697626356e-13 F 0 F 1 #
coedge $-1 -1 $-1 $327 $312 $131 $220 reversed $263 $-1 #
edge $328 -1 $-1 $329 0 $222 1 $131 $330 forward @7 unknown #
truecolor-adesk-attrib $-1 -1 $331 $-1 $132 -1030722213 #
vertex $-1 -1 $-1 $132 $332 #
straight-curve $-1 -1 $-1 -2790.933907157716 -775.27356320523518 -9.9999999999999805 0 190 -4.2089595697626356e-13 F 0 F 1 #
coedge $-1 -1 $-1 $133 $177 $333 $334 forward $67 $-1 #
coedge $-1 -1 $-1 $335 $336 $133 $226 forward $337 $-1 #
edge $338 -1 $-1 $329 0 $339 1 $133 $340 forward @7 unknown #
truecolor-adesk-attrib $-1 -1 $341 $-1 $134 -1030722213 #
face $342 -1 $-1 $343 $337 $3 $-1 $344 forward single #
plane-surface $-1 -1 $-1 -2692.933907157716 -775.27356320523518 -9.999999999999968 7.714945441983102e-17 -2.2152418788224399e-15 -1 -1 -1.7090470235911265e-31 -7.714945441983102e-17 forward_v I I I I #
coedge $-1 -1 $-1 $345 $138 $346 $347 forward $140 $-1 #
coedge $-1 -1 $-1 $139 $345 $305 $348 forward $140 $-1 #
face $349 -1 $-1 $145 $140 $3 $-1 $350 forward single #
DXID-attrib $-1 -1 $-1 $141 $73 @18 ASM_EDGE_FROM_STEP @5 15504 #
coedge $-1 -1 $-1 $160 $346 $143 $235 reversed $263 $-1 #
edge $351 -1 $-1 $163 0 $237 1 $143 $352 forward @7 unknown #
truecolor-adesk-attrib $-1 -1 $353 $-1 $144 -1030722213 #
vertex $-1 -1 $-1 $144 $354 #
straight-curve $-1 -1 $-1 -2600.933907157716 -775.27356320523518 12.500000000000043 0 190 -4.2089595697626356e-13 F 0 F 1 #
truecolor-adesk-attrib $-1 -1 $355 $-1 $145 -1030722213 #
face $356 -1 $-1 $306 $263 $3 $-1 $357 reversed single #
plane-surface $-1 -1 $-1 -2610.933907157716 -775.27356320523518 12.500000000000043 -1.2246467991473532e-16 2.2152418788224399e-15 1 1 2.71288887623707e-31 1.2246467991473532e-16 forward_v I I I I #
coedge $-1 -1 $-1 $151 $148 $358 $359 reversed $82 $-1 #
coedge $-1 -1 $-1 $305 $360 $148 $244 reversed $193 $-1 #
edge $361 -1 $-1 $246 12.214285714285788 $362 13.214285714285788 $243 $363 forward @7 unknown #
truecolor-adesk-attrib $-1 -1 $364 $-1 $149 -1030722213 #
vertex $-1 -1 $-1 $348 $365 #
straight-curve $-1 -1 $-1 -2600.933907157716 -775.27356320523495 112.00000000000006 0 66 -1.4620596400228104e-13 F 2.8787878787878785 F 3.8787878787878789 #
coedge $-1 -1 $-1 $150 $151 $366 $367 forward $82 $-1 #
coedge $-1 -1 $-1 $368 $155 $150 $250 reversed $193 $-1 #
edge $369 -1 $-1 $370 24.166666666666341 $158 25.166666666666341 $249 $371 forward @7 unknown #
coedge $-1 -1 $-1 $372 $373 $151 $252 reversed $374 $-1 #
edge $375 -1 $-1 $376 0 $377 1 $151 $378 forward @7 unknown #
truecolor-adesk-attrib $-1 -1 $379 $-1 $152 -1030722213 #
face $380 -1 $-1 $-1 $374 $3 $-1 $381 reversed single #
plane-surface $-1 -1 $-1 -2593.933907157716 -775.27356320523495 112.00000000000006 1.2246467991473532e-16 -2.2152418788224399e-15 -1 -1 -2.71288887623707e-31 -1.2246467991473532e-16 forward_v I I I I #
coedge $-1 -1 $-1 $155 $303 $269 $382 reversed $193 $-1 #
truecolor-adesk-attrib $-1 -1 $383 $-1 $156 -1030722213 #
vertex $-1 -1 $-1 $166 $384 #
straight-curve $-1 -1 $-1 -2610.933907157716 -519.27356320523506 81.499999999999474 2.0022975166059225e-14 -3.621920471874689e-13 -163.5 F -0.18654434250764529 F 0.81345565749235471 #
DXID-attrib $-1 -1 $-1 $157 $87 @18 ASM_EDGE_FROM_STEP @5 15528 #
point $-1 -1 $-1 -2610.933907157716 -519.27356320523495 111.99999999999949 #
coedge $-1 -1 $-1 $385 $160 $270 $386 reversed $263 $-1 #
loop $-1 -1 $-1 $-1 $346 $240 #
truecolor-adesk-attrib $-1 -1 $387 $-1 $161 -1030722213 #
vertex $-1 -1 $-1 $166 $388 #
straight-curve $-1 -1 $-1 -2610.933907157716 -775.2735632052354 -51.499999999999957 6.3216534061467196e-14 1.4177548024463615e-13 64 F 0 F 1 #
DXID-attrib $-1 -1 $-1 $162 $89 @18 ASM_EDGE_FROM_STEP @5 15527 #
point $-1 -1 $-1 -2610.933907157716 -775.27356320523518 12.500000000000043 #
coedge $-1 -1 $-1 $389 $165 $256 $382 forward $271 $-1 #
coedge $-1 -1 $-1 $165 $389 $262 $386 forward $271 $-1 #
loop $-1 -1 $-1 $-1 $389 $168 #
truecolor-adesk-attrib $-1 -1 $390 $-1 $166 -1030722213 #
straight-curve $-1 -1 $-1 -2610.933907157716 -775.2735632052354 -51.499999999999957 0 256 -5.671019209785446e-13 F 0 F 1 #
fmesh-eye-attrib $-1 -1 $391 $167 $91 #
truecolor-adesk-attrib $-1 -1 $392 $-1 $168 -1030722213 #
face $393 -1 $-1 $310 $394 $3 $-1 $395 forward single #
plane-surface $-1 -1 $-1 -2682.933907157716 -775.2735632052354 -51.499999999999964 -1.2246467991473532e-16 2.2152418788224399e-15 1 1 2.71288887623707e-31 1.2246467991473532e-16 forward_v I I I I #
DXID-attrib $-1 -1 $-1 $171 $52 @18 ASM_FACE_FROM_STEP @16 stp-2M-184-29671 #
fmesh-eye-attrib $-1 -1 $396 $172 $98 #
coedge $-1 -1 $-1 $174 $214 $210 $319 reversed $99 $-1 #
coedge $-1 -1 $-1 $201 $187 $174 $282 forward $202 $-1 #
edge $397 -1 $-1 $190 0 $321 1 $174 $398 forward @7 unknown #
coedge $-1 -1 $-1 $214 $179 $175 $284 reversed $99 $-1 #
edge $399 -1 $-1 $288 0 $184 1 $175 $400 forward @7 unknown #
coedge $-1 -1 $-1 $181 $333 $176 $286 reversed $193 $-1 #
edge $401 -1 $-1 $185 -0.77643737166324434 $289 0.22356262833675561 $176 $402 forward @7 unknown #
truecolor-adesk-attrib $-1 -1 $403 $-1 $178 -1030722213 #
vertex $-1 -1 $-1 $178 $404 #
vertex $-1 -1 $-1 $178 $405 #
straight-curve $-1 -1 $-1 -2963.933907157716 -775.27356320523518 -9.9999999999999822 0 256 -5.671019209785446e-13 F 0 F 1 #
truecolor-adesk-attrib $-1 -1 $406 $-1 $180 -1030722213 #
straight-curve $-1 -1 $-1 -2963.933907157716 -775.27356320523415 477 10.000000000000099 2.712888876237097e-30 1.2246467991473655e-15 F 0 F 0.99999999999999711 #
truecolor-adesk-attrib $-1 -1 $407 $-1 $182 -1030722213 #
straight-curve $-1 -1 $-1 -2871.433907157716 -519.27356320523415 476.99999999999943 -10.000000000000099 -2.712888876237097e-30 -1.2246467991473655e-15 F 8.2499999999999112 F 9.2499999999999076 #
DXID-attrib $-1 -1 $-1 $183 $105 @18 ASM_EDGE_FROM_STEP @5 15514 #
point $-1 -1 $-1 -2963.933907157716 -775.27356320523415 477 #
point $-1 -1 $-1 -2963.933907157716 -519.27356320523415 476.99999999999943 #
coedge $-1 -1 $-1 $187 $408 $192 $304 forward $202 $-1 #
truecolor-adesk-attrib $-1 -1 $409 $-1 $188 -1030722213 #
straight-curve $-1 -1 $-1 -2953.933907157716 -775.27356320523518 0 0 256 -5.671019209785446e-13 F 0 F 1 #
DXID-attrib $-1 -1 $-1 $189 $108 @18 ASM_EDGE_FROM_STEP @5 15511 #
point $-1 -1 $-1 -2953.933907157716 -775.27356320523518 0 #
coedge $-1 -1 $-1 $256 $192 $410 $411 reversed $193 $-1 #
edge $412 -1 $-1 $413 -0.37638376383763833 $195 0.62361623616236161 $298 $414 forward @7 unknown #
coedge $-1 -1 $-1 $415 $243 $231 $348 reversed $193 $-1 #
face $416 -1 $-1 $417 $193 $3 $-1 $418 forward single #
DXID-attrib $-1 -1 $-1 $194 $110 @18 ASM_EDGE_FROM_STEP @5 15513 #
point $-1 -1 $-1 -2953.933907157716 -519.27356320523518 -5.671019209785446e-13 #
coedge $-1 -1 $-1 $408 $200 $419 $420 forward $202 $-1 #
face $421 -1 $-1 $207 $202 $3 $-1 $422 forward single #
DXID-attrib $-1 -1 $-1 $203 $116 @18 ASM_EDGE_FROM_STEP @5 15508 #
coedge $-1 -1 $-1 $219 $419 $205 $313 reversed $263 $-1 #
edge $423 -1 $-1 $222 0 $315 1 $205 $424 forward @7 unknown #
truecolor-adesk-attrib $-1 -1 $425 $-1 $206 -1030722213 #
vertex $-1 -1 $-1 $206 $426 #
straight-curve $-1 -1 $-1 -2790.933907157716 -775.27356320523518 1.9961742826101858e-14 0 190 -4.2089595697626356e-13 F 0 F 1 #
truecolor-adesk-attrib $-1 -1 $427 $-1 $207 -1030722213 #
plane-surface $-1 -1 $-1 -2790.933907157716 -775.27356320523518 -9.9999999999999805 -1 -2.71288887623707e-31 -1.2246467991473532e-16 -1.2246467991473532e-16 2.2152418788224399e-15 1 forward_v I I I I #
edge $428 -1 $-1 $321 0 $217 1 $280 $429 forward @7 unknown #
truecolor-adesk-attrib $-1 -1 $430 $-1 $211 -1030722213 #
vertex $-1 -1 $-1 $282 $431 #
straight-curve $-1 -1 $-1 -2859.933907157716 -775.27356320523518 1.151167991198512e-14 0 190 -4.2089595697626356e-13 F 0 F 1 #
truecolor-adesk-attrib $-1 -1 $432 $-1 $215 -1030722213 #
straight-curve $-1 -1 $-1 -2859.933907157716 -775.27356320523518 -9.9999999999999893 -104 2.0974206466785733e-29 9.4681337813706517e-15 F 0 F 1 #
DXID-attrib $-1 -1 $-1 $216 $130 @18 ASM_EDGE_FROM_STEP @5 15524 #
point $-1 -1 $-1 -2859.933907157716 -775.27356320523518 -9.9999999999999893 #
coedge $-1 -1 $-1 $433 $219 $336 $434 reversed $263 $-1 #
truecolor-adesk-attrib $-1 -1 $435 $-1 $220 -1030722213 #
vertex $-1 -1 $-1 $226 $436 #
straight-curve $-1 -1 $-1 -2692.933907157716 -775.27356320523518 -9.999999999999968 -98 -1.6748660831193044e-29 -7.5606465331434404e-15 F 0 F 1 #
DXID-attrib $-1 -1 $-1 $221 $132 @18 ASM_EDGE_FROM_STEP @5 15539 #
point $-1 -1 $-1 -2790.933907157716 -775.27356320523518 -9.9999999999999805 #
coedge $-1 -1 $-1 $285 $437 $224 $334 reversed $193 $-1 #
edge $438 -1 $-1 $289 -0.53321033210332103 $339 0.46678966789667897 $224 $439 forward @7 unknown #
coedge $-1 -1 $-1 $440 $225 $437 $441 forward $337 $-1 #
coedge $-1 -1 $-1 $225 $440 $327 $434 forward $337 $-1 #
loop $-1 -1 $-1 $-1 $440 $228 #
truecolor-adesk-attrib $-1 -1 $442 $-1 $226 -1030722213 #
vertex $-1 -1 $-1 $226 $443 #
straight-curve $-1 -1 $-1 -2692.933907157716 -775.27356320523518 -9.999999999999968 0 256 -5.671019209785446e-13 F 0 F 1 #
fmesh-eye-attrib $-1 -1 $444 $227 $134 #
truecolor-adesk-attrib $-1 -1 $445 $-1 $228 -1030722213 #
face $446 -1 $-1 $232 $447 $3 $-1 $448 forward single #
plane-surface $-1 -1 $-1 -2692.933907157716 -775.2735632052354 -61.499999999999972 -1 1.2568897773751678e-30 5.6738263635720667e-16 5.6738263635720677e-16 2.2152418788224399e-15 1 forward_v I I I I #
coedge $-1 -1 $-1 $231 $230 $449 $450 forward $140 $-1 #
coedge $-1 -1 $-1 $234 $433 $230 $347 reversed $263 $-1 #
edge $451 -1 $-1 $237 0 $452 1 $230 $453 forward @7 unknown #
edge $454 -1 $-1 $455 -0.98919308357348701 $246 0.010806916426512967 $231 $456 forward @7 unknown #
truecolor-adesk-attrib $-1 -1 $457 $-1 $232 -1030722213 #
plane-surface $-1 -1 $-1 -2600.933907157716 -775.27356320523518 12.500000000000043 1 2.71288887623707e-31 1.2246467991473532e-16 1.2246467991473532e-16 -2.2152418788224399e-15 -1 forward_v I I I I #
truecolor-adesk-attrib $-1 -1 $458 $-1 $235 -1030722213 #
straight-curve $-1 -1 $-1 -2610.933907157716 -775.27356320523518 12.500000000000043 10 2.71288887623707e-30 1.2246467991473533e-15 F 0 F 1 #
DXID-attrib $-1 -1 $-1 $236 $144 @18 ASM_EDGE_FROM_STEP @5 15550 #
point $-1 -1 $-1 -2600.933907157716 -775.27356320523518 12.500000000000043 #
fmesh-eye-attrib $-1 -1 $459 $239 $145 #
truecolor-adesk-attrib $-1 -1 $460 $-1 $240 -1030722213 #
plane-surface $-1 -1 $-1 -2695.933907157716 -775.27356320523529 -24.499999999999968 0 1 -2.2152418788224399e-15 1 2.71288887623707e-31 1.2246467991473532e-16 forward_v I I I I #
coedge $-1 -1 $-1 $461 $462 $242 $359 forward $463 $-1 #
edge $464 -1 $-1 $376 0 $362 1 $358 $465 forward @7 unknown #
coedge $-1 -1 $-1 $243 $466 $461 $467 reversed $193 $-1 #
truecolor-adesk-attrib $-1 -1 $468 $-1 $244 -1030722213 #
vertex $-1 -1 $-1 $467 $469 #
straight-curve $-1 -1 $-1 -2686.433907157716 -519.27356320523495 111.99999999999947 6.9999999999999609 1.8990222133659383e-30 8.5725275940314249e-16 F 12.214285714285788 F 13.214285714285788 #
DXID-attrib $-1 -1 $-1 $245 $149 @18 ASM_EDGE_FROM_STEP @5 15553 #
point $-1 -1 $-1 -2600.933907157716 -519.27356320523495 111.99999999999949 #
coedge $-1 -1 $-1 $470 $471 $248 $367 reversed $472 $-1 #
edge $473 -1 $-1 $377 0 $370 1 $366 $474 forward @7 unknown #
coedge $-1 -1 $-1 $475 $249 $471 $476 reversed $193 $-1 #
truecolor-adesk-attrib $-1 -1 $477 $-1 $250 -1030722213 #
vertex $-1 -1 $-1 $250 $478 #
straight-curve $-1 -1 $-1 -2686.433907157716 -519.27356320523495 111.99999999999947 3.0000000000000404 8.1386666287113203e-31 3.6739403974421092e-16 F 24.166666666666341 F 25.166666666666341 #
coedge $-1 -1 $-1 $479 $251 $462 $480 reversed $374 $-1 #
coedge $-1 -1 $-1 $251 $481 $470 $482 reversed $374 $-1 #
loop $-1 -1 $-1 $-1 $373 $254 #
truecolor-adesk-attrib $-1 -1 $483 $-1 $252 -1030722213 #
vertex $-1 -1 $-1 $480 $484 #
vertex $-1 -1 $-1 $367 $485 #
straight-curve $-1 -1 $-1 -2593.933907157716 -775.27356320523495 112.00000000000006 -20 -5.42577775247414e-30 -2.4492935982947065e-15 F 0 F 1 #
fmesh-eye-attrib $-1 -1 $486 $253 $152 #
truecolor-adesk-attrib $-1 -1 $487 $-1 $254 -1030722213 #
plane-surface $-1 -1 $-1 -2603.933907157716 -775.2735632052345 294.50000000000006 0 1 -2.2152418788224399e-15 1 2.71288887623707e-31 1.2246467991473532e-16 forward_v I I I I #
edge $488 -1 $-1 $258 -1.6666666666666672 $489 -0.66666666666666674 $269 $490 forward @7 unknown #
DXID-attrib $-1 -1 $-1 $257 $156 @18 ASM_EDGE_FROM_STEP @5 15529 #
point $-1 -1 $-1 -2610.933907157716 -519.2735632052354 -51.500000000000526 #
coedge $-1 -1 $-1 $419 $262 $491 $492 reversed $263 $-1 #
edge $493 -1 $-1 $494 0 $265 1.0000000000000004 $270 $495 forward @7 unknown #
DXID-attrib $-1 -1 $-1 $264 $161 @18 ASM_EDGE_FROM_STEP @5 15526 #
point $-1 -1 $-1 -2610.933907157716 -775.2735632052354 -51.499999999999957 #
coedge $-1 -1 $-1 $270 $269 $496 $497 reversed $271 $-1 #
DXID-attrib $-1 -1 $-1 $272 $166 @18 ASM_EDGE_FROM_STEP @5 15525 #
DXID-attrib $-1 -1 $-1 $274 $91 @18 ASM_FACE_FROM_STEP @16 stp-2M-184-29673 #
fmesh-eye-attrib $-1 -1 $498 $275 $168 #
truecolor-adesk-attrib $-1 -1 $499 $-1 $276 -1030722213 #
loop $-1 -1 $-1 $-1 $500 $276 #
plane-surface $-1 -1 $-1 -2682.933907157716 -775.27356320523518 3.3187928256893269e-14 1 1.7994675526225816e-30 8.1231199618667736e-16 8.1231199618667746e-16 -2.2152418788224399e-15 -1 forward_v I I I I #
DXID-attrib $-1 -1 $-1 $279 $98 @18 ASM_FACE_FROM_STEP @16 stp-2M-184-29672 #
truecolor-adesk-attrib $-1 -1 $501 $-1 $282 -1030722213 #
straight-curve $-1 -1 $-1 -2953.933907157716 -775.27356320523518 0 94 2.5501155436628455e-29 1.151167991198512e-14 F 0 F 1 #
truecolor-adesk-attrib $-1 -1 $502 $-1 $284 -1030722213 #
straight-curve $-1 -1 $-1 -2963.933907157716 -775.27356320523518 -9.9999999999999822 -2.5581803811865024e-14 1.0788227949865282e-12 487 F 0 F 1 #
truecolor-adesk-attrib $-1 -1 $503 $-1 $286 -1030722213 #
straight-curve $-1 -1 $-1 -2963.933907157716 -519.27356320523495 98.874999999999446 2.5581803811865024e-14 -1.0788227949865282e-12 -487 F -0.77643737166324434 F 0.22356262833675561 #
DXID-attrib $-1 -1 $-1 $287 $178 @18 ASM_EDGE_FROM_STEP @5 15517 #
point $-1 -1 $-1 -2963.933907157716 -775.27356320523518 -9.9999999999999822 #
point $-1 -1 $-1 -2963.933907157716 -519.27356320523518 -10.000000000000549 #
DXID-attrib $-1 -1 $-1 $291 $180 @18 ASM_EDGE_FROM_STEP @5 15515 #
DXID-attrib $-1 -1 $-1 $293 $182 @18 ASM_EDGE_FROM_STEP @5 15516 #
coedge $-1 -1 $-1 $298 $309 $500 $504 forward $202 $-1 #
DXID-attrib $-1 -1 $-1 $299 $188 @18 ASM_EDGE_FROM_STEP @5 15512 #
coedge $-1 -1 $-1 $500 $496 $303 $411 forward $394 $-1 #
edge $505 -1 $-1 $489 -3.016990291262136 $413 -2.016990291262136 $410 $506 forward @7 unknown #
truecolor-adesk-attrib $-1 -1 $507 $-1 $304 -1030722213 #
vertex $-1 -1 $-1 $504 $508 #
straight-curve $-1 -1 $-1 -2784.933907157716 -519.27356320523518 -5.4640539007295434e-13 -271 -7.3519288546024598e-29 -3.3187928256893269e-14 F -0.37638376383763833 F 0.62361623616236161 #
coedge $-1 -1 $-1 $437 $305 $509 $510 reversed $193 $-1 #
truecolor-adesk-attrib $-1 -1 $511 $-1 $306 -1030722213 #
face $512 -1 $-1 $513 $463 $3 $-1 $514 forward single #
plane-surface $-1 -1 $-1 -2778.933907157716 -519.27356320523472 207.74999999999949 0 1 -2.2152418788224399e-15 1 2.71288887623707e-31 1.2246467991473532e-16 forward_v I I I I #
coedge $-1 -1 $-1 $312 $385 $309 $420 reversed $263 $-1 #
edge $515 -1 $-1 $315 0 $516 1 $309 $517 forward @7 unknown #
truecolor-adesk-attrib $-1 -1 $518 $-1 $310 -1030722213 #
plane-surface $-1 -1 $-1 -2790.933907157716 -775.27356320523518 1.9961742826101858e-14 -1.2246467991473532e-16 2.2152418788224399e-15 1 1 2.71288887623707e-31 1.2246467991473532e-16 forward_v I I I I #
truecolor-adesk-attrib $-1 -1 $519 $-1 $313 -1030722213 #
straight-curve $-1 -1 $-1 -2790.933907157716 -775.27356320523518 -9.9999999999999805 -1.2246467991473533e-15 2.2152418788224398e-14 10 F 0 F 1 #
DXID-attrib $-1 -1 $-1 $314 $206 @18 ASM_EDGE_FROM_STEP @5 15536 #
point $-1 -1 $-1 -2790.933907157716 -775.27356320523518 1.9961742826101858e-14 #
fmesh-eye-attrib $-1 -1 $520 $317 $207 #
truecolor-adesk-attrib $-1 -1 $521 $-1 $319 -1030722213 #
straight-curve $-1 -1 $-1 -2859.933907157716 -775.27356320523518 1.151167991198512e-14 1.2246467991473533e-15 -2.2152418788224398e-14 -10 F 0 F 1 #
DXID-attrib $-1 -1 $-1 $320 $211 @18 ASM_EDGE_FROM_STEP @5 15523 #
point $-1 -1 $-1 -2859.933907157716 -775.27356320523518 1.151167991198512e-14 #
DXID-attrib $-1 -1 $-1 $323 $215 @18 ASM_EDGE_FROM_STEP @5 15521 #
coedge $-1 -1 $-1 $346 $327 $522 $523 reversed $263 $-1 #
edge $524 -1 $-1 $525 0 $329 1 $336 $526 forward @7 unknown #
DXID-attrib $-1 -1 $-1 $328 $220 @18 ASM_EDGE_FROM_STEP @5 15542 #
point $-1 -1 $-1 -2692.933907157716 -775.27356320523518 -9.999999999999968 #
coedge $-1 -1 $-1 $333 $415 $335 $441 reversed $193 $-1 #
truecolor-adesk-attrib $-1 -1 $527 $-1 $334 -1030722213 #
straight-curve $-1 -1 $-1 -2819.433907157716 -519.27356320523518 -10.000000000000551 271 -5.4653941850951274e-29 -2.4671771680302367e-14 F -0.53321033210332103 F 0.46678966789667897 #
coedge $-1 -1 $-1 $336 $335 $528 $529 reversed $337 $-1 #
edge $530 -1 $-1 $339 1.6140776699029125 $531 2.6140776699029127 $335 $532 forward @7 unknown #
DXID-attrib $-1 -1 $-1 $338 $226 @18 ASM_EDGE_FROM_STEP @5 15541 #
point $-1 -1 $-1 -2692.933907157716 -519.27356320523518 -10.000000000000535 #
DXID-attrib $-1 -1 $-1 $341 $134 @18 ASM_FACE_FROM_STEP @16 stp-2M-184-29678 #
fmesh-eye-attrib $-1 -1 $533 $342 $228 #
truecolor-adesk-attrib $-1 -1 $534 $-1 $343 -1030722213 #
loop $-1 -1 $-1 $-1 $449 $343 #
plane-surface $-1 -1 $-1 -2600.933907157716 -775.2735632052354 -61.499999999999957 1.2246467991473532e-16 -2.2152418788224399e-15 -1 -1 -2.71288887623707e-31 -1.2246467991473532e-16 forward_v I I I I #
coedge $-1 -1 $-1 $522 $509 $345 $450 reversed $447 $-1 #
edge $535 -1 $-1 $452 0 $455 1 $449 $536 forward @7 unknown #
truecolor-adesk-attrib $-1 -1 $537 $-1 $347 -1030722213 #
vertex $-1 -1 $-1 $450 $538 #
straight-curve $-1 -1 $-1 -2600.933907157716 -775.27356320523518 12.500000000000043 9.0623863136904136e-15 -1.6392789903286056e-13 -74 F 0 F 1 #
truecolor-adesk-attrib $-1 -1 $539 $-1 $348 -1030722213 #
vertex $-1 -1 $-1 $450 $540 #
straight-curve $-1 -1 $-1 -2600.933907157716 -519.27356320523495 110.12499999999949 -2.1247621965206577e-14 3.8434446597569334e-13 173.5 F -0.98919308357348701 F 0.010806916426512967 #
fmesh-eye-attrib $-1 -1 $541 $349 $232 #
DXID-attrib $-1 -1 $-1 $351 $235 @18 ASM_EDGE_FROM_STEP @5 15554 #
DXID-attrib $-1 -1 $-1 $355 $145 @18 ASM_FACE_FROM_STEP @16 stp-2M-184-29682 #
fmesh-eye-attrib $-1 -1 $542 $356 $240 #
coedge $-1 -1 $-1 $543 $358 $360 $467 forward $463 $-1 #
coedge $-1 -1 $-1 $358 $543 $372 $480 forward $463 $-1 #
loop $-1 -1 $-1 $-1 $543 $417 #
truecolor-adesk-attrib $-1 -1 $544 $-1 $359 -1030722213 #
straight-curve $-1 -1 $-1 -2593.933907157716 -775.27356320523495 112.00000000000006 0 256 -5.671019209785446e-13 F 0 F 1 #
coedge $-1 -1 $-1 $360 $545 $546 $547 reversed $193 $-1 #
edge $548 -1 $-1 $362 -0.63116438356164384 $549 0.36883561643835611 $360 $550 forward @7 unknown #
DXID-attrib $-1 -1 $-1 $361 $244 @18 ASM_EDGE_FROM_STEP @5 15563 #
point $-1 -1 $-1 -2593.933907157716 -519.27356320523495 111.99999999999949 #
coedge $-1 -1 $-1 $551 $366 $373 $482 forward $472 $-1 #
coedge $-1 -1 $-1 $366 $551 $368 $476 forward $472 $-1 #
loop $-1 -1 $-1 $-1 $366 $552 #
truecolor-adesk-attrib $-1 -1 $553 $-1 $367 -1030722213 #
straight-curve $-1 -1 $-1 -2613.933907157716 -775.27356320523495 112.00000000000006 0 256 -5.671019209785446e-13 F 0 F 1 #
coedge $-1 -1 $-1 $554 $368 $555 $556 reversed $193 $-1 #
edge $557 -1 $-1 $558 0.36785714285714277 $370 1.3678571428571427 $368 $559 forward @7 unknown #
DXID-attrib $-1 -1 $-1 $369 $250 @18 ASM_EDGE_FROM_STEP @5 15555 #
point $-1 -1 $-1 -2613.933907157716 -519.27356320523495 111.99999999999949 #
coedge $-1 -1 $-1 $560 $372 $561 $562 reversed $374 $-1 #
edge $563 -1 $-1 $564 0 $376 1 $462 $565 forward @7 unknown #
coedge $-1 -1 $-1 $373 $566 $567 $568 reversed $374 $-1 #
edge $569 -1 $-1 $377 0 $570 1 $470 $571 forward @7 unknown #
DXID-attrib $-1 -1 $-1 $375 $252 @18 ASM_EDGE_FROM_STEP @5 15579 #
point $-1 -1 $-1 -2593.933907157716 -775.27356320523495 112.00000000000006 #
point $-1 -1 $-1 -2613.933907157716 -775.27356320523495 112.00000000000006 #
DXID-attrib $-1 -1 $-1 $379 $152 @18 ASM_FACE_FROM_STEP @16 stp-2M-184-29692 #
fmesh-eye-attrib $-1 -1 $572 $380 $254 #
truecolor-adesk-attrib $-1 -1 $573 $-1 $382 -1030722213 #
vertex $-1 -1 $-1 $497 $574 #
straight-curve $-1 -1 $-1 -2730.933907157716 -519.2735632052354 -51.50000000000054 -72 -1.9532799908906903e-29 -8.8174569538609433e-15 F -1.6666666666666672 F -0.66666666666666674 #
coedge $-1 -1 $-1 $496 $500 $385 $492 forward $394 $-1 #
edge $575 -1 $-1 $516 0 $494 1 $491 $576 forward @7 unknown #
truecolor-adesk-attrib $-1 -1 $577 $-1 $386 -1030722213 #
vertex $-1 -1 $-1 $497 $578 #
straight-curve $-1 -1 $-1 -2682.933907157716 -775.2735632052354 -51.499999999999964 72 1.9532799908906903e-29 8.8174569538609433e-15 F 0 F 1.0000000000000004 #
coedge $-1 -1 $-1 $410 $491 $389 $497 forward $394 $-1 #
edge $579 -1 $-1 $494 0 $489 1 $389 $580 forward @7 unknown #
DXID-attrib $-1 -1 $-1 $392 $168 @18 ASM_FACE_FROM_STEP @16 stp-2M-184-29674 #
fmesh-eye-attrib $-1 -1 $581 $393 $276 #
coedge $-1 -1 $-1 $491 $410 $408 $504 reversed $394 $-1 #
DXID-attrib $-1 -1 $-1 $397 $282 @18 ASM_EDGE_FROM_STEP @5 15520 #
DXID-attrib $-1 -1 $-1 $399 $284 @18 ASM_EDGE_FROM_STEP @5 15518 #
DXID-attrib $-1 -1 $-1 $401 $286 @18 ASM_EDGE_FROM_STEP @5 15519 #
edge $582 -1 $-1 $516 0 $413 1 $500 $583 forward @7 unknown #
truecolor-adesk-attrib $-1 -1 $584 $-1 $411 -1030722213 #
straight-curve $-1 -1 $-1 -2682.933907157716 -519.27356320523495 103.87499999999947 -4.1834067803613882e-14 1.1408495675935566e-13 51.5 F -3.016990291262136 F -2.016990291262136 #
DXID-attrib $-1 -1 $-1 $412 $304 @18 ASM_EDGE_FROM_STEP @5 15538 #
point $-1 -1 $-1 -2682.933907157716 -519.27356320523518 -5.339139927216513e-13 #
coedge $-1 -1 $-1 $449 $528 $415 $510 forward $447 $-1 #
edge $585 -1 $-1 $531 -0.032608695652173988 $455 0.96739130434782616 $509 $586 forward @7 unknown #
fmesh-eye-attrib $-1 -1 $587 $416 $306 #
truecolor-adesk-attrib $-1 -1 $588 $-1 $417 -1030722213 #
face $589 -1 $-1 $590 $591 $3 $-1 $592 forward single #
plane-surface $-1 -1 $-1 -2593.933907157716 -775.27356320523415 477.00000000000006 1 2.71288887623707e-31 1.2246467991473532e-16 1.2246467991473532e-16 -2.2152418788224399e-15 -1 forward_v I I I I #
truecolor-adesk-attrib $-1 -1 $593 $-1 $420 -1030722213 #
vertex $-1 -1 $-1 $504 $594 #
straight-curve $-1 -1 $-1 -2790.933907157716 -775.27356320523518 1.9961742826101858e-14 108 2.9299199863360354e-29 1.3226185430791415e-14 F 0 F 1 #
fmesh-eye-attrib $-1 -1 $595 $421 $310 #
DXID-attrib $-1 -1 $-1 $423 $313 @18 ASM_EDGE_FROM_STEP @5 15540 #
DXID-attrib $-1 -1 $-1 $427 $207 @18 ASM_FACE_FROM_STEP @16 stp-2M-184-29677 #
DXID-attrib $-1 -1 $-1 $428 $319 @18 ASM_EDGE_FROM_STEP @5 15522 #
coedge $-1 -1 $-1 $528 $449 $433 $523 forward $447 $-1 #
edge $596 -1 $-1 $452 0 $525 1.0000000000000002 $522 $597 forward @7 unknown #
truecolor-adesk-attrib $-1 -1 $598 $-1 $434 -1030722213 #
vertex $-1 -1 $-1 $529 $599 #
straight-curve $-1 -1 $-1 -2692.933907157716 -775.2735632052354 -61.499999999999972 2.9220205772396149e-14 1.1408495675935566e-13 51.5 F 0 F 1 #
DXID-attrib $-1 -1 $-1 $438 $334 @18 ASM_EDGE_FROM_STEP @5 15543 #
coedge $-1 -1 $-1 $509 $522 $440 $529 forward $447 $-1 #
edge $600 -1 $-1 $525 0 $531 1 $440 $601 forward @7 unknown #
truecolor-adesk-attrib $-1 -1 $602 $-1 $441 -1030722213 #
vertex $-1 -1 $-1 $529 $603 #
straight-curve $-1 -1 $-1 -2692.933907157716 -519.27356320523506 73.12499999999946 -2.9220205772396149e-14 -1.1408495675935566e-13 -51.5 F 1.6140776699029125 F 2.6140776699029127 #
DXID-attrib $-1 -1 $-1 $445 $228 @18 ASM_FACE_FROM_STEP @16 stp-2M-184-29679 #
fmesh-eye-attrib $-1 -1 $604 $446 $343 #
truecolor-adesk-attrib $-1 -1 $605 $-1 $450 -1030722213 #
straight-curve $-1 -1 $-1 -2600.933907157716 -775.2735632052354 -61.499999999999957 0 256 -5.671019209785446e-13 F 0 F 1 #
DXID-attrib $-1 -1 $-1 $451 $347 @18 ASM_EDGE_FROM_STEP @5 15551 #
point $-1 -1 $-1 -2600.933907157716 -775.2735632052354 -61.499999999999957 #
DXID-attrib $-1 -1 $-1 $454 $348 @18 ASM_EDGE_FROM_STEP @5 15552 #
point $-1 -1 $-1 -2600.933907157716 -519.2735632052354 -61.500000000000526 #
DXID-attrib $-1 -1 $-1 $457 $232 @18 ASM_FACE_FROM_STEP @16 stp-2M-184-29681 #
DXID-attrib $-1 -1 $-1 $460 $240 @18 ASM_FACE_FROM_STEP @16 stp-2M-184-29683 #
coedge $-1 -1 $-1 $462 $461 $606 $607 reversed $463 $-1 #
DXID-attrib $-1 -1 $-1 $464 $359 @18 ASM_EDGE_FROM_STEP @5 15566 #
coedge $-1 -1 $-1 $466 $608 $609 $610 reversed $193 $-1 #
coedge $-1 -1 $-1 $611 $606 $466 $547 forward $591 $-1 #
edge $612 -1 $-1 $549 -5.125 $613 -4.125 $466 $614 forward @7 unknown #
truecolor-adesk-attrib $-1 -1 $615 $-1 $467 -1030722213 #
vertex $-1 -1 $-1 $547 $616 #
straight-curve $-1 -1 $-1 -2593.933907157716 -519.2735632052345 342.37499999999955 -4.4699608168878392e-14 8.0856328577019057e-13 365 F -0.63116438356164384 F 0.36883561643835611 #
coedge $-1 -1 $-1 $471 $470 $617 $618 forward $472 $-1 #
face $619 -1 $-1 $152 $472 $3 $-1 $620 forward single #
DXID-attrib $-1 -1 $-1 $473 $367 @18 ASM_EDGE_FROM_STEP @5 15577 #
coedge $-1 -1 $-1 $608 $475 $621 $622 reversed $193 $-1 #
coedge $-1 -1 $-1 $617 $623 $475 $556 forward $624 $-1 #
edge $625 -1 $-1 $626 -9.25 $558 -8.25 $475 $627 forward @7 unknown #
truecolor-adesk-attrib $-1 -1 $628 $-1 $476 -1030722213 #
vertex $-1 -1 $-1 $476 $629 #
straight-curve $-1 -1 $-1 -2613.933907157716 -519.27356320523495 159.87499999999946 4.2862637970157365e-15 -7.75334657587854e-14 -35 F 0.36785714285714277 F 1.3678571428571427 #
coedge $-1 -1 $-1 $630 $479 $631 $632 reversed $374 $-1 #
coedge $-1 -1 $-1 $606 $611 $479 $562 forward $591 $-1 #
edge $633 -1 $-1 $634 0 $564 1 $561 $635 forward @7 unknown #
truecolor-adesk-attrib $-1 -1 $636 $-1 $480 -1030722213 #
vertex $-1 -1 $-1 $607 $637 #
straight-curve $-1 -1 $-1 -2593.933907157716 -775.27356320523415 477.00000000000006 4.4699608168878392e-14 -8.0856328577019057e-13 -365 F 0 F 1 #
coedge $-1 -1 $-1 $481 $630 $638 $639 reversed $374 $-1 #
coedge $-1 -1 $-1 $623 $617 $481 $568 forward $624 $-1 #
edge $640 -1 $-1 $570 0 $641 1 $567 $642 forward @7 unknown #
truecolor-adesk-attrib $-1 -1 $643 $-1 $482 -1030722213 #
vertex $-1 -1 $-1 $618 $644 #
straight-curve $-1 -1 $-1 -2613.933907157716 -775.27356320523495 112.00000000000006 -4.2862637970157365e-15 7.75334657587854e-14 35 F 0 F 1 #
DXID-attrib $-1 -1 $-1 $487 $254 @18 ASM_FACE_FROM_STEP @16 stp-2M-184-29693 #
DXID-attrib $-1 -1 $-1 $488 $382 @18 ASM_EDGE_FROM_STEP @5 15532 #
point $-1 -1 $-1 -2682.933907157716 -519.2735632052354 -51.500000000000533 #
truecolor-adesk-attrib $-1 -1 $645 $-1 $492 -1030722213 #
straight-curve $-1 -1 $-1 -2682.933907157716 -775.27356320523518 3.3187928256893269e-14 4.1834067803613882e-14 -1.1408495675935566e-13 -51.5 F 0 F 1 #
DXID-attrib $-1 -1 $-1 $493 $386 @18 ASM_EDGE_FROM_STEP @5 15531 #
point $-1 -1 $-1 -2682.933907157716 -775.2735632052354 -51.499999999999964 #
truecolor-adesk-attrib $-1 -1 $646 $-1 $497 -1030722213 #
straight-curve $-1 -1 $-1 -2682.933907157716 -775.2735632052354 -51.499999999999964 0 256 -5.671019209785446e-13 F 0 F 1 #
DXID-attrib $-1 -1 $-1 $499 $276 @18 ASM_FACE_FROM_STEP @16 stp-2M-184-29675 #
truecolor-adesk-attrib $-1 -1 $647 $-1 $504 -1030722213 #
straight-curve $-1 -1 $-1 -2682.933907157716 -775.27356320523518 3.3187928256893269e-14 0 256 -5.671019209785446e-13 F 0 F 1 #
DXID-attrib $-1 -1 $-1 $505 $411 @18 ASM_EDGE_FROM_STEP @5 15535 #
truecolor-adesk-attrib $-1 -1 $648 $-1 $510 -1030722213 #
straight-curve $-1 -1 $-1 -2689.933907157716 -519.2735632052354 -61.500000000000533 92.000000000000014 2.4958577661381047e-29 1.1266750552155651e-14 F -0.032608695652173988 F 0.96739130434782616 #
DXID-attrib $-1 -1 $-1 $511 $306 @18 ASM_FACE_FROM_STEP @16 stp-2M-184-29684 #
fmesh-eye-attrib $-1 -1 $649 $512 $417 #
truecolor-adesk-attrib $-1 -1 $650 $-1 $513 -1030722213 #
face $651 -1 $-1 $652 $653 $3 $-1 $654 forward single #
loop $-1 -1 $-1 $-1 $611 $513 #
plane-surface $-1 -1 $-1 -2613.933907157716 -775.27356320523415 477.00000000000006 -1.2246467991473532e-16 2.2152418788224399e-15 1 1 2.71288887623707e-31 1.2246467991473532e-16 forward_v I I I I #
DXID-attrib $-1 -1 $-1 $515 $420 @18 ASM_EDGE_FROM_STEP @5 15537 #
point $-1 -1 $-1 -2682.933907157716 -775.27356320523518 3.3187928256893269e-14 #
DXID-attrib $-1 -1 $-1 $518 $310 @18 ASM_FACE_FROM_STEP @16 stp-2M-184-29676 #
truecolor-adesk-attrib $-1 -1 $655 $-1 $523 -1030722213 #
straight-curve $-1 -1 $-1 -2600.933907157716 -775.2735632052354 -61.499999999999957 -92.000000000000014 -2.4958577661381047e-29 -1.1266750552155651e-14 F 0 F 1.0000000000000002 #
DXID-attrib $-1 -1 $-1 $524 $434 @18 ASM_EDGE_FROM_STEP @5 15545 #
point $-1 -1 $-1 -2692.933907157716 -775.2735632052354 -61.499999999999972 #
truecolor-adesk-attrib $-1 -1 $656 $-1 $529 -1030722213 #
straight-curve $-1 -1 $-1 -2692.933907157716 -775.2735632052354 -61.499999999999972 0 256 -5.671019209785446e-13 F 0 F 1 #
DXID-attrib $-1 -1 $-1 $530 $441 @18 ASM_EDGE_FROM_STEP @5 15546 #
point $-1 -1 $-1 -2692.933907157716 -519.2735632052354 -61.50000000000054 #
DXID-attrib $-1 -1 $-1 $534 $343 @18 ASM_FACE_FROM_STEP @16 stp-2M-184-29680 #
DXID-attrib $-1 -1 $-1 $535 $450 @18 ASM_EDGE_FROM_STEP @5 15547 #
coedge $-1 -1 $-1 $546 $561 $543 $607 forward $591 $-1 #
edge $657 -1 $-1 $564 0 $549 1 $543 $658 forward @7 unknown #
coedge $-1 -1 $-1 $545 $554 $659 $660 reversed $193 $-1 #
coedge $-1 -1 $-1 $661 $662 $545 $610 forward $653 $-1 #
edge $663 -1 $-1 $613 -2.141768292682924 $664 -1.1417682926829251 $545 $665 forward @7 unknown #
coedge $-1 -1 $-1 $561 $546 $662 $666 reversed $591 $-1 #
truecolor-adesk-attrib $-1 -1 $667 $-1 $547 -1030722213 #
vertex $-1 -1 $-1 $610 $668 #
straight-curve $-1 -1 $-1 -2696.433907157716 -519.27356320523415 476.99999999999949 -20 -5.42577775247414e-30 -2.4492935982947065e-15 F -5.125 F -4.125 #
DXID-attrib $-1 -1 $-1 $548 $467 @18 ASM_EDGE_FROM_STEP @5 15562 #
point $-1 -1 $-1 -2593.933907157716 -519.27356320523415 476.99999999999949 #
coedge $-1 -1 $-1 $567 $555 $551 $618 reversed $624 $-1 #
edge $669 -1 $-1 $570 0 $558 1 $617 $670 forward @7 unknown #
truecolor-adesk-attrib $-1 -1 $671 $-1 $552 -1030722213 #
plane-surface $-1 -1 $-1 -2613.933907157716 -775.27356320523495 112.00000000000006 -1 -2.71288887623707e-31 -1.2246467991473532e-16 -1.2246467991473532e-16 2.2152418788224399e-15 1 forward_v I I I I #
coedge $-1 -1 $-1 $672 $673 $554 $622 forward $674 $-1 #
edge $675 -1 $-1 $676 -0.87752016129032251 $626 0.12247983870967741 $554 $677 forward @7 unknown #
coedge $-1 -1 $-1 $555 $567 $672 $678 forward $624 $-1 #
loop $-1 -1 $-1 $-1 $617 $679 #
truecolor-adesk-attrib $-1 -1 $680 $-1 $556 -1030722213 #
vertex $-1 -1 $-1 $556 $681 #
straight-curve $-1 -1 $-1 -2696.433907157716 -519.27356320523495 146.99999999999946 -10 -2.71288887623707e-30 -1.2246467991473533e-15 F -9.25 F -8.25 #
DXID-attrib $-1 -1 $-1 $557 $476 @18 ASM_EDGE_FROM_STEP @5 15556 #
point $-1 -1 $-1 -2613.933907157716 -519.27356320523495 146.99999999999946 #
coedge $-1 -1 $-1 $566 $560 $682 $683 reversed $374 $-1 #
coedge $-1 -1 $-1 $662 $661 $560 $632 forward $653 $-1 #
edge $684 -1 $-1 $685 0 $634 1.0000000000000002 $631 $686 forward @7 unknown #
truecolor-adesk-attrib $-1 -1 $687 $-1 $562 -1030722213 #
vertex $-1 -1 $-1 $666 $688 #
straight-curve $-1 -1 $-1 -2613.933907157716 -775.27356320523415 477.00000000000006 20 5.42577775247414e-30 2.4492935982947065e-15 F 0 F 1 #
DXID-attrib $-1 -1 $-1 $563 $480 @18 ASM_EDGE_FROM_STEP @5 15565 #
point $-1 -1 $-1 -2593.933907157716 -775.27356320523415 477.00000000000006 #
coedge $-1 -1 $-1 $673 $672 $566 $639 forward $674 $-1 #
edge $689 -1 $-1 $641 0 $690 0.99999999999999989 $638 $691 forward @7 unknown #
truecolor-adesk-attrib $-1 -1 $692 $-1 $568 -1030722213 #
vertex $-1 -1 $-1 $678 $693 #
straight-curve $-1 -1 $-1 -2613.933907157716 -775.27356320523495 147.00000000000003 10 2.71288887623707e-30 1.2246467991473533e-15 F 0 F 1 #
DXID-attrib $-1 -1 $-1 $569 $482 @18 ASM_EDGE_FROM_STEP @5 15578 #
point $-1 -1 $-1 -2613.933907157716 -775.27356320523495 147.00000000000003 #
DXID-attrib $-1 -1 $-1 $575 $492 @18 ASM_EDGE_FROM_STEP @5 15534 #
DXID-attrib $-1 -1 $-1 $579 $497 @18 ASM_EDGE_FROM_STEP @5 15530 #
DXID-attrib $-1 -1 $-1 $582 $504 @18 ASM_EDGE_FROM_STEP @5 15533 #
DXID-attrib $-1 -1 $-1 $585 $510 @18 ASM_EDGE_FROM_STEP @5 15549 #
DXID-attrib $-1 -1 $-1 $588 $417 @18 ASM_FACE_FROM_STEP @16 stp-2M-184-29685 #
fmesh-eye-attrib $-1 -1 $694 $589 $513 #
truecolor-adesk-attrib $-1 -1 $695 $-1 $590 -1030722213 #
face $696 -1 $-1 $697 $698 $3 $-1 $699 forward single #
loop $-1 -1 $-1 $-1 $661 $590 #
plane-surface $-1 -1 $-1 -2613.933907157716 -775.27356320523427 395.00000000000006 -1 -2.71288887623707e-31 -1.2246467991473532e-16 -1.2246467991473532e-16 2.2152418788224399e-15 1 forward_v I I I I #
DXID-attrib $-1 -1 $-1 $596 $523 @18 ASM_EDGE_FROM_STEP @5 15548 #
DXID-attrib $-1 -1 $-1 $600 $529 @18 ASM_EDGE_FROM_STEP @5 15544 #
truecolor-adesk-attrib $-1 -1 $700 $-1 $607 -1030722213 #
straight-curve $-1 -1 $-1 -2593.933907157716 -775.27356320523415 477.00000000000006 0 256 -5.671019209785446e-13 F 0 F 1 #
coedge $-1 -1 $-1 $701 $702 $608 $660 forward $698 $-1 #
edge $703 -1 $-1 $664 7.75 $676 8.75 $608 $704 forward @7 unknown #
coedge $-1 -1 $-1 $631 $609 $702 $705 reversed $653 $-1 #
coedge $-1 -1 $-1 $609 $631 $611 $666 forward $653 $-1 #
truecolor-adesk-attrib $-1 -1 $706 $-1 $610 -1030722213 #
vertex $-1 -1 $-1 $660 $707 #
straight-curve $-1 -1 $-1 -2613.933907157716 -519.2735632052345 301.37499999999949 1.0042103753008309e-14 -1.816498340634403e-13 -82.000000000000099 F -2.141768292682924 F -1.1417682926829251 #
edge $708 -1 $-1 $634 0 $613 1 $611 $709 forward @7 unknown #
DXID-attrib $-1 -1 $-1 $612 $547 @18 ASM_EDGE_FROM_STEP @5 15561 #
point $-1 -1 $-1 -2613.933907157716 -519.27356320523415 476.99999999999949 #
truecolor-adesk-attrib $-1 -1 $710 $-1 $618 -1030722213 #
straight-curve $-1 -1 $-1 -2613.933907157716 -775.27356320523495 147.00000000000003 0 256 -5.671019209785446e-13 F 0 F 1 #
fmesh-eye-attrib $-1 -1 $711 $619 $552 #
coedge $-1 -1 $-1 $638 $621 $623 $678 reversed $674 $-1 #
coedge $-1 -1 $-1 $621 $638 $701 $712 forward $674 $-1 #
loop $-1 -1 $-1 $-1 $672 $697 #
truecolor-adesk-attrib $-1 -1 $713 $-1 $622 -1030722213 #
vertex $-1 -1 $-1 $622 $714 #
straight-curve $-1 -1 $-1 -2603.933907157716 -519.27356320523484 177.37499999999949 3.0371240618854361e-14 -5.4937998594796504e-13 -248 F -0.87752016129032251 F 0.12247983870967741 #
edge $715 -1 $-1 $641 0 $626 1 $672 $716 forward @7 unknown #
face $717 -1 $-1 $552 $624 $3 $-1 $718 forward single #
DXID-attrib $-1 -1 $-1 $625 $556 @18 ASM_EDGE_FROM_STEP @5 15557 #
point $-1 -1 $-1 -2603.933907157716 -519.27356320523495 146.99999999999949 #
coedge $-1 -1 $-1 $702 $701 $630 $683 forward $698 $-1 #
edge $719 -1 $-1 $690 0 $685 1 $682 $720 forward @7 unknown #
truecolor-adesk-attrib $-1 -1 $721 $-1 $632 -1030722213 #
vertex $-1 -1 $-1 $705 $722 #
straight-curve $-1 -1 $-1 -2613.933907157716 -775.27356320523427 395.00000000000006 -1.0042103753008298e-14 1.816498340634401e-13 82.000000000000014 F 0 F 1.0000000000000002 #
DXID-attrib $-1 -1 $-1 $633 $562 @18 ASM_EDGE_FROM_STEP @5 15568 #
point $-1 -1 $-1 -2613.933907157716 -775.27356320523415 477.00000000000006 #
truecolor-adesk-attrib $-1 -1 $723 $-1 $639 -1030722213 #
vertex $-1 -1 $-1 $712 $724 #
straight-curve $-1 -1 $-1 -2603.933907157716 -775.27356320523495 147.00000000000006 -3.0371240618854361e-14 5.4937998594796504e-13 248 F 0 F 0.99999999999999989 #
DXID-attrib $-1 -1 $-1 $640 $568 @18 ASM_EDGE_FROM_STEP @5 15576 #
point $-1 -1 $-1 -2603.933907157716 -775.27356320523495 147.00000000000006 #
DXID-attrib $-1 -1 $-1 $650 $513 @18 ASM_FACE_FROM_STEP @16 stp-2M-184-29686 #
fmesh-eye-attrib $-1 -1 $725 $651 $590 #
truecolor-adesk-attrib $-1 -1 $726 $-1 $652 -1030722213 #
face $727 -1 $-1 $679 $674 $3 $-1 $728 forward single #
loop $-1 -1 $-1 $-1 $701 $652 #
plane-surface $-1 -1 $-1 -2603.933907157716 -775.27356320523427 395.00000000000006 1.2246467991473532e-16 -2.2152418788224399e-15 -1 -1 -2.71288887623707e-31 -1.2246467991473532e-16 forward_v I I I I #
DXID-attrib $-1 -1 $-1 $657 $607 @18 ASM_EDGE_FROM_STEP @5 15564 #
coedge $-1 -1 $-1 $682 $659 $673 $712 reversed $698 $-1 #
coedge $-1 -1 $-1 $659 $682 $661 $705 forward $698 $-1 #
truecolor-adesk-attrib $-1 -1 $729 $-1 $660 -1030722213 #
straight-curve $-1 -1 $-1 -2691.433907157716 -519.27356320523438 394.99999999999949 10 2.71288887623707e-30 1.2246467991473533e-15 F 7.75 F 8.75 #
edge $730 -1 $-1 $685 0 $664 1 $661 $731 forward @7 unknown #
DXID-attrib $-1 -1 $-1 $663 $610 @18 ASM_EDGE_FROM_STEP @5 15560 #
point $-1 -1 $-1 -2613.933907157716 -519.27356320523438 394.99999999999949 #
truecolor-adesk-attrib $-1 -1 $732 $-1 $666 -1030722213 #
straight-curve $-1 -1 $-1 -2613.933907157716 -775.27356320523415 477.00000000000006 0 256 -5.671019209785446e-13 F 0 F 1 #
DXID-attrib $-1 -1 $-1 $669 $618 @18 ASM_EDGE_FROM_STEP @5 15575 #
DXID-attrib $-1 -1 $-1 $671 $552 @18 ASM_FACE_FROM_STEP @16 stp-2M-184-29691 #
edge $733 -1 $-1 $690 0 $676 1 $701 $734 forward @7 unknown #
DXID-attrib $-1 -1 $-1 $675 $622 @18 ASM_EDGE_FROM_STEP @5 15558 #
point $-1 -1 $-1 -2603.933907157716 -519.27356320523438 394.99999999999949 #
truecolor-adesk-attrib $-1 -1 $735 $-1 $678 -1030722213 #
straight-curve $-1 -1 $-1 -2603.933907157716 -775.27356320523495 147.00000000000006 0 256 -5.671019209785446e-13 F 0 F 1 #
truecolor-adesk-attrib $-1 -1 $736 $-1 $679 -1030722213 #
plane-surface $-1 -1 $-1 -2613.933907157716 -775.27356320523495 147.00000000000003 -1.2246467991473532e-16 2.2152418788224399e-15 1 1 2.71288887623707e-31 1.2246467991473532e-16 forward_v I I I I #
truecolor-adesk-attrib $-1 -1 $737 $-1 $683 -1030722213 #
straight-curve $-1 -1 $-1 -2603.933907157716 -775.27356320523427 395.00000000000006 -10 -2.71288887623707e-30 -1.2246467991473533e-15 F 0 F 1 #
DXID-attrib $-1 -1 $-1 $684 $632 @18 ASM_EDGE_FROM_STEP @5 15570 #
point $-1 -1 $-1 -2613.933907157716 -775.27356320523427 395.00000000000006 #
DXID-attrib $-1 -1 $-1 $689 $639 @18 ASM_EDGE_FROM_STEP @5 15574 #
point $-1 -1 $-1 -2603.933907157716 -775.27356320523427 395.00000000000006 #
DXID-attrib $-1 -1 $-1 $695 $590 @18 ASM_FACE_FROM_STEP @16 stp-2M-184-29687 #
fmesh-eye-attrib $-1 -1 $738 $696 $652 #
truecolor-adesk-attrib $-1 -1 $739 $-1 $697 -1030722213 #
plane-surface $-1 -1 $-1 -2603.933907157716 -775.27356320523495 147.00000000000006 -1 -2.71288887623707e-31 -1.2246467991473532e-16 -1.2246467991473532e-16 2.2152418788224399e-15 1 forward_v I I I I #
DXID-attrib $-1 -1 $-1 $703 $660 @18 ASM_EDGE_FROM_STEP @5 15559 #
truecolor-adesk-attrib $-1 -1 $740 $-1 $705 -1030722213 #
straight-curve $-1 -1 $-1 -2613.933907157716 -775.27356320523427 395.00000000000006 0 256 -5.671019209785446e-13 F 0 F 1 #
DXID-attrib $-1 -1 $-1 $708 $666 @18 ASM_EDGE_FROM_STEP @5 15567 #
truecolor-adesk-attrib $-1 -1 $741 $-1 $712 -1030722213 #
straight-curve $-1 -1 $-1 -2603.933907157716 -775.27356320523427 395.00000000000006 0 256 -5.671019209785446e-13 F 0 F 1 #
DXID-attrib $-1 -1 $-1 $715 $678 @18 ASM_EDGE_FROM_STEP @5 15573 #
fmesh-eye-attrib $-1 -1 $742 $717 $679 #
DXID-attrib $-1 -1 $-1 $719 $683 @18 ASM_EDGE_FROM_STEP @5 15572 #
DXID-attrib $-1 -1 $-1 $726 $652 @18 ASM_FACE_FROM_STEP @16 stp-2M-184-29688 #
fmesh-eye-attrib $-1 -1 $743 $727 $697 #
DXID-attrib $-1 -1 $-1 $730 $705 @18 ASM_EDGE_FROM_STEP @5 15569 #
DXID-attrib $-1 -1 $-1 $733 $712 @18 ASM_EDGE_FROM_STEP @5 15571 #
DXID-attrib $-1 -1 $-1 $736 $679 @18 ASM_FACE_FROM_STEP @16 stp-2M-184-29690 #
DXID-attrib $-1 -1 $-1 $739 $697 @18 ASM_FACE_FROM_STEP @16 stp-2M-184-29689 #
