700 130 1 0         
5 ZWCAD 12 ACIS 28.0 NT 24 Mon May 13 14:01:39 2024 
1 9.9999999999999995e-07 1e-10 
body $1 -1 $-1 $2 $-1 $-1 #
DXID-attrib $-1 -1 $-1 $-1 $0 @18 ASM_BODY_FROM_STEP @83 1284814EA9E279439760A214167AB5C25239CD30|:|E428137EF7B1B6AC5728AA855F788892852F6C84 #
lump $-1 -1 $-1 $-1 $3 $0 #
shell $-1 -1 $-1 $-1 $-1 $4 $-1 $2 #
face $5 -1 $-1 $6 $7 $3 $-1 $8 forward single #
color-adesk-attrib $-1 -1 $9 $-1 $4 1 #
face $10 -1 $-1 $11 $12 $3 $-1 $13 forward single #
loop $14 -1 $-1 $15 $16 $4 #
sphere-surface $-1 -1 $-1 227.5 85.503066807519787 326.24999999999989 1.25 6.123233995736766e-17 1 0 0 0 1 forward_v I I I I #
DXID-attrib $-1 -1 $-1 $5 $4 @18 ASM_FACE_FROM_STEP @15 stp-3M-236-1670 #
color-adesk-attrib $-1 -1 $17 $-1 $6 1 #
face $18 -1 $-1 $19 $20 $3 $-1 $21 forward single #
loop $-1 -1 $-1 $22 $23 $6 #
torus-surface $-1 -1 $-1 221.60301213745745 85.503066807519787 343.97840600688676 6.123233995736766e-17 1 6.1232339957367697e-17 3.0000000000000004 1.25 3.7493994566546468e-33 6.1232339957367697e-17 -1 forward_v I I I I #
DXID-attrib $-1 -1 $-1 $-1 $7 @18 ASM_LOOP_FROM_STEP @4 7904 #
loop $-1 -1 $-1 $-1 $24 $4 #
coedge $-1 -1 $-1 $16 $16 $-1 $25 forward $7 $-1 #
DXID-attrib $-1 -1 $-1 $10 $6 @18 ASM_FACE_FROM_STEP @15 stp-3M-236-3164 #
color-adesk-attrib $-1 -1 $26 $-1 $11 1 #
face $27 -1 $-1 $28 $29 $3 $-1 $30 forward single #
loop $31 -1 $-1 $32 $33 $11 #
sphere-surface $-1 -1 $-1 222.75863086437411 85.503066807519787 341.20991447574579 1.25 6.123233995736766e-17 1 0 0 0 1 forward_v I I I I #
loop $-1 -1 $-1 $-1 $34 $6 #
coedge $-1 -1 $-1 $23 $23 $35 $36 forward $12 $-1 #
coedge $-1 -1 $-1 $24 $24 $37 $38 reversed $15 $-1 #
edge $39 -1 $-1 $40 1 $40 0 $16 $-1 forward @7 unknown #
DXID-attrib $-1 -1 $-1 $18 $11 @18 ASM_FACE_FROM_STEP @15 stp-3M-236-2658 #
color-adesk-attrib $-1 -1 $41 $-1 $19 1 #
face $42 -1 $-1 $43 $44 $3 $-1 $45 forward single #
loop $-1 -1 $-1 $46 $47 $19 #
torus-surface $-1 -1 $-1 227.5 85.503066807519787 354.99999999999989 -6.123233995736766e-17 -1 -6.1232339957367697e-17 9.5 1.25 -3.7493994566546468e-33 -6.1232339957367697e-17 1 forward_v I I I I #
DXID-attrib $-1 -1 $-1 $-1 $20 @18 ASM_LOOP_FROM_STEP @5 10328 #
loop $-1 -1 $-1 $-1 $35 $11 #
coedge $-1 -1 $-1 $33 $33 $-1 $48 forward $20 $-1 #
coedge $-1 -1 $-1 $34 $34 $47 $49 reversed $22 $-1 #
coedge $-1 -1 $-1 $35 $35 $23 $36 reversed $32 $-1 #
edge $50 -1 $-1 $51 -6.2831853071795862 $51 2.1570415377137401e-31 $23 $52 reversed @7 unknown #
coedge $-1 -1 $-1 $37 $37 $24 $38 forward $53 $-1 #
edge $54 -1 $-1 $55 6.7035184386799671e-40 $55 6.2831853071795862 $24 $56 forward @7 unknown #
truecolor-adesk-attrib $-1 -1 $57 $-1 $25 -1056964608 #
vertex $-1 -1 $-1 $25 $58 #
DXID-attrib $-1 -1 $-1 $27 $19 @18 ASM_FACE_FROM_STEP @15 stp-3M-236-1976 #
color-adesk-attrib $-1 -1 $59 $-1 $28 1 #
face $60 -1 $-1 $61 $62 $3 $-1 $63 forward single #
loop $-1 -1 $-1 $64 $65 $28 #
torus-surface $-1 -1 $-1 221.5 85.503066807519787 365.96585609973062 6.123233995736766e-17 1 6.1232339957367697e-17 3.0000000000000004 1.25 3.7493994566546468e-33 6.1232339957367697e-17 -1 forward_v I I I I #
loop $-1 -1 $-1 $-1 $66 $19 #
coedge $-1 -1 $-1 $47 $47 $34 $49 forward $29 $-1 #
edge $67 -1 $-1 $68 1 $68 0 $33 $-1 forward @7 unknown #
edge $69 -1 $-1 $70 -6.2831853071795862 $70 5.3990239220670356e-17 $34 $71 reversed @7 unknown #
color-adesk-attrib $-1 -1 $72 $-1 $36 1 #
vertex $-1 -1 $-1 $36 $73 #
ellipse-curve $-1 -1 $-1 222.75863086437411 85.503066807519787 341.20991447574579 -0.9228305103803397 8.0094151117193556e-17 -0.38520624230554984 -0.48150780288193729 2.9483849478191959e-17 1.1535381379754246 1 I I #
loop $-1 -1 $-1 $74 $37 $75 #
color-adesk-attrib $-1 -1 $76 $-1 $38 1 #
vertex $-1 -1 $-1 $38 $77 #
ellipse-curve $-1 -1 $-1 227.5 85.503066807519787 326.24999999999989 -1.0947676416813501e-23 -6.1232339957367697e-17 1 7.6540424946709579e-17 1.25 7.6540424946709616e-17 1 I I #
DXID-attrib $-1 -1 $-1 $39 $25 @18 ASM_EDGE_FROM_STEP @4 7904 #
point $-1 -1 $-1 227.5 85.503066807519787 324.99999999999989 #
DXID-attrib $-1 -1 $-1 $42 $28 @18 ASM_FACE_FROM_STEP @15 stp-3M-236-3150 #
color-adesk-attrib $-1 -1 $78 $-1 $43 1 #
face $79 -1 $-1 $75 $80 $3 $-1 $81 forward single #
loop $-1 -1 $-1 $82 $83 $43 #
cone-surface $-1 -1 $-1 216.69387892182539 85.503066807519787 377.40817592553219 -0.59863734574462601 -1.2392374490031408e-17 0.801020179695761 -1.0012752246197012 6.1310424944803207e-17 -0.74829668218078249 1 I I 0 1 1.25 forward I I I I #
loop $-1 -1 $-1 $-1 $84 $28 #
coedge $-1 -1 $-1 $65 $65 $66 $85 forward $44 $-1 #
coedge $-1 -1 $-1 $66 $66 $65 $85 reversed $46 $-1 #
truecolor-adesk-attrib $-1 -1 $86 $-1 $48 -1056964608 #
vertex $-1 -1 $-1 $48 $87 #
color-adesk-attrib $-1 -1 $88 $-1 $49 1 #
vertex $-1 -1 $-1 $49 $89 #
ellipse-curve $-1 -1 $-1 223.01828922446768 85.503066807519787 346.62358856523394 0.88172751944904515 3.6129009978591172e-17 -0.47175902900340305 -9.0526259208715908e-18 -1.25 -1.1264906149907698e-16 1 I I #
DXID-attrib $-1 -1 $-1 $50 $36 @18 ASM_EDGE_FROM_STEP @5 27773 #
point $-1 -1 $-1 222.27712306149218 85.503066807519787 342.36345261372117 #
loop $-1 -1 $-1 $-1 $90 $75 #
face $91 -1 $-1 $-1 $53 $3 $-1 $92 forward single #
DXID-attrib $-1 -1 $-1 $54 $38 @18 ASM_EDGE_FROM_STEP @5 25610 #
point $-1 -1 $-1 227.5 86.753066807519787 326.24999999999989 #
DXID-attrib $-1 -1 $-1 $60 $43 @18 ASM_FACE_FROM_STEP @15 stp-3M-236-3372 #
color-adesk-attrib $-1 -1 $93 $-1 $61 1 #
loop $94 -1 $-1 $95 $96 $61 #
torus-surface $-1 -1 $-1 221.5 85.503066807519787 380.99999999999989 -6.123233995736766e-17 -1 -6.1232339957367697e-17 6.0000000000000009 1.25 -3.7493994566546468e-33 -6.1232339957367697e-17 1 forward_v I I I I #
loop $-1 -1 $-1 $-1 $97 $43 #
coedge $-1 -1 $-1 $83 $83 $84 $98 forward $62 $-1 #
coedge $-1 -1 $-1 $84 $84 $83 $98 reversed $64 $-1 #
edge $99 -1 $-1 $100 -6.2831853071795862 $100 -5.3717202289782545e-17 $66 $101 reversed @7 unknown #
DXID-attrib $-1 -1 $-1 $67 $48 @18 ASM_EDGE_FROM_STEP @5 10328 #
point $-1 -1 $-1 222.75863086437411 85.503066807519787 339.95991447574579 #
DXID-attrib $-1 -1 $-1 $69 $49 @18 ASM_EDGE_FROM_STEP @5 26374 #
point $-1 -1 $-1 223.01828922446768 84.253066807519787 346.62358856523394 #
coedge $-1 -1 $-1 $90 $90 $102 $103 forward $74 $-1 #
color-adesk-attrib $-1 -1 $104 $-1 $75 1 #
cone-surface $-1 -1 $-1 227.5 85.503066807519787 324.99999999999989 1.0947676416813501e-23 6.1232339957367697e-17 -1 7.6540424946709579e-17 1.25 7.6540424946709616e-17 1 I I 0 1 1.25 forward I I I I #
DXID-attrib $-1 -1 $-1 $79 $61 @18 ASM_FACE_FROM_STEP @15 stp-3M-236-2144 #
DXID-attrib $-1 -1 $-1 $-1 $80 @18 ASM_LOOP_FROM_STEP @4 9441 #
loop $-1 -1 $-1 $105 $106 $61 #
coedge $-1 -1 $-1 $96 $96 $-1 $107 forward $80 $-1 #
coedge $-1 -1 $-1 $97 $97 $106 $108 reversed $82 $-1 #
edge $109 -1 $-1 $110 -6.2831853071795862 $110 3.6655965465811037e-17 $84 $111 reversed @7 unknown #
color-adesk-attrib $-1 -1 $112 $-1 $85 1 #
vertex $-1 -1 $-1 $85 $113 #
ellipse-curve $-1 -1 $-1 222.94 85.503066807519787 363.33405063579517 -0.87726848797845258 1.4434106542668648e-16 -0.4799999999999997 -1.4368692780893751e-16 -1.25 -1.1327982892113008e-16 1 I I #
coedge $-1 -1 $-1 $102 $102 $90 $103 reversed $105 $-1 #
edge $114 -1 $-1 $115 -6.2831853071795862 $115 0 $102 $116 reversed @7 unknown #
DXID-attrib $-1 -1 $-1 $91 $75 @18 ASM_FACE_FROM_STEP @15 stp-3M-236-3414 #
loop $-1 -1 $-1 $-1 $102 $61 #
coedge $-1 -1 $-1 $106 $106 $97 $108 forward $95 $-1 #
edge $117 -1 $-1 $118 1 $118 0 $96 $-1 forward @7 unknown #
edge $119 -1 $-1 $120 -6.2831853071795862 $120 3.6655965465811037e-17 $97 $121 reversed @7 unknown #
color-adesk-attrib $-1 -1 $122 $-1 $98 1 #
vertex $-1 -1 $-1 $98 $123 #
ellipse-curve $-1 -1 $-1 223.90306053908728 85.503066807519787 367.76176813696441 0.59863734574462601 7.3624714447398834e-17 -0.801020179695761 -3.0720468114445632e-17 -1.25 -1.3785084989151245e-16 1 I I #
DXID-attrib $-1 -1 $-1 $99 $85 @18 ASM_EDGE_FROM_STEP @5 26375 #
point $-1 -1 $-1 222.94 84.253066807519787 363.33405063579517 #
color-adesk-attrib $-1 -1 $124 $-1 $103 1 #
vertex $-1 -1 $-1 $103 $125 #
ellipse-curve $-1 -1 $-1 227.5 85.503066807519787 380.99999999999989 -2.1511223829178502e-23 1.3171825704072862e-39 1 -7.6540424946709579e-17 -1.25 0 1 I I #
truecolor-adesk-attrib $-1 -1 $126 $-1 $107 -1056964608 #
vertex $-1 -1 $-1 $107 $127 #
color-adesk-attrib $-1 -1 $128 $-1 $108 1 #
vertex $-1 -1 $-1 $108 $129 #
ellipse-curve $-1 -1 $-1 216.69387892182539 85.503066807519787 377.40817592553219 0.59863734574462601 7.3624714447398834e-17 -0.801020179695761 -3.0720468114445632e-17 -1.25 -1.3785084989151245e-16 1 I I #
DXID-attrib $-1 -1 $-1 $109 $98 @18 ASM_EDGE_FROM_STEP @5 28475 #
point $-1 -1 $-1 223.90306053908728 84.253066807519787 367.76176813696441 #
DXID-attrib $-1 -1 $-1 $114 $103 @18 ASM_EDGE_FROM_STEP @5 26738 #
point $-1 -1 $-1 227.5 84.253066807519787 380.99999999999989 #
DXID-attrib $-1 -1 $-1 $117 $107 @18 ASM_EDGE_FROM_STEP @4 9441 #
point $-1 -1 $-1 221.5 85.503066807519787 388.24999999999989 #
DXID-attrib $-1 -1 $-1 $119 $108 @18 ASM_EDGE_FROM_STEP @5 26737 #
point $-1 -1 $-1 216.69387892182539 84.253066807519787 377.40817592553219 #
