700 228 1 0         
5 ZWCAD 12 ACIS 28.0 NT 24 Mon May 13 10:19:20 2024 
1 9.9999999999999995e-07 1e-10 
body $1 -1 $-1 $2 $-1 $-1 #
DXID-attrib $-1 -1 $-1 $-1 $0 @18 ASM_BODY_FROM_STEP @83 64E4088905A00E96E989DE5BDEC5F178C0548C2B|:|8CB3CBCEBE3339AC3139F7812237AD39DB573F35 #
lump $-1 -1 $-1 $-1 $3 $0 #
shell $-1 -1 $-1 $-1 $-1 $4 $-1 $2 #
face $5 -1 $-1 $6 $7 $3 $-1 $8 reversed single #
truecolor-adesk-attrib $-1 -1 $9 $-1 $4 -1029457713 #
face $10 -1 $-1 $11 $12 $3 $-1 $13 forward single #
loop $-1 -1 $-1 $-1 $14 $4 #
cone-surface $-1 -1 $-1 102.96851804678133 64.56786527290123 -1.1102230246251561e-15 1.2246467991473532e-16 -1 -7.2174396050462051e-33 7.5 9.1848509936051499e-16 -4.4201150140215533e-16 1 I I 0 1 7.5 forward I I I I #
fmesh-eye-attrib $-1 -1 $15 $5 $4 #
truecolor-adesk-attrib $-1 -1 $16 $-1 $6 -1029457713 #
face $17 -1 $-1 $18 $19 $3 $-1 $20 forward single #
loop $-1 -1 $-1 $21 $22 $6 #
plane-surface $-1 -1 $-1 88.468518046781327 9.4726990555118302 15.499999999999998 5.8934866853620713e-17 0 1 -1 -1.2246467991473532e-16 5.8934866853620713e-17 forward_v I I I I #
coedge $-1 -1 $-1 $23 $24 $25 $26 reversed $7 $-1 #
DXID-attrib $-1 -1 $-1 $9 $4 @18 ASM_FACE_FROM_STEP @15 stp-1M-67-13370 #
fmesh-eye-attrib $-1 -1 $27 $10 $6 #
truecolor-adesk-attrib $-1 -1 $28 $-1 $11 -1029457713 #
face $29 -1 $-1 $30 $31 $3 $-1 $32 reversed single #
loop $-1 -1 $-1 $33 $34 $11 #
plane-surface $-1 -1 $-1 117.46851804678133 9.4726990555118338 -15.500000000000002 -5.8934866853620713e-17 0 -1 1 1.2246467991473532e-16 -5.8934866853620713e-17 forward_v I I I I #
loop $-1 -1 $-1 $-1 $35 $6 #
coedge $-1 -1 $-1 $36 $37 $38 $39 forward $12 $-1 #
coedge $-1 -1 $-1 $40 $14 $24 $41 forward $7 $-1 #
coedge $-1 -1 $-1 $14 $40 $23 $41 reversed $7 $-1 #
coedge $-1 -1 $-1 $25 $25 $14 $26 forward $42 $-1 #
edge $43 -1 $-1 $44 -3.1415926535897931 $44 3.1415926535897931 $14 $45 forward @7 unknown #
DXID-attrib $-1 -1 $-1 $16 $6 @18 ASM_FACE_FROM_STEP @15 stp-1M-67-13371 #
fmesh-eye-attrib $-1 -1 $46 $17 $11 #
truecolor-adesk-attrib $-1 -1 $47 $-1 $18 -1029457713 #
face $48 -1 $-1 $49 $50 $3 $-1 $51 forward single #
loop $-1 -1 $-1 $52 $53 $18 #
plane-surface $-1 -1 $-1 102.96851804678133 17.472699055511832 1.0299852423308833e-15 1.2246467991473532e-16 -1 -7.2174396050462051e-33 -5.8934866853620713e-17 0 -1 forward_v I I I I #
loop $-1 -1 $-1 $-1 $54 $11 #
coedge $-1 -1 $-1 $55 $56 $57 $58 forward $19 $-1 #
coedge $-1 -1 $-1 $35 $35 $59 $60 reversed $21 $-1 #
coedge $-1 -1 $-1 $61 $22 $62 $63 forward $12 $-1 #
coedge $-1 -1 $-1 $22 $61 $64 $65 reversed $12 $-1 #
coedge $-1 -1 $-1 $66 $67 $22 $39 reversed $68 $-1 #
edge $69 -1 $-1 $70 0 $71 2.9000000000000004 $22 $72 forward @7 unknown #
coedge $-1 -1 $-1 $24 $23 $73 $74 reversed $7 $-1 #
edge $75 -1 $-1 $44 -8.4126888289852531 $76 -6.2793554956519202 $23 $77 forward @7 unknown #
loop $-1 -1 $-1 $-1 $25 $78 #
truecolor-adesk-attrib $-1 -1 $79 $-1 $26 -1029457713 #
vertex $-1 -1 $-1 $26 $80 #
ellipse-curve $-1 -1 $-1 102.96851804678133 1.472699055511832 -1.1102230246251565e-15 -1.2246467991473532e-16 1 7.2174396050462051e-33 7.5 9.1848509936051499e-16 -4.4201150140215533e-16 1 I I #
DXID-attrib $-1 -1 $-1 $28 $11 @18 ASM_FACE_FROM_STEP @15 stp-1M-67-13372 #
fmesh-eye-attrib $-1 -1 $81 $29 $18 #
truecolor-adesk-attrib $-1 -1 $82 $-1 $30 -1029457713 #
face $83 -1 $-1 $78 $84 $3 $-1 $85 forward single #
loop $-1 -1 $-1 $-1 $86 $30 #
cone-surface $-1 -1 $-1 127.01018471344803 9.4726990555118356 -2.5271154485642901e-15 1.2246467991473532e-16 -1 -7.2174396050462051e-33 38.541666666666721 4.7199928717137639e-15 -15.499999999999984 1 I I 0 1 41.5416666666667 forward I I I I #
loop $-1 -1 $-1 $-1 $73 $18 #
coedge $-1 -1 $-1 $87 $88 $89 $90 reversed $31 $-1 #
coedge $-1 -1 $-1 $54 $54 $91 $92 reversed $33 $-1 #
coedge $-1 -1 $-1 $93 $34 $94 $95 forward $19 $-1 #
coedge $-1 -1 $-1 $34 $93 $96 $97 forward $19 $-1 #
coedge $-1 -1 $-1 $67 $66 $34 $58 reversed $68 $-1 #
edge $98 -1 $-1 $99 0 $100 2.9000000000000004 $34 $101 forward @7 unknown #
coedge $-1 -1 $-1 $102 $103 $35 $60 forward $104 $-1 #
edge $105 -1 $-1 $106 -3.1415926535897931 $106 3.1415926535897931 $35 $107 forward @7 unknown #
coedge $-1 -1 $-1 $37 $36 $88 $108 forward $12 $-1 #
coedge $-1 -1 $-1 $109 $89 $36 $63 reversed $84 $-1 #
edge $110 -1 $-1 $71 -0.80000000000000004 $111 0.80000000000000004 $36 $112 forward @7 unknown #
coedge $-1 -1 $-1 $113 $86 $37 $65 forward $50 $-1 #
edge $114 -1 $-1 $70 -0.80000000000000004 $115 0.80000000000000004 $37 $116 forward @7 unknown #
coedge $-1 -1 $-1 $57 $38 $86 $117 reversed $68 $-1 #
coedge $-1 -1 $-1 $38 $57 $109 $118 reversed $68 $-1 #
loop $-1 -1 $-1 $42 $66 $78 #
truecolor-adesk-attrib $-1 -1 $119 $-1 $39 -1029457713 #
vertex $-1 -1 $-1 $39 $120 #
vertex $-1 -1 $-1 $39 $121 #
straight-curve $-1 -1 $-1 88.468518046781327 1.4726990555118302 15.499999999999998 10 1.2246467991473533e-15 -5.893486685362071e-16 F 0 F 2.9000000000000004 #
coedge $-1 -1 $-1 $73 $73 $40 $74 forward $52 $-1 #
edge $122 -1 $-1 $76 -3.1415926535897931 $76 3.1415926535897931 $40 $123 forward @7 unknown #
truecolor-adesk-attrib $-1 -1 $124 $-1 $41 -1029457713 #
vertex $-1 -1 $-1 $41 $125 #
straight-curve $-1 -1 $-1 95.468518046781327 64.56786527290123 -1.5866966225835161e-15 -9.1848509936051499e-16 7.5 5.4130797037846537e-32 F -8.4126888289852531 F -6.2793554956519202 #
face $126 -1 $-1 $127 $68 $3 $-1 $128 forward single #
DXID-attrib $-1 -1 $-1 $43 $26 @18 ASM_EDGE_FROM_STEP @4 7807 #
point $-1 -1 $-1 95.468518046781327 1.4726990555118302 -1.5866966225835165e-15 #
DXID-attrib $-1 -1 $-1 $47 $18 @18 ASM_FACE_FROM_STEP @15 stp-1M-67-13373 #
fmesh-eye-attrib $-1 -1 $129 $48 $30 #
truecolor-adesk-attrib $-1 -1 $130 $-1 $49 -1029457713 #
loop $-1 -1 $-1 $-1 $109 $49 #
cone-surface $-1 -1 $-1 78.926851380114627 9.4726990555118284 3.06669399313977e-16 1.2246467991473532e-16 -1 -7.2174396050462051e-33 -38.541666666666721 -4.7199928717137639e-15 15.499999999999984 1 I I 0 1 41.5416666666667 forward I I I I #
coedge $-1 -1 $-1 $64 $94 $66 $117 forward $50 $-1 #
coedge $-1 -1 $-1 $131 $53 $93 $132 reversed $31 $-1 #
coedge $-1 -1 $-1 $53 $131 $61 $108 reversed $31 $-1 #
coedge $-1 -1 $-1 $62 $96 $53 $90 forward $84 $-1 #
edge $133 -1 $-1 $134 -3.1415926535897936 $111 -2.3768548152017366 $53 $135 forward @7 unknown #
coedge $-1 -1 $-1 $136 $137 $54 $92 forward $138 $-1 #
edge $139 -1 $-1 $140 -3.1415926535897931 $140 3.1415926535897931 $54 $141 forward @7 unknown #
coedge $-1 -1 $-1 $56 $55 $87 $132 forward $19 $-1 #
coedge $-1 -1 $-1 $86 $113 $55 $95 reversed $50 $-1 #
edge $142 -1 $-1 $100 -0.80000000000000004 $143 0.80000000000000004 $55 $144 forward @7 unknown #
coedge $-1 -1 $-1 $89 $109 $56 $97 reversed $84 $-1 #
edge $145 -1 $-1 $134 -0.80000000000000004 $99 0.80000000000000004 $56 $146 forward @7 unknown #
truecolor-adesk-attrib $-1 -1 $147 $-1 $58 -1029457713 #
vertex $-1 -1 $-1 $58 $148 #
vertex $-1 -1 $-1 $58 $149 #
straight-curve $-1 -1 $-1 117.46851804678133 1.4726990555118338 -15.500000000000002 -10 -1.2246467991473533e-15 5.893486685362071e-16 F 0 F 2.9000000000000004 #
coedge $-1 -1 $-1 $150 $59 $103 $151 forward $104 $-1 #
coedge $-1 -1 $-1 $59 $150 $102 $151 reversed $104 $-1 #
loop $-1 -1 $-1 $-1 $59 $152 #
truecolor-adesk-attrib $-1 -1 $153 $-1 $60 -1029457713 #
vertex $-1 -1 $-1 $60 $154 #
ellipse-curve $-1 -1 $-1 102.96851804678133 9.472699055511832 15.499999999999998 5.8934866853620713e-17 0 1 -6 -7.3478807948841188e-16 3.536092011217243e-16 1 I I #
edge $155 -1 $-1 $111 -2.9000000000000004 $115 0 $61 $156 forward @7 unknown #
coedge $-1 -1 $-1 $96 $62 $67 $118 forward $84 $-1 #
truecolor-adesk-attrib $-1 -1 $157 $-1 $63 -1029457713 #
vertex $-1 -1 $-1 $63 $158 #
straight-curve $-1 -1 $-1 117.46851804678133 9.4726990555118338 15.499999999999998 -1.2246467991473533e-15 10 7.2174396050462053e-32 F -0.80000000000000004 F 0.80000000000000004 #
coedge $-1 -1 $-1 $94 $64 $131 $159 forward $50 $-1 #
truecolor-adesk-attrib $-1 -1 $160 $-1 $65 -1029457713 #
vertex $-1 -1 $-1 $108 $161 #
straight-curve $-1 -1 $-1 88.468518046781327 9.4726990555118302 15.499999999999998 -1.2246467991473533e-15 10 7.2174396050462053e-32 F -0.80000000000000004 F 0.80000000000000004 #
edge $162 -1 $-1 $100 2.3768548152017366 $70 3.1415926535897936 $86 $163 forward @7 unknown #
edge $164 -1 $-1 $71 2.3768548152017366 $99 3.1415926535897936 $109 $165 forward @7 unknown #
DXID-attrib $-1 -1 $-1 $69 $39 @18 ASM_EDGE_FROM_STEP @4 7810 #
point $-1 -1 $-1 88.468518046781327 1.4726990555118302 15.499999999999998 #
point $-1 -1 $-1 117.46851804678133 1.4726990555118338 15.499999999999998 #
truecolor-adesk-attrib $-1 -1 $166 $-1 $74 -1029457713 #
ellipse-curve $-1 -1 $-1 102.96851804678133 17.472699055511832 -1.1102230246251565e-15 1.2246467991473532e-16 -1 -7.2174396050462051e-33 7.5 9.1848509936051499e-16 -4.4201150140215533e-16 1 I I #
DXID-attrib $-1 -1 $-1 $75 $41 @18 ASM_EDGE_FROM_STEP @4 7808 #
point $-1 -1 $-1 95.468518046781327 17.472699055511832 -1.5866966225835165e-15 #
truecolor-adesk-attrib $-1 -1 $167 $-1 $78 -1029457713 #
face $168 -1 $-1 $169 $138 $3 $-1 $170 forward single #
plane-surface $-1 -1 $-1 102.96851804678133 1.472699055511832 1.3465677290097635e-15 1.2246467991473532e-16 -1 -7.2174396050462051e-33 -5.8934866853620713e-17 0 -1 forward_v I I I I #
DXID-attrib $-1 -1 $-1 $82 $30 @18 ASM_FACE_FROM_STEP @15 stp-1M-67-13374 #
fmesh-eye-attrib $-1 -1 $171 $83 $49 #
coedge $-1 -1 $-1 $88 $87 $113 $159 reversed $31 $-1 #
edge $172 -1 $-1 $143 -2.9000000000000004 $134 0 $93 $173 forward @7 unknown #
truecolor-adesk-attrib $-1 -1 $174 $-1 $90 -1029457713 #
vertex $-1 -1 $-1 $132 $175 #
ellipse-curve $-1 -1 $-1 78.926851380114627 17.472699055511828 3.06669399313977e-16 1.2246467991473532e-16 -1 -7.2174396050462051e-33 -38.541666666666721 -4.7199928717137639e-15 15.499999999999984 1 F -3.1415926535897936 F -2.3768548152017366 #
coedge $-1 -1 $-1 $176 $91 $137 $177 reversed $138 $-1 #
coedge $-1 -1 $-1 $91 $176 $136 $177 forward $138 $-1 #
loop $-1 -1 $-1 $-1 $176 $127 #
truecolor-adesk-attrib $-1 -1 $178 $-1 $92 -1029457713 #
vertex $-1 -1 $-1 $92 $179 #
ellipse-curve $-1 -1 $-1 102.96851804678133 9.472699055511832 -15.500000000000002 -5.8934866853620713e-17 0 -1 -6 -7.3478807948841188e-16 3.536092011217243e-16 1 I I #
truecolor-adesk-attrib $-1 -1 $180 $-1 $95 -1029457713 #
vertex $-1 -1 $-1 $95 $181 #
straight-curve $-1 -1 $-1 88.468518046781327 9.4726990555118302 -15.500000000000002 -1.2246467991473533e-15 10 7.2174396050462053e-32 F -0.80000000000000004 F 0.80000000000000004 #
truecolor-adesk-attrib $-1 -1 $182 $-1 $97 -1029457713 #
straight-curve $-1 -1 $-1 117.46851804678133 9.4726990555118338 -15.500000000000002 1.2246467991473533e-15 -10 -7.2174396050462053e-32 F -0.80000000000000004 F 0.80000000000000004 #
DXID-attrib $-1 -1 $-1 $98 $58 @18 ASM_EDGE_FROM_STEP @4 7815 #
point $-1 -1 $-1 117.46851804678133 1.4726990555118338 -15.500000000000002 #
point $-1 -1 $-1 88.468518046781327 1.4726990555118302 -15.500000000000002 #
coedge $-1 -1 $-1 $103 $102 $183 $184 forward $104 $-1 #
edge $185 -1 $-1 $106 2.583333333333333 $186 4.1666666666666661 $102 $187 forward @7 unknown #
face $188 -1 $-1 $189 $104 $3 $-1 $190 forward single #
DXID-attrib $-1 -1 $-1 $105 $60 @18 ASM_EDGE_FROM_STEP @4 7814 #
point $-1 -1 $-1 108.96851804678133 9.4726990555118338 15.499999999999998 #
truecolor-adesk-attrib $-1 -1 $191 $-1 $108 -1029457713 #
straight-curve $-1 -1 $-1 88.468518046781327 17.472699055511832 15.499999999999998 -10 -1.2246467991473533e-15 5.893486685362071e-16 F -2.9000000000000004 F 0 #
DXID-attrib $-1 -1 $-1 $110 $63 @18 ASM_EDGE_FROM_STEP @4 7811 #
point $-1 -1 $-1 117.46851804678133 17.472699055511832 15.499999999999998 #
edge $192 -1 $-1 $115 -3.1415926535897936 $143 -2.3768548152017366 $131 $193 forward @7 unknown #
DXID-attrib $-1 -1 $-1 $114 $65 @18 ASM_EDGE_FROM_STEP @4 7813 #
point $-1 -1 $-1 88.468518046781327 17.472699055511832 15.499999999999998 #
truecolor-adesk-attrib $-1 -1 $194 $-1 $117 -1029457713 #
ellipse-curve $-1 -1 $-1 127.01018471344803 1.4726990555118347 -2.5271154485642901e-15 -1.2246467991473532e-16 1 7.2174396050462051e-33 38.541666666666721 4.7199928717137639e-15 -15.499999999999984 1 F 2.3768548152017366 F 3.1415926535897936 #
truecolor-adesk-attrib $-1 -1 $195 $-1 $118 -1029457713 #
ellipse-curve $-1 -1 $-1 78.926851380114627 1.4726990555118284 3.06669399313977e-16 -1.2246467991473532e-16 1 7.2174396050462051e-33 -38.541666666666721 -4.7199928717137639e-15 15.499999999999984 1 F 2.3768548152017366 F 3.1415926535897936 #
DXID-attrib $-1 -1 $-1 $122 $74 @18 ASM_EDGE_FROM_STEP @4 7809 #
fmesh-eye-attrib $-1 -1 $196 $126 $78 #
truecolor-adesk-attrib $-1 -1 $197 $-1 $127 -1029457713 #
face $198 -1 $-1 $152 $199 $3 $-1 $200 forward single #
cone-surface $-1 -1 $-1 102.96851804678133 9.472699055511832 -1.1102230246251565e-15 -5.8934866853620713e-17 0 -1 -6 -7.3478807948841188e-16 3.536092011217243e-16 1 I I 0 1 6.0000000000000009 forward I I I I #
DXID-attrib $-1 -1 $-1 $130 $49 @18 ASM_FACE_FROM_STEP @15 stp-1M-67-13375 #
truecolor-adesk-attrib $-1 -1 $201 $-1 $132 -1029457713 #
straight-curve $-1 -1 $-1 117.46851804678133 17.472699055511832 -15.500000000000002 10 1.2246467991473533e-15 -5.893486685362071e-16 F -2.9000000000000004 F 0 #
DXID-attrib $-1 -1 $-1 $133 $90 @18 ASM_EDGE_FROM_STEP @4 7820 #
point $-1 -1 $-1 117.46851804678133 17.472699055511832 -15.500000000000002 #
coedge $-1 -1 $-1 $137 $136 $202 $203 forward $138 $-1 #
edge $204 -1 $-1 $205 -4.1666666666666661 $140 -2.583333333333333 $137 $206 forward @7 unknown #
DXID-attrib $-1 -1 $-1 $139 $92 @18 ASM_EDGE_FROM_STEP @4 7819 #
point $-1 -1 $-1 108.96851804678133 9.472699055511832 -15.500000000000002 #
DXID-attrib $-1 -1 $-1 $142 $95 @18 ASM_EDGE_FROM_STEP @4 7816 #
point $-1 -1 $-1 88.468518046781327 17.472699055511832 -15.500000000000002 #
DXID-attrib $-1 -1 $-1 $145 $97 @18 ASM_EDGE_FROM_STEP @4 7818 #
coedge $-1 -1 $-1 $183 $183 $150 $184 reversed $199 $-1 #
edge $207 -1 $-1 $186 -3.1415926535897931 $186 3.1415926535897931 $183 $208 forward @7 unknown #
truecolor-adesk-attrib $-1 -1 $209 $-1 $151 -1029457713 #
vertex $-1 -1 $-1 $184 $210 #
straight-curve $-1 -1 $-1 108.96851804678133 9.472699055511832 -1.4638322257468808e-15 3.5360920112172435e-16 0 6.0000000000000009 F 2.583333333333333 F 4.1666666666666661 #
truecolor-adesk-attrib $-1 -1 $211 $-1 $152 -1029457713 #
face $212 -1 $-1 $-1 $213 $3 $-1 $214 reversed single #
cone-surface $-1 -1 $-1 102.96851804678133 9.472699055511832 -1.1102230246251565e-15 -5.8934866853620713e-17 0 -1 -6 -7.3478807948841188e-16 3.536092011217243e-16 1 I I 0 1 6.0000000000000009 forward I I I I #
DXID-attrib $-1 -1 $-1 $155 $108 @18 ASM_EDGE_FROM_STEP @4 7812 #
truecolor-adesk-attrib $-1 -1 $215 $-1 $159 -1029457713 #
ellipse-curve $-1 -1 $-1 127.01018471344803 17.472699055511836 -2.5271154485642901e-15 1.2246467991473532e-16 -1 -7.2174396050462051e-33 38.541666666666721 4.7199928717137639e-15 -15.499999999999984 1 F -3.1415926535897936 F -2.3768548152017366 #
DXID-attrib $-1 -1 $-1 $162 $117 @18 ASM_EDGE_FROM_STEP @4 7822 #
DXID-attrib $-1 -1 $-1 $164 $118 @18 ASM_EDGE_FROM_STEP @4 7823 #
DXID-attrib $-1 -1 $-1 $167 $78 @18 ASM_FACE_FROM_STEP @15 stp-1M-67-13376 #
fmesh-eye-attrib $-1 -1 $216 $168 $127 #
truecolor-adesk-attrib $-1 -1 $217 $-1 $169 -1029457713 #
loop $-1 -1 $-1 $-1 $183 $169 #
plane-surface $-1 -1 $-1 102.96851804678133 9.472699055511832 25 5.8934866853620713e-17 0 1 -1 -1.2246467991473532e-16 5.8934866853620713e-17 forward_v I I I I #
DXID-attrib $-1 -1 $-1 $172 $132 @18 ASM_EDGE_FROM_STEP @4 7817 #
coedge $-1 -1 $-1 $202 $202 $176 $203 reversed $213 $-1 #
edge $218 -1 $-1 $205 -3.1415926535897931 $205 3.1415926535897931 $176 $219 forward @7 unknown #
truecolor-adesk-attrib $-1 -1 $220 $-1 $177 -1029457713 #
vertex $-1 -1 $-1 $203 $221 #
straight-curve $-1 -1 $-1 108.96851804678133 9.472699055511832 -1.4638322257468808e-15 3.5360920112172435e-16 0 6.0000000000000009 F -4.1666666666666661 F -2.583333333333333 #
truecolor-adesk-attrib $-1 -1 $222 $-1 $184 -1029457713 #
ellipse-curve $-1 -1 $-1 102.96851804678133 9.472699055511832 25 -5.8934866853620713e-17 0 -1 -6 -7.3478807948841188e-16 3.536092011217243e-16 1 I I #
DXID-attrib $-1 -1 $-1 $185 $151 @18 ASM_EDGE_FROM_STEP @4 7827 #
point $-1 -1 $-1 108.96851804678133 9.472699055511832 25 #
fmesh-eye-attrib $-1 -1 $223 $188 $152 #
truecolor-adesk-attrib $-1 -1 $224 $-1 $189 -1029457713 #
loop $-1 -1 $-1 $-1 $202 $189 #
plane-surface $-1 -1 $-1 102.96851804678133 9.472699055511832 -25 5.8934866853620713e-17 0 1 -1 -1.2246467991473532e-16 5.8934866853620713e-17 forward_v I I I I #
DXID-attrib $-1 -1 $-1 $192 $159 @18 ASM_EDGE_FROM_STEP @4 7821 #
DXID-attrib $-1 -1 $-1 $197 $127 @18 ASM_FACE_FROM_STEP @15 stp-1M-67-13377 #
fmesh-eye-attrib $-1 -1 $225 $198 $169 #
truecolor-adesk-attrib $-1 -1 $226 $-1 $203 -1029457713 #
ellipse-curve $-1 -1 $-1 102.96851804678133 9.472699055511832 -25 5.8934866853620713e-17 0 1 -6 -7.3478807948841188e-16 3.536092011217243e-16 1 I I #
DXID-attrib $-1 -1 $-1 $204 $177 @18 ASM_EDGE_FROM_STEP @4 7825 #
point $-1 -1 $-1 108.96851804678133 9.472699055511832 -25 #
DXID-attrib $-1 -1 $-1 $207 $184 @18 ASM_EDGE_FROM_STEP @4 7826 #
DXID-attrib $-1 -1 $-1 $211 $152 @18 ASM_FACE_FROM_STEP @15 stp-1M-67-13379 #
fmesh-eye-attrib $-1 -1 $227 $212 $189 #
DXID-attrib $-1 -1 $-1 $217 $169 @18 ASM_FACE_FROM_STEP @15 stp-1M-67-13378 #
DXID-attrib $-1 -1 $-1 $218 $203 @18 ASM_EDGE_FROM_STEP @4 7824 #
DXID-attrib $-1 -1 $-1 $224 $189 @18 ASM_FACE_FROM_STEP @15 stp-1M-67-13380 #
