700 504 1 0         
5 ZWCAD 12 ACIS 28.0 NT 24 Mon May 13 14:21:16 2024 
1 9.9999999999999995e-07 1e-10 
body $1 -1 $-1 $2 $-1 $-1 #
DXID-attrib $-1 -1 $-1 $-1 $0 @18 ASM_BODY_FROM_STEP @83 CDD342C4E6D66B77C07DB74A5EB44F4787CE4905|:|4491F8B5ECC09D9DE308EA37E6A23AD2DD66C256 #
lump $-1 -1 $-1 $-1 $3 $0 #
shell $-1 -1 $-1 $-1 $-1 $4 $-1 $2 #
face $5 -1 $-1 $6 $7 $3 $-1 $8 reversed single #
truecolor-adesk-attrib $-1 -1 $9 $-1 $4 -1056964608 #
face $10 -1 $-1 $11 $12 $3 $-1 $13 reversed single #
loop $-1 -1 $-1 $-1 $14 $4 #
torus-surface $-1 -1 $-1 161.29172666149168 64.338864943538852 0 -1 0 0 26 6.152000000000001 0 0 1 forward_v I I I I #
DXID-attrib $-1 -1 $-1 $5 $4 @18 ASM_FACE_FROM_STEP @12 stp-1M-47-99 #
truecolor-adesk-attrib $-1 -1 $15 $-1 $6 -1056964608 #
face $16 -1 $-1 $17 $18 $3 $-1 $19 reversed single #
loop $-1 -1 $-1 $-1 $20 $6 #
torus-surface $-1 -1 $-1 161.29172666149168 64.338864943538852 0 -1 0 0 26 6.152000000000001 0 0 1 forward_v I I I I #
coedge $-1 -1 $-1 $21 $22 $20 $23 reversed $7 $-1 #
DXID-attrib $-1 -1 $-1 $10 $6 @18 ASM_FACE_FROM_STEP @13 stp-1M-47-138 #
truecolor-adesk-attrib $-1 -1 $24 $-1 $11 -1056964608 #
face $25 -1 $-1 $26 $27 $3 $-1 $28 forward single #
loop $-1 -1 $-1 $-1 $29 $11 #
torus-surface $-1 -1 $-1 161.29172666149168 64.338864943538852 0 -1 0 0 26 6.152000000000001 0 -3.2162857446800002e-16 -1 forward_v I I I I #
coedge $-1 -1 $-1 $30 $31 $14 $23 forward $12 $-1 #
coedge $-1 -1 $-1 $32 $14 $33 $34 forward $7 $-1 #
coedge $-1 -1 $-1 $14 $35 $36 $37 forward $7 $-1 #
edge $38 -1 $-1 $39 -1.570796326794897 $40 1.5707963267948966 $14 $41 reversed @7 unknown #
DXID-attrib $-1 -1 $-1 $16 $11 @18 ASM_FACE_FROM_STEP @13 stp-1M-47-168 #
truecolor-adesk-attrib $-1 -1 $42 $-1 $17 -1056964608 #
face $43 -1 $-1 $44 $45 $3 $-1 $46 forward single #
loop $-1 -1 $-1 $-1 $47 $17 #
cone-surface $-1 -1 $-1 154.26773281613168 64.338864943538852 0 1 0 0 0 -22.300000000000001 2.7309623621045003e-15 1 I I 0 1 22.300000000000001 forward I I I I #
coedge $-1 -1 $-1 $36 $33 $48 $49 reversed $18 $-1 #
coedge $-1 -1 $-1 $50 $20 $51 $52 forward $12 $-1 #
coedge $-1 -1 $-1 $20 $53 $54 $55 forward $12 $-1 #
coedge $-1 -1 $-1 $35 $21 $56 $57 reversed $7 $-1 #
coedge $-1 -1 $-1 $29 $58 $21 $34 reversed $18 $-1 #
edge $59 -1 $-1 $39 -3.1415926535897931 $60 -2.216086673467752 $21 $61 reversed @7 unknown #
coedge $-1 -1 $-1 $22 $32 $62 $63 reversed $7 $-1 #
coedge $-1 -1 $-1 $64 $29 $22 $37 reversed $18 $-1 #
edge $65 -1 $-1 $66 2.216086673467752 $40 3.1415926535897931 $22 $67 forward @7 unknown #
truecolor-adesk-attrib $-1 -1 $68 $-1 $23 -1056964608 #
vertex $-1 -1 $-1 $23 $69 #
vertex $-1 -1 $-1 $23 $70 #
ellipse-curve $-1 -1 $-1 161.29172666149168 64.338864943538852 0 -1 0 0 0 19.847999999999999 0 1 F -1.5707963267948966 F 1.570796326794897 #
DXID-attrib $-1 -1 $-1 $25 $17 @18 ASM_FACE_FROM_STEP @13 stp-1M-47-208 #
truecolor-adesk-attrib $-1 -1 $71 $-1 $26 -1056964608 #
face $72 -1 $-1 $73 $74 $3 $-1 $75 reversed single #
loop $-1 -1 $-1 $-1 $76 $26 #
cone-surface $-1 -1 $-1 154.26773281613168 64.338864943538852 0 1 0 0 0 22.300000000000001 0 1 I I 0 1 22.300000000000001 forward I I I I #
coedge $-1 -1 $-1 $56 $77 $76 $78 reversed $27 $-1 #
coedge $-1 -1 $-1 $54 $51 $29 $49 forward $74 $-1 #
edge $79 -1 $-1 $40 -4.7123889803846897 $39 -1.570796326794897 $29 $80 reversed @7 unknown #
coedge $-1 -1 $-1 $53 $30 $81 $82 forward $12 $-1 #
coedge $-1 -1 $-1 $48 $83 $30 $52 reversed $74 $-1 #
edge $84 -1 $-1 $40 -3.1415926535897931 $85 -2.2160866735293423 $30 $86 forward @7 unknown #
coedge $-1 -1 $-1 $31 $50 $87 $88 forward $12 $-1 #
coedge $-1 -1 $-1 $89 $48 $31 $55 reversed $74 $-1 #
edge $90 -1 $-1 $91 2.2160866734706848 $39 3.1415926535897931 $31 $92 reversed @7 unknown #
coedge $-1 -1 $-1 $93 $47 $32 $57 forward $27 $-1 #
edge $94 -1 $-1 $95 -6.1230317691031398e-17 $60 1.5707963267948966 $32 $96 forward @7 unknown #
coedge $-1 -1 $-1 $33 $64 $93 $97 reversed $18 $-1 #
truecolor-adesk-attrib $-1 -1 $98 $-1 $34 -1056964608 #
vertex $-1 -1 $-1 $34 $99 #
ellipse-curve $-1 -1 $-1 161.29172666149168 64.338864943538837 -26 0 1 -3.2162452993500004e-16 0 -1.9786341081601204e-15 -6.152000000000001 1 F 2.216086673467752 F 3.1415926535897931 #
coedge $-1 -1 $-1 $76 $100 $35 $63 forward $45 $-1 #
edge $101 -1 $-1 $66 -1.5707963267948966 $95 -6.1230317691031398e-17 $35 $102 forward @7 unknown #
coedge $-1 -1 $-1 $58 $36 $100 $103 reversed $18 $-1 #
truecolor-adesk-attrib $-1 -1 $104 $-1 $37 -1056964608 #
vertex $-1 -1 $-1 $63 $105 #
ellipse-curve $-1 -1 $-1 161.29172666149168 64.338864943538852 26 0 -1 0 0 0 6.152000000000001 1 F 2.216086673467752 F 3.1415926535897931 #
DXID-attrib $-1 -1 $-1 $38 $23 @18 ASM_EDGE_FROM_STEP @2 65 #
point $-1 -1 $-1 161.29172666149168 64.338864943538852 -19.847999999999999 #
point $-1 -1 $-1 161.29172666149168 64.338864943538852 19.847999999999999 #
DXID-attrib $-1 -1 $-1 $43 $26 @18 ASM_FACE_FROM_STEP @13 stp-1M-47-234 #
truecolor-adesk-attrib $-1 -1 $106 $-1 $44 -1056964608 #
face $107 -1 $-1 $108 $109 $3 $-1 $110 forward single #
loop $-1 -1 $-1 $-1 $48 $44 #
torus-surface $-1 -1 $-1 161.29172666149168 64.338864943538852 0 -1 0 0 26 6.152000000000001 0 -3.2162857446800002e-16 -1 forward_v I I I I #
coedge $-1 -1 $-1 $111 $62 $47 $78 forward $45 $-1 #
coedge $-1 -1 $-1 $47 $112 $113 $114 reversed $27 $-1 #
edge $115 -1 $-1 $95 -2.1090061553000004 $116 2.1090061546159999 $47 $117 reversed @7 unknown #
truecolor-adesk-attrib $-1 -1 $118 $-1 $49 -1056964608 #
ellipse-curve $-1 -1 $-1 161.29172666149168 64.338864943538852 0 -1 0 0 0 19.847999999999999 0 1 F 1.570796326794897 F 4.7123889803846897 #
coedge $-1 -1 $-1 $119 $120 $50 $82 reversed $109 $-1 #
edge $121 -1 $-1 $85 -1.5707963267948968 $122 2.4492127076457401e-16 $50 $123 forward @7 unknown #
coedge $-1 -1 $-1 $51 $89 $119 $124 forward $74 $-1 #
truecolor-adesk-attrib $-1 -1 $125 $-1 $52 -1056964608 #
vertex $-1 -1 $-1 $52 $126 #
ellipse-curve $-1 -1 $-1 161.29172666149168 64.338864943538852 26 0 -1 0 0 0 6.152000000000001 1 F -3.1415926535897931 F -2.2160866735293423 #
coedge $-1 -1 $-1 $127 $128 $53 $88 reversed $129 $-1 #
edge $130 -1 $-1 $122 2.4492127076457401e-16 $91 1.570796326794897 $53 $131 forward @7 unknown #
coedge $-1 -1 $-1 $83 $54 $128 $132 forward $74 $-1 #
truecolor-adesk-attrib $-1 -1 $133 $-1 $55 -1056964608 #
vertex $-1 -1 $-1 $88 $134 #
ellipse-curve $-1 -1 $-1 161.29172666149168 64.338864943538837 -26 0 1 -3.2162452993500004e-16 0 -1.9786341081601204e-15 -6.152000000000001 1 F -3.1415926535897931 F -2.2160866734706848 #
coedge $-1 -1 $-1 $135 $56 $58 $97 forward $27 $-1 #
truecolor-adesk-attrib $-1 -1 $136 $-1 $57 -1056964608 #
vertex $-1 -1 $-1 $57 $137 #
ellipse-curve $-1 -1 $-1 156.37673897076169 64.338864943538852 0 -1 0 0 0 22.300000000000001 0 1 F -6.1230317691031398e-17 F 1.5707963267948966 #
edge $138 -1 $-1 $60 1.5707963267948966 $139 3.1415926535897931 $58 $140 forward @7 unknown #
DXID-attrib $-1 -1 $-1 $59 $34 @18 ASM_EDGE_FROM_STEP @2 72 #
point $-1 -1 $-1 156.37673897076169 64.338864943538852 -22.300000000000001 #
coedge $-1 -1 $-1 $62 $141 $64 $103 forward $45 $-1 #
truecolor-adesk-attrib $-1 -1 $142 $-1 $63 -1056964608 #
ellipse-curve $-1 -1 $-1 156.37673897076169 64.338864943538852 0 -1 0 0 0 22.300000000000001 0 1 F -1.5707963267948966 F -6.1230317691031398e-17 #
edge $143 -1 $-1 $139 -3.1415926535897931 $66 -1.5707963267948966 $64 $144 forward @7 unknown #
DXID-attrib $-1 -1 $-1 $65 $37 @18 ASM_EDGE_FROM_STEP @2 91 #
point $-1 -1 $-1 156.37673897076169 64.338864943538852 22.300000000000001 #
DXID-attrib $-1 -1 $-1 $72 $44 @18 ASM_FACE_FROM_STEP @13 stp-1M-47-259 #
truecolor-adesk-attrib $-1 -1 $145 $-1 $73 -1056964608 #
face $146 -1 $-1 $147 $129 $3 $-1 $148 forward single #
loop $-1 -1 $-1 $-1 $120 $73 #
cone-surface $-1 -1 $-1 168.31572050689169 64.338864943538852 0 1 0 0 0 22.300000000000001 0 1 I I 0 1 22.300000000000001 forward I I I I #
coedge $-1 -1 $-1 $149 $76 $150 $151 reversed $45 $-1 #
coedge $-1 -1 $-1 $77 $135 $152 $153 reversed $27 $-1 #
coedge $-1 -1 $-1 $154 $150 $77 $114 forward $155 $-1 #
edge $156 -1 $-1 $116 -3.1415926535897931 $157 -1.5707963267948954 $77 $158 reversed @7 unknown #
truecolor-adesk-attrib $-1 -1 $159 $-1 $78 -1056964608 #
vertex $-1 -1 $-1 $78 $160 #
straight-curve $-1 -1 $-1 154.26773281546167 86.638864943538849 -5.46174433805e-15 1 0 0 F -2.1090061546159999 F 2.1090061553000004 #
DXID-attrib $-1 -1 $-1 $79 $49 @18 ASM_EDGE_FROM_STEP @3 148 #
coedge $-1 -1 $-1 $161 $81 $83 $124 reversed $109 $-1 #
coedge $-1 -1 $-1 $81 $162 $127 $163 forward $109 $-1 #
truecolor-adesk-attrib $-1 -1 $164 $-1 $82 -1056964608 #
vertex $-1 -1 $-1 $82 $165 #
ellipse-curve $-1 -1 $-1 166.20671435219168 64.338864943538852 0 -1 0 0 0 22.300000000000001 0 1 F -1.5707963267948968 F 2.4492127076457401e-16 #
edge $166 -1 $-1 $167 -3.1415926535897931 $85 -1.5707963267948968 $83 $168 forward @7 unknown #
DXID-attrib $-1 -1 $-1 $84 $52 @18 ASM_EDGE_FROM_STEP @3 111 #
point $-1 -1 $-1 166.20671435159167 64.338864943538852 22.300000000000001 #
coedge $-1 -1 $-1 $169 $87 $120 $163 reversed $129 $-1 #
coedge $-1 -1 $-1 $87 $170 $89 $132 reversed $129 $-1 #
loop $-1 -1 $-1 $-1 $127 $108 #
truecolor-adesk-attrib $-1 -1 $171 $-1 $88 -1056964608 #
ellipse-curve $-1 -1 $-1 166.20671435219168 64.338864943538852 0 -1 0 0 0 22.300000000000001 0 1 F 2.4492127076457401e-16 F 1.570796326794897 #
edge $172 -1 $-1 $91 1.570796326794897 $167 3.1415926535897931 $89 $173 forward @7 unknown #
DXID-attrib $-1 -1 $-1 $90 $55 @18 ASM_EDGE_FROM_STEP @3 130 #
point $-1 -1 $-1 166.20671435219168 64.338864943538837 -22.300000000000001 #
coedge $-1 -1 $-1 $112 $93 $141 $174 reversed $27 $-1 #
DXID-attrib $-1 -1 $-1 $94 $57 @18 ASM_EDGE_FROM_STEP @2 79 #
point $-1 -1 $-1 156.37673897076169 86.638864943538849 1.3654360845100001e-15 #
truecolor-adesk-attrib $-1 -1 $175 $-1 $97 -1056964608 #
vertex $-1 -1 $-1 $103 $176 #
ellipse-curve $-1 -1 $-1 156.37673897076169 64.338864943538852 0 -1 0 0 0 22.300000000000001 0 1 F 1.5707963267948966 F 3.1415926535897931 #
coedge $-1 -1 $-1 $100 $149 $135 $174 forward $45 $-1 #
DXID-attrib $-1 -1 $-1 $101 $63 @18 ASM_EDGE_FROM_STEP @2 86 #
truecolor-adesk-attrib $-1 -1 $177 $-1 $103 -1056964608 #
ellipse-curve $-1 -1 $-1 156.37673897076169 64.338864943538852 0 -1 0 0 0 22.300000000000001 0 1 F -3.1415926535897931 F -1.5707963267948966 #
DXID-attrib $-1 -1 $-1 $107 $73 @18 ASM_FACE_FROM_STEP @13 stp-1M-47-299 #
truecolor-adesk-attrib $-1 -1 $178 $-1 $108 -1056964608 #
face $179 -1 $-1 $180 $181 $3 $-1 $182 forward single #
cone-surface $-1 -1 $-1 168.31572050689169 64.338864943538852 0 1 0 0 0 -22.300000000000001 2.7309623621045003e-15 1 I I 0 1 22.300000000000001 forward I I I I #
coedge $-1 -1 $-1 $141 $111 $183 $184 reversed $45 $-1 #
coedge $-1 -1 $-1 $113 $185 $111 $151 forward $155 $-1 #
edge $186 -1 $-1 $187 1.5707963267948966 $116 3.1415926535897931 $111 $188 reversed @7 unknown #
coedge $-1 -1 $-1 $183 $189 $112 $153 forward $181 $-1 #
edge $190 -1 $-1 $157 -1.5707963267948954 $191 1.224606353820628e-16 $112 $192 reversed @7 unknown #
coedge $-1 -1 $-1 $193 $113 $189 $194 reversed $155 $-1 #
loop $-1 -1 $-1 $-1 $185 $180 #
truecolor-adesk-attrib $-1 -1 $195 $-1 $114 -1056964608 #
vertex $-1 -1 $-1 $153 $196 #
ellipse-curve $-1 -1 $-1 152.15872666084567 64.338864943538852 0 1 0 0 0 -22.300000000000001 0 1 F 1.5707963267948954 F 3.1415926535897931 #
DXID-attrib $-1 -1 $-1 $115 $78 @18 ASM_EDGE_FROM_STEP @3 180 #
point $-1 -1 $-1 152.15872666084567 86.638864943538849 -5.46174433805e-15 #
coedge $-1 -1 $-1 $197 $119 $170 $198 forward $109 $-1 #
coedge $-1 -1 $-1 $120 $197 $199 $200 forward $109 $-1 #
edge $201 -1 $-1 $202 -2.1090061545999994 $122 2.1090061558999995 $120 $203 reversed @7 unknown #
DXID-attrib $-1 -1 $-1 $121 $82 @18 ASM_EDGE_FROM_STEP @3 118 #
point $-1 -1 $-1 166.20671435159167 86.638864943538849 -5.46174433805e-15 #
truecolor-adesk-attrib $-1 -1 $204 $-1 $124 -1056964608 #
vertex $-1 -1 $-1 $132 $205 #
ellipse-curve $-1 -1 $-1 166.20671435219168 64.338864943538852 0 -1 0 0 0 22.300000000000001 0 1 F -3.1415926535897931 F -1.5707963267948968 #
coedge $-1 -1 $-1 $206 $127 $207 $208 forward $129 $-1 #
coedge $-1 -1 $-1 $128 $206 $161 $198 reversed $129 $-1 #
DXID-attrib $-1 -1 $-1 $130 $88 @18 ASM_EDGE_FROM_STEP @3 125 #
truecolor-adesk-attrib $-1 -1 $209 $-1 $132 -1056964608 #
ellipse-curve $-1 -1 $-1 166.20671435219168 64.338864943538852 0 -1 0 0 0 22.300000000000001 0 1 F 1.570796326794897 F 3.1415926535897931 #
edge $210 -1 $-1 $191 -2.1090061546159999 $139 2.1090061553000004 $135 $211 forward @7 unknown #
DXID-attrib $-1 -1 $-1 $138 $97 @18 ASM_EDGE_FROM_STEP @3 160 #
point $-1 -1 $-1 156.37673897076169 42.038864943538854 -4.0963082535399999e-15 #
DXID-attrib $-1 -1 $-1 $143 $103 @18 ASM_EDGE_FROM_STEP @3 155 #
DXID-attrib $-1 -1 $-1 $146 $108 @18 ASM_FACE_FROM_STEP @13 stp-1M-47-325 #
truecolor-adesk-attrib $-1 -1 $212 $-1 $147 -1056964608 #
face $213 -1 $-1 $214 $155 $3 $-1 $215 forward single #
loop $-1 -1 $-1 $-1 $216 $147 #
torus-surface $-1 -1 $-1 152.15872666149167 64.338864943538852 0 -1 0 0 21.933000000000003 0.36700000000000005 0 1.2246063538200001e-16 -1 forward_v I I I I #
coedge $-1 -1 $-1 $216 $152 $149 $184 forward $181 $-1 #
edge $217 -1 $-1 $191 1.224606353820628e-16 $187 1.5707963267948966 $149 $218 reversed @7 unknown #
coedge $-1 -1 $-1 $150 $193 $216 $219 reversed $155 $-1 #
truecolor-adesk-attrib $-1 -1 $220 $-1 $151 -1056964608 #
vertex $-1 -1 $-1 $151 $221 #
ellipse-curve $-1 -1 $-1 152.15872666084567 64.338864943538852 0 1 0 0 0 -22.300000000000001 0 1 F -3.1415926535897931 F -1.5707963267948966 #
coedge $-1 -1 $-1 $152 $222 $154 $194 forward $181 $-1 #
truecolor-adesk-attrib $-1 -1 $223 $-1 $153 -1056964608 #
vertex $-1 -1 $-1 $174 $224 #
ellipse-curve $-1 -1 $-1 152.15872666084567 64.338864943538852 0 1 0 0 0 -22.300000000000001 0 1 F -1.224606353820628e-16 F 1.5707963267948954 #
coedge $-1 -1 $-1 $185 $154 $225 $226 reversed $155 $-1 #
edge $227 -1 $-1 $228 -1.5707963267948966 $157 -1.7602179553472823e-09 $189 $229 reversed @7 unknown #
DXID-attrib $-1 -1 $-1 $156 $114 @18 ASM_EDGE_FROM_STEP @3 199 #
point $-1 -1 $-1 152.15872666084567 64.338864943538823 -22.300000000000001 #
coedge $-1 -1 $-1 $162 $161 $230 $231 forward $109 $-1 #
edge $232 -1 $-1 $167 -2.1090061552999995 $233 2.1090061545999994 $161 $234 forward @7 unknown #
coedge $-1 -1 $-1 $235 $207 $162 $200 reversed $236 $-1 #
edge $237 -1 $-1 $238 1.5707963267948959 $202 3.1415926535897931 $162 $239 reversed @7 unknown #
truecolor-adesk-attrib $-1 -1 $240 $-1 $163 -1056964608 #
vertex $-1 -1 $-1 $163 $241 #
straight-curve $-1 -1 $-1 168.31572050749168 86.638864943538849 0 1 0 0 F -2.1090061558999995 F 2.1090061545999994 #
DXID-attrib $-1 -1 $-1 $166 $124 @18 ASM_EDGE_FROM_STEP @3 251 #
point $-1 -1 $-1 166.20671435219168 42.038864943538854 -4.0963082535399999e-15 #
coedge $-1 -1 $-1 $170 $169 $242 $243 forward $129 $-1 #
coedge $-1 -1 $-1 $199 $244 $169 $208 reversed $236 $-1 #
edge $245 -1 $-1 $202 -3.1415926535897931 $246 -1.5707963267948972 $169 $247 reversed @7 unknown #
DXID-attrib $-1 -1 $-1 $172 $132 @18 ASM_EDGE_FROM_STEP @3 246 #
truecolor-adesk-attrib $-1 -1 $248 $-1 $174 -1056964608 #
straight-curve $-1 -1 $-1 154.26773281546167 42.038864943538854 2.7308721690200002e-15 1 0 0 F -2.1090061546159999 F 2.1090061553000004 #
DXID-attrib $-1 -1 $-1 $179 $147 @18 ASM_FACE_FROM_STEP @13 stp-1M-47-357 #
truecolor-adesk-attrib $-1 -1 $249 $-1 $180 -1056964608 #
face $250 -1 $-1 $251 $252 $3 $-1 $253 forward single #
torus-surface $-1 -1 $-1 152.15872666149167 64.338864943538852 0 -1 0 0 21.933000000000003 0.36700000000000005 0 0 1 forward_v I I I I #
coedge $-1 -1 $-1 $222 $183 $185 $219 forward $181 $-1 #
truecolor-adesk-attrib $-1 -1 $254 $-1 $184 -1056964608 #
ellipse-curve $-1 -1 $-1 152.15872666084567 64.338864943538852 0 1 0 0 0 -22.300000000000001 0 1 F -1.5707963267948966 F -1.224606353820628e-16 #
edge $255 -1 $-1 $187 0 $256 1.5707963267948966 $216 $257 forward @7 unknown #
DXID-attrib $-1 -1 $-1 $186 $151 @18 ASM_EDGE_FROM_STEP @3 220 #
point $-1 -1 $-1 152.15872666149167 64.338864943538852 22.300000000000001 #
coedge $-1 -1 $-1 $189 $216 $258 $259 reversed $181 $-1 #
DXID-attrib $-1 -1 $-1 $190 $153 @18 ASM_EDGE_FROM_STEP @3 194 #
point $-1 -1 $-1 152.15872666084567 42.038864943538854 2.7308721690200002e-15 #
coedge $-1 -1 $-1 $258 $258 $193 $226 forward $260 $-1 #
edge $261 -1 $-1 $256 -1.5707963267948968 $228 1.5707963267948966 $193 $262 forward @7 unknown #
truecolor-adesk-attrib $-1 -1 $263 $-1 $194 -1056964608 #
vertex $-1 -1 $-1 $259 $264 #
ellipse-curve $-1 -1 $-1 152.15872666149167 64.338864943538852 -21.933000000000003 0 1 1.2246467991500001e-16 0 4.4944537528805009e-17 -0.36700000000000005 1 F 1.7602179553472823e-09 F 1.5707963267948966 #
coedge $-1 -1 $-1 $242 $265 $197 $231 reversed $252 $-1 #
edge $266 -1 $-1 $233 1.224606353820628e-16 $238 1.5707963267948959 $197 $267 reversed @7 unknown #
truecolor-adesk-attrib $-1 -1 $268 $-1 $198 -1056964608 #
vertex $-1 -1 $-1 $198 $269 #
straight-curve $-1 -1 $-1 168.31572050749168 42.038864943538854 2.7308721690200002e-15 1 0 0 F -2.1090061552999995 F 2.1090061545999994 #
coedge $-1 -1 $-1 $270 $199 $265 $271 reversed $236 $-1 #
loop $-1 -1 $-1 $-1 $235 $251 #
truecolor-adesk-attrib $-1 -1 $272 $-1 $200 -1056964608 #
vertex $-1 -1 $-1 $231 $273 #
ellipse-curve $-1 -1 $-1 170.42472666209167 64.338864943538852 0 1 0 0 0 -22.300000000000001 0 1 F -3.1415926535897931 F -1.5707963267948959 #
DXID-attrib $-1 -1 $-1 $201 $163 @18 ASM_EDGE_FROM_STEP @3 271 #
point $-1 -1 $-1 170.42472666209167 86.638864943538849 0 #
coedge $-1 -1 $-1 $274 $230 $206 $243 reversed $252 $-1 #
edge $275 -1 $-1 $246 -1.5707963267948972 $233 1.224606353820628e-16 $206 $276 reversed @7 unknown #
coedge $-1 -1 $-1 $207 $270 $274 $277 reversed $236 $-1 #
truecolor-adesk-attrib $-1 -1 $278 $-1 $208 -1056964608 #
vertex $-1 -1 $-1 $208 $279 #
ellipse-curve $-1 -1 $-1 170.42472666209167 64.338864943538852 0 1 0 0 0 -22.300000000000001 0 1 F 1.5707963267948972 F 3.1415926535897931 #
DXID-attrib $-1 -1 $-1 $210 $174 @18 ASM_EDGE_FROM_STEP @3 187 #
DXID-attrib $-1 -1 $-1 $213 $180 @18 ASM_FACE_FROM_STEP @13 stp-1M-47-383 #
truecolor-adesk-attrib $-1 -1 $280 $-1 $214 -1056964608 #
face $281 -1 $-1 $282 $236 $3 $-1 $283 forward single #
loop $-1 -1 $-1 $-1 $265 $214 #
torus-surface $-1 -1 $-1 170.42472666149169 64.338864943538852 0 -1 0 0 21.933000000000003 0.36700000000000005 0 1.2246063538200001e-16 -1 forward_v I I I I #
DXID-attrib $-1 -1 $-1 $217 $184 @18 ASM_EDGE_FROM_STEP @3 225 #
truecolor-adesk-attrib $-1 -1 $284 $-1 $219 -1056964608 #
vertex $-1 -1 $-1 $219 $285 #
ellipse-curve $-1 -1 $-1 152.15872666149167 64.338864943538852 21.933000000000003 0 -1 -2.4492935982899999e-16 0 -8.9889075057243012e-17 0.36700000000000005 1 F 0 F 1.5707963267948966 #
coedge $-1 -1 $-1 $225 $225 $222 $259 forward $260 $-1 #
edge $286 -1 $-1 $228 1.5707963267948966 $256 4.7123889803846897 $222 $287 forward @7 unknown #
loop $-1 -1 $-1 $288 $225 $282 #
truecolor-adesk-attrib $-1 -1 $289 $-1 $226 -1056964608 #
ellipse-curve $-1 -1 $-1 151.79172666149168 64.338864943538852 0 -1 0 0 0 21.933000000000003 0 1 F -1.5707963267948968 F 1.5707963267948966 #
DXID-attrib $-1 -1 $-1 $227 $194 @18 ASM_EDGE_FROM_STEP @3 349 #
point $-1 -1 $-1 151.79172666149168 64.338864943538852 -21.933000000000003 #
coedge $-1 -1 $-1 $230 $290 $235 $271 forward $252 $-1 #
truecolor-adesk-attrib $-1 -1 $291 $-1 $231 -1056964608 #
ellipse-curve $-1 -1 $-1 170.42472666209167 64.338864943538852 0 1 0 0 0 -22.300000000000001 0 1 F -1.5707963267948959 F -1.224606353820628e-16 #
DXID-attrib $-1 -1 $-1 $232 $198 @18 ASM_EDGE_FROM_STEP @3 278 #
point $-1 -1 $-1 170.42472666209167 42.038864943538854 2.7308721690200002e-15 #
coedge $-1 -1 $-1 $244 $235 $292 $293 forward $236 $-1 #
edge $294 -1 $-1 $295 -1.5707963267948966 $238 -1.6348775194665386e-09 $265 $296 forward @7 unknown #
DXID-attrib $-1 -1 $-1 $237 $200 @18 ASM_EDGE_FROM_STEP @3 290 #
point $-1 -1 $-1 170.42472666209167 64.338864943538837 22.300000000000001 #
coedge $-1 -1 $-1 $290 $242 $244 $277 forward $252 $-1 #
truecolor-adesk-attrib $-1 -1 $297 $-1 $243 -1056964608 #
ellipse-curve $-1 -1 $-1 170.42472666209167 64.338864943538852 0 1 0 0 0 -22.300000000000001 0 1 F -1.224606353820628e-16 F 1.5707963267948972 #
edge $298 -1 $-1 $246 1.6348775194665386e-09 $299 1.5707963267948966 $274 $300 reversed @7 unknown #
DXID-attrib $-1 -1 $-1 $245 $208 @18 ASM_EDGE_FROM_STEP @3 311 #
point $-1 -1 $-1 170.42472666209167 64.338864943538866 -22.300000000000001 #
DXID-attrib $-1 -1 $-1 $250 $214 @18 ASM_FACE_FROM_STEP @13 stp-1M-47-415 #
truecolor-adesk-attrib $-1 -1 $301 $-1 $251 -1056964608 #
face $302 -1 $-1 $303 $260 $3 $-1 $304 forward single #
torus-surface $-1 -1 $-1 170.42472666149169 64.338864943538852 0 -1 0 0 21.933000000000003 0.36700000000000005 0 0 1 forward_v I I I I #
DXID-attrib $-1 -1 $-1 $255 $219 @18 ASM_EDGE_FROM_STEP @3 337 #
point $-1 -1 $-1 151.79172666149168 64.338864943538852 21.933000000000003 #
truecolor-adesk-attrib $-1 -1 $305 $-1 $259 -1056964608 #
ellipse-curve $-1 -1 $-1 151.79172666149168 64.338864943538852 0 -1 0 0 0 21.933000000000003 0 1 F 1.5707963267948966 F 4.7123889803846897 #
loop $-1 -1 $-1 $-1 $306 $282 #
DXID-attrib $-1 -1 $307 $261 $226 @18 ASM_EDGE_FROM_STEP @3 374 #
coedge $-1 -1 $-1 $265 $274 $308 $309 forward $252 $-1 #
DXID-attrib $-1 -1 $-1 $266 $231 @18 ASM_EDGE_FROM_STEP @3 285 #
coedge $-1 -1 $-1 $308 $308 $270 $293 reversed $310 $-1 #
edge $311 -1 $-1 $295 -1.5707963267948968 $299 1.5707963267948966 $270 $312 forward @7 unknown #
truecolor-adesk-attrib $-1 -1 $313 $-1 $271 -1056964608 #
vertex $-1 -1 $-1 $271 $314 #
ellipse-curve $-1 -1 $-1 170.42472666149169 64.338864943538852 21.933000000000003 0 -1 -2.4492935982899999e-16 0 -8.9889075057243012e-17 0.36700000000000005 1 F -1.5707963267948966 F -1.6348775194665386e-09 #
DXID-attrib $-1 -1 $-1 $275 $243 @18 ASM_EDGE_FROM_STEP @3 316 #
truecolor-adesk-attrib $-1 -1 $315 $-1 $277 -1056964608 #
vertex $-1 -1 $-1 $277 $316 #
ellipse-curve $-1 -1 $-1 170.42472666149169 64.338864943538852 -21.933000000000003 0 1 1.2246467991500001e-16 0 4.4944537528805009e-17 -0.36700000000000005 1 F -1.5707963267948966 F -1.6348775194665386e-09 #
DXID-attrib $-1 -1 $-1 $281 $251 @18 ASM_FACE_FROM_STEP @13 stp-1M-47-441 #
truecolor-adesk-attrib $-1 -1 $317 $-1 $282 -1056964608 #
face $318 -1 $-1 $319 $310 $3 $-1 $320 forward single #
plane-surface $-1 -1 $-1 151.79172666149168 83.355364943538859 0 -1 6.6617188173999996e-17 0 6.6617188173999996e-17 1 0 forward_v I I I I #
DXID-attrib $-1 -1 $-1 $286 $259 @18 ASM_EDGE_FROM_STEP @3 344 #
coedge $-1 -1 $-1 $321 $322 $323 $324 reversed $288 $-1 #
DXID-attrib $-1 -1 $-1 $289 $226 @18 ASM_EDGE_FROM_STEP @3 369 #
coedge $-1 -1 $-1 $292 $292 $290 $309 reversed $310 $-1 #
edge $325 -1 $-1 $299 1.5707963267948966 $295 4.7123889803846897 $290 $326 forward @7 unknown #
loop $-1 -1 $-1 $327 $292 $303 #
truecolor-adesk-attrib $-1 -1 $328 $-1 $293 -1056964608 #
ellipse-curve $-1 -1 $-1 170.79172666149168 64.338864943538852 0 -1 0 0 0 21.933000000000003 0 1 F -1.5707963267948968 F 1.5707963267948966 #
DXID-attrib $-1 -1 $-1 $294 $271 @18 ASM_EDGE_FROM_STEP @3 395 #
point $-1 -1 $-1 170.79172666149168 64.338864943538852 21.933000000000003 #
DXID-attrib $-1 -1 $-1 $298 $277 @18 ASM_EDGE_FROM_STEP @3 402 #
point $-1 -1 $-1 170.79172666149168 64.338864943538852 -21.933000000000003 #
DXID-attrib $-1 -1 $-1 $302 $282 @18 ASM_FACE_FROM_STEP @13 stp-1M-47-523 #
truecolor-adesk-attrib $-1 -1 $329 $-1 $303 -1056964608 #
face $330 -1 $-1 $331 $332 $3 $-1 $333 forward single #
plane-surface $-1 -1 $-1 170.79172666149168 83.355364943538859 0 1 0 0 0 -1 0 forward_v I I I I #
coedge $-1 -1 $-1 $322 $306 $334 $335 reversed $288 $-1 #
coedge $-1 -1 $-1 $306 $321 $336 $337 reversed $288 $-1 #
coedge $-1 -1 $-1 $338 $334 $306 $324 forward $332 $-1 #
edge $339 -1 $-1 $340 -1.570794119054278 $341 5.5527213572534468e-12 $306 $342 forward @7 unknown #
truecolor-adesk-attrib $-1 -1 $343 $-1 $309 -1056964608 #
ellipse-curve $-1 -1 $-1 170.79172666149168 64.338864943538852 0 -1 0 0 0 21.933000000000003 0 1 F 1.5707963267948966 F 4.7123889803846897 #
loop $-1 -1 $-1 $-1 $344 $303 #
DXID-attrib $-1 -1 $345 $311 $293 @18 ASM_EDGE_FROM_STEP @3 432 #
DXID-attrib $-1 -1 $-1 $318 $303 @18 ASM_FACE_FROM_STEP @13 stp-1M-47-605 #
truecolor-adesk-attrib $-1 -1 $346 $-1 $319 -1056964608 #
face $347 -1 $-1 $348 $349 $3 $-1 $350 forward single #
loop $-1 -1 $-1 $-1 $351 $319 #
torus-surface $-1 -1 $-1 152.89172666149167 64.338864943538852 0 -1 0 0 16.100000000000001 1.1000000000000001 0 0 1 forward_v I I I I #
coedge $-1 -1 $-1 $323 $351 $321 $335 forward $332 $-1 #
edge $352 -1 $-1 $353 -1.5707941190486456 $340 -2.8339285504607922e-16 $321 $354 forward @7 unknown #
coedge $-1 -1 $-1 $355 $356 $322 $337 forward $349 $-1 #
edge $357 -1 $-1 $341 -3.1415923256242371 $353 -5.5533849978560242e-12 $322 $358 forward @7 unknown #
coedge $-1 -1 $-1 $359 $323 $356 $360 reversed $332 $-1 #
truecolor-adesk-attrib $-1 -1 $361 $-1 $324 -1056964608 #
vertex $-1 -1 $-1 $324 $362 #
vertex $-1 -1 $-1 $324 $363 #
ellipse-curve $-1 -1 $-1 151.79172666149168 64.33884717130195 1.7772336892270193e-05 -1 6.6617188174425278e-17 -7.2456320270419736e-29 1.1839435726205147e-21 1.777232630972847e-05 -16.100017771936898 1 F -1.570794119054278 F 5.5527213572534468e-12 #
DXID-attrib $-1 -1 $-1 $325 $309 @18 ASM_EDGE_FROM_STEP @3 407 #
coedge $-1 -1 $-1 $364 $365 $366 $367 forward $327 $-1 #
DXID-attrib $-1 -1 $-1 $328 $293 @18 ASM_EDGE_FROM_STEP @3 427 #
DXID-attrib $-1 -1 $-1 $330 $319 @18 ASM_FACE_FROM_STEP @13 stp-1M-47-645 #
truecolor-adesk-attrib $-1 -1 $368 $-1 $331 -1056964608 #
face $369 -1 $-1 $370 $371 $3 $-1 $372 forward single #
loop $-1 -1 $-1 $-1 $355 $331 #
torus-surface $-1 -1 $-1 152.89172666149167 64.338864943538852 0 -1 0 0 16.100000000000001 1.1000000000000001 0 5.6654984523199998e-16 -1 forward_v I I I I #
coedge $-1 -1 $-1 $334 $373 $355 $374 reversed $332 $-1 #
truecolor-adesk-attrib $-1 -1 $375 $-1 $335 -1056964608 #
vertex $-1 -1 $-1 $335 $376 #
ellipse-curve $-1 -1 $-1 151.79172666149168 64.33884717121191 -1.7772426939011154e-05 -1 6.6617188174666386e-17 3.1358997829233069e-28 1.0725379135345917e-15 16.100017772026941 1.7772426938678088e-05 1 F -1.5707941190486456 F -2.8339285504607922e-16 #
coedge $-1 -1 $-1 $377 $336 $351 $374 forward $349 $-1 #
coedge $-1 -1 $-1 $336 $378 $338 $360 forward $349 $-1 #
truecolor-adesk-attrib $-1 -1 $379 $-1 $337 -1056964608 #
ellipse-curve $-1 -1 $-1 151.79172666149168 64.338867583706289 -4.4408920985006262e-15 -1 6.6617188173676008e-17 -2.0801592113189359e-33 -1.7587457480188959e-22 -2.6400780277588542e-06 16.099999999600008 1 F -3.1415923256242371 F -5.5533849978560242e-12 #
coedge $-1 -1 $-1 $373 $338 $380 $381 reversed $332 $-1 #
edge $382 -1 $-1 $383 -3.1415926535897931 $341 -1.5707963267948966 $338 $384 reversed @7 unknown #
DXID-attrib $-1 -1 $-1 $339 $324 @18 ASM_EDGE_FROM_STEP @3 472 #
point $-1 -1 $-1 151.79172666149168 80.438864943538846 4.5607262541199998e-15 #
point $-1 -1 $-1 151.79172666149168 64.338864943538866 -16.100000000000001 #
coedge $-1 -1 $-1 $365 $344 $385 $386 forward $327 $-1 #
coedge $-1 -1 $-1 $344 $364 $387 $388 forward $327 $-1 #
coedge $-1 -1 $-1 $387 $389 $344 $367 reversed $371 $-1 #
edge $390 -1 $-1 $391 -1.570794119054278 $392 5.5527213572534468e-12 $344 $393 forward @7 unknown #
DXID-attrib $-1 -1 $-1 $347 $331 @18 ASM_FACE_FROM_STEP @13 stp-1M-47-670 #
truecolor-adesk-attrib $-1 -1 $394 $-1 $348 -1056964608 #
face $395 -1 $-1 $396 $397 $3 $-1 $398 forward single #
loop $-1 -1 $-1 $-1 $399 $348 #
torus-surface $-1 -1 $-1 169.69172666149169 64.338864943538852 0 -1 0 0 16.100000000000001 1.1000000000000001 0 0 1 forward_v I I I I #
coedge $-1 -1 $-1 $351 $359 $400 $401 reversed $332 $-1 #
edge $402 -1 $-1 $353 1.5707963267948966 $403 3.1415926535897931 $351 $404 forward @7 unknown #
DXID-attrib $-1 -1 $-1 $352 $335 @18 ASM_EDGE_FROM_STEP @3 491 #
point $-1 -1 $-1 151.79172666149168 64.338864943538852 16.100000000000001 #
coedge $-1 -1 $-1 $378 $355 $405 $406 reversed $349 $-1 #
coedge $-1 -1 $-1 $356 $377 $407 $408 reversed $349 $-1 #
DXID-attrib $-1 -1 $-1 $357 $337 @18 ASM_EDGE_FROM_STEP @3 517 #
coedge $-1 -1 $-1 $407 $409 $359 $381 forward $410 $-1 #
edge $411 -1 $-1 $412 0 $383 1.5707963267948961 $359 $413 forward @7 unknown #
truecolor-adesk-attrib $-1 -1 $414 $-1 $360 -1056964608 #
vertex $-1 -1 $-1 $360 $415 #
ellipse-curve $-1 -1 $-1 152.89172666149167 64.338864943538866 -16.100000000000001 0 1 5.6655388976500001e-16 0 6.2320927874150008e-16 -1.1000000000000001 1 F 1.5707963267948966 F 3.1415926535897931 #
coedge $-1 -1 $-1 $416 $417 $364 $386 reversed $397 $-1 #
edge $418 -1 $-1 $392 -3.1415923256242371 $419 -5.5543956368950791e-12 $364 $420 forward @7 unknown #
coedge $-1 -1 $-1 $399 $366 $365 $388 reversed $371 $-1 #
edge $421 -1 $-1 $419 -1.5707941190486467 $391 -2.8339285504607922e-16 $365 $422 forward @7 unknown #
coedge $-1 -1 $-1 $366 $423 $416 $424 reversed $371 $-1 #
truecolor-adesk-attrib $-1 -1 $425 $-1 $367 -1056964608 #
vertex $-1 -1 $-1 $367 $426 #
vertex $-1 -1 $-1 $367 $427 #
ellipse-curve $-1 -1 $-1 170.79172666149168 64.33884717130195 1.7772336892270193e-05 -1 -3.3295890193514733e-16 2.7583113534117024e-16 -4.4408920985006262e-15 1.777232630972847e-05 -16.100017771936898 1 F -1.570794119054278 F 5.5527213572534468e-12 #
DXID-attrib $-1 -1 $-1 $369 $348 @18 ASM_FACE_FROM_STEP @13 stp-1M-47-710 #
truecolor-adesk-attrib $-1 -1 $428 $-1 $370 -1056964608 #
face $429 -1 $-1 $430 $410 $3 $-1 $431 reversed single #
loop $-1 -1 $-1 $-1 $417 $370 #
torus-surface $-1 -1 $-1 169.69172666149169 64.338864943538852 0 -1 0 0 16.100000000000001 1.1000000000000001 0 5.6654984523199998e-16 -1 forward_v I I I I #
coedge $-1 -1 $-1 $432 $387 $417 $433 reversed $371 $-1 #
coedge $-1 -1 $-1 $434 $405 $373 $401 forward $435 $-1 #
edge $436 -1 $-1 $403 -1.5707963267948966 $412 0 $373 $437 forward @7 unknown #
truecolor-adesk-attrib $-1 -1 $438 $-1 $374 -1056964608 #
vertex $-1 -1 $-1 $374 $439 #
ellipse-curve $-1 -1 $-1 152.89172666149167 64.338864943538852 16.100000000000001 0 -1 0 0 0 1.1000000000000001 1 F 1.5707963267948966 F 3.1415926535897931 #
coedge $-1 -1 $-1 $400 $440 $377 $406 forward $435 $-1 #
edge $441 -1 $-1 $442 -3.1415926535897927 $403 -1.5707963267948966 $377 $443 forward @7 unknown #
coedge $-1 -1 $-1 $444 $380 $378 $408 forward $410 $-1 #
edge $445 -1 $-1 $383 1.5707963267948961 $442 3.1415926535897936 $378 $446 forward @7 unknown #
coedge $-1 -1 $-1 $380 $447 $434 $448 forward $410 $-1 #
loop $-1 -1 $-1 $-1 $409 $396 #
truecolor-adesk-attrib $-1 -1 $449 $-1 $381 -1056964608 #
vertex $-1 -1 $-1 $381 $450 #
ellipse-curve $-1 -1 $-1 152.89172666149167 64.338864943538852 0 -1 0 0 0 15 0 1 F 0 F 1.5707963267948961 #
DXID-attrib $-1 -1 $-1 $382 $360 @18 ASM_EDGE_FROM_STEP @3 624 #
point $-1 -1 $-1 152.89172666149167 64.338864943538866 -15 #
coedge $-1 -1 $-1 $451 $385 $389 $424 forward $397 $-1 #
coedge $-1 -1 $-1 $385 $452 $399 $433 forward $397 $-1 #
truecolor-adesk-attrib $-1 -1 $453 $-1 $386 -1056964608 #
vertex $-1 -1 $-1 $386 $454 #
ellipse-curve $-1 -1 $-1 170.79172666149168 64.338867583706289 -4.4408920985006262e-15 -1 -1.379159262990246e-16 -2.2615453832864001e-23 0 -2.6400780277588542e-06 16.099999999600008 1 F -3.1415923256242371 F -5.5543956368950791e-12 #
truecolor-adesk-attrib $-1 -1 $455 $-1 $388 -1056964608 #
ellipse-curve $-1 -1 $-1 170.79172666149168 64.33884717121191 -1.7772426939011154e-05 -1 2.7583113533754656e-16 3.3295890193764393e-16 4.4408920985006262e-15 16.100017772026941 1.7772426938678088e-05 1 F -1.5707941190486467 F -2.8339285504607922e-16 #
coedge $-1 -1 $-1 $389 $432 $447 $456 forward $371 $-1 #
edge $457 -1 $-1 $392 1.5707963267948966 $458 3.1415926535897931 $389 $459 reversed @7 unknown #
DXID-attrib $-1 -1 $-1 $390 $367 @18 ASM_EDGE_FROM_STEP @3 554 #
point $-1 -1 $-1 170.79172666149168 80.438864943538846 4.5607262541199998e-15 #
point $-1 -1 $-1 170.79172666149168 64.338864943538866 -16.100000000000001 #
DXID-attrib $-1 -1 $-1 $395 $370 @18 ASM_FACE_FROM_STEP @13 stp-1M-47-735 #
truecolor-adesk-attrib $-1 -1 $460 $-1 $396 -1056964608 #
face $461 -1 $-1 $-1 $435 $3 $-1 $462 reversed single #
cone-surface $-1 -1 $-1 161.29172666149168 64.338864943538852 0 1 0 0 0 -15 8.4983083464750004e-15 1 I I 0 1 15 forward I I I I #
coedge $-1 -1 $-1 $423 $399 $463 $464 forward $371 $-1 #
edge $465 -1 $-1 $466 -3.1415926535897931 $419 -1.5707963267948966 $399 $467 forward @7 unknown #
coedge $-1 -1 $-1 $463 $400 $409 $448 reversed $435 $-1 #
loop $-1 -1 $-1 $-1 $434 $430 #
truecolor-adesk-attrib $-1 -1 $468 $-1 $401 -1056964608 #
ellipse-curve $-1 -1 $-1 152.89172666149167 64.338864943538852 0 -1 0 0 0 15 0 1 F -1.5707963267948966 F 0 #
DXID-attrib $-1 -1 $-1 $402 $374 @18 ASM_EDGE_FROM_STEP @3 617 #
point $-1 -1 $-1 152.89172666149167 64.338864943538852 15 #
coedge $-1 -1 $-1 $405 $469 $444 $470 reversed $435 $-1 #
truecolor-adesk-attrib $-1 -1 $471 $-1 $406 -1056964608 #
vertex $-1 -1 $-1 $406 $472 #
ellipse-curve $-1 -1 $-1 152.89172666149167 64.338864943538852 0 -1 0 0 0 15 0 1 F -3.1415926535897927 F -1.5707963267948966 #
coedge $-1 -1 $-1 $473 $407 $440 $470 forward $410 $-1 #
truecolor-adesk-attrib $-1 -1 $474 $-1 $408 -1056964608 #
ellipse-curve $-1 -1 $-1 152.89172666149167 64.338864943538852 0 -1 0 0 0 15 0 1 F 1.5707963267948961 F 3.1415926535897936 #
coedge $-1 -1 $-1 $409 $473 $423 $456 reversed $410 $-1 #
edge $475 -1 $-1 $476 -8.4000000003999986 $412 8.4000000003699995 $409 $477 reversed @7 unknown #
DXID-attrib $-1 -1 $-1 $411 $381 @18 ASM_EDGE_FROM_STEP @3 631 #
point $-1 -1 $-1 152.89172666112168 79.338864943538852 0 #
coedge $-1 -1 $-1 $452 $416 $473 $478 forward $397 $-1 #
coedge $-1 -1 $-1 $417 $451 $469 $479 forward $397 $-1 #
DXID-attrib $-1 -1 $-1 $418 $386 @18 ASM_EDGE_FROM_STEP @3 582 #
point $-1 -1 $-1 170.79172666149168 64.338864943538837 16.100000000000001 #
DXID-attrib $-1 -1 $-1 $421 $388 @18 ASM_EDGE_FROM_STEP @3 599 #
edge $480 -1 $-1 $476 0 $458 1.5707963267948961 $423 $481 forward @7 unknown #
truecolor-adesk-attrib $-1 -1 $482 $-1 $424 -1056964608 #
vertex $-1 -1 $-1 $456 $483 #
ellipse-curve $-1 -1 $-1 169.69172666149169 64.338864943538866 -16.100000000000001 0 1 5.6655388976500001e-16 0 6.2320927874150008e-16 -1.1000000000000001 1 F -3.1415926535897931 F -1.5707963267948966 #
DXID-attrib $-1 -1 $-1 $429 $396 @18 ASM_FACE_FROM_STEP @13 stp-1M-47-759 #
truecolor-adesk-attrib $-1 -1 $484 $-1 $430 -1056964608 #
cone-surface $-1 -1 $-1 161.29172666149168 64.338864943538852 0 1 0 0 0 15 0 1 I I 0 1 15 forward I I I I #
coedge $-1 -1 $-1 $469 $434 $432 $464 reversed $435 $-1 #
edge $485 -1 $-1 $466 -1.5707963267948966 $476 0 $432 $486 forward @7 unknown #
truecolor-adesk-attrib $-1 -1 $487 $-1 $433 -1056964608 #
vertex $-1 -1 $-1 $433 $488 #
ellipse-curve $-1 -1 $-1 169.69172666149169 64.338864943538852 16.100000000000001 0 -1 0 0 0 1.1000000000000001 1 F -3.1415926535897931 F -1.5707963267948966 #
DXID-attrib $-1 -1 $-1 $436 $401 @18 ASM_EDGE_FROM_STEP @3 636 #
coedge $-1 -1 $-1 $440 $463 $452 $479 reversed $435 $-1 #
edge $489 -1 $-1 $442 -8.4000000003699995 $490 8.4000000003999986 $444 $491 forward @7 unknown #
DXID-attrib $-1 -1 $-1 $441 $406 @18 ASM_EDGE_FROM_STEP @3 657 #
point $-1 -1 $-1 152.89172666112168 49.338864943538852 8.4982476784800007e-15 #
coedge $-1 -1 $-1 $447 $444 $451 $478 reversed $410 $-1 #
DXID-attrib $-1 -1 $-1 $445 $408 @18 ASM_EDGE_FROM_STEP @3 662 #
truecolor-adesk-attrib $-1 -1 $492 $-1 $448 -1056964608 #
vertex $-1 -1 $-1 $464 $493 #
straight-curve $-1 -1 $-1 161.29172666149168 79.338864943538852 -1.6996495357e-14 1 0 0 F -8.4000000003699995 F 8.4000000003999986 #
edge $494 -1 $-1 $458 1.5707963267948961 $490 3.1415926535897936 $451 $495 forward @7 unknown #
edge $496 -1 $-1 $490 -3.1415926535897927 $466 -1.5707963267948966 $452 $497 forward @7 unknown #
truecolor-adesk-attrib $-1 -1 $498 $-1 $456 -1056964608 #
ellipse-curve $-1 -1 $-1 169.69172666149169 64.338864943538852 0 -1 0 0 0 15 0 1 F 0 F 1.5707963267948961 #
DXID-attrib $-1 -1 $-1 $457 $424 @18 ASM_EDGE_FROM_STEP @3 701 #
point $-1 -1 $-1 169.69172666149169 64.338864943538866 -15 #
DXID-attrib $-1 -1 $-1 $461 $430 @18 ASM_FACE_FROM_STEP @13 stp-1M-47-773 #
truecolor-adesk-attrib $-1 -1 $499 $-1 $464 -1056964608 #
ellipse-curve $-1 -1 $-1 169.69172666149169 64.338864943538852 0 -1 0 0 0 15 0 1 F -1.5707963267948966 F 0 #
DXID-attrib $-1 -1 $-1 $465 $433 @18 ASM_EDGE_FROM_STEP @3 682 #
point $-1 -1 $-1 169.69172666149169 64.338864943538852 15 #
truecolor-adesk-attrib $-1 -1 $500 $-1 $470 -1056964608 #
vertex $-1 -1 $-1 $478 $501 #
straight-curve $-1 -1 $-1 161.29172666149168 49.338864943538852 8.4982476784800007e-15 1 0 0 F -8.4000000003699995 F 8.4000000003999986 #
DXID-attrib $-1 -1 $-1 $475 $448 @18 ASM_EDGE_FROM_STEP @3 745 #
point $-1 -1 $-1 169.69172666189166 79.338864943538852 0 #
truecolor-adesk-attrib $-1 -1 $502 $-1 $478 -1056964608 #
ellipse-curve $-1 -1 $-1 169.69172666149169 64.338864943538852 0 -1 0 0 0 15 0 1 F 1.5707963267948961 F 3.1415926535897936 #
truecolor-adesk-attrib $-1 -1 $503 $-1 $479 -1056964608 #
ellipse-curve $-1 -1 $-1 169.69172666149169 64.338864943538852 0 -1 0 0 0 15 0 1 F -3.1415926535897927 F -1.5707963267948966 #
DXID-attrib $-1 -1 $-1 $480 $456 @18 ASM_EDGE_FROM_STEP @3 696 #
DXID-attrib $-1 -1 $-1 $485 $464 @18 ASM_EDGE_FROM_STEP @3 689 #
DXID-attrib $-1 -1 $-1 $489 $470 @18 ASM_EDGE_FROM_STEP @3 750 #
point $-1 -1 $-1 169.69172666189166 49.338864943538852 8.4982476784800007e-15 #
DXID-attrib $-1 -1 $-1 $494 $478 @18 ASM_EDGE_FROM_STEP @3 722 #
DXID-attrib $-1 -1 $-1 $496 $479 @18 ASM_EDGE_FROM_STEP @3 727 #
