700 194 1 0         
5 ZWCAD 12 ACIS 28.0 NT 24 Mon May 13 14:18:16 2024 
1 9.9999999999999995e-07 1e-10 
body $1 -1 $-1 $2 $-1 $-1 #
DXID-attrib $-1 -1 $-1 $-1 $0 @18 ASM_BODY_FROM_STEP @83 DF47147D63FFA367E8E7EDBDC5B021273DF33987|:|8CB3CBCEBE3339AC3139F7812237AD39DB573F35 #
lump $-1 -1 $-1 $-1 $3 $0 #
shell $-1 -1 $-1 $-1 $-1 $4 $-1 $2 #
face $5 -1 $-1 $6 $7 $3 $-1 $8 reversed single #
color-adesk-attrib $-1 -1 $9 $-1 $4 250 #
face $10 -1 $-1 $11 $12 $3 $-1 $13 reversed single #
loop $-1 -1 $-1 $14 $15 $4 #
cone-surface $-1 -1 $-1 -184.58640083870006 260.56041546441929 195.98455480492572 0 0 0.99999999999999989 6.6527198453126442 -4.4431203742171448 0 1 I I 0 1 8.0000000000000107 forward I I I I #
fmesh-eye-attrib $-1 -1 $16 $5 $4 #
color-adesk-attrib $-1 -1 $17 $-1 $6 250 #
face $18 -1 $-1 $19 $20 $3 $-1 $21 reversed single #
loop $-1 -1 $-1 $22 $23 $6 #
cone-surface $-1 -1 $-1 -285.12280601072951 277.83011824706216 195.98455480492572 0 0 0.99999999999999989 -6.6527198453126477 4.4431203742171395 0 1 I I 0 1 8.0000000000000107 forward I I I I #
loop $-1 -1 $-1 $-1 $24 $4 #
coedge $-1 -1 $-1 $15 $15 $25 $26 reversed $7 $-1 #
DXID-attrib $-1 -1 $-1 $9 $4 @18 ASM_FACE_FROM_STEP @16 stp-2M-185-26658 #
fmesh-eye-attrib $-1 -1 $27 $10 $6 #
color-adesk-attrib $-1 -1 $28 $-1 $11 250 #
face $29 -1 $-1 $30 $31 $3 $-1 $32 forward single #
loop $-1 -1 $-1 $33 $34 $11 #
cone-surface $-1 -1 $-1 -252.51070405493437 317.04623299347281 195.98455480492572 0 0 0.99999999999999989 0.52149519348793705 7.9829845774102033 0 1 I I 0 1 8.0000000000000107 forward I I I I #
loop $-1 -1 $-1 $-1 $35 $6 #
coedge $-1 -1 $-1 $23 $23 $36 $37 reversed $12 $-1 #
coedge $-1 -1 $-1 $24 $24 $38 $39 reversed $14 $-1 #
coedge $-1 -1 $-1 $25 $25 $15 $26 forward $40 $-1 #
edge $41 -1 $-1 $42 -3.1415926535897949 $42 3.1415926535897913 $15 $43 forward @7 unknown #
DXID-attrib $-1 -1 $-1 $17 $6 @18 ASM_FACE_FROM_STEP @16 stp-2M-185-26659 #
fmesh-eye-attrib $-1 -1 $44 $18 $11 #
color-adesk-attrib $-1 -1 $45 $-1 $19 250 #
face $46 -1 $-1 $47 $48 $3 $-1 $49 forward single #
loop $-1 -1 $-1 $50 $51 $19 #
cone-surface $-1 -1 $-1 -234.85460342471475 269.19526685574078 170.98455480492572 0 0 0.99999999999999989 76.226034787256125 37.611057158926265 0 1 I I 0 1 85 forward I I I I #
loop $-1 -1 $-1 $-1 $52 $11 #
coedge $-1 -1 $-1 $34 $34 $53 $54 reversed $20 $-1 #
coedge $-1 -1 $-1 $35 $35 $55 $56 reversed $22 $-1 #
coedge $-1 -1 $-1 $36 $36 $23 $37 forward $57 $-1 #
edge $58 -1 $-1 $59 -3.141592653589794 $59 3.1415926535897922 $23 $60 forward @7 unknown #
coedge $-1 -1 $-1 $38 $38 $24 $39 forward $61 $-1 #
edge $62 -1 $-1 $63 -3.1415926535897913 $63 3.1415926535897949 $24 $64 forward @7 unknown #
loop $-1 -1 $-1 $57 $25 $30 #
color-adesk-attrib $-1 -1 $65 $-1 $26 250 #
vertex $-1 -1 $-1 $26 $66 #
ellipse-curve $-1 -1 $-1 -184.58640083870006 260.56041546441929 195.98455480492572 0 0 -0.99999999999999989 6.6527198453126442 -4.4431203742171448 0 1 I I #
DXID-attrib $-1 -1 $-1 $28 $11 @18 ASM_FACE_FROM_STEP @16 stp-2M-185-26660 #
fmesh-eye-attrib $-1 -1 $67 $29 $19 #
color-adesk-attrib $-1 -1 $68 $-1 $30 250 #
face $69 -1 $-1 $70 $71 $3 $-1 $72 reversed single #
loop $-1 -1 $-1 $40 $73 $30 #
plane-surface $-1 -1 $-1 -234.85460342471475 269.19526685574078 195.98455480492572 0 0 0.99999999999999989 -0.89677687985007204 -0.44248302539913253 0 forward_v I I I I #
loop $-1 -1 $-1 $-1 $74 $19 #
coedge $-1 -1 $-1 $51 $51 $73 $75 reversed $31 $-1 #
coedge $-1 -1 $-1 $52 $52 $76 $77 reversed $33 $-1 #
coedge $-1 -1 $-1 $53 $53 $34 $54 forward $78 $-1 #
edge $79 -1 $-1 $80 -3.1415926535897918 $80 3.1415926535897944 $34 $81 forward @7 unknown #
coedge $-1 -1 $-1 $55 $55 $35 $56 forward $82 $-1 #
edge $83 -1 $-1 $84 -3.1415926535897922 $84 3.141592653589794 $35 $85 forward @7 unknown #
loop $-1 -1 $-1 $78 $36 $30 #
color-adesk-attrib $-1 -1 $86 $-1 $37 250 #
vertex $-1 -1 $-1 $37 $87 #
ellipse-curve $-1 -1 $-1 -285.12280601072951 277.83011824706216 195.98455480492572 0 0 -0.99999999999999989 -6.6527198453126477 4.4431203742171395 0 1 I I #
loop $-1 -1 $-1 $82 $38 $47 #
color-adesk-attrib $-1 -1 $88 $-1 $39 250 #
vertex $-1 -1 $-1 $39 $89 #
ellipse-curve $-1 -1 $-1 -184.58640083870006 260.56041546441929 145.98455480492572 0 0 0.99999999999999989 6.6527198453126442 -4.4431203742171448 0 1 I I #
DXID-attrib $-1 -1 $-1 $41 $26 @18 ASM_EDGE_FROM_STEP @5 14938 #
point $-1 -1 $-1 -191.23912068401268 265.00353583863642 195.98455480492572 #
DXID-attrib $-1 -1 $-1 $45 $19 @18 ASM_FACE_FROM_STEP @16 stp-2M-185-26661 #
fmesh-eye-attrib $-1 -1 $90 $46 $30 #
color-adesk-attrib $-1 -1 $91 $-1 $47 250 #
face $92 -1 $-1 $93 $94 $3 $-1 $95 reversed single #
loop $-1 -1 $-1 $61 $96 $47 #
plane-surface $-1 -1 $-1 -234.85460342471475 269.19526685574078 145.98455480492572 0 0 0.99999999999999989 -0.89677687985007204 -0.44248302539913253 0 forward_v I I I I #
coedge $-1 -1 $-1 $73 $73 $51 $75 forward $48 $-1 #
coedge $-1 -1 $-1 $74 $74 $97 $98 forward $50 $-1 #
edge $99 -1 $-1 $100 -1.9634954084936203 $100 4.319689898685966 $51 $101 forward @7 unknown #
coedge $-1 -1 $-1 $76 $76 $52 $77 forward $102 $-1 #
edge $103 -1 $-1 $104 -3.141592653589794 $104 3.1415926535897922 $52 $105 forward @7 unknown #
loop $-1 -1 $-1 $106 $53 $30 #
color-adesk-attrib $-1 -1 $107 $-1 $54 250 #
vertex $-1 -1 $-1 $54 $108 #
ellipse-curve $-1 -1 $-1 -252.51070405493437 317.04623299347281 195.98455480492572 0 0 -0.99999999999999989 0.52149519348793705 7.9829845774102033 0 1 I I #
loop $-1 -1 $-1 $102 $55 $47 #
color-adesk-attrib $-1 -1 $109 $-1 $56 250 #
vertex $-1 -1 $-1 $56 $110 #
ellipse-curve $-1 -1 $-1 -285.12280601072951 277.83011824706216 145.98455480492572 0 0 0.99999999999999989 -6.6527198453126477 4.4431203742171395 0 1 I I #
DXID-attrib $-1 -1 $-1 $58 $37 @18 ASM_EDGE_FROM_STEP @5 14940 #
point $-1 -1 $-1 -278.47008616541689 273.38699787284509 195.98455480492572 #
DXID-attrib $-1 -1 $-1 $62 $39 @18 ASM_EDGE_FROM_STEP @5 14939 #
point $-1 -1 $-1 -191.23912068401268 265.00353583863642 145.98455480492572 #
DXID-attrib $-1 -1 $-1 $68 $30 @18 ASM_FACE_FROM_STEP @16 stp-2M-185-26662 #
fmesh-eye-attrib $-1 -1 $111 $69 $47 #
color-adesk-attrib $-1 -1 $112 $-1 $70 250 #
face $113 -1 $-1 $114 $115 $3 $-1 $116 forward single #
loop $-1 -1 $-1 $117 $118 $70 #
cone-surface $-1 -1 $-1 -202.24250146891967 308.41138160215144 195.98455480492572 0 0 0.99999999999999989 7.1742150388005861 3.5398642031930652 0 1 I I 0 1 8.0000000000000107 forward I I I I #
coedge $-1 -1 $-1 $96 $96 $119 $120 forward $71 $-1 #
coedge $-1 -1 $-1 $97 $97 $74 $98 reversed $121 $-1 #
edge $122 -1 $-1 $123 0.16580627893946123 $123 6.4489915861190479 $74 $124 forward @7 unknown #
color-adesk-attrib $-1 -1 $125 $-1 $75 250 #
vertex $-1 -1 $-1 $75 $126 #
ellipse-curve $-1 -1 $-1 -234.85460342471475 269.19526685574078 195.98455480492572 0 0 0.99999999999999989 76.226034787256125 37.611057158926265 0 1 I I #
loop $-1 -1 $-1 $127 $76 $47 #
color-adesk-attrib $-1 -1 $128 $-1 $77 250 #
vertex $-1 -1 $-1 $77 $129 #
ellipse-curve $-1 -1 $-1 -252.51070405493437 317.04623299347281 145.98455480492572 0 0 0.99999999999999989 0.52149519348793705 7.9829845774102033 0 1 I I #
loop $-1 -1 $-1 $130 $131 $30 #
DXID-attrib $-1 -1 $-1 $79 $54 @18 ASM_EDGE_FROM_STEP @5 14942 #
point $-1 -1 $-1 -253.03219924842233 309.06324841606261 195.98455480492572 #
DXID-attrib $-1 -1 $-1 $83 $56 @18 ASM_EDGE_FROM_STEP @5 14941 #
point $-1 -1 $-1 -278.47008616541689 273.38699787284509 145.98455480492572 #
DXID-attrib $-1 -1 $-1 $91 $47 @18 ASM_FACE_FROM_STEP @16 stp-2M-185-26663 #
fmesh-eye-attrib $-1 -1 $132 $92 $70 #
color-adesk-attrib $-1 -1 $133 $-1 $93 250 #
face $134 -1 $-1 $135 $121 $3 $-1 $136 reversed single #
loop $-1 -1 $-1 $137 $138 $93 #
cone-surface $-1 -1 $-1 -234.85460342471475 269.19526685574078 170.98455480492572 0 0 0.99999999999999989 76.226034787256125 37.611057158926265 0 1 I I 0 1 85 forward I I I I #
loop $-1 -1 $-1 $-1 $139 $70 #
coedge $-1 -1 $-1 $118 $118 $131 $140 reversed $94 $-1 #
coedge $-1 -1 $-1 $119 $119 $96 $120 reversed $137 $-1 #
edge $141 -1 $-1 $142 1.9634954084936203 $142 8.2466807156732074 $96 $143 forward @7 unknown #
loop $-1 -1 $-1 $144 $97 $114 #
color-adesk-attrib $-1 -1 $145 $-1 $98 250 #
vertex $-1 -1 $-1 $98 $146 #
ellipse-curve $-1 -1 $-1 -234.85460342471475 269.19526685574078 190.48455480492572 0 0 0.99999999999999989 76.226034787256125 37.611057158926265 0 1 I I #
DXID-attrib $-1 -1 $-1 $99 $75 @18 ASM_EDGE_FROM_STEP @5 14944 #
point $-1 -1 $-1 -229.27695814743856 184.37846502284401 195.98455480492572 #
loop $-1 -1 $-1 $147 $148 $47 #
DXID-attrib $-1 -1 $-1 $103 $77 @18 ASM_EDGE_FROM_STEP @5 14943 #
point $-1 -1 $-1 -253.03219924842233 309.06324841606261 145.98455480492572 #
loop $-1 -1 $-1 $-1 $149 $30 #
coedge $-1 -1 $-1 $131 $131 $118 $140 forward $106 $-1 #
DXID-attrib $-1 -1 $-1 $112 $70 @18 ASM_FACE_FROM_STEP @16 stp-2M-185-26664 #
fmesh-eye-attrib $-1 -1 $150 $113 $93 #
color-adesk-attrib $-1 -1 $151 $-1 $114 250 #
face $152 -1 $-1 $-1 $153 $3 $-1 $154 reversed single #
torus-surface $-1 -1 $-1 -234.85460342471475 269.19526685574078 170.98455480492572 0 0 -0.99999999999999989 85 19.5 0.89677687985007204 0.44248302539913253 0 forward_v I I I I #
loop $-1 -1 $-1 $-1 $119 $93 #
coedge $-1 -1 $-1 $138 $138 $155 $156 forward $115 $-1 #
coedge $-1 -1 $-1 $139 $139 $148 $157 reversed $117 $-1 #
edge $158 -1 $-1 $159 -3.1415926535897931 $159 3.1415926535897931 $131 $160 forward @7 unknown #
color-adesk-attrib $-1 -1 $161 $-1 $120 250 #
vertex $-1 -1 $-1 $120 $162 #
ellipse-curve $-1 -1 $-1 -234.85460342471475 269.19526685574078 145.98455480492572 0 0 -0.99999999999999989 76.226034787256125 37.611057158926265 0 1 I I #
loop $-1 -1 $-1 $-1 $155 $114 #
DXID-attrib $-1 -1 $-1 $122 $98 @18 ASM_EDGE_FROM_STEP @5 14945 #
point $-1 -1 $-1 -165.88157778973778 318.87143553607291 190.48455480492572 #
loop $-1 -1 $-1 $-1 $163 $47 #
coedge $-1 -1 $-1 $148 $148 $139 $157 forward $127 $-1 #
coedge $-1 -1 $-1 $149 $149 $164 $165 reversed $130 $-1 #
DXID-attrib $-1 -1 $-1 $133 $93 @18 ASM_FACE_FROM_STEP @16 stp-2M-185-26665 #
fmesh-eye-attrib $-1 -1 $166 $134 $114 #
color-adesk-attrib $-1 -1 $167 $-1 $135 250 #
loop $-1 -1 $-1 $168 $164 $135 #
cone-surface $-1 -1 $-1 -234.85460342471475 269.19526685574078 145.98455480492572 0 0 -0.99999999999999989 -7.1742150388005763 -3.5398642031930603 0 1 I I 0 1 8 forward I I I I #
coedge $-1 -1 $-1 $155 $155 $138 $156 reversed $144 $-1 #
edge $169 -1 $-1 $170 -0.16580627893946123 $170 6.1173790282401246 $138 $171 forward @7 unknown #
edge $172 -1 $-1 $173 -3.1415926535897931 $173 3.1415926535897931 $148 $174 forward @7 unknown #
color-adesk-attrib $-1 -1 $175 $-1 $140 250 #
vertex $-1 -1 $-1 $140 $176 #
ellipse-curve $-1 -1 $-1 -202.24250146891967 308.41138160215144 195.98455480492572 0 0 -0.99999999999999989 7.1742150388005861 3.5398642031930652 0 1 I I #
DXID-attrib $-1 -1 $-1 $141 $120 @18 ASM_EDGE_FROM_STEP @5 14948 #
point $-1 -1 $-1 -229.27695814743856 184.37846502284401 145.98455480492572 #
coedge $-1 -1 $-1 $163 $163 $177 $178 forward $147 $-1 #
coedge $-1 -1 $-1 $164 $164 $149 $165 forward $153 $-1 #
edge $179 -1 $-1 $180 -2.9757863746503319 $180 3.3073989325292543 $149 $181 forward @7 unknown #
DXID-attrib $-1 -1 $-1 $151 $114 @18 ASM_FACE_FROM_STEP @16 stp-2M-185-26666 #
fmesh-eye-attrib $-1 -1 $182 $152 $135 #
loop $-1 -1 $-1 $-1 $177 $135 #
color-adesk-attrib $-1 -1 $183 $-1 $156 250 #
vertex $-1 -1 $-1 $156 $184 #
ellipse-curve $-1 -1 $-1 -234.85460342471475 269.19526685574078 151.48455480492572 0 0 -0.99999999999999989 76.226034787256125 37.611057158926265 0 1 I I #
color-adesk-attrib $-1 -1 $185 $-1 $157 250 #
vertex $-1 -1 $-1 $157 $186 #
ellipse-curve $-1 -1 $-1 -202.24250146891967 308.41138160215144 145.98455480492572 0 0 0.99999999999999989 7.1742150388005861 3.5398642031930652 0 1 I I #
DXID-attrib $-1 -1 $-1 $158 $140 @18 ASM_EDGE_FROM_STEP @5 14946 #
point $-1 -1 $-1 -209.41671650772025 304.87151739895842 195.98455480492572 #
coedge $-1 -1 $-1 $177 $177 $163 $178 reversed $168 $-1 #
edge $187 -1 $-1 $188 -2.9757863746503319 $188 3.3073989325292543 $163 $189 forward @7 unknown #
color-adesk-attrib $-1 -1 $190 $-1 $165 250 #
vertex $-1 -1 $-1 $165 $191 #
ellipse-curve $-1 -1 $-1 -234.85460342471475 269.19526685574078 195.98455480492572 0 0 0.99999999999999989 -7.1742150388005763 -3.5398642031930603 0 1 I I #
DXID-attrib $-1 -1 $-1 $167 $135 @18 ASM_FACE_FROM_STEP @16 stp-2M-185-26667 #
DXID-attrib $-1 -1 $-1 $169 $156 @18 ASM_EDGE_FROM_STEP @5 14951 #
point $-1 -1 $-1 -165.88157778973778 318.87143553607291 151.48455480492572 #
DXID-attrib $-1 -1 $-1 $172 $157 @18 ASM_EDGE_FROM_STEP @5 14949 #
point $-1 -1 $-1 -209.41671650772025 304.87151739895842 145.98455480492572 #
color-adesk-attrib $-1 -1 $192 $-1 $178 250 #
vertex $-1 -1 $-1 $178 $193 #
ellipse-curve $-1 -1 $-1 -234.85460342471475 269.19526685574078 145.98455480492572 0 0 0.99999999999999989 -7.1742150388005763 -3.5398642031930603 0 1 I I #
DXID-attrib $-1 -1 $-1 $179 $165 @18 ASM_EDGE_FROM_STEP @5 14947 #
point $-1 -1 $-1 -228.36302454142282 273.87067096683086 195.98455480492572 #
DXID-attrib $-1 -1 $-1 $187 $178 @18 ASM_EDGE_FROM_STEP @5 14950 #
point $-1 -1 $-1 -228.36302454142282 273.87067096683086 145.98455480492572 #
