700 214 1 0         
5 ZWCAD 12 ACIS 28.0 NT 24 Sat May 11 15:38:32 2024 
1 9.9999999999999995e-07 1e-10 
body $1 -1 $-1 $2 $-1 $-1 #
DXID-attrib $-1 -1 $-1 $-1 $0 @18 ASM_BODY_FROM_STEP @83 EAB47BCBC10A20800EB6564D2D94921D18423580|:|8CB3CBCEBE3339AC3139F7812237AD39DB573F35 #
lump $-1 -1 $-1 $-1 $3 $0 #
shell $-1 -1 $-1 $-1 $-1 $4 $-1 $2 #
face $5 -1 $-1 $6 $7 $3 $-1 $8 forward single #
fmesh-eye-attrib $-1 -1 $9 $-1 $4 #
face $10 -1 $-1 $11 $12 $3 $-1 $13 reversed single #
loop $-1 -1 $-1 $14 $15 $4 #
cone-surface $-1 -1 $-1 -632.43003598591838 -288.33056360023556 20.000000000000007 -9.4941075965749281e-16 -1 0 0 0 5.9999999999999911 1 I I 0 1 5.9999999999999911 forward I I I I #
truecolor-adesk-attrib $-1 -1 $16 $5 $4 -1036992620 #
fmesh-eye-attrib $-1 -1 $17 $-1 $6 #
face $18 -1 $-1 $19 $20 $3 $-1 $21 forward single #
loop $-1 -1 $-1 $22 $23 $6 #
plane-surface $-1 -1 $-1 -632.43003598591827 -91.330563600235564 20.000000000000007 -9.4941075965749281e-16 -1 0 0 0 1 forward_v I I I I #
loop $-1 -1 $-1 $-1 $24 $4 #
coedge $-1 -1 $-1 $15 $15 $25 $26 forward $7 $-1 #
color-adesk-attrib $-1 -1 $27 $9 $4 135 #
truecolor-adesk-attrib $-1 -1 $28 $10 $6 -1028476238 #
fmesh-eye-attrib $-1 -1 $29 $-1 $11 #
face $30 -1 $-1 $31 $32 $3 $-1 $33 forward single #
loop $-1 -1 $-1 $-1 $34 $11 #
plane-surface $-1 -1 $-1 -632.43003598591815 -83.330563600235564 24.999999999999986 9.4941075965749281e-16 1 1.2216362506878901e-17 1.1598346007907211e-32 1.2216362506878901e-17 -1 forward_v I I I I #
loop $-1 -1 $-1 $-1 $35 $6 #
coedge $-1 -1 $-1 $23 $23 $24 $36 reversed $12 $-1 #
coedge $-1 -1 $-1 $24 $24 $23 $36 forward $14 $-1 #
coedge $-1 -1 $-1 $25 $25 $15 $26 reversed $37 $-1 #
edge $38 -1 $-1 $39 0 $39 6.2831853071795862 $15 $40 forward @7 unknown #
DXID-attrib $-1 -1 $-1 $16 $4 @18 ASM_FACE_FROM_STEP @14 stp-1M-55-9515 #
color-adesk-attrib $-1 -1 $41 $17 $6 253 #
truecolor-adesk-attrib $-1 -1 $42 $18 $11 -1028476238 #
fmesh-eye-attrib $-1 -1 $43 $-1 $19 #
face $44 -1 $-1 $45 $46 $3 $-1 $47 forward single #
loop $-1 -1 $-1 $48 $49 $19 #
cone-surface $-1 -1 $-1 -632.43003598591827 -91.330563600235564 20.000000000000007 -9.4941075965749281e-16 -1 -1.2216362506878899e-17 -5.7991730039535812e-32 -6.1081812534394254e-17 4.9999999999999805 1 I I 0 1 4.9999999999999805 forward I I I I #
coedge $-1 -1 $-1 $34 $34 $50 $51 forward $20 $-1 #
coedge $-1 -1 $-1 $35 $35 $52 $53 forward $22 $-1 #
edge $54 -1 $-1 $55 0 $55 6.2831853071795862 $24 $56 forward @7 unknown #
loop $-1 -1 $-1 $-1 $25 $45 #
truecolor-adesk-attrib $-1 -1 $57 $-1 $26 -1028476238 #
vertex $-1 -1 $-1 $26 $58 #
ellipse-curve $-1 -1 $-1 -632.43003598591827 -157.33056360023556 20.000000000000007 9.4941075965749281e-16 1 1.2216362506878899e-17 6.9590076047443147e-32 7.3298175041273287e-17 -5.9999999999999911 1 I I #
DXID-attrib $-1 -1 $-1 $28 $6 @18 ASM_FACE_FROM_STEP @14 stp-1M-55-9516 #
color-adesk-attrib $-1 -1 $59 $29 $11 253 #
truecolor-adesk-attrib $-1 -1 $60 $30 $19 -1028476238 #
fmesh-eye-attrib $-1 -1 $61 $-1 $31 #
face $62 -1 $-1 $63 $64 $3 $-1 $65 forward single #
loop $-1 -1 $-1 $66 $67 $31 #
cone-surface $-1 -1 $-1 -632.43003598591827 -91.330563600235564 20.000000000000007 -9.4941075965749281e-16 -1 -1.2216362506878899e-17 -7.3649497150210909e-32 -7.7573901918681148e-17 6.3500000000000112 1 I I 0 1 6.3500000000000112 forward I I I I #
loop $-1 -1 $-1 $-1 $52 $19 #
coedge $-1 -1 $-1 $49 $49 $68 $69 forward $32 $-1 #
coedge $-1 -1 $-1 $50 $50 $34 $51 reversed $70 $-1 #
edge $71 -1 $-1 $72 0 $72 6.2831853071795862 $34 $73 forward @7 unknown #
coedge $-1 -1 $-1 $52 $52 $35 $53 reversed $48 $-1 #
edge $74 -1 $-1 $75 0 $75 6.2831853071795862 $35 $76 forward @7 unknown #
truecolor-adesk-attrib $-1 -1 $77 $-1 $36 -1028476238 #
vertex $-1 -1 $-1 $36 $78 #
ellipse-curve $-1 -1 $-1 -632.43003598591827 -91.330563600235564 20.000000000000007 -9.4941075965749281e-16 -1 0 0 0 5.9999999999999911 1 I I #
color-adesk-attrib $-1 -1 $79 $38 $26 253 #
point $-1 -1 $-1 -632.43003598591827 -157.33056360023556 14.000000000000016 #
DXID-attrib $-1 -1 $-1 $42 $11 @18 ASM_FACE_FROM_STEP @14 stp-1M-55-9517 #
color-adesk-attrib $-1 -1 $80 $43 $19 253 #
truecolor-adesk-attrib $-1 -1 $81 $44 $31 -1028476238 #
fmesh-eye-attrib $-1 -1 $82 $-1 $45 #
face $83 -1 $-1 $84 $85 $3 $-1 $86 forward single #
loop $-1 -1 $-1 $37 $87 $45 #
plane-surface $-1 -1 $-1 -632.43003598591827 -157.33056360023556 26.350000000000019 9.4941075965749281e-16 1 1.2216362506878901e-17 1.1598346007907211e-32 1.2216362506878901e-17 -1 forward_v I I I I #
loop $-1 -1 $-1 $-1 $88 $31 #
coedge $-1 -1 $-1 $67 $67 $87 $89 forward $46 $-1 #
coedge $-1 -1 $-1 $68 $68 $49 $69 reversed $90 $-1 #
edge $91 -1 $-1 $92 -6.2831853071795862 $92 0 $49 $93 reversed @7 unknown #
loop $-1 -1 $-1 $90 $50 $94 #
truecolor-adesk-attrib $-1 -1 $95 $-1 $51 -1028476238 #
vertex $-1 -1 $-1 $51 $96 #
ellipse-curve $-1 -1 $-1 -632.43003598591815 -83.330563600235564 20.000000000000007 9.4941075965749281e-16 1 1.2216362506878902e-17 5.2192557035582221e-32 5.4973631280954812e-17 -4.4999999999999796 1 I I #
truecolor-adesk-attrib $-1 -1 $97 $-1 $53 -1028476238 #
vertex $-1 -1 $-1 $53 $98 #
ellipse-curve $-1 -1 $-1 -632.43003598591827 -91.330563600235564 20.000000000000007 -9.4941075965749281e-16 -1 -1.2216362506878899e-17 -5.7991730039535812e-32 -6.1081812534394254e-17 4.9999999999999805 1 I I #
color-adesk-attrib $-1 -1 $99 $54 $36 253 #
point $-1 -1 $-1 -632.43003598591827 -91.330563600235564 26 #
DXID-attrib $-1 -1 $-1 $57 $26 @18 ASM_EDGE_FROM_STEP @4 5040 #
DXID-attrib $-1 -1 $-1 $60 $19 @18 ASM_FACE_FROM_STEP @14 stp-1M-55-9518 #
color-adesk-attrib $-1 -1 $100 $61 $31 253 #
truecolor-adesk-attrib $-1 -1 $101 $62 $45 -1028476238 #
fmesh-eye-attrib $-1 -1 $102 $-1 $63 #
face $103 -1 $-1 $104 $105 $3 $-1 $106 forward single #
loop $-1 -1 $-1 $107 $108 $63 #
plane-surface $-1 -1 $-1 -632.43003598591827 -167.33056360023556 20.000000000000014 -9.4941075965749281e-16 -1 -1.2216362506878901e-17 -1.1598346007907211e-32 -1.2216362506878901e-17 1 forward_v I I I I #
coedge $-1 -1 $-1 $87 $87 $67 $89 reversed $64 $-1 #
coedge $-1 -1 $-1 $88 $88 $108 $109 reversed $66 $-1 #
edge $110 -1 $-1 $111 0 $111 6.2831853071795862 $67 $112 forward @7 unknown #
loop $-1 -1 $-1 $-1 $68 $94 #
truecolor-adesk-attrib $-1 -1 $113 $-1 $69 -1028476238 #
vertex $-1 -1 $-1 $69 $114 #
ellipse-curve $-1 -1 $-1 -632.43003598591815 -83.830563600235564 20.000000000000007 9.4941075965749281e-16 1 1.2216362506878899e-17 5.7991730039535812e-32 6.1081812534394254e-17 -4.9999999999999805 1 I I #
face $115 -1 $-1 $-1 $70 $3 $-1 $116 forward single #
color-adesk-attrib $-1 -1 $117 $71 $51 253 #
point $-1 -1 $-1 -632.43003598591815 -83.330563600235564 15.500000000000028 #
color-adesk-attrib $-1 -1 $118 $74 $53 253 #
point $-1 -1 $-1 -632.43003598591827 -91.330563600235564 24.999999999999986 #
DXID-attrib $-1 -1 $-1 $77 $36 @18 ASM_EDGE_FROM_STEP @4 5041 #
DXID-attrib $-1 -1 $-1 $81 $31 @18 ASM_FACE_FROM_STEP @14 stp-1M-55-9519 #
color-adesk-attrib $-1 -1 $119 $82 $45 253 #
truecolor-adesk-attrib $-1 -1 $120 $83 $63 -1028476238 #
fmesh-eye-attrib $-1 -1 $121 $-1 $84 #
face $122 -1 $-1 $123 $124 $3 $-1 $125 forward single #
loop $-1 -1 $-1 $-1 $126 $84 #
plane-surface $-1 -1 $-1 -632.43003598591838 -323.33056360023556 19.999999999999996 -9.4941075965749281e-16 -1 -1.2216362506878901e-17 -1.1598346007907211e-32 -1.2216362506878901e-17 1 forward_v I I I I #
loop $-1 -1 $-1 $-1 $127 $63 #
coedge $-1 -1 $-1 $108 $108 $88 $109 forward $85 $-1 #
edge $128 -1 $-1 $129 0 $129 6.2831853071795862 $88 $130 forward @7 unknown #
truecolor-adesk-attrib $-1 -1 $131 $-1 $89 -1028476238 #
vertex $-1 -1 $-1 $89 $132 #
ellipse-curve $-1 -1 $-1 -632.43003598591827 -157.33056360023556 20.000000000000007 -9.4941075965749281e-16 -1 -1.2216362506878899e-17 -7.3649497150210909e-32 -7.7573901918681148e-17 6.3500000000000112 1 I I #
color-adesk-attrib $-1 -1 $133 $91 $69 253 #
point $-1 -1 $-1 -632.43003598591815 -83.830563600235564 15.000000000000027 #
fmesh-eye-attrib $-1 -1 $134 $-1 $94 #
cone-surface $-1 -1 $-1 -632.43003598591815 -83.830563600235564 20.000000000000007 -9.4941075965749281e-16 -1 -1.2216362506878899e-17 -5.7991730039535812e-32 -6.1081812534394254e-17 4.9999999999999805 1 I I 0.70710678118654802 0.70710678118654713 4.9999999999999805 forward I I I I #
DXID-attrib $-1 -1 $-1 $95 $51 @18 ASM_EDGE_FROM_STEP @4 5043 #
DXID-attrib $-1 -1 $-1 $97 $53 @18 ASM_EDGE_FROM_STEP @4 5042 #
DXID-attrib $-1 -1 $-1 $101 $45 @18 ASM_FACE_FROM_STEP @14 stp-1M-55-9520 #
color-adesk-attrib $-1 -1 $135 $102 $63 253 #
truecolor-adesk-attrib $-1 -1 $136 $103 $84 -1028476238 #
fmesh-eye-attrib $-1 -1 $137 $-1 $104 #
face $138 -1 $-1 $139 $140 $3 $-1 $141 reversed single #
loop $-1 -1 $-1 $142 $143 $104 #
cone-surface $-1 -1 $-1 -632.43003598591827 -91.330563600235564 20.000000000000007 -9.4941075965749281e-16 -1 -1.2216362506878905e-17 -5.7991730039535954e-32 -6.1081812534394402e-17 4.9999999999999902 1 I I 0 1 4.9999999999999902 forward I I I I #
coedge $-1 -1 $-1 $126 $126 $144 $145 forward $105 $-1 #
coedge $-1 -1 $-1 $127 $127 $146 $147 reversed $107 $-1 #
truecolor-adesk-attrib $-1 -1 $148 $-1 $109 -1028476238 #
vertex $-1 -1 $-1 $109 $149 #
ellipse-curve $-1 -1 $-1 -632.43003598591827 -167.33056360023556 20.000000000000007 -9.4941075965749281e-16 -1 -1.2216362506878899e-17 -7.3649497150210909e-32 -7.7573901918681148e-17 6.3500000000000112 1 I I #
color-adesk-attrib $-1 -1 $150 $110 $89 253 #
point $-1 -1 $-1 -632.43003598591827 -157.33056360023556 26.350000000000019 #
DXID-attrib $-1 -1 $-1 $113 $69 @18 ASM_EDGE_FROM_STEP @4 5044 #
truecolor-adesk-attrib $-1 -1 $151 $115 $94 -1028476238 #
DXID-attrib $-1 -1 $-1 $120 $63 @18 ASM_FACE_FROM_STEP @14 stp-1M-55-9521 #
color-adesk-attrib $-1 -1 $152 $121 $84 253 #
truecolor-adesk-attrib $-1 -1 $153 $122 $104 -1028476238 #
fmesh-eye-attrib $-1 -1 $154 $-1 $123 #
face $155 -1 $-1 $156 $157 $3 $-1 $158 forward single #
loop $-1 -1 $-1 $159 $160 $123 #
plane-surface $-1 -1 $-1 -632.43003598591827 -233.33056360023556 26 9.4941075965749281e-16 1 0 0 0 -1 forward_v I I I I #
loop $-1 -1 $-1 $-1 $161 $104 #
coedge $-1 -1 $-1 $143 $143 $162 $163 forward $124 $-1 #
coedge $-1 -1 $-1 $144 $144 $126 $145 reversed $164 $-1 #
edge $165 -1 $-1 $166 0 $166 6.2831853071795862 $126 $167 forward @7 unknown #
coedge $-1 -1 $-1 $146 $146 $127 $147 forward $157 $-1 #
edge $168 -1 $-1 $169 0 $169 6.2831853071795862 $127 $170 forward @7 unknown #
color-adesk-attrib $-1 -1 $171 $128 $109 253 #
point $-1 -1 $-1 -632.43003598591827 -167.33056360023556 26.350000000000019 #
DXID-attrib $-1 -1 $-1 $131 $89 @18 ASM_EDGE_FROM_STEP @4 5045 #
color-adesk-attrib $-1 -1 $172 $134 $94 253 #
DXID-attrib $-1 -1 $-1 $136 $84 @18 ASM_FACE_FROM_STEP @14 stp-1M-55-9522 #
color-adesk-attrib $-1 -1 $173 $137 $104 253 #
truecolor-adesk-attrib $-1 -1 $174 $138 $123 -1028476238 #
fmesh-eye-attrib $-1 -1 $175 $-1 $139 #
face $176 -1 $-1 $94 $177 $3 $-1 $178 forward single #
loop $-1 -1 $-1 $179 $146 $139 #
cone-surface $-1 -1 $-1 -632.43003598591838 -288.33056360023556 20.000000000000007 -9.4941075965749281e-16 -1 0 0 0 5.9999999999999911 1 I I 0 1 5.9999999999999911 forward I I I I #
loop $-1 -1 $-1 $-1 $180 $123 #
coedge $-1 -1 $-1 $160 $160 $181 $182 forward $140 $-1 #
coedge $-1 -1 $-1 $161 $161 $180 $183 forward $142 $-1 #
coedge $-1 -1 $-1 $162 $162 $143 $163 reversed $177 $-1 #
edge $184 -1 $-1 $185 -6.2831853071795862 $185 0 $143 $186 reversed @7 unknown #
loop $-1 -1 $-1 $-1 $144 $156 #
truecolor-adesk-attrib $-1 -1 $187 $-1 $145 -1028476238 #
vertex $-1 -1 $-1 $145 $188 #
ellipse-curve $-1 -1 $-1 -632.43003598591838 -323.33056360023556 20.000000000000004 -9.4941075965749281e-16 -1 -1.2216362506878898e-17 -5.219255703558233e-32 -5.4973631280954929e-17 4.4999999999999911 1 I I #
truecolor-adesk-attrib $-1 -1 $189 $-1 $147 -1036992620 #
vertex $-1 -1 $-1 $147 $190 #
ellipse-curve $-1 -1 $-1 -632.43003598591827 -167.33056360023556 20.000000000000007 -9.4941075965749281e-16 -1 -1.2216362506878899e-17 -6.9590076047443147e-32 -7.3298175041273287e-17 5.9999999999999911 1 I I #
DXID-attrib $-1 -1 $-1 $148 $109 @18 ASM_EDGE_FROM_STEP @4 5046 #
DXID-attrib $-1 -1 $-1 $151 $94 @18 ASM_FACE_FROM_STEP @14 stp-1M-55-9527 #
DXID-attrib $-1 -1 $-1 $153 $104 @18 ASM_FACE_FROM_STEP @14 stp-1M-55-9523 #
color-adesk-attrib $-1 -1 $191 $154 $123 253 #
truecolor-adesk-attrib $-1 -1 $192 $155 $139 -1036992620 #
fmesh-eye-attrib $-1 -1 $193 $-1 $156 #
loop $-1 -1 $-1 $164 $162 $156 #
cone-surface $-1 -1 $-1 -632.43003598591838 -323.33056360023556 20.000000000000004 9.4941075965749281e-16 1 1.2216362506879297e-17 5.2192557035584038e-32 5.4973631280956728e-17 -4.4999999999999911 1 I I 0.70710678118654724 0.70710678118654779 4.4999999999999911 forward I I I I #
loop $-1 -1 $-1 $-1 $181 $139 #
coedge $-1 -1 $-1 $180 $180 $161 $183 reversed $159 $-1 #
coedge $-1 -1 $-1 $181 $181 $160 $182 reversed $179 $-1 #
edge $194 -1 $-1 $195 0 $195 6.2831853071795862 $160 $196 forward @7 unknown #
edge $197 -1 $-1 $198 0 $198 6.2831853071795862 $161 $199 forward @7 unknown #
truecolor-adesk-attrib $-1 -1 $200 $-1 $163 -1028476238 #
vertex $-1 -1 $-1 $163 $201 #
ellipse-curve $-1 -1 $-1 -632.43003598591838 -322.83056360023556 20.000000000000004 -9.4941075965749281e-16 -1 -1.22163625068793e-17 -5.7991730039537826e-32 -6.1081812534396374e-17 4.9999999999999902 1 I I #
color-adesk-attrib $-1 -1 $202 $165 $145 253 #
point $-1 -1 $-1 -632.43003598591838 -323.33056360023556 24.5 #
color-adesk-attrib $-1 -1 $203 $168 $147 135 #
point $-1 -1 $-1 -632.43003598591827 -167.33056360023556 26 #
DXID-attrib $-1 -1 $-1 $174 $123 @18 ASM_FACE_FROM_STEP @14 stp-1M-55-9524 #
color-adesk-attrib $-1 -1 $204 $175 $139 135 #
truecolor-adesk-attrib $-1 -1 $205 $176 $156 -1028476238 #
truecolor-adesk-attrib $-1 -1 $206 $-1 $182 -1036992620 #
vertex $-1 -1 $-1 $182 $207 #
ellipse-curve $-1 -1 $-1 -632.43003598591827 -233.33056360023556 20.000000000000007 -9.4941075965749281e-16 -1 0 0 0 5.9999999999999911 1 I I #
truecolor-adesk-attrib $-1 -1 $208 $-1 $183 -1028476238 #
vertex $-1 -1 $-1 $183 $209 #
ellipse-curve $-1 -1 $-1 -632.43003598591827 -233.33056360023556 20.000000000000007 -9.4941075965749281e-16 -1 -1.2216362506878899e-17 -5.7991730039535812e-32 -6.1081812534394254e-17 4.9999999999999805 1 I I #
color-adesk-attrib $-1 -1 $210 $184 $163 253 #
point $-1 -1 $-1 -632.43003598591838 -322.83056360023556 24.999999999999996 #
DXID-attrib $-1 -1 $-1 $187 $145 @18 ASM_EDGE_FROM_STEP @4 5048 #
DXID-attrib $-1 -1 $-1 $189 $147 @18 ASM_EDGE_FROM_STEP @4 5047 #
DXID-attrib $-1 -1 $-1 $192 $139 @18 ASM_FACE_FROM_STEP @14 stp-1M-55-9525 #
color-adesk-attrib $-1 -1 $211 $193 $156 253 #
color-adesk-attrib $-1 -1 $212 $194 $182 135 #
point $-1 -1 $-1 -632.43003598591827 -233.33056360023556 26 #
color-adesk-attrib $-1 -1 $213 $197 $183 253 #
point $-1 -1 $-1 -632.43003598591827 -233.33056360023556 24.999999999999986 #
DXID-attrib $-1 -1 $-1 $200 $163 @18 ASM_EDGE_FROM_STEP @4 5049 #
DXID-attrib $-1 -1 $-1 $205 $156 @18 ASM_FACE_FROM_STEP @14 stp-1M-55-9526 #
DXID-attrib $-1 -1 $-1 $206 $182 @18 ASM_EDGE_FROM_STEP @4 5051 #
DXID-attrib $-1 -1 $-1 $208 $183 @18 ASM_EDGE_FROM_STEP @4 5050 #
