700 89 1 0          
5 ZWCAD 12 ACIS 28.0 NT 24 Sat May 11 15:39:18 2024 
1 9.9999999999999995e-07 1e-10 
body $1 -1 $-1 $2 $-1 $-1 #
DXID-attrib $-1 -1 $-1 $-1 $0 @18 ASM_BODY_FROM_STEP @83 402C802FB02E354FAE262062489177305EBB4203|:|8CB3CBCEBE3339AC3139F7812237AD39DB573F35 #
lump $-1 -1 $-1 $-1 $3 $0 #
shell $-1 -1 $-1 $-1 $-1 $4 $-1 $2 #
face $5 -1 $-1 $6 $7 $3 $-1 $8 forward single #
color-adesk-attrib $-1 -1 $9 $-1 $4 250 #
face $10 -1 $-1 $11 $12 $3 $-1 $13 reversed single #
loop $-1 -1 $-1 $14 $15 $4 #
cone-surface $-1 -1 $-1 -375.7853079187301 -399.88033895325668 20.000000000000021 2.2115603298505009e-15 1 -1.0106430996148606e-15 10 -2.2115603298505005e-14 5.3021653106000297e-15 1 I I 0 1 10 forward I I I I #
fmesh-eye-attrib $-1 -1 $16 $5 $4 #
color-adesk-attrib $-1 -1 $17 $-1 $6 250 #
face $18 -1 $-1 $19 $20 $3 $-1 $21 reversed single #
loop $-1 -1 $-1 $22 $23 $6 #
plane-surface $-1 -1 $-1 -375.78530791873004 -379.88033895325668 10.000000000000002 -2.2115603298505009e-15 -1 1.0106430996148606e-15 -1 2.2115603298505005e-15 -5.3021653106000295e-16 forward_v I I I I #
loop $-1 -1 $-1 $24 $25 $4 #
coedge $-1 -1 $-1 $15 $15 $23 $26 reversed $7 $-1 #
DXID-attrib $-1 -1 $-1 $9 $4 @18 ASM_FACE_FROM_STEP @14 stp-1M-55-9913 #
fmesh-eye-attrib $-1 -1 $27 $10 $6 #
color-adesk-attrib $-1 -1 $28 $-1 $11 250 #
face $29 -1 $-1 $30 $31 $3 $-1 $32 reversed single #
loop $-1 -1 $-1 $33 $34 $11 #
cone-surface $-1 -1 $-1 -375.7853079187301 -399.88033895325668 20.000000000000021 2.2115603298505009e-15 1 -1.0106430996148606e-15 7.0000000000000009 -1.5480922308953507e-14 3.7115157174200209e-15 1 I I 0 1 7.0000000000000009 forward I I I I #
loop $-1 -1 $-1 $-1 $35 $6 #
coedge $-1 -1 $-1 $23 $23 $15 $26 forward $12 $-1 #
loop $-1 -1 $-1 $-1 $36 $4 #
coedge $-1 -1 $-1 $25 $25 $37 $38 forward $14 $-1 #
edge $39 -1 $-1 $40 0 $40 6.2831853071795862 $15 $41 forward @7 unknown #
DXID-attrib $-1 -1 $-1 $17 $6 @18 ASM_FACE_FROM_STEP @14 stp-1M-55-9914 #
fmesh-eye-attrib $-1 -1 $42 $18 $11 #
color-adesk-attrib $-1 -1 $43 $-1 $19 250 #
face $44 -1 $-1 $-1 $45 $3 $-1 $46 reversed single #
loop $-1 -1 $-1 $47 $48 $19 #
plane-surface $-1 -1 $-1 -375.7853079187301 -399.88033895325668 13.000000000000021 2.2115603298505009e-15 1 -1.0106430996148606e-15 1 -2.2115603298505005e-15 5.3021653106000295e-16 forward_v I I I I #
loop $-1 -1 $-1 $49 $50 $11 #
coedge $-1 -1 $-1 $34 $34 $51 $52 reversed $20 $-1 #
coedge $-1 -1 $-1 $35 $35 $53 $54 reversed $22 $-1 #
coedge $-1 -1 $-1 $36 $36 $48 $55 forward $24 $-1 #
coedge $-1 -1 $-1 $37 $37 $25 $38 reversed $56 $-1 #
edge $57 -1 $-1 $58 -1.6667211061348337 $58 0 $25 $59 forward @7 unknown #
color-adesk-attrib $-1 -1 $60 $-1 $26 250 #
vertex $-1 -1 $-1 $26 $61 #
ellipse-curve $-1 -1 $-1 -375.78530791873004 -379.88033895325668 20 2.2115603298505009e-15 1 -1.0106430996148606e-15 10 -2.2115603298505005e-14 5.3021653106000297e-15 1 I I #
DXID-attrib $-1 -1 $-1 $28 $11 @18 ASM_FACE_FROM_STEP @14 stp-1M-55-9915 #
fmesh-eye-attrib $-1 -1 $62 $29 $19 #
color-adesk-attrib $-1 -1 $63 $-1 $30 250 #
loop $-1 -1 $-1 $56 $64 $30 #
cone-surface $-1 -1 $-1 -375.7853079187301 -396.13033895325668 20.000000000000018 -5.9144887101736835e-16 1.010643099614862e-15 1 2.75 -6.0817909070888765e-15 1.6264843952977693e-15 1 I I 0 1 2.75 forward I I I I #
loop $-1 -1 $-1 $-1 $51 $19 #
coedge $-1 -1 $-1 $48 $48 $36 $55 reversed $31 $-1 #
loop $-1 -1 $-1 $-1 $53 $11 #
coedge $-1 -1 $-1 $50 $50 $64 $65 forward $33 $-1 #
coedge $-1 -1 $-1 $51 $51 $34 $52 forward $47 $-1 #
edge $66 -1 $-1 $67 0 $67 6.2831853071795862 $34 $68 forward @7 unknown #
coedge $-1 -1 $-1 $53 $53 $35 $54 forward $49 $-1 #
edge $69 -1 $-1 $70 0 $70 6.2831853071795862 $35 $71 forward @7 unknown #
edge $72 -1 $-1 $73 0 $73 6.2831853071795862 $36 $74 forward @7 unknown #
loop $-1 -1 $-1 $-1 $37 $30 #
color-adesk-attrib $-1 -1 $75 $-1 $38 250 #
vertex $-1 -1 $-1 $38 $76 #
intcurve-curve $-1 -1 $-1 reversed { surfintcur full nubs 3 periodic 17 
	0 3 0.10418087072244495 2 0.20836174144488989 2 0.31252100898929924 2 0.41668027653370854 2 
	0.52083954407811783 2 0.62499881162252713 2 0.72917968234497199 2 0.83336055306741685 2 0.93754142378986172 2 
	1.0417222945123066 2 1.145881562056716 2 1.2500408296011252 2 1.3542000971455344 2 1.4583593646899438 2 
	1.5625402354123887 2 1.6667211061348337 3 
	-373.0353079187301 -396.13033895325668 29.614442261514725 
	-373.0353079187301 -395.78306938418189 29.614442261514725 
	-373.10507769958991 -395.41395804001957 29.635221589527191 
	-373.38626092420714 -394.73699405806178 29.709052575888521 
	-373.59758512329529 -394.42897445216545 29.760908207043101 
	-374.08389299146779 -393.94266658399295 29.857313113365603 
	-374.39193335696177 -393.73130319193501 29.908299151541179 
	-375.0689718193936 -393.45009120935629 29.980117601092047 
	-375.43811036024874 -393.38033895325668 30.000000000000014 
	-376.13250547721145 -393.38033895325668 30.000000000000014 
	-376.5016440180666 -393.45009120935629 29.980117601092044 
	-377.17868248049837 -393.73130319193501 29.908299151541179 
	-377.48672284599235 -393.94266658399295 29.857313113365599 
	-377.97303071416491 -394.42897445216545 29.760908207043098 
	-378.18435491325306 -394.73699405806178 29.709052575888521 
	-378.46553813787028 -395.41395804001957 29.635221589527184 
	-378.5353079187301 -395.78306938418189 29.614442261514721 
	-378.5353079187301 -396.47760852233148 29.614442261514721 
	-378.46553813787028 -396.84671986649369 29.635221589527188 
	-378.18435491325306 -397.52368384845158 29.709052575888521 
	-377.97303071416491 -397.8317034543478 29.760908207043101 
	-377.48672284599235 -398.31801132252042 29.857313113365603 
	-377.17868248049842 -398.52937471457835 29.908299151541186 
	-376.5016440180666 -398.81058669715696 29.980117601092054 
	-376.13250547721145 -398.88033895325668 30.000000000000021 
	-375.43811036024874 -398.88033895325668 30.000000000000021 
	-375.0689718193936 -398.81058669715696 29.980117601092054 
	-374.39193335696177 -398.52937471457835 29.908299151541186 
	-374.08389299146785 -398.31801132252042 29.857313113365606 
	-373.59758512329529 -397.83170345434792 29.760908207043105 
	-373.38626092420714 -397.52368384845158 29.709052575888524 
	-373.10507769958991 -396.8467198664938 29.635221589527191 
	-373.0353079187301 -396.47760852233148 29.614442261514725 
	-373.0353079187301 -396.13033895325668 29.614442261514725 
	0.0018211134541218168 
	cone -375.7853079187301 -396.13033895325668 20.000000000000018 -5.9144887101736835e-16 1.010643099614862e-15 1 2.75 -6.0817909070888765e-15 1.6264843952977693e-15 1 I I 0 1 2.75 forward I I I I 
	cone -375.7853079187301 -399.88033895325668 20.000000000000021 2.2115603298505009e-15 1 -1.0106430996148606e-15 10 -2.2115603298505005e-14 5.3021653106000297e-15 1 I I 0 -1 10 forward I I I I 
	nullbs 
	nullbs 
	I I 
	0 
	0 
	0 
	} I I #
DXID-attrib $-1 -1 $-1 $39 $26 @18 ASM_EDGE_FROM_STEP @4 6034 #
point $-1 -1 $-1 -365.78530791873004 -379.88033895325668 20.000000000000007 #
DXID-attrib $-1 -1 $-1 $43 $19 @18 ASM_FACE_FROM_STEP @14 stp-1M-55-9916 #
fmesh-eye-attrib $-1 -1 $77 $44 $30 #
coedge $-1 -1 $-1 $64 $64 $50 $65 reversed $45 $-1 #
edge $78 -1 $-1 $79 0 $79 1.6772136374230215 $50 $80 forward @7 unknown #
color-adesk-attrib $-1 -1 $81 $-1 $52 250 #
vertex $-1 -1 $-1 $52 $82 #
ellipse-curve $-1 -1 $-1 -375.7853079187301 -399.88033895325668 20.000000000000021 2.2115603298505009e-15 1 -1.0106430996148606e-15 7.0000000000000009 -1.5480922308953507e-14 3.7115157174200209e-15 1 I I #
color-adesk-attrib $-1 -1 $83 $-1 $54 250 #
vertex $-1 -1 $-1 $54 $84 #
ellipse-curve $-1 -1 $-1 -375.78530791873004 -379.88033895325668 20 2.2115603298505009e-15 1 -1.0106430996148606e-15 7.0000000000000009 -1.5480922308953507e-14 3.7115157174200209e-15 1 I I #
color-adesk-attrib $-1 -1 $85 $-1 $55 250 #
vertex $-1 -1 $-1 $55 $86 #
ellipse-curve $-1 -1 $-1 -375.7853079187301 -399.88033895325668 20.000000000000021 2.2115603298505009e-15 1 -1.0106430996148606e-15 10 -2.2115603298505005e-14 5.3021653106000297e-15 1 I I #
DXID-attrib $-1 -1 $-1 $57 $38 @18 ASM_EDGE_FROM_STEP @4 6035 #
point $-1 -1 $-1 -373.0353079187301 -396.13033895325668 29.614442261514732 #
DXID-attrib $-1 -1 $-1 $63 $30 @18 ASM_FACE_FROM_STEP @14 stp-1M-55-9917 #
color-adesk-attrib $-1 -1 $87 $-1 $65 250 #
vertex $-1 -1 $-1 $65 $88 #
intcurve-curve $-1 -1 $-1 forward { surfintcur full nubs 3 periodic 17 
	0 3 0.104874917399749 2 0.20974983479949799 2 0.31452662207762672 2 0.41930340935575544 2 
	0.52408019663388405 2 0.62885698391201261 2 0.73373190131176158 2 0.83860681871151066 2 0.94348173611125974 2 
	1.0483566535110087 2 1.1531334407891374 2 1.257910228067266 2 1.3626870153453947 2 1.4674638026235234 2 
	1.5723387200232724 2 1.6772136374230215 3 
	-373.0353079187301 -396.13033895325668 26.437196594791885 
	-373.0353079187301 -395.78075589525747 26.437196594791885 
	-373.10594709127145 -395.41084195720953 26.468683939778217 
	-373.38766443598894 -394.73464630432647 26.578309094413232 
	-373.59858275952189 -394.42797681593891 26.654456364593763 
	-374.08271917526361 -393.94384040019713 26.794455763236751 
	-374.38947497474612 -393.73274990506616 26.867950673907952 
	-375.06600522572148 -393.45090119069221 26.971348485989015 
	-375.43605196113634 -393.38033895325668 27.000000000000014 
	-376.13456387632385 -393.38033895325668 27.000000000000014 
	-376.50461061173871 -393.45090119069221 26.971348485989015 
	-377.18114086271407 -393.73274990506616 26.867950673907949 
	-377.48789666219659 -393.94384040019713 26.794455763236748 
	-377.97203307793831 -394.42797681593891 26.654456364593763 
	-378.1829514014712 -394.73464630432647 26.578309094413232 
	-378.46466874618869 -395.41084195720953 26.468683939778217 
	-378.5353079187301 -395.78075589525747 26.437196594791882 
	-378.5353079187301 -396.47992201125578 26.437196594791885 
	-378.46466874618869 -396.84983594930384 26.468683939778217 
	-378.18295140147126 -397.52603160218689 26.578309094413232 
	-377.97203307793831 -397.83270109057446 26.654456364593763 
	-377.48789666219659 -398.31683750631623 26.794455763236755 
	-377.18114086271407 -398.52792800144721 26.867950673907956 
	-376.50461061173871 -398.80977671582116 26.971348485989022 
	-376.13456387632385 -398.88033895325668 27.000000000000021 
	-375.43605196113634 -398.88033895325668 27.000000000000021 
	-375.06600522572148 -398.80977671582116 26.971348485989022 
	-374.38947497474612 -398.52792800144721 26.867950673907956 
	-374.08271917526361 -398.31683750631623 26.794455763236755 
	-373.59858275952189 -397.83270109057446 26.654456364593766 
	-373.38766443598894 -397.52603160218689 26.578309094413235 
	-373.1059470912715 -396.84983594930384 26.46868393977822 
	-373.0353079187301 -396.47992201125589 26.437196594791885 
	-373.0353079187301 -396.13033895325668 26.437196594791885 
	0.0019211708994157056 
	cone -375.7853079187301 -396.13033895325668 20.000000000000018 -5.9144887101736835e-16 1.010643099614862e-15 1 2.75 -6.0817909070888765e-15 1.6264843952977693e-15 1 I I 0 1 2.75 forward I I I I 
	cone -375.7853079187301 -399.88033895325668 20.000000000000021 2.2115603298505009e-15 1 -1.0106430996148606e-15 7.0000000000000009 -1.5480922308953507e-14 3.7115157174200209e-15 1 I I 0 -1 7.0000000000000009 forward I I I I 
	nullbs 
	nullbs 
	I I 
	0 
	0 
	0 
	} I I #
DXID-attrib $-1 -1 $-1 $66 $52 @18 ASM_EDGE_FROM_STEP @4 6038 #
point $-1 -1 $-1 -368.7853079187301 -399.88033895325668 20.000000000000025 #
DXID-attrib $-1 -1 $-1 $69 $54 @18 ASM_EDGE_FROM_STEP @4 6037 #
point $-1 -1 $-1 -368.78530791873004 -379.88033895325668 20.000000000000004 #
DXID-attrib $-1 -1 $-1 $72 $55 @18 ASM_EDGE_FROM_STEP @4 6036 #
point $-1 -1 $-1 -365.7853079187301 -399.88033895325668 20.000000000000025 #
DXID-attrib $-1 -1 $-1 $78 $65 @18 ASM_EDGE_FROM_STEP @4 6039 #
point $-1 -1 $-1 -373.0353079187301 -396.13033895325668 26.437196594791949 #
