700 196 1 0         
5 ZWCAD 12 ACIS 28.0 NT 24 Mon May 13 14:01:33 2024 
1 9.9999999999999995e-07 1e-10 
body $1 -1 $-1 $2 $-1 $-1 #
DXID-attrib $-1 -1 $-1 $-1 $0 @18 ASM_BODY_FROM_STEP @83 241A99520DB9568E1FA5C11779A2E873EC4AF54B|:|E428137EF7B1B6AC5728AA855F788892852F6C84 #
lump $-1 -1 $-1 $-1 $3 $0 #
shell $-1 -1 $-1 $-1 $-1 $4 $-1 $2 #
face $5 -1 $-1 $6 $7 $3 $-1 $8 forward single #
truecolor-adesk-attrib $-1 -1 $9 $-1 $4 -1029329486 #
face $10 -1 $-1 $11 $12 $3 $-1 $13 reversed single #
loop $-1 -1 $-1 $14 $15 $4 #
cone-surface $-1 -1 $-1 157.07043716440097 180.70667193859506 355 6.123233995736766e-17 1 6.1232339957367697e-17 -2.9995195653237174e-32 -4.8985871965894158e-16 8 1 I I 0 1 8 forward I I I I #
color-adesk-attrib $-1 -1 $16 $5 $4 253 #
truecolor-adesk-attrib $-1 -1 $17 $-1 $6 -1029329486 #
face $18 -1 $-1 $19 $20 $3 $-1 $21 forward single #
loop $-1 -1 $-1 $22 $23 $6 #
cone-surface $-1 -1 $-1 157.07043716440097 105.20667193859506 465.93353866166899 0 0 1 -9.1848509936051484e-17 -1.5 0 1 I I 0 1 1.5000000000000002 forward I I I I #
loop $-1 -1 $-1 $24 $25 $4 #
coedge $-1 -1 $-1 $15 $15 $26 $27 forward $7 $-1 #
DXID-attrib $-1 -1 $-1 $9 $4 @18 ASM_FACE_FROM_STEP @15 stp-3M-236-2852 #
color-adesk-attrib $-1 -1 $28 $10 $6 253 #
truecolor-adesk-attrib $-1 -1 $29 $-1 $11 -1029329486 #
face $30 -1 $-1 $31 $32 $3 $-1 $33 forward single #
loop $-1 -1 $-1 $34 $35 $11 #
cone-surface $-1 -1 $-1 157.07043716440097 196.70667193859506 355 -6.123233995736766e-17 -1 -6.12323399573675e-17 -5.2491592393164885e-32 -8.5725275940314515e-16 14.000000000000002 1 I I 0.70710678118654724 0.70710678118654779 14.000000000000002 forward I I I I #
loop $-1 -1 $-1 $-1 $36 $6 #
coedge $-1 -1 $-1 $23 $23 $37 $38 forward $12 $-1 #
loop $-1 -1 $-1 $39 $37 $4 #
coedge $-1 -1 $-1 $25 $25 $40 $41 forward $14 $-1 #
coedge $-1 -1 $-1 $26 $26 $15 $27 reversed $42 $-1 #
edge $43 -1 $-1 $44 0 $44 6.2831853071795862 $15 $45 forward @7 unknown #
DXID-attrib $-1 -1 $-1 $17 $6 @18 ASM_FACE_FROM_STEP @15 stp-3M-236-2482 #
color-adesk-attrib $-1 -1 $46 $18 $11 253 #
truecolor-adesk-attrib $-1 -1 $47 $-1 $19 -1029329486 #
face $48 -1 $-1 $49 $50 $3 $-1 $51 forward single #
loop $-1 -1 $-1 $-1 $52 $19 #
plane-surface $-1 -1 $-1 157.07043716440097 95.206671938595065 355 -6.123233995736766e-17 -1 -6.1232339957367697e-17 -3.7493994566546468e-33 -6.1232339957367697e-17 1 forward_v I I I I #
loop $-1 -1 $-1 $-1 $53 $11 #
coedge $-1 -1 $-1 $35 $35 $54 $55 reversed $20 $-1 #
coedge $-1 -1 $-1 $36 $36 $56 $57 reversed $22 $-1 #
coedge $-1 -1 $-1 $37 $37 $23 $38 reversed $24 $-1 #
edge $58 -1 $-1 $59 0.22658963846692085 $59 1.1329481923346043 $37 $60 forward @7 unknown #
loop $-1 -1 $-1 $-1 $56 $4 #
coedge $-1 -1 $-1 $40 $40 $25 $41 reversed $50 $-1 #
edge $61 -1 $-1 $62 -6.2831853071795862 $62 0 $25 $63 reversed @7 unknown #
loop $-1 -1 $-1 $-1 $26 $64 #
truecolor-adesk-attrib $-1 -1 $65 $-1 $27 -1024296448 #
vertex $-1 -1 $-1 $27 $66 #
ellipse-curve $-1 -1 $-1 157.07043716440097 110.20667193859506 355 -6.123233995736766e-17 -1 -6.1232339957367697e-17 -2.9995195653237174e-32 -4.8985871965894158e-16 8 1 I I #
DXID-attrib $-1 -1 $-1 $29 $11 @18 ASM_FACE_FROM_STEP @15 stp-3M-236-1914 #
color-adesk-attrib $-1 -1 $67 $30 $19 253 #
truecolor-adesk-attrib $-1 -1 $68 $-1 $31 -1029329486 #
face $69 -1 $-1 $64 $70 $3 $-1 $71 forward single #
loop $-1 -1 $-1 $72 $40 $31 #
cone-surface $-1 -1 $-1 157.07043716440097 95.206671938595065 355 6.123233995736766e-17 1 6.1232339957368203e-17 2.6245796196582744e-32 4.2862637970157746e-16 -7.0000000000000009 1 I I 0.70710678118654724 0.70710678118654779 7.0000000000000009 forward I I I I #
coedge $-1 -1 $-1 $52 $52 $73 $74 forward $32 $-1 #
coedge $-1 -1 $-1 $53 $53 $75 $76 reversed $34 $-1 #
coedge $-1 -1 $-1 $54 $54 $35 $55 forward $70 $-1 #
edge $77 -1 $-1 $78 0 $78 6.2831853071795862 $35 $79 forward @7 unknown #
coedge $-1 -1 $-1 $56 $56 $36 $57 forward $39 $-1 #
edge $80 -1 $-1 $81 -0.67976891540076256 $81 0.22658963846692082 $56 $82 forward @7 unknown #
truecolor-adesk-attrib $-1 -1 $83 $-1 $38 -1029329486 #
vertex $-1 -1 $-1 $38 $84 #
intcurve-curve $-1 -1 $-1 forward { surfintcur full nubs 3 periodic 17 
	0 3 0.056648629965978456 2 0.11329725993195691 2 0.16994344919943888 2 0.22658963846692085 2 
	0.28323582773440281 2 0.33988201700188475 2 0.39653064696786322 2 0.45317927693384163 2 0.50982790689982016 2 
	0.56647653686579857 2 0.62312272613328057 2 0.67976891540076256 2 0.73641510466824456 2 0.79306129393572655 2 
	0.84970992390170497 2 0.90635855386768349 3 
	158.57043716440097 105.20667193859506 362.85811682275084 
	158.57043716440097 105.39550070514832 362.85811682275084 
	158.53260797058661 105.59660177578738 362.86562819860336 
	158.37939063530348 105.96603329206457 362.89257189661481 
	158.26402614948753 106.13440329706815 362.91159475506367 
	157.99817425009383 106.40025519646184 362.94715600599773 
	157.82980180254918 106.51562417127802 362.96603187207785 
	157.46036183521713 106.66884476341136 362.99263768663855 
	157.25925779529257 106.70667193859506 363 
	156.88161653350937 106.70667193859506 363 
	156.68051249358481 106.66884476341136 362.99263768663855 
	156.31107252625276 106.51562417127802 362.96603187207785 
	156.14270007870809 106.40025519646184 362.94715600599773 
	155.87684817931441 106.13440329706815 362.91159475506367 
	155.76148369349846 105.96603329206457 362.89257189661481 
	155.60826635821533 105.59660177578738 362.86562819860336 
	155.57043716440097 105.39550070514832 362.85811682275084 
	155.57043716440097 105.01784317204181 362.85811682275084 
	155.60826635821533 104.81674210140277 362.86562819860336 
	155.76148369349846 104.44731058512559 362.89257189661481 
	155.87684817931441 104.27894058012198 362.91159475506367 
	156.14270007870809 104.01308868072829 362.94715600599773 
	156.31107252625276 103.89771970591212 362.96603187207785 
	156.68051249358481 103.74449911377877 362.99263768663855 
	156.88161653350937 103.70667193859506 363 
	157.25925779529257 103.70667193859506 363 
	157.46036183521713 103.74449911377877 362.99263768663855 
	157.82980180254918 103.89771970591212 362.96603187207785 
	157.99817425009383 104.01308868072829 362.94715600599773 
	158.26402614948753 104.278940580122 362.91159475506367 
	158.37939063530348 104.44731058512559 362.89257189661481 
	158.53260797058661 104.81674210140275 362.86562819860336 
	158.57043716440097 105.01784317204181 362.85811682275084 
	158.57043716440097 105.20667193859506 362.85811682275084 
	0.0013995250145112717 
	cone 157.07043716440097 105.20667193859506 465.93353866166899 0 0 1 -9.1848509936051484e-17 -1.5 0 1 I I 0 1 1.5000000000000002 forward I I I I 
	cone 157.07043716440097 180.70667193859506 355 6.123233995736766e-17 1 6.1232339957367697e-17 -2.9995195653237174e-32 -4.8985871965894158e-16 8 1 I I 0 -1 8 forward I I I I 
	nullbs 
	nullbs 
	I I 
	0 
	0 
	0 
	} I I #
truecolor-adesk-attrib $-1 -1 $85 $-1 $41 -1029329486 #
vertex $-1 -1 $-1 $41 $86 #
ellipse-curve $-1 -1 $-1 157.07043716440097 96.206671938595065 355 -6.123233995736766e-17 -1 -6.1232339957368203e-17 -2.999519565323742e-32 -4.8985871965894562e-16 8 1 I I #
face $87 -1 $-1 $88 $89 $3 $-1 $90 forward single #
color-adesk-attrib $-1 -1 $91 $43 $27 30 #
point $-1 -1 $-1 157.07043716440097 110.20667193859506 363 #
DXID-attrib $-1 -1 $-1 $47 $19 @18 ASM_FACE_FROM_STEP @15 stp-3M-236-1798 #
color-adesk-attrib $-1 -1 $92 $48 $31 253 #
truecolor-adesk-attrib $-1 -1 $93 $-1 $49 -1029329486 #
loop $-1 -1 $-1 $-1 $54 $49 #
plane-surface $-1 -1 $-1 157.07043716440097 197.70667193859506 369 6.123233995736766e-17 1 6.1232339957367697e-17 3.7493994566546468e-33 6.1232339957367697e-17 -1 forward_v I I I I #
loop $-1 -1 $-1 $-1 $73 $31 #
coedge $-1 -1 $-1 $73 $73 $52 $74 reversed $72 $-1 #
edge $94 -1 $-1 $95 0 $95 6.2831853071795862 $52 $96 forward @7 unknown #
coedge $-1 -1 $-1 $75 $75 $53 $76 forward $97 $-1 #
edge $98 -1 $-1 $99 -6.2831853071795862 $99 0 $53 $100 reversed @7 unknown #
truecolor-adesk-attrib $-1 -1 $101 $-1 $55 -1029329486 #
vertex $-1 -1 $-1 $55 $102 #
ellipse-curve $-1 -1 $-1 157.07043716440097 197.70667193859506 355 6.123233995736766e-17 1 6.1232339957367697e-17 4.87421929365104e-32 7.9602041944578004e-16 -13 1 I I #
truecolor-adesk-attrib $-1 -1 $103 $-1 $57 -1029329486 #
vertex $-1 -1 $-1 $57 $104 #
intcurve-curve $-1 -1 $-1 reversed { surfintcur full nubs 3 periodic 17 
	0 3 0.056648629965978456 2 0.11329725993195691 2 0.16994344919943893 2 0.22658963846692093 2 
	0.28323582773440292 2 0.33988201700188492 2 0.39653064696786339 2 0.45317927693384186 2 0.50982790689982027 2 
	0.56647653686579869 2 0.62312272613328057 2 0.67976891540076256 2 0.73641510466824456 2 0.79306129393572644 2 
	0.84970992390170497 2 0.90635855386768338 3 
	158.57043716440097 105.20667193859506 347.14188317724916 
	158.57043716440097 105.01784317204181 347.14188317724916 
	158.53260797058661 104.81674210140275 347.13437180139664 
	158.37939063530348 104.44731058512556 347.10742810338519 
	158.26402614948753 104.27894058012198 347.08840524493633 
	157.99817425009383 104.01308868072829 347.05284399400227 
	157.82980180254918 103.89771970591212 347.03396812792215 
	157.46036183521713 103.74449911377877 347.00736231336145 
	157.25925779529257 103.70667193859506 347 
	156.88161653350937 103.70667193859506 347 
	156.68051249358481 103.74449911377877 347.00736231336145 
	156.31107252625276 103.89771970591212 347.03396812792215 
	156.14270007870809 104.01308868072829 347.05284399400227 
	155.87684817931441 104.27894058012198 347.08840524493633 
	155.76148369349846 104.44731058512556 347.10742810338519 
	155.60826635821533 104.81674210140275 347.13437180139664 
	155.57043716440097 105.01784317204181 347.14188317724916 
	155.57043716440097 105.39550070514832 347.14188317724916 
	155.60826635821533 105.59660177578738 347.13437180139664 
	155.76148369349846 105.96603329206457 347.10742810338519 
	155.87684817931441 106.13440329706815 347.08840524493633 
	156.14270007870809 106.40025519646184 347.05284399400227 
	156.31107252625276 106.51562417127802 347.03396812792215 
	156.68051249358481 106.66884476341136 347.00736231336145 
	156.88161653350937 106.70667193859506 347 
	157.25925779529257 106.70667193859506 347 
	157.46036183521713 106.66884476341136 347.00736231336145 
	157.82980180254918 106.51562417127802 347.03396812792215 
	157.99817425009383 106.40025519646184 347.05284399400227 
	158.26402614948753 106.13440329706815 347.08840524493633 
	158.37939063530345 105.96603329206457 347.10742810338519 
	158.53260797058661 105.59660177578741 347.13437180139664 
	158.57043716440097 105.39550070514832 347.14188317724916 
	158.57043716440097 105.20667193859506 347.14188317724916 
	0.0013995250145124407 
	cone 157.07043716440097 105.20667193859506 465.93353866166899 0 0 1 -9.1848509936051484e-17 -1.5 0 1 I I 0 1 1.5000000000000002 forward I I I I 
	cone 157.07043716440097 180.70667193859506 355 6.123233995736766e-17 1 6.1232339957367697e-17 -2.9995195653237174e-32 -4.8985871965894158e-16 8 1 I I 0 -1 8 forward I I I I 
	nullbs 
	nullbs 
	I I 
	0 
	0 
	0 
	} I I #
color-adesk-attrib $-1 -1 $105 $58 $38 253 #
point $-1 -1 $-1 157.07043716440097 106.70667193859506 363 #
color-adesk-attrib $-1 -1 $106 $61 $41 253 #
point $-1 -1 $-1 157.07043716440097 96.206671938595065 363 #
truecolor-adesk-attrib $-1 -1 $107 $-1 $64 -1024296448 #
face $108 -1 $-1 $109 $110 $3 $-1 $111 forward single #
loop $-1 -1 $-1 $42 $112 $64 #
plane-surface $-1 -1 $-1 157.07043716440097 110.20667193859506 363 -6.123233995736766e-17 -1 -6.1232339957367697e-17 -3.7493994566546468e-33 -6.1232339957367697e-17 1 forward_v I I I I #
DXID-attrib $-1 -1 $-1 $65 $27 @18 ASM_EDGE_FROM_STEP @5 27898 #
DXID-attrib $-1 -1 $-1 $68 $31 @18 ASM_FACE_FROM_STEP @15 stp-3M-236-3560 #
color-adesk-attrib $-1 -1 $113 $69 $49 253 #
truecolor-adesk-attrib $-1 -1 $114 $-1 $74 -1029329486 #
vertex $-1 -1 $-1 $74 $115 #
ellipse-curve $-1 -1 $-1 157.07043716440097 95.206671938595065 355 -6.123233995736766e-17 -1 -6.1232339957367697e-17 -2.624579619658253e-32 -4.2862637970157396e-16 7.0000000000000009 1 I I #
loop $-1 -1 $-1 $116 $75 $117 #
truecolor-adesk-attrib $-1 -1 $118 $-1 $76 -1029329486 #
vertex $-1 -1 $-1 $76 $119 #
ellipse-curve $-1 -1 $-1 157.07043716440097 196.70667193859506 355 6.123233995736766e-17 1 6.12323399573675e-17 5.2491592393164885e-32 8.5725275940314515e-16 -14.000000000000002 1 I I #
color-adesk-attrib $-1 -1 $120 $77 $55 253 #
point $-1 -1 $-1 157.07043716440097 197.70667193859506 342 #
color-adesk-attrib $-1 -1 $121 $80 $57 253 #
point $-1 -1 $-1 157.07043716440097 106.70667193859506 347 #
DXID-attrib $-1 -1 $-1 $83 $38 @18 ASM_EDGE_FROM_STEP @5 27501 #
DXID-attrib $-1 -1 $-1 $85 $41 @18 ASM_EDGE_FROM_STEP @5 28095 #
color-adesk-attrib $-1 -1 $122 $87 $64 30 #
truecolor-adesk-attrib $-1 -1 $123 $-1 $88 -1024296448 #
face $124 -1 $-1 $125 $126 $3 $-1 $127 forward single #
loop $-1 -1 $-1 $128 $129 $88 #
cone-surface $-1 -1 $-1 157.07043716440097 180.70667193859506 355 6.123233995736766e-17 1 6.1232339957367697e-17 -5.6240991849819688e-32 -9.1848509936051539e-16 15 1 I I 0 1 15 forward I I I I #
coedge $-1 -1 $-1 $112 $112 $130 $131 forward $89 $-1 #
DXID-attrib $-1 -1 $-1 $93 $49 @18 ASM_FACE_FROM_STEP @15 stp-3M-236-1550 #
color-adesk-attrib $-1 -1 $132 $94 $74 253 #
point $-1 -1 $-1 157.07043716440097 95.206671938595065 362 #
loop $-1 -1 $-1 $-1 $133 $117 #
face $134 -1 $-1 $-1 $97 $3 $-1 $135 forward single #
color-adesk-attrib $-1 -1 $136 $98 $76 253 #
point $-1 -1 $-1 157.07043716440097 196.70667193859506 341 #
DXID-attrib $-1 -1 $-1 $101 $55 @18 ASM_EDGE_FROM_STEP @5 25220 #
DXID-attrib $-1 -1 $-1 $103 $57 @18 ASM_EDGE_FROM_STEP @5 27502 #
DXID-attrib $-1 -1 $-1 $107 $64 @18 ASM_FACE_FROM_STEP @15 stp-3M-236-2708 #
color-adesk-attrib $-1 -1 $137 $108 $88 30 #
truecolor-adesk-attrib $-1 -1 $138 $-1 $109 -1024296448 #
face $139 -1 $-1 $140 $141 $3 $-1 $142 forward single #
loop $-1 -1 $-1 $143 $144 $109 #
plane-surface $-1 -1 $-1 157.07043716440097 112.70667193859506 370 6.123233995736766e-17 1 6.1232339957367697e-17 3.7493994566546468e-33 6.1232339957367697e-17 -1 forward_v I I I I #
loop $-1 -1 $-1 $-1 $130 $88 #
coedge $-1 -1 $-1 $129 $129 $144 $145 forward $110 $-1 #
coedge $-1 -1 $-1 $130 $130 $112 $131 reversed $128 $-1 #
edge $146 -1 $-1 $147 0 $147 6.2831853071795862 $112 $148 forward @7 unknown #
DXID-attrib $-1 -1 $-1 $114 $74 @18 ASM_EDGE_FROM_STEP @5 25926 #
coedge $-1 -1 $-1 $133 $133 $149 $150 reversed $116 $-1 #
truecolor-adesk-attrib $-1 -1 $151 $-1 $117 -1029329486 #
cone-surface $-1 -1 $-1 157.07043716440097 180.70667193859506 355 6.123233995736766e-17 1 6.1232339957367697e-17 -5.249159239316506e-32 -8.5725275940314791e-16 14.000000000000002 1 I I 0 1 14.000000000000002 forward I I I I #
DXID-attrib $-1 -1 $-1 $118 $76 @18 ASM_EDGE_FROM_STEP @5 26221 #
DXID-attrib $-1 -1 $-1 $123 $88 @18 ASM_FACE_FROM_STEP @15 stp-3M-236-3240 #
color-adesk-attrib $-1 -1 $152 $124 $109 30 #
truecolor-adesk-attrib $-1 -1 $153 $-1 $125 -1029329486 #
face $154 -1 $-1 $117 $155 $3 $-1 $156 forward single #
loop $-1 -1 $-1 $157 $158 $125 #
cone-surface $-1 -1 $-1 157.07043716440097 180.70667193859506 355 6.123233995736766e-17 1 6.1232339957367697e-17 -2.9995195653237174e-32 -4.8985871965894158e-16 8 1 I I 0 1 8 forward I I I I #
loop $-1 -1 $-1 $-1 $159 $109 #
coedge $-1 -1 $-1 $144 $144 $129 $145 reversed $126 $-1 #
edge $160 -1 $-1 $161 0 $161 6.2831853071795862 $129 $162 forward @7 unknown #
truecolor-adesk-attrib $-1 -1 $163 $-1 $131 -1024296448 #
vertex $-1 -1 $-1 $131 $164 #
ellipse-curve $-1 -1 $-1 157.07043716440097 110.20667193859506 355 -6.123233995736766e-17 -1 -6.1232339957367697e-17 -5.6240991849819688e-32 -9.1848509936051539e-16 15 1 I I #
coedge $-1 -1 $-1 $149 $149 $133 $150 forward $155 $-1 #
edge $165 -1 $-1 $166 0 $166 6.2831853071795862 $149 $167 forward @7 unknown #
color-adesk-attrib $-1 -1 $168 $134 $117 253 #
DXID-attrib $-1 -1 $-1 $138 $109 @18 ASM_FACE_FROM_STEP @15 stp-3M-236-3530 #
color-adesk-attrib $-1 -1 $169 $139 $125 253 #
truecolor-adesk-attrib $-1 -1 $170 $-1 $140 -1029329486 #
loop $-1 -1 $-1 $171 $149 $140 #
plane-surface $-1 -1 $-1 157.07043716440097 192.70667193859506 363 -6.123233995736766e-17 -1 -6.1232339957367697e-17 -3.7493994566546468e-33 -6.1232339957367697e-17 1 forward_v I I I I #
loop $-1 -1 $-1 $-1 $172 $125 #
coedge $-1 -1 $-1 $158 $158 $173 $174 forward $141 $-1 #
coedge $-1 -1 $-1 $159 $159 $172 $175 forward $143 $-1 #
truecolor-adesk-attrib $-1 -1 $176 $-1 $145 -1024296448 #
vertex $-1 -1 $-1 $145 $177 #
ellipse-curve $-1 -1 $-1 157.07043716440097 112.70667193859506 355 -6.123233995736766e-17 -1 -6.1232339957367697e-17 -5.6240991849819688e-32 -9.1848509936051539e-16 15 1 I I #
color-adesk-attrib $-1 -1 $178 $146 $131 30 #
point $-1 -1 $-1 157.07043716440097 110.20667193859506 370 #
truecolor-adesk-attrib $-1 -1 $179 $-1 $150 -1029329486 #
vertex $-1 -1 $-1 $150 $180 #
ellipse-curve $-1 -1 $-1 157.07043716440097 192.70667193859506 355 -6.123233995736766e-17 -1 -6.1232339957367697e-17 -5.249159239316506e-32 -8.5725275940314791e-16 14.000000000000002 1 I I #
DXID-attrib $-1 -1 $-1 $151 $117 @18 ASM_FACE_FROM_STEP @15 stp-3M-236-2390 #
DXID-attrib $-1 -1 $-1 $153 $125 @18 ASM_FACE_FROM_STEP @15 stp-3M-236-2414 #
color-adesk-attrib $-1 -1 $181 $154 $140 253 #
loop $-1 -1 $-1 $-1 $173 $140 #
coedge $-1 -1 $-1 $172 $172 $159 $175 reversed $157 $-1 #
coedge $-1 -1 $-1 $173 $173 $158 $174 reversed $171 $-1 #
edge $182 -1 $-1 $183 0 $183 6.2831853071795862 $158 $184 forward @7 unknown #
edge $185 -1 $-1 $186 0 $186 6.2831853071795862 $159 $187 forward @7 unknown #
color-adesk-attrib $-1 -1 $188 $160 $145 30 #
point $-1 -1 $-1 157.07043716440097 112.70667193859506 370 #
DXID-attrib $-1 -1 $-1 $163 $131 @18 ASM_EDGE_FROM_STEP @5 27897 #
color-adesk-attrib $-1 -1 $189 $165 $150 253 #
point $-1 -1 $-1 157.07043716440097 192.70667193859506 369 #
DXID-attrib $-1 -1 $-1 $170 $140 @18 ASM_FACE_FROM_STEP @15 stp-3M-236-3378 #
truecolor-adesk-attrib $-1 -1 $190 $-1 $174 -1029329486 #
vertex $-1 -1 $-1 $174 $191 #
ellipse-curve $-1 -1 $-1 157.07043716440097 192.70667193859506 355 -6.123233995736766e-17 -1 -6.1232339957367697e-17 -2.9995195653237174e-32 -4.8985871965894158e-16 8 1 I I #
truecolor-adesk-attrib $-1 -1 $192 $-1 $175 -1029329486 #
vertex $-1 -1 $-1 $175 $193 #
ellipse-curve $-1 -1 $-1 157.07043716440097 112.70667193859506 355 -6.123233995736766e-17 -1 -6.1232339957367697e-17 -2.9995195653237174e-32 -4.8985871965894158e-16 8 1 I I #
DXID-attrib $-1 -1 $-1 $176 $145 @18 ASM_EDGE_FROM_STEP @5 28571 #
DXID-attrib $-1 -1 $-1 $179 $150 @18 ASM_EDGE_FROM_STEP @5 27327 #
color-adesk-attrib $-1 -1 $194 $182 $174 253 #
point $-1 -1 $-1 157.07043716440097 192.70667193859506 363 #
color-adesk-attrib $-1 -1 $195 $185 $175 253 #
point $-1 -1 $-1 157.07043716440097 112.70667193859506 363 #
DXID-attrib $-1 -1 $-1 $190 $174 @18 ASM_EDGE_FROM_STEP @5 27381 #
DXID-attrib $-1 -1 $-1 $192 $175 @18 ASM_EDGE_FROM_STEP @5 27382 #
