700 558 1 0         
5 ZWCAD 12 ACIS 28.0 NT 24 Mon May 13 10:19:01 2024 
1 9.9999999999999995e-07 1e-10 
body $1 -1 $-1 $2 $-1 $-1 #
DXID-attrib $-1 -1 $-1 $-1 $0 @18 ASM_BODY_FROM_STEP @83 652AAD367BBC505775A9B4643F12B83E7E2C4952|:|8CB3CBCEBE3339AC3139F7812237AD39DB573F35 #
lump $-1 -1 $-1 $-1 $3 $0 #
shell $-1 -1 $-1 $-1 $-1 $4 $-1 $2 #
face $5 -1 $-1 $6 $7 $3 $-1 $8 reversed single #
truecolor-adesk-attrib $-1 -1 $9 $-1 $4 -1029457713 #
face $10 -1 $-1 $11 $12 $3 $-1 $13 reversed single #
loop $-1 -1 $-1 $-1 $14 $4 #
cone-surface $-1 -1 $-1 -207.42271834403547 -229.83547033540549 154.37410719261047 0 0 -1 -3.4999999999999947 0 0 1 I I 0 1 3.4999999999999947 forward I I I I #
DXID-attrib $-1 -1 $-1 $5 $4 @18 ASM_FACE_FROM_STEP @15 stp-1M-67-13174 #
truecolor-adesk-attrib $-1 -1 $15 $-1 $6 -1029457713 #
face $16 -1 $-1 $17 $18 $3 $-1 $19 reversed single #
loop $-1 -1 $-1 $-1 $20 $6 #
cone-surface $-1 -1 $-1 -102.03467406841455 -197.53076242201024 154.37410719261047 0 0 -1 -3.4999999999999947 0 0 1 I I 0 1 3.4999999999999947 forward I I I I #
coedge $-1 -1 $-1 $21 $22 $23 $24 reversed $7 $-1 #
DXID-attrib $-1 -1 $-1 $10 $6 @18 ASM_FACE_FROM_STEP @15 stp-1M-67-13175 #
truecolor-adesk-attrib $-1 -1 $25 $-1 $11 -1029457713 #
face $26 -1 $-1 $27 $28 $3 $-1 $29 reversed single #
loop $-1 -1 $-1 $-1 $30 $11 #
cone-surface $-1 -1 $-1 -112.84855921992354 -248.73662666528443 154.37410719261047 0 0 -1 -4.9999999999999893 0 0 1 I I 0 1 4.9999999999999893 forward I I I I #
coedge $-1 -1 $-1 $31 $32 $33 $34 reversed $12 $-1 #
coedge $-1 -1 $-1 $35 $14 $22 $36 forward $7 $-1 #
coedge $-1 -1 $-1 $14 $35 $21 $36 reversed $7 $-1 #
coedge $-1 -1 $-1 $23 $23 $14 $24 forward $37 $-1 #
edge $38 -1 $-1 $39 -3.1415926535897931 $39 3.1415926535897931 $14 $40 forward @7 unknown #
DXID-attrib $-1 -1 $-1 $16 $11 @18 ASM_FACE_FROM_STEP @15 stp-1M-67-13176 #
truecolor-adesk-attrib $-1 -1 $41 $-1 $17 -1029457713 #
face $42 -1 $-1 $43 $44 $3 $-1 $45 reversed single #
loop $-1 -1 $-1 $-1 $46 $17 #
cone-surface $-1 -1 $-1 -112.84855921992354 -235.01511408189148 154.37410719261047 0 0 -1 -4.9999999999999893 0 0 1 I I 0 1 4.9999999999999893 forward I I I I #
coedge $-1 -1 $-1 $47 $48 $49 $50 reversed $18 $-1 #
coedge $-1 -1 $-1 $51 $20 $32 $52 forward $12 $-1 #
coedge $-1 -1 $-1 $20 $51 $31 $52 reversed $12 $-1 #
coedge $-1 -1 $-1 $33 $33 $20 $34 forward $53 $-1 #
edge $54 -1 $-1 $55 -3.1415926535897931 $55 3.1415926535897931 $20 $56 forward @7 unknown #
coedge $-1 -1 $-1 $22 $21 $57 $58 reversed $7 $-1 #
edge $59 -1 $-1 $39 -49.821173483603054 $60 -48.678316340745916 $21 $61 forward @7 unknown #
loop $-1 -1 $-1 $53 $23 $62 #
truecolor-adesk-attrib $-1 -1 $63 $-1 $24 -1029457713 #
vertex $-1 -1 $-1 $24 $64 #
ellipse-curve $-1 -1 $-1 -207.42271834403547 -229.83547033540549 -19.999999999999975 0 0 1 -3.4999999999999947 0 0 1 I I #
DXID-attrib $-1 -1 $-1 $26 $17 @18 ASM_FACE_FROM_STEP @15 stp-1M-67-13177 #
truecolor-adesk-attrib $-1 -1 $65 $-1 $27 -1029457713 #
face $66 -1 $-1 $67 $68 $3 $-1 $69 reversed single #
loop $-1 -1 $-1 $-1 $70 $27 #
cone-surface $-1 -1 $-1 -162.72869620622501 -167.76068550443352 154.37410719261047 0 0 -1 -6.0000000000000027 0 0 1 I I 0 1 6.0000000000000027 forward I I I I #
coedge $-1 -1 $-1 $71 $72 $73 $74 reversed $28 $-1 #
coedge $-1 -1 $-1 $75 $30 $48 $76 forward $18 $-1 #
coedge $-1 -1 $-1 $30 $75 $47 $76 reversed $18 $-1 #
coedge $-1 -1 $-1 $49 $49 $30 $50 forward $77 $-1 #
edge $78 -1 $-1 $79 -3.1415926535897931 $79 3.1415926535897931 $30 $80 forward @7 unknown #
coedge $-1 -1 $-1 $32 $31 $81 $82 reversed $12 $-1 #
edge $83 -1 $-1 $55 -49.821173483603054 $84 -48.678316340745916 $31 $85 forward @7 unknown #
loop $-1 -1 $-1 $77 $33 $62 #
truecolor-adesk-attrib $-1 -1 $86 $-1 $34 -1029457713 #
vertex $-1 -1 $-1 $34 $87 #
ellipse-curve $-1 -1 $-1 -102.03467406841455 -197.53076242201024 -19.999999999999975 0 0 1 -3.4999999999999947 0 0 1 I I #
coedge $-1 -1 $-1 $57 $57 $35 $58 forward $88 $-1 #
edge $89 -1 $-1 $60 -3.1415926535897931 $60 3.1415926535897931 $35 $90 forward @7 unknown #
truecolor-adesk-attrib $-1 -1 $91 $-1 $36 -1029457713 #
vertex $-1 -1 $-1 $36 $92 #
straight-curve $-1 -1 $-1 -203.9227183440355 -229.83547033540549 154.37410719261047 0 0 3.4999999999999947 F -49.821173483603054 F -48.678316340745916 #
face $93 -1 $-1 $-1 $94 $3 $-1 $95 reversed single #
DXID-attrib $-1 -1 $-1 $38 $24 @18 ASM_EDGE_FROM_STEP @4 7339 #
point $-1 -1 $-1 -203.9227183440355 -229.83547033540549 -19.999999999999975 #
DXID-attrib $-1 -1 $-1 $42 $27 @18 ASM_FACE_FROM_STEP @15 stp-1M-67-13178 #
truecolor-adesk-attrib $-1 -1 $96 $-1 $43 -1029457713 #
face $97 -1 $-1 $98 $99 $3 $-1 $100 reversed single #
loop $-1 -1 $-1 $-1 $101 $43 #
cone-surface $-1 -1 $-1 -154.72869620622501 -261.18311637870784 154.37410719261047 0 0 -1 -4.9999999999999893 0 0 1 I I 0 1 4.9999999999999893 forward I I I I #
coedge $-1 -1 $-1 $102 $103 $104 $105 reversed $44 $-1 #
coedge $-1 -1 $-1 $106 $46 $72 $107 forward $28 $-1 #
coedge $-1 -1 $-1 $46 $106 $71 $107 reversed $28 $-1 #
coedge $-1 -1 $-1 $73 $73 $46 $74 forward $108 $-1 #
edge $109 -1 $-1 $110 -3.1415926535897931 $110 3.1415926535897931 $46 $111 forward @7 unknown #
coedge $-1 -1 $-1 $48 $47 $112 $113 reversed $18 $-1 #
edge $114 -1 $-1 $79 -34.874821438522162 $115 -34.074821438522164 $47 $116 forward @7 unknown #
loop $-1 -1 $-1 $108 $49 $62 #
truecolor-adesk-attrib $-1 -1 $117 $-1 $50 -1029457713 #
vertex $-1 -1 $-1 $50 $118 #
ellipse-curve $-1 -1 $-1 -112.84855921992354 -248.73662666528443 -19.999999999999975 0 0 1 -4.9999999999999893 0 0 1 I I #
coedge $-1 -1 $-1 $81 $81 $51 $82 forward $119 $-1 #
edge $120 -1 $-1 $84 -3.1415926535897931 $84 3.1415926535897931 $51 $121 forward @7 unknown #
truecolor-adesk-attrib $-1 -1 $122 $-1 $52 -1029457713 #
vertex $-1 -1 $-1 $52 $123 #
straight-curve $-1 -1 $-1 -98.534674068414574 -197.53076242201024 154.37410719261047 0 0 3.4999999999999947 F -49.821173483603054 F -48.678316340745916 #
DXID-attrib $-1 -1 $-1 $54 $34 @18 ASM_EDGE_FROM_STEP @4 7342 #
point $-1 -1 $-1 -98.534674068414574 -197.53076242201024 -19.999999999999975 #
loop $-1 -1 $-1 $119 $57 $124 #
truecolor-adesk-attrib $-1 -1 $125 $-1 $58 -1029457713 #
ellipse-curve $-1 -1 $-1 -207.42271834403547 -229.83547033540549 -15.999999999999989 0 0 -1 -3.4999999999999947 0 0 1 I I #
DXID-attrib $-1 -1 $-1 $59 $36 @18 ASM_EDGE_FROM_STEP @4 7340 #
point $-1 -1 $-1 -203.9227183440355 -229.83547033540549 -15.999999999999989 #
truecolor-adesk-attrib $-1 -1 $126 $-1 $62 -1029457713 #
loop $-1 -1 $-1 $37 $127 $62 #
plane-surface $-1 -1 $-1 -154.72869620622501 -213.68311637870787 -19.999999999999982 0 0 1 25.399999999999995 0 0 forward_v I I I I #
DXID-attrib $-1 -1 $-1 $66 $43 @18 ASM_FACE_FROM_STEP @15 stp-1M-67-13179 #
truecolor-adesk-attrib $-1 -1 $128 $-1 $67 -1029457713 #
face $129 -1 $-1 $130 $131 $3 $-1 $132 reversed single #
loop $-1 -1 $-1 $-1 $133 $67 #
cone-surface $-1 -1 $-1 -191.22869620622504 -177.18982716818994 154.37410719261047 0 0 -1 -4.9999999999999893 0 0 1 I I 0 1 4.9999999999999893 forward I I I I #
coedge $-1 -1 $-1 $134 $135 $136 $137 reversed $68 $-1 #
coedge $-1 -1 $-1 $138 $70 $103 $139 forward $44 $-1 #
coedge $-1 -1 $-1 $70 $138 $102 $139 reversed $44 $-1 #
coedge $-1 -1 $-1 $104 $104 $70 $105 forward $140 $-1 #
edge $141 -1 $-1 $142 -3.1415926535897931 $142 3.1415926535897931 $70 $143 forward @7 unknown #
coedge $-1 -1 $-1 $72 $71 $144 $145 reversed $28 $-1 #
edge $146 -1 $-1 $110 -34.874821438522162 $147 -34.074821438522164 $71 $148 forward @7 unknown #
loop $-1 -1 $-1 $140 $73 $62 #
truecolor-adesk-attrib $-1 -1 $149 $-1 $74 -1029457713 #
vertex $-1 -1 $-1 $74 $150 #
ellipse-curve $-1 -1 $-1 -112.84855921992354 -235.01511408189148 -19.999999999999975 0 0 1 -4.9999999999999893 0 0 1 I I #
coedge $-1 -1 $-1 $112 $112 $75 $113 forward $151 $-1 #
edge $152 -1 $-1 $115 -3.1415926535897931 $115 3.1415926535897931 $75 $153 forward @7 unknown #
truecolor-adesk-attrib $-1 -1 $154 $-1 $76 -1029457713 #
vertex $-1 -1 $-1 $76 $155 #
straight-curve $-1 -1 $-1 -107.84855921992374 -248.73662666528443 154.37410719261047 0 0 4.9999999999999893 F -34.874821438522162 F -34.074821438522164 #
DXID-attrib $-1 -1 $-1 $78 $50 @18 ASM_EDGE_FROM_STEP @4 7345 #
point $-1 -1 $-1 -107.84855921992374 -248.73662666528443 -19.999999999999975 #
loop $-1 -1 $-1 $151 $81 $124 #
truecolor-adesk-attrib $-1 -1 $156 $-1 $82 -1029457713 #
ellipse-curve $-1 -1 $-1 -102.03467406841455 -197.53076242201024 -15.999999999999989 0 0 -1 -3.4999999999999947 0 0 1 I I #
DXID-attrib $-1 -1 $-1 $83 $52 @18 ASM_EDGE_FROM_STEP @4 7343 #
point $-1 -1 $-1 -98.534674068414574 -197.53076242201024 -15.999999999999989 #
face $157 -1 $-1 $158 $159 $3 $-1 $160 forward single #
DXID-attrib $-1 -1 $-1 $89 $58 @18 ASM_EDGE_FROM_STEP @4 7341 #
DXID-attrib $-1 -1 $-1 $93 $62 @18 ASM_FACE_FROM_STEP @15 stp-1M-67-13199 #
coedge $-1 -1 $-1 $127 $127 $161 $162 reversed $94 $-1 #
DXID-attrib $-1 -1 $-1 $97 $67 @18 ASM_FACE_FROM_STEP @15 stp-1M-67-13180 #
truecolor-adesk-attrib $-1 -1 $163 $-1 $98 -1029457713 #
face $164 -1 $-1 $165 $166 $3 $-1 $167 forward single #
loop $-1 -1 $-1 $-1 $168 $98 #
cone-surface $-1 -1 $-1 -118.22869620622497 -177.18982716818994 154.37410719261047 0 0 -1 -4.9999999999999893 0 0 1 I I 0 1 4.9999999999999893 forward I I I I #
coedge $-1 -1 $-1 $169 $170 $171 $172 reversed $99 $-1 #
coedge $-1 -1 $-1 $173 $101 $135 $174 forward $68 $-1 #
coedge $-1 -1 $-1 $101 $173 $134 $174 reversed $68 $-1 #
coedge $-1 -1 $-1 $136 $136 $101 $137 forward $175 $-1 #
edge $176 -1 $-1 $177 -3.1415926535897931 $177 3.1415926535897931 $101 $178 forward @7 unknown #
coedge $-1 -1 $-1 $103 $102 $179 $180 reversed $44 $-1 #
edge $181 -1 $-1 $142 -29.062351198768393 $182 -28.395684532101729 $102 $183 forward @7 unknown #
loop $-1 -1 $-1 $175 $104 $62 #
truecolor-adesk-attrib $-1 -1 $184 $-1 $105 -1029457713 #
vertex $-1 -1 $-1 $105 $185 #
ellipse-curve $-1 -1 $-1 -162.72869620622501 -167.76068550443352 -19.999999999999975 0 0 1 -6.0000000000000027 0 0 1 I I #
coedge $-1 -1 $-1 $144 $144 $106 $145 forward $186 $-1 #
edge $187 -1 $-1 $147 -3.1415926535897931 $147 3.1415926535897931 $106 $188 forward @7 unknown #
truecolor-adesk-attrib $-1 -1 $189 $-1 $107 -1029457713 #
vertex $-1 -1 $-1 $107 $190 #
straight-curve $-1 -1 $-1 -107.84855921992374 -235.01511408189148 154.37410719261047 0 0 4.9999999999999893 F -34.874821438522162 F -34.074821438522164 #
DXID-attrib $-1 -1 $-1 $109 $74 @18 ASM_EDGE_FROM_STEP @4 7348 #
point $-1 -1 $-1 -107.84855921992374 -235.01511408189148 -19.999999999999975 #
loop $-1 -1 $-1 $186 $112 $124 #
truecolor-adesk-attrib $-1 -1 $191 $-1 $113 -1029457713 #
ellipse-curve $-1 -1 $-1 -112.84855921992354 -248.73662666528443 -15.999999999999989 0 0 -1 -4.9999999999999893 0 0 1 I I #
DXID-attrib $-1 -1 $-1 $114 $76 @18 ASM_EDGE_FROM_STEP @4 7346 #
point $-1 -1 $-1 -107.84855921992374 -248.73662666528443 -15.999999999999989 #
DXID-attrib $-1 -1 $-1 $120 $82 @18 ASM_EDGE_FROM_STEP @4 7344 #
truecolor-adesk-attrib $-1 -1 $192 $-1 $124 -1029457713 #
face $193 -1 $-1 $62 $194 $3 $-1 $195 forward single #
loop $-1 -1 $-1 $88 $196 $124 #
plane-surface $-1 -1 $-1 -154.72869620622501 -213.68311637870787 -15.999999999999982 0 0 1 25.399999999999995 0 0 forward_v I I I I #
coedge $-1 -1 $-1 $197 $198 $127 $162 forward $194 $-1 #
edge $199 -1 $-1 $200 -3.1415926535897931 $200 3.1415926535897931 $161 $201 forward @7 unknown #
DXID-attrib $-1 -1 $-1 $129 $98 @18 ASM_FACE_FROM_STEP @15 stp-1M-67-13181 #
truecolor-adesk-attrib $-1 -1 $202 $-1 $130 -1029457713 #
face $203 -1 $-1 $204 $205 $3 $-1 $206 forward single #
loop $-1 -1 $-1 $-1 $207 $130 #
cone-surface $-1 -1 $-1 -191.22869620622504 -213.68311637870787 -17.999999999999982 0 0 -1 10.999999999999993 0 0 1 I I 0 1 10.999999999999993 forward I I I I #
coedge $-1 -1 $-1 $208 $209 $210 $211 reversed $131 $-1 #
coedge $-1 -1 $-1 $212 $133 $170 $213 forward $99 $-1 #
coedge $-1 -1 $-1 $133 $212 $169 $213 reversed $99 $-1 #
coedge $-1 -1 $-1 $171 $171 $133 $172 forward $214 $-1 #
edge $215 -1 $-1 $216 -3.1415926535897931 $216 3.1415926535897931 $133 $217 forward @7 unknown #
coedge $-1 -1 $-1 $135 $134 $218 $219 reversed $68 $-1 #
edge $220 -1 $-1 $177 -34.874821438522162 $221 -34.074821438522164 $134 $222 forward @7 unknown #
loop $-1 -1 $-1 $214 $136 $62 #
truecolor-adesk-attrib $-1 -1 $223 $-1 $137 -1029457713 #
vertex $-1 -1 $-1 $137 $224 #
ellipse-curve $-1 -1 $-1 -154.72869620622501 -261.18311637870784 -19.999999999999975 0 0 1 -4.9999999999999893 0 0 1 I I #
coedge $-1 -1 $-1 $179 $179 $138 $180 forward $225 $-1 #
edge $226 -1 $-1 $182 -3.1415926535897931 $182 3.1415926535897931 $138 $227 forward @7 unknown #
truecolor-adesk-attrib $-1 -1 $228 $-1 $139 -1029457713 #
vertex $-1 -1 $-1 $139 $229 #
straight-curve $-1 -1 $-1 -156.72869620622501 -167.76068550443352 154.37410719261047 0 0 6.0000000000000027 F -29.062351198768393 F -28.395684532101729 #
DXID-attrib $-1 -1 $-1 $141 $105 @18 ASM_EDGE_FROM_STEP @4 7351 #
point $-1 -1 $-1 -156.72869620622501 -167.76068550443352 -19.999999999999975 #
loop $-1 -1 $-1 $225 $144 $124 #
truecolor-adesk-attrib $-1 -1 $230 $-1 $145 -1029457713 #
ellipse-curve $-1 -1 $-1 -112.84855921992354 -235.01511408189148 -15.999999999999989 0 0 -1 -4.9999999999999893 0 0 1 I I #
DXID-attrib $-1 -1 $-1 $146 $107 @18 ASM_EDGE_FROM_STEP @4 7349 #
point $-1 -1 $-1 -107.84855921992374 -235.01511408189148 -15.999999999999989 #
DXID-attrib $-1 -1 $-1 $152 $113 @18 ASM_EDGE_FROM_STEP @4 7347 #
DXID-attrib $-1 -1 $-1 $157 $124 @18 ASM_FACE_FROM_STEP @15 stp-1M-67-13197 #
truecolor-adesk-attrib $-1 -1 $231 $-1 $158 -1029457713 #
loop $-1 -1 $-1 $-1 $161 $158 #
cone-surface $-1 -1 $-1 -154.72869620622501 -213.68311637870787 -17.999999999999982 0 0 -1 61.614049999999985 0 0 1 I I 0 1 61.614049999999985 forward I I I I #
coedge $-1 -1 $-1 $196 $196 $232 $233 reversed $159 $-1 #
coedge $-1 -1 $-1 $232 $161 $198 $234 forward $194 $-1 #
coedge $-1 -1 $-1 $161 $232 $197 $234 reversed $194 $-1 #
truecolor-adesk-attrib $-1 -1 $235 $-1 $162 -1029457713 #
vertex $-1 -1 $-1 $162 $236 #
ellipse-curve $-1 -1 $-1 -154.72869620622501 -213.68311637870787 -19.999999999999982 0 0 1 61.614049999999985 0 0 1 I I #
DXID-attrib $-1 -1 $-1 $164 $130 @18 ASM_FACE_FROM_STEP @15 stp-1M-67-13182 #
truecolor-adesk-attrib $-1 -1 $237 $-1 $165 -1029457713 #
face $238 -1 $-1 $239 $240 $3 $-1 $241 forward single #
loop $-1 -1 $-1 $-1 $242 $165 #
cone-surface $-1 -1 $-1 -191.22869620622504 -213.68311637870787 -17.999999999999982 0 0 -1 10.999999999999993 0 0 1 I I 0 1 10.999999999999993 forward I I I I #
coedge $-1 -1 $-1 $243 $244 $245 $246 forward $166 $-1 #
coedge $-1 -1 $-1 $247 $168 $209 $248 forward $131 $-1 #
coedge $-1 -1 $-1 $168 $247 $208 $248 reversed $131 $-1 #
coedge $-1 -1 $-1 $210 $210 $168 $211 forward $249 $-1 #
edge $250 -1 $-1 $251 -3.1415926535897931 $251 3.1415926535897931 $168 $252 forward @7 unknown #
coedge $-1 -1 $-1 $170 $169 $253 $254 reversed $99 $-1 #
edge $255 -1 $-1 $216 -34.874821438522162 $256 -34.074821438522164 $169 $257 forward @7 unknown #
loop $-1 -1 $-1 $249 $171 $62 #
truecolor-adesk-attrib $-1 -1 $258 $-1 $172 -1029457713 #
vertex $-1 -1 $-1 $172 $259 #
ellipse-curve $-1 -1 $-1 -191.22869620622504 -177.18982716818994 -19.999999999999975 0 0 1 -4.9999999999999893 0 0 1 I I #
coedge $-1 -1 $-1 $218 $218 $173 $219 forward $260 $-1 #
edge $261 -1 $-1 $221 -3.1415926535897931 $221 3.1415926535897931 $173 $262 forward @7 unknown #
truecolor-adesk-attrib $-1 -1 $263 $-1 $174 -1029457713 #
vertex $-1 -1 $-1 $174 $264 #
straight-curve $-1 -1 $-1 -149.72869620622501 -261.18311637870784 154.37410719261047 0 0 4.9999999999999893 F -34.874821438522162 F -34.074821438522164 #
DXID-attrib $-1 -1 $-1 $176 $137 @18 ASM_EDGE_FROM_STEP @4 7354 #
point $-1 -1 $-1 -149.72869620622501 -261.18311637870784 -19.999999999999975 #
loop $-1 -1 $-1 $260 $179 $124 #
truecolor-adesk-attrib $-1 -1 $265 $-1 $180 -1029457713 #
ellipse-curve $-1 -1 $-1 -162.72869620622501 -167.76068550443352 -15.999999999999989 0 0 -1 -6.0000000000000027 0 0 1 I I #
DXID-attrib $-1 -1 $-1 $181 $139 @18 ASM_EDGE_FROM_STEP @4 7352 #
point $-1 -1 $-1 -156.72869620622501 -167.76068550443352 -15.999999999999989 #
DXID-attrib $-1 -1 $-1 $187 $145 @18 ASM_EDGE_FROM_STEP @4 7350 #
DXID-attrib $-1 -1 $-1 $193 $158 @18 ASM_FACE_FROM_STEP @15 stp-1M-67-13198 #
coedge $-1 -1 $-1 $198 $197 $196 $233 forward $194 $-1 #
edge $266 -1 $-1 $267 -3.1415926535897931 $267 3.1415926535897931 $196 $268 forward @7 unknown #
edge $269 -1 $-1 $200 -0.032460128818021232 $267 0.032460128818021232 $197 $270 forward @7 unknown #
DXID-attrib $-1 -1 $-1 $199 $162 @18 ASM_EDGE_FROM_STEP @4 7391 #
point $-1 -1 $-1 -216.342746206225 -213.68311637870787 -19.999999999999982 #
DXID-attrib $-1 -1 $-1 $203 $165 @18 ASM_FACE_FROM_STEP @15 stp-1M-67-13183 #
truecolor-adesk-attrib $-1 -1 $271 $-1 $204 -1029457713 #
face $272 -1 $-1 $273 $274 $3 $-1 $275 reversed single #
loop $-1 -1 $-1 $276 $277 $204 #
plane-surface $-1 -1 $-1 -191.22869620622504 -213.68311637870787 -14.999999999999993 0 0 1 25.399999999999995 0 0 forward_v I I I I #
coedge $-1 -1 $-1 $278 $279 $280 $281 reversed $205 $-1 #
coedge $-1 -1 $-1 $282 $207 $244 $283 forward $166 $-1 #
coedge $-1 -1 $-1 $207 $282 $243 $283 reversed $166 $-1 #
coedge $-1 -1 $-1 $245 $245 $207 $246 reversed $274 $-1 #
edge $284 -1 $-1 $285 -3.1415926535897931 $285 3.1415926535897931 $207 $286 forward @7 unknown #
coedge $-1 -1 $-1 $209 $208 $287 $288 reversed $131 $-1 #
edge $289 -1 $-1 $251 -34.874821438522162 $290 -34.074821438522164 $208 $291 forward @7 unknown #
loop $-1 -1 $-1 $292 $210 $62 #
truecolor-adesk-attrib $-1 -1 $293 $-1 $211 -1029457713 #
vertex $-1 -1 $-1 $211 $294 #
ellipse-curve $-1 -1 $-1 -118.22869620622497 -177.18982716818994 -19.999999999999975 0 0 1 -4.9999999999999893 0 0 1 I I #
coedge $-1 -1 $-1 $253 $253 $212 $254 forward $295 $-1 #
edge $296 -1 $-1 $256 -3.1415926535897931 $256 3.1415926535897931 $212 $297 forward @7 unknown #
truecolor-adesk-attrib $-1 -1 $298 $-1 $213 -1029457713 #
vertex $-1 -1 $-1 $213 $299 #
straight-curve $-1 -1 $-1 -186.22869620622498 -177.18982716818994 154.37410719261047 0 0 4.9999999999999893 F -34.874821438522162 F -34.074821438522164 #
DXID-attrib $-1 -1 $-1 $215 $172 @18 ASM_EDGE_FROM_STEP @4 7357 #
point $-1 -1 $-1 -186.22869620622498 -177.18982716818994 -19.999999999999975 #
loop $-1 -1 $-1 $295 $218 $124 #
truecolor-adesk-attrib $-1 -1 $300 $-1 $219 -1029457713 #
ellipse-curve $-1 -1 $-1 -154.72869620622501 -261.18311637870784 -15.999999999999989 0 0 -1 -4.9999999999999893 0 0 1 I I #
DXID-attrib $-1 -1 $-1 $220 $174 @18 ASM_EDGE_FROM_STEP @4 7355 #
point $-1 -1 $-1 -149.72869620622501 -261.18311637870784 -15.999999999999989 #
DXID-attrib $-1 -1 $-1 $226 $180 @18 ASM_EDGE_FROM_STEP @4 7353 #
truecolor-adesk-attrib $-1 -1 $301 $-1 $233 -1029457713 #
vertex $-1 -1 $-1 $233 $302 #
ellipse-curve $-1 -1 $-1 -154.72869620622501 -213.68311637870787 -15.999999999999982 0 0 -1 61.614049999999985 0 0 1 I I #
truecolor-adesk-attrib $-1 -1 $303 $-1 $234 -1029457713 #
straight-curve $-1 -1 $-1 -216.342746206225 -213.68311637870787 -17.999999999999982 0 0 61.614049999999985 F -0.032460128818021232 F 0.032460128818021232 #
DXID-attrib $-1 -1 $-1 $238 $204 @18 ASM_FACE_FROM_STEP @15 stp-1M-67-13184 #
truecolor-adesk-attrib $-1 -1 $304 $-1 $239 -1029457713 #
face $305 -1 $-1 $306 $307 $3 $-1 $308 forward single #
loop $-1 -1 $-1 $309 $245 $239 #
plane-surface $-1 -1 $-1 -191.22869620622504 -213.68311637870787 -20.999999999999972 0 0 1 25.399999999999995 0 0 forward_v I I I I #
loop $-1 -1 $-1 $-1 $310 $204 #
coedge $-1 -1 $-1 $277 $277 $311 $312 reversed $240 $-1 #
coedge $-1 -1 $-1 $311 $242 $279 $313 forward $205 $-1 #
coedge $-1 -1 $-1 $242 $311 $278 $313 reversed $205 $-1 #
coedge $-1 -1 $-1 $280 $280 $242 $281 forward $314 $-1 #
edge $315 -1 $-1 $316 -3.1415926535897931 $316 3.1415926535897931 $242 $317 forward @7 unknown #
coedge $-1 -1 $-1 $244 $243 $318 $319 reversed $166 $-1 #
edge $320 -1 $-1 $285 -0.27272727272727187 $321 -0.18181818181818199 $243 $322 forward @7 unknown #
truecolor-adesk-attrib $-1 -1 $323 $-1 $246 -1029457713 #
vertex $-1 -1 $-1 $246 $324 #
ellipse-curve $-1 -1 $-1 -191.22869620622504 -213.68311637870787 -20.999999999999972 0 0 1 10.999999999999993 0 0 1 I I #
coedge $-1 -1 $-1 $287 $287 $247 $288 forward $325 $-1 #
edge $326 -1 $-1 $290 -3.1415926535897931 $290 3.1415926535897931 $247 $327 forward @7 unknown #
truecolor-adesk-attrib $-1 -1 $328 $-1 $248 -1029457713 #
vertex $-1 -1 $-1 $248 $329 #
straight-curve $-1 -1 $-1 -113.2286962062249 -177.18982716818994 154.37410719261047 0 0 4.9999999999999893 F -34.874821438522162 F -34.074821438522164 #
loop $-1 -1 $-1 $330 $318 $62 #
DXID-attrib $-1 -1 $-1 $250 $211 @18 ASM_EDGE_FROM_STEP @4 7360 #
point $-1 -1 $-1 -113.2286962062249 -177.18982716818994 -19.999999999999975 #
loop $-1 -1 $-1 $325 $253 $124 #
truecolor-adesk-attrib $-1 -1 $331 $-1 $254 -1029457713 #
ellipse-curve $-1 -1 $-1 -191.22869620622504 -177.18982716818994 -15.999999999999989 0 0 -1 -4.9999999999999893 0 0 1 I I #
DXID-attrib $-1 -1 $-1 $255 $213 @18 ASM_EDGE_FROM_STEP @4 7358 #
point $-1 -1 $-1 -186.22869620622498 -177.18982716818994 -15.999999999999989 #
DXID-attrib $-1 -1 $-1 $261 $219 @18 ASM_EDGE_FROM_STEP @4 7356 #
DXID-attrib $-1 -1 $-1 $266 $233 @18 ASM_EDGE_FROM_STEP @4 7390 #
point $-1 -1 $-1 -216.342746206225 -213.68311637870787 -15.999999999999982 #
DXID-attrib $-1 -1 $-1 $269 $234 @18 ASM_EDGE_FROM_STEP @4 7392 #
DXID-attrib $-1 -1 $-1 $272 $239 @18 ASM_FACE_FROM_STEP @15 stp-1M-67-13185 #
truecolor-adesk-attrib $-1 -1 $332 $-1 $273 -1029457713 #
face $333 -1 $-1 $334 $335 $3 $-1 $336 forward single #
loop $-1 -1 $-1 $-1 $337 $273 #
cone-surface $-1 -1 $-1 -118.22869620622497 -213.68311637870787 -17.999999999999982 0 0 -1 10.999999999999993 0 0 1 I I 0 1 10.999999999999993 forward I I I I #
loop $-1 -1 $-1 $-1 $338 $239 #
coedge $-1 -1 $-1 $310 $310 $339 $340 forward $276 $-1 #
coedge $-1 -1 $-1 $279 $278 $277 $312 forward $205 $-1 #
edge $341 -1 $-1 $342 -3.1415926535897931 $342 3.1415926535897931 $311 $343 forward @7 unknown #
edge $344 -1 $-1 $316 0.18181818181818199 $342 0.27272727272727187 $278 $345 forward @7 unknown #
loop $-1 -1 $-1 $346 $280 $124 #
truecolor-adesk-attrib $-1 -1 $347 $-1 $281 -1029457713 #
vertex $-1 -1 $-1 $281 $348 #
ellipse-curve $-1 -1 $-1 -191.22869620622504 -213.68311637870787 -15.999999999999982 0 0 -1 10.999999999999993 0 0 1 I I #
coedge $-1 -1 $-1 $318 $318 $282 $319 forward $292 $-1 #
edge $349 -1 $-1 $321 -3.1415926535897931 $321 3.1415926535897931 $282 $350 forward @7 unknown #
truecolor-adesk-attrib $-1 -1 $351 $-1 $283 -1029457713 #
vertex $-1 -1 $-1 $283 $352 #
straight-curve $-1 -1 $-1 -202.22869620622498 -213.68311637870787 -17.999999999999982 0 0 10.999999999999993 F -0.27272727272727187 F -0.18181818181818199 #
DXID-attrib $-1 -1 $-1 $284 $246 @18 ASM_EDGE_FROM_STEP @4 7363 #
point $-1 -1 $-1 -202.22869620622498 -213.68311637870787 -20.999999999999972 #
loop $-1 -1 $-1 $314 $287 $124 #
truecolor-adesk-attrib $-1 -1 $353 $-1 $288 -1029457713 #
ellipse-curve $-1 -1 $-1 -118.22869620622497 -177.18982716818994 -15.999999999999989 0 0 -1 -4.9999999999999893 0 0 1 I I #
DXID-attrib $-1 -1 $-1 $289 $248 @18 ASM_EDGE_FROM_STEP @4 7361 #
point $-1 -1 $-1 -113.2286962062249 -177.18982716818994 -15.999999999999989 #
loop $-1 -1 $-1 $354 $355 $62 #
DXID-attrib $-1 -1 $-1 $296 $254 @18 ASM_EDGE_FROM_STEP @4 7359 #
DXID-attrib $-1 -1 $-1 $305 $273 @18 ASM_FACE_FROM_STEP @15 stp-1M-67-13186 #
truecolor-adesk-attrib $-1 -1 $356 $-1 $306 -1029457713 #
face $357 -1 $-1 $358 $359 $3 $-1 $360 forward single #
loop $-1 -1 $-1 $-1 $361 $306 #
cone-surface $-1 -1 $-1 -118.22869620622497 -213.68311637870787 -17.999999999999982 0 0 -1 10.999999999999993 0 0 1 I I 0 1 10.999999999999993 forward I I I I #
coedge $-1 -1 $-1 $362 $363 $364 $365 forward $307 $-1 #
coedge $-1 -1 $-1 $338 $338 $366 $367 forward $309 $-1 #
coedge $-1 -1 $-1 $368 $369 $310 $340 reversed $370 $-1 #
edge $371 -1 $-1 $372 1.2246467991473436e-16 $372 6.2831853071795862 $310 $373 forward @7 unknown #
truecolor-adesk-attrib $-1 -1 $374 $-1 $312 -1029457713 #
vertex $-1 -1 $-1 $313 $375 #
ellipse-curve $-1 -1 $-1 -191.22869620622504 -213.68311637870787 -14.999999999999993 0 0 -1 10.999999999999993 0 0 1 I I #
truecolor-adesk-attrib $-1 -1 $376 $-1 $313 -1029457713 #
straight-curve $-1 -1 $-1 -202.22869620622498 -213.68311637870787 -17.999999999999982 0 0 10.999999999999993 F 0.18181818181818199 F 0.27272727272727187 #
loop $-1 -1 $-1 $377 $378 $124 #
DXID-attrib $-1 -1 $-1 $315 $281 @18 ASM_EDGE_FROM_STEP @4 7366 #
point $-1 -1 $-1 -202.22869620622498 -213.68311637870787 -15.999999999999982 #
truecolor-adesk-attrib $-1 -1 $379 $-1 $319 -1029457713 #
ellipse-curve $-1 -1 $-1 -191.22869620622504 -213.68311637870787 -19.999999999999982 0 0 1 10.999999999999993 0 0 1 I I #
DXID-attrib $-1 -1 $-1 $320 $283 @18 ASM_EDGE_FROM_STEP @4 7364 #
point $-1 -1 $-1 -202.22869620622498 -213.68311637870787 -19.999999999999982 #
DXID-attrib $-1 -1 $-1 $326 $288 @18 ASM_EDGE_FROM_STEP @4 7362 #
loop $-1 -1 $-1 $-1 $380 $62 #
coedge $-1 -1 $-1 $355 $355 $381 $382 forward $330 $-1 #
DXID-attrib $-1 -1 $-1 $333 $306 @18 ASM_FACE_FROM_STEP @15 stp-1M-67-13187 #
truecolor-adesk-attrib $-1 -1 $383 $-1 $334 -1029457713 #
face $384 -1 $-1 $385 $386 $3 $-1 $387 reversed single #
loop $-1 -1 $-1 $388 $389 $334 #
plane-surface $-1 -1 $-1 -118.22869620622497 -213.68311637870787 -14.999999999999993 0 0 1 25.399999999999995 0 0 forward_v I I I I #
coedge $-1 -1 $-1 $390 $391 $378 $392 reversed $335 $-1 #
coedge $-1 -1 $-1 $381 $337 $363 $393 forward $307 $-1 #
coedge $-1 -1 $-1 $337 $381 $362 $393 reversed $307 $-1 #
coedge $-1 -1 $-1 $364 $364 $337 $365 reversed $386 $-1 #
edge $394 -1 $-1 $395 -3.1415926535897931 $395 3.1415926535897931 $337 $396 forward @7 unknown #
coedge $-1 -1 $-1 $369 $368 $338 $367 reversed $370 $-1 #
edge $397 -1 $-1 $398 -1.2246467991473436e-16 $398 6.2831853071795862 $338 $399 forward @7 unknown #
coedge $-1 -1 $-1 $366 $339 $369 $400 reversed $370 $-1 #
coedge $-1 -1 $-1 $339 $366 $368 $400 forward $370 $-1 #
loop $-1 -1 $-1 $-1 $366 $401 #
truecolor-adesk-attrib $-1 -1 $402 $-1 $340 -1029457713 #
vertex $-1 -1 $-1 $340 $403 #
ellipse-curve $-1 -1 $-1 -191.22869620622504 -213.68311637870787 -14.999999999999993 0 0 -1 4.500000000000008 0 0 1 I I #
DXID-attrib $-1 -1 $-1 $341 $312 @18 ASM_EDGE_FROM_STEP @4 7368 #
point $-1 -1 $-1 -202.22869620622498 -213.68311637870787 -14.999999999999993 #
DXID-attrib $-1 -1 $-1 $344 $313 @18 ASM_EDGE_FROM_STEP @4 7367 #
loop $-1 -1 $-1 $-1 $404 $124 #
coedge $-1 -1 $-1 $378 $378 $361 $392 forward $346 $-1 #
DXID-attrib $-1 -1 $-1 $349 $319 @18 ASM_EDGE_FROM_STEP @4 7365 #
coedge $-1 -1 $-1 $380 $380 $405 $406 forward $354 $-1 #
coedge $-1 -1 $-1 $363 $362 $355 $382 reversed $307 $-1 #
edge $407 -1 $-1 $408 -3.1415926535897931 $408 3.1415926535897931 $381 $409 forward @7 unknown #
DXID-attrib $-1 -1 $-1 $357 $334 @18 ASM_FACE_FROM_STEP @15 stp-1M-67-13188 #
truecolor-adesk-attrib $-1 -1 $410 $-1 $358 -1029457713 #
face $411 -1 $-1 $401 $412 $3 $-1 $413 reversed single #
loop $-1 -1 $-1 $414 $364 $358 #
plane-surface $-1 -1 $-1 -118.22869620622497 -213.68311637870787 -20.999999999999972 0 0 1 25.399999999999995 0 0 forward_v I I I I #
loop $-1 -1 $-1 $-1 $415 $334 #
coedge $-1 -1 $-1 $389 $389 $416 $417 reversed $359 $-1 #
coedge $-1 -1 $-1 $416 $361 $391 $418 forward $335 $-1 #
coedge $-1 -1 $-1 $361 $416 $390 $418 reversed $335 $-1 #
edge $419 -1 $-1 $420 -3.1415926535897931 $420 3.1415926535897931 $361 $421 forward @7 unknown #
edge $422 -1 $-1 $395 -0.27272727272727187 $408 -0.18181818181818199 $362 $423 forward @7 unknown #
truecolor-adesk-attrib $-1 -1 $424 $-1 $365 -1029457713 #
vertex $-1 -1 $-1 $365 $425 #
ellipse-curve $-1 -1 $-1 -118.22869620622497 -213.68311637870787 -20.999999999999972 0 0 1 10.999999999999993 0 0 1 I I #
truecolor-adesk-attrib $-1 -1 $426 $-1 $367 -1029457713 #
vertex $-1 -1 $-1 $367 $427 #
ellipse-curve $-1 -1 $-1 -191.22869620622504 -213.68311637870787 -20.999999999999972 0 0 1 4.500000000000008 0 0 1 I I #
edge $428 -1 $-1 $398 -38.972023820580027 $372 -37.638690487246691 $369 $429 forward @7 unknown #
face $430 -1 $-1 $431 $370 $3 $-1 $432 reversed single #
DXID-attrib $-1 -1 $-1 $371 $340 @18 ASM_EDGE_FROM_STEP @4 7369 #
point $-1 -1 $-1 -186.72869620622501 -213.68311637870787 -14.999999999999968 #
coedge $-1 -1 $-1 $404 $404 $433 $434 forward $377 $-1 #
coedge $-1 -1 $-1 $435 $436 $380 $406 reversed $437 $-1 #
edge $438 -1 $-1 $439 -3.1415926535897931 $439 3.1415926535897931 $405 $440 forward @7 unknown #
truecolor-adesk-attrib $-1 -1 $441 $-1 $382 -1029457713 #
vertex $-1 -1 $-1 $393 $442 #
ellipse-curve $-1 -1 $-1 -118.22869620622497 -213.68311637870787 -19.999999999999982 0 0 1 10.999999999999993 0 0 1 I I #
DXID-attrib $-1 -1 $-1 $384 $358 @18 ASM_FACE_FROM_STEP @15 stp-1M-67-13189 #
truecolor-adesk-attrib $-1 -1 $443 $-1 $385 -1029457713 #
loop $-1 -1 $-1 $-1 $444 $385 #
cone-surface $-1 -1 $-1 -118.22869620622497 -213.68311637870787 154.37410719261047 0 0 -1 -4.500000000000008 0 0 1 I I 0 1 4.500000000000008 forward I I I I #
loop $-1 -1 $-1 $-1 $445 $358 #
coedge $-1 -1 $-1 $415 $415 $446 $447 forward $388 $-1 #
coedge $-1 -1 $-1 $391 $390 $389 $417 forward $335 $-1 #
edge $448 -1 $-1 $449 -3.1415926535897931 $449 3.1415926535897931 $416 $450 forward @7 unknown #
edge $451 -1 $-1 $420 0.18181818181818199 $449 0.27272727272727187 $390 $452 forward @7 unknown #
truecolor-adesk-attrib $-1 -1 $453 $-1 $392 -1029457713 #
vertex $-1 -1 $-1 $392 $454 #
ellipse-curve $-1 -1 $-1 -118.22869620622497 -213.68311637870787 -15.999999999999982 0 0 -1 10.999999999999993 0 0 1 I I #
truecolor-adesk-attrib $-1 -1 $455 $-1 $393 -1029457713 #
straight-curve $-1 -1 $-1 -129.2286962062249 -213.68311637870787 -17.999999999999982 0 0 10.999999999999993 F -0.27272727272727187 F -0.18181818181818199 #
DXID-attrib $-1 -1 $-1 $394 $365 @18 ASM_EDGE_FROM_STEP @4 7371 #
point $-1 -1 $-1 -129.2286962062249 -213.68311637870787 -20.999999999999972 #
DXID-attrib $-1 -1 $-1 $397 $367 @18 ASM_EDGE_FROM_STEP @4 7370 #
point $-1 -1 $-1 -186.72869620622501 -213.68311637870787 -20.999999999999996 #
truecolor-adesk-attrib $-1 -1 $456 $-1 $400 -1029457713 #
straight-curve $-1 -1 $-1 -186.72869620622501 -213.68311637870787 154.37410719261047 0 0 4.500000000000008 F -38.972023820580027 F -37.638690487246691 #
truecolor-adesk-attrib $-1 -1 $457 $-1 $401 -1029457713 #
face $458 -1 $-1 $459 $460 $3 $-1 $461 reversed single #
cone-surface $-1 -1 $-1 -191.22869620622504 -213.68311637870787 154.37410719261047 0 0 -1 -4.500000000000008 0 0 1 I I 0 1 4.500000000000008 forward I I I I #
coedge $-1 -1 $-1 $462 $463 $404 $434 reversed $464 $-1 #
edge $465 -1 $-1 $466 -3.1415926535897931 $466 3.1415926535897931 $433 $467 forward @7 unknown #
coedge $-1 -1 $-1 $468 $405 $436 $469 reversed $437 $-1 #
coedge $-1 -1 $-1 $405 $468 $435 $469 forward $437 $-1 #
loop $-1 -1 $-1 $-1 $468 $459 #
truecolor-adesk-attrib $-1 -1 $470 $-1 $406 -1029457713 #
vertex $-1 -1 $-1 $469 $471 #
ellipse-curve $-1 -1 $-1 -154.72869620622501 -213.68311637870787 -19.999999999999982 0 0 1 24.999999999999996 0 0 1 I I #
DXID-attrib $-1 -1 $-1 $407 $382 @18 ASM_EDGE_FROM_STEP @4 7373 #
point $-1 -1 $-1 -129.2286962062249 -213.68311637870787 -19.999999999999982 #
DXID-attrib $-1 -1 $-1 $411 $385 @18 ASM_FACE_FROM_STEP @15 stp-1M-67-13190 #
coedge $-1 -1 $-1 $472 $473 $445 $474 reversed $412 $-1 #
coedge $-1 -1 $-1 $445 $445 $444 $474 forward $414 $-1 #
coedge $-1 -1 $-1 $473 $472 $415 $447 reversed $412 $-1 #
edge $475 -1 $-1 $476 1.2246467991473426e-16 $476 6.2831853071795862 $415 $477 forward @7 unknown #
truecolor-adesk-attrib $-1 -1 $478 $-1 $417 -1029457713 #
vertex $-1 -1 $-1 $418 $479 #
ellipse-curve $-1 -1 $-1 -118.22869620622497 -213.68311637870787 -14.999999999999993 0 0 -1 10.999999999999993 0 0 1 I I #
truecolor-adesk-attrib $-1 -1 $480 $-1 $418 -1029457713 #
straight-curve $-1 -1 $-1 -129.2286962062249 -213.68311637870787 -17.999999999999982 0 0 10.999999999999993 F 0.18181818181818199 F 0.27272727272727187 #
DXID-attrib $-1 -1 $-1 $419 $392 @18 ASM_EDGE_FROM_STEP @4 7374 #
point $-1 -1 $-1 -129.2286962062249 -213.68311637870787 -15.999999999999982 #
DXID-attrib $-1 -1 $-1 $422 $393 @18 ASM_EDGE_FROM_STEP @4 7372 #
DXID-attrib $-1 -1 $-1 $428 $400 @18 ASM_EDGE_FROM_STEP @4 7380 #
DXID-attrib $-1 -1 $-1 $430 $401 @18 ASM_FACE_FROM_STEP @15 stp-1M-67-13191 #
truecolor-adesk-attrib $-1 -1 $481 $-1 $431 -1029457713 #
face $482 -1 $-1 $483 $437 $3 $-1 $484 forward single #
loop $-1 -1 $-1 $-1 $485 $431 #
cone-surface $-1 -1 $-1 -154.72869620622501 -213.68311637870787 153.37410719261041 0 0 -1 -5.4999999999999964 0 0 1 I I 0 1 5.4999999999999964 forward I I I I #
coedge $-1 -1 $-1 $486 $433 $463 $487 forward $464 $-1 #
coedge $-1 -1 $-1 $433 $486 $462 $487 reversed $464 $-1 #
loop $-1 -1 $-1 $-1 $433 $483 #
truecolor-adesk-attrib $-1 -1 $488 $-1 $434 -1029457713 #
vertex $-1 -1 $-1 $434 $489 #
ellipse-curve $-1 -1 $-1 -154.72869620622501 -213.68311637870787 -15.999999999999982 0 0 -1 24.999999999999996 0 0 1 I I #
coedge $-1 -1 $-1 $436 $435 $490 $491 forward $437 $-1 #
edge $492 -1 $-1 $493 -0.11999999999999955 $439 -0.080000000000000043 $436 $494 forward @7 unknown #
DXID-attrib $-1 -1 $-1 $438 $406 @18 ASM_EDGE_FROM_STEP @4 7386 #
point $-1 -1 $-1 -179.72869620622501 -213.68311637870787 -19.999999999999982 #
coedge $-1 -1 $-1 $446 $444 $473 $495 forward $412 $-1 #
coedge $-1 -1 $-1 $444 $446 $472 $495 reversed $412 $-1 #
edge $496 -1 $-1 $497 -1.2246467991473426e-16 $497 6.2831853071795862 $445 $498 forward @7 unknown #
truecolor-adesk-attrib $-1 -1 $499 $-1 $447 -1029457713 #
vertex $-1 -1 $-1 $447 $500 #
ellipse-curve $-1 -1 $-1 -118.22869620622497 -213.68311637870787 -14.999999999999993 0 0 -1 4.500000000000008 0 0 1 I I #
DXID-attrib $-1 -1 $-1 $448 $417 @18 ASM_EDGE_FROM_STEP @4 7376 #
point $-1 -1 $-1 -129.2286962062249 -213.68311637870787 -14.999999999999993 #
DXID-attrib $-1 -1 $-1 $451 $418 @18 ASM_EDGE_FROM_STEP @4 7375 #
DXID-attrib $-1 -1 $-1 $458 $431 @18 ASM_FACE_FROM_STEP @15 stp-1M-67-13192 #
truecolor-adesk-attrib $-1 -1 $501 $-1 $459 -1029457713 #
face $502 -1 $-1 $503 $464 $3 $-1 $504 forward single #
cone-surface $-1 -1 $-1 -154.72869620622501 -213.68311637870787 -17.999999999999982 0 0 -1 24.999999999999996 0 0 1 I I 0 1 24.999999999999996 forward I I I I #
coedge $-1 -1 $-1 $505 $506 $507 $508 reversed $460 $-1 #
coedge $-1 -1 $-1 $463 $462 $509 $510 forward $464 $-1 #
edge $511 -1 $-1 $466 0.080000000000000043 $512 0.11999999999999955 $462 $513 forward @7 unknown #
DXID-attrib $-1 -1 $-1 $465 $434 @18 ASM_EDGE_FROM_STEP @4 7387 #
point $-1 -1 $-1 -179.72869620622501 -213.68311637870787 -15.999999999999982 #
coedge $-1 -1 $-1 $490 $490 $468 $491 reversed $514 $-1 #
edge $515 -1 $-1 $493 -3.1415926535897931 $493 3.1415926535897931 $468 $516 forward @7 unknown #
truecolor-adesk-attrib $-1 -1 $517 $-1 $469 -1029457713 #
vertex $-1 -1 $-1 $491 $518 #
straight-curve $-1 -1 $-1 -179.72869620622501 -213.68311637870787 -17.999999999999982 0 0 24.999999999999996 F -0.11999999999999955 F -0.080000000000000043 #
edge $519 -1 $-1 $497 -38.972023820580027 $476 -37.638690487246691 $472 $520 forward @7 unknown #
truecolor-adesk-attrib $-1 -1 $521 $-1 $474 -1029457713 #
vertex $-1 -1 $-1 $474 $522 #
ellipse-curve $-1 -1 $-1 -118.22869620622497 -213.68311637870787 -20.999999999999972 0 0 1 4.500000000000008 0 0 1 I I #
DXID-attrib $-1 -1 $-1 $475 $447 @18 ASM_EDGE_FROM_STEP @4 7377 #
point $-1 -1 $-1 -113.72869620622492 -213.68311637870787 -14.999999999999968 #
DXID-attrib $-1 -1 $-1 $482 $459 @18 ASM_FACE_FROM_STEP @15 stp-1M-67-13193 #
truecolor-adesk-attrib $-1 -1 $523 $-1 $483 -1029457713 #
face $524 -1 $-1 $525 $526 $3 $-1 $527 forward single #
cone-surface $-1 -1 $-1 -154.72869620622501 -213.68311637870787 -17.999999999999982 0 0 -1 24.999999999999996 0 0 1 I I 0 1 24.999999999999996 forward I I I I #
coedge $-1 -1 $-1 $528 $485 $506 $529 forward $460 $-1 #
coedge $-1 -1 $-1 $485 $528 $505 $529 reversed $460 $-1 #
coedge $-1 -1 $-1 $507 $507 $485 $508 forward $530 $-1 #
edge $531 -1 $-1 $532 -3.1415926535897931 $532 3.1415926535897931 $485 $533 forward @7 unknown #
coedge $-1 -1 $-1 $509 $509 $486 $510 reversed $526 $-1 #
edge $534 -1 $-1 $512 -3.1415926535897931 $512 3.1415926535897931 $486 $535 forward @7 unknown #
truecolor-adesk-attrib $-1 -1 $536 $-1 $487 -1029457713 #
vertex $-1 -1 $-1 $487 $537 #
straight-curve $-1 -1 $-1 -179.72869620622501 -213.68311637870787 -17.999999999999982 0 0 24.999999999999996 F 0.080000000000000043 F 0.11999999999999955 #
loop $-1 -1 $-1 $530 $490 $525 #
truecolor-adesk-attrib $-1 -1 $538 $-1 $491 -1029457713 #
ellipse-curve $-1 -1 $-1 -154.72869620622501 -213.68311637870787 -20.999999999999972 0 0 1 24.999999999999996 0 0 1 I I #
DXID-attrib $-1 -1 $-1 $492 $469 @18 ASM_EDGE_FROM_STEP @4 7385 #
point $-1 -1 $-1 -179.72869620622501 -213.68311637870787 -20.999999999999972 #
truecolor-adesk-attrib $-1 -1 $539 $-1 $495 -1029457713 #
straight-curve $-1 -1 $-1 -113.72869620622492 -213.68311637870787 154.37410719261047 0 0 4.500000000000008 F -38.972023820580027 F -37.638690487246691 #
DXID-attrib $-1 -1 $-1 $496 $474 @18 ASM_EDGE_FROM_STEP @4 7378 #
point $-1 -1 $-1 -113.72869620622492 -213.68311637870787 -20.999999999999996 #
DXID-attrib $-1 -1 $-1 $502 $483 @18 ASM_FACE_FROM_STEP @15 stp-1M-67-13194 #
truecolor-adesk-attrib $-1 -1 $540 $-1 $503 -1029457713 #
face $541 -1 $-1 $124 $514 $3 $-1 $542 reversed single #
loop $-1 -1 $-1 $543 $509 $503 #
plane-surface $-1 -1 $-1 -154.72869620622501 -213.68311637870787 -14.999999999999993 0 0 1 25.399999999999995 0 0 forward_v I I I I #
coedge $-1 -1 $-1 $506 $505 $544 $545 reversed $460 $-1 #
edge $546 -1 $-1 $532 -31.704383125929184 $547 -30.61347403502009 $505 $548 forward @7 unknown #
loop $-1 -1 $-1 $-1 $507 $525 #
truecolor-adesk-attrib $-1 -1 $549 $-1 $508 -1029457713 #
vertex $-1 -1 $-1 $508 $550 #
ellipse-curve $-1 -1 $-1 -154.72869620622501 -213.68311637870787 -20.999999999999996 0 0 1 -5.4999999999999964 0 0 1 I I #
truecolor-adesk-attrib $-1 -1 $551 $-1 $510 -1029457713 #
ellipse-curve $-1 -1 $-1 -154.72869620622501 -213.68311637870787 -14.999999999999993 0 0 -1 24.999999999999996 0 0 1 I I #
DXID-attrib $-1 -1 $-1 $511 $487 @18 ASM_EDGE_FROM_STEP @4 7388 #
point $-1 -1 $-1 -179.72869620622501 -213.68311637870787 -14.999999999999993 #
DXID-attrib $-1 -1 $-1 $515 $491 @18 ASM_EDGE_FROM_STEP @4 7384 #
DXID-attrib $-1 -1 $-1 $519 $495 @18 ASM_EDGE_FROM_STEP @4 7379 #
DXID-attrib $-1 -1 $-1 $524 $503 @18 ASM_FACE_FROM_STEP @15 stp-1M-67-13195 #
truecolor-adesk-attrib $-1 -1 $552 $-1 $525 -1029457713 #
plane-surface $-1 -1 $-1 -154.72869620622501 -213.68311637870787 -20.999999999999972 0 0 1 25.399999999999995 0 0 forward_v I I I I #
loop $-1 -1 $-1 $-1 $544 $503 #
coedge $-1 -1 $-1 $544 $544 $528 $545 forward $543 $-1 #
edge $553 -1 $-1 $547 -3.1415926535897931 $547 3.1415926535897931 $528 $554 forward @7 unknown #
truecolor-adesk-attrib $-1 -1 $555 $-1 $529 -1029457713 #
vertex $-1 -1 $-1 $529 $556 #
straight-curve $-1 -1 $-1 -149.22869620622501 -213.68311637870787 153.37410719261041 0 0 5.4999999999999964 F -31.704383125929184 F -30.61347403502009 #
DXID-attrib $-1 -1 $-1 $531 $508 @18 ASM_EDGE_FROM_STEP @4 7381 #
point $-1 -1 $-1 -149.22869620622501 -213.68311637870787 -20.999999999999996 #
DXID-attrib $-1 -1 $-1 $534 $510 @18 ASM_EDGE_FROM_STEP @4 7389 #
DXID-attrib $-1 -1 $-1 $541 $525 @18 ASM_FACE_FROM_STEP @15 stp-1M-67-13196 #
truecolor-adesk-attrib $-1 -1 $557 $-1 $545 -1029457713 #
ellipse-curve $-1 -1 $-1 -154.72869620622501 -213.68311637870787 -14.999999999999968 0 0 -1 -5.4999999999999964 0 0 1 I I #
DXID-attrib $-1 -1 $-1 $546 $529 @18 ASM_EDGE_FROM_STEP @4 7382 #
point $-1 -1 $-1 -149.22869620622501 -213.68311637870787 -14.999999999999968 #
DXID-attrib $-1 -1 $-1 $553 $545 @18 ASM_EDGE_FROM_STEP @4 7383 #
