700 170 1 0         
5 ZWCAD 12 ACIS 28.0 NT 24 Mon May 13 17:20:35 2024 
1 9.9999999999999995e-07 1e-10 
body $1 -1 $-1 $2 $-1 $-1 #
DXID-attrib $-1 -1 $-1 $-1 $0 @18 ASM_BODY_FROM_STEP @83 513B9CBADC0EC3FBB3C0096B6471FBDF9DC9207E|:|BADD41E43BF4DAA8780560ADA337A9FE926775DB #
lump $-1 -1 $-1 $-1 $3 $0 #
shell $-1 -1 $-1 $-1 $-1 $4 $-1 $2 #
face $5 -1 $-1 $6 $7 $3 $-1 $8 reversed single #
truecolor-adesk-attrib $-1 -1 $9 $-1 $4 -1026443892 #
face $10 -1 $-1 $11 $12 $3 $-1 $13 reversed single #
loop $-1 -1 $-1 $14 $15 $4 #
cone-surface $-1 -1 $-1 479.0288594916837 598.31109649284849 30 5.1297808262237582e-18 2.4671620145283601e-17 -1 -24.622239599256019 -4.3295862523835718 -2.3312460000000033e-16 1 I I 0 1 25 forward I I I I #
DXID-attrib $-1 -1 $-1 $5 $4 @18 ASM_FACE_FROM_STEP @16 stp-2M-167-27762 #
truecolor-adesk-attrib $-1 -1 $16 $-1 $6 -1026443892 #
face $17 -1 $-1 $18 $19 $3 $-1 $20 forward single #
loop $-1 -1 $-1 $21 $22 $6 #
cone-surface $-1 -1 $-1 547.97113036960025 610.43393799952253 30 5.1297808262237582e-18 2.4671620145283601e-17 -1 -14.773343759553612 -2.5977517514301427 -1.398747600000002e-16 1 I I 0 1 15 forward I I I I #
loop $-1 -1 $-1 $-1 $23 $4 #
coedge $-1 -1 $-1 $15 $15 $24 $25 reversed $7 $-1 #
DXID-attrib $-1 -1 $-1 $10 $6 @18 ASM_FACE_FROM_STEP @16 stp-2M-167-27763 #
truecolor-adesk-attrib $-1 -1 $26 $-1 $11 -1026443892 #
face $27 -1 $-1 $28 $29 $3 $-1 $30 forward single #
loop $-1 -1 $-1 $-1 $31 $11 #
plane-surface $-1 -1 $-1 553.84262800747922 639.15373858262308 30 0.20029777419323022 0.97973506707335822 2.5199135099439572e-17 -5.1297808262237582e-18 -2.4671620145283601e-17 1 forward_v I I I I #
loop $-1 -1 $-1 $-1 $32 $6 #
coedge $-1 -1 $-1 $22 $22 $33 $34 reversed $12 $-1 #
coedge $-1 -1 $-1 $23 $23 $35 $36 reversed $14 $-1 #
coedge $-1 -1 $-1 $24 $24 $15 $25 forward $37 $-1 #
edge $38 -1 $-1 $39 0 $39 6.2831853071795862 $15 $40 forward @7 unknown #
DXID-attrib $-1 -1 $-1 $17 $11 @18 ASM_FACE_FROM_STEP @16 stp-2M-167-27764 #
truecolor-adesk-attrib $-1 -1 $41 $-1 $18 -1026443892 #
face $42 -1 $-1 $43 $44 $3 $-1 $45 forward single #
loop $-1 -1 $-1 $-1 $46 $18 #
cone-surface $-1 -1 $-1 479.0288594916837 598.31109649284849 30 5.1297808262237582e-18 2.4671620145283601e-17 -1 54.168927118363243 9.525089755243858 5.1287412000000073e-16 1 I I 0 1 55 forward I I I I #
coedge $-1 -1 $-1 $47 $48 $49 $50 forward $19 $-1 #
coedge $-1 -1 $-1 $32 $32 $51 $52 reversed $21 $-1 #
coedge $-1 -1 $-1 $33 $33 $22 $34 forward $53 $-1 #
edge $54 -1 $-1 $55 0 $55 6.2831853071795862 $22 $56 forward @7 unknown #
coedge $-1 -1 $-1 $35 $35 $23 $36 forward $57 $-1 #
edge $58 -1 $-1 $59 0 $59 6.2831853071795862 $23 $60 forward @7 unknown #
loop $-1 -1 $-1 $53 $24 $61 #
truecolor-adesk-attrib $-1 -1 $62 $-1 $25 -1026443892 #
vertex $-1 -1 $-1 $25 $63 #
ellipse-curve $-1 -1 $-1 479.0288594916837 598.31109649284849 0 -5.1297808262237582e-18 -2.4671620145283601e-17 1 -24.622239599256019 -4.3295862523835718 -2.3312460000000033e-16 1 I I #
DXID-attrib $-1 -1 $-1 $27 $18 @18 ASM_FACE_FROM_STEP @16 stp-2M-167-27765 #
truecolor-adesk-attrib $-1 -1 $64 $-1 $28 -1026443892 #
face $65 -1 $-1 $66 $67 $3 $-1 $68 forward single #
loop $-1 -1 $-1 $-1 $69 $28 #
plane-surface $-1 -1 $-1 507.76652564833074 551.41603765005482 30 0.52250302102995383 -0.85263743350533905 -1.8355620902169786e-17 -5.1297808262237582e-18 -2.4671620145283601e-17 1 forward_v I I I I #
coedge $-1 -1 $-1 $70 $71 $72 $73 forward $29 $-1 #
coedge $-1 -1 $-1 $74 $31 $71 $75 reversed $19 $-1 #
coedge $-1 -1 $-1 $31 $74 $76 $77 forward $19 $-1 #
coedge $-1 -1 $-1 $78 $72 $31 $50 reversed $79 $-1 #
edge $80 -1 $-1 $81 0 $82 0.065116982212081384 $31 $83 forward @7 unknown #
coedge $-1 -1 $-1 $51 $51 $32 $52 forward $84 $-1 #
edge $85 -1 $-1 $86 0 $86 6.2831853071795862 $32 $87 forward @7 unknown #
loop $-1 -1 $-1 $-1 $33 $61 #
truecolor-adesk-attrib $-1 -1 $88 $-1 $34 -1026443892 #
vertex $-1 -1 $-1 $34 $89 #
ellipse-curve $-1 -1 $-1 547.97113036960025 610.43393799952253 0 -5.1297808262237582e-18 -2.4671620145283601e-17 1 -14.773343759553612 -2.5977517514301427 -1.398747600000002e-16 1 I I #
loop $-1 -1 $-1 $84 $35 $66 #
truecolor-adesk-attrib $-1 -1 $90 $-1 $36 -1026443892 #
vertex $-1 -1 $-1 $36 $91 #
ellipse-curve $-1 -1 $-1 479.0288594916837 598.31109649284849 30 5.1297808262237582e-18 2.4671620145283601e-17 -1 -24.622239599256019 -4.3295862523835718 -2.3312460000000033e-16 1 I I #
face $92 -1 $-1 $-1 $79 $3 $-1 $93 forward single #
DXID-attrib $-1 -1 $-1 $38 $25 @18 ASM_EDGE_FROM_STEP @5 14625 #
point $-1 -1 $-1 454.40661989242773 593.98151024046501 0 #
DXID-attrib $-1 -1 $-1 $42 $28 @18 ASM_FACE_FROM_STEP @16 stp-2M-167-27766 #
truecolor-adesk-attrib $-1 -1 $94 $-1 $43 -1026443892 #
face $95 -1 $-1 $61 $96 $3 $-1 $97 reversed single #
loop $-1 -1 $-1 $-1 $76 $43 #
cone-surface $-1 -1 $-1 547.97113036960025 610.43393799952253 30 5.1297808262237582e-18 2.4671620145283601e-17 -1 28.87089928555184 5.076672580363196 2.7335112309555857e-16 1 I I 0 1 29.313843658665601 forward I I I I #
coedge $-1 -1 $-1 $98 $99 $100 $101 forward $44 $-1 #
coedge $-1 -1 $-1 $102 $46 $99 $103 reversed $29 $-1 #
coedge $-1 -1 $-1 $46 $102 $47 $75 forward $29 $-1 #
coedge $-1 -1 $-1 $49 $100 $46 $73 reversed $79 $-1 #
edge $104 -1 $-1 $82 1.1950734339894744 $105 5.0881118731901118 $46 $106 forward @7 unknown #
coedge $-1 -1 $-1 $48 $47 $107 $108 forward $19 $-1 #
edge $109 -1 $-1 $110 0 $82 0.029999999999999999 $47 $111 forward @7 unknown #
coedge $-1 -1 $-1 $112 $113 $48 $77 reversed $67 $-1 #
edge $114 -1 $-1 $115 0 $81 0.029999999999999999 $48 $116 forward @7 unknown #
coedge $-1 -1 $-1 $100 $49 $113 $117 reversed $79 $-1 #
loop $-1 -1 $-1 $37 $78 $61 #
truecolor-adesk-attrib $-1 -1 $118 $-1 $50 -1026443892 #
vertex $-1 -1 $-1 $50 $119 #
vertex $-1 -1 $-1 $50 $120 #
straight-curve $-1 -1 $-1 553.84262800747922 639.15373858262308 0 -979.7350670733581 200.2977741932302 -8.4155561010795267e-17 F 0 F 0.065116982212081384 #
loop $-1 -1 $-1 $-1 $51 $66 #
truecolor-adesk-attrib $-1 -1 $121 $-1 $52 -1026443892 #
vertex $-1 -1 $-1 $52 $122 #
ellipse-curve $-1 -1 $-1 547.97113036960025 610.43393799952253 30 5.1297808262237582e-18 2.4671620145283601e-17 -1 -14.773343759553612 -2.5977517514301427 -1.398747600000002e-16 1 I I #
DXID-attrib $-1 -1 $-1 $54 $34 @18 ASM_EDGE_FROM_STEP @5 14627 #
point $-1 -1 $-1 533.19778661004659 607.8361862480923 0 #
DXID-attrib $-1 -1 $-1 $58 $36 @18 ASM_EDGE_FROM_STEP @5 14626 #
point $-1 -1 $-1 454.40661989242773 593.98151024046501 30 #
truecolor-adesk-attrib $-1 -1 $123 $-1 $61 -1026443892 #
plane-surface $-1 -1 $-1 548.99559416089619 610.61408019694443 0 5.1297808262237582e-18 2.4671620145283601e-17 -1 0.98488958397024073 0.17318345009534286 9.3249840000000133e-18 forward_v I I I I #
DXID-attrib $-1 -1 $-1 $65 $43 @18 ASM_FACE_FROM_STEP @16 stp-2M-167-27767 #
truecolor-adesk-attrib $-1 -1 $124 $-1 $66 -1026443892 #
loop $-1 -1 $-1 $57 $125 $66 #
plane-surface $-1 -1 $-1 548.99559416089619 610.61408019694443 30 5.1297808262237582e-18 2.4671620145283601e-17 -1 0.98488958397024073 0.17318345009534286 9.3249840000000133e-18 forward_v I I I I #
coedge $-1 -1 $-1 $126 $69 $127 $128 reversed $44 $-1 #
coedge $-1 -1 $-1 $69 $126 $70 $103 forward $44 $-1 #
coedge $-1 -1 $-1 $72 $78 $69 $101 reversed $79 $-1 #
edge $129 -1 $-1 $105 0 $130 0.065116982212081412 $69 $131 forward @7 unknown #
coedge $-1 -1 $-1 $71 $70 $132 $133 forward $29 $-1 #
edge $134 -1 $-1 $135 0 $105 0.029999999999999999 $70 $136 forward @7 unknown #
truecolor-adesk-attrib $-1 -1 $137 $-1 $73 -1026443892 #
vertex $-1 -1 $-1 $73 $138 #
ellipse-curve $-1 -1 $-1 479.0288594916837 598.31109649284849 0 -5.1297808262237582e-18 -2.4671620145283601e-17 1 54.168927118363243 9.525089755243858 5.1287412000000073e-16 1 F 1.1950734339894744 F 5.0881118731901118 #
coedge $-1 -1 $-1 $132 $125 $74 $108 reversed $96 $-1 #
edge $139 -1 $-1 $110 0 $115 0.065116982212081384 $74 $140 forward @7 unknown #
truecolor-adesk-attrib $-1 -1 $141 $-1 $75 -1026443892 #
vertex $-1 -1 $-1 $75 $142 #
straight-curve $-1 -1 $-1 490.04523707231095 652.19652518188309 30 5.1297808262237585e-15 2.46716201452836e-14 -1000 F 0 F 0.029999999999999999 #
coedge $-1 -1 $-1 $127 $76 $125 $143 forward $67 $-1 #
coedge $-1 -1 $-1 $76 $127 $78 $117 forward $67 $-1 #
truecolor-adesk-attrib $-1 -1 $144 $-1 $77 -1026443892 #
vertex $-1 -1 $-1 $108 $145 #
straight-curve $-1 -1 $-1 553.84262800747922 639.15373858262308 30 5.1297808262237585e-15 2.46716201452836e-14 -1000 F 0 F 0.029999999999999999 #
edge $146 -1 $-1 $130 -1.1950734339894686 $81 1.1950734339894686 $113 $147 forward @7 unknown #
DXID-attrib $-1 -1 $-1 $80 $50 @18 ASM_EDGE_FROM_STEP @5 14629 #
point $-1 -1 $-1 553.84262800747922 639.15373858262308 0 #
point $-1 -1 $-1 490.04523707231095 652.19652518188309 0 #
DXID-attrib $-1 -1 $-1 $85 $52 @18 ASM_EDGE_FROM_STEP @5 14628 #
point $-1 -1 $-1 533.19778661004659 607.8361862480923 30 #
DXID-attrib $-1 -1 $-1 $92 $61 @18 ASM_FACE_FROM_STEP @16 stp-2M-167-27769 #
DXID-attrib $-1 -1 $-1 $95 $66 @18 ASM_FACE_FROM_STEP @16 stp-2M-167-27768 #
coedge $-1 -1 $-1 $107 $148 $112 $143 reversed $96 $-1 #
coedge $-1 -1 $-1 $99 $98 $148 $149 forward $44 $-1 #
coedge $-1 -1 $-1 $113 $112 $98 $128 forward $67 $-1 #
edge $150 -1 $-1 $151 0 $130 0.029999999999999999 $98 $152 forward @7 unknown #
truecolor-adesk-attrib $-1 -1 $153 $-1 $101 -1026443892 #
vertex $-1 -1 $-1 $101 $154 #
straight-curve $-1 -1 $-1 507.76652564833074 551.41603765005482 0 852.637433505339 522.50302102995374 1.7264839217730469e-14 F 0 F 0.065116982212081412 #
coedge $-1 -1 $-1 $148 $107 $102 $133 reversed $96 $-1 #
edge $155 -1 $-1 $135 1.1950734339894749 $110 5.0881118731901118 $102 $156 forward @7 unknown #
truecolor-adesk-attrib $-1 -1 $157 $-1 $103 -1026443892 #
vertex $-1 -1 $-1 $103 $158 #
straight-curve $-1 -1 $-1 507.76652564833074 551.41603765005482 30 5.1297808262237585e-15 2.46716201452836e-14 -1000 F 0 F 0.029999999999999999 #
DXID-attrib $-1 -1 $-1 $104 $73 @18 ASM_EDGE_FROM_STEP @5 14633 #
point $-1 -1 $-1 507.76652564833074 551.41603765005482 0 #
truecolor-adesk-attrib $-1 -1 $159 $-1 $108 -1026443892 #
straight-curve $-1 -1 $-1 490.04523707231095 652.19652518188309 30 979.7350670733581 -200.2977741932302 8.4155561010795267e-17 F 0 F 0.065116982212081384 #
DXID-attrib $-1 -1 $-1 $109 $75 @18 ASM_EDGE_FROM_STEP @5 14630 #
point $-1 -1 $-1 490.04523707231095 652.19652518188309 30 #
edge $160 -1 $-1 $115 -1.1950734339894686 $151 1.1950734339894686 $112 $161 forward @7 unknown #
DXID-attrib $-1 -1 $-1 $114 $77 @18 ASM_EDGE_FROM_STEP @5 14632 #
point $-1 -1 $-1 553.84262800747922 639.15373858262308 30 #
truecolor-adesk-attrib $-1 -1 $162 $-1 $117 -1026443892 #
ellipse-curve $-1 -1 $-1 547.97113036960025 610.43393799952253 0 -5.1297808262237582e-18 -2.4671620145283601e-17 1 28.87089928555184 5.076672580363196 2.7335112309555857e-16 1 F -1.1950734339894686 F 1.1950734339894686 #
coedge $-1 -1 $-1 $125 $132 $126 $149 reversed $96 $-1 #
edge $163 -1 $-1 $151 0 $135 0.065116982212081412 $126 $164 forward @7 unknown #
truecolor-adesk-attrib $-1 -1 $165 $-1 $128 -1026443892 #
vertex $-1 -1 $-1 $128 $166 #
straight-curve $-1 -1 $-1 563.28770223925267 585.43985757622113 30 5.1297808262237585e-15 2.46716201452836e-14 -1000 F 0 F 0.029999999999999999 #
DXID-attrib $-1 -1 $-1 $129 $101 @18 ASM_EDGE_FROM_STEP @5 14636 #
point $-1 -1 $-1 563.28770223925267 585.43985757622113 0 #
truecolor-adesk-attrib $-1 -1 $167 $-1 $133 -1026443892 #
ellipse-curve $-1 -1 $-1 479.0288594916837 598.31109649284849 30 5.1297808262237582e-18 2.4671620145283601e-17 -1 54.168927118363243 9.525089755243858 5.1287412000000073e-16 1 F 1.1950734339894749 F 5.0881118731901118 #
DXID-attrib $-1 -1 $-1 $134 $103 @18 ASM_EDGE_FROM_STEP @5 14634 #
point $-1 -1 $-1 507.76652564833074 551.41603765005482 30 #
DXID-attrib $-1 -1 $-1 $139 $108 @18 ASM_EDGE_FROM_STEP @5 14631 #
truecolor-adesk-attrib $-1 -1 $168 $-1 $143 -1026443892 #
ellipse-curve $-1 -1 $-1 547.97113036960025 610.43393799952253 30 5.1297808262237582e-18 2.4671620145283601e-17 -1 28.87089928555184 5.076672580363196 2.7335112309555857e-16 1 F -1.1950734339894686 F 1.1950734339894686 #
DXID-attrib $-1 -1 $-1 $146 $117 @18 ASM_EDGE_FROM_STEP @5 14640 #
truecolor-adesk-attrib $-1 -1 $169 $-1 $149 -1026443892 #
straight-curve $-1 -1 $-1 563.28770223925267 585.43985757622113 30 -852.637433505339 -522.50302102995374 -1.7264839217730469e-14 F 0 F 0.065116982212081412 #
DXID-attrib $-1 -1 $-1 $150 $128 @18 ASM_EDGE_FROM_STEP @5 14637 #
point $-1 -1 $-1 563.28770223925267 585.43985757622113 30 #
DXID-attrib $-1 -1 $-1 $155 $133 @18 ASM_EDGE_FROM_STEP @5 14635 #
DXID-attrib $-1 -1 $-1 $160 $143 @18 ASM_EDGE_FROM_STEP @5 14639 #
DXID-attrib $-1 -1 $-1 $163 $149 @18 ASM_EDGE_FROM_STEP @5 14638 #
