700 398 1 0         
5 ZWCAD 12 ACIS 28.0 NT 24 Mon May 13 10:19:52 2024 
1 9.9999999999999995e-07 1e-10 
body $1 -1 $-1 $2 $-1 $-1 #
DXID-attrib $-1 -1 $-1 $-1 $0 @18 ASM_BODY_FROM_STEP @83 CFAFCEDAA234598B2C9F376E7483C7D25C77C75A|:|8CB3CBCEBE3339AC3139F7812237AD39DB573F35 #
lump $-1 -1 $-1 $-1 $3 $0 #
shell $-1 -1 $-1 $-1 $-1 $4 $-1 $2 #
face $5 -1 $-1 $6 $7 $3 $-1 $8 reversed single #
truecolor-adesk-attrib $-1 -1 $9 $-1 $4 -1026601216 #
face $10 -1 $-1 $11 $12 $3 $-1 $13 reversed single #
loop $-1 -1 $-1 $-1 $14 $4 #
cone-surface $-1 -1 $-1 233.04774335917216 49.287208877139307 40.761000000000088 0.72979896527002208 -0.68366180988176106 1.3267000824113301e-16 -5.3176409198622689 -5.6765037696989342 -7.7781745930520225 1 I I 0 1 10.999999999999993 forward I I I I #
DXID-attrib $-1 -1 $-1 $5 $4 @18 ASM_FACE_FROM_STEP @15 stp-1M-67-13537 #
truecolor-adesk-attrib $-1 -1 $15 $-1 $6 -1026601216 #
face $16 -1 $-1 $17 $18 $3 $-1 $19 reversed single #
loop $-1 -1 $-1 $-1 $20 $6 #
cone-surface $-1 -1 $-1 216.81349212112187 110.60314560212764 40.761000000000095 -0.30472132655763895 -0.95244155366140593 -1.0146027835806978e-16 -7.4082566940561367 2.3701756801917351 -7.7781745930520199 1 I I 0 1 10.999999999999993 forward I I I I #
coedge $-1 -1 $-1 $21 $22 $23 $24 forward $7 $-1 #
DXID-attrib $-1 -1 $-1 $10 $6 @18 ASM_FACE_FROM_STEP @15 stp-1M-67-13538 #
truecolor-adesk-attrib $-1 -1 $25 $-1 $11 -1026601216 #
face $26 -1 $-1 $27 $28 $3 $-1 $29 reversed single #
loop $-1 -1 $-1 $-1 $30 $11 #
cone-surface $-1 -1 $-1 168.75337167366649 111.12698845664153 40.761000000000095 0.30472132655763895 -0.95244155366140593 1.0146027835806978e-16 7.4082566940561367 2.3701756801917351 7.7781745930520199 1 I I 0 1 10.999999999999993 forward I I I I #
coedge $-1 -1 $-1 $31 $32 $33 $34 forward $12 $-1 #
coedge $-1 -1 $-1 $35 $14 $36 $37 forward $7 $-1 #
coedge $-1 -1 $-1 $14 $35 $38 $39 forward $7 $-1 #
coedge $-1 -1 $-1 $40 $41 $14 $24 reversed $42 $-1 #
edge $43 -1 $-1 $44 5.0387235640333286 $45 8.3651744398357852 $14 $46 forward @7 unknown #
DXID-attrib $-1 -1 $-1 $16 $11 @18 ASM_FACE_FROM_STEP @15 stp-1M-67-13539 #
truecolor-adesk-attrib $-1 -1 $47 $-1 $17 -1026601216 #
face $48 -1 $-1 $49 $50 $3 $-1 $51 reversed single #
loop $-1 -1 $-1 $-1 $52 $17 #
cone-surface $-1 -1 $-1 153.08810659612138 49.663222872574273 40.761000000000067 0.72979896527002197 0.68366180988176106 1.6042558385676195e-16 5.317640919862276 -5.6765037696989387 -7.7781745930520119 1 I I 0 1 10.999999999999991 forward I I I I #
coedge $-1 -1 $-1 $53 $54 $55 $56 forward $18 $-1 #
coedge $-1 -1 $-1 $57 $20 $58 $59 forward $12 $-1 #
coedge $-1 -1 $-1 $20 $57 $60 $61 forward $12 $-1 #
coedge $-1 -1 $-1 $62 $63 $20 $34 reversed $64 $-1 #
edge $65 -1 $-1 $66 -1.6630204012582608 $67 1.6630204012582608 $20 $68 forward @7 unknown #
coedge $-1 -1 $-1 $22 $21 $69 $70 forward $7 $-1 #
coedge $-1 -1 $-1 $71 $72 $21 $37 reversed $73 $-1 #
edge $74 -1 $-1 $45 1.5863882448015756 $75 1.6981525156900237 $21 $76 forward @7 unknown #
coedge $-1 -1 $-1 $77 $78 $22 $39 reversed $50 $-1 #
edge $79 -1 $-1 $80 -1.6981525156900255 $44 -1.5863882448015774 $22 $81 forward @7 unknown #
coedge $-1 -1 $-1 $82 $23 $78 $83 forward $42 $-1 #
coedge $-1 -1 $-1 $23 $82 $71 $84 forward $42 $-1 #
loop $-1 -1 $-1 $-1 $40 $85 #
truecolor-adesk-attrib $-1 -1 $86 $-1 $24 -1026601216 #
vertex $-1 -1 $-1 $24 $87 #
vertex $-1 -1 $-1 $24 $88 #
intcurve-curve $-1 -1 $-1 forward { surfintcur full nubs 3 periodic 17 
	0 3 0.41444380720746521 2 0.82888761441493042 2 1.2460565261580792 2 1.6632254379012281 2 
	2.091351287200732 2 2.5194771365002357 2 2.9352258187337568 2 3.3509745009672778 2 3.7667231832007992 2 
	4.1824718654343203 2 4.6105977147338244 2 5.0387235640333286 2 5.4558924757764773 2 5.873061387519626 2 
	6.2875051947270908 2 6.7019490019345564 3 
	237.82740776636447 29.737066032020898 40.761000000000095 
	237.82740776636447 29.737066032020898 42.142479357358305 
	238.01762685066191 29.937285245682681 43.615983829747364 
	238.77411140547247 30.767152270576481 46.326249051820575 
	239.33845049211817 31.398617912957029 47.562990234251238 
	240.60273648241298 32.898268440063248 49.521777685533081 
	241.38723280842942 33.868021343500857 50.370123708106775 
	243.02247855569925 36.054834439114828 51.489581612460078 
	243.87099214856178 37.273408780898841 51.761000000000088 
	245.3991935175267 39.640632388786351 51.761000000000081 
	246.17798129464012 40.947489945738269 51.476647055044239 
	247.53174383491722 43.410301928080628 50.335501406466278 
	248.10902756002457 44.565186550827598 49.479140487317025 
	248.97531869798311 46.394991334919055 47.526233550218649 
	249.32964741693826 47.203832448641059 46.306081855695034 
	249.79261906858926 48.292645948816826 43.616772502766153 
	249.90345653254025 48.569740916960768 42.146828940778505 
	249.90345653254025 48.569740916960768 39.375171059221692 
	249.79261906858926 48.292645948816826 37.905227497234051 
	249.32964741693826 47.203832448641059 35.215918144305149 
	248.97531869798311 46.394991334919055 33.995766449781541 
	248.10902756002457 44.565186550827598 32.042859512683158 
	247.53174383491722 43.410301928080635 31.186498593533901 
	246.17798129464012 40.947489945738255 30.045352944955944 
	245.3991935175267 39.640632388786351 29.761000000000106 
	243.87099214856181 37.273408780898841 29.761000000000095 
	243.02247855569925 36.054834439114828 30.032418387540101 
	241.38723280842942 33.86802134350085 31.151876291893416 
	240.60273648241298 32.898268440063248 32.000222314467109 
	239.33845049211817 31.39861791295705 33.959009765748945 
	238.77411140547244 30.767152270576489 35.195750948179615 
	238.01762685066191 29.937285245682681 37.906016170252826 
	237.82740776636447 29.737066032020898 39.379520642641879 
	237.82740776636447 29.737066032020898 40.761000000000095 
	0.0045073099539604767 
	cone 233.04774335917216 49.287208877139307 40.761000000000088 0.72979896527002208 -0.68366180988176106 1.3267000824113301e-16 -5.3176409198622689 -5.6765037696989342 -7.7781745930520225 1 I I 0 1 10.999999999999993 forward I I I I 
	cone 192.86723026219752 71.85490640704856 36.330500000000086 3.0616169978683866e-16 0 -1 61.606250000000081 -0 1.886147421749295e-14 1 I I 0 1 61.606250000000081 forward I I I I 
	nullbs 
	nullbs 
	I I 
	0 
	0 
	0 
	} F 5.0387235640333286 F 8.3651744398357852 #
DXID-attrib $-1 -1 $-1 $26 $17 @18 ASM_FACE_FROM_STEP @15 stp-1M-67-13540 #
truecolor-adesk-attrib $-1 -1 $89 $-1 $27 -1026601216 #
face $90 -1 $-1 $91 $73 $3 $-1 $92 forward single #
loop $-1 -1 $-1 $-1 $38 $27 #
plane-surface $-1 -1 $-1 241.39973477048966 84.464184571789318 29.76100000000007 2.9072799327212163e-16 -4.6184652306946502e-19 -1 1.4366211200828605e-33 -25.399999999999995 1.1730901685964412e-17 forward_v I I I I #
coedge $-1 -1 $-1 $93 $94 $95 $96 forward $28 $-1 #
coedge $-1 -1 $-1 $97 $30 $98 $99 forward $18 $-1 #
coedge $-1 -1 $-1 $30 $97 $100 $101 forward $18 $-1 #
coedge $-1 -1 $-1 $102 $103 $30 $56 reversed $104 $-1 #
edge $105 -1 $-1 $106 -5.0126597582987609 $107 -1.6866189557822415 $30 $108 forward @7 unknown #
coedge $-1 -1 $-1 $32 $31 $82 $109 forward $12 $-1 #
coedge $-1 -1 $-1 $72 $71 $31 $59 reversed $73 $-1 #
edge $110 -1 $-1 $67 -1.7531525156900045 $111 -1.6413882448015646 $31 $112 forward @7 unknown #
coedge $-1 -1 $-1 $78 $77 $32 $61 reversed $50 $-1 #
edge $113 -1 $-1 $114 1.6413882448015646 $66 1.7531525156900045 $32 $115 forward @7 unknown #
coedge $-1 -1 $-1 $69 $33 $77 $116 forward $64 $-1 #
coedge $-1 -1 $-1 $33 $69 $72 $117 forward $64 $-1 #
loop $-1 -1 $-1 $-1 $62 $118 #
truecolor-adesk-attrib $-1 -1 $119 $-1 $34 -1026601216 #
vertex $-1 -1 $-1 $34 $120 #
vertex $-1 -1 $-1 $34 $121 #
intcurve-curve $-1 -1 $-1 reversed { surfintcur full nubs 3 periodic 17 
	0 3 0.41444072559404765 2 0.82888145118809531 2 1.245950926223178 2 1.6630204012582608 2 
	2.0906405919624094 2 2.518260782666558 2 2.9339500698535299 2 3.3496393570405019 2 3.7653286442274729 2 
	4.181017931414444 2 4.6086381221185935 2 5.0362583128227429 2 5.453327787857825 2 5.870397262892908 2 
	6.2848379884869559 2 6.6992787140810037 3 
	211.97516194565208 131.57894458132921 40.761000000000088 
	211.97516194565208 131.57894458132921 39.379530914686597 
	212.23876938117593 131.49660735238447 37.906035414067404 
	213.30360782361723 131.1401785410628 35.195773419719274 
	214.10405469877031 130.86360548195717 33.959025813238398 
	215.93879459333209 130.17080781942536 32.000433074734687 
	217.0963725754508 129.70717959825598 31.152149687670395 
	219.59079591386518 128.5980812375295 30.032580734767219 
	220.92645399331428 127.95024040663586 29.761000000000095 
	223.41608656121352 126.63513034650293 29.761000000000095 
	224.73391337931545 125.87858331163781 30.045039536817089 
	227.1188576902436 124.39888016110548 31.185500175789343 
	228.18743495511458 123.67775881703574 32.041507210378839 
	229.83931710554953 122.51190840228031 33.994447759439865 
	230.54474965538495 121.98301150208511 35.215218187867464 
	231.48197422485759 121.26466198970627 37.905302604310819 
	231.71427256190475 121.07869225928931 39.37536904271019 
	231.71427256190475 121.07869225928931 42.14663095729 
	231.48197422485759 121.26466198970627 43.616697395689371 
	230.54474965538495 121.98301150208511 46.306781812132712 
	229.83931710554953 122.5119084022803 47.527552240560318 
	228.18743495511458 123.67775881703574 49.480492789621337 
	227.1188576902436 124.39888016110548 50.33649982421084 
	224.73391337931545 125.8785833116378 51.476960463183097 
	223.41608656121352 126.63513034650293 51.761000000000088 
	220.92645399331428 127.95024040663586 51.761000000000088 
	219.59079591386518 128.59808123752953 51.489419265232961 
	217.0963725754508 129.70717959825598 50.369850312329781 
	215.93879459333209 130.17080781942536 49.521566925265489 
	214.10405469877031 130.86360548195717 47.562974186761778 
	213.30360782361723 131.1401785410628 46.32622658028091 
	212.23876938117593 131.49660735238447 43.615964585932772 
	211.97516194565208 131.57894458132921 42.142469085313579 
	211.97516194565208 131.57894458132921 40.761000000000088 
	0.004491022988578776 
	cone 216.81349212112187 110.60314560212764 40.761000000000095 -0.30472132655763895 -0.95244155366140593 -1.0146027835806978e-16 -7.4082566940561367 2.3701756801917351 -7.7781745930520199 1 I I 0 1 10.999999999999993 forward I I I I 
	cone 192.86723026219752 71.85490640704856 36.330500000000086 3.0616169978683866e-16 0 -1 62.70624999999999 -0 1.919825208725845e-14 1 I I 0 1 62.70624999999999 forward I I I I 
	nullbs 
	nullbs 
	I I 
	0 
	0 
	0 
	} F -1.6630204012582608 F 1.6630204012582608 #
coedge $-1 -1 $-1 $63 $62 $35 $70 reversed $64 $-1 #
edge $122 -1 $-1 $75 -1.663020401258263 $80 1.6630204012582608 $35 $123 forward @7 unknown #
coedge $-1 -1 $-1 $58 $36 $41 $84 reversed $73 $-1 #
coedge $-1 -1 $-1 $36 $58 $63 $117 reversed $73 $-1 #
loop $-1 -1 $-1 $-1 $36 $49 #
truecolor-adesk-attrib $-1 -1 $124 $-1 $37 -1026601216 #
vertex $-1 -1 $-1 $37 $125 #
straight-curve $-1 -1 $-1 233.04774335917216 49.287208877139278 51.761000000000109 7.297989652700223 -6.8366180988176106 2.1248873549487376e-15 F 1.5863882448015756 F 1.6981525156900237 #
coedge $-1 -1 $-1 $60 $38 $62 $116 reversed $50 $-1 #
coedge $-1 -1 $-1 $38 $60 $40 $83 reversed $50 $-1 #
truecolor-adesk-attrib $-1 -1 $126 $-1 $39 -1026601216 #
vertex $-1 -1 $-1 $70 $127 #
straight-curve $-1 -1 $-1 233.04774335917216 49.287208877139307 29.76100000000007 -7.297989652700223 6.8366180988176106 -2.1248873549487376e-15 F -1.6981525156900255 F -1.5863882448015774 #
coedge $-1 -1 $-1 $41 $40 $57 $109 reversed $42 $-1 #
edge $128 -1 $-1 $44 -0.57325253888502958 $114 1.0816345604502982 $78 $129 forward @7 unknown #
edge $130 -1 $-1 $111 -1.0816345604502979 $45 0.57325253888502936 $71 $131 forward @7 unknown #
face $132 -1 $-1 $133 $134 $3 $-1 $135 reversed single #
DXID-attrib $-1 -1 $136 $43 $24 @18 ASM_EDGE_FROM_STEP @4 8256 #
point $-1 -1 $-1 244.62518835489928 38.441678290977286 29.76100000000007 #
point $-1 -1 $-1 244.62518835489928 38.441678290977286 51.761000000000109 #
DXID-attrib $-1 -1 $-1 $48 $27 @18 ASM_FACE_FROM_STEP @15 stp-1M-67-13541 #
truecolor-adesk-attrib $-1 -1 $137 $-1 $49 -1026601216 #
face $138 -1 $-1 $139 $140 $3 $-1 $141 reversed single #
plane-surface $-1 -1 $-1 241.39973477048966 84.464184571789318 51.761000000000109 2.9072799327212163e-16 -4.6184652306945298e-19 -1 1.4366211200828228e-33 -25.399999999999995 1.1730901685964104e-17 forward_v I I I I #
coedge $-1 -1 $-1 $142 $52 $143 $144 forward $28 $-1 #
coedge $-1 -1 $-1 $52 $142 $145 $146 forward $28 $-1 #
coedge $-1 -1 $-1 $147 $148 $52 $96 reversed $104 $-1 #
edge $149 -1 $-1 $150 -1.6630204012582617 $151 1.6630204012582626 $52 $152 forward @7 unknown #
coedge $-1 -1 $-1 $54 $53 $153 $154 forward $18 $-1 #
coedge $-1 -1 $-1 $155 $156 $53 $99 reversed $140 $-1 #
edge $157 -1 $-1 $107 -1.6981525156899882 $158 -1.5863882448015554 $53 $159 forward @7 unknown #
coedge $-1 -1 $-1 $160 $161 $54 $101 reversed $162 $-1 #
edge $163 -1 $-1 $164 1.5863882448015554 $106 1.6981525156899957 $54 $165 forward @7 unknown #
coedge $-1 -1 $-1 $166 $55 $161 $167 forward $104 $-1 #
coedge $-1 -1 $-1 $55 $168 $155 $169 forward $104 $-1 #
loop $-1 -1 $-1 $64 $170 $118 #
truecolor-adesk-attrib $-1 -1 $171 $-1 $56 -1026601216 #
vertex $-1 -1 $-1 $56 $172 #
vertex $-1 -1 $-1 $56 $173 #
intcurve-curve $-1 -1 $-1 reversed { surfintcur full nubs 3 periodic 17 
	0 3 0.41568928718697107 2 0.83137857437394214 2 1.2589987650780918 2 1.6866189557822415 2 
	2.103688430817324 2 2.5207579058524061 2 2.935198631446454 2 3.3496393570405019 2 3.7640800826345493 2 
	4.1785208082285967 2 4.5955902832636788 2 5.0126597582987609 2 5.4402799490029103 2 5.8679001397070598 2 
	6.2835894268940322 2 6.6992787140810046 3 
	154.02018796249033 121.07869225928931 40.761000000000095 
	154.02018796249033 121.07869225928931 39.37536904271019 
	154.25248629953751 121.2646619897063 37.905302604310826 
	155.18971086901013 121.98301150208513 35.215218187867478 
	155.89514341884558 122.51190840228031 33.994447759439865 
	157.54702556928049 123.67775881703575 32.041507210378839 
	158.6156028341515 124.3988801611055 31.185500175789343 
	161.00054714507962 125.87858331163781 30.045039536817089 
	162.31837396318159 126.63513034650293 29.761000000000106 
	164.80800653108079 127.95024040663587 29.761000000000106 
	166.14366461052992 128.59808123752953 30.032580734767237 
	168.63808794894427 129.70717959825598 31.152149687670416 
	169.79566593106298 130.17080781942536 32.000433074734701 
	171.63040582562476 130.86360548195717 33.959025813238398 
	172.43085270077785 131.1401785410628 35.195773419719274 
	173.49569114321915 131.4966073523845 37.906035414067411 
	173.759298578743 131.57894458132921 39.379530914686597 
	173.759298578743 131.57894458132921 42.142469085313593 
	173.49569114321915 131.4966073523845 43.615964585932787 
	172.43085270077785 131.1401785410628 46.326226580280917 
	171.63040582562476 130.86360548195717 47.562974186761785 
	169.79566593106298 130.17080781942536 49.521566925265489 
	168.63808794894427 129.70717959825598 50.369850312329774 
	166.14366461052992 128.59808123752953 51.489419265232954 
	164.80800653108082 127.95024040663588 51.761000000000088 
	162.31837396318159 126.63513034650293 51.761000000000088 
	161.00054714507965 125.87858331163783 51.476960463183104 
	158.6156028341515 124.39888016110552 50.336499824210847 
	157.54702556928049 123.67775881703577 49.480492789621351 
	155.89514341884558 122.51190840228034 47.527552240560325 
	155.18971086901013 121.98301150208513 46.306781812132726 
	154.25248629953748 121.2646619897063 43.616697395689371 
	154.02018796249033 121.07869225928931 42.14663095729 
	154.02018796249033 121.07869225928931 40.761000000000095 
	0.0044910229885676382 
	cone 168.75337167366649 111.12698845664153 40.761000000000095 0.30472132655763895 -0.95244155366140593 1.0146027835806978e-16 7.4082566940561367 2.3701756801917351 7.7781745930520199 1 I I 0 1 10.999999999999993 forward I I I I 
	cone 192.86723026219752 71.85490640704856 36.330500000000086 3.0616169978683866e-16 0 -1 62.70624999999999 -0 1.919825208725845e-14 1 I I 0 1 62.70624999999999 forward I I I I 
	nullbs 
	nullbs 
	I I 
	0 
	0 
	0 
	} F -5.0126597582987609 F -1.6866189557822415 #
edge $174 -1 $-1 $111 5.0387235640333152 $114 8.3651744398357657 $57 $175 forward @7 unknown #
truecolor-adesk-attrib $-1 -1 $176 $-1 $59 -1026601216 #
vertex $-1 -1 $-1 $59 $177 #
straight-curve $-1 -1 $-1 216.8134921211219 110.60314560212764 51.761000000000081 -3.0472132655763913 -9.5244155366140628 -8.8151137957336218e-16 F -1.7531525156900045 F -1.6413882448015646 #
truecolor-adesk-attrib $-1 -1 $178 $-1 $61 -1026601216 #
vertex $-1 -1 $-1 $109 $179 #
straight-curve $-1 -1 $-1 216.81349212112187 110.60314560212764 29.76100000000007 3.0472132655763913 9.5244155366140628 8.8151137957336218e-16 F 1.6413882448015646 F 1.7531525156900045 #
edge $180 -1 $-1 $66 -1.084817004697368 $80 0.57643498313210062 $77 $181 forward @7 unknown #
edge $182 -1 $-1 $75 -0.57643498313210062 $67 1.084817004697368 $72 $183 forward @7 unknown #
face $184 -1 $-1 $185 $104 $3 $-1 $186 forward single #
DXID-attrib $-1 -1 $187 $65 $34 @18 ASM_EDGE_FROM_STEP @4 8262 #
point $-1 -1 $-1 222.15572172351119 127.30089866061951 29.76100000000007 #
point $-1 -1 $-1 222.15572172351122 127.30089866061951 51.761000000000081 #
truecolor-adesk-attrib $-1 -1 $188 $-1 $70 -1026601216 #
intcurve-curve $-1 -1 $-1 reversed { surfintcur full nubs 3 periodic 17 
	0 3 0.41444072559404732 2 0.82888145118809464 2 1.2459509262231787 2 1.663020401258263 2 
	2.0906405919624156 2 2.5182607826665677 2 2.9339500698535392 2 3.3496393570405103 2 3.7688827655119175 2 
	4.1881261739833242 2 4.612200421428275 2 5.0362746688732258 2 5.4533441439083088 2 5.8704136189433918 2 
	6.2848543445374396 2 6.6992950701314866 3 
	238.63018662816145 28.985038041151022 40.761000000000095 
	238.63018662816145 28.985038041151022 42.142469085313579 
	238.82037763922278 29.185277094897351 43.615964585932772 
	239.57705249651391 30.014955084471886 46.326226580280903 
	240.14164348274923 30.646179985142972 47.562974186761778 
	241.40712041393544 32.144448058133129 49.521566925265489 
	242.19262547042558 33.112910612070621 50.369850312329774 
	243.83171739560231 35.295941675938685 51.489419265232961 
	244.68311317006948 36.512003139266149 51.761000000000081 
	246.21774101066688 38.872660290203306 51.761000000000081 
	247.00064626197255 40.175000608994807 51.47696046318309 
	248.36370735406805 42.628476763176721 50.336499824210826 
	248.94612880887385 43.77854572321958 49.480492789621337 
	249.82160812603118 45.601032429272806 47.527552240560311 
	250.18037864714384 46.406420985551051 46.306781812132712 
	250.64940838764073 47.490130825908473 43.616697395689357 
	250.76180523539983 47.765656154399451 42.14663095729 
	250.76180523539983 47.765656154399451 39.363521971762069 
	250.64752218183597 47.48543480608582 37.881854248339351 
	250.17097868340099 46.385048005717451 35.174239496803104 
	249.80650797072735 45.567746901632532 33.947518658528239 
	248.9243510010929 43.735180044065316 32.00701623162746 
	248.34396924417456 42.5914662073152 31.16361979274383 
	246.9885434562816 40.154733562086285 30.040406598531838 
	246.21129875918984 38.862750430226114 29.761000000000099 
	244.68311317006948 36.512003139266142 29.761000000000099 
	243.83171739560231 35.295941675938685 30.03258073476723 
	242.19262547042558 33.112910612070621 31.152149687670406 
	241.40712041393544 32.144448058133136 32.000433074734701 
	240.14164348274923 30.646179985142979 33.959025813238412 
	239.57705249651394 30.014955084471893 35.195773419719281 
	238.82037763922278 29.185277094897366 37.906035414067418 
	238.63018662816145 28.985038041151022 39.379530914686597 
	238.63018662816145 28.985038041151022 40.761000000000095 
	0.0045416088550569462 
	cone 233.04774335917216 49.287208877139307 40.761000000000088 0.72979896527002208 -0.68366180988176106 1.3267000824113301e-16 -5.3176409198622689 -5.6765037696989342 -7.7781745930520225 1 I I 0 1 10.999999999999993 forward I I I I 
	cone 192.86723026219752 71.85490640704856 36.330500000000086 3.0616169978683866e-16 0 -1 62.70624999999999 -0 1.919825208725845e-14 1 I I 0 1 62.70624999999999 forward I I I I 
	nullbs 
	nullbs 
	I I 
	0 
	0 
	0 
	} F -1.663020401258263 F 1.6630204012582608 #
DXID-attrib $-1 -1 $-1 $74 $37 @18 ASM_EDGE_FROM_STEP @4 8257 #
point $-1 -1 $-1 245.44084284738486 37.67758865382028 51.761000000000102 #
DXID-attrib $-1 -1 $-1 $79 $39 @18 ASM_EDGE_FROM_STEP @4 8260 #
point $-1 -1 $-1 245.44084284738486 37.67758865382028 29.76100000000007 #
truecolor-adesk-attrib $-1 -1 $189 $-1 $83 -1026601216 #
ellipse-curve $-1 -1 $-1 192.86723026219752 71.85490640704856 29.761000000000077 -2.9072799327212163e-16 4.6184652306946502e-19 1 61.606250000000081 -4.3912957744390641e-34 1.7910661435520665e-14 1 F -0.57325253888502958 F 1.0816345604502982 #
truecolor-adesk-attrib $-1 -1 $190 $-1 $84 -1026601216 #
ellipse-curve $-1 -1 $-1 192.86723026219752 71.85490640704856 51.761000000000088 2.9072799327212163e-16 -4.6184652306945298e-19 -1 61.606250000000081 -4.3912957744389332e-34 1.7910661435520665e-14 1 F -1.0816345604502979 F 0.57325253888502936 #
truecolor-adesk-attrib $-1 -1 $191 $-1 $85 -1026601216 #
face $192 -1 $-1 $193 $194 $3 $-1 $195 reversed single #
loop $-1 -1 $-1 $42 $196 $85 #
cone-surface $-1 -1 $-1 192.86723026219752 71.85490640704856 36.330500000000086 3.0616169978683866e-16 0 -1 61.606250000000081 -0 1.886147421749295e-14 1 I I 0 1 61.606250000000081 forward I I I I #
DXID-attrib $-1 -1 $-1 $86 $24 @18 ASM_EDGE_FROM_STEP @4 8255 #
DXID-attrib $-1 -1 $-1 $90 $49 @18 ASM_FACE_FROM_STEP @15 stp-1M-67-13542 #
truecolor-adesk-attrib $-1 -1 $197 $-1 $91 -1026601216 #
face $198 -1 $-1 $199 $162 $3 $-1 $200 forward single #
loop $-1 -1 $-1 $-1 $98 $91 #
plane-surface $-1 -1 $-1 144.33472575390539 84.464184571789318 29.761000000000081 2.9072799327212163e-16 4.6184652306945298e-19 -1 -1.4366211200828228e-33 -25.399999999999995 -1.1730901685964104e-17 forward_v I I I I #
coedge $-1 -1 $-1 $94 $93 $201 $202 forward $28 $-1 #
coedge $-1 -1 $-1 $203 $204 $93 $144 reversed $162 $-1 #
edge $205 -1 $-1 $151 -1.7531525156900227 $206 -1.6413882448015749 $93 $207 forward @7 unknown #
coedge $-1 -1 $-1 $208 $209 $94 $146 reversed $140 $-1 #
edge $210 -1 $-1 $211 1.6413882448015749 $150 1.7531525156900227 $94 $212 forward @7 unknown #
coedge $-1 -1 $-1 $213 $95 $209 $214 forward $104 $-1 #
coedge $-1 -1 $-1 $95 $215 $203 $216 forward $104 $-1 #
truecolor-adesk-attrib $-1 -1 $217 $-1 $96 -1026601216 #
vertex $-1 -1 $-1 $96 $218 #
vertex $-1 -1 $-1 $96 $219 #
intcurve-curve $-1 -1 $-1 reversed { surfintcur full nubs 3 periodic 17 
	0 3 0.4144407255940471 2 0.8288814511880942 2 1.2459509262231778 2 1.6630204012582617 2 
	2.0906405919624134 2 2.5182607826665651 2 2.9339500698535366 2 3.3496393570405081 2 3.7653286442274791 2 
	4.1810179314144502 2 4.6086381221186024 2 5.0362583128227536 2 5.4533277878578374 2 5.8703972628929204 2 
	6.2848379884869683 2 6.6992787140810162 3 
	147.10427389623359 28.985038041151057 40.761000000000067 
	147.10427389623359 28.985038041151057 39.379530914686583 
	146.91408288517226 29.18527709489738 37.906035414067389 
	146.1574080278811 30.014955084471907 35.195773419719259 
	145.59281704164579 30.646179985142993 33.959025813238384 
	144.3273401104596 32.144448058133158 32.000433074734673 
	143.54183505396946 33.11291061207065 31.152149687670381 
	141.90274312879274 35.295941675938707 30.032580734767201 
	141.05134735432557 36.51200313926617 29.761000000000077 
	139.51671951372816 38.872660290203328 29.761000000000077 
	138.7338142624225 40.175000608994836 30.045039536817072 
	137.37075317032699 42.628476763176735 31.185500175789333 
	136.78833171552122 43.778545723219601 32.041507210378825 
	135.9128523983639 45.601032429272834 33.994447759439851 
	135.55408187725124 46.40642098555108 35.215218187867443 
	135.08505213675431 47.490130825908501 37.905302604310791 
	134.97265528899521 47.765656154399466 39.375369042710162 
	134.97265528899521 47.765656154399466 42.146630957289972 
	135.08505213675431 47.490130825908501 43.616697395689343 
	135.55408187725124 46.40642098555108 46.306781812132684 
	135.9128523983639 45.601032429272834 47.527552240560283 
	136.78833171552122 43.778545723219601 49.480492789621309 
	137.37075317032699 42.628476763176749 50.336499824210804 
	138.73381426242247 40.175000608994836 51.476960463183069 
	139.51671951372816 38.872660290203335 51.76100000000006 
	141.05134735432557 36.512003139266177 51.761000000000067 
	141.90274312879271 35.295941675938728 51.489419265232939 
	143.54183505396944 33.112910612070657 50.36985031232976 
	144.3273401104596 32.144448058133165 49.521566925265461 
	145.59281704164579 30.646179985142993 47.562974186761764 
	146.1574080278811 30.014955084471922 46.326226580280888 
	146.91408288517226 29.185277094897387 43.615964585932758 
	147.10427389623359 28.985038041151057 42.142469085313564 
	147.10427389623359 28.985038041151057 40.761000000000067 
	0.0044910229885872059 
	cone 153.08810659612138 49.663222872574273 40.761000000000067 0.72979896527002197 0.68366180988176106 1.6042558385676195e-16 5.317640919862276 -5.6765037696989387 -7.7781745930520119 1 I I 0 1 10.999999999999991 forward I I I I 
	cone 192.86723026219752 71.85490640704856 36.330500000000086 3.0616169978683866e-16 0 -1 62.70624999999999 -0 1.919825208725845e-14 1 I I 0 1 62.70624999999999 forward I I I I 
	nullbs 
	nullbs 
	I I 
	0 
	0 
	0 
	} F -1.6630204012582617 F 1.6630204012582626 #
coedge $-1 -1 $-1 $220 $221 $97 $154 reversed $134 $-1 #
edge $222 -1 $-1 $158 1.6877490630660459 $164 5.0141999388684946 $97 $223 forward @7 unknown #
coedge $-1 -1 $-1 $209 $98 $103 $169 reversed $140 $-1 #
coedge $-1 -1 $-1 $98 $208 $220 $224 reversed $140 $-1 #
truecolor-adesk-attrib $-1 -1 $225 $-1 $99 -1026601216 #
vertex $-1 -1 $-1 $99 $226 #
straight-curve $-1 -1 $-1 168.75337167366649 111.12698845664153 29.761000000000081 3.0472132655763913 -9.5244155366140628 8.8151137957336218e-16 F -1.6981525156899882 F -1.5863882448015554 #
coedge $-1 -1 $-1 $204 $100 $221 $227 reversed $162 $-1 #
coedge $-1 -1 $-1 $100 $203 $102 $167 reversed $162 $-1 #
loop $-1 -1 $-1 $-1 $100 $139 #
truecolor-adesk-attrib $-1 -1 $228 $-1 $101 -1026601216 #
vertex $-1 -1 $-1 $154 $229 #
straight-curve $-1 -1 $-1 168.75337167366649 111.12698845664153 51.761000000000088 -3.0472132655763913 9.5244155366140628 -8.8151137957336218e-16 F 1.5863882448015554 F 1.6981525156899957 #
coedge $-1 -1 $-1 $230 $102 $215 $231 forward $104 $-1 #
edge $232 -1 $-1 $106 2.0567756488924256 $233 3.1415926535897931 $161 $234 forward @7 unknown #
coedge $-1 -1 $-1 $103 $170 $213 $235 forward $104 $-1 #
edge $236 -1 $-1 $237 -3.1415926535897931 $107 -2.056775648892422 $155 $238 forward @7 unknown #
coedge $-1 -1 $-1 $168 $213 $239 $240 reversed $104 $-1 #
DXID-attrib $-1 -1 $241 $105 $56 @18 ASM_EDGE_FROM_STEP @4 8268 #
point $-1 -1 $-1 163.57873880088383 127.30089866061951 51.761000000000088 #
point $-1 -1 $-1 163.57873880088408 127.30089866061951 29.761000000000081 #
truecolor-adesk-attrib $-1 -1 $242 $-1 $109 -1026601216 #
intcurve-curve $-1 -1 $-1 forward { surfintcur full nubs 3 periodic 17 
	0 3 0.41444380720746554 2 0.82888761441493108 2 1.2460565261580783 2 1.6632254379012255 2 
	2.0913512872007272 2 2.5194771365002291 2 2.9352258187337501 2 3.3509745009672711 2 3.7667231832007917 2 
	4.1824718654343123 2 4.6105977147338137 2 5.0387235640333152 2 5.4558924757764622 2 5.8730613875196092 2 
	6.2875051947270748 2 6.7019490019345405 3 
	211.6399684864387 130.53125887230175 40.761000000000088 
	211.6399684864387 130.53125887230175 39.379520642641872 
	211.90359078741767 130.44895263938554 37.906016170252812 
	212.96835501000703 130.09226606693483 35.195750948179601 
	213.76869902702347 129.81536009616281 33.959009765748945 
	215.60307152477085 129.12077510624894 32.000222314467102 
	216.76039644366924 128.65552870770748 31.151876291893402 
	219.25330097678474 127.54125443362368 30.032418387540098 
	220.58766455493375 126.88981557614264 29.761000000000095 
	223.07487970465084 125.56584131926905 29.761000000000095 
	224.3913086035372 124.80334408640823 30.045352944955944 
	226.77267467048176 123.31095957461793 31.186498593533901 
	227.83910805153604 122.5831307246097 32.042859512683151 
	229.48652620295451 121.40641524584416 33.995766449781527 
	230.18975927351568 120.87234031028498 35.215918144305135 
	231.12417618165622 120.1465837187348 37.90522749723403 
	231.35587639003896 119.95848380320805 39.375171059221692 
	231.35587639003896 119.95848380320805 42.146828940778498 
	231.12417618165622 120.1465837187348 43.616772502766153 
	230.18975927351568 120.87234031028497 46.306081855695048 
	229.48652620295451 121.40641524584416 47.526233550218663 
	227.83910805153604 122.5831307246097 49.479140487317032 
	226.77267467048176 123.31095957461793 50.335501406466285 
	224.3913086035372 124.80334408640822 51.476647055044239 
	223.07487970465084 125.56584131926905 51.761000000000081 
	220.58766455493375 126.88981557614264 51.761000000000088 
	219.25330097678474 127.54125443362368 51.489581612460078 
	216.76039644366924 128.65552870770748 50.370123708106775 
	215.60307152477085 129.12077510624894 49.521777685533081 
	213.76869902702347 129.81536009616281 47.562990234251238 
	212.96835501000703 130.09226606693483 46.326249051820575 
	211.90359078741767 130.44895263938554 43.615983829747364 
	211.6399684864387 130.53125887230175 42.142479357358305 
	211.6399684864387 130.53125887230175 40.761000000000088 
	0.0045073099539598973 
	cone 216.81349212112187 110.60314560212764 40.761000000000095 -0.30472132655763895 -0.95244155366140593 -1.0146027835806978e-16 -7.4082566940561367 2.3701756801917351 -7.7781745930520199 1 I I 0 1 10.999999999999993 forward I I I I 
	cone 192.86723026219752 71.85490640704856 36.330500000000086 3.0616169978683866e-16 0 -1 61.606250000000081 -0 1.886147421749295e-14 1 I I 0 1 61.606250000000081 forward I I I I 
	nullbs 
	nullbs 
	I I 
	0 
	0 
	0 
	} F 5.0387235640333152 F 8.3651744398357657 #
DXID-attrib $-1 -1 $-1 $110 $59 @18 ASM_EDGE_FROM_STEP @4 8263 #
point $-1 -1 $-1 221.81515215464231 126.23640930253137 51.761000000000081 #
DXID-attrib $-1 -1 $-1 $113 $61 @18 ASM_EDGE_FROM_STEP @4 8266 #
point $-1 -1 $-1 221.81515215464231 126.23640930253137 29.76100000000007 #
truecolor-adesk-attrib $-1 -1 $243 $-1 $116 -1026601216 #
ellipse-curve $-1 -1 $-1 192.86723026219752 71.85490640704856 29.761000000000077 2.9072799327212173e-16 -4.6184652306946502e-19 -1 62.70624999999999 -4.4697038150499208e-34 1.8230462228119979e-14 1 F -1.084817004697368 F 0.57643498313210062 #
truecolor-adesk-attrib $-1 -1 $244 $-1 $117 -1026601216 #
ellipse-curve $-1 -1 $-1 192.86723026219752 71.85490640704856 51.761000000000088 -2.9072799327212173e-16 4.6184652306945298e-19 1 62.70624999999999 -4.4697038150497874e-34 1.8230462228119979e-14 1 F -0.57643498313210062 F 1.084817004697368 #
truecolor-adesk-attrib $-1 -1 $245 $-1 $118 -1026601216 #
face $246 -1 $-1 $85 $247 $3 $-1 $248 forward single #
cone-surface $-1 -1 $-1 192.86723026219752 71.85490640704856 36.330500000000086 3.0616169978683866e-16 0 -1 62.70624999999999 -0 1.919825208725845e-14 1 I I 0 1 62.70624999999999 forward I I I I #
DXID-attrib $-1 -1 $-1 $119 $34 @18 ASM_EDGE_FROM_STEP @4 8261 #
DXID-attrib $-1 -1 $249 $122 $70 @18 ASM_EDGE_FROM_STEP @4 8259 #
DXID-attrib $-1 -1 $-1 $128 $83 @18 ASM_EDGE_FROM_STEP @4 8280 #
DXID-attrib $-1 -1 $-1 $130 $84 @18 ASM_EDGE_FROM_STEP @4 8281 #
DXID-attrib $-1 -1 $-1 $132 $85 @18 ASM_FACE_FROM_STEP @15 stp-1M-67-13549 #
truecolor-adesk-attrib $-1 -1 $250 $-1 $133 -1026601216 #
face $251 -1 $-1 $-1 $252 $3 $-1 $253 forward single #
loop $-1 -1 $-1 $-1 $254 $133 #
torus-surface $-1 -1 $-1 192.86723026219752 71.85490640704856 56.661000000000094 3.0616169978683866e-16 0 -1 58.606249999999882 2.9999999999999885 -0 -1 0 forward_v I I I I #
coedge $-1 -1 $-1 $255 $256 $257 $258 forward $134 $-1 #
DXID-attrib $-1 -1 $-1 $138 $91 @18 ASM_FACE_FROM_STEP @15 stp-1M-67-13543 #
truecolor-adesk-attrib $-1 -1 $259 $-1 $139 -1026601216 #
face $260 -1 $-1 $261 $262 $3 $-1 $263 forward single #
plane-surface $-1 -1 $-1 144.33472575390539 84.464184571789318 51.761000000000067 2.9072799327212163e-16 4.6184652306950199e-19 -1 -1.4366211200829754e-33 -25.399999999999995 -1.1730901685965348e-17 forward_v I I I I #
coedge $-1 -1 $-1 $264 $265 $142 $202 reversed $134 $-1 #
edge $266 -1 $-1 $206 5.0387235640333268 $211 8.3651744398357799 $142 $267 forward @7 unknown #
coedge $-1 -1 $-1 $161 $143 $148 $216 reversed $162 $-1 #
coedge $-1 -1 $-1 $143 $160 $264 $268 reversed $162 $-1 #
truecolor-adesk-attrib $-1 -1 $269 $-1 $144 -1026601216 #
vertex $-1 -1 $-1 $144 $270 #
straight-curve $-1 -1 $-1 153.08810659612138 49.663222872574273 51.761000000000088 7.297989652700223 6.8366180988176106 2.1248873549487376e-15 F -1.7531525156900227 F -1.6413882448015749 #
coedge $-1 -1 $-1 $156 $145 $265 $271 reversed $140 $-1 #
coedge $-1 -1 $-1 $145 $155 $147 $214 reversed $140 $-1 #
truecolor-adesk-attrib $-1 -1 $272 $-1 $146 -1026601216 #
vertex $-1 -1 $-1 $202 $273 #
straight-curve $-1 -1 $-1 153.08810659612138 49.663222872574273 29.761000000000081 -7.297989652700223 -6.8366180988176106 -2.1248873549487376e-15 F 1.6413882448015749 F 1.7531525156900227 #
coedge $-1 -1 $-1 $170 $147 $168 $235 reversed $104 $-1 #
edge $274 -1 $-1 $150 2.5651576704576926 $237 3.1415926535897931 $209 $275 forward @7 unknown #
coedge $-1 -1 $-1 $148 $276 $166 $231 reversed $104 $-1 #
edge $277 -1 $-1 $233 -3.1415926535897931 $151 -2.5651576704576926 $203 $278 forward @7 unknown #
DXID-attrib $-1 -1 $279 $149 $96 @18 ASM_EDGE_FROM_STEP @4 8274 #
point $-1 -1 $-1 140.29361767701019 37.67758865382028 29.761000000000081 #
point $-1 -1 $-1 140.29361767701019 37.67758865382028 51.761000000000067 #
coedge $-1 -1 $-1 $256 $153 $156 $224 forward $134 $-1 #
coedge $-1 -1 $-1 $153 $280 $160 $227 forward $134 $-1 #
truecolor-adesk-attrib $-1 -1 $281 $-1 $154 -1026601216 #
intcurve-curve $-1 -1 $-1 forward { surfintcur full nubs 3 periodic 17 
	0 3 0.41574868223352102 2 0.83149736446704203 2 1.259623213766544 2 1.6877490630660459 2 
	2.1049179748091928 2 2.5220868865523398 2 2.9365306937598055 2 3.3509745009672711 2 3.7654183081747363 2 
	4.1798621153822015 2 4.5970310271253485 2 5.0141999388684946 2 5.4423257881679969 2 5.8704516374674993 2 
	6.2862003197010203 2 6.7019490019345422 3 
	154.37858413435612 119.95848380320808 40.761000000000095 
	154.37858413435612 119.95848380320808 39.375171059221685 
	154.61028434273888 120.14658371873483 37.905227497234023 
	155.5447012508794 120.872340310285 35.215918144305142 
	156.24793432144057 121.40641524584419 33.995766449781527 
	157.89535247285903 122.58313072460973 32.042859512683151 
	158.96178585391334 123.31095957461795 31.186498593533894 
	161.34315192085791 124.80334408640823 30.045352944955944 
	162.65958081974426 125.56584131926908 29.761000000000106 
	165.14679596946132 126.88981557614264 29.761000000000106 
	166.48115954761036 127.54125443362368 30.032418387540101 
	168.97406408072587 128.65552870770748 31.151876291893416 
	170.13138899962422 129.12077510624894 32.000222314467102 
	171.9657614973716 129.81536009616281 33.959009765748945 
	172.76610551438807 130.09226606693483 35.195750948179608 
	173.83086973697743 130.44895263938554 37.906016170252819 
	174.0944920379564 130.53125887230175 39.379520642641879 
	174.0944920379564 130.53125887230175 42.142479357358312 
	173.83086973697743 130.44895263938554 43.615983829747378 
	172.76610551438804 130.09226606693483 46.326249051820582 
	171.9657614973716 129.81536009616281 47.562990234251245 
	170.13138899962422 129.12077510624894 49.521777685533081 
	168.97406408072584 128.65552870770748 50.370123708106775 
	166.48115954761036 127.54125443362369 51.489581612460078 
	165.14679596946135 126.88981557614267 51.761000000000088 
	162.65958081974426 125.56584131926908 51.761000000000088 
	161.34315192085791 124.80334408640826 51.476647055044246 
	158.96178585391334 123.31095957461795 50.3355014064663 
	157.89535247285903 122.58313072460973 49.479140487317039 
	156.24793432144057 121.40641524584419 47.526233550218663 
	155.5447012508794 120.87234031028501 46.306081855695055 
	154.61028434273888 120.14658371873483 43.61677250276616 
	154.37858413435612 119.95848380320808 42.146828940778505 
	154.37858413435612 119.95848380320808 40.761000000000095 
	0.0045073099539761534 
	cone 168.75337167366649 111.12698845664153 40.761000000000095 0.30472132655763895 -0.95244155366140593 1.0146027835806978e-16 7.4082566940561367 2.3701756801917351 7.7781745930520199 1 I I 0 1 10.999999999999993 forward I I I I 
	cone 192.86723026219752 71.85490640704856 36.330500000000086 3.0616169978683866e-16 0 -1 61.606250000000081 -0 1.886147421749295e-14 1 I I 0 1 61.606250000000081 forward I I I I 
	nullbs 
	nullbs 
	I I 
	0 
	0 
	0 
	} F 1.6877490630660459 F 5.0141999388684946 #
edge $282 -1 $-1 $158 2.0599580931394956 $283 3.1415926535897931 $156 $284 forward @7 unknown #
DXID-attrib $-1 -1 $-1 $157 $99 @18 ASM_EDGE_FROM_STEP @4 8269 #
point $-1 -1 $-1 163.91930836975274 126.23640930253137 29.761000000000081 #
edge $285 -1 $-1 $286 -3.1415926535897931 $164 -2.0599580931394952 $160 $287 forward @7 unknown #
DXID-attrib $-1 -1 $-1 $163 $101 @18 ASM_EDGE_FROM_STEP @4 8272 #
point $-1 -1 $-1 163.91930836975274 126.23640930253137 51.761000000000088 #
coedge $-1 -1 $-1 $276 $166 $288 $289 forward $104 $-1 #
edge $290 -1 $-1 $233 0.24607594936708863 $291 0.32421808033489502 $166 $292 forward @7 unknown #
truecolor-adesk-attrib $-1 -1 $293 $-1 $167 -1026601216 #
vertex $-1 -1 $-1 $216 $294 #
ellipse-curve $-1 -1 $-1 192.86723026219752 71.85490640704856 51.761000000000088 -2.9072799327212173e-16 -4.6184652306950199e-19 1 62.70624999999999 4.4697038150502826e-34 1.8230462228119979e-14 1 F 2.0567756488924256 F 3.1415926535897931 #
edge $295 -1 $-1 $296 -0.3242180803348958 $237 -0.10476627130469425 $168 $297 forward @7 unknown #
truecolor-adesk-attrib $-1 -1 $298 $-1 $169 -1026601216 #
vertex $-1 -1 $-1 $169 $299 #
ellipse-curve $-1 -1 $-1 192.86723026219752 71.85490640704856 29.761000000000077 2.9072799327212173e-16 4.6184652306945298e-19 -1 62.70624999999999 4.4697038150497874e-34 1.8230462228119979e-14 1 F -3.1415926535897931 F -2.056775648892422 #
coedge $-1 -1 $-1 $239 $239 $170 $240 forward $247 $-1 #
edge $300 -1 $-1 $296 -3.1415926535897931 $296 3.1415926535897931 $170 $301 forward @7 unknown #
DXID-attrib $-1 -1 $-1 $171 $56 @18 ASM_EDGE_FROM_STEP @4 8267 #
DXID-attrib $-1 -1 $302 $174 $109 @18 ASM_EDGE_FROM_STEP @4 8265 #
DXID-attrib $-1 -1 $-1 $180 $116 @18 ASM_EDGE_FROM_STEP @4 8279 #
DXID-attrib $-1 -1 $-1 $182 $117 @18 ASM_EDGE_FROM_STEP @4 8282 #
DXID-attrib $-1 -1 $-1 $184 $118 @18 ASM_FACE_FROM_STEP @15 stp-1M-67-13547 #
truecolor-adesk-attrib $-1 -1 $303 $-1 $185 -1026601216 #
loop $-1 -1 $-1 $304 $239 $185 #
plane-surface $-1 -1 $-1 255.02348026219744 71.85490640704856 15.999999999999993 3.0616169978683866e-16 0 -1 -0 -25.399999999999995 0 forward_v I I I I #
DXID-attrib $-1 -1 $-1 $188 $70 @18 ASM_EDGE_FROM_STEP @4 8258 #
DXID-attrib $-1 -1 $-1 $192 $133 @18 ASM_FACE_FROM_STEP @15 stp-1M-67-13550 #
truecolor-adesk-attrib $-1 -1 $305 $-1 $193 -1026601216 #
loop $-1 -1 $-1 $-1 $306 $193 #
plane-surface $-1 -1 $-1 212.36723026219752 71.85490640704856 59.661000000000108 3.0616169978683866e-16 0 -1 -0 -25.399999999999995 0 forward_v I I I I #
coedge $-1 -1 $-1 $307 $308 $309 $310 forward $194 $-1 #
coedge $-1 -1 $-1 $265 $196 $256 $311 forward $134 $-1 #
coedge $-1 -1 $-1 $196 $220 $255 $311 reversed $134 $-1 #
coedge $-1 -1 $-1 $257 $257 $196 $258 reversed $304 $-1 #
edge $312 -1 $-1 $313 -3.1415926535897931 $313 3.1415926535897931 $257 $314 forward @7 unknown #
DXID-attrib $-1 -1 $-1 $198 $139 @18 ASM_FACE_FROM_STEP @15 stp-1M-67-13544 #
truecolor-adesk-attrib $-1 -1 $315 $-1 $199 -1026601216 #
face $316 -1 $-1 $118 $317 $3 $-1 $318 forward single #
loop $-1 -1 $-1 $-1 $319 $199 #
plane-surface $-1 -1 $-1 247.67035526219743 71.85490640704856 60.761000000000102 -3.0616169978683866e-16 0 1 0 25.399999999999995 0 forward_v I I I I #
coedge $-1 -1 $-1 $320 $201 $204 $268 forward $134 $-1 #
coedge $-1 -1 $-1 $201 $255 $208 $271 forward $134 $-1 #
truecolor-adesk-attrib $-1 -1 $321 $-1 $202 -1026601216 #
intcurve-curve $-1 -1 $-1 forward { surfintcur full nubs 3 periodic 17 
	0 3 0.4144438072074651 2 0.8288876144149302 2 1.2460565261580783 2 1.6632254379012263 2 
	2.0913512872007303 2 2.519477136500234 2 2.9352258187337554 2 3.3509745009672764 2 3.7667231832007975 2 
	4.1824718654343185 2 4.6105977147338226 2 5.0387235640333268 2 5.4558924757764746 2 5.8730613875196216 2 
	6.2875051947270872 2 6.7019490019345529 3 
	147.90705275803055 29.737066032020934 40.761000000000067 
	147.90705275803055 29.737066032020934 39.37952064264185 
	147.71683367373311 29.937285245682709 37.906016170252791 
	146.96034911892258 30.767152270576517 35.19575094817958 
	146.39601003227685 31.398617912957064 33.959009765748931 
	145.13172404198207 32.898268440063269 32.000222314467081 
	144.34722771596563 33.868021343500878 31.151876291893391 
	142.7119819686958 36.054834439114849 30.032418387540087 
	141.86346837583326 37.273408780898869 29.761000000000077 
	140.33526700686835 39.640632388786379 29.761000000000077 
	139.55647922975493 40.947489945738276 30.045352944955923 
	138.20271668947782 43.410301928080656 31.186498593533873 
	137.62543296437048 44.565186550827619 32.042859512683137 
	136.75914182641193 46.394991334919084 33.995766449781513 
	136.40481310745679 47.203832448641094 35.215918144305121 
	135.94184145580579 48.292645948816855 37.905227497234009 
	135.8310039918548 48.569740916960797 39.375171059221657 
	135.8310039918548 48.569740916960797 42.14682894077847 
	135.94184145580579 48.292645948816862 43.616772502766139 
	136.40481310745679 47.203832448641094 46.306081855695027 
	136.75914182641193 46.394991334919084 47.526233550218627 
	137.62543296437048 44.565186550827619 49.479140487317004 
	138.20271668947782 43.410301928080656 50.335501406466264 
	139.55647922975493 40.947489945738269 51.476647055044211 
	140.33526700686835 39.640632388786379 51.761000000000067 
	141.86346837583324 37.273408780898869 51.76100000000006 
	142.7119819686958 36.054834439114849 51.489581612460057 
	144.3472277159656 33.868021343500878 50.370123708106753 
	145.13172404198207 32.898268440063283 49.521777685533053 
	146.39601003227685 31.398617912957071 47.562990234251217 
	146.96034911892258 30.767152270576503 46.326249051820568 
	147.71683367373311 29.937285245682702 43.615983829747357 
	147.90705275803055 29.737066032020934 42.14247935735829 
	147.90705275803055 29.737066032020934 40.761000000000067 
	0.0045073099539790175 
	cone 153.08810659612138 49.663222872574273 40.761000000000067 0.72979896527002197 0.68366180988176106 1.6042558385676195e-16 5.317640919862276 -5.6765037696989387 -7.7781745930520119 1 I I 0 1 10.999999999999991 forward I I I I 
	cone 192.86723026219752 71.85490640704856 36.330500000000086 3.0616169978683866e-16 0 -1 61.606250000000081 -0 1.886147421749295e-14 1 I I 0 1 61.606250000000081 forward I I I I 
	nullbs 
	nullbs 
	I I 
	0 
	0 
	0 
	} F 5.0387235640333268 F 8.3651744398357799 #
edge $322 -1 $-1 $206 2.568340114704764 $286 3.1415926535897931 $204 $323 forward @7 unknown #
DXID-attrib $-1 -1 $-1 $205 $144 @18 ASM_EDGE_FROM_STEP @4 8275 #
point $-1 -1 $-1 141.10927216949577 38.441678290977286 51.761000000000067 #
edge $324 -1 $-1 $283 -3.1415926535897931 $211 -2.568340114704764 $208 $325 forward @7 unknown #
DXID-attrib $-1 -1 $-1 $210 $146 @18 ASM_EDGE_FROM_STEP @4 8278 #
point $-1 -1 $-1 141.10927216949577 38.441678290977286 29.761000000000081 #
truecolor-adesk-attrib $-1 -1 $326 $-1 $214 -1026601216 #
ellipse-curve $-1 -1 $-1 192.86723026219752 71.85490640704856 29.761000000000077 2.9072799327212173e-16 4.6184652306945298e-19 -1 62.70624999999999 4.4697038150497874e-34 1.8230462228119979e-14 1 F 2.5651576704576926 F 3.1415926535897931 #
coedge $-1 -1 $-1 $215 $230 $327 $328 forward $104 $-1 #
truecolor-adesk-attrib $-1 -1 $329 $-1 $216 -1026601216 #
ellipse-curve $-1 -1 $-1 192.86723026219752 71.85490640704856 51.761000000000088 -2.9072799327212173e-16 -4.6184652306950199e-19 1 62.70624999999999 4.4697038150502826e-34 1.8230462228119979e-14 1 F -3.1415926535897931 F -2.5651576704576926 #
DXID-attrib $-1 -1 $-1 $217 $96 @18 ASM_EDGE_FROM_STEP @4 8273 #
coedge $-1 -1 $-1 $221 $330 $320 $331 reversed $134 $-1 #
DXID-attrib $-1 -1 $332 $222 $154 @18 ASM_EDGE_FROM_STEP @4 8271 #
truecolor-adesk-attrib $-1 -1 $333 $-1 $224 -1026601216 #
vertex $-1 -1 $-1 $271 $334 #
ellipse-curve $-1 -1 $-1 192.86723026219752 71.85490640704856 29.761000000000077 -2.9072799327212163e-16 -4.6184652306945298e-19 1 61.606250000000081 4.3912957744389332e-34 1.7910661435520665e-14 1 F 2.0599580931394956 F 3.1415926535897931 #
truecolor-adesk-attrib $-1 -1 $335 $-1 $227 -1026601216 #
vertex $-1 -1 $-1 $227 $336 #
ellipse-curve $-1 -1 $-1 192.86723026219752 71.85490640704856 51.761000000000088 2.9072799327212163e-16 4.6184652306950199e-19 -1 61.606250000000081 4.3912957744394199e-34 1.7910661435520665e-14 1 F -3.1415926535897931 F -2.0599580931394952 #
coedge $-1 -1 $-1 $327 $337 $230 $289 reversed $317 $-1 #
edge $338 -1 $-1 $291 -3.1415926535897931 $339 -1.5707963267948966 $288 $340 forward @7 unknown #
truecolor-adesk-attrib $-1 -1 $341 $-1 $231 -1026601216 #
vertex $-1 -1 $-1 $328 $342 #
straight-curve $-1 -1 $-1 130.16098026219754 71.854906407048574 36.330500000000072 -1.919825208725845e-14 0 62.70624999999999 F 0.24607594936708863 F 0.32421808033489502 #
DXID-attrib $-1 -1 $-1 $232 $167 @18 ASM_EDGE_FROM_STEP @4 8290 #
point $-1 -1 $-1 130.16098026219754 71.854906407048574 51.761000000000067 #
truecolor-adesk-attrib $-1 -1 $343 $-1 $235 -1026601216 #
vertex $-1 -1 $-1 $240 $344 #
straight-curve $-1 -1 $-1 130.16098026219754 71.854906407048574 36.330500000000072 -1.919825208725845e-14 0 62.70624999999999 F -0.3242180803348958 F -0.10476627130469425 #
DXID-attrib $-1 -1 $-1 $236 $169 @18 ASM_EDGE_FROM_STEP @4 8283 #
point $-1 -1 $-1 130.16098026219754 71.854906407048574 29.761000000000081 #
truecolor-adesk-attrib $-1 -1 $345 $-1 $240 -1026601216 #
ellipse-curve $-1 -1 $-1 192.86723026219752 71.85490640704856 16 3.0616169978683866e-16 0 -1 62.70624999999999 -0 1.919825208725845e-14 1 I I #
DXID-attrib $-1 -1 $-1 $242 $109 @18 ASM_EDGE_FROM_STEP @4 8264 #
DXID-attrib $-1 -1 $-1 $246 $185 @18 ASM_FACE_FROM_STEP @15 stp-1M-67-13548 #
loop $-1 -1 $-1 $-1 $257 $185 #
DXID-attrib $-1 -1 $-1 $251 $193 @18 ASM_FACE_FROM_STEP @15 stp-1M-67-13551 #
coedge $-1 -1 $-1 $306 $306 $346 $347 forward $252 $-1 #
coedge $-1 -1 $-1 $348 $254 $330 $349 forward $194 $-1 #
coedge $-1 -1 $-1 $254 $346 $348 $350 reversed $194 $-1 #
coedge $-1 -1 $-1 $330 $320 $254 $310 reversed $134 $-1 #
edge $351 -1 $-1 $352 -1.5707963267948966 $353 3.1415926535897931 $309 $354 forward @7 unknown #
edge $355 -1 $-1 $313 -0.33000710155219692 $283 -0.10663690778127179 $255 $356 forward @7 unknown #
truecolor-adesk-attrib $-1 -1 $357 $-1 $258 -1026601216 #
vertex $-1 -1 $-1 $258 $358 #
ellipse-curve $-1 -1 $-1 192.86723026219752 71.85490640704856 16 3.0616169978683866e-16 0 -1 61.606250000000081 -0 1.886147421749295e-14 1 I I #
DXID-attrib $-1 -1 $-1 $260 $199 @18 ASM_FACE_FROM_STEP @15 stp-1M-67-13545 #
truecolor-adesk-attrib $-1 -1 $359 $-1 $261 -1026601216 #
loop $-1 -1 $-1 $-1 $327 $261 #
torus-surface $-1 -1 $-1 192.86723026219752 71.85490640704856 56.661000000000094 3.0616169978683866e-16 0 -1 58.606249999999882 4.1000000000000076 -0 -1 0 forward_v I I I I #
coedge $-1 -1 $-1 $319 $319 $360 $361 reversed $262 $-1 #
coedge $-1 -1 $-1 $309 $264 $280 $331 forward $134 $-1 #
DXID-attrib $-1 -1 $362 $266 $202 @18 ASM_EDGE_FROM_STEP @4 8277 #
truecolor-adesk-attrib $-1 -1 $363 $-1 $268 -1026601216 #
ellipse-curve $-1 -1 $-1 192.86723026219752 71.85490640704856 51.761000000000088 2.9072799327212163e-16 4.6184652306950199e-19 -1 61.606250000000081 4.3912957744394199e-34 1.7910661435520665e-14 1 F 2.568340114704764 F 3.1415926535897931 #
truecolor-adesk-attrib $-1 -1 $364 $-1 $271 -1026601216 #
ellipse-curve $-1 -1 $-1 192.86723026219752 71.85490640704856 29.761000000000077 -2.9072799327212163e-16 -4.6184652306945298e-19 1 61.606250000000081 4.3912957744389332e-34 1.7910661435520665e-14 1 F -3.1415926535897931 F -2.568340114704764 #
DXID-attrib $-1 -1 $-1 $274 $214 @18 ASM_EDGE_FROM_STEP @4 8284 #
coedge $-1 -1 $-1 $365 $288 $276 $328 reversed $317 $-1 #
edge $366 -1 $-1 $339 -1.5707963267948966 $291 3.1415926535897931 $327 $367 forward @7 unknown #
DXID-attrib $-1 -1 $-1 $277 $216 @18 ASM_EDGE_FROM_STEP @4 8289 #
coedge $-1 -1 $-1 $280 $309 $307 $349 reversed $134 $-1 #
edge $368 -1 $-1 $286 0.25046971695241926 $353 0.33000710155219615 $320 $369 forward @7 unknown #
DXID-attrib $-1 -1 $-1 $281 $154 @18 ASM_EDGE_FROM_STEP @4 8270 #
DXID-attrib $-1 -1 $-1 $282 $224 @18 ASM_EDGE_FROM_STEP @4 8286 #
point $-1 -1 $-1 131.26098026219745 71.854906407048574 29.761000000000081 #
DXID-attrib $-1 -1 $-1 $285 $227 @18 ASM_EDGE_FROM_STEP @4 8287 #
point $-1 -1 $-1 131.26098026219745 71.854906407048574 51.761000000000067 #
coedge $-1 -1 $-1 $288 $360 $365 $370 reversed $317 $-1 #
truecolor-adesk-attrib $-1 -1 $371 $-1 $289 -1026601216 #
vertex $-1 -1 $-1 $328 $372 #
ellipse-curve $-1 -1 $-1 192.86723026219752 71.85490640704856 56.661000000000094 3.0616169978683866e-16 0 -1 62.70624999999999 -0 1.919825208725845e-14 1 F -3.1415926535897931 F -1.5707963267948966 #
DXID-attrib $-1 -1 $-1 $290 $231 @18 ASM_EDGE_FROM_STEP @4 8297 #
point $-1 -1 $-1 130.16098026219754 71.854906407048574 56.66100000000008 #
DXID-attrib $-1 -1 $-1 $295 $235 @18 ASM_EDGE_FROM_STEP @4 8296 #
point $-1 -1 $-1 130.16098026219754 71.854906407048574 16.000000000000007 #
DXID-attrib $-1 -1 $-1 $300 $240 @18 ASM_EDGE_FROM_STEP @4 8295 #
coedge $-1 -1 $-1 $308 $348 $306 $347 reversed $194 $-1 #
edge $373 -1 $-1 $374 -1.5707963267948966 $374 4.7123889803846897 $346 $375 forward @7 unknown #
coedge $-1 -1 $-1 $346 $307 $308 $350 forward $194 $-1 #
edge $376 -1 $-1 $353 -3.1415926535897931 $352 -1.5707963267948966 $330 $377 forward @7 unknown #
edge $378 -1 $-1 $352 -7.6025307309289677e-48 $374 1.5707963267948966 $348 $379 forward @7 unknown #
truecolor-adesk-attrib $-1 -1 $380 $-1 $310 -1026601216 #
vertex $-1 -1 $-1 $310 $381 #
vertex $-1 -1 $-1 $331 $382 #
ellipse-curve $-1 -1 $-1 192.86723026219752 71.85490640704856 56.661000000000094 3.0616169978683866e-16 0 -1 61.606250000000081 -0 1.886147421749295e-14 1 F -1.5707963267948966 F 3.1415926535897931 #
truecolor-adesk-attrib $-1 -1 $383 $-1 $311 -1026601216 #
straight-curve $-1 -1 $-1 131.26098026219745 71.854906407048574 36.330500000000072 -1.886147421749295e-14 0 61.606250000000081 F -0.33000710155219692 F -0.10663690778127179 #
DXID-attrib $-1 -1 $-1 $312 $258 @18 ASM_EDGE_FROM_STEP @4 8298 #
point $-1 -1 $-1 131.26098026219745 71.854906407048574 16.000000000000007 #
DXID-attrib $-1 -1 $-1 $316 $261 @18 ASM_FACE_FROM_STEP @15 stp-1M-67-13546 #
coedge $-1 -1 $-1 $337 $365 $319 $361 forward $317 $-1 #
edge $384 -1 $-1 $385 -1.5707963267948966 $385 4.7123889803846897 $319 $386 forward @7 unknown #
DXID-attrib $-1 -1 $-1 $321 $202 @18 ASM_EDGE_FROM_STEP @4 8276 #
DXID-attrib $-1 -1 $-1 $322 $268 @18 ASM_EDGE_FROM_STEP @4 8288 #
DXID-attrib $-1 -1 $-1 $324 $271 @18 ASM_EDGE_FROM_STEP @4 8285 #
coedge $-1 -1 $-1 $360 $327 $337 $370 forward $317 $-1 #
truecolor-adesk-attrib $-1 -1 $387 $-1 $328 -1026601216 #
ellipse-curve $-1 -1 $-1 192.86723026219752 71.85490640704856 56.661000000000094 3.0616169978683866e-16 0 -1 62.70624999999999 -0 1.919825208725845e-14 1 F -1.5707963267948966 F 3.1415926535897931 #
truecolor-adesk-attrib $-1 -1 $388 $-1 $331 -1026601216 #
straight-curve $-1 -1 $-1 131.26098026219745 71.854906407048574 36.330500000000072 -1.886147421749295e-14 0 61.606250000000081 F 0.25046971695241926 F 0.33000710155219615 #
edge $389 -1 $-1 $339 -8.1407229718453187e-48 $385 1.5707963267948966 $365 $390 forward @7 unknown #
DXID-attrib $-1 -1 $-1 $338 $289 @18 ASM_EDGE_FROM_STEP @4 8294 #
point $-1 -1 $-1 192.86723026219752 134.56115640704854 56.661000000000094 #
truecolor-adesk-attrib $-1 -1 $391 $-1 $347 -1026601216 #
vertex $-1 -1 $-1 $350 $392 #
ellipse-curve $-1 -1 $-1 192.86723026219752 71.85490640704856 59.66100000000008 3.0616169978683866e-16 0 -1 58.606249999999875 -0 1.794298911813238e-14 1 I I #
truecolor-adesk-attrib $-1 -1 $393 $-1 $349 -1026601216 #
ellipse-curve $-1 -1 $-1 192.86723026219752 71.85490640704856 56.661000000000094 3.0616169978683866e-16 0 -1 61.606250000000081 -0 1.886147421749295e-14 1 F -3.1415926535897931 F -1.5707963267948966 #
truecolor-adesk-attrib $-1 -1 $394 $-1 $350 -1026601216 #
ellipse-curve $-1 -1 $-1 192.86723026219752 130.46115640704843 56.661000000000094 1 -1.2246467991473498e-16 3.0616169978683866e-16 3.6739403974420352e-16 2.999999999999988 -4.4992793479855433e-32 1 F -7.6025307309289677e-48 F 1.5707963267948966 #
DXID-attrib $-1 -1 $-1 $351 $310 @18 ASM_EDGE_FROM_STEP @4 8301 #
point $-1 -1 $-1 192.86723026219752 133.46115640704863 56.661000000000094 #
point $-1 -1 $-1 131.26098026219745 71.854906407048574 56.66100000000008 #
DXID-attrib $-1 -1 $-1 $355 $311 @18 ASM_EDGE_FROM_STEP @4 8299 #
truecolor-adesk-attrib $-1 -1 $395 $-1 $361 -1026601216 #
vertex $-1 -1 $-1 $361 $396 #
ellipse-curve $-1 -1 $-1 192.86723026219752 71.85490640704856 60.761000000000081 3.0616169978683866e-16 0 -1 58.606249999999875 -0 1.794298911813238e-14 1 I I #
DXID-attrib $-1 -1 $-1 $366 $328 @18 ASM_EDGE_FROM_STEP @4 8292 #
DXID-attrib $-1 -1 $-1 $368 $331 @18 ASM_EDGE_FROM_STEP @4 8300 #
truecolor-adesk-attrib $-1 -1 $397 $-1 $370 -1026601216 #
ellipse-curve $-1 -1 $-1 192.86723026219752 130.46115640704843 56.661000000000094 1 -1.2246467991473502e-16 3.0616169978683866e-16 5.0210518765041454e-16 4.1000000000000076 -6.1490151089136129e-32 1 F -8.1407229718453187e-48 F 1.5707963267948966 #
DXID-attrib $-1 -1 $-1 $373 $347 @18 ASM_EDGE_FROM_STEP @4 8304 #
point $-1 -1 $-1 192.86723026219752 130.46115640704843 59.66100000000008 #
DXID-attrib $-1 -1 $-1 $376 $349 @18 ASM_EDGE_FROM_STEP @4 8302 #
DXID-attrib $-1 -1 $-1 $378 $350 @18 ASM_EDGE_FROM_STEP @4 8303 #
DXID-attrib $-1 -1 $-1 $384 $361 @18 ASM_EDGE_FROM_STEP @4 8291 #
point $-1 -1 $-1 192.86723026219752 130.46115640704843 60.761000000000081 #
DXID-attrib $-1 -1 $-1 $389 $370 @18 ASM_EDGE_FROM_STEP @4 8293 #
