700 514 1 0         
5 ZWCAD 12 ACIS 28.0 NT 24 Sat May 11 15:38:50 2024 
1 9.9999999999999995e-07 1e-10 
body $1 -1 $-1 $2 $-1 $-1 #
DXID-attrib $-1 -1 $-1 $-1 $0 @18 ASM_BODY_FROM_STEP @83 5C00E59F6AD5B5D6E16C00CEA5245191E1B3B593|:|8CB3CBCEBE3339AC3139F7812237AD39DB573F35 #
lump $-1 -1 $-1 $-1 $3 $0 #
shell $-1 -1 $-1 $-1 $-1 $4 $-1 $2 #
face $5 -1 $-1 $6 $7 $3 $-1 $8 reversed single #
fmesh-eye-attrib $-1 -1 $9 $-1 $4 #
face $10 -1 $-1 $11 $12 $3 $-1 $13 reversed single #
loop $-1 -1 $-1 $14 $15 $4 #
cone-surface $-1 -1 $-1 -416.03518364669793 -26.938839925685386 19.999999999999979 1.2246467991473532e-16 -1 2.1056135894809519e-17 -2.9143354396410241e-16 4.4217885379099951e-17 2.1000000000000001 1 I I 0 1 2.1000000000000001 forward I I I I #
truecolor-adesk-attrib $-1 -1 $16 $5 $4 -1026436655 #
fmesh-eye-attrib $-1 -1 $17 $-1 $6 #
face $18 -1 $-1 $19 $20 $3 $-1 $21 reversed single #
loop $-1 -1 $-1 $22 $23 $6 #
cone-surface $-1 -1 $-1 -316.03518364669793 -26.938839925685386 19.999999999999993 1.2246467991473532e-16 -1 2.1056135894809519e-17 -2.9143354396410241e-16 4.4217885379099951e-17 2.1000000000000001 1 I I 0 1 2.1000000000000001 forward I I I I #
loop $-1 -1 $-1 $-1 $24 $4 #
coedge $-1 -1 $-1 $15 $15 $25 $26 forward $7 $-1 #
color-adesk-attrib $-1 -1 $27 $9 $4 254 #
truecolor-adesk-attrib $-1 -1 $28 $10 $6 -1026436655 #
fmesh-eye-attrib $-1 -1 $29 $-1 $11 #
face $30 -1 $-1 $31 $32 $3 $-1 $33 reversed single #
loop $-1 -1 $-1 $-1 $34 $11 #
plane-surface $-1 -1 $-1 -253.03518364669793 -38.938839925685386 -5 -1 -1.2246467991473532e-16 -1.1428494209519689e-16 1.1428494209519689e-16 -2.1056135894809504e-17 -1 forward_v I I I I #
loop $-1 -1 $-1 $-1 $35 $6 #
coedge $-1 -1 $-1 $23 $23 $36 $37 forward $12 $-1 #
coedge $-1 -1 $-1 $24 $24 $38 $39 forward $14 $-1 #
coedge $-1 -1 $-1 $25 $25 $15 $26 reversed $40 $-1 #
edge $41 -1 $-1 $42 0 $42 6.2831853071795862 $15 $43 forward @7 unknown #
DXID-attrib $-1 -1 $-1 $16 $4 @18 ASM_FACE_FROM_STEP @14 stp-1M-55-9930 #
color-adesk-attrib $-1 -1 $44 $17 $6 254 #
truecolor-adesk-attrib $-1 -1 $45 $18 $11 -1026436655 #
fmesh-eye-attrib $-1 -1 $46 $-1 $19 #
face $47 -1 $-1 $48 $49 $3 $-1 $50 reversed single #
loop $-1 -1 $-1 $-1 $51 $19 #
plane-surface $-1 -1 $-1 -253.03518364669793 -38.938839925685386 63 1.6313198163409e-17 -2.1056135894809516e-17 -1 1 1.2246467991473532e-16 1.6313198163409e-17 forward_v I I I I #
coedge $-1 -1 $-1 $52 $53 $54 $55 reversed $20 $-1 #
coedge $-1 -1 $-1 $35 $35 $56 $57 forward $22 $-1 #
coedge $-1 -1 $-1 $36 $36 $23 $37 reversed $58 $-1 #
edge $59 -1 $-1 $60 0 $60 6.2831853071795862 $23 $61 forward @7 unknown #
coedge $-1 -1 $-1 $38 $38 $24 $39 reversed $62 $-1 #
edge $63 -1 $-1 $64 0 $64 6.2831853071795862 $24 $65 forward @7 unknown #
loop $-1 -1 $-1 $-1 $25 $66 #
truecolor-adesk-attrib $-1 -1 $67 $-1 $26 -1026436655 #
vertex $-1 -1 $-1 $26 $68 #
ellipse-curve $-1 -1 $-1 -416.03518364669793 -34.938839925685386 19.999999999999979 1.2246467991473532e-16 -1 2.1056135894809519e-17 2.9143354396410241e-16 -4.4217885379099951e-17 -2.1000000000000001 1 I I #
DXID-attrib $-1 -1 $-1 $28 $6 @18 ASM_FACE_FROM_STEP @14 stp-1M-55-9931 #
color-adesk-attrib $-1 -1 $69 $29 $11 254 #
truecolor-adesk-attrib $-1 -1 $70 $30 $19 -1026436655 #
fmesh-eye-attrib $-1 -1 $71 $-1 $31 #
face $72 -1 $-1 $73 $74 $3 $-1 $75 reversed single #
loop $-1 -1 $-1 $-1 $76 $31 #
plane-surface $-1 -1 $-1 -479.03518364669793 -38.938839925685443 45 1 1.2246467991473532e-16 1.38777878078144e-16 -1.38777878078144e-16 2.1056135894809501e-17 1 forward_v I I I I #
coedge $-1 -1 $-1 $77 $78 $79 $80 forward $32 $-1 #
coedge $-1 -1 $-1 $81 $34 $82 $83 forward $20 $-1 #
coedge $-1 -1 $-1 $34 $81 $84 $85 forward $20 $-1 #
coedge $-1 -1 $-1 $86 $87 $34 $55 forward $88 $-1 #
edge $89 -1 $-1 $90 0.1538461538461538 $91 1.1538461538461537 $34 $92 forward @7 unknown #
coedge $-1 -1 $-1 $56 $56 $35 $57 reversed $93 $-1 #
edge $94 -1 $-1 $95 0 $95 6.2831853071795862 $35 $96 forward @7 unknown #
loop $-1 -1 $-1 $-1 $36 $97 #
truecolor-adesk-attrib $-1 -1 $98 $-1 $37 -1026436655 #
vertex $-1 -1 $-1 $37 $99 #
ellipse-curve $-1 -1 $-1 -316.03518364669793 -34.938839925685386 19.999999999999993 1.2246467991473532e-16 -1 2.1056135894809519e-17 2.9143354396410241e-16 -4.4217885379099951e-17 -2.1000000000000001 1 I I #
loop $-1 -1 $-1 $100 $38 $101 #
truecolor-adesk-attrib $-1 -1 $102 $-1 $39 -1036992620 #
vertex $-1 -1 $-1 $39 $103 #
ellipse-curve $-1 -1 $-1 -416.03518364669793 -33.938839925685386 19.999999999999979 -1.2246467991473532e-16 1 -2.1056135894809519e-17 -2.9143354396410241e-16 4.4217885379099951e-17 2.1000000000000001 1 I I #
face $104 -1 $-1 $-1 $105 $3 $-1 $106 reversed single #
color-adesk-attrib $-1 -1 $107 $41 $26 254 #
point $-1 -1 $-1 -416.03518364669793 -34.938839925685386 17.899999999999974 #
DXID-attrib $-1 -1 $-1 $45 $11 @18 ASM_FACE_FROM_STEP @14 stp-1M-55-9932 #
color-adesk-attrib $-1 -1 $108 $46 $19 254 #
truecolor-adesk-attrib $-1 -1 $109 $47 $31 -1026436655 #
fmesh-eye-attrib $-1 -1 $110 $-1 $48 #
face $111 -1 $-1 $112 $88 $3 $-1 $113 forward single #
loop $-1 -1 $-1 $-1 $114 $48 #
plane-surface $-1 -1 $-1 -479.03518364669793 -38.938839925685443 -5.0000000000000284 -1.38777878078144e-16 2.1056135894809501e-17 1 -1 -1.2246467991473532e-16 -1.38777878078144e-16 forward_v I I I I #
coedge $-1 -1 $-1 $115 $116 $117 $118 reversed $49 $-1 #
coedge $-1 -1 $-1 $119 $51 $120 $121 forward $32 $-1 #
coedge $-1 -1 $-1 $51 $119 $122 $123 forward $32 $-1 #
coedge $-1 -1 $-1 $124 $125 $51 $80 reversed $126 $-1 #
edge $127 -1 $-1 $128 0.038095238095238099 $129 1.0380952380952382 $51 $130 forward @7 unknown #
coedge $-1 -1 $-1 $53 $52 $131 $132 forward $20 $-1 #
coedge $-1 -1 $-1 $133 $134 $52 $83 reversed $135 $-1 #
edge $136 -1 $-1 $90 0 $137 1 $52 $138 forward @7 unknown #
coedge $-1 -1 $-1 $139 $140 $53 $85 reversed $141 $-1 #
edge $142 -1 $-1 $143 -1 $91 0 $53 $144 reversed @7 unknown #
coedge $-1 -1 $-1 $145 $54 $140 $146 forward $88 $-1 #
coedge $-1 -1 $-1 $54 $147 $133 $148 forward $88 $-1 #
loop $-1 -1 $-1 $149 $147 $73 #
truecolor-adesk-attrib $-1 -1 $150 $-1 $55 -1026436655 #
vertex $-1 -1 $-1 $55 $151 #
vertex $-1 -1 $-1 $55 $152 #
straight-curve $-1 -1 $-1 -253.03518364669793 -38.938839925685386 -5 -5.9428169889502387e-15 1.0949190665300942e-15 52 F 0.1538461538461538 F 1.1538461538461537 #
loop $-1 -1 $-1 $153 $56 $154 #
truecolor-adesk-attrib $-1 -1 $155 $-1 $57 -1036992620 #
vertex $-1 -1 $-1 $57 $156 #
ellipse-curve $-1 -1 $-1 -316.03518364669793 -33.938839925685386 19.999999999999993 -1.2246467991473532e-16 1 -2.1056135894809519e-17 -2.9143354396410241e-16 4.4217885379099951e-17 2.1000000000000001 1 I I #
face $157 -1 $-1 $101 $158 $3 $-1 $159 reversed single #
color-adesk-attrib $-1 -1 $160 $59 $37 254 #
point $-1 -1 $-1 -316.03518364669793 -34.938839925685386 17.899999999999988 #
loop $-1 -1 $-1 $-1 $161 $101 #
face $162 -1 $-1 $66 $62 $3 $-1 $163 reversed single #
color-adesk-attrib $-1 -1 $164 $63 $39 135 #
point $-1 -1 $-1 -416.03518364669793 -33.938839925685386 22.09999999999998 #
fmesh-eye-attrib $-1 -1 $165 $-1 $66 #
loop $-1 -1 $-1 $40 $166 $66 #
cone-surface $-1 -1 $-1 -416.03518364669793 -34.938839925685386 19.999999999999979 -1.2246467991473532e-16 1 -2.1056135894809519e-17 2.9143354396410241e-16 -4.4217885379099951e-17 -2.1000000000000001 1 I I 0.85716730070211 0.51503807491005793 2.1000000000000001 forward I I I I #
DXID-attrib $-1 -1 $-1 $67 $26 @18 ASM_EDGE_FROM_STEP @4 6062 #
DXID-attrib $-1 -1 $-1 $70 $19 @18 ASM_FACE_FROM_STEP @14 stp-1M-55-9933 #
color-adesk-attrib $-1 -1 $167 $71 $31 254 #
truecolor-adesk-attrib $-1 -1 $168 $72 $48 -1026436655 #
fmesh-eye-attrib $-1 -1 $169 $-1 $73 #
face $170 -1 $-1 $171 $126 $3 $-1 $172 reversed single #
plane-surface $-1 -1 $-1 -253.03518364669793 -38.938839925685386 45 1.2246467991473532e-16 -1 2.1056135894809519e-17 1.38777878078144e-16 -2.1056135894809501e-17 -1 forward_v I I I I #
coedge $-1 -1 $-1 $173 $174 $175 $176 forward $74 $-1 #
coedge $-1 -1 $-1 $177 $76 $178 $179 forward $49 $-1 #
coedge $-1 -1 $-1 $76 $177 $180 $181 forward $49 $-1 #
coedge $-1 -1 $-1 $182 $183 $76 $118 forward $88 $-1 #
edge $184 -1 $-1 $185 -0.19230769230769176 $186 0.80769230769230826 $76 $187 forward @7 unknown #
coedge $-1 -1 $-1 $78 $77 $145 $188 reversed $32 $-1 #
coedge $-1 -1 $-1 $189 $190 $77 $121 reversed $191 $-1 #
edge $192 -1 $-1 $129 -1 $193 0 $77 $194 reversed @7 unknown #
coedge $-1 -1 $-1 $140 $139 $78 $123 reversed $141 $-1 #
edge $195 -1 $-1 $196 0 $128 1 $78 $197 forward @7 unknown #
coedge $-1 -1 $-1 $131 $79 $139 $198 forward $126 $-1 #
coedge $-1 -1 $-1 $79 $199 $189 $200 forward $126 $-1 #
loop $-1 -1 $-1 $201 $131 $112 #
truecolor-adesk-attrib $-1 -1 $202 $-1 $80 -1026436655 #
vertex $-1 -1 $-1 $80 $203 #
vertex $-1 -1 $-1 $80 $204 #
straight-curve $-1 -1 $-1 -253.03518364669793 -26.938839925685386 63 -210 -2.5717582782094416e-14 -3.4257716143158893e-15 F 0.038095238095238099 F 1.0380952380952382 #
coedge $-1 -1 $-1 $205 $124 $81 $132 reversed $126 $-1 #
edge $206 -1 $-1 $137 0.1538461538461538 $143 1.1538461538461537 $81 $207 forward @7 unknown #
coedge $-1 -1 $-1 $208 $82 $87 $148 reversed $135 $-1 #
coedge $-1 -1 $-1 $82 $208 $205 $209 reversed $135 $-1 #
loop $-1 -1 $-1 $-1 $133 $210 #
truecolor-adesk-attrib $-1 -1 $211 $-1 $83 -1026436655 #
vertex $-1 -1 $-1 $83 $212 #
straight-curve $-1 -1 $-1 -253.03518364669793 -38.938839925685386 3 -1.4695761589768241e-15 12.000000000000002 -2.5267363073771428e-16 F 0 F 1 #
coedge $-1 -1 $-1 $122 $84 $124 $198 reversed $141 $-1 #
coedge $-1 -1 $-1 $84 $122 $86 $146 reversed $141 $-1 #
loop $-1 -1 $-1 $-1 $140 $213 #
truecolor-adesk-attrib $-1 -1 $214 $-1 $85 -1026436655 #
vertex $-1 -1 $-1 $132 $215 #
straight-curve $-1 -1 $-1 -253.03518364669793 -38.938839925685386 55 -1.4695761589768241e-15 12.000000000000002 -2.5267363073771428e-16 F 0 F 1 #
coedge $-1 -1 $-1 $183 $86 $119 $188 forward $88 $-1 #
edge $216 -1 $-1 $91 1.5707963267948966 $196 3.1415926535897931 $86 $217 forward @7 unknown #
coedge $-1 -1 $-1 $87 $182 $218 $219 forward $88 $-1 #
edge $220 -1 $-1 $221 -1.3877787807814459e-15 $90 1.5707963267948966 $87 $222 forward @7 unknown #
loop $-1 -1 $-1 $223 $224 $73 #
color-adesk-attrib $-1 -1 $225 $89 $55 254 #
point $-1 -1 $-1 -253.03518364669793 -38.938839925685386 3 #
point $-1 -1 $-1 -253.03518364669793 -38.938839925685386 55 #
loop $-1 -1 $-1 $-1 $226 $154 #
face $227 -1 $-1 $97 $93 $3 $-1 $228 reversed single #
color-adesk-attrib $-1 -1 $229 $94 $57 135 #
point $-1 -1 $-1 -316.03518364669793 -33.938839925685386 22.099999999999994 #
fmesh-eye-attrib $-1 -1 $230 $-1 $97 #
loop $-1 -1 $-1 $58 $231 $97 #
cone-surface $-1 -1 $-1 -316.03518364669793 -34.938839925685386 19.999999999999993 -1.2246467991473532e-16 1 -2.1056135894809519e-17 2.9143354396410241e-16 -4.4217885379099951e-17 -2.1000000000000001 1 I I 0.85716730070211 0.51503807491005793 2.1000000000000001 forward I I I I #
DXID-attrib $-1 -1 $-1 $98 $37 @18 ASM_EDGE_FROM_STEP @4 6064 #
coedge $-1 -1 $-1 $161 $161 $232 $233 reversed $100 $-1 #
fmesh-eye-attrib $-1 -1 $234 $-1 $101 #
cone-surface $-1 -1 $-1 -416.03518364669793 -26.938839925685386 19.999999999999979 1.2246467991473532e-16 -1 2.1056135894809519e-17 -2.9143354396410241e-16 4.4217885379099951e-17 2.1000000000000001 1 I I 0 1 2.1000000000000001 forward I I I I #
DXID-attrib $-1 -1 $235 $102 $39 @18 ASM_EDGE_FROM_STEP @4 6063 #
truecolor-adesk-attrib $-1 -1 $236 $104 $66 -1026436655 #
coedge $-1 -1 $-1 $166 $166 $-1 $237 forward $105 $-1 #
DXID-attrib $-1 -1 $-1 $109 $31 @18 ASM_FACE_FROM_STEP @14 stp-1M-55-9934 #
color-adesk-attrib $-1 -1 $238 $110 $48 254 #
truecolor-adesk-attrib $-1 -1 $239 $111 $73 -1026436655 #
fmesh-eye-attrib $-1 -1 $240 $-1 $112 #
face $241 -1 $-1 $242 $243 $3 $-1 $244 reversed single #
plane-surface $-1 -1 $-1 -253.03518364669793 -26.938839925685386 45 1.2246467991473532e-16 -1 2.1056135894809519e-17 1.38777878078144e-16 -2.1056135894809501e-17 -1 forward_v I I I I #
coedge $-1 -1 $-1 $218 $114 $208 $245 forward $74 $-1 #
coedge $-1 -1 $-1 $114 $218 $246 $247 forward $74 $-1 #
coedge $-1 -1 $-1 $248 $205 $114 $176 reversed $126 $-1 #
edge $249 -1 $-1 $250 0.038095238095238126 $251 1.0380952380952382 $114 $252 forward @7 unknown #
coedge $-1 -1 $-1 $116 $115 $199 $253 forward $49 $-1 #
coedge $-1 -1 $-1 $190 $189 $115 $179 reversed $191 $-1 #
edge $254 -1 $-1 $185 0 $255 1 $115 $256 forward @7 unknown #
coedge $-1 -1 $-1 $257 $258 $116 $181 reversed $259 $-1 #
edge $260 -1 $-1 $261 -1 $186 0 $116 $262 reversed @7 unknown #
coedge $-1 -1 $-1 $147 $117 $258 $263 forward $88 $-1 #
coedge $-1 -1 $-1 $117 $145 $190 $264 forward $88 $-1 #
truecolor-adesk-attrib $-1 -1 $265 $-1 $118 -1026436655 #
vertex $-1 -1 $-1 $118 $266 #
vertex $-1 -1 $-1 $118 $267 #
straight-curve $-1 -1 $-1 -479.03518364669793 -38.938839925685443 45 7.2164496600634875e-15 -1.094919066530094e-15 -52 F -0.19230769230769176 F 0.80769230769230826 #
edge $268 -1 $-1 $196 0.038095238095238099 $193 1.0380952380952382 $119 $269 forward @7 unknown #
coedge $-1 -1 $-1 $178 $120 $125 $200 reversed $191 $-1 #
coedge $-1 -1 $-1 $120 $178 $183 $264 reversed $191 $-1 #
loop $-1 -1 $-1 $-1 $190 $270 #
truecolor-adesk-attrib $-1 -1 $271 $-1 $121 -1026436655 #
vertex $-1 -1 $-1 $121 $272 #
straight-curve $-1 -1 $-1 -471.03518364669793 -38.938839925685443 62.999999999999972 -1.4695761589768241e-15 12.000000000000002 -2.5267363073771428e-16 F 0 F 1 #
truecolor-adesk-attrib $-1 -1 $273 $-1 $123 -1026436655 #
vertex $-1 -1 $-1 $188 $274 #
straight-curve $-1 -1 $-1 -261.03518364669793 -38.938839925685386 63 -1.4695761589768241e-15 12.000000000000002 -2.5267363073771428e-16 F 0 F 1 #
edge $275 -1 $-1 $128 -3.1415926535897931 $143 -1.5707963267948966 $124 $276 reversed @7 unknown #
coedge $-1 -1 $-1 $125 $248 $177 $253 reversed $126 $-1 #
edge $277 -1 $-1 $255 1.5707963267948966 $129 3.1415926535897931 $125 $278 reversed @7 unknown #
loop $-1 -1 $-1 $279 $232 $112 #
color-adesk-attrib $-1 -1 $280 $127 $80 254 #
point $-1 -1 $-1 -261.03518364669793 -26.938839925685386 63 #
point $-1 -1 $-1 -471.03518364669793 -26.938839925685386 62.999999999999972 #
coedge $-1 -1 $-1 $175 $131 $134 $209 forward $126 $-1 #
truecolor-adesk-attrib $-1 -1 $281 $-1 $132 -1026436655 #
straight-curve $-1 -1 $-1 -253.03518364669793 -26.938839925685386 -5 -5.9428169889502387e-15 1.0949190665300942e-15 52 F 0.1538461538461538 F 1.1538461538461537 #
coedge $-1 -1 $-1 $134 $133 $173 $245 reversed $135 $-1 #
edge $282 -1 $-1 $137 -1.5707963267948966 $251 1.3877787807814459e-15 $205 $283 reversed @7 unknown #
face $284 -1 $-1 $154 $135 $3 $-1 $285 forward single #
color-adesk-attrib $-1 -1 $286 $136 $83 254 #
point $-1 -1 $-1 -253.03518364669793 -26.938839925685386 3 #
face $287 -1 $-1 $288 $141 $3 $-1 $289 forward single #
color-adesk-attrib $-1 -1 $290 $142 $85 254 #
point $-1 -1 $-1 -253.03518364669793 -26.938839925685386 55 #
truecolor-adesk-attrib $-1 -1 $291 $-1 $146 -1026436655 #
ellipse-curve $-1 -1 $-1 -261.03518364669793 -38.938839925685386 55 1.2246467991473532e-16 -1 2.1056135894809519e-17 1.110223024625152e-15 -1.6844908715847601e-16 -8 1 F 1.5707963267948966 F 3.1415926535897931 #
coedge $-1 -1 $-1 $174 $173 $147 $219 reversed $74 $-1 #
edge $292 -1 $-1 $293 0.038095238095238126 $221 1.0380952380952382 $218 $294 forward @7 unknown #
truecolor-adesk-attrib $-1 -1 $295 $-1 $148 -1026436655 #
vertex $-1 -1 $-1 $245 $296 #
ellipse-curve $-1 -1 $-1 -261.03518364669793 -38.938839925685386 3 1.2246467991473532e-16 -1 2.1056135894809519e-17 1.110223024625152e-15 -1.6844908715847601e-16 -8 1 F -1.3877787807814459e-15 F 1.5707963267948966 #
loop $-1 -1 $-1 $-1 $297 $73 #
coedge $-1 -1 $-1 $224 $224 $298 $299 reversed $149 $-1 #
DXID-attrib $-1 -1 $-1 $150 $55 @18 ASM_EDGE_FROM_STEP @4 6066 #
coedge $-1 -1 $-1 $226 $226 $300 $301 reversed $153 $-1 #
fmesh-eye-attrib $-1 -1 $302 $-1 $154 #
cone-surface $-1 -1 $-1 -316.03518364669793 -26.938839925685386 19.999999999999993 1.2246467991473532e-16 -1 2.1056135894809519e-17 -2.9143354396410241e-16 4.4217885379099951e-17 2.1000000000000001 1 I I 0 1 2.1000000000000001 forward I I I I #
DXID-attrib $-1 -1 $303 $155 $57 @18 ASM_EDGE_FROM_STEP @4 6065 #
truecolor-adesk-attrib $-1 -1 $304 $157 $97 -1026436655 #
coedge $-1 -1 $-1 $231 $231 $-1 $305 forward $158 $-1 #
coedge $-1 -1 $-1 $232 $232 $161 $233 forward $201 $-1 #
edge $306 -1 $-1 $307 0 $307 6.2831853071795862 $232 $308 forward @7 unknown #
truecolor-adesk-attrib $-1 -1 $309 $162 $101 -1036992620 #
no_merge_attribute-st-attrib $-1 -1 $-1 $164 $39 #
color-adesk-attrib $-1 -1 $310 $165 $66 254 #
edge $311 -1 $-1 $312 1 $312 0 $166 $-1 forward @7 unknown #
DXID-attrib $-1 -1 $-1 $168 $48 @18 ASM_FACE_FROM_STEP @14 stp-1M-55-9935 #
color-adesk-attrib $-1 -1 $313 $169 $73 254 #
truecolor-adesk-attrib $-1 -1 $314 $170 $112 -1026436655 #
fmesh-eye-attrib $-1 -1 $315 $-1 $171 #
face $316 -1 $-1 $317 $318 $3 $-1 $319 reversed single #
loop $-1 -1 $-1 $320 $321 $171 #
plane-surface $-1 -1 $-1 -278.03518364669793 -35.938839925685386 19.999999999999996 1.2246467991473532e-16 -1 2.1056135894809519e-17 1.38777878078144e-16 -2.1056135894809501e-17 -1 forward_v I I I I #
edge $322 -1 $-1 $251 -1 $221 0 $173 $323 reversed @7 unknown #
coedge $-1 -1 $-1 $258 $257 $174 $247 reversed $259 $-1 #
edge $324 -1 $-1 $293 0 $250 1 $174 $325 forward @7 unknown #
coedge $-1 -1 $-1 $199 $175 $257 $326 forward $126 $-1 #
truecolor-adesk-attrib $-1 -1 $327 $-1 $176 -1026436655 #
vertex $-1 -1 $-1 $176 $328 #
vertex $-1 -1 $-1 $176 $329 #
straight-curve $-1 -1 $-1 -479.03518364669793 -26.938839925685443 -5.0000000000000284 210 2.5717582782094416e-14 2.9143354396410239e-14 F 0.038095238095238126 F 1.0380952380952382 #
edge $330 -1 $-1 $255 -0.19230769230769176 $261 0.80769230769230826 $177 $331 forward @7 unknown #
truecolor-adesk-attrib $-1 -1 $332 $-1 $179 -1026436655 #
vertex $-1 -1 $-1 $179 $333 #
straight-curve $-1 -1 $-1 -479.03518364669793 -38.938839925685443 54.999999999999972 -1.4695761589768241e-15 12.000000000000002 -2.5267363073771428e-16 F 0 F 1 #
coedge $-1 -1 $-1 $246 $180 $248 $326 reversed $259 $-1 #
coedge $-1 -1 $-1 $180 $246 $182 $263 reversed $259 $-1 #
loop $-1 -1 $-1 $-1 $258 $288 #
truecolor-adesk-attrib $-1 -1 $334 $-1 $181 -1026436655 #
vertex $-1 -1 $-1 $253 $335 #
straight-curve $-1 -1 $-1 -479.03518364669793 -38.938839925685443 2.9999999999999716 -1.4695761589768241e-15 12.000000000000002 -2.5267363073771428e-16 F 0 F 1 #
edge $336 -1 $-1 $186 -1.5707963267948966 $293 0 $182 $337 forward @7 unknown #
edge $338 -1 $-1 $193 -3.1415926535897931 $185 -1.5707963267948966 $183 $339 forward @7 unknown #
color-adesk-attrib $-1 -1 $340 $184 $118 254 #
point $-1 -1 $-1 -479.03518364669793 -38.938839925685443 54.999999999999972 #
point $-1 -1 $-1 -479.03518364669793 -38.938839925685443 2.9999999999999716 #
truecolor-adesk-attrib $-1 -1 $341 $-1 $188 -1026436655 #
straight-curve $-1 -1 $-1 -253.03518364669793 -38.938839925685386 63 -210 -2.5717582782094416e-14 -3.4257716143158893e-15 F 0.038095238095238099 F 1.0380952380952382 #
face $342 -1 $-1 $210 $191 $3 $-1 $343 forward single #
color-adesk-attrib $-1 -1 $344 $192 $121 254 #
point $-1 -1 $-1 -471.03518364669793 -38.938839925685443 62.999999999999972 #
color-adesk-attrib $-1 -1 $345 $195 $123 254 #
point $-1 -1 $-1 -261.03518364669793 -38.938839925685386 63 #
truecolor-adesk-attrib $-1 -1 $346 $-1 $198 -1026436655 #
ellipse-curve $-1 -1 $-1 -261.03518364669793 -26.938839925685386 55 1.2246467991473532e-16 -1 2.1056135894809519e-17 1.110223024625152e-15 -1.6844908715847601e-16 -8 1 F 1.5707963267948966 F 3.1415926535897931 #
truecolor-adesk-attrib $-1 -1 $347 $-1 $200 -1026436655 #
ellipse-curve $-1 -1 $-1 -471.03518364669793 -26.938839925685386 54.999999999999972 1.2246467991473532e-16 -1 2.1056135894809519e-17 1.110223024625152e-15 -1.6844908715847601e-16 -8 1 F -3.1415926535897931 F -1.5707963267948966 #
loop $-1 -1 $-1 $348 $300 $112 #
DXID-attrib $-1 -1 $-1 $202 $80 @18 ASM_EDGE_FROM_STEP @4 6070 #
color-adesk-attrib $-1 -1 $349 $206 $132 254 #
truecolor-adesk-attrib $-1 -1 $350 $-1 $209 -1026436655 #
ellipse-curve $-1 -1 $-1 -261.03518364669793 -26.938839925685386 3 1.2246467991473532e-16 -1 2.1056135894809519e-17 1.110223024625152e-15 -1.6844908715847601e-16 -8 1 F -1.3877787807814459e-15 F 1.5707963267948966 #
fmesh-eye-attrib $-1 -1 $351 $-1 $210 #
cone-surface $-1 -1 $-1 -261.03518364669793 -38.938839925685386 3 -1.2246467991473532e-16 1 -2.1056135894809519e-17 -1.110223024625152e-15 1.6844908715847601e-16 8 1 I I 0 1 8 forward I I I I #
DXID-attrib $-1 -1 $-1 $211 $83 @18 ASM_EDGE_FROM_STEP @4 6067 #
fmesh-eye-attrib $-1 -1 $352 $-1 $213 #
face $353 -1 $-1 $270 $259 $3 $-1 $354 forward single #
cone-surface $-1 -1 $-1 -261.03518364669793 -38.938839925685386 55 -1.2246467991473532e-16 1 -2.1056135894809519e-17 -1.110223024625152e-15 1.6844908715847601e-16 8 1 I I 0 1 8 forward I I I I #
DXID-attrib $-1 -1 $-1 $214 $85 @18 ASM_EDGE_FROM_STEP @4 6069 #
color-adesk-attrib $-1 -1 $355 $216 $146 254 #
truecolor-adesk-attrib $-1 -1 $356 $-1 $219 -1026436655 #
vertex $-1 -1 $-1 $219 $357 #
straight-curve $-1 -1 $-1 -479.03518364669793 -38.938839925685443 -5.0000000000000284 210 2.5717582782094416e-14 2.9143354396410239e-14 F 0.038095238095238126 F 1.0380952380952382 #
color-adesk-attrib $-1 -1 $358 $220 $148 254 #
point $-1 -1 $-1 -261.03518364669793 -38.938839925685386 -5 #
coedge $-1 -1 $-1 $297 $297 $359 $360 reversed $223 $-1 #
coedge $-1 -1 $-1 $298 $298 $224 $299 forward $361 $-1 #
edge $362 -1 $-1 $363 0 $363 6.2831853071795862 $224 $364 forward @7 unknown #
coedge $-1 -1 $-1 $300 $300 $226 $301 forward $279 $-1 #
edge $365 -1 $-1 $366 0 $366 6.2831853071795862 $300 $367 forward @7 unknown #
truecolor-adesk-attrib $-1 -1 $368 $227 $154 -1036992620 #
no_merge_attribute-st-attrib $-1 -1 $-1 $229 $57 #
color-adesk-attrib $-1 -1 $369 $230 $97 254 #
edge $370 -1 $-1 $371 1 $371 0 $231 $-1 forward @7 unknown #
truecolor-adesk-attrib $-1 -1 $372 $-1 $233 -1036992620 #
vertex $-1 -1 $-1 $233 $373 #
ellipse-curve $-1 -1 $-1 -416.03518364669793 -26.938839925685386 19.999999999999979 1.2246467991473532e-16 -1 2.1056135894809519e-17 -2.9143354396410241e-16 4.4217885379099951e-17 2.1000000000000001 1 I I #
color-adesk-attrib $-1 -1 $374 $234 $101 135 #
DXID-attrib $-1 -1 $-1 $236 $66 @18 ASM_FACE_FROM_STEP @14 stp-1M-55-9951 #
truecolor-adesk-attrib $-1 -1 $-1 $-1 $237 -1027620929 #
vertex $-1 -1 $-1 $237 $375 #
DXID-attrib $-1 -1 $-1 $239 $73 @18 ASM_FACE_FROM_STEP @14 stp-1M-55-9936 #
color-adesk-attrib $-1 -1 $376 $240 $112 254 #
truecolor-adesk-attrib $-1 -1 $377 $241 $171 -1026436655 #
fmesh-eye-attrib $-1 -1 $378 $-1 $242 #
face $379 -1 $-1 $380 $381 $3 $-1 $382 reversed single #
loop $-1 -1 $-1 $383 $384 $242 #
cone-surface $-1 -1 $-1 -278.03518364669793 -26.938839925685386 19.999999999999996 1.2246467991473532e-16 -1 2.1056135894809519e-17 -2.220446049250304e-15 3.3689817431695201e-16 16 1 I I 0 1 16 forward I I I I #
loop $-1 -1 $-1 $-1 $385 $171 #
coedge $-1 -1 $-1 $321 $321 $384 $386 forward $243 $-1 #
truecolor-adesk-attrib $-1 -1 $387 $-1 $245 -1026436655 #
straight-curve $-1 -1 $-1 -261.03518364669793 -38.938839925685386 -5 -1.4695761589768241e-15 12.000000000000002 -2.5267363073771428e-16 F 0 F 1 #
truecolor-adesk-attrib $-1 -1 $388 $-1 $247 -1026436655 #
straight-curve $-1 -1 $-1 -471.03518364669793 -38.938839925685443 -5.0000000000000284 -1.4695761589768241e-15 12.000000000000002 -2.5267363073771428e-16 F 0 F 1 #
edge $389 -1 $-1 $250 0 $261 1.5707963267948966 $248 $390 reversed @7 unknown #
color-adesk-attrib $-1 -1 $391 $249 $176 254 #
point $-1 -1 $-1 -471.03518364669793 -26.938839925685386 -5.0000000000000284 #
point $-1 -1 $-1 -261.03518364669793 -26.938839925685386 -5 #
truecolor-adesk-attrib $-1 -1 $392 $-1 $253 -1026436655 #
straight-curve $-1 -1 $-1 -479.03518364669793 -26.938839925685386 44.999999999999993 7.2164496600634875e-15 -1.094919066530094e-15 -52 F -0.19230769230769176 F 0.80769230769230826 #
color-adesk-attrib $-1 -1 $393 $254 $179 254 #
point $-1 -1 $-1 -479.03518364669793 -26.938839925685386 54.999999999999972 #
color-adesk-attrib $-1 -1 $394 $260 $181 254 #
point $-1 -1 $-1 -479.03518364669793 -26.938839925685443 2.9999999999999716 #
truecolor-adesk-attrib $-1 -1 $395 $-1 $263 -1026436655 #
ellipse-curve $-1 -1 $-1 -471.03518364669793 -38.938839925685443 2.9999999999999716 1.2246467991473532e-16 -1 2.1056135894809519e-17 1.110223024625152e-15 -1.6844908715847601e-16 -8 1 F -1.5707963267948966 F 0 #
truecolor-adesk-attrib $-1 -1 $396 $-1 $264 -1026436655 #
ellipse-curve $-1 -1 $-1 -471.03518364669793 -38.938839925685443 54.999999999999972 1.2246467991473532e-16 -1 2.1056135894809519e-17 1.110223024625152e-15 -1.6844908715847601e-16 -8 1 F -3.1415926535897931 F -1.5707963267948966 #
DXID-attrib $-1 -1 $-1 $265 $118 @18 ASM_EDGE_FROM_STEP @4 6074 #
color-adesk-attrib $-1 -1 $397 $268 $188 254 #
fmesh-eye-attrib $-1 -1 $398 $-1 $270 #
cone-surface $-1 -1 $-1 -471.03518364669793 -38.938839925685443 54.999999999999972 -1.2246467991473532e-16 1 -2.1056135894809519e-17 -1.110223024625152e-15 1.6844908715847601e-16 8 1 I I 0 1 8 forward I I I I #
DXID-attrib $-1 -1 $-1 $271 $121 @18 ASM_EDGE_FROM_STEP @4 6071 #
DXID-attrib $-1 -1 $-1 $273 $123 @18 ASM_EDGE_FROM_STEP @4 6073 #
color-adesk-attrib $-1 -1 $399 $275 $198 254 #
color-adesk-attrib $-1 -1 $400 $277 $200 254 #
loop $-1 -1 $-1 $401 $402 $112 #
DXID-attrib $-1 -1 $-1 $281 $132 @18 ASM_EDGE_FROM_STEP @4 6068 #
color-adesk-attrib $-1 -1 $403 $282 $209 254 #
truecolor-adesk-attrib $-1 -1 $404 $284 $210 -1026436655 #
truecolor-adesk-attrib $-1 -1 $405 $287 $213 -1026436655 #
fmesh-eye-attrib $-1 -1 $406 $-1 $288 #
cone-surface $-1 -1 $-1 -471.03518364669793 -38.938839925685443 2.9999999999999716 -1.2246467991473532e-16 1 -2.1056135894809519e-17 -1.110223024625152e-15 1.6844908715847601e-16 8 1 I I 0 1 8 forward I I I I #
DXID-attrib $-1 -1 $-1 $291 $146 @18 ASM_EDGE_FROM_STEP @4 6083 #
color-adesk-attrib $-1 -1 $407 $292 $219 254 #
point $-1 -1 $-1 -471.03518364669793 -38.938839925685443 -5.0000000000000284 #
DXID-attrib $-1 -1 $-1 $295 $148 @18 ASM_EDGE_FROM_STEP @4 6082 #
coedge $-1 -1 $-1 $359 $359 $297 $360 forward $381 $-1 #
edge $408 -1 $-1 $409 0 $409 6.2831853071795862 $297 $410 forward @7 unknown #
loop $-1 -1 $-1 $411 $298 $412 #
truecolor-adesk-attrib $-1 -1 $413 $-1 $299 -1026436655 #
vertex $-1 -1 $-1 $299 $414 #
ellipse-curve $-1 -1 $-1 -454.03518364669793 -38.938839925685386 19.999999999999972 1.2246467991473532e-16 -1 2.1056135894809519e-17 1.38777878078144e-15 -2.1056135894809502e-16 -10 1 I I #
truecolor-adesk-attrib $-1 -1 $415 $-1 $301 -1036992620 #
vertex $-1 -1 $-1 $301 $416 #
ellipse-curve $-1 -1 $-1 -316.03518364669793 -26.938839925685386 19.999999999999993 1.2246467991473532e-16 -1 2.1056135894809519e-17 -2.9143354396410241e-16 4.4217885379099951e-17 2.1000000000000001 1 I I #
color-adesk-attrib $-1 -1 $417 $302 $154 135 #
DXID-attrib $-1 -1 $-1 $304 $97 @18 ASM_FACE_FROM_STEP @14 stp-1M-55-9949 #
truecolor-adesk-attrib $-1 -1 $-1 $-1 $305 -1027620929 #
vertex $-1 -1 $-1 $305 $418 #
color-adesk-attrib $-1 -1 $419 $306 $233 135 #
point $-1 -1 $-1 -416.03518364669793 -26.938839925685386 22.09999999999998 #
DXID-attrib $-1 -1 $-1 $309 $101 @18 ASM_FACE_FROM_STEP @14 stp-1M-55-9950 #
point $-1 -1 $-1 -416.03518364669793 -36.200647225643309 19.999999999999979 #
DXID-attrib $-1 -1 $-1 $314 $112 @18 ASM_FACE_FROM_STEP @14 stp-1M-55-9937 #
color-adesk-attrib $-1 -1 $420 $315 $171 254 #
truecolor-adesk-attrib $-1 -1 $421 $316 $242 -1026436655 #
fmesh-eye-attrib $-1 -1 $422 $-1 $317 #
face $423 -1 $-1 $424 $425 $3 $-1 $426 reversed single #
loop $-1 -1 $-1 $427 $359 $317 #
cone-surface $-1 -1 $-1 -278.03518364669793 -35.938839925685386 19.999999999999996 1.2246467991473532e-16 -1 2.1056135894809519e-17 -1.38777878078144e-15 2.1056135894809502e-16 10 1 I I 0 1 10 forward I I I I #
loop $-1 -1 $-1 $-1 $428 $242 #
coedge $-1 -1 $-1 $384 $384 $321 $386 reversed $318 $-1 #
coedge $-1 -1 $-1 $385 $385 $429 $430 forward $320 $-1 #
edge $431 -1 $-1 $432 0 $432 6.2831853071795862 $321 $433 forward @7 unknown #
color-adesk-attrib $-1 -1 $434 $322 $245 254 #
color-adesk-attrib $-1 -1 $435 $324 $247 254 #
truecolor-adesk-attrib $-1 -1 $436 $-1 $326 -1026436655 #
ellipse-curve $-1 -1 $-1 -471.03518364669793 -26.938839925685386 2.9999999999999716 1.2246467991473532e-16 -1 2.1056135894809519e-17 1.110223024625152e-15 -1.6844908715847601e-16 -8 1 F -1.5707963267948966 F 0 #
DXID-attrib $-1 -1 $-1 $327 $176 @18 ASM_EDGE_FROM_STEP @4 6078 #
color-adesk-attrib $-1 -1 $437 $330 $253 254 #
DXID-attrib $-1 -1 $-1 $332 $179 @18 ASM_EDGE_FROM_STEP @4 6075 #
DXID-attrib $-1 -1 $-1 $334 $181 @18 ASM_EDGE_FROM_STEP @4 6077 #
color-adesk-attrib $-1 -1 $438 $336 $263 254 #
color-adesk-attrib $-1 -1 $439 $338 $264 254 #
DXID-attrib $-1 -1 $-1 $341 $188 @18 ASM_EDGE_FROM_STEP @4 6072 #
truecolor-adesk-attrib $-1 -1 $440 $342 $270 -1026436655 #
DXID-attrib $-1 -1 $-1 $346 $198 @18 ASM_EDGE_FROM_STEP @4 6091 #
DXID-attrib $-1 -1 $-1 $347 $200 @18 ASM_EDGE_FROM_STEP @4 6090 #
loop $-1 -1 $-1 $-1 $441 $112 #
coedge $-1 -1 $-1 $402 $402 $442 $443 forward $348 $-1 #
DXID-attrib $-1 -1 $-1 $350 $209 @18 ASM_EDGE_FROM_STEP @4 6088 #
color-adesk-attrib $-1 -1 $444 $351 $210 254 #
color-adesk-attrib $-1 -1 $445 $352 $213 254 #
truecolor-adesk-attrib $-1 -1 $446 $353 $288 -1026436655 #
DXID-attrib $-1 -1 $-1 $356 $219 @18 ASM_EDGE_FROM_STEP @4 6080 #
truecolor-adesk-attrib $-1 -1 $447 $-1 $360 -1026436655 #
vertex $-1 -1 $-1 $360 $448 #
ellipse-curve $-1 -1 $-1 -278.03518364669793 -38.938839925685386 19.999999999999996 1.2246467991473532e-16 -1 2.1056135894809519e-17 1.38777878078144e-15 -2.1056135894809502e-16 -10 1 I I #
loop $-1 -1 $-1 $-1 $449 $412 #
face $450 -1 $-1 $213 $361 $3 $-1 $451 reversed single #
color-adesk-attrib $-1 -1 $452 $362 $299 254 #
point $-1 -1 $-1 -454.03518364669793 -38.938839925685386 9.9999999999999716 #
color-adesk-attrib $-1 -1 $453 $365 $301 135 #
point $-1 -1 $-1 -316.03518364669793 -26.938839925685386 22.099999999999994 #
DXID-attrib $-1 -1 $-1 $368 $154 @18 ASM_FACE_FROM_STEP @14 stp-1M-55-9948 #
point $-1 -1 $-1 -316.03518364669793 -36.200647225643309 19.999999999999993 #
DXID-attrib $-1 -1 $-1 $372 $233 @18 ASM_EDGE_FROM_STEP @4 6092 #
DXID-attrib $-1 -1 $-1 $377 $171 @18 ASM_FACE_FROM_STEP @14 stp-1M-55-9938 #
color-adesk-attrib $-1 -1 $454 $378 $242 254 #
truecolor-adesk-attrib $-1 -1 $455 $379 $317 -1026436655 #
fmesh-eye-attrib $-1 -1 $456 $-1 $380 #
face $457 -1 $-1 $412 $458 $3 $-1 $459 reversed single #
loop $-1 -1 $-1 $460 $461 $380 #
plane-surface $-1 -1 $-1 -454.03518364669793 -35.938839925685386 19.999999999999972 1.2246467991473532e-16 -1 2.1056135894809519e-17 1.38777878078144e-16 -2.1056135894809501e-17 -1 forward_v I I I I #
loop $-1 -1 $-1 $-1 $429 $317 #
coedge $-1 -1 $-1 $428 $428 $441 $462 reversed $383 $-1 #
coedge $-1 -1 $-1 $429 $429 $385 $430 reversed $427 $-1 #
edge $463 -1 $-1 $464 0 $464 6.2831853071795862 $385 $465 forward @7 unknown #
truecolor-adesk-attrib $-1 -1 $466 $-1 $386 -1026436655 #
vertex $-1 -1 $-1 $386 $467 #
ellipse-curve $-1 -1 $-1 -278.03518364669793 -35.938839925685386 19.999999999999996 -1.2246467991473532e-16 1 -2.1056135894809519e-17 -2.220446049250304e-15 3.3689817431695201e-16 16 1 I I #
DXID-attrib $-1 -1 $-1 $387 $245 @18 ASM_EDGE_FROM_STEP @4 6079 #
DXID-attrib $-1 -1 $-1 $388 $247 @18 ASM_EDGE_FROM_STEP @4 6081 #
color-adesk-attrib $-1 -1 $468 $389 $326 254 #
DXID-attrib $-1 -1 $-1 $392 $253 @18 ASM_EDGE_FROM_STEP @4 6076 #
DXID-attrib $-1 -1 $-1 $395 $263 @18 ASM_EDGE_FROM_STEP @4 6085 #
DXID-attrib $-1 -1 $-1 $396 $264 @18 ASM_EDGE_FROM_STEP @4 6084 #
color-adesk-attrib $-1 -1 $469 $398 $270 254 #
coedge $-1 -1 $-1 $441 $441 $428 $462 forward $401 $-1 #
coedge $-1 -1 $-1 $442 $442 $402 $443 reversed $470 $-1 #
edge $471 -1 $-1 $472 0 $472 6.2831853071795862 $402 $473 forward @7 unknown #
DXID-attrib $-1 -1 $-1 $404 $210 @18 ASM_FACE_FROM_STEP @14 stp-1M-55-9947 #
DXID-attrib $-1 -1 $-1 $405 $213 @18 ASM_FACE_FROM_STEP @14 stp-1M-55-9944 #
color-adesk-attrib $-1 -1 $474 $406 $288 254 #
color-adesk-attrib $-1 -1 $475 $408 $360 254 #
point $-1 -1 $-1 -278.03518364669793 -38.938839925685386 10 #
coedge $-1 -1 $-1 $449 $449 $476 $477 reversed $411 $-1 #
fmesh-eye-attrib $-1 -1 $478 $-1 $412 #
cone-surface $-1 -1 $-1 -454.03518364669793 -35.938839925685386 19.999999999999972 1.2246467991473532e-16 -1 2.1056135894809519e-17 -1.38777878078144e-15 2.1056135894809502e-16 10 1 I I 0 1 10 forward I I I I #
DXID-attrib $-1 -1 $-1 $413 $299 @18 ASM_EDGE_FROM_STEP @4 6086 #
DXID-attrib $-1 -1 $-1 $415 $301 @18 ASM_EDGE_FROM_STEP @4 6093 #
DXID-attrib $-1 -1 $-1 $421 $242 @18 ASM_FACE_FROM_STEP @14 stp-1M-55-9939 #
color-adesk-attrib $-1 -1 $479 $422 $317 254 #
truecolor-adesk-attrib $-1 -1 $480 $423 $380 -1026436655 #
fmesh-eye-attrib $-1 -1 $481 $-1 $424 #
loop $-1 -1 $-1 $470 $482 $424 #
cone-surface $-1 -1 $-1 -454.03518364669793 -26.938839925685386 19.999999999999972 1.2246467991473532e-16 -1 2.1056135894809519e-17 -2.220446049250304e-15 3.3689817431695201e-16 16 1 I I 0 1 16 forward I I I I #
loop $-1 -1 $-1 $-1 $476 $380 #
coedge $-1 -1 $-1 $461 $461 $482 $483 forward $425 $-1 #
edge $484 -1 $-1 $485 0 $485 6.2831853071795862 $441 $486 forward @7 unknown #
truecolor-adesk-attrib $-1 -1 $487 $-1 $430 -1026436655 #
vertex $-1 -1 $-1 $430 $488 #
ellipse-curve $-1 -1 $-1 -278.03518364669793 -35.938839925685386 19.999999999999996 1.2246467991473532e-16 -1 2.1056135894809519e-17 -1.38777878078144e-15 2.1056135894809502e-16 10 1 I I #
color-adesk-attrib $-1 -1 $489 $431 $386 254 #
point $-1 -1 $-1 -278.03518364669793 -35.938839925685386 36.000000000000014 #
DXID-attrib $-1 -1 $-1 $436 $326 @18 ASM_EDGE_FROM_STEP @4 6089 #
DXID-attrib $-1 -1 $-1 $440 $270 @18 ASM_FACE_FROM_STEP @14 stp-1M-55-9946 #
loop $-1 -1 $-1 $-1 $442 $424 #
truecolor-adesk-attrib $-1 -1 $490 $-1 $443 -1026436655 #
vertex $-1 -1 $-1 $443 $491 #
ellipse-curve $-1 -1 $-1 -454.03518364669793 -26.938839925685386 19.999999999999972 1.2246467991473532e-16 -1 2.1056135894809519e-17 -2.220446049250304e-15 3.3689817431695201e-16 16 1 I I #
DXID-attrib $-1 -1 $-1 $446 $288 @18 ASM_FACE_FROM_STEP @14 stp-1M-55-9945 #
DXID-attrib $-1 -1 $-1 $447 $360 @18 ASM_EDGE_FROM_STEP @4 6087 #
coedge $-1 -1 $-1 $476 $476 $449 $477 forward $460 $-1 #
edge $492 -1 $-1 $493 0 $493 6.2831853071795862 $476 $494 forward @7 unknown #
truecolor-adesk-attrib $-1 -1 $495 $450 $412 -1026436655 #
DXID-attrib $-1 -1 $-1 $455 $317 @18 ASM_FACE_FROM_STEP @14 stp-1M-55-9940 #
color-adesk-attrib $-1 -1 $496 $456 $380 254 #
truecolor-adesk-attrib $-1 -1 $497 $457 $424 -1026436655 #
coedge $-1 -1 $-1 $482 $482 $461 $483 reversed $458 $-1 #
edge $498 -1 $-1 $499 0 $499 6.2831853071795862 $461 $500 forward @7 unknown #
truecolor-adesk-attrib $-1 -1 $501 $-1 $462 -1026436655 #
vertex $-1 -1 $-1 $462 $502 #
ellipse-curve $-1 -1 $-1 -278.03518364669793 -26.938839925685386 19.999999999999996 1.2246467991473532e-16 -1 2.1056135894809519e-17 -2.220446049250304e-15 3.3689817431695201e-16 16 1 I I #
color-adesk-attrib $-1 -1 $503 $463 $430 254 #
point $-1 -1 $-1 -278.03518364669793 -35.938839925685386 29.999999999999996 #
DXID-attrib $-1 -1 $-1 $466 $386 @18 ASM_EDGE_FROM_STEP @4 6096 #
color-adesk-attrib $-1 -1 $504 $471 $443 254 #
point $-1 -1 $-1 -454.03518364669793 -26.938839925685386 36.000000000000014 #
truecolor-adesk-attrib $-1 -1 $505 $-1 $477 -1026436655 #
vertex $-1 -1 $-1 $477 $506 #
ellipse-curve $-1 -1 $-1 -454.03518364669793 -35.938839925685386 19.999999999999972 1.2246467991473532e-16 -1 2.1056135894809519e-17 -1.38777878078144e-15 2.1056135894809502e-16 10 1 I I #
color-adesk-attrib $-1 -1 $507 $478 $412 254 #
DXID-attrib $-1 -1 $-1 $480 $380 @18 ASM_FACE_FROM_STEP @14 stp-1M-55-9941 #
color-adesk-attrib $-1 -1 $508 $481 $424 254 #
truecolor-adesk-attrib $-1 -1 $509 $-1 $483 -1026436655 #
vertex $-1 -1 $-1 $483 $510 #
ellipse-curve $-1 -1 $-1 -454.03518364669793 -35.938839925685386 19.999999999999972 -1.2246467991473532e-16 1 -2.1056135894809519e-17 -2.220446049250304e-15 3.3689817431695201e-16 16 1 I I #
color-adesk-attrib $-1 -1 $511 $484 $462 254 #
point $-1 -1 $-1 -278.03518364669793 -26.938839925685386 36.000000000000014 #
DXID-attrib $-1 -1 $-1 $487 $430 @18 ASM_EDGE_FROM_STEP @4 6097 #
DXID-attrib $-1 -1 $-1 $490 $443 @18 ASM_EDGE_FROM_STEP @4 6094 #
color-adesk-attrib $-1 -1 $512 $492 $477 254 #
point $-1 -1 $-1 -454.03518364669793 -35.938839925685386 29.999999999999972 #
DXID-attrib $-1 -1 $-1 $495 $412 @18 ASM_FACE_FROM_STEP @14 stp-1M-55-9943 #
DXID-attrib $-1 -1 $-1 $497 $424 @18 ASM_FACE_FROM_STEP @14 stp-1M-55-9942 #
color-adesk-attrib $-1 -1 $513 $498 $483 254 #
point $-1 -1 $-1 -454.03518364669793 -35.938839925685386 36.000000000000014 #
DXID-attrib $-1 -1 $-1 $501 $462 @18 ASM_EDGE_FROM_STEP @4 6095 #
DXID-attrib $-1 -1 $-1 $505 $477 @18 ASM_EDGE_FROM_STEP @4 6099 #
DXID-attrib $-1 -1 $-1 $509 $483 @18 ASM_EDGE_FROM_STEP @4 6098 #
