700 374 1 0         
5 ZWCAD 12 ACIS 28.0 NT 24 Mon May 13 10:19:44 2024 
1 9.9999999999999995e-07 1e-10 
body $1 -1 $-1 $2 $-1 $-1 #
DXID-attrib $-1 -1 $-1 $-1 $0 @18 ASM_BODY_FROM_STEP @83 D91CD002F8E25BA4942B6484E338D2A41AD29DCF|:|8CB3CBCEBE3339AC3139F7812237AD39DB573F35 #
lump $-1 -1 $-1 $-1 $3 $0 #
shell $-1 -1 $-1 $-1 $-1 $4 $-1 $2 #
face $5 -1 $-1 $6 $7 $3 $-1 $8 reversed single #
truecolor-adesk-attrib $-1 -1 $9 $-1 $4 -1025450021 #
face $10 -1 $-1 $11 $12 $3 $-1 $13 forward single #
loop $-1 -1 $-1 $14 $15 $4 #
plane-surface $-1 -1 $-1 179.28782715962097 -367.78576434869746 -14.500000000000002 5.3326139497324002e-16 1 3.991483730814881e-32 -1 5.3326139497324002e-16 2.4492935982947064e-16 forward_v I I I I #
DXID-attrib $-1 -1 $-1 $5 $4 @18 ASM_FACE_FROM_STEP @15 stp-1M-67-13836 #
truecolor-adesk-attrib $-1 -1 $16 $-1 $6 -1025450021 #
face $17 -1 $-1 $18 $19 $3 $-1 $20 reversed single #
loop $-1 -1 $-1 $-1 $21 $6 #
cone-surface $-1 -1 $-1 179.28782715962097 -370.78576434869746 -2.0816681711716343e-16 5.3326139497324002e-16 1 3.991483730814881e-32 -3.4290110376125893e-15 2.3873669316100101e-30 -14.000000000000002 1 I I 0 1 14.000000000000002 forward I I I I #
loop $-1 -1 $-1 $-1 $22 $4 #
coedge $-1 -1 $-1 $15 $15 $23 $24 reversed $7 $-1 #
DXID-attrib $-1 -1 $-1 $10 $6 @18 ASM_FACE_FROM_STEP @15 stp-1M-67-13837 #
truecolor-adesk-attrib $-1 -1 $25 $-1 $11 -1025450021 #
face $26 -1 $-1 $27 $28 $3 $-1 $29 reversed single #
loop $-1 -1 $-1 $30 $31 $11 #
plane-surface $-1 -1 $-1 179.28782715962097 -373.78576434869746 -14.500000000000002 -5.3326139497324002e-16 -1 -3.991483730814881e-32 1 -5.3326139497324002e-16 -2.4492935982947064e-16 forward_v I I I I #
coedge $-1 -1 $-1 $32 $33 $34 $35 forward $12 $-1 #
coedge $-1 -1 $-1 $22 $22 $36 $37 forward $14 $-1 #
coedge $-1 -1 $-1 $38 $39 $15 $24 forward $40 $-1 #
edge $41 -1 $-1 $42 -3.1415926535897931 $42 3.1415926535897931 $15 $43 forward @7 unknown #
DXID-attrib $-1 -1 $-1 $17 $11 @18 ASM_FACE_FROM_STEP @15 stp-1M-67-13838 #
truecolor-adesk-attrib $-1 -1 $44 $-1 $18 -1025450021 #
face $45 -1 $-1 $46 $47 $3 $-1 $48 forward single #
loop $-1 -1 $-1 $49 $50 $18 #
plane-surface $-1 -1 $-1 179.28782715962097 -346.78576434869746 -14.500000000000002 5.3326139497324002e-16 1 3.991483730814881e-32 -1 5.3326139497324002e-16 2.4492935982947064e-16 forward_v I I I I #
loop $-1 -1 $-1 $-1 $34 $11 #
coedge $-1 -1 $-1 $31 $31 $51 $52 reversed $19 $-1 #
coedge $-1 -1 $-1 $36 $21 $33 $53 forward $12 $-1 #
coedge $-1 -1 $-1 $21 $36 $32 $53 reversed $12 $-1 #
coedge $-1 -1 $-1 $34 $34 $21 $35 reversed $30 $-1 #
edge $54 -1 $-1 $55 -3.1415926535897931 $55 3.1415926535897931 $21 $56 forward @7 unknown #
coedge $-1 -1 $-1 $33 $32 $22 $37 reversed $12 $-1 #
edge $57 -1 $-1 $58 -3.1415926535897931 $58 3.1415926535897931 $22 $59 forward @7 unknown #
coedge $-1 -1 $-1 $60 $23 $39 $61 forward $40 $-1 #
coedge $-1 -1 $-1 $23 $60 $38 $61 reversed $40 $-1 #
loop $-1 -1 $-1 $-1 $23 $62 #
truecolor-adesk-attrib $-1 -1 $63 $-1 $24 -1025450021 #
vertex $-1 -1 $-1 $24 $64 #
ellipse-curve $-1 -1 $-1 179.28782715962097 -367.78576434869746 -2.0816681711716331e-16 5.3326139497324002e-16 1 3.991483730814881e-32 -15 7.9989209245986008e-15 3.67394039744206e-15 1 I I #
DXID-attrib $-1 -1 $-1 $26 $18 @18 ASM_FACE_FROM_STEP @15 stp-1M-67-13839 #
truecolor-adesk-attrib $-1 -1 $65 $-1 $27 -1025450021 #
face $66 -1 $-1 $62 $67 $3 $-1 $68 reversed single #
loop $-1 -1 $-1 $-1 $69 $27 #
cone-surface $-1 -1 $-1 179.28782715962097 -349.78576434869746 -2.0816681711716259e-16 5.3326139497324002e-16 1 3.991483730814881e-32 -3.4290110376125893e-15 2.3873669316100101e-30 -14.000000000000002 1 I I 0 1 14.000000000000002 forward I I I I #
loop $-1 -1 $-1 $-1 $70 $18 #
coedge $-1 -1 $-1 $50 $50 $71 $72 reversed $28 $-1 #
coedge $-1 -1 $-1 $73 $74 $31 $52 forward $75 $-1 #
edge $76 -1 $-1 $77 -3.1415926535897931 $77 3.1415926535897931 $31 $78 forward @7 unknown #
edge $79 -1 $-1 $55 -0.2142857142857143 $58 0.2142857142857143 $32 $80 forward @7 unknown #
truecolor-adesk-attrib $-1 -1 $81 $-1 $35 -1025450021 #
vertex $-1 -1 $-1 $35 $82 #
ellipse-curve $-1 -1 $-1 179.28782715962097 -373.78576434869746 -2.0816681711716355e-16 5.3326139497324002e-16 1 3.991483730814881e-32 -3.4290110376125893e-15 2.3873669316100101e-30 -14.000000000000002 1 I I #
truecolor-adesk-attrib $-1 -1 $83 $-1 $37 -1025450021 #
vertex $-1 -1 $-1 $37 $84 #
ellipse-curve $-1 -1 $-1 179.28782715962097 -367.78576434869746 -2.0816681711716331e-16 5.3326139497324002e-16 1 3.991483730814881e-32 -3.4290110376125893e-15 2.3873669316100101e-30 -14.000000000000002 1 I I #
coedge $-1 -1 $-1 $39 $38 $85 $86 forward $40 $-1 #
edge $87 -1 $-1 $42 -0.5 $88 0.5 $38 $89 forward @7 unknown #
face $90 -1 $-1 $91 $40 $3 $-1 $92 forward single #
DXID-attrib $-1 -1 $-1 $41 $24 @18 ASM_EDGE_FROM_STEP @4 9020 #
point $-1 -1 $-1 194.28782715962097 -367.78576434869746 -2.0451370158381928e-15 #
DXID-attrib $-1 -1 $-1 $45 $27 @18 ASM_FACE_FROM_STEP @15 stp-1M-67-13840 #
truecolor-adesk-attrib $-1 -1 $93 $-1 $46 -1025450021 #
loop $-1 -1 $-1 $94 $85 $46 #
plane-surface $-1 -1 $-1 179.28782715962097 -352.78576434869746 -14.500000000000002 -5.3326139497324002e-16 -1 -3.991483730814881e-32 1 -5.3326139497324002e-16 -2.4492935982947064e-16 forward_v I I I I #
coedge $-1 -1 $-1 $95 $96 $97 $98 forward $47 $-1 #
coedge $-1 -1 $-1 $70 $70 $99 $100 forward $49 $-1 #
coedge $-1 -1 $-1 $101 $102 $50 $72 forward $103 $-1 #
edge $104 -1 $-1 $105 -3.1415926535897931 $105 3.1415926535897931 $50 $106 forward @7 unknown #
coedge $-1 -1 $-1 $107 $51 $74 $108 reversed $75 $-1 #
coedge $-1 -1 $-1 $51 $107 $73 $108 forward $75 $-1 #
loop $-1 -1 $-1 $-1 $107 $91 #
truecolor-adesk-attrib $-1 -1 $109 $-1 $52 -1025450021 #
vertex $-1 -1 $-1 $52 $110 #
ellipse-curve $-1 -1 $-1 179.28782715962097 -373.78576434869746 -2.0816681711716355e-16 -5.3326139497324002e-16 -1 -3.991483730814881e-32 -15 7.9989209245986008e-15 3.67394039744206e-15 1 I I #
truecolor-adesk-attrib $-1 -1 $111 $-1 $53 -1025450021 #
straight-curve $-1 -1 $-1 179.28782715962097 -370.78576434869746 14.000000000000002 7.4656595296253613e-15 14.000000000000002 5.5880772231408339e-31 F -0.2142857142857143 F 0.2142857142857143 #
DXID-attrib $-1 -1 $-1 $54 $35 @18 ASM_EDGE_FROM_STEP @4 9022 #
point $-1 -1 $-1 179.28782715962097 -373.78576434869746 14.000000000000002 #
DXID-attrib $-1 -1 $-1 $57 $37 @18 ASM_EDGE_FROM_STEP @4 9021 #
point $-1 -1 $-1 179.28782715962097 -367.78576434869746 14.000000000000002 #
coedge $-1 -1 $-1 $85 $85 $60 $86 reversed $67 $-1 #
edge $112 -1 $-1 $88 -3.1415926535897931 $88 3.1415926535897931 $85 $113 forward @7 unknown #
truecolor-adesk-attrib $-1 -1 $114 $-1 $61 -1025450021 #
vertex $-1 -1 $-1 $86 $115 #
straight-curve $-1 -1 $-1 194.28782715962097 -360.28576434869746 -2.0451370158381928e-15 7.9989209245986008e-15 15 5.9872255962223218e-31 F -0.5 F 0.5 #
truecolor-adesk-attrib $-1 -1 $116 $-1 $62 -1025450021 #
face $117 -1 $-1 $118 $75 $3 $-1 $119 forward single #
cone-surface $-1 -1 $-1 179.28782715962097 -360.28576434869746 -2.0816681711716301e-16 -5.3326139497324002e-16 -1 -3.991483730814881e-32 -15 7.9989209245986008e-15 3.67394039744206e-15 1 I I 0 1 15 forward I I I I #
DXID-attrib $-1 -1 $-1 $66 $46 @18 ASM_FACE_FROM_STEP @15 stp-1M-67-13841 #
loop $-1 -1 $-1 $-1 $97 $46 #
coedge $-1 -1 $-1 $99 $69 $96 $120 forward $47 $-1 #
coedge $-1 -1 $-1 $69 $99 $95 $120 reversed $47 $-1 #
coedge $-1 -1 $-1 $97 $97 $69 $98 reversed $94 $-1 #
edge $121 -1 $-1 $122 -3.1415926535897931 $122 3.1415926535897931 $69 $123 forward @7 unknown #
coedge $-1 -1 $-1 $96 $95 $70 $100 reversed $47 $-1 #
edge $124 -1 $-1 $125 -3.1415926535897931 $125 3.1415926535897931 $70 $126 forward @7 unknown #
coedge $-1 -1 $-1 $127 $71 $102 $128 forward $103 $-1 #
coedge $-1 -1 $-1 $71 $129 $101 $128 reversed $103 $-1 #
loop $-1 -1 $-1 $-1 $71 $130 #
truecolor-adesk-attrib $-1 -1 $131 $-1 $72 -1025450021 #
vertex $-1 -1 $-1 $72 $132 #
ellipse-curve $-1 -1 $-1 179.28782715962097 -346.78576434869746 -2.0816681711716247e-16 5.3326139497324002e-16 1 3.991483730814881e-32 -15 7.9989209245986008e-15 3.67394039744206e-15 1 I I #
coedge $-1 -1 $-1 $74 $73 $133 $134 reversed $75 $-1 #
edge $135 -1 $-1 $136 -1.2666666666666668 $77 -0.90000000000000002 $74 $137 forward @7 unknown #
DXID-attrib $-1 -1 $-1 $76 $52 @18 ASM_EDGE_FROM_STEP @4 9024 #
point $-1 -1 $-1 194.28782715962097 -373.78576434869746 -2.0451370158381928e-15 #
DXID-attrib $-1 -1 $-1 $79 $53 @18 ASM_EDGE_FROM_STEP @4 9023 #
truecolor-adesk-attrib $-1 -1 $138 $-1 $86 -1025450021 #
ellipse-curve $-1 -1 $-1 179.28782715962097 -352.78576434869746 -2.0816681711716272e-16 -5.3326139497324002e-16 -1 -3.991483730814881e-32 -15 7.9989209245986008e-15 3.67394039744206e-15 1 I I #
DXID-attrib $-1 -1 $-1 $87 $61 @18 ASM_EDGE_FROM_STEP @4 9030 #
point $-1 -1 $-1 194.28782715962097 -352.78576434869746 -2.045137015838192e-15 #
DXID-attrib $-1 -1 $-1 $90 $62 @18 ASM_FACE_FROM_STEP @15 stp-1M-67-13842 #
truecolor-adesk-attrib $-1 -1 $139 $-1 $91 -1025450021 #
face $140 -1 $-1 $130 $141 $3 $-1 $142 forward single #
cone-surface $-1 -1 $-1 179.28782715962097 -360.28576434869746 -2.0816681711716301e-16 -5.3326139497324002e-16 -1 -3.991483730814881e-32 -15 7.9989209245986008e-15 3.67394039744206e-15 1 I I 0 1 15 forward I I I I #
edge $143 -1 $-1 $122 -0.2142857142857143 $125 0.2142857142857143 $95 $144 forward @7 unknown #
truecolor-adesk-attrib $-1 -1 $145 $-1 $98 -1025450021 #
vertex $-1 -1 $-1 $98 $146 #
ellipse-curve $-1 -1 $-1 179.28782715962097 -352.78576434869746 -2.0816681711716272e-16 5.3326139497324002e-16 1 3.991483730814881e-32 -3.4290110376125893e-15 2.3873669316100101e-30 -14.000000000000002 1 I I #
truecolor-adesk-attrib $-1 -1 $147 $-1 $100 -1025450021 #
vertex $-1 -1 $-1 $100 $148 #
ellipse-curve $-1 -1 $-1 179.28782715962097 -346.78576434869746 -2.0816681711716247e-16 5.3326139497324002e-16 1 3.991483730814881e-32 -3.4290110376125893e-15 2.3873669316100101e-30 -14.000000000000002 1 I I #
coedge $-1 -1 $-1 $129 $101 $149 $150 reversed $103 $-1 #
edge $151 -1 $-1 $105 0.90000000000000002 $152 1.2666666666666668 $101 $153 forward @7 unknown #
coedge $-1 -1 $-1 $102 $127 $154 $155 reversed $103 $-1 #
face $156 -1 $-1 $157 $103 $3 $-1 $158 forward single #
DXID-attrib $-1 -1 $-1 $104 $72 @18 ASM_EDGE_FROM_STEP @4 9025 #
point $-1 -1 $-1 194.28782715962097 -346.78576434869746 -2.045137015838192e-15 #
coedge $-1 -1 $-1 $159 $160 $107 $134 forward $141 $-1 #
edge $161 -1 $-1 $136 -3.1415926535897931 $136 3.1415926535897931 $107 $162 forward @7 unknown #
truecolor-adesk-attrib $-1 -1 $163 $-1 $108 -1025450021 #
vertex $-1 -1 $-1 $134 $164 #
straight-curve $-1 -1 $-1 194.28782715962097 -360.28576434869746 -2.0451370158381928e-15 7.9989209245986008e-15 15 5.9872255962223218e-31 F -1.2666666666666668 F -0.90000000000000002 #
DXID-attrib $-1 -1 $-1 $112 $86 @18 ASM_EDGE_FROM_STEP @4 9029 #
DXID-attrib $-1 -1 $-1 $117 $91 @18 ASM_FACE_FROM_STEP @15 stp-1M-67-13843 #
truecolor-adesk-attrib $-1 -1 $165 $-1 $118 -1025450021 #
loop $-1 -1 $-1 $-1 $133 $118 #
torus-surface $-1 -1 $-1 179.28782715962097 -379.28576434869746 -2.0816681711716378e-16 5.3326139497324002e-16 1 3.991483730814881e-32 14.000000000000002 1 -1 5.3326139497324002e-16 2.4492935982947064e-16 forward_v I I I I #
truecolor-adesk-attrib $-1 -1 $166 $-1 $120 -1025450021 #
straight-curve $-1 -1 $-1 179.28782715962097 -349.78576434869746 14.000000000000002 7.4656595296253613e-15 14.000000000000002 5.5880772231408339e-31 F -0.2142857142857143 F 0.2142857142857143 #
DXID-attrib $-1 -1 $-1 $121 $98 @18 ASM_EDGE_FROM_STEP @4 9027 #
point $-1 -1 $-1 179.28782715962097 -352.78576434869746 14.000000000000002 #
DXID-attrib $-1 -1 $-1 $124 $100 @18 ASM_EDGE_FROM_STEP @4 9026 #
point $-1 -1 $-1 179.28782715962097 -346.78576434869746 14.000000000000002 #
coedge $-1 -1 $-1 $154 $167 $127 $150 forward $168 $-1 #
edge $169 -1 $-1 $170 -1.2246467991473535e-16 $152 3.1415926535897931 $127 $171 forward @7 unknown #
truecolor-adesk-attrib $-1 -1 $172 $-1 $128 -1025450021 #
vertex $-1 -1 $-1 $128 $173 #
straight-curve $-1 -1 $-1 194.28782715962097 -360.28576434869746 -2.0451370158381928e-15 7.9989209245986008e-15 15 5.9872255962223218e-31 F 0.90000000000000002 F 1.2666666666666668 #
coedge $-1 -1 $-1 $174 $149 $129 $155 forward $168 $-1 #
edge $175 -1 $-1 $152 -3.1415926535897931 $170 -1.2246467991473535e-16 $129 $176 forward @7 unknown #
truecolor-adesk-attrib $-1 -1 $177 $-1 $130 -1025450021 #
face $178 -1 $-1 $179 $180 $3 $-1 $181 reversed single #
cone-surface $-1 -1 $-1 179.28782715962097 -360.28576434869746 -2.0816681711716301e-16 -5.3326139497324002e-16 -1 -3.991483730814881e-32 -15 7.9989209245986008e-15 3.67394039744206e-15 1 I I 0 1 15 forward I I I I #
coedge $-1 -1 $-1 $182 $133 $160 $183 forward $141 $-1 #
coedge $-1 -1 $-1 $133 $182 $159 $183 reversed $141 $-1 #
truecolor-adesk-attrib $-1 -1 $184 $-1 $134 -1025450021 #
ellipse-curve $-1 -1 $-1 179.28782715962097 -379.28576434869746 -2.0816681711716378e-16 -5.3326139497324002e-16 -1 -3.991483730814881e-32 -15 7.9989209245986008e-15 3.67394039744206e-15 1 I I #
DXID-attrib $-1 -1 $-1 $135 $108 @18 ASM_EDGE_FROM_STEP @4 9032 #
point $-1 -1 $-1 194.28782715962097 -379.28576434869746 -2.0451370158381936e-15 #
DXID-attrib $-1 -1 $-1 $140 $118 @18 ASM_FACE_FROM_STEP @15 stp-1M-67-13844 #
DXID-attrib $-1 -1 $-1 $143 $120 @18 ASM_EDGE_FROM_STEP @4 9028 #
coedge $-1 -1 $-1 $149 $185 $174 $186 reversed $168 $-1 #
loop $-1 -1 $-1 $-1 $154 $179 #
truecolor-adesk-attrib $-1 -1 $187 $-1 $150 -1025450021 #
vertex $-1 -1 $-1 $150 $188 #
ellipse-curve $-1 -1 $-1 179.28782715962097 -341.28576434869746 -2.0816681711716225e-16 5.3326139497324002e-16 1 3.991483730814881e-32 -15 7.9989209245986008e-15 3.67394039744206e-15 1 F -1.2246467991473535e-16 F 3.1415926535897931 #
DXID-attrib $-1 -1 $-1 $151 $128 @18 ASM_EDGE_FROM_STEP @4 9035 #
point $-1 -1 $-1 194.28782715962097 -341.28576434869746 -5.7190774132802528e-15 #
coedge $-1 -1 $-1 $185 $154 $167 $186 forward $168 $-1 #
truecolor-adesk-attrib $-1 -1 $189 $-1 $155 -1025450021 #
ellipse-curve $-1 -1 $-1 179.28782715962097 -341.28576434869746 -2.0816681711716225e-16 5.3326139497324002e-16 1 3.991483730814881e-32 -15 7.9989209245986008e-15 3.67394039744206e-15 1 F -3.1415926535897931 F -1.2246467991473535e-16 #
DXID-attrib $-1 -1 $-1 $156 $130 @18 ASM_FACE_FROM_STEP @15 stp-1M-67-13845 #
truecolor-adesk-attrib $-1 -1 $190 $-1 $157 -1025450021 #
face $191 -1 $-1 $192 $168 $3 $-1 $193 forward single #
loop $-1 -1 $-1 $194 $195 $157 #
plane-surface $-1 -1 $-1 179.28782715962097 -380.28576434869746 -2.081668171171638e-16 5.3326139497324002e-16 1 3.991483730814881e-32 -1 5.3326139497324002e-16 2.4492935982947064e-16 forward_v I I I I #
coedge $-1 -1 $-1 $160 $159 $195 $196 forward $141 $-1 #
edge $197 -1 $-1 $136 0 $198 1.5707963267948966 $159 $199 forward @7 unknown #
DXID-attrib $-1 -1 $-1 $161 $134 @18 ASM_EDGE_FROM_STEP @4 9031 #
coedge $-1 -1 $-1 $167 $174 $200 $201 forward $168 $-1 #
edge $202 -1 $-1 $170 0 $203 1.5707963267948966 $174 $204 forward @7 unknown #
DXID-attrib $-1 -1 $-1 $169 $150 @18 ASM_EDGE_FROM_STEP @4 9036 #
point $-1 -1 $-1 164.28782715962097 -341.28576434869746 1.6288033816038674e-15 #
DXID-attrib $-1 -1 $-1 $175 $155 @18 ASM_EDGE_FROM_STEP @4 9037 #
DXID-attrib $-1 -1 $-1 $178 $157 @18 ASM_FACE_FROM_STEP @15 stp-1M-67-13846 #
truecolor-adesk-attrib $-1 -1 $205 $-1 $179 -1025450021 #
face $206 -1 $-1 $207 $208 $3 $-1 $209 forward single #
torus-surface $-1 -1 $-1 179.28782715962097 -341.28576434869746 -2.0816681711716225e-16 -5.3326139497324002e-16 -1 -3.991483730814881e-32 14.000000000000002 1 1 -5.3326139497324002e-16 -2.4492935982947064e-16 forward_v I I I I #
loop $-1 -1 $-1 $-1 $210 $157 #
coedge $-1 -1 $-1 $195 $195 $182 $196 reversed $180 $-1 #
edge $211 -1 $-1 $198 -3.1415926535897931 $198 3.1415926535897931 $182 $212 forward @7 unknown #
truecolor-adesk-attrib $-1 -1 $213 $-1 $183 -1025450021 #
vertex $-1 -1 $-1 $183 $214 #
ellipse-curve $-1 -1 $-1 193.28782715962097 -379.28576434869746 -5.3516833735360434e-15 -3.6739403974420564e-16 2.3583189544699787e-31 -1 1 -5.3326139497324002e-16 -3.6739403974420564e-16 1 F 0 F 1.5707963267948966 #
coedge $-1 -1 $-1 $200 $200 $185 $201 reversed $208 $-1 #
edge $215 -1 $-1 $203 1.2246467991473498e-16 $203 6.2831853071795862 $185 $216 forward @7 unknown #
truecolor-adesk-attrib $-1 -1 $217 $-1 $186 -1025450021 #
vertex $-1 -1 $-1 $186 $218 #
ellipse-curve $-1 -1 $-1 165.28782715962097 -341.28576434869746 1.5063387016891371e-15 -1.2246467991473564e-16 1.0522052335443206e-31 -1 -1 5.3326139497324002e-16 1.2246467991473564e-16 1 F 0 F 1.5707963267948966 #
DXID-attrib $-1 -1 $-1 $191 $179 @18 ASM_FACE_FROM_STEP @15 stp-1M-67-13847 #
truecolor-adesk-attrib $-1 -1 $219 $-1 $192 -1025450021 #
face $220 -1 $-1 $221 $222 $3 $-1 $223 reversed single #
loop $-1 -1 $-1 $224 $200 $192 #
plane-surface $-1 -1 $-1 179.28782715962097 -340.28576434869746 -2.0816681711716222e-16 5.3326139497324002e-16 1 3.991483730814881e-32 -1 5.3326139497324002e-16 2.4492935982947064e-16 forward_v I I I I #
coedge $-1 -1 $-1 $210 $210 $225 $226 forward $194 $-1 #
truecolor-adesk-attrib $-1 -1 $227 $-1 $196 -1025450021 #
ellipse-curve $-1 -1 $-1 179.28782715962097 -380.28576434869746 -2.081668171171638e-16 5.3326139497324002e-16 1 3.991483730814881e-32 -14.000000000000002 7.4656595296253613e-15 3.4290110376125893e-15 1 I I #
DXID-attrib $-1 -1 $-1 $197 $183 @18 ASM_EDGE_FROM_STEP @4 9033 #
point $-1 -1 $-1 193.28782715962097 -380.28576434869746 -5.3516833735360434e-15 #
truecolor-adesk-attrib $-1 -1 $228 $-1 $201 -1025450021 #
ellipse-curve $-1 -1 $-1 179.28782715962097 -340.28576434869746 -2.0816681711716222e-16 -5.3326139497324002e-16 -1 -3.991483730814881e-32 -14.000000000000002 7.4656595296253613e-15 3.4290110376125893e-15 1 I I #
DXID-attrib $-1 -1 $-1 $202 $186 @18 ASM_EDGE_FROM_STEP @4 9039 #
point $-1 -1 $-1 165.28782715962097 -340.28576434869746 1.5063387016891371e-15 #
DXID-attrib $-1 -1 $-1 $206 $192 @18 ASM_FACE_FROM_STEP @15 stp-1M-67-13848 #
truecolor-adesk-attrib $-1 -1 $229 $-1 $207 -1025450021 #
face $230 -1 $-1 $231 $232 $3 $-1 $233 reversed single #
loop $-1 -1 $-1 $-1 $234 $207 #
cone-surface $-1 -1 $-1 186.28782715962097 -340.28576434869746 -2.6165617263141797e-15 -5.3326139497324002e-16 -1 -3.991483730814881e-32 -7.3478807948841188e-16 5.1157862820214497e-31 -3 1 I I 0 1 3.0000000000000004 forward I I I I #
loop $-1 -1 $-1 $-1 $235 $192 #
coedge $-1 -1 $-1 $236 $237 $210 $226 reversed $238 $-1 #
edge $239 -1 $-1 $240 -3.1415926535897931 $240 3.1415926535897931 $210 $241 forward @7 unknown #
DXID-attrib $-1 -1 $-1 $211 $196 @18 ASM_EDGE_FROM_STEP @4 9034 #
DXID-attrib $-1 -1 $-1 $215 $201 @18 ASM_EDGE_FROM_STEP @4 9040 #
DXID-attrib $-1 -1 $-1 $220 $207 @18 ASM_FACE_FROM_STEP @15 stp-1M-67-13849 #
truecolor-adesk-attrib $-1 -1 $242 $-1 $221 -1025450021 #
face $243 -1 $-1 $244 $245 $3 $-1 $246 reversed single #
loop $-1 -1 $-1 $-1 $247 $221 #
plane-surface $-1 -1 $-1 186.28782715962097 -340.28576434869746 -3.0000000000000022 -2.4492935982947064e-16 1.7052620940071497e-31 -1 5.3326139497324002e-16 1 3.991483730814881e-32 forward_v I I I I #
coedge $-1 -1 $-1 $248 $249 $250 $251 reversed $222 $-1 #
coedge $-1 -1 $-1 $252 $253 $254 $255 forward $224 $-1 #
coedge $-1 -1 $-1 $256 $225 $237 $257 forward $238 $-1 #
coedge $-1 -1 $-1 $225 $256 $236 $257 reversed $238 $-1 #
loop $-1 -1 $-1 $-1 $225 $258 #
truecolor-adesk-attrib $-1 -1 $259 $-1 $226 -1025450021 #
vertex $-1 -1 $-1 $226 $260 #
ellipse-curve $-1 -1 $-1 179.28782715962097 -380.28576434869746 -2.081668171171638e-16 5.3326139497324002e-16 1 3.991483730814881e-32 7.5 -3.9994604622993004e-15 -1.83697019872103e-15 1 I I #
DXID-attrib $-1 -1 $-1 $230 $221 @18 ASM_FACE_FROM_STEP @15 stp-1M-67-13850 #
truecolor-adesk-attrib $-1 -1 $261 $-1 $231 -1025450021 #
face $262 -1 $-1 $263 $264 $3 $-1 $265 reversed single #
loop $-1 -1 $-1 $-1 $266 $231 #
cone-surface $-1 -1 $-1 172.28782715962097 -340.28576434869746 2.6165617263142925e-15 -5.3326139497324002e-16 -1 -3.991483730814881e-32 7.3478807948841188e-16 -5.1157862820214497e-31 3 1 I I 0 1 3.0000000000000004 forward I I I I #
coedge $-1 -1 $-1 $267 $268 $269 $270 reversed $232 $-1 #
coedge $-1 -1 $-1 $254 $234 $271 $272 reversed $222 $-1 #
coedge $-1 -1 $-1 $234 $254 $267 $273 forward $222 $-1 #
coedge $-1 -1 $-1 $269 $274 $234 $251 forward $275 $-1 #
edge $276 -1 $-1 $277 -3.1415926535897931 $278 0 $234 $279 forward @7 unknown #
coedge $-1 -1 $-1 $280 $235 $281 $282 forward $224 $-1 #
coedge $-1 -1 $-1 $235 $280 $283 $284 forward $224 $-1 #
coedge $-1 -1 $-1 $249 $248 $235 $255 reversed $222 $-1 #
edge $285 -1 $-1 $286 0 $287 3.1415926535897931 $235 $288 forward @7 unknown #
coedge $-1 -1 $-1 $237 $236 $289 $290 reversed $238 $-1 #
edge $291 -1 $-1 $240 -1.3333333333333333 $292 1.3333333333333337 $236 $293 forward @7 unknown #
face $294 -1 $-1 $-1 $238 $3 $-1 $295 reversed single #
DXID-attrib $-1 -1 $-1 $239 $226 @18 ASM_EDGE_FROM_STEP @4 9038 #
point $-1 -1 $-1 171.78782715962097 -380.28576434869746 7.1031828224335099e-16 #
DXID-attrib $-1 -1 $-1 $243 $231 @18 ASM_FACE_FROM_STEP @15 stp-1M-67-13851 #
truecolor-adesk-attrib $-1 -1 $296 $-1 $244 -1025450021 #
face $297 -1 $-1 $298 $275 $3 $-1 $299 reversed single #
loop $-1 -1 $-1 $-1 $300 $244 #
plane-surface $-1 -1 $-1 172.28782715962097 -340.28576434869746 3.0000000000000022 2.8458018213751195e-16 -1.9167046221653714e-31 1 -5.3326139497324002e-16 -1 -3.991483730814881e-32 forward_v I I I I #
coedge $-1 -1 $-1 $301 $302 $303 $304 reversed $245 $-1 #
coedge $-1 -1 $-1 $283 $247 $249 $273 reversed $232 $-1 #
coedge $-1 -1 $-1 $247 $283 $301 $305 forward $232 $-1 #
coedge $-1 -1 $-1 $303 $250 $247 $270 forward $275 $-1 #
edge $306 -1 $-1 $278 -1.4000000000000001 $307 0 $247 $308 forward @7 unknown #
coedge $-1 -1 $-1 $300 $281 $248 $272 forward $264 $-1 #
edge $309 -1 $-1 $287 0 $277 1.5 $248 $310 forward @7 unknown #
edge $311 -1 $-1 $286 0 $278 1.5 $249 $312 forward @7 unknown #
coedge $-1 -1 $-1 $250 $303 $300 $313 forward $275 $-1 #
loop $-1 -1 $-1 $-1 $250 $263 #
truecolor-adesk-attrib $-1 -1 $314 $-1 $251 -1025450021 #
vertex $-1 -1 $-1 $251 $315 #
vertex $-1 -1 $-1 $251 $316 #
ellipse-curve $-1 -1 $-1 186.28782715962097 -355.28576434869746 -2.6165617263141805e-15 5.3326139497324002e-16 1 3.991483730814881e-32 -7.3478807948841188e-16 5.1157862820214497e-31 -3 1 F -3.1415926535897931 F 0 #
coedge $-1 -1 $-1 $253 $252 $317 $318 forward $224 $-1 #
coedge $-1 -1 $-1 $271 $319 $252 $282 reversed $264 $-1 #
edge $320 -1 $-1 $287 -1.05 $321 0.35000000000000003 $252 $322 forward @7 unknown #
coedge $-1 -1 $-1 $268 $267 $253 $284 reversed $232 $-1 #
edge $323 -1 $-1 $324 -1.05 $286 0.35000000000000003 $253 $325 forward @7 unknown #
truecolor-adesk-attrib $-1 -1 $326 $-1 $255 -1025450021 #
vertex $-1 -1 $-1 $255 $327 #
vertex $-1 -1 $-1 $255 $328 #
ellipse-curve $-1 -1 $-1 186.28782715962097 -340.28576434869746 -2.6165617263141797e-15 -5.3326139497324002e-16 -1 -3.991483730814881e-32 -7.3478807948841188e-16 5.1157862820214497e-31 -3 1 F 0 F 3.1415926535897931 #
coedge $-1 -1 $-1 $329 $330 $256 $290 forward $331 $-1 #
edge $332 -1 $-1 $292 -3.1415926535897931 $292 3.1415926535897931 $289 $333 forward @7 unknown #
truecolor-adesk-attrib $-1 -1 $334 $-1 $257 -1025450021 #
vertex $-1 -1 $-1 $290 $335 #
straight-curve $-1 -1 $-1 171.78782715962097 -370.28576434869746 7.1031828224335139e-16 3.9994604622993004e-15 7.5 2.9936127981111609e-31 F -1.3333333333333333 F 1.3333333333333337 #
truecolor-adesk-attrib $-1 -1 $336 $-1 $258 -1025450021 #
cone-surface $-1 -1 $-1 179.28782715962097 -370.28576434869746 -2.0816681711716341e-16 -5.3326139497324002e-16 -1 -3.991483730814881e-32 7.5 -3.9994604622993004e-15 -1.83697019872103e-15 1 I I 0 1 7.5 forward I I I I #
DXID-attrib $-1 -1 $-1 $262 $244 @18 ASM_FACE_FROM_STEP @15 stp-1M-67-13852 #
truecolor-adesk-attrib $-1 -1 $337 $-1 $263 -1025450021 #
face $338 -1 $-1 $258 $331 $3 $-1 $339 reversed single #
plane-surface $-1 -1 $-1 179.28782715962097 -355.28576434869746 8.8855352853779717e-16 -5.3326139497324002e-16 -1 -3.991483730814881e-32 1 -5.3326139497324002e-16 -2.4492935982947064e-16 forward_v I I I I #
coedge $-1 -1 $-1 $319 $271 $274 $313 reversed $264 $-1 #
coedge $-1 -1 $-1 $317 $266 $268 $305 reversed $245 $-1 #
coedge $-1 -1 $-1 $266 $317 $319 $340 forward $245 $-1 #
coedge $-1 -1 $-1 $274 $269 $266 $304 forward $275 $-1 #
edge $341 -1 $-1 $307 -3.1415926535897931 $342 0 $266 $343 forward @7 unknown #
edge $344 -1 $-1 $324 0 $307 1.5 $268 $345 forward @7 unknown #
truecolor-adesk-attrib $-1 -1 $346 $-1 $270 -1025450021 #
vertex $-1 -1 $-1 $270 $347 #
straight-curve $-1 -1 $-1 172.28782715962097 -355.28576434869746 -2.9999999999999987 -10 5.3326139497324e-15 2.4492935982947065e-15 F -1.4000000000000001 F 0 #
truecolor-adesk-attrib $-1 -1 $348 $-1 $272 -1025450021 #
straight-curve $-1 -1 $-1 186.28782715962097 -340.28576434869746 2.9999999999999987 -5.3326139497324e-15 -10 -3.9914837308148806e-31 F 0 F 1.5 #
truecolor-adesk-attrib $-1 -1 $349 $-1 $273 -1025450021 #
straight-curve $-1 -1 $-1 186.28782715962097 -340.28576434869746 -3.0000000000000022 -5.3326139497324e-15 -10 -3.9914837308148806e-31 F 0 F 1.5 #
edge $350 -1 $-1 $342 -1.4000000000000001 $277 0 $300 $351 forward @7 unknown #
DXID-attrib $-1 -1 $-1 $276 $251 @18 ASM_EDGE_FROM_STEP @4 9045 #
point $-1 -1 $-1 186.28782715962097 -355.28576434869746 2.9999999999999987 #
point $-1 -1 $-1 186.28782715962097 -355.28576434869746 -3.0000000000000022 #
coedge $-1 -1 $-1 $302 $301 $280 $318 reversed $245 $-1 #
edge $352 -1 $-1 $321 0 $324 3.1415926535897931 $280 $353 forward @7 unknown #
coedge $-1 -1 $-1 $281 $300 $302 $340 reversed $264 $-1 #
truecolor-adesk-attrib $-1 -1 $354 $-1 $282 -1025450021 #
vertex $-1 -1 $-1 $282 $355 #
straight-curve $-1 -1 $-1 175.78782715962097 -340.28576434869746 3.0000000000000013 -10 5.3326139497324e-15 2.8458018213751197e-15 F -1.05 F 0.35000000000000003 #
truecolor-adesk-attrib $-1 -1 $356 $-1 $284 -1025450021 #
vertex $-1 -1 $-1 $318 $357 #
straight-curve $-1 -1 $-1 182.78782715962097 -340.28576434869746 -3.0000000000000013 10 -5.3326139497324e-15 -2.4492935982947065e-15 F -1.05 F 0.35000000000000003 #
DXID-attrib $-1 -1 $-1 $285 $255 @18 ASM_EDGE_FROM_STEP @4 9041 #
point $-1 -1 $-1 186.28782715962097 -340.28576434869746 -3.0000000000000022 #
point $-1 -1 $-1 186.28782715962097 -340.28576434869746 2.9999999999999987 #
coedge $-1 -1 $-1 $330 $289 $330 $358 forward $331 $-1 #
coedge $-1 -1 $-1 $289 $329 $329 $358 reversed $331 $-1 #
loop $-1 -1 $-1 $-1 $289 $298 #
truecolor-adesk-attrib $-1 -1 $359 $-1 $290 -1025450021 #
ellipse-curve $-1 -1 $-1 179.28782715962097 -360.28576434869746 -2.0816681711716301e-16 -5.3326139497324002e-16 -1 -3.991483730814881e-32 7.5 -3.9994604622993004e-15 -1.83697019872103e-15 1 I I #
DXID-attrib $-1 -1 $-1 $291 $257 @18 ASM_EDGE_FROM_STEP @4 9055 #
point $-1 -1 $-1 171.78782715962097 -360.28576434869746 7.1031828224335178e-16 #
DXID-attrib $-1 -1 $-1 $294 $258 @18 ASM_FACE_FROM_STEP @15 stp-1M-67-13855 #
DXID-attrib $-1 -1 $-1 $297 $263 @18 ASM_FACE_FROM_STEP @15 stp-1M-67-13853 #
truecolor-adesk-attrib $-1 -1 $360 $-1 $298 -1025450021 #
cone-surface $-1 -1 $-1 179.28782715962097 -358.03253702734412 -2.0816681711716291e-16 -5.3326139497324002e-16 -1 -3.991483730814881e-32 3.75 -1.9997302311496502e-15 -9.1848509936051499e-16 1 I I 0.85716730070211 0.51503807491005793 3.75 forward I I I I #
edge $361 -1 $-1 $321 0 $342 1.5 $302 $362 forward @7 unknown #
truecolor-adesk-attrib $-1 -1 $363 $-1 $304 -1025450021 #
vertex $-1 -1 $-1 $304 $364 #
ellipse-curve $-1 -1 $-1 172.28782715962097 -355.28576434869746 2.6165617263142925e-15 5.3326139497324002e-16 1 3.991483730814881e-32 7.3478807948841188e-16 -5.1157862820214497e-31 3 1 F -3.1415926535897931 F 0 #
truecolor-adesk-attrib $-1 -1 $365 $-1 $305 -1025450021 #
straight-curve $-1 -1 $-1 172.28782715962097 -340.28576434869746 -2.9999999999999987 -5.3326139497324e-15 -10 -3.9914837308148806e-31 F 0 F 1.5 #
DXID-attrib $-1 -1 $-1 $306 $270 @18 ASM_EDGE_FROM_STEP @4 9048 #
point $-1 -1 $-1 172.28782715962097 -355.28576434869746 -2.9999999999999987 #
DXID-attrib $-1 -1 $-1 $309 $272 @18 ASM_EDGE_FROM_STEP @4 9046 #
DXID-attrib $-1 -1 $-1 $311 $273 @18 ASM_EDGE_FROM_STEP @4 9047 #
truecolor-adesk-attrib $-1 -1 $366 $-1 $313 -1025450021 #
straight-curve $-1 -1 $-1 186.28782715962097 -355.28576434869746 2.9999999999999987 10 -5.3326139497324e-15 -2.8458018213751197e-15 F -1.4000000000000001 F 0 #
truecolor-adesk-attrib $-1 -1 $367 $-1 $318 -1025450021 #
ellipse-curve $-1 -1 $-1 172.28782715962097 -340.28576434869746 2.6165617263142925e-15 -5.3326139497324002e-16 -1 -3.991483730814881e-32 7.3478807948841188e-16 -5.1157862820214497e-31 3 1 F 0 F 3.1415926535897931 #
DXID-attrib $-1 -1 $-1 $320 $282 @18 ASM_EDGE_FROM_STEP @4 9042 #
point $-1 -1 $-1 172.28782715962097 -340.28576434869746 3.0000000000000022 #
DXID-attrib $-1 -1 $-1 $323 $284 @18 ASM_EDGE_FROM_STEP @4 9044 #
point $-1 -1 $-1 172.28782715962097 -340.28576434869746 -2.9999999999999987 #
edge $368 -1 $-1 $292 -1.1666333972153307 $369 1.1666333972153322 $329 $370 forward @7 unknown #
DXID-attrib $-1 -1 $-1 $332 $290 @18 ASM_EDGE_FROM_STEP @4 9053 #
DXID-attrib $-1 -1 $-1 $338 $298 @18 ASM_FACE_FROM_STEP @15 stp-1M-67-13854 #
truecolor-adesk-attrib $-1 -1 $371 $-1 $340 -1025450021 #
straight-curve $-1 -1 $-1 172.28782715962097 -340.28576434869746 3.0000000000000022 -5.3326139497324e-15 -10 -3.9914837308148806e-31 F 0 F 1.5 #
DXID-attrib $-1 -1 $-1 $341 $304 @18 ASM_EDGE_FROM_STEP @4 9050 #
point $-1 -1 $-1 172.28782715962097 -355.28576434869746 3.0000000000000022 #
DXID-attrib $-1 -1 $-1 $344 $305 @18 ASM_EDGE_FROM_STEP @4 9049 #
DXID-attrib $-1 -1 $-1 $350 $313 @18 ASM_EDGE_FROM_STEP @4 9052 #
DXID-attrib $-1 -1 $-1 $352 $318 @18 ASM_EDGE_FROM_STEP @4 9043 #
truecolor-adesk-attrib $-1 -1 $372 $-1 $358 -1025450021 #
vertex $-1 -1 $-1 $358 $373 #
straight-curve $-1 -1 $-1 175.53782715962097 -358.03253702734412 2.5107573256309508e-16 3.2143773776329208 1.9313927809127012 -3.9364769667698104e-16 F -1.1666333972153307 F 1.1666333972153322 #
DXID-attrib $-1 -1 $-1 $361 $340 @18 ASM_EDGE_FROM_STEP @4 9051 #
DXID-attrib $-1 -1 $-1 $368 $358 @18 ASM_EDGE_FROM_STEP @4 9054 #
point $-1 -1 $-1 179.28782715962097 -355.77930970599073 -2.0816681711716284e-16 #
