700 476 1 0         
5 ZWCAD 12 ACIS 28.0 NT 24 Sat May 11 15:39:03 2024 
1 9.9999999999999995e-07 1e-10 
body $1 -1 $-1 $2 $-1 $-1 #
DXID-attrib $-1 -1 $-1 $-1 $0 @18 ASM_BODY_FROM_STEP @83 0A03D6C10B5DE081B9D7B86395ECB16357D27B96|:|F97D660F7AB679F19387BF0A6459FFA381B81CD4 #
lump $-1 -1 $-1 $-1 $3 $0 #
shell $-1 -1 $-1 $-1 $-1 $4 $-1 $2 #
face $5 -1 $-1 $6 $7 $3 $-1 $8 forward single #
fmesh-eye-attrib $-1 -1 $9 $-1 $4 #
face $10 -1 $-1 $11 $12 $3 $-1 $13 forward single #
loop $-1 -1 $-1 $-1 $14 $4 #
plane-surface $-1 -1 $-1 -465.84893991819848 -309.52048443711305 9.0611172279199934 -3.8612341976776576e-17 -0.99999999999999989 -9.9981875118378348e-17 -0.54694413860398894 -6.258294272023818e-17 0.83716910433122194 forward_v I I I I #
color-adesk-attrib $-1 -1 $15 $5 $4 250 #
fmesh-eye-attrib $-1 -1 $16 $-1 $6 #
face $17 -1 $-1 $18 $19 $3 $-1 $20 reversed single #
loop $-1 -1 $-1 $21 $22 $6 #
cone-surface $-1 -1 $-1 -449.10555783157406 -309.02048443711305 19.999999999999801 2.6752381510723416e-17 0.99999999999999989 1.1813508635145146e-16 21.877765544159558 3.370679446797931e-15 -33.486764173248879 1 I I 0.70710678118654724 0.70710678118654779 40 forward I I I I #
coedge $-1 -1 $-1 $23 $24 $25 $26 reversed $7 $-1 #
DXID-attrib $-1 -1 $-1 $9 $4 @18 ASM_FACE_FROM_STEP @14 stp-1M-55-9991 #
color-adesk-attrib $-1 -1 $27 $10 $6 250 #
fmesh-eye-attrib $-1 -1 $28 $-1 $11 #
face $29 -1 $-1 $30 $31 $3 $-1 $32 reversed single #
loop $-1 -1 $-1 $33 $34 $11 #
cone-surface $-1 -1 $-1 -476.31355372233872 -192.21319566100993 2.2243154953701776 3.8612341976776576e-17 0.99999999999999989 9.9981875118378348e-17 1.4092015731131771 1.6124495191869363e-16 -2.156966197309393 1 I I 0 1 2.5764999999999998 forward I I I I #
loop $-1 -1 $-1 $-1 $35 $6 #
coedge $-1 -1 $-1 $36 $36 $37 $38 reversed $12 $-1 #
coedge $-1 -1 $-1 $39 $14 $36 $40 forward $7 $-1 #
coedge $-1 -1 $-1 $14 $39 $41 $42 forward $7 $-1 #
coedge $-1 -1 $-1 $43 $44 $14 $26 forward $45 $-1 #
edge $46 -1 $-1 $47 1.9774197212728974 $48 4.3891297338232835 $14 $49 forward @7 unknown #
DXID-attrib $-1 -1 $-1 $16 $6 @18 ASM_FACE_FROM_STEP @14 stp-1M-55-9992 #
color-adesk-attrib $-1 -1 $50 $17 $11 250 #
fmesh-eye-attrib $-1 -1 $51 $-1 $18 #
face $52 -1 $-1 $53 $54 $3 $-1 $55 forward single #
loop $-1 -1 $-1 $56 $57 $18 #
cone-surface $-1 -1 $-1 -449.10555783157406 -305.52048443711305 19.999999999999801 -3.8612341976776576e-17 -0.99999999999999989 -9.9981875118378348e-17 -11.759298979985763 -1.3455332684851208e-15 17.999135743121272 1 I I 0.70710678118654724 0.70710678118654779 21.5 forward I I I I #
loop $-1 -1 $-1 $-1 $58 $11 #
coedge $-1 -1 $-1 $34 $34 $59 $60 forward $19 $-1 #
coedge $-1 -1 $-1 $35 $35 $61 $62 forward $21 $-1 #
coedge $-1 -1 $-1 $22 $22 $23 $40 reversed $12 $-1 #
coedge $-1 -1 $-1 $63 $63 $22 $38 forward $64 $-1 #
edge $65 -1 $-1 $66 -1.6459639854909724 $47 -1.4956286680988216 $22 $67 reversed @7 unknown #
coedge $-1 -1 $-1 $24 $23 $68 $69 reversed $7 $-1 #
edge $70 -1 $-1 $47 -7.7788139752784078 $66 -1.6459639854909724 $23 $71 reversed @7 unknown #
coedge $-1 -1 $-1 $57 $57 $24 $42 reversed $31 $-1 #
edge $72 -1 $-1 $73 -7.7604161513495296 $48 -1.66436180941985 $24 $74 reversed @7 unknown #
coedge $-1 -1 $-1 $68 $25 $75 $76 forward $45 $-1 #
coedge $-1 -1 $-1 $25 $68 $63 $77 forward $45 $-1 #
loop $-1 -1 $-1 $-1 $44 $78 #
color-adesk-attrib $-1 -1 $79 $-1 $26 250 #
vertex $-1 -1 $-1 $26 $80 #
vertex $-1 -1 $-1 $26 $81 #
ellipse-curve $-1 -1 $-1 -476.31355372233872 -309.52048443711305 2.2243154953701492 -3.8612341976776576e-17 -0.99999999999999989 -9.9981875118378348e-17 -4.1020810395299225 -4.6937207040178697e-16 6.2787682824841724 1 F 1.9774197212728974 F 4.3891297338232835 #
DXID-attrib $-1 -1 $-1 $28 $11 @18 ASM_FACE_FROM_STEP @14 stp-1M-55-9993 #
color-adesk-attrib $-1 -1 $82 $29 $18 250 #
fmesh-eye-attrib $-1 -1 $83 $-1 $30 #
face $84 -1 $-1 $85 $86 $3 $-1 $87 forward single #
loop $-1 -1 $-1 $88 $89 $30 #
cone-surface $-1 -1 $-1 -449.10555783157406 -302.52048443711305 19.999999999999801 3.8612341976776576e-17 0.99999999999999989 9.9981875118378348e-17 21.877765544159558 2.5033177088095271e-15 -33.486764173248879 1 I I 0 1 40 forward I I I I #
loop $-1 -1 $-1 $-1 $90 $18 #
coedge $-1 -1 $-1 $41 $41 $91 $92 reversed $31 $-1 #
coedge $-1 -1 $-1 $58 $58 $93 $94 reversed $33 $-1 #
coedge $-1 -1 $-1 $59 $59 $34 $60 reversed $95 $-1 #
edge $96 -1 $-1 $97 0 $97 6.2831853071795862 $34 $98 forward @7 unknown #
coedge $-1 -1 $-1 $61 $61 $35 $62 reversed $88 $-1 #
edge $99 -1 $-1 $100 -6.2831853071795862 $100 0 $35 $101 reversed @7 unknown #
coedge $-1 -1 $-1 $37 $37 $44 $77 reversed $64 $-1 #
loop $-1 -1 $-1 $-1 $63 $102 #
color-adesk-attrib $-1 -1 $103 $-1 $38 250 #
vertex $-1 -1 $-1 $40 $104 #
ellipse-curve $-1 -1 $-1 -449.10555783157406 -309.52048443711305 19.999999999999801 2.6752381510723416e-17 0.99999999999999989 1.1813508635145146e-16 21.604293474857563 3.3285459537129568e-15 -33.068179621083267 1 F 1.4956286680988216 F 1.6459639854909724 #
coedge $-1 -1 $-1 $44 $43 $39 $69 forward $45 $-1 #
edge $105 -1 $-1 $73 -1.2475370802334913 $66 1.164172932316893 $39 $106 forward @7 unknown #
color-adesk-attrib $-1 -1 $107 $-1 $40 250 #
ellipse-curve $-1 -1 $-1 -449.10555783157406 -309.52048443711305 19.999999999999801 2.6752381510723416e-17 0.99999999999999989 1.1813508635145146e-16 21.604293474857563 3.3285459537129568e-15 -33.068179621083267 1 F 1.6459639854909724 F 7.7788139752784078 #
color-adesk-attrib $-1 -1 $108 $-1 $42 250 #
vertex $-1 -1 $-1 $69 $109 #
ellipse-curve $-1 -1 $-1 -449.10555783157406 -309.52048443711305 19.999999999999801 -3.8612341976776576e-17 -0.99999999999999989 -9.9981875118378348e-17 -13.947075534401719 -1.5958650393660739e-15 21.347812160446161 1 F 1.66436180941985 F 7.7604161513495296 #
coedge $-1 -1 $-1 $91 $91 $43 $76 reversed $110 $-1 #
edge $111 -1 $-1 $48 -1.8940555733563018 $73 -1.2475370802334917 $43 $112 forward @7 unknown #
edge $113 -1 $-1 $66 1.1641729323168917 $47 1.9774197212728968 $44 $114 forward @7 unknown #
face $115 -1 $-1 $116 $117 $3 $-1 $118 forward single #
DXID-attrib $-1 -1 $-1 $46 $26 @18 ASM_EDGE_FROM_STEP @4 6155 #
point $-1 -1 $-1 -480.45794557041779 -309.52048443711305 -4.0266057335022651 #
point $-1 -1 $-1 -469.0569318035835 -309.52048443711305 4.1194245498139139 #
DXID-attrib $-1 -1 $-1 $51 $18 @18 ASM_FACE_FROM_STEP @14 stp-1M-55-9994 #
color-adesk-attrib $-1 -1 $119 $52 $30 250 #
fmesh-eye-attrib $-1 -1 $120 $-1 $53 #
face $121 -1 $-1 $122 $123 $3 $-1 $124 forward single #
loop $-1 -1 $-1 $125 $126 $53 #
plane-surface $-1 -1 $-1 -477.15072282666995 -295.52048443711305 1.6773713567662014 3.8612341976776576e-17 0.99999999999999989 9.9981875118378348e-17 0.54694413860398894 6.258294272023818e-17 -0.83716910433122194 forward_v I I I I #
loop $-1 -1 $-1 $-1 $61 $30 #
coedge $-1 -1 $-1 $89 $89 $127 $128 forward $54 $-1 #
coedge $-1 -1 $-1 $90 $90 $129 $130 forward $56 $-1 #
coedge $-1 -1 $-1 $75 $75 $57 $92 forward $110 $-1 #
edge $131 -1 $-1 $48 -1.66436180941985 $73 -1.4772308441699433 $57 $132 reversed @7 unknown #
coedge $-1 -1 $-1 $93 $93 $58 $94 forward $133 $-1 #
edge $134 -1 $-1 $135 -6.2831853071795862 $135 0 $58 $136 reversed @7 unknown #
loop $-1 -1 $-1 $-1 $59 $137 #
color-adesk-attrib $-1 -1 $138 $-1 $60 250 #
vertex $-1 -1 $-1 $60 $139 #
ellipse-curve $-1 -1 $-1 -476.31355372233872 -296.59698443710806 2.2243154953701776 -3.8612341976776576e-17 -0.99999999999999989 -9.9981875118378348e-17 -1.4092015731131771 -1.6124495191869363e-16 2.156966197309393 1 I I #
color-adesk-attrib $-1 -1 $140 $-1 $62 250 #
vertex $-1 -1 $-1 $62 $141 #
ellipse-curve $-1 -1 $-1 -449.10555783157406 -309.02048443711305 19.999999999999801 3.8612341976776576e-17 0.99999999999999989 9.9981875118378348e-17 33.486764173248879 -3.4803824124584782e-15 21.877765544159562 1 I I #
face $142 -1 $-1 $143 $64 $3 $-1 $144 forward single #
DXID-attrib $-1 -1 $-1 $65 $38 @18 ASM_EDGE_FROM_STEP @4 6159 #
point $-1 -1 $-1 -483.70277622700655 -309.52048443711305 0.94002939932212826 #
color-adesk-attrib $-1 -1 $145 $-1 $69 250 #
ellipse-curve $-1 -1 $-1 -476.31355372233872 -309.52048443711305 2.2243154953701492 -3.8612341976776576e-17 -0.99999999999999989 -9.9981875118378348e-17 -4.1020810395299225 -4.6937207040178697e-16 6.2787682824841724 1 F -1.2475370802334913 F 1.164172932316893 #
DXID-attrib $-1 -1 $-1 $70 $40 @18 ASM_EDGE_FROM_STEP @4 6156 #
DXID-attrib $-1 -1 $-1 $72 $42 @18 ASM_EDGE_FROM_STEP @4 6158 #
point $-1 -1 $-1 -471.66305507256834 -309.52048443711305 8.1084349969164577 #
loop $-1 -1 $-1 $-1 $75 $146 #
color-adesk-attrib $-1 -1 $147 $-1 $76 250 #
ellipse-curve $-1 -1 $-1 -476.31355372233872 -309.52048443711305 2.2243154953701492 -3.2023475051191487e-17 -0.99999999999999989 -1.1006699247008562e-16 -4.1020810395299172 -5.5972225144224515e-16 6.2787682824841644 1 F -1.8940555733563018 F -1.2475370802334917 #
color-adesk-attrib $-1 -1 $148 $-1 $77 250 #
ellipse-curve $-1 -1 $-1 -476.31355372233872 -309.52048443711305 2.2243154953701492 -3.2023475051191487e-17 -0.99999999999999989 -1.1006699247008562e-16 -4.1020810395299172 -5.5972225144224515e-16 6.2787682824841644 1 F 1.1641729323168917 F 1.9774197212728968 #
fmesh-eye-attrib $-1 -1 $149 $-1 $78 #
face $150 -1 $-1 $102 $151 $3 $-1 $152 forward single #
loop $-1 -1 $-1 $45 $153 $78 #
cone-surface $-1 -1 $-1 -476.31355372233872 -324.52048443711305 2.2243154953701492 -3.2023475051191487e-17 -0.99999999999999989 -1.1006699247008562e-16 -4.9224972474359001 -6.716667017306941e-16 7.5345219389809976 1 I I 0.099503719020998693 0.99503719020998915 9 forward I I I I #
DXID-attrib $-1 -1 $-1 $83 $30 @18 ASM_FACE_FROM_STEP @14 stp-1M-55-9995 #
color-adesk-attrib $-1 -1 $154 $84 $53 250 #
fmesh-eye-attrib $-1 -1 $155 $-1 $85 #
face $156 -1 $-1 $157 $158 $3 $-1 $159 forward single #
loop $-1 -1 $-1 $160 $129 $85 #
plane-surface $-1 -1 $-1 -450.51673981089846 -305.52048443711305 19.078038465464161 -3.8612341976776576e-17 -0.99999999999999989 -9.9981875118378348e-17 -0.54694413860398894 -6.258294272023818e-17 0.83716910433122194 forward_v I I I I #
loop $-1 -1 $-1 $133 $161 $53 #
coedge $-1 -1 $-1 $126 $126 $162 $163 forward $86 $-1 #
coedge $-1 -1 $-1 $127 $127 $89 $128 reversed $158 $-1 #
edge $164 -1 $-1 $165 -6.2831853071795862 $165 0 $89 $166 reversed @7 unknown #
coedge $-1 -1 $-1 $129 $129 $90 $130 reversed $123 $-1 #
edge $167 -1 $-1 $168 -6.2831853071795862 $168 0 $90 $169 reversed @7 unknown #
color-adesk-attrib $-1 -1 $170 $-1 $92 250 #
ellipse-curve $-1 -1 $-1 -449.10555783157406 -309.52048443711305 19.999999999999801 -3.8612341976776576e-17 -0.99999999999999989 -9.9981875118378348e-17 -13.947075534401719 -1.5958650393660739e-15 21.347812160446161 1 F 1.4772308441699433 F 1.66436180941985 #
loop $-1 -1 $-1 $-1 $93 $53 #
color-adesk-attrib $-1 -1 $171 $-1 $94 250 #
vertex $-1 -1 $-1 $94 $172 #
ellipse-curve $-1 -1 $-1 -476.31355372233872 -295.52048443711305 2.2243154953701776 3.8612341976776576e-17 0.99999999999999989 9.9981875118378348e-17 1.4092015731131771 1.6124495191869363e-16 -2.156966197309393 1 I I #
face $173 -1 $-1 $174 $175 $3 $-1 $176 forward single #
DXID-attrib $-1 -1 $-1 $96 $60 @18 ASM_EDGE_FROM_STEP @4 6161 #
point $-1 -1 $-1 -477.72275529545192 -296.59698443710806 4.381281692679579 #
DXID-attrib $-1 -1 $-1 $99 $62 @18 ASM_EDGE_FROM_STEP @4 6160 #
point $-1 -1 $-1 -415.6187936583251 -309.02048443711305 41.877765544159374 #
fmesh-eye-attrib $-1 -1 $177 $-1 $102 #
face $178 -1 $-1 $146 $179 $3 $-1 $180 forward single #
plane-surface $-1 -1 $-1 -479.24364558749801 -309.52048443711305 0.31001101025620414 3.8612341976776576e-17 0.99999999999999989 9.9981875118378348e-17 0.54694413860398894 6.258294272023818e-17 -0.83716910433122194 forward_v I I I I #
DXID-attrib $-1 -1 $-1 $105 $69 @18 ASM_EDGE_FROM_STEP @4 6157 #
face $181 -1 $-1 $137 $110 $3 $-1 $182 forward single #
DXID-attrib $-1 -1 $-1 $111 $76 @18 ASM_EDGE_FROM_STEP @4 6185 #
DXID-attrib $-1 -1 $-1 $113 $77 @18 ASM_EDGE_FROM_STEP @4 6184 #
color-adesk-attrib $-1 -1 $183 $115 $78 250 #
fmesh-eye-attrib $-1 -1 $184 $-1 $116 #
loop $-1 -1 $-1 $185 $186 $116 #
cone-surface $-1 -1 $-1 -476.31355372233872 -349.02048443711305 2.2243154953701492 -6.6809528832584843e-17 0.99999999999999989 2.6134375274569481e-16 4.9224972474359001 2.2979699604589515e-15 -7.5345219389809976 1 I I 0.70710678118654724 0.70710678118654779 9 forward I I I I #
coedge $-1 -1 $-1 $153 $153 $187 $188 reversed $117 $-1 #
DXID-attrib $-1 -1 $-1 $120 $53 @18 ASM_FACE_FROM_STEP @14 stp-1M-55-9996 #
truecolor-adesk-attrib $-1 -1 $189 $121 $85 -1028476238 #
fmesh-eye-attrib $-1 -1 $190 $-1 $122 #
face $191 -1 $-1 $192 $193 $3 $-1 $194 reversed single #
loop $-1 -1 $-1 $195 $127 $122 #
cone-surface $-1 -1 $-1 -449.10555783157406 -296.02048443711305 19.999999999999801 -3.8612341976776576e-17 -0.99999999999999989 -9.9981875118378348e-17 -21.877765544159558 -2.5033177088095271e-15 33.486764173248879 1 I I 0.70710678118654802 0.70710678118654713 40 forward I I I I #
loop $-1 -1 $-1 $-1 $196 $85 #
coedge $-1 -1 $-1 $161 $161 $197 $198 forward $125 $-1 #
coedge $-1 -1 $-1 $162 $162 $126 $163 reversed $195 $-1 #
edge $199 -1 $-1 $200 -6.2831853071795862 $200 0 $126 $201 reversed @7 unknown #
color-adesk-attrib $-1 -1 $202 $-1 $128 250 #
vertex $-1 -1 $-1 $128 $203 #
ellipse-curve $-1 -1 $-1 -449.10555783157406 -296.02048443711305 19.999999999999801 3.8612341976776576e-17 0.99999999999999989 9.9981875118378348e-17 21.877765544159558 2.5033177088095271e-15 -33.486764173248879 1 I I #
truecolor-adesk-attrib $-1 -1 $204 $-1 $130 -1028476238 #
vertex $-1 -1 $-1 $130 $205 #
ellipse-curve $-1 -1 $-1 -449.10555783157406 -305.52048443711305 19.999999999999801 -3.8612341976776576e-17 -0.99999999999999989 -9.9981875118378348e-17 -11.759298979985763 -1.3455332684851208e-15 17.999135743121272 1 I I #
DXID-attrib $-1 -1 $-1 $131 $92 @18 ASM_EDGE_FROM_STEP @4 6163 #
DXID-attrib $-1 -1 $-1 $134 $94 @18 ASM_EDGE_FROM_STEP @4 6162 #
point $-1 -1 $-1 -474.90435214922559 -295.52048443711305 0.067349298060776164 #
fmesh-eye-attrib $-1 -1 $206 $-1 $137 #
face $207 -1 $-1 $-1 $208 $3 $-1 $209 forward single #
loop $-1 -1 $-1 $95 $210 $137 #
cone-surface $-1 -1 $-1 -476.31355372233872 -297.02048443698914 2.2243154953701776 -3.8612341976776576e-17 -0.99999999999999989 -9.9981875118378348e-17 -1.6408324157731666 -1.8774882815627489e-16 2.5115073129342771 1 I I 0.70710678122674209 0.70710678114635295 2.9999999999290599 forward I I I I #
color-adesk-attrib $-1 -1 $211 $142 $102 250 #
fmesh-eye-attrib $-1 -1 $212 $-1 $143 #
loop $-1 -1 $-1 $-1 $213 $143 #
plane-surface $-1 -1 $-1 -480.08081469182923 -349.52048443711305 -0.23693312834777203 -3.8612341976776576e-17 -0.99999999999999989 -9.9981875118378348e-17 -0.54694413860398894 -6.258294272023818e-17 0.83716910433122194 forward_v I I I I #
fmesh-eye-attrib $-1 -1 $214 $-1 $146 #
plane-surface $-1 -1 $-1 -479.24364558749801 -309.52048443711305 0.31001101025620414 3.8612341976776576e-17 0.99999999999999989 9.9981875118378348e-17 0.54694413860398894 6.258294272023818e-17 -0.83716910433122194 forward_v I I I I #
DXID-attrib $-1 -1 $-1 $149 $78 @18 ASM_FACE_FROM_STEP @15 stp-1M-55-10013 #
color-adesk-attrib $-1 -1 $215 $150 $116 250 #
loop $-1 -1 $-1 $-1 $216 $116 #
coedge $-1 -1 $-1 $186 $186 $217 $218 reversed $151 $-1 #
coedge $-1 -1 $-1 $187 $187 $153 $188 forward $219 $-1 #
edge $220 -1 $-1 $221 -6.2831853071795862 $221 0 $187 $222 reversed @7 unknown #
color-adesk-attrib $-1 -1 $223 $155 $85 253 #
color-adesk-attrib $-1 -1 $224 $156 $122 250 #
fmesh-eye-attrib $-1 -1 $225 $-1 $157 #
face $226 -1 $-1 $227 $228 $3 $-1 $229 forward single #
loop $-1 -1 $-1 $230 $197 $157 #
cone-surface $-1 -1 $-1 -449.10555783157406 -296.02048443711305 19.999999999999801 3.8612341976776576e-17 0.99999999999999989 9.9981875118378348e-17 14.767491742307701 1.6897394534464308e-15 -22.603565816942993 1 I I 0.70710678118654802 0.70710678118654713 27 forward I I I I #
loop $-1 -1 $-1 $-1 $162 $122 #
coedge $-1 -1 $-1 $196 $196 $231 $232 forward $160 $-1 #
coedge $-1 -1 $-1 $197 $197 $161 $198 reversed $193 $-1 #
edge $233 -1 $-1 $234 -6.2831853071795862 $234 0 $161 $235 reversed @7 unknown #
color-adesk-attrib $-1 -1 $236 $-1 $163 250 #
vertex $-1 -1 $-1 $163 $237 #
ellipse-curve $-1 -1 $-1 -449.10555783157406 -295.52048443711305 19.999999999999801 -3.8612341976776576e-17 -0.99999999999999989 -9.9981875118378348e-17 -21.604293474857563 -2.4720262374494079e-15 33.068179621083267 1 I I #
DXID-attrib $-1 -1 $-1 $164 $128 @18 ASM_EDGE_FROM_STEP @4 6165 #
point $-1 -1 $-1 -427.2277922874145 -296.02048443711305 -13.486764173249071 #
color-adesk-attrib $-1 -1 $238 $167 $130 253 #
point $-1 -1 $-1 -460.86485681155983 -305.52048443711305 37.999135743121073 #
color-adesk-attrib $-1 -1 $239 $173 $137 250 #
fmesh-eye-attrib $-1 -1 $240 $-1 $174 #
loop $-1 -1 $-1 $-1 $241 $174 #
plane-surface $-1 -1 $-1 -476.31355372233872 -296.52048443711305 2.2243154953701776 3.8612341976776576e-17 0.99999999999999989 9.9981875118378348e-17 0.54694413860398894 6.258294272023818e-17 -0.83716910433122194 forward_v I I I I #
coedge $-1 -1 $-1 $210 $210 $241 $242 forward $175 $-1 #
DXID-attrib $-1 -1 $-1 $177 $102 @18 ASM_FACE_FROM_STEP @15 stp-1M-55-10015 #
color-adesk-attrib $-1 -1 $243 $178 $143 250 #
coedge $-1 -1 $-1 $213 $213 $216 $244 reversed $179 $-1 #
color-adesk-attrib $-1 -1 $245 $181 $146 250 #
DXID-attrib $-1 -1 $-1 $184 $116 @18 ASM_FACE_FROM_STEP @15 stp-1M-55-10014 #
coedge $-1 -1 $-1 $216 $216 $213 $244 forward $185 $-1 #
coedge $-1 -1 $-1 $217 $217 $186 $218 forward $246 $-1 #
edge $247 -1 $-1 $248 0 $248 6.2831853071795862 $217 $249 forward @7 unknown #
loop $-1 -1 $-1 $-1 $187 $250 #
color-adesk-attrib $-1 -1 $251 $-1 $188 250 #
vertex $-1 -1 $-1 $188 $252 #
ellipse-curve $-1 -1 $-1 -476.31355372233872 -324.52048443711305 2.2243154953701492 3.8612341976776576e-17 0.99999999999999989 9.9981875118378348e-17 4.9224972474359001 5.6324648448214365e-16 -7.5345219389809976 1 I I #
DXID-attrib $-1 -1 $-1 $189 $85 @18 ASM_FACE_FROM_STEP @14 stp-1M-55-9997 #
DXID-attrib $-1 -1 $-1 $190 $122 @18 ASM_FACE_FROM_STEP @14 stp-1M-55-9998 #
color-adesk-attrib $-1 -1 $253 $191 $157 250 #
fmesh-eye-attrib $-1 -1 $254 $-1 $192 #
face $255 -1 $-1 $256 $257 $3 $-1 $258 reversed single #
loop $-1 -1 $-1 $259 $231 $192 #
cone-surface $-1 -1 $-1 -449.10555783157406 -306.52048443711305 19.999999999999801 3.8612341976776576e-17 0.99999999999999989 9.9981875118378348e-17 7.6572179404558458 8.7616119808333464e-16 -11.720367460637108 1 I I 0 1 14.000000000000002 forward I I I I #
loop $-1 -1 $-1 $-1 $260 $157 #
coedge $-1 -1 $-1 $231 $231 $196 $232 reversed $228 $-1 #
edge $261 -1 $-1 $262 0 $262 6.2831853071795862 $196 $263 forward @7 unknown #
color-adesk-attrib $-1 -1 $264 $-1 $198 250 #
vertex $-1 -1 $-1 $198 $265 #
ellipse-curve $-1 -1 $-1 -449.10555783157406 -295.52048443711305 19.999999999999801 3.8612341976776576e-17 0.99999999999999989 9.9981875118378348e-17 15.040963811609696 1.7210309248065499e-15 -23.022150369108605 1 I I #
DXID-attrib $-1 -1 $-1 $199 $163 @18 ASM_EDGE_FROM_STEP @4 6166 #
point $-1 -1 $-1 -470.70985130643163 -295.52048443711305 53.068179621083061 #
DXID-attrib $-1 -1 $-1 $204 $130 @18 ASM_EDGE_FROM_STEP @4 6164 #
DXID-attrib $-1 -1 $-1 $206 $137 @18 ASM_FACE_FROM_STEP @15 stp-1M-55-10018 #
color-adesk-attrib $-1 -1 $266 $207 $174 250 #
coedge $-1 -1 $-1 $241 $241 $210 $242 reversed $208 $-1 #
edge $267 -1 $-1 $268 0 $268 6.2831853071795862 $210 $269 forward @7 unknown #
DXID-attrib $-1 -1 $-1 $212 $143 @18 ASM_FACE_FROM_STEP @15 stp-1M-55-10016 #
edge $270 -1 $-1 $271 0 $271 6.2831853071795862 $216 $272 forward @7 unknown #
DXID-attrib $-1 -1 $-1 $214 $146 @18 ASM_FACE_FROM_STEP @15 stp-1M-55-10017 #
loop $-1 -1 $-1 $219 $217 $250 #
color-adesk-attrib $-1 -1 $273 $-1 $218 250 #
vertex $-1 -1 $-1 $218 $274 #
ellipse-curve $-1 -1 $-1 -476.31355372233872 -349.02048443711305 2.2243154953701492 3.8612341976776576e-17 0.99999999999999989 9.9981875118378348e-17 4.9224972474359001 5.6324648448214365e-16 -7.5345219389809976 1 I I #
face $275 -1 $-1 $78 $246 $3 $-1 $276 forward single #
DXID-attrib $-1 -1 $-1 $220 $188 @18 ASM_EDGE_FROM_STEP @4 6183 #
point $-1 -1 $-1 -471.39105647490283 -324.52048443711305 -5.3102064436108378 #
DXID-attrib $-1 -1 $-1 $225 $157 @18 ASM_FACE_FROM_STEP @14 stp-1M-55-9999 #
color-adesk-attrib $-1 -1 $277 $226 $192 250 #
fmesh-eye-attrib $-1 -1 $278 $-1 $227 #
face $279 -1 $-1 $280 $281 $3 $-1 $282 forward single #
loop $-1 -1 $-1 $283 $284 $227 #
cone-surface $-1 -1 $-1 -449.10555783157406 -298.7204844371131 19.999999999999801 3.8612341976776576e-17 0.99999999999999989 9.9981875118378348e-17 14.767491742307701 1.6897394534464308e-15 -22.603565816942993 1 I I 0 1 27 forward I I I I #
loop $-1 -1 $-1 $-1 $285 $192 #
coedge $-1 -1 $-1 $260 $260 $286 $287 forward $230 $-1 #
truecolor-adesk-attrib $-1 -1 $288 $-1 $232 -1023409926 #
vertex $-1 -1 $-1 $232 $289 #
ellipse-curve $-1 -1 $-1 -449.10555783157406 -305.52048443711305 19.999999999999801 3.8612341976776576e-17 0.99999999999999989 9.9981875118378348e-17 7.6572179404558458 8.7616119808333464e-16 -11.720367460637108 1 I I #
DXID-attrib $-1 -1 $-1 $233 $198 @18 ASM_EDGE_FROM_STEP @4 6167 #
point $-1 -1 $-1 -434.06459401996437 -295.52048443711305 -3.0221503691088003 #
DXID-attrib $-1 -1 $-1 $240 $174 @18 ASM_FACE_FROM_STEP @15 stp-1M-55-10019 #
color-adesk-attrib $-1 -1 $290 $-1 $242 250 #
vertex $-1 -1 $-1 $242 $291 #
ellipse-curve $-1 -1 $-1 -476.31355372233872 -296.52048443711408 2.2243154953701776 -3.8612341976776576e-17 -0.99999999999999989 -9.9981875118378348e-17 -1.3673603465087254 -1.5645735680045276e-16 2.0929227608261463 1 I I #
color-adesk-attrib $-1 -1 $292 $-1 $244 250 #
vertex $-1 -1 $-1 $244 $293 #
ellipse-curve $-1 -1 $-1 -476.31355372233872 -349.52048443711305 2.2243154953701492 -6.6809528832584843e-17 0.99999999999999989 2.6134375274569481e-16 4.6490251781339058 2.1703049626556763e-15 -7.1159373868153866 1 I I #
DXID-attrib $-1 -1 $-1 $247 $218 @18 ASM_EDGE_FROM_STEP @4 6182 #
point $-1 -1 $-1 -471.39105647490283 -349.02048443711305 -5.3102064436108378 #
fmesh-eye-attrib $-1 -1 $294 $-1 $250 #
cone-surface $-1 -1 $-1 -476.31355372233872 -337.02048443711305 2.2243154953701492 3.8612341976776576e-17 0.99999999999999989 9.9981875118378348e-17 4.9224972474359001 5.6324648448214365e-16 -7.5345219389809976 1 I I 0 1 9 forward I I I I #
DXID-attrib $-1 -1 $-1 $254 $192 @18 ASM_FACE_FROM_STEP @15 stp-1M-55-10000 #
color-adesk-attrib $-1 -1 $295 $255 $227 250 #
fmesh-eye-attrib $-1 -1 $296 $-1 $256 #
face $297 -1 $-1 $298 $299 $3 $-1 $300 forward single #
loop $-1 -1 $-1 $301 $302 $256 #
plane-surface $-1 -1 $-1 -449.10555783157406 -306.52048443711305 19.999999999999801 -3.8612341976776576e-17 -0.99999999999999989 -9.9981875118378348e-17 -0.54694413860398894 -6.258294272023818e-17 0.83716910433122194 forward_v I I I I #
loop $-1 -1 $-1 $-1 $286 $227 #
coedge $-1 -1 $-1 $284 $284 $303 $304 forward $257 $-1 #
coedge $-1 -1 $-1 $285 $285 $302 $305 reversed $259 $-1 #
coedge $-1 -1 $-1 $286 $286 $260 $287 reversed $283 $-1 #
edge $306 -1 $-1 $307 -6.2831853071795862 $307 0 $260 $308 reversed @7 unknown #
color-adesk-attrib $-1 -1 $309 $261 $232 250 #
point $-1 -1 $-1 -441.44833989111822 -305.52048443711305 8.2796325393626944 #
DXID-attrib $-1 -1 $-1 $267 $242 @18 ASM_EDGE_FROM_STEP @4 6187 #
point $-1 -1 $-1 -477.68091406884747 -296.52048443711408 4.3172382561963332 #
DXID-attrib $-1 -1 $-1 $270 $244 @18 ASM_EDGE_FROM_STEP @4 6186 #
point $-1 -1 $-1 -471.66452854420481 -349.52048443711305 -4.8916218914452259 #
color-adesk-attrib $-1 -1 $310 $275 $250 250 #
DXID-attrib $-1 -1 $-1 $278 $227 @18 ASM_FACE_FROM_STEP @15 stp-1M-55-10001 #
color-adesk-attrib $-1 -1 $311 $279 $256 250 #
fmesh-eye-attrib $-1 -1 $312 $-1 $280 #
face $313 -1 $-1 $314 $315 $3 $-1 $316 reversed single #
loop $-1 -1 $-1 $317 $318 $280 #
cone-surface $-1 -1 $-1 -449.10555783157406 -298.7204844371131 19.999999999999801 -3.8612341976776576e-17 -0.99999999999999989 -9.9981875118378348e-17 -14.767491742307701 -1.6897394534464308e-15 22.603565816942993 1 I I 0.85749292571254299 0.51449575542752857 27 forward I I I I #
loop $-1 -1 $-1 $-1 $319 $256 #
coedge $-1 -1 $-1 $302 $302 $285 $305 forward $281 $-1 #
coedge $-1 -1 $-1 $303 $303 $284 $304 reversed $317 $-1 #
edge $320 -1 $-1 $321 0 $321 6.2831853071795862 $284 $322 forward @7 unknown #
edge $323 -1 $-1 $324 -6.2831853071795862 $324 0 $285 $325 reversed @7 unknown #
color-adesk-attrib $-1 -1 $326 $-1 $287 250 #
vertex $-1 -1 $-1 $287 $327 #
ellipse-curve $-1 -1 $-1 -449.10555783157406 -296.02048443711305 19.999999999999801 3.8612341976776576e-17 0.99999999999999989 9.9981875118378348e-17 22.603565816942996 -2.3492581284094728e-15 14.767491742307705 1 I I #
DXID-attrib $-1 -1 $-1 $288 $232 @18 ASM_EDGE_FROM_STEP @4 6168 #
DXID-attrib $-1 -1 $-1 $294 $250 @18 ASM_FACE_FROM_STEP @15 stp-1M-55-10012 #
DXID-attrib $-1 -1 $-1 $296 $256 @18 ASM_FACE_FROM_STEP @15 stp-1M-55-10002 #
color-adesk-attrib $-1 -1 $328 $297 $280 250 #
fmesh-eye-attrib $-1 -1 $329 $-1 $298 #
face $330 -1 $-1 $331 $332 $3 $-1 $333 forward single #
loop $-1 -1 $-1 $334 $335 $298 #
cone-surface $-1 -1 $-1 -449.10555783157406 -395.8277732132151 19.999999999999787 -3.8612341976776576e-17 -0.99999999999999989 -9.9981875118378348e-17 -3.2816648316239334 -3.754976563214291e-16 5.0230146259873312 1 I I 0 1 6.0000000000000009 forward I I I I #
loop $-1 -1 $-1 $-1 $303 $280 #
coedge $-1 -1 $-1 $318 $318 $336 $337 forward $299 $-1 #
coedge $-1 -1 $-1 $319 $319 $338 $339 forward $301 $-1 #
color-adesk-attrib $-1 -1 $340 $-1 $304 250 #
vertex $-1 -1 $-1 $304 $341 #
ellipse-curve $-1 -1 $-1 -449.10555783157406 -298.7204844371131 19.999999999999801 -3.8612341976776576e-17 -0.99999999999999989 -9.9981875118378348e-17 -22.603565816942996 2.3492581284094728e-15 -14.767491742307705 1 I I #
color-adesk-attrib $-1 -1 $342 $-1 $305 250 #
vertex $-1 -1 $-1 $305 $343 #
ellipse-curve $-1 -1 $-1 -449.10555783157406 -306.52048443711305 19.999999999999801 3.8612341976776576e-17 0.99999999999999989 9.9981875118378348e-17 7.6572179404558458 8.7616119808333464e-16 -11.720367460637108 1 I I #
DXID-attrib $-1 -1 $-1 $306 $287 @18 ASM_EDGE_FROM_STEP @4 6169 #
point $-1 -1 $-1 -426.50199201463101 -296.02048443711305 34.767491742307527 #
DXID-attrib $-1 -1 $-1 $312 $280 @18 ASM_FACE_FROM_STEP @15 stp-1M-55-10003 #
truecolor-adesk-attrib $-1 -1 $344 $313 $298 -1028476238 #
fmesh-eye-attrib $-1 -1 $345 $-1 $314 #
face $346 -1 $-1 $347 $348 $3 $-1 $349 forward single #
loop $-1 -1 $-1 $350 $351 $314 #
cone-surface $-1 -1 $-1 -449.10555783157406 -290.02048443711317 19.999999999999801 3.8612341976776576e-17 0.99999999999999989 9.9981875118378348e-17 8.2041620790598344 9.3874414080357276e-16 -12.557536564968329 1 I I 0 1 15 forward I I I I #
loop $-1 -1 $-1 $352 $353 $298 #
coedge $-1 -1 $-1 $335 $335 $354 $355 reversed $315 $-1 #
coedge $-1 -1 $-1 $336 $336 $318 $337 reversed $350 $-1 #
edge $356 -1 $-1 $357 0 $357 6.2831853071795862 $318 $358 forward @7 unknown #
coedge $-1 -1 $-1 $338 $338 $319 $339 reversed $352 $-1 #
edge $359 -1 $-1 $360 -6.2831853071795862 $360 0 $319 $361 reversed @7 unknown #
DXID-attrib $-1 -1 $-1 $320 $304 @18 ASM_EDGE_FROM_STEP @4 6171 #
point $-1 -1 $-1 -471.70912364851705 -298.7204844371131 5.2325082576921034 #
DXID-attrib $-1 -1 $-1 $323 $305 @18 ASM_EDGE_FROM_STEP @4 6170 #
point $-1 -1 $-1 -441.44833989111822 -306.52048443711305 8.2796325393626944 #
color-adesk-attrib $-1 -1 $362 $329 $298 253 #
color-adesk-attrib $-1 -1 $363 $330 $314 250 #
fmesh-eye-attrib $-1 -1 $364 $-1 $331 #
face $365 -1 $-1 $366 $367 $3 $-1 $368 reversed single #
loop $-1 -1 $-1 $369 $370 $331 #
plane-surface $-1 -1 $-1 -453.29140335323018 -278.52048443711317 17.265279306979849 3.8612341976776576e-17 0.99999999999999989 9.9981875118378348e-17 0.54694413860398894 6.258294272023818e-17 -0.83716910433122194 forward_v I I I I #
loop $-1 -1 $-1 $-1 $336 $314 #
coedge $-1 -1 $-1 $351 $351 $371 $372 forward $332 $-1 #
loop $-1 -1 $-1 $-1 $338 $298 #
coedge $-1 -1 $-1 $353 $353 $373 $374 reversed $334 $-1 #
coedge $-1 -1 $-1 $354 $354 $335 $355 forward $369 $-1 #
edge $375 -1 $-1 $376 0 $376 6.2831853071795862 $335 $377 forward @7 unknown #
color-adesk-attrib $-1 -1 $378 $-1 $337 250 #
vertex $-1 -1 $-1 $337 $379 #
ellipse-curve $-1 -1 $-1 -449.10555783157406 -291.52048443711317 19.999999999999801 -3.8612341976776576e-17 -0.99999999999999989 -9.9981875118378348e-17 -12.557536564968331 1.3051434046719294e-15 -8.2041620790598362 1 I I #
truecolor-adesk-attrib $-1 -1 $380 $-1 $339 -1028476238 #
vertex $-1 -1 $-1 $339 $381 #
ellipse-curve $-1 -1 $-1 -449.10555783157406 -306.52048443711305 19.999999999999801 -3.8612341976776576e-17 -0.99999999999999989 -9.9981875118378348e-17 -3.2816648316239334 -3.754976563214291e-16 5.0230146259873312 1 I I #
DXID-attrib $-1 -1 $-1 $344 $298 @18 ASM_FACE_FROM_STEP @15 stp-1M-55-10004 #
DXID-attrib $-1 -1 $-1 $345 $314 @18 ASM_FACE_FROM_STEP @15 stp-1M-55-10005 #
truecolor-adesk-attrib $-1 -1 $382 $346 $331 -1028476238 #
fmesh-eye-attrib $-1 -1 $383 $-1 $347 #
face $384 -1 $-1 $385 $386 $3 $-1 $387 forward single #
loop $-1 -1 $-1 $388 $373 $347 #
cone-surface $-1 -1 $-1 -451.840278524594 -283.52048443711317 24.185845521655907 0.54694413860398894 6.258294272023818e-17 -0.83716910433122194 1.814145449085758 -1.8854971719493805e-16 1.1852279483548442 1 I I 0 1 2.1669999999999998 forward I I I I #
loop $-1 -1 $-1 $-1 $354 $331 #
coedge $-1 -1 $-1 $370 $370 $389 $390 forward $348 $-1 #
coedge $-1 -1 $-1 $371 $371 $351 $372 reversed $386 $-1 #
edge $391 -1 $-1 $392 -6.2831853071795862 $392 0 $351 $393 reversed @7 unknown #
coedge $-1 -1 $-1 $373 $373 $353 $374 forward $367 $-1 #
edge $394 -1 $-1 $395 -0.98929378051692807 $395 0.32976459350564269 $353 $396 forward @7 unknown #
truecolor-adesk-attrib $-1 -1 $397 $-1 $355 -1028476238 #
vertex $-1 -1 $-1 $355 $398 #
ellipse-curve $-1 -1 $-1 -449.10555783157406 -278.52048443711317 19.999999999999801 -3.8612341976776576e-17 -0.99999999999999989 -9.9981875118378348e-17 -3.2816648316239334 -3.754976563214291e-16 5.0230146259873312 1 I I #
DXID-attrib $-1 -1 $-1 $356 $337 @18 ASM_EDGE_FROM_STEP @4 6173 #
point $-1 -1 $-1 -461.66309439654242 -291.52048443711317 11.795837920939988 #
color-adesk-attrib $-1 -1 $399 $359 $339 253 #
point $-1 -1 $-1 -452.38722266319803 -306.52048443711305 25.02301462598713 #
color-adesk-attrib $-1 -1 $400 $364 $331 253 #
truecolor-adesk-attrib $-1 -1 $401 $365 $347 -1028476238 #
fmesh-eye-attrib $-1 -1 $402 $-1 $366 #
face $403 -1 $-1 $404 $405 $3 $-1 $406 forward single #
loop $-1 -1 $-1 $407 $371 $366 #
cone-surface $-1 -1 $-1 -449.10555783157406 -289.02048443711317 19.999999999999801 -3.8612341976776576e-17 -0.99999999999999989 -9.9981875118378348e-17 -8.2041620790598344 -9.3874414080357276e-16 12.557536564968329 1 I I 0.70710678118654724 0.70710678118654779 15 forward I I I I #
loop $-1 -1 $-1 $-1 $408 $347 #
coedge $-1 -1 $-1 $389 $389 $370 $390 reversed $405 $-1 #
edge $409 -1 $-1 $410 -6.2831853071795862 $410 0 $370 $411 reversed @7 unknown #
color-adesk-attrib $-1 -1 $412 $-1 $372 250 #
vertex $-1 -1 $-1 $372 $413 #
ellipse-curve $-1 -1 $-1 -449.10555783157406 -289.02048443711317 19.999999999999801 3.8612341976776576e-17 0.99999999999999989 9.9981875118378348e-17 8.2041620790598344 9.3874414080357276e-16 -12.557536564968329 1 I I #
truecolor-adesk-attrib $-1 -1 $414 $-1 $374 -1028476238 #
vertex $-1 -1 $-1 $374 $415 #
intcurve-curve $-1 -1 $-1 reversed { surfintcur full nubs 3 periodic 17 
	0 3 0.082468031765953867 2 0.16493606353190773 2 0.2473503285187752 2 0.32976459350564269 2 
	0.41217885849251018 2 0.49459312347937767 2 0.57706115524533153 2 0.65952918701128538 2 0.74199721877723923 2 
	0.82446525054319308 2 0.90687951553006063 2 0.98929378051692807 2 1.0717080455037955 2 1.1541223104906631 2 
	1.2365903422566169 2 1.3190583740225708 3 
	-450.35156904147749 -283.52048443711317 25.86919552109083 
	-450.35156904147749 -283.24559099789326 25.86919552109083 
	-450.41023711357803 -282.95428680013845 25.857615394719204 
	-450.63889676022643 -282.42124489335617 25.801958038129214 
	-450.80804103438174 -282.17925875019318 25.756787976213644 
	-451.18305199074666 -281.79723390957122 25.632319590207373 
	-451.4147165717531 -281.63083068833987 25.544390352330097 
	-451.90198789662202 -281.40889060898928 25.31530407025528 
	-452.15724040852075 -281.35348443711314 25.17326795656021 
	-452.61720491787526 -281.35348443711314 24.872761295414051 
	-452.84981326514151 -281.40889060898928 24.696065344112782 
	-453.25534243484469 -281.63083068833987 24.341862067456219 
	-453.42892598581454 -281.79723390957122 24.165032262843852 
	-453.69355381676127 -282.17925875019318 23.871608154091433 
	-453.80286514885074 -282.42124489335617 23.734855996339462 
	-453.94568800141394 -282.95428680013845 23.547814268017504 
	-453.97985993964903 -283.24559099789326 23.49873962438113 
	-453.97985993964903 -283.79537787633296 23.49873962438113 
	-453.94568800141394 -284.08668207408778 23.547814268017504 
	-453.80286514885074 -284.61972398087005 23.734855996339462 
	-453.69355381676127 -284.86171012403304 23.871608154091433 
	-453.42892598581454 -285.243734964655 24.165032262843852 
	-453.25534243484469 -285.41013818588635 24.341862067456219 
	-452.84981326514151 -285.63207826523694 24.696065344112782 
	-452.61720491787526 -285.68748443711308 24.872761295414051 
	-452.15724040852075 -285.68748443711308 25.17326795656021 
	-451.90198789662202 -285.63207826523694 25.31530407025528 
	-451.4147165717531 -285.41013818588635 25.544390352330097 
	-451.18305199074666 -285.243734964655 25.632319590207373 
	-450.80804103438174 -284.86171012403304 25.756787976213644 
	-450.63889676022643 -284.61972398087005 25.801958038129214 
	-450.41023711357803 -284.08668207408778 25.857615394719204 
	-450.35156904147749 -283.79537787633296 25.86919552109083 
	-450.35156904147749 -283.52048443711317 25.86919552109083 
	0.0016913436539123684 
	cone -451.840278524594 -283.52048443711317 24.185845521655907 0.54694413860398894 6.258294272023818e-17 -0.83716910433122194 1.814145449085758 -1.8854971719493805e-16 1.1852279483548442 1 I I 0 1 2.1669999999999998 forward I I I I 
	cone -449.10555783157406 -395.8277732132151 19.999999999999787 -3.8612341976776576e-17 -0.99999999999999989 -9.9981875118378348e-17 -3.2816648316239334 -3.754976563214291e-16 5.0230146259873312 1 I I 0 -1 6.0000000000000009 forward I I I I 
	nullbs 
	nullbs 
	I I 
	0 
	0 
	0 
	} I I #
color-adesk-attrib $-1 -1 $416 $375 $355 253 #
point $-1 -1 $-1 -452.38722266319803 -278.52048443711317 25.02301462598713 #
DXID-attrib $-1 -1 $-1 $380 $339 @18 ASM_EDGE_FROM_STEP @4 6172 #
DXID-attrib $-1 -1 $-1 $382 $331 @18 ASM_FACE_FROM_STEP @15 stp-1M-55-10006 #
color-adesk-attrib $-1 -1 $417 $383 $347 253 #
color-adesk-attrib $-1 -1 $418 $384 $366 250 #
fmesh-eye-attrib $-1 -1 $419 $-1 $385 #
face $420 -1 $-1 $421 $422 $3 $-1 $423 forward single #
loop $-1 -1 $-1 $424 $389 $385 #
cone-surface $-1 -1 $-1 -449.10555783157406 -279.02048443711317 19.999999999999801 8.8274998874360633e-18 -0.99999999999999989 -1.7259472005067075e-16 -5.4694413860398896 -1.4931911651907857e-15 8.3716910433122198 1 I I 0.70710678118654724 0.70710678118654779 10 forward I I I I #
loop $-1 -1 $-1 $-1 $425 $366 #
coedge $-1 -1 $-1 $408 $408 $426 $427 reversed $388 $-1 #
truecolor-adesk-attrib $-1 -1 $428 $-1 $390 -1028476238 #
vertex $-1 -1 $-1 $390 $429 #
ellipse-curve $-1 -1 $-1 -449.10555783157406 -278.52048443711317 19.999999999999801 8.8274998874360633e-18 -0.99999999999999989 -1.7259472005067075e-16 -5.1959693167378953 -1.4185316069312466e-15 7.9531064911466087 1 I I #
DXID-attrib $-1 -1 $-1 $391 $372 @18 ASM_EDGE_FROM_STEP @4 6176 #
point $-1 -1 $-1 -440.90139575251419 -289.02048443711317 7.4424634350314705 #
color-adesk-attrib $-1 -1 $430 $394 $374 253 #
point $-1 -1 $-1 -452.38722266319803 -285.6874844371132 25.02301462598713 #
DXID-attrib $-1 -1 $-1 $397 $355 @18 ASM_EDGE_FROM_STEP @4 6174 #
DXID-attrib $-1 -1 $-1 $401 $347 @18 ASM_FACE_FROM_STEP @15 stp-1M-55-10007 #
DXID-attrib $-1 -1 $-1 $402 $366 @18 ASM_FACE_FROM_STEP @15 stp-1M-55-10008 #
truecolor-adesk-attrib $-1 -1 $431 $403 $385 -1028476238 #
fmesh-eye-attrib $-1 -1 $432 $-1 $404 #
face $433 -1 $-1 $250 $434 $3 $-1 $435 forward single #
loop $-1 -1 $-1 $436 $437 $404 #
cone-surface $-1 -1 $-1 -449.10555783157406 -283.52048443711317 19.999999999999801 3.8612341976776576e-17 0.99999999999999989 9.9981875118378348e-17 5.4694413860398896 6.2582942720238177e-16 -8.3716910433122198 1 I I 0 1 10 forward I I I I #
loop $-1 -1 $-1 $-1 $438 $385 #
coedge $-1 -1 $-1 $425 $425 $439 $440 forward $407 $-1 #
coedge $-1 -1 $-1 $426 $426 $408 $427 forward $436 $-1 #
edge $441 -1 $-1 $442 0 $442 1.3105328411544681 $408 $443 forward @7 unknown #
color-adesk-attrib $-1 -1 $444 $409 $390 253 #
point $-1 -1 $-1 -454.30152714831195 -278.52048443711317 27.953106491146414 #
DXID-attrib $-1 -1 $-1 $414 $374 @18 ASM_EDGE_FROM_STEP @4 6175 #
color-adesk-attrib $-1 -1 $445 $419 $385 253 #
truecolor-adesk-attrib $-1 -1 $446 $420 $404 -1028476238 #
fmesh-eye-attrib $-1 -1 $447 $-1 $421 #
loop $-1 -1 $-1 $448 $439 $421 #
plane-surface $-1 -1 $-1 -459.57017163571436 -288.52048443711317 13.163198267449957 3.8612341976776576e-17 0.99999999999999989 9.9981875118378348e-17 0.54694413860398894 6.258294272023818e-17 -0.83716910433122194 forward_v I I I I #
loop $-1 -1 $-1 $449 $426 $404 #
coedge $-1 -1 $-1 $437 $437 $450 $451 forward $422 $-1 #
coedge $-1 -1 $-1 $438 $438 $452 $453 forward $424 $-1 #
coedge $-1 -1 $-1 $439 $439 $425 $440 reversed $434 $-1 #
edge $454 -1 $-1 $455 0 $455 6.2831853071795862 $425 $456 forward @7 unknown #
truecolor-adesk-attrib $-1 -1 $457 $-1 $427 -1028476238 #
vertex $-1 -1 $-1 $427 $458 #
intcurve-curve $-1 -1 $-1 forward { surfintcur full nubs 3 periodic 17 
	0 3 0.081911486753273491 2 0.16382297350654698 2 0.24572809189758199 2 0.32763321028861703 2 
	0.40953832867965206 2 0.4914434470706871 2 0.57335493382396052 2 0.65526642057723405 2 0.73717790733050759 2 
	0.81908939408378101 2 0.90099451247481599 2 0.98289963086585108 2 1.064804749256886 2 1.146709867647921 2 
	1.2286213544011946 2 1.3105328411544681 3 
	-456.25918113769455 -283.52048443711317 26.987537019159646 
	-456.25918113769455 -283.24744614793553 26.987537019159646 
	-456.22026626347497 -282.95682377375238 27.028064568061282 
	-456.05964501184303 -282.42319018515911 27.18703268883354 
	-455.93759322944339 -282.1801011018805 27.30486208438252 
	-455.64882329587942 -281.79628190363519 27.564614263038891 
	-455.46257162789061 -281.62964615282272 27.723992952052555 
	-455.04013554866441 -281.40822383949421 28.053103677794482 
	-454.80356066629247 -281.35348443711314 28.222365961893217 
	-454.3464377689354 -281.35348443711314 28.521016124730835 
	-454.0963994086207 -281.40822383949421 28.669670805648551 
	-453.62531549890838 -281.62964615282272 28.924319702839426 
	-453.40454328072508 -281.79628190363519 29.030860202269196 
	-453.0506700654488 -282.1801011018805 29.190963345140702 
	-452.89373678655807 -282.42319018515911 29.255402075877555 
	-452.68363640060761 -282.95682377375238 29.338635949517609 
	-452.63089023952307 -283.24744614793553 29.357992915869346 
	-452.63089023952307 -283.79352272629069 29.357992915869346 
	-452.68363640060761 -284.08414510047396 29.338635949517609 
	-452.89373678655807 -284.61777868906722 29.255402075877555 
	-453.0506700654488 -284.86086777234573 29.190963345140702 
	-453.40454328072508 -285.24468697059103 29.030860202269196 
	-453.62531549890838 -285.41132272140362 28.924319702839426 
	-454.0963994086207 -285.63274503473201 28.669670805648551 
	-454.3464377689354 -285.68748443711308 28.521016124730835 
	-454.80356066629247 -285.68748443711308 28.222365961893217 
	-455.04013554866441 -285.63274503473201 28.053103677794482 
	-455.46257162789061 -285.41132272140362 27.723992952052555 
	-455.64882329587942 -285.24468697059103 27.564614263038891 
	-455.93759322944339 -284.86086777234573 27.30486208438252 
	-456.05964501184303 -284.61777868906722 27.18703268883354 
	-456.22026626347497 -284.08414510047385 27.028064568061282 
	-456.25918113769455 -283.79352272629069 26.987537019159646 
	-456.25918113769455 -283.52048443711317 26.987537019159646 
	0.0016094656340635729 
	cone -451.840278524594 -283.52048443711317 24.185845521655907 0.54694413860398894 6.258294272023818e-17 -0.83716910433122194 1.814145449085758 -1.8854971719493805e-16 1.1852279483548442 1 I I 0 1 2.1669999999999998 forward I I I I 
	cone -449.10555783157406 -283.52048443711317 19.999999999999801 3.8612341976776576e-17 0.99999999999999989 9.9981875118378348e-17 5.4694413860398896 6.2582942720238177e-16 -8.3716910433122198 1 I I 0 1 10 forward I I I I 
	nullbs 
	nullbs 
	I I 
	0 
	0 
	0 
	} I I #
DXID-attrib $-1 -1 $-1 $428 $390 @18 ASM_EDGE_FROM_STEP @4 6177 #
DXID-attrib $-1 -1 $-1 $431 $385 @18 ASM_FACE_FROM_STEP @15 stp-1M-55-10009 #
color-adesk-attrib $-1 -1 $459 $432 $404 253 #
color-adesk-attrib $-1 -1 $460 $433 $421 250 #
loop $-1 -1 $-1 $-1 $450 $421 #
loop $-1 -1 $-1 $-1 $452 $404 #
coedge $-1 -1 $-1 $450 $450 $437 $451 reversed $448 $-1 #
edge $461 -1 $-1 $462 0 $462 6.2831853071795862 $437 $463 forward @7 unknown #
coedge $-1 -1 $-1 $452 $452 $438 $453 reversed $449 $-1 #
edge $464 -1 $-1 $465 -6.2831853071795862 $465 0 $438 $466 reversed @7 unknown #
color-adesk-attrib $-1 -1 $467 $-1 $440 250 #
vertex $-1 -1 $-1 $440 $468 #
ellipse-curve $-1 -1 $-1 -449.10555783157406 -288.52048443711317 19.999999999999801 -3.8612341976776576e-17 -0.99999999999999989 -9.9981875118378348e-17 -7.9306900097578392 -9.074526694434536e-16 12.138952012802719 1 I I #
color-adesk-attrib $-1 -1 $469 $441 $427 253 #
point $-1 -1 $-1 -456.25918113769455 -283.52048443711317 26.987537019159646 #
DXID-attrib $-1 -1 $-1 $446 $404 @18 ASM_FACE_FROM_STEP @15 stp-1M-55-10010 #
DXID-attrib $-1 -1 $-1 $447 $421 @18 ASM_FACE_FROM_STEP @15 stp-1M-55-10011 #
truecolor-adesk-attrib $-1 -1 $470 $-1 $451 -1023409926 #
vertex $-1 -1 $-1 $451 $471 #
ellipse-curve $-1 -1 $-1 -449.10555783157406 -288.52048443711317 19.999999999999801 3.8612341976776576e-17 0.99999999999999989 9.9981875118378348e-17 5.4694413860398896 6.2582942720238177e-16 -8.3716910433122198 1 I I #
truecolor-adesk-attrib $-1 -1 $472 $-1 $453 -1028476238 #
vertex $-1 -1 $-1 $453 $473 #
ellipse-curve $-1 -1 $-1 -449.10555783157406 -279.02048443711317 19.999999999999801 -3.8612341976776576e-17 -0.99999999999999989 -9.9981875118378348e-17 8.3716910433122198 -8.7009560311461956e-16 5.4694413860398905 1 I I #
DXID-attrib $-1 -1 $-1 $454 $440 @18 ASM_EDGE_FROM_STEP @4 6179 #
point $-1 -1 $-1 -457.03624784133194 -288.52048443711317 32.13895201280252 #
DXID-attrib $-1 -1 $-1 $457 $427 @18 ASM_EDGE_FROM_STEP @4 6178 #
color-adesk-attrib $-1 -1 $474 $461 $451 250 #
point $-1 -1 $-1 -443.63611644553419 -288.52048443711317 11.62830895668759 #
color-adesk-attrib $-1 -1 $475 $464 $453 253 #
point $-1 -1 $-1 -440.73386678826182 -279.02048443711317 25.469441386039691 #
DXID-attrib $-1 -1 $-1 $470 $451 @18 ASM_EDGE_FROM_STEP @4 6181 #
DXID-attrib $-1 -1 $-1 $472 $453 @18 ASM_EDGE_FROM_STEP @4 6180 #
