700 251 1 0         
5 ZWCAD 12 ACIS 28.0 NT 24 Sat May 11 16:08:12 2024 
1 9.9999999999999995e-07 1e-10 
body $1 -1 $-1 $2 $-1 $-1 #
DXID-attrib $-1 -1 $-1 $-1 $0 @18 ASM_BODY_FROM_STEP @83 C9A835CDDEB9E764FC82BEB046CB396437DC3D8F|:|E48871FBB50E05F143736C8DB4A07EC86DF0E275 #
lump $-1 -1 $-1 $-1 $3 $0 #
shell $-1 -1 $-1 $-1 $-1 $4 $-1 $2 #
face $5 -1 $-1 $6 $7 $3 $-1 $8 forward single #
color-adesk-attrib $-1 -1 $9 $-1 $4 7 #
face $10 -1 $-1 $11 $12 $3 $-1 $13 reversed single #
loop $-1 -1 $-1 $-1 $14 $4 #
spline-surface $-1 -1 $-1 forward { exactsur full nubs 3 3 open periodic none none 2 18 
	-0.0001746768676033468 3 1 3 
	0.199173119482317 3 0.24896632721120701 1 0.29875953494009699 2 0.34855288695236503 2 0.398346238964634 2 
	0.44813959097690198 2 0.47926036384288001 1 0.51038113670885898 1 0.54150190957483801 1 0.57262268244081604 1 
	0.63486422817277399 1 0.69710577390473105 2 0.74689912591699903 2 0.79669247792926701 2 0.84648582994153498 2 
	0.89627918195380396 2 0.94607238968269403 2 0.99586559741158398 3 
	-65.872083703377172 -227.95006677042835 1153.7501095158336 
	-65.805393939075003 -227.95006612979893 1153.6834281628296 
	-65.738643361618244 -227.95003663108821 1153.616733618358 
	-65.671953576078195 -227.95003598038065 1153.5500522607474 
	-65.872044410131082 -227.7588448255745 1153.7501024782737 
	-65.805335683828744 -227.76804015202848 1153.6834140814883 
	-65.738628994469963 -227.77718582867118 1153.6167349909047 
	-65.671920268878992 -227.78638113778587 1153.5500465973694 
	-65.794744379464277 -227.35142450414529 1153.7410241132909 
	-65.732157315397103 -227.38015898005597 1153.675114380819 
	-65.669672539078931 -227.40887021929808 1153.6092297498071 
	-65.607085510733995 -227.43760468709377 1153.5433200261014 
	-65.561687345457472 -227.00928240293055 1153.718448631925 
	-65.510565696337864 -227.05297317067121 1153.6544280368969 
	-65.459441560228527 -227.09668334158241 1153.5904188770949 
	-65.408319910240394 -227.14037411609928 1153.5263982860604 
	-65.292082687794831 -226.73907294765888 1153.6972985320535 
	-65.253317088588261 -226.793896076458 1153.6350013280392 
	-65.214560795527163 -226.84890038190932 1153.5727262632458 
	-65.175795199570587 -226.90372357398104 1153.5104290669628 
	-65.121190129952566 -226.62216841675667 1153.6860410416948 
	-65.089901390887547 -226.68148750042684 1153.6246463898417 
	-65.058590211284979 -226.74093487129659 1153.5632714097487 
	-65.027301464382987 -226.80025399976873 1153.5018767647657 
	-64.74640520834798 -226.46679650295928 1153.6700742006997 
	-64.730670113898952 -226.53181194228719 1153.6099457664836 
	-64.714928037337785 -226.59703084361462 1153.5498282257395 
	-64.699192940450502 -226.66204635399791 1153.4896997953279 
	-64.542619462058582 -226.42845767586653 1153.6656749383108 
	-64.535018708671245 -226.49477972503939 1153.605887183249 
	-64.527370335132915 -226.56132725028988 1153.5461151426146 
	-64.519769565115098 -226.62764937820614 1153.4863273930407 
	-64.160157698782939 -226.42817203452034 1153.6656706614858 
	-64.167755874898006 -226.49450881565903 1153.6058844544332 
	-64.175339140632289 -226.56106478688173 1153.5461092855021 
	-64.182937311540201 -226.62740164456852 1153.4863230823044 
	-63.956261500509058 -226.46620416887365 1153.6700763031474 
	-63.972009534612063 -226.53119699067921 1153.609945738157 
	-63.987664452759319 -226.59654625667858 1153.5498300376676 
	-64.003412454343305 -226.66153920296577 1153.4896994778685 
	-63.652047052060936 -226.59225115936047 1153.6830769939393 
	-63.680400630675656 -226.65266349870808 1153.6219207474007 
	-63.708753865063777 -226.71326056749885 1153.5607687260024 
	-63.737107443558386 -226.77367297135984 1153.4996124809395 
	-63.428881693813551 -226.72112470370055 1153.6957179361191 
	-63.466808285599313 -226.77657537029276 1153.633552278226 
	-63.50464758849288 -226.83245423246069 1153.5713941365218 
	-63.542574149794589 -226.88790504859239 1153.5092284812538 
	-63.169138407453474 -226.96896801156657 1153.7160985738037 
	-63.218911715548217 -227.01440622848915 1153.6522770497365 
	-63.268693936441622 -227.05995602056728 1153.5884475452567 
	-63.318467247648989 -227.10539427645546 1153.5246260184024 
	-62.961933070376659 -227.28949428544479 1153.7357429453075 
	-63.021804360780976 -227.32071341086245 1153.670286032032 
	-63.081658690934233 -227.35231211710777 1153.6048168106781 
	-63.141529975415487 -227.3835313750871 1153.5393598931041 
	-62.805034209346047 -227.77535023359616 1153.7529067531905 
	-62.873047829209497 -227.78388348767908 1153.6859825556555 
	-62.94103876977897 -227.7925809009771 1153.6190521939998 
	-63.009052381721993 -227.80111421238965 1153.5521279943121 
	-62.830081868301676 -228.39895656333803 1153.7494762018823 
	-62.896517138420315 -228.37726429338721 1153.6828636268995 
	-62.963226918712287 -228.35491477621838 1153.6162290441232 
	-63.029662284698496 -228.33322227673597 1153.5496164614544 
	-63.105224732499096 -228.86017315268177 1153.7211907179671 
	-63.157974255793128 -228.8176247885842 1153.6569459835141 
	-63.21057765304711 -228.77534134083257 1153.5927175434522 
	-63.263327125309289 -228.73279306925221 1153.5284728146894 
	-63.409089802858567 -229.16218389636853 1153.6973851852069 
	-63.447813385210864 -229.10748665208311 1153.6350921275127 
	-63.486693163770425 -229.05204135978477 1153.5727902941601 
	-63.525416800671387 -228.99734385425722 1153.5104972334011 
	-63.580029646287755 -229.27910430056764 1153.6861295180242 
	-63.611339687890947 -229.21972359164502 1153.6247331801044 
	-63.642640349988334 -229.16020536191004 1153.5633429804825 
	-63.673950388315895 -229.10082460496076 1153.5019466447063 
	-63.955026446575403 -229.4338719612139 1153.670162168645 
	-63.970746597500735 -229.36889694158324 1153.6100344666634 
	-63.986525914952928 -229.30349107004824 1153.5498968723091 
	-64.002246086541092 -229.23851589995041 1153.489769166873 
	-64.158945404815682 -229.47184941567787 1153.6657621864099 
	-64.166557711182179 -229.40550278684182 1153.6059749315777 
	-64.174174109016633 -229.33895108907754 1153.5461834192595 
	-64.181786416811889 -229.27260438862493 1153.4863961629403 
	-64.541625336987209 -229.47159452170715 1153.6657642551072 
	-64.534014410892951 -229.40527958945046 1153.6059766606816 
	-64.526422094975089 -229.33870235069264 1153.5461844777001 
	-64.51881117538008 -229.2723873268302 1153.4863968816717 
	-64.745535956031134 -229.43321807192061 1153.6701671791145 
	-64.729809282078179 -229.3681968163433 1153.6100399718464 
	-64.71407021359272 -229.30298067342173 1153.5498979282606 
	-64.698343535311196 -229.23795934978358 1153.4897707158109 
	-65.120504866852428 -229.27786307509206 1153.6861397413013 
	-65.089206385602665 -229.21855065385336 1153.6247426837326 
	-65.057910137106006 -229.15907987061098 1153.5633473508176 
	-65.026611656635993 -229.09976739406724 1153.5019502938512 
	-65.291434680062679 -229.16083292247791 1153.6973939390148 
	-65.252685394229047 -229.10599863193801 1153.6351021814462 
	-65.213886652015361 -229.05103016152054 1153.5727906066193 
	-65.175137348909999 -228.99619582412078 1153.5104988421297 
	-65.561434625744539 -228.89091734140234 1153.7185723486541 
	-65.510288014570307 -228.8472441204238 1153.6545429386001 
	-65.459147869923214 -228.803461208378 1153.5905167162605 
	-65.408001261007286 -228.75978794909187 1153.5264873073199 
	-65.678454662559147 -228.72000988582943 1153.7298059395873 
	-65.621629322172311 -228.68378055720225 1153.6648514915746 
	-65.564714873372424 -228.64748858968827 1153.5998682584454 
	-65.507889501866089 -228.61125923918559 1153.5349138003803 
	-65.833788148917137 -228.34518914872478 1153.7457264226703 
	-65.76910335461028 -228.32623513655392 1153.6794146150073 
	-65.70443656073391 -228.30720142630241 1153.6131126998041 
	-65.639751772713396 -228.28824738629845 1153.5468008955961 
	-65.872122996623219 -228.14128871528217 1153.7501165533934 
	-65.805452194321305 -228.13209210756935 1153.6834422441711 
	-65.738657728766427 -228.12288743350527 1153.6167322458111 
	-65.671986883277299 -228.1136908229754 1153.5500579241252 
	-65.872083703377172 -227.95006677042835 1153.7501095158336 
	-65.805393939075003 -227.95006612979893 1153.6834281628296 
	-65.738643361618244 -227.95003663108821 1153.616733618358 
	-65.671953576078195 -227.95003598038065 1153.5500522607474 
	0 
	0 
	0 
	0 
	0 
	11 0.199173119482317 0.29875953494009699 0.34855288695236503 0.398346238964634 0.44813959097690198 0.69710577390473105 0.74689912591699903 0.79669247792926701 0.84648582994153498 0.89627918195380396 0.94607238968269403 
	6 0.24896632721120701 0.47926036384288001 0.51038113670885898 0.54150190957483801 0.57262268244081604 0.63486422817277399 
	F 1 F 0 F 1 F 0 } I I I I #
DXID-attrib $-1 -1 $-1 $5 $4 @18 ASM_FACE_FROM_STEP @14 stp-1M-37-4808 #
color-adesk-attrib $-1 -1 $15 $-1 $6 7 #
face $16 -1 $-1 $17 $18 $3 $-1 $19 forward single #
loop $-1 -1 $-1 $20 $21 $6 #
cone-surface $-1 -1 $-1 -64.350787579344995 -227.94999403108653 1148.2605000000001 -6.1232339957367623e-17 5.5511151231257728e-17 1 1.321 -8.6525213633090165e-16 8.0887921083682679e-17 1 I I 0 1 1.321 forward I I I I #
tcoedge-coedge $-1 -1 $-1 $22 $23 $24 $25 forward $7 $26 -9.9584412800422525e-32 0.028268844984273983 #
DXID-attrib $-1 -1 $-1 $10 $6 @18 ASM_FACE_FROM_STEP @14 stp-1M-37-4809 #
color-adesk-attrib $-1 -1 $27 $-1 $11 7 #
face $28 -1 $-1 $29 $30 $3 $-1 $31 reversed single #
loop $-1 -1 $-1 $32 $33 $11 #
cone-surface $-1 -1 $-1 -82.100787579344995 -227.94999403108653 1140 1 -6.5499783219598917e-16 6.123233995736766e-17 9.0062201926948512e-15 13.75 -7.6327832942979315e-16 1 I I 0 1 13.75 forward I I I I #
loop $-1 -1 $-1 $-1 $34 $6 #
coedge $-1 -1 $-1 $21 $21 $35 $36 reversed $12 $-1 #
tcoedge-coedge $-1 -1 $-1 $24 $14 $34 $37 forward $7 $38 0.19917738349277311 0.99586986142204015 #
tcoedge-coedge $-1 -1 $-1 $14 $24 $39 $40 forward $7 $41 -0.19917946146610571 0.59751301646316124 #
tcoedge-coedge $-1 -1 $-1 $23 $22 $14 $25 reversed $7 $42 -0.028268844984273983 9.9584412800422525e-32 #
tedge-edge $43 -1 $-1 $44 -9.9584412800422525e-32 $45 0.028268844984273983 $14 $46 forward @7 unknown 0.00013192388944086475 #
pcurve $-1 -1 $-1 0 forward { exppc nubs 3 open 2 
	-9.9584412800422525e-32 3 0.028268844984273983 3 
	0.00083929243808013559 0.19917943556014933 
	0.33395432975866568 0.19917967895610103 
	0.66688505619069249 0.19917720168413308 
	1 0.19917737506944483 
	5.2286130562707843e-07 
	spline forward { ref 0 } I I I I 
	} 0 0 #
DXID-attrib $-1 -1 $-1 $16 $11 @18 ASM_FACE_FROM_STEP @14 stp-1M-37-4810 #
color-adesk-attrib $-1 -1 $47 $-1 $17 7 #
face $48 -1 $-1 $49 $50 $3 $-1 $51 reversed single #
loop $-1 -1 $-1 $-1 $52 $17 #
cone-surface $-1 -1 $-1 -114.85078757934501 -227.9499940310865 1136.5 1 -6.5499783219598917e-16 6.123233995736766e-17 -2.1287429546369648e-15 -3.25 7.3552275381416562e-16 1 I I 0 1 3.25 forward I I I I #
loop $-1 -1 $-1 $53 $54 $11 #
coedge $-1 -1 $-1 $33 $33 $55 $56 reversed $18 $-1 #
tcoedge-coedge $-1 -1 $-1 $34 $34 $22 $37 reversed $20 $57 -0.99586986142204015 -0.19917738349277311 #
coedge $-1 -1 $-1 $35 $35 $21 $36 forward $58 $-1 #
edge $59 -1 $-1 $60 -0.79711761253543145 $60 0 $21 $61 forward @7 unknown #
tedge-edge $62 -1 $-1 $45 0.19917738349277311 $45 0.99586986142204015 $22 $63 forward @7 unknown 0.0024791658026460531 #
pcurve $-1 -1 $-1 0 forward { exppc nubs 1 periodic 2 
	0.19917738349277311 1 0.99586986142204015 1 
	0.99999999999999067 0.19917738349277311 
	0.99999999999999067 0.99586986142204015 
	2.3230204598247618e-14 
	spline forward { ref 0 } I I I I 
	} 0 0 #
tcoedge-coedge $-1 -1 $-1 $39 $39 $23 $40 reversed $53 $64 -0.59751301646316124 0.19917946146610571 #
tedge-edge $65 -1 $-1 $44 -0.19917946146610571 $44 0.59751301646316124 $23 $66 forward @7 unknown 0.00017176379861276561 #
pcurve $-1 -1 $-1 0 forward { exppc nubs 3 periodic 19 
	-0.19917946146610571 3 -0.19917311948231697 3 -0.14937991175342702 3 -0.099586704024536954 3 -0.049793352012267977 3 
	0 3 0.049793352012267977 3 0.099586704024535955 3 0.16182824975649301 3 0.22406979548845096 3 
	0.25519056835442899 3 0.28631134122040802 3 0.317432114086387 3 0.34855288695236503 3 0.398346238964633 3 
	0.44813959097690198 3 0.49793294298917001 3 0.54772615071805997 3 0.59751301646316124 3 
	0.00018640774808569092 0.19917946091158623 
	0.0001864103624484768 0.19917734692054317 
	0.00018641295482299116 0.19917523292964909 
	0.00018641552519974442 0.19917311893850431 
	0.00020659648243351504 0.18257541012779444 
	0.00023123061339267332 0.16597764583947319 
	0.00020202061331814935 0.14937992846579831 
	0.00017281061324362533 0.13278221109212338 
	0.00026269991786030726 0.11618443977832008 
	0.00027458716359201116 0.099586737672130221 
	0.00028647444376881428 0.082988987471578693 
	0.000404908537928492 0.066391137124063582 
	0.00039751217584673207 0.049793382717678802 
	0.00039011581376497231 0.033195628311294356 
	0.0004993620653771252 0.016597730972963298 
	0.00053573215975884041 -5.0724250771905233e-09 
	0.00057210225414055561 -0.016597741117813453 
	0.00057779807592661669 -0.033195679595874217 
	0.00064271078825646033 -0.04979341362423758 
	0.00070762350058630396 -0.066391147652600943 
	0.00060341243877761624 -0.082989273200081509 
	0.00065822014004022502 -0.09958681168510114 
	0.00072672960780531212 -0.1203336866976278 
	8.4721582934330585e-06 -0.14108108546553358 
	0.00020995432612023682 -0.16182828456016929 
	0.00041143649394704342 -0.18257548365480528 
	0.00022688699033073629 -0.20332257432233425 
	0.00021884816138754629 -0.22406977589458887 
	0.00021482874691595139 -0.23444337668071588 
	0.000236467423916484 -0.24481697491060664 
	0.00026209999073388101 -0.25519054251141771 
	0.00028773255755127887 -0.26556411011222919 
	0.00025863382783298215 -0.27593771958909075 
	0.0003157265628628013 -0.28631131424663658 
	0.00037281929789262033 -0.29668490890418237 
	0.0003687003634351018 -0.30705845369216295 
	0.00034845093306159287 -0.31743205907808264 
	0.00032820150268808454 -0.32780566446400206 
	0.00041920628629598462 -0.33817929000883828 
	0.00037767834444817446 -0.34855285921085366 
	0.00031123348346486673 -0.36515060840956531 
	0.00030800497305619585 -0.38174847837216391 
	0.00026984952852623771 -0.39834623622361398 
	0.0002316940839962788 -0.41494399407506433 
	0.00012541946727761042 -0.43154182551213804 
	0.00012588502368895721 -0.4481396003153163 
	0.00012635058010030396 -0.46473737511849428 
	4.6566877485845657e-05 -0.48133516008624522 
	-2.7253324316685816e-05 -0.49793294020089252 
	-0.00010107331221459638 -0.51453067222109183 
	-5.9786284568226513e-05 -0.53112839701962511 
	-0.00011723523462001776 -0.54772614008760478 
	-0.0001746768676033468 -0.56432176916007659 
	0.00016588405497898899 -0.58091742299652949 
	0.00018640774808569092 -0.59751301701768078 
	9.1508237228001273e-05 
	spline forward { ref 0 } I I I I 
	} 0 0.79669247792926701 #
pcurve $-1 -1 $-1 0 forward { exppc nubs 3 open 2 
	-0.028268844984273983 3 9.9584412800422525e-32 3 
	1 0.19917737506944483 
	0.66688505619072114 0.19917720168413308 
	0.3339543297586578 0.19917967895610103 
	0.00083929243807219413 0.19917943556014933 
	5.2286130561807722e-07 
	spline forward { ref 0 } I I I I 
	} 0 0.79669247792926701 #
color-adesk-attrib $-1 -1 $67 $-1 $25 7 #
tvertex-vertex $-1 -1 $-1 $25 $68 0.00015050293401949028 #
tvertex-vertex $-1 -1 $-1 $25 $69 0.0001659874640438379 #
straight-curve $-1 -1 $-1 -65.871787579344996 -227.94999403108653 1153.75 7.0710678118654 -1.238386560283389e-14 -7.0710678118655501 F -9.9584412800422525e-32 F 0.028268844984273983 #
DXID-attrib $-1 -1 $-1 $28 $17 @18 ASM_FACE_FROM_STEP @14 stp-1M-37-4811 #
color-adesk-attrib $-1 -1 $70 $-1 $29 7 #
face $71 -1 $-1 $72 $73 $3 $-1 $74 reversed single #
loop $-1 -1 $-1 $-1 $75 $29 #
plane-surface $-1 -1 $-1 -114.85078757934501 -231.1999940310865 1143.5 -6.5499783219598917e-16 -1 5.5511151231257685e-17 6.1232339957367623e-17 -5.5511151231257728e-17 -1 forward_v I I I I #
coedge $-1 -1 $-1 $76 $77 $78 $79 reversed $30 $-1 #
loop $-1 -1 $-1 $-1 $39 $11 #
coedge $-1 -1 $-1 $54 $54 $80 $81 forward $32 $-1 #
coedge $-1 -1 $-1 $55 $55 $33 $56 forward $82 $-1 #
edge $83 -1 $-1 $84 -1.5707963267948966 $84 4.7123889803846897 $33 $85 forward @7 unknown #
pcurve $-1 -1 $-1 0 forward { exppc nubs 3 periodic 19 
	-0.99586986142204015 3 -0.99586559741158398 3 -0.94607238968269403 3 -0.89627918195380396 3 -0.84648582994153498 3 
	-0.79669247792926701 3 -0.74689912591699903 3 -0.69710577390473105 3 -0.63486422817277399 3 -0.57262268244081604 3 
	-0.54150190957483801 3 -0.51038113670885898 3 -0.47926036384288001 3 -0.44813959097690198 3 -0.398346238964634 3 
	-0.34855288695236503 3 -0.29875953494009699 3 -0.24896632721120701 3 -0.19917738349277311 3 
	4.004203072837619 -3.1415927250303231 
	4.004203073242028 -3.141582117250175 
	4.004203073627802 -3.141571509529673 
	4.0042030739949324 -3.1415609018688206 
	4.0042073611848652 -3.0176893809722176 
	4.0017417831915223 -2.8857102561744048 
	3.9972425041545048 -2.7536749384589987 
	3.9927432251174877 -2.6216396207435921 
	3.9863643507342172 -2.4885914344000479 
	3.9803127072725477 -2.3630353240525857 
	3.9742610462753225 -2.237478849887232 
	3.9677897758147624 -2.1029772819013868 
	3.9631797916965561 -1.9682603415134992 
	3.9585698075783498 -1.8335434011256142 
	3.956015807472824 -1.6978460816931376 
	3.956015535432249 -1.5704267369637916 
	3.9560152633916741 -1.4430073922344455 
	3.9585686350286906 -1.3074100602682313 
	3.9631778242161997 -1.1728719399931504 
	3.9677870134037088 -1.0383338197180696 
	3.9742598284641191 -0.90399900900982422 
	3.9803076388562557 -0.77894200662208801 
	3.9878673843220289 -0.62262111600801573 
	3.9958702786313025 -0.45214408967125119 
	4.0002519730013217 -0.28902899129986748 
	4.0046336673713414 -0.12591389292848143 
	4.0053941618021049 0.030277098698896193 
	4.0024258327420839 0.1924649800166788 
	4.0009416682120742 0.27355892067556764 
	3.9985252978093664 0.35589139904148964 
	3.9954581831730156 0.4382285138188593 
	3.9923910685366648 0.52056562859623168 
	3.9886732096666675 0.60314230455752371 
	3.9848716184667676 0.68356124234354398 
	3.9810700272668682 0.76398018012956403 
	3.977184703737068 0.84211827172273324 
	3.9734222084531665 0.92358349311592192 
	3.969659713169265 1.0050487145091083 
	3.9660200461312645 1.0897579846889853 
	3.9631338326188703 1.1738052567030146 
	3.958515880294097 1.3082812036561362 
	3.955959941184255 1.4438743717499634 
	3.9559615728028392 1.5712242076402159 
	3.955963204421423 1.6985740435304708 
	3.9585161206115069 1.834168817533901 
	3.9631251173707422 1.968804496173385 
	3.967734114129978 2.1034401748128668 
	3.9742082263155947 2.2378208262790285 
	3.9802526026342862 2.3633230990169753 
	3.9862969614385304 2.4888250080940897 
	3.9927018592587804 2.6217388881312629 
	3.9971773156003771 2.7537922498249277 
	4.0016523886890463 2.8858343032108795 
	4.0041983507379673 3.0177302759501305 
	4.004203072837619 3.1415925821492632 
	7.604166436713055e-06 
	cone -64.350787579344995 -227.94999403108653 1148.2605000000001 -6.1232339957367623e-17 5.5511151231257728e-17 1 1.321 -8.6525213633090165e-16 8.0887921083682679e-17 1 I I 0 -1 1.321 forward I I I I 
	} 0 0 #
loop $-1 -1 $-1 $86 $35 $87 #
color-adesk-attrib $-1 -1 $88 $-1 $36 7 #
vertex $-1 -1 $-1 $36 $89 #
intcurve-curve $-1 -1 $-1 reversed { surfintcur full nubs 3 periodic 17 
	0 3 0.049820086154356846 2 0.099640172308713693 2 0.14945978772128579 2 0.19927940313385789 2 
	0.24909901854642999 2 0.29891863395900209 2 0.34873872011335894 2 0.39855880626771578 2 0.44837889242207263 2 
	0.49819897857642942 2 0.54801859398900155 2 0.59783820940157362 2 0.6476578248141458 2 0.69747744022671787 2 
	0.74729752638107461 2 0.79711761253543145 3 
	-64.350787579344995 -229.27099403108653 1150.164519614817 
	-64.516854533192841 -229.27099403108653 1150.164519614817 
	-64.693862999762416 -229.23776764777736 1150.1690093909017 
	-65.01927457828107 -229.10289767117337 1150.1851816892727 
	-65.167693641781142 -229.00126408454523 1150.1966258089521 
	-65.402056525570316 -228.76690120075605 1150.2180726669742 
	-65.503690979936039 -228.61848165646742 1150.2294751747679 
	-65.638561591957398 -228.29306844763803 1150.2455521081279 
	-65.671787579344993 -228.11605941579512 1150.25 
	-65.671787579344993 -227.78392864637797 1150.25 
	-65.638561591957398 -227.60691961453503 1150.2455521081279 
	-65.503690979936039 -227.28150640570564 1150.2294751747679 
	-65.402056525570316 -227.13308686141701 1150.2180726669742 
	-65.167693641781142 -226.89872397762784 1150.1966258089521 
	-65.01927457828107 -226.7970903909997 1150.1851816892727 
	-64.69386299976243 -226.66222041439573 1150.1690093909017 
	-64.516854533192841 -226.62899403108653 1150.164519614817 
	-64.184720625497135 -226.62899403108653 1150.164519614817 
	-64.007712158927561 -226.66222041439573 1150.1690093909017 
	-63.682300580408906 -226.7970903909997 1150.1851816892727 
	-63.533881516908828 -226.89872397762784 1150.1966258089521 
	-63.299518633119661 -227.13308686141701 1150.2180726669742 
	-63.197884178753938 -227.28150640570564 1150.2294751747679 
	-63.063013566732572 -227.60691961453506 1150.2455521081279 
	-63.029787579344983 -227.78392864637797 1150.25 
	-63.029787579344983 -228.11605941579512 1150.25 
	-63.063013566732572 -228.29306844763803 1150.2455521081279 
	-63.197884178753938 -228.61848165646742 1150.2294751747679 
	-63.299518633119661 -228.76690120075605 1150.2180726669742 
	-63.533881516908828 -229.00126408454523 1150.1966258089521 
	-63.682300580408906 -229.10289767117337 1150.1851816892727 
	-64.007712158927561 -229.23776764777736 1150.1690093909017 
	-64.184720625497135 -229.27099403108653 1150.164519614817 
	-64.350787579344995 -229.27099403108653 1150.164519614817 
	0.001335669641340481 
	cone -64.350787579344995 -227.94999403108653 1148.2605000000001 -6.1232339957367623e-17 5.5511151231257728e-17 1 1.321 -8.6525213633090165e-16 8.0887921083682679e-17 1 I I 0 1 1.321 forward I I I I 
	cone -82.100787579344995 -227.94999403108653 1140 1 -6.5499783219598917e-16 6.123233995736766e-17 6.7137277800088904e-15 10.250000000000002 -5.6898930012039135e-16 1 I I 0 1 10.250000000000002 forward I I I I 
	nullbs 
	nullbs 
	I I 
	0 
	0 
	0 
	} I I #
color-adesk-attrib $-1 -1 $90 $-1 $37 7 #
intcurve-curve $-1 -1 $-1 forward { exactcur full nubs 3 periodic 18 
	0.199173119482317 3 0.24896632721120701 1 0.29875953494009699 2 0.34855288695236503 2 0.398346238964634 2 
	0.44813959097690198 2 0.47926036384288001 1 0.51038113670885898 1 0.54150190957483801 1 0.57262268244081604 1 
	0.63486422817277399 1 0.69710577390473105 2 0.74689912591699903 2 0.79669247792926701 2 0.84648582994153498 2 
	0.89627918195380396 2 0.94607238968269403 2 0.99586559741158398 3 
	-65.671953576078195 -227.95003598038065 1153.5500522607474 
	-65.671920268878992 -227.78638113778587 1153.5500465973694 
	-65.607085510733995 -227.43760468709377 1153.5433200261014 
	-65.408319910240394 -227.14037411609928 1153.5263982860604 
	-65.175795199570587 -226.90372357398104 1153.5104290669628 
	-65.027301464382987 -226.80025399976873 1153.5018767647657 
	-64.699192940450502 -226.66204635399791 1153.4896997953279 
	-64.519769565115098 -226.62764937820614 1153.4863273930407 
	-64.182937311540201 -226.62740164456852 1153.4863230823044 
	-64.003412454343305 -226.66153920296577 1153.4896994778685 
	-63.737107443558386 -226.77367297135984 1153.4996124809395 
	-63.542574149794589 -226.88790504859239 1153.5092284812538 
	-63.318467247648989 -227.10539427645546 1153.5246260184024 
	-63.141529975415487 -227.3835313750871 1153.5393598931041 
	-63.009052381721993 -227.80111421238965 1153.5521279943121 
	-63.029662284698496 -228.33322227673597 1153.5496164614544 
	-63.263327125309289 -228.73279306925221 1153.5284728146894 
	-63.525416800671387 -228.99734385425722 1153.5104972334011 
	-63.673950388315895 -229.10082460496076 1153.5019466447063 
	-64.002246086541092 -229.23851589995041 1153.489769166873 
	-64.181786416811889 -229.27260438862493 1153.4863961629403 
	-64.51881117538008 -229.2723873268302 1153.4863968816717 
	-64.698343535311196 -229.23795934978358 1153.4897707158109 
	-65.026611656635993 -229.09976739406724 1153.5019502938512 
	-65.175137348909999 -228.99619582412078 1153.5104988421297 
	-65.408001261007286 -228.75978794909187 1153.5264873073199 
	-65.507889501866089 -228.61125923918559 1153.5349138003803 
	-65.639751772713396 -228.28824738629845 1153.5468008955961 
	-65.671986883277299 -228.1136908229754 1153.5500579241252 
	-65.671953576078195 -227.95003598038065 1153.5500522607474 
	0 
	null_surface 
	null_surface 
	nullbs 
	nullbs 
	I I 
	0 
	11 0.199173119482317 0.29875953494009699 0.34855288695236503 0.398346238964634 0.44813959097690198 0.69710577390473105 0.74689912591699903 0.79669247792926701 0.84648582994153498 0.89627918195380396 0.94607238968269403 
	6 0.24896632721120701 0.47926036384288001 0.51038113670885898 0.54150190957483801 0.57262268244081604 0.63486422817277399 
	F 1 F 0 } I I #
pcurve $-1 -1 $-1 -1 $66 0 0 #
color-adesk-attrib $-1 -1 $91 $-1 $40 7 #
intcurve-curve $-1 -1 $-1 forward { parcur summary 18 -0.99586559741158398 -0.94607238968269403 -0.89627918195380396 -0.84648582994153498 -0.79669247792926701 -0.74689912591699903 -0.69710577390473105 -0.63486422817277399 -0.57262268244081604 -0.54150190957483801 -0.51038113670885898 -0.47926036384288001 -0.44813959097690198 -0.398346238964634 -0.34855288695236503 -0.29875953494009699 -0.24896632721120701 -0.199173119482317 0.00012965863568120011 PERIODIC 
	cone -82.100787579344995 -227.94999403108653 1140 1 -6.5499783219598917e-16 6.123233995736766e-17 9.0062201926948512e-15 13.75 -7.6327832942979315e-16 1 I I 0 1 13.75 forward I I I I 
	null_surface 
	nubs 3 periodic 18 
	-0.99586559741158398 3 -0.94607238968269403 2 -0.89627918195380396 2 -0.84648582994153498 2 -0.79669247792926701 2 
	-0.74689912591699903 2 -0.69710577390473105 2 -0.63486422817277399 2 -0.57262268244081604 2 -0.54150190957483801 2 
	-0.51038113670885898 2 -0.47926036384288001 2 -0.44813959097690198 2 -0.398346238964634 2 -0.34855288695236503 2 
	-0.29875953494009699 2 -0.24896632721120701 2 -0.199173119482317 3 
	1.1802719139888944 1.5708016168755508 
	1.1802690555761524 1.5847082415698264 
	1.1830569688231274 1.5995373004141231 
	1.1943536501680507 1.6268207514292636 
	1.2028639819133382 1.6392748223626714 
	1.2224998692037892 1.6589648019709637 
	1.2349308444356291 1.6675144141727978 
	1.2622007173188441 1.6788721775660524 
	1.2770302712740147 1.6816813052642956 
	1.3048609589922986 1.6816997443313382 
	1.3196911197354693 1.6789194855087637 
	1.3469630202548073 1.6676043208991917 
	1.3593947263762838 1.6590627029451113 
	1.3814934697689014 1.6370310241461086 
	1.3914984040838578 1.6202326961565705 
	1.4022319735122322 1.5853027520442651 
	1.4029606086256479 1.5671681786978815 
	1.3976196681843016 1.5404247190980385 
	1.3947670391852747 1.5315864592524495 
	1.386891378759542 1.5149642009246342 
	1.3818683473328366 1.5071800412823992 
	1.3705486594359833 1.4933676939036311 
	1.3642520029658349 1.4873395701152425 
	1.3498404249473375 1.4766028193488114 
	1.341725503398989 1.4718942765960672 
	1.3196012965697383 1.4626788615938213 
	1.3047727926968726 1.4598945854768377 
	1.276957970881637 1.4599152655077614 
	1.2621374992893528 1.4627216618345866 
	1.2348810067481963 1.4740806887620446 
	1.2224527419899491 1.4826212671495125 
	1.2028456013467421 1.5023325576388435 
	1.1943710185526544 1.5147988252937827 
	1.1830856040801052 1.5420793777131456 
	1.1802747724016436 1.5568949921812751 
	1.1802719139888944 1.5708016168755508 
	
	nullbs 
	I I 
	0 
	17 -0.99586559741158398 -0.94607238968269403 -0.89627918195380396 -0.84648582994153498 -0.79669247792926701 -0.74689912591699903 -0.69710577390473105 -0.63486422817277399 -0.57262268244081604 -0.54150190957483801 -0.51038113670885898 -0.47926036384288001 -0.44813959097690198 -0.398346238964634 -0.34855288695236503 -0.29875953494009699 -0.24896632721120701 
	0 
	surf1 } I I #
DXID-attrib $-1 -1 $-1 $43 $25 @18 ASM_EDGE_FROM_STEP @4 2880 #
point $-1 -1 $-1 -65.871938082162103 -227.94999384348708 1153.75 #
point $-1 -1 $-1 -65.671953566809037 -227.94999393670173 1153.5500522592185 #
DXID-attrib $-1 -1 $-1 $48 $29 @18 ASM_FACE_FROM_STEP @14 stp-1M-37-4812 #
color-adesk-attrib $-1 -1 $92 $-1 $49 7 #
face $93 -1 $-1 $94 $95 $3 $-1 $96 reversed single #
loop $-1 -1 $-1 $-1 $97 $49 #
cone-surface $-1 -1 $-1 -114.85078757934501 -227.9499940310865 1143.5 1 -6.5499783219598917e-16 6.123233995736766e-17 2.1287429546369648e-15 3.25 -1.8041124150158747e-16 1 I I 0 1 3.25 forward I I I I #
coedge $-1 -1 $-1 $98 $99 $100 $101 reversed $50 $-1 #
coedge $-1 -1 $-1 $102 $52 $103 $104 reversed $30 $-1 #
coedge $-1 -1 $-1 $52 $102 $98 $105 forward $30 $-1 #
coedge $-1 -1 $-1 $100 $106 $52 $79 forward $107 $-1 #
edge $108 -1 $-1 $109 -3.1415926535897931 $110 -1.7080354225002399e-16 $52 $111 forward @7 unknown #
coedge $-1 -1 $-1 $80 $80 $54 $81 reversed $112 $-1 #
edge $113 -1 $-1 $114 -1.5707963267948966 $114 4.7123889803846897 $54 $115 forward @7 unknown #
loop $-1 -1 $-1 $116 $55 $117 #
color-adesk-attrib $-1 -1 $118 $-1 $56 7 #
vertex $-1 -1 $-1 $56 $119 #
ellipse-curve $-1 -1 $-1 -54.850787579344995 -227.94999403108653 1140 1 -6.5499783219598917e-16 6.123233995736766e-17 -8.4194467441380483e-16 7.6327832942979374e-16 13.75 1 I I #
loop $-1 -1 $-1 $-1 $120 $87 #
face $121 -1 $-1 $122 $123 $3 $-1 $124 reversed single #
DXID-attrib $-1 -1 $-1 $59 $36 @18 ASM_EDGE_FROM_STEP @4 2883 #
point $-1 -1 $-1 -64.350787579344995 -229.27099403108653 1150.164519614817 #
DXID-attrib $-1 -1 $-1 $62 $37 @18 ASM_EDGE_FROM_STEP @4 2881 #
DXID-attrib $-1 -1 $-1 $65 $40 @18 ASM_EDGE_FROM_STEP @4 2882 #
DXID-attrib $-1 -1 $-1 $71 $49 @18 ASM_FACE_FROM_STEP @14 stp-1M-37-4813 #
color-adesk-attrib $-1 -1 $125 $-1 $72 7 #
face $126 -1 $-1 $127 $128 $3 $-1 $129 forward single #
loop $-1 -1 $-1 $-1 $130 $72 #
plane-surface $-1 -1 $-1 -114.85078757934501 -224.6999940310865 1136.5 6.5499783219598917e-16 1 2.3790493384824914e-17 -6.1232339957367673e-17 -2.3790493384824871e-17 1 forward_v I I I I #
coedge $-1 -1 $-1 $131 $132 $133 $134 reversed $73 $-1 #
coedge $-1 -1 $-1 $135 $75 $77 $105 reversed $50 $-1 #
coedge $-1 -1 $-1 $75 $135 $131 $136 forward $50 $-1 #
coedge $-1 -1 $-1 $133 $78 $75 $101 forward $107 $-1 #
edge $137 -1 $-1 $110 -0.52500000000000002 $138 0.17500000000000002 $75 $139 forward @7 unknown #
coedge $-1 -1 $-1 $77 $76 $140 $141 reversed $30 $-1 #
coedge $-1 -1 $-1 $130 $142 $76 $104 forward $95 $-1 #
edge $143 -1 $-1 $144 0 $109 0.55000000000000027 $76 $145 forward @7 unknown #
edge $146 -1 $-1 $147 0 $110 0.55000000000000027 $77 $148 forward @7 unknown #
coedge $-1 -1 $-1 $78 $133 $130 $149 forward $107 $-1 #
loop $-1 -1 $-1 $-1 $133 $122 #
color-adesk-attrib $-1 -1 $150 $-1 $79 7 #
vertex $-1 -1 $-1 $79 $151 #
vertex $-1 -1 $-1 $79 $152 #
ellipse-curve $-1 -1 $-1 -109.35078757934501 -227.9499940310865 1136.5 -1 6.5499783219598917e-16 -6.123233995736766e-17 -2.1287429546369648e-15 -3.25 7.3552275381416562e-16 1 F -3.1415926535897931 F -1.7080354225002399e-16 #
loop $-1 -1 $-1 $-1 $80 $153 #
color-adesk-attrib $-1 -1 $154 $-1 $81 7 #
vertex $-1 -1 $-1 $81 $155 #
ellipse-curve $-1 -1 $-1 -109.35078757934501 -227.9499940310865 1140 1 -6.5499783219598917e-16 6.123233995736766e-17 -8.4194467441380483e-16 7.6327832942979374e-16 13.75 1 I I #
loop $-1 -1 $-1 $-1 $156 $117 #
face $157 -1 $-1 $87 $82 $3 $-1 $158 forward single #
DXID-attrib $-1 -1 $-1 $83 $56 @18 ASM_EDGE_FROM_STEP @4 2884 #
point $-1 -1 $-1 -54.850787579344988 -214.19999403108653 1140 #
coedge $-1 -1 $-1 $120 $120 $159 $160 reversed $86 $-1 #
color-adesk-attrib $-1 -1 $161 $-1 $87 7 #
face $162 -1 $-1 $-1 $163 $3 $-1 $164 forward single #
loop $-1 -1 $-1 $58 $165 $87 #
cone-surface $-1 -1 $-1 -82.100787579344995 -227.94999403108653 1140 1 -6.5499783219598917e-16 6.123233995736766e-17 6.7137277800088904e-15 10.250000000000002 -5.6898930012039135e-16 1 I I 0 1 10.250000000000002 forward I I I I #
DXID-attrib $-1 -1 $-1 $93 $72 @18 ASM_FACE_FROM_STEP @14 stp-1M-37-4814 #
color-adesk-attrib $-1 -1 $166 $-1 $94 7 #
face $167 -1 $-1 $153 $168 $3 $-1 $169 forward single #
loop $-1 -1 $-1 $170 $171 $94 #
plane-surface $-1 -1 $-1 -114.850787579345 -212.1999940310865 1140 -1 6.5499783219598917e-16 -6.123233995736766e-17 -6.5499783219598917e-16 -1 5.5511151231257685e-17 forward_v I I I I #
coedge $-1 -1 $-1 $172 $103 $106 $149 reversed $95 $-1 #
coedge $-1 -1 $-1 $173 $97 $99 $136 reversed $73 $-1 #
coedge $-1 -1 $-1 $97 $173 $172 $174 forward $73 $-1 #
coedge $-1 -1 $-1 $106 $100 $97 $134 forward $107 $-1 #
edge $175 -1 $-1 $138 -3.1415926535897931 $176 0 $97 $177 forward @7 unknown #
coedge $-1 -1 $-1 $99 $98 $178 $179 reversed $50 $-1 #
edge $180 -1 $-1 $181 0 $138 0.55000000000000027 $99 $182 forward @7 unknown #
color-adesk-attrib $-1 -1 $183 $-1 $101 7 #
vertex $-1 -1 $-1 $101 $184 #
straight-curve $-1 -1 $-1 -109.35078757934501 -231.1999940310865 1141.75 -6.1232339957367623e-16 5.5511151231257728e-16 10 F -0.52500000000000002 F 0.17500000000000002 #
coedge $-1 -1 $-1 $185 $178 $102 $141 forward $170 $-1 #
edge $186 -1 $-1 $147 1.7080354225002399e-16 $144 3.1415926535897931 $102 $187 forward @7 unknown #
coedge $-1 -1 $-1 $103 $172 $185 $188 reversed $95 $-1 #
color-adesk-attrib $-1 -1 $189 $-1 $104 7 #
vertex $-1 -1 $-1 $104 $190 #
straight-curve $-1 -1 $-1 -114.85078757934501 -224.6999940310865 1136.5 10 -6.5499783219598921e-15 6.1232339957367663e-16 F 0 F 0.55000000000000027 #
color-adesk-attrib $-1 -1 $191 $-1 $105 7 #
vertex $-1 -1 $-1 $141 $192 #
straight-curve $-1 -1 $-1 -114.85078757934501 -231.1999940310865 1136.5 10 -6.5499783219598921e-15 6.1232339957367663e-16 F 0 F 0.55000000000000027 #
edge $193 -1 $-1 $176 -0.52500000000000002 $109 0.17500000000000002 $130 $194 forward @7 unknown #
DXID-attrib $-1 -1 $-1 $108 $79 @18 ASM_EDGE_FROM_STEP @4 2886 #
point $-1 -1 $-1 -109.35078757934501 -224.6999940310865 1136.5 #
point $-1 -1 $-1 -109.35078757934501 -231.1999940310865 1136.5 #
face $195 -1 $-1 $117 $196 $3 $-1 $197 forward single #
DXID-attrib $-1 -1 $-1 $113 $81 @18 ASM_EDGE_FROM_STEP @4 2885 #
point $-1 -1 $-1 -109.350787579345 -214.1999940310865 1140 #
coedge $-1 -1 $-1 $156 $156 $165 $198 reversed $116 $-1 #
color-adesk-attrib $-1 -1 $199 $-1 $117 7 #
plane-surface $-1 -1 $-1 -54.850787579344988 -217.69999403108653 1140 1 -6.5499783219598917e-16 6.123233995736766e-17 6.5499783219598917e-16 1 -5.5511151231257685e-17 forward_v I I I I #
coedge $-1 -1 $-1 $159 $159 $120 $160 forward $163 $-1 #
edge $200 -1 $-1 $201 -1.5707963267948966 $201 4.7123889803846897 $120 $202 forward @7 unknown #
DXID-attrib $-1 -1 $-1 $121 $87 @18 ASM_FACE_FROM_STEP @14 stp-1M-37-4819 #
color-adesk-attrib $-1 -1 $203 $-1 $122 7 #
loop $-1 -1 $-1 $107 $159 $122 #
plane-surface $-1 -1 $-1 -109.35078757934501 -227.9499940310865 1140 1 -6.5499783219598917e-16 6.123233995736766e-17 6.5499783219598917e-16 1 -5.5511151231257685e-17 forward_v I I I I #
coedge $-1 -1 $-1 $165 $165 $156 $198 forward $123 $-1 #
DXID-attrib $-1 -1 $-1 $126 $94 @18 ASM_FACE_FROM_STEP @14 stp-1M-37-4815 #
color-adesk-attrib $-1 -1 $204 $-1 $127 7 #
loop $-1 -1 $-1 $205 $206 $127 #
cone-surface $-1 -1 $-1 -112.10078757934501 -227.9499940310865 1140 1 -6.5499783219598917e-16 6.123233995736766e-17 1.031621585708683e-14 15.750000000000002 -8.7430063189230861e-16 1 I I 0 1 15.750000000000002 forward I I I I #
loop $-1 -1 $-1 $-1 $207 $94 #
coedge $-1 -1 $-1 $171 $171 $206 $208 reversed $128 $-1 #
coedge $-1 -1 $-1 $142 $130 $132 $174 reversed $95 $-1 #
coedge $-1 -1 $-1 $132 $131 $207 $209 reversed $73 $-1 #
edge $210 -1 $-1 $211 0 $176 0.55000000000000027 $132 $212 forward @7 unknown #
color-adesk-attrib $-1 -1 $213 $-1 $134 7 #
vertex $-1 -1 $-1 $134 $214 #
ellipse-curve $-1 -1 $-1 -109.35078757934501 -227.9499940310865 1143.5 -1 6.5499783219598917e-16 -6.123233995736766e-17 2.1287429546369648e-15 3.25 -1.8041124150158747e-16 1 F -3.1415926535897931 F 0 #
coedge $-1 -1 $-1 $140 $207 $135 $179 forward $170 $-1 #
edge $215 -1 $-1 $181 -0.17500000000000002 $147 0.52500000000000002 $135 $216 forward @7 unknown #
color-adesk-attrib $-1 -1 $217 $-1 $136 7 #
vertex $-1 -1 $-1 $179 $218 #
straight-curve $-1 -1 $-1 -114.85078757934501 -231.1999940310865 1143.5 10 -6.5499783219598921e-15 6.1232339957367663e-16 F 0 F 0.55000000000000027 #
DXID-attrib $-1 -1 $-1 $137 $101 @18 ASM_EDGE_FROM_STEP @4 2890 #
point $-1 -1 $-1 -109.35078757934501 -231.1999940310865 1143.5 #
coedge $-1 -1 $-1 $207 $140 $142 $188 forward $170 $-1 #
color-adesk-attrib $-1 -1 $219 $-1 $141 7 #
ellipse-curve $-1 -1 $-1 -114.85078757934501 -227.9499940310865 1136.5 1 -6.5499783219598917e-16 6.123233995736766e-17 -2.1287429546369648e-15 -3.25 7.3552275381416562e-16 1 F 1.7080354225002399e-16 F 3.1415926535897931 #
edge $220 -1 $-1 $144 -0.17500000000000002 $211 0.52500000000000002 $142 $221 forward @7 unknown #
DXID-attrib $-1 -1 $-1 $143 $104 @18 ASM_EDGE_FROM_STEP @4 2887 #
point $-1 -1 $-1 -114.85078757934501 -224.6999940310865 1136.5 #
DXID-attrib $-1 -1 $-1 $146 $105 @18 ASM_EDGE_FROM_STEP @4 2889 #
point $-1 -1 $-1 -114.85078757934501 -231.1999940310865 1136.5 #
color-adesk-attrib $-1 -1 $222 $-1 $149 7 #
straight-curve $-1 -1 $-1 -109.35078757934501 -224.6999940310865 1138.25 6.1232339957367673e-16 2.3790493384824886e-16 -10 F -0.52500000000000002 F 0.17500000000000002 #
color-adesk-attrib $-1 -1 $223 $-1 $153 7 #
loop $-1 -1 $-1 $112 $224 $153 #
plane-surface $-1 -1 $-1 -109.350787579345 -214.1999940310865 1140 1 -6.5499783219598917e-16 6.123233995736766e-17 6.5499783219598917e-16 1 -5.5511151231257685e-17 forward_v I I I I #
edge $225 -1 $-1 $226 -1.5707963267948966 $226 4.7123889803846897 $156 $227 forward @7 unknown #
DXID-attrib $-1 -1 $-1 $157 $117 @18 ASM_FACE_FROM_STEP @14 stp-1M-37-4818 #
color-adesk-attrib $-1 -1 $228 $-1 $160 7 #
vertex $-1 -1 $-1 $160 $229 #
ellipse-curve $-1 -1 $-1 -109.35078757934501 -227.9499940310865 1140 1 -6.5499783219598917e-16 6.123233995736766e-17 -6.2763148456301823e-16 5.6898930012039184e-16 10.250000000000002 1 I I #
DXID-attrib $-1 -1 $-1 $162 $122 @18 ASM_FACE_FROM_STEP @14 stp-1M-37-4820 #
DXID-attrib $-1 -1 $-1 $167 $127 @18 ASM_FACE_FROM_STEP @14 stp-1M-37-4816 #
loop $-1 -1 $-1 $-1 $230 $127 #
coedge $-1 -1 $-1 $206 $206 $171 $208 forward $168 $-1 #
coedge $-1 -1 $-1 $178 $185 $173 $209 forward $170 $-1 #
edge $231 -1 $-1 $232 -1.5707963267948966 $232 4.7123889803846897 $171 $233 forward @7 unknown #
edge $234 -1 $-1 $211 0 $181 3.1415926535897931 $173 $235 forward @7 unknown #
color-adesk-attrib $-1 -1 $236 $-1 $174 7 #
vertex $-1 -1 $-1 $209 $237 #
straight-curve $-1 -1 $-1 -114.85078757934501 -224.6999940310865 1143.5 10 -6.5499783219598921e-15 6.1232339957367663e-16 F 0 F 0.55000000000000027 #
DXID-attrib $-1 -1 $-1 $175 $134 @18 ASM_EDGE_FROM_STEP @4 2893 #
point $-1 -1 $-1 -109.35078757934501 -224.6999940310865 1143.5 #
color-adesk-attrib $-1 -1 $238 $-1 $179 7 #
straight-curve $-1 -1 $-1 -114.85078757934501 -231.1999940310865 1141.75 6.1232339957367623e-16 -5.5511151231257728e-16 -10 F -0.17500000000000002 F 0.52500000000000002 #
DXID-attrib $-1 -1 $-1 $180 $136 @18 ASM_EDGE_FROM_STEP @4 2892 #
point $-1 -1 $-1 -114.85078757934501 -231.1999940310865 1143.5 #
DXID-attrib $-1 -1 $-1 $186 $141 @18 ASM_EDGE_FROM_STEP @4 2888 #
color-adesk-attrib $-1 -1 $239 $-1 $188 7 #
straight-curve $-1 -1 $-1 -114.85078757934501 -224.6999940310865 1138.25 -6.1232339957367673e-16 -2.3790493384824886e-16 10 F -0.17500000000000002 F 0.52500000000000002 #
DXID-attrib $-1 -1 $-1 $193 $149 @18 ASM_EDGE_FROM_STEP @4 2896 #
DXID-attrib $-1 -1 $-1 $195 $153 @18 ASM_FACE_FROM_STEP @14 stp-1M-37-4817 #
coedge $-1 -1 $-1 $224 $224 $230 $240 forward $196 $-1 #
color-adesk-attrib $-1 -1 $241 $-1 $198 7 #
vertex $-1 -1 $-1 $198 $242 #
ellipse-curve $-1 -1 $-1 -54.850787579344995 -227.94999403108653 1140 1 -6.5499783219598917e-16 6.123233995736766e-17 -6.2763148456301823e-16 5.6898930012039184e-16 10.250000000000002 1 I I #
DXID-attrib $-1 -1 $-1 $200 $160 @18 ASM_EDGE_FROM_STEP @4 2901 #
point $-1 -1 $-1 -109.350787579345 -217.6999940310865 1140 #
coedge $-1 -1 $-1 $230 $230 $224 $240 reversed $205 $-1 #
color-adesk-attrib $-1 -1 $243 $-1 $208 7 #
vertex $-1 -1 $-1 $208 $244 #
ellipse-curve $-1 -1 $-1 -114.85078757934501 -227.9499940310865 1140 1 -6.5499783219598917e-16 6.123233995736766e-17 -9.6440935432854008e-16 8.743006318923093e-16 15.750000000000002 1 I I #
color-adesk-attrib $-1 -1 $245 $-1 $209 7 #
ellipse-curve $-1 -1 $-1 -114.85078757934501 -227.9499940310865 1143.5 1 -6.5499783219598917e-16 6.123233995736766e-17 2.1287429546369648e-15 3.25 -1.8041124150158747e-16 1 F 0 F 3.1415926535897931 #
DXID-attrib $-1 -1 $-1 $210 $174 @18 ASM_EDGE_FROM_STEP @4 2895 #
point $-1 -1 $-1 -114.85078757934501 -224.6999940310865 1143.5 #
DXID-attrib $-1 -1 $-1 $215 $179 @18 ASM_EDGE_FROM_STEP @4 2891 #
DXID-attrib $-1 -1 $-1 $220 $188 @18 ASM_EDGE_FROM_STEP @4 2897 #
edge $246 -1 $-1 $247 -1.5707963267948966 $247 4.7123889803846897 $230 $248 forward @7 unknown #
DXID-attrib $-1 -1 $-1 $225 $198 @18 ASM_EDGE_FROM_STEP @4 2900 #
point $-1 -1 $-1 -54.850787579344988 -217.69999403108653 1140 #
DXID-attrib $-1 -1 $-1 $231 $208 @18 ASM_EDGE_FROM_STEP @4 2898 #
point $-1 -1 $-1 -114.850787579345 -212.1999940310865 1140 #
DXID-attrib $-1 -1 $-1 $234 $209 @18 ASM_EDGE_FROM_STEP @4 2894 #
color-adesk-attrib $-1 -1 $249 $-1 $240 7 #
vertex $-1 -1 $-1 $240 $250 #
ellipse-curve $-1 -1 $-1 -109.35078757934501 -227.9499940310865 1140 1 -6.5499783219598917e-16 6.123233995736766e-17 -9.6440935432854008e-16 8.743006318923093e-16 15.750000000000002 1 I I #
DXID-attrib $-1 -1 $-1 $246 $240 @18 ASM_EDGE_FROM_STEP @4 2899 #
point $-1 -1 $-1 -109.350787579345 -212.1999940310865 1140 #
