700 644 1 0         
5 ZWCAD 12 ACIS 28.0 NT 24 Mon May 13 14:57:34 2024 
1 9.9999999999999995e-07 1e-10 
body $1 -1 $-1 $2 $-1 $-1 #
DXID-attrib $-1 -1 $-1 $-1 $0 @18 ASM_BODY_FROM_STEP @57 STP-2M-177-346|:|B8A4396250C5687B1D31E70758B30729E1AC4426 #
lump $-1 -1 $-1 $-1 $3 $0 #
shell $-1 -1 $-1 $-1 $-1 $4 $-1 $2 #
face $5 -1 $-1 $6 $7 $3 $-1 $8 reversed single #
fmesh-eye-attrib $-1 -1 $9 $-1 $4 #
face $10 -1 $-1 $11 $12 $3 $-1 $13 reversed single #
loop $-1 -1 $-1 $-1 $14 $4 #
plane-surface $-1 -1 $-1 -504.31799881767267 -70.036135495288875 53.000000000015461 5.5511151231257778e-17 -1 -6.123233995736766e-17 1 5.5511151231257784e-17 -1.1386781875257801e-16 forward_v I I I I #
truecolor-adesk-attrib $-1 -1 $15 $5 $4 -1027555136 #
fmesh-eye-attrib $-1 -1 $16 $-1 $6 #
face $17 -1 $-1 $18 $19 $3 $-1 $20 reversed single #
loop $-1 -1 $-1 $21 $22 $6 #
plane-surface $-1 -1 $-1 -504.31799881767267 -70.036135495288875 45.000000000015469 1.1386781875257799e-16 1.6479792061269933e-16 1 -5.5511151231257802e-17 1 -1.6479792061269931e-16 forward_v I I I I #
coedge $-1 -1 $-1 $23 $24 $25 $26 forward $7 $-1 #
color-adesk-attrib $-1 -1 $27 $9 $4 9 #
truecolor-adesk-attrib $-1 -1 $28 $10 $6 -1027555136 #
fmesh-eye-attrib $-1 -1 $29 $-1 $11 #
face $30 -1 $-1 $31 $32 $3 $-1 $33 reversed single #
loop $-1 -1 $-1 $-1 $34 $11 #
plane-surface $-1 -1 $-1 -504.31799881767267 -204.03613549528887 45.000000000015461 7.0982318088232091e-17 0.49896444486694591 0.86662245687416883 -1.0492320323603624e-16 0.86662245687416872 -0.49896444486694586 forward_v I I I I #
loop $-1 -1 $-1 $35 $36 $6 #
coedge $-1 -1 $-1 $37 $38 $39 $40 forward $12 $-1 #
coedge $-1 -1 $-1 $39 $14 $41 $42 forward $7 $-1 #
coedge $-1 -1 $-1 $14 $39 $43 $44 forward $7 $-1 #
coedge $-1 -1 $-1 $45 $46 $14 $26 reversed $47 $-1 #
edge $48 -1 $-1 $49 0 $50 79.999999999999943 $14 $51 forward @7 unknown #
DXID-attrib $-1 -1 $-1 $15 $4 @18 ASM_FACE_FROM_STEP @15 stp-2M-177-5503 #
color-adesk-attrib $-1 -1 $52 $16 $6 9 #
truecolor-adesk-attrib $-1 -1 $53 $17 $11 -1027555136 #
fmesh-eye-attrib $-1 -1 $54 $-1 $18 #
face $55 -1 $-1 $56 $57 $3 $-1 $58 reversed single #
loop $-1 -1 $-1 $59 $60 $18 #
plane-surface $-1 -1 $-1 -504.31799881767267 -270.03613549528887 83.000000000015461 -5.5511151231257778e-17 1 6.123233995736766e-17 -1 -5.5511151231257784e-17 1.1386781875257801e-16 forward_v I I I I #
coedge $-1 -1 $-1 $61 $62 $63 $64 forward $19 $-1 #
loop $-1 -1 $-1 $65 $66 $6 #
coedge $-1 -1 $-1 $36 $36 $67 $68 forward $21 $-1 #
coedge $-1 -1 $-1 $69 $22 $70 $71 forward $12 $-1 #
coedge $-1 -1 $-1 $22 $72 $73 $74 forward $12 $-1 #
coedge $-1 -1 $-1 $24 $23 $22 $40 reversed $7 $-1 #
edge $75 -1 $-1 $76 0 $77 79.999999999999943 $39 $78 forward @7 unknown #
coedge $-1 -1 $-1 $79 $70 $23 $42 reversed $80 $-1 #
edge $81 -1 $-1 $50 0 $77 8.0000000000000036 $23 $82 forward @7 unknown #
coedge $-1 -1 $-1 $73 $83 $24 $44 reversed $84 $-1 #
edge $85 -1 $-1 $76 3.3306690738750042e-16 $49 8.0000000000000036 $24 $86 forward @7 unknown #
coedge $-1 -1 $-1 $87 $25 $83 $88 forward $47 $-1 #
coedge $-1 -1 $-1 $25 $89 $79 $90 forward $47 $-1 #
loop $-1 -1 $-1 $91 $89 $92 #
truecolor-adesk-attrib $-1 -1 $93 $-1 $26 -1027555136 #
vertex $-1 -1 $-1 $26 $94 #
vertex $-1 -1 $-1 $26 $95 #
straight-curve $-1 -1 $-1 -499.31799881767267 -70.036135495288875 53.000000000015461 1 5.5511151231257784e-17 -1.1386781875257801e-16 F 0 F 79.999999999999943 #
DXID-attrib $-1 -1 $-1 $28 $6 @18 ASM_FACE_FROM_STEP @15 stp-2M-177-5512 #
color-adesk-attrib $-1 -1 $96 $29 $11 9 #
truecolor-adesk-attrib $-1 -1 $97 $30 $18 -1027555136 #
fmesh-eye-attrib $-1 -1 $98 $-1 $31 #
face $99 -1 $-1 $100 $101 $3 $-1 $102 reversed single #
loop $-1 -1 $-1 $-1 $103 $31 #
plane-surface $-1 -1 $-1 -504.31799881767267 -270.03613549528887 145.00000000001546 -1.1386781875257801e-16 6.1232339957367648e-17 -1 -1 -5.5511151231257784e-17 1.1386781875257801e-16 forward_v I I I I #
loop $-1 -1 $-1 $-1 $104 $18 #
coedge $-1 -1 $-1 $105 $106 $107 $108 reversed $32 $-1 #
coedge $-1 -1 $-1 $109 $34 $110 $111 reversed $19 $-1 #
coedge $-1 -1 $-1 $34 $109 $112 $113 forward $19 $-1 #
coedge $-1 -1 $-1 $114 $115 $34 $64 reversed $116 $-1 #
edge $117 -1 $-1 $118 6.4191334206419963e-15 $119 76.157731058639058 $34 $120 forward @7 unknown #
loop $-1 -1 $-1 $121 $122 $6 #
coedge $-1 -1 $-1 $66 $66 $123 $124 forward $35 $-1 #
coedge $-1 -1 $-1 $67 $67 $36 $68 reversed $125 $-1 #
edge $126 -1 $-1 $127 0 $127 6.2831853071795862 $36 $128 forward @7 unknown #
coedge $-1 -1 $-1 $112 $37 $114 $129 forward $12 $-1 #
coedge $-1 -1 $-1 $41 $130 $37 $71 reversed $80 $-1 #
edge $131 -1 $-1 $77 -1.4130832128153945e-14 $132 7.0710678118655004 $37 $133 forward @7 unknown #
coedge $-1 -1 $-1 $38 $112 $134 $135 reversed $12 $-1 #
coedge $-1 -1 $-1 $136 $43 $38 $74 reversed $84 $-1 #
edge $137 -1 $-1 $138 2.2180525472211623e-30 $76 7.0710678118654693 $38 $139 forward @7 unknown #
truecolor-adesk-attrib $-1 -1 $140 $-1 $40 -1027555136 #
vertex $-1 -1 $-1 $40 $141 #
vertex $-1 -1 $-1 $42 $142 #
straight-curve $-1 -1 $-1 -499.31799881767267 -70.036135495288875 45.000000000015469 1 5.5511151231257784e-17 -1.1386781875257801e-16 F 0 F 79.999999999999943 #
coedge $-1 -1 $-1 $130 $41 $46 $90 reversed $80 $-1 #
loop $-1 -1 $-1 $-1 $79 $143 #
truecolor-adesk-attrib $-1 -1 $144 $-1 $42 -1027555136 #
straight-curve $-1 -1 $-1 -419.31799881767267 -70.036135495288875 53.000000000015447 -1.1386781875257801e-16 6.1232339957367648e-17 -1 F 0 F 8.0000000000000036 #
coedge $-1 -1 $-1 $43 $136 $45 $88 reversed $84 $-1 #
loop $-1 -1 $-1 $-1 $83 $145 #
truecolor-adesk-attrib $-1 -1 $146 $-1 $44 -1027555136 #
straight-curve $-1 -1 $-1 -499.31799881767267 -70.036135495288875 45.000000000015454 1.1386781875257801e-16 -6.1232339957367648e-17 1 F 3.3306690738750042e-16 F 8.0000000000000036 #
coedge $-1 -1 $-1 $147 $45 $148 $149 reversed $47 $-1 #
edge $150 -1 $-1 $49 0 $151 7.0710678118654693 $45 $152 forward @7 unknown #
coedge $-1 -1 $-1 $46 $147 $153 $154 forward $47 $-1 #
edge $155 -1 $-1 $156 -3.778034978708131e-16 $50 7.0710678118655172 $46 $157 forward @7 unknown #
loop $-1 -1 $-1 $158 $159 $92 #
face $160 -1 $-1 $161 $47 $3 $-1 $162 reversed single #
color-adesk-attrib $-1 -1 $163 $48 $26 9 #
point $-1 -1 $-1 -499.31799881767267 -70.036135495288875 53.000000000015461 #
point $-1 -1 $-1 -419.31799881767273 -70.036135495288875 53.000000000015447 #
DXID-attrib $-1 -1 $-1 $53 $11 @18 ASM_FACE_FROM_STEP @15 stp-2M-177-5521 #
color-adesk-attrib $-1 -1 $164 $54 $18 9 #
truecolor-adesk-attrib $-1 -1 $165 $55 $31 -1027555136 #
fmesh-eye-attrib $-1 -1 $166 $-1 $56 #
face $167 -1 $-1 $92 $168 $3 $-1 $169 reversed single #
loop $-1 -1 $-1 $170 $171 $56 #
plane-surface $-1 -1 $-1 -504.31799881767267 -262.03613549528887 145.00000000001546 5.551115123125779e-17 -1 5.9707365755511349e-17 1.1386781875257801e-16 5.9707365755511361e-17 1 forward_v I I I I #
coedge $-1 -1 $-1 $172 $173 $174 $175 reversed $57 $-1 #
coedge $-1 -1 $-1 $176 $177 $178 $179 forward $59 $-1 #
coedge $-1 -1 $-1 $180 $60 $181 $182 forward $32 $-1 #
coedge $-1 -1 $-1 $60 $183 $184 $185 forward $32 $-1 #
coedge $-1 -1 $-1 $173 $172 $60 $108 forward $57 $-1 #
edge $186 -1 $-1 $187 0 $188 79.999999999999943 $60 $189 forward @7 unknown #
coedge $-1 -1 $-1 $62 $61 $190 $191 reversed $19 $-1 #
coedge $-1 -1 $-1 $183 $180 $61 $111 forward $32 $-1 #
edge $192 -1 $-1 $193 0 $119 90 $61 $194 forward @7 unknown #
coedge $-1 -1 $-1 $72 $69 $62 $113 reversed $12 $-1 #
edge $195 -1 $-1 $196 0 $118 90 $112 $197 forward @7 unknown #
coedge $-1 -1 $-1 $198 $63 $69 $129 reversed $116 $-1 #
coedge $-1 -1 $-1 $63 $199 $183 $200 reversed $116 $-1 #
loop $-1 -1 $-1 $-1 $201 $202 #
truecolor-adesk-attrib $-1 -1 $203 $-1 $64 -1027555136 #
vertex $-1 -1 $-1 $129 $204 #
vertex $-1 -1 $-1 $64 $205 #
straight-curve $-1 -1 $-1 -414.31799881767267 -204.03613549528887 45.000000000015454 1.0492320323603637e-16 -0.8666224568741695 0.49896444486694636 F 6.4191334206419963e-15 F 76.157731058639058 #
loop $-1 -1 $-1 $-1 $206 $6 #
coedge $-1 -1 $-1 $122 $122 $207 $208 forward $65 $-1 #
coedge $-1 -1 $-1 $123 $123 $66 $124 reversed $209 $-1 #
edge $210 -1 $-1 $211 0 $211 6.2831853071795862 $66 $212 forward @7 unknown #
loop $-1 -1 $-1 $-1 $67 $213 #
truecolor-adesk-attrib $-1 -1 $214 $-1 $68 -1027555136 #
vertex $-1 -1 $-1 $68 $215 #
ellipse-curve $-1 -1 $-1 -481.81799881767267 -85.036135495288875 45.000000000015469 1.1386781875257799e-16 1.6479792061269933e-16 1 4.0999999999999908 2.2759572004815638e-16 -4.6685805688556878e-16 1 I I #
edge $216 -1 $-1 $132 -3.1367999943363966e-30 $118 128.99999999999997 $69 $217 forward @7 unknown #
coedge $-1 -1 $-1 $70 $79 $198 $218 reversed $80 $-1 #
truecolor-adesk-attrib $-1 -1 $219 $-1 $71 -1027555136 #
vertex $-1 -1 $-1 $71 $220 #
straight-curve $-1 -1 $-1 -419.31799881767273 -70.036135495288875 45.000000000015461 0.70710678118654502 -0.70710678118654902 3.6013020391813915e-17 F -1.4130832128153945e-14 F 7.0710678118655004 #
coedge $-1 -1 $-1 $190 $221 $72 $135 forward $222 $-1 #
edge $223 -1 $-1 $138 0 $196 128.99999999999997 $72 $224 forward @7 unknown #
coedge $-1 -1 $-1 $83 $73 $221 $225 reversed $84 $-1 #
truecolor-adesk-attrib $-1 -1 $226 $-1 $74 -1027555136 #
vertex $-1 -1 $-1 $135 $227 #
straight-curve $-1 -1 $-1 -504.31799881767267 -75.036135495288875 45.000000000015469 0.70710678118655401 0.70710678118654213 -1.9704643398955006e-16 F 2.2180525472211623e-30 F 7.0710678118654693 #
color-adesk-attrib $-1 -1 $228 $75 $40 9 #
point $-1 -1 $-1 -499.31799881767267 -70.036135495288875 45.000000000015454 #
point $-1 -1 $-1 -419.31799881767273 -70.036135495288875 45.000000000015447 #
face $229 -1 $-1 $145 $80 $3 $-1 $230 reversed single #
color-adesk-attrib $-1 -1 $231 $81 $42 9 #
face $232 -1 $-1 $233 $84 $3 $-1 $234 forward single #
color-adesk-attrib $-1 -1 $235 $85 $44 9 #
coedge $-1 -1 $-1 $89 $87 $236 $237 forward $47 $-1 #
coedge $-1 -1 $-1 $221 $238 $87 $149 forward $222 $-1 #
edge $239 -1 $-1 $240 0 $151 126.86153030344438 $87 $241 forward @7 unknown #
truecolor-adesk-attrib $-1 -1 $242 $-1 $88 -1027555136 #
vertex $-1 -1 $-1 $88 $243 #
straight-curve $-1 -1 $-1 -499.31799881767267 -70.036135495288875 53.000000000015461 -0.70710678118654902 -0.70710678118654713 1.6282630068179616e-16 F 0 F 7.0710678118654693 #
coedge $-1 -1 $-1 $244 $198 $89 $154 reversed $116 $-1 #
edge $245 -1 $-1 $246 0 $156 126.86153030344438 $89 $247 forward @7 unknown #
truecolor-adesk-attrib $-1 -1 $248 $-1 $90 -1027555136 #
vertex $-1 -1 $-1 $154 $249 #
straight-curve $-1 -1 $-1 -414.31799881767267 -75.036135495288875 53.000000000015447 -0.70710678118654502 0.70710678118655101 -1.7928870840567911e-18 F -3.778034978708131e-16 F 7.0710678118655172 #
loop $-1 -1 $-1 $250 $251 $92 #
coedge $-1 -1 $-1 $159 $159 $252 $253 reversed $91 $-1 #
fmesh-eye-attrib $-1 -1 $254 $-1 $92 #
face $255 -1 $-1 $202 $222 $3 $-1 $256 forward single #
plane-surface $-1 -1 $-1 -504.31799881767267 -201.89766579873327 53.000000000015461 -1.1386781875257801e-16 -4.4012819687590346e-17 -1 5.551115123125779e-17 -1 4.4012819687590346e-17 forward_v I I I I #
DXID-attrib $-1 -1 $-1 $93 $26 @18 ASM_EDGE_FROM_STEP @5 32529 #
DXID-attrib $-1 -1 $-1 $97 $18 @18 ASM_FACE_FROM_STEP @15 stp-2M-177-5530 #
color-adesk-attrib $-1 -1 $257 $98 $31 9 #
truecolor-adesk-attrib $-1 -1 $258 $99 $56 -1027555136 #
fmesh-eye-attrib $-1 -1 $259 $-1 $100 #
loop $-1 -1 $-1 $-1 $260 $100 #
plane-surface $-1 -1 $-1 -504.31799881767267 -262.03613549528887 87.625179522274749 -7.0982318088232091e-17 -0.49896444486694591 -0.86662245687416883 1.0492320323603624e-16 -0.86662245687416872 0.49896444486694586 forward_v I I I I #
loop $-1 -1 $-1 $-1 $261 $56 #
coedge $-1 -1 $-1 $262 $263 $264 $265 reversed $101 $-1 #
coedge $-1 -1 $-1 $107 $103 $266 $267 forward $57 $-1 #
coedge $-1 -1 $-1 $103 $107 $268 $269 forward $57 $-1 #
coedge $-1 -1 $-1 $270 $262 $103 $175 forward $101 $-1 #
edge $271 -1 $-1 $272 0 $273 79.999999999999943 $103 $274 forward @7 unknown #
coedge $-1 -1 $-1 $275 $104 $276 $277 forward $59 $-1 #
coedge $-1 -1 $-1 $104 $275 $278 $279 forward $59 $-1 #
coedge $-1 -1 $-1 $280 $281 $104 $179 reversed $282 $-1 #
edge $283 -1 $-1 $284 0 $285 5 $104 $286 forward @7 unknown #
coedge $-1 -1 $-1 $110 $105 $287 $288 reversed $32 $-1 #
coedge $-1 -1 $-1 $266 $289 $105 $182 reversed $290 $-1 #
edge $291 -1 $-1 $187 0 $292 7.0710678118654773 $105 $293 forward @7 unknown #
coedge $-1 -1 $-1 $106 $110 $115 $200 forward $32 $-1 #
coedge $-1 -1 $-1 $294 $268 $106 $185 reversed $295 $-1 #
edge $296 -1 $-1 $297 -5.7968304228498566e-14 $188 7.0710678118655217 $106 $298 forward @7 unknown #
truecolor-adesk-attrib $-1 -1 $299 $-1 $108 -1027555136 #
vertex $-1 -1 $-1 $108 $300 #
vertex $-1 -1 $-1 $108 $301 #
straight-curve $-1 -1 $-1 -499.31799881767267 -270.03613549528887 145.00000000001546 1 5.5511151231257784e-17 -1.1386781875257801e-16 F 0 F 79.999999999999943 #
coedge $-1 -1 $-1 $287 $134 $109 $191 forward $222 $-1 #
edge $302 -1 $-1 $196 0 $193 76.157731058639058 $109 $303 forward @7 unknown #
truecolor-adesk-attrib $-1 -1 $304 $-1 $111 -1027555136 #
vertex $-1 -1 $-1 $111 $305 #
straight-curve $-1 -1 $-1 -504.31799881767267 -270.03613549528887 83.000000000015461 1 5.5511151231257784e-17 -1.1386781875257801e-16 F 0 F 90 #
truecolor-adesk-attrib $-1 -1 $306 $-1 $113 -1027555136 #
vertex $-1 -1 $-1 $113 $307 #
straight-curve $-1 -1 $-1 -504.31799881767267 -204.03613549528887 45.000000000015469 1 5.5511151231257784e-17 -1.1386781875257801e-16 F 0 F 90 #
coedge $-1 -1 $-1 $153 $114 $130 $218 forward $116 $-1 #
coedge $-1 -1 $-1 $115 $201 $294 $308 forward $116 $-1 #
edge $309 -1 $-1 $119 0 $297 56.999999999999901 $183 $310 forward @7 unknown #
coedge $-1 -1 $-1 $199 $244 $311 $312 reversed $116 $-1 #
face $313 -1 $-1 $314 $116 $3 $-1 $315 reversed single #
color-adesk-attrib $-1 -1 $316 $117 $64 9 #
point $-1 -1 $-1 -414.31799881767267 -204.03613549528887 45.000000000015469 #
point $-1 -1 $-1 -414.31799881767267 -270.03613549528887 83.000000000015447 #
coedge $-1 -1 $-1 $206 $206 $317 $318 forward $121 $-1 #
coedge $-1 -1 $-1 $207 $207 $122 $208 reversed $319 $-1 #
edge $320 -1 $-1 $321 0 $321 6.2831853071795862 $122 $322 forward @7 unknown #
loop $-1 -1 $-1 $-1 $123 $323 #
truecolor-adesk-attrib $-1 -1 $324 $-1 $124 -1027555136 #
vertex $-1 -1 $-1 $124 $325 #
ellipse-curve $-1 -1 $-1 -436.81799881767267 -85.036135495288875 45.000000000015461 1.1386781875257799e-16 1.6479792061269933e-16 1 4.0999999999999908 2.2759572004815638e-16 -4.6685805688556878e-16 1 I I #
face $326 -1 $-1 $327 $328 $3 $-1 $329 reversed single #
color-adesk-attrib $-1 -1 $330 $126 $68 9 #
point $-1 -1 $-1 -477.71799881767271 -85.036135495288875 45.000000000015433 #
truecolor-adesk-attrib $-1 -1 $331 $-1 $129 -1027555136 #
straight-curve $-1 -1 $-1 -414.31799881767267 -75.036135495288875 45.000000000015461 5.5511151231257802e-17 -1 1.6479792061269931e-16 F -3.1367999943363966e-30 F 128.99999999999997 #
edge $332 -1 $-1 $132 0 $156 8.0000000000000018 $198 $333 forward @7 unknown #
color-adesk-attrib $-1 -1 $334 $131 $71 9 #
point $-1 -1 $-1 -414.31799881767267 -75.036135495288875 45.000000000015447 #
coedge $-1 -1 $-1 $134 $148 $136 $225 forward $222 $-1 #
loop $-1 -1 $-1 $-1 $287 $161 #
truecolor-adesk-attrib $-1 -1 $335 $-1 $135 -1027555136 #
straight-curve $-1 -1 $-1 -504.31799881767267 -75.036135495288875 45.000000000015454 5.5511151231257802e-17 -1 1.6479792061269931e-16 F 0 F 128.99999999999997 #
edge $336 -1 $-1 $151 0 $138 8.0000000000000018 $221 $337 forward @7 unknown #
color-adesk-attrib $-1 -1 $338 $137 $74 9 #
point $-1 -1 $-1 -504.31799881767267 -75.036135495288875 45.000000000015454 #
DXID-attrib $-1 -1 $-1 $140 $40 @18 ASM_EDGE_FROM_STEP @5 32531 #
fmesh-eye-attrib $-1 -1 $339 $-1 $143 #
plane-surface $-1 -1 $-1 -419.31799881767267 -70.036135495288875 53.000000000015447 -0.70710678118654957 -0.70710678118654557 3.7218903987094312e-17 -1.1386781875257801e-16 6.1232339957367648e-17 -1 forward_v I I I I #
DXID-attrib $-1 -1 $-1 $144 $42 @18 ASM_EDGE_FROM_STEP @5 32530 #
fmesh-eye-attrib $-1 -1 $340 $-1 $145 #
face $341 -1 $-1 $342 $343 $3 $-1 $344 reversed single #
plane-surface $-1 -1 $-1 -504.31799881767267 -75.036135495288875 45.000000000015469 -0.70710678118654402 0.70710678118655101 1.2381450961064312e-16 1.1386781875257801e-16 -6.1232339957367648e-17 1 forward_v I I I I #
DXID-attrib $-1 -1 $-1 $146 $44 @18 ASM_EDGE_FROM_STEP @5 32532 #
coedge $-1 -1 $-1 $345 $260 $147 $237 reversed $168 $-1 #
edge $346 -1 $-1 $240 0 $246 90 $236 $347 forward @7 unknown #
coedge $-1 -1 $-1 $148 $264 $345 $348 forward $222 $-1 #
truecolor-adesk-attrib $-1 -1 $349 $-1 $149 -1027555136 #
vertex $-1 -1 $-1 $237 $350 #
straight-curve $-1 -1 $-1 -504.31799881767267 -201.89766579873327 53.000000000015461 -5.551115123125779e-17 1 -4.3785124861438352e-17 F 0 F 126.86153030344438 #
color-adesk-attrib $-1 -1 $351 $150 $88 9 #
point $-1 -1 $-1 -504.31799881767267 -75.036135495288875 53.000000000015461 #
coedge $-1 -1 $-1 $201 $153 $260 $352 reversed $116 $-1 #
truecolor-adesk-attrib $-1 -1 $353 $-1 $154 -1027555136 #
vertex $-1 -1 $-1 $352 $354 #
straight-curve $-1 -1 $-1 -414.31799881767267 -201.89766579873327 53.000000000015447 -5.551115123125779e-17 1 -4.3785124861438352e-17 F 0 F 126.86153030344438 #
color-adesk-attrib $-1 -1 $355 $155 $90 9 #
point $-1 -1 $-1 -414.31799881767267 -75.036135495288875 53.000000000015447 #
loop $-1 -1 $-1 $356 $357 $92 #
coedge $-1 -1 $-1 $251 $251 $358 $359 reversed $158 $-1 #
coedge $-1 -1 $-1 $252 $252 $159 $253 forward $328 $-1 #
edge $360 -1 $-1 $361 0 $361 6.2831853071795862 $159 $362 forward @7 unknown #
truecolor-adesk-attrib $-1 -1 $363 $160 $92 -1027555136 #
fmesh-eye-attrib $-1 -1 $364 $-1 $161 #
plane-surface $-1 -1 $-1 -504.31799881767267 -270.03613549528887 45.000000000015454 -1 -5.5511151231257784e-17 1.1386781875257801e-16 1.1386781875257801e-16 -6.1232339957367648e-17 1 forward_v I I I I #
DXID-attrib $-1 -1 $-1 $165 $31 @18 ASM_FACE_FROM_STEP @15 stp-2M-177-5539 #
color-adesk-attrib $-1 -1 $365 $166 $56 9 #
truecolor-adesk-attrib $-1 -1 $366 $167 $100 -1027555136 #
coedge $-1 -1 $-1 $236 $367 $244 $352 forward $168 $-1 #
coedge $-1 -1 $-1 $368 $369 $370 $371 reversed $170 $-1 #
coedge $-1 -1 $-1 $174 $171 $372 $373 forward $101 $-1 #
coedge $-1 -1 $-1 $171 $311 $367 $374 reversed $101 $-1 #
coedge $-1 -1 $-1 $238 $375 $171 $265 forward $222 $-1 #
edge $376 -1 $-1 $377 0 $378 52.374820477740698 $171 $379 forward @7 unknown #
coedge $-1 -1 $-1 $372 $181 $172 $267 reversed $290 $-1 #
edge $380 -1 $-1 $272 0 $187 8 $172 $381 forward @7 unknown #
coedge $-1 -1 $-1 $184 $382 $173 $269 reversed $295 $-1 #
edge $383 -1 $-1 $188 0 $273 8 $173 $384 forward @7 unknown #
coedge $-1 -1 $-1 $311 $174 $382 $385 forward $101 $-1 #
truecolor-adesk-attrib $-1 -1 $386 $-1 $175 -1027555136 #
vertex $-1 -1 $-1 $175 $387 #
vertex $-1 -1 $-1 $175 $388 #
straight-curve $-1 -1 $-1 -499.31799881767267 -262.03613549528887 145.00000000001546 1 5.5511151231257784e-17 -1.1386781875257801e-16 F 0 F 79.999999999999943 #
coedge $-1 -1 $-1 $177 $176 $389 $390 forward $59 $-1 #
coedge $-1 -1 $-1 $391 $392 $176 $277 reversed $393 $-1 #
edge $394 -1 $-1 $285 0 $395 3.1415926535897931 $176 $396 forward @7 unknown #
coedge $-1 -1 $-1 $397 $398 $177 $279 reversed $399 $-1 #
edge $400 -1 $-1 $401 0 $284 3.1415926535897931 $177 $402 forward @7 unknown #
coedge $-1 -1 $-1 $403 $178 $398 $404 forward $282 $-1 #
coedge $-1 -1 $-1 $178 $403 $391 $405 reversed $282 $-1 #
loop $-1 -1 $-1 $-1 $403 $406 #
truecolor-adesk-attrib $-1 -1 $407 $-1 $179 -1027555136 #
vertex $-1 -1 $-1 $179 $408 #
vertex $-1 -1 $-1 $179 $409 #
straight-curve $-1 -1 $-1 -452.81799881767267 -270.03613549528887 130.00000000001546 -1.5349532902727781e-15 6.1232339957367574e-17 -1 F 0 F 5 #
coedge $-1 -1 $-1 $375 $190 $180 $288 forward $222 $-1 #
edge $410 -1 $-1 $193 0 $292 56.999999999999993 $180 $411 forward @7 unknown #
coedge $-1 -1 $-1 $181 $372 $375 $412 reversed $290 $-1 #
loop $-1 -1 $-1 $-1 $181 $314 #
truecolor-adesk-attrib $-1 -1 $413 $-1 $182 -1027555136 #
vertex $-1 -1 $-1 $182 $414 #
straight-curve $-1 -1 $-1 -499.31799881767267 -270.03613549528887 145.00000000001546 -0.70710678118655013 4.0454913446800201e-18 -0.70710678118654491 F 0 F 7.0710678118654773 #
coedge $-1 -1 $-1 $382 $184 $199 $308 reversed $295 $-1 #
loop $-1 -1 $-1 $-1 $184 $415 #
truecolor-adesk-attrib $-1 -1 $416 $-1 $185 -1027555136 #
vertex $-1 -1 $-1 $200 $417 #
straight-curve $-1 -1 $-1 -414.31799881767267 -270.03613549528887 140.00000000001546 -0.70710678118654491 -8.2550114278869013e-17 0.70710678118655013 F -5.7968304228498566e-14 F 7.0710678118655217 #
color-adesk-attrib $-1 -1 $418 $186 $108 9 #
point $-1 -1 $-1 -499.31799881767267 -270.03613549528887 145.00000000001546 #
point $-1 -1 $-1 -419.31799881767273 -270.03613549528887 145.00000000001546 #
truecolor-adesk-attrib $-1 -1 $419 $-1 $191 -1027555136 #
straight-curve $-1 -1 $-1 -504.31799881767267 -204.03613549528887 45.000000000015476 1.0492320323603637e-16 -0.8666224568741695 0.49896444486694636 F 0 F 76.157731058639058 #
color-adesk-attrib $-1 -1 $420 $192 $111 9 #
point $-1 -1 $-1 -504.31799881767267 -270.03613549528887 83.000000000015461 #
color-adesk-attrib $-1 -1 $421 $195 $113 9 #
point $-1 -1 $-1 -504.31799881767267 -204.03613549528887 45.000000000015476 #
edge $422 -1 $-1 $423 0 $297 8 $199 $424 forward @7 unknown #
truecolor-adesk-attrib $-1 -1 $425 $-1 $200 -1027555136 #
straight-curve $-1 -1 $-1 -414.31799881767267 -270.03613549528887 83.000000000015447 1.1386781875257801e-16 -6.1232339957367648e-17 1 F 0 F 56.999999999999901 #
coedge $-1 -1 $-1 $263 $270 $201 $312 forward $101 $-1 #
edge $426 -1 $-1 $423 0 $427 52.374820477740698 $311 $428 forward @7 unknown #
fmesh-eye-attrib $-1 -1 $429 $-1 $202 #
face $430 -1 $-1 $415 $290 $3 $-1 $431 forward single #
plane-surface $-1 -1 $-1 -414.31799881767267 -270.03613549528887 45.000000000015447 -1 -5.5511151231257784e-17 1.1386781875257801e-16 1.1386781875257801e-16 -6.1232339957367648e-17 1 forward_v I I I I #
DXID-attrib $-1 -1 $-1 $203 $64 @18 ASM_EDGE_FROM_STEP @5 32542 #
coedge $-1 -1 $-1 $317 $317 $206 $318 reversed $432 $-1 #
edge $433 -1 $-1 $434 0 $434 6.2831853071795862 $206 $435 forward @7 unknown #
loop $-1 -1 $-1 $-1 $207 $342 #
truecolor-adesk-attrib $-1 -1 $436 $-1 $208 -1027555136 #
vertex $-1 -1 $-1 $208 $437 #
ellipse-curve $-1 -1 $-1 -436.81799881767267 -130.03613549528887 45.000000000015469 1.1386781875257799e-16 1.6479792061269933e-16 1 4.0999999999999908 2.2759572004815638e-16 -4.6685805688556878e-16 1 I I #
face $438 -1 $-1 $213 $439 $3 $-1 $440 reversed single #
color-adesk-attrib $-1 -1 $441 $210 $124 9 #
point $-1 -1 $-1 -432.71799881767271 -85.036135495288875 45.000000000015426 #
fmesh-eye-attrib $-1 -1 $442 $-1 $213 #
face $443 -1 $-1 $406 $393 $3 $-1 $444 reversed single #
loop $-1 -1 $-1 $125 $252 $213 #
cone-surface $-1 -1 $-1 -481.81799881767267 -85.036135495288875 53.000000000015454 1.1386781875257801e-16 -6.1232339957367648e-17 1 4.0999999999999908 2.2759572004815638e-16 -4.6685805688556878e-16 1 I I 0 1 4.0999999999999908 forward I I I I #
DXID-attrib $-1 -1 $-1 $214 $68 @18 ASM_EDGE_FROM_STEP @5 32538 #
color-adesk-attrib $-1 -1 $445 $216 $129 9 #
truecolor-adesk-attrib $-1 -1 $446 $-1 $218 -1027555136 #
straight-curve $-1 -1 $-1 -414.31799881767267 -75.036135495288875 45.000000000015447 1.1386781875257801e-16 -6.1232339957367648e-17 1 F 0 F 8.0000000000000018 #
DXID-attrib $-1 -1 $-1 $219 $71 @18 ASM_EDGE_FROM_STEP @5 32533 #
color-adesk-attrib $-1 -1 $447 $223 $135 9 #
truecolor-adesk-attrib $-1 -1 $448 $-1 $225 -1027555136 #
straight-curve $-1 -1 $-1 -504.31799881767267 -75.036135495288875 53.000000000015461 -1.1386781875257801e-16 6.1232339957367648e-17 -1 F 0 F 8.0000000000000018 #
DXID-attrib $-1 -1 $-1 $226 $74 @18 ASM_EDGE_FROM_STEP @5 32537 #
truecolor-adesk-attrib $-1 -1 $449 $229 $143 -1027555136 #
truecolor-adesk-attrib $-1 -1 $450 $232 $145 -1027555136 #
fmesh-eye-attrib $-1 -1 $451 $-1 $233 #
face $452 -1 $-1 $323 $453 $3 $-1 $454 reversed single #
loop $-1 -1 $-1 $432 $455 $233 #
cone-surface $-1 -1 $-1 -481.81799881767267 -130.03613549528887 53.000000000015454 1.1386781875257801e-16 -6.1232339957367648e-17 1 4.0999999999999908 2.2759572004815638e-16 -4.6685805688556878e-16 1 I I 0 1 4.0999999999999908 forward I I I I #
coedge $-1 -1 $-1 $367 $236 $238 $348 reversed $168 $-1 #
truecolor-adesk-attrib $-1 -1 $456 $-1 $237 -1027555136 #
straight-curve $-1 -1 $-1 -504.31799881767267 -201.89766579873327 53.000000000015461 1 5.5511151231257784e-17 -1.1386781875257801e-16 F 0 F 90 #
edge $457 -1 $-1 $378 0 $240 69.394081839824196 $345 $458 forward @7 unknown #
color-adesk-attrib $-1 -1 $459 $239 $149 9 #
point $-1 -1 $-1 -504.31799881767267 -201.89766579873327 53.000000000015461 #
DXID-attrib $-1 -1 $-1 $242 $88 @18 ASM_EDGE_FROM_STEP @5 32571 #
edge $460 -1 $-1 $427 0 $246 69.394081839824196 $260 $461 forward @7 unknown #
color-adesk-attrib $-1 -1 $462 $245 $154 9 #
point $-1 -1 $-1 -414.31799881767267 -201.89766579873327 53.000000000015447 #
DXID-attrib $-1 -1 $-1 $248 $90 @18 ASM_EDGE_FROM_STEP @5 32570 #
loop $-1 -1 $-1 $-1 $463 $92 #
coedge $-1 -1 $-1 $357 $357 $464 $465 reversed $250 $-1 #
coedge $-1 -1 $-1 $358 $358 $251 $359 forward $439 $-1 #
edge $466 -1 $-1 $467 0 $467 6.2831853071795862 $251 $468 forward @7 unknown #
truecolor-adesk-attrib $-1 -1 $469 $-1 $253 -1027555136 #
vertex $-1 -1 $-1 $253 $470 #
ellipse-curve $-1 -1 $-1 -481.81799881767267 -85.036135495288875 53.000000000015454 1.1386781875257801e-16 4.4012819687590346e-17 1 4.0999999999999908 2.2759572004815638e-16 -4.6685805688556878e-16 1 I I #
color-adesk-attrib $-1 -1 $471 $254 $92 9 #
truecolor-adesk-attrib $-1 -1 $472 $255 $161 -1027555136 #
DXID-attrib $-1 -1 $-1 $258 $56 @18 ASM_FACE_FROM_STEP @15 stp-2M-177-5548 #
color-adesk-attrib $-1 -1 $473 $259 $100 9 #
coedge $-1 -1 $-1 $260 $345 $263 $374 forward $168 $-1 #
coedge $-1 -1 $-1 $474 $261 $475 $476 reversed $170 $-1 #
coedge $-1 -1 $-1 $261 $474 $477 $478 reversed $170 $-1 #
coedge $-1 -1 $-1 $479 $480 $261 $371 forward $481 $-1 #
edge $482 -1 $-1 $483 0 $484 5 $261 $485 forward @7 unknown #
coedge $-1 -1 $-1 $289 $266 $262 $373 reversed $290 $-1 #
edge $486 -1 $-1 $377 0 $272 7.0710678118654711 $262 $487 forward @7 unknown #
edge $488 -1 $-1 $378 0 $427 90 $263 $489 forward @7 unknown #
coedge $-1 -1 $-1 $264 $287 $289 $412 forward $222 $-1 #
truecolor-adesk-attrib $-1 -1 $490 $-1 $265 -1027555136 #
vertex $-1 -1 $-1 $265 $491 #
vertex $-1 -1 $-1 $265 $492 #
straight-curve $-1 -1 $-1 -504.31799881767267 -262.03613549528887 140.00000000001546 -1.1386781875257801e-16 -4.0516371915842352e-17 -1 F 0 F 52.374820477740698 #
truecolor-adesk-attrib $-1 -1 $493 $-1 $267 -1027555136 #
straight-curve $-1 -1 $-1 -499.31799881767267 -262.03613549528887 145.00000000001546 5.5511151231257778e-17 -1 -6.123233995736766e-17 F 0 F 8 #
coedge $-1 -1 $-1 $268 $294 $270 $385 reversed $295 $-1 #
truecolor-adesk-attrib $-1 -1 $494 $-1 $269 -1027555136 #
straight-curve $-1 -1 $-1 -419.31799881767267 -270.03613549528887 145.00000000001546 -5.5511151231257778e-17 1 6.123233995736766e-17 F 0 F 8 #
edge $495 -1 $-1 $273 -1.4130832128153943e-14 $423 7.0710678118655004 $270 $496 forward @7 unknown #
color-adesk-attrib $-1 -1 $497 $271 $175 9 #
point $-1 -1 $-1 -499.31799881767267 -262.03613549528887 145.00000000001546 #
point $-1 -1 $-1 -419.31799881767273 -262.03613549528887 145.00000000001546 #
coedge $-1 -1 $-1 $480 $479 $275 $390 reversed $481 $-1 #
edge $498 -1 $-1 $395 0 $401 5 $275 $499 forward @7 unknown #
coedge $-1 -1 $-1 $475 $276 $281 $405 forward $393 $-1 #
coedge $-1 -1 $-1 $276 $475 $480 $500 reversed $393 $-1 #
loop $-1 -1 $-1 $-1 $475 $327 #
truecolor-adesk-attrib $-1 -1 $501 $-1 $277 -1027555136 #
vertex $-1 -1 $-1 $277 $502 #
ellipse-curve $-1 -1 $-1 -459.31799881767267 -270.03613549528887 125.00000000001545 -5.5511151231257778e-17 1 6.123233995736766e-17 6.4999999999999902 3.6082248300317504e-16 -7.4014082189175598e-16 1 F 0 F 3.1415926535897931 #
coedge $-1 -1 $-1 $477 $278 $479 $503 forward $399 $-1 #
coedge $-1 -1 $-1 $278 $477 $280 $404 reversed $399 $-1 #
loop $-1 -1 $-1 $-1 $477 $504 #
truecolor-adesk-attrib $-1 -1 $505 $-1 $279 -1027555136 #
vertex $-1 -1 $-1 $390 $506 #
ellipse-curve $-1 -1 $-1 -459.31799881767267 -270.03613549528887 130.00000000001546 -5.5511151231257778e-17 1 6.123233995736766e-17 -6.4999999999999902 -3.6082248300317504e-16 7.4014082189175598e-16 1 F 0 F 3.1415926535897931 #
coedge $-1 -1 $-1 $281 $280 $474 $507 forward $282 $-1 #
edge $508 -1 $-1 $284 0 $509 8.0000000000000018 $280 $510 forward @7 unknown #
edge $511 -1 $-1 $285 0 $512 8.0000000000000018 $391 $513 forward @7 unknown #
face $514 -1 $-1 $504 $282 $3 $-1 $515 reversed single #
color-adesk-attrib $-1 -1 $516 $283 $179 9 #
point $-1 -1 $-1 -452.81799881767267 -270.03613549528887 130.00000000001546 #
point $-1 -1 $-1 -452.81799881767267 -270.03613549528887 125.00000000001545 #
truecolor-adesk-attrib $-1 -1 $517 $-1 $288 -1027555136 #
straight-curve $-1 -1 $-1 -504.31799881767267 -270.03613549528887 83.000000000015461 1.1386781875257801e-16 -6.1232339957367648e-17 1 F 0 F 56.999999999999993 #
edge $518 -1 $-1 $292 0 $377 8 $375 $519 forward @7 unknown #
color-adesk-attrib $-1 -1 $520 $291 $182 9 #
point $-1 -1 $-1 -504.31799881767267 -270.03613549528887 140.00000000001546 #
face $521 -1 $-1 $143 $295 $3 $-1 $522 reversed single #
color-adesk-attrib $-1 -1 $523 $296 $185 9 #
point $-1 -1 $-1 -414.31799881767267 -270.03613549528887 140.00000000001535 #
DXID-attrib $-1 -1 $-1 $299 $108 @18 ASM_EDGE_FROM_STEP @5 32545 #
color-adesk-attrib $-1 -1 $524 $302 $191 9 #
DXID-attrib $-1 -1 $-1 $304 $111 @18 ASM_EDGE_FROM_STEP @5 32543 #
DXID-attrib $-1 -1 $-1 $306 $113 @18 ASM_EDGE_FROM_STEP @5 32535 #
truecolor-adesk-attrib $-1 -1 $525 $-1 $308 -1027555136 #
vertex $-1 -1 $-1 $385 $526 #
straight-curve $-1 -1 $-1 -414.31799881767267 -262.03613549528887 140.00000000001546 5.5511151231257778e-17 -1 -6.123233995736766e-17 F 0 F 8 #
color-adesk-attrib $-1 -1 $527 $309 $200 9 #
truecolor-adesk-attrib $-1 -1 $528 $-1 $312 -1027555136 #
vertex $-1 -1 $-1 $312 $529 #
straight-curve $-1 -1 $-1 -414.31799881767267 -262.03613549528887 140.00000000001546 -1.1386781875257801e-16 -5.7474490561377362e-17 -1 F 0 F 52.374820477740698 #
truecolor-adesk-attrib $-1 -1 $530 $313 $202 -1027555136 #
fmesh-eye-attrib $-1 -1 $531 $-1 $314 #
plane-surface $-1 -1 $-1 -504.31799881767267 -270.03613549528887 140.00000000001546 -0.70710678118654546 -8.2550114278869025e-17 0.70710678118654968 5.5511151231257778e-17 -1 -6.123233995736766e-17 forward_v I I I I #
loop $-1 -1 $-1 $-1 $317 $233 #
truecolor-adesk-attrib $-1 -1 $532 $-1 $318 -1027555136 #
vertex $-1 -1 $-1 $318 $533 #
ellipse-curve $-1 -1 $-1 -481.81799881767267 -130.03613549528887 45.000000000015476 1.1386781875257799e-16 1.6479792061269933e-16 1 4.0999999999999908 2.2759572004815638e-16 -4.6685805688556878e-16 1 I I #
color-adesk-attrib $-1 -1 $534 $320 $208 9 #
point $-1 -1 $-1 -432.71799881767271 -130.03613549528887 45.000000000015433 #
fmesh-eye-attrib $-1 -1 $535 $-1 $323 #
loop $-1 -1 $-1 $209 $358 $323 #
cone-surface $-1 -1 $-1 -436.81799881767267 -85.036135495288875 53.000000000015447 1.1386781875257801e-16 -6.1232339957367648e-17 1 4.0999999999999908 2.2759572004815638e-16 -4.6685805688556878e-16 1 I I 0 1 4.0999999999999908 forward I I I I #
DXID-attrib $-1 -1 $-1 $324 $124 @18 ASM_EDGE_FROM_STEP @5 32539 #
truecolor-adesk-attrib $-1 -1 $536 $326 $213 -1027555136 #
fmesh-eye-attrib $-1 -1 $537 $-1 $327 #
cone-surface $-1 -1 $-1 -459.31799881767267 -270.03613549528887 125.00000000001545 -5.551115123125779e-17 1 -5.9707365755511349e-17 -7.4014082189175598e-16 -3.8809787741082324e-16 -6.4999999999999902 1 I I 0 1 6.4999999999999902 forward I I I I #
DXID-attrib $-1 -1 $-1 $331 $129 @18 ASM_EDGE_FROM_STEP @5 32534 #
color-adesk-attrib $-1 -1 $538 $332 $218 9 #
DXID-attrib $-1 -1 $-1 $335 $135 @18 ASM_EDGE_FROM_STEP @5 32536 #
color-adesk-attrib $-1 -1 $539 $336 $225 9 #
color-adesk-attrib $-1 -1 $540 $339 $143 9 #
color-adesk-attrib $-1 -1 $541 $340 $145 9 #
truecolor-adesk-attrib $-1 -1 $542 $341 $233 -1027555136 #
fmesh-eye-attrib $-1 -1 $543 $-1 $342 #
loop $-1 -1 $-1 $319 $464 $342 #
cone-surface $-1 -1 $-1 -436.81799881767267 -130.03613549528887 53.000000000015447 1.1386781875257801e-16 -6.1232339957367648e-17 1 4.0999999999999908 2.2759572004815638e-16 -4.6685805688556878e-16 1 I I 0 1 4.0999999999999908 forward I I I I #
coedge $-1 -1 $-1 $455 $455 $463 $544 forward $343 $-1 #
color-adesk-attrib $-1 -1 $545 $346 $237 9 #
truecolor-adesk-attrib $-1 -1 $546 $-1 $348 -1027555136 #
straight-curve $-1 -1 $-1 -504.31799881767267 -262.03613549528887 87.625179522274749 -1.0492320323603637e-16 0.8666224568741695 -0.49896444486694636 F 0 F 69.394081839824196 #
DXID-attrib $-1 -1 $-1 $349 $149 @18 ASM_EDGE_FROM_STEP @5 32572 #
truecolor-adesk-attrib $-1 -1 $547 $-1 $352 -1027555136 #
straight-curve $-1 -1 $-1 -414.31799881767262 -262.03613549528887 87.625179522274749 -1.0492320323603637e-16 0.8666224568741695 -0.49896444486694636 F 0 F 69.394081839824196 #
DXID-attrib $-1 -1 $-1 $353 $154 @18 ASM_EDGE_FROM_STEP @5 32569 #
coedge $-1 -1 $-1 $463 $463 $455 $544 reversed $356 $-1 #
coedge $-1 -1 $-1 $464 $464 $357 $465 forward $453 $-1 #
edge $548 -1 $-1 $549 0 $549 6.2831853071795862 $357 $550 forward @7 unknown #
truecolor-adesk-attrib $-1 -1 $551 $-1 $359 -1027555136 #
vertex $-1 -1 $-1 $359 $552 #
ellipse-curve $-1 -1 $-1 -436.81799881767267 -85.036135495288875 53.000000000015447 1.1386781875257801e-16 4.4012819687590346e-17 1 4.0999999999999908 2.2759572004815638e-16 -4.6685805688556878e-16 1 I I #
color-adesk-attrib $-1 -1 $553 $360 $253 9 #
point $-1 -1 $-1 -477.71799881767271 -85.036135495288875 53.000000000015454 #
DXID-attrib $-1 -1 $-1 $363 $92 @18 ASM_FACE_FROM_STEP @15 stp-2M-177-5566 #
color-adesk-attrib $-1 -1 $554 $364 $161 9 #
DXID-attrib $-1 -1 $-1 $366 $100 @18 ASM_FACE_FROM_STEP @15 stp-2M-177-5557 #
coedge $-1 -1 $-1 $369 $368 $403 $507 reversed $170 $-1 #
coedge $-1 -1 $-1 $392 $391 $368 $476 forward $393 $-1 #
edge $555 -1 $-1 $512 0 $483 3.1415926535897931 $368 $556 forward @7 unknown #
coedge $-1 -1 $-1 $398 $397 $369 $478 forward $399 $-1 #
edge $557 -1 $-1 $484 0 $509 3.1415926535897931 $369 $558 forward @7 unknown #
coedge $-1 -1 $-1 $389 $370 $397 $503 reversed $481 $-1 #
coedge $-1 -1 $-1 $370 $389 $392 $500 forward $481 $-1 #
loop $-1 -1 $-1 $-1 $370 $559 #
truecolor-adesk-attrib $-1 -1 $560 $-1 $371 -1027555136 #
vertex $-1 -1 $-1 $371 $561 #
vertex $-1 -1 $-1 $371 $562 #
straight-curve $-1 -1 $-1 -465.81799881767267 -262.03613549528887 125.00000000001545 1.1386781875257801e-16 -6.1232339957367648e-17 1 F 0 F 5 #
truecolor-adesk-attrib $-1 -1 $563 $-1 $373 -1027555136 #
straight-curve $-1 -1 $-1 -504.31799881767267 -262.03613549528887 140.00000000001546 0.70710678118655013 1.2156190535002192e-16 0.70710678118654591 F 0 F 7.0710678118654711 #
truecolor-adesk-attrib $-1 -1 $564 $-1 $374 -1027555136 #
straight-curve $-1 -1 $-1 -504.31799881767267 -262.03613549528887 87.625179522274749 1 7.5248449446816083e-17 -1.1386781875257801e-16 F 0 F 90 #
color-adesk-attrib $-1 -1 $565 $376 $265 9 #
point $-1 -1 $-1 -504.31799881767267 -262.03613549528887 140.00000000001546 #
point $-1 -1 $-1 -504.31799881767267 -262.03613549528887 87.625179522274749 #
color-adesk-attrib $-1 -1 $566 $380 $267 9 #
color-adesk-attrib $-1 -1 $567 $383 $269 9 #
truecolor-adesk-attrib $-1 -1 $568 $-1 $385 -1027555136 #
straight-curve $-1 -1 $-1 -419.31799881767267 -262.03613549528887 145.00000000001546 0.70710678118654491 -4.305728241583206e-17 -0.70710678118654913 F -1.4130832128153943e-14 F 7.0710678118655004 #
DXID-attrib $-1 -1 $-1 $386 $175 @18 ASM_EDGE_FROM_STEP @5 32554 #
truecolor-adesk-attrib $-1 -1 $569 $-1 $390 -1027555136 #
straight-curve $-1 -1 $-1 -465.81799881767267 -270.03613549528887 125.00000000001545 1.1386781875257801e-16 -6.1232339957367648e-17 1 F 0 F 5 #
edge $570 -1 $-1 $395 0 $483 8.0000000000000018 $392 $571 forward @7 unknown #
color-adesk-attrib $-1 -1 $572 $394 $277 9 #
point $-1 -1 $-1 -465.81799881767267 -270.03613549528887 125.00000000001545 #
edge $573 -1 $-1 $401 -1.97215226305253e-31 $484 8 $397 $574 forward @7 unknown #
face $575 -1 $-1 $559 $399 $3 $-1 $576 reversed single #
color-adesk-attrib $-1 -1 $577 $400 $279 9 #
point $-1 -1 $-1 -465.81799881767267 -270.03613549528887 130.00000000001546 #
edge $578 -1 $-1 $509 0 $512 5 $474 $579 forward @7 unknown #
truecolor-adesk-attrib $-1 -1 $580 $-1 $404 -1027555136 #
vertex $-1 -1 $-1 $507 $581 #
straight-curve $-1 -1 $-1 -452.81799881767267 -270.03613549528887 130.00000000001546 -5.5511151231257975e-17 1 -1.7151244994428825e-15 F 0 F 8.0000000000000018 #
truecolor-adesk-attrib $-1 -1 $582 $-1 $405 -1027555136 #
vertex $-1 -1 $-1 $476 $583 #
straight-curve $-1 -1 $-1 -452.81799881767267 -270.03613549528887 125.00000000001545 -5.5511151231257778e-17 1 6.123233995736766e-17 F 0 F 8.0000000000000018 #
fmesh-eye-attrib $-1 -1 $584 $-1 $406 #
plane-surface $-1 -1 $-1 -452.81799881767267 -270.03613549528887 125.00000000001545 1 5.5511151231257784e-17 -1.1386781875257801e-16 -1.1386781875257801e-16 6.1232339957367648e-17 -1 forward_v I I I I #
DXID-attrib $-1 -1 $-1 $407 $179 @18 ASM_EDGE_FROM_STEP @5 32550 #
color-adesk-attrib $-1 -1 $585 $410 $288 9 #
truecolor-adesk-attrib $-1 -1 $586 $-1 $412 -1027555136 #
straight-curve $-1 -1 $-1 -504.31799881767267 -270.03613549528887 140.00000000001546 -5.5511151231257778e-17 1 6.123233995736766e-17 F 0 F 8 #
DXID-attrib $-1 -1 $-1 $413 $182 @18 ASM_EDGE_FROM_STEP @5 32546 #
fmesh-eye-attrib $-1 -1 $587 $-1 $415 #
plane-surface $-1 -1 $-1 -419.31799881767267 -270.03613549528887 145.00000000001546 -0.70710678118654968 4.0454913446800756e-18 -0.70710678118654546 -5.5511151231257778e-17 1 6.123233995736766e-17 forward_v I I I I #
DXID-attrib $-1 -1 $-1 $416 $185 @18 ASM_EDGE_FROM_STEP @5 32549 #
DXID-attrib $-1 -1 $-1 $419 $191 @18 ASM_EDGE_FROM_STEP @5 32544 #
color-adesk-attrib $-1 -1 $588 $422 $308 9 #
point $-1 -1 $-1 -414.31799881767267 -262.03613549528887 140.00000000001546 #
DXID-attrib $-1 -1 $-1 $425 $200 @18 ASM_EDGE_FROM_STEP @5 32548 #
color-adesk-attrib $-1 -1 $589 $426 $312 9 #
point $-1 -1 $-1 -414.31799881767267 -262.03613549528887 87.625179522274749 #
color-adesk-attrib $-1 -1 $590 $429 $202 9 #
truecolor-adesk-attrib $-1 -1 $591 $430 $314 -1027555136 #
color-adesk-attrib $-1 -1 $592 $433 $318 9 #
point $-1 -1 $-1 -477.71799881767271 -130.03613549528887 45.000000000015433 #
DXID-attrib $-1 -1 $-1 $436 $208 @18 ASM_EDGE_FROM_STEP @5 32540 #
truecolor-adesk-attrib $-1 -1 $593 $438 $323 -1027555136 #
color-adesk-attrib $-1 -1 $594 $442 $213 9 #
truecolor-adesk-attrib $-1 -1 $595 $443 $327 -1027555136 #
DXID-attrib $-1 -1 $-1 $446 $218 @18 ASM_EDGE_FROM_STEP @5 32580 #
DXID-attrib $-1 -1 $-1 $448 $225 @18 ASM_EDGE_FROM_STEP @5 32578 #
DXID-attrib $-1 -1 $-1 $449 $143 @18 ASM_FACE_FROM_STEP @15 stp-2M-177-5611 #
DXID-attrib $-1 -1 $-1 $450 $145 @18 ASM_FACE_FROM_STEP @15 stp-2M-177-5620 #
color-adesk-attrib $-1 -1 $596 $451 $233 9 #
truecolor-adesk-attrib $-1 -1 $597 $452 $342 -1027555136 #
edge $598 -1 $-1 $599 0 $599 6.2831853071795862 $463 $600 forward @7 unknown #
DXID-attrib $-1 -1 $-1 $456 $237 @18 ASM_EDGE_FROM_STEP @5 32567 #
color-adesk-attrib $-1 -1 $601 $457 $348 9 #
color-adesk-attrib $-1 -1 $602 $460 $352 9 #
truecolor-adesk-attrib $-1 -1 $603 $-1 $465 -1027555136 #
vertex $-1 -1 $-1 $465 $604 #
ellipse-curve $-1 -1 $-1 -436.81799881767267 -130.03613549528887 53.000000000015447 1.1386781875257801e-16 4.4012819687590346e-17 1 4.0999999999999908 2.2759572004815638e-16 -4.6685805688556878e-16 1 I I #
color-adesk-attrib $-1 -1 $605 $466 $359 9 #
point $-1 -1 $-1 -432.71799881767271 -85.036135495288875 53.000000000015447 #
DXID-attrib $-1 -1 $-1 $469 $253 @18 ASM_EDGE_FROM_STEP @5 32573 #
DXID-attrib $-1 -1 $-1 $472 $161 @18 ASM_FACE_FROM_STEP @15 stp-2M-177-5575 #
truecolor-adesk-attrib $-1 -1 $606 $-1 $476 -1027555136 #
ellipse-curve $-1 -1 $-1 -459.31799881767267 -262.03613549528887 125.00000000001545 -5.551115123125779e-17 1 -5.9707365755511349e-17 6.4999999999999902 3.6082248300317504e-16 -7.4014082189175598e-16 1 F 0 F 3.1415926535897931 #
truecolor-adesk-attrib $-1 -1 $607 $-1 $478 -1027555136 #
ellipse-curve $-1 -1 $-1 -459.31799881767267 -262.03613549528887 130.00000000001546 -5.551115123125779e-17 1 -5.9707365755511349e-17 -6.4999999999999902 -3.6082248300317504e-16 7.4014082189175598e-16 1 F 0 F 3.1415926535897931 #
face $608 -1 $-1 $-1 $481 $3 $-1 $609 reversed single #
color-adesk-attrib $-1 -1 $610 $482 $371 9 #
point $-1 -1 $-1 -465.81799881767267 -262.03613549528887 125.00000000001545 #
point $-1 -1 $-1 -465.81799881767267 -262.03613549528887 130.00000000001546 #
color-adesk-attrib $-1 -1 $611 $486 $373 9 #
color-adesk-attrib $-1 -1 $612 $488 $374 9 #
DXID-attrib $-1 -1 $-1 $490 $265 @18 ASM_EDGE_FROM_STEP @5 32557 #
DXID-attrib $-1 -1 $-1 $493 $267 @18 ASM_EDGE_FROM_STEP @5 32555 #
DXID-attrib $-1 -1 $-1 $494 $269 @18 ASM_EDGE_FROM_STEP @5 32556 #
color-adesk-attrib $-1 -1 $613 $495 $385 9 #
color-adesk-attrib $-1 -1 $614 $498 $390 9 #
truecolor-adesk-attrib $-1 -1 $615 $-1 $500 -1027555136 #
straight-curve $-1 -1 $-1 -465.81799881767267 -270.03613549528887 125.00000000001545 -5.5511151231257778e-17 1 6.123233995736766e-17 F 0 F 8.0000000000000018 #
DXID-attrib $-1 -1 $-1 $501 $277 @18 ASM_EDGE_FROM_STEP @5 32551 #
truecolor-adesk-attrib $-1 -1 $616 $-1 $503 -1027555136 #
straight-curve $-1 -1 $-1 -465.81799881767267 -270.03613549528887 130.00000000001546 -5.5511151231257975e-17 1 -1.7151244994428825e-15 F -1.97215226305253e-31 F 8 #
fmesh-eye-attrib $-1 -1 $617 $-1 $504 #
cone-surface $-1 -1 $-1 -459.31799881767267 -270.03613549528887 130.00000000001546 -5.551115123125779e-17 1 -5.9707365755511349e-17 -7.4014082189175598e-16 -3.8809787741082324e-16 -6.4999999999999902 1 I I 0 1 6.4999999999999902 forward I I I I #
DXID-attrib $-1 -1 $-1 $505 $279 @18 ASM_EDGE_FROM_STEP @5 32553 #
truecolor-adesk-attrib $-1 -1 $618 $-1 $507 -1027555136 #
straight-curve $-1 -1 $-1 -452.81799881767267 -262.03613549528887 130.00000000001546 -1.1386781875257803e-16 4.1650370783741867e-16 -1 F 0 F 5 #
color-adesk-attrib $-1 -1 $619 $508 $404 9 #
point $-1 -1 $-1 -452.81799881767267 -262.03613549528887 130.00000000001546 #
color-adesk-attrib $-1 -1 $620 $511 $405 9 #
point $-1 -1 $-1 -452.81799881767267 -262.03613549528887 125.00000000001545 #
truecolor-adesk-attrib $-1 -1 $621 $514 $406 -1027555136 #
DXID-attrib $-1 -1 $-1 $517 $288 @18 ASM_EDGE_FROM_STEP @5 32547 #
color-adesk-attrib $-1 -1 $622 $518 $412 9 #
truecolor-adesk-attrib $-1 -1 $623 $521 $415 -1027555136 #
DXID-attrib $-1 -1 $-1 $525 $308 @18 ASM_EDGE_FROM_STEP @5 32579 #
DXID-attrib $-1 -1 $-1 $528 $312 @18 ASM_EDGE_FROM_STEP @5 32560 #
DXID-attrib $-1 -1 $-1 $530 $202 @18 ASM_FACE_FROM_STEP @15 stp-2M-177-5584 #
color-adesk-attrib $-1 -1 $624 $531 $314 9 #
DXID-attrib $-1 -1 $-1 $532 $318 @18 ASM_EDGE_FROM_STEP @5 32541 #
color-adesk-attrib $-1 -1 $625 $535 $323 9 #
DXID-attrib $-1 -1 $-1 $536 $213 @18 ASM_FACE_FROM_STEP @15 stp-2M-177-5656 #
color-adesk-attrib $-1 -1 $626 $537 $327 9 #
DXID-attrib $-1 -1 $-1 $542 $233 @18 ASM_FACE_FROM_STEP @15 stp-2M-177-5629 #
color-adesk-attrib $-1 -1 $627 $543 $342 9 #
truecolor-adesk-attrib $-1 -1 $628 $-1 $544 -1027555136 #
vertex $-1 -1 $-1 $544 $629 #
ellipse-curve $-1 -1 $-1 -481.81799881767267 -130.03613549528887 53.000000000015454 1.1386781875257801e-16 4.4012819687590346e-17 1 4.0999999999999908 2.2759572004815638e-16 -4.6685805688556878e-16 1 I I #
DXID-attrib $-1 -1 $-1 $546 $348 @18 ASM_EDGE_FROM_STEP @5 32568 #
DXID-attrib $-1 -1 $-1 $547 $352 @18 ASM_EDGE_FROM_STEP @5 32566 #
color-adesk-attrib $-1 -1 $630 $548 $465 9 #
point $-1 -1 $-1 -432.71799881767271 -130.03613549528887 53.000000000015461 #
DXID-attrib $-1 -1 $-1 $551 $359 @18 ASM_EDGE_FROM_STEP @5 32574 #
color-adesk-attrib $-1 -1 $631 $555 $476 9 #
color-adesk-attrib $-1 -1 $632 $557 $478 9 #
fmesh-eye-attrib $-1 -1 $633 $-1 $559 #
plane-surface $-1 -1 $-1 -465.81799881767267 -270.03613549528887 125.00000000001545 -1 -5.5511151231257784e-17 1.1386781875257801e-16 1.1386781875257801e-16 -6.1232339957367648e-17 1 forward_v I I I I #
DXID-attrib $-1 -1 $-1 $560 $371 @18 ASM_EDGE_FROM_STEP @5 32562 #
DXID-attrib $-1 -1 $-1 $563 $373 @18 ASM_EDGE_FROM_STEP @5 32558 #
DXID-attrib $-1 -1 $-1 $564 $374 @18 ASM_EDGE_FROM_STEP @5 32561 #
DXID-attrib $-1 -1 $-1 $568 $385 @18 ASM_EDGE_FROM_STEP @5 32559 #
DXID-attrib $-1 -1 $-1 $569 $390 @18 ASM_EDGE_FROM_STEP @5 32552 #
color-adesk-attrib $-1 -1 $634 $570 $500 9 #
color-adesk-attrib $-1 -1 $635 $573 $503 9 #
truecolor-adesk-attrib $-1 -1 $636 $575 $504 -1027555136 #
color-adesk-attrib $-1 -1 $637 $578 $507 9 #
DXID-attrib $-1 -1 $-1 $580 $404 @18 ASM_EDGE_FROM_STEP @5 32583 #
DXID-attrib $-1 -1 $-1 $582 $405 @18 ASM_EDGE_FROM_STEP @5 32582 #
color-adesk-attrib $-1 -1 $638 $584 $406 9 #
DXID-attrib $-1 -1 $-1 $586 $412 @18 ASM_EDGE_FROM_STEP @5 32577 #
color-adesk-attrib $-1 -1 $639 $587 $415 9 #
DXID-attrib $-1 -1 $-1 $591 $314 @18 ASM_FACE_FROM_STEP @15 stp-2M-177-5593 #
DXID-attrib $-1 -1 $-1 $593 $323 @18 ASM_FACE_FROM_STEP @15 stp-2M-177-5647 #
DXID-attrib $-1 -1 $-1 $595 $327 @18 ASM_FACE_FROM_STEP @15 stp-2M-177-5665 #
DXID-attrib $-1 -1 $-1 $597 $342 @18 ASM_FACE_FROM_STEP @15 stp-2M-177-5638 #
color-adesk-attrib $-1 -1 $640 $598 $544 9 #
point $-1 -1 $-1 -477.71799881767271 -130.03613549528887 53.000000000015461 #
DXID-attrib $-1 -1 $-1 $603 $465 @18 ASM_EDGE_FROM_STEP @5 32575 #
DXID-attrib $-1 -1 $-1 $606 $476 @18 ASM_EDGE_FROM_STEP @5 32563 #
DXID-attrib $-1 -1 $-1 $607 $478 @18 ASM_EDGE_FROM_STEP @5 32565 #
truecolor-adesk-attrib $-1 -1 $641 $608 $559 -1027555136 #
DXID-attrib $-1 -1 $-1 $615 $500 @18 ASM_EDGE_FROM_STEP @5 32581 #
DXID-attrib $-1 -1 $-1 $616 $503 @18 ASM_EDGE_FROM_STEP @5 32584 #
color-adesk-attrib $-1 -1 $642 $617 $504 9 #
DXID-attrib $-1 -1 $-1 $618 $507 @18 ASM_EDGE_FROM_STEP @5 32564 #
DXID-attrib $-1 -1 $-1 $621 $406 @18 ASM_FACE_FROM_STEP @15 stp-2M-177-5674 #
DXID-attrib $-1 -1 $-1 $623 $415 @18 ASM_FACE_FROM_STEP @15 stp-2M-177-5602 #
DXID-attrib $-1 -1 $-1 $628 $544 @18 ASM_EDGE_FROM_STEP @5 32576 #
color-adesk-attrib $-1 -1 $643 $633 $559 9 #
DXID-attrib $-1 -1 $-1 $636 $504 @18 ASM_FACE_FROM_STEP @15 stp-2M-177-5683 #
DXID-attrib $-1 -1 $-1 $641 $559 @18 ASM_FACE_FROM_STEP @15 stp-2M-177-5692 #
