700 204 1 0         
5 ZWCAD 12 ACIS 28.0 NT 24 Sat May 11 15:59:16 2024 
1 9.9999999999999995e-07 1e-10 
body $1 -1 $-1 $2 $-1 $-1 #
DXID-attrib $-1 -1 $-1 $-1 $0 @18 ASM_BODY_FROM_STEP @83 2A84B85479D999701BE61B5538D69F1C3195952D|:|3C3F39064A1C0E3DB6573A3428C289C93130A8D2 #
lump $-1 -1 $-1 $-1 $3 $0 #
shell $-1 -1 $-1 $-1 $-1 $4 $-1 $2 #
face $5 -1 $-1 $6 $7 $3 $-1 $8 forward single #
truecolor-adesk-attrib $-1 -1 $9 $-1 $4 -1056964608 #
face $10 -1 $-1 $11 $12 $3 $-1 $13 forward single #
loop $-1 -1 $-1 $-1 $14 $4 #
cone-surface $-1 -1 $-1 37.081896759309984 211.51158745992666 762.5 -1.8369701987210297e-16 -1 0 100 -1.8369701987210297e-14 0 1 I I 0 1 100 forward I I I I #
DXID-attrib $-1 -1 $-1 $5 $4 @18 ASM_FACE_FROM_STEP @16 stp-1M-143-11891 #
truecolor-adesk-attrib $-1 -1 $15 $-1 $6 -1056964608 #
face $16 -1 $-1 $17 $18 $3 $-1 $19 forward single #
loop $-1 -1 $-1 $-1 $20 $6 #
cone-surface $-1 -1 $-1 37.081896759309984 211.51158745992666 762.5 -1.8369701987210297e-16 -1 0 100 -1.8369701987210297e-14 0 1 I I 0 1 100 forward I I I I #
coedge $-1 -1 $-1 $21 $22 $23 $24 reversed $7 $-1 #
DXID-attrib $-1 -1 $-1 $10 $6 @18 ASM_FACE_FROM_STEP @16 stp-1M-143-11908 #
truecolor-adesk-attrib $-1 -1 $25 $-1 $11 -1056964608 #
face $26 -1 $-1 $27 $28 $3 $-1 $29 forward single #
loop $-1 -1 $-1 $-1 $30 $11 #
plane-surface $-1 -1 $-1 37.081896759309984 186.51158745992666 762.5 -1.8369701987210297e-16 -1 0 1 -1.8369701987210297e-16 0 forward_v I I I I #
coedge $-1 -1 $-1 $31 $32 $33 $34 reversed $12 $-1 #
coedge $-1 -1 $-1 $33 $14 $35 $36 forward $7 $-1 #
coedge $-1 -1 $-1 $14 $33 $37 $38 reversed $7 $-1 #
coedge $-1 -1 $-1 $32 $31 $14 $24 forward $12 $-1 #
edge $39 -1 $-1 $40 -25 $41 10 $14 $42 forward @7 unknown #
DXID-attrib $-1 -1 $-1 $16 $11 @18 ASM_FACE_FROM_STEP @16 stp-1M-143-11932 #
truecolor-adesk-attrib $-1 -1 $43 $-1 $17 -1056964608 #
face $44 -1 $-1 $45 $46 $3 $-1 $47 forward single #
loop $-1 -1 $-1 $-1 $48 $17 #
torus-surface $-1 -1 $-1 37.081896759309984 201.51158745992666 762.5 -1.8369701987210297e-16 -1 0 85 15 -0.92715545621663786 1.7031569426515643e-16 0.37467687412985368 forward_v I I I I #
coedge $-1 -1 $-1 $49 $49 $50 $51 forward $18 $-1 #
coedge $-1 -1 $-1 $23 $20 $52 $53 forward $12 $-1 #
coedge $-1 -1 $-1 $20 $23 $54 $55 reversed $12 $-1 #
coedge $-1 -1 $-1 $22 $21 $20 $34 forward $7 $-1 #
edge $56 -1 $-1 $57 -25 $58 10 $33 $59 forward @7 unknown #
coedge $-1 -1 $-1 $52 $52 $21 $36 reversed $60 $-1 #
edge $61 -1 $-1 $40 -3.1415926535897931 $57 -1.2246063538199998e-16 $21 $62 forward @7 unknown #
coedge $-1 -1 $-1 $63 $64 $22 $38 forward $46 $-1 #
edge $65 -1 $-1 $41 -3.1415926535897931 $58 -1.2246063538199998e-16 $22 $66 forward @7 unknown #
truecolor-adesk-attrib $-1 -1 $67 $-1 $24 -1056964608 #
vertex $-1 -1 $-1 $24 $68 #
vertex $-1 -1 $-1 $24 $69 #
straight-curve $-1 -1 $-1 137.08189675930998 211.51158745992666 762.5 -1.8369701987210297e-16 -1 0 F -25 F 10 #
DXID-attrib $-1 -1 $-1 $26 $17 @18 ASM_FACE_FROM_STEP @16 stp-1M-143-11954 #
truecolor-adesk-attrib $-1 -1 $70 $-1 $27 -1056964608 #
face $71 -1 $-1 $72 $60 $3 $-1 $73 reversed single #
loop $-1 -1 $-1 $-1 $64 $27 #
torus-surface $-1 -1 $-1 37.081896759309984 201.51158745992666 762.5 -1.8369701987210297e-16 -1 0 85 15 1 -1.8369701987210297e-16 -7.1054273575999999e-17 forward_v I I I I #
coedge $-1 -1 $-1 $54 $50 $63 $74 forward $28 $-1 #
coedge $-1 -1 $-1 $30 $30 $75 $76 forward $18 $-1 #
coedge $-1 -1 $-1 $48 $77 $30 $51 reversed $28 $-1 #
edge $78 -1 $-1 $79 -1.9708480134830644e-11 $80 3.1415926535897931 $30 $81 forward @7 unknown #
coedge $-1 -1 $-1 $35 $35 $31 $53 reversed $60 $-1 #
edge $82 -1 $-1 $57 -1.2246063538199998e-16 $40 3.1415926535897931 $31 $83 forward @7 unknown #
coedge $-1 -1 $-1 $77 $48 $32 $55 forward $28 $-1 #
edge $84 -1 $-1 $58 -1.2246063538199998e-16 $41 3.1415926535897931 $32 $85 forward @7 unknown #
truecolor-adesk-attrib $-1 -1 $86 $-1 $34 -1056964608 #
vertex $-1 -1 $-1 $36 $87 #
vertex $-1 -1 $-1 $34 $88 #
straight-curve $-1 -1 $-1 -62.918103240690016 211.51158745992666 762.5 -1.8369701987210297e-16 -1 0 F -25 F 10 #
loop $-1 -1 $-1 $89 $52 $45 #
truecolor-adesk-attrib $-1 -1 $90 $-1 $36 -1056964608 #
ellipse-curve $-1 -1 $-1 37.081896759309984 236.51158745992666 762.5 -1.8369701987210297e-16 -1 0 -100 1.8369701987210297e-14 0 1 F -3.1415926535897931 F -1.2246063538199998e-16 #
coedge $-1 -1 $-1 $75 $37 $48 $74 reversed $46 $-1 #
coedge $-1 -1 $-1 $37 $75 $77 $91 forward $46 $-1 #
truecolor-adesk-attrib $-1 -1 $92 $-1 $38 -1056964608 #
ellipse-curve $-1 -1 $-1 37.081896759309984 201.51158745992666 762.5 -1.8369701987210297e-16 -1 0 -100 1.8369701987210297e-14 0 1 F -3.1415926535897931 F -1.2246063538199998e-16 #
DXID-attrib $-1 -1 $-1 $39 $24 @18 ASM_EDGE_FROM_STEP @5 11865 #
point $-1 -1 $-1 137.08189675930998 236.51158745992666 762.5 #
point $-1 -1 $-1 137.08189675930998 201.51158745992666 762.5 #
DXID-attrib $-1 -1 $-1 $44 $27 @18 ASM_FACE_FROM_STEP @16 stp-1M-143-11966 #
truecolor-adesk-attrib $-1 -1 $93 $-1 $45 -1056964608 #
face $94 -1 $-1 $95 $96 $3 $-1 $97 reversed single #
plane-surface $-1 -1 $-1 37.081896759309984 236.51158745992666 762.5 -1.8369701987210297e-16 -1 0 1 -1.8369701987210297e-16 0 forward_v I I I I #
edge $98 -1 $-1 $79 -3.1415926535897931 $58 -1.5707963267948966 $48 $99 reversed @7 unknown #
coedge $-1 -1 $-1 $64 $63 $49 $76 reversed $46 $-1 #
edge $100 -1 $-1 $80 -3.1415926535897931 $79 -1.9708521931462156e-11 $49 $101 forward @7 unknown #
coedge $-1 -1 $-1 $50 $54 $64 $91 reversed $28 $-1 #
truecolor-adesk-attrib $-1 -1 $102 $-1 $51 -1056964608 #
vertex $-1 -1 $-1 $51 $103 #
vertex $-1 -1 $-1 $51 $104 #
ellipse-curve $-1 -1 $-1 37.081896759309984 186.51158745992666 762.5 -1.8369701987210297e-16 -1 0 -85 1.5614246689128753e-14 0 1 F -1.9708480134830644e-11 F 3.1415926535897931 #
truecolor-adesk-attrib $-1 -1 $105 $-1 $53 -1056964608 #
ellipse-curve $-1 -1 $-1 37.081896759309984 236.51158745992666 762.5 -1.8369701987210297e-16 -1 0 -100 1.8369701987210297e-14 0 1 F -1.2246063538199998e-16 F 3.1415926535897931 #
truecolor-adesk-attrib $-1 -1 $106 $-1 $55 -1056964608 #
ellipse-curve $-1 -1 $-1 37.081896759309984 201.51158745992666 762.5 -1.8369701987210297e-16 -1 0 -100 1.8369701987210297e-14 0 1 F -1.2246063538199998e-16 F 3.1415926535897931 #
DXID-attrib $-1 -1 $-1 $56 $34 @18 ASM_EDGE_FROM_STEP @5 11879 #
point $-1 -1 $-1 -62.918103240690016 236.51158745992666 762.5 #
point $-1 -1 $-1 -62.918103240690016 201.51158745992666 762.5 #
loop $-1 -1 $-1 $-1 $107 $45 #
DXID-attrib $-1 -1 $-1 $61 $36 @18 ASM_EDGE_FROM_STEP @5 11872 #
edge $108 -1 $-1 $80 0 $41 1.5707963267948966 $77 $109 reversed @7 unknown #
DXID-attrib $-1 -1 $-1 $65 $38 @18 ASM_EDGE_FROM_STEP @5 11884 #
DXID-attrib $-1 -1 $-1 $71 $45 @18 ASM_FACE_FROM_STEP @16 stp-1M-143-11994 #
truecolor-adesk-attrib $-1 -1 $110 $-1 $72 -1056964608 #
face $111 -1 $-1 $112 $113 $3 $-1 $114 reversed single #
loop $-1 -1 $-1 $-1 $115 $72 #
torus-surface $-1 -1 $-1 37.081896759309984 201.51158745992666 762.5 -1.8369701987210297e-16 -1 0 85 10 1 -1.8369701987210297e-16 -1.4958794437099999e-16 forward_v I I I I #
truecolor-adesk-attrib $-1 -1 $116 $-1 $74 -1056964608 #
ellipse-curve $-1 -1 $-1 -47.918103240690016 201.51158745992666 762.5 5.5511151231299994e-17 -1.0197233050859428e-32 1 2.7554552980815444e-15 15 0 1 F 1.5707963267948966 F 3.1415926535897931 #
truecolor-adesk-attrib $-1 -1 $117 $-1 $76 -1056964608 #
ellipse-curve $-1 -1 $-1 37.081896759309984 186.51158745992666 762.5 -1.8369701987210297e-16 -1 0 -85 1.5614246689128753e-14 0 1 F -3.1415926535897931 F -1.9708521931462156e-11 #
DXID-attrib $-1 -1 $-1 $78 $51 @18 ASM_EDGE_FROM_STEP @5 11922 #
point $-1 -1 $-1 -47.918103240690016 186.51158745992666 762.50000000167518 #
point $-1 -1 $-1 122.08189675930998 186.51158745992666 762.5 #
DXID-attrib $-1 -1 $-1 $82 $53 @18 ASM_EDGE_FROM_STEP @5 11896 #
DXID-attrib $-1 -1 $-1 $84 $55 @18 ASM_EDGE_FROM_STEP @5 11901 #
coedge $-1 -1 $-1 $118 $118 $119 $120 forward $89 $-1 #
truecolor-adesk-attrib $-1 -1 $121 $-1 $91 -1056964608 #
ellipse-curve $-1 -1 $-1 122.08189675930998 201.51158745992666 762.5 -4.4408920984999995e-16 8.1577864406801952e-32 -1 -2.7554552980815444e-15 -15 0 1 F -1.5707963267948966 F 0 #
DXID-attrib $-1 -1 $-1 $94 $72 @18 ASM_FACE_FROM_STEP @16 stp-1M-143-12034 #
truecolor-adesk-attrib $-1 -1 $122 $-1 $95 -1056964608 #
face $123 -1 $-1 $124 $125 $3 $-1 $126 reversed single #
loop $-1 -1 $-1 $-1 $127 $95 #
plane-surface $-1 -1 $-1 37.081896759309984 191.51158745992666 762.5 -1.8369701987210297e-16 -1 0 1 -1.8369701987210297e-16 0 forward_v I I I I #
coedge $-1 -1 $-1 $128 $129 $130 $131 reversed $96 $-1 #
DXID-attrib $-1 -1 $-1 $98 $74 @18 ASM_EDGE_FROM_STEP @5 11942 #
DXID-attrib $-1 -1 $-1 $100 $76 @18 ASM_EDGE_FROM_STEP @5 11927 #
coedge $-1 -1 $-1 $107 $107 $132 $133 forward $89 $-1 #
coedge $-1 -1 $-1 $134 $135 $107 $120 reversed $136 $-1 #
edge $137 -1 $-1 $138 -3.1415926535897931 $139 -1.224606353821053e-16 $107 $140 forward @7 unknown #
DXID-attrib $-1 -1 $-1 $108 $91 @18 ASM_EDGE_FROM_STEP @5 11947 #
DXID-attrib $-1 -1 $-1 $111 $95 @18 ASM_FACE_FROM_STEP @16 stp-1M-143-12061 #
truecolor-adesk-attrib $-1 -1 $141 $-1 $112 -1056964608 #
face $142 -1 $-1 $143 $136 $3 $-1 $144 reversed single #
loop $-1 -1 $-1 $-1 $145 $112 #
torus-surface $-1 -1 $-1 37.081896759309984 201.51158745992666 762.5 -1.8369701987210297e-16 -1 0 85 10 -0.92715545621663786 1.7031569426515643e-16 0.37467687412985368 forward_v I I I I #
coedge $-1 -1 $-1 $146 $146 $145 $147 reversed $113 $-1 #
coedge $-1 -1 $-1 $148 $115 $149 $150 reversed $96 $-1 #
coedge $-1 -1 $-1 $115 $148 $146 $151 forward $96 $-1 #
coedge $-1 -1 $-1 $145 $152 $115 $131 forward $125 $-1 #
edge $153 -1 $-1 $154 1.5707963267948966 $155 3.1415926535897931 $115 $156 forward @7 unknown #
coedge $-1 -1 $-1 $157 $158 $118 $133 reversed $159 $-1 #
edge $160 -1 $-1 $139 -1.224606353821053e-16 $138 3.1415926535897931 $118 $161 forward @7 unknown #
coedge $-1 -1 $-1 $149 $119 $158 $162 forward $136 $-1 #
coedge $-1 -1 $-1 $119 $149 $157 $163 reversed $136 $-1 #
loop $-1 -1 $-1 $-1 $135 $124 #
truecolor-adesk-attrib $-1 -1 $164 $-1 $120 -1056964608 #
vertex $-1 -1 $-1 $120 $165 #
vertex $-1 -1 $-1 $120 $166 #
ellipse-curve $-1 -1 $-1 37.081896759309984 236.51158745992666 762.5 -1.8369701987210297e-16 -1 0 -95 1.7451216887849781e-14 0 1 F -3.1415926535897931 F -1.224606353821053e-16 #
DXID-attrib $-1 -1 $-1 $123 $112 @18 ASM_FACE_FROM_STEP @16 stp-1M-143-12078 #
truecolor-adesk-attrib $-1 -1 $167 $-1 $124 -1056964608 #
face $168 -1 $-1 $-1 $159 $3 $-1 $169 reversed single #
cone-surface $-1 -1 $-1 37.081896759309984 211.51158745992666 762.5 -1.8369701987210297e-16 -1 0 95 -1.7451216887849781e-14 0 1 I I 0 1 95 forward I I I I #
coedge $-1 -1 $-1 $170 $130 $127 $147 forward $125 $-1 #
coedge $-1 -1 $-1 $127 $127 $129 $151 reversed $113 $-1 #
edge $171 -1 $-1 $155 -3.1415926536095009 $172 6.134326604684969e-16 $127 $173 forward @7 unknown #
coedge $-1 -1 $-1 $129 $128 $170 $174 forward $96 $-1 #
coedge $-1 -1 $-1 $135 $134 $128 $150 forward $136 $-1 #
edge $175 -1 $-1 $176 -3.1415926535897936 $154 -4.766666319684212e-17 $128 $177 forward @7 unknown #
edge $178 -1 $-1 $172 -3.1415926535897931 $155 -1.9708503885392063e-11 $129 $179 forward @7 unknown #
coedge $-1 -1 $-1 $130 $170 $180 $181 reversed $125 $-1 #
truecolor-adesk-attrib $-1 -1 $182 $-1 $131 -1056964608 #
vertex $-1 -1 $-1 $131 $183 #
vertex $-1 -1 $-1 $131 $184 #
ellipse-curve $-1 -1 $-1 -47.918103240690016 201.51158745992666 762.5 1.1102230246299999e-16 -2.0394466101792336e-32 1 1.8369701987210296e-15 10 0 1 F 1.5707963267948966 F 3.1415926535897931 #
coedge $-1 -1 $-1 $180 $132 $135 $163 forward $159 $-1 #
coedge $-1 -1 $-1 $132 $180 $134 $162 reversed $159 $-1 #
loop $-1 -1 $-1 $-1 $180 $143 #
truecolor-adesk-attrib $-1 -1 $185 $-1 $133 -1056964608 #
ellipse-curve $-1 -1 $-1 37.081896759309984 236.51158745992666 762.5 -1.8369701987210297e-16 -1 0 -95 1.7451216887849781e-14 0 1 F -1.224606353821053e-16 F 3.1415926535897931 #
edge $186 -1 $-1 $138 -17.5 $176 17.5 $134 $187 forward @7 unknown #
edge $188 -1 $-1 $139 -17.5 $154 17.5 $135 $189 forward @7 unknown #
DXID-attrib $-1 -1 $-1 $137 $120 @18 ASM_EDGE_FROM_STEP @5 11984 #
point $-1 -1 $-1 132.08189675930998 236.51158745992666 762.5 #
point $-1 -1 $-1 -57.918103240690016 236.51158745992666 762.5 #
DXID-attrib $-1 -1 $-1 $142 $124 @18 ASM_FACE_FROM_STEP @16 stp-1M-143-12100 #
truecolor-adesk-attrib $-1 -1 $190 $-1 $143 -1056964608 #
cone-surface $-1 -1 $-1 37.081896759309984 211.51158745992666 762.5 -1.8369701987210297e-16 -1 0 95 -1.7451216887849781e-14 0 1 I I 0 1 95 forward I I I I #
coedge $-1 -1 $-1 $152 $145 $148 $174 reversed $125 $-1 #
truecolor-adesk-attrib $-1 -1 $191 $-1 $147 -1056964608 #
vertex $-1 -1 $-1 $174 $192 #
ellipse-curve $-1 -1 $-1 37.081896759309984 191.51158745992666 762.5 -1.8369701987210297e-16 -1 0 85 -1.5614246689128753e-14 -4.3833968334708671e-14 1 F -3.1415926536095009 F 6.134326604684969e-16 #
edge $193 -1 $-1 $176 -1.5707963267948966 $172 0 $148 $194 forward @7 unknown #
truecolor-adesk-attrib $-1 -1 $195 $-1 $150 -1056964608 #
vertex $-1 -1 $-1 $150 $196 #
ellipse-curve $-1 -1 $-1 37.081896759309984 201.51158745992666 762.5 -1.8369701987210297e-16 -1 0 -95 1.7451216887849781e-14 0 1 F -3.1415926535897936 F -4.766666319684212e-17 #
truecolor-adesk-attrib $-1 -1 $197 $-1 $151 -1056964608 #
ellipse-curve $-1 -1 $-1 37.081896759309984 191.51158745992666 762.5 -1.8369701987210297e-16 -1 0 -85 1.5614246689128753e-14 0 1 F -3.1415926535897931 F -1.9708503885392063e-11 #
coedge $-1 -1 $-1 $158 $157 $152 $181 forward $159 $-1 #
edge $198 -1 $-1 $154 -1.5985762147473687e-16 $176 3.1415926535897927 $152 $199 forward @7 unknown #
DXID-attrib $-1 -1 $-1 $153 $131 @18 ASM_EDGE_FROM_STEP @5 12008 #
point $-1 -1 $-1 -57.918103240690016 201.51158745992666 762.5 #
point $-1 -1 $-1 -47.918103240690016 191.51158745992666 762.50000000167518 #
DXID-attrib $-1 -1 $-1 $160 $133 @18 ASM_EDGE_FROM_STEP @5 11989 #
truecolor-adesk-attrib $-1 -1 $200 $-1 $162 -1056964608 #
straight-curve $-1 -1 $-1 132.08189675930998 219.01158745992666 762.5 -1.8369701987210297e-16 -1 0 F -17.5 F 17.5 #
truecolor-adesk-attrib $-1 -1 $201 $-1 $163 -1056964608 #
straight-curve $-1 -1 $-1 -57.918103240690016 219.01158745992666 762.5 -1.8369701987210297e-16 -1 0 F -17.5 F 17.5 #
DXID-attrib $-1 -1 $-1 $168 $143 @18 ASM_FACE_FROM_STEP @16 stp-1M-143-12107 #
DXID-attrib $-1 -1 $-1 $171 $147 @18 ASM_EDGE_FROM_STEP @5 12056 #
point $-1 -1 $-1 122.08189675930998 191.51158745992666 762.5 #
truecolor-adesk-attrib $-1 -1 $202 $-1 $174 -1056964608 #
ellipse-curve $-1 -1 $-1 122.08189675930998 201.51158745992666 762.5 0 0 -1 -1.8369701987210296e-15 -10 0 1 F -1.5707963267948966 F 0 #
DXID-attrib $-1 -1 $-1 $175 $150 @18 ASM_EDGE_FROM_STEP @5 12015 #
point $-1 -1 $-1 132.08189675930998 201.51158745992666 762.5 #
DXID-attrib $-1 -1 $-1 $178 $151 @18 ASM_EDGE_FROM_STEP @5 12027 #
truecolor-adesk-attrib $-1 -1 $203 $-1 $181 -1056964608 #
ellipse-curve $-1 -1 $-1 37.081896759309984 201.51158745992666 762.5 -1.8369701987210297e-16 -1 0 -95 1.7451216887849781e-14 0 1 F -1.5985762147473687e-16 F 3.1415926535897927 #
DXID-attrib $-1 -1 $-1 $186 $162 @18 ASM_EDGE_FROM_STEP @5 12093 #
DXID-attrib $-1 -1 $-1 $188 $163 @18 ASM_EDGE_FROM_STEP @5 12088 #
DXID-attrib $-1 -1 $-1 $193 $174 @18 ASM_EDGE_FROM_STEP @5 12022 #
DXID-attrib $-1 -1 $-1 $198 $181 @18 ASM_EDGE_FROM_STEP @5 12071 #
