700 230 1 0         
5 ZWCAD 12 ACIS 28.0 NT 24 Sat May 11 14:57:09 2024 
1 9.9999999999999995e-07 1e-10 
body $1 -1 $-1 $2 $-1 $-1 #
DXID-attrib $-1 -1 $-1 $-1 $0 @18 ASM_BODY_FROM_STEP @83 88256100DC949AEE997B48C2A3074B664FD86F8E|:|8CB3CBCEBE3339AC3139F7812237AD39DB573F35 #
lump $-1 -1 $-1 $-1 $3 $0 #
shell $-1 -1 $-1 $-1 $-1 $4 $-1 $2 #
face $5 -1 $-1 $6 $7 $3 $-1 $8 forward single #
truecolor-adesk-attrib $-1 -1 $9 $-1 $4 -1027645952 #
face $10 -1 $-1 $11 $12 $3 $-1 $13 forward single #
loop $-1 -1 $-1 $-1 $14 $4 #
plane-surface $-1 -1 $-1 -1173.5600504413683 266.19463525311016 -589.99999999999284 -0.70710678118654757 0 -0.70710678118654757 -0.70710678118654768 0 0.70710678118654768 forward_v I I I I #
DXID-attrib $-1 -1 $-1 $5 $4 @18 ASM_FACE_FROM_STEP @15 stp-1M-317-8986 #
truecolor-adesk-attrib $-1 -1 $15 $-1 $6 -1027645952 #
face $16 -1 $-1 $17 $18 $3 $-1 $19 forward single #
loop $-1 -1 $-1 $-1 $20 $6 #
plane-surface $-1 -1 $-1 -1133.5600504413683 260.69463525311016 -599.99999999999284 0 0 -1 -1 0 0 forward_v I I I I #
coedge $-1 -1 $-1 $21 $22 $23 $24 forward $7 $-1 #
DXID-attrib $-1 -1 $-1 $10 $6 @18 ASM_FACE_FROM_STEP @15 stp-1M-317-8987 #
truecolor-adesk-attrib $-1 -1 $25 $-1 $11 -1027645952 #
face $26 -1 $-1 $27 $28 $3 $-1 $29 forward single #
loop $-1 -1 $-1 $-1 $23 $11 #
plane-surface $-1 -1 $-1 -1083.5600504413683 271.69463525311016 7.2102810599391099e-12 0 1 0 -1 0 0 forward_v I I I I #
coedge $-1 -1 $-1 $30 $31 $21 $32 reversed $12 $-1 #
coedge $-1 -1 $-1 $33 $14 $20 $32 forward $7 $-1 #
coedge $-1 -1 $-1 $14 $33 $34 $35 forward $7 $-1 #
coedge $-1 -1 $-1 $36 $37 $14 $24 reversed $18 $-1 #
edge $38 -1 $-1 $39 16.263455967290582 $40 19.09188309203677 $14 $41 forward @7 unknown #
DXID-attrib $-1 -1 $-1 $16 $11 @18 ASM_FACE_FROM_STEP @15 stp-1M-317-8988 #
truecolor-adesk-attrib $-1 -1 $42 $-1 $17 -1027645952 #
face $43 -1 $-1 $44 $45 $3 $-1 $46 forward single #
loop $-1 -1 $-1 $-1 $47 $17 #
plane-surface $-1 -1 $-1 -1093.5600504413683 255.19463525311016 -589.99999999999284 0.70710678118654757 0 -0.70710678118654757 -0.70710678118654768 0 -0.70710678118654768 forward_v I I I I #
coedge $-1 -1 $-1 $48 $20 $37 $49 forward $12 $-1 #
coedge $-1 -1 $-1 $20 $48 $50 $51 forward $12 $-1 #
edge $52 -1 $-1 $40 -0.55000000000000004 $53 1.6500000000000001 $21 $54 forward @7 unknown #
coedge $-1 -1 $-1 $22 $21 $55 $56 forward $7 $-1 #
coedge $-1 -1 $-1 $57 $58 $22 $35 reversed $59 $-1 #
edge $60 -1 $-1 $61 -1.6500000000000001 $39 0.55000000000000004 $22 $62 forward @7 unknown #
coedge $-1 -1 $-1 $63 $23 $58 $64 forward $18 $-1 #
coedge $-1 -1 $-1 $23 $65 $30 $49 reversed $18 $-1 #
truecolor-adesk-attrib $-1 -1 $66 $-1 $24 -1027645952 #
vertex $-1 -1 $-1 $24 $67 #
vertex $-1 -1 $-1 $24 $68 #
straight-curve $-1 -1 $-1 -1298.5600504413683 271.69463525311016 -464.99999999999278 7.0710678118654799 0 -7.0710678118654799 F 16.263455967290582 F 19.09188309203677 #
DXID-attrib $-1 -1 $-1 $26 $17 @18 ASM_FACE_FROM_STEP @15 stp-1M-317-8989 #
truecolor-adesk-attrib $-1 -1 $69 $-1 $27 -1027645952 #
face $70 -1 $-1 $71 $72 $3 $-1 $73 forward single #
loop $-1 -1 $-1 $-1 $74 $27 #
plane-surface $-1 -1 $-1 -1083.5600504413683 249.69463525311016 7.2102810599391099e-12 1 0 0 0 1 0 forward_v I I I I #
coedge $-1 -1 $-1 $75 $76 $77 $78 forward $28 $-1 #
coedge $-1 -1 $-1 $31 $30 $75 $79 reversed $12 $-1 #
edge $80 -1 $-1 $40 -8 $81 -2 $30 $82 forward @7 unknown #
coedge $-1 -1 $-1 $77 $55 $31 $51 reversed $83 $-1 #
edge $84 -1 $-1 $85 -8 $53 -2 $31 $86 forward @7 unknown #
truecolor-adesk-attrib $-1 -1 $87 $-1 $32 -1027645952 #
vertex $-1 -1 $-1 $32 $88 #
straight-curve $-1 -1 $-1 -1163.5600504413683 266.19463525311016 -599.99999999999284 0 -10 0 F -0.55000000000000004 F 1.6500000000000001 #
coedge $-1 -1 $-1 $50 $89 $33 $56 reversed $83 $-1 #
edge $90 -1 $-1 $53 -22.627416997969508 $61 -19.798989873223316 $33 $91 forward @7 unknown #
coedge $-1 -1 $-1 $92 $34 $89 $93 reversed $59 $-1 #
coedge $-1 -1 $-1 $34 $92 $36 $64 reversed $59 $-1 #
loop $-1 -1 $-1 $-1 $34 $94 #
truecolor-adesk-attrib $-1 -1 $95 $-1 $35 -1027645952 #
vertex $-1 -1 $-1 $56 $96 #
straight-curve $-1 -1 $-1 -1183.5600504413683 266.19463525311016 -579.99999999999284 0 10 0 F -1.6500000000000001 F 0.55000000000000004 #
coedge $-1 -1 $-1 $97 $36 $98 $99 reversed $18 $-1 #
edge $100 -1 $-1 $39 -58 $101 58 $36 $102 forward @7 unknown #
coedge $-1 -1 $-1 $37 $103 $104 $105 reversed $18 $-1 #
DXID-attrib $-1 -1 $-1 $38 $24 @18 ASM_EDGE_FROM_STEP @4 5632 #
point $-1 -1 $-1 -1183.5600504413683 271.69463525311016 -579.99999999999284 #
point $-1 -1 $-1 -1163.5600504413683 271.69463525311016 -599.99999999999284 #
DXID-attrib $-1 -1 $-1 $43 $27 @18 ASM_FACE_FROM_STEP @15 stp-1M-317-8990 #
truecolor-adesk-attrib $-1 -1 $106 $-1 $44 -1027645952 #
face $107 -1 $-1 $108 $109 $3 $-1 $110 forward single #
loop $-1 -1 $-1 $-1 $111 $44 #
plane-surface $-1 -1 $-1 -1173.5600504413683 266.19463525311016 590.00000000000716 -0.70710678118654757 0 0.70710678118654757 0.70710678118654768 0 0.70710678118654768 forward_v I I I I #
coedge $-1 -1 $-1 $112 $113 $76 $114 reversed $45 $-1 #
coedge $-1 -1 $-1 $104 $47 $48 $79 forward $28 $-1 #
coedge $-1 -1 $-1 $47 $104 $74 $114 forward $28 $-1 #
coedge $-1 -1 $-1 $115 $50 $47 $78 reversed $83 $-1 #
edge $116 -1 $-1 $117 16.263455967290582 $85 19.09188309203677 $47 $118 forward @7 unknown #
edge $119 -1 $-1 $85 -0.55000000000000004 $81 1.6500000000000001 $48 $120 forward @7 unknown #
truecolor-adesk-attrib $-1 -1 $121 $-1 $49 -1027645952 #
vertex $-1 -1 $-1 $49 $122 #
straight-curve $-1 -1 $-1 -1083.5600504413683 271.69463525311016 -599.99999999999284 10 0 0 F -8 F -2 #
loop $-1 -1 $-1 $-1 $55 $123 #
truecolor-adesk-attrib $-1 -1 $124 $-1 $51 -1027645952 #
vertex $-1 -1 $-1 $79 $125 #
straight-curve $-1 -1 $-1 -1183.5600504413683 249.69463525311016 -599.99999999999284 -10 1.33226762955019e-15 0 F -8 F -2 #
DXID-attrib $-1 -1 $-1 $52 $32 @18 ASM_EDGE_FROM_STEP @4 5633 #
point $-1 -1 $-1 -1163.5600504413683 249.69463525311016 -599.99999999999284 #
coedge $-1 -1 $-1 $55 $126 $57 $93 forward $83 $-1 #
truecolor-adesk-attrib $-1 -1 $127 $-1 $56 -1027645952 #
straight-curve $-1 -1 $-1 -1323.5600504413683 249.69463525311016 -439.99999999999278 -7.0710678118654799 9.4205547521026495e-16 7.0710678118654799 F -22.627416997969508 F -19.798989873223316 #
coedge $-1 -1 $-1 $58 $57 $128 $129 reversed $59 $-1 #
edge $130 -1 $-1 $131 -58 $61 58 $57 $132 forward @7 unknown #
face $133 -1 $-1 $123 $59 $3 $-1 $134 forward single #
DXID-attrib $-1 -1 $-1 $60 $35 @18 ASM_EDGE_FROM_STEP @4 5635 #
point $-1 -1 $-1 -1183.5600504413683 249.69463525311016 -579.99999999999284 #
coedge $-1 -1 $-1 $135 $63 $136 $137 reversed $18 $-1 #
coedge $-1 -1 $-1 $128 $138 $63 $99 forward $72 $-1 #
edge $139 -1 $-1 $140 -19.09188309203677 $101 -16.263455967290582 $63 $141 forward @7 unknown #
truecolor-adesk-attrib $-1 -1 $142 $-1 $64 -1027645952 #
vertex $-1 -1 $-1 $64 $143 #
straight-curve $-1 -1 $-1 -1183.5600504413683 271.69463525311016 7.2102810599391099e-12 0 0 10 F -58 F 58 #
coedge $-1 -1 $-1 $65 $135 $112 $144 reversed $18 $-1 #
coedge $-1 -1 $-1 $76 $75 $65 $105 forward $28 $-1 #
edge $145 -1 $-1 $81 -22.627416997969508 $146 -19.798989873223316 $65 $147 forward @7 unknown #
DXID-attrib $-1 -1 $-1 $70 $44 @18 ASM_FACE_FROM_STEP @15 stp-1M-317-8991 #
truecolor-adesk-attrib $-1 -1 $148 $-1 $71 -1027645952 #
face $149 -1 $-1 $94 $150 $3 $-1 $151 forward single #
loop $-1 -1 $-1 $-1 $152 $71 #
plane-surface $-1 -1 $-1 -1133.5600504413683 260.69463525311016 600.00000000000716 0 0 1 1 0 0 forward_v I I I I #
coedge $-1 -1 $-1 $138 $128 $126 $153 forward $72 $-1 #
coedge $-1 -1 $-1 $154 $74 $103 $144 forward $45 $-1 #
coedge $-1 -1 $-1 $74 $154 $115 $155 reversed $45 $-1 #
edge $156 -1 $-1 $146 -1.6500000000000001 $117 0.55000000000000004 $76 $157 forward @7 unknown #
coedge $-1 -1 $-1 $158 $77 $113 $155 forward $83 $-1 #
truecolor-adesk-attrib $-1 -1 $159 $-1 $78 -1027645952 #
vertex $-1 -1 $-1 $78 $160 #
straight-curve $-1 -1 $-1 -968.56005044136828 249.69463525311016 -464.99999999999278 -7.0710678118654799 9.4205547521026495e-16 -7.0710678118654799 F 16.263455967290582 F 19.09188309203677 #
truecolor-adesk-attrib $-1 -1 $161 $-1 $79 -1027645952 #
straight-curve $-1 -1 $-1 -1103.5600504413683 255.19463525311016 -599.99999999999284 0 10 0 F -0.55000000000000004 F 1.6500000000000001 #
DXID-attrib $-1 -1 $-1 $80 $49 @18 ASM_EDGE_FROM_STEP @4 5636 #
point $-1 -1 $-1 -1103.5600504413683 271.69463525311016 -599.99999999999284 #
face $162 -1 $-1 $-1 $83 $3 $-1 $163 forward single #
DXID-attrib $-1 -1 $-1 $84 $51 @18 ASM_EDGE_FROM_STEP @4 5638 #
point $-1 -1 $-1 -1103.5600504413683 249.69463525311016 -599.99999999999284 #
coedge $-1 -1 $-1 $89 $164 $111 $153 reversed $83 $-1 #
DXID-attrib $-1 -1 $-1 $90 $56 @18 ASM_EDGE_FROM_STEP @4 5634 #
coedge $-1 -1 $-1 $111 $98 $92 $129 forward $72 $-1 #
edge $165 -1 $-1 $101 -0.55000000000000004 $131 1.6500000000000001 $128 $166 forward @7 unknown #
truecolor-adesk-attrib $-1 -1 $167 $-1 $93 -1027645952 #
vertex $-1 -1 $-1 $153 $168 #
straight-curve $-1 -1 $-1 -1183.5600504413683 249.69463525311016 7.2102810599391099e-12 0 0 -10 F -58 F 58 #
truecolor-adesk-attrib $-1 -1 $169 $-1 $94 -1027645952 #
plane-surface $-1 -1 $-1 -1183.5600504413683 271.69463525311016 7.2102810599391099e-12 -1 0 0 0 -1 0 forward_v I I I I #
coedge $-1 -1 $-1 $103 $97 $170 $171 reversed $18 $-1 #
coedge $-1 -1 $-1 $152 $172 $97 $137 forward $109 $-1 #
edge $173 -1 $-1 $174 2 $140 8 $97 $175 forward @7 unknown #
coedge $-1 -1 $-1 $98 $111 $152 $176 forward $72 $-1 #
truecolor-adesk-attrib $-1 -1 $177 $-1 $99 -1027645952 #
vertex $-1 -1 $-1 $99 $178 #
straight-curve $-1 -1 $-1 -1298.5600504413683 271.69463525311016 465.00000000000722 -7.0710678118654799 0 -7.0710678118654799 F -19.09188309203677 F -16.263455967290582 #
DXID-attrib $-1 -1 $-1 $100 $64 @18 ASM_EDGE_FROM_STEP @4 5639 #
point $-1 -1 $-1 -1183.5600504413683 271.69463525311016 580.00000000000716 #
edge $179 -1 $-1 $146 -58 $180 58 $103 $181 forward @7 unknown #
truecolor-adesk-attrib $-1 -1 $182 $-1 $105 -1027645952 #
vertex $-1 -1 $-1 $144 $183 #
straight-curve $-1 -1 $-1 -943.56005044136828 271.69463525311016 -439.99999999999278 7.0710678118654799 0 7.0710678118654799 F -22.627416997969508 F -19.798989873223316 #
DXID-attrib $-1 -1 $-1 $107 $71 @18 ASM_FACE_FROM_STEP @15 stp-1M-317-8992 #
truecolor-adesk-attrib $-1 -1 $184 $-1 $108 -1027645952 #
loop $-1 -1 $-1 $-1 $170 $108 #
plane-surface $-1 -1 $-1 -1093.5600504413683 255.19463525311016 590.00000000000716 0.70710678118654757 0 0.70710678118654757 0.70710678118654768 0 -0.70710678118654768 forward_v I I I I #
coedge $-1 -1 $-1 $185 $136 $138 $176 reversed $109 $-1 #
edge $186 -1 $-1 $131 19.798989873223316 $187 22.627416997969508 $111 $188 forward @7 unknown #
coedge $-1 -1 $-1 $113 $112 $189 $190 reversed $45 $-1 #
edge $191 -1 $-1 $117 -58 $192 58 $113 $193 forward @7 unknown #
truecolor-adesk-attrib $-1 -1 $194 $-1 $114 -1027645952 #
straight-curve $-1 -1 $-1 -1083.5600504413683 255.19463525311016 -579.99999999999284 0 -10 0 F -1.6500000000000001 F 0.55000000000000004 #
coedge $-1 -1 $-1 $164 $115 $195 $196 reversed $83 $-1 #
DXID-attrib $-1 -1 $-1 $116 $78 @18 ASM_EDGE_FROM_STEP @4 5645 #
point $-1 -1 $-1 -1083.5600504413683 249.69463525311016 -579.99999999999284 #
DXID-attrib $-1 -1 $-1 $119 $79 @18 ASM_EDGE_FROM_STEP @4 5637 #
truecolor-adesk-attrib $-1 -1 $197 $-1 $123 -1027645952 #
plane-surface $-1 -1 $-1 -1183.5600504413683 249.69463525311016 7.2102810599391099e-12 -1.33226762955019e-16 -1 0 1 -1.33226762955019e-16 0 forward_v I I I I #
coedge $-1 -1 $-1 $126 $158 $185 $198 reversed $83 $-1 #
truecolor-adesk-attrib $-1 -1 $199 $-1 $129 -1027645952 #
straight-curve $-1 -1 $-1 -1183.5600504413683 266.19463525311016 580.00000000000716 0 -10 0 F -0.55000000000000004 F 1.6500000000000001 #
DXID-attrib $-1 -1 $-1 $130 $93 @18 ASM_EDGE_FROM_STEP @4 5655 #
point $-1 -1 $-1 -1183.5600504413683 249.69463525311016 580.00000000000716 #
DXID-attrib $-1 -1 $-1 $133 $94 @18 ASM_FACE_FROM_STEP @15 stp-1M-317-8994 #
coedge $-1 -1 $-1 $200 $189 $135 $171 forward $150 $-1 #
edge $201 -1 $-1 $180 19.798989873223316 $174 22.627416997969508 $135 $202 forward @7 unknown #
coedge $-1 -1 $-1 $136 $185 $200 $203 reversed $109 $-1 #
truecolor-adesk-attrib $-1 -1 $204 $-1 $137 -1027645952 #
vertex $-1 -1 $-1 $137 $205 #
straight-curve $-1 -1 $-1 -1083.5600504413683 271.69463525311016 600.00000000000716 -10 0 0 F 2 F 8 #
edge $206 -1 $-1 $187 -1.6500000000000001 $140 0.55000000000000004 $138 $207 forward @7 unknown #
DXID-attrib $-1 -1 $-1 $139 $99 @18 ASM_EDGE_FROM_STEP @4 5640 #
point $-1 -1 $-1 -1163.5600504413683 271.69463525311016 600.00000000000716 #
truecolor-adesk-attrib $-1 -1 $208 $-1 $144 -1027645952 #
vertex $-1 -1 $-1 $171 $209 #
straight-curve $-1 -1 $-1 -1083.5600504413683 271.69463525311016 7.2102810599391099e-12 0 0 10 F -58 F 58 #
DXID-attrib $-1 -1 $-1 $145 $105 @18 ASM_EDGE_FROM_STEP @4 5644 #
point $-1 -1 $-1 -1083.5600504413683 271.69463525311016 -579.99999999999284 #
DXID-attrib $-1 -1 $-1 $149 $108 @18 ASM_FACE_FROM_STEP @15 stp-1M-317-8993 #
coedge $-1 -1 $-1 $172 $152 $164 $198 forward $109 $-1 #
truecolor-adesk-attrib $-1 -1 $210 $-1 $153 -1027645952 #
vertex $-1 -1 $-1 $153 $211 #
straight-curve $-1 -1 $-1 -1323.5600504413683 249.69463525311016 440.00000000000722 7.0710678118654799 -9.4205547521026495e-16 7.0710678118654799 F 19.798989873223316 F 22.627416997969508 #
coedge $-1 -1 $-1 $170 $195 $154 $190 forward $150 $-1 #
edge $212 -1 $-1 $192 -0.55000000000000004 $180 1.6500000000000001 $154 $213 forward @7 unknown #
truecolor-adesk-attrib $-1 -1 $214 $-1 $155 -1027645952 #
vertex $-1 -1 $-1 $190 $215 #
straight-curve $-1 -1 $-1 -1083.5600504413683 249.69463525311016 7.2102810599391099e-12 0 0 10 F -58 F 58 #
DXID-attrib $-1 -1 $-1 $156 $114 @18 ASM_EDGE_FROM_STEP @4 5646 #
coedge $-1 -1 $-1 $189 $200 $158 $196 forward $150 $-1 #
edge $216 -1 $-1 $217 -19.09188309203677 $192 -16.263455967290582 $195 $218 forward @7 unknown #
DXID-attrib $-1 -1 $-1 $162 $123 @18 ASM_FACE_FROM_STEP @15 stp-1M-317-8995 #
edge $219 -1 $-1 $187 2 $217 8 $185 $220 forward @7 unknown #
DXID-attrib $-1 -1 $-1 $165 $129 @18 ASM_EDGE_FROM_STEP @4 5651 #
coedge $-1 -1 $-1 $195 $170 $172 $203 forward $150 $-1 #
truecolor-adesk-attrib $-1 -1 $221 $-1 $171 -1027645952 #
straight-curve $-1 -1 $-1 -943.56005044136828 271.69463525311016 440.00000000000722 -7.0710678118654799 0 7.0710678118654799 F 19.798989873223316 F 22.627416997969508 #
edge $222 -1 $-1 $174 -1.6500000000000001 $217 0.55000000000000004 $172 $223 forward @7 unknown #
DXID-attrib $-1 -1 $-1 $173 $137 @18 ASM_EDGE_FROM_STEP @4 5641 #
point $-1 -1 $-1 -1103.5600504413683 271.69463525311016 600.00000000000716 #
truecolor-adesk-attrib $-1 -1 $224 $-1 $176 -1027645952 #
straight-curve $-1 -1 $-1 -1163.5600504413683 266.19463525311016 600.00000000000716 0 10 0 F -1.6500000000000001 F 0.55000000000000004 #
DXID-attrib $-1 -1 $-1 $179 $144 @18 ASM_EDGE_FROM_STEP @4 5643 #
point $-1 -1 $-1 -1083.5600504413683 271.69463525311016 580.00000000000716 #
DXID-attrib $-1 -1 $-1 $186 $153 @18 ASM_EDGE_FROM_STEP @4 5649 #
point $-1 -1 $-1 -1163.5600504413683 249.69463525311016 600.00000000000716 #
truecolor-adesk-attrib $-1 -1 $225 $-1 $190 -1027645952 #
straight-curve $-1 -1 $-1 -1083.5600504413683 255.19463525311016 580.00000000000716 0 10 0 F -0.55000000000000004 F 1.6500000000000001 #
DXID-attrib $-1 -1 $-1 $191 $155 @18 ASM_EDGE_FROM_STEP @4 5648 #
point $-1 -1 $-1 -1083.5600504413683 249.69463525311016 580.00000000000716 #
truecolor-adesk-attrib $-1 -1 $226 $-1 $196 -1027645952 #
vertex $-1 -1 $-1 $198 $227 #
straight-curve $-1 -1 $-1 -968.56005044136828 249.69463525311016 465.00000000000722 7.0710678118654799 -9.4205547521026495e-16 -7.0710678118654799 F -19.09188309203677 F -16.263455967290582 #
truecolor-adesk-attrib $-1 -1 $228 $-1 $198 -1027645952 #
straight-curve $-1 -1 $-1 -1183.5600504413683 249.69463525311016 600.00000000000716 10 -1.33226762955019e-15 0 F 2 F 8 #
DXID-attrib $-1 -1 $-1 $201 $171 @18 ASM_EDGE_FROM_STEP @4 5642 #
truecolor-adesk-attrib $-1 -1 $229 $-1 $203 -1027645952 #
straight-curve $-1 -1 $-1 -1103.5600504413683 255.19463525311016 600.00000000000716 0 -10 0 F -1.6500000000000001 F 0.55000000000000004 #
DXID-attrib $-1 -1 $-1 $206 $176 @18 ASM_EDGE_FROM_STEP @4 5650 #
DXID-attrib $-1 -1 $-1 $212 $190 @18 ASM_EDGE_FROM_STEP @4 5647 #
DXID-attrib $-1 -1 $-1 $216 $196 @18 ASM_EDGE_FROM_STEP @4 5654 #
point $-1 -1 $-1 -1103.5600504413683 249.69463525311016 600.00000000000716 #
DXID-attrib $-1 -1 $-1 $219 $198 @18 ASM_EDGE_FROM_STEP @4 5652 #
DXID-attrib $-1 -1 $-1 $222 $203 @18 ASM_EDGE_FROM_STEP @4 5653 #
