700 284 1 0         
5 ZWCAD 12 ACIS 28.0 NT 24 Sat May 11 15:39:34 2024 
1 9.9999999999999995e-07 1e-10 
body $1 -1 $-1 $2 $-1 $-1 #
DXID-attrib $-1 -1 $-1 $-1 $0 @18 ASM_BODY_FROM_STEP @83 3E8598053FCB695EC548F29D23F31DABECD7F9B7|:|8CB3CBCEBE3339AC3139F7812237AD39DB573F35 #
lump $-1 -1 $-1 $-1 $3 $0 #
shell $-1 -1 $-1 $-1 $-1 $4 $-1 $2 #
face $5 -1 $-1 $6 $7 $3 $-1 $8 reversed single #
fmesh-eye-attrib $-1 -1 $9 $-1 $4 #
face $10 -1 $-1 $11 $12 $3 $-1 $13 forward single #
loop $-1 -1 $-1 $14 $15 $4 #
cone-surface $-1 -1 $-1 -291.41308071062474 -376.56794886393857 27.115470053837921 5.3021653106000305e-16 -1.1726058463232483e-30 -1 1 -2.2115603298505001e-15 5.3021653106000305e-16 1 I I 0.86602540378445481 0.49999999999997202 1 forward I I I I #
truecolor-adesk-attrib $-1 -1 $16 $5 $4 -1027555136 #
fmesh-eye-attrib $-1 -1 $17 $-1 $6 #
face $18 -1 $-1 $19 $20 $3 $-1 $21 forward single #
loop $-1 -1 $-1 $22 $23 $6 #
cone-surface $-1 -1 $-1 -291.41308071062474 -376.56794886393857 27 -5.3021653106000305e-16 1.1726058463232483e-30 1 -1.2 2.6538723958206002e-15 -6.3625983727200366e-16 1 I I 0.70710678118654724 0.70710678118654779 1.2 forward I I I I #
loop $-1 -1 $-1 $-1 $24 $4 #
coedge $-1 -1 $-1 $15 $15 $-1 $25 forward $7 $-1 #
color-adesk-attrib $-1 -1 $26 $9 $4 9 #
truecolor-adesk-attrib $-1 -1 $27 $10 $6 -1027555136 #
fmesh-eye-attrib $-1 -1 $28 $-1 $11 #
face $29 -1 $-1 $30 $31 $3 $-1 $32 forward single #
loop $-1 -1 $-1 $33 $34 $11 #
cone-surface $-1 -1 $-1 -291.41308071062474 -376.56794886393857 33 5.3021653106000305e-16 -1.1726058463232483e-30 -1 2.5 -5.5289008246262505e-15 1.3255413276500076e-15 1 I I 0 1 2.5 forward I I I I #
loop $-1 -1 $-1 $-1 $35 $6 #
coedge $-1 -1 $-1 $23 $23 $36 $37 forward $12 $-1 #
coedge $-1 -1 $-1 $24 $24 $35 $38 forward $14 $-1 #
edge $39 -1 $-1 $40 1 $40 0 $15 $-1 forward @7 unknown #
DXID-attrib $-1 -1 $-1 $16 $4 @18 ASM_FACE_FROM_STEP @14 stp-1M-55-9918 #
color-adesk-attrib $-1 -1 $41 $17 $6 9 #
truecolor-adesk-attrib $-1 -1 $42 $18 $11 -1036992620 #
fmesh-eye-attrib $-1 -1 $43 $-1 $19 #
face $44 -1 $-1 $45 $46 $3 $-1 $47 forward single #
loop $-1 -1 $-1 $48 $49 $19 #
cone-surface $-1 -1 $-1 -291.41308071062474 -376.56794886393857 32.727022324300002 5.3021653106000305e-16 -1.1726058463232483e-30 -1 2.5 -5.5289008246262505e-15 1.3255413276500076e-15 1 I I 0.93969262078576798 0.34202014332605463 2.5 forward I I I I #
loop $-1 -1 $-1 $-1 $36 $11 #
coedge $-1 -1 $-1 $34 $34 $50 $51 forward $20 $-1 #
coedge $-1 -1 $-1 $35 $35 $24 $38 reversed $22 $-1 #
coedge $-1 -1 $-1 $36 $36 $23 $37 reversed $33 $-1 #
edge $52 -1 $-1 $53 0 $53 6.2831853071795862 $23 $54 forward @7 unknown #
edge $55 -1 $-1 $56 0 $56 6.2831853071795862 $24 $57 forward @7 unknown #
truecolor-adesk-attrib $-1 -1 $-1 $-1 $25 -1027620929 #
vertex $-1 -1 $-1 $25 $58 #
DXID-attrib $-1 -1 $-1 $27 $6 @18 ASM_FACE_FROM_STEP @14 stp-1M-55-9919 #
color-adesk-attrib $-1 -1 $59 $28 $11 135 #
truecolor-adesk-attrib $-1 -1 $60 $29 $19 -1027555136 #
fmesh-eye-attrib $-1 -1 $61 $-1 $30 #
face $62 -1 $-1 $63 $64 $3 $-1 $65 reversed single #
loop $-1 -1 $-1 $66 $67 $30 #
plane-surface $-1 -1 $-1 -291.41308071062474 -374.81794886393857 33 -5.3021653106000305e-16 1.1726058463232483e-30 1 -1 2.2115603298505001e-15 -5.3021653106000305e-16 forward_v I I I I #
loop $-1 -1 $-1 $-1 $50 $19 #
coedge $-1 -1 $-1 $49 $49 $67 $68 forward $31 $-1 #
coedge $-1 -1 $-1 $50 $50 $34 $51 reversed $48 $-1 #
edge $69 -1 $-1 $70 0 $70 6.2831853071795862 $34 $71 forward @7 unknown #
truecolor-adesk-attrib $-1 -1 $72 $-1 $37 -1036992620 #
vertex $-1 -1 $-1 $37 $73 #
ellipse-curve $-1 -1 $-1 -291.41308071062474 -376.56794886393857 28.300000000000001 5.3021653106000305e-16 -1.1726058463232483e-30 -1 2.5 -5.5289008246262505e-15 1.3255413276500076e-15 1 I I #
truecolor-adesk-attrib $-1 -1 $74 $-1 $38 -1027555136 #
vertex $-1 -1 $-1 $38 $75 #
ellipse-curve $-1 -1 $-1 -291.41308071062474 -376.56794886393857 27 5.3021653106000305e-16 -1.1726058463232483e-30 -1 1.2 -2.6538723958206002e-15 6.3625983727200366e-16 1 I I #
point $-1 -1 $-1 -291.41308071062474 -376.56794886393857 27.692820323027505 #
DXID-attrib $-1 -1 $-1 $42 $11 @18 ASM_FACE_FROM_STEP @14 stp-1M-55-9920 #
color-adesk-attrib $-1 -1 $76 $43 $19 9 #
truecolor-adesk-attrib $-1 -1 $77 $44 $30 -1027555136 #
fmesh-eye-attrib $-1 -1 $78 $-1 $45 #
face $79 -1 $-1 $80 $81 $3 $-1 $82 reversed single #
loop $-1 -1 $-1 $-1 $83 $45 #
plane-surface $-1 -1 $-1 -290.6913928741377 -375.31794886393857 31 2.2115603298505001e-15 1 0 -1 2.2115603298505001e-15 -5.3021653106000305e-16 forward_v I I I I #
loop $-1 -1 $-1 $-1 $84 $30 #
coedge $-1 -1 $-1 $67 $67 $49 $68 reversed $46 $-1 #
edge $85 -1 $-1 $86 0 $86 6.2831853071795862 $49 $87 forward @7 unknown #
truecolor-adesk-attrib $-1 -1 $88 $-1 $51 -1027555136 #
vertex $-1 -1 $-1 $51 $89 #
ellipse-curve $-1 -1 $-1 -291.41308071062474 -376.56794886393857 32.727022324300002 5.3021653106000305e-16 -1.1726058463232483e-30 -1 2.5 -5.5289008246262505e-15 1.3255413276500076e-15 1 I I #
color-adesk-attrib $-1 -1 $90 $52 $37 135 #
point $-1 -1 $-1 -288.91308071062474 -376.56794886393857 28.300000000000004 #
color-adesk-attrib $-1 -1 $91 $55 $38 9 #
point $-1 -1 $-1 -290.21308071062469 -376.56794886393857 27 #
DXID-attrib $-1 -1 $-1 $60 $19 @18 ASM_FACE_FROM_STEP @14 stp-1M-55-9921 #
color-adesk-attrib $-1 -1 $92 $61 $30 9 #
truecolor-adesk-attrib $-1 -1 $93 $62 $45 -1027555136 #
fmesh-eye-attrib $-1 -1 $94 $-1 $63 #
face $95 -1 $-1 $96 $97 $3 $-1 $98 reversed single #
loop $-1 -1 $-1 $-1 $99 $63 #
plane-surface $-1 -1 $-1 -292.13476854711178 -375.31794886393857 31 -0.8660254037844296 0.50000000000001565 -4.5918098540441932e-16 -0.50000000000001565 -0.8660254037844296 -2.6510826553000882e-16 forward_v I I I I #
coedge $-1 -1 $-1 $100 $101 $84 $102 forward $64 $-1 #
coedge $-1 -1 $-1 $103 $104 $83 $102 reversed $66 $-1 #
truecolor-adesk-attrib $-1 -1 $105 $-1 $68 -1027555136 #
vertex $-1 -1 $-1 $68 $106 #
ellipse-curve $-1 -1 $-1 -291.41308071062474 -376.56794886393857 33 5.3021653106000305e-16 -1.1726058463232483e-30 -1 1.7500000000000002 -3.8702305772383759e-15 9.2787892935500543e-16 1 I I #
color-adesk-attrib $-1 -1 $107 $69 $51 9 #
point $-1 -1 $-1 -288.91308071062474 -376.56794886393857 32.727022324300002 #
DXID-attrib $-1 -1 $-1 $72 $37 @18 ASM_EDGE_FROM_STEP @4 6041 #
DXID-attrib $-1 -1 $-1 $74 $38 @18 ASM_EDGE_FROM_STEP @4 6040 #
DXID-attrib $-1 -1 $-1 $77 $30 @18 ASM_FACE_FROM_STEP @14 stp-1M-55-9922 #
color-adesk-attrib $-1 -1 $108 $78 $45 9 #
truecolor-adesk-attrib $-1 -1 $109 $79 $63 -1027555136 #
fmesh-eye-attrib $-1 -1 $110 $-1 $80 #
face $111 -1 $-1 $112 $113 $3 $-1 $114 reversed single #
loop $-1 -1 $-1 $-1 $115 $80 #
plane-surface $-1 -1 $-1 -292.85645638359881 -376.56794886393857 31 -0.86602540378443182 -0.50000000000001188 -4.5918098540441932e-16 0.50000000000001188 -0.86602540378443182 2.6510826553000882e-16 forward_v I I I I #
coedge $-1 -1 $-1 $116 $117 $104 $118 forward $81 $-1 #
coedge $-1 -1 $-1 $119 $83 $117 $120 reversed $64 $-1 #
coedge $-1 -1 $-1 $83 $119 $121 $122 forward $64 $-1 #
edge $123 -1 $-1 $124 0 $125 1 $84 $126 forward @7 unknown #
coedge $-1 -1 $-1 $127 $84 $128 $129 reversed $66 $-1 #
coedge $-1 -1 $-1 $84 $130 $99 $118 reversed $66 $-1 #
color-adesk-attrib $-1 -1 $131 $85 $68 9 #
point $-1 -1 $-1 -289.66308071062474 -376.56794886393857 33 #
DXID-attrib $-1 -1 $-1 $88 $51 @18 ASM_EDGE_FROM_STEP @4 6042 #
DXID-attrib $-1 -1 $-1 $93 $45 @18 ASM_FACE_FROM_STEP @14 stp-1M-55-9923 #
color-adesk-attrib $-1 -1 $132 $94 $63 9 #
truecolor-adesk-attrib $-1 -1 $133 $95 $80 -1027555136 #
fmesh-eye-attrib $-1 -1 $134 $-1 $96 #
face $135 -1 $-1 $136 $137 $3 $-1 $138 reversed single #
loop $-1 -1 $-1 $-1 $139 $96 #
plane-surface $-1 -1 $-1 -292.13476854711178 -377.81794886393857 31 -2.2115603298505001e-15 -1 0 1 -2.2115603298505001e-15 5.3021653106000305e-16 forward_v I I I I #
coedge $-1 -1 $-1 $140 $141 $130 $142 forward $97 $-1 #
coedge $-1 -1 $-1 $143 $99 $141 $144 reversed $81 $-1 #
coedge $-1 -1 $-1 $99 $143 $100 $120 forward $81 $-1 #
edge $145 -1 $-1 $125 0 $146 0.99999999999999944 $104 $147 forward @7 unknown #
coedge $-1 -1 $-1 $101 $100 $148 $149 reversed $64 $-1 #
edge $150 -1 $-1 $151 0 $125 0.99999999999999978 $100 $152 forward @7 unknown #
coedge $-1 -1 $-1 $153 $128 $101 $122 reversed $154 $-1 #
edge $155 -1 $-1 $156 0 $124 0.99999999999999978 $101 $157 forward @7 unknown #
truecolor-adesk-attrib $-1 -1 $158 $-1 $102 -1027555136 #
vertex $-1 -1 $-1 $102 $159 #
vertex $-1 -1 $-1 $102 $160 #
straight-curve $-1 -1 $-1 -290.6913928741377 -375.31794886393857 33 -1.4433756729740701 3.1921123794207222e-15 -7.653016423407088e-16 F 0 F 1 #
coedge $-1 -1 $-1 $161 $103 $162 $163 reversed $66 $-1 #
coedge $-1 -1 $-1 $121 $164 $103 $129 forward $154 $-1 #
edge $165 -1 $-1 $166 0 $124 1.0000000000000029 $103 $167 forward @7 unknown #
coedge $-1 -1 $-1 $104 $161 $115 $142 reversed $66 $-1 #
DXID-attrib $-1 -1 $-1 $105 $68 @18 ASM_EDGE_FROM_STEP @4 6043 #
DXID-attrib $-1 -1 $-1 $109 $63 @18 ASM_FACE_FROM_STEP @14 stp-1M-55-9924 #
color-adesk-attrib $-1 -1 $168 $110 $80 9 #
truecolor-adesk-attrib $-1 -1 $169 $111 $96 -1027555136 #
fmesh-eye-attrib $-1 -1 $170 $-1 $112 #
face $171 -1 $-1 $172 $154 $3 $-1 $173 reversed single #
loop $-1 -1 $-1 $-1 $162 $112 #
plane-surface $-1 -1 $-1 -290.6913928741377 -377.81794886393857 31 0.86602540378442638 -0.50000000000002121 4.5918098540441755e-16 0.50000000000002121 0.86602540378442638 2.6510826553001178e-16 forward_v I I I I #
coedge $-1 -1 $-1 $174 $175 $161 $176 forward $113 $-1 #
coedge $-1 -1 $-1 $177 $115 $175 $178 reversed $97 $-1 #
coedge $-1 -1 $-1 $115 $177 $116 $144 forward $97 $-1 #
edge $179 -1 $-1 $146 0 $180 0.99999999999999944 $130 $181 forward @7 unknown #
coedge $-1 -1 $-1 $117 $116 $182 $183 reversed $81 $-1 #
edge $184 -1 $-1 $185 0 $146 0.99999999999999978 $116 $186 forward @7 unknown #
truecolor-adesk-attrib $-1 -1 $187 $-1 $118 -1027555136 #
vertex $-1 -1 $-1 $142 $188 #
straight-curve $-1 -1 $-1 -292.13476854711178 -375.31794886393857 33 -0.72168783648706292 -1.2499999999999996 -3.8265082117036786e-16 F 0 F 0.99999999999999944 #
coedge $-1 -1 $-1 $182 $189 $119 $149 forward $190 $-1 #
edge $191 -1 $-1 $156 0 $151 1 $119 $192 forward @7 unknown #
truecolor-adesk-attrib $-1 -1 $193 $-1 $120 -1027555136 #
vertex $-1 -1 $-1 $120 $194 #
straight-curve $-1 -1 $-1 -292.13476854711178 -375.31794886393857 31 -1.0604330621200061e-15 2.3452116926464966e-30 2 F 0 F 0.99999999999999978 #
coedge $-1 -1 $-1 $164 $121 $189 $195 reversed $154 $-1 #
loop $-1 -1 $-1 $-1 $128 $136 #
truecolor-adesk-attrib $-1 -1 $196 $-1 $122 -1027555136 #
vertex $-1 -1 $-1 $149 $197 #
straight-curve $-1 -1 $-1 -290.6913928741377 -375.31794886393857 31 -1.0604330621200061e-15 2.3452116926464966e-30 2 F 0 F 0.99999999999999978 #
color-adesk-attrib $-1 -1 $198 $123 $102 9 #
point $-1 -1 $-1 -290.6913928741377 -375.31794886393857 33 #
point $-1 -1 $-1 -292.13476854711178 -375.31794886393857 33 #
coedge $-1 -1 $-1 $130 $127 $139 $176 reversed $66 $-1 #
coedge $-1 -1 $-1 $199 $200 $127 $163 forward $137 $-1 #
edge $201 -1 $-1 $202 0 $166 1.0000000000000029 $127 $203 forward @7 unknown #
coedge $-1 -1 $-1 $128 $153 $199 $204 forward $154 $-1 #
truecolor-adesk-attrib $-1 -1 $205 $-1 $129 -1027555136 #
vertex $-1 -1 $-1 $129 $206 #
straight-curve $-1 -1 $-1 -289.96970503765061 -376.56794886393857 33 -0.72168783648706492 1.2499999999999984 -3.8265082117037161e-16 F 0 F 1.0000000000000029 #
DXID-attrib $-1 -1 $-1 $133 $80 @18 ASM_FACE_FROM_STEP @14 stp-1M-55-9925 #
color-adesk-attrib $-1 -1 $207 $134 $96 9 #
truecolor-adesk-attrib $-1 -1 $208 $135 $112 -1027555136 #
fmesh-eye-attrib $-1 -1 $209 $-1 $136 #
face $210 -1 $-1 $-1 $190 $3 $-1 $211 forward single #
plane-surface $-1 -1 $-1 -289.96970503765061 -376.56794886393857 31 0.8660254037844286 0.50000000000001743 4.5918098540441755e-16 -0.50000000000001743 0.8660254037844286 -2.6510826553001178e-16 forward_v I I I I #
coedge $-1 -1 $-1 $212 $139 $200 $213 reversed $113 $-1 #
coedge $-1 -1 $-1 $139 $212 $140 $178 forward $113 $-1 #
edge $214 -1 $-1 $180 0 $202 1 $161 $215 forward @7 unknown #
coedge $-1 -1 $-1 $141 $140 $216 $217 reversed $97 $-1 #
edge $218 -1 $-1 $219 0 $180 0.99999999999999978 $140 $220 forward @7 unknown #
truecolor-adesk-attrib $-1 -1 $221 $-1 $142 -1027555136 #
vertex $-1 -1 $-1 $176 $222 #
straight-curve $-1 -1 $-1 -292.85645638359881 -376.56794886393857 33 0.7216878364870577 -1.2500000000000027 3.8265082117036786e-16 F 0 F 0.99999999999999944 #
coedge $-1 -1 $-1 $216 $148 $143 $183 forward $190 $-1 #
edge $223 -1 $-1 $151 0 $185 0.99999999999999944 $143 $224 forward @7 unknown #
truecolor-adesk-attrib $-1 -1 $225 $-1 $144 -1027555136 #
vertex $-1 -1 $-1 $144 $226 #
straight-curve $-1 -1 $-1 -292.85645638359881 -376.56794886393857 31 -1.0604330621200061e-15 2.3452116926464966e-30 2 F 0 F 0.99999999999999978 #
color-adesk-attrib $-1 -1 $227 $145 $118 9 #
point $-1 -1 $-1 -292.85645638359881 -376.56794886393857 33 #
coedge $-1 -1 $-1 $148 $228 $153 $195 forward $190 $-1 #
loop $-1 -1 $-1 $-1 $148 $172 #
truecolor-adesk-attrib $-1 -1 $229 $-1 $149 -1027555136 #
straight-curve $-1 -1 $-1 -290.6913928741377 -375.31794886393857 31 -1.4433756729740701 3.1921123794207222e-15 -7.653016423407088e-16 F 0 F 1 #
color-adesk-attrib $-1 -1 $230 $150 $120 9 #
point $-1 -1 $-1 -292.13476854711178 -375.31794886393857 31 #
edge $231 -1 $-1 $232 0 $156 1.0000000000000029 $153 $233 forward @7 unknown #
color-adesk-attrib $-1 -1 $234 $155 $122 9 #
point $-1 -1 $-1 -290.6913928741377 -375.31794886393857 31 #
DXID-attrib $-1 -1 $-1 $158 $102 @18 ASM_EDGE_FROM_STEP @4 6044 #
coedge $-1 -1 $-1 $235 $162 $164 $204 reversed $137 $-1 #
coedge $-1 -1 $-1 $162 $235 $174 $213 forward $137 $-1 #
truecolor-adesk-attrib $-1 -1 $236 $-1 $163 -1027555136 #
vertex $-1 -1 $-1 $163 $237 #
straight-curve $-1 -1 $-1 -290.6913928741377 -377.81794886393857 33 0.72168783648707047 1.2499999999999953 3.8265082117037171e-16 F 0 F 1.0000000000000029 #
edge $238 -1 $-1 $232 0 $166 0.99999999999999978 $199 $239 forward @7 unknown #
color-adesk-attrib $-1 -1 $240 $165 $129 9 #
point $-1 -1 $-1 -289.96970503765061 -376.56794886393857 33 #
DXID-attrib $-1 -1 $-1 $169 $96 @18 ASM_FACE_FROM_STEP @14 stp-1M-55-9926 #
color-adesk-attrib $-1 -1 $241 $170 $112 9 #
truecolor-adesk-attrib $-1 -1 $242 $171 $136 -1027555136 #
fmesh-eye-attrib $-1 -1 $243 $-1 $172 #
plane-surface $-1 -1 $-1 -291.41308071062468 -353.06794886393857 31 -5.3021653106000305e-16 1.1726058463232483e-30 1 -1 2.2115603298505001e-15 -5.3021653106000305e-16 forward_v I I I I #
coedge $-1 -1 $-1 $175 $174 $244 $245 reversed $113 $-1 #
edge $246 -1 $-1 $247 0 $202 0.99999999999999978 $174 $248 forward @7 unknown #
truecolor-adesk-attrib $-1 -1 $249 $-1 $176 -1027555136 #
straight-curve $-1 -1 $-1 -292.13476854711178 -377.81794886393857 33 1.4433756729740701 -3.1921123794207222e-15 7.653016423407088e-16 F 0 F 1 #
coedge $-1 -1 $-1 $244 $182 $177 $217 forward $190 $-1 #
edge $250 -1 $-1 $185 0 $219 0.99999999999999944 $177 $251 forward @7 unknown #
truecolor-adesk-attrib $-1 -1 $252 $-1 $178 -1027555136 #
vertex $-1 -1 $-1 $178 $253 #
straight-curve $-1 -1 $-1 -292.13476854711178 -377.81794886393857 31 -1.0604330621200061e-15 2.3452116926464966e-30 2 F 0 F 0.99999999999999978 #
color-adesk-attrib $-1 -1 $254 $179 $142 9 #
point $-1 -1 $-1 -292.13476854711178 -377.81794886393857 33 #
truecolor-adesk-attrib $-1 -1 $255 $-1 $183 -1027555136 #
straight-curve $-1 -1 $-1 -292.13476854711178 -375.31794886393857 31 -0.72168783648706292 -1.2499999999999996 -3.8265082117036786e-16 F 0 F 0.99999999999999944 #
color-adesk-attrib $-1 -1 $256 $184 $144 9 #
point $-1 -1 $-1 -292.85645638359881 -376.56794886393857 31 #
DXID-attrib $-1 -1 $-1 $187 $118 @18 ASM_EDGE_FROM_STEP @4 6049 #
coedge $-1 -1 $-1 $189 $244 $235 $257 forward $190 $-1 #
color-adesk-attrib $-1 -1 $258 $191 $149 9 #
DXID-attrib $-1 -1 $-1 $193 $120 @18 ASM_EDGE_FROM_STEP @4 6050 #
truecolor-adesk-attrib $-1 -1 $259 $-1 $195 -1027555136 #
vertex $-1 -1 $-1 $204 $260 #
straight-curve $-1 -1 $-1 -289.96970503765061 -376.56794886393857 31 -0.72168783648706492 1.2499999999999984 -3.8265082117037161e-16 F 0 F 1.0000000000000029 #
DXID-attrib $-1 -1 $-1 $196 $122 @18 ASM_EDGE_FROM_STEP @4 6052 #
coedge $-1 -1 $-1 $200 $199 $228 $257 reversed $137 $-1 #
color-adesk-attrib $-1 -1 $261 $201 $163 9 #
point $-1 -1 $-1 -290.6913928741377 -377.81794886393857 33 #
truecolor-adesk-attrib $-1 -1 $262 $-1 $204 -1027555136 #
straight-curve $-1 -1 $-1 -289.96970503765061 -376.56794886393857 31 -1.0604330621200061e-15 2.3452116926464966e-30 2 F 0 F 0.99999999999999978 #
DXID-attrib $-1 -1 $-1 $205 $129 @18 ASM_EDGE_FROM_STEP @4 6045 #
DXID-attrib $-1 -1 $-1 $208 $112 @18 ASM_FACE_FROM_STEP @14 stp-1M-55-9927 #
color-adesk-attrib $-1 -1 $263 $209 $136 9 #
truecolor-adesk-attrib $-1 -1 $264 $210 $172 -1027555136 #
coedge $-1 -1 $-1 $228 $216 $212 $245 forward $190 $-1 #
edge $265 -1 $-1 $219 0 $247 1 $212 $266 forward @7 unknown #
truecolor-adesk-attrib $-1 -1 $267 $-1 $213 -1027555136 #
vertex $-1 -1 $-1 $213 $268 #
straight-curve $-1 -1 $-1 -290.6913928741377 -377.81794886393857 31 -1.0604330621200061e-15 2.3452116926464966e-30 2 F 0 F 0.99999999999999978 #
color-adesk-attrib $-1 -1 $269 $214 $176 9 #
truecolor-adesk-attrib $-1 -1 $270 $-1 $217 -1027555136 #
straight-curve $-1 -1 $-1 -292.85645638359881 -376.56794886393857 31 0.7216878364870577 -1.2500000000000027 3.8265082117036786e-16 F 0 F 0.99999999999999944 #
color-adesk-attrib $-1 -1 $271 $218 $178 9 #
point $-1 -1 $-1 -292.13476854711178 -377.81794886393857 31 #
DXID-attrib $-1 -1 $-1 $221 $142 @18 ASM_EDGE_FROM_STEP @4 6048 #
color-adesk-attrib $-1 -1 $272 $223 $183 9 #
DXID-attrib $-1 -1 $-1 $225 $144 @18 ASM_EDGE_FROM_STEP @4 6053 #
edge $273 -1 $-1 $247 0 $232 1.0000000000000029 $235 $274 forward @7 unknown #
DXID-attrib $-1 -1 $-1 $229 $149 @18 ASM_EDGE_FROM_STEP @4 6051 #
color-adesk-attrib $-1 -1 $275 $231 $195 9 #
point $-1 -1 $-1 -289.96970503765061 -376.56794886393857 31 #
DXID-attrib $-1 -1 $-1 $236 $163 @18 ASM_EDGE_FROM_STEP @4 6046 #
color-adesk-attrib $-1 -1 $276 $238 $204 9 #
DXID-attrib $-1 -1 $-1 $242 $136 @18 ASM_FACE_FROM_STEP @14 stp-1M-55-9928 #
color-adesk-attrib $-1 -1 $277 $243 $172 9 #
truecolor-adesk-attrib $-1 -1 $278 $-1 $245 -1027555136 #
straight-curve $-1 -1 $-1 -292.13476854711178 -377.81794886393857 31 1.4433756729740701 -3.1921123794207222e-15 7.653016423407088e-16 F 0 F 1 #
color-adesk-attrib $-1 -1 $279 $246 $213 9 #
point $-1 -1 $-1 -290.6913928741377 -377.81794886393857 31 #
DXID-attrib $-1 -1 $-1 $249 $176 @18 ASM_EDGE_FROM_STEP @4 6047 #
color-adesk-attrib $-1 -1 $280 $250 $217 9 #
DXID-attrib $-1 -1 $-1 $252 $178 @18 ASM_EDGE_FROM_STEP @4 6055 #
DXID-attrib $-1 -1 $-1 $255 $183 @18 ASM_EDGE_FROM_STEP @4 6054 #
truecolor-adesk-attrib $-1 -1 $281 $-1 $257 -1027555136 #
straight-curve $-1 -1 $-1 -290.6913928741377 -377.81794886393857 31 0.72168783648707047 1.2499999999999953 3.8265082117037171e-16 F 0 F 1.0000000000000029 #
DXID-attrib $-1 -1 $-1 $259 $195 @18 ASM_EDGE_FROM_STEP @4 6061 #
DXID-attrib $-1 -1 $-1 $262 $204 @18 ASM_EDGE_FROM_STEP @4 6059 #
DXID-attrib $-1 -1 $-1 $264 $172 @18 ASM_FACE_FROM_STEP @14 stp-1M-55-9929 #
color-adesk-attrib $-1 -1 $282 $265 $245 9 #
DXID-attrib $-1 -1 $-1 $267 $213 @18 ASM_EDGE_FROM_STEP @4 6057 #
DXID-attrib $-1 -1 $-1 $270 $217 @18 ASM_EDGE_FROM_STEP @4 6056 #
color-adesk-attrib $-1 -1 $283 $273 $257 9 #
DXID-attrib $-1 -1 $-1 $278 $245 @18 ASM_EDGE_FROM_STEP @4 6058 #
DXID-attrib $-1 -1 $-1 $281 $257 @18 ASM_EDGE_FROM_STEP @4 6060 #
