700 646 1 0         
5 ZWCAD 12 ACIS 28.0 NT 24 Mon May 13 14:57:41 2024 
1 9.9999999999999995e-07 1e-10 
body $1 -1 $-1 $2 $-1 $-1 #
DXID-attrib $-1 -1 $-1 $-1 $0 @18 ASM_BODY_FROM_STEP @57 STP-2M-177-509|:|B8A4396250C5687B1D31E70758B30729E1AC4426 #
lump $-1 -1 $-1 $-1 $3 $0 #
shell $-1 -1 $-1 $-1 $-1 $4 $-1 $2 #
face $5 -1 $-1 $6 $7 $3 $-1 $8 reversed single #
fmesh-eye-attrib $-1 -1 $9 $-1 $4 #
face $10 -1 $-1 $11 $12 $3 $-1 $13 forward single #
loop $-1 -1 $-1 $14 $15 $4 #
plane-surface $-1 -1 $-1 -311.11693705689083 -532.56771150322015 6.2908670969296798 -1.8798721424567289e-16 -1 5.2877424455303591e-17 -0.052320571401966033 -4.2969401945231585e-17 -0.99863034092108982 forward_v I I I I #
truecolor-adesk-attrib $-1 -1 $16 $5 $4 -1026895378 #
fmesh-eye-attrib $-1 -1 $17 $-1 $6 #
face $18 -1 $-1 $19 $20 $3 $-1 $21 forward single #
loop $-1 -1 $-1 $-1 $22 $6 #
plane-surface $-1 -1 $-1 -311.84191216047509 -532.56771150322015 -7.5465608105274002 0.99863034092108982 -1.9049631291272804e-16 -0.052320571401965783 0.052320571401965783 4.2969401945231635e-17 0.99863034092108982 forward_v I I I I #
loop $-1 -1 $-1 $-1 $23 $4 #
coedge $-1 -1 $-1 $24 $25 $26 $27 reversed $7 $-1 #
color-adesk-attrib $-1 -1 $28 $9 $4 254 #
truecolor-adesk-attrib $-1 -1 $29 $10 $6 -1026895378 #
fmesh-eye-attrib $-1 -1 $30 $-1 $11 #
face $31 -1 $-1 $32 $33 $3 $-1 $34 forward single #
loop $-1 -1 $-1 $-1 $35 $11 #
plane-surface $-1 -1 $-1 -324.18796380324198 -532.56771150322015 -13.837427907281223 0.45400422647441807 -1.3246075012450597e-16 -0.89099952993442455 0.89099952993442466 -1.4348994533878692e-16 0.45400422647441813 forward_v I I I I #
coedge $-1 -1 $-1 $36 $37 $38 $39 reversed $12 $-1 #
coedge $-1 -1 $-1 $23 $23 $40 $41 reversed $14 $-1 #
coedge $-1 -1 $-1 $42 $15 $43 $44 reversed $7 $-1 #
coedge $-1 -1 $-1 $15 $45 $46 $47 reversed $7 $-1 #
coedge $-1 -1 $-1 $37 $36 $15 $27 forward $12 $-1 #
edge $48 -1 $-1 $49 0 $50 13.856406460366589 $15 $51 forward @7 unknown #
DXID-attrib $-1 -1 $-1 $16 $4 @18 ASM_FACE_FROM_STEP @15 stp-2M-177-5701 #
color-adesk-attrib $-1 -1 $52 $17 $6 254 #
truecolor-adesk-attrib $-1 -1 $53 $18 $11 -1026895378 #
fmesh-eye-attrib $-1 -1 $54 $-1 $19 #
face $55 -1 $-1 $56 $57 $3 $-1 $58 forward single #
loop $-1 -1 $-1 $-1 $59 $19 #
plane-surface $-1 -1 $-1 -335.80904034244082 -532.56771150322015 -6.2908670968875722 -0.54462611442433417 5.8035562783961009e-17 -0.83867895853362884 0.83867895853362895 -1.8645934728305738e-16 -0.54462611442433417 forward_v I I I I #
coedge $-1 -1 $-1 $60 $61 $62 $63 reversed $20 $-1 #
coedge $-1 -1 $-1 $26 $22 $61 $64 reversed $12 $-1 #
coedge $-1 -1 $-1 $22 $26 $65 $66 forward $12 $-1 #
coedge $-1 -1 $-1 $67 $62 $22 $39 forward $68 $-1 #
edge $69 -1 $-1 $70 0 $71 13.856406460366589 $22 $72 forward @7 unknown #
coedge $-1 -1 $-1 $40 $40 $23 $41 forward $73 $-1 #
edge $74 -1 $-1 $75 -1.5707963267948966 $75 4.7123889803846897 $23 $76 forward @7 unknown #
coedge $-1 -1 $-1 $77 $24 $78 $79 reversed $7 $-1 #
coedge $-1 -1 $-1 $61 $60 $24 $44 forward $20 $-1 #
edge $80 -1 $-1 $81 0 $49 13.856406460366516 $24 $82 forward @7 unknown #
coedge $-1 -1 $-1 $25 $77 $83 $84 reversed $7 $-1 #
coedge $-1 -1 $-1 $85 $65 $25 $47 forward $86 $-1 #
edge $87 -1 $-1 $50 0 $88 13.856406460366543 $25 $89 forward @7 unknown #
truecolor-adesk-attrib $-1 -1 $90 $-1 $27 -1026895378 #
vertex $-1 -1 $-1 $27 $91 #
vertex $-1 -1 $-1 $27 $92 #
straight-curve $-1 -1 $-1 -311.84191216047509 -532.56771150322015 -7.5465608105274002 0.052320571401965776 4.2969401945231635e-17 0.99863034092108982 F 0 F 13.856406460366589 #
DXID-attrib $-1 -1 $-1 $29 $6 @18 ASM_FACE_FROM_STEP @15 stp-2M-177-5710 #
color-adesk-attrib $-1 -1 $93 $30 $11 254 #
truecolor-adesk-attrib $-1 -1 $94 $31 $19 -1026895378 #
fmesh-eye-attrib $-1 -1 $95 $-1 $32 #
face $96 -1 $-1 $97 $98 $3 $-1 $99 forward single #
loop $-1 -1 $-1 $-1 $100 $32 #
plane-surface $-1 -1 $-1 -335.08406523885657 -532.56771150322015 7.5465608105695079 -0.99863034092108982 1.9049631291272804e-16 0.052320571401966033 -0.052320571401966033 -4.2969401945231585e-17 -0.99863034092108982 forward_v I I I I #
coedge $-1 -1 $-1 $101 $102 $103 $104 reversed $33 $-1 #
coedge $-1 -1 $-1 $43 $35 $102 $105 reversed $20 $-1 #
coedge $-1 -1 $-1 $35 $43 $36 $64 forward $20 $-1 #
coedge $-1 -1 $-1 $38 $103 $35 $63 forward $68 $-1 #
edge $106 -1 $-1 $107 0 $70 13.856406460366516 $35 $108 forward @7 unknown #
edge $109 -1 $-1 $49 0 $70 8.9999999999999947 $36 $110 forward @7 unknown #
coedge $-1 -1 $-1 $46 $111 $37 $66 reversed $86 $-1 #
edge $112 -1 $-1 $50 0 $71 8.9999999999999947 $37 $113 forward @7 unknown #
coedge $-1 -1 $-1 $114 $38 $111 $115 forward $68 $-1 #
loop $-1 -1 $-1 $116 $38 $117 #
truecolor-adesk-attrib $-1 -1 $118 $-1 $39 -1026895378 #
vertex $-1 -1 $-1 $39 $119 #
vertex $-1 -1 $-1 $39 $120 #
straight-curve $-1 -1 $-1 -311.84191216047509 -541.56771150322015 -7.5465608105274002 0.052320571401965776 4.2969401945231635e-17 0.99863034092108982 F 0 F 13.856406460366589 #
loop $-1 -1 $-1 $121 $40 $122 #
truecolor-adesk-attrib $-1 -1 $123 $-1 $41 -1026895378 #
vertex $-1 -1 $-1 $41 $124 #
ellipse-curve $-1 -1 $-1 -323.46298869964983 -532.56771150322015 3.2568649799550259e-10 1.8798721424567289e-16 1 -5.2877424455303591e-17 -7.9890427276501228 1.5239705033555044e-15 0.41856457123047119 1 I I #
coedge $-1 -1 $-1 $45 $42 $125 $126 reversed $7 $-1 #
coedge $-1 -1 $-1 $102 $101 $42 $79 forward $33 $-1 #
edge $127 -1 $-1 $128 0 $81 13.856406460366516 $42 $129 forward @7 unknown #
truecolor-adesk-attrib $-1 -1 $130 $-1 $44 -1026895378 #
vertex $-1 -1 $-1 $44 $131 #
straight-curve $-1 -1 $-1 -324.18796380324198 -532.56771150322015 -13.837427907281223 0.89099952993442499 -1.4348994533878699e-16 0.45400422647441835 F 0 F 13.856406460366516 #
coedge $-1 -1 $-1 $132 $133 $45 $84 forward $98 $-1 #
edge $134 -1 $-1 $88 0 $135 13.856406460366543 $45 $136 forward @7 unknown #
coedge $-1 -1 $-1 $111 $46 $133 $137 forward $86 $-1 #
loop $-1 -1 $-1 $-1 $111 $97 #
truecolor-adesk-attrib $-1 -1 $138 $-1 $47 -1026895378 #
vertex $-1 -1 $-1 $84 $139 #
straight-curve $-1 -1 $-1 -311.11693705689083 -532.56771150322015 6.2908670969296798 -0.83867895853362928 1.8645934728305745e-16 0.54462611442433451 F 0 F 13.856406460366543 #
color-adesk-attrib $-1 -1 $140 $48 $27 254 #
point $-1 -1 $-1 -311.84191216047509 -532.56771150322015 -7.5465608105274002 #
point $-1 -1 $-1 -311.11693705689083 -532.56771150322015 6.2908670969296798 #
DXID-attrib $-1 -1 $-1 $53 $11 @18 ASM_FACE_FROM_STEP @15 stp-2M-177-5719 #
color-adesk-attrib $-1 -1 $141 $54 $19 254 #
truecolor-adesk-attrib $-1 -1 $142 $55 $32 -1026895378 #
fmesh-eye-attrib $-1 -1 $143 $-1 $56 #
face $144 -1 $-1 $117 $86 $3 $-1 $145 forward single #
loop $-1 -1 $-1 $-1 $146 $56 #
plane-surface $-1 -1 $-1 -322.73801359608967 -532.56771150322015 13.837427907323381 -0.45400422647441807 1.3246075012450597e-16 0.89099952993442455 -0.89099952993442466 1.4348994533878692e-16 -0.45400422647441813 forward_v I I I I #
coedge $-1 -1 $-1 $147 $148 $149 $150 reversed $57 $-1 #
coedge $-1 -1 $-1 $78 $59 $148 $151 reversed $33 $-1 #
coedge $-1 -1 $-1 $59 $78 $60 $105 forward $33 $-1 #
coedge $-1 -1 $-1 $62 $149 $59 $104 forward $68 $-1 #
edge $152 -1 $-1 $153 0 $107 13.856406460366516 $59 $154 forward @7 unknown #
edge $155 -1 $-1 $81 0 $107 8.9999999999999947 $60 $156 forward @7 unknown #
truecolor-adesk-attrib $-1 -1 $157 $-1 $63 -1026895378 #
vertex $-1 -1 $-1 $63 $158 #
straight-curve $-1 -1 $-1 -324.18796380324198 -541.56771150322015 -13.837427907281221 0.89099952993442499 -1.4348994533878699e-16 0.45400422647441835 F 0 F 13.856406460366516 #
truecolor-adesk-attrib $-1 -1 $159 $-1 $64 -1026895378 #
straight-curve $-1 -1 $-1 -311.84191216047509 -532.56771150322015 -7.5465608105273896 -1.8798721424567289e-16 -1 5.2877424455303591e-17 F 0 F 8.9999999999999947 #
coedge $-1 -1 $-1 $65 $85 $67 $115 reversed $86 $-1 #
truecolor-adesk-attrib $-1 -1 $160 $-1 $66 -1026895378 #
straight-curve $-1 -1 $-1 -311.11693705689083 -532.56771150322015 6.2908670969296798 -1.8798721424567289e-16 -1 5.2877424455303591e-17 F 0 F 8.9999999999999947 #
coedge $-1 -1 $-1 $149 $67 $146 $161 forward $68 $-1 #
edge $162 -1 $-1 $71 0 $163 13.856406460366543 $111 $164 forward @7 unknown #
loop $-1 -1 $-1 $-1 $165 $117 #
face $166 -1 $-1 $122 $68 $3 $-1 $167 forward single #
color-adesk-attrib $-1 -1 $168 $69 $39 254 #
point $-1 -1 $-1 -311.84191216047509 -541.56771150322015 -7.5465608105274002 #
point $-1 -1 $-1 -311.11693705689083 -541.56771150322015 6.2908670969296798 #
loop $-1 -1 $-1 $-1 $169 $122 #
face $170 -1 $-1 $171 $73 $3 $-1 $172 forward single #
color-adesk-attrib $-1 -1 $173 $74 $41 254 #
point $-1 -1 $-1 -323.88155327088032 -532.56771150322015 -7.9890427273244349 #
coedge $-1 -1 $-1 $148 $147 $77 $126 forward $57 $-1 #
edge $174 -1 $-1 $135 0 $128 13.856406460366589 $77 $175 forward @7 unknown #
truecolor-adesk-attrib $-1 -1 $176 $-1 $79 -1026895378 #
vertex $-1 -1 $-1 $79 $177 #
straight-curve $-1 -1 $-1 -335.80904034244082 -532.56771150322015 -6.2908670968875722 0.83867895853362928 -1.8645934728305745e-16 -0.54462611442433451 F 0 F 13.856406460366516 #
color-adesk-attrib $-1 -1 $178 $80 $44 254 #
point $-1 -1 $-1 -324.18796380324198 -532.56771150322015 -13.837427907281223 #
coedge $-1 -1 $-1 $146 $83 $147 $179 forward $98 $-1 #
coedge $-1 -1 $-1 $83 $146 $85 $137 reversed $98 $-1 #
truecolor-adesk-attrib $-1 -1 $180 $-1 $84 -1026895378 #
vertex $-1 -1 $-1 $126 $181 #
straight-curve $-1 -1 $-1 -322.73801359608967 -532.56771150322015 13.837427907323381 -0.89099952993442499 1.4348994533878699e-16 -0.45400422647441835 F 0 F 13.856406460366543 #
edge $182 -1 $-1 $88 0 $163 8.9999999999999947 $133 $183 forward @7 unknown #
color-adesk-attrib $-1 -1 $184 $87 $47 254 #
point $-1 -1 $-1 -322.73801359608967 -532.56771150322015 13.837427907323381 #
DXID-attrib $-1 -1 $-1 $90 $27 @18 ASM_EDGE_FROM_STEP @5 32585 #
DXID-attrib $-1 -1 $-1 $94 $19 @18 ASM_FACE_FROM_STEP @15 stp-2M-177-5728 #
color-adesk-attrib $-1 -1 $185 $95 $32 254 #
truecolor-adesk-attrib $-1 -1 $186 $96 $56 -1026895378 #
fmesh-eye-attrib $-1 -1 $187 $-1 $97 #
plane-surface $-1 -1 $-1 -311.11693705689083 -532.56771150322015 6.2908670969296798 0.54462611442433417 -5.8035562783961009e-17 0.83867895853362884 -0.83867895853362895 1.8645934728305738e-16 0.54462611442433417 forward_v I I I I #
coedge $-1 -1 $-1 $133 $132 $114 $161 reversed $98 $-1 #
coedge $-1 -1 $-1 $125 $100 $132 $179 reversed $57 $-1 #
coedge $-1 -1 $-1 $100 $125 $101 $151 forward $57 $-1 #
coedge $-1 -1 $-1 $103 $114 $100 $150 forward $68 $-1 #
edge $188 -1 $-1 $189 0 $153 13.856406460366589 $100 $190 forward @7 unknown #
edge $191 -1 $-1 $128 0 $153 8.9999999999999947 $101 $192 forward @7 unknown #
truecolor-adesk-attrib $-1 -1 $193 $-1 $104 -1026895378 #
vertex $-1 -1 $-1 $104 $194 #
straight-curve $-1 -1 $-1 -335.80904034244082 -541.56771150322015 -6.2908670968875713 0.83867895853362928 -1.8645934728305745e-16 -0.54462611442433451 F 0 F 13.856406460366516 #
truecolor-adesk-attrib $-1 -1 $195 $-1 $105 -1026895378 #
straight-curve $-1 -1 $-1 -324.18796380324198 -532.56771150322015 -13.837427907281223 -1.8798721424567289e-16 -1 5.2877424455303591e-17 F 0 F 8.9999999999999947 #
color-adesk-attrib $-1 -1 $196 $106 $63 254 #
point $-1 -1 $-1 -324.18796380324198 -541.56771150322015 -13.837427907281221 #
color-adesk-attrib $-1 -1 $197 $109 $64 254 #
color-adesk-attrib $-1 -1 $198 $112 $66 254 #
edge $199 -1 $-1 $163 0 $189 13.856406460366543 $146 $200 forward @7 unknown #
truecolor-adesk-attrib $-1 -1 $201 $-1 $115 -1026895378 #
vertex $-1 -1 $-1 $161 $202 #
straight-curve $-1 -1 $-1 -311.11693705689083 -541.56771150322015 6.2908670969296798 -0.83867895853362928 1.8645934728305745e-16 0.54462611442433451 F 0 F 13.856406460366543 #
coedge $-1 -1 $-1 $165 $165 $203 $204 reversed $116 $-1 #
fmesh-eye-attrib $-1 -1 $205 $-1 $117 #
plane-surface $-1 -1 $-1 -311.11693705689083 -541.56771150322015 6.2908670969296798 -1.8798721424567289e-16 -1 5.2877424455303591e-17 -0.052320571401966033 -4.2969401945231585e-17 -0.99863034092108982 forward_v I I I I #
DXID-attrib $-1 -1 $-1 $118 $39 @18 ASM_EDGE_FROM_STEP @5 32593 #
coedge $-1 -1 $-1 $169 $169 $206 $207 reversed $121 $-1 #
fmesh-eye-attrib $-1 -1 $208 $-1 $122 #
face $209 -1 $-1 $210 $211 $3 $-1 $212 forward single #
cone-surface $-1 -1 $-1 -323.46298869964977 -440.41642900322012 3.2577025621489966e-10 -8.1783768514528463e-16 -1 -9.1703996102275463e-16 -0.41856457123047169 7.6685893115923445e-15 -7.9890427276501228 1 I I 0 1 8.0000000002817906 forward I I I I #
DXID-attrib $-1 -1 $213 $123 $41 @18 ASM_EDGE_FROM_STEP @5 32592 #
truecolor-adesk-attrib $-1 -1 $214 $-1 $126 -1026895378 #
straight-curve $-1 -1 $-1 -335.08406523885657 -532.56771150322015 7.5465608105695079 -0.052320571401966033 -4.2969401945231585e-17 -0.99863034092108982 F 0 F 13.856406460366589 #
color-adesk-attrib $-1 -1 $215 $127 $79 254 #
point $-1 -1 $-1 -335.80904034244082 -532.56771150322015 -6.2908670968875722 #
DXID-attrib $-1 -1 $-1 $130 $44 @18 ASM_EDGE_FROM_STEP @5 32586 #
edge $216 -1 $-1 $135 0 $189 8.9999999999999947 $147 $217 forward @7 unknown #
color-adesk-attrib $-1 -1 $218 $134 $84 254 #
point $-1 -1 $-1 -335.08406523885657 -532.56771150322015 7.5465608105695079 #
truecolor-adesk-attrib $-1 -1 $219 $-1 $137 -1026895378 #
straight-curve $-1 -1 $-1 -322.73801359608967 -532.56771150322015 13.837427907323381 -1.8798721424567289e-16 -1 5.2877424455303591e-17 F 0 F 8.9999999999999947 #
DXID-attrib $-1 -1 $-1 $138 $47 @18 ASM_EDGE_FROM_STEP @5 32590 #
DXID-attrib $-1 -1 $-1 $142 $32 @18 ASM_FACE_FROM_STEP @15 stp-2M-177-5737 #
color-adesk-attrib $-1 -1 $220 $143 $56 254 #
truecolor-adesk-attrib $-1 -1 $221 $144 $97 -1026895378 #
truecolor-adesk-attrib $-1 -1 $222 $-1 $150 -1026895378 #
vertex $-1 -1 $-1 $150 $223 #
straight-curve $-1 -1 $-1 -335.08406523885657 -541.56771150322015 7.5465608105695088 -0.052320571401966033 -4.2969401945231585e-17 -0.99863034092108982 F 0 F 13.856406460366589 #
truecolor-adesk-attrib $-1 -1 $224 $-1 $151 -1026895378 #
straight-curve $-1 -1 $-1 -335.80904034244082 -532.56771150322015 -6.2908670968875722 -1.8798721424567289e-16 -1 5.2877424455303591e-17 F 0 F 8.9999999999999947 #
color-adesk-attrib $-1 -1 $225 $152 $104 254 #
point $-1 -1 $-1 -335.80904034244082 -541.56771150322015 -6.2908670968875713 #
color-adesk-attrib $-1 -1 $226 $155 $105 254 #
DXID-attrib $-1 -1 $-1 $157 $63 @18 ASM_EDGE_FROM_STEP @5 32596 #
DXID-attrib $-1 -1 $-1 $159 $64 @18 ASM_EDGE_FROM_STEP @5 32594 #
DXID-attrib $-1 -1 $-1 $160 $66 @18 ASM_EDGE_FROM_STEP @5 32595 #
truecolor-adesk-attrib $-1 -1 $227 $-1 $161 -1026895378 #
straight-curve $-1 -1 $-1 -322.73801359608967 -541.56771150322015 13.837427907323383 -0.89099952993442499 1.4348994533878699e-16 -0.45400422647441835 F 0 F 13.856406460366543 #
color-adesk-attrib $-1 -1 $228 $162 $115 254 #
point $-1 -1 $-1 -322.73801359608967 -541.56771150322015 13.837427907323383 #
coedge $-1 -1 $-1 $203 $203 $165 $204 forward $229 $-1 #
edge $230 -1 $-1 $231 -0.78539816339744739 $231 5.4977871437821388 $165 $232 forward @7 unknown #
truecolor-adesk-attrib $-1 -1 $233 $166 $117 -1026895378 #
coedge $-1 -1 $-1 $206 $206 $169 $207 forward $234 $-1 #
edge $235 -1 $-1 $236 -4.7123889803846906 $236 1.5707963267948959 $169 $237 forward @7 unknown #
truecolor-adesk-attrib $-1 -1 $238 $170 $122 -1026895378 #
fmesh-eye-attrib $-1 -1 $239 $-1 $171 #
face $240 -1 $-1 $241 $242 $3 $-1 $243 forward single #
loop $-1 -1 $-1 $234 $244 $171 #
plane-surface $-1 -1 $-1 -335.8090403417429 -440.41642900322012 -6.2908670966208557 -1.8798721424567289e-16 -1 5.2877424455303591e-17 -0.052320571401966033 -4.2969401945231585e-17 -0.99863034092108982 forward_v I I I I #
DXID-attrib $-1 -1 $-1 $173 $41 @18 ASM_EDGE_FROM_STEP @5 32591 #
color-adesk-attrib $-1 -1 $245 $174 $126 254 #
DXID-attrib $-1 -1 $-1 $176 $79 @18 ASM_EDGE_FROM_STEP @5 32587 #
truecolor-adesk-attrib $-1 -1 $246 $-1 $179 -1026895378 #
straight-curve $-1 -1 $-1 -335.08406523885657 -532.56771150322015 7.5465608105694884 -1.8798721424567289e-16 -1 5.2877424455303591e-17 F 0 F 8.9999999999999947 #
DXID-attrib $-1 -1 $-1 $180 $84 @18 ASM_EDGE_FROM_STEP @5 32589 #
color-adesk-attrib $-1 -1 $247 $182 $137 254 #
DXID-attrib $-1 -1 $-1 $186 $56 @18 ASM_FACE_FROM_STEP @15 stp-2M-177-5746 #
color-adesk-attrib $-1 -1 $248 $187 $97 254 #
color-adesk-attrib $-1 -1 $249 $188 $150 254 #
point $-1 -1 $-1 -335.08406523885657 -541.56771150322015 7.5465608105695088 #
color-adesk-attrib $-1 -1 $250 $191 $151 254 #
DXID-attrib $-1 -1 $-1 $193 $104 @18 ASM_EDGE_FROM_STEP @5 32598 #
DXID-attrib $-1 -1 $-1 $195 $105 @18 ASM_EDGE_FROM_STEP @5 32597 #
color-adesk-attrib $-1 -1 $251 $199 $161 254 #
DXID-attrib $-1 -1 $-1 $201 $115 @18 ASM_EDGE_FROM_STEP @5 32604 #
loop $-1 -1 $-1 $-1 $203 $252 #
truecolor-adesk-attrib $-1 -1 $253 $-1 $204 -1026895378 #
vertex $-1 -1 $-1 $204 $254 #
ellipse-curve $-1 -1 $-1 -323.46298869966608 -541.56771150322015 1.6084596349225807e-11 -1.8798721424567289e-16 -1 5.2877424455303591e-17 4.1261185129658342 -1.0179618125550409e-15 -4.5823768867545942 1 I I #
color-adesk-attrib $-1 -1 $255 $205 $117 254 #
loop $-1 -1 $-1 $-1 $206 $171 #
truecolor-adesk-attrib $-1 -1 $256 $-1 $207 -1026895378 #
vertex $-1 -1 $-1 $207 $257 #
ellipse-curve $-1 -1 $-1 -323.46298869964977 -440.41642900322012 3.2577019415043861e-10 1.8798721424567289e-16 1 -5.2877424455303591e-17 -7.9890427276501228 1.5239705033555046e-15 0.4185645712304773 1 I I #
color-adesk-attrib $-1 -1 $258 $208 $122 254 #
truecolor-adesk-attrib $-1 -1 $259 $209 $171 -1026895378 #
fmesh-eye-attrib $-1 -1 $260 $-1 $210 #
face $261 -1 $-1 $262 $263 $3 $-1 $264 forward single #
loop $-1 -1 $-1 $-1 $265 $210 #
plane-surface $-1 -1 $-1 -335.08406523818923 -425.61642900322011 7.5465608102525135 -0.99863034092108982 1.9049631291272804e-16 0.052320571401966033 -0.052320571401966033 -4.2969401945231585e-17 -0.99863034092108982 forward_v I I I I #
coedge $-1 -1 $-1 $266 $267 $265 $268 forward $211 $-1 #
DXID-attrib $-1 -1 $-1 $214 $126 @18 ASM_EDGE_FROM_STEP @5 32588 #
color-adesk-attrib $-1 -1 $269 $216 $179 254 #
DXID-attrib $-1 -1 $-1 $219 $137 @18 ASM_EDGE_FROM_STEP @5 32603 #
DXID-attrib $-1 -1 $-1 $221 $97 @18 ASM_FACE_FROM_STEP @15 stp-2M-177-5755 #
DXID-attrib $-1 -1 $-1 $222 $150 @18 ASM_EDGE_FROM_STEP @5 32600 #
DXID-attrib $-1 -1 $-1 $224 $151 @18 ASM_EDGE_FROM_STEP @5 32599 #
DXID-attrib $-1 -1 $-1 $227 $161 @18 ASM_EDGE_FROM_STEP @5 32602 #
face $270 -1 $-1 $271 $272 $3 $-1 $273 forward single #
color-adesk-attrib $-1 -1 $274 $230 $204 254 #
point $-1 -1 $-1 -323.78561208974526 -541.56771150322015 -6.157836151058083 #
DXID-attrib $-1 -1 $-1 $233 $117 @18 ASM_FACE_FROM_STEP @15 stp-2M-177-5764 #
color-adesk-attrib $-1 -1 $275 $235 $207 254 #
point $-1 -1 $-1 -323.04442412841928 -440.41642900322012 7.9890427279758942 #
DXID-attrib $-1 -1 $-1 $238 $122 @18 ASM_FACE_FROM_STEP @15 stp-2M-177-5773 #
color-adesk-attrib $-1 -1 $276 $239 $171 254 #
truecolor-adesk-attrib $-1 -1 $277 $240 $210 -1026895378 #
fmesh-eye-attrib $-1 -1 $278 $-1 $241 #
face $279 -1 $-1 $280 $281 $3 $-1 $282 forward single #
loop $-1 -1 $-1 $-1 $283 $241 #
plane-surface $-1 -1 $-1 -322.73801359610366 -425.61642900322011 13.837427907056243 -0.45400422649716887 1.3246075012816985e-16 0.89099952992283216 -0.89099952992283216 1.4348994533540468e-16 -0.45400422649716876 forward_v I I I I #
coedge $-1 -1 $-1 $284 $285 $244 $268 reversed $242 $-1 #
coedge $-1 -1 $-1 $286 $244 $287 $288 forward $211 $-1 #
coedge $-1 -1 $-1 $244 $289 $283 $290 forward $211 $-1 #
edge $291 -1 $-1 $292 1.1102230246251565e-14 $293 13.856406459782091 $244 $294 forward @7 unknown #
DXID-attrib $-1 -1 $-1 $246 $179 @18 ASM_EDGE_FROM_STEP @5 32601 #
fmesh-eye-attrib $-1 -1 $295 $-1 $252 #
face $296 -1 $-1 $297 $298 $3 $-1 $299 forward single #
loop $-1 -1 $-1 $229 $300 $252 #
cone-surface $-1 -1 $-1 -323.46298869966608 -544.56771150322015 1.6086458393872928e-11 3.6173326610407337e-16 1 -6.1980385120090209e-17 -5.5754939278398146 2.0349469125568451e-15 0.29211312354450258 1 I I 0.1908089954039261 0.98162718344234157 5.5831409274999997 forward I I I I #
DXID-attrib $-1 -1 $301 $253 $204 @18 ASM_EDGE_FROM_STEP @5 32606 #
DXID-attrib $-1 -1 $302 $256 $207 @18 ASM_EDGE_FROM_STEP @5 32608 #
DXID-attrib $-1 -1 $-1 $259 $171 @18 ASM_FACE_FROM_STEP @15 stp-2M-177-5782 #
color-adesk-attrib $-1 -1 $303 $260 $210 254 #
truecolor-adesk-attrib $-1 -1 $304 $261 $241 -1026895378 #
fmesh-eye-attrib $-1 -1 $305 $-1 $262 #
face $306 -1 $-1 $307 $308 $3 $-1 $309 forward single #
loop $-1 -1 $-1 $-1 $310 $262 #
plane-surface $-1 -1 $-1 -311.11693705758762 -425.61642900322011 6.2908670966841553 0.54462611444574904 -5.8035562788722068e-17 0.83867895851972252 -0.83867895851972252 1.864593472815755e-16 0.54462611444574893 forward_v I I I I #
coedge $-1 -1 $-1 $311 $312 $267 $290 reversed $263 $-1 #
coedge $-1 -1 $-1 $313 $265 $312 $314 reversed $242 $-1 #
coedge $-1 -1 $-1 $265 $313 $315 $316 forward $242 $-1 #
coedge $-1 -1 $-1 $317 $266 $318 $319 forward $211 $-1 #
coedge $-1 -1 $-1 $315 $320 $266 $288 reversed $321 $-1 #
edge $322 -1 $-1 $293 0 $323 13.856406459782109 $266 $324 forward @7 unknown #
coedge $-1 -1 $-1 $267 $317 $310 $325 forward $211 $-1 #
edge $326 -1 $-1 $327 0 $292 13.85640645978212 $267 $328 forward @7 unknown #
truecolor-adesk-attrib $-1 -1 $329 $-1 $268 -1026895378 #
vertex $-1 -1 $-1 $268 $330 #
vertex $-1 -1 $-1 $268 $331 #
straight-curve $-1 -1 $-1 -335.08406523818923 -440.41642900322012 7.5465608102525259 -0.052320571401966158 -4.2969401945231561e-17 -0.99863034092108982 F 1.1102230246251565e-14 F 13.856406459782091 #
truecolor-adesk-attrib $-1 -1 $332 $270 $252 -1026895378 #
fmesh-eye-attrib $-1 -1 $333 $-1 $271 #
face $334 -1 $-1 $335 $336 $3 $-1 $337 forward single #
loop $-1 -1 $-1 $-1 $338 $271 #
plane-surface $-1 -1 $-1 -323.46298869966608 -567.56771150322015 1.6087838026102626e-11 -3.6173326610407332e-16 -1 6.1980385120090209e-17 0.99863034092108982 -3.6448066401720705e-16 -0.052320571401966033 forward_v I I I I #
coedge $-1 -1 $-1 $300 $300 $339 $340 reversed $272 $-1 #
DXID-attrib $-1 -1 $-1 $274 $204 @18 ASM_EDGE_FROM_STEP @5 32605 #
DXID-attrib $-1 -1 $-1 $275 $207 @18 ASM_EDGE_FROM_STEP @5 32607 #
DXID-attrib $-1 -1 $-1 $277 $210 @18 ASM_FACE_FROM_STEP @15 stp-2M-177-5791 #
color-adesk-attrib $-1 -1 $341 $278 $241 254 #
truecolor-adesk-attrib $-1 -1 $342 $279 $262 -1026895378 #
fmesh-eye-attrib $-1 -1 $343 $-1 $280 #
face $344 -1 $-1 $345 $346 $3 $-1 $347 forward single #
loop $-1 -1 $-1 $-1 $348 $280 #
plane-surface $-1 -1 $-1 -311.84191216114129 -425.61642900322011 -7.5465608101892157 0.99863034092108982 -1.9049631291272804e-16 -0.052320571401965908 0.052320571401965908 4.296940194523161e-17 0.99863034092108982 forward_v I I I I #
coedge $-1 -1 $-1 $349 $350 $289 $325 reversed $281 $-1 #
coedge $-1 -1 $-1 $351 $283 $350 $352 reversed $263 $-1 #
coedge $-1 -1 $-1 $283 $351 $284 $314 forward $263 $-1 #
coedge $-1 -1 $-1 $285 $284 $353 $354 forward $242 $-1 #
edge $355 -1 $-1 $356 0 $292 14.799999999999999 $284 $357 forward @7 unknown #
coedge $-1 -1 $-1 $358 $287 $285 $316 reversed $321 $-1 #
edge $359 -1 $-1 $360 0 $293 14.799999999999999 $285 $361 forward @7 unknown #
coedge $-1 -1 $-1 $289 $286 $348 $362 forward $211 $-1 #
coedge $-1 -1 $-1 $363 $364 $286 $319 reversed $346 $-1 #
edge $365 -1 $-1 $323 0 $366 13.856406459782109 $286 $367 forward @7 unknown #
coedge $-1 -1 $-1 $287 $358 $363 $368 forward $321 $-1 #
loop $-1 -1 $-1 $-1 $287 $345 #
truecolor-adesk-attrib $-1 -1 $369 $-1 $288 -1026895378 #
vertex $-1 -1 $-1 $288 $370 #
straight-curve $-1 -1 $-1 -335.8090403417429 -440.41642900322012 -6.2908670966208557 0.83867895851972285 -1.8645934728157558e-16 -0.54462611444574915 F 0 F 13.856406459782109 #
edge $371 -1 $-1 $372 -5.5511151232471174e-15 $327 13.856406459782113 $289 $373 forward @7 unknown #
truecolor-adesk-attrib $-1 -1 $374 $-1 $290 -1026895378 #
vertex $-1 -1 $-1 $325 $375 #
straight-curve $-1 -1 $-1 -322.73801359610366 -440.41642900322012 13.837427907056245 -0.89099952992283293 1.4348994533540482e-16 -0.45400422649716921 F 0 F 13.85640645978212 #
color-adesk-attrib $-1 -1 $376 $291 $268 254 #
point $-1 -1 $-1 -335.08406523818923 -440.41642900322012 7.5465608102525144 #
point $-1 -1 $-1 -335.8090403417429 -440.41642900322012 -6.2908670966208557 #
color-adesk-attrib $-1 -1 $377 $295 $252 254 #
truecolor-adesk-attrib $-1 -1 $378 $296 $271 -1026895378 #
fmesh-eye-attrib $-1 -1 $379 $-1 $297 #
face $380 -1 $-1 $381 $382 $3 $-1 $383 forward single #
loop $-1 -1 $-1 $384 $385 $297 #
cone-surface $-1 -1 $-1 -323.46298869966608 -541.56771150322015 1.608623630875807e-11 -3.6173326610407337e-16 -1 6.1980385120090209e-17 34.952061933571017 -1.2756823241088718e-14 -1.8312199991386433 1 I I 0 1 35.000000001334698 forward I I I I #
coedge $-1 -1 $-1 $338 $338 $385 $386 forward $298 $-1 #
coedge $-1 -1 $-1 $339 $339 $300 $340 forward $387 $-1 #
edge $388 -1 $-1 $389 -5.4977871437821371 $389 0.78539816339744906 $300 $390 forward @7 unknown #
DXID-attrib $-1 -1 $-1 $304 $241 @18 ASM_FACE_FROM_STEP @15 stp-2M-177-5800 #
color-adesk-attrib $-1 -1 $391 $305 $262 254 #
truecolor-adesk-attrib $-1 -1 $392 $306 $280 -1026895378 #
fmesh-eye-attrib $-1 -1 $393 $-1 $307 #
face $394 -1 $-1 $395 $321 $3 $-1 $396 forward single #
loop $-1 -1 $-1 $-1 $318 $307 #
plane-surface $-1 -1 $-1 -324.18796380322686 -425.61642900322011 -13.837427906992927 0.45400422649716887 -1.3246075012816985e-16 -0.89099952992283216 0.89099952992283216 -1.4348994533540468e-16 0.45400422649716876 forward_v I I I I #
coedge $-1 -1 $-1 $397 $398 $317 $362 reversed $308 $-1 #
coedge $-1 -1 $-1 $399 $310 $398 $400 reversed $281 $-1 #
coedge $-1 -1 $-1 $310 $399 $311 $352 forward $281 $-1 #
coedge $-1 -1 $-1 $312 $311 $401 $402 forward $263 $-1 #
edge $403 -1 $-1 $404 0 $327 14.799999999999999 $311 $405 forward @7 unknown #
coedge $-1 -1 $-1 $401 $406 $313 $354 reversed $407 $-1 #
edge $408 -1 $-1 $356 0 $360 13.856406459782079 $313 $409 forward @7 unknown #
truecolor-adesk-attrib $-1 -1 $410 $-1 $314 -1026895378 #
vertex $-1 -1 $-1 $314 $411 #
straight-curve $-1 -1 $-1 -335.08406523818923 -425.61642900322011 7.5465608102525135 -6.4987630559633388e-17 -1 1.0652755372643059e-16 F 0 F 14.799999999999999 #
coedge $-1 -1 $-1 $320 $315 $406 $412 forward $321 $-1 #
truecolor-adesk-attrib $-1 -1 $413 $-1 $316 -1026895378 #
vertex $-1 -1 $-1 $354 $414 #
straight-curve $-1 -1 $-1 -335.8090403417429 -425.61642900322011 -6.2908670966208566 -1.8798721424567289e-16 -1 5.2877424455303591e-17 F 0 F 14.799999999999999 #
edge $415 -1 $-1 $366 0 $372 13.856406459782079 $317 $416 forward @7 unknown #
coedge $-1 -1 $-1 $417 $318 $320 $368 reversed $346 $-1 #
coedge $-1 -1 $-1 $318 $417 $397 $418 forward $346 $-1 #
truecolor-adesk-attrib $-1 -1 $419 $-1 $319 -1026895378 #
vertex $-1 -1 $-1 $319 $420 #
straight-curve $-1 -1 $-1 -324.18796380322686 -440.41642900322012 -13.837427906992925 0.89099952992283293 -1.4348994533540482e-16 0.45400422649716921 F 0 F 13.856406459782109 #
edge $421 -1 $-1 $422 0 $323 14.799999999999999 $363 $423 forward @7 unknown #
color-adesk-attrib $-1 -1 $424 $322 $288 254 #
point $-1 -1 $-1 -324.18796380322686 -440.41642900322012 -13.837427906992925 #
truecolor-adesk-attrib $-1 -1 $425 $-1 $325 -1026895378 #
vertex $-1 -1 $-1 $362 $426 #
straight-curve $-1 -1 $-1 -311.11693705758762 -440.41642900322012 6.2908670966841669 -0.83867895851972285 1.8645934728157558e-16 0.54462611444574915 F -5.5511151232471174e-15 F 13.856406459782113 #
color-adesk-attrib $-1 -1 $427 $326 $290 254 #
point $-1 -1 $-1 -322.73801359610366 -440.41642900322012 13.837427907056245 #
DXID-attrib $-1 -1 $-1 $329 $268 @18 ASM_EDGE_FROM_STEP @5 32609 #
DXID-attrib $-1 -1 $-1 $332 $252 @18 ASM_FACE_FROM_STEP @15 stp-2M-177-5872 #
color-adesk-attrib $-1 -1 $428 $333 $271 254 #
truecolor-adesk-attrib $-1 -1 $429 $334 $297 -1026895378 #
fmesh-eye-attrib $-1 -1 $430 $-1 $335 #
face $431 -1 $-1 $432 $433 $3 $-1 $434 forward single #
loop $-1 -1 $-1 $435 $436 $335 #
plane-surface $-1 -1 $-1 -288.51092676609511 -565.56771150237205 -1.8312199991225555 -3.6173326610407332e-16 -1 6.1980385120090209e-17 0.99863034092108982 -3.6448066401720705e-16 -0.052320571401966033 forward_v I I I I #
loop $-1 -1 $-1 $-1 $437 $297 #
coedge $-1 -1 $-1 $385 $385 $338 $386 reversed $336 $-1 #
edge $438 -1 $-1 $439 -1.9843798716155997e-64 $439 6.2831853071795862 $338 $440 forward @7 unknown #
loop $-1 -1 $-1 $-1 $339 $441 #
truecolor-adesk-attrib $-1 -1 $442 $-1 $340 -1026895378 #
vertex $-1 -1 $-1 $340 $443 #
ellipse-curve $-1 -1 $-1 -323.46298869966608 -547.56771150322015 1.6086687537608668e-11 -3.6173326610407332e-16 -1 6.1980385120090209e-17 3.3457102756502537 -1.4405535231847313e-15 -3.71567258398911 1 I I #
DXID-attrib $-1 -1 $-1 $342 $262 @18 ASM_FACE_FROM_STEP @15 stp-2M-177-5809 #
color-adesk-attrib $-1 -1 $444 $343 $280 254 #
truecolor-adesk-attrib $-1 -1 $445 $344 $307 -1026895378 #
fmesh-eye-attrib $-1 -1 $446 $-1 $345 #
face $447 -1 $-1 $448 $407 $3 $-1 $449 reversed single #
plane-surface $-1 -1 $-1 -335.8090403417429 -425.61642900322011 -6.2908670966208566 -0.54462611444574904 5.8035562788722068e-17 -0.83867895851972252 0.83867895851972252 -1.864593472815755e-16 -0.54462611444574893 forward_v I I I I #
coedge $-1 -1 $-1 $450 $348 $364 $418 reversed $308 $-1 #
coedge $-1 -1 $-1 $348 $450 $349 $400 forward $308 $-1 #
coedge $-1 -1 $-1 $350 $349 $451 $452 forward $281 $-1 #
edge $453 -1 $-1 $454 0 $372 14.799999999999999 $349 $455 forward @7 unknown #
coedge $-1 -1 $-1 $451 $353 $351 $402 reversed $407 $-1 #
edge $456 -1 $-1 $404 0 $356 13.85640645978212 $351 $457 forward @7 unknown #
truecolor-adesk-attrib $-1 -1 $458 $-1 $352 -1026895378 #
vertex $-1 -1 $-1 $352 $459 #
straight-curve $-1 -1 $-1 -322.73801359610366 -425.61642900322011 13.837427907056243 -1.8798721424567289e-16 -1 5.2877424455303591e-17 F 0 F 14.799999999999999 #
coedge $-1 -1 $-1 $353 $460 $358 $412 reversed $407 $-1 #
loop $-1 -1 $-1 $461 $353 $395 #
truecolor-adesk-attrib $-1 -1 $462 $-1 $354 -1026895378 #
straight-curve $-1 -1 $-1 -335.08406523818923 -425.61642900322011 7.5465608102525135 -0.052320571401966033 -4.2969401945231585e-17 -0.99863034092108982 F 0 F 13.856406459782079 #
color-adesk-attrib $-1 -1 $463 $355 $314 254 #
point $-1 -1 $-1 -335.08406523818923 -425.61642900322011 7.5465608102525135 #
edge $464 -1 $-1 $360 0 $422 13.856406459782109 $358 $465 forward @7 unknown #
color-adesk-attrib $-1 -1 $466 $359 $316 254 #
point $-1 -1 $-1 -335.8090403417429 -425.61642900322011 -6.2908670966208566 #
truecolor-adesk-attrib $-1 -1 $467 $-1 $362 -1026895378 #
straight-curve $-1 -1 $-1 -311.84191216114129 -440.41642900322012 -7.5465608101892148 0.052320571401966033 4.2969401945231585e-17 0.99863034092108982 F 0 F 13.856406459782079 #
coedge $-1 -1 $-1 $364 $363 $460 $468 forward $346 $-1 #
edge $469 -1 $-1 $470 0 $366 14.799999999999999 $397 $471 forward @7 unknown #
color-adesk-attrib $-1 -1 $472 $365 $319 254 #
point $-1 -1 $-1 -311.84191216114129 -440.41642900322012 -7.5465608101892148 #
truecolor-adesk-attrib $-1 -1 $473 $-1 $368 -1026895378 #
vertex $-1 -1 $-1 $368 $474 #
straight-curve $-1 -1 $-1 -324.18796380322686 -425.61642900322011 -13.837427906992927 -1.8798721424567289e-16 -1 5.2877424455303591e-17 F 0 F 14.799999999999999 #
DXID-attrib $-1 -1 $-1 $369 $288 @18 ASM_EDGE_FROM_STEP @5 32610 #
color-adesk-attrib $-1 -1 $475 $371 $325 254 #
point $-1 -1 $-1 -311.11693705758762 -440.41642900322012 6.2908670966841553 #
DXID-attrib $-1 -1 $-1 $374 $290 @18 ASM_EDGE_FROM_STEP @5 32614 #
DXID-attrib $-1 -1 $-1 $378 $271 @18 ASM_FACE_FROM_STEP @15 stp-2M-177-5881 #
color-adesk-attrib $-1 -1 $476 $379 $297 254 #
truecolor-adesk-attrib $-1 -1 $477 $380 $335 -1026895378 #
fmesh-eye-attrib $-1 -1 $478 $-1 $381 #
face $479 -1 $-1 $480 $481 $3 $-1 $482 forward single #
loop $-1 -1 $-1 $483 $484 $381 #
cone-surface $-1 -1 $-1 -323.46298869966608 -541.56771150322015 1.608623630875807e-11 -3.6173326610407332e-16 -1 6.1980385120090209e-17 39.9452136372105 -1.4579226560822195e-14 -2.0928228560978641 1 I I 0 1 40.000000000367407 forward I I I I #
loop $-1 -1 $-1 $-1 $485 $335 #
coedge $-1 -1 $-1 $436 $436 $484 $486 forward $382 $-1 #
coedge $-1 -1 $-1 $437 $437 $485 $487 forward $384 $-1 #
truecolor-adesk-attrib $-1 -1 $488 $-1 $386 -1026895378 #
vertex $-1 -1 $-1 $386 $489 #
ellipse-curve $-1 -1 $-1 -323.46298869966608 -567.56771150322015 1.6087883406964369e-11 -3.6173326610407337e-16 -1 6.1980385120090209e-17 34.952061933571017 -1.2756823241088718e-14 -1.8312199991386433 1 I I #
face $490 -1 $-1 $491 $492 $3 $-1 $493 forward single #
color-adesk-attrib $-1 -1 $494 $388 $340 254 #
point $-1 -1 $-1 -318.46983699506063 -547.56771150322015 -0.26160285699374336 #
DXID-attrib $-1 -1 $-1 $392 $280 @18 ASM_FACE_FROM_STEP @15 stp-2M-177-5818 #
color-adesk-attrib $-1 -1 $495 $393 $307 254 #
truecolor-adesk-attrib $-1 -1 $496 $394 $345 -1026895378 #
fmesh-eye-attrib $-1 -1 $497 $-1 $395 #
face $498 -1 $-1 $499 $500 $3 $-1 $501 forward single #
plane-surface $-1 -1 $-1 -335.8090403417429 -425.61642900322011 -6.2908670966208566 -1.8798721424567289e-16 -1 5.2877424455303591e-17 -0.052320571401966033 -4.2969401945231585e-17 -0.99863034092108982 forward_v I I I I #
coedge $-1 -1 $-1 $398 $397 $502 $503 forward $308 $-1 #
coedge $-1 -1 $-1 $502 $401 $399 $452 reversed $407 $-1 #
edge $504 -1 $-1 $454 0 $404 13.85640645978212 $399 $505 forward @7 unknown #
truecolor-adesk-attrib $-1 -1 $506 $-1 $400 -1026895378 #
vertex $-1 -1 $-1 $400 $507 #
straight-curve $-1 -1 $-1 -311.11693705758768 -425.61642900322011 6.2908670966841598 -1.8798721424567289e-16 -1 5.2877424455303591e-17 F 0 F 14.799999999999999 #
truecolor-adesk-attrib $-1 -1 $508 $-1 $402 -1026895378 #
straight-curve $-1 -1 $-1 -322.73801359610366 -425.61642900322011 13.837427907056243 -0.89099952992283293 1.4348994533540482e-16 -0.45400422649716921 F 0 F 13.85640645978212 #
color-adesk-attrib $-1 -1 $509 $403 $352 254 #
point $-1 -1 $-1 -322.73801359610366 -425.61642900322011 13.837427907056243 #
coedge $-1 -1 $-1 $406 $502 $417 $468 reversed $407 $-1 #
loop $-1 -1 $-1 $-1 $510 $395 #
color-adesk-attrib $-1 -1 $511 $408 $354 254 #
DXID-attrib $-1 -1 $-1 $410 $314 @18 ASM_EDGE_FROM_STEP @5 32615 #
truecolor-adesk-attrib $-1 -1 $512 $-1 $412 -1026895378 #
straight-curve $-1 -1 $-1 -335.8090403417429 -425.61642900322011 -6.2908670966208566 0.83867895851972285 -1.8645934728157558e-16 -0.54462611444574915 F 0 F 13.856406459782109 #
DXID-attrib $-1 -1 $-1 $413 $316 @18 ASM_EDGE_FROM_STEP @5 32617 #
color-adesk-attrib $-1 -1 $513 $415 $362 254 #
edge $514 -1 $-1 $422 0 $470 13.856406459782109 $417 $515 forward @7 unknown #
truecolor-adesk-attrib $-1 -1 $516 $-1 $418 -1026895378 #
vertex $-1 -1 $-1 $418 $517 #
straight-curve $-1 -1 $-1 -311.84191216114129 -425.61642900322011 -7.5465608101892157 -1.8798721424567289e-16 -1 5.2877424455303591e-17 F 0 F 14.799999999999999 #
DXID-attrib $-1 -1 $-1 $419 $319 @18 ASM_EDGE_FROM_STEP @5 32611 #
color-adesk-attrib $-1 -1 $518 $421 $368 254 #
point $-1 -1 $-1 -324.18796380322686 -425.61642900322011 -13.837427906992927 #
DXID-attrib $-1 -1 $-1 $425 $325 @18 ASM_EDGE_FROM_STEP @5 32613 #
DXID-attrib $-1 -1 $-1 $429 $297 @18 ASM_FACE_FROM_STEP @15 stp-2M-177-5890 #
color-adesk-attrib $-1 -1 $519 $430 $335 254 #
truecolor-adesk-attrib $-1 -1 $520 $431 $381 -1026895378 #
fmesh-eye-attrib $-1 -1 $521 $-1 $432 #
face $522 -1 $-1 $441 $523 $3 $-1 $524 forward single #
loop $-1 -1 $-1 $-1 $525 $432 #
spline-surface $-1 -1 $-1 forward { exactsur full nurbs 3 3 both open periodic none none 2 3 
	0 3 1 3 
	0 3 0.500000000000001 3 1 3 
	-283.5177750624556 -559.31877970237213 -2.092822856081777 1 
	-283.51777506240501 -558.36261771515012 -2.0928228560844291 1 
	-284.26379945686682 -557.29605786980414 -2.0537368990504703 1 
	-285.1611634357962 -556.96929614349017 -2.0067219084085655 1 
	-279.33212935025989 -559.31877970237213 77.797604418339233 0.33333333333333398 
	-279.33212935020396 -558.36261771515012 77.797604418437814 0.33333333333333398 
	-280.15632565873375 -557.29605786980414 76.344641586547979 0.33333333333333398 
	-281.14771961894689 -556.96929614349017 74.596928619331209 0.33333333333333398 
	-359.22255662468086 -559.31877970237213 81.983250130534955 0.33333333333333398 
	-359.22255662472622 -558.36261771515001 81.983250130638751 0.33333333333333398 
	-358.55470414433228 -557.29605786980414 80.452115384681093 0.33333333333333398 
	-357.75137014668672 -556.96929614349006 78.610372436180413 0.33333333333333398 
	-363.40820233687663 -559.31877970237213 2.0928228561139512 1 
	-363.40820233692722 -558.36261771515012 2.0928228561166033 1 
	-362.66217794246535 -557.29605786980414 2.0537368990826446 1 
	-361.76481396353597 -556.96929614349006 2.0067219084407397 1 
	-367.59384804907234 -559.31877970237213 -77.797604418307046 0.33333333333333398 
	-367.59384804912827 -558.36261771515001 -77.797604418405527 0.33333333333333398 
	-366.76965174059848 -557.29605786980414 -76.344641586515792 0.33333333333333398 
	-365.77825778038527 -556.96929614349006 -74.596928619298936 0.33333333333333398 
	-287.70342077465131 -559.31877970237213 -81.983250130502768 0.33333333333333398 
	-287.703420774606 -558.36261771515012 -81.983250130606663 0.33333333333333398 
	-288.37127325499995 -557.29605786980414 -80.452115384648906 0.33333333333333398 
	-289.1746072526455 -556.96929614349017 -78.610372436148339 0.33333333333333398 
	-283.5177750624556 -559.31877970237213 -2.092822856081777 1 
	-283.51777506240501 -558.36261771515012 -2.0928228560844291 1 
	-284.26379945686682 -557.29605786980414 -2.0537368990504703 1 
	-285.1611634357962 -556.96929614349017 -2.0067219084085655 1 
	0 
	0 
	0 
	0 
	0 
	0 
	0 
	F 1 F 0 F 1 F 0 } I I I I #
loop $-1 -1 $-1 $-1 $526 $381 #
coedge $-1 -1 $-1 $484 $484 $436 $486 reversed $433 $-1 #
coedge $-1 -1 $-1 $485 $485 $437 $487 reversed $435 $-1 #
edge $527 -1 $-1 $528 -1.1415902155915284e-49 $528 6.2831853071795862 $436 $529 forward @7 unknown #
edge $530 -1 $-1 $531 -1.9843798716155997e-64 $531 6.2831853071795862 $437 $532 forward @7 unknown #
color-adesk-attrib $-1 -1 $533 $438 $386 254 #
point $-1 -1 $-1 -288.51092676609511 -567.56771150322015 -1.8312199991225553 #
fmesh-eye-attrib $-1 -1 $534 $-1 $441 #
face $535 -1 $-1 $-1 $536 $3 $-1 $537 forward single #
loop $-1 -1 $-1 $387 $538 $441 #
plane-surface $-1 -1 $-1 -310.98010943842797 -547.56771150322015 -0.65400714249405334 3.6173326610407332e-16 1 -6.1980385120090209e-17 -0.99863034092108982 3.6448066401720705e-16 0.052320571401966033 forward_v I I I I #
DXID-attrib $-1 -1 $539 $442 $340 @18 ASM_EDGE_FROM_STEP @5 32633 #
DXID-attrib $-1 -1 $-1 $445 $307 @18 ASM_FACE_FROM_STEP @15 stp-2M-177-5827 #
color-adesk-attrib $-1 -1 $540 $446 $345 254 #
truecolor-adesk-attrib $-1 -1 $541 $447 $395 -1026895378 #
fmesh-eye-attrib $-1 -1 $542 $-1 $448 #
face $543 -1 $-1 $252 $544 $3 $-1 $545 forward single #
loop $-1 -1 $-1 $546 $547 $448 #
cone-surface $-1 -1 $-1 -323.46298869966608 -392.5677115032201 1.60742536080824e-11 -1.8798721424567289e-16 -1 5.2877424455303591e-17 -0.418564571214255 -3.4375521556064272e-16 -7.9890427273405979 1 I I 0 1 7.9999999999718412 forward I I I I #
coedge $-1 -1 $-1 $460 $451 $450 $503 reversed $407 $-1 #
edge $548 -1 $-1 $470 0 $454 13.856406459782079 $450 $549 forward @7 unknown #
truecolor-adesk-attrib $-1 -1 $550 $-1 $452 -1026895378 #
straight-curve $-1 -1 $-1 -311.11693705758762 -425.61642900322011 6.2908670966841553 -0.83867895851972285 1.8645934728157558e-16 0.54462611444574915 F 0 F 13.85640645978212 #
color-adesk-attrib $-1 -1 $551 $453 $400 254 #
point $-1 -1 $-1 -311.11693705758762 -425.61642900322011 6.2908670966841553 #
color-adesk-attrib $-1 -1 $552 $456 $402 254 #
DXID-attrib $-1 -1 $-1 $458 $352 @18 ASM_EDGE_FROM_STEP @5 32618 #
coedge $-1 -1 $-1 $510 $510 $547 $553 forward $461 $-1 #
DXID-attrib $-1 -1 $-1 $462 $354 @18 ASM_EDGE_FROM_STEP @5 32616 #
color-adesk-attrib $-1 -1 $554 $464 $412 254 #
DXID-attrib $-1 -1 $-1 $467 $362 @18 ASM_EDGE_FROM_STEP @5 32612 #
truecolor-adesk-attrib $-1 -1 $555 $-1 $468 -1026895378 #
straight-curve $-1 -1 $-1 -324.18796380322686 -425.61642900322011 -13.837427906992927 0.89099952992283293 -1.4348994533540482e-16 0.45400422649716921 F 0 F 13.856406459782109 #
color-adesk-attrib $-1 -1 $556 $469 $418 254 #
point $-1 -1 $-1 -311.84191216114129 -425.61642900322011 -7.5465608101892157 #
DXID-attrib $-1 -1 $-1 $473 $368 @18 ASM_EDGE_FROM_STEP @5 32624 #
DXID-attrib $-1 -1 $-1 $477 $335 @18 ASM_FACE_FROM_STEP @15 stp-2M-177-5899 #
color-adesk-attrib $-1 -1 $557 $478 $381 254 #
truecolor-adesk-attrib $-1 -1 $558 $479 $432 -1026895378 #
fmesh-eye-attrib $-1 -1 $559 $-1 $480 #
loop $-1 -1 $-1 $560 $561 $480 #
cone-surface $-1 -1 $-1 -323.46298869966608 -552.2685038233551 1.6086895490553236e-11 -3.6173326610407332e-16 -1 6.1980385120090209e-17 25.392352262553942 -9.2677150236373674e-15 -1.3303645254673937 1 I I 0.93979342305366487 0.34174306428232804 25.427178828888 forward I I I I #
coedge $-1 -1 $-1 $562 $563 $561 $564 forward $481 $565 #
coedge $-1 -1 $-1 $526 $526 $566 $567 forward $483 $-1 #
truecolor-adesk-attrib $-1 -1 $568 $-1 $486 -1026895378 #
vertex $-1 -1 $-1 $486 $569 #
ellipse-curve $-1 -1 $-1 -323.46298869966608 -565.56771150237205 1.608773227125367e-11 -3.6173326610407332e-16 -1 6.1980385120090209e-17 39.9452136372105 -1.4579226560822195e-14 -2.0928228560978641 1 I I #
truecolor-adesk-attrib $-1 -1 $570 $-1 $487 -1026895378 #
vertex $-1 -1 $-1 $487 $571 #
ellipse-curve $-1 -1 $-1 -323.46298869966608 -565.56771150237205 1.608773227125367e-11 -3.6173326610407337e-16 -1 6.1980385120090209e-17 34.952061933571017 -1.2756823241088718e-14 -1.8312199991386433 1 I I #
DXID-attrib $-1 -1 $-1 $488 $386 @18 ASM_EDGE_FROM_STEP @5 32634 #
truecolor-adesk-attrib $-1 -1 $572 $490 $441 -1026895378 #
fmesh-eye-attrib $-1 -1 $573 $-1 $491 #
loop $-1 -1 $-1 $574 $575 $491 #
cone-surface $-1 -1 $-1 -323.46298869966608 -393.06771150315024 1.6078610915535173e-11 -1.8798721424567289e-16 -1 5.2877424455303591e-17 -0.39240428550944839 -3.2227051458488671e-16 -7.4897275568070736 1 I I 0.70710678128765581 0.70710678108543923 7.499999999898761 forward I I I I #
coedge $-1 -1 $-1 $538 $538 $576 $577 reversed $492 $-1 #
DXID-attrib $-1 -1 $-1 $494 $340 @18 ASM_EDGE_FROM_STEP @5 32632 #
DXID-attrib $-1 -1 $-1 $496 $345 @18 ASM_FACE_FROM_STEP @15 stp-2M-177-5836 #
color-adesk-attrib $-1 -1 $578 $497 $395 254 #
truecolor-adesk-attrib $-1 -1 $579 $498 $448 -1026895378 #
fmesh-eye-attrib $-1 -1 $580 $-1 $499 #
loop $-1 -1 $-1 $-1 $581 $499 #
plane-surface $-1 -1 $-1 -315.47394597232545 -392.5677115032201 -0.41856457119817642 1.8798721424567289e-16 1 -5.2877424455303591e-17 0.052320571401966033 4.2969401945231585e-17 0.99863034092108982 forward_v I I I I #
loop $-1 -1 $-1 $-1 $582 $448 #
coedge $-1 -1 $-1 $547 $547 $510 $553 reversed $500 $-1 #
truecolor-adesk-attrib $-1 -1 $583 $-1 $503 -1026895378 #
straight-curve $-1 -1 $-1 -311.84191216114129 -425.61642900322011 -7.5465608101892157 0.052320571401965908 4.296940194523161e-17 0.99863034092108982 F 0 F 13.856406459782079 #
color-adesk-attrib $-1 -1 $584 $504 $452 254 #
DXID-attrib $-1 -1 $-1 $506 $400 @18 ASM_EDGE_FROM_STEP @5 32620 #
DXID-attrib $-1 -1 $-1 $508 $402 @18 ASM_EDGE_FROM_STEP @5 32619 #
edge $585 -1 $-1 $586 -1.5707963267948966 $586 4.7123889803846897 $510 $587 forward @7 unknown #
DXID-attrib $-1 -1 $-1 $512 $412 @18 ASM_EDGE_FROM_STEP @5 32626 #
color-adesk-attrib $-1 -1 $588 $514 $468 254 #
DXID-attrib $-1 -1 $-1 $516 $418 @18 ASM_EDGE_FROM_STEP @5 32622 #
DXID-attrib $-1 -1 $-1 $520 $381 @18 ASM_FACE_FROM_STEP @15 stp-2M-177-5908 #
color-adesk-attrib $-1 -1 $589 $521 $432 254 #
truecolor-adesk-attrib $-1 -1 $590 $522 $480 -1026895378 #
loop $-1 -1 $-1 $-1 $576 $480 #
coedge $-1 -1 $-1 $561 $561 $525 $564 reversed $523 $-1 #
coedge $-1 -1 $-1 $566 $525 $563 $591 forward $481 $592 #
coedge $-1 -1 $-1 $525 $566 $562 $591 reversed $481 $593 #
edge $594 -1 $-1 $595 -3.8098290916463905e-49 $595 6.2831853071795862 $525 $596 forward @7 unknown #
pcurve $-1 -1 $-1 0 forward { exppc nubs 3 periodic 3 
	-3.2373492825030399e-49 3 2.9283109216233845 3 6.2831853071795862 3 
	1 1.0803376732647074e-31 
	1 0.24402591013528205 
	1 0.2502554121470506 
	1 0.45165202259881132 
	1 0.68238583052651691 
	1 0.72042713453698437 
	1 1 
	6.4797235992527928e-10 
	spline forward { ref 0 } I I I I 
	} 0 0 #
coedge $-1 -1 $-1 $563 $562 $526 $567 reversed $481 $597 #
edge $598 -1 $-1 $599 1.4602072068748293e-34 $599 6.2831853071795862 $526 $600 forward @7 unknown #
color-adesk-attrib $-1 -1 $601 $527 $486 254 #
point $-1 -1 $-1 -283.5177750624556 -565.56771150237205 -2.0928228560817765 #
color-adesk-attrib $-1 -1 $602 $530 $487 254 #
point $-1 -1 $-1 -288.51092676609511 -565.56771150237205 -1.8312199991225555 #
color-adesk-attrib $-1 -1 $603 $534 $441 254 #
truecolor-adesk-attrib $-1 -1 $604 $535 $491 -1026895378 #
loop $-1 -1 $-1 $-1 $605 $491 #
coedge $-1 -1 $-1 $575 $575 $582 $606 reversed $536 $-1 #
coedge $-1 -1 $-1 $576 $576 $538 $577 forward $560 $-1 #
edge $607 -1 $-1 $608 -1.9446922744174534e-64 $608 6.2831853071795862 $576 $609 forward @7 unknown #
DXID-attrib $-1 -1 $-1 $541 $395 @18 ASM_FACE_FROM_STEP @15 stp-2M-177-5845 #
color-adesk-attrib $-1 -1 $610 $542 $448 254 #
truecolor-adesk-attrib $-1 -1 $611 $543 $499 -1026895378 #
coedge $-1 -1 $-1 $581 $581 $605 $612 forward $544 $-1 #
coedge $-1 -1 $-1 $582 $582 $575 $606 forward $546 $-1 #
color-adesk-attrib $-1 -1 $613 $548 $503 254 #
DXID-attrib $-1 -1 $-1 $550 $452 @18 ASM_EDGE_FROM_STEP @5 32621 #
truecolor-adesk-attrib $-1 -1 $614 $-1 $553 -1026895378 #
vertex $-1 -1 $-1 $553 $615 #
ellipse-curve $-1 -1 $-1 -323.46298869966608 -425.61642900322011 1.6080332007885899e-11 -1.8798721424567289e-16 -1 5.2877424455303591e-17 -0.418564571214255 -3.4375521556064272e-16 -7.9890427273405979 1 I I #
DXID-attrib $-1 -1 $-1 $555 $468 @18 ASM_EDGE_FROM_STEP @5 32625 #
DXID-attrib $-1 -1 $-1 $558 $432 @18 ASM_FACE_FROM_STEP @15 stp-2M-177-5917 #
color-adesk-attrib $-1 -1 $616 $559 $480 254 #
edge $617 -1 $-1 $595 -1 $599 0 $562 $618 forward @7 unknown #
pcurve $-1 -1 $-1 0 forward { exppc nubs 1 open 2 
	-1 1 0 1 
	1 0.99999999999999989 
	0 0.99999999999999989 
	0 
	spline forward { ref 0 } I I I I 
	} 0 0 #
pcurve $-1 -1 $-1 0 reversed { ref 2 } 0 -1 #
truecolor-adesk-attrib $-1 -1 $619 $-1 $564 -1026895378 #
vertex $-1 -1 $-1 $564 $620 #
ellipse-curve $-1 -1 $-1 -323.46298869966608 -556.96929614349006 1.6087186847471609e-11 -3.6173326610407332e-16 -1 6.1980385120090209e-17 38.301825263869787 -1.3979421747160207e-14 -2.0067219084246473 1 I I #
pcurve $-1 -1 $-1 0 forward { exppc nubs 3 periodic 3 
	-6.2831853071795862 3 -3.3689741430275664 3 -1.4602072068748299e-34 3 
	0 0.99999999999999989 
	6.0155763958922242e-15 0.7571490696539992 
	1.3157343819721771e-14 0.74941728555959419 
	7.6730474753490599e-15 0.55124073741438651 
	1.3329260715973976e-15 0.32213871671372241 
	6.9543077668910404e-15 0.28074784525229707 
	0 -1.1102230246251565e-16 
	4.1306785462255682e-10 
	spline forward { ref 0 } I I I I 
	} 0 0 #
truecolor-adesk-attrib $-1 -1 $621 $-1 $567 -1026895378 #
vertex $-1 -1 $-1 $567 $622 #
ellipse-curve $-1 -1 $-1 -323.46298869966608 -559.31877970237213 1.6087336526801347e-11 -3.6173326610407332e-16 -1 6.1980385120090209e-17 39.9452136372105 -1.4579226560822195e-14 -2.0928228560978641 1 I I #
DXID-attrib $-1 -1 $-1 $568 $486 @18 ASM_EDGE_FROM_STEP @5 32636 #
DXID-attrib $-1 -1 $-1 $570 $487 @18 ASM_EDGE_FROM_STEP @5 32635 #
DXID-attrib $-1 -1 $-1 $572 $441 @18 ASM_FACE_FROM_STEP @15 stp-2M-177-5935 #
color-adesk-attrib $-1 -1 $623 $573 $491 254 #
coedge $-1 -1 $-1 $605 $605 $581 $612 reversed $574 $-1 #
edge $624 -1 $-1 $625 -4.7123889803846897 $625 1.5707963267948966 $582 $626 forward @7 unknown #
truecolor-adesk-attrib $-1 -1 $627 $-1 $577 -1026895378 #
vertex $-1 -1 $-1 $577 $628 #
ellipse-curve $-1 -1 $-1 -323.46298869966608 -547.56771150322015 1.6086687537608668e-11 -3.6173326610407337e-16 -1 6.1980385120090209e-17 12.482879261238098 -4.5560083001145276e-15 -0.65400714251014003 1 I I #
DXID-attrib $-1 -1 $-1 $579 $448 @18 ASM_FACE_FROM_STEP @15 stp-2M-177-5854 #
color-adesk-attrib $-1 -1 $629 $580 $499 254 #
edge $630 -1 $-1 $631 0 $631 6.2831853071795862 $581 $632 forward @7 unknown #
DXID-attrib $-1 -1 $-1 $583 $503 @18 ASM_EDGE_FROM_STEP @5 32623 #
color-adesk-attrib $-1 -1 $633 $585 $553 254 #
point $-1 -1 $-1 -331.45203142700666 -425.61642900322011 0.41856457123033475 #
DXID-attrib $-1 -1 $-1 $590 $480 @18 ASM_FACE_FROM_STEP @15 stp-2M-177-5926 #
truecolor-adesk-attrib $-1 -1 $634 $-1 $591 -1026895378 #
intcurve-curve $-1 -1 $-1 reversed { parcur full nurbs 3 open 2 
	0 3 1 3 
	-283.5177750624556 -559.31877970237213 -2.092822856081777 1 
	-283.51777506240501 -558.36261771515012 -2.0928228560844291 1 
	-284.26379945686682 -557.29605786980414 -2.0537368990504703 1 
	-285.1611634357962 -556.96929614349017 -2.0067219084085655 1 
	0 
	spline forward { ref 0 } I I I I 
	null_surface 
	nubs 1 open 2 
	0 1 1 1 
	0 0.99999999999999989 
	1 0.99999999999999989 
	
	nullbs 
	I I 
	0 
	0 
	0 
	surf1 } I I #
color-adesk-attrib $-1 -1 $635 $594 $564 254 #
point $-1 -1 $-1 -285.1611634357962 -556.96929614349017 -2.0067219084085655 #
color-adesk-attrib $-1 -1 $636 $598 $567 254 #
point $-1 -1 $-1 -283.5177750624556 -559.31877970237213 -2.092822856081777 #
DXID-attrib $-1 -1 $-1 $604 $491 @18 ASM_FACE_FROM_STEP @15 stp-2M-177-5944 #
truecolor-adesk-attrib $-1 -1 $637 $-1 $606 -1026895378 #
vertex $-1 -1 $-1 $606 $638 #
ellipse-curve $-1 -1 $-1 -323.46298869966608 -393.56771150308032 1.6074306485506849e-11 -1.8798721424567289e-16 -1 5.2877424455303591e-17 0.41856457121425794 3.4375521556064218e-16 7.9890427273405979 1 I I #
color-adesk-attrib $-1 -1 $639 $607 $577 254 #
point $-1 -1 $-1 -310.98010943842797 -547.56771150322015 -0.65400714249405334 #
DXID-attrib $-1 -1 $-1 $611 $499 @18 ASM_FACE_FROM_STEP @15 stp-2M-177-5863 #
truecolor-adesk-attrib $-1 -1 $640 $-1 $612 -1026895378 #
vertex $-1 -1 $-1 $612 $641 #
ellipse-curve $-1 -1 $-1 -323.46298869966608 -392.5677115032201 1.60742536080824e-11 1.8798721424567289e-16 1 -5.2877424455303591e-17 0.36624399980464117 3.0078581360913027e-16 6.9904123862735377 1 I I #
DXID-attrib $-1 -1 $642 $614 $553 @18 ASM_EDGE_FROM_STEP @5 32628 #
color-adesk-attrib $-1 -1 $-1 $617 $591 254 #
DXID-attrib $-1 -1 $-1 $619 $564 @18 ASM_EDGE_FROM_STEP @5 32638 #
DXID-attrib $-1 -1 $-1 $621 $567 @18 ASM_EDGE_FROM_STEP @5 32637 #
color-adesk-attrib $-1 -1 $643 $624 $606 254 #
point $-1 -1 $-1 -331.45203142700666 -393.56771150308032 0.41856457123033197 #
DXID-attrib $-1 -1 $-1 $627 $577 @18 ASM_EDGE_FROM_STEP @5 32639 #
color-adesk-attrib $-1 -1 $644 $630 $612 254 #
point $-1 -1 $-1 -323.0967446998614 -392.5677115032201 6.9904123862896164 #
DXID-attrib $-1 -1 $-1 $633 $553 @18 ASM_EDGE_FROM_STEP @5 32627 #
DXID-attrib $-1 -1 $645 $637 $606 @18 ASM_EDGE_FROM_STEP @5 32630 #
DXID-attrib $-1 -1 $-1 $640 $612 @18 ASM_EDGE_FROM_STEP @5 32631 #
DXID-attrib $-1 -1 $-1 $643 $606 @18 ASM_EDGE_FROM_STEP @5 32629 #
