700 244 1 0         
5 ZWCAD 12 ACIS 28.0 NT 24 Sat May 11 15:57:49 2024 
1 9.9999999999999995e-07 1e-10 
body $1 -1 $-1 $2 $-1 $-1 #
DXID-attrib $-1 -1 $-1 $-1 $0 @18 ASM_BODY_FROM_STEP @83 B78A2E3CA44299F613F7609C51BC81A30351E0DA|:|68BB2CA7AF50BBAE19D52998FFC71D0D15511AB6 #
lump $-1 -1 $-1 $-1 $3 $0 #
shell $-1 -1 $-1 $-1 $-1 $4 $-1 $2 #
face $5 -1 $-1 $6 $7 $3 $-1 $8 forward single #
truecolor-adesk-attrib $-1 -1 $9 $-1 $4 -1056964608 #
face $10 -1 $-1 $11 $12 $3 $-1 $13 forward single #
loop $-1 -1 $-1 $-1 $14 $4 #
torus-surface $-1 -1 $-1 -1202.4071360467351 -3543.3953035495806 1534.9999999999998 1 -1.8369701987210297e-16 0 25 12.000000000000002 1.8369701987210297e-16 1 0 forward_v I I I I #
fmesh-eye-attrib $-1 -1 $15 $5 $4 #
truecolor-adesk-attrib $-1 -1 $16 $-1 $6 -1056964608 #
face $17 -1 $-1 $18 $19 $3 $-1 $20 forward single #
loop $-1 -1 $-1 $-1 $21 $6 #
torus-surface $-1 -1 $-1 -1202.4071360467351 -3543.3953035495806 1534.9999999999998 1 -1.8369701987210297e-16 0 25 12.000000000000002 -1.8369701987210297e-16 -1 0 forward_v I I I I #
coedge $-1 -1 $-1 $22 $23 $24 $25 forward $7 $-1 #
DXID-attrib $-1 -1 $-1 $9 $4 @18 ASM_FACE_FROM_STEP @15 stp-1M-143-6928 #
fmesh-eye-attrib $-1 -1 $26 $10 $6 #
truecolor-adesk-attrib $-1 -1 $27 $-1 $11 -1056964608 #
face $28 -1 $-1 $29 $30 $3 $-1 $31 forward single #
loop $-1 -1 $-1 $-1 $32 $11 #
torus-surface $-1 -1 $-1 -1202.4071360467351 -3543.3953035495806 1534.9999999999998 1 -1.8369701987210297e-16 0 25 12.000000000000002 1.8369701987210297e-16 1 0 forward_v I I I I #
coedge $-1 -1 $-1 $33 $34 $35 $36 forward $12 $-1 #
coedge $-1 -1 $-1 $35 $14 $37 $38 reversed $7 $-1 #
coedge $-1 -1 $-1 $14 $35 $39 $40 forward $7 $-1 #
coedge $-1 -1 $-1 $34 $33 $14 $25 reversed $12 $-1 #
edge $41 -1 $-1 $42 -2.4146687400357951 $43 -0.98511078333849567 $14 $44 forward @7 unknown #
DXID-attrib $-1 -1 $-1 $16 $6 @18 ASM_FACE_FROM_STEP @15 stp-1M-143-6950 #
fmesh-eye-attrib $-1 -1 $45 $17 $11 #
truecolor-adesk-attrib $-1 -1 $46 $-1 $18 -1056964608 #
face $47 -1 $-1 $48 $49 $3 $-1 $50 reversed single #
loop $-1 -1 $-1 $-1 $51 $18 #
torus-surface $-1 -1 $-1 -1202.4071360467351 -3543.3953035495806 1534.9999999999998 1 -1.8369701987210297e-16 0 25 12.000000000000002 -1.8369701987210297e-16 -1 0 forward_v I I I I #
coedge $-1 -1 $-1 $52 $53 $54 $55 forward $19 $-1 #
coedge $-1 -1 $-1 $24 $21 $56 $57 reversed $12 $-1 #
coedge $-1 -1 $-1 $21 $24 $58 $59 forward $12 $-1 #
coedge $-1 -1 $-1 $23 $22 $21 $36 reversed $7 $-1 #
edge $60 -1 $-1 $61 -2.4146687400357951 $62 -0.98511078333849567 $35 $63 forward @7 unknown #
coedge $-1 -1 $-1 $64 $65 $22 $38 forward $66 $-1 #
edge $67 -1 $-1 $62 1.5707963267948966 $43 4.7123889803846897 $22 $68 forward @7 unknown #
coedge $-1 -1 $-1 $69 $70 $23 $40 reversed $49 $-1 #
edge $71 -1 $-1 $61 1.5707963267948966 $42 4.7123889803846897 $23 $72 forward @7 unknown #
truecolor-adesk-attrib $-1 -1 $73 $-1 $25 -1056964608 #
vertex $-1 -1 $-1 $25 $74 #
vertex $-1 -1 $-1 $25 $75 #
ellipse-curve $-1 -1 $-1 -1202.4071360467351 -3568.3953035495806 1534.9999999999998 2.2496396739976483e-32 1.2246467991499998e-16 1 2.2043642384652358e-15 12 -1.4695761589800001e-15 1 F -2.4146687400357951 F -0.98511078333849567 #
DXID-attrib $-1 -1 $-1 $27 $11 @18 ASM_FACE_FROM_STEP @15 stp-1M-143-6990 #
fmesh-eye-attrib $-1 -1 $76 $28 $18 #
truecolor-adesk-attrib $-1 -1 $77 $-1 $29 -1056964608 #
face $78 -1 $-1 $79 $80 $3 $-1 $81 reversed single #
loop $-1 -1 $-1 $-1 $70 $29 #
torus-surface $-1 -1 $-1 -1202.4071360467351 -3543.3953035495806 1534.9999999999998 1 -1.8369701987210297e-16 0 40 10 1.8369701987210297e-16 1 0 forward_v I I I I #
coedge $-1 -1 $-1 $82 $83 $84 $85 forward $30 $-1 #
coedge $-1 -1 $-1 $84 $32 $86 $87 reversed $19 $-1 #
coedge $-1 -1 $-1 $32 $84 $88 $89 forward $19 $-1 #
coedge $-1 -1 $-1 $83 $82 $32 $55 reversed $30 $-1 #
edge $90 -1 $-1 $91 0.98511078333849567 $92 2.4146687400357951 $32 $93 forward @7 unknown #
coedge $-1 -1 $-1 $94 $95 $33 $57 forward $96 $-1 #
edge $97 -1 $-1 $43 -1.5707963267948968 $62 1.5707963267948966 $33 $98 forward @7 unknown #
coedge $-1 -1 $-1 $99 $100 $34 $59 reversed $80 $-1 #
edge $101 -1 $-1 $42 -1.5707963267948968 $61 1.5707963267948966 $34 $102 forward @7 unknown #
truecolor-adesk-attrib $-1 -1 $103 $-1 $36 -1056964608 #
vertex $-1 -1 $-1 $36 $104 #
vertex $-1 -1 $-1 $38 $105 #
ellipse-curve $-1 -1 $-1 -1202.4071360467351 -3518.3953035495806 1534.9999999999998 0 0 -1 -2.2043642384652358e-15 -12 0 1 F -2.4146687400357951 F -0.98511078333849567 #
coedge $-1 -1 $-1 $106 $37 $95 $107 forward $66 $-1 #
coedge $-1 -1 $-1 $37 $106 $94 $108 reversed $66 $-1 #
loop $-1 -1 $-1 $-1 $65 $109 #
truecolor-adesk-attrib $-1 -1 $110 $-1 $38 -1056964608 #
ellipse-curve $-1 -1 $-1 -1192.4071360467351 -3543.3953035495806 1534.9999999999998 1 -1.8369701987210297e-16 0 0 0 -18.366750419300001 1 F 1.5707963267948966 F 4.7123889803846897 #
coedge $-1 -1 $-1 $86 $39 $100 $111 reversed $49 $-1 #
coedge $-1 -1 $-1 $39 $86 $99 $112 forward $49 $-1 #
truecolor-adesk-attrib $-1 -1 $113 $-1 $40 -1056964608 #
ellipse-curve $-1 -1 $-1 -1194.432244894565 -3543.3953035495806 1534.9999999999998 1 -1.8369701987210297e-16 0 0 0 -33.9666666667 1 F 1.5707963267948966 F 4.7123889803846897 #
DXID-attrib $-1 -1 $-1 $41 $25 @18 ASM_EDGE_FROM_STEP @4 6902 #
point $-1 -1 $-1 -1194.432244894565 -3577.3619702162805 1534.9999999999998 #
point $-1 -1 $-1 -1192.4071360467351 -3561.7620539688805 1534.9999999999998 #
DXID-attrib $-1 -1 $-1 $46 $18 @18 ASM_FACE_FROM_STEP @15 stp-1M-143-7012 #
fmesh-eye-attrib $-1 -1 $114 $47 $29 #
truecolor-adesk-attrib $-1 -1 $115 $-1 $48 -1056964608 #
face $116 -1 $-1 $117 $118 $3 $-1 $119 reversed single #
loop $-1 -1 $-1 $-1 $100 $48 #
torus-surface $-1 -1 $-1 -1202.4071360467351 -3543.3953035495806 1534.9999999999998 1 -1.8369701987210297e-16 0 40 10 -1.8369701987210297e-16 -1 0 forward_v I I I I #
coedge $-1 -1 $-1 $54 $51 $120 $121 reversed $30 $-1 #
coedge $-1 -1 $-1 $51 $54 $122 $123 forward $30 $-1 #
coedge $-1 -1 $-1 $53 $52 $51 $85 reversed $19 $-1 #
edge $124 -1 $-1 $125 0.98511078333849567 $126 2.4146687400357951 $84 $127 forward @7 unknown #
coedge $-1 -1 $-1 $70 $69 $52 $87 forward $49 $-1 #
edge $128 -1 $-1 $126 1.5707963267948966 $92 4.7123889803846897 $52 $129 forward @7 unknown #
coedge $-1 -1 $-1 $130 $131 $53 $89 reversed $132 $-1 #
edge $133 -1 $-1 $125 1.5707963267948966 $91 4.7123889803846897 $53 $134 forward @7 unknown #
truecolor-adesk-attrib $-1 -1 $135 $-1 $55 -1056964608 #
vertex $-1 -1 $-1 $55 $136 #
vertex $-1 -1 $-1 $55 $137 #
ellipse-curve $-1 -1 $-1 -1202.4071360467351 -3568.3953035495806 1534.9999999999998 2.2496396739976483e-32 1.2246467991499998e-16 1 2.2043642384652358e-15 12 -1.4695761589800001e-15 1 F 0.98511078333849567 F 2.4146687400357951 #
coedge $-1 -1 $-1 $138 $56 $65 $108 forward $96 $-1 #
coedge $-1 -1 $-1 $56 $138 $64 $107 reversed $96 $-1 #
loop $-1 -1 $-1 $-1 $95 $139 #
truecolor-adesk-attrib $-1 -1 $140 $-1 $57 -1056964608 #
ellipse-curve $-1 -1 $-1 -1192.4071360467351 -3543.3953035495806 1534.9999999999998 1 -1.8369701987210297e-16 0 0 0 -18.366750419300001 1 F -1.5707963267948968 F 1.5707963267948966 #
coedge $-1 -1 $-1 $120 $58 $70 $112 reversed $80 $-1 #
coedge $-1 -1 $-1 $58 $120 $69 $111 forward $80 $-1 #
truecolor-adesk-attrib $-1 -1 $141 $-1 $59 -1056964608 #
ellipse-curve $-1 -1 $-1 -1194.432244894565 -3543.3953035495806 1534.9999999999998 1 -1.8369701987210297e-16 0 0 0 -33.9666666667 1 F -1.5707963267948968 F 1.5707963267948966 #
DXID-attrib $-1 -1 $-1 $60 $36 @18 ASM_EDGE_FROM_STEP @4 6916 #
point $-1 -1 $-1 -1194.432244894565 -3509.4286368828807 1534.9999999999998 #
point $-1 -1 $-1 -1192.4071360467351 -3525.0285531302807 1534.9999999999998 #
coedge $-1 -1 $-1 $65 $64 $142 $143 reversed $66 $-1 #
edge $144 -1 $-1 $43 -6.1833752097000012 $145 6.1833752095999994 $95 $146 forward @7 unknown #
edge $147 -1 $-1 $62 -6.1833752096000012 $148 6.1833752096999994 $94 $149 reversed @7 unknown #
face $150 -1 $-1 $151 $66 $3 $-1 $152 forward single #
DXID-attrib $-1 -1 $-1 $67 $38 @18 ASM_EDGE_FROM_STEP @4 6909 #
edge $153 -1 $-1 $126 -0.9231220083546029 $61 0.9231220083546029 $69 $154 reversed @7 unknown #
edge $155 -1 $-1 $92 -0.9231220083546029 $42 0.9231220083546029 $70 $156 reversed @7 unknown #
DXID-attrib $-1 -1 $-1 $71 $40 @18 ASM_EDGE_FROM_STEP @4 6921 #
DXID-attrib $-1 -1 $-1 $77 $29 @18 ASM_FACE_FROM_STEP @15 stp-1M-143-7034 #
fmesh-eye-attrib $-1 -1 $157 $78 $48 #
truecolor-adesk-attrib $-1 -1 $158 $-1 $79 -1056964608 #
face $159 -1 $-1 $139 $132 $3 $-1 $160 reversed single #
loop $-1 -1 $-1 $-1 $161 $79 #
plane-surface $-1 -1 $-1 -1212.4071360467351 -3525.0285531302807 1534.9999999999998 1 -1.8369701987210297e-16 0 1.8369701987210297e-16 1 0 forward_v I I I I #
coedge $-1 -1 $-1 $100 $99 $82 $121 forward $80 $-1 #
edge $162 -1 $-1 $92 -1.5707963267948968 $126 1.5707963267948966 $82 $163 forward @7 unknown #
coedge $-1 -1 $-1 $164 $165 $83 $123 reversed $118 $-1 #
edge $166 -1 $-1 $91 -1.5707963267948968 $125 1.5707963267948966 $83 $167 forward @7 unknown #
truecolor-adesk-attrib $-1 -1 $168 $-1 $85 -1056964608 #
vertex $-1 -1 $-1 $85 $169 #
vertex $-1 -1 $-1 $87 $170 #
ellipse-curve $-1 -1 $-1 -1202.4071360467351 -3518.3953035495806 1534.9999999999998 0 0 -1 -2.2043642384652358e-15 -12 0 1 F 0.98511078333849567 F 2.4146687400357951 #
truecolor-adesk-attrib $-1 -1 $171 $-1 $87 -1056964608 #
ellipse-curve $-1 -1 $-1 -1210.382027198905 -3543.3953035495806 1534.9999999999998 1 -1.8369701987210297e-16 0 0 0 -33.9666666667 1 F 1.5707963267948966 F 4.7123889803846897 #
coedge $-1 -1 $-1 $172 $88 $165 $173 reversed $132 $-1 #
coedge $-1 -1 $-1 $88 $172 $164 $174 forward $132 $-1 #
loop $-1 -1 $-1 $-1 $172 $117 #
truecolor-adesk-attrib $-1 -1 $175 $-1 $89 -1056964608 #
ellipse-curve $-1 -1 $-1 -1212.4071360467351 -3543.3953035495806 1534.9999999999998 1 -1.8369701987210297e-16 0 0 0 -18.366750419300001 1 F 1.5707963267948966 F 4.7123889803846897 #
DXID-attrib $-1 -1 $-1 $90 $55 @18 ASM_EDGE_FROM_STEP @4 6964 #
point $-1 -1 $-1 -1212.4071360467351 -3561.7620539688805 1534.9999999999998 #
point $-1 -1 $-1 -1210.382027198905 -3577.3619702162805 1534.9999999999998 #
coedge $-1 -1 $-1 $95 $94 $176 $177 reversed $96 $-1 #
face $178 -1 $-1 $109 $96 $3 $-1 $179 forward single #
DXID-attrib $-1 -1 $-1 $97 $57 @18 ASM_EDGE_FROM_STEP @4 6938 #
DXID-attrib $-1 -1 $-1 $101 $59 @18 ASM_EDGE_FROM_STEP @4 6943 #
coedge $-1 -1 $-1 $180 $181 $106 $143 forward $182 $-1 #
edge $183 -1 $-1 $148 1.5707963267948968 $145 4.7123889803846897 $106 $184 forward @7 unknown #
truecolor-adesk-attrib $-1 -1 $185 $-1 $107 -1056964608 #
vertex $-1 -1 $-1 $107 $186 #
straight-curve $-1 -1 $-1 -1192.4071360467351 -3555.5786787591805 1534.9999999999998 1.8369701987210297e-16 1 0 F -6.1833752097000012 F 6.1833752095999994 #
truecolor-adesk-attrib $-1 -1 $187 $-1 $108 -1056964608 #
vertex $-1 -1 $-1 $108 $188 #
straight-curve $-1 -1 $-1 -1192.4071360467351 -3531.2119283398806 1534.9999999999998 1.8369701987210297e-16 1 0 F -6.1833752096999994 F 6.1833752096000012 #
truecolor-adesk-attrib $-1 -1 $189 $-1 $109 -1056964608 #
face $190 -1 $-1 $191 $192 $3 $-1 $193 reversed single #
plane-surface $-1 -1 $-1 -1192.4071360467351 -3525.0285531302807 1534.9999999999998 1 -1.8369701987210297e-16 0 1.8369701987210297e-16 1 0 forward_v I I I I #
truecolor-adesk-attrib $-1 -1 $194 $-1 $111 -1056964608 #
ellipse-curve $-1 -1 $-1 -1202.4071360467351 -3503.3953035495806 1534.9999999999998 0 0 -1 -1.8369701987210296e-15 -10 0 1 F -0.9231220083546029 F 0.9231220083546029 #
truecolor-adesk-attrib $-1 -1 $195 $-1 $112 -1056964608 #
ellipse-curve $-1 -1 $-1 -1202.4071360467351 -3583.3953035495806 1534.9999999999998 2.2496396739976485e-32 1.2246467991500001e-16 1 1.8369701987210296e-15 10 -1.2246467991500001e-15 1 F -0.9231220083546029 F 0.9231220083546029 #
DXID-attrib $-1 -1 $-1 $115 $48 @18 ASM_FACE_FROM_STEP @15 stp-1M-143-7046 #
fmesh-eye-attrib $-1 -1 $196 $116 $79 #
truecolor-adesk-attrib $-1 -1 $197 $-1 $117 -1056964608 #
plane-surface $-1 -1 $-1 -1212.4071360467351 -3525.0285531302807 1534.9999999999998 1 -1.8369701987210297e-16 0 1.8369701987210297e-16 1 0 forward_v I I I I #
coedge $-1 -1 $-1 $165 $164 $198 $199 forward $118 $-1 #
truecolor-adesk-attrib $-1 -1 $200 $-1 $121 -1056964608 #
ellipse-curve $-1 -1 $-1 -1210.382027198905 -3543.3953035495806 1534.9999999999998 1 -1.8369701987210297e-16 0 0 0 -33.9666666667 1 F -1.5707963267948968 F 1.5707963267948966 #
coedge $-1 -1 $-1 $161 $122 $131 $174 reversed $118 $-1 #
coedge $-1 -1 $-1 $122 $161 $130 $173 forward $118 $-1 #
truecolor-adesk-attrib $-1 -1 $201 $-1 $123 -1056964608 #
ellipse-curve $-1 -1 $-1 -1212.4071360467351 -3543.3953035495806 1534.9999999999998 1 -1.8369701987210297e-16 0 0 0 -18.366750419300001 1 F -1.5707963267948968 F 1.5707963267948966 #
DXID-attrib $-1 -1 $-1 $124 $85 @18 ASM_EDGE_FROM_STEP @4 6978 #
point $-1 -1 $-1 -1212.4071360467351 -3525.0285531302807 1534.9999999999998 #
point $-1 -1 $-1 -1210.382027198905 -3509.4286368828807 1534.9999999999998 #
DXID-attrib $-1 -1 $-1 $128 $87 @18 ASM_EDGE_FROM_STEP @4 6971 #
coedge $-1 -1 $-1 $131 $130 $202 $203 forward $132 $-1 #
edge $204 -1 $-1 $205 -6.1833752096999994 $125 6.1833752096000012 $165 $206 forward @7 unknown #
edge $207 -1 $-1 $208 -6.1833752095999994 $91 6.1833752097000012 $164 $209 reversed @7 unknown #
DXID-attrib $-1 -1 $-1 $133 $89 @18 ASM_EDGE_FROM_STEP @4 6983 #
coedge $-1 -1 $-1 $210 $211 $138 $177 forward $192 $-1 #
edge $212 -1 $-1 $145 -1.5707963267948966 $148 1.5707963267948966 $138 $213 forward @7 unknown #
truecolor-adesk-attrib $-1 -1 $214 $-1 $139 -1056964608 #
plane-surface $-1 -1 $-1 -1192.4071360467351 -3525.0285531302807 1534.9999999999998 1 -1.8369701987210297e-16 0 1.8369701987210297e-16 1 0 forward_v I I I I #
coedge $-1 -1 $-1 $202 $142 $211 $215 forward $182 $-1 #
coedge $-1 -1 $-1 $142 $202 $210 $216 reversed $182 $-1 #
loop $-1 -1 $-1 $-1 $180 $191 #
truecolor-adesk-attrib $-1 -1 $217 $-1 $143 -1056964608 #
ellipse-curve $-1 -1 $-1 -1192.4071360467351 -3543.3953035495806 1534.9999999999998 1 -1.8369701987210297e-16 0 0 0 -6 1 F 1.5707963267948968 F 4.7123889803846897 #
DXID-attrib $-1 -1 $-1 $144 $107 @18 ASM_EDGE_FROM_STEP @4 7101 #
point $-1 -1 $-1 -1192.4071360467351 -3549.3953035495806 1534.9999999999998 #
DXID-attrib $-1 -1 $-1 $147 $108 @18 ASM_EDGE_FROM_STEP @4 7108 #
point $-1 -1 $-1 -1192.4071360467351 -3537.3953035495806 1534.9999999999998 #
fmesh-eye-attrib $-1 -1 $218 $150 $109 #
truecolor-adesk-attrib $-1 -1 $219 $-1 $151 -1056964608 #
face $220 -1 $-1 $-1 $182 $3 $-1 $221 reversed single #
loop $-1 -1 $-1 $-1 $210 $151 #
cone-surface $-1 -1 $-1 -1192.4071360467351 -3543.3953035495806 1534.9999999999998 1 -1.8369701987210297e-16 0 1.1021821192326179e-15 6 0 1 I I 0 1 6.0000000000000009 forward I I I I #
DXID-attrib $-1 -1 $-1 $153 $111 @18 ASM_EDGE_FROM_STEP @4 7027 #
DXID-attrib $-1 -1 $-1 $155 $112 @18 ASM_EDGE_FROM_STEP @4 7022 #
DXID-attrib $-1 -1 $-1 $158 $79 @18 ASM_FACE_FROM_STEP @15 stp-1M-143-7077 #
fmesh-eye-attrib $-1 -1 $222 $159 $117 #
coedge $-1 -1 $-1 $211 $210 $161 $199 reversed $192 $-1 #
edge $223 -1 $-1 $208 -1.5707963267948966 $205 1.5707963267948966 $161 $224 forward @7 unknown #
DXID-attrib $-1 -1 $-1 $162 $121 @18 ASM_EDGE_FROM_STEP @4 7000 #
DXID-attrib $-1 -1 $-1 $166 $123 @18 ASM_EDGE_FROM_STEP @4 7005 #
coedge $-1 -1 $-1 $181 $180 $172 $203 reversed $182 $-1 #
edge $225 -1 $-1 $205 1.5707963267948968 $208 4.7123889803846897 $172 $226 forward @7 unknown #
truecolor-adesk-attrib $-1 -1 $227 $-1 $173 -1056964608 #
vertex $-1 -1 $-1 $199 $228 #
straight-curve $-1 -1 $-1 -1212.4071360467351 -3531.2119283398806 1534.9999999999998 1.8369701987210297e-16 1 0 F -6.1833752096999994 F 6.1833752096000012 #
truecolor-adesk-attrib $-1 -1 $229 $-1 $174 -1056964608 #
vertex $-1 -1 $-1 $199 $230 #
straight-curve $-1 -1 $-1 -1212.4071360467351 -3555.5786787591805 1534.9999999999998 1.8369701987210297e-16 1 0 F -6.1833752097000012 F 6.1833752095999994 #
coedge $-1 -1 $-1 $198 $176 $181 $216 forward $192 $-1 #
coedge $-1 -1 $-1 $176 $198 $180 $215 reversed $192 $-1 #
truecolor-adesk-attrib $-1 -1 $231 $-1 $177 -1056964608 #
ellipse-curve $-1 -1 $-1 -1192.4071360467351 -3543.3953035495806 1534.9999999999998 1 -1.8369701987210297e-16 0 0 0 -6 1 F -1.5707963267948966 F 1.5707963267948966 #
fmesh-eye-attrib $-1 -1 $232 $178 $139 #
edge $233 -1 $-1 $145 0 $208 20 $211 $234 reversed @7 unknown #
edge $235 -1 $-1 $148 0 $205 20 $210 $236 reversed @7 unknown #
DXID-attrib $-1 -1 $-1 $183 $143 @18 ASM_EDGE_FROM_STEP @4 7125 #
DXID-attrib $-1 -1 $-1 $189 $109 @18 ASM_FACE_FROM_STEP @15 stp-1M-143-7132 #
fmesh-eye-attrib $-1 -1 $237 $190 $151 #
truecolor-adesk-attrib $-1 -1 $238 $-1 $191 -1056964608 #
cone-surface $-1 -1 $-1 -1192.4071360467351 -3543.3953035495806 1534.9999999999998 1 -1.8369701987210297e-16 0 1.1021821192326179e-15 6 0 1 I I 0 1 6.0000000000000009 forward I I I I #
DXID-attrib $-1 -1 $-1 $197 $117 @18 ASM_FACE_FROM_STEP @15 stp-1M-143-7089 #
truecolor-adesk-attrib $-1 -1 $239 $-1 $199 -1056964608 #
ellipse-curve $-1 -1 $-1 -1212.4071360467351 -3543.3953035495806 1534.9999999999998 1 -1.8369701987210297e-16 0 0 0 -6 1 F -1.5707963267948966 F 1.5707963267948966 #
truecolor-adesk-attrib $-1 -1 $240 $-1 $203 -1056964608 #
ellipse-curve $-1 -1 $-1 -1212.4071360467351 -3543.3953035495806 1534.9999999999998 1 -1.8369701987210297e-16 0 0 0 -6 1 F 1.5707963267948968 F 4.7123889803846897 #
DXID-attrib $-1 -1 $-1 $204 $173 @18 ASM_EDGE_FROM_STEP @4 7065 #
point $-1 -1 $-1 -1212.4071360467351 -3537.3953035495806 1534.9999999999998 #
DXID-attrib $-1 -1 $-1 $207 $174 @18 ASM_EDGE_FROM_STEP @4 7070 #
point $-1 -1 $-1 -1212.4071360467351 -3549.3953035495806 1534.9999999999998 #
DXID-attrib $-1 -1 $-1 $212 $177 @18 ASM_EDGE_FROM_STEP @4 7113 #
DXID-attrib $-1 -1 $-1 $214 $139 @18 ASM_FACE_FROM_STEP @15 stp-1M-143-7120 #
truecolor-adesk-attrib $-1 -1 $241 $-1 $215 -1056964608 #
straight-curve $-1 -1 $-1 -1192.4071360467351 -3549.3953035495806 1534.9999999999998 1 -1.8369701987210297e-16 0 F -20 F 0 #
truecolor-adesk-attrib $-1 -1 $242 $-1 $216 -1056964608 #
straight-curve $-1 -1 $-1 -1192.4071360467351 -3537.3953035495806 1534.9999999999998 1 -1.8369701987210297e-16 0 F -20 F 0 #
DXID-attrib $-1 -1 $-1 $219 $151 @18 ASM_FACE_FROM_STEP @15 stp-1M-143-7154 #
fmesh-eye-attrib $-1 -1 $243 $220 $191 #
DXID-attrib $-1 -1 $-1 $223 $199 @18 ASM_EDGE_FROM_STEP @4 7060 #
DXID-attrib $-1 -1 $-1 $225 $203 @18 ASM_EDGE_FROM_STEP @4 7082 #
DXID-attrib $-1 -1 $-1 $233 $215 @18 ASM_EDGE_FROM_STEP @4 7147 #
DXID-attrib $-1 -1 $-1 $235 $216 @18 ASM_EDGE_FROM_STEP @4 7142 #
DXID-attrib $-1 -1 $-1 $238 $191 @18 ASM_FACE_FROM_STEP @15 stp-1M-143-7161 #
