700 332 1 0         
5 ZWCAD 12 ACIS 28.0 NT 24 Mon May 13 14:18:34 2024 
1 9.9999999999999995e-07 1e-10 
body $1 -1 $-1 $2 $-1 $-1 #
DXID-attrib $-1 -1 $-1 $-1 $0 @18 ASM_BODY_FROM_STEP @83 AC23020B1B5088F975226EA55851805DEDFB49A0|:|8CB3CBCEBE3339AC3139F7812237AD39DB573F35 #
lump $-1 -1 $-1 $-1 $3 $0 #
shell $-1 -1 $-1 $-1 $-1 $4 $-1 $2 #
face $5 -1 $-1 $6 $7 $3 $-1 $8 reversed single #
truecolor-adesk-attrib $-1 -1 $9 $-1 $4 -1027687238 #
face $10 -1 $-1 $11 $12 $3 $-1 $13 reversed single #
loop $-1 -1 $-1 $14 $15 $4 #
cone-surface $-1 -1 $-1 155.70150597529118 439.49214181498883 7.9000000000064698 0 0 1 -0.84945899953226944 0.030321743248632602 0 1 I I 0 1 0.85000000000000009 forward I I I I #
DXID-attrib $-1 -1 $-1 $5 $4 @18 ASM_FACE_FROM_STEP @16 stp-2M-185-26857 #
truecolor-adesk-attrib $-1 -1 $16 $-1 $6 -1027687238 #
face $17 -1 $-1 $18 $19 $3 $-1 $20 forward single #
loop $-1 -1 $-1 $21 $22 $6 #
cone-surface $-1 -1 $-1 152.30366997716209 439.61342878798337 7.9000000000064698 0 0 1 -0.84945899953226944 0.030321743248632602 0 1 I I 0 1 0.85000000000000009 forward I I I I #
loop $-1 -1 $-1 $-1 $23 $4 #
coedge $-1 -1 $-1 $15 $15 $24 $25 reversed $7 $-1 #
DXID-attrib $-1 -1 $-1 $10 $6 @18 ASM_FACE_FROM_STEP @16 stp-2M-185-26858 #
truecolor-adesk-attrib $-1 -1 $26 $-1 $11 -1027687238 #
face $27 -1 $-1 $28 $29 $3 $-1 $30 reversed single #
loop $-1 -1 $-1 $-1 $31 $11 #
cone-surface $-1 -1 $-1 152.30366997716209 439.61342878798337 7.9000000000064698 0 0 1 1.6999515981049604 0.012828253988395953 0 1 I I 0 1 1.6999999999999997 forward I I I I #
loop $-1 -1 $-1 $-1 $32 $6 #
coedge $-1 -1 $-1 $22 $22 $33 $34 reversed $12 $-1 #
coedge $-1 -1 $-1 $23 $23 $35 $36 reversed $14 $-1 #
coedge $-1 -1 $-1 $24 $24 $15 $25 forward $37 $-1 #
edge $38 -1 $-1 $39 -3.1415926535897931 $39 3.1415926535897931 $15 $40 forward @7 unknown #
DXID-attrib $-1 -1 $-1 $17 $11 @18 ASM_FACE_FROM_STEP @16 stp-2M-185-26859 #
truecolor-adesk-attrib $-1 -1 $41 $-1 $18 -1027687238 #
face $42 -1 $-1 $43 $44 $3 $-1 $45 forward single #
loop $-1 -1 $-1 $-1 $46 $18 #
cone-surface $-1 -1 $-1 148.90376678095217 439.58777228000662 7.9000000000064698 0 0 1 1.6999515981049604 0.012828253988395953 0 1 I I 0 1 1.6999999999999997 forward I I I I #
coedge $-1 -1 $-1 $47 $48 $49 $50 forward $19 $-1 #
coedge $-1 -1 $-1 $32 $32 $51 $52 reversed $21 $-1 #
coedge $-1 -1 $-1 $33 $33 $22 $34 forward $53 $-1 #
edge $54 -1 $-1 $55 -3.1415926535897931 $55 3.1415926535897931 $22 $56 forward @7 unknown #
coedge $-1 -1 $-1 $35 $35 $23 $36 forward $57 $-1 #
edge $58 -1 $-1 $59 -3.1415926535897931 $59 3.1415926535897931 $23 $60 forward @7 unknown #
loop $-1 -1 $-1 $53 $24 $61 #
truecolor-adesk-attrib $-1 -1 $62 $-1 $25 -1027687238 #
vertex $-1 -1 $-1 $25 $63 #
ellipse-curve $-1 -1 $-1 155.70150597529118 439.49214181498883 8.9000000000064698 0 0 -1 -0.84945899953226944 0.030321743248632602 0 1 I I #
DXID-attrib $-1 -1 $-1 $27 $18 @18 ASM_FACE_FROM_STEP @16 stp-2M-185-26860 #
truecolor-adesk-attrib $-1 -1 $64 $-1 $28 -1027687238 #
face $65 -1 $-1 $66 $67 $3 $-1 $68 reversed single #
loop $-1 -1 $-1 $-1 $69 $28 #
cone-surface $-1 -1 $-1 154.35911185436234 449.54074721868795 7.9000000000064698 0 0 1 -4.023085004267327 8.7713902574471732 0 1 I I 0 1 9.6499999999999897 forward I I I I #
coedge $-1 -1 $-1 $70 $71 $72 $73 forward $29 $-1 #
coedge $-1 -1 $-1 $74 $31 $71 $75 reversed $19 $-1 #
coedge $-1 -1 $-1 $31 $74 $76 $77 forward $19 $-1 #
coedge $-1 -1 $-1 $78 $72 $31 $50 reversed $79 $-1 #
edge $80 -1 $-1 $81 1.7921178193396343 $82 3.1415926535897971 $31 $83 forward @7 unknown #
coedge $-1 -1 $-1 $51 $51 $32 $52 forward $84 $-1 #
edge $85 -1 $-1 $86 -3.1415926535897931 $86 3.1415926535897931 $32 $87 forward @7 unknown #
loop $-1 -1 $-1 $-1 $33 $61 #
truecolor-adesk-attrib $-1 -1 $88 $-1 $34 -1027687238 #
vertex $-1 -1 $-1 $34 $89 #
ellipse-curve $-1 -1 $-1 152.30366997716209 439.61342878798337 8.9000000000064698 0 0 -1 -0.84945899953226944 0.030321743248632602 0 1 I I #
loop $-1 -1 $-1 $84 $35 $90 #
truecolor-adesk-attrib $-1 -1 $91 $-1 $36 -1027687238 #
vertex $-1 -1 $-1 $36 $92 #
ellipse-curve $-1 -1 $-1 155.70150597529118 439.49214181498883 7.9000000000064698 0 0 1 -0.84945899953226944 0.030321743248632602 0 1 I I #
face $93 -1 $-1 $90 $79 $3 $-1 $94 forward single #
DXID-attrib $-1 -1 $-1 $38 $25 @18 ASM_EDGE_FROM_STEP @5 15374 #
point $-1 -1 $-1 156.55096497482344 439.46182007174019 8.9000000000064698 #
DXID-attrib $-1 -1 $-1 $42 $28 @18 ASM_FACE_FROM_STEP @16 stp-2M-185-26861 #
truecolor-adesk-attrib $-1 -1 $95 $-1 $43 -1027687238 #
face $96 -1 $-1 $97 $98 $3 $-1 $99 forward single #
loop $-1 -1 $-1 $-1 $100 $43 #
cone-surface $-1 -1 $-1 159.09092685938143 439.22413795215681 7.9000000000064698 0 0 1 -0.70873000075175907 1.5452190090839588 0 1 I I 0 1 1.6999999999999997 forward I I I I #
coedge $-1 -1 $-1 $101 $102 $103 $104 forward $44 $-1 #
coedge $-1 -1 $-1 $105 $46 $102 $106 reversed $29 $-1 #
coedge $-1 -1 $-1 $46 $105 $47 $75 forward $29 $-1 #
coedge $-1 -1 $-1 $49 $103 $46 $73 reversed $79 $-1 #
edge $107 -1 $-1 $82 -5.1996685503976109e-15 $108 1.0618576824565258 $46 $109 forward @7 unknown #
coedge $-1 -1 $-1 $48 $47 $110 $111 reversed $19 $-1 #
edge $112 -1 $-1 $113 0 $82 0.10000000000000001 $47 $114 forward @7 unknown #
coedge $-1 -1 $-1 $115 $116 $48 $77 reversed $117 $-1 #
edge $118 -1 $-1 $119 0 $81 0.10000000000000001 $48 $120 forward @7 unknown #
coedge $-1 -1 $-1 $121 $49 $116 $122 reversed $79 $-1 #
loop $-1 -1 $-1 $37 $49 $61 #
truecolor-adesk-attrib $-1 -1 $123 $-1 $50 -1027687238 #
vertex $-1 -1 $-1 $50 $124 #
vertex $-1 -1 $-1 $50 $125 #
ellipse-curve $-1 -1 $-1 152.30366997716209 439.61342878798337 8.9000000000064698 0 0 -1 1.6999515981049604 0.012828253988395953 0 1 F 1.7921178193396343 F 3.1415926535897971 #
loop $-1 -1 $-1 $-1 $51 $90 #
truecolor-adesk-attrib $-1 -1 $126 $-1 $52 -1027687238 #
vertex $-1 -1 $-1 $52 $127 #
ellipse-curve $-1 -1 $-1 152.30366997716209 439.61342878798337 7.9000000000064698 0 0 1 -0.84945899953226944 0.030321743248632602 0 1 I I #
DXID-attrib $-1 -1 $-1 $54 $34 @18 ASM_EDGE_FROM_STEP @5 15376 #
point $-1 -1 $-1 153.15312897669438 439.58310704473473 8.9000000000064698 #
face $128 -1 $-1 $-1 $129 $3 $-1 $130 reversed single #
DXID-attrib $-1 -1 $-1 $58 $36 @18 ASM_EDGE_FROM_STEP @5 15375 #
point $-1 -1 $-1 156.55096497482344 439.46182007174019 7.9000000000064698 #
truecolor-adesk-attrib $-1 -1 $131 $-1 $61 -1027687238 #
plane-surface $-1 -1 $-1 154.29404282112716 447.71784820462938 8.9000000000064698 0 0 1 0.99936352886149338 -0.035672639116038352 0 forward_v I I I I #
DXID-attrib $-1 -1 $-1 $65 $43 @18 ASM_FACE_FROM_STEP @16 stp-2M-185-26862 #
truecolor-adesk-attrib $-1 -1 $132 $-1 $66 -1027687238 #
face $133 -1 $-1 $134 $135 $3 $-1 $136 forward single #
loop $-1 -1 $-1 $-1 $137 $66 #
cone-surface $-1 -1 $-1 155.70150597529118 439.49214181498883 7.9000000000064698 0 0 1 -0.24128788160670195 1.6827893980500797 0 1 I I 0 1 1.6999999999999997 forward I I I I #
coedge $-1 -1 $-1 $138 $139 $140 $141 forward $67 $-1 #
coedge $-1 -1 $-1 $142 $69 $139 $143 reversed $44 $-1 #
coedge $-1 -1 $-1 $69 $142 $70 $106 forward $44 $-1 #
coedge $-1 -1 $-1 $72 $140 $69 $104 reversed $79 $-1 #
edge $144 -1 $-1 $108 -2.2101679901529048 $145 3.1415926535897949 $69 $146 forward @7 unknown #
coedge $-1 -1 $-1 $71 $70 $147 $148 reversed $29 $-1 #
edge $149 -1 $-1 $150 0 $108 0.10000000000000001 $70 $151 forward @7 unknown #
truecolor-adesk-attrib $-1 -1 $152 $-1 $73 -1027687238 #
vertex $-1 -1 $-1 $73 $153 #
ellipse-curve $-1 -1 $-1 148.90376678095217 439.58777228000662 8.9000000000064698 0 0 1 1.6999515981049604 0.012828253988395953 0 1 F -5.1996685503976109e-15 F 1.0618576824565258 #
coedge $-1 -1 $-1 $147 $154 $74 $111 forward $129 $-1 #
edge $155 -1 $-1 $119 1.7921178193396343 $113 3.1415926535897971 $74 $156 forward @7 unknown #
truecolor-adesk-attrib $-1 -1 $157 $-1 $75 -1027687238 #
vertex $-1 -1 $-1 $75 $158 #
straight-curve $-1 -1 $-1 150.60371837905714 439.60060053399496 7.9000000000064698 0 0 10 F 0 F 0.10000000000000001 #
coedge $-1 -1 $-1 $159 $76 $154 $160 reversed $117 $-1 #
coedge $-1 -1 $-1 $76 $159 $78 $122 forward $117 $-1 #
loop $-1 -1 $-1 $-1 $116 $161 #
truecolor-adesk-attrib $-1 -1 $162 $-1 $77 -1027687238 #
vertex $-1 -1 $-1 $111 $163 #
straight-curve $-1 -1 $-1 151.94301352748502 437.95212600844366 7.9000000000064698 0 0 10 F 0 F 0.10000000000000001 #
coedge $-1 -1 $-1 $164 $78 $165 $166 reversed $79 $-1 #
edge $167 -1 $-1 $168 3.0011299424741487 $81 3.1415926535897944 $116 $169 forward @7 unknown #
DXID-attrib $-1 -1 $-1 $80 $50 @18 ASM_EDGE_FROM_STEP @5 15378 #
point $-1 -1 $-1 151.94301352748502 437.95212600844366 8.9000000000064698 #
point $-1 -1 $-1 150.60371837905714 439.60060053399496 8.9000000000064698 #
DXID-attrib $-1 -1 $-1 $85 $52 @18 ASM_EDGE_FROM_STEP @5 15377 #
point $-1 -1 $-1 153.15312897669438 439.58310704473473 7.9000000000064698 #
truecolor-adesk-attrib $-1 -1 $170 $-1 $90 -1027687238 #
loop $-1 -1 $-1 $57 $154 $90 #
plane-surface $-1 -1 $-1 154.29404282112716 447.71784820462938 7.9000000000064698 0 0 1 0.99936352886149338 -0.035672639116038352 0 forward_v I I I I #
DXID-attrib $-1 -1 $-1 $93 $61 @18 ASM_FACE_FROM_STEP @16 stp-2M-185-26869 #
DXID-attrib $-1 -1 $-1 $96 $66 @18 ASM_FACE_FROM_STEP @16 stp-2M-185-26863 #
truecolor-adesk-attrib $-1 -1 $171 $-1 $97 -1027687238 #
face $172 -1 $-1 $173 $174 $3 $-1 $175 forward single #
loop $-1 -1 $-1 $-1 $176 $97 #
cone-surface $-1 -1 $-1 154.33949190284849 448.99109727781411 7.9000000000064698 0 0 1 -0.022052915629986847 11.296083788573936 0 1 I I 0 1 11.2961053150885 forward I I I I #
coedge $-1 -1 $-1 $177 $178 $179 $180 forward $98 $-1 #
coedge $-1 -1 $-1 $181 $100 $178 $182 reversed $67 $-1 #
coedge $-1 -1 $-1 $100 $181 $101 $143 forward $67 $-1 #
coedge $-1 -1 $-1 $103 $179 $100 $141 reversed $79 $-1 #
edge $183 -1 $-1 $145 1.9628186043059378e-14 $184 1.0618576824565504 $100 $185 forward @7 unknown #
coedge $-1 -1 $-1 $102 $101 $186 $187 reversed $44 $-1 #
edge $188 -1 $-1 $189 0 $145 0.10000000000000001 $101 $190 forward @7 unknown #
truecolor-adesk-attrib $-1 -1 $191 $-1 $104 -1027687238 #
vertex $-1 -1 $-1 $104 $192 #
ellipse-curve $-1 -1 $-1 154.35911185436234 449.54074721868795 8.9000000000064698 0 0 -1 -4.023085004267327 8.7713902574471732 0 1 F -2.2101679901529048 F 3.1415926535897949 #
coedge $-1 -1 $-1 $186 $110 $105 $148 forward $129 $-1 #
edge $193 -1 $-1 $113 -5.1996685503976109e-15 $150 1.0618576824565258 $105 $194 forward @7 unknown #
truecolor-adesk-attrib $-1 -1 $195 $-1 $106 -1027687238 #
vertex $-1 -1 $-1 $106 $196 #
straight-curve $-1 -1 $-1 149.7208669241061 441.07852623557994 7.9000000000064698 0 0 10 F 0 F 0.10000000000000001 #
DXID-attrib $-1 -1 $-1 $107 $73 @18 ASM_EDGE_FROM_STEP @5 15382 #
point $-1 -1 $-1 149.7208669241061 441.07852623557994 8.9000000000064698 #
coedge $-1 -1 $-1 $110 $197 $115 $160 forward $129 $-1 #
truecolor-adesk-attrib $-1 -1 $198 $-1 $111 -1027687238 #
ellipse-curve $-1 -1 $-1 152.30366997716209 439.61342878798337 7.9000000000064698 0 0 -1 1.6999515981049604 0.012828253988395953 0 1 F 1.7921178193396343 F 3.1415926535897971 #
DXID-attrib $-1 -1 $-1 $112 $75 @18 ASM_EDGE_FROM_STEP @5 15379 #
point $-1 -1 $-1 150.60371837905714 439.60060053399496 7.9000000000064698 #
coedge $-1 -1 $-1 $116 $115 $199 $200 forward $117 $-1 #
edge $201 -1 $-1 $202 3.0011299424741487 $119 3.1415926535897944 $115 $203 forward @7 unknown #
face $204 -1 $-1 $61 $117 $3 $-1 $205 forward single #
DXID-attrib $-1 -1 $-1 $118 $77 @18 ASM_EDGE_FROM_STEP @5 15381 #
point $-1 -1 $-1 151.94301352748502 437.95212600844366 7.9000000000064698 #
coedge $-1 -1 $-1 $206 $121 $207 $208 reversed $79 $-1 #
coedge $-1 -1 $-1 $199 $209 $121 $166 forward $210 $-1 #
edge $211 -1 $-1 $212 0 $168 0.36999999999999988 $165 $213 forward @7 unknown #
truecolor-adesk-attrib $-1 -1 $214 $-1 $122 -1027687238 #
vertex $-1 -1 $-1 $166 $215 #
ellipse-curve $-1 -1 $-1 154.33949190284849 448.99109727781411 8.9000000000064698 0 0 -1 2.3964783753634582 11.038971269370441 0 1 F 3.0011299424741487 F 3.1415926535897944 #
DXID-attrib $-1 -1 $-1 $128 $90 @18 ASM_FACE_FROM_STEP @16 stp-2M-185-26870 #
DXID-attrib $-1 -1 $-1 $133 $97 @18 ASM_FACE_FROM_STEP @16 stp-2M-185-26864 #
truecolor-adesk-attrib $-1 -1 $216 $-1 $134 -1027687238 #
face $217 -1 $-1 $218 $219 $3 $-1 $220 reversed single #
loop $-1 -1 $-1 $-1 $221 $134 #
plane-surface $-1 -1 $-1 154.36154481847851 437.69501348924018 7.9000000000064698 -0.99936352886149338 0.035672639116038518 0 0 0 1 forward_v I I I I #
coedge $-1 -1 $-1 $222 $223 $224 $225 forward $135 $-1 #
coedge $-1 -1 $-1 $226 $137 $223 $227 reversed $98 $-1 #
coedge $-1 -1 $-1 $137 $226 $138 $182 forward $98 $-1 #
coedge $-1 -1 $-1 $140 $224 $137 $180 reversed $79 $-1 #
edge $228 -1 $-1 $184 1.7921178193396254 $229 3.1415926535897882 $137 $230 forward @7 unknown #
coedge $-1 -1 $-1 $139 $138 $231 $232 reversed $67 $-1 #
edge $233 -1 $-1 $234 0 $184 0.10000000000000001 $138 $235 forward @7 unknown #
truecolor-adesk-attrib $-1 -1 $236 $-1 $141 -1027687238 #
vertex $-1 -1 $-1 $141 $237 #
ellipse-curve $-1 -1 $-1 159.09092685938143 439.22413795215681 8.9000000000064698 0 0 1 -0.70873000075175907 1.5452190090839588 0 1 F 1.9628186043059378e-14 F 1.0618576824565504 #
coedge $-1 -1 $-1 $231 $147 $142 $187 forward $129 $-1 #
edge $238 -1 $-1 $150 -2.2101679901529048 $189 3.1415926535897949 $142 $239 forward @7 unknown #
truecolor-adesk-attrib $-1 -1 $240 $-1 $143 -1027687238 #
vertex $-1 -1 $-1 $143 $241 #
straight-curve $-1 -1 $-1 158.38219685862964 440.7693569612407 7.9000000000064698 0 0 10 F 0 F 0.10000000000000001 #
DXID-attrib $-1 -1 $-1 $144 $104 @18 ASM_EDGE_FROM_STEP @5 15385 #
point $-1 -1 $-1 158.38219685862964 440.7693569612407 8.9000000000064698 #
truecolor-adesk-attrib $-1 -1 $242 $-1 $148 -1027687238 #
ellipse-curve $-1 -1 $-1 148.90376678095217 439.58777228000662 7.9000000000064698 0 0 1 1.6999515981049604 0.012828253988395953 0 1 F -5.1996685503976109e-15 F 1.0618576824565258 #
DXID-attrib $-1 -1 $-1 $149 $106 @18 ASM_EDGE_FROM_STEP @5 15383 #
point $-1 -1 $-1 149.7208669241061 441.07852623557994 7.9000000000064698 #
coedge $-1 -1 $-1 $154 $243 $244 $245 forward $129 $-1 #
DXID-attrib $-1 -1 $-1 $155 $111 @18 ASM_EDGE_FROM_STEP @5 15380 #
coedge $-1 -1 $-1 $244 $165 $159 $200 reversed $210 $-1 #
edge $246 -1 $-1 $202 0 $168 0.10000000000000001 $199 $247 forward @7 unknown #
truecolor-adesk-attrib $-1 -1 $248 $-1 $160 -1027687238 #
vertex $-1 -1 $-1 $200 $249 #
ellipse-curve $-1 -1 $-1 154.33949190284849 448.99109727781411 7.9000000000064698 0 0 -1 2.3964783753634582 11.038971269370441 0 1 F 3.0011299424741487 F 3.1415926535897944 #
truecolor-adesk-attrib $-1 -1 $250 $-1 $161 -1027687238 #
cone-surface $-1 -1 $-1 154.33949190284849 448.99109727781411 7.9000000000064698 0 0 1 2.3964783753634582 11.038971269370441 0 1 I I 0 1 11.2961053150885 forward I I I I #
coedge $-1 -1 $-1 $224 $164 $221 $251 reversed $79 $-1 #
coedge $-1 -1 $-1 $252 $253 $164 $208 forward $219 $-1 #
edge $254 -1 $-1 $255 3.003330117688378e-16 $212 6.1712848282977273 $207 $256 forward @7 unknown #
coedge $-1 -1 $-1 $165 $244 $252 $257 forward $210 $-1 #
loop $-1 -1 $-1 $-1 $165 $218 #
truecolor-adesk-attrib $-1 -1 $258 $-1 $166 -1027687238 #
vertex $-1 -1 $-1 $208 $259 #
straight-curve $-1 -1 $-1 153.64407458367558 441.42298028927638 8.9000000000064698 -0.35672639116038185 -9.993635288614934 0 F 0 F 0.36999999999999988 #
DXID-attrib $-1 -1 $-1 $167 $122 @18 ASM_EDGE_FROM_STEP @5 15406 #
point $-1 -1 $-1 153.51208581894622 437.72533523248882 8.9000000000064698 #
DXID-attrib $-1 -1 $-1 $172 $134 @18 ASM_FACE_FROM_STEP @16 stp-2M-185-26865 #
truecolor-adesk-attrib $-1 -1 $260 $-1 $173 -1027687238 #
face $261 -1 $-1 $161 $210 $3 $-1 $262 forward single #
loop $-1 -1 $-1 $-1 $207 $173 #
cone-surface $-1 -1 $-1 154.33949190284849 448.99109727781411 7.9000000000064698 0 0 1 0.15404168035932958 -7.5984387317864233 0 1 I I 0 1 7.5999999999999996 forward I I I I #
coedge $-1 -1 $-1 $263 $264 $206 $251 forward $174 $-1 #
coedge $-1 -1 $-1 $265 $176 $264 $266 reversed $135 $-1 #
coedge $-1 -1 $-1 $176 $265 $177 $227 forward $135 $-1 #
coedge $-1 -1 $-1 $179 $206 $176 $225 reversed $79 $-1 #
edge $267 -1 $-1 $229 3.0011299424741469 $268 3.1415926535897931 $176 $269 forward @7 unknown #
coedge $-1 -1 $-1 $178 $177 $270 $271 reversed $98 $-1 #
edge $272 -1 $-1 $273 0 $229 0.10000000000000001 $177 $274 forward @7 unknown #
truecolor-adesk-attrib $-1 -1 $275 $-1 $180 -1027687238 #
vertex $-1 -1 $-1 $180 $276 #
ellipse-curve $-1 -1 $-1 155.70150597529118 439.49214181498883 8.9000000000064698 0 0 -1 -0.24128788160670195 1.6827893980500797 0 1 F 1.7921178193396254 F 3.1415926535897882 #
coedge $-1 -1 $-1 $270 $186 $181 $232 forward $129 $-1 #
edge $277 -1 $-1 $189 1.9628186043059378e-14 $234 1.0618576824565504 $181 $278 forward @7 unknown #
truecolor-adesk-attrib $-1 -1 $279 $-1 $182 -1027687238 #
vertex $-1 -1 $-1 $182 $280 #
straight-curve $-1 -1 $-1 157.39621641733629 439.35813988357285 7.9000000000064698 0 0 10 F 0 F 0.10000000000000001 #
DXID-attrib $-1 -1 $-1 $183 $141 @18 ASM_EDGE_FROM_STEP @5 15388 #
point $-1 -1 $-1 157.39621641733629 439.35813988357285 8.9000000000064698 #
truecolor-adesk-attrib $-1 -1 $281 $-1 $187 -1027687238 #
ellipse-curve $-1 -1 $-1 154.35911185436234 449.54074721868795 7.9000000000064698 0 0 -1 -4.023085004267327 8.7713902574471732 0 1 F -2.2101679901529048 F 3.1415926535897949 #
DXID-attrib $-1 -1 $-1 $188 $143 @18 ASM_EDGE_FROM_STEP @5 15386 #
point $-1 -1 $-1 158.38219685862964 440.7693569612407 7.9000000000064698 #
DXID-attrib $-1 -1 $-1 $193 $148 @18 ASM_EDGE_FROM_STEP @5 15384 #
coedge $-1 -1 $-1 $197 $282 $283 $284 forward $129 $-1 #
coedge $-1 -1 $-1 $209 $199 $197 $245 reversed $210 $-1 #
edge $285 -1 $-1 $286 0 $202 0.36999999999999988 $244 $287 forward @7 unknown #
truecolor-adesk-attrib $-1 -1 $288 $-1 $200 -1027687238 #
straight-curve $-1 -1 $-1 153.51208581894622 437.72533523248882 7.9000000000064698 0 0 10 F 0 F 0.10000000000000001 #
DXID-attrib $-1 -1 $-1 $201 $160 @18 ASM_EDGE_FROM_STEP @5 15407 #
point $-1 -1 $-1 153.51208581894622 437.72533523248882 7.9000000000064698 #
DXID-attrib $-1 -1 $-1 $204 $161 @18 ASM_FACE_FROM_STEP @16 stp-2M-185-26868 #
edge $289 -1 $-1 $268 0 $255 0.36999999999999988 $221 $290 forward @7 unknown #
coedge $-1 -1 $-1 $283 $207 $209 $257 reversed $219 $-1 #
coedge $-1 -1 $-1 $207 $283 $263 $291 forward $219 $-1 #
truecolor-adesk-attrib $-1 -1 $292 $-1 $208 -1027687238 #
vertex $-1 -1 $-1 $251 $293 #
ellipse-curve $-1 -1 $-1 154.33949190284849 448.99109727781411 8.9000000000064698 0 0 1 0.15404168035932958 -7.5984387317864233 0 1 F 3.003330117688378e-16 F 6.1712848282977273 #
edge $294 -1 $-1 $286 0 $212 0.10000000000000001 $252 $295 forward @7 unknown #
DXID-attrib $-1 -1 $-1 $211 $166 @18 ASM_EDGE_FROM_STEP @5 15403 #
point $-1 -1 $-1 153.64407458367558 441.42298028927638 8.9000000000064698 #
DXID-attrib $-1 -1 $-1 $217 $173 @18 ASM_FACE_FROM_STEP @16 stp-2M-185-26866 #
truecolor-adesk-attrib $-1 -1 $296 $-1 $218 -1027687238 #
plane-surface $-1 -1 $-1 153.64407458367558 441.42298028927638 7.9000000000064698 0.99936352886149338 -0.035672639116038185 0 0 0 -1 forward_v I I I I #
coedge $-1 -1 $-1 $297 $221 $253 $291 reversed $174 $-1 #
coedge $-1 -1 $-1 $221 $297 $222 $266 forward $174 $-1 #
coedge $-1 -1 $-1 $223 $222 $298 $299 reversed $135 $-1 #
edge $300 -1 $-1 $301 0 $268 0.10000000000000001 $222 $302 forward @7 unknown #
truecolor-adesk-attrib $-1 -1 $303 $-1 $225 -1027687238 #
vertex $-1 -1 $-1 $225 $304 #
ellipse-curve $-1 -1 $-1 154.33949190284849 448.99109727781411 8.9000000000064698 0 0 -1 -0.022052915629986847 11.296083788573936 0 1 F 3.0011299424741469 F 3.1415926535897931 #
coedge $-1 -1 $-1 $298 $231 $226 $271 forward $129 $-1 #
edge $305 -1 $-1 $234 1.7921178193396254 $273 3.1415926535897882 $226 $306 forward @7 unknown #
truecolor-adesk-attrib $-1 -1 $307 $-1 $227 -1027687238 #
vertex $-1 -1 $-1 $227 $308 #
straight-curve $-1 -1 $-1 155.94279385689788 437.80935241693879 7.9000000000064698 0 0 10 F 0 F 0.10000000000000001 #
DXID-attrib $-1 -1 $-1 $228 $180 @18 ASM_EDGE_FROM_STEP @5 15391 #
point $-1 -1 $-1 155.94279385689788 437.80935241693879 8.9000000000064698 #
truecolor-adesk-attrib $-1 -1 $309 $-1 $232 -1027687238 #
ellipse-curve $-1 -1 $-1 159.09092685938143 439.22413795215681 7.9000000000064698 0 0 1 -0.70873000075175907 1.5452190090839588 0 1 F 1.9628186043059378e-14 F 1.0618576824565504 #
DXID-attrib $-1 -1 $-1 $233 $182 @18 ASM_EDGE_FROM_STEP @5 15389 #
point $-1 -1 $-1 157.39621641733629 439.35813988357285 7.9000000000064698 #
DXID-attrib $-1 -1 $-1 $238 $187 @18 ASM_EDGE_FROM_STEP @5 15387 #
coedge $-1 -1 $-1 $243 $298 $297 $310 forward $129 $-1 #
coedge $-1 -1 $-1 $253 $252 $243 $284 reversed $219 $-1 #
edge $311 -1 $-1 $312 3.003330117688378e-16 $286 6.1712848282977273 $283 $313 forward @7 unknown #
truecolor-adesk-attrib $-1 -1 $314 $-1 $245 -1027687238 #
vertex $-1 -1 $-1 $257 $315 #
straight-curve $-1 -1 $-1 153.64407458367558 441.42298028927638 7.9000000000064698 -0.35672639116038185 -9.993635288614934 0 F 0 F 0.36999999999999988 #
DXID-attrib $-1 -1 $-1 $246 $200 @18 ASM_EDGE_FROM_STEP @5 15404 #
truecolor-adesk-attrib $-1 -1 $316 $-1 $251 -1027687238 #
straight-curve $-1 -1 $-1 154.36154481847851 437.69501348924018 8.9000000000064698 0.35672639116038518 9.993635288614934 0 F 0 F 0.36999999999999988 #
edge $317 -1 $-1 $312 0 $255 0.10000000000000001 $263 $318 forward @7 unknown #
DXID-attrib $-1 -1 $-1 $254 $208 @18 ASM_EDGE_FROM_STEP @5 15400 #
point $-1 -1 $-1 154.49353358320784 441.39265854602775 8.9000000000064698 #
truecolor-adesk-attrib $-1 -1 $319 $-1 $257 -1027687238 #
straight-curve $-1 -1 $-1 153.64407458367558 441.42298028927638 7.9000000000064698 0 0 10 F 0 F 0.10000000000000001 #
DXID-attrib $-1 -1 $-1 $261 $218 @18 ASM_FACE_FROM_STEP @16 stp-2M-185-26867 #
coedge $-1 -1 $-1 $264 $263 $282 $310 reversed $174 $-1 #
coedge $-1 -1 $-1 $282 $270 $265 $299 forward $129 $-1 #
edge $320 -1 $-1 $273 3.0011299424741469 $301 3.1415926535897931 $265 $321 forward @7 unknown #
truecolor-adesk-attrib $-1 -1 $322 $-1 $266 -1027687238 #
vertex $-1 -1 $-1 $266 $323 #
straight-curve $-1 -1 $-1 154.36154481847851 437.69501348924018 7.9000000000064698 0 0 10 F 0 F 0.10000000000000001 #
DXID-attrib $-1 -1 $-1 $267 $225 @18 ASM_EDGE_FROM_STEP @5 15394 #
point $-1 -1 $-1 154.36154481847851 437.69501348924018 8.9000000000064698 #
truecolor-adesk-attrib $-1 -1 $324 $-1 $271 -1027687238 #
ellipse-curve $-1 -1 $-1 155.70150597529118 439.49214181498883 7.9000000000064698 0 0 -1 -0.24128788160670195 1.6827893980500797 0 1 F 1.7921178193396254 F 3.1415926535897882 #
DXID-attrib $-1 -1 $-1 $272 $227 @18 ASM_EDGE_FROM_STEP @5 15392 #
point $-1 -1 $-1 155.94279385689788 437.80935241693879 7.9000000000064698 #
DXID-attrib $-1 -1 $-1 $277 $232 @18 ASM_EDGE_FROM_STEP @5 15390 #
edge $325 -1 $-1 $301 0 $312 0.36999999999999988 $297 $326 forward @7 unknown #
truecolor-adesk-attrib $-1 -1 $327 $-1 $284 -1027687238 #
vertex $-1 -1 $-1 $291 $328 #
ellipse-curve $-1 -1 $-1 154.33949190284849 448.99109727781411 7.9000000000064698 0 0 1 0.15404168035932958 -7.5984387317864233 0 1 F 3.003330117688378e-16 F 6.1712848282977273 #
DXID-attrib $-1 -1 $-1 $285 $245 @18 ASM_EDGE_FROM_STEP @5 15405 #
point $-1 -1 $-1 153.64407458367558 441.42298028927638 7.9000000000064698 #
DXID-attrib $-1 -1 $-1 $289 $251 @18 ASM_EDGE_FROM_STEP @5 15397 #
truecolor-adesk-attrib $-1 -1 $329 $-1 $291 -1027687238 #
straight-curve $-1 -1 $-1 154.49353358320784 441.39265854602775 7.9000000000064698 0 0 10 F 0 F 0.10000000000000001 #
DXID-attrib $-1 -1 $-1 $294 $257 @18 ASM_EDGE_FROM_STEP @5 15401 #
truecolor-adesk-attrib $-1 -1 $330 $-1 $299 -1027687238 #
ellipse-curve $-1 -1 $-1 154.33949190284849 448.99109727781411 7.9000000000064698 0 0 -1 -0.022052915629986847 11.296083788573936 0 1 F 3.0011299424741469 F 3.1415926535897931 #
DXID-attrib $-1 -1 $-1 $300 $266 @18 ASM_EDGE_FROM_STEP @5 15395 #
point $-1 -1 $-1 154.36154481847851 437.69501348924018 7.9000000000064698 #
DXID-attrib $-1 -1 $-1 $305 $271 @18 ASM_EDGE_FROM_STEP @5 15393 #
truecolor-adesk-attrib $-1 -1 $331 $-1 $310 -1027687238 #
straight-curve $-1 -1 $-1 154.36154481847851 437.69501348924018 7.9000000000064698 0.35672639116038518 9.993635288614934 0 F 0 F 0.36999999999999988 #
DXID-attrib $-1 -1 $-1 $311 $284 @18 ASM_EDGE_FROM_STEP @5 15402 #
point $-1 -1 $-1 154.49353358320784 441.39265854602775 7.9000000000064698 #
DXID-attrib $-1 -1 $-1 $317 $291 @18 ASM_EDGE_FROM_STEP @5 15398 #
DXID-attrib $-1 -1 $-1 $320 $299 @18 ASM_EDGE_FROM_STEP @5 15396 #
DXID-attrib $-1 -1 $-1 $325 $310 @18 ASM_EDGE_FROM_STEP @5 15399 #
