700 230 1 0         
5 ZWCAD 12 ACIS 28.0 NT 24 Sat May 11 15:58:17 2024 
1 9.9999999999999995e-07 1e-10 
body $1 -1 $-1 $2 $-1 $-1 #
DXID-attrib $-1 -1 $-1 $-1 $0 @18 ASM_BODY_FROM_STEP @83 ACB53968D35CFE8EF5C10DF6067D43A08F3AC696|:|56547D751E6203B7E6431A2ED718A6DA4FD8AA07 #
lump $-1 -1 $-1 $-1 $3 $0 #
shell $-1 -1 $-1 $-1 $-1 $4 $-1 $2 #
face $5 -1 $-1 $6 $7 $3 $-1 $8 forward single #
truecolor-adesk-attrib $-1 -1 $9 $-1 $4 -1056964608 #
face $10 -1 $-1 $11 $12 $3 $-1 $13 forward single #
loop $-1 -1 $-1 $-1 $14 $4 #
plane-surface $-1 -1 $-1 266.04451501383409 -1136.5266628063785 784.5 -0.99571315171605346 0.092494970131804966 0 -0.092494970131804966 -0.99571315171605346 0 forward_v I I I I #
DXID-attrib $-1 -1 $-1 $5 $4 @18 ASM_FACE_FROM_STEP @16 stp-1M-143-20431 #
truecolor-adesk-attrib $-1 -1 $15 $-1 $6 -1056964608 #
face $16 -1 $-1 $17 $18 $3 $-1 $19 reversed single #
loop $-1 -1 $-1 $-1 $20 $6 #
plane-surface $-1 -1 $-1 268.73214076053409 -1254.3323700740784 784.5 0 -1 0 1 0 0 forward_v I I I I #
coedge $-1 -1 $-1 $21 $22 $23 $24 reversed $7 $-1 #
DXID-attrib $-1 -1 $-1 $10 $6 @18 ASM_FACE_FROM_STEP @16 stp-1M-143-20471 #
truecolor-adesk-attrib $-1 -1 $25 $-1 $11 -1056964608 #
face $26 -1 $-1 $27 $28 $3 $-1 $29 forward single #
loop $-1 -1 $-1 $-1 $30 $11 #
plane-surface $-1 -1 $-1 273.73214076053409 -1184.3323700740784 784.5 -1 0 0 0 -1 0 forward_v I I I I #
coedge $-1 -1 $-1 $31 $32 $33 $34 reversed $12 $-1 #
coedge $-1 -1 $-1 $35 $14 $36 $37 forward $7 $-1 #
coedge $-1 -1 $-1 $14 $35 $38 $39 reversed $7 $-1 #
coedge $-1 -1 $-1 $40 $41 $14 $24 forward $28 $-1 #
edge $42 -1 $-1 $43 -20 $44 20 $14 $45 forward @7 unknown #
DXID-attrib $-1 -1 $-1 $16 $11 @18 ASM_FACE_FROM_STEP @16 stp-1M-143-20502 #
truecolor-adesk-attrib $-1 -1 $46 $-1 $17 -1056964608 #
face $47 -1 $-1 $48 $49 $3 $-1 $50 reversed single #
loop $-1 -1 $-1 $-1 $41 $17 #
cone-surface $-1 -1 $-1 263.73214076053409 -1161.4194915992784 804.5 0 0 1 10.000000000001544 -22.91287847477853 0 1 I I 0 1 25.000000000000004 forward I I I I #
coedge $-1 -1 $-1 $51 $52 $53 $54 reversed $18 $-1 #
coedge $-1 -1 $-1 $55 $20 $56 $57 forward $12 $-1 #
coedge $-1 -1 $-1 $20 $55 $58 $59 reversed $12 $-1 #
coedge $-1 -1 $-1 $60 $61 $20 $34 forward $62 $-1 #
edge $63 -1 $-1 $64 -20 $65 20 $20 $66 forward @7 unknown #
coedge $-1 -1 $-1 $22 $21 $67 $68 forward $7 $-1 #
coedge $-1 -1 $-1 $69 $70 $21 $37 reversed $71 $-1 #
edge $72 -1 $-1 $43 -2.500000000010004 $73 2.500000000010004 $21 $74 forward @7 unknown #
coedge $-1 -1 $-1 $75 $76 $22 $39 forward $77 $-1 #
edge $78 -1 $-1 $44 -2.500000000010004 $79 2.500000000010004 $22 $80 forward @7 unknown #
coedge $-1 -1 $-1 $81 $23 $76 $82 reversed $28 $-1 #
coedge $-1 -1 $-1 $23 $81 $69 $83 forward $28 $-1 #
truecolor-adesk-attrib $-1 -1 $84 $-1 $24 -1056964608 #
vertex $-1 -1 $-1 $24 $85 #
vertex $-1 -1 $-1 $24 $86 #
straight-curve $-1 -1 $-1 266.04451501383409 -1136.5266628063785 804.5 0 0 1 F -20 F 20 #
DXID-attrib $-1 -1 $-1 $26 $17 @18 ASM_FACE_FROM_STEP @16 stp-1M-143-20533 #
truecolor-adesk-attrib $-1 -1 $87 $-1 $27 -1056964608 #
face $88 -1 $-1 $89 $90 $3 $-1 $91 reversed single #
loop $-1 -1 $-1 $-1 $92 $27 #
cone-surface $-1 -1 $-1 278.73214076053409 -1187.4002537127785 804.5 0 0 -1 -5 5.8286708792999995e-15 0 1 I I 0 1 5 forward I I I I #
coedge $-1 -1 $-1 $93 $30 $94 $95 forward $18 $-1 #
coedge $-1 -1 $-1 $30 $93 $96 $97 reversed $18 $-1 #
coedge $-1 -1 $-1 $98 $99 $30 $54 forward $49 $-1 #
edge $100 -1 $-1 $101 -20 $102 20 $30 $103 forward @7 unknown #
coedge $-1 -1 $-1 $32 $31 $93 $104 forward $12 $-1 #
coedge $-1 -1 $-1 $105 $96 $31 $57 reversed $71 $-1 #
edge $106 -1 $-1 $64 -2.5 $107 2.5 $31 $108 forward @7 unknown #
coedge $-1 -1 $-1 $94 $109 $32 $59 forward $77 $-1 #
edge $110 -1 $-1 $65 -2.5 $111 2.5 $32 $112 forward @7 unknown #
coedge $-1 -1 $-1 $113 $33 $109 $114 reversed $62 $-1 #
coedge $-1 -1 $-1 $33 $113 $105 $115 forward $62 $-1 #
loop $-1 -1 $-1 $-1 $61 $89 #
truecolor-adesk-attrib $-1 -1 $116 $-1 $34 -1056964608 #
vertex $-1 -1 $-1 $34 $117 #
vertex $-1 -1 $-1 $34 $118 #
straight-curve $-1 -1 $-1 268.73214076053409 -1254.3323700740784 804.5 0 0 1 F -20 F 20 #
coedge $-1 -1 $-1 $119 $120 $35 $68 reversed $90 $-1 #
edge $121 -1 $-1 $73 -20 $79 20 $35 $122 forward @7 unknown #
coedge $-1 -1 $-1 $123 $36 $41 $83 reversed $71 $-1 #
coedge $-1 -1 $-1 $36 $124 $119 $125 forward $71 $-1 #
loop $-1 -1 $-1 $-1 $124 $126 #
truecolor-adesk-attrib $-1 -1 $127 $-1 $37 -1056964608 #
vertex $-1 -1 $-1 $37 $128 #
straight-curve $-1 -1 $-1 265.81327758850409 -1139.0159456856784 784.5 -0.092494970131799997 -0.99571315171600006 0 F -2.500000000010004 F 2.500000000010004 #
coedge $-1 -1 $-1 $129 $38 $120 $130 reversed $77 $-1 #
coedge $-1 -1 $-1 $38 $131 $40 $82 forward $77 $-1 #
loop $-1 -1 $-1 $-1 $109 $132 #
truecolor-adesk-attrib $-1 -1 $133 $-1 $39 -1056964608 #
vertex $-1 -1 $-1 $68 $134 #
straight-curve $-1 -1 $-1 265.81327758850409 -1139.0159456856784 824.5 -0.092494970131799997 -0.99571315171600006 0 F -2.500000000010004 F 2.500000000010004 #
coedge $-1 -1 $-1 $41 $40 $92 $135 forward $28 $-1 #
edge $136 -1 $-1 $137 2.0943951023934151 $44 4.6197616125626624 $40 $138 forward @7 unknown #
edge $139 -1 $-1 $140 2.0943951023934151 $43 4.6197616125626624 $41 $141 forward @7 unknown #
DXID-attrib $-1 -1 $-1 $42 $24 @18 ASM_EDGE_FROM_STEP @5 20405 #
point $-1 -1 $-1 266.04451501383409 -1136.5266628063785 784.5 #
point $-1 -1 $-1 266.04451501383409 -1136.5266628063785 824.5 #
DXID-attrib $-1 -1 $-1 $47 $27 @18 ASM_FACE_FROM_STEP @16 stp-1M-143-20555 #
truecolor-adesk-attrib $-1 -1 $142 $-1 $48 -1056964608 #
face $143 -1 $-1 $132 $62 $3 $-1 $144 forward single #
loop $-1 -1 $-1 $-1 $145 $48 #
cone-surface $-1 -1 $-1 263.73214076053409 -1161.4194915992784 804.5 0 0 1 8.0000000000012328 -18.330302779822823 0 1 I I 0 1 20 forward I I I I #
coedge $-1 -1 $-1 $99 $98 $81 $135 reversed $49 $-1 #
coedge $-1 -1 $-1 $52 $51 $55 $104 reversed $18 $-1 #
coedge $-1 -1 $-1 $131 $58 $51 $95 reversed $77 $-1 #
edge $146 -1 $-1 $101 -33.46605818070001 $111 33.466058180599987 $51 $147 forward @7 unknown #
coedge $-1 -1 $-1 $56 $123 $52 $97 forward $71 $-1 #
edge $148 -1 $-1 $102 -33.46605818070001 $107 33.466058180599987 $52 $149 forward @7 unknown #
coedge $-1 -1 $-1 $92 $53 $123 $150 reversed $49 $-1 #
coedge $-1 -1 $-1 $53 $92 $131 $151 reversed $49 $-1 #
truecolor-adesk-attrib $-1 -1 $152 $-1 $54 -1056964608 #
vertex $-1 -1 $-1 $54 $153 #
vertex $-1 -1 $-1 $54 $154 #
straight-curve $-1 -1 $-1 273.73214076053409 -1187.4002537127785 804.5 0 0 -1 F -20 F 20 #
edge $155 -1 $-1 $107 -20 $111 20 $55 $156 forward @7 unknown #
coedge $-1 -1 $-1 $124 $56 $61 $115 reversed $71 $-1 #
truecolor-adesk-attrib $-1 -1 $157 $-1 $57 -1056964608 #
vertex $-1 -1 $-1 $57 $158 #
straight-curve $-1 -1 $-1 271.23214076053409 -1254.3323700740784 784.5 1 0 0 F -2.5 F 2.5 #
coedge $-1 -1 $-1 $58 $129 $60 $114 forward $77 $-1 #
truecolor-adesk-attrib $-1 -1 $159 $-1 $59 -1056964608 #
vertex $-1 -1 $-1 $104 $160 #
straight-curve $-1 -1 $-1 271.23214076053409 -1254.3323700740784 824.5 1 0 0 F -2.5 F 2.5 #
coedge $-1 -1 $-1 $61 $60 $161 $162 reversed $62 $-1 #
edge $163 -1 $-1 $164 -33.46605818070001 $65 33.466058180599987 $60 $165 forward @7 unknown #
edge $166 -1 $-1 $167 -33.46605818070001 $64 33.466058180599987 $61 $168 forward @7 unknown #
DXID-attrib $-1 -1 $-1 $63 $34 @18 ASM_EDGE_FROM_STEP @5 20445 #
point $-1 -1 $-1 268.73214076053409 -1254.3323700740784 784.5 #
point $-1 -1 $-1 268.73214076053409 -1254.3323700740784 824.5 #
coedge $-1 -1 $-1 $145 $67 $70 $125 reversed $90 $-1 #
coedge $-1 -1 $-1 $67 $145 $75 $130 forward $90 $-1 #
truecolor-adesk-attrib $-1 -1 $169 $-1 $68 -1056964608 #
straight-curve $-1 -1 $-1 265.5820401631741 -1141.5052285649786 804.5 0 0 1 F -20 F 20 #
coedge $-1 -1 $-1 $96 $69 $98 $150 forward $71 $-1 #
coedge $-1 -1 $-1 $70 $105 $170 $171 reversed $71 $-1 #
edge $172 -1 $-1 $173 2.0943951023929146 $73 4.6197616125625691 $119 $174 forward @7 unknown #
face $175 -1 $-1 $176 $71 $3 $-1 $177 reversed single #
DXID-attrib $-1 -1 $-1 $72 $37 @18 ASM_EDGE_FROM_STEP @5 20412 #
point $-1 -1 $-1 265.5820401631741 -1141.5052285649786 784.5 #
coedge $-1 -1 $-1 $109 $75 $178 $179 reversed $77 $-1 #
edge $180 -1 $-1 $181 2.0943951023929146 $79 4.6197616125625691 $120 $182 forward @7 unknown #
coedge $-1 -1 $-1 $76 $94 $99 $151 forward $77 $-1 #
face $183 -1 $-1 $126 $77 $3 $-1 $184 forward single #
DXID-attrib $-1 -1 $-1 $78 $39 @18 ASM_EDGE_FROM_STEP @5 20424 #
point $-1 -1 $-1 265.5820401631741 -1141.5052285649786 824.5 #
edge $185 -1 $-1 $137 -20 $140 20 $81 $186 reversed @7 unknown #
truecolor-adesk-attrib $-1 -1 $187 $-1 $82 -1056964608 #
vertex $-1 -1 $-1 $82 $188 #
ellipse-curve $-1 -1 $-1 263.73214076053409 -1161.4194915992784 824.5 0 0 1 -25 0 0 1 F 2.0943951023934151 F 4.6197616125626624 #
truecolor-adesk-attrib $-1 -1 $189 $-1 $83 -1056964608 #
vertex $-1 -1 $-1 $83 $190 #
ellipse-curve $-1 -1 $-1 263.73214076053409 -1161.4194915992784 784.5 0 0 1 -25 0 0 1 F 2.0943951023934151 F 4.6197616125626624 #
DXID-attrib $-1 -1 $-1 $88 $48 @18 ASM_FACE_FROM_STEP @16 stp-1M-143-20586 #
truecolor-adesk-attrib $-1 -1 $191 $-1 $89 -1056964608 #
plane-surface $-1 -1 $-1 268.73214076053409 -1181.0591017205784 784.5 -1 0 0 0 -1 0 forward_v I I I I #
coedge $-1 -1 $-1 $120 $119 $192 $193 forward $90 $-1 #
truecolor-adesk-attrib $-1 -1 $194 $-1 $95 -1056964608 #
straight-curve $-1 -1 $-1 273.73214076053409 -1220.8663118934785 824.5 0 -1 0 F -33.46605818070001 F 33.466058180599987 #
truecolor-adesk-attrib $-1 -1 $195 $-1 $97 -1056964608 #
straight-curve $-1 -1 $-1 273.73214076053409 -1220.8663118934785 784.5 0 -1 0 F -33.46605818070001 F 33.466058180599987 #
edge $196 -1 $-1 $140 2.0943951023954148 $102 3.1415926535897931 $98 $197 reversed @7 unknown #
edge $198 -1 $-1 $101 -3.1415926535897931 $137 -2.0943951023954148 $99 $199 forward @7 unknown #
DXID-attrib $-1 -1 $-1 $100 $54 @18 ASM_EDGE_FROM_STEP @5 20485 #
point $-1 -1 $-1 273.73214076053409 -1187.4002537127785 824.5 #
point $-1 -1 $-1 273.73214076053409 -1187.4002537127785 784.5 #
truecolor-adesk-attrib $-1 -1 $200 $-1 $104 -1056964608 #
straight-curve $-1 -1 $-1 273.73214076053409 -1254.3323700740784 804.5 0 0 1 F -20 F 20 #
DXID-attrib $-1 -1 $-1 $106 $57 @18 ASM_EDGE_FROM_STEP @5 20452 #
point $-1 -1 $-1 273.73214076053409 -1254.3323700740784 784.5 #
DXID-attrib $-1 -1 $-1 $110 $59 @18 ASM_EDGE_FROM_STEP @5 20464 #
point $-1 -1 $-1 273.73214076053409 -1254.3323700740784 824.5 #
coedge $-1 -1 $-1 $178 $170 $113 $162 forward $201 $-1 #
edge $202 -1 $-1 $167 -20 $164 20 $113 $203 reversed @7 unknown #
truecolor-adesk-attrib $-1 -1 $204 $-1 $114 -1056964608 #
vertex $-1 -1 $-1 $114 $205 #
straight-curve $-1 -1 $-1 268.73214076053409 -1220.8663118934785 824.5 0 -1 0 F -33.46605818070001 F 33.466058180599987 #
truecolor-adesk-attrib $-1 -1 $206 $-1 $115 -1056964608 #
vertex $-1 -1 $-1 $115 $207 #
straight-curve $-1 -1 $-1 268.73214076053409 -1220.8663118934785 784.5 0 -1 0 F -33.46605818070001 F 33.466058180599987 #
DXID-attrib $-1 -1 $-1 $121 $68 @18 ASM_EDGE_FROM_STEP @5 20419 #
coedge $-1 -1 $-1 $161 $192 $124 $171 forward $201 $-1 #
edge $208 -1 $-1 $173 -1.0471975511943783 $167 0 $124 $209 forward @7 unknown #
truecolor-adesk-attrib $-1 -1 $210 $-1 $125 -1056964608 #
vertex $-1 -1 $-1 $193 $211 #
ellipse-curve $-1 -1 $-1 263.73214076053409 -1161.4194915992784 784.5 0 0 1 -20 0 0 1 F 2.0943951023929146 F 4.6197616125625691 #
truecolor-adesk-attrib $-1 -1 $212 $-1 $126 -1056964608 #
face $213 -1 $-1 $-1 $201 $3 $-1 $214 forward single #
plane-surface $-1 -1 $-1 263.73214076053409 -1161.4194915992784 784.5 0 0 1 0 -1 0 forward_v I I I I #
coedge $-1 -1 $-1 $192 $161 $129 $179 forward $201 $-1 #
edge $215 -1 $-1 $164 0 $181 1.0471975511943783 $129 $216 reversed @7 unknown #
truecolor-adesk-attrib $-1 -1 $217 $-1 $130 -1056964608 #
vertex $-1 -1 $-1 $193 $218 #
ellipse-curve $-1 -1 $-1 263.73214076053409 -1161.4194915992784 824.5 0 0 1 -20 0 0 1 F 2.0943951023929146 F 4.6197616125625691 #
truecolor-adesk-attrib $-1 -1 $219 $-1 $132 -1056964608 #
plane-surface $-1 -1 $-1 263.73214076053409 -1161.4194915992784 824.5 0 0 1 0 -1 0 forward_v I I I I #
truecolor-adesk-attrib $-1 -1 $220 $-1 $135 -1056964608 #
straight-curve $-1 -1 $-1 276.23214076053409 -1183.0701266938784 804.5 0 0 1 F -20 F 20 #
DXID-attrib $-1 -1 $-1 $136 $82 @18 ASM_EDGE_FROM_STEP @5 20521 #
point $-1 -1 $-1 276.23214076053409 -1183.0701266938784 824.5 #
DXID-attrib $-1 -1 $-1 $139 $83 @18 ASM_EDGE_FROM_STEP @5 20514 #
point $-1 -1 $-1 276.23214076053409 -1183.0701266938784 784.5 #
DXID-attrib $-1 -1 $-1 $143 $89 @18 ASM_FACE_FROM_STEP @16 stp-1M-143-20617 #
coedge $-1 -1 $-1 $170 $178 $145 $193 reversed $201 $-1 #
edge $221 -1 $-1 $173 -20 $181 20 $145 $222 forward @7 unknown #
DXID-attrib $-1 -1 $-1 $146 $95 @18 ASM_EDGE_FROM_STEP @5 20490 #
DXID-attrib $-1 -1 $-1 $148 $97 @18 ASM_EDGE_FROM_STEP @5 20495 #
truecolor-adesk-attrib $-1 -1 $223 $-1 $150 -1056964608 #
ellipse-curve $-1 -1 $-1 278.73214076053409 -1187.4002537127785 784.5 0 0 -1 5 0 0 1 F -3.1415926535897931 F -2.0943951023954148 #
truecolor-adesk-attrib $-1 -1 $224 $-1 $151 -1056964608 #
ellipse-curve $-1 -1 $-1 278.73214076053409 -1187.4002537127785 824.5 0 0 -1 5 0 0 1 F -3.1415926535897931 F -2.0943951023954148 #
DXID-attrib $-1 -1 $-1 $155 $104 @18 ASM_EDGE_FROM_STEP @5 20459 #
loop $-1 -1 $-1 $-1 $178 $176 #
truecolor-adesk-attrib $-1 -1 $225 $-1 $162 -1056964608 #
straight-curve $-1 -1 $-1 268.73214076053409 -1187.4002537127785 804.5 0 0 -1 F -20 F 20 #
DXID-attrib $-1 -1 $-1 $163 $114 @18 ASM_EDGE_FROM_STEP @5 20605 #
point $-1 -1 $-1 268.73214076053409 -1187.4002537127785 824.5 #
DXID-attrib $-1 -1 $-1 $166 $115 @18 ASM_EDGE_FROM_STEP @5 20598 #
point $-1 -1 $-1 268.73214076053409 -1187.4002537127785 784.5 #
truecolor-adesk-attrib $-1 -1 $226 $-1 $171 -1056964608 #
ellipse-curve $-1 -1 $-1 278.73214076053409 -1187.4002537127785 784.5 0 0 1 -10 0 0 1 F -1.0471975511943783 F 0 #
DXID-attrib $-1 -1 $-1 $172 $125 @18 ASM_EDGE_FROM_STEP @5 20579 #
point $-1 -1 $-1 273.73214076053409 -1178.7399996749784 784.5 #
DXID-attrib $-1 -1 $-1 $175 $126 @18 ASM_FACE_FROM_STEP @16 stp-1M-143-20659 #
truecolor-adesk-attrib $-1 -1 $227 $-1 $176 -1056964608 #
cone-surface $-1 -1 $-1 278.73214076053409 -1187.4002537127785 804.5 0 0 -1 -10 0 0 1 I I 0 1 10 forward I I I I #
truecolor-adesk-attrib $-1 -1 $228 $-1 $179 -1056964608 #
ellipse-curve $-1 -1 $-1 278.73214076053409 -1187.4002537127785 824.5 0 0 1 -10 0 0 1 F -1.0471975511943783 F 0 #
DXID-attrib $-1 -1 $-1 $180 $130 @18 ASM_EDGE_FROM_STEP @5 20574 #
point $-1 -1 $-1 273.73214076053409 -1178.7399996749784 824.5 #
DXID-attrib $-1 -1 $-1 $183 $132 @18 ASM_FACE_FROM_STEP @16 stp-1M-143-20638 #
DXID-attrib $-1 -1 $-1 $185 $135 @18 ASM_EDGE_FROM_STEP @5 20526 #
truecolor-adesk-attrib $-1 -1 $229 $-1 $193 -1056964608 #
straight-curve $-1 -1 $-1 273.73214076053409 -1178.7399996749784 804.5 0 0 1 F -20 F 20 #
DXID-attrib $-1 -1 $-1 $196 $150 @18 ASM_EDGE_FROM_STEP @5 20548 #
DXID-attrib $-1 -1 $-1 $198 $151 @18 ASM_EDGE_FROM_STEP @5 20543 #
DXID-attrib $-1 -1 $-1 $202 $162 @18 ASM_EDGE_FROM_STEP @5 20610 #
DXID-attrib $-1 -1 $-1 $208 $171 @18 ASM_EDGE_FROM_STEP @5 20648 #
DXID-attrib $-1 -1 $-1 $213 $176 @18 ASM_FACE_FROM_STEP @16 stp-1M-143-20671 #
DXID-attrib $-1 -1 $-1 $215 $179 @18 ASM_EDGE_FROM_STEP @5 20627 #
DXID-attrib $-1 -1 $-1 $221 $193 @18 ASM_EDGE_FROM_STEP @5 20569 #
