700 84 1 0          
5 ZWCAD 12 ACIS 28.0 NT 24 Mon May 13 10:20:37 2024 
1 9.9999999999999995e-07 1e-10 
body $1 -1 $-1 $2 $-1 $-1 #
DXID-attrib $-1 -1 $-1 $-1 $0 @18 ASM_BODY_FROM_STEP @83 0FABCA864A9E855A4E0289C20FF302FE00007A82|:|8CB3CBCEBE3339AC3139F7812237AD39DB573F35 #
lump $-1 -1 $-1 $-1 $3 $0 #
shell $-1 -1 $-1 $-1 $-1 $4 $-1 $2 #
face $5 -1 $-1 $6 $7 $3 $-1 $8 forward single #
truecolor-adesk-attrib $-1 -1 $9 $-1 $4 -1025450021 #
face $10 -1 $-1 $11 $12 $3 $-1 $13 forward single #
loop $-1 -1 $-1 $-1 $14 $4 #
torus-surface $-1 -1 $-1 135.70848294874543 -96.428340615059255 0 0 0 -1 7.0000000000000009 3.0000000000000004 -1 0 0 forward_v I I I I #
fmesh-eye-attrib $-1 -1 $15 $5 $4 #
truecolor-adesk-attrib $-1 -1 $16 $-1 $6 -1025450021 #
face $17 -1 $-1 $18 $19 $3 $-1 $20 forward single #
loop $-1 -1 $-1 $-1 $21 $6 #
cone-surface $-1 -1 $-1 128.70848294874543 -106.42834061505926 0 0 1 0 -3 0 0 1 I I 0 1 3.0000000000000004 forward I I I I #
coedge $-1 -1 $-1 $22 $23 $24 $25 reversed $7 $-1 #
DXID-attrib $-1 -1 $-1 $9 $4 @18 ASM_FACE_FROM_STEP @15 stp-1M-67-13812 #
fmesh-eye-attrib $-1 -1 $26 $10 $6 #
truecolor-adesk-attrib $-1 -1 $27 $-1 $11 -1025450021 #
face $28 -1 $-1 $-1 $29 $3 $-1 $30 forward single #
loop $-1 -1 $-1 $-1 $31 $11 #
torus-surface $-1 -1 $-1 135.70848294874543 -106.42834061505926 0 0 0 -1 7.0000000000000009 3.0000000000000004 -1 0 0 forward_v I I I I #
coedge $-1 -1 $-1 $32 $33 $34 $35 forward $12 $-1 #
coedge $-1 -1 $-1 $34 $14 $23 $36 forward $7 $-1 #
coedge $-1 -1 $-1 $14 $34 $22 $36 reversed $7 $-1 #
coedge $-1 -1 $-1 $37 $38 $14 $25 forward $29 $-1 #
edge $39 -1 $-1 $40 -3.1415926535897931 $40 3.1415926535897931 $14 $41 forward @7 unknown #
DXID-attrib $-1 -1 $-1 $16 $6 @18 ASM_FACE_FROM_STEP @15 stp-1M-67-13813 #
fmesh-eye-attrib $-1 -1 $42 $17 $11 #
truecolor-adesk-attrib $-1 -1 $43 $-1 $18 -1025450021 #
loop $-1 -1 $-1 $-1 $44 $18 #
cone-surface $-1 -1 $-1 142.70848294874543 -96.428340615059255 0 0 -1 0 3 0 0 1 I I 0 1 3.0000000000000004 forward I I I I #
coedge $-1 -1 $-1 $45 $46 $47 $48 forward $19 $-1 #
coedge $-1 -1 $-1 $47 $21 $33 $49 forward $12 $-1 #
coedge $-1 -1 $-1 $21 $47 $32 $49 reversed $12 $-1 #
coedge $-1 -1 $-1 $23 $22 $21 $35 reversed $7 $-1 #
edge $50 -1 $-1 $51 -3.1415926535897931 $51 3.1415926535897931 $34 $52 forward @7 unknown #
edge $53 -1 $-1 $40 -3.1415926535897931 $51 0 $22 $54 forward @7 unknown #
coedge $-1 -1 $-1 $44 $24 $38 $55 reversed $29 $-1 #
coedge $-1 -1 $-1 $24 $44 $37 $55 forward $29 $-1 #
truecolor-adesk-attrib $-1 -1 $56 $-1 $25 -1025450021 #
vertex $-1 -1 $-1 $25 $57 #
ellipse-curve $-1 -1 $-1 142.70848294874543 -96.428340615059255 0 0 -1 0 3 0 0 1 I I #
DXID-attrib $-1 -1 $-1 $27 $11 @18 ASM_FACE_FROM_STEP @15 stp-1M-67-13814 #
fmesh-eye-attrib $-1 -1 $58 $28 $18 #
coedge $-1 -1 $-1 $38 $37 $59 $60 forward $29 $-1 #
coedge $-1 -1 $-1 $59 $31 $46 $61 forward $19 $-1 #
coedge $-1 -1 $-1 $31 $59 $45 $61 reversed $19 $-1 #
coedge $-1 -1 $-1 $33 $32 $31 $48 reversed $12 $-1 #
edge $62 -1 $-1 $63 -3.1415926535897931 $63 3.1415926535897931 $47 $64 forward @7 unknown #
edge $65 -1 $-1 $51 -3.333333333333333 $63 0 $32 $66 forward @7 unknown #
truecolor-adesk-attrib $-1 -1 $67 $-1 $35 -1025450021 #
vertex $-1 -1 $-1 $36 $68 #
ellipse-curve $-1 -1 $-1 128.70848294874543 -96.428340615059255 0 1.22464679914735e-16 -1 0 -3 -3.6739403974420505e-16 0 1 I I #
truecolor-adesk-attrib $-1 -1 $69 $-1 $36 -1025450021 #
ellipse-curve $-1 -1 $-1 135.70848294874543 -96.428340615059255 3.6739403974420604e-16 0 0 1 -4 0 0 1 F -3.1415926535897931 F 0 #
edge $70 -1 $-1 $71 -3.333333333333333 $40 0 $38 $72 forward @7 unknown #
DXID-attrib $-1 -1 $-1 $39 $25 @18 ASM_EDGE_FROM_STEP @4 8969 #
point $-1 -1 $-1 139.70848294874543 -96.428340615059255 3.6739403974420604e-16 #
DXID-attrib $-1 -1 $-1 $43 $18 @18 ASM_FACE_FROM_STEP @15 stp-1M-67-13815 #
coedge $-1 -1 $-1 $46 $45 $44 $60 reversed $19 $-1 #
edge $73 -1 $-1 $71 -3.1415926535897931 $71 3.1415926535897931 $59 $74 forward @7 unknown #
edge $75 -1 $-1 $63 0 $71 3.1415926535897931 $45 $76 forward @7 unknown #
truecolor-adesk-attrib $-1 -1 $77 $-1 $48 -1025450021 #
vertex $-1 -1 $-1 $49 $78 #
ellipse-curve $-1 -1 $-1 128.70848294874543 -106.42834061505926 0 0 -1 0 -3 0 0 1 I I #
truecolor-adesk-attrib $-1 -1 $79 $-1 $49 -1025450021 #
straight-curve $-1 -1 $-1 131.70848294874543 -106.42834061505926 -3.6739403974420604e-16 0 -3.0000000000000004 0 F -3.333333333333333 F 0 #
DXID-attrib $-1 -1 $-1 $50 $35 @18 ASM_EDGE_FROM_STEP @4 8971 #
point $-1 -1 $-1 131.70848294874543 -96.428340615059255 3.6739403974420604e-16 #
DXID-attrib $-1 -1 $-1 $53 $36 @18 ASM_EDGE_FROM_STEP @4 8970 #
truecolor-adesk-attrib $-1 -1 $80 $-1 $55 -1025450021 #
vertex $-1 -1 $-1 $61 $81 #
straight-curve $-1 -1 $-1 139.70848294874543 -96.428340615059255 -3.6739403974420604e-16 0 3.0000000000000004 0 F -3.333333333333333 F 0 #
truecolor-adesk-attrib $-1 -1 $82 $-1 $60 -1025450021 #
ellipse-curve $-1 -1 $-1 142.70848294874543 -106.42834061505926 0 0 1 0 3 0 0 1 I I #
truecolor-adesk-attrib $-1 -1 $83 $-1 $61 -1025450021 #
ellipse-curve $-1 -1 $-1 135.70848294874543 -106.42834061505926 3.6739403974420604e-16 0 0 1 -4 0 0 1 F 0 F 3.1415926535897931 #
DXID-attrib $-1 -1 $-1 $62 $48 @18 ASM_EDGE_FROM_STEP @4 8973 #
point $-1 -1 $-1 131.70848294874543 -106.42834061505926 3.6739403974420604e-16 #
DXID-attrib $-1 -1 $-1 $65 $49 @18 ASM_EDGE_FROM_STEP @4 8972 #
DXID-attrib $-1 -1 $-1 $70 $55 @18 ASM_EDGE_FROM_STEP @4 8976 #
point $-1 -1 $-1 139.70848294874543 -106.42834061505926 3.6739403974420604e-16 #
DXID-attrib $-1 -1 $-1 $73 $60 @18 ASM_EDGE_FROM_STEP @4 8975 #
DXID-attrib $-1 -1 $-1 $75 $61 @18 ASM_EDGE_FROM_STEP @4 8974 #
