700 448 1 0         
5 ZWCAD 12 ACIS 28.0 NT 24 Mon May 13 10:56:22 2024 
1 9.9999999999999995e-07 1e-10 
body $1 -1 $-1 $2 $-1 $-1 #
DXID-attrib $-1 -1 $-1 $-1 $0 @18 ASM_BODY_FROM_STEP @83 7BD75BB357477981CB88C22BF00FB31BC72B0FC5|:|8CB3CBCEBE3339AC3139F7812237AD39DB573F35 #
lump $-1 -1 $-1 $-1 $3 $0 #
shell $-1 -1 $-1 $-1 $-1 $4 $-1 $2 #
face $5 -1 $-1 $6 $7 $3 $-1 $8 reversed single #
color-adesk-attrib $-1 -1 $9 $-1 $4 7 #
face $10 -1 $-1 $11 $12 $3 $-1 $13 reversed single #
loop $-1 -1 $-1 $-1 $14 $4 #
cone-surface $-1 -1 $-1 -132.92185552754233 -234.70562152363976 252.29999999999606 3.7224886527620125e-31 1 -2.0264284392603399e-15 -429.59782932231963 -7.5255152986424607e-14 -37.136842105262502 1 I I 0 1 431.20000000000005 forward I I I I #
DXID-attrib $-1 -1 $-1 $5 $4 @18 ASM_FACE_FROM_STEP @16 stp-2M-184-31093 #
color-adesk-attrib $-1 -1 $15 $-1 $6 7 #
face $16 -1 $-1 $17 $18 $3 $-1 $19 reversed single #
loop $-1 -1 $-1 $-1 $20 $6 #
cone-surface $-1 -1 $-1 -549.36873089101516 -234.70562152363968 288.29999999999598 3.7224886527620125e-31 1 -2.0264284392603399e-15 -13.150953958846515 2.3037291730538571e-15 1.1368421052631539 1 I I 0 1 13.200000000000001 forward I I I I #
coedge $-1 -1 $-1 $21 $22 $23 $24 reversed $7 $-1 #
DXID-attrib $-1 -1 $-1 $10 $6 @18 ASM_FACE_FROM_STEP @16 stp-2M-184-31094 #
color-adesk-attrib $-1 -1 $25 $-1 $11 7 #
face $26 -1 $-1 $27 $28 $3 $-1 $29 reversed single #
loop $-1 -1 $-1 $-1 $30 $11 #
plane-surface $-1 -1 $-1 -549.36873089101516 -234.70562152363965 301.49999999999602 -1.921230807135953e-15 2.0264284392603399e-15 1 1 3.5209878806871911e-30 1.921230807135953e-15 forward_v I I I I #
coedge $-1 -1 $-1 $31 $32 $33 $34 reversed $12 $-1 #
coedge $-1 -1 $-1 $35 $14 $36 $37 forward $7 $-1 #
coedge $-1 -1 $-1 $14 $35 $31 $38 reversed $7 $-1 #
coedge $-1 -1 $-1 $33 $39 $14 $24 forward $40 $-1 #
edge $41 -1 $-1 $42 -9.018715817842321e-16 $43 0.17246245781553102 $14 $44 forward @7 unknown #
DXID-attrib $-1 -1 $-1 $16 $11 @18 ASM_FACE_FROM_STEP @16 stp-2M-184-31095 #
color-adesk-attrib $-1 -1 $45 $-1 $17 7 #
face $46 -1 $-1 $47 $48 $3 $-1 $49 reversed single #
loop $-1 -1 $-1 $-1 $50 $17 #
cone-surface $-1 -1 $-1 -528.92185552754336 -234.70562152363968 288.29999999999598 3.7224886527620125e-31 1 -2.0264284392603399e-15 -6.8656927608123887e-15 2.6748855398236486e-14 13.199999999999999 1 I I 0 1 13.200000000000001 forward I I I I #
coedge $-1 -1 $-1 $51 $52 $53 $54 reversed $18 $-1 #
coedge $-1 -1 $-1 $55 $20 $22 $38 forward $12 $-1 #
coedge $-1 -1 $-1 $20 $55 $51 $56 reversed $12 $-1 #
coedge $-1 -1 $-1 $53 $23 $20 $34 forward $40 $-1 #
edge $57 -1 $-1 $43 -1.2186074004795752e-14 $58 1.4845650978871296 $20 $59 forward @7 unknown #
coedge $-1 -1 $-1 $22 $21 $60 $61 reversed $7 $-1 #
coedge $-1 -1 $-1 $62 $63 $21 $37 reversed $64 $-1 #
edge $65 -1 $-1 $42 1.8852676937181019e-16 $66 1 $21 $67 forward @7 unknown #
edge $68 -1 $-1 $43 1.8852676937180821e-16 $69 1 $22 $70 forward @7 unknown #
coedge $-1 -1 $-1 $23 $71 $62 $72 forward $40 $-1 #
loop $-1 -1 $-1 $-1 $73 $74 #
color-adesk-attrib $-1 -1 $75 $-1 $24 7 #
vertex $-1 -1 $-1 $24 $76 #
vertex $-1 -1 $-1 $24 $77 #
ellipse-curve $-1 -1 $-1 -132.92185552754233 -234.70562152363976 252.29999999999606 6.0137080500529666e-17 1 -2.0264284392603399e-15 -429.59782932231963 -4.9420393741615626e-14 -37.136842105262502 1 F -9.018715817842321e-16 F 0.17246245781553102 #
DXID-attrib $-1 -1 $-1 $26 $17 @18 ASM_FACE_FROM_STEP @16 stp-2M-184-31096 #
color-adesk-attrib $-1 -1 $78 $-1 $27 7 #
face $79 -1 $-1 $80 $64 $3 $-1 $81 reversed single #
loop $-1 -1 $-1 $-1 $82 $27 #
plane-surface $-1 -1 $-1 -515.72185552754343 -234.70562152363968 288.29999999999598 1 -2.2497875110220573e-30 -9.2652600475305717e-16 -9.2652600475305737e-16 -2.0264284392603399e-15 -1 forward_v I I I I #
coedge $-1 -1 $-1 $83 $84 $85 $86 reversed $28 $-1 #
coedge $-1 -1 $-1 $87 $30 $32 $56 forward $18 $-1 #
coedge $-1 -1 $-1 $30 $87 $83 $88 reversed $18 $-1 #
coedge $-1 -1 $-1 $85 $33 $30 $54 forward $40 $-1 #
edge $89 -1 $-1 $58 0.502598178723349 $90 1.5025981787233471 $30 $91 forward @7 unknown #
coedge $-1 -1 $-1 $32 $31 $92 $93 reversed $12 $-1 #
edge $94 -1 $-1 $58 3.0354773995427003e-17 $95 1 $32 $96 forward @7 unknown #
color-adesk-attrib $-1 -1 $97 $-1 $34 7 #
vertex $-1 -1 $-1 $34 $98 #
ellipse-curve $-1 -1 $-1 -549.36873089101516 -234.70562152363968 288.29999999999598 6.0137080500529666e-17 1 -2.0264284392603399e-15 -13.150953958846515 3.0945891499357645e-15 1.1368421052631539 1 F -1.2186074004795752e-14 F 1.4845650978871296 #
coedge $-1 -1 $-1 $99 $92 $35 $61 forward $100 $-1 #
edge $101 -1 $-1 $69 -0.17246245781553102 $66 9.018715817842321e-16 $35 $102 forward @7 unknown #
coedge $-1 -1 $-1 $103 $36 $39 $72 reversed $64 $-1 #
coedge $-1 -1 $-1 $36 $103 $99 $104 reversed $64 $-1 #
loop $-1 -1 $-1 $-1 $62 $47 #
color-adesk-attrib $-1 -1 $105 $-1 $37 7 #
vertex $-1 -1 $-1 $37 $106 #
straight-curve $-1 -1 $-1 -562.51968484986173 -234.70562152363982 215.16315789473319 1.8612443263810061e-30 5 -1.01321421963017e-14 F 1.8852676937181019e-16 F 1 #
color-adesk-attrib $-1 -1 $107 $-1 $38 7 #
vertex $-1 -1 $-1 $61 $108 #
straight-curve $-1 -1 $-1 -562.51968484986173 -234.70562152363968 289.43684210525896 1.8612443263810061e-30 5 -1.01321421963017e-14 F 1.8852676937180821e-16 F 1 #
coedge $-1 -1 $-1 $39 $109 $110 $111 forward $40 $-1 #
edge $112 -1 $-1 $113 1.6821560979169356e-16 $42 1.484565097887141 $62 $114 forward @7 unknown #
coedge $-1 -1 $-1 $109 $85 $82 $115 forward $40 $-1 #
face $116 -1 $-1 $117 $118 $3 $-1 $119 forward single #
DXID-attrib $-1 -1 $-1 $41 $24 @18 ASM_EDGE_FROM_STEP @5 18606 #
point $-1 -1 $-1 -562.51968484986173 -234.70562152363982 215.16315789473319 #
point $-1 -1 $-1 -562.51968484986173 -234.70562152363968 289.43684210525896 #
DXID-attrib $-1 -1 $-1 $46 $27 @18 ASM_FACE_FROM_STEP @16 stp-2M-184-31097 #
color-adesk-attrib $-1 -1 $120 $-1 $47 7 #
face $121 -1 $-1 $122 $123 $3 $-1 $124 reversed single #
cone-surface $-1 -1 $-1 -549.36873089101516 -234.70562152363982 216.2999999999962 3.7224886527620125e-31 1 -2.0264284392603399e-15 -1.5338767731690703e-14 -2.6748855398236486e-14 -13.199999999999999 1 I I 0 1 13.200000000000001 forward I I I I #
coedge $-1 -1 $-1 $125 $126 $73 $115 reversed $48 $-1 #
coedge $-1 -1 $-1 $127 $50 $52 $88 forward $28 $-1 #
coedge $-1 -1 $-1 $50 $127 $125 $128 reversed $28 $-1 #
coedge $-1 -1 $-1 $73 $53 $50 $86 forward $40 $-1 #
edge $129 -1 $-1 $90 3.3643121958338101e-16 $130 1.570796326794897 $50 $131 forward @7 unknown #
coedge $-1 -1 $-1 $52 $51 $132 $133 reversed $18 $-1 #
edge $134 -1 $-1 $90 -2.1556830394805199e-16 $135 1 $52 $136 forward @7 unknown #
color-adesk-attrib $-1 -1 $137 $-1 $54 7 #
vertex $-1 -1 $-1 $54 $138 #
straight-curve $-1 -1 $-1 -559.64529320927943 -234.70562152363965 301.49999999999602 20.446875363471801 -1.2296153897173209e-15 3.9283166857971149e-14 F 0.502598178723349 F 1.5025981787233471 #
coedge $-1 -1 $-1 $60 $132 $55 $93 forward $100 $-1 #
edge $139 -1 $-1 $95 -1.4845650978871296 $69 1.2186074004795752e-14 $55 $140 forward @7 unknown #
color-adesk-attrib $-1 -1 $141 $-1 $56 7 #
vertex $-1 -1 $-1 $93 $142 #
straight-curve $-1 -1 $-1 -549.36873089101516 -234.70562152363965 301.49999999999602 1.8612443263810061e-30 5 -1.01321421963017e-14 F 3.0354773995427003e-17 F 1 #
DXID-attrib $-1 -1 $-1 $57 $34 @18 ASM_EDGE_FROM_STEP @5 18610 #
point $-1 -1 $-1 -549.36873089101516 -234.70562152363965 301.49999999999602 #
coedge $-1 -1 $-1 $143 $60 $63 $104 forward $100 $-1 #
loop $-1 -1 $-1 $-1 $144 $117 #
color-adesk-attrib $-1 -1 $145 $-1 $61 7 #
ellipse-curve $-1 -1 $-1 -132.92185552754233 -229.70562152363976 252.29999999999603 -7.4014868308344172e-17 -1 2.0264284392603399e-15 -429.59782932231963 -4.3458526223582762e-14 -37.136842105262502 1 F -0.17246245781553102 F 9.018715817842321e-16 #
coedge $-1 -1 $-1 $63 $62 $146 $147 forward $64 $-1 #
edge $148 -1 $-1 $66 -1.484565097887141 $149 -1.6821560979169356e-16 $63 $150 forward @7 unknown #
DXID-attrib $-1 -1 $-1 $65 $37 @18 ASM_EDGE_FROM_STEP @5 18607 #
point $-1 -1 $-1 -562.51968484986173 -229.70562152363982 215.16315789473316 #
DXID-attrib $-1 -1 $-1 $68 $38 @18 ASM_EDGE_FROM_STEP @5 18609 #
point $-1 -1 $-1 -562.51968484986173 -229.70562152363968 289.43684210525896 #
coedge $-1 -1 $-1 $71 $73 $151 $152 forward $40 $-1 #
coedge $-1 -1 $-1 $153 $146 $71 $111 reversed $123 $-1 #
edge $154 -1 $-1 $155 -1.0025981787233411 $113 -0.002598178723339175 $110 $156 forward @7 unknown #
color-adesk-attrib $-1 -1 $157 $-1 $72 7 #
vertex $-1 -1 $-1 $72 $158 #
ellipse-curve $-1 -1 $-1 -549.36873089101516 -234.70562152363982 216.2999999999962 6.0137080500529666e-17 1 -2.0264284392603399e-15 -1.5338767731690703e-14 -2.6748855398236486e-14 -13.199999999999999 1 F 1.6821560979169356e-16 F 1.484565097887141 #
edge $159 -1 $-1 $130 -1.0437500000000015 $160 -0.043750000000001343 $82 $161 forward @7 unknown #
color-adesk-attrib $-1 -1 $162 $-1 $74 7 #
face $163 -1 $-1 $164 $165 $3 $-1 $166 forward single #
loop $-1 -1 $-1 $40 $167 $74 #
plane-surface $-1 -1 $-1 -569.92185552754336 -234.70562152363999 137.99999999999599 -6.0137080500529666e-17 -1 2.0264284392603399e-15 1 -6.0137080500529296e-17 1.8369701987210309e-16 forward_v I I I I #
DXID-attrib $-1 -1 $-1 $79 $47 @18 ASM_FACE_FROM_STEP @16 stp-2M-184-31098 #
color-adesk-attrib $-1 -1 $168 $-1 $80 7 #
face $169 -1 $-1 $170 $171 $3 $-1 $172 reversed single #
loop $-1 -1 $-1 $-1 $110 $80 #
plane-surface $-1 -1 $-1 -528.92185552754347 -234.70562152363985 203.0999999999961 -1.553836767391747e-15 -2.0264284392603399e-15 -1 -1 3.5209878806871911e-30 1.553836767391747e-15 forward_v I I I I #
coedge $-1 -1 $-1 $173 $82 $84 $128 forward $48 $-1 #
coedge $-1 -1 $-1 $82 $173 $174 $175 forward $48 $-1 #
coedge $-1 -1 $-1 $84 $83 $176 $177 reversed $28 $-1 #
edge $178 -1 $-1 $130 -3.7433019646944801e-16 $179 1 $84 $180 forward @7 unknown #
color-adesk-attrib $-1 -1 $181 $-1 $86 7 #
vertex $-1 -1 $-1 $86 $182 #
ellipse-curve $-1 -1 $-1 -528.92185552754336 -234.70562152363968 288.29999999999598 6.0137080500529666e-17 1 -2.0264284392603399e-15 -6.8656927608123887e-15 2.6748855398236486e-14 13.199999999999999 1 F 3.3643121958338101e-16 F 1.570796326794897 #
coedge $-1 -1 $-1 $92 $176 $87 $133 forward $100 $-1 #
edge $183 -1 $-1 $135 -0.035381331811139095 $95 0.964618668188859 $87 $184 forward @7 unknown #
color-adesk-attrib $-1 -1 $185 $-1 $88 7 #
vertex $-1 -1 $-1 $133 $186 #
straight-curve $-1 -1 $-1 -528.92185552754336 -234.70562152363965 301.49999999999602 1.8612443263810061e-30 5 -1.01321421963017e-14 F -2.1556830394805199e-16 F 1 #
DXID-attrib $-1 -1 $-1 $89 $54 @18 ASM_EDGE_FROM_STEP @5 18613 #
point $-1 -1 $-1 -528.92185552754336 -234.70562152363965 301.49999999999602 #
color-adesk-attrib $-1 -1 $187 $-1 $93 7 #
ellipse-curve $-1 -1 $-1 -549.36873089101516 -229.70562152363968 288.29999999999598 -7.4014868308344172e-17 -1 2.0264284392603399e-15 -13.150953958846515 3.2770952984469747e-15 1.1368421052631539 1 F -1.4845650978871296 F 1.2186074004795752e-14 #
DXID-attrib $-1 -1 $-1 $94 $56 @18 ASM_EDGE_FROM_STEP @5 18612 #
point $-1 -1 $-1 -549.36873089101516 -229.70562152363965 301.49999999999602 #
coedge $-1 -1 $-1 $188 $99 $189 $190 forward $100 $-1 #
coedge $-1 -1 $-1 $176 $188 $173 $191 forward $100 $-1 #
DXID-attrib $-1 -1 $-1 $101 $61 @18 ASM_EDGE_FROM_STEP @5 18608 #
coedge $-1 -1 $-1 $110 $189 $103 $147 reversed $123 $-1 #
edge $192 -1 $-1 $113 3.0354773995427804e-17 $149 1 $103 $193 forward @7 unknown #
color-adesk-attrib $-1 -1 $194 $-1 $104 7 #
vertex $-1 -1 $-1 $147 $195 #
ellipse-curve $-1 -1 $-1 -549.36873089101516 -229.70562152363982 216.29999999999617 -7.401486830834416e-17 -1 2.0264284392603399e-15 -1.5338767731690703e-14 -2.6748855398236486e-14 -13.199999999999999 1 F -1.484565097887141 F -1.6821560979169356e-16 #
coedge $-1 -1 $-1 $174 $196 $109 $152 reversed $171 $-1 #
edge $197 -1 $-1 $160 4.7100370741673266e-15 $155 1.5707963267948939 $151 $198 forward @7 unknown #
coedge $-1 -1 $-1 $189 $110 $196 $199 forward $123 $-1 #
color-adesk-attrib $-1 -1 $200 $-1 $111 7 #
vertex $-1 -1 $-1 $111 $201 #
straight-curve $-1 -1 $-1 -549.42185552754336 -234.70562152363985 203.09999999999619 -20.446875363471705 1.2296153897174589e-15 3.1771106718038819e-14 F -1.0025981787233411 F -0.002598178723339175 #
DXID-attrib $-1 -1 $-1 $112 $72 @18 ASM_EDGE_FROM_STEP @5 18622 #
point $-1 -1 $-1 -549.36873089101516 -234.70562152363985 203.09999999999619 #
color-adesk-attrib $-1 -1 $202 $-1 $115 7 #
vertex $-1 -1 $-1 $115 $203 #
straight-curve $-1 -1 $-1 -515.72185552754343 -234.70562152363985 213.149999999996 -6.6709872342220014e-14 -1.4590284762674427e-13 -71.999999999999901 F -1.0437500000000015 F -0.043750000000001343 #
DXID-attrib $-1 -1 $-1 $116 $74 @18 ASM_FACE_FROM_STEP @16 stp-2M-184-31108 #
color-adesk-attrib $-1 -1 $204 $-1 $117 7 #
face $205 -1 $-1 $-1 $206 $3 $-1 $207 forward single #
loop $-1 -1 $-1 $100 $208 $117 #
plane-surface $-1 -1 $-1 -509.92185552754336 -229.70562152363999 137.99999999999599 7.4014868308344172e-17 1 -2.0264284392603399e-15 -1 7.4014868308343802e-17 -1.8369701987210312e-16 forward_v I I I I #
coedge $-1 -1 $-1 $209 $210 $211 $212 reversed $118 $-1 #
DXID-attrib $-1 -1 $-1 $121 $80 @18 ASM_FACE_FROM_STEP @16 stp-2M-184-31099 #
color-adesk-attrib $-1 -1 $213 $-1 $122 7 #
face $214 -1 $-1 $215 $216 $3 $-1 $217 forward single #
loop $-1 -1 $-1 $-1 $151 $122 #
cone-surface $-1 -1 $-1 -528.92185552754347 -234.70562152363982 216.2999999999962 3.7224886527620125e-31 1 -2.0264284392603399e-15 13.199999999999999 -7.1993200352705709e-29 -3.3102336125693305e-14 1 I I 0 1 13.200000000000001 forward I I I I #
coedge $-1 -1 $-1 $126 $125 $144 $191 reversed $48 $-1 #
coedge $-1 -1 $-1 $218 $151 $126 $175 reversed $171 $-1 #
edge $219 -1 $-1 $220 -1 $160 3.7433019646944801e-16 $126 $221 forward @7 unknown #
coedge $-1 -1 $-1 $132 $144 $127 $177 forward $100 $-1 #
edge $222 -1 $-1 $179 -1.570796326794897 $135 -3.3643121958338101e-16 $127 $223 forward @7 unknown #
color-adesk-attrib $-1 -1 $224 $-1 $128 7 #
vertex $-1 -1 $-1 $177 $225 #
straight-curve $-1 -1 $-1 -515.72185552754343 -234.70562152363968 288.29999999999598 1.8612443263810061e-30 5 -1.01321421963017e-14 F -3.7433019646944801e-16 F 1 #
DXID-attrib $-1 -1 $-1 $129 $86 @18 ASM_EDGE_FROM_STEP @5 18616 #
point $-1 -1 $-1 -515.72185552754343 -234.70562152363968 288.29999999999598 #
color-adesk-attrib $-1 -1 $226 $-1 $133 7 #
straight-curve $-1 -1 $-1 -529.64529320927943 -229.70562152363965 301.49999999999602 -20.446875363471801 1.5133727873444128e-15 -3.9283166857971149e-14 F -0.035381331811139095 F 0.964618668188859 #
DXID-attrib $-1 -1 $-1 $134 $88 @18 ASM_EDGE_FROM_STEP @5 18615 #
point $-1 -1 $-1 -528.92185552754336 -229.70562152363965 301.49999999999602 #
DXID-attrib $-1 -1 $-1 $139 $93 @18 ASM_EDGE_FROM_STEP @5 18611 #
coedge $-1 -1 $-1 $144 $143 $218 $227 forward $100 $-1 #
coedge $-1 -1 $-1 $146 $153 $143 $190 reversed $123 $-1 #
edge $228 -1 $-1 $149 -1.4646186681888749 $229 -0.46461866818887299 $189 $230 forward @7 unknown #
edge $231 -1 $-1 $220 0.043750000000001343 $179 1.0437500000000015 $173 $232 forward @7 unknown #
color-adesk-attrib $-1 -1 $233 $-1 $147 7 #
straight-curve $-1 -1 $-1 -549.36873089101516 -234.70562152363985 203.09999999999619 1.8612443263810061e-30 5 -1.01321421963017e-14 F 3.0354773995427804e-17 F 1 #
DXID-attrib $-1 -1 $-1 $148 $104 @18 ASM_EDGE_FROM_STEP @5 18624 #
point $-1 -1 $-1 -549.36873089101516 -229.70562152363985 203.09999999999616 #
coedge $-1 -1 $-1 $151 $218 $153 $199 reversed $171 $-1 #
color-adesk-attrib $-1 -1 $234 $-1 $152 7 #
ellipse-curve $-1 -1 $-1 -528.92185552754347 -234.70562152363982 216.2999999999962 6.0137080500529666e-17 1 -2.0264284392603399e-15 13.199999999999999 -7.9380946260705875e-16 -3.3102336125693305e-14 1 F 4.7100370741673266e-15 F 1.5707963267948939 #
edge $235 -1 $-1 $155 -2.1556830394805002e-16 $229 1 $153 $236 forward @7 unknown #
DXID-attrib $-1 -1 $-1 $154 $111 @18 ASM_EDGE_FROM_STEP @5 18625 #
point $-1 -1 $-1 -528.92185552754347 -234.70562152363985 203.0999999999961 #
DXID-attrib $-1 -1 $-1 $159 $115 @18 ASM_EDGE_FROM_STEP @5 18619 #
point $-1 -1 $-1 -515.72185552754343 -234.70562152363982 216.29999999999609 #
DXID-attrib $-1 -1 $-1 $163 $117 @18 ASM_FACE_FROM_STEP @16 stp-2M-184-31109 #
color-adesk-attrib $-1 -1 $237 $-1 $164 7 #
loop $-1 -1 $-1 $-1 $238 $164 #
plane-surface $-1 -1 $-1 -539.92185552754336 -232.20562152363951 370.99999999999602 -1.8369701987210297e-16 2.0264284392603399e-15 1 3.7224886527620125e-31 1 -2.0264284392603399e-15 forward_v I I I I #
coedge $-1 -1 $-1 $239 $240 $241 $242 reversed $165 $-1 #
coedge $-1 -1 $-1 $243 $167 $244 $245 forward $118 $-1 #
coedge $-1 -1 $-1 $167 $243 $246 $247 reversed $118 $-1 #
coedge $-1 -1 $-1 $248 $249 $167 $212 forward $216 $-1 #
edge $250 -1 $-1 $251 0 $252 1 $211 $253 forward @7 unknown #
DXID-attrib $-1 -1 $-1 $169 $122 @18 ASM_FACE_FROM_STEP @16 stp-2M-184-31100 #
color-adesk-attrib $-1 -1 $254 $-1 $170 7 #
face $255 -1 $-1 $256 $257 $3 $-1 $258 forward single #
loop $-1 -1 $-1 $-1 $248 $170 #
cone-surface $-1 -1 $-1 -569.32185552754333 -234.10562152364 137.99999999999599 -1.8369701987210297e-16 2.0264284392603399e-15 1 -0.42426406871192701 -0.42426406871193006 7.8180472953296401e-16 1 I I 0 1 0.60000000000000009 forward I I I I #
coedge $-1 -1 $-1 $196 $174 $188 $227 reversed $171 $-1 #
color-adesk-attrib $-1 -1 $259 $-1 $175 7 #
vertex $-1 -1 $-1 $191 $260 #
straight-curve $-1 -1 $-1 -515.72185552754343 -234.70562152363982 216.29999999999609 -1.8612443263810061e-30 -5 1.01321421963017e-14 F -1 F 3.7433019646944801e-16 #
color-adesk-attrib $-1 -1 $261 $-1 $177 7 #
ellipse-curve $-1 -1 $-1 -528.92185552754336 -229.70562152363968 288.29999999999598 -7.401486830834416e-17 -1 2.0264284392603399e-15 -6.8656927608123887e-15 2.6748855398236486e-14 13.199999999999999 1 F -1.570796326794897 F -3.3643121958338101e-16 #
DXID-attrib $-1 -1 $-1 $178 $128 @18 ASM_EDGE_FROM_STEP @5 18618 #
point $-1 -1 $-1 -515.72185552754343 -229.70562152363968 288.29999999999598 #
DXID-attrib $-1 -1 $-1 $183 $133 @18 ASM_EDGE_FROM_STEP @5 18614 #
edge $262 -1 $-1 $229 -1.5707963267948939 $220 -4.7100370741673266e-15 $218 $263 forward @7 unknown #
color-adesk-attrib $-1 -1 $264 $-1 $190 7 #
vertex $-1 -1 $-1 $199 $265 #
straight-curve $-1 -1 $-1 -519.42185552754336 -229.70562152363985 203.09999999999607 20.446875363471705 -1.5133727873445493e-15 -3.1771106718038819e-14 F -1.4646186681888749 F -0.46461866818887299 #
color-adesk-attrib $-1 -1 $266 $-1 $191 7 #
straight-curve $-1 -1 $-1 -515.72185552754343 -229.70562152363985 213.149999999996 6.6709872342220014e-14 1.4590284762674427e-13 71.999999999999901 F 0.043750000000001343 F 1.0437500000000015 #
DXID-attrib $-1 -1 $-1 $192 $147 @18 ASM_EDGE_FROM_STEP @5 18623 #
DXID-attrib $-1 -1 $-1 $197 $152 @18 ASM_EDGE_FROM_STEP @5 18628 #
color-adesk-attrib $-1 -1 $267 $-1 $199 7 #
straight-curve $-1 -1 $-1 -528.92185552754347 -234.70562152363985 203.0999999999961 1.8612443263810061e-30 5 -1.01321421963017e-14 F -2.1556830394805002e-16 F 1 #
DXID-attrib $-1 -1 $-1 $205 $164 @18 ASM_FACE_FROM_STEP @16 stp-2M-184-31110 #
coedge $-1 -1 $-1 $246 $268 $248 $269 reversed $206 $-1 #
coedge $-1 -1 $-1 $270 $208 $271 $272 reversed $165 $-1 #
coedge $-1 -1 $-1 $208 $270 $273 $274 forward $165 $-1 #
coedge $-1 -1 $-1 $275 $276 $208 $242 forward $277 $-1 #
edge $278 -1 $-1 $279 -1 $280 0 $241 $281 forward @7 unknown #
coedge $-1 -1 $-1 $210 $209 $282 $283 reversed $118 $-1 #
coedge $-1 -1 $-1 $284 $285 $209 $245 reversed $257 $-1 #
edge $286 -1 $-1 $251 0.010204081632653071 $287 1.010204081632653 $244 $288 forward @7 unknown #
coedge $-1 -1 $-1 $289 $238 $210 $247 forward $206 $-1 #
edge $290 -1 $-1 $252 0.010204081632653071 $291 1.010204081632653 $210 $292 forward @7 unknown #
coedge $-1 -1 $-1 $293 $211 $238 $269 forward $216 $-1 #
coedge $-1 -1 $-1 $211 $293 $284 $294 forward $216 $-1 #
color-adesk-attrib $-1 -1 $295 $-1 $212 7 #
vertex $-1 -1 $-1 $294 $296 #
vertex $-1 -1 $-1 $269 $297 #
straight-curve $-1 -1 $-1 -569.32185552754333 -234.70562152363999 137.99999999999599 -4.2801405630199991e-14 4.7215782634765921e-13 233 F 0 F 1 #
DXID-attrib $-1 -1 $-1 $214 $170 @18 ASM_FACE_FROM_STEP @16 stp-2M-184-31101 #
color-adesk-attrib $-1 -1 $298 $-1 $215 7 #
face $299 -1 $-1 $300 $301 $3 $-1 $302 forward single #
loop $-1 -1 $-1 $-1 $284 $215 #
plane-surface $-1 -1 $-1 -539.92185552754336 -232.20562152363999 137.99999999999599 1.8369701987210297e-16 -2.0264284392603399e-15 -1 -3.7224886527620125e-31 -1 2.0264284392603399e-15 forward_v I I I I #
DXID-attrib $-1 -1 $-1 $219 $175 @18 ASM_EDGE_FROM_STEP @5 18621 #
point $-1 -1 $-1 -515.72185552754343 -229.70562152363982 216.29999999999609 #
DXID-attrib $-1 -1 $-1 $222 $177 @18 ASM_EDGE_FROM_STEP @5 18617 #
color-adesk-attrib $-1 -1 $303 $-1 $227 7 #
ellipse-curve $-1 -1 $-1 -528.92185552754347 -229.70562152363982 216.29999999999617 -7.401486830834416e-17 -1 2.0264284392603399e-15 13.199999999999999 -9.7699626167021002e-16 -3.3102336125693305e-14 1 F -1.5707963267948939 F -4.7100370741673266e-15 #
DXID-attrib $-1 -1 $-1 $228 $190 @18 ASM_EDGE_FROM_STEP @5 18627 #
point $-1 -1 $-1 -528.92185552754347 -229.70562152363985 203.09999999999607 #
DXID-attrib $-1 -1 $-1 $231 $191 @18 ASM_EDGE_FROM_STEP @5 18620 #
DXID-attrib $-1 -1 $-1 $235 $199 @18 ASM_EDGE_FROM_STEP @5 18626 #
coedge $-1 -1 $-1 $238 $304 $305 $306 forward $206 $-1 #
edge $307 -1 $-1 $252 -0.78539816339744473 $308 0.78539816339745194 $248 $309 forward @7 unknown #
coedge $-1 -1 $-1 $240 $239 $310 $311 reversed $165 $-1 #
coedge $-1 -1 $-1 $304 $312 $239 $272 forward $206 $-1 #
edge $313 -1 $-1 $314 0.010204081632653071 $279 1.010204081632653 $239 $315 forward @7 unknown #
coedge $-1 -1 $-1 $316 $317 $240 $274 reversed $257 $-1 #
edge $318 -1 $-1 $319 0.010204081632653071 $280 1.010204081632653 $273 $320 forward @7 unknown #
coedge $-1 -1 $-1 $321 $241 $317 $322 forward $277 $-1 #
coedge $-1 -1 $-1 $241 $321 $304 $323 forward $277 $-1 #
loop $-1 -1 $-1 $-1 $276 $300 #
color-adesk-attrib $-1 -1 $324 $-1 $242 7 #
vertex $-1 -1 $-1 $323 $325 #
vertex $-1 -1 $-1 $322 $326 #
straight-curve $-1 -1 $-1 -569.32185552754333 -229.70562152363999 137.99999999999596 4.2801405630199991e-14 -4.7215782634765921e-13 -233 F -1 F 0 #
coedge $-1 -1 $-1 $327 $328 $243 $283 forward $329 $-1 #
edge $330 -1 $-1 $291 -1 $287 0 $282 $331 forward @7 unknown #
coedge $-1 -1 $-1 $332 $244 $249 $294 reversed $257 $-1 #
coedge $-1 -1 $-1 $244 $333 $327 $334 reversed $257 $-1 #
color-adesk-attrib $-1 -1 $335 $-1 $245 7 #
vertex $-1 -1 $-1 $334 $336 #
straight-curve $-1 -1 $-1 -569.92185552754336 -234.70562152363999 137.99999999999599 58.799999999999997 -3.5360603334311226e-15 1.0801384768479662e-14 F 0.010204081632653071 F 1.010204081632653 #
coedge $-1 -1 $-1 $337 $246 $328 $338 reversed $206 $-1 #
color-adesk-attrib $-1 -1 $339 $-1 $247 7 #
vertex $-1 -1 $-1 $338 $340 #
straight-curve $-1 -1 $-1 -569.92185552754336 -234.70562152363951 370.99999999999602 58.799999999999997 -3.5360603334311226e-15 1.0801384768479662e-14 F 0.010204081632653071 F 1.010204081632653 #
coedge $-1 -1 $-1 $249 $248 $341 $342 forward $216 $-1 #
edge $343 -1 $-1 $344 -0.78539816339745194 $251 0.78539816339744473 $249 $345 forward @7 unknown #
DXID-attrib $-1 -1 $-1 $250 $212 @18 ASM_EDGE_FROM_STEP @5 18633 #
point $-1 -1 $-1 -569.32185552754333 -234.70562152363999 137.99999999999599 #
point $-1 -1 $-1 -569.32185552754345 -234.70562152363951 370.99999999999602 #
DXID-attrib $-1 -1 $-1 $255 $215 @18 ASM_FACE_FROM_STEP @16 stp-2M-184-31102 #
color-adesk-attrib $-1 -1 $346 $-1 $256 7 #
face $347 -1 $-1 $348 $277 $3 $-1 $349 forward single #
loop $-1 -1 $-1 $-1 $341 $256 #
plane-surface $-1 -1 $-1 -569.92185552754336 -229.70562152363999 137.99999999999596 -1 -8.8817841970012504e-16 -1.8369701987210117e-16 8.8817841970012464e-16 -1 2.0264284392603399e-15 forward_v I I I I #
DXID-attrib $-1 -1 $-1 $262 $227 @18 ASM_EDGE_FROM_STEP @5 18629 #
coedge $-1 -1 $-1 $268 $271 $276 $323 reversed $206 $-1 #
coedge $-1 -1 $-1 $350 $341 $268 $306 reversed $301 $-1 #
edge $351 -1 $-1 $352 0.15789473684210512 $308 1.1578947368421049 $305 $353 forward @7 unknown #
color-adesk-attrib $-1 -1 $354 $-1 $269 7 #
vertex $-1 -1 $-1 $269 $355 #
ellipse-curve $-1 -1 $-1 -569.32185552754345 -234.10562152363951 370.99999999999602 1.8369701987210297e-16 -2.0264284392603399e-15 -1 -0.42426406871192701 -0.42426406871193006 7.8180472953296401e-16 1 F -0.78539816339744473 F 0.78539816339745194 #
coedge $-1 -1 $-1 $356 $357 $270 $311 forward $358 $-1 #
edge $359 -1 $-1 $319 0 $314 1 $310 $360 forward @7 unknown #
coedge $-1 -1 $-1 $271 $337 $356 $361 reversed $206 $-1 #
color-adesk-attrib $-1 -1 $362 $-1 $272 7 #
vertex $-1 -1 $-1 $361 $363 #
straight-curve $-1 -1 $-1 -509.92185552754341 -229.70562152363951 370.99999999999602 -58.799999999999997 4.3520742565306155e-15 -1.0801384768479663e-14 F 0.010204081632653071 F 1.010204081632653 #
coedge $-1 -1 $-1 $333 $273 $357 $364 reversed $257 $-1 #
coedge $-1 -1 $-1 $273 $332 $275 $322 reversed $257 $-1 #
color-adesk-attrib $-1 -1 $365 $-1 $274 7 #
vertex $-1 -1 $-1 $274 $366 #
straight-curve $-1 -1 $-1 -509.92185552754336 -229.70562152363999 137.99999999999599 -58.799999999999997 4.3520742565306155e-15 -1.0801384768479663e-14 F 0.010204081632653071 F 1.010204081632653 #
coedge $-1 -1 $-1 $276 $275 $350 $367 forward $277 $-1 #
edge $368 -1 $-1 $280 -0.78539816339744473 $369 0.78539816339745194 $317 $370 forward @7 unknown #
edge $371 -1 $-1 $352 -0.78539816339745194 $279 0.78539816339744473 $276 $372 forward @7 unknown #
DXID-attrib $-1 -1 $-1 $278 $242 @18 ASM_EDGE_FROM_STEP @5 18644 #
point $-1 -1 $-1 -569.32185552754345 -229.70562152363951 370.99999999999602 #
point $-1 -1 $-1 -569.32185552754333 -229.70562152363999 137.99999999999596 #
coedge $-1 -1 $-1 $373 $282 $285 $334 forward $329 $-1 #
coedge $-1 -1 $-1 $282 $373 $289 $338 forward $329 $-1 #
loop $-1 -1 $-1 $-1 $328 $348 #
color-adesk-attrib $-1 -1 $374 $-1 $283 7 #
straight-curve $-1 -1 $-1 -510.52185552754338 -234.70562152363999 137.99999999999599 4.2801405630199991e-14 -4.7215782634765921e-13 -233 F -1 F 0 #
coedge $-1 -1 $-1 $317 $284 $375 $376 reversed $257 $-1 #
coedge $-1 -1 $-1 $285 $316 $377 $378 reversed $257 $-1 #
edge $379 -1 $-1 $287 -0.78539816339745194 $380 0.78539816339744295 $285 $381 forward @7 unknown #
DXID-attrib $-1 -1 $-1 $286 $245 @18 ASM_EDGE_FROM_STEP @5 18640 #
point $-1 -1 $-1 -510.52185552754338 -234.70562152363999 137.99999999999599 #
coedge $-1 -1 $-1 $312 $289 $382 $383 forward $206 $-1 #
edge $384 -1 $-1 $385 -0.78539816339744295 $291 0.78539816339745194 $328 $386 forward @7 unknown #
DXID-attrib $-1 -1 $-1 $290 $247 @18 ASM_EDGE_FROM_STEP @5 18652 #
point $-1 -1 $-1 -510.52185552754338 -234.70562152363951 370.99999999999602 #
coedge $-1 -1 $-1 $305 $375 $293 $342 reversed $301 $-1 #
edge $387 -1 $-1 $308 -1 $344 0 $293 $388 forward @7 unknown #
color-adesk-attrib $-1 -1 $389 $-1 $294 7 #
vertex $-1 -1 $-1 $342 $390 #
ellipse-curve $-1 -1 $-1 -569.32185552754333 -234.10562152364 137.99999999999599 -1.8369701987210297e-16 2.0264284392603399e-15 1 -0.42426406871192701 -0.42426406871193006 7.8180472953296401e-16 1 F -0.78539816339745194 F 0.78539816339744473 #
DXID-attrib $-1 -1 $-1 $299 $256 @18 ASM_FACE_FROM_STEP @16 stp-2M-184-31103 #
color-adesk-attrib $-1 -1 $391 $-1 $300 7 #
face $392 -1 $-1 $393 $329 $3 $-1 $394 forward single #
cone-surface $-1 -1 $-1 -569.32185552754333 -230.30562152363999 137.99999999999596 -1.8369701987210297e-16 2.0264284392603399e-15 1 -0.42426406871192701 0.42426406871193006 -9.3767681965535226e-16 1 I I 0 1 0.60000000000000009 forward I I I I #
coedge $-1 -1 $-1 $375 $305 $321 $367 reversed $301 $-1 #
color-adesk-attrib $-1 -1 $395 $-1 $306 7 #
vertex $-1 -1 $-1 $306 $396 #
straight-curve $-1 -1 $-1 -569.92185552754336 -229.70562152363951 370.99999999999602 3.3750779948604734e-15 -3.7999999999999998 7.7004280691892907e-15 F 0.15789473684210512 F 1.1578947368421049 #
DXID-attrib $-1 -1 $-1 $307 $269 @18 ASM_EDGE_FROM_STEP @5 18630 #
point $-1 -1 $-1 -569.92185552754336 -234.10562152363951 370.99999999999602 #
coedge $-1 -1 $-1 $397 $310 $312 $361 forward $358 $-1 #
coedge $-1 -1 $-1 $310 $397 $316 $364 forward $358 $-1 #
loop $-1 -1 $-1 $-1 $356 $398 #
color-adesk-attrib $-1 -1 $399 $-1 $311 7 #
straight-curve $-1 -1 $-1 -510.52185552754338 -229.70562152363999 137.99999999999599 -4.2801405630199991e-14 4.7215782634765921e-13 233 F 0 F 1 #
edge $400 -1 $-1 $314 -0.78539816339745316 $401 0.78539816339744351 $356 $402 forward @7 unknown #
DXID-attrib $-1 -1 $-1 $313 $272 @18 ASM_EDGE_FROM_STEP @5 18653 #
point $-1 -1 $-1 -510.52185552754338 -229.70562152363951 370.99999999999602 #
edge $403 -1 $-1 $404 -0.78539816339744351 $319 0.78539816339745316 $316 $405 forward @7 unknown #
DXID-attrib $-1 -1 $-1 $318 $274 @18 ASM_EDGE_FROM_STEP @5 18636 #
point $-1 -1 $-1 -510.52185552754338 -229.70562152363999 137.99999999999599 #
edge $406 -1 $-1 $369 0 $352 1 $350 $407 forward @7 unknown #
color-adesk-attrib $-1 -1 $408 $-1 $322 7 #
vertex $-1 -1 $-1 $376 $409 #
ellipse-curve $-1 -1 $-1 -569.32185552754333 -230.30562152363999 137.99999999999596 -1.8369701987210297e-16 2.0264284392603399e-15 1 -0.42426406871192701 0.42426406871193006 -9.3767681965535226e-16 1 F -0.78539816339744473 F 0.78539816339745194 #
color-adesk-attrib $-1 -1 $410 $-1 $323 7 #
ellipse-curve $-1 -1 $-1 -569.32185552754345 -230.30562152363953 370.99999999999602 1.8369701987210297e-16 -2.0264284392603399e-15 -1 -0.42426406871192701 0.42426406871193006 -9.3767681965535226e-16 1 F -0.78539816339745194 F 0.78539816339744473 #
coedge $-1 -1 $-1 $328 $327 $411 $412 forward $329 $-1 #
DXID-attrib $-1 -1 $-1 $330 $283 @18 ASM_EDGE_FROM_STEP @5 18646 #
coedge $-1 -1 $-1 $341 $350 $332 $376 forward $301 $-1 #
edge $413 -1 $-1 $369 0.15789473684210512 $344 1.1578947368421049 $332 $414 forward @7 unknown #
coedge $-1 -1 $-1 $415 $411 $333 $378 forward $416 $-1 #
edge $417 -1 $-1 $380 0.15789473684210506 $404 1.157894736842106 $333 $418 forward @7 unknown #
color-adesk-attrib $-1 -1 $419 $-1 $334 7 #
vertex $-1 -1 $-1 $378 $420 #
ellipse-curve $-1 -1 $-1 -510.52185552754338 -234.10562152364 137.99999999999599 -1.8369701987210297e-16 2.0264284392603399e-15 1 0.42426406871193006 -0.42426406871192701 9.3767681965534654e-16 1 F -0.78539816339745194 F 0.78539816339744295 #
coedge $-1 -1 $-1 $411 $415 $337 $383 reversed $416 $-1 #
edge $421 -1 $-1 $385 0.15789473684210506 $401 1.157894736842106 $382 $422 forward @7 unknown #
color-adesk-attrib $-1 -1 $423 $-1 $338 7 #
vertex $-1 -1 $-1 $338 $424 #
ellipse-curve $-1 -1 $-1 -510.52185552754338 -234.10562152363951 370.99999999999602 1.8369701987210297e-16 -2.0264284392603399e-15 -1 0.42426406871193006 -0.42426406871192701 9.3767681965534654e-16 1 F -0.78539816339744295 F 0.78539816339745194 #
color-adesk-attrib $-1 -1 $425 $-1 $342 7 #
straight-curve $-1 -1 $-1 -569.92185552754336 -234.10562152364 137.99999999999599 4.2801405630199991e-14 -4.7215782634765921e-13 -233 F -1 F 0 #
DXID-attrib $-1 -1 $-1 $343 $294 @18 ASM_EDGE_FROM_STEP @5 18632 #
point $-1 -1 $-1 -569.92185552754336 -234.10562152364 137.99999999999599 #
DXID-attrib $-1 -1 $-1 $347 $300 @18 ASM_FACE_FROM_STEP @16 stp-2M-184-31104 #
color-adesk-attrib $-1 -1 $426 $-1 $348 7 #
face $427 -1 $-1 $398 $416 $3 $-1 $428 forward single #
cone-surface $-1 -1 $-1 -510.52185552754338 -234.10562152364 137.99999999999599 -1.8369701987210297e-16 2.0264284392603399e-15 1 0.42426406871193006 -0.42426406871192701 9.3767681965534654e-16 1 I I 0 1 0.60000000000000009 forward I I I I #
DXID-attrib $-1 -1 $-1 $351 $306 @18 ASM_EDGE_FROM_STEP @5 18641 #
point $-1 -1 $-1 -569.92185552754336 -230.30562152363953 370.99999999999602 #
coedge $-1 -1 $-1 $357 $356 $415 $429 forward $358 $-1 #
face $430 -1 $-1 $74 $358 $3 $-1 $431 forward single #
DXID-attrib $-1 -1 $-1 $359 $311 @18 ASM_EDGE_FROM_STEP @5 18651 #
color-adesk-attrib $-1 -1 $432 $-1 $361 7 #
vertex $-1 -1 $-1 $429 $433 #
ellipse-curve $-1 -1 $-1 -510.52185552754338 -230.30562152363953 370.99999999999602 1.8369701987210297e-16 -2.0264284392603399e-15 -1 0.42426406871193068 0.42426406871192646 -7.8180472953295602e-16 1 F -0.78539816339745316 F 0.78539816339744351 #
color-adesk-attrib $-1 -1 $434 $-1 $364 7 #
vertex $-1 -1 $-1 $364 $435 #
ellipse-curve $-1 -1 $-1 -510.52185552754338 -230.30562152363999 137.99999999999599 -1.8369701987210297e-16 2.0264284392603399e-15 1 0.42426406871193068 0.42426406871192646 -7.8180472953295602e-16 1 F -0.78539816339744351 F 0.78539816339745316 #
color-adesk-attrib $-1 -1 $436 $-1 $367 7 #
straight-curve $-1 -1 $-1 -569.92185552754336 -230.30562152363999 137.99999999999596 -4.2801405630199991e-14 4.7215782634765921e-13 233 F 0 F 1 #
DXID-attrib $-1 -1 $-1 $368 $322 @18 ASM_EDGE_FROM_STEP @5 18635 #
point $-1 -1 $-1 -569.92185552754336 -230.30562152363999 137.99999999999596 #
DXID-attrib $-1 -1 $-1 $371 $323 @18 ASM_EDGE_FROM_STEP @5 18643 #
coedge $-1 -1 $-1 $377 $382 $373 $412 reversed $416 $-1 #
edge $437 -1 $-1 $380 0 $385 1 $373 $438 forward @7 unknown #
color-adesk-attrib $-1 -1 $439 $-1 $376 7 #
straight-curve $-1 -1 $-1 -569.92185552754336 -229.70562152363999 137.99999999999596 3.3750779948604734e-15 -3.7999999999999998 7.7004280691892907e-15 F 0.15789473684210512 F 1.1578947368421049 #
coedge $-1 -1 $-1 $382 $377 $397 $429 reversed $416 $-1 #
loop $-1 -1 $-1 $-1 $411 $393 #
color-adesk-attrib $-1 -1 $440 $-1 $378 7 #
straight-curve $-1 -1 $-1 -509.92185552754336 -234.70562152363999 137.99999999999599 3.3750779948604765e-15 3.7999999999999998 -7.7004280691892907e-15 F 0.15789473684210506 F 1.157894736842106 #
DXID-attrib $-1 -1 $-1 $379 $334 @18 ASM_EDGE_FROM_STEP @5 18639 #
point $-1 -1 $-1 -509.92185552754336 -234.10562152364 137.99999999999599 #
color-adesk-attrib $-1 -1 $441 $-1 $383 7 #
straight-curve $-1 -1 $-1 -509.92185552754341 -234.70562152363951 370.99999999999602 3.3750779948604765e-15 3.7999999999999998 -7.7004280691892907e-15 F 0.15789473684210506 F 1.157894736842106 #
DXID-attrib $-1 -1 $-1 $384 $338 @18 ASM_EDGE_FROM_STEP @5 18645 #
point $-1 -1 $-1 -509.92185552754341 -234.10562152363951 370.99999999999602 #
DXID-attrib $-1 -1 $-1 $387 $342 @18 ASM_EDGE_FROM_STEP @5 18631 #
DXID-attrib $-1 -1 $-1 $392 $348 @18 ASM_FACE_FROM_STEP @16 stp-2M-184-31105 #
color-adesk-attrib $-1 -1 $442 $-1 $393 7 #
plane-surface $-1 -1 $-1 -509.92185552754336 -234.70562152363999 137.99999999999599 1 -8.8817841970012504e-16 1.8369701987210477e-16 8.8817841970012543e-16 1 -2.0264284392603399e-15 forward_v I I I I #
edge $443 -1 $-1 $401 -1 $404 0 $415 $444 forward @7 unknown #
color-adesk-attrib $-1 -1 $445 $-1 $398 7 #
cone-surface $-1 -1 $-1 -510.52185552754338 -230.30562152363999 137.99999999999599 -1.8369701987210297e-16 2.0264284392603399e-15 1 0.42426406871193068 0.42426406871192646 -7.8180472953295602e-16 1 I I 0 1 0.60000000000000009 forward I I I I #
DXID-attrib $-1 -1 $-1 $400 $361 @18 ASM_EDGE_FROM_STEP @5 18650 #
point $-1 -1 $-1 -509.92185552754341 -230.30562152363953 370.99999999999602 #
DXID-attrib $-1 -1 $-1 $403 $364 @18 ASM_EDGE_FROM_STEP @5 18637 #
point $-1 -1 $-1 -509.92185552754336 -230.30562152363999 137.99999999999599 #
DXID-attrib $-1 -1 $-1 $406 $367 @18 ASM_EDGE_FROM_STEP @5 18642 #
color-adesk-attrib $-1 -1 $446 $-1 $412 7 #
straight-curve $-1 -1 $-1 -509.92185552754336 -234.10562152364 137.99999999999599 -4.2801405630199991e-14 4.7215782634765921e-13 233 F 0 F 1 #
DXID-attrib $-1 -1 $-1 $413 $376 @18 ASM_EDGE_FROM_STEP @5 18634 #
DXID-attrib $-1 -1 $-1 $417 $378 @18 ASM_EDGE_FROM_STEP @5 18638 #
DXID-attrib $-1 -1 $-1 $421 $383 @18 ASM_EDGE_FROM_STEP @5 18649 #
DXID-attrib $-1 -1 $-1 $427 $393 @18 ASM_FACE_FROM_STEP @16 stp-2M-184-31106 #
color-adesk-attrib $-1 -1 $447 $-1 $429 7 #
straight-curve $-1 -1 $-1 -509.92185552754336 -230.30562152363999 137.99999999999599 4.2801405630199991e-14 -4.7215782634765921e-13 -233 F -1 F 0 #
DXID-attrib $-1 -1 $-1 $430 $398 @18 ASM_FACE_FROM_STEP @16 stp-2M-184-31107 #
DXID-attrib $-1 -1 $-1 $437 $412 @18 ASM_EDGE_FROM_STEP @5 18647 #
DXID-attrib $-1 -1 $-1 $443 $429 @18 ASM_EDGE_FROM_STEP @5 18648 #
