700 362 1 0         
5 ZWCAD 12 ACIS 28.0 NT 24 Sat May 11 15:39:41 2024 
1 9.9999999999999995e-07 1e-10 
body $1 -1 $-1 $2 $-1 $-1 #
DXID-attrib $-1 -1 $-1 $-1 $0 @18 ASM_BODY_FROM_STEP @83 78F6CCCEF0BE70037D2C8EBE6B9C0B3ECF6D2E4A|:|8CB3CBCEBE3339AC3139F7812237AD39DB573F35 #
lump $-1 -1 $-1 $-1 $3 $0 #
shell $-1 -1 $-1 $-1 $-1 $4 $-1 $2 #
face $5 -1 $-1 $6 $7 $3 $-1 $8 reversed single #
fmesh-eye-attrib $-1 -1 $9 $-1 $4 #
face $10 -1 $-1 $11 $12 $3 $-1 $13 reversed single #
loop $-1 -1 $-1 $14 $15 $4 #
plane-surface $-1 -1 $-1 -294.52868157957471 -646.80149975620384 0.29999999999998295 -2.2115603298505009e-15 -1 1.0106430996148606e-15 -1 2.2115603298505005e-15 -5.3021653106000295e-16 forward_v I I I I #
color-adesk-attrib $-1 -1 $16 $5 $4 250 #
fmesh-eye-attrib $-1 -1 $17 $-1 $6 #
face $18 -1 $-1 $19 $20 $3 $-1 $21 reversed single #
loop $-1 -1 $-1 $22 $23 $6 #
cone-surface $-1 -1 $-1 -294.52868157957477 -646.80149975620384 19.999999999999982 2.2115603298505009e-15 1 -1.0106430996148606e-15 16.100000000000001 -3.5606121310593064e-14 8.5364861500660489e-15 1 I I 0.47360426627676688 0.88073775833924894 16.100000000000001 forward I I I I #
loop $-1 -1 $-1 $-1 $24 $4 #
coedge $-1 -1 $-1 $15 $15 $25 $26 forward $7 $-1 #
DXID-attrib $-1 -1 $-1 $9 $4 @18 ASM_FACE_FROM_STEP @14 stp-1M-55-9890 #
color-adesk-attrib $-1 -1 $27 $10 $6 250 #
fmesh-eye-attrib $-1 -1 $28 $-1 $11 #
face $29 -1 $-1 $30 $31 $3 $-1 $32 forward single #
loop $-1 -1 $-1 $33 $34 $11 #
plane-surface $-1 -1 $-1 -294.52868157957477 -652.10149975620379 6.749999999999984 -2.2115603298505009e-15 -1 1.0106430996148606e-15 -1 2.2115603298505005e-15 -5.3021653106000295e-16 forward_v I I I I #
loop $-1 -1 $-1 $-1 $35 $6 #
coedge $-1 -1 $-1 $23 $23 $34 $36 reversed $12 $-1 #
coedge $-1 -1 $-1 $24 $24 $35 $37 reversed $14 $-1 #
coedge $-1 -1 $-1 $25 $25 $15 $26 reversed $38 $-1 #
edge $39 -1 $-1 $40 0 $40 6.2831853071795862 $15 $41 forward @7 unknown #
DXID-attrib $-1 -1 $-1 $17 $6 @18 ASM_FACE_FROM_STEP @14 stp-1M-55-9891 #
color-adesk-attrib $-1 -1 $42 $18 $11 250 #
fmesh-eye-attrib $-1 -1 $43 $-1 $19 #
face $44 -1 $-1 $45 $46 $3 $-1 $47 reversed single #
loop $-1 -1 $-1 $48 $49 $19 #
cone-surface $-1 -1 $-1 -294.52868157957477 -652.10149975620379 19.999999999999986 -2.2115603298505009e-15 -1 1.0106430996148606e-15 -12.15 2.6870458007683584e-14 -6.4421308523790359e-15 1 I I 0.037709009900252416 0.99928876235667874 12.15 forward I I I I #
loop $-1 -1 $-1 $-1 $50 $11 #
coedge $-1 -1 $-1 $34 $34 $23 $36 forward $20 $-1 #
coedge $-1 -1 $-1 $35 $35 $24 $37 forward $22 $-1 #
edge $51 -1 $-1 $52 0 $52 6.2831853071795862 $23 $53 forward @7 unknown #
edge $54 -1 $-1 $55 0 $55 6.2831853071795862 $24 $56 forward @7 unknown #
loop $-1 -1 $-1 $57 $25 $58 #
color-adesk-attrib $-1 -1 $59 $-1 $26 250 #
vertex $-1 -1 $-1 $26 $60 #
ellipse-curve $-1 -1 $-1 -294.52868157957477 -646.80149975620384 19.999999999999982 2.2115603298505009e-15 1 -1.0106430996148606e-15 19.699999999999999 -4.3567738498054856e-14 1.0445265661882057e-14 1 I I #
DXID-attrib $-1 -1 $-1 $28 $11 @18 ASM_FACE_FROM_STEP @14 stp-1M-55-9892 #
color-adesk-attrib $-1 -1 $61 $29 $19 250 #
fmesh-eye-attrib $-1 -1 $62 $-1 $30 #
face $63 -1 $-1 $64 $65 $3 $-1 $66 reversed single #
loop $-1 -1 $-1 $67 $68 $30 #
plane-surface $-1 -1 $-1 -294.52868157957471 -646.80149975620384 8.0499999999999794 -2.2115603298505009e-15 -1 1.0106430996148606e-15 -1 2.2115603298505005e-15 -5.3021653106000295e-16 forward_v I I I I #
loop $-1 -1 $-1 $-1 $69 $19 #
coedge $-1 -1 $-1 $49 $49 $68 $70 reversed $31 $-1 #
coedge $-1 -1 $-1 $50 $50 $69 $71 reversed $33 $-1 #
color-adesk-attrib $-1 -1 $72 $-1 $36 250 #
vertex $-1 -1 $-1 $36 $73 #
ellipse-curve $-1 -1 $-1 -294.52868157957477 -652.10149975620379 19.999999999999986 2.2115603298505009e-15 1 -1.0106430996148606e-15 13.25 -2.9303174370519134e-14 7.0253690365450387e-15 1 I I #
color-adesk-attrib $-1 -1 $74 $-1 $37 250 #
vertex $-1 -1 $-1 $37 $75 #
ellipse-curve $-1 -1 $-1 -294.52868157957477 -646.80149975620384 19.999999999999982 2.2115603298505009e-15 1 -1.0106430996148606e-15 16.100000000000001 -3.5606121310593064e-14 8.5364861500660489e-15 1 I I #
loop $-1 -1 $-1 $-1 $76 $58 #
face $77 -1 $-1 $78 $38 $3 $-1 $79 forward single #
DXID-attrib $-1 -1 $-1 $39 $26 @18 ASM_EDGE_FROM_STEP @4 6010 #
point $-1 -1 $-1 -274.82868157957472 -646.80149975620384 19.999999999999993 #
DXID-attrib $-1 -1 $-1 $43 $19 @18 ASM_FACE_FROM_STEP @14 stp-1M-55-9893 #
color-adesk-attrib $-1 -1 $80 $44 $30 250 #
fmesh-eye-attrib $-1 -1 $81 $-1 $45 #
face $82 -1 $-1 $83 $84 $3 $-1 $85 reversed single #
loop $-1 -1 $-1 $86 $87 $45 #
cone-surface $-1 -1 $-1 -294.52868157957482 -683.10149975620379 20.000000000000018 2.2115603298505009e-15 1 -1.0106430996148606e-15 10 -2.2115603298505005e-14 5.3021653106000297e-15 1 I I 0 1 10 forward I I I I #
loop $-1 -1 $-1 $-1 $88 $30 #
coedge $-1 -1 $-1 $68 $68 $49 $70 forward $46 $-1 #
coedge $-1 -1 $-1 $69 $69 $50 $71 forward $48 $-1 #
edge $89 -1 $-1 $90 0 $90 6.2831853071795862 $49 $91 forward @7 unknown #
edge $92 -1 $-1 $93 0 $93 6.2831853071795862 $50 $94 forward @7 unknown #
DXID-attrib $-1 -1 $-1 $51 $36 @18 ASM_EDGE_FROM_STEP @4 6012 #
point $-1 -1 $-1 -281.27868157957477 -652.10149975620391 19.999999999999993 #
DXID-attrib $-1 -1 $-1 $54 $37 @18 ASM_EDGE_FROM_STEP @4 6011 #
point $-1 -1 $-1 -278.42868157957474 -646.80149975620384 19.999999999999989 #
coedge $-1 -1 $-1 $76 $76 $95 $96 forward $57 $-1 #
fmesh-eye-attrib $-1 -1 $97 $-1 $58 #
face $98 -1 $-1 $99 $100 $3 $-1 $101 reversed single #
cone-surface $-1 -1 $-1 -294.52868157957482 -683.10149975620379 20.000000000000018 2.2115603298505009e-15 1 -1.0106430996148606e-15 19.699999999999999 -4.3567738498054856e-14 1.0445265661882057e-14 1 I I 0 1 19.699999999999999 forward I I I I #
DXID-attrib $-1 -1 $-1 $62 $30 @18 ASM_FACE_FROM_STEP @14 stp-1M-55-9894 #
color-adesk-attrib $-1 -1 $102 $63 $45 250 #
fmesh-eye-attrib $-1 -1 $103 $-1 $64 #
face $104 -1 $-1 $105 $106 $3 $-1 $107 reversed single #
loop $-1 -1 $-1 $108 $109 $64 #
cone-surface $-1 -1 $-1 -294.52868157957482 -682.60149975620379 20.000000000000018 -2.2115603298505009e-15 -1 1.0106430996148606e-15 -10 2.2115603298505005e-14 -5.3021653106000297e-15 1 I I 0.70710678118654724 0.70710678118654779 10 forward I I I I #
loop $-1 -1 $-1 $110 $111 $45 #
coedge $-1 -1 $-1 $87 $87 $112 $113 reversed $65 $-1 #
coedge $-1 -1 $-1 $88 $88 $114 $115 reversed $67 $-1 #
color-adesk-attrib $-1 -1 $116 $-1 $70 250 #
vertex $-1 -1 $-1 $70 $117 #
ellipse-curve $-1 -1 $-1 -294.52868157957477 -646.80149975620384 19.999999999999982 2.2115603298505009e-15 1 -1.0106430996148606e-15 11.950000000000001 -2.6428145941713485e-14 6.3360875461670357e-15 1 I I #
color-adesk-attrib $-1 -1 $118 $-1 $71 250 #
vertex $-1 -1 $-1 $71 $119 #
ellipse-curve $-1 -1 $-1 -294.52868157957477 -652.10149975620379 19.999999999999986 2.2115603298505009e-15 1 -1.0106430996148606e-15 12.15 -2.6870458007683584e-14 6.4421308523790359e-15 1 I I #
coedge $-1 -1 $-1 $95 $95 $76 $96 reversed $120 $-1 #
edge $121 -1 $-1 $122 0 $122 6.2831853071795862 $95 $123 forward @7 unknown #
color-adesk-attrib $-1 -1 $124 $77 $58 250 #
fmesh-eye-attrib $-1 -1 $125 $-1 $78 #
face $126 -1 $-1 $-1 $127 $3 $-1 $128 reversed single #
loop $-1 -1 $-1 $129 $130 $78 #
cone-surface $-1 -1 $-1 -294.52868157957482 -679.60149975620379 33.500000000000014 5.3021653106000068e-16 -1.0106430996148618e-15 -1 2.0670000000000002 -4.5712952018009852e-15 1.0959575697010263e-15 1 I I 0 1 2.0670000000000002 forward I I I I #
DXID-attrib $-1 -1 $-1 $81 $45 @18 ASM_FACE_FROM_STEP @14 stp-1M-55-9895 #
color-adesk-attrib $-1 -1 $131 $82 $64 250 #
fmesh-eye-attrib $-1 -1 $132 $-1 $83 #
face $133 -1 $-1 $134 $135 $3 $-1 $136 forward single #
loop $-1 -1 $-1 $137 $138 $83 #
plane-surface $-1 -1 $-1 -294.52868157957482 -683.10149975620379 9.5000000000000178 2.2115603298505009e-15 1 -1.0106430996148606e-15 1 -2.2115603298505005e-15 5.3021653106000295e-16 forward_v I I I I #
loop $-1 -1 $-1 $-1 $112 $64 #
coedge $-1 -1 $-1 $109 $109 $139 $140 reversed $84 $-1 #
loop $-1 -1 $-1 $-1 $114 $45 #
coedge $-1 -1 $-1 $111 $111 $141 $142 forward $86 $-1 #
coedge $-1 -1 $-1 $112 $112 $87 $113 forward $108 $-1 #
edge $143 -1 $-1 $144 0 $144 6.2831853071795862 $87 $145 forward @7 unknown #
coedge $-1 -1 $-1 $114 $114 $88 $115 forward $110 $-1 #
edge $146 -1 $-1 $147 0 $147 6.2831853071795862 $88 $148 forward @7 unknown #
DXID-attrib $-1 -1 $-1 $89 $70 @18 ASM_EDGE_FROM_STEP @4 6014 #
point $-1 -1 $-1 -282.57868157957472 -646.80149975620384 19.999999999999986 #
DXID-attrib $-1 -1 $-1 $92 $71 @18 ASM_EDGE_FROM_STEP @4 6013 #
point $-1 -1 $-1 -282.37868157957473 -652.10149975620379 19.999999999999993 #
loop $-1 -1 $-1 $149 $95 $150 #
color-adesk-attrib $-1 -1 $151 $-1 $96 250 #
vertex $-1 -1 $-1 $96 $152 #
ellipse-curve $-1 -1 $-1 -294.52868157957477 -648.70149975620393 19.999999999999982 2.2115603298505009e-15 1 -1.0106430996148606e-15 19.699999999999999 -4.3567738498054856e-14 1.0445265661882057e-14 1 I I #
DXID-attrib $-1 -1 $-1 $97 $58 @18 ASM_FACE_FROM_STEP @14 stp-1M-55-9910 #
truecolor-adesk-attrib $-1 -1 $153 $98 $78 -1036992620 #
fmesh-eye-attrib $-1 -1 $154 $-1 $99 #
loop $-1 -1 $-1 $155 $156 $99 #
cone-surface $-1 -1 $-1 -294.52868157957482 -679.60149975620379 33.067000000000014 -5.3021653106000068e-16 1.0106430996148618e-15 1 -2.0670000000000002 4.5712952018009852e-15 -1.0959575697010263e-15 1 I I 0.70710678118654446 0.70710678118655057 2.0670000000000002 forward I I I I #
loop $-1 -1 $-1 $-1 $141 $78 #
coedge $-1 -1 $-1 $130 $130 $157 $158 reversed $100 $-1 #
DXID-attrib $-1 -1 $-1 $103 $64 @18 ASM_FACE_FROM_STEP @14 stp-1M-55-9896 #
color-adesk-attrib $-1 -1 $159 $104 $83 250 #
fmesh-eye-attrib $-1 -1 $160 $-1 $105 #
face $161 -1 $-1 $162 $163 $3 $-1 $164 forward single #
loop $-1 -1 $-1 $165 $166 $105 #
torus-surface $-1 -1 $-1 -294.52868157957482 -682.60149975620288 20.000000000000018 2.2115603298505009e-15 1 -1.0106430996148606e-15 12.999999999999101 0.50000000000093503 1 -2.2115603298505005e-15 5.3021653106000295e-16 forward_v I I I I #
loop $-1 -1 $-1 $-1 $139 $83 #
coedge $-1 -1 $-1 $138 $138 $167 $168 reversed $106 $-1 #
coedge $-1 -1 $-1 $139 $139 $109 $140 forward $137 $-1 #
edge $169 -1 $-1 $170 0 $170 6.2831853071795862 $109 $171 forward @7 unknown #
coedge $-1 -1 $-1 $141 $141 $111 $142 reversed $129 $-1 #
edge $172 -1 $-1 $173 0.62483104739310502 $173 1.8744931421793152 $111 $174 forward @7 unknown #
color-adesk-attrib $-1 -1 $175 $-1 $113 250 #
vertex $-1 -1 $-1 $113 $176 #
ellipse-curve $-1 -1 $-1 -294.52868157957482 -682.60149975620379 20.000000000000018 2.2115603298505009e-15 1 -1.0106430996148606e-15 10 -2.2115603298505005e-14 5.3021653106000297e-15 1 I I #
color-adesk-attrib $-1 -1 $177 $-1 $115 250 #
vertex $-1 -1 $-1 $115 $178 #
ellipse-curve $-1 -1 $-1 -294.52868157957477 -646.80149975620384 19.999999999999982 2.2115603298505009e-15 1 -1.0106430996148606e-15 10 -2.2115603298505005e-14 5.3021653106000297e-15 1 I I #
loop $-1 -1 $-1 $-1 $179 $150 #
face $180 -1 $-1 $58 $120 $3 $-1 $181 reversed single #
DXID-attrib $-1 -1 $-1 $121 $96 @18 ASM_EDGE_FROM_STEP @4 6032 #
point $-1 -1 $-1 -274.82868157957478 -648.70149975620393 19.999999999999993 #
color-adesk-attrib $-1 -1 $182 $125 $78 135 #
color-adesk-attrib $-1 -1 $183 $126 $99 250 #
loop $-1 -1 $-1 $-1 $157 $99 #
coedge $-1 -1 $-1 $156 $156 $184 $185 reversed $127 $-1 #
coedge $-1 -1 $-1 $157 $157 $130 $158 forward $155 $-1 #
edge $186 -1 $-1 $187 0 $187 6.2831853071795862 $130 $188 forward @7 unknown #
DXID-attrib $-1 -1 $-1 $132 $83 @18 ASM_FACE_FROM_STEP @14 stp-1M-55-9897 #
color-adesk-attrib $-1 -1 $189 $133 $105 250 #
fmesh-eye-attrib $-1 -1 $190 $-1 $134 #
face $191 -1 $-1 $192 $193 $3 $-1 $194 reversed single #
loop $-1 -1 $-1 $195 $196 $134 #
cone-surface $-1 -1 $-1 -294.52868157957482 -683.10149975620379 20.000000000000018 2.2115603298505009e-15 1 -1.0106430996148606e-15 13.5 -2.9856064452981754e-14 7.1579231693100398e-15 1 I I 0 1 13.5 forward I I I I #
loop $-1 -1 $-1 $-1 $167 $105 #
coedge $-1 -1 $-1 $166 $166 $197 $198 reversed $135 $-1 #
coedge $-1 -1 $-1 $167 $167 $138 $168 forward $165 $-1 #
edge $199 -1 $-1 $200 0 $200 6.2831853071795862 $138 $201 forward @7 unknown #
color-adesk-attrib $-1 -1 $202 $-1 $140 250 #
vertex $-1 -1 $-1 $140 $203 #
ellipse-curve $-1 -1 $-1 -294.52868157957482 -683.10149975620379 20.000000000000018 2.2115603298505009e-15 1 -1.0106430996148606e-15 10.5 -2.3221383463430256e-14 5.567273576130031e-15 1 I I #
truecolor-adesk-attrib $-1 -1 $204 $-1 $142 -1036992620 #
vertex $-1 -1 $-1 $142 $205 #
intcurve-curve $-1 -1 $-1 forward { surfintcur full nubs 3 periodic 17 
	0 3 0.078106384109750709 2 0.15621276821950142 2 0.23431414595802694 2 0.31241552369655246 2 
	0.390516901435078 2 0.46861827917360355 2 0.54672466328335423 2 0.62483104739310502 2 0.70293743150285581 2 
	0.7810438156126065 2 0.85914519335113204 2 0.93724657108965759 2 1.0153479488281831 2 1.0934493265667087 2 
	1.1715557106764594 2 1.24966209478621 3 
	-296.59568157957483 -679.60149975620379 29.784043693688218 
	-296.59568157957483 -679.86185436990309 29.784043693688218 
	-296.54349555853457 -680.13903184356082 29.795514028790372 
	-296.33232175613557 -680.648064844587 29.836587434430268 
	-296.17337329839569 -680.87998747080815 29.865558642658854 
	-295.80718103043614 -681.24617973876775 29.919661936996921 
	-295.57525343184875 -681.40513738456866 29.948360638449255 
	-295.06620310695934 -681.61631785817315 29.988806867606449 
	-294.78901950536988 -681.6684997562038 30.000000000000014 
	-294.26834365377977 -681.6684997562038 30.000000000000014 
	-293.99116005219031 -681.61631785817315 29.988806867606449 
	-293.48210972730089 -681.40513738456866 29.948360638449255 
	-293.2501821287135 -681.24617973876775 29.919661936996917 
	-292.88398986075396 -680.87998747080815 29.865558642658854 
	-292.72504140301407 -680.648064844587 29.836587434430271 
	-292.51386760061507 -680.13903184356082 29.795514028790379 
	-292.46168157957482 -679.86185436990309 29.784043693688226 
	-292.46168157957482 -679.34114514250473 29.784043693688226 
	-292.51386760061507 -679.06396766884677 29.795514028790379 
	-292.72504140301407 -678.55493466782059 29.836587434430268 
	-292.88398986075396 -678.32301204159944 29.865558642658847 
	-293.2501821287135 -677.95681977363995 29.919661936996917 
	-293.48210972730084 -677.79786212783893 29.948360638449252 
	-293.99116005219031 -677.58668165423455 29.988806867606446 
	-294.26834365377971 -677.53449975620379 30.000000000000014 
	-294.78901950536988 -677.53449975620379 30.000000000000014 
	-295.06620310695934 -677.58668165423455 29.988806867606446 
	-295.57525343184875 -677.79786212783893 29.948360638449252 
	-295.80718103043614 -677.95681977363995 29.919661936996917 
	-296.17337329839569 -678.32301204159944 29.865558642658847 
	-296.33232175613557 -678.55493466782059 29.836587434430264 
	-296.54349555853457 -679.06396766884677 29.795514028790372 
	-296.59568157957483 -679.34114514250473 29.784043693688218 
	-296.59568157957483 -679.60149975620379 29.784043693688218 
	0.0015753284700629623 
	cone -294.52868157957482 -679.60149975620379 33.500000000000014 5.3021653106000068e-16 -1.0106430996148618e-15 -1 2.0670000000000002 -4.5712952018009852e-15 1.0959575697010263e-15 1 I I 0 1 2.0670000000000002 forward I I I I 
	cone -294.52868157957482 -683.10149975620379 20.000000000000018 2.2115603298505009e-15 1 -1.0106430996148606e-15 10 -2.2115603298505005e-14 5.3021653106000297e-15 1 I I 0 -1 10 forward I I I I 
	nullbs 
	nullbs 
	I I 
	0 
	0 
	0 
	} I I #
DXID-attrib $-1 -1 $-1 $143 $113 @18 ASM_EDGE_FROM_STEP @4 6016 #
point $-1 -1 $-1 -284.52868157957482 -682.60149975620379 20.000000000000021 #
DXID-attrib $-1 -1 $-1 $146 $115 @18 ASM_EDGE_FROM_STEP @4 6015 #
point $-1 -1 $-1 -284.52868157957477 -646.80149975620384 19.999999999999986 #
coedge $-1 -1 $-1 $179 $179 $206 $207 forward $149 $-1 #
fmesh-eye-attrib $-1 -1 $208 $-1 $150 #
plane-surface $-1 -1 $-1 -294.52868157957471 -648.70149975620393 3.6999999999999815 2.2115603298505009e-15 1 -1.0106430996148606e-15 1 -2.2115603298505005e-15 5.3021653106000295e-16 forward_v I I I I #
DXID-attrib $-1 -1 $-1 $153 $78 @18 ASM_FACE_FROM_STEP @14 stp-1M-55-9911 #
DXID-attrib $-1 -1 $-1 $154 $99 @18 ASM_FACE_FROM_STEP @14 stp-1M-55-9912 #
coedge $-1 -1 $-1 $184 $184 $156 $185 forward $195 $-1 #
edge $209 -1 $-1 $210 0.17699641440656549 $210 1.6274699216932338 $184 $211 forward @7 unknown #
truecolor-adesk-attrib $-1 -1 $212 $-1 $158 -1023409926 #
vertex $-1 -1 $-1 $158 $213 #
ellipse-curve $-1 -1 $-1 -294.52868157957482 -679.60149975620379 33.067000000000014 5.3021653106000068e-16 -1.0106430996148618e-15 -1 2.0670000000000002 -4.5712952018009852e-15 1.0959575697010263e-15 1 I I #
DXID-attrib $-1 -1 $-1 $160 $105 @18 ASM_FACE_FROM_STEP @14 stp-1M-55-9898 #
color-adesk-attrib $-1 -1 $214 $161 $134 250 #
fmesh-eye-attrib $-1 -1 $215 $-1 $162 #
face $216 -1 $-1 $217 $218 $3 $-1 $219 forward single #
loop $-1 -1 $-1 $220 $221 $162 #
plane-surface $-1 -1 $-1 -294.52868157957482 -676.40149975620386 6.5000000000000107 -2.2115603298505009e-15 -1 1.0106430996148606e-15 -1 2.2115603298505005e-15 -5.3021653106000295e-16 forward_v I I I I #
loop $-1 -1 $-1 $222 $184 $134 #
coedge $-1 -1 $-1 $196 $196 $221 $223 reversed $163 $-1 #
coedge $-1 -1 $-1 $197 $197 $166 $198 forward $222 $-1 #
edge $224 -1 $-1 $225 0 $225 6.2831853071795862 $166 $226 forward @7 unknown #
color-adesk-attrib $-1 -1 $227 $-1 $168 250 #
vertex $-1 -1 $-1 $168 $228 #
ellipse-curve $-1 -1 $-1 -294.52868157957482 -683.10149975620379 20.000000000000018 2.2115603298505009e-15 1 -1.0106430996148606e-15 13 -2.8750284288056507e-14 6.8928149037800384e-15 1 I I #
DXID-attrib $-1 -1 $-1 $169 $140 @18 ASM_EDGE_FROM_STEP @4 6018 #
point $-1 -1 $-1 -284.02868157957482 -683.10149975620379 20.000000000000025 #
color-adesk-attrib $-1 -1 $229 $172 $142 135 #
point $-1 -1 $-1 -292.46168157957482 -679.60149975620379 29.784043693688226 #
coedge $-1 -1 $-1 $206 $206 $179 $207 reversed $230 $-1 #
edge $231 -1 $-1 $232 0 $232 6.2831853071795862 $206 $233 forward @7 unknown #
color-adesk-attrib $-1 -1 $234 $180 $150 250 #
color-adesk-attrib $-1 -1 $235 $-1 $185 250 #
vertex $-1 -1 $-1 $185 $236 #
intcurve-curve $-1 -1 $-1 forward { surfintcur full nubs 3 periodic 17 
	0 3 0.089775875569353514 2 0.17955175113870703 2 0.27108506398018706 2 0.36261837682166709 2 
	0.45415168966314706 2 0.54568500250462704 2 0.63546087807398055 2 0.72523675364333406 2 0.81501262921268758 2 
	0.90478850478204109 2 0.99632181762352112 2 1.0878551304650013 2 1.1793884433064812 2 1.2709217561479613 2 
	1.3606976317173149 2 1.4504735072866684 3 
	-296.83092484673841 -679.60149975620379 33.302243267163632 
	-296.83092484673841 -679.30224683763936 33.302243267163632 
	-296.77822622897531 -678.98098206029272 33.311719609414055 
	-296.55894881482914 -678.38186569810364 33.346922708453157 
	-296.3923411873314 -678.10399892013174 33.372209929278092 
	-295.99541699282349 -677.65093471709383 33.421604357527009 
	-295.73590244989083 -677.44665931057853 33.449063855957768 
	-295.15517751416883 -677.17180522390299 33.488595334836681 
	-294.83379262237975 -677.10149975620379 33.500000000000007 
	-294.2235705367699 -677.10149975620379 33.500000000000007 
	-293.90218564498082 -677.17180522390299 33.488595334836681 
	-293.32146070925882 -677.44665931057853 33.449063855957768 
	-293.06194616632615 -677.65093471709383 33.421604357527009 
	-292.66502197181825 -678.10399892013174 33.372209929278092 
	-292.49841434432051 -678.38186569810364 33.346922708453157 
	-292.27913693017433 -678.98098206029272 33.311719609414055 
	-292.22643831241123 -679.30224683763936 33.302243267163639 
	-292.22643831241123 -679.90075267476834 33.302243267163639 
	-292.27913693017433 -680.22201745211487 33.311719609414055 
	-292.49841434432051 -680.82113381430406 33.346922708453157 
	-292.66502197181825 -681.09900059227584 33.3722099292781 
	-293.06194616632615 -681.55206479531375 33.421604357527009 
	-293.32146070925882 -681.75634020182906 33.449063855957775 
	-293.90218564498082 -682.03119428850459 33.488595334836688 
	-294.2235705367699 -682.10149975620379 33.500000000000014 
	-294.83379262237975 -682.10149975620379 33.500000000000014 
	-295.15517751416883 -682.03119428850459 33.488595334836688 
	-295.73590244989083 -681.75634020182906 33.449063855957775 
	-295.99541699282349 -681.55206479531375 33.421604357527009 
	-296.3923411873314 -681.09900059227584 33.372209929278092 
	-296.55894881482914 -680.82113381430406 33.346922708453157 
	-296.77822622897531 -680.22201745211487 33.311719609414055 
	-296.83092484673841 -679.90075267476834 33.302243267163632 
	-296.83092484673841 -679.60149975620379 33.302243267163632 
	0.0017823389381488839 
	cone -294.52868157957482 -679.60149975620379 33.067000000000014 -5.3021653106000068e-16 1.0106430996148618e-15 1 -2.0670000000000002 4.5712952018009852e-15 -1.0959575697010263e-15 1 I I 0.70710678118654446 0.70710678118655057 2.0670000000000002 forward I I I I 
	cone -294.52868157957482 -683.10149975620379 20.000000000000018 2.2115603298505009e-15 1 -1.0106430996148606e-15 13.5 -2.9856064452981754e-14 7.1579231693100398e-15 1 I I 0 1 13.5 forward I I I I 
	nullbs 
	nullbs 
	I I 
	0 
	0 
	0 
	} I I #
color-adesk-attrib $-1 -1 $237 $186 $158 250 #
point $-1 -1 $-1 -292.46168157957482 -679.60149975620379 33.067000000000014 #
DXID-attrib $-1 -1 $-1 $190 $134 @18 ASM_FACE_FROM_STEP @14 stp-1M-55-9899 #
color-adesk-attrib $-1 -1 $238 $191 $162 250 #
fmesh-eye-attrib $-1 -1 $239 $-1 $192 #
face $240 -1 $-1 $241 $242 $3 $-1 $243 reversed single #
loop $-1 -1 $-1 $244 $245 $192 #
cone-surface $-1 -1 $-1 -294.52868157957482 -683.10149975620379 20.000000000000018 2.2115603298505009e-15 1 -1.0106430996148606e-15 12.599999999999998 -2.7865660156116303e-14 6.6807282913560356e-15 1 I I 0 1 12.6 forward I I I I #
loop $-1 -1 $-1 $-1 $246 $162 #
coedge $-1 -1 $-1 $221 $221 $196 $223 forward $193 $-1 #
loop $-1 -1 $-1 $-1 $197 $134 #
edge $247 -1 $-1 $248 0 $248 6.2831853071795862 $196 $249 forward @7 unknown #
color-adesk-attrib $-1 -1 $250 $-1 $198 250 #
vertex $-1 -1 $-1 $198 $251 #
ellipse-curve $-1 -1 $-1 -294.52868157957482 -682.60149975620379 20.000000000000018 2.2115603298505009e-15 1 -1.0106430996148606e-15 13.5 -2.9856064452981754e-14 7.1579231693100398e-15 1 I I #
DXID-attrib $-1 -1 $-1 $199 $168 @18 ASM_EDGE_FROM_STEP @4 6019 #
point $-1 -1 $-1 -281.52868157957482 -683.10149975620379 20.000000000000025 #
DXID-attrib $-1 -1 $-1 $204 $142 @18 ASM_EDGE_FROM_STEP @4 6017 #
loop $-1 -1 $-1 $252 $206 $253 #
color-adesk-attrib $-1 -1 $254 $-1 $207 250 #
vertex $-1 -1 $-1 $207 $255 #
ellipse-curve $-1 -1 $-1 -294.52868157957477 -648.70149975620393 19.999999999999982 2.2115603298505009e-15 1 -1.0106430996148606e-15 16.300000000000001 -3.6048433376563163e-14 8.6425294562780491e-15 1 I I #
DXID-attrib $-1 -1 $-1 $208 $150 @18 ASM_FACE_FROM_STEP @14 stp-1M-55-9909 #
DXID-attrib $-1 -1 $-1 $209 $185 @18 ASM_EDGE_FROM_STEP @4 6022 #
point $-1 -1 $-1 -296.21251721272466 -677.89894362404129 33.394577169904814 #
DXID-attrib $-1 -1 $-1 $212 $158 @18 ASM_EDGE_FROM_STEP @4 6033 #
DXID-attrib $-1 -1 $-1 $215 $162 @18 ASM_FACE_FROM_STEP @14 stp-1M-55-9900 #
color-adesk-attrib $-1 -1 $256 $216 $192 250 #
fmesh-eye-attrib $-1 -1 $257 $-1 $217 #
face $258 -1 $-1 $259 $260 $3 $-1 $261 forward single #
loop $-1 -1 $-1 $262 $263 $217 #
plane-surface $-1 -1 $-1 -294.52868157957482 -675.10149975620379 7.4000000000000092 2.2115603298505009e-15 1 -1.0106430996148606e-15 1 -2.2115603298505005e-15 5.3021653106000295e-16 forward_v I I I I #
loop $-1 -1 $-1 $-1 $264 $192 #
coedge $-1 -1 $-1 $245 $245 $265 $266 reversed $218 $-1 #
coedge $-1 -1 $-1 $246 $246 $264 $267 reversed $220 $-1 #
color-adesk-attrib $-1 -1 $268 $-1 $223 250 #
vertex $-1 -1 $-1 $223 $269 #
ellipse-curve $-1 -1 $-1 -294.52868157957482 -676.40149975620386 20.000000000000011 2.2115603298505009e-15 1 -1.0106430996148606e-15 13.5 -2.9856064452981754e-14 7.1579231693100398e-15 1 I I #
DXID-attrib $-1 -1 $-1 $224 $198 @18 ASM_EDGE_FROM_STEP @4 6020 #
point $-1 -1 $-1 -281.02868157957482 -682.60149975620379 20.000000000000025 #
loop $-1 -1 $-1 $-1 $270 $253 #
face $271 -1 $-1 $150 $230 $3 $-1 $272 forward single #
DXID-attrib $-1 -1 $-1 $231 $207 @18 ASM_EDGE_FROM_STEP @4 6031 #
point $-1 -1 $-1 -278.22868157957475 -648.70149975620393 19.999999999999993 #
DXID-attrib $-1 -1 $-1 $239 $192 @18 ASM_FACE_FROM_STEP @14 stp-1M-55-9901 #
color-adesk-attrib $-1 -1 $273 $240 $217 250 #
fmesh-eye-attrib $-1 -1 $274 $-1 $241 #
face $275 -1 $-1 $276 $277 $3 $-1 $278 forward single #
loop $-1 -1 $-1 $279 $280 $241 #
cone-surface $-1 -1 $-1 -294.52868157957482 -683.10149975620379 20.000000000000018 2.2115603298505009e-15 1 -1.0106430996148606e-15 13.5 -2.9856064452981754e-14 7.1579231693100398e-15 1 I I 0 1 13.5 forward I I I I #
loop $-1 -1 $-1 $-1 $265 $217 #
coedge $-1 -1 $-1 $263 $263 $281 $282 reversed $242 $-1 #
coedge $-1 -1 $-1 $264 $264 $246 $267 forward $244 $-1 #
coedge $-1 -1 $-1 $265 $265 $245 $266 forward $262 $-1 #
edge $283 -1 $-1 $284 0 $284 6.2831853071795862 $245 $285 forward @7 unknown #
edge $286 -1 $-1 $287 0 $287 6.2831853071795862 $246 $288 forward @7 unknown #
DXID-attrib $-1 -1 $-1 $247 $223 @18 ASM_EDGE_FROM_STEP @4 6021 #
point $-1 -1 $-1 -281.02868157957482 -676.40149975620386 20.000000000000018 #
coedge $-1 -1 $-1 $270 $270 $289 $290 forward $252 $-1 #
fmesh-eye-attrib $-1 -1 $291 $-1 $253 #
cone-surface $-1 -1 $-1 -294.52868157957477 -655.30149975620384 19.999999999999989 2.2115603298505009e-15 1 -1.0106430996148606e-15 12.750943396226003 -2.8199480583262638e-14 6.7607609752894035e-15 1 I I 0.47360426627680918 0.88073775833922618 12.750943396226003 forward I I I I #
DXID-attrib $-1 -1 $-1 $257 $217 @18 ASM_FACE_FROM_STEP @14 stp-1M-55-9902 #
color-adesk-attrib $-1 -1 $292 $258 $241 250 #
fmesh-eye-attrib $-1 -1 $293 $-1 $259 #
face $294 -1 $-1 $295 $296 $3 $-1 $297 reversed single #
loop $-1 -1 $-1 $298 $299 $259 #
torus-surface $-1 -1 $-1 -294.52868157957482 -674.80149975620498 20.000000000000011 2.2115603298505009e-15 1 -1.0106430996148606e-15 13.299999999998899 0.20000000000105403 1 -2.2115603298505005e-15 5.3021653106000295e-16 forward_v I I I I #
loop $-1 -1 $-1 $-1 $281 $241 #
coedge $-1 -1 $-1 $280 $280 $300 $301 reversed $260 $-1 #
coedge $-1 -1 $-1 $281 $281 $263 $282 forward $279 $-1 #
edge $302 -1 $-1 $303 0 $303 6.2831853071795862 $263 $304 forward @7 unknown #
color-adesk-attrib $-1 -1 $305 $-1 $266 250 #
vertex $-1 -1 $-1 $266 $306 #
ellipse-curve $-1 -1 $-1 -294.52868157957482 -675.10149975620379 20.000000000000011 2.2115603298505009e-15 1 -1.0106430996148606e-15 12.599999999999998 -2.7865660156116303e-14 6.6807282913560356e-15 1 I I #
color-adesk-attrib $-1 -1 $307 $-1 $267 250 #
vertex $-1 -1 $-1 $267 $308 #
ellipse-curve $-1 -1 $-1 -294.52868157957482 -676.40149975620386 20.000000000000011 2.2115603298505009e-15 1 -1.0106430996148606e-15 12.599999999999998 -2.7865660156116303e-14 6.6807282913560356e-15 1 I I #
coedge $-1 -1 $-1 $289 $289 $270 $290 reversed $309 $-1 #
edge $310 -1 $-1 $311 0 $311 6.2831853071795862 $289 $312 forward @7 unknown #
color-adesk-attrib $-1 -1 $313 $271 $253 250 #
DXID-attrib $-1 -1 $-1 $274 $241 @18 ASM_FACE_FROM_STEP @14 stp-1M-55-9903 #
color-adesk-attrib $-1 -1 $314 $275 $259 250 #
fmesh-eye-attrib $-1 -1 $315 $-1 $276 #
face $316 -1 $-1 $317 $318 $3 $-1 $319 forward single #
loop $-1 -1 $-1 $320 $321 $276 #
plane-surface $-1 -1 $-1 -294.52868157957482 -674.60149975620379 6.7000000000000082 -2.2115603298505009e-15 -1 1.0106430996148606e-15 -1 2.2115603298505005e-15 -5.3021653106000295e-16 forward_v I I I I #
loop $-1 -1 $-1 $-1 $300 $259 #
coedge $-1 -1 $-1 $299 $299 $321 $322 reversed $277 $-1 #
coedge $-1 -1 $-1 $300 $300 $280 $301 forward $298 $-1 #
edge $323 -1 $-1 $324 0 $324 6.2831853071795862 $280 $325 forward @7 unknown #
color-adesk-attrib $-1 -1 $326 $-1 $282 250 #
vertex $-1 -1 $-1 $282 $327 #
ellipse-curve $-1 -1 $-1 -294.52868157957482 -675.10149975620379 20.000000000000011 2.2115603298505009e-15 1 -1.0106430996148606e-15 13.5 -2.9856064452981754e-14 7.1579231693100398e-15 1 I I #
DXID-attrib $-1 -1 $-1 $283 $266 @18 ASM_EDGE_FROM_STEP @4 6024 #
point $-1 -1 $-1 -281.9286815795748 -675.10149975620391 20.000000000000018 #
DXID-attrib $-1 -1 $-1 $286 $267 @18 ASM_EDGE_FROM_STEP @4 6023 #
point $-1 -1 $-1 -281.9286815795748 -676.40149975620386 20.000000000000018 #
loop $-1 -1 $-1 $328 $289 $317 #
color-adesk-attrib $-1 -1 $329 $-1 $290 250 #
vertex $-1 -1 $-1 $290 $330 #
ellipse-curve $-1 -1 $-1 -294.52868157957477 -655.30149975620384 19.999999999999989 2.2115603298505009e-15 1 -1.0106430996148606e-15 12.750943396226003 -2.8199480583262638e-14 6.7607609752894035e-15 1 I I #
DXID-attrib $-1 -1 $-1 $291 $253 @18 ASM_FACE_FROM_STEP @14 stp-1M-55-9908 #
DXID-attrib $-1 -1 $-1 $293 $259 @18 ASM_FACE_FROM_STEP @14 stp-1M-55-9904 #
color-adesk-attrib $-1 -1 $331 $294 $276 250 #
fmesh-eye-attrib $-1 -1 $332 $-1 $295 #
face $333 -1 $-1 $253 $309 $3 $-1 $334 reversed single #
loop $-1 -1 $-1 $335 $336 $295 #
cone-surface $-1 -1 $-1 -294.52868157957482 -683.10149975620379 20.000000000000018 2.2115603298505009e-15 1 -1.0106430996148606e-15 11.950000000000001 -2.6428145941713485e-14 6.3360875461670357e-15 1 I I 0 1 11.950000000000001 forward I I I I #
loop $-1 -1 $-1 $-1 $337 $276 #
coedge $-1 -1 $-1 $321 $321 $299 $322 forward $296 $-1 #
edge $338 -1 $-1 $339 0 $339 6.2831853071795862 $299 $340 forward @7 unknown #
color-adesk-attrib $-1 -1 $341 $-1 $301 250 #
vertex $-1 -1 $-1 $301 $342 #
ellipse-curve $-1 -1 $-1 -294.52868157957482 -674.80149975620384 20.000000000000011 2.2115603298505009e-15 1 -1.0106430996148606e-15 13.5 -2.9856064452981754e-14 7.1579231693100398e-15 1 I I #
DXID-attrib $-1 -1 $-1 $302 $282 @18 ASM_EDGE_FROM_STEP @4 6025 #
point $-1 -1 $-1 -281.02868157957482 -675.10149975620391 20.000000000000018 #
loop $-1 -1 $-1 $-1 $343 $317 #
DXID-attrib $-1 -1 $-1 $310 $290 @18 ASM_EDGE_FROM_STEP @4 6030 #
point $-1 -1 $-1 -281.77773818334879 -655.30149975620384 19.999999999999996 #
DXID-attrib $-1 -1 $-1 $315 $276 @18 ASM_FACE_FROM_STEP @14 stp-1M-55-9905 #
color-adesk-attrib $-1 -1 $344 $316 $295 250 #
fmesh-eye-attrib $-1 -1 $345 $-1 $317 #
plane-surface $-1 -1 $-1 -294.52868157957477 -655.30149975620384 8.0499999999999883 2.2115603298505009e-15 1 -1.0106430996148606e-15 1 -2.2115603298505005e-15 5.3021653106000295e-16 forward_v I I I I #
loop $-1 -1 $-1 $-1 $346 $295 #
coedge $-1 -1 $-1 $336 $336 $343 $347 reversed $318 $-1 #
coedge $-1 -1 $-1 $337 $337 $346 $348 reversed $320 $-1 #
color-adesk-attrib $-1 -1 $349 $-1 $322 250 #
vertex $-1 -1 $-1 $322 $350 #
ellipse-curve $-1 -1 $-1 -294.52868157957482 -674.60149975620379 20.000000000000011 2.2115603298505009e-15 1 -1.0106430996148606e-15 13.300000000000001 -2.9413752387011661e-14 7.0518798630980395e-15 1 I I #
DXID-attrib $-1 -1 $-1 $323 $301 @18 ASM_EDGE_FROM_STEP @4 6026 #
point $-1 -1 $-1 -281.02868157957482 -674.80149975620384 20.000000000000018 #
coedge $-1 -1 $-1 $343 $343 $336 $347 forward $328 $-1 #
DXID-attrib $-1 -1 $-1 $332 $295 @18 ASM_FACE_FROM_STEP @14 stp-1M-55-9906 #
color-adesk-attrib $-1 -1 $351 $333 $317 250 #
coedge $-1 -1 $-1 $346 $346 $337 $348 forward $335 $-1 #
edge $352 -1 $-1 $353 0 $353 6.2831853071795862 $336 $354 forward @7 unknown #
edge $355 -1 $-1 $356 0 $356 6.2831853071795862 $337 $357 forward @7 unknown #
DXID-attrib $-1 -1 $-1 $338 $322 @18 ASM_EDGE_FROM_STEP @4 6027 #
point $-1 -1 $-1 -281.22868157957481 -674.60149975620379 20.000000000000018 #
DXID-attrib $-1 -1 $-1 $345 $317 @18 ASM_FACE_FROM_STEP @14 stp-1M-55-9907 #
color-adesk-attrib $-1 -1 $358 $-1 $347 250 #
vertex $-1 -1 $-1 $347 $359 #
ellipse-curve $-1 -1 $-1 -294.52868157957477 -655.30149975620384 19.999999999999989 2.2115603298505009e-15 1 -1.0106430996148606e-15 11.950000000000001 -2.6428145941713485e-14 6.3360875461670357e-15 1 I I #
color-adesk-attrib $-1 -1 $360 $-1 $348 250 #
vertex $-1 -1 $-1 $348 $361 #
ellipse-curve $-1 -1 $-1 -294.52868157957482 -674.60149975620379 20.000000000000011 2.2115603298505009e-15 1 -1.0106430996148606e-15 11.950000000000001 -2.6428145941713485e-14 6.3360875461670357e-15 1 I I #
DXID-attrib $-1 -1 $-1 $352 $347 @18 ASM_EDGE_FROM_STEP @4 6029 #
point $-1 -1 $-1 -282.57868157957478 -655.30149975620384 19.999999999999996 #
DXID-attrib $-1 -1 $-1 $355 $348 @18 ASM_EDGE_FROM_STEP @4 6028 #
point $-1 -1 $-1 -282.57868157957478 -674.60149975620379 20.000000000000014 #
