700 346 1 0         
5 ZWCAD 12 ACIS 28.0 NT 24 Mon May 13 14:19:01 2024 
1 9.9999999999999995e-07 1e-10 
body $1 -1 $-1 $2 $-1 $-1 #
DXID-attrib $-1 -1 $-1 $-1 $0 @18 ASM_BODY_FROM_STEP @83 5989DD5A23A44E5E021DA0DA653B6C958DFB8E92|:|8CB3CBCEBE3339AC3139F7812237AD39DB573F35 #
lump $-1 -1 $-1 $-1 $3 $0 #
shell $-1 -1 $-1 $-1 $-1 $4 $-1 $2 #
face $5 -1 $-1 $6 $7 $3 $-1 $8 forward single #
color-adesk-attrib $-1 -1 $9 $-1 $4 250 #
face $10 -1 $-1 $11 $12 $3 $-1 $13 forward single #
loop $-1 -1 $-1 $-1 $14 $4 #
cone-surface $-1 -1 $-1 172.07465524109671 49.853714261072824 64.28000000000759 -2.3470622613763766e-14 -6.8709760550990381e-16 1.0000000000000002 11.144905326037826 -15.44971149483556 2.5096240719963929e-13 1 I I 0 1 19.050000000000004 forward I I I I #
fmesh-eye-attrib $-1 -1 $15 $5 $4 #
color-adesk-attrib $-1 -1 $16 $-1 $6 250 #
face $17 -1 $-1 $18 $19 $3 $-1 $20 forward single #
loop $-1 -1 $-1 $-1 $21 $6 #
cone-surface $-1 -1 $-1 172.07465524109671 49.853714261072824 64.28000000000759 -2.3470622613763766e-14 -6.8709760550990381e-16 1.0000000000000002 11.144905326037826 -15.44971149483556 2.5096240719963929e-13 1 I I 0 1 19.050000000000004 forward I I I I #
coedge $-1 -1 $-1 $22 $23 $24 $25 reversed $7 $-1 #
DXID-attrib $-1 -1 $-1 $9 $4 @18 ASM_FACE_FROM_STEP @16 stp-2M-185-26884 #
fmesh-eye-attrib $-1 -1 $26 $10 $6 #
color-adesk-attrib $-1 -1 $27 $-1 $11 250 #
face $28 -1 $-1 $29 $30 $3 $-1 $31 forward single #
loop $-1 -1 $-1 $32 $33 $11 #
plane-surface $-1 -1 $-1 177.0938625156391 29.985128998746688 4.5200000000076948 2.383715250730887e-14 1.7900042656088074e-16 -1.0000000000000002 -0.5850344003169462 0.81100847741918936 -1.3800383358974507e-14 forward_v I I I I #
coedge $-1 -1 $-1 $34 $35 $33 $36 reversed $12 $-1 #
coedge $-1 -1 $-1 $37 $14 $38 $39 reversed $7 $-1 #
coedge $-1 -1 $-1 $14 $37 $40 $41 forward $7 $-1 #
coedge $-1 -1 $-1 $42 $43 $14 $25 forward $30 $-1 #
edge $44 -1 $-1 $45 -5.8279423864837601e-17 $46 3.1415926535897931 $14 $47 forward @7 unknown #
DXID-attrib $-1 -1 $-1 $16 $6 @18 ASM_FACE_FROM_STEP @16 stp-2M-185-26885 #
fmesh-eye-attrib $-1 -1 $48 $17 $11 #
color-adesk-attrib $-1 -1 $49 $-1 $18 250 #
face $50 -1 $-1 $51 $52 $3 $-1 $53 reversed single #
loop $-1 -1 $-1 $54 $24 $18 #
plane-surface $-1 -1 $-1 202.1832014497144 95.062286423287986 59.520000000008331 2.354734103108042e-14 5.8075383447554192e-16 -1.0000000000000002 0.5850344003169462 -0.81100847741918936 1.3305008256123386e-14 forward_v I I I I #
loop $-1 -1 $-1 $-1 $55 $11 #
coedge $-1 -1 $-1 $56 $57 $21 $36 forward $19 $-1 #
coedge $-1 -1 $-1 $58 $21 $59 $60 reversed $12 $-1 #
coedge $-1 -1 $-1 $21 $58 $61 $62 forward $12 $-1 #
edge $63 -1 $-1 $64 -5.8279423864837638e-17 $65 3.1415926535897931 $21 $66 forward @7 unknown #
coedge $-1 -1 $-1 $23 $22 $67 $68 reversed $7 $-1 #
coedge $-1 -1 $-1 $69 $70 $22 $39 forward $71 $-1 #
edge $72 -1 $-1 $73 0 $45 0.47599999999999953 $22 $74 forward @7 unknown #
coedge $-1 -1 $-1 $75 $76 $23 $41 reversed $77 $-1 #
edge $78 -1 $-1 $79 0 $46 0.47599999999999953 $23 $80 forward @7 unknown #
coedge $-1 -1 $-1 $81 $24 $76 $82 reversed $30 $-1 #
coedge $-1 -1 $-1 $24 $81 $69 $83 forward $30 $-1 #
color-adesk-attrib $-1 -1 $84 $-1 $25 250 #
vertex $-1 -1 $-1 $25 $85 #
vertex $-1 -1 $-1 $25 $86 #
ellipse-curve $-1 -1 $-1 172.07465524109682 49.853714261072824 59.520000000007599 2.354734103108042e-14 5.8075383447554192e-16 -1.0000000000000002 11.144905326037826 -15.44971149483556 2.5346040727915056e-13 1 F -5.8279423864837601e-17 F 3.1415926535897931 #
DXID-attrib $-1 -1 $-1 $27 $11 @18 ASM_FACE_FROM_STEP @16 stp-2M-185-26886 #
fmesh-eye-attrib $-1 -1 $87 $28 $18 #
color-adesk-attrib $-1 -1 $88 $-1 $29 250 #
face $89 -1 $-1 $90 $91 $3 $-1 $92 reversed single #
loop $-1 -1 $-1 $93 $94 $29 #
cone-surface $-1 -1 $-1 172.07465524109671 49.853714261072824 64.28000000000759 -2.3469581909899775e-14 -6.8613859297962388e-16 1.0000000000000002 -4.6802752025370786 6.4880678193556065 -1.0539238850208766e-13 1 I I 0 1 8.0000000000025793 forward I I I I #
loop $-1 -1 $-1 $-1 $95 $18 #
coedge $-1 -1 $-1 $55 $55 $96 $97 forward $32 $-1 #
coedge $-1 -1 $-1 $98 $33 $99 $100 forward $19 $-1 #
coedge $-1 -1 $-1 $33 $98 $101 $102 reversed $19 $-1 #
coedge $-1 -1 $-1 $35 $34 $103 $104 reversed $12 $-1 #
coedge $-1 -1 $-1 $101 $105 $34 $60 forward $71 $-1 #
edge $106 -1 $-1 $107 5.5 $64 5.976 $34 $108 forward @7 unknown #
coedge $-1 -1 $-1 $109 $99 $35 $62 reversed $77 $-1 #
edge $110 -1 $-1 $111 5.5 $65 5.976 $35 $112 forward @7 unknown #
color-adesk-attrib $-1 -1 $113 $-1 $36 250 #
vertex $-1 -1 $-1 $36 $114 #
vertex $-1 -1 $-1 $36 $115 #
ellipse-curve $-1 -1 $-1 172.0746552410981 49.853714261072852 4.5200000000075846 2.383715250730887e-14 1.7900042656088084e-16 -1.0000000000000002 11.144905326037826 -15.44971149483556 2.6289730298846444e-13 1 F -5.8279423864837638e-17 F 3.1415926535897931 #
coedge $-1 -1 $-1 $116 $117 $37 $68 forward $118 $-1 #
edge $119 -1 $-1 $79 -3.1415926535897931 $73 5.8279423864837601e-17 $37 $120 forward @7 unknown #
coedge $-1 -1 $-1 $121 $38 $43 $83 reversed $71 $-1 #
coedge $-1 -1 $-1 $38 $122 $116 $123 forward $71 $-1 #
loop $-1 -1 $-1 $-1 $59 $124 #
color-adesk-attrib $-1 -1 $125 $-1 $39 250 #
vertex $-1 -1 $-1 $39 $126 #
straight-curve $-1 -1 $-1 183.21956056713452 34.404002766237262 64.280000000007846 2.3470622613763765e-13 6.8709760550990401e-15 -10.000000000000002 F 0 F 0.47599999999999953 #
coedge $-1 -1 $-1 $127 $40 $117 $128 forward $77 $-1 #
coedge $-1 -1 $-1 $40 $129 $42 $82 forward $77 $-1 #
loop $-1 -1 $-1 $-1 $61 $130 #
color-adesk-attrib $-1 -1 $131 $-1 $41 250 #
vertex $-1 -1 $-1 $68 $132 #
straight-curve $-1 -1 $-1 160.92974991505886 65.303425755908378 64.280000000007334 2.3470622613763765e-13 6.8709760550990401e-15 -10.000000000000002 F 0 F 0.47599999999999953 #
coedge $-1 -1 $-1 $43 $42 $133 $134 reversed $30 $-1 #
edge $135 -1 $-1 $136 0.036406780092735014 $46 5.0866856122063187 $42 $137 forward @7 unknown #
edge $138 -1 $-1 $139 -5.0675809151038571 $45 -0.017302082990269696 $43 $140 forward @7 unknown #
DXID-attrib $-1 -1 $-1 $44 $25 @18 ASM_EDGE_FROM_STEP @5 15432 #
point $-1 -1 $-1 183.21956056713464 34.404002766237262 59.520000000007855 #
point $-1 -1 $-1 160.92974991505898 65.303425755908378 59.520000000007343 #
DXID-attrib $-1 -1 $-1 $49 $18 @18 ASM_FACE_FROM_STEP @16 stp-2M-185-26887 #
fmesh-eye-attrib $-1 -1 $141 $50 $29 #
color-adesk-attrib $-1 -1 $142 $-1 $51 250 #
face $143 -1 $-1 $144 $118 $3 $-1 $145 forward single #
loop $-1 -1 $-1 $146 $147 $51 #
cone-surface $-1 -1 $-1 172.07465524109671 49.853714261072824 64.28000000000759 -2.3469581909899775e-14 -6.8613859297962388e-16 1.0000000000000002 -4.6802752025370786 6.4880678193556065 -1.0539238850208766e-13 1 I I 0 1 8.0000000000025793 forward I I I I #
loop $-1 -1 $-1 $-1 $148 $29 #
coedge $-1 -1 $-1 $94 $94 $95 $149 reversed $52 $-1 #
coedge $-1 -1 $-1 $95 $95 $94 $149 forward $54 $-1 #
coedge $-1 -1 $-1 $96 $96 $55 $97 reversed $146 $-1 #
edge $150 -1 $-1 $151 -3.1415926535897931 $151 3.1415926535897931 $55 $152 forward @7 unknown #
coedge $-1 -1 $-1 $57 $56 $153 $154 forward $19 $-1 #
coedge $-1 -1 $-1 $61 $155 $56 $100 reversed $77 $-1 #
edge $156 -1 $-1 $65 0.75531862145142981 $157 5.8776239312253971 $56 $158 forward @7 unknown #
coedge $-1 -1 $-1 $159 $59 $57 $102 forward $71 $-1 #
edge $160 -1 $-1 $64 0.75531862145142981 $161 5.8776239312253971 $57 $162 forward @7 unknown #
coedge $-1 -1 $-1 $163 $164 $58 $104 forward $165 $-1 #
edge $166 -1 $-1 $111 -3.1415926535897931 $107 5.827942386483765e-17 $58 $167 forward @7 unknown #
coedge $-1 -1 $-1 $59 $121 $163 $168 reversed $71 $-1 #
color-adesk-attrib $-1 -1 $169 $-1 $60 250 #
vertex $-1 -1 $-1 $60 $170 #
straight-curve $-1 -1 $-1 183.21956056713452 34.404002766237262 64.280000000007846 2.3470622613763765e-13 6.8709760550990401e-15 -10.000000000000002 F 5.5 F 5.976 #
coedge $-1 -1 $-1 $129 $61 $164 $171 forward $77 $-1 #
color-adesk-attrib $-1 -1 $172 $-1 $62 250 #
vertex $-1 -1 $-1 $104 $173 #
straight-curve $-1 -1 $-1 160.92974991505886 65.303425755908378 64.280000000007334 2.3470622613763765e-13 6.8709760550990401e-15 -10.000000000000002 F 5.5 F 5.976 #
DXID-attrib $-1 -1 $-1 $63 $36 @18 ASM_EDGE_FROM_STEP @5 15436 #
point $-1 -1 $-1 183.21956056713594 34.404002766237284 4.5200000000078404 #
point $-1 -1 $-1 160.92974991506028 65.303425755908407 4.5200000000073288 #
coedge $-1 -1 $-1 $174 $67 $70 $123 reversed $118 $-1 #
coedge $-1 -1 $-1 $67 $174 $75 $128 reversed $118 $-1 #
loop $-1 -1 $-1 $175 $67 $90 #
color-adesk-attrib $-1 -1 $176 $-1 $68 250 #
ellipse-curve $-1 -1 $-1 172.07465524109671 49.853714261072824 64.28000000000759 -2.347062622854936e-14 -6.8710032480589269e-16 1.0000000000000002 11.144905326037826 -15.44971149483556 2.5096240547374401e-13 1 F -3.1415926535897931 F 5.8279423864837601e-17 #
coedge $-1 -1 $-1 $105 $69 $177 $178 reversed $71 $-1 #
coedge $-1 -1 $-1 $70 $179 $180 $181 forward $71 $-1 #
edge $182 -1 $-1 $183 -5.1396073927642361 $73 -0.017302082990269696 $116 $184 forward @7 unknown #
face $185 -1 $-1 $186 $71 $3 $-1 $187 forward single #
DXID-attrib $-1 -1 $-1 $72 $39 @18 ASM_EDGE_FROM_STEP @5 15433 #
point $-1 -1 $-1 183.21956056713452 34.404002766237262 64.280000000007846 #
coedge $-1 -1 $-1 $188 $75 $189 $190 reversed $77 $-1 #
edge $191 -1 $-1 $79 -5.0866856122063187 $192 0.035619697567649045 $117 $193 forward @7 unknown #
coedge $-1 -1 $-1 $76 $109 $194 $195 forward $77 $-1 #
face $196 -1 $-1 $-1 $77 $3 $-1 $197 forward single #
DXID-attrib $-1 -1 $-1 $78 $41 @18 ASM_EDGE_FROM_STEP @5 15435 #
point $-1 -1 $-1 160.92974991505886 65.303425755908378 64.280000000007334 #
coedge $-1 -1 $-1 $194 $177 $81 $134 forward $198 $-1 #
edge $199 -1 $-1 $139 -1.9050000000000005 $136 1.905 $81 $200 forward @7 unknown #
color-adesk-attrib $-1 -1 $201 $-1 $82 250 #
vertex $-1 -1 $-1 $82 $202 #
straight-curve $-1 -1 $-1 202.1832014497144 95.062286423287986 59.520000000008331 -8.1100847741918916 -5.8503440031694609 -1.9457359601674832e-13 F 0.036406780092735014 F 5.0866856122063187 #
color-adesk-attrib $-1 -1 $203 $-1 $83 250 #
vertex $-1 -1 $-1 $134 $204 #
straight-curve $-1 -1 $-1 183.07923920731346 34.302779628772797 59.520000000007855 -8.1100847741918916 -5.8503440031694609 -1.9360837583436093e-13 F -5.0675809151038571 F -0.017302082990269696 #
DXID-attrib $-1 -1 $-1 $88 $29 @18 ASM_FACE_FROM_STEP @16 stp-2M-185-26888 #
fmesh-eye-attrib $-1 -1 $205 $89 $51 #
color-adesk-attrib $-1 -1 $206 $-1 $90 250 #
face $207 -1 $-1 $124 $165 $3 $-1 $208 forward single #
plane-surface $-1 -1 $-1 224.47301210178995 64.162863433616877 64.28000000000884 -2.347062622854936e-14 -6.8710032480589289e-16 1.0000000000000002 -0.5850344003169462 0.81100847741918936 -1.3173879552427503e-14 forward_v I I I I #
loop $-1 -1 $-1 $-1 $96 $51 #
coedge $-1 -1 $-1 $147 $147 $209 $210 reversed $91 $-1 #
coedge $-1 -1 $-1 $148 $148 $211 $212 reversed $93 $-1 #
edge $213 -1 $-1 $214 -3.1415926535897931 $214 3.1415926535897931 $95 $215 forward @7 unknown #
color-adesk-attrib $-1 -1 $216 $-1 $97 250 #
vertex $-1 -1 $-1 $97 $217 #
ellipse-curve $-1 -1 $-1 172.0746552410981 49.853714261072852 4.5200000000075846 -2.383715250730887e-14 -1.7900042656088074e-16 1.0000000000000002 -4.6802752025370786 6.4880678193556065 -1.1040306687183163e-13 1 I I #
coedge $-1 -1 $-1 $218 $219 $98 $154 reversed $220 $-1 #
edge $221 -1 $-1 $157 -0.95250000000000012 $161 2.8575000000000004 $98 $222 forward @7 unknown #
coedge $-1 -1 $-1 $99 $188 $218 $223 forward $77 $-1 #
color-adesk-attrib $-1 -1 $224 $-1 $100 250 #
vertex $-1 -1 $-1 $100 $225 #
straight-curve $-1 -1 $-1 154.80405186356342 60.884551988417805 4.5200000000071832 8.1100847741918916 5.8503440031694609 1.9436854168171094e-13 F 0.75531862145142981 F 5.8776239312253971 #
coedge $-1 -1 $-1 $179 $101 $219 $226 reversed $71 $-1 #
color-adesk-attrib $-1 -1 $227 $-1 $102 250 #
vertex $-1 -1 $-1 $154 $228 #
straight-curve $-1 -1 $-1 177.0938625156391 29.985128998746688 4.5200000000076948 8.1100847741918916 5.8503440031694609 1.9436854168171094e-13 F 0.75531862145142981 F 5.8776239312253971 #
coedge $-1 -1 $-1 $229 $103 $105 $168 forward $165 $-1 #
coedge $-1 -1 $-1 $103 $229 $109 $171 reversed $165 $-1 #
loop $-1 -1 $-1 $230 $103 $144 #
color-adesk-attrib $-1 -1 $231 $-1 $104 250 #
ellipse-curve $-1 -1 $-1 172.07465524109799 49.853714261072852 9.2800000000075791 -2.376043770477781e-14 -2.8534691689123171e-16 1.0000000000000002 11.144905326037826 -15.44971149483556 2.6039930118305784e-13 1 F -3.1415926535897931 F 5.827942386483765e-17 #
edge $232 -1 $-1 $107 0.75531862145142981 $233 5.8055974535650137 $163 $234 forward @7 unknown #
DXID-attrib $-1 -1 $-1 $106 $60 @18 ASM_EDGE_FROM_STEP @5 15437 #
point $-1 -1 $-1 183.21956056713583 34.404002766237284 9.2800000000078349 #
edge $235 -1 $-1 $111 0.75531862145142981 $236 5.8055974535650137 $164 $237 forward @7 unknown #
DXID-attrib $-1 -1 $-1 $110 $62 @18 ASM_EDGE_FROM_STEP @5 15439 #
point $-1 -1 $-1 160.92974991506017 65.303425755908407 9.2800000000073233 #
coedge $-1 -1 $-1 $117 $116 $238 $239 reversed $118 $-1 #
loop $-1 -1 $-1 $-1 $211 $90 #
DXID-attrib $-1 -1 $-1 $119 $68 @18 ASM_EDGE_FROM_STEP @5 15434 #
coedge $-1 -1 $-1 $133 $240 $121 $178 forward $198 $-1 #
edge $241 -1 $-1 $233 0.013217550713150049 $139 2.5341353001828226 $121 $242 forward @7 unknown #
coedge $-1 -1 $-1 $122 $159 $243 $244 forward $71 $-1 #
coedge $-1 -1 $-1 $245 $238 $122 $181 reversed $246 $-1 #
edge $247 -1 $-1 $248 0 $183 0.035619697567649211 $122 $249 forward @7 unknown #
color-adesk-attrib $-1 -1 $250 $-1 $123 250 #
vertex $-1 -1 $-1 $123 $251 #
straight-curve $-1 -1 $-1 183.07923920731335 34.302779628772797 64.280000000007846 -8.1100847741918916 -5.8503440031694609 -1.9360837583436093e-13 F -5.1396073927642361 F -0.017302082990269696 #
color-adesk-attrib $-1 -1 $252 $-1 $124 250 #
face $253 -1 $-1 $254 $246 $3 $-1 $255 reversed single #
plane-surface $-1 -1 $-1 177.09386251563899 29.985128998746688 9.2800000000076892 0.5850344003169462 -0.81100847741918936 1.3953611718148549e-14 2.3865146273885268e-14 1.0258611225117499e-17 -1.0000000000000002 forward_v I I I I #
coedge $-1 -1 $-1 $155 $127 $256 $257 reversed $77 $-1 #
coedge $-1 -1 $-1 $238 $245 $127 $190 forward $246 $-1 #
edge $258 -1 $-1 $259 0 $192 0.035619697567648261 $189 $260 forward @7 unknown #
color-adesk-attrib $-1 -1 $261 $-1 $128 250 #
vertex $-1 -1 $-1 $239 $262 #
straight-curve $-1 -1 $-1 202.18320144971429 95.062286423287986 64.280000000008329 8.1100847741918916 5.8503440031694609 1.9360837583436093e-13 F -5.0866856122063187 F 0.035619697567649045 #
coedge $-1 -1 $-1 $240 $133 $129 $195 reversed $198 $-1 #
edge $263 -1 $-1 $236 0.013217550713150434 $136 2.534135300182824 $194 $264 forward @7 unknown #
color-adesk-attrib $-1 -1 $265 $-1 $130 250 #
plane-surface $-1 -1 $-1 154.80405186356342 60.884551988417805 4.5200000000071832 -0.5850344003169462 0.81100847741918936 -1.3487131455701005e-14 -2.3592239273284576e-14 -3.8857805861880479e-16 1.0000000000000002 forward_v I I I I #
loop $-1 -1 $-1 $-1 $133 $254 #
color-adesk-attrib $-1 -1 $266 $-1 $134 250 #
straight-curve $-1 -1 $-1 213.03284470284481 79.399582740862215 59.520000000008579 -5.8503440031694618 8.1100847741918933 -1.3487131455701005e-13 F -1.9050000000000005 F 1.905 #
DXID-attrib $-1 -1 $-1 $135 $82 @18 ASM_EDGE_FROM_STEP @5 15444 #
point $-1 -1 $-1 201.88793937680697 94.849294235697755 59.520000000008324 #
DXID-attrib $-1 -1 $-1 $138 $83 @18 ASM_EDGE_FROM_STEP @5 15446 #
point $-1 -1 $-1 224.17775002888266 63.94987124602666 59.520000000008835 #
DXID-attrib $-1 -1 $-1 $142 $51 @18 ASM_FACE_FROM_STEP @16 stp-2M-185-26889 #
fmesh-eye-attrib $-1 -1 $267 $143 $90 #
color-adesk-attrib $-1 -1 $268 $-1 $144 250 #
plane-surface $-1 -1 $-1 154.8040518635633 60.884551988417805 9.2800000000071776 -2.376043770477781e-14 -2.8534691689123166e-16 1.0000000000000002 0.5850344003169462 -0.81100847741918936 1.3669254655278623e-14 forward_v I I I I #
coedge $-1 -1 $-1 $209 $209 $147 $210 forward $230 $-1 #
edge $269 -1 $-1 $270 -3.1415926535897931 $270 3.1415926535897931 $147 $271 forward @7 unknown #
coedge $-1 -1 $-1 $211 $211 $148 $212 forward $175 $-1 #
edge $272 -1 $-1 $273 -3.1415926535897931 $273 3.1415926535897931 $148 $274 forward @7 unknown #
color-adesk-attrib $-1 -1 $275 $-1 $149 250 #
vertex $-1 -1 $-1 $149 $276 #
ellipse-curve $-1 -1 $-1 172.07465524109682 49.853714261072824 59.520000000007599 -2.354734103108042e-14 -5.8075383447554192e-16 1.0000000000000002 -4.6802752025370786 6.4880678193556065 -1.0644006604902141e-13 1 I I #
DXID-attrib $-1 -1 $-1 $150 $97 @18 ASM_EDGE_FROM_STEP @5 15443 #
point $-1 -1 $-1 176.75493044363517 43.365646441717246 4.5200000000076912 #
coedge $-1 -1 $-1 $277 $153 $155 $223 reversed $220 $-1 #
coedge $-1 -1 $-1 $153 $277 $159 $226 forward $220 $-1 #
loop $-1 -1 $-1 $-1 $153 $278 #
color-adesk-attrib $-1 -1 $279 $-1 $154 250 #
straight-curve $-1 -1 $-1 208.04453287963932 87.545818159929837 4.5200000000084479 5.8503440031694618 -8.1100847741918933 1.3800383358974507e-13 F -0.95250000000000012 F 2.8575000000000004 #
edge $280 -1 $-1 $281 0 $157 0.035619697567648261 $218 $282 forward @7 unknown #
DXID-attrib $-1 -1 $-1 $156 $100 @18 ASM_EDGE_FROM_STEP @5 15440 #
point $-1 -1 $-1 202.47208021662041 95.270673907347629 4.52000000000832 #
edge $283 -1 $-1 $284 0 $161 0.035619697567648261 $159 $285 forward @7 unknown #
DXID-attrib $-1 -1 $-1 $160 $102 @18 ASM_EDGE_FROM_STEP @5 15442 #
point $-1 -1 $-1 224.76189086869607 64.371250917676505 4.5200000000088316 #
coedge $-1 -1 $-1 $164 $163 $240 $286 forward $165 $-1 #
loop $-1 -1 $-1 $-1 $209 $144 #
DXID-attrib $-1 -1 $-1 $166 $104 @18 ASM_EDGE_FROM_STEP @5 15438 #
color-adesk-attrib $-1 -1 $287 $-1 $168 250 #
vertex $-1 -1 $-1 $168 $288 #
straight-curve $-1 -1 $-1 177.09386251563899 29.985128998746688 9.2800000000076892 8.1100847741918916 5.8503440031694609 1.9436854168171094e-13 F 0.75531862145142981 F 5.8055974535650137 #
color-adesk-attrib $-1 -1 $289 $-1 $171 250 #
vertex $-1 -1 $-1 $286 $290 #
straight-curve $-1 -1 $-1 154.8040518635633 60.884551988417805 9.2800000000071776 8.1100847741918916 5.8503440031694609 1.9436854168171094e-13 F 0.75531862145142981 F 5.8055974535650137 #
coedge $-1 -1 $-1 $180 $189 $174 $239 forward $246 $-1 #
edge $291 -1 $-1 $192 -0.95250000000000012 $183 2.8575000000000004 $174 $292 forward @7 unknown #
coedge $-1 -1 $-1 $177 $194 $229 $286 reversed $198 $-1 #
color-adesk-attrib $-1 -1 $293 $-1 $178 250 #
ellipse-curve $-1 -1 $-1 217.64428638659783 59.236849014593979 34.400000000008667 0.58503440031694598 -0.81100847741918947 1.3487131455701e-14 6.2636257936589095 4.5183702292036605 -25.224282905722035 1 F 0.013217550713150049 F 2.5341353001828226 #
coedge $-1 -1 $-1 $294 $295 $179 $244 reversed $296 $-1 #
edge $297 -1 $-1 $284 3.205726236652733e-16 $248 2.5473528508959737 $179 $298 forward @7 unknown #
coedge $-1 -1 $-1 $189 $180 $295 $299 forward $246 $-1 #
loop $-1 -1 $-1 $-1 $238 $186 #
color-adesk-attrib $-1 -1 $300 $-1 $181 250 #
vertex $-1 -1 $-1 $244 $301 #
straight-curve $-1 -1 $-1 225.03811202332446 64.570507623436129 64.175717094286654 -7.7547304859961983 -5.5940033005960066 2.9276752146510554 F 0 F 0.035619697567649211 #
DXID-attrib $-1 -1 $-1 $182 $123 @18 ASM_EDGE_FROM_STEP @5 15450 #
point $-1 -1 $-1 224.76189086869465 64.371250917676477 64.28000000000884 #
fmesh-eye-attrib $-1 -1 $302 $185 $124 #
color-adesk-attrib $-1 -1 $303 $-1 $186 250 #
face $304 -1 $-1 $278 $198 $3 $-1 $305 reversed single #
plane-surface $-1 -1 $-1 202.7483013712488 95.469930613107252 64.175717094286142 -0.23743694182119773 -0.17127907135262693 -0.95618365305791519 0.58503440031694609 -0.81100847741918947 1.3206881042890277e-14 forward_v I I I I #
coedge $-1 -1 $-1 $295 $294 $188 $257 forward $296 $-1 #
edge $306 -1 $-1 $281 2.2898044547519526e-16 $259 2.5473528508959737 $256 $307 forward @7 unknown #
color-adesk-attrib $-1 -1 $308 $-1 $190 250 #
vertex $-1 -1 $-1 $299 $309 #
straight-curve $-1 -1 $-1 202.7483013712488 95.469930613107252 64.175717094286142 -7.7547304859961983 -5.5940033005960066 2.9276752146510554 F 0 F 0.035619697567648261 #
DXID-attrib $-1 -1 $-1 $191 $128 @18 ASM_EDGE_FROM_STEP @5 15452 #
point $-1 -1 $-1 202.47208021661899 95.2706739073476 64.280000000008329 #
color-adesk-attrib $-1 -1 $310 $-1 $195 250 #
ellipse-curve $-1 -1 $-1 195.35447573452217 90.136272004265095 34.400000000008149 0.58503440031694642 -0.81100847741918924 1.3487131455701009e-14 6.2636257936589077 4.518370229203664 -25.224282905722035 1 F 0.013217550713150434 F 2.534135300182824 #
fmesh-eye-attrib $-1 -1 $311 $196 $130 #
DXID-attrib $-1 -1 $-1 $199 $134 @18 ASM_EDGE_FROM_STEP @5 15445 #
DXID-attrib $-1 -1 $-1 $206 $90 @18 ASM_FACE_FROM_STEP @16 stp-2M-185-26890 #
fmesh-eye-attrib $-1 -1 $312 $207 $144 #
color-adesk-attrib $-1 -1 $313 $-1 $210 250 #
vertex $-1 -1 $-1 $210 $314 #
ellipse-curve $-1 -1 $-1 172.07465524109799 49.853714261072852 9.2800000000075791 2.376043770477781e-14 2.8534691689123166e-16 -1.0000000000000002 -4.6802752025370786 6.4880678193556065 -1.0935403724226423e-13 1 I I #
color-adesk-attrib $-1 -1 $315 $-1 $212 250 #
vertex $-1 -1 $-1 $212 $316 #
ellipse-curve $-1 -1 $-1 172.07465524109671 49.853714261072824 64.28000000000759 2.347062622854936e-14 6.8710032480589289e-16 -1.0000000000000002 -4.6802752025370786 6.4880678193556065 -1.0539103641945399e-13 1 I I #
DXID-attrib $-1 -1 $-1 $213 $149 @18 ASM_EDGE_FROM_STEP @5 15447 #
point $-1 -1 $-1 176.7549304436339 43.365646441717217 59.520000000007713 #
coedge $-1 -1 $-1 $219 $218 $294 $317 reversed $220 $-1 #
face $318 -1 $-1 $319 $220 $3 $-1 $320 forward single #
DXID-attrib $-1 -1 $-1 $221 $154 @18 ASM_EDGE_FROM_STEP @5 15441 #
color-adesk-attrib $-1 -1 $321 $-1 $223 250 #
vertex $-1 -1 $-1 $223 $322 #
straight-curve $-1 -1 $-1 202.74830137125022 95.469930613107266 4.6242829057305279 -7.7547304859960589 -5.5940033005960048 -2.9276752146514258 F 0 F 0.035619697567648261 #
color-adesk-attrib $-1 -1 $323 $-1 $226 250 #
vertex $-1 -1 $-1 $226 $324 #
straight-curve $-1 -1 $-1 225.03811202332585 64.570507623436157 4.6242829057310395 -7.7547304859960589 -5.5940033005960048 -2.9276752146514258 F 0 F 0.035619697567648261 #
edge $325 -1 $-1 $233 -1.9050000000000005 $236 1.905 $229 $326 forward @7 unknown #
DXID-attrib $-1 -1 $-1 $232 $168 @18 ASM_EDGE_FROM_STEP @5 15453 #
point $-1 -1 $-1 224.17775002888382 63.94987124602666 9.2800000000088119 #
DXID-attrib $-1 -1 $-1 $235 $171 @18 ASM_EDGE_FROM_STEP @5 15455 #
point $-1 -1 $-1 201.88793937680816 94.849294235697784 9.2800000000083003 #
color-adesk-attrib $-1 -1 $327 $-1 $239 250 #
straight-curve $-1 -1 $-1 208.04453287963793 87.545818159929823 64.280000000008457 5.8503440031694618 -8.1100847741918933 1.3173879552427501e-13 F -0.95250000000000012 F 2.8575000000000004 #
DXID-attrib $-1 -1 $-1 $241 $178 @18 ASM_EDGE_FROM_STEP @5 15459 #
coedge $-1 -1 $-1 $256 $243 $277 $317 forward $296 $-1 #
coedge $-1 -1 $-1 $243 $256 $245 $299 reversed $296 $-1 #
loop $-1 -1 $-1 $-1 $294 $319 #
color-adesk-attrib $-1 -1 $328 $-1 $244 250 #
ellipse-curve $-1 -1 $-1 217.64428638659783 59.236849014593979 34.400000000008667 0.58503440031694609 -0.81100847741918947 1.3487131455701002e-14 7.3938256367280246 5.3336586088421702 -29.775717094277656 1 F 3.205726236652733e-16 F 2.5473528508959737 #
edge $329 -1 $-1 $248 1.0181853506498584e-31 $259 3.8100000000000005 $245 $330 forward @7 unknown #
DXID-attrib $-1 -1 $-1 $247 $181 @18 ASM_EDGE_FROM_STEP @5 15458 #
point $-1 -1 $-1 225.03811202332446 64.570507623436129 64.175717094286654 #
DXID-attrib $-1 -1 $-1 $252 $124 @18 ASM_FACE_FROM_STEP @16 stp-2M-185-26892 #
fmesh-eye-attrib $-1 -1 $331 $253 $186 #
color-adesk-attrib $-1 -1 $332 $-1 $254 250 #
cone-surface $-1 -1 $-1 206.49938106056001 74.68656050942954 34.400000000008411 0.5850344003169462 -0.81100847741918936 1.3487131455701005e-14 6.2636257936589086 4.5183702292036623 -25.224282905722035 1 I I 0 1 26.380165384603703 forward I I I I #
color-adesk-attrib $-1 -1 $333 $-1 $257 250 #
ellipse-curve $-1 -1 $-1 195.3544757345222 90.136272004265095 34.400000000008156 0.58503440031694631 -0.81100847741918924 1.3487131455701008e-14 7.3938256367280228 5.3336586088421738 -29.775717094277656 1 F 2.2898044547519526e-16 F 2.5473528508959737 #
DXID-attrib $-1 -1 $-1 $258 $190 @18 ASM_EDGE_FROM_STEP @5 15461 #
point $-1 -1 $-1 202.7483013712488 95.469930613107252 64.175717094286142 #
DXID-attrib $-1 -1 $-1 $263 $195 @18 ASM_EDGE_FROM_STEP @5 15462 #
DXID-attrib $-1 -1 $-1 $265 $130 @18 ASM_FACE_FROM_STEP @16 stp-2M-185-26897 #
DXID-attrib $-1 -1 $-1 $268 $144 @18 ASM_FACE_FROM_STEP @16 stp-2M-185-26891 #
DXID-attrib $-1 -1 $-1 $269 $210 @18 ASM_EDGE_FROM_STEP @5 15449 #
point $-1 -1 $-1 176.75493044363506 43.365646441717246 9.2800000000076857 #
DXID-attrib $-1 -1 $-1 $272 $212 @18 ASM_EDGE_FROM_STEP @5 15448 #
point $-1 -1 $-1 176.75493044363378 43.365646441717217 64.280000000007703 #
edge $334 -1 $-1 $284 0 $281 3.8100000000000005 $277 $335 forward @7 unknown #
color-adesk-attrib $-1 -1 $336 $-1 $278 250 #
face $337 -1 $-1 $130 $296 $3 $-1 $338 forward single #
plane-surface $-1 -1 $-1 202.74830137125022 95.46993061310728 4.6242829057305279 0.23743694182124286 0.17127907135262765 -0.95618365305790387 0.58503440031694609 -0.81100847741918947 1.3767381868511726e-14 forward_v I I I I #
DXID-attrib $-1 -1 $-1 $280 $223 @18 ASM_EDGE_FROM_STEP @5 15463 #
point $-1 -1 $-1 202.74830137125022 95.469930613107266 4.6242829057305279 #
DXID-attrib $-1 -1 $-1 $283 $226 @18 ASM_EDGE_FROM_STEP @5 15456 #
point $-1 -1 $-1 225.03811202332585 64.570507623436157 4.6242829057310395 #
color-adesk-attrib $-1 -1 $339 $-1 $286 250 #
straight-curve $-1 -1 $-1 213.03284470284601 79.399582740862243 9.2800000000085561 -5.8503440031694618 8.1100847741918933 -1.3487131455701005e-13 F -1.9050000000000005 F 1.905 #
DXID-attrib $-1 -1 $-1 $291 $239 @18 ASM_EDGE_FROM_STEP @5 15451 #
DXID-attrib $-1 -1 $-1 $297 $244 @18 ASM_EDGE_FROM_STEP @5 15457 #
color-adesk-attrib $-1 -1 $340 $-1 $299 250 #
straight-curve $-1 -1 $-1 225.03811202332446 64.570507623436129 64.175717094286654 -5.8503440031694609 8.1100847741918933 -1.3187605106501605e-13 F 1.0181853506498584e-31 F 3.8100000000000005 #
DXID-attrib $-1 -1 $-1 $303 $186 @18 ASM_FACE_FROM_STEP @16 stp-2M-185-26893 #
fmesh-eye-attrib $-1 -1 $341 $304 $254 #
DXID-attrib $-1 -1 $-1 $306 $257 @18 ASM_EDGE_FROM_STEP @5 15465 #
color-adesk-attrib $-1 -1 $342 $-1 $317 250 #
straight-curve $-1 -1 $-1 225.03811202332585 64.570507623436157 4.6242829057310395 -5.8503440031694609 8.1100847741918933 -1.3786657804900403e-13 F 0 F 3.8100000000000005 #
fmesh-eye-attrib $-1 -1 $343 $318 $278 #
color-adesk-attrib $-1 -1 $344 $-1 $319 250 #
cone-surface $-1 -1 $-1 206.49938106056001 74.68656050942954 34.400000000008411 0.5850344003169462 -0.81100847741918936 1.3487131455701005e-14 7.3938256367280237 5.333658608842172 -29.775717094277656 1 I I 0 1 31.140165384603709 forward I I I I #
DXID-attrib $-1 -1 $-1 $325 $286 @18 ASM_EDGE_FROM_STEP @5 15454 #
DXID-attrib $-1 -1 $-1 $329 $299 @18 ASM_EDGE_FROM_STEP @5 15460 #
DXID-attrib $-1 -1 $-1 $332 $254 @18 ASM_FACE_FROM_STEP @16 stp-2M-185-26894 #
DXID-attrib $-1 -1 $-1 $334 $317 @18 ASM_EDGE_FROM_STEP @5 15464 #
DXID-attrib $-1 -1 $-1 $336 $278 @18 ASM_FACE_FROM_STEP @16 stp-2M-185-26895 #
fmesh-eye-attrib $-1 -1 $345 $337 $319 #
DXID-attrib $-1 -1 $-1 $344 $319 @18 ASM_FACE_FROM_STEP @16 stp-2M-185-26896 #
