700 212 1 0         
5 ZWCAD 12 ACIS 28.0 NT 24 Sat May 11 16:08:40 2024 
1 9.9999999999999995e-07 1e-10 
body $1 -1 $-1 $2 $-1 $-1 #
DXID-attrib $-1 -1 $-1 $-1 $0 @18 ASM_BODY_FROM_STEP @83 8BC2A5B3642F0B08479314F8BB8DAC43B33BB7BC|:|E48871FBB50E05F143736C8DB4A07EC86DF0E275 #
lump $-1 -1 $-1 $-1 $3 $0 #
shell $-1 -1 $-1 $-1 $-1 $4 $-1 $2 #
face $5 -1 $-1 $6 $7 $3 $-1 $8 forward single #
color-adesk-attrib $-1 -1 $9 $-1 $4 7 #
face $10 -1 $-1 $11 $12 $3 $-1 $13 reversed single #
loop $-1 -1 $-1 $-1 $14 $4 #
spline-surface $-1 -1 $-1 forward { exactsur full nubs 3 3 open periodic none none 3 12 
	0 3 0.5 1 1 3 
	-5.6648511808557902e-18 3 0.13154301797828699 1 0.19731452696742999 1 0.26308603595657398 1 0.32885754494571701 1 
	0.39462905393485997 1 0.52617207191314697 1 0.65771508989143401 1 0.73992947612786297 1 0.78925810786972095 1 
	0.85502961685886403 1 0.920801125848007 3 
	79.464038159467691 -289.62065139489312 1150.7607809277981 
	79.463866609777568 -289.64640921518185 1150.7651056318539 
	79.442858365254153 -289.69846074447815 1150.7680979689471 
	79.392678874452187 -289.72207272160131 1150.7583487777486 
	79.36750957239866 -289.72311882404114 1150.7515052209114 
	79.336378343962963 -289.54325365679392 1151.226113395114 
	79.33815973705596 -289.57145860562002 1151.2235767123282 
	79.318894481785122 -289.62841752948674 1151.2120719287157 
	79.266480260658838 -289.65159628792776 1151.1944947437519 
	79.240156332060621 -289.65073269839246 1151.1867067561857 
	79.130789626388406 -289.75036876956688 1151.971423301846 
	79.136198799237405 -289.77779381584509 1151.9561221809679 
	79.120394057125225 -289.83301176857213 1151.9177155023676 
	79.06363476589776 -289.8495483086898 1151.8900220617109 
	79.035061335984182 -289.84443681617557 1151.8837567977091 
	78.968955744851513 -290.55505216596868 1152.5543979056811 
	78.978017361117452 -290.56826400659691 1152.526335083212 
	78.965962056335016 -290.59480600215647 1152.4613585173238 
	78.904608500233991 -290.60073579688878 1152.4297340997837 
	78.873616098665636 -290.59701583036667 1152.4289829756251 
	78.932480015138538 -291.29572509959024 1152.6856583508563 
	78.942442126510969 -291.29378866305547 1152.6545242921329 
	78.931276271852596 -291.2899080089793 1152.5832096891763 
	78.868819157121976 -291.28911729539044 1152.5509406993117 
	78.837227965451774 -291.28972914931353 1152.5517441222748 
	78.991636722725815 -292.01660821010682 1152.4727774628304 
	79.00015528309558 -292.00024350718996 1152.4465893877098 
	78.987550140084807 -291.96735348687429 1152.3854994051972 
	78.926873404557952 -291.95958257390095 1152.3543091946258 
	78.896242608150288 -291.96393406404832 1152.3526475712995 
	79.175654758229896 -292.74673376773575 1151.8093323380351 
	79.180153613340551 -292.71823291644995 1151.7971738953358 
	79.163482813625052 -292.66081684629205 1151.765337754661 
	79.10781310901848 -292.64230764620538 1151.7393689585863 
	79.079818724169485 -292.64678296443958 1151.7321614518878 
	79.525958460841352 -292.96272459113368 1150.5373723266625 
	79.524632367605008 -292.93532204594135 1150.5458287548711 
	79.502448747606408 -292.87990263915628 1150.557550291087 
	79.453714916427913 -292.85193716788893 1150.550416773516 
	79.429281172110493 -292.84878807809542 1150.542562641064 
	79.811734381821495 -292.06135481192212 1149.4879605862302 
	79.806821715424491 -292.04917769557017 1149.5089824686509 
	79.781789835792537 -292.02457352848006 1149.5473111203939 
	79.736849026798666 -292.00943076584048 1149.5616889945804 
	79.71437080194832 -292.00578326043183 1149.561101787483 
	79.843042440217033 -291.04172996253641 1149.3725938677085 
	79.837766598182597 -291.04398965433069 1149.3949641662946 
	79.812397887529443 -291.04857150065499 1149.4361435306932 
	79.767878248648287 -291.05142747227819 1149.4528617834053 
	79.745603674012258 -291.05218055478798 1149.4532052263214 
	79.775246273676373 -290.34433437205251 1149.6220202702841 
	79.770795403322694 -290.3568861890742 1149.6414776994886 
	79.746090104615377 -290.3822431986776 1149.6764940952505 
	79.700693031174382 -290.3969663886536 1149.6880447326776 
	79.677970320029146 -290.39994231011383 1149.6864809183551 
	79.650828217952295 -289.84448524201588 1150.0785526287439 
	79.647960042614585 -289.86508883771393 1150.0923452937852 
	79.62461932397224 -289.90674525415614 1150.115364573961 
	79.577460937118502 -289.92900959586916 1150.1178992850619 
	79.553851054382605 -289.93245911459945 1150.1134521642043 
	79.527868067220055 -289.65935026394277 1150.5281146941402 
	79.526720046138365 -289.68388451996276 1150.5358700916167 
	79.504840306988669 -289.73348235197386 1150.546110989063 
	79.455778181348848 -289.75731093843814 1150.540275794747 
	79.431186192567679 -289.75931188686542 1150.5339044532743 
	79.464038159467691 -289.62065139489312 1150.7607809277981 
	79.463866609777568 -289.64640921518185 1150.7651056318539 
	79.442858365254153 -289.69846074447815 1150.7680979689471 
	79.392678874452187 -289.72207272160131 1150.7583487777486 
	79.36750957239866 -289.72311882404114 1150.7515052209114 
	0 
	0 
	0 
	1 0.5 
	0 
	0 
	11 -5.6648511808557902e-18 0.13154301797828699 0.19731452696742999 0.26308603595657398 0.32885754494571701 0.39462905393485997 0.52617207191314697 0.65771508989143401 0.73992947612786297 0.78925810786972095 0.85502961685886403 
	F 1 F 0 F 1 F 0 } F 0.0049394002185368839 F 1 I I #
DXID-attrib $-1 -1 $-1 $5 $4 @18 ASM_FACE_FROM_STEP @14 stp-1M-37-4956 #
color-adesk-attrib $-1 -1 $15 $-1 $6 7 #
face $16 -1 $-1 $17 $18 $3 $-1 $19 forward single #
loop $-1 -1 $-1 $20 $21 $6 #
sphere-surface $-1 -1 $-1 39.268931200257867 -291.20312556326331 1140 41.640625 -7.273661547324616e-16 1 6.1232339957367697e-17 4.7654749162517937e-33 6.1232339957367697e-17 -1 forward_v I I I I #
tcoedge-coedge $-1 -1 $-1 $22 $23 $24 $25 forward $7 $26 3.7644922627605143e-06 1.5649571072572992 #
DXID-attrib $-1 -1 $-1 $10 $6 @18 ASM_FACE_FROM_STEP @14 stp-1M-37-4957 #
color-adesk-attrib $-1 -1 $27 $-1 $11 7 #
face $28 -1 $-1 $29 $30 $3 $-1 $31 forward single #
loop $-1 -1 $-1 $32 $33 $11 #
cone-surface $-1 -1 $-1 78.909556200257867 -291.20312556326326 1151 -1 -7.273661547324616e-16 -4.93038065763132e-32 1.0910492320986924e-15 -1.5 5.7475132325822575e-47 1 I I 0 1 1.5000000000000002 forward I I I I #
loop $-1 -1 $-1 $34 $35 $6 #
coedge $-1 -1 $-1 $21 $21 $36 $37 reversed $12 $-1 #
tcoedge-coedge $-1 -1 $-1 $24 $14 $38 $39 forward $7 $40 0.92078223936516701 1.8415833652131739 #
tcoedge-coedge $-1 -1 $-1 $14 $24 $41 $42 forward $7 $43 -0.92078191245117347 1.9213396833528407e-05 #
tcoedge-coedge $-1 -1 $-1 $23 $22 $14 $25 reversed $7 $44 -1.5649571072572992 -3.7644922627605143e-06 #
tedge-edge $45 -1 $-1 $46 3.7644922627605143e-06 $47 1.5649571072572992 $14 $48 forward @7 unknown 0.00072330066498709443 #
pcurve $-1 -1 $-1 0 forward { exppc nubs 3 open 2 
	3.7644922627605143e-06 3 1.5649571072572992 3 
	0.00494180355195335 0.92078191798925613 
	0.33797517093592544 0.92077404827701559 
	0.66949593617131353 0.92076146243629819 
	0.999980434894438 0.9207822116662614 
	4.2821910231154144e-05 
	spline forward { ref 0 } I I I I 
	} 0 0 #
DXID-attrib $-1 -1 $-1 $16 $11 @18 ASM_FACE_FROM_STEP @14 stp-1M-37-4958 #
color-adesk-attrib $-1 -1 $49 $-1 $17 7 #
face $50 -1 $-1 $51 $52 $3 $-1 $53 forward single #
loop $-1 -1 $-1 $-1 $54 $17 #
spline-surface $-1 -1 $-1 forward { exactsur full nubs 3 3 open periodic none none 3 14 
	0 3 0.5 1 1 3 
	0 3 0.065771508989143496 1 0.13154301797828699 1 0.19731452696742999 1 0.26308603595657398 1 
	0.39462905393486097 1 0.460400562924004 1 0.52617207191314797 1 0.59194358090229104 1 0.65771508989143501 1 
	0.72348659888057798 1 0.78925810786972095 1 0.85502961685886503 1 0.920801125848008 3 
	79.464069403977646 -289.62156047996541 1129.239376761529 
	79.463913325106645 -289.64730796926108 1129.2350781678833 
	79.442902997477375 -289.69933500507841 1129.2321319888292 
	79.392718392120088 -289.72292699708731 1129.2418570403995 
	79.367540741874905 -289.72396904457577 1129.2486422578097 
	79.527885120700773 -289.66065929095862 1129.4720060255474 
	79.526755980127291 -289.68517941320209 1129.4642866501406 
	79.504876955979668 -289.73474228629902 1129.4541115745594 
	79.455805953847275 -289.75854312376333 1129.4599114454031 
	79.431203205094448 -289.76053615254006 1129.4662084496438 
	79.650782810010384 -289.84291191578893 1129.9211885834372 
	79.647908586607713 -289.86353758824873 1129.9073467741489 
	79.624536060771732 -289.90525452735005 1129.8842181773298 
	79.577406257735589 -289.9275344361655 1129.8817857270892 
	79.5538057554879 -289.93098766345958 1129.8863058048521 
	79.786844675660362 -290.38977903429503 1130.4205813030883 
	79.782236561529785 -290.40158721907545 1130.4006099146832 
	79.75742832827963 -290.42545758217449 1130.3645044430762 
	79.712180439788114 -290.43947056992863 1130.3520791505377 
	79.689540868439877 -290.44244436652957 1130.3533621431957 
	79.844109911791961 -291.10921636309524 1130.6313416743758 
	79.838821881508181 -291.11053762333535 1130.6089275313698 
	79.813443138103437 -291.11321113810629 1130.5676556975889 
	79.76893659335235 -291.11487667979202 1130.5508533488526 
	79.746668582053189 -291.11529711594852 1130.5504754838751 
	79.797590066133878 -292.10356186419784 1130.4600373741362 
	79.792849370680273 -292.09064577591255 1130.439597813599 
	79.767934279928383 -292.06454912068909 1130.4024998067753 
	79.722827829318405 -292.04881867768546 1130.3892603117201 
	79.700260453848102 -292.04525734668186 1130.3902633781231 
	79.580740590480389 -292.79196723697311 1129.663877581208 
	79.578726436259842 -292.76747307424989 1129.6530696783639 
	79.556044987574992 -292.71795086166361 1129.6363794708652 
	79.507999383338557 -292.69238569120546 1129.6392611827489 
	79.483931742413816 -292.68908750289449 1129.6456560520871 
	79.315492549806663 -292.83486322331424 1128.6982007070187 
	79.317613704426591 -292.80677286574672 1128.7020007881542 
	79.298714240159796 -292.75003497540314 1128.7161828869275 
	79.24585974870206 -292.72777760166264 1128.7348092656075 
	79.219320695158586 -292.72920591375981 1128.742508114334 
	79.129816009065777 -292.56401315849365 1128.0255538977206 
	79.135355621314488 -292.53855887010087 1128.0413026111087 
	79.119713486911891 -292.48728336664851 1128.0806005403351 
	79.062766636631295 -292.47150446592781 1128.1077715472029 
	79.034090056804473 -292.47589377175746 1128.1134161324389 
	78.99158702483706 -292.01671899135169 1127.5270097904329 
	79.000110617655906 -292.00035585917306 1127.5531845172225 
	78.987484875250175 -291.96744047074594 1127.6142311989065 
	78.926823017115851 -291.95970513844225 1127.6454815951809 
	78.896193029611055 -291.96403767205169 1127.6471534576142 
	78.932594310600962 -291.29621423610138 1127.3148205346672 
	78.94256889393867 -291.29427788098502 1127.345989362298 
	78.93141237694536 -291.29039304255605 1127.4173673258567 
	78.868942361525185 -291.2895961356391 1127.4495813038968 
	78.837341986433529 -291.29018661354729 1127.4487037547372 
	78.968946762324549 -290.55387032052977 1127.4455287091257 
	78.978012236568105 -290.56709994731102 1127.4735685741584 
	78.965930635004128 -290.59370870671478 1127.5384826213399 
	78.904596989506146 -290.59961380111309 1127.5701778572254 
	78.873607137710209 -290.59591051108293 1127.5709483909761 
	79.090349310103448 -289.95378089209612 1127.8830272080472 
	79.096683730455339 -289.97763024347319 1127.9015967791904 
	79.081861613175093 -290.02563686913408 1127.9468105581866 
	79.023911817510566 -290.03945155119942 1127.9753470634307 
	78.994718137156724 -290.03467771754384 1127.9801182464755 
	79.26788850967165 -289.60831904982973 1128.5254129993259 
	79.270852656483896 -289.63630892460247 1128.5320958806053 
	79.252692309757919 -289.69281084002648 1128.5523406629482 
	79.198880887372439 -289.71383767610922 1128.5734592970673 
	79.171830976170611 -289.71158501567379 1128.5809086538491 
	79.400253687254519 -289.58246166897226 1129.0067474975103 
	79.401070670086014 -289.60943652532001 1129.0058696856261 
	79.380929038975069 -289.66392772385785 1129.010152403099 
	79.329630830392887 -289.68731087041124 1129.0238026353959 
	79.303878278655361 -289.68740193661148 1129.0310760659759 
	79.464069403977646 -289.62156047996541 1129.239376761529 
	79.463913325106645 -289.64730796926108 1129.2350781678833 
	79.442902997477375 -289.69933500507841 1129.2321319888292 
	79.392718392120088 -289.72292699708731 1129.2418570403995 
	79.367540741874905 -289.72396904457577 1129.2486422578097 
	0 
	0 
	0 
	1 0.5 
	0 
	0 
	13 0 0.065771508989143496 0.13154301797828699 0.19731452696742999 0.26308603595657398 0.39462905393486097 0.460400562924004 0.52617207191314797 0.59194358090229104 0.65771508989143501 0.72348659888057798 0.78925810786972095 0.85502961685886503 
	F 1 F 0 F 1 F 0 } I I I I #
loop $-1 -1 $-1 $-1 $38 $11 #
coedge $-1 -1 $-1 $33 $33 $55 $56 reversed $18 $-1 #
loop $-1 -1 $-1 $-1 $41 $6 #
tcoedge-coedge $-1 -1 $-1 $35 $35 $57 $58 reversed $20 $59 -8.1557787215968958e-06 0.9207929700692864 #
coedge $-1 -1 $-1 $36 $36 $21 $37 forward $60 $-1 #
edge $61 -1 $-1 $62 -1.5707963267948966 $62 4.7123889803846897 $21 $63 forward @7 unknown #
tcoedge-coedge $-1 -1 $-1 $38 $38 $22 $39 reversed $32 $64 -1.8415833652131739 -0.92078223936516701 #
tedge-edge $65 -1 $-1 $47 0.92078223936516701 $47 1.8415833652131739 $22 $66 forward @7 unknown 0.0018597118739944755 #
pcurve $-1 -1 $-1 0 forward { exppc nubs 1 periodic 2 
	0.92078223936516701 1 1.8415833652131739 1 
	1 0.92078223936516668 
	1 1.8415833652131737 
	9.6047400492654016e-15 
	spline forward { ref 0 } I I I I 
	} 0 0 #
tcoedge-coedge $-1 -1 $-1 $41 $41 $23 $42 reversed $34 $67 -1.9213396833528407e-05 0.92078191245117347 #
tedge-edge $68 -1 $-1 $46 -0.92078191245117347 $46 1.9213396833528407e-05 $23 $69 forward @7 unknown 0.00016355455523984734 #
pcurve $-1 -1 $-1 0 forward { exppc nubs 1 periodic 2 
	-0.92078191245117347 1 1.9213396833528407e-05 1 
	0.0049394002185368839 0.92078191245117702 
	0.0049394002185368839 -1.9213396829975693e-05 
	1.3230002323190675e-14 
	spline forward { ref 0 } I I I I 
	} 0 0.920801125848007 #
pcurve $-1 -1 $-1 0 forward { exppc nubs 3 open 2 
	-1.5649571072572992 3 -3.7644922627605143e-06 3 
	0.99998043489444044 0.92078221166626129 
	0.66949593617131509 0.92076146243629808 
	0.33797517093592266 0.92077404827701537 
	0.0049418035519500783 0.9207819179892559 
	4.2821910233521588e-05 
	spline forward { ref 0 } I I I I 
	} 0 0.920801125848007 #
color-adesk-attrib $-1 -1 $70 $-1 $25 7 #
tvertex-vertex $-1 -1 $-1 $25 $71 3.9363876271478693e-05 #
tvertex-vertex $-1 -1 $-1 $25 $72 0.00072331715633881777 #
ellipse-curve $-1 -1 $-1 79.367519344225599 -289.62524825967103 1150.7348524659581 0.26114346180012427 -0.15996682183422983 -0.95195310192850513 0.096528610592564262 0.0037983956755389351 0.025841817415981364 1 F 3.7644922627605143e-06 F 1.5649571072572992 #
DXID-attrib $-1 -1 $-1 $28 $17 @18 ASM_FACE_FROM_STEP @14 stp-1M-37-4959 #
color-adesk-attrib $-1 -1 $73 $-1 $29 7 #
face $74 -1 $-1 $75 $76 $3 $-1 $77 forward single #
loop $-1 -1 $-1 $78 $79 $29 #
cone-surface $-1 -1 $-1 78.909556200257867 -291.20312556326326 1129 -1 -7.273661547324616e-16 -4.93038065763132e-32 1.0910492320986924e-15 -1.5 5.7475132325822575e-47 1 I I 0 1 1.5000000000000002 forward I I I I #
tcoedge-coedge $-1 -1 $-1 $80 $57 $81 $82 forward $30 $83 0.00097324391430029188 1.5654307270711538 #
coedge $-1 -1 $-1 $55 $55 $33 $56 forward $84 $-1 #
edge $85 -1 $-1 $86 -3.1415926535897931 $86 3.1415926535897931 $33 $87 forward @7 unknown #
tcoedge-coedge $-1 -1 $-1 $54 $81 $35 $58 forward $30 $88 -0.9207929700692864 8.1557787215968958e-06 #
tedge-edge $89 -1 $-1 $90 -0.9207929700692864 $90 8.1557787215968958e-06 $35 $91 forward @7 unknown 0.00016189244611138591 #
pcurve $-1 -1 $-1 0 forward { exppc nubs 3 periodic 15 
	-8.1557787215968958e-06 3 0 3 0.065771508989143496 3 0.13154301797828699 3 0.19731452696742999 3 
	0.26308603595657398 3 0.39462905393486097 3 0.460400562924004 3 0.52617207191314797 3 0.59194358090229104 3 
	0.65771508989143501 3 0.72348659888057798 3 0.78925810786972095 3 0.85502961685886503 3 0.9207929700692864 3 
	0.26138479583596724 1.5314690556133583 
	0.26138407872462255 1.5314691837412573 
	0.2613833616165589 1.5314693118889191 
	0.26138264451177728 1.5314694400563436 
	0.25559962057294405 1.5325030341738493 
	0.25003044130825225 1.5348208256234801 
	0.24519008089958977 1.5382463109501565 
	0.24034972049092732 1.5416717962768329 
	0.23623766635051358 1.5462046073611593 
	0.23331611558454465 1.5514285704634176 
	0.23039456481857576 1.556652533565676 
	0.22866305445169668 1.5625682690030602 
	0.22832492609813271 1.568589164887507 
	0.2279867977445687 1.5746100607719542 
	0.22904183869178513 1.5807372780225271 
	0.23138327950480975 1.5862506915266028 
	0.2360661611308589 1.5972775185347541 
	0.24589651546381203 1.6058694375171787 
	0.25718435071057699 1.6091899005528933 
	0.2628282683339595 1.6108501320707509 
	0.26883714026771038 1.611187175900576 
	0.27464610100078046 1.6102585387038275 
	0.28045506173385065 1.609329901507079 
	0.2860640556061973 1.6071347253359047 
	0.29095739005357124 1.6037628939457815 
	0.29585072450094502 1.6003910625556583 
	0.3000278227083561 1.5958415005031421 
	0.30300833392196974 1.5905422934919795 
	0.30598884513558344 1.5852430864808169 
	0.30777197685499702 1.5791947837970477 
	0.3081142302328872 1.5730506026703264 
	0.30845648361077732 1.5669064215436053 
	0.30735768869522645 1.5606683329566073 
	0.30497340669972733 1.5550464291535777 
	0.30258912470422822 1.5494245253505481 
	0.29892014161451369 1.5444197727891336 
	0.29440357351830548 1.540504734514617 
	0.28988700542209717 1.5365896962401004 
	0.28452351398649572 1.5337636665662215 
	0.27884314647529862 1.5322254905246309 
	0.27316348333931201 1.5306875052194795 
	0.26716715559101462 1.5304359083730736 
	0.26138479583596724 1.5314690556133583 
	0.00013902763334629428 
	sphere 39.268931200257867 -291.20312556326331 1140 -41.640625 -7.273661547324616e-16 1 6.1232339957367697e-17 4.7654749162517937e-33 6.1232339957367697e-17 -1 forward_v I I I I 
	} 0 0 #
loop $-1 -1 $-1 $-1 $36 $92 #
color-adesk-attrib $-1 -1 $93 $-1 $37 7 #
vertex $-1 -1 $-1 $37 $94 #
ellipse-curve $-1 -1 $-1 78.909556200257867 -291.20312556326326 1140 1 7.273661547324616e-16 4.93038065763132e-32 -9.2739184728388873e-15 12.750000000000002 -4.8853862476949197e-46 1 I I #
pcurve $-1 -1 $-1 0 forward { exppc nubs 3 periodic 13 
	-1.8415833652131739 3 -1.7758307427068711 3 -1.7100592337177281 3 -1.6607306019758701 3 -1.578516215739441 3 
	-1.446973197761154 3 -1.3154301797828669 3 -1.2496586707937241 3 -1.183887161804581 3 -1.118115652815437 3 
	-1.0523441438262939 3 -0.920801125848007 3 -0.92078223936516701 3 
	-0.30533881756585757 -2.9751165087892399 
	-0.34777681014596273 -2.8281692618558654 
	-0.38865180622141182 -2.6803871883940693 
	-0.42413051858631567 -2.5315242408345018 
	-0.45961942169444364 -2.3826185345620874 
	-0.48970894063905951 -2.2327332728516329 
	-0.51119281116873372 -2.0819141792317342 
	-0.52730571406598958 -1.9687998590168085 
	-0.53857793972984047 -1.8550380187067457 
	-0.54415903989175041 -1.7407706255609967 
	-0.55346087349493334 -1.5503249703180837 
	-0.54695402514828007 -1.3580838587022881 
	-0.52554507147477003 -1.16954088776808 
	-0.49129074559715408 -0.8678721342733462 
	-0.41888703008278466 -0.56846164508074759 
	-0.33609017926679785 -0.27425962454074304 
	-0.25329332845081098 0.019942395999261509 
	-0.16010334233320694 0.31333956971716881 
	-0.088245321178629987 0.61019513269406234 
	-0.05231631060134187 0.75862291418250749 
	-0.021720291264810454 0.90854750634654891 
	0.00013490092551255405 1.0596296813658388 
	0.021990093115835638 1.2107118563851289 
	0.035104458159950253 1.3630310559441008 
	0.037618514769356182 1.5151041693735507 
	0.040132571378762139 1.6671772828030027 
	0.032046319553459116 1.8195784141595874 
	0.014549423864260835 1.9712445214120882 
	-0.0029474718249372089 2.1229106286645871 
	-0.029855011378030261 2.2739229976070243 
	-0.062985593011679775 2.4228298258334435 
	-0.12924675627897919 2.7206434822862842 
	-0.22040008786850468 3.0139639672551928 
	-0.30530224809386669 3.3079421731749177 
	-0.30531443804675673 3.3079843815294678 
	-0.30532662787078418 3.3080265899345949 
	-0.30533881756585757 3.3080687983903463 
	0.00014047643417158142 
	cone 78.909556200257867 -291.20312556326326 1151 -1 -7.273661547324616e-16 -4.93038065763132e-32 1.0910492320986924e-15 -1.5 5.7475132325822575e-47 1 I I 0 1 1.5000000000000002 forward I I I I 
	} 0 0 #
color-adesk-attrib $-1 -1 $95 $-1 $39 7 #
intcurve-curve $-1 -1 $-1 forward { exactcur full nubs 3 periodic 12 
	-5.6648511808557902e-18 3 0.13154301797828699 1 0.19731452696742999 1 0.26308603595657398 1 0.32885754494571701 1 
	0.39462905393485997 1 0.52617207191314697 1 0.65771508989143401 1 0.73992947612786297 1 0.78925810786972095 1 
	0.85502961685886403 1 0.920801125848007 3 
	79.36750957239866 -289.72311882404114 1150.7515052209114 
	79.240156332060621 -289.65073269839246 1151.1867067561857 
	79.035061335984182 -289.84443681617557 1151.8837567977091 
	78.873616098665636 -290.59701583036667 1152.4289829756251 
	78.837227965451774 -291.28972914931353 1152.5517441222748 
	78.896242608150288 -291.96393406404832 1152.3526475712995 
	79.079818724169485 -292.64678296443958 1151.7321614518878 
	79.429281172110493 -292.84878807809542 1150.542562641064 
	79.71437080194832 -292.00578326043183 1149.561101787483 
	79.745603674012258 -291.05218055478798 1149.4532052263214 
	79.677970320029146 -290.39994231011383 1149.6864809183551 
	79.553851054382605 -289.93245911459945 1150.1134521642043 
	79.431186192567679 -289.75931188686542 1150.5339044532743 
	79.36750957239866 -289.72311882404114 1150.7515052209114 
	0 
	null_surface 
	null_surface 
	nullbs 
	nullbs 
	I I 
	0 
	0 
	11 -5.6648511808557902e-18 0.13154301797828699 0.19731452696742999 0.26308603595657398 0.32885754494571701 0.39462905393485997 0.52617207191314697 0.65771508989143401 0.73992947612786297 0.78925810786972095 0.85502961685886403 
	F 1 F 0 } I I #
pcurve $-1 -1 $-1 0 forward { exppc nubs 3 periodic 13 
	-1.9213396833528407e-05 3 -5.6648511808557902e-18 3 0.13154301797828699 3 0.19731452696742999 3 0.26308603595657398 3 
	0.32885754494571701 3 0.39462905393485997 3 0.52617207191314697 3 0.65771508989143401 3 0.73992947612786297 3 
	0.78925810786972095 3 0.85502961685886403 3 0.92078191245117347 3 
	-0.26138439876405434 1.5314666804032357 
	-0.26138608764866395 1.5314663814066662 
	-0.26138777655120321 1.5314660825236319 
	-0.26138946547165914 1.531465783754139 
	-0.27295252721567959 1.5294202817985527 
	-0.2853653567834083 1.5327027425125266 
	-0.29439261762294722 1.5405058601298633 
	-0.2989062480427167 1.5444074189385317 
	-0.30257095232999487 1.5494381737211693 
	-0.30495486718693471 1.555064201388618 
	-0.3073387820438746 1.5606902290560665 
	-0.30844124782487592 1.5669104772723734 
	-0.30809866001353259 1.5730455146214868 
	-0.30775607220218926 1.5791805519706001 
	-0.30596853025002507 1.5852283988645015 
	-0.30299103837825148 1.5905275262280167 
	-0.30001354650647793 1.595826653591532 
	-0.2958469130759856 1.6003765343048399 
	-0.29095217342999791 1.6037401640102544 
	-0.28116269413802247 1.6104674234210834 
	-0.26847051206591244 1.6124499580954812 
	-0.25719478332404311 1.6091454584901983 
	-0.24591905458217372 1.6058409588849154 
	-0.23604993501854693 1.5972733782959876 
	-0.23138204649268299 1.5862609436225641 
	-0.22846461616401803 1.5793781719516744 
	-0.227577358851209 1.5715325009530152 
	-0.22884515898784466 1.5641090555001198 
	-0.22960583906982607 1.5596549882283828 
	-0.23114294811217412 1.5553524257902731 
	-0.23333893945509349 1.5514420051256677 
	-0.23626692791231932 1.5462281109061942 
	-0.24036642502918421 1.5417105190254963 
	-0.24520156964281059 1.538275574686969 
	-0.25003530179755262 1.5348416337760609 
	-0.2556046794862572 1.5324899097150853 
	-0.26138439876405434 1.5314666804032357 
	0.00014061033849056522 
	sphere 39.268931200257867 -291.20312556326331 1140 -41.640625 -7.273661547324616e-16 1 6.1232339957367697e-17 4.7654749162517937e-33 6.1232339957367697e-17 -1 forward_v I I I I 
	} 0 0 #
color-adesk-attrib $-1 -1 $96 $-1 $42 7 #
intcurve-curve $-1 -1 $-1 forward { exactcur full nubs 3 periodic 12 
	-0.920801125848007 3 -0.85502961685886403 1 -0.78925810786972095 1 -0.73992947612786297 1 -0.65771508989143401 1 
	-0.52617207191314697 1 -0.39462905393485997 1 -0.32885754494571701 1 -0.26308603595657398 1 -0.19731452696742999 1 
	-0.13154301797828699 1 5.6648511808557902e-18 3 
	79.464030053193881 -289.62141483532594 1150.7609082680028 
	79.527831180115186 -289.66007744201903 1150.5283437634382 
	79.650740641268598 -289.84509591931629 1150.0789607225579 
	79.775112055106831 -290.34470639714453 1149.6225963440074 
	79.842883916765942 -291.04179694036685 1149.373256317361 
	79.811586564574071 -292.06099389182907 1149.4885830513515 
	79.525916304096469 -292.96191239529315 1150.5376221827837 
	79.175784333567421 -292.74588905398878 1151.8089709098726 
	78.991884845688247 -292.01612320182375 1152.47200007835 
	78.932770707739977 -291.29566771018943 1152.6847343388899 
	78.969219883496322 -290.55544372967415 1152.5535649412661 
	79.13094604051966 -289.75118159359363 1151.9709686955707 
	79.33642779935127 -289.54408962193975 1151.2260372771318 
	79.464030053193881 -289.62141483532594 1150.7609082680028 
	0 
	null_surface 
	null_surface 
	nullbs 
	nullbs 
	I I 
	0 
	0 
	11 -0.920801125848007 -0.85502961685886403 -0.78925810786972095 -0.73992947612786297 -0.65771508989143401 -0.52617207191314697 -0.39462905393485997 -0.32885754494571701 -0.26308603595657398 -0.19731452696742999 -0.13154301797828699 
	F 1 F 0 } I I #
DXID-attrib $-1 -1 $-1 $45 $25 @18 ASM_EDGE_FROM_STEP @4 3224 #
point $-1 -1 $-1 79.464047952867702 -289.62145023532179 1150.7606943452367 #
point $-1 -1 $-1 79.367564426606663 -289.72315001533786 1150.751317768629 #
DXID-attrib $-1 -1 $-1 $50 $29 @18 ASM_FACE_FROM_STEP @14 stp-1M-37-4960 #
color-adesk-attrib $-1 -1 $97 $-1 $51 7 #
face $98 -1 $-1 $99 $100 $3 $-1 $101 forward single #
loop $-1 -1 $-1 $102 $103 $51 #
torus-surface $-1 -1 $-1 80.833382457779265 -291.20312556326326 1140 1 7.273661547324616e-16 4.93038065763132e-32 14.65 0.10000000000000002 4.93038065763132e-32 -2.4548346807957337e-48 -1 forward_v I I I I #
loop $-1 -1 $-1 $-1 $104 $29 #
coedge $-1 -1 $-1 $79 $79 $105 $106 reversed $52 $-1 #
tcoedge-coedge $-1 -1 $-1 $81 $54 $104 $107 forward $30 $108 0.92079298222352501 1.841594108071533 #
tcoedge-coedge $-1 -1 $-1 $57 $80 $54 $82 reversed $30 $109 -1.5654307270711538 -0.00097324391430029188 #
tedge-edge $110 -1 $-1 $90 0.00097324391430029188 $111 1.5654307270711538 $54 $112 forward @7 unknown 0.000101937965727602 #
pcurve $-1 -1 $-1 0 forward { exppc nubs 3 open 2 
	0.00097324391430029188 3 1.5654307270711538 3 
	0 0.92079296826722601 
	0.3329405574414856 0.92079524347201791 
	0.66663133149188281 0.92080270660990449 
	0.99998706768778212 0.92079297295136042 
	4.2951192871243949e-05 
	spline forward { ref 2 } I I I I 
	} 0 0 #
loop $-1 -1 $-1 $113 $55 $114 #
color-adesk-attrib $-1 -1 $115 $-1 $56 7 #
vertex $-1 -1 $-1 $56 $116 #
ellipse-curve $-1 -1 $-1 74.409556200257867 -291.20312556326326 1151 -1 -7.273661547324616e-16 -4.93038065763132e-32 1.0910492320986924e-15 -1.5 5.7475132325822575e-47 1 I I #
pcurve $-1 -1 $-1 0 forward { exppc nubs 1 periodic 2 
	-0.920801125848008 1 0 1 
	1.1396205146990383e-16 0.92080112584800788 
	1.1396205146990383e-16 -1.1102230246251565e-16 
	0 
	spline forward { ref 2 } I I I I 
	} 0 0.920801125848008 #
color-adesk-attrib $-1 -1 $117 $-1 $58 7 #
tvertex-vertex $-1 -1 $-1 $58 $118 9.5172967219833879e-07 #
intcurve-curve $-1 -1 $-1 forward { exactcur full nubs 3 periodic 14 
	-0.920801125848008 3 -0.85502961685886503 1 -0.78925810786972095 1 -0.72348659888057798 1 -0.65771508989143501 1 
	-0.59194358090229104 1 -0.52617207191314797 1 -0.460400562924004 1 -0.39462905393486097 1 -0.26308603595657398 1 
	-0.19731452696742999 1 -0.13154301797828699 1 -0.065771508989143496 1 0 3 
	79.464069403977646 -289.62156047996541 1129.239376761529 
	79.400253687254519 -289.58246166897226 1129.0067474975103 
	79.26788850967165 -289.60831904982973 1128.5254129993259 
	79.090349310103448 -289.95378089209612 1127.8830272080472 
	78.968946762324549 -290.55387032052977 1127.4455287091257 
	78.932594310600962 -291.29621423610138 1127.3148205346672 
	78.99158702483706 -292.01671899135169 1127.5270097904329 
	79.129816009065777 -292.56401315849365 1128.0255538977206 
	79.315492549806663 -292.83486322331424 1128.6982007070187 
	79.580740590480389 -292.79196723697311 1129.663877581208 
	79.797590066133878 -292.10356186419784 1130.4600373741362 
	79.844109911791961 -291.10921636309524 1130.6313416743758 
	79.786844675660362 -290.38977903429503 1130.4205813030883 
	79.650782810010384 -289.84291191578893 1129.9211885834372 
	79.527885120700773 -289.66065929095862 1129.4720060255474 
	79.464069403977646 -289.62156047996541 1129.239376761529 
	0 
	null_surface 
	null_surface 
	nullbs 
	nullbs 
	I I 
	0 
	0 
	13 -0.920801125848008 -0.85502961685886503 -0.78925810786972095 -0.72348659888057798 -0.65771508989143501 -0.59194358090229104 -0.52617207191314797 -0.460400562924004 -0.39462905393486097 -0.26308603595657398 -0.19731452696742999 -0.13154301797828699 -0.065771508989143496 
	F 1 F 0 } I I #
face $119 -1 $-1 $120 $121 $3 $-1 $122 forward single #
DXID-attrib $-1 -1 $-1 $61 $37 @18 ASM_EDGE_FROM_STEP @4 3227 #
point $-1 -1 $-1 78.909556200257867 -291.20312556326326 1127.25 #
DXID-attrib $-1 -1 $-1 $65 $39 @18 ASM_EDGE_FROM_STEP @4 3225 #
DXID-attrib $-1 -1 $-1 $68 $42 @18 ASM_EDGE_FROM_STEP @4 3226 #
DXID-attrib $-1 -1 $-1 $74 $51 @18 ASM_FACE_FROM_STEP @14 stp-1M-37-4961 #
color-adesk-attrib $-1 -1 $123 $-1 $75 7 #
face $124 -1 $-1 $125 $126 $3 $-1 $127 forward single #
loop $-1 -1 $-1 $128 $129 $75 #
cone-surface $-1 -1 $-1 79.909556200257867 -291.20312556326326 1140 1 7.273661547324616e-16 4.93038065763132e-32 7.2723114700061973e-31 -3.6208811541737074e-47 -14.75 1 I I 0 1 14.75 forward I I I I #
loop $-1 -1 $-1 $-1 $130 $51 #
coedge $-1 -1 $-1 $103 $103 $131 $132 forward $76 $-1 #
tcoedge-coedge $-1 -1 $-1 $104 $104 $80 $107 reversed $78 $133 -1.841594108071533 -0.92079298222352501 #
coedge $-1 -1 $-1 $105 $105 $79 $106 forward $134 $-1 #
edge $135 -1 $-1 $136 -3.1415926535897931 $136 3.1415926535897931 $79 $137 forward @7 unknown #
tedge-edge $138 -1 $-1 $111 0.92079298222352501 $111 1.841594108071533 $80 $139 forward @7 unknown 0.001935482476929128 #
pcurve $-1 -1 $-1 0 forward { exppc nubs 1 periodic 2 
	0.92079298222352501 1 1.841594108071533 1 
	1 0.92079298222352501 
	1 1.8415941080715332 
	6.8672064479714407e-15 
	spline forward { ref 2 } I I I I 
	} 0 0 #
pcurve $-1 -1 $-1 0 forward { exppc nubs 3 open 2 
	-1.5654307270711538 3 -0.00097324391430029188 3 
	0.99998706768778245 0.92079297295136042 
	0.66663133149188325 0.92080270660990449 
	0.33294055744148465 0.9207952434720178 
	0 0.9207929682672259 
	4.2951192875206389e-05 
	spline forward { ref 2 } I I I I 
	} 0 0.920801125848008 #
color-adesk-attrib $-1 -1 $140 $-1 $82 7 #
tvertex-vertex $-1 -1 $-1 $82 $141 9.1042302839169757e-05 #
ellipse-curve $-1 -1 $-1 79.367519344225599 -289.62524825967103 1129.2651475340419 -0.26114346180014125 0.15996682183422892 -0.95195310192850058 0.096528610592566802 0.0037983956755406104 -0.025841817415983636 1 F 0.00097324391430029188 F 1.5654307270711538 #
loop $-1 -1 $-1 $-1 $142 $114 #
face $143 -1 $-1 $144 $84 $3 $-1 $145 forward single #
DXID-attrib $-1 -1 $-1 $85 $56 @18 ASM_EDGE_FROM_STEP @4 3229 #
point $-1 -1 $-1 74.409556200257867 -289.70312556326326 1151 #
DXID-attrib $-1 -1 $-1 $89 $58 @18 ASM_EDGE_FROM_STEP @4 3228 #
point $-1 -1 $-1 79.464046537186476 -289.62154590241488 1129.239289988258 #
color-adesk-attrib $-1 -1 $146 $-1 $92 7 #
face $147 -1 $-1 $148 $134 $3 $-1 $149 forward single #
loop $-1 -1 $-1 $60 $150 $92 #
plane-surface $-1 -1 $-1 78.909556200257867 -291.20312556326326 1125.25 -1 -7.273661547324616e-16 -4.93038065763132e-32 -4.93038065763132e-32 2.4548346807957337e-48 1 forward_v I I I I #
DXID-attrib $-1 -1 $-1 $98 $75 @18 ASM_FACE_FROM_STEP @14 stp-1M-37-4962 #
color-adesk-attrib $-1 -1 $151 $-1 $99 7 #
face $152 -1 $-1 $92 $153 $3 $-1 $154 forward single #
loop $-1 -1 $-1 $-1 $155 $99 #
sphere-surface $-1 -1 $-1 27.518931200258066 -291.20312556326331 1140 55.390624999999801 -7.273661547324616e-16 1 6.1232339957367697e-17 4.7654749162517937e-33 6.1232339957367697e-17 -1 forward_v I I I I #
loop $-1 -1 $-1 $-1 $131 $75 #
coedge $-1 -1 $-1 $129 $129 $156 $157 reversed $100 $-1 #
coedge $-1 -1 $-1 $130 $130 $155 $158 forward $102 $-1 #
coedge $-1 -1 $-1 $131 $131 $103 $132 reversed $128 $-1 #
edge $159 -1 $-1 $160 -3.1415926535897931 $160 3.1415926535897931 $103 $161 forward @7 unknown #
pcurve $-1 -1 $-1 0 forward { exppc nubs 3 periodic 15 
	-1.841594108071533 3 -1.7758307427068729 3 -1.7100592337177289 3 -1.6442877247285859 3 -1.578516215739443 3 
	-1.512744706750299 3 -1.446973197761156 3 -1.381201688772012 3 -1.3154301797828689 3 -1.1838871618045821 3 
	-1.1181156528154379 3 -1.052344143826295 3 -0.98657263483715152 3 -0.920801125848008 3 -0.92079298222352501 3 
	-0.30530726269436581 2.9751069412865254 
	-0.26287048584208844 3.1221760607467122 
	-0.21886045653731603 3.2688773510491274 
	-0.17717853002108169 3.4161644687214303 
	-0.13549144193874699 3.5634698252866333 
	-0.096133033268991544 3.7114122604361737 
	-0.062997051217834901 3.8605640799969203 
	-0.02986106916667871 4.0097158995576647 
	-0.0029475137341211533 4.1602541789638474 
	0.014538725235122259 4.3117343145054665 
	0.032024964204365611 4.4632144500470847 
	0.040083886710294885 4.615951090711425 
	0.037574343165757494 4.7681824241366559 
	0.035064799621220062 4.9204137575618896 
	0.021986790026215605 5.0726082740919693 
	0.00012589331833247515 5.2236420537093018 
	-0.021735003389550363 5.3746758333266333 
	-0.052378787210311646 5.524749135957733 
	-0.088281861160038472 5.6731848612089824 
	-0.1241849351097658 5.8216205864602344 
	-0.16534729918845886 5.9687909564036445 
	-0.20797940183240735 6.1160815290914741 
	-0.25061150447635527 6.2633721017793009 
	-0.29471334568555874 6.4102512510778595 
	-0.33613283490470963 6.5573907202729043 
	-0.41897181334301181 6.8516696586629937 
	-0.491081383821104 7.1507818922087782 
	-0.52543082469271174 7.4529631908877114 
	-0.54260554512851578 7.6040538402271798 
	-0.55034023316269876 7.7573255256617788 
	-0.54786005344497857 7.9098300974209366 
	-0.54537987372725849 8.0623346691800908 
	-0.5326848262576358 8.214244910781705 
	-0.51125562330593799 8.3651061111934197 
	-0.48982642035423984 8.5159673116051362 
	-0.45966306192046624 8.6661273115850967 
	-0.42414762430467168 8.8148884212868204 
	-0.38863218668887706 8.9636495309885422 
	-0.34776466989106136 9.1111501740325167 
	-0.305323027744696 9.2582376127530974 
	-0.30531777275204958 9.2582558246640829 
	-0.30531251773526946 9.2582740365684195 
	-0.30530726269436581 9.2582922484661125 
	0.000104691283056697 
	cone 78.909556200257867 -291.20312556326326 1129 -1 -7.273661547324616e-16 -4.93038065763132e-32 1.0910492320986924e-15 -1.5 5.7475132325822575e-47 1 I I 0 1 1.5000000000000002 forward I I I I 
	} 0 0 #
loop $-1 -1 $-1 $162 $105 $120 #
color-adesk-attrib $-1 -1 $163 $-1 $106 7 #
vertex $-1 -1 $-1 $106 $164 #
ellipse-curve $-1 -1 $-1 74.409556200257867 -291.20312556326326 1129 -1 -7.273661547324616e-16 -4.93038065763132e-32 1.0910492320986924e-15 -1.5 5.7475132325822575e-47 1 I I #
color-adesk-attrib $-1 -1 $165 $-1 $107 7 #
intcurve-curve $-1 -1 $-1 forward { exactcur full nubs 3 periodic 14 
	0 3 0.065771508989143496 1 0.13154301797828699 1 0.19731452696742999 1 0.26308603595657398 1 
	0.39462905393486097 1 0.460400562924004 1 0.52617207191314797 1 0.59194358090229104 1 0.65771508989143501 1 
	0.72348659888057798 1 0.78925810786972095 1 0.85502961685886503 1 0.920801125848008 3 
	79.367540741874905 -289.72396904457577 1129.2486422578097 
	79.431203205094448 -289.76053615254006 1129.4662084496438 
	79.5538057554879 -289.93098766345958 1129.8863058048521 
	79.689540868439877 -290.44244436652957 1130.3533621431957 
	79.746668582053189 -291.11529711594852 1130.5504754838751 
	79.700260453848102 -292.04525734668186 1130.3902633781231 
	79.483931742413816 -292.68908750289449 1129.6456560520871 
	79.219320695158586 -292.72920591375981 1128.742508114334 
	79.034090056804473 -292.47589377175746 1128.1134161324389 
	78.896193029611055 -291.96403767205169 1127.6471534576142 
	78.837341986433529 -291.29018661354729 1127.4487037547372 
	78.873607137710209 -290.59591051108293 1127.5709483909761 
	78.994718137156724 -290.03467771754384 1127.9801182464755 
	79.171830976170611 -289.71158501567379 1128.5809086538491 
	79.303878278655361 -289.68740193661148 1129.0310760659759 
	79.367540741874905 -289.72396904457577 1129.2486422578097 
	0 
	null_surface 
	null_surface 
	nullbs 
	nullbs 
	I I 
	0 
	0 
	13 0 0.065771508989143496 0.13154301797828699 0.19731452696742999 0.26308603595657398 0.39462905393486097 0.460400562924004 0.52617207191314797 0.59194358090229104 0.65771508989143501 0.72348659888057798 0.78925810786972095 0.85502961685886503 
	F 1 F 0 } I I #
DXID-attrib $-1 -1 $-1 $110 $82 @18 ASM_EDGE_FROM_STEP @4 3230 #
point $-1 -1 $-1 79.367517094299416 -289.72395546393562 1129.2485614423485 #
coedge $-1 -1 $-1 $142 $142 $166 $167 forward $113 $-1 #
color-adesk-attrib $-1 -1 $168 $-1 $114 7 #
face $169 -1 $-1 $-1 $170 $3 $-1 $171 reversed single #
torus-surface $-1 -1 $-1 74.409556200257867 -291.20312556326326 1151 -1 -7.273661547324616e-16 -4.93038065763132e-32 0.99999999999999911 0.5 -4.93038065763132e-32 2.4548346807957337e-48 1 forward_v I I I I #
DXID-attrib $-1 -1 $-1 $119 $92 @18 ASM_FACE_FROM_STEP @14 stp-1M-37-4965 #
color-adesk-attrib $-1 -1 $172 $-1 $120 7 #
face $173 -1 $-1 $114 $174 $3 $-1 $175 reversed single #
torus-surface $-1 -1 $-1 74.409556200257867 -291.20312556326326 1129 -1 -7.273661547324616e-16 -4.93038065763132e-32 1 0.5 -4.93038065763132e-32 2.4548346807957337e-48 1 forward_v I I I I #
coedge $-1 -1 $-1 $150 $150 $176 $177 reversed $121 $-1 #
DXID-attrib $-1 -1 $-1 $124 $99 @18 ASM_FACE_FROM_STEP @14 stp-1M-37-4963 #
color-adesk-attrib $-1 -1 $178 $-1 $125 7 #
loop $-1 -1 $-1 $179 $176 $125 #
torus-surface $-1 -1 $-1 79.009556200257862 -291.20312556326326 1140 1 7.273661547324616e-16 4.93038065763132e-32 14.65 0.10000000000000002 4.93038065763132e-32 -2.4548346807957337e-48 -1 forward_v I I I I #
coedge $-1 -1 $-1 $155 $155 $130 $158 reversed $126 $-1 #
coedge $-1 -1 $-1 $156 $156 $129 $157 forward $179 $-1 #
edge $180 -1 $-1 $181 -3.1415926535897931 $181 3.1415926535897931 $129 $182 forward @7 unknown #
edge $183 -1 $-1 $184 -3.1415926535897931 $184 3.1415926535897931 $130 $185 forward @7 unknown #
color-adesk-attrib $-1 -1 $186 $-1 $132 7 #
vertex $-1 -1 $-1 $132 $187 #
ellipse-curve $-1 -1 $-1 80.833382457779265 -291.20312556326326 1140 1 7.273661547324616e-16 4.93038065763132e-32 -1.3841715389865254e-30 9.0317701437117349e-16 14.75 1 I I #
loop $-1 -1 $-1 $-1 $188 $120 #
DXID-attrib $-1 -1 $-1 $135 $106 @18 ASM_EDGE_FROM_STEP @4 3232 #
point $-1 -1 $-1 74.409556200257867 -289.70312556326326 1129 #
DXID-attrib $-1 -1 $-1 $138 $107 @18 ASM_EDGE_FROM_STEP @4 3231 #
coedge $-1 -1 $-1 $166 $166 $142 $167 reversed $170 $-1 #
edge $189 -1 $-1 $190 -3.1415926535897931 $190 3.1415926535897931 $142 $191 forward @7 unknown #
DXID-attrib $-1 -1 $-1 $143 $114 @18 ASM_FACE_FROM_STEP @14 stp-1M-37-4968 #
color-adesk-attrib $-1 -1 $192 $-1 $144 7 #
loop $-1 -1 $-1 $-1 $166 $144 #
plane-surface $-1 -1 $-1 73.909556200257867 -291.20312556326326 1151 1 7.273661547324616e-16 4.93038065763132e-32 4.93038065763132e-32 -2.4548346807957337e-48 -1 forward_v I I I I #
DXID-attrib $-1 -1 $-1 $147 $120 @18 ASM_FACE_FROM_STEP @14 stp-1M-37-4966 #
color-adesk-attrib $-1 -1 $193 $-1 $148 7 #
loop $-1 -1 $-1 $-1 $194 $148 #
plane-surface $-1 -1 $-1 73.909556200257867 -291.20312556326326 1129 1 7.273661547324616e-16 4.93038065763132e-32 4.93038065763132e-32 -2.4548346807957337e-48 -1 forward_v I I I I #
coedge $-1 -1 $-1 $176 $176 $150 $177 forward $153 $-1 #
edge $195 -1 $-1 $196 -3.1415926535897931 $196 3.1415926535897931 $176 $197 forward @7 unknown #
DXID-attrib $-1 -1 $-1 $152 $125 @18 ASM_FACE_FROM_STEP @14 stp-1M-37-4964 #
loop $-1 -1 $-1 $-1 $156 $125 #
color-adesk-attrib $-1 -1 $198 $-1 $157 7 #
vertex $-1 -1 $-1 $157 $199 #
ellipse-curve $-1 -1 $-1 79.009556200257862 -291.20312556326326 1140 -1 -7.273661547324616e-16 -4.93038065763132e-32 -1.3841715389865254e-30 9.0317701437117349e-16 14.75 1 I I #
color-adesk-attrib $-1 -1 $200 $-1 $158 7 #
vertex $-1 -1 $-1 $158 $201 #
ellipse-curve $-1 -1 $-1 80.929808300781616 -291.20312556326326 1140 -1 -7.273661547324616e-16 -4.93038065763132e-32 -1.3772737997237453e-30 8.9867621416122997e-16 14.676496354490498 1 I I #
DXID-attrib $-1 -1 $-1 $159 $132 @18 ASM_EDGE_FROM_STEP @4 3233 #
point $-1 -1 $-1 80.833382457779265 -291.20312556326326 1125.25 #
coedge $-1 -1 $-1 $188 $188 $194 $202 forward $162 $-1 #
color-adesk-attrib $-1 -1 $203 $-1 $167 7 #
vertex $-1 -1 $-1 $167 $204 #
ellipse-curve $-1 -1 $-1 73.909556200257867 -291.20312556326326 1151 1 7.273661547324616e-16 4.93038065763132e-32 7.2736615473246091e-16 -0.99999999999999911 3.8316754883881683e-47 1 I I #
DXID-attrib $-1 -1 $-1 $169 $144 @18 ASM_FACE_FROM_STEP @14 stp-1M-37-4969 #
DXID-attrib $-1 -1 $-1 $173 $148 @18 ASM_FACE_FROM_STEP @14 stp-1M-37-4967 #
coedge $-1 -1 $-1 $194 $194 $188 $202 reversed $174 $-1 #
color-adesk-attrib $-1 -1 $205 $-1 $177 7 #
vertex $-1 -1 $-1 $177 $206 #
ellipse-curve $-1 -1 $-1 78.909556200257867 -291.20312556326326 1140 1 7.273661547324616e-16 4.93038065763132e-32 -1.3747873251628879e-30 8.9705378037543681e-16 14.65 1 I I #
DXID-attrib $-1 -1 $-1 $180 $157 @18 ASM_EDGE_FROM_STEP @4 3235 #
point $-1 -1 $-1 79.009556200257862 -291.20312556326326 1125.25 #
DXID-attrib $-1 -1 $-1 $183 $158 @18 ASM_EDGE_FROM_STEP @4 3234 #
point $-1 -1 $-1 80.929808300781616 -291.20312556326326 1125.3235036455094 #
edge $207 -1 $-1 $208 -3.1415926535897931 $208 3.1415926535897931 $188 $209 forward @7 unknown #
DXID-attrib $-1 -1 $-1 $189 $167 @18 ASM_EDGE_FROM_STEP @4 3238 #
point $-1 -1 $-1 73.909556200257867 -290.20312556326326 1151 #
DXID-attrib $-1 -1 $-1 $195 $177 @18 ASM_EDGE_FROM_STEP @4 3236 #
point $-1 -1 $-1 78.909556200257867 -291.20312556326326 1125.3499999999999 #
color-adesk-attrib $-1 -1 $210 $-1 $202 7 #
vertex $-1 -1 $-1 $202 $211 #
ellipse-curve $-1 -1 $-1 73.909556200257867 -291.20312556326326 1129 1 7.273661547324616e-16 4.93038065763132e-32 7.273661547324616e-16 -1 3.8316754883881717e-47 1 I I #
DXID-attrib $-1 -1 $-1 $207 $202 @18 ASM_EDGE_FROM_STEP @4 3237 #
point $-1 -1 $-1 73.909556200257867 -290.20312556326326 1129 #
