700 517 1 0         
5 ZWCAD 12 ACIS 28.0 NT 24 Sat May 11 15:38:39 2024 
1 9.9999999999999995e-07 1e-10 
body $1 -1 $-1 $2 $-1 $-1 #
DXID-attrib $-1 -1 $-1 $-1 $0 @18 ASM_BODY_FROM_STEP @83 4833C3786ABADC43AA9D5AA360389E771898FB38|:|8CB3CBCEBE3339AC3139F7812237AD39DB573F35 #
lump $-1 -1 $-1 $-1 $3 $0 #
shell $-1 -1 $-1 $-1 $-1 $4 $-1 $2 #
face $5 -1 $-1 $6 $7 $3 $-1 $8 forward single #
fmesh-eye-attrib $-1 -1 $9 $-1 $4 #
face $10 -1 $-1 $11 $12 $3 $-1 $13 forward single #
loop $-1 -1 $-1 $-1 $14 $4 #
plane-surface $-1 -1 $-1 -708.88304925304328 -298.21343082102862 21.255753656496754 0.54694413860398916 -7.0950282112447742e-16 -0.83716910433122194 -2.1665143720912606e-15 -1 -5.679372464084941e-16 forward_v I I I I #
truecolor-adesk-attrib $-1 -1 $15 $5 $4 -1028476238 #
fmesh-eye-attrib $-1 -1 $16 $-1 $6 #
face $17 -1 $-1 $18 $19 $3 $-1 $20 forward single #
loop $-1 -1 $-1 $-1 $21 $6 #
plane-surface $-1 -1 $-1 -712.6838160153842 -298.21343082102862 15.189109442577159 -0.54694413860398894 7.0950282112447682e-16 0.83716910433122205 -0.83716910433122205 2.1243688444223756e-15 -0.54694413860398894 forward_v I I I I #
coedge $-1 -1 $-1 $22 $23 $24 $25 reversed $7 $-1 #
color-adesk-attrib $-1 -1 $26 $9 $4 253 #
truecolor-adesk-attrib $-1 -1 $27 $10 $6 -1028476238 #
fmesh-eye-attrib $-1 -1 $28 $-1 $11 #
face $29 -1 $-1 $30 $31 $3 $-1 $32 reversed single #
loop $-1 -1 $-1 $-1 $33 $11 #
plane-surface $-1 -1 $-1 -714.32464843119612 -298.21343082102862 17.700616755570824 0.83716910433122194 -2.0076086104623985e-15 0.54694413860398916 -2.0687663116054828e-15 -1 -5.0407592082205424e-16 forward_v I I I I #
coedge $-1 -1 $-1 $34 $35 $36 $37 reversed $12 $-1 #
coedge $-1 -1 $-1 $38 $14 $39 $40 forward $7 $-1 #
coedge $-1 -1 $-1 $14 $38 $41 $42 forward $7 $-1 #
coedge $-1 -1 $-1 $43 $44 $14 $25 forward $45 $-1 #
edge $46 -1 $-1 $47 2.0227659499895512 $48 3.0227659499895512 $14 $49 forward @7 unknown #
DXID-attrib $-1 -1 $-1 $15 $4 @18 ASM_FACE_FROM_STEP @14 stp-1M-55-9968 #
color-adesk-attrib $-1 -1 $50 $16 $6 253 #
truecolor-adesk-attrib $-1 -1 $51 $17 $11 -1028476238 #
fmesh-eye-attrib $-1 -1 $52 $-1 $18 #
face $53 -1 $-1 $54 $55 $3 $-1 $56 reversed single #
loop $-1 -1 $-1 $57 $58 $18 #
cone-surface $-1 -1 $-1 -708.06263304513777 -539.21343082102862 19.999999999999801 -2.0687663116054828e-15 -1 -5.0407592082205424e-16 -4.1858455216561099 1.0038043052311993e-14 -2.7347206930199457 1 I I 0 1 5 forward I I I I #
coedge $-1 -1 $-1 $59 $39 $44 $60 reversed $19 $-1 #
coedge $-1 -1 $-1 $61 $21 $62 $63 reversed $12 $-1 #
coedge $-1 -1 $-1 $21 $61 $64 $65 forward $12 $-1 #
coedge $-1 -1 $-1 $66 $67 $21 $37 forward $45 $-1 #
edge $68 -1 $-1 $69 2.0227659499895512 $70 3.0227659499895512 $21 $71 forward @7 unknown #
coedge $-1 -1 $-1 $23 $22 $72 $73 reversed $7 $-1 #
coedge $-1 -1 $-1 $33 $74 $22 $40 reversed $19 $-1 #
edge $75 -1 $-1 $47 1.1476247980192291 $76 2.1476247980192298 $22 $77 forward @7 unknown #
coedge $-1 -1 $-1 $78 $79 $23 $42 reversed $31 $-1 #
edge $80 -1 $-1 $81 -28.026503614151039 $48 -27.026503614151036 $23 $82 forward @7 unknown #
coedge $-1 -1 $-1 $83 $24 $79 $84 reversed $45 $-1 #
coedge $-1 -1 $-1 $24 $85 $33 $60 forward $45 $-1 #
loop $-1 -1 $-1 $86 $44 $87 #
truecolor-adesk-attrib $-1 -1 $88 $-1 $25 -1036992620 #
vertex $-1 -1 $-1 $25 $89 #
vertex $-1 -1 $-1 $25 $90 #
straight-curve $-1 -1 $-1 -717.25474029635529 -287.52604446678561 15.786312270456886 1.4485570439696136 -3.4737731948941651e-15 0.94637962692808542 F 2.0227659499895512 F 3.0227659499895512 #
DXID-attrib $-1 -1 $-1 $27 $6 @18 ASM_FACE_FROM_STEP @14 stp-1M-55-9969 #
color-adesk-attrib $-1 -1 $91 $28 $11 253 #
truecolor-adesk-attrib $-1 -1 $92 $29 $18 -1028476238 #
fmesh-eye-attrib $-1 -1 $93 $-1 $30 #
face $94 -1 $-1 $95 $96 $3 $-1 $97 forward single #
loop $-1 -1 $-1 $98 $99 $30 #
plane-surface $-1 -1 $-1 -712.24847856679321 -278.21343082102862 17.265279306979988 -2.0687663116054828e-15 -1 -5.0407592082205424e-16 -0.83716910433122194 2.0076086104623985e-15 -0.54694413860398916 forward_v I I I I #
loop $-1 -1 $-1 $-1 $100 $18 #
coedge $-1 -1 $-1 $79 $101 $102 $103 reversed $31 $-1 #
coedge $-1 -1 $-1 $74 $33 $104 $105 forward $19 $-1 #
edge $106 -1 $-1 $107 2.0004959929461146 $47 4.2826893142334717 $33 $108 forward @7 unknown #
coedge $-1 -1 $-1 $35 $34 $109 $110 forward $12 $-1 #
coedge $-1 -1 $-1 $111 $112 $34 $63 forward $113 $-1 #
edge $114 -1 $-1 $115 0 $69 1.0000000000000004 $34 $116 forward @7 unknown #
coedge $-1 -1 $-1 $101 $117 $35 $65 reversed $31 $-1 #
edge $118 -1 $-1 $119 25.878878816131717 $70 26.878878816131717 $35 $120 reversed @7 unknown #
coedge $-1 -1 $-1 $85 $36 $117 $121 reversed $45 $-1 #
coedge $-1 -1 $-1 $36 $83 $111 $122 forward $45 $-1 #
truecolor-adesk-attrib $-1 -1 $123 $-1 $37 -1036992620 #
vertex $-1 -1 $-1 $37 $124 #
vertex $-1 -1 $-1 $37 $125 #
straight-curve $-1 -1 $-1 -715.61390788054337 -288.90081717527164 13.274804957463218 1.4485570439696136 -3.4737731948941651e-15 0.94637962692808542 F 2.0227659499895512 F 3.0227659499895512 #
coedge $-1 -1 $-1 $126 $127 $38 $73 forward $98 $-1 #
edge $128 -1 $-1 $81 2.7565653356949134 $76 3.7565653356949134 $38 $129 forward @7 unknown #
coedge $-1 -1 $-1 $39 $59 $126 $130 reversed $19 $-1 #
truecolor-adesk-attrib $-1 -1 $131 $-1 $40 -1028476238 #
vertex $-1 -1 $-1 $40 $132 #
straight-curve $-1 -1 $-1 -714.32464843119612 -298.21343082102862 17.700616755570824 1.9265621383339594e-14 9.3126136457570006 4.6942642987449877e-15 F 1.1476247980192291 F 2.1476247980192298 #
coedge $-1 -1 $-1 $133 $41 $127 $134 reversed $31 $-1 #
coedge $-1 -1 $-1 $41 $58 $43 $84 forward $31 $-1 #
truecolor-adesk-attrib $-1 -1 $135 $-1 $42 -1028476238 #
vertex $-1 -1 $-1 $73 $136 #
straight-curve $-1 -1 $-1 -712.87609138722701 -539.21343082102862 18.646996382498791 -1.9265621383339534e-14 -9.3126136457569704 -4.6942642987449719e-15 F -28.026503614151039 F -27.026503614151036 #
coedge $-1 -1 $-1 $67 $43 $137 $138 forward $45 $-1 #
edge $139 -1 $-1 $140 0.93436958992473618 $48 1.0708872320704645 $79 $141 forward @7 unknown #
coedge $-1 -1 $-1 $44 $66 $142 $143 forward $45 $-1 #
loop $-1 -1 $-1 $-1 $144 $87 #
face $145 -1 $-1 $146 $45 $3 $-1 $147 reversed single #
color-adesk-attrib $-1 -1 $148 $46 $25 135 #
point $-1 -1 $-1 -714.32464843119612 -287.52604446678561 17.700616755570831 #
point $-1 -1 $-1 -712.87609138722655 -287.52604446678561 18.646996382498916 #
DXID-attrib $-1 -1 $-1 $51 $11 @18 ASM_FACE_FROM_STEP @14 stp-1M-55-9970 #
color-adesk-attrib $-1 -1 $149 $52 $18 253 #
truecolor-adesk-attrib $-1 -1 $150 $53 $30 -1028476238 #
fmesh-eye-attrib $-1 -1 $151 $-1 $54 #
face $152 -1 $-1 $153 $154 $3 $-1 $155 reversed single #
loop $-1 -1 $-1 $156 $157 $54 #
cone-surface $-1 -1 $-1 -708.06263304513777 -539.21343082102862 19.999999999999801 -2.0687663116054828e-15 -1 -5.0407592082205424e-16 -8.3716910433122198 2.0076086104623986e-14 -5.4694413860398914 1 I I 0 1 10 forward I I I I #
loop $-1 -1 $-1 $-1 $127 $30 #
coedge $-1 -1 $-1 $99 $99 $158 $159 forward $55 $-1 #
coedge $-1 -1 $-1 $100 $100 $160 $161 forward $57 $-1 #
coedge $-1 -1 $-1 $58 $64 $162 $163 forward $31 $-1 #
coedge $-1 -1 $-1 $164 $137 $58 $103 forward $165 $-1 #
edge $166 -1 $-1 $140 -26.878878816131717 $167 -25.878878816131717 $58 $168 forward @7 unknown #
coedge $-1 -1 $-1 $142 $169 $59 $105 reversed $170 $-1 #
edge $171 -1 $-1 $107 1.1476247980192291 $172 2.1476247980192298 $59 $173 forward @7 unknown #
truecolor-adesk-attrib $-1 -1 $174 $-1 $60 -1036992620 #
vertex $-1 -1 $-1 $60 $175 #
ellipse-curve $-1 -1 $-1 -713.50423222329016 -288.21343082102862 16.444863099073999 0.83716910433122194 -2.0076086104623985e-15 0.54694413860398916 -3.4134644141490467e-15 -1.6499999999999999 -8.3172526935638936e-16 1 F 2.0004959929461146 F 4.2826893142334717 #
coedge $-1 -1 $-1 $176 $162 $61 $110 reversed $177 $-1 #
edge $178 -1 $-1 $115 0 $119 0.99999999999999989 $61 $179 forward @7 unknown #
coedge $-1 -1 $-1 $180 $62 $67 $122 reversed $113 $-1 #
coedge $-1 -1 $-1 $62 $180 $176 $181 forward $113 $-1 #
loop $-1 -1 $-1 $-1 $111 $182 #
truecolor-adesk-attrib $-1 -1 $183 $-1 $63 -1028476238 #
vertex $-1 -1 $-1 $63 $184 #
straight-curve $-1 -1 $-1 -712.6838160153842 -298.21343082102862 15.189109442577159 1.9265621383339594e-14 9.3126136457570006 4.6942642987449877e-15 F 0 F 1.0000000000000004 #
coedge $-1 -1 $-1 $64 $133 $66 $121 forward $31 $-1 #
truecolor-adesk-attrib $-1 -1 $185 $-1 $65 -1028476238 #
vertex $-1 -1 $-1 $110 $186 #
straight-curve $-1 -1 $-1 -711.23525897141508 -539.21343082102862 16.135489069505123 -1.9265621383339594e-14 -9.3126136457570006 -4.6942642987449877e-15 F -26.878878816131717 F -25.878878816131717 #
edge $187 -1 $-1 $188 0.43305538442593688 $70 0.56957302657166187 $117 $189 forward @7 unknown #
edge $190 -1 $-1 $191 -1.1410966606436788 $69 1.1410966606436785 $111 $192 forward @7 unknown #
color-adesk-attrib $-1 -1 $193 $68 $37 135 #
point $-1 -1 $-1 -712.68381601538408 -288.90081717527164 15.189109442577164 #
point $-1 -1 $-1 -711.23525897141462 -288.90081717527164 16.135489069505248 #
coedge $-1 -1 $-1 $194 $72 $74 $130 forward $98 $-1 #
coedge $-1 -1 $-1 $72 $194 $78 $134 forward $98 $-1 #
truecolor-adesk-attrib $-1 -1 $195 $-1 $73 -1028476238 #
straight-curve $-1 -1 $-1 -708.88304925304317 -278.21343082102862 21.255753656496765 -1.4485570439696136 3.4737731948941651e-15 -0.94637962692808542 F 2.7565653356949134 F 3.7565653356949134 #
edge $196 -1 $-1 $76 0 $172 1 $74 $197 forward @7 unknown #
color-adesk-attrib $-1 -1 $198 $75 $40 253 #
point $-1 -1 $-1 -714.32464843119612 -278.21343082102862 17.700616755570834 #
coedge $-1 -1 $-1 $117 $78 $199 $200 reversed $31 $-1 #
edge $201 -1 $-1 $202 0.30469265401539747 $81 5.9784926531641887 $78 $203 forward @7 unknown #
color-adesk-attrib $-1 -1 $204 $80 $42 253 #
point $-1 -1 $-1 -712.87609138722655 -278.21343082102862 18.646996382498923 #
coedge $-1 -1 $-1 $102 $205 $83 $138 reversed $165 $-1 #
edge $206 -1 $-1 $140 -3.0227659499895512 $191 -2.0227659499895512 $137 $207 reversed @7 unknown #
truecolor-adesk-attrib $-1 -1 $208 $-1 $84 -1036992620 #
vertex $-1 -1 $-1 $103 $209 #
intcurve-curve $-1 -1 $-1 forward { surfintcur full nubs 3 periodic 17 
	0 3 0.062678206793826782 2 0.12535641358765356 2 0.18800675816852663 2 0.25065710274939967 2 
	0.31330744733027271 2 0.37595779191114581 2 0.43863599870497261 2 0.50131420549879935 2 0.56399241229262609 2 
	0.62667061908645283 2 0.68932096366732587 2 0.75197130824819902 2 0.81462165282907217 2 0.87727199740994521 2 
	0.93995020420377196 2 1.0026284109975987 3 
	-712.91644923061995 -288.21343082102862 18.799804833560223 
	-712.91644923061995 -288.00450346504931 18.799804833560223 
	-712.90626884002427 -287.78282980922381 18.756195631886953 
	-712.85913945095422 -287.37683259824439 18.585297578539787 
	-712.82146065669315 -287.19235660087406 18.458573418046374 
	-712.72067768742431 -286.90111740963459 18.176531790249658 
	-712.65061412164494 -286.77436978546393 18.001918341981 
	-712.47193428118851 -286.60548491636496 17.63357584543115 
	-712.3626993626267 -286.56343082102865 17.440109083176022 
	-712.13425777095995 -286.56343082102865 17.090449530783943 
	-712.00096694436138 -286.60548491636496 16.912699112850877 
	-711.73542657745793 -286.77436978546393 16.601104835472565 
	-711.60366574254613 -286.90111740963459 16.466799802248591 
	-711.38586557465464 -287.19235660087406 16.261208524293178 
	-711.28495118805859 -287.37683259824439 16.175797805014753 
	-711.14738004285027 -287.78282980922381 16.063987680437197 
	-711.11153357322678 -288.00450346504931 16.03714678926719 
	-711.11153357322678 -288.42235817700805 16.03714678926719 
	-711.14738004285027 -288.64403183283355 16.063987680437197 
	-711.28495118805859 -289.05002904381286 16.175797805014753 
	-711.38586557465464 -289.2345050411833 16.261208524293178 
	-711.60366574254613 -289.52574423242277 16.466799802248591 
	-711.73542657745793 -289.65249185659331 16.601104835472562 
	-712.00096694436138 -289.82137672569229 16.912699112850873 
	-712.13425777095995 -289.86343082102871 17.090449530783943 
	-712.3626993626267 -289.86343082102871 17.440109083176022 
	-712.47193428118851 -289.82137672569229 17.63357584543115 
	-712.65061412164494 -289.65249185659331 18.001918341981 
	-712.72067768742431 -289.52574423242277 18.176531790249658 
	-712.82146065669315 -289.2345050411833 18.458573418046374 
	-712.85913945095422 -289.05002904381286 18.585297578539787 
	-712.90626884002427 -288.64403183283355 18.756195631886953 
	-712.91644923061995 -288.42235817700805 18.799804833560223 
	-712.91644923061995 -288.21343082102862 18.799804833560223 
	0.0014985518614839531 
	cone -716.43432408844933 -288.21343082102862 14.53055861396005 0.83716910433122194 -2.0076086104623985e-15 0.54694413860398916 3.4134644141490467e-15 1.6499999999999999 8.3172526935638936e-16 1 I I 0 1 1.6500000000000001 forward I I I I 
	cone -708.06263304513777 -539.21343082102862 19.999999999999801 -2.0687663116054828e-15 -1 -5.0407592082205424e-16 -4.1858455216561099 1.0038043052311993e-14 -2.7347206930199457 1 I I 0 -1 5 forward I I I I 
	nullbs 
	nullbs 
	I I 
	0 
	0 
	0 
	} F 0.93436958992473618 F 1.0708872320704645 #
coedge $-1 -1 $-1 $199 $104 $85 $143 reversed $170 $-1 #
edge $210 -1 $-1 $188 -3.0227659499895512 $107 -2.0227659499895512 $142 $211 reversed @7 unknown #
coedge $-1 -1 $-1 $144 $144 $212 $213 reversed $86 $-1 #
fmesh-eye-attrib $-1 -1 $214 $-1 $87 #
face $215 -1 $-1 $-1 $216 $3 $-1 $217 reversed single #
cone-surface $-1 -1 $-1 -716.43432408844933 -288.21343082102862 14.53055861396005 0.83716910433122194 -2.0076086104623985e-15 0.54694413860398916 3.4134644141490467e-15 1.6499999999999999 8.3172526935638936e-16 1 I I 0 1 1.6500000000000001 forward I I I I #
DXID-attrib $-1 -1 $-1 $88 $25 @18 ASM_EDGE_FROM_STEP @4 6116 #
DXID-attrib $-1 -1 $-1 $92 $18 @18 ASM_FACE_FROM_STEP @14 stp-1M-55-9971 #
color-adesk-attrib $-1 -1 $218 $93 $30 253 #
truecolor-adesk-attrib $-1 -1 $219 $94 $54 -1028476238 #
fmesh-eye-attrib $-1 -1 $220 $-1 $95 #
face $221 -1 $-1 $222 $223 $3 $-1 $224 forward single #
loop $-1 -1 $-1 $225 $226 $95 #
plane-surface $-1 -1 $-1 -714.75998587978711 -328.21343082102862 15.624446891167992 2.0687663116054828e-15 1 5.0407592082205424e-16 0.83716910433122194 -2.0076086104623985e-15 0.54694413860398916 forward_v I I I I #
loop $-1 -1 $-1 $227 $228 $54 #
coedge $-1 -1 $-1 $157 $157 $229 $230 forward $96 $-1 #
coedge $-1 -1 $-1 $158 $158 $99 $159 reversed $231 $-1 #
edge $232 -1 $-1 $233 -6.2831853071795862 $233 0 $99 $234 reversed @7 unknown #
coedge $-1 -1 $-1 $160 $160 $100 $161 reversed $235 $-1 #
edge $236 -1 $-1 $237 0.50131420549879957 $237 1.5039426164963987 $100 $238 forward @7 unknown #
coedge $-1 -1 $-1 $109 $239 $101 $163 reversed $177 $-1 #
edge $240 -1 $-1 $119 0.30469265401539736 $167 5.9784926531641887 $101 $241 forward @7 unknown #
coedge $-1 -1 $-1 $205 $102 $239 $242 forward $165 $-1 #
loop $-1 -1 $-1 $-1 $137 $243 #
truecolor-adesk-attrib $-1 -1 $244 $-1 $103 -1028476238 #
vertex $-1 -1 $-1 $103 $245 #
straight-curve $-1 -1 $-1 -712.87609138722701 -539.21343082102862 18.646996382498791 -1.9265621383339594e-14 -9.3126136457570006 -4.6942642987449877e-15 F -26.878878816131717 F -25.878878816131717 #
coedge $-1 -1 $-1 $104 $199 $194 $246 reversed $170 $-1 #
loop $-1 -1 $-1 $-1 $142 $247 #
truecolor-adesk-attrib $-1 -1 $248 $-1 $105 -1028476238 #
vertex $-1 -1 $-1 $105 $249 #
straight-curve $-1 -1 $-1 -712.6838160153842 -298.21343082102862 15.189109442577159 1.9265621383339594e-14 9.3126136457570006 4.6942642987449877e-15 F 1.1476247980192291 F 2.1476247980192298 #
color-adesk-attrib $-1 -1 $250 $106 $60 135 #
point $-1 -1 $-1 -712.68381601538408 -287.52604446678561 15.189109442577166 #
coedge $-1 -1 $-1 $239 $109 $112 $181 reversed $177 $-1 #
loop $-1 -1 $-1 $-1 $162 $251 #
truecolor-adesk-attrib $-1 -1 $252 $-1 $110 -1028476238 #
straight-curve $-1 -1 $-1 -712.6838160153842 -298.21343082102862 15.189109442577159 1.4485570439696138 -3.4737731948941651e-15 0.94637962692808497 F 0 F 0.99999999999999989 #
coedge $-1 -1 $-1 $112 $111 $205 $253 reversed $113 $-1 #
edge $254 -1 $-1 $255 0 $115 1 $176 $256 forward @7 unknown #
face $257 -1 $-1 $258 $113 $3 $-1 $259 forward single #
color-adesk-attrib $-1 -1 $260 $114 $63 253 #
point $-1 -1 $-1 -712.6838160153842 -298.21343082102862 15.189109442577159 #
color-adesk-attrib $-1 -1 $261 $118 $65 253 #
point $-1 -1 $-1 -711.23525897141462 -298.21343082102862 16.135489069505244 #
truecolor-adesk-attrib $-1 -1 $262 $-1 $121 -1036992620 #
vertex $-1 -1 $-1 $200 $263 #
intcurve-curve $-1 -1 $-1 forward { surfintcur full nubs 3 periodic 17 
	0 3 0.062678206793826782 2 0.12535641358765356 2 0.18800675816852663 2 0.25065710274939967 2 
	0.31330744733027271 2 0.37595779191114581 2 0.43863599870497261 2 0.50131420549879935 2 0.56399241229262609 2 
	0.62667061908645283 2 0.68932096366732587 2 0.75197130824819902 2 0.81462165282907217 2 0.87727199740994521 2 
	0.93995020420377196 2 1.0026284109975987 3 
	-712.91644923061995 -288.21343082102862 18.799804833560223 
	-712.91644923061995 -288.00450346504931 18.799804833560223 
	-712.90626884002427 -287.78282980922381 18.756195631886953 
	-712.85913945095422 -287.37683259824439 18.585297578539787 
	-712.82146065669315 -287.19235660087406 18.458573418046374 
	-712.72067768742431 -286.90111740963459 18.176531790249658 
	-712.65061412164494 -286.77436978546393 18.001918341981 
	-712.47193428118851 -286.60548491636496 17.63357584543115 
	-712.3626993626267 -286.56343082102865 17.440109083176022 
	-712.13425777095995 -286.56343082102865 17.090449530783943 
	-712.00096694436138 -286.60548491636496 16.912699112850877 
	-711.73542657745793 -286.77436978546393 16.601104835472565 
	-711.60366574254613 -286.90111740963459 16.466799802248591 
	-711.38586557465464 -287.19235660087406 16.261208524293178 
	-711.28495118805859 -287.37683259824439 16.175797805014753 
	-711.14738004285027 -287.78282980922381 16.063987680437197 
	-711.11153357322678 -288.00450346504931 16.03714678926719 
	-711.11153357322678 -288.42235817700805 16.03714678926719 
	-711.14738004285027 -288.64403183283355 16.063987680437197 
	-711.28495118805859 -289.05002904381286 16.175797805014753 
	-711.38586557465464 -289.2345050411833 16.261208524293178 
	-711.60366574254613 -289.52574423242277 16.466799802248591 
	-711.73542657745793 -289.65249185659331 16.601104835472562 
	-712.00096694436138 -289.82137672569229 16.912699112850873 
	-712.13425777095995 -289.86343082102871 17.090449530783943 
	-712.3626993626267 -289.86343082102871 17.440109083176022 
	-712.47193428118851 -289.82137672569229 17.63357584543115 
	-712.65061412164494 -289.65249185659331 18.001918341981 
	-712.72067768742431 -289.52574423242277 18.176531790249658 
	-712.82146065669315 -289.2345050411833 18.458573418046374 
	-712.85913945095422 -289.05002904381286 18.585297578539787 
	-712.90626884002427 -288.64403183283355 18.756195631886953 
	-712.91644923061995 -288.42235817700805 18.799804833560223 
	-712.91644923061995 -288.21343082102862 18.799804833560223 
	0.0014985518614839531 
	cone -716.43432408844933 -288.21343082102862 14.53055861396005 0.83716910433122194 -2.0076086104623985e-15 0.54694413860398916 3.4134644141490467e-15 1.6499999999999999 8.3172526935638936e-16 1 I I 0 1 1.6500000000000001 forward I I I I 
	cone -708.06263304513777 -539.21343082102862 19.999999999999801 -2.0687663116054828e-15 -1 -5.0407592082205424e-16 -4.1858455216561099 1.0038043052311993e-14 -2.7347206930199457 1 I I 0 -1 5 forward I I I I 
	nullbs 
	nullbs 
	I I 
	0 
	0 
	0 
	} F 0.43305538442593688 F 0.56957302657166187 #
truecolor-adesk-attrib $-1 -1 $264 $-1 $122 -1036992620 #
vertex $-1 -1 $-1 $138 $265 #
ellipse-curve $-1 -1 $-1 -713.50423222329016 -288.21343082102862 16.444863099073999 0.83716910433122194 -2.0076086104623985e-15 0.54694413860398916 -3.4134644141490467e-15 -1.6499999999999999 -8.3172526935638936e-16 1 F -1.1410966606436788 F 1.1410966606436785 #
DXID-attrib $-1 -1 $-1 $123 $37 @18 ASM_EDGE_FROM_STEP @4 6120 #
coedge $-1 -1 $-1 $127 $126 $169 $246 forward $98 $-1 #
color-adesk-attrib $-1 -1 $266 $128 $73 253 #
truecolor-adesk-attrib $-1 -1 $267 $-1 $130 -1028476238 #
straight-curve $-1 -1 $-1 -714.32464843119612 -278.21343082102862 17.700616755570834 1.6408324158119678 -2.1285084633734325e-15 -2.511507312993666 F 0 F 1 #
DXID-attrib $-1 -1 $-1 $131 $40 @18 ASM_EDGE_FROM_STEP @4 6117 #
coedge $-1 -1 $-1 $169 $142 $133 $200 forward $170 $-1 #
edge $268 -1 $-1 $188 27.026503614151036 $202 28.026503614151039 $133 $269 reversed @7 unknown #
truecolor-adesk-attrib $-1 -1 $270 $-1 $134 -1028476238 #
vertex $-1 -1 $-1 $134 $271 #
ellipse-curve $-1 -1 $-1 -708.0626330451372 -278.21343082102862 19.999999999999932 -2.0687663116054828e-15 -1 -5.0407592082205424e-16 -4.1858455216561099 1.0038043052311993e-14 -2.7347206930199457 1 F 0.30469265401539747 F 5.9784926531641887 #
DXID-attrib $-1 -1 $-1 $135 $42 @18 ASM_EDGE_FROM_STEP @4 6119 #
coedge $-1 -1 $-1 $137 $164 $180 $253 forward $165 $-1 #
truecolor-adesk-attrib $-1 -1 $272 $-1 $138 -1036992620 #
straight-curve $-1 -1 $-1 -717.25474029635529 -288.90081717527164 15.786312270456886 1.4485570439696136 -3.4737731948941651e-15 0.94637962692808542 F 2.0227659499895512 F 3.0227659499895512 #
color-adesk-attrib $-1 -1 $273 $139 $84 135 #
point $-1 -1 $-1 -712.87609138722655 -288.90081717527164 18.646996382498916 #
truecolor-adesk-attrib $-1 -1 $274 $-1 $143 -1036992620 #
straight-curve $-1 -1 $-1 -715.61390788054337 -287.52604446678561 13.274804957463219 1.4485570439696136 -3.4737731948941651e-15 0.94637962692808542 F 2.0227659499895512 F 3.0227659499895512 #
coedge $-1 -1 $-1 $212 $212 $144 $213 forward $227 $-1 #
edge $275 -1 $-1 $276 -0.2491033389901976 $276 0.7473100169705873 $212 $277 forward @7 unknown #
truecolor-adesk-attrib $-1 -1 $278 $145 $87 -1036992620 #
fmesh-eye-attrib $-1 -1 $279 $-1 $146 #
loop $-1 -1 $-1 $235 $280 $146 #
cone-surface $-1 -1 $-1 -713.53207443117708 -288.21346169962362 28.371691043312147 0.54694413860398905 -7.0950282112447712e-16 -0.83716910433122205 -1.3813290221465162 3.5052085932969194e-15 -0.90245782869658187 1 I I 0 1 1.6500000000000001 forward I I I I #
DXID-attrib $-1 -1 $-1 $150 $30 @18 ASM_FACE_FROM_STEP @14 stp-1M-55-9972 #
color-adesk-attrib $-1 -1 $281 $151 $54 253 #
truecolor-adesk-attrib $-1 -1 $282 $152 $95 -1028476238 #
fmesh-eye-attrib $-1 -1 $283 $-1 $153 #
face $284 -1 $-1 $285 $286 $3 $-1 $287 reversed single #
loop $-1 -1 $-1 $288 $289 $153 #
cone-surface $-1 -1 $-1 -708.06263304513777 -539.21343082102862 19.999999999999801 -2.0687663116054828e-15 -1 -5.0407592082205424e-16 -6.6973528346497755 1.6060868883699188e-14 -4.3755531088319133 1 I I 0 1 8 forward I I I I #
loop $-1 -1 $-1 $-1 $290 $95 #
coedge $-1 -1 $-1 $226 $226 $291 $292 forward $154 $-1 #
loop $-1 -1 $-1 $293 $212 $54 #
coedge $-1 -1 $-1 $228 $228 $280 $294 forward $156 $-1 #
coedge $-1 -1 $-1 $229 $229 $157 $230 reversed $295 $-1 #
edge $296 -1 $-1 $297 0 $297 6.2831853071795862 $157 $298 forward @7 unknown #
loop $-1 -1 $-1 $295 $158 $299 #
truecolor-adesk-attrib $-1 -1 $300 $-1 $159 -1028476238 #
vertex $-1 -1 $-1 $159 $301 #
ellipse-curve $-1 -1 $-1 -708.0626330451372 -278.21343082102862 19.999999999999932 -2.0687663116054828e-15 -1 -5.0407592082205424e-16 -7.9531064911466087 1.9072281799392786e-14 -5.1959693167378971 1 I I #
loop $-1 -1 $-1 $-1 $160 $146 #
truecolor-adesk-attrib $-1 -1 $302 $-1 $161 -1036992620 #
vertex $-1 -1 $-1 $161 $303 #
intcurve-curve $-1 -1 $-1 forward { surfintcur full nubs 3 periodic 17 
	0 3 0.062678206793826768 2 0.12535641358765354 2 0.18800675816852666 2 0.25065710274939978 2 
	0.31330744733027294 2 0.37595779191114603 2 0.43863599870497283 2 0.50131420549879957 2 0.56399241229262631 2 
	0.62667061908645305 2 0.6893209636673262 2 0.75197130824819935 2 0.81462165282907251 2 0.87727199740994566 2 
	0.9399502042037724 2 1.0026284109975991 3 
	-709.2628282115769 -288.21346169962362 24.853816185482724 
	-709.2628282115769 -288.00453434364431 24.853816185482724 
	-709.30643741325025 -287.78286068781881 24.843635794887078 
	-709.47733546659731 -287.3768634768395 24.796506405816984 
	-709.60405962709069 -287.19238747946906 24.75882761155588 
	-709.88610125488754 -286.90114828822959 24.658044642286971 
	-710.06071470315612 -286.77440066405904 24.587981076507688 
	-710.42905719970599 -286.60551579496007 24.409301236051235 
	-710.62252396196118 -286.56346169962364 24.300066317489467 
	-710.97218351435322 -286.56346169962364 24.071624725822609 
	-711.14993393228633 -286.60551579496007 23.938333899224158 
	-711.46152820966449 -286.77440066405904 23.672793532320732 
	-711.5958332428886 -286.90114828822959 23.541032697408806 
	-711.80142452084397 -287.19238747946906 23.323232529517366 
	-711.88683524012231 -287.3768634768395 23.222318142921239 
	-711.9986453647 -287.78286068781881 23.084746997712937 
	-712.02548625586996 -288.00453434364431 23.048900528089561 
	-712.02548625586996 -288.42238905560316 23.048900528089561 
	-711.9986453647 -288.64406271142855 23.084746997712937 
	-711.88683524012231 -289.05005992240785 23.222318142921235 
	-711.80142452084397 -289.2345359197783 23.323232529517366 
	-711.5958332428886 -289.52577511101777 23.541032697408802 
	-711.46152820966449 -289.65252273518831 23.672793532320732 
	-711.14993393228633 -289.82140760428729 23.938333899224155 
	-710.97218351435322 -289.86346169962371 24.071624725822609 
	-710.62252396196118 -289.86346169962371 24.300066317489467 
	-710.42905719970599 -289.82140760428729 24.409301236051231 
	-710.06071470315612 -289.65252273518831 24.587981076507688 
	-709.88610125488754 -289.52577511101777 24.658044642286971 
	-709.60405962709069 -289.2345359197783 24.758827611555876 
	-709.47733546659731 -289.05005992240785 24.796506405816984 
	-709.30643741325025 -288.64406271142855 24.843635794887078 
	-709.2628282115769 -288.42238905560316 24.853816185482724 
	-709.2628282115769 -288.21346169962362 24.853816185482724 
	0.0014985518614769142 
	cone -713.53207443117708 -288.21346169962362 28.371691043312147 0.54694413860398905 -7.0950282112447712e-16 -0.83716910433122205 -1.3813290221465162 3.5052085932969194e-15 -0.90245782869658187 1 I I 0 1 1.6500000000000001 forward I I I I 
	cone -708.06263304513777 -539.21343082102862 19.999999999999801 -2.0687663116054828e-15 -1 -5.0407592082205424e-16 -4.1858455216561099 1.0038043052311993e-14 -2.7347206930199457 1 I I 0 -1 5 forward I I I I 
	nullbs 
	nullbs 
	I I 
	0 
	0 
	0 
	} I I #
coedge $-1 -1 $-1 $162 $176 $164 $242 reversed $177 $-1 #
truecolor-adesk-attrib $-1 -1 $304 $-1 $163 -1028476238 #
ellipse-curve $-1 -1 $-1 -708.0626330451372 -298.21343082102862 19.999999999999922 -2.0687663116054828e-15 -1 -5.0407592082205424e-16 -4.1858455216561099 1.0038043052311993e-14 -2.7347206930199457 1 F 0.30469265401539736 F 5.9784926531641887 #
edge $305 -1 $-1 $167 2.7565653356949147 $255 3.7565653356949147 $239 $306 forward @7 unknown #
face $307 -1 $-1 $247 $165 $3 $-1 $308 forward single #
color-adesk-attrib $-1 -1 $309 $166 $103 253 #
point $-1 -1 $-1 -712.87609138722655 -298.21343082102862 18.646996382498909 #
edge $310 -1 $-1 $172 0 $202 0.99999999999999989 $194 $311 forward @7 unknown #
face $312 -1 $-1 $182 $170 $3 $-1 $313 forward single #
color-adesk-attrib $-1 -1 $314 $171 $105 253 #
point $-1 -1 $-1 -712.68381601538408 -278.21343082102862 15.18910944257717 #
DXID-attrib $-1 -1 $-1 $174 $60 @18 ASM_EDGE_FROM_STEP @4 6124 #
face $315 -1 $-1 $243 $177 $3 $-1 $316 reversed single #
color-adesk-attrib $-1 -1 $317 $178 $110 253 #
edge $318 -1 $-1 $255 0 $191 1.0000000000000004 $205 $319 forward @7 unknown #
truecolor-adesk-attrib $-1 -1 $320 $-1 $181 -1028476238 #
vertex $-1 -1 $-1 $181 $321 #
straight-curve $-1 -1 $-1 -714.32464843119612 -298.21343082102862 17.700616755570824 1.6408324158119678 -2.1285084633734325e-15 -2.511507312993666 F 0 F 1 #
fmesh-eye-attrib $-1 -1 $322 $-1 $182 #
face $323 -1 $-1 $299 $324 $3 $-1 $325 forward single #
plane-surface $-1 -1 $-1 -714.32464843119612 -298.21343082102862 17.700616755570824 0.83716910433122194 -2.0076086104623985e-15 0.54694413860398916 -2.0687663116054828e-15 -1 -5.0407592082205424e-16 forward_v I I I I #
DXID-attrib $-1 -1 $-1 $183 $63 @18 ASM_EDGE_FROM_STEP @4 6121 #
DXID-attrib $-1 -1 $-1 $185 $65 @18 ASM_EDGE_FROM_STEP @4 6123 #
color-adesk-attrib $-1 -1 $326 $187 $121 135 #
point $-1 -1 $-1 -711.23525897141462 -287.52604446678561 16.135489069505251 #
color-adesk-attrib $-1 -1 $327 $190 $122 135 #
point $-1 -1 $-1 -714.32464843119612 -288.90081717527164 17.700616755570831 #
DXID-attrib $-1 -1 $-1 $195 $73 @18 ASM_EDGE_FROM_STEP @4 6118 #
color-adesk-attrib $-1 -1 $328 $196 $130 253 #
truecolor-adesk-attrib $-1 -1 $329 $-1 $200 -1028476238 #
straight-curve $-1 -1 $-1 -711.23525897141508 -539.21343082102862 16.135489069505123 -1.9265621383339534e-14 -9.3126136457569704 -4.6942642987449719e-15 F -28.026503614151039 F -27.026503614151036 #
color-adesk-attrib $-1 -1 $330 $201 $134 253 #
point $-1 -1 $-1 -711.23525897141451 -278.21343082102862 16.135489069505255 #
color-adesk-attrib $-1 -1 $331 $206 $138 135 #
DXID-attrib $-1 -1 $-1 $208 $84 @18 ASM_EDGE_FROM_STEP @4 6128 #
color-adesk-attrib $-1 -1 $332 $210 $143 135 #
truecolor-adesk-attrib $-1 -1 $333 $-1 $213 -1036992620 #
vertex $-1 -1 $-1 $213 $334 #
intcurve-curve $-1 -1 $-1 reversed { surfintcur full nubs 3 periodic 17 
	0 3 0.062276633226179323 2 0.12455326645235865 2 0.18682830272127743 2 0.24910333899019621 2 
	0.31137837525911499 2 0.37365341152803377 2 0.4359300447542131 2 0.49820667798039242 2 0.56048331120657169 2 
	0.62275994443275107 2 0.68503498070166979 2 0.74731001697058863 2 0.80958505323950747 2 0.87186008950842631 2 
	0.93413672273460557 2 0.99641335596078495 3 
	-717.22203589346725 -288.21343082102862 15.986854168859033 
	-717.22203589346725 -288.00584204360803 15.986854168859034 
	-717.20535652134527 -287.7846813129828 15.94810231923036 
	-717.13494899671468 -287.37827103642144 15.792821543318073 
	-717.08090557557762 -287.19298824038992 15.676522837674078 
	-716.9496622593814 -286.90042477489658 15.412799891107273 
	-716.8636051506553 -286.77350141686611 15.247700659216246 
	-716.66286299525336 -286.60499402909966 14.893386265855312 
	-716.54786064201153 -286.56343082102865 14.704341068411519 
	-716.32078753488736 -286.56343082102865 14.356776159508552 
	-716.19386264519039 -286.60499402909966 14.175520262216565 
	-715.95003131188241 -286.77350141686611 13.849357138618256 
	-715.83340797952349 -286.90042477489658 13.704227607912651 
	-715.64461955047705 -287.19298824038992 13.478100365745252 
	-715.5598262167855 -287.37827103642144 13.381891369990495 
	-715.44590782269847 -287.7846813129828 13.255037365792187 
	-715.41712023607408 -288.00584204360803 13.224196124566003 
	-715.41712023607408 -288.42101959844922 13.224196124566001 
	-715.44590782269847 -288.64218032907445 13.255037365792187 
	-715.5598262167855 -289.04859060563581 13.381891369990495 
	-715.64461955047716 -289.23387340166732 13.47810036574525 
	-715.8334079795236 -289.52643686716078 13.704227607912649 
	-715.95003131188241 -289.65336022519114 13.849357138618256 
	-716.19386264519039 -289.8218676129577 14.175520262216562 
	-716.32078753488736 -289.8634308210286 14.35677615950855 
	-716.54786064201153 -289.8634308210286 14.704341068411518 
	-716.66286299525336 -289.8218676129577 14.893386265855309 
	-716.8636051506553 -289.65336022519114 15.247700659216246 
	-716.9496622593814 -289.52643686716078 15.412799891107269 
	-717.08090557557762 -289.23387340166732 15.676522837674078 
	-717.13494899671468 -289.04859060563581 15.792821543318073 
	-717.20535652134527 -288.64218032907445 15.948102319230358 
	-717.22203589346725 -288.42101959844922 15.986854168859033 
	-717.22203589346725 -288.21343082102862 15.986854168859033 
	0.0014386054792956901 
	cone -716.43432408844933 -288.21343082102862 14.53055861396005 0.83716910433122194 -2.0076086104623985e-15 0.54694413860398916 3.4134644141490467e-15 1.6499999999999999 8.3172526935638936e-16 1 I I 0 1 1.6500000000000001 forward I I I I 
	cone -708.06263304513777 -539.21343082102862 19.999999999999801 -2.0687663116054828e-15 -1 -5.0407592082205424e-16 -8.3716910433122198 2.0076086104623986e-14 -5.4694413860398914 1 I I 0 -1 10 forward I I I I 
	nullbs 
	nullbs 
	I I 
	0 
	0 
	0 
	} I I #
color-adesk-attrib $-1 -1 $335 $214 $87 135 #
truecolor-adesk-attrib $-1 -1 $336 $215 $146 -1036992620 #
coedge $-1 -1 $-1 $280 $280 $228 $294 reversed $216 $-1 #
DXID-attrib $-1 -1 $-1 $219 $54 @18 ASM_FACE_FROM_STEP @14 stp-1M-55-9973 #
color-adesk-attrib $-1 -1 $337 $220 $95 253 #
truecolor-adesk-attrib $-1 -1 $338 $221 $153 -1028476238 #
fmesh-eye-attrib $-1 -1 $339 $-1 $222 #
face $340 -1 $-1 $341 $342 $3 $-1 $343 forward single #
loop $-1 -1 $-1 $344 $345 $222 #
plane-surface $-1 -1 $-1 -714.75998587978734 -459.21343082102862 15.624446891167928 2.0687663116054828e-15 1 5.0407592082205424e-16 0.83716910433122194 -2.0076086104623985e-15 0.54694413860398916 forward_v I I I I #
loop $-1 -1 $-1 $-1 $346 $153 #
coedge $-1 -1 $-1 $289 $289 $345 $347 reversed $223 $-1 #
coedge $-1 -1 $-1 $290 $290 $346 $348 reversed $225 $-1 #
coedge $-1 -1 $-1 $291 $291 $226 $292 reversed $349 $-1 #
edge $350 -1 $-1 $351 -6.2831853071795862 $351 0 $226 $352 reversed @7 unknown #
loop $-1 -1 $-1 $-1 $353 $54 #
edge $354 -1 $-1 $355 -0.74731001697058874 $355 0.24910333899019621 $228 $356 forward @7 unknown #
loop $-1 -1 $-1 $-1 $229 $299 #
truecolor-adesk-attrib $-1 -1 $357 $-1 $230 -1028476238 #
vertex $-1 -1 $-1 $230 $358 #
ellipse-curve $-1 -1 $-1 -708.0626330451372 -278.71343082102862 19.999999999999932 -2.0687663116054812e-15 -1 -5.0407592082205316e-16 -8.3716910433122198 2.0076086104623964e-14 -5.4694413860398914 1 I I #
face $359 -1 $-1 $87 $231 $3 $-1 $360 forward single #
color-adesk-attrib $-1 -1 $361 $232 $159 253 #
point $-1 -1 $-1 -716.01573953628372 -278.21343082102862 14.804030683262035 #
color-adesk-attrib $-1 -1 $362 $236 $161 135 #
point $-1 -1 $-1 -712.02548625586996 -288.21346169962362 23.048900528089561 #
color-adesk-attrib $-1 -1 $363 $240 $163 253 #
truecolor-adesk-attrib $-1 -1 $364 $-1 $242 -1028476238 #
straight-curve $-1 -1 $-1 -708.88304925304328 -298.21343082102862 21.255753656496754 -1.4485570439696136 3.4737731948941651e-15 -0.94637962692808542 F 2.7565653356949147 F 3.7565653356949147 #
fmesh-eye-attrib $-1 -1 $365 $-1 $243 #
plane-surface $-1 -1 $-1 -708.88304925304328 -298.21343082102862 21.255753656496754 0.54694413860398916 -7.0950282112447742e-16 -0.83716910433122194 -2.1665143720912606e-15 -1 -5.679372464084941e-16 forward_v I I I I #
DXID-attrib $-1 -1 $-1 $244 $103 @18 ASM_EDGE_FROM_STEP @4 6127 #
truecolor-adesk-attrib $-1 -1 $366 $-1 $246 -1028476238 #
straight-curve $-1 -1 $-1 -712.68381601538408 -278.21343082102862 15.18910944257717 1.4485570439696138 -3.4737731948941651e-15 0.94637962692808497 F 0 F 0.99999999999999989 #
fmesh-eye-attrib $-1 -1 $367 $-1 $247 #
plane-surface $-1 -1 $-1 -712.6838160153842 -298.21343082102862 15.189109442577159 -0.54694413860398894 7.0950282112447682e-16 0.83716910433122205 -0.83716910433122205 2.1243688444223756e-15 -0.54694413860398894 forward_v I I I I #
DXID-attrib $-1 -1 $-1 $248 $105 @18 ASM_EDGE_FROM_STEP @4 6125 #
fmesh-eye-attrib $-1 -1 $368 $-1 $251 #
plane-surface $-1 -1 $-1 -712.24847856679332 -298.21343082102862 17.265279306979977 -2.0687663116054828e-15 -1 -5.0407592082205424e-16 -0.83716910433122194 2.0076086104623985e-15 -0.54694413860398916 forward_v I I I I #
DXID-attrib $-1 -1 $-1 $252 $110 @18 ASM_EDGE_FROM_STEP @4 6122 #
truecolor-adesk-attrib $-1 -1 $369 $-1 $253 -1028476238 #
straight-curve $-1 -1 $-1 -714.32464843119612 -298.21343082102862 17.700616755570824 1.9265621383339594e-14 9.3126136457570006 4.6942642987449877e-15 F 0 F 1.0000000000000004 #
color-adesk-attrib $-1 -1 $370 $254 $181 253 #
point $-1 -1 $-1 -714.32464843119612 -298.21343082102862 17.700616755570824 #
truecolor-adesk-attrib $-1 -1 $371 $257 $182 -1028476238 #
fmesh-eye-attrib $-1 -1 $372 $-1 $258 #
loop $-1 -1 $-1 $349 $373 $258 #
cone-surface $-1 -1 $-1 -708.06263304513732 -328.21343082102862 19.999999999999908 2.0687663116054812e-15 1 5.0407592082205316e-16 7.9531064911466087 -1.9072281799392767e-14 5.1959693167378971 1 I I 0.70710678118654657 0.70710678118654846 9.5 forward I I I I #
DXID-attrib $-1 -1 $-1 $262 $121 @18 ASM_EDGE_FROM_STEP @4 6131 #
DXID-attrib $-1 -1 $-1 $264 $122 @18 ASM_EDGE_FROM_STEP @4 6154 #
DXID-attrib $-1 -1 $-1 $267 $130 @18 ASM_EDGE_FROM_STEP @4 6126 #
color-adesk-attrib $-1 -1 $374 $268 $200 253 #
DXID-attrib $-1 -1 $-1 $270 $134 @18 ASM_EDGE_FROM_STEP @4 6129 #
DXID-attrib $-1 -1 $-1 $272 $138 @18 ASM_EDGE_FROM_STEP @4 6151 #
DXID-attrib $-1 -1 $-1 $274 $143 @18 ASM_EDGE_FROM_STEP @4 6153 #
color-adesk-attrib $-1 -1 $375 $275 $213 135 #
point $-1 -1 $-1 -716.43432408844933 -286.56343082102865 14.530558613960041 #
DXID-attrib $-1 -1 $-1 $278 $87 @18 ASM_FACE_FROM_STEP @14 stp-1M-55-9989 #
color-adesk-attrib $-1 -1 $376 $279 $146 135 #
DXID-attrib $-1 -1 $-1 $282 $95 @18 ASM_FACE_FROM_STEP @14 stp-1M-55-9974 #
color-adesk-attrib $-1 -1 $377 $283 $153 253 #
truecolor-adesk-attrib $-1 -1 $378 $284 $222 -1028476238 #
fmesh-eye-attrib $-1 -1 $379 $-1 $285 #
face $380 -1 $-1 $381 $382 $3 $-1 $383 reversed single #
loop $-1 -1 $-1 $384 $385 $285 #
cone-surface $-1 -1 $-1 -708.06263304513777 -539.21343082102862 19.999999999999801 -2.0687663116054828e-15 -1 -5.0407592082205424e-16 -6.2787682824841644 1.5057064578467987e-14 -4.102081039529919 1 I I 0 1 7.5 forward I I I I #
loop $-1 -1 $-1 $-1 $386 $222 #
coedge $-1 -1 $-1 $345 $345 $289 $347 forward $286 $-1 #
coedge $-1 -1 $-1 $346 $346 $290 $348 forward $288 $-1 #
edge $387 -1 $-1 $388 0 $388 6.2831853071795862 $289 $389 forward @7 unknown #
edge $390 -1 $-1 $391 0 $391 6.2831853071795862 $290 $392 forward @7 unknown #
loop $-1 -1 $-1 $-1 $291 $258 #
truecolor-adesk-attrib $-1 -1 $393 $-1 $292 -1028476238 #
vertex $-1 -1 $-1 $292 $394 #
ellipse-curve $-1 -1 $-1 -708.06263304513732 -328.21343082102862 19.999999999999908 2.0687663116054828e-15 1 5.0407592082205424e-16 7.9531064911466176 -1.9072281799392808e-14 5.1959693167379033 1 I I #
coedge $-1 -1 $-1 $353 $353 $373 $395 forward $293 $-1 #
truecolor-adesk-attrib $-1 -1 $396 $-1 $294 -1036992620 #
vertex $-1 -1 $-1 $294 $397 #
intcurve-curve $-1 -1 $-1 reversed { surfintcur full nubs 3 periodic 17 
	0 3 0.062276633226179337 2 0.12455326645235867 2 0.18682830272127748 2 0.24910333899019627 2 
	0.31137837525911505 2 0.37365341152803389 2 0.43593004475421321 2 0.49820667798039253 2 0.56048331120657191 2 
	0.62275994443275118 2 0.68503498070167002 2 0.74731001697058874 2 0.80958505323950747 2 0.87186008950842631 2 
	0.93413672273460557 2 0.99641335596078495 3 
	-712.07577887627804 -288.21346169962362 29.159402848329968 
	-712.07577887627804 -288.00587292220303 29.159402848329968 
	-712.11453072590677 -287.7847121915778 29.142723476207948 
	-712.26981150181905 -287.37830191501644 29.07231595157743 
	-712.38611020746305 -287.19301911898492 29.018272530440278 
	-712.64983315402992 -286.90045565349169 28.887029214244148 
	-712.81493238592088 -286.77353229546111 28.800972105517992 
	-713.16924677928182 -286.60502490769466 28.600229950116063 
	-713.35829197672558 -286.56346169962364 28.485227596874267 
	-713.70585688562858 -286.56346169962364 28.25815448975003 
	-713.88711278292055 -286.60502490769466 28.131229600053061 
	-714.2132759065189 -286.77353229546111 27.887398266745105 
	-714.35840543722452 -286.90045565349169 27.770774934386246 
	-714.58453267939194 -287.19301911898492 27.581986505339863 
	-714.68074167514669 -287.37830191501644 27.497193171648249 
	-714.80759567934501 -287.7847121915778 27.383274777561184 
	-714.8384369205711 -288.00587292220303 27.354487190936805 
	-714.8384369205711 -288.42105047704422 27.354487190936805 
	-714.80759567934501 -288.64221120766956 27.383274777561184 
	-714.68074167514669 -289.04862148423081 27.497193171648245 
	-714.58453267939194 -289.23390428026244 27.581986505339863 
	-714.35840543722452 -289.52646774575578 27.770774934386246 
	-714.2132759065189 -289.65339110378625 27.887398266745102 
	-713.88711278292055 -289.8218984915527 28.131229600053057 
	-713.70585688562858 -289.86346169962371 28.258154489750027 
	-713.35829197672558 -289.86346169962371 28.485227596874267 
	-713.16924677928182 -289.8218984915527 28.600229950116059 
	-712.81493238592088 -289.65339110378625 28.800972105517989 
	-712.64983315402992 -289.52646774575578 28.887029214244144 
	-712.38611020746305 -289.23390428026244 29.018272530440278 
	-712.26981150181905 -289.04862148423081 29.07231595157743 
	-712.11453072590677 -288.64221120766956 29.142723476207948 
	-712.07577887627804 -288.42105047704422 29.159402848329968 
	-712.07577887627804 -288.21346169962362 29.159402848329968 
	0.0014386054792910148 
	cone -713.53207443117708 -288.21346169962362 28.371691043312147 0.54694413860398905 -7.0950282112447712e-16 -0.83716910433122205 -1.3813290221465162 3.5052085932969194e-15 -0.90245782869658187 1 I I 0 1 1.6500000000000001 forward I I I I 
	cone -708.06263304513777 -539.21343082102862 19.999999999999801 -2.0687663116054828e-15 -1 -5.0407592082205424e-16 -8.3716910433122198 2.0076086104623986e-14 -5.4694413860398914 1 I I 0 -1 10 forward I I I I 
	nullbs 
	nullbs 
	I I 
	0 
	0 
	0 
	} I I #
color-adesk-attrib $-1 -1 $398 $296 $230 253 #
point $-1 -1 $-1 -716.43432408844933 -278.71343082102862 14.530558613960057 #
fmesh-eye-attrib $-1 -1 $399 $-1 $299 #
cone-surface $-1 -1 $-1 -708.0626330451372 -278.71343082102862 19.999999999999932 -2.0687663116054812e-15 -1 -5.0407592082205316e-16 -8.3716910433122198 2.0076086104623964e-14 -5.4694413860398914 1 I I 0.70710678118654657 0.70710678118654846 10 forward I I I I #
DXID-attrib $-1 -1 $-1 $300 $159 @18 ASM_EDGE_FROM_STEP @4 6134 #
DXID-attrib $-1 -1 $-1 $302 $161 @18 ASM_EDGE_FROM_STEP @4 6133 #
DXID-attrib $-1 -1 $-1 $304 $163 @18 ASM_EDGE_FROM_STEP @4 6132 #
color-adesk-attrib $-1 -1 $400 $305 $242 253 #
truecolor-adesk-attrib $-1 -1 $401 $307 $243 -1028476238 #
color-adesk-attrib $-1 -1 $402 $310 $246 253 #
truecolor-adesk-attrib $-1 -1 $403 $312 $247 -1028476238 #
truecolor-adesk-attrib $-1 -1 $404 $315 $251 -1028476238 #
color-adesk-attrib $-1 -1 $405 $318 $253 253 #
DXID-attrib $-1 -1 $-1 $320 $181 @18 ASM_EDGE_FROM_STEP @4 6149 #
color-adesk-attrib $-1 -1 $406 $322 $182 253 #
truecolor-adesk-attrib $-1 -1 $407 $323 $258 -1028476238 #
coedge $-1 -1 $-1 $373 $373 $353 $395 reversed $324 $-1 #
DXID-attrib $-1 -1 $-1 $329 $200 @18 ASM_EDGE_FROM_STEP @4 6130 #
DXID-attrib $-1 -1 $-1 $333 $213 @18 ASM_EDGE_FROM_STEP @4 6138 #
DXID-attrib $-1 -1 $-1 $336 $146 @18 ASM_FACE_FROM_STEP @14 stp-1M-55-9990 #
DXID-attrib $-1 -1 $-1 $338 $153 @18 ASM_FACE_FROM_STEP @14 stp-1M-55-9975 #
color-adesk-attrib $-1 -1 $408 $339 $222 253 #
truecolor-adesk-attrib $-1 -1 $409 $340 $285 -1028476238 #
fmesh-eye-attrib $-1 -1 $410 $-1 $341 #
face $411 -1 $-1 $412 $413 $3 $-1 $414 forward single #
loop $-1 -1 $-1 $415 $416 $341 #
plane-surface $-1 -1 $-1 -714.34140132762172 -468.21343082102862 15.897918960469916 2.0687663116054828e-15 1 5.0407592082205424e-16 0.83716910433122194 -2.0076086104623985e-15 0.54694413860398916 forward_v I I I I #
loop $-1 -1 $-1 $-1 $417 $285 #
coedge $-1 -1 $-1 $385 $385 $416 $418 reversed $342 $-1 #
coedge $-1 -1 $-1 $386 $386 $417 $419 reversed $344 $-1 #
truecolor-adesk-attrib $-1 -1 $420 $-1 $347 -1028476238 #
vertex $-1 -1 $-1 $347 $421 #
ellipse-curve $-1 -1 $-1 -708.06263304513755 -459.21343082102862 19.99999999999984 -2.0687663116054828e-15 -1 -5.0407592082205424e-16 -6.6973528346497755 1.6060868883699188e-14 -4.3755531088319133 1 I I #
truecolor-adesk-attrib $-1 -1 $422 $-1 $348 -1028476238 #
vertex $-1 -1 $-1 $348 $423 #
ellipse-curve $-1 -1 $-1 -708.06263304513732 -328.21343082102862 19.999999999999908 -2.0687663116054828e-15 -1 -5.0407592082205424e-16 -6.6973528346497755 1.6060868883699188e-14 -4.3755531088319133 1 I I #
color-adesk-attrib $-1 -1 $424 $350 $292 253 #
point $-1 -1 $-1 -700.10952655399069 -328.21343082102862 25.195969316737809 #
edge $425 -1 $-1 $426 0 $426 6.2831853071795862 $353 $427 forward @7 unknown #
color-adesk-attrib $-1 -1 $428 $354 $294 135 #
point $-1 -1 $-1 -713.53207443117708 -289.86346169962371 28.371691043312147 #
DXID-attrib $-1 -1 $-1 $357 $230 @18 ASM_EDGE_FROM_STEP @4 6136 #
truecolor-adesk-attrib $-1 -1 $429 $359 $299 -1028476238 #
DXID-attrib $-1 -1 $-1 $364 $242 @18 ASM_EDGE_FROM_STEP @4 6150 #
color-adesk-attrib $-1 -1 $430 $365 $243 253 #
DXID-attrib $-1 -1 $-1 $366 $246 @18 ASM_EDGE_FROM_STEP @4 6135 #
color-adesk-attrib $-1 -1 $431 $367 $247 253 #
color-adesk-attrib $-1 -1 $432 $368 $251 253 #
DXID-attrib $-1 -1 $-1 $369 $253 @18 ASM_EDGE_FROM_STEP @4 6152 #
DXID-attrib $-1 -1 $-1 $371 $182 @18 ASM_FACE_FROM_STEP @14 stp-1M-55-9986 #
color-adesk-attrib $-1 -1 $433 $372 $258 253 #
DXID-attrib $-1 -1 $-1 $378 $222 @18 ASM_FACE_FROM_STEP @14 stp-1M-55-9976 #
color-adesk-attrib $-1 -1 $434 $379 $285 253 #
truecolor-adesk-attrib $-1 -1 $435 $380 $341 -1028476238 #
fmesh-eye-attrib $-1 -1 $436 $-1 $381 #
face $437 -1 $-1 $438 $439 $3 $-1 $440 reversed single #
loop $-1 -1 $-1 $441 $442 $381 #
cone-surface $-1 -1 $-1 -708.06263304513777 -539.21343082102862 19.999999999999801 -2.0687663116054828e-15 -1 -5.0407592082205424e-16 -5.8601837303185542 1.4053260273236792e-14 -3.8286089702279247 1 I I 0 1 7.0000000000000009 forward I I I I #
loop $-1 -1 $-1 $-1 $443 $341 #
coedge $-1 -1 $-1 $416 $416 $385 $418 forward $382 $-1 #
coedge $-1 -1 $-1 $417 $417 $386 $419 forward $384 $-1 #
edge $444 -1 $-1 $445 0 $445 6.2831853071795862 $385 $446 forward @7 unknown #
edge $447 -1 $-1 $448 0 $448 6.2831853071795862 $386 $449 forward @7 unknown #
color-adesk-attrib $-1 -1 $450 $387 $347 253 #
point $-1 -1 $-1 -714.75998587978734 -459.21343082102862 15.624446891167928 #
color-adesk-attrib $-1 -1 $451 $390 $348 253 #
point $-1 -1 $-1 -714.75998587978711 -328.21343082102862 15.624446891167992 #
DXID-attrib $-1 -1 $-1 $393 $292 @18 ASM_EDGE_FROM_STEP @4 6140 #
truecolor-adesk-attrib $-1 -1 $452 $-1 $395 -1028476238 #
vertex $-1 -1 $-1 $395 $453 #
ellipse-curve $-1 -1 $-1 -708.06263304513732 -327.71343082102862 19.999999999999908 2.0687663116054812e-15 1 5.0407592082205316e-16 8.3716910433122198 -2.0076086104623964e-14 5.4694413860398914 1 I I #
DXID-attrib $-1 -1 $-1 $396 $294 @18 ASM_EDGE_FROM_STEP @4 6137 #
color-adesk-attrib $-1 -1 $454 $399 $299 253 #
DXID-attrib $-1 -1 $-1 $401 $243 @18 ASM_FACE_FROM_STEP @14 stp-1M-55-9984 #
DXID-attrib $-1 -1 $-1 $403 $247 @18 ASM_FACE_FROM_STEP @14 stp-1M-55-9985 #
DXID-attrib $-1 -1 $-1 $404 $251 @18 ASM_FACE_FROM_STEP @14 stp-1M-55-9983 #
DXID-attrib $-1 -1 $-1 $407 $258 @18 ASM_FACE_FROM_STEP @14 stp-1M-55-9987 #
DXID-attrib $-1 -1 $-1 $409 $285 @18 ASM_FACE_FROM_STEP @14 stp-1M-55-9977 #
color-adesk-attrib $-1 -1 $455 $410 $341 253 #
truecolor-adesk-attrib $-1 -1 $456 $411 $381 -1028476238 #
fmesh-eye-attrib $-1 -1 $457 $-1 $412 #
face $458 -1 $-1 $459 $460 $3 $-1 $461 forward single #
loop $-1 -1 $-1 $462 $463 $412 #
plane-surface $-1 -1 $-1 -713.085647671125 -511.21343082102862 16.718335168375869 2.0687663116054828e-15 1 5.0407592082205424e-16 0.83716910433122194 -2.0076086104623985e-15 0.54694413860398916 forward_v I I I I #
loop $-1 -1 $-1 $-1 $464 $381 #
coedge $-1 -1 $-1 $442 $442 $463 $465 reversed $413 $-1 #
coedge $-1 -1 $-1 $443 $443 $464 $466 reversed $415 $-1 #
truecolor-adesk-attrib $-1 -1 $467 $-1 $418 -1028476238 #
vertex $-1 -1 $-1 $418 $468 #
ellipse-curve $-1 -1 $-1 -708.06263304513755 -468.21343082102862 19.999999999999837 -2.0687663116054828e-15 -1 -5.0407592082205424e-16 -6.2787682824841644 1.5057064578467987e-14 -4.102081039529919 1 I I #
truecolor-adesk-attrib $-1 -1 $469 $-1 $419 -1028476238 #
vertex $-1 -1 $-1 $419 $470 #
ellipse-curve $-1 -1 $-1 -708.06263304513755 -459.21343082102862 19.99999999999984 -2.0687663116054828e-15 -1 -5.0407592082205424e-16 -6.2787682824841644 1.5057064578467987e-14 -4.102081039529919 1 I I #
DXID-attrib $-1 -1 $-1 $420 $347 @18 ASM_EDGE_FROM_STEP @4 6142 #
DXID-attrib $-1 -1 $-1 $422 $348 @18 ASM_EDGE_FROM_STEP @4 6141 #
color-adesk-attrib $-1 -1 $471 $425 $395 253 #
point $-1 -1 $-1 -699.69094200182508 -327.71343082102862 25.469441386039801 #
DXID-attrib $-1 -1 $-1 $429 $299 @18 ASM_FACE_FROM_STEP @14 stp-1M-55-9988 #
DXID-attrib $-1 -1 $-1 $435 $341 @18 ASM_FACE_FROM_STEP @14 stp-1M-55-9978 #
color-adesk-attrib $-1 -1 $472 $436 $381 253 #
truecolor-adesk-attrib $-1 -1 $473 $437 $412 -1028476238 #
fmesh-eye-attrib $-1 -1 $474 $-1 $438 #
face $475 -1 $-1 $251 $476 $3 $-1 $477 reversed single #
loop $-1 -1 $-1 $478 $479 $438 #
cone-surface $-1 -1 $-1 -708.06263304513777 -539.21343082102862 19.999999999999801 -2.0687663116054828e-15 -1 -5.0407592082205424e-16 -5.0230146259873498 1.2045651662774433e-14 -3.2816648316239467 1 I I 0 1 6.0000000000000213 forward I I I I #
loop $-1 -1 $-1 $-1 $480 $412 #
coedge $-1 -1 $-1 $463 $463 $442 $465 forward $439 $-1 #
coedge $-1 -1 $-1 $464 $464 $443 $466 forward $441 $-1 #
edge $481 -1 $-1 $482 0 $482 6.2831853071795862 $442 $483 forward @7 unknown #
edge $484 -1 $-1 $485 0 $485 6.2831853071795862 $443 $486 forward @7 unknown #
color-adesk-attrib $-1 -1 $487 $444 $418 253 #
point $-1 -1 $-1 -714.34140132762172 -468.21343082102862 15.897918960469916 #
color-adesk-attrib $-1 -1 $488 $447 $419 253 #
point $-1 -1 $-1 -714.34140132762172 -459.21343082102862 15.897918960469923 #
DXID-attrib $-1 -1 $-1 $452 $395 @18 ASM_EDGE_FROM_STEP @4 6139 #
DXID-attrib $-1 -1 $-1 $456 $381 @18 ASM_FACE_FROM_STEP @14 stp-1M-55-9979 #
color-adesk-attrib $-1 -1 $489 $457 $412 253 #
truecolor-adesk-attrib $-1 -1 $490 $458 $438 -1028476238 #
fmesh-eye-attrib $-1 -1 $491 $-1 $459 #
loop $-1 -1 $-1 $-1 $492 $459 #
plane-surface $-1 -1 $-1 -708.06263304513777 -539.21343082102862 19.99999999999979 2.0687663116054828e-15 1 5.0407592082205424e-16 0.83716910433122194 -2.0076086104623985e-15 0.54694413860398916 forward_v I I I I #
loop $-1 -1 $-1 $-1 $493 $438 #
coedge $-1 -1 $-1 $479 $479 $492 $494 reversed $460 $-1 #
coedge $-1 -1 $-1 $480 $480 $493 $495 reversed $462 $-1 #
truecolor-adesk-attrib $-1 -1 $496 $-1 $465 -1028476238 #
vertex $-1 -1 $-1 $465 $497 #
ellipse-curve $-1 -1 $-1 -708.06263304513766 -511.21343082102862 19.999999999999815 -2.0687663116054828e-15 -1 -5.0407592082205424e-16 -5.8601837303185542 1.4053260273236792e-14 -3.8286089702279247 1 I I #
truecolor-adesk-attrib $-1 -1 $498 $-1 $466 -1028476238 #
vertex $-1 -1 $-1 $466 $499 #
ellipse-curve $-1 -1 $-1 -708.06263304513755 -468.21343082102862 19.999999999999837 -2.0687663116054828e-15 -1 -5.0407592082205424e-16 -5.8601837303185542 1.4053260273236792e-14 -3.8286089702279247 1 I I #
DXID-attrib $-1 -1 $-1 $467 $418 @18 ASM_EDGE_FROM_STEP @4 6144 #
DXID-attrib $-1 -1 $-1 $469 $419 @18 ASM_EDGE_FROM_STEP @4 6143 #
DXID-attrib $-1 -1 $-1 $473 $412 @18 ASM_FACE_FROM_STEP @14 stp-1M-55-9980 #
color-adesk-attrib $-1 -1 $500 $474 $438 253 #
truecolor-adesk-attrib $-1 -1 $501 $475 $459 -1028476238 #
coedge $-1 -1 $-1 $492 $492 $479 $494 forward $476 $-1 #
coedge $-1 -1 $-1 $493 $493 $480 $495 forward $478 $-1 #
edge $502 -1 $-1 $503 0 $503 6.2831853071795862 $479 $504 forward @7 unknown #
edge $505 -1 $-1 $506 0 $506 6.2831853071795862 $480 $507 forward @7 unknown #
color-adesk-attrib $-1 -1 $508 $481 $465 253 #
point $-1 -1 $-1 -713.92281677545623 -511.21343082102862 16.171391029771886 #
color-adesk-attrib $-1 -1 $509 $484 $466 253 #
point $-1 -1 $-1 -713.92281677545611 -468.21343082102862 16.171391029771911 #
DXID-attrib $-1 -1 $-1 $490 $438 @18 ASM_FACE_FROM_STEP @14 stp-1M-55-9981 #
color-adesk-attrib $-1 -1 $510 $491 $459 253 #
truecolor-adesk-attrib $-1 -1 $511 $-1 $494 -1028476238 #
vertex $-1 -1 $-1 $494 $512 #
ellipse-curve $-1 -1 $-1 -708.06263304513777 -539.21343082102862 19.999999999999801 -2.0687663116054828e-15 -1 -5.0407592082205424e-16 -5.0230146259873498 1.2045651662774433e-14 -3.2816648316239467 1 I I #
truecolor-adesk-attrib $-1 -1 $513 $-1 $495 -1028476238 #
vertex $-1 -1 $-1 $495 $514 #
ellipse-curve $-1 -1 $-1 -708.06263304513766 -511.21343082102862 19.999999999999815 -2.0687663116054828e-15 -1 -5.0407592082205424e-16 -5.0230146259873498 1.2045651662774433e-14 -3.2816648316239467 1 I I #
DXID-attrib $-1 -1 $-1 $496 $465 @18 ASM_EDGE_FROM_STEP @4 6146 #
DXID-attrib $-1 -1 $-1 $498 $466 @18 ASM_EDGE_FROM_STEP @4 6145 #
DXID-attrib $-1 -1 $-1 $501 $459 @18 ASM_FACE_FROM_STEP @14 stp-1M-55-9982 #
color-adesk-attrib $-1 -1 $515 $502 $494 253 #
point $-1 -1 $-1 -713.08564767112512 -539.21343082102862 16.718335168375855 #
color-adesk-attrib $-1 -1 $516 $505 $495 253 #
point $-1 -1 $-1 -713.085647671125 -511.21343082102862 16.718335168375869 #
DXID-attrib $-1 -1 $-1 $511 $494 @18 ASM_EDGE_FROM_STEP @4 6148 #
DXID-attrib $-1 -1 $-1 $513 $495 @18 ASM_EDGE_FROM_STEP @4 6147 #
