700 237 1 0         
5 ZWCAD 12 ACIS 28.0 NT 24 Mon May 13 14:18:55 2024 
1 9.9999999999999995e-07 1e-10 
body $1 -1 $-1 $2 $-1 $-1 #
DXID-attrib $-1 -1 $-1 $-1 $0 @18 ASM_BODY_FROM_STEP @83 59476F9EBA9AE1FA426042A4E47D2C5FAB7F5C19|:|8CB3CBCEBE3339AC3139F7812237AD39DB573F35 #
lump $-1 -1 $-1 $-1 $3 $0 #
shell $-1 -1 $-1 $-1 $-1 $4 $-1 $2 #
face $5 -1 $-1 $6 $7 $3 $-1 $8 forward single #
color-adesk-attrib $-1 -1 $9 $-1 $4 2 #
face $10 -1 $-1 $11 $12 $3 $-1 $13 forward single #
loop $-1 -1 $-1 $-1 $14 $4 #
plane-surface $-1 -1 $-1 -84.179920135027032 320.39335549586178 59.400000000009499 -0.70710678118654779 0.70710678118654724 -1.57499899761716e-16 1.113692471577109e-16 -1.1136924715771085e-16 -1 forward_v I I I I #
fmesh-eye-attrib $-1 -1 $15 $5 $4 #
color-adesk-attrib $-1 -1 $16 $-1 $6 2 #
face $17 -1 $-1 $18 $19 $3 $-1 $20 forward single #
loop $-1 -1 $-1 $-1 $21 $6 #
plane-surface $-1 -1 $-1 -30.01943282695828 323.3933554958619 59.400000000009499 -1.1102230246251565e-16 1 -3.5527136788005021e-16 -1.4836809352133763e-17 -3.5527136788005031e-16 -1 forward_v I I I I #
coedge $-1 -1 $-1 $22 $23 $24 $25 forward $7 $-1 #
DXID-attrib $-1 -1 $-1 $9 $4 @18 ASM_FACE_FROM_STEP @16 stp-2M-185-26668 #
fmesh-eye-attrib $-1 -1 $26 $10 $6 #
color-adesk-attrib $-1 -1 $27 $-1 $11 2 #
face $28 -1 $-1 $29 $30 $3 $-1 $31 forward single #
loop $-1 -1 $-1 $32 $24 $11 #
plane-surface $-1 -1 $-1 -30.019432826958337 343.89335549586184 59.400000000009499 0 0 1 0.16504760586067696 0.98628560153723155 0 forward_v I I I I #
coedge $-1 -1 $-1 $33 $34 $22 $35 reversed $12 $-1 #
coedge $-1 -1 $-1 $36 $14 $21 $35 forward $7 $-1 #
coedge $-1 -1 $-1 $14 $36 $37 $38 forward $7 $-1 #
coedge $-1 -1 $-1 $39 $40 $14 $25 reversed $19 $-1 #
edge $41 -1 $-1 $42 -3.1699769290012902 $43 -2.3214487915774393 $14 $44 forward @7 unknown #
DXID-attrib $-1 -1 $-1 $16 $6 @18 ASM_FACE_FROM_STEP @16 stp-2M-185-26669 #
fmesh-eye-attrib $-1 -1 $45 $17 $11 #
color-adesk-attrib $-1 -1 $46 $-1 $18 2 #
face $47 -1 $-1 $48 $49 $3 $-1 $50 reversed single #
loop $-1 -1 $-1 $-1 $51 $18 #
plane-surface $-1 -1 $-1 -30.01943282695828 258.89335549586178 53.900000000009499 1.1102230246251565e-16 -1 6.6632600794829831e-17 -9.2444637330587321e-33 6.6632600794829844e-17 1 forward_v I I I I #
loop $-1 -1 $-1 $-1 $52 $11 #
coedge $-1 -1 $-1 $53 $21 $40 $54 reversed $12 $-1 #
coedge $-1 -1 $-1 $21 $53 $55 $56 reversed $12 $-1 #
edge $57 -1 $-1 $43 0 $58 5 $22 $59 forward @7 unknown #
coedge $-1 -1 $-1 $23 $22 $60 $61 forward $7 $-1 #
coedge $-1 -1 $-1 $62 $63 $23 $38 reversed $64 $-1 #
edge $65 -1 $-1 $66 -5 $42 0 $23 $67 forward @7 unknown #
coedge $-1 -1 $-1 $68 $24 $63 $69 forward $19 $-1 #
coedge $-1 -1 $-1 $24 $70 $33 $54 forward $19 $-1 #
color-adesk-attrib $-1 -1 $71 $-1 $25 2 #
vertex $-1 -1 $-1 $25 $72 #
vertex $-1 -1 $-1 $25 $73 #
straight-curve $-1 -1 $-1 -64.76479830800983 339.80847732287901 59.400000000009499 7.0710678118654737 7.0710678118654791 0 F -3.1699769290012902 F -2.3214487915774393 #
DXID-attrib $-1 -1 $-1 $27 $11 @18 ASM_FACE_FROM_STEP @16 stp-2M-185-26670 #
fmesh-eye-attrib $-1 -1 $74 $28 $18 #
color-adesk-attrib $-1 -1 $75 $-1 $29 2 #
face $76 -1 $-1 $77 $78 $3 $-1 $79 reversed single #
loop $-1 -1 $-1 $-1 $80 $29 #
cone-surface $-1 -1 $-1 -30.01943282695828 258.89335549586178 34.400000000009499 -1 -1.3877787807814457e-16 1.5407439555097887e-33 2.2204460492503131e-15 -19.5 1.2993357154991836e-15 1 I I 0 1 19.5 forward I I I I #
coedge $-1 -1 $-1 $81 $82 $83 $84 forward $30 $-1 #
coedge $-1 -1 $-1 $52 $52 $85 $86 forward $32 $-1 #
coedge $-1 -1 $-1 $34 $33 $87 $88 reversed $12 $-1 #
edge $89 -1 $-1 $90 -2.756600000000001 $43 5.1160487308068801 $33 $91 forward @7 unknown #
coedge $-1 -1 $-1 $92 $60 $34 $56 forward $93 $-1 #
edge $94 -1 $-1 $58 -5.1110487308068722 $95 2.7615999999999983 $34 $96 forward @7 unknown #
color-adesk-attrib $-1 -1 $97 $-1 $35 2 #
vertex $-1 -1 $-1 $35 $98 #
straight-curve $-1 -1 $-1 -81.179920135027089 323.39335549586178 59.400000000009499 -1.325328735646279e-15 -3.5527136788005017e-15 -10 F 0 F 5 #
coedge $-1 -1 $-1 $55 $99 $36 $61 reversed $93 $-1 #
edge $100 -1 $-1 $58 2.3214487915774304 $66 3.1699769290012894 $36 $101 forward @7 unknown #
coedge $-1 -1 $-1 $102 $37 $99 $103 reversed $64 $-1 #
coedge $-1 -1 $-1 $37 $83 $39 $69 reversed $64 $-1 #
loop $-1 -1 $-1 $-1 $37 $104 #
color-adesk-attrib $-1 -1 $105 $-1 $38 2 #
vertex $-1 -1 $-1 $61 $106 #
straight-curve $-1 -1 $-1 -87.179920135027032 317.39335549586184 59.400000000009499 1.325328735646279e-15 3.5527136788005017e-15 10 F -5 F 0 #
coedge $-1 -1 $-1 $70 $39 $82 $107 reversed $19 $-1 #
edge $108 -1 $-1 $42 1.6249999999999996 $109 7.4749999999999996 $39 $110 forward @7 unknown #
coedge $-1 -1 $-1 $40 $68 $111 $112 reversed $19 $-1 #
DXID-attrib $-1 -1 $-1 $41 $25 @18 ASM_EDGE_FROM_STEP @5 14952 #
point $-1 -1 $-1 -87.179920135027032 317.39335549586184 59.400000000009499 #
point $-1 -1 $-1 -81.179920135027089 323.39335549586178 59.400000000009499 #
DXID-attrib $-1 -1 $-1 $46 $18 @18 ASM_FACE_FROM_STEP @16 stp-2M-185-26671 #
fmesh-eye-attrib $-1 -1 $113 $47 $29 #
color-adesk-attrib $-1 -1 $114 $-1 $48 2 #
face $115 -1 $-1 $116 $117 $3 $-1 $118 reversed single #
loop $-1 -1 $-1 $119 $120 $48 #
cone-surface $-1 -1 $-1 -55.539920135028439 304.39855549586213 59.400000000009499 0 0 1 -1.3203808468854175 -7.890284812297863 0 1 I I 0 1 8.0000000000000107 forward I I I I #
coedge $-1 -1 $-1 $121 $122 $123 $124 forward $49 $-1 #
coedge $-1 -1 $-1 $125 $51 $122 $126 reversed $30 $-1 #
coedge $-1 -1 $-1 $51 $125 $68 $107 forward $30 $-1 #
coedge $-1 -1 $-1 $63 $123 $51 $84 reversed $64 $-1 #
edge $127 -1 $-1 $109 -0.27499999999999991 $128 0.27499999999999991 $51 $129 forward @7 unknown #
coedge $-1 -1 $-1 $85 $85 $52 $86 reversed $119 $-1 #
edge $130 -1 $-1 $131 -3.1415926535897931 $131 3.1415926535897931 $52 $132 forward @7 unknown #
coedge $-1 -1 $-1 $111 $133 $53 $88 forward $117 $-1 #
edge $134 -1 $-1 $95 0 $90 5 $53 $135 forward @7 unknown #
color-adesk-attrib $-1 -1 $136 $-1 $54 2 #
vertex $-1 -1 $-1 $54 $137 #
straight-curve $-1 -1 $-1 -30.019432826958337 323.3933554958619 59.400000000009499 -9.9999999999999947 -1.3322676295501878e-15 0 F -2.756600000000001 F 5.1160487308068801 #
coedge $-1 -1 $-1 $138 $55 $133 $139 reversed $93 $-1 #
loop $-1 -1 $-1 $140 $60 $116 #
color-adesk-attrib $-1 -1 $141 $-1 $56 2 #
vertex $-1 -1 $-1 $88 $142 #
straight-curve $-1 -1 $-1 -30.069432826958291 323.39335549586184 9.4000000000094985 10.000000000000004 -2.2204460492503131e-16 0 F -5.1110487308068722 F 2.7615999999999983 #
DXID-attrib $-1 -1 $-1 $57 $35 @18 ASM_EDGE_FROM_STEP @5 14953 #
point $-1 -1 $-1 -81.179920135027061 323.3933554958619 9.4000000000094985 #
coedge $-1 -1 $-1 $60 $138 $62 $103 forward $93 $-1 #
color-adesk-attrib $-1 -1 $143 $-1 $61 2 #
straight-curve $-1 -1 $-1 -64.764798308009858 339.80847732287901 9.4000000000094985 -7.0710678118654737 -7.0710678118654791 0 F 2.3214487915774304 F 3.1699769290012894 #
coedge $-1 -1 $-1 $123 $62 $144 $145 reversed $64 $-1 #
edge $146 -1 $-1 $147 -7.4749999999999996 $66 -1.6249999999999996 $99 $148 forward @7 unknown #
face $149 -1 $-1 $-1 $64 $3 $-1 $150 reversed single #
DXID-attrib $-1 -1 $-1 $65 $38 @18 ASM_EDGE_FROM_STEP @5 14955 #
point $-1 -1 $-1 -87.179920135027032 317.39335549586184 9.4000000000094985 #
edge $151 -1 $-1 $152 -2.756600000000001 $109 5.7160487308068797 $68 $153 forward @7 unknown #
color-adesk-attrib $-1 -1 $154 $-1 $69 2 #
vertex $-1 -1 $-1 $69 $155 #
straight-curve $-1 -1 $-1 -87.179920135027032 333.64335549586184 59.400000000009499 1.3322676295501878e-15 -9.9999999999999947 0 F 1.6249999999999996 F 7.4749999999999996 #
coedge $-1 -1 $-1 $156 $87 $70 $112 forward $117 $-1 #
edge $157 -1 $-1 $90 0 $152 6.4499999999999948 $70 $158 forward @7 unknown #
DXID-attrib $-1 -1 $-1 $75 $29 @18 ASM_FACE_FROM_STEP @16 stp-2M-185-26672 #
fmesh-eye-attrib $-1 -1 $159 $76 $48 #
color-adesk-attrib $-1 -1 $160 $-1 $77 2 #
face $161 -1 $-1 $162 $93 $3 $-1 $163 reversed single #
loop $-1 -1 $-1 $-1 $133 $77 #
plane-surface $-1 -1 $-1 -2.4534328269582488 292.61139575114015 34.400000000009499 -1 -1.1102230246251565e-16 0 0 0 1 forward_v I I I I #
loop $-1 -1 $-1 $-1 $85 $48 #
coedge $-1 -1 $-1 $120 $120 $164 $165 reversed $78 $-1 #
coedge $-1 -1 $-1 $166 $80 $167 $168 reversed $49 $-1 #
coedge $-1 -1 $-1 $80 $166 $81 $126 forward $49 $-1 #
coedge $-1 -1 $-1 $83 $102 $80 $124 reversed $64 $-1 #
edge $169 -1 $-1 $128 1.5707963267949012 $170 4.7123889803846852 $80 $171 forward @7 unknown #
coedge $-1 -1 $-1 $82 $81 $156 $172 reversed $30 $-1 #
edge $173 -1 $-1 $174 -2.756600000000001 $128 5.7160487308068797 $81 $175 forward @7 unknown #
color-adesk-attrib $-1 -1 $176 $-1 $84 2 #
vertex $-1 -1 $-1 $84 $177 #
straight-curve $-1 -1 $-1 -87.179920135027032 258.89335549586184 56.650000000009499 -1.3253287356462798e-15 -6.6632600794829945e-16 -10 F -0.27499999999999991 F 0.27499999999999991 #
color-adesk-attrib $-1 -1 $178 $-1 $86 2 #
vertex $-1 -1 $-1 $86 $179 #
ellipse-curve $-1 -1 $-1 -55.539920135028439 304.39855549586213 59.400000000009499 0 0 -1 -1.3203808468854175 -7.890284812297863 0 1 I I #
coedge $-1 -1 $-1 $87 $180 $92 $139 forward $117 $-1 #
color-adesk-attrib $-1 -1 $181 $-1 $88 2 #
straight-curve $-1 -1 $-1 -2.4534328269583057 323.39335549586184 9.4000000000094985 0 0 10 F 0 F 5 #
DXID-attrib $-1 -1 $-1 $89 $54 @18 ASM_EDGE_FROM_STEP @5 14956 #
point $-1 -1 $-1 -2.4534328269583057 323.39335549586184 59.400000000009499 #
coedge $-1 -1 $-1 $99 $92 $182 $183 forward $93 $-1 #
edge $184 -1 $-1 $185 0 $95 6.4499999999999948 $133 $186 forward @7 unknown #
loop $-1 -1 $-1 $-1 $164 $116 #
DXID-attrib $-1 -1 $-1 $94 $56 @18 ASM_EDGE_FROM_STEP @5 14958 #
point $-1 -1 $-1 -2.4534328269583057 323.39335549586184 9.4000000000094985 #
DXID-attrib $-1 -1 $-1 $100 $61 @18 ASM_EDGE_FROM_STEP @5 14954 #
coedge $-1 -1 $-1 $182 $167 $102 $145 forward $187 $-1 #
edge $188 -1 $-1 $170 1.9500000000000008 $147 2.5000000000000004 $144 $189 forward @7 unknown #
color-adesk-attrib $-1 -1 $190 $-1 $103 2 #
vertex $-1 -1 $-1 $183 $191 #
straight-curve $-1 -1 $-1 -87.179920135027032 333.64335549586184 9.4000000000094985 -1.3322676295501878e-15 9.9999999999999947 0 F -7.4749999999999996 F -1.6249999999999996 #
color-adesk-attrib $-1 -1 $192 $-1 $104 2 #
plane-surface $-1 -1 $-1 -87.179920135027089 323.39335549586184 59.400000000009499 1 1.1102230246251565e-16 -1.3253287356462807e-16 -1.3253287356462805e-16 -3.5039903477853032e-16 -1 forward_v I I I I #
color-adesk-attrib $-1 -1 $193 $-1 $107 2 #
vertex $-1 -1 $-1 $107 $194 #
straight-curve $-1 -1 $-1 -30.01943282695828 258.89335549586178 59.400000000009499 -9.9999999999999947 -1.3322676295501878e-15 0 F -2.756600000000001 F 5.7160487308068797 #
DXID-attrib $-1 -1 $-1 $108 $69 @18 ASM_EDGE_FROM_STEP @5 14959 #
point $-1 -1 $-1 -87.179920135027032 258.89335549586184 59.400000000009499 #
coedge $-1 -1 $-1 $195 $111 $125 $172 forward $117 $-1 #
color-adesk-attrib $-1 -1 $196 $-1 $112 2 #
straight-curve $-1 -1 $-1 -2.4534328269583057 323.39335549586184 59.400000000009499 -2.2204460492503131e-16 -10.000000000000004 0 F 0 F 6.4499999999999948 #
DXID-attrib $-1 -1 $-1 $114 $48 @18 ASM_FACE_FROM_STEP @16 stp-2M-185-26673 #
fmesh-eye-attrib $-1 -1 $197 $115 $77 #
color-adesk-attrib $-1 -1 $198 $-1 $116 2 #
face $199 -1 $-1 $104 $187 $3 $-1 $200 forward single #
plane-surface $-1 -1 $-1 -30.019432826958337 343.89335549586184 9.4000000000094985 0 0 1 0.16504760586067696 0.98628560153723155 0 forward_v I I I I #
coedge $-1 -1 $-1 $164 $164 $120 $165 forward $140 $-1 #
edge $201 -1 $-1 $202 -3.1415926535897931 $202 3.1415926535897931 $120 $203 forward @7 unknown #
coedge $-1 -1 $-1 $122 $121 $195 $204 reversed $49 $-1 #
coedge $-1 -1 $-1 $144 $205 $121 $168 forward $187 $-1 #
edge $206 -1 $-1 $207 -2.756600000000001 $170 5.7160487308068797 $121 $208 forward @7 unknown #
color-adesk-attrib $-1 -1 $209 $-1 $124 2 #
vertex $-1 -1 $-1 $124 $210 #
ellipse-curve $-1 -1 $-1 -87.179920135027032 258.89335549586178 34.400000000009499 -1 -1.3877787807814457e-16 1.3253287356462807e-16 2.2204460492503131e-15 -19.5 1.2993357154991836e-15 1 F 1.5707963267949012 F 4.7123889803846852 #
edge $211 -1 $-1 $152 0 $174 0.54999999999999982 $125 $212 forward @7 unknown #
color-adesk-attrib $-1 -1 $213 $-1 $126 2 #
vertex $-1 -1 $-1 $126 $214 #
straight-curve $-1 -1 $-1 -30.01943282695828 258.89335549586178 53.900000000009499 -9.9999999999999947 -1.3322676295501878e-15 0 F -2.756600000000001 F 5.7160487308068797 #
DXID-attrib $-1 -1 $-1 $127 $84 @18 ASM_EDGE_FROM_STEP @5 14963 #
point $-1 -1 $-1 -87.179920135027032 258.89335549586184 53.900000000009499 #
DXID-attrib $-1 -1 $-1 $130 $86 @18 ASM_EDGE_FROM_STEP @5 14962 #
point $-1 -1 $-1 -54.219539288143039 312.28884030815999 59.400000000009499 #
coedge $-1 -1 $-1 $133 $195 $205 $215 forward $117 $-1 #
DXID-attrib $-1 -1 $-1 $134 $88 @18 ASM_EDGE_FROM_STEP @5 14957 #
coedge $-1 -1 $-1 $205 $144 $138 $183 reversed $187 $-1 #
edge $216 -1 $-1 $185 -2.756600000000001 $147 5.7160487308068797 $138 $217 forward @7 unknown #
color-adesk-attrib $-1 -1 $218 $-1 $139 2 #
vertex $-1 -1 $-1 $139 $219 #
straight-curve $-1 -1 $-1 -2.4534328269582488 258.8933554958619 9.4000000000094985 2.2204460492503131e-16 10.000000000000004 0 F 0 F 6.4499999999999948 #
loop $-1 -1 $-1 $-1 $144 $162 #
color-adesk-attrib $-1 -1 $220 $-1 $145 2 #
straight-curve $-1 -1 $-1 -87.179920135027032 258.89335549586184 34.400000000009506 -1.3253287356462798e-15 -6.6632600794829945e-16 -10 F 1.9500000000000008 F 2.5000000000000004 #
DXID-attrib $-1 -1 $-1 $146 $103 @18 ASM_EDGE_FROM_STEP @5 14973 #
point $-1 -1 $-1 -87.179920135027032 258.89335549586184 9.4000000000094985 #
fmesh-eye-attrib $-1 -1 $221 $149 $104 #
DXID-attrib $-1 -1 $-1 $151 $107 @18 ASM_EDGE_FROM_STEP @5 14960 #
point $-1 -1 $-1 -2.4534328269582488 258.8933554958619 59.400000000009499 #
coedge $-1 -1 $-1 $180 $156 $166 $204 forward $117 $-1 #
DXID-attrib $-1 -1 $-1 $157 $112 @18 ASM_EDGE_FROM_STEP @5 14961 #
DXID-attrib $-1 -1 $-1 $160 $77 @18 ASM_FACE_FROM_STEP @16 stp-2M-185-26674 #
fmesh-eye-attrib $-1 -1 $222 $161 $116 #
color-adesk-attrib $-1 -1 $223 $-1 $162 2 #
plane-surface $-1 -1 $-1 -30.01943282695828 258.89335549586178 9.4000000000094985 1.1102230246251565e-16 -1 6.6632600794829831e-17 -9.2444637330587321e-33 6.6632600794829844e-17 1 forward_v I I I I #
color-adesk-attrib $-1 -1 $224 $-1 $165 2 #
vertex $-1 -1 $-1 $165 $225 #
ellipse-curve $-1 -1 $-1 -55.539920135028439 304.39855549586213 9.4000000000094985 0 0 1 -1.3203808468854175 -7.890284812297863 0 1 I I #
edge $226 -1 $-1 $174 9.1095222533346189e-16 $207 3.141592653589794 $166 $227 forward @7 unknown #
coedge $-1 -1 $-1 $167 $182 $180 $215 reversed $187 $-1 #
color-adesk-attrib $-1 -1 $228 $-1 $168 2 #
vertex $-1 -1 $-1 $168 $229 #
straight-curve $-1 -1 $-1 -30.01943282695828 258.89335549586178 14.900000000009499 -9.9999999999999947 -1.3322676295501878e-15 0 F -2.756600000000001 F 5.7160487308068797 #
DXID-attrib $-1 -1 $-1 $169 $124 @18 ASM_EDGE_FROM_STEP @5 14966 #
point $-1 -1 $-1 -87.179920135027032 258.89335549586184 14.900000000009499 #
color-adesk-attrib $-1 -1 $230 $-1 $172 2 #
straight-curve $-1 -1 $-1 -2.4534328269582488 258.8933554958619 59.400000000009499 0 0 -10 F 0 F 0.54999999999999982 #
DXID-attrib $-1 -1 $-1 $173 $126 @18 ASM_EDGE_FROM_STEP @5 14964 #
point $-1 -1 $-1 -2.4534328269582488 258.8933554958619 53.900000000009499 #
edge $231 -1 $-1 $207 0 $185 0.54999999999999982 $180 $232 forward @7 unknown #
color-adesk-attrib $-1 -1 $233 $-1 $183 2 #
straight-curve $-1 -1 $-1 -30.01943282695828 258.89335549586178 9.4000000000094985 -9.9999999999999947 -1.3322676295501878e-15 0 F -2.756600000000001 F 5.7160487308068797 #
DXID-attrib $-1 -1 $-1 $184 $139 @18 ASM_EDGE_FROM_STEP @5 14970 #
point $-1 -1 $-1 -2.4534328269582488 258.8933554958619 9.4000000000094985 #
DXID-attrib $-1 -1 $-1 $188 $145 @18 ASM_EDGE_FROM_STEP @5 14974 #
DXID-attrib $-1 -1 $-1 $192 $104 @18 ASM_FACE_FROM_STEP @16 stp-2M-185-26677 #
DXID-attrib $-1 -1 $-1 $198 $116 @18 ASM_FACE_FROM_STEP @16 stp-2M-185-26675 #
fmesh-eye-attrib $-1 -1 $234 $199 $162 #
DXID-attrib $-1 -1 $-1 $201 $165 @18 ASM_EDGE_FROM_STEP @5 14969 #
point $-1 -1 $-1 -54.219539288143039 312.28884030815999 9.4000000000094985 #
color-adesk-attrib $-1 -1 $235 $-1 $204 2 #
ellipse-curve $-1 -1 $-1 -2.4534328269582488 258.8933554958619 34.400000000009499 -1 5.5511151231257827e-17 0 -1.1832913578315177e-30 -1.7763568394002508e-14 19.5 1 F 9.1095222533346189e-16 F 3.141592653589794 #
DXID-attrib $-1 -1 $-1 $206 $168 @18 ASM_EDGE_FROM_STEP @5 14967 #
point $-1 -1 $-1 -2.4534328269582488 258.8933554958619 14.900000000009499 #
DXID-attrib $-1 -1 $-1 $211 $172 @18 ASM_EDGE_FROM_STEP @5 14965 #
color-adesk-attrib $-1 -1 $236 $-1 $215 2 #
straight-curve $-1 -1 $-1 -2.4534328269582488 258.8933554958619 14.900000000009499 0 0 -10 F 0 F 0.54999999999999982 #
DXID-attrib $-1 -1 $-1 $216 $183 @18 ASM_EDGE_FROM_STEP @5 14972 #
DXID-attrib $-1 -1 $-1 $223 $162 @18 ASM_FACE_FROM_STEP @16 stp-2M-185-26676 #
DXID-attrib $-1 -1 $-1 $226 $204 @18 ASM_EDGE_FROM_STEP @5 14968 #
DXID-attrib $-1 -1 $-1 $231 $215 @18 ASM_EDGE_FROM_STEP @5 14971 #
