700 446 1 0         
5 ZWCAD 12 ACIS 28.0 NT 24 Mon May 13 14:17:58 2024 
1 9.9999999999999995e-07 1e-10 
body $1 -1 $-1 $2 $-1 $-1 #
DXID-attrib $-1 -1 $-1 $-1 $0 @18 ASM_BODY_FROM_STEP @83 22316C74F3EA1B9BED028F919BB0207F866D68A4|:|8CB3CBCEBE3339AC3139F7812237AD39DB573F35 #
lump $-1 -1 $-1 $-1 $3 $0 #
shell $-1 -1 $-1 $-1 $-1 $4 $-1 $2 #
face $5 -1 $-1 $6 $7 $3 $-1 $8 reversed single #
truecolor-adesk-attrib $-1 -1 $9 $-1 $4 -1025672177 #
face $10 -1 $-1 $11 $12 $3 $-1 $13 reversed single #
loop $-1 -1 $-1 $14 $15 $4 #
cone-surface $-1 -1 $-1 150.45689247526838 1157.4358485847338 76.70000000001798 0 0 1 4.6802752025355794 -6.4880678193535051 0 1 I I 0 1 8 forward I I I I #
fmesh-eye-attrib $-1 -1 $16 $5 $4 #
truecolor-adesk-attrib $-1 -1 $17 $-1 $6 -1025672177 #
face $18 -1 $-1 $19 $20 $3 $-1 $21 reversed single #
loop $-1 -1 $-1 $22 $23 $6 #
cone-surface $-1 -1 $-1 -11.744803008569505 1040.4289685213439 76.70000000001798 0 0 1 4.6802752025355794 -6.4880678193535051 0 1 I I 0 1 8 forward I I I I #
loop $-1 -1 $-1 $-1 $24 $4 #
coedge $-1 -1 $-1 $15 $15 $25 $26 reversed $7 $-1 #
DXID-attrib $-1 -1 $-1 $9 $4 @18 ASM_FACE_FROM_STEP @16 stp-2M-185-26687 #
fmesh-eye-attrib $-1 -1 $27 $10 $6 #
truecolor-adesk-attrib $-1 -1 $28 $-1 $11 -1025672177 #
face $29 -1 $-1 $30 $31 $3 $-1 $32 reversed single #
loop $-1 -1 $-1 $33 $34 $11 #
cone-surface $-1 -1 $-1 98.957854159146905 1120.2861641646055 76.70000000001798 0 0 1 4.6802752025355794 -6.4880678193535051 0 1 I I 0 1 8 forward I I I I #
loop $-1 -1 $-1 $-1 $35 $6 #
coedge $-1 -1 $-1 $23 $23 $36 $37 reversed $12 $-1 #
coedge $-1 -1 $-1 $24 $24 $38 $39 reversed $14 $-1 #
coedge $-1 -1 $-1 $25 $25 $15 $26 forward $40 $-1 #
edge $41 -1 $-1 $42 -3.1415926535897931 $42 3.1415926535897931 $15 $43 forward @7 unknown #
DXID-attrib $-1 -1 $-1 $17 $6 @18 ASM_FACE_FROM_STEP @16 stp-2M-185-26688 #
fmesh-eye-attrib $-1 -1 $44 $18 $11 #
truecolor-adesk-attrib $-1 -1 $45 $-1 $19 -1025672177 #
face $46 -1 $-1 $47 $48 $3 $-1 $49 reversed single #
loop $-1 -1 $-1 $50 $51 $19 #
cone-surface $-1 -1 $-1 -166.35803886433831 929.05274467793458 68.800000000017974 0 0 1 4.6802752025355794 -6.4880678193535051 0 1 I I 0 1 8 forward I I I I #
loop $-1 -1 $-1 $-1 $52 $11 #
coedge $-1 -1 $-1 $34 $34 $53 $54 reversed $20 $-1 #
coedge $-1 -1 $-1 $35 $35 $55 $56 reversed $22 $-1 #
coedge $-1 -1 $-1 $36 $36 $23 $37 forward $57 $-1 #
edge $58 -1 $-1 $59 -3.1415926535897931 $59 3.1415926535897931 $23 $60 forward @7 unknown #
coedge $-1 -1 $-1 $38 $38 $24 $39 forward $61 $-1 #
edge $62 -1 $-1 $63 -3.1415926535897931 $63 3.1415926535897931 $24 $64 forward @7 unknown #
loop $-1 -1 $-1 $57 $25 $65 #
truecolor-adesk-attrib $-1 -1 $66 $-1 $26 -1025672177 #
vertex $-1 -1 $-1 $26 $67 #
ellipse-curve $-1 -1 $-1 150.45689247526838 1157.4358485847338 76.70000000001798 0 0 -1 4.6802752025355794 -6.4880678193535051 0 1 I I #
DXID-attrib $-1 -1 $-1 $28 $11 @18 ASM_FACE_FROM_STEP @16 stp-2M-185-26689 #
fmesh-eye-attrib $-1 -1 $68 $29 $19 #
truecolor-adesk-attrib $-1 -1 $69 $-1 $30 -1025672177 #
face $70 -1 $-1 $71 $72 $3 $-1 $73 reversed single #
loop $-1 -1 $-1 $74 $75 $30 #
cone-surface $-1 -1 $-1 -70.546317087004297 1013.8589521447235 68.800000000017974 0 0 1 4.6802752025355794 -6.4880678193535051 0 1 I I 0 1 8 forward I I I I #
loop $-1 -1 $-1 $-1 $76 $19 #
coedge $-1 -1 $-1 $51 $51 $77 $78 reversed $31 $-1 #
coedge $-1 -1 $-1 $52 $52 $79 $80 reversed $33 $-1 #
coedge $-1 -1 $-1 $53 $53 $34 $54 forward $81 $-1 #
edge $82 -1 $-1 $83 -3.1415926535897931 $83 3.1415926535897931 $34 $84 forward @7 unknown #
coedge $-1 -1 $-1 $55 $55 $35 $56 forward $85 $-1 #
edge $86 -1 $-1 $87 -3.1415926535897931 $87 3.1415926535897931 $35 $88 forward @7 unknown #
loop $-1 -1 $-1 $81 $36 $65 #
truecolor-adesk-attrib $-1 -1 $89 $-1 $37 -1025672177 #
vertex $-1 -1 $-1 $37 $90 #
ellipse-curve $-1 -1 $-1 -11.744803008569505 1040.4289685213439 76.70000000001798 0 0 -1 4.6802752025355794 -6.4880678193535051 0 1 I I #
loop $-1 -1 $-1 $85 $38 $91 #
truecolor-adesk-attrib $-1 -1 $92 $-1 $39 -1025672177 #
vertex $-1 -1 $-1 $39 $93 #
ellipse-curve $-1 -1 $-1 150.45689247526838 1157.4358485847338 68.800000000017974 0 0 1 4.6802752025355794 -6.4880678193535051 0 1 I I #
face $94 -1 $-1 $91 $95 $3 $-1 $96 forward single #
DXID-attrib $-1 -1 $-1 $41 $26 @18 ASM_EDGE_FROM_STEP @5 14995 #
point $-1 -1 $-1 145.77661727273281 1163.9239164040873 76.70000000001798 #
DXID-attrib $-1 -1 $-1 $45 $19 @18 ASM_FACE_FROM_STEP @16 stp-2M-185-26690 #
fmesh-eye-attrib $-1 -1 $97 $46 $30 #
truecolor-adesk-attrib $-1 -1 $98 $-1 $47 -1025672177 #
face $99 -1 $-1 $100 $101 $3 $-1 $102 forward single #
loop $-1 -1 $-1 $103 $104 $47 #
cone-surface $-1 -1 $-1 -133.74593690854408 968.26885942434512 68.800000000017974 0 0 1 4.6802752025355794 -6.4880678193535051 0 1 I I 0 1 8 forward I I I I #
loop $-1 -1 $-1 $-1 $105 $30 #
coedge $-1 -1 $-1 $75 $75 $106 $107 reversed $48 $-1 #
coedge $-1 -1 $-1 $76 $76 $108 $109 reversed $50 $-1 #
coedge $-1 -1 $-1 $77 $77 $51 $78 forward $110 $-1 #
edge $111 -1 $-1 $112 -3.1415926535897931 $112 3.1415926535897931 $51 $113 forward @7 unknown #
coedge $-1 -1 $-1 $79 $79 $52 $80 forward $114 $-1 #
edge $115 -1 $-1 $116 -3.1415926535897931 $116 3.1415926535897931 $52 $117 forward @7 unknown #
loop $-1 -1 $-1 $110 $53 $65 #
truecolor-adesk-attrib $-1 -1 $118 $-1 $54 -1025672177 #
vertex $-1 -1 $-1 $54 $119 #
ellipse-curve $-1 -1 $-1 98.957854159146905 1120.2861641646055 76.70000000001798 0 0 -1 4.6802752025355794 -6.4880678193535051 0 1 I I #
loop $-1 -1 $-1 $114 $55 $91 #
truecolor-adesk-attrib $-1 -1 $120 $-1 $56 -1025672177 #
vertex $-1 -1 $-1 $56 $121 #
ellipse-curve $-1 -1 $-1 -11.744803008569505 1040.4289685213439 68.800000000017974 0 0 1 4.6802752025355794 -6.4880678193535051 0 1 I I #
DXID-attrib $-1 -1 $-1 $58 $37 @18 ASM_EDGE_FROM_STEP @5 14997 #
point $-1 -1 $-1 -16.425078211105074 1046.9170363406975 76.70000000001798 #
face $122 -1 $-1 $-1 $123 $3 $-1 $124 reversed single #
DXID-attrib $-1 -1 $-1 $62 $39 @18 ASM_EDGE_FROM_STEP @5 14996 #
point $-1 -1 $-1 145.77661727273281 1163.9239164040873 68.800000000017974 #
truecolor-adesk-attrib $-1 -1 $125 $-1 $65 -1025672177 #
loop $-1 -1 $-1 $40 $126 $65 #
plane-surface $-1 -1 $-1 -8.832660446466889 1044.4810561255299 76.70000000001798 0 0 1 -0.58503440031694742 0.81100847741918813 0 forward_v I I I I #
DXID-attrib $-1 -1 $-1 $69 $30 @18 ASM_FACE_FROM_STEP @16 stp-2M-185-26691 #
fmesh-eye-attrib $-1 -1 $127 $70 $47 #
truecolor-adesk-attrib $-1 -1 $128 $-1 $71 -1025672177 #
face $129 -1 $-1 $130 $131 $3 $-1 $132 forward single #
loop $-1 -1 $-1 $-1 $133 $71 #
cone-surface $-1 -1 $-1 -68.79741181259476 1011.6675690691355 68.800000000017974 0 0 1 -4.8360991065254364 24.52778313325247 0 1 I I 0 1 25.000000000000004 forward I I I I #
loop $-1 -1 $-1 $-1 $134 $47 #
coedge $-1 -1 $-1 $104 $104 $135 $136 reversed $72 $-1 #
coedge $-1 -1 $-1 $105 $105 $137 $138 reversed $74 $-1 #
coedge $-1 -1 $-1 $106 $106 $75 $107 forward $139 $-1 #
edge $140 -1 $-1 $141 -3.1415926535897931 $141 3.1415926535897931 $75 $142 forward @7 unknown #
coedge $-1 -1 $-1 $108 $108 $76 $109 forward $143 $-1 #
edge $144 -1 $-1 $145 -3.1415926535897931 $145 3.1415926535897931 $76 $146 forward @7 unknown #
loop $-1 -1 $-1 $139 $77 $65 #
truecolor-adesk-attrib $-1 -1 $147 $-1 $78 -1025672177 #
vertex $-1 -1 $-1 $78 $148 #
ellipse-curve $-1 -1 $-1 -166.35803886433831 929.05274467793458 76.70000000001798 0 0 -1 4.6802752025355794 -6.4880678193535051 0 1 I I #
loop $-1 -1 $-1 $143 $79 $91 #
truecolor-adesk-attrib $-1 -1 $149 $-1 $80 -1025672177 #
vertex $-1 -1 $-1 $80 $150 #
ellipse-curve $-1 -1 $-1 98.957854159146905 1120.2861641646055 68.800000000017974 0 0 1 4.6802752025355794 -6.4880678193535051 0 1 I I #
DXID-attrib $-1 -1 $-1 $82 $54 @18 ASM_EDGE_FROM_STEP @5 14999 #
point $-1 -1 $-1 94.277578956611336 1126.7742319839585 76.70000000001798 #
DXID-attrib $-1 -1 $-1 $86 $56 @18 ASM_EDGE_FROM_STEP @5 14998 #
point $-1 -1 $-1 -16.425078211105074 1046.9170363406975 68.800000000017974 #
truecolor-adesk-attrib $-1 -1 $151 $-1 $91 -1025672177 #
loop $-1 -1 $-1 $61 $152 $91 #
plane-surface $-1 -1 $-1 -8.832660446466889 1044.4810561255299 68.800000000017974 0 0 1 -0.58503440031694742 0.81100847741918813 0 forward_v I I I I #
fmesh-eye-attrib $-1 -1 $153 $94 $65 #
coedge $-1 -1 $-1 $154 $155 $156 $157 forward $95 $-1 #
DXID-attrib $-1 -1 $-1 $98 $47 @18 ASM_FACE_FROM_STEP @16 stp-2M-185-26692 #
fmesh-eye-attrib $-1 -1 $158 $99 $71 #
truecolor-adesk-attrib $-1 -1 $159 $-1 $100 -1025672177 #
face $160 -1 $-1 $161 $162 $3 $-1 $163 forward single #
loop $-1 -1 $-1 $-1 $164 $100 #
plane-surface $-1 -1 $-1 -50.048150038338377 1041.3145626415971 68.800000000017974 -0.21211145727774672 0.97724548077313245 0 -0.97724548077313256 -0.21211145727774666 0 forward_v I I I I #
coedge $-1 -1 $-1 $165 $166 $167 $168 forward $101 $-1 #
coedge $-1 -1 $-1 $134 $134 $169 $170 reversed $103 $-1 #
coedge $-1 -1 $-1 $135 $135 $104 $136 forward $171 $-1 #
edge $172 -1 $-1 $173 -3.1415926535897931 $173 3.1415926535897931 $104 $174 forward @7 unknown #
coedge $-1 -1 $-1 $137 $137 $105 $138 forward $175 $-1 #
edge $176 -1 $-1 $177 -3.1415926535897931 $177 3.1415926535897931 $105 $178 forward @7 unknown #
loop $-1 -1 $-1 $171 $106 $65 #
truecolor-adesk-attrib $-1 -1 $179 $-1 $107 -1025672177 #
vertex $-1 -1 $-1 $107 $180 #
ellipse-curve $-1 -1 $-1 -70.546317087004297 1013.8589521447235 76.70000000001798 0 0 -1 4.6802752025355794 -6.4880678193535051 0 1 I I #
loop $-1 -1 $-1 $175 $108 $91 #
truecolor-adesk-attrib $-1 -1 $181 $-1 $109 -1025672177 #
vertex $-1 -1 $-1 $109 $182 #
ellipse-curve $-1 -1 $-1 -166.35803886433831 929.05274467793458 68.800000000017974 0 0 1 4.6802752025355794 -6.4880678193535051 0 1 I I #
DXID-attrib $-1 -1 $-1 $111 $78 @18 ASM_EDGE_FROM_STEP @5 15001 #
point $-1 -1 $-1 -171.03831406687385 935.54081249728813 76.70000000001798 #
DXID-attrib $-1 -1 $-1 $115 $80 @18 ASM_EDGE_FROM_STEP @5 15000 #
point $-1 -1 $-1 94.277578956611336 1126.7742319839585 68.800000000017974 #
fmesh-eye-attrib $-1 -1 $183 $122 $91 #
coedge $-1 -1 $-1 $167 $184 $185 $186 reversed $123 $-1 #
DXID-attrib $-1 -1 $-1 $125 $65 @18 ASM_FACE_FROM_STEP @16 stp-2M-185-26703 #
coedge $-1 -1 $-1 $187 $126 $188 $189 forward $95 $-1 #
coedge $-1 -1 $-1 $126 $190 $191 $192 forward $95 $-1 #
coedge $-1 -1 $-1 $193 $194 $126 $157 reversed $195 $-1 #
edge $196 -1 $-1 $197 0 $198 7.8199885040514978 $156 $199 forward @7 unknown #
DXID-attrib $-1 -1 $-1 $128 $71 @18 ASM_FACE_FROM_STEP @16 stp-2M-185-26693 #
fmesh-eye-attrib $-1 -1 $200 $129 $100 #
truecolor-adesk-attrib $-1 -1 $201 $-1 $130 -1025672177 #
face $202 -1 $-1 $203 $204 $3 $-1 $205 forward single #
loop $-1 -1 $-1 $-1 $206 $130 #
plane-surface $-1 -1 $-1 137.07540063699855 1175.9860454873556 68.800000000017974 -0.58414053239019459 0.81165253552175887 0 -0.81165253552175887 -0.58414053239019459 0 forward_v I I I I #
coedge $-1 -1 $-1 $207 $208 $209 $210 forward $131 $-1 #
coedge $-1 -1 $-1 $191 $133 $193 $211 forward $101 $-1 #
coedge $-1 -1 $-1 $133 $191 $207 $212 reversed $101 $-1 #
coedge $-1 -1 $-1 $209 $152 $133 $168 reversed $123 $-1 #
edge $213 -1 $-1 $214 1.4921397450962103e-15 $215 0.43025126543007886 $133 $216 forward @7 unknown #
coedge $-1 -1 $-1 $169 $169 $134 $170 forward $217 $-1 #
edge $218 -1 $-1 $219 -3.1415926535897931 $219 3.1415926535897931 $134 $220 forward @7 unknown #
loop $-1 -1 $-1 $-1 $135 $65 #
truecolor-adesk-attrib $-1 -1 $221 $-1 $136 -1025672177 #
vertex $-1 -1 $-1 $136 $222 #
ellipse-curve $-1 -1 $-1 -133.74593690854408 968.26885942434512 76.70000000001798 0 0 -1 4.6802752025355794 -6.4880678193535051 0 1 I I #
loop $-1 -1 $-1 $217 $137 $91 #
truecolor-adesk-attrib $-1 -1 $223 $-1 $138 -1025672177 #
vertex $-1 -1 $-1 $138 $224 #
ellipse-curve $-1 -1 $-1 -70.546317087004297 1013.8589521447235 68.800000000017974 0 0 1 4.6802752025355794 -6.4880678193535051 0 1 I I #
DXID-attrib $-1 -1 $-1 $140 $107 @18 ASM_EDGE_FROM_STEP @5 15003 #
point $-1 -1 $-1 -75.226592289539894 1020.347019964077 76.70000000001798 #
DXID-attrib $-1 -1 $-1 $144 $109 @18 ASM_EDGE_FROM_STEP @5 15002 #
point $-1 -1 $-1 -171.03831406687385 935.54081249728813 68.800000000017974 #
DXID-attrib $-1 -1 $-1 $151 $91 @18 ASM_FACE_FROM_STEP @16 stp-2M-185-26704 #
coedge $-1 -1 $-1 $152 $225 $226 $227 reversed $123 $-1 #
coedge $-1 -1 $-1 $194 $193 $152 $186 forward $195 $-1 #
edge $228 -1 $-1 $215 0 $229 7.8199885040514978 $185 $230 forward @7 unknown #
coedge $-1 -1 $-1 $231 $154 $232 $233 forward $95 $-1 #
coedge $-1 -1 $-1 $234 $235 $154 $189 reversed $236 $-1 #
edge $237 -1 $-1 $198 1.9895199510840973e-14 $238 0.43025126046149148 $188 $239 forward @7 unknown #
coedge $-1 -1 $-1 $155 $240 $241 $242 forward $95 $-1 #
coedge $-1 -1 $-1 $166 $165 $155 $192 reversed $101 $-1 #
edge $243 -1 $-1 $244 1.4921397450962103e-15 $197 0.43025126543007886 $191 $245 forward @7 unknown #
coedge $-1 -1 $-1 $185 $156 $165 $211 reversed $195 $-1 #
coedge $-1 -1 $-1 $156 $185 $234 $246 forward $195 $-1 #
loop $-1 -1 $-1 $-1 $185 $247 #
truecolor-adesk-attrib $-1 -1 $248 $-1 $157 -1025672177 #
vertex $-1 -1 $-1 $211 $249 #
vertex $-1 -1 $-1 $189 $250 #
straight-curve $-1 -1 $-1 -83.42327182052054 1031.9427810046182 76.70000000001798 -8.1100847741916091 -5.8503440031698517 0 F 0 F 7.8199885040514978 #
DXID-attrib $-1 -1 $-1 $159 $100 @18 ASM_FACE_FROM_STEP @16 stp-2M-185-26694 #
fmesh-eye-attrib $-1 -1 $251 $160 $130 #
truecolor-adesk-attrib $-1 -1 $252 $-1 $161 -1025672177 #
face $253 -1 $-1 $254 $255 $3 $-1 $256 forward single #
loop $-1 -1 $-1 $-1 $257 $161 #
cone-surface $-1 -1 $-1 150.45689247526838 1157.4358485847338 68.800000000017974 0 0 1 13.381491837729945 -18.55019690301155 0 1 I I 0 1 22.872999998769998 forward I I I I #
coedge $-1 -1 $-1 $258 $259 $260 $261 forward $162 $-1 #
coedge $-1 -1 $-1 $241 $164 $166 $212 forward $131 $-1 #
coedge $-1 -1 $-1 $164 $241 $258 $262 reversed $131 $-1 #
coedge $-1 -1 $-1 $260 $167 $164 $210 reversed $123 $-1 #
edge $263 -1 $-1 $264 0 $214 2.4134530519519566 $164 $265 forward @7 unknown #
edge $266 -1 $-1 $215 0 $197 0.79000000000000004 $165 $267 forward @7 unknown #
edge $268 -1 $-1 $214 0 $244 0.79000000000000004 $166 $269 forward @7 unknown #
truecolor-adesk-attrib $-1 -1 $270 $-1 $168 -1025672177 #
vertex $-1 -1 $-1 $168 $271 #
vertex $-1 -1 $-1 $168 $272 #
ellipse-curve $-1 -1 $-1 -68.79741181259476 1011.6675690691355 68.800000000017974 0 0 1 -4.8360991065254364 24.52778313325247 0 1 F 1.4921397450962103e-15 F 0.43025126543007886 #
loop $-1 -1 $-1 $-1 $169 $91 #
truecolor-adesk-attrib $-1 -1 $273 $-1 $170 -1025672177 #
vertex $-1 -1 $-1 $170 $274 #
ellipse-curve $-1 -1 $-1 -133.74593690854408 968.26885942434512 68.800000000017974 0 0 1 4.6802752025355794 -6.4880678193535051 0 1 I I #
DXID-attrib $-1 -1 $-1 $172 $136 @18 ASM_EDGE_FROM_STEP @5 15005 #
point $-1 -1 $-1 -138.42621211107968 974.75692724369867 76.70000000001798 #
DXID-attrib $-1 -1 $-1 $176 $138 @18 ASM_EDGE_FROM_STEP @5 15004 #
point $-1 -1 $-1 -75.226592289539894 1020.347019964077 68.800000000017974 #
coedge $-1 -1 $-1 $184 $275 $276 $277 reversed $123 $-1 #
coedge $-1 -1 $-1 $235 $234 $184 $227 forward $236 $-1 #
edge $278 -1 $-1 $229 1.9895199510840973e-14 $279 0.43025126046149148 $226 $280 forward @7 unknown #
truecolor-adesk-attrib $-1 -1 $281 $-1 $186 -1025672177 #
vertex $-1 -1 $-1 $227 $282 #
straight-curve $-1 -1 $-1 -83.42327182052054 1031.9427810046182 68.800000000017974 -8.1100847741916091 -5.8503440031698517 0 F 0 F 7.8199885040514978 #
coedge $-1 -1 $-1 $283 $187 $284 $285 forward $95 $-1 #
coedge $-1 -1 $-1 $286 $287 $187 $233 reversed $288 $-1 #
edge $289 -1 $-1 $238 0 $290 2.4134530519536801 $232 $291 forward @7 unknown #
coedge $-1 -1 $-1 $226 $188 $194 $246 reversed $236 $-1 #
coedge $-1 -1 $-1 $188 $226 $286 $292 forward $236 $-1 #
loop $-1 -1 $-1 $-1 $226 $293 #
truecolor-adesk-attrib $-1 -1 $294 $-1 $189 -1025672177 #
vertex $-1 -1 $-1 $233 $295 #
ellipse-curve $-1 -1 $-1 -132.21818110971805 965.91794651098814 76.70000000001798 0 0 1 -14.625860411861462 20.275211644092494 0 1 F 1.9895199510840973e-14 F 0.43025126046149148 #
coedge $-1 -1 $-1 $190 $296 $297 $298 forward $95 $-1 #
coedge $-1 -1 $-1 $208 $207 $190 $242 reversed $131 $-1 #
edge $299 -1 $-1 $300 0 $244 2.4134530519519566 $241 $301 forward @7 unknown #
truecolor-adesk-attrib $-1 -1 $302 $-1 $192 -1025672177 #
vertex $-1 -1 $-1 $192 $303 #
ellipse-curve $-1 -1 $-1 -68.79741181259476 1011.6675690691355 76.70000000001798 0 0 1 -4.8360991065254364 24.52778313325247 0 1 F 1.4921397450962103e-15 F 0.43025126543007886 #
edge $304 -1 $-1 $229 0 $198 0.79000000000000004 $234 $305 forward @7 unknown #
face $306 -1 $-1 $65 $195 $3 $-1 $307 forward single #
DXID-attrib $-1 -1 $-1 $196 $157 @18 ASM_EDGE_FROM_STEP @5 15036 #
point $-1 -1 $-1 -83.42327182052054 1031.9427810046182 76.70000000001798 #
point $-1 -1 $-1 -146.84404152158203 986.19315815508332 76.70000000001798 #
DXID-attrib $-1 -1 $-1 $201 $130 @18 ASM_FACE_FROM_STEP @16 stp-2M-185-26695 #
fmesh-eye-attrib $-1 -1 $308 $202 $161 #
truecolor-adesk-attrib $-1 -1 $309 $-1 $203 -1025672177 #
face $310 -1 $-1 $311 $312 $3 $-1 $313 forward single #
loop $-1 -1 $-1 $-1 $314 $203 #
plane-surface $-1 -1 $-1 -152.90244055054967 910.39941055188694 68.800000000017974 0.58503440031694742 -0.81100847741918813 0 0.81100847741918813 0.58503440031694742 0 forward_v I I I I #
coedge $-1 -1 $-1 $315 $316 $317 $318 forward $204 $-1 #
coedge $-1 -1 $-1 $297 $206 $208 $262 forward $162 $-1 #
coedge $-1 -1 $-1 $206 $297 $315 $319 reversed $162 $-1 #
coedge $-1 -1 $-1 $317 $209 $206 $261 reversed $123 $-1 #
edge $320 -1 $-1 $321 0 $264 23.054637604876987 $206 $322 forward @7 unknown #
edge $323 -1 $-1 $264 0 $300 0.79000000000000004 $208 $324 forward @7 unknown #
truecolor-adesk-attrib $-1 -1 $325 $-1 $210 -1025672177 #
vertex $-1 -1 $-1 $210 $326 #
straight-curve $-1 -1 $-1 -50.048150038338377 1041.3145626415971 68.800000000017974 -9.7724548077313251 -2.1211145727774676 0 F 0 F 2.4134530519519566 #
truecolor-adesk-attrib $-1 -1 $327 $-1 $211 -1025672177 #
straight-curve $-1 -1 $-1 -83.42327182052054 1031.9427810046182 68.800000000017974 0 0 10 F 0 F 0.79000000000000004 #
truecolor-adesk-attrib $-1 -1 $328 $-1 $212 -1025672177 #
straight-curve $-1 -1 $-1 -73.63351091912017 1036.1953522023882 68.800000000017974 0 0 10 F 0 F 0.79000000000000004 #
DXID-attrib $-1 -1 $-1 $213 $168 @18 ASM_EDGE_FROM_STEP @5 15007 #
point $-1 -1 $-1 -73.63351091912017 1036.1953522023882 68.800000000017974 #
point $-1 -1 $-1 -83.42327182052054 1031.9427810046182 68.800000000017974 #
DXID-attrib $-1 -1 $-1 $218 $170 @18 ASM_EDGE_FROM_STEP @5 15006 #
point $-1 -1 $-1 -138.42621211107968 974.75692724369867 68.800000000017974 #
coedge $-1 -1 $-1 $225 $329 $330 $331 reversed $123 $-1 #
coedge $-1 -1 $-1 $287 $286 $225 $277 forward $288 $-1 #
edge $332 -1 $-1 $279 0 $333 2.4134530519536801 $276 $334 forward @7 unknown #
truecolor-adesk-attrib $-1 -1 $335 $-1 $227 -1025672177 #
vertex $-1 -1 $-1 $277 $336 #
ellipse-curve $-1 -1 $-1 -132.21818110971805 965.91794651098814 68.800000000017974 0 0 1 -14.625860411861462 20.275211644092494 0 1 F 1.9895199510840973e-14 F 0.43025126046149148 #
DXID-attrib $-1 -1 $-1 $228 $186 @18 ASM_EDGE_FROM_STEP @5 15035 #
point $-1 -1 $-1 -146.84404152158203 986.19315815508332 68.800000000017974 #
coedge $-1 -1 $-1 $337 $231 $338 $339 forward $95 $-1 #
coedge $-1 -1 $-1 $340 $341 $231 $285 reversed $342 $-1 #
edge $343 -1 $-1 $290 0 $344 1.6705041298751979 $284 $345 forward @7 unknown #
coedge $-1 -1 $-1 $276 $232 $235 $292 reversed $288 $-1 #
coedge $-1 -1 $-1 $232 $276 $340 $346 forward $288 $-1 #
loop $-1 -1 $-1 $-1 $276 $347 #
truecolor-adesk-attrib $-1 -1 $348 $-1 $233 -1025672177 #
vertex $-1 -1 $-1 $285 $349 #
straight-curve $-1 -1 $-1 -153.9678289831852 978.24486085901128 76.70000000001798 -5.0957128522359341 -8.6042844285598488 0 F 0 F 2.4134530519536801 #
edge $350 -1 $-1 $279 0 $238 0.79000000000000004 $286 $351 forward @7 unknown #
face $352 -1 $-1 $247 $236 $3 $-1 $353 forward single #
DXID-attrib $-1 -1 $-1 $237 $189 @18 ASM_EDGE_FROM_STEP @5 15033 #
point $-1 -1 $-1 -153.9678289831852 978.24486085901128 76.70000000001798 #
coedge $-1 -1 $-1 $240 $337 $354 $355 forward $95 $-1 #
coedge $-1 -1 $-1 $259 $258 $240 $298 reversed $162 $-1 #
edge $356 -1 $-1 $357 0 $300 23.054637604876987 $297 $358 forward @7 unknown #
truecolor-adesk-attrib $-1 -1 $359 $-1 $242 -1025672177 #
vertex $-1 -1 $-1 $242 $360 #
straight-curve $-1 -1 $-1 -50.048150038338377 1041.3145626415971 76.70000000001798 -9.7724548077313251 -2.1211145727774676 0 F 0 F 2.4134530519519566 #
DXID-attrib $-1 -1 $-1 $243 $192 @18 ASM_EDGE_FROM_STEP @5 15009 #
point $-1 -1 $-1 -73.63351091912017 1036.1953522023882 76.70000000001798 #
truecolor-adesk-attrib $-1 -1 $361 $-1 $246 -1025672177 #
straight-curve $-1 -1 $-1 -146.84404152158203 986.19315815508332 68.800000000017974 0 0 10 F 0 F 0.79000000000000004 #
truecolor-adesk-attrib $-1 -1 $362 $-1 $247 -1025672177 #
plane-surface $-1 -1 $-1 -83.42327182052054 1031.9427810046182 68.800000000017974 -0.58503440031698517 0.81100847741916093 0 -0.81100847741916093 -0.58503440031698517 0 forward_v I I I I #
DXID-attrib $-1 -1 $-1 $252 $161 @18 ASM_FACE_FROM_STEP @16 stp-2M-185-26696 #
fmesh-eye-attrib $-1 -1 $363 $253 $203 #
truecolor-adesk-attrib $-1 -1 $364 $-1 $254 -1025672177 #
face $365 -1 $-1 $347 $342 $3 $-1 $366 forward single #
loop $-1 -1 $-1 $-1 $367 $254 #
cone-surface $-1 -1 $-1 -166.35803886433831 929.05274467793458 68.800000000017974 0 0 1 -13.455598260979482 18.653334164141437 0 1 I I 0 1 23.000000000000004 forward I I I I #
coedge $-1 -1 $-1 $368 $369 $370 $371 forward $255 $-1 #
coedge $-1 -1 $-1 $354 $257 $259 $319 forward $204 $-1 #
coedge $-1 -1 $-1 $257 $354 $368 $372 reversed $204 $-1 #
coedge $-1 -1 $-1 $370 $260 $257 $318 reversed $123 $-1 #
edge $373 -1 $-1 $374 0 $321 3.1415926536188969 $257 $375 forward @7 unknown #
edge $376 -1 $-1 $321 0 $357 0.79000000000000004 $259 $377 forward @7 unknown #
truecolor-adesk-attrib $-1 -1 $378 $-1 $261 -1025672177 #
vertex $-1 -1 $-1 $261 $379 #
straight-curve $-1 -1 $-1 137.07540063699855 1175.9860454873556 68.800000000017974 -8.1165253552175898 -5.8414053239019479 0 F 0 F 23.054637604876987 #
truecolor-adesk-attrib $-1 -1 $380 $-1 $262 -1025672177 #
straight-curve $-1 -1 $-1 -50.048150038338377 1041.3145626415971 68.800000000017974 0 0 10 F 0 F 0.79000000000000004 #
DXID-attrib $-1 -1 $-1 $263 $210 @18 ASM_EDGE_FROM_STEP @5 15011 #
point $-1 -1 $-1 -50.048150038338377 1041.3145626415971 68.800000000017974 #
DXID-attrib $-1 -1 $-1 $266 $211 @18 ASM_EDGE_FROM_STEP @5 15008 #
DXID-attrib $-1 -1 $-1 $268 $212 @18 ASM_EDGE_FROM_STEP @5 15010 #
coedge $-1 -1 $-1 $275 $370 $367 $381 reversed $123 $-1 #
coedge $-1 -1 $-1 $341 $340 $275 $331 forward $342 $-1 #
edge $382 -1 $-1 $333 0 $383 1.6705041298751979 $330 $384 forward @7 unknown #
truecolor-adesk-attrib $-1 -1 $385 $-1 $277 -1025672177 #
vertex $-1 -1 $-1 $331 $386 #
straight-curve $-1 -1 $-1 -153.9678289831852 978.24486085901128 68.800000000017974 -5.0957128522359341 -8.6042844285598488 0 F 0 F 2.4134530519536801 #
DXID-attrib $-1 -1 $-1 $278 $227 @18 ASM_EDGE_FROM_STEP @5 15032 #
point $-1 -1 $-1 -153.9678289831852 978.24486085901128 68.800000000017974 #
coedge $-1 -1 $-1 $296 $283 $387 $388 forward $95 $-1 #
coedge $-1 -1 $-1 $389 $390 $283 $339 reversed $312 $-1 #
edge $391 -1 $-1 $344 2.0679637996970138e-05 $392 3.1415926564208734 $338 $393 forward @7 unknown #
coedge $-1 -1 $-1 $330 $284 $287 $346 reversed $342 $-1 #
coedge $-1 -1 $-1 $284 $330 $389 $394 forward $342 $-1 #
loop $-1 -1 $-1 $-1 $330 $311 #
truecolor-adesk-attrib $-1 -1 $395 $-1 $285 -1025672177 #
vertex $-1 -1 $-1 $339 $396 #
straight-curve $-1 -1 $-1 -166.26609271829346 957.47882434502583 76.70000000001798 -8.1100847977893054 -5.8503439704573621 0 F 0 F 1.6705041298751979 #
edge $397 -1 $-1 $333 0 $290 0.79000000000000004 $340 $398 forward @7 unknown #
face $399 -1 $-1 $293 $288 $3 $-1 $400 forward single #
DXID-attrib $-1 -1 $-1 $289 $233 @18 ASM_EDGE_FROM_STEP @5 15030 #
point $-1 -1 $-1 -166.26609271829346 957.47882434502583 76.70000000001798 #
truecolor-adesk-attrib $-1 -1 $401 $-1 $292 -1025672177 #
straight-curve $-1 -1 $-1 -153.9678289831852 978.24486085901128 68.800000000017974 0 0 10 F 0 F 0.79000000000000004 #
truecolor-adesk-attrib $-1 -1 $402 $-1 $293 -1025672177 #
cone-surface $-1 -1 $-1 -132.21818110971805 965.91794651098814 68.800000000017974 0 0 1 -14.625860411861462 20.275211644092494 0 1 I I 0 1 25 forward I I I I #
coedge $-1 -1 $-1 $316 $315 $296 $355 reversed $204 $-1 #
edge $403 -1 $-1 $404 0 $357 3.1415926536188969 $354 $405 forward @7 unknown #
truecolor-adesk-attrib $-1 -1 $406 $-1 $298 -1025672177 #
vertex $-1 -1 $-1 $298 $407 #
straight-curve $-1 -1 $-1 137.07540063699855 1175.9860454873556 76.70000000001798 -8.1165253552175898 -5.8414053239019479 0 F 0 F 23.054637604876987 #
DXID-attrib $-1 -1 $-1 $299 $242 @18 ASM_EDGE_FROM_STEP @5 15012 #
point $-1 -1 $-1 -50.048150038338377 1041.3145626415971 76.70000000001798 #
DXID-attrib $-1 -1 $-1 $304 $246 @18 ASM_EDGE_FROM_STEP @5 15034 #
fmesh-eye-attrib $-1 -1 $408 $306 $247 #
DXID-attrib $-1 -1 $-1 $309 $203 @18 ASM_FACE_FROM_STEP @16 stp-2M-185-26697 #
fmesh-eye-attrib $-1 -1 $409 $310 $254 #
truecolor-adesk-attrib $-1 -1 $410 $-1 $311 -1025672177 #
plane-surface $-1 -1 $-1 -166.26609271829346 957.47882434502583 68.800000000017974 -0.58503439704573623 0.81100847977893054 0 -0.81100847977893054 -0.58503439704573623 0 forward_v I I I I #
coedge $-1 -1 $-1 $390 $389 $329 $381 forward $312 $-1 #
coedge $-1 -1 $-1 $387 $314 $316 $372 forward $255 $-1 #
coedge $-1 -1 $-1 $314 $387 $390 $411 reversed $255 $-1 #
coedge $-1 -1 $-1 $329 $317 $314 $371 reversed $123 $-1 #
edge $412 -1 $-1 $413 0 $374 39.05518051691503 $314 $414 forward @7 unknown #
edge $415 -1 $-1 $374 0 $404 0.79000000000000004 $316 $416 forward @7 unknown #
truecolor-adesk-attrib $-1 -1 $417 $-1 $318 -1025672177 #
vertex $-1 -1 $-1 $318 $418 #
ellipse-curve $-1 -1 $-1 150.45689247526838 1157.4358485847338 68.800000000017974 0 0 1 13.381491837729945 -18.55019690301155 0 1 F 0 F 3.1415926536188969 #
truecolor-adesk-attrib $-1 -1 $419 $-1 $319 -1025672177 #
straight-curve $-1 -1 $-1 137.07540063699855 1175.9860454873556 68.800000000017974 0 0 10 F 0 F 0.79000000000000004 #
DXID-attrib $-1 -1 $-1 $320 $261 @18 ASM_EDGE_FROM_STEP @5 15014 #
point $-1 -1 $-1 137.07540063699855 1175.9860454873556 68.800000000017974 #
DXID-attrib $-1 -1 $-1 $323 $262 @18 ASM_EDGE_FROM_STEP @5 15013 #
edge $420 -1 $-1 $383 2.0679637996970138e-05 $413 3.1415926564208734 $367 $421 forward @7 unknown #
truecolor-adesk-attrib $-1 -1 $422 $-1 $331 -1025672177 #
vertex $-1 -1 $-1 $381 $423 #
straight-curve $-1 -1 $-1 -166.26609271829346 957.47882434502583 68.800000000017974 -8.1100847977893054 -5.8503439704573621 0 F 0 F 1.6705041298751979 #
DXID-attrib $-1 -1 $-1 $332 $277 @18 ASM_EDGE_FROM_STEP @5 15029 #
point $-1 -1 $-1 -166.26609271829346 957.47882434502583 68.800000000017974 #
coedge $-1 -1 $-1 $369 $368 $337 $388 reversed $255 $-1 #
edge $424 -1 $-1 $392 0 $404 39.05518051691503 $387 $425 forward @7 unknown #
coedge $-1 -1 $-1 $367 $338 $341 $394 reversed $312 $-1 #
coedge $-1 -1 $-1 $338 $367 $369 $411 forward $312 $-1 #
truecolor-adesk-attrib $-1 -1 $426 $-1 $339 -1025672177 #
vertex $-1 -1 $-1 $388 $427 #
ellipse-curve $-1 -1 $-1 -166.35803886433831 929.05274467793458 76.70000000001798 0 0 1 -13.455598260979482 18.653334164141437 0 1 F 2.0679637996970138e-05 F 3.1415926564208734 #
edge $428 -1 $-1 $383 0 $344 0.79000000000000004 $389 $429 forward @7 unknown #
DXID-attrib $-1 -1 $-1 $343 $285 @18 ASM_EDGE_FROM_STEP @5 15027 #
point $-1 -1 $-1 -179.81402286663865 947.70580058118628 76.70000000001798 #
truecolor-adesk-attrib $-1 -1 $430 $-1 $346 -1025672177 #
straight-curve $-1 -1 $-1 -166.26609271829346 957.47882434502583 68.800000000017974 0 0 10 F 0 F 0.79000000000000004 #
truecolor-adesk-attrib $-1 -1 $431 $-1 $347 -1025672177 #
plane-surface $-1 -1 $-1 -153.9678289831852 978.24486085901128 68.800000000017974 -0.86042844285598519 0.50957128522359352 0 -0.50957128522359363 -0.86042844285598519 0 forward_v I I I I #
DXID-attrib $-1 -1 $-1 $350 $292 @18 ASM_EDGE_FROM_STEP @5 15031 #
fmesh-eye-attrib $-1 -1 $432 $352 $293 #
truecolor-adesk-attrib $-1 -1 $433 $-1 $355 -1025672177 #
vertex $-1 -1 $-1 $355 $434 #
ellipse-curve $-1 -1 $-1 150.45689247526838 1157.4358485847338 76.70000000001798 0 0 1 13.381491837729945 -18.55019690301155 0 1 F 0 F 3.1415926536188969 #
DXID-attrib $-1 -1 $-1 $356 $298 @18 ASM_EDGE_FROM_STEP @5 15015 #
point $-1 -1 $-1 137.07540063699855 1175.9860454873556 76.70000000001798 #
DXID-attrib $-1 -1 $-1 $362 $247 @18 ASM_FACE_FROM_STEP @16 stp-2M-185-26702 #
DXID-attrib $-1 -1 $-1 $364 $254 @18 ASM_FACE_FROM_STEP @16 stp-2M-185-26698 #
fmesh-eye-attrib $-1 -1 $435 $365 $311 #
edge $436 -1 $-1 $413 0 $392 0.79000000000000004 $369 $437 forward @7 unknown #
truecolor-adesk-attrib $-1 -1 $438 $-1 $371 -1025672177 #
vertex $-1 -1 $-1 $371 $439 #
straight-curve $-1 -1 $-1 -152.90244055054967 910.39941055188694 68.800000000017974 8.1100847741918809 5.8503440031694742 0 F 0 F 39.05518051691503 #
truecolor-adesk-attrib $-1 -1 $440 $-1 $372 -1025672177 #
straight-curve $-1 -1 $-1 163.83838431299827 1138.8856516817223 68.800000000017974 0 0 10 F 0 F 0.79000000000000004 #
DXID-attrib $-1 -1 $-1 $373 $318 @18 ASM_EDGE_FROM_STEP @5 15017 #
point $-1 -1 $-1 163.83838431299827 1138.8856516817223 68.800000000017974 #
DXID-attrib $-1 -1 $-1 $376 $319 @18 ASM_EDGE_FROM_STEP @5 15016 #
truecolor-adesk-attrib $-1 -1 $441 $-1 $381 -1025672177 #
ellipse-curve $-1 -1 $-1 -166.35803886433831 929.05274467793458 68.800000000017974 0 0 1 -13.455598260979482 18.653334164141437 0 1 F 2.0679637996970138e-05 F 3.1415926564208734 #
DXID-attrib $-1 -1 $-1 $382 $331 @18 ASM_EDGE_FROM_STEP @5 15026 #
point $-1 -1 $-1 -179.81402286663865 947.70580058118628 68.800000000017974 #
truecolor-adesk-attrib $-1 -1 $442 $-1 $388 -1025672177 #
straight-curve $-1 -1 $-1 -152.90244055054967 910.39941055188694 76.70000000001798 8.1100847741918809 5.8503440031694742 0 F 0 F 39.05518051691503 #
DXID-attrib $-1 -1 $-1 $391 $339 @18 ASM_EDGE_FROM_STEP @5 15024 #
point $-1 -1 $-1 -152.90244055054967 910.39941055188694 76.70000000001798 #
truecolor-adesk-attrib $-1 -1 $443 $-1 $394 -1025672177 #
straight-curve $-1 -1 $-1 -179.81402286663865 947.70580058118628 68.800000000017974 0 0 10 F 0 F 0.79000000000000004 #
DXID-attrib $-1 -1 $-1 $397 $346 @18 ASM_EDGE_FROM_STEP @5 15028 #
fmesh-eye-attrib $-1 -1 $444 $399 $347 #
DXID-attrib $-1 -1 $-1 $402 $293 @18 ASM_FACE_FROM_STEP @16 stp-2M-185-26701 #
DXID-attrib $-1 -1 $-1 $403 $355 @18 ASM_EDGE_FROM_STEP @5 15018 #
point $-1 -1 $-1 163.83838431299827 1138.8856516817223 76.70000000001798 #
DXID-attrib $-1 -1 $-1 $410 $311 @18 ASM_FACE_FROM_STEP @16 stp-2M-185-26699 #
truecolor-adesk-attrib $-1 -1 $445 $-1 $411 -1025672177 #
straight-curve $-1 -1 $-1 -152.90244055054967 910.39941055188694 68.800000000017974 0 0 10 F 0 F 0.79000000000000004 #
DXID-attrib $-1 -1 $-1 $412 $371 @18 ASM_EDGE_FROM_STEP @5 15020 #
point $-1 -1 $-1 -152.90244055054967 910.39941055188694 68.800000000017974 #
DXID-attrib $-1 -1 $-1 $415 $372 @18 ASM_EDGE_FROM_STEP @5 15019 #
DXID-attrib $-1 -1 $-1 $420 $381 @18 ASM_EDGE_FROM_STEP @5 15023 #
DXID-attrib $-1 -1 $-1 $424 $388 @18 ASM_EDGE_FROM_STEP @5 15021 #
DXID-attrib $-1 -1 $-1 $428 $394 @18 ASM_EDGE_FROM_STEP @5 15025 #
DXID-attrib $-1 -1 $-1 $431 $347 @18 ASM_FACE_FROM_STEP @16 stp-2M-185-26700 #
DXID-attrib $-1 -1 $-1 $436 $411 @18 ASM_EDGE_FROM_STEP @5 15022 #
