700 95 1 0          
5 ZWCAD 12 ACIS 28.0 NT 24 Sat May 11 14:49:04 2024 
1 9.9999999999999995e-07 1e-10 
body $1 -1 $-1 $2 $-1 $-1 #
DXID-attrib $-1 -1 $-1 $-1 $0 @18 ASM_BODY_FROM_STEP @57 STP-1M-110-300|:|B8A4396250C5687B1D31E70758B30729E1AC4426 #
lump $-1 -1 $-1 $-1 $3 $0 #
shell $-1 -1 $-1 $-1 $-1 $4 $-1 $2 #
face $5 -1 $-1 $6 $7 $3 $-1 $8 forward single #
fmesh-eye-attrib $-1 -1 $9 $-1 $4 #
face $10 -1 $-1 $11 $12 $3 $-1 $13 forward single #
loop $-1 -1 $-1 $14 $15 $4 #
cone-surface $-1 -1 $-1 6.8336937017044903 70.95854099046916 12.199999999999999 0 1 0 0 0 -5.8749999999137303 1 I I 0.22722961562882135 0.97384120973656596 5.8749999999137303 forward I I I I #
truecolor-adesk-attrib $-1 -1 $16 $5 $4 -1037555672 #
fmesh-eye-attrib $-1 -1 $17 $-1 $6 #
face $18 -1 $-1 $19 $20 $3 $-1 $21 forward single #
loop $-1 -1 $-1 $22 $23 $6 #
cone-surface $-1 -1 $-1 6.8336937017044903 76.708540990414548 12.199999999999999 0 -1 0 0 0 4.6249999999675504 1 I I 0.72819999268168467 0.68536469901680419 4.6249999999675504 forward I I I I #
loop $-1 -1 $-1 $-1 $24 $4 #
coedge $-1 -1 $-1 $15 $15 $25 $26 forward $7 $-1 #
color-adesk-attrib $-1 -1 $27 $9 $4 250 #
truecolor-adesk-attrib $-1 -1 $28 $10 $6 -1037555672 #
fmesh-eye-attrib $-1 -1 $29 $-1 $11 #
face $30 -1 $-1 $31 $32 $3 $-1 $33 forward single #
loop $-1 -1 $-1 $34 $35 $11 #
cone-surface $-1 -1 $-1 6.8336937017044903 67.208540990449023 12.199999999999999 0 1 0 0 0 2.5 1 I I 0 1 2.5 forward I I I I #
loop $-1 -1 $-1 $-1 $25 $6 #
coedge $-1 -1 $-1 $23 $23 $36 $37 forward $12 $-1 #
coedge $-1 -1 $-1 $24 $24 $38 $39 reversed $14 $-1 #
coedge $-1 -1 $-1 $25 $25 $15 $26 reversed $22 $-1 #
edge $40 -1 $-1 $41 -1.22464679914735e-16 $41 6.2831853071795862 $15 $42 forward @7 unknown #
DXID-attrib $-1 -1 $-1 $16 $4 @18 ASM_FACE_FROM_STEP @15 stp-1M-110-2361 #
color-adesk-attrib $-1 -1 $43 $17 $6 250 #
truecolor-adesk-attrib $-1 -1 $44 $18 $11 -1028673617 #
fmesh-eye-attrib $-1 -1 $45 $-1 $19 #
face $46 -1 $-1 $47 $48 $3 $-1 $49 reversed single #
loop $-1 -1 $-1 $50 $51 $19 #
cone-surface $-1 -1 $-1 6.8336937017044903 101.88829099044963 12.199999999999999 0 -1 0 0 0 2.2547500000006302 1 I I 0.70710678118835257 0.70710678118474246 2.2547500000006302 forward I I I I #
loop $-1 -1 $-1 $-1 $36 $11 #
coedge $-1 -1 $-1 $35 $35 $52 $53 forward $20 $-1 #
coedge $-1 -1 $-1 $36 $36 $23 $37 reversed $34 $-1 #
edge $54 -1 $-1 $55 0 $55 6.2831853071795862 $23 $56 forward @7 unknown #
coedge $-1 -1 $-1 $38 $38 $24 $39 forward $57 $-1 #
edge $58 -1 $-1 $59 0 $59 6.2831853071795862 $24 $60 forward @7 unknown #
truecolor-adesk-attrib $-1 -1 $61 $-1 $26 -1037555672 #
vertex $-1 -1 $-1 $26 $62 #
ellipse-curve $-1 -1 $-1 6.8336937017044903 74.708540990449023 12.199999999999999 0 -1 0 -8.2663658942446126e-16 0 6.75 1 I I #
DXID-attrib $-1 -1 $-1 $28 $6 @18 ASM_FACE_FROM_STEP @15 stp-1M-110-2370 #
color-adesk-attrib $-1 -1 $63 $29 $11 253 #
truecolor-adesk-attrib $-1 -1 $64 $30 $19 -1028673617 #
fmesh-eye-attrib $-1 -1 $65 $-1 $31 #
face $66 -1 $-1 $-1 $57 $3 $-1 $67 reversed single #
loop $-1 -1 $-1 $-1 $68 $31 #
plane-surface $-1 -1 $-1 6.8336937017044903 102.13354099044902 12.199999999999999 0 -1 0 0 0 1 forward_v I I I I #
loop $-1 -1 $-1 $-1 $52 $19 #
coedge $-1 -1 $-1 $51 $51 $68 $69 forward $32 $-1 #
coedge $-1 -1 $-1 $52 $52 $35 $53 reversed $50 $-1 #
edge $70 -1 $-1 $71 -2.4492935982947104e-16 $71 6.2831853071795862 $35 $72 forward @7 unknown #
truecolor-adesk-attrib $-1 -1 $73 $-1 $37 -1028673617 #
vertex $-1 -1 $-1 $37 $74 #
ellipse-curve $-1 -1 $-1 6.8336937017044903 78.708540990449023 12.199999999999999 0 -1 0 0 0 2.5 1 I I #
loop $-1 -1 $-1 $-1 $38 $47 #
truecolor-adesk-attrib $-1 -1 $75 $-1 $39 -1037555672 #
vertex $-1 -1 $-1 $39 $76 #
ellipse-curve $-1 -1 $-1 6.8336937017044903 67.208540990449023 12.199999999999999 0 -1 0 0 0 5 1 I I #
color-adesk-attrib $-1 -1 $77 $40 $26 250 #
point $-1 -1 $-1 6.8336937017044903 74.708540990449023 18.949999999999999 #
DXID-attrib $-1 -1 $-1 $44 $11 @18 ASM_FACE_FROM_STEP @15 stp-1M-110-2379 #
color-adesk-attrib $-1 -1 $78 $45 $19 253 #
truecolor-adesk-attrib $-1 -1 $79 $46 $31 -1028673617 #
fmesh-eye-attrib $-1 -1 $80 $-1 $47 #
plane-surface $-1 -1 $-1 1.8336937017044903 67.208540990449023 12.199999999999999 0 1 0 0 0 -1 forward_v I I I I #
coedge $-1 -1 $-1 $68 $68 $51 $69 reversed $48 $-1 #
edge $81 -1 $-1 $82 0 $82 6.2831853071795862 $51 $83 forward @7 unknown #
truecolor-adesk-attrib $-1 -1 $84 $-1 $53 -1028673617 #
vertex $-1 -1 $-1 $53 $85 #
ellipse-curve $-1 -1 $-1 6.8336937017044903 101.64304099044902 12.199999999999999 0 -1 0 -6.1232339957367761e-16 0 2.5 1 I I #
color-adesk-attrib $-1 -1 $86 $54 $37 253 #
point $-1 -1 $-1 6.8336937017044903 78.708540990449023 14.699999999999999 #
color-adesk-attrib $-1 -1 $87 $58 $39 250 #
point $-1 -1 $-1 6.8336937017044903 67.208540990449023 17.199999999999999 #
DXID-attrib $-1 -1 $-1 $61 $26 @18 ASM_EDGE_FROM_STEP @4 6514 #
DXID-attrib $-1 -1 $-1 $64 $19 @18 ASM_FACE_FROM_STEP @15 stp-1M-110-2388 #
color-adesk-attrib $-1 -1 $88 $65 $31 253 #
truecolor-adesk-attrib $-1 -1 $89 $66 $47 -1037555672 #
truecolor-adesk-attrib $-1 -1 $90 $-1 $69 -1028673617 #
vertex $-1 -1 $-1 $69 $91 #
ellipse-curve $-1 -1 $-1 6.8336937017044903 102.13354099044902 12.199999999999999 0 -1 0 0 0 2.0095000000000001 1 I I #
color-adesk-attrib $-1 -1 $92 $70 $53 253 #
point $-1 -1 $-1 6.8336937017044903 101.64304099044902 14.699999999999999 #
DXID-attrib $-1 -1 $-1 $73 $37 @18 ASM_EDGE_FROM_STEP @4 6516 #
DXID-attrib $-1 -1 $-1 $75 $39 @18 ASM_EDGE_FROM_STEP @4 6515 #
DXID-attrib $-1 -1 $-1 $79 $31 @18 ASM_FACE_FROM_STEP @15 stp-1M-110-2397 #
color-adesk-attrib $-1 -1 $93 $80 $47 250 #
color-adesk-attrib $-1 -1 $94 $81 $69 253 #
point $-1 -1 $-1 6.8336937017044903 102.13354099044902 14.209499999999998 #
DXID-attrib $-1 -1 $-1 $84 $53 @18 ASM_EDGE_FROM_STEP @4 6517 #
DXID-attrib $-1 -1 $-1 $89 $47 @18 ASM_FACE_FROM_STEP @15 stp-1M-110-2406 #
DXID-attrib $-1 -1 $-1 $90 $69 @18 ASM_EDGE_FROM_STEP @4 6518 #
