700 209 1 0         
5 ZWCAD 12 ACIS 28.0 NT 24 Mon May 13 14:18:50 2024 
1 9.9999999999999995e-07 1e-10 
body $1 -1 $-1 $2 $-1 $-1 #
DXID-attrib $-1 -1 $-1 $-1 $0 @18 ASM_BODY_FROM_STEP @83 59476F9EBA9AE1FA426042A4E47D2C5FAB7F5C19|:|A131EE87EFA4B3D8605D20E46C485F6BC2DE1C93 #
lump $-1 -1 $-1 $-1 $3 $0 #
shell $-1 -1 $-1 $-1 $-1 $4 $-1 $2 #
face $5 -1 $-1 $6 $7 $3 $-1 $8 reversed single #
color-adesk-attrib $-1 -1 $9 $-1 $4 2 #
face $10 -1 $-1 $11 $12 $3 $-1 $13 forward single #
loop $-1 -1 $-1 $-1 $14 $4 #
cone-surface $-1 -1 $-1 152.96410998058852 242.40753983343637 34.400000000009499 -1 -1.3877787807814457e-16 1.5407439555097887e-33 2.2204460492503131e-15 -19.5 1.2993357154991836e-15 1 I I 0 1 19.5 forward I I I I #
fmesh-eye-attrib $-1 -1 $15 $5 $4 #
color-adesk-attrib $-1 -1 $16 $-1 $6 2 #
face $17 -1 $-1 $18 $19 $3 $-1 $20 forward single #
loop $-1 -1 $-1 $-1 $21 $6 #
plane-surface $-1 -1 $-1 152.96410998058852 242.40753983343637 9.4000000000094985 1.1102230246251565e-16 -1 6.6632600794829831e-17 -9.2444637330587321e-33 6.6632600794829844e-17 1 forward_v I I I I #
coedge $-1 -1 $-1 $22 $23 $24 $25 forward $7 $-1 #
DXID-attrib $-1 -1 $-1 $9 $4 @18 ASM_FACE_FROM_STEP @16 stp-2M-185-26678 #
fmesh-eye-attrib $-1 -1 $26 $10 $6 #
color-adesk-attrib $-1 -1 $27 $-1 $11 2 #
face $28 -1 $-1 $29 $30 $3 $-1 $31 forward single #
loop $-1 -1 $-1 $-1 $32 $11 #
plane-surface $-1 -1 $-1 152.96410998058852 242.40753983343637 53.900000000009499 1.1102230246251565e-16 -1 6.6632600794829831e-17 -9.2444637330587321e-33 6.6632600794829844e-17 1 forward_v I I I I #
coedge $-1 -1 $-1 $33 $34 $35 $36 forward $12 $-1 #
coedge $-1 -1 $-1 $37 $14 $38 $39 forward $7 $-1 #
coedge $-1 -1 $-1 $14 $37 $33 $40 reversed $7 $-1 #
coedge $-1 -1 $-1 $35 $41 $14 $25 reversed $42 $-1 #
edge $43 -1 $-1 $44 1.5707963267948968 $45 4.7123889803846897 $14 $46 forward @7 unknown #
DXID-attrib $-1 -1 $-1 $16 $6 @18 ASM_FACE_FROM_STEP @16 stp-2M-185-26679 #
fmesh-eye-attrib $-1 -1 $47 $17 $11 #
color-adesk-attrib $-1 -1 $48 $-1 $18 2 #
face $49 -1 $-1 $50 $51 $3 $-1 $52 reversed single #
loop $-1 -1 $-1 $-1 $53 $18 #
plane-surface $-1 -1 $-1 152.96410998058849 306.90753983343649 59.400000000009499 -1.1102230246251565e-16 1 -3.5527136788005021e-16 -1.4836809352133763e-17 -3.5527136788005031e-16 -1 forward_v I I I I #
coedge $-1 -1 $-1 $54 $38 $41 $55 forward $19 $-1 #
coedge $-1 -1 $-1 $56 $21 $23 $40 forward $12 $-1 #
coedge $-1 -1 $-1 $21 $56 $57 $58 reversed $12 $-1 #
coedge $-1 -1 $-1 $59 $24 $21 $36 reversed $42 $-1 #
edge $60 -1 $-1 $61 -0.95000000000000018 $44 0.54999999999999982 $21 $62 forward @7 unknown #
coedge $-1 -1 $-1 $23 $22 $63 $64 forward $7 $-1 #
coedge $-1 -1 $-1 $32 $65 $22 $39 reversed $19 $-1 #
edge $66 -1 $-1 $45 5.7410487308068792 $67 6.6910487308069522 $22 $68 forward @7 unknown #
edge $69 -1 $-1 $44 5.7410487308068792 $70 6.6910487308069522 $23 $71 forward @7 unknown #
coedge $-1 -1 $-1 $24 $72 $32 $55 reversed $42 $-1 #
loop $-1 -1 $-1 $73 $35 $74 #
color-adesk-attrib $-1 -1 $75 $-1 $25 2 #
vertex $-1 -1 $-1 $25 $76 #
vertex $-1 -1 $-1 $25 $77 #
ellipse-curve $-1 -1 $-1 95.553622672519737 242.40753983343643 34.400000000009499 1 1.3877787807814457e-16 1.0785207688568521e-32 2.2204460492503131e-15 -19.5 1.2993357154991836e-15 1 F 1.5707963267948968 F 4.7123889803846897 #
DXID-attrib $-1 -1 $-1 $27 $11 @18 ASM_FACE_FROM_STEP @16 stp-2M-185-26680 #
fmesh-eye-attrib $-1 -1 $78 $28 $18 #
color-adesk-attrib $-1 -1 $79 $-1 $29 2 #
face $80 -1 $-1 $81 $82 $3 $-1 $83 reversed single #
loop $-1 -1 $-1 $84 $85 $29 #
cone-surface $-1 -1 $-1 86.053622672519452 284.40753983343689 34.400000000009499 1.0000000000000002 -1.1046719095020308e-14 0 -1.3811174426336947e-13 -12.500000000000004 0 1 I I 0 1 12.500000000000002 forward I I I I #
coedge $-1 -1 $-1 $86 $87 $88 $89 forward $30 $-1 #
coedge $-1 -1 $-1 $65 $32 $90 $91 reversed $19 $-1 #
edge $92 -1 $-1 $45 -0.54999999999999982 $93 0.95000000000000018 $32 $94 forward @7 unknown #
coedge $-1 -1 $-1 $34 $33 $95 $96 forward $12 $-1 #
coedge $-1 -1 $-1 $97 $98 $34 $58 forward $99 $-1 #
edge $100 -1 $-1 $61 -3.2589512691930556 $101 -2.3089512691930527 $34 $102 forward @7 unknown #
coedge $-1 -1 $-1 $88 $35 $98 $103 reversed $42 $-1 #
color-adesk-attrib $-1 -1 $104 $-1 $36 2 #
vertex $-1 -1 $-1 $36 $105 #
straight-curve $-1 -1 $-1 95.553622672519737 242.40753983343643 9.4000000000094985 -4.9303806576313238e-32 6.6632600794829787e-16 10 F -0.95000000000000018 F 0.54999999999999982 #
coedge $-1 -1 $-1 $106 $95 $37 $64 reversed $82 $-1 #
edge $107 -1 $-1 $67 1.5707963267948966 $70 4.7123889803846897 $37 $108 forward @7 unknown #
coedge $-1 -1 $-1 $38 $54 $106 $109 forward $19 $-1 #
color-adesk-attrib $-1 -1 $110 $-1 $39 2 #
vertex $-1 -1 $-1 $39 $111 #
straight-curve $-1 -1 $-1 152.96410998058852 242.40753983343637 53.900000000009499 -9.9999999999999947 -1.3322676295501878e-15 0 F 5.7410487308068792 F 6.6910487308069522 #
color-adesk-attrib $-1 -1 $112 $-1 $40 2 #
vertex $-1 -1 $-1 $64 $113 #
straight-curve $-1 -1 $-1 152.96410998058852 242.40753983343637 14.900000000009499 -9.9999999999999947 -1.3322676295501878e-15 0 F 5.7410487308068792 F 6.6910487308069522 #
coedge $-1 -1 $-1 $41 $88 $114 $115 reversed $42 $-1 #
loop $-1 -1 $-1 $-1 $116 $74 #
face $117 -1 $-1 $118 $42 $3 $-1 $119 forward single #
DXID-attrib $-1 -1 $-1 $43 $25 @18 ASM_EDGE_FROM_STEP @5 14975 #
point $-1 -1 $-1 95.553622672519737 242.40753983343643 14.900000000009499 #
point $-1 -1 $-1 95.553622672519737 242.40753983343643 53.900000000009499 #
DXID-attrib $-1 -1 $-1 $48 $18 @18 ASM_FACE_FROM_STEP @16 stp-2M-185-26681 #
fmesh-eye-attrib $-1 -1 $120 $49 $29 #
color-adesk-attrib $-1 -1 $121 $-1 $50 2 #
face $122 -1 $-1 $74 $99 $3 $-1 $123 forward single #
loop $-1 -1 $-1 $124 $125 $50 #
plane-surface $-1 -1 $-1 86.053622672519026 242.40753983343637 68.900000000009499 1.0000000000000002 -1.1046719095020308e-14 0 1.1046719095020308e-14 1.0000000000000002 0 forward_v I I I I #
loop $-1 -1 $-1 $-1 $126 $29 #
coedge $-1 -1 $-1 $85 $85 $116 $127 reversed $51 $-1 #
coedge $-1 -1 $-1 $128 $53 $129 $130 reversed $30 $-1 #
coedge $-1 -1 $-1 $53 $128 $131 $132 reversed $30 $-1 #
coedge $-1 -1 $-1 $72 $59 $53 $89 reversed $42 $-1 #
edge $133 -1 $-1 $134 -5.9500000000000002 $135 0.95000000000000018 $53 $136 forward @7 unknown #
coedge $-1 -1 $-1 $114 $137 $54 $91 forward $138 $-1 #
edge $139 -1 $-1 $140 2.3089512691930527 $93 3.2589512691930556 $54 $141 forward @7 unknown #
color-adesk-attrib $-1 -1 $142 $-1 $55 2 #
vertex $-1 -1 $-1 $55 $143 #
straight-curve $-1 -1 $-1 95.553622672519055 242.40753983343643 59.400000000009499 0 0 10 F -0.54999999999999982 F 0.95000000000000018 #
coedge $-1 -1 $-1 $63 $125 $56 $96 reversed $82 $-1 #
edge $144 -1 $-1 $70 2.4250000000000003 $101 3.9250000000000003 $56 $145 forward @7 unknown #
coedge $-1 -1 $-1 $129 $57 $125 $146 forward $99 $-1 #
coedge $-1 -1 $-1 $57 $129 $59 $103 forward $99 $-1 #
loop $-1 -1 $-1 $-1 $97 $81 #
color-adesk-attrib $-1 -1 $147 $-1 $58 2 #
vertex $-1 -1 $-1 $96 $148 #
straight-curve $-1 -1 $-1 62.964109980588503 242.40753983343672 -0.099999999990501465 -9.9999999999999964 1.1035616864774056e-13 0 F -3.2589512691930556 F -2.3089512691930527 #
edge $149 -1 $-1 $135 -6.4500000000000002 $61 0 $98 $150 forward @7 unknown #
DXID-attrib $-1 -1 $-1 $60 $36 @18 ASM_EDGE_FROM_STEP @5 14979 #
point $-1 -1 $-1 95.553622672519055 242.40753983343643 -0.099999999990501465 #
coedge $-1 -1 $-1 $151 $63 $65 $109 reversed $82 $-1 #
color-adesk-attrib $-1 -1 $152 $-1 $64 2 #
ellipse-curve $-1 -1 $-1 86.053622672519026 242.40753983343637 34.400000000009499 -1.0000000000000002 1.1046719095020308e-14 -1.540743955509789e-33 -2.1582735598713043e-13 -19.5 1.2993357154991836e-15 1 F 1.5707963267948966 F 4.7123889803846897 #
edge $153 -1 $-1 $140 -0.75 $67 0.75 $65 $154 forward @7 unknown #
DXID-attrib $-1 -1 $-1 $66 $39 @18 ASM_EDGE_FROM_STEP @5 14976 #
point $-1 -1 $-1 86.053622672519026 242.40753983343637 53.900000000009499 #
DXID-attrib $-1 -1 $-1 $69 $40 @18 ASM_EDGE_FROM_STEP @5 14978 #
point $-1 -1 $-1 86.053622672519026 242.40753983343637 14.900000000009499 #
coedge $-1 -1 $-1 $131 $90 $72 $115 forward $138 $-1 #
edge $155 -1 $-1 $93 0 $134 6.4500000000000002 $72 $156 forward @7 unknown #
coedge $-1 -1 $-1 $116 $116 $85 $127 forward $73 $-1 #
color-adesk-attrib $-1 -1 $157 $-1 $74 2 #
face $158 -1 $-1 $-1 $138 $3 $-1 $159 forward single #
plane-surface $-1 -1 $-1 95.553622672519722 306.90753983343649 9.4000000000094985 1.0000000000000002 -1.1046719095020308e-14 0 -1.1046719095020308e-14 -1.0000000000000002 0 forward_v I I I I #
DXID-attrib $-1 -1 $-1 $79 $29 @18 ASM_FACE_FROM_STEP @16 stp-2M-185-26682 #
fmesh-eye-attrib $-1 -1 $160 $80 $50 #
color-adesk-attrib $-1 -1 $161 $-1 $81 2 #
plane-surface $-1 -1 $-1 79.258866326554113 274.6575398334366 -0.099999999990501465 0 0 -1 -0.16504760586067696 -0.98628560153723155 0 forward_v I I I I #
loop $-1 -1 $-1 $-1 $162 $50 #
coedge $-1 -1 $-1 $95 $163 $97 $146 reversed $82 $-1 #
coedge $-1 -1 $-1 $126 $126 $162 $164 reversed $84 $-1 #
edge $165 -1 $-1 $166 -3.1415926535897931 $166 3.1415926535897931 $85 $167 forward @7 unknown #
coedge $-1 -1 $-1 $87 $86 $163 $168 forward $30 $-1 #
coedge $-1 -1 $-1 $98 $97 $86 $130 forward $99 $-1 #
edge $169 -1 $-1 $170 -0.94999999999999862 $135 0 $86 $171 forward @7 unknown #
coedge $-1 -1 $-1 $137 $114 $87 $132 forward $138 $-1 #
edge $172 -1 $-1 $134 0 $173 0.94999999999999862 $87 $174 forward @7 unknown #
color-adesk-attrib $-1 -1 $175 $-1 $89 2 #
vertex $-1 -1 $-1 $89 $176 #
vertex $-1 -1 $-1 $89 $177 #
straight-curve $-1 -1 $-1 95.553622672519708 306.90753983343643 9.4000000000094985 0 0 -10 F -5.9500000000000002 F 0.95000000000000018 #
coedge $-1 -1 $-1 $90 $131 $151 $178 forward $138 $-1 #
loop $-1 -1 $-1 $-1 $137 $118 #
color-adesk-attrib $-1 -1 $179 $-1 $91 2 #
vertex $-1 -1 $-1 $91 $180 #
straight-curve $-1 -1 $-1 62.964109980588503 242.40753983343672 68.900000000009499 9.9999999999999964 -1.1035616864774056e-13 0 F 2.3089512691930527 F 3.2589512691930556 #
DXID-attrib $-1 -1 $-1 $92 $55 @18 ASM_EDGE_FROM_STEP @5 14982 #
point $-1 -1 $-1 95.553622672519055 242.40753983343643 68.900000000009499 #
color-adesk-attrib $-1 -1 $181 $-1 $96 2 #
straight-curve $-1 -1 $-1 86.053622672519026 242.40753983343637 39.150000000009499 -7.1983557601417327e-30 -6.6632600794829866e-16 -10 F 2.4250000000000003 F 3.9250000000000003 #
edge $182 -1 $-1 $101 -1.6125000000000111 $170 4.8375000000000075 $125 $183 forward @7 unknown #
DXID-attrib $-1 -1 $-1 $100 $58 @18 ASM_EDGE_FROM_STEP @5 14981 #
point $-1 -1 $-1 86.053622672519026 242.40753983343637 -0.099999999990501465 #
color-adesk-attrib $-1 -1 $184 $-1 $103 2 #
straight-curve $-1 -1 $-1 95.553622672519055 242.40753983343643 -0.099999999990501465 -1.1035616864774056e-13 -9.9999999999999964 0 F -6.4500000000000002 F 0 #
coedge $-1 -1 $-1 $163 $106 $137 $178 reversed $82 $-1 #
DXID-attrib $-1 -1 $-1 $107 $64 @18 ASM_EDGE_FROM_STEP @5 14977 #
color-adesk-attrib $-1 -1 $185 $-1 $109 2 #
straight-curve $-1 -1 $-1 86.053622672519026 242.40753983343637 61.400000000009499 -7.1983557601417327e-30 -6.6632600794829866e-16 -10 F -0.75 F 0.75 #
color-adesk-attrib $-1 -1 $186 $-1 $115 2 #
straight-curve $-1 -1 $-1 95.553622672519055 242.40753983343643 68.900000000009499 1.1035616864774056e-13 9.9999999999999964 0 F 0 F 6.4500000000000002 #
fmesh-eye-attrib $-1 -1 $187 $117 $74 #
color-adesk-attrib $-1 -1 $188 $-1 $118 2 #
plane-surface $-1 -1 $-1 79.258866326554113 274.6575398334366 68.900000000009499 0 0 1 0.16504760586067696 0.98628560153723155 0 forward_v I I I I #
DXID-attrib $-1 -1 $-1 $121 $50 @18 ASM_FACE_FROM_STEP @16 stp-2M-185-26683 #
fmesh-eye-attrib $-1 -1 $189 $122 $81 #
coedge $-1 -1 $-1 $162 $162 $126 $164 forward $124 $-1 #
coedge $-1 -1 $-1 $125 $151 $128 $168 reversed $82 $-1 #
edge $190 -1 $-1 $191 -3.1415926535897931 $191 3.1415926535897931 $126 $192 forward @7 unknown #
color-adesk-attrib $-1 -1 $193 $-1 $127 2 #
vertex $-1 -1 $-1 $127 $194 #
ellipse-curve $-1 -1 $-1 95.553622672519538 284.40753983343683 34.400000000009499 -1.0000000000000002 1.1046719095020308e-14 0 -1.3811174426336947e-13 -12.500000000000004 0 1 I I #
edge $195 -1 $-1 $170 -6.4250000000000007 $173 0.47500000000000009 $128 $196 forward @7 unknown #
color-adesk-attrib $-1 -1 $197 $-1 $130 2 #
vertex $-1 -1 $-1 $130 $198 #
straight-curve $-1 -1 $-1 95.553622672519708 306.90753983343643 -0.099999999990501465 9.9999999999999964 -1.1035616864774056e-13 0 F -0.94999999999999862 F 0 #
color-adesk-attrib $-1 -1 $199 $-1 $132 2 #
vertex $-1 -1 $-1 $168 $200 #
straight-curve $-1 -1 $-1 95.553622672519708 306.90753983343643 68.900000000009499 -9.9999999999999964 1.1035616864774056e-13 0 F 0 F 0.94999999999999862 #
DXID-attrib $-1 -1 $-1 $133 $89 @18 ASM_EDGE_FROM_STEP @5 14985 #
point $-1 -1 $-1 95.553622672519708 306.90753983343643 68.900000000009499 #
point $-1 -1 $-1 95.553622672519708 306.90753983343643 -0.099999999990501465 #
edge $201 -1 $-1 $173 -4.8375000000000075 $140 1.6125000000000111 $151 $202 forward @7 unknown #
DXID-attrib $-1 -1 $-1 $139 $91 @18 ASM_EDGE_FROM_STEP @5 14983 #
point $-1 -1 $-1 86.053622672519026 242.40753983343637 68.900000000009499 #
DXID-attrib $-1 -1 $-1 $144 $96 @18 ASM_EDGE_FROM_STEP @5 14980 #
color-adesk-attrib $-1 -1 $203 $-1 $146 2 #
straight-curve $-1 -1 $-1 86.053622672519268 258.53253983343649 -0.099999999990501465 1.1035616864774056e-13 9.9999999999999964 0 F -1.6125000000000111 F 4.8375000000000075 #
DXID-attrib $-1 -1 $-1 $149 $103 @18 ASM_EDGE_FROM_STEP @5 14993 #
DXID-attrib $-1 -1 $-1 $153 $109 @18 ASM_EDGE_FROM_STEP @5 14984 #
DXID-attrib $-1 -1 $-1 $155 $115 @18 ASM_EDGE_FROM_STEP @5 14994 #
DXID-attrib $-1 -1 $-1 $157 $74 @18 ASM_FACE_FROM_STEP @16 stp-2M-185-26685 #
fmesh-eye-attrib $-1 -1 $204 $158 $118 #
DXID-attrib $-1 -1 $-1 $161 $81 @18 ASM_FACE_FROM_STEP @16 stp-2M-185-26684 #
color-adesk-attrib $-1 -1 $205 $-1 $164 2 #
vertex $-1 -1 $-1 $164 $206 #
ellipse-curve $-1 -1 $-1 86.053622672519452 284.40753983343689 34.400000000009499 1.0000000000000002 -1.1046719095020308e-14 0 -1.3811174426336947e-13 -12.500000000000004 0 1 I I #
DXID-attrib $-1 -1 $-1 $165 $127 @18 ASM_EDGE_FROM_STEP @5 14989 #
point $-1 -1 $-1 95.553622672519609 296.90753983343683 34.400000000009499 #
color-adesk-attrib $-1 -1 $207 $-1 $168 2 #
straight-curve $-1 -1 $-1 86.053622672519708 306.90753983343643 64.150000000009499 3.8456969129524326e-29 3.5527136788005017e-15 10 F -6.4250000000000007 F 0.47500000000000009 #
DXID-attrib $-1 -1 $-1 $169 $130 @18 ASM_EDGE_FROM_STEP @5 14986 #
point $-1 -1 $-1 86.053622672519722 306.90753983343654 -0.099999999990501465 #
DXID-attrib $-1 -1 $-1 $172 $132 @18 ASM_EDGE_FROM_STEP @5 14988 #
point $-1 -1 $-1 86.053622672519722 306.90753983343654 68.900000000009499 #
color-adesk-attrib $-1 -1 $208 $-1 $178 2 #
straight-curve $-1 -1 $-1 86.053622672519268 258.53253983343649 68.900000000009499 -1.1035616864774056e-13 -9.9999999999999964 0 F -4.8375000000000075 F 1.6125000000000111 #
DXID-attrib $-1 -1 $-1 $182 $146 @18 ASM_EDGE_FROM_STEP @5 14991 #
DXID-attrib $-1 -1 $-1 $188 $118 @18 ASM_FACE_FROM_STEP @16 stp-2M-185-26686 #
DXID-attrib $-1 -1 $-1 $190 $164 @18 ASM_EDGE_FROM_STEP @5 14990 #
point $-1 -1 $-1 86.053622672519623 296.907539833437 34.400000000009499 #
DXID-attrib $-1 -1 $-1 $195 $168 @18 ASM_EDGE_FROM_STEP @5 14987 #
DXID-attrib $-1 -1 $-1 $201 $178 @18 ASM_EDGE_FROM_STEP @5 14992 #
