700 676 1 0         
5 ZWCAD 12 ACIS 28.0 NT 24 Mon May 13 10:19:35 2024 
1 9.9999999999999995e-07 1e-10 
body $1 -1 $-1 $2 $-1 $-1 #
DXID-attrib $-1 -1 $-1 $-1 $0 @18 ASM_BODY_FROM_STEP @83 B4B807AFFC6EE2469AE7487B9261A87993F3DB13|:|8CB3CBCEBE3339AC3139F7812237AD39DB573F35 #
lump $-1 -1 $-1 $-1 $3 $0 #
shell $-1 -1 $-1 $-1 $-1 $4 $-1 $2 #
face $5 -1 $-1 $6 $7 $3 $-1 $8 forward single #
truecolor-adesk-attrib $-1 -1 $9 $-1 $4 -1025450021 #
face $10 -1 $-1 $11 $12 $3 $-1 $13 forward single #
loop $-1 -1 $-1 $-1 $14 $4 #
cone-surface $-1 -1 $-1 38.292424866540983 -50.957758664325283 -14.995968170615019 -0.13937111659824541 0.98967813707272767 -0.033359809028434197 0.21663973860379368 0.024347607272830918 -0.18276566438411759 1 I I 0 1 0.28448000000000001 forward I I I I #
DXID-attrib $-1 -1 $-1 $5 $4 @18 ASM_FACE_FROM_STEP @15 stp-1M-67-13325 #
truecolor-adesk-attrib $-1 -1 $15 $-1 $6 -1025450021 #
face $16 -1 $-1 $17 $18 $3 $-1 $19 forward single #
loop $-1 -1 $-1 $-1 $20 $6 #
cone-surface $-1 -1 $-1 38.669592842039279 -49.112736664151861 -14.999999999999991 0.22262753849331191 0.97490357425973617 1.1431171836699811e-16 0.21354136404336335 -0.048763990099817203 -0.1815241843723438 1 I I 0 1 0.28448000000000001 forward I I I I #
coedge $-1 -1 $-1 $21 $22 $23 $24 forward $7 $-1 #
DXID-attrib $-1 -1 $-1 $10 $6 @18 ASM_FACE_FROM_STEP @15 stp-1M-67-13326 #
truecolor-adesk-attrib $-1 -1 $25 $-1 $11 -1025450021 #
face $26 -1 $-1 $27 $28 $3 $-1 $29 forward single #
loop $-1 -1 $-1 $-1 $30 $11 #
cone-surface $-1 -1 $-1 40.174304650668553 -43.49744292656441 -14.979693029444629 -0.019070434874969733 -0.9996356659651553 0.019101147716302835 -0.18200171561675937 -0.00070569321060683305 -0.21864068219260729 1 I I 0 1 0.28448000000000001 forward I I I I #
coedge $-1 -1 $-1 $31 $32 $33 $34 forward $12 $-1 #
coedge $-1 -1 $-1 $35 $14 $36 $37 forward $7 $-1 #
coedge $-1 -1 $-1 $14 $35 $38 $39 forward $7 $-1 #
coedge $-1 -1 $-1 $40 $41 $14 $24 reversed $42 $-1 #
edge $43 -1 $-1 $44 -0.78539816339744883 $45 0.7853981633974404 $14 $46 forward @7 unknown #
DXID-attrib $-1 -1 $-1 $16 $11 @18 ASM_FACE_FROM_STEP @15 stp-1M-67-13327 #
truecolor-adesk-attrib $-1 -1 $47 $-1 $17 -1025450021 #
face $48 -1 $-1 $49 $50 $3 $-1 $51 forward single #
loop $-1 -1 $-1 $-1 $52 $17 #
cone-surface $-1 -1 $-1 39.51296331642461 -44.329040480874603 -15.022737076189681 -0.22262753849331191 -0.97490357425973617 -1.1364487653643334e-16 -0.17696857615918132 0.040412282343821035 -0.21903844614120899 1 I I 0 1 0.28448000000000001 forward I I I I #
coedge $-1 -1 $-1 $53 $54 $55 $56 forward $18 $-1 #
coedge $-1 -1 $-1 $57 $20 $35 $58 reversed $12 $-1 #
coedge $-1 -1 $-1 $20 $57 $59 $60 forward $12 $-1 #
coedge $-1 -1 $-1 $61 $62 $20 $34 reversed $63 $-1 #
edge $64 -1 $-1 $65 -0.79856028014781999 $66 0.17171971985217963 $20 $67 forward @7 unknown #
coedge $-1 -1 $-1 $22 $21 $31 $58 forward $7 $-1 #
coedge $-1 -1 $-1 $68 $69 $21 $37 reversed $70 $-1 #
edge $71 -1 $-1 $45 -0.34134104603080218 $72 0.012085888685804987 $21 $73 forward @7 unknown #
coedge $-1 -1 $-1 $74 $75 $22 $39 reversed $76 $-1 #
edge $77 -1 $-1 $66 -0.0068229153019652936 $44 0.34134104603080434 $22 $78 forward @7 unknown #
coedge $-1 -1 $-1 $79 $23 $75 $80 reversed $42 $-1 #
coedge $-1 -1 $-1 $23 $81 $68 $82 forward $42 $-1 #
loop $-1 -1 $-1 $-1 $23 $83 #
truecolor-adesk-attrib $-1 -1 $84 $-1 $24 -1025450021 #
vertex $-1 -1 $-1 $24 $85 #
vertex $-1 -1 $-1 $24 $86 #
ellipse-curve $-1 -1 $-1 38.76815569380225 -54.3359363697475 -14.882097449523483 -0.13937111659824672 0.98967813707272734 -0.033359809028434342 0.21663973860379374 0.024347607272831175 -0.18276566438411759 1 F -0.78539816339744883 F 0.7853981633974404 #
DXID-attrib $-1 -1 $-1 $26 $17 @18 ASM_FACE_FROM_STEP @15 stp-1M-67-13328 #
truecolor-adesk-attrib $-1 -1 $87 $-1 $27 -1025450021 #
face $88 -1 $-1 $89 $90 $3 $-1 $91 forward single #
loop $-1 -1 $-1 $-1 $92 $27 #
cone-surface $-1 -1 $-1 38.942276764279853 -49.431723521991643 -14.96845213382483 -0.55515605331526197 -0.8310769396445844 -0.033359809028434495 -0.14802348292160222 0.10762156126247052 -0.21779696612943544 1 I I 0 1 0.28448000000000001 forward I I I I #
coedge $-1 -1 $-1 $93 $94 $95 $96 forward $28 $-1 #
coedge $-1 -1 $-1 $97 $30 $98 $99 forward $18 $-1 #
coedge $-1 -1 $-1 $30 $97 $100 $101 forward $18 $-1 #
coedge $-1 -1 $-1 $102 $103 $30 $56 reversed $90 $-1 #
edge $104 -1 $-1 $105 0 $106 1.5707963267948966 $30 $107 forward @7 unknown #
coedge $-1 -1 $-1 $32 $31 $69 $108 forward $12 $-1 #
edge $109 -1 $-1 $72 -1.5707963267948966 $66 0 $35 $110 forward @7 unknown #
coedge $-1 -1 $-1 $111 $112 $32 $60 reversed $113 $-1 #
edge $114 -1 $-1 $115 -1.5707963267949345 $65 -3.8003845711902725e-14 $32 $116 forward @7 unknown #
coedge $-1 -1 $-1 $117 $33 $118 $119 reversed $63 $-1 #
coedge $-1 -1 $-1 $33 $117 $74 $120 forward $63 $-1 #
loop $-1 -1 $-1 $-1 $33 $121 #
truecolor-adesk-attrib $-1 -1 $122 $-1 $34 -1025450021 #
vertex $-1 -1 $-1 $34 $123 #
vertex $-1 -1 $-1 $58 $124 #
straight-curve $-1 -1 $-1 38.945725068877252 -49.175793811117693 -14.973473411112019 -2.2262753849331198 -9.7490357425973642 -1.1431171836699813e-15 F -0.79856028014781999 F 0.17171971985217963 #
coedge $-1 -1 $-1 $125 $36 $41 $82 reversed $70 $-1 #
coedge $-1 -1 $-1 $36 $126 $57 $108 reversed $70 $-1 #
loop $-1 -1 $-1 $127 $36 $128 #
truecolor-adesk-attrib $-1 -1 $129 $-1 $37 -1025450021 #
vertex $-1 -1 $-1 $37 $130 #
straight-curve $-1 -1 $-1 38.318285732860787 -50.963664213514036 -15.279208722941073 -1.3937111659824555 9.8967813707272843 -0.33359809028434229 F -0.34134104603080218 F 0.012085888685804987 #
coedge $-1 -1 $-1 $131 $38 $62 $120 reversed $76 $-1 #
coedge $-1 -1 $-1 $38 $131 $40 $80 forward $76 $-1 #
loop $-1 -1 $-1 $-1 $38 $132 #
truecolor-adesk-attrib $-1 -1 $133 $-1 $39 -1025450021 #
straight-curve $-1 -1 $-1 38.572938856703637 -50.917420398719941 -14.971197299597112 1.3937111659824555 -9.8967813707272843 0.33359809028434229 F -0.0068229153019652936 F 0.34134104603080434 #
coedge $-1 -1 $-1 $134 $40 $135 $136 reversed $42 $-1 #
edge $137 -1 $-1 $138 -0.012191999999999995 $44 0.012191999999999995 $75 $139 forward @7 unknown #
coedge $-1 -1 $-1 $41 $134 $140 $141 forward $42 $-1 #
edge $142 -1 $-1 $143 -0.037950156441870553 $45 -0.02844799999999971 $41 $144 forward @7 unknown #
face $145 -1 $-1 $128 $42 $3 $-1 $146 forward single #
DXID-attrib $-1 -1 $-1 $43 $24 @18 ASM_EDGE_FROM_STEP @4 7714 #
point $-1 -1 $-1 39.048669683964896 -54.295598104142172 -14.857326578505576 #
point $-1 -1 $-1 38.794016560122053 -54.341841918936254 -15.165338001849538 #
DXID-attrib $-1 -1 $-1 $48 $27 @18 ASM_FACE_FROM_STEP @15 stp-1M-67-13329 #
truecolor-adesk-attrib $-1 -1 $147 $-1 $49 -1025450021 #
face $148 -1 $-1 $132 $113 $3 $-1 $149 forward single #
loop $-1 -1 $-1 $-1 $150 $49 #
torus-surface $-1 -1 $-1 40.724897317628212 -39.567140903781606 -15.011368538094835 -0.090905744937437888 0.020759101479025498 0.99564311138236317 0.47751999999999994 0.28448000000000001 0.22262753849331154 0.97490357425973628 7.7945049516680694e-17 forward_v I I I I #
coedge $-1 -1 $-1 $151 $152 $153 $154 forward $50 $-1 #
coedge $-1 -1 $-1 $155 $52 $156 $157 forward $28 $-1 #
coedge $-1 -1 $-1 $52 $155 $97 $158 reversed $28 $-1 #
coedge $-1 -1 $-1 $98 $159 $52 $96 reversed $70 $-1 #
edge $160 -1 $-1 $161 -0.31636525067571708 $162 0.66212269323601614 $52 $163 forward @7 unknown #
coedge $-1 -1 $-1 $54 $53 $94 $158 forward $18 $-1 #
coedge $-1 -1 $-1 $164 $95 $53 $99 reversed $70 $-1 #
edge $165 -1 $-1 $106 -0.39399751601562977 $161 -0.22534796015588254 $53 $166 forward @7 unknown #
coedge $-1 -1 $-1 $167 $168 $54 $101 reversed $169 $-1 #
edge $170 -1 $-1 $171 0.2282929306837807 $105 0.39399751601562949 $54 $172 forward @7 unknown #
coedge $-1 -1 $-1 $150 $55 $173 $174 forward $90 $-1 #
coedge $-1 -1 $-1 $55 $150 $164 $175 forward $90 $-1 #
truecolor-adesk-attrib $-1 -1 $176 $-1 $56 -1025450021 #
vertex $-1 -1 $-1 $56 $177 #
vertex $-1 -1 $-1 $56 $178 #
ellipse-curve $-1 -1 $-1 40.249441690369316 -39.558903233455403 -15.054951076977339 -0.019070434874970732 -0.9996356659651553 0.019101147716302742 -0.28325016092019428 0.0049075482794386461 -0.025964065717236501 1 F 0 F 1.5707963267948966 #
edge $179 -1 $-1 $72 -0.17698269323601626 $115 0.80150525067571776 $57 $180 forward @7 unknown #
truecolor-adesk-attrib $-1 -1 $181 $-1 $58 -1025450021 #
ellipse-curve $-1 -1 $-1 38.275580628528765 -50.838147266330928 -14.999999999999991 -0.042334605536377551 -0.99895947844191213 0.01696294800859326 0.28784905493396845 -0.011748231334469537 0.026526588887971936 0.98331401509730654 F -1.5707963267948966 F 0 #
coedge $-1 -1 $-1 $182 $59 $126 $183 forward $113 $-1 #
coedge $-1 -1 $-1 $59 $182 $184 $185 forward $113 $-1 #
loop $-1 -1 $-1 $-1 $111 $89 #
truecolor-adesk-attrib $-1 -1 $186 $-1 $60 -1025450021 #
vertex $-1 -1 $-1 $108 $187 #
ellipse-curve $-1 -1 $-1 40.453964252513281 -41.298833327434828 -14.999999999999989 -0.32139345701691552 -0.94689706664682105 -0.0096016124875902553 0.26957591144235926 -0.091767769903205551 0.026526588887982559 0.99468436895357804 F -1.5707963267949345 F -3.8003845711902725e-14 #
coedge $-1 -1 $-1 $62 $61 $188 $189 reversed $63 $-1 #
coedge $-1 -1 $-1 $184 $190 $61 $119 forward $191 $-1 #
edge $192 -1 $-1 $193 -0.012191999999999995 $65 0.012191999999999995 $61 $194 forward @7 unknown #
edge $195 -1 $-1 $196 -0.012191999999999995 $66 0.012191999999999995 $74 $197 forward @7 unknown #
face $198 -1 $-1 $199 $63 $3 $-1 $200 forward single #
DXID-attrib $-1 -1 $-1 $64 $34 @18 ASM_EDGE_FROM_STEP @4 7718 #
point $-1 -1 $-1 40.72354016395564 -41.390601097338035 -14.973473411112018 #
point $-1 -1 $-1 38.563429683462729 -50.849895497665401 -14.973473411112019 #
coedge $-1 -1 $-1 $201 $68 $202 $203 reversed $70 $-1 #
coedge $-1 -1 $-1 $69 $164 $111 $183 reversed $70 $-1 #
loop $-1 -1 $-1 $-1 $204 $128 #
face $205 -1 $-1 $-1 $70 $3 $-1 $206 forward single #
DXID-attrib $-1 -1 $-1 $71 $37 @18 ASM_EDGE_FROM_STEP @4 7715 #
point $-1 -1 $-1 38.301441494848568 -50.844052815519682 -15.283240552326046 #
coedge $-1 -1 $-1 $75 $74 $207 $208 reversed $76 $-1 #
face $209 -1 $-1 $121 $76 $3 $-1 $210 forward single #
DXID-attrib $-1 -1 $-1 $77 $39 @18 ASM_EDGE_FROM_STEP @4 7717 #
coedge $-1 -1 $-1 $81 $79 $211 $212 forward $42 $-1 #
coedge $-1 -1 $-1 $207 $213 $79 $136 forward $214 $-1 #
edge $215 -1 $-1 $216 -0.7853981633974485 $138 0.78539816339744817 $135 $217 forward @7 unknown #
truecolor-adesk-attrib $-1 -1 $218 $-1 $80 -1025450021 #
vertex $-1 -1 $-1 $208 $219 #
straight-curve $-1 -1 $-1 39.037586455542126 -54.293067154489847 -14.735937770365839 0.90905744937437916 -0.20759101479025502 -9.9564311138236352 F -0.012191999999999995 F 0.012191999999999995 #
coedge $-1 -1 $-1 $220 $202 $81 $141 reversed $221 $-1 #
edge $222 -1 $-1 $223 -0.040639999999999982 $143 0.040639999999999982 $140 $224 forward @7 unknown #
truecolor-adesk-attrib $-1 -1 $225 $-1 $82 -1025450021 #
vertex $-1 -1 $-1 $203 $226 #
straight-curve $-1 -1 $-1 39.074530550284699 -54.301503653330926 -15.140567130831631 9.8605873932313397 1.41796490457413 0.87074209146183967 F -0.037950156441870553 F -0.02844799999999971 #
truecolor-adesk-attrib $-1 -1 $227 $-1 $83 -1025450021 #
plane-surface $-1 -1 $-1 38.66337562136026 -54.346879144447513 -14.768982568957338 0.13937111659824669 -0.98967813707272745 0.033359809028434315 -25.045891978807592 -3.6016308576182916 -2.2116849123130722 forward_v I I I I #
DXID-attrib $-1 -1 $-1 $88 $49 @18 ASM_FACE_FROM_STEP @15 stp-1M-67-13330 #
truecolor-adesk-attrib $-1 -1 $228 $-1 $89 -1025450021 #
cone-surface $-1 -1 $-1 39.171303326153698 -44.096034664516679 -15.05879000209004 0.41674255746404654 0.90882384814343742 0.019101147716303054 0.20022706598321818 -0.087990892522256461 -0.18192194832094527 1 I I 0 1 0.28448000000000001 forward I I I I #
coedge $-1 -1 $-1 $103 $102 $182 $229 forward $90 $-1 #
coedge $-1 -1 $-1 $156 $92 $230 $231 forward $50 $-1 #
coedge $-1 -1 $-1 $92 $156 $159 $232 forward $50 $-1 #
coedge $-1 -1 $-1 $233 $234 $92 $154 reversed $235 $-1 #
edge $236 -1 $-1 $237 -0.78539816339745527 $238 0.78539816339744883 $92 $239 forward @7 unknown #
coedge $-1 -1 $-1 $94 $93 $240 $241 forward $28 $-1 #
coedge $-1 -1 $-1 $152 $151 $93 $157 reversed $50 $-1 #
edge $242 -1 $-1 $162 -1.5707963267949572 $243 -6.8163230976635078e-14 $93 $244 forward @7 unknown #
edge $245 -1 $-1 $161 -1.5707963267951179 $171 -2.2619371177566023e-13 $97 $246 forward @7 unknown #
coedge $-1 -1 $-1 $95 $247 $152 $232 reversed $70 $-1 #
truecolor-adesk-attrib $-1 -1 $248 $-1 $96 -1025450021 #
vertex $-1 -1 $-1 $99 $249 #
vertex $-1 -1 $-1 $96 $250 #
straight-curve $-1 -1 $-1 39.538824182744413 -44.334946030063357 -15.305977628515736 -2.2262753849331198 -9.7490357425973642 -1.1364487653643338e-15 F -0.31636525067571708 F 0.66212269323601614 #
coedge $-1 -1 $-1 $126 $98 $103 $175 reversed $70 $-1 #
truecolor-adesk-attrib $-1 -1 $251 $-1 $99 -1025450021 #
straight-curve $-1 -1 $-1 40.200165516988356 -43.503348475753164 -15.262933581770685 -0.19070434874969708 -9.9963566596515552 0.19101147716302838 F -0.39399751601562977 F -0.22534796015588254 #
coedge $-1 -1 $-1 $252 $100 $253 $254 reversed $169 $-1 #
coedge $-1 -1 $-1 $100 $252 $255 $256 forward $169 $-1 #
loop $-1 -1 $-1 $-1 $100 $257 #
truecolor-adesk-attrib $-1 -1 $258 $-1 $101 -1025450021 #
vertex $-1 -1 $-1 $158 $259 #
straight-curve $-1 -1 $-1 39.891054489748363 -43.49253537828497 -15.005657095161867 0.19070434874969708 9.9963566596515552 -0.19101147716302838 F 0.2282929306837807 F 0.39399751601562949 #
coedge $-1 -1 $-1 $255 $260 $102 $174 reversed $261 $-1 #
edge $262 -1 $-1 $105 -1.777103807135455 $263 1.7771038071354555 $102 $264 forward @7 unknown #
edge $265 -1 $-1 $266 -1.777103807135453 $106 1.7771038071354528 $103 $267 forward @7 unknown #
DXID-attrib $-1 -1 $-1 $104 $56 @18 ASM_EDGE_FROM_STEP @4 7721 #
point $-1 -1 $-1 39.966191529449119 -39.553995685175963 -15.080915142694575 #
point $-1 -1 $-1 40.27530255668912 -39.564808782644157 -15.338191629303394 #
truecolor-adesk-attrib $-1 -1 $268 $-1 $108 -1025450021 #
straight-curve $-1 -1 $-1 38.695453708359082 -49.118642213340614 -15.283240552326046 2.2262753849331198 9.7490357425973642 1.1431171836699813e-15 F -0.17698269323601626 F 0.80150525067571776 #
DXID-attrib $-1 -1 $-1 $109 $58 @18 ASM_EDGE_FROM_STEP @4 7716 #
coedge $-1 -1 $-1 $112 $111 $150 $229 reversed $113 $-1 #
edge $269 -1 $-1 $115 0.30778256345231542 $266 0.47643211931206197 $111 $270 forward @7 unknown #
coedge $-1 -1 $-1 $271 $118 $112 $185 reversed $191 $-1 #
edge $272 -1 $-1 $263 -0.47643211931206109 $65 -0.3107275339802123 $112 $273 forward @7 unknown #
DXID-attrib $-1 -1 $-1 $114 $60 @18 ASM_EDGE_FROM_STEP @4 7720 #
point $-1 -1 $-1 40.479825118833077 -41.304738876623581 -15.283240552326046 #
coedge $-1 -1 $-1 $274 $275 $117 $189 forward $276 $-1 #
edge $277 -1 $-1 $196 -0.17171971985217963 $193 0.79856028014781999 $117 $278 forward @7 unknown #
coedge $-1 -1 $-1 $118 $271 $279 $280 reversed $191 $-1 #
loop $-1 -1 $-1 $-1 $184 $199 #
truecolor-adesk-attrib $-1 -1 $281 $-1 $119 -1025450021 #
vertex $-1 -1 $-1 $119 $282 #
straight-curve $-1 -1 $-1 40.712456935532863 -41.38807014768571 -14.852084602972282 0.90905744937437916 -0.20759101479025502 -9.9564311138236352 F -0.012191999999999995 F 0.012191999999999995 #
truecolor-adesk-attrib $-1 -1 $283 $-1 $120 -1025450021 #
vertex $-1 -1 $-1 $120 $284 #
straight-curve $-1 -1 $-1 38.552346455039959 -50.847364548013076 -14.852084602972282 0.90905744937437916 -0.20759101479025502 -9.9564311138236352 F -0.012191999999999995 F 0.012191999999999995 #
truecolor-adesk-attrib $-1 -1 $285 $-1 $121 -1025450021 #
face $286 -1 $-1 $287 $191 $3 $-1 $288 forward single #
plane-surface $-1 -1 $-1 38.552346455039959 -50.847364548013076 -14.852084602972282 0.9706560279737505 -0.22165757510487788 0.093245883323860426 -5.6547394777301214 -24.762550786197295 -2.9035176465217513e-15 forward_v I I I I #
coedge $-1 -1 $-1 $247 $125 $289 $290 reversed $70 $-1 #
coedge $-1 -1 $-1 $140 $291 $125 $203 forward $221 $-1 #
edge $292 -1 $-1 $293 -0.36270339825575726 $143 0 $202 $294 forward @7 unknown #
coedge $-1 -1 $-1 $295 $296 $297 $298 forward $127 $-1 #
truecolor-adesk-attrib $-1 -1 $299 $-1 $128 -1025450021 #
plane-surface $-1 -1 $-1 38.979198678950986 -47.422035699804134 -15.292707778838048 0.090905744937437888 -0.020759101479025498 -0.99564311138236317 -24.654663110533257 5.6301024076638972 -2.3684454364260543 forward_v I I I I #
coedge $-1 -1 $-1 $300 $135 $131 $208 forward $214 $-1 #
edge $301 -1 $-1 $138 -0.34134104603080434 $196 0.0068229153019652936 $131 $302 forward @7 unknown #
truecolor-adesk-attrib $-1 -1 $303 $-1 $132 -1025450021 #
plane-surface $-1 -1 $-1 39.037586455542126 -54.293067154489847 -14.735937770365839 0.9860587393231337 0.14179649045741172 0.087074209146183995 3.5400263615954328 -25.137824681647277 0.84733914932222842 forward_v I I I I #
coedge $-1 -1 $-1 $304 $305 $134 $212 reversed $306 $-1 #
edge $307 -1 $-1 $216 0.028447999999999946 $223 0.037950156441870553 $211 $308 forward @7 unknown #
coedge $-1 -1 $-1 $135 $300 $304 $309 forward $214 $-1 #
loop $-1 -1 $-1 $-1 $135 $310 #
truecolor-adesk-attrib $-1 -1 $311 $-1 $136 -1025450021 #
vertex $-1 -1 $-1 $136 $312 #
ellipse-curve $-1 -1 $-1 38.745989236956703 -54.330874470442851 -14.639319833244008 -0.13937111659824669 0.98967813707272745 -0.033359809028434287 0.18006695071961173 0.032699315028827357 0.21779696612943528 1 F -0.7853981633974485 F 0.78539816339744817 #
DXID-attrib $-1 -1 $-1 $137 $80 @18 ASM_EDGE_FROM_STEP @4 7738 #
point $-1 -1 $-1 39.026503227119349 -54.29053620483753 -14.614548962226101 #
coedge $-1 -1 $-1 $291 $140 $305 $313 forward $221 $-1 #
loop $-1 -1 $-1 $-1 $202 $314 #
truecolor-adesk-attrib $-1 -1 $315 $-1 $141 -1025450021 #
vertex $-1 -1 $-1 $313 $316 #
straight-curve $-1 -1 $-1 38.66337562136026 -54.346879144447513 -14.768982568957338 0.90905744937437916 -0.20759101479025502 -9.9564311138236352 F -0.040639999999999982 F 0.040639999999999982 #
DXID-attrib $-1 -1 $-1 $142 $82 @18 ASM_EDGE_FROM_STEP @4 7785 #
point $-1 -1 $-1 38.700319716102833 -54.355315643288591 -15.17361192942313 #
DXID-attrib $-1 -1 $-1 $145 $83 @18 ASM_FACE_FROM_STEP @15 stp-1M-67-13353 #
DXID-attrib $-1 -1 $-1 $148 $89 @18 ASM_FACE_FROM_STEP @15 stp-1M-67-13331 #
edge $317 -1 $-1 $263 0 $266 1.5707963267948966 $150 $318 forward @7 unknown #
coedge $-1 -1 $-1 $319 $320 $151 $231 reversed $321 $-1 #
edge $322 -1 $-1 $238 -0.4889522041476706 $243 -0.16798855229402354 $151 $323 forward @7 unknown #
edge $324 -1 $-1 $162 0.16272557891018641 $237 0.48895220414767082 $152 $325 forward @7 unknown #
coedge $-1 -1 $-1 $326 $153 $247 $327 forward $235 $-1 #
coedge $-1 -1 $-1 $153 $328 $319 $329 forward $235 $-1 #
loop $-1 -1 $-1 $-1 $153 $330 #
truecolor-adesk-attrib $-1 -1 $331 $-1 $154 -1025450021 #
vertex $-1 -1 $-1 $154 $332 #
vertex $-1 -1 $-1 $154 $333 #
ellipse-curve $-1 -1 $-1 36.227829005135654 -53.495292536546849 -15.131565655368814 0.55515605331525764 0.83107693964458751 0.033359809028434051 -0.14802348292160275 0.10762156126246959 -0.2177969661294355 1 F -0.78539816339745527 F 0.78539816339744883 #
coedge $-1 -1 $-1 $334 $253 $155 $241 reversed $335 $-1 #
edge $336 -1 $-1 $243 -0.65685971985217939 $171 0.31342028014782009 $155 $337 forward @7 unknown #
truecolor-adesk-attrib $-1 -1 $338 $-1 $157 -1025450021 #
vertex $-1 -1 $-1 $157 $339 #
ellipse-curve $-1 -1 $-1 38.038895862667644 -50.784098283217354 -15.022737076189681 0.3954909519578067 0.91831321743420746 0.016962948008581512 -0.26441539874198033 0.11436606259720383 -0.026526588887952604 0.98331401509730654 F -1.5707963267949572 F -6.8163230976635078e-14 #
truecolor-adesk-attrib $-1 -1 $340 $-1 $158 -1025450021 #
ellipse-curve $-1 -1 $-1 40.21727948665216 -41.244784344321253 -15.02273707618968 0.12149480825890265 0.992545626459444 -0.0096016124876093234 -0.28268854223359025 0.034346524028466809 -0.026526588887907734 0.99468436895357804 F -1.5707963267951179 F -2.2619371177566023e-13 #
coedge $-1 -1 $-1 $159 $201 $233 $327 reversed $70 $-1 #
DXID-attrib $-1 -1 $-1 $160 $96 @18 ASM_EDGE_FROM_STEP @4 7725 #
point $-1 -1 $-1 40.243140352971956 -41.250689893510014 -15.305977628515736 #
point $-1 -1 $-1 38.064756728987447 -50.790003832406107 -15.305977628515736 #
DXID-attrib $-1 -1 $-1 $165 $99 @18 ASM_EDGE_FROM_STEP @4 7722 #
coedge $-1 -1 $-1 $168 $167 $341 $342 reversed $169 $-1 #
coedge $-1 -1 $-1 $240 $343 $167 $254 forward $335 $-1 #
edge $344 -1 $-1 $345 -0.012191999999999995 $171 0.012191999999999995 $167 $346 forward @7 unknown #
coedge $-1 -1 $-1 $347 $173 $168 $256 reversed $261 $-1 #
edge $348 -1 $-1 $349 -0.012191999999999995 $105 0.012191999999999995 $255 $350 forward @7 unknown #
face $351 -1 $-1 $352 $169 $3 $-1 $353 forward single #
DXID-attrib $-1 -1 $-1 $170 $101 @18 ASM_EDGE_FROM_STEP @4 7724 #
point $-1 -1 $-1 39.934590944418574 -41.210437820292789 -15.049263665077651 #
coedge $-1 -1 $-1 $173 $347 $271 $354 forward $261 $-1 #
loop $-1 -1 $-1 $-1 $173 $287 #
truecolor-adesk-attrib $-1 -1 $355 $-1 $174 -1025450021 #
vertex $-1 -1 $-1 $229 $356 #
ellipse-curve $-1 -1 $-1 40.724897317628212 -39.567140903781606 -15.011368538094835 0.090905744937437888 -0.020759101479025498 -0.99564311138236317 0.16964218433190351 0.74287652358591882 7.3656930093554561e-17 1 F -1.777103807135455 F 1.7771038071354555 #
truecolor-adesk-attrib $-1 -1 $357 $-1 $175 -1025450021 #
vertex $-1 -1 $-1 $229 $358 #
ellipse-curve $-1 -1 $-1 40.750758183948015 -39.573046452970353 -15.29460909042089 -0.090905744937437888 0.020759101479025498 0.99564311138236317 0.10630910218132621 0.46553595478050919 4.6158342858627529e-17 1 F -1.777103807135453 F 1.7771038071354528 #
DXID-attrib $-1 -1 $-1 $179 $108 @18 ASM_EDGE_FROM_STEP @4 7719 #
truecolor-adesk-attrib $-1 -1 $359 $-1 $183 -1025450021 #
straight-curve $-1 -1 $-1 39.197164192473501 -44.101940213705433 -15.342030554416096 4.1674255746404665 9.0882384814343755 0.1910114771630306 F 0.30778256345231542 F 0.47643211931206197 #
coedge $-1 -1 $-1 $190 $184 $260 $354 reversed $191 $-1 #
truecolor-adesk-attrib $-1 -1 $360 $-1 $185 -1025450021 #
straight-curve $-1 -1 $-1 39.428606292101534 -44.214567028898209 -15.032825936372804 -4.1674255746404665 -9.0882384814343755 -0.1910114771630306 F -0.47643211931206109 F -0.3107275339802123 #
coedge $-1 -1 $-1 $361 $188 $362 $363 reversed $276 $-1 #
coedge $-1 -1 $-1 $188 $361 $300 $364 forward $276 $-1 #
loop $-1 -1 $-1 $-1 $361 $365 #
truecolor-adesk-attrib $-1 -1 $366 $-1 $189 -1025450021 #
straight-curve $-1 -1 $-1 38.923558612031705 -49.17073191181305 -14.730695794832544 2.2262753849331198 9.7490357425973642 1.1431171836699813e-15 F -0.17171971985217963 F 0.79856028014781999 #
coedge $-1 -1 $-1 $367 $362 $190 $280 forward $368 $-1 #
edge $369 -1 $-1 $193 0.3107275339802123 $370 0.47643211931206109 $190 $371 forward @7 unknown #
DXID-attrib $-1 -1 $-1 $192 $119 @18 ASM_EDGE_FROM_STEP @4 7739 #
point $-1 -1 $-1 40.701373707110093 -41.385539198033392 -14.730695794832544 #
DXID-attrib $-1 -1 $-1 $195 $120 @18 ASM_EDGE_FROM_STEP @4 7736 #
point $-1 -1 $-1 38.54126322661719 -50.844833598360758 -14.730695794832544 #
DXID-attrib $-1 -1 $-1 $198 $121 @18 ASM_FACE_FROM_STEP @15 stp-1M-67-13333 #
truecolor-adesk-attrib $-1 -1 $372 $-1 $199 -1025450021 #
face $373 -1 $-1 $257 $261 $3 $-1 $374 forward single #
plane-surface $-1 -1 $-1 40.712456935532863 -41.38807014768571 -14.852084602972282 0.90446768120021581 -0.41666326062125719 0.091268509973412848 -10.58526095958678 -23.084125742843305 -0.48516915199409749 forward_v I I I I #
coedge $-1 -1 $-1 $375 $376 $201 $290 forward $377 $-1 #
edge $378 -1 $-1 $379 -0.33550308877663493 $293 -9.4053632715653559e-22 $289 $380 forward @7 unknown #
coedge $-1 -1 $-1 $202 $220 $375 $381 forward $221 $-1 #
truecolor-adesk-attrib $-1 -1 $382 $-1 $203 -1025450021 #
vertex $-1 -1 $-1 $290 $383 #
straight-curve $-1 -1 $-1 38.700319716102833 -54.355315643288591 -15.17361192942313 1.3937111659824457 -9.8967813707272843 0.33359809028434129 F -0.36270339825575726 F 0 #
coedge $-1 -1 $-1 $296 $204 $384 $385 forward $127 $-1 #
coedge $-1 -1 $-1 $204 $295 $386 $387 forward $127 $-1 #
coedge $-1 -1 $-1 $388 $389 $204 $298 reversed $390 $-1 #
edge $391 -1 $-1 $392 -0.39439566281945448 $393 -0.22018795231271487 $297 $394 forward @7 unknown #
DXID-attrib $-1 -1 $-1 $205 $128 @18 ASM_FACE_FROM_STEP @15 stp-1M-67-13354 #
coedge $-1 -1 $-1 $213 $207 $275 $364 reversed $214 $-1 #
truecolor-adesk-attrib $-1 -1 $395 $-1 $208 -1025450021 #
straight-curve $-1 -1 $-1 38.55077239985809 -50.912358499415298 -14.728419683317636 -1.3937111659824555 9.8967813707272843 -0.33359809028434229 F -0.34134104603080434 F 0.0068229153019652936 #
DXID-attrib $-1 -1 $-1 $209 $132 @18 ASM_FACE_FROM_STEP @15 stp-1M-67-13332 #
coedge $-1 -1 $-1 $396 $211 $213 $309 reversed $306 $-1 #
coedge $-1 -1 $-1 $211 $397 $220 $313 reversed $306 $-1 #
loop $-1 -1 $-1 $398 $304 $399 #
truecolor-adesk-attrib $-1 -1 $400 $-1 $212 -1025450021 #
straight-curve $-1 -1 $-1 39.000642360799546 -54.284630655648776 -14.331308409900046 -9.8605873932313397 -1.41796490457413 -0.87074209146183967 F 0.028447999999999946 F 0.037950156441870553 #
edge $401 -1 $-1 $402 -0.012085888685804978 $216 0.34134104603080206 $213 $403 forward @7 unknown #
face $404 -1 $-1 $399 $214 $3 $-1 $405 forward single #
DXID-attrib $-1 -1 $-1 $215 $136 @18 ASM_EDGE_FROM_STEP @4 7767 #
point $-1 -1 $-1 38.7201283706369 -54.324968921254097 -14.356079280917953 #
edge $406 -1 $-1 $223 0 $407 0.36270339825575726 $305 $408 forward @7 unknown #
face $409 -1 $-1 $83 $221 $3 $-1 $410 forward single #
DXID-attrib $-1 -1 $-1 $222 $141 @18 ASM_EDGE_FROM_STEP @4 7784 #
point $-1 -1 $-1 38.626431526617679 -54.338442645606435 -14.364353208491545 #
truecolor-adesk-attrib $-1 -1 $411 $-1 $229 -1025450021 #
ellipse-curve $-1 -1 $-1 41.156798724754942 -39.766105943993466 -14.967785999212332 0.4167425574640457 0.90882384814343786 0.019101147716302964 0.25730296594783747 -0.11853236438153496 0.02596406571723649 1 F 0 F 1.5707963267948966 #
coedge $-1 -1 $-1 $412 $230 $234 $329 reversed $321 $-1 #
coedge $-1 -1 $-1 $230 $412 $334 $413 reversed $321 $-1 #
loop $-1 -1 $-1 $-1 $230 $414 #
truecolor-adesk-attrib $-1 -1 $415 $-1 $231 -1025450021 #
straight-curve $-1 -1 $-1 38.707079080862613 -49.273618101261746 -14.993223004842735 5.5515605331526219 8.3107693964458473 0.33359809028434528 F -0.4889522041476706 F -0.16798855229402354 #
truecolor-adesk-attrib $-1 -1 $416 $-1 $232 -1025450021 #
straight-curve $-1 -1 $-1 38.968137630599649 -49.437629071180396 -15.251692686150884 -5.5515605331526219 -8.3107693964458473 -0.33359809028434528 F 0.16272557891018641 F 0.48895220414767082 #
coedge $-1 -1 $-1 $417 $233 $376 $418 reversed $235 $-1 #
edge $419 -1 $-1 $237 -0.0095021564418705951 $379 0 $233 $420 forward @7 unknown #
coedge $-1 -1 $-1 $234 $417 $421 $422 reversed $235 $-1 #
edge $423 -1 $-1 $424 -0.012191999999999995 $238 0.012191999999999995 $319 $425 forward @7 unknown #
face $426 -1 $-1 $427 $235 $3 $-1 $428 forward single #
DXID-attrib $-1 -1 $-1 $236 $154 @18 ASM_EDGE_FROM_STEP @4 7728 #
point $-1 -1 $-1 36.253689871455464 -53.501198085735609 -15.414806207694868 #
point $-1 -1 $-1 35.99263132171842 -53.337187115816945 -15.156336526386719 #
coedge $-1 -1 $-1 $343 $240 $320 $413 forward $335 $-1 #
loop $-1 -1 $-1 $-1 $240 $352 #
truecolor-adesk-attrib $-1 -1 $429 $-1 $241 -1025450021 #
straight-curve $-1 -1 $-1 39.236831089586637 -44.265983333908771 -15.049263665077653 2.2262753849331198 9.7490357425973642 1.1364487653643338e-15 F -0.65685971985217939 F 0.31342028014782009 #
DXID-attrib $-1 -1 $-1 $242 $157 @18 ASM_EDGE_FROM_STEP @4 7726 #
point $-1 -1 $-1 37.77448046392567 -50.669732220620162 -15.049263665077653 #
DXID-attrib $-1 -1 $-1 $245 $158 @18 ASM_EDGE_FROM_STEP @4 7723 #
coedge $-1 -1 $-1 $430 $431 $252 $342 forward $432 $-1 #
edge $433 -1 $-1 $349 -0.39399751601562949 $345 -0.22829293068378073 $252 $434 forward @7 unknown #
coedge $-1 -1 $-1 $253 $334 $435 $436 reversed $335 $-1 #
truecolor-adesk-attrib $-1 -1 $437 $-1 $254 -1025450021 #
vertex $-1 -1 $-1 $254 $438 #
straight-curve $-1 -1 $-1 39.923507715995804 -41.207906870640471 -14.927874856937914 0.90905744937437916 -0.20759101479025502 -9.9564311138236352 F -0.012191999999999995 F 0.012191999999999995 #
coedge $-1 -1 $-1 $260 $255 $439 $440 reversed $261 $-1 #
truecolor-adesk-attrib $-1 -1 $441 $-1 $256 -1025450021 #
vertex $-1 -1 $-1 $256 $442 #
straight-curve $-1 -1 $-1 39.95510830102635 -39.551464735523645 -14.959526334554837 0.90905744937437916 -0.20759101479025502 -9.9564311138236352 F -0.012191999999999995 F 0.012191999999999995 #
truecolor-adesk-attrib $-1 -1 $443 $-1 $257 -1025450021 #
face $444 -1 $-1 $414 $335 $3 $-1 $445 forward single #
plane-surface $-1 -1 $-1 39.95510830102635 -39.551464735523645 -14.959526334554837 -0.99567688737413651 0.017250943052019019 -0.091268509973412904 0.48438904582423181 25.390745915514941 -0.48516915199409183 forward_v I I I I #
edge $446 -1 $-1 $370 -0.012191999999999995 $263 0.012191999999999995 $271 $447 forward @7 unknown #
DXID-attrib $-1 -1 $-1 $262 $174 @18 ASM_EDGE_FROM_STEP @4 7733 #
point $-1 -1 $-1 41.414101690702779 -39.884638308375003 -14.941821933495094 #
DXID-attrib $-1 -1 $-1 $265 $175 @18 ASM_EDGE_FROM_STEP @4 7732 #
point $-1 -1 $-1 41.182659591074746 -39.77201149318222 -15.251026551538386 #
DXID-attrib $-1 -1 $-1 $269 $183 @18 ASM_EDGE_FROM_STEP @4 7734 #
DXID-attrib $-1 -1 $-1 $272 $185 @18 ASM_EDGE_FROM_STEP @4 7735 #
coedge $-1 -1 $-1 $275 $274 $396 $448 forward $276 $-1 #
coedge $-1 -1 $-1 $279 $449 $274 $363 forward $368 $-1 #
edge $450 -1 $-1 $451 -1.5707963267946754 $193 2.2613273302580915e-13 $362 $452 forward @7 unknown #
edge $453 -1 $-1 $402 -1.5707963267948966 $196 0 $275 $454 forward @7 unknown #
face $455 -1 $-1 $310 $276 $3 $-1 $456 forward single #
DXID-attrib $-1 -1 $-1 $277 $189 @18 ASM_EDGE_FROM_STEP @4 7740 #
coedge $-1 -1 $-1 $449 $279 $457 $458 reversed $368 $-1 #
loop $-1 -1 $-1 $-1 $279 $459 #
truecolor-adesk-attrib $-1 -1 $460 $-1 $280 -1025450021 #
vertex $-1 -1 $-1 $354 $461 #
straight-curve $-1 -1 $-1 39.406439835255995 -44.209505129593566 -14.790048320093328 4.1674255746404665 9.0882384814343755 0.1910114771630306 F 0.3107275339802123 F 0.47643211931206109 #
DXID-attrib $-1 -1 $-1 $286 $199 @18 ASM_FACE_FROM_STEP @15 stp-1M-67-13334 #
truecolor-adesk-attrib $-1 -1 $462 $-1 $287 -1025450021 #
cone-surface $-1 -1 $-1 40.713814089205442 -39.564609954129281 -14.889979729955098 0.090905744937437888 -0.020759101479025498 -0.99564311138236317 0.16964218433190351 0.74287652358591882 7.3656930093554561e-17 1 I I 0 1 0.7619999999999999 forward I I I I #
coedge $-1 -1 $-1 $463 $289 $291 $381 reversed $377 $-1 #
coedge $-1 -1 $-1 $289 $463 $326 $418 forward $377 $-1 #
loop $-1 -1 $-1 $-1 $289 $464 #
truecolor-adesk-attrib $-1 -1 $465 $-1 $290 -1025450021 #
vertex $-1 -1 $-1 $327 $466 #
straight-curve $-1 -1 $-1 38.194815940014003 -50.765719408331535 -15.294609090420892 5.5515605331526121 8.3107693964458509 0.3335980902843444 F -0.33550308877663493 F -9.4053632715653559e-22 #
edge $467 -1 $-1 $407 -0.040639999999999982 $293 0.040639999999999982 $375 $468 forward @7 unknown #
DXID-attrib $-1 -1 $-1 $292 $203 @18 ASM_EDGE_FROM_STEP @4 7783 #
point $-1 -1 $-1 38.194815940014003 -50.765719408331535 -15.294609090420892 #
coedge $-1 -1 $-1 $469 $470 $295 $385 reversed $471 $-1 #
edge $472 -1 $-1 $393 0.30688400155576595 $473 0.48109171206250545 $384 $474 forward @7 unknown #
coedge $-1 -1 $-1 $475 $476 $296 $387 reversed $477 $-1 #
edge $478 -1 $-1 $473 2.7388768120091305 $392 6.2831853071795853 $386 $479 forward @7 unknown #
coedge $-1 -1 $-1 $480 $297 $476 $481 forward $390 $-1 #
coedge $-1 -1 $-1 $297 $480 $469 $482 forward $390 $-1 #
loop $-1 -1 $-1 $-1 $297 $483 #
truecolor-adesk-attrib $-1 -1 $484 $-1 $298 -1025450021 #
vertex $-1 -1 $-1 $298 $485 #
vertex $-1 -1 $-1 $298 $486 #
straight-curve $-1 -1 $-1 40.302084960013907 -43.507287344617282 -15.253545850199547 -0.23998343205422734 -9.9953803716172889 0.18649176664772071 F -0.39439566281945448 F -0.22018795231271487 #
DXID-attrib $-1 -1 $-1 $301 $208 @18 ASM_EDGE_FROM_STEP @4 7737 #
coedge $-1 -1 $-1 $487 $304 $361 $448 reversed $306 $-1 #
coedge $-1 -1 $-1 $305 $488 $463 $489 reversed $306 $-1 #
loop $-1 -1 $-1 $-1 $490 $399 #
face $491 -1 $-1 $483 $306 $3 $-1 $492 reversed single #
DXID-attrib $-1 -1 $-1 $307 $212 @18 ASM_EDGE_FROM_STEP @4 7771 #
truecolor-adesk-attrib $-1 -1 $493 $-1 $309 -1025450021 #
vertex $-1 -1 $-1 $448 $494 #
straight-curve $-1 -1 $-1 38.244397543375641 -50.946791215831887 -14.469950002009488 1.3937111659824555 -9.8967813707272843 0.33359809028434229 F -0.012085888685804978 F 0.34134104603080206 #
truecolor-adesk-attrib $-1 -1 $495 $-1 $310 -1025450021 #
cone-surface $-1 -1 $-1 38.270258409695444 -50.95269676502064 -14.753190554335543 0.13937111659824547 -0.98967813707272767 0.033359809028434259 0.18006695071961176 0.032699315028827121 0.21779696612943528 1 I I 0 1 0.28448000000000001 forward I I I I #
truecolor-adesk-attrib $-1 -1 $496 $-1 $313 -1025450021 #
vertex $-1 -1 $-1 $489 $497 #
straight-curve $-1 -1 $-1 38.626431526617679 -54.338442645606435 -14.364353208491545 -1.3937111659824457 9.8967813707272843 -0.33359809028434129 F 0 F 0.36270339825575726 #
truecolor-adesk-attrib $-1 -1 $498 $-1 $314 -1025450021 #
plane-surface $-1 -1 $-1 38.15787184527143 -50.757282909490456 -14.889979729955099 -0.98605873932313393 -0.14179649045741086 -0.087074209146184037 -3.5400263615954075 25.137824681647281 -0.84733914932222609 forward_v I I I I #
DXID-attrib $-1 -1 $-1 $317 $229 @18 ASM_EDGE_FROM_STEP @4 7731 #
coedge $-1 -1 $-1 $320 $319 $499 $500 reversed $321 $-1 #
edge $501 -1 $-1 $243 -0.012191999999999995 $502 0.012191999999999995 $334 $503 forward @7 unknown #
face $504 -1 $-1 $330 $321 $3 $-1 $505 forward single #
DXID-attrib $-1 -1 $-1 $322 $231 @18 ASM_EDGE_FROM_STEP @4 7729 #
DXID-attrib $-1 -1 $-1 $324 $232 @18 ASM_EDGE_FROM_STEP @4 7730 #
coedge $-1 -1 $-1 $328 $326 $488 $506 forward $235 $-1 #
edge $507 -1 $-1 $508 -0.040639999999999982 $379 0.040639999999999982 $326 $509 forward @7 unknown #
truecolor-adesk-attrib $-1 -1 $510 $-1 $327 -1025450021 #
straight-curve $-1 -1 $-1 36.332250233610836 -53.554008210949448 -15.406532280121276 8.2676351032492761 -5.5576989851625678 0.87074209146184089 F -0.0095021564418705951 F 0 #
coedge $-1 -1 $-1 $511 $499 $328 $422 forward $512 $-1 #
edge $513 -1 $-1 $424 -0.78539816339744883 $514 0.78539816339745527 $328 $515 forward @7 unknown #
truecolor-adesk-attrib $-1 -1 $516 $-1 $329 -1025450021 #
vertex $-1 -1 $-1 $329 $517 #
straight-curve $-1 -1 $-1 35.98154809329565 -53.334656166164628 -15.034947718246981 0.90905744937437916 -0.20759101479025502 -9.9564311138236352 F -0.012191999999999995 F 0.012191999999999995 #
truecolor-adesk-attrib $-1 -1 $518 $-1 $330 -1025450021 #
face $519 -1 $-1 $520 $512 $3 $-1 $521 forward single #
plane-surface $-1 -1 $-1 35.98154809329565 -53.334656166164628 -15.034947718246981 -0.55515605331525752 -0.83107693964458751 -0.033359809028434051 -20.999793162253155 14.116555422312917 -2.2116849123130748 forward_v I I I I #
DXID-attrib $-1 -1 $-1 $336 $241 @18 ASM_EDGE_FROM_STEP @4 7727 #
coedge $-1 -1 $-1 $522 $341 $523 $524 reversed $432 $-1 #
coedge $-1 -1 $-1 $341 $522 $525 $526 forward $432 $-1 #
loop $-1 -1 $-1 $-1 $431 $527 #
truecolor-adesk-attrib $-1 -1 $528 $-1 $342 -1025450021 #
straight-curve $-1 -1 $-1 39.868888032902817 -43.487473478980327 -14.762879478882391 -0.19070434874969708 -9.9963566596515552 0.19101147716302838 F -0.39399751601562949 F -0.22829293068378073 #
coedge $-1 -1 $-1 $529 $523 $343 $436 forward $530 $-1 #
edge $531 -1 $-1 $345 -0.31342028014782009 $502 0.65685971985217939 $343 $532 forward @7 unknown #
DXID-attrib $-1 -1 $-1 $344 $254 @18 ASM_EDGE_FROM_STEP @4 7745 #
point $-1 -1 $-1 39.912424487573027 -41.205375920988146 -14.806486048798178 #
coedge $-1 -1 $-1 $525 $457 $347 $440 forward $533 $-1 #
edge $534 -1 $-1 $370 -1.7771038071354555 $349 1.777103807135455 $347 $535 forward @7 unknown #
DXID-attrib $-1 -1 $-1 $348 $256 @18 ASM_EDGE_FROM_STEP @4 7743 #
point $-1 -1 $-1 39.94402507260358 -39.54893378587132 -14.8381375264151 #
DXID-attrib $-1 -1 $-1 $351 $257 @18 ASM_FACE_FROM_STEP @15 stp-1M-67-13336 #
truecolor-adesk-attrib $-1 -1 $536 $-1 $352 -1025450021 #
plane-surface $-1 -1 $-1 39.923507715995804 -41.207906870640471 -14.927874856937914 -0.9706560279737505 0.22165757510487788 -0.093245883323860426 5.6547394777301214 24.762550786197295 2.8865798640254062e-15 forward_v I I I I #
truecolor-adesk-attrib $-1 -1 $537 $-1 $354 -1025450021 #
straight-curve $-1 -1 $-1 41.403018462280009 -39.882107358722678 -14.820433125355358 0.90905744937437916 -0.20759101479025502 -9.9564311138236352 F -0.012191999999999995 F 0.012191999999999995 #
edge $538 -1 $-1 $451 -0.80150525067571843 $402 0.17698269323601626 $361 $539 forward @7 unknown #
coedge $-1 -1 $-1 $362 $367 $487 $540 forward $368 $-1 #
truecolor-adesk-attrib $-1 -1 $541 $-1 $363 -1025450021 #
vertex $-1 -1 $-1 $540 $542 #
ellipse-curve $-1 -1 $-1 40.431797795667734 -41.293771428130185 -14.757222383720515 0.32139345701692179 0.94689706664681927 0.0096016124875635493 0.26957591144235404 -0.091767769903205523 0.026526588888035826 0.99468436895357804 F -1.5707963267946754 F 2.2613273302580915e-13 #
truecolor-adesk-attrib $-1 -1 $543 $-1 $364 -1025450021 #
ellipse-curve $-1 -1 $-1 38.253414171683218 -50.833085367026285 -14.757222383720515 0.042334605536373471 0.99895947844191224 -0.016962948008593635 0.28784905493396851 -0.011748231334468347 0.026526588887971918 0.98331401509730654 F -1.5707963267948966 F 0 #
truecolor-adesk-attrib $-1 -1 $544 $-1 $365 -1025450021 #
cone-surface $-1 -1 $-1 38.647426385193732 -49.107674764847218 -14.757222383720515 -0.22262753849331191 -0.97490357425973617 -1.1431171836699811e-16 0.17696857615918132 -0.040412282343821035 0.21903844614120899 1 I I 0 1 0.28448000000000001 forward I I I I #
coedge $-1 -1 $-1 $439 $545 $367 $458 forward $533 $-1 #
edge $546 -1 $-1 $547 0 $370 1.5707963267948966 $457 $548 forward @7 unknown #
face $549 -1 $-1 $365 $368 $3 $-1 $550 forward single #
DXID-attrib $-1 -1 $-1 $369 $280 @18 ASM_EDGE_FROM_STEP @4 7742 #
point $-1 -1 $-1 41.391935233857232 -39.879576409070353 -14.69904431721562 #
DXID-attrib $-1 -1 $-1 $373 $287 @18 ASM_FACE_FROM_STEP @15 stp-1M-67-13335 #
coedge $-1 -1 $-1 $376 $375 $397 $489 forward $377 $-1 #
face $551 -1 $-1 $314 $377 $3 $-1 $552 forward single #
DXID-attrib $-1 -1 $-1 $378 $290 @18 ASM_EDGE_FROM_STEP @4 7781 #
point $-1 -1 $-1 36.332250233610836 -53.554008210949448 -15.406532280121276 #
truecolor-adesk-attrib $-1 -1 $553 $-1 $381 -1025450021 #
straight-curve $-1 -1 $-1 38.15787184527143 -50.757282909490456 -14.889979729955099 0.90905744937437916 -0.20759101479025502 -9.9564311138236352 F -0.040639999999999982 F 0.040639999999999982 #
coedge $-1 -1 $-1 $554 $384 $389 $482 reversed $471 $-1 #
coedge $-1 -1 $-1 $384 $554 $475 $555 forward $471 $-1 #
loop $-1 -1 $-1 $-1 $384 $556 #
truecolor-adesk-attrib $-1 -1 $557 $-1 $385 -1025450021 #
vertex $-1 -1 $-1 $385 $558 #
straight-curve $-1 -1 $-1 39.089764120575779 -44.101754679024708 -15.351840430026947 4.1226075439492407 9.1087500711977736 0.18649176664772202 F 0.30688400155576595 F 0.48109171206250545 #
coedge $-1 -1 $-1 $559 $386 $470 $555 reversed $477 $-1 #
coedge $-1 -1 $-1 $386 $559 $388 $481 reversed $477 $-1 #
loop $-1 -1 $-1 $-1 $386 $560 #
truecolor-adesk-attrib $-1 -1 $561 $-1 $387 -1025450021 #
ellipse-curve $-1 -1 $-1 40.750758183948015 -39.573046452970353 -15.29460909042089 -0.090905744937437888 0.020759101479025498 0.99564311138236317 -0.35402479918339014 0.0078937751496404741 -0.032488303696056604 1 F 2.7388768120091305 F 6.2831853071795853 #
coedge $-1 -1 $-1 $389 $388 $490 $562 reversed $390 $-1 #
edge $563 -1 $-1 $392 -0.040639999999999982 $564 0.040639999999999982 $388 $565 forward @7 unknown #
edge $566 -1 $-1 $567 -0.040639999999999982 $393 0.040639999999999982 $389 $568 forward @7 unknown #
face $569 -1 $-1 $556 $390 $3 $-1 $570 reversed single #
DXID-attrib $-1 -1 $-1 $391 $298 @18 ASM_EDGE_FROM_STEP @4 7775 #
point $-1 -1 $-1 40.396733384764623 -39.565152677820713 -15.327097394116947 #
point $-1 -1 $-1 40.354926420506906 -41.306425008004169 -15.29460909042089 #
coedge $-1 -1 $-1 $571 $396 $449 $540 reversed $306 $-1 #
coedge $-1 -1 $-1 $397 $572 $417 $506 reversed $306 $-1 #
edge $573 -1 $-1 $407 9.4053632715653559e-22 $508 0.33550308877663493 $397 $574 forward @7 unknown #
coedge $-1 -1 $-1 $575 $576 $480 $562 forward $398 $-1 #
truecolor-adesk-attrib $-1 -1 $577 $-1 $399 -1025450021 #
plane-surface $-1 -1 $-1 38.905310489465833 -47.405162702121984 -14.483449057906462 0.090905744937437888 -0.020759101479025498 -0.99564311138236317 -24.654663110533257 5.6301024076638972 -2.3684454364260543 forward_v I I I I #
DXID-attrib $-1 -1 $-1 $401 $309 @18 ASM_EDGE_FROM_STEP @4 7768 #
point $-1 -1 $-1 38.227553305363415 -50.827179817837532 -14.473981831394461 #
DXID-attrib $-1 -1 $-1 $404 $310 @18 ASM_FACE_FROM_STEP @15 stp-1M-67-13346 #
DXID-attrib $-1 -1 $-1 $406 $313 @18 ASM_EDGE_FROM_STEP @4 7770 #
point $-1 -1 $-1 38.12092775052885 -50.748846410649378 -14.485350369489307 #
DXID-attrib $-1 -1 $-1 $409 $314 @18 ASM_FACE_FROM_STEP @15 stp-1M-67-13352 #
coedge $-1 -1 $-1 $421 $578 $412 $500 forward $512 $-1 #
edge $579 -1 $-1 $502 0.16798855229402354 $424 0.4889522041476706 $412 $580 forward @7 unknown #
truecolor-adesk-attrib $-1 -1 $581 $-1 $413 -1025450021 #
vertex $-1 -1 $-1 $413 $582 #
straight-curve $-1 -1 $-1 37.763397235502893 -50.667201270967837 -14.927874856937915 -0.90905744937437916 0.20759101479025502 9.9564311138236352 F -0.012191999999999995 F 0.012191999999999995 #
truecolor-adesk-attrib $-1 -1 $583 $-1 $414 -1025450021 #
plane-surface $-1 -1 $-1 37.763397235502893 -50.667201270967837 -14.927874856937915 -0.82676351032492446 0.55576989851626113 -0.08707420914618387 14.100963754207655 21.109354266972446 0.84733914932223675 forward_v I I I I #
edge $584 -1 $-1 $508 0 $514 0.0095021564418705951 $417 $585 forward @7 unknown #
truecolor-adesk-attrib $-1 -1 $586 $-1 $418 -1025450021 #
vertex $-1 -1 $-1 $418 $587 #
straight-curve $-1 -1 $-1 36.295306138868263 -53.545571712108369 -15.001902919655484 0.90905744937437916 -0.20759101479025502 -9.9564311138236352 F -0.040639999999999982 F 0.040639999999999982 #
DXID-attrib $-1 -1 $-1 $419 $327 @18 ASM_EDGE_FROM_STEP @4 7751 #
coedge $-1 -1 $-1 $578 $421 $572 $588 forward $512 $-1 #
loop $-1 -1 $-1 $-1 $421 $427 #
truecolor-adesk-attrib $-1 -1 $589 $-1 $422 -1025450021 #
vertex $-1 -1 $-1 $506 $590 #
ellipse-curve $-1 -1 $-1 36.205662548290114 -53.490230637242206 -14.888788039089338 0.55515605331525764 0.83107693964458751 0.033359809028434051 -0.18459627080578481 0.11597326901846573 0.18276566438411757 1 F -0.78539816339744883 F 0.78539816339745527 #
DXID-attrib $-1 -1 $-1 $423 $329 @18 ASM_EDGE_FROM_STEP @4 7749 #
point $-1 -1 $-1 35.970464864872881 -53.332125216512303 -14.913558910107243 #
DXID-attrib $-1 -1 $-1 $426 $330 @18 ASM_FACE_FROM_STEP @15 stp-1M-67-13339 #
truecolor-adesk-attrib $-1 -1 $591 $-1 $427 -1025450021 #
face $592 -1 $-1 $527 $530 $3 $-1 $593 forward single #
cone-surface $-1 -1 $-1 38.920110307434307 -49.426661622687 -14.725674517545354 0.55515605331526197 0.8310769396445844 0.033359809028434551 -0.18459627080578428 0.11597326901846666 0.18276566438411759 1 I I 0 1 0.28448000000000001 forward I I I I #
coedge $-1 -1 $-1 $431 $430 $594 $595 forward $432 $-1 #
coedge $-1 -1 $-1 $435 $596 $430 $524 forward $530 $-1 #
edge $597 -1 $-1 $598 -1.5707963267949054 $345 -9.6686529900869523e-15 $523 $599 forward @7 unknown #
coedge $-1 -1 $-1 $545 $439 $431 $526 reversed $533 $-1 #
edge $600 -1 $-1 $601 0 $349 1.5707963267948966 $431 $602 forward @7 unknown #
face $603 -1 $-1 $604 $432 $3 $-1 $605 forward single #
DXID-attrib $-1 -1 $-1 $433 $342 @18 ASM_EDGE_FROM_STEP @4 7746 #
coedge $-1 -1 $-1 $596 $435 $578 $606 reversed $530 $-1 #
loop $-1 -1 $-1 $-1 $435 $520 #
truecolor-adesk-attrib $-1 -1 $607 $-1 $436 -1025450021 #
straight-curve $-1 -1 $-1 39.214664632741098 -44.260921434604121 -14.806486048798178 -2.2262753849331198 -9.7490357425973642 -1.1364487653643338e-15 F -0.31342028014782009 F 0.65685971985217939 #
loop $-1 -1 $-1 $-1 $457 $604 #
truecolor-adesk-attrib $-1 -1 $608 $-1 $440 -1025450021 #
ellipse-curve $-1 -1 $-1 40.702730860782673 -39.562079004476956 -14.76859092181536 -0.090905744937437888 0.020759101479025498 0.99564311138236317 0.16964218433190351 0.74287652358591882 7.3656930093554561e-17 1 F -1.7771038071354555 F 1.777103807135455 #
DXID-attrib $-1 -1 $-1 $444 $352 @18 ASM_FACE_FROM_STEP @15 stp-1M-67-13337 #
DXID-attrib $-1 -1 $-1 $446 $354 @18 ASM_EDGE_FROM_STEP @4 7741 #
truecolor-adesk-attrib $-1 -1 $609 $-1 $448 -1025450021 #
straight-curve $-1 -1 $-1 38.621565518873929 -49.101769215658464 -14.473981831394461 -2.2262753849331198 -9.7490357425973642 -1.1431171836699813e-15 F -0.80150525067571843 F 0.17698269323601626 #
edge $610 -1 $-1 $547 -0.47643211931206197 $451 -0.30778256345231608 $449 $611 forward @7 unknown #
DXID-attrib $-1 -1 $-1 $450 $363 @18 ASM_EDGE_FROM_STEP @4 7764 #
point $-1 -1 $-1 40.405936929347931 -41.287865878941425 -14.473981831394459 #
DXID-attrib $-1 -1 $-1 $453 $364 @18 ASM_EDGE_FROM_STEP @4 7766 #
DXID-attrib $-1 -1 $-1 $455 $365 @18 ASM_FACE_FROM_STEP @15 stp-1M-67-13345 #
coedge $-1 -1 $-1 $457 $525 $571 $612 forward $533 $-1 #
truecolor-adesk-attrib $-1 -1 $613 $-1 $458 -1025450021 #
vertex $-1 -1 $-1 $458 $614 #
ellipse-curve $-1 -1 $-1 41.134632267909396 -39.761044044688816 -14.725008382932856 0.4167425574640457 0.90882384814343786 0.019101147716302964 -0.02586086631980233 0.0059055491887531732 0.28324055232605466 1 F 0 F 1.5707963267948966 #
truecolor-adesk-attrib $-1 -1 $615 $-1 $459 -1025450021 #
cone-surface $-1 -1 $-1 39.149136869308151 -44.090972765212037 -14.816012385810566 -0.41674255746404659 -0.90882384814343753 -0.019101147716303054 0.16365427809903613 -0.079639184766260265 0.21864068219260752 1 I I 0 1 0.28448000000000001 forward I I I I #
truecolor-adesk-attrib $-1 -1 $616 $-1 $464 -1025450021 #
plane-surface $-1 -1 $-1 36.295306138868263 -53.545571712108369 -15.001902919655484 0.8267635103249249 -0.55576989851626035 0.087074209146183898 -14.100963754207633 -21.10935426697246 -0.84733914932223464 forward_v I I I I #
DXID-attrib $-1 -1 $-1 $467 $381 @18 ASM_EDGE_FROM_STEP @4 7782 #
coedge $-1 -1 $-1 $470 $469 $576 $617 reversed $471 $-1 #
edge $618 -1 $-1 $619 -0.040639999999999982 $473 0.040639999999999982 $470 $620 forward @7 unknown #
face $621 -1 $-1 $560 $471 $3 $-1 $622 reversed single #
DXID-attrib $-1 -1 $-1 $472 $385 @18 ASM_EDGE_FROM_STEP @4 7778 #
point $-1 -1 $-1 41.073116442056119 -39.719610512522699 -15.262120786724832 #
coedge $-1 -1 $-1 $476 $475 $575 $623 reversed $477 $-1 #
face $624 -1 $-1 $464 $477 $3 $-1 $625 reversed single #
DXID-attrib $-1 -1 $-1 $478 $387 @18 ASM_EDGE_FROM_STEP @4 7780 #
edge $626 -1 $-1 $567 0.22018795231271487 $564 0.39439566281945448 $490 $627 forward @7 unknown #
truecolor-adesk-attrib $-1 -1 $628 $-1 $481 -1025450021 #
vertex $-1 -1 $-1 $562 $629 #
straight-curve $-1 -1 $-1 40.35978929002205 -39.556716178979642 -14.922468033651155 -0.90905744937437916 0.20759101479025502 9.9564311138236352 F -0.040639999999999982 F 0.040639999999999982 #
truecolor-adesk-attrib $-1 -1 $630 $-1 $482 -1025450021 #
vertex $-1 -1 $-1 $562 $631 #
straight-curve $-1 -1 $-1 40.317982325764333 -41.29798850916309 -14.889979729955098 0.90905744937437916 -0.20759101479025502 -9.9564311138236352 F -0.040639999999999982 F 0.040639999999999982 #
truecolor-adesk-attrib $-1 -1 $632 $-1 $483 -1025450021 #
plane-surface $-1 -1 $-1 40.35978929002205 -39.556716178979642 -14.922468033651155 -0.99557030141560787 0.02219846779988785 -0.091361933903421261 0.60955791741773679 25.388266143907902 -0.47368908728521059 forward_v I I I I #
coedge $-1 -1 $-1 $594 $487 $545 $612 reversed $306 $-1 #
coedge $-1 -1 $-1 $488 $633 $511 $588 reversed $306 $-1 #
truecolor-adesk-attrib $-1 -1 $634 $-1 $489 -1025450021 #
straight-curve $-1 -1 $-1 38.12092775052885 -50.748846410649378 -14.485350369489307 -5.5515605331526121 -8.3107693964458509 -0.3335980902843444 F 9.4053632715653559e-22 F 0.33550308877663493 #
coedge $-1 -1 $-1 $576 $490 $559 $623 forward $398 $-1 #
coedge $-1 -1 $-1 $490 $575 $554 $617 forward $398 $-1 #
DXID-attrib $-1 -1 $-1 $491 $399 @18 ASM_FACE_FROM_STEP @15 stp-1M-67-13347 #
coedge $-1 -1 $-1 $499 $511 $529 $606 forward $512 $-1 #
truecolor-adesk-attrib $-1 -1 $635 $-1 $500 -1025450021 #
straight-curve $-1 -1 $-1 38.684912624017066 -49.268556201957097 -14.750445388563259 -5.5515605331526219 -8.3107693964458473 -0.33359809028434528 F 0.16798855229402354 F 0.4889522041476706 #
DXID-attrib $-1 -1 $-1 $501 $413 @18 ASM_EDGE_FROM_STEP @4 7747 #
point $-1 -1 $-1 37.752314007080123 -50.664670321315512 -14.806486048798178 #
DXID-attrib $-1 -1 $-1 $504 $414 @18 ASM_FACE_FROM_STEP @15 stp-1M-67-13338 #
truecolor-adesk-attrib $-1 -1 $636 $-1 $506 -1025450021 #
straight-curve $-1 -1 $-1 36.25836204412569 -53.537135213267291 -14.597273559189691 -8.2676351032492761 5.5576989851625678 -0.87074209146184089 F 0 F 0.0095021564418705951 #
DXID-attrib $-1 -1 $-1 $507 $418 @18 ASM_EDGE_FROM_STEP @4 7752 #
point $-1 -1 $-1 36.25836204412569 -53.537135213267291 -14.597273559189691 #
edge $637 -1 $-1 $514 -0.48895220414767082 $638 -0.16272557891018863 $511 $639 forward @7 unknown #
DXID-attrib $-1 -1 $-1 $513 $422 @18 ASM_EDGE_FROM_STEP @4 7754 #
point $-1 -1 $-1 36.179801681970311 -53.484325088053453 -14.605547486763284 #
DXID-attrib $-1 -1 $-1 $519 $427 @18 ASM_FACE_FROM_STEP @15 stp-1M-67-13340 #
truecolor-adesk-attrib $-1 -1 $640 $-1 $520 -1025450021 #
cone-surface $-1 -1 $-1 39.490796859579063 -44.323978581569961 -14.779959459910206 0.22262753849331191 0.97490357425973617 1.1364487653643334e-16 -0.21354136404336335 0.048763990099817203 0.1815241843723438 1 I I 0 1 0.28448000000000001 forward I I I I #
coedge $-1 -1 $-1 $633 $571 $522 $595 reversed $306 $-1 #
edge $641 -1 $-1 $598 0.22534796015588318 $601 0.39399751601562949 $522 $642 forward @7 unknown #
coedge $-1 -1 $-1 $523 $529 $633 $643 forward $530 $-1 #
truecolor-adesk-attrib $-1 -1 $644 $-1 $524 -1025450021 #
vertex $-1 -1 $-1 $643 $645 #
ellipse-curve $-1 -1 $-1 40.195113029806613 -41.239722445016611 -14.779959459910206 -0.12149480825890266 -0.99254562645944433 0.0096016124875869351 -0.28268854223358408 0.03434652402846599 -0.026526588887974541 0.99468436895357804 F -1.5707963267949054 F -9.6686529900869523e-15 #
truecolor-adesk-attrib $-1 -1 $646 $-1 $526 -1025450021 #
vertex $-1 -1 $-1 $526 $647 #
ellipse-curve $-1 -1 $-1 40.22727523352377 -39.553841334150761 -14.812173460697863 -0.019070434874971925 -0.99963566596515541 0.019101147716302634 -0.02586086631980233 0.0059055491887531732 0.28324055232605466 1 F 0 F 1.5707963267948966 #
truecolor-adesk-attrib $-1 -1 $648 $-1 $527 -1025450021 #
face $649 -1 $-1 $459 $533 $3 $-1 $650 forward single #
cone-surface $-1 -1 $-1 40.152138193823014 -43.492381027259768 -14.736915413165155 0.019070434874969733 0.99963566596515541 -0.019101147716302835 -0.2185745035009411 0.0076460145453893244 0.18192194832094549 1 I I 0 1 0.28448000000000001 forward I I I I #
edge $651 -1 $-1 $638 -1.5707963267947695 $502 1.4766483897188151e-13 $578 $652 forward @7 unknown #
DXID-attrib $-1 -1 $-1 $531 $436 @18 ASM_EDGE_FROM_STEP @4 7748 #
DXID-attrib $-1 -1 $-1 $534 $440 @18 ASM_EDGE_FROM_STEP @4 7744 #
DXID-attrib $-1 -1 $-1 $538 $448 @18 ASM_EDGE_FROM_STEP @4 7765 #
truecolor-adesk-attrib $-1 -1 $653 $-1 $540 -1025450021 #
straight-curve $-1 -1 $-1 39.123276002988348 -44.085067216023283 -14.53277183348451 -4.1674255746404665 -9.0882384814343755 -0.1910114771630306 F -0.47643211931206197 F -0.30778256345231608 #
edge $654 -1 $-1 $601 -1.7771038071354581 $547 1.777103807135453 $545 $655 forward @7 unknown #
DXID-attrib $-1 -1 $-1 $546 $458 @18 ASM_EDGE_FROM_STEP @4 7761 #
point $-1 -1 $-1 41.108771401589593 -39.75513849550007 -14.441767830606802 #
DXID-attrib $-1 -1 $-1 $549 $459 @18 ASM_FACE_FROM_STEP @15 stp-1M-67-13344 #
DXID-attrib $-1 -1 $-1 $551 $464 @18 ASM_FACE_FROM_STEP @15 stp-1M-67-13351 #
edge $656 -1 $-1 $619 -0.48109171206250545 $567 -0.30688400155576595 $576 $657 forward @7 unknown #
truecolor-adesk-attrib $-1 -1 $658 $-1 $555 -1025450021 #
vertex $-1 -1 $-1 $623 $659 #
straight-curve $-1 -1 $-1 41.036172347313546 -39.711174013681628 -14.85749142625904 0.90905744937437916 -0.20759101479025502 -9.9564311138236352 F -0.040639999999999982 F 0.040639999999999982 #
truecolor-adesk-attrib $-1 -1 $660 $-1 $556 -1025450021 #
plane-surface $-1 -1 $-1 40.317982325764333 -41.29798850916309 -14.889979729955098 0.90651928601828291 -0.4121598975037834 0.091361933903421219 -10.471423161631069 -23.136225180842338 -0.47368908728521392 forward_v I I I I #
edge $661 -1 $-1 $564 6.8592519525958707e-16 $619 3.5443084951704558 $575 $662 forward @7 unknown #
truecolor-adesk-attrib $-1 -1 $663 $-1 $560 -1025450021 #
cone-surface $-1 -1 $-1 40.713814089205442 -39.564609954129281 -14.889979729955098 0.090905744937437888 -0.020759101479025498 -0.99564311138236317 0.079166352688221683 0.34667571100676214 3.7985780753754275e-17 1 I I 0 1 0.35559999999999997 forward I I I I #
truecolor-adesk-attrib $-1 -1 $664 $-1 $562 -1025450021 #
straight-curve $-1 -1 $-1 40.228196770528761 -43.490414346935125 -14.444287129267963 0.23998343205422734 9.9953803716172889 -0.18649176664772071 F 0.22018795231271487 F 0.39439566281945448 #
DXID-attrib $-1 -1 $-1 $563 $481 @18 ASM_EDGE_FROM_STEP @4 7776 #
point $-1 -1 $-1 40.322845195279477 -39.548279680138563 -14.517838673185361 #
DXID-attrib $-1 -1 $-1 $566 $482 @18 ASM_EDGE_FROM_STEP @4 7777 #
point $-1 -1 $-1 40.281038231021761 -41.289552010322012 -14.485350369489305 #
DXID-attrib $-1 -1 $-1 $569 $483 @18 ASM_FACE_FROM_STEP @15 stp-1M-67-13348 #
coedge $-1 -1 $-1 $572 $594 $596 $643 reversed $306 $-1 #
DXID-attrib $-1 -1 $-1 $573 $489 @18 ASM_EDGE_FROM_STEP @4 7769 #
DXID-attrib $-1 -1 $-1 $579 $500 @18 ASM_EDGE_FROM_STEP @4 7750 #
DXID-attrib $-1 -1 $-1 $584 $506 @18 ASM_EDGE_FROM_STEP @4 7753 #
truecolor-adesk-attrib $-1 -1 $665 $-1 $588 -1025450021 #
vertex $-1 -1 $-1 $588 $666 #
straight-curve $-1 -1 $-1 38.894249441114503 -49.420756073498247 -14.442433965219299 5.5515605331526219 8.3107693964458473 0.33359809028434528 F -0.48895220414767082 F -0.16272557891018863 #
DXID-attrib $-1 -1 $-1 $592 $520 @18 ASM_FACE_FROM_STEP @15 stp-1M-67-13341 #
truecolor-adesk-attrib $-1 -1 $667 $-1 $595 -1025450021 #
straight-curve $-1 -1 $-1 40.12627732750321 -43.486475478071014 -14.453674860839101 0.19070434874969708 9.9963566596515552 -0.19101147716302838 F 0.22534796015588318 F 0.39399751601562949 #
edge $668 -1 $-1 $638 -0.66212269323601858 $598 0.31636525067571775 $596 $669 forward @7 unknown #
DXID-attrib $-1 -1 $-1 $597 $524 @18 ASM_EDGE_FROM_STEP @4 7758 #
point $-1 -1 $-1 40.16925216348681 -41.233816895827857 -14.49671890758415 #
DXID-attrib $-1 -1 $-1 $600 $526 @18 ASM_EDGE_FROM_STEP @4 7759 #
point $-1 -1 $-1 40.201414367203967 -39.547935784962007 -14.528932908371809 #
DXID-attrib $-1 -1 $-1 $603 $527 @18 ASM_FACE_FROM_STEP @15 stp-1M-67-13342 #
truecolor-adesk-attrib $-1 -1 $670 $-1 $604 -1025450021 #
torus-surface $-1 -1 $-1 40.702730860782673 -39.562079004476956 -14.76859092181536 0.090905744937437888 -0.020759101479025498 -0.99564311138236317 0.47751999999999994 0.28448000000000001 0.22262753849331121 0.97490357425973628 4.7954886124239736e-17 forward_v I I I I #
truecolor-adesk-attrib $-1 -1 $671 $-1 $606 -1025450021 #
ellipse-curve $-1 -1 $-1 38.016729405822105 -50.779036383912711 -14.779959459910206 -0.39549095195780315 -0.91831321743420824 -0.016962948008620603 -0.26441539874198244 0.11436606259720429 -0.026526588887930084 0.98331401509730654 F -1.5707963267947695 F 1.4766483897188151e-13 #
DXID-attrib $-1 -1 $-1 $610 $540 @18 ASM_EDGE_FROM_STEP @4 7763 #
truecolor-adesk-attrib $-1 -1 $672 $-1 $612 -1025450021 #
ellipse-curve $-1 -1 $-1 40.676869994462869 -39.556173455288203 -14.485350369489305 0.090905744937437888 -0.020759101479025498 -0.99564311138236317 0.10630910218132621 0.46553595478050919 4.6158342858627529e-17 1 F -1.7771038071354581 F 1.777103807135453 #
truecolor-adesk-attrib $-1 -1 $673 $-1 $617 -1025450021 #
straight-curve $-1 -1 $-1 39.015875931090626 -44.084881681342551 -14.542581709095362 -4.1226075439492407 -9.1087500711977736 -0.18649176664772202 F -0.48109171206250545 F -0.30688400155576595 #
DXID-attrib $-1 -1 $-1 $618 $555 @18 ASM_EDGE_FROM_STEP @4 7779 #
point $-1 -1 $-1 40.999228252570965 -39.70273751484055 -14.452862065793248 #
DXID-attrib $-1 -1 $-1 $621 $556 @18 ASM_FACE_FROM_STEP @15 stp-1M-67-13349 #
truecolor-adesk-attrib $-1 -1 $674 $-1 $623 -1025450021 #
ellipse-curve $-1 -1 $-1 40.676869994462869 -39.556173455288203 -14.485350369489305 0.090905744937437888 -0.020759101479025498 -0.99564311138236317 -0.35402479918339014 0.0078937751496404741 -0.032488303696056604 1 F 6.8592519525958707e-16 F 3.5443084951704558 #
DXID-attrib $-1 -1 $-1 $624 $560 @18 ASM_FACE_FROM_STEP @15 stp-1M-67-13350 #
DXID-attrib $-1 -1 $-1 $626 $562 @18 ASM_EDGE_FROM_STEP @4 7772 #
DXID-attrib $-1 -1 $-1 $637 $588 @18 ASM_EDGE_FROM_STEP @4 7755 #
point $-1 -1 $-1 37.990868539502294 -50.773130834723979 -14.496718907584151 #
DXID-attrib $-1 -1 $-1 $641 $595 @18 ASM_EDGE_FROM_STEP @4 7760 #
truecolor-adesk-attrib $-1 -1 $675 $-1 $643 -1025450021 #
straight-curve $-1 -1 $-1 39.464935993259267 -44.318073032381207 -14.496718907584151 2.2262753849331198 9.7490357425973642 1.1364487653643338e-15 F -0.66212269323601858 F 0.31636525067571775 #
DXID-attrib $-1 -1 $-1 $649 $604 @18 ASM_FACE_FROM_STEP @15 stp-1M-67-13343 #
DXID-attrib $-1 -1 $-1 $651 $606 @18 ASM_EDGE_FROM_STEP @4 7756 #
DXID-attrib $-1 -1 $-1 $654 $612 @18 ASM_EDGE_FROM_STEP @4 7762 #
DXID-attrib $-1 -1 $-1 $656 $617 @18 ASM_EDGE_FROM_STEP @4 7774 #
DXID-attrib $-1 -1 $-1 $661 $623 @18 ASM_EDGE_FROM_STEP @4 7773 #
DXID-attrib $-1 -1 $-1 $668 $643 @18 ASM_EDGE_FROM_STEP @4 7757 #
