700 176 1 0         
5 ZWCAD 12 ACIS 28.0 NT 24 Sat May 11 15:59:03 2024 
1 9.9999999999999995e-07 1e-10 
body $1 -1 $-1 $2 $-1 $-1 #
DXID-attrib $-1 -1 $-1 $-1 $0 @18 ASM_BODY_FROM_STEP @83 B78A2E3CA44299F613F7609C51BC81A30351E0DA|:|034FF34073B69F1E76094BE4826CC7895C37CF09 #
lump $-1 -1 $-1 $-1 $3 $0 #
shell $-1 -1 $-1 $-1 $-1 $4 $-1 $2 #
face $5 -1 $-1 $6 $7 $3 $-1 $8 reversed single #
truecolor-adesk-attrib $-1 -1 $9 $-1 $4 -1056964608 #
face $10 -1 $-1 $11 $12 $3 $-1 $13 forward single #
loop $-1 -1 $-1 $-1 $14 $4 #
spline-surface $-1 -1 $-1 forward { sumsur 
	ellipse -166.66066471771705 -3402.7618627621341 735.37595683699988 1.6010250207488024e-17 0.087155742747677581 -0.99619469809174399 -7.3199198900737073e-16 -3.9847787923669755 -0.34862297099071027 1 I I 
	straight -166.66066471771705 -3398.7770839697669 735.72457980799049 -9.6139591939734438e-18 -0.052335956242877853 0.9986295347545775 I I 
	-166.66066471771705 -3398.7770839697669 735.72457980799049 
	none F -3.1415926535897931 F 3.1415926535897931 F -8.0255567629416795 F 810.58123305633342 PERIODIC OPEN NON_SINGULAR NON_SINGULAR 
	0 
	0 
	0 
	0 
	0 
	0 
	} F -3.1415926535897931 F -1.1020940560476449e-16 F -7.5261041804148402e-12 F 802.55567629338111 #
fmesh-eye-attrib $-1 -1 $15 $5 $4 #
truecolor-adesk-attrib $-1 -1 $16 $-1 $6 -1056964608 #
face $17 -1 $-1 $18 $19 $3 $-1 $20 reversed single #
loop $-1 -1 $-1 $-1 $21 $6 #
spline-surface $-1 -1 $-1 forward { rotsur 
	intcurve forward { exactcur full nubs 5 open 5 
	0 5 3.1415926535900001 3 6.2831853071800001 3 9.4247779607699993 3 12.5663706144 5 
	-166.66066471771705 -3440.7796027267341 1537.18038143949 
	-166.03234618699901 -3440.7796027267341 1537.18038143949 
	-165.40402765627709 -3440.9025033214339 1537.16962903072 
	-164.80804998309702 -3441.1484259720341 1537.14811358669 
	-163.74500179047709 -3441.8598135695338 1537.08587523653 
	-163.03089680783705 -3442.9188165429341 1536.9932244817201 
	-162.78403477272707 -3443.5125263411342 1536.9412816049601 
	-162.53729466270704 -3444.7643815191341 1536.8317584685001 
	-162.78403477272707 -3446.016236697134 1536.7222353320501 
	-163.03089680783705 -3446.609946495334 1536.6702924552801 
	-163.74500179047709 -3447.6689494686339 1536.5776417004799 
	-164.80804998309702 -3448.380337066234 1536.51540335032 
	-165.40402765627709 -3448.6262597167342 1536.49388790629 
	-166.03234618699901 -3448.7491603115341 1536.4831354975099 
	-166.66066471771705 -3448.7491603115341 1536.4831354975099 
	0 
	null_surface 
	null_surface 
	nullbs 
	nullbs 
	I I 
	0 
	0 
	3 3.1415926535900001 6.2831853071800001 9.4247779607699993 
	F 1 F 0 } F 0 F 12.5663706144 
	-166.66066471771705 -3479.716415235534 1535 -1 1.8369701987210297e-16 0 
	none F 0 F 12.5663706144 F 0 F 6.2831853071795862 OPEN PERIODIC NON_SINGULAR NON_SINGULAR 
	0 
	0 
	3 3.1415926535900001 6.2831853071800001 9.4247779607699993 
	0 
	0 
	0 
	} F 0 F 12.5663706144 F 3.2288591161894207 F 6.2831853071795862 #
tcoedge-coedge $-1 -1 $-1 $22 $23 $24 $25 forward $7 $26 0 12.5663706144 #
DXID-attrib $-1 -1 $-1 $9 $4 @18 ASM_FACE_FROM_STEP @15 stp-1M-143-7229 #
fmesh-eye-attrib $-1 -1 $27 $10 $6 #
truecolor-adesk-attrib $-1 -1 $28 $-1 $11 -1056964608 #
face $29 -1 $-1 $30 $31 $3 $-1 $32 reversed single #
loop $-1 -1 $-1 $-1 $33 $11 #
spline-surface $-1 -1 $-1 forward { sumsur 
	ellipse -166.66066471771705 -3514.6950941812338 1536.22148238459 1.2746541313569695e-33 6.9388939039100002e-18 1 7.3478807948841188e-16 4 -2.7755575615640001e-17 1 I I 
	straight -166.66066471771705 -3518.6950941812338 1536.22148238459 -6.4109335392861483e-18 -0.034899496702503342 -0.99939082701909565 I I 
	-166.66066471771705 -3518.6950941812338 1536.22148238459 
	none F -3.1415926535897931 F 3.1415926535897931 F -7.9168308805273693 F 799.59991893178005 PERIODIC OPEN NON_SINGULAR NON_SINGULAR 
	0 
	0 
	0 
	0 
	0 
	0 
	} F -3.1415926535897931 F -1.1102230246250297e-16 F 1.3863808608943088e-16 F 791.68308805126719 #
tcoedge-coedge $-1 -1 $-1 $34 $35 $36 $37 forward $12 $38 0 12.5663706144 #
coedge $-1 -1 $-1 $39 $14 $40 $41 reversed $7 $42 #
coedge $-1 -1 $-1 $14 $39 $43 $44 forward $7 $45 #
tcoedge-coedge $-1 -1 $-1 $35 $34 $14 $25 reversed $12 $46 -12.5663706144 0 #
tedge-edge $47 -1 $-1 $48 0 $49 12.5663706144 $14 $50 forward @7 unknown 2.0206778238436879e-05 #
pcurve $-1 -1 $-1 0 forward { exppc nubs 1 open 2 
	0 1 12.5663706144 1 
	-3.1415926535897931 802.55567629337634 
	-1.1102230246057271e-16 802.55567629338111 
	6.6461384550907092e-07 
	spline forward { ref 0 } I I I I 
	} 0 0 #
DXID-attrib $-1 -1 $-1 $16 $6 @18 ASM_FACE_FROM_STEP @15 stp-1M-143-7287 #
fmesh-eye-attrib $-1 -1 $51 $17 $11 #
truecolor-adesk-attrib $-1 -1 $52 $-1 $18 -1056964608 #
face $53 -1 $-1 $54 $55 $3 $-1 $56 forward single #
loop $-1 -1 $-1 $-1 $57 $18 #
spline-surface $-1 -1 $-1 forward { sumsur 
	ellipse -166.66066471771705 -3402.7618627621341 735.37595683699988 1.6010250207488024e-17 0.087155742747677581 -0.99619469809174399 -7.3199198900737073e-16 -3.9847787923669755 -0.34862297099071027 1 I I 
	straight -166.66066471771705 -3398.7770839697669 735.72457980799049 -9.6139591939734438e-18 -0.052335956242877853 0.9986295347545775 I I 
	-166.66066471771705 -3398.7770839697669 735.72457980799049 
	none F -3.1415926535897931 F 3.1415926535897931 F -8.0255567629416458 F 810.58123305633342 PERIODIC OPEN NON_SINGULAR NON_SINGULAR 
	0 
	0 
	0 
	0 
	0 
	0 
	} F -1.224606353810674e-16 F 3.1415926535897931 F -7.5653529847063695e-12 F 802.55567629338111 #
coedge $-1 -1 $-1 $58 $59 $60 $61 forward $19 $62 #
coedge $-1 -1 $-1 $24 $21 $63 $64 reversed $12 $65 #
coedge $-1 -1 $-1 $21 $24 $66 $67 forward $12 $68 #
tcoedge-coedge $-1 -1 $-1 $59 $58 $21 $37 reversed $19 $69 -12.5663706144 0 #
tedge-edge $70 -1 $-1 $71 0 $72 12.5663706144 $21 $73 forward @7 unknown 2.0206767033961817e-05 #
pcurve $-1 -1 $-1 0 forward { exppc nubs 1 open 2 
	0 1 12.5663706144 1 
	0 3.2288591161894207 
	12.5663706144 3.2288591161895379 
	0 
	spline forward { ref 1 } I I I I 
	} 0 0 #
coedge $-1 -1 $-1 $23 $22 $74 $75 reversed $7 $76 #
coedge $-1 -1 $-1 $57 $77 $22 $41 forward $31 $78 #
edge $79 -1 $-1 $80 -401.27783814676911 $49 401.27783814627986 $22 $81 forward @7 unknown #
pcurve $-1 -1 $-1 0 forward { exppc nubs 1 open 2 
	-401.27783814627986 1 401.27783814676911 1 
	-1.2246063538106358e-16 802.55567629338111 
	-1.2246063538106706e-16 -7.503331289626658e-12 
	1.0690498021476731e-13 
	spline forward { ref 0 } I I I I 
	} 0 0 #
coedge $-1 -1 $-1 $77 $57 $23 $44 reversed $31 $82 #
edge $83 -1 $-1 $84 -401.27783814676911 $48 401.27783814625985 $23 $85 forward @7 unknown #
pcurve $-1 -1 $-1 0 forward { exppc nubs 1 open 2 
	-401.27783814676911 1 401.27783814625985 1 
	-3.1415926535897931 7.678209303217831e-12 
	-3.1415926535897931 802.55567629337634 
	1.3307464365605981e-13 
	spline forward { ref 0 } I I I I 
	} 0 0 #
pcurve $-1 -1 $-1 0 reversed { exppc nubs 1 open 2 
	0 1 12.5663706144 1 
	0 0 
	12.5663706144 5.5937336503546571e-19 
	0 
	spline forward { ref 1 } I I I I 
	} 0 6.2831853071795862 #
truecolor-adesk-attrib $-1 -1 $86 $-1 $25 -1056964608 #
tvertex-vertex $-1 -1 $-1 $25 $87 3.1865987984012686e-11 #
tvertex-vertex $-1 -1 $-1 $25 $88 6.9474497834522614e-11 #
intcurve-curve $-1 -1 $-1 forward { exactcur full nubs 5 open 5 
	0 5 3.1415926535900001 3 6.2831853071800001 3 9.4247779607699993 3 12.5663706144 5 
	-166.66066471771705 -3440.7796027267341 1537.18038143949 
	-166.03234618699901 -3440.7796027267341 1537.18038143949 
	-165.40402765627709 -3440.9025033214339 1537.16962903072 
	-164.80804998309702 -3441.1484259720341 1537.14811358669 
	-163.74500179047709 -3441.8598135695338 1537.08587523653 
	-163.03089680783705 -3442.9188165429341 1536.9932244817201 
	-162.78403477272707 -3443.5125263411342 1536.9412816049601 
	-162.53729466270704 -3444.7643815191341 1536.8317584685001 
	-162.78403477272707 -3446.016236697134 1536.7222353320501 
	-163.03089680783705 -3446.609946495334 1536.6702924552801 
	-163.74500179047709 -3447.6689494686339 1536.5776417004799 
	-164.80804998309702 -3448.380337066234 1536.51540335032 
	-165.40402765627709 -3448.6262597167342 1536.49388790629 
	-166.03234618699901 -3448.7491603115341 1536.4831354975099 
	-166.66066471771705 -3448.7491603115341 1536.4831354975099 
	0 
	null_surface 
	null_surface 
	nullbs 
	nullbs 
	I I 
	0 
	0 
	3 3.1415926535900001 6.2831853071800001 9.4247779607699993 
	F 1 F 0 } F 0 F 12.5663706144 #
DXID-attrib $-1 -1 $-1 $28 $11 @18 ASM_FACE_FROM_STEP @15 stp-1M-143-7332 #
fmesh-eye-attrib $-1 -1 $89 $29 $18 #
truecolor-adesk-attrib $-1 -1 $90 $-1 $30 -1056964608 #
face $91 -1 $-1 $92 $93 $3 $-1 $94 reversed single #
loop $-1 -1 $-1 $-1 $95 $30 #
spline-surface $-1 -1 $-1 forward { rotsur 
	intcurve forward { exactcur full nubs 5 open 5 
	12.5663706144 5 15.7079632679 3 18.849555921499999 3 21.991148575099999 3 25.132741228699999 5 
	-166.66066471771705 -3448.7491603115341 1536.4831354975099 
	-167.2889832484351 -3448.7491603115341 1536.4831354975099 
	-167.91730177915701 -3448.6262597167342 1536.49388790629 
	-168.51327945233709 -3448.380337066234 1536.51540335032 
	-169.57632764495702 -3447.6689494686339 1536.5776417004799 
	-170.29043262759706 -3446.609946495334 1536.6702924552801 
	-170.53729466270704 -3446.016236697134 1536.7222353320501 
	-170.78403477272707 -3444.7643815191341 1536.8317584685001 
	-170.53729466270704 -3443.5125263411342 1536.9412816049601 
	-170.29043262759706 -3442.9188165429341 1536.9932244817201 
	-169.57632764495702 -3441.8598135695338 1537.08587523653 
	-168.51327945233709 -3441.1484259720341 1537.14811358669 
	-167.91730177915701 -3440.9025033214339 1537.16962903072 
	-167.2889832484351 -3440.7796027267341 1537.18038143949 
	-166.66066471771705 -3440.7796027267341 1537.18038143949 
	0 
	null_surface 
	null_surface 
	nullbs 
	nullbs 
	I I 
	0 
	0 
	3 15.7079632679 18.849555921499999 21.991148575099999 
	F 1 F 0 } F 12.5663706144 F 25.132741228699999 
	-166.66066471771705 -3479.716415235534 1535 -1 1.8369701987210297e-16 0 
	none F 12.5663706144 F 25.132741228699999 F 0 F 6.2831853071795862 OPEN PERIODIC NON_SINGULAR NON_SINGULAR 
	0 
	0 
	3 15.7079632679 18.849555921499999 21.991148575099999 
	0 
	0 
	0 
	} F 12.5663706144 F 25.132741228699999 F 3.2288591161894207 F 6.2831853071795862 #
tcoedge-coedge $-1 -1 $-1 $43 $40 $96 $97 forward $31 $98 12.5663706144 25.132741228699999 #
coedge $-1 -1 $-1 $36 $33 $99 $100 reversed $19 $101 #
coedge $-1 -1 $-1 $33 $36 $102 $103 forward $19 $104 #
coedge $-1 -1 $-1 $105 $105 $33 $61 reversed $106 $-1 #
edge $107 -1 $-1 $108 -3.1415926535900081 $109 -1.1438334886318489e-17 $33 $110 forward @7 unknown #
pcurve $-1 -1 $-1 0 forward { exppc nubs 1 open 2 
	-3.1415926535900076 1 -1.020799160451845e-36 1 
	-3.1415926535897927 791.68308805124252 
	-3.2196467713644106e-15 791.68308805126719 
	2.9395554743018748e-13 
	spline forward { ref 3 } I I I I 
	} 0 0 #
coedge $-1 -1 $-1 $95 $96 $34 $64 forward $55 $111 #
edge $112 -1 $-1 $49 1.6186534278553593 $72 4.6729796188454076 $34 $113 forward @7 unknown #
pcurve $-1 -1 $-1 0 forward { exppc nubs 1 open 2 
	-4.6729796188454076 1 -1.6186534278553593 1 
	12.5663706144 3.2288591161895384 
	12.5663706144 6.2831853071795862 
	3.4921440383090398e-14 
	spline forward { ref 1 } I I I I 
	} 0 0 #
coedge $-1 -1 $-1 $96 $95 $35 $67 reversed $55 $114 #
edge $115 -1 $-1 $48 1.6267358482786087 $71 4.6810620392687738 $35 $116 forward @7 unknown #
pcurve $-1 -1 $-1 0 forward { exppc nubs 1 open 2 
	1.6267358482786087 1 4.6810620392687738 1 
	0 6.2831853071795862 
	0 3.2288591161894216 
	4.5363326797822071e-14 
	spline forward { ref 1 } I I I I 
	} 0 0 #
pcurve $-1 -1 $-1 0 forward { exppc nubs 1 open 2 
	-12.5663706144 1 0 1 
	-1.1102230246250297e-16 1.3863808608943088e-16 
	-3.1415926535897931 1.460222998241797e-16 
	6.6461449359929806e-07 
	spline forward { ref 3 } I I I I 
	} 0 0 #
truecolor-adesk-attrib $-1 -1 $117 $-1 $37 -1056964608 #
tvertex-vertex $-1 -1 $-1 $37 $118 1.7536966820795562e-11 #
tvertex-vertex $-1 -1 $-1 $37 $119 7.4892766999383118e-11 #
intcurve-curve $-1 -1 $-1 forward { exactcur full nubs 5 open 5 
	0 5 3.1415926535900001 3 6.2831853071800001 3 9.4247779607699993 3 12.5663706144 5 
	-166.66066471771705 -3518.6950941812338 1536.22148238459 
	-166.03234618699901 -3518.6950941812338 1536.22148238459 
	-165.40402765627709 -3518.5717241262341 1536.22148238459 
	-164.80804998309702 -3518.324862091134 1536.22148238459 
	-163.74500179047709 -3517.610757108434 1536.22148238459 
	-163.03089680783705 -3516.5477089158339 1536.22148238459 
	-162.78403477272707 -3515.9517312426342 1536.22148238459 
	-162.53729466270704 -3514.6950941812338 1536.22148238459 
	-162.78403477272707 -3513.4384571197338 1536.22148238459 
	-163.03089680783705 -3512.8424794465341 1536.22148238459 
	-163.74500179047709 -3511.779431253934 1536.22148238459 
	-164.80804998309702 -3511.065326271334 1536.22148238459 
	-165.40402765627709 -3510.8184642362339 1536.22148238459 
	-166.03234618699901 -3510.6950941812338 1536.22148238459 
	-166.66066471771705 -3510.6950941812338 1536.22148238459 
	0 
	null_surface 
	null_surface 
	nullbs 
	nullbs 
	I I 
	0 
	0 
	3 3.1415926535900001 6.2831853071800001 9.4247779607699993 
	F 1 F 0 } F 0 F 12.5663706144 #
coedge $-1 -1 $-1 $120 $120 $39 $75 forward $121 $-1 #
edge $122 -1 $-1 $84 -3.1415926535894743 $80 -1.2251228443758639e-17 $39 $123 forward @7 unknown #
pcurve $-1 -1 $-1 0 forward { exppc nubs 1 open 2 
	-4.9303806576297508e-30 1 3.1415926535894743 1 
	-1.1020940560476449e-16 -7.5261041804148402e-12 
	-3.1415926535897931 2.9122851235280794e-11 
	3.1616937710838422e-13 
	spline forward { ref 0 } I I I I 
	} 0 0 #
coedge $-1 -1 $-1 $40 $43 $120 $124 reversed $31 $125 #
pcurve $-1 -1 $-1 0 forward { exppc nubs 1 open 2 
	-401.27783814676911 1 401.27783814627986 1 
	-1.2246063538106373e-16 -7.5653529847063695e-12 
	-1.224606353810673e-16 802.55567629338111 
	1.8354742293752267e-13 
	spline forward { ref 5 } I I I I 
	} 0 0 #
truecolor-adesk-attrib $-1 -1 $126 $-1 $41 -1056964608 #
vertex $-1 -1 $-1 $41 $127 #
straight-curve $-1 -1 $-1 -166.66066471771705 -3427.7479009330341 1135.755234682 -9.6139591939775145e-18 -0.052335956242900009 0.99862953475500005 F -401.27783814676911 F 401.27783814627986 #
pcurve $-1 -1 $-1 0 forward { exppc nubs 1 open 2 
	-401.27783814625985 1 401.27783814676911 1 
	-3.1415926535897931 802.55567629337634 
	-3.1415926535897931 7.5862023975088809e-12 
	2.3022940720908682e-13 
	spline forward { ref 5 } I I I I 
	} 6.2831853071795862 0 #
truecolor-adesk-attrib $-1 -1 $128 $-1 $44 -1056964608 #
vertex $-1 -1 $-1 $75 $129 #
straight-curve $-1 -1 $-1 -166.66066471771705 -3419.7783433482341 1136.4524806239999 -9.6139591939775145e-18 -0.052335956242900009 0.99862953475500005 F -401.27783814676911 F 401.27783814625985 #
DXID-attrib $-1 -1 $-1 $47 $25 @18 ASM_EDGE_FROM_STEP @4 7191 #
point $-1 -1 $-1 -166.66066471771705 -3440.7796027267341 1537.18038143949 #
point $-1 -1 $-1 -166.66066471771705 -3448.7491603115341 1536.4831354975099 #
DXID-attrib $-1 -1 $-1 $52 $18 @18 ASM_FACE_FROM_STEP @15 stp-1M-143-7380 #
fmesh-eye-attrib $-1 -1 $130 $53 $30 #
truecolor-adesk-attrib $-1 -1 $131 $-1 $54 -1056964608 #
face $132 -1 $-1 $133 $121 $3 $-1 $134 forward single #
loop $-1 -1 $-1 $-1 $135 $54 #
spline-surface $-1 -1 $-1 forward { sumsur 
	ellipse -166.66066471771705 -3514.6950941812338 1536.22148238459 1.2746541313569695e-33 6.9388939039100002e-18 1 7.3478807948841188e-16 4 -2.7755575615640001e-17 1 I I 
	straight -166.66066471771705 -3518.6950941812338 1536.22148238459 -6.4109335392861483e-18 -0.034899496702503342 -0.99939082701909565 I I 
	-166.66066471771705 -3518.6950941812338 1536.22148238459 
	none F -3.1415926535897931 F 3.1415926535897931 F -7.9168308805273719 F 799.59991893178028 PERIODIC OPEN NON_SINGULAR NON_SINGULAR 
	0 
	0 
	0 
	0 
	0 
	0 
	} F -3.249837757319946e-15 F 3.1415926535897931 F 1.2781700017824817e-16 F 791.68308805126742 #
tcoedge-coedge $-1 -1 $-1 $66 $63 $136 $137 forward $55 $138 12.5663706144 25.132741228699999 #
tcoedge-coedge $-1 -1 $-1 $63 $66 $57 $97 reversed $55 $139 -25.132741228699999 -12.5663706144 #
tedge-edge $140 -1 $-1 $49 12.5663706144 $48 25.132741228699999 $57 $141 forward @7 unknown 2.0206778233873052e-05 #
pcurve $-1 -1 $-1 0 forward { exppc nubs 1 open 2 
	12.5663706144 1 25.132741228699999 1 
	-1.1102230246056937e-16 802.55567629338111 
	3.1415926535897931 802.55567629337622 
	6.6461378789798938e-07 
	spline forward { ref 5 } I I I I 
	} 0 0 #
coedge $-1 -1 $-1 $135 $136 $58 $100 forward $93 $142 #
edge $143 -1 $-1 $72 -395.84154402496688 $109 395.84154402637608 $58 $144 forward @7 unknown #
pcurve $-1 -1 $-1 0 forward { exppc nubs 1 open 2 
	-395.84154402637608 1 395.84154402496688 1 
	-1.2246063538189075e-16 791.68308805126708 
	-1.224606353818875e-16 1.0819565913007608e-13 
	8.5881096362752362e-14 
	spline forward { ref 3 } I I I I 
	} 0 0 #
coedge $-1 -1 $-1 $136 $135 $59 $103 reversed $93 $145 #
edge $146 -1 $-1 $71 -395.84154402496688 $108 395.84154402637608 $59 $147 forward @7 unknown #
pcurve $-1 -1 $-1 0 forward { exppc nubs 1 open 2 
	-395.84154402496688 1 395.84154402637608 1 
	-3.1415926535897931 1.0864764473345555e-13 
	-3.1415926535897931 791.68308805126708 
	1.5862926149264424e-13 
	spline forward { ref 3 } I I I I 
	} 0 0 #
coedge $-1 -1 $-1 $60 $60 $135 $148 reversed $106 $-1 #
loop $-1 -1 $-1 $-1 $105 $133 #
truecolor-adesk-attrib $-1 -1 $149 $-1 $61 -1056964608 #
vertex $-1 -1 $-1 $61 $150 #
vertex $-1 -1 $-1 $61 $151 #
ellipse-curve $-1 -1 $-1 -166.6606647177166 -3542.3244355021066 745.02066628001489 3.7232255571562187e-27 3.0908609005567694e-12 1 -4.225883803894666e-13 3.9999999999995683 -1.2363443602225743e-11 1 F -3.1415926535900081 F -1.1438334886318489e-17 #
pcurve $-1 -1 $-1 0 forward { exppc nubs 1 open 2 
	1.6186534278553593 1 4.6729796188454076 1 
	12.5663706144 6.2831853071795862 
	12.5663706144 3.2288591161895384 
	3.3705213129098324e-14 
	spline forward { ref 11 } I I I I 
	} 0 0 #
truecolor-adesk-attrib $-1 -1 $152 $-1 $64 -1056964608 #
ellipse-curve $-1 -1 $-1 -166.66066471771705 -3479.716415235534 1535 1 -1.8369701987210297e-16 0 0 0 -31.0027509817 1 F 1.6186534278553593 F 4.6729796188454076 #
pcurve $-1 -1 $-1 0 forward { exppc nubs 1 open 2 
	-4.6810620392687738 1 -1.6267358482786087 1 
	25.132741228699999 3.2288591161894216 
	25.132741228699999 6.2831853071795862 
	5.3776832246892248e-14 
	spline forward { ref 11 } I I I I 
	} 0 0 #
truecolor-adesk-attrib $-1 -1 $153 $-1 $67 -1056964608 #
ellipse-curve $-1 -1 $-1 -166.66066471771705 -3479.716415235534 1535 1 -1.8369701987210297e-16 0 0 0 -38.997813163899998 1 F 1.6267358482786087 F 4.6810620392687738 #
DXID-attrib $-1 -1 $-1 $70 $37 @18 ASM_EDGE_FROM_STEP @4 7270 #
point $-1 -1 $-1 -166.66066471771705 -3518.6950941812338 1536.22148238459 #
point $-1 -1 $-1 -166.66066471771705 -3510.6950941812338 1536.22148238459 #
coedge $-1 -1 $-1 $74 $74 $77 $124 forward $121 $-1 #
loop $-1 -1 $-1 $-1 $74 $92 #
truecolor-adesk-attrib $-1 -1 $154 $-1 $75 -1056964608 #
ellipse-curve $-1 -1 $-1 -166.66066471771762 -3402.7618627621346 735.37595683701056 1.6010250208325742e-17 0.087155742752237905 -0.99619469809134487 6.3762173662183808e-13 -3.984778792366015 -0.34862297100900719 1 F -3.1415926535894743 F -1.2251228443758639e-17 #
edge $155 -1 $-1 $80 -3.1415926535899841 $84 1.224646791102512e-16 $77 $156 forward @7 unknown #
pcurve $-1 -1 $-1 0 forward { exppc nubs 1 open 2 
	-1.047705889746853e-29 1 3.1415926535899841 1 
	3.1415926535897927 7.6904147811620069e-12 
	1.085868921232154e-16 2.8980653870628315e-11 
	2.9954623553320318e-13 
	spline forward { ref 5 } I I I I 
	} 0 0 #
DXID-attrib $-1 -1 $-1 $79 $41 @18 ASM_EDGE_FROM_STEP @4 7198 #
point $-1 -1 $-1 -166.66066471771705 -3406.7466415545341 735.02733386599994 #
DXID-attrib $-1 -1 $-1 $83 $44 @18 ASM_EDGE_FROM_STEP @4 7222 #
point $-1 -1 $-1 -166.66066471771705 -3398.7770839697341 735.72457980799982 #
DXID-attrib $-1 -1 $-1 $90 $30 @18 ASM_FACE_FROM_STEP @15 stp-1M-143-7424 #
fmesh-eye-attrib $-1 -1 $157 $91 $54 #
truecolor-adesk-attrib $-1 -1 $158 $-1 $92 -1056964608 #
face $159 -1 $-1 $-1 $106 $3 $-1 $160 reversed single #
plane-surface $-1 -1 $-1 -166.66066471771705 -3465.1316406096339 729.91930832899993 1.6010250207488024e-17 0.087155742747677581 -0.99619469809174388 1.8299799725184271e-16 0.99619469809174399 0.087155742747677595 forward_v I I I I #
coedge $-1 -1 $-1 $102 $99 $105 $148 forward $93 $161 #
tcoedge-coedge $-1 -1 $-1 $99 $102 $95 $137 reversed $93 $162 -25.132741228699999 -12.5663706144 #
tedge-edge $163 -1 $-1 $72 12.5663706144 $71 25.132741228699999 $95 $164 forward @7 unknown 2.0206767034474675e-05 #
pcurve $-1 -1 $-1 0 forward { exppc nubs 1 open 2 
	12.5663706144 1 25.132741228699999 1 
	12.5663706144 3.2288591161895379 
	25.132741228699999 3.2288591161894207 
	0 
	spline forward { ref 11 } I I I I 
	} 0 0 #
pcurve $-1 -1 $-1 0 reversed { exppc nubs 1 open 2 
	12.5663706144 1 25.132741228699999 1 
	12.5663706144 0 
	25.132741228699999 3.0140130992533926e-18 
	0 
	spline forward { ref 11 } I I I I 
	} 0 6.2831853071795862 #
truecolor-adesk-attrib $-1 -1 $165 $-1 $97 -1056964608 #
intcurve-curve $-1 -1 $-1 forward { exactcur full nubs 5 open 5 
	12.5663706144 5 15.7079632679 3 18.849555921499999 3 21.991148575099999 3 25.132741228699999 5 
	-166.66066471771705 -3448.7491603115341 1536.4831354975099 
	-167.2889832484351 -3448.7491603115341 1536.4831354975099 
	-167.91730177915701 -3448.6262597167342 1536.49388790629 
	-168.51327945233709 -3448.380337066234 1536.51540335032 
	-169.57632764495702 -3447.6689494686339 1536.5776417004799 
	-170.29043262759706 -3446.609946495334 1536.6702924552801 
	-170.53729466270704 -3446.016236697134 1536.7222353320501 
	-170.78403477272707 -3444.7643815191341 1536.8317584685001 
	-170.53729466270704 -3443.5125263411342 1536.9412816049601 
	-170.29043262759706 -3442.9188165429341 1536.9932244817201 
	-169.57632764495702 -3441.8598135695338 1537.08587523653 
	-168.51327945233709 -3441.1484259720341 1537.14811358669 
	-167.91730177915701 -3440.9025033214339 1537.16962903072 
	-167.2889832484351 -3440.7796027267341 1537.18038143949 
	-166.66066471771705 -3440.7796027267341 1537.18038143949 
	0 
	null_surface 
	null_surface 
	nullbs 
	nullbs 
	I I 
	0 
	0 
	3 15.7079632679 18.849555921499999 21.991148575099999 
	F 1 F 0 } F 12.5663706144 F 25.132741228699999 #
pcurve $-1 -1 $-1 0 forward { exppc nubs 1 open 2 
	-395.84154402496688 1 395.84154402637608 1 
	-1.2246063538189068e-16 1.08316428919038e-13 
	-1.2246063538188779e-16 791.68308805126708 
	1.5831230537983026e-13 
	spline forward { ref 21 } I I I I 
	} 0 0 #
truecolor-adesk-attrib $-1 -1 $166 $-1 $100 -1056964608 #
straight-curve $-1 -1 $-1 -166.66066471771705 -3524.509764841634 1140.621074333 -6.4109335392855344e-18 -0.034899496702499998 -0.99939082701899995 F -395.84154402496688 F 395.84154402637608 #
pcurve $-1 -1 $-1 0 forward { exppc nubs 1 open 2 
	-395.84154402637608 1 395.84154402496688 1 
	-3.1415926535897931 791.68308805126708 
	-3.1415926535897931 1.0850562892837166e-13 
	8.6198713711575268e-14 
	spline forward { ref 21 } I I I I 
	} 6.2831853071795862 0 #
truecolor-adesk-attrib $-1 -1 $167 $-1 $103 -1056964608 #
straight-curve $-1 -1 $-1 -166.66066471771705 -3532.509764841634 1140.621074333 -6.4109335392855344e-18 -0.034899496702499998 -0.99939082701899995 F -395.84154402496688 F 395.84154402637608 #
edge $168 -1 $-1 $109 -3.1415926535897909 $108 6.3397136178119956e-15 $135 $169 forward @7 unknown #
DXID-attrib $-1 -1 $-1 $107 $61 @18 ASM_EDGE_FROM_STEP @4 7315 #
point $-1 -1 $-1 -166.66066471771705 -3546.3244355020342 745.02066627999989 #
point $-1 -1 $-1 -166.66066471771705 -3538.3244355020338 745.02066627999989 #
DXID-attrib $-1 -1 $-1 $112 $64 @18 ASM_EDGE_FROM_STEP @4 7275 #
DXID-attrib $-1 -1 $-1 $115 $67 @18 ASM_EDGE_FROM_STEP @4 7280 #
DXID-attrib $-1 -1 $-1 $122 $75 @18 ASM_EDGE_FROM_STEP @4 7217 #
truecolor-adesk-attrib $-1 -1 $170 $-1 $124 -1056964608 #
ellipse-curve $-1 -1 $-1 -166.6606647177174 -3402.761862762135 735.37595683701829 1.7905346096221212e-14 0.087155742745012449 -0.99619469809197703 3.8237602752461608e-13 3.9847787923675337 0.34862297098001704 1 F -3.1415926535899841 F 1.224646791102512e-16 #
DXID-attrib $-1 -1 $-1 $131 $54 @18 ASM_FACE_FROM_STEP @15 stp-1M-143-7455 #
fmesh-eye-attrib $-1 -1 $171 $132 $92 #
truecolor-adesk-attrib $-1 -1 $172 $-1 $133 -1056964608 #
plane-surface $-1 -1 $-1 -166.66066471771705 -3479.716415235534 745.02066627999989 0 0 1 -1.8369701987210297e-16 -1 0 forward_v I I I I #
pcurve $-1 -1 $-1 0 forward { exppc nubs 1 open 2 
	-3.1415926535897909 1 -1.4012984643248147e-42 1 
	-3.249837757319946e-15 791.68308805126708 
	3.1415926535897869 791.68308805126742 
	2.9004789652973106e-13 
	spline forward { ref 21 } I I I I 
	} 0 0 #
pcurve $-1 -1 $-1 0 forward { exppc nubs 1 open 2 
	-25.132741228699999 1 -12.5663706144 1 
	3.1415926535897927 1.2781700017824817e-16 
	-1.1102230246250012e-16 1.586590520153686e-16 
	6.6461452364686701e-07 
	spline forward { ref 21 } I I I I 
	} 0 0 #
truecolor-adesk-attrib $-1 -1 $173 $-1 $137 -1056964608 #
intcurve-curve $-1 -1 $-1 forward { exactcur full nubs 5 open 5 
	12.5663706144 5 15.7079632679 3 18.849555921499999 3 21.991148575099999 3 25.132741228699999 5 
	-166.66066471771705 -3510.6950941812338 1536.22148238459 
	-167.2889832484351 -3510.6950941812338 1536.22148238459 
	-167.91730177915701 -3510.8184642362339 1536.22148238459 
	-168.51327945233709 -3511.065326271334 1536.22148238459 
	-169.57632764495702 -3511.779431253934 1536.22148238459 
	-170.29043262759706 -3512.8424794465341 1536.22148238459 
	-170.53729466270704 -3513.4384571197338 1536.22148238459 
	-170.78403477272707 -3514.6950941812338 1536.22148238459 
	-170.53729466270704 -3515.9517312426342 1536.22148238459 
	-170.29043262759706 -3516.5477089158339 1536.22148238459 
	-169.57632764495702 -3517.610757108434 1536.22148238459 
	-168.51327945233709 -3518.324862091134 1536.22148238459 
	-167.91730177915701 -3518.5717241262341 1536.22148238459 
	-167.2889832484351 -3518.6950941812338 1536.22148238459 
	-166.66066471771705 -3518.6950941812338 1536.22148238459 
	0 
	null_surface 
	null_surface 
	nullbs 
	nullbs 
	I I 
	0 
	0 
	3 15.7079632679 18.849555921499999 21.991148575099999 
	F 1 F 0 } F 12.5663706144 F 25.132741228699999 #
DXID-attrib $-1 -1 $-1 $140 $97 @18 ASM_EDGE_FROM_STEP @4 7356 #
DXID-attrib $-1 -1 $-1 $143 $100 @18 ASM_EDGE_FROM_STEP @4 7320 #
DXID-attrib $-1 -1 $-1 $146 $103 @18 ASM_EDGE_FROM_STEP @4 7325 #
truecolor-adesk-attrib $-1 -1 $174 $-1 $148 -1056964608 #
ellipse-curve $-1 -1 $-1 -166.66066471771705 -3542.324435502107 745.02066628000239 -1.7763568394002741e-14 -3.5527136788004864e-14 1 -2.4599712288089474e-14 -4.0000000000000036 -1.4210854715202004e-13 1 F -3.1415926535897909 F 6.3397136178119956e-15 #
DXID-attrib $-1 -1 $-1 $155 $124 @18 ASM_EDGE_FROM_STEP @4 7373 #
DXID-attrib $-1 -1 $-1 $158 $92 @18 ASM_FACE_FROM_STEP @15 stp-1M-143-7465 #
fmesh-eye-attrib $-1 -1 $175 $159 $133 #
DXID-attrib $-1 -1 $-1 $163 $137 @18 ASM_EDGE_FROM_STEP @4 7417 #
DXID-attrib $-1 -1 $-1 $168 $148 @18 ASM_EDGE_FROM_STEP @4 7448 #
DXID-attrib $-1 -1 $-1 $172 $133 @18 ASM_FACE_FROM_STEP @15 stp-1M-143-7475 #
