700 352 1 0         
5 ZWCAD 12 ACIS 28.0 NT 24 Sat May 11 15:58:31 2024 
1 9.9999999999999995e-07 1e-10 
body $1 -1 $-1 $2 $-1 $-1 #
DXID-attrib $-1 -1 $-1 $-1 $0 @18 ASM_BODY_FROM_STEP @83 2A84B85479D999701BE61B5538D69F1C3195952D|:|54C0BC610108FE8DE2516DFA1376512C0BC607B5 #
lump $-1 -1 $-1 $-1 $3 $0 #
shell $-1 -1 $-1 $-1 $-1 $4 $-1 $2 #
face $5 -1 $-1 $6 $7 $3 $-1 $8 forward single #
truecolor-adesk-attrib $-1 -1 $9 $-1 $4 -1056964608 #
face $10 -1 $-1 $11 $12 $3 $-1 $13 forward single #
loop $-1 -1 $-1 $-1 $14 $4 #
cone-surface $-1 -1 $-1 -1043.5286493496651 -970.82495116948644 762.5 1.8369701987210297e-16 1 0 41.71002185856571 -7.662006714218794e-15 76.349682884462396 1 I I 0 1 87 forward I I I I #
DXID-attrib $-1 -1 $-1 $5 $4 @18 ASM_FACE_FROM_STEP @16 stp-1M-143-13363 #
truecolor-adesk-attrib $-1 -1 $15 $-1 $6 -1056964608 #
face $16 -1 $-1 $17 $18 $3 $-1 $19 reversed single #
loop $-1 -1 $-1 $-1 $20 $6 #
cone-surface $-1 -1 $-1 -1043.5286493496651 -970.82495116948644 762.5 1.8369701987210297e-16 1 0 41.71002185856571 -7.662006714218794e-15 76.349682884462396 1 I I 0 1 87 forward I I I I #
coedge $-1 -1 $-1 $21 $22 $23 $24 forward $7 $-1 #
DXID-attrib $-1 -1 $-1 $10 $6 @18 ASM_FACE_FROM_STEP @16 stp-1M-143-13380 #
truecolor-adesk-attrib $-1 -1 $25 $-1 $11 -1056964608 #
face $26 -1 $-1 $27 $28 $3 $-1 $29 reversed single #
loop $-1 -1 $-1 $-1 $30 $11 #
cone-surface $-1 -1 $-1 -1043.5286493496651 -970.82495116948644 762.5 1.8369701987210297e-16 1 0 2.3971276930210177 -4.4034521346085025e-16 4.387912809451862 1 I I 0 1 5 forward I I I I #
coedge $-1 -1 $-1 $31 $32 $33 $34 forward $12 $-1 #
coedge $-1 -1 $-1 $33 $14 $35 $36 reversed $7 $-1 #
coedge $-1 -1 $-1 $14 $33 $37 $38 forward $7 $-1 #
coedge $-1 -1 $-1 $32 $31 $14 $24 reversed $12 $-1 #
edge $39 -1 $-1 $40 -7.5 $41 7.5 $14 $42 forward @7 unknown #
DXID-attrib $-1 -1 $-1 $16 $11 @18 ASM_FACE_FROM_STEP @16 stp-1M-143-13420 #
truecolor-adesk-attrib $-1 -1 $43 $-1 $17 -1056964608 #
face $44 -1 $-1 $45 $46 $3 $-1 $47 reversed single #
loop $-1 -1 $-1 $-1 $48 $17 #
cone-surface $-1 -1 $-1 -1043.5286493496651 -970.82495116948644 762.5 1.8369701987210297e-16 1 0 2.3971276930210177 -4.4034521346085025e-16 4.387912809451862 1 I I 0 1 5 forward I I I I #
coedge $-1 -1 $-1 $49 $50 $51 $52 forward $18 $-1 #
coedge $-1 -1 $-1 $23 $20 $53 $54 reversed $12 $-1 #
coedge $-1 -1 $-1 $20 $23 $55 $56 forward $12 $-1 #
coedge $-1 -1 $-1 $22 $21 $20 $34 reversed $7 $-1 #
edge $57 -1 $-1 $58 -7.5 $59 7.5 $33 $60 forward @7 unknown #
coedge $-1 -1 $-1 $53 $53 $21 $36 forward $61 $-1 #
edge $62 -1 $-1 $59 -1.0707963267947573 $41 2.070796326795036 $21 $63 forward @7 unknown #
coedge $-1 -1 $-1 $55 $55 $22 $38 reversed $64 $-1 #
edge $65 -1 $-1 $58 -1.0707963267947573 $40 2.070796326795036 $22 $66 forward @7 unknown #
truecolor-adesk-attrib $-1 -1 $67 $-1 $24 -1056964608 #
vertex $-1 -1 $-1 $24 $68 #
vertex $-1 -1 $-1 $24 $69 #
straight-curve $-1 -1 $-1 -1085.238671208265 -970.82495116948644 686.1503171155 1.8369701987210297e-16 1 0 F -7.5 F 7.5 #
DXID-attrib $-1 -1 $-1 $26 $17 @18 ASM_FACE_FROM_STEP @16 stp-1M-143-13437 #
truecolor-adesk-attrib $-1 -1 $70 $-1 $27 -1056964608 #
face $71 -1 $-1 $72 $73 $3 $-1 $74 reversed single #
loop $-1 -1 $-1 $-1 $75 $27 #
cone-surface $-1 -1 $-1 -1043.5286493496651 -973.32495116948644 762.5 1.8369701987210297e-16 1 0 21.574149237189157 -3.9631069211476518e-15 39.491215285066758 1 I I 0.91036647746342381 0.41380294429938191 45 forward I I I I #
coedge $-1 -1 $-1 $76 $77 $78 $79 forward $28 $-1 #
coedge $-1 -1 $-1 $78 $30 $80 $81 reversed $18 $-1 #
coedge $-1 -1 $-1 $30 $78 $82 $83 forward $18 $-1 #
coedge $-1 -1 $-1 $77 $76 $30 $52 reversed $28 $-1 #
edge $84 -1 $-1 $85 -2.5 $86 2.5 $30 $87 reversed @7 unknown #
coedge $-1 -1 $-1 $35 $35 $31 $54 forward $61 $-1 #
edge $88 -1 $-1 $41 2.070796326795036 $59 5.2123889803848291 $31 $89 forward @7 unknown #
coedge $-1 -1 $-1 $37 $37 $32 $56 reversed $64 $-1 #
edge $90 -1 $-1 $40 2.070796326795036 $58 5.2123889803848291 $32 $91 forward @7 unknown #
truecolor-adesk-attrib $-1 -1 $92 $-1 $34 -1056964608 #
vertex $-1 -1 $-1 $34 $93 #
vertex $-1 -1 $-1 $36 $94 #
straight-curve $-1 -1 $-1 -1001.8186274910652 -970.82495116948644 838.8496828845 1.8369701987210297e-16 1 0 F -7.5 F 7.5 #
loop $-1 -1 $-1 $95 $53 $72 #
truecolor-adesk-attrib $-1 -1 $96 $-1 $36 -1056964608 #
ellipse-curve $-1 -1 $-1 -1043.5286493496651 -963.32495116948644 762.5 1.8369701987210297e-16 1 0 87.000000000000014 -1.5981640728872962e-14 0 1 F -1.0707963267947573 F 2.070796326795036 #
loop $-1 -1 $-1 $97 $37 $98 #
truecolor-adesk-attrib $-1 -1 $99 $-1 $38 -1056964608 #
ellipse-curve $-1 -1 $-1 -1043.5286493496651 -978.32495116948644 762.5 1.8369701987210297e-16 1 0 87.000000000000014 -1.5981640728872962e-14 0 1 F -1.0707963267947573 F 2.070796326795036 #
DXID-attrib $-1 -1 $-1 $39 $24 @18 ASM_EDGE_FROM_STEP @5 13337 #
point $-1 -1 $-1 -1085.238671208265 -978.32495116948644 686.1503171155 #
point $-1 -1 $-1 -1085.238671208265 -963.32495116948644 686.1503171155 #
DXID-attrib $-1 -1 $-1 $44 $27 @18 ASM_FACE_FROM_STEP @16 stp-1M-143-13477 #
truecolor-adesk-attrib $-1 -1 $100 $-1 $45 -1056964608 #
face $101 -1 $-1 $102 $61 $3 $-1 $103 forward single #
loop $-1 -1 $-1 $-1 $104 $45 #
cone-surface $-1 -1 $-1 -1043.5286493496651 -973.32495116948644 762.5 1.8369701987210297e-16 1 0 21.574149237189157 -3.9631069211476518e-15 39.491215285066758 1 I I 0.91036647746342381 0.41380294429938191 45 forward I I I I #
coedge $-1 -1 $-1 $105 $106 $107 $108 forward $46 $-1 #
coedge $-1 -1 $-1 $51 $48 $109 $110 reversed $28 $-1 #
coedge $-1 -1 $-1 $48 $51 $111 $112 forward $28 $-1 #
coedge $-1 -1 $-1 $50 $49 $48 $79 reversed $18 $-1 #
edge $113 -1 $-1 $114 -2.5 $115 2.5 $78 $116 reversed @7 unknown #
coedge $-1 -1 $-1 $109 $109 $49 $81 forward $117 $-1 #
edge $118 -1 $-1 $115 -1.0707963267948961 $86 2.070796326794897 $49 $119 forward @7 unknown #
coedge $-1 -1 $-1 $111 $111 $50 $83 reversed $120 $-1 #
edge $121 -1 $-1 $114 -1.0707963267948961 $85 2.070796326794897 $50 $122 forward @7 unknown #
truecolor-adesk-attrib $-1 -1 $123 $-1 $52 -1056964608 #
vertex $-1 -1 $-1 $52 $124 #
vertex $-1 -1 $-1 $52 $125 #
straight-curve $-1 -1 $-1 -1045.925777042685 -975.82495116948644 758.11208719055003 1.8369701987210297e-16 1 0 F -2.5 F 2.5 #
truecolor-adesk-attrib $-1 -1 $126 $-1 $54 -1056964608 #
ellipse-curve $-1 -1 $-1 -1043.5286493496651 -963.32495116948644 762.5 1.8369701987210297e-16 1 0 87.000000000000014 -1.5981640728872962e-14 0 1 F 2.070796326795036 F 5.2123889803848291 #
truecolor-adesk-attrib $-1 -1 $127 $-1 $56 -1056964608 #
ellipse-curve $-1 -1 $-1 -1043.5286493496651 -978.32495116948644 762.5 1.8369701987210297e-16 1 0 87.000000000000014 -1.5981640728872962e-14 0 1 F 2.070796326795036 F 5.2123889803848291 #
DXID-attrib $-1 -1 $-1 $57 $34 @18 ASM_EDGE_FROM_STEP @5 13351 #
point $-1 -1 $-1 -1001.8186274910652 -978.32495116948644 838.8496828845 #
point $-1 -1 $-1 -1001.8186274910652 -963.32495116948644 838.8496828845 #
loop $-1 -1 $-1 $-1 $128 $72 #
DXID-attrib $-1 -1 $-1 $62 $36 @18 ASM_EDGE_FROM_STEP @5 13344 #
loop $-1 -1 $-1 $117 $129 $98 #
face $130 -1 $-1 $131 $64 $3 $-1 $132 reversed single #
DXID-attrib $-1 -1 $-1 $65 $38 @18 ASM_EDGE_FROM_STEP @5 13356 #
DXID-attrib $-1 -1 $-1 $71 $45 @18 ASM_FACE_FROM_STEP @16 stp-1M-143-13494 #
truecolor-adesk-attrib $-1 -1 $133 $-1 $72 -1056964608 #
face $134 -1 $-1 $135 $136 $3 $-1 $137 reversed single #
plane-surface $-1 -1 $-1 -1043.5286493496651 -963.32495116948644 849.5 1.8369701987210297e-16 1 0 1 -1.8369701987210297e-16 0 forward_v I I I I #
coedge $-1 -1 $-1 $138 $139 $140 $141 forward $73 $-1 #
coedge $-1 -1 $-1 $140 $75 $142 $143 reversed $46 $-1 #
coedge $-1 -1 $-1 $75 $140 $128 $144 forward $46 $-1 #
coedge $-1 -1 $-1 $139 $138 $75 $108 reversed $73 $-1 #
edge $145 -1 $-1 $146 -12.083045973619758 $147 12.083045973576107 $75 $148 reversed @7 unknown #
coedge $-1 -1 $-1 $80 $80 $76 $110 forward $117 $-1 #
edge $149 -1 $-1 $86 2.070796326794897 $115 5.2123889803846897 $76 $150 forward @7 unknown #
coedge $-1 -1 $-1 $82 $82 $77 $112 reversed $120 $-1 #
edge $151 -1 $-1 $85 2.070796326794897 $114 5.2123889803846897 $77 $152 forward @7 unknown #
truecolor-adesk-attrib $-1 -1 $153 $-1 $79 -1056964608 #
vertex $-1 -1 $-1 $79 $154 #
vertex $-1 -1 $-1 $81 $155 #
straight-curve $-1 -1 $-1 -1041.131521656645 -975.82495116948644 766.88791280944997 1.8369701987210297e-16 1 0 F -2.5 F 2.5 #
loop $-1 -1 $-1 $156 $109 $98 #
truecolor-adesk-attrib $-1 -1 $157 $-1 $81 -1056964608 #
ellipse-curve $-1 -1 $-1 -1043.5286493496651 -978.32495116948644 762.5 1.8369701987210297e-16 1 0 5 -9.1848509936051479e-16 0 1 F -1.0707963267948961 F 2.070796326794897 #
loop $-1 -1 $-1 $158 $82 $159 #
truecolor-adesk-attrib $-1 -1 $160 $-1 $83 -1056964608 #
ellipse-curve $-1 -1 $-1 -1043.5286493496651 -973.32495116948644 762.5 1.8369701987210297e-16 1 0 5 -9.1848509936051479e-16 0 1 F -1.0707963267948961 F 2.070796326794897 #
DXID-attrib $-1 -1 $-1 $84 $52 @18 ASM_EDGE_FROM_STEP @5 13394 #
point $-1 -1 $-1 -1045.925777042685 -973.32495116948644 758.11208719055003 #
point $-1 -1 $-1 -1045.925777042685 -978.32495116948644 758.11208719055003 #
DXID-attrib $-1 -1 $-1 $88 $54 @18 ASM_EDGE_FROM_STEP @5 13368 #
DXID-attrib $-1 -1 $-1 $90 $56 @18 ASM_EDGE_FROM_STEP @5 13373 #
coedge $-1 -1 $-1 $161 $161 $106 $144 reversed $95 $-1 #
coedge $-1 -1 $-1 $162 $162 $163 $164 forward $97 $-1 #
truecolor-adesk-attrib $-1 -1 $165 $-1 $98 -1056964608 #
face $166 -1 $-1 $167 $168 $3 $-1 $169 reversed single #
plane-surface $-1 -1 $-1 -1043.5286493496651 -978.32495116948644 849.5 1.8369701987210297e-16 1 0 1 -1.8369701987210297e-16 0 forward_v I I I I #
DXID-attrib $-1 -1 $-1 $101 $72 @18 ASM_FACE_FROM_STEP @16 stp-1M-143-13508 #
truecolor-adesk-attrib $-1 -1 $170 $-1 $102 -1056964608 #
face $171 -1 $-1 $159 $172 $3 $-1 $173 reversed single #
loop $-1 -1 $-1 $-1 $174 $102 #
cone-surface $-1 -1 $-1 -1080.5286493496651 -975.82495116948644 762.5 1.8369701987210297e-16 1 0 -4 7.3478807948841188e-16 0 1 I I 0 1 4 forward I I I I #
coedge $-1 -1 $-1 $107 $104 $175 $176 reversed $73 $-1 #
coedge $-1 -1 $-1 $104 $107 $161 $177 forward $73 $-1 #
coedge $-1 -1 $-1 $106 $105 $104 $141 reversed $46 $-1 #
edge $178 -1 $-1 $179 -12.083045973619758 $180 12.083045973576107 $140 $181 reversed @7 unknown #
coedge $-1 -1 $-1 $175 $175 $105 $143 forward $182 $-1 #
edge $183 -1 $-1 $180 -1.0707963267950387 $147 2.0707963267947544 $105 $184 forward @7 unknown #
edge $185 -1 $-1 $179 -1.0707963267949778 $146 2.0707963267948153 $106 $186 forward @7 unknown #
truecolor-adesk-attrib $-1 -1 $187 $-1 $108 -1056964608 #
vertex $-1 -1 $-1 $108 $188 #
vertex $-1 -1 $-1 $108 $189 #
straight-curve $-1 -1 $-1 -1070.376479511465 -968.32495116948644 713.35537653410006 -0.43645293878499997 0.41380294430100006 -0.79892174555100004 F -12.083045973576107 F 12.083045973619758 #
truecolor-adesk-attrib $-1 -1 $190 $-1 $110 -1056964608 #
ellipse-curve $-1 -1 $-1 -1043.5286493496651 -978.32495116948644 762.5 1.8369701987210297e-16 1 0 5 -9.1848509936051479e-16 0 1 F 2.070796326794897 F 5.2123889803846897 #
truecolor-adesk-attrib $-1 -1 $191 $-1 $112 -1056964608 #
ellipse-curve $-1 -1 $-1 -1043.5286493496651 -973.32495116948644 762.5 1.8369701987210297e-16 1 0 5 -9.1848509936051479e-16 0 1 F 2.070796326794897 F 5.2123889803846897 #
DXID-attrib $-1 -1 $-1 $113 $79 @18 ASM_EDGE_FROM_STEP @5 13408 #
point $-1 -1 $-1 -1041.131521656645 -973.32495116948644 766.88791280944997 #
point $-1 -1 $-1 -1041.131521656645 -978.32495116948644 766.88791280944997 #
loop $-1 -1 $-1 $192 $193 $98 #
DXID-attrib $-1 -1 $-1 $118 $81 @18 ASM_EDGE_FROM_STEP @5 13401 #
loop $-1 -1 $-1 $194 $195 $159 #
face $196 -1 $-1 $98 $182 $3 $-1 $197 forward single #
DXID-attrib $-1 -1 $-1 $121 $83 @18 ASM_EDGE_FROM_STEP @5 13413 #
coedge $-1 -1 $-1 $128 $128 $139 $177 reversed $95 $-1 #
coedge $-1 -1 $-1 $129 $129 $198 $199 forward $97 $-1 #
coedge $-1 -1 $-1 $200 $201 $129 $164 reversed $172 $-1 #
edge $202 -1 $-1 $203 -1.2246063538225008e-16 $204 3.1415926535897931 $163 $205 forward @7 unknown #
DXID-attrib $-1 -1 $-1 $130 $98 @18 ASM_FACE_FROM_STEP @16 stp-1M-143-13673 #
truecolor-adesk-attrib $-1 -1 $206 $-1 $131 -1056964608 #
face $207 -1 $-1 $208 $209 $3 $-1 $210 reversed single #
loop $-1 -1 $-1 $-1 $211 $131 #
cone-surface $-1 -1 $-1 -1025.0286493496651 -975.82495116948644 730.45706006 1.8369701987210297e-16 1 0 2.0000000000007603 -3.6739403974434562e-16 -3.4641016151373161 1 I I 0 1 4 forward I I I I #
DXID-attrib $-1 -1 $-1 $134 $102 @18 ASM_FACE_FROM_STEP @16 stp-1M-143-13548 #
truecolor-adesk-attrib $-1 -1 $212 $-1 $135 -1056964608 #
loop $-1 -1 $-1 $-1 $200 $135 #
cone-surface $-1 -1 $-1 -1080.5286493496651 -975.82495116948644 762.5 1.8369701987210297e-16 1 0 -4 7.3478807948841188e-16 0 1 I I 0 1 4 forward I I I I #
coedge $-1 -1 $-1 $213 $198 $201 $214 reversed $136 $-1 #
coedge $-1 -1 $-1 $142 $142 $138 $176 forward $182 $-1 #
edge $215 -1 $-1 $147 2.0707963267947544 $180 5.2123889803845476 $138 $216 forward @7 unknown #
edge $217 -1 $-1 $146 2.0707963267948153 $179 5.212388980384608 $139 $218 forward @7 unknown #
truecolor-adesk-attrib $-1 -1 $219 $-1 $141 -1056964608 #
vertex $-1 -1 $-1 $141 $220 #
vertex $-1 -1 $-1 $143 $221 #
straight-curve $-1 -1 $-1 -1016.6808191878652 -968.32495116948644 811.64462346589994 0.43645293878500008 0.41380294430099995 0.79892174555100004 F -12.083045973576107 F 12.083045973619758 #
loop $-1 -1 $-1 $222 $175 $159 #
truecolor-adesk-attrib $-1 -1 $223 $-1 $143 -1056964608 #
ellipse-curve $-1 -1 $-1 -1043.5286493496651 -973.32495116948644 762.5 1.8369701987210297e-16 1 0 45 -8.2663658942446335e-15 0 1 F -1.0707963267950387 F 2.0707963267947544 #
truecolor-adesk-attrib $-1 -1 $224 $-1 $144 -1056964608 #
ellipse-curve $-1 -1 $-1 -1043.5286493496651 -963.32495116948644 762.5 1.8369701987210297e-16 1 0 67 -1.2307700331430898e-14 0 1 F -1.0707963267949778 F 2.0707963267948153 #
DXID-attrib $-1 -1 $-1 $145 $108 @18 ASM_EDGE_FROM_STEP @5 13451 #
point $-1 -1 $-1 -1075.6501604361652 -963.32495116948644 703.7019683533 #
point $-1 -1 $-1 -1065.102798586865 -973.32495116948644 723.0087847149 #
DXID-attrib $-1 -1 $-1 $149 $110 @18 ASM_EDGE_FROM_STEP @5 13425 #
DXID-attrib $-1 -1 $-1 $151 $112 @18 ASM_EDGE_FROM_STEP @5 13430 #
loop $-1 -1 $-1 $-1 $225 $98 #
coedge $-1 -1 $-1 $226 $226 $227 $228 forward $156 $-1 #
loop $-1 -1 $-1 $-1 $229 $159 #
coedge $-1 -1 $-1 $230 $230 $231 $232 reversed $158 $-1 #
truecolor-adesk-attrib $-1 -1 $233 $-1 $159 -1056964608 #
plane-surface $-1 -1 $-1 -1043.5286493496651 -973.32495116948644 807.5 1.8369701987210297e-16 1 0 1 -1.8369701987210297e-16 0 forward_v I I I I #
coedge $-1 -1 $-1 $174 $234 $162 $199 reversed $136 $-1 #
edge $235 -1 $-1 $204 -3.1415926535897931 $203 -1.2246063538225008e-16 $198 $236 forward @7 unknown #
coedge $-1 -1 $-1 $237 $163 $234 $238 reversed $172 $-1 #
coedge $-1 -1 $-1 $163 $237 $174 $214 forward $172 $-1 #
truecolor-adesk-attrib $-1 -1 $239 $-1 $164 -1056964608 #
vertex $-1 -1 $-1 $238 $240 #
vertex $-1 -1 $-1 $214 $241 #
ellipse-curve $-1 -1 $-1 -1080.5286493496651 -978.32495116948644 762.5 1.8369701987210297e-16 1 0 4 -7.3478807948841188e-16 0 1 F -1.2246063538225008e-16 F 3.1415926535897931 #
DXID-attrib $-1 -1 $-1 $166 $131 @18 ASM_FACE_FROM_STEP @16 stp-1M-143-13695 #
truecolor-adesk-attrib $-1 -1 $242 $-1 $167 -1056964608 #
face $243 -1 $-1 $244 $245 $3 $-1 $246 reversed single #
loop $-1 -1 $-1 $-1 $247 $167 #
cone-surface $-1 -1 $-1 -1025.0286493496651 -975.82495116948644 730.45706006 1.8369701987210297e-16 1 0 2.0000000000007603 -3.6739403974434562e-16 -3.4641016151373161 1 I I 0 1 4 forward I I I I #
coedge $-1 -1 $-1 $248 $249 $250 $251 reversed $168 $-1 #
DXID-attrib $-1 -1 $-1 $171 $135 @18 ASM_FACE_FROM_STEP @16 stp-1M-143-13565 #
coedge $-1 -1 $-1 $234 $174 $252 $253 forward $136 $-1 #
edge $254 -1 $-1 $255 -2.5 $204 2.5 $174 $256 reversed @7 unknown #
truecolor-adesk-attrib $-1 -1 $257 $-1 $176 -1056964608 #
ellipse-curve $-1 -1 $-1 -1043.5286493496651 -973.32495116948644 762.5 1.8369701987210297e-16 1 0 45 -8.2663658942446335e-15 0 1 F 2.0707963267947544 F 5.2123889803845476 #
truecolor-adesk-attrib $-1 -1 $258 $-1 $177 -1056964608 #
ellipse-curve $-1 -1 $-1 -1043.5286493496651 -963.32495116948644 762.5 1.8369701987210297e-16 1 0 67 -1.2307700331430898e-14 0 1 F 2.0707963267948153 F 5.212388980384608 #
DXID-attrib $-1 -1 $-1 $178 $141 @18 ASM_EDGE_FROM_STEP @5 13465 #
point $-1 -1 $-1 -1011.4071382631651 -963.32495116948644 821.2980316467 #
point $-1 -1 $-1 -1021.9545001124651 -973.32495116948644 801.9912152851 #
loop $-1 -1 $-1 $120 $252 $159 #
DXID-attrib $-1 -1 $-1 $183 $143 @18 ASM_EDGE_FROM_STEP @5 13458 #
DXID-attrib $-1 -1 $-1 $185 $144 @18 ASM_EDGE_FROM_STEP @5 13470 #
coedge $-1 -1 $-1 $259 $259 $260 $261 forward $192 $-1 #
coedge $-1 -1 $-1 $193 $193 $262 $263 forward $156 $-1 #
coedge $-1 -1 $-1 $264 $265 $193 $228 reversed $266 $-1 #
edge $267 -1 $-1 $268 2.0943951023979146 $269 5.2359877559752084 $193 $270 forward @7 unknown #
coedge $-1 -1 $-1 $271 $271 $248 $272 reversed $194 $-1 #
coedge $-1 -1 $-1 $195 $195 $273 $274 reversed $158 $-1 #
coedge $-1 -1 $-1 $275 $276 $195 $232 forward $245 $-1 #
edge $277 -1 $-1 $278 -1.0471975512043776 $279 2.0943951023979146 $195 $280 forward @7 unknown #
DXID-attrib $-1 -1 $-1 $196 $159 @18 ASM_FACE_FROM_STEP @16 stp-1M-143-13619 #
coedge $-1 -1 $-1 $198 $213 $200 $238 forward $136 $-1 #
truecolor-adesk-attrib $-1 -1 $281 $-1 $199 -1056964608 #
ellipse-curve $-1 -1 $-1 -1080.5286493496651 -978.32495116948644 762.5 1.8369701987210297e-16 1 0 4 -7.3478807948841188e-16 0 1 F -3.1415926535897931 F -1.2246063538225008e-16 #
coedge $-1 -1 $-1 $201 $200 $282 $283 forward $172 $-1 #
edge $284 -1 $-1 $285 -2.5 $203 2.5 $234 $286 reversed @7 unknown #
DXID-attrib $-1 -1 $-1 $202 $164 @18 ASM_EDGE_FROM_STEP @5 13558 #
point $-1 -1 $-1 -1076.5286493496651 -978.32495116948644 762.5 #
point $-1 -1 $-1 -1084.5286493496651 -978.32495116948644 762.5 #
DXID-attrib $-1 -1 $-1 $207 $167 @18 ASM_FACE_FROM_STEP @16 stp-1M-143-13702 #
truecolor-adesk-attrib $-1 -1 $287 $-1 $208 -1056964608 #
face $288 -1 $-1 $-1 $266 $3 $-1 $289 reversed single #
loop $-1 -1 $-1 $-1 $276 $208 #
cone-surface $-1 -1 $-1 -1025.0286493496651 -975.82495116948644 794.54293994 1.8369701987210297e-16 1 0 2.0000000000007603 -3.6739403974434562e-16 3.4641016151373161 1 I I 0 1 4 forward I I I I #
coedge $-1 -1 $-1 $290 $260 $291 $292 reversed $209 $-1 #
coedge $-1 -1 $-1 $291 $211 $229 $272 forward $168 $-1 #
coedge $-1 -1 $-1 $211 $291 $259 $293 reversed $168 $-1 #
coedge $-1 -1 $-1 $260 $290 $211 $251 forward $209 $-1 #
edge $294 -1 $-1 $295 -2.5 $296 2.5 $211 $297 reversed @7 unknown #
coedge $-1 -1 $-1 $282 $282 $213 $253 reversed $222 $-1 #
edge $298 -1 $-1 $255 -3.1415926535897931 $285 -1.2246063538225008e-16 $213 $299 forward @7 unknown #
truecolor-adesk-attrib $-1 -1 $300 $-1 $214 -1056964608 #
vertex $-1 -1 $-1 $214 $301 #
straight-curve $-1 -1 $-1 -1084.5286493496651 -975.82495116948644 762.5 1.8369701987210297e-16 1 0 F -2.5 F 2.5 #
DXID-attrib $-1 -1 $-1 $215 $176 @18 ASM_EDGE_FROM_STEP @5 13482 #
DXID-attrib $-1 -1 $-1 $217 $177 @18 ASM_EDGE_FROM_STEP @5 13487 #
coedge $-1 -1 $-1 $225 $225 $249 $293 forward $192 $-1 #
coedge $-1 -1 $-1 $247 $250 $225 $261 reversed $209 $-1 #
edge $302 -1 $-1 $303 -2.0943951023979146 $296 1.0471975512043776 $225 $304 forward @7 unknown #
coedge $-1 -1 $-1 $276 $275 $226 $263 reversed $245 $-1 #
edge $305 -1 $-1 $269 -1.0471975512043776 $268 2.0943951023979146 $226 $306 forward @7 unknown #
coedge $-1 -1 $-1 $273 $227 $275 $307 reversed $266 $-1 #
coedge $-1 -1 $-1 $227 $273 $276 $308 forward $266 $-1 #
loop $-1 -1 $-1 $-1 $264 $244 #
truecolor-adesk-attrib $-1 -1 $309 $-1 $228 -1056964608 #
vertex $-1 -1 $-1 $228 $310 #
vertex $-1 -1 $-1 $228 $311 #
ellipse-curve $-1 -1 $-1 -1025.0286493496651 -978.32495116948644 794.54293994 1.8369701987210297e-16 1 0 4 -7.3478807948841188e-16 0 1 F 2.0943951023979146 F 5.2359877559752084 #
coedge $-1 -1 $-1 $229 $229 $290 $312 reversed $194 $-1 #
edge $313 -1 $-1 $295 1.0471975512043776 $314 4.1887902047816716 $229 $315 forward @7 unknown #
coedge $-1 -1 $-1 $265 $264 $230 $274 forward $266 $-1 #
edge $316 -1 $-1 $279 2.0943951023979146 $278 5.2359877559752084 $230 $317 forward @7 unknown #
coedge $-1 -1 $-1 $262 $231 $264 $307 forward $245 $-1 #
coedge $-1 -1 $-1 $231 $262 $265 $308 reversed $245 $-1 #
truecolor-adesk-attrib $-1 -1 $318 $-1 $232 -1056964608 #
vertex $-1 -1 $-1 $232 $319 #
vertex $-1 -1 $-1 $232 $320 #
ellipse-curve $-1 -1 $-1 -1025.0286493496651 -973.32495116948644 794.54293994 1.8369701987210297e-16 1 0 4 -7.3478807948841188e-16 0 1 F -1.0471975512043776 F 2.0943951023979146 #
DXID-attrib $-1 -1 $-1 $235 $199 @18 ASM_EDGE_FROM_STEP @5 13541 #
coedge $-1 -1 $-1 $252 $252 $237 $283 reversed $222 $-1 #
edge $321 -1 $-1 $285 -1.2246063538225008e-16 $255 3.1415926535897931 $237 $322 forward @7 unknown #
truecolor-adesk-attrib $-1 -1 $323 $-1 $238 -1056964608 #
vertex $-1 -1 $-1 $253 $324 #
straight-curve $-1 -1 $-1 -1076.5286493496651 -975.82495116948644 762.5 1.8369701987210297e-16 1 0 F -2.5 F 2.5 #
DXID-attrib $-1 -1 $-1 $243 $208 @18 ASM_FACE_FROM_STEP @16 stp-1M-143-13724 #
truecolor-adesk-attrib $-1 -1 $325 $-1 $244 -1056964608 #
cone-surface $-1 -1 $-1 -1025.0286493496651 -975.82495116948644 794.54293994 1.8369701987210297e-16 1 0 2.0000000000007603 -3.6739403974434562e-16 3.4641016151373161 1 I I 0 1 4 forward I I I I #
coedge $-1 -1 $-1 $250 $247 $271 $312 forward $209 $-1 #
coedge $-1 -1 $-1 $249 $248 $247 $292 forward $168 $-1 #
edge $326 -1 $-1 $314 -2.5 $303 2.5 $291 $327 reversed @7 unknown #
edge $328 -1 $-1 $296 1.0471975512043776 $303 4.1887902047816716 $259 $329 forward @7 unknown #
truecolor-adesk-attrib $-1 -1 $330 $-1 $251 -1056964608 #
vertex $-1 -1 $-1 $272 $331 #
vertex $-1 -1 $-1 $261 $332 #
straight-curve $-1 -1 $-1 -1023.0286493496651 -975.82495116948644 726.99295844480002 1.8369701987210297e-16 1 0 F -2.5 F 2.5 #
truecolor-adesk-attrib $-1 -1 $333 $-1 $253 -1056964608 #
ellipse-curve $-1 -1 $-1 -1080.5286493496651 -973.32495116948644 762.5 1.8369701987210297e-16 1 0 4 -7.3478807948841188e-16 0 1 F -3.1415926535897931 F -1.2246063538225008e-16 #
DXID-attrib $-1 -1 $-1 $254 $214 @18 ASM_EDGE_FROM_STEP @5 13522 #
point $-1 -1 $-1 -1084.5286493496651 -973.32495116948644 762.5 #
truecolor-adesk-attrib $-1 -1 $334 $-1 $261 -1056964608 #
vertex $-1 -1 $-1 $261 $335 #
ellipse-curve $-1 -1 $-1 -1025.0286493496651 -978.32495116948644 730.45706006 1.8369701987210297e-16 1 0 4 -7.3478807948841188e-16 0 1 F -2.0943951023979146 F 1.0471975512043776 #
truecolor-adesk-attrib $-1 -1 $336 $-1 $263 -1056964608 #
ellipse-curve $-1 -1 $-1 -1025.0286493496651 -978.32495116948644 794.54293994 1.8369701987210297e-16 1 0 4 -7.3478807948841188e-16 0 1 F -1.0471975512043776 F 2.0943951023979146 #
edge $337 -1 $-1 $279 -2.5 $268 2.5 $275 $338 reversed @7 unknown #
edge $339 -1 $-1 $278 -2.5 $269 2.5 $276 $340 reversed @7 unknown #
DXID-attrib $-1 -1 $-1 $267 $228 @18 ASM_EDGE_FROM_STEP @5 13645 #
point $-1 -1 $-1 -1027.0286493496651 -978.32495116948644 791.07883832489995 #
point $-1 -1 $-1 -1023.0286493496651 -978.32495116948644 798.00704155519998 #
edge $341 -1 $-1 $314 -2.0943951023979146 $295 1.0471975512043776 $271 $342 forward @7 unknown #
truecolor-adesk-attrib $-1 -1 $343 $-1 $272 -1056964608 #
vertex $-1 -1 $-1 $272 $344 #
ellipse-curve $-1 -1 $-1 -1025.0286493496651 -973.32495116948644 730.45706006 1.8369701987210297e-16 1 0 4 -7.3478807948841188e-16 0 1 F 1.0471975512043776 F 4.1887902047816716 #
truecolor-adesk-attrib $-1 -1 $345 $-1 $274 -1056964608 #
ellipse-curve $-1 -1 $-1 -1025.0286493496651 -973.32495116948644 794.54293994 1.8369701987210297e-16 1 0 4 -7.3478807948841188e-16 0 1 F 2.0943951023979146 F 5.2359877559752084 #
DXID-attrib $-1 -1 $-1 $277 $232 @18 ASM_EDGE_FROM_STEP @5 13591 #
point $-1 -1 $-1 -1023.0286493496651 -973.32495116948644 798.00704155519998 #
point $-1 -1 $-1 -1027.0286493496651 -973.32495116948644 791.07883832489995 #
truecolor-adesk-attrib $-1 -1 $346 $-1 $283 -1056964608 #
ellipse-curve $-1 -1 $-1 -1080.5286493496651 -973.32495116948644 762.5 1.8369701987210297e-16 1 0 4 -7.3478807948841188e-16 0 1 F -1.2246063538225008e-16 F 3.1415926535897931 #
DXID-attrib $-1 -1 $-1 $284 $238 @18 ASM_EDGE_FROM_STEP @5 13536 #
point $-1 -1 $-1 -1076.5286493496651 -973.32495116948644 762.5 #
DXID-attrib $-1 -1 $-1 $288 $244 @18 ASM_FACE_FROM_STEP @16 stp-1M-143-13731 #
truecolor-adesk-attrib $-1 -1 $347 $-1 $292 -1056964608 #
straight-curve $-1 -1 $-1 -1027.0286493496651 -975.82495116948644 733.92116167510005 1.8369701987210297e-16 1 0 F -2.5 F 2.5 #
truecolor-adesk-attrib $-1 -1 $348 $-1 $293 -1056964608 #
ellipse-curve $-1 -1 $-1 -1025.0286493496651 -978.32495116948644 730.45706006 1.8369701987210297e-16 1 0 4 -7.3478807948841188e-16 0 1 F 1.0471975512043776 F 4.1887902047816716 #
DXID-attrib $-1 -1 $-1 $294 $251 @18 ASM_EDGE_FROM_STEP @5 13683 #
point $-1 -1 $-1 -1023.0286493496651 -973.32495116948644 726.99295844480002 #
point $-1 -1 $-1 -1023.0286493496651 -978.32495116948644 726.99295844480002 #
DXID-attrib $-1 -1 $-1 $298 $253 @18 ASM_EDGE_FROM_STEP @5 13529 #
DXID-attrib $-1 -1 $-1 $302 $261 @18 ASM_EDGE_FROM_STEP @5 13663 #
point $-1 -1 $-1 -1027.0286493496651 -978.32495116948644 733.92116167510005 #
DXID-attrib $-1 -1 $-1 $305 $263 @18 ASM_EDGE_FROM_STEP @5 13650 #
truecolor-adesk-attrib $-1 -1 $349 $-1 $307 -1056964608 #
straight-curve $-1 -1 $-1 -1027.0286493496651 -975.82495116948644 791.07883832489995 1.8369701987210297e-16 1 0 F -2.5 F 2.5 #
truecolor-adesk-attrib $-1 -1 $350 $-1 $308 -1056964608 #
straight-curve $-1 -1 $-1 -1023.0286493496651 -975.82495116948644 798.00704155519998 1.8369701987210297e-16 1 0 F -2.5 F 2.5 #
truecolor-adesk-attrib $-1 -1 $351 $-1 $312 -1056964608 #
ellipse-curve $-1 -1 $-1 -1025.0286493496651 -973.32495116948644 730.45706006 1.8369701987210297e-16 1 0 4 -7.3478807948841188e-16 0 1 F -2.0943951023979146 F 1.0471975512043776 #
DXID-attrib $-1 -1 $-1 $313 $272 @18 ASM_EDGE_FROM_STEP @5 13609 #
point $-1 -1 $-1 -1027.0286493496651 -973.32495116948644 733.92116167510005 #
DXID-attrib $-1 -1 $-1 $316 $274 @18 ASM_EDGE_FROM_STEP @5 13596 #
DXID-attrib $-1 -1 $-1 $321 $283 @18 ASM_EDGE_FROM_STEP @5 13553 #
DXID-attrib $-1 -1 $-1 $326 $292 @18 ASM_EDGE_FROM_STEP @5 13688 #
DXID-attrib $-1 -1 $-1 $328 $293 @18 ASM_EDGE_FROM_STEP @5 13668 #
DXID-attrib $-1 -1 $-1 $337 $307 @18 ASM_EDGE_FROM_STEP @5 13717 #
DXID-attrib $-1 -1 $-1 $339 $308 @18 ASM_EDGE_FROM_STEP @5 13712 #
DXID-attrib $-1 -1 $-1 $341 $312 @18 ASM_EDGE_FROM_STEP @5 13614 #
