700 604 1 0         
5 ZWCAD 12 ACIS 28.0 NT 24 Sat May 11 15:55:36 2024 
1 9.9999999999999995e-07 1e-10 
body $1 -1 $-1 $2 $-1 $-1 #
DXID-attrib $-1 -1 $-1 $-1 $0 @18 ASM_BODY_FROM_STEP @83 33B68B6C023AFAA3CB87FF9BC6E59E7F4FD66B8A|:|87EBE0841B32EDB46DD2E8C8D2D93524AB4E5A54 #
lump $-1 -1 $-1 $-1 $3 $0 #
shell $-1 -1 $-1 $-1 $-1 $4 $-1 $2 #
face $5 -1 $-1 $6 $7 $3 $-1 $8 reversed single #
truecolor-adesk-attrib $-1 -1 $9 $-1 $4 -1056964608 #
face $10 -1 $-1 $11 $12 $3 $-1 $13 reversed single #
loop $-1 -1 $-1 $-1 $14 $4 #
cone-surface $-1 -1 $-1 1420.8890216305856 -1352.535946298849 951.31542968799999 1 0 0 0 15 0 1 I I 0 1 15 forward I I I I #
DXID-attrib $-1 -1 $-1 $5 $4 @18 ASM_FACE_FROM_STEP @16 stp-1M-143-19295 #
truecolor-adesk-attrib $-1 -1 $15 $-1 $6 -1056964608 #
face $16 -1 $-1 $17 $18 $3 $-1 $19 reversed single #
loop $-1 -1 $-1 $-1 $20 $6 #
cone-surface $-1 -1 $-1 1420.8890216305856 -1352.535946298849 951.31542968799999 1 0 0 0 15 0 1 I I 0 1 15 forward I I I I #
coedge $-1 -1 $-1 $21 $22 $23 $24 forward $7 $-1 #
DXID-attrib $-1 -1 $-1 $10 $6 @18 ASM_FACE_FROM_STEP @16 stp-1M-143-19312 #
truecolor-adesk-attrib $-1 -1 $25 $-1 $11 -1056964608 #
face $26 -1 $-1 $27 $28 $3 $-1 $29 reversed single #
loop $-1 -1 $-1 $-1 $30 $11 #
cone-surface $-1 -1 $-1 1420.8890216305856 -1352.535946298849 672.31542968799999 1 0 0 0 15 0 1 I I 0 1 15 forward I I I I #
coedge $-1 -1 $-1 $31 $32 $33 $34 forward $12 $-1 #
coedge $-1 -1 $-1 $35 $14 $32 $36 reversed $7 $-1 #
coedge $-1 -1 $-1 $14 $35 $31 $37 forward $7 $-1 #
coedge $-1 -1 $-1 $33 $33 $14 $24 reversed $38 $-1 #
edge $39 -1 $-1 $40 0 $41 3.1415926535897931 $14 $42 forward @7 unknown #
DXID-attrib $-1 -1 $-1 $16 $11 @18 ASM_FACE_FROM_STEP @16 stp-1M-143-19347 #
truecolor-adesk-attrib $-1 -1 $43 $-1 $17 -1056964608 #
face $44 -1 $-1 $45 $46 $3 $-1 $47 forward single #
loop $-1 -1 $-1 $-1 $48 $17 #
cone-surface $-1 -1 $-1 1420.8890216305856 -1352.535946298849 672.31542968799999 1 0 0 0 15 0 1 I I 0 1 15 forward I I I I #
coedge $-1 -1 $-1 $49 $50 $51 $52 forward $18 $-1 #
coedge $-1 -1 $-1 $53 $20 $22 $37 reversed $12 $-1 #
coedge $-1 -1 $-1 $20 $53 $21 $36 forward $12 $-1 #
coedge $-1 -1 $-1 $23 $23 $20 $34 reversed $38 $-1 #
edge $54 -1 $-1 $41 -3.1415926535897931 $40 0 $20 $55 forward @7 unknown #
coedge $-1 -1 $-1 $22 $21 $56 $57 reversed $7 $-1 #
edge $58 -1 $-1 $59 155 $41 190 $21 $60 forward @7 unknown #
edge $61 -1 $-1 $62 155 $40 190 $22 $63 forward @7 unknown #
loop $-1 -1 $-1 $-1 $23 $64 #
truecolor-adesk-attrib $-1 -1 $65 $-1 $24 -1056964608 #
vertex $-1 -1 $-1 $24 $66 #
vertex $-1 -1 $-1 $24 $67 #
ellipse-curve $-1 -1 $-1 1438.3890216305856 -1352.535946298849 951.31542968799999 1 0 0 0 -15 0 1 F 0 F 3.1415926535897931 #
DXID-attrib $-1 -1 $-1 $26 $17 @18 ASM_FACE_FROM_STEP @16 stp-1M-143-19364 #
truecolor-adesk-attrib $-1 -1 $68 $-1 $27 -1056964608 #
face $69 -1 $-1 $70 $71 $3 $-1 $72 reversed single #
loop $-1 -1 $-1 $73 $74 $27 #
plane-surface $-1 -1 $-1 1403.3890216305856 -1315.035946298849 991.31542968799999 1 0 0 0 -1 0 forward_v I I I I #
coedge $-1 -1 $-1 $75 $76 $77 $78 forward $28 $-1 #
coedge $-1 -1 $-1 $79 $30 $76 $80 reversed $18 $-1 #
coedge $-1 -1 $-1 $30 $79 $75 $81 forward $18 $-1 #
coedge $-1 -1 $-1 $77 $77 $30 $52 reversed $82 $-1 #
edge $83 -1 $-1 $84 0 $85 3.1415926535897931 $30 $86 forward @7 unknown #
coedge $-1 -1 $-1 $32 $31 $87 $88 reversed $12 $-1 #
truecolor-adesk-attrib $-1 -1 $89 $-1 $34 -1056964608 #
ellipse-curve $-1 -1 $-1 1438.3890216305856 -1352.535946298849 951.31542968799999 1 0 0 0 -15 0 1 F -3.1415926535897931 F 0 #
coedge $-1 -1 $-1 $87 $87 $35 $57 forward $90 $-1 #
edge $91 -1 $-1 $62 0 $59 3.1415926535897931 $35 $92 forward @7 unknown #
truecolor-adesk-attrib $-1 -1 $93 $-1 $36 -1056964608 #
vertex $-1 -1 $-1 $36 $94 #
straight-curve $-1 -1 $-1 1248.3890216305856 -1337.535946298849 951.31542968799999 1 0 0 F 155 F 190 #
truecolor-adesk-attrib $-1 -1 $95 $-1 $37 -1056964608 #
vertex $-1 -1 $-1 $57 $96 #
straight-curve $-1 -1 $-1 1248.3890216305856 -1367.535946298849 951.31542968799999 1 0 0 F 155 F 190 #
face $97 -1 $-1 $98 $99 $3 $-1 $100 forward single #
DXID-attrib $-1 -1 $-1 $39 $24 @18 ASM_EDGE_FROM_STEP @5 19269 #
point $-1 -1 $-1 1438.3890216305856 -1367.535946298849 951.31542968799999 #
point $-1 -1 $-1 1438.3890216305856 -1337.535946298849 951.31542968799999 #
DXID-attrib $-1 -1 $-1 $44 $27 @18 ASM_FACE_FROM_STEP @16 stp-1M-143-19440 #
truecolor-adesk-attrib $-1 -1 $101 $-1 $45 -1056964608 #
face $102 -1 $-1 $103 $104 $3 $-1 $105 forward single #
loop $-1 -1 $-1 $-1 $106 $45 #
plane-surface $-1 -1 $-1 1248.3890216305856 -1770.1359462988489 632.31542968799999 0 0 1 1 0 0 forward_v I I I I #
loop $-1 -1 $-1 $107 $108 $27 #
coedge $-1 -1 $-1 $109 $110 $111 $112 reversed $46 $-1 #
coedge $-1 -1 $-1 $113 $48 $50 $81 reversed $28 $-1 #
coedge $-1 -1 $-1 $48 $113 $49 $80 forward $28 $-1 #
coedge $-1 -1 $-1 $51 $51 $48 $78 reversed $82 $-1 #
edge $114 -1 $-1 $85 -3.1415926535897931 $84 0 $48 $115 forward @7 unknown #
coedge $-1 -1 $-1 $50 $49 $116 $117 reversed $18 $-1 #
edge $118 -1 $-1 $119 155 $85 190 $49 $120 forward @7 unknown #
edge $121 -1 $-1 $122 155 $84 190 $50 $123 forward @7 unknown #
loop $-1 -1 $-1 $-1 $51 $124 #
truecolor-adesk-attrib $-1 -1 $125 $-1 $52 -1056964608 #
vertex $-1 -1 $-1 $52 $126 #
vertex $-1 -1 $-1 $52 $127 #
ellipse-curve $-1 -1 $-1 1438.3890216305856 -1352.535946298849 672.31542968799999 1 0 0 0 -15 0 1 F 0 F 3.1415926535897931 #
coedge $-1 -1 $-1 $56 $56 $53 $88 forward $90 $-1 #
edge $128 -1 $-1 $59 -3.1415926535897931 $62 0 $53 $129 forward @7 unknown #
DXID-attrib $-1 -1 $-1 $54 $34 @18 ASM_EDGE_FROM_STEP @5 19300 #
loop $-1 -1 $-1 $130 $87 $131 #
truecolor-adesk-attrib $-1 -1 $132 $-1 $57 -1056964608 #
ellipse-curve $-1 -1 $-1 1403.3890216305856 -1352.535946298849 951.31542968799999 1 0 0 0 -15 0 1 F 0 F 3.1415926535897931 #
DXID-attrib $-1 -1 $-1 $58 $36 @18 ASM_EDGE_FROM_STEP @5 19276 #
point $-1 -1 $-1 1403.3890216305856 -1337.535946298849 951.31542968799999 #
DXID-attrib $-1 -1 $-1 $61 $37 @18 ASM_EDGE_FROM_STEP @5 19288 #
point $-1 -1 $-1 1403.3890216305856 -1367.535946298849 951.31542968799999 #
truecolor-adesk-attrib $-1 -1 $133 $-1 $64 -1056964608 #
face $134 -1 $-1 $135 $136 $3 $-1 $137 forward single #
loop $-1 -1 $-1 $38 $138 $64 #
plane-surface $-1 -1 $-1 1438.3890216305856 -1770.1359462988489 631.31542968799999 1 0 0 0 1 0 forward_v I I I I #
DXID-attrib $-1 -1 $-1 $69 $45 @18 ASM_FACE_FROM_STEP @16 stp-1M-143-19482 #
truecolor-adesk-attrib $-1 -1 $139 $-1 $70 -1056964608 #
face $140 -1 $-1 $141 $142 $3 $-1 $143 reversed single #
loop $-1 -1 $-1 $-1 $144 $70 #
plane-surface $-1 -1 $-1 1248.3890216305856 -1770.1359462988489 991.31542968799999 0 0 1 0 1 0 forward_v I I I I #
coedge $-1 -1 $-1 $145 $146 $147 $148 reversed $71 $-1 #
loop $-1 -1 $-1 $-1 $149 $27 #
coedge $-1 -1 $-1 $150 $150 $151 $152 reversed $73 $-1 #
coedge $-1 -1 $-1 $153 $74 $154 $155 forward $46 $-1 #
coedge $-1 -1 $-1 $74 $153 $156 $157 reversed $46 $-1 #
coedge $-1 -1 $-1 $158 $159 $74 $112 forward $160 $-1 #
edge $161 -1 $-1 $162 -179.49999999999997 $163 179.49999999999997 $74 $164 forward @7 unknown #
coedge $-1 -1 $-1 $76 $75 $165 $166 reversed $28 $-1 #
truecolor-adesk-attrib $-1 -1 $167 $-1 $78 -1056964608 #
ellipse-curve $-1 -1 $-1 1438.3890216305856 -1352.535946298849 672.31542968799999 1 0 0 0 -15 0 1 F -3.1415926535897931 F 0 #
coedge $-1 -1 $-1 $165 $165 $79 $117 forward $168 $-1 #
edge $169 -1 $-1 $122 0 $119 3.1415926535897931 $79 $170 forward @7 unknown #
truecolor-adesk-attrib $-1 -1 $171 $-1 $80 -1056964608 #
vertex $-1 -1 $-1 $80 $172 #
straight-curve $-1 -1 $-1 1248.3890216305856 -1337.535946298849 672.31542968799999 1 0 0 F 155 F 190 #
truecolor-adesk-attrib $-1 -1 $173 $-1 $81 -1056964608 #
vertex $-1 -1 $-1 $117 $174 #
straight-curve $-1 -1 $-1 1248.3890216305856 -1367.535946298849 672.31542968799999 1 0 0 F 155 F 190 #
face $175 -1 $-1 $176 $177 $3 $-1 $178 forward single #
DXID-attrib $-1 -1 $-1 $83 $52 @18 ASM_EDGE_FROM_STEP @5 19321 #
point $-1 -1 $-1 1438.3890216305856 -1367.535946298849 672.31542968799999 #
point $-1 -1 $-1 1438.3890216305856 -1337.535946298849 672.31542968799999 #
truecolor-adesk-attrib $-1 -1 $179 $-1 $88 -1056964608 #
ellipse-curve $-1 -1 $-1 1403.3890216305856 -1352.535946298849 951.31542968799999 1 0 0 0 -15 0 1 F -3.1415926535897931 F 0 #
loop $-1 -1 $-1 $-1 $180 $131 #
face $181 -1 $-1 $182 $90 $3 $-1 $183 forward single #
DXID-attrib $-1 -1 $-1 $91 $57 @18 ASM_EDGE_FROM_STEP @5 19283 #
DXID-attrib $-1 -1 $-1 $97 $64 @18 ASM_FACE_FROM_STEP @16 stp-1M-143-19785 #
truecolor-adesk-attrib $-1 -1 $184 $-1 $98 -1056964608 #
face $185 -1 $-1 $186 $187 $3 $-1 $188 forward single #
loop $-1 -1 $-1 $-1 $189 $98 #
cone-surface $-1 -1 $-1 1467.3890216305847 -1352.535946298849 951.31542968799999 -1 0 0 0 -0.93173812946455659 0.36313091041921686 1 I I 0.70710678118623049 0.70710678118686454 1 forward I I I I #
coedge $-1 -1 $-1 $190 $190 $191 $192 forward $99 $-1 #
DXID-attrib $-1 -1 $-1 $102 $70 @18 ASM_FACE_FROM_STEP @16 stp-1M-143-19524 #
truecolor-adesk-attrib $-1 -1 $193 $-1 $103 -1056964608 #
face $194 -1 $-1 $195 $196 $3 $-1 $197 forward single #
loop $-1 -1 $-1 $-1 $147 $103 #
plane-surface $-1 -1 $-1 1328.3890216305856 -1385.035946298849 991.31542968799999 1 0 0 0 -1 0 forward_v I I I I #
coedge $-1 -1 $-1 $154 $198 $199 $200 reversed $104 $-1 #
coedge $-1 -1 $-1 $201 $106 $202 $203 reversed $71 $-1 #
coedge $-1 -1 $-1 $106 $156 $204 $205 forward $71 $-1 #
coedge $-1 -1 $-1 $206 $207 $106 $148 forward $142 $-1 #
edge $208 -1 $-1 $209 -2.5 $210 2.5 $106 $211 forward @7 unknown #
coedge $-1 -1 $-1 $212 $212 $213 $214 reversed $107 $-1 #
coedge $-1 -1 $-1 $108 $108 $215 $216 reversed $73 $-1 #
coedge $-1 -1 $-1 $217 $218 $108 $152 forward $219 $-1 #
edge $220 -1 $-1 $221 -3.1415926535897931 $222 0 $108 $223 forward @7 unknown #
coedge $-1 -1 $-1 $110 $109 $224 $225 forward $46 $-1 #
coedge $-1 -1 $-1 $226 $144 $109 $155 reversed $104 $-1 #
edge $227 -1 $-1 $162 -37.5 $228 37.5 $109 $229 forward @7 unknown #
coedge $-1 -1 $-1 $146 $230 $110 $157 forward $71 $-1 #
edge $231 -1 $-1 $163 -37.5 $232 37.5 $110 $233 forward @7 unknown #
coedge $-1 -1 $-1 $234 $111 $230 $235 forward $160 $-1 #
coedge $-1 -1 $-1 $111 $234 $226 $236 reversed $160 $-1 #
loop $-1 -1 $-1 $-1 $158 $195 #
truecolor-adesk-attrib $-1 -1 $237 $-1 $112 -1056964608 #
vertex $-1 -1 $-1 $112 $238 #
vertex $-1 -1 $-1 $112 $239 #
straight-curve $-1 -1 $-1 1403.3890216305856 -1315.035946298849 811.81542968799999 0 0 -1 F -179.49999999999997 F 179.49999999999997 #
coedge $-1 -1 $-1 $116 $116 $113 $166 forward $168 $-1 #
edge $240 -1 $-1 $119 -3.1415926535897931 $122 0 $113 $241 forward @7 unknown #
DXID-attrib $-1 -1 $-1 $114 $78 @18 ASM_EDGE_FROM_STEP @5 19352 #
loop $-1 -1 $-1 $242 $165 $243 #
truecolor-adesk-attrib $-1 -1 $244 $-1 $117 -1056964608 #
ellipse-curve $-1 -1 $-1 1403.3890216305856 -1352.535946298849 672.31542968799999 1 0 0 0 -15 0 1 F 0 F 3.1415926535897931 #
DXID-attrib $-1 -1 $-1 $118 $80 @18 ASM_EDGE_FROM_STEP @5 19328 #
point $-1 -1 $-1 1403.3890216305856 -1337.535946298849 672.31542968799999 #
DXID-attrib $-1 -1 $-1 $121 $81 @18 ASM_EDGE_FROM_STEP @5 19340 #
point $-1 -1 $-1 1403.3890216305856 -1367.535946298849 672.31542968799999 #
truecolor-adesk-attrib $-1 -1 $245 $-1 $124 -1056964608 #
face $246 -1 $-1 $247 $248 $3 $-1 $249 forward single #
loop $-1 -1 $-1 $82 $250 $124 #
plane-surface $-1 -1 $-1 1438.3890216305856 -1770.1359462988489 631.31542968799999 1 0 0 0 1 0 forward_v I I I I #
DXID-attrib $-1 -1 $-1 $128 $88 @18 ASM_EDGE_FROM_STEP @5 19305 #
coedge $-1 -1 $-1 $251 $251 $252 $253 reversed $130 $-1 #
truecolor-adesk-attrib $-1 -1 $254 $-1 $131 -1056964608 #
face $255 -1 $-1 $256 $257 $3 $-1 $258 reversed single #
plane-surface $-1 -1 $-1 1403.3890216305856 -1315.035946298849 991.31542968799999 1 0 0 0 -1 0 forward_v I I I I #
DXID-attrib $-1 -1 $-1 $134 $98 @18 ASM_FACE_FROM_STEP @16 stp-1M-143-19807 #
truecolor-adesk-attrib $-1 -1 $259 $-1 $135 -1056964608 #
face $260 -1 $-1 $261 $262 $3 $-1 $263 forward single #
loop $-1 -1 $-1 $-1 $264 $135 #
cone-surface $-1 -1 $-1 1467.3890216305847 -1352.535946298849 951.31542968799999 -1 0 0 0 1 0 1 I I 0.70710678118623049 0.70710678118686454 1 forward I I I I #
coedge $-1 -1 $-1 $265 $191 $266 $267 forward $136 $-1 #
coedge $-1 -1 $-1 $138 $138 $268 $269 forward $99 $-1 #
coedge $-1 -1 $-1 $189 $270 $138 $192 reversed $136 $-1 #
edge $271 -1 $-1 $272 -6.1772216971197239e-11 $273 3.1415926535897931 $138 $274 forward @7 unknown #
DXID-attrib $-1 -1 $-1 $140 $103 @18 ASM_FACE_FROM_STEP @16 stp-1M-143-19546 #
truecolor-adesk-attrib $-1 -1 $275 $-1 $141 -1056964608 #
face $276 -1 $-1 $277 $160 $3 $-1 $278 reversed single #
loop $-1 -1 $-1 $-1 $202 $141 #
plane-surface $-1 -1 $-1 1098.3890216305856 -1385.035946298849 991.31542968799999 0 1 0 1 0 0 forward_v I I I I #
coedge $-1 -1 $-1 $144 $279 $280 $281 forward $104 $-1 #
coedge $-1 -1 $-1 $282 $224 $144 $200 forward $283 $-1 #
edge $284 -1 $-1 $228 -37.5 $285 37.5 $144 $286 forward @7 unknown #
coedge $-1 -1 $-1 $230 $145 $287 $288 reversed $71 $-1 #
coedge $-1 -1 $-1 $289 $290 $145 $203 forward $196 $-1 #
edge $291 -1 $-1 $292 -35 $209 35 $145 $293 forward @7 unknown #
coedge $-1 -1 $-1 $224 $282 $146 $205 reversed $283 $-1 #
edge $294 -1 $-1 $232 -37.5 $210 37.5 $146 $295 forward @7 unknown #
coedge $-1 -1 $-1 $280 $147 $282 $296 reversed $142 $-1 #
coedge $-1 -1 $-1 $147 $280 $289 $297 forward $142 $-1 #
truecolor-adesk-attrib $-1 -1 $298 $-1 $148 -1056964608 #
vertex $-1 -1 $-1 $148 $299 #
vertex $-1 -1 $-1 $148 $300 #
straight-curve $-1 -1 $-1 1328.3890216305856 -1387.535946298849 632.31542968799999 0 -1 0 F -2.5 F 2.5 #
coedge $-1 -1 $-1 $149 $149 $301 $302 reversed $107 $-1 #
coedge $-1 -1 $-1 $303 $304 $149 $214 forward $262 $-1 #
edge $305 -1 $-1 $306 -3.1415926535897931 $307 0 $149 $308 forward @7 unknown #
coedge $-1 -1 $-1 $309 $310 $150 $216 forward $311 $-1 #
edge $312 -1 $-1 $222 0 $221 3.1415926535897931 $150 $313 forward @7 unknown #
coedge $-1 -1 $-1 $314 $151 $310 $315 forward $219 $-1 #
coedge $-1 -1 $-1 $151 $314 $309 $316 reversed $219 $-1 #
loop $-1 -1 $-1 $-1 $218 $317 #
truecolor-adesk-attrib $-1 -1 $318 $-1 $152 -1056964608 #
vertex $-1 -1 $-1 $152 $319 #
vertex $-1 -1 $-1 $152 $320 #
ellipse-curve $-1 -1 $-1 1403.3890216305856 -1352.535946298849 951.31542968799999 1 0 0 0 -35 0 1 F -3.1415926535897931 F 0 #
coedge $-1 -1 $-1 $199 $204 $153 $225 reversed $283 $-1 #
edge $321 -1 $-1 $228 -179.49999999999997 $232 179.49999999999997 $153 $322 forward @7 unknown #
coedge $-1 -1 $-1 $323 $154 $159 $236 forward $104 $-1 #
truecolor-adesk-attrib $-1 -1 $324 $-1 $155 -1056964608 #
vertex $-1 -1 $-1 $155 $325 #
straight-curve $-1 -1 $-1 1403.3890216305856 -1352.535946298849 991.31542968799999 0 -1 0 F -37.5 F 37.5 #
coedge $-1 -1 $-1 $156 $201 $158 $235 reversed $71 $-1 #
truecolor-adesk-attrib $-1 -1 $326 $-1 $157 -1056964608 #
vertex $-1 -1 $-1 $225 $327 #
straight-curve $-1 -1 $-1 1403.3890216305856 -1352.535946298849 632.31542968799999 0 -1 0 F -37.5 F 37.5 #
coedge $-1 -1 $-1 $159 $158 $328 $329 reversed $160 $-1 #
edge $330 -1 $-1 $163 -2.5 $331 2.5 $230 $332 forward @7 unknown #
edge $333 -1 $-1 $162 -2.5 $334 2.5 $226 $335 forward @7 unknown #
DXID-attrib $-1 -1 $-1 $161 $112 @18 ASM_EDGE_FROM_STEP @5 19378 #
point $-1 -1 $-1 1403.3890216305856 -1315.035946298849 991.31542968799999 #
point $-1 -1 $-1 1403.3890216305856 -1315.035946298849 632.31542968799999 #
truecolor-adesk-attrib $-1 -1 $336 $-1 $166 -1056964608 #
ellipse-curve $-1 -1 $-1 1403.3890216305856 -1352.535946298849 672.31542968799999 1 0 0 0 -15 0 1 F -3.1415926535897931 F 0 #
loop $-1 -1 $-1 $-1 $337 $243 #
face $338 -1 $-1 $131 $168 $3 $-1 $339 forward single #
DXID-attrib $-1 -1 $-1 $169 $117 @18 ASM_EDGE_FROM_STEP @5 19335 #
DXID-attrib $-1 -1 $-1 $175 $124 @18 ASM_FACE_FROM_STEP @16 stp-1M-143-19880 #
truecolor-adesk-attrib $-1 -1 $340 $-1 $176 -1056964608 #
face $341 -1 $-1 $-1 $342 $3 $-1 $343 forward single #
loop $-1 -1 $-1 $-1 $344 $176 #
cone-surface $-1 -1 $-1 1467.3890216305847 -1352.535946298849 672.31542968799999 -1 1.1368683772200002e-14 -5.6843418860800003e-15 -1.265679639661001e-14 -0.93173812946455659 0.36313091041921686 1 I I 0.70710678118623049 0.70710678118686454 1 forward I I I I #
coedge $-1 -1 $-1 $345 $345 $346 $347 forward $177 $-1 #
coedge $-1 -1 $-1 $180 $180 $348 $349 reversed $130 $-1 #
coedge $-1 -1 $-1 $350 $351 $180 $253 forward $352 $-1 #
edge $353 -1 $-1 $354 -3.1415926535897931 $355 0 $180 $356 forward @7 unknown #
DXID-attrib $-1 -1 $-1 $181 $131 @18 ASM_FACE_FROM_STEP @16 stp-1M-143-19671 #
truecolor-adesk-attrib $-1 -1 $357 $-1 $182 -1056964608 #
face $358 -1 $-1 $359 $360 $3 $-1 $361 reversed single #
loop $-1 -1 $-1 $-1 $362 $182 #
cone-surface $-1 -1 $-1 1362.8890216305856 -1352.535946298849 672.31542968799999 1 0 0 0 2.5 0 1 I I 0 1 2.5 forward I I I I #
DXID-attrib $-1 -1 $-1 $185 $135 @18 ASM_FACE_FROM_STEP @16 stp-1M-143-19819 #
truecolor-adesk-attrib $-1 -1 $363 $-1 $186 -1056964608 #
face $364 -1 $-1 $124 $365 $3 $-1 $366 forward single #
loop $-1 -1 $-1 $-1 $304 $186 #
cone-surface $-1 -1 $-1 1420.8890216305856 -1352.535946298849 672.31542968799999 1 0 0 0 35 0 1 I I 0 1 35 forward I I I I #
coedge $-1 -1 $-1 $367 $268 $270 $368 forward $187 $-1 #
coedge $-1 -1 $-1 $270 $189 $369 $370 forward $136 $-1 #
coedge $-1 -1 $-1 $268 $367 $189 $267 reversed $187 $-1 #
edge $371 -1 $-1 $272 -3.5355339059304742 $372 3.5355339059304742 $189 $373 forward @7 unknown #
coedge $-1 -1 $-1 $264 $266 $190 $269 reversed $187 $-1 #
edge $374 -1 $-1 $273 -3.1415926535897931 $272 -6.1772216971197239e-11 $190 $375 forward @7 unknown #
coedge $-1 -1 $-1 $191 $265 $264 $368 reversed $136 $-1 #
truecolor-adesk-attrib $-1 -1 $376 $-1 $192 -1056964608 #
vertex $-1 -1 $-1 $192 $377 #
vertex $-1 -1 $-1 $192 $378 #
ellipse-curve $-1 -1 $-1 1438.3890216305856 -1352.535946298849 951.31542968799999 1 0 0 0 -30 0 1 F -6.1772216971197239e-11 F 3.1415926535897931 #
DXID-attrib $-1 -1 $-1 $194 $141 @18 ASM_FACE_FROM_STEP @16 stp-1M-143-19558 #
truecolor-adesk-attrib $-1 -1 $379 $-1 $195 -1056964608 #
face $380 -1 $-1 $381 $283 $3 $-1 $382 reversed single #
plane-surface $-1 -1 $-1 1098.3890216305856 -1315.035946298849 991.31542968799999 1.1368683772200001e-14 -1 0 -1 -1.1368683772200001e-14 0 forward_v I I I I #
coedge $-1 -1 $-1 $198 $323 $383 $384 forward $104 $-1 #
coedge $-1 -1 $-1 $207 $206 $198 $281 reversed $142 $-1 #
edge $385 -1 $-1 $386 -2.5 $285 2.5 $198 $387 forward @7 unknown #
coedge $-1 -1 $-1 $204 $199 $206 $296 forward $283 $-1 #
loop $-1 -1 $-1 $-1 $224 $277 #
truecolor-adesk-attrib $-1 -1 $388 $-1 $200 -1056964608 #
vertex $-1 -1 $-1 $200 $389 #
straight-curve $-1 -1 $-1 1365.8890216305856 -1390.035946298849 991.31542968799999 -1 0 0 F -37.5 F 37.5 #
coedge $-1 -1 $-1 $390 $328 $201 $288 forward $391 $-1 #
edge $392 -1 $-1 $331 -35 $292 35 $201 $393 forward @7 unknown #
coedge $-1 -1 $-1 $383 $202 $207 $297 reversed $196 $-1 #
coedge $-1 -1 $-1 $202 $383 $390 $394 forward $196 $-1 #
truecolor-adesk-attrib $-1 -1 $395 $-1 $203 -1056964608 #
vertex $-1 -1 $-1 $203 $396 #
straight-curve $-1 -1 $-1 1363.3890216305856 -1385.035946298849 632.31542968799999 -1 0 0 F -35 F 35 #
truecolor-adesk-attrib $-1 -1 $397 $-1 $205 -1056964608 #
straight-curve $-1 -1 $-1 1365.8890216305856 -1390.035946298849 632.31542968799999 -1 0 0 F -37.5 F 37.5 #
edge $398 -1 $-1 $285 -179.49999999999997 $210 179.49999999999997 $206 $399 forward @7 unknown #
edge $400 -1 $-1 $386 -179.49999999999997 $209 179.49999999999997 $207 $401 forward @7 unknown #
DXID-attrib $-1 -1 $-1 $208 $148 @18 ASM_EDGE_FROM_STEP @5 19449 #
point $-1 -1 $-1 1328.3890216305856 -1385.035946298849 632.31542968799999 #
point $-1 -1 $-1 1328.3890216305856 -1390.035946298849 632.31542968799999 #
coedge $-1 -1 $-1 $402 $403 $212 $302 forward $365 $-1 #
edge $404 -1 $-1 $307 0 $306 3.1415926535897931 $212 $405 forward @7 unknown #
coedge $-1 -1 $-1 $406 $213 $403 $407 forward $262 $-1 #
coedge $-1 -1 $-1 $213 $406 $402 $408 reversed $262 $-1 #
truecolor-adesk-attrib $-1 -1 $409 $-1 $214 -1056964608 #
vertex $-1 -1 $-1 $214 $410 #
vertex $-1 -1 $-1 $214 $411 #
ellipse-curve $-1 -1 $-1 1403.3890216305856 -1352.535946298849 672.31542968799999 1 0 0 0 -35 0 1 F -3.1415926535897931 F 0 #
coedge $-1 -1 $-1 $369 $215 $218 $316 forward $311 $-1 #
coedge $-1 -1 $-1 $215 $369 $217 $315 reversed $311 $-1 #
loop $-1 -1 $-1 $-1 $310 $412 #
truecolor-adesk-attrib $-1 -1 $413 $-1 $216 -1056964608 #
ellipse-curve $-1 -1 $-1 1403.3890216305856 -1352.535946298849 951.31542968799999 1 0 0 0 -35 0 1 F 0 F 3.1415926535897931 #
coedge $-1 -1 $-1 $218 $217 $367 $414 reversed $219 $-1 #
edge $415 -1 $-1 $222 155 $372 185 $217 $416 forward @7 unknown #
edge $417 -1 $-1 $221 155 $418 185 $218 $419 forward @7 unknown #
face $420 -1 $-1 $412 $219 $3 $-1 $421 forward single #
DXID-attrib $-1 -1 $-1 $220 $152 @18 ASM_EDGE_FROM_STEP @5 19412 #
point $-1 -1 $-1 1403.3890216305856 -1317.535946298849 951.31542968799999 #
point $-1 -1 $-1 1403.3890216305856 -1387.535946298849 951.31542968799999 #
truecolor-adesk-attrib $-1 -1 $422 $-1 $225 -1056964608 #
straight-curve $-1 -1 $-1 1403.3890216305856 -1390.035946298849 811.81542968799999 0 0 -1 F -179.49999999999997 F 179.49999999999997 #
coedge $-1 -1 $-1 $279 $226 $423 $424 forward $104 $-1 #
DXID-attrib $-1 -1 $-1 $227 $155 @18 ASM_EDGE_FROM_STEP @5 19385 #
point $-1 -1 $-1 1403.3890216305856 -1390.035946298849 991.31542968799999 #
DXID-attrib $-1 -1 $-1 $231 $157 @18 ASM_EDGE_FROM_STEP @5 19397 #
point $-1 -1 $-1 1403.3890216305856 -1390.035946298849 632.31542968799999 #
coedge $-1 -1 $-1 $287 $423 $234 $329 forward $391 $-1 #
edge $425 -1 $-1 $334 -179.49999999999997 $331 179.49999999999997 $234 $426 forward @7 unknown #
truecolor-adesk-attrib $-1 -1 $427 $-1 $235 -1056964608 #
vertex $-1 -1 $-1 $288 $428 #
straight-curve $-1 -1 $-1 1400.8890216305856 -1315.035946298849 632.31542968799999 -1 0 0 F -2.5 F 2.5 #
truecolor-adesk-attrib $-1 -1 $429 $-1 $236 -1056964608 #
vertex $-1 -1 $-1 $236 $430 #
straight-curve $-1 -1 $-1 1400.8890216305856 -1315.035946298849 991.31542968799999 -1 0 0 F -2.5 F 2.5 #
DXID-attrib $-1 -1 $-1 $240 $166 @18 ASM_EDGE_FROM_STEP @5 19357 #
coedge $-1 -1 $-1 $431 $431 $432 $433 reversed $242 $-1 #
truecolor-adesk-attrib $-1 -1 $434 $-1 $243 -1056964608 #
plane-surface $-1 -1 $-1 1403.3890216305856 -1315.035946298849 991.31542968799999 1 0 0 0 -1 0 forward_v I I I I #
DXID-attrib $-1 -1 $-1 $246 $176 @18 ASM_FACE_FROM_STEP @16 stp-1M-143-19902 #
truecolor-adesk-attrib $-1 -1 $435 $-1 $247 -1056964608 #
loop $-1 -1 $-1 $-1 $436 $247 #
cone-surface $-1 -1 $-1 1467.3890216305847 -1352.535946298849 672.31542968799999 -1 0 5.6843418860800003e-15 -2.3079815180548322e-30 1 -4.0602440252699998e-16 1 I I 0.70710678118623049 0.70710678118686454 1 forward I I I I #
coedge $-1 -1 $-1 $437 $346 $438 $439 forward $248 $-1 #
coedge $-1 -1 $-1 $250 $250 $440 $441 forward $177 $-1 #
coedge $-1 -1 $-1 $344 $442 $250 $347 reversed $248 $-1 #
edge $443 -1 $-1 $444 -6.1819586486914587e-11 $445 3.1415926535897931 $250 $446 forward @7 unknown #
coedge $-1 -1 $-1 $447 $448 $251 $349 forward $449 $-1 #
edge $450 -1 $-1 $355 0 $354 3.1415926535897931 $251 $451 forward @7 unknown #
coedge $-1 -1 $-1 $452 $252 $448 $453 forward $352 $-1 #
coedge $-1 -1 $-1 $252 $452 $447 $454 reversed $352 $-1 #
loop $-1 -1 $-1 $-1 $452 $455 #
truecolor-adesk-attrib $-1 -1 $456 $-1 $253 -1056964608 #
vertex $-1 -1 $-1 $253 $457 #
vertex $-1 -1 $-1 $253 $458 #
ellipse-curve $-1 -1 $-1 1403.3890216305856 -1352.535946298849 951.31542968799999 1 0 0 0 -2.5 0 1 F -3.1415926535897931 F 0 #
DXID-attrib $-1 -1 $-1 $255 $182 @18 ASM_FACE_FROM_STEP @16 stp-1M-143-19688 #
truecolor-adesk-attrib $-1 -1 $459 $-1 $256 -1056964608 #
face $460 -1 $-1 $455 $449 $3 $-1 $461 reversed single #
loop $-1 -1 $-1 $-1 $462 $256 #
cone-surface $-1 -1 $-1 1362.8890216305856 -1352.535946298849 672.31542968799999 1 0 0 0 2.5 0 1 I I 0 1 2.5 forward I I I I #
coedge $-1 -1 $-1 $463 $464 $465 $466 reversed $257 $-1 #
DXID-attrib $-1 -1 $-1 $260 $186 @18 ASM_FACE_FROM_STEP @16 stp-1M-143-19845 #
truecolor-adesk-attrib $-1 -1 $467 $-1 $261 -1056964608 #
loop $-1 -1 $-1 $-1 $403 $261 #
cone-surface $-1 -1 $-1 1420.8890216305856 -1352.535946298849 672.31542968799999 1 0 0 0 35 0 1 I I 0 1 35 forward I I I I #
coedge $-1 -1 $-1 $266 $264 $314 $414 forward $187 $-1 #
edge $468 -1 $-1 $273 -3.5355339059304742 $418 3.5355339059304742 $270 $469 forward @7 unknown #
coedge $-1 -1 $-1 $310 $309 $265 $370 reversed $311 $-1 #
edge $470 -1 $-1 $372 0 $418 3.1415926535897931 $369 $471 forward @7 unknown #
truecolor-adesk-attrib $-1 -1 $472 $-1 $267 -1056964608 #
vertex $-1 -1 $-1 $315 $473 #
straight-curve $-1 -1 $-1 1435.8890216305856 -1385.035946298849 951.31542968799999 -0.7071067811870001 -0.7071067811870001 0 F -3.5355339059304742 F 3.5355339059304742 #
truecolor-adesk-attrib $-1 -1 $474 $-1 $269 -1056964608 #
ellipse-curve $-1 -1 $-1 1438.3890216305856 -1352.535946298849 951.31542968799999 1 0 0 0 -30 0 1 F -3.1415926535897931 F -6.1772216971197239e-11 #
DXID-attrib $-1 -1 $-1 $271 $192 @18 ASM_EDGE_FROM_STEP @5 19771 #
point $-1 -1 $-1 1438.3890216305856 -1382.535946298849 951.31542968985309 #
point $-1 -1 $-1 1438.3890216305856 -1322.535946298849 951.31542968799999 #
DXID-attrib $-1 -1 $-1 $276 $195 @18 ASM_FACE_FROM_STEP @16 stp-1M-143-19570 #
truecolor-adesk-attrib $-1 -1 $475 $-1 $277 -1056964608 #
face $476 -1 $-1 $243 $391 $3 $-1 $477 reversed single #
plane-surface $-1 -1 $-1 1093.3890216305856 -1390.035946298849 991.31542968799999 0 1 0 1 0 0 forward_v I I I I #
coedge $-1 -1 $-1 $290 $289 $279 $384 reversed $196 $-1 #
edge $478 -1 $-1 $479 -35 $386 35 $279 $480 forward @7 unknown #
truecolor-adesk-attrib $-1 -1 $481 $-1 $281 -1056964608 #
vertex $-1 -1 $-1 $384 $482 #
straight-curve $-1 -1 $-1 1328.3890216305856 -1387.535946298849 991.31542968799999 0 -1 0 F -2.5 F 2.5 #
DXID-attrib $-1 -1 $-1 $284 $200 @18 ASM_EDGE_FROM_STEP @5 19489 #
point $-1 -1 $-1 1328.3890216305856 -1390.035946298849 991.31542968799999 #
coedge $-1 -1 $-1 $423 $287 $290 $394 reversed $391 $-1 #
loop $-1 -1 $-1 $483 $287 $381 #
truecolor-adesk-attrib $-1 -1 $484 $-1 $288 -1056964608 #
straight-curve $-1 -1 $-1 1398.3890216305856 -1350.035946298849 632.31542968799999 0 -1 0 F -35 F 35 #
edge $485 -1 $-1 $479 -179.49999999999997 $292 179.49999999999997 $290 $486 forward @7 unknown #
DXID-attrib $-1 -1 $-1 $291 $203 @18 ASM_EDGE_FROM_STEP @5 19456 #
point $-1 -1 $-1 1398.3890216305856 -1385.035946298849 632.31542968799999 #
DXID-attrib $-1 -1 $-1 $294 $205 @18 ASM_EDGE_FROM_STEP @5 19473 #
truecolor-adesk-attrib $-1 -1 $487 $-1 $296 -1056964608 #
straight-curve $-1 -1 $-1 1328.3890216305856 -1390.035946298849 811.81542968799999 0 0 -1 F -179.49999999999997 F 179.49999999999997 #
truecolor-adesk-attrib $-1 -1 $488 $-1 $297 -1056964608 #
straight-curve $-1 -1 $-1 1328.3890216305856 -1385.035946298849 811.81542968799999 0 0 -1 F -179.49999999999997 F 179.49999999999997 #
coedge $-1 -1 $-1 $489 $301 $304 $408 forward $365 $-1 #
coedge $-1 -1 $-1 $301 $489 $303 $407 reversed $365 $-1 #
truecolor-adesk-attrib $-1 -1 $490 $-1 $302 -1056964608 #
ellipse-curve $-1 -1 $-1 1403.3890216305856 -1352.535946298849 672.31542968799999 1 0 0 0 -35 0 1 F 0 F 3.1415926535897931 #
coedge $-1 -1 $-1 $304 $303 $491 $492 reversed $262 $-1 #
edge $493 -1 $-1 $307 155 $494 185 $303 $495 forward @7 unknown #
edge $496 -1 $-1 $306 155 $497 185 $304 $498 forward @7 unknown #
DXID-attrib $-1 -1 $-1 $305 $214 @18 ASM_EDGE_FROM_STEP @5 19430 #
point $-1 -1 $-1 1403.3890216305856 -1317.535946298849 672.31542968799999 #
point $-1 -1 $-1 1403.3890216305856 -1387.535946298849 672.31542968799999 #
face $499 -1 $-1 $64 $311 $3 $-1 $500 forward single #
DXID-attrib $-1 -1 $-1 $312 $216 @18 ASM_EDGE_FROM_STEP @5 19417 #
edge $501 -1 $-1 $418 -3.1415926535897931 $372 0 $314 $502 forward @7 unknown #
truecolor-adesk-attrib $-1 -1 $503 $-1 $315 -1056964608 #
straight-curve $-1 -1 $-1 1248.3890216305856 -1387.535946298849 951.31542968799999 1 0 0 F 155 F 185 #
truecolor-adesk-attrib $-1 -1 $504 $-1 $316 -1056964608 #
vertex $-1 -1 $-1 $316 $505 #
straight-curve $-1 -1 $-1 1248.3890216305856 -1317.535946298849 951.31542968799999 1 0 0 F 155 F 185 #
truecolor-adesk-attrib $-1 -1 $506 $-1 $317 -1056964608 #
cone-surface $-1 -1 $-1 1420.8890216305856 -1352.535946298849 951.31542968799999 1 0 0 0 35 0 1 I I 0 1 35 forward I I I I #
DXID-attrib $-1 -1 $-1 $321 $225 @18 ASM_EDGE_FROM_STEP @5 19392 #
coedge $-1 -1 $-1 $328 $390 $323 $424 reversed $391 $-1 #
edge $507 -1 $-1 $334 -35 $479 35 $323 $508 forward @7 unknown #
truecolor-adesk-attrib $-1 -1 $509 $-1 $329 -1056964608 #
straight-curve $-1 -1 $-1 1398.3890216305856 -1315.035946298849 811.81542968799999 0 0 -1 F -179.49999999999997 F 179.49999999999997 #
DXID-attrib $-1 -1 $-1 $330 $235 @18 ASM_EDGE_FROM_STEP @5 19468 #
point $-1 -1 $-1 1398.3890216305856 -1315.035946298849 632.31542968799999 #
DXID-attrib $-1 -1 $-1 $333 $236 @18 ASM_EDGE_FROM_STEP @5 19496 #
point $-1 -1 $-1 1398.3890216305856 -1315.035946298849 991.31542968799999 #
coedge $-1 -1 $-1 $337 $337 $510 $511 reversed $242 $-1 #
coedge $-1 -1 $-1 $512 $513 $337 $433 forward $360 $-1 #
edge $514 -1 $-1 $515 -3.1415926535897931 $516 0 $337 $517 forward @7 unknown #
DXID-attrib $-1 -1 $-1 $338 $243 @18 ASM_FACE_FROM_STEP @16 stp-1M-143-19648 #
DXID-attrib $-1 -1 $-1 $341 $247 @18 ASM_FACE_FROM_STEP @16 stp-1M-143-19914 #
coedge $-1 -1 $-1 $491 $440 $442 $518 forward $342 $-1 #
coedge $-1 -1 $-1 $442 $344 $489 $519 forward $248 $-1 #
coedge $-1 -1 $-1 $440 $491 $344 $439 reversed $342 $-1 #
edge $520 -1 $-1 $444 -3.5355339059304742 $494 3.5355339059304742 $344 $521 forward @7 unknown #
coedge $-1 -1 $-1 $436 $438 $345 $441 reversed $342 $-1 #
edge $522 -1 $-1 $445 -3.1415926535897931 $444 -6.1819586486914587e-11 $345 $523 forward @7 unknown #
coedge $-1 -1 $-1 $346 $437 $436 $518 reversed $248 $-1 #
truecolor-adesk-attrib $-1 -1 $524 $-1 $347 -1056964608 #
vertex $-1 -1 $-1 $347 $525 #
vertex $-1 -1 $-1 $347 $526 #
ellipse-curve $-1 -1 $-1 1438.3890216305856 -1352.535946298849 672.31542968799999 1 0 0 0 -30 0 1 F -6.1819586486914587e-11 F 3.1415926535897931 #
coedge $-1 -1 $-1 $527 $348 $351 $454 forward $449 $-1 #
coedge $-1 -1 $-1 $348 $527 $350 $453 reversed $449 $-1 #
loop $-1 -1 $-1 $-1 $527 $359 #
truecolor-adesk-attrib $-1 -1 $528 $-1 $349 -1056964608 #
ellipse-curve $-1 -1 $-1 1403.3890216305856 -1352.535946298849 951.31542968799999 1 0 0 0 -2.5 0 1 F 0 F 3.1415926535897931 #
coedge $-1 -1 $-1 $351 $350 $529 $530 reversed $352 $-1 #
edge $531 -1 $-1 $355 -155 $532 -150 $448 $533 reversed @7 unknown #
edge $534 -1 $-1 $354 -155 $535 -150 $447 $536 reversed @7 unknown #
face $537 -1 $-1 $317 $352 $3 $-1 $538 reversed single #
DXID-attrib $-1 -1 $-1 $353 $253 @18 ASM_EDGE_FROM_STEP @5 19661 #
point $-1 -1 $-1 1403.3890216305856 -1350.035946298849 951.31542968799999 #
point $-1 -1 $-1 1403.3890216305856 -1355.035946298849 951.31542968799999 #
DXID-attrib $-1 -1 $-1 $358 $256 @18 ASM_FACE_FROM_STEP @16 stp-1M-143-19695 #
truecolor-adesk-attrib $-1 -1 $539 $-1 $359 -1056964608 #
cone-surface $-1 -1 $-1 1362.8890216305856 -1352.535946298849 951.31542968799999 1 0 0 0 2.5 0 1 I I 0 1 2.5 forward I I I I #
coedge $-1 -1 $-1 $513 $512 $540 $541 reversed $360 $-1 #
coedge $-1 -1 $-1 $510 $362 $512 $542 reversed $257 $-1 #
coedge $-1 -1 $-1 $362 $510 $513 $543 forward $257 $-1 #
coedge $-1 -1 $-1 $540 $540 $362 $466 forward $544 $-1 #
edge $545 -1 $-1 $546 0 $547 3.1415926535897931 $465 $548 forward @7 unknown #
DXID-attrib $-1 -1 $-1 $364 $261 @18 ASM_FACE_FROM_STEP @16 stp-1M-143-19857 #
truecolor-adesk-attrib $-1 -1 $549 $-1 $368 -1056964608 #
straight-curve $-1 -1 $-1 1435.8890216305856 -1320.035946298849 951.31542968799999 -0.7071067811870001 0.7071067811870001 8.0388733884600021e-15 F -3.5355339059304742 F 3.5355339059304742 #
truecolor-adesk-attrib $-1 -1 $550 $-1 $370 -1056964608 #
ellipse-curve $-1 -1 $-1 1433.3890216305856 -1352.535946298849 951.31542968799999 1 0 0 0 -35 0 1 F 0 F 3.1415926535897931 #
DXID-attrib $-1 -1 $-1 $371 $267 @18 ASM_EDGE_FROM_STEP @5 19795 #
point $-1 -1 $-1 1433.3890216305856 -1387.535946298849 951.31542968799999 #
DXID-attrib $-1 -1 $-1 $374 $269 @18 ASM_EDGE_FROM_STEP @5 19776 #
DXID-attrib $-1 -1 $-1 $380 $277 @18 ASM_FACE_FROM_STEP @16 stp-1M-143-19577 #
truecolor-adesk-attrib $-1 -1 $551 $-1 $381 -1056964608 #
plane-surface $-1 -1 $-1 1398.3890216305856 -1315.035946298849 991.31542968799999 1 0 0 0 -1 0 forward_v I I I I #
truecolor-adesk-attrib $-1 -1 $552 $-1 $384 -1056964608 #
vertex $-1 -1 $-1 $424 $553 #
straight-curve $-1 -1 $-1 1363.3890216305856 -1385.035946298849 991.31542968799999 -1 0 0 F -35 F 35 #
DXID-attrib $-1 -1 $-1 $385 $281 @18 ASM_EDGE_FROM_STEP @5 19515 #
point $-1 -1 $-1 1328.3890216305856 -1385.035946298849 991.31542968799999 #
loop $-1 -1 $-1 $544 $554 $381 #
DXID-attrib $-1 -1 $-1 $392 $288 @18 ASM_EDGE_FROM_STEP @5 19463 #
truecolor-adesk-attrib $-1 -1 $555 $-1 $394 -1056964608 #
straight-curve $-1 -1 $-1 1398.3890216305856 -1385.035946298849 811.81542968799999 0 0 -1 F -179.49999999999997 F 179.49999999999997 #
DXID-attrib $-1 -1 $-1 $398 $296 @18 ASM_EDGE_FROM_STEP @5 19534 #
DXID-attrib $-1 -1 $-1 $400 $297 @18 ASM_EDGE_FROM_STEP @5 19539 #
coedge $-1 -1 $-1 $403 $402 $437 $519 reversed $365 $-1 #
DXID-attrib $-1 -1 $-1 $404 $302 @18 ASM_EDGE_FROM_STEP @5 19435 #
coedge $-1 -1 $-1 $438 $436 $406 $492 forward $342 $-1 #
edge $556 -1 $-1 $497 -3.1415926535897931 $494 0 $406 $557 forward @7 unknown #
truecolor-adesk-attrib $-1 -1 $558 $-1 $407 -1056964608 #
vertex $-1 -1 $-1 $407 $559 #
straight-curve $-1 -1 $-1 1248.3890216305856 -1387.535946298849 672.31542968799999 1 0 0 F 155 F 185 #
truecolor-adesk-attrib $-1 -1 $560 $-1 $408 -1056964608 #
vertex $-1 -1 $-1 $408 $561 #
straight-curve $-1 -1 $-1 1248.3890216305856 -1317.535946298849 672.31542968799999 1 0 0 F 155 F 185 #
truecolor-adesk-attrib $-1 -1 $562 $-1 $412 -1056964608 #
cone-surface $-1 -1 $-1 1420.8890216305856 -1352.535946298849 951.31542968799999 1 0 0 0 35 0 1 I I 0 1 35 forward I I I I #
truecolor-adesk-attrib $-1 -1 $563 $-1 $414 -1056964608 #
ellipse-curve $-1 -1 $-1 1433.3890216305856 -1352.535946298849 951.31542968799999 1 0 0 0 -35 0 1 F -3.1415926535897931 F 0 #
DXID-attrib $-1 -1 $-1 $415 $315 @18 ASM_EDGE_FROM_STEP @5 19733 #
DXID-attrib $-1 -1 $-1 $417 $316 @18 ASM_EDGE_FROM_STEP @5 19726 #
point $-1 -1 $-1 1433.3890216305856 -1317.535946298849 951.31542968799999 #
DXID-attrib $-1 -1 $-1 $420 $317 @18 ASM_FACE_FROM_STEP @16 stp-1M-143-19745 #
truecolor-adesk-attrib $-1 -1 $564 $-1 $424 -1056964608 #
straight-curve $-1 -1 $-1 1398.3890216305856 -1350.035946298849 991.31542968799999 0 -1 0 F -35 F 35 #
DXID-attrib $-1 -1 $-1 $425 $329 @18 ASM_EDGE_FROM_STEP @5 19563 #
coedge $-1 -1 $-1 $464 $463 $431 $511 forward $257 $-1 #
edge $565 -1 $-1 $516 0 $515 3.1415926535897931 $431 $566 forward @7 unknown #
coedge $-1 -1 $-1 $462 $432 $463 $542 forward $360 $-1 #
coedge $-1 -1 $-1 $432 $462 $464 $543 reversed $360 $-1 #
truecolor-adesk-attrib $-1 -1 $567 $-1 $433 -1056964608 #
vertex $-1 -1 $-1 $433 $568 #
vertex $-1 -1 $-1 $433 $569 #
ellipse-curve $-1 -1 $-1 1403.3890216305856 -1352.535946298849 672.31542968799999 1 0 0 0 -2.5 0 1 F -3.1415926535897931 F 0 #
edge $570 -1 $-1 $445 -3.5355339059304742 $497 3.5355339059304742 $442 $571 forward @7 unknown #
edge $572 -1 $-1 $494 0 $497 3.1415926535897931 $489 $573 forward @7 unknown #
truecolor-adesk-attrib $-1 -1 $574 $-1 $439 -1056964608 #
straight-curve $-1 -1 $-1 1435.8890216305856 -1385.035946298849 672.31542968799999 -0.7071067811870001 -0.7071067811870001 -7.034014214900001e-15 F -3.5355339059304742 F 3.5355339059304742 #
truecolor-adesk-attrib $-1 -1 $575 $-1 $441 -1056964608 #
ellipse-curve $-1 -1 $-1 1438.3890216305856 -1352.535946298849 672.31542968799999 1 0 0 0 -30 0 1 F -3.1415926535897931 F -6.1819586486914587e-11 #
DXID-attrib $-1 -1 $-1 $443 $347 @18 ASM_EDGE_FROM_STEP @5 19866 #
point $-1 -1 $-1 1438.3890216305856 -1382.535946298849 672.31542968985457 #
point $-1 -1 $-1 1438.3890216305856 -1322.535946298849 672.31542968799999 #
coedge $-1 -1 $-1 $448 $447 $554 $576 reversed $449 $-1 #
DXID-attrib $-1 -1 $-1 $450 $349 @18 ASM_EDGE_FROM_STEP @5 19666 #
coedge $-1 -1 $-1 $554 $554 $452 $530 forward $483 $-1 #
edge $577 -1 $-1 $535 -3.1415926535897931 $532 0 $529 $578 forward @7 unknown #
truecolor-adesk-attrib $-1 -1 $579 $-1 $453 -1056964608 #
vertex $-1 -1 $-1 $576 $580 #
straight-curve $-1 -1 $-1 1248.3890216305856 -1355.035946298849 951.31542968799999 1 0 0 F 150 F 155 #
truecolor-adesk-attrib $-1 -1 $581 $-1 $454 -1056964608 #
vertex $-1 -1 $-1 $576 $582 #
straight-curve $-1 -1 $-1 1248.3890216305856 -1350.035946298849 951.31542968799999 1 0 0 F 150 F 155 #
truecolor-adesk-attrib $-1 -1 $583 $-1 $455 -1056964608 #
cone-surface $-1 -1 $-1 1362.8890216305856 -1352.535946298849 951.31542968799999 1 0 0 0 2.5 0 1 I I 0 1 2.5 forward I I I I #
DXID-attrib $-1 -1 $-1 $460 $359 @18 ASM_FACE_FROM_STEP @16 stp-1M-143-19712 #
coedge $-1 -1 $-1 $465 $465 $462 $541 forward $544 $-1 #
edge $584 -1 $-1 $547 -3.1415926535897931 $546 0 $540 $585 forward @7 unknown #
edge $586 -1 $-1 $516 -155 $546 -150 $463 $587 reversed @7 unknown #
edge $588 -1 $-1 $515 -155 $547 -150 $464 $589 reversed @7 unknown #
loop $-1 -1 $-1 $-1 $465 $381 #
truecolor-adesk-attrib $-1 -1 $590 $-1 $466 -1056964608 #
vertex $-1 -1 $-1 $466 $591 #
vertex $-1 -1 $-1 $466 $592 #
ellipse-curve $-1 -1 $-1 1398.3890216305856 -1352.535946298849 672.31542968799999 1 0 0 0 -2.5 0 1 F 0 F 3.1415926535897931 #
DXID-attrib $-1 -1 $-1 $468 $368 @18 ASM_EDGE_FROM_STEP @5 19800 #
DXID-attrib $-1 -1 $-1 $470 $370 @18 ASM_EDGE_FROM_STEP @5 19750 #
DXID-attrib $-1 -1 $-1 $476 $381 @18 ASM_FACE_FROM_STEP @16 stp-1M-143-19625 #
DXID-attrib $-1 -1 $-1 $478 $384 @18 ASM_EDGE_FROM_STEP @5 19510 #
point $-1 -1 $-1 1398.3890216305856 -1385.035946298849 991.31542968799999 #
coedge $-1 -1 $-1 $529 $529 $527 $576 forward $483 $-1 #
DXID-attrib $-1 -1 $-1 $485 $394 @18 ASM_EDGE_FROM_STEP @5 19551 #
truecolor-adesk-attrib $-1 -1 $593 $-1 $492 -1056964608 #
ellipse-curve $-1 -1 $-1 1433.3890216305856 -1352.535946298849 672.31542968799999 1 0 0 0 -35 0 1 F -3.1415926535897931 F 0 #
DXID-attrib $-1 -1 $-1 $493 $407 @18 ASM_EDGE_FROM_STEP @5 19833 #
point $-1 -1 $-1 1433.3890216305856 -1387.535946298849 672.31542968799999 #
DXID-attrib $-1 -1 $-1 $496 $408 @18 ASM_EDGE_FROM_STEP @5 19826 #
point $-1 -1 $-1 1433.3890216305856 -1317.535946298849 672.31542968799999 #
DXID-attrib $-1 -1 $-1 $499 $412 @18 ASM_FACE_FROM_STEP @16 stp-1M-143-19757 #
DXID-attrib $-1 -1 $-1 $501 $414 @18 ASM_EDGE_FROM_STEP @5 19738 #
DXID-attrib $-1 -1 $-1 $507 $424 @18 ASM_EDGE_FROM_STEP @5 19503 #
truecolor-adesk-attrib $-1 -1 $594 $-1 $511 -1056964608 #
ellipse-curve $-1 -1 $-1 1403.3890216305856 -1352.535946298849 672.31542968799999 1 0 0 0 -2.5 0 1 F 0 F 3.1415926535897931 #
DXID-attrib $-1 -1 $-1 $514 $433 @18 ASM_EDGE_FROM_STEP @5 19638 #
point $-1 -1 $-1 1403.3890216305856 -1350.035946298849 672.31542968799999 #
point $-1 -1 $-1 1403.3890216305856 -1355.035946298849 672.31542968799999 #
truecolor-adesk-attrib $-1 -1 $595 $-1 $518 -1056964608 #
straight-curve $-1 -1 $-1 1435.8890216305856 -1320.035946298849 672.31542968799999 -0.7071067811870001 0.7071067811870001 -7.034014214900001e-15 F -3.5355339059304742 F 3.5355339059304742 #
truecolor-adesk-attrib $-1 -1 $596 $-1 $519 -1056964608 #
ellipse-curve $-1 -1 $-1 1433.3890216305856 -1352.535946298849 672.31542968799999 1 0 0 0 -35 0 1 F 0 F 3.1415926535897931 #
DXID-attrib $-1 -1 $-1 $520 $439 @18 ASM_EDGE_FROM_STEP @5 19890 #
DXID-attrib $-1 -1 $-1 $522 $441 @18 ASM_EDGE_FROM_STEP @5 19871 #
edge $597 -1 $-1 $532 0 $535 3.1415926535897931 $554 $598 forward @7 unknown #
truecolor-adesk-attrib $-1 -1 $599 $-1 $530 -1056964608 #
ellipse-curve $-1 -1 $-1 1398.3890216305856 -1352.535946298849 951.31542968799999 1 0 0 0 -2.5 0 1 F -3.1415926535897931 F 0 #
DXID-attrib $-1 -1 $-1 $531 $453 @18 ASM_EDGE_FROM_STEP @5 19700 #
point $-1 -1 $-1 1398.3890216305856 -1355.035946298849 951.31542968799999 #
DXID-attrib $-1 -1 $-1 $534 $454 @18 ASM_EDGE_FROM_STEP @5 19705 #
point $-1 -1 $-1 1398.3890216305856 -1350.035946298849 951.31542968799999 #
DXID-attrib $-1 -1 $-1 $537 $455 @18 ASM_FACE_FROM_STEP @16 stp-1M-143-19719 #
truecolor-adesk-attrib $-1 -1 $600 $-1 $541 -1056964608 #
ellipse-curve $-1 -1 $-1 1398.3890216305856 -1352.535946298849 672.31542968799999 1 0 0 0 -2.5 0 1 F -3.1415926535897931 F 0 #
truecolor-adesk-attrib $-1 -1 $601 $-1 $542 -1056964608 #
straight-curve $-1 -1 $-1 1248.3890216305856 -1355.035946298849 672.31542968799999 1 0 0 F 150 F 155 #
truecolor-adesk-attrib $-1 -1 $602 $-1 $543 -1056964608 #
straight-curve $-1 -1 $-1 1248.3890216305856 -1350.035946298849 672.31542968799999 1 0 0 F 150 F 155 #
DXID-attrib $-1 -1 $-1 $545 $466 @18 ASM_EDGE_FROM_STEP @5 19615 #
point $-1 -1 $-1 1398.3890216305856 -1355.035946298849 672.31542968799999 #
point $-1 -1 $-1 1398.3890216305856 -1350.035946298849 672.31542968799999 #
DXID-attrib $-1 -1 $-1 $556 $492 @18 ASM_EDGE_FROM_STEP @5 19838 #
DXID-attrib $-1 -1 $-1 $565 $511 @18 ASM_EDGE_FROM_STEP @5 19643 #
DXID-attrib $-1 -1 $-1 $570 $518 @18 ASM_EDGE_FROM_STEP @5 19895 #
DXID-attrib $-1 -1 $-1 $572 $519 @18 ASM_EDGE_FROM_STEP @5 19850 #
truecolor-adesk-attrib $-1 -1 $603 $-1 $576 -1056964608 #
ellipse-curve $-1 -1 $-1 1398.3890216305856 -1352.535946298849 951.31542968799999 1 0 0 0 -2.5 0 1 F 0 F 3.1415926535897931 #
DXID-attrib $-1 -1 $-1 $577 $530 @18 ASM_EDGE_FROM_STEP @5 19602 #
DXID-attrib $-1 -1 $-1 $584 $541 @18 ASM_EDGE_FROM_STEP @5 19620 #
DXID-attrib $-1 -1 $-1 $586 $542 @18 ASM_EDGE_FROM_STEP @5 19676 #
DXID-attrib $-1 -1 $-1 $588 $543 @18 ASM_EDGE_FROM_STEP @5 19681 #
DXID-attrib $-1 -1 $-1 $597 $576 @18 ASM_EDGE_FROM_STEP @5 19597 #
