700 74 1 0          
5 ZWCAD 12 ACIS 28.0 NT 24 Sat May 11 16:08:47 2024 
1 9.9999999999999995e-07 1e-10 
body $1 -1 $-1 $2 $-1 $-1 #
DXID-attrib $-1 -1 $-1 $-1 $0 @18 ASM_BODY_FROM_STEP @83 5137444D399221189B953EF8B62B4A5851B2BC69|:|8CB3CBCEBE3339AC3139F7812237AD39DB573F35 #
lump $-1 -1 $-1 $-1 $3 $0 #
shell $-1 -1 $-1 $-1 $-1 $4 $-1 $2 #
face $5 -1 $-1 $6 $7 $3 $-1 $8 forward single #
color-adesk-attrib $-1 -1 $9 $-1 $4 7 #
face $10 -1 $-1 $11 $12 $3 $-1 $13 forward single #
loop $-1 -1 $-1 $14 $15 $4 #
cone-surface $-1 -1 $-1 22.227763988966196 -298.17890702697116 1140 -1 1.3692843991918142e-16 -1.4473567926214233e-16 -1.8950654754876598e-16 -6.1311032713214111 -4.4910547398569838 1 I I 0.70710678118654757 0.70710678118654757 7.5999999999999996 forward I I I I #
DXID-attrib $-1 -1 $-1 $5 $4 @18 ASM_FACE_FROM_STEP @14 stp-1M-37-5001 #
color-adesk-attrib $-1 -1 $16 $-1 $6 7 #
face $17 -1 $-1 $18 $19 $3 $-1 $20 forward single #
loop $-1 -1 $-1 $21 $22 $6 #
cone-surface $-1 -1 $-1 22.627763988966194 -298.17890702697116 1140 -1 1.3692843991918142e-16 -1.4473567926214233e-16 -1.9948057636712211e-16 -6.4537929171804338 -4.7274260419547209 1 I I 0 1 8 forward I I I I #
loop $-1 -1 $-1 $-1 $23 $4 #
coedge $-1 -1 $-1 $15 $15 $24 $25 forward $7 $-1 #
DXID-attrib $-1 -1 $-1 $10 $6 @18 ASM_FACE_FROM_STEP @14 stp-1M-37-5002 #
color-adesk-attrib $-1 -1 $26 $-1 $11 7 #
face $27 -1 $-1 $28 $29 $3 $-1 $30 reversed single #
loop $-1 -1 $-1 $31 $32 $11 #
plane-surface $-1 -1 $-1 22.627763988966194 -298.17890702697116 1140 1 -1.3692843991918142e-16 1.4473567926214233e-16 1.9767664680543549e-16 0.59092825524434012 -0.80672411464755422 forward_v I I I I #
loop $-1 -1 $-1 $-1 $24 $6 #
coedge $-1 -1 $-1 $22 $22 $33 $34 forward $12 $-1 #
coedge $-1 -1 $-1 $23 $23 $32 $35 forward $14 $-1 #
coedge $-1 -1 $-1 $24 $24 $15 $25 reversed $21 $-1 #
edge $36 -1 $-1 $37 -3.1415926535897931 $37 3.1415926535897931 $15 $38 forward @7 unknown #
DXID-attrib $-1 -1 $-1 $17 $11 @18 ASM_FACE_FROM_STEP @14 stp-1M-37-5003 #
color-adesk-attrib $-1 -1 $39 $-1 $18 7 #
face $40 -1 $-1 $-1 $41 $3 $-1 $42 reversed single #
loop $-1 -1 $-1 $43 $44 $18 #
cone-surface $-1 -1 $-1 22.627763988966194 -298.17890702697116 1140 -1 1.3692843991918142e-16 -1.4473567926214233e-16 -1.0472730259273911e-16 -3.3882412815197278 -2.4818986720262286 1 I I 0 1 4.2000000000000002 forward I I I I #
loop $-1 -1 $-1 $-1 $45 $11 #
coedge $-1 -1 $-1 $32 $32 $23 $35 reversed $19 $-1 #
coedge $-1 -1 $-1 $33 $33 $22 $34 reversed $41 $-1 #
edge $46 -1 $-1 $47 -3.1415926535897931 $47 3.1415926535897931 $22 $48 forward @7 unknown #
edge $49 -1 $-1 $50 -3.1415926535897931 $50 3.1415926535897931 $23 $51 forward @7 unknown #
color-adesk-attrib $-1 -1 $52 $-1 $25 7 #
vertex $-1 -1 $-1 $25 $53 #
ellipse-curve $-1 -1 $-1 21.827763988966193 -298.17890702697116 1140 1 -1.3692843991918142e-16 1.4473567926214233e-16 -1.9948057636712211e-16 -6.4537929171804338 -4.7274260419547209 1 I I #
DXID-attrib $-1 -1 $-1 $27 $18 @18 ASM_FACE_FROM_STEP @14 stp-1M-37-5004 #
color-adesk-attrib $-1 -1 $54 $-1 $28 7 #
loop $-1 -1 $-1 $55 $33 $28 #
plane-surface $-1 -1 $-1 21.027763988966193 -298.17890702697116 1140 1 -1.3692843991918142e-16 1.4473567926214233e-16 1.9767664680543549e-16 0.59092825524434012 -0.80672411464755422 forward_v I I I I #
loop $-1 -1 $-1 $-1 $56 $18 #
coedge $-1 -1 $-1 $44 $44 $57 $58 reversed $29 $-1 #
coedge $-1 -1 $-1 $45 $45 $56 $59 forward $31 $-1 #
color-adesk-attrib $-1 -1 $60 $-1 $34 7 #
vertex $-1 -1 $-1 $34 $61 #
ellipse-curve $-1 -1 $-1 21.027763988966193 -298.17890702697116 1140 1 -1.3692843991918142e-16 1.4473567926214233e-16 -1.9948057636712211e-16 -6.4537929171804338 -4.7274260419547209 1 I I #
color-adesk-attrib $-1 -1 $62 $-1 $35 7 #
vertex $-1 -1 $-1 $35 $63 #
ellipse-curve $-1 -1 $-1 22.627763988966194 -298.17890702697116 1140 -1 1.3692843991918142e-16 -1.4473567926214233e-16 -1.7953251873040992e-16 -5.808413625462391 -4.2546834377592493 1 I I #
DXID-attrib $-1 -1 $-1 $36 $25 @18 ASM_EDGE_FROM_STEP @4 3308 #
point $-1 -1 $-1 21.827763988966193 -291.72511410979075 1144.7274260419549 #
DXID-attrib $-1 -1 $-1 $40 $28 @18 ASM_FACE_FROM_STEP @14 stp-1M-37-5005 #
loop $-1 -1 $-1 $-1 $57 $28 #
coedge $-1 -1 $-1 $56 $56 $45 $59 reversed $43 $-1 #
coedge $-1 -1 $-1 $57 $57 $44 $58 forward $55 $-1 #
edge $64 -1 $-1 $65 -3.1415926535897931 $65 3.1415926535897931 $44 $66 forward @7 unknown #
edge $67 -1 $-1 $68 -3.1415926535897931 $68 3.1415926535897931 $45 $69 forward @7 unknown #
DXID-attrib $-1 -1 $-1 $46 $34 @18 ASM_EDGE_FROM_STEP @4 3310 #
point $-1 -1 $-1 21.027763988966193 -291.72511410979075 1144.7274260419549 #
DXID-attrib $-1 -1 $-1 $49 $35 @18 ASM_EDGE_FROM_STEP @4 3309 #
point $-1 -1 $-1 22.627763988966194 -292.37049340150878 1144.2546834377595 #
color-adesk-attrib $-1 -1 $70 $-1 $58 7 #
vertex $-1 -1 $-1 $58 $71 #
ellipse-curve $-1 -1 $-1 21.027763988966193 -298.17890702697116 1140 1 -1.3692843991918142e-16 1.4473567926214233e-16 -1.0472730259273911e-16 -3.3882412815197278 -2.4818986720262286 1 I I #
color-adesk-attrib $-1 -1 $72 $-1 $59 7 #
vertex $-1 -1 $-1 $59 $73 #
ellipse-curve $-1 -1 $-1 22.627763988966194 -298.17890702697116 1140 -1 1.3692843991918142e-16 -1.4473567926214233e-16 -1.0472730259273911e-16 -3.3882412815197278 -2.4818986720262286 1 I I #
DXID-attrib $-1 -1 $-1 $64 $58 @18 ASM_EDGE_FROM_STEP @4 3312 #
point $-1 -1 $-1 21.027763988966193 -294.79066574545141 1142.4818986720265 #
DXID-attrib $-1 -1 $-1 $67 $59 @18 ASM_EDGE_FROM_STEP @4 3311 #
point $-1 -1 $-1 22.627763988966194 -294.79066574545141 1142.4818986720265 #
