700 351 1 0         
5 ZWCAD 12 ACIS 28.0 NT 24 Mon May 13 17:20:52 2024 
1 9.9999999999999995e-07 1e-10 
body $1 -1 $-1 $2 $-1 $-1 #
DXID-attrib $-1 -1 $-1 $-1 $0 @18 ASM_BODY_FROM_STEP @83 1025C5621CD81EAF85806B1D52A695724CACE631|:|B8A4396250C5687B1D31E70758B30729E1AC4426 #
lump $-1 -1 $-1 $-1 $3 $0 #
shell $-1 -1 $-1 $-1 $-1 $4 $-1 $2 #
face $5 -1 $-1 $6 $7 $3 $-1 $8 forward single #
truecolor-adesk-attrib $-1 -1 $9 $-1 $4 -1031698292 #
face $10 -1 $-1 $11 $12 $3 $-1 $13 forward single #
loop $-1 -1 $-1 $14 $15 $4 #
cone-surface $-1 -1 $-1 667.536232218794 205.89371970803501 180 -1.0960286922629799e-16 -1 -1.8369701987210299e-16 -110 1.2056315614892779e-14 1.5265566588595954e-15 1 I I 0 1 110 forward I I I I #
fmesh-eye-attrib $-1 -1 $16 $5 $4 #
truecolor-adesk-attrib $-1 -1 $17 $-1 $6 -1031698292 #
face $18 -1 $-1 $19 $20 $3 $-1 $21 forward single #
loop $-1 -1 $-1 $-1 $22 $6 #
cone-surface $-1 -1 $-1 667.536232218794 315.89371970803501 180.00000000000003 -1.0960286922629799e-16 -1 -1.8369701987210299e-16 -50 5.4801434613148995e-15 6.9388939039072511e-16 1 I I 0.70710678118654724 0.70710678118654779 50 forward I I I I #
loop $-1 -1 $-1 $-1 $23 $4 #
coedge $-1 -1 $-1 $15 $15 $24 $25 reversed $7 $-1 #
DXID-attrib $-1 -1 $-1 $9 $4 @18 ASM_FACE_FROM_STEP @16 stp-2M-167-29172 #
fmesh-eye-attrib $-1 -1 $26 $10 $6 #
truecolor-adesk-attrib $-1 -1 $27 $-1 $11 -1031698292 #
face $28 -1 $-1 $29 $30 $3 $-1 $31 reversed single #
loop $-1 -1 $-1 $-1 $32 $11 #
cone-surface $-1 -1 $-1 667.536232218794 315.89371970803501 180.00000000000003 -1.0960286922629799e-16 -1 -1.8369701987210299e-16 -50 5.4801434613148995e-15 6.9388939039072511e-16 1 I I 0.70710678118654724 0.70710678118654779 50 forward I I I I #
coedge $-1 -1 $-1 $33 $34 $35 $36 reversed $12 $-1 #
coedge $-1 -1 $-1 $37 $38 $39 $40 forward $14 $-1 #
coedge $-1 -1 $-1 $24 $24 $15 $25 forward $41 $-1 #
edge $42 -1 $-1 $43 0 $43 6.2831853071795862 $15 $44 forward @7 unknown #
DXID-attrib $-1 -1 $-1 $17 $6 @18 ASM_FACE_FROM_STEP @16 stp-2M-167-29173 #
fmesh-eye-attrib $-1 -1 $45 $18 $11 #
truecolor-adesk-attrib $-1 -1 $46 $-1 $19 -1031698292 #
face $47 -1 $-1 $48 $41 $3 $-1 $49 forward single #
loop $-1 -1 $-1 $-1 $50 $19 #
plane-surface $-1 -1 $-1 667.536232218794 205.89371970803501 180 -1.0960286922629799e-16 -1 -1.8369701987210299e-16 -1 1.0960286922629799e-16 1.3877787807814503e-17 forward_v I I I I #
coedge $-1 -1 $-1 $51 $52 $53 $54 reversed $20 $-1 #
coedge $-1 -1 $-1 $55 $22 $56 $57 forward $12 $-1 #
coedge $-1 -1 $-1 $22 $58 $59 $60 reversed $12 $-1 #
coedge $-1 -1 $-1 $61 $62 $22 $36 forward $14 $-1 #
edge $63 -1 $-1 $64 -1.109218051004381 $65 -0.99386498155844005 $35 $66 reversed @7 unknown #
coedge $-1 -1 $-1 $67 $23 $68 $69 forward $14 $-1 #
coedge $-1 -1 $-1 $23 $70 $71 $72 reversed $14 $-1 #
coedge $-1 -1 $-1 $73 $51 $23 $40 reversed $20 $-1 #
edge $74 -1 $-1 $75 -2.1477276720313534 $76 -2.0323746025854121 $23 $77 reversed @7 unknown #
loop $-1 -1 $-1 $-1 $24 $29 #
truecolor-adesk-attrib $-1 -1 $78 $-1 $25 -1031698292 #
vertex $-1 -1 $-1 $25 $79 #
ellipse-curve $-1 -1 $-1 667.536232218794 185.89371970803501 180 -1.0960286922629799e-16 -1 -1.8369701987210299e-16 -1.526556658859593e-15 2.0206672185931328e-14 -110 1 I I #
DXID-attrib $-1 -1 $-1 $27 $11 @18 ASM_FACE_FROM_STEP @16 stp-2M-167-29174 #
fmesh-eye-attrib $-1 -1 $80 $28 $19 #
truecolor-adesk-attrib $-1 -1 $81 $-1 $29 -1031698292 #
face $82 -1 $-1 $83 $84 $3 $-1 $85 reversed single #
plane-surface $-1 -1 $-1 667.536232218794 185.89371970803501 180 -1.0960286922629799e-16 -1 -1.8369701987210299e-16 -1 1.0960286922629799e-16 1.3877787807814503e-17 forward_v I I I I #
coedge $-1 -1 $-1 $86 $87 $88 $89 reversed $30 $-1 #
coedge $-1 -1 $-1 $39 $32 $90 $91 forward $20 $-1 #
coedge $-1 -1 $-1 $32 $73 $92 $93 reversed $20 $-1 #
coedge $-1 -1 $-1 $94 $95 $32 $54 forward $96 $-1 #
edge $97 -1 $-1 $98 1.5707963267948966 $99 2.4980915447965089 $32 $100 forward @7 unknown #
coedge $-1 -1 $-1 $58 $33 $95 $101 reversed $12 $-1 #
coedge $-1 -1 $-1 $102 $90 $33 $57 reversed $103 $-1 #
edge $104 -1 $-1 $64 -23.093633396209764 $98 -12.856137975050229 $33 $105 forward @7 unknown #
coedge $-1 -1 $-1 $34 $55 $106 $107 reversed $12 $-1 #
coedge $-1 -1 $-1 $108 $109 $34 $60 forward $110 $-1 #
edge $111 -1 $-1 $65 4.3747803656966857 $112 13.070463158173453 $34 $113 forward @7 unknown #
coedge $-1 -1 $-1 $70 $35 $109 $114 forward $14 $-1 #
coedge $-1 -1 $-1 $35 $67 $102 $115 forward $14 $-1 #
truecolor-adesk-attrib $-1 -1 $116 $-1 $36 -1031698292 #
vertex $-1 -1 $-1 $115 $117 #
vertex $-1 -1 $-1 $36 $118 #
ellipse-curve $-1 -1 $-1 667.536232218794 255.89371970803501 180 1.0960286922629799e-16 1 1.8369701987210299e-16 110 -1.2056315614892779e-14 -1.5265566588595954e-15 1 F 0.99386498155844005 F 1.109218051004381 #
tcoedge-coedge $-1 -1 $-1 $62 $37 $119 $120 forward $14 $121 0.047688021591805102 0.090760494619022997 #
coedge $-1 -1 $-1 $90 $122 $37 $69 reversed $103 $-1 #
edge $123 -1 $-1 $76 -29.646369768821856 $124 -25.055360242584385 $37 $125 forward @7 unknown #
coedge $-1 -1 $-1 $38 $61 $126 $127 forward $14 $-1 #
coedge $-1 -1 $-1 $128 $129 $38 $72 forward $84 $-1 #
edge $130 -1 $-1 $75 0.059999999999999998 $131 0.122 $38 $132 forward @7 unknown #
coedge $-1 -1 $-1 $52 $39 $129 $133 reversed $20 $-1 #
truecolor-adesk-attrib $-1 -1 $134 $-1 $40 -1031698292 #
vertex $-1 -1 $-1 $40 $135 #
vertex $-1 -1 $-1 $40 $136 #
ellipse-curve $-1 -1 $-1 667.536232218794 255.89371970803501 180 1.0960286922629799e-16 1 1.8369701987210299e-16 110 -1.2056315614892779e-14 -1.5265566588595954e-15 1 F 2.0323746025854121 F 2.1477276720313534 #
DXID-attrib $-1 -1 $-1 $42 $25 @18 ASM_EDGE_FROM_STEP @5 17594 #
point $-1 -1 $-1 667.536232218794 185.89371970803504 70 #
DXID-attrib $-1 -1 $-1 $46 $19 @18 ASM_FACE_FROM_STEP @16 stp-2M-167-29175 #
fmesh-eye-attrib $-1 -1 $137 $47 $29 #
truecolor-adesk-attrib $-1 -1 $138 $-1 $48 -1031698292 #
face $139 -1 $-1 $140 $141 $3 $-1 $142 reversed single #
loop $-1 -1 $-1 $-1 $143 $48 #
plane-surface $-1 -1 $-1 607.536232218794 315.89371970803501 150.00000000000003 1 -1.0960286922629799e-16 -1.3877787807814503e-17 1.3877787807814481e-17 -1.8369701987210299e-16 1 forward_v I I I I #
coedge $-1 -1 $-1 $144 $50 $145 $146 forward $30 $-1 #
coedge $-1 -1 $-1 $50 $144 $147 $148 reversed $30 $-1 #
coedge $-1 -1 $-1 $143 $128 $50 $89 forward $84 $-1 #
edge $149 -1 $-1 $150 -0.0474854825112421 $151 0 $50 $152 forward @7 unknown #
coedge $-1 -1 $-1 $56 $68 $51 $91 reversed $103 $-1 #
edge $153 -1 $-1 $98 -12.856137975050229 $76 -2.6186425538906888 $51 $154 forward @7 unknown #
coedge $-1 -1 $-1 $155 $156 $52 $93 forward $141 $-1 #
edge $157 -1 $-1 $99 0.3028085577359077 $158 4.6007581976667042 $52 $159 forward @7 unknown #
coedge $-1 -1 $-1 $95 $53 $156 $160 forward $96 $-1 #
coedge $-1 -1 $-1 $53 $94 $55 $101 forward $96 $-1 #
loop $-1 -1 $-1 $-1 $95 $161 #
truecolor-adesk-attrib $-1 -1 $162 $-1 $54 -1031698292 #
vertex $-1 -1 $-1 $57 $163 #
vertex $-1 -1 $-1 $54 $164 #
ellipse-curve $-1 -1 $-1 667.536232218794 315.89371970803501 180.00000000000003 1.0960286922629799e-16 1 1.8369701987210299e-16 50 -5.4801434613148995e-15 -6.9388939039072511e-16 1 F 1.5707963267948966 F 2.4980915447965089 #
edge $165 -1 $-1 $166 0.64350110879328437 $98 1.5707963267948966 $55 $167 forward @7 unknown #
coedge $-1 -1 $-1 $122 $56 $62 $115 reversed $103 $-1 #
loop $-1 -1 $-1 $-1 $102 $168 #
truecolor-adesk-attrib $-1 -1 $169 $-1 $57 -1031698292 #
intcurve-curve $-1 -1 $-1 reversed { surfintcur full nubs 3 open 27 
	0 3 1.9146333126782666 2 3.8292666253565333 2 5.7438999380347999 2 6.7012165943739337 2 
	7.6585332507130666 2 8.3234930143976271 2 8.9884527780821859 2 9.6534125417667447 2 10.318372305451305 2 
	10.952813722851037 2 11.587255140250766 2 12.221696557650496 2 12.856137975050228 2 13.490579392449959 2 
	14.125020809849691 2 14.759462227249422 2 15.393903644649154 2 16.058863408333714 2 16.723823172018271 2 
	17.388782935702828 2 18.053742699387389 2 19.011059355726523 2 19.968376012065654 2 21.883009324743924 2 
	23.797642637422189 2 25.712275950100455 3 
	625.04881714811427 239.53428950532049 60.997793458413312 
	622.77483332782799 243.19960752219336 65.701598596385267 
	620.98214075338092 247.14989143311661 70.713296304276085 
	618.45941365254623 255.40179852246607 80.951018136990015 
	617.72762383938232 259.70253844772924 86.177321565037929 
	617.41032710649358 268.46647406231119 96.414795890544113 
	617.81915777505958 272.92171964896733 101.41992229968032 
	619.40783703550585 279.63972257897689 108.41707305710329 
	620.10082824064762 281.8849285477184 110.66317309801484 
	621.86348317325769 286.38362708645127 114.91474094213594 
	622.93221906829524 288.63730270990089 116.9203996662969 
	625.13985765207701 292.4610449017602 120.04247209229911 
	626.1995057697477 294.09765992223777 121.29678054625106 
	628.64239049766013 297.38111832192419 123.5964154370299 
	630.02663654640958 299.02803919815989 124.64055863975193 
	633.08588189345119 302.19833866058781 126.41928821597966 
	634.76450300448107 303.72413164222831 127.15501709965177 
	638.31773963837941 306.53121460103119 128.31143769688168 
	640.19233190856653 307.81186399926662 128.73375513122903 
	643.88480910326621 309.9958471014773 129.33067432576553 
	645.83859756681898 310.99597994727333 129.53761858418025 
	649.95174530868383 312.75294556804135 129.81827870003582 
	652.11103297426075 313.5096706136793 129.89371580538918 
	656.51593704312143 314.7175729543635 129.9796144759359 
	658.76335003461031 315.1692687269724 129.99123300780923 
	663.21609702461308 315.75732993472491 130.00135679870181 
	665.42142749412824 315.89371970803501 130.00000000000003 
	669.65103694345976 315.89371970803501 130.00000000000003 
	671.85636741297492 315.75732993472491 130.00135679870178 
	676.30911440297768 315.1692687269724 129.9912330078092 
	678.55652739446657 314.7175729543635 129.9796144759359 
	682.96143146332724 313.5096706136793 129.89371580538915 
	685.12071912890417 312.75294556804135 129.81827870003582 
	689.23386687076902 310.99597994727333 129.53761858418025 
	691.18765533432179 309.9958471014773 129.33067432576553 
	694.88013252902147 307.81186399926662 128.73375513122903 
	696.75472479920859 306.53121460103119 128.31143769688168 
	700.30796143310693 303.72413164222831 127.15501709965177 
	701.98658254413692 302.19833866058781 126.41928821597963 
	705.04582789117842 299.02803919815983 124.64055863975192 
	706.43007393992787 297.38111832192413 123.5964154370299 
	708.87295866784029 294.09765992223777 121.29678054625106 
	709.93260678551098 292.4610449017602 120.04247209229911 
	712.14024536929276 288.63730270990089 116.9203996662969 
	713.2089812643303 286.38362708645127 114.91474094213591 
	714.97163619694038 281.8849285477184 110.66317309801481 
	715.66462740208215 279.63972257897689 108.41707305710328 
	717.25330666252842 272.92171964896738 101.41992229968032 
	717.66213733109441 268.46647406231114 96.414795890544113 
	717.34484059820568 259.70253844772924 86.1773215650379 
	716.61305078504176 255.40179852246604 80.951018136989958 
	714.09032368420708 247.14989143311658 70.713296304276057 
	712.29763110976 243.19960752219336 65.701598596385267 
	710.02364728947373 239.53428950532046 60.997793458413312 
	0.0027348424444800382 
	cone 667.536232218794 265.89371970803506 60.000000000000014 1.3877787807814481e-17 -1.8369701987210299e-16 1 -50 5.4801434613148995e-15 6.9388939039072511e-16 1 I I 0 1 50 forward I I I I 
	cone 667.536232218794 315.89371970803501 180.00000000000003 -1.0960286922629799e-16 -1 -1.8369701987210299e-16 -50 5.4801434613148995e-15 6.9388939039072511e-16 1 I I -0.70710678118654724 -0.70710678118654779 50 forward I I I I 
	nullbs 
	nullbs 
	I I 
	0 
	0 
	0 
	} F -23.093633396209764 F -12.856137975050229 #
coedge $-1 -1 $-1 $156 $170 $58 $107 forward $141 $-1 #
edge $171 -1 $-1 $112 11.776874762304184 $166 16.074824402234977 $58 $172 forward @7 unknown #
coedge $-1 -1 $-1 $173 $59 $170 $174 forward $110 $-1 #
coedge $-1 -1 $-1 $59 $175 $61 $114 reversed $110 $-1 #
loop $-1 -1 $-1 $-1 $109 $140 #
truecolor-adesk-attrib $-1 -1 $176 $-1 $60 -1031698292 #
vertex $-1 -1 $-1 $107 $177 #
intcurve-curve $-1 -1 $-1 forward { exactcur full nurbs 2 open 2 
	0 2 39.546428410161127 2 
	727.536232218794 192.89371970803501 17.737866401307372 1 
	727.536232218794 345.08447115312163 180.00000000000003 2.8833333333333386 
	727.536232218794 192.89371970803495 342.26213359869263 1 
	0 
	null_surface 
	null_surface 
	nullbs 
	nullbs 
	I I 
	0 
	0 
	0 
	F 1 F 0 } F 4.3747803656966857 F 13.070463158173453 #
edge $178 -1 $-1 $65 0.059999999999999998 $179 0.122 $61 $180 forward @7 unknown #
edge $181 -1 $-1 $182 -20.891473449604693 $64 -16.300463923367218 $62 $183 forward @7 unknown #
DXID-attrib $-1 -1 $-1 $63 $36 @18 ASM_EDGE_FROM_STEP @5 17599 #
point $-1 -1 $-1 716.5260270744576 255.89371970803501 81.51142198203901 #
point $-1 -1 $-1 727.536232218794 255.89371970803501 87.804555427071108 #
tcoedge-coedge $-1 -1 $-1 $184 $185 $67 $120 reversed $186 $187 -0.090760494619022997 -0.047688021591805102 #
tedge-edge $188 -1 $-1 $124 0.047688021591805102 $182 0.090760494619022997 $67 $189 forward @7 unknown 0.00037523993925000414 #
pcurve $-1 -1 $-1 0 forward { exppc nubs 3 open 15 
	0.047688021591805102 3 0.052919086783985943 3 0.053072080720207401 3 0.058317495071747133 3 0.058456139848609603 3 
	0.063840198977011806 3 0.069195002459407531 3 0.069224258105414105 3 0.074608317233816293 3 0.074688920336266909 3 
	0.079992376362218606 3 0.080129062834065762 3 0.085376435490620795 3 0.085451121850343828 3 0.090760494619022997 3 
	-0.13244302939634361 1.3798136924741895 
	-0.12588911393342681 1.3943375294928284 
	-0.11998208340220821 1.4093611744798276 
	-0.11490675737193627 1.4245357968670989 
	-0.11475831836793778 1.4249796118692848 
	-0.11461057878519572 1.4254235473770942 
	-0.11446354334851644 1.4258675820571591 
	-0.10942241682552814 1.4410913611226364 
	-0.10519120304914838 1.4564456482373098 
	-0.1017541664776259 1.4719362524885642 
	-0.10166332004746982 1.472345694188675 
	-0.10157303541975185 1.4727552367307817 
	-0.10148331157124783 1.4731648859991693 
	-0.09799902232137099 1.4890729925489996 
	-0.095358971416778085 1.5051267317639385 
	-0.093580855119514084 1.52142706229652 
	-0.09181240066654088 1.5376388208635126 
	-0.090912171233345454 1.5540961250638907 
	-0.09090936410601741 1.5704815889517867 
	-0.09090934876944648 1.5705711099459247 
	-0.090909359906514289 1.5706606287597229 
	-0.090909397503307718 1.5707501452844765 
	-0.090916316624452334 1.5872243076439057 
	-0.091808440055426196 1.6036258584331682 
	-0.093564558274814871 1.6198744267770693 
	-0.093590848583553501 1.6201176791239817 
	-0.093617334880979744 1.620360897153625 
	-0.09364401725634787 1.6206040801578352 
	-0.095399642041628138 1.6366048336012651 
	-0.097999348861966235 1.6524563725801744 
	-0.10144828779355365 1.6682643497970406 
	-0.10153717762159561 1.6686717702832745 
	-0.10162663563132883 1.6690791635228179 
	-0.10171666066146924 1.6694865231745921 
	-0.10517270773899218 1.6851249976279705 
	-0.10947438959750257 1.7007105803709244 
	-0.11453753990332537 1.7159501328577194 
	-0.11460960420861158 1.7161670388740331 
	-0.11468182049493578 1.7163838748647604 
	-0.11475418877572507 1.7166006413193724 
	-0.11989877181289083 1.7320103348102269 
	-0.12580633870072358 1.7470716896300813 
	-0.1324430293963437 1.7617789611156036 
	0.00034367462537171321 
	cone 667.536232218794 205.89371970803501 180 -1.0960286922629799e-16 -1 -1.8369701987210299e-16 -110 1.2056315614892779e-14 1.5265566588595954e-15 1 I I 0 1 110 forward I I I I 
	} 0 0 #
coedge $-1 -1 $-1 $68 $102 $190 $191 forward $103 $-1 #
truecolor-adesk-attrib $-1 -1 $192 $-1 $69 -1031698292 #
tvertex-vertex $-1 -1 $-1 $69 $193 4.4515374803714521e-14 #
intcurve-curve $-1 -1 $-1 reversed { surfintcur full nubs 3 periodic 33 
	0 3 0.95807536440552399 2 1.916150728811048 2 2.874226093216572 2 3.832301457622096 2 
	4.7886774970577832 2 5.7450535364934705 2 6.7014295759291578 2 7.6578056153648451 2 8.6141816548005323 2 
	9.5705576942362214 2 10.526933733671909 2 11.483309773107596 2 12.441385137513119 2 13.399460501918643 2 
	14.357535866324167 2 15.315611230729692 2 16.273686595135217 2 17.231761959540741 2 18.189837323946264 2 
	19.147912688351788 2 20.104288727787477 2 21.060664767223162 2 22.017040806658848 2 22.973416846094537 2 
	23.929792885530226 2 24.886168924965911 2 25.842544964401597 2 26.798921003837286 2 27.75699636824281 2 
	28.715071732648333 2 29.673147097053857 2 30.631222461459384 3 
	617.536232218794 265.89371970803501 82.020410288672892 
	617.536232218794 269.08730425605347 82.020410288672892 
	617.84706278276371 272.37158113090265 81.85976880837579 
	619.1361805785624 278.87105575659461 81.217645618886493 
	620.11399128076528 282.0864392206845 80.737087430821546 
	622.6780815432204 288.22799493471615 79.552298620756019 
	624.26639603839044 291.15993837924958 78.848579765045983 
	627.91965655577019 296.57249841569012 77.362699419199032 
	629.98504683720762 299.05321244510333 76.581985526543349 
	634.37284473959585 303.44101034749161 75.092669875077632 
	636.85165785513209 305.50587363190857 74.329332611300785 
	642.26509401106694 309.16074429497991 72.905636825337879 
	645.19982794858095 310.75103704310305 72.246432819187419 
	651.34712844648902 313.31741466729505 71.153047259770275 
	654.56539425918061 314.29554373634397 70.71868985334946 
	661.06592925382222 315.58390371070908 70.1419890754416 
	664.3483120873417 315.89371970803506 70.000000000000028 
	670.7241523502463 315.89371970803506 70.000000000000028 
	674.00653518376578 315.58390371070908 70.1419890754416 
	680.50707017840739 314.29554373634397 70.71868985334946 
	683.72533599109897 313.317414667295 71.153047259770275 
	689.87263648900716 310.75103704310305 72.246432819187419 
	692.80737042652106 309.16074429497985 72.905636825337879 
	698.22080658245591 305.50587363190857 74.329332611300785 
	700.69961969799215 303.44101034749161 75.092669875077632 
	705.08741760038049 299.05321244510333 76.581985526543349 
	707.15280788181781 296.57249841569018 77.362699419199046 
	710.80606839919767 291.15993837924958 78.848579765045997 
	712.3943828943676 288.22799493471621 79.552298620756019 
	714.95847315682272 282.0864392206845 80.737087430821546 
	715.93628385902559 278.87105575659461 81.217645618886493 
	717.22540165482428 272.37158113090265 81.85976880837579 
	717.536232218794 269.08730425605347 82.020410288672892 
	717.536232218794 262.7001351600166 82.020410288672892 
	717.22540165482428 259.41585828516736 81.85976880837579 
	715.93628385902559 252.9163836594754 81.217645618886493 
	714.95847315682272 249.70100019538557 80.737087430821546 
	712.3943828943676 243.55944448135386 79.552298620756019 
	710.80606839919767 240.62750103682043 78.848579765045997 
	707.15280788181781 235.21494100037989 77.362699419199046 
	705.08741760038049 232.73422697096672 76.581985526543349 
	700.69961969799215 228.34642906857843 75.092669875077604 
	698.22080658245591 226.2815657841615 74.329332611300771 
	692.80737042652106 222.62669512109017 72.905636825337851 
	689.87263648900716 221.03640237296699 72.24643281918739 
	683.72533599109897 218.47002474877502 71.153047259770261 
	680.50707017840739 217.49189567972613 70.718689853349446 
	674.00653518376578 216.20353570536102 70.141989075441586 
	670.7241523502463 215.89371970803504 70 
	664.3483120873417 215.89371970803504 70 
	661.06592925382222 216.20353570536102 70.141989075441572 
	654.56539425918061 217.4918956797261 70.718689853349431 
	651.34712844648902 218.47002474877499 71.153047259770247 
	645.19982794858095 221.03640237296696 72.24643281918739 
	642.26509401106694 222.62669512109014 72.905636825337851 
	636.8516578551322 226.28156578416147 74.329332611300771 
	634.37284473959585 228.34642906857846 75.092669875077618 
	629.98504683720762 232.73422697096672 76.581985526543349 
	627.91965655577019 235.21494100037989 77.362699419199046 
	624.26639603839044 240.62750103682046 78.848579765045997 
	622.67808154322051 243.55944448135389 79.552298620756019 
	620.11399128076539 249.70100019538557 80.737087430821546 
	619.1361805785624 252.9163836594754 81.217645618886479 
	617.84706278276371 259.41585828516736 81.859768808375762 
	617.536232218794 262.7001351600166 82.020410288672892 
	617.536232218794 265.89371970803501 82.020410288672892 
	0.0022065415829066 
	cone 667.536232218794 265.89371970803506 60.000000000000014 1.3877787807814481e-17 -1.8369701987210299e-16 1 -50 5.4801434613148995e-15 6.9388939039072511e-16 1 I I 0 1 50 forward I I I I 
	cone 667.536232218794 205.89371970803501 180 -1.0960286922629799e-16 -1 -1.8369701987210299e-16 -110 1.2056315614892779e-14 1.5265566588595954e-15 1 I I 0 -1 110 forward I I I I 
	nullbs 
	nullbs 
	I I 
	0 
	0 
	0 
	} F -29.646369768821856 F -25.055360242584385 #
coedge $-1 -1 $-1 $194 $195 $70 $127 reversed $196 $-1 #
edge $197 -1 $-1 $179 2.1477276720313534 $131 7.2770502887380264 $70 $198 forward @7 unknown #
coedge $-1 -1 $-1 $88 $71 $195 $199 forward $84 $-1 #
coedge $-1 -1 $-1 $71 $143 $73 $133 forward $84 $-1 #
truecolor-adesk-attrib $-1 -1 $200 $-1 $72 -1031698292 #
vertex $-1 -1 $-1 $127 $201 #
straight-curve $-1 -1 $-1 607.536232218794 315.89371970803506 87.804555427071122 -1.0960286922629799e-13 -1000 -1.83697019872103e-13 F 0.059999999999999998 F 0.122 #
edge $202 -1 $-1 $158 26.475965251987645 $75 35.171648044510505 $73 $203 forward @7 unknown #
DXID-attrib $-1 -1 $-1 $74 $40 @18 ASM_EDGE_FROM_STEP @5 17595 #
point $-1 -1 $-1 607.536232218794 255.89371970803501 87.804555427071108 #
point $-1 -1 $-1 618.54643736313039 255.89371970803501 81.51142198203901 #
DXID-attrib $-1 -1 $-1 $81 $29 @18 ASM_FACE_FROM_STEP @16 stp-2M-167-29176 #
fmesh-eye-attrib $-1 -1 $204 $82 $48 #
truecolor-adesk-attrib $-1 -1 $205 $-1 $83 -1031698292 #
face $206 -1 $-1 $161 $110 $3 $-1 $207 reversed single #
loop $-1 -1 $-1 $208 $106 $83 #
plane-surface $-1 -1 $-1 607.536232218794 315.89371970803501 150.00000000000003 -1.3877787807814481e-17 1.8369701987210299e-16 -1 1 -1.0960286922629799e-16 -1.3877787807814503e-17 forward_v I I I I #
coedge $-1 -1 $-1 $129 $88 $155 $209 reversed $84 $-1 #
coedge $-1 -1 $-1 $87 $86 $173 $210 reversed $30 $-1 #
coedge $-1 -1 $-1 $195 $194 $86 $146 reversed $196 $-1 #
edge $211 -1 $-1 $150 -7.1950849119645648 $212 -2.229693048804815 $86 $213 reversed @7 unknown #
coedge $-1 -1 $-1 $170 $155 $87 $148 forward $141 $-1 #
edge $214 -1 $-1 $151 0 $215 0.12 $87 $216 forward @7 unknown #
truecolor-adesk-attrib $-1 -1 $217 $-1 $89 -1031698292 #
vertex $-1 -1 $-1 $89 $218 #
vertex $-1 -1 $-1 $89 $219 #
straight-curve $-1 -1 $-1 607.536232218794 205.89371970803501 150 1.3877787807814482e-14 -1.83697019872103e-13 1000 F -0.0474854825112421 F 0 #
truecolor-adesk-attrib $-1 -1 $220 $-1 $91 -1031698292 #
intcurve-curve $-1 -1 $-1 reversed { surfintcur full nubs 3 open 27 
	0 3 1.9146333126782666 2 3.8292666253565333 2 5.7438999380347999 2 6.7012165943739337 2 
	7.6585332507130666 2 8.3234930143976271 2 8.9884527780821859 2 9.6534125417667447 2 10.318372305451305 2 
	10.952813722851037 2 11.587255140250766 2 12.221696557650496 2 12.856137975050228 2 13.490579392449959 2 
	14.125020809849691 2 14.759462227249422 2 15.393903644649154 2 16.058863408333714 2 16.723823172018271 2 
	17.388782935702828 2 18.053742699387389 2 19.011059355726523 2 19.968376012065654 2 21.883009324743924 2 
	23.797642637422189 2 25.712275950100455 3 
	625.04881714811427 239.53428950532049 60.997793458413312 
	622.77483332782799 243.19960752219336 65.701598596385267 
	620.98214075338092 247.14989143311661 70.713296304276085 
	618.45941365254623 255.40179852246607 80.951018136990015 
	617.72762383938232 259.70253844772924 86.177321565037929 
	617.41032710649358 268.46647406231119 96.414795890544113 
	617.81915777505958 272.92171964896733 101.41992229968032 
	619.40783703550585 279.63972257897689 108.41707305710329 
	620.10082824064762 281.8849285477184 110.66317309801484 
	621.86348317325769 286.38362708645127 114.91474094213594 
	622.93221906829524 288.63730270990089 116.9203996662969 
	625.13985765207701 292.4610449017602 120.04247209229911 
	626.1995057697477 294.09765992223777 121.29678054625106 
	628.64239049766013 297.38111832192419 123.5964154370299 
	630.02663654640958 299.02803919815989 124.64055863975193 
	633.08588189345119 302.19833866058781 126.41928821597966 
	634.76450300448107 303.72413164222831 127.15501709965177 
	638.31773963837941 306.53121460103119 128.31143769688168 
	640.19233190856653 307.81186399926662 128.73375513122903 
	643.88480910326621 309.9958471014773 129.33067432576553 
	645.83859756681898 310.99597994727333 129.53761858418025 
	649.95174530868383 312.75294556804135 129.81827870003582 
	652.11103297426075 313.5096706136793 129.89371580538918 
	656.51593704312143 314.7175729543635 129.9796144759359 
	658.76335003461031 315.1692687269724 129.99123300780923 
	663.21609702461308 315.75732993472491 130.00135679870181 
	665.42142749412824 315.89371970803501 130.00000000000003 
	669.65103694345976 315.89371970803501 130.00000000000003 
	671.85636741297492 315.75732993472491 130.00135679870178 
	676.30911440297768 315.1692687269724 129.9912330078092 
	678.55652739446657 314.7175729543635 129.9796144759359 
	682.96143146332724 313.5096706136793 129.89371580538915 
	685.12071912890417 312.75294556804135 129.81827870003582 
	689.23386687076902 310.99597994727333 129.53761858418025 
	691.18765533432179 309.9958471014773 129.33067432576553 
	694.88013252902147 307.81186399926662 128.73375513122903 
	696.75472479920859 306.53121460103119 128.31143769688168 
	700.30796143310693 303.72413164222831 127.15501709965177 
	701.98658254413692 302.19833866058781 126.41928821597963 
	705.04582789117842 299.02803919815983 124.64055863975192 
	706.43007393992787 297.38111832192413 123.5964154370299 
	708.87295866784029 294.09765992223777 121.29678054625106 
	709.93260678551098 292.4610449017602 120.04247209229911 
	712.14024536929276 288.63730270990089 116.9203996662969 
	713.2089812643303 286.38362708645127 114.91474094213591 
	714.97163619694038 281.8849285477184 110.66317309801481 
	715.66462740208215 279.63972257897689 108.41707305710328 
	717.25330666252842 272.92171964896738 101.41992229968032 
	717.66213733109441 268.46647406231114 96.414795890544113 
	717.34484059820568 259.70253844772924 86.1773215650379 
	716.61305078504176 255.40179852246604 80.951018136989958 
	714.09032368420708 247.14989143311658 70.713296304276057 
	712.29763110976 243.19960752219336 65.701598596385267 
	710.02364728947373 239.53428950532046 60.997793458413312 
	0.0027348424444800382 
	cone 667.536232218794 265.89371970803506 60.000000000000014 1.3877787807814481e-17 -1.8369701987210299e-16 1 -50 5.4801434613148995e-15 6.9388939039072511e-16 1 I I 0 1 50 forward I I I I 
	cone 667.536232218794 315.89371970803501 180.00000000000003 -1.0960286922629799e-16 -1 -1.8369701987210299e-16 -50 5.4801434613148995e-15 6.9388939039072511e-16 1 I I -0.70710678118654724 -0.70710678118654779 50 forward I I I I 
	nullbs 
	nullbs 
	I I 
	0 
	0 
	0 
	} F -12.856137975050229 F -2.6186425538906888 #
coedge $-1 -1 $-1 $147 $92 $143 $209 forward $141 $-1 #
coedge $-1 -1 $-1 $92 $106 $94 $160 reversed $141 $-1 #
truecolor-adesk-attrib $-1 -1 $221 $-1 $93 -1031698292 #
vertex $-1 -1 $-1 $133 $222 #
intcurve-curve $-1 -1 $-1 forward { exactcur full nurbs 2 open 2 
	0 2 16.377632959970889 2 
	628.79694992136615 316.89645455047946 150.00000000000003 1 
	600.92857706989662 294.86255613611911 150.00000000000003 1.2158146079598751 
	509.35595531930198 204.89371970803506 150 1 
	0 
	null_surface 
	null_surface 
	nullbs 
	nullbs 
	I I 
	0 
	0 
	0 
	F 1 F 0 } F 0.3028085577359077 F 4.6007581976667042 #
edge $223 -1 $-1 $99 0.02 $166 0.10000000000000001 $156 $224 forward @7 unknown #
face $225 -1 $-1 $226 $96 $3 $-1 $227 forward single #
DXID-attrib $-1 -1 $-1 $97 $54 @18 ASM_EDGE_FROM_STEP @5 17607 #
point $-1 -1 $-1 667.536232218794 315.89371970803501 130.00000000000003 #
point $-1 -1 $-1 627.536232218794 315.89371970803501 150.00000000000003 #
truecolor-adesk-attrib $-1 -1 $228 $-1 $101 -1031698292 #
vertex $-1 -1 $-1 $101 $229 #
ellipse-curve $-1 -1 $-1 667.536232218794 315.89371970803501 180.00000000000003 1.0960286922629799e-16 1 1.8369701987210299e-16 50 -5.4801434613148995e-15 -6.9388939039072511e-16 1 F 0.64350110879328437 F 1.5707963267948966 #
face $230 -1 $-1 $231 $103 $3 $-1 $232 forward single #
DXID-attrib $-1 -1 $-1 $104 $57 @18 ASM_EDGE_FROM_STEP @5 17603 #
coedge $-1 -1 $-1 $106 $147 $108 $174 reversed $141 $-1 #
truecolor-adesk-attrib $-1 -1 $233 $-1 $107 -1031698292 #
intcurve-curve $-1 -1 $-1 forward { exactcur full nurbs 2 open 2 
	0 2 16.377632959970889 2 
	825.71650911828601 204.89371970803501 150 1 
	734.14388736769149 294.86255613611905 150.00000000000003 1.2158146079598751 
	706.27551451622185 316.89645455047946 150.00000000000003 1 
	0 
	null_surface 
	null_surface 
	nullbs 
	nullbs 
	I I 
	0 
	0 
	0 
	F 1 F 0 } F 11.776874762304184 F 16.074824402234977 #
coedge $-1 -1 $-1 $175 $108 $144 $210 forward $110 $-1 #
edge $234 -1 $-1 $112 0.017082039324993997 $215 0.11 $170 $235 forward @7 unknown #
coedge $-1 -1 $-1 $109 $173 $194 $236 forward $110 $-1 #
DXID-attrib $-1 -1 $-1 $111 $60 @18 ASM_EDGE_FROM_STEP @5 17606 #
point $-1 -1 $-1 727.536232218794 298.81168038304099 150.00000000000003 #
truecolor-adesk-attrib $-1 -1 $237 $-1 $114 -1031698292 #
vertex $-1 -1 $-1 $114 $238 #
straight-curve $-1 -1 $-1 727.536232218794 315.89371970803506 87.804555427071122 -1.0960286922629799e-13 -1000 -1.83697019872103e-13 F 0.059999999999999998 F 0.122 #
truecolor-adesk-attrib $-1 -1 $239 $-1 $115 -1031698292 #
tvertex-vertex $-1 -1 $-1 $120 $240 4.5078882992475827e-14 #
intcurve-curve $-1 -1 $-1 reversed { surfintcur full nubs 3 periodic 33 
	0 3 0.95807536440552399 2 1.916150728811048 2 2.874226093216572 2 3.832301457622096 2 
	4.7886774970577832 2 5.7450535364934705 2 6.7014295759291578 2 7.6578056153648451 2 8.6141816548005323 2 
	9.5705576942362214 2 10.526933733671909 2 11.483309773107596 2 12.441385137513119 2 13.399460501918643 2 
	14.357535866324167 2 15.315611230729692 2 16.273686595135217 2 17.231761959540741 2 18.189837323946264 2 
	19.147912688351788 2 20.104288727787477 2 21.060664767223162 2 22.017040806658848 2 22.973416846094537 2 
	23.929792885530226 2 24.886168924965911 2 25.842544964401597 2 26.798921003837286 2 27.75699636824281 2 
	28.715071732648333 2 29.673147097053857 2 30.631222461459384 3 
	617.536232218794 265.89371970803501 82.020410288672892 
	617.536232218794 269.08730425605347 82.020410288672892 
	617.84706278276371 272.37158113090265 81.85976880837579 
	619.1361805785624 278.87105575659461 81.217645618886493 
	620.11399128076528 282.0864392206845 80.737087430821546 
	622.6780815432204 288.22799493471615 79.552298620756019 
	624.26639603839044 291.15993837924958 78.848579765045983 
	627.91965655577019 296.57249841569012 77.362699419199032 
	629.98504683720762 299.05321244510333 76.581985526543349 
	634.37284473959585 303.44101034749161 75.092669875077632 
	636.85165785513209 305.50587363190857 74.329332611300785 
	642.26509401106694 309.16074429497991 72.905636825337879 
	645.19982794858095 310.75103704310305 72.246432819187419 
	651.34712844648902 313.31741466729505 71.153047259770275 
	654.56539425918061 314.29554373634397 70.71868985334946 
	661.06592925382222 315.58390371070908 70.1419890754416 
	664.3483120873417 315.89371970803506 70.000000000000028 
	670.7241523502463 315.89371970803506 70.000000000000028 
	674.00653518376578 315.58390371070908 70.1419890754416 
	680.50707017840739 314.29554373634397 70.71868985334946 
	683.72533599109897 313.317414667295 71.153047259770275 
	689.87263648900716 310.75103704310305 72.246432819187419 
	692.80737042652106 309.16074429497985 72.905636825337879 
	698.22080658245591 305.50587363190857 74.329332611300785 
	700.69961969799215 303.44101034749161 75.092669875077632 
	705.08741760038049 299.05321244510333 76.581985526543349 
	707.15280788181781 296.57249841569018 77.362699419199046 
	710.80606839919767 291.15993837924958 78.848579765045997 
	712.3943828943676 288.22799493471621 79.552298620756019 
	714.95847315682272 282.0864392206845 80.737087430821546 
	715.93628385902559 278.87105575659461 81.217645618886493 
	717.22540165482428 272.37158113090265 81.85976880837579 
	717.536232218794 269.08730425605347 82.020410288672892 
	717.536232218794 262.7001351600166 82.020410288672892 
	717.22540165482428 259.41585828516736 81.85976880837579 
	715.93628385902559 252.9163836594754 81.217645618886493 
	714.95847315682272 249.70100019538557 80.737087430821546 
	712.3943828943676 243.55944448135386 79.552298620756019 
	710.80606839919767 240.62750103682043 78.848579765045997 
	707.15280788181781 235.21494100037989 77.362699419199046 
	705.08741760038049 232.73422697096672 76.581985526543349 
	700.69961969799215 228.34642906857843 75.092669875077604 
	698.22080658245591 226.2815657841615 74.329332611300771 
	692.80737042652106 222.62669512109017 72.905636825337851 
	689.87263648900716 221.03640237296699 72.24643281918739 
	683.72533599109897 218.47002474877502 71.153047259770261 
	680.50707017840739 217.49189567972613 70.718689853349446 
	674.00653518376578 216.20353570536102 70.141989075441586 
	670.7241523502463 215.89371970803504 70 
	664.3483120873417 215.89371970803504 70 
	661.06592925382222 216.20353570536102 70.141989075441572 
	654.56539425918061 217.4918956797261 70.718689853349431 
	651.34712844648902 218.47002474877499 71.153047259770247 
	645.19982794858095 221.03640237296696 72.24643281918739 
	642.26509401106694 222.62669512109014 72.905636825337851 
	636.8516578551322 226.28156578416147 74.329332611300771 
	634.37284473959585 228.34642906857846 75.092669875077618 
	629.98504683720762 232.73422697096672 76.581985526543349 
	627.91965655577019 235.21494100037989 77.362699419199046 
	624.26639603839044 240.62750103682046 78.848579765045997 
	622.67808154322051 243.55944448135389 79.552298620756019 
	620.11399128076539 249.70100019538557 80.737087430821546 
	619.1361805785624 252.9163836594754 81.217645618886479 
	617.84706278276371 259.41585828516736 81.859768808375762 
	617.536232218794 262.7001351600166 82.020410288672892 
	617.536232218794 265.89371970803501 82.020410288672892 
	0.0022065415829066 
	cone 667.536232218794 265.89371970803506 60.000000000000014 1.3877787807814481e-17 -1.8369701987210299e-16 1 -50 5.4801434613148995e-15 6.9388939039072511e-16 1 I I 0 1 50 forward I I I I 
	cone 667.536232218794 205.89371970803501 180 -1.0960286922629799e-16 -1 -1.8369701987210299e-16 -110 1.2056315614892779e-14 1.5265566588595954e-15 1 I I 0 -1 110 forward I I I I 
	nullbs 
	nullbs 
	I I 
	0 
	0 
	0 
	} F -20.891473449604693 F -16.300463923367218 #
coedge $-1 -1 $-1 $241 $119 $242 $243 forward $186 $244 #
coedge $-1 -1 $-1 $119 $241 $245 $246 forward $186 $247 #
loop $-1 -1 $-1 $-1 $185 $248 #
pcurve $-1 -1 $-1 0 forward { exppc nubs 3 open 9 
	-0.090760494619022997 3 -0.085376435490620795 3 -0.079992376362218606 3 -0.074608317233816293 3 -0.069224258105414105 3 
	-0.063840198977011806 3 -0.058456139848609603 3 -0.053072080720207401 3 -0.047688021591805102 3 
	0.128003486123062 0.99999999999999867 
	0.1266202802943619 1 
	0.125246782409664 0.99998821351460432 
	0.12386792105491445 0.99999410675730216 
	0.1224890597001649 1 
	0.12110516504851976 1 
	0.11974335299684334 0.99999512360200327 
	0.11838154094516688 0.99999024720400653 
	0.11704133533788431 1 
	0.1157090873912847 0.99999721004956177 
	0.11437683944468512 0.99999442009912354 
	0.11305248537483506 0.99998577637290431 
	0.11171258387911015 0.99999288818645216 
	0.11037268238338521 1 
	0.10901673939168577 1 
	0.10766874462353809 0.99999357847258175 
	0.10632074985539045 0.99998715694516349 
	0.10498078863726233 1 
	0.1036380978890958 0.99999867341012749 
	0.10229540714092926 0.99999734682025498 
	0.10095118590796001 0.99998081638385627 
	0.099573695057433853 0.99999040819192819 
	0.098196204206907667 1 
	0.096783109088960692 1 
	0.095377994640550801 1 
	0.01 
	spline forward { exactsur full nurbs 3 2 both open open none none 8 2 
	0.095377994640550801 3 0.099456181075864694 1 0.103534367511179 1 0.111690740381806 1 0.11576892681712 1 
	0.119847113252434 1 0.123925299687748 1 0.128003486123062 3 
	0 2 1 2 
	651.66696632524986 231.36595696556932 60.000000000000014 1 
	652.90222820583506 230.79821965267453 60.000000000000014 1 
	655.41834101904897 229.77421752823022 60.000000000000014 1 
	660.72142027521852 228.21672348134803 60.000000000000014 1 
	666.12014175351112 227.56311686646083 60.000000000000014 1 
	671.6406969369724 227.88803129046093 60.000000000000014 1 
	675.67279484629785 228.60654925248815 60.000000000000014 1 
	679.59676187660375 229.75447818949263 60.000000000000014 1 
	682.15356367563516 230.79055679801093 60.000000000000014 1 
	683.40549811233802 231.36595696556932 60.000000000000014 1 
	646.65561920097286 220.46245294163282 59.999999999999986 0.70710678118654702 
	648.32267461036713 220.02447807152564 60.000000000000995 0.71600395718874599 
	651.68192034419667 219.22468939863253 60 0.73199890037295001 
	658.63886952656856 217.99032652409204 60 0.75619379101314099 
	665.71055569010207 217.45225180095574 60 0.766274379985044 
	672.86134546710957 217.71528074756233 60.000000000000995 0.76125878890626197 
	678.1246290134219 218.29238713419642 59.999999999997002 0.75013899441979603 
	683.31402604328071 219.20878061439095 60.000000000013003 0.73230593298676905 
	686.72757259614264 220.01864107959844 59.999999999972019 0.71612404400551699 
	688.41684523661513 220.46245294163282 59.999999999999986 0.70710678118654702 
	646.65561920097286 220.46245294163282 72 1 
	648.21753972622776 219.74458041960673 71.698019832605979 1 
	651.44225192555837 218.45484833131093 71.143888597304979 1 
	658.3924648718538 216.50422679658922 70.280320712595 1 
	665.63564999478058 215.69112231182243 69.907339748053005 1 
	673.04432931972053 216.09567433811674 70.092091607688985 1 
	678.41179993995161 216.99237338655072 70.496605519904989 1 
	683.55576511257561 218.43009521493121 71.133002863398005 1 
	686.83384318352478 219.73489116249624 71.693943950895985 1 
	688.41684523661513 220.46245294163282 72 1 
	0 
	0 
	0 
	6 0.099456181075864694 0.103534367511179 0.111690740381806 0.11576892681712 0.119847113252434 0.123925299687748 
	0 
	0 
	0 
	F 1 F 0 F 1 F 0 } I I I I 
	} 0 0 #
truecolor-adesk-attrib $-1 -1 $249 $-1 $120 -1031698292 #
intcurve-curve $-1 -1 $-1 forward { parcur summary 15 0.047688021591805102 0.052919086783985943 0.053072080720207401 0.058317495071747133 0.058456139848609603 0.063840198977011806 0.069195002459407531 0.069224258105414105 0.074608317233816293 0.074688920336266909 0.079992376362218606 0.080129062834065762 0.085376435490620795 0.085451121850343828 0.090760494619022997 0.00038250408810376624 OPEN 
	spline forward { ref 9 } I I I I 
	null_surface 
	nubs 3 open 9 
	0.047688021591805102 3 0.053072080720207401 2 0.058456139848609603 2 0.063840198977011806 2 0.069224258105414105 2 
	0.074608317233816293 2 0.079992376362218606 2 0.085376435490620795 2 0.090760494619022997 3 
	0.095377994640550801 1 
	0.096783109088960692 1 
	0.098196204206907667 1 
	0.10095118590796001 0.99998081638385627 
	0.10229540714092926 0.99999734682025498 
	0.10498078863726233 1 
	0.10632074985539045 0.99998715694516349 
	0.10901673939168577 1 
	0.11037268238338521 1 
	0.11305248537483506 0.99998577637290431 
	0.11437683944468512 0.99999442009912354 
	0.11704133533788431 1 
	0.11838154094516688 0.99999024720400653 
	0.12110516504851976 1 
	0.1224890597001649 1 
	0.125246782409664 0.99998821351460432 
	0.1266202802943619 1 
	0.128003486123062 0.99999999999999867 
	
	nullbs 
	I I 
	0 
	7 0.053072080720207401 0.058456139848609603 0.063840198977011806 0.069224258105414105 0.074608317233816293 0.079992376362218606 0.085376435490620795 
	6 0.052919086783985943 0.058317495071747133 0.069195002459407531 0.074688920336266909 0.080129062834065762 0.085451121850343828 
	surf1 } F 0.047688021591805102 F 0.090760494619022997 #
coedge $-1 -1 $-1 $245 $242 $122 $191 reversed $250 $-1 #
edge $251 -1 $-1 $182 -7.423165765221384 $124 -2.0016121955479953 $122 $252 reversed @7 unknown #
DXID-attrib $-1 -1 $-1 $123 $69 @18 ASM_EDGE_FROM_STEP @5 17596 #
point $-1 -1 $-1 646.65561920097286 220.46245294163282 72 #
coedge $-1 -1 $-1 $145 $126 $175 $236 reversed $196 $-1 #
coedge $-1 -1 $-1 $126 $145 $128 $199 reversed $196 $-1 #
loop $-1 -1 $-1 $-1 $194 $253 #
truecolor-adesk-attrib $-1 -1 $254 $-1 $127 -1031698292 #
ellipse-curve $-1 -1 $-1 667.536232218794 193.89371970803501 180 -1.0960286922629799e-16 -1 -1.8369701987210299e-16 -110 1.2056315614892779e-14 1.5265566588595954e-15 1 F 2.1477276720313534 F 7.2770502887380264 #
edge $255 -1 $-1 $131 0.073893176707645475 $150 1.0853323718170385 $128 $256 forward @7 unknown #
DXID-attrib $-1 -1 $-1 $130 $72 @18 ASM_EDGE_FROM_STEP @5 17602 #
point $-1 -1 $-1 607.536232218794 193.89371970803504 87.804555427071094 #
truecolor-adesk-attrib $-1 -1 $257 $-1 $133 -1031698292 #
intcurve-curve $-1 -1 $-1 forward { exactcur full nurbs 2 open 2 
	0 2 39.546428410161127 2 
	607.536232218794 192.89371970803495 342.26213359869263 1 
	607.536232218794 345.08447115312163 180.00000000000003 2.8833333333333386 
	607.536232218794 192.89371970803501 17.737866401307372 1 
	0 
	null_surface 
	null_surface 
	nullbs 
	nullbs 
	I I 
	0 
	0 
	0 
	F 1 F 0 } F 26.475965251987645 F 35.171648044510505 #
DXID-attrib $-1 -1 $-1 $138 $48 @18 ASM_FACE_FROM_STEP @16 stp-2M-167-29177 #
fmesh-eye-attrib $-1 -1 $258 $139 $83 #
truecolor-adesk-attrib $-1 -1 $259 $-1 $140 -1031698292 #
plane-surface $-1 -1 $-1 727.536232218794 315.89371970803501 150.00000000000003 -1 1.0960286922629799e-16 1.3877787807814503e-17 -1.3877787807814481e-17 1.8369701987210299e-16 -1 forward_v I I I I #
loop $-1 -1 $-1 $-1 $260 $83 #
edge $261 -1 $-1 $158 0.017082039324993997 $151 0.11 $143 $262 forward @7 unknown #
edge $263 -1 $-1 $215 0 $212 0.0474854825112421 $144 $264 forward @7 unknown #
truecolor-adesk-attrib $-1 -1 $265 $-1 $146 -1031698292 #
vertex $-1 -1 $-1 $146 $266 #
ellipse-curve $-1 -1 $-1 667.536232218794 205.89371970803501 180 -1.0960286922629799e-16 -1 -1.8369701987210299e-16 -97.999999999999986 1.0741081184177201e-14 1.3600232051658211e-15 1 F 2.229693048804815 F 7.1950849119645648 #
truecolor-adesk-attrib $-1 -1 $267 $-1 $148 -1031698292 #
vertex $-1 -1 $-1 $210 $268 #
straight-curve $-1 -1 $-1 607.536232218794 205.89371970803501 150 1000 -1.0960286922629799e-13 -1.3877787807814503e-14 F 0 F 0.12 #
DXID-attrib $-1 -1 $-1 $149 $89 @18 ASM_EDGE_FROM_STEP @5 17611 #
point $-1 -1 $-1 607.536232218794 205.89371970803504 102.5145174887579 #
point $-1 -1 $-1 607.536232218794 205.89371970803501 150 #
DXID-attrib $-1 -1 $-1 $153 $91 @18 ASM_EDGE_FROM_STEP @5 17608 #
DXID-attrib $-1 -1 $-1 $157 $93 @18 ASM_EDGE_FROM_STEP @5 17610 #
point $-1 -1 $-1 607.536232218794 298.81168038304099 150.00000000000003 #
truecolor-adesk-attrib $-1 -1 $269 $-1 $160 -1031698292 #
straight-curve $-1 -1 $-1 607.536232218794 315.89371970803501 150.00000000000003 1000 -1.0960286922629799e-13 -1.3877787807814503e-14 F 0.02 F 0.10000000000000001 #
truecolor-adesk-attrib $-1 -1 $270 $-1 $161 -1031698292 #
face $271 -1 $-1 $272 $273 $3 $-1 $274 forward single #
plane-surface $-1 -1 $-1 667.536232218794 315.89371970803501 180.00000000000003 1.0960286922629799e-16 1 1.8369701987210299e-16 1 -1.0960286922629799e-16 -1.3877787807814503e-17 forward_v I I I I #
DXID-attrib $-1 -1 $-1 $165 $101 @18 ASM_EDGE_FROM_STEP @5 17604 #
point $-1 -1 $-1 707.536232218794 315.89371970803501 150.00000000000003 #
truecolor-adesk-attrib $-1 -1 $275 $-1 $168 -1031698292 #
face $276 -1 $-1 $277 $278 $3 $-1 $279 forward single #
cone-surface $-1 -1 $-1 667.536232218794 265.89371970803506 60.000000000000014 1.3877787807814481e-17 -1.8369701987210299e-16 1 -50 5.4801434613148995e-15 6.9388939039072511e-16 1 I I 0 1 50 forward I I I I #
DXID-attrib $-1 -1 $-1 $171 $107 @18 ASM_EDGE_FROM_STEP @5 17605 #
truecolor-adesk-attrib $-1 -1 $280 $-1 $174 -1031698292 #
straight-curve $-1 -1 $-1 727.536232218794 315.89371970803501 150.00000000000003 -1.0960286922629799e-13 -1000 -1.83697019872103e-13 F 0.017082039324993997 F 0.11 #
edge $281 -1 $-1 $212 20.195645049344801 $179 21.207084244463932 $175 $282 forward @7 unknown #
DXID-attrib $-1 -1 $-1 $178 $114 @18 ASM_EDGE_FROM_STEP @5 17600 #
point $-1 -1 $-1 727.536232218794 193.89371970803504 87.804555427071094 #
DXID-attrib $-1 -1 $-1 $181 $115 @18 ASM_EDGE_FROM_STEP @5 17598 #
point $-1 -1 $-1 688.41684523661513 220.46245294163282 72 #
coedge $-1 -1 $-1 $185 $184 $283 $284 reversed $186 $285 #
coedge $-1 -1 $-1 $190 $286 $184 $243 reversed $250 $-1 #
edge $287 -1 $-1 $124 0 $288 1.5707963267948966 $242 $289 forward @7 unknown #
pcurve $-1 -1 $-1 0 forward { exppc nubs 1 open 2 
	0 1 1.5707963267948966 1 
	0.095377994640550828 1 
	0.095377994640550884 0 
	2.8940536501008709e-14 
	spline forward { ref 9 } I I I I 
	} 0 0 #
coedge $-1 -1 $-1 $286 $190 $185 $246 reversed $250 $-1 #
edge $290 -1 $-1 $291 1.5707963267948966 $182 3.1415926535897931 $245 $292 forward @7 unknown #
pcurve $-1 -1 $-1 0 forward { exppc nubs 1 open 2 
	1.5707963267948966 1 3.1415926535897931 1 
	0.128003486123062 0 
	0.12800348612306198 0.99999999999999967 
	2.3589194723246147e-14 
	spline forward { ref 9 } I I I I 
	} 0 0 #
face $293 -1 $-1 $-1 $186 $3 $-1 $294 forward single #
DXID-attrib $-1 -1 $-1 $188 $120 @18 ASM_EDGE_FROM_STEP @5 17597 #
loop $-1 -1 $-1 $-1 $242 $277 #
truecolor-adesk-attrib $-1 -1 $295 $-1 $191 -1031698292 #
ellipse-curve $-1 -1 $-1 667.536232218794 265.89371970803501 72.000000000000014 -1.3877787807814481e-17 1.8369701987210299e-16 -1 50 -5.4801434613148995e-15 -6.9388939039072511e-16 1 F 2.0016121955479953 F 7.423165765221384 #
face $296 -1 $-1 $168 $196 $3 $-1 $297 forward single #
DXID-attrib $-1 -1 $-1 $197 $127 @18 ASM_EDGE_FROM_STEP @5 17601 #
truecolor-adesk-attrib $-1 -1 $298 $-1 $199 -1031698292 #
intcurve-curve $-1 -1 $-1 forward { exactcur full nurbs 2 open 2 
	0 2 21.280977421161843 2 
	607.536232218794 192.89371970803504 86.613705502359721 1 
	607.536232218794 271.46128727560261 180.00000000000003 1.8500000000000019 
	607.536232218794 192.89371970803501 273.38629449764028 1 
	0 
	null_surface 
	null_surface 
	nullbs 
	nullbs 
	I I 
	0 
	0 
	0 
	F 1 F 0 } F 0.073893176707645475 F 1.0853323718170385 #
DXID-attrib $-1 -1 $-1 $202 $133 @18 ASM_EDGE_FROM_STEP @5 17609 #
DXID-attrib $-1 -1 $-1 $205 $83 @18 ASM_FACE_FROM_STEP @16 stp-2M-167-29178 #
fmesh-eye-attrib $-1 -1 $299 $206 $140 #
coedge $-1 -1 $-1 $260 $260 $300 $301 forward $208 $-1 #
truecolor-adesk-attrib $-1 -1 $302 $-1 $209 -1031698292 #
straight-curve $-1 -1 $-1 607.536232218794 315.89371970803501 150.00000000000003 -1.0960286922629799e-13 -1000 -1.83697019872103e-13 F 0.017082039324993997 F 0.11 #
truecolor-adesk-attrib $-1 -1 $303 $-1 $210 -1031698292 #
straight-curve $-1 -1 $-1 727.536232218794 205.89371970803501 150 -1.3877787807814482e-14 1.83697019872103e-13 -1000 F 0 F 0.0474854825112421 #
DXID-attrib $-1 -1 $-1 $211 $146 @18 ASM_EDGE_FROM_STEP @5 17612 #
point $-1 -1 $-1 727.536232218794 205.89371970803501 102.5145174887579 #
DXID-attrib $-1 -1 $-1 $214 $148 @18 ASM_EDGE_FROM_STEP @5 17614 #
point $-1 -1 $-1 727.536232218794 205.89371970803501 150 #
DXID-attrib $-1 -1 $-1 $223 $160 @18 ASM_EDGE_FROM_STEP @5 17617 #
fmesh-eye-attrib $-1 -1 $304 $225 $161 #
truecolor-adesk-attrib $-1 -1 $305 $-1 $226 -1031698292 #
face $306 -1 $-1 $253 $307 $3 $-1 $308 reversed single #
loop $-1 -1 $-1 $309 $310 $226 #
cone-surface $-1 -1 $-1 667.536232218794 265.89371970803501 155 -1.3877787807814481e-17 1.8369701987210299e-16 -1 25 -2.7400717306574497e-15 -3.4694469519536255e-16 1 I I 0 1 25 forward I I I I #
fmesh-eye-attrib $-1 -1 $311 $230 $168 #
truecolor-adesk-attrib $-1 -1 $312 $-1 $231 -1031698292 #
face $313 -1 $-1 $248 $250 $3 $-1 $314 forward single #
loop $-1 -1 $-1 $-1 $315 $231 #
plane-surface $-1 -1 $-1 667.536232218794 265.89371970803506 60.000000000000014 -1.3877787807814481e-17 1.8369701987210299e-16 -1 1 -1.0960286922629799e-16 -1.3877787807814503e-17 forward_v I I I I #
DXID-attrib $-1 -1 $-1 $234 $174 @18 ASM_EDGE_FROM_STEP @5 17618 #
truecolor-adesk-attrib $-1 -1 $316 $-1 $236 -1031698292 #
intcurve-curve $-1 -1 $-1 forward { exactcur full nurbs 2 open 2 
	0 2 21.28097742116185 2 
	727.536232218794 192.89371970803498 273.38629449764028 1 
	727.536232218794 271.46128727560267 180.00000000000003 1.8499999999999992 
	727.536232218794 192.89371970803501 86.613705502359693 1 
	0 
	null_surface 
	null_surface 
	nullbs 
	nullbs 
	I I 
	0 
	0 
	0 
	F 1 F 0 } F 20.195645049344801 F 21.207084244463932 #
coedge $-1 -1 $-1 $315 $315 $241 $284 forward $278 $-1 #
edge $317 -1 $-1 $291 0 $288 0.033010411454367901 $283 $318 forward @7 unknown #
pcurve $-1 -1 $-1 -1 $319 0 0 #
coedge $-1 -1 $-1 $242 $245 $315 $320 reversed $250 $-1 #
truecolor-adesk-attrib $-1 -1 $321 $-1 $243 -1031698292 #
vertex $-1 -1 $-1 $320 $322 #
ellipse-curve $-1 -1 $-1 651.66696632524997 231.36595696556932 72.000000000000014 0.90862533532804379 -0.41761226035642207 -8.9323837290014387e-17 -5.0113471242770649 -10.903504023936526 -1.9333947833386045e-15 1 F 0 F 1.5707963267948966 #
truecolor-adesk-attrib $-1 -1 $323 $-1 $246 -1031698292 #
vertex $-1 -1 $-1 $320 $324 #
ellipse-curve $-1 -1 $-1 683.40549811233802 231.36595696556932 72.000000000000014 -0.90862533532804379 -0.41761226035642185 -6.4104418089040604e-17 -5.0113471242770631 10.903504023936526 2.0724876073826415e-15 1 F 1.5707963267948966 F 3.1415926535897931 #
truecolor-adesk-attrib $-1 -1 $325 $-1 $248 -1031698292 #
spline-surface $-1 -1 $-1 forward { ref 9 } I I I I #
DXID-attrib $-1 -1 $-1 $251 $191 @18 ASM_EDGE_FROM_STEP @5 17622 #
truecolor-adesk-attrib $-1 -1 $326 $-1 $253 -1031698292 #
cone-surface $-1 -1 $-1 667.536232218794 193.89371970803501 180 -1.0960286922629799e-16 -1 -1.8369701987210299e-16 -110 1.2056315614892779e-14 1.5265566588595954e-15 1 I I 0.70710678118654724 0.70710678118654779 110 forward I I I I #
DXID-attrib $-1 -1 $-1 $255 $199 @18 ASM_EDGE_FROM_STEP @5 17616 #
DXID-attrib $-1 -1 $-1 $259 $140 @18 ASM_FACE_FROM_STEP @16 stp-2M-167-29179 #
coedge $-1 -1 $-1 $300 $300 $260 $301 reversed $309 $-1 #
edge $327 -1 $-1 $328 0 $328 6.2831853071795862 $260 $329 forward @7 unknown #
DXID-attrib $-1 -1 $-1 $261 $209 @18 ASM_EDGE_FROM_STEP @5 17615 #
DXID-attrib $-1 -1 $-1 $263 $210 @18 ASM_EDGE_FROM_STEP @5 17613 #
DXID-attrib $-1 -1 $-1 $270 $161 @18 ASM_FACE_FROM_STEP @16 stp-2M-167-29180 #
fmesh-eye-attrib $-1 -1 $330 $271 $226 #
truecolor-adesk-attrib $-1 -1 $331 $-1 $272 -1031698292 #
loop $-1 -1 $-1 $-1 $332 $272 #
plane-surface $-1 -1 $-1 667.536232218794 265.89371970803501 155 -1.3877787807814481e-17 1.8369701987210299e-16 -1 1 -1.0960286922629799e-16 -1.3877787807814503e-17 forward_v I I I I #
loop $-1 -1 $-1 $-1 $300 $226 #
coedge $-1 -1 $-1 $310 $310 $332 $333 forward $273 $-1 #
DXID-attrib $-1 -1 $-1 $275 $168 @18 ASM_FACE_FROM_STEP @16 stp-2M-167-29184 #
fmesh-eye-attrib $-1 -1 $334 $276 $231 #
truecolor-adesk-attrib $-1 -1 $335 $-1 $277 -1031698292 #
torus-surface $-1 -1 $-1 667.536232218794 265.89371970803501 72.000000000000014 -1.3877787807814481e-17 1.8369701987210299e-16 -1 38 12.000000000000002 1 -1.0960286922629799e-16 -1.3877787807814503e-17 forward_v I I I I #
coedge $-1 -1 $-1 $283 $283 $286 $320 forward $278 $-1 #
DXID-attrib $-1 -1 $-1 $281 $236 @18 ASM_EDGE_FROM_STEP @5 17620 #
truecolor-adesk-attrib $-1 -1 $336 $-1 $284 -1031698292 #
intcurve-curve $-1 -1 $-1 forward { parcur summary 13 0 0.004133708291225122 0.0082526028635919804 0.0082652298703432547 0.012378904295388 0.012397873603560348 0.016505205727183999 0.016530420301828882 0.0247578085907759 0.024795774721471896 0.0288841100225719 0.028919196503125005 0.033010411454367901 4.8281481550528193e-05 OPEN 
	spline forward { ref 9 } I I I I 
	null_surface 
	nubs 3 open 7 
	0 3 0.0082526028635919804 2 0.012378904295388 2 0.016505205727183999 2 0.0247578085907759 2 
	0.0288841100225719 2 0.033010411454367901 3 
	0.128003486123062 0 
	0.12528885282314633 0 
	0.1225770749868192 0 
	0.1185008429588878 1.7272199496980974e-05 
	0.11714467420064052 8.1686913545662034e-06 
	0.11443061055561587 0 
	0.11307288256379801 0 
	0.10900110020228515 9.0497924576520563e-06 
	0.10628766573645902 0 
	0.10221394204319227 3.1284837183345249e-06 
	0.10085578899201161 7.1713729350572944e-06 
	0.098126206229152191 0 
	0.096754325786682471 0 
	0.095377994640551786 3.2355315768460066e-13 
	
	nullbs 
	I I 
	0 
	5 0.0082526028635919804 0.012378904295388 0.016505205727183999 0.0247578085907759 0.0288841100225719 
	6 0.004133708291225122 0.0082652298703432547 0.012397873603560348 0.016530420301828882 0.024795774721471896 0.028919196503125005 
	surf1 } F 0 F 0.033010411454367901 #
intcurve-curve $-1 -1 $-1 forward { ref 16 } I I #
edge $337 -1 $-1 $288 2.001612195547994 $291 7.4231657652213849 $315 $338 forward @7 unknown #
DXID-attrib $-1 -1 $-1 $287 $243 @18 ASM_EDGE_FROM_STEP @5 17625 #
point $-1 -1 $-1 651.66696632524997 231.36595696556932 60.000000000000014 #
DXID-attrib $-1 -1 $-1 $290 $246 @18 ASM_EDGE_FROM_STEP @5 17626 #
point $-1 -1 $-1 683.40549811233802 231.36595696556932 60.000000000000014 #
fmesh-eye-attrib $-1 -1 $339 $293 $248 #
fmesh-eye-attrib $-1 -1 $340 $296 $253 #
truecolor-adesk-attrib $-1 -1 $341 $-1 $301 -1031698292 #
vertex $-1 -1 $-1 $301 $342 #
ellipse-curve $-1 -1 $-1 667.536232218794 265.89371970803501 150 -1.3877787807814481e-17 1.8369701987210299e-16 -1 25 -2.7400717306574497e-15 -3.4694469519536255e-16 1 I I #
DXID-attrib $-1 -1 $-1 $305 $226 @18 ASM_FACE_FROM_STEP @16 stp-2M-167-29181 #
fmesh-eye-attrib $-1 -1 $343 $306 $272 #
coedge $-1 -1 $-1 $332 $332 $310 $333 reversed $307 $-1 #
edge $344 -1 $-1 $345 0 $345 6.2831853071795862 $310 $346 forward @7 unknown #
DXID-attrib $-1 -1 $-1 $312 $231 @18 ASM_FACE_FROM_STEP @16 stp-2M-167-29185 #
fmesh-eye-attrib $-1 -1 $347 $313 $277 #
DXID-attrib $-1 -1 $-1 $317 $284 @18 ASM_EDGE_FROM_STEP @5 17624 #
truecolor-adesk-attrib $-1 -1 $348 $-1 $320 -1031698292 #
ellipse-curve $-1 -1 $-1 667.536232218794 265.89371970803506 60.000000000000014 -1.3877787807814481e-17 1.8369701987210299e-16 -1 38 -4.1649090305993239e-15 -5.2735593669695113e-16 1 F 2.001612195547994 F 7.4231657652213849 #
DXID-attrib $-1 -1 $-1 $325 $248 @18 ASM_FACE_FROM_STEP @16 stp-2M-167-29187 #
DXID-attrib $-1 -1 $-1 $326 $253 @18 ASM_FACE_FROM_STEP @16 stp-2M-167-29183 #
DXID-attrib $-1 -1 $-1 $327 $301 @18 ASM_EDGE_FROM_STEP @5 17619 #
point $-1 -1 $-1 692.536232218794 265.89371970803501 150 #
DXID-attrib $-1 -1 $-1 $331 $272 @18 ASM_FACE_FROM_STEP @16 stp-2M-167-29182 #
truecolor-adesk-attrib $-1 -1 $349 $-1 $333 -1031698292 #
vertex $-1 -1 $-1 $333 $350 #
ellipse-curve $-1 -1 $-1 667.536232218794 265.89371970803501 155 -1.3877787807814481e-17 1.8369701987210299e-16 -1 25 -2.7400717306574497e-15 -3.4694469519536255e-16 1 I I #
DXID-attrib $-1 -1 $-1 $335 $277 @18 ASM_FACE_FROM_STEP @16 stp-2M-167-29186 #
DXID-attrib $-1 -1 $-1 $337 $320 @18 ASM_EDGE_FROM_STEP @5 17623 #
DXID-attrib $-1 -1 $-1 $344 $333 @18 ASM_EDGE_FROM_STEP @5 17621 #
point $-1 -1 $-1 692.536232218794 265.89371970803501 155 #
