700 453 1 0         
5 ZWCAD 12 ACIS 28.0 NT 24 Mon May 13 11:23:44 2024 
1 9.9999999999999995e-07 1e-10 
body $1 -1 $-1 $2 $-1 $-1 #
DXID-attrib $-1 -1 $-1 $-1 $0 @18 ASM_BODY_FROM_STEP @83 7AB9697B0B1DC0CBE1C22A18F6EA9FB4D4D63A33|:|B8A4396250C5687B1D31E70758B30729E1AC4426 #
lump $-1 -1 $-1 $-1 $3 $0 #
shell $-1 -1 $-1 $-1 $-1 $4 $-1 $2 #
face $5 -1 $-1 $6 $7 $3 $-1 $8 reversed single #
truecolor-adesk-attrib $-1 -1 $9 $-1 $4 -1027161668 #
face $10 -1 $-1 $11 $12 $3 $-1 $13 forward single #
loop $-1 -1 $-1 $14 $15 $4 #
cone-surface $-1 -1 $-1 150.99373066958955 28.610000000000099 15.575000000000005 -1 -7.5263574764848661e-16 2.7465483441126221e-16 -4.9494984849074068e-16 0.5379954872033228 -0.32781222635658841 1 I I 0.86602540378443482 0.50000000000000666 0.630000000000003 forward I I I I #
color-adesk-attrib $-1 -1 $16 $5 $4 9 #
truecolor-adesk-attrib $-1 -1 $17 $-1 $6 -1027161668 #
face $18 -1 $-1 $19 $20 $3 $-1 $21 reversed single #
loop $-1 -1 $-1 $22 $23 $6 #
torus-surface $-1 -1 $-1 149.63000000000008 28.610000000000099 15.575000000000005 -1 -7.5263574764848661e-16 2.7465483441126221e-16 2.4500000000000002 0.29999999999999999 -7.8563468014402909e-16 0.85396109079892102 -0.52033686723267758 forward_v I I I I #
loop $-1 -1 $-1 $-1 $24 $4 #
coedge $-1 -1 $-1 $15 $15 $-1 $25 forward $7 $-1 #
DXID-attrib $-1 -1 $-1 $9 $4 @18 ASM_FACE_FROM_STEP @13 stp-1M-76-960 #
color-adesk-attrib $-1 -1 $26 $10 $6 9 #
truecolor-adesk-attrib $-1 -1 $27 $-1 $11 -1027161668 #
face $28 -1 $-1 $29 $30 $3 $-1 $31 forward single #
loop $-1 -1 $-1 $32 $33 $11 #
torus-surface $-1 -1 $-1 152.43000000000006 28.610000000000102 15.575000000000005 1 7.5263574764848661e-16 -2.7465483441126221e-16 1.5999999999999803 0.10000000000000002 -7.8563468014402909e-16 0.85396109079892091 -0.52033686723267769 forward_v I I I I #
loop $-1 -1 $-1 $-1 $34 $6 #
coedge $-1 -1 $-1 $23 $23 $35 $36 reversed $12 $-1 #
coedge $-1 -1 $-1 $37 $38 $39 $40 forward $14 $-1 #
edge $41 -1 $-1 $42 1 $42 0 $15 $-1 forward @7 unknown #
DXID-attrib $-1 -1 $-1 $17 $6 @18 ASM_FACE_FROM_STEP @13 stp-1M-76-969 #
color-adesk-attrib $-1 -1 $43 $18 $11 9 #
truecolor-adesk-attrib $-1 -1 $44 $-1 $19 -1027161668 #
face $45 -1 $-1 $46 $47 $3 $-1 $48 forward single #
loop $-1 -1 $-1 $49 $50 $19 #
cone-surface $-1 -1 $-1 158.18975000000006 28.610000000000106 15.575000000000003 -1 -7.5263574764848661e-16 2.7465483441126221e-16 -1.068266756325828e-15 1.1611735932138159 -0.70752805521962292 1 I I 0.70710678118642778 0.70710678118666725 1.35974999999998 forward I I I I #
loop $-1 -1 $-1 $-1 $51 $11 #
coedge $-1 -1 $-1 $33 $33 $52 $53 reversed $20 $-1 #
coedge $-1 -1 $-1 $34 $34 $54 $55 reversed $22 $-1 #
coedge $-1 -1 $-1 $35 $35 $23 $36 forward $56 $-1 #
edge $57 -1 $-1 $58 0.62831853068392296 $58 6.911503837863509 $23 $59 forward @7 unknown #
coedge $-1 -1 $-1 $60 $24 $61 $62 forward $14 $-1 #
coedge $-1 -1 $-1 $24 $63 $64 $65 forward $14 $-1 #
coedge $-1 -1 $-1 $66 $67 $24 $40 reversed $68 $-1 #
edge $69 -1 $-1 $70 -1.4751049965789175e-15 $71 1.0471975511965999 $24 $72 forward @7 unknown #
truecolor-adesk-attrib $-1 -1 $-1 $-1 $25 -1027161668 #
vertex $-1 -1 $-1 $25 $73 #
DXID-attrib $-1 -1 $-1 $27 $11 @18 ASM_FACE_FROM_STEP @13 stp-1M-76-978 #
color-adesk-attrib $-1 -1 $74 $28 $19 9 #
truecolor-adesk-attrib $-1 -1 $75 $-1 $29 -1027161668 #
face $76 -1 $-1 $77 $78 $3 $-1 $79 forward single #
loop $-1 -1 $-1 $80 $81 $29 #
cone-surface $-1 -1 $-1 117.58000000000007 28.610000000000074 15.575000000000014 -1 -7.5263574764848661e-16 2.7465483441126221e-16 -1.17845202021602e-15 1.2809416361983557 -0.78050530084900061 1 I I 0 1 1.49999999999997 forward I I I I #
loop $-1 -1 $-1 $-1 $82 $19 #
coedge $-1 -1 $-1 $50 $50 $83 $84 forward $30 $-1 #
coedge $-1 -1 $-1 $51 $51 $85 $86 reversed $32 $-1 #
coedge $-1 -1 $-1 $52 $52 $33 $53 forward $80 $-1 #
edge $87 -1 $-1 $88 -3.1415926535897931 $88 3.1415926535897931 $33 $89 forward @7 unknown #
coedge $-1 -1 $-1 $54 $54 $34 $55 forward $90 $-1 #
edge $91 -1 $-1 $92 -1.224646799147351e-16 $92 6.2831853071795862 $34 $93 forward @7 unknown #
loop $-1 -1 $-1 $-1 $35 $46 #
truecolor-adesk-attrib $-1 -1 $94 $-1 $36 -1027161668 #
vertex $-1 -1 $-1 $36 $95 #
ellipse-curve $-1 -1 $-1 149.63000000000008 28.610000000000099 15.575000000000005 1 7.5263574764848661e-16 -2.7465483441126221e-16 -1.4939725461705306e-15 1.058812420157998 -2.5379945348481678 1 I I #
coedge $-1 -1 $-1 $96 $37 $97 $98 forward $14 $-1 #
coedge $-1 -1 $-1 $99 $100 $37 $62 reversed $101 $-1 #
edge $102 -1 $-1 $71 1.2019374046198586e-15 $103 1.047197551196597 $37 $104 forward @7 unknown #
coedge $-1 -1 $-1 $38 $96 $105 $106 forward $14 $-1 #
coedge $-1 -1 $-1 $107 $108 $38 $65 reversed $109 $-1 #
edge $110 -1 $-1 $111 4.180127018843706e-16 $70 1.0471975511965974 $38 $112 forward @7 unknown #
coedge $-1 -1 $-1 $67 $39 $113 $114 reversed $68 $-1 #
coedge $-1 -1 $-1 $39 $66 $115 $116 forward $68 $-1 #
loop $-1 -1 $-1 $-1 $39 $117 #
truecolor-adesk-attrib $-1 -1 $118 $-1 $40 -1027161668 #
vertex $-1 -1 $-1 $40 $119 #
vertex $-1 -1 $-1 $40 $120 #
ellipse-curve $-1 -1 $-1 150.63000000000008 28.610000000000099 15.575000000000005 -1 -7.5263574764848661e-16 2.7465483441126221e-16 -3.2354586047619663e-16 -0.029791944188559127 -1.2596477444355094 1 F -1.4751049965789175e-15 F 1.0471975511965999 #
point $-1 -1 $-1 151.35746133917903 28.610000000000099 15.575000000000005 #
DXID-attrib $-1 -1 $-1 $44 $19 @18 ASM_FACE_FROM_STEP @13 stp-1M-76-987 #
color-adesk-attrib $-1 -1 $121 $45 $29 9 #
truecolor-adesk-attrib $-1 -1 $122 $-1 $46 -1027161668 #
face $123 -1 $-1 $124 $90 $3 $-1 $125 forward single #
loop $-1 -1 $-1 $56 $126 $46 #
cone-surface $-1 -1 $-1 117.58000000000007 28.610000000000074 15.575000000000014 -1 -7.5263574764848661e-16 2.7465483441126221e-16 -2.1604953703960799e-15 2.3483929996970327 -1.4309263848898635 1 I I 0 1 2.75 forward I I I I #
loop $-1 -1 $-1 $-1 $52 $29 #
coedge $-1 -1 $-1 $81 $81 $82 $127 forward $47 $-1 #
coedge $-1 -1 $-1 $82 $82 $81 $127 reversed $49 $-1 #
coedge $-1 -1 $-1 $83 $83 $50 $84 reversed $128 $-1 #
edge $129 -1 $-1 $130 -1.1198951941357277e-16 $130 6.2831853071795862 $50 $131 forward @7 unknown #
coedge $-1 -1 $-1 $85 $85 $51 $86 forward $132 $-1 #
edge $133 -1 $-1 $134 2.449293598294699e-16 $134 6.2831853071795862 $51 $135 forward @7 unknown #
truecolor-adesk-attrib $-1 -1 $136 $-1 $53 -1027161668 #
vertex $-1 -1 $-1 $53 $137 #
ellipse-curve $-1 -1 $-1 152.43000000000006 28.610000000000102 15.575000000000005 1 7.5263574764848661e-16 -2.7465483441126221e-16 1.17845202021602e-15 -1.2809416361983557 0.78050530084900049 1 I I #
loop $-1 -1 $-1 $138 $54 $77 #
truecolor-adesk-attrib $-1 -1 $139 $-1 $55 -1027161668 #
vertex $-1 -1 $-1 $55 $140 #
ellipse-curve $-1 -1 $-1 149.33000000000007 28.610000000000099 15.575000000000005 -1 -7.5263574764848661e-16 2.7465483441126221e-16 -1.9248049663528715e-15 2.0922046724573566 -1.2748253247200603 1 I I #
color-adesk-attrib $-1 -1 $141 $57 $36 9 #
point $-1 -1 $-1 149.63000000000008 30.958392999697132 14.144073615110141 #
coedge $-1 -1 $-1 $63 $60 $142 $143 forward $14 $-1 #
coedge $-1 -1 $-1 $144 $145 $60 $98 reversed $146 $-1 #
edge $147 -1 $-1 $103 4.2659943381552922e-16 $148 1.0471975511965992 $60 $149 forward @7 unknown #
coedge $-1 -1 $-1 $100 $61 $150 $151 forward $101 $-1 #
coedge $-1 -1 $-1 $61 $99 $152 $153 forward $101 $-1 #
loop $-1 -1 $-1 $-1 $61 $154 #
truecolor-adesk-attrib $-1 -1 $155 $-1 $62 -1027161668 #
vertex $-1 -1 $-1 $62 $156 #
ellipse-curve $-1 -1 $-1 150.63000000000008 28.610000000000099 15.575000000000005 -1 -7.5263574764848661e-16 2.7465483441126221e-16 6.6635383650528059e-16 -1.1057829185951995 -0.60402329172233338 1 F 1.2019374046198586e-15 F 1.047197551196597 #
coedge $-1 -1 $-1 $157 $158 $63 $106 reversed $159 $-1 #
edge $160 -1 $-1 $161 1.3112044414034822e-15 $111 1.047197551196597 $63 $162 forward @7 unknown #
coedge $-1 -1 $-1 $108 $64 $163 $164 forward $109 $-1 #
coedge $-1 -1 $-1 $64 $107 $165 $166 reversed $109 $-1 #
loop $-1 -1 $-1 $-1 $64 $167 #
truecolor-adesk-attrib $-1 -1 $168 $-1 $65 -1027161668 #
vertex $-1 -1 $-1 $106 $169 #
ellipse-curve $-1 -1 $-1 150.63000000000008 28.610000000000099 15.575000000000005 -1 -7.5263574764848661e-16 2.7465483441126221e-16 -9.8989969698147663e-16 1.0759909744066405 -0.65562445271317371 1 F 4.180127018843706e-16 F 1.0471975511965974 #
coedge $-1 -1 $-1 $165 $170 $66 $114 forward $171 $-1 #
edge $172 -1 $-1 $173 3.1678239138640793e-15 $70 0.72746133917893607 $113 $174 forward @7 unknown #
coedge $-1 -1 $-1 $175 $150 $67 $116 reversed $176 $-1 #
edge $177 -1 $-1 $173 1.6525460586104811e-17 $71 0.72746133917892164 $115 $178 forward @7 unknown #
face $179 -1 $-1 $167 $68 $3 $-1 $180 forward single #
color-adesk-attrib $-1 -1 $181 $69 $40 9 #
point $-1 -1 $-1 150.63000000000008 28.580208055811543 14.315352255564498 #
point $-1 -1 $-1 150.63000000000008 27.504217081404899 14.970976708277673 #
DXID-attrib $-1 -1 $-1 $75 $29 @18 ASM_FACE_FROM_STEP @13 stp-1M-76-996 #
color-adesk-attrib $-1 -1 $182 $76 $46 9 #
truecolor-adesk-attrib $-1 -1 $183 $-1 $77 -1027161668 #
face $184 -1 $-1 $185 $186 $3 $-1 $187 forward single #
plane-surface $-1 -1 $-1 149.33000000000007 28.610000000000099 15.575000000000005 -1 -7.5263574764848661e-16 2.7465483441126221e-16 -7.8563468014402909e-16 0.85396109079892102 -0.52033686723267758 forward_v I I I I #
coedge $-1 -1 $-1 $126 $126 $188 $189 forward $78 $-1 #
edge $190 -1 $-1 $191 0.62831853068392274 $191 6.911503837863509 $82 $192 forward @7 unknown #
loop $-1 -1 $-1 $-1 $83 $185 #
truecolor-adesk-attrib $-1 -1 $193 $-1 $84 -1027161668 #
vertex $-1 -1 $-1 $84 $194 #
ellipse-curve $-1 -1 $-1 158.33000000000007 28.610000000000106 15.575000000000003 -1 -7.5263574764848661e-16 2.7465483441126221e-16 -9.5808149243564345e-16 1.0414055502292843 -0.63455080959025034 1 I I #
loop $-1 -1 $-1 $-1 $85 $124 #
truecolor-adesk-attrib $-1 -1 $195 $-1 $86 -1027161668 #
vertex $-1 -1 $-1 $86 $196 #
ellipse-curve $-1 -1 $-1 152.33000000000007 28.610000000000102 15.575000000000005 -1 -7.5263574764848661e-16 2.7465483441126221e-16 1.257015488230431e-15 -1.3663377452782568 0.83253898757227385 1 I I #
color-adesk-attrib $-1 -1 $197 $87 $53 9 #
point $-1 -1 $-1 152.43000000000006 29.890941636198466 14.794494699150999 #
loop $-1 -1 $-1 $-1 $198 $77 #
color-adesk-attrib $-1 -1 $199 $91 $55 9 #
point $-1 -1 $-1 149.33000000000007 30.702204672457455 14.300174675279944 #
DXID-attrib $-1 -1 $-1 $94 $36 @18 ASM_EDGE_FROM_STEP @5 20046 #
coedge $-1 -1 $-1 $200 $201 $96 $143 reversed $202 $-1 #
edge $203 -1 $-1 $148 2.0214401804970348e-15 $161 1.0471975511966001 $96 $204 forward @7 unknown #
coedge $-1 -1 $-1 $145 $97 $205 $206 forward $146 $-1 #
coedge $-1 -1 $-1 $97 $144 $207 $208 reversed $146 $-1 #
loop $-1 -1 $-1 $-1 $97 $209 #
truecolor-adesk-attrib $-1 -1 $210 $-1 $98 -1027161668 #
vertex $-1 -1 $-1 $98 $211 #
ellipse-curve $-1 -1 $-1 150.63000000000008 28.610000000000099 15.575000000000005 -1 -7.5263574764848661e-16 2.7465483441126221e-16 9.8989969698147643e-16 -1.07599097440664 0.65562445271317449 1 F 4.2659943381552922e-16 F 1.0471975511965992 #
coedge $-1 -1 $-1 $115 $212 $99 $151 reversed $176 $-1 #
edge $213 -1 $-1 $71 0 $214 0.72746133917893474 $150 $215 forward @7 unknown #
coedge $-1 -1 $-1 $216 $205 $100 $153 reversed $217 $-1 #
edge $218 -1 $-1 $214 0 $103 0.72746133917892652 $152 $219 forward @7 unknown #
face $220 -1 $-1 $117 $101 $3 $-1 $221 forward single #
color-adesk-attrib $-1 -1 $222 $102 $62 9 #
point $-1 -1 $-1 150.63000000000008 27.534009025593452 16.230624452713183 #
coedge $-1 -1 $-1 $158 $105 $223 $224 reversed $159 $-1 #
coedge $-1 -1 $-1 $105 $157 $225 $226 forward $159 $-1 #
loop $-1 -1 $-1 $-1 $105 $227 #
truecolor-adesk-attrib $-1 -1 $228 $-1 $106 -1027161668 #
vertex $-1 -1 $-1 $143 $229 #
ellipse-curve $-1 -1 $-1 150.63000000000008 28.610000000000099 15.575000000000005 -1 -7.5263574764848661e-16 2.7465483441126221e-16 -6.663538365052799e-16 1.1057829185951986 0.60402329172233427 1 F 1.3112044414034822e-15 F 1.047197551196597 #
coedge $-1 -1 $-1 $225 $230 $107 $164 reversed $231 $-1 #
edge $232 -1 $-1 $111 -1.0276162301009253e-15 $233 0.72746133917892752 $163 $234 forward @7 unknown #
coedge $-1 -1 $-1 $235 $113 $108 $166 forward $171 $-1 #
edge $236 -1 $-1 $70 0 $233 0.72746133917891909 $165 $237 forward @7 unknown #
face $238 -1 $-1 $-1 $109 $3 $-1 $239 forward single #
color-adesk-attrib $-1 -1 $240 $110 $65 9 #
point $-1 -1 $-1 150.63000000000008 29.685990974406739 14.91937554728683 #
coedge $-1 -1 $-1 $113 $241 $175 $242 reversed $171 $-1 #
loop $-1 -1 $-1 $-1 $241 $243 #
truecolor-adesk-attrib $-1 -1 $244 $-1 $114 -1027161668 #
vertex $-1 -1 $-1 $242 $245 #
straight-curve $-1 -1 $-1 150.63000000000008 27.852950091477588 14.332552642561442 -7.5891938365464055e-16 0.99972043209167349 -0.023644400149649906 F 3.1678239138640793e-15 F 0.72746133917893607 #
coedge $-1 -1 $-1 $246 $115 $170 $242 forward $176 $-1 #
loop $-1 -1 $-1 $-1 $246 $247 #
truecolor-adesk-attrib $-1 -1 $248 $-1 $116 -1027161668 #
straight-curve $-1 -1 $-1 150.63000000000008 27.852950091477592 14.332552642561451 6.0183979854294104e-16 -0.47938356485899553 0.87760549094857054 F 1.6525460586104811e-17 F 0.72746133917892164 #
truecolor-adesk-attrib $-1 -1 $249 $-1 $117 -1027161668 #
plane-surface $-1 -1 $-1 150.63000000000008 29.30746602014548 14.298151868567555 -1 -7.5263574764848661e-16 2.7465483441126221e-16 -7.8563468014402909e-16 0.85396109079892102 -0.52033686723267758 forward_v I I I I #
DXID-attrib $-1 -1 $-1 $118 $40 @18 ASM_EDGE_FROM_STEP @5 20040 #
DXID-attrib $-1 -1 $-1 $122 $46 @18 ASM_FACE_FROM_STEP @14 stp-1M-76-1005 #
color-adesk-attrib $-1 -1 $250 $123 $77 9 #
truecolor-adesk-attrib $-1 -1 $251 $-1 $124 -1027161668 #
face $252 -1 $-1 $243 $128 $3 $-1 $253 forward single #
loop $-1 -1 $-1 $132 $188 $124 #
plane-surface $-1 -1 $-1 152.33000000000007 27.179073615110237 13.226607000302971 1 7.5263574764848661e-16 -2.7465483441126221e-16 7.8563468014402909e-16 -0.85396109079892102 0.52033686723267758 forward_v I I I I #
coedge $-1 -1 $-1 $188 $188 $126 $189 reversed $186 $-1 #
edge $254 -1 $-1 $255 -1.3547211507649781e-16 $255 6.2831853071795862 $126 $256 forward @7 unknown #
truecolor-adesk-attrib $-1 -1 $257 $-1 $127 -1027161668 #
vertex $-1 -1 $-1 $127 $258 #
ellipse-curve $-1 -1 $-1 158.04950000000002 28.610000000000106 15.575000000000003 -1 -7.5263574764848661e-16 2.7465483441126221e-16 -1.09188130677465e-15 1.4950730576661984 0.12147655016732528 1 I I #
color-adesk-attrib $-1 -1 $259 $129 $84 9 #
point $-1 -1 $-1 158.33000000000007 29.651405550229391 14.940449190409751 #
color-adesk-attrib $-1 -1 $260 $133 $86 9 #
point $-1 -1 $-1 152.33000000000007 27.243662254721844 16.407538987572277 #
DXID-attrib $-1 -1 $261 $136 $53 @18 ASM_EDGE_FROM_STEP @5 20049 #
coedge $-1 -1 $-1 $262 $263 $241 $264 forward $138 $-1 #
DXID-attrib $-1 -1 $-1 $139 $55 @18 ASM_EDGE_FROM_STEP @5 20047 #
coedge $-1 -1 $-1 $201 $142 $265 $266 reversed $202 $-1 #
coedge $-1 -1 $-1 $142 $200 $267 $268 reversed $202 $-1 #
loop $-1 -1 $-1 $-1 $142 $269 #
truecolor-adesk-attrib $-1 -1 $270 $-1 $143 -1027161668 #
ellipse-curve $-1 -1 $-1 150.63000000000008 28.610000000000099 15.575000000000005 -1 -7.5263574764848661e-16 2.7465483441126221e-16 3.2354586047619752e-16 0.029791944188557906 1.2596477444355094 1 F 2.0214401804970348e-15 F 1.0471975511966001 #
coedge $-1 -1 $-1 $152 $271 $144 $206 reversed $217 $-1 #
edge $272 -1 $-1 $103 -1.6301993820056e-16 $273 0.72746133917893119 $205 $274 forward @7 unknown #
coedge $-1 -1 $-1 $275 $265 $145 $208 forward $276 $-1 #
edge $277 -1 $-1 $148 0 $273 0.72746133917893752 $207 $278 forward @7 unknown #
face $279 -1 $-1 $154 $146 $3 $-1 $280 forward single #
color-adesk-attrib $-1 -1 $281 $147 $98 9 #
point $-1 -1 $-1 150.63000000000008 28.639791944188662 16.834647744435522 #
coedge $-1 -1 $-1 $150 $246 $216 $282 reversed $176 $-1 #
truecolor-adesk-attrib $-1 -1 $283 $-1 $151 -1027161668 #
vertex $-1 -1 $-1 $153 $284 #
straight-curve $-1 -1 $-1 150.63000000000008 27.504217081404899 14.970976708277673 6.0183979854294104e-16 -0.47938356485899553 0.87760549094857054 F 0 F 0.72746133917893474 #
coedge $-1 -1 $-1 $285 $152 $212 $282 forward $217 $-1 #
loop $-1 -1 $-1 $-1 $285 $286 #
truecolor-adesk-attrib $-1 -1 $287 $-1 $153 -1027161668 #
straight-curve $-1 -1 $-1 150.63000000000008 27.1554840713322 15.609400773993904 -1.5707958511170007e-16 0.52033686723267858 0.85396109079892035 F 0 F 0.72746133917892652 #
truecolor-adesk-attrib $-1 -1 $288 $-1 $154 -1027161668 #
plane-surface $-1 -1 $-1 150.63000000000008 29.30746602014548 14.298151868567555 -1 -7.5263574764848661e-16 2.7465483441126221e-16 -7.8563468014402909e-16 0.85396109079892102 -0.52033686723267758 forward_v I I I I #
DXID-attrib $-1 -1 $-1 $155 $62 @18 ASM_EDGE_FROM_STEP @5 20041 #
coedge $-1 -1 $-1 $267 $289 $157 $224 forward $290 $-1 #
edge $291 -1 $-1 $292 0 $161 0.72746133917891587 $223 $293 forward @7 unknown #
coedge $-1 -1 $-1 $294 $163 $158 $226 reversed $231 $-1 #
edge $295 -1 $-1 $292 0 $111 0.72746133917893052 $225 $296 forward @7 unknown #
face $297 -1 $-1 $269 $159 $3 $-1 $298 forward single #
color-adesk-attrib $-1 -1 $299 $160 $106 9 #
point $-1 -1 $-1 150.63000000000008 29.715782918595298 16.179023291722338 #
coedge $-1 -1 $-1 $163 $300 $235 $301 reversed $231 $-1 #
loop $-1 -1 $-1 $-1 $300 $302 #
truecolor-adesk-attrib $-1 -1 $303 $-1 $164 -1027161668 #
vertex $-1 -1 $-1 $166 $304 #
straight-curve $-1 -1 $-1 150.63000000000008 29.685990974406732 14.919375547286835 1.5707958511170007e-16 -0.52033686723267858 -0.85396109079892035 F -1.0276162301009253e-15 F 0.72746133917892752 #
coedge $-1 -1 $-1 $241 $165 $230 $301 forward $171 $-1 #
truecolor-adesk-attrib $-1 -1 $305 $-1 $166 -1027161668 #
straight-curve $-1 -1 $-1 150.63000000000008 28.580208055811543 14.315352255564498 -7.5891938365464055e-16 0.99972043209167349 -0.023644400149649906 F 0 F 0.72746133917891909 #
truecolor-adesk-attrib $-1 -1 $306 $-1 $167 -1027161668 #
plane-surface $-1 -1 $-1 150.63000000000008 29.30746602014548 14.298151868567555 -1 -7.5263574764848661e-16 2.7465483441126221e-16 -7.8563468014402909e-16 0.85396109079892102 -0.52033686723267758 forward_v I I I I #
DXID-attrib $-1 -1 $-1 $168 $65 @18 ASM_EDGE_FROM_STEP @5 20045 #
coedge $-1 -1 $-1 $170 $235 $198 $264 reversed $171 $-1 #
edge $307 -1 $-1 $173 0 $308 1.3 $170 $309 forward @7 unknown #
face $310 -1 $-1 $302 $171 $3 $-1 $311 forward single #
color-adesk-attrib $-1 -1 $312 $172 $114 9 #
point $-1 -1 $-1 150.63000000000008 27.852950091477592 14.332552642561451 #
coedge $-1 -1 $-1 $212 $175 $263 $313 forward $176 $-1 #
face $314 -1 $-1 $227 $176 $3 $-1 $315 reversed single #
color-adesk-attrib $-1 -1 $316 $177 $116 9 #
color-adesk-attrib $-1 -1 $317 $179 $117 9 #
DXID-attrib $-1 -1 $-1 $183 $77 @18 ASM_FACE_FROM_STEP @14 stp-1M-76-1014 #
color-adesk-attrib $-1 -1 $318 $184 $124 9 #
truecolor-adesk-attrib $-1 -1 $319 $-1 $185 -1027161668 #
plane-surface $-1 -1 $-1 158.33000000000007 27.975449190409854 14.533594449770717 1 7.5263574764848661e-16 -2.7465483441126221e-16 7.8563468014402909e-16 -0.85396109079892102 0.52033686723267758 forward_v I I I I #
truecolor-adesk-attrib $-1 -1 $320 $-1 $189 -1027161668 #
vertex $-1 -1 $-1 $189 $321 #
ellipse-curve $-1 -1 $-1 152.33000000000007 28.610000000000102 15.575000000000005 -1 -7.5263574764848661e-16 2.7465483441126221e-16 -2.1604953703960799e-15 2.3483929996970327 -1.4309263848898635 1 I I #
color-adesk-attrib $-1 -1 $322 $190 $127 9 #
point $-1 -1 $-1 158.04950000000002 29.890941636198452 14.794494699151008 #
DXID-attrib $-1 -1 $-1 $193 $84 @18 ASM_EDGE_FROM_STEP @5 20051 #
DXID-attrib $-1 -1 $-1 $195 $86 @18 ASM_EDGE_FROM_STEP @5 20050 #
DXID-attrib $-1 -1 $-1 $197 $53 @18 ASM_EDGE_FROM_STEP @5 20048 #
coedge $-1 -1 $-1 $323 $198 $300 $324 reversed $138 $-1 #
coedge $-1 -1 $-1 $198 $325 $246 $313 reversed $138 $-1 #
edge $326 -1 $-1 $308 0 $327 1.4549226783578519 $198 $328 forward @7 unknown #
coedge $-1 -1 $-1 $207 $329 $200 $266 forward $276 $-1 #
edge $330 -1 $-1 $331 9.3534571962293463e-16 $148 0.72746133917892408 $265 $332 forward @7 unknown #
coedge $-1 -1 $-1 $333 $223 $201 $268 forward $290 $-1 #
edge $334 -1 $-1 $161 0 $331 0.72746133917893696 $267 $335 forward @7 unknown #
face $336 -1 $-1 $209 $202 $3 $-1 $337 forward single #
color-adesk-attrib $-1 -1 $338 $203 $143 9 #
coedge $-1 -1 $-1 $205 $285 $275 $339 reversed $217 $-1 #
truecolor-adesk-attrib $-1 -1 $340 $-1 $206 -1027161668 #
vertex $-1 -1 $-1 $208 $341 #
straight-curve $-1 -1 $-1 150.63000000000008 27.534009025593452 16.230624452713183 -1.5707958511170007e-16 0.52033686723267858 0.85396109079892035 F -1.6301993820056e-16 F 0.72746133917893119 #
coedge $-1 -1 $-1 $342 $207 $271 $339 forward $276 $-1 #
loop $-1 -1 $-1 $-1 $342 $343 #
truecolor-adesk-attrib $-1 -1 $344 $-1 $208 -1027161668 #
straight-curve $-1 -1 $-1 150.63000000000008 28.639791944188662 16.834647744435522 7.5891938365464183e-16 -0.99972043209167483 0.023644400149651423 F 0 F 0.72746133917893752 #
truecolor-adesk-attrib $-1 -1 $345 $-1 $209 -1027161668 #
plane-surface $-1 -1 $-1 150.63000000000008 29.30746602014548 14.298151868567555 -1 -7.5263574764848661e-16 2.7465483441126221e-16 -7.8563468014402909e-16 0.85396109079892102 -0.52033686723267758 forward_v I I I I #
DXID-attrib $-1 -1 $-1 $210 $98 @18 ASM_EDGE_FROM_STEP @5 20042 #
edge $346 -1 $-1 $214 0 $347 1.3 $216 $348 forward @7 unknown #
color-adesk-attrib $-1 -1 $349 $213 $151 9 #
point $-1 -1 $-1 150.63000000000008 27.1554840713322 15.609400773993904 #
coedge $-1 -1 $-1 $271 $216 $325 $350 forward $217 $-1 #
face $351 -1 $-1 $247 $217 $3 $-1 $352 reversed single #
color-adesk-attrib $-1 -1 $353 $218 $153 9 #
color-adesk-attrib $-1 -1 $354 $220 $154 9 #
coedge $-1 -1 $-1 $223 $355 $294 $356 reversed $290 $-1 #
loop $-1 -1 $-1 $-1 $355 $357 #
truecolor-adesk-attrib $-1 -1 $358 $-1 $224 -1027161668 #
vertex $-1 -1 $-1 $226 $359 #
straight-curve $-1 -1 $-1 150.63000000000008 30.064515928667984 15.540599226006119 6.0183979854294104e-16 -0.47938356485899553 0.87760549094857054 F 0 F 0.72746133917891587 #
coedge $-1 -1 $-1 $300 $225 $289 $356 forward $231 $-1 #
truecolor-adesk-attrib $-1 -1 $360 $-1 $226 -1027161668 #
straight-curve $-1 -1 $-1 150.63000000000008 30.064515928667984 15.540599226006119 1.5707958511170007e-16 -0.52033686723267858 -0.85396109079892035 F 0 F 0.72746133917893052 #
truecolor-adesk-attrib $-1 -1 $361 $-1 $227 -1027161668 #
plane-surface $-1 -1 $-1 150.63000000000008 29.30746602014548 14.298151868567555 -1 -7.5263574764848661e-16 2.7465483441126221e-16 -7.8563468014402909e-16 0.85396109079892102 -0.52033686723267758 forward_v I I I I #
DXID-attrib $-1 -1 $-1 $228 $106 @18 ASM_EDGE_FROM_STEP @5 20044 #
coedge $-1 -1 $-1 $230 $294 $262 $324 forward $231 $-1 #
edge $362 -1 $-1 $233 0 $327 1.3 $235 $363 forward @7 unknown #
face $364 -1 $-1 $357 $231 $3 $-1 $365 reversed single #
color-adesk-attrib $-1 -1 $366 $232 $164 9 #
point $-1 -1 $-1 150.63000000000008 29.30746602014548 14.298151868567555 #
color-adesk-attrib $-1 -1 $367 $236 $166 9 #
color-adesk-attrib $-1 -1 $368 $238 $167 9 #
truecolor-adesk-attrib $-1 -1 $369 $-1 $242 -1027161668 #
vertex $-1 -1 $-1 $264 $370 #
straight-curve $-1 -1 $-1 150.63000000000008 27.852950091477595 14.332552642561449 -1 -7.5263574764848661e-16 2.7465483441126221e-16 F 0 F 1.3 #
truecolor-adesk-attrib $-1 -1 $371 $-1 $243 -1027161668 #
plane-surface $-1 -1 $-1 150.63000000000008 27.852950091477599 14.332552642561447 2.5678242894936247e-16 0.023644400149650024 0.99972043209167416 7.5891938365464104e-16 -0.99972043209167427 0.02364440014965008 forward_v I I I I #
DXID-attrib $-1 -1 $-1 $244 $114 @18 ASM_EDGE_FROM_STEP @5 20061 #
edge $372 -1 $-1 $308 1.828179696949122e-15 $347 1.4549226783578584 $263 $373 forward @7 unknown #
truecolor-adesk-attrib $-1 -1 $374 $-1 $247 -1027161668 #
plane-surface $-1 -1 $-1 150.63000000000008 27.852950091477599 14.332552642561447 5.2885225119466653e-16 -0.87760549094857043 -0.47938356485899541 -6.0183979854294104e-16 0.47938356485899553 -0.87760549094857054 forward_v I I I I #
DXID-attrib $-1 -1 $-1 $248 $116 @18 ASM_EDGE_FROM_STEP @5 20077 #
DXID-attrib $-1 -1 $-1 $249 $117 @18 ASM_FACE_FROM_STEP @14 stp-1M-76-1131 #
DXID-attrib $-1 -1 $-1 $251 $124 @18 ASM_FACE_FROM_STEP @14 stp-1M-76-1023 #
color-adesk-attrib $-1 -1 $375 $252 $185 9 #
color-adesk-attrib $-1 -1 $376 $254 $189 9 #
point $-1 -1 $-1 152.33000000000007 30.958392999697136 14.144073615110141 #
DXID-attrib $-1 -1 $-1 $257 $127 @18 ASM_EDGE_FROM_STEP @5 20052 #
coedge $-1 -1 $-1 $377 $262 $355 $378 forward $138 $-1 #
edge $379 -1 $-1 $380 0 $327 1.4549226783578588 $262 $381 forward @7 unknown #
coedge $-1 -1 $-1 $263 $377 $285 $350 reversed $138 $-1 #
truecolor-adesk-attrib $-1 -1 $382 $-1 $264 -1027161668 #
vertex $-1 -1 $-1 $264 $383 #
straight-curve $-1 -1 $-1 149.33000000000007 27.852950091477592 14.332552642561451 -7.5891938365464055e-16 0.99972043209167349 -0.023644400149649906 F 0 F 1.4549226783578519 #
coedge $-1 -1 $-1 $265 $342 $333 $384 reversed $276 $-1 #
truecolor-adesk-attrib $-1 -1 $385 $-1 $266 -1027161668 #
vertex $-1 -1 $-1 $268 $386 #
straight-curve $-1 -1 $-1 150.63000000000008 29.367049908522603 16.817447357438571 7.5891938365464183e-16 -0.99972043209167483 0.023644400149651423 F 9.3534571962293463e-16 F 0.72746133917892408 #
coedge $-1 -1 $-1 $355 $267 $329 $384 forward $290 $-1 #
truecolor-adesk-attrib $-1 -1 $387 $-1 $268 -1027161668 #
straight-curve $-1 -1 $-1 150.63000000000008 29.715782918595298 16.179023291722338 6.0183979854294104e-16 -0.47938356485899553 0.87760549094857054 F 0 F 0.72746133917893696 #
truecolor-adesk-attrib $-1 -1 $388 $-1 $269 -1027161668 #
plane-surface $-1 -1 $-1 150.63000000000008 29.30746602014548 14.298151868567555 -1 -7.5263574764848661e-16 2.7465483441126221e-16 -7.8563468014402909e-16 0.85396109079892102 -0.52033686723267758 forward_v I I I I #
DXID-attrib $-1 -1 $-1 $270 $143 @18 ASM_EDGE_FROM_STEP @5 20043 #
edge $389 -1 $-1 $273 0 $390 1.3 $275 $391 forward @7 unknown #
color-adesk-attrib $-1 -1 $392 $272 $206 9 #
point $-1 -1 $-1 150.63000000000008 27.912533979854704 16.851848131432469 #
coedge $-1 -1 $-1 $329 $275 $377 $393 reversed $276 $-1 #
face $394 -1 $-1 $286 $276 $3 $-1 $395 forward single #
color-adesk-attrib $-1 -1 $396 $277 $208 9 #
color-adesk-attrib $-1 -1 $397 $279 $209 9 #
truecolor-adesk-attrib $-1 -1 $398 $-1 $282 -1027161668 #
vertex $-1 -1 $-1 $350 $399 #
straight-curve $-1 -1 $-1 150.63000000000008 27.1554840713322 15.609400773993904 -1 -7.5263574764848661e-16 2.7465483441126221e-16 F 0 F 1.3 #
DXID-attrib $-1 -1 $-1 $283 $151 @18 ASM_EDGE_FROM_STEP @5 20076 #
edge $400 -1 $-1 $347 0 $390 1.4549226783578577 $325 $401 forward @7 unknown #
truecolor-adesk-attrib $-1 -1 $402 $-1 $286 -1027161668 #
plane-surface $-1 -1 $-1 150.63000000000008 27.1554840713322 15.609400773993904 7.856346801440289e-16 -0.85396109079892035 0.52033686723267858 1.5707958511170005e-16 -0.52033686723267858 -0.85396109079892035 forward_v I I I I #
DXID-attrib $-1 -1 $-1 $287 $153 @18 ASM_EDGE_FROM_STEP @5 20074 #
DXID-attrib $-1 -1 $-1 $288 $154 @18 ASM_FACE_FROM_STEP @14 stp-1M-76-1122 #
coedge $-1 -1 $-1 $289 $333 $323 $378 reversed $290 $-1 #
edge $403 -1 $-1 $292 0 $380 1.3 $294 $404 forward @7 unknown #
face $405 -1 $-1 $343 $290 $3 $-1 $406 forward single #
color-adesk-attrib $-1 -1 $407 $291 $224 9 #
point $-1 -1 $-1 150.63000000000008 30.064515928667984 15.540599226006119 #
color-adesk-attrib $-1 -1 $408 $295 $226 9 #
color-adesk-attrib $-1 -1 $409 $297 $227 9 #
truecolor-adesk-attrib $-1 -1 $410 $-1 $301 -1027161668 #
straight-curve $-1 -1 $-1 150.63000000000008 29.30746602014548 14.298151868567551 -1 -7.5263574764848661e-16 2.7465483441126221e-16 F 0 F 1.3 #
truecolor-adesk-attrib $-1 -1 $411 $-1 $302 -1027161668 #
plane-surface $-1 -1 $-1 150.63000000000008 30.064515928667984 15.540599226006119 -7.856346801440289e-16 0.85396109079892035 -0.52033686723267858 -1.5707958511170005e-16 0.52033686723267858 0.85396109079892035 forward_v I I I I #
DXID-attrib $-1 -1 $-1 $303 $164 @18 ASM_EDGE_FROM_STEP @5 20064 #
DXID-attrib $-1 -1 $-1 $305 $166 @18 ASM_EDGE_FROM_STEP @5 20062 #
DXID-attrib $-1 -1 $-1 $306 $167 @18 ASM_FACE_FROM_STEP @14 stp-1M-76-1140 #
color-adesk-attrib $-1 -1 $412 $307 $242 9 #
point $-1 -1 $-1 149.33000000000007 27.852950091477592 14.332552642561451 #
color-adesk-attrib $-1 -1 $413 $310 $243 9 #
truecolor-adesk-attrib $-1 -1 $414 $-1 $313 -1027161668 #
straight-curve $-1 -1 $-1 149.33000000000007 27.852950091477592 14.332552642561451 6.0183979854294104e-16 -0.47938356485899553 0.87760549094857054 F 1.828179696949122e-15 F 1.4549226783578584 #
color-adesk-attrib $-1 -1 $415 $314 $247 9 #
DXID-attrib $-1 -1 $-1 $319 $185 @18 ASM_FACE_FROM_STEP @14 stp-1M-76-1032 #
DXID-attrib $-1 -1 $-1 $320 $189 @18 ASM_EDGE_FROM_STEP @5 20053 #
coedge $-1 -1 $-1 $325 $323 $342 $393 forward $138 $-1 #
edge $416 -1 $-1 $380 0 $417 1.4549226783578528 $323 $418 forward @7 unknown #
truecolor-adesk-attrib $-1 -1 $419 $-1 $324 -1027161668 #
vertex $-1 -1 $-1 $324 $420 #
straight-curve $-1 -1 $-1 149.33000000000007 30.064515928667984 15.540599226006119 1.5707958511170007e-16 -0.52033686723267858 -0.85396109079892035 F 0 F 1.4549226783578588 #
color-adesk-attrib $-1 -1 $421 $326 $264 9 #
point $-1 -1 $-1 149.33000000000007 29.30746602014548 14.298151868567555 #
edge $422 -1 $-1 $331 0 $417 1.3 $333 $423 forward @7 unknown #
color-adesk-attrib $-1 -1 $424 $330 $266 9 #
point $-1 -1 $-1 150.63000000000008 29.367049908522603 16.817447357438571 #
color-adesk-attrib $-1 -1 $425 $334 $268 9 #
color-adesk-attrib $-1 -1 $426 $336 $269 9 #
truecolor-adesk-attrib $-1 -1 $427 $-1 $339 -1027161668 #
vertex $-1 -1 $-1 $393 $428 #
straight-curve $-1 -1 $-1 150.63000000000008 27.912533979854704 16.851848131432469 -1 -7.5263574764848661e-16 2.7465483441126221e-16 F 0 F 1.3 #
DXID-attrib $-1 -1 $-1 $340 $206 @18 ASM_EDGE_FROM_STEP @5 20073 #
edge $429 -1 $-1 $417 0 $390 1.4549226783578597 $377 $430 forward @7 unknown #
truecolor-adesk-attrib $-1 -1 $431 $-1 $343 -1027161668 #
plane-surface $-1 -1 $-1 150.63000000000008 29.367049908522606 16.817447357438571 -2.5678242894936138e-16 -0.023644400149651357 -0.99972043209167416 -7.5891938365464134e-16 0.99972043209167416 -0.023644400149651357 forward_v I I I I #
DXID-attrib $-1 -1 $-1 $344 $208 @18 ASM_EDGE_FROM_STEP @5 20071 #
DXID-attrib $-1 -1 $-1 $345 $209 @18 ASM_FACE_FROM_STEP @14 stp-1M-76-1113 #
color-adesk-attrib $-1 -1 $432 $346 $282 9 #
point $-1 -1 $-1 149.33000000000007 27.1554840713322 15.609400773993904 #
truecolor-adesk-attrib $-1 -1 $433 $-1 $350 -1027161668 #
straight-curve $-1 -1 $-1 149.33000000000007 27.1554840713322 15.609400773993904 -1.5707958511170007e-16 0.52033686723267858 0.85396109079892035 F 0 F 1.4549226783578577 #
color-adesk-attrib $-1 -1 $434 $351 $286 9 #
truecolor-adesk-attrib $-1 -1 $435 $-1 $356 -1027161668 #
straight-curve $-1 -1 $-1 150.63000000000008 30.064515928667984 15.540599226006119 -1 -7.5263574764848661e-16 2.7465483441126221e-16 F 0 F 1.3 #
truecolor-adesk-attrib $-1 -1 $436 $-1 $357 -1027161668 #
plane-surface $-1 -1 $-1 150.63000000000008 30.064515928667984 15.540599226006119 5.2885225119466653e-16 -0.87760549094857043 -0.47938356485899541 -6.0183979854294104e-16 0.47938356485899553 -0.87760549094857054 forward_v I I I I #
DXID-attrib $-1 -1 $-1 $358 $224 @18 ASM_EDGE_FROM_STEP @5 20067 #
DXID-attrib $-1 -1 $-1 $360 $226 @18 ASM_EDGE_FROM_STEP @5 20065 #
DXID-attrib $-1 -1 $-1 $361 $227 @18 ASM_FACE_FROM_STEP @14 stp-1M-76-1095 #
color-adesk-attrib $-1 -1 $437 $362 $301 9 #
color-adesk-attrib $-1 -1 $438 $364 $302 9 #
DXID-attrib $-1 -1 $-1 $369 $242 @18 ASM_EDGE_FROM_STEP @5 20060 #
DXID-attrib $-1 -1 $-1 $371 $243 @18 ASM_FACE_FROM_STEP @14 stp-1M-76-1041 #
color-adesk-attrib $-1 -1 $439 $372 $313 9 #
DXID-attrib $-1 -1 $-1 $374 $247 @18 ASM_FACE_FROM_STEP @14 stp-1M-76-1086 #
truecolor-adesk-attrib $-1 -1 $440 $-1 $378 -1027161668 #
vertex $-1 -1 $-1 $378 $441 #
straight-curve $-1 -1 $-1 149.33000000000007 30.064515928667984 15.540599226006119 6.0183979854294104e-16 -0.47938356485899553 0.87760549094857054 F 0 F 1.4549226783578528 #
color-adesk-attrib $-1 -1 $442 $379 $324 9 #
point $-1 -1 $-1 149.33000000000007 30.064515928667984 15.540599226006119 #
DXID-attrib $-1 -1 $-1 $382 $264 @18 ASM_EDGE_FROM_STEP @5 20054 #
truecolor-adesk-attrib $-1 -1 $443 $-1 $384 -1027161668 #
straight-curve $-1 -1 $-1 150.63000000000008 29.367049908522603 16.817447357438571 -1 -7.5263574764848661e-16 2.7465483441126221e-16 F 0 F 1.3 #
DXID-attrib $-1 -1 $-1 $385 $266 @18 ASM_EDGE_FROM_STEP @5 20070 #
DXID-attrib $-1 -1 $-1 $387 $268 @18 ASM_EDGE_FROM_STEP @5 20068 #
DXID-attrib $-1 -1 $-1 $388 $269 @18 ASM_FACE_FROM_STEP @14 stp-1M-76-1104 #
color-adesk-attrib $-1 -1 $444 $389 $339 9 #
point $-1 -1 $-1 149.33000000000007 27.912533979854704 16.851848131432469 #
truecolor-adesk-attrib $-1 -1 $445 $-1 $393 -1027161668 #
straight-curve $-1 -1 $-1 149.33000000000007 29.367049908522599 16.817447357438574 7.5891938365464163e-16 -0.99972043209167483 0.023644400149650469 F 0 F 1.4549226783578597 #
color-adesk-attrib $-1 -1 $446 $394 $343 9 #
DXID-attrib $-1 -1 $-1 $398 $282 @18 ASM_EDGE_FROM_STEP @5 20075 #
color-adesk-attrib $-1 -1 $447 $400 $350 9 #
DXID-attrib $-1 -1 $-1 $402 $286 @18 ASM_FACE_FROM_STEP @14 stp-1M-76-1077 #
color-adesk-attrib $-1 -1 $448 $403 $356 9 #
color-adesk-attrib $-1 -1 $449 $405 $357 9 #
DXID-attrib $-1 -1 $-1 $410 $301 @18 ASM_EDGE_FROM_STEP @5 20063 #
DXID-attrib $-1 -1 $-1 $411 $302 @18 ASM_FACE_FROM_STEP @14 stp-1M-76-1050 #
DXID-attrib $-1 -1 $-1 $414 $313 @18 ASM_EDGE_FROM_STEP @5 20059 #
color-adesk-attrib $-1 -1 $450 $416 $378 9 #
point $-1 -1 $-1 149.33000000000007 29.367049908522599 16.817447357438574 #
DXID-attrib $-1 -1 $-1 $419 $324 @18 ASM_EDGE_FROM_STEP @5 20055 #
color-adesk-attrib $-1 -1 $451 $422 $384 9 #
DXID-attrib $-1 -1 $-1 $427 $339 @18 ASM_EDGE_FROM_STEP @5 20072 #
color-adesk-attrib $-1 -1 $452 $429 $393 9 #
DXID-attrib $-1 -1 $-1 $431 $343 @18 ASM_FACE_FROM_STEP @14 stp-1M-76-1068 #
DXID-attrib $-1 -1 $-1 $433 $350 @18 ASM_EDGE_FROM_STEP @5 20058 #
DXID-attrib $-1 -1 $-1 $435 $356 @18 ASM_EDGE_FROM_STEP @5 20066 #
DXID-attrib $-1 -1 $-1 $436 $357 @18 ASM_FACE_FROM_STEP @14 stp-1M-76-1059 #
DXID-attrib $-1 -1 $-1 $440 $378 @18 ASM_EDGE_FROM_STEP @5 20056 #
DXID-attrib $-1 -1 $-1 $443 $384 @18 ASM_EDGE_FROM_STEP @5 20069 #
DXID-attrib $-1 -1 $-1 $445 $393 @18 ASM_EDGE_FROM_STEP @5 20057 #
