700 282 1 0         
5 ZWCAD 12 ACIS 28.0 NT 24 Mon May 13 17:20:43 2024 
1 9.9999999999999995e-07 1e-10 
body $1 -1 $-1 $2 $-1 $-1 #
DXID-attrib $-1 -1 $-1 $-1 $0 @18 ASM_BODY_FROM_STEP @83 F295DED805A990AB0C512122F9BA275228257C24|:|DB21B6E240509C8B2832D228978FCDB4552AB0BD #
lump $-1 -1 $-1 $-1 $3 $0 #
shell $-1 -1 $-1 $-1 $-1 $4 $-1 $2 #
face $5 -1 $-1 $6 $7 $3 $-1 $8 reversed single #
truecolor-adesk-attrib $-1 -1 $9 $-1 $4 -1028602658 #
face $10 -1 $-1 $11 $12 $3 $-1 $13 forward single #
loop $-1 -1 $-1 $14 $15 $4 #
torus-surface $-1 -1 $-1 408.55434640354684 128.94986802839 533.75537605534112 1.11022302462516e-16 -1.7325142987210296e-16 -1 4.0999999999999996 0.10000000000000002 -1 4.2574371864531915e-33 -1.11022302462516e-16 forward_v I I I I #
DXID-attrib $-1 -1 $-1 $5 $4 @18 ASM_FACE_FROM_STEP @16 stp-2M-167-27776 #
truecolor-adesk-attrib $-1 -1 $16 $-1 $6 -1028602658 #
face $17 -1 $-1 $18 $19 $3 $-1 $20 forward single #
loop $-1 -1 $-1 $21 $22 $6 #
cone-surface $-1 -1 $-1 408.55434640354684 128.94986802839 525.98037605534114 1.11022302462516e-16 -1.8369701987210297e-16 -1 9.8607613152626476e-32 4 -7.3478807948841188e-16 1 I I 0 1 4 forward I I I I #
loop $-1 -1 $-1 $-1 $23 $4 #
coedge $-1 -1 $-1 $15 $15 $24 $25 forward $7 $-1 #
DXID-attrib $-1 -1 $-1 $10 $6 @18 ASM_FACE_FROM_STEP @16 stp-2M-167-27777 #
truecolor-adesk-attrib $-1 -1 $26 $-1 $11 -1028602658 #
face $27 -1 $-1 $28 $29 $3 $-1 $30 forward single #
loop $-1 -1 $-1 $31 $32 $11 #
plane-surface $-1 -1 $-1 408.55434640354684 134.19986802839 533.85537605534114 1.11022302462516e-16 -1.8369701987210297e-16 -1 2.4651903288156619e-32 1 -1.8369701987210297e-16 forward_v I I I I #
loop $-1 -1 $-1 $-1 $33 $6 #
coedge $-1 -1 $-1 $22 $22 $34 $35 reversed $12 $-1 #
coedge $-1 -1 $-1 $23 $23 $33 $36 forward $14 $-1 #
coedge $-1 -1 $-1 $24 $24 $15 $25 reversed $31 $-1 #
edge $37 -1 $-1 $38 0 $38 6.2831853071795862 $15 $39 forward @7 unknown #
DXID-attrib $-1 -1 $-1 $17 $11 @18 ASM_FACE_FROM_STEP @16 stp-2M-167-27778 #
truecolor-adesk-attrib $-1 -1 $40 $-1 $18 -1028602658 #
face $41 -1 $-1 $42 $43 $3 $-1 $44 forward single #
loop $-1 -1 $-1 $45 $34 $18 #
cone-surface $-1 -1 $-1 408.55434640354684 128.94986802839 522.23878230534115 -1.11022302462516e-16 1.8369701987210297e-16 1 -8.9155919357551673e-32 -3.6165937499999998 6.6435749396307337e-16 1 I I 0.70710678055195508 0.70710678182113995 3.6165937499999998 forward I I I I #
loop $-1 -1 $-1 $-1 $24 $11 #
coedge $-1 -1 $-1 $32 $32 $46 $47 forward $19 $-1 #
coedge $-1 -1 $-1 $33 $33 $23 $36 reversed $21 $-1 #
coedge $-1 -1 $-1 $34 $34 $22 $35 forward $29 $-1 #
edge $48 -1 $-1 $49 0 $49 6.2831853071795862 $22 $50 forward @7 unknown #
edge $51 -1 $-1 $52 0 $52 6.2831853071795862 $23 $53 forward @7 unknown #
truecolor-adesk-attrib $-1 -1 $54 $-1 $25 -1028602658 #
vertex $-1 -1 $-1 $25 $55 #
ellipse-curve $-1 -1 $-1 408.55434640354684 128.94986802839 533.85537605534114 1.11022302462516e-16 -1.8369701987210297e-16 -1 -1.0107280348144213e-31 -4.0999999999999996 7.5315778147562211e-16 1 I I #
DXID-attrib $-1 -1 $-1 $27 $18 @18 ASM_FACE_FROM_STEP @16 stp-2M-167-27779 #
truecolor-adesk-attrib $-1 -1 $56 $-1 $28 -1028602658 #
face $57 -1 $-1 $58 $59 $3 $-1 $60 forward single #
loop $-1 -1 $-1 $-1 $61 $28 #
plane-surface $-1 -1 $-1 408.55434640354684 130.94986802839 521.85537605534114 1.11022302462516e-16 -1.8369701987210297e-16 -1 2.4651903288156619e-32 1 -1.8369701987210297e-16 forward_v I I I I #
loop $-1 -1 $-1 $-1 $62 $18 #
coedge $-1 -1 $-1 $46 $46 $32 $47 reversed $63 $-1 #
edge $64 -1 $-1 $65 0 $65 6.2831853071795862 $32 $66 forward @7 unknown #
truecolor-adesk-attrib $-1 -1 $67 $-1 $35 -1028602658 #
vertex $-1 -1 $-1 $35 $68 #
ellipse-curve $-1 -1 $-1 408.55434640354684 128.94986802839 522.62218855534115 1.11022302462516e-16 -1.8369701987210297e-16 -1 -9.8607613152626476e-32 -4 7.3478807948841188e-16 1 I I #
truecolor-adesk-attrib $-1 -1 $69 $-1 $36 -1028602658 #
vertex $-1 -1 $-1 $36 $70 #
ellipse-curve $-1 -1 $-1 408.55434640354684 128.94986802839 533.75537605534112 -1.11022302462516e-16 1.8369701987210297e-16 1 -9.8607613152626476e-32 -4 7.3478807948841188e-16 1 I I #
DXID-attrib $-1 -1 $-1 $37 $25 @18 ASM_EDGE_FROM_STEP @5 14653 #
point $-1 -1 $-1 408.55434640354684 124.84986802839001 533.85537605534114 #
DXID-attrib $-1 -1 $-1 $41 $28 @18 ASM_FACE_FROM_STEP @16 stp-2M-167-27780 #
truecolor-adesk-attrib $-1 -1 $71 $-1 $42 -1028602658 #
face $72 -1 $-1 $73 $74 $3 $-1 $75 forward single #
loop $-1 -1 $-1 $76 $77 $42 #
torus-surface $-1 -1 $-1 408.55434640354684 128.94986802839 538.05537605534118 1.11022302462516e-16 -1.7325142987210296e-16 -1 5.7000000000000011 0.80000000000000016 -1 4.2574371864531915e-33 -1.11022302462516e-16 forward_v I I I I #
coedge $-1 -1 $-1 $61 $61 $62 $78 reversed $43 $-1 #
coedge $-1 -1 $-1 $62 $62 $61 $78 forward $45 $-1 #
loop $-1 -1 $-1 $79 $46 $73 #
truecolor-adesk-attrib $-1 -1 $80 $-1 $47 -1028602658 #
vertex $-1 -1 $-1 $47 $81 #
ellipse-curve $-1 -1 $-1 408.55434640354684 128.94986802839 533.85537605534114 1.11022302462516e-16 -1.8369701987210297e-16 -1 1.6023737137301802e-31 6.5 -1.1940306291686693e-15 1 I I #
DXID-attrib $-1 -1 $-1 $48 $35 @18 ASM_EDGE_FROM_STEP @5 14655 #
point $-1 -1 $-1 408.55434640354684 124.94986802839 522.62218855534115 #
DXID-attrib $-1 -1 $-1 $51 $36 @18 ASM_EDGE_FROM_STEP @5 14654 #
point $-1 -1 $-1 408.55434640354684 124.94986802839 533.75537605534112 #
DXID-attrib $-1 -1 $-1 $57 $42 @18 ASM_FACE_FROM_STEP @16 stp-2M-167-27781 #
truecolor-adesk-attrib $-1 -1 $82 $-1 $58 -1028602658 #
face $83 -1 $-1 $84 $63 $3 $-1 $85 forward single #
loop $-1 -1 $-1 $86 $87 $58 #
plane-surface $-1 -1 $-1 408.55434640354684 133.64324370136407 538.85537605534114 -1.11022302462516e-16 1.8369701987210297e-16 1 1 -4.2574371864531915e-33 1.11022302462516e-16 forward_v I I I I #
loop $-1 -1 $-1 $-1 $88 $42 #
coedge $-1 -1 $-1 $77 $77 $87 $89 forward $59 $-1 #
edge $90 -1 $-1 $91 0 $91 6.2831853071795862 $62 $92 forward @7 unknown #
loop $-1 -1 $-1 $-1 $93 $73 #
DXID-attrib $-1 -1 $-1 $64 $47 @18 ASM_EDGE_FROM_STEP @5 14656 #
point $-1 -1 $-1 408.55434640354684 135.44986802839 533.85537605534114 #
DXID-attrib $-1 -1 $-1 $72 $58 @18 ASM_FACE_FROM_STEP @16 stp-2M-167-27782 #
truecolor-adesk-attrib $-1 -1 $94 $-1 $73 -1028602658 #
face $95 -1 $-1 $96 $97 $3 $-1 $98 reversed single #
cone-surface $-1 -1 $-1 408.55434640354684 128.94986802839 536.35537605534114 1.11022302462516e-16 -1.8369701987210297e-16 -1 1.6023737137301802e-31 6.5 -1.1940306291686693e-15 1 I I 0 1 6.5 forward I I I I #
loop $-1 -1 $-1 $-1 $99 $58 #
coedge $-1 -1 $-1 $87 $87 $77 $89 reversed $74 $-1 #
coedge $-1 -1 $-1 $88 $88 $93 $100 forward $76 $-1 #
edge $101 -1 $-1 $102 0 $102 6.2831853071795862 $77 $103 forward @7 unknown #
truecolor-adesk-attrib $-1 -1 $104 $-1 $78 -1028602658 #
vertex $-1 -1 $-1 $78 $105 #
ellipse-curve $-1 -1 $-1 408.55434640354684 128.94986802839 521.85537605534114 -1.11022302462516e-16 1.8369701987210297e-16 1 -7.9704225562476892e-32 -3.2331875000000005 5.9392690843773506e-16 1 I I #
coedge $-1 -1 $-1 $93 $93 $88 $100 reversed $79 $-1 #
DXID-attrib $-1 -1 $-1 $83 $73 @18 ASM_FACE_FROM_STEP @16 stp-2M-167-27783 #
truecolor-adesk-attrib $-1 -1 $106 $-1 $84 -1028602658 #
face $107 -1 $-1 $108 $109 $3 $-1 $110 reversed single #
loop $-1 -1 $-1 $-1 $111 $84 #
plane-surface $-1 -1 $-1 405.6675950575987 128.94986802839 538.85537605534114 -0.86602540378443882 -0.49999999999999989 -9.5224203831270501e-18 0.49999999999999989 -0.86602540378443893 2.1459743703999405e-16 forward_v I I I I #
coedge $-1 -1 $-1 $112 $113 $114 $115 forward $86 $-1 #
edge $116 -1 $-1 $117 0 $117 6.2831853071795862 $88 $118 forward @7 unknown #
truecolor-adesk-attrib $-1 -1 $119 $-1 $89 -1028602658 #
vertex $-1 -1 $-1 $89 $120 #
ellipse-curve $-1 -1 $-1 408.55434640354684 128.94986802839 538.85537605534114 1.11022302462516e-16 -1.8369701987210297e-16 -1 -1.4051584874249275e-31 -5.7000000000000011 1.0470730132709872e-15 1 I I #
DXID-attrib $-1 -1 $-1 $90 $78 @18 ASM_EDGE_FROM_STEP @5 14657 #
point $-1 -1 $-1 408.55434640354684 125.71668052839 521.85537605534114 #
DXID-attrib $-1 -1 $-1 $95 $84 @18 ASM_FACE_FROM_STEP @16 stp-2M-167-27784 #
truecolor-adesk-attrib $-1 -1 $121 $-1 $96 -1028602658 #
face $122 -1 $-1 $123 $124 $3 $-1 $125 reversed single #
loop $-1 -1 $-1 $-1 $126 $96 #
plane-surface $-1 -1 $-1 407.11097073057277 131.44986802839 538.85537605534114 -0.86602540378443882 0.49999999999999989 -1.8277384825522997e-16 -1.0499153710947099e-16 1.8369701987210297e-16 1 forward_v I I I I #
coedge $-1 -1 $-1 $127 $128 $129 $130 reversed $97 $-1 #
coedge $-1 -1 $-1 $131 $99 $132 $133 forward $86 $-1 #
coedge $-1 -1 $-1 $99 $134 $135 $136 forward $86 $-1 #
coedge $-1 -1 $-1 $137 $138 $99 $115 reversed $124 $-1 #
edge $139 -1 $-1 $140 0 $141 0.0028867513459481303 $99 $142 forward @7 unknown #
truecolor-adesk-attrib $-1 -1 $143 $-1 $100 -1028602658 #
vertex $-1 -1 $-1 $100 $144 #
ellipse-curve $-1 -1 $-1 408.55434640354684 128.94986802839 538.05537605534118 -1.11022302462516e-16 1.8369701987210297e-16 1 -1.6023737137301802e-31 -6.5 1.1940306291686693e-15 1 I I #
DXID-attrib $-1 -1 $-1 $101 $89 @18 ASM_EDGE_FROM_STEP @5 14658 #
point $-1 -1 $-1 408.55434640354684 123.24986802839 538.85537605534114 #
DXID-attrib $-1 -1 $-1 $107 $96 @18 ASM_FACE_FROM_STEP @16 stp-2M-167-27785 #
truecolor-adesk-attrib $-1 -1 $145 $-1 $108 -1028602658 #
face $146 -1 $-1 $147 $148 $3 $-1 $149 reversed single #
loop $-1 -1 $-1 $-1 $150 $108 #
plane-surface $-1 -1 $-1 409.99772207652092 131.44986802839 538.85537605534114 2.4651903288156619e-32 1 -1.8369701987210297e-16 1.11022302462516e-16 -1.8369701987210297e-16 -1 forward_v I I I I #
coedge $-1 -1 $-1 $151 $152 $153 $154 reversed $109 $-1 #
coedge $-1 -1 $-1 $155 $111 $152 $156 forward $97 $-1 #
coedge $-1 -1 $-1 $111 $155 $157 $158 reversed $97 $-1 #
coedge $-1 -1 $-1 $159 $153 $111 $130 forward $160 $-1 #
edge $161 -1 $-1 $162 0 $163 0.29210903451948 $111 $164 forward @7 unknown #
coedge $-1 -1 $-1 $165 $112 $166 $167 forward $86 $-1 #
coedge $-1 -1 $-1 $168 $169 $112 $133 reversed $148 $-1 #
edge $170 -1 $-1 $141 0 $171 0.0028867513459481338 $112 $172 forward @7 unknown #
coedge $-1 -1 $-1 $113 $165 $155 $173 forward $86 $-1 #
coedge $-1 -1 $-1 $152 $151 $113 $136 reversed $109 $-1 #
edge $174 -1 $-1 $175 3.1389826881760182e-19 $140 0.0028867513459481264 $113 $176 forward @7 unknown #
coedge $-1 -1 $-1 $150 $114 $151 $177 reversed $124 $-1 #
coedge $-1 -1 $-1 $114 $150 $168 $178 forward $124 $-1 #
truecolor-adesk-attrib $-1 -1 $179 $-1 $115 -1028602658 #
vertex $-1 -1 $-1 $115 $180 #
vertex $-1 -1 $-1 $115 $181 #
straight-curve $-1 -1 $-1 407.11097073057277 131.44986802839 538.85537605534114 1000 -4.2574371864531914e-30 1.1102230246251599e-13 F 0 F 0.0028867513459481303 #
DXID-attrib $-1 -1 $-1 $116 $100 @18 ASM_EDGE_FROM_STEP @5 14659 #
point $-1 -1 $-1 408.55434640354684 122.44986802839 538.05537605534118 #
DXID-attrib $-1 -1 $-1 $122 $108 @18 ASM_FACE_FROM_STEP @16 stp-2M-167-27786 #
truecolor-adesk-attrib $-1 -1 $182 $-1 $123 -1028602658 #
face $183 -1 $-1 $184 $185 $3 $-1 $186 reversed single #
loop $-1 -1 $-1 $-1 $187 $123 #
plane-surface $-1 -1 $-1 411.44109774949499 128.94986802839 538.85537605534114 0.86602540378443849 0.50000000000000033 9.5224203831269268e-18 1.11022302462516e-16 -1.7325142787210297e-16 -1 forward_v I I I I #
coedge $-1 -1 $-1 $138 $137 $188 $189 reversed $124 $-1 #
coedge $-1 -1 $-1 $135 $126 $137 $177 forward $109 $-1 #
coedge $-1 -1 $-1 $126 $135 $127 $156 reversed $109 $-1 #
coedge $-1 -1 $-1 $129 $188 $126 $154 forward $160 $-1 #
edge $190 -1 $-1 $191 0 $162 0.29210903451948 $126 $192 forward @7 unknown #
coedge $-1 -1 $-1 $128 $127 $134 $173 reversed $97 $-1 #
edge $193 -1 $-1 $162 5.7571322709115694e-13 $175 0.0038 $127 $194 forward @7 unknown #
coedge $-1 -1 $-1 $195 $196 $128 $158 forward $185 $-1 #
edge $197 -1 $-1 $163 5.757123944238884e-13 $198 0.0038 $128 $199 forward @7 unknown #
coedge $-1 -1 $-1 $200 $129 $196 $201 forward $160 $-1 #
loop $-1 -1 $-1 $-1 $202 $203 #
truecolor-adesk-attrib $-1 -1 $204 $-1 $130 -1028602658 #
vertex $-1 -1 $-1 $130 $205 #
vertex $-1 -1 $-1 $130 $206 #
intcurve-curve $-1 -1 $-1 forward { exactcur full nurbs 2 open 2 
	0 2 0.29210903451948 2 
	405.6675950575987 128.94986802839 535.05537605534118 1 
	406.38928289408574 127.69986802839 534.63870938867444 1.1547005383792499 
	407.11097073057277 126.44986802839 535.05537605534118 1 
	0 
	null_surface 
	null_surface 
	nullbs 
	nullbs 
	I I 
	0 
	0 
	0 
	F 1 F 0 } F 0 F 0.29210903451948 #
coedge $-1 -1 $-1 $134 $131 $195 $207 forward $86 $-1 #
coedge $-1 -1 $-1 $208 $209 $131 $167 reversed $210 $-1 #
edge $211 -1 $-1 $171 -1.5237716979587194e-19 $212 0.0028867513459481303 $131 $213 forward @7 unknown #
coedge $-1 -1 $-1 $187 $132 $138 $178 reversed $148 $-1 #
coedge $-1 -1 $-1 $132 $187 $208 $214 reversed $148 $-1 #
truecolor-adesk-attrib $-1 -1 $215 $-1 $133 -1028602658 #
vertex $-1 -1 $-1 $133 $216 #
straight-curve $-1 -1 $-1 409.99772207652092 131.44986802839 538.85537605534114 500.00000000000011 -866.02540378443803 2.1459743703999393e-13 F 0 F 0.0028867513459481338 #
edge $217 -1 $-1 $198 0 $175 0.0028867513459481299 $134 $218 forward @7 unknown #
truecolor-adesk-attrib $-1 -1 $219 $-1 $136 -1028602658 #
vertex $-1 -1 $-1 $173 $220 #
straight-curve $-1 -1 $-1 405.6675950575987 128.94986802839 538.85537605534114 500 866.02540378443905 -1.0357513457747809e-13 F 3.1389826881760182e-19 F 0.0028867513459481264 #
edge $221 -1 $-1 $191 5.7571322709115694e-13 $140 0.0038 $151 $222 forward @7 unknown #
edge $223 -1 $-1 $224 5.757123944238884e-13 $141 0.0038 $138 $225 forward @7 unknown #
DXID-attrib $-1 -1 $-1 $139 $115 @18 ASM_EDGE_FROM_STEP @5 14660 #
point $-1 -1 $-1 407.11097073057277 131.44986802839 538.85537605534114 #
point $-1 -1 $-1 409.99772207652092 131.44986802839 538.85537605534114 #
DXID-attrib $-1 -1 $-1 $146 $123 @18 ASM_FACE_FROM_STEP @16 stp-2M-167-27787 #
truecolor-adesk-attrib $-1 -1 $226 $-1 $147 -1028602658 #
face $227 -1 $-1 $203 $210 $3 $-1 $228 reversed single #
loop $-1 -1 $-1 $-1 $196 $147 #
plane-surface $-1 -1 $-1 407.11097073057277 126.44986802839 538.85537605534114 -2.4651903288156619e-32 -1 1.8369701987210297e-16 -1 4.2574371864531915e-33 -1.11022302462516e-16 forward_v I I I I #
coedge $-1 -1 $-1 $169 $168 $202 $229 reversed $148 $-1 #
coedge $-1 -1 $-1 $153 $202 $150 $189 forward $160 $-1 #
edge $230 -1 $-1 $224 0 $191 0.292109034519481 $150 $231 forward @7 unknown #
truecolor-adesk-attrib $-1 -1 $232 $-1 $154 -1028602658 #
vertex $-1 -1 $-1 $154 $233 #
intcurve-curve $-1 -1 $-1 forward { exactcur full nurbs 2 open 2 
	0 2 0.29210903451948 2 
	407.11097073057277 131.44986802839 535.05537605534118 1 
	406.38928289408574 130.19986802839 534.63870938867444 1.1547005383792499 
	405.6675950575987 128.94986802839 535.05537605534118 1 
	0 
	null_surface 
	null_surface 
	nullbs 
	nullbs 
	I I 
	0 
	0 
	0 
	F 1 F 0 } F 0 F 0.29210903451948 #
truecolor-adesk-attrib $-1 -1 $234 $-1 $156 -1028602658 #
straight-curve $-1 -1 $-1 405.6675950575987 128.94986802839 535.05537605534118 -1.1102230246251599e-13 1.8369701987210297e-13 1000 F 5.7571322709115694e-13 F 0.0038 #
coedge $-1 -1 $-1 $235 $157 $165 $207 reversed $185 $-1 #
coedge $-1 -1 $-1 $157 $235 $159 $201 reversed $185 $-1 #
truecolor-adesk-attrib $-1 -1 $236 $-1 $158 -1028602658 #
vertex $-1 -1 $-1 $207 $237 #
straight-curve $-1 -1 $-1 407.11097073057277 126.44986802839 535.05537605534118 -1.1102230246251599e-13 1.8369701987210297e-13 1000 F 5.757123944238884e-13 F 0.0038 #
coedge $-1 -1 $-1 $202 $159 $238 $239 forward $160 $-1 #
edge $240 -1 $-1 $163 0 $241 0.292109034519481 $196 $242 forward @7 unknown #
coedge $-1 -1 $-1 $188 $200 $187 $229 forward $160 $-1 #
face $243 -1 $-1 $-1 $244 $3 $-1 $245 reversed single #
DXID-attrib $-1 -1 $-1 $161 $130 @18 ASM_EDGE_FROM_STEP @5 14666 #
point $-1 -1 $-1 405.66759505793112 128.94986802839 535.05537605591689 #
point $-1 -1 $-1 407.11097073073898 126.44986802867786 535.05537605591689 #
edge $246 -1 $-1 $212 0 $198 0.0028867513459481203 $165 $247 forward @7 unknown #
coedge $-1 -1 $-1 $238 $166 $169 $214 forward $210 $-1 #
coedge $-1 -1 $-1 $166 $238 $235 $248 forward $210 $-1 #
loop $-1 -1 $-1 $-1 $238 $184 #
truecolor-adesk-attrib $-1 -1 $249 $-1 $167 -1028602658 #
vertex $-1 -1 $-1 $167 $250 #
straight-curve $-1 -1 $-1 411.44109774949499 128.94986802839 538.85537605534114 -500 -866.02540378443905 1.0357513457747809e-13 F -1.5237716979587194e-19 F 0.0028867513459481303 #
edge $251 -1 $-1 $171 0 $252 0.0037999999994242865 $169 $253 forward @7 unknown #
DXID-attrib $-1 -1 $-1 $170 $133 @18 ASM_EDGE_FROM_STEP @5 14661 #
point $-1 -1 $-1 411.44109774949499 128.94986802839 538.85537605534114 #
truecolor-adesk-attrib $-1 -1 $254 $-1 $173 -1028602658 #
straight-curve $-1 -1 $-1 407.11097073057277 126.44986802839 538.85537605534114 -500 866.02540378443905 -2.145974370399941e-13 F 0 F 0.0028867513459481299 #
DXID-attrib $-1 -1 $-1 $174 $136 @18 ASM_EDGE_FROM_STEP @5 14665 #
point $-1 -1 $-1 405.6675950575987 128.94986802839 538.85537605534114 #
truecolor-adesk-attrib $-1 -1 $255 $-1 $177 -1028602658 #
straight-curve $-1 -1 $-1 407.11097073057277 131.44986802839 535.05537605534118 -1.1102230246251599e-13 1.8369701987210297e-13 1000 F 5.7571322709115694e-13 F 0.0038 #
truecolor-adesk-attrib $-1 -1 $256 $-1 $178 -1028602658 #
vertex $-1 -1 $-1 $189 $257 #
straight-curve $-1 -1 $-1 409.99772207652092 131.44986802839 535.05537605534118 -1.1102230246251599e-13 1.8369701987210297e-13 1000 F 5.757123944238884e-13 F 0.0038 #
DXID-attrib $-1 -1 $-1 $183 $147 @18 ASM_FACE_FROM_STEP @16 stp-2M-167-27788 #
truecolor-adesk-attrib $-1 -1 $258 $-1 $184 -1028602658 #
plane-surface $-1 -1 $-1 409.99772207652092 126.44986802839 538.85537605534114 0.86602540378443882 -0.49999999999999989 1.8277384825522997e-16 -1.11022302462516e-16 1.7325142787210297e-16 1 forward_v I I I I #
edge $259 -1 $-1 $252 0 $224 0.292109034519481 $187 $260 forward @7 unknown #
truecolor-adesk-attrib $-1 -1 $261 $-1 $189 -1028602658 #
intcurve-curve $-1 -1 $-1 forward { exactcur full nurbs 2 open 2 
	0 2 0.292109034519481 2 
	409.99772207652092 131.44986802839 535.05537605534118 1 
	408.55434640354684 131.44986802839 534.63870938867444 1.1547005383792499 
	407.11097073057277 131.44986802839 535.05537605534118 1 
	0 
	null_surface 
	null_surface 
	nullbs 
	nullbs 
	I I 
	0 
	0 
	0 
	F 1 F 0 } F 0 F 0.292109034519481 #
DXID-attrib $-1 -1 $-1 $190 $154 @18 ASM_EDGE_FROM_STEP @5 14669 #
point $-1 -1 $-1 407.11097073073898 131.44986802810214 535.05537605591689 #
DXID-attrib $-1 -1 $-1 $193 $156 @18 ASM_EDGE_FROM_STEP @5 14667 #
coedge $-1 -1 $-1 $196 $195 $209 $248 reversed $185 $-1 #
DXID-attrib $-1 -1 $-1 $197 $158 @18 ASM_EDGE_FROM_STEP @5 14668 #
point $-1 -1 $-1 407.11097073057277 126.44986802839 538.85537605534114 #
coedge $-1 -1 $-1 $209 $208 $200 $239 reversed $210 $-1 #
edge $262 -1 $-1 $241 0 $252 0.292109034519481 $238 $263 forward @7 unknown #
truecolor-adesk-attrib $-1 -1 $264 $-1 $201 -1028602658 #
vertex $-1 -1 $-1 $201 $265 #
intcurve-curve $-1 -1 $-1 forward { exactcur full nurbs 2 open 2 
	0 2 0.292109034519481 2 
	407.11097073057277 126.44986802839 535.05537605534118 1 
	408.55434640354684 126.44986802839 534.63870938867444 1.1547005383792499 
	409.99772207652092 126.44986802839 535.05537605534118 1 
	0 
	null_surface 
	null_surface 
	nullbs 
	nullbs 
	I I 
	0 
	0 
	0 
	F 1 F 0 } F 0 F 0.292109034519481 #
truecolor-adesk-attrib $-1 -1 $266 $-1 $203 -1028602658 #
loop $267 -1 $-1 $160 $268 $203 #
cone-surface $-1 -1 $-1 408.55434640354684 128.94986802839 534.22204272200781 -1.11022302462516e-16 1.8369701987210297e-16 1 3.5581957498634505e-32 1.4433756729740601 -2.651438096812259e-16 1 I I 0.86602540318613974 0.50000000103628406 1.4433756729740601 forward I I I I #
truecolor-adesk-attrib $-1 -1 $269 $-1 $207 -1028602658 #
straight-curve $-1 -1 $-1 409.99772207652092 126.44986802839 538.85537605534114 -1000 4.2574371864531914e-30 -1.1102230246251599e-13 F 0 F 0.0028867513459481203 #
edge $270 -1 $-1 $241 5.757123944238884e-13 $212 0.0038 $235 $271 forward @7 unknown #
DXID-attrib $-1 -1 $-1 $211 $167 @18 ASM_EDGE_FROM_STEP @5 14662 #
point $-1 -1 $-1 409.99772207652092 126.44986802839 538.85537605534114 #
truecolor-adesk-attrib $-1 -1 $272 $-1 $214 -1028602658 #
vertex $-1 -1 $-1 $229 $273 #
straight-curve $-1 -1 $-1 411.44109774949499 128.94986802839 538.85537605534114 1.1102230246251599e-13 -1.8369701987210297e-13 -1000 F 0 F 0.0037999999994242865 #
DXID-attrib $-1 -1 $-1 $217 $173 @18 ASM_EDGE_FROM_STEP @5 14664 #
DXID-attrib $-1 -1 $-1 $221 $177 @18 ASM_EDGE_FROM_STEP @5 14670 #
DXID-attrib $-1 -1 $-1 $223 $178 @18 ASM_EDGE_FROM_STEP @5 14672 #
point $-1 -1 $-1 409.99772207635471 131.44986802810214 535.05537605591689 #
DXID-attrib $-1 -1 $-1 $227 $184 @18 ASM_FACE_FROM_STEP @16 stp-2M-167-27789 #
truecolor-adesk-attrib $-1 -1 $274 $-1 $229 -1028602658 #
intcurve-curve $-1 -1 $-1 forward { exactcur full nurbs 2 open 2 
	0 2 0.292109034519481 2 
	411.44109774949499 128.94986802839 535.05537605534118 1 
	410.71940991300795 130.19986802839 534.63870938867444 1.1547005383792499 
	409.99772207652092 131.44986802839 535.05537605534118 1 
	0 
	null_surface 
	null_surface 
	nullbs 
	nullbs 
	I I 
	0 
	0 
	0 
	F 1 F 0 } F 0 F 0.292109034519481 #
DXID-attrib $-1 -1 $-1 $230 $189 @18 ASM_EDGE_FROM_STEP @5 14671 #
truecolor-adesk-attrib $-1 -1 $275 $-1 $239 -1028602658 #
intcurve-curve $-1 -1 $-1 forward { exactcur full nurbs 2 open 2 
	0 2 0.292109034519481 2 
	409.99772207652092 126.44986802839 535.05537605534118 1 
	410.71940991300795 127.69986802839 534.63870938867444 1.1547005383792499 
	411.44109774949499 128.94986802839 535.05537605534118 1 
	0 
	null_surface 
	null_surface 
	nullbs 
	nullbs 
	I I 
	0 
	0 
	0 
	F 1 F 0 } F 0 F 0.292109034519481 #
DXID-attrib $-1 -1 $-1 $240 $201 @18 ASM_EDGE_FROM_STEP @5 14675 #
point $-1 -1 $-1 409.99772207635471 126.44986802867786 535.05537605591689 #
DXID-attrib $-1 -1 $-1 $243 $203 @18 ASM_FACE_FROM_STEP @16 stp-2M-167-27790 #
DXID-attrib $-1 -1 $-1 $-1 $244 @18 ASM_LOOP_FROM_STEP @2 48 #
coedge $-1 -1 $-1 $268 $268 $-1 $276 forward $244 $-1 #
DXID-attrib $-1 -1 $-1 $246 $207 @18 ASM_EDGE_FROM_STEP @5 14663 #
truecolor-adesk-attrib $-1 -1 $277 $-1 $248 -1028602658 #
straight-curve $-1 -1 $-1 409.99772207652092 126.44986802839 535.05537605534118 -1.1102230246251599e-13 1.8369701987210297e-13 1000 F 5.757123944238884e-13 F 0.0038 #
DXID-attrib $-1 -1 $-1 $251 $214 @18 ASM_EDGE_FROM_STEP @5 14674 #
point $-1 -1 $-1 411.44109774916257 128.94986802839 535.05537605591689 #
DXID-attrib $-1 -1 $-1 $259 $229 @18 ASM_EDGE_FROM_STEP @5 14673 #
DXID-attrib $-1 -1 $-1 $262 $239 @18 ASM_EDGE_FROM_STEP @5 14677 #
edge $278 -1 $-1 $279 1 $279 0 $268 $-1 forward @7 unknown #
DXID-attrib $-1 -1 $-1 $270 $248 @18 ASM_EDGE_FROM_STEP @5 14676 #
truecolor-adesk-attrib $-1 -1 $280 $-1 $276 -1028602658 #
vertex $-1 -1 $-1 $276 $281 #
DXID-attrib $-1 -1 $-1 $278 $276 @18 ASM_EDGE_FROM_STEP @2 48 #
point $-1 -1 $-1 408.55434640354684 128.94986802839 533.3887093863716 #
