700 394 1 0         
5 ZWCAD 12 ACIS 28.0 NT 24 Mon May 13 14:01:02 2024 
1 9.9999999999999995e-07 1e-10 
body $1 -1 $-1 $2 $-1 $-1 #
DXID-attrib $-1 -1 $-1 $-1 $0 @18 ASM_BODY_FROM_STEP @83 7B8515AD3F25572640CAFDBDCF481E7D18001D28|:|FE51F5CBA4C3A25378AC97A331F6AA093249B6A0 #
lump $-1 -1 $-1 $-1 $3 $0 #
shell $-1 -1 $-1 $-1 $-1 $4 $-1 $2 #
face $5 -1 $-1 $6 $7 $3 $-1 $8 forward single #
color-adesk-attrib $-1 -1 $9 $-1 $4 2 #
face $10 -1 $-1 $11 $12 $3 $-1 $13 reversed single #
loop $-1 -1 $-1 $14 $15 $4 #
plane-surface $-1 -1 $-1 -48.256383891887822 -50.169567779055996 316 -1 0 -1.0842021724855e-16 -1.0842021724855001e-16 0 1 forward_v I I I I #
DXID-attrib $-1 -1 $-1 $5 $4 @18 ASM_FACE_FROM_STEP @15 stp-3M-236-3296 #
color-adesk-attrib $-1 -1 $16 $-1 $6 2 #
face $17 -1 $-1 $18 $19 $3 $-1 $20 forward single #
loop $-1 -1 $-1 $-1 $21 $6 #
plane-surface $-1 -1 $-1 -48.256383891887822 -50.169567779055996 346 0.70710678118654802 0 -0.70710678118654702 0 1 0 forward_v I I I I #
loop $-1 -1 $-1 $-1 $22 $4 #
coedge $-1 -1 $-1 $23 $24 $25 $26 reversed $7 $-1 #
DXID-attrib $-1 -1 $-1 $10 $6 @18 ASM_FACE_FROM_STEP @15 stp-3M-236-3358 #
color-adesk-attrib $-1 -1 $27 $-1 $11 2 #
face $28 -1 $-1 $29 $30 $3 $-1 $31 forward single #
loop $-1 -1 $-1 $32 $33 $11 #
plane-surface $-1 -1 $-1 -32.256383891887822 -4.169567779055992 332 0 1 0 0 0 1 forward_v I I I I #
coedge $-1 -1 $-1 $34 $35 $36 $37 reversed $12 $-1 #
coedge $-1 -1 $-1 $22 $22 $38 $39 forward $14 $-1 #
coedge $-1 -1 $-1 $40 $15 $41 $42 forward $7 $-1 #
coedge $-1 -1 $-1 $15 $40 $35 $43 forward $7 $-1 #
coedge $-1 -1 $-1 $44 $45 $15 $26 forward $19 $-1 #
edge $46 -1 $-1 $47 0.0019999999999999996 $48 0.029999999999999999 $15 $49 forward @7 unknown #
DXID-attrib $-1 -1 $-1 $17 $11 @18 ASM_FACE_FROM_STEP @15 stp-3M-236-2970 #
color-adesk-attrib $-1 -1 $50 $-1 $18 2 #
face $51 -1 $-1 $52 $53 $3 $-1 $54 reversed single #
loop $-1 -1 $-1 $-1 $55 $18 #
plane-surface $-1 -1 $-1 -16.256383891887822 -50.169567779055996 316 0 0 -1 -1 0 0 forward_v I I I I #
loop $-1 -1 $-1 $-1 $56 $11 #
coedge $-1 -1 $-1 $45 $57 $58 $59 forward $19 $-1 #
coedge $-1 -1 $-1 $60 $21 $61 $62 reversed $12 $-1 #
coedge $-1 -1 $-1 $21 $60 $24 $43 reversed $12 $-1 #
coedge $-1 -1 $-1 $63 $64 $21 $37 forward $65 $-1 #
edge $66 -1 $-1 $67 -0.0028284271247461888 $68 0 $21 $69 reversed @7 unknown #
coedge $-1 -1 $-1 $38 $38 $22 $39 reversed $70 $-1 #
edge $71 -1 $-1 $72 0 $72 6.2831853071795862 $22 $73 forward @7 unknown #
coedge $-1 -1 $-1 $24 $23 $63 $74 forward $7 $-1 #
coedge $-1 -1 $-1 $75 $76 $23 $42 reversed $77 $-1 #
edge $78 -1 $-1 $47 -0.046000000000000006 $79 0 $23 $80 forward @7 unknown #
edge $81 -1 $-1 $68 0 $48 0.046000000000000006 $24 $82 forward @7 unknown #
coedge $-1 -1 $-1 $83 $25 $60 $84 forward $19 $-1 #
coedge $-1 -1 $-1 $25 $33 $75 $85 forward $19 $-1 #
color-adesk-attrib $-1 -1 $86 $-1 $26 2 #
vertex $-1 -1 $-1 $26 $87 #
vertex $-1 -1 $-1 $26 $88 #
straight-curve $-1 -1 $-1 -48.256383891887822 -4.169567779055992 316 -1.0842021724855e-13 0 1000 F 0.0019999999999999996 F 0.029999999999999999 #
DXID-attrib $-1 -1 $-1 $28 $18 @18 ASM_FACE_FROM_STEP @15 stp-3M-236-1968 #
color-adesk-attrib $-1 -1 $89 $-1 $29 2 #
face $90 -1 $-1 $91 $92 $3 $-1 $93 forward single #
loop $-1 -1 $-1 $-1 $94 $29 #
plane-surface $-1 -1 $-1 -16.256383891887822 -50.169567779055996 318 -0.70710678118654802 0 0.70710678118654702 0 1 0 forward_v I I I I #
coedge $-1 -1 $-1 $95 $96 $97 $98 forward $30 $-1 #
coedge $-1 -1 $-1 $56 $56 $99 $100 reversed $32 $-1 #
coedge $-1 -1 $-1 $33 $101 $102 $103 forward $19 $-1 #
coedge $-1 -1 $-1 $96 $95 $33 $59 reversed $30 $-1 #
edge $104 -1 $-1 $105 0.0019999999999999996 $106 0.029999999999999999 $33 $107 forward @7 unknown #
coedge $-1 -1 $-1 $35 $34 $44 $84 reversed $12 $-1 #
coedge $-1 -1 $-1 $108 $109 $34 $62 forward $110 $-1 #
edge $111 -1 $-1 $112 -0.046000000000000006 $67 0 $34 $113 forward @7 unknown #
coedge $-1 -1 $-1 $114 $36 $40 $74 reversed $65 $-1 #
coedge $-1 -1 $-1 $36 $115 $108 $116 reversed $65 $-1 #
loop $-1 -1 $-1 $117 $63 $118 #
color-adesk-attrib $-1 -1 $119 $-1 $37 2 #
vertex $-1 -1 $-1 $37 $120 #
vertex $-1 -1 $-1 $74 $121 #
straight-curve $-1 -1 $-1 -48.256383891887822 -50.169567779055996 346 707.10678118654698 0 707.10678118654801 F 0 F 0.0028284271247461888 #
loop $-1 -1 $-1 $-1 $38 $122 #
color-adesk-attrib $-1 -1 $123 $-1 $39 2 #
vertex $-1 -1 $-1 $39 $124 #
ellipse-curve $-1 -1 $-1 -48.256383891887822 -27.169567779055996 332 1 0 -1.15648231731787e-16 0 12.5 0 1 I I #
edge $125 -1 $-1 $79 0.0019999999999999996 $68 0.029999999999999999 $40 $126 forward @7 unknown #
coedge $-1 -1 $-1 $127 $41 $45 $85 reversed $77 $-1 #
coedge $-1 -1 $-1 $41 $127 $114 $128 reversed $77 $-1 #
loop $-1 -1 $-1 $-1 $76 $129 #
color-adesk-attrib $-1 -1 $130 $-1 $42 2 #
vertex $-1 -1 $-1 $42 $131 #
straight-curve $-1 -1 $-1 -48.256383891887822 -50.169567779055996 318 0 -1000 0 F -0.046000000000000006 F 0 #
color-adesk-attrib $-1 -1 $132 $-1 $43 2 #
straight-curve $-1 -1 $-1 -48.256383891887822 -50.169567779055996 346 0 1000 0 F 0 F 0.046000000000000006 #
coedge $-1 -1 $-1 $133 $44 $109 $134 forward $19 $-1 #
edge $135 -1 $-1 $48 -0.0014142135623730948 $112 0.0014142135623730948 $60 $136 reversed @7 unknown #
edge $137 -1 $-1 $106 -0.0014142135623730948 $47 0.0014142135623730948 $45 $138 reversed @7 unknown #
DXID-attrib $-1 -1 $-1 $46 $26 @18 ASM_EDGE_FROM_STEP @5 28245 #
point $-1 -1 $-1 -48.256383891887822 -4.169567779055992 318 #
point $-1 -1 $-1 -48.256383891887822 -4.169567779055992 346 #
DXID-attrib $-1 -1 $-1 $51 $29 @18 ASM_FACE_FROM_STEP @15 stp-3M-236-3354 #
color-adesk-attrib $-1 -1 $139 $-1 $52 2 #
face $140 -1 $-1 $141 $110 $3 $-1 $142 forward single #
loop $-1 -1 $-1 $143 $144 $52 #
plane-surface $-1 -1 $-1 -16.256383891887822 -50.169567779055996 348 1 0 1.0842021724855e-16 1.0842021724855001e-16 0 -1 forward_v I I I I #
coedge $-1 -1 $-1 $145 $146 $147 $148 reversed $53 $-1 #
coedge $-1 -1 $-1 $58 $55 $127 $149 forward $30 $-1 #
coedge $-1 -1 $-1 $55 $58 $145 $150 forward $30 $-1 #
coedge $-1 -1 $-1 $147 $114 $55 $98 reversed $65 $-1 #
edge $151 -1 $-1 $152 0.0019999999999999996 $153 0.029999999999999999 $55 $154 forward @7 unknown #
coedge $-1 -1 $-1 $99 $99 $56 $100 forward $155 $-1 #
edge $156 -1 $-1 $157 0 $157 6.2831853071795862 $56 $158 forward @7 unknown #
coedge $-1 -1 $-1 $57 $133 $159 $160 forward $19 $-1 #
coedge $-1 -1 $-1 $146 $145 $57 $103 reversed $53 $-1 #
edge $161 -1 $-1 $162 -0.0014142135623730948 $105 0.0014142135623730948 $57 $163 reversed @7 unknown #
color-adesk-attrib $-1 -1 $164 $-1 $59 2 #
vertex $-1 -1 $-1 $59 $165 #
vertex $-1 -1 $-1 $59 $166 #
straight-curve $-1 -1 $-1 -16.256383891887822 -4.169567779055992 316 -1000 0 0 F 0.0019999999999999996 F 0.029999999999999999 #
coedge $-1 -1 $-1 $167 $61 $64 $116 forward $110 $-1 #
coedge $-1 -1 $-1 $61 $167 $83 $134 reversed $110 $-1 #
loop $-1 -1 $-1 $-1 $108 $91 #
color-adesk-attrib $-1 -1 $168 $-1 $62 2 #
vertex $-1 -1 $-1 $62 $169 #
straight-curve $-1 -1 $-1 -46.256383891887822 -50.169567779055996 348 0 -1000 0 F -0.046000000000000006 F 0 #
coedge $-1 -1 $-1 $97 $63 $76 $128 forward $65 $-1 #
coedge $-1 -1 $-1 $64 $170 $171 $172 forward $65 $-1 #
edge $173 -1 $-1 $67 0.0019999999999999996 $174 0.029999999999999999 $108 $175 forward @7 unknown #
loop $-1 -1 $-1 $-1 $176 $118 #
face $177 -1 $-1 $129 $65 $3 $-1 $178 reversed single #
DXID-attrib $-1 -1 $-1 $66 $37 @18 ASM_EDGE_FROM_STEP @5 25939 #
point $-1 -1 $-1 -46.256383891887822 -50.169567779055996 348 #
point $-1 -1 $-1 -48.256383891887822 -50.169567779055996 346 #
face $179 -1 $-1 $-1 $180 $3 $-1 $181 reversed single #
DXID-attrib $-1 -1 $-1 $71 $39 @18 ASM_EDGE_FROM_STEP @5 28622 #
point $-1 -1 $-1 -48.256383891887822 -14.669567779055996 332 #
color-adesk-attrib $-1 -1 $182 $-1 $74 2 #
straight-curve $-1 -1 $-1 -48.256383891887822 -50.169567779055996 316 -1.0842021724855e-13 0 1000 F 0.0019999999999999996 F 0.029999999999999999 #
coedge $-1 -1 $-1 $76 $75 $95 $149 reversed $77 $-1 #
edge $183 -1 $-1 $79 -0.0028284271247461888 $153 0 $114 $184 reversed @7 unknown #
face $185 -1 $-1 $186 $77 $3 $-1 $187 reversed single #
DXID-attrib $-1 -1 $-1 $78 $42 @18 ASM_EDGE_FROM_STEP @5 28584 #
point $-1 -1 $-1 -48.256383891887822 -50.169567779055996 318 #
DXID-attrib $-1 -1 $-1 $81 $43 @18 ASM_EDGE_FROM_STEP @5 28621 #
coedge $-1 -1 $-1 $101 $83 $188 $189 forward $19 $-1 #
edge $190 -1 $-1 $112 0.0019999999999999996 $191 0.029999999999999999 $83 $192 forward @7 unknown #
color-adesk-attrib $-1 -1 $193 $-1 $84 2 #
straight-curve $-1 -1 $-1 -47.256383891887822 -4.169567779055992 347 -707.10678118654698 0 -707.10678118654801 F -0.0014142135623730948 F 0.0014142135623730948 #
color-adesk-attrib $-1 -1 $194 $-1 $85 2 #
straight-curve $-1 -1 $-1 -47.256383891887822 -4.169567779055992 317 707.10678118654801 0 -707.10678118654698 F -0.0014142135623730948 F 0.0014142135623730948 #
DXID-attrib $-1 -1 $-1 $90 $52 @18 ASM_FACE_FROM_STEP @15 stp-3M-236-3698 #
color-adesk-attrib $-1 -1 $195 $-1 $91 2 #
face $196 -1 $-1 $118 $197 $3 $-1 $198 reversed single #
plane-surface $-1 -1 $-1 -48.256383891887822 -50.169567779055996 348 -4.3368086899420202e-16 0 1 1 0 4.3368086899420202e-16 forward_v I I I I #
loop $-1 -1 $-1 $-1 $199 $52 #
coedge $-1 -1 $-1 $200 $201 $170 $202 forward $92 $-1 #
coedge $-1 -1 $-1 $102 $94 $96 $150 reversed $53 $-1 #
coedge $-1 -1 $-1 $94 $102 $200 $203 reversed $53 $-1 #
coedge $-1 -1 $-1 $170 $97 $94 $148 forward $65 $-1 #
edge $204 -1 $-1 $152 -0.0028284271247461888 $205 0 $94 $206 reversed @7 unknown #
edge $207 -1 $-1 $153 0 $106 0.046000000000000006 $95 $208 forward @7 unknown #
edge $209 -1 $-1 $105 -0.046000000000000006 $152 0 $96 $210 forward @7 unknown #
color-adesk-attrib $-1 -1 $211 $-1 $98 2 #
vertex $-1 -1 $-1 $98 $212 #
vertex $-1 -1 $-1 $98 $213 #
straight-curve $-1 -1 $-1 -16.256383891887822 -50.169567779055996 316 -1000 0 0 F 0.0019999999999999996 F 0.029999999999999999 #
loop $-1 -1 $-1 $-1 $99 $214 #
color-adesk-attrib $-1 -1 $215 $-1 $100 2 #
vertex $-1 -1 $-1 $100 $216 #
ellipse-curve $-1 -1 $-1 -32.256383891887822 -4.169567779055992 332 0 1 0 0 0 12 1 I I #
coedge $-1 -1 $-1 $201 $200 $101 $160 reversed $92 $-1 #
edge $217 -1 $-1 $218 0.0019999999999999996 $162 0.029999999999999999 $101 $219 forward @7 unknown #
color-adesk-attrib $-1 -1 $220 $-1 $103 2 #
vertex $-1 -1 $-1 $160 $221 #
straight-curve $-1 -1 $-1 -17.256383891887822 -4.169567779055992 317 707.10678118654698 0 707.10678118654801 F -0.0014142135623730948 F 0.0014142135623730948 #
DXID-attrib $-1 -1 $-1 $104 $59 @18 ASM_EDGE_FROM_STEP @5 26347 #
point $-1 -1 $-1 -18.256383891887822 -4.169567779055992 316 #
point $-1 -1 $-1 -46.256383891887822 -4.169567779055992 316 #
coedge $-1 -1 $-1 $109 $108 $222 $223 forward $110 $-1 #
DXID-attrib $-1 -1 $-1 $111 $62 @18 ASM_EDGE_FROM_STEP @5 28404 #
point $-1 -1 $-1 -46.256383891887822 -4.169567779055992 348 #
coedge $-1 -1 $-1 $115 $147 $144 $202 reversed $65 $-1 #
coedge $-1 -1 $-1 $224 $222 $115 $172 reversed $197 $-1 #
edge $225 -1 $-1 $226 -0.0028284271247461879 $174 0 $171 $227 reversed @7 unknown #
color-adesk-attrib $-1 -1 $228 $-1 $116 2 #
vertex $-1 -1 $-1 $116 $229 #
straight-curve $-1 -1 $-1 -48.256383891887822 -50.169567779055996 348 1000 0 4.3368086899420203e-13 F 0.0019999999999999996 F 0.029999999999999999 #
coedge $-1 -1 $-1 $176 $176 $230 $231 forward $117 $-1 #
color-adesk-attrib $-1 -1 $232 $-1 $118 2 #
plane-surface $-1 -1 $-1 -32.256383891887822 -50.169567779055996 332 0 1 0 0 0 1 forward_v I I I I #
color-adesk-attrib $-1 -1 $233 $-1 $122 2 #
loop $-1 -1 $-1 $70 $234 $122 #
cone-surface $-1 -1 $-1 -42.256383891887822 -27.169567779055996 332 1 0 -1.1564823173178702e-16 1.4456028966473377e-15 0 12.5 1 I I 0 1 12.5 forward I I I I #
DXID-attrib $-1 -1 $-1 $125 $74 @18 ASM_EDGE_FROM_STEP @5 25932 #
color-adesk-attrib $-1 -1 $235 $-1 $128 2 #
straight-curve $-1 -1 $-1 -46.256383891887822 -50.169567779055996 316 -707.10678118654801 0 707.10678118654698 F 0 F 0.0028284271247461888 #
color-adesk-attrib $-1 -1 $236 $-1 $129 2 #
face $237 -1 $-1 $238 $239 $3 $-1 $240 reversed single #
plane-surface $-1 -1 $-1 -46.256383891887822 -50.169567779055996 316 0.70710678118654702 0 0.70710678118654802 0 1 0 forward_v I I I I #
coedge $-1 -1 $-1 $222 $224 $133 $189 reversed $197 $-1 #
edge $241 -1 $-1 $191 -0.0014142135623730942 $218 0.0014142135623730942 $133 $242 reversed @7 unknown #
color-adesk-attrib $-1 -1 $243 $-1 $134 2 #
vertex $-1 -1 $-1 $134 $244 #
straight-curve $-1 -1 $-1 -48.256383891887822 -4.169567779055992 348 1000 0 4.3368086899420203e-13 F 0.0019999999999999996 F 0.029999999999999999 #
DXID-attrib $-1 -1 $-1 $135 $84 @18 ASM_EDGE_FROM_STEP @5 28246 #
DXID-attrib $-1 -1 $-1 $137 $85 @18 ASM_EDGE_FROM_STEP @5 28244 #
DXID-attrib $-1 -1 $-1 $140 $91 @18 ASM_FACE_FROM_STEP @15 stp-3M-236-3084 #
color-adesk-attrib $-1 -1 $245 $-1 $141 2 #
loop $-1 -1 $-1 $-1 $171 $141 #
plane-surface $-1 -1 $-1 -18.256383891887822 -50.169567779055996 348 -0.70710678118654757 0 -0.70710678118654757 0 1 0 forward_v I I I I #
coedge $-1 -1 $-1 $199 $199 $246 $247 forward $143 $-1 #
coedge $-1 -1 $-1 $159 $144 $146 $203 forward $92 $-1 #
coedge $-1 -1 $-1 $144 $159 $224 $248 forward $92 $-1 #
edge $249 -1 $-1 $226 0.0019999999999999996 $205 0.029999999999999999 $144 $250 forward @7 unknown #
edge $251 -1 $-1 $205 0 $162 0.046000000000000006 $146 $252 forward @7 unknown #
color-adesk-attrib $-1 -1 $253 $-1 $148 2 #
vertex $-1 -1 $-1 $148 $254 #
straight-curve $-1 -1 $-1 -16.256383891887822 -50.169567779055996 318 -707.10678118654698 0 -707.10678118654801 F 0 F 0.0028284271247461888 #
color-adesk-attrib $-1 -1 $255 $-1 $149 2 #
straight-curve $-1 -1 $-1 -46.256383891887822 -50.169567779055996 316 0 1000 0 F 0 F 0.046000000000000006 #
color-adesk-attrib $-1 -1 $256 $-1 $150 2 #
straight-curve $-1 -1 $-1 -18.256383891887822 -50.169567779055996 316 0 -1000 0 F -0.046000000000000006 F 0 #
DXID-attrib $-1 -1 $-1 $151 $98 @18 ASM_EDGE_FROM_STEP @5 25934 #
point $-1 -1 $-1 -18.256383891887822 -50.169567779055996 316 #
point $-1 -1 $-1 -46.256383891887822 -50.169567779055996 316 #
face $257 -1 $-1 $258 $259 $3 $-1 $260 forward single #
DXID-attrib $-1 -1 $-1 $156 $100 @18 ASM_EDGE_FROM_STEP @5 27051 #
point $-1 -1 $-1 -32.256383891887822 -4.169567779055992 344 #
color-adesk-attrib $-1 -1 $261 $-1 $160 2 #
vertex $-1 -1 $-1 $189 $262 #
straight-curve $-1 -1 $-1 -16.256383891887822 -4.169567779055992 348 1.0842021724855e-13 0 -1000 F 0.0019999999999999996 F 0.029999999999999999 #
DXID-attrib $-1 -1 $-1 $161 $103 @18 ASM_EDGE_FROM_STEP @5 28250 #
point $-1 -1 $-1 -16.256383891887822 -4.169567779055992 318 #
coedge $-1 -1 $-1 $171 $188 $167 $223 reversed $197 $-1 #
edge $263 -1 $-1 $174 0 $191 0.046000000000000006 $167 $264 forward @7 unknown #
coedge $-1 -1 $-1 $188 $171 $201 $248 reversed $197 $-1 #
color-adesk-attrib $-1 -1 $265 $-1 $172 2 #
vertex $-1 -1 $-1 $202 $266 #
straight-curve $-1 -1 $-1 -18.256383891887822 -50.169567779055996 348 707.10678118654801 0 -707.10678118654801 F 0 F 0.0028284271247461879 #
DXID-attrib $-1 -1 $-1 $173 $116 @18 ASM_EDGE_FROM_STEP @5 25938 #
point $-1 -1 $-1 -18.256383891887822 -50.169567779055996 348 #
coedge $-1 -1 $-1 $230 $230 $176 $231 reversed $267 $-1 #
edge $268 -1 $-1 $269 0 $269 6.2831853071795862 $176 $270 forward @7 unknown #
DXID-attrib $-1 -1 $-1 $177 $118 @18 ASM_FACE_FROM_STEP @15 stp-3M-236-1802 #
DXID-attrib $-1 -1 $-1 $179 $122 @18 ASM_FACE_FROM_STEP @15 stp-3M-236-3710 #
coedge $-1 -1 $-1 $234 $234 $271 $272 forward $180 $-1 #
DXID-attrib $-1 -1 $-1 $183 $128 @18 ASM_EDGE_FROM_STEP @5 25933 #
DXID-attrib $-1 -1 $-1 $185 $129 @18 ASM_FACE_FROM_STEP @15 stp-3M-236-3252 #
color-adesk-attrib $-1 -1 $273 $-1 $186 2 #
face $274 -1 $-1 $275 $276 $3 $-1 $277 reversed single #
loop $-1 -1 $-1 $278 $271 $186 #
plane-surface $-1 -1 $-1 -42.256383891887822 -27.169567779055996 332 1 0 -1.15648231731787e-16 -1.15648231731787e-16 0 -1 forward_v I I I I #
color-adesk-attrib $-1 -1 $279 $-1 $189 2 #
straight-curve $-1 -1 $-1 -17.256383891887822 -4.169567779055992 347 -707.10678118654801 0 707.10678118654801 F -0.0014142135623730942 F 0.0014142135623730942 #
DXID-attrib $-1 -1 $-1 $190 $134 @18 ASM_EDGE_FROM_STEP @5 28247 #
point $-1 -1 $-1 -18.256383891887822 -4.169567779055992 348 #
DXID-attrib $-1 -1 $-1 $196 $141 @18 ASM_FACE_FROM_STEP @15 stp-3M-236-3046 #
coedge $-1 -1 $-1 $246 $246 $199 $247 reversed $280 $-1 #
edge $281 -1 $-1 $282 0 $282 6.2831853071795862 $199 $283 forward @7 unknown #
edge $284 -1 $-1 $218 -0.046000000000000006 $226 0 $201 $285 forward @7 unknown #
color-adesk-attrib $-1 -1 $286 $-1 $202 2 #
straight-curve $-1 -1 $-1 -16.256383891887822 -50.169567779055996 348 1.0842021724855e-13 0 -1000 F 0.0019999999999999996 F 0.029999999999999999 #
color-adesk-attrib $-1 -1 $287 $-1 $203 2 #
straight-curve $-1 -1 $-1 -16.256383891887822 -50.169567779055996 318 0 1000 0 F 0 F 0.046000000000000006 #
DXID-attrib $-1 -1 $-1 $204 $148 @18 ASM_EDGE_FROM_STEP @5 25935 #
point $-1 -1 $-1 -16.256383891887822 -50.169567779055996 318 #
DXID-attrib $-1 -1 $-1 $207 $149 @18 ASM_EDGE_FROM_STEP @5 26346 #
DXID-attrib $-1 -1 $-1 $209 $150 @18 ASM_EDGE_FROM_STEP @5 26348 #
color-adesk-attrib $-1 -1 $288 $-1 $214 2 #
face $289 -1 $-1 $290 $291 $3 $-1 $292 forward single #
loop $-1 -1 $-1 $155 $293 $214 #
cone-surface $-1 -1 $-1 -32.256383891887822 0.83043222094400804 332 0 1 0 0 0 -12 1 I I 0 1 12.000000000000002 forward I I I I #
DXID-attrib $-1 -1 $-1 $217 $160 @18 ASM_EDGE_FROM_STEP @5 28249 #
point $-1 -1 $-1 -16.256383891887822 -4.169567779055992 346 #
color-adesk-attrib $-1 -1 $294 $-1 $223 2 #
straight-curve $-1 -1 $-1 -18.256383891887822 -50.169567779055996 348 0 1000 0 F 0 F 0.046000000000000006 #
DXID-attrib $-1 -1 $-1 $225 $172 @18 ASM_EDGE_FROM_STEP @5 25937 #
point $-1 -1 $-1 -16.256383891887822 -50.169567779055996 346 #
loop $-1 -1 $-1 $-1 $230 $295 #
color-adesk-attrib $-1 -1 $296 $-1 $231 2 #
vertex $-1 -1 $-1 $231 $297 #
ellipse-curve $-1 -1 $-1 -32.256383891887822 -50.169567779055996 332 0 1 0 0 0 12 1 I I #
coedge $-1 -1 $-1 $271 $271 $234 $272 reversed $239 $-1 #
edge $298 -1 $-1 $299 0 $299 6.2831853071795862 $271 $300 forward @7 unknown #
DXID-attrib $-1 -1 $-1 $237 $186 @18 ASM_FACE_FROM_STEP @15 stp-3M-236-2748 #
color-adesk-attrib $-1 -1 $301 $-1 $238 2 #
face $302 -1 $-1 $303 $304 $3 $-1 $305 reversed single #
loop $-1 -1 $-1 $306 $307 $238 #
cone-surface $-1 -1 $-1 -88.256383891887822 -27.169567779055996 332 -1 0 -1.1564823173178702e-16 9.8300996972018964e-16 0 -8.5 1 I I 0 1 8.5 forward I I I I #
loop $-1 -1 $-1 $-1 $308 $186 #
DXID-attrib $-1 -1 $-1 $241 $189 @18 ASM_EDGE_FROM_STEP @5 28248 #
loop $-1 -1 $-1 $-1 $246 $275 #
color-adesk-attrib $-1 -1 $309 $-1 $247 2 #
vertex $-1 -1 $-1 $247 $310 #
ellipse-curve $-1 -1 $-1 -16.256383891887822 -27.169567779055996 332 -1 0 -1.15648231731787e-16 0 12.5 0 1 I I #
color-adesk-attrib $-1 -1 $311 $-1 $248 2 #
straight-curve $-1 -1 $-1 -16.256383891887822 -50.169567779055996 346 0 -1000 0 F -0.046000000000000006 F 0 #
DXID-attrib $-1 -1 $-1 $249 $202 @18 ASM_EDGE_FROM_STEP @5 25936 #
DXID-attrib $-1 -1 $-1 $251 $203 @18 ASM_EDGE_FROM_STEP @5 28691 #
DXID-attrib $-1 -1 $-1 $257 $214 @18 ASM_FACE_FROM_STEP @15 stp-3M-236-2270 #
color-adesk-attrib $-1 -1 $312 $-1 $258 2 #
face $313 -1 $-1 $295 $314 $3 $-1 $315 reversed single #
loop $-1 -1 $-1 $316 $317 $258 #
cone-surface $-1 -1 $-1 -32.256383891887822 -54.169567779055996 332 0 1 0 0 0 12 1 I I 0.70710678118654724 0.70710678118654779 12.000000000000002 forward I I I I #
coedge $-1 -1 $-1 $293 $293 $318 $319 forward $259 $-1 #
DXID-attrib $-1 -1 $-1 $263 $223 @18 ASM_EDGE_FROM_STEP @5 28360 #
face $320 -1 $-1 $122 $321 $3 $-1 $322 forward single #
DXID-attrib $-1 -1 $-1 $268 $231 @18 ASM_EDGE_FROM_STEP @5 25931 #
point $-1 -1 $-1 -32.256383891887822 -50.169567779055996 344 #
color-adesk-attrib $-1 -1 $323 $-1 $272 2 #
vertex $-1 -1 $-1 $272 $324 #
ellipse-curve $-1 -1 $-1 -42.256383891887822 -27.169567779055996 332 1 0 -1.15648231731787e-16 0 12.5 0 1 I I #
DXID-attrib $-1 -1 $-1 $274 $238 @18 ASM_FACE_FROM_STEP @15 stp-3M-236-3450 #
color-adesk-attrib $-1 -1 $325 $-1 $275 2 #
face $326 -1 $-1 $327 $328 $3 $-1 $329 forward single #
loop $-1 -1 $-1 $280 $330 $275 #
cone-surface $-1 -1 $-1 -22.256383891887822 -27.169567779055996 332 -1 0 -1.1564823173178702e-16 1.4456028966473377e-15 0 -12.5 1 I I 0 1 12.5 forward I I I I #
loop $-1 -1 $-1 $-1 $331 $238 #
coedge $-1 -1 $-1 $307 $307 $308 $332 reversed $276 $-1 #
coedge $-1 -1 $-1 $308 $308 $307 $332 forward $278 $-1 #
DXID-attrib $-1 -1 $-1 $281 $247 @18 ASM_EDGE_FROM_STEP @5 27520 #
point $-1 -1 $-1 -16.256383891887822 -14.669567779055996 332 #
DXID-attrib $-1 -1 $-1 $284 $248 @18 ASM_EDGE_FROM_STEP @5 28359 #
DXID-attrib $-1 -1 $-1 $289 $258 @18 ASM_FACE_FROM_STEP @15 stp-3M-236-2446 #
color-adesk-attrib $-1 -1 $333 $-1 $290 2 #
loop $-1 -1 $-1 $-1 $334 $290 #
plane-surface $-1 -1 $-1 -32.256383891887822 -55.169567779055996 332 0 1 0 0 0 1 forward_v I I I I #
loop $-1 -1 $-1 $-1 $335 $258 #
coedge $-1 -1 $-1 $317 $317 $334 $336 reversed $291 $-1 #
coedge $-1 -1 $-1 $318 $318 $293 $319 reversed $337 $-1 #
edge $338 -1 $-1 $339 0 $339 6.2831853071795862 $318 $340 forward @7 unknown #
color-adesk-attrib $-1 -1 $341 $-1 $295 2 #
loop $-1 -1 $-1 $267 $342 $295 #
cone-surface $-1 -1 $-1 -32.256383891887822 -55.169567779055996 332 0 -1 0 0 0 12 1 I I 0 1 12.000000000000002 forward I I I I #
DXID-attrib $-1 -1 $-1 $298 $272 @18 ASM_EDGE_FROM_STEP @5 27944 #
point $-1 -1 $-1 -42.256383891887822 -14.669567779055996 332 #
DXID-attrib $-1 -1 $-1 $302 $275 @18 ASM_FACE_FROM_STEP @15 stp-3M-236-2492 #
color-adesk-attrib $-1 -1 $343 $-1 $303 2 #
face $344 -1 $-1 $345 $346 $3 $-1 $347 reversed single #
loop $-1 -1 $-1 $337 $348 $303 #
cone-surface $-1 -1 $-1 -32.256383891887822 -0.16956777905599552 332 0 -1 0 0 0 -12 1 I I 0.70710678118654724 0.70710678118654779 12.000000000000002 forward I I I I #
coedge $-1 -1 $-1 $330 $330 $349 $350 forward $304 $-1 #
coedge $-1 -1 $-1 $331 $331 $351 $352 reversed $306 $-1 #
edge $353 -1 $-1 $354 0 $354 6.2831853071795862 $308 $355 forward @7 unknown #
DXID-attrib $-1 -1 $-1 $313 $290 @18 ASM_FACE_FROM_STEP @15 stp-3M-236-3304 #
coedge $-1 -1 $-1 $334 $334 $317 $336 forward $314 $-1 #
coedge $-1 -1 $-1 $335 $335 $342 $356 reversed $316 $-1 #
edge $357 -1 $-1 $358 -6.2831853071795862 $358 0 $317 $359 reversed @7 unknown #
loop $-1 -1 $-1 $-1 $318 $303 #
color-adesk-attrib $-1 -1 $360 $-1 $319 2 #
vertex $-1 -1 $-1 $319 $361 #
ellipse-curve $-1 -1 $-1 -32.256383891887822 -0.16956777905599552 332 0 -1 0 0 0 -12 1 I I #
DXID-attrib $-1 -1 $-1 $320 $295 @18 ASM_FACE_FROM_STEP @15 stp-3M-236-2510 #
coedge $-1 -1 $-1 $342 $342 $335 $356 forward $321 $-1 #
DXID-attrib $-1 -1 $-1 $326 $303 @18 ASM_FACE_FROM_STEP @15 stp-3M-236-3012 #
color-adesk-attrib $-1 -1 $362 $-1 $327 2 #
face $363 -1 $-1 $214 $364 $3 $-1 $365 reversed single #
loop $-1 -1 $-1 $366 $349 $327 #
plane-surface $-1 -1 $-1 -22.256383891887822 -27.169567779055996 332 -1 0 -1.15648231731787e-16 -1.15648231731787e-16 0 1 forward_v I I I I #
coedge $-1 -1 $-1 $348 $348 $367 $368 reversed $328 $-1 #
coedge $-1 -1 $-1 $349 $349 $330 $350 reversed $346 $-1 #
edge $369 -1 $-1 $370 0 $370 6.2831853071795862 $330 $371 forward @7 unknown #
coedge $-1 -1 $-1 $351 $351 $331 $352 forward $366 $-1 #
edge $372 -1 $-1 $373 0 $373 6.2831853071795862 $331 $374 forward @7 unknown #
color-adesk-attrib $-1 -1 $375 $-1 $332 2 #
vertex $-1 -1 $-1 $332 $376 #
ellipse-curve $-1 -1 $-1 -42.256383891887822 -27.169567779055996 332 1 0 -1.1564823173178702e-16 -9.8300996972018964e-16 0 -8.5 1 I I #
edge $377 -1 $-1 $378 0 $378 6.2831853071795862 $335 $379 forward @7 unknown #
color-adesk-attrib $-1 -1 $380 $-1 $336 2 #
vertex $-1 -1 $-1 $336 $381 #
ellipse-curve $-1 -1 $-1 -32.256383891887822 -55.169567779055996 332 0 1 0 0 0 11 1 I I #
DXID-attrib $-1 -1 $-1 $338 $319 @18 ASM_EDGE_FROM_STEP @5 27050 #
point $-1 -1 $-1 -32.256383891887822 -0.16956777905599552 320 #
DXID-attrib $-1 -1 $-1 $344 $327 @18 ASM_FACE_FROM_STEP @15 stp-3M-236-2506 #
color-adesk-attrib $-1 -1 $382 $-1 $345 2 #
loop $-1 -1 $-1 $-1 $367 $345 #
plane-surface $-1 -1 $-1 -32.256383891887822 0.83043222094400804 332 0 -1 0 0 0 -1 forward_v I I I I #
loop $-1 -1 $-1 $-1 $351 $327 #
coedge $-1 -1 $-1 $367 $367 $348 $368 forward $364 $-1 #
edge $383 -1 $-1 $384 -6.2831853071795862 $384 0 $348 $385 reversed @7 unknown #
color-adesk-attrib $-1 -1 $386 $-1 $350 2 #
vertex $-1 -1 $-1 $350 $387 #
ellipse-curve $-1 -1 $-1 -22.256383891887822 -27.169567779055996 332 -1 0 -1.15648231731787e-16 0 12.5 0 1 I I #
color-adesk-attrib $-1 -1 $388 $-1 $352 2 #
vertex $-1 -1 $-1 $352 $389 #
ellipse-curve $-1 -1 $-1 -22.256383891887822 -27.169567779055996 332 -1 0 -1.1564823173178702e-16 -9.8300996972018964e-16 0 8.5 1 I I #
DXID-attrib $-1 -1 $-1 $353 $332 @18 ASM_EDGE_FROM_STEP @5 27943 #
point $-1 -1 $-1 -42.256383891887822 -27.169567779055996 323.5 #
color-adesk-attrib $-1 -1 $390 $-1 $356 2 #
vertex $-1 -1 $-1 $356 $391 #
ellipse-curve $-1 -1 $-1 -32.256383891887822 -54.169567779055996 332 0 1 0 0 0 12 1 I I #
DXID-attrib $-1 -1 $-1 $357 $336 @18 ASM_EDGE_FROM_STEP @5 27433 #
point $-1 -1 $-1 -32.256383891887822 -55.169567779055996 343 #
DXID-attrib $-1 -1 $-1 $363 $345 @18 ASM_FACE_FROM_STEP @15 stp-3M-236-2200 #
color-adesk-attrib $-1 -1 $392 $-1 $368 2 #
vertex $-1 -1 $-1 $368 $393 #
ellipse-curve $-1 -1 $-1 -32.256383891887822 0.83043222094400804 332 0 -1 0 0 0 -11 1 I I #
DXID-attrib $-1 -1 $-1 $369 $350 @18 ASM_EDGE_FROM_STEP @5 27519 #
point $-1 -1 $-1 -22.256383891887822 -14.669567779055996 332 #
DXID-attrib $-1 -1 $-1 $372 $352 @18 ASM_EDGE_FROM_STEP @5 27541 #
point $-1 -1 $-1 -22.256383891887822 -27.169567779055996 340.5 #
DXID-attrib $-1 -1 $-1 $377 $356 @18 ASM_EDGE_FROM_STEP @5 27434 #
point $-1 -1 $-1 -32.256383891887822 -54.169567779055996 344 #
DXID-attrib $-1 -1 $-1 $383 $368 @18 ASM_EDGE_FROM_STEP @5 26863 #
point $-1 -1 $-1 -32.256383891887822 0.83043222094400804 321 #
