700 227 1 0         
5 ZWCAD 12 ACIS 28.0 NT 24 Sat May 11 16:07:55 2024 
1 9.9999999999999995e-07 1e-10 
body $1 -1 $-1 $2 $-1 $-1 #
DXID-attrib $-1 -1 $-1 $-1 $0 @18 ASM_BODY_FROM_STEP @83 595AA6239128AD22437BBC64A80A332D507EFF25|:|E48871FBB50E05F143736C8DB4A07EC86DF0E275 #
lump $-1 -1 $-1 $-1 $3 $0 #
shell $-1 -1 $-1 $-1 $-1 $4 $-1 $2 #
face $5 -1 $-1 $6 $7 $3 $-1 $8 reversed single #
color-adesk-attrib $-1 -1 $9 $-1 $4 7 #
face $10 -1 $-1 $11 $12 $3 $-1 $13 reversed single #
loop $-1 -1 $-1 $14 $15 $4 #
cone-surface $-1 -1 $-1 22.050988263159393 -191.05502541928735 1148 1 -5.1026118712304471e-16 1.8369701987210294e-16 2.2962127484012865e-17 -6.9388939039072284e-18 -0.125 1 I I 0.85716730070211233 0.51503807491005416 0.125 forward I I I I #
DXID-attrib $-1 -1 $-1 $5 $4 @18 ASM_FACE_FROM_STEP @14 stp-1M-37-4821 #
color-adesk-attrib $-1 -1 $16 $-1 $6 7 #
face $17 -1 $-1 $18 $19 $3 $-1 $20 reversed single #
loop $-1 -1 $-1 $21 $22 $6 #
cone-surface $-1 -1 $-1 22.451095840537839 -191.05502541928735 1148 1 -5.1026118712304471e-16 1.8369701987210294e-16 7.8071233445643748e-17 -2.3592239273284579e-17 -0.42500000000000004 1 I I 0.70710678118654757 0.70710678118654757 0.42500000000000004 forward I I I I #
loop $-1 -1 $-1 $-1 $23 $4 #
coedge $-1 -1 $-1 $15 $15 $-1 $24 forward $7 $-1 #
DXID-attrib $-1 -1 $-1 $10 $6 @18 ASM_FACE_FROM_STEP @14 stp-1M-37-4822 #
color-adesk-attrib $-1 -1 $25 $-1 $11 7 #
face $26 -1 $-1 $27 $28 $3 $-1 $29 reversed single #
loop $-1 -1 $-1 $30 $31 $11 #
cone-surface $-1 -1 $-1 22.376095840537836 -191.05502541928735 1148 1 -5.1026118712304471e-16 1.8369701987210294e-16 4.592425496802573e-17 -1.3877787807814457e-17 -0.25 1 I I 0 1 0.25 forward I I I I #
loop $-1 -1 $-1 $-1 $32 $6 #
coedge $-1 -1 $-1 $22 $22 $33 $34 reversed $12 $-1 #
coedge $-1 -1 $-1 $23 $23 $35 $36 forward $14 $-1 #
edge $37 -1 $-1 $38 1 $38 0 $15 $-1 forward @7 unknown #
DXID-attrib $-1 -1 $-1 $17 $11 @18 ASM_FACE_FROM_STEP @14 stp-1M-37-4823 #
color-adesk-attrib $-1 -1 $39 $-1 $18 7 #
face $40 -1 $-1 $41 $42 $3 $-1 $43 reversed single #
loop $-1 -1 $-1 $44 $45 $18 #
cone-surface $-1 -1 $-1 7.6260958405378272 -191.05502541928735 1149.4248924226215 -1.8369701987210292e-16 5.5511151231257827e-17 1 -0.125 6.3782648390380576e-17 -2.2962127484012868e-17 1 I I 0.85716730070211233 0.51503807491005416 0.125 forward I I I I #
loop $-1 -1 $-1 $-1 $35 $11 #
coedge $-1 -1 $-1 $31 $31 $32 $46 forward $19 $-1 #
coedge $-1 -1 $-1 $32 $32 $31 $46 reversed $21 $-1 #
coedge $-1 -1 $-1 $33 $33 $22 $34 forward $47 $-1 #
edge $48 -1 $-1 $49 3.8012653654723398e-48 $49 6.2831853071795862 $22 $50 forward @7 unknown #
coedge $-1 -1 $-1 $35 $35 $23 $36 reversed $30 $-1 #
edge $51 -1 $-1 $52 0 $52 6.2831853071795862 $23 $53 forward @7 unknown #
color-adesk-attrib $-1 -1 $-1 $-1 $24 7 #
vertex $-1 -1 $-1 $24 $54 #
DXID-attrib $-1 -1 $-1 $26 $18 @18 ASM_FACE_FROM_STEP @14 stp-1M-37-4824 #
color-adesk-attrib $-1 -1 $55 $-1 $27 7 #
face $56 -1 $-1 $57 $58 $3 $-1 $59 reversed single #
loop $-1 -1 $-1 $60 $61 $27 #
cone-surface $-1 -1 $-1 7.6260958405378272 -191.05502541928735 1149.825 -1.8369701987210292e-16 5.5511151231257827e-17 1 -0.42500000000000004 2.1686100452729399e-16 -7.807123344564376e-17 1 I I 0.70710678118654757 0.70710678118654757 0.42500000000000004 forward I I I I #
loop $-1 -1 $-1 $-1 $62 $18 #
coedge $-1 -1 $-1 $45 $45 $-1 $63 forward $28 $-1 #
edge $64 -1 $-1 $65 0 $65 6.2831853071795862 $32 $66 forward @7 unknown #
loop $-1 -1 $-1 $67 $33 $68 #
color-adesk-attrib $-1 -1 $69 $-1 $34 7 #
vertex $-1 -1 $-1 $34 $70 #
ellipse-curve $-1 -1 $-1 22.626095840537836 -191.05502541928735 1148 -1 5.1026118712304471e-16 -1.8369701987210294e-16 1.1021821192326174e-16 -3.3306690738754695e-17 -0.59999999999999998 1 I I #
color-adesk-attrib $-1 -1 $71 $-1 $36 7 #
vertex $-1 -1 $-1 $36 $72 #
ellipse-curve $-1 -1 $-1 22.126095840537836 -191.05502541928735 1148 1 -5.1026118712304471e-16 1.8369701987210294e-16 4.592425496802573e-17 -1.3877787807814457e-17 -0.25 1 I I #
point $-1 -1 $-1 21.975880685780947 -191.05502541928735 1148 #
DXID-attrib $-1 -1 $-1 $40 $27 @18 ASM_FACE_FROM_STEP @14 stp-1M-37-4825 #
color-adesk-attrib $-1 -1 $73 $-1 $41 7 #
face $74 -1 $-1 $75 $76 $3 $-1 $77 reversed single #
loop $-1 -1 $-1 $78 $79 $41 #
cone-surface $-1 -1 $-1 7.6260958405378272 -191.05502541928735 1149.75 1.8369701987210292e-16 -5.5511151231257827e-17 -1 -0.25 1.2756529678076115e-16 -4.5924254968025736e-17 1 I I 0 1 0.25 forward I I I I #
loop $-1 -1 $-1 $-1 $80 $27 #
coedge $-1 -1 $-1 $61 $61 $81 $82 reversed $42 $-1 #
coedge $-1 -1 $-1 $62 $62 $83 $84 reversed $44 $-1 #
edge $85 -1 $-1 $86 1 $86 0 $45 $-1 forward @7 unknown #
color-adesk-attrib $-1 -1 $87 $-1 $46 7 #
vertex $-1 -1 $-1 $46 $88 #
ellipse-curve $-1 -1 $-1 22.276095840537838 -191.05502541928735 1148 1 -5.1026118712304471e-16 1.8369701987210294e-16 4.592425496802573e-17 -1.3877787807814457e-17 -0.25 1 I I #
loop $-1 -1 $-1 $-1 $89 $68 #
face $90 -1 $-1 $91 $92 $3 $-1 $93 forward single #
DXID-attrib $-1 -1 $-1 $48 $34 @18 ASM_EDGE_FROM_STEP @4 2903 #
point $-1 -1 $-1 22.626095840537836 -191.05502541928735 1147.4000000000001 #
DXID-attrib $-1 -1 $-1 $51 $36 @18 ASM_EDGE_FROM_STEP @4 2902 #
point $-1 -1 $-1 22.126095840537836 -191.05502541928735 1147.75 #
DXID-attrib $-1 -1 $-1 $56 $41 @18 ASM_FACE_FROM_STEP @14 stp-1M-37-4826 #
color-adesk-attrib $-1 -1 $94 $-1 $57 7 #
face $95 -1 $-1 $68 $96 $3 $-1 $97 reversed single #
loop $-1 -1 $-1 $98 $99 $57 #
cone-surface $-1 -1 $-1 22.18784584053784 -191.05502541928735 1140 1 -5.1026118712304471e-16 1.8369701987210294e-16 6.9102226450388323e-16 -2.0881907314418414e-16 -3.7617500000000001 1 I I 0.70710678118654757 0.70710678118654757 3.7617500000000001 forward I I I I #
loop $-1 -1 $-1 $-1 $83 $41 #
coedge $-1 -1 $-1 $79 $79 $80 $100 reversed $58 $-1 #
coedge $-1 -1 $-1 $80 $80 $79 $100 forward $60 $-1 #
coedge $-1 -1 $-1 $81 $81 $61 $82 forward $101 $-1 #
edge $102 -1 $-1 $103 0.26744248563720868 $103 0.6240324664868202 $61 $104 forward @7 unknown #
coedge $-1 -1 $-1 $83 $83 $62 $84 forward $78 $-1 #
edge $105 -1 $-1 $106 0 $106 6.2831853071795862 $62 $107 forward @7 unknown #
color-adesk-attrib $-1 -1 $-1 $-1 $63 7 #
vertex $-1 -1 $-1 $63 $108 #
DXID-attrib $-1 -1 $-1 $64 $46 @18 ASM_EDGE_FROM_STEP @4 2904 #
point $-1 -1 $-1 22.276095840537838 -191.05502541928735 1147.75 #
coedge $-1 -1 $-1 $89 $89 $99 $109 forward $67 $-1 #
color-adesk-attrib $-1 -1 $110 $-1 $68 7 #
face $111 -1 $-1 $112 $113 $3 $-1 $114 forward single #
loop $-1 -1 $-1 $47 $115 $68 #
plane-surface $-1 -1 $-1 22.626095840537847 -178.55502541928735 1140 1 -5.1026118712304471e-16 1.8369701987210294e-16 -5.1026118712304471e-16 -1 5.5511151231257735e-17 forward_v I I I I #
DXID-attrib $-1 -1 $-1 $74 $57 @18 ASM_FACE_FROM_STEP @14 stp-1M-37-4827 #
color-adesk-attrib $-1 -1 $116 $-1 $75 7 #
loop $-1 -1 $-1 $117 $118 $75 #
cone-surface $-1 -1 $-1 11.526095840537828 -191.05502541928735 1140 1 -5.1026118712304471e-16 1.8369701987210294e-16 6.1051704554493402e-16 -1.8449131111708537e-16 -3.3234999999999997 1 I I 0 1 3.3235000000000001 forward I I I I #
loop $-1 -1 $-1 $-1 $119 $57 #
coedge $-1 -1 $-1 $99 $99 $89 $109 reversed $76 $-1 #
edge $120 -1 $-1 $121 0 $121 6.2831853071795862 $80 $122 forward @7 unknown #
loop $-1 -1 $-1 $123 $81 $124 #
color-adesk-attrib $-1 -1 $125 $-1 $82 7 #
vertex $-1 -1 $-1 $82 $126 #
intcurve-curve $-1 -1 $-1 forward { surfintcur full nubs 3 periodic 17 
	0 3 0.022213570194424544 2 0.044427140388849089 2 0.066787317800625981 2 0.089147495212402866 2 
	0.11150767262417975 2 0.13386785003595664 2 0.15608142023038118 2 0.17829499042480576 2 0.20050856061923034 2 
	0.22272213081365488 2 0.24508230822543178 2 0.26744248563720868 2 0.28980266304898561 2 0.31216284046076254 2 
	0.33437641065518708 2 0.35658998084961158 3 
	7.6260958405378272 -191.63801699603624 1149.9829915767489 
	7.5520506065564117 -191.63801699603624 1149.9829915767489 
	7.4728497981207322 -191.62388251793817 1149.9838492736678 
	7.3263852004698844 -191.56583883356063 1149.9869872532161 
	7.2591237937164017 -191.52192134878425 1149.9892254612269 
	7.1517084102038897 -191.41935680942163 1149.9934936044333 
	7.1045399537808454 -191.35367558866733 1149.9958020871791 
	7.0417252679696229 -191.20878106557333 1149.9990804825675 
	7.0260958405378258 -191.12955934399326 1150 
	7.0260958405378258 -190.98049149458143 1150 
	7.0417252679696247 -190.90126977300133 1149.9990804825675 
	7.1045399537808489 -190.75637524990734 1149.9958020871791 
	7.1517084102038897 -190.69069402915304 1149.9934936044333 
	7.2591237937164017 -190.58812948979042 1149.9892254612269 
	7.3263852004698844 -190.54421200501403 1149.9869872532161 
	7.4728497981207322 -190.48616832063652 1149.9838492736678 
	7.5520506065564099 -190.47203384253842 1149.9829915767489 
	7.7001410745192427 -190.47203384253842 1149.9829915767489 
	7.7793418829549221 -190.48616832063652 1149.9838492736678 
	7.92580648060577 -190.54421200501403 1149.9869872532161 
	7.9930678873592527 -190.58812948979042 1149.9892254612269 
	8.1004832708717647 -190.69069402915304 1149.9934936044333 
	8.1476517272948055 -190.75637524990734 1149.9958020871791 
	8.2104664131060296 -190.90126977300133 1149.9990804825675 
	8.2260958405378286 -190.98049149458143 1150 
	8.2260958405378286 -191.12955934399326 1150 
	8.2104664131060296 -191.20878106557333 1149.9990804825675 
	8.1476517272948055 -191.35367558866733 1149.9958020871791 
	8.1004832708717647 -191.41935680942166 1149.9934936044333 
	7.9930678873592527 -191.52192134878425 1149.9892254612269 
	7.9258064806057664 -191.56583883356063 1149.9869872532161 
	7.7793418829549168 -191.62388251793817 1149.9838492736678 
	7.7001410745192427 -191.63801699603624 1149.9829915767489 
	7.6260958405378272 -191.63801699603624 1149.9829915767489 
	0.0011311064080725853 
	cone 7.6260958405378272 -191.05502541928735 1149.825 -1.8369701987210292e-16 5.5511151231257827e-17 1 -0.42500000000000004 2.1686100452729399e-16 -7.807123344564376e-17 1 I I 0.70710678118654757 0.70710678118654757 0.42500000000000004 forward I I I I 
	cone -2.6239041594621746 -191.05502541928735 1140 -1 5.1026118712304471e-16 -1.8369701987210294e-16 5.1026118712304478e-15 10 -5.5511151231257738e-16 1 I I 0 1 10 forward I I I I 
	nullbs 
	nullbs 
	I I 
	0 
	0 
	0 
	} I I #
color-adesk-attrib $-1 -1 $127 $-1 $84 7 #
vertex $-1 -1 $-1 $84 $128 #
ellipse-curve $-1 -1 $-1 7.6260958405378272 -191.05502541928735 1149.5 1.8369701987210292e-16 -5.5511151231257827e-17 -1 -0.25 1.2756529678076115e-16 -4.5924254968025736e-17 1 I I #
point $-1 -1 $-1 7.6260958405378272 -191.05502541928735 1149.349784845243 #
edge $129 -1 $-1 $130 -5.4303790935073779e-49 $130 6.2831853071795862 $99 $131 forward @7 unknown #
DXID-attrib $-1 -1 $-1 $90 $68 @18 ASM_FACE_FROM_STEP @14 stp-1M-37-4829 #
color-adesk-attrib $-1 -1 $132 $-1 $91 7 #
face $133 -1 $-1 $124 $134 $3 $-1 $135 forward single #
loop $-1 -1 $-1 $136 $137 $91 #
cone-surface $-1 -1 $-1 19.87609584053784 -191.05502541928735 1140 -1 5.1026118712304471e-16 -1.8369701987210294e-16 6.3782648390380594e-15 12.5 -6.9388939039072165e-16 1 I I 0 1 12.5 forward I I I I #
coedge $-1 -1 $-1 $115 $115 $137 $138 reversed $92 $-1 #
DXID-attrib $-1 -1 $-1 $95 $75 @18 ASM_FACE_FROM_STEP @14 stp-1M-37-4828 #
loop $-1 -1 $-1 $-1 $139 $75 #
coedge $-1 -1 $-1 $118 $118 $140 $141 reversed $96 $-1 #
coedge $-1 -1 $-1 $119 $119 $139 $142 reversed $98 $-1 #
color-adesk-attrib $-1 -1 $143 $-1 $100 7 #
vertex $-1 -1 $-1 $100 $144 #
ellipse-curve $-1 -1 $-1 7.6260958405378272 -191.05502541928735 1149.6500000000001 1.8369701987210292e-16 -5.5511151231257827e-17 -1 -0.25 1.2756529678076115e-16 -4.5924254968025736e-17 1 I I #
loop $-1 -1 $-1 $-1 $145 $124 #
face $146 -1 $-1 $147 $148 $3 $-1 $149 forward single #
DXID-attrib $-1 -1 $150 $102 $82 @18 ASM_EDGE_FROM_STEP @4 2907 #
point $-1 -1 $-1 8.2260958405378251 -191.05502541928735 1150 #
DXID-attrib $-1 -1 $-1 $105 $84 @18 ASM_EDGE_FROM_STEP @4 2905 #
point $-1 -1 $-1 7.3760958405378254 -191.05502541928735 1149.5 #
color-adesk-attrib $-1 -1 $151 $-1 $109 7 #
vertex $-1 -1 $-1 $109 $152 #
ellipse-curve $-1 -1 $-1 22.62609584053784 -191.05502541928735 1140 -1 5.1026118712304471e-16 -1.8369701987210294e-16 7.7152748346283234e-16 -2.3314683517128288e-16 -4.2000000000000002 1 I I #
DXID-attrib $-1 -1 $-1 $111 $91 @18 ASM_FACE_FROM_STEP @14 stp-1M-37-4830 #
color-adesk-attrib $-1 -1 $153 $-1 $112 7 #
loop $-1 -1 $-1 $154 $155 $112 #
plane-surface $-1 -1 $-1 17.126095840537843 -181.05502541928735 1140 -1 5.1026118712304471e-16 -1.8369701987210294e-16 5.1026118712304471e-16 1 -5.5511151231257735e-17 forward_v I I I I #
loop $-1 -1 $-1 $-1 $156 $91 #
coedge $-1 -1 $-1 $137 $137 $115 $138 forward $113 $-1 #
edge $157 -1 $-1 $158 -1.5707963267948966 $158 4.7123889803846897 $115 $159 forward @7 unknown #
coedge $-1 -1 $-1 $139 $139 $119 $142 forward $117 $-1 #
coedge $-1 -1 $-1 $140 $140 $118 $141 forward $160 $-1 #
edge $161 -1 $-1 $162 -3.1415926535897931 $162 3.1415926535897931 $118 $163 forward @7 unknown #
edge $164 -1 $-1 $165 0 $165 6.2831853071795862 $119 $166 forward @7 unknown #
DXID-attrib $-1 -1 $-1 $120 $100 @18 ASM_EDGE_FROM_STEP @4 2908 #
point $-1 -1 $-1 7.3760958405378254 -191.05502541928735 1149.6500000000001 #
coedge $-1 -1 $-1 $145 $145 $167 $168 reversed $123 $-1 #
color-adesk-attrib $-1 -1 $169 $-1 $124 7 #
face $170 -1 $-1 $171 $172 $3 $-1 $173 forward single #
loop $-1 -1 $-1 $101 $174 $124 #
cone-surface $-1 -1 $-1 -2.6239041594621746 -191.05502541928735 1140 -1 5.1026118712304471e-16 -1.8369701987210294e-16 5.1026118712304478e-15 10 -5.5511151231257738e-16 1 I I 0 1 10 forward I I I I #
DXID-attrib $-1 -1 $-1 $125 $82 @18 ASM_EDGE_FROM_STEP @4 2906 #
DXID-attrib $-1 -1 $-1 $129 $109 @18 ASM_EDGE_FROM_STEP @4 2909 #
point $-1 -1 $-1 22.62609584053784 -191.05502541928735 1135.8 #
DXID-attrib $-1 -1 $-1 $133 $112 @18 ASM_FACE_FROM_STEP @14 stp-1M-37-4831 #
loop $-1 -1 $-1 $-1 $175 $112 #
coedge $-1 -1 $-1 $155 $155 $156 $176 forward $134 $-1 #
coedge $-1 -1 $-1 $156 $156 $155 $176 reversed $136 $-1 #
color-adesk-attrib $-1 -1 $177 $-1 $138 7 #
vertex $-1 -1 $-1 $138 $178 #
ellipse-curve $-1 -1 $-1 22.62609584053784 -191.05502541928735 1140 -1 5.1026118712304471e-16 -1.8369701987210294e-16 2.2962127484012864e-15 -6.9388939039072284e-16 -12.5 1 I I #
loop $-1 -1 $-1 $-1 $140 $179 #
color-adesk-attrib $-1 -1 $180 $-1 $141 7 #
vertex $-1 -1 $-1 $141 $181 #
ellipse-curve $-1 -1 $-1 14.126095840537818 -191.05502541928735 1140 1 -5.1026118712304471e-16 1.8369701987210294e-16 6.1051704554493402e-16 -1.8449131111708537e-16 -3.3234999999999997 1 I I #
color-adesk-attrib $-1 -1 $182 $-1 $142 7 #
vertex $-1 -1 $-1 $142 $183 #
ellipse-curve $-1 -1 $-1 21.74959584053784 -191.05502541928735 1140 1 -5.1026118712304471e-16 1.8369701987210294e-16 6.1051704554493402e-16 -1.8449131111708537e-16 -3.3234999999999997 1 I I #
coedge $-1 -1 $-1 $167 $167 $145 $168 forward $172 $-1 #
edge $184 -1 $-1 $185 -1.5707963267948966 $185 4.7123889803846897 $145 $186 forward @7 unknown #
DXID-attrib $-1 -1 $-1 $146 $124 @18 ASM_FACE_FROM_STEP @14 stp-1M-37-4832 #
color-adesk-attrib $-1 -1 $187 $-1 $147 7 #
face $188 -1 $-1 $179 $189 $3 $-1 $190 reversed single #
loop $-1 -1 $-1 $191 $167 $147 #
plane-surface $-1 -1 $-1 -22.373904159462171 -184.55502541928732 1140 -1 5.1026118712304471e-16 -1.8369701987210294e-16 5.1026118712304471e-16 1 -5.5511151231257735e-17 forward_v I I I I #
coedge $-1 -1 $-1 $174 $174 $175 $192 forward $148 $-1 #
coedge $-1 -1 $-1 $175 $175 $174 $192 reversed $154 $-1 #
edge $193 -1 $-1 $194 -1.5707963267948966 $194 4.7123889803846897 $156 $195 forward @7 unknown #
DXID-attrib $-1 -1 $-1 $157 $138 @18 ASM_EDGE_FROM_STEP @4 2912 #
point $-1 -1 $-1 22.626095840537847 -178.55502541928735 1140 #
face $196 -1 $-1 $-1 $197 $3 $-1 $198 forward single #
DXID-attrib $-1 -1 $-1 $161 $141 @18 ASM_EDGE_FROM_STEP @4 2911 #
point $-1 -1 $-1 14.126095840537818 -191.05502541928735 1143.3235 #
DXID-attrib $-1 -1 $-1 $164 $142 @18 ASM_EDGE_FROM_STEP @4 2910 #
point $-1 -1 $-1 21.74959584053784 -191.05502541928735 1136.6765 #
color-adesk-attrib $-1 -1 $199 $-1 $168 7 #
vertex $-1 -1 $-1 $168 $200 #
ellipse-curve $-1 -1 $-1 -22.373904159462171 -191.05502541928732 1140 -1 5.1026118712304471e-16 -1.8369701987210294e-16 1.8369701987210292e-15 -5.5511151231257827e-16 -10 1 I I #
DXID-attrib $-1 -1 $-1 $170 $147 @18 ASM_FACE_FROM_STEP @14 stp-1M-37-4833 #
color-adesk-attrib $-1 -1 $201 $-1 $171 7 #
loop $-1 -1 $-1 $202 $203 $171 #
cone-surface $-1 -1 $-1 -4.1239041594621746 -191.05502541928735 1140 -1 5.1026118712304471e-16 -1.8369701987210294e-16 3.3166977162997908e-15 6.5 -3.6082248300317528e-16 1 I I 0 1 6.5 forward I I I I #
loop $-1 -1 $-1 $-1 $204 $147 #
edge $205 -1 $-1 $206 -1.5707963267948966 $206 4.7123889803846897 $175 $207 forward @7 unknown #
color-adesk-attrib $-1 -1 $208 $-1 $176 7 #
vertex $-1 -1 $-1 $176 $209 #
ellipse-curve $-1 -1 $-1 17.12609584053784 -191.05502541928735 1140 -1 5.1026118712304471e-16 -1.8369701987210294e-16 2.2962127484012864e-15 -6.9388939039072284e-16 -12.5 1 I I #
color-adesk-attrib $-1 -1 $210 $-1 $179 7 #
loop $-1 -1 $-1 $160 $211 $179 #
plane-surface $-1 -1 $-1 14.126095840537818 -191.05502541928735 1140 -1 5.1026118712304471e-16 -1.8369701987210294e-16 5.1026118712304471e-16 1 -5.5511151231257735e-17 forward_v I I I I #
DXID-attrib $-1 -1 $-1 $184 $168 @18 ASM_EDGE_FROM_STEP @4 2915 #
point $-1 -1 $-1 -22.373904159462164 -181.05502541928732 1140 #
DXID-attrib $-1 -1 $-1 $188 $171 @18 ASM_FACE_FROM_STEP @14 stp-1M-37-4834 #
loop $-1 -1 $-1 $-1 $212 $171 #
coedge $-1 -1 $-1 $203 $203 $204 $213 forward $189 $-1 #
coedge $-1 -1 $-1 $204 $204 $203 $213 reversed $191 $-1 #
color-adesk-attrib $-1 -1 $214 $-1 $192 7 #
vertex $-1 -1 $-1 $192 $215 #
ellipse-curve $-1 -1 $-1 17.12609584053784 -191.05502541928735 1140 -1 5.1026118712304471e-16 -1.8369701987210294e-16 1.8369701987210272e-15 -5.5511151231257768e-16 -9.9999999999999893 1 I I #
DXID-attrib $-1 -1 $-1 $193 $176 @18 ASM_EDGE_FROM_STEP @4 2913 #
point $-1 -1 $-1 17.126095840537843 -178.55502541928735 1140 #
DXID-attrib $-1 -1 $-1 $196 $179 @18 ASM_FACE_FROM_STEP @14 stp-1M-37-4835 #
coedge $-1 -1 $-1 $211 $211 $212 $216 forward $197 $-1 #
coedge $-1 -1 $-1 $212 $212 $211 $216 reversed $202 $-1 #
edge $217 -1 $-1 $218 -1.5707963267948966 $218 4.7123889803846897 $204 $219 forward @7 unknown #
DXID-attrib $-1 -1 $-1 $205 $192 @18 ASM_EDGE_FROM_STEP @4 2914 #
point $-1 -1 $-1 17.126095840537843 -181.05502541928735 1140 #
edge $220 -1 $-1 $221 -1.5707963267948966 $221 4.7123889803846897 $212 $222 forward @7 unknown #
color-adesk-attrib $-1 -1 $223 $-1 $213 7 #
vertex $-1 -1 $-1 $213 $224 #
ellipse-curve $-1 -1 $-1 -22.373904159462171 -191.05502541928732 1140 -1 5.1026118712304471e-16 -1.8369701987210294e-16 1.1940306291686689e-15 -3.6082248300317588e-16 -6.5 1 I I #
color-adesk-attrib $-1 -1 $225 $-1 $216 7 #
vertex $-1 -1 $-1 $216 $226 #
ellipse-curve $-1 -1 $-1 14.126095840537829 -191.05502541928735 1140 -1 5.1026118712304471e-16 -1.8369701987210294e-16 1.1940306291686689e-15 -3.6082248300317588e-16 -6.5 1 I I #
DXID-attrib $-1 -1 $-1 $217 $213 @18 ASM_EDGE_FROM_STEP @4 2916 #
point $-1 -1 $-1 -22.373904159462171 -184.55502541928732 1140 #
DXID-attrib $-1 -1 $-1 $220 $216 @18 ASM_EDGE_FROM_STEP @4 2917 #
point $-1 -1 $-1 14.126095840537833 -184.55502541928735 1140 #
