700 557 1 0         
5 ZWCAD 12 ACIS 28.0 NT 24 Mon May 13 14:38:44 2024 
1 9.9999999999999995e-07 1e-10 
body $1 -1 $-1 $2 $-1 $-1 #
DXID-attrib $-1 -1 $-1 $-1 $0 @18 ASM_BODY_FROM_STEP @83 88BC15B9CEB405DDFE451A01F28A7E6C3A3ED94B|:|680AE0F6CB9944B187FACB174BA061777CE35B56 #
lump $-1 -1 $-1 $-1 $3 $0 #
shell $-1 -1 $-1 $-1 $-1 $4 $-1 $2 #
face $5 -1 $-1 $6 $7 $3 $-1 $8 reversed single #
truecolor-adesk-attrib $-1 -1 $9 $-1 $4 -1029528926 #
face $10 -1 $-1 $11 $12 $3 $-1 $13 reversed single #
loop $-1 -1 $-1 $-1 $14 $4 #
plane-surface $-1 -1 $-1 -43.050705336633165 -14.84885163467181 -28.433410874698502 0 0.84733951015720876 -0.53105155543180693 0 0.53105155543180693 0.84733951015720888 forward_v I I I I #
fmesh-eye-attrib $-1 -1 $15 $5 $4 #
truecolor-adesk-attrib $-1 -1 $16 $-1 $6 -1029528926 #
face $17 -1 $-1 $18 $19 $3 $-1 $20 reversed single #
loop $-1 -1 $-1 $-1 $21 $6 #
plane-surface $-1 -1 $-1 -43.050705336633165 6.9338437937177311 -42.085240100267598 0 0.53105155543180693 0.84733951015720876 0 -0.84733951015720888 0.53105155543180693 forward_v I I I I #
coedge $-1 -1 $-1 $22 $23 $24 $25 forward $7 $-1 #
DXID-attrib $-1 -1 $-1 $9 $4 @18 ASM_FACE_FROM_STEP @14 stp-1M-63-7297 #
fmesh-eye-attrib $-1 -1 $26 $10 $6 #
truecolor-adesk-attrib $-1 -1 $27 $-1 $11 -1029528926 #
face $28 -1 $-1 $29 $30 $3 $-1 $31 reversed single #
loop $-1 -1 $-1 $-1 $32 $11 #
plane-surface $-1 -1 $-1 -43.050705336633165 14.550718456381027 -29.931845990835004 0 -0.84733951015720876 0.53105155543180693 0 -0.53105155543180693 -0.84733951015720888 forward_v I I I I #
coedge $-1 -1 $-1 $33 $34 $35 $36 forward $12 $-1 #
coedge $-1 -1 $-1 $37 $14 $34 $38 forward $7 $-1 #
coedge $-1 -1 $-1 $14 $37 $39 $40 reversed $7 $-1 #
coedge $-1 -1 $-1 $41 $35 $14 $25 reversed $42 $-1 #
edge $43 -1 $-1 $44 -1.0320051198889229 $45 0.40229529496813293 $14 $46 forward @7 unknown #
DXID-attrib $-1 -1 $-1 $16 $6 @18 ASM_FACE_FROM_STEP @14 stp-1M-63-7298 #
fmesh-eye-attrib $-1 -1 $47 $17 $11 #
truecolor-adesk-attrib $-1 -1 $48 $-1 $18 -1029528926 #
face $49 -1 $-1 $50 $51 $3 $-1 $52 reversed single #
loop $-1 -1 $-1 $-1 $53 $18 #
plane-surface $-1 -1 $-1 -43.050705336633165 -7.2319769720085691 -16.280016765265898 0 -0.53105155543180693 -0.84733951015720876 0 0.84733951015720888 -0.53105155543180693 forward_v I I I I #
coedge $-1 -1 $-1 $54 $55 $56 $57 forward $19 $-1 #
coedge $-1 -1 $-1 $58 $21 $55 $59 forward $12 $-1 #
coedge $-1 -1 $-1 $21 $58 $22 $38 reversed $12 $-1 #
coedge $-1 -1 $-1 $24 $56 $21 $36 reversed $42 $-1 #
edge $60 -1 $-1 $45 -1.9006365951957975 $61 0.67007976669651503 $21 $62 forward @7 unknown #
coedge $-1 -1 $-1 $23 $22 $63 $64 forward $7 $-1 #
edge $65 -1 $-1 $45 0 $66 0.29999999999999999 $22 $67 forward @7 unknown #
coedge $-1 -1 $-1 $68 $53 $23 $40 forward $30 $-1 #
edge $69 -1 $-1 $44 0 $70 0.29999999999999999 $23 $71 forward @7 unknown #
coedge $-1 -1 $-1 $56 $24 $53 $72 reversed $42 $-1 #
loop $-1 -1 $-1 $73 $24 $74 #
truecolor-adesk-attrib $-1 -1 $75 $-1 $25 -1029528926 #
vertex $-1 -1 $-1 $25 $76 #
vertex $-1 -1 $-1 $25 $77 #
straight-curve $-1 -1 $-1 -43.050705336633165 -12.712456213314599 -25.024603892930003 0 -5.3105155543180702 -8.4733951015720894 F -1.0320051198889229 F 0.40229529496813293 #
DXID-attrib $-1 -1 $-1 $27 $11 @18 ASM_FACE_FROM_STEP @14 stp-1M-63-7299 #
fmesh-eye-attrib $-1 -1 $78 $28 $18 #
truecolor-adesk-attrib $-1 -1 $79 $-1 $29 -1029528926 #
face $80 -1 $-1 $81 $82 $3 $-1 $83 reversed single #
loop $-1 -1 $-1 $-1 $84 $29 #
plane-surface $-1 -1 $-1 -40.050705336633165 -0.14906658914537019 -29.182628432766702 -1 0 0 0 0 1 forward_v I I I I #
coedge $-1 -1 $-1 $39 $85 $41 $72 forward $30 $-1 #
coedge $-1 -1 $-1 $86 $32 $85 $87 forward $19 $-1 #
coedge $-1 -1 $-1 $32 $86 $33 $59 reversed $19 $-1 #
coedge $-1 -1 $-1 $35 $41 $32 $57 reversed $42 $-1 #
edge $88 -1 $-1 $61 -1.1194455023966556 $89 0.31485491246040237 $32 $90 forward @7 unknown #
coedge $-1 -1 $-1 $34 $33 $91 $92 forward $12 $-1 #
edge $93 -1 $-1 $61 0 $94 0.29999999999999999 $33 $95 forward @7 unknown #
truecolor-adesk-attrib $-1 -1 $96 $-1 $36 -1029528926 #
vertex $-1 -1 $-1 $36 $97 #
straight-curve $-1 -1 $-1 -43.050705336633165 1.2559931809289324 -38.526771076591899 0 8.4733951015720894 -5.3105155543180702 F -1.9006365951957975 F 0.67007976669651503 #
coedge $-1 -1 $-1 $91 $84 $37 $64 reversed $51 $-1 #
edge $98 -1 $-1 $66 0 $70 1.4343004148570559 $37 $99 forward @7 unknown #
truecolor-adesk-attrib $-1 -1 $100 $-1 $38 -1029528926 #
vertex $-1 -1 $-1 $38 $101 #
straight-curve $-1 -1 $-1 -43.050705336633165 -14.84885163467181 -28.433410874698502 10 0 0 F 0 F 0.29999999999999999 #
coedge $-1 -1 $-1 $85 $39 $84 $102 forward $30 $-1 #
truecolor-adesk-attrib $-1 -1 $103 $-1 $40 -1029528926 #
vertex $-1 -1 $-1 $64 $104 #
straight-curve $-1 -1 $-1 -43.050705336633165 -7.2319769720085691 -16.280016765265898 10 0 0 F 0 F 0.29999999999999999 #
edge $105 -1 $-1 $89 -1.9554379476426713 $44 0.6152784142496468 $53 $106 forward @7 unknown #
loop $-1 -1 $-1 $-1 $107 $74 #
face $108 -1 $-1 $109 $110 $3 $-1 $111 reversed single #
DXID-attrib $-1 -1 $-1 $43 $25 @18 ASM_EDGE_FROM_STEP @4 4628 #
point $-1 -1 $-1 -43.050705336633165 -7.2319769720085691 -16.280016765265898 #
point $-1 -1 $-1 -43.050705336633165 -14.84885163467181 -28.433410874698502 #
DXID-attrib $-1 -1 $-1 $48 $18 @18 ASM_FACE_FROM_STEP @14 stp-1M-63-7300 #
fmesh-eye-attrib $-1 -1 $112 $49 $29 #
truecolor-adesk-attrib $-1 -1 $113 $-1 $50 -1029528926 #
face $114 -1 $-1 $115 $116 $3 $-1 $117 reversed single #
loop $-1 -1 $-1 $-1 $118 $50 #
cone-surface $-1 -1 $-1 -45.050705336633165 8.0668019164279343 -16.040603591475101 -1 0 0 0 0 -1.5 1 I I 0 1 1.5000000000000002 forward I I I I #
coedge $-1 -1 $-1 $63 $119 $68 $102 reversed $51 $-1 #
coedge $-1 -1 $-1 $53 $68 $54 $87 reversed $30 $-1 #
coedge $-1 -1 $-1 $55 $54 $119 $120 forward $19 $-1 #
edge $121 -1 $-1 $89 0 $122 0.29999999999999999 $54 $123 forward @7 unknown #
truecolor-adesk-attrib $-1 -1 $124 $-1 $57 -1029528926 #
vertex $-1 -1 $-1 $57 $125 #
straight-curve $-1 -1 $-1 -43.050705336633165 12.878676546406631 -32.599736063782899 0 5.3105155543180702 8.4733951015720894 F -1.1194455023966556 F 0.31485491246040237 #
coedge $-1 -1 $-1 $119 $63 $58 $92 reversed $51 $-1 #
edge $126 -1 $-1 $94 0 $66 2.570716361892313 $58 $127 forward @7 unknown #
truecolor-adesk-attrib $-1 -1 $128 $-1 $59 -1029528926 #
vertex $-1 -1 $-1 $59 $129 #
straight-curve $-1 -1 $-1 -43.050705336633165 6.9338437937177311 -42.085240100267598 10 0 0 F 0 F 0.29999999999999999 #
DXID-attrib $-1 -1 $-1 $60 $36 @18 ASM_EDGE_FROM_STEP @4 4632 #
point $-1 -1 $-1 -43.050705336633165 6.9338437937177311 -42.085240100267598 #
truecolor-adesk-attrib $-1 -1 $130 $-1 $64 -1029528926 #
straight-curve $-1 -1 $-1 -40.050705336633165 -14.84885163467181 -28.433410874698502 0 5.3105155543180702 8.4733951015720894 F 0 F 1.4343004148570559 #
DXID-attrib $-1 -1 $-1 $65 $38 @18 ASM_EDGE_FROM_STEP @4 4629 #
point $-1 -1 $-1 -40.050705336633165 -14.84885163467181 -28.433410874698502 #
edge $131 -1 $-1 $70 0 $122 2.5707163618923183 $68 $132 forward @7 unknown #
DXID-attrib $-1 -1 $-1 $69 $40 @18 ASM_EDGE_FROM_STEP @4 4631 #
point $-1 -1 $-1 -40.050705336633165 -7.2319769720085691 -16.280016765265898 #
truecolor-adesk-attrib $-1 -1 $133 $-1 $72 -1029528926 #
straight-curve $-1 -1 $-1 -43.050705336633165 -2.0184798706025688 -19.547462354374801 0 -8.4733951015720894 5.3105155543180702 F -1.9554379476426713 F 0.6152784142496468 #
coedge $-1 -1 $-1 $107 $107 $118 $134 reversed $73 $-1 #
truecolor-adesk-attrib $-1 -1 $135 $-1 $74 -1029528926 #
face $136 -1 $-1 $-1 $137 $3 $-1 $138 forward single #
loop $-1 -1 $-1 $42 $139 $74 #
plane-surface $-1 -1 $-1 -43.050705336633165 -0.14906658914537019 -28.150688089379404 -1 0 0 0 0 1 forward_v I I I I #
DXID-attrib $-1 -1 $-1 $79 $29 @18 ASM_FACE_FROM_STEP @14 stp-1M-63-7301 #
fmesh-eye-attrib $-1 -1 $140 $80 $50 #
truecolor-adesk-attrib $-1 -1 $141 $-1 $81 -1029528926 #
face $142 -1 $-1 $143 $144 $3 $-1 $145 reversed single #
loop $-1 -1 $-1 $-1 $146 $81 #
plane-surface $-1 -1 $-1 -45.050705336633165 3.81547322966723 -19.057860109355499 0 0.84733951015720876 -0.53105155543180693 0 0.53105155543180693 0.84733951015720888 forward_v I I I I #
coedge $-1 -1 $-1 $147 $148 $107 $134 forward $82 $-1 #
coedge $-1 -1 $-1 $84 $91 $86 $120 reversed $51 $-1 #
edge $149 -1 $-1 $122 0 $94 1.4343004148570582 $86 $150 forward @7 unknown #
truecolor-adesk-attrib $-1 -1 $151 $-1 $87 -1029528926 #
vertex $-1 -1 $-1 $87 $152 #
straight-curve $-1 -1 $-1 -43.050705336633165 14.550718456381027 -29.931845990835004 10 0 0 F 0 F 0.29999999999999999 #
DXID-attrib $-1 -1 $-1 $88 $57 @18 ASM_EDGE_FROM_STEP @4 4635 #
point $-1 -1 $-1 -43.050705336633165 14.550718456381027 -29.931845990835004 #
truecolor-adesk-attrib $-1 -1 $153 $-1 $92 -1029528926 #
straight-curve $-1 -1 $-1 -40.050705336633165 6.9338437937177311 -42.085240100267598 0 -8.4733951015720894 5.3105155543180702 F 0 F 2.570716361892313 #
DXID-attrib $-1 -1 $-1 $93 $59 @18 ASM_EDGE_FROM_STEP @4 4633 #
point $-1 -1 $-1 -40.050705336633165 6.9338437937177311 -42.085240100267598 #
DXID-attrib $-1 -1 $-1 $98 $64 @18 ASM_EDGE_FROM_STEP @4 4630 #
truecolor-adesk-attrib $-1 -1 $154 $-1 $102 -1029528926 #
straight-curve $-1 -1 $-1 -40.050705336633165 -7.2319769720085691 -16.280016765265898 0 8.4733951015720894 -5.3105155543180702 F 0 F 2.5707163618923183 #
DXID-attrib $-1 -1 $-1 $105 $72 @18 ASM_EDGE_FROM_STEP @4 4638 #
edge $155 -1 $-1 $156 -3.1415926535897931 $156 3.1415926535897931 $118 $157 forward @7 unknown #
fmesh-eye-attrib $-1 -1 $158 $108 $74 #
truecolor-adesk-attrib $-1 -1 $159 $-1 $109 -1029528926 #
loop $-1 -1 $-1 $160 $161 $109 #
plane-surface $-1 -1 $-1 -45.050705336633165 -0.14906658914537019 -28.150688089379404 -1 0 0 0 0 1 forward_v I I I I #
coedge $-1 -1 $-1 $162 $163 $164 $165 reversed $110 $-1 #
DXID-attrib $-1 -1 $-1 $113 $50 @18 ASM_FACE_FROM_STEP @14 stp-1M-63-7302 #
fmesh-eye-attrib $-1 -1 $166 $114 $81 #
truecolor-adesk-attrib $-1 -1 $167 $-1 $115 -1029528926 #
face $168 -1 $-1 $169 $170 $3 $-1 $171 reversed single #
loop $-1 -1 $-1 $-1 $172 $115 #
cone-surface $-1 -1 $-1 -45.050705336633165 2.1207942093528303 -17.995756998491899 -1 0 0 0 -1.6946790203144178 1.0621031108636139 1 I I 0 1 2 forward I I I I #
coedge $-1 -1 $-1 $173 $174 $175 $176 reversed $116 $-1 #
coedge $-1 -1 $-1 $177 $118 $148 $178 forward $82 $-1 #
coedge $-1 -1 $-1 $118 $177 $147 $178 reversed $82 $-1 #
truecolor-adesk-attrib $-1 -1 $179 $-1 $120 -1029528926 #
straight-curve $-1 -1 $-1 -40.050705336633165 14.550718456381027 -29.931845990835004 0 -5.3105155543180702 -8.4733951015720894 F 0 F 1.4343004148570582 #
DXID-attrib $-1 -1 $-1 $121 $87 @18 ASM_EDGE_FROM_STEP @4 4636 #
point $-1 -1 $-1 -40.050705336633165 14.550718456381027 -29.931845990835004 #
DXID-attrib $-1 -1 $-1 $126 $92 @18 ASM_EDGE_FROM_STEP @4 4634 #
DXID-attrib $-1 -1 $-1 $131 $102 @18 ASM_EDGE_FROM_STEP @4 4639 #
truecolor-adesk-attrib $-1 -1 $180 $-1 $134 -1029528926 #
vertex $-1 -1 $-1 $134 $181 #
ellipse-curve $-1 -1 $-1 -43.050705336633165 8.0668019164279343 -16.040603591475101 1 0 0 0 0 -1.5 1 I I #
DXID-attrib $-1 -1 $-1 $135 $74 @18 ASM_FACE_FROM_STEP @14 stp-1M-63-7317 #
fmesh-eye-attrib $-1 -1 $182 $136 $109 #
loop $-1 -1 $-1 $-1 $183 $109 #
coedge $-1 -1 $-1 $184 $175 $185 $186 forward $137 $-1 #
coedge $-1 -1 $-1 $187 $139 $188 $189 reversed $110 $-1 #
coedge $-1 -1 $-1 $139 $190 $191 $192 reversed $110 $-1 #
coedge $-1 -1 $-1 $193 $194 $139 $165 forward $195 $-1 #
edge $196 -1 $-1 $197 -1.0292692624129049e-14 $198 4.823729994725654 $164 $199 forward @7 unknown #
DXID-attrib $-1 -1 $-1 $141 $81 @18 ASM_FACE_FROM_STEP @14 stp-1M-63-7303 #
fmesh-eye-attrib $-1 -1 $200 $142 $115 #
truecolor-adesk-attrib $-1 -1 $201 $-1 $143 -1029528926 #
face $202 -1 $-1 $203 $204 $3 $-1 $205 forward single #
loop $-1 -1 $-1 $-1 $206 $143 #
plane-surface $-1 -1 $-1 -45.050705336633165 -5.7714321446880685 -15.4098052579354 0 -0.53105155543180815 -0.8473395101572081 0 0.8473395101572081 -0.53105155543180826 forward_v I I I I #
coedge $-1 -1 $-1 $207 $208 $209 $210 reversed $144 $-1 #
coedge $-1 -1 $-1 $188 $146 $208 $211 forward $116 $-1 #
coedge $-1 -1 $-1 $146 $188 $194 $212 reversed $116 $-1 #
coedge $-1 -1 $-1 $161 $209 $146 $176 forward $137 $-1 #
edge $213 -1 $-1 $214 0 $215 0.25782473941357659 $146 $216 forward @7 unknown #
coedge $-1 -1 $-1 $148 $147 $183 $217 reversed $82 $-1 #
edge $218 -1 $-1 $156 -1.3333333333333335 $219 0 $147 $220 forward @7 unknown #
DXID-attrib $-1 -1 $-1 $149 $120 @18 ASM_EDGE_FROM_STEP @4 4637 #
DXID-attrib $-1 -1 $-1 $155 $134 @18 ASM_EDGE_FROM_STEP @4 4640 #
point $-1 -1 $-1 -43.050705336633165 8.0668019164279343 -14.540603591475101 #
DXID-attrib $-1 -1 $-1 $159 $109 @18 ASM_FACE_FROM_STEP @14 stp-1M-63-7318 #
coedge $-1 -1 $-1 $183 $183 $177 $217 forward $160 $-1 #
coedge $-1 -1 $-1 $221 $161 $222 $223 forward $137 $-1 #
coedge $-1 -1 $-1 $194 $193 $161 $186 reversed $195 $-1 #
edge $224 -1 $-1 $215 -1.0292692624129049e-14 $225 4.823729994725654 $185 $226 forward @7 unknown #
coedge $-1 -1 $-1 $227 $162 $228 $229 reversed $110 $-1 #
coedge $-1 -1 $-1 $174 $173 $162 $189 forward $116 $-1 #
edge $230 -1 $-1 $231 0 $197 0.25782473941357659 $188 $232 forward @7 unknown #
coedge $-1 -1 $-1 $163 $233 $234 $235 reversed $110 $-1 #
coedge $-1 -1 $-1 $236 $237 $163 $192 forward $238 $-1 #
edge $239 -1 $-1 $198 0 $240 0.25782473941357664 $191 $241 forward @7 unknown #
coedge $-1 -1 $-1 $185 $164 $237 $242 reversed $195 $-1 #
coedge $-1 -1 $-1 $164 $185 $174 $212 forward $195 $-1 #
loop $-1 -1 $-1 $-1 $185 $243 #
truecolor-adesk-attrib $-1 -1 $244 $-1 $165 -1029528926 #
vertex $-1 -1 $-1 $189 $245 #
vertex $-1 -1 $-1 $242 $246 #
ellipse-curve $-1 -1 $-1 -43.050705336633165 8.0668019164279343 -16.040603591475101 -1 0 0 0 -2.8821463978169355 -0.83260563386927766 1 F -1.0292692624129049e-14 F 4.823729994725654 #
DXID-attrib $-1 -1 $-1 $167 $115 @18 ASM_FACE_FROM_STEP @14 stp-1M-63-7304 #
fmesh-eye-attrib $-1 -1 $247 $168 $143 #
truecolor-adesk-attrib $-1 -1 $248 $-1 $169 -1029528926 #
face $249 -1 $-1 $250 $251 $3 $-1 $252 reversed single #
loop $-1 -1 $-1 $-1 $253 $169 #
cone-surface $-1 -1 $-1 -45.050705336633165 -6.8335352555516682 -17.104484278249799 -1 0 0 0 -1.6946790203144264 1.0621031108636192 1 I I 0 1 2.0000000000000102 forward I I I I #
coedge $-1 -1 $-1 $254 $255 $256 $257 reversed $170 $-1 #
coedge $-1 -1 $-1 $228 $172 $255 $258 forward $144 $-1 #
coedge $-1 -1 $-1 $172 $228 $173 $211 reversed $144 $-1 #
coedge $-1 -1 $-1 $175 $256 $172 $210 forward $137 $-1 #
edge $259 -1 $-1 $260 1.5707963267948963 $214 3.141592653589794 $172 $261 forward @7 unknown #
edge $262 -1 $-1 $214 0 $231 0.20000000000000007 $173 $263 forward @7 unknown #
edge $264 -1 $-1 $215 0 $197 0.20000000000000007 $174 $265 forward @7 unknown #
truecolor-adesk-attrib $-1 -1 $266 $-1 $176 -1029528926 #
vertex $-1 -1 $-1 $176 $267 #
vertex $-1 -1 $-1 $176 $268 #
straight-curve $-1 -1 $-1 -45.050705336633165 3.81547322966723 -19.057860109355499 0 5.3105155543180702 8.4733951015720894 F 0 F 0.25782473941357659 #
edge $269 -1 $-1 $219 -3.1415926535897931 $219 3.1415926535897931 $177 $270 forward @7 unknown #
truecolor-adesk-attrib $-1 -1 $271 $-1 $178 -1029528926 #
vertex $-1 -1 $-1 $178 $272 #
straight-curve $-1 -1 $-1 -45.050705336633165 8.0668019164279343 -14.540603591475101 -1.5000000000000002 0 0 F -1.3333333333333335 F 0 #
coedge $-1 -1 $-1 $273 $184 $274 $275 forward $137 $-1 #
coedge $-1 -1 $-1 $237 $236 $184 $223 reversed $238 $-1 #
edge $276 -1 $-1 $225 0 $277 0.25782473941357664 $222 $278 forward @7 unknown #
truecolor-adesk-attrib $-1 -1 $279 $-1 $186 -1029528926 #
vertex $-1 -1 $-1 $223 $280 #
ellipse-curve $-1 -1 $-1 -45.050705336633165 8.0668019164279343 -16.040603591475101 -1 0 0 0 -2.8821463978169355 -0.83260563386927766 1 F -1.0292692624129049e-14 F 4.823729994725654 #
coedge $-1 -1 $-1 $281 $187 $282 $283 reversed $110 $-1 #
coedge $-1 -1 $-1 $208 $207 $187 $229 forward $144 $-1 #
edge $284 -1 $-1 $285 1.5707963267948963 $231 3.141592653589794 $228 $286 forward @7 unknown #
truecolor-adesk-attrib $-1 -1 $287 $-1 $189 -1029528926 #
vertex $-1 -1 $-1 $211 $288 #
straight-curve $-1 -1 $-1 -43.050705336633165 3.81547322966723 -19.057860109355499 0 5.3105155543180702 8.4733951015720894 F 0 F 0.25782473941357659 #
coedge $-1 -1 $-1 $190 $289 $290 $291 reversed $110 $-1 #
coedge $-1 -1 $-1 $292 $293 $190 $235 forward $294 $-1 #
edge $295 -1 $-1 $240 1.5707963267949001 $296 3.1415926535897936 $234 $297 forward @7 unknown #
coedge $-1 -1 $-1 $222 $191 $293 $298 reversed $238 $-1 #
coedge $-1 -1 $-1 $191 $222 $193 $242 forward $238 $-1 #
loop $-1 -1 $-1 $-1 $222 $299 #
truecolor-adesk-attrib $-1 -1 $300 $-1 $192 -1029528926 #
vertex $-1 -1 $-1 $298 $301 #
straight-curve $-1 -1 $-1 -43.050705336633165 8.5740135592398303 -18.997415447071599 0 -5.3105155543180507 -8.4733951015721019 F 0 F 0.25782473941357664 #
edge $302 -1 $-1 $225 0 $198 0.20000000000000007 $237 $303 forward @7 unknown #
face $304 -1 $-1 $74 $195 $3 $-1 $305 forward single #
DXID-attrib $-1 -1 $-1 $196 $165 @18 ASM_EDGE_FROM_STEP @4 4684 #
point $-1 -1 $-1 -43.050705336633165 5.1846555186110344 -16.8732092253444 #
point $-1 -1 $-1 -43.050705336633165 8.5740135592398303 -18.997415447071599 #
DXID-attrib $-1 -1 $-1 $201 $143 @18 ASM_FACE_FROM_STEP @14 stp-1M-63-7305 #
fmesh-eye-attrib $-1 -1 $306 $202 $169 #
truecolor-adesk-attrib $-1 -1 $307 $-1 $203 -1029528926 #
face $308 -1 $-1 $309 $310 $3 $-1 $311 forward single #
loop $-1 -1 $-1 $-1 $312 $203 #
plane-surface $-1 -1 $-1 -45.050705336633165 -15.62783324717587 -27.370448282378305 0 0.84733951015720876 -0.53105155543180693 0 0.53105155543180693 0.84733951015720888 forward_v I I I I #
coedge $-1 -1 $-1 $313 $314 $315 $316 reversed $204 $-1 #
coedge $-1 -1 $-1 $282 $206 $314 $317 forward $170 $-1 #
coedge $-1 -1 $-1 $206 $282 $207 $258 reversed $170 $-1 #
coedge $-1 -1 $-1 $209 $315 $206 $257 forward $137 $-1 #
edge $318 -1 $-1 $319 0 $260 0.80606689069769488 $206 $320 forward @7 unknown #
edge $321 -1 $-1 $260 0 $285 0.20000000000000007 $207 $322 forward @7 unknown #
truecolor-adesk-attrib $-1 -1 $323 $-1 $210 -1029528926 #
vertex $-1 -1 $-1 $210 $324 #
ellipse-curve $-1 -1 $-1 -45.050705336633165 2.1207942093528303 -17.995756998491899 1 0 0 0 -1.6946790203144178 1.0621031108636139 1 F 1.5707963267948963 F 3.141592653589794 #
truecolor-adesk-attrib $-1 -1 $325 $-1 $211 -1029528926 #
straight-curve $-1 -1 $-1 -45.050705336633165 3.81547322966723 -19.057860109355499 10 0 0 F 0 F 0.20000000000000007 #
truecolor-adesk-attrib $-1 -1 $326 $-1 $212 -1029528926 #
straight-curve $-1 -1 $-1 -45.050705336633165 5.1846555186110344 -16.8732092253444 10 0 0 F 0 F 0.20000000000000007 #
DXID-attrib $-1 -1 $-1 $213 $176 @18 ASM_EDGE_FROM_STEP @4 4643 #
point $-1 -1 $-1 -45.050705336633165 3.81547322966723 -19.057860109355499 #
point $-1 -1 $-1 -45.050705336633165 5.1846555186110344 -16.8732092253444 #
truecolor-adesk-attrib $-1 -1 $327 $-1 $217 -1029528926 #
ellipse-curve $-1 -1 $-1 -45.050705336633165 8.0668019164279343 -16.040603591475101 1 0 0 0 0 -1.5 1 I I #
DXID-attrib $-1 -1 $-1 $218 $178 @18 ASM_EDGE_FROM_STEP @4 4641 #
point $-1 -1 $-1 -45.050705336633165 8.0668019164279343 -14.540603591475101 #
coedge $-1 -1 $-1 $328 $221 $329 $330 forward $137 $-1 #
coedge $-1 -1 $-1 $293 $292 $221 $275 reversed $294 $-1 #
edge $331 -1 $-1 $277 1.5707963267949001 $332 3.1415926535897936 $274 $333 forward @7 unknown #
truecolor-adesk-attrib $-1 -1 $334 $-1 $223 -1029528926 #
vertex $-1 -1 $-1 $275 $335 #
straight-curve $-1 -1 $-1 -45.050705336633165 8.5740135592398303 -18.997415447071599 0 -5.3105155543180507 -8.4733951015721019 F 0 F 0.25782473941357664 #
DXID-attrib $-1 -1 $-1 $224 $186 @18 ASM_EDGE_FROM_STEP @4 4683 #
point $-1 -1 $-1 -45.050705336633165 8.5740135592398303 -18.997415447071599 #
coedge $-1 -1 $-1 $336 $227 $337 $338 reversed $110 $-1 #
coedge $-1 -1 $-1 $255 $254 $227 $283 forward $170 $-1 #
edge $339 -1 $-1 $340 0 $285 0.80606689069769488 $282 $341 forward @7 unknown #
truecolor-adesk-attrib $-1 -1 $342 $-1 $229 -1029528926 #
vertex $-1 -1 $-1 $258 $343 #
ellipse-curve $-1 -1 $-1 -43.050705336633165 2.1207942093528303 -17.995756998491899 1 0 0 0 -1.6946790203144178 1.0621031108636139 1 F 1.5707963267948963 F 3.141592653589794 #
DXID-attrib $-1 -1 $-1 $230 $189 @18 ASM_EDGE_FROM_STEP @4 4645 #
point $-1 -1 $-1 -43.050705336633165 3.81547322966723 -19.057860109355499 #
coedge $-1 -1 $-1 $233 $344 $345 $346 reversed $110 $-1 #
coedge $-1 -1 $-1 $347 $348 $233 $291 forward $349 $-1 #
edge $350 -1 $-1 $296 0 $351 0.80955943839025424 $290 $352 forward @7 unknown #
coedge $-1 -1 $-1 $274 $234 $348 $353 reversed $294 $-1 #
coedge $-1 -1 $-1 $234 $274 $236 $298 forward $294 $-1 #
loop $-1 -1 $-1 $-1 $274 $354 #
truecolor-adesk-attrib $-1 -1 $355 $-1 $235 -1029528926 #
vertex $-1 -1 $-1 $353 $356 #
ellipse-curve $-1 -1 $-1 -43.050705336633165 8.8995102906104329 -22.244169441946301 1 0 0 0 1.0621031108636165 1.6946790203144162 1 F 1.5707963267949001 F 3.1415926535897936 #
edge $357 -1 $-1 $277 0 $240 0.20000000000000007 $293 $358 forward @7 unknown #
face $359 -1 $-1 $243 $238 $3 $-1 $360 reversed single #
DXID-attrib $-1 -1 $-1 $239 $192 @18 ASM_EDGE_FROM_STEP @4 4682 #
point $-1 -1 $-1 -43.050705336633165 7.2048312702960295 -21.182066331082702 #
truecolor-adesk-attrib $-1 -1 $361 $-1 $242 -1029528926 #
straight-curve $-1 -1 $-1 -45.050705336633165 8.5740135592398303 -18.997415447071599 10 0 0 F 0 F 0.20000000000000007 #
truecolor-adesk-attrib $-1 -1 $362 $-1 $243 -1029528926 #
cone-surface $-1 -1 $-1 -45.050705336633165 8.0668019164279343 -16.040603591475101 -1 0 0 0 1.5931546662954243 2.5420185304716245 1 I I 0 1 3.0000000000000004 forward I I I I #
DXID-attrib $-1 -1 $-1 $248 $169 @18 ASM_FACE_FROM_STEP @14 stp-1M-63-7306 #
fmesh-eye-attrib $-1 -1 $363 $249 $203 #
truecolor-adesk-attrib $-1 -1 $364 $-1 $250 -1029528926 #
face $365 -1 $-1 $366 $367 $3 $-1 $368 reversed single #
loop $-1 -1 $-1 $-1 $369 $250 #
cone-surface $-1 -1 $-1 -45.050705336633165 -13.933154226861451 -28.432551393241905 -1 0 0 0 -1.0621031108636148 -1.6946790203144169 1 I I 0 1 1.9999999999999998 forward I I I I #
coedge $-1 -1 $-1 $370 $371 $372 $373 reversed $251 $-1 #
coedge $-1 -1 $-1 $337 $253 $371 $374 forward $204 $-1 #
coedge $-1 -1 $-1 $253 $337 $254 $317 reversed $204 $-1 #
coedge $-1 -1 $-1 $256 $372 $253 $316 forward $137 $-1 #
edge $375 -1 $-1 $376 -1.040834085586074e-15 $319 1.5707963267948957 $253 $377 forward @7 unknown #
edge $378 -1 $-1 $319 0 $340 0.20000000000000007 $254 $379 forward @7 unknown #
truecolor-adesk-attrib $-1 -1 $380 $-1 $257 -1029528926 #
vertex $-1 -1 $-1 $257 $381 #
straight-curve $-1 -1 $-1 -45.050705336633165 -5.7714321446880685 -15.4098052579354 0 8.4733951015720805 -5.31051555431808 F 0 F 0.80606689069769488 #
truecolor-adesk-attrib $-1 -1 $382 $-1 $258 -1029528926 #
straight-curve $-1 -1 $-1 -45.050705336633165 1.0586910984892306 -19.690436018806299 10 0 0 F 0 F 0.20000000000000007 #
DXID-attrib $-1 -1 $-1 $259 $210 @18 ASM_EDGE_FROM_STEP @4 4647 #
point $-1 -1 $-1 -45.050705336633165 1.0586910984892306 -19.690436018806299 #
DXID-attrib $-1 -1 $-1 $262 $211 @18 ASM_EDGE_FROM_STEP @4 4644 #
DXID-attrib $-1 -1 $-1 $264 $212 @18 ASM_EDGE_FROM_STEP @4 4646 #
DXID-attrib $-1 -1 $-1 $269 $217 @18 ASM_EDGE_FROM_STEP @4 4642 #
coedge $-1 -1 $-1 $383 $273 $384 $385 forward $137 $-1 #
coedge $-1 -1 $-1 $348 $347 $273 $330 reversed $349 $-1 #
edge $386 -1 $-1 $332 0 $387 0.80955943839025424 $329 $388 forward @7 unknown #
truecolor-adesk-attrib $-1 -1 $389 $-1 $275 -1029528926 #
vertex $-1 -1 $-1 $330 $390 #
ellipse-curve $-1 -1 $-1 -45.050705336633165 8.8995102906104329 -22.244169441946301 1 0 0 0 1.0621031108636165 1.6946790203144162 1 F 1.5707963267949001 F 3.1415926535897936 #
DXID-attrib $-1 -1 $-1 $276 $223 @18 ASM_EDGE_FROM_STEP @4 4680 #
point $-1 -1 $-1 -45.050705336633165 7.2048312702960295 -21.182066331082702 #
coedge $-1 -1 $-1 $391 $281 $392 $393 reversed $110 $-1 #
coedge $-1 -1 $-1 $314 $313 $281 $338 forward $204 $-1 #
edge $394 -1 $-1 $395 -1.040834085586074e-15 $340 1.5707963267948957 $337 $396 forward @7 unknown #
truecolor-adesk-attrib $-1 -1 $397 $-1 $283 -1029528926 #
vertex $-1 -1 $-1 $317 $398 #
straight-curve $-1 -1 $-1 -43.050705336633165 -5.7714321446880685 -15.4098052579354 0 8.4733951015720805 -5.31051555431808 F 0 F 0.80606689069769488 #
DXID-attrib $-1 -1 $-1 $284 $229 @18 ASM_EDGE_FROM_STEP @4 4649 #
point $-1 -1 $-1 -43.050705336633165 1.0586910984892306 -19.690436018806299 #
coedge $-1 -1 $-1 $289 $399 $400 $401 reversed $110 $-1 #
coedge $-1 -1 $-1 $402 $403 $289 $346 forward $404 $-1 #
edge $405 -1 $-1 $351 -2.1684043449710085e-15 $406 1.5707963267948946 $345 $407 forward @7 unknown #
coedge $-1 -1 $-1 $329 $290 $403 $408 reversed $349 $-1 #
coedge $-1 -1 $-1 $290 $329 $292 $353 forward $349 $-1 #
loop $-1 -1 $-1 $-1 $329 $409 #
truecolor-adesk-attrib $-1 -1 $410 $-1 $291 -1029528926 #
vertex $-1 -1 $-1 $408 $411 #
straight-curve $-1 -1 $-1 -43.050705336633165 7.8374071797468332 -23.938848462260701 0 8.4733951015720894 -5.3105155543180702 F 0 F 0.80955943839025424 #
edge $412 -1 $-1 $332 0 $296 0.20000000000000007 $348 $413 forward @7 unknown #
face $414 -1 $-1 $299 $294 $3 $-1 $415 reversed single #
DXID-attrib $-1 -1 $-1 $295 $235 @18 ASM_EDGE_FROM_STEP @4 4679 #
point $-1 -1 $-1 -43.050705336633165 7.8374071797468332 -23.938848462260701 #
truecolor-adesk-attrib $-1 -1 $416 $-1 $298 -1029528926 #
straight-curve $-1 -1 $-1 -45.050705336633165 7.2048312702960295 -21.182066331082702 10 0 0 F 0 F 0.20000000000000007 #
truecolor-adesk-attrib $-1 -1 $417 $-1 $299 -1029528926 #
plane-surface $-1 -1 $-1 -45.050705336633165 8.5740135592398303 -18.997415447071599 0 -0.84733951015720999 0.53105155543180504 0 -0.53105155543180504 -0.8473395101572101 forward_v I I I I #
DXID-attrib $-1 -1 $-1 $302 $242 @18 ASM_EDGE_FROM_STEP @4 4681 #
fmesh-eye-attrib $-1 -1 $418 $304 $243 #
DXID-attrib $-1 -1 $-1 $307 $203 @18 ASM_FACE_FROM_STEP @14 stp-1M-63-7307 #
fmesh-eye-attrib $-1 -1 $419 $308 $250 #
truecolor-adesk-attrib $-1 -1 $420 $-1 $309 -1029528926 #
face $421 -1 $-1 $422 $423 $3 $-1 $424 forward single #
loop $-1 -1 $-1 $-1 $425 $309 #
plane-surface $-1 -1 $-1 -45.050705336633165 5.473298966397234 -42.955451607598107 0 0.53105155543180693 0.84733951015720876 0 -0.84733951015720888 0.53105155543180693 forward_v I I I I #
coedge $-1 -1 $-1 $426 $427 $428 $429 reversed $310 $-1 #
coedge $-1 -1 $-1 $392 $312 $427 $430 forward $251 $-1 #
coedge $-1 -1 $-1 $312 $392 $313 $374 reversed $251 $-1 #
coedge $-1 -1 $-1 $315 $428 $312 $373 forward $137 $-1 #
edge $431 -1 $-1 $432 0 $376 1.3368982537932625 $312 $433 forward @7 unknown #
edge $434 -1 $-1 $376 0 $395 0.20000000000000007 $313 $435 forward @7 unknown #
truecolor-adesk-attrib $-1 -1 $436 $-1 $316 -1029528926 #
vertex $-1 -1 $-1 $316 $437 #
ellipse-curve $-1 -1 $-1 -45.050705336633165 -6.8335352555516682 -17.104484278249799 -1 0 0 0 -1.6946790203144264 1.0621031108636192 1 F -1.040834085586074e-15 F 1.5707963267948957 #
truecolor-adesk-attrib $-1 -1 $438 $-1 $317 -1029528926 #
straight-curve $-1 -1 $-1 -45.050705336633165 -5.7714321446880685 -15.4098052579354 10 0 0 F 0 F 0.20000000000000007 #
DXID-attrib $-1 -1 $-1 $318 $257 @18 ASM_EDGE_FROM_STEP @4 4650 #
point $-1 -1 $-1 -45.050705336633165 -5.7714321446880685 -15.4098052579354 #
DXID-attrib $-1 -1 $-1 $321 $258 @18 ASM_EDGE_FROM_STEP @4 4648 #
coedge $-1 -1 $-1 $439 $328 $440 $441 forward $137 $-1 #
coedge $-1 -1 $-1 $403 $402 $328 $385 reversed $404 $-1 #
edge $442 -1 $-1 $387 -2.1684043449710085e-15 $443 1.5707963267948946 $384 $444 forward @7 unknown #
truecolor-adesk-attrib $-1 -1 $445 $-1 $330 -1029528926 #
vertex $-1 -1 $-1 $385 $446 #
straight-curve $-1 -1 $-1 -45.050705336633165 7.8374071797468332 -23.938848462260701 0 8.4733951015720894 -5.3105155543180702 F 0 F 0.80955943839025424 #
DXID-attrib $-1 -1 $-1 $331 $275 @18 ASM_EDGE_FROM_STEP @4 4677 #
point $-1 -1 $-1 -45.050705336633165 7.8374071797468332 -23.938848462260701 #
coedge $-1 -1 $-1 $447 $336 $448 $449 reversed $110 $-1 #
coedge $-1 -1 $-1 $371 $370 $336 $393 forward $251 $-1 #
edge $450 -1 $-1 $451 0 $395 1.3368982537932625 $392 $452 forward @7 unknown #
truecolor-adesk-attrib $-1 -1 $453 $-1 $338 -1029528926 #
vertex $-1 -1 $-1 $374 $454 #
ellipse-curve $-1 -1 $-1 -43.050705336633165 -6.8335352555516682 -17.104484278249799 -1 0 0 0 -1.6946790203144264 1.0621031108636192 1 F -1.040834085586074e-15 F 1.5707963267948957 #
DXID-attrib $-1 -1 $-1 $339 $283 @18 ASM_EDGE_FROM_STEP @4 4652 #
point $-1 -1 $-1 -43.050705336633165 -5.7714321446880685 -15.4098052579354 #
coedge $-1 -1 $-1 $344 $447 $455 $456 reversed $110 $-1 #
coedge $-1 -1 $-1 $457 $458 $344 $401 forward $459 $-1 #
edge $460 -1 $-1 $406 0 $461 1.3368982537932621 $400 $462 forward @7 unknown #
coedge $-1 -1 $-1 $384 $345 $458 $463 reversed $404 $-1 #
coedge $-1 -1 $-1 $345 $384 $347 $408 forward $404 $-1 #
loop $-1 -1 $-1 $-1 $384 $464 #
truecolor-adesk-attrib $-1 -1 $465 $-1 $346 -1029528926 #
vertex $-1 -1 $-1 $463 $466 #
ellipse-curve $-1 -1 $-1 -43.050705336633165 13.635021048570628 -29.932705472291605 -1 0 0 0 1.0621031108636139 1.6946790203144178 1 F -2.1684043449710085e-15 F 1.5707963267948946 #
edge $467 -1 $-1 $387 0 $351 0.20000000000000007 $403 $468 forward @7 unknown #
face $469 -1 $-1 $354 $349 $3 $-1 $470 reversed single #
DXID-attrib $-1 -1 $-1 $350 $291 @18 ASM_EDGE_FROM_STEP @4 4676 #
point $-1 -1 $-1 -43.050705336633165 14.697124159434232 -28.238026451977198 #
truecolor-adesk-attrib $-1 -1 $471 $-1 $353 -1029528926 #
straight-curve $-1 -1 $-1 -45.050705336633165 7.8374071797468332 -23.938848462260701 10 0 0 F 0 F 0.20000000000000007 #
truecolor-adesk-attrib $-1 -1 $472 $-1 $354 -1029528926 #
cone-surface $-1 -1 $-1 -45.050705336633165 8.8995102906104329 -22.244169441946301 -1 0 0 0 1.0621031108636165 1.6946790203144162 1 I I 0 1 2 forward I I I I #
DXID-attrib $-1 -1 $-1 $357 $298 @18 ASM_EDGE_FROM_STEP @4 4678 #
fmesh-eye-attrib $-1 -1 $473 $359 $299 #
DXID-attrib $-1 -1 $-1 $362 $243 @18 ASM_FACE_FROM_STEP @14 stp-1M-63-7316 #
DXID-attrib $-1 -1 $-1 $364 $250 @18 ASM_FACE_FROM_STEP @14 stp-1M-63-7308 #
fmesh-eye-attrib $-1 -1 $474 $365 $309 #
truecolor-adesk-attrib $-1 -1 $475 $-1 $366 -1029528926 #
face $476 -1 $-1 $464 $459 $3 $-1 $477 reversed single #
loop $-1 -1 $-1 $-1 $478 $366 #
cone-surface $-1 -1 $-1 -45.050705336633165 6.5354020772608301 -41.260772587283697 -1 0 0 0 1.6946790203143982 -1.0621031108636081 1 I I 0 1 1.99999999999998 forward I I I I #
coedge $-1 -1 $-1 $479 $480 $481 $482 reversed $367 $-1 #
coedge $-1 -1 $-1 $448 $369 $480 $483 forward $310 $-1 #
coedge $-1 -1 $-1 $369 $448 $370 $430 reversed $310 $-1 #
coedge $-1 -1 $-1 $372 $481 $369 $429 forward $137 $-1 #
edge $484 -1 $-1 $485 7.8929918156944802e-15 $432 1.5707963267948892 $369 $486 forward @7 unknown #
edge $487 -1 $-1 $432 0 $451 0.20000000000000007 $370 $488 forward @7 unknown #
truecolor-adesk-attrib $-1 -1 $489 $-1 $373 -1029528926 #
vertex $-1 -1 $-1 $373 $490 #
straight-curve $-1 -1 $-1 -45.050705336633165 -15.62783324717587 -27.370448282378305 0 5.3105155543180702 8.4733951015720894 F 0 F 1.3368982537932625 #
truecolor-adesk-attrib $-1 -1 $491 $-1 $374 -1029528926 #
straight-curve $-1 -1 $-1 -45.050705336633165 -8.528214275866068 -16.042381167386203 10 0 0 F 0 F 0.20000000000000007 #
DXID-attrib $-1 -1 $-1 $375 $316 @18 ASM_EDGE_FROM_STEP @4 4653 #
point $-1 -1 $-1 -45.050705336633165 -8.528214275866068 -16.042381167386203 #
DXID-attrib $-1 -1 $-1 $378 $317 @18 ASM_EDGE_FROM_STEP @4 4651 #
coedge $-1 -1 $-1 $481 $383 $478 $492 forward $137 $-1 #
coedge $-1 -1 $-1 $458 $457 $383 $441 reversed $459 $-1 #
edge $493 -1 $-1 $443 0 $494 1.3368982537932621 $440 $495 forward @7 unknown #
truecolor-adesk-attrib $-1 -1 $496 $-1 $385 -1029528926 #
vertex $-1 -1 $-1 $441 $497 #
ellipse-curve $-1 -1 $-1 -45.050705336633165 13.635021048570628 -29.932705472291605 -1 0 0 0 1.0621031108636139 1.6946790203144178 1 F -2.1684043449710085e-15 F 1.5707963267948946 #
DXID-attrib $-1 -1 $-1 $386 $330 @18 ASM_EDGE_FROM_STEP @4 4674 #
point $-1 -1 $-1 -45.050705336633165 14.697124159434232 -28.238026451977198 #
coedge $-1 -1 $-1 $399 $391 $498 $499 reversed $110 $-1 #
coedge $-1 -1 $-1 $427 $426 $391 $449 forward $310 $-1 #
edge $500 -1 $-1 $501 7.8929918156944802e-15 $451 1.5707963267948892 $448 $502 forward @7 unknown #
truecolor-adesk-attrib $-1 -1 $503 $-1 $393 -1029528926 #
vertex $-1 -1 $-1 $430 $504 #
straight-curve $-1 -1 $-1 -43.050705336633165 -15.62783324717587 -27.370448282378305 0 5.3105155543180702 8.4733951015720894 F 0 F 1.3368982537932625 #
DXID-attrib $-1 -1 $-1 $394 $338 @18 ASM_EDGE_FROM_STEP @4 4655 #
point $-1 -1 $-1 -43.050705336633165 -8.528214275866068 -16.042381167386203 #
coedge $-1 -1 $-1 $505 $506 $399 $456 forward $423 $-1 #
edge $507 -1 $-1 $461 -3.9898639947467344e-15 $508 1.5707963267948897 $455 $509 forward @7 unknown #
coedge $-1 -1 $-1 $440 $400 $506 $510 reversed $459 $-1 #
coedge $-1 -1 $-1 $400 $440 $402 $463 forward $459 $-1 #
loop $-1 -1 $-1 $-1 $440 $422 #
truecolor-adesk-attrib $-1 -1 $511 $-1 $401 -1029528926 #
vertex $-1 -1 $-1 $510 $512 #
straight-curve $-1 -1 $-1 -43.050705336633165 15.329700068885032 -30.994808583155201 0 -5.3105155543180702 -8.4733951015720894 F 0 F 1.3368982537932621 #
edge $513 -1 $-1 $443 0 $406 0.20000000000000007 $458 $514 forward @7 unknown #
face $515 -1 $-1 $409 $404 $3 $-1 $516 forward single #
DXID-attrib $-1 -1 $-1 $405 $346 @18 ASM_EDGE_FROM_STEP @4 4673 #
point $-1 -1 $-1 -43.050705336633165 15.329700068885032 -30.994808583155201 #
truecolor-adesk-attrib $-1 -1 $517 $-1 $408 -1029528926 #
straight-curve $-1 -1 $-1 -45.050705336633165 14.697124159434232 -28.238026451977198 10 0 0 F 0 F 0.20000000000000007 #
truecolor-adesk-attrib $-1 -1 $518 $-1 $409 -1029528926 #
plane-surface $-1 -1 $-1 -45.050705336633165 7.8374071797468332 -23.938848462260701 0 -0.53105155543180693 -0.84733951015720876 0 0.84733951015720888 -0.53105155543180693 forward_v I I I I #
DXID-attrib $-1 -1 $-1 $412 $353 @18 ASM_EDGE_FROM_STEP @4 4675 #
fmesh-eye-attrib $-1 -1 $519 $414 $354 #
DXID-attrib $-1 -1 $-1 $417 $299 @18 ASM_FACE_FROM_STEP @14 stp-1M-63-7315 #
DXID-attrib $-1 -1 $-1 $420 $309 @18 ASM_FACE_FROM_STEP @14 stp-1M-63-7309 #
fmesh-eye-attrib $-1 -1 $520 $421 $366 #
truecolor-adesk-attrib $-1 -1 $521 $-1 $422 -1029528926 #
plane-surface $-1 -1 $-1 -45.050705336633165 15.329700068885032 -30.994808583155201 0 -0.84733951015720876 0.53105155543180693 0 -0.53105155543180693 -0.84733951015720888 forward_v I I I I #
coedge $-1 -1 $-1 $506 $505 $439 $492 reversed $423 $-1 #
coedge $-1 -1 $-1 $498 $425 $505 $522 forward $367 $-1 #
coedge $-1 -1 $-1 $425 $498 $426 $483 reversed $367 $-1 #
coedge $-1 -1 $-1 $428 $439 $425 $482 forward $137 $-1 #
edge $523 -1 $-1 $524 0 $485 2.4156263290879409 $425 $525 forward @7 unknown #
edge $526 -1 $-1 $485 0 $501 0.20000000000000007 $426 $527 forward @7 unknown #
truecolor-adesk-attrib $-1 -1 $528 $-1 $429 -1029528926 #
vertex $-1 -1 $-1 $429 $529 #
ellipse-curve $-1 -1 $-1 -45.050705336633165 -13.933154226861451 -28.432551393241905 -1 0 0 0 -1.0621031108636148 -1.6946790203144169 1 F 7.8929918156944802e-15 F 1.5707963267948892 #
truecolor-adesk-attrib $-1 -1 $530 $-1 $430 -1029528926 #
straight-curve $-1 -1 $-1 -45.050705336633165 -15.62783324717587 -27.370448282378305 10 0 0 F 0 F 0.20000000000000007 #
DXID-attrib $-1 -1 $-1 $431 $373 @18 ASM_EDGE_FROM_STEP @4 4656 #
point $-1 -1 $-1 -45.050705336633165 -15.62783324717587 -27.370448282378305 #
DXID-attrib $-1 -1 $-1 $434 $374 @18 ASM_EDGE_FROM_STEP @4 4654 #
edge $531 -1 $-1 $494 -3.9898639947467344e-15 $524 1.5707963267948897 $478 $532 forward @7 unknown #
truecolor-adesk-attrib $-1 -1 $533 $-1 $441 -1029528926 #
vertex $-1 -1 $-1 $492 $534 #
straight-curve $-1 -1 $-1 -45.050705336633165 15.329700068885032 -30.994808583155201 0 -5.3105155543180702 -8.4733951015720894 F 0 F 1.3368982537932621 #
DXID-attrib $-1 -1 $-1 $442 $385 @18 ASM_EDGE_FROM_STEP @4 4671 #
point $-1 -1 $-1 -45.050705336633165 15.329700068885032 -30.994808583155201 #
coedge $-1 -1 $-1 $480 $479 $447 $499 forward $367 $-1 #
edge $535 -1 $-1 $508 0 $501 2.4156263290879409 $498 $536 forward @7 unknown #
truecolor-adesk-attrib $-1 -1 $537 $-1 $449 -1029528926 #
vertex $-1 -1 $-1 $483 $538 #
ellipse-curve $-1 -1 $-1 -43.050705336633165 -13.933154226861451 -28.432551393241905 -1 0 0 0 -1.0621031108636148 -1.6946790203144169 1 F 7.8929918156944802e-15 F 1.5707963267948892 #
DXID-attrib $-1 -1 $-1 $450 $393 @18 ASM_EDGE_FROM_STEP @4 4658 #
point $-1 -1 $-1 -43.050705336633165 -15.62783324717587 -27.370448282378305 #
coedge $-1 -1 $-1 $478 $455 $479 $522 reversed $423 $-1 #
coedge $-1 -1 $-1 $455 $478 $457 $510 forward $423 $-1 #
truecolor-adesk-attrib $-1 -1 $539 $-1 $456 -1029528926 #
vertex $-1 -1 $-1 $522 $540 #
ellipse-curve $-1 -1 $-1 -43.050705336633165 6.5354020772608301 -41.260772587283697 -1 0 0 0 1.6946790203143982 -1.0621031108636081 1 F -3.9898639947467344e-15 F 1.5707963267948897 #
edge $541 -1 $-1 $494 0 $461 0.20000000000000007 $506 $542 forward @7 unknown #
DXID-attrib $-1 -1 $-1 $460 $401 @18 ASM_EDGE_FROM_STEP @4 4670 #
point $-1 -1 $-1 -43.050705336633165 8.2300810975752334 -42.3228756981473 #
truecolor-adesk-attrib $-1 -1 $543 $-1 $463 -1029528926 #
straight-curve $-1 -1 $-1 -45.050705336633165 15.329700068885032 -30.994808583155201 10 0 0 F 0 F 0.20000000000000007 #
truecolor-adesk-attrib $-1 -1 $544 $-1 $464 -1029528926 #
cone-surface $-1 -1 $-1 -45.050705336633165 13.635021048570628 -29.932705472291605 -1 0 0 0 1.0621031108636139 1.6946790203144178 1 I I 0 1 2 forward I I I I #
DXID-attrib $-1 -1 $-1 $467 $408 @18 ASM_EDGE_FROM_STEP @4 4672 #
fmesh-eye-attrib $-1 -1 $545 $469 $409 #
DXID-attrib $-1 -1 $-1 $472 $354 @18 ASM_FACE_FROM_STEP @14 stp-1M-63-7314 #
DXID-attrib $-1 -1 $-1 $475 $366 @18 ASM_FACE_FROM_STEP @14 stp-1M-63-7310 #
fmesh-eye-attrib $-1 -1 $546 $476 $422 #
edge $547 -1 $-1 $524 0 $508 0.20000000000000007 $479 $548 forward @7 unknown #
truecolor-adesk-attrib $-1 -1 $549 $-1 $482 -1029528926 #
vertex $-1 -1 $-1 $482 $550 #
straight-curve $-1 -1 $-1 -45.050705336633165 5.473298966397234 -42.955451607598107 0 -8.4733951015720894 5.3105155543180702 F 0 F 2.4156263290879409 #
truecolor-adesk-attrib $-1 -1 $551 $-1 $483 -1029528926 #
straight-curve $-1 -1 $-1 -45.050705336633165 -14.99525733772507 -30.127230413556305 10 0 0 F 0 F 0.20000000000000007 #
DXID-attrib $-1 -1 $-1 $484 $429 @18 ASM_EDGE_FROM_STEP @4 4659 #
point $-1 -1 $-1 -45.050705336633165 -14.99525733772507 -30.127230413556305 #
DXID-attrib $-1 -1 $-1 $487 $430 @18 ASM_EDGE_FROM_STEP @4 4657 #
truecolor-adesk-attrib $-1 -1 $552 $-1 $492 -1029528926 #
ellipse-curve $-1 -1 $-1 -45.050705336633165 6.5354020772608301 -41.260772587283697 -1 0 0 0 1.6946790203143982 -1.0621031108636081 1 F -3.9898639947467344e-15 F 1.5707963267948897 #
DXID-attrib $-1 -1 $-1 $493 $441 @18 ASM_EDGE_FROM_STEP @4 4668 #
point $-1 -1 $-1 -45.050705336633165 8.2300810975752334 -42.3228756981473 #
truecolor-adesk-attrib $-1 -1 $553 $-1 $499 -1029528926 #
straight-curve $-1 -1 $-1 -43.050705336633165 5.473298966397234 -42.955451607598107 0 -8.4733951015720894 5.3105155543180702 F 0 F 2.4156263290879409 #
DXID-attrib $-1 -1 $-1 $500 $449 @18 ASM_EDGE_FROM_STEP @4 4661 #
point $-1 -1 $-1 -43.050705336633165 -14.99525733772507 -30.127230413556305 #
DXID-attrib $-1 -1 $-1 $507 $456 @18 ASM_EDGE_FROM_STEP @4 4667 #
point $-1 -1 $-1 -43.050705336633165 5.473298966397234 -42.955451607598107 #
truecolor-adesk-attrib $-1 -1 $554 $-1 $510 -1029528926 #
straight-curve $-1 -1 $-1 -45.050705336633165 8.2300810975752334 -42.3228756981473 10 0 0 F 0 F 0.20000000000000007 #
DXID-attrib $-1 -1 $-1 $513 $463 @18 ASM_EDGE_FROM_STEP @4 4669 #
fmesh-eye-attrib $-1 -1 $555 $515 $464 #
DXID-attrib $-1 -1 $-1 $518 $409 @18 ASM_FACE_FROM_STEP @14 stp-1M-63-7313 #
DXID-attrib $-1 -1 $-1 $521 $422 @18 ASM_FACE_FROM_STEP @14 stp-1M-63-7311 #
truecolor-adesk-attrib $-1 -1 $556 $-1 $522 -1029528926 #
straight-curve $-1 -1 $-1 -45.050705336633165 5.473298966397234 -42.955451607598107 10 0 0 F 0 F 0.20000000000000007 #
DXID-attrib $-1 -1 $-1 $523 $482 @18 ASM_EDGE_FROM_STEP @4 4662 #
point $-1 -1 $-1 -45.050705336633165 5.473298966397234 -42.955451607598107 #
DXID-attrib $-1 -1 $-1 $526 $483 @18 ASM_EDGE_FROM_STEP @4 4660 #
DXID-attrib $-1 -1 $-1 $531 $492 @18 ASM_EDGE_FROM_STEP @4 4665 #
DXID-attrib $-1 -1 $-1 $535 $499 @18 ASM_EDGE_FROM_STEP @4 4664 #
DXID-attrib $-1 -1 $-1 $541 $510 @18 ASM_EDGE_FROM_STEP @4 4666 #
DXID-attrib $-1 -1 $-1 $544 $464 @18 ASM_FACE_FROM_STEP @14 stp-1M-63-7312 #
DXID-attrib $-1 -1 $-1 $547 $522 @18 ASM_EDGE_FROM_STEP @4 4663 #
