700 624 1 0         
5 ZWCAD 12 ACIS 28.0 NT 24 Sat May 11 15:56:17 2024 
1 9.9999999999999995e-07 1e-10 
body $1 -1 $-1 $2 $-1 $-1 #
DXID-attrib $-1 -1 $-1 $-1 $0 @18 ASM_BODY_FROM_STEP @83 2A84B85479D999701BE61B5538D69F1C3195952D|:|56547D751E6203B7E6431A2ED718A6DA4FD8AA07 #
lump $-1 -1 $-1 $-1 $3 $0 #
shell $-1 -1 $-1 $-1 $-1 $4 $-1 $2 #
face $5 -1 $-1 $6 $7 $3 $-1 $8 forward single #
truecolor-adesk-attrib $-1 -1 $9 $-1 $4 -1056964608 #
face $10 -1 $-1 $11 $12 $3 $-1 $13 forward single #
loop $-1 -1 $-1 $-1 $14 $4 #
cone-surface $-1 -1 $-1 -746.24823290719166 -3219.0873841915145 762.50000000000011 1.8369701987210297e-16 1 0 -12.5 2.2962127484012872e-15 0 1 I I 0 1 12.5 forward I I I I #
DXID-attrib $-1 -1 $-1 $5 $4 @18 ASM_FACE_FROM_STEP @16 stp-1M-143-13773 #
truecolor-adesk-attrib $-1 -1 $15 $-1 $6 -1056964608 #
face $16 -1 $-1 $17 $18 $3 $-1 $19 forward single #
loop $-1 -1 $-1 $-1 $20 $6 #
cone-surface $-1 -1 $-1 -746.24823290719166 -3219.0873841915145 762.50000000000011 1.8369701987210297e-16 1 0 -12.5 2.2962127484012872e-15 0 1 I I 0 1 12.5 forward I I I I #
coedge $-1 -1 $-1 $21 $22 $23 $24 reversed $7 $-1 #
DXID-attrib $-1 -1 $-1 $10 $6 @18 ASM_FACE_FROM_STEP @16 stp-1M-143-13790 #
truecolor-adesk-attrib $-1 -1 $25 $-1 $11 -1056964608 #
face $26 -1 $-1 $27 $28 $3 $-1 $29 forward single #
loop $-1 -1 $-1 $-1 $30 $11 #
plane-surface $-1 -1 $-1 -951.24823290719155 -3159.0873841915145 762.50000000000011 1.8369701987210297e-16 1 0 -1 1.8369701987210297e-16 0 forward_v I I I I #
coedge $-1 -1 $-1 $31 $32 $33 $34 reversed $12 $-1 #
coedge $-1 -1 $-1 $33 $14 $35 $36 forward $7 $-1 #
coedge $-1 -1 $-1 $14 $33 $30 $37 reversed $7 $-1 #
coedge $-1 -1 $-1 $32 $31 $14 $24 forward $12 $-1 #
edge $38 -1 $-1 $39 -60 $40 60 $14 $41 forward @7 unknown #
DXID-attrib $-1 -1 $-1 $16 $11 @18 ASM_FACE_FROM_STEP @16 stp-1M-143-13800 #
truecolor-adesk-attrib $-1 -1 $42 $-1 $17 -1056964608 #
face $43 -1 $-1 $44 $45 $3 $-1 $46 forward single #
loop $-1 -1 $-1 $47 $48 $17 #
plane-surface $-1 -1 $-1 -951.24823290719155 -3279.0873841915145 762.50000000000011 1.8369701987210297e-16 1 0 -1 1.8369701987210297e-16 0 forward_v I I I I #
coedge $-1 -1 $-1 $49 $49 $22 $37 forward $18 $-1 #
coedge $-1 -1 $-1 $23 $20 $50 $51 forward $12 $-1 #
coedge $-1 -1 $-1 $20 $23 $49 $52 reversed $12 $-1 #
coedge $-1 -1 $-1 $22 $21 $20 $34 forward $7 $-1 #
edge $53 -1 $-1 $54 -60 $55 60 $33 $56 forward @7 unknown #
coedge $-1 -1 $-1 $50 $50 $21 $36 reversed $47 $-1 #
edge $57 -1 $-1 $39 -3.1415926535897931 $54 -1.2246063538239998e-16 $21 $58 forward @7 unknown #
edge $59 -1 $-1 $40 -3.1415926535897931 $55 -1.2246063538239998e-16 $22 $60 forward @7 unknown #
truecolor-adesk-attrib $-1 -1 $61 $-1 $24 -1056964608 #
vertex $-1 -1 $-1 $24 $62 #
vertex $-1 -1 $-1 $24 $63 #
straight-curve $-1 -1 $-1 -758.74823290719166 -3219.0873841915145 762.50000000000011 1.8369701987210297e-16 1 0 F -60 F 60 #
DXID-attrib $-1 -1 $-1 $26 $17 @18 ASM_FACE_FROM_STEP @16 stp-1M-143-13844 #
truecolor-adesk-attrib $-1 -1 $64 $-1 $27 -1056964608 #
face $65 -1 $-1 $66 $67 $3 $-1 $68 reversed single #
loop $-1 -1 $-1 $-1 $69 $27 #
plane-surface $-1 -1 $-1 -951.24823290719155 -3314.0873841915145 762.50000000000011 1.8369701987210297e-16 1 0 -1 1.8369701987210297e-16 0 forward_v I I I I #
loop $-1 -1 $-1 $-1 $35 $17 #
coedge $-1 -1 $-1 $70 $71 $72 $73 forward $28 $-1 #
coedge $-1 -1 $-1 $30 $30 $32 $52 forward $18 $-1 #
coedge $-1 -1 $-1 $35 $35 $31 $51 reversed $47 $-1 #
edge $74 -1 $-1 $54 -1.2246063538239998e-16 $39 3.1415926535897931 $31 $75 forward @7 unknown #
edge $76 -1 $-1 $55 -1.2246063538239998e-16 $40 3.1415926535897931 $32 $77 forward @7 unknown #
truecolor-adesk-attrib $-1 -1 $78 $-1 $34 -1056964608 #
vertex $-1 -1 $-1 $36 $79 #
vertex $-1 -1 $-1 $34 $80 #
straight-curve $-1 -1 $-1 -733.74823290719166 -3219.0873841915145 762.50000000000011 1.8369701987210297e-16 1 0 F -60 F 60 #
truecolor-adesk-attrib $-1 -1 $81 $-1 $36 -1056964608 #
ellipse-curve $-1 -1 $-1 -746.24823290719166 -3279.0873841915145 762.50000000000011 1.8369701987210297e-16 1 0 12.5 -2.2962127484012872e-15 0 1 F -3.1415926535897931 F -1.2246063538239998e-16 #
truecolor-adesk-attrib $-1 -1 $82 $-1 $37 -1056964608 #
ellipse-curve $-1 -1 $-1 -746.24823290719166 -3159.0873841915145 762.50000000000011 1.8369701987210297e-16 1 0 12.5 -2.2962127484012872e-15 0 1 F -3.1415926535897931 F -1.2246063538239998e-16 #
DXID-attrib $-1 -1 $-1 $38 $24 @18 ASM_EDGE_FROM_STEP @5 13747 #
point $-1 -1 $-1 -758.74823290719166 -3279.0873841915145 762.50000000000011 #
point $-1 -1 $-1 -758.74823290719166 -3159.0873841915145 762.50000000000011 #
DXID-attrib $-1 -1 $-1 $43 $27 @18 ASM_FACE_FROM_STEP @16 stp-1M-143-13884 #
truecolor-adesk-attrib $-1 -1 $83 $-1 $44 -1056964608 #
face $84 -1 $-1 $85 $86 $3 $-1 $87 forward single #
loop $-1 -1 $-1 $-1 $88 $44 #
plane-surface $-1 -1 $-1 -906.24823290719155 -3319.0873841915145 777.50000000000011 0 0 -1 -1 1.8369701987210297e-16 0 forward_v I I I I #
coedge $-1 -1 $-1 $89 $90 $91 $92 forward $45 $-1 #
coedge $-1 -1 $-1 $93 $48 $94 $95 forward $28 $-1 #
coedge $-1 -1 $-1 $48 $93 $96 $97 forward $28 $-1 #
coedge $-1 -1 $-1 $98 $99 $48 $73 reversed $100 $-1 #
edge $101 -1 $-1 $102 -14.999999999999982 $103 15.000000000000018 $48 $104 forward @7 unknown #
truecolor-adesk-attrib $-1 -1 $105 $-1 $51 -1056964608 #
ellipse-curve $-1 -1 $-1 -746.24823290719166 -3279.0873841915145 762.50000000000011 1.8369701987210297e-16 1 0 12.5 -2.2962127484012872e-15 0 1 F -1.2246063538239998e-16 F 3.1415926535897931 #
truecolor-adesk-attrib $-1 -1 $106 $-1 $52 -1056964608 #
ellipse-curve $-1 -1 $-1 -746.24823290719166 -3159.0873841915145 762.50000000000011 1.8369701987210297e-16 1 0 12.5 -2.2962127484012872e-15 0 1 F -1.2246063538239998e-16 F 3.1415926535897931 #
DXID-attrib $-1 -1 $-1 $53 $34 @18 ASM_EDGE_FROM_STEP @5 13761 #
point $-1 -1 $-1 -733.74823290719166 -3279.0873841915145 762.50000000000011 #
point $-1 -1 $-1 -733.74823290719166 -3159.0873841915145 762.50000000000011 #
DXID-attrib $-1 -1 $-1 $57 $36 @18 ASM_EDGE_FROM_STEP @5 13754 #
DXID-attrib $-1 -1 $-1 $59 $37 @18 ASM_EDGE_FROM_STEP @5 13766 #
DXID-attrib $-1 -1 $-1 $65 $44 @18 ASM_FACE_FROM_STEP @16 stp-1M-143-13946 #
truecolor-adesk-attrib $-1 -1 $107 $-1 $66 -1056964608 #
face $108 -1 $-1 $109 $110 $3 $-1 $111 reversed single #
loop $-1 -1 $-1 $-1 $112 $66 #
plane-surface $-1 -1 $-1 -911.24823290719155 -3314.0873841915145 747.50000000000011 -1 1.8369701987210297e-16 0 0 0 1 forward_v I I I I #
coedge $-1 -1 $-1 $113 $96 $114 $115 reversed $67 $-1 #
coedge $-1 -1 $-1 $116 $69 $117 $118 forward $45 $-1 #
coedge $-1 -1 $-1 $69 $116 $119 $120 reversed $45 $-1 #
coedge $-1 -1 $-1 $121 $122 $69 $92 reversed $110 $-1 #
edge $123 -1 $-1 $124 -5 $125 5 $69 $126 reversed @7 unknown #
coedge $-1 -1 $-1 $71 $70 $127 $128 forward $28 $-1 #
coedge $-1 -1 $-1 $129 $121 $70 $95 reversed $110 $-1 #
edge $130 -1 $-1 $103 -90 $131 90 $70 $132 reversed @7 unknown #
coedge $-1 -1 $-1 $88 $133 $71 $97 reversed $67 $-1 #
edge $134 -1 $-1 $135 -90 $102 90 $71 $136 reversed @7 unknown #
coedge $-1 -1 $-1 $137 $72 $133 $138 reversed $100 $-1 #
coedge $-1 -1 $-1 $72 $137 $129 $139 forward $100 $-1 #
loop $-1 -1 $-1 $-1 $98 $140 #
truecolor-adesk-attrib $-1 -1 $141 $-1 $73 -1056964608 #
vertex $-1 -1 $-1 $73 $142 #
vertex $-1 -1 $-1 $73 $143 #
straight-curve $-1 -1 $-1 -731.24823290719166 -3279.0873841915145 762.50000000000011 0 0 -1 F -14.999999999999982 F 15.000000000000018 #
DXID-attrib $-1 -1 $-1 $74 $51 @18 ASM_EDGE_FROM_STEP @5 13778 #
DXID-attrib $-1 -1 $-1 $76 $52 @18 ASM_EDGE_FROM_STEP @5 13783 #
DXID-attrib $-1 -1 $-1 $84 $66 @18 ASM_FACE_FROM_STEP @16 stp-1M-143-13963 #
truecolor-adesk-attrib $-1 -1 $144 $-1 $85 -1056964608 #
face $145 -1 $-1 $146 $147 $3 $-1 $148 reversed single #
loop $-1 -1 $-1 $-1 $129 $85 #
plane-surface $-1 -1 $-1 -921.24823290719155 -3319.0873841915145 747.50000000000011 0 0 1 1 -1.8369701987210297e-16 0 forward_v I I I I #
coedge $-1 -1 $-1 $119 $127 $121 $149 reversed $86 $-1 #
coedge $-1 -1 $-1 $150 $88 $116 $151 reversed $67 $-1 #
coedge $-1 -1 $-1 $127 $119 $88 $115 forward $86 $-1 #
edge $152 -1 $-1 $153 -17.5 $135 17.5 $88 $154 forward @7 unknown #
coedge $-1 -1 $-1 $90 $89 $113 $151 forward $45 $-1 #
coedge $-1 -1 $-1 $155 $156 $89 $118 reversed $157 $-1 #
edge $158 -1 $-1 $125 -15 $159 15 $89 $160 reversed @7 unknown #
coedge $-1 -1 $-1 $114 $112 $90 $120 forward $86 $-1 #
edge $161 -1 $-1 $124 -14.999999999999988 $153 15.000000000000011 $90 $162 forward @7 unknown #
coedge $-1 -1 $-1 $94 $91 $112 $149 forward $110 $-1 #
coedge $-1 -1 $-1 $91 $163 $155 $164 forward $110 $-1 #
truecolor-adesk-attrib $-1 -1 $165 $-1 $92 -1056964608 #
vertex $-1 -1 $-1 $92 $166 #
vertex $-1 -1 $-1 $92 $167 #
straight-curve $-1 -1 $-1 -916.24823290719155 -3314.0873841915145 747.50000000000011 1 -1.8369701987210297e-16 0 F -5 F 5 #
coedge $-1 -1 $-1 $112 $114 $93 $128 reversed $86 $-1 #
edge $168 -1 $-1 $131 -15.000000000000009 $135 14.999999999999991 $93 $169 forward @7 unknown #
coedge $-1 -1 $-1 $170 $94 $99 $139 reversed $110 $-1 #
truecolor-adesk-attrib $-1 -1 $171 $-1 $95 -1056964608 #
vertex $-1 -1 $-1 $95 $172 #
straight-curve $-1 -1 $-1 -821.24823290719166 -3279.0873841915145 747.50000000000011 1 -1.8369701987210297e-16 0 F -90 F 90 #
coedge $-1 -1 $-1 $96 $173 $98 $138 forward $67 $-1 #
truecolor-adesk-attrib $-1 -1 $174 $-1 $97 -1056964608 #
vertex $-1 -1 $-1 $128 $175 #
straight-curve $-1 -1 $-1 -821.24823290719166 -3279.0873841915145 777.50000000000011 -1 1.8369701987210297e-16 0 F -90 F 90 #
coedge $-1 -1 $-1 $99 $98 $176 $177 forward $100 $-1 #
edge $178 -1 $-1 $179 -2.5 $102 2.5 $133 $180 forward @7 unknown #
edge $181 -1 $-1 $182 -2.5 $103 2.5 $129 $183 forward @7 unknown #
face $184 -1 $-1 $-1 $100 $3 $-1 $185 forward single #
DXID-attrib $-1 -1 $-1 $101 $73 @18 ASM_EDGE_FROM_STEP @5 13814 #
point $-1 -1 $-1 -731.24823290719166 -3279.0873841915145 777.50000000000011 #
point $-1 -1 $-1 -731.24823290719166 -3279.0873841915145 747.50000000000011 #
DXID-attrib $-1 -1 $-1 $108 $85 @18 ASM_FACE_FROM_STEP @16 stp-1M-143-14020 #
truecolor-adesk-attrib $-1 -1 $186 $-1 $109 -1056964608 #
face $187 -1 $-1 $188 $189 $3 $-1 $190 reversed single #
loop $-1 -1 $-1 $191 $192 $109 #
plane-surface $-1 -1 $-1 -951.24823290719155 -3324.0873841915145 762.50000000000011 1.8369701987210297e-16 1 0 -1 1.8369701987210297e-16 0 forward_v I I I I #
edge $193 -1 $-1 $124 -17.5 $131 17.5 $112 $194 forward @7 unknown #
coedge $-1 -1 $-1 $195 $113 $156 $196 reversed $67 $-1 #
edge $197 -1 $-1 $159 -5 $153 5 $116 $198 reversed @7 unknown #
truecolor-adesk-attrib $-1 -1 $199 $-1 $115 -1056964608 #
vertex $-1 -1 $-1 $151 $200 #
straight-curve $-1 -1 $-1 -911.24823290719155 -3296.5873841915145 777.50000000000011 1.8369701987210297e-16 1 0 F -17.5 F 17.5 #
coedge $-1 -1 $-1 $201 $117 $122 $164 reversed $157 $-1 #
coedge $-1 -1 $-1 $117 $202 $150 $196 forward $157 $-1 #
loop $-1 -1 $-1 $-1 $155 $203 #
truecolor-adesk-attrib $-1 -1 $204 $-1 $118 -1056964608 #
vertex $-1 -1 $-1 $118 $205 #
straight-curve $-1 -1 $-1 -921.24823290719155 -3314.0873841915145 762.50000000000011 0 0 -1 F -15 F 15 #
truecolor-adesk-attrib $-1 -1 $206 $-1 $120 -1056964608 #
straight-curve $-1 -1 $-1 -911.24823290719155 -3314.0873841915145 762.50000000000011 0 0 1 F -14.999999999999988 F 15.000000000000011 #
coedge $-1 -1 $-1 $122 $207 $208 $209 forward $110 $-1 #
edge $210 -1 $-1 $211 -2.5 $125 2.5 $122 $212 forward @7 unknown #
DXID-attrib $-1 -1 $-1 $123 $92 @18 ASM_EDGE_FROM_STEP @5 13858 #
point $-1 -1 $-1 -911.24823290719155 -3314.0873841915145 747.50000000000011 #
point $-1 -1 $-1 -921.24823290719155 -3314.0873841915145 747.50000000000011 #
truecolor-adesk-attrib $-1 -1 $213 $-1 $128 -1056964608 #
straight-curve $-1 -1 $-1 -911.24823290719155 -3279.0873841915145 762.50000000000011 0 0 1 F -15.000000000000009 F 14.999999999999991 #
coedge $-1 -1 $-1 $214 $129 $215 $216 forward $110 $-1 #
DXID-attrib $-1 -1 $-1 $130 $95 @18 ASM_EDGE_FROM_STEP @5 13821 #
point $-1 -1 $-1 -911.24823290719155 -3279.0873841915145 747.50000000000011 #
coedge $-1 -1 $-1 $133 $217 $218 $219 forward $67 $-1 #
DXID-attrib $-1 -1 $-1 $134 $97 @18 ASM_EDGE_FROM_STEP @5 13833 #
point $-1 -1 $-1 -911.24823290719155 -3279.0873841915145 777.50000000000011 #
coedge $-1 -1 $-1 $218 $215 $137 $177 reversed $220 $-1 #
edge $221 -1 $-1 $179 -14.999999999999982 $182 15.000000000000018 $176 $222 forward @7 unknown #
truecolor-adesk-attrib $-1 -1 $223 $-1 $138 -1056964608 #
vertex $-1 -1 $-1 $219 $224 #
straight-curve $-1 -1 $-1 -731.24823290719166 -3281.5873841915145 777.50000000000011 1.8369701987210297e-16 1 0 F -2.5 F 2.5 #
truecolor-adesk-attrib $-1 -1 $225 $-1 $139 -1056964608 #
vertex $-1 -1 $-1 $139 $226 #
straight-curve $-1 -1 $-1 -731.24823290719166 -3281.5873841915145 747.50000000000011 1.8369701987210297e-16 1 0 F -2.5 F 2.5 #
truecolor-adesk-attrib $-1 -1 $227 $-1 $140 -1056964608 #
plane-surface $-1 -1 $-1 -731.24823290719166 -3284.0873841915145 777.50000000000011 1 -1.8369701987210297e-16 0 0 0 -1 forward_v I I I I #
DXID-attrib $-1 -1 $-1 $145 $109 @18 ASM_FACE_FROM_STEP @16 stp-1M-143-14116 #
truecolor-adesk-attrib $-1 -1 $228 $-1 $146 -1056964608 #
face $229 -1 $-1 $230 $231 $3 $-1 $232 reversed single #
loop $-1 -1 $-1 $-1 $233 $146 #
cone-surface $-1 -1 $-1 -932.74823290719155 -3321.5873841915145 730.45706006000012 1.8369701987210297e-16 1 0 2.0000000000007603 -3.6739403974434562e-16 -3.4641016151373161 1 I I 0 1 4 forward I I I I #
loop $-1 -1 $-1 $234 $235 $109 #
coedge $-1 -1 $-1 $236 $236 $237 $238 reversed $147 $-1 #
truecolor-adesk-attrib $-1 -1 $239 $-1 $149 -1056964608 #
straight-curve $-1 -1 $-1 -911.24823290719155 -3296.5873841915145 747.50000000000011 1.8369701987210297e-16 1 0 F -17.5 F 17.5 #
coedge $-1 -1 $-1 $240 $150 $241 $242 forward $67 $-1 #
edge $243 -1 $-1 $244 -2.5 $159 2.5 $150 $245 forward @7 unknown #
truecolor-adesk-attrib $-1 -1 $246 $-1 $151 -1056964608 #
straight-curve $-1 -1 $-1 -916.24823290719155 -3314.0873841915145 777.50000000000011 -1 1.8369701987210297e-16 0 F -5 F 5 #
DXID-attrib $-1 -1 $-1 $152 $115 @18 ASM_EDGE_FROM_STEP @5 13894 #
point $-1 -1 $-1 -911.24823290719155 -3314.0873841915145 777.50000000000011 #
coedge $-1 -1 $-1 $202 $155 $247 $248 forward $157 $-1 #
coedge $-1 -1 $-1 $156 $201 $249 $250 forward $157 $-1 #
face $251 -1 $-1 $252 $157 $3 $-1 $253 reversed single #
DXID-attrib $-1 -1 $-1 $158 $118 @18 ASM_EDGE_FROM_STEP @5 13865 #
point $-1 -1 $-1 -921.24823290719155 -3314.0873841915145 777.50000000000011 #
DXID-attrib $-1 -1 $-1 $161 $120 @18 ASM_EDGE_FROM_STEP @5 13877 #
coedge $-1 -1 $-1 $163 $214 $254 $255 forward $110 $-1 #
coedge $-1 -1 $-1 $256 $247 $163 $209 reversed $257 $-1 #
edge $258 -1 $-1 $259 -6.2132034356000032 $211 6.2132034356000032 $163 $260 reversed @7 unknown #
truecolor-adesk-attrib $-1 -1 $261 $-1 $164 -1056964608 #
vertex $-1 -1 $-1 $209 $262 #
straight-curve $-1 -1 $-1 -921.24823290719155 -3316.5873841915145 747.50000000000011 1.8369701987210297e-16 1 0 F -2.5 F 2.5 #
DXID-attrib $-1 -1 $-1 $168 $128 @18 ASM_EDGE_FROM_STEP @5 13828 #
coedge $-1 -1 $-1 $207 $170 $263 $264 reversed $110 $-1 #
coedge $-1 -1 $-1 $176 $265 $170 $216 reversed $220 $-1 #
edge $266 -1 $-1 $182 -87.5 $267 87.5 $170 $268 reversed @7 unknown #
coedge $-1 -1 $-1 $173 $240 $269 $270 forward $67 $-1 #
coedge $-1 -1 $-1 $265 $176 $173 $219 reversed $220 $-1 #
edge $271 -1 $-1 $272 -87.5 $179 87.5 $173 $273 reversed @7 unknown #
loop $-1 -1 $-1 $-1 $265 $252 #
truecolor-adesk-attrib $-1 -1 $274 $-1 $177 -1056964608 #
straight-curve $-1 -1 $-1 -731.24823290719166 -3284.0873841915145 762.50000000000011 0 0 -1 F -14.999999999999982 F 15.000000000000018 #
DXID-attrib $-1 -1 $-1 $178 $138 @18 ASM_EDGE_FROM_STEP @5 13934 #
point $-1 -1 $-1 -731.24823290719166 -3284.0873841915145 777.50000000000011 #
DXID-attrib $-1 -1 $-1 $181 $139 @18 ASM_EDGE_FROM_STEP @5 13975 #
point $-1 -1 $-1 -731.24823290719166 -3284.0873841915145 747.50000000000011 #
DXID-attrib $-1 -1 $-1 $184 $140 @18 ASM_FACE_FROM_STEP @16 stp-1M-143-14465 #
DXID-attrib $-1 -1 $-1 $187 $146 @18 ASM_FACE_FROM_STEP @16 stp-1M-143-14147 #
truecolor-adesk-attrib $-1 -1 $275 $-1 $188 -1056964608 #
face $276 -1 $-1 $277 $278 $3 $-1 $279 reversed single #
loop $-1 -1 $-1 $-1 $280 $188 #
cone-surface $-1 -1 $-1 -932.74823290719155 -3321.5873841915145 730.45706006000012 1.8369701987210297e-16 1 0 2.0000000000007603 -3.6739403974434562e-16 -3.4641016151373161 1 I I 0 1 4 forward I I I I #
coedge $-1 -1 $-1 $281 $282 $283 $284 reversed $189 $-1 #
loop $-1 -1 $-1 $285 $286 $109 #
coedge $-1 -1 $-1 $287 $287 $288 $289 forward $191 $-1 #
coedge $-1 -1 $-1 $192 $192 $290 $291 reversed $147 $-1 #
coedge $-1 -1 $-1 $292 $293 $192 $238 forward $294 $-1 #
edge $295 -1 $-1 $296 -1.2246063538222224e-16 $297 3.1415926535897931 $192 $298 forward @7 unknown #
DXID-attrib $-1 -1 $-1 $193 $149 @18 ASM_EDGE_FROM_STEP @5 13956 #
coedge $-1 -1 $-1 $217 $195 $299 $300 forward $67 $-1 #
coedge $-1 -1 $-1 $249 $301 $195 $242 reversed $257 $-1 #
edge $302 -1 $-1 $244 -6.2132034356000032 $303 6.2132034356000032 $195 $304 reversed @7 unknown #
truecolor-adesk-attrib $-1 -1 $305 $-1 $196 -1056964608 #
vertex $-1 -1 $-1 $196 $306 #
straight-curve $-1 -1 $-1 -921.24823290719155 -3316.5873841915145 777.50000000000011 1.8369701987210297e-16 1 0 F -2.5 F 2.5 #
DXID-attrib $-1 -1 $-1 $197 $151 @18 ASM_EDGE_FROM_STEP @5 13872 #
coedge $-1 -1 $-1 $208 $249 $201 $248 reversed $257 $-1 #
edge $307 -1 $-1 $211 -7.5 $308 7.500000000000016 $247 $309 reversed @7 unknown #
coedge $-1 -1 $-1 $247 $241 $202 $250 reversed $257 $-1 #
edge $310 -1 $-1 $308 -7.4999999999999831 $244 7.5 $249 $311 reversed @7 unknown #
truecolor-adesk-attrib $-1 -1 $312 $-1 $203 -1056964608 #
face $313 -1 $-1 $140 $220 $3 $-1 $314 reversed single #
plane-surface $-1 -1 $-1 -921.24823290719155 -3319.0873841915145 777.50000000000011 1 -1.8369701987210297e-16 0 0 0 -1 forward_v I I I I #
coedge $-1 -1 $-1 $315 $316 $207 $255 reversed $317 $-1 #
edge $318 -1 $-1 $319 -1.2867965644000012 $259 1.2867965643999923 $207 $320 reversed @7 unknown #
coedge $-1 -1 $-1 $301 $208 $321 $322 forward $257 $-1 #
loop $-1 -1 $-1 $323 $256 $324 #
truecolor-adesk-attrib $-1 -1 $325 $-1 $209 -1056964608 #
vertex $-1 -1 $-1 $255 $326 #
straight-curve $-1 -1 $-1 -915.03502947159154 -3319.0873841915145 747.50000000000011 1 -1.8369701987210297e-16 0 F -6.2132034356000032 F 6.2132034356000032 #
DXID-attrib $-1 -1 $-1 $210 $164 @18 ASM_EDGE_FROM_STEP @5 14008 #
point $-1 -1 $-1 -921.24823290719155 -3319.0873841915145 747.50000000000011 #
coedge $-1 -1 $-1 $327 $328 $214 $264 forward $329 $-1 #
edge $330 -1 $-1 $319 -17.5 $267 17.5 $214 $331 forward @7 unknown #
coedge $-1 -1 $-1 $215 $218 $327 $332 forward $220 $-1 #
truecolor-adesk-attrib $-1 -1 $333 $-1 $216 -1056964608 #
vertex $-1 -1 $-1 $216 $334 #
straight-curve $-1 -1 $-1 -818.74823290719166 -3284.0873841915145 747.50000000000011 1 -1.8369701987210297e-16 0 F -87.5 F 87.5 #
coedge $-1 -1 $-1 $335 $327 $217 $270 reversed $329 $-1 #
edge $336 -1 $-1 $337 -17.5 $272 17.5 $217 $338 forward @7 unknown #
truecolor-adesk-attrib $-1 -1 $339 $-1 $219 -1056964608 #
vertex $-1 -1 $-1 $270 $340 #
straight-curve $-1 -1 $-1 -818.74823290719166 -3284.0873841915145 777.50000000000011 -1 1.8369701987210297e-16 0 F -87.5 F 87.5 #
DXID-attrib $-1 -1 $-1 $221 $177 @18 ASM_EDGE_FROM_STEP @5 14446 #
DXID-attrib $-1 -1 $-1 $229 $188 @18 ASM_FACE_FROM_STEP @16 stp-1M-143-14159 #
truecolor-adesk-attrib $-1 -1 $341 $-1 $230 -1056964608 #
face $342 -1 $-1 $343 $344 $3 $-1 $345 reversed single #
loop $-1 -1 $-1 $-1 $346 $230 #
cone-surface $-1 -1 $-1 -932.74823290719155 -3321.5873841915145 794.54293994000011 1.8369701987210297e-16 1 0 2.0000000000007603 -3.6739403974434562e-16 3.4641016151373161 1 I I 0 1 4 forward I I I I #
coedge $-1 -1 $-1 $347 $348 $349 $350 reversed $231 $-1 #
coedge $-1 -1 $-1 $349 $233 $351 $352 forward $189 $-1 #
coedge $-1 -1 $-1 $233 $349 $353 $354 reversed $189 $-1 #
coedge $-1 -1 $-1 $348 $347 $233 $284 forward $231 $-1 #
edge $355 -1 $-1 $356 -2.5 $357 2.5 $233 $358 reversed @7 unknown #
loop $-1 -1 $-1 $359 $360 $109 #
coedge $-1 -1 $-1 $361 $361 $362 $363 forward $234 $-1 #
coedge $-1 -1 $-1 $235 $235 $364 $365 forward $191 $-1 #
coedge $-1 -1 $-1 $366 $367 $235 $289 reversed $368 $-1 #
edge $369 -1 $-1 $370 -1.2246063538225008e-16 $371 3.1415926535897931 $235 $372 forward @7 unknown #
coedge $-1 -1 $-1 $373 $374 $236 $291 forward $375 $-1 #
edge $376 -1 $-1 $297 -3.1415926535897931 $296 -1.2246063538222224e-16 $236 $377 forward @7 unknown #
coedge $-1 -1 $-1 $321 $237 $374 $378 forward $294 $-1 #
coedge $-1 -1 $-1 $237 $379 $373 $380 reversed $294 $-1 #
loop $-1 -1 $-1 $-1 $293 $381 #
truecolor-adesk-attrib $-1 -1 $382 $-1 $238 -1056964608 #
vertex $-1 -1 $-1 $238 $383 #
vertex $-1 -1 $-1 $238 $384 #
ellipse-curve $-1 -1 $-1 -951.24823290719155 -3324.0873841915145 762.50000000000011 1.8369701987210297e-16 1 0 45 -8.2663658942446335e-15 0 1 F -1.2246063538222224e-16 F 3.1415926535897931 #
coedge $-1 -1 $-1 $385 $386 $240 $300 reversed $387 $-1 #
edge $388 -1 $-1 $303 -1.2867965643999923 $337 1.2867965644000012 $240 $389 reversed @7 unknown #
coedge $-1 -1 $-1 $241 $256 $390 $391 forward $257 $-1 #
truecolor-adesk-attrib $-1 -1 $392 $-1 $242 -1056964608 #
vertex $-1 -1 $-1 $242 $393 #
straight-curve $-1 -1 $-1 -915.03502947159154 -3319.0873841915145 777.50000000000011 -1 1.8369701987210297e-16 0 F -6.2132034356000032 F 6.2132034356000032 #
DXID-attrib $-1 -1 $-1 $243 $196 @18 ASM_EDGE_FROM_STEP @5 13901 #
point $-1 -1 $-1 -921.24823290719155 -3319.0873841915145 777.50000000000011 #
truecolor-adesk-attrib $-1 -1 $394 $-1 $248 -1056964608 #
vertex $395 -1 $-1 $-1 $396 #
straight-curve $-1 -1 $-1 -921.24823290719155 -3319.0873841915145 755.00000000000011 0 0 -1 F -7.500000000000016 F 7.5 #
truecolor-adesk-attrib $-1 -1 $397 $-1 $250 -1056964608 #
straight-curve $-1 -1 $-1 -921.24823290719155 -3319.0873841915145 770.00000000000011 0 0 -1 F -7.5 F 7.4999999999999831 #
DXID-attrib $-1 -1 $-1 $251 $203 @18 ASM_FACE_FROM_STEP @16 stp-1M-143-14436 #
truecolor-adesk-attrib $-1 -1 $398 $-1 $252 -1056964608 #
plane-surface $-1 -1 $-1 -951.24823290719155 -3284.0873841915145 762.50000000000011 1.8369701987210297e-16 1 0 -1 1.8369701987210297e-16 0 forward_v I I I I #
coedge $-1 -1 $-1 $316 $254 $328 $399 reversed $317 $-1 #
coedge $-1 -1 $-1 $254 $315 $379 $400 forward $317 $-1 #
loop $-1 -1 $-1 $-1 $316 $401 #
truecolor-adesk-attrib $-1 -1 $402 $-1 $255 -1056964608 #
vertex $-1 -1 $-1 $264 $403 #
straight-curve $-1 -1 $-1 -907.53502947159154 -3319.0873841915145 747.50000000000011 1 -1.8369701987210297e-16 0 F -1.2867965643999923 F 1.2867965644000012 #
coedge $-1 -1 $-1 $379 $292 $256 $322 reversed $294 $-1 #
edge $404 -1 $-1 $259 0.33983690945406891 $405 3.1415926535897931 $321 $406 forward @7 unknown #
loop $-1 -1 $-1 $407 $408 $324 #
face $409 -1 $-1 $203 $257 $3 $-1 $410 forward single #
DXID-attrib $-1 -1 $-1 $258 $209 @18 ASM_EDGE_FROM_STEP @5 14003 #
point $-1 -1 $-1 -908.82182603599153 -3319.0873841915145 747.50000000000011 #
coedge $-1 -1 $-1 $269 $263 $265 $332 reversed $329 $-1 #
coedge $-1 -1 $-1 $263 $335 $315 $399 forward $329 $-1 #
loop $-1 -1 $-1 $-1 $269 $411 #
truecolor-adesk-attrib $-1 -1 $412 $-1 $264 -1056964608 #
straight-curve $-1 -1 $-1 -906.24823290719155 -3301.5873841915145 747.50000000000011 1.8369701987210297e-16 1 0 F -17.5 F 17.5 #
edge $413 -1 $-1 $272 -14.999999999999995 $267 15.000000000000004 $327 $414 forward @7 unknown #
DXID-attrib $-1 -1 $-1 $266 $216 @18 ASM_EDGE_FROM_STEP @5 13982 #
point $-1 -1 $-1 -906.24823290719155 -3284.0873841915145 747.50000000000011 #
coedge $-1 -1 $-1 $328 $269 $386 $415 forward $329 $-1 #
truecolor-adesk-attrib $-1 -1 $416 $-1 $270 -1056964608 #
vertex $-1 -1 $-1 $300 $417 #
straight-curve $-1 -1 $-1 -906.24823290719155 -3301.5873841915145 777.50000000000011 1.8369701987210297e-16 1 0 F -17.5 F 17.5 #
DXID-attrib $-1 -1 $-1 $271 $219 @18 ASM_EDGE_FROM_STEP @5 13929 #
point $-1 -1 $-1 -906.24823290719155 -3284.0873841915145 777.50000000000011 #
DXID-attrib $-1 -1 $-1 $276 $230 @18 ASM_FACE_FROM_STEP @16 stp-1M-143-14190 #
truecolor-adesk-attrib $-1 -1 $418 $-1 $277 -1056964608 #
face $419 -1 $-1 $420 $368 $3 $-1 $421 reversed single #
loop $-1 -1 $-1 $-1 $422 $277 #
cone-surface $-1 -1 $-1 -932.74823290719155 -3321.5873841915145 794.54293994000011 1.8369701987210297e-16 1 0 2.0000000000007603 -3.6739403974434562e-16 3.4641016151373161 1 I I 0 1 4 forward I I I I #
coedge $-1 -1 $-1 $423 $424 $425 $426 reversed $278 $-1 #
coedge $-1 -1 $-1 $283 $280 $427 $428 forward $231 $-1 #
coedge $-1 -1 $-1 $280 $283 $429 $430 reversed $231 $-1 #
coedge $-1 -1 $-1 $282 $281 $280 $350 forward $189 $-1 #
edge $431 -1 $-1 $432 -2.5 $433 2.5 $349 $434 reversed @7 unknown #
coedge $-1 -1 $-1 $427 $427 $281 $352 reversed $435 $-1 #
edge $436 -1 $-1 $356 -2.0943951023979146 $432 1.0471975512043776 $281 $437 forward @7 unknown #
coedge $-1 -1 $-1 $429 $429 $282 $354 forward $359 $-1 #
edge $438 -1 $-1 $357 -2.0943951023979146 $433 1.0471975512043776 $353 $439 forward @7 unknown #
truecolor-adesk-attrib $-1 -1 $440 $-1 $284 -1056964608 #
vertex $-1 -1 $-1 $284 $441 #
vertex $-1 -1 $-1 $354 $442 #
straight-curve $-1 -1 $-1 -934.74823290719155 -3321.5873841915145 733.92116167510017 1.8369701987210297e-16 1 0 F -2.5 F 2.5 #
loop $-1 -1 $-1 $-1 $353 $109 #
coedge $-1 -1 $-1 $443 $443 $424 $444 forward $285 $-1 #
coedge $-1 -1 $-1 $286 $286 $445 $446 forward $234 $-1 #
coedge $-1 -1 $-1 $447 $448 $286 $363 reversed $449 $-1 #
edge $450 -1 $-1 $451 -3.1415926535897931 $452 -5.6654984523333336e-16 $286 $453 forward @7 unknown #
coedge $-1 -1 $-1 $454 $455 $287 $365 reversed $456 $-1 #
edge $457 -1 $-1 $371 -3.1415926535897931 $370 -1.2246063538225008e-16 $287 $458 forward @7 unknown #
coedge $-1 -1 $-1 $459 $288 $455 $460 reversed $368 $-1 #
coedge $-1 -1 $-1 $288 $459 $454 $461 forward $368 $-1 #
loop $-1 -1 $-1 $-1 $366 $343 #
truecolor-adesk-attrib $-1 -1 $462 $-1 $289 -1056964608 #
vertex $-1 -1 $-1 $289 $463 #
vertex $-1 -1 $-1 $289 $464 #
ellipse-curve $-1 -1 $-1 -988.24823290719155 -3324.0873841915145 762.50000000000011 1.8369701987210297e-16 1 0 4 -7.3478807948841188e-16 0 1 F -1.2246063538225008e-16 F 3.1415926535897931 #
coedge $-1 -1 $-1 $465 $290 $293 $380 forward $375 $-1 #
coedge $-1 -1 $-1 $290 $390 $292 $378 reversed $375 $-1 #
loop $-1 -1 $-1 $-1 $374 $466 #
truecolor-adesk-attrib $-1 -1 $467 $-1 $291 -1056964608 #
ellipse-curve $-1 -1 $-1 -951.24823290719155 -3324.0873841915145 762.50000000000011 1.8369701987210297e-16 1 0 45 -8.2663658942446335e-15 0 1 F -3.1415926535897931 F -1.2246063538222224e-16 #
edge $468 -1 $-1 $297 -2.5 $405 2.5 $374 $469 forward @7 unknown #
coedge $-1 -1 $-1 $293 $321 $316 $400 reversed $294 $-1 #
edge $470 -1 $-1 $296 -2.5 $471 2.5 $373 $472 forward @7 unknown #
face $473 -1 $-1 $474 $294 $3 $-1 $475 forward single #
DXID-attrib $-1 -1 $-1 $295 $238 @18 ASM_EDGE_FROM_STEP @5 14034 #
point $-1 -1 $-1 -906.24823290719155 -3324.0873841915145 762.50000000000011 #
point $-1 -1 $-1 -996.24823290719155 -3324.0873841915145 762.50000000000011 #
coedge $-1 -1 $-1 $386 $299 $465 $476 forward $387 $-1 #
coedge $-1 -1 $-1 $299 $385 $335 $415 reversed $387 $-1 #
loop $-1 -1 $-1 $-1 $385 $474 #
truecolor-adesk-attrib $-1 -1 $477 $-1 $300 -1056964608 #
straight-curve $-1 -1 $-1 -907.53502947159154 -3319.0873841915145 777.50000000000011 -1 1.8369701987210297e-16 0 F -1.2867965644000012 F 1.2867965643999923 #
coedge $-1 -1 $-1 $374 $465 $301 $391 reversed $375 $-1 #
edge $478 -1 $-1 $405 -3.1415926535897931 $303 -0.33983690945406891 $390 $479 forward @7 unknown #
DXID-attrib $-1 -1 $-1 $302 $242 @18 ASM_EDGE_FROM_STEP @5 13908 #
point $-1 -1 $-1 -908.82182603599153 -3319.0873841915145 777.50000000000011 #
DXID-attrib $-1 -1 $-1 $307 $248 @18 ASM_EDGE_FROM_STEP @5 14398 #
vertedge-sys-attrib $-1 -1 $-1 $-1 $308 4 $480 $250 $-1 $-1 #
point $-1 -1 $-1 -921.24823290719155 -3319.0873841915145 762.50000000000011 #
DXID-attrib $-1 -1 $-1 $310 $250 @18 ASM_EDGE_FROM_STEP @5 14393 #
DXID-attrib $-1 -1 $-1 $313 $252 @18 ASM_FACE_FROM_STEP @16 stp-1M-143-14453 #
edge $481 -1 $-1 $471 -7.5000000000000053 $319 7.5 $328 $482 reversed @7 unknown #
edge $483 -1 $-1 $471 -1.2246063538222224e-16 $259 0.33983690945406891 $379 $484 forward @7 unknown #
face $485 -1 $-1 $324 $317 $3 $-1 $486 reversed single #
DXID-attrib $-1 -1 $-1 $318 $255 @18 ASM_EDGE_FROM_STEP @5 13996 #
point $-1 -1 $-1 -906.24823290719155 -3319.0873841915145 747.50000000000011 #
truecolor-adesk-attrib $-1 -1 $487 $-1 $322 -1056964608 #
vertex $-1 -1 $-1 $378 $488 #
ellipse-curve $-1 -1 $-1 -951.24823290719155 -3319.0873841915145 762.50000000000011 1.8369701987210297e-16 1 0 45 -8.2663658942446335e-15 0 1 F 0.33983690945406891 F 3.1415926535897931 #
loop $-1 -1 $-1 $489 $490 $324 #
coedge $-1 -1 $-1 $491 $491 $492 $493 reversed $323 $-1 #
truecolor-adesk-attrib $-1 -1 $494 $-1 $324 -1056964608 #
plane-surface $-1 -1 $-1 -951.24823290719155 -3319.0873841915145 762.50000000000011 1.8369701987210297e-16 1 0 -1 1.8369701987210297e-16 0 forward_v I I I I #
face $495 -1 $-1 $401 $329 $3 $-1 $496 reversed single #
DXID-attrib $-1 -1 $-1 $330 $264 @18 ASM_EDGE_FROM_STEP @5 13989 #
truecolor-adesk-attrib $-1 -1 $497 $-1 $332 -1056964608 #
straight-curve $-1 -1 $-1 -906.24823290719155 -3284.0873841915145 762.50000000000011 0 0 -1 F -14.999999999999995 F 15.000000000000004 #
edge $498 -1 $-1 $337 -7.5 $471 7.4999999999999938 $386 $499 reversed @7 unknown #
DXID-attrib $-1 -1 $-1 $336 $270 @18 ASM_EDGE_FROM_STEP @5 13922 #
point $-1 -1 $-1 -906.24823290719155 -3319.0873841915145 777.50000000000011 #
DXID-attrib $-1 -1 $-1 $342 $277 @18 ASM_FACE_FROM_STEP @16 stp-1M-143-14202 #
truecolor-adesk-attrib $-1 -1 $500 $-1 $343 -1056964608 #
face $501 -1 $-1 $502 $456 $3 $-1 $503 reversed single #
cone-surface $-1 -1 $-1 -988.24823290719155 -3321.5873841915145 762.50000000000011 1.8369701987210297e-16 1 0 -4 7.3478807948841188e-16 0 1 I I 0 1 4 forward I I I I #
coedge $-1 -1 $-1 $504 $505 $506 $507 reversed $344 $-1 #
coedge $-1 -1 $-1 $506 $346 $508 $509 forward $278 $-1 #
coedge $-1 -1 $-1 $346 $506 $360 $444 reversed $278 $-1 #
coedge $-1 -1 $-1 $505 $504 $346 $426 forward $344 $-1 #
edge $510 -1 $-1 $511 -2.5 $512 2.5 $346 $513 reversed @7 unknown #
coedge $-1 -1 $-1 $351 $351 $347 $428 reversed $435 $-1 #
edge $514 -1 $-1 $432 1.0471975512043776 $356 4.1887902047816716 $347 $515 forward @7 unknown #
coedge $-1 -1 $-1 $353 $353 $348 $430 forward $359 $-1 #
edge $516 -1 $-1 $433 1.0471975512043776 $357 4.1887902047816716 $429 $517 forward @7 unknown #
truecolor-adesk-attrib $-1 -1 $518 $-1 $350 -1056964608 #
vertex $-1 -1 $-1 $352 $519 #
vertex $-1 -1 $-1 $354 $520 #
straight-curve $-1 -1 $-1 -930.74823290719155 -3321.5873841915145 726.99295844480014 1.8369701987210297e-16 1 0 F -2.5 F 2.5 #
loop $-1 -1 $-1 $-1 $427 $324 #
truecolor-adesk-attrib $-1 -1 $521 $-1 $352 -1056964608 #
ellipse-curve $-1 -1 $-1 -932.74823290719155 -3319.0873841915145 730.45706006000012 1.8369701987210297e-16 1 0 4 -7.3478807948841188e-16 0 1 F -2.0943951023979146 F 1.0471975512043776 #
truecolor-adesk-attrib $-1 -1 $522 $-1 $354 -1056964608 #
ellipse-curve $-1 -1 $-1 -932.74823290719155 -3324.0873841915145 730.45706006000012 1.8369701987210297e-16 1 0 4 -7.3478807948841188e-16 0 1 F -2.0943951023979146 F 1.0471975512043776 #
DXID-attrib $-1 -1 $-1 $355 $284 @18 ASM_EDGE_FROM_STEP @5 14128 #
point $-1 -1 $-1 -934.74823290719155 -3319.0873841915145 733.92116167510017 #
point $-1 -1 $-1 -934.74823290719155 -3324.0873841915145 733.92116167510017 #
coedge $-1 -1 $-1 $360 $360 $505 $523 forward $285 $-1 #
edge $524 -1 $-1 $512 2.0943951023979146 $525 5.2359877559752084 $360 $526 forward @7 unknown #
coedge $-1 -1 $-1 $527 $528 $361 $446 reversed $529 $-1 #
edge $530 -1 $-1 $452 -5.6654984523333336e-16 $451 3.1415926535897931 $361 $531 forward @7 unknown #
coedge $-1 -1 $-1 $492 $362 $528 $532 forward $449 $-1 #
coedge $-1 -1 $-1 $362 $492 $527 $533 reversed $449 $-1 #
loop $-1 -1 $-1 $-1 $492 $534 #
truecolor-adesk-attrib $-1 -1 $535 $-1 $363 -1056964608 #
vertex $-1 -1 $-1 $363 $536 #
vertex $-1 -1 $-1 $363 $537 #
ellipse-curve $-1 -1 $-1 -951.24823290719155 -3324.0873841915145 762.50000000000011 1.8369701987210297e-16 1 0 30 -5.5109105961630888e-15 0 1 F -3.1415926535897931 F -5.6654984523333336e-16 #
coedge $-1 -1 $-1 $538 $364 $367 $461 reversed $456 $-1 #
coedge $-1 -1 $-1 $364 $538 $366 $460 forward $456 $-1 #
loop $-1 -1 $-1 $-1 $454 $420 #
truecolor-adesk-attrib $-1 -1 $539 $-1 $365 -1056964608 #
ellipse-curve $-1 -1 $-1 -988.24823290719155 -3324.0873841915145 762.50000000000011 1.8369701987210297e-16 1 0 4 -7.3478807948841188e-16 0 1 F -3.1415926535897931 F -1.2246063538225008e-16 #
coedge $-1 -1 $-1 $367 $366 $540 $541 forward $368 $-1 #
edge $542 -1 $-1 $543 -2.5 $370 2.5 $366 $544 reversed @7 unknown #
edge $545 -1 $-1 $546 -2.5 $371 2.5 $367 $547 reversed @7 unknown #
DXID-attrib $-1 -1 $-1 $369 $289 @18 ASM_EDGE_FROM_STEP @5 14052 #
point $-1 -1 $-1 -984.24823290719155 -3324.0873841915145 762.50000000000011 #
point $-1 -1 $-1 -992.24823290719155 -3324.0873841915145 762.50000000000011 #
coedge $-1 -1 $-1 $390 $373 $385 $476 reversed $375 $-1 #
face $548 -1 $-1 $381 $375 $3 $-1 $549 forward single #
DXID-attrib $-1 -1 $-1 $376 $291 @18 ASM_EDGE_FROM_STEP @5 14039 #
truecolor-adesk-attrib $-1 -1 $550 $-1 $378 -1056964608 #
straight-curve $-1 -1 $-1 -996.24823290719155 -3321.5873841915145 762.50000000000011 1.8369701987210297e-16 1 0 F -2.5 F 2.5 #
truecolor-adesk-attrib $-1 -1 $551 $-1 $380 -1056964608 #
vertex $-1 -1 $-1 $380 $552 #
straight-curve $-1 -1 $-1 -906.24823290719155 -3321.5873841915145 762.50000000000011 1.8369701987210297e-16 1 0 F -2.5 F 2.5 #
truecolor-adesk-attrib $-1 -1 $553 $-1 $381 -1056964608 #
face $554 -1 $-1 $411 $387 $3 $-1 $555 reversed single #
cone-surface $-1 -1 $-1 -951.24823290719155 -3321.5873841915145 762.50000000000011 1.8369701987210297e-16 1 0 -45 8.2663658942446335e-15 0 1 I I 0 1 45 forward I I I I #
edge $556 -1 $-1 $303 -0.33983690945406891 $471 -1.2246063538222224e-16 $465 $557 forward @7 unknown #
DXID-attrib $-1 -1 $-1 $388 $300 @18 ASM_EDGE_FROM_STEP @5 13915 #
truecolor-adesk-attrib $-1 -1 $558 $-1 $391 -1056964608 #
ellipse-curve $-1 -1 $-1 -951.24823290719155 -3319.0873841915145 762.50000000000011 1.8369701987210297e-16 1 0 45 -8.2663658942446335e-15 0 1 F -3.1415926535897931 F -0.33983690945406891 #
edge $559 -1 $-1 $308 -5.6654984523333336e-16 $560 3.1415926535897931 $561 $562 forward @7 unknown #
truecolor-adesk-attrib $-1 -1 $563 $-1 $399 -1056964608 #
straight-curve $-1 -1 $-1 -906.24823290719155 -3319.0873841915145 755.00000000000011 0 0 1 F -7.5 F 7.5000000000000053 #
truecolor-adesk-attrib $-1 -1 $564 $-1 $400 -1056964608 #
ellipse-curve $-1 -1 $-1 -951.24823290719155 -3319.0873841915145 762.50000000000011 1.8369701987210297e-16 1 0 45 -8.2663658942446335e-15 0 1 F -1.2246063538222224e-16 F 0.33983690945406891 #
truecolor-adesk-attrib $-1 -1 $565 $-1 $401 -1056964608 #
plane-surface $-1 -1 $-1 -951.24823290719155 -3319.0873841915145 762.50000000000011 1.8369701987210297e-16 1 0 -1 1.8369701987210297e-16 0 forward_v I I I I #
DXID-attrib $-1 -1 $-1 $404 $322 @18 ASM_EDGE_FROM_STEP @5 14330 #
point $-1 -1 $-1 -996.24823290719155 -3319.0873841915145 762.50000000000011 #
loop $-1 -1 $-1 $435 $566 $324 #
coedge $-1 -1 $-1 $540 $540 $538 $567 reversed $407 $-1 #
coedge $-1 -1 $-1 $408 $408 $561 $480 reversed $323 $-1 #
coedge $-1 -1 $-1 $448 $447 $408 $493 forward $449 $-1 #
edge $568 -1 $-1 $560 -3.1415926535897931 $308 -5.6654984523333336e-16 $492 $569 forward @7 unknown #
DXID-attrib $-1 -1 $-1 $409 $324 @18 ASM_FACE_FROM_STEP @16 stp-1M-143-14423 #
truecolor-adesk-attrib $-1 -1 $570 $-1 $411 -1056964608 #
plane-surface $-1 -1 $-1 -906.24823290719155 -3319.0873841915145 747.50000000000011 -1 1.8369701987210297e-16 0 0 0 1 forward_v I I I I #
DXID-attrib $-1 -1 $-1 $413 $332 @18 ASM_EDGE_FROM_STEP @5 14374 #
truecolor-adesk-attrib $-1 -1 $571 $-1 $415 -1056964608 #
straight-curve $-1 -1 $-1 -906.24823290719155 -3319.0873841915145 770.00000000000011 0 0 1 F -7.4999999999999938 F 7.5 #
DXID-attrib $-1 -1 $-1 $419 $343 @18 ASM_FACE_FROM_STEP @16 stp-1M-143-14233 #
truecolor-adesk-attrib $-1 -1 $572 $-1 $420 -1056964608 #
face $573 -1 $-1 $534 $529 $3 $-1 $574 reversed single #
cone-surface $-1 -1 $-1 -988.24823290719155 -3321.5873841915145 762.50000000000011 1.8369701987210297e-16 1 0 -4 7.3478807948841188e-16 0 1 I I 0 1 4 forward I I I I #
coedge $-1 -1 $-1 $425 $422 $566 $575 forward $344 $-1 #
coedge $-1 -1 $-1 $422 $425 $443 $523 reversed $344 $-1 #
coedge $-1 -1 $-1 $424 $423 $422 $507 forward $278 $-1 #
edge $576 -1 $-1 $577 -2.5 $525 2.5 $506 $578 reversed @7 unknown #
coedge $-1 -1 $-1 $566 $566 $423 $509 reversed $489 $-1 #
edge $579 -1 $-1 $511 2.0943951023979146 $577 5.2359877559752084 $423 $580 forward @7 unknown #
truecolor-adesk-attrib $-1 -1 $581 $-1 $426 -1056964608 #
vertex $-1 -1 $-1 $426 $582 #
vertex $-1 -1 $-1 $444 $583 #
straight-curve $-1 -1 $-1 -934.74823290719155 -3321.5873841915145 791.07883832490006 1.8369701987210297e-16 1 0 F -2.5 F 2.5 #
truecolor-adesk-attrib $-1 -1 $584 $-1 $428 -1056964608 #
ellipse-curve $-1 -1 $-1 -932.74823290719155 -3319.0873841915145 730.45706006000012 1.8369701987210297e-16 1 0 4 -7.3478807948841188e-16 0 1 F 1.0471975512043776 F 4.1887902047816716 #
truecolor-adesk-attrib $-1 -1 $585 $-1 $430 -1056964608 #
ellipse-curve $-1 -1 $-1 -932.74823290719155 -3324.0873841915145 730.45706006000012 1.8369701987210297e-16 1 0 4 -7.3478807948841188e-16 0 1 F 1.0471975512043776 F 4.1887902047816716 #
DXID-attrib $-1 -1 $-1 $431 $350 @18 ASM_EDGE_FROM_STEP @5 14140 #
point $-1 -1 $-1 -930.74823290719155 -3319.0873841915145 726.99295844480014 #
point $-1 -1 $-1 -930.74823290719155 -3324.0873841915145 726.99295844480014 #
DXID-attrib $-1 -1 $-1 $436 $352 @18 ASM_EDGE_FROM_STEP @5 14135 #
DXID-attrib $-1 -1 $-1 $438 $354 @18 ASM_EDGE_FROM_STEP @5 14106 #
edge $586 -1 $-1 $525 -1.0471975512043776 $512 2.0943951023979146 $443 $587 forward @7 unknown #
truecolor-adesk-attrib $-1 -1 $588 $-1 $444 -1056964608 #
vertex $-1 -1 $-1 $444 $589 #
ellipse-curve $-1 -1 $-1 -932.74823290719155 -3324.0873841915145 794.54293994000011 1.8369701987210297e-16 1 0 4 -7.3478807948841188e-16 0 1 F 2.0943951023979146 F 5.2359877559752084 #
coedge $-1 -1 $-1 $561 $445 $448 $533 forward $529 $-1 #
coedge $-1 -1 $-1 $445 $561 $447 $532 reversed $529 $-1 #
loop $-1 -1 $-1 $-1 $561 $502 #
truecolor-adesk-attrib $-1 -1 $590 $-1 $446 -1056964608 #
ellipse-curve $-1 -1 $-1 -951.24823290719155 -3324.0873841915145 762.50000000000011 1.8369701987210297e-16 1 0 30 -5.5109105961630888e-15 0 1 F -5.6654984523333336e-16 F 3.1415926535897931 #
edge $591 -1 $-1 $451 -2.5 $560 2.5 $528 $592 forward @7 unknown #
edge $593 -1 $-1 $452 -2.5 $308 2.5 $527 $594 forward @7 unknown #
face $595 -1 $-1 $466 $449 $3 $-1 $596 reversed single #
DXID-attrib $-1 -1 $-1 $450 $363 @18 ASM_EDGE_FROM_STEP @5 14070 #
point $-1 -1 $-1 -981.24823290719155 -3324.0873841915145 762.50000000000011 #
point $-1 -1 $-1 -921.24823290719155 -3324.0873841915145 762.50000000000011 #
coedge $-1 -1 $-1 $455 $454 $490 $567 forward $456 $-1 #
DXID-attrib $-1 -1 $-1 $457 $365 @18 ASM_EDGE_FROM_STEP @5 14057 #
coedge $-1 -1 $-1 $490 $490 $459 $541 reversed $407 $-1 #
edge $597 -1 $-1 $543 -1.2246063538225008e-16 $546 3.1415926535897931 $459 $598 forward @7 unknown #
truecolor-adesk-attrib $-1 -1 $599 $-1 $460 -1056964608 #
vertex $-1 -1 $-1 $460 $600 #
straight-curve $-1 -1 $-1 -984.24823290719155 -3321.5873841915145 762.50000000000011 1.8369701987210297e-16 1 0 F -2.5 F 2.5 #
truecolor-adesk-attrib $-1 -1 $601 $-1 $461 -1056964608 #
vertex $-1 -1 $-1 $541 $602 #
straight-curve $-1 -1 $-1 -992.24823290719155 -3321.5873841915145 762.50000000000011 1.8369701987210297e-16 1 0 F -2.5 F 2.5 #
truecolor-adesk-attrib $-1 -1 $603 $-1 $466 -1056964608 #
cone-surface $-1 -1 $-1 -951.24823290719155 -3321.5873841915145 762.50000000000011 1.8369701987210297e-16 1 0 -45 8.2663658942446335e-15 0 1 I I 0 1 45 forward I I I I #
DXID-attrib $-1 -1 $-1 $468 $378 @18 ASM_EDGE_FROM_STEP @5 14300 #
DXID-attrib $-1 -1 $-1 $470 $380 @18 ASM_EDGE_FROM_STEP @5 14307 #
point $-1 -1 $-1 -906.24823290719155 -3319.0873841915145 762.50000000000011 #
DXID-attrib $-1 -1 $-1 $473 $381 @18 ASM_FACE_FROM_STEP @16 stp-1M-143-14343 #
truecolor-adesk-attrib $-1 -1 $604 $-1 $474 -1056964608 #
plane-surface $-1 -1 $-1 -951.24823290719155 -3319.0873841915145 762.50000000000011 1.8369701987210297e-16 1 0 -1 1.8369701987210297e-16 0 forward_v I I I I #
truecolor-adesk-attrib $-1 -1 $605 $-1 $476 -1056964608 #
ellipse-curve $-1 -1 $-1 -951.24823290719155 -3319.0873841915145 762.50000000000011 1.8369701987210297e-16 1 0 45 -8.2663658942446335e-15 0 1 F -0.33983690945406891 F -1.2246063538222224e-16 #
DXID-attrib $-1 -1 $-1 $478 $391 @18 ASM_EDGE_FROM_STEP @5 14317 #
truecolor-adesk-attrib $-1 -1 $606 $-1 $480 -1056964608 #
vertex $-1 -1 $-1 $480 $607 #
coedge $-1 -1 $-1 $528 $527 $491 $480 forward $529 $-1 #
ellipse-curve $-1 -1 $-1 -951.24823290719155 -3319.0873841915145 762.50000000000011 1.8369701987210297e-16 1 0 30 -5.5109105961630888e-15 0 1 F -5.6654984523333336e-16 F 3.1415926535897931 #
DXID-attrib $-1 -1 $-1 $481 $399 @18 ASM_EDGE_FROM_STEP @5 14369 #
DXID-attrib $-1 -1 $-1 $483 $400 @18 ASM_EDGE_FROM_STEP @5 14335 #
DXID-attrib $-1 -1 $-1 $485 $401 @18 ASM_FACE_FROM_STEP @16 stp-1M-143-14388 #
coedge $-1 -1 $-1 $508 $508 $504 $575 reversed $489 $-1 #
edge $608 -1 $-1 $546 -3.1415926535897931 $543 -1.2246063538225008e-16 $538 $609 forward @7 unknown #
truecolor-adesk-attrib $-1 -1 $610 $-1 $493 -1056964608 #
ellipse-curve $-1 -1 $-1 -951.24823290719155 -3319.0873841915145 762.50000000000011 1.8369701987210297e-16 1 0 30 -5.5109105961630888e-15 0 1 F -3.1415926535897931 F -5.6654984523333336e-16 #
DXID-attrib $-1 -1 $-1 $495 $411 @18 ASM_FACE_FROM_STEP @16 stp-1M-143-14382 #
DXID-attrib $-1 -1 $-1 $498 $415 @18 ASM_EDGE_FROM_STEP @5 14353 #
DXID-attrib $-1 -1 $-1 $501 $420 @18 ASM_FACE_FROM_STEP @16 stp-1M-143-14245 #
truecolor-adesk-attrib $-1 -1 $611 $-1 $502 -1056964608 #
cone-surface $-1 -1 $-1 -951.24823290719155 -3321.5873841915145 762.50000000000011 1.8369701987210297e-16 1 0 -30 5.5109105961630888e-15 0 1 I I 0 1 30 forward I I I I #
edge $612 -1 $-1 $577 -1.0471975512043776 $511 2.0943951023979146 $504 $613 forward @7 unknown #
truecolor-adesk-attrib $-1 -1 $614 $-1 $507 -1056964608 #
vertex $-1 -1 $-1 $509 $615 #
straight-curve $-1 -1 $-1 -930.74823290719155 -3321.5873841915145 798.00704155520009 1.8369701987210297e-16 1 0 F -2.5 F 2.5 #
truecolor-adesk-attrib $-1 -1 $616 $-1 $509 -1056964608 #
ellipse-curve $-1 -1 $-1 -932.74823290719155 -3319.0873841915145 794.54293994000011 1.8369701987210297e-16 1 0 4 -7.3478807948841188e-16 0 1 F 2.0943951023979146 F 5.2359877559752084 #
DXID-attrib $-1 -1 $-1 $510 $426 @18 ASM_EDGE_FROM_STEP @5 14171 #
point $-1 -1 $-1 -934.74823290719155 -3319.0873841915145 791.07883832490006 #
point $-1 -1 $-1 -934.74823290719155 -3324.0873841915145 791.07883832490006 #
DXID-attrib $-1 -1 $-1 $514 $428 @18 ASM_EDGE_FROM_STEP @5 14152 #
DXID-attrib $-1 -1 $-1 $516 $430 @18 ASM_EDGE_FROM_STEP @5 14111 #
truecolor-adesk-attrib $-1 -1 $617 $-1 $523 -1056964608 #
ellipse-curve $-1 -1 $-1 -932.74823290719155 -3324.0873841915145 794.54293994000011 1.8369701987210297e-16 1 0 4 -7.3478807948841188e-16 0 1 F -1.0471975512043776 F 2.0943951023979146 #
DXID-attrib $-1 -1 $-1 $524 $444 @18 ASM_EDGE_FROM_STEP @5 14088 #
point $-1 -1 $-1 -930.74823290719155 -3324.0873841915145 798.00704155520009 #
DXID-attrib $-1 -1 $-1 $530 $446 @18 ASM_EDGE_FROM_STEP @5 14075 #
truecolor-adesk-attrib $-1 -1 $618 $-1 $532 -1056964608 #
straight-curve $-1 -1 $-1 -981.24823290719155 -3321.5873841915145 762.50000000000011 1.8369701987210297e-16 1 0 F -2.5 F 2.5 #
truecolor-adesk-attrib $-1 -1 $619 $-1 $533 -1056964608 #
straight-curve $-1 -1 $-1 -921.24823290719155 -3321.5873841915145 762.50000000000011 1.8369701987210297e-16 1 0 F -2.5 F 2.5 #
truecolor-adesk-attrib $-1 -1 $620 $-1 $534 -1056964608 #
cone-surface $-1 -1 $-1 -951.24823290719155 -3321.5873841915145 762.50000000000011 1.8369701987210297e-16 1 0 -30 5.5109105961630888e-15 0 1 I I 0 1 30 forward I I I I #
truecolor-adesk-attrib $-1 -1 $621 $-1 $541 -1056964608 #
ellipse-curve $-1 -1 $-1 -988.24823290719155 -3319.0873841915145 762.50000000000011 1.8369701987210297e-16 1 0 4 -7.3478807948841188e-16 0 1 F -1.2246063538225008e-16 F 3.1415926535897931 #
DXID-attrib $-1 -1 $-1 $542 $460 @18 ASM_EDGE_FROM_STEP @5 14214 #
point $-1 -1 $-1 -984.24823290719155 -3319.0873841915145 762.50000000000011 #
DXID-attrib $-1 -1 $-1 $545 $461 @18 ASM_EDGE_FROM_STEP @5 14226 #
point $-1 -1 $-1 -992.24823290719155 -3319.0873841915145 762.50000000000011 #
DXID-attrib $-1 -1 $-1 $548 $466 @18 ASM_FACE_FROM_STEP @16 stp-1M-143-14325 #
DXID-attrib $-1 -1 $-1 $554 $474 @18 ASM_FACE_FROM_STEP @16 stp-1M-143-14359 #
DXID-attrib $-1 -1 $-1 $556 $476 @18 ASM_EDGE_FROM_STEP @5 14312 #
DXID-attrib $-1 -1 $-1 $559 $480 @18 ASM_EDGE_FROM_STEP @5 14259 #
point $-1 -1 $-1 -981.24823290719155 -3319.0873841915145 762.50000000000011 #
truecolor-adesk-attrib $-1 -1 $622 $-1 $567 -1056964608 #
ellipse-curve $-1 -1 $-1 -988.24823290719155 -3319.0873841915145 762.50000000000011 1.8369701987210297e-16 1 0 4 -7.3478807948841188e-16 0 1 F -3.1415926535897931 F -1.2246063538225008e-16 #
DXID-attrib $-1 -1 $-1 $568 $493 @18 ASM_EDGE_FROM_STEP @5 14281 #
DXID-attrib $-1 -1 $-1 $573 $502 @18 ASM_FACE_FROM_STEP @16 stp-1M-143-14276 #
truecolor-adesk-attrib $-1 -1 $623 $-1 $575 -1056964608 #
ellipse-curve $-1 -1 $-1 -932.74823290719155 -3319.0873841915145 794.54293994000011 1.8369701987210297e-16 1 0 4 -7.3478807948841188e-16 0 1 F -1.0471975512043776 F 2.0943951023979146 #
DXID-attrib $-1 -1 $-1 $576 $507 @18 ASM_EDGE_FROM_STEP @5 14183 #
point $-1 -1 $-1 -930.74823290719155 -3319.0873841915145 798.00704155520009 #
DXID-attrib $-1 -1 $-1 $579 $509 @18 ASM_EDGE_FROM_STEP @5 14178 #
DXID-attrib $-1 -1 $-1 $586 $523 @18 ASM_EDGE_FROM_STEP @5 14093 #
DXID-attrib $-1 -1 $-1 $591 $532 @18 ASM_EDGE_FROM_STEP @5 14264 #
DXID-attrib $-1 -1 $-1 $593 $533 @18 ASM_EDGE_FROM_STEP @5 14269 #
DXID-attrib $-1 -1 $-1 $595 $534 @18 ASM_FACE_FROM_STEP @16 stp-1M-143-14288 #
DXID-attrib $-1 -1 $-1 $597 $541 @18 ASM_EDGE_FROM_STEP @5 14221 #
DXID-attrib $-1 -1 $-1 $608 $567 @18 ASM_EDGE_FROM_STEP @5 14238 #
DXID-attrib $-1 -1 $-1 $612 $575 @18 ASM_EDGE_FROM_STEP @5 14195 #
