700 791 1 0         
5 ZWCAD 12 ACIS 28.0 NT 24 Mon May 13 14:02:10 2024 
1 9.9999999999999995e-07 1e-10 
body $1 -1 $-1 $2 $-1 $-1 #
DXID-attrib $-1 -1 $-1 $-1 $0 @18 ASM_BODY_FROM_STEP @83 8DE73C1BF898975D34F64AE86489A55B9345A08F|:|CC5A08BD046982A7D69008BFA3A6244EE4FF3627 #
lump $-1 -1 $-1 $-1 $3 $0 #
shell $-1 -1 $-1 $-1 $-1 $4 $-1 $2 #
face $5 -1 $-1 $6 $7 $3 $-1 $8 forward single #
truecolor-adesk-attrib $-1 -1 $9 $-1 $4 -1027014452 #
face $10 -1 $-1 $11 $12 $3 $-1 $13 forward single #
loop $-1 -1 $-1 $14 $15 $4 #
plane-surface $-1 -1 $-1 508.08007106561513 -401.59454434223812 349.456992572601 1 0 0 0 0 -1 forward_v I I I I #
color-adesk-attrib $-1 -1 $16 $5 $4 212 #
truecolor-adesk-attrib $-1 -1 $17 $-1 $6 -1027014452 #
face $18 -1 $-1 $19 $20 $3 $-1 $21 reversed single #
loop $-1 -1 $-1 $-1 $22 $6 #
plane-surface $-1 -1 $-1 747.08007106561513 -397.59454434223812 344.456992572601 0.70710678118654757 2.4532694666933982e-15 0.70710678118654757 -3.4694469519536122e-15 1 -1.7749370367472766e-30 forward_v I I I I #
loop $-1 -1 $-1 $-1 $23 $4 #
coedge $-1 -1 $-1 $24 $25 $26 $27 forward $7 $-1 #
DXID-attrib $-1 -1 $-1 $9 $4 @18 ASM_FACE_FROM_STEP @15 stp-3M-236-3128 #
color-adesk-attrib $-1 -1 $28 $10 $6 212 #
truecolor-adesk-attrib $-1 -1 $29 $-1 $11 -1027014452 #
face $30 -1 $-1 $31 $32 $3 $-1 $33 reversed single #
loop $-1 -1 $-1 $-1 $34 $11 #
plane-surface $-1 -1 $-1 731.08007106561513 -212.1635360444981 340.0000000000004 0 0 1 1 0 0 forward_v I I I I #
coedge $-1 -1 $-1 $35 $36 $37 $38 reversed $12 $-1 #
coedge $-1 -1 $-1 $23 $23 $39 $40 forward $14 $-1 #
coedge $-1 -1 $-1 $41 $15 $42 $43 forward $7 $-1 #
coedge $-1 -1 $-1 $15 $41 $44 $45 forward $7 $-1 #
coedge $-1 -1 $-1 $46 $47 $15 $27 reversed $48 $-1 #
edge $49 -1 $-1 $50 0.0010000000000000009 $51 0.060999999999999999 $15 $52 forward @7 unknown #
DXID-attrib $-1 -1 $-1 $17 $6 @18 ASM_FACE_FROM_STEP @15 stp-3M-236-3120 #
color-adesk-attrib $-1 -1 $53 $18 $11 212 #
truecolor-adesk-attrib $-1 -1 $54 $-1 $19 -1027014452 #
face $55 -1 $-1 $56 $57 $3 $-1 $58 forward single #
loop $-1 -1 $-1 $-1 $59 $19 #
cone-surface $-1 -1 $-1 731.08007106561513 -212.1635360444981 332.0000000000004 0 1 0 0 0 -8 1 I I 0 1 8 forward I I I I #
coedge $-1 -1 $-1 $60 $61 $62 $63 forward $20 $-1 #
coedge $-1 -1 $-1 $64 $22 $65 $66 reversed $12 $-1 #
coedge $-1 -1 $-1 $22 $64 $67 $68 reversed $12 $-1 #
coedge $-1 -1 $-1 $69 $70 $22 $38 forward $71 $-1 #
edge $72 -1 $-1 $73 0.16829141392239824 $74 0.17536248173426369 $22 $75 forward @7 unknown #
coedge $-1 -1 $-1 $39 $39 $23 $40 reversed $76 $-1 #
edge $77 -1 $-1 $78 -6.2831853071795862 $78 0 $23 $79 reversed @7 unknown #
coedge $-1 -1 $-1 $25 $24 $80 $81 reversed $7 $-1 #
coedge $-1 -1 $-1 $82 $83 $24 $43 reversed $84 $-1 #
edge $85 -1 $-1 $51 -0.036000000000000004 $86 0 $24 $87 forward @7 unknown #
coedge $-1 -1 $-1 $88 $89 $25 $45 reversed $90 $-1 #
edge $91 -1 $-1 $92 -0.036000000000000004 $50 0 $25 $93 reversed @7 unknown #
coedge $-1 -1 $-1 $94 $26 $89 $95 forward $48 $-1 #
coedge $-1 -1 $-1 $26 $96 $82 $97 forward $48 $-1 #
loop $-1 -1 $-1 $-1 $98 $99 #
truecolor-adesk-attrib $-1 -1 $100 $-1 $27 -1027014452 #
vertex $-1 -1 $-1 $27 $101 #
vertex $-1 -1 $-1 $27 $102 #
straight-curve $-1 -1 $-1 508.08007106561513 -401.59454434223812 349.456992572601 0 -1000 0 F 0.0010000000000000009 F 0.060999999999999999 #
DXID-attrib $-1 -1 $-1 $29 $11 @18 ASM_FACE_FROM_STEP @15 stp-3M-236-1692 #
color-adesk-attrib $-1 -1 $103 $30 $19 212 #
truecolor-adesk-attrib $-1 -1 $104 $-1 $31 -1027014452 #
face $105 -1 $-1 $106 $107 $3 $-1 $108 forward single #
loop $-1 -1 $-1 $109 $110 $31 #
plane-surface $-1 -1 $-1 747.08007106561513 -467.59454434223812 349.456992572601 0 -1 0 0 0 -1 forward_v I I I I #
coedge $-1 -1 $-1 $111 $112 $113 $114 forward $32 $-1 #
coedge $-1 -1 $-1 $115 $34 $112 $116 forward $20 $-1 #
coedge $-1 -1 $-1 $34 $115 $117 $118 reversed $20 $-1 #
coedge $-1 -1 $-1 $119 $113 $34 $63 reversed $120 $-1 #
edge $121 -1 $-1 $122 0.21260468635614932 $123 0.223 $34 $124 forward @7 unknown #
coedge $-1 -1 $-1 $36 $35 $125 $126 reversed $12 $-1 #
coedge $-1 -1 $-1 $127 $94 $35 $66 forward $48 $-1 #
edge $128 -1 $-1 $129 -0.0039999999999999992 $73 0 $35 $130 forward @7 unknown #
coedge $-1 -1 $-1 $131 $132 $36 $68 forward $107 $-1 #
edge $133 -1 $-1 $74 -0.0039999999999999992 $134 0 $36 $135 forward @7 unknown #
coedge $-1 -1 $-1 $136 $37 $132 $137 forward $71 $-1 #
coedge $-1 -1 $-1 $37 $138 $127 $139 forward $71 $-1 #
loop $-1 -1 $-1 $140 $69 $141 #
truecolor-adesk-attrib $-1 -1 $142 $-1 $38 -1027014452 #
vertex $-1 -1 $-1 $38 $143 #
vertex $-1 -1 $-1 $38 $144 #
straight-curve $-1 -1 $-1 623.08007106561513 -397.59454434223812 468.456992572601 707.10678118654801 0 -707.10678118654801 F 0.16829141392239824 F 0.17536248173426369 #
loop $-1 -1 $-1 $-1 $39 $145 #
truecolor-adesk-attrib $-1 -1 $146 $-1 $40 -1027014452 #
vertex $-1 -1 $-1 $40 $147 #
ellipse-curve $-1 -1 $-1 508.08007106561513 -432.59454434223812 331.456992572601 1 0 0 0 0 -8.5 1 I I #
coedge $-1 -1 $-1 $148 $149 $41 $81 forward $150 $-1 #
edge $151 -1 $-1 $92 0.0010000000000000009 $86 0.060999999999999999 $41 $152 forward @7 unknown #
coedge $-1 -1 $-1 $153 $42 $47 $97 reversed $84 $-1 #
coedge $-1 -1 $-1 $42 $153 $148 $154 reversed $84 $-1 #
loop $-1 -1 $-1 $-1 $82 $155 #
truecolor-adesk-attrib $-1 -1 $156 $-1 $43 -1027014452 #
vertex $-1 -1 $-1 $43 $157 #
straight-curve $-1 -1 $-1 508.08007106561513 -462.59454434223812 313.456992572601 0 0 -1000 F -0.036000000000000004 F 0 #
coedge $-1 -1 $-1 $158 $44 $149 $159 reversed $90 $-1 #
coedge $-1 -1 $-1 $44 $158 $46 $95 reversed $90 $-1 #
loop $-1 -1 $-1 $-1 $89 $160 #
truecolor-adesk-attrib $-1 -1 $161 $-1 $45 -1027014452 #
vertex $-1 -1 $-1 $81 $162 #
straight-curve $-1 -1 $-1 508.08007106561513 -402.59454434223812 349.456992572601 0 0 -1000 F 0 F 0.036000000000000004 #
coedge $-1 -1 $-1 $65 $46 $163 $164 reversed $48 $-1 #
edge $165 -1 $-1 $50 0 $166 1.5707963267948966 $46 $167 forward @7 unknown #
coedge $-1 -1 $-1 $47 $168 $169 $170 reversed $48 $-1 #
edge $171 -1 $-1 $172 -1.5707963267948966 $51 0 $47 $173 forward @7 unknown #
coedge $-1 -1 $-1 $168 $174 $175 $176 reversed $48 $-1 #
face $177 -1 $-1 $178 $48 $3 $-1 $179 reversed single #
color-adesk-attrib $-1 -1 $180 $49 $27 212 #
point $-1 -1 $-1 508.08007106561513 -402.59454434223812 349.456992572601 #
point $-1 -1 $-1 508.08007106561513 -462.59454434223812 349.456992572601 #
DXID-attrib $-1 -1 $-1 $54 $19 @18 ASM_FACE_FROM_STEP @15 stp-3M-236-3246 #
color-adesk-attrib $-1 -1 $181 $55 $31 212 #
truecolor-adesk-attrib $-1 -1 $182 $-1 $56 -1027014452 #
face $183 -1 $-1 $184 $185 $3 $-1 $186 forward single #
loop $-1 -1 $-1 $-1 $131 $56 #
plane-surface $-1 -1 $-1 747.08007106561513 -397.59454434223812 349.456992572601 1 3.4694469519536201e-15 0 -3.4694469519536201e-15 1 0 forward_v I I I I #
loop $-1 -1 $-1 $-1 $187 $31 #
coedge $-1 -1 $-1 $188 $189 $190 $191 reversed $57 $-1 #
coedge $-1 -1 $-1 $192 $59 $193 $194 forward $32 $-1 #
coedge $-1 -1 $-1 $59 $192 $60 $116 reversed $32 $-1 #
coedge $-1 -1 $-1 $62 $195 $59 $114 reversed $120 $-1 #
edge $196 -1 $-1 $123 0 $197 3.1415926535897931 $59 $198 forward @7 unknown #
coedge $-1 -1 $-1 $61 $60 $199 $200 forward $20 $-1 #
edge $201 -1 $-1 $123 0.25143100829774001 $202 0.25543100829774001 $60 $203 forward @7 unknown #
coedge $-1 -1 $-1 $204 $205 $61 $118 forward $206 $-1 #
edge $207 -1 $-1 $122 0.25143100829774001 $208 0.25543100829774001 $61 $209 forward @7 unknown #
coedge $-1 -1 $-1 $195 $62 $205 $210 reversed $120 $-1 #
loop $-1 -1 $-1 $-1 $113 $211 #
truecolor-adesk-attrib $-1 -1 $212 $-1 $63 -1027014452 #
vertex $-1 -1 $-1 $63 $213 #
vertex $-1 -1 $-1 $63 $214 #
straight-curve $-1 -1 $-1 508.08007106561513 -463.59454434223812 340.0000000000004 1000 0 0 F 0.21260468635614932 F 0.223 #
coedge $-1 -1 $-1 $163 $215 $64 $126 forward $185 $-1 #
edge $216 -1 $-1 $134 -0.0035355339059327359 $129 0.0035355339059327359 $64 $217 forward @7 unknown #
coedge $-1 -1 $-1 $218 $65 $70 $139 reversed $48 $-1 #
truecolor-adesk-attrib $-1 -1 $219 $-1 $66 -1027014452 #
vertex $-1 -1 $-1 $66 $220 #
straight-curve $-1 -1 $-1 742.08007106561513 -397.59454434223812 349.456992572601 -3.4694469519536202e-12 1000 0 F -0.0039999999999999992 F 0 #
coedge $-1 -1 $-1 $221 $67 $215 $222 forward $107 $-1 #
coedge $-1 -1 $-1 $67 $221 $69 $137 reversed $107 $-1 #
truecolor-adesk-attrib $-1 -1 $223 $-1 $68 -1027014452 #
vertex $-1 -1 $-1 $126 $224 #
straight-curve $-1 -1 $-1 747.08007106561513 -401.59454434223812 344.456992572601 3.4694469519536202e-12 -1000 0 F -0.0039999999999999992 F 0 #
coedge $-1 -1 $-1 $225 $69 $226 $227 forward $71 $-1 #
edge $228 -1 $-1 $74 0.0050000000000000001 $229 0.030999999999999899 $132 $230 forward @7 unknown #
coedge $-1 -1 $-1 $70 $225 $231 $232 forward $71 $-1 #
edge $233 -1 $-1 $234 0.0019999999999999931 $73 0.23800000000000002 $70 $235 forward @7 unknown #
loop $-1 -1 $-1 $-1 $236 $141 #
face $237 -1 $-1 $238 $71 $3 $-1 $239 forward single #
color-adesk-attrib $-1 -1 $240 $72 $38 212 #
point $-1 -1 $-1 742.08007106561513 -397.59454434223812 349.456992572601 #
point $-1 -1 $-1 747.08007106561513 -397.59454434223812 344.456992572601 #
face $241 -1 $-1 $242 $243 $3 $-1 $244 reversed single #
color-adesk-attrib $-1 -1 $245 $77 $40 212 #
point $-1 -1 $-1 508.08007106561513 -432.59454434223812 322.956992572601 #
coedge $-1 -1 $-1 $246 $80 $83 $154 forward $150 $-1 #
coedge $-1 -1 $-1 $80 $247 $88 $159 forward $150 $-1 #
loop $-1 -1 $-1 $-1 $246 $248 #
truecolor-adesk-attrib $-1 -1 $249 $-1 $81 -1027014452 #
straight-curve $-1 -1 $-1 508.08007106561513 -401.59454434223812 313.456992572601 0 -1000 0 F 0.0010000000000000009 F 0.060999999999999999 #
coedge $-1 -1 $-1 $83 $82 $250 $251 reversed $84 $-1 #
edge $252 -1 $-1 $86 0 $253 1.5707963267948966 $148 $254 reversed @7 unknown #
face $255 -1 $-1 $160 $84 $3 $-1 $256 reversed single #
color-adesk-attrib $-1 -1 $257 $85 $43 212 #
point $-1 -1 $-1 508.08007106561513 -462.59454434223812 313.456992572601 #
coedge $-1 -1 $-1 $89 $88 $258 $259 reversed $90 $-1 #
edge $260 -1 $-1 $261 -1.5707963267948966 $92 0 $149 $262 reversed @7 unknown #
face $263 -1 $-1 $264 $90 $3 $-1 $265 reversed single #
color-adesk-attrib $-1 -1 $266 $91 $45 212 #
point $-1 -1 $-1 508.08007106561513 -402.59454434223812 313.456992572601 #
coedge $-1 -1 $-1 $258 $125 $94 $164 forward $185 $-1 #
edge $267 -1 $-1 $129 0.0050000000000000001 $166 0.23800000000000002 $163 $268 forward @7 unknown #
truecolor-adesk-attrib $-1 -1 $269 $-1 $95 -1027014452 #
vertex $-1 -1 $-1 $164 $270 #
ellipse-curve $-1 -1 $-1 509.08007106561513 -402.59454434223812 349.456992572601 0 0 -1 -1 0 0 1 F 0 F 1.5707963267948966 #
coedge $-1 -1 $-1 $96 $98 $271 $272 forward $48 $-1 #
coedge $-1 -1 $-1 $273 $250 $96 $170 forward $274 $-1 #
edge $275 -1 $-1 $172 0.00099999999999999655 $276 0.23399999999999999 $96 $277 forward @7 unknown #
truecolor-adesk-attrib $-1 -1 $278 $-1 $97 -1027014452 #
vertex $-1 -1 $-1 $170 $279 #
ellipse-curve $-1 -1 $-1 509.08007106561513 -462.59454434223812 349.456992572601 0 0 -1 -1 0 0 1 F -1.5707963267948966 F 0 #
coedge $-1 -1 $-1 $98 $280 $281 $282 forward $48 $-1 #
coedge $-1 -1 $-1 $189 $283 $98 $176 forward $57 $-1 #
edge $284 -1 $-1 $285 0.0050000000000000001 $286 0.24100000000000002 $175 $287 forward @7 unknown #
truecolor-adesk-attrib $-1 -1 $288 $-1 $99 -1027014452 #
face $289 -1 $-1 $290 $291 $3 $-1 $292 forward single #
plane-surface $-1 -1 $-1 625.58007106561513 -432.59454434223812 349.456992572601 0 0 -1 -1 0 0 forward_v I I I I #
DXID-attrib $-1 -1 $-1 $100 $27 @18 ASM_EDGE_FROM_STEP @5 28449 #
DXID-attrib $-1 -1 $-1 $104 $31 @18 ASM_FACE_FROM_STEP @15 stp-3M-236-2630 #
color-adesk-attrib $-1 -1 $293 $105 $56 212 #
truecolor-adesk-attrib $-1 -1 $294 $-1 $106 -1027014452 #
face $295 -1 $-1 $248 $296 $3 $-1 $297 reversed single #
loop $-1 -1 $-1 $298 $299 $106 #
plane-surface $-1 -1 $-1 747.08007106561513 -401.59454434223812 349.456992572601 0 -1 0 0 0 -1 forward_v I I I I #
coedge $-1 -1 $-1 $300 $199 $192 $301 reversed $109 $-1 #
coedge $-1 -1 $-1 $302 $110 $303 $304 forward $57 $-1 #
coedge $-1 -1 $-1 $110 $175 $305 $306 forward $57 $-1 #
coedge $-1 -1 $-1 $307 $308 $110 $191 forward $150 $-1 #
edge $309 -1 $-1 $310 0.0050000000000000001 $311 0.24100000000000002 $110 $312 forward @7 unknown #
coedge $-1 -1 $-1 $112 $111 $187 $301 forward $32 $-1 #
coedge $-1 -1 $-1 $313 $314 $111 $194 reversed $315 $-1 #
edge $316 -1 $-1 $197 0.25143100829774001 $317 0.25543100829774001 $111 $318 forward @7 unknown #
coedge $-1 -1 $-1 $113 $119 $313 $319 reversed $120 $-1 #
truecolor-adesk-attrib $-1 -1 $320 $-1 $114 -1027014452 #
vertex $-1 -1 $-1 $114 $321 #
ellipse-curve $-1 -1 $-1 731.08007106561513 -463.59454434223812 332.0000000000004 0 1 0 0 0 8 1 F 0 F 3.1415926535897931 #
coedge $-1 -1 $-1 $187 $322 $115 $200 reversed $109 $-1 #
edge $323 -1 $-1 $202 0 $208 0.010395313643850698 $115 $324 forward @7 unknown #
truecolor-adesk-attrib $-1 -1 $325 $-1 $116 -1027014452 #
vertex $-1 -1 $-1 $116 $326 #
straight-curve $-1 -1 $-1 731.08007106561513 -212.1635360444981 340.0000000000004 0 -1000 0 F 0.25143100829774001 F 0.25543100829774001 #
coedge $-1 -1 $-1 $327 $117 $322 $328 forward $206 $-1 #
coedge $-1 -1 $-1 $117 $327 $119 $210 forward $206 $-1 #
loop $-1 -1 $-1 $-1 $205 $329 #
truecolor-adesk-attrib $-1 -1 $330 $-1 $118 -1027014452 #
vertex $-1 -1 $-1 $200 $331 #
straight-curve $-1 -1 $-1 720.6847574217644 -212.1635360444981 340.0000000000004 0 -1000 0 F 0.25143100829774001 F 0.25543100829774001 #
edge $332 -1 $-1 $333 2.2652945924214514 $122 7.159483368347928 $119 $334 forward @7 unknown #
face $335 -1 $-1 $336 $274 $3 $-1 $337 forward single #
color-adesk-attrib $-1 -1 $338 $121 $63 212 #
point $-1 -1 $-1 720.6847574217644 -463.59454434223812 340.0000000000004 #
point $-1 -1 $-1 731.08007106561513 -463.59454434223812 340.0000000000004 #
coedge $-1 -1 $-1 $125 $339 $131 $222 reversed $185 $-1 #
truecolor-adesk-attrib $-1 -1 $340 $-1 $126 -1027014452 #
straight-curve $-1 -1 $-1 744.58007106561513 -401.59454434223812 346.956992572601 -707.10678118654801 0 707.10678118654801 F -0.0035355339059327359 F 0.0035355339059327359 #
coedge $-1 -1 $-1 $280 $127 $341 $342 forward $48 $-1 #
color-adesk-attrib $-1 -1 $343 $128 $66 212 #
point $-1 -1 $-1 742.08007106561513 -401.59454434223812 349.456992572601 #
coedge $-1 -1 $-1 $132 $131 $344 $345 forward $107 $-1 #
edge $346 -1 $-1 $134 0.0050000000000000001 $347 0.031 $131 $348 forward @7 unknown #
color-adesk-attrib $-1 -1 $349 $133 $68 212 #
point $-1 -1 $-1 747.08007106561513 -401.59454434223812 344.456992572601 #
coedge $-1 -1 $-1 $138 $136 $350 $351 reversed $71 $-1 #
coedge $-1 -1 $-1 $344 $352 $136 $227 reversed $296 $-1 #
edge $353 -1 $-1 $229 -0.14990663761154807 $354 -0.14283556979968251 $226 $355 reversed @7 unknown #
truecolor-adesk-attrib $-1 -1 $356 $-1 $137 -1027014452 #
vertex $-1 -1 $-1 $345 $357 #
straight-curve $-1 -1 $-1 747.08007106561513 -397.59454434223812 349.456992572601 0 0 -1000 F 0.0050000000000000001 F 0.030999999999999899 #
coedge $-1 -1 $-1 $358 $341 $138 $232 reversed $359 $-1 #
edge $360 -1 $-1 $361 -0.036000000000000004 $234 0 $138 $362 reversed @7 unknown #
truecolor-adesk-attrib $-1 -1 $363 $-1 $139 -1027014452 #
vertex $-1 -1 $-1 $232 $364 #
straight-curve $-1 -1 $-1 504.08007106561513 -397.59454434223812 349.456992572601 1000 0 0 F 0.0019999999999999931 F 0.23800000000000002 #
coedge $-1 -1 $-1 $365 $366 $367 $368 reversed $140 $-1 #
truecolor-adesk-attrib $-1 -1 $369 $-1 $141 -1027014452 #
face $370 -1 $-1 $99 $359 $3 $-1 $371 forward single #
plane-surface $-1 -1 $-1 504.08007106561513 -397.59454434223812 349.456992572601 0 1 0 0 0 1 forward_v I I I I #
DXID-attrib $-1 -1 $-1 $142 $38 @18 ASM_EDGE_FROM_STEP @5 27491 #
truecolor-adesk-attrib $-1 -1 $372 $-1 $145 -1027014452 #
face $373 -1 $-1 $329 $315 $3 $-1 $374 reversed single #
loop $-1 -1 $-1 $76 $375 $145 #
cone-surface $-1 -1 $-1 759.51107936335507 -432.59454434223812 331.456992572601 1 0 0 0 0 8.5 1 I I 0 1 8.5 forward I I I I #
DXID-attrib $-1 -1 $-1 $146 $40 @18 ASM_EDGE_FROM_STEP @5 28451 #
coedge $-1 -1 $-1 $308 $148 $376 $377 forward $150 $-1 #
coedge $-1 -1 $-1 $149 $378 $299 $379 forward $150 $-1 #
face $380 -1 $-1 $141 $150 $3 $-1 $381 forward single #
color-adesk-attrib $-1 -1 $382 $151 $81 212 #
coedge $-1 -1 $-1 $169 $376 $153 $251 forward $274 $-1 #
edge $383 -1 $-1 $253 -0.036000000000000004 $172 0 $250 $384 reversed @7 unknown #
truecolor-adesk-attrib $-1 -1 $385 $-1 $154 -1027014452 #
vertex $-1 -1 $-1 $377 $386 #
ellipse-curve $-1 -1 $-1 509.08007106561513 -462.59454434223812 313.456992572601 0 0 -1 -1 0 0 1 F -1.5707963267948966 F 0 #
truecolor-adesk-attrib $-1 -1 $387 $-1 $155 -1027014452 #
cone-surface $-1 -1 $-1 509.08007106561513 -462.59454434223812 349.456992572601 0 0 -1 1 0 0 1 I I 0 1 1 forward I I I I #
DXID-attrib $-1 -1 $-1 $156 $43 @18 ASM_EDGE_FROM_STEP @5 27954 #
coedge $-1 -1 $-1 $299 $163 $158 $259 forward $185 $-1 #
edge $388 -1 $-1 $166 -0.036000000000000004 $261 0 $258 $389 forward @7 unknown #
truecolor-adesk-attrib $-1 -1 $390 $-1 $159 -1027014452 #
vertex $-1 -1 $-1 $379 $391 #
ellipse-curve $-1 -1 $-1 509.08007106561513 -402.59454434223812 313.456992572601 0 0 -1 -1 0 0 1 F 0 F 1.5707963267948966 #
truecolor-adesk-attrib $-1 -1 $392 $-1 $160 -1027014452 #
face $393 -1 $-1 $145 $394 $3 $-1 $395 reversed single #
cone-surface $-1 -1 $-1 509.08007106561513 -402.59454434223812 349.456992572601 0 0 -1 1 0 0 1 I I 0 1 1 forward I I I I #
DXID-attrib $-1 -1 $-1 $161 $45 @18 ASM_EDGE_FROM_STEP @5 26606 #
truecolor-adesk-attrib $-1 -1 $396 $-1 $164 -1027014452 #
straight-curve $-1 -1 $-1 747.08007106561513 -401.59454434223812 349.456992572601 -1000 0 0 F 0.0050000000000000001 F 0.23800000000000002 #
color-adesk-attrib $-1 -1 $397 $165 $95 212 #
point $-1 -1 $-1 509.08007106561513 -401.59454434223812 349.456992572601 #
coedge $-1 -1 $-1 $398 $399 $168 $272 reversed $400 $-1 #
edge $401 -1 $-1 $285 -0.0039999999999999992 $276 0 $168 $402 forward @7 unknown #
coedge $-1 -1 $-1 $403 $169 $399 $404 forward $274 $-1 #
loop $-1 -1 $-1 $120 $403 $211 #
truecolor-adesk-attrib $-1 -1 $405 $-1 $170 -1027014452 #
vertex $-1 -1 $-1 $272 $406 #
straight-curve $-1 -1 $-1 508.08007106561513 -463.59454434223812 349.456992572601 1000 0 0 F 0.00099999999999999655 F 0.23399999999999999 #
color-adesk-attrib $-1 -1 $407 $171 $97 212 #
point $-1 -1 $-1 509.08007106561513 -463.59454434223812 349.456992572601 #
coedge $-1 -1 $-1 $174 $218 $408 $409 reversed $48 $-1 #
coedge $-1 -1 $-1 $410 $305 $174 $282 reversed $411 $-1 #
edge $412 -1 $-1 $413 0 $286 1.5707963267948966 $174 $414 reversed @7 unknown #
coedge $-1 -1 $-1 $175 $302 $398 $415 forward $57 $-1 #
truecolor-adesk-attrib $-1 -1 $416 $-1 $176 -1027014452 #
vertex $-1 -1 $-1 $415 $417 #
vertex $-1 -1 $-1 $176 $418 #
straight-curve $-1 -1 $-1 747.08007106561513 -467.59454434223812 349.456992572601 -1000 0 0 F 0.0050000000000000001 F 0.24100000000000002 #
color-adesk-attrib $-1 -1 $419 $177 $99 212 #
truecolor-adesk-attrib $-1 -1 $420 $-1 $178 -1027014452 #
face $421 -1 $-1 $422 $411 $3 $-1 $423 forward single #
loop $-1 -1 $-1 $424 $408 $178 #
plane-surface $-1 -1 $-1 504.08007106561513 -467.59454434223812 349.456992572601 -1 0 0 0 0 1 forward_v I I I I #
DXID-attrib $-1 -1 $-1 $182 $56 @18 ASM_FACE_FROM_STEP @15 stp-3M-236-1652 #
color-adesk-attrib $-1 -1 $425 $183 $106 212 #
truecolor-adesk-attrib $-1 -1 $426 $-1 $184 -1027014452 #
loop $-1 -1 $-1 $-1 $226 $184 #
plane-surface $-1 -1 $-1 742.08007106561513 -432.59454434223773 313.456992572601 -0.70710678118654757 -2.4532694666933982e-15 0.70710678118654757 3.4694469519536122e-15 -1 -1.7749370367472766e-30 forward_v I I I I #
loop $-1 -1 $-1 $-1 $427 $106 #
coedge $-1 -1 $-1 $339 $258 $247 $379 reversed $185 $-1 #
coedge $-1 -1 $-1 $322 $187 $314 $428 reversed $109 $-1 #
edge $429 -1 $-1 $317 1.5707963267948966 $202 4.7123889803846897 $192 $430 forward @7 unknown #
coedge $-1 -1 $-1 $283 $188 $431 $432 reversed $57 $-1 #
coedge $-1 -1 $-1 $433 $434 $188 $304 reversed $435 $-1 #
edge $436 -1 $-1 $310 -0.028991378028648422 $437 -0.021920310216782944 $188 $438 reversed @7 unknown #
coedge $-1 -1 $-1 $281 $439 $189 $306 reversed $411 $-1 #
edge $440 -1 $-1 $286 0 $311 0.036000000000000004 $189 $441 forward @7 unknown #
coedge $-1 -1 $-1 $442 $190 $439 $443 forward $150 $-1 #
coedge $-1 -1 $-1 $190 $246 $433 $444 forward $150 $-1 #
truecolor-adesk-attrib $-1 -1 $445 $-1 $191 -1027014452 #
vertex $-1 -1 $-1 $191 $446 #
vertex $-1 -1 $-1 $191 $447 #
straight-curve $-1 -1 $-1 747.08007106561513 -467.59454434223812 313.456992572601 -1000 0 0 F 0.0050000000000000001 F 0.24100000000000002 #
coedge $-1 -1 $-1 $448 $193 $195 $319 forward $315 $-1 #
coedge $-1 -1 $-1 $193 $448 $300 $428 forward $315 $-1 #
loop $-1 -1 $-1 $-1 $313 $242 #
truecolor-adesk-attrib $-1 -1 $449 $-1 $194 -1027014452 #
vertex $-1 -1 $-1 $194 $450 #
straight-curve $-1 -1 $-1 731.08007106561513 -212.1635360444981 324.0000000000004 0 -1000 0 F 0.25143100829774001 F 0.25543100829774001 #
edge $451 -1 $-1 $197 -0.223 $333 -0.21260468635614932 $195 $452 forward @7 unknown #
color-adesk-attrib $-1 -1 $453 $196 $114 212 #
point $-1 -1 $-1 731.08007106561513 -463.59454434223812 324.0000000000004 #
coedge $-1 -1 $-1 $199 $300 $204 $328 reversed $109 $-1 #
truecolor-adesk-attrib $-1 -1 $454 $-1 $200 -1027014452 #
straight-curve $-1 -1 $-1 731.08007106561513 -467.59454434223812 340.0000000000004 -1000 0 0 F 0 F 0.010395313643850698 #
color-adesk-attrib $-1 -1 $455 $201 $116 212 #
point $-1 -1 $-1 731.08007106561513 -467.59454434223812 340.0000000000004 #
coedge $-1 -1 $-1 $205 $204 $448 $456 reversed $206 $-1 #
edge $457 -1 $-1 $208 0.69449826562655448 $458 5.5886870415530314 $322 $459 forward @7 unknown #
face $460 -1 $-1 $461 $206 $3 $-1 $462 reversed single #
color-adesk-attrib $-1 -1 $463 $207 $118 212 #
point $-1 -1 $-1 720.6847574217644 -467.59454434223812 340.0000000000004 #
truecolor-adesk-attrib $-1 -1 $464 $-1 $210 -1027014452 #
vertex $-1 -1 $-1 $210 $465 #
ellipse-curve $-1 -1 $-1 711.08007106561513 -463.59454434223812 332.0000000000004 0 1 0 0 0 12.5 1 F 2.2652945924214514 F 7.159483368347928 #
truecolor-adesk-attrib $-1 -1 $466 $-1 $211 -1027014452 #
face $467 -1 $-1 $468 $469 $3 $-1 $470 forward single #
plane-surface $-1 -1 $-1 508.08007106561513 -463.59454434223812 349.456992572601 0 1 0 0 0 1 forward_v I I I I #
DXID-attrib $-1 -1 $-1 $212 $63 @18 ASM_EDGE_FROM_STEP @5 25670 #
coedge $-1 -1 $-1 $215 $299 $471 $472 forward $185 $-1 #
color-adesk-attrib $-1 -1 $473 $216 $126 212 #
coedge $-1 -1 $-1 $231 $474 $218 $342 reversed $359 $-1 #
edge $475 -1 $-1 $234 -1.5707963267948966 $476 0 $341 $477 reversed @7 unknown #
DXID-attrib $-1 -1 $-1 $219 $66 @18 ASM_EDGE_FROM_STEP @5 28439 #
coedge $-1 -1 $-1 $471 $226 $221 $345 reversed $296 $-1 #
edge $478 -1 $-1 $347 -0.0039999999999999992 $229 0 $221 $479 forward @7 unknown #
truecolor-adesk-attrib $-1 -1 $480 $-1 $222 -1027014452 #
vertex $-1 -1 $-1 $222 $481 #
straight-curve $-1 -1 $-1 747.08007106561513 -401.59454434223812 349.456992572601 0 0 -1000 F 0.0050000000000000001 F 0.031 #
DXID-attrib $-1 -1 $-1 $223 $68 @18 ASM_EDGE_FROM_STEP @5 25550 #
coedge $-1 -1 $-1 $378 $482 $225 $351 forward $150 $-1 #
edge $483 -1 $-1 $361 0.0019999999999999931 $354 0.23800000000000002 $350 $484 forward @7 unknown #
coedge $-1 -1 $-1 $226 $471 $378 $485 reversed $296 $-1 #
truecolor-adesk-attrib $-1 -1 $486 $-1 $227 -1027014452 #
vertex $-1 -1 $-1 $227 $487 #
straight-curve $-1 -1 $-1 641.08007106561513 -397.59454434223812 212.456992572601 707.10678118654801 0 707.10678118654801 F 0.14283556979968251 F 0.14990663761154807 #
color-adesk-attrib $-1 -1 $488 $228 $137 212 #
point $-1 -1 $-1 747.08007106561513 -397.59454434223812 318.45699257260111 #
coedge $-1 -1 $-1 $474 $231 $482 $489 reversed $359 $-1 #
loop $-1 -1 $-1 $-1 $341 $238 #
truecolor-adesk-attrib $-1 -1 $490 $-1 $232 -1027014452 #
vertex $-1 -1 $-1 $489 $491 #
straight-curve $-1 -1 $-1 506.08007106561513 -397.59454434223812 349.456992572601 0 0 -1000 F 0 F 0.036000000000000004 #
color-adesk-attrib $-1 -1 $492 $233 $139 212 #
point $-1 -1 $-1 506.08007106561513 -397.59454434223812 349.456992572601 #
coedge $-1 -1 $-1 $493 $236 $494 $495 reversed $140 $-1 #
coedge $-1 -1 $-1 $236 $493 $496 $497 reversed $140 $-1 #
coedge $-1 -1 $-1 $498 $499 $236 $368 forward $394 $-1 #
edge $500 -1 $-1 $501 0 $502 3.1415926535897931 $236 $503 forward @7 unknown #
color-adesk-attrib $-1 -1 $504 $237 $141 212 #
truecolor-adesk-attrib $-1 -1 $505 $-1 $238 -1027014452 #
cone-surface $-1 -1 $-1 506.08007106561513 -399.59454434223812 349.456992572601 0 0 1 -2 0 0 1 I I 0 1 2 forward I I I I #
color-adesk-attrib $-1 -1 $506 $241 $145 212 #
truecolor-adesk-attrib $-1 -1 $507 $-1 $242 -1027014452 #
plane-surface $-1 -1 $-1 731.08007106561513 -212.1635360444981 324.0000000000004 8.3437765103074601e-17 0 -1 -1 0 -8.3437765103074601e-17 forward_v I I I I #
coedge $-1 -1 $-1 $375 $375 $508 $509 reversed $243 $-1 #
coedge $-1 -1 $-1 $250 $510 $246 $377 reversed $274 $-1 #
edge $511 -1 $-1 $253 0.00099999999999999655 $512 0.23399999999999999 $246 $513 forward @7 unknown #
coedge $-1 -1 $-1 $247 $350 $352 $485 forward $150 $-1 #
edge $514 -1 $-1 $515 0.0050000000000000001 $261 0.23800000000000002 $299 $516 forward @7 unknown #
truecolor-adesk-attrib $-1 -1 $517 $-1 $248 -1027014452 #
plane-surface $-1 -1 $-1 625.58007106561513 -432.59454434223812 313.456992572601 0 0 -1 -1 0 0 forward_v I I I I #
DXID-attrib $-1 -1 $-1 $249 $81 @18 ASM_EDGE_FROM_STEP @5 28450 #
truecolor-adesk-attrib $-1 -1 $518 $-1 $251 -1027014452 #
straight-curve $-1 -1 $-1 509.08007106561513 -463.59454434223812 349.456992572601 0 0 -1000 F 0 F 0.036000000000000004 #
color-adesk-attrib $-1 -1 $519 $252 $154 212 #
point $-1 -1 $-1 509.08007106561513 -463.59454434223812 313.456992572601 #
color-adesk-attrib $-1 -1 $520 $255 $155 212 #
truecolor-adesk-attrib $-1 -1 $521 $-1 $259 -1027014452 #
straight-curve $-1 -1 $-1 509.08007106561513 -401.59454434223812 313.456992572601 0 0 -1000 F -0.036000000000000004 F 0 #
color-adesk-attrib $-1 -1 $522 $260 $159 212 #
point $-1 -1 $-1 509.08007106561513 -401.59454434223812 313.456992572601 #
color-adesk-attrib $-1 -1 $523 $263 $160 212 #
truecolor-adesk-attrib $-1 -1 $524 $-1 $264 -1027014452 #
loop $-1 -1 $-1 $-1 $525 $264 #
cone-surface $-1 -1 $-1 731.08007106561513 -212.1635360444981 332.0000000000004 0 1 0 0 0 -8 1 I I 0 1 8 forward I I I I #
color-adesk-attrib $-1 -1 $526 $267 $164 212 #
DXID-attrib $-1 -1 $-1 $269 $95 @18 ASM_EDGE_FROM_STEP @5 26605 #
coedge $-1 -1 $-1 $527 $271 $283 $415 reversed $400 $-1 #
coedge $-1 -1 $-1 $271 $527 $273 $404 reversed $400 $-1 #
loop $-1 -1 $-1 $-1 $399 $422 #
truecolor-adesk-attrib $-1 -1 $528 $-1 $272 -1027014452 #
straight-curve $-1 -1 $-1 742.08007106561513 -463.59454434223812 349.456992572601 3.4694469519536202e-12 1000 0 F -0.0039999999999999992 F 0 #
coedge $-1 -1 $-1 $510 $273 $529 $530 forward $274 $-1 #
edge $531 -1 $-1 $276 0.16546298679765234 $532 0.17253405460951779 $399 $533 forward @7 unknown #
color-adesk-attrib $-1 -1 $534 $275 $170 212 #
point $-1 -1 $-1 742.08007106561513 -463.59454434223812 349.456992572601 #
DXID-attrib $-1 -1 $-1 $278 $97 @18 ASM_EDGE_FROM_STEP @5 27951 #
coedge $-1 -1 $-1 $535 $536 $280 $409 forward $291 $-1 #
edge $537 -1 $-1 $413 0.0019999999999999974 $476 0.068000000000000005 $280 $538 forward @7 unknown #
coedge $-1 -1 $-1 $439 $281 $536 $539 reversed $411 $-1 #
loop $-1 -1 $-1 $-1 $281 $290 #
truecolor-adesk-attrib $-1 -1 $540 $-1 $282 -1027014452 #
vertex $-1 -1 $-1 $409 $541 #
ellipse-curve $-1 -1 $-1 506.08007106561513 -465.59454434223812 349.456992572601 0 0 -1 -2 0 0 1 F -1.5707963267948966 F 0 #
edge $542 -1 $-1 $543 -0.0035355339059327368 $285 0.0035355339059327368 $283 $544 forward @7 unknown #
color-adesk-attrib $-1 -1 $545 $284 $176 212 #
point $-1 -1 $-1 742.08007106561513 -467.59454434223812 349.456992572601 #
point $-1 -1 $-1 506.08007106561513 -467.59454434223812 349.456992572601 #
DXID-attrib $-1 -1 $-1 $288 $99 @18 ASM_FACE_FROM_STEP @15 stp-3M-236-3282 #
color-adesk-attrib $-1 -1 $546 $289 $178 212 #
truecolor-adesk-attrib $-1 -1 $547 $-1 $290 -1027014452 #
face $548 -1 $-1 $211 $400 $3 $-1 $549 forward single #
cone-surface $-1 -1 $-1 506.08007106561513 -465.59454434223812 349.456992572601 0 0 1 -2 0 0 1 I I 0 1 2 forward I I I I #
loop $-1 -1 $-1 $-1 $508 $178 #
DXID-attrib $-1 -1 $-1 $294 $106 @18 ASM_FACE_FROM_STEP @15 stp-3M-236-1966 #
color-adesk-attrib $-1 -1 $550 $295 $184 212 #
coedge $-1 -1 $-1 $551 $552 $525 $553 reversed $298 $-1 #
edge $554 -1 $-1 $458 -0.010395313643850698 $317 0 $300 $555 forward @7 unknown #
truecolor-adesk-attrib $-1 -1 $556 $-1 $301 -1027014452 #
ellipse-curve $-1 -1 $-1 731.08007106561513 -467.59454434223812 332.0000000000004 0 -1 0 -8 0 0 1 F 1.5707963267948966 F 4.7123889803846897 #
coedge $-1 -1 $-1 $557 $558 $302 $432 forward $469 $-1 #
edge $559 -1 $-1 $543 0.0050000000000000001 $437 0.031 $302 $560 forward @7 unknown #
coedge $-1 -1 $-1 $561 $303 $308 $444 reversed $435 $-1 #
coedge $-1 -1 $-1 $303 $561 $557 $562 reversed $435 $-1 #
loop $-1 -1 $-1 $-1 $561 $468 #
truecolor-adesk-attrib $-1 -1 $563 $-1 $304 -1027014452 #
vertex $-1 -1 $-1 $304 $564 #
straight-curve $-1 -1 $-1 762.58007106561513 -467.59454434223812 333.95699257260094 -707.10678118654914 0 -707.10678118654619 F 0.021920310216782944 F 0.028991378028648422 #
coedge $-1 -1 $-1 $305 $410 $307 $443 reversed $411 $-1 #
truecolor-adesk-attrib $-1 -1 $565 $-1 $306 -1027014452 #
straight-curve $-1 -1 $-1 506.08007106561513 -467.59454434223812 349.456992572601 0 0 -1000 F 0 F 0.036000000000000004 #
coedge $-1 -1 $-1 $482 $307 $566 $567 forward $150 $-1 #
edge $568 -1 $-1 $311 -1.5707963267948966 $569 0 $307 $570 forward @7 unknown #
edge $571 -1 $-1 $512 0.030999999999999597 $310 0.034999999999999594 $308 $572 forward @7 unknown #
color-adesk-attrib $-1 -1 $573 $309 $191 212 #
point $-1 -1 $-1 742.08007106561513 -467.59454434223812 313.456992572601 #
point $-1 -1 $-1 506.08007106561513 -467.59454434223812 313.456992572601 #
coedge $-1 -1 $-1 $314 $313 $327 $456 forward $315 $-1 #
color-adesk-attrib $-1 -1 $574 $316 $194 212 #
point $-1 -1 $-1 731.08007106561513 -467.59454434223812 324.0000000000004 #
truecolor-adesk-attrib $-1 -1 $575 $-1 $319 -1027014452 #
straight-curve $-1 -1 $-1 508.08007106561513 -463.59454434223812 324.0000000000004 -1000 0 -8.3437765103074611e-14 F -0.223 F -0.21260468635614932 #
DXID-attrib $-1 -1 $-1 $320 $114 @18 ASM_EDGE_FROM_STEP @5 28089 #
color-adesk-attrib $-1 -1 $576 $323 $200 212 #
DXID-attrib $-1 -1 $-1 $325 $116 @18 ASM_EDGE_FROM_STEP @5 25671 #
edge $577 -1 $-1 $333 0.25143100829774001 $458 0.25543100829774001 $448 $578 forward @7 unknown #
truecolor-adesk-attrib $-1 -1 $579 $-1 $328 -1027014452 #
vertex $-1 -1 $-1 $428 $580 #
ellipse-curve $-1 -1 $-1 711.08007106561513 -467.59454434223812 332.0000000000004 0 -1 0 12.5 0 0 1 F 0.69449826562655448 F 5.5886870415530314 #
truecolor-adesk-attrib $-1 -1 $581 $-1 $329 -1027014452 #
face $582 -1 $-1 $583 $584 $3 $-1 $585 reversed single #
cone-surface $-1 -1 $-1 711.08007106561513 -212.1635360444981 332.0000000000004 0 1 0 0 0 -12.5 1 I I 0 1 12.5 forward I I I I #
DXID-attrib $-1 -1 $-1 $330 $118 @18 ASM_EDGE_FROM_STEP @5 25673 #
color-adesk-attrib $-1 -1 $586 $332 $210 212 #
point $-1 -1 $-1 720.6847574217644 -463.59454434223812 324.0000000000004 #
color-adesk-attrib $-1 -1 $587 $335 $211 212 #
truecolor-adesk-attrib $-1 -1 $588 $-1 $336 -1027014452 #
face $589 -1 $-1 $155 $435 $3 $-1 $590 reversed single #
loop $-1 -1 $-1 $-1 $431 $336 #
plane-surface $-1 -1 $-1 747.08007106561513 -463.59454434223812 349.456992572601 1 -3.4694469519536201e-15 0 3.4694469519536201e-15 1 0 forward_v I I I I #
coedge $-1 -1 $-1 $352 $344 $339 $472 reversed $296 $-1 #
edge $591 -1 $-1 $515 -0.028991378028648436 $347 -0.021920310216782965 $339 $592 reversed @7 unknown #
DXID-attrib $-1 -1 $-1 $340 $126 @18 ASM_EDGE_FROM_STEP @5 26342 #
coedge $-1 -1 $-1 $341 $358 $535 $593 reversed $359 $-1 #
truecolor-adesk-attrib $-1 -1 $594 $-1 $342 -1027014452 #
vertex $-1 -1 $-1 $342 $595 #
ellipse-curve $-1 -1 $-1 506.08007106561513 -399.59454434223812 349.456992572601 0 0 -1 -2 0 0 1 F 0 F 1.5707963267948966 #
truecolor-adesk-attrib $-1 -1 $596 $-1 $345 -1027014452 #
straight-curve $-1 -1 $-1 747.08007106561513 -397.59454434223812 318.456992572601 -3.4694469519536202e-12 1000 0 F -0.0039999999999999992 F 0 #
color-adesk-attrib $-1 -1 $597 $346 $222 212 #
point $-1 -1 $-1 747.08007106561513 -401.59454434223812 318.456992572601 #
coedge $-1 -1 $-1 $350 $442 $358 $489 forward $150 $-1 #
truecolor-adesk-attrib $-1 -1 $598 $-1 $351 -1027014452 #
straight-curve $-1 -1 $-1 504.08007106561513 -397.59454434223812 313.456992572601 1000 0 0 F 0.0019999999999999931 F 0.23800000000000002 #
edge $599 -1 $-1 $354 -0.034999999999999594 $515 -0.030999999999999597 $352 $600 forward @7 unknown #
color-adesk-attrib $-1 -1 $601 $353 $227 212 #
point $-1 -1 $-1 742.08007106561513 -397.59454434223812 313.456992572601 #
DXID-attrib $-1 -1 $-1 $356 $137 @18 ASM_EDGE_FROM_STEP @5 25549 #
edge $602 -1 $-1 $603 0 $361 1.5707963267948966 $482 $604 forward @7 unknown #
color-adesk-attrib $-1 -1 $605 $360 $232 212 #
point $-1 -1 $-1 506.08007106561513 -397.59454434223812 313.456992572601 #
DXID-attrib $-1 -1 $-1 $363 $139 @18 ASM_EDGE_FROM_STEP @5 27490 #
coedge $-1 -1 $-1 $366 $365 $606 $607 reversed $140 $-1 #
coedge $-1 -1 $-1 $608 $609 $365 $495 forward $610 $-1 #
edge $611 -1 $-1 $612 0.21660468635614932 $501 0.22700000000000004 $365 $613 forward @7 unknown #
coedge $-1 -1 $-1 $614 $615 $366 $497 forward $584 $-1 #
edge $616 -1 $-1 $502 -0.22700000000000004 $617 -0.21660468635614932 $366 $618 forward @7 unknown #
coedge $-1 -1 $-1 $525 $367 $615 $619 forward $394 $-1 #
coedge $-1 -1 $-1 $367 $525 $608 $620 reversed $394 $-1 #
truecolor-adesk-attrib $-1 -1 $621 $-1 $368 -1027014452 #
vertex $-1 -1 $-1 $368 $622 #
vertex $-1 -1 $-1 $368 $623 #
ellipse-curve $-1 -1 $-1 731.08007106561513 -397.59454434223812 332.0000000000004 0 1 0 0 0 8 1 F 0 F 3.1415926535897931 #
DXID-attrib $-1 -1 $-1 $369 $141 @18 ASM_FACE_FROM_STEP @15 stp-3M-236-2474 #
color-adesk-attrib $-1 -1 $624 $370 $238 212 #
DXID-attrib $-1 -1 $-1 $372 $145 @18 ASM_FACE_FROM_STEP @15 stp-3M-236-3522 #
color-adesk-attrib $-1 -1 $625 $373 $242 212 #
coedge $-1 -1 $-1 $508 $508 $375 $509 forward $424 $-1 #
edge $626 -1 $-1 $627 0 $627 6.2831853071795862 $508 $628 forward @7 unknown #
coedge $-1 -1 $-1 $376 $403 $561 $629 forward $274 $-1 #
truecolor-adesk-attrib $-1 -1 $630 $-1 $377 -1027014452 #
vertex $-1 -1 $-1 $377 $631 #
straight-curve $-1 -1 $-1 508.08007106561513 -463.59454434223812 313.456992572601 1000 0 0 F 0.00099999999999999655 F 0.23399999999999999 #
truecolor-adesk-attrib $-1 -1 $632 $-1 $379 -1027014452 #
vertex $-1 -1 $-1 $379 $633 #
straight-curve $-1 -1 $-1 747.08007106561513 -401.59454434223812 313.456992572601 -1000 0 0 F 0.0050000000000000001 F 0.23800000000000002 #
color-adesk-attrib $-1 -1 $634 $380 $248 212 #
color-adesk-attrib $-1 -1 $635 $383 $251 212 #
DXID-attrib $-1 -1 $-1 $385 $154 @18 ASM_EDGE_FROM_STEP @5 27953 #
DXID-attrib $-1 -1 $-1 $387 $155 @18 ASM_FACE_FROM_STEP @15 stp-3M-236-2754 #
color-adesk-attrib $-1 -1 $636 $388 $259 212 #
DXID-attrib $-1 -1 $-1 $390 $159 @18 ASM_EDGE_FROM_STEP @5 26607 #
DXID-attrib $-1 -1 $-1 $392 $160 @18 ASM_FACE_FROM_STEP @15 stp-3M-236-2082 #
color-adesk-attrib $-1 -1 $637 $393 $264 212 #
coedge $-1 -1 $-1 $499 $498 $427 $553 forward $394 $-1 #
DXID-attrib $-1 -1 $-1 $396 $164 @18 ASM_EDGE_FROM_STEP @5 26343 #
coedge $-1 -1 $-1 $399 $398 $558 $638 reversed $400 $-1 #
color-adesk-attrib $-1 -1 $639 $401 $272 212 #
coedge $-1 -1 $-1 $558 $557 $403 $530 reversed $469 $-1 #
edge $640 -1 $-1 $532 0.0050000000000000001 $641 0.031 $403 $642 forward @7 unknown #
truecolor-adesk-attrib $-1 -1 $643 $-1 $404 -1027014452 #
vertex $-1 -1 $-1 $404 $644 #
straight-curve $-1 -1 $-1 625.08007106561479 -463.59454434223812 466.456992572601 707.10678118654914 0 -707.10678118654619 F 0.16546298679765234 F 0.17253405460951779 #
DXID-attrib $-1 -1 $-1 $405 $170 @18 ASM_EDGE_FROM_STEP @5 28093 #
coedge $-1 -1 $-1 $566 $408 $474 $593 forward $291 $-1 #
coedge $-1 -1 $-1 $408 $566 $410 $539 forward $291 $-1 #
truecolor-adesk-attrib $-1 -1 $645 $-1 $409 -1027014452 #
straight-curve $-1 -1 $-1 504.08007106561513 -467.59454434223812 349.456992572601 0 1000 0 F 0.0019999999999999974 F 0.068000000000000005 #
edge $646 -1 $-1 $569 -0.036000000000000004 $413 0 $536 $647 reversed @7 unknown #
color-adesk-attrib $-1 -1 $648 $412 $282 212 #
point $-1 -1 $-1 504.08007106561513 -465.59454434223812 349.456992572601 #
truecolor-adesk-attrib $-1 -1 $649 $-1 $415 -1027014452 #
vertex $-1 -1 $-1 $432 $650 #
straight-curve $-1 -1 $-1 744.58007106561513 -467.59454434223812 346.956992572601 -707.10678118654914 0 707.10678118654619 F -0.0035355339059327368 F 0.0035355339059327368 #
DXID-attrib $-1 -1 $-1 $416 $176 @18 ASM_EDGE_FROM_STEP @5 27734 #
DXID-attrib $-1 -1 $-1 $420 $178 @18 ASM_FACE_FROM_STEP @15 stp-3M-236-3206 #
color-adesk-attrib $-1 -1 $651 $421 $290 212 #
truecolor-adesk-attrib $-1 -1 $652 $-1 $422 -1027014452 #
plane-surface $-1 -1 $-1 747.08007106561513 -463.59454434223812 344.456992572601 0.70710678118654702 -2.4532694666933899e-15 0.70710678118654802 3.4694469519536083e-15 1 -3.5498740734945531e-30 forward_v I I I I #
DXID-attrib $-1 -1 $-1 $426 $184 @18 ASM_FACE_FROM_STEP @15 stp-3M-236-2356 #
coedge $-1 -1 $-1 $653 $427 $654 $655 reversed $298 $-1 #
coedge $-1 -1 $-1 $427 $653 $656 $657 reversed $298 $-1 #
edge $658 -1 $-1 $659 0 $660 3.1415926535897931 $427 $661 forward @7 unknown #
truecolor-adesk-attrib $-1 -1 $662 $-1 $428 -1027014452 #
straight-curve $-1 -1 $-1 731.08007106561513 -467.59454434223812 324.0000000000004 1000 0 8.3437765103074611e-14 F -0.010395313643850698 F 0 #
color-adesk-attrib $-1 -1 $663 $429 $301 212 #
coedge $-1 -1 $-1 $529 $431 $434 $562 forward $469 $-1 #
coedge $-1 -1 $-1 $431 $529 $527 $638 forward $469 $-1 #
truecolor-adesk-attrib $-1 -1 $664 $-1 $432 -1027014452 #
straight-curve $-1 -1 $-1 747.08007106561513 -467.59454434223812 349.456992572601 0 0 -1000 F 0.0050000000000000001 F 0.031 #
coedge $-1 -1 $-1 $434 $433 $510 $629 reversed $435 $-1 #
edge $665 -1 $-1 $437 -0.0039999999999999992 $641 0 $557 $666 forward @7 unknown #
color-adesk-attrib $-1 -1 $667 $436 $304 212 #
point $-1 -1 $-1 747.08007106561513 -467.59454434223812 318.456992572601 #
color-adesk-attrib $-1 -1 $668 $440 $306 212 #
coedge $-1 -1 $-1 $536 $535 $442 $567 reversed $291 $-1 #
edge $669 -1 $-1 $569 0.0019999999999999974 $603 0.068000000000000005 $442 $670 forward @7 unknown #
truecolor-adesk-attrib $-1 -1 $671 $-1 $443 -1027014452 #
vertex $-1 -1 $-1 $443 $672 #
ellipse-curve $-1 -1 $-1 506.08007106561513 -465.59454434223812 313.456992572601 0 0 -1 -2 0 0 1 F -1.5707963267948966 F 0 #
truecolor-adesk-attrib $-1 -1 $673 $-1 $444 -1027014452 #
straight-curve $-1 -1 $-1 742.08007106561513 -432.59454434223852 313.456992572601 -3.4694469519536202e-12 -1000 0 F 0.030999999999999597 F 0.034999999999999594 #
DXID-attrib $-1 -1 $-1 $445 $191 @18 ASM_EDGE_FROM_STEP @5 27732 #
DXID-attrib $-1 -1 $-1 $449 $194 @18 ASM_EDGE_FROM_STEP @5 26210 #
color-adesk-attrib $-1 -1 $674 $451 $319 212 #
DXID-attrib $-1 -1 $-1 $454 $200 @18 ASM_EDGE_FROM_STEP @5 25672 #
truecolor-adesk-attrib $-1 -1 $675 $-1 $456 -1027014452 #
straight-curve $-1 -1 $-1 720.6847574217644 -212.1635360444981 324.0000000000004 0 -1000 0 F 0.25143100829774001 F 0.25543100829774001 #
color-adesk-attrib $-1 -1 $676 $457 $328 212 #
point $-1 -1 $-1 720.6847574217644 -467.59454434223812 324.0000000000004 #
color-adesk-attrib $-1 -1 $677 $460 $329 212 #
truecolor-adesk-attrib $-1 -1 $678 $-1 $461 -1027014452 #
face $679 -1 $-1 $680 $681 $3 $-1 $682 reversed single #
loop $-1 -1 $-1 $-1 $654 $461 #
plane-surface $-1 -1 $-1 731.08007106561513 -212.1635360444981 324.0000000000004 8.3437765103074601e-17 0 -1 -1 0 -8.3437765103074601e-17 forward_v I I I I #
DXID-attrib $-1 -1 $-1 $464 $210 @18 ASM_EDGE_FROM_STEP @5 28090 #
DXID-attrib $-1 -1 $-1 $466 $211 @18 ASM_FACE_FROM_STEP @15 stp-3M-236-2850 #
color-adesk-attrib $-1 -1 $683 $467 $336 212 #
truecolor-adesk-attrib $-1 -1 $684 $-1 $468 -1027014452 #
plane-surface $-1 -1 $-1 742.08007106561513 -432.59454434223852 313.456992572601 -0.70710678118654702 2.4532694666933899e-15 0.70710678118654802 -3.4694469519536083e-15 -1 -3.5498740734945531e-30 forward_v I I I I #
truecolor-adesk-attrib $-1 -1 $685 $-1 $472 -1027014452 #
straight-curve $-1 -1 $-1 762.58007106561513 -401.59454434223812 333.956992572601 -707.10678118654801 0 -707.10678118654801 F 0.021920310216782965 F 0.028991378028648436 #
edge $686 -1 $-1 $476 0 $603 0.036000000000000004 $474 $687 forward @7 unknown #
color-adesk-attrib $-1 -1 $688 $475 $342 212 #
point $-1 -1 $-1 504.08007106561513 -399.59454434223812 349.456992572601 #
color-adesk-attrib $-1 -1 $689 $478 $345 212 #
DXID-attrib $-1 -1 $-1 $480 $222 @18 ASM_EDGE_FROM_STEP @5 25547 #
color-adesk-attrib $-1 -1 $690 $483 $351 212 #
truecolor-adesk-attrib $-1 -1 $691 $-1 $485 -1027014452 #
straight-curve $-1 -1 $-1 742.08007106561513 -432.59454434223773 313.456992572601 3.4694469519536202e-12 -1000 0 F -0.034999999999999594 F -0.030999999999999597 #
DXID-attrib $-1 -1 $-1 $486 $227 @18 ASM_EDGE_FROM_STEP @5 27261 #
truecolor-adesk-attrib $-1 -1 $692 $-1 $489 -1027014452 #
vertex $-1 -1 $-1 $567 $693 #
ellipse-curve $-1 -1 $-1 506.08007106561513 -399.59454434223812 313.456992572601 0 0 -1 -2 0 0 1 F 0 F 1.5707963267948966 #
DXID-attrib $-1 -1 $-1 $490 $232 @18 ASM_EDGE_FROM_STEP @5 27489 #
coedge $-1 -1 $-1 $694 $695 $493 $607 forward $681 $-1 #
edge $696 -1 $-1 $617 2.2652945924214514 $612 7.159483368347928 $493 $697 forward @7 unknown #
coedge $-1 -1 $-1 $656 $494 $499 $620 forward $610 $-1 #
coedge $-1 -1 $-1 $494 $656 $694 $698 reversed $610 $-1 #
loop $-1 -1 $-1 $-1 $656 $680 #
truecolor-adesk-attrib $-1 -1 $699 $-1 $495 -1027014452 #
vertex $-1 -1 $-1 $495 $700 #
straight-curve $-1 -1 $-1 504.08007106561513 -397.59454434223812 340.0000000000004 1000 0 0 F 0.21660468635614932 F 0.22700000000000004 #
coedge $-1 -1 $-1 $654 $496 $695 $701 forward $584 $-1 #
coedge $-1 -1 $-1 $496 $654 $498 $619 reversed $584 $-1 #
truecolor-adesk-attrib $-1 -1 $702 $-1 $497 -1027014452 #
vertex $-1 -1 $-1 $607 $703 #
straight-curve $-1 -1 $-1 504.08007106561513 -397.59454434223812 324.0000000000004 -1000 0 -8.3437765103074611e-14 F -0.22700000000000004 F -0.21660468635614932 #
edge $704 -1 $-1 $502 0.18543100829774001 $659 0.18943100829774001 $498 $705 forward @7 unknown #
edge $706 -1 $-1 $501 0.18543100829774001 $660 0.18943100829774001 $499 $707 forward @7 unknown #
color-adesk-attrib $-1 -1 $708 $500 $368 212 #
point $-1 -1 $-1 731.08007106561513 -397.59454434223812 340.0000000000004 #
point $-1 -1 $-1 731.08007106561513 -397.59454434223812 324.0000000000004 #
DXID-attrib $-1 -1 $-1 $505 $238 @18 ASM_FACE_FROM_STEP @15 stp-3M-236-3568 #
DXID-attrib $-1 -1 $-1 $507 $242 @18 ASM_FACE_FROM_STEP @15 stp-3M-236-1906 #
truecolor-adesk-attrib $-1 -1 $709 $-1 $509 -1027014452 #
vertex $-1 -1 $-1 $509 $710 #
ellipse-curve $-1 -1 $-1 504.08007106561513 -432.59454434223812 331.456992572601 1 0 0 0 -8.5 0 1 I I #
edge $711 -1 $-1 $641 -0.147078210486802 $512 -0.14000714267493655 $510 $712 reversed @7 unknown #
color-adesk-attrib $-1 -1 $713 $511 $377 212 #
point $-1 -1 $-1 742.08007106561513 -463.59454434223812 313.456992572601 #
color-adesk-attrib $-1 -1 $714 $514 $379 212 #
point $-1 -1 $-1 742.08007106561513 -401.59454434223812 313.456992572601 #
DXID-attrib $-1 -1 $-1 $517 $248 @18 ASM_FACE_FROM_STEP @15 stp-3M-236-3544 #
DXID-attrib $-1 -1 $-1 $518 $251 @18 ASM_EDGE_FROM_STEP @5 27952 #
DXID-attrib $-1 -1 $-1 $521 $259 @18 ASM_EDGE_FROM_STEP @5 26344 #
DXID-attrib $-1 -1 $-1 $524 $264 @18 ASM_FACE_FROM_STEP @15 stp-3M-236-2014 #
edge $715 -1 $-1 $532 -0.0039999999999999992 $543 0 $527 $716 forward @7 unknown #
DXID-attrib $-1 -1 $-1 $528 $272 @18 ASM_EDGE_FROM_STEP @5 27452 #
truecolor-adesk-attrib $-1 -1 $717 $-1 $530 -1027014452 #
vertex $-1 -1 $-1 $530 $718 #
straight-curve $-1 -1 $-1 747.08007106561513 -463.59454434223812 349.456992572601 0 0 -1000 F 0.0050000000000000001 F 0.031 #
color-adesk-attrib $-1 -1 $719 $531 $404 212 #
point $-1 -1 $-1 747.08007106561513 -463.59454434223812 344.456992572601 #
color-adesk-attrib $-1 -1 $720 $537 $409 212 #
truecolor-adesk-attrib $-1 -1 $721 $-1 $539 -1027014452 #
straight-curve $-1 -1 $-1 504.08007106561513 -465.59454434223812 349.456992572601 0 0 -1000 F 0 F 0.036000000000000004 #
DXID-attrib $-1 -1 $-1 $540 $282 @18 ASM_EDGE_FROM_STEP @5 28162 #
color-adesk-attrib $-1 -1 $722 $542 $415 212 #
point $-1 -1 $-1 747.08007106561513 -467.59454434223812 344.456992572601 #
DXID-attrib $-1 -1 $-1 $547 $290 @18 ASM_FACE_FROM_STEP @15 stp-3M-236-2908 #
color-adesk-attrib $-1 -1 $723 $548 $422 212 #
coedge $-1 -1 $-1 $552 $551 $724 $725 reversed $298 $-1 #
coedge $-1 -1 $-1 $615 $614 $551 $655 forward $584 $-1 #
edge $726 -1 $-1 $727 -0.026395313643850695 $659 -0.015999999999999997 $551 $728 forward @7 unknown #
coedge $-1 -1 $-1 $609 $608 $552 $657 forward $610 $-1 #
edge $729 -1 $-1 $660 0.015999999999999997 $730 0.026395313643850695 $552 $731 forward @7 unknown #
truecolor-adesk-attrib $-1 -1 $732 $-1 $553 -1027014452 #
vertex $-1 -1 $-1 $553 $733 #
vertex $-1 -1 $-1 $553 $734 #
ellipse-curve $-1 -1 $-1 731.08007106561513 -401.59454434223812 332.0000000000004 0 -1 0 0 0 -8 1 F 0 F 3.1415926535897931 #
color-adesk-attrib $-1 -1 $735 $554 $428 212 #
DXID-attrib $-1 -1 $-1 $556 $301 @18 ASM_EDGE_FROM_STEP @5 27730 #
color-adesk-attrib $-1 -1 $736 $559 $432 212 #
truecolor-adesk-attrib $-1 -1 $737 $-1 $562 -1027014452 #
straight-curve $-1 -1 $-1 747.08007106561513 -463.59454434223812 318.456992572601 3.4694469519536202e-12 1000 0 F -0.0039999999999999992 F 0 #
DXID-attrib $-1 -1 $-1 $563 $304 @18 ASM_EDGE_FROM_STEP @5 27309 #
DXID-attrib $-1 -1 $-1 $565 $306 @18 ASM_EDGE_FROM_STEP @5 27735 #
truecolor-adesk-attrib $-1 -1 $738 $-1 $567 -1027014452 #
straight-curve $-1 -1 $-1 504.08007106561513 -467.59454434223812 313.456992572601 0 1000 0 F 0.0019999999999999974 F 0.068000000000000005 #
color-adesk-attrib $-1 -1 $739 $568 $443 212 #
point $-1 -1 $-1 504.08007106561513 -465.59454434223812 313.456992572601 #
color-adesk-attrib $-1 -1 $740 $571 $444 212 #
DXID-attrib $-1 -1 $-1 $575 $319 @18 ASM_EDGE_FROM_STEP @5 26207 #
color-adesk-attrib $-1 -1 $741 $577 $456 212 #
DXID-attrib $-1 -1 $-1 $579 $328 @18 ASM_EDGE_FROM_STEP @5 27731 #
DXID-attrib $-1 -1 $-1 $581 $329 @18 ASM_FACE_FROM_STEP @15 stp-3M-236-3100 #
color-adesk-attrib $-1 -1 $742 $582 $461 212 #
truecolor-adesk-attrib $-1 -1 $743 $-1 $583 -1027014452 #
face $744 -1 $-1 $-1 $610 $3 $-1 $745 reversed single #
loop $-1 -1 $-1 $-1 $724 $583 #
cone-surface $-1 -1 $-1 711.08007106561513 -212.1635360444981 332.0000000000004 0 1 0 0 0 -12.5 1 I I 0 1 12.5 forward I I I I #
DXID-attrib $-1 -1 $-1 $588 $336 @18 ASM_FACE_FROM_STEP @15 stp-3M-236-3674 #
color-adesk-attrib $-1 -1 $746 $589 $468 212 #
color-adesk-attrib $-1 -1 $747 $591 $472 212 #
truecolor-adesk-attrib $-1 -1 $748 $-1 $593 -1027014452 #
straight-curve $-1 -1 $-1 504.08007106561513 -399.59454434223812 349.456992572601 0 0 -1000 F 0 F 0.036000000000000004 #
DXID-attrib $-1 -1 $-1 $594 $342 @18 ASM_EDGE_FROM_STEP @5 28607 #
DXID-attrib $-1 -1 $-1 $596 $345 @18 ASM_EDGE_FROM_STEP @5 25548 #
DXID-attrib $-1 -1 $-1 $598 $351 @18 ASM_EDGE_FROM_STEP @5 27488 #
color-adesk-attrib $-1 -1 $749 $599 $485 212 #
color-adesk-attrib $-1 -1 $750 $602 $489 212 #
point $-1 -1 $-1 504.08007106561513 -399.59454434223812 313.456992572601 #
coedge $-1 -1 $-1 $724 $606 $609 $698 forward $681 $-1 #
coedge $-1 -1 $-1 $606 $724 $614 $701 reversed $681 $-1 #
truecolor-adesk-attrib $-1 -1 $751 $-1 $607 -1027014452 #
ellipse-curve $-1 -1 $-1 711.08007106561513 -397.59454434223812 332.0000000000004 0 1 0 0 0 12.5 1 F 2.2652945924214514 F 7.159483368347928 #
edge $752 -1 $-1 $612 0.18543100829774001 $730 0.18943100829774001 $694 $753 forward @7 unknown #
color-adesk-attrib $-1 -1 $754 $611 $495 212 #
point $-1 -1 $-1 720.6847574217644 -397.59454434223812 340.0000000000004 #
edge $755 -1 $-1 $617 0.18543100829774001 $727 0.18943100829774001 $614 $756 forward @7 unknown #
color-adesk-attrib $-1 -1 $757 $616 $497 212 #
point $-1 -1 $-1 720.6847574217644 -397.59454434223812 324.0000000000004 #
truecolor-adesk-attrib $-1 -1 $758 $-1 $619 -1027014452 #
straight-curve $-1 -1 $-1 731.08007106561513 -212.1635360444981 324.0000000000004 0 -1000 0 F 0.18543100829774001 F 0.18943100829774001 #
truecolor-adesk-attrib $-1 -1 $759 $-1 $620 -1027014452 #
straight-curve $-1 -1 $-1 731.08007106561513 -212.1635360444981 340.0000000000004 0 -1000 0 F 0.18543100829774001 F 0.18943100829774001 #
DXID-attrib $-1 -1 $-1 $621 $368 @18 ASM_EDGE_FROM_STEP @5 26474 #
color-adesk-attrib $-1 -1 $760 $626 $509 212 #
point $-1 -1 $-1 504.08007106561513 -441.09454434223812 331.456992572601 #
truecolor-adesk-attrib $-1 -1 $761 $-1 $629 -1027014452 #
straight-curve $-1 -1 $-1 643.0800710656149 -463.59454434223812 214.456992572601 707.10678118654914 0 707.10678118654619 F 0.14000714267493655 F 0.147078210486802 #
DXID-attrib $-1 -1 $-1 $630 $377 @18 ASM_EDGE_FROM_STEP @5 28092 #
DXID-attrib $-1 -1 $-1 $632 $379 @18 ASM_EDGE_FROM_STEP @5 26340 #
truecolor-adesk-attrib $-1 -1 $762 $-1 $638 -1027014452 #
straight-curve $-1 -1 $-1 747.08007106561513 -467.59454434223812 344.456992572601 -3.4694469519536202e-12 -1000 0 F -0.0039999999999999992 F 0 #
color-adesk-attrib $-1 -1 $763 $640 $530 212 #
point $-1 -1 $-1 747.08007106561513 -463.59454434223812 318.456992572601 #
DXID-attrib $-1 -1 $-1 $643 $404 @18 ASM_EDGE_FROM_STEP @5 27451 #
DXID-attrib $-1 -1 $-1 $645 $409 @18 ASM_EDGE_FROM_STEP @5 28523 #
color-adesk-attrib $-1 -1 $764 $646 $539 212 #
DXID-attrib $-1 -1 $-1 $649 $415 @18 ASM_EDGE_FROM_STEP @5 27453 #
DXID-attrib $-1 -1 $-1 $652 $422 @18 ASM_FACE_FROM_STEP @15 stp-3M-236-2454 #
coedge $-1 -1 $-1 $695 $694 $653 $725 forward $681 $-1 #
edge $765 -1 $-1 $730 2.2652945924214509 $727 7.159483368347928 $653 $766 forward @7 unknown #
truecolor-adesk-attrib $-1 -1 $767 $-1 $655 -1027014452 #
vertex $-1 -1 $-1 $655 $768 #
straight-curve $-1 -1 $-1 747.08007106561513 -401.59454434223812 324.0000000000004 1000 0 8.3437765103074611e-14 F -0.026395313643850695 F -0.015999999999999997 #
truecolor-adesk-attrib $-1 -1 $769 $-1 $657 -1027014452 #
vertex $-1 -1 $-1 $725 $770 #
straight-curve $-1 -1 $-1 747.08007106561513 -401.59454434223812 340.0000000000004 -1000 0 0 F 0.015999999999999997 F 0.026395313643850695 #
color-adesk-attrib $-1 -1 $771 $658 $553 212 #
point $-1 -1 $-1 731.08007106561513 -401.59454434223812 324.0000000000004 #
point $-1 -1 $-1 731.08007106561513 -401.59454434223812 340.0000000000004 #
DXID-attrib $-1 -1 $-1 $662 $428 @18 ASM_EDGE_FROM_STEP @5 26209 #
DXID-attrib $-1 -1 $-1 $664 $432 @18 ASM_EDGE_FROM_STEP @5 27733 #
color-adesk-attrib $-1 -1 $772 $665 $562 212 #
color-adesk-attrib $-1 -1 $773 $669 $567 212 #
DXID-attrib $-1 -1 $-1 $671 $443 @18 ASM_EDGE_FROM_STEP @5 28164 #
DXID-attrib $-1 -1 $-1 $673 $444 @18 ASM_EDGE_FROM_STEP @5 27310 #
DXID-attrib $-1 -1 $-1 $675 $456 @18 ASM_EDGE_FROM_STEP @5 26208 #
DXID-attrib $-1 -1 $-1 $678 $461 @18 ASM_FACE_FROM_STEP @15 stp-3M-236-2340 #
color-adesk-attrib $-1 -1 $774 $679 $583 212 #
truecolor-adesk-attrib $-1 -1 $775 $-1 $680 -1027014452 #
plane-surface $-1 -1 $-1 731.08007106561513 -212.1635360444981 340.0000000000004 0 0 1 1 0 0 forward_v I I I I #
DXID-attrib $-1 -1 $-1 $684 $468 @18 ASM_FACE_FROM_STEP @15 stp-3M-236-2378 #
DXID-attrib $-1 -1 $-1 $685 $472 @18 ASM_EDGE_FROM_STEP @5 26341 #
color-adesk-attrib $-1 -1 $776 $686 $593 212 #
DXID-attrib $-1 -1 $-1 $691 $485 @18 ASM_EDGE_FROM_STEP @5 27262 #
DXID-attrib $-1 -1 $-1 $692 $489 @18 ASM_EDGE_FROM_STEP @5 28853 #
color-adesk-attrib $-1 -1 $777 $696 $607 212 #
truecolor-adesk-attrib $-1 -1 $778 $-1 $698 -1027014452 #
straight-curve $-1 -1 $-1 720.6847574217644 -212.1635360444981 340.0000000000004 0 -1000 0 F 0.18543100829774001 F 0.18943100829774001 #
DXID-attrib $-1 -1 $-1 $699 $495 @18 ASM_EDGE_FROM_STEP @5 27487 #
truecolor-adesk-attrib $-1 -1 $779 $-1 $701 -1027014452 #
straight-curve $-1 -1 $-1 720.6847574217644 -212.1635360444981 324.0000000000004 0 -1000 0 F 0.18543100829774001 F 0.18943100829774001 #
DXID-attrib $-1 -1 $-1 $702 $497 @18 ASM_EDGE_FROM_STEP @5 27225 #
color-adesk-attrib $-1 -1 $780 $704 $619 212 #
color-adesk-attrib $-1 -1 $781 $706 $620 212 #
DXID-attrib $-1 -1 $-1 $709 $509 @18 ASM_EDGE_FROM_STEP @5 28526 #
color-adesk-attrib $-1 -1 $782 $711 $629 212 #
color-adesk-attrib $-1 -1 $783 $715 $638 212 #
DXID-attrib $-1 -1 $-1 $717 $530 @18 ASM_EDGE_FROM_STEP @5 28091 #
DXID-attrib $-1 -1 $-1 $721 $539 @18 ASM_EDGE_FROM_STEP @5 28163 #
truecolor-adesk-attrib $-1 -1 $784 $-1 $725 -1027014452 #
ellipse-curve $-1 -1 $-1 711.08007106561513 -401.59454434223812 332.0000000000004 0 -1 0 0 0 -12.5 1 F 2.2652945924214509 F 7.159483368347928 #
color-adesk-attrib $-1 -1 $785 $726 $655 212 #
point $-1 -1 $-1 720.6847574217644 -401.59454434223812 324.0000000000004 #
color-adesk-attrib $-1 -1 $786 $729 $657 212 #
point $-1 -1 $-1 720.6847574217644 -401.59454434223812 340.0000000000004 #
DXID-attrib $-1 -1 $-1 $732 $553 @18 ASM_EDGE_FROM_STEP @5 26336 #
DXID-attrib $-1 -1 $-1 $737 $562 @18 ASM_EDGE_FROM_STEP @5 27308 #
DXID-attrib $-1 -1 $-1 $738 $567 @18 ASM_EDGE_FROM_STEP @5 28525 #
DXID-attrib $-1 -1 $-1 $743 $583 @18 ASM_FACE_FROM_STEP @15 stp-3M-236-2458 #
color-adesk-attrib $-1 -1 $787 $744 $680 212 #
DXID-attrib $-1 -1 $-1 $748 $593 @18 ASM_EDGE_FROM_STEP @5 28524 #
DXID-attrib $-1 -1 $-1 $751 $607 @18 ASM_EDGE_FROM_STEP @5 27460 #
color-adesk-attrib $-1 -1 $788 $752 $698 212 #
color-adesk-attrib $-1 -1 $789 $755 $701 212 #
DXID-attrib $-1 -1 $-1 $758 $619 @18 ASM_EDGE_FROM_STEP @5 26475 #
DXID-attrib $-1 -1 $-1 $759 $620 @18 ASM_EDGE_FROM_STEP @5 26473 #
DXID-attrib $-1 -1 $-1 $761 $629 @18 ASM_EDGE_FROM_STEP @5 27307 #
DXID-attrib $-1 -1 $-1 $762 $638 @18 ASM_EDGE_FROM_STEP @5 27454 #
color-adesk-attrib $-1 -1 $790 $765 $725 212 #
DXID-attrib $-1 -1 $-1 $767 $655 @18 ASM_EDGE_FROM_STEP @5 26337 #
DXID-attrib $-1 -1 $-1 $769 $657 @18 ASM_EDGE_FROM_STEP @5 26339 #
DXID-attrib $-1 -1 $-1 $775 $680 @18 ASM_FACE_FROM_STEP @15 stp-3M-236-2554 #
DXID-attrib $-1 -1 $-1 $778 $698 @18 ASM_EDGE_FROM_STEP @5 27461 #
DXID-attrib $-1 -1 $-1 $779 $701 @18 ASM_EDGE_FROM_STEP @5 27226 #
DXID-attrib $-1 -1 $-1 $784 $725 @18 ASM_EDGE_FROM_STEP @5 26338 #
