700 446 1 0         
5 ZWCAD 12 ACIS 28.0 NT 24 Mon May 13 09:23:45 2024 
1 9.9999999999999995e-07 1e-10 
body $1 -1 $-1 $2 $-1 $-1 #
DXID-attrib $-1 -1 $-1 $-1 $0 @18 ASM_BODY_FROM_STEP @83 B510BFFC1C18622270FD5D156119B45DFABAC9F7|:|1E65E92EC6C33DF93541181E808B7116DDDA2A2D #
lump $-1 -1 $-1 $-1 $3 $0 #
shell $-1 -1 $-1 $-1 $-1 $4 $-1 $2 #
face $5 -1 $-1 $6 $7 $3 $-1 $8 forward single #
truecolor-adesk-attrib $-1 -1 $9 $-1 $4 -1025581346 #
face $10 -1 $-1 $11 $12 $3 $-1 $13 forward single #
loop $-1 -1 $-1 $-1 $14 $4 #
sphere-surface $-1 -1 $-1 23.432162295929395 -13.897857635900735 2 1 -0.70710678118654757 0 0.70710678118654757 0.57735026918962584 0.57735026918962584 0.57735026918962584 forward_v I I I I #
DXID-attrib $-1 -1 $-1 $5 $4 @18 ASM_FACE_FROM_STEP @16 stp-1M-138-10769 #
truecolor-adesk-attrib $-1 -1 $15 $-1 $6 -1025581346 #
face $16 -1 $-1 $17 $18 $3 $-1 $19 forward single #
loop $-1 -1 $-1 $-1 $20 $6 #
sphere-surface $-1 -1 $-1 23.432162295929395 -13.897857635900735 2 1 -0.70710678118654757 0 0.70710678118654757 0.57735026918962584 0.57735026918962584 0.57735026918962584 forward_v I I I I #
coedge $-1 -1 $-1 $21 $21 $20 $22 forward $7 $-1 #
DXID-attrib $-1 -1 $-1 $10 $6 @18 ASM_FACE_FROM_STEP @16 stp-1M-138-10780 #
truecolor-adesk-attrib $-1 -1 $23 $-1 $11 -1025581346 #
face $24 -1 $-1 $25 $26 $3 $-1 $27 forward single #
loop $-1 -1 $-1 $-1 $28 $11 #
cone-surface $-1 -1 $-1 23.432162295929395 -18.451796837320735 2 0 1 0 0.4794255386042035 0 0.87758256189037254 1 I I 0 1 1 forward I I I I #
coedge $-1 -1 $-1 $29 $29 $14 $22 reversed $12 $-1 #
coedge $-1 -1 $-1 $14 $14 $28 $30 forward $7 $-1 #
edge $31 -1 $-1 $32 -1.5707963267948966 $33 1.5707963267948966 $14 $34 reversed @7 unknown #
DXID-attrib $-1 -1 $-1 $16 $11 @18 ASM_FACE_FROM_STEP @16 stp-1M-138-10811 #
truecolor-adesk-attrib $-1 -1 $35 $-1 $17 -1025581346 #
face $36 -1 $-1 $37 $38 $3 $-1 $39 forward single #
loop $-1 -1 $-1 $-1 $40 $17 #
cone-surface $-1 -1 $-1 23.432162295929395 -18.451796837320735 2 0 1 0 0.4794255386042035 0 0.87758256189037254 1 I I 0 1 1 forward I I I I #
coedge $-1 -1 $-1 $41 $42 $21 $30 reversed $18 $-1 #
coedge $-1 -1 $-1 $20 $20 $40 $43 forward $12 $-1 #
edge $44 -1 $-1 $33 -2.6415926535897927 $32 0.50000000000000056 $21 $45 forward @7 unknown #
truecolor-adesk-attrib $-1 -1 $46 $-1 $22 -1025581346 #
vertex $-1 -1 $-1 $22 $47 #
vertex $-1 -1 $-1 $22 $48 #
ellipse-curve $-1 -1 $-1 23.432162295929395 -13.897857635900735 2 -0.87758256189037243 0 0.4794255386042035 0 1 0 1 F -1.5707963267948966 F 1.5707963267948966 #
DXID-attrib $-1 -1 $-1 $24 $17 @18 ASM_FACE_FROM_STEP @16 stp-1M-138-10823 #
truecolor-adesk-attrib $-1 -1 $49 $-1 $25 -1025581346 #
face $50 -1 $-1 $51 $52 $3 $-1 $53 forward single #
loop $-1 -1 $-1 $-1 $54 $25 #
cone-surface $-1 -1 $-1 23.432162295929395 -18.451796837320735 2 0 1 0 0.71913830790630529 0 1.3163738428355587 1 I I 0 1 1.5 forward I I I I #
coedge $-1 -1 $-1 $55 $56 $29 $43 reversed $26 $-1 #
coedge $-1 -1 $-1 $57 $28 $56 $58 forward $18 $-1 #
coedge $-1 -1 $-1 $28 $57 $55 $59 reversed $18 $-1 #
edge $60 -1 $-1 $32 0.50000000000000056 $33 3.6415926535897936 $29 $61 forward @7 unknown #
truecolor-adesk-attrib $-1 -1 $62 $-1 $30 -1025581346 #
ellipse-curve $-1 -1 $-1 23.432162295929395 -13.897857635900735 2 0 1 0 0 0 -1 1 F -2.6415926535897927 F 0.50000000000000056 #
DXID-attrib $-1 -1 $63 $31 $22 @18 ASM_EDGE_FROM_STEP @5 10763 #
point $-1 -1 $-1 22.952736757325393 -13.897857635900735 1.1224174381100001 #
point $-1 -1 $-1 23.911587834533396 -13.897857635900735 2.8775825618900002 #
DXID-attrib $-1 -1 $-1 $36 $25 @18 ASM_FACE_FROM_STEP @16 stp-1M-138-10863 #
truecolor-adesk-attrib $-1 -1 $64 $-1 $37 -1025581346 #
face $65 -1 $-1 $66 $67 $3 $-1 $68 forward single #
loop $-1 -1 $-1 $-1 $69 $37 #
cone-surface $-1 -1 $-1 23.432162295929395 -18.451796837320735 2 0 1 0 0.71913830790630529 0 1.3163738428355587 1 I I 0 1 1.5 forward I I I I #
coedge $-1 -1 $-1 $70 $71 $72 $73 reversed $38 $-1 #
coedge $-1 -1 $-1 $74 $40 $42 $59 forward $26 $-1 #
coedge $-1 -1 $-1 $40 $74 $41 $58 reversed $26 $-1 #
coedge $-1 -1 $-1 $42 $41 $75 $76 forward $18 $-1 #
edge $77 -1 $-1 $33 -5.4499999999999993 $78 1.0499999999999998 $41 $79 reversed @7 unknown #
edge $80 -1 $-1 $32 -5.4499999999999993 $81 1.0499999999999998 $42 $82 reversed @7 unknown #
truecolor-adesk-attrib $-1 -1 $83 $-1 $43 -1025581346 #
ellipse-curve $-1 -1 $-1 23.432162295929395 -13.897857635900735 2 0 1 0 0 0 -1 1 F 0.50000000000000056 F 3.6415926535897936 #
DXID-attrib $-1 -1 $-1 $44 $30 @18 ASM_EDGE_FROM_STEP @5 10758 #
DXID-attrib $-1 -1 $-1 $46 $22 @18 ASM_EDGE_FROM_STEP @5 10751 #
DXID-attrib $-1 -1 $-1 $50 $37 @18 ASM_FACE_FROM_STEP @16 stp-1M-138-10880 #
truecolor-adesk-attrib $-1 -1 $84 $-1 $51 -1025581346 #
face $85 -1 $-1 $86 $87 $3 $-1 $88 forward single #
loop $-1 -1 $-1 $-1 $89 $51 #
cone-surface $-1 -1 $-1 23.432162295929395 -18.451796837320735 2 0 1 0 0.4794255386042035 0 0.87758256189037254 1 I I 0 1 1 forward I I I I #
coedge $-1 -1 $-1 $90 $91 $92 $93 reversed $52 $-1 #
coedge $-1 -1 $-1 $94 $54 $91 $95 forward $38 $-1 #
coedge $-1 -1 $-1 $54 $94 $90 $96 reversed $38 $-1 #
coedge $-1 -1 $-1 $92 $92 $54 $73 forward $97 $-1 #
edge $98 -1 $-1 $99 -2.6415926535913909 $100 0.49999999999968087 $54 $101 forward @7 unknown #
coedge $-1 -1 $-1 $56 $55 $102 $103 forward $26 $-1 #
coedge $-1 -1 $-1 $102 $102 $57 $76 reversed $104 $-1 #
edge $105 -1 $-1 $78 -2.6415926535897927 $81 0.50000000000000056 $57 $106 forward @7 unknown #
truecolor-adesk-attrib $-1 -1 $107 $-1 $58 -1025581346 #
vertex $-1 -1 $-1 $58 $108 #
straight-curve $-1 -1 $-1 23.911587834533396 -19.347857635900734 2.8775825618900002 0 1 0 F -1.0499999999999998 F 5.4499999999999993 #
truecolor-adesk-attrib $-1 -1 $109 $-1 $59 -1025581346 #
vertex $-1 -1 $-1 $76 $110 #
straight-curve $-1 -1 $-1 22.952736757325393 -19.347857635900734 1.1224174381100001 0 1 0 F -1.0499999999999998 F 5.4499999999999993 #
DXID-attrib $-1 -1 $-1 $60 $43 @18 ASM_EDGE_FROM_STEP @5 10774 #
DXID-attrib $-1 -1 $-1 $65 $51 @18 ASM_FACE_FROM_STEP @16 stp-1M-138-10915 #
truecolor-adesk-attrib $-1 -1 $111 $-1 $66 -1025581346 #
face $112 -1 $-1 $113 $114 $3 $-1 $115 forward single #
loop $-1 -1 $-1 $-1 $116 $66 #
cone-surface $-1 -1 $-1 23.432162295929395 -18.451796837320735 2 0 1 0 0.4794255386042035 0 0.87758256189037254 1 I I 0 1 1 forward I I I I #
coedge $-1 -1 $-1 $117 $118 $119 $120 reversed $67 $-1 #
coedge $-1 -1 $-1 $121 $69 $71 $96 forward $52 $-1 #
coedge $-1 -1 $-1 $69 $121 $70 $95 reversed $52 $-1 #
coedge $-1 -1 $-1 $72 $72 $69 $93 forward $97 $-1 #
edge $122 -1 $-1 $100 0.49999999999968087 $99 3.6415926535881953 $69 $123 forward @7 unknown #
coedge $-1 -1 $-1 $71 $70 $124 $125 forward $38 $-1 #
edge $126 -1 $-1 $99 -0.30000000000000027 $127 0.30000000000000027 $70 $128 reversed @7 unknown #
edge $129 -1 $-1 $100 -0.30000000000000027 $130 0.30000000000000027 $71 $131 reversed @7 unknown #
loop $-1 -1 $-1 $104 $92 $132 #
truecolor-adesk-attrib $-1 -1 $133 $-1 $73 -1025581346 #
vertex $-1 -1 $-1 $73 $134 #
vertex $-1 -1 $-1 $73 $135 #
ellipse-curve $-1 -1 $-1 23.432162295929395 -20.397857635900735 2 0 1 0 0 0 -1.5 1 F -2.6415926535913909 F 0.49999999999968087 #
coedge $-1 -1 $-1 $75 $75 $74 $103 reversed $104 $-1 #
edge $136 -1 $-1 $81 0.50000000000000056 $78 3.6415926535897936 $74 $137 forward @7 unknown #
loop $-1 -1 $-1 $-1 $75 $132 #
truecolor-adesk-attrib $-1 -1 $138 $-1 $76 -1025581346 #
ellipse-curve $-1 -1 $-1 23.432162295929395 -20.397857635900735 2 0 1 0 0 0 -1 1 F -2.6415926535897927 F 0.50000000000000056 #
DXID-attrib $-1 -1 $-1 $77 $58 @18 ASM_EDGE_FROM_STEP @5 10792 #
point $-1 -1 $-1 23.911587834533396 -20.397857635900735 2.8775825618900002 #
DXID-attrib $-1 -1 $-1 $80 $59 @18 ASM_EDGE_FROM_STEP @5 10804 #
point $-1 -1 $-1 22.952736757325393 -20.397857635900735 1.1224174381100001 #
DXID-attrib $-1 -1 $-1 $85 $66 @18 ASM_FACE_FROM_STEP @16 stp-1M-138-10932 #
truecolor-adesk-attrib $-1 -1 $139 $-1 $86 -1025581346 #
face $140 -1 $-1 $141 $142 $3 $-1 $143 forward single #
loop $-1 -1 $-1 $-1 $144 $86 #
cone-surface $-1 -1 $-1 23.432162295929395 -18.451796837320735 2 0 1 0 0.59928192325525442 0 1.0969782023629655 1 I I 0 1 1.25 forward I I I I #
coedge $-1 -1 $-1 $145 $146 $147 $148 reversed $87 $-1 #
coedge $-1 -1 $-1 $149 $89 $146 $150 forward $67 $-1 #
coedge $-1 -1 $-1 $89 $149 $145 $151 reversed $67 $-1 #
coedge $-1 -1 $-1 $147 $147 $89 $120 forward $152 $-1 #
edge $153 -1 $-1 $154 -2.6415926535897927 $155 0.50000000000000056 $89 $156 forward @7 unknown #
coedge $-1 -1 $-1 $91 $90 $157 $158 forward $52 $-1 #
truecolor-adesk-attrib $-1 -1 $159 $-1 $93 -1025581346 #
ellipse-curve $-1 -1 $-1 23.432162295929395 -20.397857635900735 2 0 1 0 0 0 -1.5 1 F 0.49999999999968087 F 3.6415926535881953 #
coedge $-1 -1 $-1 $157 $157 $94 $125 reversed $160 $-1 #
edge $161 -1 $-1 $127 -2.6415926535913909 $130 0.49999999999968087 $94 $162 forward @7 unknown #
truecolor-adesk-attrib $-1 -1 $163 $-1 $95 -1025581346 #
vertex $-1 -1 $-1 $95 $164 #
straight-curve $-1 -1 $-1 24.151300603835395 -20.697857635900732 3.31637384284 0 1 0 F -0.30000000000000027 F 0.30000000000000027 #
truecolor-adesk-attrib $-1 -1 $165 $-1 $96 -1025581346 #
vertex $-1 -1 $-1 $125 $166 #
straight-curve $-1 -1 $-1 22.713023988023394 -20.697857635900732 0.68362615716399999 0 1 0 F -0.30000000000000027 F 0.30000000000000027 #
face $167 -1 $-1 $168 $97 $3 $-1 $169 forward single #
DXID-attrib $-1 -1 $-1 $98 $73 @18 ASM_EDGE_FROM_STEP @5 10837 #
point $-1 -1 $-1 24.151300603835395 -20.397857635900735 3.31637384284 #
point $-1 -1 $-1 22.713023988023394 -20.397857635900735 0.68362615716399999 #
truecolor-adesk-attrib $-1 -1 $170 $-1 $103 -1025581346 #
ellipse-curve $-1 -1 $-1 23.432162295929395 -20.397857635900735 2 0 1 0 0 0 -1 1 F 0.50000000000000056 F 3.6415926535897936 #
DXID-attrib $-1 -1 $-1 $105 $76 @18 ASM_EDGE_FROM_STEP @5 10799 #
DXID-attrib $-1 -1 $-1 $112 $86 @18 ASM_FACE_FROM_STEP @16 stp-1M-138-10972 #
truecolor-adesk-attrib $-1 -1 $171 $-1 $113 -1025581346 #
face $172 -1 $-1 $173 $174 $3 $-1 $175 forward single #
loop $-1 -1 $-1 $-1 $176 $113 #
cone-surface $-1 -1 $-1 23.432162295929395 -18.451796837320735 2 0 1 0 0.59928192325525442 0 1.0969782023629655 1 I I 0 1 1.25 forward I I I I #
coedge $-1 -1 $-1 $177 $178 $179 $180 reversed $114 $-1 #
coedge $-1 -1 $-1 $181 $116 $118 $151 forward $87 $-1 #
coedge $-1 -1 $-1 $116 $181 $117 $150 reversed $87 $-1 #
coedge $-1 -1 $-1 $119 $119 $116 $148 forward $152 $-1 #
edge $182 -1 $-1 $155 0.50000000000000056 $154 3.6415926535897936 $116 $183 forward @7 unknown #
coedge $-1 -1 $-1 $118 $117 $184 $185 forward $67 $-1 #
edge $186 -1 $-1 $154 1.6500000000000004 $187 5.4499999999999993 $117 $188 reversed @7 unknown #
edge $189 -1 $-1 $155 1.6500000000000004 $190 5.4499999999999993 $118 $191 reversed @7 unknown #
loop $-1 -1 $-1 $-1 $147 $168 #
truecolor-adesk-attrib $-1 -1 $192 $-1 $120 -1025581346 #
vertex $-1 -1 $-1 $120 $193 #
vertex $-1 -1 $-1 $120 $194 #
ellipse-curve $-1 -1 $-1 23.432162295929395 -20.997857635900736 2 0 1 0 0 0 -1 1 F -2.6415926535897927 F 0.50000000000000056 #
coedge $-1 -1 $-1 $124 $124 $121 $158 reversed $160 $-1 #
edge $195 -1 $-1 $130 0.49999999999968087 $127 3.6415926535881953 $121 $196 forward @7 unknown #
DXID-attrib $-1 -1 $-1 $122 $93 @18 ASM_EDGE_FROM_STEP @5 10868 #
loop $-1 -1 $-1 $152 $124 $168 #
truecolor-adesk-attrib $-1 -1 $197 $-1 $125 -1025581346 #
ellipse-curve $-1 -1 $-1 23.432162295929395 -20.997857635900736 2 0 1 0 0 0 -1.5 1 F -2.6415926535913909 F 0.49999999999968087 #
DXID-attrib $-1 -1 $-1 $126 $95 @18 ASM_EDGE_FROM_STEP @5 10844 #
point $-1 -1 $-1 24.151300603835395 -20.997857635900736 3.31637384284 #
DXID-attrib $-1 -1 $-1 $129 $96 @18 ASM_EDGE_FROM_STEP @5 10856 #
point $-1 -1 $-1 22.713023988023394 -20.997857635900736 0.68362615716399999 #
truecolor-adesk-attrib $-1 -1 $198 $-1 $132 -1025581346 #
face $199 -1 $-1 $200 $160 $3 $-1 $201 reversed single #
plane-surface $-1 -1 $-1 23.432162295929395 -20.397857635900735 3.0000000000000004 0 1 0 1 0 0 forward_v I I I I #
DXID-attrib $-1 -1 $-1 $136 $103 @18 ASM_EDGE_FROM_STEP @5 10816 #
DXID-attrib $-1 -1 $-1 $140 $113 @18 ASM_FACE_FROM_STEP @16 stp-1M-138-10989 #
truecolor-adesk-attrib $-1 -1 $202 $-1 $141 -1025581346 #
face $203 -1 $-1 $204 $205 $3 $-1 $206 forward single #
loop $-1 -1 $-1 $-1 $207 $141 #
torus-surface $-1 -1 $-1 23.432162295929395 -24.997857635900736 2 0 1 0 1.1499999999999999 0.10000000000000002 0.4794255386042035 0 0.87758256189037243 forward_v I I I I #
coedge $-1 -1 $-1 $208 $209 $210 $211 reversed $142 $-1 #
coedge $-1 -1 $-1 $212 $144 $209 $213 forward $114 $-1 #
coedge $-1 -1 $-1 $144 $212 $208 $214 reversed $114 $-1 #
coedge $-1 -1 $-1 $210 $210 $144 $180 forward $215 $-1 #
edge $216 -1 $-1 $217 -2.6415926535888339 $218 0.49999999999980876 $144 $219 forward @7 unknown #
coedge $-1 -1 $-1 $146 $145 $220 $221 forward $87 $-1 #
truecolor-adesk-attrib $-1 -1 $222 $-1 $148 -1025581346 #
ellipse-curve $-1 -1 $-1 23.432162295929395 -20.997857635900736 2 0 1 0 0 0 -1 1 F 0.50000000000000056 F 3.6415926535897936 #
coedge $-1 -1 $-1 $220 $220 $149 $185 reversed $223 $-1 #
edge $224 -1 $-1 $187 -2.6415926535897927 $190 0.50000000000000056 $149 $225 forward @7 unknown #
truecolor-adesk-attrib $-1 -1 $226 $-1 $150 -1025581346 #
vertex $-1 -1 $-1 $150 $227 #
straight-curve $-1 -1 $-1 23.911587834533396 -19.347857635900734 2.8775825618900002 0 1 0 F -5.4499999999999993 F -1.6500000000000004 #
truecolor-adesk-attrib $-1 -1 $228 $-1 $151 -1025581346 #
vertex $-1 -1 $-1 $185 $229 #
straight-curve $-1 -1 $-1 22.952736757325393 -19.347857635900734 1.1224174381100001 0 1 0 F -5.4499999999999993 F -1.6500000000000004 #
DXID-attrib $-1 -1 $-1 $153 $120 @18 ASM_EDGE_FROM_STEP @5 10889 #
point $-1 -1 $-1 23.911587834533396 -20.997857635900736 2.8775825618900002 #
point $-1 -1 $-1 22.952736757325393 -20.997857635900736 1.1224174381100001 #
truecolor-adesk-attrib $-1 -1 $230 $-1 $158 -1025581346 #
ellipse-curve $-1 -1 $-1 23.432162295929395 -20.997857635900736 2 0 1 0 0 0 -1.5 1 F 0.49999999999968087 F 3.6415926535881953 #
DXID-attrib $-1 -1 $-1 $161 $125 @18 ASM_EDGE_FROM_STEP @5 10851 #
DXID-attrib $-1 -1 $-1 $167 $132 @18 ASM_FACE_FROM_STEP @16 stp-1M-138-11218 #
truecolor-adesk-attrib $-1 -1 $231 $-1 $168 -1025581346 #
face $232 -1 $-1 $233 $215 $3 $-1 $234 forward single #
plane-surface $-1 -1 $-1 23.432162295929395 -20.997857635900736 3.5000000000000004 0 1 0 1 0 0 forward_v I I I I #
DXID-attrib $-1 -1 $-1 $172 $141 @18 ASM_FACE_FROM_STEP @16 stp-1M-138-11020 #
truecolor-adesk-attrib $-1 -1 $235 $-1 $173 -1025581346 #
face $236 -1 $-1 $237 $238 $3 $-1 $239 forward single #
loop $-1 -1 $-1 $-1 $240 $173 #
torus-surface $-1 -1 $-1 23.432162295929395 -24.997857635900736 2 0 1 0 1.1499999999999999 0.10000000000000002 0.4794255386042035 0 0.87758256189037243 forward_v I I I I #
coedge $-1 -1 $-1 $241 $242 $212 $243 reversed $174 $-1 #
coedge $-1 -1 $-1 $244 $176 $178 $214 forward $142 $-1 #
coedge $-1 -1 $-1 $176 $244 $177 $213 reversed $142 $-1 #
coedge $-1 -1 $-1 $179 $179 $176 $211 forward $215 $-1 #
edge $245 -1 $-1 $218 0.49999999999980876 $217 3.6415926535907523 $176 $246 forward @7 unknown #
coedge $-1 -1 $-1 $178 $177 $207 $243 forward $114 $-1 #
edge $247 -1 $-1 $217 -0.10000000000000231 $248 0.10000000000000009 $177 $249 reversed @7 unknown #
edge $250 -1 $-1 $218 -0.10000000000000231 $251 0.10000000000000009 $178 $252 reversed @7 unknown #
loop $-1 -1 $-1 $223 $210 $200 #
truecolor-adesk-attrib $-1 -1 $253 $-1 $180 -1025581346 #
vertex $-1 -1 $-1 $180 $254 #
vertex $-1 -1 $-1 $180 $255 #
ellipse-curve $-1 -1 $-1 23.432162295929395 -24.797857635900733 2 0 1 0 0 0 -1.25 1 F -2.6415926535888339 F 0.49999999999980876 #
coedge $-1 -1 $-1 $184 $184 $181 $221 reversed $223 $-1 #
edge $256 -1 $-1 $190 0.50000000000000056 $187 3.6415926535897936 $181 $257 forward @7 unknown #
DXID-attrib $-1 -1 $-1 $182 $148 @18 ASM_EDGE_FROM_STEP @5 10920 #
loop $-1 -1 $-1 $-1 $184 $200 #
truecolor-adesk-attrib $-1 -1 $258 $-1 $185 -1025581346 #
ellipse-curve $-1 -1 $-1 23.432162295929395 -24.797857635900733 2 0 1 0 0 0 -1 1 F -2.6415926535897927 F 0.50000000000000056 #
DXID-attrib $-1 -1 $-1 $186 $150 @18 ASM_EDGE_FROM_STEP @5 10896 #
point $-1 -1 $-1 23.911587834533396 -24.797857635900733 2.8775825618900002 #
DXID-attrib $-1 -1 $-1 $189 $151 @18 ASM_EDGE_FROM_STEP @5 10908 #
point $-1 -1 $-1 22.952736757325393 -24.797857635900733 1.1224174381100001 #
DXID-attrib $-1 -1 $-1 $195 $158 @18 ASM_EDGE_FROM_STEP @5 10873 #
DXID-attrib $-1 -1 $-1 $199 $168 @18 ASM_FACE_FROM_STEP @16 stp-1M-138-11232 #
truecolor-adesk-attrib $-1 -1 $259 $-1 $200 -1025581346 #
face $260 -1 $-1 $-1 $261 $3 $-1 $262 reversed single #
plane-surface $-1 -1 $-1 23.432162295929395 -24.797857635900733 3.0000000000000004 0 1 0 1 0 0 forward_v I I I I #
DXID-attrib $-1 -1 $-1 $203 $173 @18 ASM_FACE_FROM_STEP @16 stp-1M-138-11032 #
truecolor-adesk-attrib $-1 -1 $263 $-1 $204 -1025581346 #
face $264 -1 $-1 $265 $266 $3 $-1 $267 forward single #
loop $-1 -1 $-1 $-1 $268 $204 #
torus-surface $-1 -1 $-1 23.432162295929395 -24.897857635900735 2 0 1 0 0.80000000000000016 0.20000000000000004 0.4794255386042035 0 0.87758256189037243 forward_v I I I I #
coedge $-1 -1 $-1 $269 $270 $244 $271 reversed $205 $-1 #
coedge $-1 -1 $-1 $272 $207 $270 $273 forward $174 $-1 #
coedge $-1 -1 $-1 $207 $272 $269 $274 reversed $174 $-1 #
edge $275 -1 $-1 $248 -2.6415926535888339 $251 0.49999999999980876 $212 $276 forward @7 unknown #
coedge $-1 -1 $-1 $209 $208 $240 $271 forward $142 $-1 #
truecolor-adesk-attrib $-1 -1 $277 $-1 $211 -1025581346 #
ellipse-curve $-1 -1 $-1 23.432162295929395 -24.797857635900733 2 0 1 0 0 0 -1.25 1 F 0.49999999999980876 F 3.6415926535907523 #
truecolor-adesk-attrib $-1 -1 $278 $-1 $213 -1025581346 #
vertex $-1 -1 $-1 $213 $279 #
straight-curve $-1 -1 $-1 24.031444219184394 -24.897857635900735 3.0969782023599999 0 1 0 F -0.10000000000000009 F 0.10000000000000231 #
truecolor-adesk-attrib $-1 -1 $280 $-1 $214 -1025581346 #
vertex $-1 -1 $-1 $243 $281 #
straight-curve $-1 -1 $-1 22.832880372674396 -24.897857635900735 0.90302179763700008 0 1 0 F -0.10000000000000009 F 0.10000000000000231 #
DXID-attrib $-1 -1 $-1 $216 $180 @18 ASM_EDGE_FROM_STEP @5 10946 #
point $-1 -1 $-1 24.031444219184394 -24.797857635900733 3.0969782023599999 #
point $-1 -1 $-1 22.832880372674396 -24.797857635900733 0.90302179763700008 #
truecolor-adesk-attrib $-1 -1 $282 $-1 $221 -1025581346 #
ellipse-curve $-1 -1 $-1 23.432162295929395 -24.797857635900733 2 0 1 0 0 0 -1 1 F 0.50000000000000056 F 3.6415926535897936 #
DXID-attrib $-1 -1 $-1 $224 $185 @18 ASM_EDGE_FROM_STEP @5 10903 #
DXID-attrib $-1 -1 $-1 $232 $200 @18 ASM_FACE_FROM_STEP @16 stp-1M-138-11246 #
truecolor-adesk-attrib $-1 -1 $283 $-1 $233 -1025581346 #
loop $-1 -1 $-1 $284 $285 $233 #
plane-surface $-1 -1 $-1 23.432162295929395 -25.097857635900738 3.1499999999999999 0 1 0 1 0 0 forward_v I I I I #
DXID-attrib $-1 -1 $-1 $236 $204 @18 ASM_FACE_FROM_STEP @16 stp-1M-138-11072 #
truecolor-adesk-attrib $-1 -1 $286 $-1 $237 -1025581346 #
face $287 -1 $-1 $288 $289 $3 $-1 $290 reversed single #
loop $-1 -1 $-1 $-1 $291 $237 #
torus-surface $-1 -1 $-1 23.432162295929395 -24.897857635900735 2 0 1 0 0.80000000000000016 0.20000000000000004 0.4794255386042035 0 0.87758256189037243 forward_v I I I I #
coedge $-1 -1 $-1 $292 $293 $294 $295 reversed $238 $-1 #
coedge $-1 -1 $-1 $296 $240 $242 $274 forward $205 $-1 #
coedge $-1 -1 $-1 $240 $296 $241 $273 reversed $205 $-1 #
edge $297 -1 $-1 $251 0.49999999999980876 $248 3.6415926535907523 $244 $298 forward @7 unknown #
coedge $-1 -1 $-1 $242 $241 $285 $299 forward $174 $-1 #
edge $300 -1 $-1 $248 1.5707963267948966 $301 3.1415926535897931 $241 $302 reversed @7 unknown #
edge $303 -1 $-1 $251 -1.5707963267948966 $304 0 $242 $305 reversed @7 unknown #
truecolor-adesk-attrib $-1 -1 $306 $-1 $243 -1025581346 #
ellipse-curve $-1 -1 $-1 23.432162295929395 -24.997857635900736 2 0 1 0 0 0 -1.25 1 F -2.6415926535888339 F 0.49999999999980876 #
DXID-attrib $-1 -1 $-1 $245 $211 @18 ASM_EDGE_FROM_STEP @5 10977 #
DXID-attrib $-1 -1 $-1 $247 $213 @18 ASM_EDGE_FROM_STEP @5 10953 #
point $-1 -1 $-1 24.031444219184394 -24.997857635900736 3.0969782023599999 #
DXID-attrib $-1 -1 $-1 $250 $214 @18 ASM_EDGE_FROM_STEP @5 10965 #
point $-1 -1 $-1 22.832880372674396 -24.997857635900736 0.90302179763700008 #
DXID-attrib $-1 -1 $-1 $256 $221 @18 ASM_EDGE_FROM_STEP @5 10925 #
DXID-attrib $-1 -1 $-1 $260 $233 @18 ASM_FACE_FROM_STEP @16 stp-1M-138-11260 #
loop $-1 -1 $-1 $-1 $307 $233 #
coedge $-1 -1 $-1 $308 $308 $272 $299 reversed $261 $-1 #
DXID-attrib $-1 -1 $-1 $264 $237 @18 ASM_FACE_FROM_STEP @16 stp-1M-138-11089 #
truecolor-adesk-attrib $-1 -1 $309 $-1 $265 -1025581346 #
face $310 -1 $-1 $311 $312 $3 $-1 $313 reversed single #
loop $-1 -1 $-1 $-1 $314 $265 #
cone-surface $-1 -1 $-1 23.432162295929395 -18.451796837320735 2 0 1 0 0.28765532316252207 0 0.52654953713422348 1 I I 0 1 0.60000000000000009 forward I I I I #
coedge $-1 -1 $-1 $315 $316 $307 $317 reversed $266 $-1 #
coedge $-1 -1 $-1 $318 $268 $316 $319 forward $238 $-1 #
coedge $-1 -1 $-1 $268 $318 $315 $320 reversed $238 $-1 #
coedge $-1 -1 $-1 $307 $307 $268 $295 forward $284 $-1 #
edge $321 -1 $-1 $322 -2.6415926535888135 $323 0.50000000000097977 $268 $324 forward @7 unknown #
coedge $-1 -1 $-1 $270 $269 $308 $325 forward $205 $-1 #
truecolor-adesk-attrib $-1 -1 $326 $-1 $271 -1025581346 #
ellipse-curve $-1 -1 $-1 23.432162295929395 -24.997857635900736 2 0 1 0 0 0 -1.25 1 F 0.49999999999980876 F 3.6415926535907523 #
edge $327 -1 $-1 $301 -2.6415926535880283 $304 0.50000000000009737 $272 $328 forward @7 unknown #
truecolor-adesk-attrib $-1 -1 $329 $-1 $273 -1025581346 #
vertex $-1 -1 $-1 $273 $330 #
ellipse-curve $-1 -1 $-1 23.983501665324393 -24.997857635900736 3.0092199461700004 -0.87758256189037254 0 0.4794255386042035 0 0.10000000000000002 0 1 F -3.1415926535897931 F -1.5707963267948966 #
truecolor-adesk-attrib $-1 -1 $331 $-1 $274 -1025581346 #
vertex $-1 -1 $-1 $299 $332 #
ellipse-curve $-1 -1 $-1 22.880822926534396 -24.997857635900736 0.9907800538260001 0.87758256189037254 0 -0.4794255386042035 0 -0.10000000000000002 0 1 F 0 F 1.5707963267948966 #
DXID-attrib $-1 -1 $-1 $275 $243 @18 ASM_EDGE_FROM_STEP @5 10960 #
coedge $-1 -1 $-1 $294 $294 $291 $317 forward $284 $-1 #
coedge $-1 -1 $-1 $285 $285 $296 $325 reversed $261 $-1 #
DXID-attrib $-1 -1 $-1 $287 $265 @18 ASM_FACE_FROM_STEP @16 stp-1M-138-11120 #
truecolor-adesk-attrib $-1 -1 $333 $-1 $288 -1025581346 #
face $334 -1 $-1 $335 $336 $3 $-1 $337 reversed single #
loop $-1 -1 $-1 $-1 $338 $288 #
cone-surface $-1 -1 $-1 23.432162295929395 -18.451796837320735 2 0 1 0 0.28765532316252207 0 0.52654953713422348 1 I I 0 1 0.60000000000000009 forward I I I I #
coedge $-1 -1 $-1 $339 $340 $318 $341 reversed $289 $-1 #
coedge $-1 -1 $-1 $342 $291 $293 $320 forward $266 $-1 #
coedge $-1 -1 $-1 $291 $342 $292 $319 reversed $266 $-1 #
edge $343 -1 $-1 $323 0.50000000000097977 $322 3.6415926535907728 $291 $344 forward @7 unknown #
coedge $-1 -1 $-1 $293 $292 $314 $341 forward $238 $-1 #
edge $345 -1 $-1 $322 -3.1415926535897931 $346 -1.5707963267948966 $292 $347 reversed @7 unknown #
edge $348 -1 $-1 $323 0 $349 1.5707963267948966 $293 $350 reversed @7 unknown #
truecolor-adesk-attrib $-1 -1 $351 $-1 $295 -1025581346 #
vertex $-1 -1 $-1 $295 $352 #
vertex $-1 -1 $-1 $295 $353 #
ellipse-curve $-1 -1 $-1 23.432162295929395 -25.097857635900738 2 0 1 0 0 0 -0.80000000000000016 1 F -2.6415926535888135 F 0.50000000000097977 #
edge $354 -1 $-1 $304 0.50000000000009737 $301 3.6415926535915579 $296 $355 forward @7 unknown #
DXID-attrib $-1 -1 $-1 $297 $271 @18 ASM_EDGE_FROM_STEP @5 10982 #
truecolor-adesk-attrib $-1 -1 $356 $-1 $299 -1025581346 #
ellipse-curve $-1 -1 $-1 23.432162295929395 -25.097857635900738 2 0 1 0 0 0 -1.1499999999999999 1 F -2.6415926535880283 F 0.50000000000009737 #
DXID-attrib $-1 -1 $-1 $300 $273 @18 ASM_EDGE_FROM_STEP @5 11001 #
point $-1 -1 $-1 23.983501665324393 -25.097857635900738 3.0092199461700004 #
DXID-attrib $-1 -1 $-1 $303 $274 @18 ASM_EDGE_FROM_STEP @5 11013 #
point $-1 -1 $-1 22.880822926534396 -25.097857635900738 0.9907800538260001 #
DXID-attrib $-1 -1 $-1 $310 $288 @18 ASM_FACE_FROM_STEP @16 stp-1M-138-11132 #
truecolor-adesk-attrib $-1 -1 $357 $-1 $311 -1025581346 #
face $358 -1 $-1 $359 $360 $3 $-1 $361 reversed single #
loop $-1 -1 $-1 $-1 $362 $311 #
torus-surface $-1 -1 $-1 23.432162295929395 -24.172705760800735 2 0 1 0 0.5 0.10000000000000002 0.4794255386042035 0 0.87758256189037243 forward_v I I I I #
coedge $-1 -1 $-1 $363 $364 $342 $365 reversed $312 $-1 #
coedge $-1 -1 $-1 $366 $314 $364 $367 forward $289 $-1 #
coedge $-1 -1 $-1 $314 $366 $363 $368 reversed $289 $-1 #
edge $369 -1 $-1 $346 -2.6415926535857186 $349 0.50000000000407441 $318 $370 forward @7 unknown #
coedge $-1 -1 $-1 $316 $315 $338 $365 forward $266 $-1 #
truecolor-adesk-attrib $-1 -1 $371 $-1 $317 -1025581346 #
ellipse-curve $-1 -1 $-1 23.432162295929395 -25.097857635900738 2 0 1 0 0 0 -0.80000000000000016 1 F 0.50000000000097977 F 3.6415926535907728 #
truecolor-adesk-attrib $-1 -1 $372 $-1 $319 -1025581346 #
vertex $-1 -1 $-1 $319 $373 #
ellipse-curve $-1 -1 $-1 23.815702726812393 -24.897857635900735 2.70206604951 -0.87758256189037254 0 0.4794255386042035 0 0.20000000000000004 0 1 F 1.5707963267948966 F 3.1415926535897931 #
truecolor-adesk-attrib $-1 -1 $374 $-1 $320 -1025581346 #
vertex $-1 -1 $-1 $341 $375 #
ellipse-curve $-1 -1 $-1 23.048621865046396 -24.897857635900735 1.29793395049 0.87758256189037254 0 -0.4794255386042035 0 -0.20000000000000004 0 1 F -1.5707963267948966 F 0 #
DXID-attrib $-1 -1 $-1 $321 $295 @18 ASM_EDGE_FROM_STEP @5 11046 #
point $-1 -1 $-1 23.815702726812393 -25.097857635900738 2.70206604951 #
point $-1 -1 $-1 23.048621865046396 -25.097857635900738 1.29793395049 #
truecolor-adesk-attrib $-1 -1 $376 $-1 $325 -1025581346 #
ellipse-curve $-1 -1 $-1 23.432162295929395 -25.097857635900738 2 0 1 0 0 0 -1.1499999999999999 1 F 0.50000000000009737 F 3.6415926535915579 #
DXID-attrib $-1 -1 $-1 $327 $299 @18 ASM_EDGE_FROM_STEP @5 11008 #
DXID-attrib $-1 -1 $-1 $334 $311 @18 ASM_FACE_FROM_STEP @16 stp-1M-138-11163 #
truecolor-adesk-attrib $-1 -1 $377 $-1 $335 -1025581346 #
face $378 -1 $-1 $379 $380 $3 $-1 $381 reversed single #
loop $-1 -1 $-1 $-1 $382 $335 #
torus-surface $-1 -1 $-1 23.432162295929395 -24.172705760800735 2 0 1 0 0.5 0.10000000000000002 0.4794255386042035 0 0.87758256189037243 forward_v I I I I #
coedge $-1 -1 $-1 $383 $384 $366 $385 reversed $336 $-1 #
coedge $-1 -1 $-1 $386 $338 $340 $368 forward $312 $-1 #
coedge $-1 -1 $-1 $338 $386 $339 $367 reversed $312 $-1 #
edge $387 -1 $-1 $349 0.50000000000407441 $346 3.6415926535938676 $342 $388 forward @7 unknown #
coedge $-1 -1 $-1 $340 $339 $362 $385 forward $289 $-1 #
edge $389 -1 $-1 $346 -0.3625759376000004 $390 0.36257593750000039 $339 $391 forward @7 unknown #
edge $392 -1 $-1 $349 -0.3625759376000004 $393 0.36257593750000039 $340 $394 forward @7 unknown #
truecolor-adesk-attrib $-1 -1 $395 $-1 $341 -1025581346 #
ellipse-curve $-1 -1 $-1 23.432162295929395 -24.897857635900735 2 0 1 0 0 0 -0.59999999999999998 1 F -2.6415926535857186 F 0.50000000000407441 #
DXID-attrib $-1 -1 $-1 $343 $317 @18 ASM_EDGE_FROM_STEP @5 11077 #
DXID-attrib $-1 -1 $-1 $345 $319 @18 ASM_EDGE_FROM_STEP @5 11053 #
point $-1 -1 $-1 23.719817619092396 -24.897857635900735 2.5265495371300002 #
DXID-attrib $-1 -1 $-1 $348 $320 @18 ASM_EDGE_FROM_STEP @5 11065 #
point $-1 -1 $-1 23.144506972766393 -24.897857635900735 1.4734504628700003 #
DXID-attrib $-1 -1 $-1 $354 $325 @18 ASM_EDGE_FROM_STEP @5 11025 #
DXID-attrib $-1 -1 $-1 $358 $335 @18 ASM_FACE_FROM_STEP @16 stp-1M-138-11175 #
truecolor-adesk-attrib $-1 -1 $396 $-1 $359 -1025581346 #
face $397 -1 $-1 $132 $398 $3 $-1 $399 reversed single #
loop $-1 -1 $-1 $-1 $400 $359 #
sphere-surface $-1 -1 $-1 23.432162295929395 -26.005736038700736 2 2 1 0 0 0 0 1 forward_v I I I I #
coedge $-1 -1 $-1 $401 $402 $386 $403 reversed $360 $-1 #
coedge $-1 -1 $-1 $404 $362 $402 $405 forward $336 $-1 #
coedge $-1 -1 $-1 $362 $404 $401 $406 reversed $336 $-1 #
edge $407 -1 $-1 $390 -2.6415926535857186 $393 0.50000000000407441 $366 $408 forward @7 unknown #
coedge $-1 -1 $-1 $364 $363 $382 $403 forward $312 $-1 #
truecolor-adesk-attrib $-1 -1 $409 $-1 $365 -1025581346 #
ellipse-curve $-1 -1 $-1 23.432162295929395 -24.897857635900735 2 0 1 0 0 0 -0.59999999999999998 1 F 0.50000000000407441 F 3.6415926535938676 #
truecolor-adesk-attrib $-1 -1 $410 $-1 $367 -1025581346 #
vertex $-1 -1 $-1 $367 $411 #
straight-curve $-1 -1 $-1 23.719817619092396 -24.535281698300736 2.5265495371300002 0 1 0 F -0.3625759376000004 F 0.36257593750000039 #
truecolor-adesk-attrib $-1 -1 $412 $-1 $368 -1025581346 #
vertex $-1 -1 $-1 $385 $413 #
straight-curve $-1 -1 $-1 23.144506972766393 -24.535281698300736 1.4734504628700003 0 1 0 F -0.3625759376000004 F 0.36257593750000039 #
DXID-attrib $-1 -1 $-1 $369 $341 @18 ASM_EDGE_FROM_STEP @5 11060 #
DXID-attrib $-1 -1 $-1 $378 $359 @18 ASM_FACE_FROM_STEP @16 stp-1M-138-11198 #
truecolor-adesk-attrib $-1 -1 $414 $-1 $379 -1025581346 #
loop $-1 -1 $-1 $-1 $415 $379 #
sphere-surface $-1 -1 $-1 23.432162295929395 -26.005736038700736 2 2 1 0 0 0 0 1 forward_v I I I I #
coedge $-1 -1 $-1 $416 $416 $404 $417 reversed $380 $-1 #
coedge $-1 -1 $-1 $418 $382 $384 $406 forward $360 $-1 #
coedge $-1 -1 $-1 $382 $418 $383 $405 reversed $360 $-1 #
edge $419 -1 $-1 $393 0.50000000000407441 $390 3.6415926535938676 $386 $420 forward @7 unknown #
coedge $-1 -1 $-1 $384 $383 $400 $417 forward $336 $-1 #
edge $421 -1 $-1 $390 -1.5707963267948966 $422 -0.26629401704907724 $383 $423 forward @7 unknown #
edge $424 -1 $-1 $393 1.5707963267948966 $425 2.875298636540716 $384 $426 forward @7 unknown #
truecolor-adesk-attrib $-1 -1 $427 $-1 $385 -1025581346 #
ellipse-curve $-1 -1 $-1 23.432162295929395 -24.172705760800735 2 0 1 0 0 0 -0.59999999999999998 1 F -2.6415926535857186 F 0.50000000000407441 #
DXID-attrib $-1 -1 $-1 $387 $365 @18 ASM_EDGE_FROM_STEP @5 11082 #
DXID-attrib $-1 -1 $-1 $389 $367 @18 ASM_EDGE_FROM_STEP @5 11101 #
point $-1 -1 $-1 23.719817619092396 -24.172705760800735 2.5265495371300002 #
DXID-attrib $-1 -1 $-1 $392 $368 @18 ASM_EDGE_FROM_STEP @5 11113 #
point $-1 -1 $-1 23.144506972766393 -24.172705760800735 1.4734504628700003 #
DXID-attrib $-1 -1 $-1 $397 $379 @18 ASM_FACE_FROM_STEP @16 stp-1M-138-11204 #
coedge $-1 -1 $-1 $428 $428 $418 $429 reversed $398 $-1 #
coedge $-1 -1 $-1 $400 $400 $428 $430 forward $380 $-1 #
edge $431 -1 $-1 $422 -2.6415926535906231 $425 0.49999999999917005 $404 $432 forward @7 unknown #
coedge $-1 -1 $-1 $402 $401 $415 $429 forward $360 $-1 #
truecolor-adesk-attrib $-1 -1 $433 $-1 $403 -1025581346 #
ellipse-curve $-1 -1 $-1 23.432162295929395 -24.172705760800735 2 0 1 0 0 0 -0.59999999999999998 1 F 0.50000000000407441 F 3.6415926535938676 #
truecolor-adesk-attrib $-1 -1 $434 $-1 $405 -1025581346 #
vertex $-1 -1 $-1 $405 $435 #
ellipse-curve $-1 -1 $-1 23.671875065231394 -24.172705760800735 2.4387912809500003 -0.87758256189037254 0 0.4794255386042035 0 0.10000000000000002 0 1 F -1.5707963267948966 F -0.26629401704907724 #
truecolor-adesk-attrib $-1 -1 $436 $-1 $406 -1025581346 #
vertex $-1 -1 $-1 $417 $437 #
ellipse-curve $-1 -1 $-1 23.192449526627396 -24.172705760800735 1.5612087190500001 0.87758256189037254 0 -0.4794255386042035 0 -0.10000000000000002 0 1 F 1.5707963267948966 F 2.875298636540716 #
DXID-attrib $-1 -1 $-1 $407 $385 @18 ASM_EDGE_FROM_STEP @5 11108 #
coedge $-1 -1 $-1 $415 $415 $416 $430 reversed $398 $-1 #
edge $438 -1 $-1 $425 0.49999999999917005 $422 3.6415926535889631 $418 $439 forward @7 unknown #
edge $440 -1 $-1 $422 -0.26629401712757544 $425 0.26629401712757517 $416 $441 forward @7 unknown #
truecolor-adesk-attrib $-1 -1 $442 $-1 $417 -1025581346 #
ellipse-curve $-1 -1 $-1 23.432162295929395 -24.076230483000735 2 0 1 0 0 0 -0.52631578947400004 1 F -2.6415926535906231 F 0.49999999999917005 #
DXID-attrib $-1 -1 $-1 $419 $403 @18 ASM_EDGE_FROM_STEP @5 11125 #
DXID-attrib $-1 -1 $-1 $421 $405 @18 ASM_EDGE_FROM_STEP @5 11144 #
point $-1 -1 $-1 23.684491526773396 -24.076230483000735 2.4618855588900002 #
DXID-attrib $-1 -1 $-1 $424 $406 @18 ASM_EDGE_FROM_STEP @5 11156 #
point $-1 -1 $-1 23.179833065085393 -24.076230483000735 1.5381144411100001 #
truecolor-adesk-attrib $-1 -1 $443 $-1 $429 -1025581346 #
ellipse-curve $-1 -1 $-1 23.432162295929395 -24.076230483000735 2 0 1 0 0 0 -0.52631578947400004 1 F 0.49999999999917005 F 3.6415926535889631 #
truecolor-adesk-attrib $-1 -1 $444 $-1 $430 -1025581346 #
ellipse-curve $-1 -1 $-1 23.432162295929395 -26.005736038700736 2 -0.87758256189037243 0 0.4794255386042035 0 2 0 1 F -0.26629401712757544 F 0.26629401712757517 #
DXID-attrib $-1 -1 $-1 $431 $417 @18 ASM_EDGE_FROM_STEP @5 11151 #
DXID-attrib $-1 -1 $-1 $438 $429 @18 ASM_EDGE_FROM_STEP @5 11168 #
DXID-attrib $-1 -1 $445 $440 $430 @18 ASM_EDGE_FROM_STEP @5 11192 #
DXID-attrib $-1 -1 $-1 $444 $430 @18 ASM_EDGE_FROM_STEP @5 11187 #
