700 39 1 0          
5 ZWCAD 12 ACIS 28.0 NT 24 Mon May 13 17:26:24 2024 
1 9.9999999999999995e-07 1e-10 
body $1 -1 $-1 $2 $-1 $-1 #
DXID-attrib $-1 -1 $-1 $-1 $0 @18 ASM_BODY_FROM_STEP @83 DC9BB408F5FCDFB5E415E7B6EC4F8690CE04BBB4|:|B8A4396250C5687B1D31E70758B30729E1AC4426 #
lump $-1 -1 $-1 $-1 $3 $0 #
shell $-1 -1 $-1 $-1 $-1 $4 $-1 $2 #
face $5 -1 $-1 $6 $7 $3 $-1 $8 reversed single #
color-adesk-attrib $-1 -1 $9 $-1 $4 7 #
face $10 -1 $-1 $11 $12 $3 $-1 $13 forward single #
loop $-1 -1 $-1 $-1 $14 $4 #
plane-surface $-1 -1 $-1 279.35163677967068 -183.11036750084048 -83.894683876407683 -2.2053951057836493e-16 0.0034934515160478805 -0.99999389787963455 -0.61766354742327079 0.7864376605843717 0.0027473986026027228 forward_v I I I I #
fmesh-eye-attrib $-1 -1 $15 $5 $4 #
color-adesk-attrib $-1 -1 $16 $-1 $6 7 #
face $17 -1 $-1 $-1 $18 $3 $-1 $19 forward single #
loop $-1 -1 $-1 $20 $21 $6 #
cone-surface $-1 -1 $-1 279.35163677967068 -183.11036750084048 -83.894683876407683 -2.2053951057836493e-16 0.0034934515160478805 -0.99999389787963455 -11.735607401042145 14.942315551103063 0.052200573449451733 1 I I 0 1 19 forward I I I I #
coedge $-1 -1 $-1 $14 $14 $22 $23 reversed $7 $-1 #
DXID-attrib $-1 -1 $-1 $9 $4 @18 ASM_FACE_FROM_STEP @16 stp-2M-187-26661 #
fmesh-eye-attrib $-1 -1 $24 $10 $6 #
color-adesk-attrib $-1 -1 $25 $-1 $11 7 #
loop $-1 -1 $-1 $-1 $26 $11 #
sphere-surface $-1 -1 $-1 279.35163677967068 -183.15426957958391 -71.32779676033033 28.000000000000004 -0.61766354742327079 0.7864376605843717 0.0027473986026027228 -2.2053951057836493e-16 0.0034934515160478805 -0.99999389787963455 forward_v I I I I #
loop $-1 -1 $-1 $-1 $22 $6 #
coedge $-1 -1 $-1 $21 $21 $26 $27 reversed $12 $-1 #
coedge $-1 -1 $-1 $22 $22 $14 $23 forward $20 $-1 #
edge $28 -1 $-1 $29 0 $29 6.2831853071795862 $14 $30 forward @7 unknown #
DXID-attrib $-1 -1 $-1 $16 $6 @18 ASM_FACE_FROM_STEP @16 stp-2M-187-26662 #
fmesh-eye-attrib $-1 -1 $31 $17 $11 #
coedge $-1 -1 $-1 $26 $26 $21 $27 forward $18 $-1 #
edge $32 -1 $-1 $33 0 $33 6.2831853071795862 $21 $34 forward @7 unknown #
color-adesk-attrib $-1 -1 $35 $-1 $23 7 #
vertex $-1 -1 $-1 $23 $36 #
ellipse-curve $-1 -1 $-1 279.35163677967068 -183.11036750084048 -83.894683876407683 -2.2053951057836493e-16 0.0034934515160478805 -0.99999389787963455 -11.735607401042145 14.942315551103063 0.052200573449451733 1 I I #
DXID-attrib $-1 -1 $-1 $25 $11 @18 ASM_FACE_FROM_STEP @16 stp-2M-187-26663 #
color-adesk-attrib $-1 -1 $37 $-1 $27 7 #
vertex $-1 -1 $-1 $27 $38 #
ellipse-curve $-1 -1 $-1 279.35163677967068 -183.08241988871211 -91.894635059444767 -2.2053951057836493e-16 0.0034934515160478805 -0.99999389787963455 -11.735607401042145 14.942315551103063 0.052200573449451733 1 I I #
DXID-attrib $-1 -1 $-1 $28 $23 @18 ASM_EDGE_FROM_STEP @5 17444 #
point $-1 -1 $-1 267.61602937862853 -168.16805194973742 -83.842483302958229 #
DXID-attrib $-1 -1 $-1 $32 $27 @18 ASM_EDGE_FROM_STEP @5 17445 #
point $-1 -1 $-1 267.61602937862853 -168.14010433760905 -91.842434485995312 #
