700 336 1 0         
5 ZWCAD 12 ACIS 28.0 NT 24 Sat May 11 15:58:00 2024 
1 9.9999999999999995e-07 1e-10 
body $1 -1 $-1 $2 $-1 $-1 #
DXID-attrib $-1 -1 $-1 $-1 $0 @18 ASM_BODY_FROM_STEP @83 D7972D1BC7FE49C284E4739B1AD8F149D7FC86DC|:|3C3F39064A1C0E3DB6573A3428C289C93130A8D2 #
lump $-1 -1 $-1 $-1 $3 $0 #
shell $-1 -1 $-1 $-1 $-1 $4 $-1 $2 #
face $5 -1 $-1 $6 $7 $3 $-1 $8 forward single #
truecolor-adesk-attrib $-1 -1 $9 $-1 $4 -1056964608 #
face $10 -1 $-1 $11 $12 $3 $-1 $13 forward single #
loop $-1 -1 $-1 $-1 $14 $4 #
torus-surface $-1 -1 $-1 -97.809927207220653 -1806.6008952125642 -70.500000000000057 -1 0 0 55 25 0 0.4794255386042035 0.87758256189037243 forward_v I I I I #
DXID-attrib $-1 -1 $-1 $5 $4 @18 ASM_FACE_FROM_STEP @15 stp-1M-143-9456 #
truecolor-adesk-attrib $-1 -1 $15 $-1 $6 -1056964608 #
face $16 -1 $-1 $17 $18 $3 $-1 $19 forward single #
loop $-1 -1 $-1 $-1 $20 $6 #
torus-surface $-1 -1 $-1 -97.809927207220653 -1806.6008952125642 -70.500000000000057 -1 0 0 55 25 0 0.4794255386042035 0.87758256189037243 forward_v I I I I #
coedge $-1 -1 $-1 $21 $22 $23 $24 reversed $7 $-1 #
DXID-attrib $-1 -1 $-1 $10 $6 @18 ASM_FACE_FROM_STEP @15 stp-1M-143-9473 #
truecolor-adesk-attrib $-1 -1 $25 $-1 $11 -1056964608 #
face $26 -1 $-1 $27 $28 $3 $-1 $29 forward single #
loop $-1 -1 $-1 $-1 $30 $11 #
cone-surface $-1 -1 $-1 -97.809927207220653 -1806.6008952125642 -70.500000000000057 -1 0 0 0 33.559787702294244 61.430779332326068 1 I I 0 1 70.000000000000014 forward I I I I #
coedge $-1 -1 $-1 $31 $32 $33 $34 reversed $12 $-1 #
coedge $-1 -1 $-1 $35 $14 $32 $36 forward $7 $-1 #
coedge $-1 -1 $-1 $14 $35 $31 $37 reversed $7 $-1 #
coedge $-1 -1 $-1 $33 $33 $14 $24 forward $38 $-1 #
edge $39 -1 $-1 $40 -1.0707963267956508 $41 2.0707963267941425 $14 $42 forward @7 unknown #
DXID-attrib $-1 -1 $-1 $16 $11 @18 ASM_FACE_FROM_STEP @15 stp-1M-143-9504 #
truecolor-adesk-attrib $-1 -1 $43 $-1 $17 -1056964608 #
face $44 -1 $-1 $45 $46 $3 $-1 $47 forward single #
loop $-1 -1 $-1 $-1 $48 $17 #
cone-surface $-1 -1 $-1 -97.809927207220653 -1806.6008952125642 -70.500000000000057 -1 0 0 0 33.559787702294244 61.430779332326068 1 I I 0 1 70.000000000000014 forward I I I I #
coedge $-1 -1 $-1 $49 $50 $35 $51 reversed $18 $-1 #
coedge $-1 -1 $-1 $52 $20 $22 $37 forward $12 $-1 #
coedge $-1 -1 $-1 $20 $52 $21 $36 reversed $12 $-1 #
coedge $-1 -1 $-1 $23 $23 $20 $34 forward $38 $-1 #
edge $53 -1 $-1 $41 2.0707963267941425 $40 5.2123889803839356 $20 $54 forward @7 unknown #
coedge $-1 -1 $-1 $22 $21 $30 $51 forward $7 $-1 #
edge $55 -1 $-1 $40 -1.5707963267948966 $56 -0.92729521800260639 $21 $57 reversed @7 unknown #
edge $58 -1 $-1 $41 -1.5707963267948966 $59 -0.92729521800260639 $22 $60 reversed @7 unknown #
loop $-1 -1 $-1 $61 $33 $62 #
truecolor-adesk-attrib $-1 -1 $63 $-1 $24 -1056964608 #
vertex $-1 -1 $-1 $24 $64 #
vertex $-1 -1 $-1 $24 $65 #
ellipse-curve $-1 -1 $-1 -122.80992720722065 -1806.6008952125642 -70.500000000000057 -1 0 0 0 55 0 1 F -1.0707963267956508 F 2.0707963267941425 #
DXID-attrib $-1 -1 $-1 $26 $17 @18 ASM_FACE_FROM_STEP @15 stp-1M-143-9516 #
truecolor-adesk-attrib $-1 -1 $66 $-1 $27 -1056964608 #
face $67 -1 $-1 $68 $69 $3 $-1 $70 forward single #
loop $-1 -1 $-1 $-1 $71 $27 #
torus-surface $-1 -1 $-1 -97.809927207220653 -1806.6008952125642 -70.500000000000057 -1 0 0 55 25 0 0.4794255386042035 0.87758256189037243 forward_v I I I I #
coedge $-1 -1 $-1 $72 $73 $52 $74 reversed $28 $-1 #
coedge $-1 -1 $-1 $75 $30 $73 $76 forward $18 $-1 #
coedge $-1 -1 $-1 $30 $75 $72 $77 reversed $18 $-1 #
edge $78 -1 $-1 $56 -1.0707963267946454 $59 2.0707963267951479 $35 $79 forward @7 unknown #
coedge $-1 -1 $-1 $32 $31 $48 $74 forward $12 $-1 #
truecolor-adesk-attrib $-1 -1 $80 $-1 $34 -1056964608 #
ellipse-curve $-1 -1 $-1 -122.80992720722065 -1806.6008952125642 -70.500000000000057 -1 0 0 0 55 0 1 F 2.0707963267941425 F 5.2123889803839356 #
truecolor-adesk-attrib $-1 -1 $81 $-1 $36 -1056964608 #
vertex $-1 -1 $-1 $36 $82 #
ellipse-curve $-1 -1 $-1 -97.809927207220653 -1780.2324905893643 -22.232959096000059 0 -0.87758256189037243 0.47942553860420356 0 11.985638465105088 21.93956404725931 1 F 0.92729521800260639 F 1.5707963267948966 #
truecolor-adesk-attrib $-1 -1 $83 $-1 $37 -1056964608 #
vertex $-1 -1 $-1 $51 $84 #
ellipse-curve $-1 -1 $-1 -97.809927207220653 -1832.9692998357641 -118.76704090400005 0 0.87758256189037243 -0.47942553860420356 0 -11.985638465105088 -21.93956404725931 1 F 0.92729521800260639 F 1.5707963267948966 #
loop $-1 -1 $-1 $-1 $85 $62 #
face $86 -1 $-1 $-1 $38 $3 $-1 $87 forward single #
DXID-attrib $-1 -1 $-1 $39 $24 @18 ASM_EDGE_FROM_STEP @4 9430 #
point $-1 -1 $-1 -122.80992720722065 -1780.2324905893643 -22.232959096000059 #
point $-1 -1 $-1 -122.80992720722065 -1832.9692998357641 -118.76704090400005 #
DXID-attrib $-1 -1 $-1 $44 $27 @18 ASM_FACE_FROM_STEP @15 stp-1M-143-9547 #
truecolor-adesk-attrib $-1 -1 $88 $-1 $45 -1056964608 #
face $89 -1 $-1 $90 $91 $3 $-1 $92 forward single #
loop $-1 -1 $-1 $-1 $93 $45 #
torus-surface $-1 -1 $-1 -97.809927207220653 -1806.6008952125642 -70.500000000000057 -1 0 0 55 25 0 0.4794255386042035 0.87758256189037243 forward_v I I I I #
coedge $-1 -1 $-1 $94 $95 $75 $96 reversed $46 $-1 #
coedge $-1 -1 $-1 $97 $48 $50 $77 forward $28 $-1 #
coedge $-1 -1 $-1 $48 $97 $49 $76 reversed $28 $-1 #
edge $98 -1 $-1 $59 2.0707963267951479 $56 5.212388980384941 $52 $99 forward @7 unknown #
coedge $-1 -1 $-1 $50 $49 $71 $96 forward $18 $-1 #
edge $100 -1 $-1 $56 -20 $101 20 $49 $102 reversed @7 unknown #
edge $103 -1 $-1 $59 -20 $104 20 $50 $105 reversed @7 unknown #
truecolor-adesk-attrib $-1 -1 $106 $-1 $51 -1056964608 #
ellipse-curve $-1 -1 $-1 -117.80992720722065 -1806.6008952125642 -70.500000000000057 -1 0 0 0 70 0 1 F -1.0707963267946454 F 2.0707963267951479 #
DXID-attrib $-1 -1 $-1 $53 $34 @18 ASM_EDGE_FROM_STEP @4 9461 #
DXID-attrib $-1 -1 $-1 $55 $36 @18 ASM_EDGE_FROM_STEP @4 9437 #
point $-1 -1 $-1 -117.80992720722065 -1773.0411075102643 -9.0692206677000584 #
DXID-attrib $-1 -1 $-1 $58 $37 @18 ASM_EDGE_FROM_STEP @4 9449 #
point $-1 -1 $-1 -117.80992720722065 -1840.1606829148641 -131.93077933230006 #
coedge $-1 -1 $-1 $107 $107 $108 $109 reversed $61 $-1 #
truecolor-adesk-attrib $-1 -1 $110 $-1 $62 -1056964608 #
plane-surface $-1 -1 $-1 -122.80992720722065 -1806.6008952125642 -15.500000000000057 -1 0 0 0 1 0 forward_v I I I I #
DXID-attrib $-1 -1 $-1 $67 $45 @18 ASM_FACE_FROM_STEP @15 stp-1M-143-9559 #
truecolor-adesk-attrib $-1 -1 $111 $-1 $68 -1056964608 #
face $112 -1 $-1 $113 $114 $3 $-1 $115 forward single #
loop $-1 -1 $-1 $-1 $116 $68 #
spline-surface $-1 -1 $-1 forward { rotsur 
	intcurve forward { exactcur full nubs 4 open 2 
	21.891829686800001 4 47.123889803799997 4 
	-72.809927207220653 -1783.8949758027641 -28.937093310200055 
	-77.511644010020632 -1785.9111248047641 -32.627629303400056 
	-81.038406362720707 -1788.5629122036642 -37.481693577800058 
	-82.809927207220653 -1791.5910332445642 -43.02463196290006 
	-82.809927207220653 -1794.6152567474642 -48.560435952700054 
	0 
	null_surface 
	null_surface 
	nullbs 
	nullbs 
	I I 
	0 
	0 
	0 
	F 1 F 0 } F 21.891829686800001 F 47.123889803799997 
	-52.809927207220653 -1806.6008952125642 -70.500000000000057 -1 0 0 
	none F 21.891829686800001 F 47.123889803799997 F 0 F 6.2831853071795862 OPEN PERIODIC NON_SINGULAR NON_SINGULAR 
	0 
	0 
	0 
	0 
	0 
	0 
	} F 21.891829686800001 F 47.123889803799997 F -8.228808046741678e-13 F 3.1415926535897936 #
coedge $-1 -1 $-1 $117 $118 $97 $119 reversed $69 $-1 #
coedge $-1 -1 $-1 $120 $71 $118 $121 forward $46 $-1 #
coedge $-1 -1 $-1 $71 $120 $117 $122 reversed $46 $-1 #
edge $123 -1 $-1 $101 -1.0707963267946454 $104 2.0707963267951479 $75 $124 forward @7 unknown #
coedge $-1 -1 $-1 $73 $72 $93 $119 forward $28 $-1 #
truecolor-adesk-attrib $-1 -1 $125 $-1 $74 -1056964608 #
ellipse-curve $-1 -1 $-1 -117.80992720722065 -1806.6008952125642 -70.500000000000057 -1 0 0 0 70 0 1 F 2.0707963267951479 F 5.212388980384941 #
truecolor-adesk-attrib $-1 -1 $126 $-1 $76 -1056964608 #
vertex $-1 -1 $-1 $76 $127 #
straight-curve $-1 -1 $-1 -97.809927207220653 -1773.0411075102643 -9.0692206677000584 -1 0 0 F -20 F 20 #
truecolor-adesk-attrib $-1 -1 $128 $-1 $77 -1056964608 #
vertex $-1 -1 $-1 $96 $129 #
straight-curve $-1 -1 $-1 -97.809927207220653 -1840.1606829148641 -131.93077933230006 -1 0 0 F -20 F 20 #
DXID-attrib $-1 -1 $-1 $78 $51 @18 ASM_EDGE_FROM_STEP @4 9444 #
coedge $-1 -1 $-1 $85 $85 $130 $131 reversed $61 $-1 #
coedge $-1 -1 $-1 $132 $133 $85 $109 forward $134 $135 #
edge $136 -1 $-1 $137 -1.0707963267945795 $138 2.0707963267952141 $108 $139 forward @7 unknown #
DXID-attrib $-1 -1 $-1 $86 $62 @18 ASM_FACE_FROM_STEP @15 stp-1M-143-9796 #
DXID-attrib $-1 -1 $-1 $89 $68 @18 ASM_FACE_FROM_STEP @15 stp-1M-143-9604 #
truecolor-adesk-attrib $-1 -1 $140 $-1 $90 -1056964608 #
face $141 -1 $-1 $142 $143 $3 $-1 $144 reversed single #
loop $-1 -1 $-1 $-1 $145 $90 #
spline-surface $-1 -1 $-1 forward { rotsur 
	intcurve forward { exactcur full nubs 4 open 2 
	21.891829686800001 4 47.123889803799997 4 
	-72.809927207220653 -1783.8949758027641 -28.937093310200055 
	-77.511644010020632 -1785.9111248047641 -32.627629303400056 
	-81.038406362720707 -1788.5629122036642 -37.481693577800058 
	-82.809927207220653 -1791.5910332445642 -43.02463196290006 
	-82.809927207220653 -1794.6152567474642 -48.560435952700054 
	0 
	null_surface 
	null_surface 
	nullbs 
	nullbs 
	I I 
	0 
	0 
	0 
	F 1 F 0 } F 21.891829686800001 F 47.123889803799997 
	-52.809927207220653 -1806.6008952125642 -70.500000000000057 -1 0 0 
	none F 21.891829686800001 F 47.123889803799997 F 0 F 6.2831853071795862 OPEN PERIODIC NON_SINGULAR NON_SINGULAR 
	0 
	0 
	0 
	0 
	0 
	0 
	} F 21.891829686800001 F 47.123889803799997 F 3.1415926535889702 F 6.2831853071795862 #
coedge $-1 -1 $-1 $146 $147 $148 $149 reversed $91 $150 #
coedge $-1 -1 $-1 $151 $93 $95 $122 forward $69 $-1 #
coedge $-1 -1 $-1 $93 $151 $94 $121 reversed $69 $-1 #
edge $152 -1 $-1 $104 2.0707963267951479 $101 5.212388980384941 $97 $153 forward @7 unknown #
coedge $-1 -1 $-1 $95 $94 $154 $155 forward $46 $-1 #
edge $156 -1 $-1 $101 0.92729521800260639 $157 1.5707963267948966 $94 $158 reversed @7 unknown #
edge $159 -1 $-1 $104 0.92729521800260639 $160 1.5707963267948966 $95 $161 reversed @7 unknown #
truecolor-adesk-attrib $-1 -1 $162 $-1 $96 -1056964608 #
ellipse-curve $-1 -1 $-1 -77.809927207220653 -1806.6008952125642 -70.500000000000057 -1 0 0 0 70 0 1 F -1.0707963267946454 F 2.0707963267951479 #
DXID-attrib $-1 -1 $-1 $98 $74 @18 ASM_EDGE_FROM_STEP @4 9466 #
DXID-attrib $-1 -1 $-1 $100 $76 @18 ASM_EDGE_FROM_STEP @4 9485 #
point $-1 -1 $-1 -77.809927207220653 -1773.0411075102643 -9.0692206677000584 #
DXID-attrib $-1 -1 $-1 $103 $77 @18 ASM_EDGE_FROM_STEP @4 9497 #
point $-1 -1 $-1 -77.809927207220653 -1840.1606829148641 -131.93077933230006 #
coedge $-1 -1 $-1 $163 $164 $107 $131 forward $165 $166 #
edge $167 -1 $-1 $138 2.0707963267952141 $137 5.2123889803850068 $130 $168 forward @7 unknown #
tcoedge-coedge $-1 -1 $-1 $169 $108 $164 $170 reversed $134 $171 0.72972765622783253 1.5707963267948966 #
tcoedge-coedge $-1 -1 $-1 $108 $169 $163 $172 forward $134 $173 -1.5707963267948966 -0.72972765622783253 #
loop $-1 -1 $-1 $-1 $169 $174 #
pcurve $-1 -1 $-1 0 forward { exppc nubs 1 open 2 
	-1.0707963267945793 1 2.0707963267952141 1 
	-21.891829686800001 1.3179036736349524e-16 
	-21.891829686800001 3.1415926535897936 
	4.8546509871696326e-14 
	spline forward { rotsur 
	intcurve forward { exactcur full nubs 4 open 2 
	-47.123889803799997 4 -21.891829686800001 4 
	-112.80992720722065 -1794.6152567474642 -48.560435952700054 
	-112.80992720722065 -1791.5910332445642 -43.02463196290006 
	-114.5814480517206 -1788.5629122036642 -37.481693577800058 
	-118.10821040442067 -1785.9111248047641 -32.627629303400056 
	-122.80992720722065 -1783.8949758027641 -28.937093310200055 
	0 
	null_surface 
	null_surface 
	nullbs 
	nullbs 
	I I 
	0 
	0 
	0 
	F 1 F 0 } F -47.123889803799997 F -21.891829686800001 
	-142.80992720722065 -1806.6008952125642 -70.500000000000057 -1 0 0 
	none F -47.123889803799997 F -21.891829686800001 F 0 F 6.2831853071795862 OPEN PERIODIC NON_SINGULAR NON_SINGULAR 
	0 
	0 
	0 
	0 
	0 
	0 
	} I I I I 
	} 0 0 #
truecolor-adesk-attrib $-1 -1 $175 $-1 $109 -1056964608 #
tvertex-vertex $-1 -1 $-1 $172 $176 4.8610354760022857e-11 #
tvertex-vertex $-1 -1 $-1 $109 $177 4.8610354760022857e-11 #
ellipse-curve $-1 -1 $-1 -122.80992720722065 -1806.6008952125642 -70.500000000000057 -1 0 0 0 47.360679775000001 0 1 F -1.0707963267945795 F 2.0707963267952141 #
DXID-attrib $-1 -1 $-1 $112 $90 @18 ASM_FACE_FROM_STEP @15 stp-1M-143-9621 #
truecolor-adesk-attrib $-1 -1 $178 $-1 $113 -1056964608 #
face $179 -1 $-1 $174 $180 $3 $-1 $181 reversed single #
loop $-1 -1 $-1 $-1 $182 $113 #
cone-surface $-1 -1 $-1 -97.809927207220653 -1806.6008952125642 -70.500000000000057 -1 0 0 0 2.3971276930210177 4.387912809451862 1 I I 0 1 5 forward I I I I #
coedge $-1 -1 $-1 $183 $184 $185 $186 reversed $114 $187 #
tcoedge-coedge $-1 -1 $-1 $188 $116 $184 $189 forward $91 $190 0.72972765622783253 1.5707963267948966 #
tcoedge-coedge $-1 -1 $-1 $116 $188 $183 $191 reversed $91 $192 -1.5707963267948966 -0.72972765622783253 #
coedge $-1 -1 $-1 $185 $185 $116 $149 forward $193 $-1 #
edge $194 -1 $-1 $195 -1.0707963267945795 $196 2.0707963267952141 $116 $197 forward @7 unknown #
pcurve $-1 -1 $-1 0 forward { exppc nubs 1 open 2 
	-2.0707963267952141 1 1.0707963267945793 1 
	21.891829686800001 3.1415926535897936 
	21.891829686800001 1.9570550649718325e-16 
	4.9284446728270986e-14 
	spline forward { ref 0 } I I I I 
	} 0 0 #
coedge $-1 -1 $-1 $118 $117 $198 $199 forward $69 $-1 #
truecolor-adesk-attrib $-1 -1 $200 $-1 $119 -1056964608 #
ellipse-curve $-1 -1 $-1 -77.809927207220653 -1806.6008952125642 -70.500000000000057 -1 0 0 0 70 0 1 F 2.0707963267951479 F 5.212388980384941 #
coedge $-1 -1 $-1 $198 $198 $120 $155 reversed $201 $-1 #
edge $202 -1 $-1 $157 -1.0707963267956508 $160 2.0707963267941425 $120 $203 forward @7 unknown #
truecolor-adesk-attrib $-1 -1 $204 $-1 $121 -1056964608 #
vertex $-1 -1 $-1 $121 $205 #
ellipse-curve $-1 -1 $-1 -97.809927207220653 -1780.2324905893643 -22.232959096000059 0 -0.87758256189037243 0.47942553860420356 0 11.985638465105088 21.93956404725931 1 F -1.5707963267948966 F -0.92729521800260639 #
truecolor-adesk-attrib $-1 -1 $206 $-1 $122 -1056964608 #
vertex $-1 -1 $-1 $155 $207 #
ellipse-curve $-1 -1 $-1 -97.809927207220653 -1832.9692998357641 -118.76704090400005 0 0.87758256189037243 -0.47942553860420356 0 -11.985638465105088 -21.93956404725931 1 F -1.5707963267948966 F -0.92729521800260639 #
DXID-attrib $-1 -1 $-1 $123 $96 @18 ASM_EDGE_FROM_STEP @4 9492 #
tcoedge-coedge $-1 -1 $-1 $208 $130 $133 $172 reversed $165 $209 0.72972765622783253 1.5707963267948966 #
tcoedge-coedge $-1 -1 $-1 $130 $208 $132 $170 forward $165 $210 -1.5707963267948966 -0.72972765622783253 #
loop $-1 -1 $-1 $-1 $208 $211 #
pcurve $-1 -1 $-1 0 forward { exppc nubs 1 open 2 
	2.0707963267952141 1 5.2123889803850068 1 
	-21.891829686800001 3.1415926535897936 
	-21.891829686800001 6.2831853071795862 
	7.2805021832701138e-14 
	spline forward { rotsur 
	intcurve forward { exactcur full nubs 4 open 2 
	-47.123889803799997 4 -21.891829686800001 4 
	-112.80992720722065 -1794.6152567474642 -48.560435952700054 
	-112.80992720722065 -1791.5910332445642 -43.02463196290006 
	-114.5814480517206 -1788.5629122036642 -37.481693577800058 
	-118.10821040442067 -1785.9111248047641 -32.627629303400056 
	-122.80992720722065 -1783.8949758027641 -28.937093310200055 
	0 
	null_surface 
	null_surface 
	nullbs 
	nullbs 
	I I 
	0 
	0 
	0 
	F 1 F 0 } F -47.123889803799997 F -21.891829686800001 
	-142.80992720722065 -1806.6008952125642 -70.500000000000057 -1 0 0 
	none F -47.123889803799997 F -21.891829686800001 F 0 F 6.2831853071795862 OPEN PERIODIC NON_SINGULAR NON_SINGULAR 
	0 
	0 
	0 
	0 
	0 
	0 
	} I I I I 
	} 0 0 #
truecolor-adesk-attrib $-1 -1 $212 $-1 $131 -1056964608 #
ellipse-curve $-1 -1 $-1 -122.80992720722065 -1806.6008952125642 -70.500000000000057 -1 0 0 0 47.360679775000001 0 1 F 2.0707963267952141 F 5.2123889803850068 #
coedge $-1 -1 $-1 $133 $132 $213 $214 reversed $134 $215 #
tedge-edge $216 -1 $-1 $217 -1.5707963267948966 $138 -0.72972765622783253 $132 $218 forward @7 unknown 0.00017714776585061855 #
pcurve $-1 -1 $-1 0 forward { exppc nubs 1 open 2 
	0.72972765622783242 1 1.5707963267948966 1 
	-21.891829686800001 3.1415926535889702 
	-47.12388980379999 3.1415926535897931 
	8.6962699808453764e-11 
	spline forward { ref 5 } I I I I 
	} 0 0 #
tedge-edge $219 -1 $-1 $220 -1.5707963267948966 $137 -0.72972765622783253 $133 $221 forward @7 unknown 0.00017714776585026347 #
pcurve $-1 -1 $-1 0 forward { exppc nubs 1 open 2 
	-1.5707963267948966 1 -0.72972765622783242 1 
	-47.123889803799997 0 
	-21.891829686800008 -8.2274329008309862e-13 
	8.7024528966501729e-11 
	spline forward { ref 5 } I I I I 
	} 0 0 #
face $222 -1 $-1 $211 $134 $3 $-1 $223 forward single #
DXID-attrib $-1 -1 $-1 $136 $109 @18 ASM_EDGE_FROM_STEP @4 9711 #
point $-1 -1 $-1 -122.80992720722065 -1783.8949758027641 -28.937093310200055 #
point $-1 -1 $-1 -122.80992720722065 -1829.3068146223643 -112.06290668980006 #
DXID-attrib $-1 -1 $-1 $141 $113 @18 ASM_FACE_FROM_STEP @15 stp-1M-143-9661 #
truecolor-adesk-attrib $-1 -1 $224 $-1 $142 -1056964608 #
loop $-1 -1 $-1 $-1 $225 $142 #
cone-surface $-1 -1 $-1 -97.809927207220653 -1806.6008952125642 -70.500000000000057 -1 0 0 0 2.3971276930210177 4.387912809451862 1 I I 0 1 5 forward I I I I #
coedge $-1 -1 $-1 $226 $227 $228 $229 reversed $143 $-1 #
tcoedge-coedge $-1 -1 $-1 $230 $145 $147 $191 forward $114 $231 0.72972765622783253 1.5707963267948966 #
tcoedge-coedge $-1 -1 $-1 $145 $230 $146 $189 reversed $114 $232 -1.5707963267948966 -0.72972765622783253 #
coedge $-1 -1 $-1 $148 $148 $145 $186 forward $193 $-1 #
edge $233 -1 $-1 $196 2.0707963267952141 $195 5.2123889803850068 $145 $234 forward @7 unknown #
pcurve $-1 -1 $-1 0 forward { exppc nubs 1 open 2 
	-5.2123889803850068 1 -2.0707963267952141 1 
	21.891829686800001 6.2831853071795862 
	21.891829686800001 3.1415926535897936 
	1.0877702384744671e-13 
	spline forward { ref 2 } I I I I 
	} 0 0 #
coedge $-1 -1 $-1 $147 $146 $235 $236 forward $91 $237 #
tedge-edge $238 -1 $-1 $195 0.72972765622783253 $239 1.5707963267948966 $146 $240 forward @7 unknown 0.00017714776584749285 #
pcurve $-1 -1 $-1 0 forward { exppc nubs 1 open 2 
	0.72972765622783242 1 1.5707963267948966 1 
	21.891829686800001 -8.228808046741678e-13 
	47.123889803799983 -1.6480856154055593e-16 
	8.6931768738718987e-11 
	spline forward { ref 0 } I I I I 
	} 0 0 #
tedge-edge $241 -1 $-1 $196 0.72972765622783253 $242 1.5707963267948966 $147 $243 forward @7 unknown 0.00017714776584751741 #
pcurve $-1 -1 $-1 0 forward { exppc nubs 1 open 2 
	-1.5707963267948966 1 -0.72972765622783242 1 
	47.123889803799997 3.1415926535897931 
	21.891829686800001 3.1415926535889702 
	8.6962699808453764e-11 
	spline forward { ref 0 } I I I I 
	} 0 0 #
loop $-1 -1 $-1 $-1 $185 $244 #
truecolor-adesk-attrib $-1 -1 $245 $-1 $149 -1056964608 #
tvertex-vertex $-1 -1 $-1 $149 $246 4.8610354760022857e-11 #
tvertex-vertex $-1 -1 $-1 $149 $247 4.8610354760022857e-11 #
ellipse-curve $-1 -1 $-1 -72.809927207220653 -1806.6008952125642 -70.500000000000057 -1 0 0 0 47.360679775000001 0 1 F -1.0707963267945795 F 2.0707963267952141 #
coedge $-1 -1 $-1 $154 $154 $151 $199 reversed $201 $-1 #
edge $248 -1 $-1 $160 2.0707963267941425 $157 5.2123889803839356 $151 $249 forward @7 unknown #
DXID-attrib $-1 -1 $-1 $152 $119 @18 ASM_EDGE_FROM_STEP @4 9509 #
loop $-1 -1 $-1 $193 $154 $244 #
truecolor-adesk-attrib $-1 -1 $250 $-1 $155 -1056964608 #
ellipse-curve $-1 -1 $-1 -72.809927207220653 -1806.6008952125642 -70.500000000000057 -1 0 0 0 55 0 1 F -1.0707963267956508 F 2.0707963267941425 #
DXID-attrib $-1 -1 $-1 $156 $121 @18 ASM_EDGE_FROM_STEP @4 9528 #
point $-1 -1 $-1 -72.809927207220653 -1780.2324905893643 -22.232959096000059 #
DXID-attrib $-1 -1 $-1 $159 $122 @18 ASM_EDGE_FROM_STEP @4 9540 #
point $-1 -1 $-1 -72.809927207220653 -1832.9692998357641 -118.76704090400005 #
coedge $-1 -1 $-1 $164 $163 $251 $252 reversed $165 $253 #
pcurve $-1 -1 $-1 0 forward { exppc nubs 1 open 2 
	0.72972765622783242 1 1.5707963267948966 1 
	-21.891829686800001 -8.228808046741678e-13 
	-47.123889803799983 -1.6480856154055593e-16 
	8.6931768738718987e-11 
	spline forward { ref 9 } I I I I 
	} 0 6.2831853071795862 #
pcurve $-1 -1 $-1 0 forward { exppc nubs 1 open 2 
	-1.5707963267948966 1 -0.72972765622783242 1 
	-47.123889803799997 3.1415926535897931 
	-21.891829686800001 3.1415926535889702 
	8.6962699808453764e-11 
	spline forward { ref 9 } I I I I 
	} 0 0 #
face $254 -1 $-1 $244 $165 $3 $-1 $255 forward single #
DXID-attrib $-1 -1 $-1 $167 $131 @18 ASM_EDGE_FROM_STEP @4 9733 #
coedge $-1 -1 $-1 $251 $251 $169 $214 forward $256 $-1 #
edge $257 -1 $-1 $220 -1.0707963267958549 $217 2.0707963267939382 $169 $258 forward @7 unknown #
pcurve $-1 -1 $-1 0 forward { exppc nubs 1 open 2 
	-2.0707963267939382 1 1.0707963267958549 1 
	-47.123889803799997 3.1415926535897931 
	-47.123889803799997 8.2484400885831196e-17 
	2.2313419673228634e-14 
	spline forward { ref 5 } I I I I 
	} 0 0 #
truecolor-adesk-attrib $-1 -1 $259 $-1 $170 -1056964608 #
tvertex-vertex $-1 -1 $-1 $214 $260 3.3272839575668466e-11 #
ellipse-curve $-1 -1 $-1 -142.80992720722065 -1818.5865336776642 -92.439564047300053 0 0.87758256189037243 -0.4794255386042035 0 -14.382766158126104 -26.327476856711172 1 F -1.5707963267948966 F -0.72972765622783253 #
truecolor-adesk-attrib $-1 -1 $261 $-1 $172 -1056964608 #
tvertex-vertex $-1 -1 $-1 $214 $262 3.3274542965829095e-11 #
ellipse-curve $-1 -1 $-1 -142.80992720722065 -1794.6152567474642 -48.560435952700054 0 -0.87758256189037243 0.4794255386042035 0 14.382766158126104 26.327476856711172 1 F -1.5707963267948966 F -0.72972765622783253 #
truecolor-adesk-attrib $-1 -1 $263 $-1 $174 -1056964608 #
spline-surface $-1 -1 $-1 forward { ref 5 } F -47.123889803799997 F -21.891829686800001 F -8.2274329008309862e-13 F 3.1415926535897936 #
DXID-attrib $-1 -1 $-1 $179 $142 @18 ASM_FACE_FROM_STEP @15 stp-1M-143-9678 #
coedge $-1 -1 $-1 $264 $265 $266 $267 reversed $180 $-1 #
coedge $-1 -1 $-1 $268 $182 $265 $269 forward $143 $-1 #
coedge $-1 -1 $-1 $182 $268 $264 $270 reversed $143 $-1 #
coedge $-1 -1 $-1 $266 $266 $182 $229 forward $271 $-1 #
edge $272 -1 $-1 $273 -1.0707963267948961 $274 2.070796326794897 $182 $275 forward @7 unknown #
coedge $-1 -1 $-1 $184 $183 $276 $277 forward $114 $278 #
pcurve $-1 -1 $-1 0 forward { exppc nubs 1 open 2 
	0.72972765622783242 1 1.5707963267948966 1 
	21.891829686800001 3.1415926535889702 
	47.12388980379999 3.1415926535897931 
	8.6962699808453764e-11 
	spline forward { ref 2 } I I I I 
	} 0 0 #
pcurve $-1 -1 $-1 0 forward { exppc nubs 1 open 2 
	-1.5707963267948966 1 -0.72972765622783242 1 
	47.123889803799997 0 
	21.891829686800008 -8.2274329008309862e-13 
	8.7024528966501729e-11 
	spline forward { ref 2 } I I I I 
	} 0 6.2831853071795862 #
truecolor-adesk-attrib $-1 -1 $279 $-1 $186 -1056964608 #
ellipse-curve $-1 -1 $-1 -72.809927207220653 -1806.6008952125642 -70.500000000000057 -1 0 0 0 47.360679775000001 0 1 F 2.0707963267952141 F 5.2123889803850068 #
coedge $-1 -1 $-1 $276 $276 $188 $236 reversed $280 $-1 #
edge $281 -1 $-1 $239 -1.0707963267958549 $242 2.0707963267939382 $188 $282 forward @7 unknown #
pcurve $-1 -1 $-1 0 forward { exppc nubs 1 open 2 
	-1.0707963267958549 1 2.0707963267939382 1 
	47.123889803799997 6.8415544838470584e-17 
	47.123889803799997 3.1415926535897931 
	1.545462751688132e-14 
	spline forward { ref 0 } I I I I 
	} 0 0 #
truecolor-adesk-attrib $-1 -1 $283 $-1 $189 -1056964608 #
tvertex-vertex $-1 -1 $-1 $189 $284 3.3274542965829095e-11 #
ellipse-curve $-1 -1 $-1 -52.809927207220653 -1794.6152567474642 -48.560435952700054 0 -0.87758256189037243 0.4794255386042035 0 14.382766158126104 26.327476856711172 1 F 0.72972765622783253 F 1.5707963267948966 #
truecolor-adesk-attrib $-1 -1 $285 $-1 $191 -1056964608 #
tvertex-vertex $-1 -1 $-1 $236 $286 3.3272839575668466e-11 #
ellipse-curve $-1 -1 $-1 -52.809927207220653 -1818.5865336776642 -92.439564047300053 0 0.87758256189037243 -0.4794255386042035 0 -14.382766158126104 -26.327476856711172 1 F 0.72972765622783253 F 1.5707963267948966 #
face $287 -1 $-1 $288 $201 $3 $-1 $289 reversed single #
DXID-attrib $-1 -1 $-1 $194 $149 @18 ASM_EDGE_FROM_STEP @4 9578 #
point $-1 -1 $-1 -72.809927207220653 -1783.8949758027641 -28.937093310200055 #
point $-1 -1 $-1 -72.809927207220653 -1829.3068146223643 -112.06290668980006 #
truecolor-adesk-attrib $-1 -1 $290 $-1 $199 -1056964608 #
ellipse-curve $-1 -1 $-1 -72.809927207220653 -1806.6008952125642 -70.500000000000057 -1 0 0 0 55 0 1 F 2.0707963267941425 F 5.2123889803839356 #
DXID-attrib $-1 -1 $-1 $202 $155 @18 ASM_EDGE_FROM_STEP @4 9535 #
coedge $-1 -1 $-1 $213 $213 $208 $252 forward $256 $-1 #
edge $291 -1 $-1 $217 2.0707963267939382 $220 5.2123889803837313 $208 $292 forward @7 unknown #
pcurve $-1 -1 $-1 0 forward { exppc nubs 1 open 2 
	-5.2123889803837313 1 -2.0707963267939382 1 
	-47.123889803799997 6.2831853071795862 
	-47.123889803799997 3.1415926535897931 
	3.6519689065104366e-14 
	spline forward { ref 9 } I I I I 
	} 0 0 #
truecolor-adesk-attrib $-1 -1 $293 $-1 $211 -1056964608 #
spline-surface $-1 -1 $-1 forward { ref 9 } F -47.123889803799997 F -21.891829686800001 F 3.1415926535889702 F 6.2831853071795862 #
loop $-1 -1 $-1 $294 $251 $295 #
truecolor-adesk-attrib $-1 -1 $296 $-1 $214 -1056964608 #
ellipse-curve $-1 -1 $-1 -112.80992720722065 -1806.6008952125642 -70.500000000000057 -1 0 0 0 25 0 1 F -1.0707963267958549 F 2.0707963267939382 #
DXID-attrib $-1 -1 $-1 $216 $170 @18 ASM_EDGE_FROM_STEP @4 9716 #
point $-1 -1 $-1 -112.80992720722065 -1818.5865336776642 -92.439564047300053 #
DXID-attrib $-1 -1 $-1 $219 $172 @18 ASM_EDGE_FROM_STEP @4 9704 #
point $-1 -1 $-1 -112.80992720722065 -1794.6152567474642 -48.560435952700054 #
DXID-attrib $-1 -1 $-1 $222 $174 @18 ASM_FACE_FROM_STEP @15 stp-1M-143-9723 #
coedge $-1 -1 $-1 $297 $225 $227 $270 forward $180 $-1 #
coedge $-1 -1 $-1 $225 $297 $226 $269 reversed $180 $-1 #
coedge $-1 -1 $-1 $228 $228 $225 $267 forward $271 $-1 #
edge $298 -1 $-1 $274 2.070796326794897 $273 5.2123889803846897 $225 $299 forward @7 unknown #
coedge $-1 -1 $-1 $227 $226 $300 $301 forward $143 $-1 #
edge $302 -1 $-1 $273 -15 $303 15 $226 $304 forward @7 unknown #
edge $305 -1 $-1 $274 -15 $306 15 $227 $307 forward @7 unknown #
loop $-1 -1 $-1 $-1 $266 $288 #
truecolor-adesk-attrib $-1 -1 $308 $-1 $229 -1056964608 #
vertex $-1 -1 $-1 $229 $309 #
vertex $-1 -1 $-1 $229 $310 #
ellipse-curve $-1 -1 $-1 -82.809927207220653 -1806.6008952125642 -70.500000000000057 -1 0 0 0 5 0 1 F -1.0707963267948961 F 2.070796326794897 #
coedge $-1 -1 $-1 $235 $235 $230 $277 reversed $280 $-1 #
edge $311 -1 $-1 $242 2.0707963267939382 $239 5.2123889803837313 $230 $312 forward @7 unknown #
pcurve $-1 -1 $-1 0 forward { exppc nubs 1 open 2 
	2.0707963267939382 1 5.2123889803837313 1 
	47.123889803799997 3.1415926535897931 
	47.123889803799997 6.2831853071795862 
	3.4067062805445474e-14 
	spline forward { ref 2 } I I I I 
	} 0 0 #
DXID-attrib $-1 -1 $-1 $233 $186 @18 ASM_EDGE_FROM_STEP @4 9609 #
loop $-1 -1 $-1 $271 $235 $288 #
truecolor-adesk-attrib $-1 -1 $313 $-1 $236 -1056964608 #
ellipse-curve $-1 -1 $-1 -82.809927207220653 -1806.6008952125642 -70.500000000000057 -1 0 0 0 25 0 1 F -1.0707963267958549 F 2.0707963267939382 #
DXID-attrib $-1 -1 $-1 $238 $189 @18 ASM_EDGE_FROM_STEP @4 9585 #
point $-1 -1 $-1 -82.809927207220653 -1794.6152567474642 -48.560435952700054 #
DXID-attrib $-1 -1 $-1 $241 $191 @18 ASM_EDGE_FROM_STEP @4 9597 #
point $-1 -1 $-1 -82.809927207220653 -1818.5865336776642 -92.439564047300053 #
truecolor-adesk-attrib $-1 -1 $314 $-1 $244 -1056964608 #
face $315 -1 $-1 $295 $280 $3 $-1 $316 reversed single #
plane-surface $-1 -1 $-1 -72.809927207220653 -1806.6008952125642 -15.500000000000057 -1 0 0 0 1 0 forward_v I I I I #
DXID-attrib $-1 -1 $-1 $248 $199 @18 ASM_EDGE_FROM_STEP @4 9552 #
truecolor-adesk-attrib $-1 -1 $317 $-1 $252 -1056964608 #
ellipse-curve $-1 -1 $-1 -112.80992720722065 -1806.6008952125642 -70.500000000000057 -1 0 0 0 25 0 1 F 2.0707963267939382 F 5.2123889803837313 #
DXID-attrib $-1 -1 $-1 $254 $211 @18 ASM_FACE_FROM_STEP @15 stp-1M-143-9740 #
loop $-1 -1 $-1 $-1 $300 $295 #
face $318 -1 $-1 $62 $256 $3 $-1 $319 forward single #
DXID-attrib $-1 -1 $-1 $257 $214 @18 ASM_EDGE_FROM_STEP @4 9697 #
coedge $-1 -1 $-1 $265 $264 $320 $321 forward $180 $-1 #
truecolor-adesk-attrib $-1 -1 $322 $-1 $267 -1056964608 #
ellipse-curve $-1 -1 $-1 -82.809927207220653 -1806.6008952125642 -70.500000000000057 -1 0 0 0 5 0 1 F 2.070796326794897 F 5.2123889803846897 #
coedge $-1 -1 $-1 $320 $320 $268 $301 reversed $294 $-1 #
edge $323 -1 $-1 $303 -1.0707963267948961 $306 2.070796326794897 $268 $324 forward @7 unknown #
truecolor-adesk-attrib $-1 -1 $325 $-1 $269 -1056964608 #
vertex $-1 -1 $-1 $269 $326 #
straight-curve $-1 -1 $-1 -97.809927207220653 -1804.2037675195443 -66.112087190550056 -1 0 0 F -15 F 15 #
truecolor-adesk-attrib $-1 -1 $327 $-1 $270 -1056964608 #
vertex $-1 -1 $-1 $301 $328 #
straight-curve $-1 -1 $-1 -97.809927207220653 -1808.9980229055841 -74.887912809450057 -1 0 0 F -15 F 15 #
DXID-attrib $-1 -1 $-1 $272 $229 @18 ASM_EDGE_FROM_STEP @4 9635 #
point $-1 -1 $-1 -82.809927207220653 -1804.2037675195443 -66.112087190550056 #
point $-1 -1 $-1 -82.809927207220653 -1808.9980229055841 -74.887912809450057 #
truecolor-adesk-attrib $-1 -1 $329 $-1 $277 -1056964608 #
ellipse-curve $-1 -1 $-1 -82.809927207220653 -1806.6008952125642 -70.500000000000057 -1 0 0 0 25 0 1 F 2.0707963267939382 F 5.2123889803837313 #
DXID-attrib $-1 -1 $-1 $281 $236 @18 ASM_EDGE_FROM_STEP @4 9592 #
DXID-attrib $-1 -1 $-1 $287 $244 @18 ASM_FACE_FROM_STEP @15 stp-1M-143-9754 #
truecolor-adesk-attrib $-1 -1 $330 $-1 $288 -1056964608 #
plane-surface $-1 -1 $-1 -82.809927207220653 -1806.6008952125642 -45.500000000000057 -1 0 0 0 1 0 forward_v I I I I #
DXID-attrib $-1 -1 $-1 $291 $252 @18 ASM_EDGE_FROM_STEP @4 9728 #
truecolor-adesk-attrib $-1 -1 $331 $-1 $295 -1056964608 #
plane-surface $-1 -1 $-1 -112.80992720722065 -1806.6008952125642 -45.500000000000057 -1 0 0 0 1 0 forward_v I I I I #
coedge $-1 -1 $-1 $300 $300 $297 $321 reversed $294 $-1 #
edge $332 -1 $-1 $306 2.070796326794897 $303 5.2123889803846897 $297 $333 forward @7 unknown #
DXID-attrib $-1 -1 $-1 $298 $267 @18 ASM_EDGE_FROM_STEP @4 9666 #
truecolor-adesk-attrib $-1 -1 $334 $-1 $301 -1056964608 #
ellipse-curve $-1 -1 $-1 -112.80992720722065 -1806.6008952125642 -70.500000000000057 -1 0 0 0 5 0 1 F -1.0707963267948961 F 2.070796326794897 #
DXID-attrib $-1 -1 $-1 $302 $269 @18 ASM_EDGE_FROM_STEP @4 9642 #
point $-1 -1 $-1 -112.80992720722065 -1804.2037675195443 -66.112087190550056 #
DXID-attrib $-1 -1 $-1 $305 $270 @18 ASM_EDGE_FROM_STEP @4 9654 #
point $-1 -1 $-1 -112.80992720722065 -1808.9980229055841 -74.887912809450057 #
DXID-attrib $-1 -1 $-1 $311 $277 @18 ASM_EDGE_FROM_STEP @4 9614 #
DXID-attrib $-1 -1 $-1 $315 $288 @18 ASM_FACE_FROM_STEP @15 stp-1M-143-9768 #
DXID-attrib $-1 -1 $-1 $318 $295 @18 ASM_FACE_FROM_STEP @15 stp-1M-143-9782 #
truecolor-adesk-attrib $-1 -1 $335 $-1 $321 -1056964608 #
ellipse-curve $-1 -1 $-1 -112.80992720722065 -1806.6008952125642 -70.500000000000057 -1 0 0 0 5 0 1 F 2.070796326794897 F 5.2123889803846897 #
DXID-attrib $-1 -1 $-1 $323 $301 @18 ASM_EDGE_FROM_STEP @4 9649 #
DXID-attrib $-1 -1 $-1 $332 $321 @18 ASM_EDGE_FROM_STEP @4 9671 #
