700 166 1 0         
5 ZWCAD 12 ACIS 28.0 NT 24 Mon May 13 11:22:15 2024 
1 9.9999999999999995e-07 1e-10 
body $1 -1 $-1 $2 $-1 $-1 #
DXID-attrib $-1 -1 $-1 $-1 $0 @18 ASM_BODY_FROM_STEP @83 6ED88381D2A4833EDCB0B7BC504BDCA92E6F5C47|:|B8A4396250C5687B1D31E70758B30729E1AC4426 #
lump $-1 -1 $-1 $-1 $3 $0 #
shell $-1 -1 $-1 $-1 $-1 $4 $-1 $2 #
face $5 -1 $-1 $6 $7 $3 $-1 $8 forward single #
truecolor-adesk-attrib $-1 -1 $9 $-1 $4 -1029340416 #
face $10 -1 $-1 $11 $12 $3 $-1 $13 forward single #
loop $-1 -1 $-1 $14 $15 $4 #
cone-surface $-1 -1 $-1 145.50229321569867 133.88898992413553 -6.5643181208781218e-15 -1 -5.053138132127823e-16 1.3704293096364797e-16 5.7994655543391917e-16 -0.042601507278288771 4.0747773082191401 1 I I 0.6114475010757654 0.79128500139216706 4.0750000000000002 forward I I I I #
color-adesk-attrib $-1 -1 $16 $5 $4 44 #
truecolor-adesk-attrib $-1 -1 $17 $-1 $6 -1029340416 #
face $18 -1 $-1 $19 $20 $3 $-1 $21 forward single #
loop $-1 -1 $-1 $22 $23 $6 #
cone-surface $-1 -1 $-1 152.92388412478957 133.88898992413553 -7.5813946914731053e-15 1 5.053138132127823e-16 -1.3704293096364797e-16 5.7994655543391887e-16 -0.042601507278288271 4.0747773082191401 1 I I 0.79128500139216795 0.6114475010757644 4.0750000000000002 forward I I I I #
loop $-1 -1 $-1 $-1 $24 $4 #
coedge $-1 -1 $-1 $15 $15 $25 $26 forward $7 $-1 #
DXID-attrib $-1 -1 $-1 $9 $4 @18 ASM_FACE_FROM_STEP @14 stp-1M-76-3480 #
color-adesk-attrib $-1 -1 $27 $10 $6 44 #
truecolor-adesk-attrib $-1 -1 $28 $-1 $11 -1029340416 #
face $29 -1 $-1 $30 $31 $3 $-1 $32 reversed single #
loop $-1 -1 $-1 $33 $34 $11 #
cone-surface $-1 -1 $-1 152.40229321569865 133.88898992413553 -7.5099143445272923e-15 -1 -5.053138132127823e-16 1.3704293096364797e-16 5.1946133186105631e-16 -0.038158405292209568 3.6498005337422965 1 I I 0 1 3.6499999999999999 forward I I I I #
loop $-1 -1 $-1 $-1 $35 $6 #
coedge $-1 -1 $-1 $23 $23 $36 $37 reversed $12 $-1 #
coedge $-1 -1 $-1 $24 $24 $38 $39 reversed $14 $-1 #
coedge $-1 -1 $-1 $25 $25 $15 $26 reversed $33 $-1 #
edge $40 -1 $-1 $41 0.62831853068810706 $41 6.9115038378676932 $15 $42 forward @7 unknown #
DXID-attrib $-1 -1 $-1 $17 $6 @18 ASM_FACE_FROM_STEP @14 stp-1M-76-3489 #
color-adesk-attrib $-1 -1 $43 $18 $11 44 #
truecolor-adesk-attrib $-1 -1 $44 $-1 $19 -1029340416 #
face $45 -1 $-1 $46 $47 $3 $-1 $48 reversed single #
loop $-1 -1 $-1 $49 $50 $19 #
cone-surface $-1 -1 $-1 159.17329321569866 133.88898992413553 -8.4378320300821541e-15 -1 -5.053138132127823e-16 1.3704293096364797e-16 2.8463634622523637e-16 -0.020908715228607985 1.9998907034204367 1 I I 0 1 2 forward I I I I #
loop $-1 -1 $-1 $-1 $25 $11 #
coedge $-1 -1 $-1 $34 $34 $35 $51 forward $20 $-1 #
coedge $-1 -1 $-1 $35 $35 $34 $51 reversed $22 $-1 #
coedge $-1 -1 $-1 $36 $36 $23 $37 forward $52 $-1 #
edge $53 -1 $-1 $54 0.62831853069092569 $54 6.9115038378705123 $23 $55 forward @7 unknown #
coedge $-1 -1 $-1 $38 $38 $24 $39 forward $56 $-1 #
edge $57 -1 $-1 $58 -3.1415926535897931 $58 3.1415926535897931 $24 $59 forward @7 unknown #
truecolor-adesk-attrib $-1 -1 $60 $-1 $26 -1029340416 #
vertex $-1 -1 $-1 $26 $61 #
ellipse-curve $-1 -1 $-1 146.05229321572904 133.88898992412757 2.3376568389165734e-11 -1 2.8206421877161442e-12 -8.2904672558781421e-12 -3.0431932322526641e-11 -2.1761697257949075 2.9303217100452343 1 I I #
DXID-attrib $-1 -1 $-1 $28 $11 @18 ASM_FACE_FROM_STEP @14 stp-1M-76-3498 #
color-adesk-attrib $-1 -1 $62 $29 $19 44 #
truecolor-adesk-attrib $-1 -1 $63 $-1 $30 -1029340416 #
face $64 -1 $-1 $65 $56 $3 $-1 $66 forward single #
loop $-1 -1 $-1 $67 $68 $30 #
cone-surface $-1 -1 $-1 151.17229321569866 133.88898992413553 -7.3413515394420053e-15 1 5.053138132127823e-16 -1.3704293096364797e-16 3.5579543278154531e-16 -0.026135894035759676 2.499863379275546 1 I I 0 1 2.5 forward I I I I #
loop $-1 -1 $-1 $-1 $69 $19 #
coedge $-1 -1 $-1 $50 $50 $70 $71 reversed $31 $-1 #
edge $72 -1 $-1 $73 -3.1415926535897944 $73 3.1415926535897918 $35 $74 forward @7 unknown #
loop $-1 -1 $-1 $-1 $36 $65 #
truecolor-adesk-attrib $-1 -1 $75 $-1 $37 -1029340416 #
vertex $-1 -1 $-1 $37 $76 #
ellipse-curve $-1 -1 $-1 153.25229321566121 133.8889899241201 -4.8618270239084309e-11 1 2.6483867653100254e-12 8.3472662136389377e-12 3.7521911929501124e-11 -2.6068292002227342 -3.6680296509747694 1 I I #
loop $-1 -1 $-1 $77 $38 $46 #
truecolor-adesk-attrib $-1 -1 $78 $-1 $39 -1029340416 #
vertex $-1 -1 $-1 $39 $79 #
ellipse-curve $-1 -1 $-1 144.95229321569866 133.88898992413553 -6.4889445088481148e-15 -1 -5.053138132127823e-16 1.3704293096364797e-16 6.4043177900678153e-16 -0.047044609264367418 4.4997540826959828 1 I I #
color-adesk-attrib $-1 -1 $80 $40 $26 44 #
point $-1 -1 $-1 146.05229321569865 133.85083151884331 3.6498005337422903 #
DXID-attrib $-1 -1 $-1 $44 $19 @18 ASM_FACE_FROM_STEP @14 stp-1M-76-3507 #
color-adesk-attrib $-1 -1 $81 $45 $30 44 #
truecolor-adesk-attrib $-1 -1 $82 $-1 $46 -1029340416 #
face $83 -1 $-1 $84 $85 $3 $-1 $86 forward single #
cone-surface $-1 -1 $-1 139.20229321569866 133.88898992413553 -5.7009476558071397e-15 1 5.053138132127823e-16 -1.3704293096364797e-16 6.4043177900678153e-16 -0.047044609264367418 4.4997540826959828 1 I I 0 1 4.5 forward I I I I #
loop $-1 -1 $-1 $-1 $87 $30 #
coedge $-1 -1 $-1 $68 $68 $88 $89 forward $47 $-1 #
coedge $-1 -1 $-1 $69 $69 $90 $91 forward $49 $-1 #
coedge $-1 -1 $-1 $70 $70 $50 $71 forward $92 $-1 #
edge $93 -1 $-1 $94 -3.1415926535897931 $94 3.1415926535897931 $50 $95 forward @7 unknown #
truecolor-adesk-attrib $-1 -1 $96 $-1 $51 -1029340416 #
vertex $-1 -1 $-1 $51 $97 #
ellipse-curve $-1 -1 $-1 152.59547503388049 133.88898992413553 -7.5363885470998164e-15 -1 -5.053138132127823e-16 1.3704293096364797e-16 5.1946133186105631e-16 -0.038158405292209568 3.6498005337422965 1 I I #
color-adesk-attrib $-1 -1 $98 $53 $37 44 #
point $-1 -1 $-1 153.25229321569867 133.93603453339989 -4.4997540826959899 #
loop $-1 -1 $-1 $-1 $99 $46 #
color-adesk-attrib $-1 -1 $100 $57 $39 44 #
point $-1 -1 $-1 144.95229321569866 133.93603453339989 -4.4997540826959899 #
DXID-attrib $-1 -1 $-1 $60 $26 @18 ASM_EDGE_FROM_STEP @5 20688 #
DXID-attrib $-1 -1 $-1 $63 $30 @18 ASM_FACE_FROM_STEP @14 stp-1M-76-3516 #
color-adesk-attrib $-1 -1 $101 $64 $46 44 #
truecolor-adesk-attrib $-1 -1 $102 $-1 $65 -1029340416 #
face $103 -1 $-1 $104 $105 $3 $-1 $106 reversed single #
loop $-1 -1 $-1 $52 $107 $65 #
cone-surface $-1 -1 $-1 139.20229321569866 133.88898992413553 -5.7009476558071397e-15 1 5.053138132127823e-16 -1.3704293096364797e-16 6.4043177900678153e-16 -0.047044609264367418 4.4997540826959828 1 I I 0 1 4.5 forward I I I I #
coedge $-1 -1 $-1 $87 $87 $108 $109 reversed $67 $-1 #
coedge $-1 -1 $-1 $88 $88 $68 $89 reversed $110 $-1 #
edge $111 -1 $-1 $112 -3.1415926535897931 $112 3.1415926535897931 $68 $113 forward @7 unknown #
coedge $-1 -1 $-1 $90 $90 $69 $91 reversed $114 $-1 #
edge $115 -1 $-1 $116 -3.1415926535897931 $116 3.1415926535897931 $69 $117 forward @7 unknown #
loop $-1 -1 $-1 $-1 $70 $118 #
truecolor-adesk-attrib $-1 -1 $119 $-1 $71 -1029340416 #
vertex $-1 -1 $-1 $71 $120 #
ellipse-curve $-1 -1 $-1 151.17229321569866 133.88898992413553 -7.3413515394420053e-15 -1 -5.053138132127823e-16 1.3704293096364797e-16 -2.8463634622523637e-16 0.020908715228607985 -1.9998907034204367 1 I I #
color-adesk-attrib $-1 -1 $121 $72 $51 44 #
point $-1 -1 $-1 152.59547503388049 133.92714832942775 -3.6498005337423045 #
DXID-attrib $-1 -1 $-1 $75 $37 @18 ASM_EDGE_FROM_STEP @5 20691 #
coedge $-1 -1 $-1 $99 $99 $122 $123 forward $77 $-1 #
DXID-attrib $-1 -1 $124 $78 $39 @18 ASM_EDGE_FROM_STEP @5 20690 #
DXID-attrib $-1 -1 $-1 $82 $46 @18 ASM_FACE_FROM_STEP @14 stp-1M-76-3525 #
color-adesk-attrib $-1 -1 $125 $83 $65 44 #
truecolor-adesk-attrib $-1 -1 $126 $-1 $84 -1029340416 #
face $127 -1 $-1 $118 $128 $3 $-1 $129 forward single #
loop $-1 -1 $-1 $114 $122 $84 #
plane-surface $-1 -1 $-1 139.20229321569866 133.88898992413553 -5.7009476558071397e-15 1 5.053138132127823e-16 -1.3704293096364797e-16 -1.4231817311261818e-16 0.010454357614303992 -0.99994535171021837 forward_v I I I I #
coedge $-1 -1 $-1 $107 $107 $130 $131 reversed $85 $-1 #
coedge $-1 -1 $-1 $108 $108 $87 $109 forward $132 $-1 #
edge $133 -1 $-1 $134 -3.1415926535897931 $134 3.1415926535897931 $87 $135 forward @7 unknown #
loop $-1 -1 $-1 $-1 $88 $104 #
truecolor-adesk-attrib $-1 -1 $136 $-1 $89 -1029340416 #
vertex $-1 -1 $-1 $89 $137 #
ellipse-curve $-1 -1 $-1 159.17229321569866 133.88898992413553 -8.4376949871511897e-15 1 5.053138132127823e-16 -1.3704293096364797e-16 3.5579543278154531e-16 -0.026135894035759676 2.499863379275546 1 I I #
loop $-1 -1 $-1 $-1 $90 $84 #
truecolor-adesk-attrib $-1 -1 $138 $-1 $91 -1029340416 #
vertex $-1 -1 $-1 $91 $139 #
ellipse-curve $-1 -1 $-1 139.20229321569866 133.88898992413553 -5.7009476558071397e-15 -1 -5.053138132127823e-16 1.3704293096364797e-16 -2.8463634622523652e-16 0.020908715228608231 -1.9998907034204367 1 I I #
face $140 -1 $-1 $-1 $132 $3 $-1 $141 forward single #
color-adesk-attrib $-1 -1 $142 $93 $71 44 #
point $-1 -1 $-1 151.17229321569866 133.86808120890691 1.9998907034204294 #
DXID-attrib $-1 -1 $143 $96 $51 @18 ASM_EDGE_FROM_STEP @5 20693 #
coedge $-1 -1 $-1 $122 $122 $99 $123 reversed $105 $-1 #
edge $144 -1 $-1 $145 -2.8575091980104888e-16 $145 6.2831853071795862 $99 $146 forward @7 unknown #
DXID-attrib $-1 -1 $-1 $100 $39 @18 ASM_EDGE_FROM_STEP @5 20689 #
DXID-attrib $-1 -1 $-1 $102 $65 @18 ASM_FACE_FROM_STEP @14 stp-1M-76-3534 #
color-adesk-attrib $-1 -1 $147 $103 $84 44 #
truecolor-adesk-attrib $-1 -1 $148 $-1 $104 -1029340416 #
loop $-1 -1 $-1 $110 $130 $104 #
plane-surface $-1 -1 $-1 159.17229321569866 133.88898992413553 -8.4376949871511897e-15 1 5.053138132127823e-16 -1.3704293096364797e-16 -1.4231817311261818e-16 0.010454357614303992 -0.99994535171021837 forward_v I I I I #
coedge $-1 -1 $-1 $130 $130 $107 $131 forward $128 $-1 #
edge $149 -1 $-1 $150 -2.8575091980104888e-16 $150 6.2831853071795862 $107 $151 forward @7 unknown #
loop $-1 -1 $-1 $92 $108 $118 #
truecolor-adesk-attrib $-1 -1 $152 $-1 $109 -1029340416 #
vertex $-1 -1 $-1 $109 $153 #
ellipse-curve $-1 -1 $-1 151.17229321569866 133.88898992413553 -7.3413515394420053e-15 1 5.053138132127823e-16 -1.3704293096364797e-16 3.5579543278154531e-16 -0.026135894035759676 2.499863379275546 1 I I #
color-adesk-attrib $-1 -1 $154 $111 $89 44 #
point $-1 -1 $-1 159.17229321569866 133.91512581817128 -2.4998633792755545 #
color-adesk-attrib $-1 -1 $155 $115 $91 44 #
point $-1 -1 $-1 139.20229321569866 133.86808120890691 1.999890703420431 #
truecolor-adesk-attrib $-1 -1 $156 $-1 $118 -1029340416 #
plane-surface $-1 -1 $-1 151.17229321569866 133.88898992413553 -7.3413515394420053e-15 1 5.053138132127823e-16 -1.3704293096364797e-16 -1.4231817311261818e-16 0.010454357614303992 -0.99994535171021837 forward_v I I I I #
DXID-attrib $-1 -1 $-1 $119 $71 @18 ASM_EDGE_FROM_STEP @5 20694 #
DXID-attrib $-1 -1 $-1 $121 $51 @18 ASM_EDGE_FROM_STEP @5 20692 #
truecolor-adesk-attrib $-1 -1 $157 $-1 $123 -1029340416 #
vertex $-1 -1 $-1 $123 $158 #
ellipse-curve $-1 -1 $-1 139.20229321569866 133.88898992413553 -5.7009476558071397e-15 1 5.053138132127823e-16 -1.3704293096364797e-16 -6.4043177900678183e-16 0.047044609264367966 -4.4997540826959828 1 I I #
DXID-attrib $-1 -1 $-1 $126 $84 @18 ASM_FACE_FROM_STEP @14 stp-1M-76-3543 #
color-adesk-attrib $-1 -1 $159 $127 $104 44 #
truecolor-adesk-attrib $-1 -1 $160 $-1 $131 -1029340416 #
vertex $-1 -1 $-1 $131 $161 #
ellipse-curve $-1 -1 $-1 159.17229321569866 133.88898992413553 -8.4376949871511897e-15 1 5.053138132127823e-16 -1.3704293096364797e-16 -6.4043177900678183e-16 0.047044609264367966 -4.4997540826959828 1 I I #
color-adesk-attrib $-1 -1 $162 $133 $109 44 #
point $-1 -1 $-1 151.17229321569866 133.91512581817128 -2.4998633792755536 #
DXID-attrib $-1 -1 $-1 $136 $89 @18 ASM_EDGE_FROM_STEP @5 20696 #
DXID-attrib $-1 -1 $-1 $138 $91 @18 ASM_EDGE_FROM_STEP @5 20695 #
color-adesk-attrib $-1 -1 $163 $140 $118 44 #
color-adesk-attrib $-1 -1 $164 $144 $123 44 #
point $-1 -1 $-1 139.20229321569866 133.93603453339989 -4.4997540826959881 #
DXID-attrib $-1 -1 $-1 $148 $104 @18 ASM_FACE_FROM_STEP @14 stp-1M-76-3552 #
color-adesk-attrib $-1 -1 $165 $149 $131 44 #
point $-1 -1 $-1 159.17229321569866 133.93603453339989 -4.4997540826959916 #
DXID-attrib $-1 -1 $-1 $152 $109 @18 ASM_EDGE_FROM_STEP @5 20697 #
DXID-attrib $-1 -1 $-1 $156 $118 @18 ASM_FACE_FROM_STEP @14 stp-1M-76-3561 #
DXID-attrib $-1 -1 $-1 $157 $123 @18 ASM_EDGE_FROM_STEP @5 20698 #
DXID-attrib $-1 -1 $-1 $160 $131 @18 ASM_EDGE_FROM_STEP @5 20699 #
