700 722 1 0         
5 ZWCAD 12 ACIS 28.0 NT 24 Mon May 13 11:29:59 2024 
1 9.9999999999999995e-07 1e-10 
body $1 -1 $-1 $2 $-1 $-1 #
DXID-attrib $-1 -1 $-1 $-1 $0 @18 ASM_BODY_FROM_STEP @83 BD4C6013FC543C5A456D423F4959EF0E78B31AA7|:|013850000EB8777586C8CAAA910F2B773806A406 #
lump $-1 -1 $-1 $-1 $3 $0 #
shell $-1 -1 $-1 $-1 $-1 $4 $-1 $2 #
face $5 -1 $-1 $6 $7 $3 $-1 $8 forward single #
truecolor-adesk-attrib $-1 -1 $9 $-1 $4 -1029333354 #
face $10 -1 $-1 $11 $12 $3 $-1 $13 reversed single #
loop $-1 -1 $-1 $-1 $14 $4 #
cone-surface $-1 -1 $-1 22.765246952687683 4.5066665435166602 13.011378489287306 0 5.2939559203393759e-23 1 0.31999999999999995 1.1384122811097797e-15 -6.0267044353681722e-38 1 I I 0 1 0.31999999999999995 forward I I I I #
DXID-attrib $-1 -1 $-1 $5 $4 @18 ASM_FACE_FROM_STEP @21 USB - C inboard-24697 #
truecolor-adesk-attrib $-1 -1 $15 $-1 $6 -1029333354 #
face $16 -1 $-1 $17 $18 $3 $-1 $19 forward single #
loop $-1 -1 $-1 $-1 $20 $6 #
cone-surface $-1 -1 $-1 22.765246952687683 4.5066665435166602 13.011378489287306 4.1761948595190557e-53 5.2939559203393765e-23 1 0.020000000000000052 8.131516293641282e-17 -4.3047888824058374e-39 1 I I 0 1 0.020000000000000052 forward I I I I #
coedge $-1 -1 $-1 $21 $22 $23 $24 reversed $7 $-1 #
DXID-attrib $-1 -1 $-1 $10 $6 @18 ASM_FACE_FROM_STEP @21 USB - C inboard-25390 #
truecolor-adesk-attrib $-1 -1 $25 $-1 $11 -1029333354 #
face $26 -1 $-1 $27 $28 $3 $-1 $29 forward single #
loop $-1 -1 $-1 $-1 $30 $11 #
plane-surface $-1 -1 $-1 21.899072109536462 4.8266653097260628 13.011378489287306 0 5.2939559203393759e-23 1 1 0 0 forward_v I I I I #
coedge $-1 -1 $-1 $31 $32 $33 $34 forward $12 $-1 #
coedge $-1 -1 $-1 $35 $14 $36 $37 forward $7 $-1 #
coedge $-1 -1 $-1 $14 $35 $38 $39 reversed $7 $-1 #
coedge $-1 -1 $-1 $40 $41 $14 $24 forward $42 $-1 #
edge $43 -1 $-1 $44 -3.1415926535897896 $45 -1.5707963267948966 $14 $46 forward @7 unknown #
DXID-attrib $-1 -1 $-1 $16 $11 @18 ASM_FACE_FROM_STEP @21 USB - C inboard-36271 #
truecolor-adesk-attrib $-1 -1 $47 $-1 $17 -1029333354 #
face $48 -1 $-1 $49 $50 $3 $-1 $51 reversed single #
loop $-1 -1 $-1 $-1 $52 $17 #
plane-surface $-1 -1 $-1 21.899072109536462 4.5266665435166598 11.711378489287306 0 -5.2939559203393759e-23 -1 -1 0 0 forward_v I I I I #
coedge $-1 -1 $-1 $53 $54 $55 $56 reversed $18 $-1 #
coedge $-1 -1 $-1 $57 $20 $58 $59 forward $12 $-1 #
coedge $-1 -1 $-1 $20 $57 $60 $61 forward $12 $-1 #
coedge $-1 -1 $-1 $62 $63 $20 $34 reversed $64 $-1 #
edge $65 -1 $-1 $66 0 $67 0.00030000000000000024 $20 $68 forward @7 unknown #
coedge $-1 -1 $-1 $22 $21 $69 $70 reversed $7 $-1 #
coedge $-1 -1 $-1 $71 $72 $21 $37 reversed $73 $-1 #
edge $74 -1 $-1 $44 -0.00030000000000000024 $75 -7.3468396926392958e-42 $21 $76 forward @7 unknown #
coedge $-1 -1 $-1 $77 $78 $22 $39 forward $79 $-1 #
edge $80 -1 $-1 $45 0.0009999999999999998 $81 0.0012999999999999999 $22 $82 forward @7 unknown #
coedge $-1 -1 $-1 $83 $23 $78 $84 forward $42 $-1 #
coedge $-1 -1 $-1 $23 $85 $71 $86 reversed $42 $-1 #
loop $-1 -1 $-1 $-1 $40 $87 #
truecolor-adesk-attrib $-1 -1 $88 $-1 $24 -1029333354 #
vertex $-1 -1 $-1 $24 $89 #
vertex $-1 -1 $-1 $24 $90 #
ellipse-curve $-1 -1 $-1 22.765246952687683 4.5066665435166602 12.011378489287306 0 5.2939559203393759e-23 1 -0.31999999999999995 0 0 1 F -3.1415926535897896 F -1.5707963267948966 #
DXID-attrib $-1 -1 $-1 $26 $17 @18 ASM_FACE_FROM_STEP @21 USB - C inboard-19785 #
truecolor-adesk-attrib $-1 -1 $91 $-1 $27 -1029333354 #
face $92 -1 $-1 $93 $79 $3 $-1 $94 forward single #
loop $-1 -1 $-1 $-1 $95 $27 #
plane-surface $-1 -1 $-1 21.899072109536462 4.5266665435166598 13.011378489287306 0 1 -5.2939559203393759e-23 0 5.2939559203393759e-23 1 forward_v I I I I #
coedge $-1 -1 $-1 $96 $97 $98 $99 reversed $28 $-1 #
coedge $-1 -1 $-1 $100 $30 $101 $102 reversed $18 $-1 #
coedge $-1 -1 $-1 $30 $100 $103 $104 forward $18 $-1 #
coedge $-1 -1 $-1 $105 $106 $30 $56 forward $107 $-1 #
edge $108 -1 $-1 $109 -6.1629286195186146e-10 $110 0.00029999938250226436 $30 $111 forward @7 unknown #
coedge $-1 -1 $-1 $32 $31 $95 $112 forward $12 $-1 #
coedge $-1 -1 $-1 $113 $114 $31 $59 reversed $42 $-1 #
edge $115 -1 $-1 $67 -3.1415926535897913 $116 -1.5707963267948966 $31 $117 forward @7 unknown #
coedge $-1 -1 $-1 $118 $119 $32 $61 reversed $120 $-1 #
edge $121 -1 $-1 $122 -1.5707963267949008 $66 -4.0657581468206298e-15 $32 $123 forward @7 unknown #
coedge $-1 -1 $-1 $124 $33 $125 $126 reversed $64 $-1 #
coedge $-1 -1 $-1 $33 $127 $113 $128 reversed $64 $-1 #
loop $-1 -1 $-1 $-1 $62 $129 #
truecolor-adesk-attrib $-1 -1 $130 $-1 $34 -1029333354 #
vertex $-1 -1 $-1 $34 $131 #
vertex $-1 -1 $-1 $34 $132 #
straight-curve $-1 -1 $-1 22.785246952687686 4.5066665435166602 11.711378489287306 0 5.2939559203393765e-20 1000 F 0 F 0.00030000000000000024 #
coedge $-1 -1 $-1 $119 $118 $35 $70 forward $120 $-1 #
edge $133 -1 $-1 $81 -1.570796326794909 $75 -1.6408722254210309e-14 $35 $134 forward @7 unknown #
coedge $-1 -1 $-1 $135 $36 $41 $86 forward $73 $-1 #
coedge $-1 -1 $-1 $36 $136 $137 $138 forward $73 $-1 #
loop $-1 -1 $-1 $-1 $139 $140 #
truecolor-adesk-attrib $-1 -1 $141 $-1 $37 -1029333354 #
vertex $-1 -1 $-1 $37 $142 #
straight-curve $-1 -1 $-1 23.085246952687683 4.5066665435166611 11.711378489287306 0 -5.2939559203393765e-20 -1000 F -0.00030000000000000024 F -7.3468396926392958e-42 #
coedge $-1 -1 $-1 $143 $38 $144 $145 reversed $79 $-1 #
coedge $-1 -1 $-1 $38 $146 $40 $84 reversed $79 $-1 #
loop $-1 -1 $-1 $-1 $78 $49 #
truecolor-adesk-attrib $-1 -1 $147 $-1 $39 -1029333354 #
vertex $-1 -1 $-1 $70 $148 #
straight-curve $-1 -1 $-1 22.765246952687683 4.8266665435166605 13.011378489287306 0 -5.2939559203393765e-20 -1000 F 0.0009999999999999998 F 0.0012999999999999999 #
coedge $-1 -1 $-1 $114 $40 $149 $150 forward $42 $-1 #
edge $151 -1 $-1 $45 0.0005661748431512203 $152 0.00098234968630244108 $78 $153 forward @7 unknown #
coedge $-1 -1 $-1 $41 $113 $154 $155 forward $42 $-1 #
edge $156 -1 $-1 $44 -0.00014999999999998042 $157 0.00038000000000001715 $71 $158 forward @7 unknown #
face $159 -1 $-1 $160 $42 $3 $-1 $161 reversed single #
DXID-attrib $-1 -1 $-1 $43 $24 @18 ASM_EDGE_FROM_STEP @5 18499 #
point $-1 -1 $-1 23.085246952687683 4.5066665435166611 12.011378489287306 #
point $-1 -1 $-1 22.765246952687683 4.8266665435166631 12.011378489287306 #
DXID-attrib $-1 -1 $-1 $48 $27 @18 ASM_FACE_FROM_STEP @20 USB - C inboard-7791 #
truecolor-adesk-attrib $-1 -1 $162 $-1 $49 -1029333354 #
face $163 -1 $-1 $164 $165 $3 $-1 $166 reversed single #
plane-surface $-1 -1 $-1 21.899072109536462 4.8266665435166605 13.011378489287306 0 1 -5.2939559203393759e-23 0 5.2939559203393759e-23 1 forward_v I I I I #
coedge $-1 -1 $-1 $167 $168 $57 $112 reversed $50 $-1 #
coedge $-1 -1 $-1 $169 $52 $170 $171 reversed $28 $-1 #
coedge $-1 -1 $-1 $52 $169 $172 $173 forward $28 $-1 #
coedge $-1 -1 $-1 $144 $174 $52 $99 forward $175 $-1 #
edge $176 -1 $-1 $177 -6.1629286174369474e-10 $178 0.00029999938250226457 $52 $179 forward @7 unknown #
coedge $-1 -1 $-1 $54 $53 $180 $181 reversed $18 $-1 #
coedge $-1 -1 $-1 $182 $183 $53 $102 forward $165 $-1 #
edge $184 -1 $-1 $185 -2.9335484802632821 $109 -1.5707963267948966 $53 $186 forward @7 unknown #
coedge $-1 -1 $-1 $187 $188 $54 $104 reversed $189 $-1 #
edge $190 -1 $-1 $191 -2.9335484802632839 $110 -1.5707963267948966 $54 $192 forward @7 unknown #
coedge $-1 -1 $-1 $193 $55 $194 $195 forward $107 $-1 #
coedge $-1 -1 $-1 $55 $193 $196 $197 reversed $107 $-1 #
loop $-1 -1 $-1 $-1 $105 $198 #
truecolor-adesk-attrib $-1 -1 $199 $-1 $56 -1029333354 #
tvertex-vertex $-1 -1 $-1 $56 $200 6.1749773550001663e-07 #
tvertex-vertex $-1 -1 $-1 $56 $201 6.1749773536123875e-07 #
straight-curve $-1 -1 $-1 21.899072109536462 4.8266653097260628 13.011378489287306 0 -1000 -5.2939559203393771e-20 F -6.1629286195186146e-10 F 0.00029999938250226436 #
edge $202 -1 $-1 $116 0.0009999999999999998 $122 0.0012999999999999999 $57 $203 forward @7 unknown #
coedge $-1 -1 $-1 $85 $58 $63 $128 forward $42 $-1 #
coedge $-1 -1 $-1 $58 $83 $167 $204 reversed $42 $-1 #
truecolor-adesk-attrib $-1 -1 $205 $-1 $59 -1029333354 #
vertex $-1 -1 $-1 $59 $206 #
ellipse-curve $-1 -1 $-1 22.765246952687683 4.5066665435166602 12.011378489287306 0 5.2939559203393765e-23 1 -0.020000000000000052 0 0 1 F -3.1415926535897913 F -1.5707963267948966 #
coedge $-1 -1 $-1 $69 $60 $207 $208 reversed $120 $-1 #
coedge $-1 -1 $-1 $60 $69 $209 $210 reversed $120 $-1 #
loop $-1 -1 $-1 $-1 $119 $211 #
truecolor-adesk-attrib $-1 -1 $212 $-1 $61 -1029333354 #
vertex $-1 -1 $-1 $112 $213 #
ellipse-curve $-1 -1 $-1 22.765246952687683 4.5066665435166602 11.711378489287306 4.1761948595190557e-53 -5.2939559203393765e-23 -1 0.020000000000000052 -8.131516293641282e-17 4.3047888824058374e-39 1 F -1.5707963267949008 F -4.0657581468206298e-15 #
coedge $-1 -1 $-1 $214 $62 $215 $216 forward $64 $-1 #
coedge $-1 -1 $-1 $209 $217 $62 $126 forward $218 $-1 #
edge $219 -1 $-1 $220 -0.00055000000000000101 $66 -2.0000000000000259e-05 $125 $221 forward @7 unknown #
coedge $-1 -1 $-1 $63 $222 $223 $224 forward $64 $-1 #
edge $225 -1 $-1 $67 -0.00014999999999998034 $226 0.00038000000000001607 $63 $227 forward @7 unknown #
face $228 -1 $-1 $229 $64 $3 $-1 $230 forward single #
DXID-attrib $-1 -1 $-1 $65 $34 @18 ASM_EDGE_FROM_STEP @5 26173 #
point $-1 -1 $-1 22.785246952687686 4.5066665435166602 11.711378489287306 #
point $-1 -1 $-1 22.785246952687686 4.5066665435166602 12.011378489287306 #
truecolor-adesk-attrib $-1 -1 $231 $-1 $70 -1029333354 #
ellipse-curve $-1 -1 $-1 22.765246952687683 4.5066665435166602 11.711378489287306 8.3523897190381114e-53 -5.2939559203393759e-23 -1 0.31999999999999995 -3.9844429838842288e-15 2.1093465523788602e-37 1 F -1.570796326794909 F -1.6408722254210309e-14 #
coedge $-1 -1 $-1 $232 $71 $233 $234 forward $73 $-1 #
coedge $-1 -1 $-1 $72 $139 $235 $236 forward $73 $-1 #
coedge $-1 -1 $-1 $217 $209 $72 $138 reversed $218 $-1 #
edge $237 -1 $-1 $238 -0.00038000000000002051 $75 0.00014999999999998055 $137 $239 forward @7 unknown #
coedge $-1 -1 $-1 $136 $240 $241 $242 forward $73 $-1 #
face $243 -1 $-1 $129 $73 $3 $-1 $244 reversed single #
DXID-attrib $-1 -1 $-1 $74 $37 @18 ASM_EDGE_FROM_STEP @4 8067 #
point $-1 -1 $-1 23.085246952687683 4.5066665435166611 11.711378489287306 #
tcoedge-coedge $-1 -1 $-1 $196 $77 $182 $245 reversed $79 $246 -0.0012999999999999999 0 #
coedge $-1 -1 $-1 $207 $98 $77 $145 forward $175 $-1 #
edge $247 -1 $-1 $178 0 $81 0.0008661748431512212 $77 $248 forward @7 unknown #
coedge $-1 -1 $-1 $78 $249 $250 $251 forward $79 $-1 #
DXID-attrib $-1 -1 $-1 $80 $39 @18 ASM_EDGE_FROM_STEP @4 3805 #
point $-1 -1 $-1 22.765246952687683 4.8266665435166605 11.711378489287306 #
coedge $-1 -1 $-1 $250 $252 $83 $150 reversed $253 $-1 #
edge $254 -1 $-1 $152 -0.00030000000000000296 $255 1.3877787807814457e-19 $83 $256 forward @7 unknown #
truecolor-adesk-attrib $-1 -1 $257 $-1 $84 -1029333354 #
vertex $-1 -1 $-1 $84 $258 #
straight-curve $-1 -1 $-1 23.331421795838907 4.826666543516664 12.011378489287306 -1000 -7.2164496600635165e-13 2.6469779601696883e-20 F 0.0005661748431512203 F 0.00098234968630244108 #
coedge $-1 -1 $-1 $223 $233 $85 $155 reversed $259 $-1 #
edge $260 -1 $-1 $226 -0.00054617484315121808 $157 -0.00024617484315121897 $85 $261 forward @7 unknown #
truecolor-adesk-attrib $-1 -1 $262 $-1 $86 -1029333354 #
vertex $-1 -1 $-1 $86 $263 #
straight-curve $-1 -1 $-1 23.085246952687683 4.3566665435166803 12.011378489287306 3.4416913763379853e-12 -1000 -2.6469779601696886e-20 F -0.00014999999999998042 F 0.00038000000000001715 #
truecolor-adesk-attrib $-1 -1 $264 $-1 $87 -1029333354 #
face $265 -1 $-1 $266 $267 $3 $-1 $268 reversed single #
plane-surface $-1 -1 $-1 23.331421795838907 3.8266665435166636 12.011378489287306 0 -5.2939559203393759e-23 -1 -1 0 0 forward_v I I I I #
DXID-attrib $-1 -1 $-1 $92 $49 @18 ASM_FACE_FROM_STEP @21 USB - C inboard-37417 #
truecolor-adesk-attrib $-1 -1 $269 $-1 $93 -1029333354 #
face $270 -1 $-1 $271 $272 $3 $-1 $273 forward single #
loop $-1 -1 $-1 $-1 $172 $93 #
cone-surface $-1 -1 $-1 21.899072109536462 4.9256673639810131 13.011378489287306 -0 -5.2939559203393759e-23 -1 -0.099002054254950303 0 0 1 I I 0 1 0.099002054254950303 forward I I I I #
coedge $-1 -1 $-1 $274 $95 $114 $204 forward $50 $-1 #
coedge $-1 -1 $-1 $95 $275 $174 $276 forward $50 $-1 #
coedge $-1 -1 $-1 $97 $96 $277 $278 forward $28 $-1 #
coedge $-1 -1 $-1 $188 $187 $96 $171 forward $189 $-1 #
edge $279 -1 $-1 $280 -2.9335484802632839 $177 -1.5707963267948966 $96 $281 forward @7 unknown #
coedge $-1 -1 $-1 $183 $182 $97 $173 reversed $165 $-1 #
edge $282 -1 $-1 $283 -2.9335484802632821 $178 -1.5707963267948966 $97 $284 forward @7 unknown #
coedge $-1 -1 $-1 $98 $207 $168 $276 reversed $175 $-1 #
loop $-1 -1 $-1 $-1 $174 $285 #
truecolor-adesk-attrib $-1 -1 $286 $-1 $99 -1029333354 #
tvertex-vertex $-1 -1 $-1 $99 $287 6.1749773536123875e-07 #
tvertex-vertex $-1 -1 $-1 $99 $288 6.1749773550001663e-07 #
straight-curve $-1 -1 $-1 21.899072109536462 4.5266665435166598 11.711378489287306 0 1000 5.2939559203393771e-20 F -6.1629286174369474e-10 F 0.00029999938250226457 #
coedge $-1 -1 $-1 $289 $290 $100 $181 forward $272 $-1 #
edge $291 -1 $-1 $191 0 $185 0.00029999999999999997 $100 $292 forward @7 unknown #
tcoedge-coedge $-1 -1 $-1 $172 $101 $143 $245 forward $165 $293 0 0.0012999999999999999 #
coedge $-1 -1 $-1 $101 $172 $289 $294 reversed $165 $-1 #
truecolor-adesk-attrib $-1 -1 $295 $-1 $102 -1029333354 #
vertex $-1 -1 $-1 $102 $296 #
ellipse-curve $-1 -1 $-1 21.899072109536462 4.9256673639810131 13.011378489287306 0 5.2939559203393759e-23 1 0.099002054254950303 0 0 1 F -2.9335484802632821 F -1.5707963267948966 #
coedge $-1 -1 $-1 $170 $103 $290 $297 forward $189 $-1 #
tcoedge-coedge $-1 -1 $-1 $103 $170 $275 $298 reversed $189 $299 -0.0012999999999999999 -3.2626272440909289e-32 #
loop $-1 -1 $-1 $-1 $170 $271 #
truecolor-adesk-attrib $-1 -1 $300 $-1 $104 -1029333354 #
vertex $-1 -1 $-1 $181 $301 #
ellipse-curve $-1 -1 $-1 21.899072109536462 4.9256673639810131 13.011378489287306 0 5.2939559203393759e-23 1 0.39900205425495022 0 0 1 F -2.9335484802632839 F -1.5707963267948966 #
coedge $-1 -1 $-1 $106 $105 $302 $303 reversed $107 $-1 #
coedge $-1 -1 $-1 $275 $304 $105 $195 reversed $50 $-1 #
edge $305 -1 $-1 $110 0 $306 0.0008661748431512212 $194 $307 forward @7 unknown #
coedge $-1 -1 $-1 $308 $143 $106 $197 forward $79 $-1 #
edge $309 -1 $-1 $109 0 $310 0.0008661748431512212 $196 $311 forward @7 unknown #
face $312 -1 $-1 $285 $107 $3 $-1 $313 forward single #
DXID-attrib $-1 -1 $-1 $108 $56 @18 ASM_EDGE_FROM_STEP @5 13273 #
point $-1 -1 $-1 21.899072109536462 4.8266659260189249 13.011378489287306 #
point $-1 -1 $-1 21.899072109536462 4.5266659272237986 13.011378489287306 #
truecolor-adesk-attrib $-1 -1 $314 $-1 $112 -1029333354 #
straight-curve $-1 -1 $-1 22.765246952687683 4.5266665435166598 13.011378489287306 0 -5.2939559203393765e-20 -1000 F 0.0009999999999999998 F 0.0012999999999999999 #
edge $315 -1 $-1 $116 -0.0008661748431512212 $255 -0.00045000000000000042 $167 $316 forward @7 unknown #
DXID-attrib $-1 -1 $-1 $115 $59 @18 ASM_EDGE_FROM_STEP @4 4422 #
point $-1 -1 $-1 22.765246952687683 4.5266665435166598 12.011378489287306 #
coedge $-1 -1 $-1 $174 $144 $118 $208 forward $175 $-1 #
edge $317 -1 $-1 $81 0 $122 0.00030000000000000024 $207 $318 forward @7 unknown #
coedge $-1 -1 $-1 $137 $125 $119 $210 forward $218 $-1 #
edge $319 -1 $-1 $66 -0.00030000000000000024 $75 4.930380657631323e-34 $119 $320 forward @7 unknown #
face $321 -1 $-1 $322 $120 $3 $-1 $323 forward single #
DXID-attrib $-1 -1 $-1 $121 $61 @18 ASM_EDGE_FROM_STEP @4 5624 #
point $-1 -1 $-1 22.765246952687683 4.5266665435166598 11.711378489287306 #
coedge $-1 -1 $-1 $324 $124 $325 $326 reversed $64 $-1 #
coedge $-1 -1 $-1 $327 $328 $124 $216 reversed $329 $-1 #
edge $330 -1 $-1 $220 -1.5707963267948963 $331 0 $124 $332 forward @7 unknown #
coedge $-1 -1 $-1 $125 $137 $327 $333 forward $218 $-1 #
loop $-1 -1 $-1 $-1 $137 $334 #
truecolor-adesk-attrib $-1 -1 $335 $-1 $126 -1029333354 #
vertex $-1 -1 $-1 $333 $336 #
straight-curve $-1 -1 $-1 22.785246952687686 4.5266665435166598 11.711378489287306 -3.4416913763379853e-12 1000 2.6469779601696886e-20 F -0.00055000000000000101 F -2.0000000000000259e-05 #
coedge $-1 -1 $-1 $127 $337 $338 $339 forward $64 $-1 #
coedge $-1 -1 $-1 $340 $154 $127 $224 reversed $259 $-1 #
edge $341 -1 $-1 $342 0 $226 1.5707963267948974 $127 $343 forward @7 unknown #
truecolor-adesk-attrib $-1 -1 $344 $-1 $128 -1029333354 #
vertex $-1 -1 $-1 $224 $345 #
straight-curve $-1 -1 $-1 22.785246952687686 4.3566665435166794 12.011378489287306 3.4416913763379853e-12 -1000 -2.6469779601696886e-20 F -0.00014999999999998034 F 0.00038000000000001607 #
truecolor-adesk-attrib $-1 -1 $346 $-1 $129 -1029333354 #
face $347 -1 $-1 $348 $349 $3 $-1 $350 reversed single #
plane-surface $-1 -1 $-1 22.785246952687686 4.3566665435166794 7.9113784892873049 -1 -3.4416913763379853e-15 2.9387358770556979e-39 3.4416913763379853e-15 -1 -2.6469779601696886e-23 forward_v I I I I #
DXID-attrib $-1 -1 $-1 $133 $70 @18 ASM_EDGE_FROM_STEP @5 33494 #
coedge $-1 -1 $-1 $351 $135 $352 $353 reversed $73 $-1 #
coedge $-1 -1 $-1 $154 $340 $135 $234 reversed $259 $-1 #
edge $354 -1 $-1 $157 -1.5707963267948966 $355 0 $135 $356 forward @7 unknown #
coedge $-1 -1 $-1 $328 $327 $136 $236 reversed $329 $-1 #
edge $357 -1 $-1 $358 0 $238 1.5707963267948966 $136 $359 forward @7 unknown #
truecolor-adesk-attrib $-1 -1 $360 $-1 $138 -1029333354 #
vertex $-1 -1 $-1 $138 $361 #
straight-curve $-1 -1 $-1 23.085246952687683 4.3566665435166803 11.711378489287306 -3.4416913763379853e-12 1000 2.6469779601696886e-20 F -0.00038000000000002051 F 0.00014999999999998055 #
coedge $-1 -1 $-1 $139 $362 $363 $364 forward $73 $-1 #
coedge $-1 -1 $-1 $365 $366 $139 $242 reversed $349 $-1 #
edge $367 -1 $-1 $368 -0.0046500000000000005 $358 -0.0042500000000000003 $139 $369 forward @7 unknown #
truecolor-adesk-attrib $-1 -1 $370 $-1 $140 -1029333354 #
plane-surface $-1 -1 $-1 23.085246952687683 4.3566665435166803 7.9113784892873049 -1 -3.4416913763379853e-15 2.9387358770556979e-39 3.4416913763379853e-15 -1 -2.6469779601696886e-23 forward_v I I I I #
tedge-edge $371 -1 $-1 $109 0 $178 0.0012999999999999999 $143 $372 forward @7 tangent 1.2337905974657559e-06 #
pcurve $-1 -1 $-1 0 forward { exppc nubs 1 open 2 
	-0.0012999999999999999 1 0 1 
	-1.2999999999999998 0 
	0 0 
	0 
	plane 21.899072109536462 4.8266665435166605 13.011378489287306 0 1 -5.2939559203393759e-23 0 5.2939559203393759e-23 1 forward_v I I I I 
	} 0 0 #
truecolor-adesk-attrib $-1 -1 $373 $-1 $145 -1029333354 #
straight-curve $-1 -1 $-1 21.899072109536462 4.8266665435166605 11.711378489287306 1000 0 2.6469779601696886e-20 F 0 F 0.0008661748431512212 #
coedge $-1 -1 $-1 $146 $374 $375 $376 reversed $79 $-1 #
coedge $-1 -1 $-1 $377 $149 $146 $251 reversed $253 $-1 #
edge $378 -1 $-1 $379 1.5707963267948966 $152 3.1415926535897931 $146 $380 forward @7 unknown #
coedge $-1 -1 $-1 $149 $377 $274 $381 reversed $253 $-1 #
loop $-1 -1 $-1 $-1 $252 $382 #
truecolor-adesk-attrib $-1 -1 $383 $-1 $150 -1029333354 #
vertex $-1 -1 $-1 $204 $384 #
straight-curve $-1 -1 $-1 22.349072109536465 4.5266665435166598 12.011378489287306 6.106226635438361e-13 -1000 -5.2939559203393771e-20 F -0.00030000000000000296 F 1.3877787807814457e-19 #
DXID-attrib $-1 -1 $-1 $151 $84 @18 ASM_EDGE_FROM_STEP @4 4205 #
point $-1 -1 $-1 22.349072109536465 4.8266665435166631 12.011378489287306 #
loop $-1 -1 $-1 $-1 $233 $385 #
truecolor-adesk-attrib $-1 -1 $386 $-1 $155 -1029333354 #
straight-curve $-1 -1 $-1 23.331421795838907 3.9766665435166635 12.011378489287306 1000 7.2164496600635165e-13 -2.6469779601696883e-20 F -0.00054617484315121808 F -0.00024617484315121897 #
DXID-attrib $-1 -1 $-1 $156 $86 @18 ASM_EDGE_FROM_STEP @5 33029 #
point $-1 -1 $-1 23.085246952687687 3.9766665435166635 12.011378489287306 #
DXID-attrib $-1 -1 $-1 $159 $87 @18 ASM_FACE_FROM_STEP @21 USB - C inboard-13407 #
truecolor-adesk-attrib $-1 -1 $387 $-1 $160 -1029333354 #
face $388 -1 $-1 $389 $390 $3 $-1 $391 forward single #
loop $-1 -1 $-1 $-1 $392 $160 #
plane-surface $-1 -1 $-1 23.331421795838907 3.8266665435166636 12.711378489287306 0 5.2939559203393759e-23 1 1 0 0 forward_v I I I I #
DXID-attrib $-1 -1 $-1 $163 $93 @18 ASM_FACE_FROM_STEP @21 USB - C inboard-18394 #
truecolor-adesk-attrib $-1 -1 $393 $-1 $164 -1029333354 #
face $394 -1 $-1 $198 $189 $3 $-1 $395 forward single #
loop $-1 -1 $-1 $-1 $277 $164 #
plane-surface $-1 -1 $-1 21.508673834218399 4.8432548289614399 13.011378489287306 -0.20654664340879347 0.97843675528700413 7.3468396926392969e-40 -0.97843675528700425 -0.20654664340879347 -2.646977960169688e-23 forward_v I I I I #
coedge $-1 -1 $-1 $396 $167 $252 $381 forward $50 $-1 #
tcoedge-coedge $-1 -1 $-1 $168 $194 $188 $298 forward $50 $397 3.2626272440909289e-32 0.0012999999999999999 #
edge $398 -1 $-1 $177 0 $122 0.0008661748431512212 $168 $399 forward @7 unknown #
coedge $-1 -1 $-1 $290 $289 $169 $278 reversed $272 $-1 #
edge $400 -1 $-1 $280 0 $283 0.00029999999999999997 $169 $401 forward @7 unknown #
truecolor-adesk-attrib $-1 -1 $402 $-1 $171 -1029333354 #
vertex $-1 -1 $-1 $171 $403 #
ellipse-curve $-1 -1 $-1 21.899072109536462 4.9256673639810131 11.711378489287306 0 5.2939559203393759e-23 1 0.39900205425495022 0 0 1 F -2.9335484802632839 F -1.5707963267948966 #
truecolor-adesk-attrib $-1 -1 $404 $-1 $173 -1029333354 #
vertex $-1 -1 $-1 $278 $405 #
ellipse-curve $-1 -1 $-1 21.899072109536462 4.9256673639810131 11.711378489287306 0 5.2939559203393759e-23 1 0.099002054254950303 0 0 1 F -2.9335484802632821 F -1.5707963267948966 #
face $406 -1 $-1 $211 $175 $3 $-1 $407 reversed single #
DXID-attrib $-1 -1 $-1 $176 $99 @18 ASM_EDGE_FROM_STEP @5 10265 #
point $-1 -1 $-1 21.899072109536462 4.5266659272237986 11.711378489287306 #
point $-1 -1 $-1 21.899072109536462 4.8266659260189249 11.711378489287306 #
coedge $-1 -1 $-1 $277 $180 $183 $294 forward $272 $-1 #
coedge $-1 -1 $-1 $180 $277 $187 $297 reversed $272 $-1 #
truecolor-adesk-attrib $-1 -1 $408 $-1 $181 -1029333354 #
straight-curve $-1 -1 $-1 21.508673834218399 4.8432548289614399 13.011378489287306 978.4367552870043 206.5466434087935 2.6469779601696886e-20 F 0 F 0.00029999999999999997 #
pcurve $-1 -1 $-1 0 forward { exppc nubs 1 open 2 
	0 1 0.0012999999999999999 1 
	5.2939559203393865e-23 -1.5707963267948966 
	13.13104066156281 -1.5707963267948966 
	0 
	cone 21.899072109536462 4.9256673639810131 13.011378489287306 -0 -5.2939559203393759e-23 -1 -0.099002054254950303 0 0 1 I I 0 -1 0.099002054254950303 forward I I I I 
	} 0 0 #
edge $409 -1 $-1 $185 0 $283 0.0012999999999999999 $183 $410 forward @7 unknown #
DXID-attrib $-1 -1 $-1 $184 $102 @18 ASM_EDGE_FROM_STEP @4 8408 #
point $-1 -1 $-1 21.802204860804501 4.9052188219840778 13.011378489287306 #
edge $411 -1 $-1 $191 0 $280 0.0012999999999999999 $290 $412 forward @7 unknown #
tedge-edge $413 -1 $-1 $110 3.2626272440909289e-32 $177 0.0012999999999999999 $275 $414 forward @7 tangent 1.2337905971049334e-06 #
pcurve $-1 -1 $-1 0 forward { exppc nubs 1 open 2 
	-0.0012999999999999999 1 -3.2626272440909289e-32 1 
	3.2581285889053073 -1.5707963267948966 
	5.2939559203393754e-23 -1.5707963267948966 
	0 
	cone 21.899072109536462 4.9256673639810131 13.011378489287306 -0 -5.2939559203393759e-23 -1 -0.39900205425495022 0 0 1 I I 0 1 0.39900205425495022 forward I I I I 
	} 0 0 #
DXID-attrib $-1 -1 $-1 $190 $104 @18 ASM_EDGE_FROM_STEP @3 788 #
point $-1 -1 $-1 21.508673834218399 4.8432548289614399 13.011378489287306 #
coedge $-1 -1 $-1 $415 $416 $193 $303 forward $417 $-1 #
edge $418 -1 $-1 $310 2.7755575615628914e-19 $306 0.00030000000000000046 $193 $419 forward @7 unknown #
coedge $-1 -1 $-1 $194 $420 $421 $422 reversed $50 $-1 #
truecolor-adesk-attrib $-1 -1 $423 $-1 $195 -1029333354 #
vertex $-1 -1 $-1 $422 $424 #
straight-curve $-1 -1 $-1 21.899072109536462 4.5266665435166598 13.011378489287306 1000 0 0 F 0 F 0.0008661748431512212 #
coedge $-1 -1 $-1 $425 $196 $426 $427 forward $79 $-1 #
truecolor-adesk-attrib $-1 -1 $428 $-1 $197 -1029333354 #
vertex $-1 -1 $-1 $197 $429 #
straight-curve $-1 -1 $-1 21.899072109536462 4.8266665435166605 13.011378489287306 1000 0 2.6469779601696886e-20 F 0 F 0.0008661748431512212 #
truecolor-adesk-attrib $-1 -1 $430 $-1 $198 -1029333354 #
plane-surface $-1 -1 $-1 21.899072109536462 4.9256673639810131 13.011378489287306 0 5.2939559203393759e-23 1 1 0 0 forward_v I I I I #
DXID-attrib $-1 -1 $-1 $202 $112 @18 ASM_EDGE_FROM_STEP @5 31273 #
truecolor-adesk-attrib $-1 -1 $431 $-1 $204 -1029333354 #
straight-curve $-1 -1 $-1 21.899072109536462 4.5266665435166598 12.011378489287306 -1000 0 0 F -0.0008661748431512212 F -0.00045000000000000042 #
truecolor-adesk-attrib $-1 -1 $432 $-1 $208 -1029333354 #
straight-curve $-1 -1 $-1 22.765246952687683 4.8266665435166605 11.711378489287306 0 -1000 -5.2939559203393771e-20 F 0 F 0.00030000000000000024 #
truecolor-adesk-attrib $-1 -1 $433 $-1 $210 -1029333354 #
straight-curve $-1 -1 $-1 23.085246952687683 4.5066665435166611 11.711378489287306 1000 3.5527136788005005e-12 0 F -0.00030000000000000024 F 4.930380657631323e-34 #
truecolor-adesk-attrib $-1 -1 $434 $-1 $211 -1029333354 #
face $435 -1 $-1 $436 $417 $3 $-1 $437 reversed single #
plane-surface $-1 -1 $-1 22.765246952687683 4.5066665435166602 11.711378489287306 0 -5.2939559203393759e-23 -1 -1 0 0 forward_v I I I I #
coedge $-1 -1 $-1 $438 $214 $439 $440 forward $64 $-1 #
coedge $-1 -1 $-1 $366 $365 $214 $326 forward $349 $-1 #
edge $441 -1 $-1 $442 -0.00084999999999999963 $331 -0.00044999999999999928 $214 $443 forward @7 unknown #
coedge $-1 -1 $-1 $235 $215 $217 $333 reversed $329 $-1 #
coedge $-1 -1 $-1 $215 $235 $366 $444 reversed $329 $-1 #
loop $-1 -1 $-1 $-1 $235 $445 #
truecolor-adesk-attrib $-1 -1 $446 $-1 $216 -1029333354 #
vertex $-1 -1 $-1 $216 $447 #
ellipse-curve $-1 -1 $-1 22.785246952687686 3.976666543516659 12.161378489287305 -1 -3.5527136788004997e-15 0 1.5987211554602251e-15 -0.45000000000000007 0 1 F -1.5707963267948963 F 0 #
edge $448 -1 $-1 $238 -4.930380657631323e-34 $220 0.00030000000000000024 $217 $449 forward @7 unknown #
face $450 -1 $-1 $140 $218 $3 $-1 $451 reversed single #
DXID-attrib $-1 -1 $-1 $219 $126 @18 ASM_EDGE_FROM_STEP @5 15448 #
point $-1 -1 $-1 22.785246952687686 3.976666543516659 11.711378489287306 #
coedge $-1 -1 $-1 $222 $452 $453 $454 forward $64 $-1 #
coedge $-1 -1 $-1 $455 $456 $222 $339 reversed $390 $-1 #
edge $457 -1 $-1 $458 -0.0046500000000000014 $342 -0.0042500000000000003 $222 $459 forward @7 unknown #
coedge $-1 -1 $-1 $233 $223 $456 $460 reversed $259 $-1 #
truecolor-adesk-attrib $-1 -1 $461 $-1 $224 -1029333354 #
vertex $-1 -1 $-1 $339 $462 #
ellipse-curve $-1 -1 $-1 22.785246952687686 3.9766665435166635 12.161378489287305 1 3.5527136788005001e-15 0 5.3290705182007492e-16 -0.14999999999999997 0 1 F 0 F 1.5707963267948974 #
DXID-attrib $-1 -1 $-1 $225 $128 @18 ASM_EDGE_FROM_STEP @5 11752 #
point $-1 -1 $-1 22.785246952687686 3.9766665435166635 12.011378489287306 #
DXID-attrib $-1 -1 $-1 $228 $129 @18 ASM_FACE_FROM_STEP @20 USB - C inboard-2454 #
truecolor-adesk-attrib $-1 -1 $463 $-1 $229 -1029333354 #
face $464 -1 $-1 $87 $465 $3 $-1 $466 reversed single #
loop $-1 -1 $-1 $-1 $325 $229 #
plane-surface $-1 -1 $-1 23.085246952687687 3.5266665435166598 11.711378489287306 -3.5527136788005001e-15 1 2.6469779601696886e-23 -1 -3.5527136788005001e-15 0 forward_v I I I I #
coedge $-1 -1 $-1 $467 $232 $468 $469 forward $73 $-1 #
coedge $-1 -1 $-1 $456 $455 $232 $353 forward $390 $-1 #
edge $470 -1 $-1 $471 -0.0046500000000000014 $355 -0.0042500000000000003 $232 $472 forward @7 unknown #
truecolor-adesk-attrib $-1 -1 $473 $-1 $234 -1029333354 #
vertex $-1 -1 $-1 $234 $474 #
ellipse-curve $-1 -1 $-1 23.085246952687687 3.9766665435166635 12.161378489287305 -1 -3.5527136788005001e-15 0 5.3290705182007492e-16 -0.14999999999999997 0 1 F -1.5707963267948966 F 0 #
truecolor-adesk-attrib $-1 -1 $475 $-1 $236 -1029333354 #
vertex $-1 -1 $-1 $242 $476 #
ellipse-curve $-1 -1 $-1 23.085246952687687 3.9766665435166599 12.161378489287305 1 3.5527136788004997e-15 0 1.5987211554602251e-15 -0.45000000000000007 0 1 F 0 F 1.5707963267948966 #
DXID-attrib $-1 -1 $-1 $237 $138 @18 ASM_EDGE_FROM_STEP @3 282 #
point $-1 -1 $-1 23.085246952687687 3.9766665435166599 11.711378489287306 #
coedge $-1 -1 $-1 $240 $477 $478 $479 forward $73 $-1 #
coedge $-1 -1 $-1 $480 $481 $240 $364 reversed $482 $-1 #
edge $483 -1 $-1 $484 -1.5707963267948966 $368 0 $240 $485 forward @7 unknown #
coedge $-1 -1 $-1 $325 $241 $481 $486 forward $349 $-1 #
coedge $-1 -1 $-1 $241 $325 $328 $444 forward $349 $-1 #
truecolor-adesk-attrib $-1 -1 $487 $-1 $242 -1029333354 #
vertex $-1 -1 $-1 $242 $488 #
straight-curve $-1 -1 $-1 23.085246952687687 3.5266665435166598 7.9113784892873049 0 -5.2939559203393765e-20 -1000 F -0.0046500000000000005 F -0.0042500000000000003 #
DXID-attrib $-1 -1 $-1 $243 $140 @18 ASM_FACE_FROM_STEP @21 USB - C inboard-17727 #
truecolor-adesk-attrib $-1 -1 $489 $-1 $245 -1029333354 #
straight-curve $-1 -1 $-1 21.899072109536462 4.8266653097260628 13.011378489287306 0 -5.2939559203393765e-20 -1000 F 0 F 0.0012999999999999999 #
DXID-attrib $-1 -1 $-1 $247 $145 @18 ASM_EDGE_FROM_STEP @5 19592 #
coedge $-1 -1 $-1 $249 $425 $490 $491 forward $79 $-1 #
coedge $-1 -1 $-1 $492 $493 $249 $376 forward $465 $-1 #
edge $494 -1 $-1 $379 -0.00055000000000000155 $495 -0.00015000000000000012 $249 $496 forward @7 unknown #
coedge $-1 -1 $-1 $252 $250 $493 $497 reversed $253 $-1 #
truecolor-adesk-attrib $-1 -1 $498 $-1 $251 -1029333354 #
vertex $-1 -1 $-1 $376 $499 #
ellipse-curve $-1 -1 $-1 22.349072109536465 4.8266665435166605 12.161378489287305 0 -1 -5.2939559203393771e-23 0 -7.9409338805090639e-24 0.14999999999999997 1 F 1.5707963267948966 F 3.1415926535897931 #
edge $500 -1 $-1 $255 -3.1415926535897931 $501 -1.5707963267948966 $274 $502 forward @7 unknown #
face $503 -1 $-1 $504 $253 $3 $-1 $505 reversed single #
DXID-attrib $-1 -1 $-1 $254 $150 @18 ASM_EDGE_FROM_STEP @5 28841 #
point $-1 -1 $-1 22.349072109536465 4.5266665435166598 12.011378489287306 #
face $506 -1 $-1 $445 $259 $3 $-1 $507 reversed single #
DXID-attrib $-1 -1 $-1 $260 $155 @18 ASM_EDGE_FROM_STEP @5 37204 #
DXID-attrib $-1 -1 $-1 $265 $160 @18 ASM_FACE_FROM_STEP @21 USB - C inboard-10268 #
truecolor-adesk-attrib $-1 -1 $508 $-1 $266 -1029333354 #
face $509 -1 $-1 $382 $510 $3 $-1 $511 reversed single #
loop $-1 -1 $-1 $-1 $338 $266 #
plane-surface $-1 -1 $-1 17.360246952687685 3.82666654351666 7.9113784892873049 -7.2164496600635155e-16 1 5.2939559203393771e-23 -1 -7.2164496600635165e-16 2.646977960169688e-23 forward_v I I I I #
coedge $-1 -1 $-1 $512 $513 $467 $514 reversed $267 $-1 #
DXID-attrib $-1 -1 $-1 $270 $164 @18 ASM_FACE_FROM_STEP @20 USB - C inboard-9921 #
truecolor-adesk-attrib $-1 -1 $515 $-1 $271 -1029333354 #
cone-surface $-1 -1 $-1 21.899072109536462 4.9256673639810131 13.011378489287306 -0 -5.2939559203393759e-23 -1 -0.39900205425495022 0 0 1 I I 0 1 0.39900205425495022 forward I I I I #
coedge $-1 -1 $-1 $516 $274 $517 $518 forward $50 $-1 #
pcurve $-1 -1 $-1 0 forward { exppc nubs 1 open 2 
	3.2626272440909289e-32 1 0.0012999999999999999 1 
	0 0 
	-1.2999999999999998 0 
	0 
	plane 21.899072109536462 4.5266665435166598 13.011378489287306 0 -1 5.2939559203393759e-23 0 5.2939559203393759e-23 1 reverse_v I I I I 
	} 0 0 #
truecolor-adesk-attrib $-1 -1 $519 $-1 $276 -1029333354 #
straight-curve $-1 -1 $-1 21.899072109536462 4.5266665435166598 11.711378489287306 1000 0 0 F 0 F 0.0008661748431512212 #
truecolor-adesk-attrib $-1 -1 $520 $-1 $278 -1029333354 #
straight-curve $-1 -1 $-1 21.508673834218399 4.8432548289614399 11.711378489287306 978.4367552870043 206.5466434087935 2.6469779601696886e-20 F 0 F 0.00029999999999999997 #
DXID-attrib $-1 -1 $-1 $279 $171 @18 ASM_EDGE_FROM_STEP @5 19972 #
point $-1 -1 $-1 21.508673834218399 4.8432548289614399 11.711378489287306 #
DXID-attrib $-1 -1 $-1 $282 $173 @18 ASM_EDGE_FROM_STEP @5 13795 #
point $-1 -1 $-1 21.802204860804501 4.9052188219840778 11.711378489287306 #
truecolor-adesk-attrib $-1 -1 $521 $-1 $285 -1029333354 #
plane-surface $-1 -1 $-1 21.899072109536462 4.9256673639810131 11.711378489287306 0 5.2939559203393759e-23 1 1 0 0 forward_v I I I I #
DXID-attrib $-1 -1 $-1 $291 $181 @18 ASM_EDGE_FROM_STEP @5 22837 #
truecolor-adesk-attrib $-1 -1 $522 $-1 $294 -1029333354 #
straight-curve $-1 -1 $-1 21.802204860804501 4.9052188219840778 13.011378489287306 0 -5.2939559203393765e-20 -1000 F 0 F 0.0012999999999999999 #
truecolor-adesk-attrib $-1 -1 $523 $-1 $297 -1029333354 #
straight-curve $-1 -1 $-1 21.508673834218399 4.8432548289614399 13.011378489287306 0 -5.2939559203393765e-20 -1000 F 0 F 0.0012999999999999999 #
truecolor-adesk-attrib $-1 -1 $524 $-1 $298 -1029333354 #
straight-curve $-1 -1 $-1 21.899072109536462 4.5266665435166598 13.011378489287306 0 -5.2939559203393765e-20 -1000 F 3.2626272440909289e-32 F 0.0012999999999999999 #
coedge $-1 -1 $-1 $525 $302 $526 $527 reversed $417 $-1 #
coedge $-1 -1 $-1 $302 $525 $528 $529 forward $417 $-1 #
loop $-1 -1 $-1 $-1 $415 $322 #
truecolor-adesk-attrib $-1 -1 $530 $-1 $303 -1029333354 #
straight-curve $-1 -1 $-1 22.765246952687683 4.8266665435166605 13.011378489287306 0 -1000 -5.2939559203393771e-20 F 2.7755575615628914e-19 F 0.00030000000000000046 #
coedge $-1 -1 $-1 $304 $516 $531 $532 forward $50 $-1 #
coedge $-1 -1 $-1 $533 $526 $304 $422 forward $534 $-1 #
edge $535 -1 $-1 $306 1.1020259538958944e-41 $536 0.00029999999999999916 $304 $537 forward @7 unknown #
DXID-attrib $-1 -1 $-1 $305 $195 @18 ASM_EDGE_FROM_STEP @5 20702 #
point $-1 -1 $-1 22.765246952687683 4.5266665435166598 13.011378489287306 #
coedge $-1 -1 $-1 $374 $308 $538 $539 reversed $79 $-1 #
coedge $-1 -1 $-1 $528 $540 $308 $427 reversed $541 $-1 #
edge $542 -1 $-1 $310 1.4693679385278592e-41 $543 0.00029999999999999916 $308 $544 forward @7 unknown #
DXID-attrib $-1 -1 $-1 $309 $197 @18 ASM_EDGE_FROM_STEP @4 2260 #
point $-1 -1 $-1 22.765246952687683 4.8266665435166596 13.011378489287306 #
DXID-attrib $-1 -1 $-1 $312 $198 @18 ASM_FACE_FROM_STEP @21 USB - C inboard-30349 #
DXID-attrib $-1 -1 $-1 $315 $204 @18 ASM_EDGE_FROM_STEP @5 16443 #
DXID-attrib $-1 -1 $-1 $317 $208 @18 ASM_EDGE_FROM_STEP @5 30941 #
DXID-attrib $-1 -1 $-1 $319 $210 @18 ASM_EDGE_FROM_STEP @5 29482 #
DXID-attrib $-1 -1 $-1 $321 $211 @18 ASM_FACE_FROM_STEP @21 USB - C inboard-23325 #
truecolor-adesk-attrib $-1 -1 $545 $-1 $322 -1029333354 #
face $546 -1 $-1 $547 $541 $3 $-1 $548 forward single #
plane-surface $-1 -1 $-1 22.765246952687683 4.5066665435166602 13.011378489287306 0 -5.2939559203393759e-23 -1 -1 0 0 forward_v I I I I #
coedge $-1 -1 $-1 $549 $324 $550 $551 reversed $64 $-1 #
coedge $-1 -1 $-1 $481 $480 $324 $440 reversed $482 $-1 #
edge $552 -1 $-1 $442 0 $553 1.5707963267948966 $324 $554 forward @7 unknown #
truecolor-adesk-attrib $-1 -1 $555 $-1 $326 -1029333354 #
vertex $-1 -1 $-1 $326 $556 #
straight-curve $-1 -1 $-1 22.78524695268769 3.5266665435166589 11.711378489287306 0 -5.2939559203393765e-20 -1000 F -0.00084999999999999963 F -0.00044999999999999928 #
edge $557 -1 $-1 $331 -0.00029999999999999916 $358 0 $366 $558 forward @7 unknown #
face $559 -1 $-1 $560 $329 $3 $-1 $561 forward single #
DXID-attrib $-1 -1 $-1 $330 $216 @18 ASM_EDGE_FROM_STEP @5 21299 #
point $-1 -1 $-1 22.78524695268769 3.5266665435166589 12.161378489287305 #
truecolor-adesk-attrib $-1 -1 $562 $-1 $333 -1029333354 #
straight-curve $-1 -1 $-1 23.085246952687687 3.9766665435166599 11.711378489287306 -1000 -3.5527136788005005e-12 0 F -4.930380657631323e-34 F 0.00030000000000000024 #
truecolor-adesk-attrib $-1 -1 $563 $-1 $334 -1029333354 #
plane-surface $-1 -1 $-1 23.085246952687683 4.5266665435166615 11.711378489287306 0 5.2939559203393759e-23 1 1 0 0 forward_v I I I I #
coedge $-1 -1 $-1 $337 $549 $564 $565 reversed $64 $-1 #
coedge $-1 -1 $-1 $566 $567 $337 $454 reversed $510 $-1 #
edge $568 -1 $-1 $569 -1.5707963267948966 $458 0 $337 $570 forward @7 unknown #
coedge $-1 -1 $-1 $352 $338 $567 $571 forward $390 $-1 #
coedge $-1 -1 $-1 $338 $352 $340 $460 forward $390 $-1 #
truecolor-adesk-attrib $-1 -1 $572 $-1 $339 -1029333354 #
vertex $-1 -1 $-1 $454 $573 #
straight-curve $-1 -1 $-1 22.785246952687686 3.8266665435166631 7.9113784892873049 0 -5.2939559203393765e-20 -1000 F -0.0046500000000000014 F -0.0042500000000000003 #
edge $574 -1 $-1 $355 -0.0057250000000000009 $342 -0.0054250000000000019 $456 $575 forward @7 unknown #
DXID-attrib $-1 -1 $-1 $341 $224 @18 ASM_EDGE_FROM_STEP @5 24983 #
point $-1 -1 $-1 22.785246952687686 3.8266665435166631 12.161378489287305 #
DXID-attrib $-1 -1 $-1 $347 $229 @18 ASM_FACE_FROM_STEP @21 USB - C inboard-35679 #
truecolor-adesk-attrib $-1 -1 $576 $-1 $348 -1029333354 #
loop $-1 -1 $-1 $-1 $517 $348 #
plane-surface $-1 -1 $-1 22.199072109536466 3.8266665435166631 12.711378489287306 -1 -6.106226635438361e-16 2.6469779601696883e-23 6.106226635438361e-16 -1 -5.2939559203393771e-23 forward_v I I I I #
coedge $-1 -1 $-1 $477 $351 $392 $514 forward $73 $-1 #
coedge $-1 -1 $-1 $567 $566 $351 $469 reversed $510 $-1 #
edge $577 -1 $-1 $471 0 $578 1.5707963267948966 $351 $579 forward @7 unknown #
truecolor-adesk-attrib $-1 -1 $580 $-1 $353 -1029333354 #
vertex $-1 -1 $-1 $353 $581 #
straight-curve $-1 -1 $-1 23.085246952687687 3.8266665435166636 7.9113784892873049 0 -5.2939559203393765e-20 -1000 F -0.0046500000000000014 F -0.0042500000000000003 #
DXID-attrib $-1 -1 $-1 $354 $234 @18 ASM_EDGE_FROM_STEP @5 18470 #
point $-1 -1 $-1 23.085246952687687 3.8266665435166636 12.161378489287305 #
DXID-attrib $-1 -1 $-1 $357 $236 @18 ASM_EDGE_FROM_STEP @5 37240 #
point $-1 -1 $-1 23.085246952687687 3.5266665435166598 12.161378489287305 #
coedge $-1 -1 $-1 $362 $467 $582 $583 reversed $73 $-1 #
coedge $-1 -1 $-1 $584 $585 $362 $479 reversed $586 $-1 #
edge $587 -1 $-1 $588 -0.00014999999999998042 $484 0.00038000000000002051 $478 $589 forward @7 unknown #
coedge $-1 -1 $-1 $439 $363 $585 $590 reversed $482 $-1 #
coedge $-1 -1 $-1 $363 $439 $365 $486 reversed $482 $-1 #
loop $-1 -1 $-1 $-1 $363 $560 #
truecolor-adesk-attrib $-1 -1 $591 $-1 $364 -1029333354 #
vertex $-1 -1 $-1 $590 $592 #
ellipse-curve $-1 -1 $-1 23.085246952687687 3.9766665435166599 12.561378489287305 1 3.5527136788004997e-15 0 1.5987211554602251e-15 -0.45000000000000007 0 1 F -1.5707963267948966 F 0 #
edge $593 -1 $-1 $368 0 $442 0.00029999999999999916 $365 $594 forward @7 unknown #
DXID-attrib $-1 -1 $-1 $367 $242 @18 ASM_EDGE_FROM_STEP @5 19965 #
point $-1 -1 $-1 23.085246952687687 3.5266665435166598 12.561378489287305 #
DXID-attrib $-1 -1 $-1 $371 $245 @18 ASM_EDGE_FROM_STEP @5 23179 #
coedge $-1 -1 $-1 $595 $596 $374 $491 reversed $597 $-1 #
edge $598 -1 $-1 $599 0 $495 1.5707963267948966 $374 $600 forward @7 unknown #
coedge $-1 -1 $-1 $517 $375 $596 $601 forward $465 $-1 #
coedge $-1 -1 $-1 $375 $517 $377 $497 forward $465 $-1 #
truecolor-adesk-attrib $-1 -1 $602 $-1 $376 -1029333354 #
vertex $-1 -1 $-1 $491 $603 #
straight-curve $-1 -1 $-1 22.199072109536463 4.8266665435166631 12.711378489287306 0 5.2939559203393765e-20 1000 F -0.00055000000000000155 F -0.00015000000000000012 #
edge $604 -1 $-1 $501 -0.00030000000000000312 $379 0 $493 $605 forward @7 unknown #
DXID-attrib $-1 -1 $-1 $378 $251 @18 ASM_EDGE_FROM_STEP @5 13183 #
point $-1 -1 $-1 22.199072109536463 4.8266665435166631 12.161378489287305 #
truecolor-adesk-attrib $-1 -1 $606 $-1 $381 -1029333354 #
vertex $-1 -1 $-1 $381 $607 #
ellipse-curve $-1 -1 $-1 22.349072109536465 4.5266665435166598 12.161378489287305 0 1 5.2939559203393771e-23 0 -7.9409338805090639e-24 0.14999999999999997 1 F -3.1415926535897931 F -1.5707963267948966 #
truecolor-adesk-attrib $-1 -1 $608 $-1 $382 -1029333354 #
face $609 -1 $-1 $385 $597 $3 $-1 $610 reversed single #
cone-surface $-1 -1 $-1 22.349072109536465 3.8266665435166631 12.161378489287305 6.106226635438362e-16 -1 -5.2939559203393771e-23 0.14999999999999997 9.159339953157541e-17 -8.9080431273251567e-40 1 I I 0 1 0.14999999999999997 forward I I I I #
truecolor-adesk-attrib $-1 -1 $611 $-1 $385 -1029333354 #
cone-surface $-1 -1 $-1 17.360246952687685 3.9766665435166599 12.161378489287305 -1 -7.2164496600635165e-16 2.646977960169688e-23 1.0824674490095272e-16 -0.14999999999999997 -4.4081038155835535e-40 1 I I 0 1 0.14999999999999997 forward I I I I #
DXID-attrib $-1 -1 $-1 $388 $266 @18 ASM_FACE_FROM_STEP @21 USB - C inboard-18818 #
truecolor-adesk-attrib $-1 -1 $612 $-1 $389 -1029333354 #
loop $-1 -1 $-1 $-1 $453 $389 #
cone-surface $-1 -1 $-1 17.360246952687685 3.9766665435166599 12.561378489287307 1 7.2164496600635155e-16 -2.646977960169688e-23 -1.0824674490095272e-16 0.14999999999999999 4.4081038155835698e-40 1 I I 0 1 0.14999999999999999 forward I I I I #
coedge $-1 -1 $-1 $564 $392 $566 $613 forward $267 $-1 #
coedge $-1 -1 $-1 $392 $538 $540 $614 forward $267 $-1 #
edge $615 -1 $-1 $578 -0.00038000000000001704 $616 0.00014999999999998042 $467 $617 forward @7 unknown #
DXID-attrib $-1 -1 $-1 $394 $271 @18 ASM_FACE_FROM_STEP @21 USB - C inboard-23246 #
coedge $-1 -1 $-1 $420 $396 $618 $619 forward $50 $-1 #
coedge $-1 -1 $-1 $493 $492 $396 $518 reversed $465 $-1 #
edge $620 -1 $-1 $501 -0.00085000000000000071 $621 -0.00044999999999999928 $396 $622 forward @7 unknown #
DXID-attrib $-1 -1 $-1 $398 $276 @18 ASM_EDGE_FROM_STEP @5 22193 #
DXID-attrib $-1 -1 $-1 $400 $278 @18 ASM_EDGE_FROM_STEP @5 26566 #
DXID-attrib $-1 -1 $-1 $406 $285 @18 ASM_FACE_FROM_STEP @21 USB - C inboard-20245 #
DXID-attrib $-1 -1 $-1 $409 $294 @18 ASM_EDGE_FROM_STEP @4 2398 #
DXID-attrib $-1 -1 $-1 $411 $297 @18 ASM_EDGE_FROM_STEP @5 14408 #
DXID-attrib $-1 -1 $-1 $413 $298 @18 ASM_EDGE_FROM_STEP @4 6371 #
coedge $-1 -1 $-1 $416 $415 $584 $623 forward $417 $-1 #
coedge $-1 -1 $-1 $421 $624 $415 $527 forward $534 $-1 #
edge $625 -1 $-1 $626 1.7347234759768055e-15 $306 1.5707963267948966 $415 $627 forward @7 unknown #
coedge $-1 -1 $-1 $582 $426 $416 $529 reversed $541 $-1 #
edge $628 -1 $-1 $588 3.6320772778264375e-15 $310 1.5707963267948966 $416 $629 forward @7 unknown #
DXID-attrib $-1 -1 $-1 $418 $303 @18 ASM_EDGE_FROM_STEP @5 28998 #
coedge $-1 -1 $-1 $630 $631 $420 $532 reversed $267 $-1 #
edge $632 -1 $-1 $633 0.00045000000000000042 $536 0.0008661748431512212 $420 $634 forward @7 unknown #
coedge $-1 -1 $-1 $624 $421 $631 $635 forward $534 $-1 #
loop $-1 -1 $-1 $-1 $421 $547 #
truecolor-adesk-attrib $-1 -1 $636 $-1 $422 -1029333354 #
vertex $-1 -1 $-1 $532 $637 #
straight-curve $-1 -1 $-1 22.765246952687683 4.5266665435166598 13.011378489287306 0 -5.2939559203393765e-20 -1000 F 1.1020259538958944e-41 F 0.00029999999999999916 #
coedge $-1 -1 $-1 $513 $630 $425 $539 forward $267 $-1 #
edge $638 -1 $-1 $599 -0.00098234968630244108 $543 -0.0005661748431512203 $425 $639 forward @7 unknown #
coedge $-1 -1 $-1 $426 $582 $513 $614 reversed $541 $-1 #
loop $-1 -1 $-1 $-1 $540 $436 #
truecolor-adesk-attrib $-1 -1 $640 $-1 $427 -1029333354 #
vertex $-1 -1 $-1 $427 $641 #
straight-curve $-1 -1 $-1 22.765246952687683 4.8266665435166605 13.011378489287306 0 -5.2939559203393765e-20 -1000 F 1.4693679385278592e-41 F 0.00029999999999999916 #
DXID-attrib $-1 -1 $-1 $435 $322 @18 ASM_FACE_FROM_STEP @20 USB - C inboard-7210 #
truecolor-adesk-attrib $-1 -1 $642 $-1 $436 -1029333354 #
face $643 -1 $-1 $644 $534 $3 $-1 $645 reversed single #
cone-surface $-1 -1 $-1 22.765246952687683 4.5066665435166602 13.011378489287306 0 5.2939559203393759e-23 1 0.31999999999999995 1.1384122811097797e-15 -6.0267044353681722e-38 1 I I 0 1 0.31999999999999995 forward I I I I #
coedge $-1 -1 $-1 $452 $438 $624 $646 reversed $64 $-1 #
coedge $-1 -1 $-1 $585 $584 $438 $551 forward $586 $-1 #
edge $647 -1 $-1 $626 -0.00098000000000000084 $553 -0.0004500000000000001 $550 $648 forward @7 unknown #
truecolor-adesk-attrib $-1 -1 $649 $-1 $440 -1029333354 #
vertex $-1 -1 $-1 $551 $650 #
ellipse-curve $-1 -1 $-1 22.785246952687686 3.976666543516659 12.561378489287305 -1 -3.5527136788004997e-15 0 1.5987211554602251e-15 -0.45000000000000007 0 1 F 0 F 1.5707963267948966 #
DXID-attrib $-1 -1 $-1 $441 $326 @18 ASM_EDGE_FROM_STEP @5 12543 #
point $-1 -1 $-1 22.78524695268769 3.5266665435166589 12.561378489287305 #
truecolor-adesk-attrib $-1 -1 $651 $-1 $444 -1029333354 #
straight-curve $-1 -1 $-1 23.085246952687687 3.5266665435166598 12.161378489287305 1000 3.5527136788005005e-12 0 F -0.00029999999999999916 F 0 #
truecolor-adesk-attrib $-1 -1 $652 $-1 $445 -1029333354 #
face $653 -1 $-1 $-1 $482 $3 $-1 $654 forward single #
cone-surface $-1 -1 $-1 23.085246952687687 3.9766665435166599 12.161378489287305 -1 -3.5527136788004997e-15 0 1.5987211554602251e-15 -0.45000000000000007 0 1 I I 0 1 0.45000000000000007 forward I I I I #
DXID-attrib $-1 -1 $-1 $448 $333 @18 ASM_EDGE_FROM_STEP @5 33033 #
DXID-attrib $-1 -1 $-1 $450 $334 @18 ASM_FACE_FROM_STEP @20 USB - C inboard-9189 #
coedge $-1 -1 $-1 $631 $512 $452 $565 forward $267 $-1 #
edge $655 -1 $-1 $569 -0.00038000000000001623 $656 0.00014999999999998034 $452 $657 forward @7 unknown #
coedge $-1 -1 $-1 $468 $453 $512 $613 reversed $510 $-1 #
coedge $-1 -1 $-1 $453 $468 $455 $571 reversed $510 $-1 #
truecolor-adesk-attrib $-1 -1 $658 $-1 $454 -1029333354 #
vertex $-1 -1 $-1 $565 $659 #
ellipse-curve $-1 -1 $-1 22.785246952687686 3.9766665435166635 12.561378489287307 1 3.5527136788005001e-15 0 5.3290705182007492e-16 -0.14999999999999997 0 1 F -1.5707963267948966 F 0 #
edge $660 -1 $-1 $458 0.0054250000000000019 $471 0.0057250000000000009 $455 $661 forward @7 unknown #
DXID-attrib $-1 -1 $-1 $457 $339 @18 ASM_EDGE_FROM_STEP @5 12356 #
point $-1 -1 $-1 22.785246952687686 3.8266665435166631 12.561378489287307 #
truecolor-adesk-attrib $-1 -1 $662 $-1 $460 -1029333354 #
straight-curve $-1 -1 $-1 17.360246952687685 3.82666654351666 12.161378489287305 -1000 -7.2164496600635165e-13 2.6469779601696883e-20 F -0.0057250000000000009 F -0.0054250000000000019 #
DXID-attrib $-1 -1 $-1 $464 $348 @18 ASM_FACE_FROM_STEP @21 USB - C inboard-29216 #
truecolor-adesk-attrib $-1 -1 $663 $-1 $469 -1029333354 #
vertex $-1 -1 $-1 $469 $664 #
ellipse-curve $-1 -1 $-1 23.085246952687687 3.9766665435166635 12.561378489287307 -1 -3.5527136788005001e-15 0 5.3290705182007492e-16 -0.14999999999999997 0 1 F 0 F 1.5707963267948966 #
DXID-attrib $-1 -1 $-1 $470 $353 @18 ASM_EDGE_FROM_STEP @5 12812 #
point $-1 -1 $-1 23.085246952687687 3.8266665435166636 12.561378489287307 #
coedge $-1 -1 $-1 $540 $528 $477 $583 forward $541 $-1 #
edge $665 -1 $-1 $588 -0.0012999999999999999 $616 -0.0010000000000000009 $582 $666 forward @7 unknown #
coedge $-1 -1 $-1 $550 $478 $525 $623 reversed $586 $-1 #
coedge $-1 -1 $-1 $478 $550 $480 $590 forward $586 $-1 #
loop $-1 -1 $-1 $-1 $550 $644 #
truecolor-adesk-attrib $-1 -1 $667 $-1 $479 -1029333354 #
vertex $-1 -1 $-1 $623 $668 #
straight-curve $-1 -1 $-1 23.085246952687683 4.3566665435166803 13.011378489287306 3.4416913763379853e-12 -1000 -2.6469779601696886e-20 F -0.00014999999999998042 F 0.00038000000000002051 #
edge $669 -1 $-1 $553 -0.00030000000000000024 $484 0 $585 $670 forward @7 unknown #
DXID-attrib $-1 -1 $-1 $483 $364 @18 ASM_EDGE_FROM_STEP @5 36554 #
point $-1 -1 $-1 23.085246952687687 3.9766665435166599 13.011378489287306 #
truecolor-adesk-attrib $-1 -1 $671 $-1 $486 -1029333354 #
straight-curve $-1 -1 $-1 23.085246952687687 3.5266665435166598 12.561378489287305 -1000 -3.5527136788005005e-12 0 F 0 F 0.00029999999999999916 #
coedge $-1 -1 $-1 $618 $490 $630 $672 reversed $597 $-1 #
coedge $-1 -1 $-1 $490 $618 $492 $601 reversed $597 $-1 #
loop $-1 -1 $-1 $-1 $618 $504 #
truecolor-adesk-attrib $-1 -1 $673 $-1 $491 -1029333354 #
vertex $-1 -1 $-1 $539 $674 #
ellipse-curve $-1 -1 $-1 22.349072109536465 4.8266665435166605 12.561378489287307 0 -1 -5.2939559203393771e-23 0 -7.9409338805090639e-24 0.14999999999999997 1 F 0 F 1.5707963267948966 #
edge $675 -1 $-1 $495 -0.00030000000000000301 $621 1.0408340855860842e-19 $492 $676 forward @7 unknown #
DXID-attrib $-1 -1 $-1 $494 $376 @18 ASM_EDGE_FROM_STEP @5 33755 #
point $-1 -1 $-1 22.199072109536463 4.8266665435166631 12.561378489287307 #
truecolor-adesk-attrib $-1 -1 $677 $-1 $497 -1029333354 #
straight-curve $-1 -1 $-1 22.199072109536463 4.8266665435166631 12.161378489287305 -6.106226635438361e-13 1000 5.2939559203393771e-20 F -0.00030000000000000312 F 0 #
DXID-attrib $-1 -1 $-1 $500 $381 @18 ASM_EDGE_FROM_STEP @5 33860 #
point $-1 -1 $-1 22.199072109536463 4.5266665435166598 12.161378489287305 #
DXID-attrib $-1 -1 $-1 $503 $382 @18 ASM_FACE_FROM_STEP @21 USB - C inboard-23638 #
truecolor-adesk-attrib $-1 -1 $678 $-1 $504 -1029333354 #
cone-surface $-1 -1 $-1 22.349072109536465 3.8266665435166631 12.561378489287307 6.106226635438362e-16 -1 -5.2939559203393771e-23 0.14999999999999997 9.159339953157541e-17 -8.9080431273251567e-40 1 I I 0 1 0.14999999999999997 forward I I I I #
DXID-attrib $-1 -1 $-1 $506 $385 @18 ASM_FACE_FROM_STEP @21 USB - C inboard-33509 #
DXID-attrib $-1 -1 $-1 $509 $389 @18 ASM_FACE_FROM_STEP @19 USB - C inboard-323 #
edge $679 -1 $-1 $578 0.00024617484315121897 $569 0.00054617484315121808 $512 $680 forward @7 unknown #
edge $681 -1 $-1 $543 -1.5707963267949072 $616 -1.41420620873578e-14 $540 $682 forward @7 unknown #
truecolor-adesk-attrib $-1 -1 $683 $-1 $514 -1029333354 #
vertex $-1 -1 $-1 $614 $684 #
straight-curve $-1 -1 $-1 23.085246952687683 4.3566665435166803 12.711378489287306 -3.4416913763379853e-12 1000 2.6469779601696886e-20 F -0.00038000000000001704 F 0.00014999999999998042 #
coedge $-1 -1 $-1 $596 $595 $516 $619 reversed $597 $-1 #
edge $685 -1 $-1 $621 -1.5707963267948966 $633 0 $516 $686 forward @7 unknown #
truecolor-adesk-attrib $-1 -1 $687 $-1 $518 -1029333354 #
vertex $-1 -1 $-1 $518 $688 #
straight-curve $-1 -1 $-1 22.199072109536463 4.5266665435166598 13.011378489287306 0 5.2939559203393765e-20 1000 F -0.00085000000000000071 F -0.00044999999999999928 #
edge $689 -1 $-1 $626 0 $588 0.00030000000000000024 $525 $690 forward @7 unknown #
coedge $-1 -1 $-1 $526 $533 $549 $646 forward $534 $-1 #
truecolor-adesk-attrib $-1 -1 $691 $-1 $527 -1029333354 #
vertex $-1 -1 $-1 $527 $692 #
ellipse-curve $-1 -1 $-1 22.765246952687683 4.5066665435166602 13.011378489287306 0 5.2939559203393765e-23 1 0.020000000000000052 0 0 1 F 1.7347234759768055e-15 F 1.5707963267948966 #
truecolor-adesk-attrib $-1 -1 $693 $-1 $529 -1029333354 #
ellipse-curve $-1 -1 $-1 22.765246952687683 4.5066665435166602 13.011378489287306 0 5.2939559203393759e-23 1 0.31999999999999995 0 0 1 F 3.6320772778264375e-15 F 1.5707963267948966 #
coedge $-1 -1 $-1 $538 $531 $595 $672 forward $267 $-1 #
coedge $-1 -1 $-1 $531 $564 $533 $635 reversed $267 $-1 #
truecolor-adesk-attrib $-1 -1 $694 $-1 $532 -1029333354 #
vertex $-1 -1 $-1 $619 $695 #
straight-curve $-1 -1 $-1 21.899072109536462 4.5266665435166598 12.711378489287306 1000 0 0 F 0.00045000000000000042 F 0.0008661748431512212 #
edge $696 -1 $-1 $536 -1.5707963267949088 $656 -1.4799359654427101e-14 $533 $697 forward @7 unknown #
DXID-attrib $-1 -1 $-1 $535 $422 @18 ASM_EDGE_FROM_STEP @5 25795 #
point $-1 -1 $-1 22.765246952687683 4.5266665435166598 12.711378489287306 #
truecolor-adesk-attrib $-1 -1 $698 $-1 $539 -1029333354 #
straight-curve $-1 -1 $-1 23.331421795838907 4.826666543516664 12.711378489287306 1000 7.2164496600635165e-13 -2.6469779601696883e-20 F -0.00098234968630244108 F -0.0005661748431512203 #
DXID-attrib $-1 -1 $-1 $542 $427 @18 ASM_EDGE_FROM_STEP @5 13415 #
point $-1 -1 $-1 22.765246952687683 4.8266665435166631 12.711378489287306 #
DXID-attrib $-1 -1 $-1 $546 $436 @18 ASM_FACE_FROM_STEP @21 USB - C inboard-34139 #
truecolor-adesk-attrib $-1 -1 $699 $-1 $547 -1029333354 #
face $700 -1 $-1 $334 $586 $3 $-1 $701 reversed single #
cone-surface $-1 -1 $-1 22.765246952687683 4.5066665435166602 13.011378489287306 4.1761948595190557e-53 5.2939559203393765e-23 1 0.020000000000000052 8.131516293641282e-17 -4.3047888824058374e-39 1 I I 0 1 0.020000000000000052 forward I I I I #
edge $702 -1 $-1 $656 0.0010000000000000009 $626 0.0012999999999999999 $624 $703 forward @7 unknown #
truecolor-adesk-attrib $-1 -1 $704 $-1 $551 -1029333354 #
straight-curve $-1 -1 $-1 22.78524695268769 3.5266665435166589 13.011378489287306 3.4416913763379853e-12 -1000 -2.6469779601696886e-20 F -0.00098000000000000084 F -0.0004500000000000001 #
DXID-attrib $-1 -1 $-1 $552 $440 @18 ASM_EDGE_FROM_STEP @5 15976 #
point $-1 -1 $-1 22.785246952687686 3.976666543516659 13.011378489287306 #
DXID-attrib $-1 -1 $-1 $557 $444 @18 ASM_EDGE_FROM_STEP @5 37410 #
DXID-attrib $-1 -1 $-1 $559 $445 @18 ASM_FACE_FROM_STEP @21 USB - C inboard-32775 #
truecolor-adesk-attrib $-1 -1 $705 $-1 $560 -1029333354 #
cone-surface $-1 -1 $-1 23.085246952687687 3.9766665435166599 12.561378489287305 -1 -3.5527136788004997e-15 0 1.5987211554602251e-15 -0.45000000000000007 0 1 I I 0 1 0.45000000000000007 forward I I I I #
truecolor-adesk-attrib $-1 -1 $706 $-1 $565 -1029333354 #
vertex $-1 -1 $-1 $635 $707 #
straight-curve $-1 -1 $-1 22.785246952687686 4.3566665435166794 12.711378489287306 -3.4416913763379853e-12 1000 2.6469779601696886e-20 F -0.00038000000000001623 F 0.00014999999999998034 #
DXID-attrib $-1 -1 $-1 $568 $454 @18 ASM_EDGE_FROM_STEP @5 11466 #
point $-1 -1 $-1 22.785246952687686 3.9766665435166635 12.711378489287306 #
truecolor-adesk-attrib $-1 -1 $708 $-1 $571 -1029333354 #
straight-curve $-1 -1 $-1 17.360246952687685 3.82666654351666 12.561378489287307 1000 7.2164496600635165e-13 -2.6469779601696883e-20 F 0.0054250000000000019 F 0.0057250000000000009 #
DXID-attrib $-1 -1 $-1 $574 $460 @18 ASM_EDGE_FROM_STEP @5 17062 #
DXID-attrib $-1 -1 $-1 $577 $469 @18 ASM_EDGE_FROM_STEP @4 7661 #
point $-1 -1 $-1 23.085246952687687 3.9766665435166635 12.711378489287306 #
truecolor-adesk-attrib $-1 -1 $709 $-1 $583 -1029333354 #
straight-curve $-1 -1 $-1 23.085246952687683 4.5066665435166611 11.711378489287306 0 -5.2939559203393765e-20 -1000 F -0.0012999999999999999 F -0.0010000000000000009 #
DXID-attrib $-1 -1 $-1 $587 $479 @18 ASM_EDGE_FROM_STEP @4 2694 #
point $-1 -1 $-1 23.085246952687683 4.5066665435166611 13.011378489287306 #
truecolor-adesk-attrib $-1 -1 $710 $-1 $590 -1029333354 #
straight-curve $-1 -1 $-1 23.085246952687687 3.9766665435166599 13.011378489287306 1000 3.5527136788005005e-12 0 F -0.00030000000000000024 F 0 #
DXID-attrib $-1 -1 $-1 $593 $486 @18 ASM_EDGE_FROM_STEP @5 24890 #
edge $711 -1 $-1 $633 -0.00030000000000000312 $599 0 $630 $712 forward @7 unknown #
DXID-attrib $-1 -1 $-1 $598 $491 @18 ASM_EDGE_FROM_STEP @3 852 #
point $-1 -1 $-1 22.349072109536465 4.8266665435166631 12.711378489287306 #
truecolor-adesk-attrib $-1 -1 $713 $-1 $601 -1029333354 #
straight-curve $-1 -1 $-1 22.199072109536463 4.5266665435166598 12.561378489287307 6.106226635438361e-13 -1000 -5.2939559203393771e-20 F -0.00030000000000000301 F 1.0408340855860842e-19 #
DXID-attrib $-1 -1 $-1 $604 $497 @18 ASM_EDGE_FROM_STEP @4 4132 #
DXID-attrib $-1 -1 $-1 $609 $504 @18 ASM_FACE_FROM_STEP @21 USB - C inboard-25057 #
truecolor-adesk-attrib $-1 -1 $714 $-1 $613 -1029333354 #
straight-curve $-1 -1 $-1 23.331421795838907 3.9766665435166635 12.711378489287306 -1000 -7.2164496600635165e-13 2.6469779601696883e-20 F 0.00024617484315121897 F 0.00054617484315121808 #
truecolor-adesk-attrib $-1 -1 $715 $-1 $614 -1029333354 #
ellipse-curve $-1 -1 $-1 22.765246952687683 4.5066665435166602 12.711378489287306 0 -5.2939559203393759e-23 -1 0.31999999999999995 -3.415236843329339e-15 1.8080113306104514e-37 1 F -1.5707963267949072 F -1.41420620873578e-14 #
DXID-attrib $-1 -1 $-1 $615 $514 @18 ASM_EDGE_FROM_STEP @4 2606 #
point $-1 -1 $-1 23.085246952687683 4.5066665435166611 12.711378489287306 #
truecolor-adesk-attrib $-1 -1 $716 $-1 $619 -1029333354 #
ellipse-curve $-1 -1 $-1 22.349072109536465 4.5266665435166598 12.561378489287307 0 1 5.2939559203393771e-23 0 -7.9409338805090639e-24 0.14999999999999997 1 F -1.5707963267948966 F 0 #
DXID-attrib $-1 -1 $-1 $620 $518 @18 ASM_EDGE_FROM_STEP @5 20074 #
point $-1 -1 $-1 22.199072109536463 4.5266665435166598 12.561378489287307 #
truecolor-adesk-attrib $-1 -1 $717 $-1 $623 -1029333354 #
straight-curve $-1 -1 $-1 22.785246952687686 4.5066665435166602 13.011378489287306 1000 3.5527136788005005e-12 0 F 0 F 0.00030000000000000024 #
DXID-attrib $-1 -1 $-1 $625 $527 @18 ASM_EDGE_FROM_STEP @4 3801 #
point $-1 -1 $-1 22.785246952687686 4.5066665435166602 13.011378489287306 #
DXID-attrib $-1 -1 $-1 $628 $529 @18 ASM_EDGE_FROM_STEP @5 20721 #
DXID-attrib $-1 -1 $-1 $632 $532 @18 ASM_EDGE_FROM_STEP @5 12372 #
point $-1 -1 $-1 22.349072109536465 4.5266665435166598 12.711378489287306 #
truecolor-adesk-attrib $-1 -1 $718 $-1 $635 -1029333354 #
ellipse-curve $-1 -1 $-1 22.765246952687683 4.5066665435166602 12.711378489287306 0 -5.2939559203393765e-23 -1 0.020000000000000052 -2.439454888092385e-16 1.2914366647217514e-38 1 F -1.5707963267949088 F -1.4799359654427101e-14 #
DXID-attrib $-1 -1 $-1 $638 $539 @18 ASM_EDGE_FROM_STEP @5 23980 #
DXID-attrib $-1 -1 $-1 $643 $547 @18 ASM_FACE_FROM_STEP @21 USB - C inboard-23528 #
truecolor-adesk-attrib $-1 -1 $719 $-1 $644 -1029333354 #
plane-surface $-1 -1 $-1 23.085246952687687 3.5266665435166598 13.011378489287306 0 -5.2939559203393759e-23 -1 -1 0 0 forward_v I I I I #
truecolor-adesk-attrib $-1 -1 $720 $-1 $646 -1029333354 #
straight-curve $-1 -1 $-1 22.785246952687686 4.5066665435166602 11.711378489287306 0 5.2939559203393765e-20 1000 F 0.0010000000000000009 F 0.0012999999999999999 #
DXID-attrib $-1 -1 $-1 $647 $551 @18 ASM_EDGE_FROM_STEP @5 16369 #
DXID-attrib $-1 -1 $-1 $653 $560 @18 ASM_FACE_FROM_STEP @20 USB - C inboard-3512 #
DXID-attrib $-1 -1 $-1 $655 $565 @18 ASM_EDGE_FROM_STEP @5 11919 #
point $-1 -1 $-1 22.785246952687686 4.5066665435166602 12.711378489287306 #
DXID-attrib $-1 -1 $-1 $660 $571 @18 ASM_EDGE_FROM_STEP @5 37294 #
DXID-attrib $-1 -1 $-1 $665 $583 @18 ASM_EDGE_FROM_STEP @5 12199 #
DXID-attrib $-1 -1 $-1 $669 $590 @18 ASM_EDGE_FROM_STEP @5 21497 #
truecolor-adesk-attrib $-1 -1 $721 $-1 $672 -1029333354 #
straight-curve $-1 -1 $-1 22.349072109536465 4.8266665435166631 12.711378489287306 -6.106226635438361e-13 1000 5.2939559203393771e-20 F -0.00030000000000000312 F 0 #
DXID-attrib $-1 -1 $-1 $675 $601 @18 ASM_EDGE_FROM_STEP @4 1587 #
DXID-attrib $-1 -1 $-1 $679 $613 @18 ASM_EDGE_FROM_STEP @5 29410 #
DXID-attrib $-1 -1 $-1 $681 $614 @18 ASM_EDGE_FROM_STEP @5 35026 #
DXID-attrib $-1 -1 $-1 $685 $619 @18 ASM_EDGE_FROM_STEP @5 24016 #
DXID-attrib $-1 -1 $-1 $689 $623 @18 ASM_EDGE_FROM_STEP @5 24119 #
DXID-attrib $-1 -1 $-1 $696 $635 @18 ASM_EDGE_FROM_STEP @5 31565 #
DXID-attrib $-1 -1 $-1 $700 $644 @18 ASM_FACE_FROM_STEP @21 USB - C inboard-27834 #
DXID-attrib $-1 -1 $-1 $702 $646 @18 ASM_EDGE_FROM_STEP @5 37444 #
DXID-attrib $-1 -1 $-1 $711 $672 @18 ASM_EDGE_FROM_STEP @4 9308 #
