700 144 1 0         
5 ZWCAD 12 ACIS 28.0 NT 24 Mon May 13 11:03:51 2024 
1 9.9999999999999995e-07 1e-10 
body $1 -1 $-1 $2 $-1 $-1 #
DXID-attrib $-1 -1 $-1 $-1 $0 @18 ASM_BODY_FROM_STEP @83 6B6661E240C3A8A7AE8FD38E9186899B79F9953F|:|3C3F39064A1C0E3DB6573A3428C289C93130A8D2 #
lump $-1 -1 $-1 $-1 $3 $0 #
shell $-1 -1 $-1 $-1 $-1 $4 $-1 $2 #
face $5 -1 $-1 $6 $7 $3 $-1 $8 forward single #
truecolor-adesk-attrib $-1 -1 $9 $-1 $4 -1056964608 #
face $10 -1 $-1 $11 $12 $3 $-1 $13 forward single #
loop $-1 -1 $-1 $-1 $14 $4 #
cone-surface $-1 -1 $-1 24.873521670411243 -15.967387364010587 -9.6013362116215557 -0.5735764363510113 -0.8179912696785403 0.04359305440737183 -2.7554552980815448e-16 -0.079825939600520118 -1.4978744337783774 1 I I 0 1 1.5000000000000002 forward I I I I #
DXID-attrib $-1 -1 $-1 $5 $4 @18 ASM_FACE_FROM_STEP @17 vintage car-20492 #
truecolor-adesk-attrib $-1 -1 $15 $-1 $6 -1056964608 #
face $16 -1 $-1 $17 $18 $3 $-1 $19 forward single #
loop $-1 -1 $-1 $-1 $20 $6 #
cone-surface $-1 -1 $-1 24.873521670411243 -15.967387364010587 -9.6013362116215557 -0.5735764363510113 -0.8179912696785403 0.04359305440737183 -2.7554552980815448e-16 -0.079825939600520118 -1.4978744337783774 1 I I 0 1 1.5000000000000002 forward I I I I #
coedge $-1 -1 $-1 $21 $22 $23 $24 reversed $7 $-1 #
DXID-attrib $-1 -1 $-1 $10 $6 @18 ASM_FACE_FROM_STEP @17 vintage car-20509 #
truecolor-adesk-attrib $-1 -1 $25 $-1 $11 -1056964608 #
face $26 -1 $-1 $27 $28 $3 $-1 $29 forward single #
loop $-1 -1 $-1 $-1 $30 $11 #
plane-surface $-1 -1 $-1 24.787057906061243 -22.00215406235499 -9.2797265285254191 -0.5735764363510113 -0.8179912696785403 0.04359305440737183 -1.8369701987210297e-16 -0.053217293067013408 -0.99858295585225154 forward_v I I I I #
coedge $-1 -1 $-1 $31 $32 $33 $34 reversed $12 $-1 #
coedge $-1 -1 $-1 $33 $14 $35 $36 forward $7 $-1 #
coedge $-1 -1 $-1 $14 $33 $30 $37 reversed $7 $-1 #
coedge $-1 -1 $-1 $32 $31 $14 $24 forward $12 $-1 #
edge $38 -1 $-1 $39 -4.9999999999930358 $40 5.000000000000405 $14 $41 forward @7 unknown #
DXID-attrib $-1 -1 $-1 $16 $11 @18 ASM_FACE_FROM_STEP @17 vintage car-20519 #
truecolor-adesk-attrib $-1 -1 $42 $-1 $17 -1056964608 #
face $43 -1 $-1 $44 $45 $3 $-1 $46 forward single #
loop $-1 -1 $-1 $-1 $47 $17 #
torus-surface $-1 -1 $-1 34.264069704891241 -16.438178862834881 -9.5762464090973314 1.8369701987210297e-16 0.053217293067013408 0.99858295585225154 7.9627047239900008 1.5000000000000002 -1.6362469989208183e-16 0.99858295585225154 -0.053217293067013408 forward_v I I I I #
coedge $-1 -1 $-1 $48 $48 $22 $37 forward $18 $-1 #
coedge $-1 -1 $-1 $23 $20 $49 $50 forward $12 $-1 #
coedge $-1 -1 $-1 $20 $23 $48 $51 reversed $12 $-1 #
coedge $-1 -1 $-1 $22 $21 $20 $34 forward $7 $-1 #
edge $52 -1 $-1 $53 -4.9999999999930358 $54 5.000000000000405 $33 $55 forward @7 unknown #
coedge $-1 -1 $-1 $47 $56 $21 $36 reversed $28 $-1 #
edge $57 -1 $-1 $39 -3.1415926535897931 $53 0 $21 $58 forward @7 unknown #
edge $59 -1 $-1 $40 -3.1415926535897931 $54 0 $22 $60 forward @7 unknown #
truecolor-adesk-attrib $-1 -1 $61 $-1 $24 -1056964608 #
vertex $-1 -1 $-1 $24 $62 #
vertex $-1 -1 $-1 $24 $63 #
straight-curve $-1 -1 $-1 24.873521670411243 -16.047213303611109 -11.099210645399934 -0.57357643635099997 -0.81799126967852409 0.043593054407370962 F -4.9999999999930358 F 5.000000000000405 #
DXID-attrib $-1 -1 $-1 $26 $17 @18 ASM_FACE_FROM_STEP @17 vintage car-20550 #
truecolor-adesk-attrib $-1 -1 $64 $-1 $27 -1056964608 #
face $65 -1 $-1 $66 $67 $3 $-1 $68 forward single #
loop $-1 -1 $-1 $-1 $69 $27 #
torus-surface $-1 -1 $-1 34.264069704891241 -16.438178862834881 -9.5762464090973314 1.8369701987210297e-16 0.053217293067013408 0.99858295585225154 7.9627047239900008 1.5000000000000002 -1.6362469989208183e-16 0.99858295585225154 -0.053217293067013408 forward_v I I I I #
coedge $-1 -1 $-1 $70 $35 $71 $72 reversed $28 $-1 #
coedge $-1 -1 $-1 $30 $30 $32 $51 forward $18 $-1 #
coedge $-1 -1 $-1 $69 $71 $31 $50 reversed $45 $-1 #
edge $73 -1 $-1 $53 0 $39 3.1415926535897931 $31 $74 forward @7 unknown #
edge $75 -1 $-1 $54 0 $40 3.1415926535897931 $32 $76 forward @7 unknown #
truecolor-adesk-attrib $-1 -1 $77 $-1 $34 -1056964608 #
vertex $-1 -1 $-1 $36 $78 #
vertex $-1 -1 $-1 $34 $79 #
straight-curve $-1 -1 $-1 24.873521670411243 -15.887561424410068 -8.1034617778431794 -0.57357643635099997 -0.81799126967852409 0.043593054407370962 F -4.9999999999930358 F 5.000000000000405 #
coedge $-1 -1 $-1 $35 $70 $69 $80 forward $28 $-1 #
truecolor-adesk-attrib $-1 -1 $81 $-1 $36 -1056964608 #
ellipse-curve $-1 -1 $-1 27.741403852161241 -11.87743101562296 -9.8193014836581458 -0.5735764363510113 -0.8179912696785403 0.04359305440737183 2.7554552980815448e-16 0.079825939600520118 1.4978744337783774 1 F -3.1415926535897931 F 0 #
truecolor-adesk-attrib $-1 -1 $82 $-1 $37 -1056964608 #
ellipse-curve $-1 -1 $-1 22.005639488691237 -20.057343712428171 -9.3833709395833704 -0.5735764363510113 -0.8179912696785403 0.04359305440737183 2.7554552980815448e-16 0.079825939600520118 1.4978744337783774 1 F -3.1415926535897931 F 0 #
DXID-attrib $-1 -1 $-1 $38 $24 @18 ASM_EDGE_FROM_STEP @5 20466 #
point $-1 -1 $-1 27.741403852161241 -11.957256955223482 -11.317175917436522 #
point $-1 -1 $-1 22.005639488691237 -20.137169652028692 -10.881245373361748 #
DXID-attrib $-1 -1 $-1 $43 $27 @18 ASM_FACE_FROM_STEP @17 vintage car-20562 #
truecolor-adesk-attrib $-1 -1 $83 $-1 $44 -1056964608 #
face $84 -1 $-1 $85 $86 $3 $-1 $87 forward single #
loop $-1 -1 $-1 $-1 $88 $44 #
cone-surface $-1 -1 $-1 44.264069704891241 -8.4867576429742613 -10.000000000000002 1 -6.9694279627987644e-18 -1.8358627563919873e-16 2.7554552980815448e-16 0.079825939600520118 1.4978744337783774 1 I I 0 1 1.5000000000000002 forward I I I I #
coedge $-1 -1 $-1 $89 $49 $56 $80 reversed $45 $-1 #
coedge $-1 -1 $-1 $56 $47 $90 $91 reversed $28 $-1 #
coedge $-1 -1 $-1 $49 $89 $47 $72 forward $45 $-1 #
edge $92 -1 $-1 $93 1.5707963267948968 $39 2.5307274153922523 $47 $94 forward @7 unknown #
truecolor-adesk-attrib $-1 -1 $95 $-1 $50 -1056964608 #
ellipse-curve $-1 -1 $-1 27.741403852161241 -11.87743101562296 -9.8193014836581458 -0.5735764363510113 -0.8179912696785403 0.04359305440737183 2.7554552980815448e-16 0.079825939600520118 1.4978744337783774 1 F 0 F 3.1415926535897931 #
truecolor-adesk-attrib $-1 -1 $96 $-1 $51 -1056964608 #
ellipse-curve $-1 -1 $-1 22.005639488691237 -20.057343712428171 -9.3833709395833704 -0.5735764363510113 -0.8179912696785403 0.04359305440737183 2.7554552980815448e-16 0.079825939600520118 1.4978744337783774 1 F 0 F 3.1415926535897931 #
DXID-attrib $-1 -1 $-1 $52 $34 @18 ASM_EDGE_FROM_STEP @5 20480 #
point $-1 -1 $-1 27.741403852161241 -11.797605076022441 -8.3214270498797678 #
point $-1 -1 $-1 22.005639488691237 -19.977517772827653 -7.8854965058049942 #
edge $97 -1 $-1 $98 1.5707963267948966 $53 2.5307274153922523 $56 $99 forward @7 unknown #
DXID-attrib $-1 -1 $-1 $57 $36 @18 ASM_EDGE_FROM_STEP @5 20473 #
DXID-attrib $-1 -1 $-1 $59 $37 @18 ASM_EDGE_FROM_STEP @5 20485 #
DXID-attrib $-1 -1 $-1 $65 $44 @18 ASM_FACE_FROM_STEP @17 vintage car-20593 #
truecolor-adesk-attrib $-1 -1 $100 $-1 $66 -1056964608 #
face $101 -1 $-1 $-1 $102 $3 $-1 $103 forward single #
loop $-1 -1 $-1 $-1 $104 $66 #
cone-surface $-1 -1 $-1 44.264069704891241 -8.4867576429742613 -10.000000000000002 1 -6.9694279627987644e-18 -1.8358627563919873e-16 2.7554552980815448e-16 0.079825939600520118 1.4978744337783774 1 I I 0 1 1.5000000000000002 forward I I I I #
coedge $-1 -1 $-1 $90 $105 $106 $107 reversed $67 $-1 #
coedge $-1 -1 $-1 $71 $69 $108 $109 reversed $45 $-1 #
coedge $-1 -1 $-1 $110 $88 $70 $91 forward $67 $-1 #
edge $111 -1 $-1 $98 1.5707963267948963 $93 4.7123889803846888 $70 $112 forward @7 unknown #
truecolor-adesk-attrib $-1 -1 $113 $-1 $72 -1056964608 #
vertex $-1 -1 $-1 $72 $114 #
ellipse-curve $-1 -1 $-1 34.264069704891241 -16.518004802435403 -11.074120842875709 1.8369701987210297e-16 0.053217293067013408 0.99858295585225154 7.96270472399 -5.5495496962885723e-17 -1.4618433042919779e-15 1 F 1.5707963267948968 F 2.5307274153922523 #
DXID-attrib $-1 -1 $-1 $73 $50 @18 ASM_EDGE_FROM_STEP @5 20497 #
DXID-attrib $-1 -1 $-1 $75 $51 @18 ASM_EDGE_FROM_STEP @5 20502 #
truecolor-adesk-attrib $-1 -1 $115 $-1 $80 -1056964608 #
vertex $-1 -1 $-1 $91 $116 #
ellipse-curve $-1 -1 $-1 34.264069704891241 -16.358352923234364 -8.0783719753189551 1.8369701987210297e-16 0.053217293067013408 0.99858295585225154 7.96270472399 -5.5495496962885723e-17 -1.4618433042919779e-15 1 F 1.5707963267948966 F 2.5307274153922523 #
DXID-attrib $-1 -1 $-1 $84 $66 @18 ASM_FACE_FROM_STEP @17 vintage car-20605 #
truecolor-adesk-attrib $-1 -1 $117 $-1 $85 -1056964608 #
loop $-1 -1 $-1 $-1 $118 $85 #
plane-surface $-1 -1 $-1 54.264069704891241 -8.4867576429742613 -10.000000000000004 1 -6.9694279627987644e-18 -1.8358627563919873e-16 1.8369701987210297e-16 0.053217293067013408 0.99858295585225154 forward_v I I I I #
coedge $-1 -1 $-1 $108 $119 $110 $120 reversed $86 $-1 #
coedge $-1 -1 $-1 $88 $110 $118 $121 reversed $67 $-1 #
coedge $-1 -1 $-1 $119 $108 $88 $107 forward $86 $-1 #
edge $122 -1 $-1 $98 -10 $123 10 $88 $124 forward @7 unknown #
coedge $-1 -1 $-1 $106 $104 $89 $109 forward $86 $-1 #
edge $125 -1 $-1 $93 -1.5707963267948972 $98 1.5707963267948963 $89 $126 forward @7 unknown #
coedge $-1 -1 $-1 $105 $90 $104 $120 forward $67 $-1 #
truecolor-adesk-attrib $-1 -1 $127 $-1 $91 -1056964608 #
ellipse-curve $-1 -1 $-1 34.264069704891241 -8.4867576429742613 -10 1 1.5361495892624214e-16 -1.9214426907277099e-16 -2.4543401643912274e-16 1.4978744337783774 -0.079825939600520118 1 F 1.5707963267948963 F 4.7123889803846888 #
DXID-attrib $-1 -1 $-1 $92 $72 @18 ASM_EDGE_FROM_STEP @5 20531 #
point $-1 -1 $-1 34.264069704891241 -8.5665835825747827 -11.497874433778378 #
DXID-attrib $-1 -1 $-1 $97 $80 @18 ASM_EDGE_FROM_STEP @5 20543 #
point $-1 -1 $-1 34.264069704891241 -8.4069317033737416 -8.502125566221622 #
DXID-attrib $-1 -1 $-1 $101 $85 @18 ASM_FACE_FROM_STEP @17 vintage car-20615 #
coedge $-1 -1 $-1 $128 $128 $105 $121 forward $102 $-1 #
coedge $-1 -1 $-1 $104 $106 $128 $129 reversed $86 $-1 #
edge $130 -1 $-1 $93 -10.000000000000002 $131 10 $110 $132 forward @7 unknown #
edge $133 -1 $-1 $123 1.5707963267948966 $131 4.7123889803846897 $105 $134 forward @7 unknown #
truecolor-adesk-attrib $-1 -1 $135 $-1 $107 -1056964608 #
vertex $-1 -1 $-1 $107 $136 #
straight-curve $-1 -1 $-1 44.264069704891241 -8.4069317033737416 -8.5021255662216237 1 -6.9694279627987644e-18 -1.8358627563919873e-16 F -10 F 10 #
truecolor-adesk-attrib $-1 -1 $137 $-1 $109 -1056964608 #
ellipse-curve $-1 -1 $-1 34.264069704891241 -8.4867576429742613 -10 1 1.5361495892624214e-16 -1.9214426907277099e-16 -2.4543401643912274e-16 1.4978744337783774 -0.079825939600520118 1 F -1.5707963267948972 F 1.5707963267948963 #
DXID-attrib $-1 -1 $-1 $111 $91 @18 ASM_EDGE_FROM_STEP @5 20538 #
coedge $-1 -1 $-1 $118 $118 $119 $129 forward $102 $-1 #
edge $138 -1 $-1 $131 -1.5707963267948968 $123 1.5707963267948966 $119 $139 forward @7 unknown #
truecolor-adesk-attrib $-1 -1 $140 $-1 $120 -1056964608 #
vertex $-1 -1 $-1 $120 $141 #
straight-curve $-1 -1 $-1 44.264069704891241 -8.5665835825747809 -11.49787443377838 1 -6.9694279627987644e-18 -1.8358627563919873e-16 F -10.000000000000002 F 10 #
truecolor-adesk-attrib $-1 -1 $142 $-1 $121 -1056964608 #
ellipse-curve $-1 -1 $-1 54.264069704891241 -8.4867576429742613 -10.000000000000004 1 -6.9694279627987644e-18 -1.8358627563919873e-16 -4.2156189871227264e-18 1.4978744337783774 -0.079825939600520118 1 F 1.5707963267948966 F 4.7123889803846897 #
DXID-attrib $-1 -1 $-1 $122 $107 @18 ASM_EDGE_FROM_STEP @5 20574 #
point $-1 -1 $-1 54.264069704891241 -8.4069317033737416 -8.5021255662216255 #
DXID-attrib $-1 -1 $-1 $125 $109 @18 ASM_EDGE_FROM_STEP @5 20555 #
truecolor-adesk-attrib $-1 -1 $143 $-1 $129 -1056964608 #
ellipse-curve $-1 -1 $-1 54.264069704891241 -8.4867576429742613 -10.000000000000004 1 -6.9694279627987644e-18 -1.8358627563919873e-16 -4.2156189871227264e-18 1.4978744337783774 -0.079825939600520118 1 F -1.5707963267948968 F 1.5707963267948966 #
DXID-attrib $-1 -1 $-1 $130 $120 @18 ASM_EDGE_FROM_STEP @5 20581 #
point $-1 -1 $-1 54.264069704891241 -8.5665835825747809 -11.497874433778382 #
DXID-attrib $-1 -1 $-1 $133 $121 @18 ASM_EDGE_FROM_STEP @5 20586 #
DXID-attrib $-1 -1 $-1 $138 $129 @18 ASM_EDGE_FROM_STEP @5 20598 #
