700 340 1 0         
5 ZWCAD 12 ACIS 28.0 NT 24 Sat May 11 14:21:44 2024 
1 9.9999999999999995e-07 1e-10 
body $1 -1 $-1 $2 $-1 $-1 #
DXID-attrib $-1 -1 $-1 $-1 $0 @18 ASM_BODY_FROM_STEP @83 ED63CBBDB8487FB7D6D5D6312973E6252A7B4861|:|295BA423E49AC1F090FA8DB80626CB264BABAFA2 #
lump $-1 -1 $-1 $-1 $3 $0 #
shell $-1 -1 $-1 $-1 $-1 $4 $-1 $2 #
face $5 -1 $-1 $6 $7 $3 $-1 $8 forward single #
truecolor-adesk-attrib $-1 -1 $9 $-1 $4 -1027620929 #
face $10 -1 $-1 $11 $12 $3 $-1 $13 forward single #
loop $-1 -1 $-1 $-1 $14 $4 #
plane-surface $-1 -1 $-1 -160.86086579200446 90.485602908965987 -6.3499999999999996 -0.70710678118654757 0.70710678118654757 0 -0.70710678118654768 -0.70710678118654768 0 forward_v I I I I #
DXID-attrib $-1 -1 $-1 $5 $4 @18 ASM_FACE_FROM_STEP @15 Zaber-ES01-3383 #
truecolor-adesk-attrib $-1 -1 $15 $-1 $6 -1027620929 #
face $16 -1 $-1 $17 $18 $3 $-1 $19 forward single #
loop $-1 -1 $-1 $-1 $20 $6 #
plane-surface $-1 -1 $-1 -155.86086579200446 95.485602908965987 -6.3499999999999996 0 1 0 0 0 1 forward_v I I I I #
coedge $-1 -1 $-1 $21 $22 $23 $24 reversed $7 $-1 #
DXID-attrib $-1 -1 $-1 $10 $6 @18 ASM_FACE_FROM_STEP @15 Zaber-ES01-4625 #
truecolor-adesk-attrib $-1 -1 $25 $-1 $11 -1027620929 #
face $26 -1 $-1 $27 $28 $3 $-1 $29 forward single #
loop $-1 -1 $-1 $-1 $30 $11 #
plane-surface $-1 -1 $-1 -65.860865792004446 95.485602908965987 -6.3499999999999996 0.70710678118654802 0.70710678118654702 0 -0.70710678118654713 0.70710678118654813 0 forward_v I I I I #
coedge $-1 -1 $-1 $31 $32 $33 $34 reversed $12 $-1 #
coedge $-1 -1 $-1 $35 $14 $32 $36 reversed $7 $-1 #
coedge $-1 -1 $-1 $14 $35 $37 $38 forward $7 $-1 #
coedge $-1 -1 $-1 $39 $33 $14 $24 forward $40 $-1 #
edge $41 -1 $-1 $42 -0.0070710678118654753 $43 0 $14 $44 forward @7 unknown #
DXID-attrib $-1 -1 $-1 $16 $11 @18 ASM_FACE_FROM_STEP @15 Zaber-ES01-2615 #
truecolor-adesk-attrib $-1 -1 $45 $-1 $17 -1027620929 #
face $46 -1 $-1 $47 $48 $3 $-1 $49 forward single #
loop $-1 -1 $-1 $-1 $50 $17 #
plane-surface $-1 -1 $-1 -60.860865792004461 90.485602908965987 -6.3499999999999996 1 0 0 0 0 -1 forward_v I I I I #
coedge $-1 -1 $-1 $51 $52 $53 $54 reversed $18 $-1 #
coedge $-1 -1 $-1 $55 $20 $52 $56 reversed $12 $-1 #
coedge $-1 -1 $-1 $20 $55 $21 $36 forward $12 $-1 #
coedge $-1 -1 $-1 $23 $53 $20 $34 forward $40 $-1 #
edge $57 -1 $-1 $58 -0.090000000000000038 $42 0 $20 $59 forward @7 unknown #
coedge $-1 -1 $-1 $22 $21 $60 $61 forward $7 $-1 #
edge $62 -1 $-1 $63 0 $42 0.0063499999999999997 $21 $64 forward @7 unknown #
coedge $-1 -1 $-1 $65 $66 $22 $38 reversed $67 $-1 #
edge $68 -1 $-1 $69 0 $43 0.0063499999999999997 $22 $70 forward @7 unknown #
coedge $-1 -1 $-1 $71 $23 $66 $72 forward $40 $-1 #
loop $-1 -1 $-1 $73 $23 $74 #
truecolor-adesk-attrib $-1 -1 $75 $-1 $24 -1027620929 #
vertex $-1 -1 $-1 $24 $76 #
vertex $-1 -1 $-1 $24 $77 #
straight-curve $-1 -1 $-1 -160.86086579200446 90.485602908965987 0 -707.10678118654755 -707.10678118654755 0 F -0.0070710678118654753 F 0 #
DXID-attrib $-1 -1 $-1 $26 $17 @18 ASM_FACE_FROM_STEP @15 Zaber-ES01-1460 #
truecolor-adesk-attrib $-1 -1 $78 $-1 $27 -1027620929 #
face $79 -1 $-1 $80 $81 $3 $-1 $82 forward single #
loop $-1 -1 $-1 $-1 $83 $27 #
plane-surface $-1 -1 $-1 -60.860865792004461 20.485602908965987 -6.3499999999999996 0.70710678118654802 -0.70710678118654702 0 0.70710678118654713 0.70710678118654813 0 forward_v I I I I #
coedge $-1 -1 $-1 $84 $85 $86 $87 reversed $28 $-1 #
coedge $-1 -1 $-1 $88 $30 $85 $89 reversed $18 $-1 #
coedge $-1 -1 $-1 $30 $88 $31 $56 forward $18 $-1 #
coedge $-1 -1 $-1 $33 $86 $30 $54 forward $40 $-1 #
edge $90 -1 $-1 $91 -0.0070710678118654693 $58 0 $30 $92 forward @7 unknown #
coedge $-1 -1 $-1 $32 $31 $93 $94 forward $12 $-1 #
edge $95 -1 $-1 $96 0 $58 0.0063499999999999997 $31 $97 forward @7 unknown #
truecolor-adesk-attrib $-1 -1 $98 $-1 $34 -1027620929 #
vertex $-1 -1 $-1 $34 $99 #
straight-curve $-1 -1 $-1 -155.86086579200446 95.485602908965987 0 -1000 0 0 F -0.090000000000000038 F 0 #
coedge $-1 -1 $-1 $93 $100 $35 $61 reversed $101 $-1 #
edge $102 -1 $-1 $63 -0.0070710678118654753 $69 0 $35 $103 forward @7 unknown #
truecolor-adesk-attrib $-1 -1 $104 $-1 $36 -1027620929 #
vertex $-1 -1 $-1 $36 $105 #
straight-curve $-1 -1 $-1 -155.86086579200446 95.485602908965987 -6.3499999999999996 0 0 1000 F 0 F 0.0063499999999999997 #
coedge $-1 -1 $-1 $106 $37 $100 $107 forward $67 $-1 #
coedge $-1 -1 $-1 $37 $106 $39 $72 reversed $67 $-1 #
loop $-1 -1 $-1 $-1 $66 $108 #
truecolor-adesk-attrib $-1 -1 $109 $-1 $38 -1027620929 #
vertex $-1 -1 $-1 $61 $110 #
straight-curve $-1 -1 $-1 -160.86086579200446 90.485602908965987 -6.3499999999999996 0 0 1000 F 0 F 0.0063499999999999997 #
coedge $-1 -1 $-1 $111 $39 $112 $113 forward $40 $-1 #
edge $114 -1 $-1 $43 0 $115 0.070000000000000007 $66 $116 forward @7 unknown #
loop $-1 -1 $-1 $-1 $117 $74 #
face $118 -1 $-1 $119 $40 $3 $-1 $120 reversed single #
DXID-attrib $-1 -1 $-1 $41 $24 @18 ASM_EDGE_FROM_STEP @4 1417 #
point $-1 -1 $-1 -155.86086579200446 95.485602908965987 0 #
point $-1 -1 $-1 -160.86086579200446 90.485602908965987 0 #
DXID-attrib $-1 -1 $-1 $46 $27 @18 ASM_FACE_FROM_STEP @15 Zaber-ES01-5216 #
truecolor-adesk-attrib $-1 -1 $121 $-1 $47 -1027620929 #
face $122 -1 $-1 $108 $123 $3 $-1 $124 forward single #
loop $-1 -1 $-1 $-1 $125 $47 #
plane-surface $-1 -1 $-1 -155.86086579200446 15.485602908965987 -6.3499999999999996 0 -1 0 0 0 -1 forward_v I I I I #
coedge $-1 -1 $-1 $126 $127 $128 $129 reversed $48 $-1 #
coedge $-1 -1 $-1 $130 $50 $127 $131 reversed $28 $-1 #
coedge $-1 -1 $-1 $50 $130 $51 $89 forward $28 $-1 #
coedge $-1 -1 $-1 $53 $128 $50 $87 forward $40 $-1 #
edge $132 -1 $-1 $133 -0.070000000000000007 $91 0 $50 $134 forward @7 unknown #
coedge $-1 -1 $-1 $52 $51 $135 $136 forward $18 $-1 #
edge $137 -1 $-1 $138 0 $91 0.0063499999999999997 $51 $139 forward @7 unknown #
truecolor-adesk-attrib $-1 -1 $140 $-1 $54 -1027620929 #
vertex $-1 -1 $-1 $54 $141 #
straight-curve $-1 -1 $-1 -65.860865792004446 95.485602908965987 0 -707.10678118654698 707.10678118654801 0 F -0.0070710678118654693 F 0 #
coedge $-1 -1 $-1 $135 $60 $55 $94 reversed $101 $-1 #
edge $142 -1 $-1 $96 -0.090000000000000038 $63 0 $55 $143 forward @7 unknown #
truecolor-adesk-attrib $-1 -1 $144 $-1 $56 -1027620929 #
vertex $-1 -1 $-1 $56 $145 #
straight-curve $-1 -1 $-1 -65.860865792004446 95.485602908965987 -6.3499999999999996 0 0 1000 F 0 F 0.0063499999999999997 #
DXID-attrib $-1 -1 $-1 $57 $34 @18 ASM_EDGE_FROM_STEP @3 993 #
point $-1 -1 $-1 -65.860865792004446 95.485602908965987 0 #
coedge $-1 -1 $-1 $60 $146 $65 $107 reversed $101 $-1 #
loop $-1 -1 $-1 $147 $60 $148 #
truecolor-adesk-attrib $-1 -1 $149 $-1 $61 -1027620929 #
straight-curve $-1 -1 $-1 -160.86086579200446 90.485602908965987 -6.3499999999999996 -707.10678118654755 -707.10678118654755 0 F -0.0070710678118654753 F 0 #
DXID-attrib $-1 -1 $-1 $62 $36 @18 ASM_EDGE_FROM_STEP @4 2812 #
point $-1 -1 $-1 -155.86086579200446 95.485602908965987 -6.3499999999999996 #
coedge $-1 -1 $-1 $66 $65 $150 $151 forward $67 $-1 #
edge $152 -1 $-1 $69 0 $153 0.070000000000000007 $65 $154 forward @7 unknown #
face $155 -1 $-1 $148 $67 $3 $-1 $156 forward single #
DXID-attrib $-1 -1 $-1 $68 $38 @18 ASM_EDGE_FROM_STEP @4 5161 #
point $-1 -1 $-1 -160.86086579200446 90.485602908965987 -6.3499999999999996 #
coedge $-1 -1 $-1 $128 $71 $125 $157 forward $40 $-1 #
coedge $-1 -1 $-1 $150 $158 $71 $113 reversed $123 $-1 #
edge $159 -1 $-1 $115 0 $160 0.0070710678118654693 $112 $161 forward @7 unknown #
truecolor-adesk-attrib $-1 -1 $162 $-1 $72 -1027620929 #
vertex $-1 -1 $-1 $113 $163 #
straight-curve $-1 -1 $-1 -160.86086579200446 90.485602908965987 0 9.9127055770103254e-14 -1000 0 F 0 F 0.070000000000000007 #
coedge $-1 -1 $-1 $164 $165 $166 $167 reversed $73 $-1 #
truecolor-adesk-attrib $-1 -1 $168 $-1 $74 -1027620929 #
face $169 -1 $-1 $170 $171 $3 $-1 $172 reversed single #
plane-surface $-1 -1 $-1 -123.36086579200447 55.485602908965987 0 0 0 -1 -1 0 0 forward_v I I I I #
DXID-attrib $-1 -1 $-1 $79 $47 @18 ASM_FACE_FROM_STEP @15 Zaber-ES01-1477 #
truecolor-adesk-attrib $-1 -1 $173 $-1 $80 -1027620929 #
loop $-1 -1 $-1 $-1 $112 $80 #
plane-surface $-1 -1 $-1 -160.86086579200446 20.48560290896598 -6.3499999999999996 -0.70710678118654702 -0.70710678118654802 0 0.70710678118654813 -0.70710678118654713 0 forward_v I I I I #
coedge $-1 -1 $-1 $174 $175 $111 $157 reversed $81 $-1 #
coedge $-1 -1 $-1 $176 $83 $175 $177 reversed $48 $-1 #
coedge $-1 -1 $-1 $83 $176 $84 $131 forward $48 $-1 #
coedge $-1 -1 $-1 $86 $111 $83 $129 forward $40 $-1 #
edge $178 -1 $-1 $179 -0.0070710678118654693 $133 0 $83 $180 forward @7 unknown #
coedge $-1 -1 $-1 $85 $84 $181 $182 forward $28 $-1 #
edge $183 -1 $-1 $184 0 $133 0.0063499999999999997 $84 $185 forward @7 unknown #
truecolor-adesk-attrib $-1 -1 $186 $-1 $87 -1027620929 #
vertex $-1 -1 $-1 $87 $187 #
straight-curve $-1 -1 $-1 -60.860865792004461 90.485602908965987 0 0 1000 0 F -0.070000000000000007 F 0 #
coedge $-1 -1 $-1 $181 $93 $88 $136 reversed $101 $-1 #
edge $188 -1 $-1 $138 -0.0070710678118654693 $96 0 $88 $189 forward @7 unknown #
truecolor-adesk-attrib $-1 -1 $190 $-1 $89 -1027620929 #
vertex $-1 -1 $-1 $89 $191 #
straight-curve $-1 -1 $-1 -60.860865792004461 90.485602908965987 -6.3499999999999996 0 0 1000 F 0 F 0.0063499999999999997 #
DXID-attrib $-1 -1 $-1 $90 $54 @18 ASM_EDGE_FROM_STEP @4 3936 #
point $-1 -1 $-1 -60.860865792004461 90.485602908965987 0 #
truecolor-adesk-attrib $-1 -1 $192 $-1 $94 -1027620929 #
straight-curve $-1 -1 $-1 -155.86086579200446 95.485602908965987 -6.3499999999999996 -1000 0 0 F -0.090000000000000038 F 0 #
DXID-attrib $-1 -1 $-1 $95 $56 @18 ASM_EDGE_FROM_STEP @4 1763 #
point $-1 -1 $-1 -65.860865792004446 95.485602908965987 -6.3499999999999996 #
coedge $-1 -1 $-1 $100 $193 $194 $195 reversed $101 $-1 #
loop $-1 -1 $-1 $-1 $196 $148 #
face $197 -1 $-1 $74 $101 $3 $-1 $198 forward single #
DXID-attrib $-1 -1 $-1 $102 $61 @18 ASM_EDGE_FROM_STEP @4 5197 #
coedge $-1 -1 $-1 $194 $112 $106 $151 reversed $123 $-1 #
edge $199 -1 $-1 $153 0 $115 0.0063499999999999997 $150 $200 forward @7 unknown #
truecolor-adesk-attrib $-1 -1 $201 $-1 $107 -1027620929 #
vertex $-1 -1 $-1 $151 $202 #
straight-curve $-1 -1 $-1 -160.86086579200446 90.485602908965987 -6.3499999999999996 9.9127055770103254e-14 -1000 0 F 0 F 0.070000000000000007 #
truecolor-adesk-attrib $-1 -1 $203 $-1 $108 -1027620929 #
plane-surface $-1 -1 $-1 -160.86086579200446 90.485602908965987 -6.3499999999999996 -1 -9.9127055770103255e-17 0 9.9127055770103268e-17 -1 0 forward_v I I I I #
edge $204 -1 $-1 $160 0 $179 0.090000000000000024 $125 $205 forward @7 unknown #
coedge $-1 -1 $-1 $112 $194 $174 $206 forward $123 $-1 #
truecolor-adesk-attrib $-1 -1 $207 $-1 $113 -1027620929 #
vertex $-1 -1 $-1 $157 $208 #
straight-curve $-1 -1 $-1 -160.86086579200446 20.48560290896598 0 707.10678118654801 -707.10678118654698 0 F 0 F 0.0070710678118654693 #
DXID-attrib $-1 -1 $-1 $114 $72 @18 ASM_EDGE_FROM_STEP @4 2211 #
point $-1 -1 $-1 -160.86086579200446 20.48560290896598 0 #
coedge $-1 -1 $-1 $209 $117 $210 $211 reversed $73 $-1 #
coedge $-1 -1 $-1 $117 $209 $212 $213 reversed $73 $-1 #
coedge $-1 -1 $-1 $214 $215 $117 $167 forward $216 $-1 #
edge $217 -1 $-1 $218 0 $219 0.050000000000000003 $117 $220 forward @7 unknown #
DXID-attrib $-1 -1 $-1 $118 $74 @18 ASM_FACE_FROM_STEP @15 Zaber-ES01-1008 #
truecolor-adesk-attrib $-1 -1 $221 $-1 $119 -1027620929 #
face $222 -1 $-1 $223 $224 $3 $-1 $225 reversed single #
loop $-1 -1 $-1 $-1 $210 $119 #
cone-surface $-1 -1 $-1 -73.860865792004461 80.485602908965987 -6.3499999999999996 0 0 1 3.5000000000000031 0 0 1 I I 0 1 3.5000000000000031 forward I I I I #
DXID-attrib $-1 -1 $-1 $122 $80 @18 ASM_FACE_FROM_STEP @15 Zaber-ES01-5881 #
coedge $-1 -1 $-1 $226 $125 $158 $206 reversed $81 $-1 #
coedge $-1 -1 $-1 $125 $226 $126 $177 forward $81 $-1 #
coedge $-1 -1 $-1 $127 $126 $227 $228 forward $48 $-1 #
edge $229 -1 $-1 $230 0 $179 0.0063499999999999997 $126 $231 forward @7 unknown #
truecolor-adesk-attrib $-1 -1 $232 $-1 $129 -1027620929 #
vertex $-1 -1 $-1 $129 $233 #
straight-curve $-1 -1 $-1 -60.860865792004461 20.485602908965987 0 707.10678118654698 707.10678118654801 0 F -0.0070710678118654693 F 0 #
coedge $-1 -1 $-1 $227 $135 $130 $182 reversed $101 $-1 #
edge $234 -1 $-1 $184 -0.070000000000000007 $138 0 $130 $235 forward @7 unknown #
truecolor-adesk-attrib $-1 -1 $236 $-1 $131 -1027620929 #
vertex $-1 -1 $-1 $131 $237 #
straight-curve $-1 -1 $-1 -60.860865792004461 20.485602908965987 -6.3499999999999996 0 0 1000 F 0 F 0.0063499999999999997 #
DXID-attrib $-1 -1 $-1 $132 $87 @18 ASM_EDGE_FROM_STEP @4 2943 #
point $-1 -1 $-1 -60.860865792004461 20.485602908965987 0 #
truecolor-adesk-attrib $-1 -1 $238 $-1 $136 -1027620929 #
straight-curve $-1 -1 $-1 -65.860865792004446 95.485602908965987 -6.3499999999999996 -707.10678118654698 707.10678118654801 0 F -0.0070710678118654693 F 0 #
DXID-attrib $-1 -1 $-1 $137 $89 @18 ASM_EDGE_FROM_STEP @4 4049 #
point $-1 -1 $-1 -60.860865792004461 90.485602908965987 -6.3499999999999996 #
DXID-attrib $-1 -1 $-1 $142 $94 @18 ASM_EDGE_FROM_STEP @4 1521 #
coedge $-1 -1 $-1 $146 $227 $226 $239 reversed $101 $-1 #
coedge $-1 -1 $-1 $158 $150 $146 $195 forward $123 $-1 #
edge $240 -1 $-1 $153 0 $241 0.0070710678118654693 $194 $242 forward @7 unknown #
coedge $-1 -1 $-1 $243 $244 $245 $246 forward $147 $-1 #
truecolor-adesk-attrib $-1 -1 $247 $-1 $148 -1027620929 #
plane-surface $-1 -1 $-1 -123.36086579200447 55.485602908965987 -6.3499999999999996 0 0 -1 -1 0 0 forward_v I I I I #
truecolor-adesk-attrib $-1 -1 $248 $-1 $151 -1027620929 #
straight-curve $-1 -1 $-1 -160.86086579200446 20.48560290896598 -6.3499999999999996 0 0 1000 F 0 F 0.0063499999999999997 #
DXID-attrib $-1 -1 $-1 $152 $107 @18 ASM_EDGE_FROM_STEP @4 4545 #
point $-1 -1 $-1 -160.86086579200446 20.48560290896598 -6.3499999999999996 #
DXID-attrib $-1 -1 $-1 $155 $108 @18 ASM_FACE_FROM_STEP @15 Zaber-ES01-3676 #
truecolor-adesk-attrib $-1 -1 $249 $-1 $157 -1027620929 #
straight-curve $-1 -1 $-1 -155.86086579200446 15.485602908965987 0 1000 0 0 F 0 F 0.090000000000000024 #
edge $250 -1 $-1 $241 0 $160 0.0063499999999999997 $174 $251 forward @7 unknown #
DXID-attrib $-1 -1 $-1 $159 $113 @18 ASM_EDGE_FROM_STEP @3 328 #
point $-1 -1 $-1 -155.86086579200446 15.485602908965987 0 #
coedge $-1 -1 $-1 $165 $164 $252 $253 reversed $73 $-1 #
coedge $-1 -1 $-1 $254 $255 $164 $211 forward $171 $-1 #
edge $256 -1 $-1 $257 0 $218 3.1415926535897931 $164 $258 forward @7 unknown #
coedge $-1 -1 $-1 $259 $260 $165 $213 forward $261 $-1 #
edge $262 -1 $-1 $219 -3.1415926535897931 $263 0 $165 $264 forward @7 unknown #
coedge $-1 -1 $-1 $265 $166 $260 $266 reversed $216 $-1 #
coedge $-1 -1 $-1 $166 $265 $254 $267 forward $216 $-1 #
loop $-1 -1 $-1 $-1 $166 $268 #
truecolor-adesk-attrib $-1 -1 $269 $-1 $167 -1027620929 #
vertex $-1 -1 $-1 $167 $270 #
vertex $-1 -1 $-1 $167 $271 #
straight-curve $-1 -1 $-1 -77.360865792004461 80.485602908965987 0 0 -1000 0 F 0 F 0.050000000000000003 #
DXID-attrib $-1 -1 $-1 $169 $119 @18 ASM_FACE_FROM_STEP @15 Zaber-ES01-3886 #
truecolor-adesk-attrib $-1 -1 $272 $-1 $170 -1027620929 #
face $273 -1 $-1 $268 $261 $3 $-1 $274 reversed single #
loop $-1 -1 $-1 $-1 $252 $170 #
plane-surface $-1 -1 $-1 -70.360865792004461 80.485602908965987 -6.3499999999999996 1 0 0 0 0 -1 forward_v I I I I #
coedge $-1 -1 $-1 $175 $174 $193 $239 forward $81 $-1 #
coedge $-1 -1 $-1 $193 $181 $176 $228 reversed $101 $-1 #
edge $275 -1 $-1 $230 -0.0070710678118654693 $184 0 $176 $276 forward @7 unknown #
truecolor-adesk-attrib $-1 -1 $277 $-1 $177 -1027620929 #
vertex $-1 -1 $-1 $177 $278 #
straight-curve $-1 -1 $-1 -65.860865792004446 15.485602908965987 -6.3499999999999996 0 0 1000 F 0 F 0.0063499999999999997 #
DXID-attrib $-1 -1 $-1 $178 $129 @18 ASM_EDGE_FROM_STEP @4 3103 #
point $-1 -1 $-1 -65.860865792004446 15.485602908965987 0 #
truecolor-adesk-attrib $-1 -1 $279 $-1 $182 -1027620929 #
straight-curve $-1 -1 $-1 -60.860865792004461 90.485602908965987 -6.3499999999999996 0 1000 0 F -0.070000000000000007 F 0 #
DXID-attrib $-1 -1 $-1 $183 $131 @18 ASM_EDGE_FROM_STEP @4 1959 #
point $-1 -1 $-1 -60.860865792004461 20.485602908965987 -6.3499999999999996 #
DXID-attrib $-1 -1 $-1 $188 $136 @18 ASM_EDGE_FROM_STEP @4 2442 #
edge $280 -1 $-1 $241 0 $230 0.090000000000000024 $226 $281 forward @7 unknown #
truecolor-adesk-attrib $-1 -1 $282 $-1 $195 -1027620929 #
vertex $-1 -1 $-1 $206 $283 #
straight-curve $-1 -1 $-1 -160.86086579200446 20.48560290896598 -6.3499999999999996 707.10678118654801 -707.10678118654698 0 F 0 F 0.0070710678118654693 #
coedge $-1 -1 $-1 $284 $196 $265 $285 forward $147 $-1 #
coedge $-1 -1 $-1 $196 $284 $286 $287 forward $147 $-1 #
coedge $-1 -1 $-1 $255 $254 $196 $246 reversed $171 $-1 #
edge $288 -1 $-1 $289 0 $290 3.1415926535897931 $196 $291 forward @7 unknown #
DXID-attrib $-1 -1 $-1 $197 $148 @18 ASM_FACE_FROM_STEP @15 Zaber-ES01-5004 #
DXID-attrib $-1 -1 $-1 $199 $151 @18 ASM_EDGE_FROM_STEP @4 2922 #
DXID-attrib $-1 -1 $-1 $204 $157 @18 ASM_EDGE_FROM_STEP @4 3768 #
truecolor-adesk-attrib $-1 -1 $292 $-1 $206 -1027620929 #
straight-curve $-1 -1 $-1 -155.86086579200446 15.485602908965987 -6.3499999999999996 0 0 1000 F 0 F 0.0063499999999999997 #
coedge $-1 -1 $-1 $293 $294 $209 $253 forward $224 $-1 #
edge $295 -1 $-1 $263 -0.050000000000000003 $257 0 $209 $296 forward @7 unknown #
coedge $-1 -1 $-1 $245 $210 $215 $267 reversed $171 $-1 #
coedge $-1 -1 $-1 $210 $245 $293 $297 forward $171 $-1 #
truecolor-adesk-attrib $-1 -1 $298 $-1 $211 -1027620929 #
vertex $-1 -1 $-1 $211 $299 #
ellipse-curve $-1 -1 $-1 -73.860865792004461 80.485602908965987 0 0 0 1 3.5000000000000031 0 0 1 F 0 F 3.1415926535897931 #
coedge $-1 -1 $-1 $300 $212 $294 $301 reversed $261 $-1 #
coedge $-1 -1 $-1 $212 $300 $214 $266 forward $261 $-1 #
loop $-1 -1 $-1 $-1 $212 $223 #
truecolor-adesk-attrib $-1 -1 $302 $-1 $213 -1027620929 #
vertex $-1 -1 $-1 $253 $303 #
ellipse-curve $-1 -1 $-1 -73.860865792004461 30.485602908965987 0 0 0 1 3.5000000000000031 0 0 1 F -3.1415926535897931 F 0 #
coedge $-1 -1 $-1 $215 $214 $243 $285 reversed $216 $-1 #
edge $304 -1 $-1 $305 0 $219 0.0063499999999999997 $260 $306 forward @7 unknown #
edge $307 -1 $-1 $290 0 $218 0.0063499999999999997 $254 $308 forward @7 unknown #
face $309 -1 $-1 $-1 $216 $3 $-1 $310 reversed single #
DXID-attrib $-1 -1 $-1 $217 $167 @18 ASM_EDGE_FROM_STEP @4 2336 #
point $-1 -1 $-1 -77.360865792004461 80.485602908965987 0 #
point $-1 -1 $-1 -77.360865792004461 30.485602908965987 0 #
DXID-attrib $-1 -1 $-1 $222 $170 @18 ASM_FACE_FROM_STEP @15 Zaber-ES01-4374 #
truecolor-adesk-attrib $-1 -1 $311 $-1 $223 -1027620929 #
cone-surface $-1 -1 $-1 -73.860865792004461 30.485602908965987 -6.3499999999999996 0 0 1 3.5000000000000031 0 0 1 I I 0 1 3.5000000000000031 forward I I I I #
truecolor-adesk-attrib $-1 -1 $312 $-1 $228 -1027620929 #
straight-curve $-1 -1 $-1 -60.860865792004461 20.485602908965987 -6.3499999999999996 707.10678118654698 707.10678118654801 0 F -0.0070710678118654693 F 0 #
DXID-attrib $-1 -1 $-1 $229 $177 @18 ASM_EDGE_FROM_STEP @4 4266 #
point $-1 -1 $-1 -65.860865792004446 15.485602908965987 -6.3499999999999996 #
DXID-attrib $-1 -1 $-1 $234 $182 @18 ASM_EDGE_FROM_STEP @4 4594 #
truecolor-adesk-attrib $-1 -1 $313 $-1 $239 -1027620929 #
straight-curve $-1 -1 $-1 -155.86086579200446 15.485602908965987 -6.3499999999999996 1000 0 0 F 0 F 0.090000000000000024 #
DXID-attrib $-1 -1 $-1 $240 $195 @18 ASM_EDGE_FROM_STEP @4 5160 #
point $-1 -1 $-1 -155.86086579200446 15.485602908965987 -6.3499999999999996 #
coedge $-1 -1 $-1 $244 $243 $300 $314 forward $147 $-1 #
edge $315 -1 $-1 $290 0 $305 0.050000000000000003 $243 $316 forward @7 unknown #
coedge $-1 -1 $-1 $294 $293 $244 $287 reversed $224 $-1 #
edge $317 -1 $-1 $318 -0.050000000000000003 $289 0 $244 $319 forward @7 unknown #
truecolor-adesk-attrib $-1 -1 $320 $-1 $246 -1027620929 #
vertex $-1 -1 $-1 $246 $321 #
vertex $-1 -1 $-1 $246 $322 #
ellipse-curve $-1 -1 $-1 -73.860865792004461 80.485602908965987 -6.3499999999999996 0 0 1 3.5000000000000031 0 0 1 F 0 F 3.1415926535897931 #
DXID-attrib $-1 -1 $-1 $250 $206 @18 ASM_EDGE_FROM_STEP @4 5595 #
coedge $-1 -1 $-1 $286 $252 $255 $297 reversed $224 $-1 #
coedge $-1 -1 $-1 $252 $286 $259 $301 forward $224 $-1 #
truecolor-adesk-attrib $-1 -1 $323 $-1 $253 -1027620929 #
straight-curve $-1 -1 $-1 -70.360865792004461 80.485602908965987 0 0 1000 0 F -0.050000000000000003 F 0 #
edge $324 -1 $-1 $289 0 $257 0.0063499999999999997 $255 $325 forward @7 unknown #
DXID-attrib $-1 -1 $-1 $256 $211 @18 ASM_EDGE_FROM_STEP @4 1993 #
point $-1 -1 $-1 -70.360865792004461 80.485602908965987 0 #
coedge $-1 -1 $-1 $260 $259 $284 $314 reversed $261 $-1 #
edge $326 -1 $-1 $318 0 $263 0.0063499999999999997 $294 $327 forward @7 unknown #
DXID-attrib $-1 -1 $-1 $262 $213 @18 ASM_EDGE_FROM_STEP @4 1671 #
point $-1 -1 $-1 -70.360865792004461 30.485602908965987 0 #
truecolor-adesk-attrib $-1 -1 $328 $-1 $266 -1027620929 #
vertex $-1 -1 $-1 $285 $329 #
straight-curve $-1 -1 $-1 -77.360865792004461 30.485602908965987 -6.3499999999999996 0 0 1000 F 0 F 0.0063499999999999997 #
truecolor-adesk-attrib $-1 -1 $330 $-1 $267 -1027620929 #
straight-curve $-1 -1 $-1 -77.360865792004461 80.485602908965987 -6.3499999999999996 0 0 1000 F 0 F 0.0063499999999999997 #
truecolor-adesk-attrib $-1 -1 $331 $-1 $268 -1027620929 #
plane-surface $-1 -1 $-1 -77.360865792004461 80.485602908965987 -6.3499999999999996 -1 0 0 0 0 1 forward_v I I I I #
DXID-attrib $-1 -1 $-1 $273 $223 @18 ASM_FACE_FROM_STEP @15 Zaber-ES01-2742 #
DXID-attrib $-1 -1 $-1 $275 $228 @18 ASM_EDGE_FROM_STEP @4 4142 #
DXID-attrib $-1 -1 $-1 $280 $239 @18 ASM_EDGE_FROM_STEP @4 4368 #
edge $332 -1 $-1 $305 -3.1415926535897931 $318 0 $284 $333 forward @7 unknown #
truecolor-adesk-attrib $-1 -1 $334 $-1 $285 -1027620929 #
straight-curve $-1 -1 $-1 -77.360865792004461 80.485602908965987 -6.3499999999999996 0 -1000 0 F 0 F 0.050000000000000003 #
truecolor-adesk-attrib $-1 -1 $335 $-1 $287 -1027620929 #
vertex $-1 -1 $-1 $314 $336 #
straight-curve $-1 -1 $-1 -70.360865792004461 80.485602908965987 -6.3499999999999996 0 1000 0 F -0.050000000000000003 F 0 #
DXID-attrib $-1 -1 $-1 $288 $246 @18 ASM_EDGE_FROM_STEP @4 2236 #
point $-1 -1 $-1 -70.360865792004461 80.485602908965987 -6.3499999999999996 #
point $-1 -1 $-1 -77.360865792004461 80.485602908965987 -6.3499999999999996 #
DXID-attrib $-1 -1 $-1 $295 $253 @18 ASM_EDGE_FROM_STEP @4 1845 #
truecolor-adesk-attrib $-1 -1 $337 $-1 $297 -1027620929 #
straight-curve $-1 -1 $-1 -70.360865792004461 80.485602908965987 -6.3499999999999996 0 0 1000 F 0 F 0.0063499999999999997 #
truecolor-adesk-attrib $-1 -1 $338 $-1 $301 -1027620929 #
straight-curve $-1 -1 $-1 -70.360865792004461 30.485602908965987 -6.3499999999999996 0 0 1000 F 0 F 0.0063499999999999997 #
DXID-attrib $-1 -1 $-1 $304 $266 @18 ASM_EDGE_FROM_STEP @4 3669 #
point $-1 -1 $-1 -77.360865792004461 30.485602908965987 -6.3499999999999996 #
DXID-attrib $-1 -1 $-1 $307 $267 @18 ASM_EDGE_FROM_STEP @2 31 #
DXID-attrib $-1 -1 $-1 $309 $268 @18 ASM_FACE_FROM_STEP @15 Zaber-ES01-1090 #
truecolor-adesk-attrib $-1 -1 $339 $-1 $314 -1027620929 #
ellipse-curve $-1 -1 $-1 -73.860865792004461 30.485602908965987 -6.3499999999999996 0 0 1 3.5000000000000031 0 0 1 F -3.1415926535897931 F 0 #
DXID-attrib $-1 -1 $-1 $315 $285 @18 ASM_EDGE_FROM_STEP @3 431 #
DXID-attrib $-1 -1 $-1 $317 $287 @18 ASM_EDGE_FROM_STEP @4 2520 #
point $-1 -1 $-1 -70.360865792004461 30.485602908965987 -6.3499999999999996 #
DXID-attrib $-1 -1 $-1 $324 $297 @18 ASM_EDGE_FROM_STEP @4 2647 #
DXID-attrib $-1 -1 $-1 $326 $301 @18 ASM_EDGE_FROM_STEP @3 228 #
DXID-attrib $-1 -1 $-1 $332 $314 @18 ASM_EDGE_FROM_STEP @4 4626 #
