700 598 1 0         
5 ZWCAD 12 ACIS 28.0 NT 24 Sat May 11 16:46:07 2024 
1 9.9999999999999995e-07 1e-10 
body $1 -1 $-1 $2 $-1 $-1 #
DXID-attrib $-1 -1 $-1 $-1 $0 @18 ASM_BODY_FROM_STEP @83 FB8B3A74CA0404B83B5FC27F9F102BAAE00B2CD2|:|9E7704C28F7CAC7A6965553BDEBE3DC888E63275 #
lump $-1 -1 $-1 $-1 $3 $0 #
shell $-1 -1 $-1 $-1 $-1 $4 $-1 $2 #
face $5 -1 $-1 $6 $7 $3 $-1 $8 reversed single #
truecolor-adesk-attrib $-1 -1 $9 $-1 $4 -1056964608 #
face $10 -1 $-1 $11 $12 $3 $-1 $13 reversed single #
loop $-1 -1 $-1 $-1 $14 $4 #
cone-surface $-1 -1 $-1 -738.51063942170038 75.734468018930784 94.399999999999977 -2.7755575615628914e-17 -6.018531076210112e-36 -1 -2.7500000000000027 0 7.6327832942979586e-17 1 I I 0 1 2.7500000000000031 forward I I I I #
fmesh-eye-attrib $-1 -1 $15 $5 $4 #
truecolor-adesk-attrib $-1 -1 $16 $-1 $6 -1056964608 #
face $17 -1 $-1 $18 $19 $3 $-1 $20 reversed single #
loop $-1 -1 $-1 $-1 $21 $6 #
cone-surface $-1 -1 $-1 -680.52788336440346 75.734468018930798 94.399999999999977 -2.7755575615628914e-17 -6.018531076210112e-36 -1 -2.7500000000000027 0 7.6327832942979586e-17 1 I I 0 1 2.7500000000000031 forward I I I I #
coedge $-1 -1 $-1 $22 $23 $24 $25 reversed $7 $-1 #
DXID-attrib $-1 -1 $-1 $9 $4 @18 ASM_FACE_FROM_STEP @20 输送带机构-3642 #
fmesh-eye-attrib $-1 -1 $26 $10 $6 #
truecolor-adesk-attrib $-1 -1 $27 $-1 $11 -1056964608 #
face $28 -1 $-1 $29 $30 $3 $-1 $31 reversed single #
loop $-1 -1 $-1 $-1 $32 $11 #
cone-surface $-1 -1 $-1 -680.52788336440346 133.71722407622769 94.399999999999977 -2.7755575615628914e-17 -6.018531076210112e-36 -1 -2.7500000000000027 0 7.6327832942979586e-17 1 I I 0 1 2.7500000000000031 forward I I I I #
coedge $-1 -1 $-1 $33 $34 $35 $36 reversed $12 $-1 #
coedge $-1 -1 $-1 $37 $14 $38 $39 forward $7 $-1 #
coedge $-1 -1 $-1 $14 $37 $40 $41 reversed $7 $-1 #
coedge $-1 -1 $-1 $42 $42 $14 $25 forward $43 $-1 #
edge $44 -1 $-1 $45 -3.1415926535897931 $46 0 $14 $47 forward @7 unknown #
DXID-attrib $-1 -1 $-1 $16 $6 @18 ASM_FACE_FROM_STEP @21 输送带机构-23542 #
fmesh-eye-attrib $-1 -1 $48 $17 $11 #
truecolor-adesk-attrib $-1 -1 $49 $-1 $18 -1056964608 #
face $50 -1 $-1 $51 $52 $3 $-1 $53 forward single #
loop $-1 -1 $-1 $-1 $54 $18 #
cone-surface $-1 -1 $-1 -738.51063942170038 133.71722407622769 94.399999999999977 -2.7755575615628914e-17 -6.018531076210112e-36 -1 -2.7500000000000027 0 7.6327832942979586e-17 1 I I 0 1 2.7500000000000031 forward I I I I #
coedge $-1 -1 $-1 $55 $56 $57 $58 reversed $19 $-1 #
coedge $-1 -1 $-1 $59 $21 $60 $61 forward $12 $-1 #
coedge $-1 -1 $-1 $21 $59 $62 $63 reversed $12 $-1 #
coedge $-1 -1 $-1 $64 $64 $21 $36 forward $65 $-1 #
edge $66 -1 $-1 $67 -3.1415926535897931 $68 0 $21 $69 forward @7 unknown #
coedge $-1 -1 $-1 $23 $22 $70 $71 forward $7 $-1 #
coedge $-1 -1 $-1 $72 $73 $22 $39 reversed $74 $-1 #
edge $75 -1 $-1 $45 0.079999999999999988 $76 0.122 $22 $77 forward @7 unknown #
coedge $-1 -1 $-1 $73 $72 $23 $41 forward $74 $-1 #
edge $78 -1 $-1 $46 0.079999999999999988 $79 0.122 $23 $80 forward @7 unknown #
coedge $-1 -1 $-1 $24 $24 $72 $81 forward $43 $-1 #
loop $-1 -1 $-1 $65 $42 $82 #
truecolor-adesk-attrib $-1 -1 $83 $-1 $25 -1056964608 #
vertex $-1 -1 $-1 $25 $84 #
vertex $-1 -1 $-1 $25 $85 #
ellipse-curve $-1 -1 $-1 -738.51063942170038 75.734468018930784 14.400000000000006 -2.7755575615628914e-17 -6.018531076210112e-36 -1 -2.7500000000000027 0 7.6327832942979586e-17 1 F -3.1415926535897931 F 0 #
DXID-attrib $-1 -1 $-1 $27 $11 @18 ASM_FACE_FROM_STEP @20 输送带机构-7636 #
fmesh-eye-attrib $-1 -1 $86 $28 $18 #
truecolor-adesk-attrib $-1 -1 $87 $-1 $29 -1056964608 #
face $88 -1 $-1 $89 $90 $3 $-1 $91 forward single #
loop $-1 -1 $-1 $-1 $92 $29 #
cone-surface $-1 -1 $-1 -709.51926139305192 119.72584604757924 -59.60000000000003 2.7755575615628914e-17 6.018531076210112e-36 1 5.0000000000000009 0 -1.3877787807814459e-16 1 I I 0 1 5.0000000000000009 forward I I I I #
coedge $-1 -1 $-1 $93 $94 $95 $96 reversed $30 $-1 #
coedge $-1 -1 $-1 $97 $32 $98 $99 forward $19 $-1 #
coedge $-1 -1 $-1 $32 $97 $100 $101 reversed $19 $-1 #
coedge $-1 -1 $-1 $102 $102 $32 $58 forward $103 $-1 #
edge $104 -1 $-1 $105 -3.1415926535897931 $106 0 $32 $107 forward @7 unknown #
coedge $-1 -1 $-1 $34 $33 $108 $109 forward $12 $-1 #
coedge $-1 -1 $-1 $110 $111 $33 $61 reversed $112 $-1 #
edge $113 -1 $-1 $67 0.079999999999999988 $114 0.122 $33 $115 forward @7 unknown #
coedge $-1 -1 $-1 $111 $110 $34 $63 forward $112 $-1 #
edge $116 -1 $-1 $68 0.079999999999999988 $117 0.122 $34 $118 forward @7 unknown #
coedge $-1 -1 $-1 $35 $35 $110 $119 forward $65 $-1 #
loop $-1 -1 $-1 $103 $64 $82 #
truecolor-adesk-attrib $-1 -1 $120 $-1 $36 -1056964608 #
vertex $-1 -1 $-1 $36 $121 #
vertex $-1 -1 $-1 $36 $122 #
ellipse-curve $-1 -1 $-1 -680.52788336440346 75.734468018930798 14.400000000000004 -2.7755575615628914e-17 -6.018531076210112e-36 -1 -2.7500000000000027 0 7.6327832942979586e-17 1 F -3.1415926535897931 F 0 #
coedge $-1 -1 $-1 $123 $123 $37 $71 reversed $124 $-1 #
edge $125 -1 $-1 $76 -3.1415926535897931 $79 0 $37 $126 forward @7 unknown #
coedge $-1 -1 $-1 $40 $38 $42 $81 reversed $74 $-1 #
coedge $-1 -1 $-1 $38 $40 $123 $127 forward $74 $-1 #
loop $-1 -1 $-1 $-1 $38 $128 #
truecolor-adesk-attrib $-1 -1 $129 $-1 $39 -1056964608 #
vertex $-1 -1 $-1 $39 $130 #
straight-curve $-1 -1 $-1 -735.76063942170038 75.734468018930784 94.399999999999977 -2.7755575615628914e-14 -6.018531076210112e-33 -1000 F 0.079999999999999988 F 0.122 #
truecolor-adesk-attrib $-1 -1 $131 $-1 $41 -1056964608 #
vertex $-1 -1 $-1 $71 $132 #
straight-curve $-1 -1 $-1 -741.26063942170038 75.734468018930784 94.399999999999977 -2.7755575615628914e-14 -6.018531076210112e-33 -1000 F 0.079999999999999988 F 0.122 #
edge $133 -1 $-1 $46 0 $45 3.1415926535897931 $42 $134 forward @7 unknown #
face $135 -1 $-1 $136 $137 $3 $-1 $138 reversed single #
DXID-attrib $-1 -1 $-1 $44 $25 @18 ASM_EDGE_FROM_STEP @5 16162 #
point $-1 -1 $-1 -735.76063942170038 75.734468018930784 14.400000000000006 #
point $-1 -1 $-1 -741.26063942170038 75.734468018930784 14.400000000000006 #
DXID-attrib $-1 -1 $-1 $49 $18 @18 ASM_FACE_FROM_STEP @21 输送带机构-10302 #
fmesh-eye-attrib $-1 -1 $139 $50 $29 #
truecolor-adesk-attrib $-1 -1 $140 $-1 $51 -1056964608 #
face $141 -1 $-1 $142 $143 $3 $-1 $144 forward single #
loop $-1 -1 $-1 $-1 $145 $51 #
cone-surface $-1 -1 $-1 -709.51926139305192 119.72584604757924 -29.600000000000016 2.7755575615628914e-17 6.018531076210112e-36 1 17.5 0 -4.8572257327350599e-16 1 I I 0 1 17.5 forward I I I I #
coedge $-1 -1 $-1 $146 $147 $148 $149 reversed $52 $-1 #
coedge $-1 -1 $-1 $150 $54 $151 $152 forward $30 $-1 #
coedge $-1 -1 $-1 $54 $150 $153 $154 reversed $30 $-1 #
coedge $-1 -1 $-1 $155 $155 $54 $96 forward $156 $-1 #
edge $157 -1 $-1 $158 -3.1415926535897931 $159 0 $54 $160 forward @7 unknown #
coedge $-1 -1 $-1 $56 $55 $161 $162 forward $19 $-1 #
coedge $-1 -1 $-1 $163 $164 $55 $99 reversed $165 $-1 #
edge $166 -1 $-1 $105 0.079999999999999988 $167 0.122 $55 $168 forward @7 unknown #
coedge $-1 -1 $-1 $164 $163 $56 $101 forward $165 $-1 #
edge $169 -1 $-1 $106 0.079999999999999988 $170 0.122 $56 $171 forward @7 unknown #
coedge $-1 -1 $-1 $57 $57 $163 $172 forward $103 $-1 #
loop $-1 -1 $-1 $156 $102 $82 #
truecolor-adesk-attrib $-1 -1 $173 $-1 $58 -1056964608 #
vertex $-1 -1 $-1 $58 $174 #
vertex $-1 -1 $-1 $58 $175 #
ellipse-curve $-1 -1 $-1 -680.52788336440346 133.71722407622769 14.400000000000004 -2.7755575615628914e-17 -6.018531076210112e-36 -1 -2.7500000000000027 0 7.6327832942979586e-17 1 F -3.1415926535897931 F 0 #
coedge $-1 -1 $-1 $176 $176 $59 $109 reversed $177 $-1 #
edge $178 -1 $-1 $114 -3.1415926535897931 $117 0 $59 $179 forward @7 unknown #
coedge $-1 -1 $-1 $62 $60 $64 $119 reversed $112 $-1 #
coedge $-1 -1 $-1 $60 $62 $176 $180 forward $112 $-1 #
loop $-1 -1 $-1 $-1 $60 $181 #
truecolor-adesk-attrib $-1 -1 $182 $-1 $61 -1056964608 #
vertex $-1 -1 $-1 $61 $183 #
straight-curve $-1 -1 $-1 -677.77788336440346 75.734468018930798 94.399999999999977 -2.7755575615628914e-14 -6.018531076210112e-33 -1000 F 0.079999999999999988 F 0.122 #
truecolor-adesk-attrib $-1 -1 $184 $-1 $63 -1056964608 #
vertex $-1 -1 $-1 $109 $185 #
straight-curve $-1 -1 $-1 -683.27788336440346 75.734468018930798 94.399999999999977 -2.7755575615628914e-14 -6.018531076210112e-33 -1000 F 0.079999999999999988 F 0.122 #
edge $186 -1 $-1 $68 0 $67 3.1415926535897931 $64 $187 forward @7 unknown #
DXID-attrib $-1 -1 $-1 $66 $36 @18 ASM_EDGE_FROM_STEP @5 16527 #
point $-1 -1 $-1 -677.77788336440346 75.734468018930798 14.400000000000004 #
point $-1 -1 $-1 -683.27788336440346 75.734468018930798 14.400000000000004 #
coedge $-1 -1 $-1 $70 $70 $73 $127 reversed $124 $-1 #
loop $-1 -1 $-1 $177 $123 $142 #
truecolor-adesk-attrib $-1 -1 $188 $-1 $71 -1056964608 #
ellipse-curve $-1 -1 $-1 -738.51063942170038 75.734468018930784 -27.600000000000001 -2.7755575615628914e-17 -6.018531076210112e-36 -1 -2.7500000000000027 0 7.6327832942979586e-17 1 F -3.1415926535897931 F 0 #
edge $189 -1 $-1 $79 0 $76 3.1415926535897931 $123 $190 forward @7 unknown #
face $191 -1 $-1 $192 $74 $3 $-1 $193 reversed single #
DXID-attrib $-1 -1 $-1 $75 $39 @18 ASM_EDGE_FROM_STEP @5 20876 #
point $-1 -1 $-1 -735.76063942170038 75.734468018930784 -27.600000000000001 #
DXID-attrib $-1 -1 $-1 $78 $41 @18 ASM_EDGE_FROM_STEP @5 28512 #
point $-1 -1 $-1 -741.26063942170038 75.734468018930784 -27.600000000000001 #
truecolor-adesk-attrib $-1 -1 $194 $-1 $81 -1056964608 #
ellipse-curve $-1 -1 $-1 -738.51063942170038 75.734468018930784 14.400000000000006 -2.7755575615628914e-17 -6.018531076210112e-36 -1 -2.7500000000000027 0 7.6327832942979586e-17 1 F 0 F 3.1415926535897931 #
truecolor-adesk-attrib $-1 -1 $195 $-1 $82 -1056964608 #
face $196 -1 $-1 $197 $198 $3 $-1 $199 forward single #
loop $-1 -1 $-1 $43 $200 $82 #
plane-surface $-1 -1 $-1 -709.51926139305192 104.72584604757924 14.399999999999999 -2.7755575615628914e-17 -6.018531076210112e-36 -1 -1 0 2.7755575615628914e-17 forward_v I I I I #
DXID-attrib $-1 -1 $-1 $87 $29 @18 ASM_FACE_FROM_STEP @20 输送带机构-7769 #
fmesh-eye-attrib $-1 -1 $201 $88 $51 #
truecolor-adesk-attrib $-1 -1 $202 $-1 $89 -1056964608 #
face $203 -1 $-1 $204 $205 $3 $-1 $206 forward single #
loop $-1 -1 $-1 $207 $208 $89 #
plane-surface $-1 -1 $-1 -709.51926139305192 119.72584604757924 -29.600000000000016 -2.7755575615628914e-17 -6.018531076210112e-36 -1 -1 0 2.7755575615628914e-17 forward_v I I I I #
coedge $-1 -1 $-1 $209 $210 $211 $212 reversed $90 $-1 #
coedge $-1 -1 $-1 $213 $92 $214 $215 forward $52 $-1 #
coedge $-1 -1 $-1 $92 $213 $216 $217 reversed $52 $-1 #
coedge $-1 -1 $-1 $218 $218 $92 $149 forward $219 $-1 #
edge $220 -1 $-1 $221 0 $222 3.1415926535897931 $92 $223 forward @7 unknown #
coedge $-1 -1 $-1 $94 $93 $224 $225 forward $30 $-1 #
coedge $-1 -1 $-1 $226 $227 $93 $152 reversed $228 $-1 #
edge $229 -1 $-1 $158 0.079999999999999988 $230 0.122 $93 $231 forward @7 unknown #
coedge $-1 -1 $-1 $227 $226 $94 $154 forward $228 $-1 #
edge $232 -1 $-1 $159 0.079999999999999988 $233 0.122 $94 $234 forward @7 unknown #
coedge $-1 -1 $-1 $95 $95 $226 $235 forward $156 $-1 #
loop $-1 -1 $-1 $-1 $155 $82 #
truecolor-adesk-attrib $-1 -1 $236 $-1 $96 -1056964608 #
vertex $-1 -1 $-1 $96 $237 #
vertex $-1 -1 $-1 $96 $238 #
ellipse-curve $-1 -1 $-1 -738.51063942170038 133.71722407622769 14.400000000000006 -2.7755575615628914e-17 -6.018531076210112e-36 -1 -2.7500000000000027 0 7.6327832942979586e-17 1 F -3.1415926535897931 F 0 #
coedge $-1 -1 $-1 $239 $239 $97 $162 reversed $240 $-1 #
edge $241 -1 $-1 $167 -3.1415926535897931 $170 0 $97 $242 forward @7 unknown #
coedge $-1 -1 $-1 $100 $98 $102 $172 reversed $165 $-1 #
coedge $-1 -1 $-1 $98 $100 $239 $243 forward $165 $-1 #
loop $-1 -1 $-1 $-1 $98 $244 #
truecolor-adesk-attrib $-1 -1 $245 $-1 $99 -1056964608 #
vertex $-1 -1 $-1 $99 $246 #
straight-curve $-1 -1 $-1 -677.77788336440346 133.71722407622769 94.399999999999977 -2.7755575615628914e-14 -6.018531076210112e-33 -1000 F 0.079999999999999988 F 0.122 #
truecolor-adesk-attrib $-1 -1 $247 $-1 $101 -1056964608 #
vertex $-1 -1 $-1 $162 $248 #
straight-curve $-1 -1 $-1 -683.27788336440346 133.71722407622769 94.399999999999977 -2.7755575615628914e-14 -6.018531076210112e-33 -1000 F 0.079999999999999988 F 0.122 #
edge $249 -1 $-1 $106 0 $105 3.1415926535897931 $102 $250 forward @7 unknown #
DXID-attrib $-1 -1 $-1 $104 $58 @18 ASM_EDGE_FROM_STEP @4 6994 #
point $-1 -1 $-1 -677.77788336440346 133.71722407622769 14.400000000000004 #
point $-1 -1 $-1 -683.27788336440346 133.71722407622769 14.400000000000004 #
coedge $-1 -1 $-1 $108 $108 $111 $180 reversed $177 $-1 #
loop $-1 -1 $-1 $240 $176 $142 #
truecolor-adesk-attrib $-1 -1 $251 $-1 $109 -1056964608 #
ellipse-curve $-1 -1 $-1 -680.52788336440346 75.734468018930798 -27.600000000000001 -2.7755575615628914e-17 -6.018531076210112e-36 -1 -2.7500000000000027 0 7.6327832942979586e-17 1 F -3.1415926535897931 F 0 #
edge $252 -1 $-1 $117 0 $114 3.1415926535897931 $176 $253 forward @7 unknown #
face $254 -1 $-1 $128 $112 $3 $-1 $255 reversed single #
DXID-attrib $-1 -1 $-1 $113 $61 @18 ASM_EDGE_FROM_STEP @4 2494 #
point $-1 -1 $-1 -677.77788336440346 75.734468018930798 -27.600000000000001 #
DXID-attrib $-1 -1 $-1 $116 $63 @18 ASM_EDGE_FROM_STEP @4 9861 #
point $-1 -1 $-1 -683.27788336440346 75.734468018930798 -27.600000000000001 #
truecolor-adesk-attrib $-1 -1 $256 $-1 $119 -1056964608 #
ellipse-curve $-1 -1 $-1 -680.52788336440346 75.734468018930798 14.400000000000004 -2.7755575615628914e-17 -6.018531076210112e-36 -1 -2.7500000000000027 0 7.6327832942979586e-17 1 F 0 F 3.1415926535897931 #
DXID-attrib $-1 -1 $-1 $125 $71 @18 ASM_EDGE_FROM_STEP @4 1131 #
truecolor-adesk-attrib $-1 -1 $257 $-1 $127 -1056964608 #
ellipse-curve $-1 -1 $-1 -738.51063942170038 75.734468018930784 -27.600000000000001 -2.7755575615628914e-17 -6.018531076210112e-36 -1 -2.7500000000000027 0 7.6327832942979586e-17 1 F 0 F 3.1415926535897931 #
truecolor-adesk-attrib $-1 -1 $258 $-1 $128 -1056964608 #
face $259 -1 $-1 $260 $261 $3 $-1 $262 forward single #
cone-surface $-1 -1 $-1 -738.51063942170038 75.734468018930784 94.399999999999977 -2.7755575615628914e-17 -6.018531076210112e-36 -1 -2.7500000000000027 0 7.6327832942979586e-17 1 I I 0 1 2.7500000000000031 forward I I I I #
DXID-attrib $-1 -1 $-1 $133 $81 @18 ASM_EDGE_FROM_STEP @5 24385 #
fmesh-eye-attrib $-1 -1 $263 $135 $82 #
truecolor-adesk-attrib $-1 -1 $264 $-1 $136 -1056964608 #
face $265 -1 $-1 $266 $267 $3 $-1 $268 forward single #
loop $-1 -1 $-1 $-1 $269 $136 #
cone-surface $-1 -1 $-1 -709.51926139305192 119.72584604757924 -29.600000000000016 2.7755575615628914e-17 6.018531076210112e-36 1 17.5 0 -4.8572257327350599e-16 1 I I 0 1 17.5 forward I I I I #
coedge $-1 -1 $-1 $270 $271 $272 $273 reversed $137 $-1 #
DXID-attrib $-1 -1 $-1 $140 $51 @18 ASM_FACE_FROM_STEP @21 输送带机构-34346 #
fmesh-eye-attrib $-1 -1 $274 $141 $89 #
truecolor-adesk-attrib $-1 -1 $275 $-1 $142 -1056964608 #
face $276 -1 $-1 $277 $278 $3 $-1 $279 reversed single #
loop $-1 -1 $-1 $280 $281 $142 #
plane-surface $-1 -1 $-1 -709.51926139305192 104.72584604757924 -27.600000000000001 -2.7755575615628914e-17 -6.018531076210112e-36 -1 -1 0 2.7755575615628914e-17 forward_v I I I I #
loop $-1 -1 $-1 $-1 $282 $89 #
coedge $-1 -1 $-1 $211 $211 $283 $284 forward $143 $-1 #
coedge $-1 -1 $-1 $285 $145 $269 $286 forward $90 $-1 #
coedge $-1 -1 $-1 $145 $285 $287 $288 reversed $90 $-1 #
coedge $-1 -1 $-1 $208 $208 $145 $212 forward $143 $-1 #
edge $289 -1 $-1 $290 1.2688263138573217e-16 $291 3.1415926535897931 $145 $292 forward @7 unknown #
coedge $-1 -1 $-1 $147 $146 $293 $294 forward $52 $-1 #
coedge $-1 -1 $-1 $295 $296 $146 $215 reversed $267 $-1 #
edge $297 -1 $-1 $221 0 $298 0.030000000000000009 $146 $299 forward @7 unknown #
coedge $-1 -1 $-1 $296 $295 $147 $217 forward $267 $-1 #
edge $300 -1 $-1 $222 0 $301 0.030000000000000009 $147 $302 forward @7 unknown #
coedge $-1 -1 $-1 $148 $148 $295 $303 forward $219 $-1 #
loop $-1 -1 $-1 $-1 $218 $266 #
truecolor-adesk-attrib $-1 -1 $304 $-1 $149 -1056964608 #
vertex $-1 -1 $-1 $149 $305 #
vertex $-1 -1 $-1 $149 $306 #
ellipse-curve $-1 -1 $-1 -709.51926139305192 119.72584604757924 -59.60000000000003 -2.7755575615628914e-17 -6.018531076210112e-36 -1 -5.0000000000000009 0 1.3877787807814459e-16 1 F 0 F 3.1415926535897931 #
coedge $-1 -1 $-1 $307 $307 $150 $225 reversed $308 $-1 #
edge $309 -1 $-1 $230 -3.1415926535897931 $233 0 $150 $310 forward @7 unknown #
coedge $-1 -1 $-1 $153 $151 $155 $235 reversed $228 $-1 #
coedge $-1 -1 $-1 $151 $153 $307 $311 forward $228 $-1 #
loop $-1 -1 $-1 $-1 $151 $312 #
truecolor-adesk-attrib $-1 -1 $313 $-1 $152 -1056964608 #
vertex $-1 -1 $-1 $152 $314 #
straight-curve $-1 -1 $-1 -735.76063942170038 133.71722407622769 94.399999999999977 -2.7755575615628914e-14 -6.018531076210112e-33 -1000 F 0.079999999999999988 F 0.122 #
truecolor-adesk-attrib $-1 -1 $315 $-1 $154 -1056964608 #
vertex $-1 -1 $-1 $225 $316 #
straight-curve $-1 -1 $-1 -741.26063942170038 133.71722407622769 94.399999999999977 -2.7755575615628914e-14 -6.018531076210112e-33 -1000 F 0.079999999999999988 F 0.122 #
edge $317 -1 $-1 $159 0 $158 3.1415926535897931 $155 $318 forward @7 unknown #
DXID-attrib $-1 -1 $-1 $157 $96 @18 ASM_EDGE_FROM_STEP @5 14902 #
point $-1 -1 $-1 -735.76063942170038 133.71722407622769 14.400000000000006 #
point $-1 -1 $-1 -741.26063942170038 133.71722407622769 14.400000000000006 #
coedge $-1 -1 $-1 $161 $161 $164 $243 reversed $240 $-1 #
loop $-1 -1 $-1 $308 $239 $142 #
truecolor-adesk-attrib $-1 -1 $319 $-1 $162 -1056964608 #
ellipse-curve $-1 -1 $-1 -680.52788336440346 133.71722407622769 -27.600000000000001 -2.7755575615628914e-17 -6.018531076210112e-36 -1 -2.7500000000000027 0 7.6327832942979586e-17 1 F -3.1415926535897931 F 0 #
edge $320 -1 $-1 $170 0 $167 3.1415926535897931 $239 $321 forward @7 unknown #
face $322 -1 $-1 $181 $165 $3 $-1 $323 reversed single #
DXID-attrib $-1 -1 $-1 $166 $99 @18 ASM_EDGE_FROM_STEP @5 29727 #
point $-1 -1 $-1 -677.77788336440346 133.71722407622769 -27.600000000000001 #
DXID-attrib $-1 -1 $-1 $169 $101 @18 ASM_EDGE_FROM_STEP @4 3438 #
point $-1 -1 $-1 -683.27788336440346 133.71722407622769 -27.600000000000001 #
truecolor-adesk-attrib $-1 -1 $324 $-1 $172 -1056964608 #
ellipse-curve $-1 -1 $-1 -680.52788336440346 133.71722407622769 14.400000000000004 -2.7755575615628914e-17 -6.018531076210112e-36 -1 -2.7500000000000027 0 7.6327832942979586e-17 1 F 0 F 3.1415926535897931 #
DXID-attrib $-1 -1 $-1 $178 $109 @18 ASM_EDGE_FROM_STEP @5 28675 #
truecolor-adesk-attrib $-1 -1 $325 $-1 $180 -1056964608 #
ellipse-curve $-1 -1 $-1 -680.52788336440346 75.734468018930798 -27.600000000000001 -2.7755575615628914e-17 -6.018531076210112e-36 -1 -2.7500000000000027 0 7.6327832942979586e-17 1 F 0 F 3.1415926535897931 #
truecolor-adesk-attrib $-1 -1 $326 $-1 $181 -1056964608 #
cone-surface $-1 -1 $-1 -680.52788336440346 75.734468018930798 94.399999999999977 -2.7755575615628914e-17 -6.018531076210112e-36 -1 -2.7500000000000027 0 7.6327832942979586e-17 1 I I 0 1 2.7500000000000031 forward I I I I #
DXID-attrib $-1 -1 $-1 $186 $119 @18 ASM_EDGE_FROM_STEP @5 27259 #
DXID-attrib $-1 -1 $-1 $189 $127 @18 ASM_EDGE_FROM_STEP @4 5009 #
fmesh-eye-attrib $-1 -1 $327 $191 $128 #
truecolor-adesk-attrib $-1 -1 $328 $-1 $192 -1056964608 #
face $329 -1 $-1 $330 $331 $3 $-1 $332 forward single #
loop $-1 -1 $-1 $-1 $333 $192 #
cone-surface $-1 -1 $-1 -739.51926139305192 74.725846047579253 -27.600000000000001 2.7755575615628914e-17 6.018531076210112e-36 1 5.0000000000000009 0 -1.3877787807814459e-16 1 I I 0 1 5.0000000000000009 forward I I I I #
DXID-attrib $-1 -1 $-1 $195 $82 @18 ASM_FACE_FROM_STEP @21 输送带机构-15736 #
fmesh-eye-attrib $-1 -1 $334 $196 $136 #
truecolor-adesk-attrib $-1 -1 $335 $-1 $197 -1056964608 #
face $336 -1 $-1 $312 $219 $3 $-1 $337 forward single #
loop $-1 -1 $-1 $-1 $214 $197 #
cone-surface $-1 -1 $-1 -709.51926139305192 119.72584604757924 -59.60000000000003 2.7755575615628914e-17 6.018531076210112e-36 1 5.0000000000000009 0 -1.3877787807814459e-16 1 I I 0 1 5.0000000000000009 forward I I I I #
coedge $-1 -1 $-1 $283 $338 $209 $286 reversed $198 $-1 #
coedge $-1 -1 $-1 $339 $200 $340 $341 forward $137 $-1 #
coedge $-1 -1 $-1 $200 $342 $343 $344 forward $137 $-1 #
coedge $-1 -1 $-1 $345 $346 $200 $273 forward $278 $-1 #
edge $347 -1 $-1 $348 -0.064999999999999988 $349 -0.0049999999999999914 $272 $350 forward @7 unknown #
DXID-attrib $-1 -1 $-1 $202 $89 @18 ASM_FACE_FROM_STEP @21 输送带机构-18872 #
fmesh-eye-attrib $-1 -1 $351 $203 $142 #
truecolor-adesk-attrib $-1 -1 $352 $-1 $204 -1056964608 #
face $353 -1 $-1 $354 $355 $3 $-1 $356 reversed single #
loop $-1 -1 $-1 $-1 $357 $204 #
plane-surface $-1 -1 $-1 -744.51926139305192 139.72584604757924 -27.600000000000001 1 -9.9127055770103268e-17 -2.7755575615628914e-17 -9.912705577010328e-17 -1 2.7573470230579761e-33 forward_v I I I I #
loop $-1 -1 $-1 $124 $358 $142 #
coedge $-1 -1 $-1 $359 $360 $361 $362 forward $205 $-1 #
coedge $-1 -1 $-1 $293 $293 $296 $363 reversed $207 $-1 #
coedge $-1 -1 $-1 $287 $269 $208 $284 reversed $198 $-1 #
edge $364 -1 $-1 $291 -3.1415926535897931 $290 1.2688263138573217e-16 $208 $365 forward @7 unknown #
coedge $-1 -1 $-1 $210 $209 $366 $367 forward $90 $-1 #
edge $368 -1 $-1 $290 0 $369 0.0020000000000000104 $209 $370 forward @7 unknown #
coedge $-1 -1 $-1 $338 $283 $210 $288 forward $198 $-1 #
edge $371 -1 $-1 $291 0 $372 0.0020000000000000104 $210 $373 forward @7 unknown #
truecolor-adesk-attrib $-1 -1 $374 $-1 $212 -1056964608 #
vertex $-1 -1 $-1 $212 $375 #
vertex $-1 -1 $-1 $212 $376 #
ellipse-curve $-1 -1 $-1 -709.51926139305192 119.72584604757924 -29.600000000000016 -2.7755575615628914e-17 -6.018531076210112e-36 -1 -17.5 0 4.8572257327350599e-16 1 F 1.2688263138573217e-16 F 3.1415926535897931 #
coedge $-1 -1 $-1 $282 $282 $213 $294 reversed $207 $-1 #
edge $377 -1 $-1 $298 0 $301 3.1415926535897931 $213 $378 forward @7 unknown #
coedge $-1 -1 $-1 $216 $214 $218 $303 reversed $267 $-1 #
coedge $-1 -1 $-1 $214 $216 $282 $363 forward $267 $-1 #
truecolor-adesk-attrib $-1 -1 $379 $-1 $215 -1056964608 #
vertex $-1 -1 $-1 $215 $380 #
straight-curve $-1 -1 $-1 -714.51926139305192 119.72584604757924 -59.60000000000003 2.7755575615628914e-14 6.018531076210112e-33 1000 F 0 F 0.030000000000000009 #
truecolor-adesk-attrib $-1 -1 $381 $-1 $217 -1056964608 #
vertex $-1 -1 $-1 $294 $382 #
straight-curve $-1 -1 $-1 -704.51926139305192 119.72584604757924 -59.60000000000003 2.7755575615628914e-14 6.018531076210112e-33 1000 F 0 F 0.030000000000000009 #
edge $383 -1 $-1 $222 -3.1415926535897931 $221 0 $295 $384 forward @7 unknown #
DXID-attrib $-1 -1 $-1 $220 $149 @18 ASM_EDGE_FROM_STEP @5 30920 #
point $-1 -1 $-1 -714.51926139305192 119.72584604757924 -59.60000000000003 #
point $-1 -1 $-1 -704.51926139305192 119.72584604757924 -59.60000000000003 #
coedge $-1 -1 $-1 $224 $224 $227 $311 reversed $308 $-1 #
loop $-1 -1 $-1 $-1 $307 $142 #
truecolor-adesk-attrib $-1 -1 $385 $-1 $225 -1056964608 #
ellipse-curve $-1 -1 $-1 -738.51063942170038 133.71722407622769 -27.600000000000001 -2.7755575615628914e-17 -6.018531076210112e-36 -1 -2.7500000000000027 0 7.6327832942979586e-17 1 F -3.1415926535897931 F 0 #
edge $386 -1 $-1 $233 0 $230 3.1415926535897931 $307 $387 forward @7 unknown #
face $388 -1 $-1 $244 $228 $3 $-1 $389 reversed single #
DXID-attrib $-1 -1 $-1 $229 $152 @18 ASM_EDGE_FROM_STEP @5 29785 #
point $-1 -1 $-1 -735.76063942170038 133.71722407622769 -27.600000000000001 #
DXID-attrib $-1 -1 $-1 $232 $154 @18 ASM_EDGE_FROM_STEP @5 25095 #
point $-1 -1 $-1 -741.26063942170038 133.71722407622769 -27.600000000000001 #
truecolor-adesk-attrib $-1 -1 $390 $-1 $235 -1056964608 #
ellipse-curve $-1 -1 $-1 -738.51063942170038 133.71722407622769 14.400000000000006 -2.7755575615628914e-17 -6.018531076210112e-36 -1 -2.7500000000000027 0 7.6327832942979586e-17 1 F 0 F 3.1415926535897931 #
DXID-attrib $-1 -1 $-1 $241 $162 @18 ASM_EDGE_FROM_STEP @4 4167 #
truecolor-adesk-attrib $-1 -1 $391 $-1 $243 -1056964608 #
ellipse-curve $-1 -1 $-1 -680.52788336440346 133.71722407622769 -27.600000000000001 -2.7755575615628914e-17 -6.018531076210112e-36 -1 -2.7500000000000027 0 7.6327832942979586e-17 1 F 0 F 3.1415926535897931 #
truecolor-adesk-attrib $-1 -1 $392 $-1 $244 -1056964608 #
cone-surface $-1 -1 $-1 -680.52788336440346 133.71722407622769 94.399999999999977 -2.7755575615628914e-17 -6.018531076210112e-36 -1 -2.7500000000000027 0 7.6327832942979586e-17 1 I I 0 1 2.7500000000000031 forward I I I I #
DXID-attrib $-1 -1 $-1 $249 $172 @18 ASM_EDGE_FROM_STEP @5 24644 #
DXID-attrib $-1 -1 $-1 $252 $180 @18 ASM_EDGE_FROM_STEP @5 18243 #
fmesh-eye-attrib $-1 -1 $393 $254 $181 #
DXID-attrib $-1 -1 $-1 $258 $128 @18 ASM_FACE_FROM_STEP @21 输送带机构-16952 #
fmesh-eye-attrib $-1 -1 $394 $259 $192 #
truecolor-adesk-attrib $-1 -1 $395 $-1 $260 -1056964608 #
face $396 -1 $-1 $397 $398 $3 $-1 $399 forward single #
loop $-1 -1 $-1 $-1 $400 $260 #
cone-surface $-1 -1 $-1 -679.51926139305192 74.725846047579239 -27.600000000000001 2.7755575615628914e-17 6.018531076210112e-36 1 4.9999999999999982 0 -1.3877787807814452e-16 1 I I 0 1 4.9999999999999982 forward I I I I #
coedge $-1 -1 $-1 $401 $402 $359 $403 reversed $261 $-1 #
DXID-attrib $-1 -1 $-1 $264 $136 @18 ASM_FACE_FROM_STEP @20 输送带机构-8100 #
fmesh-eye-attrib $-1 -1 $404 $265 $197 #
truecolor-adesk-attrib $-1 -1 $405 $-1 $266 -1056964608 #
plane-surface $-1 -1 $-1 -709.51926139305192 119.72584604757924 -59.60000000000003 -2.7755575615628914e-17 -6.018531076210112e-36 -1 -1 0 2.7755575615628914e-17 forward_v I I I I #
coedge $-1 -1 $-1 $269 $287 $358 $406 forward $198 $-1 #
coedge $-1 -1 $-1 $407 $270 $408 $409 reversed $137 $-1 #
coedge $-1 -1 $-1 $402 $401 $270 $341 reversed $261 $-1 #
edge $410 -1 $-1 $348 0 $411 1.5707963267948966 $270 $412 forward @7 unknown #
coedge $-1 -1 $-1 $271 $413 $414 $415 reversed $137 $-1 #
coedge $-1 -1 $-1 $416 $417 $271 $344 reversed $398 $-1 #
edge $418 -1 $-1 $419 -1.5707963267948966 $349 0 $271 $420 forward @7 unknown #
coedge $-1 -1 $-1 $357 $272 $417 $421 forward $278 $-1 #
coedge $-1 -1 $-1 $272 $357 $402 $422 forward $278 $-1 #
truecolor-adesk-attrib $-1 -1 $423 $-1 $273 -1056964608 #
vertex $-1 -1 $-1 $422 $424 #
vertex $-1 -1 $-1 $273 $425 #
straight-curve $-1 -1 $-1 -744.51926139305192 139.72584604757924 14.4 9.9127055770103254e-14 1000 -2.7573470230579754e-30 F -0.064999999999999988 F -0.0049999999999999914 #
DXID-attrib $-1 -1 $-1 $275 $142 @18 ASM_FACE_FROM_STEP @21 输送带机构-29717 #
fmesh-eye-attrib $-1 -1 $426 $276 $204 #
truecolor-adesk-attrib $-1 -1 $427 $-1 $277 -1056964608 #
face $428 -1 $-1 $429 $430 $3 $-1 $431 reversed single #
loop $-1 -1 $-1 $-1 $432 $277 #
plane-surface $-1 -1 $-1 -674.51926139305192 139.72584604757924 -27.600000000000001 1.6704779438076223e-52 -1 6.018531076210112e-36 2.7755575615628914e-17 6.018531076210112e-36 1 forward_v I I I I #
coedge $-1 -1 $-1 $346 $345 $433 $434 reversed $278 $-1 #
coedge $-1 -1 $-1 $366 $366 $338 $406 reversed $280 $-1 #
coedge $-1 -1 $-1 $433 $281 $333 $403 forward $205 $-1 #
coedge $-1 -1 $-1 $281 $435 $400 $436 forward $205 $-1 #
coedge $-1 -1 $-1 $437 $438 $281 $362 reversed $439 $-1 #
edge $440 -1 $-1 $441 0.0049999999999999914 $442 0.065000000000000016 $281 $443 forward @7 unknown #
edge $444 -1 $-1 $301 -3.1415926535897931 $298 0 $282 $445 forward @7 unknown #
truecolor-adesk-attrib $-1 -1 $446 $-1 $284 -1056964608 #
ellipse-curve $-1 -1 $-1 -709.51926139305192 119.72584604757924 -29.600000000000016 -2.7755575615628914e-17 -6.018531076210112e-36 -1 -17.5 0 4.8572257327350599e-16 1 F -3.1415926535897931 F 1.2688263138573217e-16 #
coedge $-1 -1 $-1 $358 $358 $285 $367 reversed $280 $-1 #
edge $447 -1 $-1 $369 1.2688263138573217e-16 $372 3.1415926535897931 $285 $448 forward @7 unknown #
truecolor-adesk-attrib $-1 -1 $449 $-1 $286 -1056964608 #
vertex $-1 -1 $-1 $286 $450 #
straight-curve $-1 -1 $-1 -727.01926139305192 119.72584604757924 -29.600000000000016 2.7755575615628914e-14 6.018531076210112e-33 1000 F 0 F 0.0020000000000000104 #
truecolor-adesk-attrib $-1 -1 $451 $-1 $288 -1056964608 #
vertex $-1 -1 $-1 $367 $452 #
straight-curve $-1 -1 $-1 -692.01926139305192 119.72584604757924 -29.600000000000016 2.7755575615628914e-14 6.018531076210112e-33 1000 F 0 F 0.0020000000000000104 #
DXID-attrib $-1 -1 $-1 $289 $212 @18 ASM_EDGE_FROM_STEP @5 15516 #
point $-1 -1 $-1 -727.01926139305192 119.72584604757924 -29.600000000000016 #
point $-1 -1 $-1 -692.01926139305192 119.72584604757924 -29.600000000000016 #
truecolor-adesk-attrib $-1 -1 $453 $-1 $294 -1056964608 #
ellipse-curve $-1 -1 $-1 -709.51926139305192 119.72584604757924 -29.600000000000016 -2.7755575615628914e-17 -6.018531076210112e-36 -1 -5.0000000000000009 0 1.3877787807814459e-16 1 F 0 F 3.1415926535897931 #
DXID-attrib $-1 -1 $-1 $297 $215 @18 ASM_EDGE_FROM_STEP @4 3128 #
point $-1 -1 $-1 -714.51926139305192 119.72584604757924 -29.600000000000016 #
DXID-attrib $-1 -1 $-1 $300 $217 @18 ASM_EDGE_FROM_STEP @5 12912 #
point $-1 -1 $-1 -704.51926139305192 119.72584604757924 -29.600000000000016 #
truecolor-adesk-attrib $-1 -1 $454 $-1 $303 -1056964608 #
ellipse-curve $-1 -1 $-1 -709.51926139305192 119.72584604757924 -59.60000000000003 -2.7755575615628914e-17 -6.018531076210112e-36 -1 -5.0000000000000009 0 1.3877787807814459e-16 1 F -3.1415926535897931 F 0 #
DXID-attrib $-1 -1 $-1 $309 $225 @18 ASM_EDGE_FROM_STEP @4 8312 #
truecolor-adesk-attrib $-1 -1 $455 $-1 $311 -1056964608 #
ellipse-curve $-1 -1 $-1 -738.51063942170038 133.71722407622769 -27.600000000000001 -2.7755575615628914e-17 -6.018531076210112e-36 -1 -2.7500000000000027 0 7.6327832942979586e-17 1 F 0 F 3.1415926535897931 #
truecolor-adesk-attrib $-1 -1 $456 $-1 $312 -1056964608 #
cone-surface $-1 -1 $-1 -738.51063942170038 133.71722407622769 94.399999999999977 -2.7755575615628914e-17 -6.018531076210112e-36 -1 -2.7500000000000027 0 7.6327832942979586e-17 1 I I 0 1 2.7500000000000031 forward I I I I #
DXID-attrib $-1 -1 $-1 $317 $235 @18 ASM_EDGE_FROM_STEP @4 3148 #
DXID-attrib $-1 -1 $-1 $320 $243 @18 ASM_EDGE_FROM_STEP @5 16217 #
fmesh-eye-attrib $-1 -1 $457 $322 $244 #
DXID-attrib $-1 -1 $-1 $326 $181 @18 ASM_FACE_FROM_STEP @19 输送带机构-597 #
DXID-attrib $-1 -1 $-1 $328 $192 @18 ASM_FACE_FROM_STEP @21 输送带机构-19787 #
fmesh-eye-attrib $-1 -1 $458 $329 $260 #
truecolor-adesk-attrib $-1 -1 $459 $-1 $330 -1056964608 #
face $460 -1 $-1 $-1 $461 $3 $-1 $462 forward single #
loop $-1 -1 $-1 $-1 $463 $330 #
cone-surface $-1 -1 $-1 -739.51926139305192 134.72584604757924 -27.600000000000001 2.7755575615628914e-17 6.018531076210112e-36 1 5.0000000000000009 0 -1.3877787807814459e-16 1 I I 0 1 5.0000000000000009 forward I I I I #
coedge $-1 -1 $-1 $464 $465 $360 $436 reversed $331 $-1 #
coedge $-1 -1 $-1 $340 $333 $438 $466 reversed $261 $-1 #
coedge $-1 -1 $-1 $333 $340 $346 $422 reversed $261 $-1 #
edge $467 -1 $-1 $442 -1.5707963267948966 $468 0 $359 $469 forward @7 unknown #
DXID-attrib $-1 -1 $-1 $335 $197 @18 ASM_FACE_FROM_STEP @21 输送带机构-32620 #
fmesh-eye-attrib $-1 -1 $470 $336 $266 #
edge $471 -1 $-1 $372 -3.1415926535897931 $369 1.2688263138573217e-16 $358 $472 forward @7 unknown #
coedge $-1 -1 $-1 $473 $339 $474 $475 forward $137 $-1 #
coedge $-1 -1 $-1 $438 $437 $339 $409 forward $439 $-1 #
edge $476 -1 $-1 $477 0.0049999999999999914 $411 0.065000000000000016 $408 $478 forward @7 unknown #
truecolor-adesk-attrib $-1 -1 $479 $-1 $341 -1056964608 #
vertex $-1 -1 $-1 $409 $480 #
ellipse-curve $-1 -1 $-1 -739.51926139305192 74.725846047579253 14.399999999999999 2.7755575615628914e-17 6.018531076210112e-36 1 -4.9999999999999982 0 1.3877787807814452e-16 1 F 0 F 1.5707963267948966 #
coedge $-1 -1 $-1 $342 $473 $481 $482 forward $137 $-1 #
coedge $-1 -1 $-1 $483 $484 $342 $415 forward $355 $-1 #
edge $485 -1 $-1 $419 -0.064999999999999988 $486 -0.0049999999999999914 $414 $487 forward @7 unknown #
coedge $-1 -1 $-1 $463 $343 $484 $488 reversed $398 $-1 #
coedge $-1 -1 $-1 $343 $463 $345 $421 reversed $398 $-1 #
truecolor-adesk-attrib $-1 -1 $489 $-1 $344 -1056964608 #
vertex $-1 -1 $-1 $488 $490 #
ellipse-curve $-1 -1 $-1 -739.51926139305192 134.72584604757924 14.399999999999999 2.7755575615628914e-17 6.018531076210112e-36 1 -4.9999999999999982 0 1.3877787807814452e-16 1 F -1.5707963267948966 F 0 #
edge $491 -1 $-1 $349 -0.042000000000000003 $492 0 $345 $493 forward @7 unknown #
edge $494 -1 $-1 $468 0 $348 0.042000000000000003 $346 $495 forward @7 unknown #
DXID-attrib $-1 -1 $-1 $347 $273 @18 ASM_EDGE_FROM_STEP @5 34523 #
point $-1 -1 $-1 -744.51926139305192 74.725846047579253 14.4 #
point $-1 -1 $-1 -744.51926139305192 134.72584604757924 14.4 #
DXID-attrib $-1 -1 $-1 $352 $204 @18 ASM_FACE_FROM_STEP @20 输送带机构-5990 #
fmesh-eye-attrib $-1 -1 $496 $353 $277 #
truecolor-adesk-attrib $-1 -1 $497 $-1 $354 -1056964608 #
face $498 -1 $-1 $82 $439 $3 $-1 $499 reversed single #
loop $-1 -1 $-1 $-1 $500 $354 #
plane-surface $-1 -1 $-1 -674.51926139305192 139.72584604757924 -27.600000000000001 -1 0 2.7755575615628914e-17 2.7755575615628914e-17 6.018531076210112e-36 1 forward_v I I I I #
coedge $-1 -1 $-1 $484 $483 $501 $502 reversed $355 $-1 #
coedge $-1 -1 $-1 $503 $359 $357 $434 forward $205 $-1 #
edge $504 -1 $-1 $468 -0.064999999999999988 $492 -0.0049999999999999914 $433 $505 forward @7 unknown #
coedge $-1 -1 $-1 $360 $506 $507 $508 forward $205 $-1 #
edge $509 -1 $-1 $510 -3.1415926535897949 $441 -1.5707963267948966 $360 $511 forward @7 unknown #
coedge $-1 -1 $-1 $408 $361 $465 $512 forward $439 $-1 #
coedge $-1 -1 $-1 $361 $408 $401 $466 forward $439 $-1 #
loop $-1 -1 $-1 $-1 $408 $429 #
truecolor-adesk-attrib $-1 -1 $513 $-1 $362 -1056964608 #
vertex $-1 -1 $-1 $362 $514 #
vertex $-1 -1 $-1 $362 $515 #
straight-curve $-1 -1 $-1 -674.51926139305192 69.725846047579239 -27.600000000000001 -1000 0 2.7755575615628914e-14 F 0.0049999999999999914 F 0.065000000000000016 #
truecolor-adesk-attrib $-1 -1 $516 $-1 $363 -1056964608 #
ellipse-curve $-1 -1 $-1 -709.51926139305192 119.72584604757924 -29.600000000000016 -2.7755575615628914e-17 -6.018531076210112e-36 -1 -5.0000000000000009 0 1.3877787807814459e-16 1 F -3.1415926535897931 F 0 #
DXID-attrib $-1 -1 $-1 $364 $284 @18 ASM_EDGE_FROM_STEP @4 7765 #
truecolor-adesk-attrib $-1 -1 $517 $-1 $367 -1056964608 #
ellipse-curve $-1 -1 $-1 -709.51926139305192 119.72584604757924 -27.600000000000001 -2.7755575615628914e-17 -6.018531076210112e-36 -1 -17.5 0 4.8572257327350599e-16 1 F 1.2688263138573217e-16 F 3.1415926535897931 #
DXID-attrib $-1 -1 $-1 $368 $286 @18 ASM_EDGE_FROM_STEP @5 26888 #
point $-1 -1 $-1 -727.01926139305192 119.72584604757924 -27.600000000000001 #
DXID-attrib $-1 -1 $-1 $371 $288 @18 ASM_EDGE_FROM_STEP @4 3383 #
point $-1 -1 $-1 -692.01926139305192 119.72584604757924 -27.600000000000001 #
DXID-attrib $-1 -1 $-1 $377 $294 @18 ASM_EDGE_FROM_STEP @5 13627 #
DXID-attrib $-1 -1 $-1 $383 $303 @18 ASM_EDGE_FROM_STEP @5 18804 #
DXID-attrib $-1 -1 $-1 $386 $311 @18 ASM_EDGE_FROM_STEP @5 33424 #
fmesh-eye-attrib $-1 -1 $518 $388 $312 #
DXID-attrib $-1 -1 $-1 $392 $244 @18 ASM_FACE_FROM_STEP @21 输送带机构-27321 #
DXID-attrib $-1 -1 $-1 $395 $260 @18 ASM_FACE_FROM_STEP @21 输送带机构-19363 #
fmesh-eye-attrib $-1 -1 $519 $396 $330 #
truecolor-adesk-attrib $-1 -1 $520 $-1 $397 -1056964608 #
loop $-1 -1 $-1 $-1 $521 $397 #
cone-surface $-1 -1 $-1 -679.51926139305192 134.72584604757924 -27.600000000000001 2.7755575615628914e-17 6.018531076210112e-36 1 4.9999999999999982 0 -1.3877787807814452e-16 1 I I 0 1 4.9999999999999982 forward I I I I #
coedge $-1 -1 $-1 $417 $416 $503 $522 reversed $398 $-1 #
coedge $-1 -1 $-1 $474 $400 $523 $524 reversed $331 $-1 #
coedge $-1 -1 $-1 $400 $474 $437 $512 reversed $331 $-1 #
edge $525 -1 $-1 $411 -0.042000000000000003 $442 0 $438 $526 forward @7 unknown #
truecolor-adesk-attrib $-1 -1 $527 $-1 $403 -1056964608 #
vertex $-1 -1 $-1 $403 $528 #
ellipse-curve $-1 -1 $-1 -739.51926139305192 74.725846047579253 -27.600000000000001 -2.7755575615628914e-17 -6.018531076210112e-36 -1 -4.9999999999999982 0 1.3877787807814452e-16 1 F -1.5707963267948966 F 0 #
DXID-attrib $-1 -1 $-1 $405 $266 @18 ASM_FACE_FROM_STEP @21 输送带机构-27276 #
truecolor-adesk-attrib $-1 -1 $529 $-1 $406 -1056964608 #
ellipse-curve $-1 -1 $-1 -709.51926139305192 119.72584604757924 -27.600000000000001 -2.7755575615628914e-17 -6.018531076210112e-36 -1 -17.5 0 4.8572257327350599e-16 1 F -3.1415926535897931 F 1.2688263138573217e-16 #
coedge $-1 -1 $-1 $413 $407 $500 $530 reversed $137 $-1 #
coedge $-1 -1 $-1 $465 $464 $407 $475 reversed $331 $-1 #
edge $531 -1 $-1 $477 1.5707963267948966 $532 3.1415926535897949 $407 $533 forward @7 unknown #
truecolor-adesk-attrib $-1 -1 $534 $-1 $409 -1056964608 #
vertex $-1 -1 $-1 $409 $535 #
straight-curve $-1 -1 $-1 -674.51926139305192 69.725846047579239 14.399999999999997 -1000 0 2.7755575615628914e-14 F 0.0049999999999999914 F 0.065000000000000016 #
DXID-attrib $-1 -1 $-1 $410 $341 @18 ASM_EDGE_FROM_STEP @4 9620 #
point $-1 -1 $-1 -739.51926139305192 69.725846047579239 14.399999999999999 #
coedge $-1 -1 $-1 $536 $537 $413 $482 reversed $461 $-1 #
edge $538 -1 $-1 $539 -3.1415926535897931 $486 -1.5707963267948966 $413 $540 forward @7 unknown #
coedge $-1 -1 $-1 $432 $414 $537 $541 forward $355 $-1 #
coedge $-1 -1 $-1 $414 $432 $416 $488 forward $355 $-1 #
truecolor-adesk-attrib $-1 -1 $542 $-1 $415 -1056964608 #
vertex $-1 -1 $-1 $415 $543 #
straight-curve $-1 -1 $-1 -674.51926139305192 139.72584604757924 14.399999999999997 1000 0 -2.7755575615628914e-14 F -0.064999999999999988 F -0.0049999999999999914 #
edge $544 -1 $-1 $545 0 $419 0.042000000000000003 $484 $546 forward @7 unknown #
DXID-attrib $-1 -1 $-1 $418 $344 @18 ASM_EDGE_FROM_STEP @5 34746 #
point $-1 -1 $-1 -739.51926139305192 139.72584604757924 14.399999999999999 #
truecolor-adesk-attrib $-1 -1 $547 $-1 $421 -1056964608 #
vertex $-1 -1 $-1 $434 $548 #
straight-curve $-1 -1 $-1 -744.51926139305192 134.72584604757924 -27.600000000000001 -2.7755575615628914e-14 -6.018531076210112e-33 -1000 F -0.042000000000000003 F 0 #
truecolor-adesk-attrib $-1 -1 $549 $-1 $422 -1056964608 #
straight-curve $-1 -1 $-1 -744.51926139305192 74.725846047579253 -27.600000000000001 2.7755575615628914e-14 6.018531076210112e-33 1000 F 0 F 0.042000000000000003 #
DXID-attrib $-1 -1 $-1 $427 $277 @18 ASM_FACE_FROM_STEP @21 输送带机构-17621 #
fmesh-eye-attrib $-1 -1 $550 $428 $354 #
truecolor-adesk-attrib $-1 -1 $551 $-1 $429 -1056964608 #
plane-surface $-1 -1 $-1 -674.51926139305192 69.725846047579239 -27.600000000000001 -1.6704779438076223e-52 1 -6.018531076210112e-36 -2.7755575615628914e-17 -6.018531076210112e-36 -1 forward_v I I I I #
coedge $-1 -1 $-1 $523 $552 $473 $530 forward $430 $-1 #
coedge $-1 -1 $-1 $506 $503 $432 $502 forward $205 $-1 #
edge $553 -1 $-1 $545 -0.064999999999999988 $554 -0.0049999999999999914 $501 $555 forward @7 unknown #
coedge $-1 -1 $-1 $501 $433 $463 $522 forward $205 $-1 #
truecolor-adesk-attrib $-1 -1 $556 $-1 $434 -1056964608 #
straight-curve $-1 -1 $-1 -744.51926139305192 139.72584604757924 -27.600000000000001 9.9127055770103254e-14 1000 -2.7573470230579754e-30 F -0.064999999999999988 F -0.0049999999999999914 #
coedge $-1 -1 $-1 $435 $501 $521 $557 forward $205 $-1 #
coedge $-1 -1 $-1 $552 $523 $435 $508 reversed $430 $-1 #
edge $558 -1 $-1 $559 0.0049999999999999914 $510 0.065000000000000002 $435 $560 forward @7 unknown #
truecolor-adesk-attrib $-1 -1 $561 $-1 $436 -1056964608 #
vertex $-1 -1 $-1 $508 $562 #
ellipse-curve $-1 -1 $-1 -679.51926139305192 74.725846047579239 -27.600000000000001 -2.7755575615628914e-17 -6.018531076210112e-36 -1 -5.0000000000000009 0 1.3877787807814459e-16 1 F -3.1415926535897949 F -1.5707963267948966 #
edge $563 -1 $-1 $441 0 $477 0.042000000000000003 $437 $564 forward @7 unknown #
DXID-attrib $-1 -1 $-1 $440 $362 @18 ASM_EDGE_FROM_STEP @5 23091 #
point $-1 -1 $-1 -679.51926139305192 69.725846047579239 -27.600000000000001 #
point $-1 -1 $-1 -739.51926139305192 69.725846047579239 -27.600000000000001 #
DXID-attrib $-1 -1 $-1 $444 $363 @18 ASM_EDGE_FROM_STEP @5 33475 #
DXID-attrib $-1 -1 $-1 $447 $367 @18 ASM_EDGE_FROM_STEP @5 30392 #
DXID-attrib $-1 -1 $-1 $456 $312 @18 ASM_FACE_FROM_STEP @21 输送带机构-29528 #
DXID-attrib $-1 -1 $-1 $459 $330 @18 ASM_FACE_FROM_STEP @21 输送带机构-30668 #
fmesh-eye-attrib $-1 -1 $565 $460 $397 #
coedge $-1 -1 $-1 $537 $536 $506 $557 reversed $461 $-1 #
edge $566 -1 $-1 $492 0 $545 1.5707963267948966 $503 $567 forward @7 unknown #
coedge $-1 -1 $-1 $507 $500 $464 $524 forward $430 $-1 #
edge $568 -1 $-1 $532 -0.042000000000000003 $510 0 $523 $569 forward @7 unknown #
truecolor-adesk-attrib $-1 -1 $570 $-1 $466 -1056964608 #
straight-curve $-1 -1 $-1 -739.51926139305192 69.725846047579239 -27.600000000000001 -2.7755575615628914e-14 -6.018531076210112e-33 -1000 F -0.042000000000000003 F 0 #
DXID-attrib $-1 -1 $-1 $467 $403 @18 ASM_EDGE_FROM_STEP @5 12526 #
point $-1 -1 $-1 -744.51926139305192 74.725846047579253 -27.600000000000001 #
DXID-attrib $-1 -1 $-1 $471 $406 @18 ASM_EDGE_FROM_STEP @5 33315 #
edge $571 -1 $-1 $539 0.0049999999999999914 $532 0.065000000000000002 $500 $572 forward @7 unknown #
truecolor-adesk-attrib $-1 -1 $573 $-1 $475 -1056964608 #
vertex $-1 -1 $-1 $530 $574 #
ellipse-curve $-1 -1 $-1 -679.51926139305192 74.725846047579239 14.399999999999999 2.7755575615628914e-17 6.018531076210112e-36 1 -5.0000000000000009 0 1.3877787807814459e-16 1 F 1.5707963267948966 F 3.1415926535897949 #
DXID-attrib $-1 -1 $-1 $476 $409 @18 ASM_EDGE_FROM_STEP @5 33153 #
point $-1 -1 $-1 -679.51926139305192 69.725846047579239 14.399999999999999 #
coedge $-1 -1 $-1 $521 $481 $552 $575 reversed $461 $-1 #
coedge $-1 -1 $-1 $481 $521 $483 $541 reversed $461 $-1 #
truecolor-adesk-attrib $-1 -1 $576 $-1 $482 -1056964608 #
vertex $-1 -1 $-1 $530 $577 #
ellipse-curve $-1 -1 $-1 -679.51926139305192 134.72584604757924 14.399999999999999 2.7755575615628914e-17 6.018531076210112e-36 1 -5.0000000000000009 0 1.3877787807814459e-16 1 F -3.1415926535897931 F -1.5707963267948966 #
edge $578 -1 $-1 $486 -0.042000000000000003 $554 0 $483 $579 forward @7 unknown #
DXID-attrib $-1 -1 $-1 $485 $415 @18 ASM_EDGE_FROM_STEP @5 26649 #
point $-1 -1 $-1 -679.51926139305192 139.72584604757924 14.399999999999999 #
truecolor-adesk-attrib $-1 -1 $580 $-1 $488 -1056964608 #
vertex $-1 -1 $-1 $522 $581 #
straight-curve $-1 -1 $-1 -739.51926139305192 139.72584604757924 -27.600000000000001 2.7755575615628914e-14 6.018531076210112e-33 1000 F 0 F 0.042000000000000003 #
DXID-attrib $-1 -1 $-1 $491 $421 @18 ASM_EDGE_FROM_STEP @5 33205 #
point $-1 -1 $-1 -744.51926139305192 134.72584604757924 -27.600000000000001 #
DXID-attrib $-1 -1 $-1 $494 $422 @18 ASM_EDGE_FROM_STEP @5 19387 #
DXID-attrib $-1 -1 $-1 $497 $354 @18 ASM_FACE_FROM_STEP @21 输送带机构-11874 #
fmesh-eye-attrib $-1 -1 $582 $498 $429 #
coedge $-1 -1 $-1 $500 $507 $536 $575 forward $430 $-1 #
truecolor-adesk-attrib $-1 -1 $583 $-1 $502 -1056964608 #
vertex $-1 -1 $-1 $502 $584 #
straight-curve $-1 -1 $-1 -674.51926139305192 139.72584604757924 -27.600000000000001 1000 0 -2.7755575615628914e-14 F -0.064999999999999988 F -0.0049999999999999914 #
DXID-attrib $-1 -1 $-1 $504 $434 @18 ASM_EDGE_FROM_STEP @4 6069 #
edge $585 -1 $-1 $554 1.5707963267948966 $559 3.1415926535897931 $506 $586 forward @7 unknown #
truecolor-adesk-attrib $-1 -1 $587 $-1 $508 -1056964608 #
vertex $-1 -1 $-1 $557 $588 #
straight-curve $-1 -1 $-1 -674.51926139305192 139.72584604757924 -27.600000000000001 1.6704779438076223e-49 -1000 6.018531076210112e-33 F 0.0049999999999999914 F 0.065000000000000002 #
DXID-attrib $-1 -1 $-1 $509 $436 @18 ASM_EDGE_FROM_STEP @5 21394 #
point $-1 -1 $-1 -674.51926139305192 74.725846047579239 -27.600000000000001 #
truecolor-adesk-attrib $-1 -1 $589 $-1 $512 -1056964608 #
straight-curve $-1 -1 $-1 -679.51926139305192 69.725846047579239 -27.600000000000001 2.7755575615628914e-14 6.018531076210112e-33 1000 F 0 F 0.042000000000000003 #
DXID-attrib $-1 -1 $-1 $520 $397 @18 ASM_FACE_FROM_STEP @21 输送带机构-24927 #
truecolor-adesk-attrib $-1 -1 $590 $-1 $522 -1056964608 #
ellipse-curve $-1 -1 $-1 -739.51926139305192 134.72584604757924 -27.600000000000001 -2.7755575615628914e-17 -6.018531076210112e-36 -1 -4.9999999999999982 0 1.3877787807814452e-16 1 F 0 F 1.5707963267948966 #
truecolor-adesk-attrib $-1 -1 $591 $-1 $524 -1056964608 #
straight-curve $-1 -1 $-1 -674.51926139305192 74.725846047579239 -27.600000000000001 -2.7755575615628914e-14 -6.018531076210112e-33 -1000 F -0.042000000000000003 F 0 #
DXID-attrib $-1 -1 $-1 $525 $466 @18 ASM_EDGE_FROM_STEP @5 30818 #
truecolor-adesk-attrib $-1 -1 $592 $-1 $530 -1056964608 #
straight-curve $-1 -1 $-1 -674.51926139305192 139.72584604757924 14.399999999999997 1.6704779438076223e-49 -1000 6.018531076210112e-33 F 0.0049999999999999914 F 0.065000000000000002 #
DXID-attrib $-1 -1 $-1 $531 $475 @18 ASM_EDGE_FROM_STEP @4 5582 #
point $-1 -1 $-1 -674.51926139305192 74.725846047579239 14.399999999999997 #
edge $593 -1 $-1 $559 0 $539 0.042000000000000003 $552 $594 forward @7 unknown #
DXID-attrib $-1 -1 $-1 $538 $482 @18 ASM_EDGE_FROM_STEP @5 22603 #
point $-1 -1 $-1 -674.51926139305192 134.72584604757924 14.399999999999997 #
truecolor-adesk-attrib $-1 -1 $595 $-1 $541 -1056964608 #
straight-curve $-1 -1 $-1 -679.51926139305192 139.72584604757924 -27.600000000000001 -2.7755575615628914e-14 -6.018531076210112e-33 -1000 F -0.042000000000000003 F 0 #
DXID-attrib $-1 -1 $-1 $544 $488 @18 ASM_EDGE_FROM_STEP @4 6993 #
point $-1 -1 $-1 -739.51926139305192 139.72584604757924 -27.600000000000001 #
DXID-attrib $-1 -1 $-1 $551 $429 @18 ASM_FACE_FROM_STEP @21 输送带机构-18392 #
DXID-attrib $-1 -1 $-1 $553 $502 @18 ASM_EDGE_FROM_STEP @5 15326 #
point $-1 -1 $-1 -679.51926139305192 139.72584604757924 -27.600000000000001 #
truecolor-adesk-attrib $-1 -1 $596 $-1 $557 -1056964608 #
ellipse-curve $-1 -1 $-1 -679.51926139305192 134.72584604757924 -27.600000000000001 -2.7755575615628914e-17 -6.018531076210112e-36 -1 -5.0000000000000009 0 1.3877787807814459e-16 1 F 1.5707963267948966 F 3.1415926535897931 #
DXID-attrib $-1 -1 $-1 $558 $508 @18 ASM_EDGE_FROM_STEP @5 32009 #
point $-1 -1 $-1 -674.51926139305192 134.72584604757924 -27.600000000000001 #
DXID-attrib $-1 -1 $-1 $563 $512 @18 ASM_EDGE_FROM_STEP @5 35190 #
DXID-attrib $-1 -1 $-1 $566 $522 @18 ASM_EDGE_FROM_STEP @5 16664 #
DXID-attrib $-1 -1 $-1 $568 $524 @18 ASM_EDGE_FROM_STEP @5 32752 #
DXID-attrib $-1 -1 $-1 $571 $530 @18 ASM_EDGE_FROM_STEP @4 7496 #
truecolor-adesk-attrib $-1 -1 $597 $-1 $575 -1056964608 #
straight-curve $-1 -1 $-1 -674.51926139305192 134.72584604757924 -27.600000000000001 2.7755575615628914e-14 6.018531076210112e-33 1000 F 0 F 0.042000000000000003 #
DXID-attrib $-1 -1 $-1 $578 $541 @18 ASM_EDGE_FROM_STEP @5 22548 #
DXID-attrib $-1 -1 $-1 $585 $557 @18 ASM_EDGE_FROM_STEP @4 3602 #
DXID-attrib $-1 -1 $-1 $593 $575 @18 ASM_EDGE_FROM_STEP @4 4552 #
