700 656 1 0         
5 ZWCAD 12 ACIS 28.0 NT 24 Sat May 11 16:44:02 2024 
1 9.9999999999999995e-07 1e-10 
body $1 -1 $-1 $2 $-1 $-1 #
DXID-attrib $-1 -1 $-1 $-1 $0 @18 ASM_BODY_FROM_STEP @83 FD4451EC9EA9606D59DFE471C188AB945D9979D9|:|0C498FBC15E2ABB8D7B07C38BC1480EF8F45EBC6 #
lump $-1 -1 $-1 $-1 $3 $0 #
shell $-1 -1 $-1 $-1 $-1 $4 $-1 $2 #
face $5 -1 $-1 $6 $7 $3 $-1 $8 forward single #
truecolor-adesk-attrib $-1 -1 $9 $-1 $4 -1056964608 #
face $10 -1 $-1 $11 $12 $3 $-1 $13 forward single #
loop $-1 -1 $-1 $-1 $14 $4 #
cone-surface $-1 -1 $-1 -574.60314314646121 38.159780126328904 37.600000000000001 0 0 -1 -3.4622848102932138 -2.003143502700921 0 1 I I 0.70710678118654602 0.70710678118654902 4.0000000000000036 forward I I I I #
fmesh-eye-attrib $-1 -1 $15 $5 $4 #
truecolor-adesk-attrib $-1 -1 $16 $-1 $6 -1056964608 #
face $17 -1 $-1 $18 $19 $3 $-1 $20 forward single #
loop $-1 -1 $-1 $-1 $21 $6 #
cone-surface $-1 -1 $-1 -574.60314314646121 38.159780126328904 -55.600000000000009 0 0 1 3.4622848102932493 2.0031435027009414 0 1 I I 0.70710678118654635 0.70710678118654879 4.0000000000000444 forward I I I I #
coedge $-1 -1 $-1 $22 $23 $24 $25 reversed $7 $-1 #
DXID-attrib $-1 -1 $-1 $9 $4 @18 ASM_FACE_FROM_STEP @21 输送带机构-32711 #
fmesh-eye-attrib $-1 -1 $26 $10 $6 #
truecolor-adesk-attrib $-1 -1 $27 $-1 $11 -1056964608 #
face $28 -1 $-1 $29 $30 $3 $-1 $31 forward single #
loop $-1 -1 $-1 $-1 $32 $11 #
cone-surface $-1 -1 $-1 -574.60314314646121 38.159780126328904 -55.600000000000009 0 0 1 4.3278560128665138 2.5039293783761489 0 1 I I 0 1 5 forward I I I I #
coedge $-1 -1 $-1 $33 $34 $35 $36 reversed $12 $-1 #
coedge $-1 -1 $-1 $37 $14 $38 $39 forward $7 $-1 #
coedge $-1 -1 $-1 $14 $37 $40 $41 reversed $7 $-1 #
coedge $-1 -1 $-1 $42 $42 $14 $25 forward $43 $-1 #
edge $44 -1 $-1 $45 1.3777276490407719e-16 $46 3.1415926535897931 $14 $47 forward @7 unknown #
DXID-attrib $-1 -1 $-1 $16 $6 @18 ASM_FACE_FROM_STEP @20 输送带机构-7563 #
fmesh-eye-attrib $-1 -1 $48 $17 $11 #
truecolor-adesk-attrib $-1 -1 $49 $-1 $18 -1056964608 #
face $50 -1 $-1 $51 $52 $3 $-1 $53 forward single #
loop $-1 -1 $-1 $-1 $54 $18 #
cone-surface $-1 -1 $-1 -574.60314314646121 38.159780126328904 -27.600000000000001 0 0 1 5.6262128167264684 3.2551081918889948 0 1 I I 0 1 6.5000000000000018 forward I I I I #
coedge $-1 -1 $-1 $55 $56 $57 $58 forward $19 $-1 #
coedge $-1 -1 $-1 $57 $21 $59 $60 forward $12 $-1 #
coedge $-1 -1 $-1 $21 $57 $61 $62 reversed $12 $-1 #
coedge $-1 -1 $-1 $63 $63 $21 $36 forward $64 $-1 #
edge $65 -1 $-1 $66 1.3777276490407638e-16 $67 3.1415926535897931 $21 $68 forward @7 unknown #
coedge $-1 -1 $-1 $23 $22 $69 $70 reversed $7 $-1 #
coedge $-1 -1 $-1 $71 $72 $22 $39 reversed $73 $-1 #
edge $74 -1 $-1 $45 5.3024515623552766e-36 $75 0.0014142135623730929 $22 $76 forward @7 unknown #
coedge $-1 -1 $-1 $72 $71 $23 $41 forward $73 $-1 #
edge $77 -1 $-1 $46 0 $78 0.0014142135623730929 $23 $79 forward @7 unknown #
coedge $-1 -1 $-1 $24 $24 $71 $80 forward $43 $-1 #
loop $-1 -1 $-1 $-1 $42 $81 #
truecolor-adesk-attrib $-1 -1 $82 $-1 $25 -1056964608 #
vertex $-1 -1 $-1 $25 $83 #
vertex $-1 -1 $-1 $25 $84 #
ellipse-curve $-1 -1 $-1 -574.60314314646121 38.159780126328904 37.600000000000001 0 0 1 3.4622848102932138 2.003143502700921 0 1 F 1.3777276490407719e-16 F 3.1415926535897931 #
DXID-attrib $-1 -1 $-1 $27 $11 @18 ASM_FACE_FROM_STEP @21 输送带机构-28644 #
fmesh-eye-attrib $-1 -1 $85 $28 $18 #
truecolor-adesk-attrib $-1 -1 $86 $-1 $29 -1056964608 #
face $87 -1 $-1 $88 $89 $3 $-1 $90 forward single #
loop $-1 -1 $-1 $-1 $69 $29 #
cone-surface $-1 -1 $-1 -574.60314314646121 38.159780126328904 37.600000000000001 0 0 -1 -4.3278560128665138 -2.5039293783761489 0 1 I I 0 1 5 forward I I I I #
coedge $-1 -1 $-1 $91 $92 $93 $94 reversed $30 $-1 #
coedge $-1 -1 $-1 $95 $32 $96 $97 forward $19 $-1 #
coedge $-1 -1 $-1 $32 $95 $98 $99 reversed $19 $-1 #
coedge $-1 -1 $-1 $34 $33 $32 $58 reversed $12 $-1 #
edge $100 -1 $-1 $101 -3.1415926535897931 $102 -1.2246467991473532e-16 $57 $103 forward @7 unknown #
coedge $-1 -1 $-1 $104 $105 $33 $60 reversed $106 $-1 #
edge $107 -1 $-1 $66 5.3024515623550715e-36 $102 0.0014142135623730356 $33 $108 forward @7 unknown #
coedge $-1 -1 $-1 $105 $104 $34 $62 forward $106 $-1 #
edge $109 -1 $-1 $67 0 $101 0.0014142135623730356 $34 $110 forward @7 unknown #
coedge $-1 -1 $-1 $35 $35 $104 $111 forward $64 $-1 #
loop $-1 -1 $-1 $-1 $63 $112 #
truecolor-adesk-attrib $-1 -1 $113 $-1 $36 -1056964608 #
vertex $-1 -1 $-1 $36 $114 #
vertex $-1 -1 $-1 $36 $115 #
ellipse-curve $-1 -1 $-1 -574.60314314646121 38.159780126328904 -55.600000000000009 0 0 -1 -3.4622848102932493 -2.0031435027009414 0 1 F 1.3777276490407638e-16 F 3.1415926535897931 #
coedge $-1 -1 $-1 $116 $117 $37 $70 forward $52 $-1 #
edge $118 -1 $-1 $78 -3.1415926535897931 $75 -1.2246467991473532e-16 $37 $119 forward @7 unknown #
coedge $-1 -1 $-1 $40 $38 $42 $80 reversed $73 $-1 #
coedge $-1 -1 $-1 $38 $40 $120 $121 reversed $73 $-1 #
loop $-1 -1 $-1 $-1 $38 $122 #
truecolor-adesk-attrib $-1 -1 $123 $-1 $39 -1056964608 #
vertex $-1 -1 $-1 $39 $124 #
straight-curve $-1 -1 $-1 -571.14085833616798 40.162923629029827 37.600000000000001 612.05126693937598 354.10908861239773 -707.10678118654914 F 5.3024515623552766e-36 F 0.0014142135623730929 #
truecolor-adesk-attrib $-1 -1 $125 $-1 $41 -1056964608 #
vertex $-1 -1 $-1 $70 $126 #
straight-curve $-1 -1 $-1 -578.06542795675443 36.156636623627982 37.600000000000001 -612.05126693937598 -354.10908861239767 -707.10678118654914 F 0 F 0.0014142135623730929 #
edge $127 -1 $-1 $46 -3.1415926535897931 $45 1.3777276490407719e-16 $42 $128 forward @7 unknown #
face $129 -1 $-1 $130 $43 $3 $-1 $131 forward single #
DXID-attrib $-1 -1 $-1 $44 $25 @18 ASM_EDGE_FROM_STEP @5 27699 #
point $-1 -1 $-1 -571.14085833616798 40.162923629029827 37.600000000000001 #
point $-1 -1 $-1 -578.06542795675443 36.156636623627982 37.600000000000001 #
DXID-attrib $-1 -1 $-1 $49 $18 @18 ASM_FACE_FROM_STEP @21 输送带机构-33650 #
fmesh-eye-attrib $-1 -1 $132 $50 $29 #
truecolor-adesk-attrib $-1 -1 $133 $-1 $51 -1056964608 #
face $134 -1 $-1 $135 $136 $3 $-1 $137 forward single #
loop $-1 -1 $-1 $-1 $138 $51 #
cone-surface $-1 -1 $-1 -574.60314314646121 38.159780126328904 27.600000000000001 0 0 -1 -5.6262128167264684 -3.2551081918889948 0 1 I I 0 1 6.5000000000000018 forward I I I I #
coedge $-1 -1 $-1 $139 $54 $140 $141 forward $30 $-1 #
coedge $-1 -1 $-1 $54 $139 $142 $143 reversed $30 $-1 #
coedge $-1 -1 $-1 $144 $144 $54 $94 forward $145 $-1 #
edge $146 -1 $-1 $147 1.2246467991473532e-16 $148 3.1415926535897931 $54 $149 forward @7 unknown #
coedge $-1 -1 $-1 $56 $55 $150 $151 forward $19 $-1 #
coedge $-1 -1 $-1 $152 $153 $55 $97 reversed $154 $-1 #
edge $155 -1 $-1 $102 0.00099999999999996099 $156 0.028000000000000004 $55 $157 forward @7 unknown #
coedge $-1 -1 $-1 $153 $152 $56 $99 forward $154 $-1 #
edge $158 -1 $-1 $101 0.00099999999999996099 $159 0.028000000000000004 $56 $160 forward @7 unknown #
truecolor-adesk-attrib $-1 -1 $161 $-1 $58 -1056964608 #
vertex $-1 -1 $-1 $58 $162 #
vertex $-1 -1 $-1 $60 $163 #
ellipse-curve $-1 -1 $-1 -574.60314314646121 38.159780126328904 -54.600000000000044 0 0 1 -4.3278560128665138 -2.5039293783761489 0 1 F -3.1415926535897931 F -1.2246467991473532e-16 #
coedge $-1 -1 $-1 $61 $59 $63 $111 reversed $106 $-1 #
coedge $-1 -1 $-1 $59 $61 $152 $164 reversed $106 $-1 #
loop $-1 -1 $-1 $-1 $59 $165 #
truecolor-adesk-attrib $-1 -1 $166 $-1 $60 -1056964608 #
straight-curve $-1 -1 $-1 -578.06542795675443 36.156636623627961 -55.600000000000009 -612.05126693937609 -354.10908861239767 707.1067811865488 F 5.3024515623550715e-36 F 0.0014142135623730356 #
truecolor-adesk-attrib $-1 -1 $167 $-1 $62 -1056964608 #
straight-curve $-1 -1 $-1 -571.14085833616798 40.162923629029848 -55.600000000000009 612.05126693937609 354.10908861239773 707.1067811865488 F 0 F 0.0014142135623730356 #
edge $168 -1 $-1 $67 -3.1415926535897931 $66 1.3777276490407638e-16 $63 $169 forward @7 unknown #
face $170 -1 $-1 $171 $64 $3 $-1 $172 forward single #
DXID-attrib $-1 -1 $-1 $65 $36 @18 ASM_EDGE_FROM_STEP @5 11173 #
point $-1 -1 $-1 -578.06542795675443 36.156636623627961 -55.600000000000009 #
point $-1 -1 $-1 -571.14085833616798 40.162923629029848 -55.600000000000009 #
coedge $-1 -1 $-1 $173 $69 $174 $175 forward $52 $-1 #
coedge $-1 -1 $-1 $69 $173 $176 $177 reversed $52 $-1 #
truecolor-adesk-attrib $-1 -1 $178 $-1 $70 -1056964608 #
ellipse-curve $-1 -1 $-1 -574.60314314646121 38.159780126328904 36.600000000000001 0 0 -1 4.3278560128665138 2.5039293783761489 0 1 F -3.1415926535897931 F -1.2246467991473532e-16 #
coedge $-1 -1 $-1 $176 $174 $72 $121 forward $179 $-1 #
edge $180 -1 $-1 $75 -1.2246467991473532e-16 $78 3.1415926535897931 $120 $181 forward @7 unknown #
face $182 -1 $-1 $-1 $73 $3 $-1 $183 forward single #
DXID-attrib $-1 -1 $-1 $74 $39 @18 ASM_EDGE_FROM_STEP @4 4598 #
point $-1 -1 $-1 -570.2752871335947 40.663709504705054 36.600000000000001 #
DXID-attrib $-1 -1 $-1 $77 $41 @18 ASM_EDGE_FROM_STEP @5 33243 #
point $-1 -1 $-1 -578.93099915932771 35.655850747952755 36.600000000000001 #
truecolor-adesk-attrib $-1 -1 $184 $-1 $80 -1056964608 #
ellipse-curve $-1 -1 $-1 -574.60314314646121 38.159780126328904 37.600000000000001 0 0 1 3.4622848102932138 2.003143502700921 0 1 F -3.1415926535897931 F 1.3777276490407719e-16 #
truecolor-adesk-attrib $-1 -1 $185 $-1 $81 -1056964608 #
face $186 -1 $-1 $187 $179 $3 $-1 $188 forward single #
plane-surface $-1 -1 $-1 -574.60314314646121 38.159780126328904 37.600000000000001 0 0 1 0.86557120257330267 0.50078587567522981 0 forward_v I I I I #
DXID-attrib $-1 -1 $-1 $86 $29 @18 ASM_FACE_FROM_STEP @20 输送带机构-2955 #
fmesh-eye-attrib $-1 -1 $189 $87 $51 #
truecolor-adesk-attrib $-1 -1 $190 $-1 $88 -1056964608 #
face $191 -1 $-1 $192 $193 $3 $-1 $194 forward single #
loop $-1 -1 $-1 $-1 $195 $88 #
cone-surface $-1 -1 $-1 -574.60314314646121 38.159780126328904 -26.600000000000001 0 0 1 14.281924842459494 8.2629669486412922 0 1 I I 0 1 16.5 forward I I I I #
coedge $-1 -1 $-1 $196 $197 $198 $199 reversed $89 $-1 #
coedge $-1 -1 $-1 $92 $91 $200 $201 forward $30 $-1 #
coedge $-1 -1 $-1 $202 $203 $91 $141 reversed $204 $-1 #
edge $205 -1 $-1 $147 0 $206 0.0010000000000000009 $91 $207 forward @7 unknown #
coedge $-1 -1 $-1 $203 $202 $92 $143 forward $204 $-1 #
edge $208 -1 $-1 $148 0 $209 0.0010000000000000009 $92 $210 forward @7 unknown #
coedge $-1 -1 $-1 $93 $93 $202 $211 forward $145 $-1 #
loop $-1 -1 $-1 $212 $144 $213 #
truecolor-adesk-attrib $-1 -1 $214 $-1 $94 -1056964608 #
vertex $-1 -1 $-1 $94 $215 #
vertex $-1 -1 $-1 $94 $216 #
ellipse-curve $-1 -1 $-1 -574.60314314646121 38.159780126328904 -27.600000000000001 0 0 -1 -5.6262128167264684 -3.2551081918889948 0 1 F 1.2246467991473532e-16 F 3.1415926535897931 #
coedge $-1 -1 $-1 $217 $217 $95 $151 reversed $212 $-1 #
edge $218 -1 $-1 $156 1.2246467991473532e-16 $159 3.1415926535897931 $95 $219 forward @7 unknown #
coedge $-1 -1 $-1 $98 $96 $105 $164 forward $154 $-1 #
coedge $-1 -1 $-1 $96 $98 $217 $220 forward $154 $-1 #
loop $-1 -1 $-1 $-1 $96 $171 #
truecolor-adesk-attrib $-1 -1 $221 $-1 $97 -1056964608 #
vertex $-1 -1 $-1 $97 $222 #
straight-curve $-1 -1 $-1 -578.93099915932771 35.655850747952755 -55.600000000000009 0 0 1000 F 0.00099999999999996099 F 0.028000000000000004 #
truecolor-adesk-attrib $-1 -1 $223 $-1 $99 -1056964608 #
vertex $-1 -1 $-1 $151 $224 #
straight-curve $-1 -1 $-1 -570.2752871335947 40.663709504705054 -55.600000000000009 0 0 1000 F 0.00099999999999996099 F 0.028000000000000004 #
DXID-attrib $-1 -1 $-1 $100 $58 @18 ASM_EDGE_FROM_STEP @4 7818 #
point $-1 -1 $-1 -570.2752871335947 40.663709504705054 -54.600000000000044 #
point $-1 -1 $-1 -578.93099915932771 35.655850747952755 -54.600000000000044 #
edge $225 -1 $-1 $102 -1.2246467991473532e-16 $101 3.1415926535897931 $152 $226 forward @7 unknown #
face $227 -1 $-1 $122 $106 $3 $-1 $228 forward single #
DXID-attrib $-1 -1 $-1 $107 $60 @18 ASM_EDGE_FROM_STEP @5 27514 #
DXID-attrib $-1 -1 $-1 $109 $62 @18 ASM_EDGE_FROM_STEP @5 24914 #
truecolor-adesk-attrib $-1 -1 $229 $-1 $111 -1056964608 #
ellipse-curve $-1 -1 $-1 -574.60314314646121 38.159780126328904 -55.600000000000009 0 0 -1 -3.4622848102932493 -2.0031435027009414 0 1 F -3.1415926535897931 F 1.3777276490407638e-16 #
truecolor-adesk-attrib $-1 -1 $230 $-1 $112 -1056964608 #
face $231 -1 $-1 $165 $154 $3 $-1 $232 forward single #
plane-surface $-1 -1 $-1 -574.60314314646121 38.159780126328904 -55.600000000000009 0 0 -1 -0.86557120257330267 -0.50078587567522981 0 forward_v I I I I #
coedge $-1 -1 $-1 $117 $116 $233 $234 forward $52 $-1 #
coedge $-1 -1 $-1 $120 $235 $116 $175 reversed $179 $-1 #
edge $236 -1 $-1 $75 0.0010000000000000009 $237 0.01 $116 $238 forward @7 unknown #
coedge $-1 -1 $-1 $235 $120 $117 $177 forward $179 $-1 #
edge $239 -1 $-1 $78 0.0010000000000000009 $240 0.01 $117 $241 forward @7 unknown #
DXID-attrib $-1 -1 $-1 $118 $70 @18 ASM_EDGE_FROM_STEP @5 14431 #
loop $-1 -1 $-1 $-1 $174 $130 #
truecolor-adesk-attrib $-1 -1 $242 $-1 $121 -1056964608 #
ellipse-curve $-1 -1 $-1 -574.60314314646121 38.159780126328904 36.600000000000001 0 0 -1 4.3278560128665138 2.5039293783761489 0 1 F -1.2246467991473532e-16 F 3.1415926535897931 #
truecolor-adesk-attrib $-1 -1 $243 $-1 $122 -1056964608 #
cone-surface $-1 -1 $-1 -574.60314314646121 38.159780126328904 37.600000000000001 0 0 -1 -3.4622848102932138 -2.003143502700921 0 1 I I 0.70710678118654602 0.70710678118654902 4.0000000000000036 forward I I I I #
DXID-attrib $-1 -1 $-1 $127 $80 @18 ASM_EDGE_FROM_STEP @4 2067 #
fmesh-eye-attrib $-1 -1 $244 $129 $81 #
truecolor-adesk-attrib $-1 -1 $245 $-1 $130 -1056964608 #
face $246 -1 $-1 $213 $204 $3 $-1 $247 forward single #
cone-surface $-1 -1 $-1 -574.60314314646121 38.159780126328904 37.600000000000001 0 0 -1 -4.3278560128665138 -2.5039293783761489 0 1 I I 0 1 5 forward I I I I #
DXID-attrib $-1 -1 $-1 $133 $51 @18 ASM_FACE_FROM_STEP @20 输送带机构-8354 #
fmesh-eye-attrib $-1 -1 $248 $134 $88 #
truecolor-adesk-attrib $-1 -1 $249 $-1 $135 -1056964608 #
face $250 -1 $-1 $251 $252 $3 $-1 $253 forward single #
loop $-1 -1 $-1 $-1 $254 $135 #
cone-surface $-1 -1 $-1 -574.60314314646121 38.159780126328904 48.718743342060158 0 0 1 11.252425633452935 6.5102163837779878 0 1 I I 0 1 13 forward I I I I #
coedge $-1 -1 $-1 $255 $256 $257 $258 forward $136 $-1 #
coedge $-1 -1 $-1 $259 $138 $260 $261 forward $89 $-1 #
coedge $-1 -1 $-1 $138 $259 $262 $263 reversed $89 $-1 #
coedge $-1 -1 $-1 $264 $264 $138 $199 forward $265 $-1 #
edge $266 -1 $-1 $267 1.2246467991473532e-16 $268 3.1415926535897931 $138 $269 forward @7 unknown #
coedge $-1 -1 $-1 $270 $270 $139 $201 reversed $271 $-1 #
edge $272 -1 $-1 $206 1.2246467991473532e-16 $209 3.1415926535897931 $139 $273 forward @7 unknown #
coedge $-1 -1 $-1 $142 $140 $144 $211 reversed $204 $-1 #
coedge $-1 -1 $-1 $140 $142 $270 $274 forward $204 $-1 #
loop $-1 -1 $-1 $-1 $140 $187 #
truecolor-adesk-attrib $-1 -1 $275 $-1 $141 -1056964608 #
vertex $-1 -1 $-1 $141 $276 #
straight-curve $-1 -1 $-1 -580.22935596318769 34.904671934439911 -27.600000000000001 0 0 1000 F 0 F 0.0010000000000000009 #
truecolor-adesk-attrib $-1 -1 $277 $-1 $143 -1056964608 #
vertex $-1 -1 $-1 $201 $278 #
straight-curve $-1 -1 $-1 -568.97693032973473 41.414888318217898 -27.600000000000001 0 0 1000 F 0 F 0.0010000000000000009 #
edge $279 -1 $-1 $148 -3.1415926535897931 $147 1.2246467991473532e-16 $202 $280 forward @7 unknown #
loop $-1 -1 $-1 $-1 $217 $213 #
face $281 -1 $-1 $112 $145 $3 $-1 $282 forward single #
DXID-attrib $-1 -1 $-1 $146 $94 @18 ASM_EDGE_FROM_STEP @5 11758 #
point $-1 -1 $-1 -580.22935596318769 34.904671934439911 -27.600000000000001 #
point $-1 -1 $-1 -568.97693032973473 41.414888318217898 -27.600000000000001 #
coedge $-1 -1 $-1 $150 $150 $153 $220 reversed $212 $-1 #
truecolor-adesk-attrib $-1 -1 $283 $-1 $151 -1056964608 #
ellipse-curve $-1 -1 $-1 -574.60314314646121 38.159780126328904 -27.600000000000001 0 0 -1 -4.3278560128665138 -2.5039293783761489 0 1 F 1.2246467991473532e-16 F 3.1415926535897931 #
edge $284 -1 $-1 $159 -3.1415926535897931 $156 1.2246467991473532e-16 $217 $285 forward @7 unknown #
DXID-attrib $-1 -1 $-1 $155 $97 @18 ASM_EDGE_FROM_STEP @5 13454 #
point $-1 -1 $-1 -578.93099915932771 35.655850747952755 -27.600000000000001 #
DXID-attrib $-1 -1 $-1 $158 $99 @18 ASM_EDGE_FROM_STEP @5 16106 #
point $-1 -1 $-1 -570.2752871335947 40.663709504705054 -27.600000000000001 #
truecolor-adesk-attrib $-1 -1 $286 $-1 $164 -1056964608 #
ellipse-curve $-1 -1 $-1 -574.60314314646121 38.159780126328904 -54.600000000000044 0 0 1 -4.3278560128665138 -2.5039293783761489 0 1 F -1.2246467991473532e-16 F 3.1415926535897931 #
truecolor-adesk-attrib $-1 -1 $287 $-1 $165 -1056964608 #
cone-surface $-1 -1 $-1 -574.60314314646121 38.159780126328904 -55.600000000000009 0 0 1 3.4622848102932493 2.0031435027009414 0 1 I I 0.70710678118654635 0.70710678118654879 4.0000000000000444 forward I I I I #
DXID-attrib $-1 -1 $-1 $168 $111 @18 ASM_EDGE_FROM_STEP @5 27562 #
fmesh-eye-attrib $-1 -1 $288 $170 $112 #
truecolor-adesk-attrib $-1 -1 $289 $-1 $171 -1056964608 #
cone-surface $-1 -1 $-1 -574.60314314646121 38.159780126328904 -55.600000000000009 0 0 1 4.3278560128665138 2.5039293783761489 0 1 I I 0 1 5 forward I I I I #
coedge $-1 -1 $-1 $290 $290 $173 $234 reversed $291 $-1 #
edge $292 -1 $-1 $237 1.2246467991473532e-16 $240 3.1415926535897931 $173 $293 forward @7 unknown #
coedge $-1 -1 $-1 $174 $176 $290 $294 forward $179 $-1 #
truecolor-adesk-attrib $-1 -1 $295 $-1 $175 -1056964608 #
vertex $-1 -1 $-1 $175 $296 #
straight-curve $-1 -1 $-1 -570.2752871335947 40.663709504705054 37.600000000000001 0 0 -1000 F 0.0010000000000000009 F 0.01 #
truecolor-adesk-attrib $-1 -1 $297 $-1 $177 -1056964608 #
vertex $-1 -1 $-1 $234 $298 #
straight-curve $-1 -1 $-1 -578.93099915932771 35.655850747952755 37.600000000000001 0 0 -1000 F 0.0010000000000000009 F 0.01 #
DXID-attrib $-1 -1 $-1 $180 $121 @18 ASM_EDGE_FROM_STEP @5 35022 #
fmesh-eye-attrib $-1 -1 $299 $182 $122 #
DXID-attrib $-1 -1 $-1 $185 $81 @18 ASM_FACE_FROM_STEP @21 输送带机构-24419 #
fmesh-eye-attrib $-1 -1 $300 $186 $130 #
truecolor-adesk-attrib $-1 -1 $301 $-1 $187 -1056964608 #
cone-surface $-1 -1 $-1 -574.60314314646121 38.159780126328904 -27.600000000000001 0 0 1 5.6262128167264684 3.2551081918889948 0 1 I I 0 1 6.5000000000000018 forward I I I I #
DXID-attrib $-1 -1 $-1 $190 $88 @18 ASM_FACE_FROM_STEP @21 输送带机构-15894 #
fmesh-eye-attrib $-1 -1 $302 $191 $135 #
truecolor-adesk-attrib $-1 -1 $303 $-1 $192 -1056964608 #
face $304 -1 $-1 $305 $306 $3 $-1 $307 forward single #
loop $-1 -1 $-1 $-1 $308 $192 #
cone-surface $-1 -1 $-1 -574.60314314646121 38.159780126328904 48.718743342060158 0 0 1 11.252425633452935 6.5102163837779878 0 1 I I 0 1 13 forward I I I I #
coedge $-1 -1 $-1 $309 $310 $311 $312 forward $193 $-1 #
coedge $-1 -1 $-1 $313 $195 $314 $315 forward $136 $-1 #
coedge $-1 -1 $-1 $195 $313 $316 $317 reversed $136 $-1 #
coedge $-1 -1 $-1 $318 $318 $195 $258 reversed $319 $-1 #
edge $320 -1 $-1 $321 0 $322 3.1415926535897931 $195 $323 forward @7 unknown #
coedge $-1 -1 $-1 $197 $196 $324 $325 forward $89 $-1 #
coedge $-1 -1 $-1 $326 $327 $196 $261 reversed $328 $-1 #
edge $329 -1 $-1 $267 0 $330 0.0010000000000000009 $196 $331 forward @7 unknown #
coedge $-1 -1 $-1 $327 $326 $197 $263 forward $328 $-1 #
edge $332 -1 $-1 $268 0 $333 0.0010000000000000009 $197 $334 forward @7 unknown #
coedge $-1 -1 $-1 $198 $198 $326 $335 forward $265 $-1 #
loop $-1 -1 $-1 $291 $264 $336 #
truecolor-adesk-attrib $-1 -1 $337 $-1 $199 -1056964608 #
vertex $-1 -1 $-1 $199 $338 #
vertex $-1 -1 $-1 $199 $339 #
ellipse-curve $-1 -1 $-1 -574.60314314646121 38.159780126328904 27.600000000000001 0 0 1 5.6262128167264684 3.2551081918889948 0 1 F 1.2246467991473532e-16 F 3.1415926535897931 #
coedge $-1 -1 $-1 $200 $200 $203 $274 reversed $271 $-1 #
loop $-1 -1 $-1 $-1 $270 $340 #
truecolor-adesk-attrib $-1 -1 $341 $-1 $201 -1056964608 #
ellipse-curve $-1 -1 $-1 -574.60314314646121 38.159780126328904 -26.600000000000001 0 0 -1 -5.6262128167264684 -3.2551081918889948 0 1 F 1.2246467991473532e-16 F 3.1415926535897931 #
edge $342 -1 $-1 $209 -3.1415926535897931 $206 1.2246467991473532e-16 $270 $343 forward @7 unknown #
DXID-attrib $-1 -1 $-1 $205 $141 @18 ASM_EDGE_FROM_STEP @5 20923 #
point $-1 -1 $-1 -580.22935596318769 34.904671934439911 -26.600000000000001 #
DXID-attrib $-1 -1 $-1 $208 $143 @18 ASM_EDGE_FROM_STEP @5 17444 #
point $-1 -1 $-1 -568.97693032973473 41.414888318217898 -26.600000000000001 #
truecolor-adesk-attrib $-1 -1 $344 $-1 $211 -1056964608 #
ellipse-curve $-1 -1 $-1 -574.60314314646121 38.159780126328904 -27.600000000000001 0 0 -1 -5.6262128167264684 -3.2551081918889948 0 1 F -3.1415926535897931 F 1.2246467991473532e-16 #
truecolor-adesk-attrib $-1 -1 $345 $-1 $213 -1056964608 #
plane-surface $-1 -1 $-1 -574.60314314646121 38.159780126328904 -27.600000000000001 0 0 -1 -0.86557120257330267 -0.50078587567522981 0 forward_v I I I I #
DXID-attrib $-1 -1 $-1 $218 $151 @18 ASM_EDGE_FROM_STEP @5 15948 #
truecolor-adesk-attrib $-1 -1 $346 $-1 $220 -1056964608 #
ellipse-curve $-1 -1 $-1 -574.60314314646121 38.159780126328904 -27.600000000000001 0 0 -1 -4.3278560128665138 -2.5039293783761489 0 1 F -3.1415926535897931 F 1.2246467991473532e-16 #
DXID-attrib $-1 -1 $-1 $225 $164 @18 ASM_EDGE_FROM_STEP @4 2447 #
fmesh-eye-attrib $-1 -1 $347 $227 $165 #
DXID-attrib $-1 -1 $-1 $230 $112 @18 ASM_FACE_FROM_STEP @21 输送带机构-23320 #
fmesh-eye-attrib $-1 -1 $348 $231 $171 #
coedge $-1 -1 $-1 $233 $233 $235 $294 reversed $291 $-1 #
loop $-1 -1 $-1 $-1 $290 $336 #
truecolor-adesk-attrib $-1 -1 $349 $-1 $234 -1056964608 #
ellipse-curve $-1 -1 $-1 -574.60314314646121 38.159780126328904 27.600000000000001 0 0 1 4.3278560128665138 2.5039293783761489 0 1 F 1.2246467991473532e-16 F 3.1415926535897931 #
edge $350 -1 $-1 $240 -3.1415926535897931 $237 1.2246467991473532e-16 $290 $351 forward @7 unknown #
DXID-attrib $-1 -1 $-1 $236 $175 @18 ASM_EDGE_FROM_STEP @5 33105 #
point $-1 -1 $-1 -570.2752871335947 40.663709504705054 27.600000000000001 #
DXID-attrib $-1 -1 $-1 $239 $177 @18 ASM_EDGE_FROM_STEP @5 22042 #
point $-1 -1 $-1 -578.93099915932771 35.655850747952755 27.600000000000001 #
DXID-attrib $-1 -1 $-1 $243 $122 @18 ASM_FACE_FROM_STEP @21 输送带机构-15454 #
DXID-attrib $-1 -1 $-1 $245 $130 @18 ASM_FACE_FROM_STEP @21 输送带机构-29784 #
fmesh-eye-attrib $-1 -1 $352 $246 $187 #
DXID-attrib $-1 -1 $-1 $249 $135 @18 ASM_FACE_FROM_STEP @21 输送带机构-17875 #
fmesh-eye-attrib $-1 -1 $353 $250 $192 #
truecolor-adesk-attrib $-1 -1 $354 $-1 $251 -1056964608 #
face $355 -1 $-1 $356 $357 $3 $-1 $358 forward single #
loop $-1 -1 $-1 $-1 $359 $251 #
cone-surface $-1 -1 $-1 -574.60314314646121 38.159780126328904 26.600000000000001 0 0 -1 -14.281924842459494 -8.2629669486412922 0 1 I I 0 1 16.5 forward I I I I #
coedge $-1 -1 $-1 $360 $361 $362 $363 forward $252 $-1 #
coedge $-1 -1 $-1 $364 $254 $365 $366 forward $193 $-1 #
coedge $-1 -1 $-1 $254 $364 $367 $368 reversed $193 $-1 #
coedge $-1 -1 $-1 $369 $369 $254 $312 reversed $370 $-1 #
edge $371 -1 $-1 $372 0 $373 3.1415926535897931 $254 $374 forward @7 unknown #
coedge $-1 -1 $-1 $256 $255 $375 $376 reversed $136 $-1 #
coedge $-1 -1 $-1 $377 $378 $255 $315 reversed $379 $-1 #
edge $380 -1 $-1 $322 0 $381 0.0014999999999999992 $255 $382 forward @7 unknown #
coedge $-1 -1 $-1 $378 $377 $256 $317 forward $379 $-1 #
edge $383 -1 $-1 $321 0 $384 0.0014999999999999992 $256 $385 forward @7 unknown #
coedge $-1 -1 $-1 $257 $257 $377 $386 reversed $319 $-1 #
loop $-1 -1 $-1 $271 $257 $340 #
truecolor-adesk-attrib $-1 -1 $387 $-1 $258 -1056964608 #
vertex $-1 -1 $-1 $258 $388 #
vertex $-1 -1 $-1 $258 $389 #
ellipse-curve $-1 -1 $-1 -574.60314314646121 38.159780126328904 -26.600000000000001 0 0 1 14.281924842459494 8.2629669486412922 0 1 F 0 F 3.1415926535897931 #
coedge $-1 -1 $-1 $390 $390 $259 $325 reversed $391 $-1 #
edge $392 -1 $-1 $330 1.2246467991473532e-16 $333 3.1415926535897931 $259 $393 forward @7 unknown #
coedge $-1 -1 $-1 $262 $260 $264 $335 reversed $328 $-1 #
coedge $-1 -1 $-1 $260 $262 $390 $394 forward $328 $-1 #
loop $-1 -1 $-1 $-1 $260 $395 #
truecolor-adesk-attrib $-1 -1 $396 $-1 $261 -1056964608 #
vertex $-1 -1 $-1 $261 $397 #
straight-curve $-1 -1 $-1 -568.97693032973473 41.414888318217898 27.600000000000001 0 0 -1000 F 0 F 0.0010000000000000009 #
truecolor-adesk-attrib $-1 -1 $398 $-1 $263 -1056964608 #
vertex $-1 -1 $-1 $325 $399 #
straight-curve $-1 -1 $-1 -580.22935596318769 34.904671934439911 27.600000000000001 0 0 -1000 F 0 F 0.0010000000000000009 #
edge $400 -1 $-1 $268 -3.1415926535897931 $267 1.2246467991473532e-16 $326 $401 forward @7 unknown #
face $402 -1 $-1 $81 $265 $3 $-1 $403 forward single #
DXID-attrib $-1 -1 $-1 $266 $199 @18 ASM_EDGE_FROM_STEP @5 29782 #
point $-1 -1 $-1 -568.97693032973473 41.414888318217898 27.600000000000001 #
point $-1 -1 $-1 -580.22935596318769 34.904671934439911 27.600000000000001 #
face $404 -1 $-1 $405 $319 $3 $-1 $406 forward single #
DXID-attrib $-1 -1 $-1 $272 $201 @18 ASM_EDGE_FROM_STEP @4 2335 #
truecolor-adesk-attrib $-1 -1 $407 $-1 $274 -1056964608 #
ellipse-curve $-1 -1 $-1 -574.60314314646121 38.159780126328904 -26.600000000000001 0 0 -1 -5.6262128167264684 -3.2551081918889948 0 1 F -3.1415926535897931 F 1.2246467991473532e-16 #
DXID-attrib $-1 -1 $-1 $279 $211 @18 ASM_EDGE_FROM_STEP @3 224 #
fmesh-eye-attrib $-1 -1 $408 $281 $213 #
DXID-attrib $-1 -1 $-1 $284 $220 @18 ASM_EDGE_FROM_STEP @5 26930 #
DXID-attrib $-1 -1 $-1 $287 $165 @18 ASM_FACE_FROM_STEP @20 输送带机构-7276 #
DXID-attrib $-1 -1 $-1 $289 $171 @18 ASM_FACE_FROM_STEP @21 输送带机构-21090 #
DXID-attrib $-1 -1 $-1 $292 $234 @18 ASM_EDGE_FROM_STEP @5 11064 #
truecolor-adesk-attrib $-1 -1 $409 $-1 $294 -1056964608 #
ellipse-curve $-1 -1 $-1 -574.60314314646121 38.159780126328904 27.600000000000001 0 0 1 4.3278560128665138 2.5039293783761489 0 1 F -3.1415926535897931 F 1.2246467991473532e-16 #
DXID-attrib $-1 -1 $-1 $301 $187 @18 ASM_FACE_FROM_STEP @20 输送带机构-2538 #
DXID-attrib $-1 -1 $-1 $303 $192 @18 ASM_FACE_FROM_STEP @21 输送带机构-27557 #
fmesh-eye-attrib $-1 -1 $410 $304 $251 #
truecolor-adesk-attrib $-1 -1 $411 $-1 $305 -1056964608 #
face $412 -1 $-1 $413 $414 $3 $-1 $415 forward single #
loop $-1 -1 $-1 $-1 $416 $305 #
cone-surface $-1 -1 $-1 -574.60314314646121 38.159780126328904 25.100000000000001 0 0 -1 -12.98356803859954 -7.5117881351284472 0 1 I I 0 1 15 forward I I I I #
coedge $-1 -1 $-1 $417 $418 $419 $420 reversed $306 $-1 #
coedge $-1 -1 $-1 $421 $308 $422 $423 forward $252 $-1 #
coedge $-1 -1 $-1 $308 $421 $424 $425 reversed $252 $-1 #
coedge $-1 -1 $-1 $426 $426 $308 $363 reversed $427 $-1 #
edge $428 -1 $-1 $429 0 $430 3.1415926535897931 $308 $431 forward @7 unknown #
coedge $-1 -1 $-1 $310 $309 $432 $433 reversed $193 $-1 #
coedge $-1 -1 $-1 $434 $435 $309 $366 reversed $436 $-1 #
edge $437 -1 $-1 $373 -0.07381874334206015 $438 -0.071318743342060162 $309 $439 forward @7 unknown #
coedge $-1 -1 $-1 $435 $434 $310 $368 forward $436 $-1 #
edge $440 -1 $-1 $372 -0.07381874334206015 $441 -0.071318743342060162 $310 $442 forward @7 unknown #
coedge $-1 -1 $-1 $311 $311 $434 $443 reversed $370 $-1 #
loop $-1 -1 $-1 $-1 $311 $444 #
truecolor-adesk-attrib $-1 -1 $445 $-1 $312 -1056964608 #
vertex $-1 -1 $-1 $312 $446 #
vertex $-1 -1 $-1 $312 $447 #
ellipse-curve $-1 -1 $-1 -574.60314314646121 38.159780126328904 -25.099999999999998 0 0 1 11.252425633452935 6.5102163837779878 0 1 F 0 F 3.1415926535897931 #
coedge $-1 -1 $-1 $448 $448 $313 $376 forward $449 $-1 #
edge $450 -1 $-1 $384 0 $381 3.1415926535897931 $313 $451 forward @7 unknown #
coedge $-1 -1 $-1 $316 $314 $318 $386 forward $379 $-1 #
coedge $-1 -1 $-1 $314 $316 $448 $452 reversed $379 $-1 #
loop $-1 -1 $-1 $-1 $314 $405 #
truecolor-adesk-attrib $-1 -1 $453 $-1 $315 -1056964608 #
vertex $-1 -1 $-1 $315 $454 #
straight-curve $-1 -1 $-1 -588.8850679889207 29.896813177687612 -26.600000000000001 0 0 1000 F 0 F 0.0014999999999999992 #
truecolor-adesk-attrib $-1 -1 $455 $-1 $317 -1056964608 #
vertex $-1 -1 $-1 $376 $456 #
straight-curve $-1 -1 $-1 -560.32121830400172 46.422747074970196 -26.600000000000001 0 0 1000 F 0 F 0.0014999999999999992 #
edge $457 -1 $-1 $322 -3.1415926535897931 $321 0 $318 $458 forward @7 unknown #
DXID-attrib $-1 -1 $-1 $320 $258 @18 ASM_EDGE_FROM_STEP @5 19122 #
point $-1 -1 $-1 -560.32121830400172 46.422747074970196 -26.600000000000001 #
point $-1 -1 $-1 -588.8850679889207 29.896813177687612 -26.600000000000001 #
coedge $-1 -1 $-1 $324 $324 $327 $394 reversed $391 $-1 #
loop $-1 -1 $-1 $-1 $390 $459 #
truecolor-adesk-attrib $-1 -1 $460 $-1 $325 -1056964608 #
ellipse-curve $-1 -1 $-1 -574.60314314646121 38.159780126328904 26.600000000000001 0 0 1 5.6262128167264684 3.2551081918889948 0 1 F 1.2246467991473532e-16 F 3.1415926535897931 #
edge $461 -1 $-1 $333 -3.1415926535897931 $330 1.2246467991473532e-16 $390 $462 forward @7 unknown #
face $463 -1 $-1 $336 $328 $3 $-1 $464 forward single #
DXID-attrib $-1 -1 $-1 $329 $261 @18 ASM_EDGE_FROM_STEP @4 9771 #
point $-1 -1 $-1 -568.97693032973473 41.414888318217898 26.600000000000001 #
DXID-attrib $-1 -1 $-1 $332 $263 @18 ASM_EDGE_FROM_STEP @4 8197 #
point $-1 -1 $-1 -580.22935596318769 34.904671934439911 26.600000000000001 #
truecolor-adesk-attrib $-1 -1 $465 $-1 $335 -1056964608 #
ellipse-curve $-1 -1 $-1 -574.60314314646121 38.159780126328904 27.600000000000001 0 0 1 5.6262128167264684 3.2551081918889948 0 1 F -3.1415926535897931 F 1.2246467991473532e-16 #
truecolor-adesk-attrib $-1 -1 $466 $-1 $336 -1056964608 #
plane-surface $-1 -1 $-1 -574.60314314646121 38.159780126328904 27.600000000000001 0 0 1 0.86557120257330267 0.50078587567522981 0 forward_v I I I I #
truecolor-adesk-attrib $-1 -1 $467 $-1 $340 -1056964608 #
face $468 -1 $-1 $444 $379 $3 $-1 $469 forward single #
plane-surface $-1 -1 $-1 -574.60314314646121 38.159780126328904 -26.600000000000001 0 0 -1 0.86557120257330267 0.50078587567522981 0 forward_v I I I I #
DXID-attrib $-1 -1 $-1 $342 $274 @18 ASM_EDGE_FROM_STEP @5 29474 #
DXID-attrib $-1 -1 $-1 $345 $213 @18 ASM_FACE_FROM_STEP @21 输送带机构-16201 #
DXID-attrib $-1 -1 $-1 $350 $294 @18 ASM_EDGE_FROM_STEP @5 25349 #
DXID-attrib $-1 -1 $-1 $354 $251 @18 ASM_FACE_FROM_STEP @20 输送带机构-2357 #
fmesh-eye-attrib $-1 -1 $470 $355 $305 #
truecolor-adesk-attrib $-1 -1 $471 $-1 $356 -1056964608 #
face $472 -1 $-1 $459 $473 $3 $-1 $474 forward single #
loop $-1 -1 $-1 $-1 $475 $356 #
cone-surface $-1 -1 $-1 -574.60314314646121 38.159780126328904 25.100000000000001 0 0 -1 -12.98356803859954 -7.5117881351284472 0 1 I I 0 1 15 forward I I I I #
coedge $-1 -1 $-1 $476 $477 $478 $479 reversed $357 $-1 #
coedge $-1 -1 $-1 $480 $359 $481 $482 forward $306 $-1 #
coedge $-1 -1 $-1 $359 $480 $483 $484 reversed $306 $-1 #
coedge $-1 -1 $-1 $485 $485 $359 $420 forward $486 $-1 #
edge $487 -1 $-1 $488 1.2246467991473535e-16 $489 3.1415926535897931 $359 $490 forward @7 unknown #
coedge $-1 -1 $-1 $361 $360 $491 $492 reversed $252 $-1 #
coedge $-1 -1 $-1 $493 $494 $360 $423 reversed $495 $-1 #
edge $496 -1 $-1 $430 -0.026118743342060154 $497 -0.023618743342060156 $360 $498 forward @7 unknown #
coedge $-1 -1 $-1 $494 $493 $361 $425 forward $495 $-1 #
edge $499 -1 $-1 $429 -0.026118743342060154 $500 -0.023618743342060156 $361 $501 forward @7 unknown #
coedge $-1 -1 $-1 $362 $362 $493 $502 reversed $427 $-1 #
loop $-1 -1 $-1 $-1 $362 $503 #
truecolor-adesk-attrib $-1 -1 $504 $-1 $363 -1056964608 #
vertex $-1 -1 $-1 $363 $505 #
vertex $-1 -1 $-1 $363 $506 #
ellipse-curve $-1 -1 $-1 -574.60314314646121 38.159780126328904 22.600000000000001 0 0 1 11.252425633452935 6.5102163837779878 0 1 F 0 F 3.1415926535897931 #
coedge $-1 -1 $-1 $507 $507 $364 $433 forward $508 $-1 #
edge $509 -1 $-1 $441 0 $438 3.1415926535897931 $364 $510 forward @7 unknown #
coedge $-1 -1 $-1 $367 $365 $369 $443 forward $436 $-1 #
coedge $-1 -1 $-1 $365 $367 $507 $511 reversed $436 $-1 #
loop $-1 -1 $-1 $-1 $365 $512 #
truecolor-adesk-attrib $-1 -1 $513 $-1 $366 -1056964608 #
vertex $-1 -1 $-1 $366 $514 #
straight-curve $-1 -1 $-1 -585.85556877991417 31.649563742550917 48.718743342060158 0 0 1000 F -0.07381874334206015 F -0.071318743342060162 #
truecolor-adesk-attrib $-1 -1 $515 $-1 $368 -1056964608 #
vertex $-1 -1 $-1 $433 $516 #
straight-curve $-1 -1 $-1 -563.35071751300825 44.669996510106891 48.718743342060158 0 0 1000 F -0.07381874334206015 F -0.071318743342060162 #
edge $517 -1 $-1 $373 -3.1415926535897931 $372 0 $434 $518 forward @7 unknown #
face $519 -1 $-1 $395 $449 $3 $-1 $520 reversed single #
DXID-attrib $-1 -1 $-1 $371 $312 @18 ASM_EDGE_FROM_STEP @5 18619 #
point $-1 -1 $-1 -563.35071751300825 44.669996510106891 -25.099999999999998 #
point $-1 -1 $-1 -585.85556877991417 31.649563742550917 -25.099999999999998 #
coedge $-1 -1 $-1 $375 $375 $378 $452 forward $449 $-1 #
loop $-1 -1 $-1 $370 $375 $444 #
truecolor-adesk-attrib $-1 -1 $521 $-1 $376 -1056964608 #
ellipse-curve $-1 -1 $-1 -574.60314314646121 38.159780126328904 -25.100000000000001 0 0 1 14.281924842459494 8.2629669486412922 0 1 F 0 F 3.1415926535897931 #
edge $522 -1 $-1 $381 -3.1415926535897931 $384 0 $378 $523 forward @7 unknown #
DXID-attrib $-1 -1 $-1 $380 $315 @18 ASM_EDGE_FROM_STEP @5 14323 #
point $-1 -1 $-1 -588.8850679889207 29.896813177687612 -25.100000000000001 #
DXID-attrib $-1 -1 $-1 $383 $317 @18 ASM_EDGE_FROM_STEP @5 15640 #
point $-1 -1 $-1 -560.32121830400172 46.422747074970196 -25.100000000000001 #
truecolor-adesk-attrib $-1 -1 $524 $-1 $386 -1056964608 #
ellipse-curve $-1 -1 $-1 -574.60314314646121 38.159780126328904 -26.600000000000001 0 0 1 14.281924842459494 8.2629669486412922 0 1 F -3.1415926535897931 F 0 #
face $525 -1 $-1 $526 $486 $3 $-1 $527 forward single #
DXID-attrib $-1 -1 $-1 $392 $325 @18 ASM_EDGE_FROM_STEP @5 22352 #
truecolor-adesk-attrib $-1 -1 $528 $-1 $394 -1056964608 #
ellipse-curve $-1 -1 $-1 -574.60314314646121 38.159780126328904 26.600000000000001 0 0 1 5.6262128167264684 3.2551081918889948 0 1 F -3.1415926535897931 F 1.2246467991473532e-16 #
truecolor-adesk-attrib $-1 -1 $529 $-1 $395 -1056964608 #
cone-surface $-1 -1 $-1 -574.60314314646121 38.159780126328904 27.600000000000001 0 0 -1 -5.6262128167264684 -3.2551081918889948 0 1 I I 0 1 6.5000000000000018 forward I I I I #
DXID-attrib $-1 -1 $-1 $400 $335 @18 ASM_EDGE_FROM_STEP @4 6607 #
fmesh-eye-attrib $-1 -1 $530 $402 $336 #
fmesh-eye-attrib $-1 -1 $531 $404 $340 #
truecolor-adesk-attrib $-1 -1 $532 $-1 $405 -1056964608 #
cone-surface $-1 -1 $-1 -574.60314314646121 38.159780126328904 -26.600000000000001 0 0 1 14.281924842459494 8.2629669486412922 0 1 I I 0 1 16.5 forward I I I I #
DXID-attrib $-1 -1 $-1 $411 $305 @18 ASM_FACE_FROM_STEP @21 输送带机构-23479 #
fmesh-eye-attrib $-1 -1 $533 $412 $356 #
truecolor-adesk-attrib $-1 -1 $534 $-1 $413 -1056964608 #
loop $-1 -1 $-1 $-1 $481 $413 #
cone-surface $-1 -1 $-1 -574.60314314646121 38.159780126328904 26.600000000000001 0 0 -1 -14.281924842459494 -8.2629669486412922 0 1 I I 0 1 16.5 forward I I I I #
coedge $-1 -1 $-1 $535 $536 $476 $537 reversed $414 $-1 #
coedge $-1 -1 $-1 $538 $416 $475 $537 forward $357 $-1 #
coedge $-1 -1 $-1 $416 $538 $539 $540 reversed $357 $-1 #
coedge $-1 -1 $-1 $541 $541 $416 $479 forward $542 $-1 #
edge $543 -1 $-1 $544 1.2246467991473532e-16 $545 3.1415926535897931 $416 $546 forward @7 unknown #
coedge $-1 -1 $-1 $418 $417 $547 $548 forward $306 $-1 #
coedge $-1 -1 $-1 $549 $550 $417 $482 reversed $473 $-1 #
edge $551 -1 $-1 $488 0 $552 0.0014999999999999992 $417 $553 forward @7 unknown #
coedge $-1 -1 $-1 $550 $549 $418 $484 forward $473 $-1 #
edge $554 -1 $-1 $489 0 $555 0.0014999999999999992 $418 $556 forward @7 unknown #
coedge $-1 -1 $-1 $419 $419 $549 $557 forward $486 $-1 #
loop $-1 -1 $-1 $391 $485 $459 #
truecolor-adesk-attrib $-1 -1 $558 $-1 $420 -1056964608 #
vertex $-1 -1 $-1 $420 $559 #
vertex $-1 -1 $-1 $420 $560 #
ellipse-curve $-1 -1 $-1 -574.60314314646121 38.159780126328904 26.600000000000001 0 0 1 14.281924842459494 8.2629669486412922 0 1 F 1.2246467991473535e-16 F 3.1415926535897931 #
coedge $-1 -1 $-1 $561 $561 $421 $492 forward $562 $-1 #
edge $563 -1 $-1 $500 0 $497 3.1415926535897931 $421 $564 forward @7 unknown #
coedge $-1 -1 $-1 $424 $422 $426 $502 forward $495 $-1 #
coedge $-1 -1 $-1 $422 $424 $561 $565 reversed $495 $-1 #
loop $-1 -1 $-1 $-1 $422 $566 #
truecolor-adesk-attrib $-1 -1 $567 $-1 $423 -1056964608 #
vertex $-1 -1 $-1 $423 $568 #
straight-curve $-1 -1 $-1 -585.85556877991417 31.649563742550917 48.718743342060158 0 0 1000 F -0.026118743342060154 F -0.023618743342060156 #
truecolor-adesk-attrib $-1 -1 $569 $-1 $425 -1056964608 #
vertex $-1 -1 $-1 $492 $570 #
straight-curve $-1 -1 $-1 -563.35071751300825 44.669996510106891 48.718743342060158 0 0 1000 F -0.026118743342060154 F -0.023618743342060156 #
edge $571 -1 $-1 $430 -3.1415926535897931 $429 0 $493 $572 forward @7 unknown #
face $573 -1 $-1 $574 $542 $3 $-1 $575 forward single #
DXID-attrib $-1 -1 $-1 $428 $363 @18 ASM_EDGE_FROM_STEP @4 5531 #
point $-1 -1 $-1 -563.35071751300825 44.669996510106891 22.600000000000001 #
point $-1 -1 $-1 -585.85556877991417 31.649563742550917 22.600000000000001 #
coedge $-1 -1 $-1 $432 $432 $435 $511 forward $508 $-1 #
loop $-1 -1 $-1 $-1 $432 $574 #
truecolor-adesk-attrib $-1 -1 $576 $-1 $433 -1056964608 #
ellipse-curve $-1 -1 $-1 -574.60314314646121 38.159780126328904 -22.599999999999994 0 0 1 11.252425633452935 6.5102163837779878 0 1 F 0 F 3.1415926535897931 #
edge $577 -1 $-1 $438 -3.1415926535897931 $441 0 $507 $578 forward @7 unknown #
face $579 -1 $-1 $340 $436 $3 $-1 $580 forward single #
DXID-attrib $-1 -1 $-1 $437 $366 @18 ASM_EDGE_FROM_STEP @5 23401 #
point $-1 -1 $-1 -585.85556877991417 31.649563742550917 -22.599999999999994 #
DXID-attrib $-1 -1 $-1 $440 $368 @18 ASM_EDGE_FROM_STEP @5 13396 #
point $-1 -1 $-1 -563.35071751300825 44.669996510106891 -22.599999999999994 #
truecolor-adesk-attrib $-1 -1 $581 $-1 $443 -1056964608 #
ellipse-curve $-1 -1 $-1 -574.60314314646121 38.159780126328904 -25.099999999999998 0 0 1 11.252425633452935 6.5102163837779878 0 1 F -3.1415926535897931 F 0 #
truecolor-adesk-attrib $-1 -1 $582 $-1 $444 -1056964608 #
plane-surface $-1 -1 $-1 -574.60314314646121 38.159780126328904 -25.100000000000001 0 0 -1 0.86557120257330267 0.50078587567522981 0 forward_v I I I I #
DXID-attrib $-1 -1 $-1 $450 $376 @18 ASM_EDGE_FROM_STEP @4 9501 #
truecolor-adesk-attrib $-1 -1 $583 $-1 $452 -1056964608 #
ellipse-curve $-1 -1 $-1 -574.60314314646121 38.159780126328904 -25.100000000000001 0 0 1 14.281924842459494 8.2629669486412922 0 1 F -3.1415926535897931 F 0 #
DXID-attrib $-1 -1 $-1 $457 $386 @18 ASM_EDGE_FROM_STEP @5 12359 #
truecolor-adesk-attrib $-1 -1 $584 $-1 $459 -1056964608 #
face $585 -1 $-1 $566 $586 $3 $-1 $587 reversed single #
plane-surface $-1 -1 $-1 -574.60314314646121 38.159780126328904 26.600000000000001 0 0 1 0.86557120257330267 0.50078587567522981 0 forward_v I I I I #
DXID-attrib $-1 -1 $-1 $461 $394 @18 ASM_EDGE_FROM_STEP @5 34575 #
fmesh-eye-attrib $-1 -1 $588 $463 $395 #
DXID-attrib $-1 -1 $-1 $466 $336 @18 ASM_FACE_FROM_STEP @20 输送带机构-4835 #
DXID-attrib $-1 -1 $-1 $467 $340 @18 ASM_FACE_FROM_STEP @20 输送带机构-5947 #
fmesh-eye-attrib $-1 -1 $589 $468 $405 #
DXID-attrib $-1 -1 $-1 $471 $356 @18 ASM_FACE_FROM_STEP @21 输送带机构-33579 #
fmesh-eye-attrib $-1 -1 $590 $472 $413 #
coedge $-1 -1 $-1 $539 $475 $541 $591 reversed $414 $-1 #
coedge $-1 -1 $-1 $475 $539 $592 $593 forward $414 $-1 #
edge $594 -1 $-1 $544 0.0025000000000000001 $595 0.047699999999999992 $476 $596 forward @7 unknown #
coedge $-1 -1 $-1 $477 $476 $597 $598 forward $357 $-1 #
coedge $-1 -1 $-1 $536 $535 $477 $540 forward $414 $-1 #
edge $599 -1 $-1 $545 0.0025000000000000001 $600 0.047699999999999992 $477 $601 forward @7 unknown #
coedge $-1 -1 $-1 $478 $478 $535 $591 forward $542 $-1 #
loop $-1 -1 $-1 $427 $541 $503 #
truecolor-adesk-attrib $-1 -1 $602 $-1 $479 -1056964608 #
vertex $-1 -1 $-1 $479 $603 #
vertex $-1 -1 $-1 $479 $604 #
ellipse-curve $-1 -1 $-1 -574.60314314646121 38.159780126328904 22.600000000000001 0 0 1 12.98356803859954 7.5117881351284472 0 1 F 1.2246467991473532e-16 F 3.1415926535897931 #
coedge $-1 -1 $-1 $605 $605 $480 $548 reversed $586 $-1 #
edge $606 -1 $-1 $552 1.2246467991473535e-16 $555 3.1415926535897931 $480 $607 forward @7 unknown #
coedge $-1 -1 $-1 $483 $481 $485 $557 reversed $473 $-1 #
coedge $-1 -1 $-1 $481 $483 $605 $608 forward $473 $-1 #
truecolor-adesk-attrib $-1 -1 $609 $-1 $482 -1056964608 #
vertex $-1 -1 $-1 $482 $610 #
straight-curve $-1 -1 $-1 -560.32121830400172 46.422747074970196 26.600000000000001 0 0 -1000 F 0 F 0.0014999999999999992 #
truecolor-adesk-attrib $-1 -1 $611 $-1 $484 -1056964608 #
vertex $-1 -1 $-1 $548 $612 #
straight-curve $-1 -1 $-1 -588.8850679889207 29.896813177687612 26.600000000000001 0 0 -1000 F 0 F 0.0014999999999999992 #
edge $613 -1 $-1 $489 -3.1415926535897931 $488 1.2246467991473535e-16 $549 $614 forward @7 unknown #
DXID-attrib $-1 -1 $-1 $487 $420 @18 ASM_EDGE_FROM_STEP @5 11234 #
point $-1 -1 $-1 -560.32121830400172 46.422747074970196 26.600000000000001 #
point $-1 -1 $-1 -588.8850679889207 29.896813177687612 26.600000000000001 #
coedge $-1 -1 $-1 $491 $491 $494 $565 forward $562 $-1 #
loop $-1 -1 $-1 $-1 $491 $526 #
truecolor-adesk-attrib $-1 -1 $615 $-1 $492 -1056964608 #
ellipse-curve $-1 -1 $-1 -574.60314314646121 38.159780126328904 25.100000000000001 0 0 1 11.252425633452935 6.5102163837779878 0 1 F 0 F 3.1415926535897931 #
edge $616 -1 $-1 $497 -3.1415926535897931 $500 0 $561 $617 forward @7 unknown #
face $618 -1 $-1 $503 $495 $3 $-1 $619 forward single #
DXID-attrib $-1 -1 $-1 $496 $423 @18 ASM_EDGE_FROM_STEP @4 3804 #
point $-1 -1 $-1 -585.85556877991417 31.649563742550917 25.100000000000001 #
DXID-attrib $-1 -1 $-1 $499 $425 @18 ASM_EDGE_FROM_STEP @5 30393 #
point $-1 -1 $-1 -563.35071751300825 44.669996510106891 25.100000000000001 #
truecolor-adesk-attrib $-1 -1 $620 $-1 $502 -1056964608 #
ellipse-curve $-1 -1 $-1 -574.60314314646121 38.159780126328904 22.600000000000001 0 0 1 11.252425633452935 6.5102163837779878 0 1 F -3.1415926535897931 F 0 #
truecolor-adesk-attrib $-1 -1 $621 $-1 $503 -1056964608 #
face $622 -1 $-1 $512 $623 $3 $-1 $624 forward single #
plane-surface $-1 -1 $-1 -582.11493128158963 51.14334816492844 22.600000000000001 0 0 1 0.86557120257330267 0.50078587567522981 0 forward_v I I I I #
DXID-attrib $-1 -1 $-1 $509 $433 @18 ASM_EDGE_FROM_STEP @5 21839 #
truecolor-adesk-attrib $-1 -1 $625 $-1 $511 -1056964608 #
ellipse-curve $-1 -1 $-1 -574.60314314646121 38.159780126328904 -22.599999999999994 0 0 1 11.252425633452935 6.5102163837779878 0 1 F -3.1415926535897931 F 0 #
truecolor-adesk-attrib $-1 -1 $626 $-1 $512 -1056964608 #
cone-surface $-1 -1 $-1 -574.60314314646121 38.159780126328904 48.718743342060158 0 0 1 11.252425633452935 6.5102163837779878 0 1 I I 0 1 13 forward I I I I #
DXID-attrib $-1 -1 $-1 $517 $443 @18 ASM_EDGE_FROM_STEP @5 12641 #
fmesh-eye-attrib $-1 -1 $627 $519 $444 #
DXID-attrib $-1 -1 $-1 $522 $452 @18 ASM_EDGE_FROM_STEP @5 15361 #
fmesh-eye-attrib $-1 -1 $628 $525 $459 #
truecolor-adesk-attrib $-1 -1 $629 $-1 $526 -1056964608 #
loop $-1 -1 $-1 $562 $605 $526 #
plane-surface $-1 -1 $-1 -574.60314314646121 38.159780126328904 25.100000000000001 0 0 1 0.86557120257330267 0.50078587567522981 0 forward_v I I I I #
DXID-attrib $-1 -1 $-1 $529 $395 @18 ASM_FACE_FROM_STEP @21 输送带机构-27151 #
DXID-attrib $-1 -1 $-1 $532 $405 @18 ASM_FACE_FROM_STEP @21 输送带机构-33100 #
DXID-attrib $-1 -1 $-1 $534 $413 @18 ASM_FACE_FROM_STEP @21 输送带机构-23211 #
edge $630 -1 $-1 $545 -3.1415926535897931 $544 1.2246467991473532e-16 $535 $631 forward @7 unknown #
coedge $-1 -1 $-1 $597 $597 $536 $593 reversed $623 $-1 #
edge $632 -1 $-1 $600 -3.1415926535897931 $595 1.2246467991473532e-16 $536 $633 forward @7 unknown #
truecolor-adesk-attrib $-1 -1 $634 $-1 $537 -1056964608 #
vertex $-1 -1 $-1 $537 $635 #
straight-curve $-1 -1 $-1 -561.61957510786169 45.671568261457352 25.100000000000001 0 0 -1000 F 0.0025000000000000001 F 0.047699999999999992 #
coedge $-1 -1 $-1 $592 $592 $538 $598 reversed $623 $-1 #
edge $636 -1 $-1 $595 1.2246467991473532e-16 $600 3.1415926535897931 $538 $637 forward @7 unknown #
truecolor-adesk-attrib $-1 -1 $638 $-1 $540 -1056964608 #
vertex $-1 -1 $-1 $598 $639 #
straight-curve $-1 -1 $-1 -587.58671118506072 30.647991991200456 25.100000000000001 0 0 -1000 F 0.0025000000000000001 F 0.047699999999999992 #
DXID-attrib $-1 -1 $-1 $543 $479 @18 ASM_EDGE_FROM_STEP @5 30515 #
point $-1 -1 $-1 -561.61957510786169 45.671568261457352 22.600000000000001 #
point $-1 -1 $-1 -587.58671118506072 30.647991991200456 22.600000000000001 #
coedge $-1 -1 $-1 $547 $547 $550 $608 reversed $586 $-1 #
truecolor-adesk-attrib $-1 -1 $640 $-1 $548 -1056964608 #
ellipse-curve $-1 -1 $-1 -574.60314314646121 38.159780126328904 25.100000000000001 0 0 1 14.281924842459494 8.2629669486412922 0 1 F 1.2246467991473535e-16 F 3.1415926535897931 #
edge $641 -1 $-1 $555 -3.1415926535897931 $552 1.2246467991473535e-16 $550 $642 forward @7 unknown #
DXID-attrib $-1 -1 $-1 $551 $482 @18 ASM_EDGE_FROM_STEP @4 4651 #
point $-1 -1 $-1 -560.32121830400172 46.422747074970196 25.100000000000001 #
DXID-attrib $-1 -1 $-1 $554 $484 @18 ASM_EDGE_FROM_STEP @5 30333 #
point $-1 -1 $-1 -588.8850679889207 29.896813177687612 25.100000000000001 #
truecolor-adesk-attrib $-1 -1 $643 $-1 $557 -1056964608 #
ellipse-curve $-1 -1 $-1 -574.60314314646121 38.159780126328904 26.600000000000001 0 0 1 14.281924842459494 8.2629669486412922 0 1 F -3.1415926535897931 F 1.2246467991473535e-16 #
DXID-attrib $-1 -1 $-1 $563 $492 @18 ASM_EDGE_FROM_STEP @4 5689 #
truecolor-adesk-attrib $-1 -1 $644 $-1 $565 -1056964608 #
ellipse-curve $-1 -1 $-1 -574.60314314646121 38.159780126328904 25.100000000000001 0 0 1 11.252425633452935 6.5102163837779878 0 1 F -3.1415926535897931 F 0 #
truecolor-adesk-attrib $-1 -1 $645 $-1 $566 -1056964608 #
cone-surface $-1 -1 $-1 -574.60314314646121 38.159780126328904 48.718743342060158 0 0 1 11.252425633452935 6.5102163837779878 0 1 I I 0 1 13 forward I I I I #
DXID-attrib $-1 -1 $-1 $571 $502 @18 ASM_EDGE_FROM_STEP @4 1173 #
fmesh-eye-attrib $-1 -1 $646 $573 $503 #
truecolor-adesk-attrib $-1 -1 $647 $-1 $574 -1056964608 #
loop $-1 -1 $-1 $508 $592 $574 #
plane-surface $-1 -1 $-1 -582.11493128158963 51.14334816492844 -22.600000000000001 0 0 -1 -0.86557120257330267 -0.50078587567522981 0 forward_v I I I I #
DXID-attrib $-1 -1 $-1 $577 $511 @18 ASM_EDGE_FROM_STEP @4 2334 #
fmesh-eye-attrib $-1 -1 $648 $579 $512 #
DXID-attrib $-1 -1 $-1 $582 $444 @18 ASM_FACE_FROM_STEP @20 输送带机构-8645 #
DXID-attrib $-1 -1 $-1 $584 $459 @18 ASM_FACE_FROM_STEP @21 输送带机构-28540 #
fmesh-eye-attrib $-1 -1 $649 $585 $526 #
truecolor-adesk-attrib $-1 -1 $650 $-1 $591 -1056964608 #
ellipse-curve $-1 -1 $-1 -574.60314314646121 38.159780126328904 22.600000000000001 0 0 1 12.98356803859954 7.5117881351284472 0 1 F -3.1415926535897931 F 1.2246467991473532e-16 #
truecolor-adesk-attrib $-1 -1 $651 $-1 $593 -1056964608 #
ellipse-curve $-1 -1 $-1 -574.60314314646121 38.159780126328904 -22.599999999999994 0 0 1 12.98356803859954 7.5117881351284472 0 1 F -3.1415926535897931 F 1.2246467991473532e-16 #
DXID-attrib $-1 -1 $-1 $594 $537 @18 ASM_EDGE_FROM_STEP @5 29175 #
point $-1 -1 $-1 -561.61957510786169 45.671568261457352 -22.599999999999994 #
truecolor-adesk-attrib $-1 -1 $652 $-1 $598 -1056964608 #
ellipse-curve $-1 -1 $-1 -574.60314314646121 38.159780126328904 -22.599999999999994 0 0 1 12.98356803859954 7.5117881351284472 0 1 F 1.2246467991473532e-16 F 3.1415926535897931 #
DXID-attrib $-1 -1 $-1 $599 $540 @18 ASM_EDGE_FROM_STEP @5 22775 #
point $-1 -1 $-1 -587.58671118506072 30.647991991200456 -22.599999999999994 #
DXID-attrib $-1 -1 $-1 $606 $548 @18 ASM_EDGE_FROM_STEP @5 15324 #
truecolor-adesk-attrib $-1 -1 $653 $-1 $608 -1056964608 #
ellipse-curve $-1 -1 $-1 -574.60314314646121 38.159780126328904 25.100000000000001 0 0 1 14.281924842459494 8.2629669486412922 0 1 F -3.1415926535897931 F 1.2246467991473535e-16 #
DXID-attrib $-1 -1 $-1 $613 $557 @18 ASM_EDGE_FROM_STEP @5 18343 #
DXID-attrib $-1 -1 $-1 $616 $565 @18 ASM_EDGE_FROM_STEP @5 21239 #
fmesh-eye-attrib $-1 -1 $654 $618 $566 #
DXID-attrib $-1 -1 $-1 $621 $503 @18 ASM_FACE_FROM_STEP @21 输送带机构-13856 #
fmesh-eye-attrib $-1 -1 $655 $622 $574 #
DXID-attrib $-1 -1 $-1 $626 $512 @18 ASM_FACE_FROM_STEP @21 输送带机构-30040 #
DXID-attrib $-1 -1 $-1 $629 $526 @18 ASM_FACE_FROM_STEP @21 输送带机构-25815 #
DXID-attrib $-1 -1 $-1 $630 $591 @18 ASM_EDGE_FROM_STEP @5 26494 #
DXID-attrib $-1 -1 $-1 $632 $593 @18 ASM_EDGE_FROM_STEP @5 24908 #
DXID-attrib $-1 -1 $-1 $636 $598 @18 ASM_EDGE_FROM_STEP @3 239 #
DXID-attrib $-1 -1 $-1 $641 $608 @18 ASM_EDGE_FROM_STEP @5 17071 #
DXID-attrib $-1 -1 $-1 $645 $566 @18 ASM_FACE_FROM_STEP @21 输送带机构-20348 #
DXID-attrib $-1 -1 $-1 $647 $574 @18 ASM_FACE_FROM_STEP @21 输送带机构-27831 #
